<?xml version="1.0" encoding="UTF-8" standalone="no"?>
<!DOCTYPE svg PUBLIC "-//W3C//DTD SVG 1.1//EN"
 "http://www.w3.org/Graphics/SVG/1.1/DTD/svg11.dtd">
<!-- Generated by graphviz version 2.47.0 (20210316.0004)
 -->
<!-- Title: G Pages: 1 -->
<svg width="318pt" height="780pt"
 viewBox="0.00 0.00 317.99 779.66" xmlns="http://www.w3.org/2000/svg" xmlns:xlink="http://www.w3.org/1999/xlink">
<g id="graph0" class="graph" transform="scale(1 1) rotate(0) translate(4 775.66)">
<title>G</title>
<polygon fill="white" stroke="transparent" points="-4,4 -4,-775.66 313.99,-775.66 313.99,4 -4,4"/>
<!-- BB0 -->
<g id="node1" class="node">
<title>BB0</title>
<ellipse fill="none" stroke="black" cx="144.2" cy="-744.79" rx="37.45" ry="26.74"/>
<text text-anchor="middle" x="144.2" y="-748.59" font-family="Times New Roman,serif" font-size="14.00">[0..90)</text>
<text text-anchor="middle" x="144.2" y="-733.59" font-family="Times New Roman,serif" font-size="14.00">0.00</text>
</g>
<!-- BB9 -->
<g id="node10" class="node">
<title>BB9</title>
<ellipse fill="none" stroke="black" cx="144.2" cy="-655.05" rx="50.82" ry="26.74"/>
<text text-anchor="middle" x="144.2" y="-658.85" font-family="Times New Roman,serif" font-size="14.00">[1e7..1ec)</text>
<text text-anchor="middle" x="144.2" y="-643.85" font-family="Times New Roman,serif" font-size="14.00">0.00</text>
</g>
<!-- BB0&#45;&gt;BB9 -->
<g id="edge1" class="edge">
<title>BB0&#45;&gt;BB9</title>
<path fill="none" stroke="black" d="M144.2,-717.47C144.2,-709.5 144.2,-700.61 144.2,-692.12"/>
<polygon fill="black" stroke="black" points="147.7,-692.05 144.2,-682.05 140.7,-692.05 147.7,-692.05"/>
</g>
<!-- BB1 -->
<g id="node2" class="node">
<title>BB1</title>
<ellipse fill="none" stroke="black" cx="148.2" cy="-475.57" rx="43.27" ry="26.74"/>
<text text-anchor="middle" x="148.2" y="-479.37" font-family="Times New Roman,serif" font-size="14.00">[90..b8)</text>
<text text-anchor="middle" x="148.2" y="-464.37" font-family="Times New Roman,serif" font-size="14.00">0.00</text>
</g>
<!-- BB7 -->
<g id="node8" class="node">
<title>BB7</title>
<ellipse fill="none" stroke="black" cx="153.2" cy="-385.83" rx="51.74" ry="26.74"/>
<text text-anchor="middle" x="153.2" y="-389.63" font-family="Times New Roman,serif" font-size="14.00">[1b1..1bf)</text>
<text text-anchor="middle" x="153.2" y="-374.63" font-family="Times New Roman,serif" font-size="14.00">0.00</text>
</g>
<!-- BB1&#45;&gt;BB7 -->
<g id="edge2" class="edge">
<title>BB1&#45;&gt;BB7</title>
<path fill="none" stroke="black" d="M149.7,-448.25C150.16,-440.28 150.67,-431.39 151.15,-422.9"/>
<polygon fill="black" stroke="black" points="154.65,-423.02 151.72,-412.83 147.66,-422.62 154.65,-423.02"/>
</g>
<!-- BB2 -->
<g id="node3" class="node">
<title>BB2</title>
<ellipse fill="none" stroke="black" cx="161.2" cy="-296.09" rx="42.35" ry="26.74"/>
<text text-anchor="middle" x="161.2" y="-299.89" font-family="Times New Roman,serif" font-size="14.00">[b8..ce)</text>
<text text-anchor="middle" x="161.2" y="-284.89" font-family="Times New Roman,serif" font-size="14.00">0.00</text>
</g>
<!-- BB3 -->
<g id="node4" class="node">
<title>BB3</title>
<ellipse fill="none" stroke="black" cx="149.2" cy="-206.35" rx="46.84" ry="26.74"/>
<text text-anchor="middle" x="149.2" y="-210.15" font-family="Times New Roman,serif" font-size="14.00">[ce..167)</text>
<text text-anchor="middle" x="149.2" y="-195.15" font-family="Times New Roman,serif" font-size="14.00">0.99</text>
</g>
<!-- BB2&#45;&gt;BB3 -->
<g id="edge3" class="edge">
<title>BB2&#45;&gt;BB3</title>
<path fill="none" stroke="black" d="M157.67,-269.24C156.56,-261.1 155.31,-251.96 154.12,-243.26"/>
<polygon fill="black" stroke="black" points="157.58,-242.75 152.76,-233.32 150.64,-243.7 157.58,-242.75"/>
</g>
<!-- BB3&#45;&gt;BB3 -->
<g id="edge4" class="edge">
<title>BB3&#45;&gt;BB3</title>
<path fill="none" stroke="black" d="M186.42,-222.75C201.35,-223.68 213.87,-218.21 213.87,-206.35 213.87,-197.36 206.68,-192.05 196.7,-190.4"/>
<polygon fill="black" stroke="black" points="196.56,-186.89 186.42,-189.95 196.26,-193.89 196.56,-186.89"/>
</g>
<!-- BB4 -->
<g id="node5" class="node">
<title>BB4</title>
<ellipse fill="none" stroke="black" cx="149.2" cy="-116.61" rx="52.15" ry="26.74"/>
<text text-anchor="middle" x="149.2" y="-120.41" font-family="Times New Roman,serif" font-size="14.00">[167..173)</text>
<text text-anchor="middle" x="149.2" y="-105.41" font-family="Times New Roman,serif" font-size="14.00">0.00</text>
</g>
<!-- BB3&#45;&gt;BB4 -->
<g id="edge5" class="edge">
<title>BB3&#45;&gt;BB4</title>
<path fill="none" stroke="black" d="M149.2,-179.03C149.2,-171.06 149.2,-162.17 149.2,-153.68"/>
<polygon fill="black" stroke="black" points="152.7,-153.61 149.2,-143.61 145.7,-153.61 152.7,-153.61"/>
</g>
<!-- BB5 -->
<g id="node6" class="node">
<title>BB5</title>
<ellipse fill="none" stroke="black" cx="119.2" cy="-26.87" rx="52.15" ry="26.74"/>
<text text-anchor="middle" x="119.2" y="-30.67" font-family="Times New Roman,serif" font-size="14.00">[173..18d)</text>
<text text-anchor="middle" x="119.2" y="-15.67" font-family="Times New Roman,serif" font-size="14.00">0.00</text>
</g>
<!-- BB4&#45;&gt;BB5 -->
<g id="edge7" class="edge">
<title>BB4&#45;&gt;BB5</title>
<path fill="none" stroke="black" d="M140.37,-89.76C137.53,-81.46 134.33,-72.12 131.3,-63.26"/>
<polygon fill="black" stroke="black" points="134.53,-61.87 127.98,-53.54 127.9,-64.13 134.53,-61.87"/>
</g>
<!-- BB6 -->
<g id="node7" class="node">
<title>BB6</title>
<ellipse fill="none" stroke="black" cx="242.2" cy="-26.87" rx="53.07" ry="26.74"/>
<text text-anchor="middle" x="242.2" y="-30.67" font-family="Times New Roman,serif" font-size="14.00">[18d..1b1)</text>
<text text-anchor="middle" x="242.2" y="-15.67" font-family="Times New Roman,serif" font-size="14.00">0.00</text>
</g>
<!-- BB4&#45;&gt;BB6 -->
<g id="edge6" class="edge">
<title>BB4&#45;&gt;BB6</title>
<path fill="none" stroke="black" d="M173.64,-92.56C184.96,-81.88 198.55,-69.06 210.64,-57.65"/>
<polygon fill="black" stroke="black" points="213.06,-60.18 217.93,-50.77 208.26,-55.09 213.06,-60.18"/>
</g>
<!-- BB5&#45;&gt;BB6 -->
<g id="edge8" class="edge">
<title>BB5&#45;&gt;BB6</title>
<path fill="none" stroke="black" d="M171.58,-26.87C174.02,-26.87 176.46,-26.87 178.91,-26.87"/>
<polygon fill="black" stroke="black" points="178.96,-30.37 188.96,-26.87 178.96,-23.37 178.96,-30.37"/>
</g>
<!-- BB6&#45;&gt;BB7 -->
<g id="edge9" class="edge">
<title>BB6&#45;&gt;BB7</title>
<path fill="none" stroke="black" d="M245.15,-53.87C250.02,-107.22 255.36,-231.72 212.2,-322.96 206.5,-335.03 197.51,-346.26 188.27,-355.74"/>
<polygon fill="black" stroke="black" points="185.57,-353.48 180.85,-362.96 190.46,-358.49 185.57,-353.48"/>
</g>
<!-- BB7&#45;&gt;BB2 -->
<g id="edge10" class="edge">
<title>BB7&#45;&gt;BB2</title>
<path fill="none" stroke="black" d="M155.56,-358.98C156.3,-350.93 157.12,-341.9 157.9,-333.28"/>
<polygon fill="black" stroke="black" points="161.41,-333.34 158.84,-323.06 154.44,-332.7 161.41,-333.34"/>
</g>
<!-- BB8 -->
<g id="node9" class="node">
<title>BB8</title>
<ellipse fill="none" stroke="black" cx="50.2" cy="-296.09" rx="50.41" ry="26.74"/>
<text text-anchor="middle" x="50.2" y="-299.89" font-family="Times New Roman,serif" font-size="14.00">[1bf..1e7)</text>
<text text-anchor="middle" x="50.2" y="-284.89" font-family="Times New Roman,serif" font-size="14.00">0.00</text>
</g>
<!-- BB7&#45;&gt;BB8 -->
<g id="edge11" class="edge">
<title>BB7&#45;&gt;BB8</title>
<path fill="none" stroke="black" d="M126.95,-362.46C113.99,-351.43 98.21,-337.98 84.33,-326.16"/>
<polygon fill="black" stroke="black" points="86.3,-323.24 76.41,-319.42 81.76,-328.57 86.3,-323.24"/>
</g>
<!-- BB8&#45;&gt;BB9 -->
<g id="edge12" class="edge">
<title>BB8&#45;&gt;BB9</title>
<path fill="none" stroke="black" d="M47.98,-323.04C44.51,-376.32 42.15,-500.69 85.2,-592.18 90.89,-604.26 99.86,-615.49 109.11,-624.98"/>
<polygon fill="black" stroke="black" points="106.93,-627.73 116.53,-632.19 111.81,-622.71 106.93,-627.73"/>
</g>
<!-- BB10 -->
<g id="node11" class="node">
<title>BB10</title>
<ellipse fill="none" stroke="black" cx="144.2" cy="-565.31" rx="50.41" ry="26.74"/>
<text text-anchor="middle" x="144.2" y="-569.11" font-family="Times New Roman,serif" font-size="14.00">[1ec..1f7)</text>
<text text-anchor="middle" x="144.2" y="-554.11" font-family="Times New Roman,serif" font-size="14.00">0.00</text>
</g>
<!-- BB9&#45;&gt;BB10 -->
<g id="edge14" class="edge">
<title>BB9&#45;&gt;BB10</title>
<path fill="none" stroke="black" d="M144.2,-627.73C144.2,-619.76 144.2,-610.87 144.2,-602.38"/>
<polygon fill="black" stroke="black" points="147.7,-602.31 144.2,-592.31 140.7,-602.31 147.7,-602.31"/>
</g>
<!-- BB11 -->
<g id="node12" class="node">
<title>BB11</title>
<ellipse fill="none" stroke="black" cx="261.2" cy="-565.31" rx="48.58" ry="26.74"/>
<text text-anchor="middle" x="261.2" y="-569.11" font-family="Times New Roman,serif" font-size="14.00">[1f7..1f8)</text>
<text text-anchor="middle" x="261.2" y="-554.11" font-family="Times New Roman,serif" font-size="14.00">0.00</text>
</g>
<!-- BB9&#45;&gt;BB11 -->
<g id="edge13" class="edge">
<title>BB9&#45;&gt;BB11</title>
<path fill="none" stroke="black" d="M172.83,-632.59C188.38,-620.92 207.79,-606.37 224.45,-593.87"/>
<polygon fill="black" stroke="black" points="226.98,-596.35 232.88,-587.55 222.78,-590.75 226.98,-596.35"/>
</g>
<!-- BB10&#45;&gt;BB1 -->
<g id="edge15" class="edge">
<title>BB10&#45;&gt;BB1</title>
<path fill="none" stroke="black" d="M145.4,-537.99C145.77,-530.02 146.17,-521.13 146.56,-512.64"/>
<polygon fill="black" stroke="black" points="150.06,-512.72 147.02,-502.57 143.07,-512.4 150.06,-512.72"/>
</g>
<!-- BB10&#45;&gt;BB11 -->
<g id="edge16" class="edge">
<title>BB10&#45;&gt;BB11</title>
<path fill="none" stroke="black" d="M194.48,-565.31C196.97,-565.31 199.46,-565.31 201.96,-565.31"/>
<polygon fill="black" stroke="black" points="202.2,-568.81 212.2,-565.31 202.2,-561.81 202.2,-568.81"/>
</g>
</g>
</svg>
