<?xml version="1.0" encoding="UTF-8" standalone="no"?>
<!DOCTYPE svg PUBLIC "-//W3C//DTD SVG 1.1//EN"
 "http://www.w3.org/Graphics/SVG/1.1/DTD/svg11.dtd">
<!-- Generated by graphviz version 2.47.0 (20210316.0004)
 -->
<!-- Title: G Pages: 1 -->
<svg width="222pt" height="241pt"
 viewBox="0.00 0.00 221.95 241.22" xmlns="http://www.w3.org/2000/svg" xmlns:xlink="http://www.w3.org/1999/xlink">
<g id="graph0" class="graph" transform="scale(1 1) rotate(0) translate(4 237.22)">
<title>G</title>
<polygon fill="white" stroke="transparent" points="-4,4 -4,-237.22 217.95,-237.22 217.95,4 -4,4"/>
<!-- BB0 -->
<g id="node1" class="node">
<title>BB0</title>
<ellipse fill="none" stroke="black" cx="77.23" cy="-206.35" rx="33.47" ry="26.74"/>
<text text-anchor="middle" x="77.23" y="-210.15" font-family="Times New Roman,serif" font-size="14.00">[0..8)</text>
<text text-anchor="middle" x="77.23" y="-195.15" font-family="Times New Roman,serif" font-size="14.00">0.47</text>
</g>
<!-- BB1 -->
<g id="node2" class="node">
<title>BB1</title>
<ellipse fill="none" stroke="black" cx="33.23" cy="-116.61" rx="33.47" ry="26.74"/>
<text text-anchor="middle" x="33.23" y="-120.41" font-family="Times New Roman,serif" font-size="14.00">[8..9)</text>
<text text-anchor="middle" x="33.23" y="-105.41" font-family="Times New Roman,serif" font-size="14.00">0.40</text>
</g>
<!-- BB0&#45;&gt;BB1 -->
<g id="edge2" class="edge">
<title>BB0&#45;&gt;BB1</title>
<path fill="none" stroke="black" d="M64.98,-180.91C60.35,-171.69 55.01,-161.03 50.04,-151.12"/>
<polygon fill="black" stroke="black" points="53.04,-149.29 45.42,-141.92 46.78,-152.43 53.04,-149.29"/>
</g>
<!-- BB2 -->
<g id="node3" class="node">
<title>BB2</title>
<ellipse fill="none" stroke="black" cx="122.23" cy="-116.61" rx="37.45" ry="26.74"/>
<text text-anchor="middle" x="122.23" y="-120.41" font-family="Times New Roman,serif" font-size="14.00">[9..20)</text>
<text text-anchor="middle" x="122.23" y="-105.41" font-family="Times New Roman,serif" font-size="14.00">0.06</text>
</g>
<!-- BB0&#45;&gt;BB2 -->
<g id="edge1" class="edge">
<title>BB0&#45;&gt;BB2</title>
<path fill="none" stroke="black" d="M89.53,-181.37C94.31,-172.05 99.87,-161.21 105.04,-151.13"/>
<polygon fill="black" stroke="black" points="108.19,-152.66 109.64,-142.17 101.96,-149.47 108.19,-152.66"/>
</g>
<!-- BB1&#45;&gt;BB2 -->
<g id="edge3" class="edge">
<title>BB1&#45;&gt;BB2</title>
<path fill="none" stroke="black" d="M66.61,-116.61C69.21,-116.61 71.81,-116.61 74.4,-116.61"/>
<polygon fill="black" stroke="black" points="74.43,-120.11 84.43,-116.61 74.43,-113.11 74.43,-120.11"/>
</g>
<!-- BB3 -->
<g id="node4" class="node">
<title>BB3</title>
<ellipse fill="none" stroke="black" cx="71.23" cy="-26.87" rx="41.02" ry="26.74"/>
<text text-anchor="middle" x="71.23" y="-30.67" font-family="Times New Roman,serif" font-size="14.00">[20..2f)</text>
<text text-anchor="middle" x="71.23" y="-15.67" font-family="Times New Roman,serif" font-size="14.00">0.06</text>
</g>
<!-- BB2&#45;&gt;BB3 -->
<g id="edge5" class="edge">
<title>BB2&#45;&gt;BB3</title>
<path fill="none" stroke="black" d="M108.3,-91.63C102.78,-82.14 96.34,-71.06 90.39,-60.83"/>
<polygon fill="black" stroke="black" points="93.38,-59.01 85.33,-52.12 87.33,-62.53 93.38,-59.01"/>
</g>
<!-- BB4 -->
<g id="node5" class="node">
<title>BB4</title>
<ellipse fill="none" stroke="black" cx="172.23" cy="-26.87" rx="41.94" ry="26.74"/>
<text text-anchor="middle" x="172.23" y="-30.67" font-family="Times New Roman,serif" font-size="14.00">[2f..3d)</text>
<text text-anchor="middle" x="172.23" y="-15.67" font-family="Times New Roman,serif" font-size="14.00">0.00</text>
</g>
<!-- BB2&#45;&gt;BB4 -->
<g id="edge4" class="edge">
<title>BB2&#45;&gt;BB4</title>
<path fill="none" stroke="black" d="M136.16,-91.17C141.43,-81.93 147.51,-71.25 153.17,-61.32"/>
<polygon fill="black" stroke="black" points="156.3,-62.91 158.21,-52.48 150.22,-59.44 156.3,-62.91"/>
</g>
<!-- BB3&#45;&gt;BB4 -->
<g id="edge6" class="edge">
<title>BB3&#45;&gt;BB4</title>
<path fill="none" stroke="black" d="M112.27,-26.87C114.86,-26.87 117.46,-26.87 120.05,-26.87"/>
<polygon fill="black" stroke="black" points="120.07,-30.37 130.07,-26.87 120.07,-23.37 120.07,-30.37"/>
</g>
</g>
</svg>
