<?xml version="1.0" encoding="UTF-8" standalone="no"?>
<!DOCTYPE svg PUBLIC "-//W3C//DTD SVG 1.1//EN"
 "http://www.w3.org/Graphics/SVG/1.1/DTD/svg11.dtd">
<!-- Generated by graphviz version 2.47.0 (20210316.0004)
 -->
<!-- Title: G Pages: 1 -->
<svg width="345pt" height="421pt"
 viewBox="0.00 0.00 344.53 420.70" xmlns="http://www.w3.org/2000/svg" xmlns:xlink="http://www.w3.org/1999/xlink">
<g id="graph0" class="graph" transform="scale(1 1) rotate(0) translate(4 416.7)">
<title>G</title>
<polygon fill="white" stroke="transparent" points="-4,4 -4,-416.7 340.53,-416.7 340.53,4 -4,4"/>
<!-- BB0 -->
<g id="node1" class="node">
<title>BB0</title>
<ellipse fill="none" stroke="black" cx="50.2" cy="-385.83" rx="32.55" ry="26.74"/>
<text text-anchor="middle" x="50.2" y="-389.63" font-family="Times New Roman,serif" font-size="14.00">[0..e)</text>
<text text-anchor="middle" x="50.2" y="-374.63" font-family="Times New Roman,serif" font-size="14.00">0.03</text>
</g>
<!-- BB2 -->
<g id="node3" class="node">
<title>BB2</title>
<ellipse fill="none" stroke="black" cx="50.2" cy="-296.09" rx="50.41" ry="26.74"/>
<text text-anchor="middle" x="50.2" y="-299.89" font-family="Times New Roman,serif" font-size="14.00">[106..10f)</text>
<text text-anchor="middle" x="50.2" y="-284.89" font-family="Times New Roman,serif" font-size="14.00">0.31</text>
</g>
<!-- BB0&#45;&gt;BB2 -->
<g id="edge1" class="edge">
<title>BB0&#45;&gt;BB2</title>
<path fill="none" stroke="black" d="M50.2,-358.51C50.2,-350.54 50.2,-341.65 50.2,-333.16"/>
<polygon fill="black" stroke="black" points="53.7,-333.09 50.2,-323.09 46.7,-333.09 53.7,-333.09"/>
</g>
<!-- BB1 -->
<g id="node2" class="node">
<title>BB1</title>
<ellipse fill="none" stroke="black" cx="50.2" cy="-206.35" rx="41.94" ry="26.74"/>
<text text-anchor="middle" x="50.2" y="-210.15" font-family="Times New Roman,serif" font-size="14.00">[e..106)</text>
<text text-anchor="middle" x="50.2" y="-195.15" font-family="Times New Roman,serif" font-size="14.00">0.29</text>
</g>
<!-- BB1&#45;&gt;BB2 -->
<g id="edge2" class="edge">
<title>BB1&#45;&gt;BB2</title>
<path fill="none" stroke="black" d="M56.41,-233.02C56.93,-241.21 57.08,-250.44 56.85,-259.22"/>
<polygon fill="black" stroke="black" points="53.36,-259.1 56.42,-269.24 60.35,-259.4 53.36,-259.1"/>
</g>
<!-- BB2&#45;&gt;BB1 -->
<g id="edge3" class="edge">
<title>BB2&#45;&gt;BB1</title>
<path fill="none" stroke="black" d="M43.99,-269.24C43.47,-261.03 43.33,-251.8 43.56,-243.02"/>
<polygon fill="black" stroke="black" points="47.06,-243.16 44,-233.02 40.06,-242.85 47.06,-243.16"/>
</g>
<!-- BB3 -->
<g id="node4" class="node">
<title>BB3</title>
<ellipse fill="none" stroke="black" cx="161.2" cy="-206.35" rx="50.82" ry="26.74"/>
<text text-anchor="middle" x="161.2" y="-210.15" font-family="Times New Roman,serif" font-size="14.00">[10f..11b)</text>
<text text-anchor="middle" x="161.2" y="-195.15" font-family="Times New Roman,serif" font-size="14.00">0.03</text>
</g>
<!-- BB2&#45;&gt;BB3 -->
<g id="edge4" class="edge">
<title>BB2&#45;&gt;BB3</title>
<path fill="none" stroke="black" d="M77.64,-273.4C92.19,-261.91 110.22,-247.65 125.8,-235.33"/>
<polygon fill="black" stroke="black" points="128.02,-238.04 133.7,-229.09 123.68,-232.55 128.02,-238.04"/>
</g>
<!-- BB5 -->
<g id="node6" class="node">
<title>BB5</title>
<ellipse fill="none" stroke="black" cx="161.2" cy="-116.61" rx="51.74" ry="26.74"/>
<text text-anchor="middle" x="161.2" y="-120.41" font-family="Times New Roman,serif" font-size="14.00">[16a..171)</text>
<text text-anchor="middle" x="161.2" y="-105.41" font-family="Times New Roman,serif" font-size="14.00">0.17</text>
</g>
<!-- BB3&#45;&gt;BB5 -->
<g id="edge5" class="edge">
<title>BB3&#45;&gt;BB5</title>
<path fill="none" stroke="black" d="M161.2,-179.03C161.2,-171.06 161.2,-162.17 161.2,-153.68"/>
<polygon fill="black" stroke="black" points="164.7,-153.61 161.2,-143.61 157.7,-153.61 164.7,-153.61"/>
</g>
<!-- BB4 -->
<g id="node5" class="node">
<title>BB4</title>
<ellipse fill="none" stroke="black" cx="161.2" cy="-26.87" rx="52.15" ry="26.74"/>
<text text-anchor="middle" x="161.2" y="-30.67" font-family="Times New Roman,serif" font-size="14.00">[11b..16a)</text>
<text text-anchor="middle" x="161.2" y="-15.67" font-family="Times New Roman,serif" font-size="14.00">0.14</text>
</g>
<!-- BB4&#45;&gt;BB5 -->
<g id="edge6" class="edge">
<title>BB4&#45;&gt;BB5</title>
<path fill="none" stroke="black" d="M167.43,-53.84C167.93,-61.9 168.07,-70.93 167.86,-79.55"/>
<polygon fill="black" stroke="black" points="164.35,-79.62 167.42,-89.76 171.35,-79.92 164.35,-79.62"/>
</g>
<!-- BB5&#45;&gt;BB4 -->
<g id="edge7" class="edge">
<title>BB5&#45;&gt;BB4</title>
<path fill="none" stroke="black" d="M154.99,-89.76C154.48,-81.71 154.34,-72.68 154.55,-64.06"/>
<polygon fill="black" stroke="black" points="158.05,-63.98 154.98,-53.84 151.06,-63.68 158.05,-63.98"/>
</g>
<!-- BB6 -->
<g id="node7" class="node">
<title>BB6</title>
<ellipse fill="none" stroke="black" cx="284.2" cy="-26.87" rx="52.15" ry="26.74"/>
<text text-anchor="middle" x="284.2" y="-30.67" font-family="Times New Roman,serif" font-size="14.00">[171..172)</text>
<text text-anchor="middle" x="284.2" y="-15.67" font-family="Times New Roman,serif" font-size="14.00">0.03</text>
</g>
<!-- BB5&#45;&gt;BB6 -->
<g id="edge8" class="edge">
<title>BB5&#45;&gt;BB6</title>
<path fill="none" stroke="black" d="M190.98,-94.37C207.48,-82.6 228.17,-67.84 245.86,-55.22"/>
<polygon fill="black" stroke="black" points="248.17,-57.87 254.28,-49.22 244.1,-52.18 248.17,-57.87"/>
</g>
</g>
</svg>
