<?xml version="1.0" encoding="UTF-8" standalone="no"?>
<!DOCTYPE svg PUBLIC "-//W3C//DTD SVG 1.1//EN"
 "http://www.w3.org/Graphics/SVG/1.1/DTD/svg11.dtd">
<!-- Generated by graphviz version 2.47.0 (20210316.0004)
 -->
<!-- Title: G Pages: 1 -->
<svg width="334pt" height="690pt"
 viewBox="0.00 0.00 334.15 689.92" xmlns="http://www.w3.org/2000/svg" xmlns:xlink="http://www.w3.org/1999/xlink">
<g id="graph0" class="graph" transform="scale(1 1) rotate(0) translate(4 685.92)">
<title>G</title>
<polygon fill="white" stroke="transparent" points="-4,4 -4,-685.92 330.15,-685.92 330.15,4 -4,4"/>
<!-- BB0 -->
<g id="node1" class="node">
<title>BB0</title>
<ellipse fill="none" stroke="black" cx="214.43" cy="-655.05" rx="38.37" ry="26.74"/>
<text text-anchor="middle" x="214.43" y="-658.85" font-family="Times New Roman,serif" font-size="14.00">[0..1d)</text>
<text text-anchor="middle" x="214.43" y="-643.85" font-family="Times New Roman,serif" font-size="14.00">0.00</text>
</g>
<!-- BB10 -->
<g id="node11" class="node">
<title>BB10</title>
<ellipse fill="none" stroke="black" cx="214.43" cy="-565.31" rx="42.35" ry="26.74"/>
<text text-anchor="middle" x="214.43" y="-569.11" font-family="Times New Roman,serif" font-size="14.00">[88..97)</text>
<text text-anchor="middle" x="214.43" y="-554.11" font-family="Times New Roman,serif" font-size="14.00">0.00</text>
</g>
<!-- BB0&#45;&gt;BB10 -->
<g id="edge1" class="edge">
<title>BB0&#45;&gt;BB10</title>
<path fill="none" stroke="black" d="M214.43,-627.73C214.43,-619.76 214.43,-610.87 214.43,-602.38"/>
<polygon fill="black" stroke="black" points="217.93,-602.31 214.43,-592.31 210.93,-602.31 217.93,-602.31"/>
</g>
<!-- BB1 -->
<g id="node2" class="node">
<title>BB1</title>
<ellipse fill="none" stroke="black" cx="143.43" cy="-475.57" rx="43.27" ry="26.74"/>
<text text-anchor="middle" x="143.43" y="-479.37" font-family="Times New Roman,serif" font-size="14.00">[1d..30)</text>
<text text-anchor="middle" x="143.43" y="-464.37" font-family="Times New Roman,serif" font-size="14.00">0.00</text>
</g>
<!-- BB2 -->
<g id="node3" class="node">
<title>BB2</title>
<ellipse fill="none" stroke="black" cx="42.43" cy="-385.83" rx="42.35" ry="26.74"/>
<text text-anchor="middle" x="42.43" y="-389.63" font-family="Times New Roman,serif" font-size="14.00">[30..46)</text>
<text text-anchor="middle" x="42.43" y="-374.63" font-family="Times New Roman,serif" font-size="14.00">0.00</text>
</g>
<!-- BB1&#45;&gt;BB2 -->
<g id="edge3" class="edge">
<title>BB1&#45;&gt;BB2</title>
<path fill="none" stroke="black" d="M118.98,-453.33C105.68,-441.78 89.06,-427.34 74.71,-414.87"/>
<polygon fill="black" stroke="black" points="76.85,-412.09 67,-408.18 72.25,-417.38 76.85,-412.09"/>
</g>
<!-- BB4 -->
<g id="node5" class="node">
<title>BB4</title>
<ellipse fill="none" stroke="black" cx="144.43" cy="-385.83" rx="41.94" ry="26.74"/>
<text text-anchor="middle" x="144.43" y="-389.63" font-family="Times New Roman,serif" font-size="14.00">[49..4e)</text>
<text text-anchor="middle" x="144.43" y="-374.63" font-family="Times New Roman,serif" font-size="14.00">0.00</text>
</g>
<!-- BB1&#45;&gt;BB4 -->
<g id="edge2" class="edge">
<title>BB1&#45;&gt;BB4</title>
<path fill="none" stroke="black" d="M143.73,-448.25C143.82,-440.28 143.92,-431.39 144.02,-422.9"/>
<polygon fill="black" stroke="black" points="147.52,-422.87 144.13,-412.83 140.52,-422.79 147.52,-422.87"/>
</g>
<!-- BB3 -->
<g id="node4" class="node">
<title>BB3</title>
<ellipse fill="none" stroke="black" cx="76.43" cy="-296.09" rx="42.35" ry="26.74"/>
<text text-anchor="middle" x="76.43" y="-299.89" font-family="Times New Roman,serif" font-size="14.00">[46..49)</text>
<text text-anchor="middle" x="76.43" y="-284.89" font-family="Times New Roman,serif" font-size="14.00">0.00</text>
</g>
<!-- BB2&#45;&gt;BB3 -->
<g id="edge5" class="edge">
<title>BB2&#45;&gt;BB3</title>
<path fill="none" stroke="black" d="M52.26,-359.45C55.61,-350.81 59.41,-341 62.99,-331.76"/>
<polygon fill="black" stroke="black" points="66.26,-333 66.61,-322.41 59.74,-330.47 66.26,-333"/>
</g>
<!-- BB2&#45;&gt;BB4 -->
<g id="edge4" class="edge">
<title>BB2&#45;&gt;BB4</title>
<path fill="none" stroke="black" d="M85.06,-385.83C87.54,-385.83 90.02,-385.83 92.49,-385.83"/>
<polygon fill="black" stroke="black" points="92.68,-389.33 102.68,-385.83 92.68,-382.33 92.68,-389.33"/>
</g>
<!-- BB3&#45;&gt;BB4 -->
<g id="edge6" class="edge">
<title>BB3&#45;&gt;BB4</title>
<path fill="none" stroke="black" d="M94.7,-320.67C102.48,-330.71 111.67,-342.57 120.02,-353.34"/>
<polygon fill="black" stroke="black" points="117.31,-355.56 126.2,-361.32 122.84,-351.27 117.31,-355.56"/>
</g>
<!-- BB9 -->
<g id="node10" class="node">
<title>BB9</title>
<ellipse fill="none" stroke="black" cx="196.43" cy="-296.09" rx="42.35" ry="26.74"/>
<text text-anchor="middle" x="196.43" y="-299.89" font-family="Times New Roman,serif" font-size="14.00">[83..88)</text>
<text text-anchor="middle" x="196.43" y="-284.89" font-family="Times New Roman,serif" font-size="14.00">0.25</text>
</g>
<!-- BB4&#45;&gt;BB9 -->
<g id="edge7" class="edge">
<title>BB4&#45;&gt;BB9</title>
<path fill="none" stroke="black" d="M158.91,-360.39C164.43,-351.07 170.82,-340.29 176.75,-330.29"/>
<polygon fill="black" stroke="black" points="179.93,-331.79 182.02,-321.4 173.91,-328.22 179.93,-331.79"/>
</g>
<!-- BB5 -->
<g id="node6" class="node">
<title>BB5</title>
<ellipse fill="none" stroke="black" cx="161.43" cy="-206.35" rx="42.35" ry="26.74"/>
<text text-anchor="middle" x="161.43" y="-210.15" font-family="Times New Roman,serif" font-size="14.00">[4e..5b)</text>
<text text-anchor="middle" x="161.43" y="-195.15" font-family="Times New Roman,serif" font-size="14.00">0.26</text>
</g>
<!-- BB6 -->
<g id="node7" class="node">
<title>BB6</title>
<ellipse fill="none" stroke="black" cx="127.43" cy="-116.61" rx="42.35" ry="26.74"/>
<text text-anchor="middle" x="127.43" y="-120.41" font-family="Times New Roman,serif" font-size="14.00">[5b..7a)</text>
<text text-anchor="middle" x="127.43" y="-105.41" font-family="Times New Roman,serif" font-size="14.00">0.24</text>
</g>
<!-- BB5&#45;&gt;BB6 -->
<g id="edge9" class="edge">
<title>BB5&#45;&gt;BB6</title>
<path fill="none" stroke="black" d="M151.59,-179.97C148.24,-171.33 144.44,-161.52 140.86,-152.28"/>
<polygon fill="black" stroke="black" points="144.12,-150.99 137.24,-142.93 137.59,-153.52 144.12,-150.99"/>
</g>
<!-- BB8 -->
<g id="node9" class="node">
<title>BB8</title>
<ellipse fill="none" stroke="black" cx="231.43" cy="-116.61" rx="43.27" ry="26.74"/>
<text text-anchor="middle" x="231.43" y="-120.41" font-family="Times New Roman,serif" font-size="14.00">[7d..83)</text>
<text text-anchor="middle" x="231.43" y="-105.41" font-family="Times New Roman,serif" font-size="14.00">0.25</text>
</g>
<!-- BB5&#45;&gt;BB8 -->
<g id="edge8" class="edge">
<title>BB5&#45;&gt;BB8</title>
<path fill="none" stroke="black" d="M180.19,-181.84C188.25,-171.72 197.8,-159.76 206.45,-148.91"/>
<polygon fill="black" stroke="black" points="209.36,-150.88 212.86,-140.88 203.89,-146.52 209.36,-150.88"/>
</g>
<!-- BB7 -->
<g id="node8" class="node">
<title>BB7</title>
<ellipse fill="none" stroke="black" cx="179.43" cy="-26.87" rx="42.35" ry="26.74"/>
<text text-anchor="middle" x="179.43" y="-30.67" font-family="Times New Roman,serif" font-size="14.00">[7a..7d)</text>
<text text-anchor="middle" x="179.43" y="-15.67" font-family="Times New Roman,serif" font-size="14.00">0.00</text>
</g>
<!-- BB6&#45;&gt;BB7 -->
<g id="edge11" class="edge">
<title>BB6&#45;&gt;BB7</title>
<path fill="none" stroke="black" d="M141.91,-91.17C147.43,-81.85 153.82,-71.07 159.75,-61.07"/>
<polygon fill="black" stroke="black" points="162.93,-62.57 165.02,-52.18 156.91,-59 162.93,-62.57"/>
</g>
<!-- BB6&#45;&gt;BB8 -->
<g id="edge10" class="edge">
<title>BB6&#45;&gt;BB8</title>
<path fill="none" stroke="black" d="M170.08,-116.61C172.58,-116.61 175.07,-116.61 177.56,-116.61"/>
<polygon fill="black" stroke="black" points="177.81,-120.11 187.81,-116.61 177.81,-113.11 177.81,-120.11"/>
</g>
<!-- BB7&#45;&gt;BB8 -->
<g id="edge12" class="edge">
<title>BB7&#45;&gt;BB8</title>
<path fill="none" stroke="black" d="M193.83,-52.18C199.35,-61.48 205.74,-72.26 211.66,-82.27"/>
<polygon fill="black" stroke="black" points="208.83,-84.35 216.94,-91.17 214.85,-80.78 208.83,-84.35"/>
</g>
<!-- BB8&#45;&gt;BB9 -->
<g id="edge13" class="edge">
<title>BB8&#45;&gt;BB9</title>
<path fill="none" stroke="black" d="M227.86,-143.45C224.46,-166.96 218.89,-202.57 212.43,-233.22 210.62,-241.8 208.4,-250.99 206.2,-259.58"/>
<polygon fill="black" stroke="black" points="202.79,-258.76 203.64,-269.32 209.56,-260.54 202.79,-258.76"/>
</g>
<!-- BB9&#45;&gt;BB5 -->
<g id="edge14" class="edge">
<title>BB9&#45;&gt;BB5</title>
<path fill="none" stroke="black" d="M186.3,-269.71C182.86,-261.07 178.94,-251.26 175.26,-242.02"/>
<polygon fill="black" stroke="black" points="178.48,-240.66 171.53,-232.67 171.98,-243.26 178.48,-240.66"/>
</g>
<!-- BB9&#45;&gt;BB10 -->
<g id="edge15" class="edge">
<title>BB9&#45;&gt;BB10</title>
<path fill="none" stroke="black" d="M198.19,-323.31C201.42,-371.28 208.29,-473.28 211.98,-527.93"/>
<polygon fill="black" stroke="black" points="208.5,-528.46 212.67,-538.2 215.49,-527.99 208.5,-528.46"/>
</g>
<!-- BB10&#45;&gt;BB1 -->
<g id="edge16" class="edge">
<title>BB10&#45;&gt;BB1</title>
<path fill="none" stroke="black" d="M195.4,-540.8C187.22,-530.69 177.53,-518.72 168.76,-507.87"/>
<polygon fill="black" stroke="black" points="171.27,-505.42 162.26,-499.84 165.83,-509.82 171.27,-505.42"/>
</g>
<!-- BB11 -->
<g id="node12" class="node">
<title>BB11</title>
<ellipse fill="none" stroke="black" cx="284.43" cy="-475.57" rx="41.94" ry="26.74"/>
<text text-anchor="middle" x="284.43" y="-479.37" font-family="Times New Roman,serif" font-size="14.00">[97..ae)</text>
<text text-anchor="middle" x="284.43" y="-464.37" font-family="Times New Roman,serif" font-size="14.00">0.00</text>
</g>
<!-- BB10&#45;&gt;BB11 -->
<g id="edge17" class="edge">
<title>BB10&#45;&gt;BB11</title>
<path fill="none" stroke="black" d="M233.19,-540.8C241.25,-530.69 250.8,-518.72 259.45,-507.87"/>
<polygon fill="black" stroke="black" points="262.36,-509.84 265.86,-499.84 256.89,-505.48 262.36,-509.84"/>
</g>
</g>
</svg>
