<?xml version="1.0" encoding="UTF-8" standalone="no"?>
<!DOCTYPE svg PUBLIC "-//W3C//DTD SVG 1.1//EN"
 "http://www.w3.org/Graphics/SVG/1.1/DTD/svg11.dtd">
<!-- Generated by graphviz version 2.47.0 (20210316.0004)
 -->
<!-- Title: G Pages: 1 -->
<svg width="252pt" height="600pt"
 viewBox="0.00 0.00 251.85 600.18" xmlns="http://www.w3.org/2000/svg" xmlns:xlink="http://www.w3.org/1999/xlink">
<g id="graph0" class="graph" transform="scale(1 1) rotate(0) translate(4 596.18)">
<title>G</title>
<polygon fill="white" stroke="transparent" points="-4,4 -4,-596.18 247.85,-596.18 247.85,4 -4,4"/>
<!-- BB0 -->
<g id="node1" class="node">
<title>BB0</title>
<ellipse fill="none" stroke="black" cx="107.43" cy="-565.31" rx="33.47" ry="26.74"/>
<text text-anchor="middle" x="107.43" y="-569.11" font-family="Times New Roman,serif" font-size="14.00">[0..4)</text>
<text text-anchor="middle" x="107.43" y="-554.11" font-family="Times New Roman,serif" font-size="14.00">0.00</text>
</g>
<!-- BB8 -->
<g id="node9" class="node">
<title>BB8</title>
<ellipse fill="none" stroke="black" cx="107.43" cy="-475.57" rx="41.94" ry="26.74"/>
<text text-anchor="middle" x="107.43" y="-479.37" font-family="Times New Roman,serif" font-size="14.00">[65..6a)</text>
<text text-anchor="middle" x="107.43" y="-464.37" font-family="Times New Roman,serif" font-size="14.00">0.00</text>
</g>
<!-- BB0&#45;&gt;BB8 -->
<g id="edge1" class="edge">
<title>BB0&#45;&gt;BB8</title>
<path fill="none" stroke="black" d="M107.43,-537.99C107.43,-530.02 107.43,-521.13 107.43,-512.64"/>
<polygon fill="black" stroke="black" points="110.93,-512.57 107.43,-502.57 103.93,-512.57 110.93,-512.57"/>
</g>
<!-- BB1 -->
<g id="node2" class="node">
<title>BB1</title>
<ellipse fill="none" stroke="black" cx="107.43" cy="-385.83" rx="33.47" ry="26.74"/>
<text text-anchor="middle" x="107.43" y="-389.63" font-family="Times New Roman,serif" font-size="14.00">[4..8)</text>
<text text-anchor="middle" x="107.43" y="-374.63" font-family="Times New Roman,serif" font-size="14.00">0.00</text>
</g>
<!-- BB6 -->
<g id="node7" class="node">
<title>BB6</title>
<ellipse fill="none" stroke="black" cx="112.43" cy="-296.09" rx="42.35" ry="26.74"/>
<text text-anchor="middle" x="112.43" y="-299.89" font-family="Times New Roman,serif" font-size="14.00">[5c..61)</text>
<text text-anchor="middle" x="112.43" y="-284.89" font-family="Times New Roman,serif" font-size="14.00">0.01</text>
</g>
<!-- BB1&#45;&gt;BB6 -->
<g id="edge2" class="edge">
<title>BB1&#45;&gt;BB6</title>
<path fill="none" stroke="black" d="M108.9,-358.98C109.36,-350.93 109.87,-341.9 110.36,-333.28"/>
<polygon fill="black" stroke="black" points="113.87,-333.24 110.95,-323.06 106.88,-332.84 113.87,-333.24"/>
</g>
<!-- BB2 -->
<g id="node3" class="node">
<title>BB2</title>
<ellipse fill="none" stroke="black" cx="184.43" cy="-206.35" rx="38.37" ry="26.74"/>
<text text-anchor="middle" x="184.43" y="-210.15" font-family="Times New Roman,serif" font-size="14.00">[8..1d)</text>
<text text-anchor="middle" x="184.43" y="-195.15" font-family="Times New Roman,serif" font-size="14.00">0.01</text>
</g>
<!-- BB4 -->
<g id="node5" class="node">
<title>BB4</title>
<ellipse fill="none" stroke="black" cx="190.43" cy="-116.61" rx="42.35" ry="26.74"/>
<text text-anchor="middle" x="190.43" y="-120.41" font-family="Times New Roman,serif" font-size="14.00">[53..58)</text>
<text text-anchor="middle" x="190.43" y="-105.41" font-family="Times New Roman,serif" font-size="14.00">0.49</text>
</g>
<!-- BB2&#45;&gt;BB4 -->
<g id="edge3" class="edge">
<title>BB2&#45;&gt;BB4</title>
<path fill="none" stroke="black" d="M186.19,-179.5C186.74,-171.45 187.36,-162.42 187.95,-153.8"/>
<polygon fill="black" stroke="black" points="191.46,-153.79 188.65,-143.58 184.48,-153.32 191.46,-153.79"/>
</g>
<!-- BB3 -->
<g id="node4" class="node">
<title>BB3</title>
<ellipse fill="none" stroke="black" cx="199.43" cy="-26.87" rx="43.27" ry="26.74"/>
<text text-anchor="middle" x="199.43" y="-30.67" font-family="Times New Roman,serif" font-size="14.00">[1d..53)</text>
<text text-anchor="middle" x="199.43" y="-15.67" font-family="Times New Roman,serif" font-size="14.00">0.48</text>
</g>
<!-- BB3&#45;&gt;BB4 -->
<g id="edge4" class="edge">
<title>BB3&#45;&gt;BB4</title>
<path fill="none" stroke="black" d="M202.99,-53.8C202.65,-62.07 201.84,-71.36 200.7,-80.18"/>
<polygon fill="black" stroke="black" points="197.21,-79.83 199.22,-90.23 204.14,-80.85 197.21,-79.83"/>
</g>
<!-- BB4&#45;&gt;BB3 -->
<g id="edge5" class="edge">
<title>BB4&#45;&gt;BB3</title>
<path fill="none" stroke="black" d="M186.86,-89.76C187.19,-81.48 188.01,-72.15 189.15,-63.31"/>
<polygon fill="black" stroke="black" points="192.64,-63.64 190.64,-53.23 185.72,-62.62 192.64,-63.64"/>
</g>
<!-- BB5 -->
<g id="node6" class="node">
<title>BB5</title>
<ellipse fill="none" stroke="black" cx="95.43" cy="-26.87" rx="42.35" ry="26.74"/>
<text text-anchor="middle" x="95.43" y="-30.67" font-family="Times New Roman,serif" font-size="14.00">[58..5c)</text>
<text text-anchor="middle" x="95.43" y="-15.67" font-family="Times New Roman,serif" font-size="14.00">0.01</text>
</g>
<!-- BB4&#45;&gt;BB5 -->
<g id="edge6" class="edge">
<title>BB4&#45;&gt;BB5</title>
<path fill="none" stroke="black" d="M166.94,-93.92C154.73,-82.64 139.63,-68.7 126.46,-56.53"/>
<polygon fill="black" stroke="black" points="128.69,-53.83 118.97,-49.61 123.94,-58.97 128.69,-53.83"/>
</g>
<!-- BB5&#45;&gt;BB6 -->
<g id="edge7" class="edge">
<title>BB5&#45;&gt;BB6</title>
<path fill="none" stroke="black" d="M97.09,-54.08C100.15,-102.06 106.63,-204.06 110.11,-258.71"/>
<polygon fill="black" stroke="black" points="106.64,-259.22 110.77,-268.98 113.62,-258.78 106.64,-259.22"/>
</g>
<!-- BB6&#45;&gt;BB2 -->
<g id="edge8" class="edge">
<title>BB6&#45;&gt;BB2</title>
<path fill="none" stroke="black" d="M131.34,-272.04C139.93,-261.58 150.2,-249.06 159.41,-237.84"/>
<polygon fill="black" stroke="black" points="162.25,-239.9 165.88,-229.95 156.84,-235.46 162.25,-239.9"/>
</g>
<!-- BB7 -->
<g id="node8" class="node">
<title>BB7</title>
<ellipse fill="none" stroke="black" cx="42.43" cy="-206.35" rx="42.35" ry="26.74"/>
<text text-anchor="middle" x="42.43" y="-210.15" font-family="Times New Roman,serif" font-size="14.00">[61..65)</text>
<text text-anchor="middle" x="42.43" y="-195.15" font-family="Times New Roman,serif" font-size="14.00">0.00</text>
</g>
<!-- BB6&#45;&gt;BB7 -->
<g id="edge9" class="edge">
<title>BB6&#45;&gt;BB7</title>
<path fill="none" stroke="black" d="M93.67,-271.58C85.6,-261.47 76.05,-249.5 67.4,-238.65"/>
<polygon fill="black" stroke="black" points="69.97,-236.26 60.99,-230.62 64.49,-240.62 69.97,-236.26"/>
</g>
<!-- BB7&#45;&gt;BB8 -->
<g id="edge10" class="edge">
<title>BB7&#45;&gt;BB8</title>
<path fill="none" stroke="black" d="M41.41,-233.23C40.71,-273.08 42.73,-351.29 65.43,-412.7 69.39,-423.42 75.59,-434.09 82.03,-443.47"/>
<polygon fill="black" stroke="black" points="79.26,-445.62 87.95,-451.68 84.94,-441.52 79.26,-445.62"/>
</g>
<!-- BB8&#45;&gt;BB1 -->
<g id="edge11" class="edge">
<title>BB8&#45;&gt;BB1</title>
<path fill="none" stroke="black" d="M107.43,-448.25C107.43,-440.28 107.43,-431.39 107.43,-422.9"/>
<polygon fill="black" stroke="black" points="110.93,-422.83 107.43,-412.83 103.93,-422.83 110.93,-422.83"/>
</g>
<!-- BB9 -->
<g id="node10" class="node">
<title>BB9</title>
<ellipse fill="none" stroke="black" cx="201.43" cy="-385.83" rx="42.35" ry="26.74"/>
<text text-anchor="middle" x="201.43" y="-389.63" font-family="Times New Roman,serif" font-size="14.00">[6a..6b)</text>
<text text-anchor="middle" x="201.43" y="-374.63" font-family="Times New Roman,serif" font-size="14.00">0.00</text>
</g>
<!-- BB8&#45;&gt;BB9 -->
<g id="edge12" class="edge">
<title>BB8&#45;&gt;BB9</title>
<path fill="none" stroke="black" d="M130.66,-452.88C142.75,-441.6 157.69,-427.66 170.72,-415.5"/>
<polygon fill="black" stroke="black" points="173.21,-417.96 178.13,-408.57 168.43,-412.84 173.21,-417.96"/>
</g>
</g>
</svg>
