<?xml version="1.0" encoding="UTF-8" standalone="no"?>
<!DOCTYPE svg PUBLIC "-//W3C//DTD SVG 1.1//EN"
 "http://www.w3.org/Graphics/SVG/1.1/DTD/svg11.dtd">
<!-- Generated by graphviz version 2.47.0 (20210316.0004)
 -->
<!-- Title: G Pages: 1 -->
<svg width="233pt" height="510pt"
 viewBox="0.00 0.00 233.49 510.44" xmlns="http://www.w3.org/2000/svg" xmlns:xlink="http://www.w3.org/1999/xlink">
<g id="graph0" class="graph" transform="scale(1 1) rotate(0) translate(4 506.44)">
<title>G</title>
<polygon fill="white" stroke="transparent" points="-4,4 -4,-506.44 229.49,-506.44 229.49,4 -4,4"/>
<!-- BB0 -->
<g id="node1" class="node">
<title>BB0</title>
<ellipse fill="none" stroke="black" cx="145.43" cy="-475.57" rx="37.45" ry="26.74"/>
<text text-anchor="middle" x="145.43" y="-479.37" font-family="Times New Roman,serif" font-size="14.00">[0..17)</text>
<text text-anchor="middle" x="145.43" y="-464.37" font-family="Times New Roman,serif" font-size="14.00">0.03</text>
</g>
<!-- BB5 -->
<g id="node6" class="node">
<title>BB5</title>
<ellipse fill="none" stroke="black" cx="145.43" cy="-385.83" rx="41.02" ry="26.74"/>
<text text-anchor="middle" x="145.43" y="-389.63" font-family="Times New Roman,serif" font-size="14.00">[59..5f)</text>
<text text-anchor="middle" x="145.43" y="-374.63" font-family="Times New Roman,serif" font-size="14.00">0.20</text>
</g>
<!-- BB0&#45;&gt;BB5 -->
<g id="edge1" class="edge">
<title>BB0&#45;&gt;BB5</title>
<path fill="none" stroke="black" d="M145.43,-448.25C145.43,-440.28 145.43,-431.39 145.43,-422.9"/>
<polygon fill="black" stroke="black" points="148.93,-422.83 145.43,-412.83 141.93,-422.83 148.93,-422.83"/>
</g>
<!-- BB1 -->
<g id="node2" class="node">
<title>BB1</title>
<ellipse fill="none" stroke="black" cx="145.43" cy="-296.09" rx="42.35" ry="26.74"/>
<text text-anchor="middle" x="145.43" y="-299.89" font-family="Times New Roman,serif" font-size="14.00">[17..28)</text>
<text text-anchor="middle" x="145.43" y="-284.89" font-family="Times New Roman,serif" font-size="14.00">0.20</text>
</g>
<!-- BB2 -->
<g id="node3" class="node">
<title>BB2</title>
<ellipse fill="none" stroke="black" cx="42.43" cy="-206.35" rx="42.35" ry="26.74"/>
<text text-anchor="middle" x="42.43" y="-210.15" font-family="Times New Roman,serif" font-size="14.00">[28..38)</text>
<text text-anchor="middle" x="42.43" y="-195.15" font-family="Times New Roman,serif" font-size="14.00">0.17</text>
</g>
<!-- BB1&#45;&gt;BB2 -->
<g id="edge3" class="edge">
<title>BB1&#45;&gt;BB2</title>
<path fill="none" stroke="black" d="M120.76,-274.07C107.1,-262.44 89.94,-247.83 75.18,-235.25"/>
<polygon fill="black" stroke="black" points="77.14,-232.32 67.25,-228.5 72.6,-237.65 77.14,-232.32"/>
</g>
<!-- BB7 -->
<g id="node8" class="node">
<title>BB7</title>
<ellipse fill="none" stroke="black" cx="145.43" cy="-206.35" rx="42.35" ry="26.74"/>
<text text-anchor="middle" x="145.43" y="-210.15" font-family="Times New Roman,serif" font-size="14.00">[64..68)</text>
<text text-anchor="middle" x="145.43" y="-195.15" font-family="Times New Roman,serif" font-size="14.00">0.03</text>
</g>
<!-- BB1&#45;&gt;BB7 -->
<g id="edge2" class="edge">
<title>BB1&#45;&gt;BB7</title>
<path fill="none" stroke="black" d="M145.43,-268.77C145.43,-260.8 145.43,-251.91 145.43,-243.42"/>
<polygon fill="black" stroke="black" points="148.93,-243.35 145.43,-233.35 141.93,-243.35 148.93,-243.35"/>
</g>
<!-- BB3 -->
<g id="node4" class="node">
<title>BB3</title>
<ellipse fill="none" stroke="black" cx="42.43" cy="-116.61" rx="42.35" ry="26.74"/>
<text text-anchor="middle" x="42.43" y="-120.41" font-family="Times New Roman,serif" font-size="14.00">[38..51)</text>
<text text-anchor="middle" x="42.43" y="-105.41" font-family="Times New Roman,serif" font-size="14.00">0.17</text>
</g>
<!-- BB2&#45;&gt;BB3 -->
<g id="edge5" class="edge">
<title>BB2&#45;&gt;BB3</title>
<path fill="none" stroke="black" d="M42.43,-179.03C42.43,-171.06 42.43,-162.17 42.43,-153.68"/>
<polygon fill="black" stroke="black" points="45.93,-153.61 42.43,-143.61 38.93,-153.61 45.93,-153.61"/>
</g>
<!-- BB6 -->
<g id="node7" class="node">
<title>BB6</title>
<ellipse fill="none" stroke="black" cx="44.43" cy="-296.09" rx="41.02" ry="26.74"/>
<text text-anchor="middle" x="44.43" y="-299.89" font-family="Times New Roman,serif" font-size="14.00">[5f..64)</text>
<text text-anchor="middle" x="44.43" y="-284.89" font-family="Times New Roman,serif" font-size="14.00">0.00</text>
</g>
<!-- BB2&#45;&gt;BB6 -->
<g id="edge4" class="edge">
<title>BB2&#45;&gt;BB6</title>
<path fill="none" stroke="black" d="M43.02,-233.35C43.2,-241.3 43.4,-250.18 43.6,-258.68"/>
<polygon fill="black" stroke="black" points="40.1,-258.85 43.83,-268.77 47.1,-258.69 40.1,-258.85"/>
</g>
<!-- BB4 -->
<g id="node5" class="node">
<title>BB4</title>
<ellipse fill="none" stroke="black" cx="128.43" cy="-26.87" rx="42.35" ry="26.74"/>
<text text-anchor="middle" x="128.43" y="-30.67" font-family="Times New Roman,serif" font-size="14.00">[51..59)</text>
<text text-anchor="middle" x="128.43" y="-15.67" font-family="Times New Roman,serif" font-size="14.00">0.17</text>
</g>
<!-- BB3&#45;&gt;BB4 -->
<g id="edge7" class="edge">
<title>BB3&#45;&gt;BB4</title>
<path fill="none" stroke="black" d="M64.13,-93.47C74.82,-82.56 87.87,-69.25 99.41,-57.48"/>
<polygon fill="black" stroke="black" points="102.23,-59.6 106.73,-50 97.23,-54.7 102.23,-59.6"/>
</g>
<!-- BB8 -->
<g id="node9" class="node">
<title>BB8</title>
<ellipse fill="none" stroke="black" cx="145.43" cy="-116.61" rx="42.35" ry="26.74"/>
<text text-anchor="middle" x="145.43" y="-120.41" font-family="Times New Roman,serif" font-size="14.00">[68..69)</text>
<text text-anchor="middle" x="145.43" y="-105.41" font-family="Times New Roman,serif" font-size="14.00">0.03</text>
</g>
<!-- BB3&#45;&gt;BB8 -->
<g id="edge6" class="edge">
<title>BB3&#45;&gt;BB8</title>
<path fill="none" stroke="black" d="M85.07,-116.61C87.69,-116.61 90.3,-116.61 92.91,-116.61"/>
<polygon fill="black" stroke="black" points="92.99,-120.11 102.99,-116.61 92.99,-113.11 92.99,-120.11"/>
</g>
<!-- BB4&#45;&gt;BB5 -->
<g id="edge8" class="edge">
<title>BB4&#45;&gt;BB5</title>
<path fill="none" stroke="black" d="M158.34,-46.34C172.74,-57.04 188.55,-71.93 196.43,-89.74 238.34,-184.54 231.45,-225.4 196.43,-322.96 192.09,-335.04 184.26,-346.44 176.02,-356.09"/>
<polygon fill="black" stroke="black" points="173.19,-354 169.07,-363.75 178.38,-358.7 173.19,-354"/>
</g>
<!-- BB5&#45;&gt;BB1 -->
<g id="edge9" class="edge">
<title>BB5&#45;&gt;BB1</title>
<path fill="none" stroke="black" d="M145.43,-358.51C145.43,-350.54 145.43,-341.65 145.43,-333.16"/>
<polygon fill="black" stroke="black" points="148.93,-333.09 145.43,-323.09 141.93,-333.09 148.93,-333.09"/>
</g>
<!-- BB5&#45;&gt;BB6 -->
<g id="edge10" class="edge">
<title>BB5&#45;&gt;BB6</title>
<path fill="none" stroke="black" d="M121.23,-363.81C107.74,-352.09 90.77,-337.35 76.22,-324.71"/>
<polygon fill="black" stroke="black" points="78.27,-321.85 68.42,-317.93 73.67,-327.14 78.27,-321.85"/>
</g>
<!-- BB6&#45;&gt;BB7 -->
<g id="edge11" class="edge">
<title>BB6&#45;&gt;BB7</title>
<path fill="none" stroke="black" d="M68.62,-274.07C82.01,-262.44 98.83,-247.83 113.31,-235.25"/>
<polygon fill="black" stroke="black" points="115.83,-237.7 121.08,-228.5 111.24,-232.41 115.83,-237.7"/>
</g>
<!-- BB7&#45;&gt;BB8 -->
<g id="edge12" class="edge">
<title>BB7&#45;&gt;BB8</title>
<path fill="none" stroke="black" d="M145.43,-179.03C145.43,-171.06 145.43,-162.17 145.43,-153.68"/>
<polygon fill="black" stroke="black" points="148.93,-153.61 145.43,-143.61 141.93,-153.61 148.93,-153.61"/>
</g>
</g>
</svg>
