<?xml version="1.0" encoding="UTF-8" standalone="no"?>
<!DOCTYPE svg PUBLIC "-//W3C//DTD SVG 1.1//EN"
 "http://www.w3.org/Graphics/SVG/1.1/DTD/svg11.dtd">
<!-- Generated by graphviz version 2.47.0 (20210316.0004)
 -->
<!-- Title: G Pages: 1 -->
<svg width="217pt" height="241pt"
 viewBox="0.00 0.00 216.66 241.22" xmlns="http://www.w3.org/2000/svg" xmlns:xlink="http://www.w3.org/1999/xlink">
<g id="graph0" class="graph" transform="scale(1 1) rotate(0) translate(4 237.22)">
<title>G</title>
<polygon fill="white" stroke="transparent" points="-4,4 -4,-237.22 212.66,-237.22 212.66,4 -4,4"/>
<!-- BB0 -->
<g id="node1" class="node">
<title>BB0</title>
<ellipse fill="none" stroke="black" cx="75.23" cy="-206.35" rx="33.47" ry="26.74"/>
<text text-anchor="middle" x="75.23" y="-210.15" font-family="Times New Roman,serif" font-size="14.00">[0..3)</text>
<text text-anchor="middle" x="75.23" y="-195.15" font-family="Times New Roman,serif" font-size="14.00">0.40</text>
</g>
<!-- BB1 -->
<g id="node2" class="node">
<title>BB1</title>
<ellipse fill="none" stroke="black" cx="33.23" cy="-116.61" rx="33.47" ry="26.74"/>
<text text-anchor="middle" x="33.23" y="-120.41" font-family="Times New Roman,serif" font-size="14.00">[3..7)</text>
<text text-anchor="middle" x="33.23" y="-105.41" font-family="Times New Roman,serif" font-size="14.00">0.19</text>
</g>
<!-- BB0&#45;&gt;BB1 -->
<g id="edge2" class="edge">
<title>BB0&#45;&gt;BB1</title>
<path fill="none" stroke="black" d="M63.53,-180.91C59.12,-171.69 54.02,-161.03 49.27,-151.12"/>
<polygon fill="black" stroke="black" points="52.35,-149.43 44.87,-141.92 46.03,-152.45 52.35,-149.43"/>
</g>
<!-- BB2 -->
<g id="node3" class="node">
<title>BB2</title>
<ellipse fill="none" stroke="black" cx="117.23" cy="-116.61" rx="32.55" ry="26.74"/>
<text text-anchor="middle" x="117.23" y="-120.41" font-family="Times New Roman,serif" font-size="14.00">[7..a)</text>
<text text-anchor="middle" x="117.23" y="-105.41" font-family="Times New Roman,serif" font-size="14.00">0.20</text>
</g>
<!-- BB0&#45;&gt;BB2 -->
<g id="edge1" class="edge">
<title>BB0&#45;&gt;BB2</title>
<path fill="none" stroke="black" d="M86.93,-180.91C91.35,-171.69 96.45,-161.03 101.19,-151.12"/>
<polygon fill="black" stroke="black" points="104.44,-152.45 105.6,-141.92 98.12,-149.43 104.44,-152.45"/>
</g>
<!-- BB1&#45;&gt;BB2 -->
<g id="edge3" class="edge">
<title>BB1&#45;&gt;BB2</title>
<path fill="none" stroke="black" d="M66.7,-116.61C69.2,-116.61 71.7,-116.61 74.2,-116.61"/>
<polygon fill="black" stroke="black" points="74.47,-120.11 84.47,-116.61 74.47,-113.11 74.47,-120.11"/>
</g>
<!-- BB3 -->
<g id="node4" class="node">
<title>BB3</title>
<ellipse fill="none" stroke="black" cx="68.23" cy="-26.87" rx="37.45" ry="26.74"/>
<text text-anchor="middle" x="68.23" y="-30.67" font-family="Times New Roman,serif" font-size="14.00">[a..14)</text>
<text text-anchor="middle" x="68.23" y="-15.67" font-family="Times New Roman,serif" font-size="14.00">0.01</text>
</g>
<!-- BB2&#45;&gt;BB3 -->
<g id="edge5" class="edge">
<title>BB2&#45;&gt;BB3</title>
<path fill="none" stroke="black" d="M103.84,-91.63C98.59,-82.23 92.48,-71.29 86.82,-61.14"/>
<polygon fill="black" stroke="black" points="89.71,-59.15 81.78,-52.12 83.6,-62.56 89.71,-59.15"/>
</g>
<!-- BB4 -->
<g id="node5" class="node">
<title>BB4</title>
<ellipse fill="none" stroke="black" cx="166.23" cy="-26.87" rx="42.35" ry="26.74"/>
<text text-anchor="middle" x="166.23" y="-30.67" font-family="Times New Roman,serif" font-size="14.00">[14..26)</text>
<text text-anchor="middle" x="166.23" y="-15.67" font-family="Times New Roman,serif" font-size="14.00">0.19</text>
</g>
<!-- BB2&#45;&gt;BB4 -->
<g id="edge4" class="edge">
<title>BB2&#45;&gt;BB4</title>
<path fill="none" stroke="black" d="M130.62,-91.63C135.83,-82.31 141.89,-71.47 147.51,-61.39"/>
<polygon fill="black" stroke="black" points="150.7,-62.86 152.52,-52.43 144.59,-59.45 150.7,-62.86"/>
</g>
<!-- BB3&#45;&gt;BB4 -->
<g id="edge6" class="edge">
<title>BB3&#45;&gt;BB4</title>
<path fill="none" stroke="black" d="M105.75,-26.87C108.37,-26.87 110.99,-26.87 113.61,-26.87"/>
<polygon fill="black" stroke="black" points="113.71,-30.37 123.71,-26.87 113.71,-23.37 113.71,-30.37"/>
</g>
</g>
</svg>
