<?xml version="1.0" encoding="UTF-8" standalone="no"?>
<!DOCTYPE svg PUBLIC "-//W3C//DTD SVG 1.1//EN"
 "http://www.w3.org/Graphics/SVG/1.1/DTD/svg11.dtd">
<!-- Generated by graphviz version 2.47.0 (20210316.0004)
 -->
<!-- Title: G Pages: 1 -->
<svg width="300pt" height="600pt"
 viewBox="0.00 0.00 299.85 600.18" xmlns="http://www.w3.org/2000/svg" xmlns:xlink="http://www.w3.org/1999/xlink">
<g id="graph0" class="graph" transform="scale(1 1) rotate(0) translate(4 596.18)">
<title>G</title>
<polygon fill="white" stroke="transparent" points="-4,4 -4,-596.18 295.85,-596.18 295.85,4 -4,4"/>
<!-- BB0 -->
<g id="node1" class="node">
<title>BB0</title>
<ellipse fill="none" stroke="black" cx="42.43" cy="-565.31" rx="37.45" ry="26.74"/>
<text text-anchor="middle" x="42.43" y="-569.11" font-family="Times New Roman,serif" font-size="14.00">[0..2c)</text>
<text text-anchor="middle" x="42.43" y="-554.11" font-family="Times New Roman,serif" font-size="14.00">0.00</text>
</g>
<!-- BB2 -->
<g id="node3" class="node">
<title>BB2</title>
<ellipse fill="none" stroke="black" cx="42.43" cy="-475.57" rx="42.35" ry="26.74"/>
<text text-anchor="middle" x="42.43" y="-479.37" font-family="Times New Roman,serif" font-size="14.00">[37..3c)</text>
<text text-anchor="middle" x="42.43" y="-464.37" font-family="Times New Roman,serif" font-size="14.00">0.00</text>
</g>
<!-- BB0&#45;&gt;BB2 -->
<g id="edge1" class="edge">
<title>BB0&#45;&gt;BB2</title>
<path fill="none" stroke="black" d="M42.43,-537.99C42.43,-530.02 42.43,-521.13 42.43,-512.64"/>
<polygon fill="black" stroke="black" points="45.93,-512.57 42.43,-502.57 38.93,-512.57 45.93,-512.57"/>
</g>
<!-- BB1 -->
<g id="node2" class="node">
<title>BB1</title>
<ellipse fill="none" stroke="black" cx="42.43" cy="-385.83" rx="42.35" ry="26.74"/>
<text text-anchor="middle" x="42.43" y="-389.63" font-family="Times New Roman,serif" font-size="14.00">[2c..37)</text>
<text text-anchor="middle" x="42.43" y="-374.63" font-family="Times New Roman,serif" font-size="14.00">0.00</text>
</g>
<!-- BB1&#45;&gt;BB2 -->
<g id="edge2" class="edge">
<title>BB1&#45;&gt;BB2</title>
<path fill="none" stroke="black" d="M48.63,-412.5C49.15,-420.69 49.3,-429.92 49.08,-438.7"/>
<polygon fill="black" stroke="black" points="45.58,-438.58 48.64,-448.72 52.57,-438.88 45.58,-438.58"/>
</g>
<!-- BB2&#45;&gt;BB1 -->
<g id="edge3" class="edge">
<title>BB2&#45;&gt;BB1</title>
<path fill="none" stroke="black" d="M36.21,-448.72C35.7,-440.51 35.55,-431.28 35.78,-422.5"/>
<polygon fill="black" stroke="black" points="39.28,-422.64 36.22,-412.5 32.29,-422.33 39.28,-422.64"/>
</g>
<!-- BB3 -->
<g id="node4" class="node">
<title>BB3</title>
<ellipse fill="none" stroke="black" cx="145.43" cy="-385.83" rx="42.35" ry="26.74"/>
<text text-anchor="middle" x="145.43" y="-389.63" font-family="Times New Roman,serif" font-size="14.00">[3c..45)</text>
<text text-anchor="middle" x="145.43" y="-374.63" font-family="Times New Roman,serif" font-size="14.00">0.00</text>
</g>
<!-- BB2&#45;&gt;BB3 -->
<g id="edge4" class="edge">
<title>BB2&#45;&gt;BB3</title>
<path fill="none" stroke="black" d="M67.1,-453.55C80.76,-441.92 97.91,-427.31 112.68,-414.73"/>
<polygon fill="black" stroke="black" points="115.26,-417.13 120.6,-407.98 110.72,-411.8 115.26,-417.13"/>
</g>
<!-- BB8 -->
<g id="node9" class="node">
<title>BB8</title>
<ellipse fill="none" stroke="black" cx="145.43" cy="-296.09" rx="42.35" ry="26.74"/>
<text text-anchor="middle" x="145.43" y="-299.89" font-family="Times New Roman,serif" font-size="14.00">[c0..c5)</text>
<text text-anchor="middle" x="145.43" y="-284.89" font-family="Times New Roman,serif" font-size="14.00">0.00</text>
</g>
<!-- BB3&#45;&gt;BB8 -->
<g id="edge5" class="edge">
<title>BB3&#45;&gt;BB8</title>
<path fill="none" stroke="black" d="M145.43,-358.51C145.43,-350.54 145.43,-341.65 145.43,-333.16"/>
<polygon fill="black" stroke="black" points="148.93,-333.09 145.43,-323.09 141.93,-333.09 148.93,-333.09"/>
</g>
<!-- BB4 -->
<g id="node5" class="node">
<title>BB4</title>
<ellipse fill="none" stroke="black" cx="145.43" cy="-206.35" rx="43.27" ry="26.74"/>
<text text-anchor="middle" x="145.43" y="-210.15" font-family="Times New Roman,serif" font-size="14.00">[45..4d)</text>
<text text-anchor="middle" x="145.43" y="-195.15" font-family="Times New Roman,serif" font-size="14.00">0.00</text>
</g>
<!-- BB6 -->
<g id="node7" class="node">
<title>BB6</title>
<ellipse fill="none" stroke="black" cx="149.43" cy="-116.61" rx="42.35" ry="26.74"/>
<text text-anchor="middle" x="149.43" y="-120.41" font-family="Times New Roman,serif" font-size="14.00">[89..90)</text>
<text text-anchor="middle" x="149.43" y="-105.41" font-family="Times New Roman,serif" font-size="14.00">0.50</text>
</g>
<!-- BB4&#45;&gt;BB6 -->
<g id="edge6" class="edge">
<title>BB4&#45;&gt;BB6</title>
<path fill="none" stroke="black" d="M146.63,-179.03C146.99,-171.06 147.4,-162.17 147.78,-153.68"/>
<polygon fill="black" stroke="black" points="151.28,-153.76 148.24,-143.61 144.29,-153.44 151.28,-153.76"/>
</g>
<!-- BB5 -->
<g id="node6" class="node">
<title>BB5</title>
<ellipse fill="none" stroke="black" cx="154.43" cy="-26.87" rx="43.27" ry="26.74"/>
<text text-anchor="middle" x="154.43" y="-30.67" font-family="Times New Roman,serif" font-size="14.00">[4d..89)</text>
<text text-anchor="middle" x="154.43" y="-15.67" font-family="Times New Roman,serif" font-size="14.00">0.50</text>
</g>
<!-- BB5&#45;&gt;BB6 -->
<g id="edge7" class="edge">
<title>BB5&#45;&gt;BB6</title>
<path fill="none" stroke="black" d="M159.17,-53.84C159.21,-61.9 158.84,-70.93 158.14,-79.55"/>
<polygon fill="black" stroke="black" points="154.63,-79.46 157.12,-89.76 161.59,-80.16 154.63,-79.46"/>
</g>
<!-- BB6&#45;&gt;BB5 -->
<g id="edge8" class="edge">
<title>BB6&#45;&gt;BB5</title>
<path fill="none" stroke="black" d="M144.68,-89.76C144.64,-81.55 145.02,-72.32 145.75,-63.54"/>
<polygon fill="black" stroke="black" points="149.24,-63.84 146.76,-53.54 142.27,-63.13 149.24,-63.84"/>
</g>
<!-- BB7 -->
<g id="node8" class="node">
<title>BB7</title>
<ellipse fill="none" stroke="black" cx="50.43" cy="-26.87" rx="42.35" ry="26.74"/>
<text text-anchor="middle" x="50.43" y="-30.67" font-family="Times New Roman,serif" font-size="14.00">[90..c0)</text>
<text text-anchor="middle" x="50.43" y="-15.67" font-family="Times New Roman,serif" font-size="14.00">0.00</text>
</g>
<!-- BB6&#45;&gt;BB7 -->
<g id="edge9" class="edge">
<title>BB6&#45;&gt;BB7</title>
<path fill="none" stroke="black" d="M125.46,-94.37C112.42,-82.82 96.13,-68.38 82.07,-55.91"/>
<polygon fill="black" stroke="black" points="84.32,-53.23 74.51,-49.22 79.68,-58.47 84.32,-53.23"/>
</g>
<!-- BB7&#45;&gt;BB8 -->
<g id="edge10" class="edge">
<title>BB7&#45;&gt;BB8</title>
<path fill="none" stroke="black" d="M51.81,-53.82C54.83,-94.1 64.27,-173.28 93.43,-233.22 99.04,-244.75 107.27,-255.94 115.54,-265.55"/>
<polygon fill="black" stroke="black" points="113.15,-268.13 122.43,-273.23 118.36,-263.46 113.15,-268.13"/>
</g>
<!-- BB8&#45;&gt;BB4 -->
<g id="edge11" class="edge">
<title>BB8&#45;&gt;BB4</title>
<path fill="none" stroke="black" d="M145.43,-268.77C145.43,-260.8 145.43,-251.91 145.43,-243.42"/>
<polygon fill="black" stroke="black" points="148.93,-243.35 145.43,-233.35 141.93,-243.35 148.93,-243.35"/>
</g>
<!-- BB9 -->
<g id="node10" class="node">
<title>BB9</title>
<ellipse fill="none" stroke="black" cx="249.43" cy="-206.35" rx="42.35" ry="26.74"/>
<text text-anchor="middle" x="249.43" y="-210.15" font-family="Times New Roman,serif" font-size="14.00">[c5..c8)</text>
<text text-anchor="middle" x="249.43" y="-195.15" font-family="Times New Roman,serif" font-size="14.00">0.00</text>
</g>
<!-- BB8&#45;&gt;BB9 -->
<g id="edge12" class="edge">
<title>BB8&#45;&gt;BB9</title>
<path fill="none" stroke="black" d="M170.34,-274.07C184.23,-262.35 201.7,-247.61 216.69,-234.97"/>
<polygon fill="black" stroke="black" points="219.33,-237.32 224.72,-228.19 214.82,-231.97 219.33,-237.32"/>
</g>
</g>
</svg>
