<?xml version="1.0" encoding="UTF-8" standalone="no"?>
<!DOCTYPE svg PUBLIC "-//W3C//DTD SVG 1.1//EN"
 "http://www.w3.org/Graphics/SVG/1.1/DTD/svg11.dtd">
<!-- Generated by graphviz version 2.47.0 (20210316.0004)
 -->
<!-- Title: G Pages: 1 -->
<svg width="314pt" height="421pt"
 viewBox="0.00 0.00 313.58 420.70" xmlns="http://www.w3.org/2000/svg" xmlns:xlink="http://www.w3.org/1999/xlink">
<g id="graph0" class="graph" transform="scale(1 1) rotate(0) translate(4 416.7)">
<title>G</title>
<polygon fill="white" stroke="transparent" points="-4,4 -4,-416.7 309.58,-416.7 309.58,4 -4,4"/>
<!-- BB0 -->
<g id="node1" class="node">
<title>BB0</title>
<ellipse fill="none" stroke="black" cx="142.96" cy="-385.83" rx="37.45" ry="26.74"/>
<text text-anchor="middle" x="142.96" y="-389.63" font-family="Times New Roman,serif" font-size="14.00">[0..19)</text>
<text text-anchor="middle" x="142.96" y="-374.63" font-family="Times New Roman,serif" font-size="14.00">0.00</text>
</g>
<!-- BB5 -->
<g id="node6" class="node">
<title>BB5</title>
<ellipse fill="none" stroke="black" cx="142.96" cy="-296.09" rx="51.74" ry="26.74"/>
<text text-anchor="middle" x="142.96" y="-299.89" font-family="Times New Roman,serif" font-size="14.00">[117..11e)</text>
<text text-anchor="middle" x="142.96" y="-284.89" font-family="Times New Roman,serif" font-size="14.00">0.00</text>
</g>
<!-- BB0&#45;&gt;BB5 -->
<g id="edge1" class="edge">
<title>BB0&#45;&gt;BB5</title>
<path fill="none" stroke="black" d="M142.96,-358.51C142.96,-350.54 142.96,-341.65 142.96,-333.16"/>
<polygon fill="black" stroke="black" points="146.46,-333.09 142.96,-323.09 139.46,-333.09 146.46,-333.09"/>
</g>
<!-- BB1 -->
<g id="node2" class="node">
<title>BB1</title>
<ellipse fill="none" stroke="black" cx="142.96" cy="-206.35" rx="41.94" ry="26.74"/>
<text text-anchor="middle" x="142.96" y="-210.15" font-family="Times New Roman,serif" font-size="14.00">[19..2e)</text>
<text text-anchor="middle" x="142.96" y="-195.15" font-family="Times New Roman,serif" font-size="14.00">0.00</text>
</g>
<!-- BB3 -->
<g id="node4" class="node">
<title>BB3</title>
<ellipse fill="none" stroke="black" cx="146.96" cy="-116.61" rx="41.02" ry="26.74"/>
<text text-anchor="middle" x="146.96" y="-120.41" font-family="Times New Roman,serif" font-size="14.00">[79..7f)</text>
<text text-anchor="middle" x="146.96" y="-105.41" font-family="Times New Roman,serif" font-size="14.00">0.50</text>
</g>
<!-- BB1&#45;&gt;BB3 -->
<g id="edge2" class="edge">
<title>BB1&#45;&gt;BB3</title>
<path fill="none" stroke="black" d="M144.16,-179.03C144.53,-171.06 144.93,-162.17 145.32,-153.68"/>
<polygon fill="black" stroke="black" points="148.82,-153.76 145.78,-143.61 141.82,-153.44 148.82,-153.76"/>
</g>
<!-- BB2 -->
<g id="node3" class="node">
<title>BB2</title>
<ellipse fill="none" stroke="black" cx="151.96" cy="-26.87" rx="41.94" ry="26.74"/>
<text text-anchor="middle" x="151.96" y="-30.67" font-family="Times New Roman,serif" font-size="14.00">[2e..79)</text>
<text text-anchor="middle" x="151.96" y="-15.67" font-family="Times New Roman,serif" font-size="14.00">0.50</text>
</g>
<!-- BB2&#45;&gt;BB3 -->
<g id="edge3" class="edge">
<title>BB2&#45;&gt;BB3</title>
<path fill="none" stroke="black" d="M156.71,-53.84C156.75,-61.9 156.38,-70.93 155.67,-79.55"/>
<polygon fill="black" stroke="black" points="152.16,-79.46 154.65,-89.76 159.13,-80.16 152.16,-79.46"/>
</g>
<!-- BB3&#45;&gt;BB2 -->
<g id="edge4" class="edge">
<title>BB3&#45;&gt;BB2</title>
<path fill="none" stroke="black" d="M142.22,-89.76C142.17,-81.55 142.56,-72.32 143.29,-63.54"/>
<polygon fill="black" stroke="black" points="146.77,-63.84 144.29,-53.54 139.81,-63.13 146.77,-63.84"/>
</g>
<!-- BB4 -->
<g id="node5" class="node">
<title>BB4</title>
<ellipse fill="none" stroke="black" cx="45.96" cy="-26.87" rx="45.92" ry="26.74"/>
<text text-anchor="middle" x="45.96" y="-30.67" font-family="Times New Roman,serif" font-size="14.00">[7f..117)</text>
<text text-anchor="middle" x="45.96" y="-15.67" font-family="Times New Roman,serif" font-size="14.00">0.00</text>
</g>
<!-- BB3&#45;&gt;BB4 -->
<g id="edge5" class="edge">
<title>BB3&#45;&gt;BB4</title>
<path fill="none" stroke="black" d="M122.77,-94.59C109.57,-83.13 93.05,-68.78 78.72,-56.32"/>
<polygon fill="black" stroke="black" points="80.86,-53.55 71.01,-49.63 76.27,-58.83 80.86,-53.55"/>
</g>
<!-- BB4&#45;&gt;BB5 -->
<g id="edge6" class="edge">
<title>BB4&#45;&gt;BB5</title>
<path fill="none" stroke="black" d="M47.88,-53.79C51.7,-94.03 62.59,-173.16 91.96,-233.22 97.31,-244.15 104.95,-254.83 112.69,-264.15"/>
<polygon fill="black" stroke="black" points="110.27,-266.71 119.47,-271.97 115.56,-262.12 110.27,-266.71"/>
</g>
<!-- BB5&#45;&gt;BB1 -->
<g id="edge7" class="edge">
<title>BB5&#45;&gt;BB1</title>
<path fill="none" stroke="black" d="M142.96,-268.77C142.96,-260.8 142.96,-251.91 142.96,-243.42"/>
<polygon fill="black" stroke="black" points="146.46,-243.35 142.96,-233.35 139.46,-243.35 146.46,-243.35"/>
</g>
<!-- BB6 -->
<g id="node7" class="node">
<title>BB6</title>
<ellipse fill="none" stroke="black" cx="253.96" cy="-206.35" rx="51.74" ry="26.74"/>
<text text-anchor="middle" x="253.96" y="-210.15" font-family="Times New Roman,serif" font-size="14.00">[11e..120)</text>
<text text-anchor="middle" x="253.96" y="-195.15" font-family="Times New Roman,serif" font-size="14.00">0.00</text>
</g>
<!-- BB5&#45;&gt;BB6 -->
<g id="edge8" class="edge">
<title>BB5&#45;&gt;BB6</title>
<path fill="none" stroke="black" d="M170.69,-273.18C184.99,-261.87 202.61,-247.94 217.95,-235.81"/>
<polygon fill="black" stroke="black" points="220.53,-238.24 226.21,-229.29 216.19,-232.74 220.53,-238.24"/>
</g>
</g>
</svg>
