<?xml version="1.0" encoding="UTF-8" standalone="no"?>
<!DOCTYPE svg PUBLIC "-//W3C//DTD SVG 1.1//EN"
 "http://www.w3.org/Graphics/SVG/1.1/DTD/svg11.dtd">
<!-- Generated by graphviz version 2.47.0 (20210316.0004)
 -->
<!-- Title: G Pages: 1 -->
<svg width="429pt" height="600pt"
 viewBox="0.00 0.00 428.85 600.18" xmlns="http://www.w3.org/2000/svg" xmlns:xlink="http://www.w3.org/1999/xlink">
<g id="graph0" class="graph" transform="scale(1 1) rotate(0) translate(4 596.18)">
<title>G</title>
<polygon fill="white" stroke="transparent" points="-4,4 -4,-596.18 424.85,-596.18 424.85,4 -4,4"/>
<!-- BB0 -->
<g id="node1" class="node">
<title>BB0</title>
<ellipse fill="none" stroke="black" cx="140.43" cy="-565.31" rx="33.47" ry="26.74"/>
<text text-anchor="middle" x="140.43" y="-569.11" font-family="Times New Roman,serif" font-size="14.00">[0..4)</text>
<text text-anchor="middle" x="140.43" y="-554.11" font-family="Times New Roman,serif" font-size="14.00">0.00</text>
</g>
<!-- BB5 -->
<g id="node6" class="node">
<title>BB5</title>
<ellipse fill="none" stroke="black" cx="140.43" cy="-475.57" rx="43.27" ry="26.74"/>
<text text-anchor="middle" x="140.43" y="-479.37" font-family="Times New Roman,serif" font-size="14.00">[45..4d)</text>
<text text-anchor="middle" x="140.43" y="-464.37" font-family="Times New Roman,serif" font-size="14.00">0.01</text>
</g>
<!-- BB0&#45;&gt;BB5 -->
<g id="edge1" class="edge">
<title>BB0&#45;&gt;BB5</title>
<path fill="none" stroke="black" d="M140.43,-537.99C140.43,-530.02 140.43,-521.13 140.43,-512.64"/>
<polygon fill="black" stroke="black" points="143.93,-512.57 140.43,-502.57 136.93,-512.57 143.93,-512.57"/>
</g>
<!-- BB1 -->
<g id="node2" class="node">
<title>BB1</title>
<ellipse fill="none" stroke="black" cx="140.43" cy="-385.83" rx="33.47" ry="26.74"/>
<text text-anchor="middle" x="140.43" y="-389.63" font-family="Times New Roman,serif" font-size="14.00">[4..8)</text>
<text text-anchor="middle" x="140.43" y="-374.63" font-family="Times New Roman,serif" font-size="14.00">0.01</text>
</g>
<!-- BB3 -->
<g id="node4" class="node">
<title>BB3</title>
<ellipse fill="none" stroke="black" cx="140.43" cy="-296.09" rx="42.35" ry="26.74"/>
<text text-anchor="middle" x="140.43" y="-299.89" font-family="Times New Roman,serif" font-size="14.00">[39..41)</text>
<text text-anchor="middle" x="140.43" y="-284.89" font-family="Times New Roman,serif" font-size="14.00">0.38</text>
</g>
<!-- BB1&#45;&gt;BB3 -->
<g id="edge2" class="edge">
<title>BB1&#45;&gt;BB3</title>
<path fill="none" stroke="black" d="M140.43,-358.51C140.43,-350.54 140.43,-341.65 140.43,-333.16"/>
<polygon fill="black" stroke="black" points="143.93,-333.09 140.43,-323.09 136.93,-333.09 143.93,-333.09"/>
</g>
<!-- BB2 -->
<g id="node3" class="node">
<title>BB2</title>
<ellipse fill="none" stroke="black" cx="140.43" cy="-206.35" rx="37.45" ry="26.74"/>
<text text-anchor="middle" x="140.43" y="-210.15" font-family="Times New Roman,serif" font-size="14.00">[8..39)</text>
<text text-anchor="middle" x="140.43" y="-195.15" font-family="Times New Roman,serif" font-size="14.00">0.37</text>
</g>
<!-- BB2&#45;&gt;BB3 -->
<g id="edge3" class="edge">
<title>BB2&#45;&gt;BB3</title>
<path fill="none" stroke="black" d="M146.63,-233.02C147.15,-241.21 147.3,-250.44 147.08,-259.22"/>
<polygon fill="black" stroke="black" points="143.58,-259.1 146.64,-269.24 150.57,-259.4 143.58,-259.1"/>
</g>
<!-- BB3&#45;&gt;BB2 -->
<g id="edge4" class="edge">
<title>BB3&#45;&gt;BB2</title>
<path fill="none" stroke="black" d="M134.21,-269.24C133.7,-261.03 133.55,-251.8 133.78,-243.02"/>
<polygon fill="black" stroke="black" points="137.28,-243.16 134.22,-233.02 130.29,-242.85 137.28,-243.16"/>
</g>
<!-- BB4 -->
<g id="node5" class="node">
<title>BB4</title>
<ellipse fill="none" stroke="black" cx="42.43" cy="-206.35" rx="42.35" ry="26.74"/>
<text text-anchor="middle" x="42.43" y="-210.15" font-family="Times New Roman,serif" font-size="14.00">[41..45)</text>
<text text-anchor="middle" x="42.43" y="-195.15" font-family="Times New Roman,serif" font-size="14.00">0.01</text>
</g>
<!-- BB3&#45;&gt;BB4 -->
<g id="edge5" class="edge">
<title>BB3&#45;&gt;BB4</title>
<path fill="none" stroke="black" d="M116.45,-273.63C103.76,-262.26 88,-248.15 74.29,-235.88"/>
<polygon fill="black" stroke="black" points="76.28,-232.96 66.49,-228.9 71.61,-238.17 76.28,-232.96"/>
</g>
<!-- BB4&#45;&gt;BB5 -->
<g id="edge6" class="edge">
<title>BB4&#45;&gt;BB5</title>
<path fill="none" stroke="black" d="M46.65,-233.26C53.78,-273.16 70.23,-351.44 98.43,-412.7 103.21,-423.08 109.66,-433.64 116.08,-443.03"/>
<polygon fill="black" stroke="black" points="113.29,-445.14 121.92,-451.28 119,-441.1 113.29,-445.14"/>
</g>
<!-- BB5&#45;&gt;BB1 -->
<g id="edge7" class="edge">
<title>BB5&#45;&gt;BB1</title>
<path fill="none" stroke="black" d="M140.43,-448.25C140.43,-440.28 140.43,-431.39 140.43,-422.9"/>
<polygon fill="black" stroke="black" points="143.93,-422.83 140.43,-412.83 136.93,-422.83 143.93,-422.83"/>
</g>
<!-- BB6 -->
<g id="node7" class="node">
<title>BB6</title>
<ellipse fill="none" stroke="black" cx="238.43" cy="-385.83" rx="43.27" ry="26.74"/>
<text text-anchor="middle" x="238.43" y="-389.63" font-family="Times New Roman,serif" font-size="14.00">[4d..51)</text>
<text text-anchor="middle" x="238.43" y="-374.63" font-family="Times New Roman,serif" font-size="14.00">0.00</text>
</g>
<!-- BB5&#45;&gt;BB6 -->
<g id="edge8" class="edge">
<title>BB5&#45;&gt;BB6</title>
<path fill="none" stroke="black" d="M164.4,-453.11C177.09,-441.74 192.85,-427.63 206.56,-415.36"/>
<polygon fill="black" stroke="black" points="209.25,-417.65 214.36,-408.38 204.58,-412.44 209.25,-417.65"/>
</g>
<!-- BB11 -->
<g id="node12" class="node">
<title>BB11</title>
<ellipse fill="none" stroke="black" cx="258.43" cy="-296.09" rx="41.94" ry="26.74"/>
<text text-anchor="middle" x="258.43" y="-299.89" font-family="Times New Roman,serif" font-size="14.00">[92..9a)</text>
<text text-anchor="middle" x="258.43" y="-284.89" font-family="Times New Roman,serif" font-size="14.00">0.01</text>
</g>
<!-- BB6&#45;&gt;BB11 -->
<g id="edge9" class="edge">
<title>BB6&#45;&gt;BB11</title>
<path fill="none" stroke="black" d="M244.32,-358.98C246.19,-350.77 248.29,-341.54 250.3,-332.76"/>
<polygon fill="black" stroke="black" points="253.77,-333.28 252.58,-322.76 246.94,-331.73 253.77,-333.28"/>
</g>
<!-- BB7 -->
<g id="node8" class="node">
<title>BB7</title>
<ellipse fill="none" stroke="black" cx="275.43" cy="-206.35" rx="42.35" ry="26.74"/>
<text text-anchor="middle" x="275.43" y="-210.15" font-family="Times New Roman,serif" font-size="14.00">[51..55)</text>
<text text-anchor="middle" x="275.43" y="-195.15" font-family="Times New Roman,serif" font-size="14.00">0.01</text>
</g>
<!-- BB9 -->
<g id="node10" class="node">
<title>BB9</title>
<ellipse fill="none" stroke="black" cx="283.43" cy="-116.61" rx="41.94" ry="26.74"/>
<text text-anchor="middle" x="283.43" y="-120.41" font-family="Times New Roman,serif" font-size="14.00">[86..8e)</text>
<text text-anchor="middle" x="283.43" y="-105.41" font-family="Times New Roman,serif" font-size="14.00">0.10</text>
</g>
<!-- BB7&#45;&gt;BB9 -->
<g id="edge10" class="edge">
<title>BB7&#45;&gt;BB9</title>
<path fill="none" stroke="black" d="M277.78,-179.5C278.52,-171.45 279.34,-162.42 280.13,-153.8"/>
<polygon fill="black" stroke="black" points="283.64,-153.86 281.06,-143.58 276.66,-153.22 283.64,-153.86"/>
</g>
<!-- BB8 -->
<g id="node9" class="node">
<title>BB8</title>
<ellipse fill="none" stroke="black" cx="291.43" cy="-26.87" rx="42.35" ry="26.74"/>
<text text-anchor="middle" x="291.43" y="-30.67" font-family="Times New Roman,serif" font-size="14.00">[55..86)</text>
<text text-anchor="middle" x="291.43" y="-15.67" font-family="Times New Roman,serif" font-size="14.00">0.08</text>
</g>
<!-- BB8&#45;&gt;BB9 -->
<g id="edge11" class="edge">
<title>BB8&#45;&gt;BB9</title>
<path fill="none" stroke="black" d="M295.28,-53.8C295.04,-62.07 294.34,-71.36 293.29,-80.18"/>
<polygon fill="black" stroke="black" points="289.81,-79.85 291.93,-90.23 296.74,-80.8 289.81,-79.85"/>
</g>
<!-- BB9&#45;&gt;BB8 -->
<g id="edge12" class="edge">
<title>BB9&#45;&gt;BB8</title>
<path fill="none" stroke="black" d="M279.57,-89.76C279.8,-81.48 280.51,-72.15 281.56,-63.31"/>
<polygon fill="black" stroke="black" points="285.05,-63.61 282.93,-53.23 278.11,-62.67 285.05,-63.61"/>
</g>
<!-- BB10 -->
<g id="node11" class="node">
<title>BB10</title>
<ellipse fill="none" stroke="black" cx="189.43" cy="-26.87" rx="41.94" ry="26.74"/>
<text text-anchor="middle" x="189.43" y="-30.67" font-family="Times New Roman,serif" font-size="14.00">[8e..92)</text>
<text text-anchor="middle" x="189.43" y="-15.67" font-family="Times New Roman,serif" font-size="14.00">0.01</text>
</g>
<!-- BB9&#45;&gt;BB10 -->
<g id="edge13" class="edge">
<title>BB9&#45;&gt;BB10</title>
<path fill="none" stroke="black" d="M260.19,-93.92C248.01,-82.55 232.94,-68.49 219.84,-56.26"/>
<polygon fill="black" stroke="black" points="222.09,-53.57 212.4,-49.31 217.32,-58.69 222.09,-53.57"/>
</g>
<!-- BB10&#45;&gt;BB11 -->
<g id="edge14" class="edge">
<title>BB10&#45;&gt;BB11</title>
<path fill="none" stroke="black" d="M191.07,-53.85C194.2,-93.5 202.75,-171.07 224.43,-233.22 227.85,-243.03 232.73,-253.12 237.73,-262.24"/>
<polygon fill="black" stroke="black" points="234.73,-264.03 242.72,-270.98 240.8,-260.56 234.73,-264.03"/>
</g>
<!-- BB11&#45;&gt;BB7 -->
<g id="edge15" class="edge">
<title>BB11&#45;&gt;BB7</title>
<path fill="none" stroke="black" d="M263.44,-269.24C265.01,-261.1 266.78,-251.96 268.47,-243.26"/>
<polygon fill="black" stroke="black" points="271.93,-243.8 270.39,-233.32 265.06,-242.47 271.93,-243.8"/>
</g>
<!-- BB12 -->
<g id="node13" class="node">
<title>BB12</title>
<ellipse fill="none" stroke="black" cx="378.43" cy="-206.35" rx="42.35" ry="26.74"/>
<text text-anchor="middle" x="378.43" y="-210.15" font-family="Times New Roman,serif" font-size="14.00">[9a..9b)</text>
<text text-anchor="middle" x="378.43" y="-195.15" font-family="Times New Roman,serif" font-size="14.00">0.00</text>
</g>
<!-- BB11&#45;&gt;BB12 -->
<g id="edge16" class="edge">
<title>BB11&#45;&gt;BB12</title>
<path fill="none" stroke="black" d="M285.36,-275.4C302.38,-262.96 324.56,-246.74 342.99,-233.26"/>
<polygon fill="black" stroke="black" points="345.16,-236.01 351.17,-227.28 341.03,-230.36 345.16,-236.01"/>
</g>
</g>
</svg>
