<?xml version="1.0" encoding="UTF-8" standalone="no"?>
<!DOCTYPE svg PUBLIC "-//W3C//DTD SVG 1.1//EN"
 "http://www.w3.org/Graphics/SVG/1.1/DTD/svg11.dtd">
<!-- Generated by graphviz version 2.47.0 (20210316.0004)
 -->
<!-- Title: G Pages: 1 -->
<svg width="563pt" height="1139pt"
 viewBox="0.00 0.00 563.46 1138.62" xmlns="http://www.w3.org/2000/svg" xmlns:xlink="http://www.w3.org/1999/xlink">
<g id="graph0" class="graph" transform="scale(1 1) rotate(0) translate(4 1134.62)">
<title>G</title>
<polygon fill="white" stroke="transparent" points="-4,4 -4,-1134.62 559.46,-1134.62 559.46,4 -4,4"/>
<!-- BB0 -->
<g id="node1" class="node">
<title>BB0</title>
<ellipse fill="none" stroke="black" cx="423.84" cy="-1103.75" rx="37.45" ry="26.74"/>
<text text-anchor="middle" x="423.84" y="-1107.55" font-family="Times New Roman,serif" font-size="14.00">[0..19)</text>
<text text-anchor="middle" x="423.84" y="-1092.55" font-family="Times New Roman,serif" font-size="14.00">0.00</text>
</g>
<!-- BB22 -->
<g id="node23" class="node">
<title>BB22</title>
<ellipse fill="none" stroke="black" cx="423.84" cy="-1014.01" rx="52.15" ry="26.74"/>
<text text-anchor="middle" x="423.84" y="-1017.81" font-family="Times New Roman,serif" font-size="14.00">[111..118)</text>
<text text-anchor="middle" x="423.84" y="-1002.81" font-family="Times New Roman,serif" font-size="14.00">0.00</text>
</g>
<!-- BB0&#45;&gt;BB22 -->
<g id="edge1" class="edge">
<title>BB0&#45;&gt;BB22</title>
<path fill="none" stroke="black" d="M423.84,-1076.43C423.84,-1068.46 423.84,-1059.57 423.84,-1051.08"/>
<polygon fill="black" stroke="black" points="427.34,-1051.02 423.84,-1041.02 420.34,-1051.02 427.34,-1051.02"/>
</g>
<!-- BB1 -->
<g id="node2" class="node">
<title>BB1</title>
<ellipse fill="none" stroke="black" cx="354.84" cy="-924.27" rx="41.02" ry="26.74"/>
<text text-anchor="middle" x="354.84" y="-928.07" font-family="Times New Roman,serif" font-size="14.00">[19..2f)</text>
<text text-anchor="middle" x="354.84" y="-913.07" font-family="Times New Roman,serif" font-size="14.00">0.00</text>
</g>
<!-- BB5 -->
<g id="node6" class="node">
<title>BB5</title>
<ellipse fill="none" stroke="black" cx="319.84" cy="-834.53" rx="42.35" ry="26.74"/>
<text text-anchor="middle" x="319.84" y="-838.33" font-family="Times New Roman,serif" font-size="14.00">[50..55)</text>
<text text-anchor="middle" x="319.84" y="-823.33" font-family="Times New Roman,serif" font-size="14.00">0.01</text>
</g>
<!-- BB1&#45;&gt;BB5 -->
<g id="edge2" class="edge">
<title>BB1&#45;&gt;BB5</title>
<path fill="none" stroke="black" d="M344.72,-897.89C341.27,-889.25 337.36,-879.44 333.67,-870.2"/>
<polygon fill="black" stroke="black" points="336.9,-868.84 329.94,-860.85 330.4,-871.44 336.9,-868.84"/>
</g>
<!-- BB2 -->
<g id="node3" class="node">
<title>BB2</title>
<ellipse fill="none" stroke="black" cx="284.84" cy="-744.79" rx="41.02" ry="26.74"/>
<text text-anchor="middle" x="284.84" y="-748.59" font-family="Times New Roman,serif" font-size="14.00">[2f..42)</text>
<text text-anchor="middle" x="284.84" y="-733.59" font-family="Times New Roman,serif" font-size="14.00">0.01</text>
</g>
<!-- BB3 -->
<g id="node4" class="node">
<title>BB3</title>
<ellipse fill="none" stroke="black" cx="252.84" cy="-655.05" rx="41.94" ry="26.74"/>
<text text-anchor="middle" x="252.84" y="-658.85" font-family="Times New Roman,serif" font-size="14.00">[42..4a)</text>
<text text-anchor="middle" x="252.84" y="-643.85" font-family="Times New Roman,serif" font-size="14.00">0.00</text>
</g>
<!-- BB2&#45;&gt;BB3 -->
<g id="edge4" class="edge">
<title>BB2&#45;&gt;BB3</title>
<path fill="none" stroke="black" d="M275.58,-718.41C272.47,-709.86 268.93,-700.17 265.59,-691.01"/>
<polygon fill="black" stroke="black" points="268.79,-689.57 262.08,-681.37 262.21,-691.97 268.79,-689.57"/>
</g>
<!-- BB4 -->
<g id="node5" class="node">
<title>BB4</title>
<ellipse fill="none" stroke="black" cx="353.84" cy="-655.05" rx="41.94" ry="26.74"/>
<text text-anchor="middle" x="353.84" y="-658.85" font-family="Times New Roman,serif" font-size="14.00">[4a..50)</text>
<text text-anchor="middle" x="353.84" y="-643.85" font-family="Times New Roman,serif" font-size="14.00">0.01</text>
</g>
<!-- BB2&#45;&gt;BB4 -->
<g id="edge3" class="edge">
<title>BB2&#45;&gt;BB4</title>
<path fill="none" stroke="black" d="M303.33,-720.28C311.28,-710.17 320.69,-698.2 329.23,-687.35"/>
<polygon fill="black" stroke="black" points="332.11,-689.35 335.54,-679.32 326.61,-685.02 332.11,-689.35"/>
</g>
<!-- BB3&#45;&gt;BB4 -->
<g id="edge5" class="edge">
<title>BB3&#45;&gt;BB4</title>
<path fill="none" stroke="black" d="M294.66,-655.05C296.98,-655.05 299.29,-655.05 301.61,-655.05"/>
<polygon fill="black" stroke="black" points="301.77,-658.55 311.77,-655.05 301.77,-651.55 301.77,-658.55"/>
</g>
<!-- BB4&#45;&gt;BB5 -->
<g id="edge6" class="edge">
<title>BB4&#45;&gt;BB5</title>
<path fill="none" stroke="black" d="M350.16,-681.87C346.68,-705.36 341.08,-740.96 334.84,-771.66 333.1,-780.22 331.01,-789.4 328.94,-797.99"/>
<polygon fill="black" stroke="black" points="325.53,-797.19 326.55,-807.74 332.33,-798.86 325.53,-797.19"/>
</g>
<!-- BB5&#45;&gt;BB2 -->
<g id="edge7" class="edge">
<title>BB5&#45;&gt;BB2</title>
<path fill="none" stroke="black" d="M309.72,-808.15C306.27,-799.51 302.36,-789.7 298.67,-780.46"/>
<polygon fill="black" stroke="black" points="301.9,-779.1 294.94,-771.11 295.4,-781.7 301.9,-779.1"/>
</g>
<!-- BB6 -->
<g id="node7" class="node">
<title>BB6</title>
<ellipse fill="none" stroke="black" cx="148.84" cy="-744.79" rx="43.27" ry="26.74"/>
<text text-anchor="middle" x="148.84" y="-748.59" font-family="Times New Roman,serif" font-size="14.00">[55..6b)</text>
<text text-anchor="middle" x="148.84" y="-733.59" font-family="Times New Roman,serif" font-size="14.00">0.00</text>
</g>
<!-- BB5&#45;&gt;BB6 -->
<g id="edge8" class="edge">
<title>BB5&#45;&gt;BB6</title>
<path fill="none" stroke="black" d="M287.27,-816.82C259.79,-802.72 220.27,-782.44 190.48,-767.16"/>
<polygon fill="black" stroke="black" points="192.07,-764.04 181.58,-762.59 188.88,-770.27 192.07,-764.04"/>
</g>
<!-- BB7 -->
<g id="node8" class="node">
<title>BB7</title>
<ellipse fill="none" stroke="black" cx="148.84" cy="-655.05" rx="43.68" ry="26.74"/>
<text text-anchor="middle" x="148.84" y="-658.85" font-family="Times New Roman,serif" font-size="14.00">[6b..6d)</text>
<text text-anchor="middle" x="148.84" y="-643.85" font-family="Times New Roman,serif" font-size="14.00">0.00</text>
</g>
<!-- BB6&#45;&gt;BB7 -->
<g id="edge10" class="edge">
<title>BB6&#45;&gt;BB7</title>
<path fill="none" stroke="black" d="M148.84,-717.47C148.84,-709.5 148.84,-700.61 148.84,-692.12"/>
<polygon fill="black" stroke="black" points="152.34,-692.05 148.84,-682.05 145.34,-692.05 152.34,-692.05"/>
</g>
<!-- BB8 -->
<g id="node9" class="node">
<title>BB8</title>
<ellipse fill="none" stroke="black" cx="43.84" cy="-655.05" rx="43.27" ry="26.74"/>
<text text-anchor="middle" x="43.84" y="-658.85" font-family="Times New Roman,serif" font-size="14.00">[6d..72)</text>
<text text-anchor="middle" x="43.84" y="-643.85" font-family="Times New Roman,serif" font-size="14.00">0.00</text>
</g>
<!-- BB6&#45;&gt;BB8 -->
<g id="edge9" class="edge">
<title>BB6&#45;&gt;BB8</title>
<path fill="none" stroke="black" d="M123.69,-722.78C109.77,-711.14 92.28,-696.53 77.23,-683.95"/>
<polygon fill="black" stroke="black" points="79.07,-680.93 69.15,-677.2 74.58,-686.3 79.07,-680.93"/>
</g>
<!-- BB7&#45;&gt;BB8 -->
<g id="edge11" class="edge">
<title>BB7&#45;&gt;BB8</title>
<path fill="none" stroke="black" d="M104.62,-655.05C102.19,-655.05 99.75,-655.05 97.32,-655.05"/>
<polygon fill="black" stroke="black" points="97.32,-651.55 87.32,-655.05 97.32,-658.55 97.32,-651.55"/>
</g>
<!-- BB9 -->
<g id="node10" class="node">
<title>BB9</title>
<ellipse fill="none" stroke="black" cx="145.84" cy="-565.31" rx="42.35" ry="26.74"/>
<text text-anchor="middle" x="145.84" y="-569.11" font-family="Times New Roman,serif" font-size="14.00">[72..84)</text>
<text text-anchor="middle" x="145.84" y="-554.11" font-family="Times New Roman,serif" font-size="14.00">0.00</text>
</g>
<!-- BB8&#45;&gt;BB9 -->
<g id="edge13" class="edge">
<title>BB8&#45;&gt;BB9</title>
<path fill="none" stroke="black" d="M68.53,-632.81C82.06,-621.17 99,-606.61 113.56,-594.08"/>
<polygon fill="black" stroke="black" points="116.08,-596.53 121.38,-587.35 111.51,-591.22 116.08,-596.53"/>
</g>
<!-- BB10 -->
<g id="node11" class="node">
<title>BB10</title>
<ellipse fill="none" stroke="black" cx="43.84" cy="-565.31" rx="41.94" ry="26.74"/>
<text text-anchor="middle" x="43.84" y="-569.11" font-family="Times New Roman,serif" font-size="14.00">[84..8a)</text>
<text text-anchor="middle" x="43.84" y="-554.11" font-family="Times New Roman,serif" font-size="14.00">0.00</text>
</g>
<!-- BB8&#45;&gt;BB10 -->
<g id="edge12" class="edge">
<title>BB8&#45;&gt;BB10</title>
<path fill="none" stroke="black" d="M43.84,-627.73C43.84,-619.76 43.84,-610.87 43.84,-602.38"/>
<polygon fill="black" stroke="black" points="47.34,-602.31 43.84,-592.31 40.34,-602.31 47.34,-602.31"/>
</g>
<!-- BB9&#45;&gt;BB10 -->
<g id="edge14" class="edge">
<title>BB9&#45;&gt;BB10</title>
<path fill="none" stroke="black" d="M103.07,-565.31C100.62,-565.31 98.18,-565.31 95.73,-565.31"/>
<polygon fill="black" stroke="black" points="95.68,-561.81 85.68,-565.31 95.68,-568.81 95.68,-561.81"/>
</g>
<!-- BB11 -->
<g id="node12" class="node">
<title>BB11</title>
<ellipse fill="none" stroke="black" cx="43.84" cy="-475.57" rx="41.94" ry="26.74"/>
<text text-anchor="middle" x="43.84" y="-479.37" font-family="Times New Roman,serif" font-size="14.00">[8a..a2)</text>
<text text-anchor="middle" x="43.84" y="-464.37" font-family="Times New Roman,serif" font-size="14.00">0.00</text>
</g>
<!-- BB10&#45;&gt;BB11 -->
<g id="edge16" class="edge">
<title>BB10&#45;&gt;BB11</title>
<path fill="none" stroke="black" d="M43.84,-537.99C43.84,-530.02 43.84,-521.13 43.84,-512.64"/>
<polygon fill="black" stroke="black" points="47.34,-512.57 43.84,-502.57 40.34,-512.57 47.34,-512.57"/>
</g>
<!-- BB14 -->
<g id="node15" class="node">
<title>BB14</title>
<ellipse fill="none" stroke="black" cx="147.84" cy="-475.57" rx="43.68" ry="26.74"/>
<text text-anchor="middle" x="147.84" y="-479.37" font-family="Times New Roman,serif" font-size="14.00">[bd..c3)</text>
<text text-anchor="middle" x="147.84" y="-464.37" font-family="Times New Roman,serif" font-size="14.00">0.00</text>
</g>
<!-- BB10&#45;&gt;BB14 -->
<g id="edge15" class="edge">
<title>BB10&#45;&gt;BB14</title>
<path fill="none" stroke="black" d="M68.49,-543.52C82.27,-531.89 99.64,-517.23 114.62,-504.6"/>
<polygon fill="black" stroke="black" points="117.26,-506.95 122.65,-497.82 112.75,-501.6 117.26,-506.95"/>
</g>
<!-- BB13 -->
<g id="node14" class="node">
<title>BB13</title>
<ellipse fill="none" stroke="black" cx="43.84" cy="-385.83" rx="43.68" ry="26.74"/>
<text text-anchor="middle" x="43.84" y="-389.63" font-family="Times New Roman,serif" font-size="14.00">[b8..bd)</text>
<text text-anchor="middle" x="43.84" y="-374.63" font-family="Times New Roman,serif" font-size="14.00">0.01</text>
</g>
<!-- BB11&#45;&gt;BB13 -->
<g id="edge17" class="edge">
<title>BB11&#45;&gt;BB13</title>
<path fill="none" stroke="black" d="M43.84,-448.25C43.84,-440.28 43.84,-431.39 43.84,-422.9"/>
<polygon fill="black" stroke="black" points="47.34,-422.83 43.84,-412.83 40.34,-422.83 47.34,-422.83"/>
</g>
<!-- BB12 -->
<g id="node13" class="node">
<title>BB12</title>
<ellipse fill="none" stroke="black" cx="43.84" cy="-296.09" rx="42.35" ry="26.74"/>
<text text-anchor="middle" x="43.84" y="-299.89" font-family="Times New Roman,serif" font-size="14.00">[a2..b8)</text>
<text text-anchor="middle" x="43.84" y="-284.89" font-family="Times New Roman,serif" font-size="14.00">0.01</text>
</g>
<!-- BB12&#45;&gt;BB13 -->
<g id="edge18" class="edge">
<title>BB12&#45;&gt;BB13</title>
<path fill="none" stroke="black" d="M50.05,-322.76C50.57,-330.95 50.71,-340.18 50.49,-348.96"/>
<polygon fill="black" stroke="black" points="46.99,-348.84 50.06,-358.98 53.99,-349.14 46.99,-348.84"/>
</g>
<!-- BB13&#45;&gt;BB12 -->
<g id="edge19" class="edge">
<title>BB13&#45;&gt;BB12</title>
<path fill="none" stroke="black" d="M37.62,-358.98C37.11,-350.77 36.97,-341.54 37.2,-332.76"/>
<polygon fill="black" stroke="black" points="40.69,-332.9 37.64,-322.76 33.7,-332.59 40.69,-332.9"/>
</g>
<!-- BB13&#45;&gt;BB14 -->
<g id="edge20" class="edge">
<title>BB13&#45;&gt;BB14</title>
<path fill="none" stroke="black" d="M69.14,-408.18C82.86,-419.75 99.98,-434.19 114.74,-446.65"/>
<polygon fill="black" stroke="black" points="112.76,-449.56 122.67,-453.33 117.28,-444.21 112.76,-449.56"/>
</g>
<!-- BB15 -->
<g id="node16" class="node">
<title>BB15</title>
<ellipse fill="none" stroke="black" cx="147.84" cy="-385.83" rx="41.94" ry="26.74"/>
<text text-anchor="middle" x="147.84" y="-389.63" font-family="Times New Roman,serif" font-size="14.00">[c3..ca)</text>
<text text-anchor="middle" x="147.84" y="-374.63" font-family="Times New Roman,serif" font-size="14.00">0.00</text>
</g>
<!-- BB14&#45;&gt;BB15 -->
<g id="edge22" class="edge">
<title>BB14&#45;&gt;BB15</title>
<path fill="none" stroke="black" d="M147.84,-448.25C147.84,-440.28 147.84,-431.39 147.84,-422.9"/>
<polygon fill="black" stroke="black" points="151.34,-422.83 147.84,-412.83 144.34,-422.83 151.34,-422.83"/>
</g>
<!-- BB21 -->
<g id="node22" class="node">
<title>BB21</title>
<ellipse fill="none" stroke="black" cx="259.84" cy="-385.83" rx="52.15" ry="26.74"/>
<text text-anchor="middle" x="259.84" y="-389.63" font-family="Times New Roman,serif" font-size="14.00">[10d..111)</text>
<text text-anchor="middle" x="259.84" y="-374.63" font-family="Times New Roman,serif" font-size="14.00">0.00</text>
</g>
<!-- BB14&#45;&gt;BB21 -->
<g id="edge21" class="edge">
<title>BB14&#45;&gt;BB21</title>
<path fill="none" stroke="black" d="M174.1,-454C188.86,-442.44 207.49,-427.84 223.62,-415.21"/>
<polygon fill="black" stroke="black" points="226.07,-417.73 231.79,-408.81 221.76,-412.22 226.07,-417.73"/>
</g>
<!-- BB20 -->
<g id="node21" class="node">
<title>BB20</title>
<ellipse fill="none" stroke="black" cx="207.84" cy="-296.09" rx="52.15" ry="26.74"/>
<text text-anchor="middle" x="207.84" y="-299.89" font-family="Times New Roman,serif" font-size="14.00">[108..10d)</text>
<text text-anchor="middle" x="207.84" y="-284.89" font-family="Times New Roman,serif" font-size="14.00">0.01</text>
</g>
<!-- BB15&#45;&gt;BB20 -->
<g id="edge23" class="edge">
<title>BB15&#45;&gt;BB20</title>
<path fill="none" stroke="black" d="M164.24,-360.86C170.74,-351.34 178.33,-340.24 185.34,-330"/>
<polygon fill="black" stroke="black" points="188.29,-331.88 191.05,-321.65 182.51,-327.93 188.29,-331.88"/>
</g>
<!-- BB16 -->
<g id="node17" class="node">
<title>BB16</title>
<ellipse fill="none" stroke="black" cx="243.84" cy="-206.35" rx="41.94" ry="26.74"/>
<text text-anchor="middle" x="243.84" y="-210.15" font-family="Times New Roman,serif" font-size="14.00">[ca..e2)</text>
<text text-anchor="middle" x="243.84" y="-195.15" font-family="Times New Roman,serif" font-size="14.00">0.01</text>
</g>
<!-- BB18 -->
<g id="node19" class="node">
<title>BB18</title>
<ellipse fill="none" stroke="black" cx="254.84" cy="-116.61" rx="45.92" ry="26.74"/>
<text text-anchor="middle" x="254.84" y="-120.41" font-family="Times New Roman,serif" font-size="14.00">[fd..102)</text>
<text text-anchor="middle" x="254.84" y="-105.41" font-family="Times New Roman,serif" font-size="14.00">0.47</text>
</g>
<!-- BB16&#45;&gt;BB18 -->
<g id="edge24" class="edge">
<title>BB16&#45;&gt;BB18</title>
<path fill="none" stroke="black" d="M247.08,-179.5C248.1,-171.36 249.25,-162.22 250.34,-153.51"/>
<polygon fill="black" stroke="black" points="253.81,-153.94 251.58,-143.58 246.87,-153.07 253.81,-153.94"/>
</g>
<!-- BB17 -->
<g id="node18" class="node">
<title>BB17</title>
<ellipse fill="none" stroke="black" cx="264.84" cy="-26.87" rx="41.02" ry="26.74"/>
<text text-anchor="middle" x="264.84" y="-30.67" font-family="Times New Roman,serif" font-size="14.00">[e2..fd)</text>
<text text-anchor="middle" x="264.84" y="-15.67" font-family="Times New Roman,serif" font-size="14.00">0.47</text>
</g>
<!-- BB17&#45;&gt;BB18 -->
<g id="edge25" class="edge">
<title>BB17&#45;&gt;BB18</title>
<path fill="none" stroke="black" d="M268.11,-53.8C267.68,-62.07 266.76,-71.36 265.52,-80.18"/>
<polygon fill="black" stroke="black" points="262.03,-79.81 263.92,-90.23 268.95,-80.91 262.03,-79.81"/>
</g>
<!-- BB18&#45;&gt;BB17 -->
<g id="edge26" class="edge">
<title>BB18&#45;&gt;BB17</title>
<path fill="none" stroke="black" d="M251.57,-89.76C252,-81.48 252.92,-72.15 254.16,-63.31"/>
<polygon fill="black" stroke="black" points="257.65,-63.66 255.76,-53.23 250.74,-62.56 257.65,-63.66"/>
</g>
<!-- BB19 -->
<g id="node20" class="node">
<title>BB19</title>
<ellipse fill="none" stroke="black" cx="153.84" cy="-26.87" rx="52.15" ry="26.74"/>
<text text-anchor="middle" x="153.84" y="-30.67" font-family="Times New Roman,serif" font-size="14.00">[102..108)</text>
<text text-anchor="middle" x="153.84" y="-15.67" font-family="Times New Roman,serif" font-size="14.00">0.01</text>
</g>
<!-- BB18&#45;&gt;BB19 -->
<g id="edge27" class="edge">
<title>BB18&#45;&gt;BB19</title>
<path fill="none" stroke="black" d="M229.87,-93.92C217.18,-82.89 201.56,-69.32 187.79,-57.36"/>
<polygon fill="black" stroke="black" points="189.77,-54.45 179.93,-50.53 185.18,-59.73 189.77,-54.45"/>
</g>
<!-- BB19&#45;&gt;BB20 -->
<g id="edge28" class="edge">
<title>BB19&#45;&gt;BB20</title>
<path fill="none" stroke="black" d="M158.35,-53.89C165.22,-92.95 178.97,-169.02 192.84,-233.22 194.69,-241.76 196.82,-250.93 198.89,-259.52"/>
<polygon fill="black" stroke="black" points="195.5,-260.38 201.27,-269.27 202.3,-258.72 195.5,-260.38"/>
</g>
<!-- BB20&#45;&gt;BB16 -->
<g id="edge29" class="edge">
<title>BB20&#45;&gt;BB16</title>
<path fill="none" stroke="black" d="M218.25,-269.71C221.8,-261.07 225.82,-251.26 229.61,-242.02"/>
<polygon fill="black" stroke="black" points="232.89,-243.25 233.45,-232.67 226.42,-240.59 232.89,-243.25"/>
</g>
<!-- BB20&#45;&gt;BB21 -->
<g id="edge30" class="edge">
<title>BB20&#45;&gt;BB21</title>
<path fill="none" stroke="black" d="M222.64,-322.06C228.02,-331.14 234.2,-341.56 239.95,-351.27"/>
<polygon fill="black" stroke="black" points="236.97,-353.1 245.08,-359.92 242.99,-349.54 236.97,-353.1"/>
</g>
<!-- BB21&#45;&gt;BB22 -->
<g id="edge31" class="edge">
<title>BB21&#45;&gt;BB22</title>
<path fill="none" stroke="black" d="M296.24,-405.42C344.55,-433 423.84,-489.63 423.84,-564.31 423.84,-835.53 423.84,-835.53 423.84,-835.53 423.84,-884.26 423.84,-940.51 423.84,-976.4"/>
<polygon fill="black" stroke="black" points="420.34,-976.85 423.84,-986.85 427.34,-976.85 420.34,-976.85"/>
</g>
<!-- BB22&#45;&gt;BB1 -->
<g id="edge32" class="edge">
<title>BB22&#45;&gt;BB1</title>
<path fill="none" stroke="black" d="M404.62,-988.57C396.82,-978.65 387.71,-967.06 379.43,-956.54"/>
<polygon fill="black" stroke="black" points="381.94,-954.07 373.01,-948.37 376.44,-958.4 381.94,-954.07"/>
</g>
<!-- BB23 -->
<g id="node24" class="node">
<title>BB23</title>
<ellipse fill="none" stroke="black" cx="503.84" cy="-924.27" rx="51.74" ry="26.74"/>
<text text-anchor="middle" x="503.84" y="-928.07" font-family="Times New Roman,serif" font-size="14.00">[118..11a)</text>
<text text-anchor="middle" x="503.84" y="-913.07" font-family="Times New Roman,serif" font-size="14.00">0.00</text>
</g>
<!-- BB22&#45;&gt;BB23 -->
<g id="edge33" class="edge">
<title>BB22&#45;&gt;BB23</title>
<path fill="none" stroke="black" d="M445.28,-989.5C454.52,-979.37 465.45,-967.38 475.35,-956.52"/>
<polygon fill="black" stroke="black" points="478.19,-958.6 482.34,-948.85 473.02,-953.88 478.19,-958.6"/>
</g>
</g>
</svg>
