<?xml version="1.0" encoding="UTF-8" standalone="no"?>
<!DOCTYPE svg PUBLIC "-//W3C//DTD SVG 1.1//EN"
 "http://www.w3.org/Graphics/SVG/1.1/DTD/svg11.dtd">
<!-- Generated by graphviz version 2.47.0 (20210316.0004)
 -->
<!-- Title: G Pages: 1 -->
<svg width="229pt" height="421pt"
 viewBox="0.00 0.00 229.15 420.70" xmlns="http://www.w3.org/2000/svg" xmlns:xlink="http://www.w3.org/1999/xlink">
<g id="graph0" class="graph" transform="scale(1 1) rotate(0) translate(4 416.7)">
<title>G</title>
<polygon fill="white" stroke="transparent" points="-4,4 -4,-416.7 225.15,-416.7 225.15,4 -4,4"/>
<!-- BB0 -->
<g id="node1" class="node">
<title>BB0</title>
<ellipse fill="none" stroke="black" cx="75.72" cy="-385.83" rx="37.45" ry="26.74"/>
<text text-anchor="middle" x="75.72" y="-389.63" font-family="Times New Roman,serif" font-size="14.00">[0..10)</text>
<text text-anchor="middle" x="75.72" y="-374.63" font-family="Times New Roman,serif" font-size="14.00">0.00</text>
</g>
<!-- BB6 -->
<g id="node7" class="node">
<title>BB6</title>
<ellipse fill="none" stroke="black" cx="75.72" cy="-296.09" rx="41.94" ry="26.74"/>
<text text-anchor="middle" x="75.72" y="-299.89" font-family="Times New Roman,serif" font-size="14.00">[6e..72)</text>
<text text-anchor="middle" x="75.72" y="-284.89" font-family="Times New Roman,serif" font-size="14.00">0.15</text>
</g>
<!-- BB0&#45;&gt;BB6 -->
<g id="edge1" class="edge">
<title>BB0&#45;&gt;BB6</title>
<path fill="none" stroke="black" d="M75.72,-358.51C75.72,-350.54 75.72,-341.65 75.72,-333.16"/>
<polygon fill="black" stroke="black" points="79.22,-333.09 75.72,-323.09 72.22,-333.09 79.22,-333.09"/>
</g>
<!-- BB1 -->
<g id="node2" class="node">
<title>BB1</title>
<ellipse fill="none" stroke="black" cx="75.72" cy="-206.35" rx="42.35" ry="26.74"/>
<text text-anchor="middle" x="75.72" y="-210.15" font-family="Times New Roman,serif" font-size="14.00">[10..23)</text>
<text text-anchor="middle" x="75.72" y="-195.15" font-family="Times New Roman,serif" font-size="14.00">0.15</text>
</g>
<!-- BB2 -->
<g id="node3" class="node">
<title>BB2</title>
<ellipse fill="none" stroke="black" cx="75.72" cy="-116.61" rx="42.35" ry="26.74"/>
<text text-anchor="middle" x="75.72" y="-120.41" font-family="Times New Roman,serif" font-size="14.00">[23..55)</text>
<text text-anchor="middle" x="75.72" y="-105.41" font-family="Times New Roman,serif" font-size="14.00">0.07</text>
</g>
<!-- BB1&#45;&gt;BB2 -->
<g id="edge3" class="edge">
<title>BB1&#45;&gt;BB2</title>
<path fill="none" stroke="black" d="M75.72,-179.03C75.72,-171.06 75.72,-162.17 75.72,-153.68"/>
<polygon fill="black" stroke="black" points="79.22,-153.61 75.72,-143.61 72.22,-153.61 79.22,-153.61"/>
</g>
<!-- BB4 -->
<g id="node5" class="node">
<title>BB4</title>
<ellipse fill="none" stroke="black" cx="178.72" cy="-116.61" rx="42.35" ry="26.74"/>
<text text-anchor="middle" x="178.72" y="-120.41" font-family="Times New Roman,serif" font-size="14.00">[60..65)</text>
<text text-anchor="middle" x="178.72" y="-105.41" font-family="Times New Roman,serif" font-size="14.00">0.31</text>
</g>
<!-- BB1&#45;&gt;BB4 -->
<g id="edge2" class="edge">
<title>BB1&#45;&gt;BB4</title>
<path fill="none" stroke="black" d="M100.39,-184.33C114.05,-172.7 131.2,-158.09 145.97,-145.51"/>
<polygon fill="black" stroke="black" points="148.55,-147.91 153.89,-138.76 144.01,-142.58 148.55,-147.91"/>
</g>
<!-- BB2&#45;&gt;BB4 -->
<g id="edge4" class="edge">
<title>BB2&#45;&gt;BB4</title>
<path fill="none" stroke="black" d="M118.37,-116.61C120.98,-116.61 123.59,-116.61 126.21,-116.61"/>
<polygon fill="black" stroke="black" points="126.28,-120.11 136.28,-116.61 126.28,-113.11 126.28,-120.11"/>
</g>
<!-- BB3 -->
<g id="node4" class="node">
<title>BB3</title>
<ellipse fill="none" stroke="black" cx="178.72" cy="-26.87" rx="42.35" ry="26.74"/>
<text text-anchor="middle" x="178.72" y="-30.67" font-family="Times New Roman,serif" font-size="14.00">[55..60)</text>
<text text-anchor="middle" x="178.72" y="-15.67" font-family="Times New Roman,serif" font-size="14.00">0.15</text>
</g>
<!-- BB3&#45;&gt;BB4 -->
<g id="edge5" class="edge">
<title>BB3&#45;&gt;BB4</title>
<path fill="none" stroke="black" d="M184.92,-53.54C185.44,-61.73 185.59,-70.96 185.37,-79.74"/>
<polygon fill="black" stroke="black" points="181.87,-79.62 184.94,-89.76 188.86,-79.92 181.87,-79.62"/>
</g>
<!-- BB4&#45;&gt;BB3 -->
<g id="edge6" class="edge">
<title>BB4&#45;&gt;BB3</title>
<path fill="none" stroke="black" d="M172.5,-89.76C171.99,-81.55 171.85,-72.32 172.08,-63.54"/>
<polygon fill="black" stroke="black" points="175.57,-63.68 172.51,-53.54 168.58,-63.37 175.57,-63.68"/>
</g>
<!-- BB5 -->
<g id="node6" class="node">
<title>BB5</title>
<ellipse fill="none" stroke="black" cx="41.72" cy="-26.87" rx="41.94" ry="26.74"/>
<text text-anchor="middle" x="41.72" y="-30.67" font-family="Times New Roman,serif" font-size="14.00">[65..6e)</text>
<text text-anchor="middle" x="41.72" y="-15.67" font-family="Times New Roman,serif" font-size="14.00">0.15</text>
</g>
<!-- BB4&#45;&gt;BB5 -->
<g id="edge7" class="edge">
<title>BB4&#45;&gt;BB5</title>
<path fill="none" stroke="black" d="M149.67,-97C129.14,-83.86 101.45,-66.12 79.25,-51.91"/>
<polygon fill="black" stroke="black" points="81.04,-48.9 70.73,-46.45 77.27,-54.79 81.04,-48.9"/>
</g>
<!-- BB5&#45;&gt;BB6 -->
<g id="edge8" class="edge">
<title>BB5&#45;&gt;BB6</title>
<path fill="none" stroke="black" d="M32.96,-53.41C20.79,-93.15 2.6,-171.61 24.72,-233.22 29.02,-245.2 36.75,-256.51 44.91,-266.1"/>
<polygon fill="black" stroke="black" points="42.51,-268.66 51.81,-273.73 47.7,-263.97 42.51,-268.66"/>
</g>
<!-- BB6&#45;&gt;BB1 -->
<g id="edge9" class="edge">
<title>BB6&#45;&gt;BB1</title>
<path fill="none" stroke="black" d="M75.72,-268.77C75.72,-260.8 75.72,-251.91 75.72,-243.42"/>
<polygon fill="black" stroke="black" points="79.22,-243.35 75.72,-233.35 72.22,-243.35 79.22,-243.35"/>
</g>
<!-- BB7 -->
<g id="node8" class="node">
<title>BB7</title>
<ellipse fill="none" stroke="black" cx="178.72" cy="-206.35" rx="42.35" ry="26.74"/>
<text text-anchor="middle" x="178.72" y="-210.15" font-family="Times New Roman,serif" font-size="14.00">[72..73)</text>
<text text-anchor="middle" x="178.72" y="-195.15" font-family="Times New Roman,serif" font-size="14.00">0.00</text>
</g>
<!-- BB6&#45;&gt;BB7 -->
<g id="edge10" class="edge">
<title>BB6&#45;&gt;BB7</title>
<path fill="none" stroke="black" d="M100.13,-274.3C113.88,-262.58 131.24,-247.8 146.14,-235.1"/>
<polygon fill="black" stroke="black" points="148.79,-237.45 154.13,-228.3 144.25,-232.12 148.79,-237.45"/>
</g>
</g>
</svg>
