<?xml version="1.0" encoding="UTF-8" standalone="no"?>
<!DOCTYPE svg PUBLIC "-//W3C//DTD SVG 1.1//EN"
 "http://www.w3.org/Graphics/SVG/1.1/DTD/svg11.dtd">
<!-- Generated by graphviz version 2.47.0 (20210316.0004)
 -->
<!-- Title: G Pages: 1 -->
<svg width="629pt" height="971pt"
 viewBox="0.00 0.00 628.72 970.58" xmlns="http://www.w3.org/2000/svg" xmlns:xlink="http://www.w3.org/1999/xlink">
<g id="graph0" class="graph" transform="scale(1 1) rotate(0) translate(4 966.58)">
<title>G</title>
<polygon fill="white" stroke="transparent" points="-4,4 -4,-966.58 624.72,-966.58 624.72,4 -4,4"/>
<!-- BB0 -->
<g id="node1" class="node">
<title>BB0</title>
<ellipse fill="none" stroke="black" cx="286.36" cy="-925.1" rx="105.22" ry="37.45"/>
<text text-anchor="middle" x="286.36" y="-936.4" font-family="Times New Roman,serif" font-size="14.00">[0..87)</text>
<text text-anchor="middle" x="286.36" y="-921.4" font-family="Times New Roman,serif" font-size="14.00">Normalized Count: 1.00</text>
<text text-anchor="middle" x="286.36" y="-906.4" font-family="Times New Roman,serif" font-size="14.00">Samples weight: 0.00</text>
</g>
<!-- BB9 -->
<g id="node10" class="node">
<title>BB9</title>
<ellipse fill="none" stroke="black" cx="286.36" cy="-814.15" rx="105.22" ry="37.45"/>
<text text-anchor="middle" x="286.36" y="-825.45" font-family="Times New Roman,serif" font-size="14.00">[1d3..1d9)</text>
<text text-anchor="middle" x="286.36" y="-810.45" font-family="Times New Roman,serif" font-size="14.00">Normalized Count: 1.50</text>
<text text-anchor="middle" x="286.36" y="-795.45" font-family="Times New Roman,serif" font-size="14.00">Samples weight: 0.00</text>
</g>
<!-- BB0&#45;&gt;BB9 -->
<g id="edge1" class="edge">
<title>BB0&#45;&gt;BB9</title>
<path fill="none" stroke="black" d="M286.36,-887.52C286.36,-879.35 286.36,-870.57 286.36,-862.04"/>
<polygon fill="black" stroke="black" points="289.86,-861.82 286.36,-851.82 282.86,-861.82 289.86,-861.82"/>
</g>
<!-- BB1 -->
<g id="node2" class="node">
<title>BB1</title>
<ellipse fill="none" stroke="black" cx="288.36" cy="-592.24" rx="105.22" ry="37.45"/>
<text text-anchor="middle" x="288.36" y="-603.54" font-family="Times New Roman,serif" font-size="14.00">[87..a7)</text>
<text text-anchor="middle" x="288.36" y="-588.54" font-family="Times New Roman,serif" font-size="14.00">Normalized Count: 0.50</text>
<text text-anchor="middle" x="288.36" y="-573.54" font-family="Times New Roman,serif" font-size="14.00">Samples weight: 0.00</text>
</g>
<!-- BB7 -->
<g id="node8" class="node">
<title>BB7</title>
<ellipse fill="none" stroke="black" cx="315.36" cy="-481.29" rx="110.12" ry="37.45"/>
<text text-anchor="middle" x="315.36" y="-492.59" font-family="Times New Roman,serif" font-size="14.00">[19e..1ac)</text>
<text text-anchor="middle" x="315.36" y="-477.59" font-family="Times New Roman,serif" font-size="14.00">Normalized Count: 16.00</text>
<text text-anchor="middle" x="315.36" y="-462.59" font-family="Times New Roman,serif" font-size="14.00">Samples weight: 0.03</text>
</g>
<!-- BB1&#45;&gt;BB7 -->
<g id="edge2" class="edge">
<title>BB1&#45;&gt;BB7</title>
<path fill="none" stroke="black" d="M297.42,-554.66C299.47,-546.4 301.67,-537.51 303.81,-528.9"/>
<polygon fill="black" stroke="black" points="307.26,-529.51 306.27,-518.96 300.47,-527.83 307.26,-529.51"/>
</g>
<!-- BB2 -->
<g id="node3" class="node">
<title>BB2</title>
<ellipse fill="none" stroke="black" cx="339.36" cy="-370.34" rx="110.12" ry="37.45"/>
<text text-anchor="middle" x="339.36" y="-381.64" font-family="Times New Roman,serif" font-size="14.00">[a7..bd)</text>
<text text-anchor="middle" x="339.36" y="-366.64" font-family="Times New Roman,serif" font-size="14.00">Normalized Count: 15.50</text>
<text text-anchor="middle" x="339.36" y="-351.64" font-family="Times New Roman,serif" font-size="14.00">Samples weight: 0.03</text>
</g>
<!-- BB3 -->
<g id="node4" class="node">
<title>BB3</title>
<ellipse fill="none" stroke="black" cx="327.36" cy="-259.38" rx="115.02" ry="37.45"/>
<text text-anchor="middle" x="327.36" y="-270.68" font-family="Times New Roman,serif" font-size="14.00">[bd..154)</text>
<text text-anchor="middle" x="327.36" y="-255.68" font-family="Times New Roman,serif" font-size="14.00">Normalized Count: 540.00</text>
<text text-anchor="middle" x="327.36" y="-240.68" font-family="Times New Roman,serif" font-size="14.00">Samples weight: 0.89</text>
</g>
<!-- BB2&#45;&gt;BB3 -->
<g id="edge3" class="edge">
<title>BB2&#45;&gt;BB3</title>
<path fill="none" stroke="black" d="M335.33,-332.75C334.43,-324.58 333.46,-315.8 332.52,-307.27"/>
<polygon fill="black" stroke="black" points="335.97,-306.61 331.4,-297.06 329.01,-307.38 335.97,-306.61"/>
</g>
<!-- BB3&#45;&gt;BB3 -->
<g id="edge4" class="edge">
<title>BB3&#45;&gt;BB3</title>
<path fill="none" stroke="black" d="M424.98,-279.34C445.67,-277.32 460.62,-270.66 460.62,-259.38 460.62,-250.04 450.37,-243.87 435.09,-240.88"/>
<polygon fill="black" stroke="black" points="435.37,-237.38 424.98,-239.42 434.38,-244.31 435.37,-237.38"/>
</g>
<!-- BB4 -->
<g id="node5" class="node">
<title>BB4</title>
<ellipse fill="none" stroke="black" cx="327.36" cy="-148.43" rx="110.12" ry="37.45"/>
<text text-anchor="middle" x="327.36" y="-159.73" font-family="Times New Roman,serif" font-size="14.00">[154..160)</text>
<text text-anchor="middle" x="327.36" y="-144.73" font-family="Times New Roman,serif" font-size="14.00">Normalized Count: 15.50</text>
<text text-anchor="middle" x="327.36" y="-129.73" font-family="Times New Roman,serif" font-size="14.00">Samples weight: 0.03</text>
</g>
<!-- BB3&#45;&gt;BB4 -->
<g id="edge5" class="edge">
<title>BB3&#45;&gt;BB4</title>
<path fill="none" stroke="black" d="M327.36,-221.8C327.36,-213.63 327.36,-204.85 327.36,-196.32"/>
<polygon fill="black" stroke="black" points="330.86,-196.1 327.36,-186.1 323.86,-196.1 330.86,-196.1"/>
</g>
<!-- BB5 -->
<g id="node6" class="node">
<title>BB5</title>
<ellipse fill="none" stroke="black" cx="254.36" cy="-37.48" rx="105.22" ry="37.45"/>
<text text-anchor="middle" x="254.36" y="-48.78" font-family="Times New Roman,serif" font-size="14.00">[160..17a)</text>
<text text-anchor="middle" x="254.36" y="-33.78" font-family="Times New Roman,serif" font-size="14.00">Normalized Count: 0.00</text>
<text text-anchor="middle" x="254.36" y="-18.78" font-family="Times New Roman,serif" font-size="14.00">Samples weight: 0.00</text>
</g>
<!-- BB4&#45;&gt;BB5 -->
<g id="edge7" class="edge">
<title>BB4&#45;&gt;BB5</title>
<path fill="none" stroke="black" d="M303.46,-111.75C297.22,-102.44 290.42,-92.29 283.92,-82.6"/>
<polygon fill="black" stroke="black" points="286.79,-80.59 278.32,-74.23 280.97,-84.49 286.79,-80.59"/>
</g>
<!-- BB6 -->
<g id="node7" class="node">
<title>BB6</title>
<ellipse fill="none" stroke="black" cx="488.36" cy="-37.48" rx="110.12" ry="37.45"/>
<text text-anchor="middle" x="488.36" y="-48.78" font-family="Times New Roman,serif" font-size="14.00">[17a..19e)</text>
<text text-anchor="middle" x="488.36" y="-33.78" font-family="Times New Roman,serif" font-size="14.00">Normalized Count: 15.50</text>
<text text-anchor="middle" x="488.36" y="-18.78" font-family="Times New Roman,serif" font-size="14.00">Samples weight: 0.03</text>
</g>
<!-- BB4&#45;&gt;BB6 -->
<g id="edge6" class="edge">
<title>BB4&#45;&gt;BB6</title>
<path fill="none" stroke="black" d="M376.1,-114.44C393.44,-102.71 413.12,-89.39 431.11,-77.22"/>
<polygon fill="black" stroke="black" points="433.46,-79.85 439.78,-71.35 429.54,-74.06 433.46,-79.85"/>
</g>
<!-- BB5&#45;&gt;BB6 -->
<g id="edge8" class="edge">
<title>BB5&#45;&gt;BB6</title>
<path fill="none" stroke="black" d="M359.93,-37.48C362.57,-37.48 365.2,-37.48 367.83,-37.48"/>
<polygon fill="black" stroke="black" points="367.99,-40.98 377.99,-37.48 367.99,-33.98 367.99,-40.98"/>
</g>
<!-- BB6&#45;&gt;BB7 -->
<g id="edge9" class="edge">
<title>BB6&#45;&gt;BB7</title>
<path fill="none" stroke="black" d="M496.39,-75.13C509.78,-146.24 528.76,-304.96 458.36,-407.81 445.49,-426.62 426.22,-440.81 405.96,-451.41"/>
<polygon fill="black" stroke="black" points="404.33,-448.32 396.92,-455.89 407.44,-454.59 404.33,-448.32"/>
</g>
<!-- BB7&#45;&gt;BB2 -->
<g id="edge10" class="edge">
<title>BB7&#45;&gt;BB2</title>
<path fill="none" stroke="black" d="M323.42,-443.71C325.24,-435.44 327.19,-426.56 329.09,-417.95"/>
<polygon fill="black" stroke="black" points="332.55,-418.53 331.28,-408.01 325.71,-417.02 332.55,-418.53"/>
</g>
<!-- BB8 -->
<g id="node9" class="node">
<title>BB8</title>
<ellipse fill="none" stroke="black" cx="105.36" cy="-370.34" rx="105.22" ry="37.45"/>
<text text-anchor="middle" x="105.36" y="-381.64" font-family="Times New Roman,serif" font-size="14.00">[1ac..1d3)</text>
<text text-anchor="middle" x="105.36" y="-366.64" font-family="Times New Roman,serif" font-size="14.00">Normalized Count: 0.50</text>
<text text-anchor="middle" x="105.36" y="-351.64" font-family="Times New Roman,serif" font-size="14.00">Samples weight: 0.00</text>
</g>
<!-- BB7&#45;&gt;BB8 -->
<g id="edge11" class="edge">
<title>BB7&#45;&gt;BB8</title>
<path fill="none" stroke="black" d="M256.02,-449.51C230.09,-436.05 199.54,-420.2 172.75,-406.3"/>
<polygon fill="black" stroke="black" points="174.31,-403.17 163.82,-401.67 171.09,-409.38 174.31,-403.17"/>
</g>
<!-- BB8&#45;&gt;BB9 -->
<g id="edge12" class="edge">
<title>BB8&#45;&gt;BB9</title>
<path fill="none" stroke="black" d="M102.81,-407.92C99.72,-478.57 102,-636.03 172.36,-740.67 182.63,-755.94 197.31,-768.66 212.74,-778.96"/>
<polygon fill="black" stroke="black" points="211.05,-782.03 221.37,-784.43 214.8,-776.12 211.05,-782.03"/>
</g>
<!-- BB10 -->
<g id="node11" class="node">
<title>BB10</title>
<ellipse fill="none" stroke="black" cx="286.36" cy="-703.2" rx="105.22" ry="37.45"/>
<text text-anchor="middle" x="286.36" y="-714.5" font-family="Times New Roman,serif" font-size="14.00">[1d9..1e4)</text>
<text text-anchor="middle" x="286.36" y="-699.5" font-family="Times New Roman,serif" font-size="14.00">Normalized Count: 0.50</text>
<text text-anchor="middle" x="286.36" y="-684.5" font-family="Times New Roman,serif" font-size="14.00">Samples weight: 0.00</text>
</g>
<!-- BB9&#45;&gt;BB10 -->
<g id="edge14" class="edge">
<title>BB9&#45;&gt;BB10</title>
<path fill="none" stroke="black" d="M286.36,-776.57C286.36,-768.39 286.36,-759.61 286.36,-751.09"/>
<polygon fill="black" stroke="black" points="289.86,-750.87 286.36,-740.87 282.86,-750.87 289.86,-750.87"/>
</g>
<!-- BB11 -->
<g id="node12" class="node">
<title>BB11</title>
<ellipse fill="none" stroke="black" cx="515.36" cy="-703.2" rx="105.22" ry="37.45"/>
<text text-anchor="middle" x="515.36" y="-714.5" font-family="Times New Roman,serif" font-size="14.00">[1e4..1e5)</text>
<text text-anchor="middle" x="515.36" y="-699.5" font-family="Times New Roman,serif" font-size="14.00">Normalized Count: 1.00</text>
<text text-anchor="middle" x="515.36" y="-684.5" font-family="Times New Roman,serif" font-size="14.00">Samples weight: 0.00</text>
</g>
<!-- BB9&#45;&gt;BB11 -->
<g id="edge13" class="edge">
<title>BB9&#45;&gt;BB11</title>
<path fill="none" stroke="black" d="M348.33,-783.67C377.86,-769.62 413.34,-752.73 443.99,-738.15"/>
<polygon fill="black" stroke="black" points="445.81,-741.16 453.34,-733.7 442.8,-734.84 445.81,-741.16"/>
</g>
<!-- BB10&#45;&gt;BB1 -->
<g id="edge15" class="edge">
<title>BB10&#45;&gt;BB1</title>
<path fill="none" stroke="black" d="M287.03,-665.61C287.18,-657.44 287.34,-648.66 287.5,-640.13"/>
<polygon fill="black" stroke="black" points="291,-639.98 287.69,-629.92 284,-639.85 291,-639.98"/>
</g>
<!-- BB10&#45;&gt;BB11 -->
<g id="edge16" class="edge">
<title>BB10&#45;&gt;BB11</title>
<path fill="none" stroke="black" d="M391.91,-703.2C394.52,-703.2 397.12,-703.2 399.72,-703.2"/>
<polygon fill="black" stroke="black" points="399.76,-706.7 409.76,-703.2 399.76,-699.7 399.76,-706.7"/>
</g>
</g>
</svg>
