<?xml version="1.0" encoding="UTF-8" standalone="no"?>
<!DOCTYPE svg PUBLIC "-//W3C//DTD SVG 1.1//EN"
 "http://www.w3.org/Graphics/SVG/1.1/DTD/svg11.dtd">
<!-- Generated by graphviz version 2.47.0 (20210316.0004)
 -->
<!-- Title: G Pages: 1 -->
<svg width="624pt" height="1161pt"
 viewBox="0.00 0.00 624.30 1161.50" xmlns="http://www.w3.org/2000/svg" xmlns:xlink="http://www.w3.org/1999/xlink">
<g id="graph0" class="graph" transform="scale(1 1) rotate(0) translate(4 1157.5)">
<title>G</title>
<polygon fill="white" stroke="transparent" points="-4,4 -4,-1157.5 620.3,-1157.5 620.3,4 -4,4"/>
<!-- BB0 -->
<g id="node1" class="node">
<title>BB0</title>
<ellipse fill="none" stroke="black" cx="284.65" cy="-1105.42" rx="104.8" ry="48.17"/>
<text text-anchor="middle" x="284.65" y="-1124.22" font-family="Times New Roman,serif" font-size="14.00">[0..90)</text>
<text text-anchor="middle" x="284.65" y="-1109.22" font-family="Times New Roman,serif" font-size="14.00">Count: 0</text>
<text text-anchor="middle" x="284.65" y="-1094.22" font-family="Times New Roman,serif" font-size="14.00">Normalized count: NaN</text>
<text text-anchor="middle" x="284.65" y="-1079.22" font-family="Times New Roman,serif" font-size="14.00">Samples weight: 0.00</text>
</g>
<!-- BB9 -->
<g id="node10" class="node">
<title>BB9</title>
<ellipse fill="none" stroke="black" cx="284.65" cy="-973.25" rx="104.8" ry="48.17"/>
<text text-anchor="middle" x="284.65" y="-992.05" font-family="Times New Roman,serif" font-size="14.00">[1e7..1ec)</text>
<text text-anchor="middle" x="284.65" y="-977.05" font-family="Times New Roman,serif" font-size="14.00">Count: 0</text>
<text text-anchor="middle" x="284.65" y="-962.05" font-family="Times New Roman,serif" font-size="14.00">Normalized count: NaN</text>
<text text-anchor="middle" x="284.65" y="-947.05" font-family="Times New Roman,serif" font-size="14.00">Samples weight: 0.00</text>
</g>
<!-- BB0&#45;&gt;BB9 -->
<g id="edge1" class="edge">
<title>BB0&#45;&gt;BB9</title>
<path fill="none" stroke="black" d="M284.65,-1057.05C284.65,-1048.79 284.65,-1040.1 284.65,-1031.6"/>
<polygon fill="black" stroke="black" points="288.15,-1031.36 284.65,-1021.36 281.15,-1031.36 288.15,-1031.36"/>
</g>
<!-- BB1 -->
<g id="node2" class="node">
<title>BB1</title>
<ellipse fill="none" stroke="black" cx="288.65" cy="-708.92" rx="104.8" ry="48.17"/>
<text text-anchor="middle" x="288.65" y="-727.72" font-family="Times New Roman,serif" font-size="14.00">[90..b8)</text>
<text text-anchor="middle" x="288.65" y="-712.72" font-family="Times New Roman,serif" font-size="14.00">Count: 0</text>
<text text-anchor="middle" x="288.65" y="-697.72" font-family="Times New Roman,serif" font-size="14.00">Normalized count: NaN</text>
<text text-anchor="middle" x="288.65" y="-682.72" font-family="Times New Roman,serif" font-size="14.00">Samples weight: 0.00</text>
</g>
<!-- BB7 -->
<g id="node8" class="node">
<title>BB7</title>
<ellipse fill="none" stroke="black" cx="316.65" cy="-576.75" rx="113.69" ry="48.17"/>
<text text-anchor="middle" x="316.65" y="-595.55" font-family="Times New Roman,serif" font-size="14.00">[1b1..1bf)</text>
<text text-anchor="middle" x="316.65" y="-580.55" font-family="Times New Roman,serif" font-size="14.00">Count: 36</text>
<text text-anchor="middle" x="316.65" y="-565.55" font-family="Times New Roman,serif" font-size="14.00">Normalized count: Infinity</text>
<text text-anchor="middle" x="316.65" y="-550.55" font-family="Times New Roman,serif" font-size="14.00">Samples weight: 0.00</text>
</g>
<!-- BB1&#45;&gt;BB7 -->
<g id="edge2" class="edge">
<title>BB1&#45;&gt;BB7</title>
<path fill="none" stroke="black" d="M298.76,-660.92C300.6,-652.35 302.55,-643.33 304.44,-634.51"/>
<polygon fill="black" stroke="black" points="307.88,-635.19 306.56,-624.67 301.03,-633.71 307.88,-635.19"/>
</g>
<!-- BB2 -->
<g id="node3" class="node">
<title>BB2</title>
<ellipse fill="none" stroke="black" cx="340.65" cy="-444.58" rx="113.69" ry="48.17"/>
<text text-anchor="middle" x="340.65" y="-463.38" font-family="Times New Roman,serif" font-size="14.00">[b8..ce)</text>
<text text-anchor="middle" x="340.65" y="-448.38" font-family="Times New Roman,serif" font-size="14.00">Count: 19</text>
<text text-anchor="middle" x="340.65" y="-433.38" font-family="Times New Roman,serif" font-size="14.00">Normalized count: Infinity</text>
<text text-anchor="middle" x="340.65" y="-418.38" font-family="Times New Roman,serif" font-size="14.00">Samples weight: 0.00</text>
</g>
<!-- BB3 -->
<g id="node4" class="node">
<title>BB3</title>
<ellipse fill="none" stroke="black" cx="331.65" cy="-312.42" rx="113.69" ry="48.17"/>
<text text-anchor="middle" x="331.65" y="-331.22" font-family="Times New Roman,serif" font-size="14.00">[ce..167)</text>
<text text-anchor="middle" x="331.65" y="-316.22" font-family="Times New Roman,serif" font-size="14.00">Count: 17192</text>
<text text-anchor="middle" x="331.65" y="-301.22" font-family="Times New Roman,serif" font-size="14.00">Normalized count: Infinity</text>
<text text-anchor="middle" x="331.65" y="-286.22" font-family="Times New Roman,serif" font-size="14.00">Samples weight: 0.99</text>
</g>
<!-- BB2&#45;&gt;BB3 -->
<g id="edge3" class="edge">
<title>BB2&#45;&gt;BB3</title>
<path fill="none" stroke="black" d="M337.38,-396.22C336.81,-387.95 336.21,-379.27 335.62,-370.77"/>
<polygon fill="black" stroke="black" points="339.09,-370.26 334.91,-360.52 332.11,-370.74 339.09,-370.26"/>
</g>
<!-- BB3&#45;&gt;BB3 -->
<g id="edge4" class="edge">
<title>BB3&#45;&gt;BB3</title>
<path fill="none" stroke="black" d="M430.83,-336.02C449.95,-333.24 463.5,-325.37 463.5,-312.42 463.5,-301.89 454.55,-294.72 440.95,-290.91"/>
<polygon fill="black" stroke="black" points="441.34,-287.42 430.83,-288.81 439.91,-294.27 441.34,-287.42"/>
</g>
<!-- BB4 -->
<g id="node5" class="node">
<title>BB4</title>
<ellipse fill="none" stroke="black" cx="331.65" cy="-180.25" rx="113.69" ry="48.17"/>
<text text-anchor="middle" x="331.65" y="-199.05" font-family="Times New Roman,serif" font-size="14.00">[167..173)</text>
<text text-anchor="middle" x="331.65" y="-184.05" font-family="Times New Roman,serif" font-size="14.00">Count: 11</text>
<text text-anchor="middle" x="331.65" y="-169.05" font-family="Times New Roman,serif" font-size="14.00">Normalized count: Infinity</text>
<text text-anchor="middle" x="331.65" y="-154.05" font-family="Times New Roman,serif" font-size="14.00">Samples weight: 0.00</text>
</g>
<!-- BB3&#45;&gt;BB4 -->
<g id="edge5" class="edge">
<title>BB3&#45;&gt;BB4</title>
<path fill="none" stroke="black" d="M331.65,-264.05C331.65,-255.79 331.65,-247.1 331.65,-238.6"/>
<polygon fill="black" stroke="black" points="335.15,-238.36 331.65,-228.36 328.15,-238.36 335.15,-238.36"/>
</g>
<!-- BB5 -->
<g id="node6" class="node">
<title>BB5</title>
<ellipse fill="none" stroke="black" cx="245.65" cy="-48.08" rx="113.69" ry="48.17"/>
<text text-anchor="middle" x="245.65" y="-66.88" font-family="Times New Roman,serif" font-size="14.00">[173..18d)</text>
<text text-anchor="middle" x="245.65" y="-51.88" font-family="Times New Roman,serif" font-size="14.00">Count: 10</text>
<text text-anchor="middle" x="245.65" y="-36.88" font-family="Times New Roman,serif" font-size="14.00">Normalized count: Infinity</text>
<text text-anchor="middle" x="245.65" y="-21.88" font-family="Times New Roman,serif" font-size="14.00">Samples weight: 0.00</text>
</g>
<!-- BB4&#45;&gt;BB5 -->
<g id="edge7" class="edge">
<title>BB4&#45;&gt;BB5</title>
<path fill="none" stroke="black" d="M301.57,-133.72C295.06,-123.87 288.12,-113.36 281.42,-103.22"/>
<polygon fill="black" stroke="black" points="284.29,-101.22 275.86,-94.8 278.45,-105.08 284.29,-101.22"/>
</g>
<!-- BB6 -->
<g id="node7" class="node">
<title>BB6</title>
<ellipse fill="none" stroke="black" cx="491.65" cy="-48.08" rx="113.69" ry="48.17"/>
<text text-anchor="middle" x="491.65" y="-66.88" font-family="Times New Roman,serif" font-size="14.00">[18d..1b1)</text>
<text text-anchor="middle" x="491.65" y="-51.88" font-family="Times New Roman,serif" font-size="14.00">Count: 33</text>
<text text-anchor="middle" x="491.65" y="-36.88" font-family="Times New Roman,serif" font-size="14.00">Normalized count: Infinity</text>
<text text-anchor="middle" x="491.65" y="-21.88" font-family="Times New Roman,serif" font-size="14.00">Samples weight: 0.00</text>
</g>
<!-- BB4&#45;&gt;BB6 -->
<g id="edge6" class="edge">
<title>BB4&#45;&gt;BB6</title>
<path fill="none" stroke="black" d="M383.16,-137.35C398.78,-124.64 416.07,-110.57 432.17,-97.47"/>
<polygon fill="black" stroke="black" points="434.42,-100.16 439.97,-91.13 430,-94.73 434.42,-100.16"/>
</g>
<!-- BB5&#45;&gt;BB6 -->
<g id="edge8" class="edge">
<title>BB5&#45;&gt;BB6</title>
<path fill="none" stroke="black" d="M359.52,-48.08C362.16,-48.08 364.79,-48.08 367.43,-48.08"/>
<polygon fill="black" stroke="black" points="367.59,-51.58 377.59,-48.08 367.59,-44.58 367.59,-51.58"/>
</g>
<!-- BB6&#45;&gt;BB7 -->
<g id="edge9" class="edge">
<title>BB6&#45;&gt;BB7</title>
<path fill="none" stroke="black" d="M502.35,-96.23C519.13,-182.42 542.21,-367.97 463.65,-492.67 451.14,-512.52 432.08,-528.09 411.78,-540.1"/>
<polygon fill="black" stroke="black" points="410.02,-537.08 403.03,-545.03 413.46,-543.17 410.02,-537.08"/>
</g>
<!-- BB7&#45;&gt;BB2 -->
<g id="edge10" class="edge">
<title>BB7&#45;&gt;BB2</title>
<path fill="none" stroke="black" d="M325.32,-528.76C326.86,-520.38 328.48,-511.57 330.07,-502.95"/>
<polygon fill="black" stroke="black" points="333.55,-503.41 331.92,-492.94 326.66,-502.14 333.55,-503.41"/>
</g>
<!-- BB8 -->
<g id="node9" class="node">
<title>BB8</title>
<ellipse fill="none" stroke="black" cx="104.65" cy="-444.58" rx="104.8" ry="48.17"/>
<text text-anchor="middle" x="104.65" y="-463.38" font-family="Times New Roman,serif" font-size="14.00">[1bf..1e7)</text>
<text text-anchor="middle" x="104.65" y="-448.38" font-family="Times New Roman,serif" font-size="14.00">Count: 0</text>
<text text-anchor="middle" x="104.65" y="-433.38" font-family="Times New Roman,serif" font-size="14.00">Normalized count: NaN</text>
<text text-anchor="middle" x="104.65" y="-418.38" font-family="Times New Roman,serif" font-size="14.00">Samples weight: 0.00</text>
</g>
<!-- BB7&#45;&gt;BB8 -->
<g id="edge11" class="edge">
<title>BB7&#45;&gt;BB8</title>
<path fill="none" stroke="black" d="M253.04,-536.7C228.5,-521.62 200.32,-504.32 175.16,-488.87"/>
<polygon fill="black" stroke="black" points="176.74,-485.74 166.39,-483.49 173.08,-491.71 176.74,-485.74"/>
</g>
<!-- BB8&#45;&gt;BB9 -->
<g id="edge12" class="edge">
<title>BB8&#45;&gt;BB9</title>
<path fill="none" stroke="black" d="M100.32,-492.92C94.8,-578.61 93.84,-762.28 170.65,-889.17 180.23,-904.99 194.08,-918.7 208.84,-930.18"/>
<polygon fill="black" stroke="black" points="207,-933.17 217.12,-936.33 211.17,-927.55 207,-933.17"/>
</g>
<!-- BB10 -->
<g id="node11" class="node">
<title>BB10</title>
<ellipse fill="none" stroke="black" cx="284.65" cy="-841.08" rx="104.8" ry="48.17"/>
<text text-anchor="middle" x="284.65" y="-859.88" font-family="Times New Roman,serif" font-size="14.00">[1ec..1f7)</text>
<text text-anchor="middle" x="284.65" y="-844.88" font-family="Times New Roman,serif" font-size="14.00">Count: 0</text>
<text text-anchor="middle" x="284.65" y="-829.88" font-family="Times New Roman,serif" font-size="14.00">Normalized count: NaN</text>
<text text-anchor="middle" x="284.65" y="-814.88" font-family="Times New Roman,serif" font-size="14.00">Samples weight: 0.00</text>
</g>
<!-- BB9&#45;&gt;BB10 -->
<g id="edge14" class="edge">
<title>BB9&#45;&gt;BB10</title>
<path fill="none" stroke="black" d="M284.65,-924.89C284.65,-916.62 284.65,-907.94 284.65,-899.43"/>
<polygon fill="black" stroke="black" points="288.15,-899.19 284.65,-889.19 281.15,-899.19 288.15,-899.19"/>
</g>
<!-- BB11 -->
<g id="node12" class="node">
<title>BB11</title>
<ellipse fill="none" stroke="black" cx="511.65" cy="-841.08" rx="104.8" ry="48.17"/>
<text text-anchor="middle" x="511.65" y="-859.88" font-family="Times New Roman,serif" font-size="14.00">[1f7..1f8)</text>
<text text-anchor="middle" x="511.65" y="-844.88" font-family="Times New Roman,serif" font-size="14.00">Count: 0</text>
<text text-anchor="middle" x="511.65" y="-829.88" font-family="Times New Roman,serif" font-size="14.00">Normalized count: NaN</text>
<text text-anchor="middle" x="511.65" y="-814.88" font-family="Times New Roman,serif" font-size="14.00">Samples weight: 0.00</text>
</g>
<!-- BB9&#45;&gt;BB11 -->
<g id="edge13" class="edge">
<title>BB9&#45;&gt;BB11</title>
<path fill="none" stroke="black" d="M349.09,-935.3C376.89,-919.36 409.55,-900.63 438.27,-884.16"/>
<polygon fill="black" stroke="black" points="440.11,-887.14 447.05,-879.13 436.63,-881.07 440.11,-887.14"/>
</g>
<!-- BB10&#45;&gt;BB1 -->
<g id="edge15" class="edge">
<title>BB10&#45;&gt;BB1</title>
<path fill="none" stroke="black" d="M286.11,-792.72C286.36,-784.45 286.63,-775.77 286.89,-767.27"/>
<polygon fill="black" stroke="black" points="290.4,-767.13 287.2,-757.02 283.4,-766.91 290.4,-767.13"/>
</g>
<!-- BB10&#45;&gt;BB11 -->
<g id="edge16" class="edge">
<title>BB10&#45;&gt;BB11</title>
<path fill="none" stroke="black" d="M389.73,-841.08C392.05,-841.08 394.37,-841.08 396.69,-841.08"/>
<polygon fill="black" stroke="black" points="396.87,-844.58 406.87,-841.08 396.87,-837.58 396.87,-844.58"/>
</g>
</g>
</svg>
