<?xml version="1.0" encoding="UTF-8" standalone="no"?>
<!DOCTYPE svg PUBLIC "-//W3C//DTD SVG 1.1//EN"
 "http://www.w3.org/Graphics/SVG/1.1/DTD/svg11.dtd">
<!-- Generated by graphviz version 2.47.0 (20210316.0004)
 -->
<!-- Title: G Pages: 1 -->
<svg width="629pt" height="971pt"
 viewBox="0.00 0.00 628.72 970.58" xmlns="http://www.w3.org/2000/svg" xmlns:xlink="http://www.w3.org/1999/xlink">
<g id="graph0" class="graph" transform="scale(1 1) rotate(0) translate(4 966.58)">
<title>G</title>
<polygon fill="white" stroke="transparent" points="-4,4 -4,-966.58 624.72,-966.58 624.72,4 -4,4"/>
<!-- BB0 -->
<g id="node1" class="node">
<title>BB0</title>
<ellipse fill="none" stroke="black" cx="286.36" cy="-925.1" rx="105.22" ry="37.45"/>
<text text-anchor="middle" x="286.36" y="-936.4" font-family="Times New Roman,serif" font-size="14.00">[0..98)</text>
<text text-anchor="middle" x="286.36" y="-921.4" font-family="Times New Roman,serif" font-size="14.00">Normalized Count: 1.00</text>
<text text-anchor="middle" x="286.36" y="-906.4" font-family="Times New Roman,serif" font-size="14.00">Samples weight: 0.00</text>
</g>
<!-- BB9 -->
<g id="node10" class="node">
<title>BB9</title>
<ellipse fill="none" stroke="black" cx="286.36" cy="-814.15" rx="105.22" ry="37.45"/>
<text text-anchor="middle" x="286.36" y="-825.45" font-family="Times New Roman,serif" font-size="14.00">[1a7..1ac)</text>
<text text-anchor="middle" x="286.36" y="-810.45" font-family="Times New Roman,serif" font-size="14.00">Normalized Count: 1.50</text>
<text text-anchor="middle" x="286.36" y="-795.45" font-family="Times New Roman,serif" font-size="14.00">Samples weight: 0.00</text>
</g>
<!-- BB0&#45;&gt;BB9 -->
<g id="edge1" class="edge">
<title>BB0&#45;&gt;BB9</title>
<path fill="none" stroke="black" d="M286.36,-887.52C286.36,-879.35 286.36,-870.57 286.36,-862.04"/>
<polygon fill="black" stroke="black" points="289.86,-861.82 286.36,-851.82 282.86,-861.82 289.86,-861.82"/>
</g>
<!-- BB1 -->
<g id="node2" class="node">
<title>BB1</title>
<ellipse fill="none" stroke="black" cx="310.36" cy="-592.24" rx="105.22" ry="37.45"/>
<text text-anchor="middle" x="310.36" y="-603.54" font-family="Times New Roman,serif" font-size="14.00">[98..b8)</text>
<text text-anchor="middle" x="310.36" y="-588.54" font-family="Times New Roman,serif" font-size="14.00">Normalized Count: 0.50</text>
<text text-anchor="middle" x="310.36" y="-573.54" font-family="Times New Roman,serif" font-size="14.00">Samples weight: 0.00</text>
</g>
<!-- BB7 -->
<g id="node8" class="node">
<title>BB7</title>
<ellipse fill="none" stroke="black" cx="322.36" cy="-481.29" rx="105.22" ry="37.45"/>
<text text-anchor="middle" x="322.36" y="-492.59" font-family="Times New Roman,serif" font-size="14.00">[171..17f)</text>
<text text-anchor="middle" x="322.36" y="-477.59" font-family="Times New Roman,serif" font-size="14.00">Normalized Count: 8.00</text>
<text text-anchor="middle" x="322.36" y="-462.59" font-family="Times New Roman,serif" font-size="14.00">Samples weight: 0.02</text>
</g>
<!-- BB1&#45;&gt;BB7 -->
<g id="edge2" class="edge">
<title>BB1&#45;&gt;BB7</title>
<path fill="none" stroke="black" d="M314.39,-554.66C315.29,-546.49 316.26,-537.71 317.19,-529.18"/>
<polygon fill="black" stroke="black" points="320.7,-529.28 318.32,-518.96 313.75,-528.52 320.7,-529.28"/>
</g>
<!-- BB2 -->
<g id="node3" class="node">
<title>BB2</title>
<ellipse fill="none" stroke="black" cx="334.36" cy="-370.34" rx="105.22" ry="37.45"/>
<text text-anchor="middle" x="334.36" y="-381.64" font-family="Times New Roman,serif" font-size="14.00">[b8..d5)</text>
<text text-anchor="middle" x="334.36" y="-366.64" font-family="Times New Roman,serif" font-size="14.00">Normalized Count: 7.50</text>
<text text-anchor="middle" x="334.36" y="-351.64" font-family="Times New Roman,serif" font-size="14.00">Samples weight: 0.02</text>
</g>
<!-- BB3 -->
<g id="node4" class="node">
<title>BB3</title>
<ellipse fill="none" stroke="black" cx="320.36" cy="-259.38" rx="115.02" ry="37.45"/>
<text text-anchor="middle" x="320.36" y="-270.68" font-family="Times New Roman,serif" font-size="14.00">[d5..127)</text>
<text text-anchor="middle" x="320.36" y="-255.68" font-family="Times New Roman,serif" font-size="14.00">Normalized Count: 366.50</text>
<text text-anchor="middle" x="320.36" y="-240.68" font-family="Times New Roman,serif" font-size="14.00">Samples weight: 0.91</text>
</g>
<!-- BB2&#45;&gt;BB3 -->
<g id="edge3" class="edge">
<title>BB2&#45;&gt;BB3</title>
<path fill="none" stroke="black" d="M329.66,-332.75C328.6,-324.49 327.45,-315.61 326.35,-306.99"/>
<polygon fill="black" stroke="black" points="329.82,-306.53 325.07,-297.06 322.87,-307.42 329.82,-306.53"/>
</g>
<!-- BB3&#45;&gt;BB3 -->
<g id="edge4" class="edge">
<title>BB3&#45;&gt;BB3</title>
<path fill="none" stroke="black" d="M417.98,-279.34C438.67,-277.32 453.62,-270.66 453.62,-259.38 453.62,-250.04 443.37,-243.87 428.09,-240.88"/>
<polygon fill="black" stroke="black" points="428.37,-237.38 417.98,-239.42 427.38,-244.31 428.37,-237.38"/>
</g>
<!-- BB4 -->
<g id="node5" class="node">
<title>BB4</title>
<ellipse fill="none" stroke="black" cx="320.36" cy="-148.43" rx="105.22" ry="37.45"/>
<text text-anchor="middle" x="320.36" y="-159.73" font-family="Times New Roman,serif" font-size="14.00">[127..133)</text>
<text text-anchor="middle" x="320.36" y="-144.73" font-family="Times New Roman,serif" font-size="14.00">Normalized Count: 7.50</text>
<text text-anchor="middle" x="320.36" y="-129.73" font-family="Times New Roman,serif" font-size="14.00">Samples weight: 0.02</text>
</g>
<!-- BB3&#45;&gt;BB4 -->
<g id="edge5" class="edge">
<title>BB3&#45;&gt;BB4</title>
<path fill="none" stroke="black" d="M320.36,-221.8C320.36,-213.63 320.36,-204.85 320.36,-196.32"/>
<polygon fill="black" stroke="black" points="323.86,-196.1 320.36,-186.1 316.86,-196.1 323.86,-196.1"/>
</g>
<!-- BB5 -->
<g id="node6" class="node">
<title>BB5</title>
<ellipse fill="none" stroke="black" cx="252.36" cy="-37.48" rx="105.22" ry="37.45"/>
<text text-anchor="middle" x="252.36" y="-48.78" font-family="Times New Roman,serif" font-size="14.00">[133..14d)</text>
<text text-anchor="middle" x="252.36" y="-33.78" font-family="Times New Roman,serif" font-size="14.00">Normalized Count: 0.00</text>
<text text-anchor="middle" x="252.36" y="-18.78" font-family="Times New Roman,serif" font-size="14.00">Samples weight: 0.00</text>
</g>
<!-- BB4&#45;&gt;BB5 -->
<g id="edge7" class="edge">
<title>BB4&#45;&gt;BB5</title>
<path fill="none" stroke="black" d="M298.09,-111.75C292.34,-102.54 286.08,-92.5 280.08,-82.9"/>
<polygon fill="black" stroke="black" points="282.94,-80.86 274.67,-74.23 277,-84.57 282.94,-80.86"/>
</g>
<!-- BB6 -->
<g id="node7" class="node">
<title>BB6</title>
<ellipse fill="none" stroke="black" cx="481.36" cy="-37.48" rx="105.22" ry="37.45"/>
<text text-anchor="middle" x="481.36" y="-48.78" font-family="Times New Roman,serif" font-size="14.00">[14d..171)</text>
<text text-anchor="middle" x="481.36" y="-33.78" font-family="Times New Roman,serif" font-size="14.00">Normalized Count: 7.50</text>
<text text-anchor="middle" x="481.36" y="-18.78" font-family="Times New Roman,serif" font-size="14.00">Samples weight: 0.02</text>
</g>
<!-- BB4&#45;&gt;BB6 -->
<g id="edge6" class="edge">
<title>BB4&#45;&gt;BB6</title>
<path fill="none" stroke="black" d="M368.23,-115.04C386.07,-102.96 406.49,-89.14 425.03,-76.6"/>
<polygon fill="black" stroke="black" points="427.08,-79.44 433.4,-70.93 423.15,-73.64 427.08,-79.44"/>
</g>
<!-- BB5&#45;&gt;BB6 -->
<g id="edge8" class="edge">
<title>BB5&#45;&gt;BB6</title>
<path fill="none" stroke="black" d="M357.91,-37.48C360.52,-37.48 363.12,-37.48 365.72,-37.48"/>
<polygon fill="black" stroke="black" points="365.76,-40.98 375.76,-37.48 365.76,-33.98 365.76,-40.98"/>
</g>
<!-- BB6&#45;&gt;BB7 -->
<g id="edge9" class="edge">
<title>BB6&#45;&gt;BB7</title>
<path fill="none" stroke="black" d="M488.71,-74.95C500.87,-145.76 517.46,-303.97 448.36,-407.81 437.17,-424.63 420.66,-438.02 403.25,-448.47"/>
<polygon fill="black" stroke="black" points="401.05,-445.7 394.08,-453.68 404.51,-451.78 401.05,-445.7"/>
</g>
<!-- BB7&#45;&gt;BB2 -->
<g id="edge10" class="edge">
<title>BB7&#45;&gt;BB2</title>
<path fill="none" stroke="black" d="M326.39,-443.71C327.29,-435.53 328.26,-426.75 329.19,-418.23"/>
<polygon fill="black" stroke="black" points="332.7,-418.33 330.32,-408.01 325.75,-417.57 332.7,-418.33"/>
</g>
<!-- BB8 -->
<g id="node9" class="node">
<title>BB8</title>
<ellipse fill="none" stroke="black" cx="105.36" cy="-370.34" rx="105.22" ry="37.45"/>
<text text-anchor="middle" x="105.36" y="-381.64" font-family="Times New Roman,serif" font-size="14.00">[17f..1a7)</text>
<text text-anchor="middle" x="105.36" y="-366.64" font-family="Times New Roman,serif" font-size="14.00">Normalized Count: 0.50</text>
<text text-anchor="middle" x="105.36" y="-351.64" font-family="Times New Roman,serif" font-size="14.00">Samples weight: 0.00</text>
</g>
<!-- BB7&#45;&gt;BB8 -->
<g id="edge11" class="edge">
<title>BB7&#45;&gt;BB8</title>
<path fill="none" stroke="black" d="M262.78,-450.37C235.38,-436.62 202.72,-420.22 174.26,-405.93"/>
<polygon fill="black" stroke="black" points="175.69,-402.73 165.19,-401.38 172.55,-408.99 175.69,-402.73"/>
</g>
<!-- BB8&#45;&gt;BB9 -->
<g id="edge12" class="edge">
<title>BB8&#45;&gt;BB9</title>
<path fill="none" stroke="black" d="M102.81,-407.92C99.72,-478.57 102,-636.03 172.36,-740.67 182.63,-755.94 197.31,-768.66 212.74,-778.96"/>
<polygon fill="black" stroke="black" points="211.05,-782.03 221.37,-784.43 214.8,-776.12 211.05,-782.03"/>
</g>
<!-- BB10 -->
<g id="node11" class="node">
<title>BB10</title>
<ellipse fill="none" stroke="black" cx="286.36" cy="-703.2" rx="105.22" ry="37.45"/>
<text text-anchor="middle" x="286.36" y="-714.5" font-family="Times New Roman,serif" font-size="14.00">[1ac..1b7)</text>
<text text-anchor="middle" x="286.36" y="-699.5" font-family="Times New Roman,serif" font-size="14.00">Normalized Count: 0.50</text>
<text text-anchor="middle" x="286.36" y="-684.5" font-family="Times New Roman,serif" font-size="14.00">Samples weight: 0.00</text>
</g>
<!-- BB9&#45;&gt;BB10 -->
<g id="edge14" class="edge">
<title>BB9&#45;&gt;BB10</title>
<path fill="none" stroke="black" d="M286.36,-776.57C286.36,-768.39 286.36,-759.61 286.36,-751.09"/>
<polygon fill="black" stroke="black" points="289.86,-750.87 286.36,-740.87 282.86,-750.87 289.86,-750.87"/>
</g>
<!-- BB11 -->
<g id="node12" class="node">
<title>BB11</title>
<ellipse fill="none" stroke="black" cx="515.36" cy="-703.2" rx="105.22" ry="37.45"/>
<text text-anchor="middle" x="515.36" y="-714.5" font-family="Times New Roman,serif" font-size="14.00">[1b7..1b8)</text>
<text text-anchor="middle" x="515.36" y="-699.5" font-family="Times New Roman,serif" font-size="14.00">Normalized Count: 1.00</text>
<text text-anchor="middle" x="515.36" y="-684.5" font-family="Times New Roman,serif" font-size="14.00">Samples weight: 0.00</text>
</g>
<!-- BB9&#45;&gt;BB11 -->
<g id="edge13" class="edge">
<title>BB9&#45;&gt;BB11</title>
<path fill="none" stroke="black" d="M348.33,-783.67C377.86,-769.62 413.34,-752.73 443.99,-738.15"/>
<polygon fill="black" stroke="black" points="445.81,-741.16 453.34,-733.7 442.8,-734.84 445.81,-741.16"/>
</g>
<!-- BB10&#45;&gt;BB1 -->
<g id="edge15" class="edge">
<title>BB10&#45;&gt;BB1</title>
<path fill="none" stroke="black" d="M294.42,-665.61C296.24,-657.35 298.19,-648.47 300.09,-639.85"/>
<polygon fill="black" stroke="black" points="303.55,-640.43 302.28,-629.92 296.71,-638.93 303.55,-640.43"/>
</g>
<!-- BB10&#45;&gt;BB11 -->
<g id="edge16" class="edge">
<title>BB10&#45;&gt;BB11</title>
<path fill="none" stroke="black" d="M391.91,-703.2C394.52,-703.2 397.12,-703.2 399.72,-703.2"/>
<polygon fill="black" stroke="black" points="399.76,-706.7 409.76,-703.2 399.76,-699.7 399.76,-706.7"/>
</g>
</g>
</svg>
