<?xml version="1.0" encoding="UTF-8" standalone="no"?>
<!DOCTYPE svg PUBLIC "-//W3C//DTD SVG 1.1//EN"
 "http://www.w3.org/Graphics/SVG/1.1/DTD/svg11.dtd">
<!-- Generated by graphviz version 2.47.0 (20210316.0004)
 -->
<!-- Title: G Pages: 1 -->
<svg width="672pt" height="971pt"
 viewBox="0.00 0.00 671.71 970.58" xmlns="http://www.w3.org/2000/svg" xmlns:xlink="http://www.w3.org/1999/xlink">
<g id="graph0" class="graph" transform="scale(1 1) rotate(0) translate(4 966.58)">
<title>G</title>
<polygon fill="white" stroke="transparent" points="-4,4 -4,-966.58 667.71,-966.58 667.71,4 -4,4"/>
<!-- BB0 -->
<g id="node1" class="node">
<title>BB0</title>
<ellipse fill="none" stroke="black" cx="311.26" cy="-925.1" rx="105.22" ry="37.45"/>
<text text-anchor="middle" x="311.26" y="-936.4" font-family="Times New Roman,serif" font-size="14.00">[0..98)</text>
<text text-anchor="middle" x="311.26" y="-921.4" font-family="Times New Roman,serif" font-size="14.00">Normalized Count: 1.00</text>
<text text-anchor="middle" x="311.26" y="-906.4" font-family="Times New Roman,serif" font-size="14.00">Samples weight: 0.00</text>
</g>
<!-- BB9 -->
<g id="node10" class="node">
<title>BB9</title>
<ellipse fill="none" stroke="black" cx="311.26" cy="-814.15" rx="115.02" ry="37.45"/>
<text text-anchor="middle" x="311.26" y="-825.45" font-family="Times New Roman,serif" font-size="14.00">[1a7..1ac)</text>
<text text-anchor="middle" x="311.26" y="-810.45" font-family="Times New Roman,serif" font-size="14.00">Normalized Count: 201.00</text>
<text text-anchor="middle" x="311.26" y="-795.45" font-family="Times New Roman,serif" font-size="14.00">Samples weight: 0.00</text>
</g>
<!-- BB0&#45;&gt;BB9 -->
<g id="edge1" class="edge">
<title>BB0&#45;&gt;BB9</title>
<path fill="none" stroke="black" d="M311.26,-887.52C311.26,-879.35 311.26,-870.57 311.26,-862.04"/>
<polygon fill="black" stroke="black" points="314.76,-861.82 311.26,-851.82 307.76,-861.82 314.76,-861.82"/>
</g>
<!-- BB1 -->
<g id="node2" class="node">
<title>BB1</title>
<ellipse fill="none" stroke="black" cx="315.26" cy="-592.24" rx="115.02" ry="37.45"/>
<text text-anchor="middle" x="315.26" y="-603.54" font-family="Times New Roman,serif" font-size="14.00">[98..b8)</text>
<text text-anchor="middle" x="315.26" y="-588.54" font-family="Times New Roman,serif" font-size="14.00">Normalized Count: 200.00</text>
<text text-anchor="middle" x="315.26" y="-573.54" font-family="Times New Roman,serif" font-size="14.00">Samples weight: 0.00</text>
</g>
<!-- BB7 -->
<g id="node8" class="node">
<title>BB7</title>
<ellipse fill="none" stroke="black" cx="346.26" cy="-481.29" rx="124.4" ry="37.45"/>
<text text-anchor="middle" x="346.26" y="-492.59" font-family="Times New Roman,serif" font-size="14.00">[171..17f)</text>
<text text-anchor="middle" x="346.26" y="-477.59" font-family="Times New Roman,serif" font-size="14.00">Normalized Count: 10400.00</text>
<text text-anchor="middle" x="346.26" y="-462.59" font-family="Times New Roman,serif" font-size="14.00">Samples weight: 0.00</text>
</g>
<!-- BB1&#45;&gt;BB7 -->
<g id="edge2" class="edge">
<title>BB1&#45;&gt;BB7</title>
<path fill="none" stroke="black" d="M325.67,-554.66C328.04,-546.31 330.6,-537.32 333.08,-528.62"/>
<polygon fill="black" stroke="black" points="336.45,-529.54 335.82,-518.96 329.72,-527.62 336.45,-529.54"/>
</g>
<!-- BB2 -->
<g id="node3" class="node">
<title>BB2</title>
<ellipse fill="none" stroke="black" cx="373.26" cy="-370.34" rx="124.4" ry="37.45"/>
<text text-anchor="middle" x="373.26" y="-381.64" font-family="Times New Roman,serif" font-size="14.00">[b8..d5)</text>
<text text-anchor="middle" x="373.26" y="-366.64" font-family="Times New Roman,serif" font-size="14.00">Normalized Count: 10200.00</text>
<text text-anchor="middle" x="373.26" y="-351.64" font-family="Times New Roman,serif" font-size="14.00">Samples weight: 0.00</text>
</g>
<!-- BB3 -->
<g id="node4" class="node">
<title>BB3</title>
<ellipse fill="none" stroke="black" cx="359.26" cy="-259.38" rx="134.2" ry="37.45"/>
<text text-anchor="middle" x="359.26" y="-270.68" font-family="Times New Roman,serif" font-size="14.00">[d5..127)</text>
<text text-anchor="middle" x="359.26" y="-255.68" font-family="Times New Roman,serif" font-size="14.00">Normalized Count: 7495856.00</text>
<text text-anchor="middle" x="359.26" y="-240.68" font-family="Times New Roman,serif" font-size="14.00">Samples weight: 0.99</text>
</g>
<!-- BB2&#45;&gt;BB3 -->
<g id="edge3" class="edge">
<title>BB2&#45;&gt;BB3</title>
<path fill="none" stroke="black" d="M368.56,-332.75C367.5,-324.49 366.35,-315.61 365.25,-306.99"/>
<polygon fill="black" stroke="black" points="368.72,-306.53 363.97,-297.06 361.77,-307.42 368.72,-306.53"/>
</g>
<!-- BB3&#45;&gt;BB3 -->
<g id="edge4" class="edge">
<title>BB3&#45;&gt;BB3</title>
<path fill="none" stroke="black" d="M473.54,-279.09C495.8,-276.8 511.61,-270.23 511.61,-259.38 511.61,-250.23 500.35,-244.12 483.46,-241.06"/>
<polygon fill="black" stroke="black" points="483.92,-237.59 473.54,-239.68 482.96,-244.53 483.92,-237.59"/>
</g>
<!-- BB4 -->
<g id="node5" class="node">
<title>BB4</title>
<ellipse fill="none" stroke="black" cx="359.26" cy="-148.43" rx="124.4" ry="37.45"/>
<text text-anchor="middle" x="359.26" y="-159.73" font-family="Times New Roman,serif" font-size="14.00">[127..133)</text>
<text text-anchor="middle" x="359.26" y="-144.73" font-family="Times New Roman,serif" font-size="14.00">Normalized Count: 10200.00</text>
<text text-anchor="middle" x="359.26" y="-129.73" font-family="Times New Roman,serif" font-size="14.00">Samples weight: 0.00</text>
</g>
<!-- BB3&#45;&gt;BB4 -->
<g id="edge5" class="edge">
<title>BB3&#45;&gt;BB4</title>
<path fill="none" stroke="black" d="M359.26,-221.8C359.26,-213.63 359.26,-204.85 359.26,-196.32"/>
<polygon fill="black" stroke="black" points="362.76,-196.1 359.26,-186.1 355.76,-196.1 362.76,-196.1"/>
</g>
<!-- BB5 -->
<g id="node6" class="node">
<title>BB5</title>
<ellipse fill="none" stroke="black" cx="281.26" cy="-37.48" rx="115.02" ry="37.45"/>
<text text-anchor="middle" x="281.26" y="-48.78" font-family="Times New Roman,serif" font-size="14.00">[133..14d)</text>
<text text-anchor="middle" x="281.26" y="-33.78" font-family="Times New Roman,serif" font-size="14.00">Normalized Count: 200.00</text>
<text text-anchor="middle" x="281.26" y="-18.78" font-family="Times New Roman,serif" font-size="14.00">Samples weight: 0.00</text>
</g>
<!-- BB4&#45;&gt;BB5 -->
<g id="edge7" class="edge">
<title>BB4&#45;&gt;BB5</title>
<path fill="none" stroke="black" d="M333.5,-111.45C326.84,-102.15 319.6,-92.04 312.69,-82.38"/>
<polygon fill="black" stroke="black" points="315.39,-80.14 306.72,-74.04 309.7,-84.21 315.39,-80.14"/>
</g>
<!-- BB6 -->
<g id="node7" class="node">
<title>BB6</title>
<ellipse fill="none" stroke="black" cx="539.26" cy="-37.48" rx="124.4" ry="37.45"/>
<text text-anchor="middle" x="539.26" y="-48.78" font-family="Times New Roman,serif" font-size="14.00">[14d..171)</text>
<text text-anchor="middle" x="539.26" y="-33.78" font-family="Times New Roman,serif" font-size="14.00">Normalized Count: 10200.00</text>
<text text-anchor="middle" x="539.26" y="-18.78" font-family="Times New Roman,serif" font-size="14.00">Samples weight: 0.00</text>
</g>
<!-- BB4&#45;&gt;BB6 -->
<g id="edge6" class="edge">
<title>BB4&#45;&gt;BB6</title>
<path fill="none" stroke="black" d="M413.75,-114.44C433.49,-102.5 455.94,-88.91 476.34,-76.56"/>
<polygon fill="black" stroke="black" points="478.21,-79.52 484.95,-71.35 474.58,-73.53 478.21,-79.52"/>
</g>
<!-- BB5&#45;&gt;BB6 -->
<g id="edge8" class="edge">
<title>BB5&#45;&gt;BB6</title>
<path fill="none" stroke="black" d="M396.65,-37.48C399.29,-37.48 401.93,-37.48 404.57,-37.48"/>
<polygon fill="black" stroke="black" points="404.76,-40.98 414.76,-37.48 404.76,-33.98 404.76,-40.98"/>
</g>
<!-- BB6&#45;&gt;BB7 -->
<g id="edge9" class="edge">
<title>BB6&#45;&gt;BB7</title>
<path fill="none" stroke="black" d="M547.38,-75.01C561.07,-146.61 580.49,-307.17 506.26,-407.81 491.86,-427.33 470.96,-441.72 449,-452.28"/>
<polygon fill="black" stroke="black" points="447.52,-449.1 439.87,-456.43 450.42,-455.48 447.52,-449.1"/>
</g>
<!-- BB7&#45;&gt;BB2 -->
<g id="edge10" class="edge">
<title>BB7&#45;&gt;BB2</title>
<path fill="none" stroke="black" d="M355.32,-443.71C357.37,-435.44 359.57,-426.56 361.71,-417.95"/>
<polygon fill="black" stroke="black" points="365.16,-418.56 364.17,-408.01 358.37,-416.87 365.16,-418.56"/>
</g>
<!-- BB8 -->
<g id="node9" class="node">
<title>BB8</title>
<ellipse fill="none" stroke="black" cx="115.26" cy="-370.34" rx="115.02" ry="37.45"/>
<text text-anchor="middle" x="115.26" y="-381.64" font-family="Times New Roman,serif" font-size="14.00">[17f..1a7)</text>
<text text-anchor="middle" x="115.26" y="-366.64" font-family="Times New Roman,serif" font-size="14.00">Normalized Count: 200.00</text>
<text text-anchor="middle" x="115.26" y="-351.64" font-family="Times New Roman,serif" font-size="14.00">Samples weight: 0.00</text>
</g>
<!-- BB7&#45;&gt;BB8 -->
<g id="edge11" class="edge">
<title>BB7&#45;&gt;BB8</title>
<path fill="none" stroke="black" d="M280.68,-449.36C252.04,-435.85 218.32,-419.94 188.82,-406.03"/>
<polygon fill="black" stroke="black" points="189.94,-402.69 179.4,-401.59 186.95,-409.02 189.94,-402.69"/>
</g>
<!-- BB8&#45;&gt;BB9 -->
<g id="edge12" class="edge">
<title>BB8&#45;&gt;BB9</title>
<path fill="none" stroke="black" d="M112.97,-407.92C110.39,-478.92 114,-637.45 187.26,-740.67 198.44,-756.43 214.22,-769.29 230.78,-779.56"/>
<polygon fill="black" stroke="black" points="229.1,-782.63 239.49,-784.7 232.65,-776.6 229.1,-782.63"/>
</g>
<!-- BB10 -->
<g id="node11" class="node">
<title>BB10</title>
<ellipse fill="none" stroke="black" cx="311.26" cy="-703.2" rx="115.02" ry="37.45"/>
<text text-anchor="middle" x="311.26" y="-714.5" font-family="Times New Roman,serif" font-size="14.00">[1ac..1b7)</text>
<text text-anchor="middle" x="311.26" y="-699.5" font-family="Times New Roman,serif" font-size="14.00">Normalized Count: 200.00</text>
<text text-anchor="middle" x="311.26" y="-684.5" font-family="Times New Roman,serif" font-size="14.00">Samples weight: 0.00</text>
</g>
<!-- BB9&#45;&gt;BB10 -->
<g id="edge14" class="edge">
<title>BB9&#45;&gt;BB10</title>
<path fill="none" stroke="black" d="M311.26,-776.57C311.26,-768.39 311.26,-759.61 311.26,-751.09"/>
<polygon fill="black" stroke="black" points="314.76,-750.87 311.26,-740.87 307.76,-750.87 314.76,-750.87"/>
</g>
<!-- BB11 -->
<g id="node12" class="node">
<title>BB11</title>
<ellipse fill="none" stroke="black" cx="550.26" cy="-703.2" rx="105.22" ry="37.45"/>
<text text-anchor="middle" x="550.26" y="-714.5" font-family="Times New Roman,serif" font-size="14.00">[1b7..1b8)</text>
<text text-anchor="middle" x="550.26" y="-699.5" font-family="Times New Roman,serif" font-size="14.00">Normalized Count: 1.00</text>
<text text-anchor="middle" x="550.26" y="-684.5" font-family="Times New Roman,serif" font-size="14.00">Samples weight: 0.00</text>
</g>
<!-- BB9&#45;&gt;BB11 -->
<g id="edge13" class="edge">
<title>BB9&#45;&gt;BB11</title>
<path fill="none" stroke="black" d="M376.88,-783.23C407.95,-769.07 445.16,-752.11 477.13,-737.53"/>
<polygon fill="black" stroke="black" points="478.78,-740.63 486.43,-733.29 475.88,-734.26 478.78,-740.63"/>
</g>
<!-- BB10&#45;&gt;BB1 -->
<g id="edge15" class="edge">
<title>BB10&#45;&gt;BB1</title>
<path fill="none" stroke="black" d="M312.6,-665.61C312.9,-657.44 313.22,-648.66 313.54,-640.13"/>
<polygon fill="black" stroke="black" points="317.04,-640.04 313.91,-629.92 310.05,-639.78 317.04,-640.04"/>
</g>
<!-- BB10&#45;&gt;BB11 -->
<g id="edge16" class="edge">
<title>BB10&#45;&gt;BB11</title>
<path fill="none" stroke="black" d="M426.56,-703.2C429.16,-703.2 431.77,-703.2 434.38,-703.2"/>
<polygon fill="black" stroke="black" points="434.44,-706.7 444.44,-703.2 434.44,-699.7 434.44,-706.7"/>
</g>
</g>
</svg>
