<?xml version="1.0" encoding="UTF-8" standalone="no"?>
<!DOCTYPE svg PUBLIC "-//W3C//DTD SVG 1.1//EN"
 "http://www.w3.org/Graphics/SVG/1.1/DTD/svg11.dtd">
<!-- Generated by graphviz version 2.47.0 (20210316.0004)
 -->
<!-- Title: G Pages: 1 -->
<svg width="615pt" height="1161pt"
 viewBox="0.00 0.00 615.48 1161.50" xmlns="http://www.w3.org/2000/svg" xmlns:xlink="http://www.w3.org/1999/xlink">
<g id="graph0" class="graph" transform="scale(1 1) rotate(0) translate(4 1157.5)">
<title>G</title>
<polygon fill="white" stroke="transparent" points="-4,4 -4,-1157.5 611.48,-1157.5 611.48,4 -4,4"/>
<!-- BB0 -->
<g id="node1" class="node">
<title>BB0</title>
<ellipse fill="none" stroke="black" cx="280.24" cy="-1105.42" rx="103.48" ry="48.17"/>
<text text-anchor="middle" x="280.24" y="-1124.22" font-family="Times New Roman,serif" font-size="14.00">[0..87)</text>
<text text-anchor="middle" x="280.24" y="-1109.22" font-family="Times New Roman,serif" font-size="14.00">Count: 2</text>
<text text-anchor="middle" x="280.24" y="-1094.22" font-family="Times New Roman,serif" font-size="14.00">Normalized count: 1.00</text>
<text text-anchor="middle" x="280.24" y="-1079.22" font-family="Times New Roman,serif" font-size="14.00">Samples weight: 0.00</text>
</g>
<!-- BB9 -->
<g id="node10" class="node">
<title>BB9</title>
<ellipse fill="none" stroke="black" cx="280.24" cy="-973.25" rx="103.48" ry="48.17"/>
<text text-anchor="middle" x="280.24" y="-992.05" font-family="Times New Roman,serif" font-size="14.00">[1d3..1d9)</text>
<text text-anchor="middle" x="280.24" y="-977.05" font-family="Times New Roman,serif" font-size="14.00">Count: 3</text>
<text text-anchor="middle" x="280.24" y="-962.05" font-family="Times New Roman,serif" font-size="14.00">Normalized count: 1.50</text>
<text text-anchor="middle" x="280.24" y="-947.05" font-family="Times New Roman,serif" font-size="14.00">Samples weight: 0.00</text>
</g>
<!-- BB0&#45;&gt;BB9 -->
<g id="edge1" class="edge">
<title>BB0&#45;&gt;BB9</title>
<path fill="none" stroke="black" d="M280.24,-1057.05C280.24,-1048.79 280.24,-1040.1 280.24,-1031.6"/>
<polygon fill="black" stroke="black" points="283.74,-1031.36 280.24,-1021.36 276.74,-1031.36 283.74,-1031.36"/>
</g>
<!-- BB1 -->
<g id="node2" class="node">
<title>BB1</title>
<ellipse fill="none" stroke="black" cx="294.24" cy="-708.92" rx="103.48" ry="48.17"/>
<text text-anchor="middle" x="294.24" y="-727.72" font-family="Times New Roman,serif" font-size="14.00">[87..a7)</text>
<text text-anchor="middle" x="294.24" y="-712.72" font-family="Times New Roman,serif" font-size="14.00">Count: 1</text>
<text text-anchor="middle" x="294.24" y="-697.72" font-family="Times New Roman,serif" font-size="14.00">Normalized count: 0.50</text>
<text text-anchor="middle" x="294.24" y="-682.72" font-family="Times New Roman,serif" font-size="14.00">Samples weight: 0.00</text>
</g>
<!-- BB7 -->
<g id="node8" class="node">
<title>BB7</title>
<ellipse fill="none" stroke="black" cx="308.24" cy="-576.75" rx="108.38" ry="48.17"/>
<text text-anchor="middle" x="308.24" y="-595.55" font-family="Times New Roman,serif" font-size="14.00">[19e..1ac)</text>
<text text-anchor="middle" x="308.24" y="-580.55" font-family="Times New Roman,serif" font-size="14.00">Count: 38</text>
<text text-anchor="middle" x="308.24" y="-565.55" font-family="Times New Roman,serif" font-size="14.00">Normalized count: 19.00</text>
<text text-anchor="middle" x="308.24" y="-550.55" font-family="Times New Roman,serif" font-size="14.00">Samples weight: 0.04</text>
</g>
<!-- BB1&#45;&gt;BB7 -->
<g id="edge2" class="edge">
<title>BB1&#45;&gt;BB7</title>
<path fill="none" stroke="black" d="M299.33,-660.55C300.23,-652.2 301.18,-643.41 302.1,-634.82"/>
<polygon fill="black" stroke="black" points="305.58,-635.17 303.17,-624.86 298.62,-634.43 305.58,-635.17"/>
</g>
<!-- BB2 -->
<g id="node3" class="node">
<title>BB2</title>
<ellipse fill="none" stroke="black" cx="332.24" cy="-444.58" rx="108.38" ry="48.17"/>
<text text-anchor="middle" x="332.24" y="-463.38" font-family="Times New Roman,serif" font-size="14.00">[a7..bd)</text>
<text text-anchor="middle" x="332.24" y="-448.38" font-family="Times New Roman,serif" font-size="14.00">Count: 37</text>
<text text-anchor="middle" x="332.24" y="-433.38" font-family="Times New Roman,serif" font-size="14.00">Normalized count: 18.50</text>
<text text-anchor="middle" x="332.24" y="-418.38" font-family="Times New Roman,serif" font-size="14.00">Samples weight: 0.03</text>
</g>
<!-- BB3 -->
<g id="node4" class="node">
<title>BB3</title>
<ellipse fill="none" stroke="black" cx="320.24" cy="-312.42" rx="113.27" ry="48.17"/>
<text text-anchor="middle" x="320.24" y="-331.22" font-family="Times New Roman,serif" font-size="14.00">[bd..154)</text>
<text text-anchor="middle" x="320.24" y="-316.22" font-family="Times New Roman,serif" font-size="14.00">Count: 922</text>
<text text-anchor="middle" x="320.24" y="-301.22" font-family="Times New Roman,serif" font-size="14.00">Normalized count: 461.00</text>
<text text-anchor="middle" x="320.24" y="-286.22" font-family="Times New Roman,serif" font-size="14.00">Samples weight: 0.85</text>
</g>
<!-- BB2&#45;&gt;BB3 -->
<g id="edge3" class="edge">
<title>BB2&#45;&gt;BB3</title>
<path fill="none" stroke="black" d="M327.87,-396.22C327.1,-387.86 326.29,-379.08 325.5,-370.49"/>
<polygon fill="black" stroke="black" points="328.98,-370.16 324.58,-360.52 322.01,-370.8 328.98,-370.16"/>
</g>
<!-- BB3&#45;&gt;BB3 -->
<g id="edge4" class="edge">
<title>BB3&#45;&gt;BB3</title>
<path fill="none" stroke="black" d="M418.89,-336.02C437.9,-333.24 451.37,-325.37 451.37,-312.42 451.37,-301.89 442.48,-294.72 428.95,-290.91"/>
<polygon fill="black" stroke="black" points="429.39,-287.43 418.89,-288.81 427.96,-294.28 429.39,-287.43"/>
</g>
<!-- BB4 -->
<g id="node5" class="node">
<title>BB4</title>
<ellipse fill="none" stroke="black" cx="320.24" cy="-180.25" rx="108.38" ry="48.17"/>
<text text-anchor="middle" x="320.24" y="-199.05" font-family="Times New Roman,serif" font-size="14.00">[154..160)</text>
<text text-anchor="middle" x="320.24" y="-184.05" font-family="Times New Roman,serif" font-size="14.00">Count: 37</text>
<text text-anchor="middle" x="320.24" y="-169.05" font-family="Times New Roman,serif" font-size="14.00">Normalized count: 18.50</text>
<text text-anchor="middle" x="320.24" y="-154.05" font-family="Times New Roman,serif" font-size="14.00">Samples weight: 0.03</text>
</g>
<!-- BB3&#45;&gt;BB4 -->
<g id="edge5" class="edge">
<title>BB3&#45;&gt;BB4</title>
<path fill="none" stroke="black" d="M320.24,-264.05C320.24,-255.79 320.24,-247.1 320.24,-238.6"/>
<polygon fill="black" stroke="black" points="323.74,-238.36 320.24,-228.36 316.74,-238.36 323.74,-238.36"/>
</g>
<!-- BB5 -->
<g id="node6" class="node">
<title>BB5</title>
<ellipse fill="none" stroke="black" cx="250.24" cy="-48.08" rx="103.48" ry="48.17"/>
<text text-anchor="middle" x="250.24" y="-66.88" font-family="Times New Roman,serif" font-size="14.00">[160..17a)</text>
<text text-anchor="middle" x="250.24" y="-51.88" font-family="Times New Roman,serif" font-size="14.00">Count: 0</text>
<text text-anchor="middle" x="250.24" y="-36.88" font-family="Times New Roman,serif" font-size="14.00">Normalized count: 0.00</text>
<text text-anchor="middle" x="250.24" y="-21.88" font-family="Times New Roman,serif" font-size="14.00">Samples weight: 0.00</text>
</g>
<!-- BB4&#45;&gt;BB5 -->
<g id="edge7" class="edge">
<title>BB4&#45;&gt;BB5</title>
<path fill="none" stroke="black" d="M295.56,-133.36C290.43,-123.83 284.99,-113.7 279.71,-103.89"/>
<polygon fill="black" stroke="black" points="282.75,-102.15 274.93,-95 276.58,-105.46 282.75,-102.15"/>
</g>
<!-- BB6 -->
<g id="node7" class="node">
<title>BB6</title>
<ellipse fill="none" stroke="black" cx="479.24" cy="-48.08" rx="108.38" ry="48.17"/>
<text text-anchor="middle" x="479.24" y="-66.88" font-family="Times New Roman,serif" font-size="14.00">[17a..19e)</text>
<text text-anchor="middle" x="479.24" y="-51.88" font-family="Times New Roman,serif" font-size="14.00">Count: 37</text>
<text text-anchor="middle" x="479.24" y="-36.88" font-family="Times New Roman,serif" font-size="14.00">Normalized count: 18.50</text>
<text text-anchor="middle" x="479.24" y="-21.88" font-family="Times New Roman,serif" font-size="14.00">Samples weight: 0.03</text>
</g>
<!-- BB4&#45;&gt;BB6 -->
<g id="edge6" class="edge">
<title>BB4&#45;&gt;BB6</title>
<path fill="none" stroke="black" d="M370.98,-137.71C386.76,-124.79 404.28,-110.45 420.55,-97.12"/>
<polygon fill="black" stroke="black" points="422.91,-99.72 428.43,-90.68 418.47,-94.3 422.91,-99.72"/>
</g>
<!-- BB5&#45;&gt;BB6 -->
<g id="edge8" class="edge">
<title>BB5&#45;&gt;BB6</title>
<path fill="none" stroke="black" d="M353.56,-48.08C355.88,-48.08 358.21,-48.08 360.54,-48.08"/>
<polygon fill="black" stroke="black" points="360.74,-51.58 370.74,-48.08 360.74,-44.58 360.74,-51.58"/>
</g>
<!-- BB6&#45;&gt;BB7 -->
<g id="edge9" class="edge">
<title>BB6&#45;&gt;BB7</title>
<path fill="none" stroke="black" d="M489.58,-96.2C505.75,-182.34 527.63,-367.81 449.24,-492.67 437,-512.16 418.38,-527.64 398.66,-539.68"/>
<polygon fill="black" stroke="black" points="396.73,-536.76 389.84,-544.81 400.25,-542.81 396.73,-536.76"/>
</g>
<!-- BB7&#45;&gt;BB2 -->
<g id="edge10" class="edge">
<title>BB7&#45;&gt;BB2</title>
<path fill="none" stroke="black" d="M316.9,-528.76C318.45,-520.38 320.07,-511.57 321.66,-502.95"/>
<polygon fill="black" stroke="black" points="325.13,-503.41 323.51,-492.94 318.25,-502.14 325.13,-503.41"/>
</g>
<!-- BB8 -->
<g id="node9" class="node">
<title>BB8</title>
<ellipse fill="none" stroke="black" cx="103.24" cy="-444.58" rx="103.48" ry="48.17"/>
<text text-anchor="middle" x="103.24" y="-463.38" font-family="Times New Roman,serif" font-size="14.00">[1ac..1d3)</text>
<text text-anchor="middle" x="103.24" y="-448.38" font-family="Times New Roman,serif" font-size="14.00">Count: 1</text>
<text text-anchor="middle" x="103.24" y="-433.38" font-family="Times New Roman,serif" font-size="14.00">Normalized count: 0.50</text>
<text text-anchor="middle" x="103.24" y="-418.38" font-family="Times New Roman,serif" font-size="14.00">Samples weight: 0.00</text>
</g>
<!-- BB7&#45;&gt;BB8 -->
<g id="edge11" class="edge">
<title>BB7&#45;&gt;BB8</title>
<path fill="none" stroke="black" d="M247.01,-536.87C223.37,-521.86 196.21,-504.62 171.91,-489.19"/>
<polygon fill="black" stroke="black" points="173.76,-486.22 163.45,-483.81 170.01,-492.13 173.76,-486.22"/>
</g>
<!-- BB8&#45;&gt;BB9 -->
<g id="edge12" class="edge">
<title>BB8&#45;&gt;BB9</title>
<path fill="none" stroke="black" d="M98.88,-492.85C93.3,-578.42 92.13,-761.92 168.24,-889.17 177.62,-904.86 191.22,-918.52 205.72,-929.99"/>
<polygon fill="black" stroke="black" points="203.76,-932.89 213.85,-936.13 207.98,-927.31 203.76,-932.89"/>
</g>
<!-- BB10 -->
<g id="node11" class="node">
<title>BB10</title>
<ellipse fill="none" stroke="black" cx="280.24" cy="-841.08" rx="103.48" ry="48.17"/>
<text text-anchor="middle" x="280.24" y="-859.88" font-family="Times New Roman,serif" font-size="14.00">[1d9..1e4)</text>
<text text-anchor="middle" x="280.24" y="-844.88" font-family="Times New Roman,serif" font-size="14.00">Count: 1</text>
<text text-anchor="middle" x="280.24" y="-829.88" font-family="Times New Roman,serif" font-size="14.00">Normalized count: 0.50</text>
<text text-anchor="middle" x="280.24" y="-814.88" font-family="Times New Roman,serif" font-size="14.00">Samples weight: 0.00</text>
</g>
<!-- BB9&#45;&gt;BB10 -->
<g id="edge14" class="edge">
<title>BB9&#45;&gt;BB10</title>
<path fill="none" stroke="black" d="M280.24,-924.89C280.24,-916.62 280.24,-907.94 280.24,-899.43"/>
<polygon fill="black" stroke="black" points="283.74,-899.19 280.24,-889.19 276.74,-899.19 283.74,-899.19"/>
</g>
<!-- BB11 -->
<g id="node12" class="node">
<title>BB11</title>
<ellipse fill="none" stroke="black" cx="504.24" cy="-841.08" rx="103.48" ry="48.17"/>
<text text-anchor="middle" x="504.24" y="-859.88" font-family="Times New Roman,serif" font-size="14.00">[1e4..1e5)</text>
<text text-anchor="middle" x="504.24" y="-844.88" font-family="Times New Roman,serif" font-size="14.00">Count: 2</text>
<text text-anchor="middle" x="504.24" y="-829.88" font-family="Times New Roman,serif" font-size="14.00">Normalized count: 1.00</text>
<text text-anchor="middle" x="504.24" y="-814.88" font-family="Times New Roman,serif" font-size="14.00">Samples weight: 0.00</text>
</g>
<!-- BB9&#45;&gt;BB11 -->
<g id="edge13" class="edge">
<title>BB9&#45;&gt;BB11</title>
<path fill="none" stroke="black" d="M343.83,-935.3C371.26,-919.36 403.48,-900.63 431.83,-884.16"/>
<polygon fill="black" stroke="black" points="433.6,-887.18 440.49,-879.13 430.08,-881.13 433.6,-887.18"/>
</g>
<!-- BB10&#45;&gt;BB1 -->
<g id="edge15" class="edge">
<title>BB10&#45;&gt;BB1</title>
<path fill="none" stroke="black" d="M285.33,-792.72C286.23,-784.36 287.18,-775.58 288.1,-766.99"/>
<polygon fill="black" stroke="black" points="291.58,-767.34 289.17,-757.02 284.62,-766.59 291.58,-767.34"/>
</g>
<!-- BB10&#45;&gt;BB11 -->
<g id="edge16" class="edge">
<title>BB10&#45;&gt;BB11</title>
<path fill="none" stroke="black" d="M383.49,-841.08C385.94,-841.08 388.4,-841.08 390.85,-841.08"/>
<polygon fill="black" stroke="black" points="390.94,-844.58 400.94,-841.08 390.94,-837.58 390.94,-844.58"/>
</g>
</g>
</svg>
