<?xml version="1.0" encoding="UTF-8" standalone="no"?>
<!DOCTYPE svg PUBLIC "-//W3C//DTD SVG 1.1//EN"
 "http://www.w3.org/Graphics/SVG/1.1/DTD/svg11.dtd">
<!-- Generated by graphviz version 2.47.0 (20210316.0004)
 -->
<!-- Title: G Pages: 1 -->
<svg width="632pt" height="1029pt"
 viewBox="0.00 0.00 632.37 1029.33" xmlns="http://www.w3.org/2000/svg" xmlns:xlink="http://www.w3.org/1999/xlink">
<g id="graph0" class="graph" transform="scale(1 1) rotate(0) translate(4 1025.33)">
<title>G</title>
<polygon fill="white" stroke="transparent" points="-4,4 -4,-1025.33 628.37,-1025.33 628.37,4 -4,4"/>
<!-- BB0 -->
<g id="node1" class="node">
<title>BB0</title>
<ellipse fill="none" stroke="black" cx="280.24" cy="-973.25" rx="103.48" ry="48.17"/>
<text text-anchor="middle" x="280.24" y="-992.05" font-family="Times New Roman,serif" font-size="14.00">[0..1a)</text>
<text text-anchor="middle" x="280.24" y="-977.05" font-family="Times New Roman,serif" font-size="14.00">Count: 2</text>
<text text-anchor="middle" x="280.24" y="-962.05" font-family="Times New Roman,serif" font-size="14.00">Normalized count: 1.00</text>
<text text-anchor="middle" x="280.24" y="-947.05" font-family="Times New Roman,serif" font-size="14.00">Samples weight: 0.00</text>
</g>
<!-- BB8 -->
<g id="node9" class="node">
<title>BB8</title>
<ellipse fill="none" stroke="black" cx="280.24" cy="-841.08" rx="103.48" ry="48.17"/>
<text text-anchor="middle" x="280.24" y="-859.88" font-family="Times New Roman,serif" font-size="14.00">[a6..ab)</text>
<text text-anchor="middle" x="280.24" y="-844.88" font-family="Times New Roman,serif" font-size="14.00">Count: 3</text>
<text text-anchor="middle" x="280.24" y="-829.88" font-family="Times New Roman,serif" font-size="14.00">Normalized count: 1.50</text>
<text text-anchor="middle" x="280.24" y="-814.88" font-family="Times New Roman,serif" font-size="14.00">Samples weight: 0.00</text>
</g>
<!-- BB0&#45;&gt;BB8 -->
<g id="edge1" class="edge">
<title>BB0&#45;&gt;BB8</title>
<path fill="none" stroke="black" d="M280.24,-924.89C280.24,-916.62 280.24,-907.94 280.24,-899.43"/>
<polygon fill="black" stroke="black" points="283.74,-899.19 280.24,-889.19 276.74,-899.19 283.74,-899.19"/>
</g>
<!-- BB1 -->
<g id="node2" class="node">
<title>BB1</title>
<ellipse fill="none" stroke="black" cx="296.24" cy="-576.75" rx="103.48" ry="48.17"/>
<text text-anchor="middle" x="296.24" y="-595.55" font-family="Times New Roman,serif" font-size="14.00">[1a..22)</text>
<text text-anchor="middle" x="296.24" y="-580.55" font-family="Times New Roman,serif" font-size="14.00">Count: 1</text>
<text text-anchor="middle" x="296.24" y="-565.55" font-family="Times New Roman,serif" font-size="14.00">Normalized count: 0.50</text>
<text text-anchor="middle" x="296.24" y="-550.55" font-family="Times New Roman,serif" font-size="14.00">Samples weight: 0.00</text>
</g>
<!-- BB6 -->
<g id="node7" class="node">
<title>BB6</title>
<ellipse fill="none" stroke="black" cx="313.24" cy="-444.58" rx="113.27" ry="48.17"/>
<text text-anchor="middle" x="313.24" y="-463.38" font-family="Times New Roman,serif" font-size="14.00">[95..9a)</text>
<text text-anchor="middle" x="313.24" y="-448.38" font-family="Times New Roman,serif" font-size="14.00">Count: 351</text>
<text text-anchor="middle" x="313.24" y="-433.38" font-family="Times New Roman,serif" font-size="14.00">Normalized count: 175.50</text>
<text text-anchor="middle" x="313.24" y="-418.38" font-family="Times New Roman,serif" font-size="14.00">Samples weight: 0.00</text>
</g>
<!-- BB1&#45;&gt;BB6 -->
<g id="edge2" class="edge">
<title>BB1&#45;&gt;BB6</title>
<path fill="none" stroke="black" d="M302.42,-528.39C303.51,-520.03 304.66,-511.25 305.78,-502.65"/>
<polygon fill="black" stroke="black" points="309.26,-503.06 307.09,-492.69 302.32,-502.15 309.26,-503.06"/>
</g>
<!-- BB2 -->
<g id="node3" class="node">
<title>BB2</title>
<ellipse fill="none" stroke="black" cx="337.24" cy="-312.42" rx="113.27" ry="48.17"/>
<text text-anchor="middle" x="337.24" y="-331.22" font-family="Times New Roman,serif" font-size="14.00">[22..3f)</text>
<text text-anchor="middle" x="337.24" y="-316.22" font-family="Times New Roman,serif" font-size="14.00">Count: 350</text>
<text text-anchor="middle" x="337.24" y="-301.22" font-family="Times New Roman,serif" font-size="14.00">Normalized count: 175.00</text>
<text text-anchor="middle" x="337.24" y="-286.22" font-family="Times New Roman,serif" font-size="14.00">Samples weight: 0.00</text>
</g>
<!-- BB3 -->
<g id="node4" class="node">
<title>BB3</title>
<ellipse fill="none" stroke="black" cx="304.24" cy="-180.25" rx="127.06" ry="48.17"/>
<text text-anchor="middle" x="304.24" y="-199.05" font-family="Times New Roman,serif" font-size="14.00">[3f..6f)</text>
<text text-anchor="middle" x="304.24" y="-184.05" font-family="Times New Roman,serif" font-size="14.00">Count: 239193</text>
<text text-anchor="middle" x="304.24" y="-169.05" font-family="Times New Roman,serif" font-size="14.00">Normalized count: 119596.50</text>
<text text-anchor="middle" x="304.24" y="-154.05" font-family="Times New Roman,serif" font-size="14.00">Samples weight: 0.50</text>
</g>
<!-- BB2&#45;&gt;BB3 -->
<g id="edge3" class="edge">
<title>BB2&#45;&gt;BB3</title>
<path fill="none" stroke="black" d="M325.32,-264.42C323.15,-255.85 320.86,-246.83 318.63,-238.01"/>
<polygon fill="black" stroke="black" points="321.98,-237.01 316.13,-228.17 315.2,-238.73 321.98,-237.01"/>
</g>
<!-- BB4 -->
<g id="node5" class="node">
<title>BB4</title>
<ellipse fill="none" stroke="black" cx="253.24" cy="-48.08" rx="127.06" ry="48.17"/>
<text text-anchor="middle" x="253.24" y="-66.88" font-family="Times New Roman,serif" font-size="14.00">[6f..78)</text>
<text text-anchor="middle" x="253.24" y="-51.88" font-family="Times New Roman,serif" font-size="14.00">Count: 238843</text>
<text text-anchor="middle" x="253.24" y="-36.88" font-family="Times New Roman,serif" font-size="14.00">Normalized count: 119421.50</text>
<text text-anchor="middle" x="253.24" y="-21.88" font-family="Times New Roman,serif" font-size="14.00">Samples weight: 0.50</text>
</g>
<!-- BB3&#45;&gt;BB4 -->
<g id="edge5" class="edge">
<title>BB3&#45;&gt;BB4</title>
<path fill="none" stroke="black" d="M279.62,-132.99C275.89,-124.1 272.13,-114.69 268.65,-105.52"/>
<polygon fill="black" stroke="black" points="271.9,-104.22 265.13,-96.07 265.34,-106.66 271.9,-104.22"/>
</g>
<!-- BB5 -->
<g id="node6" class="node">
<title>BB5</title>
<ellipse fill="none" stroke="black" cx="511.24" cy="-48.08" rx="113.27" ry="48.17"/>
<text text-anchor="middle" x="511.24" y="-66.88" font-family="Times New Roman,serif" font-size="14.00">[78..95)</text>
<text text-anchor="middle" x="511.24" y="-51.88" font-family="Times New Roman,serif" font-size="14.00">Count: 350</text>
<text text-anchor="middle" x="511.24" y="-36.88" font-family="Times New Roman,serif" font-size="14.00">Normalized count: 175.00</text>
<text text-anchor="middle" x="511.24" y="-21.88" font-family="Times New Roman,serif" font-size="14.00">Samples weight: 0.00</text>
</g>
<!-- BB3&#45;&gt;BB5 -->
<g id="edge4" class="edge">
<title>BB3&#45;&gt;BB5</title>
<path fill="none" stroke="black" d="M368.88,-138.6C391.5,-124.38 417.01,-108.34 440.12,-93.8"/>
<polygon fill="black" stroke="black" points="442.25,-96.6 448.85,-88.31 438.52,-90.67 442.25,-96.6"/>
</g>
<!-- BB4&#45;&gt;BB3 -->
<g id="edge6" class="edge">
<title>BB4&#45;&gt;BB3</title>
<path fill="none" stroke="black" d="M277.95,-95.57C281.66,-104.42 285.39,-113.76 288.85,-122.87"/>
<polygon fill="black" stroke="black" points="285.57,-124.11 292.34,-132.26 292.13,-121.66 285.57,-124.11"/>
</g>
<!-- BB4&#45;&gt;BB5 -->
<g id="edge7" class="edge">
<title>BB4&#45;&gt;BB5</title>
<path fill="none" stroke="black" d="M380.73,-48.08C383.16,-48.08 385.6,-48.08 388.04,-48.08"/>
<polygon fill="black" stroke="black" points="388.06,-51.58 398.06,-48.08 388.06,-44.58 388.06,-51.58"/>
</g>
<!-- BB5&#45;&gt;BB6 -->
<g id="edge8" class="edge">
<title>BB5&#45;&gt;BB6</title>
<path fill="none" stroke="black" d="M515.26,-96.19C518.4,-161.53 515.01,-280.61 459.24,-360.5 445.8,-379.75 426.38,-395.11 406.06,-407.12"/>
<polygon fill="black" stroke="black" points="404.3,-404.1 397.31,-412.06 407.74,-410.19 404.3,-404.1"/>
</g>
<!-- BB6&#45;&gt;BB2 -->
<g id="edge9" class="edge">
<title>BB6&#45;&gt;BB2</title>
<path fill="none" stroke="black" d="M321.9,-396.59C323.45,-388.22 325.07,-379.41 326.66,-370.78"/>
<polygon fill="black" stroke="black" points="330.13,-371.25 328.51,-360.78 323.25,-369.98 330.13,-371.25"/>
</g>
<!-- BB7 -->
<g id="node8" class="node">
<title>BB7</title>
<ellipse fill="none" stroke="black" cx="103.24" cy="-312.42" rx="103.48" ry="48.17"/>
<text text-anchor="middle" x="103.24" y="-331.22" font-family="Times New Roman,serif" font-size="14.00">[9a..a6)</text>
<text text-anchor="middle" x="103.24" y="-316.22" font-family="Times New Roman,serif" font-size="14.00">Count: 1</text>
<text text-anchor="middle" x="103.24" y="-301.22" font-family="Times New Roman,serif" font-size="14.00">Normalized count: 0.50</text>
<text text-anchor="middle" x="103.24" y="-286.22" font-family="Times New Roman,serif" font-size="14.00">Samples weight: 0.00</text>
</g>
<!-- BB6&#45;&gt;BB7 -->
<g id="edge10" class="edge">
<title>BB6&#45;&gt;BB7</title>
<path fill="none" stroke="black" d="M250.23,-404.53C225.91,-389.46 198,-372.15 173.08,-356.7"/>
<polygon fill="black" stroke="black" points="174.74,-353.62 164.39,-351.32 171.05,-359.57 174.74,-353.62"/>
</g>
<!-- BB7&#45;&gt;BB8 -->
<g id="edge11" class="edge">
<title>BB7&#45;&gt;BB8</title>
<path fill="none" stroke="black" d="M98.88,-360.68C93.3,-446.25 92.13,-629.75 168.24,-757 177.62,-772.69 191.22,-786.35 205.72,-797.82"/>
<polygon fill="black" stroke="black" points="203.76,-800.73 213.85,-803.96 207.98,-795.14 203.76,-800.73"/>
</g>
<!-- BB9 -->
<g id="node10" class="node">
<title>BB9</title>
<ellipse fill="none" stroke="black" cx="280.24" cy="-708.92" rx="103.48" ry="48.17"/>
<text text-anchor="middle" x="280.24" y="-727.72" font-family="Times New Roman,serif" font-size="14.00">[ab..b6)</text>
<text text-anchor="middle" x="280.24" y="-712.72" font-family="Times New Roman,serif" font-size="14.00">Count: 1</text>
<text text-anchor="middle" x="280.24" y="-697.72" font-family="Times New Roman,serif" font-size="14.00">Normalized count: 0.50</text>
<text text-anchor="middle" x="280.24" y="-682.72" font-family="Times New Roman,serif" font-size="14.00">Samples weight: 0.00</text>
</g>
<!-- BB8&#45;&gt;BB9 -->
<g id="edge13" class="edge">
<title>BB8&#45;&gt;BB9</title>
<path fill="none" stroke="black" d="M280.24,-792.72C280.24,-784.45 280.24,-775.77 280.24,-767.27"/>
<polygon fill="black" stroke="black" points="283.74,-767.02 280.24,-757.02 276.74,-767.02 283.74,-767.02"/>
</g>
<!-- BB10 -->
<g id="node11" class="node">
<title>BB10</title>
<ellipse fill="none" stroke="black" cx="504.24" cy="-708.92" rx="103.48" ry="48.17"/>
<text text-anchor="middle" x="504.24" y="-727.72" font-family="Times New Roman,serif" font-size="14.00">[b6..b7)</text>
<text text-anchor="middle" x="504.24" y="-712.72" font-family="Times New Roman,serif" font-size="14.00">Count: 2</text>
<text text-anchor="middle" x="504.24" y="-697.72" font-family="Times New Roman,serif" font-size="14.00">Normalized count: 1.00</text>
<text text-anchor="middle" x="504.24" y="-682.72" font-family="Times New Roman,serif" font-size="14.00">Samples weight: 0.00</text>
</g>
<!-- BB8&#45;&gt;BB10 -->
<g id="edge12" class="edge">
<title>BB8&#45;&gt;BB10</title>
<path fill="none" stroke="black" d="M343.83,-803.13C371.26,-787.19 403.48,-768.46 431.83,-751.99"/>
<polygon fill="black" stroke="black" points="433.6,-755.01 440.49,-746.96 430.08,-748.96 433.6,-755.01"/>
</g>
<!-- BB9&#45;&gt;BB1 -->
<g id="edge14" class="edge">
<title>BB9&#45;&gt;BB1</title>
<path fill="none" stroke="black" d="M286.06,-660.55C287.09,-652.2 288.17,-643.41 289.22,-634.82"/>
<polygon fill="black" stroke="black" points="292.7,-635.21 290.45,-624.86 285.75,-634.36 292.7,-635.21"/>
</g>
<!-- BB9&#45;&gt;BB10 -->
<g id="edge15" class="edge">
<title>BB9&#45;&gt;BB10</title>
<path fill="none" stroke="black" d="M383.49,-708.92C385.94,-708.92 388.4,-708.92 390.85,-708.92"/>
<polygon fill="black" stroke="black" points="390.94,-712.42 400.94,-708.92 390.94,-705.42 390.94,-712.42"/>
</g>
</g>
</svg>
