<?xml version="1.0" encoding="UTF-8" standalone="no"?>
<!DOCTYPE svg PUBLIC "-//W3C//DTD SVG 1.1//EN"
 "http://www.w3.org/Graphics/SVG/1.1/DTD/svg11.dtd">
<!-- Generated by graphviz version 2.47.0 (20210316.0004)
 -->
<!-- Title: G Pages: 1 -->
<svg width="294pt" height="690pt"
 viewBox="0.00 0.00 294.27 689.92" xmlns="http://www.w3.org/2000/svg" xmlns:xlink="http://www.w3.org/1999/xlink">
<g id="graph0" class="graph" transform="scale(1 1) rotate(0) translate(4 685.92)">
<title>G</title>
<polygon fill="white" stroke="transparent" points="-4,4 -4,-685.92 290.27,-685.92 290.27,4 -4,4"/>
<!-- BB0 -->
<g id="node1" class="node">
<title>BB0</title>
<ellipse fill="none" stroke="black" cx="139.84" cy="-655.05" rx="37.45" ry="26.74"/>
<text text-anchor="middle" x="139.84" y="-658.85" font-family="Times New Roman,serif" font-size="14.00">[0..1a)</text>
<text text-anchor="middle" x="139.84" y="-643.85" font-family="Times New Roman,serif" font-size="14.00">0.00</text>
</g>
<!-- BB8 -->
<g id="node9" class="node">
<title>BB8</title>
<ellipse fill="none" stroke="black" cx="139.84" cy="-565.31" rx="43.68" ry="26.74"/>
<text text-anchor="middle" x="139.84" y="-569.11" font-family="Times New Roman,serif" font-size="14.00">[bd..c2)</text>
<text text-anchor="middle" x="139.84" y="-554.11" font-family="Times New Roman,serif" font-size="14.00">0.00</text>
</g>
<!-- BB0&#45;&gt;BB8 -->
<g id="edge1" class="edge">
<title>BB0&#45;&gt;BB8</title>
<path fill="none" stroke="black" d="M139.84,-627.73C139.84,-619.76 139.84,-610.87 139.84,-602.38"/>
<polygon fill="black" stroke="black" points="143.34,-602.31 139.84,-592.31 136.34,-602.31 143.34,-602.31"/>
</g>
<!-- BB1 -->
<g id="node2" class="node">
<title>BB1</title>
<ellipse fill="none" stroke="black" cx="141.84" cy="-385.83" rx="41.94" ry="26.74"/>
<text text-anchor="middle" x="141.84" y="-389.63" font-family="Times New Roman,serif" font-size="14.00">[1a..25)</text>
<text text-anchor="middle" x="141.84" y="-374.63" font-family="Times New Roman,serif" font-size="14.00">0.00</text>
</g>
<!-- BB6 -->
<g id="node7" class="node">
<title>BB6</title>
<ellipse fill="none" stroke="black" cx="145.84" cy="-296.09" rx="42.35" ry="26.74"/>
<text text-anchor="middle" x="145.84" y="-299.89" font-family="Times New Roman,serif" font-size="14.00">[a9..b1)</text>
<text text-anchor="middle" x="145.84" y="-284.89" font-family="Times New Roman,serif" font-size="14.00">0.00</text>
</g>
<!-- BB1&#45;&gt;BB6 -->
<g id="edge2" class="edge">
<title>BB1&#45;&gt;BB6</title>
<path fill="none" stroke="black" d="M143.04,-358.51C143.4,-350.54 143.81,-341.65 144.2,-333.16"/>
<polygon fill="black" stroke="black" points="147.7,-333.24 144.66,-323.09 140.7,-332.92 147.7,-333.24"/>
</g>
<!-- BB2 -->
<g id="node3" class="node">
<title>BB2</title>
<ellipse fill="none" stroke="black" cx="148.84" cy="-206.35" rx="43.27" ry="26.74"/>
<text text-anchor="middle" x="148.84" y="-210.15" font-family="Times New Roman,serif" font-size="14.00">[25..3b)</text>
<text text-anchor="middle" x="148.84" y="-195.15" font-family="Times New Roman,serif" font-size="14.00">0.00</text>
</g>
<!-- BB3 -->
<g id="node4" class="node">
<title>BB3</title>
<ellipse fill="none" stroke="black" cx="144.84" cy="-116.61" rx="43.27" ry="26.74"/>
<text text-anchor="middle" x="144.84" y="-120.41" font-family="Times New Roman,serif" font-size="14.00">[3b..83)</text>
<text text-anchor="middle" x="144.84" y="-105.41" font-family="Times New Roman,serif" font-size="14.00">1.00</text>
</g>
<!-- BB2&#45;&gt;BB3 -->
<g id="edge3" class="edge">
<title>BB2&#45;&gt;BB3</title>
<path fill="none" stroke="black" d="M147.64,-179.03C147.28,-171.06 146.87,-162.17 146.48,-153.68"/>
<polygon fill="black" stroke="black" points="149.98,-153.44 146.03,-143.61 142.99,-153.76 149.98,-153.44"/>
</g>
<!-- BB4 -->
<g id="node5" class="node">
<title>BB4</title>
<ellipse fill="none" stroke="black" cx="129.84" cy="-26.87" rx="42.35" ry="26.74"/>
<text text-anchor="middle" x="129.84" y="-30.67" font-family="Times New Roman,serif" font-size="14.00">[83..8c)</text>
<text text-anchor="middle" x="129.84" y="-15.67" font-family="Times New Roman,serif" font-size="14.00">0.00</text>
</g>
<!-- BB3&#45;&gt;BB4 -->
<g id="edge5" class="edge">
<title>BB3&#45;&gt;BB4</title>
<path fill="none" stroke="black" d="M134.32,-90.23C132.38,-82.01 130.64,-72.73 129.35,-63.89"/>
<polygon fill="black" stroke="black" points="132.8,-63.27 128.05,-53.8 125.85,-64.16 132.8,-63.27"/>
</g>
<!-- BB5 -->
<g id="node6" class="node">
<title>BB5</title>
<ellipse fill="none" stroke="black" cx="231.84" cy="-26.87" rx="41.94" ry="26.74"/>
<text text-anchor="middle" x="231.84" y="-30.67" font-family="Times New Roman,serif" font-size="14.00">[8c..a9)</text>
<text text-anchor="middle" x="231.84" y="-15.67" font-family="Times New Roman,serif" font-size="14.00">0.00</text>
</g>
<!-- BB3&#45;&gt;BB5 -->
<g id="edge4" class="edge">
<title>BB3&#45;&gt;BB5</title>
<path fill="none" stroke="black" d="M166.79,-93.47C177.72,-82.45 191.06,-69 202.82,-57.14"/>
<polygon fill="black" stroke="black" points="205.34,-59.57 209.89,-50 200.37,-54.64 205.34,-59.57"/>
</g>
<!-- BB4&#45;&gt;BB3 -->
<g id="edge6" class="edge">
<title>BB4&#45;&gt;BB3</title>
<path fill="none" stroke="black" d="M140.29,-52.93C142.26,-61.22 144.02,-70.61 145.33,-79.56"/>
<polygon fill="black" stroke="black" points="141.9,-80.29 146.64,-89.76 148.84,-79.4 141.9,-80.29"/>
</g>
<!-- BB4&#45;&gt;BB5 -->
<g id="edge7" class="edge">
<title>BB4&#45;&gt;BB5</title>
<path fill="none" stroke="black" d="M172.47,-26.87C174.95,-26.87 177.43,-26.87 179.91,-26.87"/>
<polygon fill="black" stroke="black" points="180.1,-30.37 190.1,-26.87 180.1,-23.37 180.1,-30.37"/>
</g>
<!-- BB5&#45;&gt;BB6 -->
<g id="edge8" class="edge">
<title>BB5&#45;&gt;BB6</title>
<path fill="none" stroke="black" d="M232.55,-53.87C232.65,-94.21 228.84,-173.48 200.84,-233.22 195.16,-245.34 186.34,-256.82 177.41,-266.54"/>
<polygon fill="black" stroke="black" points="174.71,-264.3 170.28,-273.92 179.74,-269.16 174.71,-264.3"/>
</g>
<!-- BB6&#45;&gt;BB2 -->
<g id="edge9" class="edge">
<title>BB6&#45;&gt;BB2</title>
<path fill="none" stroke="black" d="M146.74,-268.77C147.01,-260.8 147.32,-251.91 147.61,-243.42"/>
<polygon fill="black" stroke="black" points="151.11,-243.47 147.95,-233.35 144.11,-243.23 151.11,-243.47"/>
</g>
<!-- BB7 -->
<g id="node8" class="node">
<title>BB7</title>
<ellipse fill="none" stroke="black" cx="43.84" cy="-206.35" rx="43.68" ry="26.74"/>
<text text-anchor="middle" x="43.84" y="-210.15" font-family="Times New Roman,serif" font-size="14.00">[b1..bd)</text>
<text text-anchor="middle" x="43.84" y="-195.15" font-family="Times New Roman,serif" font-size="14.00">0.00</text>
</g>
<!-- BB6&#45;&gt;BB7 -->
<g id="edge10" class="edge">
<title>BB6&#45;&gt;BB7</title>
<path fill="none" stroke="black" d="M121.41,-274.07C107.98,-262.52 91.15,-248.04 76.6,-235.53"/>
<polygon fill="black" stroke="black" points="78.64,-232.67 68.78,-228.8 74.08,-237.98 78.64,-232.67"/>
</g>
<!-- BB7&#45;&gt;BB8 -->
<g id="edge11" class="edge">
<title>BB7&#45;&gt;BB8</title>
<path fill="none" stroke="black" d="M43.08,-233.54C42.51,-286.71 46.23,-410.12 87.84,-502.44 93.07,-514.03 101.11,-525.17 109.32,-534.72"/>
<polygon fill="black" stroke="black" points="106.9,-537.27 116.2,-542.35 112.1,-532.58 106.9,-537.27"/>
</g>
<!-- BB9 -->
<g id="node10" class="node">
<title>BB9</title>
<ellipse fill="none" stroke="black" cx="139.84" cy="-475.57" rx="43.27" ry="26.74"/>
<text text-anchor="middle" x="139.84" y="-479.37" font-family="Times New Roman,serif" font-size="14.00">[c2..cd)</text>
<text text-anchor="middle" x="139.84" y="-464.37" font-family="Times New Roman,serif" font-size="14.00">0.00</text>
</g>
<!-- BB8&#45;&gt;BB9 -->
<g id="edge13" class="edge">
<title>BB8&#45;&gt;BB9</title>
<path fill="none" stroke="black" d="M139.84,-537.99C139.84,-530.02 139.84,-521.13 139.84,-512.64"/>
<polygon fill="black" stroke="black" points="143.34,-512.57 139.84,-502.57 136.34,-512.57 143.34,-512.57"/>
</g>
<!-- BB10 -->
<g id="node11" class="node">
<title>BB10</title>
<ellipse fill="none" stroke="black" cx="243.84" cy="-475.57" rx="42.35" ry="26.74"/>
<text text-anchor="middle" x="243.84" y="-479.37" font-family="Times New Roman,serif" font-size="14.00">[cd..ce)</text>
<text text-anchor="middle" x="243.84" y="-464.37" font-family="Times New Roman,serif" font-size="14.00">0.00</text>
</g>
<!-- BB8&#45;&gt;BB10 -->
<g id="edge12" class="edge">
<title>BB8&#45;&gt;BB10</title>
<path fill="none" stroke="black" d="M165.02,-543.07C178.81,-531.43 196.08,-516.87 210.93,-504.33"/>
<polygon fill="black" stroke="black" points="213.51,-506.74 218.9,-497.61 209,-501.39 213.51,-506.74"/>
</g>
<!-- BB9&#45;&gt;BB1 -->
<g id="edge14" class="edge">
<title>BB9&#45;&gt;BB1</title>
<path fill="none" stroke="black" d="M140.44,-448.25C140.62,-440.28 140.82,-431.39 141.02,-422.9"/>
<polygon fill="black" stroke="black" points="144.52,-422.91 141.25,-412.83 137.52,-422.75 144.52,-422.91"/>
</g>
<!-- BB9&#45;&gt;BB10 -->
<g id="edge15" class="edge">
<title>BB9&#45;&gt;BB10</title>
<path fill="none" stroke="black" d="M183.31,-475.57C185.93,-475.57 188.55,-475.57 191.17,-475.57"/>
<polygon fill="black" stroke="black" points="191.28,-479.07 201.28,-475.57 191.28,-472.07 191.28,-479.07"/>
</g>
</g>
</svg>
