<?xml version="1.0" encoding="UTF-8" standalone="no"?>
<!DOCTYPE svg PUBLIC "-//W3C//DTD SVG 1.1//EN"
 "http://www.w3.org/Graphics/SVG/1.1/DTD/svg11.dtd">
<!-- Generated by graphviz version 2.47.0 (20210316.0004)
 -->
<!-- Title: G Pages: 1 -->
<svg width="615pt" height="1029pt"
 viewBox="0.00 0.00 615.48 1029.33" xmlns="http://www.w3.org/2000/svg" xmlns:xlink="http://www.w3.org/1999/xlink">
<g id="graph0" class="graph" transform="scale(1 1) rotate(0) translate(4 1025.33)">
<title>G</title>
<polygon fill="white" stroke="transparent" points="-4,4 -4,-1025.33 611.48,-1025.33 611.48,4 -4,4"/>
<!-- BB0 -->
<g id="node1" class="node">
<title>BB0</title>
<ellipse fill="none" stroke="black" cx="280.24" cy="-973.25" rx="103.48" ry="48.17"/>
<text text-anchor="middle" x="280.24" y="-992.05" font-family="Times New Roman,serif" font-size="14.00">[0..1a)</text>
<text text-anchor="middle" x="280.24" y="-977.05" font-family="Times New Roman,serif" font-size="14.00">Count: 2</text>
<text text-anchor="middle" x="280.24" y="-962.05" font-family="Times New Roman,serif" font-size="14.00">Normalized count: 1.00</text>
<text text-anchor="middle" x="280.24" y="-947.05" font-family="Times New Roman,serif" font-size="14.00">Samples weight: 0.00</text>
</g>
<!-- BB8 -->
<g id="node9" class="node">
<title>BB8</title>
<ellipse fill="none" stroke="black" cx="280.24" cy="-841.08" rx="103.48" ry="48.17"/>
<text text-anchor="middle" x="280.24" y="-859.88" font-family="Times New Roman,serif" font-size="14.00">[a6..ab)</text>
<text text-anchor="middle" x="280.24" y="-844.88" font-family="Times New Roman,serif" font-size="14.00">Count: 3</text>
<text text-anchor="middle" x="280.24" y="-829.88" font-family="Times New Roman,serif" font-size="14.00">Normalized count: 1.50</text>
<text text-anchor="middle" x="280.24" y="-814.88" font-family="Times New Roman,serif" font-size="14.00">Samples weight: 0.00</text>
</g>
<!-- BB0&#45;&gt;BB8 -->
<g id="edge1" class="edge">
<title>BB0&#45;&gt;BB8</title>
<path fill="none" stroke="black" d="M280.24,-924.89C280.24,-916.62 280.24,-907.94 280.24,-899.43"/>
<polygon fill="black" stroke="black" points="283.74,-899.19 280.24,-889.19 276.74,-899.19 283.74,-899.19"/>
</g>
<!-- BB1 -->
<g id="node2" class="node">
<title>BB1</title>
<ellipse fill="none" stroke="black" cx="292.24" cy="-576.75" rx="103.48" ry="48.17"/>
<text text-anchor="middle" x="292.24" y="-595.55" font-family="Times New Roman,serif" font-size="14.00">[1a..22)</text>
<text text-anchor="middle" x="292.24" y="-580.55" font-family="Times New Roman,serif" font-size="14.00">Count: 1</text>
<text text-anchor="middle" x="292.24" y="-565.55" font-family="Times New Roman,serif" font-size="14.00">Normalized count: 0.50</text>
<text text-anchor="middle" x="292.24" y="-550.55" font-family="Times New Roman,serif" font-size="14.00">Samples weight: 0.00</text>
</g>
<!-- BB6 -->
<g id="node7" class="node">
<title>BB6</title>
<ellipse fill="none" stroke="black" cx="303.24" cy="-444.58" rx="103.48" ry="48.17"/>
<text text-anchor="middle" x="303.24" y="-463.38" font-family="Times New Roman,serif" font-size="14.00">[95..9a)</text>
<text text-anchor="middle" x="303.24" y="-448.38" font-family="Times New Roman,serif" font-size="14.00">Count: 5</text>
<text text-anchor="middle" x="303.24" y="-433.38" font-family="Times New Roman,serif" font-size="14.00">Normalized count: 2.50</text>
<text text-anchor="middle" x="303.24" y="-418.38" font-family="Times New Roman,serif" font-size="14.00">Samples weight: 0.00</text>
</g>
<!-- BB1&#45;&gt;BB6 -->
<g id="edge2" class="edge">
<title>BB1&#45;&gt;BB6</title>
<path fill="none" stroke="black" d="M296.24,-528.39C296.94,-520.12 297.67,-511.44 298.39,-502.93"/>
<polygon fill="black" stroke="black" points="301.9,-502.95 299.26,-492.69 294.93,-502.36 301.9,-502.95"/>
</g>
<!-- BB2 -->
<g id="node3" class="node">
<title>BB2</title>
<ellipse fill="none" stroke="black" cx="327.24" cy="-312.42" rx="103.48" ry="48.17"/>
<text text-anchor="middle" x="327.24" y="-331.22" font-family="Times New Roman,serif" font-size="14.00">[22..3f)</text>
<text text-anchor="middle" x="327.24" y="-316.22" font-family="Times New Roman,serif" font-size="14.00">Count: 4</text>
<text text-anchor="middle" x="327.24" y="-301.22" font-family="Times New Roman,serif" font-size="14.00">Normalized count: 2.00</text>
<text text-anchor="middle" x="327.24" y="-286.22" font-family="Times New Roman,serif" font-size="14.00">Samples weight: 0.00</text>
</g>
<!-- BB3 -->
<g id="node4" class="node">
<title>BB3</title>
<ellipse fill="none" stroke="black" cx="299.24" cy="-180.25" rx="113.27" ry="48.17"/>
<text text-anchor="middle" x="299.24" y="-199.05" font-family="Times New Roman,serif" font-size="14.00">[3f..6f)</text>
<text text-anchor="middle" x="299.24" y="-184.05" font-family="Times New Roman,serif" font-size="14.00">Count: 1511</text>
<text text-anchor="middle" x="299.24" y="-169.05" font-family="Times New Roman,serif" font-size="14.00">Normalized count: 755.50</text>
<text text-anchor="middle" x="299.24" y="-154.05" font-family="Times New Roman,serif" font-size="14.00">Samples weight: 0.50</text>
</g>
<!-- BB2&#45;&gt;BB3 -->
<g id="edge3" class="edge">
<title>BB2&#45;&gt;BB3</title>
<path fill="none" stroke="black" d="M317.13,-264.42C315.29,-255.85 313.34,-246.83 311.45,-238.01"/>
<polygon fill="black" stroke="black" points="314.86,-237.21 309.33,-228.17 308.01,-238.69 314.86,-237.21"/>
</g>
<!-- BB4 -->
<g id="node5" class="node">
<title>BB4</title>
<ellipse fill="none" stroke="black" cx="253.24" cy="-48.08" rx="113.27" ry="48.17"/>
<text text-anchor="middle" x="253.24" y="-66.88" font-family="Times New Roman,serif" font-size="14.00">[6f..78)</text>
<text text-anchor="middle" x="253.24" y="-51.88" font-family="Times New Roman,serif" font-size="14.00">Count: 1507</text>
<text text-anchor="middle" x="253.24" y="-36.88" font-family="Times New Roman,serif" font-size="14.00">Normalized count: 753.50</text>
<text text-anchor="middle" x="253.24" y="-21.88" font-family="Times New Roman,serif" font-size="14.00">Samples weight: 0.50</text>
</g>
<!-- BB3&#45;&gt;BB4 -->
<g id="edge5" class="edge">
<title>BB3&#45;&gt;BB4</title>
<path fill="none" stroke="black" d="M276.4,-132.99C273.04,-124.19 269.68,-114.89 266.58,-105.81"/>
<polygon fill="black" stroke="black" points="269.82,-104.45 263.33,-96.07 263.18,-106.66 269.82,-104.45"/>
</g>
<!-- BB5 -->
<g id="node6" class="node">
<title>BB5</title>
<ellipse fill="none" stroke="black" cx="487.24" cy="-48.08" rx="103.48" ry="48.17"/>
<text text-anchor="middle" x="487.24" y="-66.88" font-family="Times New Roman,serif" font-size="14.00">[78..95)</text>
<text text-anchor="middle" x="487.24" y="-51.88" font-family="Times New Roman,serif" font-size="14.00">Count: 4</text>
<text text-anchor="middle" x="487.24" y="-36.88" font-family="Times New Roman,serif" font-size="14.00">Normalized count: 2.00</text>
<text text-anchor="middle" x="487.24" y="-21.88" font-family="Times New Roman,serif" font-size="14.00">Samples weight: 0.00</text>
</g>
<!-- BB3&#45;&gt;BB5 -->
<g id="edge4" class="edge">
<title>BB3&#45;&gt;BB5</title>
<path fill="none" stroke="black" d="M357.43,-138.96C378,-124.72 401.25,-108.62 422.33,-94.02"/>
<polygon fill="black" stroke="black" points="424.38,-96.86 430.6,-88.29 420.39,-91.11 424.38,-96.86"/>
</g>
<!-- BB4&#45;&gt;BB3 -->
<g id="edge6" class="edge">
<title>BB4&#45;&gt;BB3</title>
<path fill="none" stroke="black" d="M276.16,-95.57C279.5,-104.32 282.83,-113.56 285.91,-122.59"/>
<polygon fill="black" stroke="black" points="282.65,-123.88 289.14,-132.26 289.29,-121.66 282.65,-123.88"/>
</g>
<!-- BB4&#45;&gt;BB5 -->
<g id="edge7" class="edge">
<title>BB4&#45;&gt;BB5</title>
<path fill="none" stroke="black" d="M366.58,-48.08C368.88,-48.08 371.18,-48.08 373.47,-48.08"/>
<polygon fill="black" stroke="black" points="373.55,-51.58 383.55,-48.08 373.55,-44.58 373.55,-51.58"/>
</g>
<!-- BB5&#45;&gt;BB6 -->
<g id="edge8" class="edge">
<title>BB5&#45;&gt;BB6</title>
<path fill="none" stroke="black" d="M491.65,-96.18C495.33,-161.23 493.07,-279.69 439.24,-360.5 426.61,-379.45 408.04,-394.81 388.66,-406.92"/>
<polygon fill="black" stroke="black" points="386.8,-403.95 380.02,-412.09 390.4,-409.96 386.8,-403.95"/>
</g>
<!-- BB6&#45;&gt;BB2 -->
<g id="edge9" class="edge">
<title>BB6&#45;&gt;BB2</title>
<path fill="none" stroke="black" d="M311.9,-396.59C313.47,-388.11 315.11,-379.19 316.72,-370.46"/>
<polygon fill="black" stroke="black" points="320.21,-370.81 318.59,-360.34 313.33,-369.54 320.21,-370.81"/>
</g>
<!-- BB7 -->
<g id="node8" class="node">
<title>BB7</title>
<ellipse fill="none" stroke="black" cx="103.24" cy="-312.42" rx="103.48" ry="48.17"/>
<text text-anchor="middle" x="103.24" y="-331.22" font-family="Times New Roman,serif" font-size="14.00">[9a..a6)</text>
<text text-anchor="middle" x="103.24" y="-316.22" font-family="Times New Roman,serif" font-size="14.00">Count: 1</text>
<text text-anchor="middle" x="103.24" y="-301.22" font-family="Times New Roman,serif" font-size="14.00">Normalized count: 0.50</text>
<text text-anchor="middle" x="103.24" y="-286.22" font-family="Times New Roman,serif" font-size="14.00">Samples weight: 0.00</text>
</g>
<!-- BB6&#45;&gt;BB7 -->
<g id="edge10" class="edge">
<title>BB6&#45;&gt;BB7</title>
<path fill="none" stroke="black" d="M244.04,-405.06C221.17,-390.17 194.85,-373.04 171.21,-357.65"/>
<polygon fill="black" stroke="black" points="172.92,-354.59 162.63,-352.07 169.1,-360.46 172.92,-354.59"/>
</g>
<!-- BB7&#45;&gt;BB8 -->
<g id="edge11" class="edge">
<title>BB7&#45;&gt;BB8</title>
<path fill="none" stroke="black" d="M98.88,-360.68C93.3,-446.25 92.13,-629.75 168.24,-757 177.62,-772.69 191.22,-786.35 205.72,-797.82"/>
<polygon fill="black" stroke="black" points="203.76,-800.73 213.85,-803.96 207.98,-795.14 203.76,-800.73"/>
</g>
<!-- BB9 -->
<g id="node10" class="node">
<title>BB9</title>
<ellipse fill="none" stroke="black" cx="280.24" cy="-708.92" rx="103.48" ry="48.17"/>
<text text-anchor="middle" x="280.24" y="-727.72" font-family="Times New Roman,serif" font-size="14.00">[ab..b6)</text>
<text text-anchor="middle" x="280.24" y="-712.72" font-family="Times New Roman,serif" font-size="14.00">Count: 1</text>
<text text-anchor="middle" x="280.24" y="-697.72" font-family="Times New Roman,serif" font-size="14.00">Normalized count: 0.50</text>
<text text-anchor="middle" x="280.24" y="-682.72" font-family="Times New Roman,serif" font-size="14.00">Samples weight: 0.00</text>
</g>
<!-- BB8&#45;&gt;BB9 -->
<g id="edge13" class="edge">
<title>BB8&#45;&gt;BB9</title>
<path fill="none" stroke="black" d="M280.24,-792.72C280.24,-784.45 280.24,-775.77 280.24,-767.27"/>
<polygon fill="black" stroke="black" points="283.74,-767.02 280.24,-757.02 276.74,-767.02 283.74,-767.02"/>
</g>
<!-- BB10 -->
<g id="node11" class="node">
<title>BB10</title>
<ellipse fill="none" stroke="black" cx="504.24" cy="-708.92" rx="103.48" ry="48.17"/>
<text text-anchor="middle" x="504.24" y="-727.72" font-family="Times New Roman,serif" font-size="14.00">[b6..b7)</text>
<text text-anchor="middle" x="504.24" y="-712.72" font-family="Times New Roman,serif" font-size="14.00">Count: 2</text>
<text text-anchor="middle" x="504.24" y="-697.72" font-family="Times New Roman,serif" font-size="14.00">Normalized count: 1.00</text>
<text text-anchor="middle" x="504.24" y="-682.72" font-family="Times New Roman,serif" font-size="14.00">Samples weight: 0.00</text>
</g>
<!-- BB8&#45;&gt;BB10 -->
<g id="edge12" class="edge">
<title>BB8&#45;&gt;BB10</title>
<path fill="none" stroke="black" d="M343.83,-803.13C371.26,-787.19 403.48,-768.46 431.83,-751.99"/>
<polygon fill="black" stroke="black" points="433.6,-755.01 440.49,-746.96 430.08,-748.96 433.6,-755.01"/>
</g>
<!-- BB9&#45;&gt;BB1 -->
<g id="edge14" class="edge">
<title>BB9&#45;&gt;BB1</title>
<path fill="none" stroke="black" d="M284.6,-660.55C285.37,-652.2 286.18,-643.41 286.98,-634.82"/>
<polygon fill="black" stroke="black" points="290.46,-635.14 287.89,-624.86 283.49,-634.49 290.46,-635.14"/>
</g>
<!-- BB9&#45;&gt;BB10 -->
<g id="edge15" class="edge">
<title>BB9&#45;&gt;BB10</title>
<path fill="none" stroke="black" d="M383.49,-708.92C385.94,-708.92 388.4,-708.92 390.85,-708.92"/>
<polygon fill="black" stroke="black" points="390.94,-712.42 400.94,-708.92 390.94,-705.42 390.94,-712.42"/>
</g>
</g>
</svg>
