<?xml version="1.0" encoding="UTF-8" standalone="no"?>
<!DOCTYPE svg PUBLIC "-//W3C//DTD SVG 1.1//EN"
 "http://www.w3.org/Graphics/SVG/1.1/DTD/svg11.dtd">
<!-- Generated by graphviz version 2.47.0 (20210316.0004)
 -->
<!-- Title: G Pages: 1 -->
<svg width="618pt" height="1029pt"
 viewBox="0.00 0.00 618.42 1029.33" xmlns="http://www.w3.org/2000/svg" xmlns:xlink="http://www.w3.org/1999/xlink">
<g id="graph0" class="graph" transform="scale(1 1) rotate(0) translate(4 1025.33)">
<title>G</title>
<polygon fill="white" stroke="transparent" points="-4,4 -4,-1025.33 614.42,-1025.33 614.42,4 -4,4"/>
<!-- BB0 -->
<g id="node1" class="node">
<title>BB0</title>
<ellipse fill="none" stroke="black" cx="280.24" cy="-973.25" rx="103.48" ry="48.17"/>
<text text-anchor="middle" x="280.24" y="-992.05" font-family="Times New Roman,serif" font-size="14.00">[0..1a)</text>
<text text-anchor="middle" x="280.24" y="-977.05" font-family="Times New Roman,serif" font-size="14.00">Count: 2</text>
<text text-anchor="middle" x="280.24" y="-962.05" font-family="Times New Roman,serif" font-size="14.00">Normalized count: 1.00</text>
<text text-anchor="middle" x="280.24" y="-947.05" font-family="Times New Roman,serif" font-size="14.00">Samples weight: 0.00</text>
</g>
<!-- BB8 -->
<g id="node9" class="node">
<title>BB8</title>
<ellipse fill="none" stroke="black" cx="280.24" cy="-841.08" rx="103.48" ry="48.17"/>
<text text-anchor="middle" x="280.24" y="-859.88" font-family="Times New Roman,serif" font-size="14.00">[a6..ab)</text>
<text text-anchor="middle" x="280.24" y="-844.88" font-family="Times New Roman,serif" font-size="14.00">Count: 3</text>
<text text-anchor="middle" x="280.24" y="-829.88" font-family="Times New Roman,serif" font-size="14.00">Normalized count: 1.50</text>
<text text-anchor="middle" x="280.24" y="-814.88" font-family="Times New Roman,serif" font-size="14.00">Samples weight: 0.00</text>
</g>
<!-- BB0&#45;&gt;BB8 -->
<g id="edge1" class="edge">
<title>BB0&#45;&gt;BB8</title>
<path fill="none" stroke="black" d="M280.24,-924.89C280.24,-916.62 280.24,-907.94 280.24,-899.43"/>
<polygon fill="black" stroke="black" points="283.74,-899.19 280.24,-889.19 276.74,-899.19 283.74,-899.19"/>
</g>
<!-- BB1 -->
<g id="node2" class="node">
<title>BB1</title>
<ellipse fill="none" stroke="black" cx="294.24" cy="-576.75" rx="103.48" ry="48.17"/>
<text text-anchor="middle" x="294.24" y="-595.55" font-family="Times New Roman,serif" font-size="14.00">[1a..22)</text>
<text text-anchor="middle" x="294.24" y="-580.55" font-family="Times New Roman,serif" font-size="14.00">Count: 1</text>
<text text-anchor="middle" x="294.24" y="-565.55" font-family="Times New Roman,serif" font-size="14.00">Normalized count: 0.50</text>
<text text-anchor="middle" x="294.24" y="-550.55" font-family="Times New Roman,serif" font-size="14.00">Samples weight: 0.00</text>
</g>
<!-- BB6 -->
<g id="node7" class="node">
<title>BB6</title>
<ellipse fill="none" stroke="black" cx="308.24" cy="-444.58" rx="108.38" ry="48.17"/>
<text text-anchor="middle" x="308.24" y="-463.38" font-family="Times New Roman,serif" font-size="14.00">[95..9a)</text>
<text text-anchor="middle" x="308.24" y="-448.38" font-family="Times New Roman,serif" font-size="14.00">Count: 178</text>
<text text-anchor="middle" x="308.24" y="-433.38" font-family="Times New Roman,serif" font-size="14.00">Normalized count: 89.00</text>
<text text-anchor="middle" x="308.24" y="-418.38" font-family="Times New Roman,serif" font-size="14.00">Samples weight: 0.00</text>
</g>
<!-- BB1&#45;&gt;BB6 -->
<g id="edge2" class="edge">
<title>BB1&#45;&gt;BB6</title>
<path fill="none" stroke="black" d="M299.33,-528.39C300.23,-520.03 301.18,-511.25 302.1,-502.65"/>
<polygon fill="black" stroke="black" points="305.58,-503.01 303.17,-492.69 298.62,-502.26 305.58,-503.01"/>
</g>
<!-- BB2 -->
<g id="node3" class="node">
<title>BB2</title>
<ellipse fill="none" stroke="black" cx="332.24" cy="-312.42" rx="108.38" ry="48.17"/>
<text text-anchor="middle" x="332.24" y="-331.22" font-family="Times New Roman,serif" font-size="14.00">[22..3f)</text>
<text text-anchor="middle" x="332.24" y="-316.22" font-family="Times New Roman,serif" font-size="14.00">Count: 177</text>
<text text-anchor="middle" x="332.24" y="-301.22" font-family="Times New Roman,serif" font-size="14.00">Normalized count: 88.50</text>
<text text-anchor="middle" x="332.24" y="-286.22" font-family="Times New Roman,serif" font-size="14.00">Samples weight: 0.00</text>
</g>
<!-- BB3 -->
<g id="node4" class="node">
<title>BB3</title>
<ellipse fill="none" stroke="black" cx="298.24" cy="-180.25" rx="127.06" ry="48.17"/>
<text text-anchor="middle" x="298.24" y="-199.05" font-family="Times New Roman,serif" font-size="14.00">[3f..6f)</text>
<text text-anchor="middle" x="298.24" y="-184.05" font-family="Times New Roman,serif" font-size="14.00">Count: 231284</text>
<text text-anchor="middle" x="298.24" y="-169.05" font-family="Times New Roman,serif" font-size="14.00">Normalized count: 115642.00</text>
<text text-anchor="middle" x="298.24" y="-154.05" font-family="Times New Roman,serif" font-size="14.00">Samples weight: 0.50</text>
</g>
<!-- BB2&#45;&gt;BB3 -->
<g id="edge3" class="edge">
<title>BB2&#45;&gt;BB3</title>
<path fill="none" stroke="black" d="M319.96,-264.42C317.72,-255.85 315.37,-246.83 313.06,-238.01"/>
<polygon fill="black" stroke="black" points="316.41,-236.96 310.49,-228.17 309.64,-238.73 316.41,-236.96"/>
</g>
<!-- BB4 -->
<g id="node5" class="node">
<title>BB4</title>
<ellipse fill="none" stroke="black" cx="249.24" cy="-48.08" rx="127.06" ry="48.17"/>
<text text-anchor="middle" x="249.24" y="-66.88" font-family="Times New Roman,serif" font-size="14.00">[6f..78)</text>
<text text-anchor="middle" x="249.24" y="-51.88" font-family="Times New Roman,serif" font-size="14.00">Count: 231107</text>
<text text-anchor="middle" x="249.24" y="-36.88" font-family="Times New Roman,serif" font-size="14.00">Normalized count: 115553.50</text>
<text text-anchor="middle" x="249.24" y="-21.88" font-family="Times New Roman,serif" font-size="14.00">Samples weight: 0.50</text>
</g>
<!-- BB3&#45;&gt;BB4 -->
<g id="edge5" class="edge">
<title>BB3&#45;&gt;BB4</title>
<path fill="none" stroke="black" d="M274.33,-132.99C270.73,-124.1 267.12,-114.69 263.78,-105.52"/>
<polygon fill="black" stroke="black" points="267.07,-104.31 260.41,-96.07 260.48,-106.67 267.07,-104.31"/>
</g>
<!-- BB5 -->
<g id="node6" class="node">
<title>BB5</title>
<ellipse fill="none" stroke="black" cx="502.24" cy="-48.08" rx="108.38" ry="48.17"/>
<text text-anchor="middle" x="502.24" y="-66.88" font-family="Times New Roman,serif" font-size="14.00">[78..95)</text>
<text text-anchor="middle" x="502.24" y="-51.88" font-family="Times New Roman,serif" font-size="14.00">Count: 177</text>
<text text-anchor="middle" x="502.24" y="-36.88" font-family="Times New Roman,serif" font-size="14.00">Normalized count: 88.50</text>
<text text-anchor="middle" x="502.24" y="-21.88" font-family="Times New Roman,serif" font-size="14.00">Samples weight: 0.00</text>
</g>
<!-- BB3&#45;&gt;BB5 -->
<g id="edge4" class="edge">
<title>BB3&#45;&gt;BB5</title>
<path fill="none" stroke="black" d="M361.95,-138.6C384.44,-124.25 409.84,-108.04 432.79,-93.4"/>
<polygon fill="black" stroke="black" points="434.9,-96.2 441.45,-87.87 431.14,-90.3 434.9,-96.2"/>
</g>
<!-- BB4&#45;&gt;BB3 -->
<g id="edge6" class="edge">
<title>BB4&#45;&gt;BB3</title>
<path fill="none" stroke="black" d="M273.24,-95.57C276.77,-104.32 280.32,-113.56 283.61,-122.59"/>
<polygon fill="black" stroke="black" points="280.4,-124.02 287.06,-132.26 286.99,-121.66 280.4,-124.02"/>
</g>
<!-- BB4&#45;&gt;BB5 -->
<g id="edge7" class="edge">
<title>BB4&#45;&gt;BB5</title>
<path fill="none" stroke="black" d="M376.73,-48.08C379.05,-48.08 381.37,-48.08 383.7,-48.08"/>
<polygon fill="black" stroke="black" points="383.89,-51.58 393.89,-48.08 383.89,-44.58 383.89,-51.58"/>
</g>
<!-- BB5&#45;&gt;BB6 -->
<g id="edge8" class="edge">
<title>BB5&#45;&gt;BB6</title>
<path fill="none" stroke="black" d="M505.93,-96.36C508.6,-161.63 504.48,-280.35 449.24,-360.5 436.11,-379.55 417.06,-394.89 397.19,-406.95"/>
<polygon fill="black" stroke="black" points="395.22,-404.05 388.33,-412.09 398.73,-410.1 395.22,-404.05"/>
</g>
<!-- BB6&#45;&gt;BB2 -->
<g id="edge9" class="edge">
<title>BB6&#45;&gt;BB2</title>
<path fill="none" stroke="black" d="M316.9,-396.59C318.45,-388.22 320.07,-379.41 321.66,-370.78"/>
<polygon fill="black" stroke="black" points="325.13,-371.25 323.51,-360.78 318.25,-369.98 325.13,-371.25"/>
</g>
<!-- BB7 -->
<g id="node8" class="node">
<title>BB7</title>
<ellipse fill="none" stroke="black" cx="103.24" cy="-312.42" rx="103.48" ry="48.17"/>
<text text-anchor="middle" x="103.24" y="-331.22" font-family="Times New Roman,serif" font-size="14.00">[9a..a6)</text>
<text text-anchor="middle" x="103.24" y="-316.22" font-family="Times New Roman,serif" font-size="14.00">Count: 1</text>
<text text-anchor="middle" x="103.24" y="-301.22" font-family="Times New Roman,serif" font-size="14.00">Normalized count: 0.50</text>
<text text-anchor="middle" x="103.24" y="-286.22" font-family="Times New Roman,serif" font-size="14.00">Samples weight: 0.00</text>
</g>
<!-- BB6&#45;&gt;BB7 -->
<g id="edge10" class="edge">
<title>BB6&#45;&gt;BB7</title>
<path fill="none" stroke="black" d="M247.01,-404.7C223.37,-389.69 196.21,-372.45 171.91,-357.02"/>
<polygon fill="black" stroke="black" points="173.76,-354.05 163.45,-351.65 170.01,-359.96 173.76,-354.05"/>
</g>
<!-- BB7&#45;&gt;BB8 -->
<g id="edge11" class="edge">
<title>BB7&#45;&gt;BB8</title>
<path fill="none" stroke="black" d="M98.88,-360.68C93.3,-446.25 92.13,-629.75 168.24,-757 177.62,-772.69 191.22,-786.35 205.72,-797.82"/>
<polygon fill="black" stroke="black" points="203.76,-800.73 213.85,-803.96 207.98,-795.14 203.76,-800.73"/>
</g>
<!-- BB9 -->
<g id="node10" class="node">
<title>BB9</title>
<ellipse fill="none" stroke="black" cx="280.24" cy="-708.92" rx="103.48" ry="48.17"/>
<text text-anchor="middle" x="280.24" y="-727.72" font-family="Times New Roman,serif" font-size="14.00">[ab..b6)</text>
<text text-anchor="middle" x="280.24" y="-712.72" font-family="Times New Roman,serif" font-size="14.00">Count: 1</text>
<text text-anchor="middle" x="280.24" y="-697.72" font-family="Times New Roman,serif" font-size="14.00">Normalized count: 0.50</text>
<text text-anchor="middle" x="280.24" y="-682.72" font-family="Times New Roman,serif" font-size="14.00">Samples weight: 0.00</text>
</g>
<!-- BB8&#45;&gt;BB9 -->
<g id="edge13" class="edge">
<title>BB8&#45;&gt;BB9</title>
<path fill="none" stroke="black" d="M280.24,-792.72C280.24,-784.45 280.24,-775.77 280.24,-767.27"/>
<polygon fill="black" stroke="black" points="283.74,-767.02 280.24,-757.02 276.74,-767.02 283.74,-767.02"/>
</g>
<!-- BB10 -->
<g id="node11" class="node">
<title>BB10</title>
<ellipse fill="none" stroke="black" cx="504.24" cy="-708.92" rx="103.48" ry="48.17"/>
<text text-anchor="middle" x="504.24" y="-727.72" font-family="Times New Roman,serif" font-size="14.00">[b6..b7)</text>
<text text-anchor="middle" x="504.24" y="-712.72" font-family="Times New Roman,serif" font-size="14.00">Count: 2</text>
<text text-anchor="middle" x="504.24" y="-697.72" font-family="Times New Roman,serif" font-size="14.00">Normalized count: 1.00</text>
<text text-anchor="middle" x="504.24" y="-682.72" font-family="Times New Roman,serif" font-size="14.00">Samples weight: 0.00</text>
</g>
<!-- BB8&#45;&gt;BB10 -->
<g id="edge12" class="edge">
<title>BB8&#45;&gt;BB10</title>
<path fill="none" stroke="black" d="M343.83,-803.13C371.26,-787.19 403.48,-768.46 431.83,-751.99"/>
<polygon fill="black" stroke="black" points="433.6,-755.01 440.49,-746.96 430.08,-748.96 433.6,-755.01"/>
</g>
<!-- BB9&#45;&gt;BB1 -->
<g id="edge14" class="edge">
<title>BB9&#45;&gt;BB1</title>
<path fill="none" stroke="black" d="M285.33,-660.55C286.23,-652.2 287.18,-643.41 288.1,-634.82"/>
<polygon fill="black" stroke="black" points="291.58,-635.17 289.17,-624.86 284.62,-634.43 291.58,-635.17"/>
</g>
<!-- BB9&#45;&gt;BB10 -->
<g id="edge15" class="edge">
<title>BB9&#45;&gt;BB10</title>
<path fill="none" stroke="black" d="M383.49,-708.92C385.94,-708.92 388.4,-708.92 390.85,-708.92"/>
<polygon fill="black" stroke="black" points="390.94,-712.42 400.94,-708.92 390.94,-705.42 390.94,-712.42"/>
</g>
</g>
</svg>
