<?xml version="1.0" encoding="UTF-8" standalone="no"?>
<!DOCTYPE svg PUBLIC "-//W3C//DTD SVG 1.1//EN"
 "http://www.w3.org/Graphics/SVG/1.1/DTD/svg11.dtd">
<!-- Generated by graphviz version 2.47.0 (20210316.0004)
 -->
<!-- Title: G Pages: 1 -->
<svg width="328pt" height="780pt"
 viewBox="0.00 0.00 328.24 779.66" xmlns="http://www.w3.org/2000/svg" xmlns:xlink="http://www.w3.org/1999/xlink">
<g id="graph0" class="graph" transform="scale(1 1) rotate(0) translate(4 775.66)">
<title>G</title>
<polygon fill="white" stroke="transparent" points="-4,4 -4,-775.66 324.24,-775.66 324.24,4 -4,4"/>
<!-- BB0 -->
<g id="node1" class="node">
<title>BB0</title>
<ellipse fill="none" stroke="black" cx="148.33" cy="-744.79" rx="37.45" ry="26.74"/>
<text text-anchor="middle" x="148.33" y="-748.59" font-family="Times New Roman,serif" font-size="14.00">[0..87)</text>
<text text-anchor="middle" x="148.33" y="-733.59" font-family="Times New Roman,serif" font-size="14.00">0.00</text>
</g>
<!-- BB9 -->
<g id="node10" class="node">
<title>BB9</title>
<ellipse fill="none" stroke="black" cx="148.33" cy="-655.05" rx="52.15" ry="26.74"/>
<text text-anchor="middle" x="148.33" y="-658.85" font-family="Times New Roman,serif" font-size="14.00">[193..199)</text>
<text text-anchor="middle" x="148.33" y="-643.85" font-family="Times New Roman,serif" font-size="14.00">0.00</text>
</g>
<!-- BB0&#45;&gt;BB9 -->
<g id="edge1" class="edge">
<title>BB0&#45;&gt;BB9</title>
<path fill="none" stroke="black" d="M148.33,-717.47C148.33,-709.5 148.33,-700.61 148.33,-692.12"/>
<polygon fill="black" stroke="black" points="151.83,-692.05 148.33,-682.05 144.83,-692.05 151.83,-692.05"/>
</g>
<!-- BB1 -->
<g id="node2" class="node">
<title>BB1</title>
<ellipse fill="none" stroke="black" cx="152.33" cy="-475.57" rx="41.94" ry="26.74"/>
<text text-anchor="middle" x="152.33" y="-479.37" font-family="Times New Roman,serif" font-size="14.00">[87..a7)</text>
<text text-anchor="middle" x="152.33" y="-464.37" font-family="Times New Roman,serif" font-size="14.00">0.00</text>
</g>
<!-- BB7 -->
<g id="node8" class="node">
<title>BB7</title>
<ellipse fill="none" stroke="black" cx="156.33" cy="-385.83" rx="51.74" ry="26.74"/>
<text text-anchor="middle" x="156.33" y="-389.63" font-family="Times New Roman,serif" font-size="14.00">[15e..16c)</text>
<text text-anchor="middle" x="156.33" y="-374.63" font-family="Times New Roman,serif" font-size="14.00">0.00</text>
</g>
<!-- BB1&#45;&gt;BB7 -->
<g id="edge2" class="edge">
<title>BB1&#45;&gt;BB7</title>
<path fill="none" stroke="black" d="M153.53,-448.25C153.89,-440.28 154.29,-431.39 154.68,-422.9"/>
<polygon fill="black" stroke="black" points="158.18,-422.98 155.14,-412.83 151.19,-422.66 158.18,-422.98"/>
</g>
<!-- BB2 -->
<g id="node3" class="node">
<title>BB2</title>
<ellipse fill="none" stroke="black" cx="164.33" cy="-296.09" rx="41.94" ry="26.74"/>
<text text-anchor="middle" x="164.33" y="-299.89" font-family="Times New Roman,serif" font-size="14.00">[a7..c4)</text>
<text text-anchor="middle" x="164.33" y="-284.89" font-family="Times New Roman,serif" font-size="14.00">0.00</text>
</g>
<!-- BB3 -->
<g id="node4" class="node">
<title>BB3</title>
<ellipse fill="none" stroke="black" cx="152.33" cy="-206.35" rx="47.25" ry="26.74"/>
<text text-anchor="middle" x="152.33" y="-210.15" font-family="Times New Roman,serif" font-size="14.00">[c4..114)</text>
<text text-anchor="middle" x="152.33" y="-195.15" font-family="Times New Roman,serif" font-size="14.00">0.99</text>
</g>
<!-- BB2&#45;&gt;BB3 -->
<g id="edge3" class="edge">
<title>BB2&#45;&gt;BB3</title>
<path fill="none" stroke="black" d="M160.79,-269.24C159.68,-261.1 158.43,-251.96 157.24,-243.26"/>
<polygon fill="black" stroke="black" points="160.7,-242.75 155.88,-233.32 153.77,-243.7 160.7,-242.75"/>
</g>
<!-- BB3&#45;&gt;BB3 -->
<g id="edge4" class="edge">
<title>BB3&#45;&gt;BB3</title>
<path fill="none" stroke="black" d="M189.95,-222.75C205.04,-223.68 217.7,-218.21 217.7,-206.35 217.7,-197.27 210.28,-191.94 200.03,-190.35"/>
<polygon fill="black" stroke="black" points="200.08,-186.85 189.95,-189.95 199.8,-193.85 200.08,-186.85"/>
</g>
<!-- BB4 -->
<g id="node5" class="node">
<title>BB4</title>
<ellipse fill="none" stroke="black" cx="152.33" cy="-116.61" rx="52.15" ry="26.74"/>
<text text-anchor="middle" x="152.33" y="-120.41" font-family="Times New Roman,serif" font-size="14.00">[114..120)</text>
<text text-anchor="middle" x="152.33" y="-105.41" font-family="Times New Roman,serif" font-size="14.00">0.00</text>
</g>
<!-- BB3&#45;&gt;BB4 -->
<g id="edge5" class="edge">
<title>BB3&#45;&gt;BB4</title>
<path fill="none" stroke="black" d="M152.33,-179.03C152.33,-171.06 152.33,-162.17 152.33,-153.68"/>
<polygon fill="black" stroke="black" points="155.83,-153.61 152.33,-143.61 148.83,-153.61 155.83,-153.61"/>
</g>
<!-- BB5 -->
<g id="node6" class="node">
<title>BB5</title>
<ellipse fill="none" stroke="black" cx="124.33" cy="-26.87" rx="51.74" ry="26.74"/>
<text text-anchor="middle" x="124.33" y="-30.67" font-family="Times New Roman,serif" font-size="14.00">[120..13a)</text>
<text text-anchor="middle" x="124.33" y="-15.67" font-family="Times New Roman,serif" font-size="14.00">0.00</text>
</g>
<!-- BB4&#45;&gt;BB5 -->
<g id="edge7" class="edge">
<title>BB4&#45;&gt;BB5</title>
<path fill="none" stroke="black" d="M144.08,-89.76C141.43,-81.46 138.45,-72.12 135.62,-63.26"/>
<polygon fill="black" stroke="black" points="138.89,-62 132.52,-53.54 132.22,-64.13 138.89,-62"/>
</g>
<!-- BB6 -->
<g id="node7" class="node">
<title>BB6</title>
<ellipse fill="none" stroke="black" cx="245.33" cy="-26.87" rx="50.82" ry="26.74"/>
<text text-anchor="middle" x="245.33" y="-30.67" font-family="Times New Roman,serif" font-size="14.00">[13a..15e)</text>
<text text-anchor="middle" x="245.33" y="-15.67" font-family="Times New Roman,serif" font-size="14.00">0.00</text>
</g>
<!-- BB4&#45;&gt;BB6 -->
<g id="edge6" class="edge">
<title>BB4&#45;&gt;BB6</title>
<path fill="none" stroke="black" d="M176.76,-92.56C188.08,-81.88 201.67,-69.06 213.76,-57.65"/>
<polygon fill="black" stroke="black" points="216.18,-60.18 221.05,-50.77 211.38,-55.09 216.18,-60.18"/>
</g>
<!-- BB5&#45;&gt;BB6 -->
<g id="edge8" class="edge">
<title>BB5&#45;&gt;BB6</title>
<path fill="none" stroke="black" d="M176.32,-26.87C178.95,-26.87 181.59,-26.87 184.22,-26.87"/>
<polygon fill="black" stroke="black" points="184.38,-30.37 194.38,-26.87 184.38,-23.37 184.38,-30.37"/>
</g>
<!-- BB6&#45;&gt;BB7 -->
<g id="edge9" class="edge">
<title>BB6&#45;&gt;BB7</title>
<path fill="none" stroke="black" d="M248.27,-53.87C253.14,-107.22 258.48,-231.72 215.33,-322.96 209.62,-335.03 200.64,-346.26 191.39,-355.74"/>
<polygon fill="black" stroke="black" points="188.7,-353.48 183.97,-362.96 193.58,-358.49 188.7,-353.48"/>
</g>
<!-- BB7&#45;&gt;BB2 -->
<g id="edge10" class="edge">
<title>BB7&#45;&gt;BB2</title>
<path fill="none" stroke="black" d="M158.68,-358.98C159.42,-350.93 160.24,-341.9 161.03,-333.28"/>
<polygon fill="black" stroke="black" points="164.54,-333.34 161.96,-323.06 157.56,-332.7 164.54,-333.34"/>
</g>
<!-- BB8 -->
<g id="node9" class="node">
<title>BB8</title>
<ellipse fill="none" stroke="black" cx="52.33" cy="-296.09" rx="52.15" ry="26.74"/>
<text text-anchor="middle" x="52.33" y="-299.89" font-family="Times New Roman,serif" font-size="14.00">[16c..193)</text>
<text text-anchor="middle" x="52.33" y="-284.89" font-family="Times New Roman,serif" font-size="14.00">0.00</text>
</g>
<!-- BB7&#45;&gt;BB8 -->
<g id="edge11" class="edge">
<title>BB7&#45;&gt;BB8</title>
<path fill="none" stroke="black" d="M130.08,-362.69C117,-351.66 101.02,-338.17 86.95,-326.3"/>
<polygon fill="black" stroke="black" points="88.82,-323.3 78.92,-319.53 84.31,-328.65 88.82,-323.3"/>
</g>
<!-- BB8&#45;&gt;BB9 -->
<g id="edge12" class="edge">
<title>BB8&#45;&gt;BB9</title>
<path fill="none" stroke="black" d="M49.97,-323.1C46.27,-376.49 43.51,-501.05 87.33,-592.18 93.26,-604.53 102.67,-615.91 112.33,-625.44"/>
<polygon fill="black" stroke="black" points="110.03,-628.08 119.72,-632.37 114.82,-622.97 110.03,-628.08"/>
</g>
<!-- BB10 -->
<g id="node11" class="node">
<title>BB10</title>
<ellipse fill="none" stroke="black" cx="148.33" cy="-565.31" rx="51.74" ry="26.74"/>
<text text-anchor="middle" x="148.33" y="-569.11" font-family="Times New Roman,serif" font-size="14.00">[199..1a4)</text>
<text text-anchor="middle" x="148.33" y="-554.11" font-family="Times New Roman,serif" font-size="14.00">0.00</text>
</g>
<!-- BB9&#45;&gt;BB10 -->
<g id="edge14" class="edge">
<title>BB9&#45;&gt;BB10</title>
<path fill="none" stroke="black" d="M148.33,-627.73C148.33,-619.76 148.33,-610.87 148.33,-602.38"/>
<polygon fill="black" stroke="black" points="151.83,-602.31 148.33,-592.31 144.83,-602.31 151.83,-602.31"/>
</g>
<!-- BB11 -->
<g id="node12" class="node">
<title>BB11</title>
<ellipse fill="none" stroke="black" cx="269.33" cy="-565.31" rx="50.82" ry="26.74"/>
<text text-anchor="middle" x="269.33" y="-569.11" font-family="Times New Roman,serif" font-size="14.00">[1a4..1a5)</text>
<text text-anchor="middle" x="269.33" y="-554.11" font-family="Times New Roman,serif" font-size="14.00">0.00</text>
</g>
<!-- BB9&#45;&gt;BB11 -->
<g id="edge13" class="edge">
<title>BB9&#45;&gt;BB11</title>
<path fill="none" stroke="black" d="M177.93,-632.59C194.16,-620.82 214.45,-606.1 231.79,-593.53"/>
<polygon fill="black" stroke="black" points="233.99,-596.26 240.03,-587.55 229.88,-590.59 233.99,-596.26"/>
</g>
<!-- BB10&#45;&gt;BB1 -->
<g id="edge15" class="edge">
<title>BB10&#45;&gt;BB1</title>
<path fill="none" stroke="black" d="M149.53,-537.99C149.89,-530.02 150.29,-521.13 150.68,-512.64"/>
<polygon fill="black" stroke="black" points="154.18,-512.72 151.14,-502.57 147.19,-512.4 154.18,-512.72"/>
</g>
<!-- BB10&#45;&gt;BB11 -->
<g id="edge16" class="edge">
<title>BB10&#45;&gt;BB11</title>
<path fill="none" stroke="black" d="M200.32,-565.31C202.95,-565.31 205.59,-565.31 208.22,-565.31"/>
<polygon fill="black" stroke="black" points="208.38,-568.81 218.38,-565.31 208.38,-561.81 208.38,-568.81"/>
</g>
</g>
</svg>
