<?xml version="1.0" encoding="UTF-8" standalone="no"?>
<!DOCTYPE svg PUBLIC "-//W3C//DTD SVG 1.1//EN"
 "http://www.w3.org/Graphics/SVG/1.1/DTD/svg11.dtd">
<!-- Generated by graphviz version 2.47.0 (20210316.0004)
 -->
<!-- Title: G Pages: 1 -->
<svg width="653pt" height="860pt"
 viewBox="0.00 0.00 652.74 859.63" xmlns="http://www.w3.org/2000/svg" xmlns:xlink="http://www.w3.org/1999/xlink">
<g id="graph0" class="graph" transform="scale(1 1) rotate(0) translate(4 855.63)">
<title>G</title>
<polygon fill="white" stroke="transparent" points="-4,4 -4,-855.63 648.74,-855.63 648.74,4 -4,4"/>
<!-- BB0 -->
<g id="node1" class="node">
<title>BB0</title>
<ellipse fill="none" stroke="black" cx="294.77" cy="-814.15" rx="106.55" ry="37.45"/>
<text text-anchor="middle" x="294.77" y="-825.45" font-family="Times New Roman,serif" font-size="14.00">[0..6)</text>
<text text-anchor="middle" x="294.77" y="-810.45" font-family="Times New Roman,serif" font-size="14.00">Normalized Count: NaN</text>
<text text-anchor="middle" x="294.77" y="-795.45" font-family="Times New Roman,serif" font-size="14.00">Samples weight: 0.00</text>
</g>
<!-- BB8 -->
<g id="node9" class="node">
<title>BB8</title>
<ellipse fill="none" stroke="black" cx="294.77" cy="-703.2" rx="106.55" ry="37.45"/>
<text text-anchor="middle" x="294.77" y="-714.5" font-family="Times New Roman,serif" font-size="14.00">[7d..82)</text>
<text text-anchor="middle" x="294.77" y="-699.5" font-family="Times New Roman,serif" font-size="14.00">Normalized Count: NaN</text>
<text text-anchor="middle" x="294.77" y="-684.5" font-family="Times New Roman,serif" font-size="14.00">Samples weight: 0.00</text>
</g>
<!-- BB0&#45;&gt;BB8 -->
<g id="edge1" class="edge">
<title>BB0&#45;&gt;BB8</title>
<path fill="none" stroke="black" d="M294.77,-776.57C294.77,-768.39 294.77,-759.61 294.77,-751.09"/>
<polygon fill="black" stroke="black" points="298.27,-750.87 294.77,-740.87 291.27,-750.87 298.27,-750.87"/>
</g>
<!-- BB1 -->
<g id="node2" class="node">
<title>BB1</title>
<ellipse fill="none" stroke="black" cx="294.77" cy="-481.29" rx="106.55" ry="37.45"/>
<text text-anchor="middle" x="294.77" y="-492.59" font-family="Times New Roman,serif" font-size="14.00">[6..c)</text>
<text text-anchor="middle" x="294.77" y="-477.59" font-family="Times New Roman,serif" font-size="14.00">Normalized Count: NaN</text>
<text text-anchor="middle" x="294.77" y="-462.59" font-family="Times New Roman,serif" font-size="14.00">Samples weight: 0.00</text>
</g>
<!-- BB6 -->
<g id="node7" class="node">
<title>BB6</title>
<ellipse fill="none" stroke="black" cx="320.77" cy="-370.34" rx="106.55" ry="37.45"/>
<text text-anchor="middle" x="320.77" y="-381.64" font-family="Times New Roman,serif" font-size="14.00">[70..74)</text>
<text text-anchor="middle" x="320.77" y="-366.64" font-family="Times New Roman,serif" font-size="14.00">Normalized Count: NaN</text>
<text text-anchor="middle" x="320.77" y="-351.64" font-family="Times New Roman,serif" font-size="14.00">Samples weight: 0.00</text>
</g>
<!-- BB1&#45;&gt;BB6 -->
<g id="edge2" class="edge">
<title>BB1&#45;&gt;BB6</title>
<path fill="none" stroke="black" d="M303.5,-443.71C305.48,-435.44 307.6,-426.56 309.65,-417.95"/>
<polygon fill="black" stroke="black" points="313.11,-418.55 312.02,-408.01 306.3,-416.92 313.11,-418.55"/>
</g>
<!-- BB2 -->
<g id="node3" class="node">
<title>BB2</title>
<ellipse fill="none" stroke="black" cx="347.77" cy="-259.38" rx="115.93" ry="37.45"/>
<text text-anchor="middle" x="347.77" y="-270.68" font-family="Times New Roman,serif" font-size="14.00">[c..23)</text>
<text text-anchor="middle" x="347.77" y="-255.68" font-family="Times New Roman,serif" font-size="14.00">Normalized Count: Infinity</text>
<text text-anchor="middle" x="347.77" y="-240.68" font-family="Times New Roman,serif" font-size="14.00">Samples weight: 0.00</text>
</g>
<!-- BB3 -->
<g id="node4" class="node">
<title>BB3</title>
<ellipse fill="none" stroke="black" cx="335.77" cy="-148.43" rx="115.93" ry="37.45"/>
<text text-anchor="middle" x="335.77" y="-159.73" font-family="Times New Roman,serif" font-size="14.00">[23..4f)</text>
<text text-anchor="middle" x="335.77" y="-144.73" font-family="Times New Roman,serif" font-size="14.00">Normalized Count: Infinity</text>
<text text-anchor="middle" x="335.77" y="-129.73" font-family="Times New Roman,serif" font-size="14.00">Samples weight: 0.99</text>
</g>
<!-- BB2&#45;&gt;BB3 -->
<g id="edge3" class="edge">
<title>BB2&#45;&gt;BB3</title>
<path fill="none" stroke="black" d="M343.74,-221.8C342.84,-213.63 341.88,-204.85 340.94,-196.32"/>
<polygon fill="black" stroke="black" points="344.39,-195.66 339.81,-186.1 337.43,-196.42 344.39,-195.66"/>
</g>
<!-- BB4 -->
<g id="node5" class="node">
<title>BB4</title>
<ellipse fill="none" stroke="black" cx="287.77" cy="-37.48" rx="106.55" ry="37.45"/>
<text text-anchor="middle" x="287.77" y="-48.78" font-family="Times New Roman,serif" font-size="14.00">[4f..58)</text>
<text text-anchor="middle" x="287.77" y="-33.78" font-family="Times New Roman,serif" font-size="14.00">Normalized Count: NaN</text>
<text text-anchor="middle" x="287.77" y="-18.78" font-family="Times New Roman,serif" font-size="14.00">Samples weight: 0.00</text>
</g>
<!-- BB3&#45;&gt;BB4 -->
<g id="edge5" class="edge">
<title>BB3&#45;&gt;BB4</title>
<path fill="none" stroke="black" d="M313.53,-111.45C309.37,-102.8 305.16,-93.45 301.34,-84.42"/>
<polygon fill="black" stroke="black" points="304.57,-83.07 297.52,-75.16 298.1,-85.74 304.57,-83.07"/>
</g>
<!-- BB5 -->
<g id="node6" class="node">
<title>BB5</title>
<ellipse fill="none" stroke="black" cx="528.77" cy="-37.48" rx="115.93" ry="37.45"/>
<text text-anchor="middle" x="528.77" y="-48.78" font-family="Times New Roman,serif" font-size="14.00">[58..70)</text>
<text text-anchor="middle" x="528.77" y="-33.78" font-family="Times New Roman,serif" font-size="14.00">Normalized Count: Infinity</text>
<text text-anchor="middle" x="528.77" y="-18.78" font-family="Times New Roman,serif" font-size="14.00">Samples weight: 0.00</text>
</g>
<!-- BB3&#45;&gt;BB5 -->
<g id="edge4" class="edge">
<title>BB3&#45;&gt;BB5</title>
<path fill="none" stroke="black" d="M392.12,-115.62C414.51,-102.98 440.42,-88.35 463.62,-75.26"/>
<polygon fill="black" stroke="black" points="465.37,-78.29 472.36,-70.32 461.93,-72.19 465.37,-78.29"/>
</g>
<!-- BB4&#45;&gt;BB3 -->
<g id="edge6" class="edge">
<title>BB4&#45;&gt;BB3</title>
<path fill="none" stroke="black" d="M309.99,-74.41C314.17,-83.09 318.4,-92.49 322.24,-101.56"/>
<polygon fill="black" stroke="black" points="319.02,-102.94 326.07,-110.85 325.49,-100.27 319.02,-102.94"/>
</g>
<!-- BB4&#45;&gt;BB5 -->
<g id="edge7" class="edge">
<title>BB4&#45;&gt;BB5</title>
<path fill="none" stroke="black" d="M394.62,-37.48C397.26,-37.48 399.9,-37.48 402.53,-37.48"/>
<polygon fill="black" stroke="black" points="402.7,-40.98 412.7,-37.48 402.7,-33.98 402.7,-40.98"/>
</g>
<!-- BB5&#45;&gt;BB6 -->
<g id="edge8" class="edge">
<title>BB5&#45;&gt;BB6</title>
<path fill="none" stroke="black" d="M530.45,-75.24C530.98,-129.53 524.34,-231.72 472.77,-296.86 457.14,-316.6 434.82,-331.27 412.09,-342.03"/>
<polygon fill="black" stroke="black" points="410.36,-338.97 402.68,-346.26 413.24,-345.35 410.36,-338.97"/>
</g>
<!-- BB6&#45;&gt;BB2 -->
<g id="edge9" class="edge">
<title>BB6&#45;&gt;BB2</title>
<path fill="none" stroke="black" d="M329.84,-332.75C331.89,-324.49 334.09,-315.61 336.22,-306.99"/>
<polygon fill="black" stroke="black" points="339.68,-307.6 338.69,-297.06 332.88,-305.92 339.68,-307.6"/>
</g>
<!-- BB7 -->
<g id="node8" class="node">
<title>BB7</title>
<ellipse fill="none" stroke="black" cx="106.77" cy="-259.38" rx="106.55" ry="37.45"/>
<text text-anchor="middle" x="106.77" y="-270.68" font-family="Times New Roman,serif" font-size="14.00">[74..7d)</text>
<text text-anchor="middle" x="106.77" y="-255.68" font-family="Times New Roman,serif" font-size="14.00">Normalized Count: NaN</text>
<text text-anchor="middle" x="106.77" y="-240.68" font-family="Times New Roman,serif" font-size="14.00">Samples weight: 0.00</text>
</g>
<!-- BB6&#45;&gt;BB7 -->
<g id="edge10" class="edge">
<title>BB6&#45;&gt;BB7</title>
<path fill="none" stroke="black" d="M261.45,-339.13C234.77,-325.55 203.13,-309.44 175.44,-295.34"/>
<polygon fill="black" stroke="black" points="176.71,-292.07 166.22,-290.65 173.54,-298.3 176.71,-292.07"/>
</g>
<!-- BB7&#45;&gt;BB8 -->
<g id="edge11" class="edge">
<title>BB7&#45;&gt;BB8</title>
<path fill="none" stroke="black" d="M104.74,-297.05C102.66,-367.85 107.14,-525.56 178.77,-629.72 189.33,-645.07 204.32,-657.82 220.02,-668.12"/>
<polygon fill="black" stroke="black" points="218.46,-671.28 228.8,-673.6 222.16,-665.34 218.46,-671.28"/>
</g>
<!-- BB9 -->
<g id="node10" class="node">
<title>BB9</title>
<ellipse fill="none" stroke="black" cx="294.77" cy="-592.24" rx="106.55" ry="37.45"/>
<text text-anchor="middle" x="294.77" y="-603.54" font-family="Times New Roman,serif" font-size="14.00">[82..8d)</text>
<text text-anchor="middle" x="294.77" y="-588.54" font-family="Times New Roman,serif" font-size="14.00">Normalized Count: NaN</text>
<text text-anchor="middle" x="294.77" y="-573.54" font-family="Times New Roman,serif" font-size="14.00">Samples weight: 0.00</text>
</g>
<!-- BB8&#45;&gt;BB9 -->
<g id="edge13" class="edge">
<title>BB8&#45;&gt;BB9</title>
<path fill="none" stroke="black" d="M294.77,-665.61C294.77,-657.44 294.77,-648.66 294.77,-640.13"/>
<polygon fill="black" stroke="black" points="298.27,-639.92 294.77,-629.92 291.27,-639.92 298.27,-639.92"/>
</g>
<!-- BB10 -->
<g id="node11" class="node">
<title>BB10</title>
<ellipse fill="none" stroke="black" cx="526.77" cy="-592.24" rx="106.55" ry="37.45"/>
<text text-anchor="middle" x="526.77" y="-603.54" font-family="Times New Roman,serif" font-size="14.00">[8d..8e)</text>
<text text-anchor="middle" x="526.77" y="-588.54" font-family="Times New Roman,serif" font-size="14.00">Normalized Count: NaN</text>
<text text-anchor="middle" x="526.77" y="-573.54" font-family="Times New Roman,serif" font-size="14.00">Samples weight: 0.00</text>
</g>
<!-- BB8&#45;&gt;BB10 -->
<g id="edge12" class="edge">
<title>BB8&#45;&gt;BB10</title>
<path fill="none" stroke="black" d="M357.56,-672.71C387.6,-658.6 423.73,-641.64 454.87,-627.01"/>
<polygon fill="black" stroke="black" points="456.38,-630.17 463.94,-622.75 453.4,-623.83 456.38,-630.17"/>
</g>
<!-- BB9&#45;&gt;BB1 -->
<g id="edge14" class="edge">
<title>BB9&#45;&gt;BB1</title>
<path fill="none" stroke="black" d="M294.77,-554.66C294.77,-546.49 294.77,-537.71 294.77,-529.18"/>
<polygon fill="black" stroke="black" points="298.27,-528.96 294.77,-518.96 291.27,-528.96 298.27,-528.96"/>
</g>
<!-- BB9&#45;&gt;BB10 -->
<g id="edge15" class="edge">
<title>BB9&#45;&gt;BB10</title>
<path fill="none" stroke="black" d="M401.71,-592.24C404.35,-592.24 406.98,-592.24 409.62,-592.24"/>
<polygon fill="black" stroke="black" points="409.79,-595.74 419.79,-592.24 409.79,-588.74 409.79,-595.74"/>
</g>
</g>
</svg>
