<?xml version="1.0" encoding="UTF-8" standalone="no"?>
<!DOCTYPE svg PUBLIC "-//W3C//DTD SVG 1.1//EN"
 "http://www.w3.org/Graphics/SVG/1.1/DTD/svg11.dtd">
<!-- Generated by graphviz version 2.47.0 (20210316.0004)
 -->
<!-- Title: G Pages: 1 -->
<svg width="338pt" height="780pt"
 viewBox="0.00 0.00 338.24 779.66" xmlns="http://www.w3.org/2000/svg" xmlns:xlink="http://www.w3.org/1999/xlink">
<g id="graph0" class="graph" transform="scale(1 1) rotate(0) translate(4 775.66)">
<title>G</title>
<polygon fill="white" stroke="transparent" points="-4,4 -4,-775.66 334.24,-775.66 334.24,4 -4,4"/>
<!-- BB0 -->
<g id="node1" class="node">
<title>BB0</title>
<ellipse fill="none" stroke="black" cx="154.2" cy="-744.79" rx="37.45" ry="26.74"/>
<text text-anchor="middle" x="154.2" y="-748.59" font-family="Times New Roman,serif" font-size="14.00">[0..98)</text>
<text text-anchor="middle" x="154.2" y="-733.59" font-family="Times New Roman,serif" font-size="14.00">0.00</text>
</g>
<!-- BB9 -->
<g id="node10" class="node">
<title>BB9</title>
<ellipse fill="none" stroke="black" cx="154.2" cy="-655.05" rx="50.82" ry="26.74"/>
<text text-anchor="middle" x="154.2" y="-658.85" font-family="Times New Roman,serif" font-size="14.00">[1a7..1ac)</text>
<text text-anchor="middle" x="154.2" y="-643.85" font-family="Times New Roman,serif" font-size="14.00">0.00</text>
</g>
<!-- BB0&#45;&gt;BB9 -->
<g id="edge1" class="edge">
<title>BB0&#45;&gt;BB9</title>
<path fill="none" stroke="black" d="M154.2,-717.47C154.2,-709.5 154.2,-700.61 154.2,-692.12"/>
<polygon fill="black" stroke="black" points="157.7,-692.05 154.2,-682.05 150.7,-692.05 157.7,-692.05"/>
</g>
<!-- BB1 -->
<g id="node2" class="node">
<title>BB1</title>
<ellipse fill="none" stroke="black" cx="156.2" cy="-475.57" rx="43.27" ry="26.74"/>
<text text-anchor="middle" x="156.2" y="-479.37" font-family="Times New Roman,serif" font-size="14.00">[98..b8)</text>
<text text-anchor="middle" x="156.2" y="-464.37" font-family="Times New Roman,serif" font-size="14.00">0.00</text>
</g>
<!-- BB7 -->
<g id="node8" class="node">
<title>BB7</title>
<ellipse fill="none" stroke="black" cx="160.2" cy="-385.83" rx="50.41" ry="26.74"/>
<text text-anchor="middle" x="160.2" y="-389.63" font-family="Times New Roman,serif" font-size="14.00">[171..17f)</text>
<text text-anchor="middle" x="160.2" y="-374.63" font-family="Times New Roman,serif" font-size="14.00">0.00</text>
</g>
<!-- BB1&#45;&gt;BB7 -->
<g id="edge2" class="edge">
<title>BB1&#45;&gt;BB7</title>
<path fill="none" stroke="black" d="M157.4,-448.25C157.77,-440.28 158.17,-431.39 158.56,-422.9"/>
<polygon fill="black" stroke="black" points="162.06,-422.98 159.02,-412.83 155.07,-422.66 162.06,-422.98"/>
</g>
<!-- BB2 -->
<g id="node3" class="node">
<title>BB2</title>
<ellipse fill="none" stroke="black" cx="162.2" cy="-296.09" rx="43.68" ry="26.74"/>
<text text-anchor="middle" x="162.2" y="-299.89" font-family="Times New Roman,serif" font-size="14.00">[b8..d5)</text>
<text text-anchor="middle" x="162.2" y="-284.89" font-family="Times New Roman,serif" font-size="14.00">0.00</text>
</g>
<!-- BB3 -->
<g id="node4" class="node">
<title>BB3</title>
<ellipse fill="none" stroke="black" cx="151.2" cy="-206.35" rx="48.17" ry="26.74"/>
<text text-anchor="middle" x="151.2" y="-210.15" font-family="Times New Roman,serif" font-size="14.00">[d5..127)</text>
<text text-anchor="middle" x="151.2" y="-195.15" font-family="Times New Roman,serif" font-size="14.00">0.99</text>
</g>
<!-- BB2&#45;&gt;BB3 -->
<g id="edge3" class="edge">
<title>BB2&#45;&gt;BB3</title>
<path fill="none" stroke="black" d="M158.96,-269.24C157.94,-261.1 156.8,-251.96 155.71,-243.26"/>
<polygon fill="black" stroke="black" points="159.18,-242.81 154.46,-233.32 152.23,-243.68 159.18,-242.81"/>
</g>
<!-- BB3&#45;&gt;BB3 -->
<g id="edge4" class="edge">
<title>BB3&#45;&gt;BB3</title>
<path fill="none" stroke="black" d="M189.56,-222.77C204.67,-223.6 217.29,-218.12 217.29,-206.35 217.29,-197.34 209.89,-192.02 199.65,-190.39"/>
<polygon fill="black" stroke="black" points="199.71,-186.89 189.56,-189.93 199.4,-193.88 199.71,-186.89"/>
</g>
<!-- BB4 -->
<g id="node5" class="node">
<title>BB4</title>
<ellipse fill="none" stroke="black" cx="151.2" cy="-116.61" rx="52.15" ry="26.74"/>
<text text-anchor="middle" x="151.2" y="-120.41" font-family="Times New Roman,serif" font-size="14.00">[127..133)</text>
<text text-anchor="middle" x="151.2" y="-105.41" font-family="Times New Roman,serif" font-size="14.00">0.00</text>
</g>
<!-- BB3&#45;&gt;BB4 -->
<g id="edge5" class="edge">
<title>BB3&#45;&gt;BB4</title>
<path fill="none" stroke="black" d="M151.2,-179.03C151.2,-171.06 151.2,-162.17 151.2,-153.68"/>
<polygon fill="black" stroke="black" points="154.7,-153.61 151.2,-143.61 147.7,-153.61 154.7,-153.61"/>
</g>
<!-- BB5 -->
<g id="node6" class="node">
<title>BB5</title>
<ellipse fill="none" stroke="black" cx="122.2" cy="-26.87" rx="52.15" ry="26.74"/>
<text text-anchor="middle" x="122.2" y="-30.67" font-family="Times New Roman,serif" font-size="14.00">[133..14d)</text>
<text text-anchor="middle" x="122.2" y="-15.67" font-family="Times New Roman,serif" font-size="14.00">0.00</text>
</g>
<!-- BB4&#45;&gt;BB5 -->
<g id="edge7" class="edge">
<title>BB4&#45;&gt;BB5</title>
<path fill="none" stroke="black" d="M142.66,-89.76C139.92,-81.46 136.83,-72.12 133.9,-63.26"/>
<polygon fill="black" stroke="black" points="137.15,-61.93 130.69,-53.54 130.5,-64.13 137.15,-61.93"/>
</g>
<!-- BB6 -->
<g id="node7" class="node">
<title>BB6</title>
<ellipse fill="none" stroke="black" cx="245.2" cy="-26.87" rx="52.15" ry="26.74"/>
<text text-anchor="middle" x="245.2" y="-30.67" font-family="Times New Roman,serif" font-size="14.00">[14d..171)</text>
<text text-anchor="middle" x="245.2" y="-15.67" font-family="Times New Roman,serif" font-size="14.00">0.00</text>
</g>
<!-- BB4&#45;&gt;BB6 -->
<g id="edge6" class="edge">
<title>BB4&#45;&gt;BB6</title>
<path fill="none" stroke="black" d="M175.9,-92.56C187.34,-81.88 201.08,-69.06 213.3,-57.65"/>
<polygon fill="black" stroke="black" points="215.75,-60.15 220.67,-50.77 210.97,-55.03 215.75,-60.15"/>
</g>
<!-- BB5&#45;&gt;BB6 -->
<g id="edge8" class="edge">
<title>BB5&#45;&gt;BB6</title>
<path fill="none" stroke="black" d="M174.58,-26.87C177.23,-26.87 179.89,-26.87 182.54,-26.87"/>
<polygon fill="black" stroke="black" points="182.78,-30.37 192.78,-26.87 182.78,-23.37 182.78,-30.37"/>
</g>
<!-- BB6&#45;&gt;BB7 -->
<g id="edge9" class="edge">
<title>BB6&#45;&gt;BB7</title>
<path fill="none" stroke="black" d="M247.88,-53.74C252.27,-106.87 256.76,-230.98 215.2,-322.96 209.88,-334.74 201.51,-345.88 192.89,-355.38"/>
<polygon fill="black" stroke="black" points="190.35,-352.97 185.97,-362.62 195.41,-357.81 190.35,-352.97"/>
</g>
<!-- BB7&#45;&gt;BB2 -->
<g id="edge10" class="edge">
<title>BB7&#45;&gt;BB2</title>
<path fill="none" stroke="black" d="M160.8,-358.51C160.99,-350.54 161.19,-341.65 161.38,-333.16"/>
<polygon fill="black" stroke="black" points="164.88,-333.17 161.61,-323.09 157.88,-333.01 164.88,-333.17"/>
</g>
<!-- BB8 -->
<g id="node9" class="node">
<title>BB8</title>
<ellipse fill="none" stroke="black" cx="50.2" cy="-296.09" rx="50.41" ry="26.74"/>
<text text-anchor="middle" x="50.2" y="-299.89" font-family="Times New Roman,serif" font-size="14.00">[17f..1a7)</text>
<text text-anchor="middle" x="50.2" y="-284.89" font-family="Times New Roman,serif" font-size="14.00">0.00</text>
</g>
<!-- BB7&#45;&gt;BB8 -->
<g id="edge11" class="edge">
<title>BB7&#45;&gt;BB8</title>
<path fill="none" stroke="black" d="M133.01,-363.14C118.6,-351.65 100.73,-337.39 85.29,-325.08"/>
<polygon fill="black" stroke="black" points="87.46,-322.33 77.46,-318.83 83.1,-327.81 87.46,-322.33"/>
</g>
<!-- BB8&#45;&gt;BB9 -->
<g id="edge12" class="edge">
<title>BB8&#45;&gt;BB9</title>
<path fill="none" stroke="black" d="M48.74,-323.15C46.82,-376.61 48.02,-501.32 93.2,-592.18 99.36,-604.56 108.93,-616 118.67,-625.59"/>
<polygon fill="black" stroke="black" points="116.41,-628.27 126.1,-632.55 121.2,-623.17 116.41,-628.27"/>
</g>
<!-- BB10 -->
<g id="node11" class="node">
<title>BB10</title>
<ellipse fill="none" stroke="black" cx="154.2" cy="-565.31" rx="52.15" ry="26.74"/>
<text text-anchor="middle" x="154.2" y="-569.11" font-family="Times New Roman,serif" font-size="14.00">[1ac..1b7)</text>
<text text-anchor="middle" x="154.2" y="-554.11" font-family="Times New Roman,serif" font-size="14.00">0.00</text>
</g>
<!-- BB9&#45;&gt;BB10 -->
<g id="edge14" class="edge">
<title>BB9&#45;&gt;BB10</title>
<path fill="none" stroke="black" d="M154.2,-627.73C154.2,-619.76 154.2,-610.87 154.2,-602.38"/>
<polygon fill="black" stroke="black" points="157.7,-602.31 154.2,-592.31 150.7,-602.31 157.7,-602.31"/>
</g>
<!-- BB11 -->
<g id="node12" class="node">
<title>BB11</title>
<ellipse fill="none" stroke="black" cx="277.2" cy="-565.31" rx="53.07" ry="26.74"/>
<text text-anchor="middle" x="277.2" y="-569.11" font-family="Times New Roman,serif" font-size="14.00">[1b7..1b8)</text>
<text text-anchor="middle" x="277.2" y="-554.11" font-family="Times New Roman,serif" font-size="14.00">0.00</text>
</g>
<!-- BB9&#45;&gt;BB11 -->
<g id="edge13" class="edge">
<title>BB9&#45;&gt;BB11</title>
<path fill="none" stroke="black" d="M183.67,-633.03C200.16,-621.27 220.91,-606.47 238.68,-593.79"/>
<polygon fill="black" stroke="black" points="241.02,-596.42 247.13,-587.76 236.96,-590.72 241.02,-596.42"/>
</g>
<!-- BB10&#45;&gt;BB1 -->
<g id="edge15" class="edge">
<title>BB10&#45;&gt;BB1</title>
<path fill="none" stroke="black" d="M154.8,-537.99C154.99,-530.02 155.19,-521.13 155.38,-512.64"/>
<polygon fill="black" stroke="black" points="158.88,-512.65 155.61,-502.57 151.88,-512.49 158.88,-512.65"/>
</g>
<!-- BB10&#45;&gt;BB11 -->
<g id="edge16" class="edge">
<title>BB10&#45;&gt;BB11</title>
<path fill="none" stroke="black" d="M206.58,-565.31C209.02,-565.31 211.46,-565.31 213.91,-565.31"/>
<polygon fill="black" stroke="black" points="213.96,-568.81 223.96,-565.31 213.96,-561.81 213.96,-568.81"/>
</g>
</g>
</svg>
