<?xml version="1.0" encoding="UTF-8" standalone="no"?>
<!DOCTYPE svg PUBLIC "-//W3C//DTD SVG 1.1//EN"
 "http://www.w3.org/Graphics/SVG/1.1/DTD/svg11.dtd">
<!-- Generated by graphviz version 2.47.0 (20210316.0004)
 -->
<!-- Title: G Pages: 1 -->
<svg width="663pt" height="971pt"
 viewBox="0.00 0.00 662.62 970.58" xmlns="http://www.w3.org/2000/svg" xmlns:xlink="http://www.w3.org/1999/xlink">
<g id="graph0" class="graph" transform="scale(1 1) rotate(0) translate(4 966.58)">
<title>G</title>
<polygon fill="white" stroke="transparent" points="-4,4 -4,-966.58 658.62,-966.58 658.62,4 -4,4"/>
<!-- BB0 -->
<g id="node1" class="node">
<title>BB0</title>
<ellipse fill="none" stroke="black" cx="310.26" cy="-925.1" rx="105.22" ry="37.45"/>
<text text-anchor="middle" x="310.26" y="-936.4" font-family="Times New Roman,serif" font-size="14.00">[0..87)</text>
<text text-anchor="middle" x="310.26" y="-921.4" font-family="Times New Roman,serif" font-size="14.00">Normalized Count: 1.00</text>
<text text-anchor="middle" x="310.26" y="-906.4" font-family="Times New Roman,serif" font-size="14.00">Samples weight: 0.00</text>
</g>
<!-- BB9 -->
<g id="node10" class="node">
<title>BB9</title>
<ellipse fill="none" stroke="black" cx="310.26" cy="-814.15" rx="115.02" ry="37.45"/>
<text text-anchor="middle" x="310.26" y="-825.45" font-family="Times New Roman,serif" font-size="14.00">[1d3..1d9)</text>
<text text-anchor="middle" x="310.26" y="-810.45" font-family="Times New Roman,serif" font-size="14.00">Normalized Count: 202.00</text>
<text text-anchor="middle" x="310.26" y="-795.45" font-family="Times New Roman,serif" font-size="14.00">Samples weight: 0.00</text>
</g>
<!-- BB0&#45;&gt;BB9 -->
<g id="edge1" class="edge">
<title>BB0&#45;&gt;BB9</title>
<path fill="none" stroke="black" d="M310.26,-887.52C310.26,-879.35 310.26,-870.57 310.26,-862.04"/>
<polygon fill="black" stroke="black" points="313.76,-861.82 310.26,-851.82 306.76,-861.82 313.76,-861.82"/>
</g>
<!-- BB1 -->
<g id="node2" class="node">
<title>BB1</title>
<ellipse fill="none" stroke="black" cx="312.26" cy="-592.24" rx="115.02" ry="37.45"/>
<text text-anchor="middle" x="312.26" y="-603.54" font-family="Times New Roman,serif" font-size="14.00">[87..a7)</text>
<text text-anchor="middle" x="312.26" y="-588.54" font-family="Times New Roman,serif" font-size="14.00">Normalized Count: 201.00</text>
<text text-anchor="middle" x="312.26" y="-573.54" font-family="Times New Roman,serif" font-size="14.00">Samples weight: 0.00</text>
</g>
<!-- BB7 -->
<g id="node8" class="node">
<title>BB7</title>
<ellipse fill="none" stroke="black" cx="341.26" cy="-481.29" rx="120.42" ry="37.45"/>
<text text-anchor="middle" x="341.26" y="-492.59" font-family="Times New Roman,serif" font-size="14.00">[19e..1ac)</text>
<text text-anchor="middle" x="341.26" y="-477.59" font-family="Times New Roman,serif" font-size="14.00">Normalized Count: 5427.00</text>
<text text-anchor="middle" x="341.26" y="-462.59" font-family="Times New Roman,serif" font-size="14.00">Samples weight: 0.00</text>
</g>
<!-- BB1&#45;&gt;BB7 -->
<g id="edge2" class="edge">
<title>BB1&#45;&gt;BB7</title>
<path fill="none" stroke="black" d="M322,-554.66C324.2,-546.4 326.56,-537.51 328.85,-528.9"/>
<polygon fill="black" stroke="black" points="332.31,-529.53 331.5,-518.96 325.54,-527.73 332.31,-529.53"/>
</g>
<!-- BB2 -->
<g id="node3" class="node">
<title>BB2</title>
<ellipse fill="none" stroke="black" cx="368.26" cy="-370.34" rx="120.42" ry="37.45"/>
<text text-anchor="middle" x="368.26" y="-381.64" font-family="Times New Roman,serif" font-size="14.00">[a7..bd)</text>
<text text-anchor="middle" x="368.26" y="-366.64" font-family="Times New Roman,serif" font-size="14.00">Normalized Count: 5226.00</text>
<text text-anchor="middle" x="368.26" y="-351.64" font-family="Times New Roman,serif" font-size="14.00">Samples weight: 0.00</text>
</g>
<!-- BB3 -->
<g id="node4" class="node">
<title>BB3</title>
<ellipse fill="none" stroke="black" cx="352.26" cy="-259.38" rx="134.2" ry="37.45"/>
<text text-anchor="middle" x="352.26" y="-270.68" font-family="Times New Roman,serif" font-size="14.00">[bd..154)</text>
<text text-anchor="middle" x="352.26" y="-255.68" font-family="Times New Roman,serif" font-size="14.00">Normalized Count: 4131220.00</text>
<text text-anchor="middle" x="352.26" y="-240.68" font-family="Times New Roman,serif" font-size="14.00">Samples weight: 0.99</text>
</g>
<!-- BB2&#45;&gt;BB3 -->
<g id="edge3" class="edge">
<title>BB2&#45;&gt;BB3</title>
<path fill="none" stroke="black" d="M362.89,-332.75C361.67,-324.49 360.37,-315.61 359.1,-306.99"/>
<polygon fill="black" stroke="black" points="362.56,-306.44 357.64,-297.06 355.63,-307.46 362.56,-306.44"/>
</g>
<!-- BB3&#45;&gt;BB3 -->
<g id="edge4" class="edge">
<title>BB3&#45;&gt;BB3</title>
<path fill="none" stroke="black" d="M466.54,-279.09C488.8,-276.8 504.61,-270.23 504.61,-259.38 504.61,-250.23 493.35,-244.12 476.46,-241.06"/>
<polygon fill="black" stroke="black" points="476.92,-237.59 466.54,-239.68 475.96,-244.53 476.92,-237.59"/>
</g>
<!-- BB4 -->
<g id="node5" class="node">
<title>BB4</title>
<ellipse fill="none" stroke="black" cx="352.26" cy="-148.43" rx="120.42" ry="37.45"/>
<text text-anchor="middle" x="352.26" y="-159.73" font-family="Times New Roman,serif" font-size="14.00">[154..160)</text>
<text text-anchor="middle" x="352.26" y="-144.73" font-family="Times New Roman,serif" font-size="14.00">Normalized Count: 5226.00</text>
<text text-anchor="middle" x="352.26" y="-129.73" font-family="Times New Roman,serif" font-size="14.00">Samples weight: 0.00</text>
</g>
<!-- BB3&#45;&gt;BB4 -->
<g id="edge5" class="edge">
<title>BB3&#45;&gt;BB4</title>
<path fill="none" stroke="black" d="M352.26,-221.8C352.26,-213.63 352.26,-204.85 352.26,-196.32"/>
<polygon fill="black" stroke="black" points="355.76,-196.1 352.26,-186.1 348.76,-196.1 355.76,-196.1"/>
</g>
<!-- BB5 -->
<g id="node6" class="node">
<title>BB5</title>
<ellipse fill="none" stroke="black" cx="279.26" cy="-37.48" rx="115.02" ry="37.45"/>
<text text-anchor="middle" x="279.26" y="-48.78" font-family="Times New Roman,serif" font-size="14.00">[160..17a)</text>
<text text-anchor="middle" x="279.26" y="-33.78" font-family="Times New Roman,serif" font-size="14.00">Normalized Count: 201.00</text>
<text text-anchor="middle" x="279.26" y="-18.78" font-family="Times New Roman,serif" font-size="14.00">Samples weight: 0.00</text>
</g>
<!-- BB4&#45;&gt;BB5 -->
<g id="edge7" class="edge">
<title>BB4&#45;&gt;BB5</title>
<path fill="none" stroke="black" d="M328.15,-111.45C322.05,-102.34 315.42,-92.45 309.07,-82.97"/>
<polygon fill="black" stroke="black" points="311.81,-80.78 303.34,-74.42 306,-84.67 311.81,-80.78"/>
</g>
<!-- BB6 -->
<g id="node7" class="node">
<title>BB6</title>
<ellipse fill="none" stroke="black" cx="532.26" cy="-37.48" rx="120.42" ry="37.45"/>
<text text-anchor="middle" x="532.26" y="-48.78" font-family="Times New Roman,serif" font-size="14.00">[17a..19e)</text>
<text text-anchor="middle" x="532.26" y="-33.78" font-family="Times New Roman,serif" font-size="14.00">Normalized Count: 5226.00</text>
<text text-anchor="middle" x="532.26" y="-18.78" font-family="Times New Roman,serif" font-size="14.00">Samples weight: 0.00</text>
</g>
<!-- BB4&#45;&gt;BB6 -->
<g id="edge6" class="edge">
<title>BB4&#45;&gt;BB6</title>
<path fill="none" stroke="black" d="M406.26,-114.74C426.2,-102.67 448.95,-88.9 469.59,-76.41"/>
<polygon fill="black" stroke="black" points="471.55,-79.32 478.29,-71.14 467.92,-73.33 471.55,-79.32"/>
</g>
<!-- BB5&#45;&gt;BB6 -->
<g id="edge8" class="edge">
<title>BB5&#45;&gt;BB6</title>
<path fill="none" stroke="black" d="M394.89,-37.48C397.18,-37.48 399.47,-37.48 401.75,-37.48"/>
<polygon fill="black" stroke="black" points="401.79,-40.98 411.79,-37.48 401.79,-33.98 401.79,-40.98"/>
</g>
<!-- BB6&#45;&gt;BB7 -->
<g id="edge9" class="edge">
<title>BB6&#45;&gt;BB7</title>
<path fill="none" stroke="black" d="M540.17,-75.05C553.43,-146.74 571.93,-307.43 497.26,-407.81 482.91,-427.1 462.16,-441.43 440.45,-452"/>
<polygon fill="black" stroke="black" points="438.73,-448.94 431.11,-456.31 441.66,-455.3 438.73,-448.94"/>
</g>
<!-- BB7&#45;&gt;BB2 -->
<g id="edge10" class="edge">
<title>BB7&#45;&gt;BB2</title>
<path fill="none" stroke="black" d="M350.32,-443.71C352.37,-435.44 354.57,-426.56 356.71,-417.95"/>
<polygon fill="black" stroke="black" points="360.16,-418.56 359.17,-408.01 353.37,-416.87 360.16,-418.56"/>
</g>
<!-- BB8 -->
<g id="node9" class="node">
<title>BB8</title>
<ellipse fill="none" stroke="black" cx="115.26" cy="-370.34" rx="115.02" ry="37.45"/>
<text text-anchor="middle" x="115.26" y="-381.64" font-family="Times New Roman,serif" font-size="14.00">[1ac..1d3)</text>
<text text-anchor="middle" x="115.26" y="-366.64" font-family="Times New Roman,serif" font-size="14.00">Normalized Count: 201.00</text>
<text text-anchor="middle" x="115.26" y="-351.64" font-family="Times New Roman,serif" font-size="14.00">Samples weight: 0.00</text>
</g>
<!-- BB7&#45;&gt;BB8 -->
<g id="edge11" class="edge">
<title>BB7&#45;&gt;BB8</title>
<path fill="none" stroke="black" d="M277.4,-449.51C249.49,-436.05 216.6,-420.19 187.77,-406.3"/>
<polygon fill="black" stroke="black" points="189.09,-403.05 178.57,-401.86 186.05,-409.35 189.09,-403.05"/>
</g>
<!-- BB8&#45;&gt;BB9 -->
<g id="edge12" class="edge">
<title>BB8&#45;&gt;BB9</title>
<path fill="none" stroke="black" d="M112.85,-407.91C110.05,-478.9 113.18,-637.41 186.26,-740.67 197.42,-756.45 213.19,-769.31 229.75,-779.58"/>
<polygon fill="black" stroke="black" points="228.07,-782.66 238.46,-784.72 231.62,-776.63 228.07,-782.66"/>
</g>
<!-- BB10 -->
<g id="node11" class="node">
<title>BB10</title>
<ellipse fill="none" stroke="black" cx="310.26" cy="-703.2" rx="115.02" ry="37.45"/>
<text text-anchor="middle" x="310.26" y="-714.5" font-family="Times New Roman,serif" font-size="14.00">[1d9..1e4)</text>
<text text-anchor="middle" x="310.26" y="-699.5" font-family="Times New Roman,serif" font-size="14.00">Normalized Count: 201.00</text>
<text text-anchor="middle" x="310.26" y="-684.5" font-family="Times New Roman,serif" font-size="14.00">Samples weight: 0.00</text>
</g>
<!-- BB9&#45;&gt;BB10 -->
<g id="edge14" class="edge">
<title>BB9&#45;&gt;BB10</title>
<path fill="none" stroke="black" d="M310.26,-776.57C310.26,-768.39 310.26,-759.61 310.26,-751.09"/>
<polygon fill="black" stroke="black" points="313.76,-750.87 310.26,-740.87 306.76,-750.87 313.76,-750.87"/>
</g>
<!-- BB11 -->
<g id="node12" class="node">
<title>BB11</title>
<ellipse fill="none" stroke="black" cx="549.26" cy="-703.2" rx="105.22" ry="37.45"/>
<text text-anchor="middle" x="549.26" y="-714.5" font-family="Times New Roman,serif" font-size="14.00">[1e4..1e5)</text>
<text text-anchor="middle" x="549.26" y="-699.5" font-family="Times New Roman,serif" font-size="14.00">Normalized Count: 1.00</text>
<text text-anchor="middle" x="549.26" y="-684.5" font-family="Times New Roman,serif" font-size="14.00">Samples weight: 0.00</text>
</g>
<!-- BB9&#45;&gt;BB11 -->
<g id="edge13" class="edge">
<title>BB9&#45;&gt;BB11</title>
<path fill="none" stroke="black" d="M375.88,-783.23C406.95,-769.07 444.16,-752.11 476.13,-737.53"/>
<polygon fill="black" stroke="black" points="477.78,-740.63 485.43,-733.29 474.88,-734.26 477.78,-740.63"/>
</g>
<!-- BB10&#45;&gt;BB1 -->
<g id="edge15" class="edge">
<title>BB10&#45;&gt;BB1</title>
<path fill="none" stroke="black" d="M310.93,-665.61C311.08,-657.44 311.24,-648.66 311.4,-640.13"/>
<polygon fill="black" stroke="black" points="314.9,-639.98 311.59,-629.92 307.9,-639.85 314.9,-639.98"/>
</g>
<!-- BB10&#45;&gt;BB11 -->
<g id="edge16" class="edge">
<title>BB10&#45;&gt;BB11</title>
<path fill="none" stroke="black" d="M425.56,-703.2C428.16,-703.2 430.77,-703.2 433.38,-703.2"/>
<polygon fill="black" stroke="black" points="433.44,-706.7 443.44,-703.2 433.44,-699.7 433.44,-706.7"/>
</g>
</g>
</svg>
