<?xml version="1.0" encoding="UTF-8" standalone="no"?>
<!DOCTYPE svg PUBLIC "-//W3C//DTD SVG 1.1//EN"
 "http://www.w3.org/Graphics/SVG/1.1/DTD/svg11.dtd">
<!-- Generated by graphviz version 2.47.0 (20210316.0004)
 -->
<!-- Title: G Pages: 1 -->
<svg width="663pt" height="1029pt"
 viewBox="0.00 0.00 662.69 1029.33" xmlns="http://www.w3.org/2000/svg" xmlns:xlink="http://www.w3.org/1999/xlink">
<g id="graph0" class="graph" transform="scale(1 1) rotate(0) translate(4 1025.33)">
<title>G</title>
<polygon fill="white" stroke="transparent" points="-4,4 -4,-1025.33 658.69,-1025.33 658.69,4 -4,4"/>
<!-- BB0 -->
<g id="node1" class="node">
<title>BB0</title>
<ellipse fill="none" stroke="black" cx="307.84" cy="-973.25" rx="104.8" ry="48.17"/>
<text text-anchor="middle" x="307.84" y="-992.05" font-family="Times New Roman,serif" font-size="14.00">[0..9)</text>
<text text-anchor="middle" x="307.84" y="-977.05" font-family="Times New Roman,serif" font-size="14.00">Count: 0</text>
<text text-anchor="middle" x="307.84" y="-962.05" font-family="Times New Roman,serif" font-size="14.00">Normalized count: NaN</text>
<text text-anchor="middle" x="307.84" y="-947.05" font-family="Times New Roman,serif" font-size="14.00">Samples weight: 0.00</text>
</g>
<!-- BB8 -->
<g id="node9" class="node">
<title>BB8</title>
<ellipse fill="none" stroke="black" cx="307.84" cy="-841.08" rx="113.69" ry="48.17"/>
<text text-anchor="middle" x="307.84" y="-859.88" font-family="Times New Roman,serif" font-size="14.00">[8b..90)</text>
<text text-anchor="middle" x="307.84" y="-844.88" font-family="Times New Roman,serif" font-size="14.00">Count: 1</text>
<text text-anchor="middle" x="307.84" y="-829.88" font-family="Times New Roman,serif" font-size="14.00">Normalized count: Infinity</text>
<text text-anchor="middle" x="307.84" y="-814.88" font-family="Times New Roman,serif" font-size="14.00">Samples weight: 0.00</text>
</g>
<!-- BB0&#45;&gt;BB8 -->
<g id="edge1" class="edge">
<title>BB0&#45;&gt;BB8</title>
<path fill="none" stroke="black" d="M307.84,-924.89C307.84,-916.62 307.84,-907.94 307.84,-899.43"/>
<polygon fill="black" stroke="black" points="311.34,-899.19 307.84,-889.19 304.34,-899.19 311.34,-899.19"/>
</g>
<!-- BB1 -->
<g id="node2" class="node">
<title>BB1</title>
<ellipse fill="none" stroke="black" cx="307.84" cy="-576.75" rx="113.69" ry="48.17"/>
<text text-anchor="middle" x="307.84" y="-595.55" font-family="Times New Roman,serif" font-size="14.00">[9..f)</text>
<text text-anchor="middle" x="307.84" y="-580.55" font-family="Times New Roman,serif" font-size="14.00">Count: 1</text>
<text text-anchor="middle" x="307.84" y="-565.55" font-family="Times New Roman,serif" font-size="14.00">Normalized count: Infinity</text>
<text text-anchor="middle" x="307.84" y="-550.55" font-family="Times New Roman,serif" font-size="14.00">Samples weight: 0.00</text>
</g>
<!-- BB6 -->
<g id="node7" class="node">
<title>BB6</title>
<ellipse fill="none" stroke="black" cx="333.84" cy="-444.58" rx="113.69" ry="48.17"/>
<text text-anchor="middle" x="333.84" y="-463.38" font-family="Times New Roman,serif" font-size="14.00">[7e..82)</text>
<text text-anchor="middle" x="333.84" y="-448.38" font-family="Times New Roman,serif" font-size="14.00">Count: 216</text>
<text text-anchor="middle" x="333.84" y="-433.38" font-family="Times New Roman,serif" font-size="14.00">Normalized count: Infinity</text>
<text text-anchor="middle" x="333.84" y="-418.38" font-family="Times New Roman,serif" font-size="14.00">Samples weight: 0.00</text>
</g>
<!-- BB1&#45;&gt;BB6 -->
<g id="edge2" class="edge">
<title>BB1&#45;&gt;BB6</title>
<path fill="none" stroke="black" d="M317.23,-528.76C318.94,-520.18 320.75,-511.16 322.51,-502.34"/>
<polygon fill="black" stroke="black" points="325.94,-503 324.47,-492.51 319.08,-501.63 325.94,-503"/>
</g>
<!-- BB2 -->
<g id="node3" class="node">
<title>BB2</title>
<ellipse fill="none" stroke="black" cx="359.84" cy="-312.42" rx="113.69" ry="48.17"/>
<text text-anchor="middle" x="359.84" y="-331.22" font-family="Times New Roman,serif" font-size="14.00">[f..1f)</text>
<text text-anchor="middle" x="359.84" y="-316.22" font-family="Times New Roman,serif" font-size="14.00">Count: 197</text>
<text text-anchor="middle" x="359.84" y="-301.22" font-family="Times New Roman,serif" font-size="14.00">Normalized count: Infinity</text>
<text text-anchor="middle" x="359.84" y="-286.22" font-family="Times New Roman,serif" font-size="14.00">Samples weight: 0.00</text>
</g>
<!-- BB3 -->
<g id="node4" class="node">
<title>BB3</title>
<ellipse fill="none" stroke="black" cx="346.84" cy="-180.25" rx="113.69" ry="48.17"/>
<text text-anchor="middle" x="346.84" y="-199.05" font-family="Times New Roman,serif" font-size="14.00">[1f..5d)</text>
<text text-anchor="middle" x="346.84" y="-184.05" font-family="Times New Roman,serif" font-size="14.00">Count: 114503</text>
<text text-anchor="middle" x="346.84" y="-169.05" font-family="Times New Roman,serif" font-size="14.00">Normalized count: Infinity</text>
<text text-anchor="middle" x="346.84" y="-154.05" font-family="Times New Roman,serif" font-size="14.00">Samples weight: 0.50</text>
</g>
<!-- BB2&#45;&gt;BB3 -->
<g id="edge3" class="edge">
<title>BB2&#45;&gt;BB3</title>
<path fill="none" stroke="black" d="M355.11,-264.05C354.28,-255.7 353.4,-246.91 352.54,-238.32"/>
<polygon fill="black" stroke="black" points="356.03,-237.96 351.55,-228.36 349.06,-238.66 356.03,-237.96"/>
</g>
<!-- BB4 -->
<g id="node5" class="node">
<title>BB4</title>
<ellipse fill="none" stroke="black" cx="294.84" cy="-48.08" rx="113.69" ry="48.17"/>
<text text-anchor="middle" x="294.84" y="-66.88" font-family="Times New Roman,serif" font-size="14.00">[5d..66)</text>
<text text-anchor="middle" x="294.84" y="-51.88" font-family="Times New Roman,serif" font-size="14.00">Count: 114431</text>
<text text-anchor="middle" x="294.84" y="-36.88" font-family="Times New Roman,serif" font-size="14.00">Normalized count: Infinity</text>
<text text-anchor="middle" x="294.84" y="-21.88" font-family="Times New Roman,serif" font-size="14.00">Samples weight: 0.50</text>
</g>
<!-- BB3&#45;&gt;BB4 -->
<g id="edge5" class="edge">
<title>BB3&#45;&gt;BB4</title>
<path fill="none" stroke="black" d="M321.87,-132.99C318.07,-124.1 314.24,-114.69 310.69,-105.52"/>
<polygon fill="black" stroke="black" points="313.93,-104.18 307.1,-96.07 307.38,-106.66 313.93,-104.18"/>
</g>
<!-- BB5 -->
<g id="node6" class="node">
<title>BB5</title>
<ellipse fill="none" stroke="black" cx="540.84" cy="-48.08" rx="113.69" ry="48.17"/>
<text text-anchor="middle" x="540.84" y="-66.88" font-family="Times New Roman,serif" font-size="14.00">[66..7e)</text>
<text text-anchor="middle" x="540.84" y="-51.88" font-family="Times New Roman,serif" font-size="14.00">Count: 243</text>
<text text-anchor="middle" x="540.84" y="-36.88" font-family="Times New Roman,serif" font-size="14.00">Normalized count: Infinity</text>
<text text-anchor="middle" x="540.84" y="-21.88" font-family="Times New Roman,serif" font-size="14.00">Samples weight: 0.00</text>
</g>
<!-- BB3&#45;&gt;BB5 -->
<g id="edge4" class="edge">
<title>BB3&#45;&gt;BB5</title>
<path fill="none" stroke="black" d="M406.63,-139.13C427.57,-125.09 451.23,-109.21 472.79,-94.75"/>
<polygon fill="black" stroke="black" points="474.9,-97.55 481.25,-89.07 471,-91.73 474.9,-97.55"/>
</g>
<!-- BB4&#45;&gt;BB3 -->
<g id="edge6" class="edge">
<title>BB4&#45;&gt;BB3</title>
<path fill="none" stroke="black" d="M319.73,-95.14C323.55,-104.07 327.4,-113.53 330.97,-122.76"/>
<polygon fill="black" stroke="black" points="327.76,-124.15 334.58,-132.26 334.3,-121.67 327.76,-124.15"/>
</g>
<!-- BB4&#45;&gt;BB5 -->
<g id="edge7" class="edge">
<title>BB4&#45;&gt;BB5</title>
<path fill="none" stroke="black" d="M408.72,-48.08C411.35,-48.08 413.98,-48.08 416.62,-48.08"/>
<polygon fill="black" stroke="black" points="416.78,-51.58 426.78,-48.08 416.78,-44.58 416.78,-51.58"/>
</g>
<!-- BB5&#45;&gt;BB6 -->
<g id="edge8" class="edge">
<title>BB5&#45;&gt;BB6</title>
<path fill="none" stroke="black" d="M543.89,-96.33C545.68,-161.84 539.89,-281.12 482.84,-360.5 468.85,-379.97 448.82,-395.43 427.95,-407.47"/>
<polygon fill="black" stroke="black" points="426.04,-404.53 418.98,-412.43 429.42,-410.66 426.04,-404.53"/>
</g>
<!-- BB6&#45;&gt;BB2 -->
<g id="edge9" class="edge">
<title>BB6&#45;&gt;BB2</title>
<path fill="none" stroke="black" d="M343.23,-396.59C344.94,-388.02 346.75,-378.99 348.51,-370.17"/>
<polygon fill="black" stroke="black" points="351.94,-370.83 350.47,-360.34 345.08,-369.46 351.94,-370.83"/>
</g>
<!-- BB7 -->
<g id="node8" class="node">
<title>BB7</title>
<ellipse fill="none" stroke="black" cx="113.84" cy="-312.42" rx="113.69" ry="48.17"/>
<text text-anchor="middle" x="113.84" y="-331.22" font-family="Times New Roman,serif" font-size="14.00">[82..8b)</text>
<text text-anchor="middle" x="113.84" y="-316.22" font-family="Times New Roman,serif" font-size="14.00">Count: 1</text>
<text text-anchor="middle" x="113.84" y="-301.22" font-family="Times New Roman,serif" font-size="14.00">Normalized count: Infinity</text>
<text text-anchor="middle" x="113.84" y="-286.22" font-family="Times New Roman,serif" font-size="14.00">Samples weight: 0.00</text>
</g>
<!-- BB6&#45;&gt;BB7 -->
<g id="edge10" class="edge">
<title>BB6&#45;&gt;BB7</title>
<path fill="none" stroke="black" d="M268.73,-405.06C243.34,-390.04 214.11,-372.74 187.92,-357.25"/>
<polygon fill="black" stroke="black" points="189.56,-354.15 179.17,-352.07 186,-360.17 189.56,-354.15"/>
</g>
<!-- BB7&#45;&gt;BB8 -->
<g id="edge11" class="edge">
<title>BB7&#45;&gt;BB8</title>
<path fill="none" stroke="black" d="M109.74,-360.73C104.65,-446.78 104.85,-631.57 184.84,-757 195.23,-773.28 210.07,-787.15 225.88,-798.62"/>
<polygon fill="black" stroke="black" points="224,-801.58 234.21,-804.4 227.99,-795.83 224,-801.58"/>
</g>
<!-- BB9 -->
<g id="node10" class="node">
<title>BB9</title>
<ellipse fill="none" stroke="black" cx="307.84" cy="-708.92" rx="113.69" ry="48.17"/>
<text text-anchor="middle" x="307.84" y="-727.72" font-family="Times New Roman,serif" font-size="14.00">[90..9b)</text>
<text text-anchor="middle" x="307.84" y="-712.72" font-family="Times New Roman,serif" font-size="14.00">Count: 1</text>
<text text-anchor="middle" x="307.84" y="-697.72" font-family="Times New Roman,serif" font-size="14.00">Normalized count: Infinity</text>
<text text-anchor="middle" x="307.84" y="-682.72" font-family="Times New Roman,serif" font-size="14.00">Samples weight: 0.00</text>
</g>
<!-- BB8&#45;&gt;BB9 -->
<g id="edge13" class="edge">
<title>BB8&#45;&gt;BB9</title>
<path fill="none" stroke="black" d="M307.84,-792.72C307.84,-784.45 307.84,-775.77 307.84,-767.27"/>
<polygon fill="black" stroke="black" points="311.34,-767.02 307.84,-757.02 304.34,-767.02 311.34,-767.02"/>
</g>
<!-- BB10 -->
<g id="node11" class="node">
<title>BB10</title>
<ellipse fill="none" stroke="black" cx="543.84" cy="-708.92" rx="104.8" ry="48.17"/>
<text text-anchor="middle" x="543.84" y="-727.72" font-family="Times New Roman,serif" font-size="14.00">[9b..9c)</text>
<text text-anchor="middle" x="543.84" y="-712.72" font-family="Times New Roman,serif" font-size="14.00">Count: 0</text>
<text text-anchor="middle" x="543.84" y="-697.72" font-family="Times New Roman,serif" font-size="14.00">Normalized count: NaN</text>
<text text-anchor="middle" x="543.84" y="-682.72" font-family="Times New Roman,serif" font-size="14.00">Samples weight: 0.00</text>
</g>
<!-- BB8&#45;&gt;BB10 -->
<g id="edge12" class="edge">
<title>BB8&#45;&gt;BB10</title>
<path fill="none" stroke="black" d="M376.11,-802.43C405.1,-786.44 438.99,-767.75 468.7,-751.36"/>
<polygon fill="black" stroke="black" points="470.7,-754.25 477.77,-746.36 467.32,-748.12 470.7,-754.25"/>
</g>
<!-- BB9&#45;&gt;BB1 -->
<g id="edge14" class="edge">
<title>BB9&#45;&gt;BB1</title>
<path fill="none" stroke="black" d="M307.84,-660.55C307.84,-652.29 307.84,-643.6 307.84,-635.1"/>
<polygon fill="black" stroke="black" points="311.34,-634.86 307.84,-624.86 304.34,-634.86 311.34,-634.86"/>
</g>
<!-- BB9&#45;&gt;BB10 -->
<g id="edge15" class="edge">
<title>BB9&#45;&gt;BB10</title>
<path fill="none" stroke="black" d="M421.7,-708.92C424.02,-708.92 426.35,-708.92 428.67,-708.92"/>
<polygon fill="black" stroke="black" points="428.87,-712.42 438.87,-708.92 428.87,-705.42 428.87,-712.42"/>
</g>
</g>
</svg>
