<?xml version="1.0" encoding="UTF-8" standalone="no"?>
<!DOCTYPE svg PUBLIC "-//W3C//DTD SVG 1.1//EN"
 "http://www.w3.org/Graphics/SVG/1.1/DTD/svg11.dtd">
<!-- Generated by graphviz version 2.47.0 (20210316.0004)
 -->
<!-- Title: G Pages: 1 -->
<svg width="624pt" height="1161pt"
 viewBox="0.00 0.00 624.30 1161.50" xmlns="http://www.w3.org/2000/svg" xmlns:xlink="http://www.w3.org/1999/xlink">
<g id="graph0" class="graph" transform="scale(1 1) rotate(0) translate(4 1157.5)">
<title>G</title>
<polygon fill="white" stroke="transparent" points="-4,4 -4,-1157.5 620.3,-1157.5 620.3,4 -4,4"/>
<!-- BB0 -->
<g id="node1" class="node">
<title>BB0</title>
<ellipse fill="none" stroke="black" cx="284.65" cy="-1105.42" rx="104.8" ry="48.17"/>
<text text-anchor="middle" x="284.65" y="-1124.22" font-family="Times New Roman,serif" font-size="14.00">[0..98)</text>
<text text-anchor="middle" x="284.65" y="-1109.22" font-family="Times New Roman,serif" font-size="14.00">Count: 0</text>
<text text-anchor="middle" x="284.65" y="-1094.22" font-family="Times New Roman,serif" font-size="14.00">Normalized count: NaN</text>
<text text-anchor="middle" x="284.65" y="-1079.22" font-family="Times New Roman,serif" font-size="14.00">Samples weight: 0.00</text>
</g>
<!-- BB9 -->
<g id="node10" class="node">
<title>BB9</title>
<ellipse fill="none" stroke="black" cx="284.65" cy="-973.25" rx="104.8" ry="48.17"/>
<text text-anchor="middle" x="284.65" y="-992.05" font-family="Times New Roman,serif" font-size="14.00">[1a7..1ac)</text>
<text text-anchor="middle" x="284.65" y="-977.05" font-family="Times New Roman,serif" font-size="14.00">Count: 0</text>
<text text-anchor="middle" x="284.65" y="-962.05" font-family="Times New Roman,serif" font-size="14.00">Normalized count: NaN</text>
<text text-anchor="middle" x="284.65" y="-947.05" font-family="Times New Roman,serif" font-size="14.00">Samples weight: 0.00</text>
</g>
<!-- BB0&#45;&gt;BB9 -->
<g id="edge1" class="edge">
<title>BB0&#45;&gt;BB9</title>
<path fill="none" stroke="black" d="M284.65,-1057.05C284.65,-1048.79 284.65,-1040.1 284.65,-1031.6"/>
<polygon fill="black" stroke="black" points="288.15,-1031.36 284.65,-1021.36 281.15,-1031.36 288.15,-1031.36"/>
</g>
<!-- BB1 -->
<g id="node2" class="node">
<title>BB1</title>
<ellipse fill="none" stroke="black" cx="307.65" cy="-708.92" rx="104.8" ry="48.17"/>
<text text-anchor="middle" x="307.65" y="-727.72" font-family="Times New Roman,serif" font-size="14.00">[98..b8)</text>
<text text-anchor="middle" x="307.65" y="-712.72" font-family="Times New Roman,serif" font-size="14.00">Count: 0</text>
<text text-anchor="middle" x="307.65" y="-697.72" font-family="Times New Roman,serif" font-size="14.00">Normalized count: NaN</text>
<text text-anchor="middle" x="307.65" y="-682.72" font-family="Times New Roman,serif" font-size="14.00">Samples weight: 0.00</text>
</g>
<!-- BB7 -->
<g id="node8" class="node">
<title>BB7</title>
<ellipse fill="none" stroke="black" cx="319.65" cy="-576.75" rx="104.8" ry="48.17"/>
<text text-anchor="middle" x="319.65" y="-595.55" font-family="Times New Roman,serif" font-size="14.00">[171..17f)</text>
<text text-anchor="middle" x="319.65" y="-580.55" font-family="Times New Roman,serif" font-size="14.00">Count: 0</text>
<text text-anchor="middle" x="319.65" y="-565.55" font-family="Times New Roman,serif" font-size="14.00">Normalized count: NaN</text>
<text text-anchor="middle" x="319.65" y="-550.55" font-family="Times New Roman,serif" font-size="14.00">Samples weight: 0.00</text>
</g>
<!-- BB1&#45;&gt;BB7 -->
<g id="edge2" class="edge">
<title>BB1&#45;&gt;BB7</title>
<path fill="none" stroke="black" d="M312.02,-660.55C312.79,-652.2 313.6,-643.41 314.39,-634.82"/>
<polygon fill="black" stroke="black" points="317.88,-635.14 315.31,-624.86 310.91,-634.49 317.88,-635.14"/>
</g>
<!-- BB2 -->
<g id="node3" class="node">
<title>BB2</title>
<ellipse fill="none" stroke="black" cx="331.65" cy="-444.58" rx="104.8" ry="48.17"/>
<text text-anchor="middle" x="331.65" y="-463.38" font-family="Times New Roman,serif" font-size="14.00">[b8..d5)</text>
<text text-anchor="middle" x="331.65" y="-448.38" font-family="Times New Roman,serif" font-size="14.00">Count: 0</text>
<text text-anchor="middle" x="331.65" y="-433.38" font-family="Times New Roman,serif" font-size="14.00">Normalized count: NaN</text>
<text text-anchor="middle" x="331.65" y="-418.38" font-family="Times New Roman,serif" font-size="14.00">Samples weight: 0.00</text>
</g>
<!-- BB3 -->
<g id="node4" class="node">
<title>BB3</title>
<ellipse fill="none" stroke="black" cx="317.65" cy="-312.42" rx="113.69" ry="48.17"/>
<text text-anchor="middle" x="317.65" y="-331.22" font-family="Times New Roman,serif" font-size="14.00">[d5..127)</text>
<text text-anchor="middle" x="317.65" y="-316.22" font-family="Times New Roman,serif" font-size="14.00">Count: 805</text>
<text text-anchor="middle" x="317.65" y="-301.22" font-family="Times New Roman,serif" font-size="14.00">Normalized count: Infinity</text>
<text text-anchor="middle" x="317.65" y="-286.22" font-family="Times New Roman,serif" font-size="14.00">Samples weight: 1.00</text>
</g>
<!-- BB2&#45;&gt;BB3 -->
<g id="edge3" class="edge">
<title>BB2&#45;&gt;BB3</title>
<path fill="none" stroke="black" d="M326.56,-396.22C325.66,-387.86 324.71,-379.08 323.79,-370.49"/>
<polygon fill="black" stroke="black" points="327.27,-370.09 322.72,-360.52 320.31,-370.84 327.27,-370.09"/>
</g>
<!-- BB3&#45;&gt;BB3 -->
<g id="edge4" class="edge">
<title>BB3&#45;&gt;BB3</title>
<path fill="none" stroke="black" d="M416.83,-336.02C435.95,-333.24 449.5,-325.37 449.5,-312.42 449.5,-301.89 440.55,-294.72 426.95,-290.91"/>
<polygon fill="black" stroke="black" points="427.34,-287.42 416.83,-288.81 425.91,-294.27 427.34,-287.42"/>
</g>
<!-- BB4 -->
<g id="node5" class="node">
<title>BB4</title>
<ellipse fill="none" stroke="black" cx="317.65" cy="-180.25" rx="113.69" ry="48.17"/>
<text text-anchor="middle" x="317.65" y="-199.05" font-family="Times New Roman,serif" font-size="14.00">[127..133)</text>
<text text-anchor="middle" x="317.65" y="-184.05" font-family="Times New Roman,serif" font-size="14.00">Count: 1</text>
<text text-anchor="middle" x="317.65" y="-169.05" font-family="Times New Roman,serif" font-size="14.00">Normalized count: Infinity</text>
<text text-anchor="middle" x="317.65" y="-154.05" font-family="Times New Roman,serif" font-size="14.00">Samples weight: 0.00</text>
</g>
<!-- BB3&#45;&gt;BB4 -->
<g id="edge5" class="edge">
<title>BB3&#45;&gt;BB4</title>
<path fill="none" stroke="black" d="M317.65,-264.05C317.65,-255.79 317.65,-247.1 317.65,-238.6"/>
<polygon fill="black" stroke="black" points="321.15,-238.36 317.65,-228.36 314.15,-238.36 321.15,-238.36"/>
</g>
<!-- BB5 -->
<g id="node6" class="node">
<title>BB5</title>
<ellipse fill="none" stroke="black" cx="250.65" cy="-48.08" rx="104.8" ry="48.17"/>
<text text-anchor="middle" x="250.65" y="-66.88" font-family="Times New Roman,serif" font-size="14.00">[133..14d)</text>
<text text-anchor="middle" x="250.65" y="-51.88" font-family="Times New Roman,serif" font-size="14.00">Count: 0</text>
<text text-anchor="middle" x="250.65" y="-36.88" font-family="Times New Roman,serif" font-size="14.00">Normalized count: NaN</text>
<text text-anchor="middle" x="250.65" y="-21.88" font-family="Times New Roman,serif" font-size="14.00">Samples weight: 0.00</text>
</g>
<!-- BB4&#45;&gt;BB5 -->
<g id="edge7" class="edge">
<title>BB4&#45;&gt;BB5</title>
<path fill="none" stroke="black" d="M293.84,-132.99C289.05,-123.69 283.98,-113.82 279.05,-104.25"/>
<polygon fill="black" stroke="black" points="282.07,-102.48 274.39,-95.19 275.85,-105.69 282.07,-102.48"/>
</g>
<!-- BB6 -->
<g id="node7" class="node">
<title>BB6</title>
<ellipse fill="none" stroke="black" cx="477.65" cy="-48.08" rx="104.8" ry="48.17"/>
<text text-anchor="middle" x="477.65" y="-66.88" font-family="Times New Roman,serif" font-size="14.00">[14d..171)</text>
<text text-anchor="middle" x="477.65" y="-51.88" font-family="Times New Roman,serif" font-size="14.00">Count: 0</text>
<text text-anchor="middle" x="477.65" y="-36.88" font-family="Times New Roman,serif" font-size="14.00">Normalized count: NaN</text>
<text text-anchor="middle" x="477.65" y="-21.88" font-family="Times New Roman,serif" font-size="14.00">Samples weight: 0.00</text>
</g>
<!-- BB4&#45;&gt;BB6 -->
<g id="edge6" class="edge">
<title>BB4&#45;&gt;BB6</title>
<path fill="none" stroke="black" d="M369.16,-137.35C385.09,-124.38 402.77,-110.01 419.14,-96.68"/>
<polygon fill="black" stroke="black" points="421.51,-99.27 427.06,-90.24 417.1,-93.84 421.51,-99.27"/>
</g>
<!-- BB5&#45;&gt;BB6 -->
<g id="edge8" class="edge">
<title>BB5&#45;&gt;BB6</title>
<path fill="none" stroke="black" d="M355.73,-48.08C358.05,-48.08 360.37,-48.08 362.69,-48.08"/>
<polygon fill="black" stroke="black" points="362.87,-51.58 372.87,-48.08 362.87,-44.58 362.87,-51.58"/>
</g>
<!-- BB6&#45;&gt;BB7 -->
<g id="edge9" class="edge">
<title>BB6&#45;&gt;BB7</title>
<path fill="none" stroke="black" d="M487.31,-96.27C502.21,-182.11 521.75,-366.57 445.65,-492.67 435.01,-510.31 419.01,-524.95 401.96,-536.77"/>
<polygon fill="black" stroke="black" points="399.94,-533.91 393.52,-542.35 403.8,-539.75 399.94,-533.91"/>
</g>
<!-- BB7&#45;&gt;BB2 -->
<g id="edge10" class="edge">
<title>BB7&#45;&gt;BB2</title>
<path fill="none" stroke="black" d="M324.02,-528.39C324.79,-520.03 325.6,-511.25 326.39,-502.65"/>
<polygon fill="black" stroke="black" points="329.88,-502.97 327.31,-492.69 322.91,-502.33 329.88,-502.97"/>
</g>
<!-- BB8 -->
<g id="node9" class="node">
<title>BB8</title>
<ellipse fill="none" stroke="black" cx="104.65" cy="-444.58" rx="104.8" ry="48.17"/>
<text text-anchor="middle" x="104.65" y="-463.38" font-family="Times New Roman,serif" font-size="14.00">[17f..1a7)</text>
<text text-anchor="middle" x="104.65" y="-448.38" font-family="Times New Roman,serif" font-size="14.00">Count: 0</text>
<text text-anchor="middle" x="104.65" y="-433.38" font-family="Times New Roman,serif" font-size="14.00">Normalized count: NaN</text>
<text text-anchor="middle" x="104.65" y="-418.38" font-family="Times New Roman,serif" font-size="14.00">Samples weight: 0.00</text>
</g>
<!-- BB7&#45;&gt;BB8 -->
<g id="edge11" class="edge">
<title>BB7&#45;&gt;BB8</title>
<path fill="none" stroke="black" d="M257.18,-537.92C231.67,-522.48 202.03,-504.54 175.7,-488.6"/>
<polygon fill="black" stroke="black" points="177.28,-485.46 166.91,-483.28 173.65,-491.45 177.28,-485.46"/>
</g>
<!-- BB8&#45;&gt;BB9 -->
<g id="edge12" class="edge">
<title>BB8&#45;&gt;BB9</title>
<path fill="none" stroke="black" d="M100.32,-492.92C94.8,-578.61 93.84,-762.28 170.65,-889.17 180.23,-904.99 194.08,-918.7 208.84,-930.18"/>
<polygon fill="black" stroke="black" points="207,-933.17 217.12,-936.33 211.17,-927.55 207,-933.17"/>
</g>
<!-- BB10 -->
<g id="node11" class="node">
<title>BB10</title>
<ellipse fill="none" stroke="black" cx="284.65" cy="-841.08" rx="104.8" ry="48.17"/>
<text text-anchor="middle" x="284.65" y="-859.88" font-family="Times New Roman,serif" font-size="14.00">[1ac..1b7)</text>
<text text-anchor="middle" x="284.65" y="-844.88" font-family="Times New Roman,serif" font-size="14.00">Count: 0</text>
<text text-anchor="middle" x="284.65" y="-829.88" font-family="Times New Roman,serif" font-size="14.00">Normalized count: NaN</text>
<text text-anchor="middle" x="284.65" y="-814.88" font-family="Times New Roman,serif" font-size="14.00">Samples weight: 0.00</text>
</g>
<!-- BB9&#45;&gt;BB10 -->
<g id="edge14" class="edge">
<title>BB9&#45;&gt;BB10</title>
<path fill="none" stroke="black" d="M284.65,-924.89C284.65,-916.62 284.65,-907.94 284.65,-899.43"/>
<polygon fill="black" stroke="black" points="288.15,-899.19 284.65,-889.19 281.15,-899.19 288.15,-899.19"/>
</g>
<!-- BB11 -->
<g id="node12" class="node">
<title>BB11</title>
<ellipse fill="none" stroke="black" cx="511.65" cy="-841.08" rx="104.8" ry="48.17"/>
<text text-anchor="middle" x="511.65" y="-859.88" font-family="Times New Roman,serif" font-size="14.00">[1b7..1b8)</text>
<text text-anchor="middle" x="511.65" y="-844.88" font-family="Times New Roman,serif" font-size="14.00">Count: 0</text>
<text text-anchor="middle" x="511.65" y="-829.88" font-family="Times New Roman,serif" font-size="14.00">Normalized count: NaN</text>
<text text-anchor="middle" x="511.65" y="-814.88" font-family="Times New Roman,serif" font-size="14.00">Samples weight: 0.00</text>
</g>
<!-- BB9&#45;&gt;BB11 -->
<g id="edge13" class="edge">
<title>BB9&#45;&gt;BB11</title>
<path fill="none" stroke="black" d="M349.09,-935.3C376.89,-919.36 409.55,-900.63 438.27,-884.16"/>
<polygon fill="black" stroke="black" points="440.11,-887.14 447.05,-879.13 436.63,-881.07 440.11,-887.14"/>
</g>
<!-- BB10&#45;&gt;BB1 -->
<g id="edge15" class="edge">
<title>BB10&#45;&gt;BB1</title>
<path fill="none" stroke="black" d="M292.96,-793.09C294.44,-784.71 295.99,-775.91 297.52,-767.28"/>
<polygon fill="black" stroke="black" points="300.99,-767.73 299.28,-757.28 294.1,-766.52 300.99,-767.73"/>
</g>
<!-- BB10&#45;&gt;BB11 -->
<g id="edge16" class="edge">
<title>BB10&#45;&gt;BB11</title>
<path fill="none" stroke="black" d="M389.73,-841.08C392.05,-841.08 394.37,-841.08 396.69,-841.08"/>
<polygon fill="black" stroke="black" points="396.87,-844.58 406.87,-841.08 396.87,-837.58 396.87,-844.58"/>
</g>
</g>
</svg>
