<?xml version="1.0" encoding="UTF-8" standalone="no"?>
<!DOCTYPE svg PUBLIC "-//W3C//DTD SVG 1.1//EN"
 "http://www.w3.org/Graphics/SVG/1.1/DTD/svg11.dtd">
<!-- Generated by graphviz version 2.47.0 (20210316.0004)
 -->
<!-- Title: G Pages: 1 -->
<svg width="290pt" height="690pt"
 viewBox="0.00 0.00 289.56 689.92" xmlns="http://www.w3.org/2000/svg" xmlns:xlink="http://www.w3.org/1999/xlink">
<g id="graph0" class="graph" transform="scale(1 1) rotate(0) translate(4 685.92)">
<title>G</title>
<polygon fill="white" stroke="transparent" points="-4,4 -4,-685.92 285.56,-685.92 285.56,4 -4,4"/>
<!-- BB0 -->
<g id="node1" class="node">
<title>BB0</title>
<ellipse fill="none" stroke="black" cx="135.13" cy="-655.05" rx="33.47" ry="26.74"/>
<text text-anchor="middle" x="135.13" y="-658.85" font-family="Times New Roman,serif" font-size="14.00">[0..6)</text>
<text text-anchor="middle" x="135.13" y="-643.85" font-family="Times New Roman,serif" font-size="14.00">0.00</text>
</g>
<!-- BB8 -->
<g id="node9" class="node">
<title>BB8</title>
<ellipse fill="none" stroke="black" cx="135.13" cy="-565.31" rx="43.27" ry="26.74"/>
<text text-anchor="middle" x="135.13" y="-569.11" font-family="Times New Roman,serif" font-size="14.00">[7d..82)</text>
<text text-anchor="middle" x="135.13" y="-554.11" font-family="Times New Roman,serif" font-size="14.00">0.00</text>
</g>
<!-- BB0&#45;&gt;BB8 -->
<g id="edge1" class="edge">
<title>BB0&#45;&gt;BB8</title>
<path fill="none" stroke="black" d="M135.13,-627.73C135.13,-619.76 135.13,-610.87 135.13,-602.38"/>
<polygon fill="black" stroke="black" points="138.63,-602.31 135.13,-592.31 131.63,-602.31 138.63,-602.31"/>
</g>
<!-- BB1 -->
<g id="node2" class="node">
<title>BB1</title>
<ellipse fill="none" stroke="black" cx="137.13" cy="-385.83" rx="33.47" ry="26.74"/>
<text text-anchor="middle" x="137.13" y="-389.63" font-family="Times New Roman,serif" font-size="14.00">[6..c)</text>
<text text-anchor="middle" x="137.13" y="-374.63" font-family="Times New Roman,serif" font-size="14.00">0.00</text>
</g>
<!-- BB6 -->
<g id="node7" class="node">
<title>BB6</title>
<ellipse fill="none" stroke="black" cx="140.13" cy="-296.09" rx="42.35" ry="26.74"/>
<text text-anchor="middle" x="140.13" y="-299.89" font-family="Times New Roman,serif" font-size="14.00">[70..74)</text>
<text text-anchor="middle" x="140.13" y="-284.89" font-family="Times New Roman,serif" font-size="14.00">0.00</text>
</g>
<!-- BB1&#45;&gt;BB6 -->
<g id="edge2" class="edge">
<title>BB1&#45;&gt;BB6</title>
<path fill="none" stroke="black" d="M138.03,-358.51C138.31,-350.54 138.61,-341.65 138.9,-333.16"/>
<polygon fill="black" stroke="black" points="142.4,-333.21 139.24,-323.09 135.4,-332.97 142.4,-333.21"/>
</g>
<!-- BB2 -->
<g id="node3" class="node">
<title>BB2</title>
<ellipse fill="none" stroke="black" cx="142.13" cy="-206.35" rx="37.45" ry="26.74"/>
<text text-anchor="middle" x="142.13" y="-210.15" font-family="Times New Roman,serif" font-size="14.00">[c..23)</text>
<text text-anchor="middle" x="142.13" y="-195.15" font-family="Times New Roman,serif" font-size="14.00">0.00</text>
</g>
<!-- BB3 -->
<g id="node4" class="node">
<title>BB3</title>
<ellipse fill="none" stroke="black" cx="136.13" cy="-116.61" rx="41.02" ry="26.74"/>
<text text-anchor="middle" x="136.13" y="-120.41" font-family="Times New Roman,serif" font-size="14.00">[23..4f)</text>
<text text-anchor="middle" x="136.13" y="-105.41" font-family="Times New Roman,serif" font-size="14.00">0.99</text>
</g>
<!-- BB2&#45;&gt;BB3 -->
<g id="edge3" class="edge">
<title>BB2&#45;&gt;BB3</title>
<path fill="none" stroke="black" d="M140.37,-179.5C139.82,-171.45 139.2,-162.42 138.61,-153.8"/>
<polygon fill="black" stroke="black" points="142.08,-153.32 137.91,-143.58 135.1,-153.79 142.08,-153.32"/>
</g>
<!-- BB4 -->
<g id="node5" class="node">
<title>BB4</title>
<ellipse fill="none" stroke="black" cx="120.13" cy="-26.87" rx="41.02" ry="26.74"/>
<text text-anchor="middle" x="120.13" y="-30.67" font-family="Times New Roman,serif" font-size="14.00">[4f..58)</text>
<text text-anchor="middle" x="120.13" y="-15.67" font-family="Times New Roman,serif" font-size="14.00">0.00</text>
</g>
<!-- BB3&#45;&gt;BB4 -->
<g id="edge5" class="edge">
<title>BB3&#45;&gt;BB4</title>
<path fill="none" stroke="black" d="M125.32,-90.23C123.29,-82.01 121.44,-72.73 120.05,-63.89"/>
<polygon fill="black" stroke="black" points="123.49,-63.22 118.64,-53.8 116.56,-64.19 123.49,-63.22"/>
</g>
<!-- BB5 -->
<g id="node6" class="node">
<title>BB5</title>
<ellipse fill="none" stroke="black" cx="221.13" cy="-26.87" rx="42.35" ry="26.74"/>
<text text-anchor="middle" x="221.13" y="-30.67" font-family="Times New Roman,serif" font-size="14.00">[58..70)</text>
<text text-anchor="middle" x="221.13" y="-15.67" font-family="Times New Roman,serif" font-size="14.00">0.00</text>
</g>
<!-- BB3&#45;&gt;BB5 -->
<g id="edge4" class="edge">
<title>BB3&#45;&gt;BB5</title>
<path fill="none" stroke="black" d="M157.58,-93.47C168.07,-82.64 180.85,-69.45 192.19,-57.75"/>
<polygon fill="black" stroke="black" points="194.95,-59.93 199.4,-50.31 189.92,-55.06 194.95,-59.93"/>
</g>
<!-- BB4&#45;&gt;BB3 -->
<g id="edge6" class="edge">
<title>BB4&#45;&gt;BB3</title>
<path fill="none" stroke="black" d="M130.88,-52.97C132.91,-61.14 134.76,-70.38 136.16,-79.21"/>
<polygon fill="black" stroke="black" points="132.72,-79.87 137.58,-89.29 139.65,-78.89 132.72,-79.87"/>
</g>
<!-- BB4&#45;&gt;BB5 -->
<g id="edge7" class="edge">
<title>BB4&#45;&gt;BB5</title>
<path fill="none" stroke="black" d="M161.16,-26.87C163.6,-26.87 166.04,-26.87 168.48,-26.87"/>
<polygon fill="black" stroke="black" points="168.5,-30.37 178.5,-26.87 168.5,-23.37 168.5,-30.37"/>
</g>
<!-- BB5&#45;&gt;BB6 -->
<g id="edge8" class="edge">
<title>BB5&#45;&gt;BB6</title>
<path fill="none" stroke="black" d="M221.02,-53.98C219.97,-94.15 214.38,-172.77 188.13,-233.22 183.28,-244.41 175.93,-255.35 168.43,-264.85"/>
<polygon fill="black" stroke="black" points="165.54,-262.86 161.86,-272.8 170.93,-267.32 165.54,-262.86"/>
</g>
<!-- BB6&#45;&gt;BB2 -->
<g id="edge9" class="edge">
<title>BB6&#45;&gt;BB2</title>
<path fill="none" stroke="black" d="M140.73,-268.77C140.92,-260.8 141.12,-251.91 141.31,-243.42"/>
<polygon fill="black" stroke="black" points="144.81,-243.43 141.54,-233.35 137.81,-243.27 144.81,-243.43"/>
</g>
<!-- BB7 -->
<g id="node8" class="node">
<title>BB7</title>
<ellipse fill="none" stroke="black" cx="43.13" cy="-206.35" rx="43.27" ry="26.74"/>
<text text-anchor="middle" x="43.13" y="-210.15" font-family="Times New Roman,serif" font-size="14.00">[74..7d)</text>
<text text-anchor="middle" x="43.13" y="-195.15" font-family="Times New Roman,serif" font-size="14.00">0.00</text>
</g>
<!-- BB6&#45;&gt;BB7 -->
<g id="edge10" class="edge">
<title>BB6&#45;&gt;BB7</title>
<path fill="none" stroke="black" d="M116.16,-273.4C103.68,-262.12 88.27,-248.18 74.82,-236.02"/>
<polygon fill="black" stroke="black" points="76.94,-233.21 67.17,-229.09 72.24,-238.4 76.94,-233.21"/>
</g>
<!-- BB7&#45;&gt;BB8 -->
<g id="edge11" class="edge">
<title>BB7&#45;&gt;BB8</title>
<path fill="none" stroke="black" d="M41.92,-233.52C40.46,-286.66 42.21,-410.02 83.13,-502.44 88.33,-514.17 96.44,-525.41 104.73,-535.01"/>
<polygon fill="black" stroke="black" points="102.36,-537.61 111.67,-542.67 107.55,-532.91 102.36,-537.61"/>
</g>
<!-- BB9 -->
<g id="node10" class="node">
<title>BB9</title>
<ellipse fill="none" stroke="black" cx="135.13" cy="-475.57" rx="43.27" ry="26.74"/>
<text text-anchor="middle" x="135.13" y="-479.37" font-family="Times New Roman,serif" font-size="14.00">[82..8d)</text>
<text text-anchor="middle" x="135.13" y="-464.37" font-family="Times New Roman,serif" font-size="14.00">0.00</text>
</g>
<!-- BB8&#45;&gt;BB9 -->
<g id="edge13" class="edge">
<title>BB8&#45;&gt;BB9</title>
<path fill="none" stroke="black" d="M135.13,-537.99C135.13,-530.02 135.13,-521.13 135.13,-512.64"/>
<polygon fill="black" stroke="black" points="138.63,-512.57 135.13,-502.57 131.63,-512.57 138.63,-512.57"/>
</g>
<!-- BB10 -->
<g id="node11" class="node">
<title>BB10</title>
<ellipse fill="none" stroke="black" cx="239.13" cy="-475.57" rx="42.35" ry="26.74"/>
<text text-anchor="middle" x="239.13" y="-479.37" font-family="Times New Roman,serif" font-size="14.00">[8d..8e)</text>
<text text-anchor="middle" x="239.13" y="-464.37" font-family="Times New Roman,serif" font-size="14.00">0.00</text>
</g>
<!-- BB8&#45;&gt;BB10 -->
<g id="edge12" class="edge">
<title>BB8&#45;&gt;BB10</title>
<path fill="none" stroke="black" d="M160.04,-543.29C173.94,-531.57 191.41,-516.83 206.39,-504.19"/>
<polygon fill="black" stroke="black" points="209.04,-506.54 214.43,-497.42 204.53,-501.19 209.04,-506.54"/>
</g>
<!-- BB9&#45;&gt;BB1 -->
<g id="edge14" class="edge">
<title>BB9&#45;&gt;BB1</title>
<path fill="none" stroke="black" d="M135.73,-448.25C135.92,-440.28 136.12,-431.39 136.31,-422.9"/>
<polygon fill="black" stroke="black" points="139.81,-422.91 136.54,-412.83 132.81,-422.75 139.81,-422.91"/>
</g>
<!-- BB9&#45;&gt;BB10 -->
<g id="edge15" class="edge">
<title>BB9&#45;&gt;BB10</title>
<path fill="none" stroke="black" d="M178.6,-475.57C181.22,-475.57 183.84,-475.57 186.46,-475.57"/>
<polygon fill="black" stroke="black" points="186.57,-479.07 196.57,-475.57 186.57,-472.07 186.57,-479.07"/>
</g>
</g>
</svg>
