<?xml version="1.0" encoding="UTF-8" standalone="no"?>
<!DOCTYPE svg PUBLIC "-//W3C//DTD SVG 1.1//EN"
 "http://www.w3.org/Graphics/SVG/1.1/DTD/svg11.dtd">
<!-- Generated by graphviz version 2.47.0 (20210316.0004)
 -->
<!-- Title: G Pages: 1 -->
<svg width="643pt" height="1029pt"
 viewBox="0.00 0.00 643.50 1029.33" xmlns="http://www.w3.org/2000/svg" xmlns:xlink="http://www.w3.org/1999/xlink">
<g id="graph0" class="graph" transform="scale(1 1) rotate(0) translate(4 1025.33)">
<title>G</title>
<polygon fill="white" stroke="transparent" points="-4,4 -4,-1025.33 639.5,-1025.33 639.5,4 -4,4"/>
<!-- BB0 -->
<g id="node1" class="node">
<title>BB0</title>
<ellipse fill="none" stroke="black" cx="284.65" cy="-973.25" rx="104.8" ry="48.17"/>
<text text-anchor="middle" x="284.65" y="-992.05" font-family="Times New Roman,serif" font-size="14.00">[0..6)</text>
<text text-anchor="middle" x="284.65" y="-977.05" font-family="Times New Roman,serif" font-size="14.00">Count: 0</text>
<text text-anchor="middle" x="284.65" y="-962.05" font-family="Times New Roman,serif" font-size="14.00">Normalized count: NaN</text>
<text text-anchor="middle" x="284.65" y="-947.05" font-family="Times New Roman,serif" font-size="14.00">Samples weight: 0.00</text>
</g>
<!-- BB8 -->
<g id="node9" class="node">
<title>BB8</title>
<ellipse fill="none" stroke="black" cx="284.65" cy="-841.08" rx="104.8" ry="48.17"/>
<text text-anchor="middle" x="284.65" y="-859.88" font-family="Times New Roman,serif" font-size="14.00">[7d..82)</text>
<text text-anchor="middle" x="284.65" y="-844.88" font-family="Times New Roman,serif" font-size="14.00">Count: 0</text>
<text text-anchor="middle" x="284.65" y="-829.88" font-family="Times New Roman,serif" font-size="14.00">Normalized count: NaN</text>
<text text-anchor="middle" x="284.65" y="-814.88" font-family="Times New Roman,serif" font-size="14.00">Samples weight: 0.00</text>
</g>
<!-- BB0&#45;&gt;BB8 -->
<g id="edge1" class="edge">
<title>BB0&#45;&gt;BB8</title>
<path fill="none" stroke="black" d="M284.65,-924.89C284.65,-916.62 284.65,-907.94 284.65,-899.43"/>
<polygon fill="black" stroke="black" points="288.15,-899.19 284.65,-889.19 281.15,-899.19 288.15,-899.19"/>
</g>
<!-- BB1 -->
<g id="node2" class="node">
<title>BB1</title>
<ellipse fill="none" stroke="black" cx="288.65" cy="-576.75" rx="104.8" ry="48.17"/>
<text text-anchor="middle" x="288.65" y="-595.55" font-family="Times New Roman,serif" font-size="14.00">[6..c)</text>
<text text-anchor="middle" x="288.65" y="-580.55" font-family="Times New Roman,serif" font-size="14.00">Count: 0</text>
<text text-anchor="middle" x="288.65" y="-565.55" font-family="Times New Roman,serif" font-size="14.00">Normalized count: NaN</text>
<text text-anchor="middle" x="288.65" y="-550.55" font-family="Times New Roman,serif" font-size="14.00">Samples weight: 0.00</text>
</g>
<!-- BB6 -->
<g id="node7" class="node">
<title>BB6</title>
<ellipse fill="none" stroke="black" cx="316.65" cy="-444.58" rx="113.69" ry="48.17"/>
<text text-anchor="middle" x="316.65" y="-463.38" font-family="Times New Roman,serif" font-size="14.00">[70..74)</text>
<text text-anchor="middle" x="316.65" y="-448.38" font-family="Times New Roman,serif" font-size="14.00">Count: 85</text>
<text text-anchor="middle" x="316.65" y="-433.38" font-family="Times New Roman,serif" font-size="14.00">Normalized count: Infinity</text>
<text text-anchor="middle" x="316.65" y="-418.38" font-family="Times New Roman,serif" font-size="14.00">Samples weight: 0.00</text>
</g>
<!-- BB1&#45;&gt;BB6 -->
<g id="edge2" class="edge">
<title>BB1&#45;&gt;BB6</title>
<path fill="none" stroke="black" d="M298.76,-528.76C300.6,-520.18 302.55,-511.16 304.44,-502.34"/>
<polygon fill="black" stroke="black" points="307.88,-503.02 306.56,-492.51 301.03,-501.55 307.88,-503.02"/>
</g>
<!-- BB2 -->
<g id="node3" class="node">
<title>BB2</title>
<ellipse fill="none" stroke="black" cx="340.65" cy="-312.42" rx="113.69" ry="48.17"/>
<text text-anchor="middle" x="340.65" y="-331.22" font-family="Times New Roman,serif" font-size="14.00">[c..23)</text>
<text text-anchor="middle" x="340.65" y="-316.22" font-family="Times New Roman,serif" font-size="14.00">Count: 114</text>
<text text-anchor="middle" x="340.65" y="-301.22" font-family="Times New Roman,serif" font-size="14.00">Normalized count: Infinity</text>
<text text-anchor="middle" x="340.65" y="-286.22" font-family="Times New Roman,serif" font-size="14.00">Samples weight: 0.00</text>
</g>
<!-- BB3 -->
<g id="node4" class="node">
<title>BB3</title>
<ellipse fill="none" stroke="black" cx="327.65" cy="-180.25" rx="113.69" ry="48.17"/>
<text text-anchor="middle" x="327.65" y="-199.05" font-family="Times New Roman,serif" font-size="14.00">[23..4f)</text>
<text text-anchor="middle" x="327.65" y="-184.05" font-family="Times New Roman,serif" font-size="14.00">Count: 130599</text>
<text text-anchor="middle" x="327.65" y="-169.05" font-family="Times New Roman,serif" font-size="14.00">Normalized count: Infinity</text>
<text text-anchor="middle" x="327.65" y="-154.05" font-family="Times New Roman,serif" font-size="14.00">Samples weight: 0.67</text>
</g>
<!-- BB2&#45;&gt;BB3 -->
<g id="edge3" class="edge">
<title>BB2&#45;&gt;BB3</title>
<path fill="none" stroke="black" d="M335.92,-264.05C335.09,-255.7 334.21,-246.91 333.35,-238.32"/>
<polygon fill="black" stroke="black" points="336.83,-237.96 332.36,-228.36 329.87,-238.66 336.83,-237.96"/>
</g>
<!-- BB4 -->
<g id="node5" class="node">
<title>BB4</title>
<ellipse fill="none" stroke="black" cx="275.65" cy="-48.08" rx="113.69" ry="48.17"/>
<text text-anchor="middle" x="275.65" y="-66.88" font-family="Times New Roman,serif" font-size="14.00">[4f..58)</text>
<text text-anchor="middle" x="275.65" y="-51.88" font-family="Times New Roman,serif" font-size="14.00">Count: 65295</text>
<text text-anchor="middle" x="275.65" y="-36.88" font-family="Times New Roman,serif" font-size="14.00">Normalized count: Infinity</text>
<text text-anchor="middle" x="275.65" y="-21.88" font-family="Times New Roman,serif" font-size="14.00">Samples weight: 0.33</text>
</g>
<!-- BB3&#45;&gt;BB4 -->
<g id="edge5" class="edge">
<title>BB3&#45;&gt;BB4</title>
<path fill="none" stroke="black" d="M302.68,-132.99C298.88,-124.1 295.05,-114.69 291.5,-105.52"/>
<polygon fill="black" stroke="black" points="294.73,-104.18 287.91,-96.07 288.19,-106.66 294.73,-104.18"/>
</g>
<!-- BB5 -->
<g id="node6" class="node">
<title>BB5</title>
<ellipse fill="none" stroke="black" cx="521.65" cy="-48.08" rx="113.69" ry="48.17"/>
<text text-anchor="middle" x="521.65" y="-66.88" font-family="Times New Roman,serif" font-size="14.00">[58..70)</text>
<text text-anchor="middle" x="521.65" y="-51.88" font-family="Times New Roman,serif" font-size="14.00">Count: 118</text>
<text text-anchor="middle" x="521.65" y="-36.88" font-family="Times New Roman,serif" font-size="14.00">Normalized count: Infinity</text>
<text text-anchor="middle" x="521.65" y="-21.88" font-family="Times New Roman,serif" font-size="14.00">Samples weight: 0.00</text>
</g>
<!-- BB3&#45;&gt;BB5 -->
<g id="edge4" class="edge">
<title>BB3&#45;&gt;BB5</title>
<path fill="none" stroke="black" d="M387.44,-139.13C408.38,-125.09 432.04,-109.21 453.6,-94.75"/>
<polygon fill="black" stroke="black" points="455.71,-97.55 462.06,-89.07 451.81,-91.73 455.71,-97.55"/>
</g>
<!-- BB4&#45;&gt;BB3 -->
<g id="edge6" class="edge">
<title>BB4&#45;&gt;BB3</title>
<path fill="none" stroke="black" d="M300.54,-95.14C304.36,-104.07 308.21,-113.53 311.78,-122.76"/>
<polygon fill="black" stroke="black" points="308.57,-124.15 315.39,-132.26 315.11,-121.67 308.57,-124.15"/>
</g>
<!-- BB4&#45;&gt;BB5 -->
<g id="edge7" class="edge">
<title>BB4&#45;&gt;BB5</title>
<path fill="none" stroke="black" d="M389.52,-48.08C392.16,-48.08 394.79,-48.08 397.43,-48.08"/>
<polygon fill="black" stroke="black" points="397.59,-51.58 407.59,-48.08 397.59,-44.58 397.59,-51.58"/>
</g>
<!-- BB5&#45;&gt;BB6 -->
<g id="edge8" class="edge">
<title>BB5&#45;&gt;BB6</title>
<path fill="none" stroke="black" d="M524.63,-96.29C526.35,-161.74 520.47,-280.95 463.65,-360.5 449.94,-379.7 430.31,-395.04 409.85,-407.05"/>
<polygon fill="black" stroke="black" points="408.05,-404.05 401.04,-412 411.47,-410.15 408.05,-404.05"/>
</g>
<!-- BB6&#45;&gt;BB2 -->
<g id="edge9" class="edge">
<title>BB6&#45;&gt;BB2</title>
<path fill="none" stroke="black" d="M325.32,-396.59C326.86,-388.22 328.48,-379.41 330.07,-370.78"/>
<polygon fill="black" stroke="black" points="333.55,-371.25 331.92,-360.78 326.66,-369.98 333.55,-371.25"/>
</g>
<!-- BB7 -->
<g id="node8" class="node">
<title>BB7</title>
<ellipse fill="none" stroke="black" cx="104.65" cy="-312.42" rx="104.8" ry="48.17"/>
<text text-anchor="middle" x="104.65" y="-331.22" font-family="Times New Roman,serif" font-size="14.00">[74..7d)</text>
<text text-anchor="middle" x="104.65" y="-316.22" font-family="Times New Roman,serif" font-size="14.00">Count: 0</text>
<text text-anchor="middle" x="104.65" y="-301.22" font-family="Times New Roman,serif" font-size="14.00">Normalized count: NaN</text>
<text text-anchor="middle" x="104.65" y="-286.22" font-family="Times New Roman,serif" font-size="14.00">Samples weight: 0.00</text>
</g>
<!-- BB6&#45;&gt;BB7 -->
<g id="edge10" class="edge">
<title>BB6&#45;&gt;BB7</title>
<path fill="none" stroke="black" d="M253.04,-404.53C228.5,-389.46 200.32,-372.15 175.16,-356.7"/>
<polygon fill="black" stroke="black" points="176.74,-353.57 166.39,-351.32 173.08,-359.54 176.74,-353.57"/>
</g>
<!-- BB7&#45;&gt;BB8 -->
<g id="edge11" class="edge">
<title>BB7&#45;&gt;BB8</title>
<path fill="none" stroke="black" d="M100.32,-360.75C94.8,-446.44 93.84,-630.12 170.65,-757 180.23,-772.82 194.08,-786.54 208.84,-798.01"/>
<polygon fill="black" stroke="black" points="207,-801.01 217.12,-804.16 211.17,-795.39 207,-801.01"/>
</g>
<!-- BB9 -->
<g id="node10" class="node">
<title>BB9</title>
<ellipse fill="none" stroke="black" cx="284.65" cy="-708.92" rx="104.8" ry="48.17"/>
<text text-anchor="middle" x="284.65" y="-727.72" font-family="Times New Roman,serif" font-size="14.00">[82..8d)</text>
<text text-anchor="middle" x="284.65" y="-712.72" font-family="Times New Roman,serif" font-size="14.00">Count: 0</text>
<text text-anchor="middle" x="284.65" y="-697.72" font-family="Times New Roman,serif" font-size="14.00">Normalized count: NaN</text>
<text text-anchor="middle" x="284.65" y="-682.72" font-family="Times New Roman,serif" font-size="14.00">Samples weight: 0.00</text>
</g>
<!-- BB8&#45;&gt;BB9 -->
<g id="edge13" class="edge">
<title>BB8&#45;&gt;BB9</title>
<path fill="none" stroke="black" d="M284.65,-792.72C284.65,-784.45 284.65,-775.77 284.65,-767.27"/>
<polygon fill="black" stroke="black" points="288.15,-767.02 284.65,-757.02 281.15,-767.02 288.15,-767.02"/>
</g>
<!-- BB10 -->
<g id="node11" class="node">
<title>BB10</title>
<ellipse fill="none" stroke="black" cx="511.65" cy="-708.92" rx="104.8" ry="48.17"/>
<text text-anchor="middle" x="511.65" y="-727.72" font-family="Times New Roman,serif" font-size="14.00">[8d..8e)</text>
<text text-anchor="middle" x="511.65" y="-712.72" font-family="Times New Roman,serif" font-size="14.00">Count: 0</text>
<text text-anchor="middle" x="511.65" y="-697.72" font-family="Times New Roman,serif" font-size="14.00">Normalized count: NaN</text>
<text text-anchor="middle" x="511.65" y="-682.72" font-family="Times New Roman,serif" font-size="14.00">Samples weight: 0.00</text>
</g>
<!-- BB8&#45;&gt;BB10 -->
<g id="edge12" class="edge">
<title>BB8&#45;&gt;BB10</title>
<path fill="none" stroke="black" d="M349.09,-803.13C376.89,-787.19 409.55,-768.46 438.27,-751.99"/>
<polygon fill="black" stroke="black" points="440.11,-754.97 447.05,-746.96 436.63,-748.9 440.11,-754.97"/>
</g>
<!-- BB9&#45;&gt;BB1 -->
<g id="edge14" class="edge">
<title>BB9&#45;&gt;BB1</title>
<path fill="none" stroke="black" d="M286.11,-660.55C286.36,-652.29 286.63,-643.6 286.89,-635.1"/>
<polygon fill="black" stroke="black" points="290.4,-634.96 287.2,-624.86 283.4,-634.75 290.4,-634.96"/>
</g>
<!-- BB9&#45;&gt;BB10 -->
<g id="edge15" class="edge">
<title>BB9&#45;&gt;BB10</title>
<path fill="none" stroke="black" d="M389.73,-708.92C392.05,-708.92 394.37,-708.92 396.69,-708.92"/>
<polygon fill="black" stroke="black" points="396.87,-712.42 406.87,-708.92 396.87,-705.42 396.87,-712.42"/>
</g>
</g>
</svg>
