<?xml version="1.0" encoding="UTF-8" standalone="no"?>
<!DOCTYPE svg PUBLIC "-//W3C//DTD SVG 1.1//EN"
 "http://www.w3.org/Graphics/SVG/1.1/DTD/svg11.dtd">
<!-- Generated by graphviz version 2.47.0 (20210316.0004)
 -->
<!-- Title: G Pages: 1 -->
<svg width="656pt" height="1161pt"
 viewBox="0.00 0.00 656.50 1161.50" xmlns="http://www.w3.org/2000/svg" xmlns:xlink="http://www.w3.org/1999/xlink">
<g id="graph0" class="graph" transform="scale(1 1) rotate(0) translate(4 1157.5)">
<title>G</title>
<polygon fill="white" stroke="transparent" points="-4,4 -4,-1157.5 652.5,-1157.5 652.5,4 -4,4"/>
<!-- BB0 -->
<g id="node1" class="node">
<title>BB0</title>
<ellipse fill="none" stroke="black" cx="307.84" cy="-1105.42" rx="104.8" ry="48.17"/>
<text text-anchor="middle" x="307.84" y="-1124.22" font-family="Times New Roman,serif" font-size="14.00">[0..87)</text>
<text text-anchor="middle" x="307.84" y="-1109.22" font-family="Times New Roman,serif" font-size="14.00">Count: 0</text>
<text text-anchor="middle" x="307.84" y="-1094.22" font-family="Times New Roman,serif" font-size="14.00">Normalized count: NaN</text>
<text text-anchor="middle" x="307.84" y="-1079.22" font-family="Times New Roman,serif" font-size="14.00">Samples weight: 0.00</text>
</g>
<!-- BB9 -->
<g id="node10" class="node">
<title>BB9</title>
<ellipse fill="none" stroke="black" cx="307.84" cy="-973.25" rx="113.69" ry="48.17"/>
<text text-anchor="middle" x="307.84" y="-992.05" font-family="Times New Roman,serif" font-size="14.00">[1d3..1d9)</text>
<text text-anchor="middle" x="307.84" y="-977.05" font-family="Times New Roman,serif" font-size="14.00">Count: 1</text>
<text text-anchor="middle" x="307.84" y="-962.05" font-family="Times New Roman,serif" font-size="14.00">Normalized count: Infinity</text>
<text text-anchor="middle" x="307.84" y="-947.05" font-family="Times New Roman,serif" font-size="14.00">Samples weight: 0.00</text>
</g>
<!-- BB0&#45;&gt;BB9 -->
<g id="edge1" class="edge">
<title>BB0&#45;&gt;BB9</title>
<path fill="none" stroke="black" d="M307.84,-1057.05C307.84,-1048.79 307.84,-1040.1 307.84,-1031.6"/>
<polygon fill="black" stroke="black" points="311.34,-1031.36 307.84,-1021.36 304.34,-1031.36 311.34,-1031.36"/>
</g>
<!-- BB1 -->
<g id="node2" class="node">
<title>BB1</title>
<ellipse fill="none" stroke="black" cx="333.84" cy="-708.92" rx="113.69" ry="48.17"/>
<text text-anchor="middle" x="333.84" y="-727.72" font-family="Times New Roman,serif" font-size="14.00">[87..a7)</text>
<text text-anchor="middle" x="333.84" y="-712.72" font-family="Times New Roman,serif" font-size="14.00">Count: 4</text>
<text text-anchor="middle" x="333.84" y="-697.72" font-family="Times New Roman,serif" font-size="14.00">Normalized count: Infinity</text>
<text text-anchor="middle" x="333.84" y="-682.72" font-family="Times New Roman,serif" font-size="14.00">Samples weight: 0.00</text>
</g>
<!-- BB7 -->
<g id="node8" class="node">
<title>BB7</title>
<ellipse fill="none" stroke="black" cx="346.84" cy="-576.75" rx="113.69" ry="48.17"/>
<text text-anchor="middle" x="346.84" y="-595.55" font-family="Times New Roman,serif" font-size="14.00">[19e..1ac)</text>
<text text-anchor="middle" x="346.84" y="-580.55" font-family="Times New Roman,serif" font-size="14.00">Count: 70</text>
<text text-anchor="middle" x="346.84" y="-565.55" font-family="Times New Roman,serif" font-size="14.00">Normalized count: Infinity</text>
<text text-anchor="middle" x="346.84" y="-550.55" font-family="Times New Roman,serif" font-size="14.00">Samples weight: 0.00</text>
</g>
<!-- BB1&#45;&gt;BB7 -->
<g id="edge2" class="edge">
<title>BB1&#45;&gt;BB7</title>
<path fill="none" stroke="black" d="M338.57,-660.55C339.41,-652.2 340.29,-643.41 341.14,-634.82"/>
<polygon fill="black" stroke="black" points="344.63,-635.16 342.14,-624.86 337.66,-634.46 344.63,-635.16"/>
</g>
<!-- BB2 -->
<g id="node3" class="node">
<title>BB2</title>
<ellipse fill="none" stroke="black" cx="359.84" cy="-444.58" rx="113.69" ry="48.17"/>
<text text-anchor="middle" x="359.84" y="-463.38" font-family="Times New Roman,serif" font-size="14.00">[a7..bd)</text>
<text text-anchor="middle" x="359.84" y="-448.38" font-family="Times New Roman,serif" font-size="14.00">Count: 30</text>
<text text-anchor="middle" x="359.84" y="-433.38" font-family="Times New Roman,serif" font-size="14.00">Normalized count: Infinity</text>
<text text-anchor="middle" x="359.84" y="-418.38" font-family="Times New Roman,serif" font-size="14.00">Samples weight: 0.00</text>
</g>
<!-- BB3 -->
<g id="node4" class="node">
<title>BB3</title>
<ellipse fill="none" stroke="black" cx="350.84" cy="-312.42" rx="113.69" ry="48.17"/>
<text text-anchor="middle" x="350.84" y="-331.22" font-family="Times New Roman,serif" font-size="14.00">[bd..154)</text>
<text text-anchor="middle" x="350.84" y="-316.22" font-family="Times New Roman,serif" font-size="14.00">Count: 18571</text>
<text text-anchor="middle" x="350.84" y="-301.22" font-family="Times New Roman,serif" font-size="14.00">Normalized count: Infinity</text>
<text text-anchor="middle" x="350.84" y="-286.22" font-family="Times New Roman,serif" font-size="14.00">Samples weight: 0.99</text>
</g>
<!-- BB2&#45;&gt;BB3 -->
<g id="edge3" class="edge">
<title>BB2&#45;&gt;BB3</title>
<path fill="none" stroke="black" d="M356.57,-396.22C356,-387.95 355.4,-379.27 354.81,-370.77"/>
<polygon fill="black" stroke="black" points="358.28,-370.26 354.1,-360.52 351.3,-370.74 358.28,-370.26"/>
</g>
<!-- BB3&#45;&gt;BB3 -->
<g id="edge4" class="edge">
<title>BB3&#45;&gt;BB3</title>
<path fill="none" stroke="black" d="M450.03,-336.02C469.14,-333.24 482.69,-325.37 482.69,-312.42 482.69,-301.89 473.75,-294.72 460.14,-290.91"/>
<polygon fill="black" stroke="black" points="460.53,-287.42 450.03,-288.81 459.1,-294.27 460.53,-287.42"/>
</g>
<!-- BB4 -->
<g id="node5" class="node">
<title>BB4</title>
<ellipse fill="none" stroke="black" cx="350.84" cy="-180.25" rx="113.69" ry="48.17"/>
<text text-anchor="middle" x="350.84" y="-199.05" font-family="Times New Roman,serif" font-size="14.00">[154..160)</text>
<text text-anchor="middle" x="350.84" y="-184.05" font-family="Times New Roman,serif" font-size="14.00">Count: 23</text>
<text text-anchor="middle" x="350.84" y="-169.05" font-family="Times New Roman,serif" font-size="14.00">Normalized count: Infinity</text>
<text text-anchor="middle" x="350.84" y="-154.05" font-family="Times New Roman,serif" font-size="14.00">Samples weight: 0.00</text>
</g>
<!-- BB3&#45;&gt;BB4 -->
<g id="edge5" class="edge">
<title>BB3&#45;&gt;BB4</title>
<path fill="none" stroke="black" d="M350.84,-264.05C350.84,-255.79 350.84,-247.1 350.84,-238.6"/>
<polygon fill="black" stroke="black" points="354.34,-238.36 350.84,-228.36 347.34,-238.36 354.34,-238.36"/>
</g>
<!-- BB5 -->
<g id="node6" class="node">
<title>BB5</title>
<ellipse fill="none" stroke="black" cx="264.84" cy="-48.08" rx="113.69" ry="48.17"/>
<text text-anchor="middle" x="264.84" y="-66.88" font-family="Times New Roman,serif" font-size="14.00">[160..17a)</text>
<text text-anchor="middle" x="264.84" y="-51.88" font-family="Times New Roman,serif" font-size="14.00">Count: 24</text>
<text text-anchor="middle" x="264.84" y="-36.88" font-family="Times New Roman,serif" font-size="14.00">Normalized count: Infinity</text>
<text text-anchor="middle" x="264.84" y="-21.88" font-family="Times New Roman,serif" font-size="14.00">Samples weight: 0.00</text>
</g>
<!-- BB4&#45;&gt;BB5 -->
<g id="edge7" class="edge">
<title>BB4&#45;&gt;BB5</title>
<path fill="none" stroke="black" d="M320.77,-133.72C314.26,-123.87 307.31,-113.36 300.61,-103.22"/>
<polygon fill="black" stroke="black" points="303.48,-101.22 295.05,-94.8 297.64,-105.08 303.48,-101.22"/>
</g>
<!-- BB6 -->
<g id="node7" class="node">
<title>BB6</title>
<ellipse fill="none" stroke="black" cx="510.84" cy="-48.08" rx="113.69" ry="48.17"/>
<text text-anchor="middle" x="510.84" y="-66.88" font-family="Times New Roman,serif" font-size="14.00">[17a..19e)</text>
<text text-anchor="middle" x="510.84" y="-51.88" font-family="Times New Roman,serif" font-size="14.00">Count: 38</text>
<text text-anchor="middle" x="510.84" y="-36.88" font-family="Times New Roman,serif" font-size="14.00">Normalized count: Infinity</text>
<text text-anchor="middle" x="510.84" y="-21.88" font-family="Times New Roman,serif" font-size="14.00">Samples weight: 0.00</text>
</g>
<!-- BB4&#45;&gt;BB6 -->
<g id="edge6" class="edge">
<title>BB4&#45;&gt;BB6</title>
<path fill="none" stroke="black" d="M402.35,-137.35C417.97,-124.64 435.26,-110.57 451.36,-97.47"/>
<polygon fill="black" stroke="black" points="453.61,-100.16 459.16,-91.13 449.19,-94.73 453.61,-100.16"/>
</g>
<!-- BB5&#45;&gt;BB6 -->
<g id="edge8" class="edge">
<title>BB5&#45;&gt;BB6</title>
<path fill="none" stroke="black" d="M378.72,-48.08C381.35,-48.08 383.98,-48.08 386.62,-48.08"/>
<polygon fill="black" stroke="black" points="386.78,-51.58 396.78,-48.08 386.78,-44.58 386.78,-51.58"/>
</g>
<!-- BB6&#45;&gt;BB7 -->
<g id="edge9" class="edge">
<title>BB6&#45;&gt;BB7</title>
<path fill="none" stroke="black" d="M521.13,-95.98C537.24,-181.75 559.27,-366.65 482.84,-492.67 471.81,-510.86 455.13,-525.62 437.19,-537.37"/>
<polygon fill="black" stroke="black" points="434.95,-534.65 428.3,-542.9 438.64,-540.59 434.95,-534.65"/>
</g>
<!-- BB7&#45;&gt;BB2 -->
<g id="edge10" class="edge">
<title>BB7&#45;&gt;BB2</title>
<path fill="none" stroke="black" d="M351.57,-528.39C352.41,-520.03 353.29,-511.25 354.14,-502.65"/>
<polygon fill="black" stroke="black" points="357.63,-502.99 355.14,-492.69 350.66,-502.29 357.63,-502.99"/>
</g>
<!-- BB8 -->
<g id="node9" class="node">
<title>BB8</title>
<ellipse fill="none" stroke="black" cx="113.84" cy="-444.58" rx="113.69" ry="48.17"/>
<text text-anchor="middle" x="113.84" y="-463.38" font-family="Times New Roman,serif" font-size="14.00">[1ac..1d3)</text>
<text text-anchor="middle" x="113.84" y="-448.38" font-family="Times New Roman,serif" font-size="14.00">Count: 1</text>
<text text-anchor="middle" x="113.84" y="-433.38" font-family="Times New Roman,serif" font-size="14.00">Normalized count: Infinity</text>
<text text-anchor="middle" x="113.84" y="-418.38" font-family="Times New Roman,serif" font-size="14.00">Samples weight: 0.00</text>
</g>
<!-- BB7&#45;&gt;BB8 -->
<g id="edge11" class="edge">
<title>BB7&#45;&gt;BB8</title>
<path fill="none" stroke="black" d="M279.14,-537.92C251.38,-522.42 219.1,-504.38 190.48,-488.39"/>
<polygon fill="black" stroke="black" points="192.16,-485.32 181.72,-483.5 188.74,-491.43 192.16,-485.32"/>
</g>
<!-- BB8&#45;&gt;BB9 -->
<g id="edge12" class="edge">
<title>BB8&#45;&gt;BB9</title>
<path fill="none" stroke="black" d="M109.74,-492.9C104.65,-578.95 104.85,-763.73 184.84,-889.17 195.23,-905.45 210.07,-919.32 225.88,-930.79"/>
<polygon fill="black" stroke="black" points="224,-933.75 234.21,-936.57 227.99,-927.99 224,-933.75"/>
</g>
<!-- BB10 -->
<g id="node11" class="node">
<title>BB10</title>
<ellipse fill="none" stroke="black" cx="307.84" cy="-841.08" rx="113.69" ry="48.17"/>
<text text-anchor="middle" x="307.84" y="-859.88" font-family="Times New Roman,serif" font-size="14.00">[1d9..1e4)</text>
<text text-anchor="middle" x="307.84" y="-844.88" font-family="Times New Roman,serif" font-size="14.00">Count: 3</text>
<text text-anchor="middle" x="307.84" y="-829.88" font-family="Times New Roman,serif" font-size="14.00">Normalized count: Infinity</text>
<text text-anchor="middle" x="307.84" y="-814.88" font-family="Times New Roman,serif" font-size="14.00">Samples weight: 0.00</text>
</g>
<!-- BB9&#45;&gt;BB10 -->
<g id="edge14" class="edge">
<title>BB9&#45;&gt;BB10</title>
<path fill="none" stroke="black" d="M307.84,-924.89C307.84,-916.62 307.84,-907.94 307.84,-899.43"/>
<polygon fill="black" stroke="black" points="311.34,-899.19 307.84,-889.19 304.34,-899.19 311.34,-899.19"/>
</g>
<!-- BB11 -->
<g id="node12" class="node">
<title>BB11</title>
<ellipse fill="none" stroke="black" cx="543.84" cy="-841.08" rx="104.8" ry="48.17"/>
<text text-anchor="middle" x="543.84" y="-859.88" font-family="Times New Roman,serif" font-size="14.00">[1e4..1e5)</text>
<text text-anchor="middle" x="543.84" y="-844.88" font-family="Times New Roman,serif" font-size="14.00">Count: 0</text>
<text text-anchor="middle" x="543.84" y="-829.88" font-family="Times New Roman,serif" font-size="14.00">Normalized count: NaN</text>
<text text-anchor="middle" x="543.84" y="-814.88" font-family="Times New Roman,serif" font-size="14.00">Samples weight: 0.00</text>
</g>
<!-- BB9&#45;&gt;BB11 -->
<g id="edge13" class="edge">
<title>BB9&#45;&gt;BB11</title>
<path fill="none" stroke="black" d="M376.11,-934.6C405.1,-918.61 438.99,-899.91 468.7,-883.53"/>
<polygon fill="black" stroke="black" points="470.7,-886.42 477.77,-878.53 467.32,-880.29 470.7,-886.42"/>
</g>
<!-- BB10&#45;&gt;BB1 -->
<g id="edge15" class="edge">
<title>BB10&#45;&gt;BB1</title>
<path fill="none" stroke="black" d="M317.23,-793.09C318.94,-784.52 320.75,-775.49 322.51,-766.67"/>
<polygon fill="black" stroke="black" points="325.94,-767.33 324.47,-756.84 319.08,-765.96 325.94,-767.33"/>
</g>
<!-- BB10&#45;&gt;BB11 -->
<g id="edge16" class="edge">
<title>BB10&#45;&gt;BB11</title>
<path fill="none" stroke="black" d="M421.7,-841.08C424.02,-841.08 426.35,-841.08 428.67,-841.08"/>
<polygon fill="black" stroke="black" points="428.87,-844.58 438.87,-841.08 428.87,-837.58 428.87,-844.58"/>
</g>
</g>
</svg>
