<?xml version="1.0" encoding="UTF-8" standalone="no"?>
<!DOCTYPE svg PUBLIC "-//W3C//DTD SVG 1.1//EN"
 "http://www.w3.org/Graphics/SVG/1.1/DTD/svg11.dtd">
<!-- Generated by graphviz version 2.47.0 (20210316.0004)
 -->
<!-- Title: G Pages: 1 -->
<svg width="624pt" height="1029pt"
 viewBox="0.00 0.00 624.30 1029.33" xmlns="http://www.w3.org/2000/svg" xmlns:xlink="http://www.w3.org/1999/xlink">
<g id="graph0" class="graph" transform="scale(1 1) rotate(0) translate(4 1025.33)">
<title>G</title>
<polygon fill="white" stroke="transparent" points="-4,4 -4,-1025.33 620.3,-1025.33 620.3,4 -4,4"/>
<!-- BB0 -->
<g id="node1" class="node">
<title>BB0</title>
<ellipse fill="none" stroke="black" cx="284.65" cy="-973.25" rx="104.8" ry="48.17"/>
<text text-anchor="middle" x="284.65" y="-992.05" font-family="Times New Roman,serif" font-size="14.00">[0..1a)</text>
<text text-anchor="middle" x="284.65" y="-977.05" font-family="Times New Roman,serif" font-size="14.00">Count: 0</text>
<text text-anchor="middle" x="284.65" y="-962.05" font-family="Times New Roman,serif" font-size="14.00">Normalized count: NaN</text>
<text text-anchor="middle" x="284.65" y="-947.05" font-family="Times New Roman,serif" font-size="14.00">Samples weight: 0.00</text>
</g>
<!-- BB8 -->
<g id="node9" class="node">
<title>BB8</title>
<ellipse fill="none" stroke="black" cx="284.65" cy="-841.08" rx="104.8" ry="48.17"/>
<text text-anchor="middle" x="284.65" y="-859.88" font-family="Times New Roman,serif" font-size="14.00">[bd..c2)</text>
<text text-anchor="middle" x="284.65" y="-844.88" font-family="Times New Roman,serif" font-size="14.00">Count: 0</text>
<text text-anchor="middle" x="284.65" y="-829.88" font-family="Times New Roman,serif" font-size="14.00">Normalized count: NaN</text>
<text text-anchor="middle" x="284.65" y="-814.88" font-family="Times New Roman,serif" font-size="14.00">Samples weight: 0.00</text>
</g>
<!-- BB0&#45;&gt;BB8 -->
<g id="edge1" class="edge">
<title>BB0&#45;&gt;BB8</title>
<path fill="none" stroke="black" d="M284.65,-924.89C284.65,-916.62 284.65,-907.94 284.65,-899.43"/>
<polygon fill="black" stroke="black" points="288.15,-899.19 284.65,-889.19 281.15,-899.19 288.15,-899.19"/>
</g>
<!-- BB1 -->
<g id="node2" class="node">
<title>BB1</title>
<ellipse fill="none" stroke="black" cx="284.65" cy="-576.75" rx="104.8" ry="48.17"/>
<text text-anchor="middle" x="284.65" y="-595.55" font-family="Times New Roman,serif" font-size="14.00">[1a..25)</text>
<text text-anchor="middle" x="284.65" y="-580.55" font-family="Times New Roman,serif" font-size="14.00">Count: 0</text>
<text text-anchor="middle" x="284.65" y="-565.55" font-family="Times New Roman,serif" font-size="14.00">Normalized count: NaN</text>
<text text-anchor="middle" x="284.65" y="-550.55" font-family="Times New Roman,serif" font-size="14.00">Samples weight: 0.00</text>
</g>
<!-- BB6 -->
<g id="node7" class="node">
<title>BB6</title>
<ellipse fill="none" stroke="black" cx="307.65" cy="-444.58" rx="104.8" ry="48.17"/>
<text text-anchor="middle" x="307.65" y="-463.38" font-family="Times New Roman,serif" font-size="14.00">[a9..b1)</text>
<text text-anchor="middle" x="307.65" y="-448.38" font-family="Times New Roman,serif" font-size="14.00">Count: 0</text>
<text text-anchor="middle" x="307.65" y="-433.38" font-family="Times New Roman,serif" font-size="14.00">Normalized count: NaN</text>
<text text-anchor="middle" x="307.65" y="-418.38" font-family="Times New Roman,serif" font-size="14.00">Samples weight: 0.00</text>
</g>
<!-- BB1&#45;&gt;BB6 -->
<g id="edge2" class="edge">
<title>BB1&#45;&gt;BB6</title>
<path fill="none" stroke="black" d="M292.96,-528.76C294.44,-520.38 295.99,-511.57 297.52,-502.95"/>
<polygon fill="black" stroke="black" points="300.99,-503.4 299.28,-492.94 294.1,-502.18 300.99,-503.4"/>
</g>
<!-- BB2 -->
<g id="node3" class="node">
<title>BB2</title>
<ellipse fill="none" stroke="black" cx="331.65" cy="-312.42" rx="104.8" ry="48.17"/>
<text text-anchor="middle" x="331.65" y="-331.22" font-family="Times New Roman,serif" font-size="14.00">[25..3b)</text>
<text text-anchor="middle" x="331.65" y="-316.22" font-family="Times New Roman,serif" font-size="14.00">Count: 0</text>
<text text-anchor="middle" x="331.65" y="-301.22" font-family="Times New Roman,serif" font-size="14.00">Normalized count: NaN</text>
<text text-anchor="middle" x="331.65" y="-286.22" font-family="Times New Roman,serif" font-size="14.00">Samples weight: 0.00</text>
</g>
<!-- BB3 -->
<g id="node4" class="node">
<title>BB3</title>
<ellipse fill="none" stroke="black" cx="315.65" cy="-180.25" rx="113.69" ry="48.17"/>
<text text-anchor="middle" x="315.65" y="-199.05" font-family="Times New Roman,serif" font-size="14.00">[3b..83)</text>
<text text-anchor="middle" x="315.65" y="-184.05" font-family="Times New Roman,serif" font-size="14.00">Count: 1670</text>
<text text-anchor="middle" x="315.65" y="-169.05" font-family="Times New Roman,serif" font-size="14.00">Normalized count: Infinity</text>
<text text-anchor="middle" x="315.65" y="-154.05" font-family="Times New Roman,serif" font-size="14.00">Samples weight: 1.00</text>
</g>
<!-- BB2&#45;&gt;BB3 -->
<g id="edge3" class="edge">
<title>BB2&#45;&gt;BB3</title>
<path fill="none" stroke="black" d="M325.83,-264.05C324.8,-255.7 323.72,-246.91 322.67,-238.32"/>
<polygon fill="black" stroke="black" points="326.14,-237.86 321.44,-228.36 319.19,-238.71 326.14,-237.86"/>
</g>
<!-- BB4 -->
<g id="node5" class="node">
<title>BB4</title>
<ellipse fill="none" stroke="black" cx="268.65" cy="-48.08" rx="113.69" ry="48.17"/>
<text text-anchor="middle" x="268.65" y="-66.88" font-family="Times New Roman,serif" font-size="14.00">[83..8c)</text>
<text text-anchor="middle" x="268.65" y="-51.88" font-family="Times New Roman,serif" font-size="14.00">Count: 1</text>
<text text-anchor="middle" x="268.65" y="-36.88" font-family="Times New Roman,serif" font-size="14.00">Normalized count: Infinity</text>
<text text-anchor="middle" x="268.65" y="-21.88" font-family="Times New Roman,serif" font-size="14.00">Samples weight: 0.00</text>
</g>
<!-- BB3&#45;&gt;BB4 -->
<g id="edge5" class="edge">
<title>BB3&#45;&gt;BB4</title>
<path fill="none" stroke="black" d="M292.46,-132.99C289.03,-124.19 285.6,-114.89 282.43,-105.81"/>
<polygon fill="black" stroke="black" points="285.65,-104.4 279.11,-96.07 279.03,-106.67 285.65,-104.4"/>
</g>
<!-- BB5 -->
<g id="node6" class="node">
<title>BB5</title>
<ellipse fill="none" stroke="black" cx="504.65" cy="-48.08" rx="104.8" ry="48.17"/>
<text text-anchor="middle" x="504.65" y="-66.88" font-family="Times New Roman,serif" font-size="14.00">[8c..a9)</text>
<text text-anchor="middle" x="504.65" y="-51.88" font-family="Times New Roman,serif" font-size="14.00">Count: 0</text>
<text text-anchor="middle" x="504.65" y="-36.88" font-family="Times New Roman,serif" font-size="14.00">Normalized count: NaN</text>
<text text-anchor="middle" x="504.65" y="-21.88" font-family="Times New Roman,serif" font-size="14.00">Samples weight: 0.00</text>
</g>
<!-- BB3&#45;&gt;BB5 -->
<g id="edge4" class="edge">
<title>BB3&#45;&gt;BB5</title>
<path fill="none" stroke="black" d="M374.16,-138.96C394.74,-124.78 417.99,-108.77 439.11,-94.22"/>
<polygon fill="black" stroke="black" points="441.14,-97.07 447.39,-88.52 437.17,-91.31 441.14,-97.07"/>
</g>
<!-- BB4&#45;&gt;BB3 -->
<g id="edge6" class="edge">
<title>BB4&#45;&gt;BB3</title>
<path fill="none" stroke="black" d="M291.94,-95.57C295.34,-104.32 298.74,-113.56 301.89,-122.59"/>
<polygon fill="black" stroke="black" points="298.65,-123.93 305.2,-132.26 305.27,-121.66 298.65,-123.93"/>
</g>
<!-- BB4&#45;&gt;BB5 -->
<g id="edge7" class="edge">
<title>BB4&#45;&gt;BB5</title>
<path fill="none" stroke="black" d="M382.5,-48.08C384.83,-48.08 387.16,-48.08 389.48,-48.08"/>
<polygon fill="black" stroke="black" points="389.68,-51.58 399.68,-48.08 389.68,-44.58 389.68,-51.58"/>
</g>
<!-- BB5&#45;&gt;BB6 -->
<g id="edge8" class="edge">
<title>BB5&#45;&gt;BB6</title>
<path fill="none" stroke="black" d="M507.15,-96.36C508.24,-161.62 501.45,-280.33 445.65,-360.5 432.5,-379.39 413.54,-394.73 393.86,-406.84"/>
<polygon fill="black" stroke="black" points="391.93,-403.91 385.1,-412 395.49,-409.94 391.93,-403.91"/>
</g>
<!-- BB6&#45;&gt;BB2 -->
<g id="edge9" class="edge">
<title>BB6&#45;&gt;BB2</title>
<path fill="none" stroke="black" d="M316.32,-396.59C317.88,-388.11 319.53,-379.19 321.13,-370.46"/>
<polygon fill="black" stroke="black" points="324.63,-370.81 323,-360.34 317.74,-369.54 324.63,-370.81"/>
</g>
<!-- BB7 -->
<g id="node8" class="node">
<title>BB7</title>
<ellipse fill="none" stroke="black" cx="104.65" cy="-312.42" rx="104.8" ry="48.17"/>
<text text-anchor="middle" x="104.65" y="-331.22" font-family="Times New Roman,serif" font-size="14.00">[b1..bd)</text>
<text text-anchor="middle" x="104.65" y="-316.22" font-family="Times New Roman,serif" font-size="14.00">Count: 0</text>
<text text-anchor="middle" x="104.65" y="-301.22" font-family="Times New Roman,serif" font-size="14.00">Normalized count: NaN</text>
<text text-anchor="middle" x="104.65" y="-286.22" font-family="Times New Roman,serif" font-size="14.00">Samples weight: 0.00</text>
</g>
<!-- BB6&#45;&gt;BB7 -->
<g id="edge10" class="edge">
<title>BB6&#45;&gt;BB7</title>
<path fill="none" stroke="black" d="M247.57,-405.06C224.14,-390.04 197.16,-372.74 173,-357.24"/>
<polygon fill="black" stroke="black" points="174.89,-354.29 164.58,-351.84 171.11,-360.19 174.89,-354.29"/>
</g>
<!-- BB7&#45;&gt;BB8 -->
<g id="edge11" class="edge">
<title>BB7&#45;&gt;BB8</title>
<path fill="none" stroke="black" d="M100.32,-360.75C94.8,-446.44 93.84,-630.12 170.65,-757 180.23,-772.82 194.08,-786.54 208.84,-798.01"/>
<polygon fill="black" stroke="black" points="207,-801.01 217.12,-804.16 211.17,-795.39 207,-801.01"/>
</g>
<!-- BB9 -->
<g id="node10" class="node">
<title>BB9</title>
<ellipse fill="none" stroke="black" cx="284.65" cy="-708.92" rx="104.8" ry="48.17"/>
<text text-anchor="middle" x="284.65" y="-727.72" font-family="Times New Roman,serif" font-size="14.00">[c2..cd)</text>
<text text-anchor="middle" x="284.65" y="-712.72" font-family="Times New Roman,serif" font-size="14.00">Count: 0</text>
<text text-anchor="middle" x="284.65" y="-697.72" font-family="Times New Roman,serif" font-size="14.00">Normalized count: NaN</text>
<text text-anchor="middle" x="284.65" y="-682.72" font-family="Times New Roman,serif" font-size="14.00">Samples weight: 0.00</text>
</g>
<!-- BB8&#45;&gt;BB9 -->
<g id="edge13" class="edge">
<title>BB8&#45;&gt;BB9</title>
<path fill="none" stroke="black" d="M284.65,-792.72C284.65,-784.45 284.65,-775.77 284.65,-767.27"/>
<polygon fill="black" stroke="black" points="288.15,-767.02 284.65,-757.02 281.15,-767.02 288.15,-767.02"/>
</g>
<!-- BB10 -->
<g id="node11" class="node">
<title>BB10</title>
<ellipse fill="none" stroke="black" cx="511.65" cy="-708.92" rx="104.8" ry="48.17"/>
<text text-anchor="middle" x="511.65" y="-727.72" font-family="Times New Roman,serif" font-size="14.00">[cd..ce)</text>
<text text-anchor="middle" x="511.65" y="-712.72" font-family="Times New Roman,serif" font-size="14.00">Count: 0</text>
<text text-anchor="middle" x="511.65" y="-697.72" font-family="Times New Roman,serif" font-size="14.00">Normalized count: NaN</text>
<text text-anchor="middle" x="511.65" y="-682.72" font-family="Times New Roman,serif" font-size="14.00">Samples weight: 0.00</text>
</g>
<!-- BB8&#45;&gt;BB10 -->
<g id="edge12" class="edge">
<title>BB8&#45;&gt;BB10</title>
<path fill="none" stroke="black" d="M349.09,-803.13C376.89,-787.19 409.55,-768.46 438.27,-751.99"/>
<polygon fill="black" stroke="black" points="440.11,-754.97 447.05,-746.96 436.63,-748.9 440.11,-754.97"/>
</g>
<!-- BB9&#45;&gt;BB1 -->
<g id="edge14" class="edge">
<title>BB9&#45;&gt;BB1</title>
<path fill="none" stroke="black" d="M284.65,-660.55C284.65,-652.29 284.65,-643.6 284.65,-635.1"/>
<polygon fill="black" stroke="black" points="288.15,-634.86 284.65,-624.86 281.15,-634.86 288.15,-634.86"/>
</g>
<!-- BB9&#45;&gt;BB10 -->
<g id="edge15" class="edge">
<title>BB9&#45;&gt;BB10</title>
<path fill="none" stroke="black" d="M389.73,-708.92C392.05,-708.92 394.37,-708.92 396.69,-708.92"/>
<polygon fill="black" stroke="black" points="396.87,-712.42 406.87,-708.92 396.87,-705.42 396.87,-712.42"/>
</g>
</g>
</svg>
