<?xml version="1.0" encoding="UTF-8" standalone="no"?>
<!DOCTYPE svg PUBLIC "-//W3C//DTD SVG 1.1//EN"
 "http://www.w3.org/Graphics/SVG/1.1/DTD/svg11.dtd">
<!-- Generated by graphviz version 2.47.0 (20210316.0004)
 -->
<!-- Title: G Pages: 1 -->
<svg width="650pt" height="1161pt"
 viewBox="0.00 0.00 650.37 1161.50" xmlns="http://www.w3.org/2000/svg" xmlns:xlink="http://www.w3.org/1999/xlink">
<g id="graph0" class="graph" transform="scale(1 1) rotate(0) translate(4 1157.5)">
<title>G</title>
<polygon fill="white" stroke="transparent" points="-4,4 -4,-1157.5 646.37,-1157.5 646.37,4 -4,4"/>
<!-- BB0 -->
<g id="node1" class="node">
<title>BB0</title>
<ellipse fill="none" stroke="black" cx="305.14" cy="-1105.42" rx="103.48" ry="48.17"/>
<text text-anchor="middle" x="305.14" y="-1124.22" font-family="Times New Roman,serif" font-size="14.00">[0..87)</text>
<text text-anchor="middle" x="305.14" y="-1109.22" font-family="Times New Roman,serif" font-size="14.00">Count: 20</text>
<text text-anchor="middle" x="305.14" y="-1094.22" font-family="Times New Roman,serif" font-size="14.00">Normalized count: 1.00</text>
<text text-anchor="middle" x="305.14" y="-1079.22" font-family="Times New Roman,serif" font-size="14.00">Samples weight: 0.00</text>
</g>
<!-- BB9 -->
<g id="node10" class="node">
<title>BB9</title>
<ellipse fill="none" stroke="black" cx="305.14" cy="-973.25" rx="113.27" ry="48.17"/>
<text text-anchor="middle" x="305.14" y="-992.05" font-family="Times New Roman,serif" font-size="14.00">[1d3..1d9)</text>
<text text-anchor="middle" x="305.14" y="-977.05" font-family="Times New Roman,serif" font-size="14.00">Count: 4040</text>
<text text-anchor="middle" x="305.14" y="-962.05" font-family="Times New Roman,serif" font-size="14.00">Normalized count: 202.00</text>
<text text-anchor="middle" x="305.14" y="-947.05" font-family="Times New Roman,serif" font-size="14.00">Samples weight: 0.00</text>
</g>
<!-- BB0&#45;&gt;BB9 -->
<g id="edge1" class="edge">
<title>BB0&#45;&gt;BB9</title>
<path fill="none" stroke="black" d="M305.14,-1057.05C305.14,-1048.79 305.14,-1040.1 305.14,-1031.6"/>
<polygon fill="black" stroke="black" points="308.64,-1031.36 305.14,-1021.36 301.64,-1031.36 308.64,-1031.36"/>
</g>
<!-- BB1 -->
<g id="node2" class="node">
<title>BB1</title>
<ellipse fill="none" stroke="black" cx="320.14" cy="-708.92" rx="113.27" ry="48.17"/>
<text text-anchor="middle" x="320.14" y="-727.72" font-family="Times New Roman,serif" font-size="14.00">[87..a7)</text>
<text text-anchor="middle" x="320.14" y="-712.72" font-family="Times New Roman,serif" font-size="14.00">Count: 4020</text>
<text text-anchor="middle" x="320.14" y="-697.72" font-family="Times New Roman,serif" font-size="14.00">Normalized count: 201.00</text>
<text text-anchor="middle" x="320.14" y="-682.72" font-family="Times New Roman,serif" font-size="14.00">Samples weight: 0.00</text>
</g>
<!-- BB7 -->
<g id="node8" class="node">
<title>BB7</title>
<ellipse fill="none" stroke="black" cx="336.14" cy="-576.75" rx="118.17" ry="48.17"/>
<text text-anchor="middle" x="336.14" y="-595.55" font-family="Times New Roman,serif" font-size="14.00">[19e..1ac)</text>
<text text-anchor="middle" x="336.14" y="-580.55" font-family="Times New Roman,serif" font-size="14.00">Count: 108540</text>
<text text-anchor="middle" x="336.14" y="-565.55" font-family="Times New Roman,serif" font-size="14.00">Normalized count: 5427.00</text>
<text text-anchor="middle" x="336.14" y="-550.55" font-family="Times New Roman,serif" font-size="14.00">Samples weight: 0.00</text>
</g>
<!-- BB1&#45;&gt;BB7 -->
<g id="edge2" class="edge">
<title>BB1&#45;&gt;BB7</title>
<path fill="none" stroke="black" d="M325.96,-660.55C326.99,-652.2 328.07,-643.41 329.12,-634.82"/>
<polygon fill="black" stroke="black" points="332.6,-635.21 330.35,-624.86 325.65,-634.36 332.6,-635.21"/>
</g>
<!-- BB2 -->
<g id="node3" class="node">
<title>BB2</title>
<ellipse fill="none" stroke="black" cx="362.14" cy="-444.58" rx="118.17" ry="48.17"/>
<text text-anchor="middle" x="362.14" y="-463.38" font-family="Times New Roman,serif" font-size="14.00">[a7..bd)</text>
<text text-anchor="middle" x="362.14" y="-448.38" font-family="Times New Roman,serif" font-size="14.00">Count: 104520</text>
<text text-anchor="middle" x="362.14" y="-433.38" font-family="Times New Roman,serif" font-size="14.00">Normalized count: 5226.00</text>
<text text-anchor="middle" x="362.14" y="-418.38" font-family="Times New Roman,serif" font-size="14.00">Samples weight: 0.00</text>
</g>
<!-- BB3 -->
<g id="node4" class="node">
<title>BB3</title>
<ellipse fill="none" stroke="black" cx="346.14" cy="-312.42" rx="132.46" ry="48.17"/>
<text text-anchor="middle" x="346.14" y="-331.22" font-family="Times New Roman,serif" font-size="14.00">[bd..154)</text>
<text text-anchor="middle" x="346.14" y="-316.22" font-family="Times New Roman,serif" font-size="14.00">Count: 82624400</text>
<text text-anchor="middle" x="346.14" y="-301.22" font-family="Times New Roman,serif" font-size="14.00">Normalized count: 4131220.00</text>
<text text-anchor="middle" x="346.14" y="-286.22" font-family="Times New Roman,serif" font-size="14.00">Samples weight: 0.99</text>
</g>
<!-- BB2&#45;&gt;BB3 -->
<g id="edge3" class="edge">
<title>BB2&#45;&gt;BB3</title>
<path fill="none" stroke="black" d="M356.32,-396.22C355.29,-387.86 354.21,-379.08 353.15,-370.49"/>
<polygon fill="black" stroke="black" points="356.62,-370.02 351.93,-360.52 349.67,-370.88 356.62,-370.02"/>
</g>
<!-- BB3&#45;&gt;BB3 -->
<g id="edge4" class="edge">
<title>BB3&#45;&gt;BB3</title>
<path fill="none" stroke="black" d="M462.04,-335.62C482.28,-332.53 496.37,-324.79 496.37,-312.42 496.37,-302.17 486.71,-295.1 471.89,-291.22"/>
<polygon fill="black" stroke="black" points="472.53,-287.78 462.04,-289.21 471.14,-294.64 472.53,-287.78"/>
</g>
<!-- BB4 -->
<g id="node5" class="node">
<title>BB4</title>
<ellipse fill="none" stroke="black" cx="346.14" cy="-180.25" rx="118.17" ry="48.17"/>
<text text-anchor="middle" x="346.14" y="-199.05" font-family="Times New Roman,serif" font-size="14.00">[154..160)</text>
<text text-anchor="middle" x="346.14" y="-184.05" font-family="Times New Roman,serif" font-size="14.00">Count: 104520</text>
<text text-anchor="middle" x="346.14" y="-169.05" font-family="Times New Roman,serif" font-size="14.00">Normalized count: 5226.00</text>
<text text-anchor="middle" x="346.14" y="-154.05" font-family="Times New Roman,serif" font-size="14.00">Samples weight: 0.00</text>
</g>
<!-- BB3&#45;&gt;BB4 -->
<g id="edge5" class="edge">
<title>BB3&#45;&gt;BB4</title>
<path fill="none" stroke="black" d="M346.14,-264.05C346.14,-255.79 346.14,-247.1 346.14,-238.6"/>
<polygon fill="black" stroke="black" points="349.64,-238.36 346.14,-228.36 342.64,-238.36 349.64,-238.36"/>
</g>
<!-- BB5 -->
<g id="node6" class="node">
<title>BB5</title>
<ellipse fill="none" stroke="black" cx="275.14" cy="-48.08" rx="113.27" ry="48.17"/>
<text text-anchor="middle" x="275.14" y="-66.88" font-family="Times New Roman,serif" font-size="14.00">[160..17a)</text>
<text text-anchor="middle" x="275.14" y="-51.88" font-family="Times New Roman,serif" font-size="14.00">Count: 4020</text>
<text text-anchor="middle" x="275.14" y="-36.88" font-family="Times New Roman,serif" font-size="14.00">Normalized count: 201.00</text>
<text text-anchor="middle" x="275.14" y="-21.88" font-family="Times New Roman,serif" font-size="14.00">Samples weight: 0.00</text>
</g>
<!-- BB4&#45;&gt;BB5 -->
<g id="edge7" class="edge">
<title>BB4&#45;&gt;BB5</title>
<path fill="none" stroke="black" d="M320.91,-132.99C315.83,-123.69 310.45,-113.82 305.23,-104.25"/>
<polygon fill="black" stroke="black" points="308.15,-102.3 300.29,-95.19 302,-105.65 308.15,-102.3"/>
</g>
<!-- BB6 -->
<g id="node7" class="node">
<title>BB6</title>
<ellipse fill="none" stroke="black" cx="524.14" cy="-48.08" rx="118.17" ry="48.17"/>
<text text-anchor="middle" x="524.14" y="-66.88" font-family="Times New Roman,serif" font-size="14.00">[17a..19e)</text>
<text text-anchor="middle" x="524.14" y="-51.88" font-family="Times New Roman,serif" font-size="14.00">Count: 104520</text>
<text text-anchor="middle" x="524.14" y="-36.88" font-family="Times New Roman,serif" font-size="14.00">Normalized count: 5226.00</text>
<text text-anchor="middle" x="524.14" y="-21.88" font-family="Times New Roman,serif" font-size="14.00">Samples weight: 0.00</text>
</g>
<!-- BB4&#45;&gt;BB6 -->
<g id="edge6" class="edge">
<title>BB4&#45;&gt;BB6</title>
<path fill="none" stroke="black" d="M402.95,-137.71C420.86,-124.61 440.78,-110.04 459.21,-96.56"/>
<polygon fill="black" stroke="black" points="461.56,-99.18 467.56,-90.46 457.42,-93.53 461.56,-99.18"/>
</g>
<!-- BB5&#45;&gt;BB6 -->
<g id="edge8" class="edge">
<title>BB5&#45;&gt;BB6</title>
<path fill="none" stroke="black" d="M388.45,-48.08C390.91,-48.08 393.37,-48.08 395.83,-48.08"/>
<polygon fill="black" stroke="black" points="395.94,-51.58 405.94,-48.08 395.94,-44.58 395.94,-51.58"/>
</g>
<!-- BB6&#45;&gt;BB7 -->
<g id="edge9" class="edge">
<title>BB6&#45;&gt;BB7</title>
<path fill="none" stroke="black" d="M534.43,-96.07C550.62,-182.79 572.29,-370.31 489.14,-492.67 475.61,-512.57 455.69,-528.13 434.68,-540.13"/>
<polygon fill="black" stroke="black" points="432.73,-537.2 425.62,-545.05 436.07,-543.35 432.73,-537.2"/>
</g>
<!-- BB7&#45;&gt;BB2 -->
<g id="edge10" class="edge">
<title>BB7&#45;&gt;BB2</title>
<path fill="none" stroke="black" d="M345.52,-528.76C347.2,-520.38 348.96,-511.57 350.68,-502.95"/>
<polygon fill="black" stroke="black" points="354.15,-503.44 352.68,-492.94 347.29,-502.06 354.15,-503.44"/>
</g>
<!-- BB8 -->
<g id="node9" class="node">
<title>BB8</title>
<ellipse fill="none" stroke="black" cx="113.14" cy="-444.58" rx="113.27" ry="48.17"/>
<text text-anchor="middle" x="113.14" y="-463.38" font-family="Times New Roman,serif" font-size="14.00">[1ac..1d3)</text>
<text text-anchor="middle" x="113.14" y="-448.38" font-family="Times New Roman,serif" font-size="14.00">Count: 4020</text>
<text text-anchor="middle" x="113.14" y="-433.38" font-family="Times New Roman,serif" font-size="14.00">Normalized count: 201.00</text>
<text text-anchor="middle" x="113.14" y="-418.38" font-family="Times New Roman,serif" font-size="14.00">Samples weight: 0.00</text>
</g>
<!-- BB7&#45;&gt;BB8 -->
<g id="edge11" class="edge">
<title>BB7&#45;&gt;BB8</title>
<path fill="none" stroke="black" d="M269.53,-536.87C243.7,-521.8 214.02,-504.47 187.49,-488.99"/>
<polygon fill="black" stroke="black" points="189.03,-485.83 178.63,-483.81 185.5,-491.88 189.03,-485.83"/>
</g>
<!-- BB8&#45;&gt;BB9 -->
<g id="edge12" class="edge">
<title>BB8&#45;&gt;BB9</title>
<path fill="none" stroke="black" d="M108.95,-492.86C103.7,-578.85 103.55,-763.54 183.14,-889.17 193.41,-905.39 208.13,-919.23 223.8,-930.7"/>
<polygon fill="black" stroke="black" points="221.87,-933.62 232.07,-936.48 225.88,-927.88 221.87,-933.62"/>
</g>
<!-- BB10 -->
<g id="node11" class="node">
<title>BB10</title>
<ellipse fill="none" stroke="black" cx="305.14" cy="-841.08" rx="113.27" ry="48.17"/>
<text text-anchor="middle" x="305.14" y="-859.88" font-family="Times New Roman,serif" font-size="14.00">[1d9..1e4)</text>
<text text-anchor="middle" x="305.14" y="-844.88" font-family="Times New Roman,serif" font-size="14.00">Count: 4020</text>
<text text-anchor="middle" x="305.14" y="-829.88" font-family="Times New Roman,serif" font-size="14.00">Normalized count: 201.00</text>
<text text-anchor="middle" x="305.14" y="-814.88" font-family="Times New Roman,serif" font-size="14.00">Samples weight: 0.00</text>
</g>
<!-- BB9&#45;&gt;BB10 -->
<g id="edge14" class="edge">
<title>BB9&#45;&gt;BB10</title>
<path fill="none" stroke="black" d="M305.14,-924.89C305.14,-916.62 305.14,-907.94 305.14,-899.43"/>
<polygon fill="black" stroke="black" points="308.64,-899.19 305.14,-889.19 301.64,-899.19 308.64,-899.19"/>
</g>
<!-- BB11 -->
<g id="node12" class="node">
<title>BB11</title>
<ellipse fill="none" stroke="black" cx="539.14" cy="-841.08" rx="103.48" ry="48.17"/>
<text text-anchor="middle" x="539.14" y="-859.88" font-family="Times New Roman,serif" font-size="14.00">[1e4..1e5)</text>
<text text-anchor="middle" x="539.14" y="-844.88" font-family="Times New Roman,serif" font-size="14.00">Count: 20</text>
<text text-anchor="middle" x="539.14" y="-829.88" font-family="Times New Roman,serif" font-size="14.00">Normalized count: 1.00</text>
<text text-anchor="middle" x="539.14" y="-814.88" font-family="Times New Roman,serif" font-size="14.00">Samples weight: 0.00</text>
</g>
<!-- BB9&#45;&gt;BB11 -->
<g id="edge13" class="edge">
<title>BB9&#45;&gt;BB11</title>
<path fill="none" stroke="black" d="M372.82,-934.6C401.57,-918.61 435.17,-899.91 464.63,-883.53"/>
<polygon fill="black" stroke="black" points="466.58,-886.45 473.62,-878.53 463.18,-880.33 466.58,-886.45"/>
</g>
<!-- BB10&#45;&gt;BB1 -->
<g id="edge15" class="edge">
<title>BB10&#45;&gt;BB1</title>
<path fill="none" stroke="black" d="M310.59,-792.72C311.56,-784.36 312.57,-775.58 313.56,-766.99"/>
<polygon fill="black" stroke="black" points="317.04,-767.36 314.71,-757.02 310.09,-766.56 317.04,-767.36"/>
</g>
<!-- BB10&#45;&gt;BB11 -->
<g id="edge16" class="edge">
<title>BB10&#45;&gt;BB11</title>
<path fill="none" stroke="black" d="M418.48,-841.08C420.78,-841.08 423.08,-841.08 425.37,-841.08"/>
<polygon fill="black" stroke="black" points="425.45,-844.58 435.45,-841.08 425.45,-837.58 425.45,-844.58"/>
</g>
</g>
</svg>
