<?xml version="1.0" encoding="UTF-8" standalone="no"?>
<!DOCTYPE svg PUBLIC "-//W3C//DTD SVG 1.1//EN"
 "http://www.w3.org/Graphics/SVG/1.1/DTD/svg11.dtd">
<!-- Generated by graphviz version 2.47.0 (20210316.0004)
 -->
<!-- Title: G Pages: 1 -->
<svg width="615pt" height="1161pt"
 viewBox="0.00 0.00 615.48 1161.50" xmlns="http://www.w3.org/2000/svg" xmlns:xlink="http://www.w3.org/1999/xlink">
<g id="graph0" class="graph" transform="scale(1 1) rotate(0) translate(4 1157.5)">
<title>G</title>
<polygon fill="white" stroke="transparent" points="-4,4 -4,-1157.5 611.48,-1157.5 611.48,4 -4,4"/>
<!-- BB0 -->
<g id="node1" class="node">
<title>BB0</title>
<ellipse fill="none" stroke="black" cx="280.24" cy="-1105.42" rx="103.48" ry="48.17"/>
<text text-anchor="middle" x="280.24" y="-1124.22" font-family="Times New Roman,serif" font-size="14.00">[0..87)</text>
<text text-anchor="middle" x="280.24" y="-1109.22" font-family="Times New Roman,serif" font-size="14.00">Count: 2</text>
<text text-anchor="middle" x="280.24" y="-1094.22" font-family="Times New Roman,serif" font-size="14.00">Normalized count: 1.00</text>
<text text-anchor="middle" x="280.24" y="-1079.22" font-family="Times New Roman,serif" font-size="14.00">Samples weight: 0.00</text>
</g>
<!-- BB9 -->
<g id="node10" class="node">
<title>BB9</title>
<ellipse fill="none" stroke="black" cx="280.24" cy="-973.25" rx="103.48" ry="48.17"/>
<text text-anchor="middle" x="280.24" y="-992.05" font-family="Times New Roman,serif" font-size="14.00">[193..199)</text>
<text text-anchor="middle" x="280.24" y="-977.05" font-family="Times New Roman,serif" font-size="14.00">Count: 3</text>
<text text-anchor="middle" x="280.24" y="-962.05" font-family="Times New Roman,serif" font-size="14.00">Normalized count: 1.50</text>
<text text-anchor="middle" x="280.24" y="-947.05" font-family="Times New Roman,serif" font-size="14.00">Samples weight: 0.01</text>
</g>
<!-- BB0&#45;&gt;BB9 -->
<g id="edge1" class="edge">
<title>BB0&#45;&gt;BB9</title>
<path fill="none" stroke="black" d="M280.24,-1057.05C280.24,-1048.79 280.24,-1040.1 280.24,-1031.6"/>
<polygon fill="black" stroke="black" points="283.74,-1031.36 280.24,-1021.36 276.74,-1031.36 283.74,-1031.36"/>
</g>
<!-- BB1 -->
<g id="node2" class="node">
<title>BB1</title>
<ellipse fill="none" stroke="black" cx="292.24" cy="-708.92" rx="103.48" ry="48.17"/>
<text text-anchor="middle" x="292.24" y="-727.72" font-family="Times New Roman,serif" font-size="14.00">[87..a7)</text>
<text text-anchor="middle" x="292.24" y="-712.72" font-family="Times New Roman,serif" font-size="14.00">Count: 1</text>
<text text-anchor="middle" x="292.24" y="-697.72" font-family="Times New Roman,serif" font-size="14.00">Normalized count: 0.50</text>
<text text-anchor="middle" x="292.24" y="-682.72" font-family="Times New Roman,serif" font-size="14.00">Samples weight: 0.00</text>
</g>
<!-- BB7 -->
<g id="node8" class="node">
<title>BB7</title>
<ellipse fill="none" stroke="black" cx="303.24" cy="-576.75" rx="103.48" ry="48.17"/>
<text text-anchor="middle" x="303.24" y="-595.55" font-family="Times New Roman,serif" font-size="14.00">[15e..16c)</text>
<text text-anchor="middle" x="303.24" y="-580.55" font-family="Times New Roman,serif" font-size="14.00">Count: 14</text>
<text text-anchor="middle" x="303.24" y="-565.55" font-family="Times New Roman,serif" font-size="14.00">Normalized count: 7.00</text>
<text text-anchor="middle" x="303.24" y="-550.55" font-family="Times New Roman,serif" font-size="14.00">Samples weight: 0.03</text>
</g>
<!-- BB1&#45;&gt;BB7 -->
<g id="edge2" class="edge">
<title>BB1&#45;&gt;BB7</title>
<path fill="none" stroke="black" d="M296.24,-660.55C296.94,-652.29 297.67,-643.6 298.39,-635.1"/>
<polygon fill="black" stroke="black" points="301.9,-635.12 299.26,-624.86 294.93,-634.53 301.9,-635.12"/>
</g>
<!-- BB2 -->
<g id="node3" class="node">
<title>BB2</title>
<ellipse fill="none" stroke="black" cx="327.24" cy="-444.58" rx="103.48" ry="48.17"/>
<text text-anchor="middle" x="327.24" y="-463.38" font-family="Times New Roman,serif" font-size="14.00">[a7..c4)</text>
<text text-anchor="middle" x="327.24" y="-448.38" font-family="Times New Roman,serif" font-size="14.00">Count: 13</text>
<text text-anchor="middle" x="327.24" y="-433.38" font-family="Times New Roman,serif" font-size="14.00">Normalized count: 6.50</text>
<text text-anchor="middle" x="327.24" y="-418.38" font-family="Times New Roman,serif" font-size="14.00">Samples weight: 0.02</text>
</g>
<!-- BB3 -->
<g id="node4" class="node">
<title>BB3</title>
<ellipse fill="none" stroke="black" cx="313.24" cy="-312.42" rx="113.27" ry="48.17"/>
<text text-anchor="middle" x="313.24" y="-331.22" font-family="Times New Roman,serif" font-size="14.00">[c4..114)</text>
<text text-anchor="middle" x="313.24" y="-316.22" font-family="Times New Roman,serif" font-size="14.00">Count: 466</text>
<text text-anchor="middle" x="313.24" y="-301.22" font-family="Times New Roman,serif" font-size="14.00">Normalized count: 233.00</text>
<text text-anchor="middle" x="313.24" y="-286.22" font-family="Times New Roman,serif" font-size="14.00">Samples weight: 0.88</text>
</g>
<!-- BB2&#45;&gt;BB3 -->
<g id="edge3" class="edge">
<title>BB2&#45;&gt;BB3</title>
<path fill="none" stroke="black" d="M322.14,-396.22C321.24,-387.86 320.3,-379.08 319.38,-370.49"/>
<polygon fill="black" stroke="black" points="322.85,-370.09 318.3,-360.52 315.89,-370.84 322.85,-370.09"/>
</g>
<!-- BB3&#45;&gt;BB3 -->
<g id="edge4" class="edge">
<title>BB3&#45;&gt;BB3</title>
<path fill="none" stroke="black" d="M411.89,-336.02C430.9,-333.24 444.37,-325.37 444.37,-312.42 444.37,-301.89 435.48,-294.72 421.95,-290.91"/>
<polygon fill="black" stroke="black" points="422.39,-287.43 411.89,-288.81 420.96,-294.28 422.39,-287.43"/>
</g>
<!-- BB4 -->
<g id="node5" class="node">
<title>BB4</title>
<ellipse fill="none" stroke="black" cx="313.24" cy="-180.25" rx="103.48" ry="48.17"/>
<text text-anchor="middle" x="313.24" y="-199.05" font-family="Times New Roman,serif" font-size="14.00">[114..120)</text>
<text text-anchor="middle" x="313.24" y="-184.05" font-family="Times New Roman,serif" font-size="14.00">Count: 13</text>
<text text-anchor="middle" x="313.24" y="-169.05" font-family="Times New Roman,serif" font-size="14.00">Normalized count: 6.50</text>
<text text-anchor="middle" x="313.24" y="-154.05" font-family="Times New Roman,serif" font-size="14.00">Samples weight: 0.02</text>
</g>
<!-- BB3&#45;&gt;BB4 -->
<g id="edge5" class="edge">
<title>BB3&#45;&gt;BB4</title>
<path fill="none" stroke="black" d="M313.24,-264.05C313.24,-255.79 313.24,-247.1 313.24,-238.6"/>
<polygon fill="black" stroke="black" points="316.74,-238.36 313.24,-228.36 309.74,-238.36 316.74,-238.36"/>
</g>
<!-- BB5 -->
<g id="node6" class="node">
<title>BB5</title>
<ellipse fill="none" stroke="black" cx="248.24" cy="-48.08" rx="103.48" ry="48.17"/>
<text text-anchor="middle" x="248.24" y="-66.88" font-family="Times New Roman,serif" font-size="14.00">[120..13a)</text>
<text text-anchor="middle" x="248.24" y="-51.88" font-family="Times New Roman,serif" font-size="14.00">Count: 0</text>
<text text-anchor="middle" x="248.24" y="-36.88" font-family="Times New Roman,serif" font-size="14.00">Normalized count: 0.00</text>
<text text-anchor="middle" x="248.24" y="-21.88" font-family="Times New Roman,serif" font-size="14.00">Samples weight: 0.00</text>
</g>
<!-- BB4&#45;&gt;BB5 -->
<g id="edge7" class="edge">
<title>BB4&#45;&gt;BB5</title>
<path fill="none" stroke="black" d="M290.32,-133.36C285.61,-123.93 280.61,-113.91 275.76,-104.19"/>
<polygon fill="black" stroke="black" points="278.77,-102.38 271.17,-95 272.5,-105.51 278.77,-102.38"/>
</g>
<!-- BB6 -->
<g id="node7" class="node">
<title>BB6</title>
<ellipse fill="none" stroke="black" cx="472.24" cy="-48.08" rx="103.48" ry="48.17"/>
<text text-anchor="middle" x="472.24" y="-66.88" font-family="Times New Roman,serif" font-size="14.00">[13a..15e)</text>
<text text-anchor="middle" x="472.24" y="-51.88" font-family="Times New Roman,serif" font-size="14.00">Count: 13</text>
<text text-anchor="middle" x="472.24" y="-36.88" font-family="Times New Roman,serif" font-size="14.00">Normalized count: 6.50</text>
<text text-anchor="middle" x="472.24" y="-21.88" font-family="Times New Roman,serif" font-size="14.00">Samples weight: 0.02</text>
</g>
<!-- BB4&#45;&gt;BB6 -->
<g id="edge6" class="edge">
<title>BB4&#45;&gt;BB6</title>
<path fill="none" stroke="black" d="M363.55,-138.06C379.57,-124.94 397.44,-110.32 413.98,-96.77"/>
<polygon fill="black" stroke="black" points="416.46,-99.27 421.98,-90.22 412.03,-93.85 416.46,-99.27"/>
</g>
<!-- BB5&#45;&gt;BB6 -->
<g id="edge8" class="edge">
<title>BB5&#45;&gt;BB6</title>
<path fill="none" stroke="black" d="M351.49,-48.08C353.94,-48.08 356.4,-48.08 358.85,-48.08"/>
<polygon fill="black" stroke="black" points="358.94,-51.58 368.94,-48.08 358.94,-44.58 358.94,-51.58"/>
</g>
<!-- BB6&#45;&gt;BB7 -->
<g id="edge9" class="edge">
<title>BB6&#45;&gt;BB7</title>
<path fill="none" stroke="black" d="M482.18,-96.24C497.64,-182.44 518.08,-368.01 439.24,-492.67 427.06,-511.92 408.66,-527.38 389.28,-539.49"/>
<polygon fill="black" stroke="black" points="387.43,-536.52 380.64,-544.66 391.02,-542.53 387.43,-536.52"/>
</g>
<!-- BB7&#45;&gt;BB2 -->
<g id="edge10" class="edge">
<title>BB7&#45;&gt;BB2</title>
<path fill="none" stroke="black" d="M311.9,-528.76C313.47,-520.28 315.11,-511.35 316.72,-502.62"/>
<polygon fill="black" stroke="black" points="320.21,-502.98 318.59,-492.51 313.33,-501.71 320.21,-502.98"/>
</g>
<!-- BB8 -->
<g id="node9" class="node">
<title>BB8</title>
<ellipse fill="none" stroke="black" cx="103.24" cy="-444.58" rx="103.48" ry="48.17"/>
<text text-anchor="middle" x="103.24" y="-463.38" font-family="Times New Roman,serif" font-size="14.00">[16c..193)</text>
<text text-anchor="middle" x="103.24" y="-448.38" font-family="Times New Roman,serif" font-size="14.00">Count: 1</text>
<text text-anchor="middle" x="103.24" y="-433.38" font-family="Times New Roman,serif" font-size="14.00">Normalized count: 0.50</text>
<text text-anchor="middle" x="103.24" y="-418.38" font-family="Times New Roman,serif" font-size="14.00">Samples weight: 0.00</text>
</g>
<!-- BB7&#45;&gt;BB8 -->
<g id="edge11" class="edge">
<title>BB7&#45;&gt;BB8</title>
<path fill="none" stroke="black" d="M244.04,-537.22C221.17,-522.33 194.85,-505.21 171.21,-489.82"/>
<polygon fill="black" stroke="black" points="172.92,-486.76 162.63,-484.23 169.1,-492.62 172.92,-486.76"/>
</g>
<!-- BB8&#45;&gt;BB9 -->
<g id="edge12" class="edge">
<title>BB8&#45;&gt;BB9</title>
<path fill="none" stroke="black" d="M98.88,-492.85C93.3,-578.42 92.13,-761.92 168.24,-889.17 177.62,-904.86 191.22,-918.52 205.72,-929.99"/>
<polygon fill="black" stroke="black" points="203.76,-932.89 213.85,-936.13 207.98,-927.31 203.76,-932.89"/>
</g>
<!-- BB10 -->
<g id="node11" class="node">
<title>BB10</title>
<ellipse fill="none" stroke="black" cx="280.24" cy="-841.08" rx="103.48" ry="48.17"/>
<text text-anchor="middle" x="280.24" y="-859.88" font-family="Times New Roman,serif" font-size="14.00">[199..1a4)</text>
<text text-anchor="middle" x="280.24" y="-844.88" font-family="Times New Roman,serif" font-size="14.00">Count: 1</text>
<text text-anchor="middle" x="280.24" y="-829.88" font-family="Times New Roman,serif" font-size="14.00">Normalized count: 0.50</text>
<text text-anchor="middle" x="280.24" y="-814.88" font-family="Times New Roman,serif" font-size="14.00">Samples weight: 0.00</text>
</g>
<!-- BB9&#45;&gt;BB10 -->
<g id="edge14" class="edge">
<title>BB9&#45;&gt;BB10</title>
<path fill="none" stroke="black" d="M280.24,-924.89C280.24,-916.62 280.24,-907.94 280.24,-899.43"/>
<polygon fill="black" stroke="black" points="283.74,-899.19 280.24,-889.19 276.74,-899.19 283.74,-899.19"/>
</g>
<!-- BB11 -->
<g id="node12" class="node">
<title>BB11</title>
<ellipse fill="none" stroke="black" cx="504.24" cy="-841.08" rx="103.48" ry="48.17"/>
<text text-anchor="middle" x="504.24" y="-859.88" font-family="Times New Roman,serif" font-size="14.00">[1a4..1a5)</text>
<text text-anchor="middle" x="504.24" y="-844.88" font-family="Times New Roman,serif" font-size="14.00">Count: 2</text>
<text text-anchor="middle" x="504.24" y="-829.88" font-family="Times New Roman,serif" font-size="14.00">Normalized count: 1.00</text>
<text text-anchor="middle" x="504.24" y="-814.88" font-family="Times New Roman,serif" font-size="14.00">Samples weight: 0.00</text>
</g>
<!-- BB9&#45;&gt;BB11 -->
<g id="edge13" class="edge">
<title>BB9&#45;&gt;BB11</title>
<path fill="none" stroke="black" d="M343.83,-935.3C371.26,-919.36 403.48,-900.63 431.83,-884.16"/>
<polygon fill="black" stroke="black" points="433.6,-887.18 440.49,-879.13 430.08,-881.13 433.6,-887.18"/>
</g>
<!-- BB10&#45;&gt;BB1 -->
<g id="edge15" class="edge">
<title>BB10&#45;&gt;BB1</title>
<path fill="none" stroke="black" d="M284.6,-792.72C285.37,-784.36 286.18,-775.58 286.98,-766.99"/>
<polygon fill="black" stroke="black" points="290.46,-767.3 287.89,-757.02 283.49,-766.66 290.46,-767.3"/>
</g>
<!-- BB10&#45;&gt;BB11 -->
<g id="edge16" class="edge">
<title>BB10&#45;&gt;BB11</title>
<path fill="none" stroke="black" d="M383.49,-841.08C385.94,-841.08 388.4,-841.08 390.85,-841.08"/>
<polygon fill="black" stroke="black" points="390.94,-844.58 400.94,-841.08 390.94,-837.58 390.94,-844.58"/>
</g>
</g>
</svg>
