<?xml version="1.0" encoding="UTF-8" standalone="no"?>
<!DOCTYPE svg PUBLIC "-//W3C//DTD SVG 1.1//EN"
 "http://www.w3.org/Graphics/SVG/1.1/DTD/svg11.dtd">
<!-- Generated by graphviz version 2.47.0 (20210316.0004)
 -->
<!-- Title: G Pages: 1 -->
<svg width="709pt" height="860pt"
 viewBox="0.00 0.00 708.71 859.63" xmlns="http://www.w3.org/2000/svg" xmlns:xlink="http://www.w3.org/1999/xlink">
<g id="graph0" class="graph" transform="scale(1 1) rotate(0) translate(4 855.63)">
<title>G</title>
<polygon fill="white" stroke="transparent" points="-4,4 -4,-855.63 704.71,-855.63 704.71,4 -4,4"/>
<!-- BB0 -->
<g id="node1" class="node">
<title>BB0</title>
<ellipse fill="none" stroke="black" cx="311.26" cy="-814.15" rx="105.22" ry="37.45"/>
<text text-anchor="middle" x="311.26" y="-825.45" font-family="Times New Roman,serif" font-size="14.00">[0..6)</text>
<text text-anchor="middle" x="311.26" y="-810.45" font-family="Times New Roman,serif" font-size="14.00">Normalized Count: 1.00</text>
<text text-anchor="middle" x="311.26" y="-795.45" font-family="Times New Roman,serif" font-size="14.00">Samples weight: 0.00</text>
</g>
<!-- BB8 -->
<g id="node9" class="node">
<title>BB8</title>
<ellipse fill="none" stroke="black" cx="311.26" cy="-703.2" rx="115.02" ry="37.45"/>
<text text-anchor="middle" x="311.26" y="-714.5" font-family="Times New Roman,serif" font-size="14.00">[7d..82)</text>
<text text-anchor="middle" x="311.26" y="-699.5" font-family="Times New Roman,serif" font-size="14.00">Normalized Count: 202.00</text>
<text text-anchor="middle" x="311.26" y="-684.5" font-family="Times New Roman,serif" font-size="14.00">Samples weight: 0.00</text>
</g>
<!-- BB0&#45;&gt;BB8 -->
<g id="edge1" class="edge">
<title>BB0&#45;&gt;BB8</title>
<path fill="none" stroke="black" d="M311.26,-776.57C311.26,-768.39 311.26,-759.61 311.26,-751.09"/>
<polygon fill="black" stroke="black" points="314.76,-750.87 311.26,-740.87 307.76,-750.87 314.76,-750.87"/>
</g>
<!-- BB1 -->
<g id="node2" class="node">
<title>BB1</title>
<ellipse fill="none" stroke="black" cx="315.26" cy="-481.29" rx="115.02" ry="37.45"/>
<text text-anchor="middle" x="315.26" y="-492.59" font-family="Times New Roman,serif" font-size="14.00">[6..c)</text>
<text text-anchor="middle" x="315.26" y="-477.59" font-family="Times New Roman,serif" font-size="14.00">Normalized Count: 201.00</text>
<text text-anchor="middle" x="315.26" y="-462.59" font-family="Times New Roman,serif" font-size="14.00">Samples weight: 0.00</text>
</g>
<!-- BB6 -->
<g id="node7" class="node">
<title>BB6</title>
<ellipse fill="none" stroke="black" cx="346.26" cy="-370.34" rx="124.4" ry="37.45"/>
<text text-anchor="middle" x="346.26" y="-381.64" font-family="Times New Roman,serif" font-size="14.00">[70..74)</text>
<text text-anchor="middle" x="346.26" y="-366.64" font-family="Times New Roman,serif" font-size="14.00">Normalized Count: 40401.00</text>
<text text-anchor="middle" x="346.26" y="-351.64" font-family="Times New Roman,serif" font-size="14.00">Samples weight: 0.00</text>
</g>
<!-- BB1&#45;&gt;BB6 -->
<g id="edge2" class="edge">
<title>BB1&#45;&gt;BB6</title>
<path fill="none" stroke="black" d="M325.67,-443.71C328.04,-435.35 330.6,-426.37 333.08,-417.66"/>
<polygon fill="black" stroke="black" points="336.45,-418.58 335.82,-408.01 329.72,-416.67 336.45,-418.58"/>
</g>
<!-- BB2 -->
<g id="node3" class="node">
<title>BB2</title>
<ellipse fill="none" stroke="black" cx="373.26" cy="-259.38" rx="124.4" ry="37.45"/>
<text text-anchor="middle" x="373.26" y="-270.68" font-family="Times New Roman,serif" font-size="14.00">[c..23)</text>
<text text-anchor="middle" x="373.26" y="-255.68" font-family="Times New Roman,serif" font-size="14.00">Normalized Count: 40200.00</text>
<text text-anchor="middle" x="373.26" y="-240.68" font-family="Times New Roman,serif" font-size="14.00">Samples weight: 0.00</text>
</g>
<!-- BB3 -->
<g id="node4" class="node">
<title>BB3</title>
<ellipse fill="none" stroke="black" cx="351.26" cy="-148.43" rx="139.1" ry="37.45"/>
<text text-anchor="middle" x="351.26" y="-159.73" font-family="Times New Roman,serif" font-size="14.00">[23..4f)</text>
<text text-anchor="middle" x="351.26" y="-144.73" font-family="Times New Roman,serif" font-size="14.00">Normalized Count: 25133480.00</text>
<text text-anchor="middle" x="351.26" y="-129.73" font-family="Times New Roman,serif" font-size="14.00">Samples weight: 0.50</text>
</g>
<!-- BB2&#45;&gt;BB3 -->
<g id="edge3" class="edge">
<title>BB2&#45;&gt;BB3</title>
<path fill="none" stroke="black" d="M365.87,-221.8C364.2,-213.54 362.41,-204.65 360.67,-196.04"/>
<polygon fill="black" stroke="black" points="364.07,-195.21 358.66,-186.1 357.21,-196.6 364.07,-195.21"/>
</g>
<!-- BB4 -->
<g id="node5" class="node">
<title>BB4</title>
<ellipse fill="none" stroke="black" cx="294.26" cy="-37.48" rx="139.1" ry="37.45"/>
<text text-anchor="middle" x="294.26" y="-48.78" font-family="Times New Roman,serif" font-size="14.00">[4f..58)</text>
<text text-anchor="middle" x="294.26" y="-33.78" font-family="Times New Roman,serif" font-size="14.00">Normalized Count: 25112546.00</text>
<text text-anchor="middle" x="294.26" y="-18.78" font-family="Times New Roman,serif" font-size="14.00">Samples weight: 0.50</text>
</g>
<!-- BB3&#45;&gt;BB4 -->
<g id="edge5" class="edge">
<title>BB3&#45;&gt;BB4</title>
<path fill="none" stroke="black" d="M326.05,-111.45C321.12,-102.71 316.08,-93.25 311.47,-84.13"/>
<polygon fill="black" stroke="black" points="314.61,-82.57 307.03,-75.16 308.33,-85.68 314.61,-82.57"/>
</g>
<!-- BB5 -->
<g id="node6" class="node">
<title>BB5</title>
<ellipse fill="none" stroke="black" cx="576.26" cy="-37.48" rx="124.4" ry="37.45"/>
<text text-anchor="middle" x="576.26" y="-48.78" font-family="Times New Roman,serif" font-size="14.00">[58..70)</text>
<text text-anchor="middle" x="576.26" y="-33.78" font-family="Times New Roman,serif" font-size="14.00">Normalized Count: 40200.00</text>
<text text-anchor="middle" x="576.26" y="-18.78" font-family="Times New Roman,serif" font-size="14.00">Samples weight: 0.00</text>
</g>
<!-- BB3&#45;&gt;BB5 -->
<g id="edge4" class="edge">
<title>BB3&#45;&gt;BB5</title>
<path fill="none" stroke="black" d="M417.55,-115.33C444.34,-102.36 475.35,-87.34 502.82,-74.04"/>
<polygon fill="black" stroke="black" points="504.51,-77.11 511.99,-69.6 501.46,-70.81 504.51,-77.11"/>
</g>
<!-- BB4&#45;&gt;BB3 -->
<g id="edge6" class="edge">
<title>BB4&#45;&gt;BB3</title>
<path fill="none" stroke="black" d="M319.45,-74.41C324.39,-83.18 329.45,-92.68 334.08,-101.84"/>
<polygon fill="black" stroke="black" points="330.96,-103.44 338.54,-110.85 337.24,-100.33 330.96,-103.44"/>
</g>
<!-- BB4&#45;&gt;BB5 -->
<g id="edge7" class="edge">
<title>BB4&#45;&gt;BB5</title>
<path fill="none" stroke="black" d="M433.61,-37.48C436.25,-37.48 438.89,-37.48 441.53,-37.48"/>
<polygon fill="black" stroke="black" points="441.72,-40.98 451.72,-37.48 441.72,-33.98 441.72,-40.98"/>
</g>
<!-- BB5&#45;&gt;BB6 -->
<g id="edge8" class="edge">
<title>BB5&#45;&gt;BB6</title>
<path fill="none" stroke="black" d="M575.81,-75.07C573.26,-129.59 560.92,-232.62 506.26,-296.86 490.28,-315.64 468.43,-329.79 446.02,-340.35"/>
<polygon fill="black" stroke="black" points="444.42,-337.23 436.73,-344.52 447.29,-343.62 444.42,-337.23"/>
</g>
<!-- BB6&#45;&gt;BB2 -->
<g id="edge9" class="edge">
<title>BB6&#45;&gt;BB2</title>
<path fill="none" stroke="black" d="M355.32,-332.75C357.37,-324.49 359.57,-315.61 361.71,-306.99"/>
<polygon fill="black" stroke="black" points="365.16,-307.6 364.17,-297.06 358.37,-305.92 365.16,-307.6"/>
</g>
<!-- BB7 -->
<g id="node8" class="node">
<title>BB7</title>
<ellipse fill="none" stroke="black" cx="115.26" cy="-259.38" rx="115.02" ry="37.45"/>
<text text-anchor="middle" x="115.26" y="-270.68" font-family="Times New Roman,serif" font-size="14.00">[74..7d)</text>
<text text-anchor="middle" x="115.26" y="-255.68" font-family="Times New Roman,serif" font-size="14.00">Normalized Count: 201.00</text>
<text text-anchor="middle" x="115.26" y="-240.68" font-family="Times New Roman,serif" font-size="14.00">Samples weight: 0.00</text>
</g>
<!-- BB6&#45;&gt;BB7 -->
<g id="edge10" class="edge">
<title>BB6&#45;&gt;BB7</title>
<path fill="none" stroke="black" d="M280.68,-338.41C252.04,-324.9 218.32,-308.99 188.82,-295.08"/>
<polygon fill="black" stroke="black" points="189.94,-291.74 179.4,-290.64 186.95,-298.07 189.94,-291.74"/>
</g>
<!-- BB7&#45;&gt;BB8 -->
<g id="edge11" class="edge">
<title>BB7&#45;&gt;BB8</title>
<path fill="none" stroke="black" d="M112.97,-296.97C110.39,-367.96 114,-526.5 187.26,-629.72 198.44,-645.48 214.22,-658.34 230.78,-668.61"/>
<polygon fill="black" stroke="black" points="229.1,-671.68 239.49,-673.74 232.65,-665.65 229.1,-671.68"/>
</g>
<!-- BB9 -->
<g id="node10" class="node">
<title>BB9</title>
<ellipse fill="none" stroke="black" cx="311.26" cy="-592.24" rx="115.02" ry="37.45"/>
<text text-anchor="middle" x="311.26" y="-603.54" font-family="Times New Roman,serif" font-size="14.00">[82..8d)</text>
<text text-anchor="middle" x="311.26" y="-588.54" font-family="Times New Roman,serif" font-size="14.00">Normalized Count: 201.00</text>
<text text-anchor="middle" x="311.26" y="-573.54" font-family="Times New Roman,serif" font-size="14.00">Samples weight: 0.00</text>
</g>
<!-- BB8&#45;&gt;BB9 -->
<g id="edge13" class="edge">
<title>BB8&#45;&gt;BB9</title>
<path fill="none" stroke="black" d="M311.26,-665.61C311.26,-657.44 311.26,-648.66 311.26,-640.13"/>
<polygon fill="black" stroke="black" points="314.76,-639.92 311.26,-629.92 307.76,-639.92 314.76,-639.92"/>
</g>
<!-- BB10 -->
<g id="node11" class="node">
<title>BB10</title>
<ellipse fill="none" stroke="black" cx="550.26" cy="-592.24" rx="105.22" ry="37.45"/>
<text text-anchor="middle" x="550.26" y="-603.54" font-family="Times New Roman,serif" font-size="14.00">[8d..8e)</text>
<text text-anchor="middle" x="550.26" y="-588.54" font-family="Times New Roman,serif" font-size="14.00">Normalized Count: 1.00</text>
<text text-anchor="middle" x="550.26" y="-573.54" font-family="Times New Roman,serif" font-size="14.00">Samples weight: 0.00</text>
</g>
<!-- BB8&#45;&gt;BB10 -->
<g id="edge12" class="edge">
<title>BB8&#45;&gt;BB10</title>
<path fill="none" stroke="black" d="M376.88,-672.28C407.95,-658.12 445.16,-641.16 477.13,-626.58"/>
<polygon fill="black" stroke="black" points="478.78,-629.67 486.43,-622.34 475.88,-623.3 478.78,-629.67"/>
</g>
<!-- BB9&#45;&gt;BB1 -->
<g id="edge14" class="edge">
<title>BB9&#45;&gt;BB1</title>
<path fill="none" stroke="black" d="M312.6,-554.66C312.9,-546.49 313.22,-537.71 313.54,-529.18"/>
<polygon fill="black" stroke="black" points="317.04,-529.08 313.91,-518.96 310.05,-528.83 317.04,-529.08"/>
</g>
<!-- BB9&#45;&gt;BB10 -->
<g id="edge15" class="edge">
<title>BB9&#45;&gt;BB10</title>
<path fill="none" stroke="black" d="M426.56,-592.24C429.16,-592.24 431.77,-592.24 434.38,-592.24"/>
<polygon fill="black" stroke="black" points="434.44,-595.74 444.44,-592.24 434.44,-588.74 434.44,-595.74"/>
</g>
</g>
</svg>
