<?xml version="1.0" encoding="UTF-8" standalone="no"?>
<!DOCTYPE svg PUBLIC "-//W3C//DTD SVG 1.1//EN"
 "http://www.w3.org/Graphics/SVG/1.1/DTD/svg11.dtd">
<!-- Generated by graphviz version 2.47.0 (20210316.0004)
 -->
<!-- Title: G Pages: 1 -->
<svg width="642pt" height="860pt"
 viewBox="0.00 0.00 641.74 859.63" xmlns="http://www.w3.org/2000/svg" xmlns:xlink="http://www.w3.org/1999/xlink">
<g id="graph0" class="graph" transform="scale(1 1) rotate(0) translate(4 855.63)">
<title>G</title>
<polygon fill="white" stroke="transparent" points="-4,4 -4,-855.63 637.74,-855.63 637.74,4 -4,4"/>
<!-- BB0 -->
<g id="node1" class="node">
<title>BB0</title>
<ellipse fill="none" stroke="black" cx="289.77" cy="-814.15" rx="106.55" ry="37.45"/>
<text text-anchor="middle" x="289.77" y="-825.45" font-family="Times New Roman,serif" font-size="14.00">[0..9)</text>
<text text-anchor="middle" x="289.77" y="-810.45" font-family="Times New Roman,serif" font-size="14.00">Normalized Count: NaN</text>
<text text-anchor="middle" x="289.77" y="-795.45" font-family="Times New Roman,serif" font-size="14.00">Samples weight: 0.00</text>
</g>
<!-- BB8 -->
<g id="node9" class="node">
<title>BB8</title>
<ellipse fill="none" stroke="black" cx="289.77" cy="-703.2" rx="106.55" ry="37.45"/>
<text text-anchor="middle" x="289.77" y="-714.5" font-family="Times New Roman,serif" font-size="14.00">[8b..90)</text>
<text text-anchor="middle" x="289.77" y="-699.5" font-family="Times New Roman,serif" font-size="14.00">Normalized Count: NaN</text>
<text text-anchor="middle" x="289.77" y="-684.5" font-family="Times New Roman,serif" font-size="14.00">Samples weight: 0.00</text>
</g>
<!-- BB0&#45;&gt;BB8 -->
<g id="edge1" class="edge">
<title>BB0&#45;&gt;BB8</title>
<path fill="none" stroke="black" d="M289.77,-776.57C289.77,-768.39 289.77,-759.61 289.77,-751.09"/>
<polygon fill="black" stroke="black" points="293.27,-750.87 289.77,-740.87 286.27,-750.87 293.27,-750.87"/>
</g>
<!-- BB1 -->
<g id="node2" class="node">
<title>BB1</title>
<ellipse fill="none" stroke="black" cx="289.77" cy="-481.29" rx="106.55" ry="37.45"/>
<text text-anchor="middle" x="289.77" y="-492.59" font-family="Times New Roman,serif" font-size="14.00">[9..f)</text>
<text text-anchor="middle" x="289.77" y="-477.59" font-family="Times New Roman,serif" font-size="14.00">Normalized Count: NaN</text>
<text text-anchor="middle" x="289.77" y="-462.59" font-family="Times New Roman,serif" font-size="14.00">Samples weight: 0.00</text>
</g>
<!-- BB6 -->
<g id="node7" class="node">
<title>BB6</title>
<ellipse fill="none" stroke="black" cx="313.77" cy="-370.34" rx="106.55" ry="37.45"/>
<text text-anchor="middle" x="313.77" y="-381.64" font-family="Times New Roman,serif" font-size="14.00">[7e..82)</text>
<text text-anchor="middle" x="313.77" y="-366.64" font-family="Times New Roman,serif" font-size="14.00">Normalized Count: NaN</text>
<text text-anchor="middle" x="313.77" y="-351.64" font-family="Times New Roman,serif" font-size="14.00">Samples weight: 0.00</text>
</g>
<!-- BB1&#45;&gt;BB6 -->
<g id="edge2" class="edge">
<title>BB1&#45;&gt;BB6</title>
<path fill="none" stroke="black" d="M297.83,-443.71C299.65,-435.44 301.61,-426.56 303.51,-417.95"/>
<polygon fill="black" stroke="black" points="306.96,-418.53 305.7,-408.01 300.13,-417.02 306.96,-418.53"/>
</g>
<!-- BB2 -->
<g id="node3" class="node">
<title>BB2</title>
<ellipse fill="none" stroke="black" cx="338.77" cy="-259.38" rx="106.55" ry="37.45"/>
<text text-anchor="middle" x="338.77" y="-270.68" font-family="Times New Roman,serif" font-size="14.00">[f..1f)</text>
<text text-anchor="middle" x="338.77" y="-255.68" font-family="Times New Roman,serif" font-size="14.00">Normalized Count: NaN</text>
<text text-anchor="middle" x="338.77" y="-240.68" font-family="Times New Roman,serif" font-size="14.00">Samples weight: 0.00</text>
</g>
<!-- BB3 -->
<g id="node4" class="node">
<title>BB3</title>
<ellipse fill="none" stroke="black" cx="320.77" cy="-148.43" rx="115.93" ry="37.45"/>
<text text-anchor="middle" x="320.77" y="-159.73" font-family="Times New Roman,serif" font-size="14.00">[1f..5d)</text>
<text text-anchor="middle" x="320.77" y="-144.73" font-family="Times New Roman,serif" font-size="14.00">Normalized Count: Infinity</text>
<text text-anchor="middle" x="320.77" y="-129.73" font-family="Times New Roman,serif" font-size="14.00">Samples weight: 1.00</text>
</g>
<!-- BB2&#45;&gt;BB3 -->
<g id="edge3" class="edge">
<title>BB2&#45;&gt;BB3</title>
<path fill="none" stroke="black" d="M332.73,-221.8C331.36,-213.54 329.9,-204.65 328.47,-196.04"/>
<polygon fill="black" stroke="black" points="331.91,-195.4 326.83,-186.1 325.01,-196.54 331.91,-195.4"/>
</g>
<!-- BB4 -->
<g id="node5" class="node">
<title>BB4</title>
<ellipse fill="none" stroke="black" cx="267.77" cy="-37.48" rx="115.93" ry="37.45"/>
<text text-anchor="middle" x="267.77" y="-48.78" font-family="Times New Roman,serif" font-size="14.00">[5d..66)</text>
<text text-anchor="middle" x="267.77" y="-33.78" font-family="Times New Roman,serif" font-size="14.00">Normalized Count: Infinity</text>
<text text-anchor="middle" x="267.77" y="-18.78" font-family="Times New Roman,serif" font-size="14.00">Samples weight: 0.00</text>
</g>
<!-- BB3&#45;&gt;BB4 -->
<g id="edge5" class="edge">
<title>BB3&#45;&gt;BB4</title>
<path fill="none" stroke="black" d="M296.88,-111.45C292.28,-102.71 287.58,-93.25 283.31,-84.13"/>
<polygon fill="black" stroke="black" points="286.38,-82.42 279.03,-74.79 280.01,-85.34 286.38,-82.42"/>
</g>
<!-- BB5 -->
<g id="node6" class="node">
<title>BB5</title>
<ellipse fill="none" stroke="black" cx="517.77" cy="-37.48" rx="115.93" ry="37.45"/>
<text text-anchor="middle" x="517.77" y="-48.78" font-family="Times New Roman,serif" font-size="14.00">[66..7e)</text>
<text text-anchor="middle" x="517.77" y="-33.78" font-family="Times New Roman,serif" font-size="14.00">Normalized Count: Infinity</text>
<text text-anchor="middle" x="517.77" y="-18.78" font-family="Times New Roman,serif" font-size="14.00">Samples weight: 0.00</text>
</g>
<!-- BB3&#45;&gt;BB5 -->
<g id="edge4" class="edge">
<title>BB3&#45;&gt;BB5</title>
<path fill="none" stroke="black" d="M378.02,-115.77C400.99,-103.07 427.61,-88.35 451.41,-75.18"/>
<polygon fill="black" stroke="black" points="453.33,-78.12 460.39,-70.22 449.94,-71.99 453.33,-78.12"/>
</g>
<!-- BB4&#45;&gt;BB3 -->
<g id="edge6" class="edge">
<title>BB4&#45;&gt;BB3</title>
<path fill="none" stroke="black" d="M291.64,-74.41C296.22,-83.09 300.88,-92.49 305.13,-101.56"/>
<polygon fill="black" stroke="black" points="302.04,-103.22 309.39,-110.85 308.41,-100.3 302.04,-103.22"/>
</g>
<!-- BB4&#45;&gt;BB5 -->
<g id="edge7" class="edge">
<title>BB4&#45;&gt;BB5</title>
<path fill="none" stroke="black" d="M383.98,-37.48C386.48,-37.48 388.98,-37.48 391.48,-37.48"/>
<polygon fill="black" stroke="black" points="391.75,-40.98 401.75,-37.48 391.75,-33.98 391.75,-40.98"/>
</g>
<!-- BB5&#45;&gt;BB6 -->
<g id="edge8" class="edge">
<title>BB5&#45;&gt;BB6</title>
<path fill="none" stroke="black" d="M518.04,-75.11C516.58,-129.24 506.51,-231.23 454.77,-296.86 440.45,-315.03 420.33,-329.08 399.76,-339.76"/>
<polygon fill="black" stroke="black" points="398.03,-336.71 390.62,-344.28 401.14,-342.99 398.03,-336.71"/>
</g>
<!-- BB6&#45;&gt;BB2 -->
<g id="edge9" class="edge">
<title>BB6&#45;&gt;BB2</title>
<path fill="none" stroke="black" d="M322.17,-332.75C324.06,-324.49 326.1,-315.61 328.08,-306.99"/>
<polygon fill="black" stroke="black" points="331.53,-307.58 330.36,-297.06 324.71,-306.02 331.53,-307.58"/>
</g>
<!-- BB7 -->
<g id="node8" class="node">
<title>BB7</title>
<ellipse fill="none" stroke="black" cx="106.77" cy="-259.38" rx="106.55" ry="37.45"/>
<text text-anchor="middle" x="106.77" y="-270.68" font-family="Times New Roman,serif" font-size="14.00">[82..8b)</text>
<text text-anchor="middle" x="106.77" y="-255.68" font-family="Times New Roman,serif" font-size="14.00">Normalized Count: NaN</text>
<text text-anchor="middle" x="106.77" y="-240.68" font-family="Times New Roman,serif" font-size="14.00">Samples weight: 0.00</text>
</g>
<!-- BB6&#45;&gt;BB7 -->
<g id="edge10" class="edge">
<title>BB6&#45;&gt;BB7</title>
<path fill="none" stroke="black" d="M255.84,-338.84C230.37,-325.44 200.31,-309.62 173.88,-295.7"/>
<polygon fill="black" stroke="black" points="175.17,-292.43 164.7,-290.87 171.91,-298.63 175.17,-292.43"/>
</g>
<!-- BB7&#45;&gt;BB8 -->
<g id="edge11" class="edge">
<title>BB7&#45;&gt;BB8</title>
<path fill="none" stroke="black" d="M104.15,-297.01C100.94,-367.75 103,-525.35 173.77,-629.72 184.23,-645.14 199.18,-657.92 214.88,-668.22"/>
<polygon fill="black" stroke="black" points="213.31,-671.37 223.65,-673.7 217.02,-665.43 213.31,-671.37"/>
</g>
<!-- BB9 -->
<g id="node10" class="node">
<title>BB9</title>
<ellipse fill="none" stroke="black" cx="289.77" cy="-592.24" rx="106.55" ry="37.45"/>
<text text-anchor="middle" x="289.77" y="-603.54" font-family="Times New Roman,serif" font-size="14.00">[90..9b)</text>
<text text-anchor="middle" x="289.77" y="-588.54" font-family="Times New Roman,serif" font-size="14.00">Normalized Count: NaN</text>
<text text-anchor="middle" x="289.77" y="-573.54" font-family="Times New Roman,serif" font-size="14.00">Samples weight: 0.00</text>
</g>
<!-- BB8&#45;&gt;BB9 -->
<g id="edge13" class="edge">
<title>BB8&#45;&gt;BB9</title>
<path fill="none" stroke="black" d="M289.77,-665.61C289.77,-657.44 289.77,-648.66 289.77,-640.13"/>
<polygon fill="black" stroke="black" points="293.27,-639.92 289.77,-629.92 286.27,-639.92 293.27,-639.92"/>
</g>
<!-- BB10 -->
<g id="node11" class="node">
<title>BB10</title>
<ellipse fill="none" stroke="black" cx="521.77" cy="-592.24" rx="106.55" ry="37.45"/>
<text text-anchor="middle" x="521.77" y="-603.54" font-family="Times New Roman,serif" font-size="14.00">[9b..9c)</text>
<text text-anchor="middle" x="521.77" y="-588.54" font-family="Times New Roman,serif" font-size="14.00">Normalized Count: NaN</text>
<text text-anchor="middle" x="521.77" y="-573.54" font-family="Times New Roman,serif" font-size="14.00">Samples weight: 0.00</text>
</g>
<!-- BB8&#45;&gt;BB10 -->
<g id="edge12" class="edge">
<title>BB8&#45;&gt;BB10</title>
<path fill="none" stroke="black" d="M352.56,-672.71C382.6,-658.6 418.73,-641.64 449.87,-627.01"/>
<polygon fill="black" stroke="black" points="451.38,-630.17 458.94,-622.75 448.4,-623.83 451.38,-630.17"/>
</g>
<!-- BB9&#45;&gt;BB1 -->
<g id="edge14" class="edge">
<title>BB9&#45;&gt;BB1</title>
<path fill="none" stroke="black" d="M289.77,-554.66C289.77,-546.49 289.77,-537.71 289.77,-529.18"/>
<polygon fill="black" stroke="black" points="293.27,-528.96 289.77,-518.96 286.27,-528.96 293.27,-528.96"/>
</g>
<!-- BB9&#45;&gt;BB10 -->
<g id="edge15" class="edge">
<title>BB9&#45;&gt;BB10</title>
<path fill="none" stroke="black" d="M396.71,-592.24C399.35,-592.24 401.98,-592.24 404.62,-592.24"/>
<polygon fill="black" stroke="black" points="404.79,-595.74 414.79,-592.24 404.79,-588.74 404.79,-595.74"/>
</g>
</g>
</svg>
