<?xml version="1.0" encoding="UTF-8" standalone="no"?>
<!DOCTYPE svg PUBLIC "-//W3C//DTD SVG 1.1//EN"
 "http://www.w3.org/Graphics/SVG/1.1/DTD/svg11.dtd">
<!-- Generated by graphviz version 2.47.0 (20210316.0004)
 -->
<!-- Title: G Pages: 1 -->
<svg width="628pt" height="1161pt"
 viewBox="0.00 0.00 628.30 1161.50" xmlns="http://www.w3.org/2000/svg" xmlns:xlink="http://www.w3.org/1999/xlink">
<g id="graph0" class="graph" transform="scale(1 1) rotate(0) translate(4 1157.5)">
<title>G</title>
<polygon fill="white" stroke="transparent" points="-4,4 -4,-1157.5 624.3,-1157.5 624.3,4 -4,4"/>
<!-- BB0 -->
<g id="node1" class="node">
<title>BB0</title>
<ellipse fill="none" stroke="black" cx="288.65" cy="-1105.42" rx="104.8" ry="48.17"/>
<text text-anchor="middle" x="288.65" y="-1124.22" font-family="Times New Roman,serif" font-size="14.00">[0..98)</text>
<text text-anchor="middle" x="288.65" y="-1109.22" font-family="Times New Roman,serif" font-size="14.00">Count: 0</text>
<text text-anchor="middle" x="288.65" y="-1094.22" font-family="Times New Roman,serif" font-size="14.00">Normalized count: NaN</text>
<text text-anchor="middle" x="288.65" y="-1079.22" font-family="Times New Roman,serif" font-size="14.00">Samples weight: 0.00</text>
</g>
<!-- BB9 -->
<g id="node10" class="node">
<title>BB9</title>
<ellipse fill="none" stroke="black" cx="288.65" cy="-973.25" rx="104.8" ry="48.17"/>
<text text-anchor="middle" x="288.65" y="-992.05" font-family="Times New Roman,serif" font-size="14.00">[1a7..1ac)</text>
<text text-anchor="middle" x="288.65" y="-977.05" font-family="Times New Roman,serif" font-size="14.00">Count: 0</text>
<text text-anchor="middle" x="288.65" y="-962.05" font-family="Times New Roman,serif" font-size="14.00">Normalized count: NaN</text>
<text text-anchor="middle" x="288.65" y="-947.05" font-family="Times New Roman,serif" font-size="14.00">Samples weight: 0.00</text>
</g>
<!-- BB0&#45;&gt;BB9 -->
<g id="edge1" class="edge">
<title>BB0&#45;&gt;BB9</title>
<path fill="none" stroke="black" d="M288.65,-1057.05C288.65,-1048.79 288.65,-1040.1 288.65,-1031.6"/>
<polygon fill="black" stroke="black" points="292.15,-1031.36 288.65,-1021.36 285.15,-1031.36 292.15,-1031.36"/>
</g>
<!-- BB1 -->
<g id="node2" class="node">
<title>BB1</title>
<ellipse fill="none" stroke="black" cx="314.65" cy="-708.92" rx="104.8" ry="48.17"/>
<text text-anchor="middle" x="314.65" y="-727.72" font-family="Times New Roman,serif" font-size="14.00">[98..b8)</text>
<text text-anchor="middle" x="314.65" y="-712.72" font-family="Times New Roman,serif" font-size="14.00">Count: 0</text>
<text text-anchor="middle" x="314.65" y="-697.72" font-family="Times New Roman,serif" font-size="14.00">Normalized count: NaN</text>
<text text-anchor="middle" x="314.65" y="-682.72" font-family="Times New Roman,serif" font-size="14.00">Samples weight: 0.00</text>
</g>
<!-- BB7 -->
<g id="node8" class="node">
<title>BB7</title>
<ellipse fill="none" stroke="black" cx="327.65" cy="-576.75" rx="104.8" ry="48.17"/>
<text text-anchor="middle" x="327.65" y="-595.55" font-family="Times New Roman,serif" font-size="14.00">[171..17f)</text>
<text text-anchor="middle" x="327.65" y="-580.55" font-family="Times New Roman,serif" font-size="14.00">Count: 0</text>
<text text-anchor="middle" x="327.65" y="-565.55" font-family="Times New Roman,serif" font-size="14.00">Normalized count: NaN</text>
<text text-anchor="middle" x="327.65" y="-550.55" font-family="Times New Roman,serif" font-size="14.00">Samples weight: 0.00</text>
</g>
<!-- BB1&#45;&gt;BB7 -->
<g id="edge2" class="edge">
<title>BB1&#45;&gt;BB7</title>
<path fill="none" stroke="black" d="M319.38,-660.55C320.22,-652.2 321.09,-643.41 321.95,-634.82"/>
<polygon fill="black" stroke="black" points="325.44,-635.16 322.95,-624.86 318.47,-634.46 325.44,-635.16"/>
</g>
<!-- BB2 -->
<g id="node3" class="node">
<title>BB2</title>
<ellipse fill="none" stroke="black" cx="340.65" cy="-444.58" rx="113.69" ry="48.17"/>
<text text-anchor="middle" x="340.65" y="-463.38" font-family="Times New Roman,serif" font-size="14.00">[b8..d5)</text>
<text text-anchor="middle" x="340.65" y="-448.38" font-family="Times New Roman,serif" font-size="14.00">Count: 25</text>
<text text-anchor="middle" x="340.65" y="-433.38" font-family="Times New Roman,serif" font-size="14.00">Normalized count: Infinity</text>
<text text-anchor="middle" x="340.65" y="-418.38" font-family="Times New Roman,serif" font-size="14.00">Samples weight: 0.03</text>
</g>
<!-- BB3 -->
<g id="node4" class="node">
<title>BB3</title>
<ellipse fill="none" stroke="black" cx="331.65" cy="-312.42" rx="113.69" ry="48.17"/>
<text text-anchor="middle" x="331.65" y="-331.22" font-family="Times New Roman,serif" font-size="14.00">[d5..127)</text>
<text text-anchor="middle" x="331.65" y="-316.22" font-family="Times New Roman,serif" font-size="14.00">Count: 762</text>
<text text-anchor="middle" x="331.65" y="-301.22" font-family="Times New Roman,serif" font-size="14.00">Normalized count: Infinity</text>
<text text-anchor="middle" x="331.65" y="-286.22" font-family="Times New Roman,serif" font-size="14.00">Samples weight: 0.97</text>
</g>
<!-- BB2&#45;&gt;BB3 -->
<g id="edge3" class="edge">
<title>BB2&#45;&gt;BB3</title>
<path fill="none" stroke="black" d="M337.38,-396.22C336.81,-387.95 336.21,-379.27 335.62,-370.77"/>
<polygon fill="black" stroke="black" points="339.09,-370.26 334.91,-360.52 332.11,-370.74 339.09,-370.26"/>
</g>
<!-- BB3&#45;&gt;BB3 -->
<g id="edge4" class="edge">
<title>BB3&#45;&gt;BB3</title>
<path fill="none" stroke="black" d="M430.83,-336.02C449.95,-333.24 463.5,-325.37 463.5,-312.42 463.5,-301.89 454.55,-294.72 440.95,-290.91"/>
<polygon fill="black" stroke="black" points="441.34,-287.42 430.83,-288.81 439.91,-294.27 441.34,-287.42"/>
</g>
<!-- BB4 -->
<g id="node5" class="node">
<title>BB4</title>
<ellipse fill="none" stroke="black" cx="331.65" cy="-180.25" rx="104.8" ry="48.17"/>
<text text-anchor="middle" x="331.65" y="-199.05" font-family="Times New Roman,serif" font-size="14.00">[127..133)</text>
<text text-anchor="middle" x="331.65" y="-184.05" font-family="Times New Roman,serif" font-size="14.00">Count: 0</text>
<text text-anchor="middle" x="331.65" y="-169.05" font-family="Times New Roman,serif" font-size="14.00">Normalized count: NaN</text>
<text text-anchor="middle" x="331.65" y="-154.05" font-family="Times New Roman,serif" font-size="14.00">Samples weight: 0.00</text>
</g>
<!-- BB3&#45;&gt;BB4 -->
<g id="edge5" class="edge">
<title>BB3&#45;&gt;BB4</title>
<path fill="none" stroke="black" d="M331.65,-264.05C331.65,-255.79 331.65,-247.1 331.65,-238.6"/>
<polygon fill="black" stroke="black" points="335.15,-238.36 331.65,-228.36 328.15,-238.36 335.15,-238.36"/>
</g>
<!-- BB5 -->
<g id="node6" class="node">
<title>BB5</title>
<ellipse fill="none" stroke="black" cx="264.65" cy="-48.08" rx="104.8" ry="48.17"/>
<text text-anchor="middle" x="264.65" y="-66.88" font-family="Times New Roman,serif" font-size="14.00">[133..14d)</text>
<text text-anchor="middle" x="264.65" y="-51.88" font-family="Times New Roman,serif" font-size="14.00">Count: 0</text>
<text text-anchor="middle" x="264.65" y="-36.88" font-family="Times New Roman,serif" font-size="14.00">Normalized count: NaN</text>
<text text-anchor="middle" x="264.65" y="-21.88" font-family="Times New Roman,serif" font-size="14.00">Samples weight: 0.00</text>
</g>
<!-- BB4&#45;&gt;BB5 -->
<g id="edge7" class="edge">
<title>BB4&#45;&gt;BB5</title>
<path fill="none" stroke="black" d="M308.03,-133.36C303.13,-123.83 297.91,-113.7 292.86,-103.89"/>
<polygon fill="black" stroke="black" points="295.97,-102.29 288.29,-95 289.75,-105.49 295.97,-102.29"/>
</g>
<!-- BB6 -->
<g id="node7" class="node">
<title>BB6</title>
<ellipse fill="none" stroke="black" cx="491.65" cy="-48.08" rx="104.8" ry="48.17"/>
<text text-anchor="middle" x="491.65" y="-66.88" font-family="Times New Roman,serif" font-size="14.00">[14d..171)</text>
<text text-anchor="middle" x="491.65" y="-51.88" font-family="Times New Roman,serif" font-size="14.00">Count: 0</text>
<text text-anchor="middle" x="491.65" y="-36.88" font-family="Times New Roman,serif" font-size="14.00">Normalized count: NaN</text>
<text text-anchor="middle" x="491.65" y="-21.88" font-family="Times New Roman,serif" font-size="14.00">Samples weight: 0.00</text>
</g>
<!-- BB4&#45;&gt;BB6 -->
<g id="edge6" class="edge">
<title>BB4&#45;&gt;BB6</title>
<path fill="none" stroke="black" d="M382.28,-138.06C398.41,-124.94 416.38,-110.32 433.03,-96.77"/>
<polygon fill="black" stroke="black" points="435.53,-99.25 441.08,-90.22 431.12,-93.82 435.53,-99.25"/>
</g>
<!-- BB5&#45;&gt;BB6 -->
<g id="edge8" class="edge">
<title>BB5&#45;&gt;BB6</title>
<path fill="none" stroke="black" d="M369.73,-48.08C372.05,-48.08 374.37,-48.08 376.69,-48.08"/>
<polygon fill="black" stroke="black" points="376.87,-51.58 386.87,-48.08 376.87,-44.58 376.87,-51.58"/>
</g>
<!-- BB6&#45;&gt;BB7 -->
<g id="edge9" class="edge">
<title>BB6&#45;&gt;BB7</title>
<path fill="none" stroke="black" d="M501.94,-95.98C518.05,-181.75 540.08,-366.65 463.65,-492.67 451.9,-512.04 433.76,-527.52 414.51,-539.61"/>
<polygon fill="black" stroke="black" points="412.69,-536.62 405.91,-544.76 416.28,-542.63 412.69,-536.62"/>
</g>
<!-- BB7&#45;&gt;BB2 -->
<g id="edge10" class="edge">
<title>BB7&#45;&gt;BB2</title>
<path fill="none" stroke="black" d="M332.38,-528.39C333.22,-520.03 334.09,-511.25 334.95,-502.65"/>
<polygon fill="black" stroke="black" points="338.44,-502.99 335.95,-492.69 331.47,-502.29 338.44,-502.99"/>
</g>
<!-- BB8 -->
<g id="node9" class="node">
<title>BB8</title>
<ellipse fill="none" stroke="black" cx="104.65" cy="-444.58" rx="104.8" ry="48.17"/>
<text text-anchor="middle" x="104.65" y="-463.38" font-family="Times New Roman,serif" font-size="14.00">[17f..1a7)</text>
<text text-anchor="middle" x="104.65" y="-448.38" font-family="Times New Roman,serif" font-size="14.00">Count: 0</text>
<text text-anchor="middle" x="104.65" y="-433.38" font-family="Times New Roman,serif" font-size="14.00">Normalized count: NaN</text>
<text text-anchor="middle" x="104.65" y="-418.38" font-family="Times New Roman,serif" font-size="14.00">Samples weight: 0.00</text>
</g>
<!-- BB7&#45;&gt;BB8 -->
<g id="edge11" class="edge">
<title>BB7&#45;&gt;BB8</title>
<path fill="none" stroke="black" d="M263.75,-538.45C236.81,-522.72 205.3,-504.33 177.46,-488.08"/>
<polygon fill="black" stroke="black" points="178.96,-484.91 168.56,-482.89 175.44,-490.95 178.96,-484.91"/>
</g>
<!-- BB8&#45;&gt;BB9 -->
<g id="edge12" class="edge">
<title>BB8&#45;&gt;BB9</title>
<path fill="none" stroke="black" d="M100.84,-492.95C96.25,-578.69 97.18,-762.45 174.65,-889.17 184.3,-904.94 198.17,-918.64 212.94,-930.12"/>
<polygon fill="black" stroke="black" points="211.1,-933.11 221.22,-936.26 215.28,-927.49 211.1,-933.11"/>
</g>
<!-- BB10 -->
<g id="node11" class="node">
<title>BB10</title>
<ellipse fill="none" stroke="black" cx="288.65" cy="-841.08" rx="104.8" ry="48.17"/>
<text text-anchor="middle" x="288.65" y="-859.88" font-family="Times New Roman,serif" font-size="14.00">[1ac..1b7)</text>
<text text-anchor="middle" x="288.65" y="-844.88" font-family="Times New Roman,serif" font-size="14.00">Count: 0</text>
<text text-anchor="middle" x="288.65" y="-829.88" font-family="Times New Roman,serif" font-size="14.00">Normalized count: NaN</text>
<text text-anchor="middle" x="288.65" y="-814.88" font-family="Times New Roman,serif" font-size="14.00">Samples weight: 0.00</text>
</g>
<!-- BB9&#45;&gt;BB10 -->
<g id="edge14" class="edge">
<title>BB9&#45;&gt;BB10</title>
<path fill="none" stroke="black" d="M288.65,-924.89C288.65,-916.62 288.65,-907.94 288.65,-899.43"/>
<polygon fill="black" stroke="black" points="292.15,-899.19 288.65,-889.19 285.15,-899.19 292.15,-899.19"/>
</g>
<!-- BB11 -->
<g id="node12" class="node">
<title>BB11</title>
<ellipse fill="none" stroke="black" cx="515.65" cy="-841.08" rx="104.8" ry="48.17"/>
<text text-anchor="middle" x="515.65" y="-859.88" font-family="Times New Roman,serif" font-size="14.00">[1b7..1b8)</text>
<text text-anchor="middle" x="515.65" y="-844.88" font-family="Times New Roman,serif" font-size="14.00">Count: 0</text>
<text text-anchor="middle" x="515.65" y="-829.88" font-family="Times New Roman,serif" font-size="14.00">Normalized count: NaN</text>
<text text-anchor="middle" x="515.65" y="-814.88" font-family="Times New Roman,serif" font-size="14.00">Samples weight: 0.00</text>
</g>
<!-- BB9&#45;&gt;BB11 -->
<g id="edge13" class="edge">
<title>BB9&#45;&gt;BB11</title>
<path fill="none" stroke="black" d="M353.09,-935.3C380.89,-919.36 413.55,-900.63 442.27,-884.16"/>
<polygon fill="black" stroke="black" points="444.11,-887.14 451.05,-879.13 440.63,-881.07 444.11,-887.14"/>
</g>
<!-- BB10&#45;&gt;BB1 -->
<g id="edge15" class="edge">
<title>BB10&#45;&gt;BB1</title>
<path fill="none" stroke="black" d="M298.04,-793.09C299.75,-784.52 301.55,-775.49 303.31,-766.67"/>
<polygon fill="black" stroke="black" points="306.75,-767.33 305.28,-756.84 299.89,-765.96 306.75,-767.33"/>
</g>
<!-- BB10&#45;&gt;BB11 -->
<g id="edge16" class="edge">
<title>BB10&#45;&gt;BB11</title>
<path fill="none" stroke="black" d="M393.73,-841.08C396.05,-841.08 398.37,-841.08 400.69,-841.08"/>
<polygon fill="black" stroke="black" points="400.87,-844.58 410.87,-841.08 400.87,-837.58 400.87,-844.58"/>
</g>
</g>
</svg>
