<?xml version="1.0" encoding="UTF-8" standalone="no"?>
<!DOCTYPE svg PUBLIC "-//W3C//DTD SVG 1.1//EN"
 "http://www.w3.org/Graphics/SVG/1.1/DTD/svg11.dtd">
<!-- Generated by graphviz version 2.47.0 (20210316.0004)
 -->
<!-- Title: G Pages: 1 -->
<svg width="628pt" height="1029pt"
 viewBox="0.00 0.00 628.42 1029.33" xmlns="http://www.w3.org/2000/svg" xmlns:xlink="http://www.w3.org/1999/xlink">
<g id="graph0" class="graph" transform="scale(1 1) rotate(0) translate(4 1025.33)">
<title>G</title>
<polygon fill="white" stroke="transparent" points="-4,4 -4,-1025.33 624.42,-1025.33 624.42,4 -4,4"/>
<!-- BB0 -->
<g id="node1" class="node">
<title>BB0</title>
<ellipse fill="none" stroke="black" cx="280.24" cy="-973.25" rx="103.48" ry="48.17"/>
<text text-anchor="middle" x="280.24" y="-992.05" font-family="Times New Roman,serif" font-size="14.00">[0..6)</text>
<text text-anchor="middle" x="280.24" y="-977.05" font-family="Times New Roman,serif" font-size="14.00">Count: 2</text>
<text text-anchor="middle" x="280.24" y="-962.05" font-family="Times New Roman,serif" font-size="14.00">Normalized count: 1.00</text>
<text text-anchor="middle" x="280.24" y="-947.05" font-family="Times New Roman,serif" font-size="14.00">Samples weight: 0.00</text>
</g>
<!-- BB8 -->
<g id="node9" class="node">
<title>BB8</title>
<ellipse fill="none" stroke="black" cx="280.24" cy="-841.08" rx="103.48" ry="48.17"/>
<text text-anchor="middle" x="280.24" y="-859.88" font-family="Times New Roman,serif" font-size="14.00">[7d..82)</text>
<text text-anchor="middle" x="280.24" y="-844.88" font-family="Times New Roman,serif" font-size="14.00">Count: 3</text>
<text text-anchor="middle" x="280.24" y="-829.88" font-family="Times New Roman,serif" font-size="14.00">Normalized count: 1.50</text>
<text text-anchor="middle" x="280.24" y="-814.88" font-family="Times New Roman,serif" font-size="14.00">Samples weight: 0.00</text>
</g>
<!-- BB0&#45;&gt;BB8 -->
<g id="edge1" class="edge">
<title>BB0&#45;&gt;BB8</title>
<path fill="none" stroke="black" d="M280.24,-924.89C280.24,-916.62 280.24,-907.94 280.24,-899.43"/>
<polygon fill="black" stroke="black" points="283.74,-899.19 280.24,-889.19 276.74,-899.19 283.74,-899.19"/>
</g>
<!-- BB1 -->
<g id="node2" class="node">
<title>BB1</title>
<ellipse fill="none" stroke="black" cx="282.24" cy="-576.75" rx="103.48" ry="48.17"/>
<text text-anchor="middle" x="282.24" y="-595.55" font-family="Times New Roman,serif" font-size="14.00">[6..c)</text>
<text text-anchor="middle" x="282.24" y="-580.55" font-family="Times New Roman,serif" font-size="14.00">Count: 1</text>
<text text-anchor="middle" x="282.24" y="-565.55" font-family="Times New Roman,serif" font-size="14.00">Normalized count: 0.50</text>
<text text-anchor="middle" x="282.24" y="-550.55" font-family="Times New Roman,serif" font-size="14.00">Samples weight: 0.00</text>
</g>
<!-- BB6 -->
<g id="node7" class="node">
<title>BB6</title>
<ellipse fill="none" stroke="black" cx="308.24" cy="-444.58" rx="108.38" ry="48.17"/>
<text text-anchor="middle" x="308.24" y="-463.38" font-family="Times New Roman,serif" font-size="14.00">[70..74)</text>
<text text-anchor="middle" x="308.24" y="-448.38" font-family="Times New Roman,serif" font-size="14.00">Count: 136</text>
<text text-anchor="middle" x="308.24" y="-433.38" font-family="Times New Roman,serif" font-size="14.00">Normalized count: 68.00</text>
<text text-anchor="middle" x="308.24" y="-418.38" font-family="Times New Roman,serif" font-size="14.00">Samples weight: 0.00</text>
</g>
<!-- BB1&#45;&gt;BB6 -->
<g id="edge2" class="edge">
<title>BB1&#45;&gt;BB6</title>
<path fill="none" stroke="black" d="M291.62,-528.76C293.34,-520.18 295.14,-511.16 296.9,-502.34"/>
<polygon fill="black" stroke="black" points="300.34,-503 298.86,-492.51 293.47,-501.63 300.34,-503"/>
</g>
<!-- BB2 -->
<g id="node3" class="node">
<title>BB2</title>
<ellipse fill="none" stroke="black" cx="332.24" cy="-312.42" rx="108.38" ry="48.17"/>
<text text-anchor="middle" x="332.24" y="-331.22" font-family="Times New Roman,serif" font-size="14.00">[c..23)</text>
<text text-anchor="middle" x="332.24" y="-316.22" font-family="Times New Roman,serif" font-size="14.00">Count: 135</text>
<text text-anchor="middle" x="332.24" y="-301.22" font-family="Times New Roman,serif" font-size="14.00">Normalized count: 67.50</text>
<text text-anchor="middle" x="332.24" y="-286.22" font-family="Times New Roman,serif" font-size="14.00">Samples weight: 0.00</text>
</g>
<!-- BB3 -->
<g id="node4" class="node">
<title>BB3</title>
<ellipse fill="none" stroke="black" cx="312.24" cy="-180.25" rx="122.16" ry="48.17"/>
<text text-anchor="middle" x="312.24" y="-199.05" font-family="Times New Roman,serif" font-size="14.00">[23..4f)</text>
<text text-anchor="middle" x="312.24" y="-184.05" font-family="Times New Roman,serif" font-size="14.00">Count: 130462</text>
<text text-anchor="middle" x="312.24" y="-169.05" font-family="Times New Roman,serif" font-size="14.00">Normalized count: 65231.00</text>
<text text-anchor="middle" x="312.24" y="-154.05" font-family="Times New Roman,serif" font-size="14.00">Samples weight: 0.50</text>
</g>
<!-- BB2&#45;&gt;BB3 -->
<g id="edge3" class="edge">
<title>BB2&#45;&gt;BB3</title>
<path fill="none" stroke="black" d="M325.02,-264.42C323.73,-256.05 322.38,-247.24 321.05,-238.62"/>
<polygon fill="black" stroke="black" points="324.49,-237.96 319.51,-228.61 317.57,-239.03 324.49,-237.96"/>
</g>
<!-- BB4 -->
<g id="node5" class="node">
<title>BB4</title>
<ellipse fill="none" stroke="black" cx="263.24" cy="-48.08" rx="122.16" ry="48.17"/>
<text text-anchor="middle" x="263.24" y="-66.88" font-family="Times New Roman,serif" font-size="14.00">[4f..58)</text>
<text text-anchor="middle" x="263.24" y="-51.88" font-family="Times New Roman,serif" font-size="14.00">Count: 130327</text>
<text text-anchor="middle" x="263.24" y="-36.88" font-family="Times New Roman,serif" font-size="14.00">Normalized count: 65163.50</text>
<text text-anchor="middle" x="263.24" y="-21.88" font-family="Times New Roman,serif" font-size="14.00">Samples weight: 0.50</text>
</g>
<!-- BB3&#45;&gt;BB4 -->
<g id="edge5" class="edge">
<title>BB3&#45;&gt;BB4</title>
<path fill="none" stroke="black" d="M288.33,-132.99C284.73,-124.1 281.12,-114.69 277.78,-105.52"/>
<polygon fill="black" stroke="black" points="281.07,-104.31 274.41,-96.07 274.48,-106.67 281.07,-104.31"/>
</g>
<!-- BB5 -->
<g id="node6" class="node">
<title>BB5</title>
<ellipse fill="none" stroke="black" cx="512.24" cy="-48.08" rx="108.38" ry="48.17"/>
<text text-anchor="middle" x="512.24" y="-66.88" font-family="Times New Roman,serif" font-size="14.00">[58..70)</text>
<text text-anchor="middle" x="512.24" y="-51.88" font-family="Times New Roman,serif" font-size="14.00">Count: 135</text>
<text text-anchor="middle" x="512.24" y="-36.88" font-family="Times New Roman,serif" font-size="14.00">Normalized count: 67.50</text>
<text text-anchor="middle" x="512.24" y="-21.88" font-family="Times New Roman,serif" font-size="14.00">Samples weight: 0.00</text>
</g>
<!-- BB3&#45;&gt;BB5 -->
<g id="edge4" class="edge">
<title>BB3&#45;&gt;BB5</title>
<path fill="none" stroke="black" d="M374.42,-138.78C396.39,-124.48 421.2,-108.33 443.66,-93.71"/>
<polygon fill="black" stroke="black" points="445.67,-96.58 452.15,-88.19 441.86,-90.71 445.67,-96.58"/>
</g>
<!-- BB4&#45;&gt;BB3 -->
<g id="edge6" class="edge">
<title>BB4&#45;&gt;BB3</title>
<path fill="none" stroke="black" d="M287.24,-95.57C290.77,-104.32 294.32,-113.56 297.61,-122.59"/>
<polygon fill="black" stroke="black" points="294.4,-124.02 301.06,-132.26 300.99,-121.66 294.4,-124.02"/>
</g>
<!-- BB4&#45;&gt;BB5 -->
<g id="edge7" class="edge">
<title>BB4&#45;&gt;BB5</title>
<path fill="none" stroke="black" d="M385.79,-48.08C388.39,-48.08 390.98,-48.08 393.57,-48.08"/>
<polygon fill="black" stroke="black" points="393.57,-51.58 403.57,-48.08 393.57,-44.58 393.57,-51.58"/>
</g>
<!-- BB5&#45;&gt;BB6 -->
<g id="edge8" class="edge">
<title>BB5&#45;&gt;BB6</title>
<path fill="none" stroke="black" d="M514.12,-96.2C514.39,-161.55 506.12,-280.64 449.24,-360.5 435.81,-379.35 416.66,-394.61 396.78,-406.67"/>
<polygon fill="black" stroke="black" points="394.81,-403.76 387.92,-411.81 398.32,-409.81 394.81,-403.76"/>
</g>
<!-- BB6&#45;&gt;BB2 -->
<g id="edge9" class="edge">
<title>BB6&#45;&gt;BB2</title>
<path fill="none" stroke="black" d="M316.9,-396.59C318.45,-388.22 320.07,-379.41 321.66,-370.78"/>
<polygon fill="black" stroke="black" points="325.13,-371.25 323.51,-360.78 318.25,-369.98 325.13,-371.25"/>
</g>
<!-- BB7 -->
<g id="node8" class="node">
<title>BB7</title>
<ellipse fill="none" stroke="black" cx="103.24" cy="-312.42" rx="103.48" ry="48.17"/>
<text text-anchor="middle" x="103.24" y="-331.22" font-family="Times New Roman,serif" font-size="14.00">[74..7d)</text>
<text text-anchor="middle" x="103.24" y="-316.22" font-family="Times New Roman,serif" font-size="14.00">Count: 1</text>
<text text-anchor="middle" x="103.24" y="-301.22" font-family="Times New Roman,serif" font-size="14.00">Normalized count: 0.50</text>
<text text-anchor="middle" x="103.24" y="-286.22" font-family="Times New Roman,serif" font-size="14.00">Samples weight: 0.00</text>
</g>
<!-- BB6&#45;&gt;BB7 -->
<g id="edge10" class="edge">
<title>BB6&#45;&gt;BB7</title>
<path fill="none" stroke="black" d="M247.01,-404.7C223.37,-389.69 196.21,-372.45 171.91,-357.02"/>
<polygon fill="black" stroke="black" points="173.76,-354.05 163.45,-351.65 170.01,-359.96 173.76,-354.05"/>
</g>
<!-- BB7&#45;&gt;BB8 -->
<g id="edge11" class="edge">
<title>BB7&#45;&gt;BB8</title>
<path fill="none" stroke="black" d="M98.88,-360.68C93.3,-446.25 92.13,-629.75 168.24,-757 177.62,-772.69 191.22,-786.35 205.72,-797.82"/>
<polygon fill="black" stroke="black" points="203.76,-800.73 213.85,-803.96 207.98,-795.14 203.76,-800.73"/>
</g>
<!-- BB9 -->
<g id="node10" class="node">
<title>BB9</title>
<ellipse fill="none" stroke="black" cx="280.24" cy="-708.92" rx="103.48" ry="48.17"/>
<text text-anchor="middle" x="280.24" y="-727.72" font-family="Times New Roman,serif" font-size="14.00">[82..8d)</text>
<text text-anchor="middle" x="280.24" y="-712.72" font-family="Times New Roman,serif" font-size="14.00">Count: 1</text>
<text text-anchor="middle" x="280.24" y="-697.72" font-family="Times New Roman,serif" font-size="14.00">Normalized count: 0.50</text>
<text text-anchor="middle" x="280.24" y="-682.72" font-family="Times New Roman,serif" font-size="14.00">Samples weight: 0.00</text>
</g>
<!-- BB8&#45;&gt;BB9 -->
<g id="edge13" class="edge">
<title>BB8&#45;&gt;BB9</title>
<path fill="none" stroke="black" d="M280.24,-792.72C280.24,-784.45 280.24,-775.77 280.24,-767.27"/>
<polygon fill="black" stroke="black" points="283.74,-767.02 280.24,-757.02 276.74,-767.02 283.74,-767.02"/>
</g>
<!-- BB10 -->
<g id="node11" class="node">
<title>BB10</title>
<ellipse fill="none" stroke="black" cx="504.24" cy="-708.92" rx="103.48" ry="48.17"/>
<text text-anchor="middle" x="504.24" y="-727.72" font-family="Times New Roman,serif" font-size="14.00">[8d..8e)</text>
<text text-anchor="middle" x="504.24" y="-712.72" font-family="Times New Roman,serif" font-size="14.00">Count: 2</text>
<text text-anchor="middle" x="504.24" y="-697.72" font-family="Times New Roman,serif" font-size="14.00">Normalized count: 1.00</text>
<text text-anchor="middle" x="504.24" y="-682.72" font-family="Times New Roman,serif" font-size="14.00">Samples weight: 0.00</text>
</g>
<!-- BB8&#45;&gt;BB10 -->
<g id="edge12" class="edge">
<title>BB8&#45;&gt;BB10</title>
<path fill="none" stroke="black" d="M343.83,-803.13C371.26,-787.19 403.48,-768.46 431.83,-751.99"/>
<polygon fill="black" stroke="black" points="433.6,-755.01 440.49,-746.96 430.08,-748.96 433.6,-755.01"/>
</g>
<!-- BB9&#45;&gt;BB1 -->
<g id="edge14" class="edge">
<title>BB9&#45;&gt;BB1</title>
<path fill="none" stroke="black" d="M280.97,-660.55C281.09,-652.29 281.23,-643.6 281.36,-635.1"/>
<polygon fill="black" stroke="black" points="284.86,-634.91 281.51,-624.86 277.86,-634.8 284.86,-634.91"/>
</g>
<!-- BB9&#45;&gt;BB10 -->
<g id="edge15" class="edge">
<title>BB9&#45;&gt;BB10</title>
<path fill="none" stroke="black" d="M383.49,-708.92C385.94,-708.92 388.4,-708.92 390.85,-708.92"/>
<polygon fill="black" stroke="black" points="390.94,-712.42 400.94,-708.92 390.94,-705.42 390.94,-712.42"/>
</g>
</g>
</svg>
