<?xml version="1.0" encoding="UTF-8" standalone="no"?>
<!DOCTYPE svg PUBLIC "-//W3C//DTD SVG 1.1//EN"
 "http://www.w3.org/Graphics/SVG/1.1/DTD/svg11.dtd">
<!-- Generated by graphviz version 2.47.0 (20210316.0004)
 -->
<!-- Title: G Pages: 1 -->
<svg width="656pt" height="860pt"
 viewBox="0.00 0.00 655.74 859.63" xmlns="http://www.w3.org/2000/svg" xmlns:xlink="http://www.w3.org/1999/xlink">
<g id="graph0" class="graph" transform="scale(1 1) rotate(0) translate(4 855.63)">
<title>G</title>
<polygon fill="white" stroke="transparent" points="-4,4 -4,-855.63 651.74,-855.63 651.74,4 -4,4"/>
<!-- BB0 -->
<g id="node1" class="node">
<title>BB0</title>
<ellipse fill="none" stroke="black" cx="289.77" cy="-814.15" rx="106.55" ry="37.45"/>
<text text-anchor="middle" x="289.77" y="-825.45" font-family="Times New Roman,serif" font-size="14.00">[0..1a)</text>
<text text-anchor="middle" x="289.77" y="-810.45" font-family="Times New Roman,serif" font-size="14.00">Normalized Count: NaN</text>
<text text-anchor="middle" x="289.77" y="-795.45" font-family="Times New Roman,serif" font-size="14.00">Samples weight: 0.00</text>
</g>
<!-- BB8 -->
<g id="node9" class="node">
<title>BB8</title>
<ellipse fill="none" stroke="black" cx="289.77" cy="-703.2" rx="106.55" ry="37.45"/>
<text text-anchor="middle" x="289.77" y="-714.5" font-family="Times New Roman,serif" font-size="14.00">[bd..c2)</text>
<text text-anchor="middle" x="289.77" y="-699.5" font-family="Times New Roman,serif" font-size="14.00">Normalized Count: NaN</text>
<text text-anchor="middle" x="289.77" y="-684.5" font-family="Times New Roman,serif" font-size="14.00">Samples weight: 0.00</text>
</g>
<!-- BB0&#45;&gt;BB8 -->
<g id="edge1" class="edge">
<title>BB0&#45;&gt;BB8</title>
<path fill="none" stroke="black" d="M289.77,-776.57C289.77,-768.39 289.77,-759.61 289.77,-751.09"/>
<polygon fill="black" stroke="black" points="293.27,-750.87 289.77,-740.87 286.27,-750.87 293.27,-750.87"/>
</g>
<!-- BB1 -->
<g id="node2" class="node">
<title>BB1</title>
<ellipse fill="none" stroke="black" cx="293.77" cy="-481.29" rx="106.55" ry="37.45"/>
<text text-anchor="middle" x="293.77" y="-492.59" font-family="Times New Roman,serif" font-size="14.00">[1a..25)</text>
<text text-anchor="middle" x="293.77" y="-477.59" font-family="Times New Roman,serif" font-size="14.00">Normalized Count: NaN</text>
<text text-anchor="middle" x="293.77" y="-462.59" font-family="Times New Roman,serif" font-size="14.00">Samples weight: 0.00</text>
</g>
<!-- BB6 -->
<g id="node7" class="node">
<title>BB6</title>
<ellipse fill="none" stroke="black" cx="322.77" cy="-370.34" rx="115.93" ry="37.45"/>
<text text-anchor="middle" x="322.77" y="-381.64" font-family="Times New Roman,serif" font-size="14.00">[a9..b1)</text>
<text text-anchor="middle" x="322.77" y="-366.64" font-family="Times New Roman,serif" font-size="14.00">Normalized Count: Infinity</text>
<text text-anchor="middle" x="322.77" y="-351.64" font-family="Times New Roman,serif" font-size="14.00">Samples weight: 0.00</text>
</g>
<!-- BB1&#45;&gt;BB6 -->
<g id="edge2" class="edge">
<title>BB1&#45;&gt;BB6</title>
<path fill="none" stroke="black" d="M303.51,-443.71C305.71,-435.44 308.07,-426.56 310.37,-417.95"/>
<polygon fill="black" stroke="black" points="313.82,-418.57 313.01,-408.01 307.06,-416.77 313.82,-418.57"/>
</g>
<!-- BB2 -->
<g id="node3" class="node">
<title>BB2</title>
<ellipse fill="none" stroke="black" cx="347.77" cy="-259.38" rx="115.93" ry="37.45"/>
<text text-anchor="middle" x="347.77" y="-270.68" font-family="Times New Roman,serif" font-size="14.00">[25..3b)</text>
<text text-anchor="middle" x="347.77" y="-255.68" font-family="Times New Roman,serif" font-size="14.00">Normalized Count: Infinity</text>
<text text-anchor="middle" x="347.77" y="-240.68" font-family="Times New Roman,serif" font-size="14.00">Samples weight: 0.00</text>
</g>
<!-- BB3 -->
<g id="node4" class="node">
<title>BB3</title>
<ellipse fill="none" stroke="black" cx="334.77" cy="-148.43" rx="115.93" ry="37.45"/>
<text text-anchor="middle" x="334.77" y="-159.73" font-family="Times New Roman,serif" font-size="14.00">[3b..83)</text>
<text text-anchor="middle" x="334.77" y="-144.73" font-family="Times New Roman,serif" font-size="14.00">Normalized Count: Infinity</text>
<text text-anchor="middle" x="334.77" y="-129.73" font-family="Times New Roman,serif" font-size="14.00">Samples weight: 1.00</text>
</g>
<!-- BB2&#45;&gt;BB3 -->
<g id="edge3" class="edge">
<title>BB2&#45;&gt;BB3</title>
<path fill="none" stroke="black" d="M343.41,-221.8C342.42,-213.54 341.36,-204.65 340.33,-196.04"/>
<polygon fill="black" stroke="black" points="343.81,-195.62 339.15,-186.1 336.86,-196.45 343.81,-195.62"/>
</g>
<!-- BB4 -->
<g id="node5" class="node">
<title>BB4</title>
<ellipse fill="none" stroke="black" cx="281.77" cy="-37.48" rx="115.93" ry="37.45"/>
<text text-anchor="middle" x="281.77" y="-48.78" font-family="Times New Roman,serif" font-size="14.00">[83..8c)</text>
<text text-anchor="middle" x="281.77" y="-33.78" font-family="Times New Roman,serif" font-size="14.00">Normalized Count: Infinity</text>
<text text-anchor="middle" x="281.77" y="-18.78" font-family="Times New Roman,serif" font-size="14.00">Samples weight: 0.00</text>
</g>
<!-- BB3&#45;&gt;BB4 -->
<g id="edge5" class="edge">
<title>BB3&#45;&gt;BB4</title>
<path fill="none" stroke="black" d="M310.88,-111.45C306.28,-102.71 301.58,-93.25 297.31,-84.13"/>
<polygon fill="black" stroke="black" points="300.38,-82.42 293.03,-74.79 294.01,-85.34 300.38,-82.42"/>
</g>
<!-- BB5 -->
<g id="node6" class="node">
<title>BB5</title>
<ellipse fill="none" stroke="black" cx="531.77" cy="-37.48" rx="115.93" ry="37.45"/>
<text text-anchor="middle" x="531.77" y="-48.78" font-family="Times New Roman,serif" font-size="14.00">[8c..a9)</text>
<text text-anchor="middle" x="531.77" y="-33.78" font-family="Times New Roman,serif" font-size="14.00">Normalized Count: Infinity</text>
<text text-anchor="middle" x="531.77" y="-18.78" font-family="Times New Roman,serif" font-size="14.00">Samples weight: 0.00</text>
</g>
<!-- BB3&#45;&gt;BB5 -->
<g id="edge4" class="edge">
<title>BB3&#45;&gt;BB5</title>
<path fill="none" stroke="black" d="M392.02,-115.77C414.99,-103.07 441.61,-88.35 465.41,-75.18"/>
<polygon fill="black" stroke="black" points="467.33,-78.12 474.39,-70.22 463.94,-71.99 467.33,-78.12"/>
</g>
<!-- BB4&#45;&gt;BB3 -->
<g id="edge6" class="edge">
<title>BB4&#45;&gt;BB3</title>
<path fill="none" stroke="black" d="M305.64,-74.41C310.22,-83.09 314.88,-92.49 319.13,-101.56"/>
<polygon fill="black" stroke="black" points="316.04,-103.22 323.39,-110.85 322.41,-100.3 316.04,-103.22"/>
</g>
<!-- BB4&#45;&gt;BB5 -->
<g id="edge7" class="edge">
<title>BB4&#45;&gt;BB5</title>
<path fill="none" stroke="black" d="M397.98,-37.48C400.48,-37.48 402.98,-37.48 405.48,-37.48"/>
<polygon fill="black" stroke="black" points="405.75,-40.98 415.75,-37.48 405.75,-33.98 405.75,-40.98"/>
</g>
<!-- BB5&#45;&gt;BB6 -->
<g id="edge8" class="edge">
<title>BB5&#45;&gt;BB6</title>
<path fill="none" stroke="black" d="M532.91,-75.24C532.67,-129.53 524.66,-231.72 472.77,-296.86 458.03,-315.37 437.39,-329.45 416.13,-340.04"/>
<polygon fill="black" stroke="black" points="414.53,-336.93 407,-344.37 417.53,-343.25 414.53,-336.93"/>
</g>
<!-- BB6&#45;&gt;BB2 -->
<g id="edge9" class="edge">
<title>BB6&#45;&gt;BB2</title>
<path fill="none" stroke="black" d="M331.17,-332.75C333.06,-324.49 335.1,-315.61 337.08,-306.99"/>
<polygon fill="black" stroke="black" points="340.53,-307.58 339.36,-297.06 333.71,-306.02 340.53,-307.58"/>
</g>
<!-- BB7 -->
<g id="node8" class="node">
<title>BB7</title>
<ellipse fill="none" stroke="black" cx="106.77" cy="-259.38" rx="106.55" ry="37.45"/>
<text text-anchor="middle" x="106.77" y="-270.68" font-family="Times New Roman,serif" font-size="14.00">[b1..bd)</text>
<text text-anchor="middle" x="106.77" y="-255.68" font-family="Times New Roman,serif" font-size="14.00">Normalized Count: NaN</text>
<text text-anchor="middle" x="106.77" y="-240.68" font-family="Times New Roman,serif" font-size="14.00">Samples weight: 0.00</text>
</g>
<!-- BB6&#45;&gt;BB7 -->
<g id="edge10" class="edge">
<title>BB6&#45;&gt;BB7</title>
<path fill="none" stroke="black" d="M261.45,-338.41C234.78,-324.95 203.41,-309.13 175.92,-295.26"/>
<polygon fill="black" stroke="black" points="177.26,-292.02 166.75,-290.64 174.11,-298.27 177.26,-292.02"/>
</g>
<!-- BB7&#45;&gt;BB8 -->
<g id="edge11" class="edge">
<title>BB7&#45;&gt;BB8</title>
<path fill="none" stroke="black" d="M104.15,-297.01C100.94,-367.75 103,-525.35 173.77,-629.72 184.23,-645.14 199.18,-657.92 214.88,-668.22"/>
<polygon fill="black" stroke="black" points="213.31,-671.37 223.65,-673.7 217.02,-665.43 213.31,-671.37"/>
</g>
<!-- BB9 -->
<g id="node10" class="node">
<title>BB9</title>
<ellipse fill="none" stroke="black" cx="289.77" cy="-592.24" rx="106.55" ry="37.45"/>
<text text-anchor="middle" x="289.77" y="-603.54" font-family="Times New Roman,serif" font-size="14.00">[c2..cd)</text>
<text text-anchor="middle" x="289.77" y="-588.54" font-family="Times New Roman,serif" font-size="14.00">Normalized Count: NaN</text>
<text text-anchor="middle" x="289.77" y="-573.54" font-family="Times New Roman,serif" font-size="14.00">Samples weight: 0.00</text>
</g>
<!-- BB8&#45;&gt;BB9 -->
<g id="edge13" class="edge">
<title>BB8&#45;&gt;BB9</title>
<path fill="none" stroke="black" d="M289.77,-665.61C289.77,-657.44 289.77,-648.66 289.77,-640.13"/>
<polygon fill="black" stroke="black" points="293.27,-639.92 289.77,-629.92 286.27,-639.92 293.27,-639.92"/>
</g>
<!-- BB10 -->
<g id="node11" class="node">
<title>BB10</title>
<ellipse fill="none" stroke="black" cx="521.77" cy="-592.24" rx="106.55" ry="37.45"/>
<text text-anchor="middle" x="521.77" y="-603.54" font-family="Times New Roman,serif" font-size="14.00">[cd..ce)</text>
<text text-anchor="middle" x="521.77" y="-588.54" font-family="Times New Roman,serif" font-size="14.00">Normalized Count: NaN</text>
<text text-anchor="middle" x="521.77" y="-573.54" font-family="Times New Roman,serif" font-size="14.00">Samples weight: 0.00</text>
</g>
<!-- BB8&#45;&gt;BB10 -->
<g id="edge12" class="edge">
<title>BB8&#45;&gt;BB10</title>
<path fill="none" stroke="black" d="M352.56,-672.71C382.6,-658.6 418.73,-641.64 449.87,-627.01"/>
<polygon fill="black" stroke="black" points="451.38,-630.17 458.94,-622.75 448.4,-623.83 451.38,-630.17"/>
</g>
<!-- BB9&#45;&gt;BB1 -->
<g id="edge14" class="edge">
<title>BB9&#45;&gt;BB1</title>
<path fill="none" stroke="black" d="M291.12,-554.66C291.42,-546.49 291.74,-537.71 292.05,-529.18"/>
<polygon fill="black" stroke="black" points="295.56,-529.08 292.43,-518.96 288.56,-528.83 295.56,-529.08"/>
</g>
<!-- BB9&#45;&gt;BB10 -->
<g id="edge15" class="edge">
<title>BB9&#45;&gt;BB10</title>
<path fill="none" stroke="black" d="M396.71,-592.24C399.35,-592.24 401.98,-592.24 404.62,-592.24"/>
<polygon fill="black" stroke="black" points="404.79,-595.74 414.79,-592.24 404.79,-588.74 404.79,-595.74"/>
</g>
</g>
</svg>
