<?xml version="1.0" encoding="UTF-8" standalone="no"?>
<!DOCTYPE svg PUBLIC "-//W3C//DTD SVG 1.1//EN"
 "http://www.w3.org/Graphics/SVG/1.1/DTD/svg11.dtd">
<!-- Generated by graphviz version 2.47.0 (20210316.0004)
 -->
<!-- Title: G Pages: 1 -->
<svg width="613pt" height="1161pt"
 viewBox="0.00 0.00 613.48 1161.50" xmlns="http://www.w3.org/2000/svg" xmlns:xlink="http://www.w3.org/1999/xlink">
<g id="graph0" class="graph" transform="scale(1 1) rotate(0) translate(4 1157.5)">
<title>G</title>
<polygon fill="white" stroke="transparent" points="-4,4 -4,-1157.5 609.48,-1157.5 609.48,4 -4,4"/>
<!-- BB0 -->
<g id="node1" class="node">
<title>BB0</title>
<ellipse fill="none" stroke="black" cx="278.24" cy="-1105.42" rx="103.48" ry="48.17"/>
<text text-anchor="middle" x="278.24" y="-1124.22" font-family="Times New Roman,serif" font-size="14.00">[0..87)</text>
<text text-anchor="middle" x="278.24" y="-1109.22" font-family="Times New Roman,serif" font-size="14.00">Count: 2</text>
<text text-anchor="middle" x="278.24" y="-1094.22" font-family="Times New Roman,serif" font-size="14.00">Normalized count: 1.00</text>
<text text-anchor="middle" x="278.24" y="-1079.22" font-family="Times New Roman,serif" font-size="14.00">Samples weight: 0.00</text>
</g>
<!-- BB9 -->
<g id="node10" class="node">
<title>BB9</title>
<ellipse fill="none" stroke="black" cx="278.24" cy="-973.25" rx="103.48" ry="48.17"/>
<text text-anchor="middle" x="278.24" y="-992.05" font-family="Times New Roman,serif" font-size="14.00">[193..199)</text>
<text text-anchor="middle" x="278.24" y="-977.05" font-family="Times New Roman,serif" font-size="14.00">Count: 3</text>
<text text-anchor="middle" x="278.24" y="-962.05" font-family="Times New Roman,serif" font-size="14.00">Normalized count: 1.50</text>
<text text-anchor="middle" x="278.24" y="-947.05" font-family="Times New Roman,serif" font-size="14.00">Samples weight: 0.00</text>
</g>
<!-- BB0&#45;&gt;BB9 -->
<g id="edge1" class="edge">
<title>BB0&#45;&gt;BB9</title>
<path fill="none" stroke="black" d="M278.24,-1057.05C278.24,-1048.79 278.24,-1040.1 278.24,-1031.6"/>
<polygon fill="black" stroke="black" points="281.74,-1031.36 278.24,-1021.36 274.74,-1031.36 281.74,-1031.36"/>
</g>
<!-- BB1 -->
<g id="node2" class="node">
<title>BB1</title>
<ellipse fill="none" stroke="black" cx="291.24" cy="-708.92" rx="103.48" ry="48.17"/>
<text text-anchor="middle" x="291.24" y="-727.72" font-family="Times New Roman,serif" font-size="14.00">[87..a7)</text>
<text text-anchor="middle" x="291.24" y="-712.72" font-family="Times New Roman,serif" font-size="14.00">Count: 1</text>
<text text-anchor="middle" x="291.24" y="-697.72" font-family="Times New Roman,serif" font-size="14.00">Normalized count: 0.50</text>
<text text-anchor="middle" x="291.24" y="-682.72" font-family="Times New Roman,serif" font-size="14.00">Samples weight: 0.00</text>
</g>
<!-- BB7 -->
<g id="node8" class="node">
<title>BB7</title>
<ellipse fill="none" stroke="black" cx="305.24" cy="-576.75" rx="108.38" ry="48.17"/>
<text text-anchor="middle" x="305.24" y="-595.55" font-family="Times New Roman,serif" font-size="14.00">[15e..16c)</text>
<text text-anchor="middle" x="305.24" y="-580.55" font-family="Times New Roman,serif" font-size="14.00">Count: 20</text>
<text text-anchor="middle" x="305.24" y="-565.55" font-family="Times New Roman,serif" font-size="14.00">Normalized count: 10.00</text>
<text text-anchor="middle" x="305.24" y="-550.55" font-family="Times New Roman,serif" font-size="14.00">Samples weight: 0.00</text>
</g>
<!-- BB1&#45;&gt;BB7 -->
<g id="edge2" class="edge">
<title>BB1&#45;&gt;BB7</title>
<path fill="none" stroke="black" d="M296.33,-660.55C297.23,-652.2 298.18,-643.41 299.1,-634.82"/>
<polygon fill="black" stroke="black" points="302.58,-635.17 300.17,-624.86 295.62,-634.43 302.58,-635.17"/>
</g>
<!-- BB2 -->
<g id="node3" class="node">
<title>BB2</title>
<ellipse fill="none" stroke="black" cx="327.24" cy="-444.58" rx="103.48" ry="48.17"/>
<text text-anchor="middle" x="327.24" y="-463.38" font-family="Times New Roman,serif" font-size="14.00">[a7..c4)</text>
<text text-anchor="middle" x="327.24" y="-448.38" font-family="Times New Roman,serif" font-size="14.00">Count: 19</text>
<text text-anchor="middle" x="327.24" y="-433.38" font-family="Times New Roman,serif" font-size="14.00">Normalized count: 9.50</text>
<text text-anchor="middle" x="327.24" y="-418.38" font-family="Times New Roman,serif" font-size="14.00">Samples weight: 0.00</text>
</g>
<!-- BB3 -->
<g id="node4" class="node">
<title>BB3</title>
<ellipse fill="none" stroke="black" cx="310.24" cy="-312.42" rx="118.17" ry="48.17"/>
<text text-anchor="middle" x="310.24" y="-331.22" font-family="Times New Roman,serif" font-size="14.00">[c4..114)</text>
<text text-anchor="middle" x="310.24" y="-316.22" font-family="Times New Roman,serif" font-size="14.00">Count: 19946</text>
<text text-anchor="middle" x="310.24" y="-301.22" font-family="Times New Roman,serif" font-size="14.00">Normalized count: 9973.00</text>
<text text-anchor="middle" x="310.24" y="-286.22" font-family="Times New Roman,serif" font-size="14.00">Samples weight: 1.00</text>
</g>
<!-- BB2&#45;&gt;BB3 -->
<g id="edge3" class="edge">
<title>BB2&#45;&gt;BB3</title>
<path fill="none" stroke="black" d="M321.05,-396.22C319.96,-387.86 318.81,-379.08 317.69,-370.49"/>
<polygon fill="black" stroke="black" points="321.16,-369.99 316.39,-360.52 314.21,-370.89 321.16,-369.99"/>
</g>
<!-- BB3&#45;&gt;BB3 -->
<g id="edge4" class="edge">
<title>BB3&#45;&gt;BB3</title>
<path fill="none" stroke="black" d="M413.49,-335.9C432.76,-333 446.32,-325.18 446.32,-312.42 446.32,-302.05 437.37,-294.94 423.68,-291.08"/>
<polygon fill="black" stroke="black" points="424,-287.57 413.49,-288.94 422.55,-294.42 424,-287.57"/>
</g>
<!-- BB4 -->
<g id="node5" class="node">
<title>BB4</title>
<ellipse fill="none" stroke="black" cx="310.24" cy="-180.25" rx="103.48" ry="48.17"/>
<text text-anchor="middle" x="310.24" y="-199.05" font-family="Times New Roman,serif" font-size="14.00">[114..120)</text>
<text text-anchor="middle" x="310.24" y="-184.05" font-family="Times New Roman,serif" font-size="14.00">Count: 19</text>
<text text-anchor="middle" x="310.24" y="-169.05" font-family="Times New Roman,serif" font-size="14.00">Normalized count: 9.50</text>
<text text-anchor="middle" x="310.24" y="-154.05" font-family="Times New Roman,serif" font-size="14.00">Samples weight: 0.00</text>
</g>
<!-- BB3&#45;&gt;BB4 -->
<g id="edge5" class="edge">
<title>BB3&#45;&gt;BB4</title>
<path fill="none" stroke="black" d="M310.24,-264.05C310.24,-255.79 310.24,-247.1 310.24,-238.6"/>
<polygon fill="black" stroke="black" points="313.74,-238.36 310.24,-228.36 306.74,-238.36 313.74,-238.36"/>
</g>
<!-- BB5 -->
<g id="node6" class="node">
<title>BB5</title>
<ellipse fill="none" stroke="black" cx="250.24" cy="-48.08" rx="103.48" ry="48.17"/>
<text text-anchor="middle" x="250.24" y="-66.88" font-family="Times New Roman,serif" font-size="14.00">[120..13a)</text>
<text text-anchor="middle" x="250.24" y="-51.88" font-family="Times New Roman,serif" font-size="14.00">Count: 6</text>
<text text-anchor="middle" x="250.24" y="-36.88" font-family="Times New Roman,serif" font-size="14.00">Normalized count: 3.00</text>
<text text-anchor="middle" x="250.24" y="-21.88" font-family="Times New Roman,serif" font-size="14.00">Samples weight: 0.00</text>
</g>
<!-- BB4&#45;&gt;BB5 -->
<g id="edge7" class="edge">
<title>BB4&#45;&gt;BB5</title>
<path fill="none" stroke="black" d="M288.91,-132.99C284.67,-123.78 280.17,-114.03 275.8,-104.55"/>
<polygon fill="black" stroke="black" points="278.86,-102.81 271.49,-95.19 272.5,-105.74 278.86,-102.81"/>
</g>
<!-- BB6 -->
<g id="node7" class="node">
<title>BB6</title>
<ellipse fill="none" stroke="black" cx="474.24" cy="-48.08" rx="103.48" ry="48.17"/>
<text text-anchor="middle" x="474.24" y="-66.88" font-family="Times New Roman,serif" font-size="14.00">[13a..15e)</text>
<text text-anchor="middle" x="474.24" y="-51.88" font-family="Times New Roman,serif" font-size="14.00">Count: 19</text>
<text text-anchor="middle" x="474.24" y="-36.88" font-family="Times New Roman,serif" font-size="14.00">Normalized count: 9.50</text>
<text text-anchor="middle" x="474.24" y="-21.88" font-family="Times New Roman,serif" font-size="14.00">Samples weight: 0.00</text>
</g>
<!-- BB4&#45;&gt;BB6 -->
<g id="edge6" class="edge">
<title>BB4&#45;&gt;BB6</title>
<path fill="none" stroke="black" d="M361.68,-138.42C378.54,-125.04 397.42,-110.06 414.82,-96.24"/>
<polygon fill="black" stroke="black" points="417.04,-98.95 422.7,-89.99 412.69,-93.47 417.04,-98.95"/>
</g>
<!-- BB5&#45;&gt;BB6 -->
<g id="edge8" class="edge">
<title>BB5&#45;&gt;BB6</title>
<path fill="none" stroke="black" d="M353.49,-48.08C355.94,-48.08 358.4,-48.08 360.85,-48.08"/>
<polygon fill="black" stroke="black" points="360.94,-51.58 370.94,-48.08 360.94,-44.58 360.94,-51.58"/>
</g>
<!-- BB6&#45;&gt;BB7 -->
<g id="edge9" class="edge">
<title>BB6&#45;&gt;BB7</title>
<path fill="none" stroke="black" d="M483.91,-95.96C498.98,-182.1 518.73,-368.13 439.24,-492.67 427.49,-511.07 410.05,-526.08 391.6,-538.01"/>
<polygon fill="black" stroke="black" points="389.74,-535.05 383.08,-543.28 393.42,-541 389.74,-535.05"/>
</g>
<!-- BB7&#45;&gt;BB2 -->
<g id="edge10" class="edge">
<title>BB7&#45;&gt;BB2</title>
<path fill="none" stroke="black" d="M313.18,-528.76C314.6,-520.38 316.08,-511.57 317.54,-502.95"/>
<polygon fill="black" stroke="black" points="321.02,-503.39 319.23,-492.94 314.12,-502.22 321.02,-503.39"/>
</g>
<!-- BB8 -->
<g id="node9" class="node">
<title>BB8</title>
<ellipse fill="none" stroke="black" cx="103.24" cy="-444.58" rx="103.48" ry="48.17"/>
<text text-anchor="middle" x="103.24" y="-463.38" font-family="Times New Roman,serif" font-size="14.00">[16c..193)</text>
<text text-anchor="middle" x="103.24" y="-448.38" font-family="Times New Roman,serif" font-size="14.00">Count: 1</text>
<text text-anchor="middle" x="103.24" y="-433.38" font-family="Times New Roman,serif" font-size="14.00">Normalized count: 0.50</text>
<text text-anchor="middle" x="103.24" y="-418.38" font-family="Times New Roman,serif" font-size="14.00">Samples weight: 0.00</text>
</g>
<!-- BB7&#45;&gt;BB8 -->
<g id="edge11" class="edge">
<title>BB7&#45;&gt;BB8</title>
<path fill="none" stroke="black" d="M244.63,-536.7C221.55,-521.82 195.1,-504.78 171.37,-489.48"/>
<polygon fill="black" stroke="black" points="173.06,-486.41 162.76,-483.94 169.27,-492.3 173.06,-486.41"/>
</g>
<!-- BB8&#45;&gt;BB9 -->
<g id="edge12" class="edge">
<title>BB8&#45;&gt;BB9</title>
<path fill="none" stroke="black" d="M98.62,-492.83C92.57,-578.37 90.46,-761.83 166.24,-889.17 175.59,-904.88 189.17,-918.55 203.67,-930.02"/>
<polygon fill="black" stroke="black" points="201.71,-932.92 211.8,-936.16 205.93,-927.34 201.71,-932.92"/>
</g>
<!-- BB10 -->
<g id="node11" class="node">
<title>BB10</title>
<ellipse fill="none" stroke="black" cx="278.24" cy="-841.08" rx="103.48" ry="48.17"/>
<text text-anchor="middle" x="278.24" y="-859.88" font-family="Times New Roman,serif" font-size="14.00">[199..1a4)</text>
<text text-anchor="middle" x="278.24" y="-844.88" font-family="Times New Roman,serif" font-size="14.00">Count: 1</text>
<text text-anchor="middle" x="278.24" y="-829.88" font-family="Times New Roman,serif" font-size="14.00">Normalized count: 0.50</text>
<text text-anchor="middle" x="278.24" y="-814.88" font-family="Times New Roman,serif" font-size="14.00">Samples weight: 0.00</text>
</g>
<!-- BB9&#45;&gt;BB10 -->
<g id="edge14" class="edge">
<title>BB9&#45;&gt;BB10</title>
<path fill="none" stroke="black" d="M278.24,-924.89C278.24,-916.62 278.24,-907.94 278.24,-899.43"/>
<polygon fill="black" stroke="black" points="281.74,-899.19 278.24,-889.19 274.74,-899.19 281.74,-899.19"/>
</g>
<!-- BB11 -->
<g id="node12" class="node">
<title>BB11</title>
<ellipse fill="none" stroke="black" cx="502.24" cy="-841.08" rx="103.48" ry="48.17"/>
<text text-anchor="middle" x="502.24" y="-859.88" font-family="Times New Roman,serif" font-size="14.00">[1a4..1a5)</text>
<text text-anchor="middle" x="502.24" y="-844.88" font-family="Times New Roman,serif" font-size="14.00">Count: 2</text>
<text text-anchor="middle" x="502.24" y="-829.88" font-family="Times New Roman,serif" font-size="14.00">Normalized count: 1.00</text>
<text text-anchor="middle" x="502.24" y="-814.88" font-family="Times New Roman,serif" font-size="14.00">Samples weight: 0.00</text>
</g>
<!-- BB9&#45;&gt;BB11 -->
<g id="edge13" class="edge">
<title>BB9&#45;&gt;BB11</title>
<path fill="none" stroke="black" d="M341.83,-935.3C369.26,-919.36 401.48,-900.63 429.83,-884.16"/>
<polygon fill="black" stroke="black" points="431.6,-887.18 438.49,-879.13 428.08,-881.13 431.6,-887.18"/>
</g>
<!-- BB10&#45;&gt;BB1 -->
<g id="edge15" class="edge">
<title>BB10&#45;&gt;BB1</title>
<path fill="none" stroke="black" d="M282.97,-792.72C283.8,-784.36 284.68,-775.58 285.54,-766.99"/>
<polygon fill="black" stroke="black" points="289.02,-767.32 286.53,-757.02 282.06,-766.63 289.02,-767.32"/>
</g>
<!-- BB10&#45;&gt;BB11 -->
<g id="edge16" class="edge">
<title>BB10&#45;&gt;BB11</title>
<path fill="none" stroke="black" d="M381.49,-841.08C383.94,-841.08 386.4,-841.08 388.85,-841.08"/>
<polygon fill="black" stroke="black" points="388.94,-844.58 398.94,-841.08 388.94,-837.58 388.94,-844.58"/>
</g>
</g>
</svg>
