<?xml version="1.0" encoding="UTF-8" standalone="no"?>
<!DOCTYPE svg PUBLIC "-//W3C//DTD SVG 1.1//EN"
 "http://www.w3.org/Graphics/SVG/1.1/DTD/svg11.dtd">
<!-- Generated by graphviz version 2.47.0 (20210316.0004)
 -->
<!-- Title: G Pages: 1 -->
<svg width="643pt" height="1029pt"
 viewBox="0.00 0.00 643.50 1029.33" xmlns="http://www.w3.org/2000/svg" xmlns:xlink="http://www.w3.org/1999/xlink">
<g id="graph0" class="graph" transform="scale(1 1) rotate(0) translate(4 1025.33)">
<title>G</title>
<polygon fill="white" stroke="transparent" points="-4,4 -4,-1025.33 639.5,-1025.33 639.5,4 -4,4"/>
<!-- BB0 -->
<g id="node1" class="node">
<title>BB0</title>
<ellipse fill="none" stroke="black" cx="293.65" cy="-973.25" rx="104.8" ry="48.17"/>
<text text-anchor="middle" x="293.65" y="-992.05" font-family="Times New Roman,serif" font-size="14.00">[0..1a)</text>
<text text-anchor="middle" x="293.65" y="-977.05" font-family="Times New Roman,serif" font-size="14.00">Count: 0</text>
<text text-anchor="middle" x="293.65" y="-962.05" font-family="Times New Roman,serif" font-size="14.00">Normalized count: NaN</text>
<text text-anchor="middle" x="293.65" y="-947.05" font-family="Times New Roman,serif" font-size="14.00">Samples weight: 0.00</text>
</g>
<!-- BB8 -->
<g id="node9" class="node">
<title>BB8</title>
<ellipse fill="none" stroke="black" cx="293.65" cy="-841.08" rx="104.8" ry="48.17"/>
<text text-anchor="middle" x="293.65" y="-859.88" font-family="Times New Roman,serif" font-size="14.00">[bd..c2)</text>
<text text-anchor="middle" x="293.65" y="-844.88" font-family="Times New Roman,serif" font-size="14.00">Count: 0</text>
<text text-anchor="middle" x="293.65" y="-829.88" font-family="Times New Roman,serif" font-size="14.00">Normalized count: NaN</text>
<text text-anchor="middle" x="293.65" y="-814.88" font-family="Times New Roman,serif" font-size="14.00">Samples weight: 0.00</text>
</g>
<!-- BB0&#45;&gt;BB8 -->
<g id="edge1" class="edge">
<title>BB0&#45;&gt;BB8</title>
<path fill="none" stroke="black" d="M293.65,-924.89C293.65,-916.62 293.65,-907.94 293.65,-899.43"/>
<polygon fill="black" stroke="black" points="297.15,-899.19 293.65,-889.19 290.15,-899.19 297.15,-899.19"/>
</g>
<!-- BB1 -->
<g id="node2" class="node">
<title>BB1</title>
<ellipse fill="none" stroke="black" cx="293.65" cy="-576.75" rx="113.69" ry="48.17"/>
<text text-anchor="middle" x="293.65" y="-595.55" font-family="Times New Roman,serif" font-size="14.00">[1a..25)</text>
<text text-anchor="middle" x="293.65" y="-580.55" font-family="Times New Roman,serif" font-size="14.00">Count: 1</text>
<text text-anchor="middle" x="293.65" y="-565.55" font-family="Times New Roman,serif" font-size="14.00">Normalized count: Infinity</text>
<text text-anchor="middle" x="293.65" y="-550.55" font-family="Times New Roman,serif" font-size="14.00">Samples weight: 0.00</text>
</g>
<!-- BB6 -->
<g id="node7" class="node">
<title>BB6</title>
<ellipse fill="none" stroke="black" cx="316.65" cy="-444.58" rx="113.69" ry="48.17"/>
<text text-anchor="middle" x="316.65" y="-463.38" font-family="Times New Roman,serif" font-size="14.00">[a9..b1)</text>
<text text-anchor="middle" x="316.65" y="-448.38" font-family="Times New Roman,serif" font-size="14.00">Count: 197</text>
<text text-anchor="middle" x="316.65" y="-433.38" font-family="Times New Roman,serif" font-size="14.00">Normalized count: Infinity</text>
<text text-anchor="middle" x="316.65" y="-418.38" font-family="Times New Roman,serif" font-size="14.00">Samples weight: 0.00</text>
</g>
<!-- BB1&#45;&gt;BB6 -->
<g id="edge2" class="edge">
<title>BB1&#45;&gt;BB6</title>
<path fill="none" stroke="black" d="M301.96,-528.76C303.44,-520.38 304.99,-511.57 306.52,-502.95"/>
<polygon fill="black" stroke="black" points="309.99,-503.4 308.28,-492.94 303.1,-502.18 309.99,-503.4"/>
</g>
<!-- BB2 -->
<g id="node3" class="node">
<title>BB2</title>
<ellipse fill="none" stroke="black" cx="340.65" cy="-312.42" rx="113.69" ry="48.17"/>
<text text-anchor="middle" x="340.65" y="-331.22" font-family="Times New Roman,serif" font-size="14.00">[25..3b)</text>
<text text-anchor="middle" x="340.65" y="-316.22" font-family="Times New Roman,serif" font-size="14.00">Count: 179</text>
<text text-anchor="middle" x="340.65" y="-301.22" font-family="Times New Roman,serif" font-size="14.00">Normalized count: Infinity</text>
<text text-anchor="middle" x="340.65" y="-286.22" font-family="Times New Roman,serif" font-size="14.00">Samples weight: 0.00</text>
</g>
<!-- BB3 -->
<g id="node4" class="node">
<title>BB3</title>
<ellipse fill="none" stroke="black" cx="327.65" cy="-180.25" rx="113.69" ry="48.17"/>
<text text-anchor="middle" x="327.65" y="-199.05" font-family="Times New Roman,serif" font-size="14.00">[3b..83)</text>
<text text-anchor="middle" x="327.65" y="-184.05" font-family="Times New Roman,serif" font-size="14.00">Count: 114699</text>
<text text-anchor="middle" x="327.65" y="-169.05" font-family="Times New Roman,serif" font-size="14.00">Normalized count: Infinity</text>
<text text-anchor="middle" x="327.65" y="-154.05" font-family="Times New Roman,serif" font-size="14.00">Samples weight: 0.50</text>
</g>
<!-- BB2&#45;&gt;BB3 -->
<g id="edge3" class="edge">
<title>BB2&#45;&gt;BB3</title>
<path fill="none" stroke="black" d="M335.92,-264.05C335.09,-255.7 334.21,-246.91 333.35,-238.32"/>
<polygon fill="black" stroke="black" points="336.83,-237.96 332.36,-228.36 329.87,-238.66 336.83,-237.96"/>
</g>
<!-- BB4 -->
<g id="node5" class="node">
<title>BB4</title>
<ellipse fill="none" stroke="black" cx="275.65" cy="-48.08" rx="113.69" ry="48.17"/>
<text text-anchor="middle" x="275.65" y="-66.88" font-family="Times New Roman,serif" font-size="14.00">[83..8c)</text>
<text text-anchor="middle" x="275.65" y="-51.88" font-family="Times New Roman,serif" font-size="14.00">Count: 114636</text>
<text text-anchor="middle" x="275.65" y="-36.88" font-family="Times New Roman,serif" font-size="14.00">Normalized count: Infinity</text>
<text text-anchor="middle" x="275.65" y="-21.88" font-family="Times New Roman,serif" font-size="14.00">Samples weight: 0.50</text>
</g>
<!-- BB3&#45;&gt;BB4 -->
<g id="edge5" class="edge">
<title>BB3&#45;&gt;BB4</title>
<path fill="none" stroke="black" d="M302.68,-132.99C298.88,-124.1 295.05,-114.69 291.5,-105.52"/>
<polygon fill="black" stroke="black" points="294.73,-104.18 287.91,-96.07 288.19,-106.66 294.73,-104.18"/>
</g>
<!-- BB5 -->
<g id="node6" class="node">
<title>BB5</title>
<ellipse fill="none" stroke="black" cx="521.65" cy="-48.08" rx="113.69" ry="48.17"/>
<text text-anchor="middle" x="521.65" y="-66.88" font-family="Times New Roman,serif" font-size="14.00">[8c..a9)</text>
<text text-anchor="middle" x="521.65" y="-51.88" font-family="Times New Roman,serif" font-size="14.00">Count: 218</text>
<text text-anchor="middle" x="521.65" y="-36.88" font-family="Times New Roman,serif" font-size="14.00">Normalized count: Infinity</text>
<text text-anchor="middle" x="521.65" y="-21.88" font-family="Times New Roman,serif" font-size="14.00">Samples weight: 0.00</text>
</g>
<!-- BB3&#45;&gt;BB5 -->
<g id="edge4" class="edge">
<title>BB3&#45;&gt;BB5</title>
<path fill="none" stroke="black" d="M387.44,-139.13C408.38,-125.09 432.04,-109.21 453.6,-94.75"/>
<polygon fill="black" stroke="black" points="455.71,-97.55 462.06,-89.07 451.81,-91.73 455.71,-97.55"/>
</g>
<!-- BB4&#45;&gt;BB3 -->
<g id="edge6" class="edge">
<title>BB4&#45;&gt;BB3</title>
<path fill="none" stroke="black" d="M300.54,-95.14C304.36,-104.07 308.21,-113.53 311.78,-122.76"/>
<polygon fill="black" stroke="black" points="308.57,-124.15 315.39,-132.26 315.11,-121.67 308.57,-124.15"/>
</g>
<!-- BB4&#45;&gt;BB5 -->
<g id="edge7" class="edge">
<title>BB4&#45;&gt;BB5</title>
<path fill="none" stroke="black" d="M389.52,-48.08C392.16,-48.08 394.79,-48.08 397.43,-48.08"/>
<polygon fill="black" stroke="black" points="397.59,-51.58 407.59,-48.08 397.59,-44.58 397.59,-51.58"/>
</g>
<!-- BB5&#45;&gt;BB6 -->
<g id="edge8" class="edge">
<title>BB5&#45;&gt;BB6</title>
<path fill="none" stroke="black" d="M524.63,-96.29C526.35,-161.74 520.47,-280.95 463.65,-360.5 449.94,-379.7 430.31,-395.04 409.85,-407.05"/>
<polygon fill="black" stroke="black" points="408.05,-404.05 401.04,-412 411.47,-410.15 408.05,-404.05"/>
</g>
<!-- BB6&#45;&gt;BB2 -->
<g id="edge9" class="edge">
<title>BB6&#45;&gt;BB2</title>
<path fill="none" stroke="black" d="M325.32,-396.59C326.86,-388.22 328.48,-379.41 330.07,-370.78"/>
<polygon fill="black" stroke="black" points="333.55,-371.25 331.92,-360.78 326.66,-369.98 333.55,-371.25"/>
</g>
<!-- BB7 -->
<g id="node8" class="node">
<title>BB7</title>
<ellipse fill="none" stroke="black" cx="104.65" cy="-312.42" rx="104.8" ry="48.17"/>
<text text-anchor="middle" x="104.65" y="-331.22" font-family="Times New Roman,serif" font-size="14.00">[b1..bd)</text>
<text text-anchor="middle" x="104.65" y="-316.22" font-family="Times New Roman,serif" font-size="14.00">Count: 0</text>
<text text-anchor="middle" x="104.65" y="-301.22" font-family="Times New Roman,serif" font-size="14.00">Normalized count: NaN</text>
<text text-anchor="middle" x="104.65" y="-286.22" font-family="Times New Roman,serif" font-size="14.00">Samples weight: 0.00</text>
</g>
<!-- BB6&#45;&gt;BB7 -->
<g id="edge10" class="edge">
<title>BB6&#45;&gt;BB7</title>
<path fill="none" stroke="black" d="M253.04,-404.53C228.5,-389.46 200.32,-372.15 175.16,-356.7"/>
<polygon fill="black" stroke="black" points="176.74,-353.57 166.39,-351.32 173.08,-359.54 176.74,-353.57"/>
</g>
<!-- BB7&#45;&gt;BB8 -->
<g id="edge11" class="edge">
<title>BB7&#45;&gt;BB8</title>
<path fill="none" stroke="black" d="M99.9,-360.69C93.65,-446.67 91.48,-631.34 170.65,-757 181.36,-773.99 196.94,-788.33 213.44,-800.07"/>
<polygon fill="black" stroke="black" points="211.89,-803.25 222.13,-805.97 215.82,-797.45 211.89,-803.25"/>
</g>
<!-- BB9 -->
<g id="node10" class="node">
<title>BB9</title>
<ellipse fill="none" stroke="black" cx="293.65" cy="-708.92" rx="113.69" ry="48.17"/>
<text text-anchor="middle" x="293.65" y="-727.72" font-family="Times New Roman,serif" font-size="14.00">[c2..cd)</text>
<text text-anchor="middle" x="293.65" y="-712.72" font-family="Times New Roman,serif" font-size="14.00">Count: 1</text>
<text text-anchor="middle" x="293.65" y="-697.72" font-family="Times New Roman,serif" font-size="14.00">Normalized count: Infinity</text>
<text text-anchor="middle" x="293.65" y="-682.72" font-family="Times New Roman,serif" font-size="14.00">Samples weight: 0.00</text>
</g>
<!-- BB8&#45;&gt;BB9 -->
<g id="edge13" class="edge">
<title>BB8&#45;&gt;BB9</title>
<path fill="none" stroke="black" d="M293.65,-792.72C293.65,-784.45 293.65,-775.77 293.65,-767.27"/>
<polygon fill="black" stroke="black" points="297.15,-767.02 293.65,-757.02 290.15,-767.02 297.15,-767.02"/>
</g>
<!-- BB10 -->
<g id="node11" class="node">
<title>BB10</title>
<ellipse fill="none" stroke="black" cx="529.65" cy="-708.92" rx="104.8" ry="48.17"/>
<text text-anchor="middle" x="529.65" y="-727.72" font-family="Times New Roman,serif" font-size="14.00">[cd..ce)</text>
<text text-anchor="middle" x="529.65" y="-712.72" font-family="Times New Roman,serif" font-size="14.00">Count: 0</text>
<text text-anchor="middle" x="529.65" y="-697.72" font-family="Times New Roman,serif" font-size="14.00">Normalized count: NaN</text>
<text text-anchor="middle" x="529.65" y="-682.72" font-family="Times New Roman,serif" font-size="14.00">Samples weight: 0.00</text>
</g>
<!-- BB8&#45;&gt;BB10 -->
<g id="edge12" class="edge">
<title>BB8&#45;&gt;BB10</title>
<path fill="none" stroke="black" d="M359.7,-803.65C389.24,-787.36 424.21,-768.07 454.72,-751.25"/>
<polygon fill="black" stroke="black" points="456.55,-754.23 463.61,-746.34 453.17,-748.1 456.55,-754.23"/>
</g>
<!-- BB9&#45;&gt;BB1 -->
<g id="edge14" class="edge">
<title>BB9&#45;&gt;BB1</title>
<path fill="none" stroke="black" d="M293.65,-660.55C293.65,-652.29 293.65,-643.6 293.65,-635.1"/>
<polygon fill="black" stroke="black" points="297.15,-634.86 293.65,-624.86 290.15,-634.86 297.15,-634.86"/>
</g>
<!-- BB9&#45;&gt;BB10 -->
<g id="edge15" class="edge">
<title>BB9&#45;&gt;BB10</title>
<path fill="none" stroke="black" d="M407.5,-708.92C409.83,-708.92 412.16,-708.92 414.48,-708.92"/>
<polygon fill="black" stroke="black" points="414.68,-712.42 424.68,-708.92 414.68,-705.42 414.68,-712.42"/>
</g>
</g>
</svg>
