<?xml version="1.0" encoding="UTF-8" standalone="no"?>
<!DOCTYPE svg PUBLIC "-//W3C//DTD SVG 1.1//EN"
 "http://www.w3.org/Graphics/SVG/1.1/DTD/svg11.dtd">
<!-- Generated by graphviz version 2.47.0 (20210316.0004)
 -->
<!-- Title: G Pages: 1 -->
<svg width="1486pt" height="1294pt"
 viewBox="0.00 0.00 1485.98 1293.67" xmlns="http://www.w3.org/2000/svg" xmlns:xlink="http://www.w3.org/1999/xlink">
<g id="graph0" class="graph" transform="scale(1 1) rotate(0) translate(4 1289.67)">
<title>G</title>
<polygon fill="white" stroke="transparent" points="-4,4 -4,-1289.67 1481.98,-1289.67 1481.98,4 -4,4"/>
<!-- BB0 -->
<g id="node1" class="node">
<title>BB0</title>
<ellipse fill="none" stroke="black" cx="393.79" cy="-1237.58" rx="103.48" ry="48.17"/>
<text text-anchor="middle" x="393.79" y="-1256.38" font-family="Times New Roman,serif" font-size="14.00">[0..4)</text>
<text text-anchor="middle" x="393.79" y="-1241.38" font-family="Times New Roman,serif" font-size="14.00">Count: 4</text>
<text text-anchor="middle" x="393.79" y="-1226.38" font-family="Times New Roman,serif" font-size="14.00">Normalized count: 1.00</text>
<text text-anchor="middle" x="393.79" y="-1211.38" font-family="Times New Roman,serif" font-size="14.00">Samples weight: 0.00</text>
</g>
<!-- BB10 -->
<g id="node11" class="node">
<title>BB10</title>
<ellipse fill="none" stroke="black" cx="393.79" cy="-1105.42" rx="103.48" ry="48.17"/>
<text text-anchor="middle" x="393.79" y="-1124.22" font-family="Times New Roman,serif" font-size="14.00">[4c..51)</text>
<text text-anchor="middle" x="393.79" y="-1109.22" font-family="Times New Roman,serif" font-size="14.00">Count: 7</text>
<text text-anchor="middle" x="393.79" y="-1094.22" font-family="Times New Roman,serif" font-size="14.00">Normalized count: 1.75</text>
<text text-anchor="middle" x="393.79" y="-1079.22" font-family="Times New Roman,serif" font-size="14.00">Samples weight: 0.00</text>
</g>
<!-- BB0&#45;&gt;BB10 -->
<g id="edge1" class="edge">
<title>BB0&#45;&gt;BB10</title>
<path fill="none" stroke="black" d="M393.79,-1189.22C393.79,-1180.95 393.79,-1172.27 393.79,-1163.77"/>
<polygon fill="black" stroke="black" points="397.29,-1163.52 393.79,-1153.52 390.29,-1163.52 397.29,-1163.52"/>
</g>
<!-- BB1 -->
<g id="node2" class="node">
<title>BB1</title>
<ellipse fill="none" stroke="black" cx="393.79" cy="-973.25" rx="103.48" ry="48.17"/>
<text text-anchor="middle" x="393.79" y="-992.05" font-family="Times New Roman,serif" font-size="14.00">[4..e)</text>
<text text-anchor="middle" x="393.79" y="-977.05" font-family="Times New Roman,serif" font-size="14.00">Count: 3</text>
<text text-anchor="middle" x="393.79" y="-962.05" font-family="Times New Roman,serif" font-size="14.00">Normalized count: 0.75</text>
<text text-anchor="middle" x="393.79" y="-947.05" font-family="Times New Roman,serif" font-size="14.00">Samples weight: 0.00</text>
</g>
<!-- BB5 -->
<g id="node6" class="node">
<title>BB5</title>
<ellipse fill="none" stroke="black" cx="393.79" cy="-841.08" rx="108.38" ry="48.17"/>
<text text-anchor="middle" x="393.79" y="-859.88" font-family="Times New Roman,serif" font-size="14.00">[27..2c)</text>
<text text-anchor="middle" x="393.79" y="-844.88" font-family="Times New Roman,serif" font-size="14.00">Count: 355</text>
<text text-anchor="middle" x="393.79" y="-829.88" font-family="Times New Roman,serif" font-size="14.00">Normalized count: 88.75</text>
<text text-anchor="middle" x="393.79" y="-814.88" font-family="Times New Roman,serif" font-size="14.00">Samples weight: 0.12</text>
</g>
<!-- BB1&#45;&gt;BB5 -->
<g id="edge2" class="edge">
<title>BB1&#45;&gt;BB5</title>
<path fill="none" stroke="black" d="M393.79,-924.89C393.79,-916.62 393.79,-907.94 393.79,-899.43"/>
<polygon fill="black" stroke="black" points="397.29,-899.19 393.79,-889.19 390.29,-899.19 397.29,-899.19"/>
</g>
<!-- BB2 -->
<g id="node3" class="node">
<title>BB2</title>
<ellipse fill="none" stroke="black" cx="257.79" cy="-708.92" rx="108.38" ry="48.17"/>
<text text-anchor="middle" x="257.79" y="-727.72" font-family="Times New Roman,serif" font-size="14.00">[e..19)</text>
<text text-anchor="middle" x="257.79" y="-712.72" font-family="Times New Roman,serif" font-size="14.00">Count: 352</text>
<text text-anchor="middle" x="257.79" y="-697.72" font-family="Times New Roman,serif" font-size="14.00">Normalized count: 88.00</text>
<text text-anchor="middle" x="257.79" y="-682.72" font-family="Times New Roman,serif" font-size="14.00">Samples weight: 0.12</text>
</g>
<!-- BB3 -->
<g id="node4" class="node">
<title>BB3</title>
<ellipse fill="none" stroke="black" cx="138.79" cy="-576.75" rx="103.48" ry="48.17"/>
<text text-anchor="middle" x="138.79" y="-595.55" font-family="Times New Roman,serif" font-size="14.00">[19..22)</text>
<text text-anchor="middle" x="138.79" y="-580.55" font-family="Times New Roman,serif" font-size="14.00">Count: 18</text>
<text text-anchor="middle" x="138.79" y="-565.55" font-family="Times New Roman,serif" font-size="14.00">Normalized count: 4.50</text>
<text text-anchor="middle" x="138.79" y="-550.55" font-family="Times New Roman,serif" font-size="14.00">Samples weight: 0.01</text>
</g>
<!-- BB2&#45;&gt;BB3 -->
<g id="edge4" class="edge">
<title>BB2&#45;&gt;BB3</title>
<path fill="none" stroke="black" d="M217.83,-664.21C207.53,-652.94 196.35,-640.71 185.73,-629.09"/>
<polygon fill="black" stroke="black" points="188.17,-626.58 178.84,-621.56 183.01,-631.3 188.17,-626.58"/>
</g>
<!-- BB4 -->
<g id="node5" class="node">
<title>BB4</title>
<ellipse fill="none" stroke="black" cx="367.79" cy="-576.75" rx="108.38" ry="48.17"/>
<text text-anchor="middle" x="367.79" y="-595.55" font-family="Times New Roman,serif" font-size="14.00">[22..27)</text>
<text text-anchor="middle" x="367.79" y="-580.55" font-family="Times New Roman,serif" font-size="14.00">Count: 352</text>
<text text-anchor="middle" x="367.79" y="-565.55" font-family="Times New Roman,serif" font-size="14.00">Normalized count: 88.00</text>
<text text-anchor="middle" x="367.79" y="-550.55" font-family="Times New Roman,serif" font-size="14.00">Samples weight: 0.12</text>
</g>
<!-- BB2&#45;&gt;BB4 -->
<g id="edge3" class="edge">
<title>BB2&#45;&gt;BB4</title>
<path fill="none" stroke="black" d="M295.34,-663.48C304.54,-652.59 314.47,-640.84 323.94,-629.64"/>
<polygon fill="black" stroke="black" points="326.63,-631.88 330.41,-621.98 321.28,-627.36 326.63,-631.88"/>
</g>
<!-- BB3&#45;&gt;BB4 -->
<g id="edge5" class="edge">
<title>BB3&#45;&gt;BB4</title>
<path fill="none" stroke="black" d="M242.11,-576.75C244.43,-576.75 246.76,-576.75 249.09,-576.75"/>
<polygon fill="black" stroke="black" points="249.29,-580.25 259.29,-576.75 249.29,-573.25 249.29,-580.25"/>
</g>
<!-- BB4&#45;&gt;BB5 -->
<g id="edge6" class="edge">
<title>BB4&#45;&gt;BB5</title>
<path fill="none" stroke="black" d="M372.47,-625.02C376.86,-669.29 383.43,-735.54 388.11,-782.8"/>
<polygon fill="black" stroke="black" points="384.64,-783.27 389.11,-792.88 391.61,-782.58 384.64,-783.27"/>
</g>
<!-- BB5&#45;&gt;BB2 -->
<g id="edge7" class="edge">
<title>BB5&#45;&gt;BB2</title>
<path fill="none" stroke="black" d="M348.88,-797.1C336.46,-785.21 322.88,-772.21 310.08,-759.96"/>
<polygon fill="black" stroke="black" points="312.3,-757.24 302.65,-752.85 307.46,-762.3 312.3,-757.24"/>
</g>
<!-- BB6 -->
<g id="node7" class="node">
<title>BB6</title>
<ellipse fill="none" stroke="black" cx="550.79" cy="-708.92" rx="103.48" ry="48.17"/>
<text text-anchor="middle" x="550.79" y="-727.72" font-family="Times New Roman,serif" font-size="14.00">[2c..30)</text>
<text text-anchor="middle" x="550.79" y="-712.72" font-family="Times New Roman,serif" font-size="14.00">Count: 3</text>
<text text-anchor="middle" x="550.79" y="-697.72" font-family="Times New Roman,serif" font-size="14.00">Normalized count: 0.75</text>
<text text-anchor="middle" x="550.79" y="-682.72" font-family="Times New Roman,serif" font-size="14.00">Samples weight: 0.00</text>
</g>
<!-- BB5&#45;&gt;BB6 -->
<g id="edge8" class="edge">
<title>BB5&#45;&gt;BB6</title>
<path fill="none" stroke="black" d="M444.33,-798.18C459.89,-785.28 477.14,-770.98 493.14,-757.71"/>
<polygon fill="black" stroke="black" points="495.42,-760.37 500.88,-751.29 490.95,-754.98 495.42,-760.37"/>
</g>
<!-- BB8 -->
<g id="node9" class="node">
<title>BB8</title>
<ellipse fill="none" stroke="black" cx="601.79" cy="-576.75" rx="108.38" ry="48.17"/>
<text text-anchor="middle" x="601.79" y="-595.55" font-family="Times New Roman,serif" font-size="14.00">[42..47)</text>
<text text-anchor="middle" x="601.79" y="-580.55" font-family="Times New Roman,serif" font-size="14.00">Count: 302</text>
<text text-anchor="middle" x="601.79" y="-565.55" font-family="Times New Roman,serif" font-size="14.00">Normalized count: 75.50</text>
<text text-anchor="middle" x="601.79" y="-550.55" font-family="Times New Roman,serif" font-size="14.00">Samples weight: 0.10</text>
</g>
<!-- BB6&#45;&gt;BB8 -->
<g id="edge9" class="edge">
<title>BB6&#45;&gt;BB8</title>
<path fill="none" stroke="black" d="M569.06,-661.29C572.54,-652.41 576.21,-643.03 579.79,-633.89"/>
<polygon fill="black" stroke="black" points="583.09,-635.07 583.48,-624.49 576.57,-632.52 583.09,-635.07"/>
</g>
<!-- BB7 -->
<g id="node8" class="node">
<title>BB7</title>
<ellipse fill="none" stroke="black" cx="601.79" cy="-444.58" rx="108.38" ry="48.17"/>
<text text-anchor="middle" x="601.79" y="-463.38" font-family="Times New Roman,serif" font-size="14.00">[30..42)</text>
<text text-anchor="middle" x="601.79" y="-448.38" font-family="Times New Roman,serif" font-size="14.00">Count: 299</text>
<text text-anchor="middle" x="601.79" y="-433.38" font-family="Times New Roman,serif" font-size="14.00">Normalized count: 74.75</text>
<text text-anchor="middle" x="601.79" y="-418.38" font-family="Times New Roman,serif" font-size="14.00">Samples weight: 0.10</text>
</g>
<!-- BB7&#45;&gt;BB8 -->
<g id="edge10" class="edge">
<title>BB7&#45;&gt;BB8</title>
<path fill="none" stroke="black" d="M608.31,-492.69C608.53,-500.95 608.59,-509.63 608.5,-518.14"/>
<polygon fill="black" stroke="black" points="605,-518.33 608.31,-528.39 611.99,-518.45 605,-518.33"/>
</g>
<!-- BB8&#45;&gt;BB7 -->
<g id="edge11" class="edge">
<title>BB8&#45;&gt;BB7</title>
<path fill="none" stroke="black" d="M595.27,-528.39C595.05,-520.12 594.99,-511.44 595.08,-502.93"/>
<polygon fill="black" stroke="black" points="598.59,-502.75 595.27,-492.69 591.59,-502.62 598.59,-502.75"/>
</g>
<!-- BB9 -->
<g id="node10" class="node">
<title>BB9</title>
<ellipse fill="none" stroke="black" cx="190.79" cy="-444.58" rx="103.48" ry="48.17"/>
<text text-anchor="middle" x="190.79" y="-463.38" font-family="Times New Roman,serif" font-size="14.00">[47..4c)</text>
<text text-anchor="middle" x="190.79" y="-448.38" font-family="Times New Roman,serif" font-size="14.00">Count: 3</text>
<text text-anchor="middle" x="190.79" y="-433.38" font-family="Times New Roman,serif" font-size="14.00">Normalized count: 0.75</text>
<text text-anchor="middle" x="190.79" y="-418.38" font-family="Times New Roman,serif" font-size="14.00">Samples weight: 0.00</text>
</g>
<!-- BB8&#45;&gt;BB9 -->
<g id="edge12" class="edge">
<title>BB8&#45;&gt;BB9</title>
<path fill="none" stroke="black" d="M524.19,-543.17C511.12,-538.08 497.64,-533.05 484.79,-528.67 420.85,-506.84 347.75,-486.16 290.44,-470.89"/>
<polygon fill="black" stroke="black" points="291.22,-467.48 280.65,-468.3 289.42,-474.25 291.22,-467.48"/>
</g>
<!-- BB9&#45;&gt;BB10 -->
<g id="edge13" class="edge">
<title>BB9&#45;&gt;BB10</title>
<path fill="none" stroke="black" d="M103.79,-470.7C74.77,-483.41 45.18,-502 26.79,-528.67 -18.69,-594.62 7.79,-627.8 7.79,-707.92 7.79,-842.08 7.79,-842.08 7.79,-842.08 7.79,-979.27 176.64,-1049.74 290.99,-1081.74"/>
<polygon fill="black" stroke="black" points="290.27,-1085.17 300.84,-1084.44 292.12,-1078.42 290.27,-1085.17"/>
</g>
<!-- BB10&#45;&gt;BB1 -->
<g id="edge14" class="edge">
<title>BB10&#45;&gt;BB1</title>
<path fill="none" stroke="black" d="M393.79,-1057.05C393.79,-1048.79 393.79,-1040.1 393.79,-1031.6"/>
<polygon fill="black" stroke="black" points="397.29,-1031.36 393.79,-1021.36 390.29,-1031.36 397.29,-1031.36"/>
</g>
<!-- BB11 -->
<g id="node12" class="node">
<title>BB11</title>
<ellipse fill="none" stroke="black" cx="638.79" cy="-973.25" rx="103.48" ry="48.17"/>
<text text-anchor="middle" x="638.79" y="-992.05" font-family="Times New Roman,serif" font-size="14.00">[51..55)</text>
<text text-anchor="middle" x="638.79" y="-977.05" font-family="Times New Roman,serif" font-size="14.00">Count: 4</text>
<text text-anchor="middle" x="638.79" y="-962.05" font-family="Times New Roman,serif" font-size="14.00">Normalized count: 1.00</text>
<text text-anchor="middle" x="638.79" y="-947.05" font-family="Times New Roman,serif" font-size="14.00">Samples weight: 0.00</text>
</g>
<!-- BB10&#45;&gt;BB11 -->
<g id="edge15" class="edge">
<title>BB10&#45;&gt;BB11</title>
<path fill="none" stroke="black" d="M461.06,-1068.67C492.53,-1051.96 530.14,-1031.97 562.64,-1014.7"/>
<polygon fill="black" stroke="black" points="564.48,-1017.69 571.67,-1009.91 561.2,-1011.51 564.48,-1017.69"/>
</g>
<!-- BB22 -->
<g id="node23" class="node">
<title>BB22</title>
<ellipse fill="none" stroke="black" cx="802.79" cy="-841.08" rx="103.48" ry="48.17"/>
<text text-anchor="middle" x="802.79" y="-859.88" font-family="Times New Roman,serif" font-size="14.00">[a0..a5)</text>
<text text-anchor="middle" x="802.79" y="-844.88" font-family="Times New Roman,serif" font-size="14.00">Count: 6</text>
<text text-anchor="middle" x="802.79" y="-829.88" font-family="Times New Roman,serif" font-size="14.00">Normalized count: 1.50</text>
<text text-anchor="middle" x="802.79" y="-814.88" font-family="Times New Roman,serif" font-size="14.00">Samples weight: 0.00</text>
</g>
<!-- BB11&#45;&gt;BB22 -->
<g id="edge16" class="edge">
<title>BB11&#45;&gt;BB22</title>
<path fill="none" stroke="black" d="M690.23,-931.42C707.09,-918.04 725.97,-903.06 743.37,-889.24"/>
<polygon fill="black" stroke="black" points="745.59,-891.95 751.25,-882.99 741.24,-886.46 745.59,-891.95"/>
</g>
<!-- BB12 -->
<g id="node13" class="node">
<title>BB12</title>
<ellipse fill="none" stroke="black" cx="1094.79" cy="-708.92" rx="103.48" ry="48.17"/>
<text text-anchor="middle" x="1094.79" y="-727.72" font-family="Times New Roman,serif" font-size="14.00">[55..5f)</text>
<text text-anchor="middle" x="1094.79" y="-712.72" font-family="Times New Roman,serif" font-size="14.00">Count: 2</text>
<text text-anchor="middle" x="1094.79" y="-697.72" font-family="Times New Roman,serif" font-size="14.00">Normalized count: 0.50</text>
<text text-anchor="middle" x="1094.79" y="-682.72" font-family="Times New Roman,serif" font-size="14.00">Samples weight: 0.00</text>
</g>
<!-- BB16 -->
<g id="node17" class="node">
<title>BB16</title>
<ellipse fill="none" stroke="black" cx="1119.79" cy="-576.75" rx="108.38" ry="48.17"/>
<text text-anchor="middle" x="1119.79" y="-595.55" font-family="Times New Roman,serif" font-size="14.00">[78..7d)</text>
<text text-anchor="middle" x="1119.79" y="-580.55" font-family="Times New Roman,serif" font-size="14.00">Count: 348</text>
<text text-anchor="middle" x="1119.79" y="-565.55" font-family="Times New Roman,serif" font-size="14.00">Normalized count: 87.00</text>
<text text-anchor="middle" x="1119.79" y="-550.55" font-family="Times New Roman,serif" font-size="14.00">Samples weight: 0.12</text>
</g>
<!-- BB12&#45;&gt;BB16 -->
<g id="edge17" class="edge">
<title>BB12&#45;&gt;BB16</title>
<path fill="none" stroke="black" d="M1103.82,-660.92C1105.46,-652.35 1107.19,-643.33 1108.89,-634.51"/>
<polygon fill="black" stroke="black" points="1112.33,-635.15 1110.78,-624.67 1105.45,-633.83 1112.33,-635.15"/>
</g>
<!-- BB13 -->
<g id="node14" class="node">
<title>BB13</title>
<ellipse fill="none" stroke="black" cx="1143.79" cy="-444.58" rx="108.38" ry="48.17"/>
<text text-anchor="middle" x="1143.79" y="-463.38" font-family="Times New Roman,serif" font-size="14.00">[5f..6a)</text>
<text text-anchor="middle" x="1143.79" y="-448.38" font-family="Times New Roman,serif" font-size="14.00">Count: 346</text>
<text text-anchor="middle" x="1143.79" y="-433.38" font-family="Times New Roman,serif" font-size="14.00">Normalized count: 86.50</text>
<text text-anchor="middle" x="1143.79" y="-418.38" font-family="Times New Roman,serif" font-size="14.00">Samples weight: 0.12</text>
</g>
<!-- BB14 -->
<g id="node15" class="node">
<title>BB14</title>
<ellipse fill="none" stroke="black" cx="1140.79" cy="-312.42" rx="103.48" ry="48.17"/>
<text text-anchor="middle" x="1140.79" y="-331.22" font-family="Times New Roman,serif" font-size="14.00">[6a..73)</text>
<text text-anchor="middle" x="1140.79" y="-316.22" font-family="Times New Roman,serif" font-size="14.00">Count: 13</text>
<text text-anchor="middle" x="1140.79" y="-301.22" font-family="Times New Roman,serif" font-size="14.00">Normalized count: 3.25</text>
<text text-anchor="middle" x="1140.79" y="-286.22" font-family="Times New Roman,serif" font-size="14.00">Samples weight: 0.00</text>
</g>
<!-- BB13&#45;&gt;BB14 -->
<g id="edge19" class="edge">
<title>BB13&#45;&gt;BB14</title>
<path fill="none" stroke="black" d="M1142.7,-396.22C1142.51,-387.95 1142.31,-379.27 1142.11,-370.77"/>
<polygon fill="black" stroke="black" points="1145.6,-370.44 1141.88,-360.52 1138.61,-370.6 1145.6,-370.44"/>
</g>
<!-- BB15 -->
<g id="node16" class="node">
<title>BB15</title>
<ellipse fill="none" stroke="black" cx="1369.79" cy="-312.42" rx="108.38" ry="48.17"/>
<text text-anchor="middle" x="1369.79" y="-331.22" font-family="Times New Roman,serif" font-size="14.00">[73..78)</text>
<text text-anchor="middle" x="1369.79" y="-316.22" font-family="Times New Roman,serif" font-size="14.00">Count: 346</text>
<text text-anchor="middle" x="1369.79" y="-301.22" font-family="Times New Roman,serif" font-size="14.00">Normalized count: 86.50</text>
<text text-anchor="middle" x="1369.79" y="-286.22" font-family="Times New Roman,serif" font-size="14.00">Samples weight: 0.12</text>
</g>
<!-- BB13&#45;&gt;BB15 -->
<g id="edge18" class="edge">
<title>BB13&#45;&gt;BB15</title>
<path fill="none" stroke="black" d="M1208.85,-406.11C1235.92,-390.52 1267.48,-372.34 1295.46,-356.23"/>
<polygon fill="black" stroke="black" points="1297.48,-359.1 1304.4,-351.08 1293.99,-353.04 1297.48,-359.1"/>
</g>
<!-- BB14&#45;&gt;BB15 -->
<g id="edge20" class="edge">
<title>BB14&#45;&gt;BB15</title>
<path fill="none" stroke="black" d="M1244.11,-312.42C1246.43,-312.42 1248.76,-312.42 1251.09,-312.42"/>
<polygon fill="black" stroke="black" points="1251.29,-315.92 1261.29,-312.42 1251.29,-308.92 1251.29,-315.92"/>
</g>
<!-- BB15&#45;&gt;BB16 -->
<g id="edge21" class="edge">
<title>BB15&#45;&gt;BB16</title>
<path fill="none" stroke="black" d="M1349.58,-359.65C1330.83,-398.62 1299.95,-454.05 1260.79,-492.67 1243.8,-509.42 1222.77,-524.13 1202.2,-536.33"/>
<polygon fill="black" stroke="black" points="1200.33,-533.37 1193.42,-541.4 1203.83,-539.43 1200.33,-533.37"/>
</g>
<!-- BB16&#45;&gt;BB13 -->
<g id="edge22" class="edge">
<title>BB16&#45;&gt;BB13</title>
<path fill="none" stroke="black" d="M1128.45,-528.76C1130,-520.38 1131.62,-511.57 1133.21,-502.95"/>
<polygon fill="black" stroke="black" points="1136.69,-503.41 1135.06,-492.94 1129.8,-502.14 1136.69,-503.41"/>
</g>
<!-- BB17 -->
<g id="node18" class="node">
<title>BB17</title>
<ellipse fill="none" stroke="black" cx="914.79" cy="-444.58" rx="103.48" ry="48.17"/>
<text text-anchor="middle" x="914.79" y="-463.38" font-family="Times New Roman,serif" font-size="14.00">[7d..80)</text>
<text text-anchor="middle" x="914.79" y="-448.38" font-family="Times New Roman,serif" font-size="14.00">Count: 2</text>
<text text-anchor="middle" x="914.79" y="-433.38" font-family="Times New Roman,serif" font-size="14.00">Normalized count: 0.50</text>
<text text-anchor="middle" x="914.79" y="-418.38" font-family="Times New Roman,serif" font-size="14.00">Samples weight: 0.00</text>
</g>
<!-- BB16&#45;&gt;BB17 -->
<g id="edge23" class="edge">
<title>BB16&#45;&gt;BB17</title>
<path fill="none" stroke="black" d="M1058.56,-536.87C1034.92,-521.86 1007.76,-504.62 983.46,-489.19"/>
<polygon fill="black" stroke="black" points="985.32,-486.22 975,-483.81 981.56,-492.13 985.32,-486.22"/>
</g>
<!-- BB18 -->
<g id="node19" class="node">
<title>BB18</title>
<ellipse fill="none" stroke="black" cx="916.79" cy="-312.42" rx="103.48" ry="48.17"/>
<text text-anchor="middle" x="916.79" y="-331.22" font-family="Times New Roman,serif" font-size="14.00">[80..84)</text>
<text text-anchor="middle" x="916.79" y="-316.22" font-family="Times New Roman,serif" font-size="14.00">Count: 1</text>
<text text-anchor="middle" x="916.79" y="-301.22" font-family="Times New Roman,serif" font-size="14.00">Normalized count: 0.25</text>
<text text-anchor="middle" x="916.79" y="-286.22" font-family="Times New Roman,serif" font-size="14.00">Samples weight: 0.00</text>
</g>
<!-- BB17&#45;&gt;BB18 -->
<g id="edge25" class="edge">
<title>BB17&#45;&gt;BB18</title>
<path fill="none" stroke="black" d="M915.52,-396.22C915.64,-387.95 915.78,-379.27 915.91,-370.77"/>
<polygon fill="black" stroke="black" points="919.41,-370.58 916.07,-360.52 912.41,-370.47 919.41,-370.58"/>
</g>
<!-- BB21 -->
<g id="node22" class="node">
<title>BB21</title>
<ellipse fill="none" stroke="black" cx="692.79" cy="-312.42" rx="103.48" ry="48.17"/>
<text text-anchor="middle" x="692.79" y="-331.22" font-family="Times New Roman,serif" font-size="14.00">[9b..a0)</text>
<text text-anchor="middle" x="692.79" y="-316.22" font-family="Times New Roman,serif" font-size="14.00">Count: 2</text>
<text text-anchor="middle" x="692.79" y="-301.22" font-family="Times New Roman,serif" font-size="14.00">Normalized count: 0.50</text>
<text text-anchor="middle" x="692.79" y="-286.22" font-family="Times New Roman,serif" font-size="14.00">Samples weight: 0.00</text>
</g>
<!-- BB17&#45;&gt;BB21 -->
<g id="edge24" class="edge">
<title>BB17&#45;&gt;BB21</title>
<path fill="none" stroke="black" d="M851.47,-406.46C824.53,-390.66 792.95,-372.15 765.1,-355.81"/>
<polygon fill="black" stroke="black" points="766.59,-352.63 756.19,-350.59 763.05,-358.67 766.59,-352.63"/>
</g>
<!-- BB20 -->
<g id="node21" class="node">
<title>BB20</title>
<ellipse fill="none" stroke="black" cx="804.79" cy="-180.25" rx="108.38" ry="48.17"/>
<text text-anchor="middle" x="804.79" y="-199.05" font-family="Times New Roman,serif" font-size="14.00">[96..9b)</text>
<text text-anchor="middle" x="804.79" y="-184.05" font-family="Times New Roman,serif" font-size="14.00">Count: 118</text>
<text text-anchor="middle" x="804.79" y="-169.05" font-family="Times New Roman,serif" font-size="14.00">Normalized count: 29.50</text>
<text text-anchor="middle" x="804.79" y="-154.05" font-family="Times New Roman,serif" font-size="14.00">Samples weight: 0.04</text>
</g>
<!-- BB18&#45;&gt;BB20 -->
<g id="edge26" class="edge">
<title>BB18&#45;&gt;BB20</title>
<path fill="none" stroke="black" d="M878.87,-267.35C869.49,-256.44 859.34,-244.65 849.66,-233.4"/>
<polygon fill="black" stroke="black" points="852.23,-231.01 843.05,-225.72 846.92,-235.58 852.23,-231.01"/>
</g>
<!-- BB19 -->
<g id="node20" class="node">
<title>BB19</title>
<ellipse fill="none" stroke="black" cx="804.79" cy="-48.08" rx="108.38" ry="48.17"/>
<text text-anchor="middle" x="804.79" y="-66.88" font-family="Times New Roman,serif" font-size="14.00">[84..96)</text>
<text text-anchor="middle" x="804.79" y="-51.88" font-family="Times New Roman,serif" font-size="14.00">Count: 117</text>
<text text-anchor="middle" x="804.79" y="-36.88" font-family="Times New Roman,serif" font-size="14.00">Normalized count: 29.25</text>
<text text-anchor="middle" x="804.79" y="-21.88" font-family="Times New Roman,serif" font-size="14.00">Samples weight: 0.04</text>
</g>
<!-- BB19&#45;&gt;BB20 -->
<g id="edge27" class="edge">
<title>BB19&#45;&gt;BB20</title>
<path fill="none" stroke="black" d="M811.31,-96.19C811.53,-104.45 811.59,-113.13 811.5,-121.64"/>
<polygon fill="black" stroke="black" points="808,-121.83 811.31,-131.89 814.99,-121.95 808,-121.83"/>
</g>
<!-- BB20&#45;&gt;BB19 -->
<g id="edge28" class="edge">
<title>BB20&#45;&gt;BB19</title>
<path fill="none" stroke="black" d="M798.27,-131.89C798.05,-123.62 797.99,-114.94 798.08,-106.43"/>
<polygon fill="black" stroke="black" points="801.59,-106.26 798.27,-96.19 794.59,-106.12 801.59,-106.26"/>
</g>
<!-- BB20&#45;&gt;BB21 -->
<g id="edge29" class="edge">
<title>BB20&#45;&gt;BB21</title>
<path fill="none" stroke="black" d="M766.53,-225.72C757.13,-236.64 746.98,-248.44 737.31,-259.67"/>
<polygon fill="black" stroke="black" points="734.58,-257.48 730.71,-267.35 739.88,-262.05 734.58,-257.48"/>
</g>
<!-- BB21&#45;&gt;BB22 -->
<g id="edge30" class="edge">
<title>BB21&#45;&gt;BB22</title>
<path fill="none" stroke="black" d="M709.15,-360C712.79,-371.79 716.31,-384.51 718.79,-396.5 751.45,-554.26 708.36,-603.34 756.79,-757 759.8,-766.55 763.97,-776.25 768.59,-785.49"/>
<polygon fill="black" stroke="black" points="765.59,-787.3 773.32,-794.54 771.79,-784.06 765.59,-787.3"/>
</g>
<!-- BB22&#45;&gt;BB12 -->
<g id="edge31" class="edge">
<title>BB22&#45;&gt;BB12</title>
<path fill="none" stroke="black" d="M876.47,-807.24C917.71,-788.85 969.25,-765.88 1011.89,-746.87"/>
<polygon fill="black" stroke="black" points="1013.42,-750.02 1021.13,-742.75 1010.57,-743.63 1013.42,-750.02"/>
</g>
<!-- BB23 -->
<g id="node24" class="node">
<title>BB23</title>
<ellipse fill="none" stroke="black" cx="868.79" cy="-708.92" rx="103.48" ry="48.17"/>
<text text-anchor="middle" x="868.79" y="-727.72" font-family="Times New Roman,serif" font-size="14.00">[a5..a6)</text>
<text text-anchor="middle" x="868.79" y="-712.72" font-family="Times New Roman,serif" font-size="14.00">Count: 4</text>
<text text-anchor="middle" x="868.79" y="-697.72" font-family="Times New Roman,serif" font-size="14.00">Normalized count: 1.00</text>
<text text-anchor="middle" x="868.79" y="-682.72" font-family="Times New Roman,serif" font-size="14.00">Samples weight: 0.00</text>
</g>
<!-- BB22&#45;&gt;BB23 -->
<g id="edge32" class="edge">
<title>BB22&#45;&gt;BB23</title>
<path fill="none" stroke="black" d="M826.06,-794.19C830.84,-784.76 835.92,-774.74 840.85,-765.03"/>
<polygon fill="black" stroke="black" points="844.11,-766.33 845.51,-755.83 837.86,-763.17 844.11,-766.33"/>
</g>
</g>
</svg>
