<?xml version="1.0" encoding="UTF-8" standalone="no"?>
<!DOCTYPE svg PUBLIC "-//W3C//DTD SVG 1.1//EN"
 "http://www.w3.org/Graphics/SVG/1.1/DTD/svg11.dtd">
<!-- Generated by graphviz version 2.47.0 (20210316.0004)
 -->
<!-- Title: G Pages: 1 -->
<svg width="1589pt" height="1294pt"
 viewBox="0.00 0.00 1588.98 1293.67" xmlns="http://www.w3.org/2000/svg" xmlns:xlink="http://www.w3.org/1999/xlink">
<g id="graph0" class="graph" transform="scale(1 1) rotate(0) translate(4 1289.67)">
<title>G</title>
<polygon fill="white" stroke="transparent" points="-4,4 -4,-1289.67 1584.98,-1289.67 1584.98,4 -4,4"/>
<!-- BB0 -->
<g id="node1" class="node">
<title>BB0</title>
<ellipse fill="none" stroke="black" cx="425.13" cy="-1237.58" rx="104.8" ry="48.17"/>
<text text-anchor="middle" x="425.13" y="-1256.38" font-family="Times New Roman,serif" font-size="14.00">[0..4)</text>
<text text-anchor="middle" x="425.13" y="-1241.38" font-family="Times New Roman,serif" font-size="14.00">Count: 0</text>
<text text-anchor="middle" x="425.13" y="-1226.38" font-family="Times New Roman,serif" font-size="14.00">Normalized count: NaN</text>
<text text-anchor="middle" x="425.13" y="-1211.38" font-family="Times New Roman,serif" font-size="14.00">Samples weight: 0.00</text>
</g>
<!-- BB10 -->
<g id="node11" class="node">
<title>BB10</title>
<ellipse fill="none" stroke="black" cx="425.13" cy="-1105.42" rx="113.69" ry="48.17"/>
<text text-anchor="middle" x="425.13" y="-1124.22" font-family="Times New Roman,serif" font-size="14.00">[4c..51)</text>
<text text-anchor="middle" x="425.13" y="-1109.22" font-family="Times New Roman,serif" font-size="14.00">Count: 2</text>
<text text-anchor="middle" x="425.13" y="-1094.22" font-family="Times New Roman,serif" font-size="14.00">Normalized count: Infinity</text>
<text text-anchor="middle" x="425.13" y="-1079.22" font-family="Times New Roman,serif" font-size="14.00">Samples weight: 0.00</text>
</g>
<!-- BB0&#45;&gt;BB10 -->
<g id="edge1" class="edge">
<title>BB0&#45;&gt;BB10</title>
<path fill="none" stroke="black" d="M425.13,-1189.22C425.13,-1180.95 425.13,-1172.27 425.13,-1163.77"/>
<polygon fill="black" stroke="black" points="428.63,-1163.52 425.13,-1153.52 421.63,-1163.52 428.63,-1163.52"/>
</g>
<!-- BB1 -->
<g id="node2" class="node">
<title>BB1</title>
<ellipse fill="none" stroke="black" cx="425.13" cy="-973.25" rx="113.69" ry="48.17"/>
<text text-anchor="middle" x="425.13" y="-992.05" font-family="Times New Roman,serif" font-size="14.00">[4..e)</text>
<text text-anchor="middle" x="425.13" y="-977.05" font-family="Times New Roman,serif" font-size="14.00">Count: 3</text>
<text text-anchor="middle" x="425.13" y="-962.05" font-family="Times New Roman,serif" font-size="14.00">Normalized count: Infinity</text>
<text text-anchor="middle" x="425.13" y="-947.05" font-family="Times New Roman,serif" font-size="14.00">Samples weight: 0.00</text>
</g>
<!-- BB5 -->
<g id="node6" class="node">
<title>BB5</title>
<ellipse fill="none" stroke="black" cx="425.13" cy="-841.08" rx="113.69" ry="48.17"/>
<text text-anchor="middle" x="425.13" y="-859.88" font-family="Times New Roman,serif" font-size="14.00">[27..2c)</text>
<text text-anchor="middle" x="425.13" y="-844.88" font-family="Times New Roman,serif" font-size="14.00">Count: 177</text>
<text text-anchor="middle" x="425.13" y="-829.88" font-family="Times New Roman,serif" font-size="14.00">Normalized count: Infinity</text>
<text text-anchor="middle" x="425.13" y="-814.88" font-family="Times New Roman,serif" font-size="14.00">Samples weight: 0.09</text>
</g>
<!-- BB1&#45;&gt;BB5 -->
<g id="edge2" class="edge">
<title>BB1&#45;&gt;BB5</title>
<path fill="none" stroke="black" d="M425.13,-924.89C425.13,-916.62 425.13,-907.94 425.13,-899.43"/>
<polygon fill="black" stroke="black" points="428.63,-899.19 425.13,-889.19 421.63,-899.19 428.63,-899.19"/>
</g>
<!-- BB2 -->
<g id="node3" class="node">
<title>BB2</title>
<ellipse fill="none" stroke="black" cx="283.13" cy="-708.92" rx="113.69" ry="48.17"/>
<text text-anchor="middle" x="283.13" y="-727.72" font-family="Times New Roman,serif" font-size="14.00">[e..19)</text>
<text text-anchor="middle" x="283.13" y="-712.72" font-family="Times New Roman,serif" font-size="14.00">Count: 352</text>
<text text-anchor="middle" x="283.13" y="-697.72" font-family="Times New Roman,serif" font-size="14.00">Normalized count: Infinity</text>
<text text-anchor="middle" x="283.13" y="-682.72" font-family="Times New Roman,serif" font-size="14.00">Samples weight: 0.17</text>
</g>
<!-- BB3 -->
<g id="node4" class="node">
<title>BB3</title>
<ellipse fill="none" stroke="black" cx="150.13" cy="-576.75" rx="113.69" ry="48.17"/>
<text text-anchor="middle" x="150.13" y="-595.55" font-family="Times New Roman,serif" font-size="14.00">[19..22)</text>
<text text-anchor="middle" x="150.13" y="-580.55" font-family="Times New Roman,serif" font-size="14.00">Count: 18</text>
<text text-anchor="middle" x="150.13" y="-565.55" font-family="Times New Roman,serif" font-size="14.00">Normalized count: Infinity</text>
<text text-anchor="middle" x="150.13" y="-550.55" font-family="Times New Roman,serif" font-size="14.00">Samples weight: 0.01</text>
</g>
<!-- BB2&#45;&gt;BB3 -->
<g id="edge4" class="edge">
<title>BB2&#45;&gt;BB3</title>
<path fill="none" stroke="black" d="M238.84,-664.57C227.08,-653.06 214.27,-640.52 202.13,-628.64"/>
<polygon fill="black" stroke="black" points="204.27,-625.84 194.68,-621.35 199.38,-630.84 204.27,-625.84"/>
</g>
<!-- BB4 -->
<g id="node5" class="node">
<title>BB4</title>
<ellipse fill="none" stroke="black" cx="396.13" cy="-576.75" rx="113.69" ry="48.17"/>
<text text-anchor="middle" x="396.13" y="-595.55" font-family="Times New Roman,serif" font-size="14.00">[22..27)</text>
<text text-anchor="middle" x="396.13" y="-580.55" font-family="Times New Roman,serif" font-size="14.00">Count: 174</text>
<text text-anchor="middle" x="396.13" y="-565.55" font-family="Times New Roman,serif" font-size="14.00">Normalized count: Infinity</text>
<text text-anchor="middle" x="396.13" y="-550.55" font-family="Times New Roman,serif" font-size="14.00">Samples weight: 0.08</text>
</g>
<!-- BB2&#45;&gt;BB4 -->
<g id="edge3" class="edge">
<title>BB2&#45;&gt;BB4</title>
<path fill="none" stroke="black" d="M321.7,-663.48C331.05,-652.71 341.14,-641.1 350.77,-630"/>
<polygon fill="black" stroke="black" points="353.44,-632.27 357.35,-622.42 348.15,-627.68 353.44,-632.27"/>
</g>
<!-- BB3&#45;&gt;BB4 -->
<g id="edge5" class="edge">
<title>BB3&#45;&gt;BB4</title>
<path fill="none" stroke="black" d="M264,-576.75C266.64,-576.75 269.27,-576.75 271.91,-576.75"/>
<polygon fill="black" stroke="black" points="272.07,-580.25 282.07,-576.75 272.07,-573.25 272.07,-580.25"/>
</g>
<!-- BB4&#45;&gt;BB5 -->
<g id="edge6" class="edge">
<title>BB4&#45;&gt;BB5</title>
<path fill="none" stroke="black" d="M401.96,-625.19C403.36,-636.84 404.82,-649.28 406.13,-660.83 410.74,-701.59 415.61,-747.59 419.27,-782.79"/>
<polygon fill="black" stroke="black" points="415.8,-783.3 420.31,-792.89 422.76,-782.58 415.8,-783.3"/>
</g>
<!-- BB5&#45;&gt;BB2 -->
<g id="edge7" class="edge">
<title>BB5&#45;&gt;BB2</title>
<path fill="none" stroke="black" d="M378.24,-797.1C365.16,-785.1 350.83,-771.97 337.36,-759.62"/>
<polygon fill="black" stroke="black" points="339.71,-757.03 329.97,-752.85 334.98,-762.19 339.71,-757.03"/>
</g>
<!-- BB6 -->
<g id="node7" class="node">
<title>BB6</title>
<ellipse fill="none" stroke="black" cx="614.13" cy="-708.92" rx="104.8" ry="48.17"/>
<text text-anchor="middle" x="614.13" y="-727.72" font-family="Times New Roman,serif" font-size="14.00">[2c..30)</text>
<text text-anchor="middle" x="614.13" y="-712.72" font-family="Times New Roman,serif" font-size="14.00">Count: 0</text>
<text text-anchor="middle" x="614.13" y="-697.72" font-family="Times New Roman,serif" font-size="14.00">Normalized count: NaN</text>
<text text-anchor="middle" x="614.13" y="-682.72" font-family="Times New Roman,serif" font-size="14.00">Samples weight: 0.00</text>
</g>
<!-- BB5&#45;&gt;BB6 -->
<g id="edge8" class="edge">
<title>BB5&#45;&gt;BB6</title>
<path fill="none" stroke="black" d="M483.64,-799.79C504.22,-785.62 527.47,-769.6 548.59,-755.06"/>
<polygon fill="black" stroke="black" points="550.62,-757.9 556.87,-749.35 546.65,-752.14 550.62,-757.9"/>
</g>
<!-- BB8 -->
<g id="node9" class="node">
<title>BB8</title>
<ellipse fill="none" stroke="black" cx="642.13" cy="-576.75" rx="113.69" ry="48.17"/>
<text text-anchor="middle" x="642.13" y="-595.55" font-family="Times New Roman,serif" font-size="14.00">[42..47)</text>
<text text-anchor="middle" x="642.13" y="-580.55" font-family="Times New Roman,serif" font-size="14.00">Count: 146</text>
<text text-anchor="middle" x="642.13" y="-565.55" font-family="Times New Roman,serif" font-size="14.00">Normalized count: Infinity</text>
<text text-anchor="middle" x="642.13" y="-550.55" font-family="Times New Roman,serif" font-size="14.00">Samples weight: 0.07</text>
</g>
<!-- BB6&#45;&gt;BB8 -->
<g id="edge9" class="edge">
<title>BB6&#45;&gt;BB8</title>
<path fill="none" stroke="black" d="M624.24,-660.92C626.08,-652.35 628.03,-643.33 629.92,-634.51"/>
<polygon fill="black" stroke="black" points="633.36,-635.19 632.04,-624.67 626.51,-633.71 633.36,-635.19"/>
</g>
<!-- BB7 -->
<g id="node8" class="node">
<title>BB7</title>
<ellipse fill="none" stroke="black" cx="642.13" cy="-444.58" rx="113.69" ry="48.17"/>
<text text-anchor="middle" x="642.13" y="-463.38" font-family="Times New Roman,serif" font-size="14.00">[30..42)</text>
<text text-anchor="middle" x="642.13" y="-448.38" font-family="Times New Roman,serif" font-size="14.00">Count: 299</text>
<text text-anchor="middle" x="642.13" y="-433.38" font-family="Times New Roman,serif" font-size="14.00">Normalized count: Infinity</text>
<text text-anchor="middle" x="642.13" y="-418.38" font-family="Times New Roman,serif" font-size="14.00">Samples weight: 0.15</text>
</g>
<!-- BB7&#45;&gt;BB8 -->
<g id="edge10" class="edge">
<title>BB7&#45;&gt;BB8</title>
<path fill="none" stroke="black" d="M648.65,-492.69C648.87,-500.95 648.93,-509.63 648.84,-518.14"/>
<polygon fill="black" stroke="black" points="645.34,-518.33 648.65,-528.39 652.34,-518.45 645.34,-518.33"/>
</g>
<!-- BB8&#45;&gt;BB7 -->
<g id="edge11" class="edge">
<title>BB8&#45;&gt;BB7</title>
<path fill="none" stroke="black" d="M635.61,-528.39C635.39,-520.12 635.33,-511.44 635.42,-502.93"/>
<polygon fill="black" stroke="black" points="638.93,-502.75 635.62,-492.69 631.93,-502.62 638.93,-502.75"/>
</g>
<!-- BB9 -->
<g id="node10" class="node">
<title>BB9</title>
<ellipse fill="none" stroke="black" cx="202.13" cy="-444.58" rx="113.69" ry="48.17"/>
<text text-anchor="middle" x="202.13" y="-463.38" font-family="Times New Roman,serif" font-size="14.00">[47..4c)</text>
<text text-anchor="middle" x="202.13" y="-448.38" font-family="Times New Roman,serif" font-size="14.00">Count: 2</text>
<text text-anchor="middle" x="202.13" y="-433.38" font-family="Times New Roman,serif" font-size="14.00">Normalized count: Infinity</text>
<text text-anchor="middle" x="202.13" y="-418.38" font-family="Times New Roman,serif" font-size="14.00">Samples weight: 0.00</text>
</g>
<!-- BB8&#45;&gt;BB9 -->
<g id="edge12" class="edge">
<title>BB8&#45;&gt;BB9</title>
<path fill="none" stroke="black" d="M560.53,-543.09C546.8,-538 532.63,-533 519.13,-528.67 450.62,-506.65 372.43,-486.11 310.84,-470.96"/>
<polygon fill="black" stroke="black" points="311.65,-467.55 301.1,-468.57 309.98,-474.35 311.65,-467.55"/>
</g>
<!-- BB9&#45;&gt;BB10 -->
<g id="edge13" class="edge">
<title>BB9&#45;&gt;BB10</title>
<path fill="none" stroke="black" d="M106.21,-470.73C76.3,-483.3 46.19,-501.78 27.13,-528.67 -19.19,-594.03 8.13,-627.8 8.13,-707.92 8.13,-842.08 8.13,-842.08 8.13,-842.08 8.13,-985.73 187.62,-1053.81 311.08,-1083.64"/>
<polygon fill="black" stroke="black" points="310.44,-1087.09 320.98,-1085.98 312.05,-1080.28 310.44,-1087.09"/>
</g>
<!-- BB10&#45;&gt;BB1 -->
<g id="edge14" class="edge">
<title>BB10&#45;&gt;BB1</title>
<path fill="none" stroke="black" d="M425.13,-1057.05C425.13,-1048.79 425.13,-1040.1 425.13,-1031.6"/>
<polygon fill="black" stroke="black" points="428.63,-1031.36 425.13,-1021.36 421.63,-1031.36 428.63,-1031.36"/>
</g>
<!-- BB11 -->
<g id="node12" class="node">
<title>BB11</title>
<ellipse fill="none" stroke="black" cx="789.13" cy="-973.25" rx="104.8" ry="48.17"/>
<text text-anchor="middle" x="789.13" y="-992.05" font-family="Times New Roman,serif" font-size="14.00">[51..55)</text>
<text text-anchor="middle" x="789.13" y="-977.05" font-family="Times New Roman,serif" font-size="14.00">Count: 0</text>
<text text-anchor="middle" x="789.13" y="-962.05" font-family="Times New Roman,serif" font-size="14.00">Normalized count: NaN</text>
<text text-anchor="middle" x="789.13" y="-947.05" font-family="Times New Roman,serif" font-size="14.00">Samples weight: 0.00</text>
</g>
<!-- BB10&#45;&gt;BB11 -->
<g id="edge15" class="edge">
<title>BB10&#45;&gt;BB11</title>
<path fill="none" stroke="black" d="M510.93,-1073.73C567.06,-1053.66 640.32,-1027.46 697.58,-1006.99"/>
<polygon fill="black" stroke="black" points="699.11,-1010.16 707.34,-1003.5 696.75,-1003.57 699.11,-1010.16"/>
</g>
<!-- BB22 -->
<g id="node23" class="node">
<title>BB22</title>
<ellipse fill="none" stroke="black" cx="850.13" cy="-841.08" rx="104.8" ry="48.17"/>
<text text-anchor="middle" x="850.13" y="-859.88" font-family="Times New Roman,serif" font-size="14.00">[a0..a5)</text>
<text text-anchor="middle" x="850.13" y="-844.88" font-family="Times New Roman,serif" font-size="14.00">Count: 0</text>
<text text-anchor="middle" x="850.13" y="-829.88" font-family="Times New Roman,serif" font-size="14.00">Normalized count: NaN</text>
<text text-anchor="middle" x="850.13" y="-814.88" font-family="Times New Roman,serif" font-size="14.00">Samples weight: 0.00</text>
</g>
<!-- BB11&#45;&gt;BB22 -->
<g id="edge16" class="edge">
<title>BB11&#45;&gt;BB22</title>
<path fill="none" stroke="black" d="M810.81,-925.99C815.17,-916.69 819.79,-906.82 824.28,-897.25"/>
<polygon fill="black" stroke="black" points="827.45,-898.73 828.52,-888.19 821.11,-895.76 827.45,-898.73"/>
</g>
<!-- BB12 -->
<g id="node13" class="node">
<title>BB12</title>
<ellipse fill="none" stroke="black" cx="1195.13" cy="-708.92" rx="104.8" ry="48.17"/>
<text text-anchor="middle" x="1195.13" y="-727.72" font-family="Times New Roman,serif" font-size="14.00">[55..5f)</text>
<text text-anchor="middle" x="1195.13" y="-712.72" font-family="Times New Roman,serif" font-size="14.00">Count: 0</text>
<text text-anchor="middle" x="1195.13" y="-697.72" font-family="Times New Roman,serif" font-size="14.00">Normalized count: NaN</text>
<text text-anchor="middle" x="1195.13" y="-682.72" font-family="Times New Roman,serif" font-size="14.00">Samples weight: 0.00</text>
</g>
<!-- BB16 -->
<g id="node17" class="node">
<title>BB16</title>
<ellipse fill="none" stroke="black" cx="1208.13" cy="-576.75" rx="113.69" ry="48.17"/>
<text text-anchor="middle" x="1208.13" y="-595.55" font-family="Times New Roman,serif" font-size="14.00">[78..7d)</text>
<text text-anchor="middle" x="1208.13" y="-580.55" font-family="Times New Roman,serif" font-size="14.00">Count: 172</text>
<text text-anchor="middle" x="1208.13" y="-565.55" font-family="Times New Roman,serif" font-size="14.00">Normalized count: Infinity</text>
<text text-anchor="middle" x="1208.13" y="-550.55" font-family="Times New Roman,serif" font-size="14.00">Samples weight: 0.08</text>
</g>
<!-- BB12&#45;&gt;BB16 -->
<g id="edge17" class="edge">
<title>BB12&#45;&gt;BB16</title>
<path fill="none" stroke="black" d="M1199.86,-660.55C1200.7,-652.2 1201.57,-643.41 1202.43,-634.82"/>
<polygon fill="black" stroke="black" points="1205.92,-635.16 1203.43,-624.86 1198.95,-634.46 1205.92,-635.16"/>
</g>
<!-- BB13 -->
<g id="node14" class="node">
<title>BB13</title>
<ellipse fill="none" stroke="black" cx="1221.13" cy="-444.58" rx="113.69" ry="48.17"/>
<text text-anchor="middle" x="1221.13" y="-463.38" font-family="Times New Roman,serif" font-size="14.00">[5f..6a)</text>
<text text-anchor="middle" x="1221.13" y="-448.38" font-family="Times New Roman,serif" font-size="14.00">Count: 346</text>
<text text-anchor="middle" x="1221.13" y="-433.38" font-family="Times New Roman,serif" font-size="14.00">Normalized count: Infinity</text>
<text text-anchor="middle" x="1221.13" y="-418.38" font-family="Times New Roman,serif" font-size="14.00">Samples weight: 0.17</text>
</g>
<!-- BB14 -->
<g id="node15" class="node">
<title>BB14</title>
<ellipse fill="none" stroke="black" cx="1221.13" cy="-312.42" rx="113.69" ry="48.17"/>
<text text-anchor="middle" x="1221.13" y="-331.22" font-family="Times New Roman,serif" font-size="14.00">[6a..73)</text>
<text text-anchor="middle" x="1221.13" y="-316.22" font-family="Times New Roman,serif" font-size="14.00">Count: 13</text>
<text text-anchor="middle" x="1221.13" y="-301.22" font-family="Times New Roman,serif" font-size="14.00">Normalized count: Infinity</text>
<text text-anchor="middle" x="1221.13" y="-286.22" font-family="Times New Roman,serif" font-size="14.00">Samples weight: 0.01</text>
</g>
<!-- BB13&#45;&gt;BB14 -->
<g id="edge19" class="edge">
<title>BB13&#45;&gt;BB14</title>
<path fill="none" stroke="black" d="M1221.13,-396.22C1221.13,-387.95 1221.13,-379.27 1221.13,-370.77"/>
<polygon fill="black" stroke="black" points="1224.63,-370.52 1221.13,-360.52 1217.63,-370.52 1224.63,-370.52"/>
</g>
<!-- BB15 -->
<g id="node16" class="node">
<title>BB15</title>
<ellipse fill="none" stroke="black" cx="1467.13" cy="-312.42" rx="113.69" ry="48.17"/>
<text text-anchor="middle" x="1467.13" y="-331.22" font-family="Times New Roman,serif" font-size="14.00">[73..78)</text>
<text text-anchor="middle" x="1467.13" y="-316.22" font-family="Times New Roman,serif" font-size="14.00">Count: 172</text>
<text text-anchor="middle" x="1467.13" y="-301.22" font-family="Times New Roman,serif" font-size="14.00">Normalized count: Infinity</text>
<text text-anchor="middle" x="1467.13" y="-286.22" font-family="Times New Roman,serif" font-size="14.00">Samples weight: 0.08</text>
</g>
<!-- BB13&#45;&gt;BB15 -->
<g id="edge18" class="edge">
<title>BB13&#45;&gt;BB15</title>
<path fill="none" stroke="black" d="M1291.3,-406.46C1321.41,-390.52 1356.75,-371.82 1387.81,-355.39"/>
<polygon fill="black" stroke="black" points="1389.67,-358.36 1396.87,-350.59 1386.4,-352.18 1389.67,-358.36"/>
</g>
<!-- BB14&#45;&gt;BB15 -->
<g id="edge20" class="edge">
<title>BB14&#45;&gt;BB15</title>
<path fill="none" stroke="black" d="M1335,-312.42C1337.64,-312.42 1340.27,-312.42 1342.91,-312.42"/>
<polygon fill="black" stroke="black" points="1343.07,-315.92 1353.07,-312.42 1343.07,-308.92 1343.07,-315.92"/>
</g>
<!-- BB15&#45;&gt;BB16 -->
<g id="edge21" class="edge">
<title>BB15&#45;&gt;BB16</title>
<path fill="none" stroke="black" d="M1442.68,-359.74C1420.61,-398.5 1385.35,-453.58 1344.13,-492.67 1327.85,-508.1 1308.24,-522.1 1289.05,-534.01"/>
<polygon fill="black" stroke="black" points="1287,-531.16 1280.27,-539.34 1290.63,-537.14 1287,-531.16"/>
</g>
<!-- BB16&#45;&gt;BB13 -->
<g id="edge22" class="edge">
<title>BB16&#45;&gt;BB13</title>
<path fill="none" stroke="black" d="M1212.86,-528.39C1213.7,-520.03 1214.57,-511.25 1215.43,-502.65"/>
<polygon fill="black" stroke="black" points="1218.92,-502.99 1216.43,-492.69 1211.95,-502.29 1218.92,-502.99"/>
</g>
<!-- BB17 -->
<g id="node18" class="node">
<title>BB17</title>
<ellipse fill="none" stroke="black" cx="985.13" cy="-444.58" rx="104.8" ry="48.17"/>
<text text-anchor="middle" x="985.13" y="-463.38" font-family="Times New Roman,serif" font-size="14.00">[7d..80)</text>
<text text-anchor="middle" x="985.13" y="-448.38" font-family="Times New Roman,serif" font-size="14.00">Count: 0</text>
<text text-anchor="middle" x="985.13" y="-433.38" font-family="Times New Roman,serif" font-size="14.00">Normalized count: NaN</text>
<text text-anchor="middle" x="985.13" y="-418.38" font-family="Times New Roman,serif" font-size="14.00">Samples weight: 0.00</text>
</g>
<!-- BB16&#45;&gt;BB17 -->
<g id="edge23" class="edge">
<title>BB16&#45;&gt;BB17</title>
<path fill="none" stroke="black" d="M1142.43,-537.4C1115.77,-521.84 1084.87,-503.8 1057.56,-487.86"/>
<polygon fill="black" stroke="black" points="1059.23,-484.78 1048.83,-482.76 1055.7,-490.83 1059.23,-484.78"/>
</g>
<!-- BB18 -->
<g id="node19" class="node">
<title>BB18</title>
<ellipse fill="none" stroke="black" cx="985.13" cy="-312.42" rx="104.8" ry="48.17"/>
<text text-anchor="middle" x="985.13" y="-331.22" font-family="Times New Roman,serif" font-size="14.00">[80..84)</text>
<text text-anchor="middle" x="985.13" y="-316.22" font-family="Times New Roman,serif" font-size="14.00">Count: 0</text>
<text text-anchor="middle" x="985.13" y="-301.22" font-family="Times New Roman,serif" font-size="14.00">Normalized count: NaN</text>
<text text-anchor="middle" x="985.13" y="-286.22" font-family="Times New Roman,serif" font-size="14.00">Samples weight: 0.00</text>
</g>
<!-- BB17&#45;&gt;BB18 -->
<g id="edge25" class="edge">
<title>BB17&#45;&gt;BB18</title>
<path fill="none" stroke="black" d="M985.13,-396.22C985.13,-387.95 985.13,-379.27 985.13,-370.77"/>
<polygon fill="black" stroke="black" points="988.63,-370.52 985.13,-360.52 981.63,-370.52 988.63,-370.52"/>
</g>
<!-- BB21 -->
<g id="node22" class="node">
<title>BB21</title>
<ellipse fill="none" stroke="black" cx="758.13" cy="-312.42" rx="104.8" ry="48.17"/>
<text text-anchor="middle" x="758.13" y="-331.22" font-family="Times New Roman,serif" font-size="14.00">[9b..a0)</text>
<text text-anchor="middle" x="758.13" y="-316.22" font-family="Times New Roman,serif" font-size="14.00">Count: 0</text>
<text text-anchor="middle" x="758.13" y="-301.22" font-family="Times New Roman,serif" font-size="14.00">Normalized count: NaN</text>
<text text-anchor="middle" x="758.13" y="-286.22" font-family="Times New Roman,serif" font-size="14.00">Samples weight: 0.00</text>
</g>
<!-- BB17&#45;&gt;BB21 -->
<g id="edge24" class="edge">
<title>BB17&#45;&gt;BB21</title>
<path fill="none" stroke="black" d="M920.69,-406.63C892.89,-390.69 860.24,-371.97 831.51,-355.49"/>
<polygon fill="black" stroke="black" points="833.15,-352.4 822.73,-350.46 829.67,-358.47 833.15,-352.4"/>
</g>
<!-- BB20 -->
<g id="node21" class="node">
<title>BB20</title>
<ellipse fill="none" stroke="black" cx="871.13" cy="-180.25" rx="113.69" ry="48.17"/>
<text text-anchor="middle" x="871.13" y="-199.05" font-family="Times New Roman,serif" font-size="14.00">[96..9b)</text>
<text text-anchor="middle" x="871.13" y="-184.05" font-family="Times New Roman,serif" font-size="14.00">Count: 59</text>
<text text-anchor="middle" x="871.13" y="-169.05" font-family="Times New Roman,serif" font-size="14.00">Normalized count: Infinity</text>
<text text-anchor="middle" x="871.13" y="-154.05" font-family="Times New Roman,serif" font-size="14.00">Samples weight: 0.03</text>
</g>
<!-- BB18&#45;&gt;BB20 -->
<g id="edge26" class="edge">
<title>BB18&#45;&gt;BB20</title>
<path fill="none" stroke="black" d="M946.54,-267.35C936.98,-256.44 926.66,-244.65 916.81,-233.4"/>
<polygon fill="black" stroke="black" points="919.3,-230.93 910.08,-225.72 914.03,-235.54 919.3,-230.93"/>
</g>
<!-- BB19 -->
<g id="node20" class="node">
<title>BB19</title>
<ellipse fill="none" stroke="black" cx="871.13" cy="-48.08" rx="113.69" ry="48.17"/>
<text text-anchor="middle" x="871.13" y="-66.88" font-family="Times New Roman,serif" font-size="14.00">[84..96)</text>
<text text-anchor="middle" x="871.13" y="-51.88" font-family="Times New Roman,serif" font-size="14.00">Count: 117</text>
<text text-anchor="middle" x="871.13" y="-36.88" font-family="Times New Roman,serif" font-size="14.00">Normalized count: Infinity</text>
<text text-anchor="middle" x="871.13" y="-21.88" font-family="Times New Roman,serif" font-size="14.00">Samples weight: 0.06</text>
</g>
<!-- BB19&#45;&gt;BB20 -->
<g id="edge27" class="edge">
<title>BB19&#45;&gt;BB20</title>
<path fill="none" stroke="black" d="M877.65,-96.19C877.87,-104.45 877.93,-113.13 877.84,-121.64"/>
<polygon fill="black" stroke="black" points="874.34,-121.83 877.65,-131.89 881.34,-121.95 874.34,-121.83"/>
</g>
<!-- BB20&#45;&gt;BB19 -->
<g id="edge28" class="edge">
<title>BB20&#45;&gt;BB19</title>
<path fill="none" stroke="black" d="M864.61,-131.89C864.39,-123.62 864.33,-114.94 864.42,-106.43"/>
<polygon fill="black" stroke="black" points="867.93,-106.26 864.62,-96.19 860.93,-106.12 867.93,-106.26"/>
</g>
<!-- BB20&#45;&gt;BB21 -->
<g id="edge29" class="edge">
<title>BB20&#45;&gt;BB21</title>
<path fill="none" stroke="black" d="M832.53,-225.72C823.04,-236.64 812.81,-248.44 803.05,-259.67"/>
<polygon fill="black" stroke="black" points="800.3,-257.5 796.39,-267.35 805.59,-262.09 800.3,-257.5"/>
</g>
<!-- BB21&#45;&gt;BB22 -->
<g id="edge30" class="edge">
<title>BB21&#45;&gt;BB22</title>
<path fill="none" stroke="black" d="M762.39,-360.58C772.43,-470.98 797.19,-738.3 803.13,-757 806.18,-766.59 810.43,-776.31 815.14,-785.56"/>
<polygon fill="black" stroke="black" points="812.18,-787.44 819.97,-794.62 818.36,-784.15 812.18,-787.44"/>
</g>
<!-- BB22&#45;&gt;BB12 -->
<g id="edge31" class="edge">
<title>BB22&#45;&gt;BB12</title>
<path fill="none" stroke="black" d="M930.15,-809.89C982.63,-790.09 1051.34,-764.17 1105.63,-743.68"/>
<polygon fill="black" stroke="black" points="1107.13,-746.86 1115.25,-740.05 1104.66,-740.31 1107.13,-746.86"/>
</g>
<!-- BB23 -->
<g id="node24" class="node">
<title>BB23</title>
<ellipse fill="none" stroke="black" cx="917.13" cy="-708.92" rx="104.8" ry="48.17"/>
<text text-anchor="middle" x="917.13" y="-727.72" font-family="Times New Roman,serif" font-size="14.00">[a5..a6)</text>
<text text-anchor="middle" x="917.13" y="-712.72" font-family="Times New Roman,serif" font-size="14.00">Count: 0</text>
<text text-anchor="middle" x="917.13" y="-697.72" font-family="Times New Roman,serif" font-size="14.00">Normalized count: NaN</text>
<text text-anchor="middle" x="917.13" y="-682.72" font-family="Times New Roman,serif" font-size="14.00">Samples weight: 0.00</text>
</g>
<!-- BB22&#45;&gt;BB23 -->
<g id="edge32" class="edge">
<title>BB22&#45;&gt;BB23</title>
<path fill="none" stroke="black" d="M873.75,-794.19C878.66,-784.66 883.87,-774.53 888.92,-764.72"/>
<polygon fill="black" stroke="black" points="892.03,-766.33 893.5,-755.83 885.81,-763.12 892.03,-766.33"/>
</g>
</g>
</svg>
