<?xml version="1.0" encoding="UTF-8" standalone="no"?>
<!DOCTYPE svg PUBLIC "-//W3C//DTD SVG 1.1//EN"
 "http://www.w3.org/Graphics/SVG/1.1/DTD/svg11.dtd">
<!-- Generated by graphviz version 2.47.0 (20210316.0004)
 -->
<!-- Title: G Pages: 1 -->
<svg width="1536pt" height="1294pt"
 viewBox="0.00 0.00 1536.24 1293.67" xmlns="http://www.w3.org/2000/svg" xmlns:xlink="http://www.w3.org/1999/xlink">
<g id="graph0" class="graph" transform="scale(1 1) rotate(0) translate(4 1289.67)">
<title>G</title>
<polygon fill="white" stroke="transparent" points="-4,4 -4,-1289.67 1532.24,-1289.67 1532.24,4 -4,4"/>
<!-- BB0 -->
<g id="node1" class="node">
<title>BB0</title>
<ellipse fill="none" stroke="black" cx="439.1" cy="-1237.58" rx="103.48" ry="48.17"/>
<text text-anchor="middle" x="439.1" y="-1256.38" font-family="Times New Roman,serif" font-size="14.00">[0..4)</text>
<text text-anchor="middle" x="439.1" y="-1241.38" font-family="Times New Roman,serif" font-size="14.00">Count: 1</text>
<text text-anchor="middle" x="439.1" y="-1226.38" font-family="Times New Roman,serif" font-size="14.00">Normalized count: 1.00</text>
<text text-anchor="middle" x="439.1" y="-1211.38" font-family="Times New Roman,serif" font-size="14.00">Samples weight: 0.00</text>
</g>
<!-- BB10 -->
<g id="node11" class="node">
<title>BB10</title>
<ellipse fill="none" stroke="black" cx="439.1" cy="-1105.42" rx="103.48" ry="48.17"/>
<text text-anchor="middle" x="439.1" y="-1124.22" font-family="Times New Roman,serif" font-size="14.00">[47..4c)</text>
<text text-anchor="middle" x="439.1" y="-1109.22" font-family="Times New Roman,serif" font-size="14.00">Count: 5</text>
<text text-anchor="middle" x="439.1" y="-1094.22" font-family="Times New Roman,serif" font-size="14.00">Normalized count: 5.00</text>
<text text-anchor="middle" x="439.1" y="-1079.22" font-family="Times New Roman,serif" font-size="14.00">Samples weight: 0.00</text>
</g>
<!-- BB0&#45;&gt;BB10 -->
<g id="edge1" class="edge">
<title>BB0&#45;&gt;BB10</title>
<path fill="none" stroke="black" d="M439.1,-1189.22C439.1,-1180.95 439.1,-1172.27 439.1,-1163.77"/>
<polygon fill="black" stroke="black" points="442.6,-1163.52 439.1,-1153.52 435.6,-1163.52 442.6,-1163.52"/>
</g>
<!-- BB1 -->
<g id="node2" class="node">
<title>BB1</title>
<ellipse fill="none" stroke="black" cx="439.1" cy="-973.25" rx="103.48" ry="48.17"/>
<text text-anchor="middle" x="439.1" y="-992.05" font-family="Times New Roman,serif" font-size="14.00">[4..e)</text>
<text text-anchor="middle" x="439.1" y="-977.05" font-family="Times New Roman,serif" font-size="14.00">Count: 5</text>
<text text-anchor="middle" x="439.1" y="-962.05" font-family="Times New Roman,serif" font-size="14.00">Normalized count: 5.00</text>
<text text-anchor="middle" x="439.1" y="-947.05" font-family="Times New Roman,serif" font-size="14.00">Samples weight: 0.00</text>
</g>
<!-- BB5 -->
<g id="node6" class="node">
<title>BB5</title>
<ellipse fill="none" stroke="black" cx="439.1" cy="-841.08" rx="113.27" ry="48.17"/>
<text text-anchor="middle" x="439.1" y="-859.88" font-family="Times New Roman,serif" font-size="14.00">[21..26)</text>
<text text-anchor="middle" x="439.1" y="-844.88" font-family="Times New Roman,serif" font-size="14.00">Count: 252</text>
<text text-anchor="middle" x="439.1" y="-829.88" font-family="Times New Roman,serif" font-size="14.00">Normalized count: 252.00</text>
<text text-anchor="middle" x="439.1" y="-814.88" font-family="Times New Roman,serif" font-size="14.00">Samples weight: 0.10</text>
</g>
<!-- BB1&#45;&gt;BB5 -->
<g id="edge2" class="edge">
<title>BB1&#45;&gt;BB5</title>
<path fill="none" stroke="black" d="M439.1,-924.89C439.1,-916.62 439.1,-907.94 439.1,-899.43"/>
<polygon fill="black" stroke="black" points="442.6,-899.19 439.1,-889.19 435.6,-899.19 442.6,-899.19"/>
</g>
<!-- BB2 -->
<g id="node3" class="node">
<title>BB2</title>
<ellipse fill="none" stroke="black" cx="298.1" cy="-708.92" rx="113.27" ry="48.17"/>
<text text-anchor="middle" x="298.1" y="-727.72" font-family="Times New Roman,serif" font-size="14.00">[e..16)</text>
<text text-anchor="middle" x="298.1" y="-712.72" font-family="Times New Roman,serif" font-size="14.00">Count: 229</text>
<text text-anchor="middle" x="298.1" y="-697.72" font-family="Times New Roman,serif" font-size="14.00">Normalized count: 229.00</text>
<text text-anchor="middle" x="298.1" y="-682.72" font-family="Times New Roman,serif" font-size="14.00">Samples weight: 0.09</text>
</g>
<!-- BB3 -->
<g id="node4" class="node">
<title>BB3</title>
<ellipse fill="none" stroke="black" cx="144.1" cy="-576.75" rx="108.38" ry="48.17"/>
<text text-anchor="middle" x="144.1" y="-595.55" font-family="Times New Roman,serif" font-size="14.00">[16..1c)</text>
<text text-anchor="middle" x="144.1" y="-580.55" font-family="Times New Roman,serif" font-size="14.00">Count: 21</text>
<text text-anchor="middle" x="144.1" y="-565.55" font-family="Times New Roman,serif" font-size="14.00">Normalized count: 21.00</text>
<text text-anchor="middle" x="144.1" y="-550.55" font-family="Times New Roman,serif" font-size="14.00">Samples weight: 0.01</text>
</g>
<!-- BB2&#45;&gt;BB3 -->
<g id="edge4" class="edge">
<title>BB2&#45;&gt;BB3</title>
<path fill="none" stroke="black" d="M248.1,-665.65C233.22,-653.07 216.8,-639.19 201.48,-626.25"/>
<polygon fill="black" stroke="black" points="203.48,-623.36 193.59,-619.58 198.97,-628.7 203.48,-623.36"/>
</g>
<!-- BB4 -->
<g id="node5" class="node">
<title>BB4</title>
<ellipse fill="none" stroke="black" cx="383.1" cy="-576.75" rx="113.27" ry="48.17"/>
<text text-anchor="middle" x="383.1" y="-595.55" font-family="Times New Roman,serif" font-size="14.00">[1c..21)</text>
<text text-anchor="middle" x="383.1" y="-580.55" font-family="Times New Roman,serif" font-size="14.00">Count: 247</text>
<text text-anchor="middle" x="383.1" y="-565.55" font-family="Times New Roman,serif" font-size="14.00">Normalized count: 247.00</text>
<text text-anchor="middle" x="383.1" y="-550.55" font-family="Times New Roman,serif" font-size="14.00">Samples weight: 0.10</text>
</g>
<!-- BB2&#45;&gt;BB4 -->
<g id="edge3" class="edge">
<title>BB2&#45;&gt;BB4</title>
<path fill="none" stroke="black" d="M327.83,-662.39C334.26,-652.54 341.13,-642.03 347.75,-631.88"/>
<polygon fill="black" stroke="black" points="350.71,-633.76 353.25,-623.47 344.85,-629.93 350.71,-633.76"/>
</g>
<!-- BB3&#45;&gt;BB4 -->
<g id="edge5" class="edge">
<title>BB3&#45;&gt;BB4</title>
<path fill="none" stroke="black" d="M252.4,-576.75C254.84,-576.75 257.28,-576.75 259.72,-576.75"/>
<polygon fill="black" stroke="black" points="259.76,-580.25 269.76,-576.75 259.76,-573.25 259.76,-580.25"/>
</g>
<!-- BB4&#45;&gt;BB5 -->
<g id="edge6" class="edge">
<title>BB4&#45;&gt;BB5</title>
<path fill="none" stroke="black" d="M406.68,-623.83C411.86,-635.63 416.79,-648.48 420.1,-660.83 430.81,-700.72 435.53,-747.12 437.59,-782.72"/>
<polygon fill="black" stroke="black" points="434.1,-783.12 438.12,-792.92 441.09,-782.76 434.1,-783.12"/>
</g>
<!-- BB5&#45;&gt;BB2 -->
<g id="edge7" class="edge">
<title>BB5&#45;&gt;BB2</title>
<path fill="none" stroke="black" d="M392.54,-797.1C379.67,-785.21 365.59,-772.21 352.32,-759.96"/>
<polygon fill="black" stroke="black" points="354.33,-757.06 344.61,-752.85 349.59,-762.21 354.33,-757.06"/>
</g>
<!-- BB6 -->
<g id="node7" class="node">
<title>BB6</title>
<ellipse fill="none" stroke="black" cx="599.1" cy="-708.92" rx="103.48" ry="48.17"/>
<text text-anchor="middle" x="599.1" y="-727.72" font-family="Times New Roman,serif" font-size="14.00">[26..2a)</text>
<text text-anchor="middle" x="599.1" y="-712.72" font-family="Times New Roman,serif" font-size="14.00">Count: 3</text>
<text text-anchor="middle" x="599.1" y="-697.72" font-family="Times New Roman,serif" font-size="14.00">Normalized count: 3.00</text>
<text text-anchor="middle" x="599.1" y="-682.72" font-family="Times New Roman,serif" font-size="14.00">Samples weight: 0.00</text>
</g>
<!-- BB5&#45;&gt;BB6 -->
<g id="edge8" class="edge">
<title>BB5&#45;&gt;BB6</title>
<path fill="none" stroke="black" d="M490.61,-798.18C506.55,-785.22 524.22,-770.84 540.59,-757.52"/>
<polygon fill="black" stroke="black" points="542.96,-760.1 548.51,-751.07 538.55,-754.67 542.96,-760.1"/>
</g>
<!-- BB8 -->
<g id="node9" class="node">
<title>BB8</title>
<ellipse fill="none" stroke="black" cx="627.1" cy="-576.75" rx="113.27" ry="48.17"/>
<text text-anchor="middle" x="627.1" y="-595.55" font-family="Times New Roman,serif" font-size="14.00">[3d..42)</text>
<text text-anchor="middle" x="627.1" y="-580.55" font-family="Times New Roman,serif" font-size="14.00">Count: 371</text>
<text text-anchor="middle" x="627.1" y="-565.55" font-family="Times New Roman,serif" font-size="14.00">Normalized count: 371.00</text>
<text text-anchor="middle" x="627.1" y="-550.55" font-family="Times New Roman,serif" font-size="14.00">Samples weight: 0.14</text>
</g>
<!-- BB6&#45;&gt;BB8 -->
<g id="edge9" class="edge">
<title>BB6&#45;&gt;BB8</title>
<path fill="none" stroke="black" d="M609.21,-660.92C611.05,-652.35 613,-643.33 614.89,-634.51"/>
<polygon fill="black" stroke="black" points="618.33,-635.19 617.01,-624.67 611.48,-633.71 618.33,-635.19"/>
</g>
<!-- BB7 -->
<g id="node8" class="node">
<title>BB7</title>
<ellipse fill="none" stroke="black" cx="627.1" cy="-444.58" rx="113.27" ry="48.17"/>
<text text-anchor="middle" x="627.1" y="-463.38" font-family="Times New Roman,serif" font-size="14.00">[2a..3d)</text>
<text text-anchor="middle" x="627.1" y="-448.38" font-family="Times New Roman,serif" font-size="14.00">Count: 368</text>
<text text-anchor="middle" x="627.1" y="-433.38" font-family="Times New Roman,serif" font-size="14.00">Normalized count: 368.00</text>
<text text-anchor="middle" x="627.1" y="-418.38" font-family="Times New Roman,serif" font-size="14.00">Samples weight: 0.14</text>
</g>
<!-- BB7&#45;&gt;BB8 -->
<g id="edge10" class="edge">
<title>BB7&#45;&gt;BB8</title>
<path fill="none" stroke="black" d="M633.62,-492.69C633.84,-500.95 633.9,-509.63 633.81,-518.14"/>
<polygon fill="black" stroke="black" points="630.31,-518.33 633.62,-528.39 637.31,-518.45 630.31,-518.33"/>
</g>
<!-- BB8&#45;&gt;BB7 -->
<g id="edge11" class="edge">
<title>BB8&#45;&gt;BB7</title>
<path fill="none" stroke="black" d="M620.58,-528.39C620.36,-520.12 620.3,-511.44 620.39,-502.93"/>
<polygon fill="black" stroke="black" points="623.9,-502.75 620.59,-492.69 616.9,-502.62 623.9,-502.75"/>
</g>
<!-- BB9 -->
<g id="node10" class="node">
<title>BB9</title>
<ellipse fill="none" stroke="black" cx="201.1" cy="-444.58" rx="103.48" ry="48.17"/>
<text text-anchor="middle" x="201.1" y="-463.38" font-family="Times New Roman,serif" font-size="14.00">[42..47)</text>
<text text-anchor="middle" x="201.1" y="-448.38" font-family="Times New Roman,serif" font-size="14.00">Count: 4</text>
<text text-anchor="middle" x="201.1" y="-433.38" font-family="Times New Roman,serif" font-size="14.00">Normalized count: 4.00</text>
<text text-anchor="middle" x="201.1" y="-418.38" font-family="Times New Roman,serif" font-size="14.00">Samples weight: 0.00</text>
</g>
<!-- BB8&#45;&gt;BB9 -->
<g id="edge12" class="edge">
<title>BB8&#45;&gt;BB9</title>
<path fill="none" stroke="black" d="M545.81,-543.06C532.3,-538.01 518.37,-533.03 505.1,-528.67 437.89,-506.58 361.02,-485.61 301.4,-470.26"/>
<polygon fill="black" stroke="black" points="302.16,-466.84 291.6,-467.75 300.42,-473.62 302.16,-466.84"/>
</g>
<!-- BB9&#45;&gt;BB10 -->
<g id="edge13" class="edge">
<title>BB9&#45;&gt;BB10</title>
<path fill="none" stroke="black" d="M111.18,-468.61C79.69,-481.2 47.2,-500.24 27.1,-528.67 -19.15,-594.08 8.1,-627.8 8.1,-707.92 8.1,-842.08 8.1,-842.08 8.1,-842.08 8.1,-993.41 204.36,-1059.96 332.01,-1087.24"/>
<polygon fill="black" stroke="black" points="331.34,-1090.68 341.84,-1089.29 332.77,-1083.82 331.34,-1090.68"/>
</g>
<!-- BB10&#45;&gt;BB1 -->
<g id="edge14" class="edge">
<title>BB10&#45;&gt;BB1</title>
<path fill="none" stroke="black" d="M439.1,-1057.05C439.1,-1048.79 439.1,-1040.1 439.1,-1031.6"/>
<polygon fill="black" stroke="black" points="442.6,-1031.36 439.1,-1021.36 435.6,-1031.36 442.6,-1031.36"/>
</g>
<!-- BB11 -->
<g id="node12" class="node">
<title>BB11</title>
<ellipse fill="none" stroke="black" cx="715.1" cy="-973.25" rx="103.48" ry="48.17"/>
<text text-anchor="middle" x="715.1" y="-992.05" font-family="Times New Roman,serif" font-size="14.00">[4c..50)</text>
<text text-anchor="middle" x="715.1" y="-977.05" font-family="Times New Roman,serif" font-size="14.00">Count: 0</text>
<text text-anchor="middle" x="715.1" y="-962.05" font-family="Times New Roman,serif" font-size="14.00">Normalized count: 0.00</text>
<text text-anchor="middle" x="715.1" y="-947.05" font-family="Times New Roman,serif" font-size="14.00">Samples weight: 0.00</text>
</g>
<!-- BB10&#45;&gt;BB11 -->
<g id="edge15" class="edge">
<title>BB10&#45;&gt;BB11</title>
<path fill="none" stroke="black" d="M510.9,-1070.56C548.6,-1052.77 594.95,-1030.91 633.96,-1012.52"/>
<polygon fill="black" stroke="black" points="635.64,-1015.6 643.19,-1008.17 632.65,-1009.27 635.64,-1015.6"/>
</g>
<!-- BB22 -->
<g id="node23" class="node">
<title>BB22</title>
<ellipse fill="none" stroke="black" cx="833.1" cy="-841.08" rx="103.48" ry="48.17"/>
<text text-anchor="middle" x="833.1" y="-859.88" font-family="Times New Roman,serif" font-size="14.00">[96..9b)</text>
<text text-anchor="middle" x="833.1" y="-844.88" font-family="Times New Roman,serif" font-size="14.00">Count: 2</text>
<text text-anchor="middle" x="833.1" y="-829.88" font-family="Times New Roman,serif" font-size="14.00">Normalized count: 2.00</text>
<text text-anchor="middle" x="833.1" y="-814.88" font-family="Times New Roman,serif" font-size="14.00">Samples weight: 0.00</text>
</g>
<!-- BB11&#45;&gt;BB22 -->
<g id="edge16" class="edge">
<title>BB11&#45;&gt;BB22</title>
<path fill="none" stroke="black" d="M754.72,-928.54C764.94,-917.27 776.03,-905.04 786.56,-893.42"/>
<polygon fill="black" stroke="black" points="789.26,-895.65 793.39,-885.89 784.08,-890.95 789.26,-895.65"/>
</g>
<!-- BB12 -->
<g id="node13" class="node">
<title>BB12</title>
<ellipse fill="none" stroke="black" cx="1128.1" cy="-708.92" rx="103.48" ry="48.17"/>
<text text-anchor="middle" x="1128.1" y="-727.72" font-family="Times New Roman,serif" font-size="14.00">[50..5a)</text>
<text text-anchor="middle" x="1128.1" y="-712.72" font-family="Times New Roman,serif" font-size="14.00">Count: 2</text>
<text text-anchor="middle" x="1128.1" y="-697.72" font-family="Times New Roman,serif" font-size="14.00">Normalized count: 2.00</text>
<text text-anchor="middle" x="1128.1" y="-682.72" font-family="Times New Roman,serif" font-size="14.00">Samples weight: 0.00</text>
</g>
<!-- BB16 -->
<g id="node17" class="node">
<title>BB16</title>
<ellipse fill="none" stroke="black" cx="1130.1" cy="-576.75" rx="113.27" ry="48.17"/>
<text text-anchor="middle" x="1130.1" y="-595.55" font-family="Times New Roman,serif" font-size="14.00">[6d..72)</text>
<text text-anchor="middle" x="1130.1" y="-580.55" font-family="Times New Roman,serif" font-size="14.00">Count: 257</text>
<text text-anchor="middle" x="1130.1" y="-565.55" font-family="Times New Roman,serif" font-size="14.00">Normalized count: 257.00</text>
<text text-anchor="middle" x="1130.1" y="-550.55" font-family="Times New Roman,serif" font-size="14.00">Samples weight: 0.10</text>
</g>
<!-- BB12&#45;&gt;BB16 -->
<g id="edge17" class="edge">
<title>BB12&#45;&gt;BB16</title>
<path fill="none" stroke="black" d="M1128.83,-660.55C1128.96,-652.29 1129.09,-643.6 1129.22,-635.1"/>
<polygon fill="black" stroke="black" points="1132.72,-634.91 1129.38,-624.86 1125.73,-634.8 1132.72,-634.91"/>
</g>
<!-- BB13 -->
<g id="node14" class="node">
<title>BB13</title>
<ellipse fill="none" stroke="black" cx="1179.1" cy="-444.58" rx="113.27" ry="48.17"/>
<text text-anchor="middle" x="1179.1" y="-463.38" font-family="Times New Roman,serif" font-size="14.00">[5a..62)</text>
<text text-anchor="middle" x="1179.1" y="-448.38" font-family="Times New Roman,serif" font-size="14.00">Count: 235</text>
<text text-anchor="middle" x="1179.1" y="-433.38" font-family="Times New Roman,serif" font-size="14.00">Normalized count: 235.00</text>
<text text-anchor="middle" x="1179.1" y="-418.38" font-family="Times New Roman,serif" font-size="14.00">Samples weight: 0.09</text>
</g>
<!-- BB14 -->
<g id="node15" class="node">
<title>BB14</title>
<ellipse fill="none" stroke="black" cx="1176.1" cy="-312.42" rx="108.38" ry="48.17"/>
<text text-anchor="middle" x="1176.1" y="-331.22" font-family="Times New Roman,serif" font-size="14.00">[62..68)</text>
<text text-anchor="middle" x="1176.1" y="-316.22" font-family="Times New Roman,serif" font-size="14.00">Count: 12</text>
<text text-anchor="middle" x="1176.1" y="-301.22" font-family="Times New Roman,serif" font-size="14.00">Normalized count: 12.00</text>
<text text-anchor="middle" x="1176.1" y="-286.22" font-family="Times New Roman,serif" font-size="14.00">Samples weight: 0.00</text>
</g>
<!-- BB13&#45;&gt;BB14 -->
<g id="edge19" class="edge">
<title>BB13&#45;&gt;BB14</title>
<path fill="none" stroke="black" d="M1178.01,-396.22C1177.82,-387.95 1177.62,-379.27 1177.42,-370.77"/>
<polygon fill="black" stroke="black" points="1180.92,-370.44 1177.19,-360.52 1173.92,-370.6 1180.92,-370.44"/>
</g>
<!-- BB15 -->
<g id="node16" class="node">
<title>BB15</title>
<ellipse fill="none" stroke="black" cx="1415.1" cy="-312.42" rx="113.27" ry="48.17"/>
<text text-anchor="middle" x="1415.1" y="-331.22" font-family="Times New Roman,serif" font-size="14.00">[68..6d)</text>
<text text-anchor="middle" x="1415.1" y="-316.22" font-family="Times New Roman,serif" font-size="14.00">Count: 255</text>
<text text-anchor="middle" x="1415.1" y="-301.22" font-family="Times New Roman,serif" font-size="14.00">Normalized count: 255.00</text>
<text text-anchor="middle" x="1415.1" y="-286.22" font-family="Times New Roman,serif" font-size="14.00">Samples weight: 0.10</text>
</g>
<!-- BB13&#45;&gt;BB15 -->
<g id="edge18" class="edge">
<title>BB13&#45;&gt;BB15</title>
<path fill="none" stroke="black" d="M1247.05,-406.11C1275.43,-390.45 1308.56,-372.18 1337.86,-356.02"/>
<polygon fill="black" stroke="black" points="1339.75,-358.97 1346.82,-351.08 1336.37,-352.84 1339.75,-358.97"/>
</g>
<!-- BB14&#45;&gt;BB15 -->
<g id="edge20" class="edge">
<title>BB14&#45;&gt;BB15</title>
<path fill="none" stroke="black" d="M1284.4,-312.42C1286.84,-312.42 1289.28,-312.42 1291.72,-312.42"/>
<polygon fill="black" stroke="black" points="1291.76,-315.92 1301.76,-312.42 1291.76,-308.92 1291.76,-315.92"/>
</g>
<!-- BB15&#45;&gt;BB16 -->
<g id="edge21" class="edge">
<title>BB15&#45;&gt;BB16</title>
<path fill="none" stroke="black" d="M1394.47,-360.05C1375.07,-399.53 1342.8,-455.48 1301.1,-492.67 1279.07,-512.32 1251.55,-528.38 1225.08,-540.96"/>
<polygon fill="black" stroke="black" points="1223.38,-537.89 1215.77,-545.27 1226.31,-544.25 1223.38,-537.89"/>
</g>
<!-- BB16&#45;&gt;BB13 -->
<g id="edge22" class="edge">
<title>BB16&#45;&gt;BB13</title>
<path fill="none" stroke="black" d="M1147.65,-529.12C1151,-520.24 1154.53,-510.87 1157.97,-501.73"/>
<polygon fill="black" stroke="black" points="1161.26,-502.91 1161.51,-492.32 1154.71,-500.45 1161.26,-502.91"/>
</g>
<!-- BB17 -->
<g id="node18" class="node">
<title>BB17</title>
<ellipse fill="none" stroke="black" cx="945.1" cy="-444.58" rx="103.48" ry="48.17"/>
<text text-anchor="middle" x="945.1" y="-463.38" font-family="Times New Roman,serif" font-size="14.00">[72..75)</text>
<text text-anchor="middle" x="945.1" y="-448.38" font-family="Times New Roman,serif" font-size="14.00">Count: 5</text>
<text text-anchor="middle" x="945.1" y="-433.38" font-family="Times New Roman,serif" font-size="14.00">Normalized count: 5.00</text>
<text text-anchor="middle" x="945.1" y="-418.38" font-family="Times New Roman,serif" font-size="14.00">Samples weight: 0.00</text>
</g>
<!-- BB16&#45;&gt;BB17 -->
<g id="edge23" class="edge">
<title>BB16&#45;&gt;BB17</title>
<path fill="none" stroke="black" d="M1072.58,-535.28C1052.63,-521.24 1030.14,-505.41 1009.66,-491"/>
<polygon fill="black" stroke="black" points="1011.51,-488.03 1001.32,-485.14 1007.48,-493.75 1011.51,-488.03"/>
</g>
<!-- BB18 -->
<g id="node19" class="node">
<title>BB18</title>
<ellipse fill="none" stroke="black" cx="947.1" cy="-312.42" rx="103.48" ry="48.17"/>
<text text-anchor="middle" x="947.1" y="-331.22" font-family="Times New Roman,serif" font-size="14.00">[75..79)</text>
<text text-anchor="middle" x="947.1" y="-316.22" font-family="Times New Roman,serif" font-size="14.00">Count: 3</text>
<text text-anchor="middle" x="947.1" y="-301.22" font-family="Times New Roman,serif" font-size="14.00">Normalized count: 3.00</text>
<text text-anchor="middle" x="947.1" y="-286.22" font-family="Times New Roman,serif" font-size="14.00">Samples weight: 0.00</text>
</g>
<!-- BB17&#45;&gt;BB18 -->
<g id="edge25" class="edge">
<title>BB17&#45;&gt;BB18</title>
<path fill="none" stroke="black" d="M945.83,-396.22C945.96,-387.95 946.09,-379.27 946.22,-370.77"/>
<polygon fill="black" stroke="black" points="949.72,-370.58 946.38,-360.52 942.73,-370.47 949.72,-370.58"/>
</g>
<!-- BB21 -->
<g id="node22" class="node">
<title>BB21</title>
<ellipse fill="none" stroke="black" cx="723.1" cy="-312.42" rx="103.48" ry="48.17"/>
<text text-anchor="middle" x="723.1" y="-331.22" font-family="Times New Roman,serif" font-size="14.00">[91..96)</text>
<text text-anchor="middle" x="723.1" y="-316.22" font-family="Times New Roman,serif" font-size="14.00">Count: 2</text>
<text text-anchor="middle" x="723.1" y="-301.22" font-family="Times New Roman,serif" font-size="14.00">Normalized count: 2.00</text>
<text text-anchor="middle" x="723.1" y="-286.22" font-family="Times New Roman,serif" font-size="14.00">Samples weight: 0.00</text>
</g>
<!-- BB17&#45;&gt;BB21 -->
<g id="edge24" class="edge">
<title>BB17&#45;&gt;BB21</title>
<path fill="none" stroke="black" d="M881.78,-406.46C854.84,-390.66 823.27,-372.15 795.41,-355.81"/>
<polygon fill="black" stroke="black" points="796.9,-352.63 786.51,-350.59 793.36,-358.67 796.9,-352.63"/>
</g>
<!-- BB20 -->
<g id="node21" class="node">
<title>BB20</title>
<ellipse fill="none" stroke="black" cx="835.1" cy="-180.25" rx="113.27" ry="48.17"/>
<text text-anchor="middle" x="835.1" y="-199.05" font-family="Times New Roman,serif" font-size="14.00">[8c..91)</text>
<text text-anchor="middle" x="835.1" y="-184.05" font-family="Times New Roman,serif" font-size="14.00">Count: 146</text>
<text text-anchor="middle" x="835.1" y="-169.05" font-family="Times New Roman,serif" font-size="14.00">Normalized count: 146.00</text>
<text text-anchor="middle" x="835.1" y="-154.05" font-family="Times New Roman,serif" font-size="14.00">Samples weight: 0.06</text>
</g>
<!-- BB18&#45;&gt;BB20 -->
<g id="edge26" class="edge">
<title>BB18&#45;&gt;BB20</title>
<path fill="none" stroke="black" d="M909.18,-267.35C899.8,-256.44 889.66,-244.65 879.98,-233.4"/>
<polygon fill="black" stroke="black" points="882.54,-231.01 873.36,-225.72 877.23,-235.58 882.54,-231.01"/>
</g>
<!-- BB19 -->
<g id="node20" class="node">
<title>BB19</title>
<ellipse fill="none" stroke="black" cx="835.1" cy="-48.08" rx="113.27" ry="48.17"/>
<text text-anchor="middle" x="835.1" y="-66.88" font-family="Times New Roman,serif" font-size="14.00">[79..8c)</text>
<text text-anchor="middle" x="835.1" y="-51.88" font-family="Times New Roman,serif" font-size="14.00">Count: 143</text>
<text text-anchor="middle" x="835.1" y="-36.88" font-family="Times New Roman,serif" font-size="14.00">Normalized count: 143.00</text>
<text text-anchor="middle" x="835.1" y="-21.88" font-family="Times New Roman,serif" font-size="14.00">Samples weight: 0.06</text>
</g>
<!-- BB19&#45;&gt;BB20 -->
<g id="edge27" class="edge">
<title>BB19&#45;&gt;BB20</title>
<path fill="none" stroke="black" d="M841.62,-96.19C841.84,-104.45 841.9,-113.13 841.81,-121.64"/>
<polygon fill="black" stroke="black" points="838.31,-121.83 841.62,-131.89 845.31,-121.95 838.31,-121.83"/>
</g>
<!-- BB20&#45;&gt;BB19 -->
<g id="edge28" class="edge">
<title>BB20&#45;&gt;BB19</title>
<path fill="none" stroke="black" d="M828.58,-131.89C828.36,-123.62 828.3,-114.94 828.39,-106.43"/>
<polygon fill="black" stroke="black" points="831.9,-106.26 828.59,-96.19 824.9,-106.12 831.9,-106.26"/>
</g>
<!-- BB20&#45;&gt;BB21 -->
<g id="edge29" class="edge">
<title>BB20&#45;&gt;BB21</title>
<path fill="none" stroke="black" d="M796.84,-225.72C787.44,-236.64 777.29,-248.44 767.62,-259.67"/>
<polygon fill="black" stroke="black" points="764.89,-257.48 761.02,-267.35 770.2,-262.05 764.89,-257.48"/>
</g>
<!-- BB21&#45;&gt;BB22 -->
<g id="edge30" class="edge">
<title>BB21&#45;&gt;BB22</title>
<path fill="none" stroke="black" d="M739.46,-360C743.11,-371.79 746.62,-384.51 749.1,-396.5 781.77,-554.26 738.67,-603.34 787.1,-757 790.11,-766.55 794.29,-776.25 798.9,-785.49"/>
<polygon fill="black" stroke="black" points="795.9,-787.3 803.63,-794.54 802.1,-784.06 795.9,-787.3"/>
</g>
<!-- BB22&#45;&gt;BB12 -->
<g id="edge31" class="edge">
<title>BB22&#45;&gt;BB12</title>
<path fill="none" stroke="black" d="M907.16,-807.4C948.98,-788.95 1001.37,-765.83 1044.64,-746.74"/>
<polygon fill="black" stroke="black" points="1046.28,-749.85 1054.01,-742.61 1043.45,-743.44 1046.28,-749.85"/>
</g>
<!-- BB23 -->
<g id="node24" class="node">
<title>BB23</title>
<ellipse fill="none" stroke="black" cx="899.1" cy="-708.92" rx="103.48" ry="48.17"/>
<text text-anchor="middle" x="899.1" y="-727.72" font-family="Times New Roman,serif" font-size="14.00">[9b..9c)</text>
<text text-anchor="middle" x="899.1" y="-712.72" font-family="Times New Roman,serif" font-size="14.00">Count: 0</text>
<text text-anchor="middle" x="899.1" y="-697.72" font-family="Times New Roman,serif" font-size="14.00">Normalized count: 0.00</text>
<text text-anchor="middle" x="899.1" y="-682.72" font-family="Times New Roman,serif" font-size="14.00">Samples weight: 0.00</text>
</g>
<!-- BB22&#45;&gt;BB23 -->
<g id="edge32" class="edge">
<title>BB22&#45;&gt;BB23</title>
<path fill="none" stroke="black" d="M856.37,-794.19C861.15,-784.76 866.23,-774.74 871.16,-765.03"/>
<polygon fill="black" stroke="black" points="874.42,-766.33 875.82,-755.83 868.18,-763.17 874.42,-766.33"/>
</g>
</g>
</svg>
