<?xml version="1.0" encoding="UTF-8" standalone="no"?>
<!DOCTYPE svg PUBLIC "-//W3C//DTD SVG 1.1//EN"
 "http://www.w3.org/Graphics/SVG/1.1/DTD/svg11.dtd">
<!-- Generated by graphviz version 2.47.0 (20210316.0004)
 -->
<!-- Title: G Pages: 1 -->
<svg width="1519pt" height="1294pt"
 viewBox="0.00 0.00 1519.09 1293.67" xmlns="http://www.w3.org/2000/svg" xmlns:xlink="http://www.w3.org/1999/xlink">
<g id="graph0" class="graph" transform="scale(1 1) rotate(0) translate(4 1289.67)">
<title>G</title>
<polygon fill="white" stroke="transparent" points="-4,4 -4,-1289.67 1515.09,-1289.67 1515.09,4 -4,4"/>
<!-- BB0 -->
<g id="node1" class="node">
<title>BB0</title>
<ellipse fill="none" stroke="black" cx="401.95" cy="-1237.58" rx="103.48" ry="48.17"/>
<text text-anchor="middle" x="401.95" y="-1256.38" font-family="Times New Roman,serif" font-size="14.00">[0..4)</text>
<text text-anchor="middle" x="401.95" y="-1241.38" font-family="Times New Roman,serif" font-size="14.00">Count: 2</text>
<text text-anchor="middle" x="401.95" y="-1226.38" font-family="Times New Roman,serif" font-size="14.00">Normalized count: 1.00</text>
<text text-anchor="middle" x="401.95" y="-1211.38" font-family="Times New Roman,serif" font-size="14.00">Samples weight: 0.00</text>
</g>
<!-- BB10 -->
<g id="node11" class="node">
<title>BB10</title>
<ellipse fill="none" stroke="black" cx="401.95" cy="-1105.42" rx="103.48" ry="48.17"/>
<text text-anchor="middle" x="401.95" y="-1124.22" font-family="Times New Roman,serif" font-size="14.00">[47..4c)</text>
<text text-anchor="middle" x="401.95" y="-1109.22" font-family="Times New Roman,serif" font-size="14.00">Count: 7</text>
<text text-anchor="middle" x="401.95" y="-1094.22" font-family="Times New Roman,serif" font-size="14.00">Normalized count: 3.50</text>
<text text-anchor="middle" x="401.95" y="-1079.22" font-family="Times New Roman,serif" font-size="14.00">Samples weight: 0.00</text>
</g>
<!-- BB0&#45;&gt;BB10 -->
<g id="edge1" class="edge">
<title>BB0&#45;&gt;BB10</title>
<path fill="none" stroke="black" d="M401.95,-1189.22C401.95,-1180.95 401.95,-1172.27 401.95,-1163.77"/>
<polygon fill="black" stroke="black" points="405.45,-1163.52 401.95,-1153.52 398.45,-1163.52 405.45,-1163.52"/>
</g>
<!-- BB1 -->
<g id="node2" class="node">
<title>BB1</title>
<ellipse fill="none" stroke="black" cx="401.95" cy="-973.25" rx="103.48" ry="48.17"/>
<text text-anchor="middle" x="401.95" y="-992.05" font-family="Times New Roman,serif" font-size="14.00">[4..e)</text>
<text text-anchor="middle" x="401.95" y="-977.05" font-family="Times New Roman,serif" font-size="14.00">Count: 5</text>
<text text-anchor="middle" x="401.95" y="-962.05" font-family="Times New Roman,serif" font-size="14.00">Normalized count: 2.50</text>
<text text-anchor="middle" x="401.95" y="-947.05" font-family="Times New Roman,serif" font-size="14.00">Samples weight: 0.00</text>
</g>
<!-- BB5 -->
<g id="node6" class="node">
<title>BB5</title>
<ellipse fill="none" stroke="black" cx="401.95" cy="-841.08" rx="113.27" ry="48.17"/>
<text text-anchor="middle" x="401.95" y="-859.88" font-family="Times New Roman,serif" font-size="14.00">[21..26)</text>
<text text-anchor="middle" x="401.95" y="-844.88" font-family="Times New Roman,serif" font-size="14.00">Count: 264</text>
<text text-anchor="middle" x="401.95" y="-829.88" font-family="Times New Roman,serif" font-size="14.00">Normalized count: 132.00</text>
<text text-anchor="middle" x="401.95" y="-814.88" font-family="Times New Roman,serif" font-size="14.00">Samples weight: 0.10</text>
</g>
<!-- BB1&#45;&gt;BB5 -->
<g id="edge2" class="edge">
<title>BB1&#45;&gt;BB5</title>
<path fill="none" stroke="black" d="M401.95,-924.89C401.95,-916.62 401.95,-907.94 401.95,-899.43"/>
<polygon fill="black" stroke="black" points="405.45,-899.19 401.95,-889.19 398.45,-899.19 405.45,-899.19"/>
</g>
<!-- BB2 -->
<g id="node3" class="node">
<title>BB2</title>
<ellipse fill="none" stroke="black" cx="260.95" cy="-708.92" rx="113.27" ry="48.17"/>
<text text-anchor="middle" x="260.95" y="-727.72" font-family="Times New Roman,serif" font-size="14.00">[e..16)</text>
<text text-anchor="middle" x="260.95" y="-712.72" font-family="Times New Roman,serif" font-size="14.00">Count: 259</text>
<text text-anchor="middle" x="260.95" y="-697.72" font-family="Times New Roman,serif" font-size="14.00">Normalized count: 129.50</text>
<text text-anchor="middle" x="260.95" y="-682.72" font-family="Times New Roman,serif" font-size="14.00">Samples weight: 0.10</text>
</g>
<!-- BB3 -->
<g id="node4" class="node">
<title>BB3</title>
<ellipse fill="none" stroke="black" cx="138.95" cy="-576.75" rx="103.48" ry="48.17"/>
<text text-anchor="middle" x="138.95" y="-595.55" font-family="Times New Roman,serif" font-size="14.00">[16..1c)</text>
<text text-anchor="middle" x="138.95" y="-580.55" font-family="Times New Roman,serif" font-size="14.00">Count: 13</text>
<text text-anchor="middle" x="138.95" y="-565.55" font-family="Times New Roman,serif" font-size="14.00">Normalized count: 6.50</text>
<text text-anchor="middle" x="138.95" y="-550.55" font-family="Times New Roman,serif" font-size="14.00">Samples weight: 0.00</text>
</g>
<!-- BB2&#45;&gt;BB3 -->
<g id="edge4" class="edge">
<title>BB2&#45;&gt;BB3</title>
<path fill="none" stroke="black" d="M219.65,-663.85C209.1,-652.59 197.67,-640.4 186.83,-628.83"/>
<polygon fill="black" stroke="black" points="189.19,-626.23 179.8,-621.33 184.08,-631.02 189.19,-626.23"/>
</g>
<!-- BB4 -->
<g id="node5" class="node">
<title>BB4</title>
<ellipse fill="none" stroke="black" cx="372.95" cy="-576.75" rx="113.27" ry="48.17"/>
<text text-anchor="middle" x="372.95" y="-595.55" font-family="Times New Roman,serif" font-size="14.00">[1c..21)</text>
<text text-anchor="middle" x="372.95" y="-580.55" font-family="Times New Roman,serif" font-size="14.00">Count: 259</text>
<text text-anchor="middle" x="372.95" y="-565.55" font-family="Times New Roman,serif" font-size="14.00">Normalized count: 129.50</text>
<text text-anchor="middle" x="372.95" y="-550.55" font-family="Times New Roman,serif" font-size="14.00">Samples weight: 0.10</text>
</g>
<!-- BB2&#45;&gt;BB4 -->
<g id="edge3" class="edge">
<title>BB2&#45;&gt;BB4</title>
<path fill="none" stroke="black" d="M299.18,-663.48C308.45,-652.71 318.44,-641.1 327.99,-630"/>
<polygon fill="black" stroke="black" points="330.64,-632.29 334.51,-622.42 325.34,-627.72 330.64,-632.29"/>
</g>
<!-- BB3&#45;&gt;BB4 -->
<g id="edge5" class="edge">
<title>BB3&#45;&gt;BB4</title>
<path fill="none" stroke="black" d="M242.24,-576.75C244.68,-576.75 247.12,-576.75 249.56,-576.75"/>
<polygon fill="black" stroke="black" points="249.6,-580.25 259.6,-576.75 249.6,-573.25 249.6,-580.25"/>
</g>
<!-- BB4&#45;&gt;BB5 -->
<g id="edge6" class="edge">
<title>BB4&#45;&gt;BB5</title>
<path fill="none" stroke="black" d="M378.78,-625.19C380.18,-636.84 381.64,-649.28 382.95,-660.83 387.56,-701.59 392.43,-747.59 396.09,-782.79"/>
<polygon fill="black" stroke="black" points="392.62,-783.3 397.13,-792.89 399.58,-782.58 392.62,-783.3"/>
</g>
<!-- BB5&#45;&gt;BB2 -->
<g id="edge7" class="edge">
<title>BB5&#45;&gt;BB2</title>
<path fill="none" stroke="black" d="M355.39,-797.1C342.52,-785.21 328.43,-772.21 315.16,-759.96"/>
<polygon fill="black" stroke="black" points="317.18,-757.06 307.46,-752.85 312.43,-762.21 317.18,-757.06"/>
</g>
<!-- BB6 -->
<g id="node7" class="node">
<title>BB6</title>
<ellipse fill="none" stroke="black" cx="560.95" cy="-708.92" rx="103.48" ry="48.17"/>
<text text-anchor="middle" x="560.95" y="-727.72" font-family="Times New Roman,serif" font-size="14.00">[26..2a)</text>
<text text-anchor="middle" x="560.95" y="-712.72" font-family="Times New Roman,serif" font-size="14.00">Count: 5</text>
<text text-anchor="middle" x="560.95" y="-697.72" font-family="Times New Roman,serif" font-size="14.00">Normalized count: 2.50</text>
<text text-anchor="middle" x="560.95" y="-682.72" font-family="Times New Roman,serif" font-size="14.00">Samples weight: 0.00</text>
</g>
<!-- BB5&#45;&gt;BB6 -->
<g id="edge8" class="edge">
<title>BB5&#45;&gt;BB6</title>
<path fill="none" stroke="black" d="M453.13,-798.18C468.97,-785.22 486.53,-770.84 502.81,-757.52"/>
<polygon fill="black" stroke="black" points="505.16,-760.11 510.68,-751.07 500.72,-754.7 505.16,-760.11"/>
</g>
<!-- BB8 -->
<g id="node9" class="node">
<title>BB8</title>
<ellipse fill="none" stroke="black" cx="616.95" cy="-576.75" rx="113.27" ry="48.17"/>
<text text-anchor="middle" x="616.95" y="-595.55" font-family="Times New Roman,serif" font-size="14.00">[3d..42)</text>
<text text-anchor="middle" x="616.95" y="-580.55" font-family="Times New Roman,serif" font-size="14.00">Count: 352</text>
<text text-anchor="middle" x="616.95" y="-565.55" font-family="Times New Roman,serif" font-size="14.00">Normalized count: 176.00</text>
<text text-anchor="middle" x="616.95" y="-550.55" font-family="Times New Roman,serif" font-size="14.00">Samples weight: 0.13</text>
</g>
<!-- BB6&#45;&gt;BB8 -->
<g id="edge9" class="edge">
<title>BB6&#45;&gt;BB8</title>
<path fill="none" stroke="black" d="M580.85,-661.66C584.77,-652.56 588.91,-642.93 592.94,-633.55"/>
<polygon fill="black" stroke="black" points="596.19,-634.87 596.92,-624.3 589.76,-632.1 596.19,-634.87"/>
</g>
<!-- BB7 -->
<g id="node8" class="node">
<title>BB7</title>
<ellipse fill="none" stroke="black" cx="616.95" cy="-444.58" rx="113.27" ry="48.17"/>
<text text-anchor="middle" x="616.95" y="-463.38" font-family="Times New Roman,serif" font-size="14.00">[2a..3d)</text>
<text text-anchor="middle" x="616.95" y="-448.38" font-family="Times New Roman,serif" font-size="14.00">Count: 347</text>
<text text-anchor="middle" x="616.95" y="-433.38" font-family="Times New Roman,serif" font-size="14.00">Normalized count: 173.50</text>
<text text-anchor="middle" x="616.95" y="-418.38" font-family="Times New Roman,serif" font-size="14.00">Samples weight: 0.13</text>
</g>
<!-- BB7&#45;&gt;BB8 -->
<g id="edge10" class="edge">
<title>BB7&#45;&gt;BB8</title>
<path fill="none" stroke="black" d="M623.47,-492.69C623.69,-500.95 623.75,-509.63 623.66,-518.14"/>
<polygon fill="black" stroke="black" points="620.16,-518.33 623.47,-528.39 627.16,-518.45 620.16,-518.33"/>
</g>
<!-- BB8&#45;&gt;BB7 -->
<g id="edge11" class="edge">
<title>BB8&#45;&gt;BB7</title>
<path fill="none" stroke="black" d="M610.43,-528.39C610.21,-520.12 610.15,-511.44 610.24,-502.93"/>
<polygon fill="black" stroke="black" points="613.75,-502.75 610.43,-492.69 606.75,-502.62 613.75,-502.75"/>
</g>
<!-- BB9 -->
<g id="node10" class="node">
<title>BB9</title>
<ellipse fill="none" stroke="black" cx="195.95" cy="-444.58" rx="103.48" ry="48.17"/>
<text text-anchor="middle" x="195.95" y="-463.38" font-family="Times New Roman,serif" font-size="14.00">[42..47)</text>
<text text-anchor="middle" x="195.95" y="-448.38" font-family="Times New Roman,serif" font-size="14.00">Count: 5</text>
<text text-anchor="middle" x="195.95" y="-433.38" font-family="Times New Roman,serif" font-size="14.00">Normalized count: 2.50</text>
<text text-anchor="middle" x="195.95" y="-418.38" font-family="Times New Roman,serif" font-size="14.00">Samples weight: 0.00</text>
</g>
<!-- BB8&#45;&gt;BB9 -->
<g id="edge12" class="edge">
<title>BB8&#45;&gt;BB9</title>
<path fill="none" stroke="black" d="M535.64,-543.11C522.13,-538.05 508.21,-533.05 494.95,-528.67 429.44,-506.98 354.63,-486.19 296.23,-470.84"/>
<polygon fill="black" stroke="black" points="296.82,-467.38 286.26,-468.23 295.05,-474.15 296.82,-467.38"/>
</g>
<!-- BB9&#45;&gt;BB10 -->
<g id="edge13" class="edge">
<title>BB9&#45;&gt;BB10</title>
<path fill="none" stroke="black" d="M107.67,-469.56C77.36,-482.22 46.23,-501.06 26.95,-528.67 -18.93,-594.34 7.95,-627.8 7.95,-707.92 7.95,-842.08 7.95,-842.08 7.95,-842.08 7.95,-981.76 181.64,-1051.6 298.37,-1082.77"/>
<polygon fill="black" stroke="black" points="297.52,-1086.17 308.08,-1085.31 299.29,-1079.39 297.52,-1086.17"/>
</g>
<!-- BB10&#45;&gt;BB1 -->
<g id="edge14" class="edge">
<title>BB10&#45;&gt;BB1</title>
<path fill="none" stroke="black" d="M401.95,-1057.05C401.95,-1048.79 401.95,-1040.1 401.95,-1031.6"/>
<polygon fill="black" stroke="black" points="405.45,-1031.36 401.95,-1021.36 398.45,-1031.36 405.45,-1031.36"/>
</g>
<!-- BB11 -->
<g id="node12" class="node">
<title>BB11</title>
<ellipse fill="none" stroke="black" cx="649.95" cy="-973.25" rx="103.48" ry="48.17"/>
<text text-anchor="middle" x="649.95" y="-992.05" font-family="Times New Roman,serif" font-size="14.00">[4c..50)</text>
<text text-anchor="middle" x="649.95" y="-977.05" font-family="Times New Roman,serif" font-size="14.00">Count: 2</text>
<text text-anchor="middle" x="649.95" y="-962.05" font-family="Times New Roman,serif" font-size="14.00">Normalized count: 1.00</text>
<text text-anchor="middle" x="649.95" y="-947.05" font-family="Times New Roman,serif" font-size="14.00">Samples weight: 0.00</text>
</g>
<!-- BB10&#45;&gt;BB11 -->
<g id="edge15" class="edge">
<title>BB10&#45;&gt;BB11</title>
<path fill="none" stroke="black" d="M469.72,-1068.85C501.7,-1052.06 540.02,-1031.95 573.09,-1014.59"/>
<polygon fill="black" stroke="black" points="575.04,-1017.52 582.26,-1009.77 571.78,-1011.32 575.04,-1017.52"/>
</g>
<!-- BB22 -->
<g id="node23" class="node">
<title>BB22</title>
<ellipse fill="none" stroke="black" cx="822.95" cy="-841.08" rx="103.48" ry="48.17"/>
<text text-anchor="middle" x="822.95" y="-859.88" font-family="Times New Roman,serif" font-size="14.00">[96..9b)</text>
<text text-anchor="middle" x="822.95" y="-844.88" font-family="Times New Roman,serif" font-size="14.00">Count: 5</text>
<text text-anchor="middle" x="822.95" y="-829.88" font-family="Times New Roman,serif" font-size="14.00">Normalized count: 2.50</text>
<text text-anchor="middle" x="822.95" y="-814.88" font-family="Times New Roman,serif" font-size="14.00">Samples weight: 0.00</text>
</g>
<!-- BB11&#45;&gt;BB22 -->
<g id="edge16" class="edge">
<title>BB11&#45;&gt;BB22</title>
<path fill="none" stroke="black" d="M703.74,-931.78C721.97,-918.06 742.48,-902.63 761.27,-888.49"/>
<polygon fill="black" stroke="black" points="763.6,-891.11 769.49,-882.31 759.4,-885.52 763.6,-891.11"/>
</g>
<!-- BB12 -->
<g id="node13" class="node">
<title>BB12</title>
<ellipse fill="none" stroke="black" cx="1117.95" cy="-708.92" rx="103.48" ry="48.17"/>
<text text-anchor="middle" x="1117.95" y="-727.72" font-family="Times New Roman,serif" font-size="14.00">[50..5a)</text>
<text text-anchor="middle" x="1117.95" y="-712.72" font-family="Times New Roman,serif" font-size="14.00">Count: 3</text>
<text text-anchor="middle" x="1117.95" y="-697.72" font-family="Times New Roman,serif" font-size="14.00">Normalized count: 1.50</text>
<text text-anchor="middle" x="1117.95" y="-682.72" font-family="Times New Roman,serif" font-size="14.00">Samples weight: 0.00</text>
</g>
<!-- BB16 -->
<g id="node17" class="node">
<title>BB16</title>
<ellipse fill="none" stroke="black" cx="1143.95" cy="-576.75" rx="113.27" ry="48.17"/>
<text text-anchor="middle" x="1143.95" y="-595.55" font-family="Times New Roman,serif" font-size="14.00">[6d..72)</text>
<text text-anchor="middle" x="1143.95" y="-580.55" font-family="Times New Roman,serif" font-size="14.00">Count: 255</text>
<text text-anchor="middle" x="1143.95" y="-565.55" font-family="Times New Roman,serif" font-size="14.00">Normalized count: 127.50</text>
<text text-anchor="middle" x="1143.95" y="-550.55" font-family="Times New Roman,serif" font-size="14.00">Samples weight: 0.10</text>
</g>
<!-- BB12&#45;&gt;BB16 -->
<g id="edge17" class="edge">
<title>BB12&#45;&gt;BB16</title>
<path fill="none" stroke="black" d="M1127.34,-660.92C1129.05,-652.35 1130.85,-643.33 1132.61,-634.51"/>
<polygon fill="black" stroke="black" points="1136.05,-635.17 1134.58,-624.67 1129.19,-633.79 1136.05,-635.17"/>
</g>
<!-- BB13 -->
<g id="node14" class="node">
<title>BB13</title>
<ellipse fill="none" stroke="black" cx="1168.95" cy="-444.58" rx="113.27" ry="48.17"/>
<text text-anchor="middle" x="1168.95" y="-463.38" font-family="Times New Roman,serif" font-size="14.00">[5a..62)</text>
<text text-anchor="middle" x="1168.95" y="-448.38" font-family="Times New Roman,serif" font-size="14.00">Count: 252</text>
<text text-anchor="middle" x="1168.95" y="-433.38" font-family="Times New Roman,serif" font-size="14.00">Normalized count: 126.00</text>
<text text-anchor="middle" x="1168.95" y="-418.38" font-family="Times New Roman,serif" font-size="14.00">Samples weight: 0.10</text>
</g>
<!-- BB14 -->
<g id="node15" class="node">
<title>BB14</title>
<ellipse fill="none" stroke="black" cx="1163.95" cy="-312.42" rx="103.48" ry="48.17"/>
<text text-anchor="middle" x="1163.95" y="-331.22" font-family="Times New Roman,serif" font-size="14.00">[62..68)</text>
<text text-anchor="middle" x="1163.95" y="-316.22" font-family="Times New Roman,serif" font-size="14.00">Count: 17</text>
<text text-anchor="middle" x="1163.95" y="-301.22" font-family="Times New Roman,serif" font-size="14.00">Normalized count: 8.50</text>
<text text-anchor="middle" x="1163.95" y="-286.22" font-family="Times New Roman,serif" font-size="14.00">Samples weight: 0.01</text>
</g>
<!-- BB13&#45;&gt;BB14 -->
<g id="edge19" class="edge">
<title>BB13&#45;&gt;BB14</title>
<path fill="none" stroke="black" d="M1167.13,-396.22C1166.81,-387.95 1166.48,-379.27 1166.15,-370.77"/>
<polygon fill="black" stroke="black" points="1169.64,-370.38 1165.76,-360.52 1162.65,-370.65 1169.64,-370.38"/>
</g>
<!-- BB15 -->
<g id="node16" class="node">
<title>BB15</title>
<ellipse fill="none" stroke="black" cx="1397.95" cy="-312.42" rx="113.27" ry="48.17"/>
<text text-anchor="middle" x="1397.95" y="-331.22" font-family="Times New Roman,serif" font-size="14.00">[68..6d)</text>
<text text-anchor="middle" x="1397.95" y="-316.22" font-family="Times New Roman,serif" font-size="14.00">Count: 252</text>
<text text-anchor="middle" x="1397.95" y="-301.22" font-family="Times New Roman,serif" font-size="14.00">Normalized count: 126.00</text>
<text text-anchor="middle" x="1397.95" y="-286.22" font-family="Times New Roman,serif" font-size="14.00">Samples weight: 0.10</text>
</g>
<!-- BB13&#45;&gt;BB15 -->
<g id="edge18" class="edge">
<title>BB13&#45;&gt;BB15</title>
<path fill="none" stroke="black" d="M1235.8,-405.58C1262.84,-390.21 1294.2,-372.39 1322.09,-356.54"/>
<polygon fill="black" stroke="black" points="1324.05,-359.45 1331.02,-351.46 1320.59,-353.36 1324.05,-359.45"/>
</g>
<!-- BB14&#45;&gt;BB15 -->
<g id="edge20" class="edge">
<title>BB14&#45;&gt;BB15</title>
<path fill="none" stroke="black" d="M1267.24,-312.42C1269.68,-312.42 1272.12,-312.42 1274.56,-312.42"/>
<polygon fill="black" stroke="black" points="1274.6,-315.92 1284.6,-312.42 1274.6,-308.92 1274.6,-315.92"/>
</g>
<!-- BB15&#45;&gt;BB16 -->
<g id="edge21" class="edge">
<title>BB15&#45;&gt;BB16</title>
<path fill="none" stroke="black" d="M1378.48,-359.85C1360.3,-398.94 1330.1,-454.43 1290.95,-492.67 1273.44,-509.77 1251.71,-524.55 1230.38,-536.71"/>
<polygon fill="black" stroke="black" points="1228.65,-533.67 1221.6,-541.59 1232.04,-539.79 1228.65,-533.67"/>
</g>
<!-- BB16&#45;&gt;BB13 -->
<g id="edge22" class="edge">
<title>BB16&#45;&gt;BB13</title>
<path fill="none" stroke="black" d="M1152.98,-528.76C1154.58,-520.38 1156.28,-511.57 1157.93,-502.95"/>
<polygon fill="black" stroke="black" points="1161.4,-503.42 1159.85,-492.94 1154.53,-502.1 1161.4,-503.42"/>
</g>
<!-- BB17 -->
<g id="node18" class="node">
<title>BB17</title>
<ellipse fill="none" stroke="black" cx="934.95" cy="-444.58" rx="103.48" ry="48.17"/>
<text text-anchor="middle" x="934.95" y="-463.38" font-family="Times New Roman,serif" font-size="14.00">[72..75)</text>
<text text-anchor="middle" x="934.95" y="-448.38" font-family="Times New Roman,serif" font-size="14.00">Count: 3</text>
<text text-anchor="middle" x="934.95" y="-433.38" font-family="Times New Roman,serif" font-size="14.00">Normalized count: 1.50</text>
<text text-anchor="middle" x="934.95" y="-418.38" font-family="Times New Roman,serif" font-size="14.00">Samples weight: 0.00</text>
</g>
<!-- BB16&#45;&gt;BB17 -->
<g id="edge23" class="edge">
<title>BB16&#45;&gt;BB17</title>
<path fill="none" stroke="black" d="M1081.24,-536.7C1057.04,-521.62 1029.26,-504.32 1004.46,-488.87"/>
<polygon fill="black" stroke="black" points="1006.15,-485.81 995.82,-483.49 1002.45,-491.75 1006.15,-485.81"/>
</g>
<!-- BB18 -->
<g id="node19" class="node">
<title>BB18</title>
<ellipse fill="none" stroke="black" cx="939.95" cy="-312.42" rx="103.48" ry="48.17"/>
<text text-anchor="middle" x="939.95" y="-331.22" font-family="Times New Roman,serif" font-size="14.00">[75..79)</text>
<text text-anchor="middle" x="939.95" y="-316.22" font-family="Times New Roman,serif" font-size="14.00">Count: 2</text>
<text text-anchor="middle" x="939.95" y="-301.22" font-family="Times New Roman,serif" font-size="14.00">Normalized count: 1.00</text>
<text text-anchor="middle" x="939.95" y="-286.22" font-family="Times New Roman,serif" font-size="14.00">Samples weight: 0.00</text>
</g>
<!-- BB17&#45;&gt;BB18 -->
<g id="edge25" class="edge">
<title>BB17&#45;&gt;BB18</title>
<path fill="none" stroke="black" d="M936.77,-396.22C937.09,-387.95 937.42,-379.27 937.75,-370.77"/>
<polygon fill="black" stroke="black" points="941.25,-370.65 938.14,-360.52 934.26,-370.38 941.25,-370.65"/>
</g>
<!-- BB21 -->
<g id="node22" class="node">
<title>BB21</title>
<ellipse fill="none" stroke="black" cx="715.95" cy="-312.42" rx="103.48" ry="48.17"/>
<text text-anchor="middle" x="715.95" y="-331.22" font-family="Times New Roman,serif" font-size="14.00">[91..96)</text>
<text text-anchor="middle" x="715.95" y="-316.22" font-family="Times New Roman,serif" font-size="14.00">Count: 3</text>
<text text-anchor="middle" x="715.95" y="-301.22" font-family="Times New Roman,serif" font-size="14.00">Normalized count: 1.50</text>
<text text-anchor="middle" x="715.95" y="-286.22" font-family="Times New Roman,serif" font-size="14.00">Samples weight: 0.00</text>
</g>
<!-- BB17&#45;&gt;BB21 -->
<g id="edge24" class="edge">
<title>BB17&#45;&gt;BB21</title>
<path fill="none" stroke="black" d="M872.19,-406.28C845.73,-390.56 814.79,-372.16 787.45,-355.92"/>
<polygon fill="black" stroke="black" points="789.1,-352.82 778.72,-350.72 785.52,-358.84 789.1,-352.82"/>
</g>
<!-- BB20 -->
<g id="node21" class="node">
<title>BB20</title>
<ellipse fill="none" stroke="black" cx="827.95" cy="-180.25" rx="108.38" ry="48.17"/>
<text text-anchor="middle" x="827.95" y="-199.05" font-family="Times New Roman,serif" font-size="14.00">[8c..91)</text>
<text text-anchor="middle" x="827.95" y="-184.05" font-family="Times New Roman,serif" font-size="14.00">Count: 150</text>
<text text-anchor="middle" x="827.95" y="-169.05" font-family="Times New Roman,serif" font-size="14.00">Normalized count: 75.00</text>
<text text-anchor="middle" x="827.95" y="-154.05" font-family="Times New Roman,serif" font-size="14.00">Samples weight: 0.06</text>
</g>
<!-- BB18&#45;&gt;BB20 -->
<g id="edge26" class="edge">
<title>BB18&#45;&gt;BB20</title>
<path fill="none" stroke="black" d="M902.03,-267.35C892.65,-256.44 882.5,-244.65 872.82,-233.4"/>
<polygon fill="black" stroke="black" points="875.39,-231.01 866.21,-225.72 870.08,-235.58 875.39,-231.01"/>
</g>
<!-- BB19 -->
<g id="node20" class="node">
<title>BB19</title>
<ellipse fill="none" stroke="black" cx="827.95" cy="-48.08" rx="108.38" ry="48.17"/>
<text text-anchor="middle" x="827.95" y="-66.88" font-family="Times New Roman,serif" font-size="14.00">[79..8c)</text>
<text text-anchor="middle" x="827.95" y="-51.88" font-family="Times New Roman,serif" font-size="14.00">Count: 148</text>
<text text-anchor="middle" x="827.95" y="-36.88" font-family="Times New Roman,serif" font-size="14.00">Normalized count: 74.00</text>
<text text-anchor="middle" x="827.95" y="-21.88" font-family="Times New Roman,serif" font-size="14.00">Samples weight: 0.06</text>
</g>
<!-- BB19&#45;&gt;BB20 -->
<g id="edge27" class="edge">
<title>BB19&#45;&gt;BB20</title>
<path fill="none" stroke="black" d="M834.47,-96.19C834.69,-104.45 834.75,-113.13 834.66,-121.64"/>
<polygon fill="black" stroke="black" points="831.16,-121.83 834.47,-131.89 838.16,-121.95 831.16,-121.83"/>
</g>
<!-- BB20&#45;&gt;BB19 -->
<g id="edge28" class="edge">
<title>BB20&#45;&gt;BB19</title>
<path fill="none" stroke="black" d="M821.43,-131.89C821.21,-123.62 821.15,-114.94 821.24,-106.43"/>
<polygon fill="black" stroke="black" points="824.75,-106.26 821.43,-96.19 817.75,-106.12 824.75,-106.26"/>
</g>
<!-- BB20&#45;&gt;BB21 -->
<g id="edge29" class="edge">
<title>BB20&#45;&gt;BB21</title>
<path fill="none" stroke="black" d="M789.69,-225.72C780.29,-236.64 770.14,-248.44 760.47,-259.67"/>
<polygon fill="black" stroke="black" points="757.74,-257.48 753.87,-267.35 763.04,-262.05 757.74,-257.48"/>
</g>
<!-- BB21&#45;&gt;BB22 -->
<g id="edge30" class="edge">
<title>BB21&#45;&gt;BB22</title>
<path fill="none" stroke="black" d="M730.33,-360.11C733.56,-371.9 736.69,-384.59 738.95,-396.5 768.99,-554.78 728.52,-603.34 776.95,-757 779.96,-766.55 784.13,-776.25 788.75,-785.49"/>
<polygon fill="black" stroke="black" points="785.75,-787.3 793.48,-794.54 791.95,-784.06 785.75,-787.3"/>
</g>
<!-- BB22&#45;&gt;BB12 -->
<g id="edge31" class="edge">
<title>BB22&#45;&gt;BB12</title>
<path fill="none" stroke="black" d="M897.01,-807.4C938.83,-788.95 991.22,-765.83 1034.49,-746.74"/>
<polygon fill="black" stroke="black" points="1036.12,-749.85 1043.86,-742.61 1033.3,-743.44 1036.12,-749.85"/>
</g>
<!-- BB23 -->
<g id="node24" class="node">
<title>BB23</title>
<ellipse fill="none" stroke="black" cx="888.95" cy="-708.92" rx="103.48" ry="48.17"/>
<text text-anchor="middle" x="888.95" y="-727.72" font-family="Times New Roman,serif" font-size="14.00">[9b..9c)</text>
<text text-anchor="middle" x="888.95" y="-712.72" font-family="Times New Roman,serif" font-size="14.00">Count: 2</text>
<text text-anchor="middle" x="888.95" y="-697.72" font-family="Times New Roman,serif" font-size="14.00">Normalized count: 1.00</text>
<text text-anchor="middle" x="888.95" y="-682.72" font-family="Times New Roman,serif" font-size="14.00">Samples weight: 0.00</text>
</g>
<!-- BB22&#45;&gt;BB23 -->
<g id="edge32" class="edge">
<title>BB22&#45;&gt;BB23</title>
<path fill="none" stroke="black" d="M846.22,-794.19C851,-784.76 856.08,-774.74 861.01,-765.03"/>
<polygon fill="black" stroke="black" points="864.27,-766.33 865.67,-755.83 858.02,-763.17 864.27,-766.33"/>
</g>
</g>
</svg>
