<?xml version="1.0" encoding="UTF-8" standalone="no"?>
<!DOCTYPE svg PUBLIC "-//W3C//DTD SVG 1.1//EN"
 "http://www.w3.org/Graphics/SVG/1.1/DTD/svg11.dtd">
<!-- Generated by graphviz version 2.47.0 (20210316.0004)
 -->
<!-- Title: G Pages: 1 -->
<svg width="1169pt" height="1161pt"
 viewBox="0.00 0.00 1168.57 1161.50" xmlns="http://www.w3.org/2000/svg" xmlns:xlink="http://www.w3.org/1999/xlink">
<g id="graph0" class="graph" transform="scale(1 1) rotate(0) translate(4 1157.5)">
<title>G</title>
<polygon fill="white" stroke="transparent" points="-4,4 -4,-1157.5 1164.57,-1157.5 1164.57,4 -4,4"/>
<!-- BB0 -->
<g id="node1" class="node">
<title>BB0</title>
<ellipse fill="none" stroke="black" cx="197.33" cy="-1105.42" rx="103.48" ry="48.17"/>
<text text-anchor="middle" x="197.33" y="-1124.22" font-family="Times New Roman,serif" font-size="14.00">[0..f)</text>
<text text-anchor="middle" x="197.33" y="-1109.22" font-family="Times New Roman,serif" font-size="14.00">Count: 1</text>
<text text-anchor="middle" x="197.33" y="-1094.22" font-family="Times New Roman,serif" font-size="14.00">Normalized count: 1.00</text>
<text text-anchor="middle" x="197.33" y="-1079.22" font-family="Times New Roman,serif" font-size="14.00">Samples weight: 0.00</text>
</g>
<!-- BB3 -->
<g id="node4" class="node">
<title>BB3</title>
<ellipse fill="none" stroke="black" cx="197.33" cy="-973.25" rx="122.16" ry="48.17"/>
<text text-anchor="middle" x="197.33" y="-992.05" font-family="Times New Roman,serif" font-size="14.00">[2e..38)</text>
<text text-anchor="middle" x="197.33" y="-977.05" font-family="Times New Roman,serif" font-size="14.00">Count: 16670</text>
<text text-anchor="middle" x="197.33" y="-962.05" font-family="Times New Roman,serif" font-size="14.00">Normalized count: 16670.00</text>
<text text-anchor="middle" x="197.33" y="-947.05" font-family="Times New Roman,serif" font-size="14.00">Samples weight: 0.17</text>
</g>
<!-- BB0&#45;&gt;BB3 -->
<g id="edge1" class="edge">
<title>BB0&#45;&gt;BB3</title>
<path fill="none" stroke="black" d="M197.33,-1057.05C197.33,-1048.79 197.33,-1040.1 197.33,-1031.6"/>
<polygon fill="black" stroke="black" points="200.83,-1031.36 197.33,-1021.36 193.83,-1031.36 200.83,-1031.36"/>
</g>
<!-- BB1 -->
<g id="node2" class="node">
<title>BB1</title>
<ellipse fill="none" stroke="black" cx="122.33" cy="-841.08" rx="122.16" ry="48.17"/>
<text text-anchor="middle" x="122.33" y="-859.88" font-family="Times New Roman,serif" font-size="14.00">[f..1a)</text>
<text text-anchor="middle" x="122.33" y="-844.88" font-family="Times New Roman,serif" font-size="14.00">Count: 16670</text>
<text text-anchor="middle" x="122.33" y="-829.88" font-family="Times New Roman,serif" font-size="14.00">Normalized count: 16670.00</text>
<text text-anchor="middle" x="122.33" y="-814.88" font-family="Times New Roman,serif" font-size="14.00">Samples weight: 0.17</text>
</g>
<!-- BB2 -->
<g id="node3" class="node">
<title>BB2</title>
<ellipse fill="none" stroke="black" cx="159.33" cy="-708.92" rx="103.48" ry="48.17"/>
<text text-anchor="middle" x="159.33" y="-727.72" font-family="Times New Roman,serif" font-size="14.00">[1a..2e)</text>
<text text-anchor="middle" x="159.33" y="-712.72" font-family="Times New Roman,serif" font-size="14.00">Count: 3</text>
<text text-anchor="middle" x="159.33" y="-697.72" font-family="Times New Roman,serif" font-size="14.00">Normalized count: 3.00</text>
<text text-anchor="middle" x="159.33" y="-682.72" font-family="Times New Roman,serif" font-size="14.00">Samples weight: 0.00</text>
</g>
<!-- BB1&#45;&gt;BB2 -->
<g id="edge3" class="edge">
<title>BB1&#45;&gt;BB2</title>
<path fill="none" stroke="black" d="M135.69,-793.09C138.12,-784.52 140.69,-775.49 143.2,-766.67"/>
<polygon fill="black" stroke="black" points="146.62,-767.42 145.99,-756.84 139.89,-765.5 146.62,-767.42"/>
</g>
<!-- BB1&#45;&gt;BB3 -->
<g id="edge2" class="edge">
<title>BB1&#45;&gt;BB3</title>
<path fill="none" stroke="black" d="M154.97,-887.51C160.69,-896.95 166.56,-907.01 172.05,-916.77"/>
<polygon fill="black" stroke="black" points="169.05,-918.58 176.97,-925.62 175.17,-915.18 169.05,-918.58"/>
</g>
<!-- BB2&#45;&gt;BB3 -->
<g id="edge5" class="edge">
<title>BB2&#45;&gt;BB3</title>
<path fill="none" stroke="black" d="M218.45,-748.58C232.5,-760.94 245.63,-775.92 253.33,-793 270.89,-831.96 265.82,-848.29 253.33,-889.17 250.25,-899.25 245.49,-909.22 240.01,-918.56"/>
<polygon fill="black" stroke="black" points="236.88,-916.97 234.58,-927.31 242.83,-920.66 236.88,-916.97"/>
</g>
<!-- BB8 -->
<g id="node9" class="node">
<title>BB8</title>
<ellipse fill="none" stroke="black" cx="403.33" cy="-708.92" rx="122.16" ry="48.17"/>
<text text-anchor="middle" x="403.33" y="-727.72" font-family="Times New Roman,serif" font-size="14.00">[5b..65)</text>
<text text-anchor="middle" x="403.33" y="-712.72" font-family="Times New Roman,serif" font-size="14.00">Count: 16668</text>
<text text-anchor="middle" x="403.33" y="-697.72" font-family="Times New Roman,serif" font-size="14.00">Normalized count: 16668.00</text>
<text text-anchor="middle" x="403.33" y="-682.72" font-family="Times New Roman,serif" font-size="14.00">Samples weight: 0.17</text>
</g>
<!-- BB2&#45;&gt;BB8 -->
<g id="edge4" class="edge">
<title>BB2&#45;&gt;BB8</title>
<path fill="none" stroke="black" d="M262.74,-708.92C265.39,-708.92 268.03,-708.92 270.67,-708.92"/>
<polygon fill="black" stroke="black" points="270.87,-712.42 280.87,-708.92 270.87,-705.42 270.87,-712.42"/>
</g>
<!-- BB3&#45;&gt;BB1 -->
<g id="edge6" class="edge">
<title>BB3&#45;&gt;BB1</title>
<path fill="none" stroke="black" d="M164.63,-926.72C158.92,-917.29 153.06,-907.26 147.59,-897.52"/>
<polygon fill="black" stroke="black" points="150.6,-895.73 142.68,-888.68 144.48,-899.13 150.6,-895.73"/>
</g>
<!-- BB4 -->
<g id="node5" class="node">
<title>BB4</title>
<ellipse fill="none" stroke="black" cx="403.33" cy="-841.08" rx="103.48" ry="48.17"/>
<text text-anchor="middle" x="403.33" y="-859.88" font-family="Times New Roman,serif" font-size="14.00">[38..3a)</text>
<text text-anchor="middle" x="403.33" y="-844.88" font-family="Times New Roman,serif" font-size="14.00">Count: 0</text>
<text text-anchor="middle" x="403.33" y="-829.88" font-family="Times New Roman,serif" font-size="14.00">Normalized count: 0.00</text>
<text text-anchor="middle" x="403.33" y="-814.88" font-family="Times New Roman,serif" font-size="14.00">Samples weight: 0.00</text>
</g>
<!-- BB3&#45;&gt;BB4 -->
<g id="edge7" class="edge">
<title>BB3&#45;&gt;BB4</title>
<path fill="none" stroke="black" d="M260.82,-932.13C284.09,-917.43 310.53,-900.72 334.26,-885.73"/>
<polygon fill="black" stroke="black" points="336.29,-888.59 342.87,-880.29 332.55,-882.67 336.29,-888.59"/>
</g>
<!-- BB4&#45;&gt;BB8 -->
<g id="edge8" class="edge">
<title>BB4&#45;&gt;BB8</title>
<path fill="none" stroke="black" d="M403.33,-792.72C403.33,-784.45 403.33,-775.77 403.33,-767.27"/>
<polygon fill="black" stroke="black" points="406.83,-767.02 403.33,-757.02 399.83,-767.02 406.83,-767.02"/>
</g>
<!-- BB5 -->
<g id="node6" class="node">
<title>BB5</title>
<ellipse fill="none" stroke="black" cx="328.33" cy="-576.75" rx="122.16" ry="48.17"/>
<text text-anchor="middle" x="328.33" y="-595.55" font-family="Times New Roman,serif" font-size="14.00">[3a..49)</text>
<text text-anchor="middle" x="328.33" y="-580.55" font-family="Times New Roman,serif" font-size="14.00">Count: 16667</text>
<text text-anchor="middle" x="328.33" y="-565.55" font-family="Times New Roman,serif" font-size="14.00">Normalized count: 16667.00</text>
<text text-anchor="middle" x="328.33" y="-550.55" font-family="Times New Roman,serif" font-size="14.00">Samples weight: 0.17</text>
</g>
<!-- BB6 -->
<g id="node7" class="node">
<title>BB6</title>
<ellipse fill="none" stroke="black" cx="328.33" cy="-444.58" rx="122.16" ry="48.17"/>
<text text-anchor="middle" x="328.33" y="-463.38" font-family="Times New Roman,serif" font-size="14.00">[49..4f)</text>
<text text-anchor="middle" x="328.33" y="-448.38" font-family="Times New Roman,serif" font-size="14.00">Count: 16667</text>
<text text-anchor="middle" x="328.33" y="-433.38" font-family="Times New Roman,serif" font-size="14.00">Normalized count: 16667.00</text>
<text text-anchor="middle" x="328.33" y="-418.38" font-family="Times New Roman,serif" font-size="14.00">Samples weight: 0.17</text>
</g>
<!-- BB5&#45;&gt;BB6 -->
<g id="edge10" class="edge">
<title>BB5&#45;&gt;BB6</title>
<path fill="none" stroke="black" d="M328.33,-528.39C328.33,-520.12 328.33,-511.44 328.33,-502.93"/>
<polygon fill="black" stroke="black" points="331.83,-502.69 328.33,-492.69 324.83,-502.69 331.83,-502.69"/>
</g>
<!-- BB9 -->
<g id="node10" class="node">
<title>BB9</title>
<ellipse fill="none" stroke="black" cx="609.33" cy="-576.75" rx="103.48" ry="48.17"/>
<text text-anchor="middle" x="609.33" y="-595.55" font-family="Times New Roman,serif" font-size="14.00">[65..7b)</text>
<text text-anchor="middle" x="609.33" y="-580.55" font-family="Times New Roman,serif" font-size="14.00">Count: 1</text>
<text text-anchor="middle" x="609.33" y="-565.55" font-family="Times New Roman,serif" font-size="14.00">Normalized count: 1.00</text>
<text text-anchor="middle" x="609.33" y="-550.55" font-family="Times New Roman,serif" font-size="14.00">Samples weight: 0.00</text>
</g>
<!-- BB5&#45;&gt;BB9 -->
<g id="edge9" class="edge">
<title>BB5&#45;&gt;BB9</title>
<path fill="none" stroke="black" d="M450.72,-576.75C465.65,-576.75 480.59,-576.75 495.52,-576.75"/>
<polygon fill="black" stroke="black" points="495.86,-580.25 505.86,-576.75 495.86,-573.25 495.86,-580.25"/>
</g>
<!-- BB7 -->
<g id="node8" class="node">
<title>BB7</title>
<ellipse fill="none" stroke="black" cx="347.33" cy="-312.42" rx="122.16" ry="48.17"/>
<text text-anchor="middle" x="347.33" y="-331.22" font-family="Times New Roman,serif" font-size="14.00">[4f..5b)</text>
<text text-anchor="middle" x="347.33" y="-316.22" font-family="Times New Roman,serif" font-size="14.00">Count: 16667</text>
<text text-anchor="middle" x="347.33" y="-301.22" font-family="Times New Roman,serif" font-size="14.00">Normalized count: 16667.00</text>
<text text-anchor="middle" x="347.33" y="-286.22" font-family="Times New Roman,serif" font-size="14.00">Samples weight: 0.17</text>
</g>
<!-- BB6&#45;&gt;BB7 -->
<g id="edge12" class="edge">
<title>BB6&#45;&gt;BB7</title>
<path fill="none" stroke="black" d="M335.24,-396.22C336.46,-387.86 337.74,-379.08 339,-370.49"/>
<polygon fill="black" stroke="black" points="342.47,-370.93 340.45,-360.52 335.55,-369.91 342.47,-370.93"/>
</g>
<!-- BB6&#45;&gt;BB8 -->
<g id="edge11" class="edge">
<title>BB6&#45;&gt;BB8</title>
<path fill="none" stroke="black" d="M245.83,-480.42C226.51,-492.71 208.36,-508.61 197.33,-528.67 176.73,-566.12 173.42,-589.41 197.33,-624.83 200.86,-630.06 254.6,-651.65 306.31,-671.51"/>
<polygon fill="black" stroke="black" points="305.33,-674.89 315.92,-675.2 307.84,-668.35 305.33,-674.89"/>
</g>
<!-- BB7&#45;&gt;BB8 -->
<g id="edge13" class="edge">
<title>BB7&#45;&gt;BB8</title>
<path fill="none" stroke="black" d="M419.27,-351.37C435.35,-363.51 450.3,-378.55 459.33,-396.5 504.95,-487.15 488.98,-527.78 459.33,-624.83 456.25,-634.92 451.49,-644.89 446.01,-654.23"/>
<polygon fill="black" stroke="black" points="442.88,-652.63 440.58,-662.97 448.83,-656.33 442.88,-652.63"/>
</g>
<!-- BB8&#45;&gt;BB5 -->
<g id="edge14" class="edge">
<title>BB8&#45;&gt;BB5</title>
<path fill="none" stroke="black" d="M376.68,-661.66C371.26,-652.26 365.51,-642.29 359.95,-632.62"/>
<polygon fill="black" stroke="black" points="362.92,-630.78 354.9,-623.86 356.86,-634.27 362.92,-630.78"/>
</g>
<!-- BB8&#45;&gt;BB9 -->
<g id="edge15" class="edge">
<title>BB8&#45;&gt;BB9</title>
<path fill="none" stroke="black" d="M466.82,-667.8C490.09,-653.1 516.53,-636.39 540.26,-621.39"/>
<polygon fill="black" stroke="black" points="542.29,-624.25 548.87,-615.95 538.55,-618.34 542.29,-624.25"/>
</g>
<!-- BB11 -->
<g id="node12" class="node">
<title>BB11</title>
<ellipse fill="none" stroke="black" cx="609.33" cy="-444.58" rx="103.48" ry="48.17"/>
<text text-anchor="middle" x="609.33" y="-463.38" font-family="Times New Roman,serif" font-size="14.00">[9a..9f)</text>
<text text-anchor="middle" x="609.33" y="-448.38" font-family="Times New Roman,serif" font-size="14.00">Count: 3</text>
<text text-anchor="middle" x="609.33" y="-433.38" font-family="Times New Roman,serif" font-size="14.00">Normalized count: 3.00</text>
<text text-anchor="middle" x="609.33" y="-418.38" font-family="Times New Roman,serif" font-size="14.00">Samples weight: 0.00</text>
</g>
<!-- BB9&#45;&gt;BB11 -->
<g id="edge16" class="edge">
<title>BB9&#45;&gt;BB11</title>
<path fill="none" stroke="black" d="M609.33,-528.39C609.33,-520.12 609.33,-511.44 609.33,-502.93"/>
<polygon fill="black" stroke="black" points="612.83,-502.69 609.33,-492.69 605.83,-502.69 612.83,-502.69"/>
</g>
<!-- BB10 -->
<g id="node11" class="node">
<title>BB10</title>
<ellipse fill="none" stroke="black" cx="609.33" cy="-312.42" rx="103.48" ry="48.17"/>
<text text-anchor="middle" x="609.33" y="-331.22" font-family="Times New Roman,serif" font-size="14.00">[7b..9a)</text>
<text text-anchor="middle" x="609.33" y="-316.22" font-family="Times New Roman,serif" font-size="14.00">Count: 2</text>
<text text-anchor="middle" x="609.33" y="-301.22" font-family="Times New Roman,serif" font-size="14.00">Normalized count: 2.00</text>
<text text-anchor="middle" x="609.33" y="-286.22" font-family="Times New Roman,serif" font-size="14.00">Samples weight: 0.00</text>
</g>
<!-- BB10&#45;&gt;BB11 -->
<g id="edge17" class="edge">
<title>BB10&#45;&gt;BB11</title>
<path fill="none" stroke="black" d="M615.85,-360.78C616.07,-369.07 616.13,-377.79 616.04,-386.32"/>
<polygon fill="black" stroke="black" points="612.53,-386.53 615.84,-396.59 619.53,-386.66 612.53,-386.53"/>
</g>
<!-- BB11&#45;&gt;BB10 -->
<g id="edge18" class="edge">
<title>BB11&#45;&gt;BB10</title>
<path fill="none" stroke="black" d="M602.82,-396.59C602.59,-388.22 602.53,-379.41 602.62,-370.78"/>
<polygon fill="black" stroke="black" points="606.12,-370.84 602.81,-360.78 599.12,-370.71 606.12,-370.84"/>
</g>
<!-- BB12 -->
<g id="node13" class="node">
<title>BB12</title>
<ellipse fill="none" stroke="black" cx="833.33" cy="-312.42" rx="103.48" ry="48.17"/>
<text text-anchor="middle" x="833.33" y="-331.22" font-family="Times New Roman,serif" font-size="14.00">[9f..d7)</text>
<text text-anchor="middle" x="833.33" y="-316.22" font-family="Times New Roman,serif" font-size="14.00">Count: 1</text>
<text text-anchor="middle" x="833.33" y="-301.22" font-family="Times New Roman,serif" font-size="14.00">Normalized count: 1.00</text>
<text text-anchor="middle" x="833.33" y="-286.22" font-family="Times New Roman,serif" font-size="14.00">Samples weight: 0.00</text>
</g>
<!-- BB11&#45;&gt;BB12 -->
<g id="edge19" class="edge">
<title>BB11&#45;&gt;BB12</title>
<path fill="none" stroke="black" d="M672.92,-406.63C700.35,-390.69 732.57,-371.97 760.92,-355.49"/>
<polygon fill="black" stroke="black" points="762.69,-358.51 769.58,-350.46 759.18,-352.46 762.69,-358.51"/>
</g>
<!-- BB14 -->
<g id="node15" class="node">
<title>BB14</title>
<ellipse fill="none" stroke="black" cx="833.33" cy="-180.25" rx="103.48" ry="48.17"/>
<text text-anchor="middle" x="833.33" y="-199.05" font-family="Times New Roman,serif" font-size="14.00">[100..108)</text>
<text text-anchor="middle" x="833.33" y="-184.05" font-family="Times New Roman,serif" font-size="14.00">Count: 6</text>
<text text-anchor="middle" x="833.33" y="-169.05" font-family="Times New Roman,serif" font-size="14.00">Normalized count: 6.00</text>
<text text-anchor="middle" x="833.33" y="-154.05" font-family="Times New Roman,serif" font-size="14.00">Samples weight: 0.00</text>
</g>
<!-- BB12&#45;&gt;BB14 -->
<g id="edge20" class="edge">
<title>BB12&#45;&gt;BB14</title>
<path fill="none" stroke="black" d="M833.33,-264.05C833.33,-255.79 833.33,-247.1 833.33,-238.6"/>
<polygon fill="black" stroke="black" points="836.83,-238.36 833.33,-228.36 829.83,-238.36 836.83,-238.36"/>
</g>
<!-- BB13 -->
<g id="node14" class="node">
<title>BB13</title>
<ellipse fill="none" stroke="black" cx="833.33" cy="-48.08" rx="103.48" ry="48.17"/>
<text text-anchor="middle" x="833.33" y="-66.88" font-family="Times New Roman,serif" font-size="14.00">[d7..100)</text>
<text text-anchor="middle" x="833.33" y="-51.88" font-family="Times New Roman,serif" font-size="14.00">Count: 5</text>
<text text-anchor="middle" x="833.33" y="-36.88" font-family="Times New Roman,serif" font-size="14.00">Normalized count: 5.00</text>
<text text-anchor="middle" x="833.33" y="-21.88" font-family="Times New Roman,serif" font-size="14.00">Samples weight: 0.00</text>
</g>
<!-- BB13&#45;&gt;BB14 -->
<g id="edge21" class="edge">
<title>BB13&#45;&gt;BB14</title>
<path fill="none" stroke="black" d="M839.85,-96.44C840.07,-104.74 840.13,-113.45 840.04,-121.98"/>
<polygon fill="black" stroke="black" points="836.53,-122.19 839.84,-132.26 843.53,-122.32 836.53,-122.19"/>
</g>
<!-- BB14&#45;&gt;BB13 -->
<g id="edge22" class="edge">
<title>BB14&#45;&gt;BB13</title>
<path fill="none" stroke="black" d="M826.82,-132.26C826.59,-123.88 826.53,-115.07 826.62,-106.45"/>
<polygon fill="black" stroke="black" points="830.12,-106.51 826.81,-96.44 823.12,-106.38 830.12,-106.51"/>
</g>
<!-- BB15 -->
<g id="node16" class="node">
<title>BB15</title>
<ellipse fill="none" stroke="black" cx="1057.33" cy="-48.08" rx="103.48" ry="48.17"/>
<text text-anchor="middle" x="1057.33" y="-66.88" font-family="Times New Roman,serif" font-size="14.00">[108..10b)</text>
<text text-anchor="middle" x="1057.33" y="-51.88" font-family="Times New Roman,serif" font-size="14.00">Count: 1</text>
<text text-anchor="middle" x="1057.33" y="-36.88" font-family="Times New Roman,serif" font-size="14.00">Normalized count: 1.00</text>
<text text-anchor="middle" x="1057.33" y="-21.88" font-family="Times New Roman,serif" font-size="14.00">Samples weight: 0.00</text>
</g>
<!-- BB14&#45;&gt;BB15 -->
<g id="edge23" class="edge">
<title>BB14&#45;&gt;BB15</title>
<path fill="none" stroke="black" d="M896.92,-142.3C924.35,-126.36 956.57,-107.63 984.92,-91.16"/>
<polygon fill="black" stroke="black" points="986.69,-94.18 993.58,-86.13 983.18,-88.13 986.69,-94.18"/>
</g>
</g>
</svg>
