<?xml version="1.0" encoding="UTF-8" standalone="no"?>
<!DOCTYPE svg PUBLIC "-//W3C//DTD SVG 1.1//EN"
 "http://www.w3.org/Graphics/SVG/1.1/DTD/svg11.dtd">
<!-- Generated by graphviz version 2.47.0 (20210316.0004)
 -->
<!-- Title: G Pages: 1 -->
<svg width="511pt" height="765pt"
 viewBox="0.00 0.00 511.48 765.00" xmlns="http://www.w3.org/2000/svg" xmlns:xlink="http://www.w3.org/1999/xlink">
<g id="graph0" class="graph" transform="scale(1 1) rotate(0) translate(4 761)">
<title>G</title>
<polygon fill="white" stroke="transparent" points="-4,4 -4,-761 507.48,-761 507.48,4 -4,4"/>
<!-- BB0 -->
<g id="node1" class="node">
<title>BB0</title>
<ellipse fill="none" stroke="black" cx="169.24" cy="-708.92" rx="103.48" ry="48.17"/>
<text text-anchor="middle" x="169.24" y="-727.72" font-family="Times New Roman,serif" font-size="14.00">[0..17)</text>
<text text-anchor="middle" x="169.24" y="-712.72" font-family="Times New Roman,serif" font-size="14.00">Count: 8</text>
<text text-anchor="middle" x="169.24" y="-697.72" font-family="Times New Roman,serif" font-size="14.00">Normalized count: 1.00</text>
<text text-anchor="middle" x="169.24" y="-682.72" font-family="Times New Roman,serif" font-size="14.00">Samples weight: 0.03</text>
</g>
<!-- BB5 -->
<g id="node6" class="node">
<title>BB5</title>
<ellipse fill="none" stroke="black" cx="169.24" cy="-576.75" rx="103.48" ry="48.17"/>
<text text-anchor="middle" x="169.24" y="-595.55" font-family="Times New Roman,serif" font-size="14.00">[59..5f)</text>
<text text-anchor="middle" x="169.24" y="-580.55" font-family="Times New Roman,serif" font-size="14.00">Count: 2</text>
<text text-anchor="middle" x="169.24" y="-565.55" font-family="Times New Roman,serif" font-size="14.00">Normalized count: 0.25</text>
<text text-anchor="middle" x="169.24" y="-550.55" font-family="Times New Roman,serif" font-size="14.00">Samples weight: 0.01</text>
</g>
<!-- BB0&#45;&gt;BB5 -->
<g id="edge1" class="edge">
<title>BB0&#45;&gt;BB5</title>
<path fill="none" stroke="black" d="M169.24,-660.55C169.24,-652.29 169.24,-643.6 169.24,-635.1"/>
<polygon fill="black" stroke="black" points="172.74,-634.86 169.24,-624.86 165.74,-634.86 172.74,-634.86"/>
</g>
<!-- BB1 -->
<g id="node2" class="node">
<title>BB1</title>
<ellipse fill="none" stroke="black" cx="393.24" cy="-444.58" rx="103.48" ry="48.17"/>
<text text-anchor="middle" x="393.24" y="-463.38" font-family="Times New Roman,serif" font-size="14.00">[17..28)</text>
<text text-anchor="middle" x="393.24" y="-448.38" font-family="Times New Roman,serif" font-size="14.00">Count: 27</text>
<text text-anchor="middle" x="393.24" y="-433.38" font-family="Times New Roman,serif" font-size="14.00">Normalized count: 3.38</text>
<text text-anchor="middle" x="393.24" y="-418.38" font-family="Times New Roman,serif" font-size="14.00">Samples weight: 0.12</text>
</g>
<!-- BB2 -->
<g id="node3" class="node">
<title>BB2</title>
<ellipse fill="none" stroke="black" cx="171.24" cy="-312.42" rx="103.48" ry="48.17"/>
<text text-anchor="middle" x="171.24" y="-331.22" font-family="Times New Roman,serif" font-size="14.00">[28..38)</text>
<text text-anchor="middle" x="171.24" y="-316.22" font-family="Times New Roman,serif" font-size="14.00">Count: 17</text>
<text text-anchor="middle" x="171.24" y="-301.22" font-family="Times New Roman,serif" font-size="14.00">Normalized count: 2.12</text>
<text text-anchor="middle" x="171.24" y="-286.22" font-family="Times New Roman,serif" font-size="14.00">Samples weight: 0.07</text>
</g>
<!-- BB1&#45;&gt;BB2 -->
<g id="edge3" class="edge">
<title>BB1&#45;&gt;BB2</title>
<path fill="none" stroke="black" d="M329.92,-406.46C302.97,-390.66 271.4,-372.15 243.54,-355.81"/>
<polygon fill="black" stroke="black" points="245.04,-352.63 234.64,-350.59 241.5,-358.67 245.04,-352.63"/>
</g>
<!-- BB7 -->
<g id="node8" class="node">
<title>BB7</title>
<ellipse fill="none" stroke="black" cx="397.24" cy="-312.42" rx="103.48" ry="48.17"/>
<text text-anchor="middle" x="397.24" y="-331.22" font-family="Times New Roman,serif" font-size="14.00">[64..68)</text>
<text text-anchor="middle" x="397.24" y="-316.22" font-family="Times New Roman,serif" font-size="14.00">Count: 14</text>
<text text-anchor="middle" x="397.24" y="-301.22" font-family="Times New Roman,serif" font-size="14.00">Normalized count: 1.75</text>
<text text-anchor="middle" x="397.24" y="-286.22" font-family="Times New Roman,serif" font-size="14.00">Samples weight: 0.06</text>
</g>
<!-- BB1&#45;&gt;BB7 -->
<g id="edge2" class="edge">
<title>BB1&#45;&gt;BB7</title>
<path fill="none" stroke="black" d="M394.69,-396.22C394.95,-387.95 395.21,-379.27 395.48,-370.77"/>
<polygon fill="black" stroke="black" points="398.98,-370.63 395.79,-360.52 391.98,-370.41 398.98,-370.63"/>
</g>
<!-- BB3 -->
<g id="node4" class="node">
<title>BB3</title>
<ellipse fill="none" stroke="black" cx="171.24" cy="-180.25" rx="108.38" ry="48.17"/>
<text text-anchor="middle" x="171.24" y="-199.05" font-family="Times New Roman,serif" font-size="14.00">[38..51)</text>
<text text-anchor="middle" x="171.24" y="-184.05" font-family="Times New Roman,serif" font-size="14.00">Count: 157</text>
<text text-anchor="middle" x="171.24" y="-169.05" font-family="Times New Roman,serif" font-size="14.00">Normalized count: 19.62</text>
<text text-anchor="middle" x="171.24" y="-154.05" font-family="Times New Roman,serif" font-size="14.00">Samples weight: 0.68</text>
</g>
<!-- BB2&#45;&gt;BB3 -->
<g id="edge5" class="edge">
<title>BB2&#45;&gt;BB3</title>
<path fill="none" stroke="black" d="M171.24,-264.05C171.24,-255.79 171.24,-247.1 171.24,-238.6"/>
<polygon fill="black" stroke="black" points="174.74,-238.36 171.24,-228.36 167.74,-238.36 174.74,-238.36"/>
</g>
<!-- BB6 -->
<g id="node7" class="node">
<title>BB6</title>
<ellipse fill="none" stroke="black" cx="169.24" cy="-444.58" rx="103.48" ry="48.17"/>
<text text-anchor="middle" x="169.24" y="-463.38" font-family="Times New Roman,serif" font-size="14.00">[5f..64)</text>
<text text-anchor="middle" x="169.24" y="-448.38" font-family="Times New Roman,serif" font-size="14.00">Count: 1</text>
<text text-anchor="middle" x="169.24" y="-433.38" font-family="Times New Roman,serif" font-size="14.00">Normalized count: 0.12</text>
<text text-anchor="middle" x="169.24" y="-418.38" font-family="Times New Roman,serif" font-size="14.00">Samples weight: 0.00</text>
</g>
<!-- BB2&#45;&gt;BB6 -->
<g id="edge4" class="edge">
<title>BB2&#45;&gt;BB6</title>
<path fill="none" stroke="black" d="M170.51,-360.52C170.39,-368.78 170.25,-377.46 170.12,-385.97"/>
<polygon fill="black" stroke="black" points="166.62,-386.17 169.97,-396.22 173.62,-386.28 166.62,-386.17"/>
</g>
<!-- BB4 -->
<g id="node5" class="node">
<title>BB4</title>
<ellipse fill="none" stroke="black" cx="103.24" cy="-48.08" rx="103.48" ry="48.17"/>
<text text-anchor="middle" x="103.24" y="-66.88" font-family="Times New Roman,serif" font-size="14.00">[51..59)</text>
<text text-anchor="middle" x="103.24" y="-51.88" font-family="Times New Roman,serif" font-size="14.00">Count: 5</text>
<text text-anchor="middle" x="103.24" y="-36.88" font-family="Times New Roman,serif" font-size="14.00">Normalized count: 0.62</text>
<text text-anchor="middle" x="103.24" y="-21.88" font-family="Times New Roman,serif" font-size="14.00">Samples weight: 0.02</text>
</g>
<!-- BB3&#45;&gt;BB4 -->
<g id="edge7" class="edge">
<title>BB3&#45;&gt;BB4</title>
<path fill="none" stroke="black" d="M147.26,-133.36C142.29,-123.83 136.99,-113.7 131.87,-103.89"/>
<polygon fill="black" stroke="black" points="134.96,-102.24 127.22,-95 128.75,-105.48 134.96,-102.24"/>
</g>
<!-- BB8 -->
<g id="node9" class="node">
<title>BB8</title>
<ellipse fill="none" stroke="black" cx="400.24" cy="-180.25" rx="103.48" ry="48.17"/>
<text text-anchor="middle" x="400.24" y="-199.05" font-family="Times New Roman,serif" font-size="14.00">[68..69)</text>
<text text-anchor="middle" x="400.24" y="-184.05" font-family="Times New Roman,serif" font-size="14.00">Count: 0</text>
<text text-anchor="middle" x="400.24" y="-169.05" font-family="Times New Roman,serif" font-size="14.00">Normalized count: 0.00</text>
<text text-anchor="middle" x="400.24" y="-154.05" font-family="Times New Roman,serif" font-size="14.00">Samples weight: 0.00</text>
</g>
<!-- BB3&#45;&gt;BB8 -->
<g id="edge6" class="edge">
<title>BB3&#45;&gt;BB8</title>
<path fill="none" stroke="black" d="M279.48,-180.25C281.93,-180.25 284.38,-180.25 286.84,-180.25"/>
<polygon fill="black" stroke="black" points="286.93,-183.75 296.93,-180.25 286.93,-176.75 286.93,-183.75"/>
</g>
<!-- BB4&#45;&gt;BB5 -->
<g id="edge8" class="edge">
<title>BB4&#45;&gt;BB5</title>
<path fill="none" stroke="black" d="M70.86,-94.13C64.03,-105.96 57.81,-119.08 54.24,-132.17 12.05,-286.74 -15.61,-349.95 57.24,-492.67 65.55,-508.95 78.7,-522.86 93.12,-534.37"/>
<polygon fill="black" stroke="black" points="91.15,-537.27 101.23,-540.52 95.38,-531.69 91.15,-537.27"/>
</g>
<!-- BB5&#45;&gt;BB1 -->
<g id="edge9" class="edge">
<title>BB5&#45;&gt;BB1</title>
<path fill="none" stroke="black" d="M232.83,-538.8C260.26,-522.86 292.48,-504.13 320.83,-487.66"/>
<polygon fill="black" stroke="black" points="322.6,-490.68 329.49,-482.63 319.08,-484.63 322.6,-490.68"/>
</g>
<!-- BB5&#45;&gt;BB6 -->
<g id="edge10" class="edge">
<title>BB5&#45;&gt;BB6</title>
<path fill="none" stroke="black" d="M169.24,-528.39C169.24,-520.12 169.24,-511.44 169.24,-502.93"/>
<polygon fill="black" stroke="black" points="172.74,-502.69 169.24,-492.69 165.74,-502.69 172.74,-502.69"/>
</g>
<!-- BB7&#45;&gt;BB8 -->
<g id="edge11" class="edge">
<title>BB7&#45;&gt;BB8</title>
<path fill="none" stroke="black" d="M398.33,-264.05C398.52,-255.79 398.72,-247.1 398.92,-238.6"/>
<polygon fill="black" stroke="black" points="402.42,-238.44 399.15,-228.36 395.42,-238.27 402.42,-238.44"/>
</g>
</g>
</svg>
