<?xml version="1.0" encoding="UTF-8" standalone="no"?>
<!DOCTYPE svg PUBLIC "-//W3C//DTD SVG 1.1//EN"
 "http://www.w3.org/Graphics/SVG/1.1/DTD/svg11.dtd">
<!-- Generated by graphviz version 2.47.0 (20210316.0004)
 -->
<!-- Title: G Pages: 1 -->
<svg width="635pt" height="633pt"
 viewBox="0.00 0.00 635.42 632.83" xmlns="http://www.w3.org/2000/svg" xmlns:xlink="http://www.w3.org/1999/xlink">
<g id="graph0" class="graph" transform="scale(1 1) rotate(0) translate(4 628.83)">
<title>G</title>
<polygon fill="white" stroke="transparent" points="-4,4 -4,-628.83 631.42,-628.83 631.42,4 -4,4"/>
<!-- BB0 -->
<g id="node1" class="node">
<title>BB0</title>
<ellipse fill="none" stroke="black" cx="295.19" cy="-576.75" rx="103.48" ry="48.17"/>
<text text-anchor="middle" x="295.19" y="-595.55" font-family="Times New Roman,serif" font-size="14.00">[0..9)</text>
<text text-anchor="middle" x="295.19" y="-580.55" font-family="Times New Roman,serif" font-size="14.00">Count: 148</text>
<text text-anchor="middle" x="295.19" y="-565.55" font-family="Times New Roman,serif" font-size="14.00">Normalized count: 1.00</text>
<text text-anchor="middle" x="295.19" y="-550.55" font-family="Times New Roman,serif" font-size="14.00">Samples weight: 0.00</text>
</g>
<!-- BB5 -->
<g id="node6" class="node">
<title>BB5</title>
<ellipse fill="none" stroke="black" cx="295.19" cy="-444.58" rx="108.38" ry="48.17"/>
<text text-anchor="middle" x="295.19" y="-463.38" font-family="Times New Roman,serif" font-size="14.00">[38..41)</text>
<text text-anchor="middle" x="295.19" y="-448.38" font-family="Times New Roman,serif" font-size="14.00">Count: 2022</text>
<text text-anchor="middle" x="295.19" y="-433.38" font-family="Times New Roman,serif" font-size="14.00">Normalized count: 13.66</text>
<text text-anchor="middle" x="295.19" y="-418.38" font-family="Times New Roman,serif" font-size="14.00">Samples weight: 0.01</text>
</g>
<!-- BB0&#45;&gt;BB5 -->
<g id="edge1" class="edge">
<title>BB0&#45;&gt;BB5</title>
<path fill="none" stroke="black" d="M295.19,-528.39C295.19,-520.12 295.19,-511.44 295.19,-502.93"/>
<polygon fill="black" stroke="black" points="298.69,-502.69 295.19,-492.69 291.69,-502.69 298.69,-502.69"/>
</g>
<!-- BB1 -->
<g id="node2" class="node">
<title>BB1</title>
<ellipse fill="none" stroke="black" cx="295.19" cy="-312.42" rx="108.38" ry="48.17"/>
<text text-anchor="middle" x="295.19" y="-331.22" font-family="Times New Roman,serif" font-size="14.00">[9..17)</text>
<text text-anchor="middle" x="295.19" y="-316.22" font-family="Times New Roman,serif" font-size="14.00">Count: 1882</text>
<text text-anchor="middle" x="295.19" y="-301.22" font-family="Times New Roman,serif" font-size="14.00">Normalized count: 12.72</text>
<text text-anchor="middle" x="295.19" y="-286.22" font-family="Times New Roman,serif" font-size="14.00">Samples weight: 0.01</text>
</g>
<!-- BB3 -->
<g id="node4" class="node">
<title>BB3</title>
<ellipse fill="none" stroke="black" cx="322.19" cy="-180.25" rx="113.27" ry="48.17"/>
<text text-anchor="middle" x="322.19" y="-199.05" font-family="Times New Roman,serif" font-size="14.00">[2a..30)</text>
<text text-anchor="middle" x="322.19" y="-184.05" font-family="Times New Roman,serif" font-size="14.00">Count: 78602</text>
<text text-anchor="middle" x="322.19" y="-169.05" font-family="Times New Roman,serif" font-size="14.00">Normalized count: 531.09</text>
<text text-anchor="middle" x="322.19" y="-154.05" font-family="Times New Roman,serif" font-size="14.00">Samples weight: 0.48</text>
</g>
<!-- BB1&#45;&gt;BB3 -->
<g id="edge2" class="edge">
<title>BB1&#45;&gt;BB3</title>
<path fill="none" stroke="black" d="M304.93,-264.42C306.71,-255.85 308.59,-246.83 310.41,-238.01"/>
<polygon fill="black" stroke="black" points="313.85,-238.68 312.45,-228.17 307,-237.25 313.85,-238.68"/>
</g>
<!-- BB2 -->
<g id="node3" class="node">
<title>BB2</title>
<ellipse fill="none" stroke="black" cx="347.19" cy="-48.08" rx="113.27" ry="48.17"/>
<text text-anchor="middle" x="347.19" y="-66.88" font-family="Times New Roman,serif" font-size="14.00">[17..2a)</text>
<text text-anchor="middle" x="347.19" y="-51.88" font-family="Times New Roman,serif" font-size="14.00">Count: 79227</text>
<text text-anchor="middle" x="347.19" y="-36.88" font-family="Times New Roman,serif" font-size="14.00">Normalized count: 535.32</text>
<text text-anchor="middle" x="347.19" y="-21.88" font-family="Times New Roman,serif" font-size="14.00">Samples weight: 0.48</text>
</g>
<!-- BB2&#45;&gt;BB3 -->
<g id="edge3" class="edge">
<title>BB2&#45;&gt;BB3</title>
<path fill="none" stroke="black" d="M344.61,-96.44C343.22,-104.83 341.59,-113.64 339.84,-122.26"/>
<polygon fill="black" stroke="black" points="336.37,-121.75 337.73,-132.26 343.22,-123.2 336.37,-121.75"/>
</g>
<!-- BB3&#45;&gt;BB2 -->
<g id="edge4" class="edge">
<title>BB3&#45;&gt;BB2</title>
<path fill="none" stroke="black" d="M324.76,-131.89C326.18,-123.33 327.85,-114.33 329.65,-105.55"/>
<polygon fill="black" stroke="black" points="333.07,-106.26 331.72,-95.76 326.22,-104.81 333.07,-106.26"/>
</g>
<!-- BB4 -->
<g id="node5" class="node">
<title>BB4</title>
<ellipse fill="none" stroke="black" cx="108.19" cy="-48.08" rx="108.38" ry="48.17"/>
<text text-anchor="middle" x="108.19" y="-66.88" font-family="Times New Roman,serif" font-size="14.00">[30..38)</text>
<text text-anchor="middle" x="108.19" y="-51.88" font-family="Times New Roman,serif" font-size="14.00">Count: 1874</text>
<text text-anchor="middle" x="108.19" y="-36.88" font-family="Times New Roman,serif" font-size="14.00">Normalized count: 12.66</text>
<text text-anchor="middle" x="108.19" y="-21.88" font-family="Times New Roman,serif" font-size="14.00">Samples weight: 0.01</text>
</g>
<!-- BB3&#45;&gt;BB4 -->
<g id="edge5" class="edge">
<title>BB3&#45;&gt;BB4</title>
<path fill="none" stroke="black" d="M258.27,-140.37C233.59,-125.36 205.24,-108.12 179.88,-92.69"/>
<polygon fill="black" stroke="black" points="181.4,-89.52 171.04,-87.31 177.76,-95.5 181.4,-89.52"/>
</g>
<!-- BB4&#45;&gt;BB5 -->
<g id="edge6" class="edge">
<title>BB4&#45;&gt;BB5</title>
<path fill="none" stroke="black" d="M108.55,-96.42C111.19,-161.23 123.85,-278.85 178.19,-360.5 188.55,-376.07 202.9,-389.66 218.01,-401.08"/>
<polygon fill="black" stroke="black" points="216.31,-404.17 226.46,-407.21 220.42,-398.51 216.31,-404.17"/>
</g>
<!-- BB5&#45;&gt;BB1 -->
<g id="edge7" class="edge">
<title>BB5&#45;&gt;BB1</title>
<path fill="none" stroke="black" d="M295.19,-396.22C295.19,-387.95 295.19,-379.27 295.19,-370.77"/>
<polygon fill="black" stroke="black" points="298.69,-370.52 295.19,-360.52 291.69,-370.52 298.69,-370.52"/>
</g>
<!-- BB6 -->
<g id="node7" class="node">
<title>BB6</title>
<ellipse fill="none" stroke="black" cx="524.19" cy="-312.42" rx="103.48" ry="48.17"/>
<text text-anchor="middle" x="524.19" y="-331.22" font-family="Times New Roman,serif" font-size="14.00">[41..42)</text>
<text text-anchor="middle" x="524.19" y="-316.22" font-family="Times New Roman,serif" font-size="14.00">Count: 159</text>
<text text-anchor="middle" x="524.19" y="-301.22" font-family="Times New Roman,serif" font-size="14.00">Normalized count: 1.07</text>
<text text-anchor="middle" x="524.19" y="-286.22" font-family="Times New Roman,serif" font-size="14.00">Samples weight: 0.00</text>
</g>
<!-- BB5&#45;&gt;BB6 -->
<g id="edge8" class="edge">
<title>BB5&#45;&gt;BB6</title>
<path fill="none" stroke="black" d="M360.81,-406.28C388.96,-390.28 421.96,-371.53 450.9,-355.07"/>
<polygon fill="black" stroke="black" points="452.78,-358.03 459.74,-350.05 449.32,-351.95 452.78,-358.03"/>
</g>
</g>
</svg>
