<?xml version="1.0" encoding="UTF-8" standalone="no"?>
<!DOCTYPE svg PUBLIC "-//W3C//DTD SVG 1.1//EN"
 "http://www.w3.org/Graphics/SVG/1.1/DTD/svg11.dtd">
<!-- Generated by graphviz version 2.47.0 (20210316.0004)
 -->
<!-- Title: G Pages: 1 -->
<svg width="448pt" height="194pt"
 viewBox="0.00 0.00 447.72 193.91" xmlns="http://www.w3.org/2000/svg" xmlns:xlink="http://www.w3.org/1999/xlink">
<g id="graph0" class="graph" transform="scale(1 1) rotate(0) translate(4 189.91)">
<title>G</title>
<polygon fill="white" stroke="transparent" points="-4,4 -4,-189.91 443.72,-189.91 443.72,4 -4,4"/>
<!-- BB0 -->
<g id="node1" class="node">
<title>BB0</title>
<ellipse fill="none" stroke="black" cx="219.36" cy="-148.43" rx="105.22" ry="37.45"/>
<text text-anchor="middle" x="219.36" y="-159.73" font-family="Times New Roman,serif" font-size="14.00">[0..4)</text>
<text text-anchor="middle" x="219.36" y="-144.73" font-family="Times New Roman,serif" font-size="14.00">Normalized Count: 1.00</text>
<text text-anchor="middle" x="219.36" y="-129.73" font-family="Times New Roman,serif" font-size="14.00">Samples weight: 0.50</text>
</g>
<!-- BB1 -->
<g id="node2" class="node">
<title>BB1</title>
<ellipse fill="none" stroke="black" cx="105.36" cy="-37.48" rx="105.22" ry="37.45"/>
<text text-anchor="middle" x="105.36" y="-48.78" font-family="Times New Roman,serif" font-size="14.00">[4..1a)</text>
<text text-anchor="middle" x="105.36" y="-33.78" font-family="Times New Roman,serif" font-size="14.00">Normalized Count: 0.87</text>
<text text-anchor="middle" x="105.36" y="-18.78" font-family="Times New Roman,serif" font-size="14.00">Samples weight: 0.44</text>
</g>
<!-- BB0&#45;&gt;BB1 -->
<g id="edge2" class="edge">
<title>BB0&#45;&gt;BB1</title>
<path fill="none" stroke="black" d="M183.29,-112.96C172.27,-102.42 160.03,-90.73 148.58,-79.79"/>
<polygon fill="black" stroke="black" points="150.84,-77.1 141.19,-72.73 146.01,-82.17 150.84,-77.1"/>
</g>
<!-- BB2 -->
<g id="node3" class="node">
<title>BB2</title>
<ellipse fill="none" stroke="black" cx="334.36" cy="-37.48" rx="105.22" ry="37.45"/>
<text text-anchor="middle" x="334.36" y="-48.78" font-family="Times New Roman,serif" font-size="14.00">[1a..24)</text>
<text text-anchor="middle" x="334.36" y="-33.78" font-family="Times New Roman,serif" font-size="14.00">Normalized Count: 0.13</text>
<text text-anchor="middle" x="334.36" y="-18.78" font-family="Times New Roman,serif" font-size="14.00">Samples weight: 0.06</text>
</g>
<!-- BB0&#45;&gt;BB2 -->
<g id="edge1" class="edge">
<title>BB0&#45;&gt;BB2</title>
<path fill="none" stroke="black" d="M255.75,-112.96C266.87,-102.42 279.21,-90.73 290.76,-79.79"/>
<polygon fill="black" stroke="black" points="293.36,-82.14 298.21,-72.73 288.54,-77.06 293.36,-82.14"/>
</g>
</g>
</svg>
