<?xml version="1.0" encoding="UTF-8" standalone="no"?>
<!DOCTYPE svg PUBLIC "-//W3C//DTD SVG 1.1//EN"
 "http://www.w3.org/Graphics/SVG/1.1/DTD/svg11.dtd">
<!-- Generated by graphviz version 2.47.0 (20210316.0004)
 -->
<!-- Title: G Pages: 1 -->
<svg width="1494pt" height="1192pt"
 viewBox="0.00 0.00 1494.36 1192.49" xmlns="http://www.w3.org/2000/svg" xmlns:xlink="http://www.w3.org/1999/xlink">
<g id="graph0" class="graph" transform="scale(1 1) rotate(0) translate(4 1188.49)">
<title>G</title>
<polygon fill="white" stroke="transparent" points="-4,4 -4,-1188.49 1490.36,-1188.49 1490.36,4 -4,4"/>
<!-- BB0 -->
<g id="node1" class="node">
<title>BB0</title>
<ellipse fill="none" stroke="black" cx="132" cy="-1147.01" rx="105.22" ry="37.45"/>
<text text-anchor="middle" x="132" y="-1158.31" font-family="Times New Roman,serif" font-size="14.00">[0..18)</text>
<text text-anchor="middle" x="132" y="-1143.31" font-family="Times New Roman,serif" font-size="14.00">Normalized Count: 1.00</text>
<text text-anchor="middle" x="132" y="-1128.31" font-family="Times New Roman,serif" font-size="14.00">Samples weight: 0.02</text>
</g>
<!-- BB2 -->
<g id="node3" class="node">
<title>BB2</title>
<ellipse fill="none" stroke="black" cx="132" cy="-1036.06" rx="105.22" ry="37.45"/>
<text text-anchor="middle" x="132" y="-1047.36" font-family="Times New Roman,serif" font-size="14.00">[2b..39)</text>
<text text-anchor="middle" x="132" y="-1032.36" font-family="Times New Roman,serif" font-size="14.00">Normalized Count: 1.00</text>
<text text-anchor="middle" x="132" y="-1017.36" font-family="Times New Roman,serif" font-size="14.00">Samples weight: 0.02</text>
</g>
<!-- BB0&#45;&gt;BB2 -->
<g id="edge1" class="edge">
<title>BB0&#45;&gt;BB2</title>
<path fill="none" stroke="black" d="M132,-1109.43C132,-1101.25 132,-1092.47 132,-1083.95"/>
<polygon fill="black" stroke="black" points="135.5,-1083.73 132,-1073.73 128.5,-1083.73 135.5,-1083.73"/>
</g>
<!-- BB1 -->
<g id="node2" class="node">
<title>BB1</title>
<ellipse fill="none" stroke="black" cx="132" cy="-925.1" rx="105.22" ry="37.45"/>
<text text-anchor="middle" x="132" y="-936.4" font-family="Times New Roman,serif" font-size="14.00">[18..2b)</text>
<text text-anchor="middle" x="132" y="-921.4" font-family="Times New Roman,serif" font-size="14.00">Normalized Count: 0.00</text>
<text text-anchor="middle" x="132" y="-906.4" font-family="Times New Roman,serif" font-size="14.00">Samples weight: 0.00</text>
</g>
<!-- BB1&#45;&gt;BB2 -->
<g id="edge2" class="edge">
<title>BB1&#45;&gt;BB2</title>
<path fill="none" stroke="black" d="M138.42,-962.78C138.73,-970.95 138.82,-979.74 138.69,-988.26"/>
<polygon fill="black" stroke="black" points="135.19,-988.38 138.42,-998.47 142.18,-988.57 135.19,-988.38"/>
</g>
<!-- BB2&#45;&gt;BB1 -->
<g id="edge3" class="edge">
<title>BB2&#45;&gt;BB1</title>
<path fill="none" stroke="black" d="M125.58,-998.47C125.27,-990.3 125.18,-981.52 125.31,-972.99"/>
<polygon fill="black" stroke="black" points="128.81,-972.86 125.58,-962.78 121.82,-972.68 128.81,-972.86"/>
</g>
<!-- BB3 -->
<g id="node4" class="node">
<title>BB3</title>
<ellipse fill="none" stroke="black" cx="361" cy="-925.1" rx="105.22" ry="37.45"/>
<text text-anchor="middle" x="361" y="-936.4" font-family="Times New Roman,serif" font-size="14.00">[39..56)</text>
<text text-anchor="middle" x="361" y="-921.4" font-family="Times New Roman,serif" font-size="14.00">Normalized Count: 1.00</text>
<text text-anchor="middle" x="361" y="-906.4" font-family="Times New Roman,serif" font-size="14.00">Samples weight: 0.02</text>
</g>
<!-- BB2&#45;&gt;BB3 -->
<g id="edge4" class="edge">
<title>BB2&#45;&gt;BB3</title>
<path fill="none" stroke="black" d="M193.97,-1005.57C223.5,-991.52 258.98,-974.64 289.63,-960.06"/>
<polygon fill="black" stroke="black" points="291.45,-963.07 298.98,-955.61 288.45,-956.75 291.45,-963.07"/>
</g>
<!-- BB4 -->
<g id="node5" class="node">
<title>BB4</title>
<ellipse fill="none" stroke="black" cx="247" cy="-814.15" rx="105.22" ry="37.45"/>
<text text-anchor="middle" x="247" y="-825.45" font-family="Times New Roman,serif" font-size="14.00">[56..6c)</text>
<text text-anchor="middle" x="247" y="-810.45" font-family="Times New Roman,serif" font-size="14.00">Normalized Count: 0.00</text>
<text text-anchor="middle" x="247" y="-795.45" font-family="Times New Roman,serif" font-size="14.00">Samples weight: 0.00</text>
</g>
<!-- BB3&#45;&gt;BB4 -->
<g id="edge6" class="edge">
<title>BB3&#45;&gt;BB4</title>
<path fill="none" stroke="black" d="M324.93,-889.63C313.91,-879.09 301.67,-867.4 290.22,-856.46"/>
<polygon fill="black" stroke="black" points="292.48,-853.78 282.84,-849.4 287.65,-858.84 292.48,-853.78"/>
</g>
<!-- BB5 -->
<g id="node6" class="node">
<title>BB5</title>
<ellipse fill="none" stroke="black" cx="476" cy="-814.15" rx="105.22" ry="37.45"/>
<text text-anchor="middle" x="476" y="-825.45" font-family="Times New Roman,serif" font-size="14.00">[6c..7a)</text>
<text text-anchor="middle" x="476" y="-810.45" font-family="Times New Roman,serif" font-size="14.00">Normalized Count: 1.00</text>
<text text-anchor="middle" x="476" y="-795.45" font-family="Times New Roman,serif" font-size="14.00">Samples weight: 0.02</text>
</g>
<!-- BB3&#45;&gt;BB5 -->
<g id="edge5" class="edge">
<title>BB3&#45;&gt;BB5</title>
<path fill="none" stroke="black" d="M397.39,-889.63C408.51,-879.09 420.85,-867.4 432.4,-856.46"/>
<polygon fill="black" stroke="black" points="435,-858.82 439.85,-849.4 430.18,-853.74 435,-858.82"/>
</g>
<!-- BB4&#45;&gt;BB5 -->
<g id="edge7" class="edge">
<title>BB4&#45;&gt;BB5</title>
<path fill="none" stroke="black" d="M352.55,-814.15C355.16,-814.15 357.76,-814.15 360.36,-814.15"/>
<polygon fill="black" stroke="black" points="360.4,-817.65 370.4,-814.15 360.4,-810.65 360.4,-817.65"/>
</g>
<!-- BB6 -->
<g id="node7" class="node">
<title>BB6</title>
<ellipse fill="none" stroke="black" cx="476" cy="-703.2" rx="105.22" ry="37.45"/>
<text text-anchor="middle" x="476" y="-714.5" font-family="Times New Roman,serif" font-size="14.00">[7a..85)</text>
<text text-anchor="middle" x="476" y="-699.5" font-family="Times New Roman,serif" font-size="14.00">Normalized Count: 9.33</text>
<text text-anchor="middle" x="476" y="-684.5" font-family="Times New Roman,serif" font-size="14.00">Samples weight: 0.16</text>
</g>
<!-- BB5&#45;&gt;BB6 -->
<g id="edge8" class="edge">
<title>BB5&#45;&gt;BB6</title>
<path fill="none" stroke="black" d="M476,-776.57C476,-768.39 476,-759.61 476,-751.09"/>
<polygon fill="black" stroke="black" points="479.5,-750.87 476,-740.87 472.5,-750.87 479.5,-750.87"/>
</g>
<!-- BB7 -->
<g id="node8" class="node">
<title>BB7</title>
<ellipse fill="none" stroke="black" cx="362" cy="-592.24" rx="105.22" ry="37.45"/>
<text text-anchor="middle" x="362" y="-603.54" font-family="Times New Roman,serif" font-size="14.00">[85..8f)</text>
<text text-anchor="middle" x="362" y="-588.54" font-family="Times New Roman,serif" font-size="14.00">Normalized Count: 1.00</text>
<text text-anchor="middle" x="362" y="-573.54" font-family="Times New Roman,serif" font-size="14.00">Samples weight: 0.02</text>
</g>
<!-- BB6&#45;&gt;BB7 -->
<g id="edge10" class="edge">
<title>BB6&#45;&gt;BB7</title>
<path fill="none" stroke="black" d="M439.93,-667.72C428.91,-657.19 416.67,-645.49 405.22,-634.55"/>
<polygon fill="black" stroke="black" points="407.48,-631.87 397.84,-627.49 402.65,-636.93 407.48,-631.87"/>
</g>
<!-- BB12 -->
<g id="node13" class="node">
<title>BB12</title>
<ellipse fill="none" stroke="black" cx="609" cy="-592.24" rx="105.22" ry="37.45"/>
<text text-anchor="middle" x="609" y="-603.54" font-family="Times New Roman,serif" font-size="14.00">[b3..c0)</text>
<text text-anchor="middle" x="609" y="-588.54" font-family="Times New Roman,serif" font-size="14.00">Normalized Count: 9.33</text>
<text text-anchor="middle" x="609" y="-573.54" font-family="Times New Roman,serif" font-size="14.00">Samples weight: 0.16</text>
</g>
<!-- BB6&#45;&gt;BB12 -->
<g id="edge9" class="edge">
<title>BB6&#45;&gt;BB12</title>
<path fill="none" stroke="black" d="M516.99,-668.62C530.64,-657.43 545.99,-644.86 560.17,-633.24"/>
<polygon fill="black" stroke="black" points="562.4,-635.94 567.92,-626.9 557.96,-630.53 562.4,-635.94"/>
</g>
<!-- BB8 -->
<g id="node9" class="node">
<title>BB8</title>
<ellipse fill="none" stroke="black" cx="133" cy="-481.29" rx="105.22" ry="37.45"/>
<text text-anchor="middle" x="133" y="-492.59" font-family="Times New Roman,serif" font-size="14.00">[8f..a2)</text>
<text text-anchor="middle" x="133" y="-477.59" font-family="Times New Roman,serif" font-size="14.00">Normalized Count: 0.00</text>
<text text-anchor="middle" x="133" y="-462.59" font-family="Times New Roman,serif" font-size="14.00">Samples weight: 0.00</text>
</g>
<!-- BB7&#45;&gt;BB8 -->
<g id="edge12" class="edge">
<title>BB7&#45;&gt;BB8</title>
<path fill="none" stroke="black" d="M300.03,-561.76C270.5,-547.71 235.02,-530.83 204.37,-516.24"/>
<polygon fill="black" stroke="black" points="205.55,-512.93 195.02,-511.8 202.55,-519.25 205.55,-512.93"/>
</g>
<!-- BB9 -->
<g id="node10" class="node">
<title>BB9</title>
<ellipse fill="none" stroke="black" cx="362" cy="-481.29" rx="105.22" ry="37.45"/>
<text text-anchor="middle" x="362" y="-492.59" font-family="Times New Roman,serif" font-size="14.00">[a2..a7)</text>
<text text-anchor="middle" x="362" y="-477.59" font-family="Times New Roman,serif" font-size="14.00">Normalized Count: 1.00</text>
<text text-anchor="middle" x="362" y="-462.59" font-family="Times New Roman,serif" font-size="14.00">Samples weight: 0.02</text>
</g>
<!-- BB7&#45;&gt;BB9 -->
<g id="edge11" class="edge">
<title>BB7&#45;&gt;BB9</title>
<path fill="none" stroke="black" d="M362,-554.66C362,-546.49 362,-537.71 362,-529.18"/>
<polygon fill="black" stroke="black" points="365.5,-528.96 362,-518.96 358.5,-528.96 365.5,-528.96"/>
</g>
<!-- BB8&#45;&gt;BB9 -->
<g id="edge13" class="edge">
<title>BB8&#45;&gt;BB9</title>
<path fill="none" stroke="black" d="M238.55,-481.29C241.16,-481.29 243.76,-481.29 246.36,-481.29"/>
<polygon fill="black" stroke="black" points="246.4,-484.79 256.4,-481.29 246.4,-477.79 246.4,-484.79"/>
</g>
<!-- BB10 -->
<g id="node11" class="node">
<title>BB10</title>
<ellipse fill="none" stroke="black" cx="133" cy="-370.34" rx="105.22" ry="37.45"/>
<text text-anchor="middle" x="133" y="-381.64" font-family="Times New Roman,serif" font-size="14.00">[a7..ae)</text>
<text text-anchor="middle" x="133" y="-366.64" font-family="Times New Roman,serif" font-size="14.00">Normalized Count: 0.00</text>
<text text-anchor="middle" x="133" y="-351.64" font-family="Times New Roman,serif" font-size="14.00">Samples weight: 0.00</text>
</g>
<!-- BB9&#45;&gt;BB10 -->
<g id="edge15" class="edge">
<title>BB9&#45;&gt;BB10</title>
<path fill="none" stroke="black" d="M300.03,-450.81C270.5,-436.76 235.02,-419.87 204.37,-405.29"/>
<polygon fill="black" stroke="black" points="205.55,-401.98 195.02,-400.84 202.55,-408.3 205.55,-401.98"/>
</g>
<!-- BB11 -->
<g id="node12" class="node">
<title>BB11</title>
<ellipse fill="none" stroke="black" cx="362" cy="-370.34" rx="105.22" ry="37.45"/>
<text text-anchor="middle" x="362" y="-381.64" font-family="Times New Roman,serif" font-size="14.00">[ae..b3)</text>
<text text-anchor="middle" x="362" y="-366.64" font-family="Times New Roman,serif" font-size="14.00">Normalized Count: 1.00</text>
<text text-anchor="middle" x="362" y="-351.64" font-family="Times New Roman,serif" font-size="14.00">Samples weight: 0.02</text>
</g>
<!-- BB9&#45;&gt;BB11 -->
<g id="edge14" class="edge">
<title>BB9&#45;&gt;BB11</title>
<path fill="none" stroke="black" d="M362,-443.71C362,-435.53 362,-426.75 362,-418.23"/>
<polygon fill="black" stroke="black" points="365.5,-418.01 362,-408.01 358.5,-418.01 365.5,-418.01"/>
</g>
<!-- BB10&#45;&gt;BB11 -->
<g id="edge17" class="edge">
<title>BB10&#45;&gt;BB11</title>
<path fill="none" stroke="black" d="M238.55,-370.34C241.16,-370.34 243.76,-370.34 246.36,-370.34"/>
<polygon fill="black" stroke="black" points="246.4,-373.84 256.4,-370.34 246.4,-366.84 246.4,-373.84"/>
</g>
<!-- BB25 -->
<g id="node26" class="node">
<title>BB25</title>
<ellipse fill="none" stroke="black" cx="314" cy="-259.38" rx="105.22" ry="37.45"/>
<text text-anchor="middle" x="314" y="-270.68" font-family="Times New Roman,serif" font-size="14.00">[160..165)</text>
<text text-anchor="middle" x="314" y="-255.68" font-family="Times New Roman,serif" font-size="14.00">Normalized Count: 1.00</text>
<text text-anchor="middle" x="314" y="-240.68" font-family="Times New Roman,serif" font-size="14.00">Samples weight: 0.02</text>
</g>
<!-- BB10&#45;&gt;BB25 -->
<g id="edge16" class="edge">
<title>BB10&#45;&gt;BB25</title>
<path fill="none" stroke="black" d="M185.84,-337.53C206.75,-324.94 230.92,-310.39 252.6,-297.34"/>
<polygon fill="black" stroke="black" points="254.65,-300.2 261.41,-292.04 251.04,-294.2 254.65,-300.2"/>
</g>
<!-- BB11&#45;&gt;BB12 -->
<g id="edge18" class="edge">
<title>BB11&#45;&gt;BB12</title>
<path fill="none" stroke="black" d="M422.2,-401.34C441.06,-412.78 460.87,-427.14 476,-443.81 501.1,-471.47 490.11,-490.06 514,-518.77 524.44,-531.31 537.44,-542.99 550.43,-553.15"/>
<polygon fill="black" stroke="black" points="548.42,-556.02 558.5,-559.27 552.65,-550.44 548.42,-556.02"/>
</g>
<!-- BB13 -->
<g id="node14" class="node">
<title>BB13</title>
<ellipse fill="none" stroke="black" cx="628" cy="-481.29" rx="105.22" ry="37.45"/>
<text text-anchor="middle" x="628" y="-492.59" font-family="Times New Roman,serif" font-size="14.00">[c0..ca)</text>
<text text-anchor="middle" x="628" y="-477.59" font-family="Times New Roman,serif" font-size="14.00">Normalized Count: 0.33</text>
<text text-anchor="middle" x="628" y="-462.59" font-family="Times New Roman,serif" font-size="14.00">Samples weight: 0.01</text>
</g>
<!-- BB12&#45;&gt;BB13 -->
<g id="edge20" class="edge">
<title>BB12&#45;&gt;BB13</title>
<path fill="none" stroke="black" d="M615.38,-554.66C616.82,-546.4 618.37,-537.51 619.87,-528.9"/>
<polygon fill="black" stroke="black" points="623.33,-529.41 621.6,-518.96 616.44,-528.21 623.33,-529.41"/>
</g>
<!-- BB18 -->
<g id="node19" class="node">
<title>BB18</title>
<ellipse fill="none" stroke="black" cx="1019" cy="-481.29" rx="105.22" ry="37.45"/>
<text text-anchor="middle" x="1019" y="-492.59" font-family="Times New Roman,serif" font-size="14.00">[f4..116)</text>
<text text-anchor="middle" x="1019" y="-477.59" font-family="Times New Roman,serif" font-size="14.00">Normalized Count: 9.33</text>
<text text-anchor="middle" x="1019" y="-462.59" font-family="Times New Roman,serif" font-size="14.00">Samples weight: 0.16</text>
</g>
<!-- BB12&#45;&gt;BB18 -->
<g id="edge19" class="edge">
<title>BB12&#45;&gt;BB18</title>
<path fill="none" stroke="black" d="M692.46,-569.06C760.22,-551.06 855.7,-525.69 925.92,-507.03"/>
<polygon fill="black" stroke="black" points="926.89,-510.39 935.65,-504.44 925.09,-503.62 926.89,-510.39"/>
</g>
<!-- BB14 -->
<g id="node15" class="node">
<title>BB14</title>
<ellipse fill="none" stroke="black" cx="591" cy="-370.34" rx="105.22" ry="37.45"/>
<text text-anchor="middle" x="591" y="-381.64" font-family="Times New Roman,serif" font-size="14.00">[ca..e4)</text>
<text text-anchor="middle" x="591" y="-366.64" font-family="Times New Roman,serif" font-size="14.00">Normalized Count: 0.00</text>
<text text-anchor="middle" x="591" y="-351.64" font-family="Times New Roman,serif" font-size="14.00">Samples weight: 0.00</text>
</g>
<!-- BB13&#45;&gt;BB14 -->
<g id="edge22" class="edge">
<title>BB13&#45;&gt;BB14</title>
<path fill="none" stroke="black" d="M615.68,-444.01C612.78,-435.46 609.65,-426.24 606.62,-417.33"/>
<polygon fill="black" stroke="black" points="609.92,-416.17 603.39,-407.83 603.29,-418.42 609.92,-416.17"/>
</g>
<!-- BB15 -->
<g id="node16" class="node">
<title>BB15</title>
<ellipse fill="none" stroke="black" cx="820" cy="-370.34" rx="105.22" ry="37.45"/>
<text text-anchor="middle" x="820" y="-381.64" font-family="Times New Roman,serif" font-size="14.00">[e4..e9)</text>
<text text-anchor="middle" x="820" y="-366.64" font-family="Times New Roman,serif" font-size="14.00">Normalized Count: 0.33</text>
<text text-anchor="middle" x="820" y="-351.64" font-family="Times New Roman,serif" font-size="14.00">Samples weight: 0.01</text>
</g>
<!-- BB13&#45;&gt;BB15 -->
<g id="edge21" class="edge">
<title>BB13&#45;&gt;BB15</title>
<path fill="none" stroke="black" d="M682.76,-449.21C705.66,-436.22 732.43,-421.03 756.21,-407.54"/>
<polygon fill="black" stroke="black" points="758.19,-410.43 765.16,-402.45 754.74,-404.35 758.19,-410.43"/>
</g>
<!-- BB14&#45;&gt;BB15 -->
<g id="edge23" class="edge">
<title>BB14&#45;&gt;BB15</title>
<path fill="none" stroke="black" d="M696.55,-370.34C699.16,-370.34 701.76,-370.34 704.36,-370.34"/>
<polygon fill="black" stroke="black" points="704.4,-373.84 714.4,-370.34 704.4,-366.84 704.4,-373.84"/>
</g>
<!-- BB16 -->
<g id="node17" class="node">
<title>BB16</title>
<ellipse fill="none" stroke="black" cx="642" cy="-259.38" rx="105.22" ry="37.45"/>
<text text-anchor="middle" x="642" y="-270.68" font-family="Times New Roman,serif" font-size="14.00">[e9..ed)</text>
<text text-anchor="middle" x="642" y="-255.68" font-family="Times New Roman,serif" font-size="14.00">Normalized Count: 0.00</text>
<text text-anchor="middle" x="642" y="-240.68" font-family="Times New Roman,serif" font-size="14.00">Samples weight: 0.00</text>
</g>
<!-- BB15&#45;&gt;BB16 -->
<g id="edge25" class="edge">
<title>BB15&#45;&gt;BB16</title>
<path fill="none" stroke="black" d="M768.04,-337.53C747.47,-324.94 723.7,-310.39 702.38,-297.34"/>
<polygon fill="black" stroke="black" points="704.08,-294.28 693.72,-292.04 700.42,-300.25 704.08,-294.28"/>
</g>
<!-- BB17 -->
<g id="node18" class="node">
<title>BB17</title>
<ellipse fill="none" stroke="black" cx="871" cy="-259.38" rx="105.22" ry="37.45"/>
<text text-anchor="middle" x="871" y="-270.68" font-family="Times New Roman,serif" font-size="14.00">[ed..f4)</text>
<text text-anchor="middle" x="871" y="-255.68" font-family="Times New Roman,serif" font-size="14.00">Normalized Count: 0.33</text>
<text text-anchor="middle" x="871" y="-240.68" font-family="Times New Roman,serif" font-size="14.00">Samples weight: 0.01</text>
</g>
<!-- BB15&#45;&gt;BB17 -->
<g id="edge24" class="edge">
<title>BB15&#45;&gt;BB17</title>
<path fill="none" stroke="black" d="M836.98,-333.06C841.07,-324.33 845.48,-314.89 849.74,-305.81"/>
<polygon fill="black" stroke="black" points="853.02,-307.05 854.09,-296.5 846.68,-304.08 853.02,-307.05"/>
</g>
<!-- BB16&#45;&gt;BB17 -->
<g id="edge27" class="edge">
<title>BB16&#45;&gt;BB17</title>
<path fill="none" stroke="black" d="M747.55,-259.38C750.16,-259.38 752.76,-259.38 755.36,-259.38"/>
<polygon fill="black" stroke="black" points="755.4,-262.88 765.4,-259.38 755.4,-255.88 755.4,-262.88"/>
</g>
<!-- BB16&#45;&gt;BB25 -->
<g id="edge26" class="edge">
<title>BB16&#45;&gt;BB25</title>
<path fill="none" stroke="black" d="M536.34,-259.38C500.71,-259.38 465.07,-259.38 429.43,-259.38"/>
<polygon fill="black" stroke="black" points="429.38,-255.88 419.38,-259.38 429.38,-262.88 429.38,-255.88"/>
</g>
<!-- BB17&#45;&gt;BB18 -->
<g id="edge28" class="edge">
<title>BB17&#45;&gt;BB18</title>
<path fill="none" stroke="black" d="M904.24,-295.1C914.43,-306.63 925.25,-319.86 934,-332.86 954.85,-363.85 953.37,-375.44 972,-407.81 977.33,-417.07 983.33,-426.79 989.22,-435.99"/>
<polygon fill="black" stroke="black" points="986.44,-438.13 994.81,-444.63 992.31,-434.33 986.44,-438.13"/>
</g>
<!-- BB19 -->
<g id="node20" class="node">
<title>BB19</title>
<ellipse fill="none" stroke="black" cx="1086" cy="-370.34" rx="105.22" ry="37.45"/>
<text text-anchor="middle" x="1086" y="-381.64" font-family="Times New Roman,serif" font-size="14.00">[116..129)</text>
<text text-anchor="middle" x="1086" y="-366.64" font-family="Times New Roman,serif" font-size="14.00">Normalized Count: 0.33</text>
<text text-anchor="middle" x="1086" y="-351.64" font-family="Times New Roman,serif" font-size="14.00">Samples weight: 0.01</text>
</g>
<!-- BB18&#45;&gt;BB19 -->
<g id="edge30" class="edge">
<title>BB18&#45;&gt;BB19</title>
<path fill="none" stroke="black" d="M1040.94,-444.61C1046.61,-435.4 1052.78,-425.36 1058.69,-415.76"/>
<polygon fill="black" stroke="black" points="1061.76,-417.44 1064.01,-407.09 1055.79,-413.78 1061.76,-417.44"/>
</g>
<!-- BB20 -->
<g id="node21" class="node">
<title>BB20</title>
<ellipse fill="none" stroke="black" cx="1315" cy="-370.34" rx="105.22" ry="37.45"/>
<text text-anchor="middle" x="1315" y="-381.64" font-family="Times New Roman,serif" font-size="14.00">[129..133)</text>
<text text-anchor="middle" x="1315" y="-366.64" font-family="Times New Roman,serif" font-size="14.00">Normalized Count: 9.33</text>
<text text-anchor="middle" x="1315" y="-351.64" font-family="Times New Roman,serif" font-size="14.00">Samples weight: 0.16</text>
</g>
<!-- BB18&#45;&gt;BB20 -->
<g id="edge29" class="edge">
<title>BB18&#45;&gt;BB20</title>
<path fill="none" stroke="black" d="M1091.03,-453.78C1134.08,-437.93 1188.89,-417.76 1233.51,-401.33"/>
<polygon fill="black" stroke="black" points="1234.98,-404.52 1243.16,-397.78 1232.57,-397.95 1234.98,-404.52"/>
</g>
<!-- BB19&#45;&gt;BB20 -->
<g id="edge31" class="edge">
<title>BB19&#45;&gt;BB20</title>
<path fill="none" stroke="black" d="M1191.55,-370.34C1194.16,-370.34 1196.76,-370.34 1199.36,-370.34"/>
<polygon fill="black" stroke="black" points="1199.4,-373.84 1209.4,-370.34 1199.4,-366.84 1199.4,-373.84"/>
</g>
<!-- BB21 -->
<g id="node22" class="node">
<title>BB21</title>
<ellipse fill="none" stroke="black" cx="1152" cy="-259.38" rx="105.22" ry="37.45"/>
<text text-anchor="middle" x="1152" y="-270.68" font-family="Times New Roman,serif" font-size="14.00">[133..14d)</text>
<text text-anchor="middle" x="1152" y="-255.68" font-family="Times New Roman,serif" font-size="14.00">Normalized Count: 0.00</text>
<text text-anchor="middle" x="1152" y="-240.68" font-family="Times New Roman,serif" font-size="14.00">Samples weight: 0.00</text>
</g>
<!-- BB20&#45;&gt;BB21 -->
<g id="edge33" class="edge">
<title>BB20&#45;&gt;BB21</title>
<path fill="none" stroke="black" d="M1266.54,-336.94C1248.47,-324.87 1227.8,-311.05 1209.03,-298.5"/>
<polygon fill="black" stroke="black" points="1210.82,-295.49 1200.56,-292.84 1206.93,-301.31 1210.82,-295.49"/>
</g>
<!-- BB22 -->
<g id="node23" class="node">
<title>BB22</title>
<ellipse fill="none" stroke="black" cx="1381" cy="-259.38" rx="105.22" ry="37.45"/>
<text text-anchor="middle" x="1381" y="-270.68" font-family="Times New Roman,serif" font-size="14.00">[14d..154)</text>
<text text-anchor="middle" x="1381" y="-255.68" font-family="Times New Roman,serif" font-size="14.00">Normalized Count: 9.33</text>
<text text-anchor="middle" x="1381" y="-240.68" font-family="Times New Roman,serif" font-size="14.00">Samples weight: 0.16</text>
</g>
<!-- BB20&#45;&gt;BB22 -->
<g id="edge32" class="edge">
<title>BB20&#45;&gt;BB22</title>
<path fill="none" stroke="black" d="M1336.79,-333.36C1342.26,-324.34 1348.19,-314.55 1353.87,-305.17"/>
<polygon fill="black" stroke="black" points="1357.04,-306.69 1359.23,-296.32 1351.05,-303.06 1357.04,-306.69"/>
</g>
<!-- BB21&#45;&gt;BB22 -->
<g id="edge34" class="edge">
<title>BB21&#45;&gt;BB22</title>
<path fill="none" stroke="black" d="M1257.55,-259.38C1260.16,-259.38 1262.76,-259.38 1265.36,-259.38"/>
<polygon fill="black" stroke="black" points="1265.4,-262.88 1275.4,-259.38 1265.4,-255.88 1265.4,-262.88"/>
</g>
<!-- BB22&#45;&gt;BB6 -->
<g id="edge35" class="edge">
<title>BB22&#45;&gt;BB6</title>
<path fill="none" stroke="black" d="M1409.03,-295.72C1430.45,-327.31 1452.61,-373.74 1429,-407.81 1330.83,-549.45 809.21,-648.8 581.96,-686"/>
<polygon fill="black" stroke="black" points="581.33,-682.55 572.02,-687.61 582.45,-689.46 581.33,-682.55"/>
</g>
<!-- BB23 -->
<g id="node24" class="node">
<title>BB23</title>
<ellipse fill="none" stroke="black" cx="724" cy="-148.43" rx="105.22" ry="37.45"/>
<text text-anchor="middle" x="724" y="-159.73" font-family="Times New Roman,serif" font-size="14.00">[154..158)</text>
<text text-anchor="middle" x="724" y="-144.73" font-family="Times New Roman,serif" font-size="14.00">Normalized Count: 1.00</text>
<text text-anchor="middle" x="724" y="-129.73" font-family="Times New Roman,serif" font-size="14.00">Samples weight: 0.02</text>
</g>
<!-- BB22&#45;&gt;BB23 -->
<g id="edge36" class="edge">
<title>BB22&#45;&gt;BB23</title>
<path fill="none" stroke="black" d="M1306.66,-232.73C1293.24,-228.69 1279.29,-224.88 1266,-221.91 1119.22,-189.08 946.53,-169.12 836.22,-158.68"/>
<polygon fill="black" stroke="black" points="836.36,-155.18 826.07,-157.73 835.7,-162.15 836.36,-155.18"/>
</g>
<!-- BB24 -->
<g id="node25" class="node">
<title>BB24</title>
<ellipse fill="none" stroke="black" cx="133" cy="-37.48" rx="105.22" ry="37.45"/>
<text text-anchor="middle" x="133" y="-48.78" font-family="Times New Roman,serif" font-size="14.00">[158..160)</text>
<text text-anchor="middle" x="133" y="-33.78" font-family="Times New Roman,serif" font-size="14.00">Normalized Count: 0.00</text>
<text text-anchor="middle" x="133" y="-18.78" font-family="Times New Roman,serif" font-size="14.00">Samples weight: 0.00</text>
</g>
<!-- BB23&#45;&gt;BB24 -->
<g id="edge38" class="edge">
<title>BB23&#45;&gt;BB24</title>
<path fill="none" stroke="black" d="M649.31,-121.88C635.98,-117.86 622.16,-114.02 609,-110.95 485.17,-82.07 340.43,-61.92 243.36,-50.33"/>
<polygon fill="black" stroke="black" points="243.58,-46.83 233.23,-49.13 242.75,-53.78 243.58,-46.83"/>
</g>
<!-- BB23&#45;&gt;BB25 -->
<g id="edge37" class="edge">
<title>BB23&#45;&gt;BB25</title>
<path fill="none" stroke="black" d="M647.82,-174.37C634.91,-178.38 621.6,-182.36 609,-185.91 543.49,-204.32 469.07,-222.59 411.37,-236.17"/>
<polygon fill="black" stroke="black" points="410.46,-232.79 401.53,-238.48 412.06,-239.61 410.46,-232.79"/>
</g>
<!-- BB24&#45;&gt;BB6 -->
<g id="edge39" class="edge">
<title>BB24&#45;&gt;BB6</title>
<path fill="none" stroke="black" d="M95.95,-72.72C56.6,-112.99 0,-183.87 0,-258.38 0,-482.29 0,-482.29 0,-482.29 0,-640.86 220.39,-685.45 361.25,-697.76"/>
<polygon fill="black" stroke="black" points="360.99,-701.25 371.25,-698.59 361.57,-694.27 360.99,-701.25"/>
</g>
<!-- BB24&#45;&gt;BB25 -->
<g id="edge40" class="edge">
<title>BB24&#45;&gt;BB25</title>
<path fill="none" stroke="black" d="M128.33,-75.16C126.25,-107.44 128.37,-154.11 152,-185.91 168.3,-207.83 192.74,-223.27 217.73,-234.07"/>
<polygon fill="black" stroke="black" points="216.74,-237.45 227.32,-237.99 219.39,-230.97 216.74,-237.45"/>
</g>
<!-- BB26 -->
<g id="node27" class="node">
<title>BB26</title>
<ellipse fill="none" stroke="black" cx="266" cy="-148.43" rx="105.22" ry="37.45"/>
<text text-anchor="middle" x="266" y="-159.73" font-family="Times New Roman,serif" font-size="14.00">[165..171)</text>
<text text-anchor="middle" x="266" y="-144.73" font-family="Times New Roman,serif" font-size="14.00">Normalized Count: 0.00</text>
<text text-anchor="middle" x="266" y="-129.73" font-family="Times New Roman,serif" font-size="14.00">Samples weight: 0.00</text>
</g>
<!-- BB25&#45;&gt;BB26 -->
<g id="edge42" class="edge">
<title>BB25&#45;&gt;BB26</title>
<path fill="none" stroke="black" d="M298.02,-222.1C294.17,-213.37 290.01,-203.94 286.01,-194.85"/>
<polygon fill="black" stroke="black" points="289.15,-193.29 281.91,-185.55 282.74,-196.11 289.15,-193.29"/>
</g>
<!-- BB27 -->
<g id="node28" class="node">
<title>BB27</title>
<ellipse fill="none" stroke="black" cx="495" cy="-148.43" rx="105.22" ry="37.45"/>
<text text-anchor="middle" x="495" y="-159.73" font-family="Times New Roman,serif" font-size="14.00">[171..172)</text>
<text text-anchor="middle" x="495" y="-144.73" font-family="Times New Roman,serif" font-size="14.00">Normalized Count: 1.00</text>
<text text-anchor="middle" x="495" y="-129.73" font-family="Times New Roman,serif" font-size="14.00">Samples weight: 0.02</text>
</g>
<!-- BB25&#45;&gt;BB27 -->
<g id="edge41" class="edge">
<title>BB25&#45;&gt;BB27</title>
<path fill="none" stroke="black" d="M366.84,-226.58C387.75,-213.99 411.92,-199.44 433.6,-186.39"/>
<polygon fill="black" stroke="black" points="435.65,-189.24 442.41,-181.09 432.04,-183.25 435.65,-189.24"/>
</g>
<!-- BB26&#45;&gt;BB27 -->
<g id="edge43" class="edge">
<title>BB26&#45;&gt;BB27</title>
<path fill="none" stroke="black" d="M371.55,-148.43C374.16,-148.43 376.76,-148.43 379.36,-148.43"/>
<polygon fill="black" stroke="black" points="379.4,-151.93 389.4,-148.43 379.4,-144.93 379.4,-151.93"/>
</g>
</g>
</svg>
