<?xml version="1.0" encoding="UTF-8" standalone="no"?>
<!DOCTYPE svg PUBLIC "-//W3C//DTD SVG 1.1//EN"
 "http://www.w3.org/Graphics/SVG/1.1/DTD/svg11.dtd">
<!-- Generated by graphviz version 2.47.0 (20210316.0004)
 -->
<!-- Title: G Pages: 1 -->
<svg width="635pt" height="1294pt"
 viewBox="0.00 0.00 635.37 1293.67" xmlns="http://www.w3.org/2000/svg" xmlns:xlink="http://www.w3.org/1999/xlink">
<g id="graph0" class="graph" transform="scale(1 1) rotate(0) translate(4 1289.67)">
<title>G</title>
<polygon fill="white" stroke="transparent" points="-4,4 -4,-1289.67 631.37,-1289.67 631.37,4 -4,4"/>
<!-- BB0 -->
<g id="node1" class="node">
<title>BB0</title>
<ellipse fill="none" stroke="black" cx="244.19" cy="-1237.58" rx="103.48" ry="48.17"/>
<text text-anchor="middle" x="244.19" y="-1256.38" font-family="Times New Roman,serif" font-size="14.00">[0..31)</text>
<text text-anchor="middle" x="244.19" y="-1241.38" font-family="Times New Roman,serif" font-size="14.00">Count: 2</text>
<text text-anchor="middle" x="244.19" y="-1226.38" font-family="Times New Roman,serif" font-size="14.00">Normalized count: 1.00</text>
<text text-anchor="middle" x="244.19" y="-1211.38" font-family="Times New Roman,serif" font-size="14.00">Samples weight: 0.01</text>
</g>
<!-- BB13 -->
<g id="node14" class="node">
<title>BB13</title>
<ellipse fill="none" stroke="black" cx="244.19" cy="-1105.42" rx="108.38" ry="48.17"/>
<text text-anchor="middle" x="244.19" y="-1124.22" font-family="Times New Roman,serif" font-size="14.00">[162..16b)</text>
<text text-anchor="middle" x="244.19" y="-1109.22" font-family="Times New Roman,serif" font-size="14.00">Count: 25</text>
<text text-anchor="middle" x="244.19" y="-1094.22" font-family="Times New Roman,serif" font-size="14.00">Normalized count: 12.50</text>
<text text-anchor="middle" x="244.19" y="-1079.22" font-family="Times New Roman,serif" font-size="14.00">Samples weight: 0.11</text>
</g>
<!-- BB0&#45;&gt;BB13 -->
<g id="edge1" class="edge">
<title>BB0&#45;&gt;BB13</title>
<path fill="none" stroke="black" d="M244.19,-1189.22C244.19,-1180.95 244.19,-1172.27 244.19,-1163.77"/>
<polygon fill="black" stroke="black" points="247.69,-1163.52 244.19,-1153.52 240.69,-1163.52 247.69,-1163.52"/>
</g>
<!-- BB1 -->
<g id="node2" class="node">
<title>BB1</title>
<ellipse fill="none" stroke="black" cx="244.19" cy="-973.25" rx="108.38" ry="48.17"/>
<text text-anchor="middle" x="244.19" y="-992.05" font-family="Times New Roman,serif" font-size="14.00">[31..6a)</text>
<text text-anchor="middle" x="244.19" y="-977.05" font-family="Times New Roman,serif" font-size="14.00">Count: 23</text>
<text text-anchor="middle" x="244.19" y="-962.05" font-family="Times New Roman,serif" font-size="14.00">Normalized count: 11.50</text>
<text text-anchor="middle" x="244.19" y="-947.05" font-family="Times New Roman,serif" font-size="14.00">Samples weight: 0.10</text>
</g>
<!-- BB2 -->
<g id="node3" class="node">
<title>BB2</title>
<ellipse fill="none" stroke="black" cx="241.19" cy="-841.08" rx="103.48" ry="48.17"/>
<text text-anchor="middle" x="241.19" y="-859.88" font-family="Times New Roman,serif" font-size="14.00">[6a..7c)</text>
<text text-anchor="middle" x="241.19" y="-844.88" font-family="Times New Roman,serif" font-size="14.00">Count: 0</text>
<text text-anchor="middle" x="241.19" y="-829.88" font-family="Times New Roman,serif" font-size="14.00">Normalized count: 0.00</text>
<text text-anchor="middle" x="241.19" y="-814.88" font-family="Times New Roman,serif" font-size="14.00">Samples weight: 0.00</text>
</g>
<!-- BB1&#45;&gt;BB2 -->
<g id="edge3" class="edge">
<title>BB1&#45;&gt;BB2</title>
<path fill="none" stroke="black" d="M243.1,-924.89C242.91,-916.62 242.71,-907.94 242.51,-899.43"/>
<polygon fill="black" stroke="black" points="246,-899.11 242.27,-889.19 239,-899.27 246,-899.11"/>
</g>
<!-- BB3 -->
<g id="node4" class="node">
<title>BB3</title>
<ellipse fill="none" stroke="black" cx="470.19" cy="-841.08" rx="108.38" ry="48.17"/>
<text text-anchor="middle" x="470.19" y="-859.88" font-family="Times New Roman,serif" font-size="14.00">[7c..7d)</text>
<text text-anchor="middle" x="470.19" y="-844.88" font-family="Times New Roman,serif" font-size="14.00">Count: 23</text>
<text text-anchor="middle" x="470.19" y="-829.88" font-family="Times New Roman,serif" font-size="14.00">Normalized count: 11.50</text>
<text text-anchor="middle" x="470.19" y="-814.88" font-family="Times New Roman,serif" font-size="14.00">Samples weight: 0.10</text>
</g>
<!-- BB1&#45;&gt;BB3 -->
<g id="edge2" class="edge">
<title>BB1&#45;&gt;BB3</title>
<path fill="none" stroke="black" d="M309.25,-934.77C336.32,-919.19 367.88,-901.01 395.85,-884.9"/>
<polygon fill="black" stroke="black" points="397.88,-887.77 404.8,-879.74 394.39,-881.7 397.88,-887.77"/>
</g>
<!-- BB4 -->
<g id="node5" class="node">
<title>BB4</title>
<ellipse fill="none" stroke="black" cx="293.19" cy="-708.92" rx="108.38" ry="48.17"/>
<text text-anchor="middle" x="293.19" y="-727.72" font-family="Times New Roman,serif" font-size="14.00">[7d..82)</text>
<text text-anchor="middle" x="293.19" y="-712.72" font-family="Times New Roman,serif" font-size="14.00">Count: 23</text>
<text text-anchor="middle" x="293.19" y="-697.72" font-family="Times New Roman,serif" font-size="14.00">Normalized count: 11.50</text>
<text text-anchor="middle" x="293.19" y="-682.72" font-family="Times New Roman,serif" font-size="14.00">Samples weight: 0.10</text>
</g>
<!-- BB2&#45;&gt;BB4 -->
<g id="edge4" class="edge">
<title>BB2&#45;&gt;BB4</title>
<path fill="none" stroke="black" d="M259.81,-793.46C263.36,-784.58 267.11,-775.2 270.76,-766.06"/>
<polygon fill="black" stroke="black" points="274.06,-767.24 274.52,-756.65 267.56,-764.64 274.06,-767.24"/>
</g>
<!-- BB3&#45;&gt;BB4 -->
<g id="edge5" class="edge">
<title>BB3&#45;&gt;BB4</title>
<path fill="none" stroke="black" d="M415.15,-799.61C396.51,-785.9 375.53,-770.47 356.31,-756.34"/>
<polygon fill="black" stroke="black" points="358.32,-753.47 348.19,-750.36 354.17,-759.11 358.32,-753.47"/>
</g>
<!-- BB5 -->
<g id="node6" class="node">
<title>BB5</title>
<ellipse fill="none" stroke="black" cx="342.19" cy="-576.75" rx="108.38" ry="48.17"/>
<text text-anchor="middle" x="342.19" y="-595.55" font-family="Times New Roman,serif" font-size="14.00">[82..95)</text>
<text text-anchor="middle" x="342.19" y="-580.55" font-family="Times New Roman,serif" font-size="14.00">Count: 23</text>
<text text-anchor="middle" x="342.19" y="-565.55" font-family="Times New Roman,serif" font-size="14.00">Normalized count: 11.50</text>
<text text-anchor="middle" x="342.19" y="-550.55" font-family="Times New Roman,serif" font-size="14.00">Samples weight: 0.10</text>
</g>
<!-- BB4&#45;&gt;BB5 -->
<g id="edge7" class="edge">
<title>BB4&#45;&gt;BB5</title>
<path fill="none" stroke="black" d="M310.74,-661.29C314.08,-652.41 317.61,-643.03 321.05,-633.89"/>
<polygon fill="black" stroke="black" points="324.35,-635.08 324.59,-624.49 317.79,-632.61 324.35,-635.08"/>
</g>
<!-- BB12 -->
<g id="node13" class="node">
<title>BB12</title>
<ellipse fill="none" stroke="black" cx="108.19" cy="-576.75" rx="108.38" ry="48.17"/>
<text text-anchor="middle" x="108.19" y="-595.55" font-family="Times New Roman,serif" font-size="14.00">[15e..162)</text>
<text text-anchor="middle" x="108.19" y="-580.55" font-family="Times New Roman,serif" font-size="14.00">Count: 23</text>
<text text-anchor="middle" x="108.19" y="-565.55" font-family="Times New Roman,serif" font-size="14.00">Normalized count: 11.50</text>
<text text-anchor="middle" x="108.19" y="-550.55" font-family="Times New Roman,serif" font-size="14.00">Samples weight: 0.10</text>
</g>
<!-- BB4&#45;&gt;BB12 -->
<g id="edge6" class="edge">
<title>BB4&#45;&gt;BB12</title>
<path fill="none" stroke="black" d="M236.42,-667.98C216.54,-653.99 194.05,-638.16 173.52,-623.72"/>
<polygon fill="black" stroke="black" points="175.35,-620.73 165.16,-617.84 171.33,-626.45 175.35,-620.73"/>
</g>
<!-- BB6 -->
<g id="node7" class="node">
<title>BB6</title>
<ellipse fill="none" stroke="black" cx="290.19" cy="-444.58" rx="103.48" ry="48.17"/>
<text text-anchor="middle" x="290.19" y="-463.38" font-family="Times New Roman,serif" font-size="14.00">[95..b7)</text>
<text text-anchor="middle" x="290.19" y="-448.38" font-family="Times New Roman,serif" font-size="14.00">Count: 0</text>
<text text-anchor="middle" x="290.19" y="-433.38" font-family="Times New Roman,serif" font-size="14.00">Normalized count: 0.00</text>
<text text-anchor="middle" x="290.19" y="-418.38" font-family="Times New Roman,serif" font-size="14.00">Samples weight: 0.00</text>
</g>
<!-- BB5&#45;&gt;BB6 -->
<g id="edge9" class="edge">
<title>BB5&#45;&gt;BB6</title>
<path fill="none" stroke="black" d="M323.56,-529.12C320.01,-520.24 316.27,-510.87 312.62,-501.73"/>
<polygon fill="black" stroke="black" points="315.82,-500.31 308.86,-492.32 309.32,-502.91 315.82,-500.31"/>
</g>
<!-- BB7 -->
<g id="node8" class="node">
<title>BB7</title>
<ellipse fill="none" stroke="black" cx="519.19" cy="-444.58" rx="108.38" ry="48.17"/>
<text text-anchor="middle" x="519.19" y="-463.38" font-family="Times New Roman,serif" font-size="14.00">[b7..c5)</text>
<text text-anchor="middle" x="519.19" y="-448.38" font-family="Times New Roman,serif" font-size="14.00">Count: 23</text>
<text text-anchor="middle" x="519.19" y="-433.38" font-family="Times New Roman,serif" font-size="14.00">Normalized count: 11.50</text>
<text text-anchor="middle" x="519.19" y="-418.38" font-family="Times New Roman,serif" font-size="14.00">Samples weight: 0.10</text>
</g>
<!-- BB5&#45;&gt;BB7 -->
<g id="edge8" class="edge">
<title>BB5&#45;&gt;BB7</title>
<path fill="none" stroke="black" d="M397.22,-535.28C415.87,-521.56 436.84,-506.14 456.07,-492"/>
<polygon fill="black" stroke="black" points="458.21,-494.77 464.19,-486.03 454.06,-489.13 458.21,-494.77"/>
</g>
<!-- BB8 -->
<g id="node9" class="node">
<title>BB8</title>
<ellipse fill="none" stroke="black" cx="356.19" cy="-312.42" rx="108.38" ry="48.17"/>
<text text-anchor="middle" x="356.19" y="-331.22" font-family="Times New Roman,serif" font-size="14.00">[c5..e0)</text>
<text text-anchor="middle" x="356.19" y="-316.22" font-family="Times New Roman,serif" font-size="14.00">Count: 23</text>
<text text-anchor="middle" x="356.19" y="-301.22" font-family="Times New Roman,serif" font-size="14.00">Normalized count: 11.50</text>
<text text-anchor="middle" x="356.19" y="-286.22" font-family="Times New Roman,serif" font-size="14.00">Samples weight: 0.10</text>
</g>
<!-- BB6&#45;&gt;BB8 -->
<g id="edge10" class="edge">
<title>BB6&#45;&gt;BB8</title>
<path fill="none" stroke="black" d="M313.46,-397.69C318.18,-388.37 323.2,-378.48 328.07,-368.87"/>
<polygon fill="black" stroke="black" points="331.28,-370.27 332.68,-359.77 325.04,-367.11 331.28,-370.27"/>
</g>
<!-- BB7&#45;&gt;BB8 -->
<g id="edge11" class="edge">
<title>BB7&#45;&gt;BB8</title>
<path fill="none" stroke="black" d="M467.16,-402.04C450.91,-389.06 432.85,-374.64 416.1,-361.26"/>
<polygon fill="black" stroke="black" points="417.99,-358.29 408,-354.79 413.63,-363.76 417.99,-358.29"/>
</g>
<!-- BB9 -->
<g id="node10" class="node">
<title>BB9</title>
<ellipse fill="none" stroke="black" cx="239.19" cy="-180.25" rx="103.48" ry="48.17"/>
<text text-anchor="middle" x="239.19" y="-199.05" font-family="Times New Roman,serif" font-size="14.00">[e0..102)</text>
<text text-anchor="middle" x="239.19" y="-184.05" font-family="Times New Roman,serif" font-size="14.00">Count: 0</text>
<text text-anchor="middle" x="239.19" y="-169.05" font-family="Times New Roman,serif" font-size="14.00">Normalized count: 0.00</text>
<text text-anchor="middle" x="239.19" y="-154.05" font-family="Times New Roman,serif" font-size="14.00">Samples weight: 0.00</text>
</g>
<!-- BB8&#45;&gt;BB9 -->
<g id="edge13" class="edge">
<title>BB8&#45;&gt;BB9</title>
<path fill="none" stroke="black" d="M316.58,-267.35C306.46,-256.09 295.5,-243.9 285.1,-232.33"/>
<polygon fill="black" stroke="black" points="287.65,-229.93 278.36,-224.83 282.44,-234.61 287.65,-229.93"/>
</g>
<!-- BB10 -->
<g id="node11" class="node">
<title>BB10</title>
<ellipse fill="none" stroke="black" cx="468.19" cy="-180.25" rx="108.38" ry="48.17"/>
<text text-anchor="middle" x="468.19" y="-199.05" font-family="Times New Roman,serif" font-size="14.00">[102..120)</text>
<text text-anchor="middle" x="468.19" y="-184.05" font-family="Times New Roman,serif" font-size="14.00">Count: 23</text>
<text text-anchor="middle" x="468.19" y="-169.05" font-family="Times New Roman,serif" font-size="14.00">Normalized count: 11.50</text>
<text text-anchor="middle" x="468.19" y="-154.05" font-family="Times New Roman,serif" font-size="14.00">Samples weight: 0.10</text>
</g>
<!-- BB8&#45;&gt;BB10 -->
<g id="edge12" class="edge">
<title>BB8&#45;&gt;BB10</title>
<path fill="none" stroke="black" d="M394.11,-267.35C403.49,-256.44 413.63,-244.65 423.31,-233.4"/>
<polygon fill="black" stroke="black" points="426.06,-235.58 429.93,-225.72 420.75,-231.01 426.06,-235.58"/>
</g>
<!-- BB11 -->
<g id="node12" class="node">
<title>BB11</title>
<ellipse fill="none" stroke="black" cx="239.19" cy="-48.08" rx="108.38" ry="48.17"/>
<text text-anchor="middle" x="239.19" y="-66.88" font-family="Times New Roman,serif" font-size="14.00">[120..15e)</text>
<text text-anchor="middle" x="239.19" y="-51.88" font-family="Times New Roman,serif" font-size="14.00">Count: 23</text>
<text text-anchor="middle" x="239.19" y="-36.88" font-family="Times New Roman,serif" font-size="14.00">Normalized count: 11.50</text>
<text text-anchor="middle" x="239.19" y="-21.88" font-family="Times New Roman,serif" font-size="14.00">Samples weight: 0.10</text>
</g>
<!-- BB9&#45;&gt;BB11 -->
<g id="edge14" class="edge">
<title>BB9&#45;&gt;BB11</title>
<path fill="none" stroke="black" d="M239.19,-131.89C239.19,-123.62 239.19,-114.94 239.19,-106.43"/>
<polygon fill="black" stroke="black" points="242.69,-106.19 239.19,-96.19 235.69,-106.19 242.69,-106.19"/>
</g>
<!-- BB10&#45;&gt;BB11 -->
<g id="edge15" class="edge">
<title>BB10&#45;&gt;BB11</title>
<path fill="none" stroke="black" d="M402.57,-141.95C374.78,-126.15 342.26,-107.67 313.59,-91.37"/>
<polygon fill="black" stroke="black" points="315.24,-88.29 304.82,-86.39 311.78,-94.37 315.24,-88.29"/>
</g>
<!-- BB11&#45;&gt;BB12 -->
<g id="edge16" class="edge">
<title>BB11&#45;&gt;BB12</title>
<path fill="none" stroke="black" d="M170.4,-85.36C153.34,-97.82 137.11,-113.45 127.19,-132.17 61.02,-256.91 79.82,-430.27 95.87,-518.79"/>
<polygon fill="black" stroke="black" points="92.43,-519.45 97.71,-528.63 99.31,-518.16 92.43,-519.45"/>
</g>
<!-- BB12&#45;&gt;BB13 -->
<g id="edge17" class="edge">
<title>BB12&#45;&gt;BB13</title>
<path fill="none" stroke="black" d="M97.51,-624.67C80.77,-709.69 57.04,-892.33 127.19,-1021.33 136.07,-1037.68 149.73,-1051.55 164.62,-1063.01"/>
<polygon fill="black" stroke="black" points="162.86,-1066.06 173,-1069.13 166.98,-1060.41 162.86,-1066.06"/>
</g>
<!-- BB13&#45;&gt;BB1 -->
<g id="edge18" class="edge">
<title>BB13&#45;&gt;BB1</title>
<path fill="none" stroke="black" d="M244.19,-1057.05C244.19,-1048.79 244.19,-1040.1 244.19,-1031.6"/>
<polygon fill="black" stroke="black" points="247.69,-1031.36 244.19,-1021.36 240.69,-1031.36 247.69,-1031.36"/>
</g>
<!-- BB14 -->
<g id="node15" class="node">
<title>BB14</title>
<ellipse fill="none" stroke="black" cx="473.19" cy="-973.25" rx="103.48" ry="48.17"/>
<text text-anchor="middle" x="473.19" y="-992.05" font-family="Times New Roman,serif" font-size="14.00">[16b..16d)</text>
<text text-anchor="middle" x="473.19" y="-977.05" font-family="Times New Roman,serif" font-size="14.00">Count: 2</text>
<text text-anchor="middle" x="473.19" y="-962.05" font-family="Times New Roman,serif" font-size="14.00">Normalized count: 1.00</text>
<text text-anchor="middle" x="473.19" y="-947.05" font-family="Times New Roman,serif" font-size="14.00">Samples weight: 0.01</text>
</g>
<!-- BB13&#45;&gt;BB14 -->
<g id="edge19" class="edge">
<title>BB13&#45;&gt;BB14</title>
<path fill="none" stroke="black" d="M309.81,-1067.11C337.96,-1051.12 370.96,-1032.36 399.9,-1015.91"/>
<polygon fill="black" stroke="black" points="401.78,-1018.86 408.74,-1010.88 398.32,-1012.78 401.78,-1018.86"/>
</g>
</g>
</svg>
