<?xml version="1.0" encoding="UTF-8" standalone="no"?>
<!DOCTYPE svg PUBLIC "-//W3C//DTD SVG 1.1//EN"
 "http://www.w3.org/Graphics/SVG/1.1/DTD/svg11.dtd">
<!-- Generated by graphviz version 2.47.0 (20210316.0004)
 -->
<!-- Title: G Pages: 1 -->
<svg width="1056pt" height="1558pt"
 viewBox="0.00 0.00 1055.57 1558.00" xmlns="http://www.w3.org/2000/svg" xmlns:xlink="http://www.w3.org/1999/xlink">
<g id="graph0" class="graph" transform="scale(1 1) rotate(0) translate(4 1554)">
<title>G</title>
<polygon fill="white" stroke="transparent" points="-4,4 -4,-1554 1051.57,-1554 1051.57,4 -4,4"/>
<!-- BB0 -->
<g id="node1" class="node">
<title>BB0</title>
<ellipse fill="none" stroke="black" cx="384.33" cy="-1501.92" rx="103.48" ry="48.17"/>
<text text-anchor="middle" x="384.33" y="-1520.72" font-family="Times New Roman,serif" font-size="14.00">[0..13)</text>
<text text-anchor="middle" x="384.33" y="-1505.72" font-family="Times New Roman,serif" font-size="14.00">Count: 3</text>
<text text-anchor="middle" x="384.33" y="-1490.72" font-family="Times New Roman,serif" font-size="14.00">Normalized count: 1.00</text>
<text text-anchor="middle" x="384.33" y="-1475.72" font-family="Times New Roman,serif" font-size="14.00">Samples weight: 0.00</text>
</g>
<!-- BB16 -->
<g id="node17" class="node">
<title>BB16</title>
<ellipse fill="none" stroke="black" cx="384.33" cy="-1369.75" rx="103.48" ry="48.17"/>
<text text-anchor="middle" x="384.33" y="-1388.55" font-family="Times New Roman,serif" font-size="14.00">[9d..a4)</text>
<text text-anchor="middle" x="384.33" y="-1373.55" font-family="Times New Roman,serif" font-size="14.00">Count: 21</text>
<text text-anchor="middle" x="384.33" y="-1358.55" font-family="Times New Roman,serif" font-size="14.00">Normalized count: 7.00</text>
<text text-anchor="middle" x="384.33" y="-1343.55" font-family="Times New Roman,serif" font-size="14.00">Samples weight: 0.00</text>
</g>
<!-- BB0&#45;&gt;BB16 -->
<g id="edge1" class="edge">
<title>BB0&#45;&gt;BB16</title>
<path fill="none" stroke="black" d="M384.33,-1453.55C384.33,-1445.29 384.33,-1436.6 384.33,-1428.1"/>
<polygon fill="black" stroke="black" points="387.83,-1427.86 384.33,-1417.86 380.83,-1427.86 387.83,-1427.86"/>
</g>
<!-- BB1 -->
<g id="node2" class="node">
<title>BB1</title>
<ellipse fill="none" stroke="black" cx="384.33" cy="-1237.58" rx="103.48" ry="48.17"/>
<text text-anchor="middle" x="384.33" y="-1256.38" font-family="Times New Roman,serif" font-size="14.00">[13..1e)</text>
<text text-anchor="middle" x="384.33" y="-1241.38" font-family="Times New Roman,serif" font-size="14.00">Count: 18</text>
<text text-anchor="middle" x="384.33" y="-1226.38" font-family="Times New Roman,serif" font-size="14.00">Normalized count: 6.00</text>
<text text-anchor="middle" x="384.33" y="-1211.38" font-family="Times New Roman,serif" font-size="14.00">Samples weight: 0.00</text>
</g>
<!-- BB2 -->
<g id="node3" class="node">
<title>BB2</title>
<ellipse fill="none" stroke="black" cx="496.33" cy="-1105.42" rx="103.48" ry="48.17"/>
<text text-anchor="middle" x="496.33" y="-1124.22" font-family="Times New Roman,serif" font-size="14.00">[1e..21)</text>
<text text-anchor="middle" x="496.33" y="-1109.22" font-family="Times New Roman,serif" font-size="14.00">Count: 15</text>
<text text-anchor="middle" x="496.33" y="-1094.22" font-family="Times New Roman,serif" font-size="14.00">Normalized count: 5.00</text>
<text text-anchor="middle" x="496.33" y="-1079.22" font-family="Times New Roman,serif" font-size="14.00">Samples weight: 0.00</text>
</g>
<!-- BB1&#45;&gt;BB2 -->
<g id="edge3" class="edge">
<title>BB1&#45;&gt;BB2</title>
<path fill="none" stroke="black" d="M422.25,-1192.51C431.73,-1181.49 442,-1169.56 451.77,-1158.2"/>
<polygon fill="black" stroke="black" points="454.58,-1160.3 458.45,-1150.44 449.28,-1155.74 454.58,-1160.3"/>
</g>
<!-- BB3 -->
<g id="node4" class="node">
<title>BB3</title>
<ellipse fill="none" stroke="black" cx="272.33" cy="-1105.42" rx="103.48" ry="48.17"/>
<text text-anchor="middle" x="272.33" y="-1124.22" font-family="Times New Roman,serif" font-size="14.00">[21..22)</text>
<text text-anchor="middle" x="272.33" y="-1109.22" font-family="Times New Roman,serif" font-size="14.00">Count: 3</text>
<text text-anchor="middle" x="272.33" y="-1094.22" font-family="Times New Roman,serif" font-size="14.00">Normalized count: 1.00</text>
<text text-anchor="middle" x="272.33" y="-1079.22" font-family="Times New Roman,serif" font-size="14.00">Samples weight: 0.00</text>
</g>
<!-- BB1&#45;&gt;BB3 -->
<g id="edge2" class="edge">
<title>BB1&#45;&gt;BB3</title>
<path fill="none" stroke="black" d="M346.41,-1192.51C336.92,-1181.49 326.66,-1169.56 316.88,-1158.2"/>
<polygon fill="black" stroke="black" points="319.38,-1155.74 310.21,-1150.44 314.08,-1160.3 319.38,-1155.74"/>
</g>
<!-- BB4 -->
<g id="node5" class="node">
<title>BB4</title>
<ellipse fill="none" stroke="black" cx="384.33" cy="-973.25" rx="103.48" ry="48.17"/>
<text text-anchor="middle" x="384.33" y="-992.05" font-family="Times New Roman,serif" font-size="14.00">[22..2f)</text>
<text text-anchor="middle" x="384.33" y="-977.05" font-family="Times New Roman,serif" font-size="14.00">Count: 18</text>
<text text-anchor="middle" x="384.33" y="-962.05" font-family="Times New Roman,serif" font-size="14.00">Normalized count: 6.00</text>
<text text-anchor="middle" x="384.33" y="-947.05" font-family="Times New Roman,serif" font-size="14.00">Samples weight: 0.00</text>
</g>
<!-- BB2&#45;&gt;BB4 -->
<g id="edge4" class="edge">
<title>BB2&#45;&gt;BB4</title>
<path fill="none" stroke="black" d="M458.41,-1060.35C448.92,-1049.32 438.66,-1037.39 428.88,-1026.03"/>
<polygon fill="black" stroke="black" points="431.38,-1023.57 422.21,-1018.27 426.08,-1028.14 431.38,-1023.57"/>
</g>
<!-- BB3&#45;&gt;BB4 -->
<g id="edge5" class="edge">
<title>BB3&#45;&gt;BB4</title>
<path fill="none" stroke="black" d="M310.25,-1060.35C319.73,-1049.32 330,-1037.39 339.77,-1026.03"/>
<polygon fill="black" stroke="black" points="342.58,-1028.14 346.45,-1018.27 337.28,-1023.57 342.58,-1028.14"/>
</g>
<!-- BB5 -->
<g id="node6" class="node">
<title>BB5</title>
<ellipse fill="none" stroke="black" cx="496.33" cy="-841.08" rx="103.48" ry="48.17"/>
<text text-anchor="middle" x="496.33" y="-859.88" font-family="Times New Roman,serif" font-size="14.00">[2f..34)</text>
<text text-anchor="middle" x="496.33" y="-844.88" font-family="Times New Roman,serif" font-size="14.00">Count: 15</text>
<text text-anchor="middle" x="496.33" y="-829.88" font-family="Times New Roman,serif" font-size="14.00">Normalized count: 5.00</text>
<text text-anchor="middle" x="496.33" y="-814.88" font-family="Times New Roman,serif" font-size="14.00">Samples weight: 0.00</text>
</g>
<!-- BB4&#45;&gt;BB5 -->
<g id="edge7" class="edge">
<title>BB4&#45;&gt;BB5</title>
<path fill="none" stroke="black" d="M422.25,-928.18C431.73,-917.15 442,-905.23 451.77,-893.86"/>
<polygon fill="black" stroke="black" points="454.58,-895.97 458.45,-886.11 449.28,-891.4 454.58,-895.97"/>
</g>
<!-- BB6 -->
<g id="node7" class="node">
<title>BB6</title>
<ellipse fill="none" stroke="black" cx="272.33" cy="-841.08" rx="103.48" ry="48.17"/>
<text text-anchor="middle" x="272.33" y="-859.88" font-family="Times New Roman,serif" font-size="14.00">[34..35)</text>
<text text-anchor="middle" x="272.33" y="-844.88" font-family="Times New Roman,serif" font-size="14.00">Count: 3</text>
<text text-anchor="middle" x="272.33" y="-829.88" font-family="Times New Roman,serif" font-size="14.00">Normalized count: 1.00</text>
<text text-anchor="middle" x="272.33" y="-814.88" font-family="Times New Roman,serif" font-size="14.00">Samples weight: 0.00</text>
</g>
<!-- BB4&#45;&gt;BB6 -->
<g id="edge6" class="edge">
<title>BB4&#45;&gt;BB6</title>
<path fill="none" stroke="black" d="M346.41,-928.18C336.92,-917.15 326.66,-905.23 316.88,-893.86"/>
<polygon fill="black" stroke="black" points="319.38,-891.4 310.21,-886.11 314.08,-895.97 319.38,-891.4"/>
</g>
<!-- BB7 -->
<g id="node8" class="node">
<title>BB7</title>
<ellipse fill="none" stroke="black" cx="385.33" cy="-708.92" rx="103.48" ry="48.17"/>
<text text-anchor="middle" x="385.33" y="-727.72" font-family="Times New Roman,serif" font-size="14.00">[35..3b)</text>
<text text-anchor="middle" x="385.33" y="-712.72" font-family="Times New Roman,serif" font-size="14.00">Count: 18</text>
<text text-anchor="middle" x="385.33" y="-697.72" font-family="Times New Roman,serif" font-size="14.00">Normalized count: 6.00</text>
<text text-anchor="middle" x="385.33" y="-682.72" font-family="Times New Roman,serif" font-size="14.00">Samples weight: 0.00</text>
</g>
<!-- BB5&#45;&gt;BB7 -->
<g id="edge8" class="edge">
<title>BB5&#45;&gt;BB7</title>
<path fill="none" stroke="black" d="M458.75,-796.01C449.35,-784.99 439.18,-773.06 429.49,-761.7"/>
<polygon fill="black" stroke="black" points="432.02,-759.28 422.87,-753.94 426.7,-763.82 432.02,-759.28"/>
</g>
<!-- BB6&#45;&gt;BB7 -->
<g id="edge9" class="edge">
<title>BB6&#45;&gt;BB7</title>
<path fill="none" stroke="black" d="M310.59,-796.01C320.16,-784.99 330.51,-773.06 340.38,-761.7"/>
<polygon fill="black" stroke="black" points="343.2,-763.78 347.11,-753.94 337.91,-759.2 343.2,-763.78"/>
</g>
<!-- BB14 -->
<g id="node15" class="node">
<title>BB14</title>
<ellipse fill="none" stroke="black" cx="385.33" cy="-576.75" rx="122.16" ry="48.17"/>
<text text-anchor="middle" x="385.33" y="-595.55" font-family="Times New Roman,serif" font-size="14.00">[93..99)</text>
<text text-anchor="middle" x="385.33" y="-580.55" font-family="Times New Roman,serif" font-size="14.00">Count: 254189</text>
<text text-anchor="middle" x="385.33" y="-565.55" font-family="Times New Roman,serif" font-size="14.00">Normalized count: 84729.67</text>
<text text-anchor="middle" x="385.33" y="-550.55" font-family="Times New Roman,serif" font-size="14.00">Samples weight: 0.20</text>
</g>
<!-- BB7&#45;&gt;BB14 -->
<g id="edge10" class="edge">
<title>BB7&#45;&gt;BB14</title>
<path fill="none" stroke="black" d="M385.33,-660.55C385.33,-652.29 385.33,-643.6 385.33,-635.1"/>
<polygon fill="black" stroke="black" points="388.83,-634.86 385.33,-624.86 381.83,-634.86 388.83,-634.86"/>
</g>
<!-- BB8 -->
<g id="node9" class="node">
<title>BB8</title>
<ellipse fill="none" stroke="black" cx="385.33" cy="-444.58" rx="122.16" ry="48.17"/>
<text text-anchor="middle" x="385.33" y="-463.38" font-family="Times New Roman,serif" font-size="14.00">[3b..4c)</text>
<text text-anchor="middle" x="385.33" y="-448.38" font-family="Times New Roman,serif" font-size="14.00">Count: 254171</text>
<text text-anchor="middle" x="385.33" y="-433.38" font-family="Times New Roman,serif" font-size="14.00">Normalized count: 84723.67</text>
<text text-anchor="middle" x="385.33" y="-418.38" font-family="Times New Roman,serif" font-size="14.00">Samples weight: 0.20</text>
</g>
<!-- BB9 -->
<g id="node10" class="node">
<title>BB9</title>
<ellipse fill="none" stroke="black" cx="122.33" cy="-312.42" rx="122.16" ry="48.17"/>
<text text-anchor="middle" x="122.33" y="-331.22" font-family="Times New Roman,serif" font-size="14.00">[4c..59)</text>
<text text-anchor="middle" x="122.33" y="-316.22" font-family="Times New Roman,serif" font-size="14.00">Count: 250000</text>
<text text-anchor="middle" x="122.33" y="-301.22" font-family="Times New Roman,serif" font-size="14.00">Normalized count: 83333.33</text>
<text text-anchor="middle" x="122.33" y="-286.22" font-family="Times New Roman,serif" font-size="14.00">Samples weight: 0.20</text>
</g>
<!-- BB8&#45;&gt;BB9 -->
<g id="edge12" class="edge">
<title>BB8&#45;&gt;BB9</title>
<path fill="none" stroke="black" d="M310.32,-406.46C277.98,-390.45 240.02,-371.66 206.71,-355.18"/>
<polygon fill="black" stroke="black" points="207.96,-351.89 197.44,-350.59 204.85,-358.16 207.96,-351.89"/>
</g>
<!-- BB10 -->
<g id="node11" class="node">
<title>BB10</title>
<ellipse fill="none" stroke="black" cx="385.33" cy="-312.42" rx="122.16" ry="48.17"/>
<text text-anchor="middle" x="385.33" y="-331.22" font-family="Times New Roman,serif" font-size="14.00">[59..5d)</text>
<text text-anchor="middle" x="385.33" y="-316.22" font-family="Times New Roman,serif" font-size="14.00">Count: 254171</text>
<text text-anchor="middle" x="385.33" y="-301.22" font-family="Times New Roman,serif" font-size="14.00">Normalized count: 84723.67</text>
<text text-anchor="middle" x="385.33" y="-286.22" font-family="Times New Roman,serif" font-size="14.00">Samples weight: 0.20</text>
</g>
<!-- BB8&#45;&gt;BB10 -->
<g id="edge11" class="edge">
<title>BB8&#45;&gt;BB10</title>
<path fill="none" stroke="black" d="M385.33,-396.22C385.33,-387.95 385.33,-379.27 385.33,-370.77"/>
<polygon fill="black" stroke="black" points="388.83,-370.52 385.33,-360.52 381.83,-370.52 388.83,-370.52"/>
</g>
<!-- BB9&#45;&gt;BB10 -->
<g id="edge13" class="edge">
<title>BB9&#45;&gt;BB10</title>
<path fill="none" stroke="black" d="M244.84,-312.42C247.48,-312.42 250.12,-312.42 252.76,-312.42"/>
<polygon fill="black" stroke="black" points="252.95,-315.92 262.95,-312.42 252.95,-308.92 252.95,-315.92"/>
</g>
<!-- BB11 -->
<g id="node12" class="node">
<title>BB11</title>
<ellipse fill="none" stroke="black" cx="277.33" cy="-180.25" rx="118.17" ry="48.17"/>
<text text-anchor="middle" x="277.33" y="-199.05" font-family="Times New Roman,serif" font-size="14.00">[5d..77)</text>
<text text-anchor="middle" x="277.33" y="-184.05" font-family="Times New Roman,serif" font-size="14.00">Count: 4166</text>
<text text-anchor="middle" x="277.33" y="-169.05" font-family="Times New Roman,serif" font-size="14.00">Normalized count: 1388.67</text>
<text text-anchor="middle" x="277.33" y="-154.05" font-family="Times New Roman,serif" font-size="14.00">Samples weight: 0.00</text>
</g>
<!-- BB10&#45;&gt;BB11 -->
<g id="edge15" class="edge">
<title>BB10&#45;&gt;BB11</title>
<path fill="none" stroke="black" d="M347.86,-266.26C339.31,-255.96 330.16,-244.92 321.37,-234.33"/>
<polygon fill="black" stroke="black" points="323.81,-231.79 314.73,-226.33 318.43,-236.26 323.81,-231.79"/>
</g>
<!-- BB13 -->
<g id="node14" class="node">
<title>BB13</title>
<ellipse fill="none" stroke="black" cx="535.33" cy="-180.25" rx="122.16" ry="48.17"/>
<text text-anchor="middle" x="535.33" y="-199.05" font-family="Times New Roman,serif" font-size="14.00">[8d..93)</text>
<text text-anchor="middle" x="535.33" y="-184.05" font-family="Times New Roman,serif" font-size="14.00">Count: 254171</text>
<text text-anchor="middle" x="535.33" y="-169.05" font-family="Times New Roman,serif" font-size="14.00">Normalized count: 84723.67</text>
<text text-anchor="middle" x="535.33" y="-154.05" font-family="Times New Roman,serif" font-size="14.00">Samples weight: 0.20</text>
</g>
<!-- BB10&#45;&gt;BB13 -->
<g id="edge14" class="edge">
<title>BB10&#45;&gt;BB13</title>
<path fill="none" stroke="black" d="M434.86,-268.43C448.61,-256.5 463.66,-243.44 477.83,-231.15"/>
<polygon fill="black" stroke="black" points="480.34,-233.61 485.59,-224.41 475.75,-228.32 480.34,-233.61"/>
</g>
<!-- BB12 -->
<g id="node13" class="node">
<title>BB12</title>
<ellipse fill="none" stroke="black" cx="406.33" cy="-48.08" rx="103.48" ry="48.17"/>
<text text-anchor="middle" x="406.33" y="-66.88" font-family="Times New Roman,serif" font-size="14.00">[77..8d)</text>
<text text-anchor="middle" x="406.33" y="-51.88" font-family="Times New Roman,serif" font-size="14.00">Count: 14</text>
<text text-anchor="middle" x="406.33" y="-36.88" font-family="Times New Roman,serif" font-size="14.00">Normalized count: 4.67</text>
<text text-anchor="middle" x="406.33" y="-21.88" font-family="Times New Roman,serif" font-size="14.00">Samples weight: 0.00</text>
</g>
<!-- BB11&#45;&gt;BB12 -->
<g id="edge17" class="edge">
<title>BB11&#45;&gt;BB12</title>
<path fill="none" stroke="black" d="M321,-135.18C332.38,-123.7 344.73,-111.24 356.41,-99.46"/>
<polygon fill="black" stroke="black" points="359.02,-101.79 363.58,-92.22 354.05,-96.86 359.02,-101.79"/>
</g>
<!-- BB11&#45;&gt;BB13 -->
<g id="edge16" class="edge">
<title>BB11&#45;&gt;BB13</title>
<path fill="none" stroke="black" d="M395.5,-180.25C397.95,-180.25 400.41,-180.25 402.87,-180.25"/>
<polygon fill="black" stroke="black" points="402.97,-183.75 412.97,-180.25 402.97,-176.75 402.97,-183.75"/>
</g>
<!-- BB12&#45;&gt;BB13 -->
<g id="edge18" class="edge">
<title>BB12&#45;&gt;BB13</title>
<path fill="none" stroke="black" d="M449.08,-92.22C460.41,-103.65 472.75,-116.1 484.46,-127.92"/>
<polygon fill="black" stroke="black" points="482.13,-130.54 491.66,-135.18 487.1,-125.61 482.13,-130.54"/>
</g>
<!-- BB13&#45;&gt;BB14 -->
<g id="edge19" class="edge">
<title>BB13&#45;&gt;BB14</title>
<path fill="none" stroke="black" d="M544.94,-228.33C555.49,-292.84 565.07,-410.1 516.33,-492.67 506.36,-509.55 491.47,-523.55 475.26,-534.94"/>
<polygon fill="black" stroke="black" points="473.05,-532.21 466.68,-540.67 476.94,-538.03 473.05,-532.21"/>
</g>
<!-- BB14&#45;&gt;BB8 -->
<g id="edge20" class="edge">
<title>BB14&#45;&gt;BB8</title>
<path fill="none" stroke="black" d="M385.33,-528.39C385.33,-520.12 385.33,-511.44 385.33,-502.93"/>
<polygon fill="black" stroke="black" points="388.83,-502.69 385.33,-492.69 381.83,-502.69 388.83,-502.69"/>
</g>
<!-- BB15 -->
<g id="node16" class="node">
<title>BB15</title>
<ellipse fill="none" stroke="black" cx="141.33" cy="-444.58" rx="103.48" ry="48.17"/>
<text text-anchor="middle" x="141.33" y="-463.38" font-family="Times New Roman,serif" font-size="14.00">[99..9d)</text>
<text text-anchor="middle" x="141.33" y="-448.38" font-family="Times New Roman,serif" font-size="14.00">Count: 18</text>
<text text-anchor="middle" x="141.33" y="-433.38" font-family="Times New Roman,serif" font-size="14.00">Normalized count: 6.00</text>
<text text-anchor="middle" x="141.33" y="-418.38" font-family="Times New Roman,serif" font-size="14.00">Samples weight: 0.00</text>
</g>
<!-- BB14&#45;&gt;BB15 -->
<g id="edge21" class="edge">
<title>BB14&#45;&gt;BB15</title>
<path fill="none" stroke="black" d="M313.77,-537.57C283.44,-521.39 248.06,-502.52 217.26,-486.09"/>
<polygon fill="black" stroke="black" points="218.76,-482.92 208.29,-481.3 215.46,-489.1 218.76,-482.92"/>
</g>
<!-- BB15&#45;&gt;BB16 -->
<g id="edge22" class="edge">
<title>BB15&#45;&gt;BB16</title>
<path fill="none" stroke="black" d="M141.33,-492.97C141.33,-545.51 141.33,-632.77 141.33,-707.92 141.33,-1106.42 141.33,-1106.42 141.33,-1106.42 141.33,-1206.04 236.82,-1283.85 308.08,-1328.04"/>
<polygon fill="black" stroke="black" points="306.28,-1331.05 316.64,-1333.27 309.93,-1325.07 306.28,-1331.05"/>
</g>
<!-- BB16&#45;&gt;BB1 -->
<g id="edge23" class="edge">
<title>BB16&#45;&gt;BB1</title>
<path fill="none" stroke="black" d="M384.33,-1321.39C384.33,-1313.12 384.33,-1304.44 384.33,-1295.93"/>
<polygon fill="black" stroke="black" points="387.83,-1295.69 384.33,-1285.69 380.83,-1295.69 387.83,-1295.69"/>
</g>
<!-- BB17 -->
<g id="node18" class="node">
<title>BB17</title>
<ellipse fill="none" stroke="black" cx="720.33" cy="-1237.58" rx="103.48" ry="48.17"/>
<text text-anchor="middle" x="720.33" y="-1256.38" font-family="Times New Roman,serif" font-size="14.00">[a4..a8)</text>
<text text-anchor="middle" x="720.33" y="-1241.38" font-family="Times New Roman,serif" font-size="14.00">Count: 3</text>
<text text-anchor="middle" x="720.33" y="-1226.38" font-family="Times New Roman,serif" font-size="14.00">Normalized count: 1.00</text>
<text text-anchor="middle" x="720.33" y="-1211.38" font-family="Times New Roman,serif" font-size="14.00">Samples weight: 0.00</text>
</g>
<!-- BB16&#45;&gt;BB17 -->
<g id="edge24" class="edge">
<title>BB16&#45;&gt;BB17</title>
<path fill="none" stroke="black" d="M462.68,-1338.39C513.54,-1318.69 579.89,-1292.99 632.53,-1272.6"/>
<polygon fill="black" stroke="black" points="633.79,-1275.86 641.85,-1268.98 631.26,-1269.33 633.79,-1275.86"/>
</g>
<!-- BB18 -->
<g id="node19" class="node">
<title>BB18</title>
<ellipse fill="none" stroke="black" cx="720.33" cy="-1105.42" rx="103.48" ry="48.17"/>
<text text-anchor="middle" x="720.33" y="-1124.22" font-family="Times New Roman,serif" font-size="14.00">[a8..b5)</text>
<text text-anchor="middle" x="720.33" y="-1109.22" font-family="Times New Roman,serif" font-size="14.00">Count: 3</text>
<text text-anchor="middle" x="720.33" y="-1094.22" font-family="Times New Roman,serif" font-size="14.00">Normalized count: 1.00</text>
<text text-anchor="middle" x="720.33" y="-1079.22" font-family="Times New Roman,serif" font-size="14.00">Samples weight: 0.00</text>
</g>
<!-- BB17&#45;&gt;BB18 -->
<g id="edge26" class="edge">
<title>BB17&#45;&gt;BB18</title>
<path fill="none" stroke="black" d="M720.33,-1189.22C720.33,-1180.95 720.33,-1172.27 720.33,-1163.77"/>
<polygon fill="black" stroke="black" points="723.83,-1163.52 720.33,-1153.52 716.83,-1163.52 723.83,-1163.52"/>
</g>
<!-- BB21 -->
<g id="node22" class="node">
<title>BB21</title>
<ellipse fill="none" stroke="black" cx="944.33" cy="-1105.42" rx="103.48" ry="48.17"/>
<text text-anchor="middle" x="944.33" y="-1124.22" font-family="Times New Roman,serif" font-size="14.00">[cf..d0)</text>
<text text-anchor="middle" x="944.33" y="-1109.22" font-family="Times New Roman,serif" font-size="14.00">Count: 3</text>
<text text-anchor="middle" x="944.33" y="-1094.22" font-family="Times New Roman,serif" font-size="14.00">Normalized count: 1.00</text>
<text text-anchor="middle" x="944.33" y="-1079.22" font-family="Times New Roman,serif" font-size="14.00">Samples weight: 0.00</text>
</g>
<!-- BB17&#45;&gt;BB21 -->
<g id="edge25" class="edge">
<title>BB17&#45;&gt;BB21</title>
<path fill="none" stroke="black" d="M783.92,-1199.63C811.35,-1183.69 843.57,-1164.96 871.92,-1148.49"/>
<polygon fill="black" stroke="black" points="873.69,-1151.51 880.58,-1143.46 870.18,-1145.46 873.69,-1151.51"/>
</g>
<!-- BB19 -->
<g id="node20" class="node">
<title>BB19</title>
<ellipse fill="none" stroke="black" cx="720.33" cy="-973.25" rx="103.48" ry="48.17"/>
<text text-anchor="middle" x="720.33" y="-992.05" font-family="Times New Roman,serif" font-size="14.00">[b5..c2)</text>
<text text-anchor="middle" x="720.33" y="-977.05" font-family="Times New Roman,serif" font-size="14.00">Count: 2</text>
<text text-anchor="middle" x="720.33" y="-962.05" font-family="Times New Roman,serif" font-size="14.00">Normalized count: 0.67</text>
<text text-anchor="middle" x="720.33" y="-947.05" font-family="Times New Roman,serif" font-size="14.00">Samples weight: 0.00</text>
</g>
<!-- BB18&#45;&gt;BB19 -->
<g id="edge28" class="edge">
<title>BB18&#45;&gt;BB19</title>
<path fill="none" stroke="black" d="M720.33,-1057.05C720.33,-1048.79 720.33,-1040.1 720.33,-1031.6"/>
<polygon fill="black" stroke="black" points="723.83,-1031.36 720.33,-1021.36 716.83,-1031.36 723.83,-1031.36"/>
</g>
<!-- BB20 -->
<g id="node21" class="node">
<title>BB20</title>
<ellipse fill="none" stroke="black" cx="944.33" cy="-973.25" rx="103.48" ry="48.17"/>
<text text-anchor="middle" x="944.33" y="-992.05" font-family="Times New Roman,serif" font-size="14.00">[c2..cf)</text>
<text text-anchor="middle" x="944.33" y="-977.05" font-family="Times New Roman,serif" font-size="14.00">Count: 3</text>
<text text-anchor="middle" x="944.33" y="-962.05" font-family="Times New Roman,serif" font-size="14.00">Normalized count: 1.00</text>
<text text-anchor="middle" x="944.33" y="-947.05" font-family="Times New Roman,serif" font-size="14.00">Samples weight: 0.00</text>
</g>
<!-- BB18&#45;&gt;BB20 -->
<g id="edge27" class="edge">
<title>BB18&#45;&gt;BB20</title>
<path fill="none" stroke="black" d="M783.92,-1067.46C811.35,-1051.52 843.57,-1032.8 871.92,-1016.33"/>
<polygon fill="black" stroke="black" points="873.69,-1019.34 880.58,-1011.29 870.18,-1013.29 873.69,-1019.34"/>
</g>
<!-- BB19&#45;&gt;BB20 -->
<g id="edge29" class="edge">
<title>BB19&#45;&gt;BB20</title>
<path fill="none" stroke="black" d="M823.58,-973.25C826.03,-973.25 828.49,-973.25 830.94,-973.25"/>
<polygon fill="black" stroke="black" points="831.03,-976.75 841.03,-973.25 831.03,-969.75 831.03,-976.75"/>
</g>
<!-- BB20&#45;&gt;BB21 -->
<g id="edge30" class="edge">
<title>BB20&#45;&gt;BB21</title>
<path fill="none" stroke="black" d="M944.33,-1021.36C944.33,-1029.62 944.33,-1038.3 944.33,-1046.8"/>
<polygon fill="black" stroke="black" points="940.83,-1047.05 944.33,-1057.05 947.83,-1047.05 940.83,-1047.05"/>
</g>
</g>
</svg>
