<?xml version="1.0" encoding="UTF-8" standalone="no"?>
<!DOCTYPE svg PUBLIC "-//W3C//DTD SVG 1.1//EN"
 "http://www.w3.org/Graphics/SVG/1.1/DTD/svg11.dtd">
<!-- Generated by graphviz version 2.47.0 (20210316.0004)
 -->
<!-- Title: G Pages: 1 -->
<svg width="522pt" height="638pt"
 viewBox="0.00 0.00 521.72 637.72" xmlns="http://www.w3.org/2000/svg" xmlns:xlink="http://www.w3.org/1999/xlink">
<g id="graph0" class="graph" transform="scale(1 1) rotate(0) translate(4 633.72)">
<title>G</title>
<polygon fill="white" stroke="transparent" points="-4,4 -4,-633.72 517.72,-633.72 517.72,4 -4,4"/>
<!-- BB0 -->
<g id="node1" class="node">
<title>BB0</title>
<ellipse fill="none" stroke="black" cx="172.36" cy="-592.24" rx="105.22" ry="37.45"/>
<text text-anchor="middle" x="172.36" y="-603.54" font-family="Times New Roman,serif" font-size="14.00">[0..17)</text>
<text text-anchor="middle" x="172.36" y="-588.54" font-family="Times New Roman,serif" font-size="14.00">Normalized Count: 1.00</text>
<text text-anchor="middle" x="172.36" y="-573.54" font-family="Times New Roman,serif" font-size="14.00">Samples weight: 0.03</text>
</g>
<!-- BB5 -->
<g id="node6" class="node">
<title>BB5</title>
<ellipse fill="none" stroke="black" cx="172.36" cy="-481.29" rx="105.22" ry="37.45"/>
<text text-anchor="middle" x="172.36" y="-492.59" font-family="Times New Roman,serif" font-size="14.00">[59..5f)</text>
<text text-anchor="middle" x="172.36" y="-477.59" font-family="Times New Roman,serif" font-size="14.00">Normalized Count: 0.33</text>
<text text-anchor="middle" x="172.36" y="-462.59" font-family="Times New Roman,serif" font-size="14.00">Samples weight: 0.01</text>
</g>
<!-- BB0&#45;&gt;BB5 -->
<g id="edge1" class="edge">
<title>BB0&#45;&gt;BB5</title>
<path fill="none" stroke="black" d="M172.36,-554.66C172.36,-546.49 172.36,-537.71 172.36,-529.18"/>
<polygon fill="black" stroke="black" points="175.86,-528.96 172.36,-518.96 168.86,-528.96 175.86,-528.96"/>
</g>
<!-- BB1 -->
<g id="node2" class="node">
<title>BB1</title>
<ellipse fill="none" stroke="black" cx="401.36" cy="-370.34" rx="105.22" ry="37.45"/>
<text text-anchor="middle" x="401.36" y="-381.64" font-family="Times New Roman,serif" font-size="14.00">[17..28)</text>
<text text-anchor="middle" x="401.36" y="-366.64" font-family="Times New Roman,serif" font-size="14.00">Normalized Count: 6.17</text>
<text text-anchor="middle" x="401.36" y="-351.64" font-family="Times New Roman,serif" font-size="14.00">Samples weight: 0.18</text>
</g>
<!-- BB2 -->
<g id="node3" class="node">
<title>BB2</title>
<ellipse fill="none" stroke="black" cx="174.36" cy="-259.38" rx="105.22" ry="37.45"/>
<text text-anchor="middle" x="174.36" y="-270.68" font-family="Times New Roman,serif" font-size="14.00">[28..38)</text>
<text text-anchor="middle" x="174.36" y="-255.68" font-family="Times New Roman,serif" font-size="14.00">Normalized Count: 1.50</text>
<text text-anchor="middle" x="174.36" y="-240.68" font-family="Times New Roman,serif" font-size="14.00">Samples weight: 0.04</text>
</g>
<!-- BB1&#45;&gt;BB2 -->
<g id="edge3" class="edge">
<title>BB1&#45;&gt;BB2</title>
<path fill="none" stroke="black" d="M339.93,-339.85C310.66,-325.8 275.49,-308.92 245.1,-294.34"/>
<polygon fill="black" stroke="black" points="246.37,-291.06 235.84,-289.89 243.34,-297.37 246.37,-291.06"/>
</g>
<!-- BB7 -->
<g id="node8" class="node">
<title>BB7</title>
<ellipse fill="none" stroke="black" cx="403.36" cy="-259.38" rx="105.22" ry="37.45"/>
<text text-anchor="middle" x="403.36" y="-270.68" font-family="Times New Roman,serif" font-size="14.00">[64..68)</text>
<text text-anchor="middle" x="403.36" y="-255.68" font-family="Times New Roman,serif" font-size="14.00">Normalized Count: 1.67</text>
<text text-anchor="middle" x="403.36" y="-240.68" font-family="Times New Roman,serif" font-size="14.00">Samples weight: 0.05</text>
</g>
<!-- BB1&#45;&gt;BB7 -->
<g id="edge2" class="edge">
<title>BB1&#45;&gt;BB7</title>
<path fill="none" stroke="black" d="M402.03,-332.75C402.18,-324.58 402.34,-315.8 402.5,-307.27"/>
<polygon fill="black" stroke="black" points="406,-307.12 402.69,-297.06 399,-306.99 406,-307.12"/>
</g>
<!-- BB3 -->
<g id="node4" class="node">
<title>BB3</title>
<ellipse fill="none" stroke="black" cx="174.36" cy="-148.43" rx="110.12" ry="37.45"/>
<text text-anchor="middle" x="174.36" y="-159.73" font-family="Times New Roman,serif" font-size="14.00">[38..51)</text>
<text text-anchor="middle" x="174.36" y="-144.73" font-family="Times New Roman,serif" font-size="14.00">Normalized Count: 23.00</text>
<text text-anchor="middle" x="174.36" y="-129.73" font-family="Times New Roman,serif" font-size="14.00">Samples weight: 0.67</text>
</g>
<!-- BB2&#45;&gt;BB3 -->
<g id="edge5" class="edge">
<title>BB2&#45;&gt;BB3</title>
<path fill="none" stroke="black" d="M174.36,-221.8C174.36,-213.63 174.36,-204.85 174.36,-196.32"/>
<polygon fill="black" stroke="black" points="177.86,-196.1 174.36,-186.1 170.86,-196.1 177.86,-196.1"/>
</g>
<!-- BB6 -->
<g id="node7" class="node">
<title>BB6</title>
<ellipse fill="none" stroke="black" cx="172.36" cy="-370.34" rx="105.22" ry="37.45"/>
<text text-anchor="middle" x="172.36" y="-381.64" font-family="Times New Roman,serif" font-size="14.00">[5f..64)</text>
<text text-anchor="middle" x="172.36" y="-366.64" font-family="Times New Roman,serif" font-size="14.00">Normalized Count: 0.00</text>
<text text-anchor="middle" x="172.36" y="-351.64" font-family="Times New Roman,serif" font-size="14.00">Samples weight: 0.00</text>
</g>
<!-- BB2&#45;&gt;BB6 -->
<g id="edge4" class="edge">
<title>BB2&#45;&gt;BB6</title>
<path fill="none" stroke="black" d="M173.69,-297.06C173.54,-305.23 173.37,-314.02 173.22,-322.54"/>
<polygon fill="black" stroke="black" points="169.71,-322.69 173.03,-332.75 176.71,-322.82 169.71,-322.69"/>
</g>
<!-- BB4 -->
<g id="node5" class="node">
<title>BB4</title>
<ellipse fill="none" stroke="black" cx="105.36" cy="-37.48" rx="105.22" ry="37.45"/>
<text text-anchor="middle" x="105.36" y="-48.78" font-family="Times New Roman,serif" font-size="14.00">[51..59)</text>
<text text-anchor="middle" x="105.36" y="-33.78" font-family="Times New Roman,serif" font-size="14.00">Normalized Count: 0.67</text>
<text text-anchor="middle" x="105.36" y="-18.78" font-family="Times New Roman,serif" font-size="14.00">Samples weight: 0.02</text>
</g>
<!-- BB3&#45;&gt;BB4 -->
<g id="edge7" class="edge">
<title>BB3&#45;&gt;BB4</title>
<path fill="none" stroke="black" d="M151.57,-111.45C145.8,-102.34 139.54,-92.45 133.54,-82.97"/>
<polygon fill="black" stroke="black" points="136.43,-80.99 128.12,-74.42 130.51,-84.74 136.43,-80.99"/>
</g>
<!-- BB8 -->
<g id="node9" class="node">
<title>BB8</title>
<ellipse fill="none" stroke="black" cx="408.36" cy="-148.43" rx="105.22" ry="37.45"/>
<text text-anchor="middle" x="408.36" y="-159.73" font-family="Times New Roman,serif" font-size="14.00">[68..69)</text>
<text text-anchor="middle" x="408.36" y="-144.73" font-family="Times New Roman,serif" font-size="14.00">Normalized Count: 0.00</text>
<text text-anchor="middle" x="408.36" y="-129.73" font-family="Times New Roman,serif" font-size="14.00">Samples weight: 0.00</text>
</g>
<!-- BB3&#45;&gt;BB8 -->
<g id="edge6" class="edge">
<title>BB3&#45;&gt;BB8</title>
<path fill="none" stroke="black" d="M284.96,-148.43C287.56,-148.43 290.16,-148.43 292.76,-148.43"/>
<polygon fill="black" stroke="black" points="292.8,-151.93 302.8,-148.43 292.8,-144.93 292.8,-151.93"/>
</g>
<!-- BB4&#45;&gt;BB5 -->
<g id="edge8" class="edge">
<title>BB4&#45;&gt;BB5</title>
<path fill="none" stroke="black" d="M74.98,-73.44C67.01,-84.67 59.5,-97.67 55.36,-110.95 16.12,-236.93 -5.94,-292.6 58.36,-407.81 67.23,-423.71 81.2,-436.63 96.37,-446.92"/>
<polygon fill="black" stroke="black" points="94.58,-449.93 104.89,-452.36 98.35,-444.03 94.58,-449.93"/>
</g>
<!-- BB5&#45;&gt;BB1 -->
<g id="edge9" class="edge">
<title>BB5&#45;&gt;BB1</title>
<path fill="none" stroke="black" d="M234.33,-450.81C263.86,-436.76 299.34,-419.87 329.99,-405.29"/>
<polygon fill="black" stroke="black" points="331.81,-408.3 339.34,-400.84 328.8,-401.98 331.81,-408.3"/>
</g>
<!-- BB5&#45;&gt;BB6 -->
<g id="edge10" class="edge">
<title>BB5&#45;&gt;BB6</title>
<path fill="none" stroke="black" d="M172.36,-443.71C172.36,-435.53 172.36,-426.75 172.36,-418.23"/>
<polygon fill="black" stroke="black" points="175.86,-418.01 172.36,-408.01 168.86,-418.01 175.86,-418.01"/>
</g>
<!-- BB7&#45;&gt;BB8 -->
<g id="edge11" class="edge">
<title>BB7&#45;&gt;BB8</title>
<path fill="none" stroke="black" d="M405.04,-221.8C405.41,-213.63 405.82,-204.85 406.21,-196.32"/>
<polygon fill="black" stroke="black" points="409.71,-196.25 406.68,-186.1 402.72,-195.93 409.71,-196.25"/>
</g>
</g>
</svg>
