<?xml version="1.0" encoding="UTF-8" standalone="no"?>
<!DOCTYPE svg PUBLIC "-//W3C//DTD SVG 1.1//EN"
 "http://www.w3.org/Graphics/SVG/1.1/DTD/svg11.dtd">
<!-- Generated by graphviz version 2.47.0 (20210316.0004)
 -->
<!-- Title: G Pages: 1 -->
<svg width="700pt" height="1029pt"
 viewBox="0.00 0.00 700.48 1029.33" xmlns="http://www.w3.org/2000/svg" xmlns:xlink="http://www.w3.org/1999/xlink">
<g id="graph0" class="graph" transform="scale(1 1) rotate(0) translate(4 1025.33)">
<title>G</title>
<polygon fill="white" stroke="transparent" points="-4,4 -4,-1025.33 696.48,-1025.33 696.48,4 -4,4"/>
<!-- BB0 -->
<g id="node1" class="node">
<title>BB0</title>
<ellipse fill="none" stroke="black" cx="458.24" cy="-973.25" rx="103.48" ry="48.17"/>
<text text-anchor="middle" x="458.24" y="-992.05" font-family="Times New Roman,serif" font-size="14.00">[0..1d)</text>
<text text-anchor="middle" x="458.24" y="-977.05" font-family="Times New Roman,serif" font-size="14.00">Count: 8</text>
<text text-anchor="middle" x="458.24" y="-962.05" font-family="Times New Roman,serif" font-size="14.00">Normalized count: 1.00</text>
<text text-anchor="middle" x="458.24" y="-947.05" font-family="Times New Roman,serif" font-size="14.00">Samples weight: 0.00</text>
</g>
<!-- BB10 -->
<g id="node11" class="node">
<title>BB10</title>
<ellipse fill="none" stroke="black" cx="458.24" cy="-841.08" rx="103.48" ry="48.17"/>
<text text-anchor="middle" x="458.24" y="-859.88" font-family="Times New Roman,serif" font-size="14.00">[88..97)</text>
<text text-anchor="middle" x="458.24" y="-844.88" font-family="Times New Roman,serif" font-size="14.00">Count: 16</text>
<text text-anchor="middle" x="458.24" y="-829.88" font-family="Times New Roman,serif" font-size="14.00">Normalized count: 2.00</text>
<text text-anchor="middle" x="458.24" y="-814.88" font-family="Times New Roman,serif" font-size="14.00">Samples weight: 0.00</text>
</g>
<!-- BB0&#45;&gt;BB10 -->
<g id="edge1" class="edge">
<title>BB0&#45;&gt;BB10</title>
<path fill="none" stroke="black" d="M458.24,-924.89C458.24,-916.62 458.24,-907.94 458.24,-899.43"/>
<polygon fill="black" stroke="black" points="461.74,-899.19 458.24,-889.19 454.74,-899.19 461.74,-899.19"/>
</g>
<!-- BB1 -->
<g id="node2" class="node">
<title>BB1</title>
<ellipse fill="none" stroke="black" cx="327.24" cy="-708.92" rx="103.48" ry="48.17"/>
<text text-anchor="middle" x="327.24" y="-727.72" font-family="Times New Roman,serif" font-size="14.00">[1d..30)</text>
<text text-anchor="middle" x="327.24" y="-712.72" font-family="Times New Roman,serif" font-size="14.00">Count: 8</text>
<text text-anchor="middle" x="327.24" y="-697.72" font-family="Times New Roman,serif" font-size="14.00">Normalized count: 1.00</text>
<text text-anchor="middle" x="327.24" y="-682.72" font-family="Times New Roman,serif" font-size="14.00">Samples weight: 0.00</text>
</g>
<!-- BB2 -->
<g id="node3" class="node">
<title>BB2</title>
<ellipse fill="none" stroke="black" cx="103.24" cy="-576.75" rx="103.48" ry="48.17"/>
<text text-anchor="middle" x="103.24" y="-595.55" font-family="Times New Roman,serif" font-size="14.00">[30..46)</text>
<text text-anchor="middle" x="103.24" y="-580.55" font-family="Times New Roman,serif" font-size="14.00">Count: 7</text>
<text text-anchor="middle" x="103.24" y="-565.55" font-family="Times New Roman,serif" font-size="14.00">Normalized count: 0.88</text>
<text text-anchor="middle" x="103.24" y="-550.55" font-family="Times New Roman,serif" font-size="14.00">Samples weight: 0.00</text>
</g>
<!-- BB1&#45;&gt;BB2 -->
<g id="edge3" class="edge">
<title>BB1&#45;&gt;BB2</title>
<path fill="none" stroke="black" d="M263.65,-670.96C236.22,-655.02 203.99,-636.3 175.65,-619.83"/>
<polygon fill="black" stroke="black" points="177.39,-616.79 166.99,-614.79 173.87,-622.84 177.39,-616.79"/>
</g>
<!-- BB4 -->
<g id="node5" class="node">
<title>BB4</title>
<ellipse fill="none" stroke="black" cx="327.24" cy="-576.75" rx="103.48" ry="48.17"/>
<text text-anchor="middle" x="327.24" y="-595.55" font-family="Times New Roman,serif" font-size="14.00">[49..4e)</text>
<text text-anchor="middle" x="327.24" y="-580.55" font-family="Times New Roman,serif" font-size="14.00">Count: 8</text>
<text text-anchor="middle" x="327.24" y="-565.55" font-family="Times New Roman,serif" font-size="14.00">Normalized count: 1.00</text>
<text text-anchor="middle" x="327.24" y="-550.55" font-family="Times New Roman,serif" font-size="14.00">Samples weight: 0.00</text>
</g>
<!-- BB1&#45;&gt;BB4 -->
<g id="edge2" class="edge">
<title>BB1&#45;&gt;BB4</title>
<path fill="none" stroke="black" d="M327.24,-660.55C327.24,-652.29 327.24,-643.6 327.24,-635.1"/>
<polygon fill="black" stroke="black" points="330.74,-634.86 327.24,-624.86 323.74,-634.86 330.74,-634.86"/>
</g>
<!-- BB3 -->
<g id="node4" class="node">
<title>BB3</title>
<ellipse fill="none" stroke="black" cx="154.24" cy="-444.58" rx="103.48" ry="48.17"/>
<text text-anchor="middle" x="154.24" y="-463.38" font-family="Times New Roman,serif" font-size="14.00">[46..49)</text>
<text text-anchor="middle" x="154.24" y="-448.38" font-family="Times New Roman,serif" font-size="14.00">Count: 7</text>
<text text-anchor="middle" x="154.24" y="-433.38" font-family="Times New Roman,serif" font-size="14.00">Normalized count: 0.88</text>
<text text-anchor="middle" x="154.24" y="-418.38" font-family="Times New Roman,serif" font-size="14.00">Samples weight: 0.00</text>
</g>
<!-- BB2&#45;&gt;BB3 -->
<g id="edge5" class="edge">
<title>BB2&#45;&gt;BB3</title>
<path fill="none" stroke="black" d="M121.51,-529.12C124.98,-520.24 128.66,-510.87 132.24,-501.73"/>
<polygon fill="black" stroke="black" points="135.54,-502.91 135.93,-492.32 129.02,-500.35 135.54,-502.91"/>
</g>
<!-- BB2&#45;&gt;BB4 -->
<g id="edge4" class="edge">
<title>BB2&#45;&gt;BB4</title>
<path fill="none" stroke="black" d="M206.49,-576.75C208.94,-576.75 211.4,-576.75 213.85,-576.75"/>
<polygon fill="black" stroke="black" points="213.94,-580.25 223.94,-576.75 213.94,-573.25 213.94,-580.25"/>
</g>
<!-- BB3&#45;&gt;BB4 -->
<g id="edge6" class="edge">
<title>BB3&#45;&gt;BB4</title>
<path fill="none" stroke="black" d="M207.7,-485.81C225.9,-499.5 246.4,-514.93 265.22,-529.09"/>
<polygon fill="black" stroke="black" points="263.35,-532.06 273.45,-535.28 267.56,-526.47 263.35,-532.06"/>
</g>
<!-- BB9 -->
<g id="node10" class="node">
<title>BB9</title>
<ellipse fill="none" stroke="black" cx="432.24" cy="-444.58" rx="132.46" ry="48.17"/>
<text text-anchor="middle" x="432.24" y="-463.38" font-family="Times New Roman,serif" font-size="14.00">[83..88)</text>
<text text-anchor="middle" x="432.24" y="-448.38" font-family="Times New Roman,serif" font-size="14.00">Count: 31987294</text>
<text text-anchor="middle" x="432.24" y="-433.38" font-family="Times New Roman,serif" font-size="14.00">Normalized count: 3998411.75</text>
<text text-anchor="middle" x="432.24" y="-418.38" font-family="Times New Roman,serif" font-size="14.00">Samples weight: 0.25</text>
</g>
<!-- BB4&#45;&gt;BB9 -->
<g id="edge7" class="edge">
<title>BB4&#45;&gt;BB9</title>
<path fill="none" stroke="black" d="M363.08,-531.32C371.41,-520.99 380.37,-509.88 388.98,-499.21"/>
<polygon fill="black" stroke="black" points="391.93,-501.12 395.49,-491.14 386.48,-496.73 391.93,-501.12"/>
</g>
<!-- BB5 -->
<g id="node6" class="node">
<title>BB5</title>
<ellipse fill="none" stroke="black" cx="352.24" cy="-312.42" rx="132.46" ry="48.17"/>
<text text-anchor="middle" x="352.24" y="-331.22" font-family="Times New Roman,serif" font-size="14.00">[4e..5b)</text>
<text text-anchor="middle" x="352.24" y="-316.22" font-family="Times New Roman,serif" font-size="14.00">Count: 32156937</text>
<text text-anchor="middle" x="352.24" y="-301.22" font-family="Times New Roman,serif" font-size="14.00">Normalized count: 4019617.12</text>
<text text-anchor="middle" x="352.24" y="-286.22" font-family="Times New Roman,serif" font-size="14.00">Samples weight: 0.25</text>
</g>
<!-- BB6 -->
<g id="node7" class="node">
<title>BB6</title>
<ellipse fill="none" stroke="black" cx="230.24" cy="-180.25" rx="132.46" ry="48.17"/>
<text text-anchor="middle" x="230.24" y="-199.05" font-family="Times New Roman,serif" font-size="14.00">[5b..7a)</text>
<text text-anchor="middle" x="230.24" y="-184.05" font-family="Times New Roman,serif" font-size="14.00">Count: 32897872</text>
<text text-anchor="middle" x="230.24" y="-169.05" font-family="Times New Roman,serif" font-size="14.00">Normalized count: 4112234.00</text>
<text text-anchor="middle" x="230.24" y="-154.05" font-family="Times New Roman,serif" font-size="14.00">Samples weight: 0.26</text>
</g>
<!-- BB5&#45;&gt;BB6 -->
<g id="edge9" class="edge">
<title>BB5&#45;&gt;BB6</title>
<path fill="none" stroke="black" d="M310.25,-266.62C300.28,-255.98 289.56,-244.55 279.31,-233.61"/>
<polygon fill="black" stroke="black" points="281.69,-231.03 272.3,-226.13 276.59,-235.82 281.69,-231.03"/>
</g>
<!-- BB8 -->
<g id="node9" class="node">
<title>BB8</title>
<ellipse fill="none" stroke="black" cx="512.24" cy="-180.25" rx="132.46" ry="48.17"/>
<text text-anchor="middle" x="512.24" y="-199.05" font-family="Times New Roman,serif" font-size="14.00">[7d..83)</text>
<text text-anchor="middle" x="512.24" y="-184.05" font-family="Times New Roman,serif" font-size="14.00">Count: 31918152</text>
<text text-anchor="middle" x="512.24" y="-169.05" font-family="Times New Roman,serif" font-size="14.00">Normalized count: 3989769.00</text>
<text text-anchor="middle" x="512.24" y="-154.05" font-family="Times New Roman,serif" font-size="14.00">Samples weight: 0.25</text>
</g>
<!-- BB5&#45;&gt;BB8 -->
<g id="edge8" class="edge">
<title>BB5&#45;&gt;BB8</title>
<path fill="none" stroke="black" d="M405.52,-268.07C420.22,-256.11 436.29,-243.03 451.4,-230.75"/>
<polygon fill="black" stroke="black" points="453.64,-233.43 459.19,-224.4 449.23,-228 453.64,-233.43"/>
</g>
<!-- BB7 -->
<g id="node8" class="node">
<title>BB7</title>
<ellipse fill="none" stroke="black" cx="371.24" cy="-48.08" rx="108.38" ry="48.17"/>
<text text-anchor="middle" x="371.24" y="-66.88" font-family="Times New Roman,serif" font-size="14.00">[7a..7d)</text>
<text text-anchor="middle" x="371.24" y="-51.88" font-family="Times New Roman,serif" font-size="14.00">Count: 156</text>
<text text-anchor="middle" x="371.24" y="-36.88" font-family="Times New Roman,serif" font-size="14.00">Normalized count: 19.50</text>
<text text-anchor="middle" x="371.24" y="-21.88" font-family="Times New Roman,serif" font-size="14.00">Samples weight: 0.00</text>
</g>
<!-- BB6&#45;&gt;BB7 -->
<g id="edge11" class="edge">
<title>BB6&#45;&gt;BB7</title>
<path fill="none" stroke="black" d="M277.97,-135.18C290.66,-123.47 304.45,-110.74 317.44,-98.74"/>
<polygon fill="black" stroke="black" points="320.01,-101.14 324.98,-91.78 315.26,-95.99 320.01,-101.14"/>
</g>
<!-- BB6&#45;&gt;BB8 -->
<g id="edge10" class="edge">
<title>BB6&#45;&gt;BB8</title>
<path fill="none" stroke="black" d="M362.7,-180.25C365.03,-180.25 367.37,-180.25 369.7,-180.25"/>
<polygon fill="black" stroke="black" points="369.93,-183.75 379.93,-180.25 369.93,-176.75 369.93,-183.75"/>
</g>
<!-- BB7&#45;&gt;BB8 -->
<g id="edge12" class="edge">
<title>BB7&#45;&gt;BB8</title>
<path fill="none" stroke="black" d="M417.49,-91.78C430.09,-103.42 443.87,-116.13 456.92,-128.18"/>
<polygon fill="black" stroke="black" points="454.78,-130.97 464.5,-135.18 459.53,-125.83 454.78,-130.97"/>
</g>
<!-- BB8&#45;&gt;BB9 -->
<g id="edge13" class="edge">
<title>BB8&#45;&gt;BB9</title>
<path fill="none" stroke="black" d="M513.87,-228.49C513.6,-265.58 509.74,-317.89 493.24,-360.5 489.33,-370.59 483.86,-380.55 477.79,-389.88"/>
<polygon fill="black" stroke="black" points="474.82,-388.03 472.07,-398.26 480.6,-391.97 474.82,-388.03"/>
</g>
<!-- BB9&#45;&gt;BB5 -->
<g id="edge14" class="edge">
<title>BB9&#45;&gt;BB5</title>
<path fill="none" stroke="black" d="M403.81,-397.32C398.03,-387.93 391.9,-377.95 385.96,-368.29"/>
<polygon fill="black" stroke="black" points="388.79,-366.21 380.58,-359.53 382.83,-369.88 388.79,-366.21"/>
</g>
<!-- BB9&#45;&gt;BB10 -->
<g id="edge15" class="edge">
<title>BB9&#45;&gt;BB10</title>
<path fill="none" stroke="black" d="M436.42,-493.02C437.4,-504.67 438.4,-517.12 439.24,-528.67 445.68,-617.33 451.67,-720.29 455.14,-782.79"/>
<polygon fill="black" stroke="black" points="451.65,-783.05 455.7,-792.84 458.64,-782.66 451.65,-783.05"/>
</g>
<!-- BB10&#45;&gt;BB1 -->
<g id="edge16" class="edge">
<title>BB10&#45;&gt;BB1</title>
<path fill="none" stroke="black" d="M414.98,-797.1C403.02,-785.21 389.93,-772.21 377.61,-759.96"/>
<polygon fill="black" stroke="black" points="380.01,-757.42 370.45,-752.85 375.08,-762.38 380.01,-757.42"/>
</g>
<!-- BB11 -->
<g id="node12" class="node">
<title>BB11</title>
<ellipse fill="none" stroke="black" cx="589.24" cy="-708.92" rx="103.48" ry="48.17"/>
<text text-anchor="middle" x="589.24" y="-727.72" font-family="Times New Roman,serif" font-size="14.00">[97..ae)</text>
<text text-anchor="middle" x="589.24" y="-712.72" font-family="Times New Roman,serif" font-size="14.00">Count: 8</text>
<text text-anchor="middle" x="589.24" y="-697.72" font-family="Times New Roman,serif" font-size="14.00">Normalized count: 1.00</text>
<text text-anchor="middle" x="589.24" y="-682.72" font-family="Times New Roman,serif" font-size="14.00">Samples weight: 0.00</text>
</g>
<!-- BB10&#45;&gt;BB11 -->
<g id="edge17" class="edge">
<title>BB10&#45;&gt;BB11</title>
<path fill="none" stroke="black" d="M501.49,-797.1C513.46,-785.21 526.54,-772.21 538.87,-759.96"/>
<polygon fill="black" stroke="black" points="541.4,-762.38 546.03,-752.85 536.47,-757.42 541.4,-762.38"/>
</g>
</g>
</svg>
