<?xml version="1.0" encoding="UTF-8" standalone="no"?>
<!DOCTYPE svg PUBLIC "-//W3C//DTD SVG 1.1//EN"
 "http://www.w3.org/Graphics/SVG/1.1/DTD/svg11.dtd">
<!-- Generated by graphviz version 2.47.0 (20210316.0004)
 -->
<!-- Title: G Pages: 1 -->
<svg width="722pt" height="633pt"
 viewBox="0.00 0.00 721.57 632.83" xmlns="http://www.w3.org/2000/svg" xmlns:xlink="http://www.w3.org/1999/xlink">
<g id="graph0" class="graph" transform="scale(1 1) rotate(0) translate(4 628.83)">
<title>G</title>
<polygon fill="white" stroke="transparent" points="-4,4 -4,-628.83 717.57,-628.83 717.57,4 -4,4"/>
<!-- BB0 -->
<g id="node1" class="node">
<title>BB0</title>
<ellipse fill="none" stroke="black" cx="122.33" cy="-576.75" rx="103.48" ry="48.17"/>
<text text-anchor="middle" x="122.33" y="-595.55" font-family="Times New Roman,serif" font-size="14.00">[0..6)</text>
<text text-anchor="middle" x="122.33" y="-580.55" font-family="Times New Roman,serif" font-size="14.00">Count: 1</text>
<text text-anchor="middle" x="122.33" y="-565.55" font-family="Times New Roman,serif" font-size="14.00">Normalized count: 1.00</text>
<text text-anchor="middle" x="122.33" y="-550.55" font-family="Times New Roman,serif" font-size="14.00">Samples weight: 0.00</text>
</g>
<!-- BB2 -->
<g id="node3" class="node">
<title>BB2</title>
<ellipse fill="none" stroke="black" cx="122.33" cy="-444.58" rx="122.16" ry="48.17"/>
<text text-anchor="middle" x="122.33" y="-463.38" font-family="Times New Roman,serif" font-size="14.00">[19..22)</text>
<text text-anchor="middle" x="122.33" y="-448.38" font-family="Times New Roman,serif" font-size="14.00">Count: 16668</text>
<text text-anchor="middle" x="122.33" y="-433.38" font-family="Times New Roman,serif" font-size="14.00">Normalized count: 16668.00</text>
<text text-anchor="middle" x="122.33" y="-418.38" font-family="Times New Roman,serif" font-size="14.00">Samples weight: 0.25</text>
</g>
<!-- BB0&#45;&gt;BB2 -->
<g id="edge1" class="edge">
<title>BB0&#45;&gt;BB2</title>
<path fill="none" stroke="black" d="M122.33,-528.39C122.33,-520.12 122.33,-511.44 122.33,-502.93"/>
<polygon fill="black" stroke="black" points="125.83,-502.69 122.33,-492.69 118.83,-502.69 125.83,-502.69"/>
</g>
<!-- BB1 -->
<g id="node2" class="node">
<title>BB1</title>
<ellipse fill="none" stroke="black" cx="122.33" cy="-312.42" rx="122.16" ry="48.17"/>
<text text-anchor="middle" x="122.33" y="-331.22" font-family="Times New Roman,serif" font-size="14.00">[6..19)</text>
<text text-anchor="middle" x="122.33" y="-316.22" font-family="Times New Roman,serif" font-size="14.00">Count: 16667</text>
<text text-anchor="middle" x="122.33" y="-301.22" font-family="Times New Roman,serif" font-size="14.00">Normalized count: 16667.00</text>
<text text-anchor="middle" x="122.33" y="-286.22" font-family="Times New Roman,serif" font-size="14.00">Samples weight: 0.25</text>
</g>
<!-- BB1&#45;&gt;BB2 -->
<g id="edge2" class="edge">
<title>BB1&#45;&gt;BB2</title>
<path fill="none" stroke="black" d="M128.85,-360.52C129.07,-368.78 129.13,-377.46 129.04,-385.97"/>
<polygon fill="black" stroke="black" points="125.54,-386.16 128.85,-396.22 132.53,-386.29 125.54,-386.16"/>
</g>
<!-- BB2&#45;&gt;BB1 -->
<g id="edge3" class="edge">
<title>BB2&#45;&gt;BB1</title>
<path fill="none" stroke="black" d="M115.81,-396.22C115.59,-387.95 115.53,-379.27 115.62,-370.77"/>
<polygon fill="black" stroke="black" points="119.13,-370.59 115.81,-360.52 112.13,-370.46 119.13,-370.59"/>
</g>
<!-- BB3 -->
<g id="node4" class="node">
<title>BB3</title>
<ellipse fill="none" stroke="black" cx="366.33" cy="-312.42" rx="103.48" ry="48.17"/>
<text text-anchor="middle" x="366.33" y="-331.22" font-family="Times New Roman,serif" font-size="14.00">[22..2f)</text>
<text text-anchor="middle" x="366.33" y="-316.22" font-family="Times New Roman,serif" font-size="14.00">Count: 1</text>
<text text-anchor="middle" x="366.33" y="-301.22" font-family="Times New Roman,serif" font-size="14.00">Normalized count: 1.00</text>
<text text-anchor="middle" x="366.33" y="-286.22" font-family="Times New Roman,serif" font-size="14.00">Samples weight: 0.00</text>
</g>
<!-- BB2&#45;&gt;BB3 -->
<g id="edge4" class="edge">
<title>BB2&#45;&gt;BB3</title>
<path fill="none" stroke="black" d="M193.89,-405.41C224.22,-389.23 259.6,-370.35 290.4,-353.92"/>
<polygon fill="black" stroke="black" points="292.2,-356.93 299.37,-349.14 288.9,-350.76 292.2,-356.93"/>
</g>
<!-- BB5 -->
<g id="node6" class="node">
<title>BB5</title>
<ellipse fill="none" stroke="black" cx="366.33" cy="-180.25" rx="122.16" ry="48.17"/>
<text text-anchor="middle" x="366.33" y="-199.05" font-family="Times New Roman,serif" font-size="14.00">[5d..66)</text>
<text text-anchor="middle" x="366.33" y="-184.05" font-family="Times New Roman,serif" font-size="14.00">Count: 16668</text>
<text text-anchor="middle" x="366.33" y="-169.05" font-family="Times New Roman,serif" font-size="14.00">Normalized count: 16668.00</text>
<text text-anchor="middle" x="366.33" y="-154.05" font-family="Times New Roman,serif" font-size="14.00">Samples weight: 0.25</text>
</g>
<!-- BB3&#45;&gt;BB5 -->
<g id="edge5" class="edge">
<title>BB3&#45;&gt;BB5</title>
<path fill="none" stroke="black" d="M366.33,-264.05C366.33,-255.79 366.33,-247.1 366.33,-238.6"/>
<polygon fill="black" stroke="black" points="369.83,-238.36 366.33,-228.36 362.83,-238.36 369.83,-238.36"/>
</g>
<!-- BB4 -->
<g id="node5" class="node">
<title>BB4</title>
<ellipse fill="none" stroke="black" cx="366.33" cy="-48.08" rx="122.16" ry="48.17"/>
<text text-anchor="middle" x="366.33" y="-66.88" font-family="Times New Roman,serif" font-size="14.00">[2f..5d)</text>
<text text-anchor="middle" x="366.33" y="-51.88" font-family="Times New Roman,serif" font-size="14.00">Count: 16667</text>
<text text-anchor="middle" x="366.33" y="-36.88" font-family="Times New Roman,serif" font-size="14.00">Normalized count: 16667.00</text>
<text text-anchor="middle" x="366.33" y="-21.88" font-family="Times New Roman,serif" font-size="14.00">Samples weight: 0.25</text>
</g>
<!-- BB4&#45;&gt;BB5 -->
<g id="edge6" class="edge">
<title>BB4&#45;&gt;BB5</title>
<path fill="none" stroke="black" d="M372.85,-96.19C373.07,-104.45 373.13,-113.13 373.04,-121.64"/>
<polygon fill="black" stroke="black" points="369.54,-121.83 372.85,-131.89 376.53,-121.95 369.54,-121.83"/>
</g>
<!-- BB5&#45;&gt;BB4 -->
<g id="edge7" class="edge">
<title>BB5&#45;&gt;BB4</title>
<path fill="none" stroke="black" d="M359.81,-131.89C359.59,-123.62 359.53,-114.94 359.62,-106.43"/>
<polygon fill="black" stroke="black" points="363.13,-106.26 359.81,-96.19 356.13,-106.12 363.13,-106.26"/>
</g>
<!-- BB6 -->
<g id="node7" class="node">
<title>BB6</title>
<ellipse fill="none" stroke="black" cx="610.33" cy="-48.08" rx="103.48" ry="48.17"/>
<text text-anchor="middle" x="610.33" y="-66.88" font-family="Times New Roman,serif" font-size="14.00">[66..68)</text>
<text text-anchor="middle" x="610.33" y="-51.88" font-family="Times New Roman,serif" font-size="14.00">Count: 1</text>
<text text-anchor="middle" x="610.33" y="-36.88" font-family="Times New Roman,serif" font-size="14.00">Normalized count: 1.00</text>
<text text-anchor="middle" x="610.33" y="-21.88" font-family="Times New Roman,serif" font-size="14.00">Samples weight: 0.00</text>
</g>
<!-- BB5&#45;&gt;BB6 -->
<g id="edge8" class="edge">
<title>BB5&#45;&gt;BB6</title>
<path fill="none" stroke="black" d="M437.89,-141.08C468.22,-124.89 503.6,-106.02 534.4,-89.59"/>
<polygon fill="black" stroke="black" points="536.2,-92.6 543.37,-84.8 532.9,-86.42 536.2,-92.6"/>
</g>
</g>
</svg>
