<?xml version="1.0" encoding="UTF-8" standalone="no"?>
<!DOCTYPE svg PUBLIC "-//W3C//DTD SVG 1.1//EN"
 "http://www.w3.org/Graphics/SVG/1.1/DTD/svg11.dtd">
<!-- Generated by graphviz version 2.47.0 (20210316.0004)
 -->
<!-- Title: G Pages: 1 -->
<svg width="955pt" height="897pt"
 viewBox="0.00 0.00 955.30 897.17" xmlns="http://www.w3.org/2000/svg" xmlns:xlink="http://www.w3.org/1999/xlink">
<g id="graph0" class="graph" transform="scale(1 1) rotate(0) translate(4 893.17)">
<title>G</title>
<polygon fill="white" stroke="transparent" points="-4,4 -4,-893.17 951.3,-893.17 951.3,4 -4,4"/>
<!-- BB0 -->
<g id="node1" class="node">
<title>BB0</title>
<ellipse fill="none" stroke="black" cx="368.65" cy="-841.08" rx="104.8" ry="48.17"/>
<text text-anchor="middle" x="368.65" y="-859.88" font-family="Times New Roman,serif" font-size="14.00">[0..21)</text>
<text text-anchor="middle" x="368.65" y="-844.88" font-family="Times New Roman,serif" font-size="14.00">Count: 0</text>
<text text-anchor="middle" x="368.65" y="-829.88" font-family="Times New Roman,serif" font-size="14.00">Normalized count: NaN</text>
<text text-anchor="middle" x="368.65" y="-814.88" font-family="Times New Roman,serif" font-size="14.00">Samples weight: 0.00</text>
</g>
<!-- BB1 -->
<g id="node2" class="node">
<title>BB1</title>
<ellipse fill="none" stroke="black" cx="255.65" cy="-708.92" rx="104.8" ry="48.17"/>
<text text-anchor="middle" x="255.65" y="-727.72" font-family="Times New Roman,serif" font-size="14.00">[21..37)</text>
<text text-anchor="middle" x="255.65" y="-712.72" font-family="Times New Roman,serif" font-size="14.00">Count: 0</text>
<text text-anchor="middle" x="255.65" y="-697.72" font-family="Times New Roman,serif" font-size="14.00">Normalized count: NaN</text>
<text text-anchor="middle" x="255.65" y="-682.72" font-family="Times New Roman,serif" font-size="14.00">Samples weight: 0.00</text>
</g>
<!-- BB0&#45;&gt;BB1 -->
<g id="edge2" class="edge">
<title>BB0&#45;&gt;BB1</title>
<path fill="none" stroke="black" d="M330.4,-796.01C320.82,-784.99 310.47,-773.06 300.6,-761.7"/>
<polygon fill="black" stroke="black" points="303.07,-759.2 293.87,-753.94 297.78,-763.78 303.07,-759.2"/>
</g>
<!-- BB2 -->
<g id="node3" class="node">
<title>BB2</title>
<ellipse fill="none" stroke="black" cx="482.65" cy="-708.92" rx="104.8" ry="48.17"/>
<text text-anchor="middle" x="482.65" y="-727.72" font-family="Times New Roman,serif" font-size="14.00">[37..44)</text>
<text text-anchor="middle" x="482.65" y="-712.72" font-family="Times New Roman,serif" font-size="14.00">Count: 0</text>
<text text-anchor="middle" x="482.65" y="-697.72" font-family="Times New Roman,serif" font-size="14.00">Normalized count: NaN</text>
<text text-anchor="middle" x="482.65" y="-682.72" font-family="Times New Roman,serif" font-size="14.00">Samples weight: 0.00</text>
</g>
<!-- BB0&#45;&gt;BB2 -->
<g id="edge1" class="edge">
<title>BB0&#45;&gt;BB2</title>
<path fill="none" stroke="black" d="M407.25,-796.01C416.9,-784.99 427.35,-773.06 437.3,-761.7"/>
<polygon fill="black" stroke="black" points="440.14,-763.77 444.1,-753.94 434.87,-759.16 440.14,-763.77"/>
</g>
<!-- BB1&#45;&gt;BB2 -->
<g id="edge3" class="edge">
<title>BB1&#45;&gt;BB2</title>
<path fill="none" stroke="black" d="M360.73,-708.92C363.05,-708.92 365.37,-708.92 367.69,-708.92"/>
<polygon fill="black" stroke="black" points="367.87,-712.42 377.87,-708.92 367.87,-705.42 367.87,-712.42"/>
</g>
<!-- BB9 -->
<g id="node10" class="node">
<title>BB9</title>
<ellipse fill="none" stroke="black" cx="482.65" cy="-576.75" rx="104.8" ry="48.17"/>
<text text-anchor="middle" x="482.65" y="-595.55" font-family="Times New Roman,serif" font-size="14.00">[a2..a7)</text>
<text text-anchor="middle" x="482.65" y="-580.55" font-family="Times New Roman,serif" font-size="14.00">Count: 0</text>
<text text-anchor="middle" x="482.65" y="-565.55" font-family="Times New Roman,serif" font-size="14.00">Normalized count: NaN</text>
<text text-anchor="middle" x="482.65" y="-550.55" font-family="Times New Roman,serif" font-size="14.00">Samples weight: 0.00</text>
</g>
<!-- BB2&#45;&gt;BB9 -->
<g id="edge4" class="edge">
<title>BB2&#45;&gt;BB9</title>
<path fill="none" stroke="black" d="M482.65,-660.55C482.65,-652.29 482.65,-643.6 482.65,-635.1"/>
<polygon fill="black" stroke="black" points="486.15,-634.86 482.65,-624.86 479.15,-634.86 486.15,-634.86"/>
</g>
<!-- BB3 -->
<g id="node4" class="node">
<title>BB3</title>
<ellipse fill="none" stroke="black" cx="345.65" cy="-444.58" rx="104.8" ry="48.17"/>
<text text-anchor="middle" x="345.65" y="-463.38" font-family="Times New Roman,serif" font-size="14.00">[44..58)</text>
<text text-anchor="middle" x="345.65" y="-448.38" font-family="Times New Roman,serif" font-size="14.00">Count: 0</text>
<text text-anchor="middle" x="345.65" y="-433.38" font-family="Times New Roman,serif" font-size="14.00">Normalized count: NaN</text>
<text text-anchor="middle" x="345.65" y="-418.38" font-family="Times New Roman,serif" font-size="14.00">Samples weight: 0.00</text>
</g>
<!-- BB5 -->
<g id="node6" class="node">
<title>BB5</title>
<ellipse fill="none" stroke="black" cx="340.65" cy="-312.42" rx="113.69" ry="48.17"/>
<text text-anchor="middle" x="340.65" y="-331.22" font-family="Times New Roman,serif" font-size="14.00">[71..77)</text>
<text text-anchor="middle" x="340.65" y="-316.22" font-family="Times New Roman,serif" font-size="14.00">Count: 33</text>
<text text-anchor="middle" x="340.65" y="-301.22" font-family="Times New Roman,serif" font-size="14.00">Normalized count: Infinity</text>
<text text-anchor="middle" x="340.65" y="-286.22" font-family="Times New Roman,serif" font-size="14.00">Samples weight: 0.19</text>
</g>
<!-- BB3&#45;&gt;BB5 -->
<g id="edge5" class="edge">
<title>BB3&#45;&gt;BB5</title>
<path fill="none" stroke="black" d="M343.83,-396.22C343.51,-387.95 343.18,-379.27 342.85,-370.77"/>
<polygon fill="black" stroke="black" points="346.34,-370.38 342.46,-360.52 339.35,-370.65 346.34,-370.38"/>
</g>
<!-- BB4 -->
<g id="node5" class="node">
<title>BB4</title>
<ellipse fill="none" stroke="black" cx="340.65" cy="-180.25" rx="113.69" ry="48.17"/>
<text text-anchor="middle" x="340.65" y="-199.05" font-family="Times New Roman,serif" font-size="14.00">[58..71)</text>
<text text-anchor="middle" x="340.65" y="-184.05" font-family="Times New Roman,serif" font-size="14.00">Count: 142</text>
<text text-anchor="middle" x="340.65" y="-169.05" font-family="Times New Roman,serif" font-size="14.00">Normalized count: Infinity</text>
<text text-anchor="middle" x="340.65" y="-154.05" font-family="Times New Roman,serif" font-size="14.00">Samples weight: 0.81</text>
</g>
<!-- BB4&#45;&gt;BB5 -->
<g id="edge6" class="edge">
<title>BB4&#45;&gt;BB5</title>
<path fill="none" stroke="black" d="M347.17,-228.36C347.39,-236.62 347.45,-245.3 347.36,-253.8"/>
<polygon fill="black" stroke="black" points="343.86,-253.99 347.17,-264.05 350.86,-254.12 343.86,-253.99"/>
</g>
<!-- BB5&#45;&gt;BB4 -->
<g id="edge7" class="edge">
<title>BB5&#45;&gt;BB4</title>
<path fill="none" stroke="black" d="M334.13,-264.05C333.91,-255.79 333.85,-247.1 333.94,-238.6"/>
<polygon fill="black" stroke="black" points="337.45,-238.42 334.14,-228.36 330.45,-238.29 337.45,-238.42"/>
</g>
<!-- BB6 -->
<g id="node7" class="node">
<title>BB6</title>
<ellipse fill="none" stroke="black" cx="104.65" cy="-180.25" rx="104.8" ry="48.17"/>
<text text-anchor="middle" x="104.65" y="-199.05" font-family="Times New Roman,serif" font-size="14.00">[77..7e)</text>
<text text-anchor="middle" x="104.65" y="-184.05" font-family="Times New Roman,serif" font-size="14.00">Count: 0</text>
<text text-anchor="middle" x="104.65" y="-169.05" font-family="Times New Roman,serif" font-size="14.00">Normalized count: NaN</text>
<text text-anchor="middle" x="104.65" y="-154.05" font-family="Times New Roman,serif" font-size="14.00">Samples weight: 0.00</text>
</g>
<!-- BB5&#45;&gt;BB6 -->
<g id="edge8" class="edge">
<title>BB5&#45;&gt;BB6</title>
<path fill="none" stroke="black" d="M272.39,-273.77C243.4,-257.78 209.5,-239.08 179.8,-222.7"/>
<polygon fill="black" stroke="black" points="181.17,-219.46 170.73,-217.69 177.79,-225.59 181.17,-219.46"/>
</g>
<!-- BB7 -->
<g id="node8" class="node">
<title>BB7</title>
<ellipse fill="none" stroke="black" cx="104.65" cy="-48.08" rx="104.8" ry="48.17"/>
<text text-anchor="middle" x="104.65" y="-66.88" font-family="Times New Roman,serif" font-size="14.00">[7e..9c)</text>
<text text-anchor="middle" x="104.65" y="-51.88" font-family="Times New Roman,serif" font-size="14.00">Count: 0</text>
<text text-anchor="middle" x="104.65" y="-36.88" font-family="Times New Roman,serif" font-size="14.00">Normalized count: NaN</text>
<text text-anchor="middle" x="104.65" y="-21.88" font-family="Times New Roman,serif" font-size="14.00">Samples weight: 0.00</text>
</g>
<!-- BB6&#45;&gt;BB7 -->
<g id="edge10" class="edge">
<title>BB6&#45;&gt;BB7</title>
<path fill="none" stroke="black" d="M104.65,-131.89C104.65,-123.62 104.65,-114.94 104.65,-106.43"/>
<polygon fill="black" stroke="black" points="108.15,-106.19 104.65,-96.19 101.15,-106.19 108.15,-106.19"/>
</g>
<!-- BB8 -->
<g id="node9" class="node">
<title>BB8</title>
<ellipse fill="none" stroke="black" cx="331.65" cy="-48.08" rx="104.8" ry="48.17"/>
<text text-anchor="middle" x="331.65" y="-66.88" font-family="Times New Roman,serif" font-size="14.00">[9c..a2)</text>
<text text-anchor="middle" x="331.65" y="-51.88" font-family="Times New Roman,serif" font-size="14.00">Count: 0</text>
<text text-anchor="middle" x="331.65" y="-36.88" font-family="Times New Roman,serif" font-size="14.00">Normalized count: NaN</text>
<text text-anchor="middle" x="331.65" y="-21.88" font-family="Times New Roman,serif" font-size="14.00">Samples weight: 0.00</text>
</g>
<!-- BB6&#45;&gt;BB8 -->
<g id="edge9" class="edge">
<title>BB6&#45;&gt;BB8</title>
<path fill="none" stroke="black" d="M169.09,-142.3C196.89,-126.36 229.55,-107.63 258.27,-91.16"/>
<polygon fill="black" stroke="black" points="260.11,-94.14 267.05,-86.13 256.63,-88.07 260.11,-94.14"/>
</g>
<!-- BB7&#45;&gt;BB8 -->
<g id="edge11" class="edge">
<title>BB7&#45;&gt;BB8</title>
<path fill="none" stroke="black" d="M209.73,-48.08C212.05,-48.08 214.37,-48.08 216.69,-48.08"/>
<polygon fill="black" stroke="black" points="216.87,-51.58 226.87,-48.08 216.87,-44.58 216.87,-51.58"/>
</g>
<!-- BB8&#45;&gt;BB9 -->
<g id="edge12" class="edge">
<title>BB8&#45;&gt;BB9</title>
<path fill="none" stroke="black" d="M408.67,-80.75C430.13,-93.47 451.01,-110.39 463.65,-132.17 500.82,-196.2 492.9,-413.91 486.64,-518.61"/>
<polygon fill="black" stroke="black" points="483.14,-518.48 486.02,-528.68 490.13,-518.91 483.14,-518.48"/>
</g>
<!-- BB9&#45;&gt;BB3 -->
<g id="edge13" class="edge">
<title>BB9&#45;&gt;BB3</title>
<path fill="none" stroke="black" d="M437.79,-533.13C425.14,-521.1 411.25,-507.91 398.19,-495.5"/>
<polygon fill="black" stroke="black" points="400.27,-492.65 390.61,-488.3 395.45,-497.73 400.27,-492.65"/>
</g>
<!-- BB10 -->
<g id="node11" class="node">
<title>BB10</title>
<ellipse fill="none" stroke="black" cx="615.65" cy="-444.58" rx="104.8" ry="48.17"/>
<text text-anchor="middle" x="615.65" y="-463.38" font-family="Times New Roman,serif" font-size="14.00">[a7..b6)</text>
<text text-anchor="middle" x="615.65" y="-448.38" font-family="Times New Roman,serif" font-size="14.00">Count: 0</text>
<text text-anchor="middle" x="615.65" y="-433.38" font-family="Times New Roman,serif" font-size="14.00">Normalized count: NaN</text>
<text text-anchor="middle" x="615.65" y="-418.38" font-family="Times New Roman,serif" font-size="14.00">Samples weight: 0.00</text>
</g>
<!-- BB9&#45;&gt;BB10 -->
<g id="edge14" class="edge">
<title>BB9&#45;&gt;BB10</title>
<path fill="none" stroke="black" d="M526.57,-532.77C538.71,-520.88 552,-507.88 564.51,-495.63"/>
<polygon fill="black" stroke="black" points="567.08,-498.02 571.78,-488.52 562.19,-493.01 567.08,-498.02"/>
</g>
<!-- BB11 -->
<g id="node12" class="node">
<title>BB11</title>
<ellipse fill="none" stroke="black" cx="615.65" cy="-312.42" rx="104.8" ry="48.17"/>
<text text-anchor="middle" x="615.65" y="-331.22" font-family="Times New Roman,serif" font-size="14.00">[b6..cc)</text>
<text text-anchor="middle" x="615.65" y="-316.22" font-family="Times New Roman,serif" font-size="14.00">Count: 0</text>
<text text-anchor="middle" x="615.65" y="-301.22" font-family="Times New Roman,serif" font-size="14.00">Normalized count: NaN</text>
<text text-anchor="middle" x="615.65" y="-286.22" font-family="Times New Roman,serif" font-size="14.00">Samples weight: 0.00</text>
</g>
<!-- BB10&#45;&gt;BB11 -->
<g id="edge16" class="edge">
<title>BB10&#45;&gt;BB11</title>
<path fill="none" stroke="black" d="M615.65,-396.22C615.65,-387.95 615.65,-379.27 615.65,-370.77"/>
<polygon fill="black" stroke="black" points="619.15,-370.52 615.65,-360.52 612.15,-370.52 619.15,-370.52"/>
</g>
<!-- BB12 -->
<g id="node13" class="node">
<title>BB12</title>
<ellipse fill="none" stroke="black" cx="842.65" cy="-312.42" rx="104.8" ry="48.17"/>
<text text-anchor="middle" x="842.65" y="-331.22" font-family="Times New Roman,serif" font-size="14.00">[cc..ce)</text>
<text text-anchor="middle" x="842.65" y="-316.22" font-family="Times New Roman,serif" font-size="14.00">Count: 0</text>
<text text-anchor="middle" x="842.65" y="-301.22" font-family="Times New Roman,serif" font-size="14.00">Normalized count: NaN</text>
<text text-anchor="middle" x="842.65" y="-286.22" font-family="Times New Roman,serif" font-size="14.00">Samples weight: 0.00</text>
</g>
<!-- BB10&#45;&gt;BB12 -->
<g id="edge15" class="edge">
<title>BB10&#45;&gt;BB12</title>
<path fill="none" stroke="black" d="M680.09,-406.63C707.89,-390.69 740.55,-371.97 769.27,-355.49"/>
<polygon fill="black" stroke="black" points="771.11,-358.47 778.05,-350.46 767.63,-352.4 771.11,-358.47"/>
</g>
<!-- BB11&#45;&gt;BB12 -->
<g id="edge17" class="edge">
<title>BB11&#45;&gt;BB12</title>
<path fill="none" stroke="black" d="M720.73,-312.42C723.05,-312.42 725.37,-312.42 727.69,-312.42"/>
<polygon fill="black" stroke="black" points="727.87,-315.92 737.87,-312.42 727.87,-308.92 727.87,-315.92"/>
</g>
</g>
</svg>
