<?xml version="1.0" encoding="UTF-8" standalone="no"?>
<!DOCTYPE svg PUBLIC "-//W3C//DTD SVG 1.1//EN"
 "http://www.w3.org/Graphics/SVG/1.1/DTD/svg11.dtd">
<!-- Generated by graphviz version 2.47.0 (20210316.0004)
 -->
<!-- Title: G Pages: 1 -->
<svg width="1411pt" height="1192pt"
 viewBox="0.00 0.00 1410.67 1192.49" xmlns="http://www.w3.org/2000/svg" xmlns:xlink="http://www.w3.org/1999/xlink">
<g id="graph0" class="graph" transform="scale(1 1) rotate(0) translate(4 1188.49)">
<title>G</title>
<polygon fill="white" stroke="transparent" points="-4,4 -4,-1188.49 1406.67,-1188.49 1406.67,4 -4,4"/>
<!-- BB0 -->
<g id="node1" class="node">
<title>BB0</title>
<ellipse fill="none" stroke="black" cx="131.31" cy="-1147.01" rx="105.22" ry="37.45"/>
<text text-anchor="middle" x="131.31" y="-1158.31" font-family="Times New Roman,serif" font-size="14.00">[0..1f)</text>
<text text-anchor="middle" x="131.31" y="-1143.31" font-family="Times New Roman,serif" font-size="14.00">Normalized Count: 1.00</text>
<text text-anchor="middle" x="131.31" y="-1128.31" font-family="Times New Roman,serif" font-size="14.00">Samples weight: 0.02</text>
</g>
<!-- BB1 -->
<g id="node2" class="node">
<title>BB1</title>
<ellipse fill="none" stroke="black" cx="131.31" cy="-1036.06" rx="105.22" ry="37.45"/>
<text text-anchor="middle" x="131.31" y="-1047.36" font-family="Times New Roman,serif" font-size="14.00">[1f..48)</text>
<text text-anchor="middle" x="131.31" y="-1032.36" font-family="Times New Roman,serif" font-size="14.00">Normalized Count: 1.00</text>
<text text-anchor="middle" x="131.31" y="-1017.36" font-family="Times New Roman,serif" font-size="14.00">Samples weight: 0.02</text>
</g>
<!-- BB0&#45;&gt;BB1 -->
<g id="edge1" class="edge">
<title>BB0&#45;&gt;BB1</title>
<path fill="none" stroke="black" d="M131.31,-1109.43C131.31,-1101.25 131.31,-1092.47 131.31,-1083.95"/>
<polygon fill="black" stroke="black" points="134.81,-1083.73 131.31,-1073.73 127.81,-1083.73 134.81,-1083.73"/>
</g>
<!-- BB1&#45;&gt;BB1 -->
<g id="edge2" class="edge">
<title>BB1&#45;&gt;BB1</title>
<path fill="none" stroke="black" d="M220.3,-1056.15C240.17,-1054.3 254.67,-1047.6 254.67,-1036.06 254.67,-1026.58 244.91,-1020.37 230.43,-1017.43"/>
<polygon fill="black" stroke="black" points="230.7,-1013.93 220.3,-1015.96 229.69,-1020.86 230.7,-1013.93"/>
</g>
<!-- BB2 -->
<g id="node3" class="node">
<title>BB2</title>
<ellipse fill="none" stroke="black" cx="131.31" cy="-925.1" rx="105.22" ry="37.45"/>
<text text-anchor="middle" x="131.31" y="-936.4" font-family="Times New Roman,serif" font-size="14.00">[48..6b)</text>
<text text-anchor="middle" x="131.31" y="-921.4" font-family="Times New Roman,serif" font-size="14.00">Normalized Count: 1.00</text>
<text text-anchor="middle" x="131.31" y="-906.4" font-family="Times New Roman,serif" font-size="14.00">Samples weight: 0.02</text>
</g>
<!-- BB1&#45;&gt;BB2 -->
<g id="edge3" class="edge">
<title>BB1&#45;&gt;BB2</title>
<path fill="none" stroke="black" d="M131.31,-998.47C131.31,-990.3 131.31,-981.52 131.31,-972.99"/>
<polygon fill="black" stroke="black" points="134.81,-972.78 131.31,-962.78 127.81,-972.78 134.81,-972.78"/>
</g>
<!-- BB4 -->
<g id="node5" class="node">
<title>BB4</title>
<ellipse fill="none" stroke="black" cx="131.31" cy="-814.15" rx="105.22" ry="37.45"/>
<text text-anchor="middle" x="131.31" y="-825.45" font-family="Times New Roman,serif" font-size="14.00">[8c..94)</text>
<text text-anchor="middle" x="131.31" y="-810.45" font-family="Times New Roman,serif" font-size="14.00">Normalized Count: 1.00</text>
<text text-anchor="middle" x="131.31" y="-795.45" font-family="Times New Roman,serif" font-size="14.00">Samples weight: 0.02</text>
</g>
<!-- BB2&#45;&gt;BB4 -->
<g id="edge4" class="edge">
<title>BB2&#45;&gt;BB4</title>
<path fill="none" stroke="black" d="M131.31,-887.52C131.31,-879.35 131.31,-870.57 131.31,-862.04"/>
<polygon fill="black" stroke="black" points="134.81,-861.82 131.31,-851.82 127.81,-861.82 134.81,-861.82"/>
</g>
<!-- BB3 -->
<g id="node4" class="node">
<title>BB3</title>
<ellipse fill="none" stroke="black" cx="131.31" cy="-703.2" rx="105.22" ry="37.45"/>
<text text-anchor="middle" x="131.31" y="-714.5" font-family="Times New Roman,serif" font-size="14.00">[6b..8c)</text>
<text text-anchor="middle" x="131.31" y="-699.5" font-family="Times New Roman,serif" font-size="14.00">Normalized Count: 0.00</text>
<text text-anchor="middle" x="131.31" y="-684.5" font-family="Times New Roman,serif" font-size="14.00">Samples weight: 0.00</text>
</g>
<!-- BB3&#45;&gt;BB4 -->
<g id="edge5" class="edge">
<title>BB3&#45;&gt;BB4</title>
<path fill="none" stroke="black" d="M137.73,-740.87C138.04,-749.05 138.13,-757.83 138,-766.35"/>
<polygon fill="black" stroke="black" points="134.49,-766.48 137.72,-776.57 141.49,-766.66 134.49,-766.48"/>
</g>
<!-- BB4&#45;&gt;BB3 -->
<g id="edge6" class="edge">
<title>BB4&#45;&gt;BB3</title>
<path fill="none" stroke="black" d="M124.89,-776.57C124.58,-768.39 124.48,-759.61 124.62,-751.09"/>
<polygon fill="black" stroke="black" points="128.12,-750.96 124.89,-740.87 121.12,-750.77 128.12,-750.96"/>
</g>
<!-- BB5 -->
<g id="node6" class="node">
<title>BB5</title>
<ellipse fill="none" stroke="black" cx="360.31" cy="-703.2" rx="105.22" ry="37.45"/>
<text text-anchor="middle" x="360.31" y="-714.5" font-family="Times New Roman,serif" font-size="14.00">[94..ab)</text>
<text text-anchor="middle" x="360.31" y="-699.5" font-family="Times New Roman,serif" font-size="14.00">Normalized Count: 1.00</text>
<text text-anchor="middle" x="360.31" y="-684.5" font-family="Times New Roman,serif" font-size="14.00">Samples weight: 0.02</text>
</g>
<!-- BB4&#45;&gt;BB5 -->
<g id="edge7" class="edge">
<title>BB4&#45;&gt;BB5</title>
<path fill="none" stroke="black" d="M193.28,-783.67C222.81,-769.62 258.29,-752.73 288.94,-738.15"/>
<polygon fill="black" stroke="black" points="290.76,-741.16 298.29,-733.7 287.75,-734.84 290.76,-741.16"/>
</g>
<!-- BB6 -->
<g id="node7" class="node">
<title>BB6</title>
<ellipse fill="none" stroke="black" cx="245.31" cy="-592.24" rx="105.22" ry="37.45"/>
<text text-anchor="middle" x="245.31" y="-603.54" font-family="Times New Roman,serif" font-size="14.00">[ab..c0)</text>
<text text-anchor="middle" x="245.31" y="-588.54" font-family="Times New Roman,serif" font-size="14.00">Normalized Count: 1.00</text>
<text text-anchor="middle" x="245.31" y="-573.54" font-family="Times New Roman,serif" font-size="14.00">Samples weight: 0.02</text>
</g>
<!-- BB5&#45;&gt;BB6 -->
<g id="edge9" class="edge">
<title>BB5&#45;&gt;BB6</title>
<path fill="none" stroke="black" d="M323.92,-667.72C312.8,-657.19 300.46,-645.49 288.91,-634.55"/>
<polygon fill="black" stroke="black" points="291.13,-631.83 281.46,-627.49 286.31,-636.91 291.13,-631.83"/>
</g>
<!-- BB10 -->
<g id="node11" class="node">
<title>BB10</title>
<ellipse fill="none" stroke="black" cx="475.31" cy="-592.24" rx="105.22" ry="37.45"/>
<text text-anchor="middle" x="475.31" y="-603.54" font-family="Times New Roman,serif" font-size="14.00">[ec..10f)</text>
<text text-anchor="middle" x="475.31" y="-588.54" font-family="Times New Roman,serif" font-size="14.00">Normalized Count: 0.00</text>
<text text-anchor="middle" x="475.31" y="-573.54" font-family="Times New Roman,serif" font-size="14.00">Samples weight: 0.00</text>
</g>
<!-- BB5&#45;&gt;BB10 -->
<g id="edge8" class="edge">
<title>BB5&#45;&gt;BB10</title>
<path fill="none" stroke="black" d="M396.7,-667.72C407.82,-657.19 420.16,-645.49 431.71,-634.55"/>
<polygon fill="black" stroke="black" points="434.31,-636.91 439.16,-627.49 429.49,-631.83 434.31,-636.91"/>
</g>
<!-- BB8 -->
<g id="node9" class="node">
<title>BB8</title>
<ellipse fill="none" stroke="black" cx="243.31" cy="-481.29" rx="110.12" ry="37.45"/>
<text text-anchor="middle" x="243.31" y="-492.59" font-family="Times New Roman,serif" font-size="14.00">[cf..d6)</text>
<text text-anchor="middle" x="243.31" y="-477.59" font-family="Times New Roman,serif" font-size="14.00">Normalized Count: 22.00</text>
<text text-anchor="middle" x="243.31" y="-462.59" font-family="Times New Roman,serif" font-size="14.00">Samples weight: 0.44</text>
</g>
<!-- BB6&#45;&gt;BB8 -->
<g id="edge10" class="edge">
<title>BB6&#45;&gt;BB8</title>
<path fill="none" stroke="black" d="M244.64,-554.66C244.49,-546.49 244.33,-537.71 244.17,-529.18"/>
<polygon fill="black" stroke="black" points="247.66,-528.9 243.98,-518.96 240.67,-529.02 247.66,-528.9"/>
</g>
<!-- BB7 -->
<g id="node8" class="node">
<title>BB7</title>
<ellipse fill="none" stroke="black" cx="110.31" cy="-370.34" rx="110.12" ry="37.45"/>
<text text-anchor="middle" x="110.31" y="-381.64" font-family="Times New Roman,serif" font-size="14.00">[c0..cf)</text>
<text text-anchor="middle" x="110.31" y="-366.64" font-family="Times New Roman,serif" font-size="14.00">Normalized Count: 21.00</text>
<text text-anchor="middle" x="110.31" y="-351.64" font-family="Times New Roman,serif" font-size="14.00">Samples weight: 0.42</text>
</g>
<!-- BB7&#45;&gt;BB8 -->
<g id="edge11" class="edge">
<title>BB7&#45;&gt;BB8</title>
<path fill="none" stroke="black" d="M157.02,-404.47C170.9,-415.41 186.02,-427.72 199.69,-439.18"/>
<polygon fill="black" stroke="black" points="197.66,-442.04 207.55,-445.82 202.17,-436.69 197.66,-442.04"/>
</g>
<!-- BB8&#45;&gt;BB7 -->
<g id="edge12" class="edge">
<title>BB8&#45;&gt;BB7</title>
<path fill="none" stroke="black" d="M196.78,-447.3C182.97,-436.41 167.9,-424.16 154.26,-412.72"/>
<polygon fill="black" stroke="black" points="156.3,-409.87 146.4,-406.1 151.79,-415.22 156.3,-409.87"/>
</g>
<!-- BB9 -->
<g id="node10" class="node">
<title>BB9</title>
<ellipse fill="none" stroke="black" cx="344.31" cy="-370.34" rx="105.22" ry="37.45"/>
<text text-anchor="middle" x="344.31" y="-381.64" font-family="Times New Roman,serif" font-size="14.00">[d6..ec)</text>
<text text-anchor="middle" x="344.31" y="-366.64" font-family="Times New Roman,serif" font-size="14.00">Normalized Count: 1.00</text>
<text text-anchor="middle" x="344.31" y="-351.64" font-family="Times New Roman,serif" font-size="14.00">Samples weight: 0.02</text>
</g>
<!-- BB8&#45;&gt;BB9 -->
<g id="edge13" class="edge">
<title>BB8&#45;&gt;BB9</title>
<path fill="none" stroke="black" d="M275.82,-445.22C285.1,-435.21 295.32,-424.19 304.96,-413.79"/>
<polygon fill="black" stroke="black" points="307.63,-416.06 311.86,-406.34 302.49,-411.3 307.63,-416.06"/>
</g>
<!-- BB15 -->
<g id="node16" class="node">
<title>BB15</title>
<ellipse fill="none" stroke="black" cx="543.31" cy="-481.29" rx="105.22" ry="37.45"/>
<text text-anchor="middle" x="543.31" y="-492.59" font-family="Times New Roman,serif" font-size="14.00">[150..158)</text>
<text text-anchor="middle" x="543.31" y="-477.59" font-family="Times New Roman,serif" font-size="14.00">Normalized Count: 0.00</text>
<text text-anchor="middle" x="543.31" y="-462.59" font-family="Times New Roman,serif" font-size="14.00">Samples weight: 0.00</text>
</g>
<!-- BB10&#45;&gt;BB15 -->
<g id="edge14" class="edge">
<title>BB10&#45;&gt;BB15</title>
<path fill="none" stroke="black" d="M497.57,-555.57C503.33,-546.35 509.59,-536.31 515.59,-526.71"/>
<polygon fill="black" stroke="black" points="518.67,-528.38 520.99,-518.05 512.73,-524.68 518.67,-528.38"/>
</g>
<!-- BB11 -->
<g id="node12" class="node">
<title>BB11</title>
<ellipse fill="none" stroke="black" cx="610.31" cy="-370.34" rx="105.22" ry="37.45"/>
<text text-anchor="middle" x="610.31" y="-381.64" font-family="Times New Roman,serif" font-size="14.00">[10f..132)</text>
<text text-anchor="middle" x="610.31" y="-366.64" font-family="Times New Roman,serif" font-size="14.00">Normalized Count: 0.00</text>
<text text-anchor="middle" x="610.31" y="-351.64" font-family="Times New Roman,serif" font-size="14.00">Samples weight: 0.00</text>
</g>
<!-- BB12 -->
<g id="node13" class="node">
<title>BB12</title>
<ellipse fill="none" stroke="black" cx="610.31" cy="-259.38" rx="105.22" ry="37.45"/>
<text text-anchor="middle" x="610.31" y="-270.68" font-family="Times New Roman,serif" font-size="14.00">[132..136)</text>
<text text-anchor="middle" x="610.31" y="-255.68" font-family="Times New Roman,serif" font-size="14.00">Normalized Count: 0.00</text>
<text text-anchor="middle" x="610.31" y="-240.68" font-family="Times New Roman,serif" font-size="14.00">Samples weight: 0.00</text>
</g>
<!-- BB11&#45;&gt;BB12 -->
<g id="edge16" class="edge">
<title>BB11&#45;&gt;BB12</title>
<path fill="none" stroke="black" d="M610.31,-332.75C610.31,-324.58 610.31,-315.8 610.31,-307.27"/>
<polygon fill="black" stroke="black" points="613.81,-307.06 610.31,-297.06 606.81,-307.06 613.81,-307.06"/>
</g>
<!-- BB13 -->
<g id="node14" class="node">
<title>BB13</title>
<ellipse fill="none" stroke="black" cx="839.31" cy="-259.38" rx="105.22" ry="37.45"/>
<text text-anchor="middle" x="839.31" y="-270.68" font-family="Times New Roman,serif" font-size="14.00">[136..140)</text>
<text text-anchor="middle" x="839.31" y="-255.68" font-family="Times New Roman,serif" font-size="14.00">Normalized Count: 0.00</text>
<text text-anchor="middle" x="839.31" y="-240.68" font-family="Times New Roman,serif" font-size="14.00">Samples weight: 0.00</text>
</g>
<!-- BB11&#45;&gt;BB13 -->
<g id="edge15" class="edge">
<title>BB11&#45;&gt;BB13</title>
<path fill="none" stroke="black" d="M672.28,-339.85C701.81,-325.8 737.29,-308.92 767.94,-294.34"/>
<polygon fill="black" stroke="black" points="769.76,-297.35 777.29,-289.89 766.75,-291.03 769.76,-297.35"/>
</g>
<!-- BB14 -->
<g id="node15" class="node">
<title>BB14</title>
<ellipse fill="none" stroke="black" cx="610.31" cy="-148.43" rx="105.22" ry="37.45"/>
<text text-anchor="middle" x="610.31" y="-159.73" font-family="Times New Roman,serif" font-size="14.00">[140..150)</text>
<text text-anchor="middle" x="610.31" y="-144.73" font-family="Times New Roman,serif" font-size="14.00">Normalized Count: 0.00</text>
<text text-anchor="middle" x="610.31" y="-129.73" font-family="Times New Roman,serif" font-size="14.00">Samples weight: 0.00</text>
</g>
<!-- BB12&#45;&gt;BB14 -->
<g id="edge17" class="edge">
<title>BB12&#45;&gt;BB14</title>
<path fill="none" stroke="black" d="M610.31,-221.8C610.31,-213.63 610.31,-204.85 610.31,-196.32"/>
<polygon fill="black" stroke="black" points="613.81,-196.1 610.31,-186.1 606.81,-196.1 613.81,-196.1"/>
</g>
<!-- BB13&#45;&gt;BB14 -->
<g id="edge18" class="edge">
<title>BB13&#45;&gt;BB14</title>
<path fill="none" stroke="black" d="M777.34,-228.9C747.81,-214.85 712.33,-197.97 681.67,-183.38"/>
<polygon fill="black" stroke="black" points="682.86,-180.07 672.33,-178.94 679.86,-186.39 682.86,-180.07"/>
</g>
<!-- BB14&#45;&gt;BB15 -->
<g id="edge19" class="edge">
<title>BB14&#45;&gt;BB15</title>
<path fill="none" stroke="black" d="M542.68,-177.27C524.34,-188.32 506.7,-202.99 496.31,-221.91 456.53,-294.33 472.87,-328.58 496.31,-407.81 499.21,-417.63 503.91,-427.36 509.23,-436.36"/>
<polygon fill="black" stroke="black" points="506.44,-438.49 514.73,-445.09 512.36,-434.76 506.44,-438.49"/>
</g>
<!-- BB15&#45;&gt;BB11 -->
<g id="edge20" class="edge">
<title>BB15&#45;&gt;BB11</title>
<path fill="none" stroke="black" d="M565.25,-444.61C570.92,-435.4 577.09,-425.36 582.99,-415.76"/>
<polygon fill="black" stroke="black" points="586.06,-417.44 588.32,-407.09 580.1,-413.78 586.06,-417.44"/>
</g>
<!-- BB16 -->
<g id="node17" class="node">
<title>BB16</title>
<ellipse fill="none" stroke="black" cx="1068.31" cy="-370.34" rx="105.22" ry="37.45"/>
<text text-anchor="middle" x="1068.31" y="-381.64" font-family="Times New Roman,serif" font-size="14.00">[158..167)</text>
<text text-anchor="middle" x="1068.31" y="-366.64" font-family="Times New Roman,serif" font-size="14.00">Normalized Count: 0.00</text>
<text text-anchor="middle" x="1068.31" y="-351.64" font-family="Times New Roman,serif" font-size="14.00">Samples weight: 0.00</text>
</g>
<!-- BB15&#45;&gt;BB16 -->
<g id="edge21" class="edge">
<title>BB15&#45;&gt;BB16</title>
<path fill="none" stroke="black" d="M633.26,-461.62C726.37,-442.3 871.47,-412.19 968.17,-392.12"/>
<polygon fill="black" stroke="black" points="969.17,-395.49 978.25,-390.03 967.75,-388.63 969.17,-395.49"/>
</g>
<!-- BB17 -->
<g id="node18" class="node">
<title>BB17</title>
<ellipse fill="none" stroke="black" cx="1068.31" cy="-259.38" rx="105.22" ry="37.45"/>
<text text-anchor="middle" x="1068.31" y="-270.68" font-family="Times New Roman,serif" font-size="14.00">[167..1b8)</text>
<text text-anchor="middle" x="1068.31" y="-255.68" font-family="Times New Roman,serif" font-size="14.00">Normalized Count: 0.00</text>
<text text-anchor="middle" x="1068.31" y="-240.68" font-family="Times New Roman,serif" font-size="14.00">Samples weight: 0.00</text>
</g>
<!-- BB16&#45;&gt;BB17 -->
<g id="edge23" class="edge">
<title>BB16&#45;&gt;BB17</title>
<path fill="none" stroke="black" d="M1068.31,-332.75C1068.31,-324.58 1068.31,-315.8 1068.31,-307.27"/>
<polygon fill="black" stroke="black" points="1071.81,-307.06 1068.31,-297.06 1064.81,-307.06 1071.81,-307.06"/>
</g>
<!-- BB20 -->
<g id="node21" class="node">
<title>BB20</title>
<ellipse fill="none" stroke="black" cx="1297.31" cy="-259.38" rx="105.22" ry="37.45"/>
<text text-anchor="middle" x="1297.31" y="-270.68" font-family="Times New Roman,serif" font-size="14.00">[1ce..1cf)</text>
<text text-anchor="middle" x="1297.31" y="-255.68" font-family="Times New Roman,serif" font-size="14.00">Normalized Count: 0.00</text>
<text text-anchor="middle" x="1297.31" y="-240.68" font-family="Times New Roman,serif" font-size="14.00">Samples weight: 0.00</text>
</g>
<!-- BB16&#45;&gt;BB20 -->
<g id="edge22" class="edge">
<title>BB16&#45;&gt;BB20</title>
<path fill="none" stroke="black" d="M1130.28,-339.85C1159.81,-325.8 1195.29,-308.92 1225.94,-294.34"/>
<polygon fill="black" stroke="black" points="1227.76,-297.35 1235.29,-289.89 1224.75,-291.03 1227.76,-297.35"/>
</g>
<!-- BB19 -->
<g id="node20" class="node">
<title>BB19</title>
<ellipse fill="none" stroke="black" cx="1182.31" cy="-148.43" rx="105.22" ry="37.45"/>
<text text-anchor="middle" x="1182.31" y="-159.73" font-family="Times New Roman,serif" font-size="14.00">[1c8..1ce)</text>
<text text-anchor="middle" x="1182.31" y="-144.73" font-family="Times New Roman,serif" font-size="14.00">Normalized Count: 0.00</text>
<text text-anchor="middle" x="1182.31" y="-129.73" font-family="Times New Roman,serif" font-size="14.00">Samples weight: 0.00</text>
</g>
<!-- BB17&#45;&gt;BB19 -->
<g id="edge24" class="edge">
<title>BB17&#45;&gt;BB19</title>
<path fill="none" stroke="black" d="M1104.38,-223.91C1115.4,-213.37 1127.64,-201.68 1139.09,-190.74"/>
<polygon fill="black" stroke="black" points="1141.66,-193.12 1146.47,-183.68 1136.83,-188.06 1141.66,-193.12"/>
</g>
<!-- BB18 -->
<g id="node19" class="node">
<title>BB18</title>
<ellipse fill="none" stroke="black" cx="1182.31" cy="-37.48" rx="105.22" ry="37.45"/>
<text text-anchor="middle" x="1182.31" y="-48.78" font-family="Times New Roman,serif" font-size="14.00">[1b8..1c8)</text>
<text text-anchor="middle" x="1182.31" y="-33.78" font-family="Times New Roman,serif" font-size="14.00">Normalized Count: 0.00</text>
<text text-anchor="middle" x="1182.31" y="-18.78" font-family="Times New Roman,serif" font-size="14.00">Samples weight: 0.00</text>
</g>
<!-- BB18&#45;&gt;BB19 -->
<g id="edge25" class="edge">
<title>BB18&#45;&gt;BB19</title>
<path fill="none" stroke="black" d="M1188.73,-75.15C1189.04,-83.33 1189.13,-92.11 1189,-100.63"/>
<polygon fill="black" stroke="black" points="1185.49,-100.76 1188.72,-110.85 1192.49,-100.94 1185.49,-100.76"/>
</g>
<!-- BB19&#45;&gt;BB18 -->
<g id="edge26" class="edge">
<title>BB19&#45;&gt;BB18</title>
<path fill="none" stroke="black" d="M1175.89,-110.85C1175.58,-102.67 1175.48,-93.89 1175.62,-85.37"/>
<polygon fill="black" stroke="black" points="1179.12,-85.24 1175.89,-75.15 1172.12,-85.05 1179.12,-85.24"/>
</g>
<!-- BB19&#45;&gt;BB20 -->
<g id="edge27" class="edge">
<title>BB19&#45;&gt;BB20</title>
<path fill="none" stroke="black" d="M1218.46,-183.68C1229.56,-194.2 1241.9,-205.89 1253.46,-216.84"/>
<polygon fill="black" stroke="black" points="1251.26,-219.57 1260.92,-223.91 1256.07,-214.49 1251.26,-219.57"/>
</g>
</g>
</svg>
