<?xml version="1.0" encoding="UTF-8" standalone="no"?>
<!DOCTYPE svg PUBLIC "-//W3C//DTD SVG 1.1//EN"
 "http://www.w3.org/Graphics/SVG/1.1/DTD/svg11.dtd">
<!-- Generated by graphviz version 2.47.0 (20210316.0004)
 -->
<!-- Title: G Pages: 1 -->
<svg width="566pt" height="527pt"
 viewBox="0.00 0.00 566.26 526.77" xmlns="http://www.w3.org/2000/svg" xmlns:xlink="http://www.w3.org/1999/xlink">
<g id="graph0" class="graph" transform="scale(1 1) rotate(0) translate(4 522.77)">
<title>G</title>
<polygon fill="white" stroke="transparent" points="-4,4 -4,-522.77 562.26,-522.77 562.26,4 -4,4"/>
<!-- BB0 -->
<g id="node1" class="node">
<title>BB0</title>
<ellipse fill="none" stroke="black" cx="170.05" cy="-481.29" rx="105.22" ry="37.45"/>
<text text-anchor="middle" x="170.05" y="-492.59" font-family="Times New Roman,serif" font-size="14.00">[0..11)</text>
<text text-anchor="middle" x="170.05" y="-477.59" font-family="Times New Roman,serif" font-size="14.00">Normalized Count: 1.00</text>
<text text-anchor="middle" x="170.05" y="-462.59" font-family="Times New Roman,serif" font-size="14.00">Samples weight: 0.00</text>
</g>
<!-- BB5 -->
<g id="node6" class="node">
<title>BB5</title>
<ellipse fill="none" stroke="black" cx="170.05" cy="-370.34" rx="129.3" ry="37.45"/>
<text text-anchor="middle" x="170.05" y="-381.64" font-family="Times New Roman,serif" font-size="14.00">[56..5a)</text>
<text text-anchor="middle" x="170.05" y="-366.64" font-family="Times New Roman,serif" font-size="14.00">Normalized Count: 152174.07</text>
<text text-anchor="middle" x="170.05" y="-351.64" font-family="Times New Roman,serif" font-size="14.00">Samples weight: 0.25</text>
</g>
<!-- BB0&#45;&gt;BB5 -->
<g id="edge1" class="edge">
<title>BB0&#45;&gt;BB5</title>
<path fill="none" stroke="black" d="M170.05,-443.71C170.05,-435.53 170.05,-426.75 170.05,-418.23"/>
<polygon fill="black" stroke="black" points="173.55,-418.01 170.05,-408.01 166.55,-418.01 173.55,-418.01"/>
</g>
<!-- BB1 -->
<g id="node2" class="node">
<title>BB1</title>
<ellipse fill="none" stroke="black" cx="170.05" cy="-259.38" rx="129.3" ry="37.45"/>
<text text-anchor="middle" x="170.05" y="-270.68" font-family="Times New Roman,serif" font-size="14.00">[11..30)</text>
<text text-anchor="middle" x="170.05" y="-255.68" font-family="Times New Roman,serif" font-size="14.00">Normalized Count: 152173.07</text>
<text text-anchor="middle" x="170.05" y="-240.68" font-family="Times New Roman,serif" font-size="14.00">Samples weight: 0.25</text>
</g>
<!-- BB2 -->
<g id="node3" class="node">
<title>BB2</title>
<ellipse fill="none" stroke="black" cx="170.05" cy="-148.43" rx="129.3" ry="37.45"/>
<text text-anchor="middle" x="170.05" y="-159.73" font-family="Times New Roman,serif" font-size="14.00">[30..40)</text>
<text text-anchor="middle" x="170.05" y="-144.73" font-family="Times New Roman,serif" font-size="14.00">Normalized Count: 146032.96</text>
<text text-anchor="middle" x="170.05" y="-129.73" font-family="Times New Roman,serif" font-size="14.00">Samples weight: 0.24</text>
</g>
<!-- BB1&#45;&gt;BB2 -->
<g id="edge3" class="edge">
<title>BB1&#45;&gt;BB2</title>
<path fill="none" stroke="black" d="M170.05,-221.8C170.05,-213.63 170.05,-204.85 170.05,-196.32"/>
<polygon fill="black" stroke="black" points="173.55,-196.1 170.05,-186.1 166.55,-196.1 173.55,-196.1"/>
</g>
<!-- BB3 -->
<g id="node4" class="node">
<title>BB3</title>
<ellipse fill="none" stroke="black" cx="438.05" cy="-148.43" rx="120.42" ry="37.45"/>
<text text-anchor="middle" x="438.05" y="-159.73" font-family="Times New Roman,serif" font-size="14.00">[40..52)</text>
<text text-anchor="middle" x="438.05" y="-144.73" font-family="Times New Roman,serif" font-size="14.00">Normalized Count: 6140.11</text>
<text text-anchor="middle" x="438.05" y="-129.73" font-family="Times New Roman,serif" font-size="14.00">Samples weight: 0.01</text>
</g>
<!-- BB1&#45;&gt;BB3 -->
<g id="edge2" class="edge">
<title>BB1&#45;&gt;BB3</title>
<path fill="none" stroke="black" d="M243.64,-228.47C278.63,-214.24 320.58,-197.19 356.53,-182.57"/>
<polygon fill="black" stroke="black" points="358.07,-185.72 366.02,-178.71 355.44,-179.24 358.07,-185.72"/>
</g>
<!-- BB4 -->
<g id="node5" class="node">
<title>BB4</title>
<ellipse fill="none" stroke="black" cx="170.05" cy="-37.48" rx="129.3" ry="37.45"/>
<text text-anchor="middle" x="170.05" y="-48.78" font-family="Times New Roman,serif" font-size="14.00">[52..56)</text>
<text text-anchor="middle" x="170.05" y="-33.78" font-family="Times New Roman,serif" font-size="14.00">Normalized Count: 152173.07</text>
<text text-anchor="middle" x="170.05" y="-18.78" font-family="Times New Roman,serif" font-size="14.00">Samples weight: 0.25</text>
</g>
<!-- BB2&#45;&gt;BB4 -->
<g id="edge4" class="edge">
<title>BB2&#45;&gt;BB4</title>
<path fill="none" stroke="black" d="M170.05,-110.85C170.05,-102.67 170.05,-93.89 170.05,-85.37"/>
<polygon fill="black" stroke="black" points="173.55,-85.15 170.05,-75.15 166.55,-85.15 173.55,-85.15"/>
</g>
<!-- BB3&#45;&gt;BB4 -->
<g id="edge5" class="edge">
<title>BB3&#45;&gt;BB4</title>
<path fill="none" stroke="black" d="M366.23,-118.23C331.5,-104.11 289.62,-87.08 253.48,-72.39"/>
<polygon fill="black" stroke="black" points="254.52,-69.04 243.94,-68.51 251.88,-75.52 254.52,-69.04"/>
</g>
<!-- BB4&#45;&gt;BB5 -->
<g id="edge6" class="edge">
<title>BB4&#45;&gt;BB5</title>
<path fill="none" stroke="black" d="M84.23,-65.56C63.61,-76.32 44.09,-91.04 32.05,-110.95 -10.68,-181.67 -10.68,-226.14 32.05,-296.86 42.3,-313.82 57.98,-327.01 75.14,-337.2"/>
<polygon fill="black" stroke="black" points="73.79,-340.45 84.23,-342.25 77.2,-334.33 73.79,-340.45"/>
</g>
<!-- BB5&#45;&gt;BB1 -->
<g id="edge7" class="edge">
<title>BB5&#45;&gt;BB1</title>
<path fill="none" stroke="black" d="M170.05,-332.75C170.05,-324.58 170.05,-315.8 170.05,-307.27"/>
<polygon fill="black" stroke="black" points="173.55,-307.06 170.05,-297.06 166.55,-307.06 173.55,-307.06"/>
</g>
<!-- BB6 -->
<g id="node7" class="node">
<title>BB6</title>
<ellipse fill="none" stroke="black" cx="423.05" cy="-259.38" rx="105.22" ry="37.45"/>
<text text-anchor="middle" x="423.05" y="-270.68" font-family="Times New Roman,serif" font-size="14.00">[5a..5b)</text>
<text text-anchor="middle" x="423.05" y="-255.68" font-family="Times New Roman,serif" font-size="14.00">Normalized Count: 1.00</text>
<text text-anchor="middle" x="423.05" y="-240.68" font-family="Times New Roman,serif" font-size="14.00">Samples weight: 0.00</text>
</g>
<!-- BB5&#45;&gt;BB6 -->
<g id="edge8" class="edge">
<title>BB5&#45;&gt;BB6</title>
<path fill="none" stroke="black" d="M240.86,-338.84C274.13,-324.51 313.83,-307.42 347.66,-292.85"/>
<polygon fill="black" stroke="black" points="349.23,-295.98 357.03,-288.81 346.47,-289.55 349.23,-295.98"/>
</g>
</g>
</svg>
