<?xml version="1.0" encoding="UTF-8" standalone="no"?>
<!DOCTYPE svg PUBLIC "-//W3C//DTD SVG 1.1//EN"
 "http://www.w3.org/Graphics/SVG/1.1/DTD/svg11.dtd">
<!-- Generated by graphviz version 2.47.0 (20210316.0004)
 -->
<!-- Title: G Pages: 1 -->
<svg width="655pt" height="638pt"
 viewBox="0.00 0.00 654.55 637.72" xmlns="http://www.w3.org/2000/svg" xmlns:xlink="http://www.w3.org/1999/xlink">
<g id="graph0" class="graph" transform="scale(1 1) rotate(0) translate(4 633.72)">
<title>G</title>
<polygon fill="white" stroke="transparent" points="-4,4 -4,-633.72 650.55,-633.72 650.55,4 -4,4"/>
<!-- BB0 -->
<g id="node1" class="node">
<title>BB0</title>
<ellipse fill="none" stroke="black" cx="298.77" cy="-592.24" rx="106.55" ry="37.45"/>
<text text-anchor="middle" x="298.77" y="-603.54" font-family="Times New Roman,serif" font-size="14.00">[0..a)</text>
<text text-anchor="middle" x="298.77" y="-588.54" font-family="Times New Roman,serif" font-size="14.00">Normalized Count: NaN</text>
<text text-anchor="middle" x="298.77" y="-573.54" font-family="Times New Roman,serif" font-size="14.00">Samples weight: 0.00</text>
</g>
<!-- BB7 -->
<g id="node8" class="node">
<title>BB7</title>
<ellipse fill="none" stroke="black" cx="298.77" cy="-481.29" rx="115.93" ry="37.45"/>
<text text-anchor="middle" x="298.77" y="-492.59" font-family="Times New Roman,serif" font-size="14.00">[34..38)</text>
<text text-anchor="middle" x="298.77" y="-477.59" font-family="Times New Roman,serif" font-size="14.00">Normalized Count: Infinity</text>
<text text-anchor="middle" x="298.77" y="-462.59" font-family="Times New Roman,serif" font-size="14.00">Samples weight: 0.00</text>
</g>
<!-- BB0&#45;&gt;BB7 -->
<g id="edge1" class="edge">
<title>BB0&#45;&gt;BB7</title>
<path fill="none" stroke="black" d="M298.77,-554.66C298.77,-546.49 298.77,-537.71 298.77,-529.18"/>
<polygon fill="black" stroke="black" points="302.27,-528.96 298.77,-518.96 295.27,-528.96 302.27,-528.96"/>
</g>
<!-- BB1 -->
<g id="node2" class="node">
<title>BB1</title>
<ellipse fill="none" stroke="black" cx="298.77" cy="-370.34" rx="115.93" ry="37.45"/>
<text text-anchor="middle" x="298.77" y="-381.64" font-family="Times New Roman,serif" font-size="14.00">[a..e)</text>
<text text-anchor="middle" x="298.77" y="-366.64" font-family="Times New Roman,serif" font-size="14.00">Normalized Count: Infinity</text>
<text text-anchor="middle" x="298.77" y="-351.64" font-family="Times New Roman,serif" font-size="14.00">Samples weight: 0.03</text>
</g>
<!-- BB5 -->
<g id="node6" class="node">
<title>BB5</title>
<ellipse fill="none" stroke="black" cx="322.77" cy="-259.38" rx="115.93" ry="37.45"/>
<text text-anchor="middle" x="322.77" y="-270.68" font-family="Times New Roman,serif" font-size="14.00">[28..30)</text>
<text text-anchor="middle" x="322.77" y="-255.68" font-family="Times New Roman,serif" font-size="14.00">Normalized Count: Infinity</text>
<text text-anchor="middle" x="322.77" y="-240.68" font-family="Times New Roman,serif" font-size="14.00">Samples weight: 0.05</text>
</g>
<!-- BB1&#45;&gt;BB5 -->
<g id="edge2" class="edge">
<title>BB1&#45;&gt;BB5</title>
<path fill="none" stroke="black" d="M306.83,-332.75C308.65,-324.49 310.61,-315.61 312.51,-306.99"/>
<polygon fill="black" stroke="black" points="315.96,-307.57 314.7,-297.06 309.13,-306.07 315.96,-307.57"/>
</g>
<!-- BB2 -->
<g id="node3" class="node">
<title>BB2</title>
<ellipse fill="none" stroke="black" cx="347.77" cy="-148.43" rx="115.93" ry="37.45"/>
<text text-anchor="middle" x="347.77" y="-159.73" font-family="Times New Roman,serif" font-size="14.00">[e..16)</text>
<text text-anchor="middle" x="347.77" y="-144.73" font-family="Times New Roman,serif" font-size="14.00">Normalized Count: Infinity</text>
<text text-anchor="middle" x="347.77" y="-129.73" font-family="Times New Roman,serif" font-size="14.00">Samples weight: 0.36</text>
</g>
<!-- BB3 -->
<g id="node4" class="node">
<title>BB3</title>
<ellipse fill="none" stroke="black" cx="241.77" cy="-37.48" rx="115.93" ry="37.45"/>
<text text-anchor="middle" x="241.77" y="-48.78" font-family="Times New Roman,serif" font-size="14.00">[16..24)</text>
<text text-anchor="middle" x="241.77" y="-33.78" font-family="Times New Roman,serif" font-size="14.00">Normalized Count: Infinity</text>
<text text-anchor="middle" x="241.77" y="-18.78" font-family="Times New Roman,serif" font-size="14.00">Samples weight: 0.51</text>
</g>
<!-- BB2&#45;&gt;BB3 -->
<g id="edge4" class="edge">
<title>BB2&#45;&gt;BB3</title>
<path fill="none" stroke="black" d="M313.65,-112.36C303.91,-102.35 293.19,-91.33 283.07,-80.93"/>
<polygon fill="black" stroke="black" points="285.31,-78.21 275.83,-73.48 280.3,-83.09 285.31,-78.21"/>
</g>
<!-- BB4 -->
<g id="node5" class="node">
<title>BB4</title>
<ellipse fill="none" stroke="black" cx="491.77" cy="-37.48" rx="115.93" ry="37.45"/>
<text text-anchor="middle" x="491.77" y="-48.78" font-family="Times New Roman,serif" font-size="14.00">[24..28)</text>
<text text-anchor="middle" x="491.77" y="-33.78" font-family="Times New Roman,serif" font-size="14.00">Normalized Count: Infinity</text>
<text text-anchor="middle" x="491.77" y="-18.78" font-family="Times New Roman,serif" font-size="14.00">Samples weight: 0.06</text>
</g>
<!-- BB2&#45;&gt;BB4 -->
<g id="edge3" class="edge">
<title>BB2&#45;&gt;BB4</title>
<path fill="none" stroke="black" d="M392.55,-113.55C407.18,-102.49 423.56,-90.09 438.74,-78.6"/>
<polygon fill="black" stroke="black" points="441.16,-81.16 447.03,-72.33 436.94,-75.57 441.16,-81.16"/>
</g>
<!-- BB3&#45;&gt;BB4 -->
<g id="edge5" class="edge">
<title>BB3&#45;&gt;BB4</title>
<path fill="none" stroke="black" d="M357.98,-37.48C360.48,-37.48 362.98,-37.48 365.48,-37.48"/>
<polygon fill="black" stroke="black" points="365.75,-40.98 375.75,-37.48 365.75,-33.98 365.75,-40.98"/>
</g>
<!-- BB4&#45;&gt;BB5 -->
<g id="edge6" class="edge">
<title>BB4&#45;&gt;BB5</title>
<path fill="none" stroke="black" d="M496.21,-75C498.15,-107.16 495.93,-153.77 472.77,-185.91 459.01,-205 438.85,-219.28 417.73,-229.87"/>
<polygon fill="black" stroke="black" points="416.17,-226.74 408.64,-234.19 419.18,-233.06 416.17,-226.74"/>
</g>
<!-- BB5&#45;&gt;BB2 -->
<g id="edge7" class="edge">
<title>BB5&#45;&gt;BB2</title>
<path fill="none" stroke="black" d="M331.17,-221.8C333.06,-213.54 335.1,-204.65 337.08,-196.04"/>
<polygon fill="black" stroke="black" points="340.53,-196.63 339.36,-186.1 333.71,-195.07 340.53,-196.63"/>
</g>
<!-- BB6 -->
<g id="node7" class="node">
<title>BB6</title>
<ellipse fill="none" stroke="black" cx="106.77" cy="-148.43" rx="106.55" ry="37.45"/>
<text text-anchor="middle" x="106.77" y="-159.73" font-family="Times New Roman,serif" font-size="14.00">[30..34)</text>
<text text-anchor="middle" x="106.77" y="-144.73" font-family="Times New Roman,serif" font-size="14.00">Normalized Count: NaN</text>
<text text-anchor="middle" x="106.77" y="-129.73" font-family="Times New Roman,serif" font-size="14.00">Samples weight: 0.00</text>
</g>
<!-- BB5&#45;&gt;BB6 -->
<g id="edge8" class="edge">
<title>BB5&#45;&gt;BB6</title>
<path fill="none" stroke="black" d="M261.45,-227.45C234.78,-214 203.41,-198.18 175.92,-184.31"/>
<polygon fill="black" stroke="black" points="177.26,-181.06 166.75,-179.68 174.11,-187.31 177.26,-181.06"/>
</g>
<!-- BB6&#45;&gt;BB7 -->
<g id="edge9" class="edge">
<title>BB6&#45;&gt;BB7</title>
<path fill="none" stroke="black" d="M107.62,-186.21C110.62,-240.07 123.18,-341.2 173.77,-407.81 185.59,-423.38 201.8,-436.18 218.63,-446.47"/>
<polygon fill="black" stroke="black" points="217.06,-449.6 227.46,-451.61 220.58,-443.56 217.06,-449.6"/>
</g>
<!-- BB7&#45;&gt;BB1 -->
<g id="edge10" class="edge">
<title>BB7&#45;&gt;BB1</title>
<path fill="none" stroke="black" d="M298.77,-443.71C298.77,-435.53 298.77,-426.75 298.77,-418.23"/>
<polygon fill="black" stroke="black" points="302.27,-418.01 298.77,-408.01 295.27,-418.01 302.27,-418.01"/>
</g>
<!-- BB8 -->
<g id="node9" class="node">
<title>BB8</title>
<ellipse fill="none" stroke="black" cx="539.77" cy="-370.34" rx="106.55" ry="37.45"/>
<text text-anchor="middle" x="539.77" y="-381.64" font-family="Times New Roman,serif" font-size="14.00">[38..39)</text>
<text text-anchor="middle" x="539.77" y="-366.64" font-family="Times New Roman,serif" font-size="14.00">Normalized Count: NaN</text>
<text text-anchor="middle" x="539.77" y="-351.64" font-family="Times New Roman,serif" font-size="14.00">Samples weight: 0.00</text>
</g>
<!-- BB7&#45;&gt;BB8 -->
<g id="edge11" class="edge">
<title>BB7&#45;&gt;BB8</title>
<path fill="none" stroke="black" d="M364.95,-450.37C396.27,-436.21 433.79,-419.25 466.03,-404.67"/>
<polygon fill="black" stroke="black" points="467.74,-407.74 475.41,-400.43 464.86,-401.36 467.74,-407.74"/>
</g>
</g>
</svg>
