<?xml version="1.0" encoding="UTF-8" standalone="no"?>
<!DOCTYPE svg PUBLIC "-//W3C//DTD SVG 1.1//EN"
 "http://www.w3.org/Graphics/SVG/1.1/DTD/svg11.dtd">
<!-- Generated by graphviz version 2.47.0 (20210316.0004)
 -->
<!-- Title: G Pages: 1 -->
<svg width="1244pt" height="1294pt"
 viewBox="0.00 0.00 1244.50 1293.67" xmlns="http://www.w3.org/2000/svg" xmlns:xlink="http://www.w3.org/1999/xlink">
<g id="graph0" class="graph" transform="scale(1 1) rotate(0) translate(4 1289.67)">
<title>G</title>
<polygon fill="white" stroke="transparent" points="-4,4 -4,-1289.67 1240.5,-1289.67 1240.5,4 -4,4"/>
<!-- BB0 -->
<g id="node1" class="node">
<title>BB0</title>
<ellipse fill="none" stroke="black" cx="657.84" cy="-1237.58" rx="104.8" ry="48.17"/>
<text text-anchor="middle" x="657.84" y="-1256.38" font-family="Times New Roman,serif" font-size="14.00">[0..12)</text>
<text text-anchor="middle" x="657.84" y="-1241.38" font-family="Times New Roman,serif" font-size="14.00">Count: 0</text>
<text text-anchor="middle" x="657.84" y="-1226.38" font-family="Times New Roman,serif" font-size="14.00">Normalized count: NaN</text>
<text text-anchor="middle" x="657.84" y="-1211.38" font-family="Times New Roman,serif" font-size="14.00">Samples weight: 0.00</text>
</g>
<!-- BB1 -->
<g id="node2" class="node">
<title>BB1</title>
<ellipse fill="none" stroke="black" cx="544.84" cy="-1105.42" rx="104.8" ry="48.17"/>
<text text-anchor="middle" x="544.84" y="-1124.22" font-family="Times New Roman,serif" font-size="14.00">[12..32)</text>
<text text-anchor="middle" x="544.84" y="-1109.22" font-family="Times New Roman,serif" font-size="14.00">Count: 0</text>
<text text-anchor="middle" x="544.84" y="-1094.22" font-family="Times New Roman,serif" font-size="14.00">Normalized count: NaN</text>
<text text-anchor="middle" x="544.84" y="-1079.22" font-family="Times New Roman,serif" font-size="14.00">Samples weight: 0.00</text>
</g>
<!-- BB0&#45;&gt;BB1 -->
<g id="edge2" class="edge">
<title>BB0&#45;&gt;BB1</title>
<path fill="none" stroke="black" d="M619.59,-1192.51C610.02,-1181.49 599.66,-1169.56 589.8,-1158.2"/>
<polygon fill="black" stroke="black" points="592.26,-1155.7 583.06,-1150.44 586.97,-1160.28 592.26,-1155.7"/>
</g>
<!-- BB2 -->
<g id="node3" class="node">
<title>BB2</title>
<ellipse fill="none" stroke="black" cx="771.84" cy="-1105.42" rx="104.8" ry="48.17"/>
<text text-anchor="middle" x="771.84" y="-1124.22" font-family="Times New Roman,serif" font-size="14.00">[32..39)</text>
<text text-anchor="middle" x="771.84" y="-1109.22" font-family="Times New Roman,serif" font-size="14.00">Count: 0</text>
<text text-anchor="middle" x="771.84" y="-1094.22" font-family="Times New Roman,serif" font-size="14.00">Normalized count: NaN</text>
<text text-anchor="middle" x="771.84" y="-1079.22" font-family="Times New Roman,serif" font-size="14.00">Samples weight: 0.00</text>
</g>
<!-- BB0&#45;&gt;BB2 -->
<g id="edge1" class="edge">
<title>BB0&#45;&gt;BB2</title>
<path fill="none" stroke="black" d="M696.44,-1192.51C706.1,-1181.49 716.54,-1169.56 726.49,-1158.2"/>
<polygon fill="black" stroke="black" points="729.33,-1160.27 733.29,-1150.44 724.07,-1155.66 729.33,-1160.27"/>
</g>
<!-- BB1&#45;&gt;BB2 -->
<g id="edge3" class="edge">
<title>BB1&#45;&gt;BB2</title>
<path fill="none" stroke="black" d="M649.92,-1105.42C652.24,-1105.42 654.56,-1105.42 656.89,-1105.42"/>
<polygon fill="black" stroke="black" points="657.07,-1108.92 667.07,-1105.42 657.07,-1101.92 657.07,-1108.92"/>
</g>
<!-- BB15 -->
<g id="node16" class="node">
<title>BB15</title>
<ellipse fill="none" stroke="black" cx="771.84" cy="-973.25" rx="104.8" ry="48.17"/>
<text text-anchor="middle" x="771.84" y="-992.05" font-family="Times New Roman,serif" font-size="14.00">[12d..134)</text>
<text text-anchor="middle" x="771.84" y="-977.05" font-family="Times New Roman,serif" font-size="14.00">Count: 0</text>
<text text-anchor="middle" x="771.84" y="-962.05" font-family="Times New Roman,serif" font-size="14.00">Normalized count: NaN</text>
<text text-anchor="middle" x="771.84" y="-947.05" font-family="Times New Roman,serif" font-size="14.00">Samples weight: 0.00</text>
</g>
<!-- BB2&#45;&gt;BB15 -->
<g id="edge4" class="edge">
<title>BB2&#45;&gt;BB15</title>
<path fill="none" stroke="black" d="M771.84,-1057.05C771.84,-1048.79 771.84,-1040.1 771.84,-1031.6"/>
<polygon fill="black" stroke="black" points="775.34,-1031.36 771.84,-1021.36 768.34,-1031.36 775.34,-1031.36"/>
</g>
<!-- BB3 -->
<g id="node4" class="node">
<title>BB3</title>
<ellipse fill="none" stroke="black" cx="629.84" cy="-841.08" rx="113.69" ry="48.17"/>
<text text-anchor="middle" x="629.84" y="-859.88" font-family="Times New Roman,serif" font-size="14.00">[39..62)</text>
<text text-anchor="middle" x="629.84" y="-844.88" font-family="Times New Roman,serif" font-size="14.00">Count: 4</text>
<text text-anchor="middle" x="629.84" y="-829.88" font-family="Times New Roman,serif" font-size="14.00">Normalized count: Infinity</text>
<text text-anchor="middle" x="629.84" y="-814.88" font-family="Times New Roman,serif" font-size="14.00">Samples weight: 0.00</text>
</g>
<!-- BB11 -->
<g id="node12" class="node">
<title>BB11</title>
<ellipse fill="none" stroke="black" cx="565.84" cy="-708.92" rx="113.69" ry="48.17"/>
<text text-anchor="middle" x="565.84" y="-727.72" font-family="Times New Roman,serif" font-size="14.00">[106..10e)</text>
<text text-anchor="middle" x="565.84" y="-712.72" font-family="Times New Roman,serif" font-size="14.00">Count: 3</text>
<text text-anchor="middle" x="565.84" y="-697.72" font-family="Times New Roman,serif" font-size="14.00">Normalized count: Infinity</text>
<text text-anchor="middle" x="565.84" y="-682.72" font-family="Times New Roman,serif" font-size="14.00">Samples weight: 0.00</text>
</g>
<!-- BB3&#45;&gt;BB11 -->
<g id="edge5" class="edge">
<title>BB3&#45;&gt;BB11</title>
<path fill="none" stroke="black" d="M607.1,-793.82C602.63,-784.73 597.89,-775.09 593.28,-765.72"/>
<polygon fill="black" stroke="black" points="596.28,-763.89 588.73,-756.46 590,-766.98 596.28,-763.89"/>
</g>
<!-- BB4 -->
<g id="node5" class="node">
<title>BB4</title>
<ellipse fill="none" stroke="black" cx="359.84" cy="-576.75" rx="113.69" ry="48.17"/>
<text text-anchor="middle" x="359.84" y="-595.55" font-family="Times New Roman,serif" font-size="14.00">[62..9d)</text>
<text text-anchor="middle" x="359.84" y="-580.55" font-family="Times New Roman,serif" font-size="14.00">Count: 51</text>
<text text-anchor="middle" x="359.84" y="-565.55" font-family="Times New Roman,serif" font-size="14.00">Normalized count: Infinity</text>
<text text-anchor="middle" x="359.84" y="-550.55" font-family="Times New Roman,serif" font-size="14.00">Samples weight: 0.02</text>
</g>
<!-- BB5 -->
<g id="node6" class="node">
<title>BB5</title>
<ellipse fill="none" stroke="black" cx="359.84" cy="-444.58" rx="113.69" ry="48.17"/>
<text text-anchor="middle" x="359.84" y="-463.38" font-family="Times New Roman,serif" font-size="14.00">[9d..cf)</text>
<text text-anchor="middle" x="359.84" y="-448.38" font-family="Times New Roman,serif" font-size="14.00">Count: 2191</text>
<text text-anchor="middle" x="359.84" y="-433.38" font-family="Times New Roman,serif" font-size="14.00">Normalized count: Infinity</text>
<text text-anchor="middle" x="359.84" y="-418.38" font-family="Times New Roman,serif" font-size="14.00">Samples weight: 0.89</text>
</g>
<!-- BB4&#45;&gt;BB5 -->
<g id="edge6" class="edge">
<title>BB4&#45;&gt;BB5</title>
<path fill="none" stroke="black" d="M359.84,-528.39C359.84,-520.12 359.84,-511.44 359.84,-502.93"/>
<polygon fill="black" stroke="black" points="363.34,-502.69 359.84,-492.69 356.34,-502.69 363.34,-502.69"/>
</g>
<!-- BB6 -->
<g id="node7" class="node">
<title>BB6</title>
<ellipse fill="none" stroke="black" cx="113.84" cy="-312.42" rx="113.69" ry="48.17"/>
<text text-anchor="middle" x="113.84" y="-331.22" font-family="Times New Roman,serif" font-size="14.00">[cf..d7)</text>
<text text-anchor="middle" x="113.84" y="-316.22" font-family="Times New Roman,serif" font-size="14.00">Count: 113</text>
<text text-anchor="middle" x="113.84" y="-301.22" font-family="Times New Roman,serif" font-size="14.00">Normalized count: Infinity</text>
<text text-anchor="middle" x="113.84" y="-286.22" font-family="Times New Roman,serif" font-size="14.00">Samples weight: 0.05</text>
</g>
<!-- BB5&#45;&gt;BB6 -->
<g id="edge8" class="edge">
<title>BB5&#45;&gt;BB6</title>
<path fill="none" stroke="black" d="M289.68,-406.46C259.56,-390.52 224.23,-371.82 193.17,-355.39"/>
<polygon fill="black" stroke="black" points="194.58,-352.18 184.1,-350.59 191.3,-358.36 194.58,-352.18"/>
</g>
<!-- BB7 -->
<g id="node8" class="node">
<title>BB7</title>
<ellipse fill="none" stroke="black" cx="359.84" cy="-312.42" rx="113.69" ry="48.17"/>
<text text-anchor="middle" x="359.84" y="-331.22" font-family="Times New Roman,serif" font-size="14.00">[d7..e1)</text>
<text text-anchor="middle" x="359.84" y="-316.22" font-family="Times New Roman,serif" font-size="14.00">Count: 90</text>
<text text-anchor="middle" x="359.84" y="-301.22" font-family="Times New Roman,serif" font-size="14.00">Normalized count: Infinity</text>
<text text-anchor="middle" x="359.84" y="-286.22" font-family="Times New Roman,serif" font-size="14.00">Samples weight: 0.04</text>
</g>
<!-- BB5&#45;&gt;BB7 -->
<g id="edge7" class="edge">
<title>BB5&#45;&gt;BB7</title>
<path fill="none" stroke="black" d="M353.32,-396.22C353.1,-387.95 353.04,-379.27 353.14,-370.77"/>
<polygon fill="black" stroke="black" points="356.64,-370.59 353.33,-360.52 349.64,-370.46 356.64,-370.59"/>
</g>
<!-- BB8 -->
<g id="node9" class="node">
<title>BB8</title>
<ellipse fill="none" stroke="black" cx="307.84" cy="-180.25" rx="113.69" ry="48.17"/>
<text text-anchor="middle" x="307.84" y="-199.05" font-family="Times New Roman,serif" font-size="14.00">[e1..eb)</text>
<text text-anchor="middle" x="307.84" y="-184.05" font-family="Times New Roman,serif" font-size="14.00">Count: 4</text>
<text text-anchor="middle" x="307.84" y="-169.05" font-family="Times New Roman,serif" font-size="14.00">Normalized count: Infinity</text>
<text text-anchor="middle" x="307.84" y="-154.05" font-family="Times New Roman,serif" font-size="14.00">Samples weight: 0.00</text>
</g>
<!-- BB6&#45;&gt;BB8 -->
<g id="edge9" class="edge">
<title>BB6&#45;&gt;BB8</title>
<path fill="none" stroke="black" d="M173.63,-271.3C194.57,-257.25 218.23,-241.38 239.79,-226.91"/>
<polygon fill="black" stroke="black" points="241.9,-229.71 248.25,-221.23 238,-223.9 241.9,-229.71"/>
</g>
<!-- BB7&#45;&gt;BB5 -->
<g id="edge10" class="edge">
<title>BB7&#45;&gt;BB5</title>
<path fill="none" stroke="black" d="M366.36,-360.52C366.58,-368.78 366.65,-377.46 366.55,-385.97"/>
<polygon fill="black" stroke="black" points="363.05,-386.16 366.37,-396.22 370.05,-386.29 363.05,-386.16"/>
</g>
<!-- BB7&#45;&gt;BB8 -->
<g id="edge11" class="edge">
<title>BB7&#45;&gt;BB8</title>
<path fill="none" stroke="black" d="M341.22,-264.79C337.67,-255.91 333.92,-246.53 330.27,-237.39"/>
<polygon fill="black" stroke="black" points="333.48,-235.98 326.52,-227.99 326.97,-238.57 333.48,-235.98"/>
</g>
<!-- BB9 -->
<g id="node10" class="node">
<title>BB9</title>
<ellipse fill="none" stroke="black" cx="255.84" cy="-48.08" rx="113.69" ry="48.17"/>
<text text-anchor="middle" x="255.84" y="-66.88" font-family="Times New Roman,serif" font-size="14.00">[eb..100)</text>
<text text-anchor="middle" x="255.84" y="-51.88" font-family="Times New Roman,serif" font-size="14.00">Count: 3</text>
<text text-anchor="middle" x="255.84" y="-36.88" font-family="Times New Roman,serif" font-size="14.00">Normalized count: Infinity</text>
<text text-anchor="middle" x="255.84" y="-21.88" font-family="Times New Roman,serif" font-size="14.00">Samples weight: 0.00</text>
</g>
<!-- BB8&#45;&gt;BB9 -->
<g id="edge13" class="edge">
<title>BB8&#45;&gt;BB9</title>
<path fill="none" stroke="black" d="M289.22,-132.62C285.67,-123.75 281.92,-114.37 278.27,-105.23"/>
<polygon fill="black" stroke="black" points="281.48,-103.81 274.52,-95.82 274.97,-106.41 281.48,-103.81"/>
</g>
<!-- BB10 -->
<g id="node11" class="node">
<title>BB10</title>
<ellipse fill="none" stroke="black" cx="501.84" cy="-48.08" rx="113.69" ry="48.17"/>
<text text-anchor="middle" x="501.84" y="-66.88" font-family="Times New Roman,serif" font-size="14.00">[100..106)</text>
<text text-anchor="middle" x="501.84" y="-51.88" font-family="Times New Roman,serif" font-size="14.00">Count: 5</text>
<text text-anchor="middle" x="501.84" y="-36.88" font-family="Times New Roman,serif" font-size="14.00">Normalized count: Infinity</text>
<text text-anchor="middle" x="501.84" y="-21.88" font-family="Times New Roman,serif" font-size="14.00">Samples weight: 0.00</text>
</g>
<!-- BB8&#45;&gt;BB10 -->
<g id="edge12" class="edge">
<title>BB8&#45;&gt;BB10</title>
<path fill="none" stroke="black" d="M367.63,-139.13C388.57,-125.09 412.23,-109.21 433.79,-94.75"/>
<polygon fill="black" stroke="black" points="435.9,-97.55 442.25,-89.07 432,-91.73 435.9,-97.55"/>
</g>
<!-- BB9&#45;&gt;BB10 -->
<g id="edge14" class="edge">
<title>BB9&#45;&gt;BB10</title>
<path fill="none" stroke="black" d="M369.72,-48.08C372.35,-48.08 374.98,-48.08 377.62,-48.08"/>
<polygon fill="black" stroke="black" points="377.78,-51.58 387.78,-48.08 377.78,-44.58 377.78,-51.58"/>
</g>
<!-- BB10&#45;&gt;BB11 -->
<g id="edge15" class="edge">
<title>BB10&#45;&gt;BB11</title>
<path fill="none" stroke="black" d="M501.84,-96.47C501.84,-149.01 501.84,-236.27 501.84,-311.42 501.84,-445.58 501.84,-445.58 501.84,-445.58 501.84,-525.7 497.09,-548.32 520.84,-624.83 523.8,-634.35 527.89,-644.03 532.4,-653.26"/>
<polygon fill="black" stroke="black" points="529.36,-655 537.03,-662.31 535.59,-651.82 529.36,-655"/>
</g>
<!-- BB11&#45;&gt;BB4 -->
<g id="edge16" class="edge">
<title>BB11&#45;&gt;BB4</title>
<path fill="none" stroke="black" d="M503.48,-668.51C480.59,-654.05 454.52,-637.57 430.92,-622.66"/>
<polygon fill="black" stroke="black" points="432.68,-619.63 422.35,-617.25 428.94,-625.55 432.68,-619.63"/>
</g>
<!-- BB12 -->
<g id="node13" class="node">
<title>BB12</title>
<ellipse fill="none" stroke="black" cx="634.84" cy="-576.75" rx="104.8" ry="48.17"/>
<text text-anchor="middle" x="634.84" y="-595.55" font-family="Times New Roman,serif" font-size="14.00">[10e..112)</text>
<text text-anchor="middle" x="634.84" y="-580.55" font-family="Times New Roman,serif" font-size="14.00">Count: 0</text>
<text text-anchor="middle" x="634.84" y="-565.55" font-family="Times New Roman,serif" font-size="14.00">Normalized count: NaN</text>
<text text-anchor="middle" x="634.84" y="-550.55" font-family="Times New Roman,serif" font-size="14.00">Samples weight: 0.00</text>
</g>
<!-- BB11&#45;&gt;BB12 -->
<g id="edge17" class="edge">
<title>BB11&#45;&gt;BB12</title>
<path fill="none" stroke="black" d="M590.37,-661.66C595.3,-652.35 600.53,-642.49 605.6,-632.92"/>
<polygon fill="black" stroke="black" points="608.81,-634.33 610.4,-623.86 602.63,-631.05 608.81,-634.33"/>
</g>
<!-- BB13 -->
<g id="node14" class="node">
<title>BB13</title>
<ellipse fill="none" stroke="black" cx="634.84" cy="-444.58" rx="104.8" ry="48.17"/>
<text text-anchor="middle" x="634.84" y="-463.38" font-family="Times New Roman,serif" font-size="14.00">[112..129)</text>
<text text-anchor="middle" x="634.84" y="-448.38" font-family="Times New Roman,serif" font-size="14.00">Count: 0</text>
<text text-anchor="middle" x="634.84" y="-433.38" font-family="Times New Roman,serif" font-size="14.00">Normalized count: NaN</text>
<text text-anchor="middle" x="634.84" y="-418.38" font-family="Times New Roman,serif" font-size="14.00">Samples weight: 0.00</text>
</g>
<!-- BB12&#45;&gt;BB13 -->
<g id="edge19" class="edge">
<title>BB12&#45;&gt;BB13</title>
<path fill="none" stroke="black" d="M634.84,-528.39C634.84,-520.12 634.84,-511.44 634.84,-502.93"/>
<polygon fill="black" stroke="black" points="638.34,-502.69 634.84,-492.69 631.34,-502.69 638.34,-502.69"/>
</g>
<!-- BB14 -->
<g id="node15" class="node">
<title>BB14</title>
<ellipse fill="none" stroke="black" cx="861.84" cy="-444.58" rx="104.8" ry="48.17"/>
<text text-anchor="middle" x="861.84" y="-463.38" font-family="Times New Roman,serif" font-size="14.00">[129..12d)</text>
<text text-anchor="middle" x="861.84" y="-448.38" font-family="Times New Roman,serif" font-size="14.00">Count: 0</text>
<text text-anchor="middle" x="861.84" y="-433.38" font-family="Times New Roman,serif" font-size="14.00">Normalized count: NaN</text>
<text text-anchor="middle" x="861.84" y="-418.38" font-family="Times New Roman,serif" font-size="14.00">Samples weight: 0.00</text>
</g>
<!-- BB12&#45;&gt;BB14 -->
<g id="edge18" class="edge">
<title>BB12&#45;&gt;BB14</title>
<path fill="none" stroke="black" d="M699.29,-538.8C727.08,-522.86 759.74,-504.13 788.46,-487.66"/>
<polygon fill="black" stroke="black" points="790.31,-490.64 797.24,-482.63 786.83,-484.57 790.31,-490.64"/>
</g>
<!-- BB13&#45;&gt;BB14 -->
<g id="edge20" class="edge">
<title>BB13&#45;&gt;BB14</title>
<path fill="none" stroke="black" d="M739.92,-444.58C742.24,-444.58 744.56,-444.58 746.89,-444.58"/>
<polygon fill="black" stroke="black" points="747.07,-448.08 757.07,-444.58 747.07,-441.08 747.07,-448.08"/>
</g>
<!-- BB14&#45;&gt;BB15 -->
<g id="edge21" class="edge">
<title>BB14&#45;&gt;BB15</title>
<path fill="none" stroke="black" d="M842.62,-492.11C825.8,-535.09 802.31,-601.13 790.84,-660.83 774.03,-748.38 770.98,-852.08 770.95,-914.97"/>
<polygon fill="black" stroke="black" points="767.45,-915.1 770.97,-925.09 774.45,-915.08 767.45,-915.1"/>
</g>
<!-- BB15&#45;&gt;BB3 -->
<g id="edge22" class="edge">
<title>BB15&#45;&gt;BB3</title>
<path fill="none" stroke="black" d="M725.74,-929.99C712.49,-917.84 697.9,-904.47 684.2,-891.91"/>
<polygon fill="black" stroke="black" points="686.43,-889.2 676.69,-885.02 681.7,-894.36 686.43,-889.2"/>
</g>
<!-- BB16 -->
<g id="node17" class="node">
<title>BB16</title>
<ellipse fill="none" stroke="black" cx="904.84" cy="-841.08" rx="104.8" ry="48.17"/>
<text text-anchor="middle" x="904.84" y="-859.88" font-family="Times New Roman,serif" font-size="14.00">[134..137)</text>
<text text-anchor="middle" x="904.84" y="-844.88" font-family="Times New Roman,serif" font-size="14.00">Count: 0</text>
<text text-anchor="middle" x="904.84" y="-829.88" font-family="Times New Roman,serif" font-size="14.00">Normalized count: NaN</text>
<text text-anchor="middle" x="904.84" y="-814.88" font-family="Times New Roman,serif" font-size="14.00">Samples weight: 0.00</text>
</g>
<!-- BB15&#45;&gt;BB16 -->
<g id="edge23" class="edge">
<title>BB15&#45;&gt;BB16</title>
<path fill="none" stroke="black" d="M815.76,-929.27C827.91,-917.38 841.19,-904.38 853.71,-892.13"/>
<polygon fill="black" stroke="black" points="856.27,-894.52 860.97,-885.02 851.38,-889.51 856.27,-894.52"/>
</g>
<!-- BB17 -->
<g id="node18" class="node">
<title>BB17</title>
<ellipse fill="none" stroke="black" cx="904.84" cy="-708.92" rx="104.8" ry="48.17"/>
<text text-anchor="middle" x="904.84" y="-727.72" font-family="Times New Roman,serif" font-size="14.00">[137..142)</text>
<text text-anchor="middle" x="904.84" y="-712.72" font-family="Times New Roman,serif" font-size="14.00">Count: 0</text>
<text text-anchor="middle" x="904.84" y="-697.72" font-family="Times New Roman,serif" font-size="14.00">Normalized count: NaN</text>
<text text-anchor="middle" x="904.84" y="-682.72" font-family="Times New Roman,serif" font-size="14.00">Samples weight: 0.00</text>
</g>
<!-- BB16&#45;&gt;BB17 -->
<g id="edge25" class="edge">
<title>BB16&#45;&gt;BB17</title>
<path fill="none" stroke="black" d="M904.84,-792.72C904.84,-784.45 904.84,-775.77 904.84,-767.27"/>
<polygon fill="black" stroke="black" points="908.34,-767.02 904.84,-757.02 901.34,-767.02 908.34,-767.02"/>
</g>
<!-- BB18 -->
<g id="node19" class="node">
<title>BB18</title>
<ellipse fill="none" stroke="black" cx="1131.84" cy="-708.92" rx="104.8" ry="48.17"/>
<text text-anchor="middle" x="1131.84" y="-727.72" font-family="Times New Roman,serif" font-size="14.00">[142..143)</text>
<text text-anchor="middle" x="1131.84" y="-712.72" font-family="Times New Roman,serif" font-size="14.00">Count: 0</text>
<text text-anchor="middle" x="1131.84" y="-697.72" font-family="Times New Roman,serif" font-size="14.00">Normalized count: NaN</text>
<text text-anchor="middle" x="1131.84" y="-682.72" font-family="Times New Roman,serif" font-size="14.00">Samples weight: 0.00</text>
</g>
<!-- BB16&#45;&gt;BB18 -->
<g id="edge24" class="edge">
<title>BB16&#45;&gt;BB18</title>
<path fill="none" stroke="black" d="M969.29,-803.13C997.08,-787.19 1029.74,-768.46 1058.46,-751.99"/>
<polygon fill="black" stroke="black" points="1060.31,-754.97 1067.24,-746.96 1056.83,-748.9 1060.31,-754.97"/>
</g>
<!-- BB17&#45;&gt;BB18 -->
<g id="edge26" class="edge">
<title>BB17&#45;&gt;BB18</title>
<path fill="none" stroke="black" d="M1009.92,-708.92C1012.24,-708.92 1014.56,-708.92 1016.89,-708.92"/>
<polygon fill="black" stroke="black" points="1017.07,-712.42 1027.07,-708.92 1017.07,-705.42 1017.07,-712.42"/>
</g>
</g>
</svg>
