<?xml version="1.0" encoding="UTF-8" standalone="no"?>
<!DOCTYPE svg PUBLIC "-//W3C//DTD SVG 1.1//EN"
 "http://www.w3.org/Graphics/SVG/1.1/DTD/svg11.dtd">
<!-- Generated by graphviz version 2.47.0 (20210316.0004)
 -->
<!-- Title: G Pages: 1 -->
<svg width="856pt" height="638pt"
 viewBox="0.00 0.00 855.67 637.72" xmlns="http://www.w3.org/2000/svg" xmlns:xlink="http://www.w3.org/1999/xlink">
<g id="graph0" class="graph" transform="scale(1 1) rotate(0) translate(4 633.72)">
<title>G</title>
<polygon fill="white" stroke="transparent" points="-4,4 -4,-633.72 851.67,-633.72 851.67,4 -4,4"/>
<!-- BB0 -->
<g id="node1" class="node">
<title>BB0</title>
<ellipse fill="none" stroke="black" cx="461.31" cy="-592.24" rx="105.22" ry="37.45"/>
<text text-anchor="middle" x="461.31" y="-603.54" font-family="Times New Roman,serif" font-size="14.00">[0..18)</text>
<text text-anchor="middle" x="461.31" y="-588.54" font-family="Times New Roman,serif" font-size="14.00">Normalized Count: 1.00</text>
<text text-anchor="middle" x="461.31" y="-573.54" font-family="Times New Roman,serif" font-size="14.00">Samples weight: 0.00</text>
</g>
<!-- BB4 -->
<g id="node5" class="node">
<title>BB4</title>
<ellipse fill="none" stroke="black" cx="461.31" cy="-481.29" rx="110.12" ry="37.45"/>
<text text-anchor="middle" x="461.31" y="-492.59" font-family="Times New Roman,serif" font-size="14.00">[26..2e)</text>
<text text-anchor="middle" x="461.31" y="-477.59" font-family="Times New Roman,serif" font-size="14.00">Normalized Count: 91.00</text>
<text text-anchor="middle" x="461.31" y="-462.59" font-family="Times New Roman,serif" font-size="14.00">Samples weight: 0.28</text>
</g>
<!-- BB0&#45;&gt;BB4 -->
<g id="edge1" class="edge">
<title>BB0&#45;&gt;BB4</title>
<path fill="none" stroke="black" d="M461.31,-554.66C461.31,-546.49 461.31,-537.71 461.31,-529.18"/>
<polygon fill="black" stroke="black" points="464.81,-528.96 461.31,-518.96 457.81,-528.96 464.81,-528.96"/>
</g>
<!-- BB1 -->
<g id="node2" class="node">
<title>BB1</title>
<ellipse fill="none" stroke="black" cx="344.31" cy="-370.34" rx="110.12" ry="37.45"/>
<text text-anchor="middle" x="344.31" y="-381.64" font-family="Times New Roman,serif" font-size="14.00">[18..1d)</text>
<text text-anchor="middle" x="344.31" y="-366.64" font-family="Times New Roman,serif" font-size="14.00">Normalized Count: 89.00</text>
<text text-anchor="middle" x="344.31" y="-351.64" font-family="Times New Roman,serif" font-size="14.00">Samples weight: 0.27</text>
</g>
<!-- BB2 -->
<g id="node3" class="node">
<title>BB2</title>
<ellipse fill="none" stroke="black" cx="344.31" cy="-259.38" rx="105.22" ry="37.45"/>
<text text-anchor="middle" x="344.31" y="-270.68" font-family="Times New Roman,serif" font-size="14.00">[1d..22)</text>
<text text-anchor="middle" x="344.31" y="-255.68" font-family="Times New Roman,serif" font-size="14.00">Normalized Count: 0.00</text>
<text text-anchor="middle" x="344.31" y="-240.68" font-family="Times New Roman,serif" font-size="14.00">Samples weight: 0.00</text>
</g>
<!-- BB1&#45;&gt;BB2 -->
<g id="edge3" class="edge">
<title>BB1&#45;&gt;BB2</title>
<path fill="none" stroke="black" d="M344.31,-332.75C344.31,-324.58 344.31,-315.8 344.31,-307.27"/>
<polygon fill="black" stroke="black" points="347.81,-307.06 344.31,-297.06 340.81,-307.06 347.81,-307.06"/>
</g>
<!-- BB3 -->
<g id="node4" class="node">
<title>BB3</title>
<ellipse fill="none" stroke="black" cx="110.31" cy="-259.38" rx="110.12" ry="37.45"/>
<text text-anchor="middle" x="110.31" y="-270.68" font-family="Times New Roman,serif" font-size="14.00">[22..26)</text>
<text text-anchor="middle" x="110.31" y="-255.68" font-family="Times New Roman,serif" font-size="14.00">Normalized Count: 89.00</text>
<text text-anchor="middle" x="110.31" y="-240.68" font-family="Times New Roman,serif" font-size="14.00">Samples weight: 0.27</text>
</g>
<!-- BB1&#45;&gt;BB3 -->
<g id="edge2" class="edge">
<title>BB1&#45;&gt;BB3</title>
<path fill="none" stroke="black" d="M280.68,-339.71C250.5,-325.66 214.29,-308.8 183.03,-294.24"/>
<polygon fill="black" stroke="black" points="184.47,-291.05 173.93,-290.01 181.52,-297.4 184.47,-291.05"/>
</g>
<!-- BB11 -->
<g id="node12" class="node">
<title>BB11</title>
<ellipse fill="none" stroke="black" cx="344.31" cy="-148.43" rx="105.22" ry="37.45"/>
<text text-anchor="middle" x="344.31" y="-159.73" font-family="Times New Roman,serif" font-size="14.00">[5d..60)</text>
<text text-anchor="middle" x="344.31" y="-144.73" font-family="Times New Roman,serif" font-size="14.00">Normalized Count: 1.00</text>
<text text-anchor="middle" x="344.31" y="-129.73" font-family="Times New Roman,serif" font-size="14.00">Samples weight: 0.00</text>
</g>
<!-- BB2&#45;&gt;BB11 -->
<g id="edge4" class="edge">
<title>BB2&#45;&gt;BB11</title>
<path fill="none" stroke="black" d="M344.31,-221.8C344.31,-213.63 344.31,-204.85 344.31,-196.32"/>
<polygon fill="black" stroke="black" points="347.81,-196.1 344.31,-186.1 340.81,-196.1 347.81,-196.1"/>
</g>
<!-- BB3&#45;&gt;BB4 -->
<g id="edge5" class="edge">
<title>BB3&#45;&gt;BB4</title>
<path fill="none" stroke="black" d="M129.77,-296.51C149.59,-330 183.34,-378.9 225.31,-407.81 263.13,-433.86 310.64,-450.81 353.1,-461.7"/>
<polygon fill="black" stroke="black" points="352.37,-465.12 362.92,-464.14 354.06,-458.33 352.37,-465.12"/>
</g>
<!-- BB4&#45;&gt;BB1 -->
<g id="edge6" class="edge">
<title>BB4&#45;&gt;BB1</title>
<path fill="none" stroke="black" d="M424.29,-445.82C413.09,-435.38 400.66,-423.81 389.01,-412.97"/>
<polygon fill="black" stroke="black" points="391.19,-410.21 381.49,-405.96 386.42,-415.34 391.19,-410.21"/>
</g>
<!-- BB5 -->
<g id="node6" class="node">
<title>BB5</title>
<ellipse fill="none" stroke="black" cx="578.31" cy="-370.34" rx="105.22" ry="37.45"/>
<text text-anchor="middle" x="578.31" y="-381.64" font-family="Times New Roman,serif" font-size="14.00">[2e..37)</text>
<text text-anchor="middle" x="578.31" y="-366.64" font-family="Times New Roman,serif" font-size="14.00">Normalized Count: 2.00</text>
<text text-anchor="middle" x="578.31" y="-351.64" font-family="Times New Roman,serif" font-size="14.00">Samples weight: 0.01</text>
</g>
<!-- BB4&#45;&gt;BB5 -->
<g id="edge7" class="edge">
<title>BB4&#45;&gt;BB5</title>
<path fill="none" stroke="black" d="M498.33,-445.82C509.64,-435.28 522.2,-423.59 533.95,-412.65"/>
<polygon fill="black" stroke="black" points="536.6,-414.96 541.53,-405.59 531.83,-409.84 536.6,-414.96"/>
</g>
<!-- BB9 -->
<g id="node10" class="node">
<title>BB9</title>
<ellipse fill="none" stroke="black" cx="578.31" cy="-259.38" rx="110.12" ry="37.45"/>
<text text-anchor="middle" x="578.31" y="-270.68" font-family="Times New Roman,serif" font-size="14.00">[50..55)</text>
<text text-anchor="middle" x="578.31" y="-255.68" font-family="Times New Roman,serif" font-size="14.00">Normalized Count: 19.00</text>
<text text-anchor="middle" x="578.31" y="-240.68" font-family="Times New Roman,serif" font-size="14.00">Samples weight: 0.06</text>
</g>
<!-- BB5&#45;&gt;BB9 -->
<g id="edge8" class="edge">
<title>BB5&#45;&gt;BB9</title>
<path fill="none" stroke="black" d="M578.31,-332.75C578.31,-324.58 578.31,-315.8 578.31,-307.27"/>
<polygon fill="black" stroke="black" points="581.81,-307.06 578.31,-297.06 574.81,-307.06 581.81,-307.06"/>
</g>
<!-- BB6 -->
<g id="node7" class="node">
<title>BB6</title>
<ellipse fill="none" stroke="black" cx="615.31" cy="-148.43" rx="110.12" ry="37.45"/>
<text text-anchor="middle" x="615.31" y="-159.73" font-family="Times New Roman,serif" font-size="14.00">[37..43)</text>
<text text-anchor="middle" x="615.31" y="-144.73" font-family="Times New Roman,serif" font-size="14.00">Normalized Count: 18.00</text>
<text text-anchor="middle" x="615.31" y="-129.73" font-family="Times New Roman,serif" font-size="14.00">Samples weight: 0.05</text>
</g>
<!-- BB7 -->
<g id="node8" class="node">
<title>BB7</title>
<ellipse fill="none" stroke="black" cx="742.31" cy="-37.48" rx="105.22" ry="37.45"/>
<text text-anchor="middle" x="742.31" y="-48.78" font-family="Times New Roman,serif" font-size="14.00">[43..4c)</text>
<text text-anchor="middle" x="742.31" y="-33.78" font-family="Times New Roman,serif" font-size="14.00">Normalized Count: 1.00</text>
<text text-anchor="middle" x="742.31" y="-18.78" font-family="Times New Roman,serif" font-size="14.00">Samples weight: 0.00</text>
</g>
<!-- BB6&#45;&gt;BB7 -->
<g id="edge10" class="edge">
<title>BB6&#45;&gt;BB7</title>
<path fill="none" stroke="black" d="M655.14,-113.26C667.79,-102.4 681.9,-90.3 695.02,-79.04"/>
<polygon fill="black" stroke="black" points="697.3,-81.7 702.61,-72.53 692.75,-76.38 697.3,-81.7"/>
</g>
<!-- BB8 -->
<g id="node9" class="node">
<title>BB8</title>
<ellipse fill="none" stroke="black" cx="498.31" cy="-37.48" rx="110.12" ry="37.45"/>
<text text-anchor="middle" x="498.31" y="-48.78" font-family="Times New Roman,serif" font-size="14.00">[4c..50)</text>
<text text-anchor="middle" x="498.31" y="-33.78" font-family="Times New Roman,serif" font-size="14.00">Normalized Count: 17.00</text>
<text text-anchor="middle" x="498.31" y="-18.78" font-family="Times New Roman,serif" font-size="14.00">Samples weight: 0.05</text>
</g>
<!-- BB6&#45;&gt;BB8 -->
<g id="edge9" class="edge">
<title>BB6&#45;&gt;BB8</title>
<path fill="none" stroke="black" d="M578.29,-112.96C567.09,-102.52 554.66,-90.95 543.01,-80.11"/>
<polygon fill="black" stroke="black" points="545.19,-77.35 535.49,-73.1 540.42,-82.48 545.19,-77.35"/>
</g>
<!-- BB7&#45;&gt;BB4 -->
<g id="edge11" class="edge">
<title>BB7&#45;&gt;BB4</title>
<path fill="none" stroke="black" d="M749.38,-75.05C761.24,-148.16 776.27,-313.41 692.31,-407.81 663.09,-440.67 619.17,-458.78 577.45,-468.7"/>
<polygon fill="black" stroke="black" points="576.47,-465.33 567.47,-470.93 577.99,-472.17 576.47,-465.33"/>
</g>
<!-- BB8&#45;&gt;BB9 -->
<g id="edge12" class="edge">
<title>BB8&#45;&gt;BB9</title>
<path fill="none" stroke="black" d="M489.5,-75.06C483.95,-106 480.48,-150.79 496.31,-185.91 501.85,-198.19 510.61,-209.23 520.38,-218.77"/>
<polygon fill="black" stroke="black" points="518.29,-221.6 528.02,-225.78 523.02,-216.44 518.29,-221.6"/>
</g>
<!-- BB9&#45;&gt;BB6 -->
<g id="edge13" class="edge">
<title>BB9&#45;&gt;BB6</title>
<path fill="none" stroke="black" d="M590.63,-222.1C593.53,-213.56 596.66,-204.34 599.69,-195.42"/>
<polygon fill="black" stroke="black" points="603.01,-196.52 602.92,-185.92 596.39,-194.27 603.01,-196.52"/>
</g>
<!-- BB10 -->
<g id="node11" class="node">
<title>BB10</title>
<ellipse fill="none" stroke="black" cx="115.31" cy="-148.43" rx="105.22" ry="37.45"/>
<text text-anchor="middle" x="115.31" y="-159.73" font-family="Times New Roman,serif" font-size="14.00">[55..5d)</text>
<text text-anchor="middle" x="115.31" y="-144.73" font-family="Times New Roman,serif" font-size="14.00">Normalized Count: 1.00</text>
<text text-anchor="middle" x="115.31" y="-129.73" font-family="Times New Roman,serif" font-size="14.00">Samples weight: 0.00</text>
</g>
<!-- BB9&#45;&gt;BB10 -->
<g id="edge14" class="edge">
<title>BB9&#45;&gt;BB10</title>
<path fill="none" stroke="black" d="M499.98,-232.87C486.18,-228.87 471.89,-225.03 458.31,-221.91 358.33,-198.93 330.15,-209.48 230.31,-185.91 220.34,-183.55 209.99,-180.77 199.77,-177.8"/>
<polygon fill="black" stroke="black" points="200.6,-174.4 190.01,-174.92 198.61,-181.11 200.6,-174.4"/>
</g>
<!-- BB10&#45;&gt;BB11 -->
<g id="edge15" class="edge">
<title>BB10&#45;&gt;BB11</title>
<path fill="none" stroke="black" d="M220.86,-148.43C223.47,-148.43 226.07,-148.43 228.67,-148.43"/>
<polygon fill="black" stroke="black" points="228.71,-151.93 238.71,-148.43 228.71,-144.93 228.71,-151.93"/>
</g>
</g>
</svg>
