<?xml version="1.0" encoding="UTF-8" standalone="no"?>
<!DOCTYPE svg PUBLIC "-//W3C//DTD SVG 1.1//EN"
 "http://www.w3.org/Graphics/SVG/1.1/DTD/svg11.dtd">
<!-- Generated by graphviz version 2.47.0 (20210316.0004)
 -->
<!-- Title: G Pages: 1 -->
<svg width="515pt" height="638pt"
 viewBox="0.00 0.00 514.72 637.72" xmlns="http://www.w3.org/2000/svg" xmlns:xlink="http://www.w3.org/1999/xlink">
<g id="graph0" class="graph" transform="scale(1 1) rotate(0) translate(4 633.72)">
<title>G</title>
<polygon fill="white" stroke="transparent" points="-4,4 -4,-633.72 510.72,-633.72 510.72,4 -4,4"/>
<!-- BB0 -->
<g id="node1" class="node">
<title>BB0</title>
<ellipse fill="none" stroke="black" cx="172.36" cy="-592.24" rx="105.22" ry="37.45"/>
<text text-anchor="middle" x="172.36" y="-603.54" font-family="Times New Roman,serif" font-size="14.00">[0..17)</text>
<text text-anchor="middle" x="172.36" y="-588.54" font-family="Times New Roman,serif" font-size="14.00">Normalized Count: 1.00</text>
<text text-anchor="middle" x="172.36" y="-573.54" font-family="Times New Roman,serif" font-size="14.00">Samples weight: 0.03</text>
</g>
<!-- BB5 -->
<g id="node6" class="node">
<title>BB5</title>
<ellipse fill="none" stroke="black" cx="172.36" cy="-481.29" rx="105.22" ry="37.45"/>
<text text-anchor="middle" x="172.36" y="-492.59" font-family="Times New Roman,serif" font-size="14.00">[59..5f)</text>
<text text-anchor="middle" x="172.36" y="-477.59" font-family="Times New Roman,serif" font-size="14.00">Normalized Count: 7.00</text>
<text text-anchor="middle" x="172.36" y="-462.59" font-family="Times New Roman,serif" font-size="14.00">Samples weight: 0.20</text>
</g>
<!-- BB0&#45;&gt;BB5 -->
<g id="edge1" class="edge">
<title>BB0&#45;&gt;BB5</title>
<path fill="none" stroke="black" d="M172.36,-554.66C172.36,-546.49 172.36,-537.71 172.36,-529.18"/>
<polygon fill="black" stroke="black" points="175.86,-528.96 172.36,-518.96 168.86,-528.96 175.86,-528.96"/>
</g>
<!-- BB1 -->
<g id="node2" class="node">
<title>BB1</title>
<ellipse fill="none" stroke="black" cx="401.36" cy="-370.34" rx="105.22" ry="37.45"/>
<text text-anchor="middle" x="401.36" y="-381.64" font-family="Times New Roman,serif" font-size="14.00">[17..28)</text>
<text text-anchor="middle" x="401.36" y="-366.64" font-family="Times New Roman,serif" font-size="14.00">Normalized Count: 7.00</text>
<text text-anchor="middle" x="401.36" y="-351.64" font-family="Times New Roman,serif" font-size="14.00">Samples weight: 0.20</text>
</g>
<!-- BB2 -->
<g id="node3" class="node">
<title>BB2</title>
<ellipse fill="none" stroke="black" cx="172.36" cy="-259.38" rx="105.22" ry="37.45"/>
<text text-anchor="middle" x="172.36" y="-270.68" font-family="Times New Roman,serif" font-size="14.00">[28..38)</text>
<text text-anchor="middle" x="172.36" y="-255.68" font-family="Times New Roman,serif" font-size="14.00">Normalized Count: 6.00</text>
<text text-anchor="middle" x="172.36" y="-240.68" font-family="Times New Roman,serif" font-size="14.00">Samples weight: 0.17</text>
</g>
<!-- BB1&#45;&gt;BB2 -->
<g id="edge3" class="edge">
<title>BB1&#45;&gt;BB2</title>
<path fill="none" stroke="black" d="M339.39,-339.85C309.86,-325.8 274.38,-308.92 243.72,-294.34"/>
<polygon fill="black" stroke="black" points="244.91,-291.03 234.38,-289.89 241.91,-297.35 244.91,-291.03"/>
</g>
<!-- BB7 -->
<g id="node8" class="node">
<title>BB7</title>
<ellipse fill="none" stroke="black" cx="401.36" cy="-259.38" rx="105.22" ry="37.45"/>
<text text-anchor="middle" x="401.36" y="-270.68" font-family="Times New Roman,serif" font-size="14.00">[64..68)</text>
<text text-anchor="middle" x="401.36" y="-255.68" font-family="Times New Roman,serif" font-size="14.00">Normalized Count: 1.00</text>
<text text-anchor="middle" x="401.36" y="-240.68" font-family="Times New Roman,serif" font-size="14.00">Samples weight: 0.03</text>
</g>
<!-- BB1&#45;&gt;BB7 -->
<g id="edge2" class="edge">
<title>BB1&#45;&gt;BB7</title>
<path fill="none" stroke="black" d="M401.36,-332.75C401.36,-324.58 401.36,-315.8 401.36,-307.27"/>
<polygon fill="black" stroke="black" points="404.86,-307.06 401.36,-297.06 397.86,-307.06 404.86,-307.06"/>
</g>
<!-- BB3 -->
<g id="node4" class="node">
<title>BB3</title>
<ellipse fill="none" stroke="black" cx="172.36" cy="-148.43" rx="105.22" ry="37.45"/>
<text text-anchor="middle" x="172.36" y="-159.73" font-family="Times New Roman,serif" font-size="14.00">[38..51)</text>
<text text-anchor="middle" x="172.36" y="-144.73" font-family="Times New Roman,serif" font-size="14.00">Normalized Count: 6.00</text>
<text text-anchor="middle" x="172.36" y="-129.73" font-family="Times New Roman,serif" font-size="14.00">Samples weight: 0.17</text>
</g>
<!-- BB2&#45;&gt;BB3 -->
<g id="edge5" class="edge">
<title>BB2&#45;&gt;BB3</title>
<path fill="none" stroke="black" d="M172.36,-221.8C172.36,-213.63 172.36,-204.85 172.36,-196.32"/>
<polygon fill="black" stroke="black" points="175.86,-196.1 172.36,-186.1 168.86,-196.1 175.86,-196.1"/>
</g>
<!-- BB6 -->
<g id="node7" class="node">
<title>BB6</title>
<ellipse fill="none" stroke="black" cx="172.36" cy="-370.34" rx="105.22" ry="37.45"/>
<text text-anchor="middle" x="172.36" y="-381.64" font-family="Times New Roman,serif" font-size="14.00">[5f..64)</text>
<text text-anchor="middle" x="172.36" y="-366.64" font-family="Times New Roman,serif" font-size="14.00">Normalized Count: 0.00</text>
<text text-anchor="middle" x="172.36" y="-351.64" font-family="Times New Roman,serif" font-size="14.00">Samples weight: 0.00</text>
</g>
<!-- BB2&#45;&gt;BB6 -->
<g id="edge4" class="edge">
<title>BB2&#45;&gt;BB6</title>
<path fill="none" stroke="black" d="M172.36,-297.06C172.36,-305.23 172.36,-314.02 172.36,-322.54"/>
<polygon fill="black" stroke="black" points="168.86,-322.75 172.36,-332.75 175.86,-322.75 168.86,-322.75"/>
</g>
<!-- BB4 -->
<g id="node5" class="node">
<title>BB4</title>
<ellipse fill="none" stroke="black" cx="105.36" cy="-37.48" rx="105.22" ry="37.45"/>
<text text-anchor="middle" x="105.36" y="-48.78" font-family="Times New Roman,serif" font-size="14.00">[51..59)</text>
<text text-anchor="middle" x="105.36" y="-33.78" font-family="Times New Roman,serif" font-size="14.00">Normalized Count: 6.00</text>
<text text-anchor="middle" x="105.36" y="-18.78" font-family="Times New Roman,serif" font-size="14.00">Samples weight: 0.17</text>
</g>
<!-- BB3&#45;&gt;BB4 -->
<g id="edge7" class="edge">
<title>BB3&#45;&gt;BB4</title>
<path fill="none" stroke="black" d="M150.42,-111.75C144.75,-102.54 138.58,-92.5 132.67,-82.9"/>
<polygon fill="black" stroke="black" points="135.57,-80.92 127.35,-74.23 129.6,-84.58 135.57,-80.92"/>
</g>
<!-- BB8 -->
<g id="node9" class="node">
<title>BB8</title>
<ellipse fill="none" stroke="black" cx="401.36" cy="-148.43" rx="105.22" ry="37.45"/>
<text text-anchor="middle" x="401.36" y="-159.73" font-family="Times New Roman,serif" font-size="14.00">[68..69)</text>
<text text-anchor="middle" x="401.36" y="-144.73" font-family="Times New Roman,serif" font-size="14.00">Normalized Count: 1.00</text>
<text text-anchor="middle" x="401.36" y="-129.73" font-family="Times New Roman,serif" font-size="14.00">Samples weight: 0.03</text>
</g>
<!-- BB3&#45;&gt;BB8 -->
<g id="edge6" class="edge">
<title>BB3&#45;&gt;BB8</title>
<path fill="none" stroke="black" d="M277.91,-148.43C280.52,-148.43 283.12,-148.43 285.72,-148.43"/>
<polygon fill="black" stroke="black" points="285.76,-151.93 295.76,-148.43 285.76,-144.93 285.76,-151.93"/>
</g>
<!-- BB4&#45;&gt;BB5 -->
<g id="edge8" class="edge">
<title>BB4&#45;&gt;BB5</title>
<path fill="none" stroke="black" d="M76.78,-73.68C69.29,-84.93 62.23,-97.87 58.36,-110.95 20.93,-237.47 -5.16,-292.17 58.36,-407.81 67.12,-423.77 81.05,-436.71 96.21,-447"/>
<polygon fill="black" stroke="black" points="94.42,-450.02 104.73,-452.45 98.19,-444.12 94.42,-450.02"/>
</g>
<!-- BB5&#45;&gt;BB1 -->
<g id="edge9" class="edge">
<title>BB5&#45;&gt;BB1</title>
<path fill="none" stroke="black" d="M234.33,-450.81C263.86,-436.76 299.34,-419.87 329.99,-405.29"/>
<polygon fill="black" stroke="black" points="331.81,-408.3 339.34,-400.84 328.8,-401.98 331.81,-408.3"/>
</g>
<!-- BB5&#45;&gt;BB6 -->
<g id="edge10" class="edge">
<title>BB5&#45;&gt;BB6</title>
<path fill="none" stroke="black" d="M172.36,-443.71C172.36,-435.53 172.36,-426.75 172.36,-418.23"/>
<polygon fill="black" stroke="black" points="175.86,-418.01 172.36,-408.01 168.86,-418.01 175.86,-418.01"/>
</g>
<!-- BB7&#45;&gt;BB8 -->
<g id="edge11" class="edge">
<title>BB7&#45;&gt;BB8</title>
<path fill="none" stroke="black" d="M401.36,-221.8C401.36,-213.63 401.36,-204.85 401.36,-196.32"/>
<polygon fill="black" stroke="black" points="404.86,-196.1 401.36,-186.1 397.86,-196.1 404.86,-196.1"/>
</g>
</g>
</svg>
