<?xml version="1.0" encoding="UTF-8" standalone="no"?>
<!DOCTYPE svg PUBLIC "-//W3C//DTD SVG 1.1//EN"
 "http://www.w3.org/Graphics/SVG/1.1/DTD/svg11.dtd">
<!-- Generated by graphviz version 2.47.0 (20210316.0004)
 -->
<!-- Title: G Pages: 1 -->
<svg width="247pt" height="305pt"
 viewBox="0.00 0.00 246.62 304.86" xmlns="http://www.w3.org/2000/svg" xmlns:xlink="http://www.w3.org/1999/xlink">
<g id="graph0" class="graph" transform="scale(1 1) rotate(0) translate(4 300.86)">
<title>G</title>
<polygon fill="white" stroke="transparent" points="-4,4 -4,-300.86 242.62,-300.86 242.62,4 -4,4"/>
<!-- BB0 -->
<g id="node1" class="node">
<title>BB0</title>
<ellipse fill="none" stroke="black" cx="110.31" cy="-259.38" rx="105.22" ry="37.45"/>
<text text-anchor="middle" x="110.31" y="-270.68" font-family="Times New Roman,serif" font-size="14.00">[0..2)</text>
<text text-anchor="middle" x="110.31" y="-255.68" font-family="Times New Roman,serif" font-size="14.00">Normalized Count: 1.00</text>
<text text-anchor="middle" x="110.31" y="-240.68" font-family="Times New Roman,serif" font-size="14.00">Samples weight: 0.02</text>
</g>
<!-- BB1 -->
<g id="node2" class="node">
<title>BB1</title>
<ellipse fill="none" stroke="black" cx="110.31" cy="-148.43" rx="110.12" ry="37.45"/>
<text text-anchor="middle" x="110.31" y="-159.73" font-family="Times New Roman,serif" font-size="14.00">[2..6b)</text>
<text text-anchor="middle" x="110.31" y="-144.73" font-family="Times New Roman,serif" font-size="14.00">Normalized Count: 54.00</text>
<text text-anchor="middle" x="110.31" y="-129.73" font-family="Times New Roman,serif" font-size="14.00">Samples weight: 0.96</text>
</g>
<!-- BB0&#45;&gt;BB1 -->
<g id="edge1" class="edge">
<title>BB0&#45;&gt;BB1</title>
<path fill="none" stroke="black" d="M110.31,-221.8C110.31,-213.63 110.31,-204.85 110.31,-196.32"/>
<polygon fill="black" stroke="black" points="113.81,-196.1 110.31,-186.1 106.81,-196.1 113.81,-196.1"/>
</g>
<!-- BB1&#45;&gt;BB1 -->
<g id="edge2" class="edge">
<title>BB1&#45;&gt;BB1</title>
<path fill="none" stroke="black" d="M203.73,-168.45C223.95,-166.49 238.62,-159.82 238.62,-148.43 238.62,-139.09 228.75,-132.92 214.04,-129.93"/>
<polygon fill="black" stroke="black" points="214.13,-126.4 203.73,-128.41 213.12,-133.33 214.13,-126.4"/>
</g>
<!-- BB2 -->
<g id="node3" class="node">
<title>BB2</title>
<ellipse fill="none" stroke="black" cx="110.31" cy="-37.48" rx="105.22" ry="37.45"/>
<text text-anchor="middle" x="110.31" y="-48.78" font-family="Times New Roman,serif" font-size="14.00">[6b..6c)</text>
<text text-anchor="middle" x="110.31" y="-33.78" font-family="Times New Roman,serif" font-size="14.00">Normalized Count: 1.00</text>
<text text-anchor="middle" x="110.31" y="-18.78" font-family="Times New Roman,serif" font-size="14.00">Samples weight: 0.02</text>
</g>
<!-- BB1&#45;&gt;BB2 -->
<g id="edge3" class="edge">
<title>BB1&#45;&gt;BB2</title>
<path fill="none" stroke="black" d="M110.31,-110.85C110.31,-102.67 110.31,-93.89 110.31,-85.37"/>
<polygon fill="black" stroke="black" points="113.81,-85.15 110.31,-75.15 106.81,-85.15 113.81,-85.15"/>
</g>
</g>
</svg>
