<?xml version="1.0" encoding="UTF-8" standalone="no"?>
<!DOCTYPE svg PUBLIC "-//W3C//DTD SVG 1.1//EN"
 "http://www.w3.org/Graphics/SVG/1.1/DTD/svg11.dtd">
<!-- Generated by graphviz version 2.47.0 (20210316.0004)
 -->
<!-- Title: G Pages: 1 -->
<svg width="760pt" height="1161pt"
 viewBox="0.00 0.00 760.46 1161.50" xmlns="http://www.w3.org/2000/svg" xmlns:xlink="http://www.w3.org/1999/xlink">
<g id="graph0" class="graph" transform="scale(1 1) rotate(0) translate(4 1157.5)">
<title>G</title>
<polygon fill="white" stroke="transparent" points="-4,4 -4,-1157.5 756.46,-1157.5 756.46,4 -4,4"/>
<!-- BB0 -->
<g id="node1" class="node">
<title>BB0</title>
<ellipse fill="none" stroke="black" cx="519.22" cy="-1105.42" rx="103.48" ry="48.17"/>
<text text-anchor="middle" x="519.22" y="-1124.22" font-family="Times New Roman,serif" font-size="14.00">[0..7)</text>
<text text-anchor="middle" x="519.22" y="-1109.22" font-family="Times New Roman,serif" font-size="14.00">Count: 6050</text>
<text text-anchor="middle" x="519.22" y="-1094.22" font-family="Times New Roman,serif" font-size="14.00">Normalized count: 1.00</text>
<text text-anchor="middle" x="519.22" y="-1079.22" font-family="Times New Roman,serif" font-size="14.00">Samples weight: 0.05</text>
</g>
<!-- BB8 -->
<g id="node9" class="node">
<title>BB8</title>
<ellipse fill="none" stroke="black" cx="519.22" cy="-973.25" rx="103.48" ry="48.17"/>
<text text-anchor="middle" x="519.22" y="-992.05" font-family="Times New Roman,serif" font-size="14.00">[76..7a)</text>
<text text-anchor="middle" x="519.22" y="-977.05" font-family="Times New Roman,serif" font-size="14.00">Count: 30112</text>
<text text-anchor="middle" x="519.22" y="-962.05" font-family="Times New Roman,serif" font-size="14.00">Normalized count: 4.98</text>
<text text-anchor="middle" x="519.22" y="-947.05" font-family="Times New Roman,serif" font-size="14.00">Samples weight: 0.24</text>
</g>
<!-- BB0&#45;&gt;BB8 -->
<g id="edge1" class="edge">
<title>BB0&#45;&gt;BB8</title>
<path fill="none" stroke="black" d="M519.22,-1057.05C519.22,-1048.79 519.22,-1040.1 519.22,-1031.6"/>
<polygon fill="black" stroke="black" points="522.72,-1031.36 519.22,-1021.36 515.72,-1031.36 522.72,-1031.36"/>
</g>
<!-- BB1 -->
<g id="node2" class="node">
<title>BB1</title>
<ellipse fill="none" stroke="black" cx="491.22" cy="-708.92" rx="103.48" ry="48.17"/>
<text text-anchor="middle" x="491.22" y="-727.72" font-family="Times New Roman,serif" font-size="14.00">[7..14)</text>
<text text-anchor="middle" x="491.22" y="-712.72" font-family="Times New Roman,serif" font-size="14.00">Count: 24062</text>
<text text-anchor="middle" x="491.22" y="-697.72" font-family="Times New Roman,serif" font-size="14.00">Normalized count: 3.98</text>
<text text-anchor="middle" x="491.22" y="-682.72" font-family="Times New Roman,serif" font-size="14.00">Samples weight: 0.19</text>
</g>
<!-- BB2 -->
<g id="node3" class="node">
<title>BB2</title>
<ellipse fill="none" stroke="black" cx="491.22" cy="-576.75" rx="103.48" ry="48.17"/>
<text text-anchor="middle" x="491.22" y="-595.55" font-family="Times New Roman,serif" font-size="14.00">[14..1c)</text>
<text text-anchor="middle" x="491.22" y="-580.55" font-family="Times New Roman,serif" font-size="14.00">Count: 9234</text>
<text text-anchor="middle" x="491.22" y="-565.55" font-family="Times New Roman,serif" font-size="14.00">Normalized count: 1.53</text>
<text text-anchor="middle" x="491.22" y="-550.55" font-family="Times New Roman,serif" font-size="14.00">Samples weight: 0.07</text>
</g>
<!-- BB1&#45;&gt;BB2 -->
<g id="edge3" class="edge">
<title>BB1&#45;&gt;BB2</title>
<path fill="none" stroke="black" d="M491.22,-660.55C491.22,-652.29 491.22,-643.6 491.22,-635.1"/>
<polygon fill="black" stroke="black" points="494.72,-634.86 491.22,-624.86 487.72,-634.86 494.72,-634.86"/>
</g>
<!-- BB1&#45;&gt;BB8 -->
<g id="edge2" class="edge">
<title>BB1&#45;&gt;BB8</title>
<path fill="none" stroke="black" d="M506.25,-756.5C509.46,-768.29 512.42,-781.01 514.22,-793 520.27,-833.35 521.44,-879.37 521.14,-914.67"/>
<polygon fill="black" stroke="black" points="517.63,-914.75 521.01,-924.8 524.63,-914.84 517.63,-914.75"/>
</g>
<!-- BB3 -->
<g id="node4" class="node">
<title>BB3</title>
<ellipse fill="none" stroke="black" cx="491.22" cy="-444.58" rx="103.48" ry="48.17"/>
<text text-anchor="middle" x="491.22" y="-463.38" font-family="Times New Roman,serif" font-size="14.00">[1c..2a)</text>
<text text-anchor="middle" x="491.22" y="-448.38" font-family="Times New Roman,serif" font-size="14.00">Count: 6419</text>
<text text-anchor="middle" x="491.22" y="-433.38" font-family="Times New Roman,serif" font-size="14.00">Normalized count: 1.06</text>
<text text-anchor="middle" x="491.22" y="-418.38" font-family="Times New Roman,serif" font-size="14.00">Samples weight: 0.05</text>
</g>
<!-- BB2&#45;&gt;BB3 -->
<g id="edge5" class="edge">
<title>BB2&#45;&gt;BB3</title>
<path fill="none" stroke="black" d="M491.22,-528.39C491.22,-520.12 491.22,-511.44 491.22,-502.93"/>
<polygon fill="black" stroke="black" points="494.72,-502.69 491.22,-492.69 487.72,-502.69 494.72,-502.69"/>
</g>
<!-- BB2&#45;&gt;BB8 -->
<g id="edge4" class="edge">
<title>BB2&#45;&gt;BB8</title>
<path fill="none" stroke="black" d="M559.36,-612.91C576.86,-625.5 593.48,-641.48 603.22,-660.83 645.9,-745.63 595.21,-854.68 556.11,-918.68"/>
<polygon fill="black" stroke="black" points="552.99,-917.07 550.67,-927.41 558.93,-920.77 552.99,-917.07"/>
</g>
<!-- BB4 -->
<g id="node5" class="node">
<title>BB4</title>
<ellipse fill="none" stroke="black" cx="491.22" cy="-312.42" rx="103.48" ry="48.17"/>
<text text-anchor="middle" x="491.22" y="-331.22" font-family="Times New Roman,serif" font-size="14.00">[2a..4c)</text>
<text text-anchor="middle" x="491.22" y="-316.22" font-family="Times New Roman,serif" font-size="14.00">Count: 5927</text>
<text text-anchor="middle" x="491.22" y="-301.22" font-family="Times New Roman,serif" font-size="14.00">Normalized count: 0.98</text>
<text text-anchor="middle" x="491.22" y="-286.22" font-family="Times New Roman,serif" font-size="14.00">Samples weight: 0.05</text>
</g>
<!-- BB3&#45;&gt;BB4 -->
<g id="edge7" class="edge">
<title>BB3&#45;&gt;BB4</title>
<path fill="none" stroke="black" d="M491.22,-396.22C491.22,-387.95 491.22,-379.27 491.22,-370.77"/>
<polygon fill="black" stroke="black" points="494.72,-370.52 491.22,-360.52 487.72,-370.52 494.72,-370.52"/>
</g>
<!-- BB3&#45;&gt;BB8 -->
<g id="edge6" class="edge">
<title>BB3&#45;&gt;BB8</title>
<path fill="none" stroke="black" d="M413.33,-476.2C248.51,-545.27 -109.17,-720.37 33.22,-889.17 79.94,-944.55 277.4,-963.02 405.8,-969.17"/>
<polygon fill="black" stroke="black" points="405.93,-972.68 416.08,-969.65 406.25,-965.69 405.93,-972.68"/>
</g>
<!-- BB5 -->
<g id="node6" class="node">
<title>BB5</title>
<ellipse fill="none" stroke="black" cx="584.22" cy="-180.25" rx="103.48" ry="48.17"/>
<text text-anchor="middle" x="584.22" y="-199.05" font-family="Times New Roman,serif" font-size="14.00">[4c..5b)</text>
<text text-anchor="middle" x="584.22" y="-184.05" font-family="Times New Roman,serif" font-size="14.00">Count: 5915</text>
<text text-anchor="middle" x="584.22" y="-169.05" font-family="Times New Roman,serif" font-size="14.00">Normalized count: 0.98</text>
<text text-anchor="middle" x="584.22" y="-154.05" font-family="Times New Roman,serif" font-size="14.00">Samples weight: 0.05</text>
</g>
<!-- BB4&#45;&gt;BB5 -->
<g id="edge9" class="edge">
<title>BB4&#45;&gt;BB5</title>
<path fill="none" stroke="black" d="M523.22,-266.62C530.6,-256.29 538.52,-245.21 546.13,-234.55"/>
<polygon fill="black" stroke="black" points="549.19,-236.3 552.15,-226.13 543.49,-232.23 549.19,-236.3"/>
</g>
<!-- BB7 -->
<g id="node8" class="node">
<title>BB7</title>
<ellipse fill="none" stroke="black" cx="360.22" cy="-180.25" rx="103.48" ry="48.17"/>
<text text-anchor="middle" x="360.22" y="-199.05" font-family="Times New Roman,serif" font-size="14.00">[73..76)</text>
<text text-anchor="middle" x="360.22" y="-184.05" font-family="Times New Roman,serif" font-size="14.00">Count: 12</text>
<text text-anchor="middle" x="360.22" y="-169.05" font-family="Times New Roman,serif" font-size="14.00">Normalized count: 0.00</text>
<text text-anchor="middle" x="360.22" y="-154.05" font-family="Times New Roman,serif" font-size="14.00">Samples weight: 0.00</text>
</g>
<!-- BB4&#45;&gt;BB7 -->
<g id="edge8" class="edge">
<title>BB4&#45;&gt;BB7</title>
<path fill="none" stroke="black" d="M447.96,-268.43C436,-256.55 422.92,-243.55 410.59,-231.3"/>
<polygon fill="black" stroke="black" points="412.99,-228.75 403.43,-224.19 408.06,-233.72 412.99,-228.75"/>
</g>
<!-- BB6 -->
<g id="node7" class="node">
<title>BB6</title>
<ellipse fill="none" stroke="black" cx="649.22" cy="-48.08" rx="103.48" ry="48.17"/>
<text text-anchor="middle" x="649.22" y="-66.88" font-family="Times New Roman,serif" font-size="14.00">[5b..73)</text>
<text text-anchor="middle" x="649.22" y="-51.88" font-family="Times New Roman,serif" font-size="14.00">Count: 3347</text>
<text text-anchor="middle" x="649.22" y="-36.88" font-family="Times New Roman,serif" font-size="14.00">Normalized count: 0.55</text>
<text text-anchor="middle" x="649.22" y="-21.88" font-family="Times New Roman,serif" font-size="14.00">Samples weight: 0.03</text>
</g>
<!-- BB5&#45;&gt;BB6 -->
<g id="edge11" class="edge">
<title>BB5&#45;&gt;BB6</title>
<path fill="none" stroke="black" d="M607.14,-133.36C611.84,-123.93 616.85,-113.91 621.7,-104.19"/>
<polygon fill="black" stroke="black" points="624.95,-105.51 626.29,-95 618.69,-102.38 624.95,-105.51"/>
</g>
<!-- BB5&#45;&gt;BB8 -->
<g id="edge10" class="edge">
<title>BB5&#45;&gt;BB8</title>
<path fill="none" stroke="black" d="M606.2,-227.47C628.65,-278.98 660.22,-365.35 660.22,-443.58 660.22,-709.92 660.22,-709.92 660.22,-709.92 660.22,-793.12 649.74,-818.26 606.22,-889.17 598.58,-901.6 588.64,-913.44 578.21,-924.08"/>
<polygon fill="black" stroke="black" points="575.6,-921.73 570.93,-931.25 580.51,-926.72 575.6,-921.73"/>
</g>
<!-- BB6&#45;&gt;BB8 -->
<g id="edge12" class="edge">
<title>BB6&#45;&gt;BB8</title>
<path fill="none" stroke="black" d="M679.09,-94.12C685.76,-106.05 692.07,-119.23 696.22,-132.17 720.67,-208.46 715.22,-231.3 715.22,-311.42 715.22,-709.92 715.22,-709.92 715.22,-709.92 715.22,-795.94 696.42,-822.37 642.22,-889.17 629.24,-905.16 612.38,-919.26 595.32,-931.1"/>
<polygon fill="black" stroke="black" points="593.3,-928.24 586.95,-936.73 597.2,-934.05 593.3,-928.24"/>
</g>
<!-- BB7&#45;&gt;BB8 -->
<g id="edge13" class="edge">
<title>BB7&#45;&gt;BB8</title>
<path fill="none" stroke="black" d="M360.22,-228.64C360.22,-281.18 360.22,-368.44 360.22,-443.58 360.22,-577.75 360.22,-577.75 360.22,-577.75 360.22,-657.86 329.56,-694.13 379.22,-757 409.02,-794.72 449.51,-756.86 481.22,-793 496.97,-810.95 507.32,-869.5 513.18,-914.86"/>
<polygon fill="black" stroke="black" points="509.72,-915.41 514.43,-924.9 516.67,-914.54 509.72,-915.41"/>
</g>
<!-- BB9 -->
<g id="node10" class="node">
<title>BB9</title>
<ellipse fill="none" stroke="black" cx="145.22" cy="-841.08" rx="103.48" ry="48.17"/>
<text text-anchor="middle" x="145.22" y="-859.88" font-family="Times New Roman,serif" font-size="14.00">[7a..7e)</text>
<text text-anchor="middle" x="145.22" y="-844.88" font-family="Times New Roman,serif" font-size="14.00">Count: 30031</text>
<text text-anchor="middle" x="145.22" y="-829.88" font-family="Times New Roman,serif" font-size="14.00">Normalized count: 4.96</text>
<text text-anchor="middle" x="145.22" y="-814.88" font-family="Times New Roman,serif" font-size="14.00">Samples weight: 0.24</text>
</g>
<!-- BB8&#45;&gt;BB9 -->
<g id="edge15" class="edge">
<title>BB8&#45;&gt;BB9</title>
<path fill="none" stroke="black" d="M432.71,-946.98C381.32,-931.43 315.1,-910.46 257.22,-889.17 248.09,-885.81 238.61,-882.13 229.21,-878.36"/>
<polygon fill="black" stroke="black" points="230.43,-875.08 219.85,-874.56 227.8,-881.56 230.43,-875.08"/>
</g>
<!-- BB10 -->
<g id="node11" class="node">
<title>BB10</title>
<ellipse fill="none" stroke="black" cx="369.22" cy="-841.08" rx="103.48" ry="48.17"/>
<text text-anchor="middle" x="369.22" y="-859.88" font-family="Times New Roman,serif" font-size="14.00">[7e..7f)</text>
<text text-anchor="middle" x="369.22" y="-844.88" font-family="Times New Roman,serif" font-size="14.00">Count: 6050</text>
<text text-anchor="middle" x="369.22" y="-829.88" font-family="Times New Roman,serif" font-size="14.00">Normalized count: 1.00</text>
<text text-anchor="middle" x="369.22" y="-814.88" font-family="Times New Roman,serif" font-size="14.00">Samples weight: 0.05</text>
</g>
<!-- BB8&#45;&gt;BB10 -->
<g id="edge14" class="edge">
<title>BB8&#45;&gt;BB10</title>
<path fill="none" stroke="black" d="M470.93,-930.35C456.27,-917.63 440.05,-903.55 424.94,-890.44"/>
<polygon fill="black" stroke="black" points="427,-887.59 417.16,-883.68 422.42,-892.88 427,-887.59"/>
</g>
<!-- BB9&#45;&gt;BB1 -->
<g id="edge16" class="edge">
<title>BB9&#45;&gt;BB1</title>
<path fill="none" stroke="black" d="M220.29,-807.83C232.58,-802.75 245.22,-797.65 257.22,-793 303.65,-775.01 355.83,-756.34 399.11,-741.27"/>
<polygon fill="black" stroke="black" points="400.47,-744.5 408.77,-737.91 398.17,-737.89 400.47,-744.5"/>
</g>
<!-- BB9&#45;&gt;BB10 -->
<g id="edge17" class="edge">
<title>BB9&#45;&gt;BB10</title>
<path fill="none" stroke="black" d="M248.47,-841.08C250.92,-841.08 253.38,-841.08 255.83,-841.08"/>
<polygon fill="black" stroke="black" points="255.92,-844.58 265.92,-841.08 255.92,-837.58 255.92,-844.58"/>
</g>
</g>
</svg>
