<?xml version="1.0" encoding="UTF-8" standalone="no"?>
<!DOCTYPE svg PUBLIC "-//W3C//DTD SVG 1.1//EN"
 "http://www.w3.org/Graphics/SVG/1.1/DTD/svg11.dtd">
<!-- Generated by graphviz version 2.47.0 (20210316.0004)
 -->
<!-- Title: G Pages: 1 -->
<svg width="821pt" height="765pt"
 viewBox="0.00 0.00 821.48 765.00" xmlns="http://www.w3.org/2000/svg" xmlns:xlink="http://www.w3.org/1999/xlink">
<g id="graph0" class="graph" transform="scale(1 1) rotate(0) translate(4 761)">
<title>G</title>
<polygon fill="white" stroke="transparent" points="-4,4 -4,-761 817.48,-761 817.48,4 -4,4"/>
<!-- BB0 -->
<g id="node1" class="node">
<title>BB0</title>
<ellipse fill="none" stroke="black" cx="439.24" cy="-708.92" rx="103.48" ry="48.17"/>
<text text-anchor="middle" x="439.24" y="-727.72" font-family="Times New Roman,serif" font-size="14.00">[0..18)</text>
<text text-anchor="middle" x="439.24" y="-712.72" font-family="Times New Roman,serif" font-size="14.00">Count: 121</text>
<text text-anchor="middle" x="439.24" y="-697.72" font-family="Times New Roman,serif" font-size="14.00">Normalized count: 1.00</text>
<text text-anchor="middle" x="439.24" y="-682.72" font-family="Times New Roman,serif" font-size="14.00">Samples weight: 0.05</text>
</g>
<!-- BB4 -->
<g id="node5" class="node">
<title>BB4</title>
<ellipse fill="none" stroke="black" cx="439.24" cy="-576.75" rx="103.48" ry="48.17"/>
<text text-anchor="middle" x="439.24" y="-595.55" font-family="Times New Roman,serif" font-size="14.00">[26..2e)</text>
<text text-anchor="middle" x="439.24" y="-580.55" font-family="Times New Roman,serif" font-size="14.00">Count: 651</text>
<text text-anchor="middle" x="439.24" y="-565.55" font-family="Times New Roman,serif" font-size="14.00">Normalized count: 5.38</text>
<text text-anchor="middle" x="439.24" y="-550.55" font-family="Times New Roman,serif" font-size="14.00">Samples weight: 0.25</text>
</g>
<!-- BB0&#45;&gt;BB4 -->
<g id="edge1" class="edge">
<title>BB0&#45;&gt;BB4</title>
<path fill="none" stroke="black" d="M439.24,-660.55C439.24,-652.29 439.24,-643.6 439.24,-635.1"/>
<polygon fill="black" stroke="black" points="442.74,-634.86 439.24,-624.86 435.74,-634.86 442.74,-634.86"/>
</g>
<!-- BB1 -->
<g id="node2" class="node">
<title>BB1</title>
<ellipse fill="none" stroke="black" cx="327.24" cy="-444.58" rx="103.48" ry="48.17"/>
<text text-anchor="middle" x="327.24" y="-463.38" font-family="Times New Roman,serif" font-size="14.00">[18..1d)</text>
<text text-anchor="middle" x="327.24" y="-448.38" font-family="Times New Roman,serif" font-size="14.00">Count: 610</text>
<text text-anchor="middle" x="327.24" y="-433.38" font-family="Times New Roman,serif" font-size="14.00">Normalized count: 5.04</text>
<text text-anchor="middle" x="327.24" y="-418.38" font-family="Times New Roman,serif" font-size="14.00">Samples weight: 0.24</text>
</g>
<!-- BB2 -->
<g id="node3" class="node">
<title>BB2</title>
<ellipse fill="none" stroke="black" cx="327.24" cy="-312.42" rx="103.48" ry="48.17"/>
<text text-anchor="middle" x="327.24" y="-331.22" font-family="Times New Roman,serif" font-size="14.00">[1d..22)</text>
<text text-anchor="middle" x="327.24" y="-316.22" font-family="Times New Roman,serif" font-size="14.00">Count: 121</text>
<text text-anchor="middle" x="327.24" y="-301.22" font-family="Times New Roman,serif" font-size="14.00">Normalized count: 1.00</text>
<text text-anchor="middle" x="327.24" y="-286.22" font-family="Times New Roman,serif" font-size="14.00">Samples weight: 0.05</text>
</g>
<!-- BB1&#45;&gt;BB2 -->
<g id="edge3" class="edge">
<title>BB1&#45;&gt;BB2</title>
<path fill="none" stroke="black" d="M327.24,-396.22C327.24,-387.95 327.24,-379.27 327.24,-370.77"/>
<polygon fill="black" stroke="black" points="330.74,-370.52 327.24,-360.52 323.74,-370.52 330.74,-370.52"/>
</g>
<!-- BB3 -->
<g id="node4" class="node">
<title>BB3</title>
<ellipse fill="none" stroke="black" cx="103.24" cy="-312.42" rx="103.48" ry="48.17"/>
<text text-anchor="middle" x="103.24" y="-331.22" font-family="Times New Roman,serif" font-size="14.00">[22..26)</text>
<text text-anchor="middle" x="103.24" y="-316.22" font-family="Times New Roman,serif" font-size="14.00">Count: 489</text>
<text text-anchor="middle" x="103.24" y="-301.22" font-family="Times New Roman,serif" font-size="14.00">Normalized count: 4.04</text>
<text text-anchor="middle" x="103.24" y="-286.22" font-family="Times New Roman,serif" font-size="14.00">Samples weight: 0.19</text>
</g>
<!-- BB1&#45;&gt;BB3 -->
<g id="edge2" class="edge">
<title>BB1&#45;&gt;BB3</title>
<path fill="none" stroke="black" d="M263.65,-406.63C236.22,-390.69 203.99,-371.97 175.65,-355.49"/>
<polygon fill="black" stroke="black" points="177.39,-352.46 166.99,-350.46 173.87,-358.51 177.39,-352.46"/>
</g>
<!-- BB11 -->
<g id="node12" class="node">
<title>BB11</title>
<ellipse fill="none" stroke="black" cx="327.24" cy="-180.25" rx="103.48" ry="48.17"/>
<text text-anchor="middle" x="327.24" y="-199.05" font-family="Times New Roman,serif" font-size="14.00">[5d..60)</text>
<text text-anchor="middle" x="327.24" y="-184.05" font-family="Times New Roman,serif" font-size="14.00">Count: 121</text>
<text text-anchor="middle" x="327.24" y="-169.05" font-family="Times New Roman,serif" font-size="14.00">Normalized count: 1.00</text>
<text text-anchor="middle" x="327.24" y="-154.05" font-family="Times New Roman,serif" font-size="14.00">Samples weight: 0.05</text>
</g>
<!-- BB2&#45;&gt;BB11 -->
<g id="edge4" class="edge">
<title>BB2&#45;&gt;BB11</title>
<path fill="none" stroke="black" d="M327.24,-264.05C327.24,-255.79 327.24,-247.1 327.24,-238.6"/>
<polygon fill="black" stroke="black" points="330.74,-238.36 327.24,-228.36 323.74,-238.36 330.74,-238.36"/>
</g>
<!-- BB3&#45;&gt;BB4 -->
<g id="edge5" class="edge">
<title>BB3&#45;&gt;BB4</title>
<path fill="none" stroke="black" d="M121.9,-359.89C140.21,-400.1 171.71,-457.2 215.24,-492.67 250.07,-521.05 295.52,-540.28 336.38,-553.04"/>
<polygon fill="black" stroke="black" points="335.52,-556.43 346.11,-555.98 337.55,-549.73 335.52,-556.43"/>
</g>
<!-- BB4&#45;&gt;BB1 -->
<g id="edge6" class="edge">
<title>BB4&#45;&gt;BB1</title>
<path fill="none" stroke="black" d="M401.32,-531.68C391.83,-520.65 381.57,-508.73 371.79,-497.36"/>
<polygon fill="black" stroke="black" points="374.29,-494.9 365.12,-489.61 368.99,-499.47 374.29,-494.9"/>
</g>
<!-- BB5 -->
<g id="node6" class="node">
<title>BB5</title>
<ellipse fill="none" stroke="black" cx="551.24" cy="-444.58" rx="103.48" ry="48.17"/>
<text text-anchor="middle" x="551.24" y="-463.38" font-family="Times New Roman,serif" font-size="14.00">[2e..37)</text>
<text text-anchor="middle" x="551.24" y="-448.38" font-family="Times New Roman,serif" font-size="14.00">Count: 41</text>
<text text-anchor="middle" x="551.24" y="-433.38" font-family="Times New Roman,serif" font-size="14.00">Normalized count: 0.34</text>
<text text-anchor="middle" x="551.24" y="-418.38" font-family="Times New Roman,serif" font-size="14.00">Samples weight: 0.02</text>
</g>
<!-- BB4&#45;&gt;BB5 -->
<g id="edge7" class="edge">
<title>BB4&#45;&gt;BB5</title>
<path fill="none" stroke="black" d="M477.16,-531.68C486.64,-520.65 496.91,-508.73 506.68,-497.36"/>
<polygon fill="black" stroke="black" points="509.49,-499.47 513.36,-489.61 504.18,-494.9 509.49,-499.47"/>
</g>
<!-- BB9 -->
<g id="node10" class="node">
<title>BB9</title>
<ellipse fill="none" stroke="black" cx="551.24" cy="-312.42" rx="103.48" ry="48.17"/>
<text text-anchor="middle" x="551.24" y="-331.22" font-family="Times New Roman,serif" font-size="14.00">[50..55)</text>
<text text-anchor="middle" x="551.24" y="-316.22" font-family="Times New Roman,serif" font-size="14.00">Count: 134</text>
<text text-anchor="middle" x="551.24" y="-301.22" font-family="Times New Roman,serif" font-size="14.00">Normalized count: 1.11</text>
<text text-anchor="middle" x="551.24" y="-286.22" font-family="Times New Roman,serif" font-size="14.00">Samples weight: 0.05</text>
</g>
<!-- BB5&#45;&gt;BB9 -->
<g id="edge8" class="edge">
<title>BB5&#45;&gt;BB9</title>
<path fill="none" stroke="black" d="M551.24,-396.22C551.24,-387.95 551.24,-379.27 551.24,-370.77"/>
<polygon fill="black" stroke="black" points="554.74,-370.52 551.24,-360.52 547.74,-370.52 554.74,-370.52"/>
</g>
<!-- BB6 -->
<g id="node7" class="node">
<title>BB6</title>
<ellipse fill="none" stroke="black" cx="589.24" cy="-180.25" rx="103.48" ry="48.17"/>
<text text-anchor="middle" x="589.24" y="-199.05" font-family="Times New Roman,serif" font-size="14.00">[37..43)</text>
<text text-anchor="middle" x="589.24" y="-184.05" font-family="Times New Roman,serif" font-size="14.00">Count: 134</text>
<text text-anchor="middle" x="589.24" y="-169.05" font-family="Times New Roman,serif" font-size="14.00">Normalized count: 1.11</text>
<text text-anchor="middle" x="589.24" y="-154.05" font-family="Times New Roman,serif" font-size="14.00">Samples weight: 0.05</text>
</g>
<!-- BB7 -->
<g id="node8" class="node">
<title>BB7</title>
<ellipse fill="none" stroke="black" cx="710.24" cy="-48.08" rx="103.48" ry="48.17"/>
<text text-anchor="middle" x="710.24" y="-66.88" font-family="Times New Roman,serif" font-size="14.00">[43..4c)</text>
<text text-anchor="middle" x="710.24" y="-51.88" font-family="Times New Roman,serif" font-size="14.00">Count: 41</text>
<text text-anchor="middle" x="710.24" y="-36.88" font-family="Times New Roman,serif" font-size="14.00">Normalized count: 0.34</text>
<text text-anchor="middle" x="710.24" y="-21.88" font-family="Times New Roman,serif" font-size="14.00">Samples weight: 0.02</text>
</g>
<!-- BB6&#45;&gt;BB7 -->
<g id="edge10" class="edge">
<title>BB6&#45;&gt;BB7</title>
<path fill="none" stroke="black" d="M629.53,-135.91C640.13,-124.5 651.67,-112.09 662.62,-100.31"/>
<polygon fill="black" stroke="black" points="665.46,-102.39 669.71,-92.68 660.34,-97.62 665.46,-102.39"/>
</g>
<!-- BB8 -->
<g id="node9" class="node">
<title>BB8</title>
<ellipse fill="none" stroke="black" cx="467.24" cy="-48.08" rx="103.48" ry="48.17"/>
<text text-anchor="middle" x="467.24" y="-66.88" font-family="Times New Roman,serif" font-size="14.00">[4c..50)</text>
<text text-anchor="middle" x="467.24" y="-51.88" font-family="Times New Roman,serif" font-size="14.00">Count: 93</text>
<text text-anchor="middle" x="467.24" y="-36.88" font-family="Times New Roman,serif" font-size="14.00">Normalized count: 0.77</text>
<text text-anchor="middle" x="467.24" y="-21.88" font-family="Times New Roman,serif" font-size="14.00">Samples weight: 0.04</text>
</g>
<!-- BB6&#45;&gt;BB8 -->
<g id="edge9" class="edge">
<title>BB6&#45;&gt;BB8</title>
<path fill="none" stroke="black" d="M548.61,-135.91C537.92,-124.5 526.29,-112.09 515.25,-100.31"/>
<polygon fill="black" stroke="black" points="517.49,-97.58 508.1,-92.68 512.39,-102.37 517.49,-97.58"/>
</g>
<!-- BB7&#45;&gt;BB4 -->
<g id="edge11" class="edge">
<title>BB7&#45;&gt;BB4</title>
<path fill="none" stroke="black" d="M720.28,-96.01C736.27,-184.31 756.88,-376.67 663.24,-492.67 634.84,-527.85 590.01,-548.13 547.89,-559.83"/>
<polygon fill="black" stroke="black" points="546.88,-556.47 538.11,-562.41 548.67,-563.24 546.88,-556.47"/>
</g>
<!-- BB8&#45;&gt;BB9 -->
<g id="edge12" class="edge">
<title>BB8&#45;&gt;BB9</title>
<path fill="none" stroke="black" d="M461.59,-96.25C459.05,-133.53 459.81,-186.13 477.24,-228.33 482.07,-240.03 489.27,-251.17 497.31,-261.29"/>
<polygon fill="black" stroke="black" points="494.81,-263.75 503.91,-269.17 500.18,-259.26 494.81,-263.75"/>
</g>
<!-- BB9&#45;&gt;BB6 -->
<g id="edge13" class="edge">
<title>BB9&#45;&gt;BB6</title>
<path fill="none" stroke="black" d="M564.96,-264.42C567.46,-255.85 570.09,-246.83 572.67,-238.01"/>
<polygon fill="black" stroke="black" points="576.1,-238.75 575.54,-228.17 569.38,-236.79 576.1,-238.75"/>
</g>
<!-- BB10 -->
<g id="node11" class="node">
<title>BB10</title>
<ellipse fill="none" stroke="black" cx="103.24" cy="-180.25" rx="103.48" ry="48.17"/>
<text text-anchor="middle" x="103.24" y="-199.05" font-family="Times New Roman,serif" font-size="14.00">[55..5d)</text>
<text text-anchor="middle" x="103.24" y="-184.05" font-family="Times New Roman,serif" font-size="14.00">Count: 0</text>
<text text-anchor="middle" x="103.24" y="-169.05" font-family="Times New Roman,serif" font-size="14.00">Normalized count: 0.00</text>
<text text-anchor="middle" x="103.24" y="-154.05" font-family="Times New Roman,serif" font-size="14.00">Samples weight: 0.00</text>
</g>
<!-- BB9&#45;&gt;BB10 -->
<g id="edge14" class="edge">
<title>BB9&#45;&gt;BB10</title>
<path fill="none" stroke="black" d="M478.94,-278.08C465.92,-272.92 452.32,-268.08 439.24,-264.33 342.29,-236.6 312.18,-256.07 215.24,-228.33 205.33,-225.5 195.12,-222.03 185.08,-218.27"/>
<polygon fill="black" stroke="black" points="186.12,-214.92 175.53,-214.59 183.61,-221.45 186.12,-214.92"/>
</g>
<!-- BB10&#45;&gt;BB11 -->
<g id="edge15" class="edge">
<title>BB10&#45;&gt;BB11</title>
<path fill="none" stroke="black" d="M206.49,-180.25C208.94,-180.25 211.4,-180.25 213.85,-180.25"/>
<polygon fill="black" stroke="black" points="213.94,-183.75 223.94,-180.25 213.94,-176.75 213.94,-183.75"/>
</g>
</g>
</svg>
