<?xml version="1.0" encoding="UTF-8" standalone="no"?>
<!DOCTYPE svg PUBLIC "-//W3C//DTD SVG 1.1//EN"
 "http://www.w3.org/Graphics/SVG/1.1/DTD/svg11.dtd">
<!-- Generated by graphviz version 2.47.0 (20210316.0004)
 -->
<!-- Title: G Pages: 1 -->
<svg width="306pt" height="690pt"
 viewBox="0.00 0.00 306.29 689.92" xmlns="http://www.w3.org/2000/svg" xmlns:xlink="http://www.w3.org/1999/xlink">
<g id="graph0" class="graph" transform="scale(1 1) rotate(0) translate(4 685.92)">
<title>G</title>
<polygon fill="white" stroke="transparent" points="-4,4 -4,-685.92 302.29,-685.92 302.29,4 -4,4"/>
<!-- BB0 -->
<g id="node1" class="node">
<title>BB0</title>
<ellipse fill="none" stroke="black" cx="133.96" cy="-655.05" rx="37.45" ry="26.74"/>
<text text-anchor="middle" x="133.96" y="-658.85" font-family="Times New Roman,serif" font-size="14.00">[0..69)</text>
<text text-anchor="middle" x="133.96" y="-643.85" font-family="Times New Roman,serif" font-size="14.00">0.00</text>
</g>
<!-- BB10 -->
<g id="node11" class="node">
<title>BB10</title>
<ellipse fill="none" stroke="black" cx="133.96" cy="-565.31" rx="51.74" ry="26.74"/>
<text text-anchor="middle" x="133.96" y="-569.11" font-family="Times New Roman,serif" font-size="14.00">[11a..126)</text>
<text text-anchor="middle" x="133.96" y="-554.11" font-family="Times New Roman,serif" font-size="14.00">0.01</text>
</g>
<!-- BB0&#45;&gt;BB10 -->
<g id="edge1" class="edge">
<title>BB0&#45;&gt;BB10</title>
<path fill="none" stroke="black" d="M133.96,-627.73C133.96,-619.76 133.96,-610.87 133.96,-602.38"/>
<polygon fill="black" stroke="black" points="137.46,-602.31 133.96,-592.31 130.46,-602.31 137.46,-602.31"/>
</g>
<!-- BB1 -->
<g id="node2" class="node">
<title>BB1</title>
<ellipse fill="none" stroke="black" cx="133.96" cy="-475.57" rx="41.94" ry="26.74"/>
<text text-anchor="middle" x="133.96" y="-479.37" font-family="Times New Roman,serif" font-size="14.00">[69..a1)</text>
<text text-anchor="middle" x="133.96" y="-464.37" font-family="Times New Roman,serif" font-size="14.00">0.10</text>
</g>
<!-- BB3 -->
<g id="node4" class="node">
<title>BB3</title>
<ellipse fill="none" stroke="black" cx="186.96" cy="-385.83" rx="43.68" ry="26.74"/>
<text text-anchor="middle" x="186.96" y="-389.63" font-family="Times New Roman,serif" font-size="14.00">[b4..b8)</text>
<text text-anchor="middle" x="186.96" y="-374.63" font-family="Times New Roman,serif" font-size="14.00">0.04</text>
</g>
<!-- BB1&#45;&gt;BB3 -->
<g id="edge2" class="edge">
<title>BB1&#45;&gt;BB3</title>
<path fill="none" stroke="black" d="M148.73,-450.13C154.31,-440.89 160.76,-430.21 166.75,-420.28"/>
<polygon fill="black" stroke="black" points="169.92,-421.81 172.09,-411.44 163.93,-418.19 169.92,-421.81"/>
</g>
<!-- BB2 -->
<g id="node3" class="node">
<title>BB2</title>
<ellipse fill="none" stroke="black" cx="246.96" cy="-296.09" rx="42.35" ry="26.74"/>
<text text-anchor="middle" x="246.96" y="-299.89" font-family="Times New Roman,serif" font-size="14.00">[a1..b4)</text>
<text text-anchor="middle" x="246.96" y="-284.89" font-family="Times New Roman,serif" font-size="14.00">0.07</text>
</g>
<!-- BB2&#45;&gt;BB3 -->
<g id="edge3" class="edge">
<title>BB2&#45;&gt;BB3</title>
<path fill="none" stroke="black" d="M236.03,-322.08C229.87,-332.06 222.06,-343.64 214.44,-354.12"/>
<polygon fill="black" stroke="black" points="211.56,-352.12 208.4,-362.24 217.18,-356.3 211.56,-352.12"/>
</g>
<!-- BB3&#45;&gt;BB2 -->
<g id="edge4" class="edge">
<title>BB3&#45;&gt;BB2</title>
<path fill="none" stroke="black" d="M198.13,-359.45C204.31,-349.47 212.12,-337.92 219.71,-327.5"/>
<polygon fill="black" stroke="black" points="222.55,-329.54 225.72,-319.43 216.94,-325.36 222.55,-329.54"/>
</g>
<!-- BB4 -->
<g id="node5" class="node">
<title>BB4</title>
<ellipse fill="none" stroke="black" cx="142.96" cy="-296.09" rx="43.68" ry="26.74"/>
<text text-anchor="middle" x="142.96" y="-299.89" font-family="Times New Roman,serif" font-size="14.00">[b8..d9)</text>
<text text-anchor="middle" x="142.96" y="-284.89" font-family="Times New Roman,serif" font-size="14.00">0.08</text>
</g>
<!-- BB3&#45;&gt;BB4 -->
<g id="edge5" class="edge">
<title>BB3&#45;&gt;BB4</title>
<path fill="none" stroke="black" d="M174.47,-359.92C169.97,-350.94 164.8,-340.64 159.98,-331.02"/>
<polygon fill="black" stroke="black" points="163.1,-329.43 155.48,-322.06 156.84,-332.57 163.1,-329.43"/>
</g>
<!-- BB8 -->
<g id="node9" class="node">
<title>BB8</title>
<ellipse fill="none" stroke="black" cx="146.96" cy="-206.35" rx="39.7" ry="26.74"/>
<text text-anchor="middle" x="146.96" y="-210.15" font-family="Times New Roman,serif" font-size="14.00">[f4..fd)</text>
<text text-anchor="middle" x="146.96" y="-195.15" font-family="Times New Roman,serif" font-size="14.00">0.02</text>
</g>
<!-- BB4&#45;&gt;BB8 -->
<g id="edge6" class="edge">
<title>BB4&#45;&gt;BB8</title>
<path fill="none" stroke="black" d="M144.16,-268.77C144.53,-260.8 144.93,-251.91 145.32,-243.42"/>
<polygon fill="black" stroke="black" points="148.82,-243.5 145.78,-233.35 141.82,-243.18 148.82,-243.5"/>
</g>
<!-- BB5 -->
<g id="node6" class="node">
<title>BB5</title>
<ellipse fill="none" stroke="black" cx="151.96" cy="-116.61" rx="42.35" ry="26.74"/>
<text text-anchor="middle" x="151.96" y="-120.41" font-family="Times New Roman,serif" font-size="14.00">[d9..e5)</text>
<text text-anchor="middle" x="151.96" y="-105.41" font-family="Times New Roman,serif" font-size="14.00">0.05</text>
</g>
<!-- BB6 -->
<g id="node7" class="node">
<title>BB6</title>
<ellipse fill="none" stroke="black" cx="120.96" cy="-26.87" rx="41.94" ry="26.74"/>
<text text-anchor="middle" x="120.96" y="-30.67" font-family="Times New Roman,serif" font-size="14.00">[e5..ed)</text>
<text text-anchor="middle" x="120.96" y="-15.67" font-family="Times New Roman,serif" font-size="14.00">0.04</text>
</g>
<!-- BB5&#45;&gt;BB6 -->
<g id="edge8" class="edge">
<title>BB5&#45;&gt;BB6</title>
<path fill="none" stroke="black" d="M143,-90.23C139.98,-81.68 136.55,-71.99 133.32,-62.83"/>
<polygon fill="black" stroke="black" points="136.54,-61.45 129.91,-53.19 129.94,-63.79 136.54,-61.45"/>
</g>
<!-- BB7 -->
<g id="node8" class="node">
<title>BB7</title>
<ellipse fill="none" stroke="black" cx="221.96" cy="-26.87" rx="41.02" ry="26.74"/>
<text text-anchor="middle" x="221.96" y="-30.67" font-family="Times New Roman,serif" font-size="14.00">[ed..f4)</text>
<text text-anchor="middle" x="221.96" y="-15.67" font-family="Times New Roman,serif" font-size="14.00">0.06</text>
</g>
<!-- BB5&#45;&gt;BB7 -->
<g id="edge7" class="edge">
<title>BB5&#45;&gt;BB7</title>
<path fill="none" stroke="black" d="M170.72,-92.1C178.79,-81.98 188.34,-70.02 196.99,-59.17"/>
<polygon fill="black" stroke="black" points="199.89,-61.14 203.39,-51.14 194.42,-56.78 199.89,-61.14"/>
</g>
<!-- BB6&#45;&gt;BB7 -->
<g id="edge9" class="edge">
<title>BB6&#45;&gt;BB7</title>
<path fill="none" stroke="black" d="M162.78,-26.87C165.41,-26.87 168.04,-26.87 170.67,-26.87"/>
<polygon fill="black" stroke="black" points="170.81,-30.37 180.81,-26.87 170.81,-23.37 170.81,-30.37"/>
</g>
<!-- BB7&#45;&gt;BB8 -->
<g id="edge10" class="edge">
<title>BB7&#45;&gt;BB8</title>
<path fill="none" stroke="black" d="M221.84,-53.93C220.78,-78.22 216.74,-114.9 202.96,-143.48 196.95,-155.96 187.61,-167.75 178.27,-177.62"/>
<polygon fill="black" stroke="black" points="175.74,-175.21 171.19,-184.78 180.71,-180.13 175.74,-175.21"/>
</g>
<!-- BB8&#45;&gt;BB5 -->
<g id="edge11" class="edge">
<title>BB8&#45;&gt;BB5</title>
<path fill="none" stroke="black" d="M148.46,-179.03C148.92,-171.06 149.42,-162.17 149.91,-153.68"/>
<polygon fill="black" stroke="black" points="153.41,-153.8 150.48,-143.61 146.42,-153.4 153.41,-153.8"/>
</g>
<!-- BB9 -->
<g id="node10" class="node">
<title>BB9</title>
<ellipse fill="none" stroke="black" cx="45.96" cy="-116.61" rx="45.92" ry="26.74"/>
<text text-anchor="middle" x="45.96" y="-120.41" font-family="Times New Roman,serif" font-size="14.00">[fd..11a)</text>
<text text-anchor="middle" x="45.96" y="-105.41" font-family="Times New Roman,serif" font-size="14.00">0.54</text>
</g>
<!-- BB8&#45;&gt;BB9 -->
<g id="edge12" class="edge">
<title>BB8&#45;&gt;BB9</title>
<path fill="none" stroke="black" d="M123.28,-184.78C110,-173.24 93.23,-158.67 78.7,-146.05"/>
<polygon fill="black" stroke="black" points="80.75,-143.19 70.9,-139.28 76.16,-148.48 80.75,-143.19"/>
</g>
<!-- BB9&#45;&gt;BB10 -->
<g id="edge13" class="edge">
<title>BB9&#45;&gt;BB10</title>
<path fill="none" stroke="black" d="M49.99,-143.4C55.02,-177.88 62.96,-240.92 62.96,-295.09 62.96,-386.83 62.96,-386.83 62.96,-386.83 62.96,-438.98 61.21,-455.05 82.96,-502.44 88.04,-513.5 95.59,-524.22 103.34,-533.54"/>
<polygon fill="black" stroke="black" points="100.93,-536.1 110.14,-541.34 106.21,-531.51 100.93,-536.1"/>
</g>
<!-- BB10&#45;&gt;BB1 -->
<g id="edge14" class="edge">
<title>BB10&#45;&gt;BB1</title>
<path fill="none" stroke="black" d="M133.96,-537.99C133.96,-530.02 133.96,-521.13 133.96,-512.64"/>
<polygon fill="black" stroke="black" points="137.46,-512.57 133.96,-502.57 130.46,-512.57 137.46,-512.57"/>
</g>
<!-- BB11 -->
<g id="node12" class="node">
<title>BB11</title>
<ellipse fill="none" stroke="black" cx="245.96" cy="-475.57" rx="52.15" ry="26.74"/>
<text text-anchor="middle" x="245.96" y="-479.37" font-family="Times New Roman,serif" font-size="14.00">[126..127)</text>
<text text-anchor="middle" x="245.96" y="-464.37" font-family="Times New Roman,serif" font-size="14.00">0.00</text>
</g>
<!-- BB10&#45;&gt;BB11 -->
<g id="edge15" class="edge">
<title>BB10&#45;&gt;BB11</title>
<path fill="none" stroke="black" d="M161.65,-542.62C176.21,-531.21 194.24,-517.09 209.88,-504.83"/>
<polygon fill="black" stroke="black" points="212.1,-507.54 217.82,-498.62 207.79,-502.03 212.1,-507.54"/>
</g>
</g>
</svg>
