<?xml version="1.0" encoding="UTF-8" standalone="no"?>
<!DOCTYPE svg PUBLIC "-//W3C//DTD SVG 1.1//EN"
 "http://www.w3.org/Graphics/SVG/1.1/DTD/svg11.dtd">
<!-- Generated by graphviz version 2.47.0 (20210316.0004)
 -->
<!-- Title: G Pages: 1 -->
<svg width="677pt" height="527pt"
 viewBox="0.00 0.00 676.72 526.77" xmlns="http://www.w3.org/2000/svg" xmlns:xlink="http://www.w3.org/1999/xlink">
<g id="graph0" class="graph" transform="scale(1 1) rotate(0) translate(4 522.77)">
<title>G</title>
<polygon fill="white" stroke="transparent" points="-4,4 -4,-522.77 672.72,-522.77 672.72,4 -4,4"/>
<!-- BB0 -->
<g id="node1" class="node">
<title>BB0</title>
<ellipse fill="none" stroke="black" cx="105.36" cy="-481.29" rx="105.22" ry="37.45"/>
<text text-anchor="middle" x="105.36" y="-492.59" font-family="Times New Roman,serif" font-size="14.00">[0..c)</text>
<text text-anchor="middle" x="105.36" y="-477.59" font-family="Times New Roman,serif" font-size="14.00">Normalized Count: 1.00</text>
<text text-anchor="middle" x="105.36" y="-462.59" font-family="Times New Roman,serif" font-size="14.00">Samples weight: 0.11</text>
</g>
<!-- BB2 -->
<g id="node3" class="node">
<title>BB2</title>
<ellipse fill="none" stroke="black" cx="105.36" cy="-370.34" rx="105.22" ry="37.45"/>
<text text-anchor="middle" x="105.36" y="-381.64" font-family="Times New Roman,serif" font-size="14.00">[1e..22)</text>
<text text-anchor="middle" x="105.36" y="-366.64" font-family="Times New Roman,serif" font-size="14.00">Normalized Count: 0.32</text>
<text text-anchor="middle" x="105.36" y="-351.64" font-family="Times New Roman,serif" font-size="14.00">Samples weight: 0.03</text>
</g>
<!-- BB0&#45;&gt;BB2 -->
<g id="edge1" class="edge">
<title>BB0&#45;&gt;BB2</title>
<path fill="none" stroke="black" d="M105.36,-443.71C105.36,-435.53 105.36,-426.75 105.36,-418.23"/>
<polygon fill="black" stroke="black" points="108.86,-418.01 105.36,-408.01 101.86,-418.01 108.86,-418.01"/>
</g>
<!-- BB1 -->
<g id="node2" class="node">
<title>BB1</title>
<ellipse fill="none" stroke="black" cx="105.36" cy="-259.38" rx="105.22" ry="37.45"/>
<text text-anchor="middle" x="105.36" y="-270.68" font-family="Times New Roman,serif" font-size="14.00">[c..1e)</text>
<text text-anchor="middle" x="105.36" y="-255.68" font-family="Times New Roman,serif" font-size="14.00">Normalized Count: 2.74</text>
<text text-anchor="middle" x="105.36" y="-240.68" font-family="Times New Roman,serif" font-size="14.00">Samples weight: 0.29</text>
</g>
<!-- BB1&#45;&gt;BB2 -->
<g id="edge2" class="edge">
<title>BB1&#45;&gt;BB2</title>
<path fill="none" stroke="black" d="M111.78,-297.06C112.09,-305.23 112.18,-314.02 112.05,-322.54"/>
<polygon fill="black" stroke="black" points="108.54,-322.66 111.77,-332.75 115.54,-322.85 108.54,-322.66"/>
</g>
<!-- BB2&#45;&gt;BB1 -->
<g id="edge3" class="edge">
<title>BB2&#45;&gt;BB1</title>
<path fill="none" stroke="black" d="M98.94,-332.75C98.63,-324.58 98.54,-315.8 98.67,-307.27"/>
<polygon fill="black" stroke="black" points="102.17,-307.15 98.94,-297.06 95.17,-306.96 102.17,-307.15"/>
</g>
<!-- BB3 -->
<g id="node4" class="node">
<title>BB3</title>
<ellipse fill="none" stroke="black" cx="334.36" cy="-259.38" rx="105.22" ry="37.45"/>
<text text-anchor="middle" x="334.36" y="-270.68" font-family="Times New Roman,serif" font-size="14.00">[22..28)</text>
<text text-anchor="middle" x="334.36" y="-255.68" font-family="Times New Roman,serif" font-size="14.00">Normalized Count: 0.62</text>
<text text-anchor="middle" x="334.36" y="-240.68" font-family="Times New Roman,serif" font-size="14.00">Samples weight: 0.07</text>
</g>
<!-- BB2&#45;&gt;BB3 -->
<g id="edge4" class="edge">
<title>BB2&#45;&gt;BB3</title>
<path fill="none" stroke="black" d="M167.33,-339.85C196.86,-325.8 232.34,-308.92 262.99,-294.34"/>
<polygon fill="black" stroke="black" points="264.81,-297.35 272.34,-289.89 261.8,-291.03 264.81,-297.35"/>
</g>
<!-- BB5 -->
<g id="node6" class="node">
<title>BB5</title>
<ellipse fill="none" stroke="black" cx="334.36" cy="-148.43" rx="105.22" ry="37.45"/>
<text text-anchor="middle" x="334.36" y="-159.73" font-family="Times New Roman,serif" font-size="14.00">[3a..3e)</text>
<text text-anchor="middle" x="334.36" y="-144.73" font-family="Times New Roman,serif" font-size="14.00">Normalized Count: 0.43</text>
<text text-anchor="middle" x="334.36" y="-129.73" font-family="Times New Roman,serif" font-size="14.00">Samples weight: 0.05</text>
</g>
<!-- BB3&#45;&gt;BB5 -->
<g id="edge5" class="edge">
<title>BB3&#45;&gt;BB5</title>
<path fill="none" stroke="black" d="M334.36,-221.8C334.36,-213.63 334.36,-204.85 334.36,-196.32"/>
<polygon fill="black" stroke="black" points="337.86,-196.1 334.36,-186.1 330.86,-196.1 337.86,-196.1"/>
</g>
<!-- BB4 -->
<g id="node5" class="node">
<title>BB4</title>
<ellipse fill="none" stroke="black" cx="334.36" cy="-37.48" rx="105.22" ry="37.45"/>
<text text-anchor="middle" x="334.36" y="-48.78" font-family="Times New Roman,serif" font-size="14.00">[28..3a)</text>
<text text-anchor="middle" x="334.36" y="-33.78" font-family="Times New Roman,serif" font-size="14.00">Normalized Count: 4.34</text>
<text text-anchor="middle" x="334.36" y="-18.78" font-family="Times New Roman,serif" font-size="14.00">Samples weight: 0.46</text>
</g>
<!-- BB4&#45;&gt;BB5 -->
<g id="edge6" class="edge">
<title>BB4&#45;&gt;BB5</title>
<path fill="none" stroke="black" d="M340.78,-75.15C341.09,-83.33 341.18,-92.11 341.05,-100.63"/>
<polygon fill="black" stroke="black" points="337.54,-100.76 340.77,-110.85 344.54,-100.94 337.54,-100.76"/>
</g>
<!-- BB5&#45;&gt;BB4 -->
<g id="edge7" class="edge">
<title>BB5&#45;&gt;BB4</title>
<path fill="none" stroke="black" d="M327.94,-110.85C327.63,-102.67 327.54,-93.89 327.67,-85.37"/>
<polygon fill="black" stroke="black" points="331.17,-85.24 327.94,-75.15 324.17,-85.05 331.17,-85.24"/>
</g>
<!-- BB6 -->
<g id="node7" class="node">
<title>BB6</title>
<ellipse fill="none" stroke="black" cx="563.36" cy="-37.48" rx="105.22" ry="37.45"/>
<text text-anchor="middle" x="563.36" y="-48.78" font-family="Times New Roman,serif" font-size="14.00">[3e..3f)</text>
<text text-anchor="middle" x="563.36" y="-33.78" font-family="Times New Roman,serif" font-size="14.00">Normalized Count: 0.00</text>
<text text-anchor="middle" x="563.36" y="-18.78" font-family="Times New Roman,serif" font-size="14.00">Samples weight: 0.00</text>
</g>
<!-- BB5&#45;&gt;BB6 -->
<g id="edge8" class="edge">
<title>BB5&#45;&gt;BB6</title>
<path fill="none" stroke="black" d="M396.33,-117.95C425.86,-103.9 461.34,-87.01 491.99,-72.43"/>
<polygon fill="black" stroke="black" points="493.81,-75.44 501.34,-67.98 490.8,-69.12 493.81,-75.44"/>
</g>
</g>
</svg>
