<?xml version="1.0" encoding="UTF-8" standalone="no"?>
<!DOCTYPE svg PUBLIC "-//W3C//DTD SVG 1.1//EN"
 "http://www.w3.org/Graphics/SVG/1.1/DTD/svg11.dtd">
<!-- Generated by graphviz version 2.47.0 (20210316.0004)
 -->
<!-- Title: G Pages: 1 -->
<svg width="775pt" height="971pt"
 viewBox="0.00 0.00 774.75 970.58" xmlns="http://www.w3.org/2000/svg" xmlns:xlink="http://www.w3.org/1999/xlink">
<g id="graph0" class="graph" transform="scale(1 1) rotate(0) translate(4 966.58)">
<title>G</title>
<polygon fill="white" stroke="transparent" points="-4,4 -4,-966.58 770.75,-966.58 770.75,4 -4,4"/>
<!-- BB0 -->
<g id="node1" class="node">
<title>BB0</title>
<ellipse fill="none" stroke="black" cx="535.39" cy="-925.1" rx="105.22" ry="37.45"/>
<text text-anchor="middle" x="535.39" y="-936.4" font-family="Times New Roman,serif" font-size="14.00">[0..7)</text>
<text text-anchor="middle" x="535.39" y="-921.4" font-family="Times New Roman,serif" font-size="14.00">Normalized Count: 1.00</text>
<text text-anchor="middle" x="535.39" y="-906.4" font-family="Times New Roman,serif" font-size="14.00">Samples weight: 0.00</text>
</g>
<!-- BB8 -->
<g id="node9" class="node">
<title>BB8</title>
<ellipse fill="none" stroke="black" cx="535.39" cy="-814.15" rx="110.12" ry="37.45"/>
<text text-anchor="middle" x="535.39" y="-825.45" font-family="Times New Roman,serif" font-size="14.00">[76..7a)</text>
<text text-anchor="middle" x="535.39" y="-810.45" font-family="Times New Roman,serif" font-size="14.00">Normalized Count: 73.00</text>
<text text-anchor="middle" x="535.39" y="-795.45" font-family="Times New Roman,serif" font-size="14.00">Samples weight: 0.25</text>
</g>
<!-- BB0&#45;&gt;BB8 -->
<g id="edge1" class="edge">
<title>BB0&#45;&gt;BB8</title>
<path fill="none" stroke="black" d="M535.39,-887.52C535.39,-879.35 535.39,-870.57 535.39,-862.04"/>
<polygon fill="black" stroke="black" points="538.89,-861.82 535.39,-851.82 531.89,-861.82 538.89,-861.82"/>
</g>
<!-- BB1 -->
<g id="node2" class="node">
<title>BB1</title>
<ellipse fill="none" stroke="black" cx="504.39" cy="-592.24" rx="110.12" ry="37.45"/>
<text text-anchor="middle" x="504.39" y="-603.54" font-family="Times New Roman,serif" font-size="14.00">[7..14)</text>
<text text-anchor="middle" x="504.39" y="-588.54" font-family="Times New Roman,serif" font-size="14.00">Normalized Count: 72.00</text>
<text text-anchor="middle" x="504.39" y="-573.54" font-family="Times New Roman,serif" font-size="14.00">Samples weight: 0.25</text>
</g>
<!-- BB2 -->
<g id="node3" class="node">
<title>BB2</title>
<ellipse fill="none" stroke="black" cx="504.39" cy="-481.29" rx="110.12" ry="37.45"/>
<text text-anchor="middle" x="504.39" y="-492.59" font-family="Times New Roman,serif" font-size="14.00">[14..1c)</text>
<text text-anchor="middle" x="504.39" y="-477.59" font-family="Times New Roman,serif" font-size="14.00">Normalized Count: 16.00</text>
<text text-anchor="middle" x="504.39" y="-462.59" font-family="Times New Roman,serif" font-size="14.00">Samples weight: 0.05</text>
</g>
<!-- BB1&#45;&gt;BB2 -->
<g id="edge3" class="edge">
<title>BB1&#45;&gt;BB2</title>
<path fill="none" stroke="black" d="M504.39,-554.66C504.39,-546.49 504.39,-537.71 504.39,-529.18"/>
<polygon fill="black" stroke="black" points="507.89,-528.96 504.39,-518.96 500.89,-528.96 507.89,-528.96"/>
</g>
<!-- BB1&#45;&gt;BB8 -->
<g id="edge2" class="edge">
<title>BB1&#45;&gt;BB8</title>
<path fill="none" stroke="black" d="M519.88,-629.49C524.07,-640.88 528.08,-653.64 530.39,-665.72 536.74,-698.88 537.87,-736.97 537.48,-766.13"/>
<polygon fill="black" stroke="black" points="533.98,-766.38 537.27,-776.45 540.97,-766.52 533.98,-766.38"/>
</g>
<!-- BB3 -->
<g id="node4" class="node">
<title>BB3</title>
<ellipse fill="none" stroke="black" cx="504.39" cy="-370.34" rx="110.12" ry="37.45"/>
<text text-anchor="middle" x="504.39" y="-381.64" font-family="Times New Roman,serif" font-size="14.00">[1c..2a)</text>
<text text-anchor="middle" x="504.39" y="-366.64" font-family="Times New Roman,serif" font-size="14.00">Normalized Count: 16.00</text>
<text text-anchor="middle" x="504.39" y="-351.64" font-family="Times New Roman,serif" font-size="14.00">Samples weight: 0.05</text>
</g>
<!-- BB2&#45;&gt;BB3 -->
<g id="edge5" class="edge">
<title>BB2&#45;&gt;BB3</title>
<path fill="none" stroke="black" d="M504.39,-443.71C504.39,-435.53 504.39,-426.75 504.39,-418.23"/>
<polygon fill="black" stroke="black" points="507.89,-418.01 504.39,-408.01 500.89,-418.01 507.89,-418.01"/>
</g>
<!-- BB2&#45;&gt;BB8 -->
<g id="edge4" class="edge">
<title>BB2&#45;&gt;BB8</title>
<path fill="none" stroke="black" d="M575.84,-510.07C594.65,-521.03 612.67,-535.68 623.39,-554.77 663.05,-625.36 610.57,-716.82 571.27,-769.84"/>
<polygon fill="black" stroke="black" points="568.34,-767.93 565.1,-778.02 573.92,-772.15 568.34,-767.93"/>
</g>
<!-- BB4 -->
<g id="node5" class="node">
<title>BB4</title>
<ellipse fill="none" stroke="black" cx="504.39" cy="-259.38" rx="110.12" ry="37.45"/>
<text text-anchor="middle" x="504.39" y="-270.68" font-family="Times New Roman,serif" font-size="14.00">[2a..4c)</text>
<text text-anchor="middle" x="504.39" y="-255.68" font-family="Times New Roman,serif" font-size="14.00">Normalized Count: 16.00</text>
<text text-anchor="middle" x="504.39" y="-240.68" font-family="Times New Roman,serif" font-size="14.00">Samples weight: 0.05</text>
</g>
<!-- BB3&#45;&gt;BB4 -->
<g id="edge7" class="edge">
<title>BB3&#45;&gt;BB4</title>
<path fill="none" stroke="black" d="M504.39,-332.75C504.39,-324.58 504.39,-315.8 504.39,-307.27"/>
<polygon fill="black" stroke="black" points="507.89,-307.06 504.39,-297.06 500.89,-307.06 507.89,-307.06"/>
</g>
<!-- BB3&#45;&gt;BB8 -->
<g id="edge6" class="edge">
<title>BB3&#45;&gt;BB8</title>
<path fill="none" stroke="black" d="M422.23,-395.38C253.54,-448.66 -105.07,-584.39 30.39,-740.67 79.12,-796.89 281.37,-810.54 414.66,-813.28"/>
<polygon fill="black" stroke="black" points="414.87,-816.78 424.94,-813.47 415.01,-809.78 414.87,-816.78"/>
</g>
<!-- BB5 -->
<g id="node6" class="node">
<title>BB5</title>
<ellipse fill="none" stroke="black" cx="595.39" cy="-148.43" rx="105.22" ry="37.45"/>
<text text-anchor="middle" x="595.39" y="-159.73" font-family="Times New Roman,serif" font-size="14.00">[4c..5b)</text>
<text text-anchor="middle" x="595.39" y="-144.73" font-family="Times New Roman,serif" font-size="14.00">Normalized Count: 8.50</text>
<text text-anchor="middle" x="595.39" y="-129.73" font-family="Times New Roman,serif" font-size="14.00">Samples weight: 0.03</text>
</g>
<!-- BB4&#45;&gt;BB5 -->
<g id="edge9" class="edge">
<title>BB4&#45;&gt;BB5</title>
<path fill="none" stroke="black" d="M533.93,-223.01C542.04,-213.3 550.92,-202.67 559.35,-192.58"/>
<polygon fill="black" stroke="black" points="562.27,-194.55 565.99,-184.63 556.89,-190.06 562.27,-194.55"/>
</g>
<!-- BB7 -->
<g id="node8" class="node">
<title>BB7</title>
<ellipse fill="none" stroke="black" cx="366.39" cy="-148.43" rx="105.22" ry="37.45"/>
<text text-anchor="middle" x="366.39" y="-159.73" font-family="Times New Roman,serif" font-size="14.00">[73..76)</text>
<text text-anchor="middle" x="366.39" y="-144.73" font-family="Times New Roman,serif" font-size="14.00">Normalized Count: 7.50</text>
<text text-anchor="middle" x="366.39" y="-129.73" font-family="Times New Roman,serif" font-size="14.00">Samples weight: 0.03</text>
</g>
<!-- BB4&#45;&gt;BB7 -->
<g id="edge8" class="edge">
<title>BB4&#45;&gt;BB7</title>
<path fill="none" stroke="black" d="M461.48,-224.51C447.33,-213.33 431.46,-200.8 416.8,-189.23"/>
<polygon fill="black" stroke="black" points="418.81,-186.36 408.8,-182.91 414.47,-191.85 418.81,-186.36"/>
</g>
<!-- BB6 -->
<g id="node7" class="node">
<title>BB6</title>
<ellipse fill="none" stroke="black" cx="661.39" cy="-37.48" rx="105.22" ry="37.45"/>
<text text-anchor="middle" x="661.39" y="-48.78" font-family="Times New Roman,serif" font-size="14.00">[5b..73)</text>
<text text-anchor="middle" x="661.39" y="-33.78" font-family="Times New Roman,serif" font-size="14.00">Normalized Count: 8.50</text>
<text text-anchor="middle" x="661.39" y="-18.78" font-family="Times New Roman,serif" font-size="14.00">Samples weight: 0.03</text>
</g>
<!-- BB5&#45;&gt;BB6 -->
<g id="edge11" class="edge">
<title>BB5&#45;&gt;BB6</title>
<path fill="none" stroke="black" d="M617.18,-111.45C622.64,-102.43 628.57,-92.65 634.26,-83.26"/>
<polygon fill="black" stroke="black" points="637.43,-84.78 639.62,-74.42 631.44,-81.16 637.43,-84.78"/>
</g>
<!-- BB5&#45;&gt;BB8 -->
<g id="edge10" class="edge">
<title>BB5&#45;&gt;BB8</title>
<path fill="none" stroke="black" d="M618.61,-185.14C643.78,-227.36 680.39,-300.57 680.39,-369.34 680.39,-593.24 680.39,-593.24 680.39,-593.24 680.39,-663.34 665.41,-683.84 624.39,-740.67 615.67,-752.75 604.46,-763.95 592.95,-773.77"/>
<polygon fill="black" stroke="black" points="590.46,-771.28 584.96,-780.33 594.91,-776.69 590.46,-771.28"/>
</g>
<!-- BB6&#45;&gt;BB8 -->
<g id="edge12" class="edge">
<title>BB6&#45;&gt;BB8</title>
<path fill="none" stroke="black" d="M689.53,-73.95C697.14,-85.21 704.59,-98.08 709.39,-110.95 732.45,-172.86 728.39,-192.32 728.39,-258.38 728.39,-593.24 728.39,-593.24 728.39,-593.24 728.39,-665.4 708.98,-687.33 660.39,-740.67 646.52,-755.89 628.7,-768.8 610.89,-779.32"/>
<polygon fill="black" stroke="black" points="609.12,-776.3 602.16,-784.29 612.58,-782.38 609.12,-776.3"/>
</g>
<!-- BB7&#45;&gt;BB8 -->
<g id="edge13" class="edge">
<title>BB7&#45;&gt;BB8</title>
<path fill="none" stroke="black" d="M366.39,-186.01C366.39,-229.65 366.39,-304.82 366.39,-369.34 366.39,-482.29 366.39,-482.29 366.39,-482.29 366.39,-548.36 343.13,-578.93 385.39,-629.72 418.83,-669.91 461.52,-627.68 497.39,-665.72 511.06,-680.22 521.81,-728.81 528.34,-766.28"/>
<polygon fill="black" stroke="black" points="524.95,-767.24 530.07,-776.52 531.85,-766.08 524.95,-767.24"/>
</g>
<!-- BB9 -->
<g id="node10" class="node">
<title>BB9</title>
<ellipse fill="none" stroke="black" cx="149.39" cy="-703.2" rx="110.12" ry="37.45"/>
<text text-anchor="middle" x="149.39" y="-714.5" font-family="Times New Roman,serif" font-size="14.00">[7a..7e)</text>
<text text-anchor="middle" x="149.39" y="-699.5" font-family="Times New Roman,serif" font-size="14.00">Normalized Count: 72.00</text>
<text text-anchor="middle" x="149.39" y="-684.5" font-family="Times New Roman,serif" font-size="14.00">Samples weight: 0.25</text>
</g>
<!-- BB8&#45;&gt;BB9 -->
<g id="edge15" class="edge">
<title>BB8&#45;&gt;BB9</title>
<path fill="none" stroke="black" d="M449.56,-790.44C397.36,-776.46 329.41,-757.97 269.39,-740.67 259.64,-737.86 249.46,-734.87 239.33,-731.85"/>
<polygon fill="black" stroke="black" points="240.24,-728.46 229.66,-728.95 238.23,-735.17 240.24,-728.46"/>
</g>
<!-- BB10 -->
<g id="node11" class="node">
<title>BB10</title>
<ellipse fill="none" stroke="black" cx="383.39" cy="-703.2" rx="105.22" ry="37.45"/>
<text text-anchor="middle" x="383.39" y="-714.5" font-family="Times New Roman,serif" font-size="14.00">[7e..7f)</text>
<text text-anchor="middle" x="383.39" y="-699.5" font-family="Times New Roman,serif" font-size="14.00">Normalized Count: 1.00</text>
<text text-anchor="middle" x="383.39" y="-684.5" font-family="Times New Roman,serif" font-size="14.00">Samples weight: 0.00</text>
</g>
<!-- BB8&#45;&gt;BB10 -->
<g id="edge14" class="edge">
<title>BB8&#45;&gt;BB10</title>
<path fill="none" stroke="black" d="M488.96,-779.87C472.68,-768.2 454.25,-754.99 437.4,-742.91"/>
<polygon fill="black" stroke="black" points="439.44,-740.07 429.27,-737.09 435.36,-745.76 439.44,-740.07"/>
</g>
<!-- BB9&#45;&gt;BB1 -->
<g id="edge16" class="edge">
<title>BB9&#45;&gt;BB1</title>
<path fill="none" stroke="black" d="M229.94,-677.47C284.77,-660.65 357.39,-638.36 414.16,-620.94"/>
<polygon fill="black" stroke="black" points="415.31,-624.24 423.85,-617.96 413.26,-617.55 415.31,-624.24"/>
</g>
<!-- BB9&#45;&gt;BB10 -->
<g id="edge17" class="edge">
<title>BB9&#45;&gt;BB10</title>
<path fill="none" stroke="black" d="M259.99,-703.2C262.59,-703.2 265.19,-703.2 267.79,-703.2"/>
<polygon fill="black" stroke="black" points="267.82,-706.7 277.82,-703.2 267.82,-699.7 267.82,-706.7"/>
</g>
</g>
</svg>
