<?xml version="1.0" encoding="UTF-8" standalone="no"?>
<!DOCTYPE svg PUBLIC "-//W3C//DTD SVG 1.1//EN"
 "http://www.w3.org/Graphics/SVG/1.1/DTD/svg11.dtd">
<!-- Generated by graphviz version 2.47.0 (20210316.0004)
 -->
<!-- Title: G Pages: 1 -->
<svg width="489pt" height="690pt"
 viewBox="0.00 0.00 489.49 689.92" xmlns="http://www.w3.org/2000/svg" xmlns:xlink="http://www.w3.org/1999/xlink">
<g id="graph0" class="graph" transform="scale(1 1) rotate(0) translate(4 685.92)">
<title>G</title>
<polygon fill="white" stroke="transparent" points="-4,4 -4,-685.92 485.49,-685.92 485.49,4 -4,4"/>
<!-- BB0 -->
<g id="node1" class="node">
<title>BB0</title>
<ellipse fill="none" stroke="black" cx="69.48" cy="-655.05" rx="33.47" ry="26.74"/>
<text text-anchor="middle" x="69.48" y="-658.85" font-family="Times New Roman,serif" font-size="14.00">[0..6)</text>
<text text-anchor="middle" x="69.48" y="-643.85" font-family="Times New Roman,serif" font-size="14.00">0.01</text>
</g>
<!-- BB3 -->
<g id="node4" class="node">
<title>BB3</title>
<ellipse fill="none" stroke="black" cx="69.48" cy="-565.31" rx="43.27" ry="26.74"/>
<text text-anchor="middle" x="69.48" y="-569.11" font-family="Times New Roman,serif" font-size="14.00">[1d..21)</text>
<text text-anchor="middle" x="69.48" y="-554.11" font-family="Times New Roman,serif" font-size="14.00">0.01</text>
</g>
<!-- BB0&#45;&gt;BB3 -->
<g id="edge1" class="edge">
<title>BB0&#45;&gt;BB3</title>
<path fill="none" stroke="black" d="M69.48,-627.73C69.48,-619.76 69.48,-610.87 69.48,-602.38"/>
<polygon fill="black" stroke="black" points="72.98,-602.31 69.48,-592.31 65.98,-602.31 72.98,-602.31"/>
</g>
<!-- BB1 -->
<g id="node2" class="node">
<title>BB1</title>
<ellipse fill="none" stroke="black" cx="37.48" cy="-475.57" rx="37.45" ry="26.74"/>
<text text-anchor="middle" x="37.48" y="-479.37" font-family="Times New Roman,serif" font-size="14.00">[6..16)</text>
<text text-anchor="middle" x="37.48" y="-464.37" font-family="Times New Roman,serif" font-size="14.00">0.02</text>
</g>
<!-- BB2 -->
<g id="node3" class="node">
<title>BB2</title>
<ellipse fill="none" stroke="black" cx="52.48" cy="-385.83" rx="43.27" ry="26.74"/>
<text text-anchor="middle" x="52.48" y="-389.63" font-family="Times New Roman,serif" font-size="14.00">[16..1d)</text>
<text text-anchor="middle" x="52.48" y="-374.63" font-family="Times New Roman,serif" font-size="14.00">0.01</text>
</g>
<!-- BB1&#45;&gt;BB2 -->
<g id="edge3" class="edge">
<title>BB1&#45;&gt;BB2</title>
<path fill="none" stroke="black" d="M41.9,-448.72C43.29,-440.58 44.85,-431.44 46.34,-422.74"/>
<polygon fill="black" stroke="black" points="49.8,-423.25 48.04,-412.8 42.9,-422.07 49.8,-423.25"/>
</g>
<!-- BB1&#45;&gt;BB3 -->
<g id="edge2" class="edge">
<title>BB1&#45;&gt;BB3</title>
<path fill="none" stroke="black" d="M52.26,-500.44C56.08,-509.18 59.94,-519.26 63.16,-528.8"/>
<polygon fill="black" stroke="black" points="59.88,-530.01 66.26,-538.46 66.54,-527.87 59.88,-530.01"/>
</g>
<!-- BB2&#45;&gt;BB3 -->
<g id="edge4" class="edge">
<title>BB2&#45;&gt;BB3</title>
<path fill="none" stroke="black" d="M67.93,-411.11C74.06,-422.13 80.38,-435.61 83.48,-448.7 89.76,-475.27 85.52,-505.97 80.11,-529.05"/>
<polygon fill="black" stroke="black" points="76.71,-528.21 77.66,-538.76 83.5,-529.92 76.71,-528.21"/>
</g>
<!-- BB3&#45;&gt;BB1 -->
<g id="edge5" class="edge">
<title>BB3&#45;&gt;BB1</title>
<path fill="none" stroke="black" d="M54.44,-539.87C50.73,-531.31 46.98,-521.5 43.83,-512.21"/>
<polygon fill="black" stroke="black" points="47.08,-510.86 40.69,-502.41 40.41,-513 47.08,-510.86"/>
</g>
<!-- BB4 -->
<g id="node5" class="node">
<title>BB4</title>
<ellipse fill="none" stroke="black" cx="172.48" cy="-475.57" rx="42.35" ry="26.74"/>
<text text-anchor="middle" x="172.48" y="-479.37" font-family="Times New Roman,serif" font-size="14.00">[21..26)</text>
<text text-anchor="middle" x="172.48" y="-464.37" font-family="Times New Roman,serif" font-size="14.00">0.00</text>
</g>
<!-- BB3&#45;&gt;BB4 -->
<g id="edge6" class="edge">
<title>BB3&#45;&gt;BB4</title>
<path fill="none" stroke="black" d="M94.41,-543.07C108.07,-531.43 125.17,-516.87 139.88,-504.33"/>
<polygon fill="black" stroke="black" points="142.43,-506.76 147.77,-497.61 137.89,-501.43 142.43,-506.76"/>
</g>
<!-- BB5 -->
<g id="node6" class="node">
<title>BB5</title>
<ellipse fill="none" stroke="black" cx="164.48" cy="-385.83" rx="43.27" ry="26.74"/>
<text text-anchor="middle" x="164.48" y="-389.63" font-family="Times New Roman,serif" font-size="14.00">[26..2b)</text>
<text text-anchor="middle" x="164.48" y="-374.63" font-family="Times New Roman,serif" font-size="14.00">0.00</text>
</g>
<!-- BB4&#45;&gt;BB5 -->
<g id="edge8" class="edge">
<title>BB4&#45;&gt;BB5</title>
<path fill="none" stroke="black" d="M170.12,-448.72C169.39,-440.67 168.56,-431.64 167.78,-423.02"/>
<polygon fill="black" stroke="black" points="171.24,-422.44 166.84,-412.8 164.27,-423.08 171.24,-422.44"/>
</g>
<!-- BB7 -->
<g id="node8" class="node">
<title>BB7</title>
<ellipse fill="none" stroke="black" cx="268.48" cy="-385.83" rx="43.27" ry="26.74"/>
<text text-anchor="middle" x="268.48" y="-389.63" font-family="Times New Roman,serif" font-size="14.00">[2d..32)</text>
<text text-anchor="middle" x="268.48" y="-374.63" font-family="Times New Roman,serif" font-size="14.00">0.00</text>
</g>
<!-- BB4&#45;&gt;BB7 -->
<g id="edge7" class="edge">
<title>BB4&#45;&gt;BB7</title>
<path fill="none" stroke="black" d="M196.21,-452.88C208.55,-441.6 223.81,-427.66 237.11,-415.5"/>
<polygon fill="black" stroke="black" points="239.67,-417.9 244.69,-408.57 234.94,-412.74 239.67,-417.9"/>
</g>
<!-- BB6 -->
<g id="node7" class="node">
<title>BB6</title>
<ellipse fill="none" stroke="black" cx="164.48" cy="-296.09" rx="43.68" ry="26.74"/>
<text text-anchor="middle" x="164.48" y="-299.89" font-family="Times New Roman,serif" font-size="14.00">[2b..2d)</text>
<text text-anchor="middle" x="164.48" y="-284.89" font-family="Times New Roman,serif" font-size="14.00">0.00</text>
</g>
<!-- BB5&#45;&gt;BB6 -->
<g id="edge10" class="edge">
<title>BB5&#45;&gt;BB6</title>
<path fill="none" stroke="black" d="M164.48,-358.51C164.48,-350.54 164.48,-341.65 164.48,-333.16"/>
<polygon fill="black" stroke="black" points="167.98,-333.09 164.48,-323.09 160.98,-333.09 167.98,-333.09"/>
</g>
<!-- BB5&#45;&gt;BB7 -->
<g id="edge9" class="edge">
<title>BB5&#45;&gt;BB7</title>
<path fill="none" stroke="black" d="M207.95,-385.83C210.25,-385.83 212.56,-385.83 214.86,-385.83"/>
<polygon fill="black" stroke="black" points="214.97,-389.33 224.97,-385.83 214.97,-382.33 214.97,-389.33"/>
</g>
<!-- BB6&#45;&gt;BB7 -->
<g id="edge11" class="edge">
<title>BB6&#45;&gt;BB7</title>
<path fill="none" stroke="black" d="M189.54,-318.24C203.36,-329.9 220.68,-344.51 235.58,-357.08"/>
<polygon fill="black" stroke="black" points="233.67,-360.04 243.57,-363.81 238.18,-354.69 233.67,-360.04"/>
</g>
<!-- BB8 -->
<g id="node9" class="node">
<title>BB8</title>
<ellipse fill="none" stroke="black" cx="268.48" cy="-296.09" rx="42.35" ry="26.74"/>
<text text-anchor="middle" x="268.48" y="-299.89" font-family="Times New Roman,serif" font-size="14.00">[32..34)</text>
<text text-anchor="middle" x="268.48" y="-284.89" font-family="Times New Roman,serif" font-size="14.00">0.01</text>
</g>
<!-- BB7&#45;&gt;BB8 -->
<g id="edge13" class="edge">
<title>BB7&#45;&gt;BB8</title>
<path fill="none" stroke="black" d="M268.48,-358.51C268.48,-350.54 268.48,-341.65 268.48,-333.16"/>
<polygon fill="black" stroke="black" points="271.98,-333.09 268.48,-323.09 264.98,-333.09 271.98,-333.09"/>
</g>
<!-- BB9 -->
<g id="node10" class="node">
<title>BB9</title>
<ellipse fill="none" stroke="black" cx="371.48" cy="-296.09" rx="42.35" ry="26.74"/>
<text text-anchor="middle" x="371.48" y="-299.89" font-family="Times New Roman,serif" font-size="14.00">[34..38)</text>
<text text-anchor="middle" x="371.48" y="-284.89" font-family="Times New Roman,serif" font-size="14.00">0.01</text>
</g>
<!-- BB7&#45;&gt;BB9 -->
<g id="edge12" class="edge">
<title>BB7&#45;&gt;BB9</title>
<path fill="none" stroke="black" d="M293.41,-363.59C307.07,-351.95 324.17,-337.39 338.88,-324.85"/>
<polygon fill="black" stroke="black" points="341.43,-327.28 346.77,-318.13 336.89,-321.95 341.43,-327.28"/>
</g>
<!-- BB8&#45;&gt;BB9 -->
<g id="edge14" class="edge">
<title>BB8&#45;&gt;BB9</title>
<path fill="none" stroke="black" d="M311.13,-296.09C313.74,-296.09 316.35,-296.09 318.96,-296.09"/>
<polygon fill="black" stroke="black" points="319.04,-299.59 329.04,-296.09 319.04,-292.59 319.04,-299.59"/>
</g>
<!-- BB13 -->
<g id="node14" class="node">
<title>BB13</title>
<ellipse fill="none" stroke="black" cx="371.48" cy="-206.35" rx="40.11" ry="26.74"/>
<text text-anchor="middle" x="371.48" y="-210.15" font-family="Times New Roman,serif" font-size="14.00">[4a..4f)</text>
<text text-anchor="middle" x="371.48" y="-195.15" font-family="Times New Roman,serif" font-size="14.00">0.11</text>
</g>
<!-- BB9&#45;&gt;BB13 -->
<g id="edge15" class="edge">
<title>BB9&#45;&gt;BB13</title>
<path fill="none" stroke="black" d="M371.48,-268.77C371.48,-260.8 371.48,-251.91 371.48,-243.42"/>
<polygon fill="black" stroke="black" points="374.98,-243.35 371.48,-233.35 367.98,-243.35 374.98,-243.35"/>
</g>
<!-- BB10 -->
<g id="node11" class="node">
<title>BB10</title>
<ellipse fill="none" stroke="black" cx="301.48" cy="-116.61" rx="42.35" ry="26.74"/>
<text text-anchor="middle" x="301.48" y="-120.41" font-family="Times New Roman,serif" font-size="14.00">[38..40)</text>
<text text-anchor="middle" x="301.48" y="-105.41" font-family="Times New Roman,serif" font-size="14.00">0.61</text>
</g>
<!-- BB11 -->
<g id="node12" class="node">
<title>BB11</title>
<ellipse fill="none" stroke="black" cx="269.48" cy="-26.87" rx="42.35" ry="26.74"/>
<text text-anchor="middle" x="269.48" y="-30.67" font-family="Times New Roman,serif" font-size="14.00">[40..46)</text>
<text text-anchor="middle" x="269.48" y="-15.67" font-family="Times New Roman,serif" font-size="14.00">0.18</text>
</g>
<!-- BB10&#45;&gt;BB11 -->
<g id="edge17" class="edge">
<title>BB10&#45;&gt;BB11</title>
<path fill="none" stroke="black" d="M292.22,-90.23C289.1,-81.68 285.57,-71.99 282.23,-62.83"/>
<polygon fill="black" stroke="black" points="285.43,-61.39 278.71,-53.19 278.85,-63.79 285.43,-61.39"/>
</g>
<!-- BB12 -->
<g id="node13" class="node">
<title>BB12</title>
<ellipse fill="none" stroke="black" cx="371.48" cy="-26.87" rx="41.94" ry="26.74"/>
<text text-anchor="middle" x="371.48" y="-30.67" font-family="Times New Roman,serif" font-size="14.00">[46..4a)</text>
<text text-anchor="middle" x="371.48" y="-15.67" font-family="Times New Roman,serif" font-size="14.00">0.02</text>
</g>
<!-- BB10&#45;&gt;BB12 -->
<g id="edge16" class="edge">
<title>BB10&#45;&gt;BB12</title>
<path fill="none" stroke="black" d="M320.24,-92.1C328.3,-81.98 337.85,-70.02 346.5,-59.17"/>
<polygon fill="black" stroke="black" points="349.41,-61.14 352.91,-51.14 343.94,-56.78 349.41,-61.14"/>
</g>
<!-- BB11&#45;&gt;BB12 -->
<g id="edge18" class="edge">
<title>BB11&#45;&gt;BB12</title>
<path fill="none" stroke="black" d="M312.11,-26.87C314.59,-26.87 317.07,-26.87 319.54,-26.87"/>
<polygon fill="black" stroke="black" points="319.73,-30.37 329.73,-26.87 319.73,-23.37 319.73,-30.37"/>
</g>
<!-- BB12&#45;&gt;BB13 -->
<g id="edge19" class="edge">
<title>BB12&#45;&gt;BB13</title>
<path fill="none" stroke="black" d="M371.48,-53.88C371.48,-84.29 371.48,-134.84 371.48,-169.09"/>
<polygon fill="black" stroke="black" points="367.98,-169.16 371.48,-179.16 374.98,-169.16 367.98,-169.16"/>
</g>
<!-- BB13&#45;&gt;BB10 -->
<g id="edge20" class="edge">
<title>BB13&#45;&gt;BB10</title>
<path fill="none" stroke="black" d="M353.08,-182.3C344.95,-172.1 335.26,-159.95 326.48,-148.95"/>
<polygon fill="black" stroke="black" points="328.96,-146.45 319.99,-140.81 323.49,-150.81 328.96,-146.45"/>
</g>
<!-- BB14 -->
<g id="node15" class="node">
<title>BB14</title>
<ellipse fill="none" stroke="black" cx="440.48" cy="-116.61" rx="41.02" ry="26.74"/>
<text text-anchor="middle" x="440.48" y="-120.41" font-family="Times New Roman,serif" font-size="14.00">[4f..51)</text>
<text text-anchor="middle" x="440.48" y="-105.41" font-family="Times New Roman,serif" font-size="14.00">0.00</text>
</g>
<!-- BB13&#45;&gt;BB14 -->
<g id="edge21" class="edge">
<title>BB13&#45;&gt;BB14</title>
<path fill="none" stroke="black" d="M389.61,-182.3C397.62,-172.1 407.18,-159.95 415.83,-148.95"/>
<polygon fill="black" stroke="black" points="418.8,-150.84 422.23,-140.81 413.3,-146.51 418.8,-150.84"/>
</g>
</g>
</svg>
