<?xml version="1.0" encoding="UTF-8" standalone="no"?>
<!DOCTYPE svg PUBLIC "-//W3C//DTD SVG 1.1//EN"
 "http://www.w3.org/Graphics/SVG/1.1/DTD/svg11.dtd">
<!-- Generated by graphviz version 2.47.0 (20210316.0004)
 -->
<!-- Title: G Pages: 1 -->
<svg width="502pt" height="331pt"
 viewBox="0.00 0.00 501.85 330.96" xmlns="http://www.w3.org/2000/svg" xmlns:xlink="http://www.w3.org/1999/xlink">
<g id="graph0" class="graph" transform="scale(1 1) rotate(0) translate(4 326.96)">
<title>G</title>
<polygon fill="white" stroke="transparent" points="-4,4 -4,-326.96 497.85,-326.96 497.85,4 -4,4"/>
<!-- BB0 -->
<g id="node1" class="node">
<title>BB0</title>
<ellipse fill="none" stroke="black" cx="304.43" cy="-296.09" rx="33.47" ry="26.74"/>
<text text-anchor="middle" x="304.43" y="-299.89" font-family="Times New Roman,serif" font-size="14.00">[0..6)</text>
<text text-anchor="middle" x="304.43" y="-284.89" font-family="Times New Roman,serif" font-size="14.00">0.21</text>
</g>
<!-- BB1 -->
<g id="node2" class="node">
<title>BB1</title>
<ellipse fill="none" stroke="black" cx="257.43" cy="-206.35" rx="33.47" ry="26.74"/>
<text text-anchor="middle" x="257.43" y="-210.15" font-family="Times New Roman,serif" font-size="14.00">[6..c)</text>
<text text-anchor="middle" x="257.43" y="-195.15" font-family="Times New Roman,serif" font-size="14.00">0.07</text>
</g>
<!-- BB0&#45;&gt;BB1 -->
<g id="edge2" class="edge">
<title>BB0&#45;&gt;BB1</title>
<path fill="none" stroke="black" d="M291.58,-271.12C286.51,-261.64 280.59,-250.59 275.12,-240.37"/>
<polygon fill="black" stroke="black" points="278.06,-238.46 270.25,-231.3 271.89,-241.76 278.06,-238.46"/>
</g>
<!-- BB6 -->
<g id="node7" class="node">
<title>BB6</title>
<ellipse fill="none" stroke="black" cx="351.43" cy="-206.35" rx="42.35" ry="26.74"/>
<text text-anchor="middle" x="351.43" y="-210.15" font-family="Times New Roman,serif" font-size="14.00">[21..27)</text>
<text text-anchor="middle" x="351.43" y="-195.15" font-family="Times New Roman,serif" font-size="14.00">0.14</text>
</g>
<!-- BB0&#45;&gt;BB6 -->
<g id="edge1" class="edge">
<title>BB0&#45;&gt;BB6</title>
<path fill="none" stroke="black" d="M317.27,-271.12C322.26,-261.79 328.07,-250.95 333.47,-240.88"/>
<polygon fill="black" stroke="black" points="336.64,-242.38 338.27,-231.91 330.46,-239.07 336.64,-242.38"/>
</g>
<!-- BB2 -->
<g id="node3" class="node">
<title>BB2</title>
<ellipse fill="none" stroke="black" cx="353.43" cy="-116.61" rx="37.45" ry="26.74"/>
<text text-anchor="middle" x="353.43" y="-120.41" font-family="Times New Roman,serif" font-size="14.00">[c..11)</text>
<text text-anchor="middle" x="353.43" y="-105.41" font-family="Times New Roman,serif" font-size="14.00">0.03</text>
</g>
<!-- BB1&#45;&gt;BB2 -->
<g id="edge4" class="edge">
<title>BB1&#45;&gt;BB2</title>
<path fill="none" stroke="black" d="M279.21,-185.44C292.19,-173.58 308.85,-158.35 323.1,-145.33"/>
<polygon fill="black" stroke="black" points="325.71,-147.69 330.73,-138.36 320.98,-142.52 325.71,-147.69"/>
</g>
<!-- BB3 -->
<g id="node4" class="node">
<title>BB3</title>
<ellipse fill="none" stroke="black" cx="145.43" cy="-116.61" rx="42.35" ry="26.74"/>
<text text-anchor="middle" x="145.43" y="-120.41" font-family="Times New Roman,serif" font-size="14.00">[11..17)</text>
<text text-anchor="middle" x="145.43" y="-105.41" font-family="Times New Roman,serif" font-size="14.00">0.03</text>
</g>
<!-- BB1&#45;&gt;BB3 -->
<g id="edge3" class="edge">
<title>BB1&#45;&gt;BB3</title>
<path fill="none" stroke="black" d="M233.95,-186.96C218.29,-174.69 197.45,-158.36 179.92,-144.63"/>
<polygon fill="black" stroke="black" points="181.65,-141.54 171.62,-138.13 177.33,-147.05 181.65,-141.54"/>
</g>
<!-- BB11 -->
<g id="node12" class="node">
<title>BB11</title>
<ellipse fill="none" stroke="black" cx="451.43" cy="-26.87" rx="41.94" ry="26.74"/>
<text text-anchor="middle" x="451.43" y="-30.67" font-family="Times New Roman,serif" font-size="14.00">[3a..3c)</text>
<text text-anchor="middle" x="451.43" y="-15.67" font-family="Times New Roman,serif" font-size="14.00">0.21</text>
</g>
<!-- BB2&#45;&gt;BB11 -->
<g id="edge5" class="edge">
<title>BB2&#45;&gt;BB11</title>
<path fill="none" stroke="black" d="M376.65,-94.82C389.64,-83.19 406.01,-68.53 420.12,-55.9"/>
<polygon fill="black" stroke="black" points="422.57,-58.4 427.69,-49.12 417.9,-53.19 422.57,-58.4"/>
</g>
<!-- BB4 -->
<g id="node5" class="node">
<title>BB4</title>
<ellipse fill="none" stroke="black" cx="145.43" cy="-26.87" rx="42.35" ry="26.74"/>
<text text-anchor="middle" x="145.43" y="-30.67" font-family="Times New Roman,serif" font-size="14.00">[17..1c)</text>
<text text-anchor="middle" x="145.43" y="-15.67" font-family="Times New Roman,serif" font-size="14.00">0.02</text>
</g>
<!-- BB3&#45;&gt;BB4 -->
<g id="edge7" class="edge">
<title>BB3&#45;&gt;BB4</title>
<path fill="none" stroke="black" d="M145.43,-89.29C145.43,-81.32 145.43,-72.43 145.43,-63.94"/>
<polygon fill="black" stroke="black" points="148.93,-63.87 145.43,-53.87 141.93,-63.87 148.93,-63.87"/>
</g>
<!-- BB5 -->
<g id="node6" class="node">
<title>BB5</title>
<ellipse fill="none" stroke="black" cx="42.43" cy="-26.87" rx="42.35" ry="26.74"/>
<text text-anchor="middle" x="42.43" y="-30.67" font-family="Times New Roman,serif" font-size="14.00">[1c..21)</text>
<text text-anchor="middle" x="42.43" y="-15.67" font-family="Times New Roman,serif" font-size="14.00">0.02</text>
</g>
<!-- BB3&#45;&gt;BB5 -->
<g id="edge6" class="edge">
<title>BB3&#45;&gt;BB5</title>
<path fill="none" stroke="black" d="M120.76,-94.59C107.1,-82.96 89.94,-68.35 75.18,-55.77"/>
<polygon fill="black" stroke="black" points="77.14,-52.84 67.25,-49.02 72.6,-58.17 77.14,-52.84"/>
</g>
<!-- BB4&#45;&gt;BB11 -->
<g id="edge8" class="edge">
<title>BB4&#45;&gt;BB11</title>
<path fill="none" stroke="black" d="M168.46,-49.6C178.86,-58.31 191.85,-67.22 205.43,-71.74 244.65,-84.78 352.21,-84.78 391.43,-71.74 401.72,-68.32 411.67,-62.37 420.41,-55.9"/>
<polygon fill="black" stroke="black" points="422.7,-58.54 428.39,-49.6 418.37,-53.05 422.7,-58.54"/>
</g>
<!-- BB5&#45;&gt;BB11 -->
<g id="edge9" class="edge">
<title>BB5&#45;&gt;BB11</title>
<path fill="none" stroke="black" d="M65.62,-49.37C76.25,-58.15 89.56,-67.19 103.43,-71.74 164.24,-91.7 330.7,-91.94 391.43,-71.74 401.72,-68.32 411.67,-62.37 420.41,-55.9"/>
<polygon fill="black" stroke="black" points="422.7,-58.54 428.39,-49.6 418.37,-53.05 422.7,-58.54"/>
</g>
<!-- BB7 -->
<g id="node8" class="node">
<title>BB7</title>
<ellipse fill="none" stroke="black" cx="451.43" cy="-116.61" rx="42.35" ry="26.74"/>
<text text-anchor="middle" x="451.43" y="-120.41" font-family="Times New Roman,serif" font-size="14.00">[27..2c)</text>
<text text-anchor="middle" x="451.43" y="-105.41" font-family="Times New Roman,serif" font-size="14.00">0.03</text>
</g>
<!-- BB6&#45;&gt;BB7 -->
<g id="edge11" class="edge">
<title>BB6&#45;&gt;BB7</title>
<path fill="none" stroke="black" d="M375.63,-184.11C388.8,-172.56 405.26,-158.12 419.47,-145.65"/>
<polygon fill="black" stroke="black" points="421.89,-148.18 427.1,-138.96 417.27,-142.92 421.89,-148.18"/>
</g>
<!-- BB8 -->
<g id="node9" class="node">
<title>BB8</title>
<ellipse fill="none" stroke="black" cx="255.43" cy="-116.61" rx="42.35" ry="26.74"/>
<text text-anchor="middle" x="255.43" y="-120.41" font-family="Times New Roman,serif" font-size="14.00">[2c..32)</text>
<text text-anchor="middle" x="255.43" y="-105.41" font-family="Times New Roman,serif" font-size="14.00">0.12</text>
</g>
<!-- BB6&#45;&gt;BB8 -->
<g id="edge10" class="edge">
<title>BB6&#45;&gt;BB8</title>
<path fill="none" stroke="black" d="M327.7,-183.66C315.26,-172.29 299.87,-158.23 286.49,-146"/>
<polygon fill="black" stroke="black" points="288.63,-143.21 278.88,-139.05 283.9,-148.38 288.63,-143.21"/>
</g>
<!-- BB7&#45;&gt;BB11 -->
<g id="edge12" class="edge">
<title>BB7&#45;&gt;BB11</title>
<path fill="none" stroke="black" d="M451.43,-89.29C451.43,-81.32 451.43,-72.43 451.43,-63.94"/>
<polygon fill="black" stroke="black" points="454.93,-63.87 451.43,-53.87 447.93,-63.87 454.93,-63.87"/>
</g>
<!-- BB9 -->
<g id="node10" class="node">
<title>BB9</title>
<ellipse fill="none" stroke="black" cx="349.43" cy="-26.87" rx="42.35" ry="26.74"/>
<text text-anchor="middle" x="349.43" y="-30.67" font-family="Times New Roman,serif" font-size="14.00">[32..37)</text>
<text text-anchor="middle" x="349.43" y="-15.67" font-family="Times New Roman,serif" font-size="14.00">0.00</text>
</g>
<!-- BB8&#45;&gt;BB9 -->
<g id="edge14" class="edge">
<title>BB8&#45;&gt;BB9</title>
<path fill="none" stroke="black" d="M278.66,-93.92C290.75,-82.64 305.69,-68.7 318.72,-56.53"/>
<polygon fill="black" stroke="black" points="321.21,-59 326.13,-49.61 316.43,-53.88 321.21,-59"/>
</g>
<!-- BB10 -->
<g id="node11" class="node">
<title>BB10</title>
<ellipse fill="none" stroke="black" cx="247.43" cy="-26.87" rx="41.94" ry="26.74"/>
<text text-anchor="middle" x="247.43" y="-30.67" font-family="Times New Roman,serif" font-size="14.00">[37..3a)</text>
<text text-anchor="middle" x="247.43" y="-15.67" font-family="Times New Roman,serif" font-size="14.00">0.12</text>
</g>
<!-- BB8&#45;&gt;BB10 -->
<g id="edge13" class="edge">
<title>BB8&#45;&gt;BB10</title>
<path fill="none" stroke="black" d="M253.07,-89.76C252.34,-81.71 251.51,-72.68 250.73,-64.06"/>
<polygon fill="black" stroke="black" points="254.19,-63.48 249.79,-53.84 247.22,-64.12 254.19,-63.48"/>
</g>
<!-- BB9&#45;&gt;BB11 -->
<g id="edge15" class="edge">
<title>BB9&#45;&gt;BB11</title>
<path fill="none" stroke="black" d="M392.06,-26.87C394.54,-26.87 397.02,-26.87 399.49,-26.87"/>
<polygon fill="black" stroke="black" points="399.68,-30.37 409.68,-26.87 399.68,-23.37 399.68,-30.37"/>
</g>
<!-- BB10&#45;&gt;BB11 -->
<g id="edge16" class="edge">
<title>BB10&#45;&gt;BB11</title>
<path fill="none" stroke="black" d="M270.46,-49.6C280.86,-58.31 293.85,-67.22 307.43,-71.74 342.85,-83.52 356,-83.52 391.43,-71.74 401.72,-68.32 411.67,-62.37 420.41,-55.9"/>
<polygon fill="black" stroke="black" points="422.7,-58.54 428.39,-49.6 418.37,-53.05 422.7,-58.54"/>
</g>
</g>
</svg>
