<?xml version="1.0" encoding="UTF-8" standalone="no"?>
<!DOCTYPE svg PUBLIC "-//W3C//DTD SVG 1.1//EN"
 "http://www.w3.org/Graphics/SVG/1.1/DTD/svg11.dtd">
<!-- Generated by graphviz version 2.47.0 (20210316.0004)
 -->
<!-- Title: G Pages: 1 -->
<svg width="192pt" height="331pt"
 viewBox="0.00 0.00 192.44 330.96" xmlns="http://www.w3.org/2000/svg" xmlns:xlink="http://www.w3.org/1999/xlink">
<g id="graph0" class="graph" transform="scale(1 1) rotate(0) translate(4 326.96)">
<title>G</title>
<polygon fill="white" stroke="transparent" points="-4,4 -4,-326.96 188.44,-326.96 188.44,4 -4,4"/>
<!-- BB0 -->
<g id="node1" class="node">
<title>BB0</title>
<ellipse fill="none" stroke="black" cx="91.01" cy="-296.09" rx="37.45" ry="26.74"/>
<text text-anchor="middle" x="91.01" y="-299.89" font-family="Times New Roman,serif" font-size="14.00">[0..10)</text>
<text text-anchor="middle" x="91.01" y="-284.89" font-family="Times New Roman,serif" font-size="14.00">0.22</text>
</g>
<!-- BB1 -->
<g id="node2" class="node">
<title>BB1</title>
<ellipse fill="none" stroke="black" cx="41.01" cy="-206.35" rx="41.02" ry="26.74"/>
<text text-anchor="middle" x="41.01" y="-210.15" font-family="Times New Roman,serif" font-size="14.00">[10..1f)</text>
<text text-anchor="middle" x="41.01" y="-195.15" font-family="Times New Roman,serif" font-size="14.00">0.18</text>
</g>
<!-- BB0&#45;&gt;BB1 -->
<g id="edge2" class="edge">
<title>BB0&#45;&gt;BB1</title>
<path fill="none" stroke="black" d="M77.08,-270.65C71.77,-261.33 65.63,-250.55 59.93,-240.55"/>
<polygon fill="black" stroke="black" points="62.86,-238.62 54.87,-231.66 56.78,-242.08 62.86,-238.62"/>
</g>
<!-- BB4 -->
<g id="node5" class="node">
<title>BB4</title>
<ellipse fill="none" stroke="black" cx="142.01" cy="-206.35" rx="42.35" ry="26.74"/>
<text text-anchor="middle" x="142.01" y="-210.15" font-family="Times New Roman,serif" font-size="14.00">[4a..4b)</text>
<text text-anchor="middle" x="142.01" y="-195.15" font-family="Times New Roman,serif" font-size="14.00">0.00</text>
</g>
<!-- BB0&#45;&gt;BB4 -->
<g id="edge1" class="edge">
<title>BB0&#45;&gt;BB4</title>
<path fill="none" stroke="black" d="M104.95,-271.12C110.42,-261.7 116.8,-250.73 122.7,-240.57"/>
<polygon fill="black" stroke="black" points="125.74,-242.31 127.74,-231.91 119.69,-238.79 125.74,-242.31"/>
</g>
<!-- BB3 -->
<g id="node4" class="node">
<title>BB3</title>
<ellipse fill="none" stroke="black" cx="91.01" cy="-116.61" rx="41.94" ry="26.74"/>
<text text-anchor="middle" x="91.01" y="-120.41" font-family="Times New Roman,serif" font-size="14.00">[46..4a)</text>
<text text-anchor="middle" x="91.01" y="-105.41" font-family="Times New Roman,serif" font-size="14.00">0.26</text>
</g>
<!-- BB1&#45;&gt;BB3 -->
<g id="edge3" class="edge">
<title>BB1&#45;&gt;BB3</title>
<path fill="none" stroke="black" d="M54.94,-180.91C60.21,-171.67 66.29,-160.99 71.95,-151.06"/>
<polygon fill="black" stroke="black" points="75.08,-152.65 76.99,-142.22 68.99,-149.18 75.08,-152.65"/>
</g>
<!-- BB2 -->
<g id="node3" class="node">
<title>BB2</title>
<ellipse fill="none" stroke="black" cx="91.01" cy="-26.87" rx="41.02" ry="26.74"/>
<text text-anchor="middle" x="91.01" y="-30.67" font-family="Times New Roman,serif" font-size="14.00">[1f..46)</text>
<text text-anchor="middle" x="91.01" y="-15.67" font-family="Times New Roman,serif" font-size="14.00">0.34</text>
</g>
<!-- BB2&#45;&gt;BB3 -->
<g id="edge4" class="edge">
<title>BB2&#45;&gt;BB3</title>
<path fill="none" stroke="black" d="M97.22,-53.54C97.74,-61.73 97.88,-70.96 97.66,-79.74"/>
<polygon fill="black" stroke="black" points="94.16,-79.62 97.23,-89.76 101.16,-79.92 94.16,-79.62"/>
</g>
<!-- BB3&#45;&gt;BB2 -->
<g id="edge5" class="edge">
<title>BB3&#45;&gt;BB2</title>
<path fill="none" stroke="black" d="M84.8,-89.76C84.28,-81.55 84.14,-72.32 84.37,-63.54"/>
<polygon fill="black" stroke="black" points="87.87,-63.68 84.81,-53.54 80.87,-63.37 87.87,-63.68"/>
</g>
<!-- BB3&#45;&gt;BB4 -->
<g id="edge6" class="edge">
<title>BB3&#45;&gt;BB4</title>
<path fill="none" stroke="black" d="M105.14,-141.92C110.55,-151.22 116.82,-162 122.63,-172.01"/>
<polygon fill="black" stroke="black" points="119.75,-174.02 127.81,-180.91 125.81,-170.51 119.75,-174.02"/>
</g>
</g>
</svg>
