<?xml version="1.0" encoding="UTF-8" standalone="no"?>
<!DOCTYPE svg PUBLIC "-//W3C//DTD SVG 1.1//EN"
 "http://www.w3.org/Graphics/SVG/1.1/DTD/svg11.dtd">
<!-- Generated by graphviz version 2.47.0 (20210316.0004)
 -->
<!-- Title: G Pages: 1 -->
<svg width="747pt" height="897pt"
 viewBox="0.00 0.00 746.69 897.17" xmlns="http://www.w3.org/2000/svg" xmlns:xlink="http://www.w3.org/1999/xlink">
<g id="graph0" class="graph" transform="scale(1 1) rotate(0) translate(4 893.17)">
<title>G</title>
<polygon fill="white" stroke="transparent" points="-4,4 -4,-893.17 742.69,-893.17 742.69,4 -4,4"/>
<!-- BB0 -->
<g id="node1" class="node">
<title>BB0</title>
<ellipse fill="none" stroke="black" cx="482.84" cy="-841.08" rx="104.8" ry="48.17"/>
<text text-anchor="middle" x="482.84" y="-859.88" font-family="Times New Roman,serif" font-size="14.00">[0..4)</text>
<text text-anchor="middle" x="482.84" y="-844.88" font-family="Times New Roman,serif" font-size="14.00">Count: 0</text>
<text text-anchor="middle" x="482.84" y="-829.88" font-family="Times New Roman,serif" font-size="14.00">Normalized count: NaN</text>
<text text-anchor="middle" x="482.84" y="-814.88" font-family="Times New Roman,serif" font-size="14.00">Samples weight: 0.00</text>
</g>
<!-- BB8 -->
<g id="node9" class="node">
<title>BB8</title>
<ellipse fill="none" stroke="black" cx="482.84" cy="-708.92" rx="113.69" ry="48.17"/>
<text text-anchor="middle" x="482.84" y="-727.72" font-family="Times New Roman,serif" font-size="14.00">[50..55)</text>
<text text-anchor="middle" x="482.84" y="-712.72" font-family="Times New Roman,serif" font-size="14.00">Count: 3</text>
<text text-anchor="middle" x="482.84" y="-697.72" font-family="Times New Roman,serif" font-size="14.00">Normalized count: Infinity</text>
<text text-anchor="middle" x="482.84" y="-682.72" font-family="Times New Roman,serif" font-size="14.00">Samples weight: 0.05</text>
</g>
<!-- BB0&#45;&gt;BB8 -->
<g id="edge1" class="edge">
<title>BB0&#45;&gt;BB8</title>
<path fill="none" stroke="black" d="M482.84,-792.72C482.84,-784.45 482.84,-775.77 482.84,-767.27"/>
<polygon fill="black" stroke="black" points="486.34,-767.02 482.84,-757.02 479.34,-767.02 486.34,-767.02"/>
</g>
<!-- BB1 -->
<g id="node2" class="node">
<title>BB1</title>
<ellipse fill="none" stroke="black" cx="340.84" cy="-576.75" rx="113.69" ry="48.17"/>
<text text-anchor="middle" x="340.84" y="-595.55" font-family="Times New Roman,serif" font-size="14.00">[4..15)</text>
<text text-anchor="middle" x="340.84" y="-580.55" font-family="Times New Roman,serif" font-size="14.00">Count: 34</text>
<text text-anchor="middle" x="340.84" y="-565.55" font-family="Times New Roman,serif" font-size="14.00">Normalized count: Infinity</text>
<text text-anchor="middle" x="340.84" y="-550.55" font-family="Times New Roman,serif" font-size="14.00">Samples weight: 0.61</text>
</g>
<!-- BB2 -->
<g id="node3" class="node">
<title>BB2</title>
<ellipse fill="none" stroke="black" cx="236.84" cy="-444.58" rx="113.69" ry="48.17"/>
<text text-anchor="middle" x="236.84" y="-463.38" font-family="Times New Roman,serif" font-size="14.00">[15..1f)</text>
<text text-anchor="middle" x="236.84" y="-448.38" font-family="Times New Roman,serif" font-size="14.00">Count: 7</text>
<text text-anchor="middle" x="236.84" y="-433.38" font-family="Times New Roman,serif" font-size="14.00">Normalized count: Infinity</text>
<text text-anchor="middle" x="236.84" y="-418.38" font-family="Times New Roman,serif" font-size="14.00">Samples weight: 0.12</text>
</g>
<!-- BB1&#45;&gt;BB2 -->
<g id="edge3" class="edge">
<title>BB1&#45;&gt;BB2</title>
<path fill="none" stroke="black" d="M305.05,-530.95C296.72,-520.52 287.77,-509.32 279.18,-498.57"/>
<polygon fill="black" stroke="black" points="281.68,-496.09 272.7,-490.46 276.21,-500.46 281.68,-496.09"/>
</g>
<!-- BB7 -->
<g id="node8" class="node">
<title>BB7</title>
<ellipse fill="none" stroke="black" cx="482.84" cy="-444.58" rx="113.69" ry="48.17"/>
<text text-anchor="middle" x="482.84" y="-463.38" font-family="Times New Roman,serif" font-size="14.00">[4c..50)</text>
<text text-anchor="middle" x="482.84" y="-448.38" font-family="Times New Roman,serif" font-size="14.00">Count: 5</text>
<text text-anchor="middle" x="482.84" y="-433.38" font-family="Times New Roman,serif" font-size="14.00">Normalized count: Infinity</text>
<text text-anchor="middle" x="482.84" y="-418.38" font-family="Times New Roman,serif" font-size="14.00">Samples weight: 0.09</text>
</g>
<!-- BB1&#45;&gt;BB7 -->
<g id="edge2" class="edge">
<title>BB1&#45;&gt;BB7</title>
<path fill="none" stroke="black" d="M387.73,-532.77C400.82,-520.77 415.15,-507.64 428.62,-495.29"/>
<polygon fill="black" stroke="black" points="431,-497.86 436,-488.52 426.27,-492.7 431,-497.86"/>
</g>
<!-- BB3 -->
<g id="node4" class="node">
<title>BB3</title>
<ellipse fill="none" stroke="black" cx="236.84" cy="-312.42" rx="113.69" ry="48.17"/>
<text text-anchor="middle" x="236.84" y="-331.22" font-family="Times New Roman,serif" font-size="14.00">[1f..31)</text>
<text text-anchor="middle" x="236.84" y="-316.22" font-family="Times New Roman,serif" font-size="14.00">Count: 5</text>
<text text-anchor="middle" x="236.84" y="-301.22" font-family="Times New Roman,serif" font-size="14.00">Normalized count: Infinity</text>
<text text-anchor="middle" x="236.84" y="-286.22" font-family="Times New Roman,serif" font-size="14.00">Samples weight: 0.09</text>
</g>
<!-- BB2&#45;&gt;BB3 -->
<g id="edge5" class="edge">
<title>BB2&#45;&gt;BB3</title>
<path fill="none" stroke="black" d="M236.84,-396.22C236.84,-387.95 236.84,-379.27 236.84,-370.77"/>
<polygon fill="black" stroke="black" points="240.34,-370.52 236.84,-360.52 233.34,-370.52 240.34,-370.52"/>
</g>
<!-- BB2&#45;&gt;BB7 -->
<g id="edge4" class="edge">
<title>BB2&#45;&gt;BB7</title>
<path fill="none" stroke="black" d="M350.72,-444.58C353.35,-444.58 355.98,-444.58 358.62,-444.58"/>
<polygon fill="black" stroke="black" points="358.78,-448.08 368.78,-444.58 358.78,-441.08 358.78,-448.08"/>
</g>
<!-- BB4 -->
<g id="node5" class="node">
<title>BB4</title>
<ellipse fill="none" stroke="black" cx="113.84" cy="-180.25" rx="113.69" ry="48.17"/>
<text text-anchor="middle" x="113.84" y="-199.05" font-family="Times New Roman,serif" font-size="14.00">[31..34)</text>
<text text-anchor="middle" x="113.84" y="-184.05" font-family="Times New Roman,serif" font-size="14.00">Count: 1</text>
<text text-anchor="middle" x="113.84" y="-169.05" font-family="Times New Roman,serif" font-size="14.00">Normalized count: Infinity</text>
<text text-anchor="middle" x="113.84" y="-154.05" font-family="Times New Roman,serif" font-size="14.00">Samples weight: 0.02</text>
</g>
<!-- BB3&#45;&gt;BB4 -->
<g id="edge7" class="edge">
<title>BB3&#45;&gt;BB4</title>
<path fill="none" stroke="black" d="M195.2,-267.35C184.68,-256.22 173.29,-244.16 162.46,-232.7"/>
<polygon fill="black" stroke="black" points="164.86,-230.14 155.44,-225.27 159.77,-234.95 164.86,-230.14"/>
</g>
<!-- BB5 -->
<g id="node6" class="node">
<title>BB5</title>
<ellipse fill="none" stroke="black" cx="349.84" cy="-180.25" rx="104.8" ry="48.17"/>
<text text-anchor="middle" x="349.84" y="-199.05" font-family="Times New Roman,serif" font-size="14.00">[34..44)</text>
<text text-anchor="middle" x="349.84" y="-184.05" font-family="Times New Roman,serif" font-size="14.00">Count: 0</text>
<text text-anchor="middle" x="349.84" y="-169.05" font-family="Times New Roman,serif" font-size="14.00">Normalized count: NaN</text>
<text text-anchor="middle" x="349.84" y="-154.05" font-family="Times New Roman,serif" font-size="14.00">Samples weight: 0.00</text>
</g>
<!-- BB3&#45;&gt;BB5 -->
<g id="edge6" class="edge">
<title>BB3&#45;&gt;BB5</title>
<path fill="none" stroke="black" d="M275.42,-266.98C284.87,-256.09 295.07,-244.34 304.8,-233.14"/>
<polygon fill="black" stroke="black" points="307.53,-235.33 311.45,-225.48 302.25,-230.74 307.53,-235.33"/>
</g>
<!-- BB4&#45;&gt;BB5 -->
<g id="edge9" class="edge">
<title>BB4&#45;&gt;BB5</title>
<path fill="none" stroke="black" d="M227.7,-180.25C230.02,-180.25 232.35,-180.25 234.67,-180.25"/>
<polygon fill="black" stroke="black" points="234.87,-183.75 244.87,-180.25 234.87,-176.75 234.87,-183.75"/>
</g>
<!-- BB6 -->
<g id="node7" class="node">
<title>BB6</title>
<ellipse fill="none" stroke="black" cx="297.84" cy="-48.08" rx="104.8" ry="48.17"/>
<text text-anchor="middle" x="297.84" y="-66.88" font-family="Times New Roman,serif" font-size="14.00">[44..4c)</text>
<text text-anchor="middle" x="297.84" y="-51.88" font-family="Times New Roman,serif" font-size="14.00">Count: 0</text>
<text text-anchor="middle" x="297.84" y="-36.88" font-family="Times New Roman,serif" font-size="14.00">Normalized count: NaN</text>
<text text-anchor="middle" x="297.84" y="-21.88" font-family="Times New Roman,serif" font-size="14.00">Samples weight: 0.00</text>
</g>
<!-- BB4&#45;&gt;BB6 -->
<g id="edge8" class="edge">
<title>BB4&#45;&gt;BB6</title>
<path fill="none" stroke="black" d="M171.31,-138.6C191.05,-124.64 213.27,-108.91 233.52,-94.59"/>
<polygon fill="black" stroke="black" points="235.62,-97.39 241.76,-88.76 231.58,-91.67 235.62,-97.39"/>
</g>
<!-- BB6&#45;&gt;BB7 -->
<g id="edge10" class="edge">
<title>BB6&#45;&gt;BB7</title>
<path fill="none" stroke="black" d="M386.98,-73.71C416.28,-86.35 445.9,-105.01 463.84,-132.17 514.33,-208.58 506.41,-319.89 495.22,-386.68"/>
<polygon fill="black" stroke="black" points="491.76,-386.14 493.48,-396.6 498.66,-387.35 491.76,-386.14"/>
</g>
<!-- BB7&#45;&gt;BB8 -->
<g id="edge11" class="edge">
<title>BB7&#45;&gt;BB8</title>
<path fill="none" stroke="black" d="M482.84,-492.85C482.84,-537.12 482.84,-603.37 482.84,-650.63"/>
<polygon fill="black" stroke="black" points="479.34,-650.71 482.84,-660.71 486.34,-650.71 479.34,-650.71"/>
</g>
<!-- BB8&#45;&gt;BB1 -->
<g id="edge12" class="edge">
<title>BB8&#45;&gt;BB1</title>
<path fill="none" stroke="black" d="M435.95,-664.93C422.87,-652.94 408.54,-639.8 395.07,-627.45"/>
<polygon fill="black" stroke="black" points="397.42,-624.86 387.68,-620.69 392.69,-630.02 397.42,-624.86"/>
</g>
<!-- BB9 -->
<g id="node10" class="node">
<title>BB9</title>
<ellipse fill="none" stroke="black" cx="624.84" cy="-576.75" rx="113.69" ry="48.17"/>
<text text-anchor="middle" x="624.84" y="-595.55" font-family="Times New Roman,serif" font-size="14.00">[55..65)</text>
<text text-anchor="middle" x="624.84" y="-580.55" font-family="Times New Roman,serif" font-size="14.00">Count: 1</text>
<text text-anchor="middle" x="624.84" y="-565.55" font-family="Times New Roman,serif" font-size="14.00">Normalized count: Infinity</text>
<text text-anchor="middle" x="624.84" y="-550.55" font-family="Times New Roman,serif" font-size="14.00">Samples weight: 0.02</text>
</g>
<!-- BB8&#45;&gt;BB9 -->
<g id="edge13" class="edge">
<title>BB8&#45;&gt;BB9</title>
<path fill="none" stroke="black" d="M529.73,-664.93C542.82,-652.94 557.15,-639.8 570.62,-627.45"/>
<polygon fill="black" stroke="black" points="573,-630.02 578,-620.69 568.27,-624.86 573,-630.02"/>
</g>
</g>
</svg>
