<?xml version="1.0" encoding="UTF-8" standalone="no"?>
<!DOCTYPE svg PUBLIC "-//W3C//DTD SVG 1.1//EN"
 "http://www.w3.org/Graphics/SVG/1.1/DTD/svg11.dtd">
<!-- Generated by graphviz version 2.47.0 (20210316.0004)
 -->
<!-- Title: G Pages: 1 -->
<svg width="695pt" height="1303pt"
 viewBox="0.00 0.00 694.72 1303.44" xmlns="http://www.w3.org/2000/svg" xmlns:xlink="http://www.w3.org/1999/xlink">
<g id="graph0" class="graph" transform="scale(1 1) rotate(0) translate(4 1299.44)">
<title>G</title>
<polygon fill="white" stroke="transparent" points="-4,4 -4,-1299.44 690.72,-1299.44 690.72,4 -4,4"/>
<!-- BB0 -->
<g id="node1" class="node">
<title>BB0</title>
<ellipse fill="none" stroke="black" cx="333.36" cy="-1257.96" rx="105.22" ry="37.45"/>
<text text-anchor="middle" x="333.36" y="-1269.26" font-family="Times New Roman,serif" font-size="14.00">[0..18)</text>
<text text-anchor="middle" x="333.36" y="-1254.26" font-family="Times New Roman,serif" font-size="14.00">Normalized Count: 1.00</text>
<text text-anchor="middle" x="333.36" y="-1239.26" font-family="Times New Roman,serif" font-size="14.00">Samples weight: 0.02</text>
</g>
<!-- BB1 -->
<g id="node2" class="node">
<title>BB1</title>
<ellipse fill="none" stroke="black" cx="219.36" cy="-1147.01" rx="105.22" ry="37.45"/>
<text text-anchor="middle" x="219.36" y="-1158.31" font-family="Times New Roman,serif" font-size="14.00">[18..24)</text>
<text text-anchor="middle" x="219.36" y="-1143.31" font-family="Times New Roman,serif" font-size="14.00">Normalized Count: 0.00</text>
<text text-anchor="middle" x="219.36" y="-1128.31" font-family="Times New Roman,serif" font-size="14.00">Samples weight: 0.00</text>
</g>
<!-- BB0&#45;&gt;BB1 -->
<g id="edge2" class="edge">
<title>BB0&#45;&gt;BB1</title>
<path fill="none" stroke="black" d="M297.29,-1222.49C286.27,-1211.95 274.03,-1200.26 262.58,-1189.32"/>
<polygon fill="black" stroke="black" points="264.84,-1186.64 255.19,-1182.26 260.01,-1191.7 264.84,-1186.64"/>
</g>
<!-- BB2 -->
<g id="node3" class="node">
<title>BB2</title>
<ellipse fill="none" stroke="black" cx="448.36" cy="-1147.01" rx="105.22" ry="37.45"/>
<text text-anchor="middle" x="448.36" y="-1158.31" font-family="Times New Roman,serif" font-size="14.00">[24..2e)</text>
<text text-anchor="middle" x="448.36" y="-1143.31" font-family="Times New Roman,serif" font-size="14.00">Normalized Count: 1.00</text>
<text text-anchor="middle" x="448.36" y="-1128.31" font-family="Times New Roman,serif" font-size="14.00">Samples weight: 0.02</text>
</g>
<!-- BB0&#45;&gt;BB2 -->
<g id="edge1" class="edge">
<title>BB0&#45;&gt;BB2</title>
<path fill="none" stroke="black" d="M369.75,-1222.49C380.87,-1211.95 393.21,-1200.26 404.76,-1189.32"/>
<polygon fill="black" stroke="black" points="407.36,-1191.68 412.21,-1182.26 402.54,-1186.6 407.36,-1191.68"/>
</g>
<!-- BB3 -->
<g id="node4" class="node">
<title>BB3</title>
<ellipse fill="none" stroke="black" cx="333.36" cy="-1036.06" rx="105.22" ry="37.45"/>
<text text-anchor="middle" x="333.36" y="-1047.36" font-family="Times New Roman,serif" font-size="14.00">[2e..44)</text>
<text text-anchor="middle" x="333.36" y="-1032.36" font-family="Times New Roman,serif" font-size="14.00">Normalized Count: 1.00</text>
<text text-anchor="middle" x="333.36" y="-1017.36" font-family="Times New Roman,serif" font-size="14.00">Samples weight: 0.02</text>
</g>
<!-- BB1&#45;&gt;BB3 -->
<g id="edge3" class="edge">
<title>BB1&#45;&gt;BB3</title>
<path fill="none" stroke="black" d="M255.43,-1111.54C266.45,-1101 278.69,-1089.31 290.14,-1078.37"/>
<polygon fill="black" stroke="black" points="292.71,-1080.75 297.52,-1071.31 287.88,-1075.68 292.71,-1080.75"/>
</g>
<!-- BB2&#45;&gt;BB3 -->
<g id="edge4" class="edge">
<title>BB2&#45;&gt;BB3</title>
<path fill="none" stroke="black" d="M411.97,-1111.54C400.85,-1101 388.51,-1089.31 376.96,-1078.37"/>
<polygon fill="black" stroke="black" points="379.18,-1075.64 369.51,-1071.31 374.36,-1080.72 379.18,-1075.64"/>
</g>
<!-- BB4 -->
<g id="node5" class="node">
<title>BB4</title>
<ellipse fill="none" stroke="black" cx="219.36" cy="-925.1" rx="105.22" ry="37.45"/>
<text text-anchor="middle" x="219.36" y="-936.4" font-family="Times New Roman,serif" font-size="14.00">[44..49)</text>
<text text-anchor="middle" x="219.36" y="-921.4" font-family="Times New Roman,serif" font-size="14.00">Normalized Count: 0.11</text>
<text text-anchor="middle" x="219.36" y="-906.4" font-family="Times New Roman,serif" font-size="14.00">Samples weight: 0.00</text>
</g>
<!-- BB3&#45;&gt;BB4 -->
<g id="edge6" class="edge">
<title>BB3&#45;&gt;BB4</title>
<path fill="none" stroke="black" d="M297.29,-1000.58C286.27,-990.05 274.03,-978.35 262.58,-967.41"/>
<polygon fill="black" stroke="black" points="264.84,-964.73 255.19,-960.35 260.01,-969.79 264.84,-964.73"/>
</g>
<!-- BB5 -->
<g id="node6" class="node">
<title>BB5</title>
<ellipse fill="none" stroke="black" cx="448.36" cy="-925.1" rx="105.22" ry="37.45"/>
<text text-anchor="middle" x="448.36" y="-936.4" font-family="Times New Roman,serif" font-size="14.00">[49..58)</text>
<text text-anchor="middle" x="448.36" y="-921.4" font-family="Times New Roman,serif" font-size="14.00">Normalized Count: 0.89</text>
<text text-anchor="middle" x="448.36" y="-906.4" font-family="Times New Roman,serif" font-size="14.00">Samples weight: 0.02</text>
</g>
<!-- BB3&#45;&gt;BB5 -->
<g id="edge5" class="edge">
<title>BB3&#45;&gt;BB5</title>
<path fill="none" stroke="black" d="M369.75,-1000.58C380.87,-990.05 393.21,-978.35 404.76,-967.41"/>
<polygon fill="black" stroke="black" points="407.36,-969.77 412.21,-960.35 402.54,-964.69 407.36,-969.77"/>
</g>
<!-- BB18 -->
<g id="node19" class="node">
<title>BB18</title>
<ellipse fill="none" stroke="black" cx="448.36" cy="-814.15" rx="105.22" ry="37.45"/>
<text text-anchor="middle" x="448.36" y="-825.45" font-family="Times New Roman,serif" font-size="14.00">[11f..128)</text>
<text text-anchor="middle" x="448.36" y="-810.45" font-family="Times New Roman,serif" font-size="14.00">Normalized Count: 5.54</text>
<text text-anchor="middle" x="448.36" y="-795.45" font-family="Times New Roman,serif" font-size="14.00">Samples weight: 0.12</text>
</g>
<!-- BB5&#45;&gt;BB18 -->
<g id="edge7" class="edge">
<title>BB5&#45;&gt;BB18</title>
<path fill="none" stroke="black" d="M448.36,-887.52C448.36,-879.35 448.36,-870.57 448.36,-862.04"/>
<polygon fill="black" stroke="black" points="451.86,-861.82 448.36,-851.82 444.86,-861.82 451.86,-861.82"/>
</g>
<!-- BB6 -->
<g id="node7" class="node">
<title>BB6</title>
<ellipse fill="none" stroke="black" cx="219.36" cy="-703.2" rx="105.22" ry="37.45"/>
<text text-anchor="middle" x="219.36" y="-714.5" font-family="Times New Roman,serif" font-size="14.00">[58..72)</text>
<text text-anchor="middle" x="219.36" y="-699.5" font-family="Times New Roman,serif" font-size="14.00">Normalized Count: 4.64</text>
<text text-anchor="middle" x="219.36" y="-684.5" font-family="Times New Roman,serif" font-size="14.00">Samples weight: 0.10</text>
</g>
<!-- BB7 -->
<g id="node8" class="node">
<title>BB7</title>
<ellipse fill="none" stroke="black" cx="219.36" cy="-592.24" rx="105.22" ry="37.45"/>
<text text-anchor="middle" x="219.36" y="-603.54" font-family="Times New Roman,serif" font-size="14.00">[72..7c)</text>
<text text-anchor="middle" x="219.36" y="-588.54" font-family="Times New Roman,serif" font-size="14.00">Normalized Count: 4.64</text>
<text text-anchor="middle" x="219.36" y="-573.54" font-family="Times New Roman,serif" font-size="14.00">Samples weight: 0.10</text>
</g>
<!-- BB6&#45;&gt;BB7 -->
<g id="edge9" class="edge">
<title>BB6&#45;&gt;BB7</title>
<path fill="none" stroke="black" d="M219.36,-665.61C219.36,-657.44 219.36,-648.66 219.36,-640.13"/>
<polygon fill="black" stroke="black" points="222.86,-639.92 219.36,-629.92 215.86,-639.92 222.86,-639.92"/>
</g>
<!-- BB20 -->
<g id="node21" class="node">
<title>BB20</title>
<ellipse fill="none" stroke="black" cx="448.36" cy="-592.24" rx="105.22" ry="37.45"/>
<text text-anchor="middle" x="448.36" y="-603.54" font-family="Times New Roman,serif" font-size="14.00">[12c..12d)</text>
<text text-anchor="middle" x="448.36" y="-588.54" font-family="Times New Roman,serif" font-size="14.00">Normalized Count: 0.89</text>
<text text-anchor="middle" x="448.36" y="-573.54" font-family="Times New Roman,serif" font-size="14.00">Samples weight: 0.02</text>
</g>
<!-- BB6&#45;&gt;BB20 -->
<g id="edge8" class="edge">
<title>BB6&#45;&gt;BB20</title>
<path fill="none" stroke="black" d="M281.33,-672.71C310.86,-658.66 346.34,-641.78 376.99,-627.2"/>
<polygon fill="black" stroke="black" points="378.81,-630.21 386.34,-622.75 375.8,-623.89 378.81,-630.21"/>
</g>
<!-- BB8 -->
<g id="node9" class="node">
<title>BB8</title>
<ellipse fill="none" stroke="black" cx="105.36" cy="-481.29" rx="105.22" ry="37.45"/>
<text text-anchor="middle" x="105.36" y="-492.59" font-family="Times New Roman,serif" font-size="14.00">[7c..89)</text>
<text text-anchor="middle" x="105.36" y="-477.59" font-family="Times New Roman,serif" font-size="14.00">Normalized Count: 0.00</text>
<text text-anchor="middle" x="105.36" y="-462.59" font-family="Times New Roman,serif" font-size="14.00">Samples weight: 0.00</text>
</g>
<!-- BB7&#45;&gt;BB8 -->
<g id="edge11" class="edge">
<title>BB7&#45;&gt;BB8</title>
<path fill="none" stroke="black" d="M183.29,-556.77C172.27,-546.23 160.03,-534.54 148.58,-523.6"/>
<polygon fill="black" stroke="black" points="150.84,-520.92 141.19,-516.54 146.01,-525.98 150.84,-520.92"/>
</g>
<!-- BB9 -->
<g id="node10" class="node">
<title>BB9</title>
<ellipse fill="none" stroke="black" cx="334.36" cy="-481.29" rx="105.22" ry="37.45"/>
<text text-anchor="middle" x="334.36" y="-492.59" font-family="Times New Roman,serif" font-size="14.00">[89..a5)</text>
<text text-anchor="middle" x="334.36" y="-477.59" font-family="Times New Roman,serif" font-size="14.00">Normalized Count: 4.64</text>
<text text-anchor="middle" x="334.36" y="-462.59" font-family="Times New Roman,serif" font-size="14.00">Samples weight: 0.10</text>
</g>
<!-- BB7&#45;&gt;BB9 -->
<g id="edge10" class="edge">
<title>BB7&#45;&gt;BB9</title>
<path fill="none" stroke="black" d="M255.75,-556.77C266.87,-546.23 279.21,-534.54 290.76,-523.6"/>
<polygon fill="black" stroke="black" points="293.36,-525.96 298.21,-516.54 288.54,-520.88 293.36,-525.96"/>
</g>
<!-- BB10 -->
<g id="node11" class="node">
<title>BB10</title>
<ellipse fill="none" stroke="black" cx="162.36" cy="-370.34" rx="105.22" ry="37.45"/>
<text text-anchor="middle" x="162.36" y="-381.64" font-family="Times New Roman,serif" font-size="14.00">[a5..b1)</text>
<text text-anchor="middle" x="162.36" y="-366.64" font-family="Times New Roman,serif" font-size="14.00">Normalized Count: 0.00</text>
<text text-anchor="middle" x="162.36" y="-351.64" font-family="Times New Roman,serif" font-size="14.00">Samples weight: 0.00</text>
</g>
<!-- BB9&#45;&gt;BB10 -->
<g id="edge13" class="edge">
<title>BB9&#45;&gt;BB10</title>
<path fill="none" stroke="black" d="M283.68,-448.19C264.17,-435.83 241.73,-421.61 221.49,-408.79"/>
<polygon fill="black" stroke="black" points="223.29,-405.79 212.97,-403.4 219.54,-411.7 223.29,-405.79"/>
</g>
<!-- BB11 -->
<g id="node12" class="node">
<title>BB11</title>
<ellipse fill="none" stroke="black" cx="391.36" cy="-370.34" rx="105.22" ry="37.45"/>
<text text-anchor="middle" x="391.36" y="-381.64" font-family="Times New Roman,serif" font-size="14.00">[b1..bb)</text>
<text text-anchor="middle" x="391.36" y="-366.64" font-family="Times New Roman,serif" font-size="14.00">Normalized Count: 4.64</text>
<text text-anchor="middle" x="391.36" y="-351.64" font-family="Times New Roman,serif" font-size="14.00">Samples weight: 0.10</text>
</g>
<!-- BB9&#45;&gt;BB11 -->
<g id="edge12" class="edge">
<title>BB9&#45;&gt;BB11</title>
<path fill="none" stroke="black" d="M353.18,-444.31C357.85,-435.39 362.91,-425.71 367.78,-416.41"/>
<polygon fill="black" stroke="black" points="371.02,-417.76 372.56,-407.28 364.82,-414.51 371.02,-417.76"/>
</g>
<!-- BB12 -->
<g id="node13" class="node">
<title>BB12</title>
<ellipse fill="none" stroke="black" cx="228.36" cy="-259.38" rx="105.22" ry="37.45"/>
<text text-anchor="middle" x="228.36" y="-270.68" font-family="Times New Roman,serif" font-size="14.00">[bb..d3)</text>
<text text-anchor="middle" x="228.36" y="-255.68" font-family="Times New Roman,serif" font-size="14.00">Normalized Count: 4.64</text>
<text text-anchor="middle" x="228.36" y="-240.68" font-family="Times New Roman,serif" font-size="14.00">Samples weight: 0.10</text>
</g>
<!-- BB10&#45;&gt;BB12 -->
<g id="edge14" class="edge">
<title>BB10&#45;&gt;BB12</title>
<path fill="none" stroke="black" d="M184.15,-333.36C189.62,-324.34 195.54,-314.55 201.23,-305.17"/>
<polygon fill="black" stroke="black" points="204.4,-306.69 206.59,-296.32 198.41,-303.06 204.4,-306.69"/>
</g>
<!-- BB11&#45;&gt;BB12 -->
<g id="edge15" class="edge">
<title>BB11&#45;&gt;BB12</title>
<path fill="none" stroke="black" d="M342.89,-336.94C324.83,-324.87 304.16,-311.05 285.39,-298.5"/>
<polygon fill="black" stroke="black" points="287.18,-295.49 276.92,-292.84 283.29,-301.31 287.18,-295.49"/>
</g>
<!-- BB13 -->
<g id="node14" class="node">
<title>BB13</title>
<ellipse fill="none" stroke="black" cx="400.36" cy="-148.43" rx="105.22" ry="37.45"/>
<text text-anchor="middle" x="400.36" y="-159.73" font-family="Times New Roman,serif" font-size="14.00">[d3..e9)</text>
<text text-anchor="middle" x="400.36" y="-144.73" font-family="Times New Roman,serif" font-size="14.00">Normalized Count: 2.79</text>
<text text-anchor="middle" x="400.36" y="-129.73" font-family="Times New Roman,serif" font-size="14.00">Samples weight: 0.06</text>
</g>
<!-- BB12&#45;&gt;BB13 -->
<g id="edge17" class="edge">
<title>BB12&#45;&gt;BB13</title>
<path fill="none" stroke="black" d="M279.03,-226.28C298.54,-213.93 320.99,-199.71 341.23,-186.89"/>
<polygon fill="black" stroke="black" points="343.17,-189.8 349.75,-181.49 339.43,-183.88 343.17,-189.8"/>
</g>
<!-- BB15 -->
<g id="node16" class="node">
<title>BB15</title>
<ellipse fill="none" stroke="black" cx="171.36" cy="-148.43" rx="105.22" ry="37.45"/>
<text text-anchor="middle" x="171.36" y="-159.73" font-family="Times New Roman,serif" font-size="14.00">[f7..10d)</text>
<text text-anchor="middle" x="171.36" y="-144.73" font-family="Times New Roman,serif" font-size="14.00">Normalized Count: 1.86</text>
<text text-anchor="middle" x="171.36" y="-129.73" font-family="Times New Roman,serif" font-size="14.00">Samples weight: 0.04</text>
</g>
<!-- BB12&#45;&gt;BB15 -->
<g id="edge16" class="edge">
<title>BB12&#45;&gt;BB15</title>
<path fill="none" stroke="black" d="M209.54,-222.41C204.87,-213.48 199.8,-203.8 194.94,-194.5"/>
<polygon fill="black" stroke="black" points="197.9,-192.61 190.16,-185.37 191.7,-195.85 197.9,-192.61"/>
</g>
<!-- BB14 -->
<g id="node15" class="node">
<title>BB14</title>
<ellipse fill="none" stroke="black" cx="352.36" cy="-37.48" rx="105.22" ry="37.45"/>
<text text-anchor="middle" x="352.36" y="-48.78" font-family="Times New Roman,serif" font-size="14.00">[e9..f7)</text>
<text text-anchor="middle" x="352.36" y="-33.78" font-family="Times New Roman,serif" font-size="14.00">Normalized Count: 1.64</text>
<text text-anchor="middle" x="352.36" y="-18.78" font-family="Times New Roman,serif" font-size="14.00">Samples weight: 0.04</text>
</g>
<!-- BB13&#45;&gt;BB14 -->
<g id="edge19" class="edge">
<title>BB13&#45;&gt;BB14</title>
<path fill="none" stroke="black" d="M384.38,-111.15C380.53,-102.42 376.37,-92.99 372.37,-83.9"/>
<polygon fill="black" stroke="black" points="375.51,-82.34 368.27,-74.6 369.1,-85.16 375.51,-82.34"/>
</g>
<!-- BB17 -->
<g id="node18" class="node">
<title>BB17</title>
<ellipse fill="none" stroke="black" cx="581.36" cy="-37.48" rx="105.22" ry="37.45"/>
<text text-anchor="middle" x="581.36" y="-48.78" font-family="Times New Roman,serif" font-size="14.00">[119..11f)</text>
<text text-anchor="middle" x="581.36" y="-33.78" font-family="Times New Roman,serif" font-size="14.00">Normalized Count: 4.64</text>
<text text-anchor="middle" x="581.36" y="-18.78" font-family="Times New Roman,serif" font-size="14.00">Samples weight: 0.10</text>
</g>
<!-- BB13&#45;&gt;BB17 -->
<g id="edge18" class="edge">
<title>BB13&#45;&gt;BB17</title>
<path fill="none" stroke="black" d="M453.2,-115.62C474.11,-103.04 498.28,-88.48 519.96,-75.43"/>
<polygon fill="black" stroke="black" points="522,-78.29 528.77,-70.13 518.39,-72.29 522,-78.29"/>
</g>
<!-- BB14&#45;&gt;BB17 -->
<g id="edge20" class="edge">
<title>BB14&#45;&gt;BB17</title>
<path fill="none" stroke="black" d="M457.91,-37.48C460.52,-37.48 463.12,-37.48 465.72,-37.48"/>
<polygon fill="black" stroke="black" points="465.76,-40.98 475.76,-37.48 465.76,-33.98 465.76,-40.98"/>
</g>
<!-- BB16 -->
<g id="node17" class="node">
<title>BB16</title>
<ellipse fill="none" stroke="black" cx="123.36" cy="-37.48" rx="105.22" ry="37.45"/>
<text text-anchor="middle" x="123.36" y="-48.78" font-family="Times New Roman,serif" font-size="14.00">[10d..119)</text>
<text text-anchor="middle" x="123.36" y="-33.78" font-family="Times New Roman,serif" font-size="14.00">Normalized Count: 0.00</text>
<text text-anchor="middle" x="123.36" y="-18.78" font-family="Times New Roman,serif" font-size="14.00">Samples weight: 0.00</text>
</g>
<!-- BB15&#45;&gt;BB16 -->
<g id="edge22" class="edge">
<title>BB15&#45;&gt;BB16</title>
<path fill="none" stroke="black" d="M155.38,-111.15C151.53,-102.42 147.37,-92.99 143.37,-83.9"/>
<polygon fill="black" stroke="black" points="146.51,-82.34 139.27,-74.6 140.1,-85.16 146.51,-82.34"/>
</g>
<!-- BB15&#45;&gt;BB17 -->
<g id="edge21" class="edge">
<title>BB15&#45;&gt;BB17</title>
<path fill="none" stroke="black" d="M246.79,-122.2C259.91,-118.19 273.48,-114.27 286.36,-110.95 365.36,-90.59 387.36,-95.32 466.36,-74.95 476.12,-72.44 486.27,-69.58 496.33,-66.59"/>
<polygon fill="black" stroke="black" points="497.36,-69.94 505.92,-63.7 495.34,-63.24 497.36,-69.94"/>
</g>
<!-- BB16&#45;&gt;BB17 -->
<g id="edge23" class="edge">
<title>BB16&#45;&gt;BB17</title>
<path fill="none" stroke="black" d="M180.62,-69.13C201.05,-78.77 224.64,-88.1 247.36,-92.95 338.64,-112.44 366.08,-112.44 457.36,-92.95 476.7,-88.82 496.69,-81.44 514.81,-73.39"/>
<polygon fill="black" stroke="black" points="516.47,-76.48 524.1,-69.13 513.55,-70.11 516.47,-76.48"/>
</g>
<!-- BB17&#45;&gt;BB18 -->
<g id="edge24" class="edge">
<title>BB17&#45;&gt;BB18</title>
<path fill="none" stroke="black" d="M581.36,-75.05C581.36,-118.69 581.36,-193.86 581.36,-258.38 581.36,-593.24 581.36,-593.24 581.36,-593.24 581.36,-659.31 597.81,-684.92 562.36,-740.67 552.48,-756.2 537.95,-769.02 522.55,-779.33"/>
<polygon fill="black" stroke="black" points="520.49,-776.49 513.92,-784.8 524.24,-782.4 520.49,-776.49"/>
</g>
<!-- BB18&#45;&gt;BB6 -->
<g id="edge25" class="edge">
<title>BB18&#45;&gt;BB6</title>
<path fill="none" stroke="black" d="M386.39,-783.67C356.86,-769.62 321.38,-752.73 290.72,-738.15"/>
<polygon fill="black" stroke="black" points="291.91,-734.84 281.38,-733.7 288.91,-741.16 291.91,-734.84"/>
</g>
<!-- BB19 -->
<g id="node20" class="node">
<title>BB19</title>
<ellipse fill="none" stroke="black" cx="448.36" cy="-703.2" rx="105.22" ry="37.45"/>
<text text-anchor="middle" x="448.36" y="-714.5" font-family="Times New Roman,serif" font-size="14.00">[128..12c)</text>
<text text-anchor="middle" x="448.36" y="-699.5" font-family="Times New Roman,serif" font-size="14.00">Normalized Count: 0.89</text>
<text text-anchor="middle" x="448.36" y="-684.5" font-family="Times New Roman,serif" font-size="14.00">Samples weight: 0.02</text>
</g>
<!-- BB18&#45;&gt;BB19 -->
<g id="edge26" class="edge">
<title>BB18&#45;&gt;BB19</title>
<path fill="none" stroke="black" d="M448.36,-776.57C448.36,-768.39 448.36,-759.61 448.36,-751.09"/>
<polygon fill="black" stroke="black" points="451.86,-750.87 448.36,-740.87 444.86,-750.87 451.86,-750.87"/>
</g>
<!-- BB19&#45;&gt;BB20 -->
<g id="edge27" class="edge">
<title>BB19&#45;&gt;BB20</title>
<path fill="none" stroke="black" d="M448.36,-665.61C448.36,-657.44 448.36,-648.66 448.36,-640.13"/>
<polygon fill="black" stroke="black" points="451.86,-639.92 448.36,-629.92 444.86,-639.92 451.86,-639.92"/>
</g>
</g>
</svg>
