<?xml version="1.0" encoding="UTF-8" standalone="no"?>
<!DOCTYPE svg PUBLIC "-//W3C//DTD SVG 1.1//EN"
 "http://www.w3.org/Graphics/SVG/1.1/DTD/svg11.dtd">
<!-- Generated by graphviz version 2.47.0 (20210316.0004)
 -->
<!-- Title: G Pages: 1 -->
<svg width="751pt" height="1161pt"
 viewBox="0.00 0.00 751.42 1161.50" xmlns="http://www.w3.org/2000/svg" xmlns:xlink="http://www.w3.org/1999/xlink">
<g id="graph0" class="graph" transform="scale(1 1) rotate(0) translate(4 1157.5)">
<title>G</title>
<polygon fill="white" stroke="transparent" points="-4,4 -4,-1157.5 747.42,-1157.5 747.42,4 -4,4"/>
<!-- BB0 -->
<g id="node1" class="node">
<title>BB0</title>
<ellipse fill="none" stroke="black" cx="254.14" cy="-1105.42" rx="103.48" ry="48.17"/>
<text text-anchor="middle" x="254.14" y="-1124.22" font-family="Times New Roman,serif" font-size="14.00">[0..20)</text>
<text text-anchor="middle" x="254.14" y="-1109.22" font-family="Times New Roman,serif" font-size="14.00">Count: 2</text>
<text text-anchor="middle" x="254.14" y="-1094.22" font-family="Times New Roman,serif" font-size="14.00">Normalized count: 1.00</text>
<text text-anchor="middle" x="254.14" y="-1079.22" font-family="Times New Roman,serif" font-size="14.00">Samples weight: 0.00</text>
</g>
<!-- BB11 -->
<g id="node12" class="node">
<title>BB11</title>
<ellipse fill="none" stroke="black" cx="254.14" cy="-973.25" rx="113.27" ry="48.17"/>
<text text-anchor="middle" x="254.14" y="-992.05" font-family="Times New Roman,serif" font-size="14.00">[60..63)</text>
<text text-anchor="middle" x="254.14" y="-977.05" font-family="Times New Roman,serif" font-size="14.00">Count: 523</text>
<text text-anchor="middle" x="254.14" y="-962.05" font-family="Times New Roman,serif" font-size="14.00">Normalized count: 261.50</text>
<text text-anchor="middle" x="254.14" y="-947.05" font-family="Times New Roman,serif" font-size="14.00">Samples weight: 0.00</text>
</g>
<!-- BB0&#45;&gt;BB11 -->
<g id="edge1" class="edge">
<title>BB0&#45;&gt;BB11</title>
<path fill="none" stroke="black" d="M254.14,-1057.05C254.14,-1048.79 254.14,-1040.1 254.14,-1031.6"/>
<polygon fill="black" stroke="black" points="257.64,-1031.36 254.14,-1021.36 250.64,-1031.36 257.64,-1031.36"/>
</g>
<!-- BB1 -->
<g id="node2" class="node">
<title>BB1</title>
<ellipse fill="none" stroke="black" cx="254.14" cy="-841.08" rx="113.27" ry="48.17"/>
<text text-anchor="middle" x="254.14" y="-859.88" font-family="Times New Roman,serif" font-size="14.00">[20..24)</text>
<text text-anchor="middle" x="254.14" y="-844.88" font-family="Times New Roman,serif" font-size="14.00">Count: 521</text>
<text text-anchor="middle" x="254.14" y="-829.88" font-family="Times New Roman,serif" font-size="14.00">Normalized count: 260.50</text>
<text text-anchor="middle" x="254.14" y="-814.88" font-family="Times New Roman,serif" font-size="14.00">Samples weight: 0.00</text>
</g>
<!-- BB9 -->
<g id="node10" class="node">
<title>BB9</title>
<ellipse fill="none" stroke="black" cx="257.14" cy="-708.92" rx="118.17" ry="48.17"/>
<text text-anchor="middle" x="257.14" y="-727.72" font-family="Times New Roman,serif" font-size="14.00">[56..5b)</text>
<text text-anchor="middle" x="257.14" y="-712.72" font-family="Times New Roman,serif" font-size="14.00">Count: 6151</text>
<text text-anchor="middle" x="257.14" y="-697.72" font-family="Times New Roman,serif" font-size="14.00">Normalized count: 3075.50</text>
<text text-anchor="middle" x="257.14" y="-682.72" font-family="Times New Roman,serif" font-size="14.00">Samples weight: 0.00</text>
</g>
<!-- BB1&#45;&gt;BB9 -->
<g id="edge2" class="edge">
<title>BB1&#45;&gt;BB9</title>
<path fill="none" stroke="black" d="M255.23,-792.72C255.42,-784.45 255.62,-775.77 255.82,-767.27"/>
<polygon fill="black" stroke="black" points="259.32,-767.1 256.05,-757.02 252.32,-766.94 259.32,-767.1"/>
</g>
<!-- BB2 -->
<g id="node3" class="node">
<title>BB2</title>
<ellipse fill="none" stroke="black" cx="403.14" cy="-576.75" rx="118.17" ry="48.17"/>
<text text-anchor="middle" x="403.14" y="-595.55" font-family="Times New Roman,serif" font-size="14.00">[24..28)</text>
<text text-anchor="middle" x="403.14" y="-580.55" font-family="Times New Roman,serif" font-size="14.00">Count: 5630</text>
<text text-anchor="middle" x="403.14" y="-565.55" font-family="Times New Roman,serif" font-size="14.00">Normalized count: 2815.00</text>
<text text-anchor="middle" x="403.14" y="-550.55" font-family="Times New Roman,serif" font-size="14.00">Samples weight: 0.00</text>
</g>
<!-- BB7 -->
<g id="node8" class="node">
<title>BB7</title>
<ellipse fill="none" stroke="black" cx="405.14" cy="-444.58" rx="122.16" ry="48.17"/>
<text text-anchor="middle" x="405.14" y="-463.38" font-family="Times New Roman,serif" font-size="14.00">[4d..52)</text>
<text text-anchor="middle" x="405.14" y="-448.38" font-family="Times New Roman,serif" font-size="14.00">Count: 95045</text>
<text text-anchor="middle" x="405.14" y="-433.38" font-family="Times New Roman,serif" font-size="14.00">Normalized count: 47522.50</text>
<text text-anchor="middle" x="405.14" y="-418.38" font-family="Times New Roman,serif" font-size="14.00">Samples weight: 0.06</text>
</g>
<!-- BB2&#45;&gt;BB7 -->
<g id="edge3" class="edge">
<title>BB2&#45;&gt;BB7</title>
<path fill="none" stroke="black" d="M403.86,-528.39C403.99,-520.12 404.13,-511.44 404.26,-502.93"/>
<polygon fill="black" stroke="black" points="407.76,-502.74 404.41,-492.69 400.76,-502.64 407.76,-502.74"/>
</g>
<!-- BB3 -->
<g id="node4" class="node">
<title>BB3</title>
<ellipse fill="none" stroke="black" cx="570.14" cy="-312.42" rx="122.16" ry="48.17"/>
<text text-anchor="middle" x="570.14" y="-331.22" font-family="Times New Roman,serif" font-size="14.00">[28..2d)</text>
<text text-anchor="middle" x="570.14" y="-316.22" font-family="Times New Roman,serif" font-size="14.00">Count: 89415</text>
<text text-anchor="middle" x="570.14" y="-301.22" font-family="Times New Roman,serif" font-size="14.00">Normalized count: 44707.50</text>
<text text-anchor="middle" x="570.14" y="-286.22" font-family="Times New Roman,serif" font-size="14.00">Samples weight: 0.05</text>
</g>
<!-- BB5 -->
<g id="node6" class="node">
<title>BB5</title>
<ellipse fill="none" stroke="black" cx="587.14" cy="-180.25" rx="127.06" ry="48.17"/>
<text text-anchor="middle" x="587.14" y="-199.05" font-family="Times New Roman,serif" font-size="14.00">[43..49)</text>
<text text-anchor="middle" x="587.14" y="-184.05" font-family="Times New Roman,serif" font-size="14.00">Count: 749565</text>
<text text-anchor="middle" x="587.14" y="-169.05" font-family="Times New Roman,serif" font-size="14.00">Normalized count: 374782.50</text>
<text text-anchor="middle" x="587.14" y="-154.05" font-family="Times New Roman,serif" font-size="14.00">Samples weight: 0.44</text>
</g>
<!-- BB3&#45;&gt;BB5 -->
<g id="edge4" class="edge">
<title>BB3&#45;&gt;BB5</title>
<path fill="none" stroke="black" d="M576.32,-264.05C577.41,-255.7 578.56,-246.91 579.68,-238.32"/>
<polygon fill="black" stroke="black" points="583.16,-238.73 580.98,-228.36 576.22,-237.82 583.16,-238.73"/>
</g>
<!-- BB4 -->
<g id="node5" class="node">
<title>BB4</title>
<ellipse fill="none" stroke="black" cx="616.14" cy="-48.08" rx="127.06" ry="48.17"/>
<text text-anchor="middle" x="616.14" y="-66.88" font-family="Times New Roman,serif" font-size="14.00">[2d..43)</text>
<text text-anchor="middle" x="616.14" y="-51.88" font-family="Times New Roman,serif" font-size="14.00">Count: 660150</text>
<text text-anchor="middle" x="616.14" y="-36.88" font-family="Times New Roman,serif" font-size="14.00">Normalized count: 330075.00</text>
<text text-anchor="middle" x="616.14" y="-21.88" font-family="Times New Roman,serif" font-size="14.00">Samples weight: 0.39</text>
</g>
<!-- BB4&#45;&gt;BB5 -->
<g id="edge5" class="edge">
<title>BB4&#45;&gt;BB5</title>
<path fill="none" stroke="black" d="M612.11,-96.44C610.46,-104.83 608.56,-113.64 606.54,-122.26"/>
<polygon fill="black" stroke="black" points="603.07,-121.71 604.12,-132.26 609.87,-123.36 603.07,-121.71"/>
</g>
<!-- BB5&#45;&gt;BB4 -->
<g id="edge6" class="edge">
<title>BB5&#45;&gt;BB4</title>
<path fill="none" stroke="black" d="M591.17,-131.89C592.85,-123.33 594.79,-114.33 596.86,-105.55"/>
<polygon fill="black" stroke="black" points="600.28,-106.3 599.23,-95.76 593.48,-104.65 600.28,-106.3"/>
</g>
<!-- BB6 -->
<g id="node7" class="node">
<title>BB6</title>
<ellipse fill="none" stroke="black" cx="348.14" cy="-48.08" rx="122.16" ry="48.17"/>
<text text-anchor="middle" x="348.14" y="-66.88" font-family="Times New Roman,serif" font-size="14.00">[49..4d)</text>
<text text-anchor="middle" x="348.14" y="-51.88" font-family="Times New Roman,serif" font-size="14.00">Count: 89415</text>
<text text-anchor="middle" x="348.14" y="-36.88" font-family="Times New Roman,serif" font-size="14.00">Normalized count: 44707.50</text>
<text text-anchor="middle" x="348.14" y="-21.88" font-family="Times New Roman,serif" font-size="14.00">Samples weight: 0.05</text>
</g>
<!-- BB5&#45;&gt;BB6 -->
<g id="edge7" class="edge">
<title>BB5&#45;&gt;BB6</title>
<path fill="none" stroke="black" d="M515.75,-140.37C488.07,-125.3 456.26,-107.97 427.84,-92.49"/>
<polygon fill="black" stroke="black" points="429.2,-89.25 418.74,-87.54 425.85,-95.39 429.2,-89.25"/>
</g>
<!-- BB6&#45;&gt;BB7 -->
<g id="edge8" class="edge">
<title>BB6&#45;&gt;BB7</title>
<path fill="none" stroke="black" d="M356.74,-96.43C364.49,-139.98 375.9,-206.38 384.14,-264.33 389.91,-304.99 395.28,-351 399.14,-386.22"/>
<polygon fill="black" stroke="black" points="395.68,-386.76 400.24,-396.33 402.64,-386.01 395.68,-386.76"/>
</g>
<!-- BB7&#45;&gt;BB3 -->
<g id="edge9" class="edge">
<title>BB7&#45;&gt;BB3</title>
<path fill="none" stroke="black" d="M458.71,-401.32C474.64,-388.75 492.22,-374.89 508.61,-361.95"/>
<polygon fill="black" stroke="black" points="510.87,-364.63 516.55,-355.69 506.53,-359.13 510.87,-364.63"/>
</g>
<!-- BB8 -->
<g id="node9" class="node">
<title>BB8</title>
<ellipse fill="none" stroke="black" cx="257.14" cy="-312.42" rx="118.17" ry="48.17"/>
<text text-anchor="middle" x="257.14" y="-331.22" font-family="Times New Roman,serif" font-size="14.00">[52..56)</text>
<text text-anchor="middle" x="257.14" y="-316.22" font-family="Times New Roman,serif" font-size="14.00">Count: 5630</text>
<text text-anchor="middle" x="257.14" y="-301.22" font-family="Times New Roman,serif" font-size="14.00">Normalized count: 2815.00</text>
<text text-anchor="middle" x="257.14" y="-286.22" font-family="Times New Roman,serif" font-size="14.00">Samples weight: 0.00</text>
</g>
<!-- BB7&#45;&gt;BB8 -->
<g id="edge10" class="edge">
<title>BB7&#45;&gt;BB8</title>
<path fill="none" stroke="black" d="M355.86,-400.24C342.3,-388.32 327.5,-375.3 313.58,-363.06"/>
<polygon fill="black" stroke="black" points="315.77,-360.33 305.95,-356.35 311.15,-365.58 315.77,-360.33"/>
</g>
<!-- BB8&#45;&gt;BB9 -->
<g id="edge11" class="edge">
<title>BB8&#45;&gt;BB9</title>
<path fill="none" stroke="black" d="M257.14,-360.66C257.14,-433.31 257.14,-572.24 257.14,-650.55"/>
<polygon fill="black" stroke="black" points="253.64,-650.72 257.14,-660.72 260.64,-650.72 253.64,-650.72"/>
</g>
<!-- BB9&#45;&gt;BB2 -->
<g id="edge12" class="edge">
<title>BB9&#45;&gt;BB2</title>
<path fill="none" stroke="black" d="M305.35,-664.93C318.8,-652.94 333.53,-639.8 347.39,-627.45"/>
<polygon fill="black" stroke="black" points="349.84,-629.95 354.98,-620.69 345.18,-624.73 349.84,-629.95"/>
</g>
<!-- BB10 -->
<g id="node11" class="node">
<title>BB10</title>
<ellipse fill="none" stroke="black" cx="113.14" cy="-576.75" rx="113.27" ry="48.17"/>
<text text-anchor="middle" x="113.14" y="-595.55" font-family="Times New Roman,serif" font-size="14.00">[5b..60)</text>
<text text-anchor="middle" x="113.14" y="-580.55" font-family="Times New Roman,serif" font-size="14.00">Count: 521</text>
<text text-anchor="middle" x="113.14" y="-565.55" font-family="Times New Roman,serif" font-size="14.00">Normalized count: 260.50</text>
<text text-anchor="middle" x="113.14" y="-550.55" font-family="Times New Roman,serif" font-size="14.00">Samples weight: 0.00</text>
</g>
<!-- BB9&#45;&gt;BB10 -->
<g id="edge13" class="edge">
<title>BB9&#45;&gt;BB10</title>
<path fill="none" stroke="black" d="M209.19,-664.57C195.93,-652.59 181.45,-639.5 167.84,-627.2"/>
<polygon fill="black" stroke="black" points="170.15,-624.57 160.39,-620.46 165.46,-629.76 170.15,-624.57"/>
</g>
<!-- BB10&#45;&gt;BB11 -->
<g id="edge14" class="edge">
<title>BB10&#45;&gt;BB11</title>
<path fill="none" stroke="black" d="M103.87,-624.88C93.79,-689.19 84.82,-805.94 132.14,-889.17 141.57,-905.76 155.85,-919.74 171.36,-931.21"/>
<polygon fill="black" stroke="black" points="169.36,-934.09 179.55,-936.98 173.39,-928.37 169.36,-934.09"/>
</g>
<!-- BB11&#45;&gt;BB1 -->
<g id="edge15" class="edge">
<title>BB11&#45;&gt;BB1</title>
<path fill="none" stroke="black" d="M254.14,-924.89C254.14,-916.62 254.14,-907.94 254.14,-899.43"/>
<polygon fill="black" stroke="black" points="257.64,-899.19 254.14,-889.19 250.64,-899.19 257.64,-899.19"/>
</g>
<!-- BB12 -->
<g id="node13" class="node">
<title>BB12</title>
<ellipse fill="none" stroke="black" cx="488.14" cy="-841.08" rx="103.48" ry="48.17"/>
<text text-anchor="middle" x="488.14" y="-859.88" font-family="Times New Roman,serif" font-size="14.00">[63..6b)</text>
<text text-anchor="middle" x="488.14" y="-844.88" font-family="Times New Roman,serif" font-size="14.00">Count: 2</text>
<text text-anchor="middle" x="488.14" y="-829.88" font-family="Times New Roman,serif" font-size="14.00">Normalized count: 1.00</text>
<text text-anchor="middle" x="488.14" y="-814.88" font-family="Times New Roman,serif" font-size="14.00">Samples weight: 0.00</text>
</g>
<!-- BB11&#45;&gt;BB12 -->
<g id="edge16" class="edge">
<title>BB11&#45;&gt;BB12</title>
<path fill="none" stroke="black" d="M321.82,-934.6C350.57,-918.61 384.17,-899.91 413.63,-883.53"/>
<polygon fill="black" stroke="black" points="415.58,-886.45 422.62,-878.53 412.18,-880.33 415.58,-886.45"/>
</g>
</g>
</svg>
