<?xml version="1.0" encoding="UTF-8" standalone="no"?>
<!DOCTYPE svg PUBLIC "-//W3C//DTD SVG 1.1//EN"
 "http://www.w3.org/Graphics/SVG/1.1/DTD/svg11.dtd">
<!-- Generated by graphviz version 2.47.0 (20210316.0004)
 -->
<!-- Title: G Pages: 1 -->
<svg width="906pt" height="527pt"
 viewBox="0.00 0.00 905.72 526.77" xmlns="http://www.w3.org/2000/svg" xmlns:xlink="http://www.w3.org/1999/xlink">
<g id="graph0" class="graph" transform="scale(1 1) rotate(0) translate(4 522.77)">
<title>G</title>
<polygon fill="white" stroke="transparent" points="-4,4 -4,-522.77 901.72,-522.77 901.72,4 -4,4"/>
<!-- BB0 -->
<g id="node1" class="node">
<title>BB0</title>
<ellipse fill="none" stroke="black" cx="448.36" cy="-481.29" rx="105.22" ry="37.45"/>
<text text-anchor="middle" x="448.36" y="-492.59" font-family="Times New Roman,serif" font-size="14.00">[0..18)</text>
<text text-anchor="middle" x="448.36" y="-477.59" font-family="Times New Roman,serif" font-size="14.00">Normalized Count: 1.00</text>
<text text-anchor="middle" x="448.36" y="-462.59" font-family="Times New Roman,serif" font-size="14.00">Samples weight: 0.04</text>
</g>
<!-- BB1 -->
<g id="node2" class="node">
<title>BB1</title>
<ellipse fill="none" stroke="black" cx="448.36" cy="-370.34" rx="105.22" ry="37.45"/>
<text text-anchor="middle" x="448.36" y="-381.64" font-family="Times New Roman,serif" font-size="14.00">[18..31)</text>
<text text-anchor="middle" x="448.36" y="-366.64" font-family="Times New Roman,serif" font-size="14.00">Normalized Count: 8.04</text>
<text text-anchor="middle" x="448.36" y="-351.64" font-family="Times New Roman,serif" font-size="14.00">Samples weight: 0.31</text>
</g>
<!-- BB0&#45;&gt;BB1 -->
<g id="edge1" class="edge">
<title>BB0&#45;&gt;BB1</title>
<path fill="none" stroke="black" d="M448.36,-443.71C448.36,-435.53 448.36,-426.75 448.36,-418.23"/>
<polygon fill="black" stroke="black" points="451.86,-418.01 448.36,-408.01 444.86,-418.01 451.86,-418.01"/>
</g>
<!-- BB2 -->
<g id="node3" class="node">
<title>BB2</title>
<ellipse fill="none" stroke="black" cx="296.36" cy="-259.38" rx="105.22" ry="37.45"/>
<text text-anchor="middle" x="296.36" y="-270.68" font-family="Times New Roman,serif" font-size="14.00">[31..49)</text>
<text text-anchor="middle" x="296.36" y="-255.68" font-family="Times New Roman,serif" font-size="14.00">Normalized Count: 7.16</text>
<text text-anchor="middle" x="296.36" y="-240.68" font-family="Times New Roman,serif" font-size="14.00">Samples weight: 0.27</text>
</g>
<!-- BB1&#45;&gt;BB2 -->
<g id="edge3" class="edge">
<title>BB1&#45;&gt;BB2</title>
<path fill="none" stroke="black" d="M402.34,-336.35C385.97,-324.62 367.39,-311.3 350.41,-299.13"/>
<polygon fill="black" stroke="black" points="352.39,-296.24 342.22,-293.26 348.31,-301.93 352.39,-296.24"/>
</g>
<!-- BB5 -->
<g id="node6" class="node">
<title>BB5</title>
<ellipse fill="none" stroke="black" cx="600.36" cy="-259.38" rx="105.22" ry="37.45"/>
<text text-anchor="middle" x="600.36" y="-270.68" font-family="Times New Roman,serif" font-size="14.00">[7b..93)</text>
<text text-anchor="middle" x="600.36" y="-255.68" font-family="Times New Roman,serif" font-size="14.00">Normalized Count: 0.88</text>
<text text-anchor="middle" x="600.36" y="-240.68" font-family="Times New Roman,serif" font-size="14.00">Samples weight: 0.03</text>
</g>
<!-- BB1&#45;&gt;BB5 -->
<g id="edge2" class="edge">
<title>BB1&#45;&gt;BB5</title>
<path fill="none" stroke="black" d="M494.38,-336.35C510.75,-324.62 529.33,-311.3 546.31,-299.13"/>
<polygon fill="black" stroke="black" points="548.41,-301.93 554.5,-293.26 544.33,-296.24 548.41,-301.93"/>
</g>
<!-- BB3 -->
<g id="node4" class="node">
<title>BB3</title>
<ellipse fill="none" stroke="black" cx="334.36" cy="-148.43" rx="105.22" ry="37.45"/>
<text text-anchor="middle" x="334.36" y="-159.73" font-family="Times New Roman,serif" font-size="14.00">[49..62)</text>
<text text-anchor="middle" x="334.36" y="-144.73" font-family="Times New Roman,serif" font-size="14.00">Normalized Count: 6.21</text>
<text text-anchor="middle" x="334.36" y="-129.73" font-family="Times New Roman,serif" font-size="14.00">Samples weight: 0.24</text>
</g>
<!-- BB2&#45;&gt;BB3 -->
<g id="edge5" class="edge">
<title>BB2&#45;&gt;BB3</title>
<path fill="none" stroke="black" d="M309.01,-222.1C311.99,-213.56 315.21,-204.34 318.32,-195.42"/>
<polygon fill="black" stroke="black" points="321.64,-196.52 321.63,-185.92 315.03,-194.21 321.64,-196.52"/>
</g>
<!-- BB4 -->
<g id="node5" class="node">
<title>BB4</title>
<ellipse fill="none" stroke="black" cx="105.36" cy="-148.43" rx="105.22" ry="37.45"/>
<text text-anchor="middle" x="105.36" y="-159.73" font-family="Times New Roman,serif" font-size="14.00">[62..7b)</text>
<text text-anchor="middle" x="105.36" y="-144.73" font-family="Times New Roman,serif" font-size="14.00">Normalized Count: 0.96</text>
<text text-anchor="middle" x="105.36" y="-129.73" font-family="Times New Roman,serif" font-size="14.00">Samples weight: 0.04</text>
</g>
<!-- BB2&#45;&gt;BB4 -->
<g id="edge4" class="edge">
<title>BB2&#45;&gt;BB4</title>
<path fill="none" stroke="black" d="M241.63,-227.16C218.95,-214.23 192.5,-199.14 168.96,-185.71"/>
<polygon fill="black" stroke="black" points="170.52,-182.57 160.1,-180.66 167.05,-188.65 170.52,-182.57"/>
</g>
<!-- BB3&#45;&gt;BB1 -->
<g id="edge6" class="edge">
<title>BB3&#45;&gt;BB1</title>
<path fill="none" stroke="black" d="M377.51,-182.74C389.67,-194.01 401.87,-207.44 410.36,-221.91 428.51,-252.83 438.09,-292.38 443.09,-322.73"/>
<polygon fill="black" stroke="black" points="439.64,-323.3 444.62,-332.65 446.56,-322.23 439.64,-323.3"/>
</g>
<!-- BB8 -->
<g id="node9" class="node">
<title>BB8</title>
<ellipse fill="none" stroke="black" cx="448.36" cy="-37.48" rx="105.22" ry="37.45"/>
<text text-anchor="middle" x="448.36" y="-48.78" font-family="Times New Roman,serif" font-size="14.00">[c6..11a)</text>
<text text-anchor="middle" x="448.36" y="-33.78" font-family="Times New Roman,serif" font-size="14.00">Normalized Count: 1.00</text>
<text text-anchor="middle" x="448.36" y="-18.78" font-family="Times New Roman,serif" font-size="14.00">Samples weight: 0.04</text>
</g>
<!-- BB4&#45;&gt;BB8 -->
<g id="edge7" class="edge">
<title>BB4&#45;&gt;BB8</title>
<path fill="none" stroke="black" d="M182.76,-122.84C235.79,-106 306.21,-83.63 361.21,-66.16"/>
<polygon fill="black" stroke="black" points="362.47,-69.43 370.94,-63.07 360.35,-62.76 362.47,-69.43"/>
</g>
<!-- BB6 -->
<g id="node7" class="node">
<title>BB6</title>
<ellipse fill="none" stroke="black" cx="563.36" cy="-148.43" rx="105.22" ry="37.45"/>
<text text-anchor="middle" x="563.36" y="-159.73" font-family="Times New Roman,serif" font-size="14.00">[93..af)</text>
<text text-anchor="middle" x="563.36" y="-144.73" font-family="Times New Roman,serif" font-size="14.00">Normalized Count: 0.84</text>
<text text-anchor="middle" x="563.36" y="-129.73" font-family="Times New Roman,serif" font-size="14.00">Samples weight: 0.03</text>
</g>
<!-- BB5&#45;&gt;BB6 -->
<g id="edge9" class="edge">
<title>BB5&#45;&gt;BB6</title>
<path fill="none" stroke="black" d="M588.04,-222.1C585.14,-213.56 582,-204.34 578.98,-195.42"/>
<polygon fill="black" stroke="black" points="582.28,-194.27 575.75,-185.92 575.65,-196.52 582.28,-194.27"/>
</g>
<!-- BB7 -->
<g id="node8" class="node">
<title>BB7</title>
<ellipse fill="none" stroke="black" cx="792.36" cy="-148.43" rx="105.22" ry="37.45"/>
<text text-anchor="middle" x="792.36" y="-159.73" font-family="Times New Roman,serif" font-size="14.00">[af..c6)</text>
<text text-anchor="middle" x="792.36" y="-144.73" font-family="Times New Roman,serif" font-size="14.00">Normalized Count: 0.04</text>
<text text-anchor="middle" x="792.36" y="-129.73" font-family="Times New Roman,serif" font-size="14.00">Samples weight: 0.00</text>
</g>
<!-- BB5&#45;&gt;BB7 -->
<g id="edge8" class="edge">
<title>BB5&#45;&gt;BB7</title>
<path fill="none" stroke="black" d="M655.12,-227.31C678.02,-214.31 704.79,-199.12 728.57,-185.63"/>
<polygon fill="black" stroke="black" points="730.55,-188.53 737.52,-180.55 727.1,-182.44 730.55,-188.53"/>
</g>
<!-- BB6&#45;&gt;BB1 -->
<g id="edge10" class="edge">
<title>BB6&#45;&gt;BB1</title>
<path fill="none" stroke="black" d="M519.63,-182.65C507.32,-193.92 494.95,-207.37 486.36,-221.91 468.11,-252.77 458.53,-292.33 453.56,-322.7"/>
<polygon fill="black" stroke="black" points="450.09,-322.2 452.04,-332.62 457.01,-323.26 450.09,-322.2"/>
</g>
<!-- BB7&#45;&gt;BB8 -->
<g id="edge11" class="edge">
<title>BB7&#45;&gt;BB8</title>
<path fill="none" stroke="black" d="M715.04,-122.9C702.44,-118.9 689.54,-114.81 677.36,-110.95 630.42,-96.08 578.07,-79.51 535.28,-65.97"/>
<polygon fill="black" stroke="black" points="536.33,-62.63 525.74,-62.95 534.22,-69.31 536.33,-62.63"/>
</g>
</g>
</svg>
