<?xml version="1.0" encoding="UTF-8" standalone="no"?>
<!DOCTYPE svg PUBLIC "-//W3C//DTD SVG 1.1//EN"
 "http://www.w3.org/Graphics/SVG/1.1/DTD/svg11.dtd">
<!-- Generated by graphviz version 2.47.0 (20210316.0004)
 -->
<!-- Title: G Pages: 1 -->
<svg width="710pt" height="1161pt"
 viewBox="0.00 0.00 710.32 1161.50" xmlns="http://www.w3.org/2000/svg" xmlns:xlink="http://www.w3.org/1999/xlink">
<g id="graph0" class="graph" transform="scale(1 1) rotate(0) translate(4 1157.5)">
<title>G</title>
<polygon fill="white" stroke="transparent" points="-4,4 -4,-1157.5 706.32,-1157.5 706.32,4 -4,4"/>
<!-- BB0 -->
<g id="node1" class="node">
<title>BB0</title>
<ellipse fill="none" stroke="black" cx="234.24" cy="-1105.42" rx="103.48" ry="48.17"/>
<text text-anchor="middle" x="234.24" y="-1124.22" font-family="Times New Roman,serif" font-size="14.00">[0..20)</text>
<text text-anchor="middle" x="234.24" y="-1109.22" font-family="Times New Roman,serif" font-size="14.00">Count: 2</text>
<text text-anchor="middle" x="234.24" y="-1094.22" font-family="Times New Roman,serif" font-size="14.00">Normalized count: 1.00</text>
<text text-anchor="middle" x="234.24" y="-1079.22" font-family="Times New Roman,serif" font-size="14.00">Samples weight: 0.00</text>
</g>
<!-- BB11 -->
<g id="node12" class="node">
<title>BB11</title>
<ellipse fill="none" stroke="black" cx="234.24" cy="-973.25" rx="103.48" ry="48.17"/>
<text text-anchor="middle" x="234.24" y="-992.05" font-family="Times New Roman,serif" font-size="14.00">[60..63)</text>
<text text-anchor="middle" x="234.24" y="-977.05" font-family="Times New Roman,serif" font-size="14.00">Count: 4</text>
<text text-anchor="middle" x="234.24" y="-962.05" font-family="Times New Roman,serif" font-size="14.00">Normalized count: 2.00</text>
<text text-anchor="middle" x="234.24" y="-947.05" font-family="Times New Roman,serif" font-size="14.00">Samples weight: 0.00</text>
</g>
<!-- BB0&#45;&gt;BB11 -->
<g id="edge1" class="edge">
<title>BB0&#45;&gt;BB11</title>
<path fill="none" stroke="black" d="M234.24,-1057.05C234.24,-1048.79 234.24,-1040.1 234.24,-1031.6"/>
<polygon fill="black" stroke="black" points="237.74,-1031.36 234.24,-1021.36 230.74,-1031.36 237.74,-1031.36"/>
</g>
<!-- BB1 -->
<g id="node2" class="node">
<title>BB1</title>
<ellipse fill="none" stroke="black" cx="234.24" cy="-841.08" rx="103.48" ry="48.17"/>
<text text-anchor="middle" x="234.24" y="-859.88" font-family="Times New Roman,serif" font-size="14.00">[20..24)</text>
<text text-anchor="middle" x="234.24" y="-844.88" font-family="Times New Roman,serif" font-size="14.00">Count: 2</text>
<text text-anchor="middle" x="234.24" y="-829.88" font-family="Times New Roman,serif" font-size="14.00">Normalized count: 1.00</text>
<text text-anchor="middle" x="234.24" y="-814.88" font-family="Times New Roman,serif" font-size="14.00">Samples weight: 0.00</text>
</g>
<!-- BB9 -->
<g id="node10" class="node">
<title>BB9</title>
<ellipse fill="none" stroke="black" cx="234.24" cy="-708.92" rx="103.48" ry="48.17"/>
<text text-anchor="middle" x="234.24" y="-727.72" font-family="Times New Roman,serif" font-size="14.00">[56..5b)</text>
<text text-anchor="middle" x="234.24" y="-712.72" font-family="Times New Roman,serif" font-size="14.00">Count: 10</text>
<text text-anchor="middle" x="234.24" y="-697.72" font-family="Times New Roman,serif" font-size="14.00">Normalized count: 5.00</text>
<text text-anchor="middle" x="234.24" y="-682.72" font-family="Times New Roman,serif" font-size="14.00">Samples weight: 0.00</text>
</g>
<!-- BB1&#45;&gt;BB9 -->
<g id="edge2" class="edge">
<title>BB1&#45;&gt;BB9</title>
<path fill="none" stroke="black" d="M234.24,-792.72C234.24,-784.45 234.24,-775.77 234.24,-767.27"/>
<polygon fill="black" stroke="black" points="237.74,-767.02 234.24,-757.02 230.74,-767.02 237.74,-767.02"/>
</g>
<!-- BB2 -->
<g id="node3" class="node">
<title>BB2</title>
<ellipse fill="none" stroke="black" cx="368.24" cy="-576.75" rx="103.48" ry="48.17"/>
<text text-anchor="middle" x="368.24" y="-595.55" font-family="Times New Roman,serif" font-size="14.00">[24..28)</text>
<text text-anchor="middle" x="368.24" y="-580.55" font-family="Times New Roman,serif" font-size="14.00">Count: 8</text>
<text text-anchor="middle" x="368.24" y="-565.55" font-family="Times New Roman,serif" font-size="14.00">Normalized count: 4.00</text>
<text text-anchor="middle" x="368.24" y="-550.55" font-family="Times New Roman,serif" font-size="14.00">Samples weight: 0.00</text>
</g>
<!-- BB7 -->
<g id="node8" class="node">
<title>BB7</title>
<ellipse fill="none" stroke="black" cx="370.24" cy="-444.58" rx="108.38" ry="48.17"/>
<text text-anchor="middle" x="370.24" y="-463.38" font-family="Times New Roman,serif" font-size="14.00">[4d..52)</text>
<text text-anchor="middle" x="370.24" y="-448.38" font-family="Times New Roman,serif" font-size="14.00">Count: 21</text>
<text text-anchor="middle" x="370.24" y="-433.38" font-family="Times New Roman,serif" font-size="14.00">Normalized count: 10.50</text>
<text text-anchor="middle" x="370.24" y="-418.38" font-family="Times New Roman,serif" font-size="14.00">Samples weight: 0.01</text>
</g>
<!-- BB2&#45;&gt;BB7 -->
<g id="edge3" class="edge">
<title>BB2&#45;&gt;BB7</title>
<path fill="none" stroke="black" d="M368.97,-528.39C369.09,-520.12 369.23,-511.44 369.36,-502.93"/>
<polygon fill="black" stroke="black" points="372.86,-502.74 369.51,-492.69 365.86,-502.64 372.86,-502.74"/>
</g>
<!-- BB3 -->
<g id="node4" class="node">
<title>BB3</title>
<ellipse fill="none" stroke="black" cx="553.24" cy="-312.42" rx="103.48" ry="48.17"/>
<text text-anchor="middle" x="553.24" y="-331.22" font-family="Times New Roman,serif" font-size="14.00">[28..2d)</text>
<text text-anchor="middle" x="553.24" y="-316.22" font-family="Times New Roman,serif" font-size="14.00">Count: 13</text>
<text text-anchor="middle" x="553.24" y="-301.22" font-family="Times New Roman,serif" font-size="14.00">Normalized count: 6.50</text>
<text text-anchor="middle" x="553.24" y="-286.22" font-family="Times New Roman,serif" font-size="14.00">Samples weight: 0.00</text>
</g>
<!-- BB5 -->
<g id="node6" class="node">
<title>BB5</title>
<ellipse fill="none" stroke="black" cx="560.24" cy="-180.25" rx="118.17" ry="48.17"/>
<text text-anchor="middle" x="560.24" y="-199.05" font-family="Times New Roman,serif" font-size="14.00">[43..49)</text>
<text text-anchor="middle" x="560.24" y="-184.05" font-family="Times New Roman,serif" font-size="14.00">Count: 2019</text>
<text text-anchor="middle" x="560.24" y="-169.05" font-family="Times New Roman,serif" font-size="14.00">Normalized count: 1009.50</text>
<text text-anchor="middle" x="560.24" y="-154.05" font-family="Times New Roman,serif" font-size="14.00">Samples weight: 0.49</text>
</g>
<!-- BB3&#45;&gt;BB5 -->
<g id="edge4" class="edge">
<title>BB3&#45;&gt;BB5</title>
<path fill="none" stroke="black" d="M555.78,-264.05C556.23,-255.79 556.7,-247.1 557.15,-238.6"/>
<polygon fill="black" stroke="black" points="560.66,-238.53 557.7,-228.36 553.67,-238.16 560.66,-238.53"/>
</g>
<!-- BB4 -->
<g id="node5" class="node">
<title>BB4</title>
<ellipse fill="none" stroke="black" cx="584.24" cy="-48.08" rx="118.17" ry="48.17"/>
<text text-anchor="middle" x="584.24" y="-66.88" font-family="Times New Roman,serif" font-size="14.00">[2d..43)</text>
<text text-anchor="middle" x="584.24" y="-51.88" font-family="Times New Roman,serif" font-size="14.00">Count: 2006</text>
<text text-anchor="middle" x="584.24" y="-36.88" font-family="Times New Roman,serif" font-size="14.00">Normalized count: 1003.00</text>
<text text-anchor="middle" x="584.24" y="-21.88" font-family="Times New Roman,serif" font-size="14.00">Samples weight: 0.49</text>
</g>
<!-- BB4&#45;&gt;BB5 -->
<g id="edge5" class="edge">
<title>BB4&#45;&gt;BB5</title>
<path fill="none" stroke="black" d="M582.03,-96.44C580.7,-104.83 579.14,-113.64 577.45,-122.26"/>
<polygon fill="black" stroke="black" points="573.98,-121.76 575.41,-132.26 580.84,-123.16 573.98,-121.76"/>
</g>
<!-- BB5&#45;&gt;BB4 -->
<g id="edge6" class="edge">
<title>BB5&#45;&gt;BB4</title>
<path fill="none" stroke="black" d="M562.45,-131.89C563.77,-123.53 565.33,-114.75 567.01,-106.15"/>
<polygon fill="black" stroke="black" points="570.47,-106.69 569.04,-96.19 563.61,-105.29 570.47,-106.69"/>
</g>
<!-- BB6 -->
<g id="node7" class="node">
<title>BB6</title>
<ellipse fill="none" stroke="black" cx="345.24" cy="-48.08" rx="103.48" ry="48.17"/>
<text text-anchor="middle" x="345.24" y="-66.88" font-family="Times New Roman,serif" font-size="14.00">[49..4d)</text>
<text text-anchor="middle" x="345.24" y="-51.88" font-family="Times New Roman,serif" font-size="14.00">Count: 13</text>
<text text-anchor="middle" x="345.24" y="-36.88" font-family="Times New Roman,serif" font-size="14.00">Normalized count: 6.50</text>
<text text-anchor="middle" x="345.24" y="-21.88" font-family="Times New Roman,serif" font-size="14.00">Samples weight: 0.00</text>
</g>
<!-- BB5&#45;&gt;BB6 -->
<g id="edge7" class="edge">
<title>BB5&#45;&gt;BB6</title>
<path fill="none" stroke="black" d="M495.44,-140.02C470.33,-124.82 441.52,-107.37 415.88,-91.85"/>
<polygon fill="black" stroke="black" points="417.69,-88.86 407.32,-86.67 414.06,-94.84 417.69,-88.86"/>
</g>
<!-- BB6&#45;&gt;BB7 -->
<g id="edge8" class="edge">
<title>BB6&#45;&gt;BB7</title>
<path fill="none" stroke="black" d="M348.23,-96.33C352.84,-168.98 361.64,-307.9 366.6,-386.22"/>
<polygon fill="black" stroke="black" points="363.12,-386.63 367.25,-396.39 370.11,-386.19 363.12,-386.63"/>
</g>
<!-- BB7&#45;&gt;BB3 -->
<g id="edge9" class="edge">
<title>BB7&#45;&gt;BB3</title>
<path fill="none" stroke="black" d="M426.64,-403.47C446.48,-389.35 468.92,-373.39 489.34,-358.87"/>
<polygon fill="black" stroke="black" points="491.53,-361.6 497.65,-352.95 487.48,-355.9 491.53,-361.6"/>
</g>
<!-- BB8 -->
<g id="node9" class="node">
<title>BB8</title>
<ellipse fill="none" stroke="black" cx="236.24" cy="-312.42" rx="103.48" ry="48.17"/>
<text text-anchor="middle" x="236.24" y="-331.22" font-family="Times New Roman,serif" font-size="14.00">[52..56)</text>
<text text-anchor="middle" x="236.24" y="-316.22" font-family="Times New Roman,serif" font-size="14.00">Count: 8</text>
<text text-anchor="middle" x="236.24" y="-301.22" font-family="Times New Roman,serif" font-size="14.00">Normalized count: 4.00</text>
<text text-anchor="middle" x="236.24" y="-286.22" font-family="Times New Roman,serif" font-size="14.00">Samples weight: 0.00</text>
</g>
<!-- BB7&#45;&gt;BB8 -->
<g id="edge10" class="edge">
<title>BB7&#45;&gt;BB8</title>
<path fill="none" stroke="black" d="M325.99,-400.6C313.75,-388.72 300.37,-375.71 287.76,-363.46"/>
<polygon fill="black" stroke="black" points="290.05,-360.81 280.44,-356.35 285.17,-365.83 290.05,-360.81"/>
</g>
<!-- BB8&#45;&gt;BB9 -->
<g id="edge11" class="edge">
<title>BB8&#45;&gt;BB9</title>
<path fill="none" stroke="black" d="M236,-360.66C235.63,-433.31 234.93,-572.24 234.53,-650.55"/>
<polygon fill="black" stroke="black" points="231.03,-650.7 234.48,-660.72 238.03,-650.74 231.03,-650.7"/>
</g>
<!-- BB9&#45;&gt;BB2 -->
<g id="edge12" class="edge">
<title>BB9&#45;&gt;BB2</title>
<path fill="none" stroke="black" d="M278.11,-665.29C290.49,-653.27 304.07,-640.08 316.85,-627.67"/>
<polygon fill="black" stroke="black" points="319.53,-629.94 324.26,-620.47 314.65,-624.92 319.53,-629.94"/>
</g>
<!-- BB10 -->
<g id="node11" class="node">
<title>BB10</title>
<ellipse fill="none" stroke="black" cx="103.24" cy="-576.75" rx="103.48" ry="48.17"/>
<text text-anchor="middle" x="103.24" y="-595.55" font-family="Times New Roman,serif" font-size="14.00">[5b..60)</text>
<text text-anchor="middle" x="103.24" y="-580.55" font-family="Times New Roman,serif" font-size="14.00">Count: 2</text>
<text text-anchor="middle" x="103.24" y="-565.55" font-family="Times New Roman,serif" font-size="14.00">Normalized count: 1.00</text>
<text text-anchor="middle" x="103.24" y="-550.55" font-family="Times New Roman,serif" font-size="14.00">Samples weight: 0.00</text>
</g>
<!-- BB9&#45;&gt;BB10 -->
<g id="edge13" class="edge">
<title>BB9&#45;&gt;BB10</title>
<path fill="none" stroke="black" d="M190.98,-664.93C179.02,-653.05 165.93,-640.05 153.61,-627.8"/>
<polygon fill="black" stroke="black" points="156.01,-625.25 146.45,-620.69 151.08,-630.22 156.01,-625.25"/>
</g>
<!-- BB10&#45;&gt;BB11 -->
<g id="edge14" class="edge">
<title>BB10&#45;&gt;BB11</title>
<path fill="none" stroke="black" d="M94.41,-624.88C84.91,-688.93 76.68,-805.12 122.24,-889.17 130.95,-905.24 144.27,-919.06 158.72,-930.56"/>
<polygon fill="black" stroke="black" points="156.75,-933.46 166.84,-936.7 160.98,-927.88 156.75,-933.46"/>
</g>
<!-- BB11&#45;&gt;BB1 -->
<g id="edge15" class="edge">
<title>BB11&#45;&gt;BB1</title>
<path fill="none" stroke="black" d="M234.24,-924.89C234.24,-916.62 234.24,-907.94 234.24,-899.43"/>
<polygon fill="black" stroke="black" points="237.74,-899.19 234.24,-889.19 230.74,-899.19 237.74,-899.19"/>
</g>
<!-- BB12 -->
<g id="node13" class="node">
<title>BB12</title>
<ellipse fill="none" stroke="black" cx="458.24" cy="-841.08" rx="103.48" ry="48.17"/>
<text text-anchor="middle" x="458.24" y="-859.88" font-family="Times New Roman,serif" font-size="14.00">[63..6b)</text>
<text text-anchor="middle" x="458.24" y="-844.88" font-family="Times New Roman,serif" font-size="14.00">Count: 2</text>
<text text-anchor="middle" x="458.24" y="-829.88" font-family="Times New Roman,serif" font-size="14.00">Normalized count: 1.00</text>
<text text-anchor="middle" x="458.24" y="-814.88" font-family="Times New Roman,serif" font-size="14.00">Samples weight: 0.00</text>
</g>
<!-- BB11&#45;&gt;BB12 -->
<g id="edge16" class="edge">
<title>BB11&#45;&gt;BB12</title>
<path fill="none" stroke="black" d="M297.83,-935.3C325.26,-919.36 357.48,-900.63 385.83,-884.16"/>
<polygon fill="black" stroke="black" points="387.6,-887.18 394.49,-879.13 384.08,-881.13 387.6,-887.18"/>
</g>
</g>
</svg>
