<?xml version="1.0" encoding="UTF-8" standalone="no"?>
<!DOCTYPE svg PUBLIC "-//W3C//DTD SVG 1.1//EN"
 "http://www.w3.org/Graphics/SVG/1.1/DTD/svg11.dtd">
<!-- Generated by graphviz version 2.47.0 (20210316.0004)
 -->
<!-- Title: G Pages: 1 -->
<svg width="323pt" height="780pt"
 viewBox="0.00 0.00 323.27 779.66" xmlns="http://www.w3.org/2000/svg" xmlns:xlink="http://www.w3.org/1999/xlink">
<g id="graph0" class="graph" transform="scale(1 1) rotate(0) translate(4 775.66)">
<title>G</title>
<polygon fill="white" stroke="transparent" points="-4,4 -4,-775.66 319.27,-775.66 319.27,4 -4,4"/>
<!-- BB0 -->
<g id="node1" class="node">
<title>BB0</title>
<ellipse fill="none" stroke="black" cx="113.13" cy="-744.79" rx="37.45" ry="26.74"/>
<text text-anchor="middle" x="113.13" y="-748.59" font-family="Times New Roman,serif" font-size="14.00">[0..20)</text>
<text text-anchor="middle" x="113.13" y="-733.59" font-family="Times New Roman,serif" font-size="14.00">0.00</text>
</g>
<!-- BB11 -->
<g id="node12" class="node">
<title>BB11</title>
<ellipse fill="none" stroke="black" cx="113.13" cy="-655.05" rx="42.35" ry="26.74"/>
<text text-anchor="middle" x="113.13" y="-658.85" font-family="Times New Roman,serif" font-size="14.00">[60..63)</text>
<text text-anchor="middle" x="113.13" y="-643.85" font-family="Times New Roman,serif" font-size="14.00">0.00</text>
</g>
<!-- BB0&#45;&gt;BB11 -->
<g id="edge1" class="edge">
<title>BB0&#45;&gt;BB11</title>
<path fill="none" stroke="black" d="M113.13,-717.47C113.13,-709.5 113.13,-700.61 113.13,-692.12"/>
<polygon fill="black" stroke="black" points="116.63,-692.05 113.13,-682.05 109.63,-692.05 116.63,-692.05"/>
</g>
<!-- BB1 -->
<g id="node2" class="node">
<title>BB1</title>
<ellipse fill="none" stroke="black" cx="113.13" cy="-565.31" rx="42.35" ry="26.74"/>
<text text-anchor="middle" x="113.13" y="-569.11" font-family="Times New Roman,serif" font-size="14.00">[20..24)</text>
<text text-anchor="middle" x="113.13" y="-554.11" font-family="Times New Roman,serif" font-size="14.00">0.00</text>
</g>
<!-- BB9 -->
<g id="node10" class="node">
<title>BB9</title>
<ellipse fill="none" stroke="black" cx="114.13" cy="-475.57" rx="43.27" ry="26.74"/>
<text text-anchor="middle" x="114.13" y="-479.37" font-family="Times New Roman,serif" font-size="14.00">[56..5b)</text>
<text text-anchor="middle" x="114.13" y="-464.37" font-family="Times New Roman,serif" font-size="14.00">0.00</text>
</g>
<!-- BB1&#45;&gt;BB9 -->
<g id="edge2" class="edge">
<title>BB1&#45;&gt;BB9</title>
<path fill="none" stroke="black" d="M113.43,-537.99C113.52,-530.02 113.63,-521.13 113.72,-512.64"/>
<polygon fill="black" stroke="black" points="117.22,-512.61 113.84,-502.57 110.22,-512.53 117.22,-512.61"/>
</g>
<!-- BB2 -->
<g id="node3" class="node">
<title>BB2</title>
<ellipse fill="none" stroke="black" cx="184.13" cy="-385.83" rx="42.35" ry="26.74"/>
<text text-anchor="middle" x="184.13" y="-389.63" font-family="Times New Roman,serif" font-size="14.00">[24..28)</text>
<text text-anchor="middle" x="184.13" y="-374.63" font-family="Times New Roman,serif" font-size="14.00">0.00</text>
</g>
<!-- BB7 -->
<g id="node8" class="node">
<title>BB7</title>
<ellipse fill="none" stroke="black" cx="185.13" cy="-296.09" rx="43.27" ry="26.74"/>
<text text-anchor="middle" x="185.13" y="-299.89" font-family="Times New Roman,serif" font-size="14.00">[4d..52)</text>
<text text-anchor="middle" x="185.13" y="-284.89" font-family="Times New Roman,serif" font-size="14.00">0.00</text>
</g>
<!-- BB2&#45;&gt;BB7 -->
<g id="edge3" class="edge">
<title>BB2&#45;&gt;BB7</title>
<path fill="none" stroke="black" d="M184.43,-358.51C184.52,-350.54 184.63,-341.65 184.72,-333.16"/>
<polygon fill="black" stroke="black" points="188.22,-333.13 184.84,-323.09 181.22,-333.05 188.22,-333.13"/>
</g>
<!-- BB3 -->
<g id="node4" class="node">
<title>BB3</title>
<ellipse fill="none" stroke="black" cx="263.13" cy="-206.35" rx="43.27" ry="26.74"/>
<text text-anchor="middle" x="263.13" y="-210.15" font-family="Times New Roman,serif" font-size="14.00">[28..2d)</text>
<text text-anchor="middle" x="263.13" y="-195.15" font-family="Times New Roman,serif" font-size="14.00">0.01</text>
</g>
<!-- BB5 -->
<g id="node6" class="node">
<title>BB5</title>
<ellipse fill="none" stroke="black" cx="267.13" cy="-116.61" rx="42.35" ry="26.74"/>
<text text-anchor="middle" x="267.13" y="-120.41" font-family="Times New Roman,serif" font-size="14.00">[43..49)</text>
<text text-anchor="middle" x="267.13" y="-105.41" font-family="Times New Roman,serif" font-size="14.00">0.06</text>
</g>
<!-- BB3&#45;&gt;BB5 -->
<g id="edge4" class="edge">
<title>BB3&#45;&gt;BB5</title>
<path fill="none" stroke="black" d="M264.33,-179.03C264.7,-171.06 265.1,-162.17 265.49,-153.68"/>
<polygon fill="black" stroke="black" points="268.99,-153.76 265.95,-143.61 262,-153.44 268.99,-153.76"/>
</g>
<!-- BB4 -->
<g id="node5" class="node">
<title>BB4</title>
<ellipse fill="none" stroke="black" cx="272.13" cy="-26.87" rx="43.27" ry="26.74"/>
<text text-anchor="middle" x="272.13" y="-30.67" font-family="Times New Roman,serif" font-size="14.00">[2d..43)</text>
<text text-anchor="middle" x="272.13" y="-15.67" font-family="Times New Roman,serif" font-size="14.00">0.91</text>
</g>
<!-- BB4&#45;&gt;BB5 -->
<g id="edge5" class="edge">
<title>BB4&#45;&gt;BB5</title>
<path fill="none" stroke="black" d="M276.88,-53.84C276.92,-61.9 276.55,-70.93 275.84,-79.55"/>
<polygon fill="black" stroke="black" points="272.33,-79.46 274.82,-89.76 279.3,-80.16 272.33,-79.46"/>
</g>
<!-- BB5&#45;&gt;BB4 -->
<g id="edge6" class="edge">
<title>BB5&#45;&gt;BB4</title>
<path fill="none" stroke="black" d="M262.39,-89.76C262.34,-81.55 262.73,-72.32 263.46,-63.54"/>
<polygon fill="black" stroke="black" points="266.94,-63.84 264.47,-53.54 259.98,-63.13 266.94,-63.84"/>
</g>
<!-- BB6 -->
<g id="node7" class="node">
<title>BB6</title>
<ellipse fill="none" stroke="black" cx="168.13" cy="-26.87" rx="43.27" ry="26.74"/>
<text text-anchor="middle" x="168.13" y="-30.67" font-family="Times New Roman,serif" font-size="14.00">[49..4d)</text>
<text text-anchor="middle" x="168.13" y="-15.67" font-family="Times New Roman,serif" font-size="14.00">0.01</text>
</g>
<!-- BB5&#45;&gt;BB6 -->
<g id="edge7" class="edge">
<title>BB5&#45;&gt;BB6</title>
<path fill="none" stroke="black" d="M243.17,-94.37C230.13,-82.82 213.84,-68.38 199.77,-55.91"/>
<polygon fill="black" stroke="black" points="202.03,-53.23 192.22,-49.22 197.38,-58.47 202.03,-53.23"/>
</g>
<!-- BB6&#45;&gt;BB7 -->
<g id="edge8" class="edge">
<title>BB6&#45;&gt;BB7</title>
<path fill="none" stroke="black" d="M169.8,-54.08C172.85,-102.06 179.34,-204.06 182.82,-258.71"/>
<polygon fill="black" stroke="black" points="179.34,-259.22 183.47,-268.98 186.33,-258.78 179.34,-259.22"/>
</g>
<!-- BB7&#45;&gt;BB3 -->
<g id="edge9" class="edge">
<title>BB7&#45;&gt;BB3</title>
<path fill="none" stroke="black" d="M205.63,-272.04C214.94,-261.56 226.09,-249.02 236.08,-237.78"/>
<polygon fill="black" stroke="black" points="238.75,-240.05 242.78,-230.25 233.52,-235.4 238.75,-240.05"/>
</g>
<!-- BB8 -->
<g id="node9" class="node">
<title>BB8</title>
<ellipse fill="none" stroke="black" cx="114.13" cy="-206.35" rx="42.35" ry="26.74"/>
<text text-anchor="middle" x="114.13" y="-210.15" font-family="Times New Roman,serif" font-size="14.00">[52..56)</text>
<text text-anchor="middle" x="114.13" y="-195.15" font-family="Times New Roman,serif" font-size="14.00">0.00</text>
</g>
<!-- BB7&#45;&gt;BB8 -->
<g id="edge10" class="edge">
<title>BB7&#45;&gt;BB8</title>
<path fill="none" stroke="black" d="M166.11,-271.58C157.92,-261.47 148.24,-249.5 139.46,-238.65"/>
<polygon fill="black" stroke="black" points="141.98,-236.2 132.97,-230.62 136.54,-240.6 141.98,-236.2"/>
</g>
<!-- BB8&#45;&gt;BB9 -->
<g id="edge11" class="edge">
<title>BB8&#45;&gt;BB9</title>
<path fill="none" stroke="black" d="M114.13,-233.57C114.13,-281.54 114.13,-383.54 114.13,-438.19"/>
<polygon fill="black" stroke="black" points="110.63,-438.46 114.13,-448.46 117.63,-438.46 110.63,-438.46"/>
</g>
<!-- BB9&#45;&gt;BB2 -->
<g id="edge12" class="edge">
<title>BB9&#45;&gt;BB2</title>
<path fill="none" stroke="black" d="M132.89,-451.06C140.96,-440.95 150.51,-428.98 159.16,-418.13"/>
<polygon fill="black" stroke="black" points="162.07,-420.1 165.57,-410.1 156.59,-415.74 162.07,-420.1"/>
</g>
<!-- BB10 -->
<g id="node11" class="node">
<title>BB10</title>
<ellipse fill="none" stroke="black" cx="43.13" cy="-385.83" rx="43.27" ry="26.74"/>
<text text-anchor="middle" x="43.13" y="-389.63" font-family="Times New Roman,serif" font-size="14.00">[5b..60)</text>
<text text-anchor="middle" x="43.13" y="-374.63" font-family="Times New Roman,serif" font-size="14.00">0.00</text>
</g>
<!-- BB9&#45;&gt;BB10 -->
<g id="edge13" class="edge">
<title>BB9&#45;&gt;BB10</title>
<path fill="none" stroke="black" d="M95.11,-451.06C86.92,-440.95 77.24,-428.98 68.46,-418.13"/>
<polygon fill="black" stroke="black" points="70.98,-415.68 61.97,-410.1 65.54,-420.08 70.98,-415.68"/>
</g>
<!-- BB10&#45;&gt;BB11 -->
<g id="edge14" class="edge">
<title>BB10&#45;&gt;BB11</title>
<path fill="none" stroke="black" d="M40.78,-412.95C38.18,-453.13 37.24,-531.77 62.13,-592.18 66.98,-603.95 74.87,-615.2 83.01,-624.8"/>
<polygon fill="black" stroke="black" points="80.57,-627.33 89.84,-632.46 85.79,-622.67 80.57,-627.33"/>
</g>
<!-- BB11&#45;&gt;BB1 -->
<g id="edge15" class="edge">
<title>BB11&#45;&gt;BB1</title>
<path fill="none" stroke="black" d="M113.13,-627.73C113.13,-619.76 113.13,-610.87 113.13,-602.38"/>
<polygon fill="black" stroke="black" points="116.63,-602.31 113.13,-592.31 109.63,-602.31 116.63,-602.31"/>
</g>
<!-- BB12 -->
<g id="node13" class="node">
<title>BB12</title>
<ellipse fill="none" stroke="black" cx="217.13" cy="-565.31" rx="43.27" ry="26.74"/>
<text text-anchor="middle" x="217.13" y="-569.11" font-family="Times New Roman,serif" font-size="14.00">[63..6b)</text>
<text text-anchor="middle" x="217.13" y="-554.11" font-family="Times New Roman,serif" font-size="14.00">0.00</text>
</g>
<!-- BB11&#45;&gt;BB12 -->
<g id="edge16" class="edge">
<title>BB11&#45;&gt;BB12</title>
<path fill="none" stroke="black" d="M138.04,-633.03C151.84,-621.4 169.15,-606.79 184.07,-594.21"/>
<polygon fill="black" stroke="black" points="186.68,-596.58 192.07,-587.46 182.17,-591.23 186.68,-596.58"/>
</g>
</g>
</svg>
