<?xml version="1.0" encoding="UTF-8" standalone="no"?>
<!DOCTYPE svg PUBLIC "-//W3C//DTD SVG 1.1//EN"
 "http://www.w3.org/Graphics/SVG/1.1/DTD/svg11.dtd">
<!-- Generated by graphviz version 2.47.0 (20210316.0004)
 -->
<!-- Title: G Pages: 1 -->
<svg width="695pt" height="749pt"
 viewBox="0.00 0.00 694.55 748.67" xmlns="http://www.w3.org/2000/svg" xmlns:xlink="http://www.w3.org/1999/xlink">
<g id="graph0" class="graph" transform="scale(1 1) rotate(0) translate(4 744.67)">
<title>G</title>
<polygon fill="white" stroke="transparent" points="-4,4 -4,-744.67 690.55,-744.67 690.55,4 -4,4"/>
<!-- BB0 -->
<g id="node1" class="node">
<title>BB0</title>
<ellipse fill="none" stroke="black" cx="106.77" cy="-703.2" rx="106.55" ry="37.45"/>
<text text-anchor="middle" x="106.77" y="-714.5" font-family="Times New Roman,serif" font-size="14.00">[0..2c)</text>
<text text-anchor="middle" x="106.77" y="-699.5" font-family="Times New Roman,serif" font-size="14.00">Normalized Count: NaN</text>
<text text-anchor="middle" x="106.77" y="-684.5" font-family="Times New Roman,serif" font-size="14.00">Samples weight: 0.00</text>
</g>
<!-- BB2 -->
<g id="node3" class="node">
<title>BB2</title>
<ellipse fill="none" stroke="black" cx="106.77" cy="-592.24" rx="106.55" ry="37.45"/>
<text text-anchor="middle" x="106.77" y="-603.54" font-family="Times New Roman,serif" font-size="14.00">[37..3c)</text>
<text text-anchor="middle" x="106.77" y="-588.54" font-family="Times New Roman,serif" font-size="14.00">Normalized Count: NaN</text>
<text text-anchor="middle" x="106.77" y="-573.54" font-family="Times New Roman,serif" font-size="14.00">Samples weight: 0.00</text>
</g>
<!-- BB0&#45;&gt;BB2 -->
<g id="edge1" class="edge">
<title>BB0&#45;&gt;BB2</title>
<path fill="none" stroke="black" d="M106.77,-665.61C106.77,-657.44 106.77,-648.66 106.77,-640.13"/>
<polygon fill="black" stroke="black" points="110.27,-639.92 106.77,-629.92 103.27,-639.92 110.27,-639.92"/>
</g>
<!-- BB1 -->
<g id="node2" class="node">
<title>BB1</title>
<ellipse fill="none" stroke="black" cx="106.77" cy="-481.29" rx="106.55" ry="37.45"/>
<text text-anchor="middle" x="106.77" y="-492.59" font-family="Times New Roman,serif" font-size="14.00">[2c..37)</text>
<text text-anchor="middle" x="106.77" y="-477.59" font-family="Times New Roman,serif" font-size="14.00">Normalized Count: NaN</text>
<text text-anchor="middle" x="106.77" y="-462.59" font-family="Times New Roman,serif" font-size="14.00">Samples weight: 0.00</text>
</g>
<!-- BB1&#45;&gt;BB2 -->
<g id="edge2" class="edge">
<title>BB1&#45;&gt;BB2</title>
<path fill="none" stroke="black" d="M113.19,-518.96C113.51,-527.14 113.6,-535.92 113.46,-544.45"/>
<polygon fill="black" stroke="black" points="109.96,-544.57 113.19,-554.66 116.96,-544.76 109.96,-544.57"/>
</g>
<!-- BB2&#45;&gt;BB1 -->
<g id="edge3" class="edge">
<title>BB2&#45;&gt;BB1</title>
<path fill="none" stroke="black" d="M100.36,-554.66C100.04,-546.49 99.95,-537.71 100.08,-529.18"/>
<polygon fill="black" stroke="black" points="103.59,-529.05 100.35,-518.96 96.59,-528.86 103.59,-529.05"/>
</g>
<!-- BB3 -->
<g id="node4" class="node">
<title>BB3</title>
<ellipse fill="none" stroke="black" cx="338.77" cy="-481.29" rx="106.55" ry="37.45"/>
<text text-anchor="middle" x="338.77" y="-492.59" font-family="Times New Roman,serif" font-size="14.00">[3c..45)</text>
<text text-anchor="middle" x="338.77" y="-477.59" font-family="Times New Roman,serif" font-size="14.00">Normalized Count: NaN</text>
<text text-anchor="middle" x="338.77" y="-462.59" font-family="Times New Roman,serif" font-size="14.00">Samples weight: 0.00</text>
</g>
<!-- BB2&#45;&gt;BB3 -->
<g id="edge4" class="edge">
<title>BB2&#45;&gt;BB3</title>
<path fill="none" stroke="black" d="M169.56,-561.76C199.6,-547.65 235.73,-530.68 266.87,-516.06"/>
<polygon fill="black" stroke="black" points="268.38,-519.22 275.94,-511.8 265.4,-512.88 268.38,-519.22"/>
</g>
<!-- BB8 -->
<g id="node9" class="node">
<title>BB8</title>
<ellipse fill="none" stroke="black" cx="338.77" cy="-370.34" rx="106.55" ry="37.45"/>
<text text-anchor="middle" x="338.77" y="-381.64" font-family="Times New Roman,serif" font-size="14.00">[c0..c5)</text>
<text text-anchor="middle" x="338.77" y="-366.64" font-family="Times New Roman,serif" font-size="14.00">Normalized Count: NaN</text>
<text text-anchor="middle" x="338.77" y="-351.64" font-family="Times New Roman,serif" font-size="14.00">Samples weight: 0.00</text>
</g>
<!-- BB3&#45;&gt;BB8 -->
<g id="edge5" class="edge">
<title>BB3&#45;&gt;BB8</title>
<path fill="none" stroke="black" d="M338.77,-443.71C338.77,-435.53 338.77,-426.75 338.77,-418.23"/>
<polygon fill="black" stroke="black" points="342.27,-418.01 338.77,-408.01 335.27,-418.01 342.27,-418.01"/>
</g>
<!-- BB4 -->
<g id="node5" class="node">
<title>BB4</title>
<ellipse fill="none" stroke="black" cx="338.77" cy="-259.38" rx="115.93" ry="37.45"/>
<text text-anchor="middle" x="338.77" y="-270.68" font-family="Times New Roman,serif" font-size="14.00">[45..4d)</text>
<text text-anchor="middle" x="338.77" y="-255.68" font-family="Times New Roman,serif" font-size="14.00">Normalized Count: Infinity</text>
<text text-anchor="middle" x="338.77" y="-240.68" font-family="Times New Roman,serif" font-size="14.00">Samples weight: 0.02</text>
</g>
<!-- BB6 -->
<g id="node7" class="node">
<title>BB6</title>
<ellipse fill="none" stroke="black" cx="362.77" cy="-148.43" rx="115.93" ry="37.45"/>
<text text-anchor="middle" x="362.77" y="-159.73" font-family="Times New Roman,serif" font-size="14.00">[89..90)</text>
<text text-anchor="middle" x="362.77" y="-144.73" font-family="Times New Roman,serif" font-size="14.00">Normalized Count: Infinity</text>
<text text-anchor="middle" x="362.77" y="-129.73" font-family="Times New Roman,serif" font-size="14.00">Samples weight: 0.02</text>
</g>
<!-- BB4&#45;&gt;BB6 -->
<g id="edge6" class="edge">
<title>BB4&#45;&gt;BB6</title>
<path fill="none" stroke="black" d="M346.83,-221.8C348.65,-213.54 350.61,-204.65 352.51,-196.04"/>
<polygon fill="black" stroke="black" points="355.96,-196.62 354.7,-186.1 349.13,-195.11 355.96,-196.62"/>
</g>
<!-- BB5 -->
<g id="node6" class="node">
<title>BB5</title>
<ellipse fill="none" stroke="black" cx="387.77" cy="-37.48" rx="115.93" ry="37.45"/>
<text text-anchor="middle" x="387.77" y="-48.78" font-family="Times New Roman,serif" font-size="14.00">[4d..89)</text>
<text text-anchor="middle" x="387.77" y="-33.78" font-family="Times New Roman,serif" font-size="14.00">Normalized Count: Infinity</text>
<text text-anchor="middle" x="387.77" y="-18.78" font-family="Times New Roman,serif" font-size="14.00">Samples weight: 0.96</text>
</g>
<!-- BB5&#45;&gt;BB6 -->
<g id="edge7" class="edge">
<title>BB5&#45;&gt;BB6</title>
<path fill="none" stroke="black" d="M385.81,-74.97C384.2,-83.44 382.19,-92.56 380.02,-101.37"/>
<polygon fill="black" stroke="black" points="376.61,-100.59 377.5,-111.15 383.38,-102.34 376.61,-100.59"/>
</g>
<!-- BB6&#45;&gt;BB5 -->
<g id="edge8" class="edge">
<title>BB6&#45;&gt;BB5</title>
<path fill="none" stroke="black" d="M364.75,-110.85C366.36,-102.4 368.36,-93.31 370.53,-84.52"/>
<polygon fill="black" stroke="black" points="373.93,-85.33 373.04,-74.78 367.16,-83.59 373.93,-85.33"/>
</g>
<!-- BB7 -->
<g id="node8" class="node">
<title>BB7</title>
<ellipse fill="none" stroke="black" cx="146.77" cy="-37.48" rx="106.55" ry="37.45"/>
<text text-anchor="middle" x="146.77" y="-48.78" font-family="Times New Roman,serif" font-size="14.00">[90..c0)</text>
<text text-anchor="middle" x="146.77" y="-33.78" font-family="Times New Roman,serif" font-size="14.00">Normalized Count: NaN</text>
<text text-anchor="middle" x="146.77" y="-18.78" font-family="Times New Roman,serif" font-size="14.00">Samples weight: 0.00</text>
</g>
<!-- BB6&#45;&gt;BB7 -->
<g id="edge9" class="edge">
<title>BB6&#45;&gt;BB7</title>
<path fill="none" stroke="black" d="M301.45,-116.5C274.78,-103.05 243.41,-87.22 215.92,-73.35"/>
<polygon fill="black" stroke="black" points="217.26,-70.11 206.75,-68.73 214.11,-76.36 217.26,-70.11"/>
</g>
<!-- BB7&#45;&gt;BB8 -->
<g id="edge10" class="edge">
<title>BB7&#45;&gt;BB8</title>
<path fill="none" stroke="black" d="M147.62,-75.26C150.62,-129.12 163.18,-230.25 213.77,-296.86 225.98,-312.94 242.87,-326.07 260.28,-336.52"/>
<polygon fill="black" stroke="black" points="259,-339.81 269.42,-341.74 262.47,-333.74 259,-339.81"/>
</g>
<!-- BB8&#45;&gt;BB4 -->
<g id="edge11" class="edge">
<title>BB8&#45;&gt;BB4</title>
<path fill="none" stroke="black" d="M338.77,-332.75C338.77,-324.58 338.77,-315.8 338.77,-307.27"/>
<polygon fill="black" stroke="black" points="342.27,-307.06 338.77,-297.06 335.27,-307.06 342.27,-307.06"/>
</g>
<!-- BB9 -->
<g id="node10" class="node">
<title>BB9</title>
<ellipse fill="none" stroke="black" cx="579.77" cy="-259.38" rx="106.55" ry="37.45"/>
<text text-anchor="middle" x="579.77" y="-270.68" font-family="Times New Roman,serif" font-size="14.00">[c5..c8)</text>
<text text-anchor="middle" x="579.77" y="-255.68" font-family="Times New Roman,serif" font-size="14.00">Normalized Count: NaN</text>
<text text-anchor="middle" x="579.77" y="-240.68" font-family="Times New Roman,serif" font-size="14.00">Samples weight: 0.00</text>
</g>
<!-- BB8&#45;&gt;BB9 -->
<g id="edge12" class="edge">
<title>BB8&#45;&gt;BB9</title>
<path fill="none" stroke="black" d="M403.04,-340.28C434.78,-325.93 473.22,-308.55 506.14,-293.67"/>
<polygon fill="black" stroke="black" points="507.6,-296.85 515.27,-289.55 504.71,-290.48 507.6,-296.85"/>
</g>
</g>
</svg>
