<?xml version="1.0" encoding="UTF-8" standalone="no"?>
<!DOCTYPE svg PUBLIC "-//W3C//DTD SVG 1.1//EN"
 "http://www.w3.org/Graphics/SVG/1.1/DTD/svg11.dtd">
<!-- Generated by graphviz version 2.47.0 (20210316.0004)
 -->
<!-- Title: G Pages: 1 -->
<svg width="581pt" height="527pt"
 viewBox="0.00 0.00 580.72 526.77" xmlns="http://www.w3.org/2000/svg" xmlns:xlink="http://www.w3.org/1999/xlink">
<g id="graph0" class="graph" transform="scale(1 1) rotate(0) translate(4 522.77)">
<title>G</title>
<polygon fill="white" stroke="transparent" points="-4,4 -4,-522.77 576.72,-522.77 576.72,4 -4,4"/>
<!-- BB0 -->
<g id="node1" class="node">
<title>BB0</title>
<ellipse fill="none" stroke="black" cx="334.36" cy="-481.29" rx="105.22" ry="37.45"/>
<text text-anchor="middle" x="334.36" y="-492.59" font-family="Times New Roman,serif" font-size="14.00">[0..4)</text>
<text text-anchor="middle" x="334.36" y="-477.59" font-family="Times New Roman,serif" font-size="14.00">Normalized Count: 1.00</text>
<text text-anchor="middle" x="334.36" y="-462.59" font-family="Times New Roman,serif" font-size="14.00">Samples weight: 0.02</text>
</g>
<!-- BB5 -->
<g id="node6" class="node">
<title>BB5</title>
<ellipse fill="none" stroke="black" cx="334.36" cy="-370.34" rx="105.22" ry="37.45"/>
<text text-anchor="middle" x="334.36" y="-381.64" font-family="Times New Roman,serif" font-size="14.00">[22..2d)</text>
<text text-anchor="middle" x="334.36" y="-366.64" font-family="Times New Roman,serif" font-size="14.00">Normalized Count: 8.12</text>
<text text-anchor="middle" x="334.36" y="-351.64" font-family="Times New Roman,serif" font-size="14.00">Samples weight: 0.18</text>
</g>
<!-- BB0&#45;&gt;BB5 -->
<g id="edge1" class="edge">
<title>BB0&#45;&gt;BB5</title>
<path fill="none" stroke="black" d="M334.36,-443.71C334.36,-435.53 334.36,-426.75 334.36,-418.23"/>
<polygon fill="black" stroke="black" points="337.86,-418.01 334.36,-408.01 330.86,-418.01 337.86,-418.01"/>
</g>
<!-- BB1 -->
<g id="node2" class="node">
<title>BB1</title>
<ellipse fill="none" stroke="black" cx="196.36" cy="-259.38" rx="110.12" ry="37.45"/>
<text text-anchor="middle" x="196.36" y="-270.68" font-family="Times New Roman,serif" font-size="14.00">[4..10)</text>
<text text-anchor="middle" x="196.36" y="-255.68" font-family="Times New Roman,serif" font-size="14.00">Normalized Count: 29.31</text>
<text text-anchor="middle" x="196.36" y="-240.68" font-family="Times New Roman,serif" font-size="14.00">Samples weight: 0.65</text>
</g>
<!-- BB2 -->
<g id="node3" class="node">
<title>BB2</title>
<ellipse fill="none" stroke="black" cx="105.36" cy="-148.43" rx="105.22" ry="37.45"/>
<text text-anchor="middle" x="105.36" y="-159.73" font-family="Times New Roman,serif" font-size="14.00">[10..1c)</text>
<text text-anchor="middle" x="105.36" y="-144.73" font-family="Times New Roman,serif" font-size="14.00">Normalized Count: 2.06</text>
<text text-anchor="middle" x="105.36" y="-129.73" font-family="Times New Roman,serif" font-size="14.00">Samples weight: 0.05</text>
</g>
<!-- BB1&#45;&gt;BB2 -->
<g id="edge3" class="edge">
<title>BB1&#45;&gt;BB2</title>
<path fill="none" stroke="black" d="M166.81,-223.01C158.71,-213.3 149.82,-202.67 141.39,-192.58"/>
<polygon fill="black" stroke="black" points="143.85,-190.06 134.76,-184.63 138.48,-194.55 143.85,-190.06"/>
</g>
<!-- BB4 -->
<g id="node5" class="node">
<title>BB4</title>
<ellipse fill="none" stroke="black" cx="334.36" cy="-148.43" rx="105.22" ry="37.45"/>
<text text-anchor="middle" x="334.36" y="-159.73" font-family="Times New Roman,serif" font-size="14.00">[1e..22)</text>
<text text-anchor="middle" x="334.36" y="-144.73" font-family="Times New Roman,serif" font-size="14.00">Normalized Count: 1.06</text>
<text text-anchor="middle" x="334.36" y="-129.73" font-family="Times New Roman,serif" font-size="14.00">Samples weight: 0.02</text>
</g>
<!-- BB1&#45;&gt;BB4 -->
<g id="edge2" class="edge">
<title>BB1&#45;&gt;BB4</title>
<path fill="none" stroke="black" d="M239.27,-224.51C253.42,-213.33 269.29,-200.8 283.95,-189.23"/>
<polygon fill="black" stroke="black" points="286.27,-191.85 291.95,-182.91 281.93,-186.36 286.27,-191.85"/>
</g>
<!-- BB3 -->
<g id="node4" class="node">
<title>BB3</title>
<ellipse fill="none" stroke="black" cx="105.36" cy="-37.48" rx="105.22" ry="37.45"/>
<text text-anchor="middle" x="105.36" y="-48.78" font-family="Times New Roman,serif" font-size="14.00">[1c..1e)</text>
<text text-anchor="middle" x="105.36" y="-33.78" font-family="Times New Roman,serif" font-size="14.00">Normalized Count: 3.75</text>
<text text-anchor="middle" x="105.36" y="-18.78" font-family="Times New Roman,serif" font-size="14.00">Samples weight: 0.08</text>
</g>
<!-- BB2&#45;&gt;BB3 -->
<g id="edge5" class="edge">
<title>BB2&#45;&gt;BB3</title>
<path fill="none" stroke="black" d="M105.36,-110.85C105.36,-102.67 105.36,-93.89 105.36,-85.37"/>
<polygon fill="black" stroke="black" points="108.86,-85.15 105.36,-75.15 101.86,-85.15 108.86,-85.15"/>
</g>
<!-- BB2&#45;&gt;BB4 -->
<g id="edge4" class="edge">
<title>BB2&#45;&gt;BB4</title>
<path fill="none" stroke="black" d="M210.91,-148.43C213.52,-148.43 216.12,-148.43 218.72,-148.43"/>
<polygon fill="black" stroke="black" points="218.76,-151.93 228.76,-148.43 218.76,-144.93 218.76,-151.93"/>
</g>
<!-- BB4&#45;&gt;BB5 -->
<g id="edge6" class="edge">
<title>BB4&#45;&gt;BB5</title>
<path fill="none" stroke="black" d="M334.36,-185.99C334.36,-223.36 334.36,-281.53 334.36,-322.3"/>
<polygon fill="black" stroke="black" points="330.86,-322.53 334.36,-332.53 337.86,-322.53 330.86,-322.53"/>
</g>
<!-- BB5&#45;&gt;BB1 -->
<g id="edge7" class="edge">
<title>BB5&#45;&gt;BB1</title>
<path fill="none" stroke="black" d="M291.83,-335.76C277.66,-324.57 261.74,-312 247.02,-300.38"/>
<polygon fill="black" stroke="black" points="249,-297.49 238.99,-294.04 244.67,-302.98 249,-297.49"/>
</g>
<!-- BB6 -->
<g id="node7" class="node">
<title>BB6</title>
<ellipse fill="none" stroke="black" cx="467.36" cy="-259.38" rx="105.22" ry="37.45"/>
<text text-anchor="middle" x="467.36" y="-270.68" font-family="Times New Roman,serif" font-size="14.00">[2d..2f)</text>
<text text-anchor="middle" x="467.36" y="-255.68" font-family="Times New Roman,serif" font-size="14.00">Normalized Count: 0.00</text>
<text text-anchor="middle" x="467.36" y="-240.68" font-family="Times New Roman,serif" font-size="14.00">Samples weight: 0.00</text>
</g>
<!-- BB5&#45;&gt;BB6 -->
<g id="edge8" class="edge">
<title>BB5&#45;&gt;BB6</title>
<path fill="none" stroke="black" d="M375.35,-335.76C389,-324.57 404.34,-312 418.53,-300.38"/>
<polygon fill="black" stroke="black" points="420.76,-303.08 426.28,-294.04 416.32,-297.67 420.76,-303.08"/>
</g>
</g>
</svg>
