<?xml version="1.0" encoding="UTF-8" standalone="no"?>
<!DOCTYPE svg PUBLIC "-//W3C//DTD SVG 1.1//EN"
 "http://www.w3.org/Graphics/SVG/1.1/DTD/svg11.dtd">
<!-- Generated by graphviz version 2.47.0 (20210316.0004)
 -->
<!-- Title: G Pages: 1 -->
<svg width="419pt" height="780pt"
 viewBox="0.00 0.00 418.84 779.66" xmlns="http://www.w3.org/2000/svg" xmlns:xlink="http://www.w3.org/1999/xlink">
<g id="graph0" class="graph" transform="scale(1 1) rotate(0) translate(4 775.66)">
<title>G</title>
<polygon fill="white" stroke="transparent" points="-4,4 -4,-775.66 414.84,-775.66 414.84,4 -4,4"/>
<!-- BB0 -->
<g id="node1" class="node">
<title>BB0</title>
<ellipse fill="none" stroke="black" cx="257.71" cy="-744.79" rx="33.47" ry="26.74"/>
<text text-anchor="middle" x="257.71" y="-748.59" font-family="Times New Roman,serif" font-size="14.00">[0..7)</text>
<text text-anchor="middle" x="257.71" y="-733.59" font-family="Times New Roman,serif" font-size="14.00">0.00</text>
</g>
<!-- BB8 -->
<g id="node9" class="node">
<title>BB8</title>
<ellipse fill="none" stroke="black" cx="257.71" cy="-655.05" rx="41.94" ry="26.74"/>
<text text-anchor="middle" x="257.71" y="-658.85" font-family="Times New Roman,serif" font-size="14.00">[76..7a)</text>
<text text-anchor="middle" x="257.71" y="-643.85" font-family="Times New Roman,serif" font-size="14.00">0.25</text>
</g>
<!-- BB0&#45;&gt;BB8 -->
<g id="edge1" class="edge">
<title>BB0&#45;&gt;BB8</title>
<path fill="none" stroke="black" d="M257.71,-717.47C257.71,-709.5 257.71,-700.61 257.71,-692.12"/>
<polygon fill="black" stroke="black" points="261.21,-692.05 257.71,-682.05 254.21,-692.05 261.21,-692.05"/>
</g>
<!-- BB1 -->
<g id="node2" class="node">
<title>BB1</title>
<ellipse fill="none" stroke="black" cx="262.71" cy="-475.57" rx="37.45" ry="26.74"/>
<text text-anchor="middle" x="262.71" y="-479.37" font-family="Times New Roman,serif" font-size="14.00">[7..14)</text>
<text text-anchor="middle" x="262.71" y="-464.37" font-family="Times New Roman,serif" font-size="14.00">0.25</text>
</g>
<!-- BB2 -->
<g id="node3" class="node">
<title>BB2</title>
<ellipse fill="none" stroke="black" cx="267.71" cy="-385.83" rx="42.35" ry="26.74"/>
<text text-anchor="middle" x="267.71" y="-389.63" font-family="Times New Roman,serif" font-size="14.00">[14..1c)</text>
<text text-anchor="middle" x="267.71" y="-374.63" font-family="Times New Roman,serif" font-size="14.00">0.05</text>
</g>
<!-- BB1&#45;&gt;BB2 -->
<g id="edge3" class="edge">
<title>BB1&#45;&gt;BB2</title>
<path fill="none" stroke="black" d="M264.18,-448.72C264.64,-440.67 265.15,-431.64 265.64,-423.02"/>
<polygon fill="black" stroke="black" points="269.15,-422.98 266.23,-412.8 262.16,-422.58 269.15,-422.98"/>
</g>
<!-- BB1&#45;&gt;BB8 -->
<g id="edge2" class="edge">
<title>BB1&#45;&gt;BB8</title>
<path fill="none" stroke="black" d="M261.97,-502.58C261.12,-532.99 259.69,-583.54 258.73,-617.79"/>
<polygon fill="black" stroke="black" points="255.23,-617.77 258.44,-627.86 262.23,-617.97 255.23,-617.77"/>
</g>
<!-- BB3 -->
<g id="node4" class="node">
<title>BB3</title>
<ellipse fill="none" stroke="black" cx="267.71" cy="-296.09" rx="41.94" ry="26.74"/>
<text text-anchor="middle" x="267.71" y="-299.89" font-family="Times New Roman,serif" font-size="14.00">[1c..2a)</text>
<text text-anchor="middle" x="267.71" y="-284.89" font-family="Times New Roman,serif" font-size="14.00">0.05</text>
</g>
<!-- BB2&#45;&gt;BB3 -->
<g id="edge5" class="edge">
<title>BB2&#45;&gt;BB3</title>
<path fill="none" stroke="black" d="M267.71,-358.51C267.71,-350.54 267.71,-341.65 267.71,-333.16"/>
<polygon fill="black" stroke="black" points="271.21,-333.09 267.71,-323.09 264.21,-333.09 271.21,-333.09"/>
</g>
<!-- BB2&#45;&gt;BB8 -->
<g id="edge4" class="edge">
<title>BB2&#45;&gt;BB8</title>
<path fill="none" stroke="black" d="M287.65,-409.84C295.88,-420.83 304.47,-434.64 308.71,-448.7 326.8,-508.74 298.08,-580.02 276.94,-620.85"/>
<polygon fill="black" stroke="black" points="273.78,-619.34 272.17,-629.82 279.96,-622.63 273.78,-619.34"/>
</g>
<!-- BB4 -->
<g id="node5" class="node">
<title>BB4</title>
<ellipse fill="none" stroke="black" cx="267.71" cy="-206.35" rx="41.94" ry="26.74"/>
<text text-anchor="middle" x="267.71" y="-210.15" font-family="Times New Roman,serif" font-size="14.00">[2a..4c)</text>
<text text-anchor="middle" x="267.71" y="-195.15" font-family="Times New Roman,serif" font-size="14.00">0.05</text>
</g>
<!-- BB3&#45;&gt;BB4 -->
<g id="edge7" class="edge">
<title>BB3&#45;&gt;BB4</title>
<path fill="none" stroke="black" d="M267.71,-268.77C267.71,-260.8 267.71,-251.91 267.71,-243.42"/>
<polygon fill="black" stroke="black" points="271.21,-243.35 267.71,-233.35 264.21,-243.35 271.21,-243.35"/>
</g>
<!-- BB3&#45;&gt;BB8 -->
<g id="edge6" class="edge">
<title>BB3&#45;&gt;BB8</title>
<path fill="none" stroke="black" d="M235.23,-313.02C150.45,-356.69 -65.24,-482.33 19.71,-592.18 42.37,-621.49 143.73,-639.5 206.64,-648.06"/>
<polygon fill="black" stroke="black" points="206.39,-651.55 216.77,-649.4 207.31,-644.62 206.39,-651.55"/>
</g>
<!-- BB5 -->
<g id="node6" class="node">
<title>BB5</title>
<ellipse fill="none" stroke="black" cx="332.71" cy="-116.61" rx="43.27" ry="26.74"/>
<text text-anchor="middle" x="332.71" y="-120.41" font-family="Times New Roman,serif" font-size="14.00">[4c..5b)</text>
<text text-anchor="middle" x="332.71" y="-105.41" font-family="Times New Roman,serif" font-size="14.00">0.03</text>
</g>
<!-- BB4&#45;&gt;BB5 -->
<g id="edge9" class="edge">
<title>BB4&#45;&gt;BB5</title>
<path fill="none" stroke="black" d="M285.13,-181.84C292.48,-171.9 301.17,-160.18 309.09,-149.49"/>
<polygon fill="black" stroke="black" points="312.1,-151.31 315.24,-141.19 306.48,-147.14 312.1,-151.31"/>
</g>
<!-- BB7 -->
<g id="node8" class="node">
<title>BB7</title>
<ellipse fill="none" stroke="black" cx="213.71" cy="-116.61" rx="42.35" ry="26.74"/>
<text text-anchor="middle" x="213.71" y="-120.41" font-family="Times New Roman,serif" font-size="14.00">[73..76)</text>
<text text-anchor="middle" x="213.71" y="-105.41" font-family="Times New Roman,serif" font-size="14.00">0.03</text>
</g>
<!-- BB4&#45;&gt;BB7 -->
<g id="edge8" class="edge">
<title>BB4&#45;&gt;BB7</title>
<path fill="none" stroke="black" d="M252.66,-180.91C246.87,-171.5 240.16,-160.59 233.95,-150.51"/>
<polygon fill="black" stroke="black" points="236.89,-148.6 228.67,-141.92 230.93,-152.27 236.89,-148.6"/>
</g>
<!-- BB6 -->
<g id="node7" class="node">
<title>BB6</title>
<ellipse fill="none" stroke="black" cx="367.71" cy="-26.87" rx="43.27" ry="26.74"/>
<text text-anchor="middle" x="367.71" y="-30.67" font-family="Times New Roman,serif" font-size="14.00">[5b..73)</text>
<text text-anchor="middle" x="367.71" y="-15.67" font-family="Times New Roman,serif" font-size="14.00">0.03</text>
</g>
<!-- BB5&#45;&gt;BB6 -->
<g id="edge11" class="edge">
<title>BB5&#45;&gt;BB6</title>
<path fill="none" stroke="black" d="M342.83,-90.23C346.28,-81.59 350.19,-71.78 353.88,-62.54"/>
<polygon fill="black" stroke="black" points="357.15,-63.78 357.61,-53.19 350.65,-61.18 357.15,-63.78"/>
</g>
<!-- BB5&#45;&gt;BB8 -->
<g id="edge10" class="edge">
<title>BB5&#45;&gt;BB8</title>
<path fill="none" stroke="black" d="M340.53,-143.2C350.29,-177.45 365.71,-240.24 365.71,-295.09 365.71,-476.57 365.71,-476.57 365.71,-476.57 365.71,-536.18 320.7,-592.78 288.8,-625.43"/>
<polygon fill="black" stroke="black" points="286.01,-623.26 281.41,-632.8 290.96,-628.22 286.01,-623.26"/>
</g>
<!-- BB6&#45;&gt;BB8 -->
<g id="edge12" class="edge">
<title>BB6&#45;&gt;BB8</title>
<path fill="none" stroke="black" d="M376.24,-53.41C386.88,-87.6 403.71,-150.33 403.71,-205.35 403.71,-476.57 403.71,-476.57 403.71,-476.57 403.71,-533.66 384.91,-548.88 347.71,-592.18 333.92,-608.22 315.06,-622.03 298.17,-632.51"/>
<polygon fill="black" stroke="black" points="296.32,-629.53 289.55,-637.68 299.92,-635.54 296.32,-629.53"/>
</g>
<!-- BB7&#45;&gt;BB8 -->
<g id="edge13" class="edge">
<title>BB7&#45;&gt;BB8</title>
<path fill="none" stroke="black" d="M209.92,-143.41C205.18,-177.89 197.71,-240.95 197.71,-295.09 197.71,-386.83 197.71,-386.83 197.71,-386.83 197.71,-471.97 227.06,-568.74 244.71,-619.22"/>
<polygon fill="black" stroke="black" points="241.42,-620.43 248.07,-628.68 248.02,-618.09 241.42,-620.43"/>
</g>
<!-- BB9 -->
<g id="node10" class="node">
<title>BB9</title>
<ellipse fill="none" stroke="black" cx="70.71" cy="-565.31" rx="41.94" ry="26.74"/>
<text text-anchor="middle" x="70.71" y="-569.11" font-family="Times New Roman,serif" font-size="14.00">[7a..7e)</text>
<text text-anchor="middle" x="70.71" y="-554.11" font-family="Times New Roman,serif" font-size="14.00">0.25</text>
</g>
<!-- BB8&#45;&gt;BB9 -->
<g id="edge15" class="edge">
<title>BB8&#45;&gt;BB9</title>
<path fill="none" stroke="black" d="M223.99,-639.19C196.35,-626.9 156.31,-608.82 121.71,-592.18 118.52,-590.65 115.24,-589.05 111.95,-587.42"/>
<polygon fill="black" stroke="black" points="113.22,-584.14 102.71,-582.8 110.09,-590.4 113.22,-584.14"/>
</g>
<!-- BB10 -->
<g id="node11" class="node">
<title>BB10</title>
<ellipse fill="none" stroke="black" cx="170.71" cy="-565.31" rx="40.11" ry="26.74"/>
<text text-anchor="middle" x="170.71" y="-569.11" font-family="Times New Roman,serif" font-size="14.00">[7e..7f)</text>
<text text-anchor="middle" x="170.71" y="-554.11" font-family="Times New Roman,serif" font-size="14.00">0.00</text>
</g>
<!-- BB8&#45;&gt;BB10 -->
<g id="edge14" class="edge">
<title>BB8&#45;&gt;BB10</title>
<path fill="none" stroke="black" d="M235.75,-631.91C224.75,-620.81 211.28,-607.23 199.46,-595.31"/>
<polygon fill="black" stroke="black" points="201.88,-592.78 192.35,-588.14 196.91,-597.71 201.88,-592.78"/>
</g>
<!-- BB9&#45;&gt;BB1 -->
<g id="edge16" class="edge">
<title>BB9&#45;&gt;BB1</title>
<path fill="none" stroke="black" d="M102.67,-547.75C108.95,-544.6 115.51,-541.37 121.71,-538.44 154.89,-522.76 193.04,-506.1 221.29,-494.02"/>
<polygon fill="black" stroke="black" points="223.01,-497.09 230.84,-489.95 220.27,-490.65 223.01,-497.09"/>
</g>
<!-- BB9&#45;&gt;BB10 -->
<g id="edge17" class="edge">
<title>BB9&#45;&gt;BB10</title>
<path fill="none" stroke="black" d="M112.5,-565.31C115,-565.31 117.49,-565.31 119.99,-565.31"/>
<polygon fill="black" stroke="black" points="120.24,-568.81 130.24,-565.31 120.24,-561.81 120.24,-568.81"/>
</g>
</g>
</svg>
