<?xml version="1.0" encoding="UTF-8" standalone="no"?>
<!DOCTYPE svg PUBLIC "-//W3C//DTD SVG 1.1//EN"
 "http://www.w3.org/Graphics/SVG/1.1/DTD/svg11.dtd">
<!-- Generated by graphviz version 2.47.0 (20210316.0004)
 -->
<!-- Title: G Pages: 1 -->
<svg width="1162pt" height="860pt"
 viewBox="0.00 0.00 1161.72 859.63" xmlns="http://www.w3.org/2000/svg" xmlns:xlink="http://www.w3.org/1999/xlink">
<g id="graph0" class="graph" transform="scale(1 1) rotate(0) translate(4 855.63)">
<title>G</title>
<polygon fill="white" stroke="transparent" points="-4,4 -4,-855.63 1157.72,-855.63 1157.72,4 -4,4"/>
<!-- BB0 -->
<g id="node1" class="node">
<title>BB0</title>
<ellipse fill="none" stroke="black" cx="171.36" cy="-814.15" rx="105.22" ry="37.45"/>
<text text-anchor="middle" x="171.36" y="-825.45" font-family="Times New Roman,serif" font-size="14.00">[0..6)</text>
<text text-anchor="middle" x="171.36" y="-810.45" font-family="Times New Roman,serif" font-size="14.00">Normalized Count: 1.00</text>
<text text-anchor="middle" x="171.36" y="-795.45" font-family="Times New Roman,serif" font-size="14.00">Samples weight: 0.07</text>
</g>
<!-- BB3 -->
<g id="node4" class="node">
<title>BB3</title>
<ellipse fill="none" stroke="black" cx="171.36" cy="-703.2" rx="105.22" ry="37.45"/>
<text text-anchor="middle" x="171.36" y="-714.5" font-family="Times New Roman,serif" font-size="14.00">[1d..21)</text>
<text text-anchor="middle" x="171.36" y="-699.5" font-family="Times New Roman,serif" font-size="14.00">Normalized Count: 1.11</text>
<text text-anchor="middle" x="171.36" y="-684.5" font-family="Times New Roman,serif" font-size="14.00">Samples weight: 0.07</text>
</g>
<!-- BB0&#45;&gt;BB3 -->
<g id="edge1" class="edge">
<title>BB0&#45;&gt;BB3</title>
<path fill="none" stroke="black" d="M171.36,-776.57C171.36,-768.39 171.36,-759.61 171.36,-751.09"/>
<polygon fill="black" stroke="black" points="174.86,-750.87 171.36,-740.87 167.86,-750.87 174.86,-750.87"/>
</g>
<!-- BB1 -->
<g id="node2" class="node">
<title>BB1</title>
<ellipse fill="none" stroke="black" cx="105.36" cy="-592.24" rx="105.22" ry="37.45"/>
<text text-anchor="middle" x="105.36" y="-603.54" font-family="Times New Roman,serif" font-size="14.00">[6..16)</text>
<text text-anchor="middle" x="105.36" y="-588.54" font-family="Times New Roman,serif" font-size="14.00">Normalized Count: 0.11</text>
<text text-anchor="middle" x="105.36" y="-573.54" font-family="Times New Roman,serif" font-size="14.00">Samples weight: 0.01</text>
</g>
<!-- BB2 -->
<g id="node3" class="node">
<title>BB2</title>
<ellipse fill="none" stroke="black" cx="123.36" cy="-481.29" rx="105.22" ry="37.45"/>
<text text-anchor="middle" x="123.36" y="-492.59" font-family="Times New Roman,serif" font-size="14.00">[16..1d)</text>
<text text-anchor="middle" x="123.36" y="-477.59" font-family="Times New Roman,serif" font-size="14.00">Normalized Count: 0.04</text>
<text text-anchor="middle" x="123.36" y="-462.59" font-family="Times New Roman,serif" font-size="14.00">Samples weight: 0.00</text>
</g>
<!-- BB1&#45;&gt;BB2 -->
<g id="edge3" class="edge">
<title>BB1&#45;&gt;BB2</title>
<path fill="none" stroke="black" d="M111.4,-554.66C112.77,-546.4 114.24,-537.51 115.66,-528.9"/>
<polygon fill="black" stroke="black" points="119.12,-529.4 117.3,-518.96 112.22,-528.26 119.12,-529.4"/>
</g>
<!-- BB1&#45;&gt;BB3 -->
<g id="edge2" class="edge">
<title>BB1&#45;&gt;BB3</title>
<path fill="none" stroke="black" d="M133.16,-628.62C139.02,-637.67 145.08,-647.53 150.64,-657"/>
<polygon fill="black" stroke="black" points="147.76,-659 155.79,-665.92 153.82,-655.51 147.76,-659"/>
</g>
<!-- BB2&#45;&gt;BB3 -->
<g id="edge4" class="edge">
<title>BB2&#45;&gt;BB3</title>
<path fill="none" stroke="black" d="M181.29,-512.79C196.47,-523.84 210.93,-537.85 219.36,-554.77 234.21,-584.59 228.96,-597.82 219.36,-629.72 216.36,-639.69 211.49,-649.54 205.98,-658.62"/>
<polygon fill="black" stroke="black" points="203.01,-656.77 200.54,-667.07 208.9,-660.56 203.01,-656.77"/>
</g>
<!-- BB3&#45;&gt;BB1 -->
<g id="edge5" class="edge">
<title>BB3&#45;&gt;BB1</title>
<path fill="none" stroke="black" d="M143.56,-666.82C137.71,-657.78 131.65,-647.94 126.1,-638.48"/>
<polygon fill="black" stroke="black" points="128.98,-636.47 120.95,-629.56 122.92,-639.97 128.98,-636.47"/>
</g>
<!-- BB4 -->
<g id="node5" class="node">
<title>BB4</title>
<ellipse fill="none" stroke="black" cx="371.36" cy="-592.24" rx="105.22" ry="37.45"/>
<text text-anchor="middle" x="371.36" y="-603.54" font-family="Times New Roman,serif" font-size="14.00">[21..26)</text>
<text text-anchor="middle" x="371.36" y="-588.54" font-family="Times New Roman,serif" font-size="14.00">Normalized Count: 1.00</text>
<text text-anchor="middle" x="371.36" y="-573.54" font-family="Times New Roman,serif" font-size="14.00">Samples weight: 0.07</text>
</g>
<!-- BB3&#45;&gt;BB4 -->
<g id="edge6" class="edge">
<title>BB3&#45;&gt;BB4</title>
<path fill="none" stroke="black" d="M227.87,-671.41C252.25,-658.13 280.93,-642.51 306.2,-628.74"/>
<polygon fill="black" stroke="black" points="307.88,-631.81 314.99,-623.95 304.53,-625.66 307.88,-631.81"/>
</g>
<!-- BB5 -->
<g id="node6" class="node">
<title>BB5</title>
<ellipse fill="none" stroke="black" cx="361.36" cy="-481.29" rx="105.22" ry="37.45"/>
<text text-anchor="middle" x="361.36" y="-492.59" font-family="Times New Roman,serif" font-size="14.00">[26..2b)</text>
<text text-anchor="middle" x="361.36" y="-477.59" font-family="Times New Roman,serif" font-size="14.00">Normalized Count: 0.00</text>
<text text-anchor="middle" x="361.36" y="-462.59" font-family="Times New Roman,serif" font-size="14.00">Samples weight: 0.00</text>
</g>
<!-- BB4&#45;&gt;BB5 -->
<g id="edge8" class="edge">
<title>BB4&#45;&gt;BB5</title>
<path fill="none" stroke="black" d="M368,-554.66C367.25,-546.49 366.45,-537.71 365.66,-529.18"/>
<polygon fill="black" stroke="black" points="369.12,-528.6 364.72,-518.96 362.15,-529.24 369.12,-528.6"/>
</g>
<!-- BB7 -->
<g id="node8" class="node">
<title>BB7</title>
<ellipse fill="none" stroke="black" cx="590.36" cy="-481.29" rx="105.22" ry="37.45"/>
<text text-anchor="middle" x="590.36" y="-492.59" font-family="Times New Roman,serif" font-size="14.00">[2d..32)</text>
<text text-anchor="middle" x="590.36" y="-477.59" font-family="Times New Roman,serif" font-size="14.00">Normalized Count: 1.00</text>
<text text-anchor="middle" x="590.36" y="-462.59" font-family="Times New Roman,serif" font-size="14.00">Samples weight: 0.07</text>
</g>
<!-- BB4&#45;&gt;BB7 -->
<g id="edge7" class="edge">
<title>BB4&#45;&gt;BB7</title>
<path fill="none" stroke="black" d="M431.49,-561.33C459.26,-547.51 492.38,-531.04 521.18,-516.71"/>
<polygon fill="black" stroke="black" points="522.97,-519.73 530.36,-512.14 519.85,-513.46 522.97,-519.73"/>
</g>
<!-- BB6 -->
<g id="node7" class="node">
<title>BB6</title>
<ellipse fill="none" stroke="black" cx="361.36" cy="-370.34" rx="105.22" ry="37.45"/>
<text text-anchor="middle" x="361.36" y="-381.64" font-family="Times New Roman,serif" font-size="14.00">[2b..2d)</text>
<text text-anchor="middle" x="361.36" y="-366.64" font-family="Times New Roman,serif" font-size="14.00">Normalized Count: 0.00</text>
<text text-anchor="middle" x="361.36" y="-351.64" font-family="Times New Roman,serif" font-size="14.00">Samples weight: 0.00</text>
</g>
<!-- BB5&#45;&gt;BB6 -->
<g id="edge10" class="edge">
<title>BB5&#45;&gt;BB6</title>
<path fill="none" stroke="black" d="M361.36,-443.71C361.36,-435.53 361.36,-426.75 361.36,-418.23"/>
<polygon fill="black" stroke="black" points="364.86,-418.01 361.36,-408.01 357.86,-418.01 364.86,-418.01"/>
</g>
<!-- BB5&#45;&gt;BB7 -->
<g id="edge9" class="edge">
<title>BB5&#45;&gt;BB7</title>
<path fill="none" stroke="black" d="M466.91,-481.29C469.52,-481.29 472.12,-481.29 474.72,-481.29"/>
<polygon fill="black" stroke="black" points="474.76,-484.79 484.76,-481.29 474.76,-477.79 474.76,-484.79"/>
</g>
<!-- BB6&#45;&gt;BB7 -->
<g id="edge11" class="edge">
<title>BB6&#45;&gt;BB7</title>
<path fill="none" stroke="black" d="M423.38,-400.84C452.92,-414.9 488.4,-431.78 519.04,-446.36"/>
<polygon fill="black" stroke="black" points="517.85,-449.67 528.39,-450.81 520.86,-443.35 517.85,-449.67"/>
</g>
<!-- BB8 -->
<g id="node9" class="node">
<title>BB8</title>
<ellipse fill="none" stroke="black" cx="590.36" cy="-370.34" rx="105.22" ry="37.45"/>
<text text-anchor="middle" x="590.36" y="-381.64" font-family="Times New Roman,serif" font-size="14.00">[32..34)</text>
<text text-anchor="middle" x="590.36" y="-366.64" font-family="Times New Roman,serif" font-size="14.00">Normalized Count: 0.04</text>
<text text-anchor="middle" x="590.36" y="-351.64" font-family="Times New Roman,serif" font-size="14.00">Samples weight: 0.00</text>
</g>
<!-- BB7&#45;&gt;BB8 -->
<g id="edge13" class="edge">
<title>BB7&#45;&gt;BB8</title>
<path fill="none" stroke="black" d="M590.36,-443.71C590.36,-435.53 590.36,-426.75 590.36,-418.23"/>
<polygon fill="black" stroke="black" points="593.86,-418.01 590.36,-408.01 586.86,-418.01 593.86,-418.01"/>
</g>
<!-- BB9 -->
<g id="node10" class="node">
<title>BB9</title>
<ellipse fill="none" stroke="black" cx="819.36" cy="-370.34" rx="105.22" ry="37.45"/>
<text text-anchor="middle" x="819.36" y="-381.64" font-family="Times New Roman,serif" font-size="14.00">[34..38)</text>
<text text-anchor="middle" x="819.36" y="-366.64" font-family="Times New Roman,serif" font-size="14.00">Normalized Count: 0.96</text>
<text text-anchor="middle" x="819.36" y="-351.64" font-family="Times New Roman,serif" font-size="14.00">Samples weight: 0.06</text>
</g>
<!-- BB7&#45;&gt;BB9 -->
<g id="edge12" class="edge">
<title>BB7&#45;&gt;BB9</title>
<path fill="none" stroke="black" d="M652.33,-450.81C681.86,-436.76 717.34,-419.87 747.99,-405.29"/>
<polygon fill="black" stroke="black" points="749.81,-408.3 757.34,-400.84 746.8,-401.98 749.81,-408.3"/>
</g>
<!-- BB13 -->
<g id="node14" class="node">
<title>BB13</title>
<ellipse fill="none" stroke="black" cx="819.36" cy="-259.38" rx="105.22" ry="37.45"/>
<text text-anchor="middle" x="819.36" y="-270.68" font-family="Times New Roman,serif" font-size="14.00">[4a..4f)</text>
<text text-anchor="middle" x="819.36" y="-255.68" font-family="Times New Roman,serif" font-size="14.00">Normalized Count: 3.22</text>
<text text-anchor="middle" x="819.36" y="-240.68" font-family="Times New Roman,serif" font-size="14.00">Samples weight: 0.22</text>
</g>
<!-- BB9&#45;&gt;BB13 -->
<g id="edge14" class="edge">
<title>BB9&#45;&gt;BB13</title>
<path fill="none" stroke="black" d="M819.36,-332.75C819.36,-324.58 819.36,-315.8 819.36,-307.27"/>
<polygon fill="black" stroke="black" points="822.86,-307.06 819.36,-297.06 815.86,-307.06 822.86,-307.06"/>
</g>
<!-- BB10 -->
<g id="node11" class="node">
<title>BB10</title>
<ellipse fill="none" stroke="black" cx="819.36" cy="-148.43" rx="105.22" ry="37.45"/>
<text text-anchor="middle" x="819.36" y="-159.73" font-family="Times New Roman,serif" font-size="14.00">[38..40)</text>
<text text-anchor="middle" x="819.36" y="-144.73" font-family="Times New Roman,serif" font-size="14.00">Normalized Count: 3.22</text>
<text text-anchor="middle" x="819.36" y="-129.73" font-family="Times New Roman,serif" font-size="14.00">Samples weight: 0.22</text>
</g>
<!-- BB11 -->
<g id="node12" class="node">
<title>BB11</title>
<ellipse fill="none" stroke="black" cx="915.36" cy="-37.48" rx="105.22" ry="37.45"/>
<text text-anchor="middle" x="915.36" y="-48.78" font-family="Times New Roman,serif" font-size="14.00">[40..46)</text>
<text text-anchor="middle" x="915.36" y="-33.78" font-family="Times New Roman,serif" font-size="14.00">Normalized Count: 0.96</text>
<text text-anchor="middle" x="915.36" y="-18.78" font-family="Times New Roman,serif" font-size="14.00">Samples weight: 0.06</text>
</g>
<!-- BB10&#45;&gt;BB11 -->
<g id="edge16" class="edge">
<title>BB10&#45;&gt;BB11</title>
<path fill="none" stroke="black" d="M850.26,-112.36C859,-102.44 868.6,-91.54 877.69,-81.23"/>
<polygon fill="black" stroke="black" points="880.53,-83.3 884.51,-73.48 875.28,-78.67 880.53,-83.3"/>
</g>
<!-- BB12 -->
<g id="node13" class="node">
<title>BB12</title>
<ellipse fill="none" stroke="black" cx="686.36" cy="-37.48" rx="105.22" ry="37.45"/>
<text text-anchor="middle" x="686.36" y="-48.78" font-family="Times New Roman,serif" font-size="14.00">[46..4a)</text>
<text text-anchor="middle" x="686.36" y="-33.78" font-family="Times New Roman,serif" font-size="14.00">Normalized Count: 2.25</text>
<text text-anchor="middle" x="686.36" y="-18.78" font-family="Times New Roman,serif" font-size="14.00">Samples weight: 0.15</text>
</g>
<!-- BB10&#45;&gt;BB12 -->
<g id="edge15" class="edge">
<title>BB10&#45;&gt;BB12</title>
<path fill="none" stroke="black" d="M778.37,-113.85C764.72,-102.67 749.37,-90.1 735.19,-78.48"/>
<polygon fill="black" stroke="black" points="737.4,-75.76 727.44,-72.13 732.96,-81.18 737.4,-75.76"/>
</g>
<!-- BB12&#45;&gt;BB13 -->
<g id="edge17" class="edge">
<title>BB12&#45;&gt;BB13</title>
<path fill="none" stroke="black" d="M682.81,-75C681.54,-106.73 684.24,-152.7 705.36,-185.91 715.23,-201.44 729.76,-214.26 745.17,-224.57"/>
<polygon fill="black" stroke="black" points="743.48,-227.64 753.8,-230.04 747.23,-221.73 743.48,-227.64"/>
</g>
<!-- BB13&#45;&gt;BB10 -->
<g id="edge18" class="edge">
<title>BB13&#45;&gt;BB10</title>
<path fill="none" stroke="black" d="M819.36,-221.8C819.36,-213.63 819.36,-204.85 819.36,-196.32"/>
<polygon fill="black" stroke="black" points="822.86,-196.1 819.36,-186.1 815.86,-196.1 822.86,-196.1"/>
</g>
<!-- BB14 -->
<g id="node15" class="node">
<title>BB14</title>
<ellipse fill="none" stroke="black" cx="1048.36" cy="-148.43" rx="105.22" ry="37.45"/>
<text text-anchor="middle" x="1048.36" y="-159.73" font-family="Times New Roman,serif" font-size="14.00">[4f..51)</text>
<text text-anchor="middle" x="1048.36" y="-144.73" font-family="Times New Roman,serif" font-size="14.00">Normalized Count: 0.00</text>
<text text-anchor="middle" x="1048.36" y="-129.73" font-family="Times New Roman,serif" font-size="14.00">Samples weight: 0.00</text>
</g>
<!-- BB13&#45;&gt;BB14 -->
<g id="edge19" class="edge">
<title>BB13&#45;&gt;BB14</title>
<path fill="none" stroke="black" d="M881.33,-228.9C910.86,-214.85 946.34,-197.97 976.99,-183.38"/>
<polygon fill="black" stroke="black" points="978.81,-186.39 986.34,-178.94 975.8,-180.07 978.81,-186.39"/>
</g>
</g>
</svg>
