<?xml version="1.0" encoding="UTF-8" standalone="no"?>
<!DOCTYPE svg PUBLIC "-//W3C//DTD SVG 1.1//EN"
 "http://www.w3.org/Graphics/SVG/1.1/DTD/svg11.dtd">
<!-- Generated by graphviz version 2.47.0 (20210316.0004)
 -->
<!-- Title: G Pages: 1 -->
<svg width="1077pt" height="1303pt"
 viewBox="0.00 0.00 1076.81 1303.44" xmlns="http://www.w3.org/2000/svg" xmlns:xlink="http://www.w3.org/1999/xlink">
<g id="graph0" class="graph" transform="scale(1 1) rotate(0) translate(4 1299.44)">
<title>G</title>
<polygon fill="white" stroke="transparent" points="-4,4 -4,-1299.44 1072.81,-1299.44 1072.81,4 -4,4"/>
<!-- BB0 -->
<g id="node1" class="node">
<title>BB0</title>
<ellipse fill="none" stroke="black" cx="391.45" cy="-1257.96" rx="105.22" ry="37.45"/>
<text text-anchor="middle" x="391.45" y="-1269.26" font-family="Times New Roman,serif" font-size="14.00">[0..13)</text>
<text text-anchor="middle" x="391.45" y="-1254.26" font-family="Times New Roman,serif" font-size="14.00">Normalized Count: 1.00</text>
<text text-anchor="middle" x="391.45" y="-1239.26" font-family="Times New Roman,serif" font-size="14.00">Samples weight: 0.00</text>
</g>
<!-- BB16 -->
<g id="node17" class="node">
<title>BB16</title>
<ellipse fill="none" stroke="black" cx="391.45" cy="-1147.01" rx="105.22" ry="37.45"/>
<text text-anchor="middle" x="391.45" y="-1158.31" font-family="Times New Roman,serif" font-size="14.00">[9d..a4)</text>
<text text-anchor="middle" x="391.45" y="-1143.31" font-family="Times New Roman,serif" font-size="14.00">Normalized Count: 7.00</text>
<text text-anchor="middle" x="391.45" y="-1128.31" font-family="Times New Roman,serif" font-size="14.00">Samples weight: 0.00</text>
</g>
<!-- BB0&#45;&gt;BB16 -->
<g id="edge1" class="edge">
<title>BB0&#45;&gt;BB16</title>
<path fill="none" stroke="black" d="M391.45,-1220.38C391.45,-1212.21 391.45,-1203.43 391.45,-1194.9"/>
<polygon fill="black" stroke="black" points="394.95,-1194.68 391.45,-1184.68 387.95,-1194.68 394.95,-1194.68"/>
</g>
<!-- BB1 -->
<g id="node2" class="node">
<title>BB1</title>
<ellipse fill="none" stroke="black" cx="391.45" cy="-1036.06" rx="105.22" ry="37.45"/>
<text text-anchor="middle" x="391.45" y="-1047.36" font-family="Times New Roman,serif" font-size="14.00">[13..1e)</text>
<text text-anchor="middle" x="391.45" y="-1032.36" font-family="Times New Roman,serif" font-size="14.00">Normalized Count: 6.00</text>
<text text-anchor="middle" x="391.45" y="-1017.36" font-family="Times New Roman,serif" font-size="14.00">Samples weight: 0.00</text>
</g>
<!-- BB2 -->
<g id="node3" class="node">
<title>BB2</title>
<ellipse fill="none" stroke="black" cx="505.45" cy="-925.1" rx="105.22" ry="37.45"/>
<text text-anchor="middle" x="505.45" y="-936.4" font-family="Times New Roman,serif" font-size="14.00">[1e..21)</text>
<text text-anchor="middle" x="505.45" y="-921.4" font-family="Times New Roman,serif" font-size="14.00">Normalized Count: 5.00</text>
<text text-anchor="middle" x="505.45" y="-906.4" font-family="Times New Roman,serif" font-size="14.00">Samples weight: 0.00</text>
</g>
<!-- BB1&#45;&gt;BB2 -->
<g id="edge3" class="edge">
<title>BB1&#45;&gt;BB2</title>
<path fill="none" stroke="black" d="M427.52,-1000.58C438.54,-990.05 450.78,-978.35 462.23,-967.41"/>
<polygon fill="black" stroke="black" points="464.8,-969.79 469.62,-960.35 459.97,-964.73 464.8,-969.79"/>
</g>
<!-- BB3 -->
<g id="node4" class="node">
<title>BB3</title>
<ellipse fill="none" stroke="black" cx="276.45" cy="-925.1" rx="105.22" ry="37.45"/>
<text text-anchor="middle" x="276.45" y="-936.4" font-family="Times New Roman,serif" font-size="14.00">[21..22)</text>
<text text-anchor="middle" x="276.45" y="-921.4" font-family="Times New Roman,serif" font-size="14.00">Normalized Count: 1.00</text>
<text text-anchor="middle" x="276.45" y="-906.4" font-family="Times New Roman,serif" font-size="14.00">Samples weight: 0.00</text>
</g>
<!-- BB1&#45;&gt;BB3 -->
<g id="edge2" class="edge">
<title>BB1&#45;&gt;BB3</title>
<path fill="none" stroke="black" d="M355.06,-1000.58C343.94,-990.05 331.6,-978.35 320.05,-967.41"/>
<polygon fill="black" stroke="black" points="322.27,-964.69 312.6,-960.35 317.45,-969.77 322.27,-964.69"/>
</g>
<!-- BB4 -->
<g id="node5" class="node">
<title>BB4</title>
<ellipse fill="none" stroke="black" cx="390.45" cy="-814.15" rx="105.22" ry="37.45"/>
<text text-anchor="middle" x="390.45" y="-825.45" font-family="Times New Roman,serif" font-size="14.00">[22..2f)</text>
<text text-anchor="middle" x="390.45" y="-810.45" font-family="Times New Roman,serif" font-size="14.00">Normalized Count: 6.00</text>
<text text-anchor="middle" x="390.45" y="-795.45" font-family="Times New Roman,serif" font-size="14.00">Samples weight: 0.00</text>
</g>
<!-- BB2&#45;&gt;BB4 -->
<g id="edge4" class="edge">
<title>BB2&#45;&gt;BB4</title>
<path fill="none" stroke="black" d="M469.06,-889.63C457.94,-879.09 445.6,-867.4 434.05,-856.46"/>
<polygon fill="black" stroke="black" points="436.27,-853.74 426.6,-849.4 431.45,-858.82 436.27,-853.74"/>
</g>
<!-- BB3&#45;&gt;BB4 -->
<g id="edge5" class="edge">
<title>BB3&#45;&gt;BB4</title>
<path fill="none" stroke="black" d="M312.52,-889.63C323.54,-879.09 335.78,-867.4 347.23,-856.46"/>
<polygon fill="black" stroke="black" points="349.8,-858.84 354.62,-849.4 344.97,-853.78 349.8,-858.84"/>
</g>
<!-- BB5 -->
<g id="node6" class="node">
<title>BB5</title>
<ellipse fill="none" stroke="black" cx="505.45" cy="-703.2" rx="105.22" ry="37.45"/>
<text text-anchor="middle" x="505.45" y="-714.5" font-family="Times New Roman,serif" font-size="14.00">[2f..34)</text>
<text text-anchor="middle" x="505.45" y="-699.5" font-family="Times New Roman,serif" font-size="14.00">Normalized Count: 5.00</text>
<text text-anchor="middle" x="505.45" y="-684.5" font-family="Times New Roman,serif" font-size="14.00">Samples weight: 0.00</text>
</g>
<!-- BB4&#45;&gt;BB5 -->
<g id="edge7" class="edge">
<title>BB4&#45;&gt;BB5</title>
<path fill="none" stroke="black" d="M426.84,-778.68C437.96,-768.14 450.3,-756.45 461.85,-745.51"/>
<polygon fill="black" stroke="black" points="464.45,-747.86 469.3,-738.45 459.63,-742.78 464.45,-747.86"/>
</g>
<!-- BB6 -->
<g id="node7" class="node">
<title>BB6</title>
<ellipse fill="none" stroke="black" cx="276.45" cy="-703.2" rx="105.22" ry="37.45"/>
<text text-anchor="middle" x="276.45" y="-714.5" font-family="Times New Roman,serif" font-size="14.00">[34..35)</text>
<text text-anchor="middle" x="276.45" y="-699.5" font-family="Times New Roman,serif" font-size="14.00">Normalized Count: 1.00</text>
<text text-anchor="middle" x="276.45" y="-684.5" font-family="Times New Roman,serif" font-size="14.00">Samples weight: 0.00</text>
</g>
<!-- BB4&#45;&gt;BB6 -->
<g id="edge6" class="edge">
<title>BB4&#45;&gt;BB6</title>
<path fill="none" stroke="black" d="M354.38,-778.68C343.36,-768.14 331.12,-756.45 319.67,-745.51"/>
<polygon fill="black" stroke="black" points="321.93,-742.82 312.29,-738.45 317.1,-747.89 321.93,-742.82"/>
</g>
<!-- BB7 -->
<g id="node8" class="node">
<title>BB7</title>
<ellipse fill="none" stroke="black" cx="391.45" cy="-592.24" rx="105.22" ry="37.45"/>
<text text-anchor="middle" x="391.45" y="-603.54" font-family="Times New Roman,serif" font-size="14.00">[35..3b)</text>
<text text-anchor="middle" x="391.45" y="-588.54" font-family="Times New Roman,serif" font-size="14.00">Normalized Count: 6.00</text>
<text text-anchor="middle" x="391.45" y="-573.54" font-family="Times New Roman,serif" font-size="14.00">Samples weight: 0.00</text>
</g>
<!-- BB5&#45;&gt;BB7 -->
<g id="edge8" class="edge">
<title>BB5&#45;&gt;BB7</title>
<path fill="none" stroke="black" d="M469.38,-667.72C458.36,-657.19 446.12,-645.49 434.67,-634.55"/>
<polygon fill="black" stroke="black" points="436.93,-631.87 427.29,-627.49 432.1,-636.93 436.93,-631.87"/>
</g>
<!-- BB6&#45;&gt;BB7 -->
<g id="edge9" class="edge">
<title>BB6&#45;&gt;BB7</title>
<path fill="none" stroke="black" d="M312.84,-667.72C323.96,-657.19 336.3,-645.49 347.85,-634.55"/>
<polygon fill="black" stroke="black" points="350.45,-636.91 355.3,-627.49 345.63,-631.83 350.45,-636.91"/>
</g>
<!-- BB14 -->
<g id="node15" class="node">
<title>BB14</title>
<ellipse fill="none" stroke="black" cx="391.45" cy="-481.29" rx="124.4" ry="37.45"/>
<text text-anchor="middle" x="391.45" y="-492.59" font-family="Times New Roman,serif" font-size="14.00">[93..99)</text>
<text text-anchor="middle" x="391.45" y="-477.59" font-family="Times New Roman,serif" font-size="14.00">Normalized Count: 84729.67</text>
<text text-anchor="middle" x="391.45" y="-462.59" font-family="Times New Roman,serif" font-size="14.00">Samples weight: 0.20</text>
</g>
<!-- BB7&#45;&gt;BB14 -->
<g id="edge10" class="edge">
<title>BB7&#45;&gt;BB14</title>
<path fill="none" stroke="black" d="M391.45,-554.66C391.45,-546.49 391.45,-537.71 391.45,-529.18"/>
<polygon fill="black" stroke="black" points="394.95,-528.96 391.45,-518.96 387.95,-528.96 394.95,-528.96"/>
</g>
<!-- BB8 -->
<g id="node9" class="node">
<title>BB8</title>
<ellipse fill="none" stroke="black" cx="391.45" cy="-370.34" rx="124.4" ry="37.45"/>
<text text-anchor="middle" x="391.45" y="-381.64" font-family="Times New Roman,serif" font-size="14.00">[3b..4c)</text>
<text text-anchor="middle" x="391.45" y="-366.64" font-family="Times New Roman,serif" font-size="14.00">Normalized Count: 84723.67</text>
<text text-anchor="middle" x="391.45" y="-351.64" font-family="Times New Roman,serif" font-size="14.00">Samples weight: 0.20</text>
</g>
<!-- BB9 -->
<g id="node10" class="node">
<title>BB9</title>
<ellipse fill="none" stroke="black" cx="124.45" cy="-259.38" rx="124.4" ry="37.45"/>
<text text-anchor="middle" x="124.45" y="-270.68" font-family="Times New Roman,serif" font-size="14.00">[4c..59)</text>
<text text-anchor="middle" x="124.45" y="-255.68" font-family="Times New Roman,serif" font-size="14.00">Normalized Count: 83333.33</text>
<text text-anchor="middle" x="124.45" y="-240.68" font-family="Times New Roman,serif" font-size="14.00">Samples weight: 0.20</text>
</g>
<!-- BB8&#45;&gt;BB9 -->
<g id="edge12" class="edge">
<title>BB8&#45;&gt;BB9</title>
<path fill="none" stroke="black" d="M318.84,-339.71C284.11,-325.54 242.39,-308.51 206.51,-293.87"/>
<polygon fill="black" stroke="black" points="207.62,-290.54 197.04,-290.01 204.98,-297.02 207.62,-290.54"/>
</g>
<!-- BB10 -->
<g id="node11" class="node">
<title>BB10</title>
<ellipse fill="none" stroke="black" cx="391.45" cy="-259.38" rx="124.4" ry="37.45"/>
<text text-anchor="middle" x="391.45" y="-270.68" font-family="Times New Roman,serif" font-size="14.00">[59..5d)</text>
<text text-anchor="middle" x="391.45" y="-255.68" font-family="Times New Roman,serif" font-size="14.00">Normalized Count: 84723.67</text>
<text text-anchor="middle" x="391.45" y="-240.68" font-family="Times New Roman,serif" font-size="14.00">Samples weight: 0.20</text>
</g>
<!-- BB8&#45;&gt;BB10 -->
<g id="edge11" class="edge">
<title>BB8&#45;&gt;BB10</title>
<path fill="none" stroke="black" d="M391.45,-332.75C391.45,-324.58 391.45,-315.8 391.45,-307.27"/>
<polygon fill="black" stroke="black" points="394.95,-307.06 391.45,-297.06 387.95,-307.06 394.95,-307.06"/>
</g>
<!-- BB9&#45;&gt;BB10 -->
<g id="edge13" class="edge">
<title>BB9&#45;&gt;BB10</title>
<path fill="none" stroke="black" d="M249.09,-259.38C251.68,-259.38 254.28,-259.38 256.87,-259.38"/>
<polygon fill="black" stroke="black" points="256.88,-262.88 266.88,-259.38 256.88,-255.88 256.88,-262.88"/>
</g>
<!-- BB11 -->
<g id="node12" class="node">
<title>BB11</title>
<ellipse fill="none" stroke="black" cx="280.45" cy="-148.43" rx="120.42" ry="37.45"/>
<text text-anchor="middle" x="280.45" y="-159.73" font-family="Times New Roman,serif" font-size="14.00">[5d..77)</text>
<text text-anchor="middle" x="280.45" y="-144.73" font-family="Times New Roman,serif" font-size="14.00">Normalized Count: 1388.67</text>
<text text-anchor="middle" x="280.45" y="-129.73" font-family="Times New Roman,serif" font-size="14.00">Samples weight: 0.00</text>
</g>
<!-- BB10&#45;&gt;BB11 -->
<g id="edge15" class="edge">
<title>BB10&#45;&gt;BB11</title>
<path fill="none" stroke="black" d="M355.72,-223.31C345.42,-213.2 334.08,-202.07 323.39,-191.58"/>
<polygon fill="black" stroke="black" points="325.7,-188.94 316.12,-184.44 320.8,-193.94 325.7,-188.94"/>
</g>
<!-- BB13 -->
<g id="node14" class="node">
<title>BB13</title>
<ellipse fill="none" stroke="black" cx="543.45" cy="-148.43" rx="124.4" ry="37.45"/>
<text text-anchor="middle" x="543.45" y="-159.73" font-family="Times New Roman,serif" font-size="14.00">[8d..93)</text>
<text text-anchor="middle" x="543.45" y="-144.73" font-family="Times New Roman,serif" font-size="14.00">Normalized Count: 84723.67</text>
<text text-anchor="middle" x="543.45" y="-129.73" font-family="Times New Roman,serif" font-size="14.00">Samples weight: 0.20</text>
</g>
<!-- BB10&#45;&gt;BB13 -->
<g id="edge14" class="edge">
<title>BB10&#45;&gt;BB13</title>
<path fill="none" stroke="black" d="M438.71,-224.51C454.3,-213.34 471.77,-200.81 487.92,-189.24"/>
<polygon fill="black" stroke="black" points="490.13,-191.96 496.22,-183.29 486.05,-186.27 490.13,-191.96"/>
</g>
<!-- BB12 -->
<g id="node13" class="node">
<title>BB12</title>
<ellipse fill="none" stroke="black" cx="411.45" cy="-37.48" rx="105.22" ry="37.45"/>
<text text-anchor="middle" x="411.45" y="-48.78" font-family="Times New Roman,serif" font-size="14.00">[77..8d)</text>
<text text-anchor="middle" x="411.45" y="-33.78" font-family="Times New Roman,serif" font-size="14.00">Normalized Count: 4.67</text>
<text text-anchor="middle" x="411.45" y="-18.78" font-family="Times New Roman,serif" font-size="14.00">Samples weight: 0.00</text>
</g>
<!-- BB11&#45;&gt;BB12 -->
<g id="edge17" class="edge">
<title>BB11&#45;&gt;BB12</title>
<path fill="none" stroke="black" d="M321.9,-112.96C334.93,-102.12 349.44,-90.05 362.92,-78.84"/>
<polygon fill="black" stroke="black" points="365.27,-81.44 370.72,-72.35 360.79,-76.06 365.27,-81.44"/>
</g>
<!-- BB11&#45;&gt;BB13 -->
<g id="edge16" class="edge">
<title>BB11&#45;&gt;BB13</title>
<path fill="none" stroke="black" d="M400.91,-148.43C403.51,-148.43 406.1,-148.43 408.7,-148.43"/>
<polygon fill="black" stroke="black" points="408.72,-151.93 418.72,-148.43 408.72,-144.93 408.72,-151.93"/>
</g>
<!-- BB12&#45;&gt;BB13 -->
<g id="edge18" class="edge">
<title>BB12&#45;&gt;BB13</title>
<path fill="none" stroke="black" d="M452.49,-72.35C465.57,-83.15 480.18,-95.21 493.8,-106.45"/>
<polygon fill="black" stroke="black" points="491.74,-109.29 501.69,-112.96 496.2,-103.89 491.74,-109.29"/>
</g>
<!-- BB13&#45;&gt;BB14 -->
<g id="edge19" class="edge">
<title>BB13&#45;&gt;BB14</title>
<path fill="none" stroke="black" d="M551.02,-186.23C559.89,-239.67 568.32,-339.77 524.45,-407.81 513.83,-424.28 498.13,-437.3 481.2,-447.49"/>
<polygon fill="black" stroke="black" points="479.23,-444.58 472.26,-452.56 482.68,-450.67 479.23,-444.58"/>
</g>
<!-- BB14&#45;&gt;BB8 -->
<g id="edge20" class="edge">
<title>BB14&#45;&gt;BB8</title>
<path fill="none" stroke="black" d="M391.45,-443.71C391.45,-435.53 391.45,-426.75 391.45,-418.23"/>
<polygon fill="black" stroke="black" points="394.95,-418.01 391.45,-408.01 387.95,-418.01 394.95,-418.01"/>
</g>
<!-- BB15 -->
<g id="node16" class="node">
<title>BB15</title>
<ellipse fill="none" stroke="black" cx="143.45" cy="-370.34" rx="105.22" ry="37.45"/>
<text text-anchor="middle" x="143.45" y="-381.64" font-family="Times New Roman,serif" font-size="14.00">[99..9d)</text>
<text text-anchor="middle" x="143.45" y="-366.64" font-family="Times New Roman,serif" font-size="14.00">Normalized Count: 6.00</text>
<text text-anchor="middle" x="143.45" y="-351.64" font-family="Times New Roman,serif" font-size="14.00">Samples weight: 0.00</text>
</g>
<!-- BB14&#45;&gt;BB15 -->
<g id="edge21" class="edge">
<title>BB14&#45;&gt;BB15</title>
<path fill="none" stroke="black" d="M322.37,-449.94C289.88,-435.67 251.09,-418.62 217.94,-404.06"/>
<polygon fill="black" stroke="black" points="219.31,-400.84 208.75,-400.03 216.5,-407.25 219.31,-400.84"/>
</g>
<!-- BB15&#45;&gt;BB16 -->
<g id="edge22" class="edge">
<title>BB15&#45;&gt;BB16</title>
<path fill="none" stroke="black" d="M143.45,-407.91C143.45,-451.55 143.45,-526.72 143.45,-591.24 143.45,-926.1 143.45,-926.1 143.45,-926.1 143.45,-1017.71 239.35,-1080.42 311.88,-1114.75"/>
<polygon fill="black" stroke="black" points="310.5,-1117.97 321.05,-1119 313.45,-1111.62 310.5,-1117.97"/>
</g>
<!-- BB16&#45;&gt;BB1 -->
<g id="edge23" class="edge">
<title>BB16&#45;&gt;BB1</title>
<path fill="none" stroke="black" d="M391.45,-1109.43C391.45,-1101.25 391.45,-1092.47 391.45,-1083.95"/>
<polygon fill="black" stroke="black" points="394.95,-1083.73 391.45,-1073.73 387.95,-1083.73 394.95,-1083.73"/>
</g>
<!-- BB17 -->
<g id="node18" class="node">
<title>BB17</title>
<ellipse fill="none" stroke="black" cx="734.45" cy="-1036.06" rx="105.22" ry="37.45"/>
<text text-anchor="middle" x="734.45" y="-1047.36" font-family="Times New Roman,serif" font-size="14.00">[a4..a8)</text>
<text text-anchor="middle" x="734.45" y="-1032.36" font-family="Times New Roman,serif" font-size="14.00">Normalized Count: 1.00</text>
<text text-anchor="middle" x="734.45" y="-1017.36" font-family="Times New Roman,serif" font-size="14.00">Samples weight: 0.00</text>
</g>
<!-- BB16&#45;&gt;BB17 -->
<g id="edge24" class="edge">
<title>BB16&#45;&gt;BB17</title>
<path fill="none" stroke="black" d="M468.85,-1121.42C521.88,-1104.58 592.3,-1082.21 647.3,-1064.74"/>
<polygon fill="black" stroke="black" points="648.56,-1068.01 657.03,-1061.65 646.44,-1061.34 648.56,-1068.01"/>
</g>
<!-- BB18 -->
<g id="node19" class="node">
<title>BB18</title>
<ellipse fill="none" stroke="black" cx="734.45" cy="-925.1" rx="105.22" ry="37.45"/>
<text text-anchor="middle" x="734.45" y="-936.4" font-family="Times New Roman,serif" font-size="14.00">[a8..b5)</text>
<text text-anchor="middle" x="734.45" y="-921.4" font-family="Times New Roman,serif" font-size="14.00">Normalized Count: 1.00</text>
<text text-anchor="middle" x="734.45" y="-906.4" font-family="Times New Roman,serif" font-size="14.00">Samples weight: 0.00</text>
</g>
<!-- BB17&#45;&gt;BB18 -->
<g id="edge26" class="edge">
<title>BB17&#45;&gt;BB18</title>
<path fill="none" stroke="black" d="M734.45,-998.47C734.45,-990.3 734.45,-981.52 734.45,-972.99"/>
<polygon fill="black" stroke="black" points="737.95,-972.78 734.45,-962.78 730.95,-972.78 737.95,-972.78"/>
</g>
<!-- BB21 -->
<g id="node22" class="node">
<title>BB21</title>
<ellipse fill="none" stroke="black" cx="963.45" cy="-925.1" rx="105.22" ry="37.45"/>
<text text-anchor="middle" x="963.45" y="-936.4" font-family="Times New Roman,serif" font-size="14.00">[cf..d0)</text>
<text text-anchor="middle" x="963.45" y="-921.4" font-family="Times New Roman,serif" font-size="14.00">Normalized Count: 1.00</text>
<text text-anchor="middle" x="963.45" y="-906.4" font-family="Times New Roman,serif" font-size="14.00">Samples weight: 0.00</text>
</g>
<!-- BB17&#45;&gt;BB21 -->
<g id="edge25" class="edge">
<title>BB17&#45;&gt;BB21</title>
<path fill="none" stroke="black" d="M796.42,-1005.57C825.95,-991.52 861.43,-974.64 892.09,-960.06"/>
<polygon fill="black" stroke="black" points="893.9,-963.07 901.43,-955.61 890.9,-956.75 893.9,-963.07"/>
</g>
<!-- BB19 -->
<g id="node20" class="node">
<title>BB19</title>
<ellipse fill="none" stroke="black" cx="734.45" cy="-814.15" rx="105.22" ry="37.45"/>
<text text-anchor="middle" x="734.45" y="-825.45" font-family="Times New Roman,serif" font-size="14.00">[b5..c2)</text>
<text text-anchor="middle" x="734.45" y="-810.45" font-family="Times New Roman,serif" font-size="14.00">Normalized Count: 0.67</text>
<text text-anchor="middle" x="734.45" y="-795.45" font-family="Times New Roman,serif" font-size="14.00">Samples weight: 0.00</text>
</g>
<!-- BB18&#45;&gt;BB19 -->
<g id="edge28" class="edge">
<title>BB18&#45;&gt;BB19</title>
<path fill="none" stroke="black" d="M734.45,-887.52C734.45,-879.35 734.45,-870.57 734.45,-862.04"/>
<polygon fill="black" stroke="black" points="737.95,-861.82 734.45,-851.82 730.95,-861.82 737.95,-861.82"/>
</g>
<!-- BB20 -->
<g id="node21" class="node">
<title>BB20</title>
<ellipse fill="none" stroke="black" cx="963.45" cy="-814.15" rx="105.22" ry="37.45"/>
<text text-anchor="middle" x="963.45" y="-825.45" font-family="Times New Roman,serif" font-size="14.00">[c2..cf)</text>
<text text-anchor="middle" x="963.45" y="-810.45" font-family="Times New Roman,serif" font-size="14.00">Normalized Count: 1.00</text>
<text text-anchor="middle" x="963.45" y="-795.45" font-family="Times New Roman,serif" font-size="14.00">Samples weight: 0.00</text>
</g>
<!-- BB18&#45;&gt;BB20 -->
<g id="edge27" class="edge">
<title>BB18&#45;&gt;BB20</title>
<path fill="none" stroke="black" d="M796.42,-894.62C825.95,-880.57 861.43,-863.69 892.09,-849.1"/>
<polygon fill="black" stroke="black" points="893.9,-852.11 901.43,-844.66 890.9,-845.79 893.9,-852.11"/>
</g>
<!-- BB19&#45;&gt;BB20 -->
<g id="edge29" class="edge">
<title>BB19&#45;&gt;BB20</title>
<path fill="none" stroke="black" d="M840.01,-814.15C842.61,-814.15 845.21,-814.15 847.81,-814.15"/>
<polygon fill="black" stroke="black" points="847.85,-817.65 857.85,-814.15 847.85,-810.65 847.85,-817.65"/>
</g>
<!-- BB20&#45;&gt;BB21 -->
<g id="edge30" class="edge">
<title>BB20&#45;&gt;BB21</title>
<path fill="none" stroke="black" d="M963.45,-851.82C963.45,-860 963.45,-868.78 963.45,-877.31"/>
<polygon fill="black" stroke="black" points="959.95,-877.52 963.45,-887.52 966.95,-877.52 959.95,-877.52"/>
</g>
</g>
</svg>
