<?xml version="1.0" encoding="UTF-8" standalone="no"?>
<!DOCTYPE svg PUBLIC "-//W3C//DTD SVG 1.1//EN"
 "http://www.w3.org/Graphics/SVG/1.1/DTD/svg11.dtd">
<!-- Generated by graphviz version 2.47.0 (20210316.0004)
 -->
<!-- Title: G Pages: 1 -->
<svg width="2993pt" height="2302pt"
 viewBox="0.00 0.00 2992.62 2302.02" xmlns="http://www.w3.org/2000/svg" xmlns:xlink="http://www.w3.org/1999/xlink">
<g id="graph0" class="graph" transform="scale(1 1) rotate(0) translate(4 2298.02)">
<title>G</title>
<polygon fill="white" stroke="transparent" points="-4,4 -4,-2298.02 2988.62,-2298.02 2988.62,4 -4,4"/>
<!-- BB0 -->
<g id="node1" class="node">
<title>BB0</title>
<ellipse fill="none" stroke="black" cx="115.26" cy="-2256.54" rx="105.22" ry="37.45"/>
<text text-anchor="middle" x="115.26" y="-2267.84" font-family="Times New Roman,serif" font-size="14.00">[0..4)</text>
<text text-anchor="middle" x="115.26" y="-2252.84" font-family="Times New Roman,serif" font-size="14.00">Normalized Count: 1.00</text>
<text text-anchor="middle" x="115.26" y="-2237.84" font-family="Times New Roman,serif" font-size="14.00">Samples weight: 0.00</text>
</g>
<!-- BB2 -->
<g id="node3" class="node">
<title>BB2</title>
<ellipse fill="none" stroke="black" cx="115.26" cy="-2145.59" rx="110.12" ry="37.45"/>
<text text-anchor="middle" x="115.26" y="-2156.89" font-family="Times New Roman,serif" font-size="14.00">[3b..43)</text>
<text text-anchor="middle" x="115.26" y="-2141.89" font-family="Times New Roman,serif" font-size="14.00">Normalized Count: 17.00</text>
<text text-anchor="middle" x="115.26" y="-2126.89" font-family="Times New Roman,serif" font-size="14.00">Samples weight: 0.02</text>
</g>
<!-- BB0&#45;&gt;BB2 -->
<g id="edge1" class="edge">
<title>BB0&#45;&gt;BB2</title>
<path fill="none" stroke="black" d="M115.26,-2218.96C115.26,-2210.79 115.26,-2202.01 115.26,-2193.48"/>
<polygon fill="black" stroke="black" points="118.76,-2193.26 115.26,-2183.26 111.76,-2193.26 118.76,-2193.26"/>
</g>
<!-- BB1 -->
<g id="node2" class="node">
<title>BB1</title>
<ellipse fill="none" stroke="black" cx="115.26" cy="-2034.64" rx="115.02" ry="37.45"/>
<text text-anchor="middle" x="115.26" y="-2045.94" font-family="Times New Roman,serif" font-size="14.00">[4..3b)</text>
<text text-anchor="middle" x="115.26" y="-2030.94" font-family="Times New Roman,serif" font-size="14.00">Normalized Count: 167.00</text>
<text text-anchor="middle" x="115.26" y="-2015.94" font-family="Times New Roman,serif" font-size="14.00">Samples weight: 0.16</text>
</g>
<!-- BB1&#45;&gt;BB2 -->
<g id="edge2" class="edge">
<title>BB1&#45;&gt;BB2</title>
<path fill="none" stroke="black" d="M121.68,-2072.31C121.99,-2080.49 122.08,-2089.27 121.95,-2097.79"/>
<polygon fill="black" stroke="black" points="118.44,-2097.92 121.67,-2108.01 125.44,-2098.1 118.44,-2097.92"/>
</g>
<!-- BB2&#45;&gt;BB1 -->
<g id="edge3" class="edge">
<title>BB2&#45;&gt;BB1</title>
<path fill="none" stroke="black" d="M108.84,-2108.01C108.53,-2099.83 108.43,-2091.05 108.57,-2082.53"/>
<polygon fill="black" stroke="black" points="112.07,-2082.4 108.84,-2072.31 105.07,-2082.21 112.07,-2082.4"/>
</g>
<!-- BB3 -->
<g id="node4" class="node">
<title>BB3</title>
<ellipse fill="none" stroke="black" cx="354.26" cy="-2034.64" rx="105.22" ry="37.45"/>
<text text-anchor="middle" x="354.26" y="-2045.94" font-family="Times New Roman,serif" font-size="14.00">[43..47)</text>
<text text-anchor="middle" x="354.26" y="-2030.94" font-family="Times New Roman,serif" font-size="14.00">Normalized Count: 1.00</text>
<text text-anchor="middle" x="354.26" y="-2015.94" font-family="Times New Roman,serif" font-size="14.00">Samples weight: 0.00</text>
</g>
<!-- BB2&#45;&gt;BB3 -->
<g id="edge4" class="edge">
<title>BB2&#45;&gt;BB3</title>
<path fill="none" stroke="black" d="M179.94,-2115.11C211.27,-2100.82 249.01,-2083.61 281.36,-2068.87"/>
<polygon fill="black" stroke="black" points="283.12,-2071.91 290.77,-2064.58 280.22,-2065.54 283.12,-2071.91"/>
</g>
<!-- BB5 -->
<g id="node6" class="node">
<title>BB5</title>
<ellipse fill="none" stroke="black" cx="354.26" cy="-1923.68" rx="105.22" ry="37.45"/>
<text text-anchor="middle" x="354.26" y="-1934.98" font-family="Times New Roman,serif" font-size="14.00">[5c..64)</text>
<text text-anchor="middle" x="354.26" y="-1919.98" font-family="Times New Roman,serif" font-size="14.00">Normalized Count: 6.00</text>
<text text-anchor="middle" x="354.26" y="-1904.98" font-family="Times New Roman,serif" font-size="14.00">Samples weight: 0.01</text>
</g>
<!-- BB3&#45;&gt;BB5 -->
<g id="edge5" class="edge">
<title>BB3&#45;&gt;BB5</title>
<path fill="none" stroke="black" d="M354.26,-1997.05C354.26,-1988.88 354.26,-1980.1 354.26,-1971.57"/>
<polygon fill="black" stroke="black" points="357.76,-1971.35 354.26,-1961.35 350.76,-1971.35 357.76,-1971.35"/>
</g>
<!-- BB4 -->
<g id="node5" class="node">
<title>BB4</title>
<ellipse fill="none" stroke="black" cx="354.26" cy="-1812.73" rx="110.12" ry="37.45"/>
<text text-anchor="middle" x="354.26" y="-1824.03" font-family="Times New Roman,serif" font-size="14.00">[47..5c)</text>
<text text-anchor="middle" x="354.26" y="-1809.03" font-family="Times New Roman,serif" font-size="14.00">Normalized Count: 33.00</text>
<text text-anchor="middle" x="354.26" y="-1794.03" font-family="Times New Roman,serif" font-size="14.00">Samples weight: 0.03</text>
</g>
<!-- BB4&#45;&gt;BB5 -->
<g id="edge6" class="edge">
<title>BB4&#45;&gt;BB5</title>
<path fill="none" stroke="black" d="M360.68,-1850.4C360.99,-1858.58 361.08,-1867.36 360.95,-1875.89"/>
<polygon fill="black" stroke="black" points="357.44,-1876.01 360.67,-1886.1 364.44,-1876.2 357.44,-1876.01"/>
</g>
<!-- BB5&#45;&gt;BB4 -->
<g id="edge7" class="edge">
<title>BB5&#45;&gt;BB4</title>
<path fill="none" stroke="black" d="M347.84,-1886.1C347.53,-1877.93 347.43,-1869.15 347.57,-1860.62"/>
<polygon fill="black" stroke="black" points="351.07,-1860.49 347.84,-1850.4 344.07,-1860.3 351.07,-1860.49"/>
</g>
<!-- BB6 -->
<g id="node7" class="node">
<title>BB6</title>
<ellipse fill="none" stroke="black" cx="588.26" cy="-1812.73" rx="105.22" ry="37.45"/>
<text text-anchor="middle" x="588.26" y="-1824.03" font-family="Times New Roman,serif" font-size="14.00">[64..68)</text>
<text text-anchor="middle" x="588.26" y="-1809.03" font-family="Times New Roman,serif" font-size="14.00">Normalized Count: 0.00</text>
<text text-anchor="middle" x="588.26" y="-1794.03" font-family="Times New Roman,serif" font-size="14.00">Samples weight: 0.00</text>
</g>
<!-- BB5&#45;&gt;BB6 -->
<g id="edge8" class="edge">
<title>BB5&#45;&gt;BB6</title>
<path fill="none" stroke="black" d="M416.97,-1893.49C447.52,-1879.26 484.43,-1862.07 516.15,-1847.31"/>
<polygon fill="black" stroke="black" points="517.79,-1850.4 525.38,-1843.01 514.83,-1844.06 517.79,-1850.4"/>
</g>
<!-- BB11 -->
<g id="node12" class="node">
<title>BB11</title>
<ellipse fill="none" stroke="black" cx="588.26" cy="-1701.78" rx="105.22" ry="37.45"/>
<text text-anchor="middle" x="588.26" y="-1713.08" font-family="Times New Roman,serif" font-size="14.00">[91..96)</text>
<text text-anchor="middle" x="588.26" y="-1698.08" font-family="Times New Roman,serif" font-size="14.00">Normalized Count: 0.00</text>
<text text-anchor="middle" x="588.26" y="-1683.08" font-family="Times New Roman,serif" font-size="14.00">Samples weight: 0.00</text>
</g>
<!-- BB6&#45;&gt;BB11 -->
<g id="edge9" class="edge">
<title>BB6&#45;&gt;BB11</title>
<path fill="none" stroke="black" d="M588.26,-1775.15C588.26,-1766.97 588.26,-1758.19 588.26,-1749.67"/>
<polygon fill="black" stroke="black" points="591.76,-1749.45 588.26,-1739.45 584.76,-1749.45 591.76,-1749.45"/>
</g>
<!-- BB7 -->
<g id="node8" class="node">
<title>BB7</title>
<ellipse fill="none" stroke="black" cx="588.26" cy="-1590.82" rx="105.22" ry="37.45"/>
<text text-anchor="middle" x="588.26" y="-1602.12" font-family="Times New Roman,serif" font-size="14.00">[68..6c)</text>
<text text-anchor="middle" x="588.26" y="-1587.12" font-family="Times New Roman,serif" font-size="14.00">Normalized Count: 9.00</text>
<text text-anchor="middle" x="588.26" y="-1572.12" font-family="Times New Roman,serif" font-size="14.00">Samples weight: 0.01</text>
</g>
<!-- BB9 -->
<g id="node10" class="node">
<title>BB9</title>
<ellipse fill="none" stroke="black" cx="588.26" cy="-1479.87" rx="110.12" ry="37.45"/>
<text text-anchor="middle" x="588.26" y="-1491.17" font-family="Times New Roman,serif" font-size="14.00">[88..8d)</text>
<text text-anchor="middle" x="588.26" y="-1476.17" font-family="Times New Roman,serif" font-size="14.00">Normalized Count: 10.00</text>
<text text-anchor="middle" x="588.26" y="-1461.17" font-family="Times New Roman,serif" font-size="14.00">Samples weight: 0.01</text>
</g>
<!-- BB7&#45;&gt;BB9 -->
<g id="edge10" class="edge">
<title>BB7&#45;&gt;BB9</title>
<path fill="none" stroke="black" d="M588.26,-1553.24C588.26,-1545.07 588.26,-1536.29 588.26,-1527.76"/>
<polygon fill="black" stroke="black" points="591.76,-1527.54 588.26,-1517.54 584.76,-1527.54 591.76,-1527.54"/>
</g>
<!-- BB8 -->
<g id="node9" class="node">
<title>BB8</title>
<ellipse fill="none" stroke="black" cx="588.26" cy="-1368.92" rx="115.02" ry="37.45"/>
<text text-anchor="middle" x="588.26" y="-1380.22" font-family="Times New Roman,serif" font-size="14.00">[6c..88)</text>
<text text-anchor="middle" x="588.26" y="-1365.22" font-family="Times New Roman,serif" font-size="14.00">Normalized Count: 251.00</text>
<text text-anchor="middle" x="588.26" y="-1350.22" font-family="Times New Roman,serif" font-size="14.00">Samples weight: 0.25</text>
</g>
<!-- BB8&#45;&gt;BB9 -->
<g id="edge11" class="edge">
<title>BB8&#45;&gt;BB9</title>
<path fill="none" stroke="black" d="M594.68,-1406.59C594.99,-1414.77 595.08,-1423.55 594.95,-1432.07"/>
<polygon fill="black" stroke="black" points="591.44,-1432.2 594.67,-1442.29 598.44,-1432.38 591.44,-1432.2"/>
</g>
<!-- BB9&#45;&gt;BB8 -->
<g id="edge12" class="edge">
<title>BB9&#45;&gt;BB8</title>
<path fill="none" stroke="black" d="M581.84,-1442.29C581.53,-1434.11 581.43,-1425.33 581.57,-1416.81"/>
<polygon fill="black" stroke="black" points="585.07,-1416.68 581.84,-1406.59 578.07,-1416.49 585.07,-1416.68"/>
</g>
<!-- BB10 -->
<g id="node11" class="node">
<title>BB10</title>
<ellipse fill="none" stroke="black" cx="349.26" cy="-1368.92" rx="105.22" ry="37.45"/>
<text text-anchor="middle" x="349.26" y="-1380.22" font-family="Times New Roman,serif" font-size="14.00">[8d..91)</text>
<text text-anchor="middle" x="349.26" y="-1365.22" font-family="Times New Roman,serif" font-size="14.00">Normalized Count: 1.00</text>
<text text-anchor="middle" x="349.26" y="-1350.22" font-family="Times New Roman,serif" font-size="14.00">Samples weight: 0.00</text>
</g>
<!-- BB9&#45;&gt;BB10 -->
<g id="edge13" class="edge">
<title>BB9&#45;&gt;BB10</title>
<path fill="none" stroke="black" d="M523.58,-1449.39C492.25,-1435.1 454.5,-1417.89 422.16,-1403.15"/>
<polygon fill="black" stroke="black" points="423.3,-1399.82 412.75,-1398.86 420.39,-1406.19 423.3,-1399.82"/>
</g>
<!-- BB10&#45;&gt;BB11 -->
<g id="edge14" class="edge">
<title>BB10&#45;&gt;BB11</title>
<path fill="none" stroke="black" d="M359.85,-1406.55C376.83,-1460.23 414.44,-1561.13 474.26,-1628.3 486.89,-1642.49 502.94,-1654.95 518.99,-1665.36"/>
<polygon fill="black" stroke="black" points="517.54,-1668.59 527.88,-1670.94 521.26,-1662.66 517.54,-1668.59"/>
</g>
<!-- BB11&#45;&gt;BB7 -->
<g id="edge15" class="edge">
<title>BB11&#45;&gt;BB7</title>
<path fill="none" stroke="black" d="M588.26,-1664.19C588.26,-1656.02 588.26,-1647.24 588.26,-1638.71"/>
<polygon fill="black" stroke="black" points="591.76,-1638.49 588.26,-1628.49 584.76,-1638.5 591.76,-1638.49"/>
</g>
<!-- BB12 -->
<g id="node13" class="node">
<title>BB12</title>
<ellipse fill="none" stroke="black" cx="819.26" cy="-1590.82" rx="105.22" ry="37.45"/>
<text text-anchor="middle" x="819.26" y="-1602.12" font-family="Times New Roman,serif" font-size="14.00">[96..9a)</text>
<text text-anchor="middle" x="819.26" y="-1587.12" font-family="Times New Roman,serif" font-size="14.00">Normalized Count: 0.00</text>
<text text-anchor="middle" x="819.26" y="-1572.12" font-family="Times New Roman,serif" font-size="14.00">Samples weight: 0.00</text>
</g>
<!-- BB11&#45;&gt;BB12 -->
<g id="edge16" class="edge">
<title>BB11&#45;&gt;BB12</title>
<path fill="none" stroke="black" d="M650.47,-1671.44C680.51,-1657.27 716.71,-1640.19 747.87,-1625.49"/>
<polygon fill="black" stroke="black" points="749.39,-1628.65 756.94,-1621.22 746.4,-1622.32 749.39,-1628.65"/>
</g>
<!-- BB20 -->
<g id="node21" class="node">
<title>BB20</title>
<ellipse fill="none" stroke="black" cx="843.26" cy="-1479.87" rx="105.22" ry="37.45"/>
<text text-anchor="middle" x="843.26" y="-1491.17" font-family="Times New Roman,serif" font-size="14.00">[e7..eb)</text>
<text text-anchor="middle" x="843.26" y="-1476.17" font-family="Times New Roman,serif" font-size="14.00">Normalized Count: 0.00</text>
<text text-anchor="middle" x="843.26" y="-1461.17" font-family="Times New Roman,serif" font-size="14.00">Samples weight: 0.00</text>
</g>
<!-- BB12&#45;&gt;BB20 -->
<g id="edge17" class="edge">
<title>BB12&#45;&gt;BB20</title>
<path fill="none" stroke="black" d="M827.32,-1553.24C829.14,-1544.98 831.09,-1536.09 832.99,-1527.48"/>
<polygon fill="black" stroke="black" points="836.45,-1528.06 835.18,-1517.54 829.61,-1526.55 836.45,-1528.06"/>
</g>
<!-- BB13 -->
<g id="node14" class="node">
<title>BB13</title>
<ellipse fill="none" stroke="black" cx="864.26" cy="-1368.92" rx="105.22" ry="37.45"/>
<text text-anchor="middle" x="864.26" y="-1380.22" font-family="Times New Roman,serif" font-size="14.00">[9a..9e)</text>
<text text-anchor="middle" x="864.26" y="-1365.22" font-family="Times New Roman,serif" font-size="14.00">Normalized Count: 0.00</text>
<text text-anchor="middle" x="864.26" y="-1350.22" font-family="Times New Roman,serif" font-size="14.00">Samples weight: 0.00</text>
</g>
<!-- BB18 -->
<g id="node19" class="node">
<title>BB18</title>
<ellipse fill="none" stroke="black" cx="864.26" cy="-1257.96" rx="105.22" ry="37.45"/>
<text text-anchor="middle" x="864.26" y="-1269.26" font-family="Times New Roman,serif" font-size="14.00">[de..e3)</text>
<text text-anchor="middle" x="864.26" y="-1254.26" font-family="Times New Roman,serif" font-size="14.00">Normalized Count: 2.00</text>
<text text-anchor="middle" x="864.26" y="-1239.26" font-family="Times New Roman,serif" font-size="14.00">Samples weight: 0.00</text>
</g>
<!-- BB13&#45;&gt;BB18 -->
<g id="edge18" class="edge">
<title>BB13&#45;&gt;BB18</title>
<path fill="none" stroke="black" d="M864.26,-1331.33C864.26,-1323.16 864.26,-1314.38 864.26,-1305.85"/>
<polygon fill="black" stroke="black" points="867.76,-1305.64 864.26,-1295.64 860.76,-1305.64 867.76,-1305.64"/>
</g>
<!-- BB14 -->
<g id="node15" class="node">
<title>BB14</title>
<ellipse fill="none" stroke="black" cx="997.26" cy="-1147.01" rx="105.22" ry="37.45"/>
<text text-anchor="middle" x="997.26" y="-1158.31" font-family="Times New Roman,serif" font-size="14.00">[9e..a2)</text>
<text text-anchor="middle" x="997.26" y="-1143.31" font-family="Times New Roman,serif" font-size="14.00">Normalized Count: 3.00</text>
<text text-anchor="middle" x="997.26" y="-1128.31" font-family="Times New Roman,serif" font-size="14.00">Samples weight: 0.00</text>
</g>
<!-- BB16 -->
<g id="node17" class="node">
<title>BB16</title>
<ellipse fill="none" stroke="black" cx="997.26" cy="-1036.06" rx="105.22" ry="37.45"/>
<text text-anchor="middle" x="997.26" y="-1047.36" font-family="Times New Roman,serif" font-size="14.00">[d6..da)</text>
<text text-anchor="middle" x="997.26" y="-1032.36" font-family="Times New Roman,serif" font-size="14.00">Normalized Count: 4.00</text>
<text text-anchor="middle" x="997.26" y="-1017.36" font-family="Times New Roman,serif" font-size="14.00">Samples weight: 0.00</text>
</g>
<!-- BB14&#45;&gt;BB16 -->
<g id="edge19" class="edge">
<title>BB14&#45;&gt;BB16</title>
<path fill="none" stroke="black" d="M997.26,-1109.43C997.26,-1101.25 997.26,-1092.47 997.26,-1083.95"/>
<polygon fill="black" stroke="black" points="1000.76,-1083.73 997.26,-1073.73 993.76,-1083.73 1000.76,-1083.73"/>
</g>
<!-- BB15 -->
<g id="node16" class="node">
<title>BB15</title>
<ellipse fill="none" stroke="black" cx="997.26" cy="-925.1" rx="110.12" ry="37.45"/>
<text text-anchor="middle" x="997.26" y="-936.4" font-family="Times New Roman,serif" font-size="14.00">[a2..d6)</text>
<text text-anchor="middle" x="997.26" y="-921.4" font-family="Times New Roman,serif" font-size="14.00">Normalized Count: 75.00</text>
<text text-anchor="middle" x="997.26" y="-906.4" font-family="Times New Roman,serif" font-size="14.00">Samples weight: 0.07</text>
</g>
<!-- BB15&#45;&gt;BB16 -->
<g id="edge20" class="edge">
<title>BB15&#45;&gt;BB16</title>
<path fill="none" stroke="black" d="M1003.68,-962.78C1003.99,-970.95 1004.08,-979.74 1003.95,-988.26"/>
<polygon fill="black" stroke="black" points="1000.44,-988.38 1003.67,-998.47 1007.44,-988.57 1000.44,-988.38"/>
</g>
<!-- BB16&#45;&gt;BB15 -->
<g id="edge21" class="edge">
<title>BB16&#45;&gt;BB15</title>
<path fill="none" stroke="black" d="M990.84,-998.47C990.53,-990.3 990.43,-981.52 990.57,-972.99"/>
<polygon fill="black" stroke="black" points="994.07,-972.86 990.84,-962.78 987.07,-972.68 994.07,-972.86"/>
</g>
<!-- BB17 -->
<g id="node18" class="node">
<title>BB17</title>
<ellipse fill="none" stroke="black" cx="763.26" cy="-925.1" rx="105.22" ry="37.45"/>
<text text-anchor="middle" x="763.26" y="-936.4" font-family="Times New Roman,serif" font-size="14.00">[da..de)</text>
<text text-anchor="middle" x="763.26" y="-921.4" font-family="Times New Roman,serif" font-size="14.00">Normalized Count: 1.00</text>
<text text-anchor="middle" x="763.26" y="-906.4" font-family="Times New Roman,serif" font-size="14.00">Samples weight: 0.00</text>
</g>
<!-- BB16&#45;&gt;BB17 -->
<g id="edge22" class="edge">
<title>BB16&#45;&gt;BB17</title>
<path fill="none" stroke="black" d="M934.55,-1005.86C903.99,-991.63 867.09,-974.45 835.37,-959.68"/>
<polygon fill="black" stroke="black" points="836.68,-956.43 826.14,-955.38 833.73,-962.78 836.68,-956.43"/>
</g>
<!-- BB17&#45;&gt;BB18 -->
<g id="edge23" class="edge">
<title>BB17&#45;&gt;BB18</title>
<path fill="none" stroke="black" d="M783.18,-962.16C802.24,-998.31 830.24,-1056.14 845.26,-1109.53 854.54,-1142.53 859.31,-1180.98 861.74,-1210.34"/>
<polygon fill="black" stroke="black" points="858.26,-1210.62 862.51,-1220.32 865.23,-1210.08 858.26,-1210.62"/>
</g>
<!-- BB18&#45;&gt;BB14 -->
<g id="edge24" class="edge">
<title>BB18&#45;&gt;BB14</title>
<path fill="none" stroke="black" d="M905.25,-1223.38C918.9,-1212.2 934.24,-1199.63 948.43,-1188.01"/>
<polygon fill="black" stroke="black" points="950.66,-1190.71 956.18,-1181.67 946.22,-1185.29 950.66,-1190.71"/>
</g>
<!-- BB19 -->
<g id="node20" class="node">
<title>BB19</title>
<ellipse fill="none" stroke="black" cx="731.26" cy="-1147.01" rx="105.22" ry="37.45"/>
<text text-anchor="middle" x="731.26" y="-1158.31" font-family="Times New Roman,serif" font-size="14.00">[e3..e7)</text>
<text text-anchor="middle" x="731.26" y="-1143.31" font-family="Times New Roman,serif" font-size="14.00">Normalized Count: 0.00</text>
<text text-anchor="middle" x="731.26" y="-1128.31" font-family="Times New Roman,serif" font-size="14.00">Samples weight: 0.00</text>
</g>
<!-- BB18&#45;&gt;BB19 -->
<g id="edge25" class="edge">
<title>BB18&#45;&gt;BB19</title>
<path fill="none" stroke="black" d="M823.27,-1223.38C809.62,-1212.2 794.27,-1199.63 780.09,-1188.01"/>
<polygon fill="black" stroke="black" points="782.3,-1185.29 772.34,-1181.67 777.86,-1190.71 782.3,-1185.29"/>
</g>
<!-- BB19&#45;&gt;BB20 -->
<g id="edge26" class="edge">
<title>BB19&#45;&gt;BB20</title>
<path fill="none" stroke="black" d="M725.08,-1184.81C718.13,-1237.36 712.29,-1335.4 750.26,-1406.39 757.46,-1419.87 768.38,-1431.65 780.22,-1441.57"/>
<polygon fill="black" stroke="black" points="778.1,-1444.36 788.11,-1447.83 782.45,-1438.87 778.1,-1444.36"/>
</g>
<!-- BB20&#45;&gt;BB13 -->
<g id="edge27" class="edge">
<title>BB20&#45;&gt;BB13</title>
<path fill="none" stroke="black" d="M850.31,-1442.29C851.9,-1434.02 853.61,-1425.14 855.27,-1416.52"/>
<polygon fill="black" stroke="black" points="858.73,-1417.07 857.19,-1406.59 851.86,-1415.75 858.73,-1417.07"/>
</g>
<!-- BB21 -->
<g id="node22" class="node">
<title>BB21</title>
<ellipse fill="none" stroke="black" cx="1256.26" cy="-1368.92" rx="105.22" ry="37.45"/>
<text text-anchor="middle" x="1256.26" y="-1380.22" font-family="Times New Roman,serif" font-size="14.00">[eb..ef)</text>
<text text-anchor="middle" x="1256.26" y="-1365.22" font-family="Times New Roman,serif" font-size="14.00">Normalized Count: 0.00</text>
<text text-anchor="middle" x="1256.26" y="-1350.22" font-family="Times New Roman,serif" font-size="14.00">Samples weight: 0.00</text>
</g>
<!-- BB20&#45;&gt;BB21 -->
<g id="edge28" class="edge">
<title>BB20&#45;&gt;BB21</title>
<path fill="none" stroke="black" d="M926.84,-1456.82C995.27,-1438.77 1092.02,-1413.24 1162.97,-1394.53"/>
<polygon fill="black" stroke="black" points="1164.03,-1397.87 1172.81,-1391.93 1162.24,-1391.1 1164.03,-1397.87"/>
</g>
<!-- BB26 -->
<g id="node27" class="node">
<title>BB26</title>
<ellipse fill="none" stroke="black" cx="1325.26" cy="-1257.96" rx="105.22" ry="37.45"/>
<text text-anchor="middle" x="1325.26" y="-1269.26" font-family="Times New Roman,serif" font-size="14.00">[139..13e)</text>
<text text-anchor="middle" x="1325.26" y="-1254.26" font-family="Times New Roman,serif" font-size="14.00">Normalized Count: 0.00</text>
<text text-anchor="middle" x="1325.26" y="-1239.26" font-family="Times New Roman,serif" font-size="14.00">Samples weight: 0.00</text>
</g>
<!-- BB21&#45;&gt;BB26 -->
<g id="edge29" class="edge">
<title>BB21&#45;&gt;BB26</title>
<path fill="none" stroke="black" d="M1278.85,-1332.24C1284.69,-1323.02 1291.05,-1312.99 1297.13,-1303.38"/>
<polygon fill="black" stroke="black" points="1300.22,-1305.04 1302.61,-1294.72 1294.31,-1301.29 1300.22,-1305.04"/>
</g>
<!-- BB22 -->
<g id="node23" class="node">
<title>BB22</title>
<ellipse fill="none" stroke="black" cx="1406.26" cy="-1147.01" rx="105.22" ry="37.45"/>
<text text-anchor="middle" x="1406.26" y="-1158.31" font-family="Times New Roman,serif" font-size="14.00">[ef..f3)</text>
<text text-anchor="middle" x="1406.26" y="-1143.31" font-family="Times New Roman,serif" font-size="14.00">Normalized Count: 2.00</text>
<text text-anchor="middle" x="1406.26" y="-1128.31" font-family="Times New Roman,serif" font-size="14.00">Samples weight: 0.00</text>
</g>
<!-- BB24 -->
<g id="node25" class="node">
<title>BB24</title>
<ellipse fill="none" stroke="black" cx="1420.26" cy="-1036.06" rx="110.12" ry="37.45"/>
<text text-anchor="middle" x="1420.26" y="-1047.36" font-family="Times New Roman,serif" font-size="14.00">[130..135)</text>
<text text-anchor="middle" x="1420.26" y="-1032.36" font-family="Times New Roman,serif" font-size="14.00">Normalized Count: 14.00</text>
<text text-anchor="middle" x="1420.26" y="-1017.36" font-family="Times New Roman,serif" font-size="14.00">Samples weight: 0.01</text>
</g>
<!-- BB22&#45;&gt;BB24 -->
<g id="edge30" class="edge">
<title>BB22&#45;&gt;BB24</title>
<path fill="none" stroke="black" d="M1410.96,-1109.43C1412.02,-1101.16 1413.16,-1092.28 1414.27,-1083.66"/>
<polygon fill="black" stroke="black" points="1417.74,-1084.09 1415.55,-1073.73 1410.8,-1083.2 1417.74,-1084.09"/>
</g>
<!-- BB23 -->
<g id="node24" class="node">
<title>BB23</title>
<ellipse fill="none" stroke="black" cx="1470.26" cy="-925.1" rx="115.02" ry="37.45"/>
<text text-anchor="middle" x="1470.26" y="-936.4" font-family="Times New Roman,serif" font-size="14.00">[f3..130)</text>
<text text-anchor="middle" x="1470.26" y="-921.4" font-family="Times New Roman,serif" font-size="14.00">Normalized Count: 113.00</text>
<text text-anchor="middle" x="1470.26" y="-906.4" font-family="Times New Roman,serif" font-size="14.00">Samples weight: 0.11</text>
</g>
<!-- BB23&#45;&gt;BB24 -->
<g id="edge31" class="edge">
<title>BB23&#45;&gt;BB24</title>
<path fill="none" stroke="black" d="M1459.92,-962.61C1456.19,-971.5 1451.86,-981.1 1447.44,-990.33"/>
<polygon fill="black" stroke="black" points="1444.26,-988.86 1443.01,-999.38 1450.55,-991.94 1444.26,-988.86"/>
</g>
<!-- BB24&#45;&gt;BB23 -->
<g id="edge32" class="edge">
<title>BB24&#45;&gt;BB23</title>
<path fill="none" stroke="black" d="M1430.63,-998.47C1434.29,-989.76 1438.53,-980.35 1442.86,-971.3"/>
<polygon fill="black" stroke="black" points="1446.14,-972.56 1447.38,-962.03 1439.85,-969.48 1446.14,-972.56"/>
</g>
<!-- BB25 -->
<g id="node26" class="node">
<title>BB25</title>
<ellipse fill="none" stroke="black" cx="1231.26" cy="-925.1" rx="105.22" ry="37.45"/>
<text text-anchor="middle" x="1231.26" y="-936.4" font-family="Times New Roman,serif" font-size="14.00">[135..139)</text>
<text text-anchor="middle" x="1231.26" y="-921.4" font-family="Times New Roman,serif" font-size="14.00">Normalized Count: 5.00</text>
<text text-anchor="middle" x="1231.26" y="-906.4" font-family="Times New Roman,serif" font-size="14.00">Samples weight: 0.00</text>
</g>
<!-- BB24&#45;&gt;BB25 -->
<g id="edge33" class="edge">
<title>BB24&#45;&gt;BB25</title>
<path fill="none" stroke="black" d="M1365.34,-1003.4C1343.01,-990.53 1317.09,-975.58 1294.02,-962.29"/>
<polygon fill="black" stroke="black" points="1295.75,-959.24 1285.34,-957.28 1292.25,-965.3 1295.75,-959.24"/>
</g>
<!-- BB25&#45;&gt;BB26 -->
<g id="edge34" class="edge">
<title>BB25&#45;&gt;BB26</title>
<path fill="none" stroke="black" d="M1237.56,-962.68C1246.8,-1013.33 1265.86,-1107.29 1292.26,-1184.49 1295.35,-1193.52 1299.17,-1202.95 1303.1,-1211.9"/>
<polygon fill="black" stroke="black" points="1299.92,-1213.35 1307.22,-1221.03 1306.3,-1210.47 1299.92,-1213.35"/>
</g>
<!-- BB26&#45;&gt;BB22 -->
<g id="edge35" class="edge">
<title>BB26&#45;&gt;BB22</title>
<path fill="none" stroke="black" d="M1351.56,-1221.59C1358.63,-1212.07 1366.37,-1201.67 1373.73,-1191.76"/>
<polygon fill="black" stroke="black" points="1376.66,-1193.69 1379.81,-1183.58 1371.04,-1189.52 1376.66,-1193.69"/>
</g>
<!-- BB27 -->
<g id="node28" class="node">
<title>BB27</title>
<ellipse fill="none" stroke="black" cx="1679.26" cy="-1147.01" rx="105.22" ry="37.45"/>
<text text-anchor="middle" x="1679.26" y="-1158.31" font-family="Times New Roman,serif" font-size="14.00">[13e..142)</text>
<text text-anchor="middle" x="1679.26" y="-1143.31" font-family="Times New Roman,serif" font-size="14.00">Normalized Count: 0.00</text>
<text text-anchor="middle" x="1679.26" y="-1128.31" font-family="Times New Roman,serif" font-size="14.00">Samples weight: 0.00</text>
</g>
<!-- BB26&#45;&gt;BB27 -->
<g id="edge36" class="edge">
<title>BB26&#45;&gt;BB27</title>
<path fill="none" stroke="black" d="M1403.82,-1232.78C1459.28,-1215.71 1533.64,-1192.83 1591.11,-1175.14"/>
<polygon fill="black" stroke="black" points="1592.39,-1178.41 1600.91,-1172.12 1590.33,-1171.72 1592.39,-1178.41"/>
</g>
<!-- BB29 -->
<g id="node30" class="node">
<title>BB29</title>
<ellipse fill="none" stroke="black" cx="1709.26" cy="-1036.06" rx="105.22" ry="37.45"/>
<text text-anchor="middle" x="1709.26" y="-1047.36" font-family="Times New Roman,serif" font-size="14.00">[18d..191)</text>
<text text-anchor="middle" x="1709.26" y="-1032.36" font-family="Times New Roman,serif" font-size="14.00">Normalized Count: 1.00</text>
<text text-anchor="middle" x="1709.26" y="-1017.36" font-family="Times New Roman,serif" font-size="14.00">Samples weight: 0.00</text>
</g>
<!-- BB27&#45;&gt;BB29 -->
<g id="edge37" class="edge">
<title>BB27&#45;&gt;BB29</title>
<path fill="none" stroke="black" d="M1689.33,-1109.43C1691.63,-1101.07 1694.11,-1092.09 1696.5,-1083.38"/>
<polygon fill="black" stroke="black" points="1699.88,-1084.3 1699.16,-1073.73 1693.13,-1082.44 1699.88,-1084.3"/>
</g>
<!-- BB28 -->
<g id="node29" class="node">
<title>BB28</title>
<ellipse fill="none" stroke="black" cx="1709.26" cy="-925.1" rx="105.22" ry="37.45"/>
<text text-anchor="middle" x="1709.26" y="-936.4" font-family="Times New Roman,serif" font-size="14.00">[142..18d)</text>
<text text-anchor="middle" x="1709.26" y="-921.4" font-family="Times New Roman,serif" font-size="14.00">Normalized Count: 1.00</text>
<text text-anchor="middle" x="1709.26" y="-906.4" font-family="Times New Roman,serif" font-size="14.00">Samples weight: 0.00</text>
</g>
<!-- BB28&#45;&gt;BB29 -->
<g id="edge38" class="edge">
<title>BB28&#45;&gt;BB29</title>
<path fill="none" stroke="black" d="M1715.68,-962.78C1715.99,-970.95 1716.08,-979.74 1715.95,-988.26"/>
<polygon fill="black" stroke="black" points="1712.44,-988.38 1715.67,-998.47 1719.44,-988.57 1712.44,-988.38"/>
</g>
<!-- BB29&#45;&gt;BB28 -->
<g id="edge39" class="edge">
<title>BB29&#45;&gt;BB28</title>
<path fill="none" stroke="black" d="M1702.84,-998.47C1702.53,-990.3 1702.43,-981.52 1702.57,-972.99"/>
<polygon fill="black" stroke="black" points="1706.07,-972.86 1702.84,-962.78 1699.07,-972.68 1706.07,-972.86"/>
</g>
<!-- BB30 -->
<g id="node31" class="node">
<title>BB30</title>
<ellipse fill="none" stroke="black" cx="1938.26" cy="-925.1" rx="105.22" ry="37.45"/>
<text text-anchor="middle" x="1938.26" y="-936.4" font-family="Times New Roman,serif" font-size="14.00">[191..195)</text>
<text text-anchor="middle" x="1938.26" y="-921.4" font-family="Times New Roman,serif" font-size="14.00">Normalized Count: 0.00</text>
<text text-anchor="middle" x="1938.26" y="-906.4" font-family="Times New Roman,serif" font-size="14.00">Samples weight: 0.00</text>
</g>
<!-- BB29&#45;&gt;BB30 -->
<g id="edge40" class="edge">
<title>BB29&#45;&gt;BB30</title>
<path fill="none" stroke="black" d="M1771.23,-1005.57C1800.76,-991.52 1836.24,-974.64 1866.89,-960.06"/>
<polygon fill="black" stroke="black" points="1868.71,-963.07 1876.24,-955.61 1865.7,-956.75 1868.71,-963.07"/>
</g>
<!-- BB35 -->
<g id="node36" class="node">
<title>BB35</title>
<ellipse fill="none" stroke="black" cx="1938.26" cy="-814.15" rx="105.22" ry="37.45"/>
<text text-anchor="middle" x="1938.26" y="-825.45" font-family="Times New Roman,serif" font-size="14.00">[1bc..1c0)</text>
<text text-anchor="middle" x="1938.26" y="-810.45" font-family="Times New Roman,serif" font-size="14.00">Normalized Count: 1.00</text>
<text text-anchor="middle" x="1938.26" y="-795.45" font-family="Times New Roman,serif" font-size="14.00">Samples weight: 0.00</text>
</g>
<!-- BB30&#45;&gt;BB35 -->
<g id="edge41" class="edge">
<title>BB30&#45;&gt;BB35</title>
<path fill="none" stroke="black" d="M1938.26,-887.52C1938.26,-879.35 1938.26,-870.57 1938.26,-862.04"/>
<polygon fill="black" stroke="black" points="1941.76,-861.82 1938.26,-851.82 1934.76,-861.82 1941.76,-861.82"/>
</g>
<!-- BB31 -->
<g id="node32" class="node">
<title>BB31</title>
<ellipse fill="none" stroke="black" cx="1938.26" cy="-703.2" rx="105.22" ry="37.45"/>
<text text-anchor="middle" x="1938.26" y="-714.5" font-family="Times New Roman,serif" font-size="14.00">[195..199)</text>
<text text-anchor="middle" x="1938.26" y="-699.5" font-family="Times New Roman,serif" font-size="14.00">Normalized Count: 0.00</text>
<text text-anchor="middle" x="1938.26" y="-684.5" font-family="Times New Roman,serif" font-size="14.00">Samples weight: 0.00</text>
</g>
<!-- BB33 -->
<g id="node34" class="node">
<title>BB33</title>
<ellipse fill="none" stroke="black" cx="1938.26" cy="-592.24" rx="110.12" ry="37.45"/>
<text text-anchor="middle" x="1938.26" y="-603.54" font-family="Times New Roman,serif" font-size="14.00">[1b0..1b8)</text>
<text text-anchor="middle" x="1938.26" y="-588.54" font-family="Times New Roman,serif" font-size="14.00">Normalized Count: 23.00</text>
<text text-anchor="middle" x="1938.26" y="-573.54" font-family="Times New Roman,serif" font-size="14.00">Samples weight: 0.02</text>
</g>
<!-- BB31&#45;&gt;BB33 -->
<g id="edge42" class="edge">
<title>BB31&#45;&gt;BB33</title>
<path fill="none" stroke="black" d="M1938.26,-665.61C1938.26,-657.44 1938.26,-648.66 1938.26,-640.13"/>
<polygon fill="black" stroke="black" points="1941.76,-639.92 1938.26,-629.92 1934.76,-639.92 1941.76,-639.92"/>
</g>
<!-- BB32 -->
<g id="node33" class="node">
<title>BB32</title>
<ellipse fill="none" stroke="black" cx="1938.26" cy="-481.29" rx="115.02" ry="37.45"/>
<text text-anchor="middle" x="1938.26" y="-492.59" font-family="Times New Roman,serif" font-size="14.00">[199..1b0)</text>
<text text-anchor="middle" x="1938.26" y="-477.59" font-family="Times New Roman,serif" font-size="14.00">Normalized Count: 211.00</text>
<text text-anchor="middle" x="1938.26" y="-462.59" font-family="Times New Roman,serif" font-size="14.00">Samples weight: 0.21</text>
</g>
<!-- BB32&#45;&gt;BB33 -->
<g id="edge43" class="edge">
<title>BB32&#45;&gt;BB33</title>
<path fill="none" stroke="black" d="M1944.68,-518.96C1944.99,-527.14 1945.08,-535.92 1944.95,-544.45"/>
<polygon fill="black" stroke="black" points="1941.44,-544.57 1944.67,-554.66 1948.44,-544.76 1941.44,-544.57"/>
</g>
<!-- BB33&#45;&gt;BB32 -->
<g id="edge44" class="edge">
<title>BB33&#45;&gt;BB32</title>
<path fill="none" stroke="black" d="M1931.84,-554.66C1931.53,-546.49 1931.43,-537.71 1931.57,-529.18"/>
<polygon fill="black" stroke="black" points="1935.07,-529.05 1931.84,-518.96 1928.07,-528.86 1935.07,-529.05"/>
</g>
<!-- BB34 -->
<g id="node35" class="node">
<title>BB34</title>
<ellipse fill="none" stroke="black" cx="1699.26" cy="-481.29" rx="105.22" ry="37.45"/>
<text text-anchor="middle" x="1699.26" y="-492.59" font-family="Times New Roman,serif" font-size="14.00">[1b8..1bc)</text>
<text text-anchor="middle" x="1699.26" y="-477.59" font-family="Times New Roman,serif" font-size="14.00">Normalized Count: 0.00</text>
<text text-anchor="middle" x="1699.26" y="-462.59" font-family="Times New Roman,serif" font-size="14.00">Samples weight: 0.00</text>
</g>
<!-- BB33&#45;&gt;BB34 -->
<g id="edge45" class="edge">
<title>BB33&#45;&gt;BB34</title>
<path fill="none" stroke="black" d="M1873.58,-561.76C1842.25,-547.48 1804.5,-530.27 1772.16,-515.52"/>
<polygon fill="black" stroke="black" points="1773.3,-512.2 1762.75,-511.23 1770.39,-518.56 1773.3,-512.2"/>
</g>
<!-- BB34&#45;&gt;BB35 -->
<g id="edge46" class="edge">
<title>BB34&#45;&gt;BB35</title>
<path fill="none" stroke="black" d="M1709.85,-518.93C1726.83,-572.6 1764.44,-673.5 1824.26,-740.67 1836.89,-754.86 1852.94,-767.33 1868.99,-777.74"/>
<polygon fill="black" stroke="black" points="1867.54,-780.96 1877.88,-783.31 1871.26,-775.03 1867.54,-780.96"/>
</g>
<!-- BB35&#45;&gt;BB31 -->
<g id="edge47" class="edge">
<title>BB35&#45;&gt;BB31</title>
<path fill="none" stroke="black" d="M1938.26,-776.57C1938.26,-768.39 1938.26,-759.61 1938.26,-751.09"/>
<polygon fill="black" stroke="black" points="1941.76,-750.87 1938.26,-740.87 1934.76,-750.87 1941.76,-750.87"/>
</g>
<!-- BB36 -->
<g id="node37" class="node">
<title>BB36</title>
<ellipse fill="none" stroke="black" cx="2174.26" cy="-703.2" rx="105.22" ry="37.45"/>
<text text-anchor="middle" x="2174.26" y="-714.5" font-family="Times New Roman,serif" font-size="14.00">[1c0..1c4)</text>
<text text-anchor="middle" x="2174.26" y="-699.5" font-family="Times New Roman,serif" font-size="14.00">Normalized Count: 0.00</text>
<text text-anchor="middle" x="2174.26" y="-684.5" font-family="Times New Roman,serif" font-size="14.00">Samples weight: 0.00</text>
</g>
<!-- BB35&#45;&gt;BB36 -->
<g id="edge48" class="edge">
<title>BB35&#45;&gt;BB36</title>
<path fill="none" stroke="black" d="M2001.5,-783.95C2032.44,-769.67 2069.84,-752.4 2101.92,-737.59"/>
<polygon fill="black" stroke="black" points="2103.64,-740.65 2111.25,-733.29 2100.7,-734.3 2103.64,-740.65"/>
</g>
<!-- BB38 -->
<g id="node39" class="node">
<title>BB38</title>
<ellipse fill="none" stroke="black" cx="2182.26" cy="-592.24" rx="105.22" ry="37.45"/>
<text text-anchor="middle" x="2182.26" y="-603.54" font-family="Times New Roman,serif" font-size="14.00">[1dc..1e4)</text>
<text text-anchor="middle" x="2182.26" y="-588.54" font-family="Times New Roman,serif" font-size="14.00">Normalized Count: 4.00</text>
<text text-anchor="middle" x="2182.26" y="-573.54" font-family="Times New Roman,serif" font-size="14.00">Samples weight: 0.00</text>
</g>
<!-- BB36&#45;&gt;BB38 -->
<g id="edge49" class="edge">
<title>BB36&#45;&gt;BB38</title>
<path fill="none" stroke="black" d="M2176.94,-665.61C2177.54,-657.44 2178.19,-648.66 2178.82,-640.13"/>
<polygon fill="black" stroke="black" points="2182.32,-640.14 2179.57,-629.92 2175.34,-639.63 2182.32,-640.14"/>
</g>
<!-- BB37 -->
<g id="node38" class="node">
<title>BB37</title>
<ellipse fill="none" stroke="black" cx="2182.26" cy="-481.29" rx="110.12" ry="37.45"/>
<text text-anchor="middle" x="2182.26" y="-492.59" font-family="Times New Roman,serif" font-size="14.00">[1c4..1dc)</text>
<text text-anchor="middle" x="2182.26" y="-477.59" font-family="Times New Roman,serif" font-size="14.00">Normalized Count: 20.00</text>
<text text-anchor="middle" x="2182.26" y="-462.59" font-family="Times New Roman,serif" font-size="14.00">Samples weight: 0.02</text>
</g>
<!-- BB37&#45;&gt;BB38 -->
<g id="edge50" class="edge">
<title>BB37&#45;&gt;BB38</title>
<path fill="none" stroke="black" d="M2188.68,-518.96C2188.99,-527.14 2189.08,-535.92 2188.95,-544.45"/>
<polygon fill="black" stroke="black" points="2185.44,-544.57 2188.67,-554.66 2192.44,-544.76 2185.44,-544.57"/>
</g>
<!-- BB38&#45;&gt;BB37 -->
<g id="edge51" class="edge">
<title>BB38&#45;&gt;BB37</title>
<path fill="none" stroke="black" d="M2175.84,-554.66C2175.53,-546.49 2175.43,-537.71 2175.57,-529.18"/>
<polygon fill="black" stroke="black" points="2179.07,-529.05 2175.84,-518.96 2172.07,-528.86 2179.07,-529.05"/>
</g>
<!-- BB39 -->
<g id="node40" class="node">
<title>BB39</title>
<ellipse fill="none" stroke="black" cx="2416.26" cy="-481.29" rx="105.22" ry="37.45"/>
<text text-anchor="middle" x="2416.26" y="-492.59" font-family="Times New Roman,serif" font-size="14.00">[1e4..1e8)</text>
<text text-anchor="middle" x="2416.26" y="-477.59" font-family="Times New Roman,serif" font-size="14.00">Normalized Count: 0.00</text>
<text text-anchor="middle" x="2416.26" y="-462.59" font-family="Times New Roman,serif" font-size="14.00">Samples weight: 0.00</text>
</g>
<!-- BB38&#45;&gt;BB39 -->
<g id="edge52" class="edge">
<title>BB38&#45;&gt;BB39</title>
<path fill="none" stroke="black" d="M2244.97,-562.05C2275.52,-547.82 2312.43,-530.63 2344.15,-515.87"/>
<polygon fill="black" stroke="black" points="2345.79,-518.96 2353.38,-511.57 2342.83,-512.62 2345.79,-518.96"/>
</g>
<!-- BB41 -->
<g id="node42" class="node">
<title>BB41</title>
<ellipse fill="none" stroke="black" cx="2416.26" cy="-370.34" rx="105.22" ry="37.45"/>
<text text-anchor="middle" x="2416.26" y="-381.64" font-family="Times New Roman,serif" font-size="14.00">[210..215)</text>
<text text-anchor="middle" x="2416.26" y="-366.64" font-family="Times New Roman,serif" font-size="14.00">Normalized Count: 2.00</text>
<text text-anchor="middle" x="2416.26" y="-351.64" font-family="Times New Roman,serif" font-size="14.00">Samples weight: 0.00</text>
</g>
<!-- BB39&#45;&gt;BB41 -->
<g id="edge53" class="edge">
<title>BB39&#45;&gt;BB41</title>
<path fill="none" stroke="black" d="M2416.26,-443.71C2416.26,-435.53 2416.26,-426.75 2416.26,-418.23"/>
<polygon fill="black" stroke="black" points="2419.76,-418.01 2416.26,-408.01 2412.76,-418.01 2419.76,-418.01"/>
</g>
<!-- BB40 -->
<g id="node41" class="node">
<title>BB40</title>
<ellipse fill="none" stroke="black" cx="2416.26" cy="-259.38" rx="105.22" ry="37.45"/>
<text text-anchor="middle" x="2416.26" y="-270.68" font-family="Times New Roman,serif" font-size="14.00">[1e8..210)</text>
<text text-anchor="middle" x="2416.26" y="-255.68" font-family="Times New Roman,serif" font-size="14.00">Normalized Count: 9.00</text>
<text text-anchor="middle" x="2416.26" y="-240.68" font-family="Times New Roman,serif" font-size="14.00">Samples weight: 0.01</text>
</g>
<!-- BB40&#45;&gt;BB41 -->
<g id="edge54" class="edge">
<title>BB40&#45;&gt;BB41</title>
<path fill="none" stroke="black" d="M2422.68,-297.06C2422.99,-305.23 2423.08,-314.02 2422.95,-322.54"/>
<polygon fill="black" stroke="black" points="2419.44,-322.66 2422.67,-332.75 2426.44,-322.85 2419.44,-322.66"/>
</g>
<!-- BB41&#45;&gt;BB40 -->
<g id="edge55" class="edge">
<title>BB41&#45;&gt;BB40</title>
<path fill="none" stroke="black" d="M2409.84,-332.75C2409.53,-324.58 2409.43,-315.8 2409.57,-307.27"/>
<polygon fill="black" stroke="black" points="2413.07,-307.15 2409.84,-297.06 2406.07,-306.96 2413.07,-307.15"/>
</g>
<!-- BB42 -->
<g id="node43" class="node">
<title>BB42</title>
<ellipse fill="none" stroke="black" cx="2645.26" cy="-259.38" rx="105.22" ry="37.45"/>
<text text-anchor="middle" x="2645.26" y="-270.68" font-family="Times New Roman,serif" font-size="14.00">[215..219)</text>
<text text-anchor="middle" x="2645.26" y="-255.68" font-family="Times New Roman,serif" font-size="14.00">Normalized Count: 1.00</text>
<text text-anchor="middle" x="2645.26" y="-240.68" font-family="Times New Roman,serif" font-size="14.00">Samples weight: 0.00</text>
</g>
<!-- BB41&#45;&gt;BB42 -->
<g id="edge56" class="edge">
<title>BB41&#45;&gt;BB42</title>
<path fill="none" stroke="black" d="M2478.23,-339.85C2507.76,-325.8 2543.24,-308.92 2573.89,-294.34"/>
<polygon fill="black" stroke="black" points="2575.71,-297.35 2583.24,-289.89 2572.7,-291.03 2575.71,-297.35"/>
</g>
<!-- BB44 -->
<g id="node45" class="node">
<title>BB44</title>
<ellipse fill="none" stroke="black" cx="2645.26" cy="-148.43" rx="105.22" ry="37.45"/>
<text text-anchor="middle" x="2645.26" y="-159.73" font-family="Times New Roman,serif" font-size="14.00">[24d..255)</text>
<text text-anchor="middle" x="2645.26" y="-144.73" font-family="Times New Roman,serif" font-size="14.00">Normalized Count: 4.00</text>
<text text-anchor="middle" x="2645.26" y="-129.73" font-family="Times New Roman,serif" font-size="14.00">Samples weight: 0.00</text>
</g>
<!-- BB42&#45;&gt;BB44 -->
<g id="edge57" class="edge">
<title>BB42&#45;&gt;BB44</title>
<path fill="none" stroke="black" d="M2645.26,-221.8C2645.26,-213.63 2645.26,-204.85 2645.26,-196.32"/>
<polygon fill="black" stroke="black" points="2648.76,-196.1 2645.26,-186.1 2641.76,-196.1 2648.76,-196.1"/>
</g>
<!-- BB43 -->
<g id="node44" class="node">
<title>BB43</title>
<ellipse fill="none" stroke="black" cx="2645.26" cy="-37.48" rx="110.12" ry="37.45"/>
<text text-anchor="middle" x="2645.26" y="-48.78" font-family="Times New Roman,serif" font-size="14.00">[219..24d)</text>
<text text-anchor="middle" x="2645.26" y="-33.78" font-family="Times New Roman,serif" font-size="14.00">Normalized Count: 24.00</text>
<text text-anchor="middle" x="2645.26" y="-18.78" font-family="Times New Roman,serif" font-size="14.00">Samples weight: 0.02</text>
</g>
<!-- BB43&#45;&gt;BB44 -->
<g id="edge58" class="edge">
<title>BB43&#45;&gt;BB44</title>
<path fill="none" stroke="black" d="M2651.68,-75.15C2651.99,-83.33 2652.08,-92.11 2651.95,-100.63"/>
<polygon fill="black" stroke="black" points="2648.44,-100.76 2651.67,-110.85 2655.44,-100.94 2648.44,-100.76"/>
</g>
<!-- BB44&#45;&gt;BB43 -->
<g id="edge59" class="edge">
<title>BB44&#45;&gt;BB43</title>
<path fill="none" stroke="black" d="M2638.84,-110.85C2638.53,-102.67 2638.43,-93.89 2638.57,-85.37"/>
<polygon fill="black" stroke="black" points="2642.07,-85.24 2638.84,-75.15 2635.07,-85.05 2642.07,-85.24"/>
</g>
<!-- BB45 -->
<g id="node46" class="node">
<title>BB45</title>
<ellipse fill="none" stroke="black" cx="2879.26" cy="-37.48" rx="105.22" ry="37.45"/>
<text text-anchor="middle" x="2879.26" y="-48.78" font-family="Times New Roman,serif" font-size="14.00">[255..256)</text>
<text text-anchor="middle" x="2879.26" y="-33.78" font-family="Times New Roman,serif" font-size="14.00">Normalized Count: 0.00</text>
<text text-anchor="middle" x="2879.26" y="-18.78" font-family="Times New Roman,serif" font-size="14.00">Samples weight: 0.00</text>
</g>
<!-- BB44&#45;&gt;BB45 -->
<g id="edge60" class="edge">
<title>BB44&#45;&gt;BB45</title>
<path fill="none" stroke="black" d="M2707.97,-118.23C2738.52,-104 2775.43,-86.82 2807.15,-72.05"/>
<polygon fill="black" stroke="black" points="2808.79,-75.15 2816.38,-67.75 2805.83,-68.8 2808.79,-75.15"/>
</g>
</g>
</svg>
