<?xml version="1.0" encoding="UTF-8" standalone="no"?>
<!DOCTYPE svg PUBLIC "-//W3C//DTD SVG 1.1//EN"
 "http://www.w3.org/Graphics/SVG/1.1/DTD/svg11.dtd">
<!-- Generated by graphviz version 2.47.0 (20210316.0004)
 -->
<!-- Title: G Pages: 1 -->
<svg width="267pt" height="331pt"
 viewBox="0.00 0.00 266.56 330.96" xmlns="http://www.w3.org/2000/svg" xmlns:xlink="http://www.w3.org/1999/xlink">
<g id="graph0" class="graph" transform="scale(1 1) rotate(0) translate(4 326.96)">
<title>G</title>
<polygon fill="white" stroke="transparent" points="-4,4 -4,-326.96 262.56,-326.96 262.56,4 -4,4"/>
<!-- BB0 -->
<g id="node1" class="node">
<title>BB0</title>
<ellipse fill="none" stroke="black" cx="146.13" cy="-296.09" rx="33.47" ry="26.74"/>
<text text-anchor="middle" x="146.13" y="-299.89" font-family="Times New Roman,serif" font-size="14.00">[0..4)</text>
<text text-anchor="middle" x="146.13" y="-284.89" font-family="Times New Roman,serif" font-size="14.00">0.02</text>
</g>
<!-- BB4 -->
<g id="node5" class="node">
<title>BB4</title>
<ellipse fill="none" stroke="black" cx="146.13" cy="-206.35" rx="40.11" ry="26.74"/>
<text text-anchor="middle" x="146.13" y="-210.15" font-family="Times New Roman,serif" font-size="14.00">[1f..2a)</text>
<text text-anchor="middle" x="146.13" y="-195.15" font-family="Times New Roman,serif" font-size="14.00">0.31</text>
</g>
<!-- BB0&#45;&gt;BB4 -->
<g id="edge1" class="edge">
<title>BB0&#45;&gt;BB4</title>
<path fill="none" stroke="black" d="M146.13,-268.77C146.13,-260.8 146.13,-251.91 146.13,-243.42"/>
<polygon fill="black" stroke="black" points="149.63,-243.35 146.13,-233.35 142.63,-243.35 149.63,-243.35"/>
</g>
<!-- BB1 -->
<g id="node2" class="node">
<title>BB1</title>
<ellipse fill="none" stroke="black" cx="81.13" cy="-116.61" rx="37.45" ry="26.74"/>
<text text-anchor="middle" x="81.13" y="-120.41" font-family="Times New Roman,serif" font-size="14.00">[4..10)</text>
<text text-anchor="middle" x="81.13" y="-105.41" font-family="Times New Roman,serif" font-size="14.00">0.29</text>
</g>
<!-- BB2 -->
<g id="node3" class="node">
<title>BB2</title>
<ellipse fill="none" stroke="black" cx="43.13" cy="-26.87" rx="43.27" ry="26.74"/>
<text text-anchor="middle" x="43.13" y="-30.67" font-family="Times New Roman,serif" font-size="14.00">[10..1b)</text>
<text text-anchor="middle" x="43.13" y="-15.67" font-family="Times New Roman,serif" font-size="14.00">0.07</text>
</g>
<!-- BB1&#45;&gt;BB2 -->
<g id="edge3" class="edge">
<title>BB1&#45;&gt;BB2</title>
<path fill="none" stroke="black" d="M70.35,-90.7C66.53,-81.89 62.16,-71.81 58.06,-62.34"/>
<polygon fill="black" stroke="black" points="61.27,-60.93 54.08,-53.15 54.84,-63.71 61.27,-60.93"/>
</g>
<!-- BB3 -->
<g id="node4" class="node">
<title>BB3</title>
<ellipse fill="none" stroke="black" cx="146.13" cy="-26.87" rx="41.94" ry="26.74"/>
<text text-anchor="middle" x="146.13" y="-30.67" font-family="Times New Roman,serif" font-size="14.00">[1b..1f)</text>
<text text-anchor="middle" x="146.13" y="-15.67" font-family="Times New Roman,serif" font-size="14.00">0.29</text>
</g>
<!-- BB1&#45;&gt;BB3 -->
<g id="edge2" class="edge">
<title>BB1&#45;&gt;BB3</title>
<path fill="none" stroke="black" d="M98.21,-92.56C105.7,-82.44 114.62,-70.41 122.72,-59.47"/>
<polygon fill="black" stroke="black" points="125.58,-61.5 128.72,-51.38 119.95,-57.33 125.58,-61.5"/>
</g>
<!-- BB2&#45;&gt;BB3 -->
<g id="edge4" class="edge">
<title>BB2&#45;&gt;BB3</title>
<path fill="none" stroke="black" d="M86.59,-26.87C89.07,-26.87 91.56,-26.87 94.04,-26.87"/>
<polygon fill="black" stroke="black" points="94.26,-30.37 104.26,-26.87 94.26,-23.37 94.26,-30.37"/>
</g>
<!-- BB3&#45;&gt;BB4 -->
<g id="edge5" class="edge">
<title>BB3&#45;&gt;BB4</title>
<path fill="none" stroke="black" d="M146.13,-53.88C146.13,-84.29 146.13,-134.84 146.13,-169.09"/>
<polygon fill="black" stroke="black" points="142.63,-169.16 146.13,-179.16 149.63,-169.16 142.63,-169.16"/>
</g>
<!-- BB4&#45;&gt;BB1 -->
<g id="edge6" class="edge">
<title>BB4&#45;&gt;BB1</title>
<path fill="none" stroke="black" d="M128.71,-181.84C121.16,-171.64 112.22,-159.57 104.13,-148.65"/>
<polygon fill="black" stroke="black" points="106.92,-146.53 98.15,-140.58 101.29,-150.7 106.92,-146.53"/>
</g>
<!-- BB5 -->
<g id="node6" class="node">
<title>BB5</title>
<ellipse fill="none" stroke="black" cx="216.13" cy="-116.61" rx="42.35" ry="26.74"/>
<text text-anchor="middle" x="216.13" y="-120.41" font-family="Times New Roman,serif" font-size="14.00">[2a..4b)</text>
<text text-anchor="middle" x="216.13" y="-105.41" font-family="Times New Roman,serif" font-size="14.00">0.02</text>
</g>
<!-- BB4&#45;&gt;BB5 -->
<g id="edge7" class="edge">
<title>BB4&#45;&gt;BB5</title>
<path fill="none" stroke="black" d="M164.53,-182.3C172.66,-172.1 182.35,-159.95 191.13,-148.95"/>
<polygon fill="black" stroke="black" points="194.12,-150.81 197.62,-140.81 188.65,-146.45 194.12,-150.81"/>
</g>
</g>
</svg>
