<?xml version="1.0" encoding="UTF-8" standalone="no"?>
<!DOCTYPE svg PUBLIC "-//W3C//DTD SVG 1.1//EN"
 "http://www.w3.org/Graphics/SVG/1.1/DTD/svg11.dtd">
<!-- Generated by graphviz version 2.47.0 (20210316.0004)
 -->
<!-- Title: G Pages: 1 -->
<svg width="438pt" height="501pt"
 viewBox="0.00 0.00 438.48 500.67" xmlns="http://www.w3.org/2000/svg" xmlns:xlink="http://www.w3.org/1999/xlink">
<g id="graph0" class="graph" transform="scale(1 1) rotate(0) translate(4 496.67)">
<title>G</title>
<polygon fill="white" stroke="transparent" points="-4,4 -4,-496.67 434.48,-496.67 434.48,4 -4,4"/>
<!-- BB0 -->
<g id="node1" class="node">
<title>BB0</title>
<ellipse fill="none" stroke="black" cx="215.24" cy="-444.58" rx="103.48" ry="48.17"/>
<text text-anchor="middle" x="215.24" y="-463.38" font-family="Times New Roman,serif" font-size="14.00">[0..10)</text>
<text text-anchor="middle" x="215.24" y="-448.38" font-family="Times New Roman,serif" font-size="14.00">Count: 86</text>
<text text-anchor="middle" x="215.24" y="-433.38" font-family="Times New Roman,serif" font-size="14.00">Normalized count: 1.00</text>
<text text-anchor="middle" x="215.24" y="-418.38" font-family="Times New Roman,serif" font-size="14.00">Samples weight: 0.23</text>
</g>
<!-- BB1 -->
<g id="node2" class="node">
<title>BB1</title>
<ellipse fill="none" stroke="black" cx="103.24" cy="-312.42" rx="103.48" ry="48.17"/>
<text text-anchor="middle" x="103.24" y="-331.22" font-family="Times New Roman,serif" font-size="14.00">[10..1f)</text>
<text text-anchor="middle" x="103.24" y="-316.22" font-family="Times New Roman,serif" font-size="14.00">Count: 42</text>
<text text-anchor="middle" x="103.24" y="-301.22" font-family="Times New Roman,serif" font-size="14.00">Normalized count: 0.49</text>
<text text-anchor="middle" x="103.24" y="-286.22" font-family="Times New Roman,serif" font-size="14.00">Samples weight: 0.11</text>
</g>
<!-- BB0&#45;&gt;BB1 -->
<g id="edge2" class="edge">
<title>BB0&#45;&gt;BB1</title>
<path fill="none" stroke="black" d="M177.32,-399.51C167.83,-388.49 157.57,-376.56 147.79,-365.2"/>
<polygon fill="black" stroke="black" points="150.29,-362.74 141.12,-357.44 144.99,-367.3 150.29,-362.74"/>
</g>
<!-- BB4 -->
<g id="node5" class="node">
<title>BB4</title>
<ellipse fill="none" stroke="black" cx="327.24" cy="-312.42" rx="103.48" ry="48.17"/>
<text text-anchor="middle" x="327.24" y="-331.22" font-family="Times New Roman,serif" font-size="14.00">[4a..4b)</text>
<text text-anchor="middle" x="327.24" y="-316.22" font-family="Times New Roman,serif" font-size="14.00">Count: 1</text>
<text text-anchor="middle" x="327.24" y="-301.22" font-family="Times New Roman,serif" font-size="14.00">Normalized count: 0.01</text>
<text text-anchor="middle" x="327.24" y="-286.22" font-family="Times New Roman,serif" font-size="14.00">Samples weight: 0.00</text>
</g>
<!-- BB0&#45;&gt;BB4 -->
<g id="edge1" class="edge">
<title>BB0&#45;&gt;BB4</title>
<path fill="none" stroke="black" d="M253.16,-399.51C262.64,-388.49 272.91,-376.56 282.68,-365.2"/>
<polygon fill="black" stroke="black" points="285.49,-367.3 289.36,-357.44 280.18,-362.74 285.49,-367.3"/>
</g>
<!-- BB3 -->
<g id="node4" class="node">
<title>BB3</title>
<ellipse fill="none" stroke="black" cx="215.24" cy="-180.25" rx="103.48" ry="48.17"/>
<text text-anchor="middle" x="215.24" y="-199.05" font-family="Times New Roman,serif" font-size="14.00">[46..4a)</text>
<text text-anchor="middle" x="215.24" y="-184.05" font-family="Times New Roman,serif" font-size="14.00">Count: 38</text>
<text text-anchor="middle" x="215.24" y="-169.05" font-family="Times New Roman,serif" font-size="14.00">Normalized count: 0.44</text>
<text text-anchor="middle" x="215.24" y="-154.05" font-family="Times New Roman,serif" font-size="14.00">Samples weight: 0.10</text>
</g>
<!-- BB1&#45;&gt;BB3 -->
<g id="edge3" class="edge">
<title>BB1&#45;&gt;BB3</title>
<path fill="none" stroke="black" d="M141.16,-267.35C150.64,-256.32 160.91,-244.39 170.68,-233.03"/>
<polygon fill="black" stroke="black" points="173.49,-235.14 177.36,-225.27 168.18,-230.57 173.49,-235.14"/>
</g>
<!-- BB2 -->
<g id="node3" class="node">
<title>BB2</title>
<ellipse fill="none" stroke="black" cx="215.24" cy="-48.08" rx="103.48" ry="48.17"/>
<text text-anchor="middle" x="215.24" y="-66.88" font-family="Times New Roman,serif" font-size="14.00">[1f..46)</text>
<text text-anchor="middle" x="215.24" y="-51.88" font-family="Times New Roman,serif" font-size="14.00">Count: 202</text>
<text text-anchor="middle" x="215.24" y="-36.88" font-family="Times New Roman,serif" font-size="14.00">Normalized count: 2.35</text>
<text text-anchor="middle" x="215.24" y="-21.88" font-family="Times New Roman,serif" font-size="14.00">Samples weight: 0.55</text>
</g>
<!-- BB2&#45;&gt;BB3 -->
<g id="edge4" class="edge">
<title>BB2&#45;&gt;BB3</title>
<path fill="none" stroke="black" d="M221.76,-96.44C221.98,-104.74 222.04,-113.45 221.94,-121.98"/>
<polygon fill="black" stroke="black" points="218.44,-122.19 221.75,-132.26 225.44,-122.32 218.44,-122.19"/>
</g>
<!-- BB3&#45;&gt;BB2 -->
<g id="edge5" class="edge">
<title>BB3&#45;&gt;BB2</title>
<path fill="none" stroke="black" d="M208.72,-132.26C208.5,-123.88 208.43,-115.07 208.53,-106.45"/>
<polygon fill="black" stroke="black" points="212.03,-106.51 208.72,-96.44 205.03,-106.38 212.03,-106.51"/>
</g>
<!-- BB3&#45;&gt;BB4 -->
<g id="edge6" class="edge">
<title>BB3&#45;&gt;BB4</title>
<path fill="none" stroke="black" d="M253.12,-225.27C262.6,-236.3 272.86,-248.22 282.64,-259.59"/>
<polygon fill="black" stroke="black" points="280.14,-262.05 289.32,-267.35 285.45,-257.48 280.14,-262.05"/>
</g>
</g>
</svg>
