<?xml version="1.0" encoding="UTF-8" standalone="no"?>
<!DOCTYPE svg PUBLIC "-//W3C//DTD SVG 1.1//EN"
 "http://www.w3.org/Graphics/SVG/1.1/DTD/svg11.dtd">
<!-- Generated by graphviz version 2.47.0 (20210316.0004)
 -->
<!-- Title: G Pages: 1 -->
<svg width="1165pt" height="860pt"
 viewBox="0.00 0.00 1164.67 859.63" xmlns="http://www.w3.org/2000/svg" xmlns:xlink="http://www.w3.org/1999/xlink">
<g id="graph0" class="graph" transform="scale(1 1) rotate(0) translate(4 855.63)">
<title>G</title>
<polygon fill="white" stroke="transparent" points="-4,4 -4,-855.63 1160.67,-855.63 1160.67,4 -4,4"/>
<!-- BB0 -->
<g id="node1" class="node">
<title>BB0</title>
<ellipse fill="none" stroke="black" cx="386.31" cy="-814.15" rx="105.22" ry="37.45"/>
<text text-anchor="middle" x="386.31" y="-825.45" font-family="Times New Roman,serif" font-size="14.00">[0..4)</text>
<text text-anchor="middle" x="386.31" y="-810.45" font-family="Times New Roman,serif" font-size="14.00">Normalized Count: 1.00</text>
<text text-anchor="middle" x="386.31" y="-795.45" font-family="Times New Roman,serif" font-size="14.00">Samples weight: 0.00</text>
</g>
<!-- BB6 -->
<g id="node7" class="node">
<title>BB6</title>
<ellipse fill="none" stroke="black" cx="386.31" cy="-703.2" rx="105.22" ry="37.45"/>
<text text-anchor="middle" x="386.31" y="-714.5" font-family="Times New Roman,serif" font-size="14.00">[2e..32)</text>
<text text-anchor="middle" x="386.31" y="-699.5" font-family="Times New Roman,serif" font-size="14.00">Normalized Count: 0.00</text>
<text text-anchor="middle" x="386.31" y="-684.5" font-family="Times New Roman,serif" font-size="14.00">Samples weight: 0.00</text>
</g>
<!-- BB0&#45;&gt;BB6 -->
<g id="edge1" class="edge">
<title>BB0&#45;&gt;BB6</title>
<path fill="none" stroke="black" d="M386.31,-776.57C386.31,-768.39 386.31,-759.61 386.31,-751.09"/>
<polygon fill="black" stroke="black" points="389.81,-750.87 386.31,-740.87 382.81,-750.87 389.81,-750.87"/>
</g>
<!-- BB1 -->
<g id="node2" class="node">
<title>BB1</title>
<ellipse fill="none" stroke="black" cx="251.31" cy="-592.24" rx="105.22" ry="37.45"/>
<text text-anchor="middle" x="251.31" y="-603.54" font-family="Times New Roman,serif" font-size="14.00">[4..10)</text>
<text text-anchor="middle" x="251.31" y="-588.54" font-family="Times New Roman,serif" font-size="14.00">Normalized Count: 5.00</text>
<text text-anchor="middle" x="251.31" y="-573.54" font-family="Times New Roman,serif" font-size="14.00">Samples weight: 0.01</text>
</g>
<!-- BB4 -->
<g id="node5" class="node">
<title>BB4</title>
<ellipse fill="none" stroke="black" cx="248.31" cy="-481.29" rx="110.12" ry="37.45"/>
<text text-anchor="middle" x="248.31" y="-492.59" font-family="Times New Roman,serif" font-size="14.00">[22..26)</text>
<text text-anchor="middle" x="248.31" y="-477.59" font-family="Times New Roman,serif" font-size="14.00">Normalized Count: 12.00</text>
<text text-anchor="middle" x="248.31" y="-462.59" font-family="Times New Roman,serif" font-size="14.00">Samples weight: 0.01</text>
</g>
<!-- BB1&#45;&gt;BB4 -->
<g id="edge2" class="edge">
<title>BB1&#45;&gt;BB4</title>
<path fill="none" stroke="black" d="M250.3,-554.66C250.08,-546.49 249.83,-537.71 249.6,-529.18"/>
<polygon fill="black" stroke="black" points="253.09,-528.86 249.32,-518.96 246.1,-529.05 253.09,-528.86"/>
</g>
<!-- BB2 -->
<g id="node3" class="node">
<title>BB2</title>
<ellipse fill="none" stroke="black" cx="110.31" cy="-370.34" rx="110.12" ry="37.45"/>
<text text-anchor="middle" x="110.31" y="-381.64" font-family="Times New Roman,serif" font-size="14.00">[10..16)</text>
<text text-anchor="middle" x="110.31" y="-366.64" font-family="Times New Roman,serif" font-size="14.00">Normalized Count: 16.00</text>
<text text-anchor="middle" x="110.31" y="-351.64" font-family="Times New Roman,serif" font-size="14.00">Samples weight: 0.02</text>
</g>
<!-- BB3 -->
<g id="node4" class="node">
<title>BB3</title>
<ellipse fill="none" stroke="black" cx="228.31" cy="-259.38" rx="105.22" ry="37.45"/>
<text text-anchor="middle" x="228.31" y="-270.68" font-family="Times New Roman,serif" font-size="14.00">[16..22)</text>
<text text-anchor="middle" x="228.31" y="-255.68" font-family="Times New Roman,serif" font-size="14.00">Normalized Count: 0.00</text>
<text text-anchor="middle" x="228.31" y="-240.68" font-family="Times New Roman,serif" font-size="14.00">Samples weight: 0.00</text>
</g>
<!-- BB2&#45;&gt;BB3 -->
<g id="edge4" class="edge">
<title>BB2&#45;&gt;BB3</title>
<path fill="none" stroke="black" d="M147.64,-334.86C159.05,-324.33 171.72,-312.63 183.57,-301.69"/>
<polygon fill="black" stroke="black" points="186.24,-303.99 191.22,-294.63 181.49,-298.84 186.24,-303.99"/>
</g>
<!-- BB5 -->
<g id="node6" class="node">
<title>BB5</title>
<ellipse fill="none" stroke="black" cx="381.31" cy="-370.34" rx="105.22" ry="37.45"/>
<text text-anchor="middle" x="381.31" y="-381.64" font-family="Times New Roman,serif" font-size="14.00">[26..2e)</text>
<text text-anchor="middle" x="381.31" y="-366.64" font-family="Times New Roman,serif" font-size="14.00">Normalized Count: 4.00</text>
<text text-anchor="middle" x="381.31" y="-351.64" font-family="Times New Roman,serif" font-size="14.00">Samples weight: 0.00</text>
</g>
<!-- BB2&#45;&gt;BB5 -->
<g id="edge3" class="edge">
<title>BB2&#45;&gt;BB5</title>
<path fill="none" stroke="black" d="M220.67,-370.34C235.62,-370.34 250.58,-370.34 265.53,-370.34"/>
<polygon fill="black" stroke="black" points="265.89,-373.84 275.89,-370.34 265.89,-366.84 265.89,-373.84"/>
</g>
<!-- BB3&#45;&gt;BB4 -->
<g id="edge5" class="edge">
<title>BB3&#45;&gt;BB4</title>
<path fill="none" stroke="black" d="M231.63,-296.94C235.04,-334.39 240.35,-392.73 244.05,-433.51"/>
<polygon fill="black" stroke="black" points="240.57,-433.84 244.96,-443.48 247.54,-433.21 240.57,-433.84"/>
</g>
<!-- BB4&#45;&gt;BB2 -->
<g id="edge6" class="edge">
<title>BB4&#45;&gt;BB2</title>
<path fill="none" stroke="black" d="M205.4,-446.41C191.38,-435.35 175.68,-422.95 161.13,-411.46"/>
<polygon fill="black" stroke="black" points="163.21,-408.64 153.19,-405.19 158.87,-414.14 163.21,-408.64"/>
</g>
<!-- BB4&#45;&gt;BB5 -->
<g id="edge7" class="edge">
<title>BB4&#45;&gt;BB5</title>
<path fill="none" stroke="black" d="M289.66,-446.41C303.05,-435.45 318.03,-423.18 331.94,-411.78"/>
<polygon fill="black" stroke="black" points="334.46,-414.24 339.98,-405.19 330.03,-408.82 334.46,-414.24"/>
</g>
<!-- BB5&#45;&gt;BB6 -->
<g id="edge8" class="edge">
<title>BB5&#45;&gt;BB6</title>
<path fill="none" stroke="black" d="M381.86,-407.92C382.77,-468.31 384.59,-588.78 385.6,-655.33"/>
<polygon fill="black" stroke="black" points="382.1,-655.58 385.75,-665.52 389.1,-655.47 382.1,-655.58"/>
</g>
<!-- BB6&#45;&gt;BB1 -->
<g id="edge9" class="edge">
<title>BB6&#45;&gt;BB1</title>
<path fill="none" stroke="black" d="M344.7,-668.62C330.84,-657.43 315.27,-644.86 300.87,-633.24"/>
<polygon fill="black" stroke="black" points="302.99,-630.46 293.01,-626.9 298.59,-635.9 302.99,-630.46"/>
</g>
<!-- BB7 -->
<g id="node8" class="node">
<title>BB7</title>
<ellipse fill="none" stroke="black" cx="567.31" cy="-592.24" rx="105.22" ry="37.45"/>
<text text-anchor="middle" x="567.31" y="-603.54" font-family="Times New Roman,serif" font-size="14.00">[32..34)</text>
<text text-anchor="middle" x="567.31" y="-588.54" font-family="Times New Roman,serif" font-size="14.00">Normalized Count: 0.00</text>
<text text-anchor="middle" x="567.31" y="-573.54" font-family="Times New Roman,serif" font-size="14.00">Samples weight: 0.00</text>
</g>
<!-- BB6&#45;&gt;BB7 -->
<g id="edge10" class="edge">
<title>BB6&#45;&gt;BB7</title>
<path fill="none" stroke="black" d="M439.15,-670.39C460.06,-657.8 484.23,-643.25 505.91,-630.2"/>
<polygon fill="black" stroke="black" points="507.95,-633.06 514.72,-624.9 504.34,-627.06 507.95,-633.06"/>
</g>
<!-- BB8 -->
<g id="node9" class="node">
<title>BB8</title>
<ellipse fill="none" stroke="black" cx="615.31" cy="-481.29" rx="110.12" ry="37.45"/>
<text text-anchor="middle" x="615.31" y="-492.59" font-family="Times New Roman,serif" font-size="14.00">[34..44)</text>
<text text-anchor="middle" x="615.31" y="-477.59" font-family="Times New Roman,serif" font-size="14.00">Normalized Count: 44.00</text>
<text text-anchor="middle" x="615.31" y="-462.59" font-family="Times New Roman,serif" font-size="14.00">Samples weight: 0.05</text>
</g>
<!-- BB7&#45;&gt;BB8 -->
<g id="edge11" class="edge">
<title>BB7&#45;&gt;BB8</title>
<path fill="none" stroke="black" d="M583.29,-554.96C587.14,-546.23 591.29,-536.8 595.3,-527.71"/>
<polygon fill="black" stroke="black" points="598.57,-528.97 599.4,-518.41 592.16,-526.15 598.57,-528.97"/>
</g>
<!-- BB14 -->
<g id="node15" class="node">
<title>BB14</title>
<ellipse fill="none" stroke="black" cx="615.31" cy="-370.34" rx="110.12" ry="37.45"/>
<text text-anchor="middle" x="615.31" y="-381.64" font-family="Times New Roman,serif" font-size="14.00">[6a..6e)</text>
<text text-anchor="middle" x="615.31" y="-366.64" font-family="Times New Roman,serif" font-size="14.00">Normalized Count: 20.00</text>
<text text-anchor="middle" x="615.31" y="-351.64" font-family="Times New Roman,serif" font-size="14.00">Samples weight: 0.02</text>
</g>
<!-- BB8&#45;&gt;BB14 -->
<g id="edge12" class="edge">
<title>BB8&#45;&gt;BB14</title>
<path fill="none" stroke="black" d="M615.31,-443.71C615.31,-435.53 615.31,-426.75 615.31,-418.23"/>
<polygon fill="black" stroke="black" points="618.81,-418.01 615.31,-408.01 611.81,-418.01 618.81,-418.01"/>
</g>
<!-- BB9 -->
<g id="node10" class="node">
<title>BB9</title>
<ellipse fill="none" stroke="black" cx="573.31" cy="-259.38" rx="110.12" ry="37.45"/>
<text text-anchor="middle" x="573.31" y="-270.68" font-family="Times New Roman,serif" font-size="14.00">[44..4a)</text>
<text text-anchor="middle" x="573.31" y="-255.68" font-family="Times New Roman,serif" font-size="14.00">Normalized Count: 34.00</text>
<text text-anchor="middle" x="573.31" y="-240.68" font-family="Times New Roman,serif" font-size="14.00">Samples weight: 0.04</text>
</g>
<!-- BB10 -->
<g id="node11" class="node">
<title>BB10</title>
<ellipse fill="none" stroke="black" cx="563.31" cy="-148.43" rx="115.02" ry="37.45"/>
<text text-anchor="middle" x="563.31" y="-159.73" font-family="Times New Roman,serif" font-size="14.00">[4a..54)</text>
<text text-anchor="middle" x="563.31" y="-144.73" font-family="Times New Roman,serif" font-size="14.00">Normalized Count: 220.00</text>
<text text-anchor="middle" x="563.31" y="-129.73" font-family="Times New Roman,serif" font-size="14.00">Samples weight: 0.24</text>
</g>
<!-- BB9&#45;&gt;BB10 -->
<g id="edge14" class="edge">
<title>BB9&#45;&gt;BB10</title>
<path fill="none" stroke="black" d="M569.95,-221.8C569.2,-213.63 568.39,-204.85 567.61,-196.32"/>
<polygon fill="black" stroke="black" points="571.07,-195.74 566.67,-186.1 564.1,-196.38 571.07,-195.74"/>
</g>
<!-- BB12 -->
<g id="node13" class="node">
<title>BB12</title>
<ellipse fill="none" stroke="black" cx="812.31" cy="-148.43" rx="115.02" ry="37.45"/>
<text text-anchor="middle" x="812.31" y="-159.73" font-family="Times New Roman,serif" font-size="14.00">[58..5e)</text>
<text text-anchor="middle" x="812.31" y="-144.73" font-family="Times New Roman,serif" font-size="14.00">Normalized Count: 234.00</text>
<text text-anchor="middle" x="812.31" y="-129.73" font-family="Times New Roman,serif" font-size="14.00">Samples weight: 0.26</text>
</g>
<!-- BB9&#45;&gt;BB12 -->
<g id="edge13" class="edge">
<title>BB9&#45;&gt;BB12</title>
<path fill="none" stroke="black" d="M637.99,-228.9C668.69,-214.9 705.55,-198.1 737.46,-183.55"/>
<polygon fill="black" stroke="black" points="739.1,-186.65 746.75,-179.32 736.2,-180.28 739.1,-186.65"/>
</g>
<!-- BB11 -->
<g id="node12" class="node">
<title>BB11</title>
<ellipse fill="none" stroke="black" cx="776.31" cy="-37.48" rx="115.02" ry="37.45"/>
<text text-anchor="middle" x="776.31" y="-48.78" font-family="Times New Roman,serif" font-size="14.00">[54..58)</text>
<text text-anchor="middle" x="776.31" y="-33.78" font-family="Times New Roman,serif" font-size="14.00">Normalized Count: 106.00</text>
<text text-anchor="middle" x="776.31" y="-18.78" font-family="Times New Roman,serif" font-size="14.00">Samples weight: 0.12</text>
</g>
<!-- BB10&#45;&gt;BB11 -->
<g id="edge16" class="edge">
<title>BB10&#45;&gt;BB11</title>
<path fill="none" stroke="black" d="M623.78,-116.5C649.63,-103.27 679.97,-87.75 706.76,-74.05"/>
<polygon fill="black" stroke="black" points="708.38,-77.15 715.69,-69.48 705.19,-70.92 708.38,-77.15"/>
</g>
<!-- BB10&#45;&gt;BB12 -->
<g id="edge15" class="edge">
<title>BB10&#45;&gt;BB12</title>
<path fill="none" stroke="black" d="M678.57,-148.43C681.23,-148.43 683.9,-148.43 686.57,-148.43"/>
<polygon fill="black" stroke="black" points="686.85,-151.93 696.85,-148.43 686.85,-144.93 686.85,-151.93"/>
</g>
<!-- BB11&#45;&gt;BB12 -->
<g id="edge17" class="edge">
<title>BB11&#45;&gt;BB12</title>
<path fill="none" stroke="black" d="M788.37,-74.97C791.16,-83.44 794.18,-92.56 797.09,-101.37"/>
<polygon fill="black" stroke="black" points="793.86,-102.75 800.32,-111.15 800.51,-100.56 793.86,-102.75"/>
</g>
<!-- BB13 -->
<g id="node14" class="node">
<title>BB13</title>
<ellipse fill="none" stroke="black" cx="491.31" cy="-37.48" rx="115.02" ry="37.45"/>
<text text-anchor="middle" x="491.31" y="-48.78" font-family="Times New Roman,serif" font-size="14.00">[5e..6a)</text>
<text text-anchor="middle" x="491.31" y="-33.78" font-family="Times New Roman,serif" font-size="14.00">Normalized Count: 176.00</text>
<text text-anchor="middle" x="491.31" y="-18.78" font-family="Times New Roman,serif" font-size="14.00">Samples weight: 0.19</text>
</g>
<!-- BB12&#45;&gt;BB13 -->
<g id="edge19" class="edge">
<title>BB12&#45;&gt;BB13</title>
<path fill="none" stroke="black" d="M733.78,-120.78C686.98,-104.89 627.45,-84.69 579.09,-68.27"/>
<polygon fill="black" stroke="black" points="580.17,-64.94 569.58,-65.04 577.92,-71.57 580.17,-64.94"/>
</g>
<!-- BB15 -->
<g id="node16" class="node">
<title>BB15</title>
<ellipse fill="none" stroke="black" cx="812.31" cy="-259.38" rx="110.12" ry="37.45"/>
<text text-anchor="middle" x="812.31" y="-270.68" font-family="Times New Roman,serif" font-size="14.00">[6e..7a)</text>
<text text-anchor="middle" x="812.31" y="-255.68" font-family="Times New Roman,serif" font-size="14.00">Normalized Count: 37.00</text>
<text text-anchor="middle" x="812.31" y="-240.68" font-family="Times New Roman,serif" font-size="14.00">Samples weight: 0.04</text>
</g>
<!-- BB12&#45;&gt;BB15 -->
<g id="edge18" class="edge">
<title>BB12&#45;&gt;BB15</title>
<path fill="none" stroke="black" d="M812.31,-186.1C812.31,-194.28 812.31,-203.06 812.31,-211.59"/>
<polygon fill="black" stroke="black" points="808.81,-211.8 812.31,-221.8 815.81,-211.8 808.81,-211.8"/>
</g>
<!-- BB13&#45;&gt;BB14 -->
<g id="edge20" class="edge">
<title>BB13&#45;&gt;BB14</title>
<path fill="none" stroke="black" d="M459.45,-73.64C451.27,-84.79 443.58,-97.68 439.31,-110.95 413.93,-189.87 404.73,-230.43 454.31,-296.86 470.08,-317.99 493.42,-333.1 517.48,-343.86"/>
<polygon fill="black" stroke="black" points="516.14,-347.09 526.72,-347.77 518.87,-340.65 516.14,-347.09"/>
</g>
<!-- BB14&#45;&gt;BB9 -->
<g id="edge21" class="edge">
<title>BB14&#45;&gt;BB9</title>
<path fill="none" stroke="black" d="M601.32,-333.06C598.03,-324.51 594.47,-315.29 591.04,-306.38"/>
<polygon fill="black" stroke="black" points="594.24,-304.95 587.38,-296.88 587.71,-307.47 594.24,-304.95"/>
</g>
<!-- BB14&#45;&gt;BB15 -->
<g id="edge22" class="edge">
<title>BB14&#45;&gt;BB15</title>
<path fill="none" stroke="black" d="M671.76,-338.11C695.25,-325.12 722.67,-309.96 747.03,-296.49"/>
<polygon fill="black" stroke="black" points="748.79,-299.51 755.85,-291.61 745.4,-293.39 748.79,-299.51"/>
</g>
<!-- BB15&#45;&gt;BB8 -->
<g id="edge23" class="edge">
<title>BB15&#45;&gt;BB8</title>
<path fill="none" stroke="black" d="M799.46,-296.8C786.75,-328.89 764.78,-375.45 734.31,-407.81 720.82,-422.14 703.9,-434.67 687.08,-445.12"/>
<polygon fill="black" stroke="black" points="685.08,-442.23 678.31,-450.38 688.69,-448.23 685.08,-442.23"/>
</g>
<!-- BB16 -->
<g id="node17" class="node">
<title>BB16</title>
<ellipse fill="none" stroke="black" cx="1051.31" cy="-148.43" rx="105.22" ry="37.45"/>
<text text-anchor="middle" x="1051.31" y="-159.73" font-family="Times New Roman,serif" font-size="14.00">[7a..7b)</text>
<text text-anchor="middle" x="1051.31" y="-144.73" font-family="Times New Roman,serif" font-size="14.00">Normalized Count: 0.00</text>
<text text-anchor="middle" x="1051.31" y="-129.73" font-family="Times New Roman,serif" font-size="14.00">Samples weight: 0.00</text>
</g>
<!-- BB15&#45;&gt;BB16 -->
<g id="edge24" class="edge">
<title>BB15&#45;&gt;BB16</title>
<path fill="none" stroke="black" d="M876.99,-228.9C908.32,-214.62 946.06,-197.41 978.41,-182.66"/>
<polygon fill="black" stroke="black" points="980.17,-185.7 987.82,-178.37 977.27,-179.34 980.17,-185.7"/>
</g>
</g>
</svg>
