<?xml version="1.0" encoding="UTF-8" standalone="no"?>
<!DOCTYPE svg PUBLIC "-//W3C//DTD SVG 1.1//EN"
 "http://www.w3.org/Graphics/SVG/1.1/DTD/svg11.dtd">
<!-- Generated by graphviz version 2.47.0 (20210316.0004)
 -->
<!-- Title: G Pages: 1 -->
<svg width="1120pt" height="1161pt"
 viewBox="0.00 0.00 1120.48 1161.50" xmlns="http://www.w3.org/2000/svg" xmlns:xlink="http://www.w3.org/1999/xlink">
<g id="graph0" class="graph" transform="scale(1 1) rotate(0) translate(4 1157.5)">
<title>G</title>
<polygon fill="white" stroke="transparent" points="-4,4 -4,-1157.5 1116.48,-1157.5 1116.48,4 -4,4"/>
<!-- BB0 -->
<g id="node1" class="node">
<title>BB0</title>
<ellipse fill="none" stroke="black" cx="168.24" cy="-1105.42" rx="103.48" ry="48.17"/>
<text text-anchor="middle" x="168.24" y="-1124.22" font-family="Times New Roman,serif" font-size="14.00">[0..f)</text>
<text text-anchor="middle" x="168.24" y="-1109.22" font-family="Times New Roman,serif" font-size="14.00">Count: 2</text>
<text text-anchor="middle" x="168.24" y="-1094.22" font-family="Times New Roman,serif" font-size="14.00">Normalized count: 1.00</text>
<text text-anchor="middle" x="168.24" y="-1079.22" font-family="Times New Roman,serif" font-size="14.00">Samples weight: 0.02</text>
</g>
<!-- BB3 -->
<g id="node4" class="node">
<title>BB3</title>
<ellipse fill="none" stroke="black" cx="168.24" cy="-973.25" rx="103.48" ry="48.17"/>
<text text-anchor="middle" x="168.24" y="-992.05" font-family="Times New Roman,serif" font-size="14.00">[2e..38)</text>
<text text-anchor="middle" x="168.24" y="-977.05" font-family="Times New Roman,serif" font-size="14.00">Count: 16</text>
<text text-anchor="middle" x="168.24" y="-962.05" font-family="Times New Roman,serif" font-size="14.00">Normalized count: 8.00</text>
<text text-anchor="middle" x="168.24" y="-947.05" font-family="Times New Roman,serif" font-size="14.00">Samples weight: 0.15</text>
</g>
<!-- BB0&#45;&gt;BB3 -->
<g id="edge1" class="edge">
<title>BB0&#45;&gt;BB3</title>
<path fill="none" stroke="black" d="M168.24,-1057.05C168.24,-1048.79 168.24,-1040.1 168.24,-1031.6"/>
<polygon fill="black" stroke="black" points="171.74,-1031.36 168.24,-1021.36 164.74,-1031.36 171.74,-1031.36"/>
</g>
<!-- BB1 -->
<g id="node2" class="node">
<title>BB1</title>
<ellipse fill="none" stroke="black" cx="103.24" cy="-841.08" rx="103.48" ry="48.17"/>
<text text-anchor="middle" x="103.24" y="-859.88" font-family="Times New Roman,serif" font-size="14.00">[f..1a)</text>
<text text-anchor="middle" x="103.24" y="-844.88" font-family="Times New Roman,serif" font-size="14.00">Count: 16</text>
<text text-anchor="middle" x="103.24" y="-829.88" font-family="Times New Roman,serif" font-size="14.00">Normalized count: 8.00</text>
<text text-anchor="middle" x="103.24" y="-814.88" font-family="Times New Roman,serif" font-size="14.00">Samples weight: 0.15</text>
</g>
<!-- BB2 -->
<g id="node3" class="node">
<title>BB2</title>
<ellipse fill="none" stroke="black" cx="141.24" cy="-708.92" rx="103.48" ry="48.17"/>
<text text-anchor="middle" x="141.24" y="-727.72" font-family="Times New Roman,serif" font-size="14.00">[1a..2e)</text>
<text text-anchor="middle" x="141.24" y="-712.72" font-family="Times New Roman,serif" font-size="14.00">Count: 2</text>
<text text-anchor="middle" x="141.24" y="-697.72" font-family="Times New Roman,serif" font-size="14.00">Normalized count: 1.00</text>
<text text-anchor="middle" x="141.24" y="-682.72" font-family="Times New Roman,serif" font-size="14.00">Samples weight: 0.02</text>
</g>
<!-- BB1&#45;&gt;BB2 -->
<g id="edge3" class="edge">
<title>BB1&#45;&gt;BB2</title>
<path fill="none" stroke="black" d="M116.96,-793.09C119.46,-784.52 122.09,-775.49 124.67,-766.67"/>
<polygon fill="black" stroke="black" points="128.1,-767.42 127.54,-756.84 121.38,-765.46 128.1,-767.42"/>
</g>
<!-- BB1&#45;&gt;BB3 -->
<g id="edge2" class="edge">
<title>BB1&#45;&gt;BB3</title>
<path fill="none" stroke="black" d="M132.39,-887.51C137.33,-896.86 142.37,-906.8 147.07,-916.47"/>
<polygon fill="black" stroke="black" points="143.98,-918.12 151.46,-925.62 150.29,-915.09 143.98,-918.12"/>
</g>
<!-- BB2&#45;&gt;BB3 -->
<g id="edge5" class="edge">
<title>BB2&#45;&gt;BB3</title>
<path fill="none" stroke="black" d="M189.13,-751.93C199.75,-764.02 209.53,-778.02 215.24,-793 230.45,-832.94 226.12,-847.83 215.24,-889.17 212.67,-898.9 208.68,-908.7 204.08,-917.97"/>
<polygon fill="black" stroke="black" points="200.86,-916.57 199.31,-927.05 207.06,-919.83 200.86,-916.57"/>
</g>
<!-- BB8 -->
<g id="node9" class="node">
<title>BB8</title>
<ellipse fill="none" stroke="black" cx="365.24" cy="-708.92" rx="103.48" ry="48.17"/>
<text text-anchor="middle" x="365.24" y="-727.72" font-family="Times New Roman,serif" font-size="14.00">[5b..65)</text>
<text text-anchor="middle" x="365.24" y="-712.72" font-family="Times New Roman,serif" font-size="14.00">Count: 17</text>
<text text-anchor="middle" x="365.24" y="-697.72" font-family="Times New Roman,serif" font-size="14.00">Normalized count: 8.50</text>
<text text-anchor="middle" x="365.24" y="-682.72" font-family="Times New Roman,serif" font-size="14.00">Samples weight: 0.16</text>
</g>
<!-- BB2&#45;&gt;BB8 -->
<g id="edge4" class="edge">
<title>BB2&#45;&gt;BB8</title>
<path fill="none" stroke="black" d="M244.49,-708.92C246.94,-708.92 249.4,-708.92 251.85,-708.92"/>
<polygon fill="black" stroke="black" points="251.94,-712.42 261.94,-708.92 251.94,-705.42 251.94,-712.42"/>
</g>
<!-- BB3&#45;&gt;BB1 -->
<g id="edge6" class="edge">
<title>BB3&#45;&gt;BB1</title>
<path fill="none" stroke="black" d="M139.23,-927.09C134.28,-917.74 129.23,-907.78 124.52,-898.1"/>
<polygon fill="black" stroke="black" points="127.6,-896.44 120.12,-888.93 121.29,-899.46 127.6,-896.44"/>
</g>
<!-- BB4 -->
<g id="node5" class="node">
<title>BB4</title>
<ellipse fill="none" stroke="black" cx="365.24" cy="-841.08" rx="103.48" ry="48.17"/>
<text text-anchor="middle" x="365.24" y="-859.88" font-family="Times New Roman,serif" font-size="14.00">[38..3a)</text>
<text text-anchor="middle" x="365.24" y="-844.88" font-family="Times New Roman,serif" font-size="14.00">Count: 0</text>
<text text-anchor="middle" x="365.24" y="-829.88" font-family="Times New Roman,serif" font-size="14.00">Normalized count: 0.00</text>
<text text-anchor="middle" x="365.24" y="-814.88" font-family="Times New Roman,serif" font-size="14.00">Samples weight: 0.00</text>
</g>
<!-- BB3&#45;&gt;BB4 -->
<g id="edge7" class="edge">
<title>BB3&#45;&gt;BB4</title>
<path fill="none" stroke="black" d="M226.81,-933.55C249.24,-918.73 274.98,-901.72 298.15,-886.41"/>
<polygon fill="black" stroke="black" points="300.14,-889.29 306.55,-880.86 296.28,-883.45 300.14,-889.29"/>
</g>
<!-- BB4&#45;&gt;BB8 -->
<g id="edge8" class="edge">
<title>BB4&#45;&gt;BB8</title>
<path fill="none" stroke="black" d="M365.24,-792.72C365.24,-784.45 365.24,-775.77 365.24,-767.27"/>
<polygon fill="black" stroke="black" points="368.74,-767.02 365.24,-757.02 361.74,-767.02 368.74,-767.02"/>
</g>
<!-- BB5 -->
<g id="node6" class="node">
<title>BB5</title>
<ellipse fill="none" stroke="black" cx="299.24" cy="-576.75" rx="103.48" ry="48.17"/>
<text text-anchor="middle" x="299.24" y="-595.55" font-family="Times New Roman,serif" font-size="14.00">[3a..49)</text>
<text text-anchor="middle" x="299.24" y="-580.55" font-family="Times New Roman,serif" font-size="14.00">Count: 17</text>
<text text-anchor="middle" x="299.24" y="-565.55" font-family="Times New Roman,serif" font-size="14.00">Normalized count: 8.50</text>
<text text-anchor="middle" x="299.24" y="-550.55" font-family="Times New Roman,serif" font-size="14.00">Samples weight: 0.16</text>
</g>
<!-- BB6 -->
<g id="node7" class="node">
<title>BB6</title>
<ellipse fill="none" stroke="black" cx="299.24" cy="-444.58" rx="103.48" ry="48.17"/>
<text text-anchor="middle" x="299.24" y="-463.38" font-family="Times New Roman,serif" font-size="14.00">[49..4f)</text>
<text text-anchor="middle" x="299.24" y="-448.38" font-family="Times New Roman,serif" font-size="14.00">Count: 15</text>
<text text-anchor="middle" x="299.24" y="-433.38" font-family="Times New Roman,serif" font-size="14.00">Normalized count: 7.50</text>
<text text-anchor="middle" x="299.24" y="-418.38" font-family="Times New Roman,serif" font-size="14.00">Samples weight: 0.14</text>
</g>
<!-- BB5&#45;&gt;BB6 -->
<g id="edge10" class="edge">
<title>BB5&#45;&gt;BB6</title>
<path fill="none" stroke="black" d="M299.24,-528.39C299.24,-520.12 299.24,-511.44 299.24,-502.93"/>
<polygon fill="black" stroke="black" points="302.74,-502.69 299.24,-492.69 295.74,-502.69 302.74,-502.69"/>
</g>
<!-- BB9 -->
<g id="node10" class="node">
<title>BB9</title>
<ellipse fill="none" stroke="black" cx="561.24" cy="-576.75" rx="103.48" ry="48.17"/>
<text text-anchor="middle" x="561.24" y="-595.55" font-family="Times New Roman,serif" font-size="14.00">[65..7b)</text>
<text text-anchor="middle" x="561.24" y="-580.55" font-family="Times New Roman,serif" font-size="14.00">Count: 2</text>
<text text-anchor="middle" x="561.24" y="-565.55" font-family="Times New Roman,serif" font-size="14.00">Normalized count: 1.00</text>
<text text-anchor="middle" x="561.24" y="-550.55" font-family="Times New Roman,serif" font-size="14.00">Samples weight: 0.02</text>
</g>
<!-- BB5&#45;&gt;BB9 -->
<g id="edge9" class="edge">
<title>BB5&#45;&gt;BB9</title>
<path fill="none" stroke="black" d="M402.6,-576.75C417.54,-576.75 432.48,-576.75 447.41,-576.75"/>
<polygon fill="black" stroke="black" points="447.75,-580.25 457.75,-576.75 447.75,-573.25 447.75,-580.25"/>
</g>
<!-- BB7 -->
<g id="node8" class="node">
<title>BB7</title>
<ellipse fill="none" stroke="black" cx="318.24" cy="-312.42" rx="103.48" ry="48.17"/>
<text text-anchor="middle" x="318.24" y="-331.22" font-family="Times New Roman,serif" font-size="14.00">[4f..5b)</text>
<text text-anchor="middle" x="318.24" y="-316.22" font-family="Times New Roman,serif" font-size="14.00">Count: 11</text>
<text text-anchor="middle" x="318.24" y="-301.22" font-family="Times New Roman,serif" font-size="14.00">Normalized count: 5.50</text>
<text text-anchor="middle" x="318.24" y="-286.22" font-family="Times New Roman,serif" font-size="14.00">Samples weight: 0.10</text>
</g>
<!-- BB6&#45;&gt;BB7 -->
<g id="edge12" class="edge">
<title>BB6&#45;&gt;BB7</title>
<path fill="none" stroke="black" d="M306.1,-396.59C307.32,-388.22 308.61,-379.41 309.86,-370.78"/>
<polygon fill="black" stroke="black" points="313.34,-371.18 311.32,-360.78 306.42,-370.17 313.34,-371.18"/>
</g>
<!-- BB6&#45;&gt;BB8 -->
<g id="edge11" class="edge">
<title>BB6&#45;&gt;BB8</title>
<path fill="none" stroke="black" d="M231.1,-480.74C213.6,-493.33 196.98,-509.31 187.24,-528.67 168.02,-566.84 164.28,-588.78 187.24,-624.83 190.24,-629.55 236.93,-651.26 281.73,-671.3"/>
<polygon fill="black" stroke="black" points="280.39,-674.53 290.94,-675.41 283.24,-668.14 280.39,-674.53"/>
</g>
<!-- BB7&#45;&gt;BB8 -->
<g id="edge13" class="edge">
<title>BB7&#45;&gt;BB8</title>
<path fill="none" stroke="black" d="M376.74,-352.19C390.64,-364.55 403.63,-379.5 411.24,-396.5 452.69,-489.13 436.62,-526.58 411.24,-624.83 408.73,-634.53 404.83,-644.3 400.32,-653.57"/>
<polygon fill="black" stroke="black" points="397.12,-652.16 395.65,-662.65 403.34,-655.36 397.12,-652.16"/>
</g>
<!-- BB8&#45;&gt;BB5 -->
<g id="edge14" class="edge">
<title>BB8&#45;&gt;BB5</title>
<path fill="none" stroke="black" d="M341.97,-662.02C337.19,-652.59 332.11,-642.57 327.18,-632.86"/>
<polygon fill="black" stroke="black" points="330.16,-631 322.52,-623.67 323.92,-634.17 330.16,-631"/>
</g>
<!-- BB8&#45;&gt;BB9 -->
<g id="edge15" class="edge">
<title>BB8&#45;&gt;BB9</title>
<path fill="none" stroke="black" d="M423.51,-669.21C445.82,-654.4 471.44,-637.38 494.49,-622.08"/>
<polygon fill="black" stroke="black" points="496.45,-624.97 502.85,-616.53 492.58,-619.14 496.45,-624.97"/>
</g>
<!-- BB11 -->
<g id="node12" class="node">
<title>BB11</title>
<ellipse fill="none" stroke="black" cx="561.24" cy="-444.58" rx="103.48" ry="48.17"/>
<text text-anchor="middle" x="561.24" y="-463.38" font-family="Times New Roman,serif" font-size="14.00">[9a..9f)</text>
<text text-anchor="middle" x="561.24" y="-448.38" font-family="Times New Roman,serif" font-size="14.00">Count: 2</text>
<text text-anchor="middle" x="561.24" y="-433.38" font-family="Times New Roman,serif" font-size="14.00">Normalized count: 1.00</text>
<text text-anchor="middle" x="561.24" y="-418.38" font-family="Times New Roman,serif" font-size="14.00">Samples weight: 0.02</text>
</g>
<!-- BB9&#45;&gt;BB11 -->
<g id="edge16" class="edge">
<title>BB9&#45;&gt;BB11</title>
<path fill="none" stroke="black" d="M561.24,-528.39C561.24,-520.12 561.24,-511.44 561.24,-502.93"/>
<polygon fill="black" stroke="black" points="564.74,-502.69 561.24,-492.69 557.74,-502.69 564.74,-502.69"/>
</g>
<!-- BB10 -->
<g id="node11" class="node">
<title>BB10</title>
<ellipse fill="none" stroke="black" cx="561.24" cy="-312.42" rx="103.48" ry="48.17"/>
<text text-anchor="middle" x="561.24" y="-331.22" font-family="Times New Roman,serif" font-size="14.00">[7b..9a)</text>
<text text-anchor="middle" x="561.24" y="-316.22" font-family="Times New Roman,serif" font-size="14.00">Count: 0</text>
<text text-anchor="middle" x="561.24" y="-301.22" font-family="Times New Roman,serif" font-size="14.00">Normalized count: 0.00</text>
<text text-anchor="middle" x="561.24" y="-286.22" font-family="Times New Roman,serif" font-size="14.00">Samples weight: 0.00</text>
</g>
<!-- BB10&#45;&gt;BB11 -->
<g id="edge17" class="edge">
<title>BB10&#45;&gt;BB11</title>
<path fill="none" stroke="black" d="M567.76,-360.78C567.98,-369.07 568.04,-377.79 567.94,-386.32"/>
<polygon fill="black" stroke="black" points="564.44,-386.53 567.75,-396.59 571.44,-386.66 564.44,-386.53"/>
</g>
<!-- BB11&#45;&gt;BB10 -->
<g id="edge18" class="edge">
<title>BB11&#45;&gt;BB10</title>
<path fill="none" stroke="black" d="M554.72,-396.59C554.5,-388.22 554.43,-379.41 554.53,-370.78"/>
<polygon fill="black" stroke="black" points="558.03,-370.84 554.72,-360.78 551.03,-370.71 558.03,-370.84"/>
</g>
<!-- BB12 -->
<g id="node13" class="node">
<title>BB12</title>
<ellipse fill="none" stroke="black" cx="785.24" cy="-312.42" rx="103.48" ry="48.17"/>
<text text-anchor="middle" x="785.24" y="-331.22" font-family="Times New Roman,serif" font-size="14.00">[9f..d7)</text>
<text text-anchor="middle" x="785.24" y="-316.22" font-family="Times New Roman,serif" font-size="14.00">Count: 2</text>
<text text-anchor="middle" x="785.24" y="-301.22" font-family="Times New Roman,serif" font-size="14.00">Normalized count: 1.00</text>
<text text-anchor="middle" x="785.24" y="-286.22" font-family="Times New Roman,serif" font-size="14.00">Samples weight: 0.02</text>
</g>
<!-- BB11&#45;&gt;BB12 -->
<g id="edge19" class="edge">
<title>BB11&#45;&gt;BB12</title>
<path fill="none" stroke="black" d="M624.83,-406.63C652.26,-390.69 684.48,-371.97 712.83,-355.49"/>
<polygon fill="black" stroke="black" points="714.6,-358.51 721.49,-350.46 711.08,-352.46 714.6,-358.51"/>
</g>
<!-- BB14 -->
<g id="node15" class="node">
<title>BB14</title>
<ellipse fill="none" stroke="black" cx="785.24" cy="-180.25" rx="103.48" ry="48.17"/>
<text text-anchor="middle" x="785.24" y="-199.05" font-family="Times New Roman,serif" font-size="14.00">[100..108)</text>
<text text-anchor="middle" x="785.24" y="-184.05" font-family="Times New Roman,serif" font-size="14.00">Count: 2</text>
<text text-anchor="middle" x="785.24" y="-169.05" font-family="Times New Roman,serif" font-size="14.00">Normalized count: 1.00</text>
<text text-anchor="middle" x="785.24" y="-154.05" font-family="Times New Roman,serif" font-size="14.00">Samples weight: 0.02</text>
</g>
<!-- BB12&#45;&gt;BB14 -->
<g id="edge20" class="edge">
<title>BB12&#45;&gt;BB14</title>
<path fill="none" stroke="black" d="M785.24,-264.05C785.24,-255.79 785.24,-247.1 785.24,-238.6"/>
<polygon fill="black" stroke="black" points="788.74,-238.36 785.24,-228.36 781.74,-238.36 788.74,-238.36"/>
</g>
<!-- BB13 -->
<g id="node14" class="node">
<title>BB13</title>
<ellipse fill="none" stroke="black" cx="785.24" cy="-48.08" rx="103.48" ry="48.17"/>
<text text-anchor="middle" x="785.24" y="-66.88" font-family="Times New Roman,serif" font-size="14.00">[d7..100)</text>
<text text-anchor="middle" x="785.24" y="-51.88" font-family="Times New Roman,serif" font-size="14.00">Count: 0</text>
<text text-anchor="middle" x="785.24" y="-36.88" font-family="Times New Roman,serif" font-size="14.00">Normalized count: 0.00</text>
<text text-anchor="middle" x="785.24" y="-21.88" font-family="Times New Roman,serif" font-size="14.00">Samples weight: 0.00</text>
</g>
<!-- BB13&#45;&gt;BB14 -->
<g id="edge21" class="edge">
<title>BB13&#45;&gt;BB14</title>
<path fill="none" stroke="black" d="M791.76,-96.44C791.98,-104.74 792.04,-113.45 791.94,-121.98"/>
<polygon fill="black" stroke="black" points="788.44,-122.19 791.75,-132.26 795.44,-122.32 788.44,-122.19"/>
</g>
<!-- BB14&#45;&gt;BB13 -->
<g id="edge22" class="edge">
<title>BB14&#45;&gt;BB13</title>
<path fill="none" stroke="black" d="M778.72,-132.26C778.5,-123.88 778.43,-115.07 778.53,-106.45"/>
<polygon fill="black" stroke="black" points="782.03,-106.51 778.72,-96.44 775.03,-106.38 782.03,-106.51"/>
</g>
<!-- BB15 -->
<g id="node16" class="node">
<title>BB15</title>
<ellipse fill="none" stroke="black" cx="1009.24" cy="-48.08" rx="103.48" ry="48.17"/>
<text text-anchor="middle" x="1009.24" y="-66.88" font-family="Times New Roman,serif" font-size="14.00">[108..10b)</text>
<text text-anchor="middle" x="1009.24" y="-51.88" font-family="Times New Roman,serif" font-size="14.00">Count: 2</text>
<text text-anchor="middle" x="1009.24" y="-36.88" font-family="Times New Roman,serif" font-size="14.00">Normalized count: 1.00</text>
<text text-anchor="middle" x="1009.24" y="-21.88" font-family="Times New Roman,serif" font-size="14.00">Samples weight: 0.02</text>
</g>
<!-- BB14&#45;&gt;BB15 -->
<g id="edge23" class="edge">
<title>BB14&#45;&gt;BB15</title>
<path fill="none" stroke="black" d="M848.83,-142.3C876.26,-126.36 908.48,-107.63 936.83,-91.16"/>
<polygon fill="black" stroke="black" points="938.6,-94.18 945.49,-86.13 935.08,-88.13 938.6,-94.18"/>
</g>
</g>
</svg>
