<?xml version="1.0" encoding="UTF-8" standalone="no"?>
<!DOCTYPE svg PUBLIC "-//W3C//DTD SVG 1.1//EN"
 "http://www.w3.org/Graphics/SVG/1.1/DTD/svg11.dtd">
<!-- Generated by graphviz version 2.47.0 (20210316.0004)
 -->
<!-- Title: G Pages: 1 -->
<svg width="701pt" height="765pt"
 viewBox="0.00 0.00 701.27 765.00" xmlns="http://www.w3.org/2000/svg" xmlns:xlink="http://www.w3.org/1999/xlink">
<g id="graph0" class="graph" transform="scale(1 1) rotate(0) translate(4 761)">
<title>G</title>
<polygon fill="white" stroke="transparent" points="-4,4 -4,-761 697.27,-761 697.27,4 -4,4"/>
<!-- BB0 -->
<g id="node1" class="node">
<title>BB0</title>
<ellipse fill="none" stroke="black" cx="327.09" cy="-708.92" rx="103.48" ry="48.17"/>
<text text-anchor="middle" x="327.09" y="-727.72" font-family="Times New Roman,serif" font-size="14.00">[0..a)</text>
<text text-anchor="middle" x="327.09" y="-712.72" font-family="Times New Roman,serif" font-size="14.00">Count: 10</text>
<text text-anchor="middle" x="327.09" y="-697.72" font-family="Times New Roman,serif" font-size="14.00">Normalized count: 1.00</text>
<text text-anchor="middle" x="327.09" y="-682.72" font-family="Times New Roman,serif" font-size="14.00">Samples weight: 0.00</text>
</g>
<!-- BB7 -->
<g id="node8" class="node">
<title>BB7</title>
<ellipse fill="none" stroke="black" cx="327.09" cy="-576.75" rx="118.17" ry="48.17"/>
<text text-anchor="middle" x="327.09" y="-595.55" font-family="Times New Roman,serif" font-size="14.00">[34..38)</text>
<text text-anchor="middle" x="327.09" y="-580.55" font-family="Times New Roman,serif" font-size="14.00">Count: 75000</text>
<text text-anchor="middle" x="327.09" y="-565.55" font-family="Times New Roman,serif" font-size="14.00">Normalized count: 7500.00</text>
<text text-anchor="middle" x="327.09" y="-550.55" font-family="Times New Roman,serif" font-size="14.00">Samples weight: 0.00</text>
</g>
<!-- BB0&#45;&gt;BB7 -->
<g id="edge1" class="edge">
<title>BB0&#45;&gt;BB7</title>
<path fill="none" stroke="black" d="M327.09,-660.55C327.09,-652.29 327.09,-643.6 327.09,-635.1"/>
<polygon fill="black" stroke="black" points="330.59,-634.86 327.09,-624.86 323.59,-634.86 330.59,-634.86"/>
</g>
<!-- BB1 -->
<g id="node2" class="node">
<title>BB1</title>
<ellipse fill="none" stroke="black" cx="327.09" cy="-444.58" rx="118.17" ry="48.17"/>
<text text-anchor="middle" x="327.09" y="-463.38" font-family="Times New Roman,serif" font-size="14.00">[a..e)</text>
<text text-anchor="middle" x="327.09" y="-448.38" font-family="Times New Roman,serif" font-size="14.00">Count: 74990</text>
<text text-anchor="middle" x="327.09" y="-433.38" font-family="Times New Roman,serif" font-size="14.00">Normalized count: 7499.00</text>
<text text-anchor="middle" x="327.09" y="-418.38" font-family="Times New Roman,serif" font-size="14.00">Samples weight: 0.00</text>
</g>
<!-- BB5 -->
<g id="node6" class="node">
<title>BB5</title>
<ellipse fill="none" stroke="black" cx="364.09" cy="-312.42" rx="137.36" ry="48.17"/>
<text text-anchor="middle" x="364.09" y="-331.22" font-family="Times New Roman,serif" font-size="14.00">[28..30)</text>
<text text-anchor="middle" x="364.09" y="-316.22" font-family="Times New Roman,serif" font-size="14.00">Count: 281362480</text>
<text text-anchor="middle" x="364.09" y="-301.22" font-family="Times New Roman,serif" font-size="14.00">Normalized count: 28136248.00</text>
<text text-anchor="middle" x="364.09" y="-286.22" font-family="Times New Roman,serif" font-size="14.00">Samples weight: 0.29</text>
</g>
<!-- BB1&#45;&gt;BB5 -->
<g id="edge2" class="edge">
<title>BB1&#45;&gt;BB5</title>
<path fill="none" stroke="black" d="M340.44,-396.59C342.88,-388.02 345.45,-378.99 347.95,-370.17"/>
<polygon fill="black" stroke="black" points="351.38,-370.92 350.75,-360.34 344.65,-369 351.38,-370.92"/>
</g>
<!-- BB2 -->
<g id="node3" class="node">
<title>BB2</title>
<ellipse fill="none" stroke="black" cx="391.09" cy="-180.25" rx="137.36" ry="48.17"/>
<text text-anchor="middle" x="391.09" y="-199.05" font-family="Times New Roman,serif" font-size="14.00">[e..16)</text>
<text text-anchor="middle" x="391.09" y="-184.05" font-family="Times New Roman,serif" font-size="14.00">Count: 281287490</text>
<text text-anchor="middle" x="391.09" y="-169.05" font-family="Times New Roman,serif" font-size="14.00">Normalized count: 28128749.00</text>
<text text-anchor="middle" x="391.09" y="-154.05" font-family="Times New Roman,serif" font-size="14.00">Samples weight: 0.29</text>
</g>
<!-- BB3 -->
<g id="node4" class="node">
<title>BB3</title>
<ellipse fill="none" stroke="black" cx="264.09" cy="-48.08" rx="137.36" ry="48.17"/>
<text text-anchor="middle" x="264.09" y="-66.88" font-family="Times New Roman,serif" font-size="14.00">[16..24)</text>
<text text-anchor="middle" x="264.09" y="-51.88" font-family="Times New Roman,serif" font-size="14.00">Count: 139671280</text>
<text text-anchor="middle" x="264.09" y="-36.88" font-family="Times New Roman,serif" font-size="14.00">Normalized count: 13967128.00</text>
<text text-anchor="middle" x="264.09" y="-21.88" font-family="Times New Roman,serif" font-size="14.00">Samples weight: 0.14</text>
</g>
<!-- BB2&#45;&gt;BB3 -->
<g id="edge4" class="edge">
<title>BB2&#45;&gt;BB3</title>
<path fill="none" stroke="black" d="M347.38,-134.45C336.9,-123.72 325.63,-112.16 314.86,-101.12"/>
<polygon fill="black" stroke="black" points="317.36,-98.68 307.87,-93.96 312.35,-103.56 317.36,-98.68"/>
</g>
<!-- BB4 -->
<g id="node5" class="node">
<title>BB4</title>
<ellipse fill="none" stroke="black" cx="556.09" cy="-48.08" rx="137.36" ry="48.17"/>
<text text-anchor="middle" x="556.09" y="-66.88" font-family="Times New Roman,serif" font-size="14.00">[24..28)</text>
<text text-anchor="middle" x="556.09" y="-51.88" font-family="Times New Roman,serif" font-size="14.00">Count: 281287490</text>
<text text-anchor="middle" x="556.09" y="-36.88" font-family="Times New Roman,serif" font-size="14.00">Normalized count: 28128749.00</text>
<text text-anchor="middle" x="556.09" y="-21.88" font-family="Times New Roman,serif" font-size="14.00">Samples weight: 0.29</text>
</g>
<!-- BB2&#45;&gt;BB4 -->
<g id="edge3" class="edge">
<title>BB2&#45;&gt;BB4</title>
<path fill="none" stroke="black" d="M446.03,-135.91C461.2,-123.94 477.77,-110.87 493.34,-98.58"/>
<polygon fill="black" stroke="black" points="495.7,-101.18 501.38,-92.24 491.37,-95.68 495.7,-101.18"/>
</g>
<!-- BB3&#45;&gt;BB4 -->
<g id="edge5" class="edge">
<title>BB3&#45;&gt;BB4</title>
<path fill="none" stroke="black" d="M401.53,-48.08C403.86,-48.08 406.19,-48.08 408.52,-48.08"/>
<polygon fill="black" stroke="black" points="408.74,-51.58 418.74,-48.08 408.74,-44.58 408.74,-51.58"/>
</g>
<!-- BB4&#45;&gt;BB5 -->
<g id="edge6" class="edge">
<title>BB4&#45;&gt;BB5</title>
<path fill="none" stroke="black" d="M562.96,-96.49C566,-135.39 564.05,-190.1 537.09,-228.33 522.42,-249.12 501.11,-264.9 478.43,-276.81"/>
<polygon fill="black" stroke="black" points="476.72,-273.75 469.33,-281.35 479.84,-280.02 476.72,-273.75"/>
</g>
<!-- BB5&#45;&gt;BB2 -->
<g id="edge7" class="edge">
<title>BB5&#45;&gt;BB2</title>
<path fill="none" stroke="black" d="M373.83,-264.42C375.57,-256.05 377.4,-247.24 379.19,-238.62"/>
<polygon fill="black" stroke="black" points="382.66,-239.11 381.26,-228.61 375.8,-237.69 382.66,-239.11"/>
</g>
<!-- BB6 -->
<g id="node7" class="node">
<title>BB6</title>
<ellipse fill="none" stroke="black" cx="118.09" cy="-180.25" rx="118.17" ry="48.17"/>
<text text-anchor="middle" x="118.09" y="-199.05" font-family="Times New Roman,serif" font-size="14.00">[30..34)</text>
<text text-anchor="middle" x="118.09" y="-184.05" font-family="Times New Roman,serif" font-size="14.00">Count: 74990</text>
<text text-anchor="middle" x="118.09" y="-169.05" font-family="Times New Roman,serif" font-size="14.00">Normalized count: 7499.00</text>
<text text-anchor="middle" x="118.09" y="-154.05" font-family="Times New Roman,serif" font-size="14.00">Samples weight: 0.00</text>
</g>
<!-- BB5&#45;&gt;BB6 -->
<g id="edge8" class="edge">
<title>BB5&#45;&gt;BB6</title>
<path fill="none" stroke="black" d="M289.61,-272.01C260.65,-256.68 227.41,-239.1 197.95,-223.51"/>
<polygon fill="black" stroke="black" points="199.41,-220.32 188.94,-218.74 196.14,-226.51 199.41,-220.32"/>
</g>
<!-- BB6&#45;&gt;BB7 -->
<g id="edge9" class="edge">
<title>BB6&#45;&gt;BB7</title>
<path fill="none" stroke="black" d="M120.12,-228.43C125.08,-293.58 142.07,-412.16 200.09,-492.67 211.57,-508.59 227.12,-522.29 243.41,-533.7"/>
<polygon fill="black" stroke="black" points="241.72,-536.78 251.97,-539.46 245.63,-530.97 241.72,-536.78"/>
</g>
<!-- BB7&#45;&gt;BB1 -->
<g id="edge10" class="edge">
<title>BB7&#45;&gt;BB1</title>
<path fill="none" stroke="black" d="M327.09,-528.39C327.09,-520.12 327.09,-511.44 327.09,-502.93"/>
<polygon fill="black" stroke="black" points="330.59,-502.69 327.09,-492.69 323.59,-502.69 330.59,-502.69"/>
</g>
<!-- BB8 -->
<g id="node9" class="node">
<title>BB8</title>
<ellipse fill="none" stroke="black" cx="566.09" cy="-444.58" rx="103.48" ry="48.17"/>
<text text-anchor="middle" x="566.09" y="-463.38" font-family="Times New Roman,serif" font-size="14.00">[38..39)</text>
<text text-anchor="middle" x="566.09" y="-448.38" font-family="Times New Roman,serif" font-size="14.00">Count: 10</text>
<text text-anchor="middle" x="566.09" y="-433.38" font-family="Times New Roman,serif" font-size="14.00">Normalized count: 1.00</text>
<text text-anchor="middle" x="566.09" y="-418.38" font-family="Times New Roman,serif" font-size="14.00">Samples weight: 0.00</text>
</g>
<!-- BB7&#45;&gt;BB8 -->
<g id="edge11" class="edge">
<title>BB7&#45;&gt;BB8</title>
<path fill="none" stroke="black" d="M396.86,-537.75C426.45,-521.63 461,-502.82 491.14,-486.4"/>
<polygon fill="black" stroke="black" points="492.82,-489.47 499.92,-481.62 489.47,-483.33 492.82,-489.47"/>
</g>
</g>
</svg>
