<?xml version="1.0" encoding="UTF-8" standalone="no"?>
<!DOCTYPE svg PUBLIC "-//W3C//DTD SVG 1.1//EN"
 "http://www.w3.org/Graphics/SVG/1.1/DTD/svg11.dtd">
<!-- Generated by graphviz version 2.47.0 (20210316.0004)
 -->
<!-- Title: G Pages: 1 -->
<svg width="378pt" height="510pt"
 viewBox="0.00 0.00 377.66 510.44" xmlns="http://www.w3.org/2000/svg" xmlns:xlink="http://www.w3.org/1999/xlink">
<g id="graph0" class="graph" transform="scale(1 1) rotate(0) translate(4 506.44)">
<title>G</title>
<polygon fill="white" stroke="transparent" points="-4,4 -4,-506.44 373.66,-506.44 373.66,4 -4,4"/>
<!-- BB0 -->
<g id="node1" class="node">
<title>BB0</title>
<ellipse fill="none" stroke="black" cx="77.23" cy="-475.57" rx="33.47" ry="26.74"/>
<text text-anchor="middle" x="77.23" y="-479.37" font-family="Times New Roman,serif" font-size="14.00">[0..9)</text>
<text text-anchor="middle" x="77.23" y="-464.37" font-family="Times New Roman,serif" font-size="14.00">0.08</text>
</g>
<!-- BB1 -->
<g id="node2" class="node">
<title>BB1</title>
<ellipse fill="none" stroke="black" cx="33.23" cy="-385.83" rx="33.47" ry="26.74"/>
<text text-anchor="middle" x="33.23" y="-389.63" font-family="Times New Roman,serif" font-size="14.00">[9..b)</text>
<text text-anchor="middle" x="33.23" y="-374.63" font-family="Times New Roman,serif" font-size="14.00">0.00</text>
</g>
<!-- BB0&#45;&gt;BB1 -->
<g id="edge2" class="edge">
<title>BB0&#45;&gt;BB1</title>
<path fill="none" stroke="black" d="M64.98,-450.13C60.35,-440.91 55.01,-430.25 50.04,-420.34"/>
<polygon fill="black" stroke="black" points="53.04,-418.51 45.42,-411.14 46.78,-421.65 53.04,-418.51"/>
</g>
<!-- BB2 -->
<g id="node3" class="node">
<title>BB2</title>
<ellipse fill="none" stroke="black" cx="122.23" cy="-385.83" rx="38.37" ry="26.74"/>
<text text-anchor="middle" x="122.23" y="-389.63" font-family="Times New Roman,serif" font-size="14.00">[b..2c)</text>
<text text-anchor="middle" x="122.23" y="-374.63" font-family="Times New Roman,serif" font-size="14.00">0.08</text>
</g>
<!-- BB0&#45;&gt;BB2 -->
<g id="edge1" class="edge">
<title>BB0&#45;&gt;BB2</title>
<path fill="none" stroke="black" d="M89.53,-450.6C94.31,-441.27 99.87,-430.43 105.04,-420.36"/>
<polygon fill="black" stroke="black" points="108.19,-421.88 109.64,-411.39 101.96,-418.69 108.19,-421.88"/>
</g>
<!-- BB1&#45;&gt;BB2 -->
<g id="edge3" class="edge">
<title>BB1&#45;&gt;BB2</title>
<path fill="none" stroke="black" d="M66.61,-385.83C69.05,-385.83 71.5,-385.83 73.94,-385.83"/>
<polygon fill="black" stroke="black" points="73.99,-389.33 83.99,-385.83 73.99,-382.33 73.99,-389.33"/>
</g>
<!-- BB3 -->
<g id="node4" class="node">
<title>BB3</title>
<ellipse fill="none" stroke="black" cx="72.23" cy="-296.09" rx="41.94" ry="26.74"/>
<text text-anchor="middle" x="72.23" y="-299.89" font-family="Times New Roman,serif" font-size="14.00">[2c..2e)</text>
<text text-anchor="middle" x="72.23" y="-284.89" font-family="Times New Roman,serif" font-size="14.00">0.01</text>
</g>
<!-- BB2&#45;&gt;BB3 -->
<g id="edge5" class="edge">
<title>BB2&#45;&gt;BB3</title>
<path fill="none" stroke="black" d="M108.31,-360.39C103.04,-351.15 96.95,-340.47 91.3,-330.54"/>
<polygon fill="black" stroke="black" points="94.25,-328.66 86.26,-321.7 88.17,-332.13 94.25,-328.66"/>
</g>
<!-- BB4 -->
<g id="node5" class="node">
<title>BB4</title>
<ellipse fill="none" stroke="black" cx="173.23" cy="-296.09" rx="41.94" ry="26.74"/>
<text text-anchor="middle" x="173.23" y="-299.89" font-family="Times New Roman,serif" font-size="14.00">[2e..53)</text>
<text text-anchor="middle" x="173.23" y="-284.89" font-family="Times New Roman,serif" font-size="14.00">0.08</text>
</g>
<!-- BB2&#45;&gt;BB4 -->
<g id="edge4" class="edge">
<title>BB2&#45;&gt;BB4</title>
<path fill="none" stroke="black" d="M136.44,-360.39C141.86,-351.07 148.12,-340.29 153.93,-330.29"/>
<polygon fill="black" stroke="black" points="157.1,-331.8 159.1,-321.4 151.05,-328.29 157.1,-331.8"/>
</g>
<!-- BB3&#45;&gt;BB4 -->
<g id="edge6" class="edge">
<title>BB3&#45;&gt;BB4</title>
<path fill="none" stroke="black" d="M114.05,-296.09C116.37,-296.09 118.69,-296.09 121,-296.09"/>
<polygon fill="black" stroke="black" points="121.16,-299.59 131.16,-296.09 121.16,-292.59 121.16,-299.59"/>
</g>
<!-- BB5 -->
<g id="node6" class="node">
<title>BB5</title>
<ellipse fill="none" stroke="black" cx="122.23" cy="-206.35" rx="42.35" ry="26.74"/>
<text text-anchor="middle" x="122.23" y="-210.15" font-family="Times New Roman,serif" font-size="14.00">[53..55)</text>
<text text-anchor="middle" x="122.23" y="-195.15" font-family="Times New Roman,serif" font-size="14.00">0.00</text>
</g>
<!-- BB4&#45;&gt;BB5 -->
<g id="edge8" class="edge">
<title>BB4&#45;&gt;BB5</title>
<path fill="none" stroke="black" d="M159.03,-270.65C153.66,-261.41 147.45,-250.73 141.68,-240.8"/>
<polygon fill="black" stroke="black" points="144.59,-238.85 136.54,-231.96 138.54,-242.37 144.59,-238.85"/>
</g>
<!-- BB6 -->
<g id="node7" class="node">
<title>BB6</title>
<ellipse fill="none" stroke="black" cx="225.23" cy="-206.35" rx="42.35" ry="26.74"/>
<text text-anchor="middle" x="225.23" y="-210.15" font-family="Times New Roman,serif" font-size="14.00">[55..60)</text>
<text text-anchor="middle" x="225.23" y="-195.15" font-family="Times New Roman,serif" font-size="14.00">0.08</text>
</g>
<!-- BB4&#45;&gt;BB6 -->
<g id="edge7" class="edge">
<title>BB4&#45;&gt;BB6</title>
<path fill="none" stroke="black" d="M187.72,-270.65C193.24,-261.33 199.63,-250.55 205.56,-240.55"/>
<polygon fill="black" stroke="black" points="208.74,-242.05 210.83,-231.66 202.72,-238.48 208.74,-242.05"/>
</g>
<!-- BB5&#45;&gt;BB6 -->
<g id="edge9" class="edge">
<title>BB5&#45;&gt;BB6</title>
<path fill="none" stroke="black" d="M164.88,-206.35C167.5,-206.35 170.11,-206.35 172.72,-206.35"/>
<polygon fill="black" stroke="black" points="172.8,-209.85 182.8,-206.35 172.8,-202.85 172.8,-209.85"/>
</g>
<!-- BB8 -->
<g id="node9" class="node">
<title>BB8</title>
<ellipse fill="none" stroke="black" cx="225.23" cy="-116.61" rx="41.94" ry="26.74"/>
<text text-anchor="middle" x="225.23" y="-120.41" font-family="Times New Roman,serif" font-size="14.00">[7e..82)</text>
<text text-anchor="middle" x="225.23" y="-105.41" font-family="Times New Roman,serif" font-size="14.00">0.34</text>
</g>
<!-- BB6&#45;&gt;BB8 -->
<g id="edge10" class="edge">
<title>BB6&#45;&gt;BB8</title>
<path fill="none" stroke="black" d="M225.23,-179.03C225.23,-171.06 225.23,-162.17 225.23,-153.68"/>
<polygon fill="black" stroke="black" points="228.73,-153.61 225.23,-143.61 221.73,-153.61 228.73,-153.61"/>
</g>
<!-- BB7 -->
<g id="node8" class="node">
<title>BB7</title>
<ellipse fill="none" stroke="black" cx="225.23" cy="-26.87" rx="41.94" ry="26.74"/>
<text text-anchor="middle" x="225.23" y="-30.67" font-family="Times New Roman,serif" font-size="14.00">[60..7e)</text>
<text text-anchor="middle" x="225.23" y="-15.67" font-family="Times New Roman,serif" font-size="14.00">0.26</text>
</g>
<!-- BB7&#45;&gt;BB8 -->
<g id="edge11" class="edge">
<title>BB7&#45;&gt;BB8</title>
<path fill="none" stroke="black" d="M231.44,-53.54C231.96,-61.73 232.11,-70.96 231.88,-79.74"/>
<polygon fill="black" stroke="black" points="228.39,-79.62 231.45,-89.76 235.38,-79.92 228.39,-79.62"/>
</g>
<!-- BB8&#45;&gt;BB7 -->
<g id="edge12" class="edge">
<title>BB8&#45;&gt;BB7</title>
<path fill="none" stroke="black" d="M219.02,-89.76C218.5,-81.55 218.36,-72.32 218.59,-63.54"/>
<polygon fill="black" stroke="black" points="222.09,-63.68 219.03,-53.54 215.09,-63.37 222.09,-63.68"/>
</g>
<!-- BB9 -->
<g id="node10" class="node">
<title>BB9</title>
<ellipse fill="none" stroke="black" cx="327.23" cy="-26.87" rx="42.35" ry="26.74"/>
<text text-anchor="middle" x="327.23" y="-30.67" font-family="Times New Roman,serif" font-size="14.00">[82..84)</text>
<text text-anchor="middle" x="327.23" y="-15.67" font-family="Times New Roman,serif" font-size="14.00">0.08</text>
</g>
<!-- BB8&#45;&gt;BB9 -->
<g id="edge13" class="edge">
<title>BB8&#45;&gt;BB9</title>
<path fill="none" stroke="black" d="M249.67,-94.59C263.19,-82.96 280.18,-68.35 294.8,-55.77"/>
<polygon fill="black" stroke="black" points="297.35,-58.19 302.65,-49.02 292.78,-52.89 297.35,-58.19"/>
</g>
</g>
</svg>
