<?xml version="1.0" encoding="UTF-8" standalone="no"?>
<!DOCTYPE svg PUBLIC "-//W3C//DTD SVG 1.1//EN"
 "http://www.w3.org/Graphics/SVG/1.1/DTD/svg11.dtd">
<!-- Generated by graphviz version 2.47.0 (20210316.0004)
 -->
<!-- Title: G Pages: 1 -->
<svg width="276pt" height="421pt"
 viewBox="0.00 0.00 275.56 420.70" xmlns="http://www.w3.org/2000/svg" xmlns:xlink="http://www.w3.org/1999/xlink">
<g id="graph0" class="graph" transform="scale(1 1) rotate(0) translate(4 416.7)">
<title>G</title>
<polygon fill="white" stroke="transparent" points="-4,4 -4,-416.7 271.56,-416.7 271.56,4 -4,4"/>
<!-- BB0 -->
<g id="node1" class="node">
<title>BB0</title>
<ellipse fill="none" stroke="black" cx="125.43" cy="-385.83" rx="33.47" ry="26.74"/>
<text text-anchor="middle" x="125.43" y="-389.63" font-family="Times New Roman,serif" font-size="14.00">[0..4)</text>
<text text-anchor="middle" x="125.43" y="-374.63" font-family="Times New Roman,serif" font-size="14.00">0.00</text>
</g>
<!-- BB5 -->
<g id="node6" class="node">
<title>BB5</title>
<ellipse fill="none" stroke="black" cx="125.43" cy="-296.09" rx="43.27" ry="26.74"/>
<text text-anchor="middle" x="125.43" y="-299.89" font-family="Times New Roman,serif" font-size="14.00">[37..3b)</text>
<text text-anchor="middle" x="125.43" y="-284.89" font-family="Times New Roman,serif" font-size="14.00">0.00</text>
</g>
<!-- BB0&#45;&gt;BB5 -->
<g id="edge1" class="edge">
<title>BB0&#45;&gt;BB5</title>
<path fill="none" stroke="black" d="M125.43,-358.51C125.43,-350.54 125.43,-341.65 125.43,-333.16"/>
<polygon fill="black" stroke="black" points="128.93,-333.09 125.43,-323.09 121.93,-333.09 128.93,-333.09"/>
</g>
<!-- BB1 -->
<g id="node2" class="node">
<title>BB1</title>
<ellipse fill="none" stroke="black" cx="125.43" cy="-206.35" rx="37.45" ry="26.74"/>
<text text-anchor="middle" x="125.43" y="-210.15" font-family="Times New Roman,serif" font-size="14.00">[4..14)</text>
<text text-anchor="middle" x="125.43" y="-195.15" font-family="Times New Roman,serif" font-size="14.00">0.01</text>
</g>
<!-- BB3 -->
<g id="node4" class="node">
<title>BB3</title>
<ellipse fill="none" stroke="black" cx="135.43" cy="-116.61" rx="41.02" ry="26.74"/>
<text text-anchor="middle" x="135.43" y="-120.41" font-family="Times New Roman,serif" font-size="14.00">[2f..33)</text>
<text text-anchor="middle" x="135.43" y="-105.41" font-family="Times New Roman,serif" font-size="14.00">0.08</text>
</g>
<!-- BB1&#45;&gt;BB3 -->
<g id="edge2" class="edge">
<title>BB1&#45;&gt;BB3</title>
<path fill="none" stroke="black" d="M128.37,-179.5C129.3,-171.36 130.34,-162.22 131.33,-153.51"/>
<polygon fill="black" stroke="black" points="134.81,-153.91 132.47,-143.58 127.86,-153.12 134.81,-153.91"/>
</g>
<!-- BB2 -->
<g id="node3" class="node">
<title>BB2</title>
<ellipse fill="none" stroke="black" cx="143.43" cy="-26.87" rx="41.02" ry="26.74"/>
<text text-anchor="middle" x="143.43" y="-30.67" font-family="Times New Roman,serif" font-size="14.00">[14..2f)</text>
<text text-anchor="middle" x="143.43" y="-15.67" font-family="Times New Roman,serif" font-size="14.00">0.92</text>
</g>
<!-- BB2&#45;&gt;BB3 -->
<g id="edge3" class="edge">
<title>BB2&#45;&gt;BB3</title>
<path fill="none" stroke="black" d="M147.28,-53.8C147.04,-62.07 146.34,-71.36 145.29,-80.18"/>
<polygon fill="black" stroke="black" points="141.81,-79.85 143.93,-90.23 148.74,-80.8 141.81,-79.85"/>
</g>
<!-- BB3&#45;&gt;BB2 -->
<g id="edge4" class="edge">
<title>BB3&#45;&gt;BB2</title>
<path fill="none" stroke="black" d="M131.57,-89.76C131.8,-81.48 132.51,-72.15 133.56,-63.31"/>
<polygon fill="black" stroke="black" points="137.05,-63.61 134.93,-53.23 130.11,-62.67 137.05,-63.61"/>
</g>
<!-- BB4 -->
<g id="node5" class="node">
<title>BB4</title>
<ellipse fill="none" stroke="black" cx="42.43" cy="-26.87" rx="42.35" ry="26.74"/>
<text text-anchor="middle" x="42.43" y="-30.67" font-family="Times New Roman,serif" font-size="14.00">[33..37)</text>
<text text-anchor="middle" x="42.43" y="-15.67" font-family="Times New Roman,serif" font-size="14.00">0.00</text>
</g>
<!-- BB3&#45;&gt;BB4 -->
<g id="edge5" class="edge">
<title>BB3&#45;&gt;BB4</title>
<path fill="none" stroke="black" d="M112.44,-93.92C100.48,-82.64 85.7,-68.7 72.81,-56.53"/>
<polygon fill="black" stroke="black" points="75.15,-53.93 65.47,-49.61 70.34,-59.02 75.15,-53.93"/>
</g>
<!-- BB4&#45;&gt;BB5 -->
<g id="edge6" class="edge">
<title>BB4&#45;&gt;BB5</title>
<path fill="none" stroke="black" d="M43.33,-53.93C45.53,-94.02 53.15,-172.56 79.43,-233.22 84.16,-244.14 91.16,-254.95 98.27,-264.39"/>
<polygon fill="black" stroke="black" points="95.57,-266.62 104.5,-272.31 101.07,-262.29 95.57,-266.62"/>
</g>
<!-- BB5&#45;&gt;BB1 -->
<g id="edge7" class="edge">
<title>BB5&#45;&gt;BB1</title>
<path fill="none" stroke="black" d="M125.43,-268.77C125.43,-260.8 125.43,-251.91 125.43,-243.42"/>
<polygon fill="black" stroke="black" points="128.93,-243.35 125.43,-233.35 121.93,-243.35 128.93,-243.35"/>
</g>
<!-- BB6 -->
<g id="node7" class="node">
<title>BB6</title>
<ellipse fill="none" stroke="black" cx="224.43" cy="-206.35" rx="43.27" ry="26.74"/>
<text text-anchor="middle" x="224.43" y="-210.15" font-family="Times New Roman,serif" font-size="14.00">[3b..3c)</text>
<text text-anchor="middle" x="224.43" y="-195.15" font-family="Times New Roman,serif" font-size="14.00">0.00</text>
</g>
<!-- BB5&#45;&gt;BB6 -->
<g id="edge8" class="edge">
<title>BB5&#45;&gt;BB6</title>
<path fill="none" stroke="black" d="M149.64,-273.63C162.59,-262.15 178.69,-247.89 192.63,-235.53"/>
<polygon fill="black" stroke="black" points="194.95,-238.15 200.12,-228.9 190.31,-232.91 194.95,-238.15"/>
</g>
</g>
</svg>
