<?xml version="1.0" encoding="UTF-8" standalone="no"?>
<!DOCTYPE svg PUBLIC "-//W3C//DTD SVG 1.1//EN"
 "http://www.w3.org/Graphics/SVG/1.1/DTD/svg11.dtd">
<!-- Generated by graphviz version 2.47.0 (20210316.0004)
 -->
<!-- Title: G Pages: 1 -->
<svg width="1219pt" height="1161pt"
 viewBox="0.00 0.00 1219.50 1161.50" xmlns="http://www.w3.org/2000/svg" xmlns:xlink="http://www.w3.org/1999/xlink">
<g id="graph0" class="graph" transform="scale(1 1) rotate(0) translate(4 1157.5)">
<title>G</title>
<polygon fill="white" stroke="transparent" points="-4,4 -4,-1157.5 1215.5,-1157.5 1215.5,4 -4,4"/>
<!-- BB0 -->
<g id="node1" class="node">
<title>BB0</title>
<ellipse fill="none" stroke="black" cx="359.84" cy="-1105.42" rx="104.8" ry="48.17"/>
<text text-anchor="middle" x="359.84" y="-1124.22" font-family="Times New Roman,serif" font-size="14.00">[0..b)</text>
<text text-anchor="middle" x="359.84" y="-1109.22" font-family="Times New Roman,serif" font-size="14.00">Count: 0</text>
<text text-anchor="middle" x="359.84" y="-1094.22" font-family="Times New Roman,serif" font-size="14.00">Normalized count: NaN</text>
<text text-anchor="middle" x="359.84" y="-1079.22" font-family="Times New Roman,serif" font-size="14.00">Samples weight: 0.00</text>
</g>
<!-- BB5 -->
<g id="node6" class="node">
<title>BB5</title>
<ellipse fill="none" stroke="black" cx="359.84" cy="-973.25" rx="104.8" ry="48.17"/>
<text text-anchor="middle" x="359.84" y="-992.05" font-family="Times New Roman,serif" font-size="14.00">[27..2c)</text>
<text text-anchor="middle" x="359.84" y="-977.05" font-family="Times New Roman,serif" font-size="14.00">Count: 0</text>
<text text-anchor="middle" x="359.84" y="-962.05" font-family="Times New Roman,serif" font-size="14.00">Normalized count: NaN</text>
<text text-anchor="middle" x="359.84" y="-947.05" font-family="Times New Roman,serif" font-size="14.00">Samples weight: 0.00</text>
</g>
<!-- BB0&#45;&gt;BB5 -->
<g id="edge1" class="edge">
<title>BB0&#45;&gt;BB5</title>
<path fill="none" stroke="black" d="M359.84,-1057.05C359.84,-1048.79 359.84,-1040.1 359.84,-1031.6"/>
<polygon fill="black" stroke="black" points="363.34,-1031.36 359.84,-1021.36 356.34,-1031.36 363.34,-1031.36"/>
</g>
<!-- BB1 -->
<g id="node2" class="node">
<title>BB1</title>
<ellipse fill="none" stroke="black" cx="359.84" cy="-841.08" rx="104.8" ry="48.17"/>
<text text-anchor="middle" x="359.84" y="-859.88" font-family="Times New Roman,serif" font-size="14.00">[b..f)</text>
<text text-anchor="middle" x="359.84" y="-844.88" font-family="Times New Roman,serif" font-size="14.00">Count: 0</text>
<text text-anchor="middle" x="359.84" y="-829.88" font-family="Times New Roman,serif" font-size="14.00">Normalized count: NaN</text>
<text text-anchor="middle" x="359.84" y="-814.88" font-family="Times New Roman,serif" font-size="14.00">Samples weight: 0.00</text>
</g>
<!-- BB3 -->
<g id="node4" class="node">
<title>BB3</title>
<ellipse fill="none" stroke="black" cx="359.84" cy="-708.92" rx="113.69" ry="48.17"/>
<text text-anchor="middle" x="359.84" y="-727.72" font-family="Times New Roman,serif" font-size="14.00">[1e..23)</text>
<text text-anchor="middle" x="359.84" y="-712.72" font-family="Times New Roman,serif" font-size="14.00">Count: 6</text>
<text text-anchor="middle" x="359.84" y="-697.72" font-family="Times New Roman,serif" font-size="14.00">Normalized count: Infinity</text>
<text text-anchor="middle" x="359.84" y="-682.72" font-family="Times New Roman,serif" font-size="14.00">Samples weight: 0.00</text>
</g>
<!-- BB1&#45;&gt;BB3 -->
<g id="edge2" class="edge">
<title>BB1&#45;&gt;BB3</title>
<path fill="none" stroke="black" d="M359.84,-792.72C359.84,-784.45 359.84,-775.77 359.84,-767.27"/>
<polygon fill="black" stroke="black" points="363.34,-767.02 359.84,-757.02 356.34,-767.02 363.34,-767.02"/>
</g>
<!-- BB2 -->
<g id="node3" class="node">
<title>BB2</title>
<ellipse fill="none" stroke="black" cx="359.84" cy="-576.75" rx="113.69" ry="48.17"/>
<text text-anchor="middle" x="359.84" y="-595.55" font-family="Times New Roman,serif" font-size="14.00">[f..1e)</text>
<text text-anchor="middle" x="359.84" y="-580.55" font-family="Times New Roman,serif" font-size="14.00">Count: 35</text>
<text text-anchor="middle" x="359.84" y="-565.55" font-family="Times New Roman,serif" font-size="14.00">Normalized count: Infinity</text>
<text text-anchor="middle" x="359.84" y="-550.55" font-family="Times New Roman,serif" font-size="14.00">Samples weight: 0.03</text>
</g>
<!-- BB2&#45;&gt;BB3 -->
<g id="edge3" class="edge">
<title>BB2&#45;&gt;BB3</title>
<path fill="none" stroke="black" d="M366.36,-624.86C366.58,-633.12 366.65,-641.8 366.55,-650.3"/>
<polygon fill="black" stroke="black" points="363.05,-650.49 366.37,-660.55 370.05,-650.62 363.05,-650.49"/>
</g>
<!-- BB3&#45;&gt;BB2 -->
<g id="edge4" class="edge">
<title>BB3&#45;&gt;BB2</title>
<path fill="none" stroke="black" d="M353.32,-660.55C353.1,-652.29 353.04,-643.6 353.14,-635.1"/>
<polygon fill="black" stroke="black" points="356.64,-634.92 353.33,-624.86 349.64,-634.79 356.64,-634.92"/>
</g>
<!-- BB4 -->
<g id="node5" class="node">
<title>BB4</title>
<ellipse fill="none" stroke="black" cx="113.84" cy="-576.75" rx="113.69" ry="48.17"/>
<text text-anchor="middle" x="113.84" y="-595.55" font-family="Times New Roman,serif" font-size="14.00">[23..27)</text>
<text text-anchor="middle" x="113.84" y="-580.55" font-family="Times New Roman,serif" font-size="14.00">Count: 1</text>
<text text-anchor="middle" x="113.84" y="-565.55" font-family="Times New Roman,serif" font-size="14.00">Normalized count: Infinity</text>
<text text-anchor="middle" x="113.84" y="-550.55" font-family="Times New Roman,serif" font-size="14.00">Samples weight: 0.00</text>
</g>
<!-- BB3&#45;&gt;BB4 -->
<g id="edge5" class="edge">
<title>BB3&#45;&gt;BB4</title>
<path fill="none" stroke="black" d="M289.68,-670.79C259.56,-654.85 224.23,-636.16 193.17,-619.72"/>
<polygon fill="black" stroke="black" points="194.58,-616.51 184.1,-614.92 191.3,-622.7 194.58,-616.51"/>
</g>
<!-- BB4&#45;&gt;BB5 -->
<g id="edge6" class="edge">
<title>BB4&#45;&gt;BB5</title>
<path fill="none" stroke="black" d="M125.19,-624.61C142.64,-689.39 181.04,-807.53 245.84,-889.17 257.54,-903.89 272.47,-917.26 287.65,-928.76"/>
<polygon fill="black" stroke="black" points="285.95,-931.86 296.09,-934.95 290.09,-926.21 285.95,-931.86"/>
</g>
<!-- BB5&#45;&gt;BB1 -->
<g id="edge7" class="edge">
<title>BB5&#45;&gt;BB1</title>
<path fill="none" stroke="black" d="M359.84,-924.89C359.84,-916.62 359.84,-907.94 359.84,-899.43"/>
<polygon fill="black" stroke="black" points="363.34,-899.19 359.84,-889.19 356.34,-899.19 363.34,-899.19"/>
</g>
<!-- BB6 -->
<g id="node7" class="node">
<title>BB6</title>
<ellipse fill="none" stroke="black" cx="590.84" cy="-841.08" rx="104.8" ry="48.17"/>
<text text-anchor="middle" x="590.84" y="-859.88" font-family="Times New Roman,serif" font-size="14.00">[2c..30)</text>
<text text-anchor="middle" x="590.84" y="-844.88" font-family="Times New Roman,serif" font-size="14.00">Count: 0</text>
<text text-anchor="middle" x="590.84" y="-829.88" font-family="Times New Roman,serif" font-size="14.00">Normalized count: NaN</text>
<text text-anchor="middle" x="590.84" y="-814.88" font-family="Times New Roman,serif" font-size="14.00">Samples weight: 0.00</text>
</g>
<!-- BB5&#45;&gt;BB6 -->
<g id="edge8" class="edge">
<title>BB5&#45;&gt;BB6</title>
<path fill="none" stroke="black" d="M425.11,-935.47C453.65,-919.39 487.26,-900.45 516.73,-883.84"/>
<polygon fill="black" stroke="black" points="518.74,-886.73 525.74,-878.77 515.31,-880.63 518.74,-886.73"/>
</g>
<!-- BB13 -->
<g id="node14" class="node">
<title>BB13</title>
<ellipse fill="none" stroke="black" cx="619.84" cy="-708.92" rx="104.8" ry="48.17"/>
<text text-anchor="middle" x="619.84" y="-727.72" font-family="Times New Roman,serif" font-size="14.00">[70..75)</text>
<text text-anchor="middle" x="619.84" y="-712.72" font-family="Times New Roman,serif" font-size="14.00">Count: 0</text>
<text text-anchor="middle" x="619.84" y="-697.72" font-family="Times New Roman,serif" font-size="14.00">Normalized count: NaN</text>
<text text-anchor="middle" x="619.84" y="-682.72" font-family="Times New Roman,serif" font-size="14.00">Samples weight: 0.00</text>
</g>
<!-- BB6&#45;&gt;BB13 -->
<g id="edge9" class="edge">
<title>BB6&#45;&gt;BB13</title>
<path fill="none" stroke="black" d="M601.31,-793.09C603.22,-784.52 605.23,-775.49 607.2,-766.67"/>
<polygon fill="black" stroke="black" points="610.63,-767.36 609.39,-756.84 603.8,-765.84 610.63,-767.36"/>
</g>
<!-- BB7 -->
<g id="node8" class="node">
<title>BB7</title>
<ellipse fill="none" stroke="black" cx="643.84" cy="-576.75" rx="113.69" ry="48.17"/>
<text text-anchor="middle" x="643.84" y="-595.55" font-family="Times New Roman,serif" font-size="14.00">[30..34)</text>
<text text-anchor="middle" x="643.84" y="-580.55" font-family="Times New Roman,serif" font-size="14.00">Count: 1</text>
<text text-anchor="middle" x="643.84" y="-565.55" font-family="Times New Roman,serif" font-size="14.00">Normalized count: Infinity</text>
<text text-anchor="middle" x="643.84" y="-550.55" font-family="Times New Roman,serif" font-size="14.00">Samples weight: 0.00</text>
</g>
<!-- BB11 -->
<g id="node12" class="node">
<title>BB11</title>
<ellipse fill="none" stroke="black" cx="643.84" cy="-444.58" rx="113.69" ry="48.17"/>
<text text-anchor="middle" x="643.84" y="-463.38" font-family="Times New Roman,serif" font-size="14.00">[67..6c)</text>
<text text-anchor="middle" x="643.84" y="-448.38" font-family="Times New Roman,serif" font-size="14.00">Count: 1</text>
<text text-anchor="middle" x="643.84" y="-433.38" font-family="Times New Roman,serif" font-size="14.00">Normalized count: Infinity</text>
<text text-anchor="middle" x="643.84" y="-418.38" font-family="Times New Roman,serif" font-size="14.00">Samples weight: 0.00</text>
</g>
<!-- BB7&#45;&gt;BB11 -->
<g id="edge10" class="edge">
<title>BB7&#45;&gt;BB11</title>
<path fill="none" stroke="black" d="M643.84,-528.39C643.84,-520.12 643.84,-511.44 643.84,-502.93"/>
<polygon fill="black" stroke="black" points="647.34,-502.69 643.84,-492.69 640.34,-502.69 647.34,-502.69"/>
</g>
<!-- BB8 -->
<g id="node9" class="node">
<title>BB8</title>
<ellipse fill="none" stroke="black" cx="782.84" cy="-312.42" rx="113.69" ry="48.17"/>
<text text-anchor="middle" x="782.84" y="-331.22" font-family="Times New Roman,serif" font-size="14.00">[34..36)</text>
<text text-anchor="middle" x="782.84" y="-316.22" font-family="Times New Roman,serif" font-size="14.00">Count: 3</text>
<text text-anchor="middle" x="782.84" y="-301.22" font-family="Times New Roman,serif" font-size="14.00">Normalized count: Infinity</text>
<text text-anchor="middle" x="782.84" y="-286.22" font-family="Times New Roman,serif" font-size="14.00">Samples weight: 0.00</text>
</g>
<!-- BB9 -->
<g id="node10" class="node">
<title>BB9</title>
<ellipse fill="none" stroke="black" cx="782.84" cy="-180.25" rx="113.69" ry="48.17"/>
<text text-anchor="middle" x="782.84" y="-199.05" font-family="Times New Roman,serif" font-size="14.00">[36..63)</text>
<text text-anchor="middle" x="782.84" y="-184.05" font-family="Times New Roman,serif" font-size="14.00">Count: 1348</text>
<text text-anchor="middle" x="782.84" y="-169.05" font-family="Times New Roman,serif" font-size="14.00">Normalized count: Infinity</text>
<text text-anchor="middle" x="782.84" y="-154.05" font-family="Times New Roman,serif" font-size="14.00">Samples weight: 0.96</text>
</g>
<!-- BB8&#45;&gt;BB9 -->
<g id="edge11" class="edge">
<title>BB8&#45;&gt;BB9</title>
<path fill="none" stroke="black" d="M782.84,-264.05C782.84,-255.79 782.84,-247.1 782.84,-238.6"/>
<polygon fill="black" stroke="black" points="786.34,-238.36 782.84,-228.36 779.34,-238.36 786.34,-238.36"/>
</g>
<!-- BB9&#45;&gt;BB9 -->
<g id="edge12" class="edge">
<title>BB9&#45;&gt;BB9</title>
<path fill="none" stroke="black" d="M882.03,-203.86C901.14,-201.07 914.69,-193.2 914.69,-180.25 914.69,-169.72 905.75,-162.56 892.14,-158.74"/>
<polygon fill="black" stroke="black" points="892.53,-155.25 882.03,-156.64 891.1,-162.1 892.53,-155.25"/>
</g>
<!-- BB10 -->
<g id="node11" class="node">
<title>BB10</title>
<ellipse fill="none" stroke="black" cx="711.84" cy="-48.08" rx="113.69" ry="48.17"/>
<text text-anchor="middle" x="711.84" y="-66.88" font-family="Times New Roman,serif" font-size="14.00">[63..67)</text>
<text text-anchor="middle" x="711.84" y="-51.88" font-family="Times New Roman,serif" font-size="14.00">Count: 2</text>
<text text-anchor="middle" x="711.84" y="-36.88" font-family="Times New Roman,serif" font-size="14.00">Normalized count: Infinity</text>
<text text-anchor="middle" x="711.84" y="-21.88" font-family="Times New Roman,serif" font-size="14.00">Samples weight: 0.00</text>
</g>
<!-- BB9&#45;&gt;BB10 -->
<g id="edge13" class="edge">
<title>BB9&#45;&gt;BB10</title>
<path fill="none" stroke="black" d="M757.61,-132.99C752.54,-123.69 747.16,-113.82 741.94,-104.25"/>
<polygon fill="black" stroke="black" points="744.86,-102.3 736.99,-95.19 738.71,-105.65 744.86,-102.3"/>
</g>
<!-- BB10&#45;&gt;BB11 -->
<g id="edge14" class="edge">
<title>BB10&#45;&gt;BB11</title>
<path fill="none" stroke="black" d="M677.98,-94.05C670.71,-105.88 663.99,-119.02 659.84,-132.17 632.95,-217.52 634.11,-322.48 638.32,-386.15"/>
<polygon fill="black" stroke="black" points="634.84,-386.66 639.04,-396.39 641.83,-386.16 634.84,-386.66"/>
</g>
<!-- BB11&#45;&gt;BB8 -->
<g id="edge15" class="edge">
<title>BB11&#45;&gt;BB8</title>
<path fill="none" stroke="black" d="M690.13,-400.24C702.67,-388.49 716.36,-375.68 729.26,-363.59"/>
<polygon fill="black" stroke="black" points="731.85,-365.96 736.76,-356.57 727.07,-360.85 731.85,-365.96"/>
</g>
<!-- BB12 -->
<g id="node13" class="node">
<title>BB12</title>
<ellipse fill="none" stroke="black" cx="505.84" cy="-312.42" rx="104.8" ry="48.17"/>
<text text-anchor="middle" x="505.84" y="-331.22" font-family="Times New Roman,serif" font-size="14.00">[6c..70)</text>
<text text-anchor="middle" x="505.84" y="-316.22" font-family="Times New Roman,serif" font-size="14.00">Count: 0</text>
<text text-anchor="middle" x="505.84" y="-301.22" font-family="Times New Roman,serif" font-size="14.00">Normalized count: NaN</text>
<text text-anchor="middle" x="505.84" y="-286.22" font-family="Times New Roman,serif" font-size="14.00">Samples weight: 0.00</text>
</g>
<!-- BB11&#45;&gt;BB12 -->
<g id="edge16" class="edge">
<title>BB11&#45;&gt;BB12</title>
<path fill="none" stroke="black" d="M597.89,-400.24C585.31,-388.37 571.57,-375.41 558.63,-363.21"/>
<polygon fill="black" stroke="black" points="560.8,-360.44 551.13,-356.13 556,-365.54 560.8,-360.44"/>
</g>
<!-- BB12&#45;&gt;BB13 -->
<g id="edge17" class="edge">
<title>BB12&#45;&gt;BB13</title>
<path fill="none" stroke="black" d="M496.96,-360.37C487.33,-423.97 478.46,-539.36 520.84,-624.83 527.98,-639.23 538.88,-652.08 550.87,-663.11"/>
<polygon fill="black" stroke="black" points="548.62,-665.8 558.45,-669.75 553.23,-660.53 548.62,-665.8"/>
</g>
<!-- BB13&#45;&gt;BB7 -->
<g id="edge18" class="edge">
<title>BB13&#45;&gt;BB7</title>
<path fill="none" stroke="black" d="M628.51,-660.92C630.05,-652.55 631.68,-643.74 633.27,-635.11"/>
<polygon fill="black" stroke="black" points="636.74,-635.58 635.11,-625.11 629.86,-634.31 636.74,-635.58"/>
</g>
<!-- BB14 -->
<g id="node15" class="node">
<title>BB14</title>
<ellipse fill="none" stroke="black" cx="879.84" cy="-576.75" rx="104.8" ry="48.17"/>
<text text-anchor="middle" x="879.84" y="-595.55" font-family="Times New Roman,serif" font-size="14.00">[75..7e)</text>
<text text-anchor="middle" x="879.84" y="-580.55" font-family="Times New Roman,serif" font-size="14.00">Count: 0</text>
<text text-anchor="middle" x="879.84" y="-565.55" font-family="Times New Roman,serif" font-size="14.00">Normalized count: NaN</text>
<text text-anchor="middle" x="879.84" y="-550.55" font-family="Times New Roman,serif" font-size="14.00">Samples weight: 0.00</text>
</g>
<!-- BB13&#45;&gt;BB14 -->
<g id="edge19" class="edge">
<title>BB13&#45;&gt;BB14</title>
<path fill="none" stroke="black" d="M689.52,-673.03C723.76,-655.89 765.18,-635.15 800.63,-617.41"/>
<polygon fill="black" stroke="black" points="802.6,-620.33 809.98,-612.73 799.47,-614.07 802.6,-620.33"/>
</g>
<!-- BB15 -->
<g id="node16" class="node">
<title>BB15</title>
<ellipse fill="none" stroke="black" cx="879.84" cy="-444.58" rx="104.8" ry="48.17"/>
<text text-anchor="middle" x="879.84" y="-463.38" font-family="Times New Roman,serif" font-size="14.00">[7e..80)</text>
<text text-anchor="middle" x="879.84" y="-448.38" font-family="Times New Roman,serif" font-size="14.00">Count: 0</text>
<text text-anchor="middle" x="879.84" y="-433.38" font-family="Times New Roman,serif" font-size="14.00">Normalized count: NaN</text>
<text text-anchor="middle" x="879.84" y="-418.38" font-family="Times New Roman,serif" font-size="14.00">Samples weight: 0.00</text>
</g>
<!-- BB14&#45;&gt;BB15 -->
<g id="edge21" class="edge">
<title>BB14&#45;&gt;BB15</title>
<path fill="none" stroke="black" d="M879.84,-528.39C879.84,-520.12 879.84,-511.44 879.84,-502.93"/>
<polygon fill="black" stroke="black" points="883.34,-502.69 879.84,-492.69 876.34,-502.69 883.34,-502.69"/>
</g>
<!-- BB16 -->
<g id="node17" class="node">
<title>BB16</title>
<ellipse fill="none" stroke="black" cx="1106.84" cy="-444.58" rx="104.8" ry="48.17"/>
<text text-anchor="middle" x="1106.84" y="-463.38" font-family="Times New Roman,serif" font-size="14.00">[80..82)</text>
<text text-anchor="middle" x="1106.84" y="-448.38" font-family="Times New Roman,serif" font-size="14.00">Count: 0</text>
<text text-anchor="middle" x="1106.84" y="-433.38" font-family="Times New Roman,serif" font-size="14.00">Normalized count: NaN</text>
<text text-anchor="middle" x="1106.84" y="-418.38" font-family="Times New Roman,serif" font-size="14.00">Samples weight: 0.00</text>
</g>
<!-- BB14&#45;&gt;BB16 -->
<g id="edge20" class="edge">
<title>BB14&#45;&gt;BB16</title>
<path fill="none" stroke="black" d="M944.29,-538.8C972.08,-522.86 1004.74,-504.13 1033.46,-487.66"/>
<polygon fill="black" stroke="black" points="1035.31,-490.64 1042.24,-482.63 1031.83,-484.57 1035.31,-490.64"/>
</g>
</g>
</svg>
