<?xml version="1.0" encoding="UTF-8" standalone="no"?>
<!DOCTYPE svg PUBLIC "-//W3C//DTD SVG 1.1//EN"
 "http://www.w3.org/Graphics/SVG/1.1/DTD/svg11.dtd">
<!-- Generated by graphviz version 2.47.0 (20210316.0004)
 -->
<!-- Title: G Pages: 1 -->
<svg width="985pt" height="971pt"
 viewBox="0.00 0.00 984.72 970.58" xmlns="http://www.w3.org/2000/svg" xmlns:xlink="http://www.w3.org/1999/xlink">
<g id="graph0" class="graph" transform="scale(1 1) rotate(0) translate(4 966.58)">
<title>G</title>
<polygon fill="white" stroke="transparent" points="-4,4 -4,-966.58 980.72,-966.58 980.72,4 -4,4"/>
<!-- BB0 -->
<g id="node1" class="node">
<title>BB0</title>
<ellipse fill="none" stroke="black" cx="219.36" cy="-925.1" rx="105.22" ry="37.45"/>
<text text-anchor="middle" x="219.36" y="-936.4" font-family="Times New Roman,serif" font-size="14.00">[0..3)</text>
<text text-anchor="middle" x="219.36" y="-921.4" font-family="Times New Roman,serif" font-size="14.00">Normalized Count: 1.00</text>
<text text-anchor="middle" x="219.36" y="-906.4" font-family="Times New Roman,serif" font-size="14.00">Samples weight: 0.00</text>
</g>
<!-- BB1 -->
<g id="node2" class="node">
<title>BB1</title>
<ellipse fill="none" stroke="black" cx="105.36" cy="-814.15" rx="105.22" ry="37.45"/>
<text text-anchor="middle" x="105.36" y="-825.45" font-family="Times New Roman,serif" font-size="14.00">[3..5)</text>
<text text-anchor="middle" x="105.36" y="-810.45" font-family="Times New Roman,serif" font-size="14.00">Normalized Count: 0.44</text>
<text text-anchor="middle" x="105.36" y="-795.45" font-family="Times New Roman,serif" font-size="14.00">Samples weight: 0.00</text>
</g>
<!-- BB0&#45;&gt;BB1 -->
<g id="edge2" class="edge">
<title>BB0&#45;&gt;BB1</title>
<path fill="none" stroke="black" d="M183.29,-889.63C172.27,-879.09 160.03,-867.4 148.58,-856.46"/>
<polygon fill="black" stroke="black" points="150.84,-853.78 141.19,-849.4 146.01,-858.84 150.84,-853.78"/>
</g>
<!-- BB2 -->
<g id="node3" class="node">
<title>BB2</title>
<ellipse fill="none" stroke="black" cx="334.36" cy="-814.15" rx="105.22" ry="37.45"/>
<text text-anchor="middle" x="334.36" y="-825.45" font-family="Times New Roman,serif" font-size="14.00">[5..a)</text>
<text text-anchor="middle" x="334.36" y="-810.45" font-family="Times New Roman,serif" font-size="14.00">Normalized Count: 2.78</text>
<text text-anchor="middle" x="334.36" y="-795.45" font-family="Times New Roman,serif" font-size="14.00">Samples weight: 0.01</text>
</g>
<!-- BB0&#45;&gt;BB2 -->
<g id="edge1" class="edge">
<title>BB0&#45;&gt;BB2</title>
<path fill="none" stroke="black" d="M255.75,-889.63C266.87,-879.09 279.21,-867.4 290.76,-856.46"/>
<polygon fill="black" stroke="black" points="293.36,-858.82 298.21,-849.4 288.54,-853.74 293.36,-858.82"/>
</g>
<!-- BB3 -->
<g id="node4" class="node">
<title>BB3</title>
<ellipse fill="none" stroke="black" cx="220.36" cy="-703.2" rx="105.22" ry="37.45"/>
<text text-anchor="middle" x="220.36" y="-714.5" font-family="Times New Roman,serif" font-size="14.00">[a..c)</text>
<text text-anchor="middle" x="220.36" y="-699.5" font-family="Times New Roman,serif" font-size="14.00">Normalized Count: 0.59</text>
<text text-anchor="middle" x="220.36" y="-684.5" font-family="Times New Roman,serif" font-size="14.00">Samples weight: 0.00</text>
</g>
<!-- BB2&#45;&gt;BB3 -->
<g id="edge4" class="edge">
<title>BB2&#45;&gt;BB3</title>
<path fill="none" stroke="black" d="M298.29,-778.68C287.27,-768.14 275.03,-756.45 263.58,-745.51"/>
<polygon fill="black" stroke="black" points="265.84,-742.82 256.19,-738.45 261.01,-747.89 265.84,-742.82"/>
</g>
<!-- BB4 -->
<g id="node5" class="node">
<title>BB4</title>
<ellipse fill="none" stroke="black" cx="449.36" cy="-703.2" rx="105.22" ry="37.45"/>
<text text-anchor="middle" x="449.36" y="-714.5" font-family="Times New Roman,serif" font-size="14.00">[c..10)</text>
<text text-anchor="middle" x="449.36" y="-699.5" font-family="Times New Roman,serif" font-size="14.00">Normalized Count: 7.33</text>
<text text-anchor="middle" x="449.36" y="-684.5" font-family="Times New Roman,serif" font-size="14.00">Samples weight: 0.03</text>
</g>
<!-- BB2&#45;&gt;BB4 -->
<g id="edge3" class="edge">
<title>BB2&#45;&gt;BB4</title>
<path fill="none" stroke="black" d="M370.75,-778.68C381.87,-768.14 394.21,-756.45 405.76,-745.51"/>
<polygon fill="black" stroke="black" points="408.36,-747.86 413.21,-738.45 403.54,-742.78 408.36,-747.86"/>
</g>
<!-- BB6 -->
<g id="node7" class="node">
<title>BB6</title>
<ellipse fill="none" stroke="black" cx="449.36" cy="-592.24" rx="105.22" ry="37.45"/>
<text text-anchor="middle" x="449.36" y="-603.54" font-family="Times New Roman,serif" font-size="14.00">[1a..20)</text>
<text text-anchor="middle" x="449.36" y="-588.54" font-family="Times New Roman,serif" font-size="14.00">Normalized Count: 3.48</text>
<text text-anchor="middle" x="449.36" y="-573.54" font-family="Times New Roman,serif" font-size="14.00">Samples weight: 0.02</text>
</g>
<!-- BB4&#45;&gt;BB6 -->
<g id="edge5" class="edge">
<title>BB4&#45;&gt;BB6</title>
<path fill="none" stroke="black" d="M449.36,-665.61C449.36,-657.44 449.36,-648.66 449.36,-640.13"/>
<polygon fill="black" stroke="black" points="452.86,-639.92 449.36,-629.92 445.86,-639.92 452.86,-639.92"/>
</g>
<!-- BB5 -->
<g id="node6" class="node">
<title>BB5</title>
<ellipse fill="none" stroke="black" cx="449.36" cy="-481.29" rx="110.12" ry="37.45"/>
<text text-anchor="middle" x="449.36" y="-492.59" font-family="Times New Roman,serif" font-size="14.00">[10..1a)</text>
<text text-anchor="middle" x="449.36" y="-477.59" font-family="Times New Roman,serif" font-size="14.00">Normalized Count: 33.78</text>
<text text-anchor="middle" x="449.36" y="-462.59" font-family="Times New Roman,serif" font-size="14.00">Samples weight: 0.15</text>
</g>
<!-- BB5&#45;&gt;BB6 -->
<g id="edge6" class="edge">
<title>BB5&#45;&gt;BB6</title>
<path fill="none" stroke="black" d="M455.78,-518.96C456.09,-527.14 456.18,-535.92 456.05,-544.45"/>
<polygon fill="black" stroke="black" points="452.54,-544.57 455.77,-554.66 459.54,-544.76 452.54,-544.57"/>
</g>
<!-- BB6&#45;&gt;BB5 -->
<g id="edge7" class="edge">
<title>BB6&#45;&gt;BB5</title>
<path fill="none" stroke="black" d="M442.94,-554.66C442.63,-546.49 442.54,-537.71 442.67,-529.18"/>
<polygon fill="black" stroke="black" points="446.17,-529.05 442.94,-518.96 439.17,-528.86 446.17,-529.05"/>
</g>
<!-- BB7 -->
<g id="node8" class="node">
<title>BB7</title>
<ellipse fill="none" stroke="black" cx="683.36" cy="-481.29" rx="105.22" ry="37.45"/>
<text text-anchor="middle" x="683.36" y="-492.59" font-family="Times New Roman,serif" font-size="14.00">[20..22)</text>
<text text-anchor="middle" x="683.36" y="-477.59" font-family="Times New Roman,serif" font-size="14.00">Normalized Count: 0.37</text>
<text text-anchor="middle" x="683.36" y="-462.59" font-family="Times New Roman,serif" font-size="14.00">Samples weight: 0.00</text>
</g>
<!-- BB6&#45;&gt;BB7 -->
<g id="edge8" class="edge">
<title>BB6&#45;&gt;BB7</title>
<path fill="none" stroke="black" d="M512.07,-562.05C542.62,-547.82 579.53,-530.63 611.25,-515.87"/>
<polygon fill="black" stroke="black" points="612.89,-518.96 620.48,-511.57 609.94,-512.62 612.89,-518.96"/>
</g>
<!-- BB8 -->
<g id="node9" class="node">
<title>BB8</title>
<ellipse fill="none" stroke="black" cx="683.36" cy="-370.34" rx="110.12" ry="37.45"/>
<text text-anchor="middle" x="683.36" y="-381.64" font-family="Times New Roman,serif" font-size="14.00">[22..2b)</text>
<text text-anchor="middle" x="683.36" y="-366.64" font-family="Times New Roman,serif" font-size="14.00">Normalized Count: 14.41</text>
<text text-anchor="middle" x="683.36" y="-351.64" font-family="Times New Roman,serif" font-size="14.00">Samples weight: 0.06</text>
</g>
<!-- BB7&#45;&gt;BB8 -->
<g id="edge9" class="edge">
<title>BB7&#45;&gt;BB8</title>
<path fill="none" stroke="black" d="M683.36,-443.71C683.36,-435.53 683.36,-426.75 683.36,-418.23"/>
<polygon fill="black" stroke="black" points="686.86,-418.01 683.36,-408.01 679.86,-418.01 686.86,-418.01"/>
</g>
<!-- BB10 -->
<g id="node11" class="node">
<title>BB10</title>
<ellipse fill="none" stroke="black" cx="614.36" cy="-259.38" rx="110.12" ry="37.45"/>
<text text-anchor="middle" x="614.36" y="-270.68" font-family="Times New Roman,serif" font-size="14.00">[47..4c)</text>
<text text-anchor="middle" x="614.36" y="-255.68" font-family="Times New Roman,serif" font-size="14.00">Normalized Count: 14.63</text>
<text text-anchor="middle" x="614.36" y="-240.68" font-family="Times New Roman,serif" font-size="14.00">Samples weight: 0.07</text>
</g>
<!-- BB8&#45;&gt;BB10 -->
<g id="edge10" class="edge">
<title>BB8&#45;&gt;BB10</title>
<path fill="none" stroke="black" d="M660.57,-333.36C654.8,-324.25 648.54,-314.35 642.54,-304.87"/>
<polygon fill="black" stroke="black" points="645.43,-302.9 637.12,-296.32 639.51,-306.64 645.43,-302.9"/>
</g>
<!-- BB9 -->
<g id="node10" class="node">
<title>BB9</title>
<ellipse fill="none" stroke="black" cx="494.36" cy="-148.43" rx="110.12" ry="37.45"/>
<text text-anchor="middle" x="494.36" y="-159.73" font-family="Times New Roman,serif" font-size="14.00">[2b..47)</text>
<text text-anchor="middle" x="494.36" y="-144.73" font-family="Times New Roman,serif" font-size="14.00">Normalized Count: 75.41</text>
<text text-anchor="middle" x="494.36" y="-129.73" font-family="Times New Roman,serif" font-size="14.00">Samples weight: 0.34</text>
</g>
<!-- BB9&#45;&gt;BB10 -->
<g id="edge11" class="edge">
<title>BB9&#45;&gt;BB10</title>
<path fill="none" stroke="black" d="M537.57,-182.95C549.62,-193.45 562.63,-205.18 574.49,-216.19"/>
<polygon fill="black" stroke="black" points="572.39,-219.03 582.08,-223.31 577.18,-213.92 572.39,-219.03"/>
</g>
<!-- BB10&#45;&gt;BB9 -->
<g id="edge12" class="edge">
<title>BB10&#45;&gt;BB9</title>
<path fill="none" stroke="black" d="M571.09,-224.8C559.08,-214.34 546.12,-202.67 534.3,-191.69"/>
<polygon fill="black" stroke="black" points="536.42,-188.88 526.73,-184.59 531.64,-193.99 536.42,-188.88"/>
</g>
<!-- BB11 -->
<g id="node12" class="node">
<title>BB11</title>
<ellipse fill="none" stroke="black" cx="733.36" cy="-148.43" rx="110.12" ry="37.45"/>
<text text-anchor="middle" x="733.36" y="-159.73" font-family="Times New Roman,serif" font-size="14.00">[4c..55)</text>
<text text-anchor="middle" x="733.36" y="-144.73" font-family="Times New Roman,serif" font-size="14.00">Normalized Count: 56.15</text>
<text text-anchor="middle" x="733.36" y="-129.73" font-family="Times New Roman,serif" font-size="14.00">Samples weight: 0.25</text>
</g>
<!-- BB10&#45;&gt;BB11 -->
<g id="edge13" class="edge">
<title>BB10&#45;&gt;BB11</title>
<path fill="none" stroke="black" d="M652.01,-223.91C663.41,-213.48 676.04,-201.91 687.89,-191.06"/>
<polygon fill="black" stroke="black" points="690.53,-193.39 695.54,-184.05 685.8,-188.22 690.53,-193.39"/>
</g>
<!-- BB12 -->
<g id="node13" class="node">
<title>BB12</title>
<ellipse fill="none" stroke="black" cx="642.36" cy="-37.48" rx="105.22" ry="37.45"/>
<text text-anchor="middle" x="642.36" y="-48.78" font-family="Times New Roman,serif" font-size="14.00">[55..57)</text>
<text text-anchor="middle" x="642.36" y="-33.78" font-family="Times New Roman,serif" font-size="14.00">Normalized Count: 3.78</text>
<text text-anchor="middle" x="642.36" y="-18.78" font-family="Times New Roman,serif" font-size="14.00">Samples weight: 0.02</text>
</g>
<!-- BB11&#45;&gt;BB12 -->
<g id="edge15" class="edge">
<title>BB11&#45;&gt;BB12</title>
<path fill="none" stroke="black" d="M703.81,-112.06C695.71,-102.35 686.82,-91.71 678.39,-81.62"/>
<polygon fill="black" stroke="black" points="680.85,-79.1 671.76,-73.67 675.48,-83.59 680.85,-79.1"/>
</g>
<!-- BB13 -->
<g id="node14" class="node">
<title>BB13</title>
<ellipse fill="none" stroke="black" cx="871.36" cy="-37.48" rx="105.22" ry="37.45"/>
<text text-anchor="middle" x="871.36" y="-48.78" font-family="Times New Roman,serif" font-size="14.00">[57..64)</text>
<text text-anchor="middle" x="871.36" y="-33.78" font-family="Times New Roman,serif" font-size="14.00">Normalized Count: 8.74</text>
<text text-anchor="middle" x="871.36" y="-18.78" font-family="Times New Roman,serif" font-size="14.00">Samples weight: 0.04</text>
</g>
<!-- BB11&#45;&gt;BB13 -->
<g id="edge14" class="edge">
<title>BB11&#45;&gt;BB13</title>
<path fill="none" stroke="black" d="M776.27,-113.55C790.42,-102.38 806.29,-89.85 820.95,-78.28"/>
<polygon fill="black" stroke="black" points="823.27,-80.9 828.95,-71.96 818.93,-75.41 823.27,-80.9"/>
</g>
<!-- BB13&#45;&gt;BB8 -->
<g id="edge16" class="edge">
<title>BB13&#45;&gt;BB8</title>
<path fill="none" stroke="black" d="M872.7,-75.02C872.45,-105.94 868.77,-150.71 852.36,-185.91 825.51,-243.49 773.93,-295.32 734.78,-329.07"/>
<polygon fill="black" stroke="black" points="732.48,-326.44 727.12,-335.58 737.01,-331.77 732.48,-326.44"/>
</g>
</g>
</svg>
