<?xml version="1.0" encoding="UTF-8" standalone="no"?>
<!DOCTYPE svg PUBLIC "-//W3C//DTD SVG 1.1//EN"
 "http://www.w3.org/Graphics/SVG/1.1/DTD/svg11.dtd">
<!-- Generated by graphviz version 2.47.0 (20210316.0004)
 -->
<!-- Title: G Pages: 1 -->
<svg width="400pt" height="331pt"
 viewBox="0.00 0.00 400.15 330.96" xmlns="http://www.w3.org/2000/svg" xmlns:xlink="http://www.w3.org/1999/xlink">
<g id="graph0" class="graph" transform="scale(1 1) rotate(0) translate(4 326.96)">
<title>G</title>
<polygon fill="white" stroke="transparent" points="-4,4 -4,-326.96 396.15,-326.96 396.15,4 -4,4"/>
<!-- BB0 -->
<g id="node1" class="node">
<title>BB0</title>
<ellipse fill="none" stroke="black" cx="194.72" cy="-296.09" rx="33.47" ry="26.74"/>
<text text-anchor="middle" x="194.72" y="-299.89" font-family="Times New Roman,serif" font-size="14.00">[0..9)</text>
<text text-anchor="middle" x="194.72" y="-284.89" font-family="Times New Roman,serif" font-size="14.00">0.27</text>
</g>
<!-- BB1 -->
<g id="node2" class="node">
<title>BB1</title>
<ellipse fill="none" stroke="black" cx="143.72" cy="-206.35" rx="37.45" ry="26.74"/>
<text text-anchor="middle" x="143.72" y="-210.15" font-family="Times New Roman,serif" font-size="14.00">[9..11)</text>
<text text-anchor="middle" x="143.72" y="-195.15" font-family="Times New Roman,serif" font-size="14.00">0.17</text>
</g>
<!-- BB0&#45;&gt;BB1 -->
<g id="edge2" class="edge">
<title>BB0&#45;&gt;BB1</title>
<path fill="none" stroke="black" d="M181.05,-271.58C175.48,-262 168.95,-250.75 162.92,-240.38"/>
<polygon fill="black" stroke="black" points="165.83,-238.43 157.78,-231.54 159.78,-241.94 165.83,-238.43"/>
</g>
<!-- BB4 -->
<g id="node5" class="node">
<title>BB4</title>
<ellipse fill="none" stroke="black" cx="246.72" cy="-206.35" rx="43.27" ry="26.74"/>
<text text-anchor="middle" x="246.72" y="-210.15" font-family="Times New Roman,serif" font-size="14.00">[2b..34)</text>
<text text-anchor="middle" x="246.72" y="-195.15" font-family="Times New Roman,serif" font-size="14.00">0.09</text>
</g>
<!-- BB0&#45;&gt;BB4 -->
<g id="edge1" class="edge">
<title>BB0&#45;&gt;BB4</title>
<path fill="none" stroke="black" d="M208.65,-271.58C214.29,-262.08 220.89,-250.94 227,-240.63"/>
<polygon fill="black" stroke="black" points="230.11,-242.23 232.2,-231.85 224.09,-238.67 230.11,-242.23"/>
</g>
<!-- BB2 -->
<g id="node3" class="node">
<title>BB2</title>
<ellipse fill="none" stroke="black" cx="41.72" cy="-116.61" rx="41.94" ry="26.74"/>
<text text-anchor="middle" x="41.72" y="-120.41" font-family="Times New Roman,serif" font-size="14.00">[11..1e)</text>
<text text-anchor="middle" x="41.72" y="-105.41" font-family="Times New Roman,serif" font-size="14.00">0.02</text>
</g>
<!-- BB1&#45;&gt;BB2 -->
<g id="edge4" class="edge">
<title>BB1&#45;&gt;BB2</title>
<path fill="none" stroke="black" d="M120.32,-185.22C106.49,-173.33 88.8,-158.11 73.7,-145.12"/>
<polygon fill="black" stroke="black" points="75.94,-142.43 66.08,-138.56 71.37,-147.74 75.94,-142.43"/>
</g>
<!-- BB3 -->
<g id="node4" class="node">
<title>BB3</title>
<ellipse fill="none" stroke="black" cx="143.72" cy="-116.61" rx="42.35" ry="26.74"/>
<text text-anchor="middle" x="143.72" y="-120.41" font-family="Times New Roman,serif" font-size="14.00">[1e..2b)</text>
<text text-anchor="middle" x="143.72" y="-105.41" font-family="Times New Roman,serif" font-size="14.00">0.31</text>
</g>
<!-- BB1&#45;&gt;BB3 -->
<g id="edge3" class="edge">
<title>BB1&#45;&gt;BB3</title>
<path fill="none" stroke="black" d="M143.72,-179.03C143.72,-171.06 143.72,-162.17 143.72,-153.68"/>
<polygon fill="black" stroke="black" points="147.22,-153.61 143.72,-143.61 140.22,-153.61 147.22,-153.61"/>
</g>
<!-- BB5 -->
<g id="node6" class="node">
<title>BB5</title>
<ellipse fill="none" stroke="black" cx="246.72" cy="-116.61" rx="42.35" ry="26.74"/>
<text text-anchor="middle" x="246.72" y="-120.41" font-family="Times New Roman,serif" font-size="14.00">[34..3c)</text>
<text text-anchor="middle" x="246.72" y="-105.41" font-family="Times New Roman,serif" font-size="14.00">0.02</text>
</g>
<!-- BB4&#45;&gt;BB5 -->
<g id="edge6" class="edge">
<title>BB4&#45;&gt;BB5</title>
<path fill="none" stroke="black" d="M246.72,-179.03C246.72,-171.06 246.72,-162.17 246.72,-153.68"/>
<polygon fill="black" stroke="black" points="250.22,-153.61 246.72,-143.61 243.22,-153.61 250.22,-153.61"/>
</g>
<!-- BB8 -->
<g id="node9" class="node">
<title>BB8</title>
<ellipse fill="none" stroke="black" cx="349.72" cy="-116.61" rx="42.35" ry="26.74"/>
<text text-anchor="middle" x="349.72" y="-120.41" font-family="Times New Roman,serif" font-size="14.00">[55..56)</text>
<text text-anchor="middle" x="349.72" y="-105.41" font-family="Times New Roman,serif" font-size="14.00">0.00</text>
</g>
<!-- BB4&#45;&gt;BB8 -->
<g id="edge5" class="edge">
<title>BB4&#45;&gt;BB8</title>
<path fill="none" stroke="black" d="M271.65,-184.11C285.32,-172.47 302.42,-157.91 317.13,-145.37"/>
<polygon fill="black" stroke="black" points="319.67,-147.8 325.02,-138.65 315.13,-142.47 319.67,-147.8"/>
</g>
<!-- BB6 -->
<g id="node7" class="node">
<title>BB6</title>
<ellipse fill="none" stroke="black" cx="246.72" cy="-26.87" rx="42.35" ry="26.74"/>
<text text-anchor="middle" x="246.72" y="-30.67" font-family="Times New Roman,serif" font-size="14.00">[3c..49)</text>
<text text-anchor="middle" x="246.72" y="-15.67" font-family="Times New Roman,serif" font-size="14.00">0.02</text>
</g>
<!-- BB5&#45;&gt;BB6 -->
<g id="edge8" class="edge">
<title>BB5&#45;&gt;BB6</title>
<path fill="none" stroke="black" d="M246.72,-89.29C246.72,-81.32 246.72,-72.43 246.72,-63.94"/>
<polygon fill="black" stroke="black" points="250.22,-63.87 246.72,-53.87 243.22,-63.87 250.22,-63.87"/>
</g>
<!-- BB7 -->
<g id="node8" class="node">
<title>BB7</title>
<ellipse fill="none" stroke="black" cx="349.72" cy="-26.87" rx="42.35" ry="26.74"/>
<text text-anchor="middle" x="349.72" y="-30.67" font-family="Times New Roman,serif" font-size="14.00">[49..55)</text>
<text text-anchor="middle" x="349.72" y="-15.67" font-family="Times New Roman,serif" font-size="14.00">0.10</text>
</g>
<!-- BB5&#45;&gt;BB7 -->
<g id="edge7" class="edge">
<title>BB5&#45;&gt;BB7</title>
<path fill="none" stroke="black" d="M271.39,-94.59C285.05,-82.96 302.2,-68.35 316.97,-55.77"/>
<polygon fill="black" stroke="black" points="319.55,-58.17 324.89,-49.02 315.01,-52.84 319.55,-58.17"/>
</g>
<!-- BB7&#45;&gt;BB8 -->
<g id="edge9" class="edge">
<title>BB7&#45;&gt;BB8</title>
<path fill="none" stroke="black" d="M349.72,-53.87C349.72,-61.82 349.72,-70.7 349.72,-79.2"/>
<polygon fill="black" stroke="black" points="346.22,-79.29 349.72,-89.29 353.22,-79.29 346.22,-79.29"/>
</g>
</g>
</svg>
