<?xml version="1.0" encoding="UTF-8" standalone="no"?>
<!DOCTYPE svg PUBLIC "-//W3C//DTD SVG 1.1//EN"
 "http://www.w3.org/Graphics/SVG/1.1/DTD/svg11.dtd">
<!-- Generated by graphviz version 2.47.0 (20210316.0004)
 -->
<!-- Title: G Pages: 1 -->
<svg width="550pt" height="527pt"
 viewBox="0.00 0.00 549.72 526.77" xmlns="http://www.w3.org/2000/svg" xmlns:xlink="http://www.w3.org/1999/xlink">
<g id="graph0" class="graph" transform="scale(1 1) rotate(0) translate(4 522.77)">
<title>G</title>
<polygon fill="white" stroke="transparent" points="-4,4 -4,-522.77 545.72,-522.77 545.72,4 -4,4"/>
<!-- BB0 -->
<g id="node1" class="node">
<title>BB0</title>
<ellipse fill="none" stroke="black" cx="321.36" cy="-481.29" rx="105.22" ry="37.45"/>
<text text-anchor="middle" x="321.36" y="-492.59" font-family="Times New Roman,serif" font-size="14.00">[0..e)</text>
<text text-anchor="middle" x="321.36" y="-477.59" font-family="Times New Roman,serif" font-size="14.00">Normalized Count: 1.00</text>
<text text-anchor="middle" x="321.36" y="-462.59" font-family="Times New Roman,serif" font-size="14.00">Samples weight: 0.06</text>
</g>
<!-- BB1 -->
<g id="node2" class="node">
<title>BB1</title>
<ellipse fill="none" stroke="black" cx="207.36" cy="-370.34" rx="105.22" ry="37.45"/>
<text text-anchor="middle" x="207.36" y="-381.64" font-family="Times New Roman,serif" font-size="14.00">[e..16)</text>
<text text-anchor="middle" x="207.36" y="-366.64" font-family="Times New Roman,serif" font-size="14.00">Normalized Count: 0.92</text>
<text text-anchor="middle" x="207.36" y="-351.64" font-family="Times New Roman,serif" font-size="14.00">Samples weight: 0.06</text>
</g>
<!-- BB0&#45;&gt;BB1 -->
<g id="edge2" class="edge">
<title>BB0&#45;&gt;BB1</title>
<path fill="none" stroke="black" d="M285.29,-445.82C274.27,-435.28 262.03,-423.59 250.58,-412.65"/>
<polygon fill="black" stroke="black" points="252.84,-409.96 243.19,-405.59 248.01,-415.03 252.84,-409.96"/>
</g>
<!-- BB6 -->
<g id="node7" class="node">
<title>BB6</title>
<ellipse fill="none" stroke="black" cx="436.36" cy="-370.34" rx="105.22" ry="37.45"/>
<text text-anchor="middle" x="436.36" y="-381.64" font-family="Times New Roman,serif" font-size="14.00">[62..64)</text>
<text text-anchor="middle" x="436.36" y="-366.64" font-family="Times New Roman,serif" font-size="14.00">Normalized Count: 0.97</text>
<text text-anchor="middle" x="436.36" y="-351.64" font-family="Times New Roman,serif" font-size="14.00">Samples weight: 0.06</text>
</g>
<!-- BB0&#45;&gt;BB6 -->
<g id="edge1" class="edge">
<title>BB0&#45;&gt;BB6</title>
<path fill="none" stroke="black" d="M357.75,-445.82C368.87,-435.28 381.21,-423.59 392.76,-412.65"/>
<polygon fill="black" stroke="black" points="395.36,-415 400.21,-405.59 390.54,-409.92 395.36,-415"/>
</g>
<!-- BB2 -->
<g id="node3" class="node">
<title>BB2</title>
<ellipse fill="none" stroke="black" cx="255.36" cy="-259.38" rx="105.22" ry="37.45"/>
<text text-anchor="middle" x="255.36" y="-270.68" font-family="Times New Roman,serif" font-size="14.00">[16..1e)</text>
<text text-anchor="middle" x="255.36" y="-255.68" font-family="Times New Roman,serif" font-size="14.00">Normalized Count: 3.01</text>
<text text-anchor="middle" x="255.36" y="-240.68" font-family="Times New Roman,serif" font-size="14.00">Samples weight: 0.20</text>
</g>
<!-- BB1&#45;&gt;BB2 -->
<g id="edge3" class="edge">
<title>BB1&#45;&gt;BB2</title>
<path fill="none" stroke="black" d="M223.34,-333.06C227.19,-324.33 231.34,-314.89 235.35,-305.81"/>
<polygon fill="black" stroke="black" points="238.62,-307.07 239.45,-296.5 232.21,-304.24 238.62,-307.07"/>
</g>
<!-- BB3 -->
<g id="node4" class="node">
<title>BB3</title>
<ellipse fill="none" stroke="black" cx="105.36" cy="-148.43" rx="105.22" ry="37.45"/>
<text text-anchor="middle" x="105.36" y="-159.73" font-family="Times New Roman,serif" font-size="14.00">[1e..2c)</text>
<text text-anchor="middle" x="105.36" y="-144.73" font-family="Times New Roman,serif" font-size="14.00">Normalized Count: 2.53</text>
<text text-anchor="middle" x="105.36" y="-129.73" font-family="Times New Roman,serif" font-size="14.00">Samples weight: 0.16</text>
</g>
<!-- BB2&#45;&gt;BB3 -->
<g id="edge5" class="edge">
<title>BB2&#45;&gt;BB3</title>
<path fill="none" stroke="black" d="M209.95,-225.4C193.94,-213.77 175.79,-200.59 159.16,-188.51"/>
<polygon fill="black" stroke="black" points="160.76,-185.35 150.62,-182.3 156.65,-191.01 160.76,-185.35"/>
</g>
<!-- BB5 -->
<g id="node6" class="node">
<title>BB5</title>
<ellipse fill="none" stroke="black" cx="334.36" cy="-148.43" rx="105.22" ry="37.45"/>
<text text-anchor="middle" x="334.36" y="-159.73" font-family="Times New Roman,serif" font-size="14.00">[46..62)</text>
<text text-anchor="middle" x="334.36" y="-144.73" font-family="Times New Roman,serif" font-size="14.00">Normalized Count: 2.73</text>
<text text-anchor="middle" x="334.36" y="-129.73" font-family="Times New Roman,serif" font-size="14.00">Samples weight: 0.18</text>
</g>
<!-- BB2&#45;&gt;BB5 -->
<g id="edge4" class="edge">
<title>BB2&#45;&gt;BB5</title>
<path fill="none" stroke="black" d="M275.05,-222.41C281.62,-212.82 289.13,-202.36 296.56,-192.44"/>
<polygon fill="black" stroke="black" points="299.51,-194.34 302.76,-184.26 293.93,-190.11 299.51,-194.34"/>
</g>
<!-- BB4 -->
<g id="node5" class="node">
<title>BB4</title>
<ellipse fill="none" stroke="black" cx="219.36" cy="-37.48" rx="105.22" ry="37.45"/>
<text text-anchor="middle" x="219.36" y="-48.78" font-family="Times New Roman,serif" font-size="14.00">[2c..46)</text>
<text text-anchor="middle" x="219.36" y="-33.78" font-family="Times New Roman,serif" font-size="14.00">Normalized Count: 4.26</text>
<text text-anchor="middle" x="219.36" y="-18.78" font-family="Times New Roman,serif" font-size="14.00">Samples weight: 0.28</text>
</g>
<!-- BB3&#45;&gt;BB4 -->
<g id="edge6" class="edge">
<title>BB3&#45;&gt;BB4</title>
<path fill="none" stroke="black" d="M141.43,-112.96C152.45,-102.42 164.69,-90.73 176.14,-79.79"/>
<polygon fill="black" stroke="black" points="178.71,-82.17 183.52,-72.73 173.88,-77.1 178.71,-82.17"/>
</g>
<!-- BB4&#45;&gt;BB4 -->
<g id="edge7" class="edge">
<title>BB4&#45;&gt;BB4</title>
<path fill="none" stroke="black" d="M308.35,-57.57C328.22,-55.72 342.72,-49.02 342.72,-37.48 342.72,-28 332.96,-21.79 318.48,-18.85"/>
<polygon fill="black" stroke="black" points="318.75,-15.35 308.35,-17.38 317.74,-22.28 318.75,-15.35"/>
</g>
<!-- BB4&#45;&gt;BB5 -->
<g id="edge8" class="edge">
<title>BB4&#45;&gt;BB5</title>
<path fill="none" stroke="black" d="M255.51,-72.73C266.61,-83.24 278.95,-94.94 290.51,-105.89"/>
<polygon fill="black" stroke="black" points="288.31,-108.62 297.97,-112.96 293.12,-103.54 288.31,-108.62"/>
</g>
<!-- BB5&#45;&gt;BB2 -->
<g id="edge9" class="edge">
<title>BB5&#45;&gt;BB2</title>
<path fill="none" stroke="black" d="M314.69,-185.37C308.11,-194.98 300.58,-205.46 293.13,-215.41"/>
<polygon fill="black" stroke="black" points="290.17,-213.53 286.91,-223.61 295.74,-217.76 290.17,-213.53"/>
</g>
<!-- BB5&#45;&gt;BB6 -->
<g id="edge10" class="edge">
<title>BB5&#45;&gt;BB6</title>
<path fill="none" stroke="black" d="M351.97,-185.48C357.59,-197.08 363.79,-210.01 369.36,-221.91 385.34,-256.02 402.95,-294.81 416.1,-324.04"/>
<polygon fill="black" stroke="black" points="412.92,-325.49 420.21,-333.18 419.3,-322.62 412.92,-325.49"/>
</g>
</g>
</svg>
