<?xml version="1.0" encoding="UTF-8" standalone="no"?>
<!DOCTYPE svg PUBLIC "-//W3C//DTD SVG 1.1//EN"
 "http://www.w3.org/Graphics/SVG/1.1/DTD/svg11.dtd">
<!-- Generated by graphviz version 2.47.0 (20210316.0004)
 -->
<!-- Title: G Pages: 1 -->
<svg width="906pt" height="416pt"
 viewBox="0.00 0.00 905.72 415.81" xmlns="http://www.w3.org/2000/svg" xmlns:xlink="http://www.w3.org/1999/xlink">
<g id="graph0" class="graph" transform="scale(1 1) rotate(0) translate(4 411.81)">
<title>G</title>
<polygon fill="white" stroke="transparent" points="-4,4 -4,-411.81 901.72,-411.81 901.72,4 -4,4"/>
<!-- BB0 -->
<g id="node1" class="node">
<title>BB0</title>
<ellipse fill="none" stroke="black" cx="448.36" cy="-370.34" rx="105.22" ry="37.45"/>
<text text-anchor="middle" x="448.36" y="-381.64" font-family="Times New Roman,serif" font-size="14.00">[0..27)</text>
<text text-anchor="middle" x="448.36" y="-366.64" font-family="Times New Roman,serif" font-size="14.00">Normalized Count: 1.00</text>
<text text-anchor="middle" x="448.36" y="-351.64" font-family="Times New Roman,serif" font-size="14.00">Samples weight: 0.55</text>
</g>
<!-- BB1 -->
<g id="node2" class="node">
<title>BB1</title>
<ellipse fill="none" stroke="black" cx="563.36" cy="-259.38" rx="105.22" ry="37.45"/>
<text text-anchor="middle" x="563.36" y="-270.68" font-family="Times New Roman,serif" font-size="14.00">[27..2f)</text>
<text text-anchor="middle" x="563.36" y="-255.68" font-family="Times New Roman,serif" font-size="14.00">Normalized Count: 0.14</text>
<text text-anchor="middle" x="563.36" y="-240.68" font-family="Times New Roman,serif" font-size="14.00">Samples weight: 0.08</text>
</g>
<!-- BB0&#45;&gt;BB1 -->
<g id="edge2" class="edge">
<title>BB0&#45;&gt;BB1</title>
<path fill="none" stroke="black" d="M484.75,-334.86C495.87,-324.33 508.21,-312.63 519.76,-301.69"/>
<polygon fill="black" stroke="black" points="522.36,-304.05 527.21,-294.63 517.54,-298.97 522.36,-304.05"/>
</g>
<!-- BB2 -->
<g id="node3" class="node">
<title>BB2</title>
<ellipse fill="none" stroke="black" cx="334.36" cy="-259.38" rx="105.22" ry="37.45"/>
<text text-anchor="middle" x="334.36" y="-270.68" font-family="Times New Roman,serif" font-size="14.00">[2f..6b)</text>
<text text-anchor="middle" x="334.36" y="-255.68" font-family="Times New Roman,serif" font-size="14.00">Normalized Count: 0.31</text>
<text text-anchor="middle" x="334.36" y="-240.68" font-family="Times New Roman,serif" font-size="14.00">Samples weight: 0.17</text>
</g>
<!-- BB0&#45;&gt;BB2 -->
<g id="edge1" class="edge">
<title>BB0&#45;&gt;BB2</title>
<path fill="none" stroke="black" d="M412.29,-334.86C401.27,-324.33 389.03,-312.63 377.58,-301.69"/>
<polygon fill="black" stroke="black" points="379.84,-299.01 370.19,-294.63 375.01,-304.07 379.84,-299.01"/>
</g>
<!-- BB6 -->
<g id="node7" class="node">
<title>BB6</title>
<ellipse fill="none" stroke="black" cx="563.36" cy="-148.43" rx="105.22" ry="37.45"/>
<text text-anchor="middle" x="563.36" y="-159.73" font-family="Times New Roman,serif" font-size="14.00">[7c..84)</text>
<text text-anchor="middle" x="563.36" y="-144.73" font-family="Times New Roman,serif" font-size="14.00">Normalized Count: 0.03</text>
<text text-anchor="middle" x="563.36" y="-129.73" font-family="Times New Roman,serif" font-size="14.00">Samples weight: 0.02</text>
</g>
<!-- BB1&#45;&gt;BB6 -->
<g id="edge3" class="edge">
<title>BB1&#45;&gt;BB6</title>
<path fill="none" stroke="black" d="M563.36,-221.8C563.36,-213.63 563.36,-204.85 563.36,-196.32"/>
<polygon fill="black" stroke="black" points="566.86,-196.1 563.36,-186.1 559.86,-196.1 566.86,-196.1"/>
</g>
<!-- BB3 -->
<g id="node4" class="node">
<title>BB3</title>
<ellipse fill="none" stroke="black" cx="105.36" cy="-148.43" rx="105.22" ry="37.45"/>
<text text-anchor="middle" x="105.36" y="-159.73" font-family="Times New Roman,serif" font-size="14.00">[6b..76)</text>
<text text-anchor="middle" x="105.36" y="-144.73" font-family="Times New Roman,serif" font-size="14.00">Normalized Count: 0.28</text>
<text text-anchor="middle" x="105.36" y="-129.73" font-family="Times New Roman,serif" font-size="14.00">Samples weight: 0.15</text>
</g>
<!-- BB2&#45;&gt;BB3 -->
<g id="edge5" class="edge">
<title>BB2&#45;&gt;BB3</title>
<path fill="none" stroke="black" d="M272.39,-228.9C242.86,-214.85 207.38,-197.97 176.72,-183.38"/>
<polygon fill="black" stroke="black" points="177.91,-180.07 167.38,-178.94 174.91,-186.39 177.91,-180.07"/>
</g>
<!-- BB4 -->
<g id="node5" class="node">
<title>BB4</title>
<ellipse fill="none" stroke="black" cx="334.36" cy="-148.43" rx="105.22" ry="37.45"/>
<text text-anchor="middle" x="334.36" y="-159.73" font-family="Times New Roman,serif" font-size="14.00">[76..7b)</text>
<text text-anchor="middle" x="334.36" y="-144.73" font-family="Times New Roman,serif" font-size="14.00">Normalized Count: 0.00</text>
<text text-anchor="middle" x="334.36" y="-129.73" font-family="Times New Roman,serif" font-size="14.00">Samples weight: 0.00</text>
</g>
<!-- BB2&#45;&gt;BB4 -->
<g id="edge4" class="edge">
<title>BB2&#45;&gt;BB4</title>
<path fill="none" stroke="black" d="M334.36,-221.8C334.36,-213.63 334.36,-204.85 334.36,-196.32"/>
<polygon fill="black" stroke="black" points="337.86,-196.1 334.36,-186.1 330.86,-196.1 337.86,-196.1"/>
</g>
<!-- BB5 -->
<g id="node6" class="node">
<title>BB5</title>
<ellipse fill="none" stroke="black" cx="334.36" cy="-37.48" rx="105.22" ry="37.45"/>
<text text-anchor="middle" x="334.36" y="-48.78" font-family="Times New Roman,serif" font-size="14.00">[7b..7c)</text>
<text text-anchor="middle" x="334.36" y="-33.78" font-family="Times New Roman,serif" font-size="14.00">Normalized Count: 0.03</text>
<text text-anchor="middle" x="334.36" y="-18.78" font-family="Times New Roman,serif" font-size="14.00">Samples weight: 0.02</text>
</g>
<!-- BB3&#45;&gt;BB5 -->
<g id="edge6" class="edge">
<title>BB3&#45;&gt;BB5</title>
<path fill="none" stroke="black" d="M167.33,-117.95C196.86,-103.9 232.34,-87.01 262.99,-72.43"/>
<polygon fill="black" stroke="black" points="264.81,-75.44 272.34,-67.98 261.8,-69.12 264.81,-75.44"/>
</g>
<!-- BB4&#45;&gt;BB5 -->
<g id="edge7" class="edge">
<title>BB4&#45;&gt;BB5</title>
<path fill="none" stroke="black" d="M334.36,-110.85C334.36,-102.67 334.36,-93.89 334.36,-85.37"/>
<polygon fill="black" stroke="black" points="337.86,-85.15 334.36,-75.15 330.86,-85.15 337.86,-85.15"/>
</g>
<!-- BB5&#45;&gt;BB6 -->
<g id="edge8" class="edge">
<title>BB5&#45;&gt;BB6</title>
<path fill="none" stroke="black" d="M396.38,-67.98C425.92,-82.04 461.4,-98.92 492.04,-113.5"/>
<polygon fill="black" stroke="black" points="490.85,-116.81 501.39,-117.95 493.86,-110.49 490.85,-116.81"/>
</g>
<!-- BB7 -->
<g id="node8" class="node">
<title>BB7</title>
<ellipse fill="none" stroke="black" cx="563.36" cy="-37.48" rx="105.22" ry="37.45"/>
<text text-anchor="middle" x="563.36" y="-48.78" font-family="Times New Roman,serif" font-size="14.00">[84..8a)</text>
<text text-anchor="middle" x="563.36" y="-33.78" font-family="Times New Roman,serif" font-size="14.00">Normalized Count: 0.00</text>
<text text-anchor="middle" x="563.36" y="-18.78" font-family="Times New Roman,serif" font-size="14.00">Samples weight: 0.00</text>
</g>
<!-- BB6&#45;&gt;BB7 -->
<g id="edge10" class="edge">
<title>BB6&#45;&gt;BB7</title>
<path fill="none" stroke="black" d="M563.36,-110.85C563.36,-102.67 563.36,-93.89 563.36,-85.37"/>
<polygon fill="black" stroke="black" points="566.86,-85.15 563.36,-75.15 559.86,-85.15 566.86,-85.15"/>
</g>
<!-- BB8 -->
<g id="node9" class="node">
<title>BB8</title>
<ellipse fill="none" stroke="black" cx="792.36" cy="-37.48" rx="105.22" ry="37.45"/>
<text text-anchor="middle" x="792.36" y="-48.78" font-family="Times New Roman,serif" font-size="14.00">[8a..94)</text>
<text text-anchor="middle" x="792.36" y="-33.78" font-family="Times New Roman,serif" font-size="14.00">Normalized Count: 0.03</text>
<text text-anchor="middle" x="792.36" y="-18.78" font-family="Times New Roman,serif" font-size="14.00">Samples weight: 0.02</text>
</g>
<!-- BB6&#45;&gt;BB8 -->
<g id="edge9" class="edge">
<title>BB6&#45;&gt;BB8</title>
<path fill="none" stroke="black" d="M625.33,-117.95C654.86,-103.9 690.34,-87.01 720.99,-72.43"/>
<polygon fill="black" stroke="black" points="722.81,-75.44 730.34,-67.98 719.8,-69.12 722.81,-75.44"/>
</g>
</g>
</svg>
