<?xml version="1.0" encoding="UTF-8" standalone="no"?>
<!DOCTYPE svg PUBLIC "-//W3C//DTD SVG 1.1//EN"
 "http://www.w3.org/Graphics/SVG/1.1/DTD/svg11.dtd">
<!-- Generated by graphviz version 2.47.0 (20210316.0004)
 -->
<!-- Title: G Pages: 1 -->
<svg width="481pt" height="765pt"
 viewBox="0.00 0.00 481.48 765.00" xmlns="http://www.w3.org/2000/svg" xmlns:xlink="http://www.w3.org/1999/xlink">
<g id="graph0" class="graph" transform="scale(1 1) rotate(0) translate(4 761)">
<title>G</title>
<polygon fill="white" stroke="transparent" points="-4,4 -4,-761 477.48,-761 477.48,4 -4,4"/>
<!-- BB0 -->
<g id="node1" class="node">
<title>BB0</title>
<ellipse fill="none" stroke="black" cx="146.24" cy="-708.92" rx="103.48" ry="48.17"/>
<text text-anchor="middle" x="146.24" y="-727.72" font-family="Times New Roman,serif" font-size="14.00">[0..8)</text>
<text text-anchor="middle" x="146.24" y="-712.72" font-family="Times New Roman,serif" font-size="14.00">Count: 133</text>
<text text-anchor="middle" x="146.24" y="-697.72" font-family="Times New Roman,serif" font-size="14.00">Normalized count: 1.00</text>
<text text-anchor="middle" x="146.24" y="-682.72" font-family="Times New Roman,serif" font-size="14.00">Samples weight: 0.25</text>
</g>
<!-- BB5 -->
<g id="node6" class="node">
<title>BB5</title>
<ellipse fill="none" stroke="black" cx="146.24" cy="-576.75" rx="103.48" ry="48.17"/>
<text text-anchor="middle" x="146.24" y="-595.55" font-family="Times New Roman,serif" font-size="14.00">[44..48)</text>
<text text-anchor="middle" x="146.24" y="-580.55" font-family="Times New Roman,serif" font-size="14.00">Count: 133</text>
<text text-anchor="middle" x="146.24" y="-565.55" font-family="Times New Roman,serif" font-size="14.00">Normalized count: 1.00</text>
<text text-anchor="middle" x="146.24" y="-550.55" font-family="Times New Roman,serif" font-size="14.00">Samples weight: 0.25</text>
</g>
<!-- BB0&#45;&gt;BB5 -->
<g id="edge1" class="edge">
<title>BB0&#45;&gt;BB5</title>
<path fill="none" stroke="black" d="M146.24,-660.55C146.24,-652.29 146.24,-643.6 146.24,-635.1"/>
<polygon fill="black" stroke="black" points="149.74,-634.86 146.24,-624.86 142.74,-634.86 149.74,-634.86"/>
</g>
<!-- BB1 -->
<g id="node2" class="node">
<title>BB1</title>
<ellipse fill="none" stroke="black" cx="146.24" cy="-444.58" rx="103.48" ry="48.17"/>
<text text-anchor="middle" x="146.24" y="-463.38" font-family="Times New Roman,serif" font-size="14.00">[8..19)</text>
<text text-anchor="middle" x="146.24" y="-448.38" font-family="Times New Roman,serif" font-size="14.00">Count: 133</text>
<text text-anchor="middle" x="146.24" y="-433.38" font-family="Times New Roman,serif" font-size="14.00">Normalized count: 1.00</text>
<text text-anchor="middle" x="146.24" y="-418.38" font-family="Times New Roman,serif" font-size="14.00">Samples weight: 0.25</text>
</g>
<!-- BB2 -->
<g id="node3" class="node">
<title>BB2</title>
<ellipse fill="none" stroke="black" cx="192.24" cy="-312.42" rx="103.48" ry="48.17"/>
<text text-anchor="middle" x="192.24" y="-331.22" font-family="Times New Roman,serif" font-size="14.00">[19..2d)</text>
<text text-anchor="middle" x="192.24" y="-316.22" font-family="Times New Roman,serif" font-size="14.00">Count: 0</text>
<text text-anchor="middle" x="192.24" y="-301.22" font-family="Times New Roman,serif" font-size="14.00">Normalized count: 0.00</text>
<text text-anchor="middle" x="192.24" y="-286.22" font-family="Times New Roman,serif" font-size="14.00">Samples weight: 0.00</text>
</g>
<!-- BB1&#45;&gt;BB2 -->
<g id="edge3" class="edge">
<title>BB1&#45;&gt;BB2</title>
<path fill="none" stroke="black" d="M162.71,-396.96C165.82,-388.17 169.1,-378.9 172.29,-369.85"/>
<polygon fill="black" stroke="black" points="175.69,-370.75 175.72,-360.15 169.09,-368.42 175.69,-370.75"/>
</g>
<!-- BB6 -->
<g id="node7" class="node">
<title>BB6</title>
<ellipse fill="none" stroke="black" cx="370.24" cy="-444.58" rx="103.48" ry="48.17"/>
<text text-anchor="middle" x="370.24" y="-463.38" font-family="Times New Roman,serif" font-size="14.00">[48..4d)</text>
<text text-anchor="middle" x="370.24" y="-448.38" font-family="Times New Roman,serif" font-size="14.00">Count: 133</text>
<text text-anchor="middle" x="370.24" y="-433.38" font-family="Times New Roman,serif" font-size="14.00">Normalized count: 1.00</text>
<text text-anchor="middle" x="370.24" y="-418.38" font-family="Times New Roman,serif" font-size="14.00">Samples weight: 0.25</text>
</g>
<!-- BB1&#45;&gt;BB6 -->
<g id="edge2" class="edge">
<title>BB1&#45;&gt;BB6</title>
<path fill="none" stroke="black" d="M249.49,-444.58C251.94,-444.58 254.4,-444.58 256.85,-444.58"/>
<polygon fill="black" stroke="black" points="256.94,-448.08 266.94,-444.58 256.94,-441.08 256.94,-448.08"/>
</g>
<!-- BB3 -->
<g id="node4" class="node">
<title>BB3</title>
<ellipse fill="none" stroke="black" cx="192.24" cy="-180.25" rx="103.48" ry="48.17"/>
<text text-anchor="middle" x="192.24" y="-199.05" font-family="Times New Roman,serif" font-size="14.00">[2d..40)</text>
<text text-anchor="middle" x="192.24" y="-184.05" font-family="Times New Roman,serif" font-size="14.00">Count: 0</text>
<text text-anchor="middle" x="192.24" y="-169.05" font-family="Times New Roman,serif" font-size="14.00">Normalized count: 0.00</text>
<text text-anchor="middle" x="192.24" y="-154.05" font-family="Times New Roman,serif" font-size="14.00">Samples weight: 0.00</text>
</g>
<!-- BB2&#45;&gt;BB3 -->
<g id="edge5" class="edge">
<title>BB2&#45;&gt;BB3</title>
<path fill="none" stroke="black" d="M192.24,-264.05C192.24,-255.79 192.24,-247.1 192.24,-238.6"/>
<polygon fill="black" stroke="black" points="195.74,-238.36 192.24,-228.36 188.74,-238.36 195.74,-238.36"/>
</g>
<!-- BB2&#45;&gt;BB6 -->
<g id="edge4" class="edge">
<title>BB2&#45;&gt;BB6</title>
<path fill="none" stroke="black" d="M246.91,-353.4C265.94,-367.31 287.43,-383.03 307.08,-397.4"/>
<polygon fill="black" stroke="black" points="305.24,-400.39 315.38,-403.47 309.37,-394.74 305.24,-400.39"/>
</g>
<!-- BB4 -->
<g id="node5" class="node">
<title>BB4</title>
<ellipse fill="none" stroke="black" cx="103.24" cy="-48.08" rx="103.48" ry="48.17"/>
<text text-anchor="middle" x="103.24" y="-66.88" font-family="Times New Roman,serif" font-size="14.00">[40..44)</text>
<text text-anchor="middle" x="103.24" y="-51.88" font-family="Times New Roman,serif" font-size="14.00">Count: 0</text>
<text text-anchor="middle" x="103.24" y="-36.88" font-family="Times New Roman,serif" font-size="14.00">Normalized count: 0.00</text>
<text text-anchor="middle" x="103.24" y="-21.88" font-family="Times New Roman,serif" font-size="14.00">Samples weight: 0.00</text>
</g>
<!-- BB3&#45;&gt;BB4 -->
<g id="edge7" class="edge">
<title>BB3&#45;&gt;BB4</title>
<path fill="none" stroke="black" d="M161.36,-134.09C154.39,-123.89 146.92,-112.97 139.74,-102.47"/>
<polygon fill="black" stroke="black" points="142.59,-100.44 134.06,-94.16 136.82,-104.39 142.59,-100.44"/>
</g>
<!-- BB3&#45;&gt;BB6 -->
<g id="edge6" class="edge">
<title>BB3&#45;&gt;BB6</title>
<path fill="none" stroke="black" d="M255.39,-218.32C273.06,-231.1 291.03,-246.7 304.24,-264.33 331.42,-300.64 348.4,-349.32 358.32,-386.79"/>
<polygon fill="black" stroke="black" points="354.94,-387.72 360.81,-396.55 361.72,-385.99 354.94,-387.72"/>
</g>
<!-- BB4&#45;&gt;BB5 -->
<g id="edge8" class="edge">
<title>BB4&#45;&gt;BB5</title>
<path fill="none" stroke="black" d="M79.05,-94.96C38.48,-178.69 -32.6,-359.87 34.24,-492.67 42.46,-509 55.57,-522.92 69.98,-534.44"/>
<polygon fill="black" stroke="black" points="68.01,-537.34 78.1,-540.59 72.24,-531.76 68.01,-537.34"/>
</g>
<!-- BB5&#45;&gt;BB1 -->
<g id="edge9" class="edge">
<title>BB5&#45;&gt;BB1</title>
<path fill="none" stroke="black" d="M146.24,-528.39C146.24,-520.12 146.24,-511.44 146.24,-502.93"/>
<polygon fill="black" stroke="black" points="149.74,-502.69 146.24,-492.69 142.74,-502.69 149.74,-502.69"/>
</g>
<!-- BB5&#45;&gt;BB6 -->
<g id="edge10" class="edge">
<title>BB5&#45;&gt;BB6</title>
<path fill="none" stroke="black" d="M209.83,-538.8C237.26,-522.86 269.48,-504.13 297.83,-487.66"/>
<polygon fill="black" stroke="black" points="299.6,-490.68 306.49,-482.63 296.08,-484.63 299.6,-490.68"/>
</g>
</g>
</svg>
