<?xml version="1.0" encoding="UTF-8" standalone="no"?>
<!DOCTYPE svg PUBLIC "-//W3C//DTD SVG 1.1//EN"
 "http://www.w3.org/Graphics/SVG/1.1/DTD/svg11.dtd">
<!-- Generated by graphviz version 2.47.0 (20210316.0004)
 -->
<!-- Title: G Pages: 1 -->
<svg width="916pt" height="638pt"
 viewBox="0.00 0.00 915.72 637.72" xmlns="http://www.w3.org/2000/svg" xmlns:xlink="http://www.w3.org/1999/xlink">
<g id="graph0" class="graph" transform="scale(1 1) rotate(0) translate(4 633.72)">
<title>G</title>
<polygon fill="white" stroke="transparent" points="-4,4 -4,-633.72 911.72,-633.72 911.72,4 -4,4"/>
<!-- BB0 -->
<g id="node1" class="node">
<title>BB0</title>
<ellipse fill="none" stroke="black" cx="364.36" cy="-592.24" rx="105.22" ry="37.45"/>
<text text-anchor="middle" x="364.36" y="-603.54" font-family="Times New Roman,serif" font-size="14.00">[0..4)</text>
<text text-anchor="middle" x="364.36" y="-588.54" font-family="Times New Roman,serif" font-size="14.00">Normalized Count: 1.00</text>
<text text-anchor="middle" x="364.36" y="-573.54" font-family="Times New Roman,serif" font-size="14.00">Samples weight: 0.01</text>
</g>
<!-- BB4 -->
<g id="node5" class="node">
<title>BB4</title>
<ellipse fill="none" stroke="black" cx="364.36" cy="-481.29" rx="110.12" ry="37.45"/>
<text text-anchor="middle" x="364.36" y="-492.59" font-family="Times New Roman,serif" font-size="14.00">[1f..2a)</text>
<text text-anchor="middle" x="364.36" y="-477.59" font-family="Times New Roman,serif" font-size="14.00">Normalized Count: 20.20</text>
<text text-anchor="middle" x="364.36" y="-462.59" font-family="Times New Roman,serif" font-size="14.00">Samples weight: 0.28</text>
</g>
<!-- BB0&#45;&gt;BB4 -->
<g id="edge1" class="edge">
<title>BB0&#45;&gt;BB4</title>
<path fill="none" stroke="black" d="M364.36,-554.66C364.36,-546.49 364.36,-537.71 364.36,-529.18"/>
<polygon fill="black" stroke="black" points="367.86,-528.96 364.36,-518.96 360.86,-528.96 367.86,-528.96"/>
</g>
<!-- BB1 -->
<g id="node2" class="node">
<title>BB1</title>
<ellipse fill="none" stroke="black" cx="226.36" cy="-370.34" rx="110.12" ry="37.45"/>
<text text-anchor="middle" x="226.36" y="-381.64" font-family="Times New Roman,serif" font-size="14.00">[4..10)</text>
<text text-anchor="middle" x="226.36" y="-366.64" font-family="Times New Roman,serif" font-size="14.00">Normalized Count: 19.20</text>
<text text-anchor="middle" x="226.36" y="-351.64" font-family="Times New Roman,serif" font-size="14.00">Samples weight: 0.26</text>
</g>
<!-- BB2 -->
<g id="node3" class="node">
<title>BB2</title>
<ellipse fill="none" stroke="black" cx="105.36" cy="-259.38" rx="105.22" ry="37.45"/>
<text text-anchor="middle" x="105.36" y="-270.68" font-family="Times New Roman,serif" font-size="14.00">[10..1b)</text>
<text text-anchor="middle" x="105.36" y="-255.68" font-family="Times New Roman,serif" font-size="14.00">Normalized Count: 4.20</text>
<text text-anchor="middle" x="105.36" y="-240.68" font-family="Times New Roman,serif" font-size="14.00">Samples weight: 0.06</text>
</g>
<!-- BB1&#45;&gt;BB2 -->
<g id="edge3" class="edge">
<title>BB1&#45;&gt;BB2</title>
<path fill="none" stroke="black" d="M188.07,-334.86C176.26,-324.23 163.14,-312.41 150.89,-301.38"/>
<polygon fill="black" stroke="black" points="153.17,-298.72 143.4,-294.63 148.48,-303.93 153.17,-298.72"/>
</g>
<!-- BB3 -->
<g id="node4" class="node">
<title>BB3</title>
<ellipse fill="none" stroke="black" cx="339.36" cy="-259.38" rx="110.12" ry="37.45"/>
<text text-anchor="middle" x="339.36" y="-270.68" font-family="Times New Roman,serif" font-size="14.00">[1b..1f)</text>
<text text-anchor="middle" x="339.36" y="-255.68" font-family="Times New Roman,serif" font-size="14.00">Normalized Count: 19.20</text>
<text text-anchor="middle" x="339.36" y="-240.68" font-family="Times New Roman,serif" font-size="14.00">Samples weight: 0.26</text>
</g>
<!-- BB1&#45;&gt;BB3 -->
<g id="edge2" class="edge">
<title>BB1&#45;&gt;BB3</title>
<path fill="none" stroke="black" d="M262.11,-334.86C272.93,-324.43 284.93,-312.86 296.18,-302.01"/>
<polygon fill="black" stroke="black" points="298.68,-304.47 303.45,-295.01 293.82,-299.43 298.68,-304.47"/>
</g>
<!-- BB2&#45;&gt;BB3 -->
<g id="edge4" class="edge">
<title>BB2&#45;&gt;BB3</title>
<path fill="none" stroke="black" d="M210.93,-259.38C213.57,-259.38 216.2,-259.38 218.83,-259.38"/>
<polygon fill="black" stroke="black" points="218.99,-262.88 228.99,-259.38 218.99,-255.88 218.99,-262.88"/>
</g>
<!-- BB3&#45;&gt;BB4 -->
<g id="edge5" class="edge">
<title>BB3&#45;&gt;BB4</title>
<path fill="none" stroke="black" d="M343.52,-296.94C347.77,-334.39 354.4,-392.73 359.04,-433.51"/>
<polygon fill="black" stroke="black" points="355.57,-433.94 360.17,-443.48 362.52,-433.15 355.57,-433.94"/>
</g>
<!-- BB4&#45;&gt;BB1 -->
<g id="edge6" class="edge">
<title>BB4&#45;&gt;BB1</title>
<path fill="none" stroke="black" d="M321.45,-446.41C307.43,-435.35 291.73,-422.95 277.18,-411.46"/>
<polygon fill="black" stroke="black" points="279.26,-408.64 269.24,-405.19 274.92,-414.14 279.26,-408.64"/>
</g>
<!-- BB5 -->
<g id="node6" class="node">
<title>BB5</title>
<ellipse fill="none" stroke="black" cx="547.36" cy="-370.34" rx="105.22" ry="37.45"/>
<text text-anchor="middle" x="547.36" y="-381.64" font-family="Times New Roman,serif" font-size="14.00">[2a..4e)</text>
<text text-anchor="middle" x="547.36" y="-366.64" font-family="Times New Roman,serif" font-size="14.00">Normalized Count: 1.00</text>
<text text-anchor="middle" x="547.36" y="-351.64" font-family="Times New Roman,serif" font-size="14.00">Samples weight: 0.01</text>
</g>
<!-- BB4&#45;&gt;BB5 -->
<g id="edge7" class="edge">
<title>BB4&#45;&gt;BB5</title>
<path fill="none" stroke="black" d="M417.78,-448.48C439.11,-435.79 463.8,-421.09 485.87,-407.95"/>
<polygon fill="black" stroke="black" points="487.7,-410.93 494.5,-402.81 484.12,-404.91 487.7,-410.93"/>
</g>
<!-- BB9 -->
<g id="node10" class="node">
<title>BB9</title>
<ellipse fill="none" stroke="black" cx="573.36" cy="-259.38" rx="105.22" ry="37.45"/>
<text text-anchor="middle" x="573.36" y="-270.68" font-family="Times New Roman,serif" font-size="14.00">[5e..66)</text>
<text text-anchor="middle" x="573.36" y="-255.68" font-family="Times New Roman,serif" font-size="14.00">Normalized Count: 2.60</text>
<text text-anchor="middle" x="573.36" y="-240.68" font-family="Times New Roman,serif" font-size="14.00">Samples weight: 0.04</text>
</g>
<!-- BB5&#45;&gt;BB9 -->
<g id="edge8" class="edge">
<title>BB5&#45;&gt;BB9</title>
<path fill="none" stroke="black" d="M556.09,-332.75C558.06,-324.49 560.18,-315.61 562.24,-306.99"/>
<polygon fill="black" stroke="black" points="565.69,-307.59 564.61,-297.06 558.88,-305.97 565.69,-307.59"/>
</g>
<!-- BB6 -->
<g id="node7" class="node">
<title>BB6</title>
<ellipse fill="none" stroke="black" cx="573.36" cy="-148.43" rx="105.22" ry="37.45"/>
<text text-anchor="middle" x="573.36" y="-159.73" font-family="Times New Roman,serif" font-size="14.00">[4e..58)</text>
<text text-anchor="middle" x="573.36" y="-144.73" font-family="Times New Roman,serif" font-size="14.00">Normalized Count: 2.60</text>
<text text-anchor="middle" x="573.36" y="-129.73" font-family="Times New Roman,serif" font-size="14.00">Samples weight: 0.04</text>
</g>
<!-- BB7 -->
<g id="node8" class="node">
<title>BB7</title>
<ellipse fill="none" stroke="black" cx="669.36" cy="-37.48" rx="105.22" ry="37.45"/>
<text text-anchor="middle" x="669.36" y="-48.78" font-family="Times New Roman,serif" font-size="14.00">[58..5a)</text>
<text text-anchor="middle" x="669.36" y="-33.78" font-family="Times New Roman,serif" font-size="14.00">Normalized Count: 1.00</text>
<text text-anchor="middle" x="669.36" y="-18.78" font-family="Times New Roman,serif" font-size="14.00">Samples weight: 0.01</text>
</g>
<!-- BB6&#45;&gt;BB7 -->
<g id="edge10" class="edge">
<title>BB6&#45;&gt;BB7</title>
<path fill="none" stroke="black" d="M604.26,-112.36C613,-102.44 622.6,-91.54 631.69,-81.23"/>
<polygon fill="black" stroke="black" points="634.53,-83.3 638.51,-73.48 629.28,-78.67 634.53,-83.3"/>
</g>
<!-- BB8 -->
<g id="node9" class="node">
<title>BB8</title>
<ellipse fill="none" stroke="black" cx="440.36" cy="-37.48" rx="105.22" ry="37.45"/>
<text text-anchor="middle" x="440.36" y="-48.78" font-family="Times New Roman,serif" font-size="14.00">[5a..5e)</text>
<text text-anchor="middle" x="440.36" y="-33.78" font-family="Times New Roman,serif" font-size="14.00">Normalized Count: 1.60</text>
<text text-anchor="middle" x="440.36" y="-18.78" font-family="Times New Roman,serif" font-size="14.00">Samples weight: 0.02</text>
</g>
<!-- BB6&#45;&gt;BB8 -->
<g id="edge9" class="edge">
<title>BB6&#45;&gt;BB8</title>
<path fill="none" stroke="black" d="M532.37,-113.85C518.72,-102.67 503.37,-90.1 489.19,-78.48"/>
<polygon fill="black" stroke="black" points="491.4,-75.76 481.44,-72.13 486.96,-81.18 491.4,-75.76"/>
</g>
<!-- BB8&#45;&gt;BB9 -->
<g id="edge11" class="edge">
<title>BB8&#45;&gt;BB9</title>
<path fill="none" stroke="black" d="M436.81,-75C435.54,-106.73 438.24,-152.7 459.36,-185.91 469.23,-201.44 483.76,-214.26 499.17,-224.57"/>
<polygon fill="black" stroke="black" points="497.48,-227.64 507.8,-230.04 501.23,-221.73 497.48,-227.64"/>
</g>
<!-- BB9&#45;&gt;BB6 -->
<g id="edge12" class="edge">
<title>BB9&#45;&gt;BB6</title>
<path fill="none" stroke="black" d="M573.36,-221.8C573.36,-213.63 573.36,-204.85 573.36,-196.32"/>
<polygon fill="black" stroke="black" points="576.86,-196.1 573.36,-186.1 569.86,-196.1 576.86,-196.1"/>
</g>
<!-- BB10 -->
<g id="node11" class="node">
<title>BB10</title>
<ellipse fill="none" stroke="black" cx="802.36" cy="-148.43" rx="105.22" ry="37.45"/>
<text text-anchor="middle" x="802.36" y="-159.73" font-family="Times New Roman,serif" font-size="14.00">[66..68)</text>
<text text-anchor="middle" x="802.36" y="-144.73" font-family="Times New Roman,serif" font-size="14.00">Normalized Count: 0.00</text>
<text text-anchor="middle" x="802.36" y="-129.73" font-family="Times New Roman,serif" font-size="14.00">Samples weight: 0.00</text>
</g>
<!-- BB9&#45;&gt;BB10 -->
<g id="edge13" class="edge">
<title>BB9&#45;&gt;BB10</title>
<path fill="none" stroke="black" d="M635.33,-228.9C664.86,-214.85 700.34,-197.97 730.99,-183.38"/>
<polygon fill="black" stroke="black" points="732.81,-186.39 740.34,-178.94 729.8,-180.07 732.81,-186.39"/>
</g>
</g>
</svg>
