<?xml version="1.0" encoding="UTF-8" standalone="no"?>
<!DOCTYPE svg PUBLIC "-//W3C//DTD SVG 1.1//EN"
 "http://www.w3.org/Graphics/SVG/1.1/DTD/svg11.dtd">
<!-- Generated by graphviz version 2.47.0 (20210316.0004)
 -->
<!-- Title: G Pages: 1 -->
<svg width="556pt" height="527pt"
 viewBox="0.00 0.00 555.72 526.77" xmlns="http://www.w3.org/2000/svg" xmlns:xlink="http://www.w3.org/1999/xlink">
<g id="graph0" class="graph" transform="scale(1 1) rotate(0) translate(4 522.77)">
<title>G</title>
<polygon fill="white" stroke="transparent" points="-4,4 -4,-522.77 551.72,-522.77 551.72,4 -4,4"/>
<!-- BB0 -->
<g id="node1" class="node">
<title>BB0</title>
<ellipse fill="none" stroke="black" cx="327.36" cy="-481.29" rx="105.22" ry="37.45"/>
<text text-anchor="middle" x="327.36" y="-492.59" font-family="Times New Roman,serif" font-size="14.00">[0..e)</text>
<text text-anchor="middle" x="327.36" y="-477.59" font-family="Times New Roman,serif" font-size="14.00">Normalized Count: 1.00</text>
<text text-anchor="middle" x="327.36" y="-462.59" font-family="Times New Roman,serif" font-size="14.00">Samples weight: 0.02</text>
</g>
<!-- BB1 -->
<g id="node2" class="node">
<title>BB1</title>
<ellipse fill="none" stroke="black" cx="213.36" cy="-370.34" rx="105.22" ry="37.45"/>
<text text-anchor="middle" x="213.36" y="-381.64" font-family="Times New Roman,serif" font-size="14.00">[e..16)</text>
<text text-anchor="middle" x="213.36" y="-366.64" font-family="Times New Roman,serif" font-size="14.00">Normalized Count: 0.31</text>
<text text-anchor="middle" x="213.36" y="-351.64" font-family="Times New Roman,serif" font-size="14.00">Samples weight: 0.01</text>
</g>
<!-- BB0&#45;&gt;BB1 -->
<g id="edge2" class="edge">
<title>BB0&#45;&gt;BB1</title>
<path fill="none" stroke="black" d="M291.29,-445.82C280.27,-435.28 268.03,-423.59 256.58,-412.65"/>
<polygon fill="black" stroke="black" points="258.84,-409.96 249.19,-405.59 254.01,-415.03 258.84,-409.96"/>
</g>
<!-- BB6 -->
<g id="node7" class="node">
<title>BB6</title>
<ellipse fill="none" stroke="black" cx="442.36" cy="-370.34" rx="105.22" ry="37.45"/>
<text text-anchor="middle" x="442.36" y="-381.64" font-family="Times New Roman,serif" font-size="14.00">[62..64)</text>
<text text-anchor="middle" x="442.36" y="-366.64" font-family="Times New Roman,serif" font-size="14.00">Normalized Count: 1.00</text>
<text text-anchor="middle" x="442.36" y="-351.64" font-family="Times New Roman,serif" font-size="14.00">Samples weight: 0.02</text>
</g>
<!-- BB0&#45;&gt;BB6 -->
<g id="edge1" class="edge">
<title>BB0&#45;&gt;BB6</title>
<path fill="none" stroke="black" d="M363.75,-445.82C374.87,-435.28 387.21,-423.59 398.76,-412.65"/>
<polygon fill="black" stroke="black" points="401.36,-415 406.21,-405.59 396.54,-409.92 401.36,-415"/>
</g>
<!-- BB2 -->
<g id="node3" class="node">
<title>BB2</title>
<ellipse fill="none" stroke="black" cx="258.36" cy="-259.38" rx="110.12" ry="37.45"/>
<text text-anchor="middle" x="258.36" y="-270.68" font-family="Times New Roman,serif" font-size="14.00">[16..1e)</text>
<text text-anchor="middle" x="258.36" y="-255.68" font-family="Times New Roman,serif" font-size="14.00">Normalized Count: 13.18</text>
<text text-anchor="middle" x="258.36" y="-240.68" font-family="Times New Roman,serif" font-size="14.00">Samples weight: 0.29</text>
</g>
<!-- BB1&#45;&gt;BB2 -->
<g id="edge3" class="edge">
<title>BB1&#45;&gt;BB2</title>
<path fill="none" stroke="black" d="M228.34,-333.06C231.87,-324.51 235.68,-315.29 239.36,-306.38"/>
<polygon fill="black" stroke="black" points="242.7,-307.46 243.29,-296.88 236.23,-304.78 242.7,-307.46"/>
</g>
<!-- BB3 -->
<g id="node4" class="node">
<title>BB3</title>
<ellipse fill="none" stroke="black" cx="105.36" cy="-148.43" rx="105.22" ry="37.45"/>
<text text-anchor="middle" x="105.36" y="-159.73" font-family="Times New Roman,serif" font-size="14.00">[1e..2c)</text>
<text text-anchor="middle" x="105.36" y="-144.73" font-family="Times New Roman,serif" font-size="14.00">Normalized Count: 2.83</text>
<text text-anchor="middle" x="105.36" y="-129.73" font-family="Times New Roman,serif" font-size="14.00">Samples weight: 0.06</text>
</g>
<!-- BB2&#45;&gt;BB3 -->
<g id="edge5" class="edge">
<title>BB2&#45;&gt;BB3</title>
<path fill="none" stroke="black" d="M211.62,-225.1C195.23,-213.43 176.69,-200.22 159.73,-188.15"/>
<polygon fill="black" stroke="black" points="161.72,-185.27 151.55,-182.32 157.66,-190.97 161.72,-185.27"/>
</g>
<!-- BB5 -->
<g id="node6" class="node">
<title>BB5</title>
<ellipse fill="none" stroke="black" cx="339.36" cy="-148.43" rx="110.12" ry="37.45"/>
<text text-anchor="middle" x="339.36" y="-159.73" font-family="Times New Roman,serif" font-size="14.00">[46..62)</text>
<text text-anchor="middle" x="339.36" y="-144.73" font-family="Times New Roman,serif" font-size="14.00">Normalized Count: 13.18</text>
<text text-anchor="middle" x="339.36" y="-129.73" font-family="Times New Roman,serif" font-size="14.00">Samples weight: 0.29</text>
</g>
<!-- BB2&#45;&gt;BB5 -->
<g id="edge4" class="edge">
<title>BB2&#45;&gt;BB5</title>
<path fill="none" stroke="black" d="M278.71,-222.41C285.39,-212.91 293,-202.57 300.54,-192.74"/>
<polygon fill="black" stroke="black" points="303.47,-194.67 306.83,-184.63 297.94,-190.38 303.47,-194.67"/>
</g>
<!-- BB4 -->
<g id="node5" class="node">
<title>BB4</title>
<ellipse fill="none" stroke="black" cx="222.36" cy="-37.48" rx="110.12" ry="37.45"/>
<text text-anchor="middle" x="222.36" y="-48.78" font-family="Times New Roman,serif" font-size="14.00">[2c..46)</text>
<text text-anchor="middle" x="222.36" y="-33.78" font-family="Times New Roman,serif" font-size="14.00">Normalized Count: 14.71</text>
<text text-anchor="middle" x="222.36" y="-18.78" font-family="Times New Roman,serif" font-size="14.00">Samples weight: 0.32</text>
</g>
<!-- BB3&#45;&gt;BB4 -->
<g id="edge6" class="edge">
<title>BB3&#45;&gt;BB4</title>
<path fill="none" stroke="black" d="M142.06,-113.26C153.38,-102.71 165.98,-90.98 177.77,-80"/>
<polygon fill="black" stroke="black" points="180.46,-82.28 185.39,-72.9 175.68,-77.16 180.46,-82.28"/>
</g>
<!-- BB4&#45;&gt;BB4 -->
<g id="edge7" class="edge">
<title>BB4&#45;&gt;BB4</title>
<path fill="none" stroke="black" d="M315.78,-57.49C336,-55.54 350.67,-48.86 350.67,-37.48 350.67,-28.14 340.8,-21.97 326.09,-18.97"/>
<polygon fill="black" stroke="black" points="326.18,-15.45 315.78,-17.46 325.17,-22.37 326.18,-15.45"/>
</g>
<!-- BB4&#45;&gt;BB5 -->
<g id="edge8" class="edge">
<title>BB4&#45;&gt;BB5</title>
<path fill="none" stroke="black" d="M259.54,-73.1C270.75,-83.54 283.18,-95.11 294.82,-105.96"/>
<polygon fill="black" stroke="black" points="292.64,-108.7 302.34,-112.96 297.41,-103.58 292.64,-108.7"/>
</g>
<!-- BB5&#45;&gt;BB2 -->
<g id="edge9" class="edge">
<title>BB5&#45;&gt;BB2</title>
<path fill="none" stroke="black" d="M318.9,-185.56C312.22,-195.05 304.61,-205.39 297.07,-215.21"/>
<polygon fill="black" stroke="black" points="294.15,-213.26 290.79,-223.31 299.68,-217.56 294.15,-213.26"/>
</g>
<!-- BB5&#45;&gt;BB6 -->
<g id="edge10" class="edge">
<title>BB5&#45;&gt;BB6</title>
<path fill="none" stroke="black" d="M358.98,-185.68C365.04,-197.18 371.62,-210 377.36,-221.91 393.56,-255.53 410.53,-294.15 423.07,-323.42"/>
<polygon fill="black" stroke="black" points="420,-325.15 427.14,-332.97 426.44,-322.4 420,-325.15"/>
</g>
</g>
</svg>
