<?xml version="1.0" encoding="UTF-8" standalone="no"?>
<!DOCTYPE svg PUBLIC "-//W3C//DTD SVG 1.1//EN"
 "http://www.w3.org/Graphics/SVG/1.1/DTD/svg11.dtd">
<!-- Generated by graphviz version 2.47.0 (20210316.0004)
 -->
<!-- Title: G Pages: 1 -->
<svg width="764pt" height="971pt"
 viewBox="0.00 0.00 764.42 970.58" xmlns="http://www.w3.org/2000/svg" xmlns:xlink="http://www.w3.org/1999/xlink">
<g id="graph0" class="graph" transform="scale(1 1) rotate(0) translate(4 966.58)">
<title>G</title>
<polygon fill="white" stroke="transparent" points="-4,4 -4,-966.58 760.42,-966.58 760.42,4 -4,4"/>
<!-- BB0 -->
<g id="node1" class="node">
<title>BB0</title>
<ellipse fill="none" stroke="black" cx="525.06" cy="-925.1" rx="105.22" ry="37.45"/>
<text text-anchor="middle" x="525.06" y="-936.4" font-family="Times New Roman,serif" font-size="14.00">[0..7)</text>
<text text-anchor="middle" x="525.06" y="-921.4" font-family="Times New Roman,serif" font-size="14.00">Normalized Count: 1.00</text>
<text text-anchor="middle" x="525.06" y="-906.4" font-family="Times New Roman,serif" font-size="14.00">Samples weight: 0.01</text>
</g>
<!-- BB8 -->
<g id="node9" class="node">
<title>BB8</title>
<ellipse fill="none" stroke="black" cx="525.06" cy="-814.15" rx="110.12" ry="37.45"/>
<text text-anchor="middle" x="525.06" y="-825.45" font-family="Times New Roman,serif" font-size="14.00">[76..7a)</text>
<text text-anchor="middle" x="525.06" y="-810.45" font-family="Times New Roman,serif" font-size="14.00">Normalized Count: 20.00</text>
<text text-anchor="middle" x="525.06" y="-795.45" font-family="Times New Roman,serif" font-size="14.00">Samples weight: 0.14</text>
</g>
<!-- BB0&#45;&gt;BB8 -->
<g id="edge1" class="edge">
<title>BB0&#45;&gt;BB8</title>
<path fill="none" stroke="black" d="M525.06,-887.52C525.06,-879.35 525.06,-870.57 525.06,-862.04"/>
<polygon fill="black" stroke="black" points="528.56,-861.82 525.06,-851.82 521.56,-861.82 528.56,-861.82"/>
</g>
<!-- BB1 -->
<g id="node2" class="node">
<title>BB1</title>
<ellipse fill="none" stroke="black" cx="494.06" cy="-592.24" rx="110.12" ry="37.45"/>
<text text-anchor="middle" x="494.06" y="-603.54" font-family="Times New Roman,serif" font-size="14.00">[7..14)</text>
<text text-anchor="middle" x="494.06" y="-588.54" font-family="Times New Roman,serif" font-size="14.00">Normalized Count: 72.00</text>
<text text-anchor="middle" x="494.06" y="-573.54" font-family="Times New Roman,serif" font-size="14.00">Samples weight: 0.49</text>
</g>
<!-- BB2 -->
<g id="node3" class="node">
<title>BB2</title>
<ellipse fill="none" stroke="black" cx="494.06" cy="-481.29" rx="105.22" ry="37.45"/>
<text text-anchor="middle" x="494.06" y="-492.59" font-family="Times New Roman,serif" font-size="14.00">[14..1c)</text>
<text text-anchor="middle" x="494.06" y="-477.59" font-family="Times New Roman,serif" font-size="14.00">Normalized Count: 9.00</text>
<text text-anchor="middle" x="494.06" y="-462.59" font-family="Times New Roman,serif" font-size="14.00">Samples weight: 0.06</text>
</g>
<!-- BB1&#45;&gt;BB2 -->
<g id="edge3" class="edge">
<title>BB1&#45;&gt;BB2</title>
<path fill="none" stroke="black" d="M494.06,-554.66C494.06,-546.49 494.06,-537.71 494.06,-529.18"/>
<polygon fill="black" stroke="black" points="497.56,-528.96 494.06,-518.96 490.56,-528.96 497.56,-528.96"/>
</g>
<!-- BB1&#45;&gt;BB8 -->
<g id="edge2" class="edge">
<title>BB1&#45;&gt;BB8</title>
<path fill="none" stroke="black" d="M509.55,-629.49C513.74,-640.88 517.75,-653.64 520.06,-665.72 526.41,-698.88 527.54,-736.97 527.15,-766.13"/>
<polygon fill="black" stroke="black" points="523.65,-766.38 526.95,-776.45 530.64,-766.52 523.65,-766.38"/>
</g>
<!-- BB3 -->
<g id="node4" class="node">
<title>BB3</title>
<ellipse fill="none" stroke="black" cx="494.06" cy="-370.34" rx="105.22" ry="37.45"/>
<text text-anchor="middle" x="494.06" y="-381.64" font-family="Times New Roman,serif" font-size="14.00">[1c..2a)</text>
<text text-anchor="middle" x="494.06" y="-366.64" font-family="Times New Roman,serif" font-size="14.00">Normalized Count: 5.50</text>
<text text-anchor="middle" x="494.06" y="-351.64" font-family="Times New Roman,serif" font-size="14.00">Samples weight: 0.04</text>
</g>
<!-- BB2&#45;&gt;BB3 -->
<g id="edge5" class="edge">
<title>BB2&#45;&gt;BB3</title>
<path fill="none" stroke="black" d="M494.06,-443.71C494.06,-435.53 494.06,-426.75 494.06,-418.23"/>
<polygon fill="black" stroke="black" points="497.56,-418.01 494.06,-408.01 490.56,-418.01 497.56,-418.01"/>
</g>
<!-- BB2&#45;&gt;BB8 -->
<g id="edge4" class="edge">
<title>BB2&#45;&gt;BB8</title>
<path fill="none" stroke="black" d="M564.26,-509.35C583.52,-520.39 602.1,-535.26 613.06,-554.77 652.72,-625.36 600.24,-716.82 560.94,-769.84"/>
<polygon fill="black" stroke="black" points="558.01,-767.93 554.77,-778.02 563.59,-772.15 558.01,-767.93"/>
</g>
<!-- BB4 -->
<g id="node5" class="node">
<title>BB4</title>
<ellipse fill="none" stroke="black" cx="494.06" cy="-259.38" rx="110.12" ry="37.45"/>
<text text-anchor="middle" x="494.06" y="-270.68" font-family="Times New Roman,serif" font-size="14.00">[2a..4c)</text>
<text text-anchor="middle" x="494.06" y="-255.68" font-family="Times New Roman,serif" font-size="14.00">Normalized Count: 12.00</text>
<text text-anchor="middle" x="494.06" y="-240.68" font-family="Times New Roman,serif" font-size="14.00">Samples weight: 0.08</text>
</g>
<!-- BB3&#45;&gt;BB4 -->
<g id="edge7" class="edge">
<title>BB3&#45;&gt;BB4</title>
<path fill="none" stroke="black" d="M494.06,-332.75C494.06,-324.58 494.06,-315.8 494.06,-307.27"/>
<polygon fill="black" stroke="black" points="497.56,-307.06 494.06,-297.06 490.56,-307.06 497.56,-307.06"/>
</g>
<!-- BB3&#45;&gt;BB8 -->
<g id="edge6" class="edge">
<title>BB3&#45;&gt;BB8</title>
<path fill="none" stroke="black" d="M415.06,-395.16C250.33,-448.64 -103.83,-585.75 30.06,-740.67 77.52,-795.59 274.02,-809.69 404.71,-812.87"/>
<polygon fill="black" stroke="black" points="404.71,-816.37 414.79,-813.09 404.87,-809.37 404.71,-816.37"/>
</g>
<!-- BB5 -->
<g id="node6" class="node">
<title>BB5</title>
<ellipse fill="none" stroke="black" cx="585.06" cy="-148.43" rx="105.22" ry="37.45"/>
<text text-anchor="middle" x="585.06" y="-159.73" font-family="Times New Roman,serif" font-size="14.00">[4c..5b)</text>
<text text-anchor="middle" x="585.06" y="-144.73" font-family="Times New Roman,serif" font-size="14.00">Normalized Count: 3.00</text>
<text text-anchor="middle" x="585.06" y="-129.73" font-family="Times New Roman,serif" font-size="14.00">Samples weight: 0.02</text>
</g>
<!-- BB4&#45;&gt;BB5 -->
<g id="edge9" class="edge">
<title>BB4&#45;&gt;BB5</title>
<path fill="none" stroke="black" d="M523.6,-223.01C531.71,-213.3 540.59,-202.67 549.02,-192.58"/>
<polygon fill="black" stroke="black" points="551.94,-194.55 555.66,-184.63 546.56,-190.06 551.94,-194.55"/>
</g>
<!-- BB7 -->
<g id="node8" class="node">
<title>BB7</title>
<ellipse fill="none" stroke="black" cx="356.06" cy="-148.43" rx="105.22" ry="37.45"/>
<text text-anchor="middle" x="356.06" y="-159.73" font-family="Times New Roman,serif" font-size="14.00">[73..76)</text>
<text text-anchor="middle" x="356.06" y="-144.73" font-family="Times New Roman,serif" font-size="14.00">Normalized Count: 7.50</text>
<text text-anchor="middle" x="356.06" y="-129.73" font-family="Times New Roman,serif" font-size="14.00">Samples weight: 0.05</text>
</g>
<!-- BB4&#45;&gt;BB7 -->
<g id="edge8" class="edge">
<title>BB4&#45;&gt;BB7</title>
<path fill="none" stroke="black" d="M451.15,-224.51C437,-213.33 421.13,-200.8 406.47,-189.23"/>
<polygon fill="black" stroke="black" points="408.48,-186.36 398.47,-182.91 404.15,-191.85 408.48,-186.36"/>
</g>
<!-- BB6 -->
<g id="node7" class="node">
<title>BB6</title>
<ellipse fill="none" stroke="black" cx="651.06" cy="-37.48" rx="105.22" ry="37.45"/>
<text text-anchor="middle" x="651.06" y="-48.78" font-family="Times New Roman,serif" font-size="14.00">[5b..73)</text>
<text text-anchor="middle" x="651.06" y="-33.78" font-family="Times New Roman,serif" font-size="14.00">Normalized Count: 8.50</text>
<text text-anchor="middle" x="651.06" y="-18.78" font-family="Times New Roman,serif" font-size="14.00">Samples weight: 0.06</text>
</g>
<!-- BB5&#45;&gt;BB6 -->
<g id="edge11" class="edge">
<title>BB5&#45;&gt;BB6</title>
<path fill="none" stroke="black" d="M606.85,-111.45C612.32,-102.43 618.24,-92.65 623.93,-83.26"/>
<polygon fill="black" stroke="black" points="627.1,-84.78 629.29,-74.42 621.11,-81.16 627.1,-84.78"/>
</g>
<!-- BB5&#45;&gt;BB8 -->
<g id="edge10" class="edge">
<title>BB5&#45;&gt;BB8</title>
<path fill="none" stroke="black" d="M608.29,-185.14C633.45,-227.36 670.06,-300.57 670.06,-369.34 670.06,-593.24 670.06,-593.24 670.06,-593.24 670.06,-663.34 655.08,-683.84 614.06,-740.67 605.34,-752.75 594.13,-763.95 582.62,-773.77"/>
<polygon fill="black" stroke="black" points="580.13,-771.28 574.63,-780.33 584.58,-776.69 580.13,-771.28"/>
</g>
<!-- BB6&#45;&gt;BB8 -->
<g id="edge12" class="edge">
<title>BB6&#45;&gt;BB8</title>
<path fill="none" stroke="black" d="M679.2,-73.95C686.81,-85.21 694.26,-98.08 699.06,-110.95 722.12,-172.86 718.06,-192.32 718.06,-258.38 718.06,-593.24 718.06,-593.24 718.06,-593.24 718.06,-665.4 698.65,-687.33 650.06,-740.67 636.2,-755.89 618.37,-768.8 600.56,-779.32"/>
<polygon fill="black" stroke="black" points="598.79,-776.3 591.83,-784.29 602.25,-782.38 598.79,-776.3"/>
</g>
<!-- BB7&#45;&gt;BB8 -->
<g id="edge13" class="edge">
<title>BB7&#45;&gt;BB8</title>
<path fill="none" stroke="black" d="M356.06,-186.01C356.06,-229.65 356.06,-304.82 356.06,-369.34 356.06,-482.29 356.06,-482.29 356.06,-482.29 356.06,-548.36 332.8,-578.93 375.06,-629.72 408.5,-669.91 451.19,-627.68 487.06,-665.72 500.73,-680.22 511.48,-728.81 518.01,-766.28"/>
<polygon fill="black" stroke="black" points="514.62,-767.24 519.74,-776.52 521.53,-766.08 514.62,-767.24"/>
</g>
<!-- BB9 -->
<g id="node10" class="node">
<title>BB9</title>
<ellipse fill="none" stroke="black" cx="144.06" cy="-703.2" rx="105.22" ry="37.45"/>
<text text-anchor="middle" x="144.06" y="-714.5" font-family="Times New Roman,serif" font-size="14.00">[7a..7e)</text>
<text text-anchor="middle" x="144.06" y="-699.5" font-family="Times New Roman,serif" font-size="14.00">Normalized Count: 9.00</text>
<text text-anchor="middle" x="144.06" y="-684.5" font-family="Times New Roman,serif" font-size="14.00">Samples weight: 0.06</text>
</g>
<!-- BB8&#45;&gt;BB9 -->
<g id="edge15" class="edge">
<title>BB8&#45;&gt;BB9</title>
<path fill="none" stroke="black" d="M438.85,-790.62C386.67,-776.75 318.86,-758.3 259.06,-740.67 249.72,-737.92 239.97,-734.96 230.28,-731.97"/>
<polygon fill="black" stroke="black" points="231.22,-728.59 220.63,-728.97 229.14,-735.28 231.22,-728.59"/>
</g>
<!-- BB10 -->
<g id="node11" class="node">
<title>BB10</title>
<ellipse fill="none" stroke="black" cx="373.06" cy="-703.2" rx="105.22" ry="37.45"/>
<text text-anchor="middle" x="373.06" y="-714.5" font-family="Times New Roman,serif" font-size="14.00">[7e..7f)</text>
<text text-anchor="middle" x="373.06" y="-699.5" font-family="Times New Roman,serif" font-size="14.00">Normalized Count: 0.00</text>
<text text-anchor="middle" x="373.06" y="-684.5" font-family="Times New Roman,serif" font-size="14.00">Samples weight: 0.00</text>
</g>
<!-- BB8&#45;&gt;BB10 -->
<g id="edge14" class="edge">
<title>BB8&#45;&gt;BB10</title>
<path fill="none" stroke="black" d="M478.63,-779.87C462.35,-768.2 443.92,-754.99 427.07,-742.91"/>
<polygon fill="black" stroke="black" points="429.11,-740.07 418.94,-737.09 425.03,-745.76 429.11,-740.07"/>
</g>
<!-- BB9&#45;&gt;BB1 -->
<g id="edge16" class="edge">
<title>BB9&#45;&gt;BB1</title>
<path fill="none" stroke="black" d="M221.36,-677.59C233.95,-673.6 246.86,-669.53 259.06,-665.72 306.79,-650.79 360.04,-634.35 403.77,-620.9"/>
<polygon fill="black" stroke="black" points="404.99,-624.19 413.52,-617.91 402.94,-617.5 404.99,-624.19"/>
</g>
<!-- BB9&#45;&gt;BB10 -->
<g id="edge17" class="edge">
<title>BB9&#45;&gt;BB10</title>
<path fill="none" stroke="black" d="M249.61,-703.2C252.21,-703.2 254.82,-703.2 257.42,-703.2"/>
<polygon fill="black" stroke="black" points="257.45,-706.7 267.45,-703.2 257.45,-699.7 257.45,-706.7"/>
</g>
</g>
</svg>
