<?xml version="1.0" encoding="UTF-8" standalone="no"?>
<!DOCTYPE svg PUBLIC "-//W3C//DTD SVG 1.1//EN"
 "http://www.w3.org/Graphics/SVG/1.1/DTD/svg11.dtd">
<!-- Generated by graphviz version 2.47.0 (20210316.0004)
 -->
<!-- Title: G Pages: 1 -->
<svg width="581pt" height="749pt"
 viewBox="0.00 0.00 580.72 748.67" xmlns="http://www.w3.org/2000/svg" xmlns:xlink="http://www.w3.org/1999/xlink">
<g id="graph0" class="graph" transform="scale(1 1) rotate(0) translate(4 744.67)">
<title>G</title>
<polygon fill="white" stroke="transparent" points="-4,4 -4,-744.67 576.72,-744.67 576.72,4 -4,4"/>
<!-- BB0 -->
<g id="node1" class="node">
<title>BB0</title>
<ellipse fill="none" stroke="black" cx="238.36" cy="-703.2" rx="105.22" ry="37.45"/>
<text text-anchor="middle" x="238.36" y="-714.5" font-family="Times New Roman,serif" font-size="14.00">[0..10)</text>
<text text-anchor="middle" x="238.36" y="-699.5" font-family="Times New Roman,serif" font-size="14.00">Normalized Count: 1.00</text>
<text text-anchor="middle" x="238.36" y="-684.5" font-family="Times New Roman,serif" font-size="14.00">Samples weight: 0.00</text>
</g>
<!-- BB7 -->
<g id="node8" class="node">
<title>BB7</title>
<ellipse fill="none" stroke="black" cx="238.36" cy="-592.24" rx="105.22" ry="37.45"/>
<text text-anchor="middle" x="238.36" y="-603.54" font-family="Times New Roman,serif" font-size="14.00">[c7..cf)</text>
<text text-anchor="middle" x="238.36" y="-588.54" font-family="Times New Roman,serif" font-size="14.00">Normalized Count: 2.00</text>
<text text-anchor="middle" x="238.36" y="-573.54" font-family="Times New Roman,serif" font-size="14.00">Samples weight: 0.01</text>
</g>
<!-- BB0&#45;&gt;BB7 -->
<g id="edge1" class="edge">
<title>BB0&#45;&gt;BB7</title>
<path fill="none" stroke="black" d="M238.36,-665.61C238.36,-657.44 238.36,-648.66 238.36,-640.13"/>
<polygon fill="black" stroke="black" points="241.86,-639.92 238.36,-629.92 234.86,-639.92 241.86,-639.92"/>
</g>
<!-- BB1 -->
<g id="node2" class="node">
<title>BB1</title>
<ellipse fill="none" stroke="black" cx="238.36" cy="-481.29" rx="105.22" ry="37.45"/>
<text text-anchor="middle" x="238.36" y="-492.59" font-family="Times New Roman,serif" font-size="14.00">[10..1f)</text>
<text text-anchor="middle" x="238.36" y="-477.59" font-family="Times New Roman,serif" font-size="14.00">Normalized Count: 1.00</text>
<text text-anchor="middle" x="238.36" y="-462.59" font-family="Times New Roman,serif" font-size="14.00">Samples weight: 0.00</text>
</g>
<!-- BB5 -->
<g id="node6" class="node">
<title>BB5</title>
<ellipse fill="none" stroke="black" cx="241.36" cy="-370.34" rx="110.12" ry="37.45"/>
<text text-anchor="middle" x="241.36" y="-381.64" font-family="Times New Roman,serif" font-size="14.00">[b2..c1)</text>
<text text-anchor="middle" x="241.36" y="-366.64" font-family="Times New Roman,serif" font-size="14.00">Normalized Count: 30.00</text>
<text text-anchor="middle" x="241.36" y="-351.64" font-family="Times New Roman,serif" font-size="14.00">Samples weight: 0.08</text>
</g>
<!-- BB1&#45;&gt;BB5 -->
<g id="edge2" class="edge">
<title>BB1&#45;&gt;BB5</title>
<path fill="none" stroke="black" d="M239.37,-443.71C239.59,-435.53 239.83,-426.75 240.07,-418.23"/>
<polygon fill="black" stroke="black" points="243.57,-418.1 240.35,-408.01 236.58,-417.91 243.57,-418.1"/>
</g>
<!-- BB2 -->
<g id="node3" class="node">
<title>BB2</title>
<ellipse fill="none" stroke="black" cx="379.36" cy="-259.38" rx="110.12" ry="37.45"/>
<text text-anchor="middle" x="379.36" y="-270.68" font-family="Times New Roman,serif" font-size="14.00">[1f..40)</text>
<text text-anchor="middle" x="379.36" y="-255.68" font-family="Times New Roman,serif" font-size="14.00">Normalized Count: 29.00</text>
<text text-anchor="middle" x="379.36" y="-240.68" font-family="Times New Roman,serif" font-size="14.00">Samples weight: 0.08</text>
</g>
<!-- BB3 -->
<g id="node4" class="node">
<title>BB3</title>
<ellipse fill="none" stroke="black" cx="382.36" cy="-148.43" rx="115.02" ry="37.45"/>
<text text-anchor="middle" x="382.36" y="-159.73" font-family="Times New Roman,serif" font-size="14.00">[40..a1)</text>
<text text-anchor="middle" x="382.36" y="-144.73" font-family="Times New Roman,serif" font-size="14.00">Normalized Count: 274.00</text>
<text text-anchor="middle" x="382.36" y="-129.73" font-family="Times New Roman,serif" font-size="14.00">Samples weight: 0.74</text>
</g>
<!-- BB2&#45;&gt;BB3 -->
<g id="edge3" class="edge">
<title>BB2&#45;&gt;BB3</title>
<path fill="none" stroke="black" d="M380.37,-221.8C380.59,-213.63 380.83,-204.85 381.07,-196.32"/>
<polygon fill="black" stroke="black" points="384.57,-196.19 381.35,-186.1 377.58,-196 384.57,-196.19"/>
</g>
<!-- BB3&#45;&gt;BB3 -->
<g id="edge4" class="edge">
<title>BB3&#45;&gt;BB3</title>
<path fill="none" stroke="black" d="M479.98,-168.39C500.67,-166.36 515.62,-159.71 515.62,-148.43 515.62,-139.09 505.37,-132.92 490.09,-129.93"/>
<polygon fill="black" stroke="black" points="490.37,-126.43 479.98,-128.47 489.38,-133.36 490.37,-126.43"/>
</g>
<!-- BB4 -->
<g id="node5" class="node">
<title>BB4</title>
<ellipse fill="none" stroke="black" cx="310.36" cy="-37.48" rx="110.12" ry="37.45"/>
<text text-anchor="middle" x="310.36" y="-48.78" font-family="Times New Roman,serif" font-size="14.00">[a1..b2)</text>
<text text-anchor="middle" x="310.36" y="-33.78" font-family="Times New Roman,serif" font-size="14.00">Normalized Count: 29.00</text>
<text text-anchor="middle" x="310.36" y="-18.78" font-family="Times New Roman,serif" font-size="14.00">Samples weight: 0.08</text>
</g>
<!-- BB3&#45;&gt;BB4 -->
<g id="edge5" class="edge">
<title>BB3&#45;&gt;BB4</title>
<path fill="none" stroke="black" d="M358.58,-111.45C352.56,-102.34 346.02,-92.45 339.76,-82.97"/>
<polygon fill="black" stroke="black" points="342.54,-80.83 334.11,-74.42 336.7,-84.69 342.54,-80.83"/>
</g>
<!-- BB4&#45;&gt;BB5 -->
<g id="edge6" class="edge">
<title>BB4&#45;&gt;BB5</title>
<path fill="none" stroke="black" d="M279.32,-73.46C271.06,-84.69 263.11,-97.69 258.36,-110.95 233.13,-181.38 233.52,-269.42 236.88,-322.42"/>
<polygon fill="black" stroke="black" points="233.4,-322.81 237.58,-332.54 240.38,-322.32 233.4,-322.81"/>
</g>
<!-- BB5&#45;&gt;BB2 -->
<g id="edge7" class="edge">
<title>BB5&#45;&gt;BB2</title>
<path fill="none" stroke="black" d="M284.27,-335.46C298.29,-324.39 313.99,-311.99 328.54,-300.51"/>
<polygon fill="black" stroke="black" points="330.8,-303.18 336.48,-294.24 326.46,-297.69 330.8,-303.18"/>
</g>
<!-- BB6 -->
<g id="node7" class="node">
<title>BB6</title>
<ellipse fill="none" stroke="black" cx="105.36" cy="-259.38" rx="105.22" ry="37.45"/>
<text text-anchor="middle" x="105.36" y="-270.68" font-family="Times New Roman,serif" font-size="14.00">[c1..c7)</text>
<text text-anchor="middle" x="105.36" y="-255.68" font-family="Times New Roman,serif" font-size="14.00">Normalized Count: 1.00</text>
<text text-anchor="middle" x="105.36" y="-240.68" font-family="Times New Roman,serif" font-size="14.00">Samples weight: 0.00</text>
</g>
<!-- BB5&#45;&gt;BB6 -->
<g id="edge8" class="edge">
<title>BB5&#45;&gt;BB6</title>
<path fill="none" stroke="black" d="M199.07,-335.46C185.13,-324.29 169.48,-311.76 155.04,-300.18"/>
<polygon fill="black" stroke="black" points="157.14,-297.39 147.15,-293.86 152.77,-302.85 157.14,-297.39"/>
</g>
<!-- BB6&#45;&gt;BB7 -->
<g id="edge9" class="edge">
<title>BB6&#45;&gt;BB7</title>
<path fill="none" stroke="black" d="M98.4,-296.81C90.29,-349.77 82.81,-449.28 124.36,-518.77 133.75,-534.48 148.02,-547.34 163.3,-557.64"/>
<polygon fill="black" stroke="black" points="161.56,-560.68 171.88,-563.1 165.32,-554.78 161.56,-560.68"/>
</g>
<!-- BB7&#45;&gt;BB1 -->
<g id="edge10" class="edge">
<title>BB7&#45;&gt;BB1</title>
<path fill="none" stroke="black" d="M238.36,-554.66C238.36,-546.49 238.36,-537.71 238.36,-529.18"/>
<polygon fill="black" stroke="black" points="241.86,-528.96 238.36,-518.96 234.86,-528.96 241.86,-528.96"/>
</g>
<!-- BB8 -->
<g id="node9" class="node">
<title>BB8</title>
<ellipse fill="none" stroke="black" cx="467.36" cy="-481.29" rx="105.22" ry="37.45"/>
<text text-anchor="middle" x="467.36" y="-492.59" font-family="Times New Roman,serif" font-size="14.00">[cf..d7)</text>
<text text-anchor="middle" x="467.36" y="-477.59" font-family="Times New Roman,serif" font-size="14.00">Normalized Count: 1.00</text>
<text text-anchor="middle" x="467.36" y="-462.59" font-family="Times New Roman,serif" font-size="14.00">Samples weight: 0.00</text>
</g>
<!-- BB7&#45;&gt;BB8 -->
<g id="edge11" class="edge">
<title>BB7&#45;&gt;BB8</title>
<path fill="none" stroke="black" d="M300.33,-561.76C329.86,-547.71 365.34,-530.83 395.99,-516.24"/>
<polygon fill="black" stroke="black" points="397.81,-519.25 405.34,-511.8 394.8,-512.93 397.81,-519.25"/>
</g>
</g>
</svg>
