<?xml version="1.0" encoding="UTF-8" standalone="no"?>
<!DOCTYPE svg PUBLIC "-//W3C//DTD SVG 1.1//EN"
 "http://www.w3.org/Graphics/SVG/1.1/DTD/svg11.dtd">
<!-- Generated by graphviz version 2.47.0 (20210316.0004)
 -->
<!-- Title: G Pages: 1 -->
<svg width="584pt" height="501pt"
 viewBox="0.00 0.00 584.42 500.67" xmlns="http://www.w3.org/2000/svg" xmlns:xlink="http://www.w3.org/1999/xlink">
<g id="graph0" class="graph" transform="scale(1 1) rotate(0) translate(4 496.67)">
<title>G</title>
<polygon fill="white" stroke="transparent" points="-4,4 -4,-496.67 580.42,-496.67 580.42,4 -4,4"/>
<!-- BB0 -->
<g id="node1" class="node">
<title>BB0</title>
<ellipse fill="none" stroke="black" cx="244.19" cy="-444.58" rx="103.48" ry="48.17"/>
<text text-anchor="middle" x="244.19" y="-463.38" font-family="Times New Roman,serif" font-size="14.00">[0..4)</text>
<text text-anchor="middle" x="244.19" y="-448.38" font-family="Times New Roman,serif" font-size="14.00">Count: 10271</text>
<text text-anchor="middle" x="244.19" y="-433.38" font-family="Times New Roman,serif" font-size="14.00">Normalized count: 1.00</text>
<text text-anchor="middle" x="244.19" y="-418.38" font-family="Times New Roman,serif" font-size="14.00">Samples weight: 0.00</text>
</g>
<!-- BB4 -->
<g id="node5" class="node">
<title>BB4</title>
<ellipse fill="none" stroke="black" cx="244.19" cy="-312.42" rx="113.27" ry="48.17"/>
<text text-anchor="middle" x="244.19" y="-331.22" font-family="Times New Roman,serif" font-size="14.00">[14..18)</text>
<text text-anchor="middle" x="244.19" y="-316.22" font-family="Times New Roman,serif" font-size="14.00">Count: 1027100</text>
<text text-anchor="middle" x="244.19" y="-301.22" font-family="Times New Roman,serif" font-size="14.00">Normalized count: 100.00</text>
<text text-anchor="middle" x="244.19" y="-286.22" font-family="Times New Roman,serif" font-size="14.00">Samples weight: 0.33</text>
</g>
<!-- BB0&#45;&gt;BB4 -->
<g id="edge1" class="edge">
<title>BB0&#45;&gt;BB4</title>
<path fill="none" stroke="black" d="M244.19,-396.22C244.19,-387.95 244.19,-379.27 244.19,-370.77"/>
<polygon fill="black" stroke="black" points="247.69,-370.52 244.19,-360.52 240.69,-370.52 247.69,-370.52"/>
</g>
<!-- BB1 -->
<g id="node2" class="node">
<title>BB1</title>
<ellipse fill="none" stroke="black" cx="244.19" cy="-180.25" rx="108.38" ry="48.17"/>
<text text-anchor="middle" x="244.19" y="-199.05" font-family="Times New Roman,serif" font-size="14.00">[4..e)</text>
<text text-anchor="middle" x="244.19" y="-184.05" font-family="Times New Roman,serif" font-size="14.00">Count: 1016829</text>
<text text-anchor="middle" x="244.19" y="-169.05" font-family="Times New Roman,serif" font-size="14.00">Normalized count: 99.00</text>
<text text-anchor="middle" x="244.19" y="-154.05" font-family="Times New Roman,serif" font-size="14.00">Samples weight: 0.33</text>
</g>
<!-- BB2 -->
<g id="node3" class="node">
<title>BB2</title>
<ellipse fill="none" stroke="black" cx="337.19" cy="-48.08" rx="103.48" ry="48.17"/>
<text text-anchor="middle" x="337.19" y="-66.88" font-family="Times New Roman,serif" font-size="14.00">[e..10)</text>
<text text-anchor="middle" x="337.19" y="-51.88" font-family="Times New Roman,serif" font-size="14.00">Count: 0</text>
<text text-anchor="middle" x="337.19" y="-36.88" font-family="Times New Roman,serif" font-size="14.00">Normalized count: 0.00</text>
<text text-anchor="middle" x="337.19" y="-21.88" font-family="Times New Roman,serif" font-size="14.00">Samples weight: 0.00</text>
</g>
<!-- BB1&#45;&gt;BB2 -->
<g id="edge3" class="edge">
<title>BB1&#45;&gt;BB2</title>
<path fill="none" stroke="black" d="M276.45,-134.09C283.74,-123.89 291.54,-112.97 299.04,-102.47"/>
<polygon fill="black" stroke="black" points="302.01,-104.34 304.98,-94.16 296.32,-100.27 302.01,-104.34"/>
</g>
<!-- BB3 -->
<g id="node4" class="node">
<title>BB3</title>
<ellipse fill="none" stroke="black" cx="108.19" cy="-48.08" rx="108.38" ry="48.17"/>
<text text-anchor="middle" x="108.19" y="-66.88" font-family="Times New Roman,serif" font-size="14.00">[10..14)</text>
<text text-anchor="middle" x="108.19" y="-51.88" font-family="Times New Roman,serif" font-size="14.00">Count: 1016829</text>
<text text-anchor="middle" x="108.19" y="-36.88" font-family="Times New Roman,serif" font-size="14.00">Normalized count: 99.00</text>
<text text-anchor="middle" x="108.19" y="-21.88" font-family="Times New Roman,serif" font-size="14.00">Samples weight: 0.33</text>
</g>
<!-- BB1&#45;&gt;BB3 -->
<g id="edge2" class="edge">
<title>BB1&#45;&gt;BB3</title>
<path fill="none" stroke="black" d="M199.28,-136.27C186.86,-124.38 173.28,-111.38 160.48,-99.13"/>
<polygon fill="black" stroke="black" points="162.69,-96.41 153.05,-92.02 157.85,-101.46 162.69,-96.41"/>
</g>
<!-- BB3&#45;&gt;BB4 -->
<g id="edge4" class="edge">
<title>BB3&#45;&gt;BB4</title>
<path fill="none" stroke="black" d="M103.01,-96.14C101.08,-134.33 103.72,-188.22 127.19,-228.33 136.42,-244.12 149.98,-257.68 164.63,-269"/>
<polygon fill="black" stroke="black" points="162.73,-271.94 172.85,-275.06 166.88,-266.31 162.73,-271.94"/>
</g>
<!-- BB4&#45;&gt;BB1 -->
<g id="edge5" class="edge">
<title>BB4&#45;&gt;BB1</title>
<path fill="none" stroke="black" d="M244.19,-264.05C244.19,-255.79 244.19,-247.1 244.19,-238.6"/>
<polygon fill="black" stroke="black" points="247.69,-238.36 244.19,-228.36 240.69,-238.36 247.69,-238.36"/>
</g>
<!-- BB5 -->
<g id="node6" class="node">
<title>BB5</title>
<ellipse fill="none" stroke="black" cx="473.19" cy="-180.25" rx="103.48" ry="48.17"/>
<text text-anchor="middle" x="473.19" y="-199.05" font-family="Times New Roman,serif" font-size="14.00">[18..1a)</text>
<text text-anchor="middle" x="473.19" y="-184.05" font-family="Times New Roman,serif" font-size="14.00">Count: 10271</text>
<text text-anchor="middle" x="473.19" y="-169.05" font-family="Times New Roman,serif" font-size="14.00">Normalized count: 1.00</text>
<text text-anchor="middle" x="473.19" y="-154.05" font-family="Times New Roman,serif" font-size="14.00">Samples weight: 0.00</text>
</g>
<!-- BB4&#45;&gt;BB5 -->
<g id="edge6" class="edge">
<title>BB4&#45;&gt;BB5</title>
<path fill="none" stroke="black" d="M311.04,-273.42C338.92,-257.57 371.38,-239.12 399.9,-222.91"/>
<polygon fill="black" stroke="black" points="401.65,-225.94 408.62,-217.95 398.19,-219.85 401.65,-225.94"/>
</g>
</g>
</svg>
