<?xml version="1.0" encoding="UTF-8" standalone="no"?>
<!DOCTYPE svg PUBLIC "-//W3C//DTD SVG 1.1//EN"
 "http://www.w3.org/Graphics/SVG/1.1/DTD/svg11.dtd">
<!-- Generated by graphviz version 2.47.0 (20210316.0004)
 -->
<!-- Title: G Pages: 1 -->
<svg width="1759pt" height="1677pt"
 viewBox="0.00 0.00 1759.05 1677.06" xmlns="http://www.w3.org/2000/svg" xmlns:xlink="http://www.w3.org/1999/xlink">
<g id="graph0" class="graph" transform="scale(1 1) rotate(0) translate(4 1673.06)">
<title>G</title>
<polygon fill="white" stroke="transparent" points="-4,4 -4,-1673.06 1755.05,-1673.06 1755.05,4 -4,4"/>
<!-- BB0 -->
<g id="node1" class="node">
<title>BB0</title>
<ellipse fill="none" stroke="black" cx="137.01" cy="-1642.19" rx="33.47" ry="26.74"/>
<text text-anchor="middle" x="137.01" y="-1645.99" font-family="Times New Roman,serif" font-size="14.00">[0..4)</text>
<text text-anchor="middle" x="137.01" y="-1630.99" font-family="Times New Roman,serif" font-size="14.00">0.00</text>
</g>
<!-- BB5 -->
<g id="node6" class="node">
<title>BB5</title>
<ellipse fill="none" stroke="black" cx="137.01" cy="-1552.45" rx="42.35" ry="26.74"/>
<text text-anchor="middle" x="137.01" y="-1556.25" font-family="Times New Roman,serif" font-size="14.00">[33..38)</text>
<text text-anchor="middle" x="137.01" y="-1541.25" font-family="Times New Roman,serif" font-size="14.00">0.00</text>
</g>
<!-- BB0&#45;&gt;BB5 -->
<g id="edge1" class="edge">
<title>BB0&#45;&gt;BB5</title>
<path fill="none" stroke="black" d="M137.01,-1614.87C137.01,-1606.9 137.01,-1598.01 137.01,-1589.52"/>
<polygon fill="black" stroke="black" points="140.51,-1589.46 137.01,-1579.46 133.51,-1589.46 140.51,-1589.46"/>
</g>
<!-- BB1 -->
<g id="node2" class="node">
<title>BB1</title>
<ellipse fill="none" stroke="black" cx="137.01" cy="-1462.71" rx="33.47" ry="26.74"/>
<text text-anchor="middle" x="137.01" y="-1466.51" font-family="Times New Roman,serif" font-size="14.00">[4..8)</text>
<text text-anchor="middle" x="137.01" y="-1451.51" font-family="Times New Roman,serif" font-size="14.00">0.00</text>
</g>
<!-- BB3 -->
<g id="node4" class="node">
<title>BB3</title>
<ellipse fill="none" stroke="black" cx="137.01" cy="-1372.97" rx="40.11" ry="26.74"/>
<text text-anchor="middle" x="137.01" y="-1376.77" font-family="Times New Roman,serif" font-size="14.00">[2a..2f)</text>
<text text-anchor="middle" x="137.01" y="-1361.77" font-family="Times New Roman,serif" font-size="14.00">0.00</text>
</g>
<!-- BB1&#45;&gt;BB3 -->
<g id="edge2" class="edge">
<title>BB1&#45;&gt;BB3</title>
<path fill="none" stroke="black" d="M137.01,-1435.39C137.01,-1427.42 137.01,-1418.53 137.01,-1410.04"/>
<polygon fill="black" stroke="black" points="140.51,-1409.98 137.01,-1399.98 133.51,-1409.98 140.51,-1409.98"/>
</g>
<!-- BB2 -->
<g id="node3" class="node">
<title>BB2</title>
<ellipse fill="none" stroke="black" cx="137.01" cy="-1283.23" rx="37.45" ry="26.74"/>
<text text-anchor="middle" x="137.01" y="-1287.03" font-family="Times New Roman,serif" font-size="14.00">[8..2a)</text>
<text text-anchor="middle" x="137.01" y="-1272.03" font-family="Times New Roman,serif" font-size="14.00">0.00</text>
</g>
<!-- BB2&#45;&gt;BB3 -->
<g id="edge3" class="edge">
<title>BB2&#45;&gt;BB3</title>
<path fill="none" stroke="black" d="M143.22,-1309.9C143.74,-1318.09 143.88,-1327.32 143.66,-1336.1"/>
<polygon fill="black" stroke="black" points="140.16,-1335.98 143.23,-1346.12 147.16,-1336.28 140.16,-1335.98"/>
</g>
<!-- BB3&#45;&gt;BB2 -->
<g id="edge4" class="edge">
<title>BB3&#45;&gt;BB2</title>
<path fill="none" stroke="black" d="M130.8,-1346.12C130.28,-1337.91 130.14,-1328.68 130.37,-1319.9"/>
<polygon fill="black" stroke="black" points="133.87,-1320.04 130.81,-1309.9 126.87,-1319.73 133.87,-1320.04"/>
</g>
<!-- BB4 -->
<g id="node5" class="node">
<title>BB4</title>
<ellipse fill="none" stroke="black" cx="41.01" cy="-1283.23" rx="41.02" ry="26.74"/>
<text text-anchor="middle" x="41.01" y="-1287.03" font-family="Times New Roman,serif" font-size="14.00">[2f..33)</text>
<text text-anchor="middle" x="41.01" y="-1272.03" font-family="Times New Roman,serif" font-size="14.00">0.00</text>
</g>
<!-- BB3&#45;&gt;BB4 -->
<g id="edge5" class="edge">
<title>BB3&#45;&gt;BB4</title>
<path fill="none" stroke="black" d="M113.77,-1350.73C101.25,-1339.29 85.63,-1325.01 72.07,-1312.62"/>
<polygon fill="black" stroke="black" points="74.11,-1309.74 64.37,-1305.58 69.39,-1314.91 74.11,-1309.74"/>
</g>
<!-- BB4&#45;&gt;BB5 -->
<g id="edge6" class="edge">
<title>BB4&#45;&gt;BB5</title>
<path fill="none" stroke="black" d="M44.92,-1310.15C51.58,-1350.05 67.17,-1428.34 95.01,-1489.58 99.74,-1499.99 106.19,-1510.55 112.61,-1519.94"/>
<polygon fill="black" stroke="black" points="109.81,-1522.05 118.45,-1528.19 115.53,-1518 109.81,-1522.05"/>
</g>
<!-- BB5&#45;&gt;BB1 -->
<g id="edge7" class="edge">
<title>BB5&#45;&gt;BB1</title>
<path fill="none" stroke="black" d="M137.01,-1525.13C137.01,-1517.16 137.01,-1508.27 137.01,-1499.78"/>
<polygon fill="black" stroke="black" points="140.51,-1499.72 137.01,-1489.72 133.51,-1499.72 140.51,-1499.72"/>
</g>
<!-- BB6 -->
<g id="node7" class="node">
<title>BB6</title>
<ellipse fill="none" stroke="black" cx="234.01" cy="-1462.71" rx="42.35" ry="26.74"/>
<text text-anchor="middle" x="234.01" y="-1466.51" font-family="Times New Roman,serif" font-size="14.00">[38..3c)</text>
<text text-anchor="middle" x="234.01" y="-1451.51" font-family="Times New Roman,serif" font-size="14.00">0.00</text>
</g>
<!-- BB5&#45;&gt;BB6 -->
<g id="edge8" class="edge">
<title>BB5&#45;&gt;BB6</title>
<path fill="none" stroke="black" d="M160.99,-1529.76C173.56,-1518.39 189.11,-1504.33 202.63,-1492.1"/>
<polygon fill="black" stroke="black" points="205.24,-1494.45 210.31,-1485.15 200.55,-1489.26 205.24,-1494.45"/>
</g>
<!-- BB14 -->
<g id="node15" class="node">
<title>BB14</title>
<ellipse fill="none" stroke="black" cx="255.01" cy="-1372.97" rx="42.35" ry="26.74"/>
<text text-anchor="middle" x="255.01" y="-1376.77" font-family="Times New Roman,serif" font-size="14.00">[72..77)</text>
<text text-anchor="middle" x="255.01" y="-1361.77" font-family="Times New Roman,serif" font-size="14.00">0.00</text>
</g>
<!-- BB6&#45;&gt;BB14 -->
<g id="edge9" class="edge">
<title>BB6&#45;&gt;BB14</title>
<path fill="none" stroke="black" d="M240.2,-1435.86C242.16,-1427.65 244.37,-1418.42 246.47,-1409.64"/>
<polygon fill="black" stroke="black" points="249.95,-1410.18 248.87,-1399.64 243.14,-1408.55 249.95,-1410.18"/>
</g>
<!-- BB7 -->
<g id="node8" class="node">
<title>BB7</title>
<ellipse fill="none" stroke="black" cx="272.01" cy="-1283.23" rx="42.35" ry="26.74"/>
<text text-anchor="middle" x="272.01" y="-1287.03" font-family="Times New Roman,serif" font-size="14.00">[3c..40)</text>
<text text-anchor="middle" x="272.01" y="-1272.03" font-family="Times New Roman,serif" font-size="14.00">0.00</text>
</g>
<!-- BB12 -->
<g id="node13" class="node">
<title>BB12</title>
<ellipse fill="none" stroke="black" cx="272.01" cy="-1193.49" rx="41.94" ry="26.74"/>
<text text-anchor="middle" x="272.01" y="-1197.29" font-family="Times New Roman,serif" font-size="14.00">[69..6e)</text>
<text text-anchor="middle" x="272.01" y="-1182.29" font-family="Times New Roman,serif" font-size="14.00">0.00</text>
</g>
<!-- BB7&#45;&gt;BB12 -->
<g id="edge10" class="edge">
<title>BB7&#45;&gt;BB12</title>
<path fill="none" stroke="black" d="M272.01,-1255.91C272.01,-1247.94 272.01,-1239.05 272.01,-1230.56"/>
<polygon fill="black" stroke="black" points="275.51,-1230.5 272.01,-1220.5 268.51,-1230.5 275.51,-1230.5"/>
</g>
<!-- BB8 -->
<g id="node9" class="node">
<title>BB8</title>
<ellipse fill="none" stroke="black" cx="342.01" cy="-1103.75" rx="42.35" ry="26.74"/>
<text text-anchor="middle" x="342.01" y="-1107.55" font-family="Times New Roman,serif" font-size="14.00">[40..44)</text>
<text text-anchor="middle" x="342.01" y="-1092.55" font-family="Times New Roman,serif" font-size="14.00">0.00</text>
</g>
<!-- BB10 -->
<g id="node11" class="node">
<title>BB10</title>
<ellipse fill="none" stroke="black" cx="342.01" cy="-1014.01" rx="42.35" ry="26.74"/>
<text text-anchor="middle" x="342.01" y="-1017.81" font-family="Times New Roman,serif" font-size="14.00">[60..65)</text>
<text text-anchor="middle" x="342.01" y="-1002.81" font-family="Times New Roman,serif" font-size="14.00">0.07</text>
</g>
<!-- BB8&#45;&gt;BB10 -->
<g id="edge11" class="edge">
<title>BB8&#45;&gt;BB10</title>
<path fill="none" stroke="black" d="M342.01,-1076.43C342.01,-1068.46 342.01,-1059.57 342.01,-1051.08"/>
<polygon fill="black" stroke="black" points="345.51,-1051.02 342.01,-1041.02 338.51,-1051.02 345.51,-1051.02"/>
</g>
<!-- BB9 -->
<g id="node10" class="node">
<title>BB9</title>
<ellipse fill="none" stroke="black" cx="342.01" cy="-924.27" rx="42.35" ry="26.74"/>
<text text-anchor="middle" x="342.01" y="-928.07" font-family="Times New Roman,serif" font-size="14.00">[44..60)</text>
<text text-anchor="middle" x="342.01" y="-913.07" font-family="Times New Roman,serif" font-size="14.00">0.07</text>
</g>
<!-- BB9&#45;&gt;BB10 -->
<g id="edge12" class="edge">
<title>BB9&#45;&gt;BB10</title>
<path fill="none" stroke="black" d="M348.22,-950.94C348.74,-959.13 348.88,-968.36 348.66,-977.14"/>
<polygon fill="black" stroke="black" points="345.16,-977.02 348.23,-987.16 352.16,-977.32 345.16,-977.02"/>
</g>
<!-- BB10&#45;&gt;BB9 -->
<g id="edge13" class="edge">
<title>BB10&#45;&gt;BB9</title>
<path fill="none" stroke="black" d="M335.8,-987.16C335.28,-978.95 335.14,-969.72 335.37,-960.94"/>
<polygon fill="black" stroke="black" points="338.87,-961.08 335.81,-950.94 331.87,-960.77 338.87,-961.08"/>
</g>
<!-- BB11 -->
<g id="node12" class="node">
<title>BB11</title>
<ellipse fill="none" stroke="black" cx="239.01" cy="-924.27" rx="42.35" ry="26.74"/>
<text text-anchor="middle" x="239.01" y="-928.07" font-family="Times New Roman,serif" font-size="14.00">[65..69)</text>
<text text-anchor="middle" x="239.01" y="-913.07" font-family="Times New Roman,serif" font-size="14.00">0.00</text>
</g>
<!-- BB10&#45;&gt;BB11 -->
<g id="edge14" class="edge">
<title>BB10&#45;&gt;BB11</title>
<path fill="none" stroke="black" d="M317.34,-992C303.68,-980.36 286.53,-965.75 271.76,-953.17"/>
<polygon fill="black" stroke="black" points="273.72,-950.24 263.84,-946.42 269.18,-955.57 273.72,-950.24"/>
</g>
<!-- BB11&#45;&gt;BB12 -->
<g id="edge15" class="edge">
<title>BB11&#45;&gt;BB12</title>
<path fill="none" stroke="black" d="M242.2,-951.09C248.12,-998.99 260.8,-1101.7 267.56,-1156.43"/>
<polygon fill="black" stroke="black" points="264.09,-1156.89 268.79,-1166.38 271.04,-1156.03 264.09,-1156.89"/>
</g>
<!-- BB12&#45;&gt;BB8 -->
<g id="edge16" class="edge">
<title>BB12&#45;&gt;BB8</title>
<path fill="none" stroke="black" d="M290.77,-1168.98C298.84,-1158.87 308.39,-1146.9 317.04,-1136.05"/>
<polygon fill="black" stroke="black" points="319.94,-1138.02 323.44,-1128.02 314.47,-1133.66 319.94,-1138.02"/>
</g>
<!-- BB13 -->
<g id="node14" class="node">
<title>BB13</title>
<ellipse fill="none" stroke="black" cx="202.01" cy="-1103.75" rx="41.94" ry="26.74"/>
<text text-anchor="middle" x="202.01" y="-1107.55" font-family="Times New Roman,serif" font-size="14.00">[6e..72)</text>
<text text-anchor="middle" x="202.01" y="-1092.55" font-family="Times New Roman,serif" font-size="14.00">0.00</text>
</g>
<!-- BB12&#45;&gt;BB13 -->
<g id="edge17" class="edge">
<title>BB12&#45;&gt;BB13</title>
<path fill="none" stroke="black" d="M253.25,-1168.98C245.19,-1158.87 235.64,-1146.9 226.98,-1136.05"/>
<polygon fill="black" stroke="black" points="229.55,-1133.66 220.58,-1128.02 224.08,-1138.02 229.55,-1133.66"/>
</g>
<!-- BB13&#45;&gt;BB14 -->
<g id="edge18" class="edge">
<title>BB13&#45;&gt;BB14</title>
<path fill="none" stroke="black" d="M201.07,-1130.69C200.37,-1170.29 201.92,-1247.8 221.01,-1310.1 224.06,-1320.03 228.81,-1330.17 233.81,-1339.29"/>
<polygon fill="black" stroke="black" points="230.81,-1341.1 238.84,-1348.02 236.88,-1337.61 230.81,-1341.1"/>
</g>
<!-- BB14&#45;&gt;BB7 -->
<g id="edge19" class="edge">
<title>BB14&#45;&gt;BB7</title>
<path fill="none" stroke="black" d="M260.02,-1346.12C261.6,-1337.98 263.37,-1328.84 265.06,-1320.14"/>
<polygon fill="black" stroke="black" points="268.51,-1320.68 266.98,-1310.2 261.64,-1319.35 268.51,-1320.68"/>
</g>
<!-- BB15 -->
<g id="node16" class="node">
<title>BB15</title>
<ellipse fill="none" stroke="black" cx="446.01" cy="-1283.23" rx="43.27" ry="26.74"/>
<text text-anchor="middle" x="446.01" y="-1287.03" font-family="Times New Roman,serif" font-size="14.00">[77..7b)</text>
<text text-anchor="middle" x="446.01" y="-1272.03" font-family="Times New Roman,serif" font-size="14.00">0.00</text>
</g>
<!-- BB14&#45;&gt;BB15 -->
<g id="edge20" class="edge">
<title>BB14&#45;&gt;BB15</title>
<path fill="none" stroke="black" d="M288.72,-1356.49C320.44,-1341.92 368.09,-1320.03 402.63,-1304.16"/>
<polygon fill="black" stroke="black" points="404.37,-1307.21 412,-1299.86 401.45,-1300.85 404.37,-1307.21"/>
</g>
<!-- BB23 -->
<g id="node24" class="node">
<title>BB23</title>
<ellipse fill="none" stroke="black" cx="481.01" cy="-1193.49" rx="43.68" ry="26.74"/>
<text text-anchor="middle" x="481.01" y="-1197.29" font-family="Times New Roman,serif" font-size="14.00">[b1..b6)</text>
<text text-anchor="middle" x="481.01" y="-1182.29" font-family="Times New Roman,serif" font-size="14.00">0.00</text>
</g>
<!-- BB15&#45;&gt;BB23 -->
<g id="edge21" class="edge">
<title>BB15&#45;&gt;BB23</title>
<path fill="none" stroke="black" d="M456.14,-1256.85C459.58,-1248.21 463.5,-1238.4 467.18,-1229.16"/>
<polygon fill="black" stroke="black" points="470.46,-1230.4 470.91,-1219.81 463.96,-1227.8 470.46,-1230.4"/>
</g>
<!-- BB16 -->
<g id="node17" class="node">
<title>BB16</title>
<ellipse fill="none" stroke="black" cx="516.01" cy="-1103.75" rx="41.94" ry="26.74"/>
<text text-anchor="middle" x="516.01" y="-1107.55" font-family="Times New Roman,serif" font-size="14.00">[7b..7f)</text>
<text text-anchor="middle" x="516.01" y="-1092.55" font-family="Times New Roman,serif" font-size="14.00">0.00</text>
</g>
<!-- BB21 -->
<g id="node22" class="node">
<title>BB21</title>
<ellipse fill="none" stroke="black" cx="516.01" cy="-1014.01" rx="41.94" ry="26.74"/>
<text text-anchor="middle" x="516.01" y="-1017.81" font-family="Times New Roman,serif" font-size="14.00">[a8..ad)</text>
<text text-anchor="middle" x="516.01" y="-1002.81" font-family="Times New Roman,serif" font-size="14.00">0.00</text>
</g>
<!-- BB16&#45;&gt;BB21 -->
<g id="edge22" class="edge">
<title>BB16&#45;&gt;BB21</title>
<path fill="none" stroke="black" d="M516.01,-1076.43C516.01,-1068.46 516.01,-1059.57 516.01,-1051.08"/>
<polygon fill="black" stroke="black" points="519.51,-1051.02 516.01,-1041.02 512.51,-1051.02 519.51,-1051.02"/>
</g>
<!-- BB17 -->
<g id="node18" class="node">
<title>BB17</title>
<ellipse fill="none" stroke="black" cx="586.01" cy="-924.27" rx="41.02" ry="26.74"/>
<text text-anchor="middle" x="586.01" y="-928.07" font-family="Times New Roman,serif" font-size="14.00">[7f..83)</text>
<text text-anchor="middle" x="586.01" y="-913.07" font-family="Times New Roman,serif" font-size="14.00">0.00</text>
</g>
<!-- BB19 -->
<g id="node20" class="node">
<title>BB19</title>
<ellipse fill="none" stroke="black" cx="586.01" cy="-834.53" rx="40.11" ry="26.74"/>
<text text-anchor="middle" x="586.01" y="-838.33" font-family="Times New Roman,serif" font-size="14.00">[9f..a4)</text>
<text text-anchor="middle" x="586.01" y="-823.33" font-family="Times New Roman,serif" font-size="14.00">0.07</text>
</g>
<!-- BB17&#45;&gt;BB19 -->
<g id="edge23" class="edge">
<title>BB17&#45;&gt;BB19</title>
<path fill="none" stroke="black" d="M586.01,-896.95C586.01,-888.98 586.01,-880.09 586.01,-871.6"/>
<polygon fill="black" stroke="black" points="589.51,-871.54 586.01,-861.54 582.51,-871.54 589.51,-871.54"/>
</g>
<!-- BB18 -->
<g id="node19" class="node">
<title>BB18</title>
<ellipse fill="none" stroke="black" cx="586.01" cy="-744.79" rx="41.02" ry="26.74"/>
<text text-anchor="middle" x="586.01" y="-748.59" font-family="Times New Roman,serif" font-size="14.00">[83..9f)</text>
<text text-anchor="middle" x="586.01" y="-733.59" font-family="Times New Roman,serif" font-size="14.00">0.07</text>
</g>
<!-- BB18&#45;&gt;BB19 -->
<g id="edge24" class="edge">
<title>BB18&#45;&gt;BB19</title>
<path fill="none" stroke="black" d="M592.22,-771.46C592.74,-779.65 592.88,-788.88 592.66,-797.66"/>
<polygon fill="black" stroke="black" points="589.16,-797.54 592.23,-807.68 596.16,-797.84 589.16,-797.54"/>
</g>
<!-- BB19&#45;&gt;BB18 -->
<g id="edge25" class="edge">
<title>BB19&#45;&gt;BB18</title>
<path fill="none" stroke="black" d="M579.8,-807.68C579.28,-799.47 579.14,-790.24 579.37,-781.46"/>
<polygon fill="black" stroke="black" points="582.87,-781.6 579.81,-771.46 575.87,-781.29 582.87,-781.6"/>
</g>
<!-- BB20 -->
<g id="node21" class="node">
<title>BB20</title>
<ellipse fill="none" stroke="black" cx="485.01" cy="-744.79" rx="41.94" ry="26.74"/>
<text text-anchor="middle" x="485.01" y="-748.59" font-family="Times New Roman,serif" font-size="14.00">[a4..a8)</text>
<text text-anchor="middle" x="485.01" y="-733.59" font-family="Times New Roman,serif" font-size="14.00">0.00</text>
</g>
<!-- BB19&#45;&gt;BB20 -->
<g id="edge26" class="edge">
<title>BB19&#45;&gt;BB20</title>
<path fill="none" stroke="black" d="M562.08,-812.74C548.59,-801.02 531.57,-786.24 516.96,-773.54"/>
<polygon fill="black" stroke="black" points="518.97,-770.65 509.13,-766.74 514.38,-775.94 518.97,-770.65"/>
</g>
<!-- BB20&#45;&gt;BB21 -->
<g id="edge27" class="edge">
<title>BB20&#45;&gt;BB21</title>
<path fill="none" stroke="black" d="M488.01,-771.61C493.56,-819.51 505.48,-922.22 511.83,-976.95"/>
<polygon fill="black" stroke="black" points="508.35,-977.37 512.98,-986.9 515.31,-976.57 508.35,-977.37"/>
</g>
<!-- BB21&#45;&gt;BB17 -->
<g id="edge28" class="edge">
<title>BB21&#45;&gt;BB17</title>
<path fill="none" stroke="black" d="M534.77,-989.5C542.84,-979.39 552.39,-967.42 561.04,-956.57"/>
<polygon fill="black" stroke="black" points="563.94,-958.54 567.44,-948.54 558.47,-954.18 563.94,-958.54"/>
</g>
<!-- BB22 -->
<g id="node23" class="node">
<title>BB22</title>
<ellipse fill="none" stroke="black" cx="446.01" cy="-924.27" rx="43.27" ry="26.74"/>
<text text-anchor="middle" x="446.01" y="-928.07" font-family="Times New Roman,serif" font-size="14.00">[ad..b1)</text>
<text text-anchor="middle" x="446.01" y="-913.07" font-family="Times New Roman,serif" font-size="14.00">0.00</text>
</g>
<!-- BB21&#45;&gt;BB22 -->
<g id="edge29" class="edge">
<title>BB21&#45;&gt;BB22</title>
<path fill="none" stroke="black" d="M497.25,-989.5C489.19,-979.39 479.64,-967.42 470.98,-956.57"/>
<polygon fill="black" stroke="black" points="473.55,-954.18 464.58,-948.54 468.08,-958.54 473.55,-954.18"/>
</g>
<!-- BB22&#45;&gt;BB23 -->
<g id="edge30" class="edge">
<title>BB22&#45;&gt;BB23</title>
<path fill="none" stroke="black" d="M447.08,-951.38C448.99,-990.56 453.88,-1066.78 465.01,-1130.62 466.52,-1139.26 468.62,-1148.47 470.81,-1157.06"/>
<polygon fill="black" stroke="black" points="467.44,-1158.03 473.38,-1166.81 474.21,-1156.24 467.44,-1158.03"/>
</g>
<!-- BB23&#45;&gt;BB16 -->
<g id="edge31" class="edge">
<title>BB23&#45;&gt;BB16</title>
<path fill="none" stroke="black" d="M491.14,-1167.11C494.58,-1158.47 498.5,-1148.66 502.18,-1139.42"/>
<polygon fill="black" stroke="black" points="505.46,-1140.66 505.91,-1130.07 498.96,-1138.06 505.46,-1140.66"/>
</g>
<!-- BB24 -->
<g id="node25" class="node">
<title>BB24</title>
<ellipse fill="none" stroke="black" cx="652.01" cy="-1103.75" rx="43.27" ry="26.74"/>
<text text-anchor="middle" x="652.01" y="-1107.55" font-family="Times New Roman,serif" font-size="14.00">[b6..ba)</text>
<text text-anchor="middle" x="652.01" y="-1092.55" font-family="Times New Roman,serif" font-size="14.00">0.00</text>
</g>
<!-- BB23&#45;&gt;BB24 -->
<g id="edge32" class="edge">
<title>BB23&#45;&gt;BB24</title>
<path fill="none" stroke="black" d="M513.98,-1175.57C541.39,-1161.51 580.56,-1141.41 610.18,-1126.22"/>
<polygon fill="black" stroke="black" points="612.13,-1129.15 619.43,-1121.47 608.94,-1122.92 612.13,-1129.15"/>
</g>
<!-- BB32 -->
<g id="node33" class="node">
<title>BB32</title>
<ellipse fill="none" stroke="black" cx="719.01" cy="-1014.01" rx="39.7" ry="26.74"/>
<text text-anchor="middle" x="719.01" y="-1017.81" font-family="Times New Roman,serif" font-size="14.00">[f0..f5)</text>
<text text-anchor="middle" x="719.01" y="-1002.81" font-family="Times New Roman,serif" font-size="14.00">0.00</text>
</g>
<!-- BB24&#45;&gt;BB32 -->
<g id="edge33" class="edge">
<title>BB24&#45;&gt;BB32</title>
<path fill="none" stroke="black" d="M669.97,-1079.24C677.69,-1069.13 686.83,-1057.16 695.11,-1046.31"/>
<polygon fill="black" stroke="black" points="697.95,-1048.36 701.24,-1038.28 692.39,-1044.11 697.95,-1048.36"/>
</g>
<!-- BB25 -->
<g id="node26" class="node">
<title>BB25</title>
<ellipse fill="none" stroke="black" cx="754.01" cy="-924.27" rx="42.35" ry="26.74"/>
<text text-anchor="middle" x="754.01" y="-928.07" font-family="Times New Roman,serif" font-size="14.00">[ba..be)</text>
<text text-anchor="middle" x="754.01" y="-913.07" font-family="Times New Roman,serif" font-size="14.00">0.00</text>
</g>
<!-- BB30 -->
<g id="node31" class="node">
<title>BB30</title>
<ellipse fill="none" stroke="black" cx="754.01" cy="-834.53" rx="41.94" ry="26.74"/>
<text text-anchor="middle" x="754.01" y="-838.33" font-family="Times New Roman,serif" font-size="14.00">[e7..ec)</text>
<text text-anchor="middle" x="754.01" y="-823.33" font-family="Times New Roman,serif" font-size="14.00">0.00</text>
</g>
<!-- BB25&#45;&gt;BB30 -->
<g id="edge34" class="edge">
<title>BB25&#45;&gt;BB30</title>
<path fill="none" stroke="black" d="M754.01,-896.95C754.01,-888.98 754.01,-880.09 754.01,-871.6"/>
<polygon fill="black" stroke="black" points="757.51,-871.54 754.01,-861.54 750.51,-871.54 757.51,-871.54"/>
</g>
<!-- BB26 -->
<g id="node27" class="node">
<title>BB26</title>
<ellipse fill="none" stroke="black" cx="823.01" cy="-744.79" rx="42.35" ry="26.74"/>
<text text-anchor="middle" x="823.01" y="-748.59" font-family="Times New Roman,serif" font-size="14.00">[be..c2)</text>
<text text-anchor="middle" x="823.01" y="-733.59" font-family="Times New Roman,serif" font-size="14.00">0.00</text>
</g>
<!-- BB28 -->
<g id="node29" class="node">
<title>BB28</title>
<ellipse fill="none" stroke="black" cx="823.01" cy="-655.05" rx="41.94" ry="26.74"/>
<text text-anchor="middle" x="823.01" y="-658.85" font-family="Times New Roman,serif" font-size="14.00">[de..e3)</text>
<text text-anchor="middle" x="823.01" y="-643.85" font-family="Times New Roman,serif" font-size="14.00">0.08</text>
</g>
<!-- BB26&#45;&gt;BB28 -->
<g id="edge35" class="edge">
<title>BB26&#45;&gt;BB28</title>
<path fill="none" stroke="black" d="M823.01,-717.47C823.01,-709.5 823.01,-700.61 823.01,-692.12"/>
<polygon fill="black" stroke="black" points="826.51,-692.05 823.01,-682.05 819.51,-692.05 826.51,-692.05"/>
</g>
<!-- BB27 -->
<g id="node28" class="node">
<title>BB27</title>
<ellipse fill="none" stroke="black" cx="823.01" cy="-565.31" rx="42.35" ry="26.74"/>
<text text-anchor="middle" x="823.01" y="-569.11" font-family="Times New Roman,serif" font-size="14.00">[c2..de)</text>
<text text-anchor="middle" x="823.01" y="-554.11" font-family="Times New Roman,serif" font-size="14.00">0.08</text>
</g>
<!-- BB27&#45;&gt;BB28 -->
<g id="edge36" class="edge">
<title>BB27&#45;&gt;BB28</title>
<path fill="none" stroke="black" d="M829.22,-591.98C829.74,-600.17 829.88,-609.4 829.66,-618.18"/>
<polygon fill="black" stroke="black" points="826.16,-618.06 829.23,-628.2 833.16,-618.36 826.16,-618.06"/>
</g>
<!-- BB28&#45;&gt;BB27 -->
<g id="edge37" class="edge">
<title>BB28&#45;&gt;BB27</title>
<path fill="none" stroke="black" d="M816.8,-628.2C816.28,-619.99 816.14,-610.76 816.37,-601.98"/>
<polygon fill="black" stroke="black" points="819.87,-602.12 816.81,-591.98 812.87,-601.81 819.87,-602.12"/>
</g>
<!-- BB29 -->
<g id="node30" class="node">
<title>BB29</title>
<ellipse fill="none" stroke="black" cx="721.01" cy="-565.31" rx="41.94" ry="26.74"/>
<text text-anchor="middle" x="721.01" y="-569.11" font-family="Times New Roman,serif" font-size="14.00">[e3..e7)</text>
<text text-anchor="middle" x="721.01" y="-554.11" font-family="Times New Roman,serif" font-size="14.00">0.00</text>
</g>
<!-- BB28&#45;&gt;BB29 -->
<g id="edge38" class="edge">
<title>BB28&#45;&gt;BB29</title>
<path fill="none" stroke="black" d="M798.58,-633.03C785.05,-621.4 768.07,-606.79 753.44,-594.21"/>
<polygon fill="black" stroke="black" points="755.46,-591.33 745.6,-587.46 750.9,-596.63 755.46,-591.33"/>
</g>
<!-- BB29&#45;&gt;BB30 -->
<g id="edge39" class="edge">
<title>BB29&#45;&gt;BB30</title>
<path fill="none" stroke="black" d="M724.2,-592.13C730.12,-640.03 742.8,-742.74 749.56,-797.47"/>
<polygon fill="black" stroke="black" points="746.09,-797.93 750.79,-807.42 753.04,-797.07 746.09,-797.93"/>
</g>
<!-- BB30&#45;&gt;BB26 -->
<g id="edge40" class="edge">
<title>BB30&#45;&gt;BB26</title>
<path fill="none" stroke="black" d="M772.5,-810.02C780.46,-799.91 789.87,-787.94 798.4,-777.09"/>
<polygon fill="black" stroke="black" points="801.28,-779.09 804.71,-769.06 795.78,-774.76 801.28,-779.09"/>
</g>
<!-- BB31 -->
<g id="node32" class="node">
<title>BB31</title>
<ellipse fill="none" stroke="black" cx="685.01" cy="-744.79" rx="40.11" ry="26.74"/>
<text text-anchor="middle" x="685.01" y="-748.59" font-family="Times New Roman,serif" font-size="14.00">[ec..f0)</text>
<text text-anchor="middle" x="685.01" y="-733.59" font-family="Times New Roman,serif" font-size="14.00">0.00</text>
</g>
<!-- BB30&#45;&gt;BB31 -->
<g id="edge41" class="edge">
<title>BB30&#45;&gt;BB31</title>
<path fill="none" stroke="black" d="M735.52,-810.02C727.57,-799.91 718.16,-787.94 709.63,-777.09"/>
<polygon fill="black" stroke="black" points="712.25,-774.76 703.31,-769.06 706.75,-779.09 712.25,-774.76"/>
</g>
<!-- BB31&#45;&gt;BB32 -->
<g id="edge42" class="edge">
<title>BB31&#45;&gt;BB32</title>
<path fill="none" stroke="black" d="M685.92,-771.9C687.58,-811.08 692.04,-887.3 703.01,-951.14 704.51,-959.86 706.63,-969.16 708.84,-977.82"/>
<polygon fill="black" stroke="black" points="705.49,-978.86 711.44,-987.63 712.26,-977.07 705.49,-978.86"/>
</g>
<!-- BB32&#45;&gt;BB25 -->
<g id="edge43" class="edge">
<title>BB32&#45;&gt;BB25</title>
<path fill="none" stroke="black" d="M729.14,-987.63C732.58,-978.99 736.5,-969.18 740.18,-959.94"/>
<polygon fill="black" stroke="black" points="743.46,-961.18 743.91,-950.59 736.96,-958.58 743.46,-961.18"/>
</g>
<!-- BB33 -->
<g id="node34" class="node">
<title>BB33</title>
<ellipse fill="none" stroke="black" cx="893.01" cy="-924.27" rx="39.7" ry="26.74"/>
<text text-anchor="middle" x="893.01" y="-928.07" font-family="Times New Roman,serif" font-size="14.00">[f5..f9)</text>
<text text-anchor="middle" x="893.01" y="-913.07" font-family="Times New Roman,serif" font-size="14.00">0.00</text>
</g>
<!-- BB32&#45;&gt;BB33 -->
<g id="edge44" class="edge">
<title>BB32&#45;&gt;BB33</title>
<path fill="none" stroke="black" d="M750.12,-997.33C778.73,-982.9 821.34,-961.41 852.58,-945.66"/>
<polygon fill="black" stroke="black" points="854.53,-948.6 861.88,-940.97 851.38,-942.35 854.53,-948.6"/>
</g>
<!-- BB41 -->
<g id="node42" class="node">
<title>BB41</title>
<ellipse fill="none" stroke="black" cx="970.01" cy="-834.53" rx="50.41" ry="26.74"/>
<text text-anchor="middle" x="970.01" y="-838.33" font-family="Times New Roman,serif" font-size="14.00">[12f..134)</text>
<text text-anchor="middle" x="970.01" y="-823.33" font-family="Times New Roman,serif" font-size="14.00">0.00</text>
</g>
<!-- BB33&#45;&gt;BB41 -->
<g id="edge45" class="edge">
<title>BB33&#45;&gt;BB41</title>
<path fill="none" stroke="black" d="M912.84,-900.68C921.81,-890.46 932.55,-878.22 942.3,-867.11"/>
<polygon fill="black" stroke="black" points="945.21,-869.1 949.17,-859.28 939.95,-864.48 945.21,-869.1"/>
</g>
<!-- BB34 -->
<g id="node35" class="node">
<title>BB34</title>
<ellipse fill="none" stroke="black" cx="1007.01" cy="-744.79" rx="39.7" ry="26.74"/>
<text text-anchor="middle" x="1007.01" y="-748.59" font-family="Times New Roman,serif" font-size="14.00">[f9..fd)</text>
<text text-anchor="middle" x="1007.01" y="-733.59" font-family="Times New Roman,serif" font-size="14.00">0.00</text>
</g>
<!-- BB39 -->
<g id="node40" class="node">
<title>BB39</title>
<ellipse fill="none" stroke="black" cx="1013.01" cy="-655.05" rx="52.15" ry="26.74"/>
<text text-anchor="middle" x="1013.01" y="-658.85" font-family="Times New Roman,serif" font-size="14.00">[126..12b)</text>
<text text-anchor="middle" x="1013.01" y="-643.85" font-family="Times New Roman,serif" font-size="14.00">0.00</text>
</g>
<!-- BB34&#45;&gt;BB39 -->
<g id="edge46" class="edge">
<title>BB34&#45;&gt;BB39</title>
<path fill="none" stroke="black" d="M1008.78,-717.94C1009.33,-709.89 1009.95,-700.86 1010.54,-692.24"/>
<polygon fill="black" stroke="black" points="1014.05,-692.24 1011.24,-682.02 1007.06,-691.76 1014.05,-692.24"/>
</g>
<!-- BB35 -->
<g id="node36" class="node">
<title>BB35</title>
<ellipse fill="none" stroke="black" cx="1090.01" cy="-565.31" rx="45.92" ry="26.74"/>
<text text-anchor="middle" x="1090.01" y="-569.11" font-family="Times New Roman,serif" font-size="14.00">[fd..101)</text>
<text text-anchor="middle" x="1090.01" y="-554.11" font-family="Times New Roman,serif" font-size="14.00">0.00</text>
</g>
<!-- BB37 -->
<g id="node38" class="node">
<title>BB37</title>
<ellipse fill="none" stroke="black" cx="1093.01" cy="-475.57" rx="52.15" ry="26.74"/>
<text text-anchor="middle" x="1093.01" y="-479.37" font-family="Times New Roman,serif" font-size="14.00">[11d..122)</text>
<text text-anchor="middle" x="1093.01" y="-464.37" font-family="Times New Roman,serif" font-size="14.00">0.08</text>
</g>
<!-- BB35&#45;&gt;BB37 -->
<g id="edge47" class="edge">
<title>BB35&#45;&gt;BB37</title>
<path fill="none" stroke="black" d="M1090.91,-537.99C1091.18,-530.02 1091.49,-521.13 1091.78,-512.64"/>
<polygon fill="black" stroke="black" points="1095.28,-512.69 1092.12,-502.57 1088.28,-512.45 1095.28,-512.69"/>
</g>
<!-- BB36 -->
<g id="node37" class="node">
<title>BB36</title>
<ellipse fill="none" stroke="black" cx="1093.01" cy="-385.83" rx="52.15" ry="26.74"/>
<text text-anchor="middle" x="1093.01" y="-389.63" font-family="Times New Roman,serif" font-size="14.00">[101..11d)</text>
<text text-anchor="middle" x="1093.01" y="-374.63" font-family="Times New Roman,serif" font-size="14.00">0.08</text>
</g>
<!-- BB36&#45;&gt;BB37 -->
<g id="edge48" class="edge">
<title>BB36&#45;&gt;BB37</title>
<path fill="none" stroke="black" d="M1099.24,-412.8C1099.74,-420.86 1099.88,-429.89 1099.67,-438.51"/>
<polygon fill="black" stroke="black" points="1096.16,-438.58 1099.23,-448.72 1103.15,-438.88 1096.16,-438.58"/>
</g>
<!-- BB37&#45;&gt;BB36 -->
<g id="edge49" class="edge">
<title>BB37&#45;&gt;BB36</title>
<path fill="none" stroke="black" d="M1086.8,-448.72C1086.29,-440.67 1086.14,-431.64 1086.36,-423.02"/>
<polygon fill="black" stroke="black" points="1089.86,-422.94 1086.79,-412.8 1082.87,-422.64 1089.86,-422.94"/>
</g>
<!-- BB38 -->
<g id="node39" class="node">
<title>BB38</title>
<ellipse fill="none" stroke="black" cx="970.01" cy="-385.83" rx="52.15" ry="26.74"/>
<text text-anchor="middle" x="970.01" y="-389.63" font-family="Times New Roman,serif" font-size="14.00">[122..126)</text>
<text text-anchor="middle" x="970.01" y="-374.63" font-family="Times New Roman,serif" font-size="14.00">0.00</text>
</g>
<!-- BB37&#45;&gt;BB38 -->
<g id="edge50" class="edge">
<title>BB37&#45;&gt;BB38</title>
<path fill="none" stroke="black" d="M1063.24,-453.33C1046.74,-441.56 1026.05,-426.8 1008.35,-414.18"/>
<polygon fill="black" stroke="black" points="1010.11,-411.14 999.94,-408.18 1006.05,-416.84 1010.11,-411.14"/>
</g>
<!-- BB38&#45;&gt;BB39 -->
<g id="edge51" class="edge">
<title>BB38&#45;&gt;BB39</title>
<path fill="none" stroke="black" d="M974.17,-412.65C981.87,-460.55 998.4,-563.26 1007.21,-617.99"/>
<polygon fill="black" stroke="black" points="1003.77,-618.63 1008.81,-627.94 1010.68,-617.51 1003.77,-618.63"/>
</g>
<!-- BB39&#45;&gt;BB35 -->
<g id="edge52" class="edge">
<title>BB39&#45;&gt;BB35</title>
<path fill="none" stroke="black" d="M1034.05,-630.08C1042.94,-619.95 1053.4,-608.03 1062.86,-597.25"/>
<polygon fill="black" stroke="black" points="1065.56,-599.48 1069.53,-589.65 1060.3,-594.86 1065.56,-599.48"/>
</g>
<!-- BB40 -->
<g id="node41" class="node">
<title>BB40</title>
<ellipse fill="none" stroke="black" cx="934.01" cy="-565.31" rx="50.82" ry="26.74"/>
<text text-anchor="middle" x="934.01" y="-569.11" font-family="Times New Roman,serif" font-size="14.00">[12b..12f)</text>
<text text-anchor="middle" x="934.01" y="-554.11" font-family="Times New Roman,serif" font-size="14.00">0.00</text>
</g>
<!-- BB39&#45;&gt;BB40 -->
<g id="edge53" class="edge">
<title>BB39&#45;&gt;BB40</title>
<path fill="none" stroke="black" d="M991.43,-630.08C982.38,-620.03 971.75,-608.22 962.11,-597.51"/>
<polygon fill="black" stroke="black" points="964.59,-595.04 955.3,-589.95 959.39,-599.73 964.59,-595.04"/>
</g>
<!-- BB40&#45;&gt;BB41 -->
<g id="edge54" class="edge">
<title>BB40&#45;&gt;BB41</title>
<path fill="none" stroke="black" d="M936.42,-592.33C940.18,-631.39 948.05,-707.46 958.01,-771.66 959.32,-780.12 960.95,-789.18 962.59,-797.69"/>
<polygon fill="black" stroke="black" points="959.19,-798.58 964.56,-807.72 966.06,-797.23 959.19,-798.58"/>
</g>
<!-- BB41&#45;&gt;BB34 -->
<g id="edge55" class="edge">
<title>BB41&#45;&gt;BB34</title>
<path fill="none" stroke="black" d="M980.71,-808.15C984.39,-799.44 988.57,-789.53 992.49,-780.22"/>
<polygon fill="black" stroke="black" points="995.8,-781.38 996.46,-770.81 989.35,-778.66 995.8,-781.38"/>
</g>
<!-- BB42 -->
<g id="node43" class="node">
<title>BB42</title>
<ellipse fill="none" stroke="black" cx="1165.01" cy="-744.79" rx="52.15" ry="26.74"/>
<text text-anchor="middle" x="1165.01" y="-748.59" font-family="Times New Roman,serif" font-size="14.00">[134..138)</text>
<text text-anchor="middle" x="1165.01" y="-733.59" font-family="Times New Roman,serif" font-size="14.00">0.00</text>
</g>
<!-- BB41&#45;&gt;BB42 -->
<g id="edge56" class="edge">
<title>BB41&#45;&gt;BB42</title>
<path fill="none" stroke="black" d="M1007.61,-816.61C1038.87,-802.55 1083.54,-782.45 1117.31,-767.25"/>
<polygon fill="black" stroke="black" points="1118.85,-770.4 1126.53,-763.11 1115.97,-764.02 1118.85,-770.4"/>
</g>
<!-- BB50 -->
<g id="node51" class="node">
<title>BB50</title>
<ellipse fill="none" stroke="black" cx="1253.01" cy="-655.05" rx="51.74" ry="26.74"/>
<text text-anchor="middle" x="1253.01" y="-658.85" font-family="Times New Roman,serif" font-size="14.00">[16e..173)</text>
<text text-anchor="middle" x="1253.01" y="-643.85" font-family="Times New Roman,serif" font-size="14.00">0.00</text>
</g>
<!-- BB42&#45;&gt;BB50 -->
<g id="edge57" class="edge">
<title>BB42&#45;&gt;BB50</title>
<path fill="none" stroke="black" d="M1188.59,-720.28C1199.04,-709.87 1211.45,-697.49 1222.58,-686.4"/>
<polygon fill="black" stroke="black" points="1225.06,-688.86 1229.67,-679.32 1220.12,-683.91 1225.06,-688.86"/>
</g>
<!-- BB43 -->
<g id="node44" class="node">
<title>BB43</title>
<ellipse fill="none" stroke="black" cx="1293.01" cy="-565.31" rx="52.15" ry="26.74"/>
<text text-anchor="middle" x="1293.01" y="-569.11" font-family="Times New Roman,serif" font-size="14.00">[138..13c)</text>
<text text-anchor="middle" x="1293.01" y="-554.11" font-family="Times New Roman,serif" font-size="14.00">0.00</text>
</g>
<!-- BB48 -->
<g id="node49" class="node">
<title>BB48</title>
<ellipse fill="none" stroke="black" cx="1293.01" cy="-475.57" rx="51.74" ry="26.74"/>
<text text-anchor="middle" x="1293.01" y="-479.37" font-family="Times New Roman,serif" font-size="14.00">[165..16a)</text>
<text text-anchor="middle" x="1293.01" y="-464.37" font-family="Times New Roman,serif" font-size="14.00">0.00</text>
</g>
<!-- BB43&#45;&gt;BB48 -->
<g id="edge58" class="edge">
<title>BB43&#45;&gt;BB48</title>
<path fill="none" stroke="black" d="M1293.01,-537.99C1293.01,-530.02 1293.01,-521.13 1293.01,-512.64"/>
<polygon fill="black" stroke="black" points="1296.51,-512.57 1293.01,-502.57 1289.51,-512.57 1296.51,-512.57"/>
</g>
<!-- BB44 -->
<g id="node45" class="node">
<title>BB44</title>
<ellipse fill="none" stroke="black" cx="1373.01" cy="-385.83" rx="52.15" ry="26.74"/>
<text text-anchor="middle" x="1373.01" y="-389.63" font-family="Times New Roman,serif" font-size="14.00">[13c..140)</text>
<text text-anchor="middle" x="1373.01" y="-374.63" font-family="Times New Roman,serif" font-size="14.00">0.00</text>
</g>
<!-- BB46 -->
<g id="node47" class="node">
<title>BB46</title>
<ellipse fill="none" stroke="black" cx="1373.01" cy="-296.09" rx="52.15" ry="26.74"/>
<text text-anchor="middle" x="1373.01" y="-299.89" font-family="Times New Roman,serif" font-size="14.00">[15c..161)</text>
<text text-anchor="middle" x="1373.01" y="-284.89" font-family="Times New Roman,serif" font-size="14.00">0.07</text>
</g>
<!-- BB44&#45;&gt;BB46 -->
<g id="edge59" class="edge">
<title>BB44&#45;&gt;BB46</title>
<path fill="none" stroke="black" d="M1373.01,-358.51C1373.01,-350.54 1373.01,-341.65 1373.01,-333.16"/>
<polygon fill="black" stroke="black" points="1376.51,-333.09 1373.01,-323.09 1369.51,-333.09 1376.51,-333.09"/>
</g>
<!-- BB45 -->
<g id="node46" class="node">
<title>BB45</title>
<ellipse fill="none" stroke="black" cx="1373.01" cy="-206.35" rx="52.15" ry="26.74"/>
<text text-anchor="middle" x="1373.01" y="-210.15" font-family="Times New Roman,serif" font-size="14.00">[140..15c)</text>
<text text-anchor="middle" x="1373.01" y="-195.15" font-family="Times New Roman,serif" font-size="14.00">0.07</text>
</g>
<!-- BB45&#45;&gt;BB46 -->
<g id="edge60" class="edge">
<title>BB45&#45;&gt;BB46</title>
<path fill="none" stroke="black" d="M1379.24,-233.32C1379.74,-241.38 1379.88,-250.41 1379.67,-259.03"/>
<polygon fill="black" stroke="black" points="1376.16,-259.1 1379.23,-269.24 1383.15,-259.4 1376.16,-259.1"/>
</g>
<!-- BB46&#45;&gt;BB45 -->
<g id="edge61" class="edge">
<title>BB46&#45;&gt;BB45</title>
<path fill="none" stroke="black" d="M1366.8,-269.24C1366.29,-261.19 1366.14,-252.16 1366.36,-243.54"/>
<polygon fill="black" stroke="black" points="1369.86,-243.46 1366.79,-233.32 1362.87,-243.16 1369.86,-243.46"/>
</g>
<!-- BB47 -->
<g id="node48" class="node">
<title>BB47</title>
<ellipse fill="none" stroke="black" cx="1250.01" cy="-206.35" rx="52.15" ry="26.74"/>
<text text-anchor="middle" x="1250.01" y="-210.15" font-family="Times New Roman,serif" font-size="14.00">[161..165)</text>
<text text-anchor="middle" x="1250.01" y="-195.15" font-family="Times New Roman,serif" font-size="14.00">0.00</text>
</g>
<!-- BB46&#45;&gt;BB47 -->
<g id="edge62" class="edge">
<title>BB46&#45;&gt;BB47</title>
<path fill="none" stroke="black" d="M1343.24,-273.85C1326.74,-262.08 1306.05,-247.32 1288.35,-234.7"/>
<polygon fill="black" stroke="black" points="1290.11,-231.66 1279.94,-228.7 1286.05,-237.35 1290.11,-231.66"/>
</g>
<!-- BB47&#45;&gt;BB48 -->
<g id="edge63" class="edge">
<title>BB47&#45;&gt;BB48</title>
<path fill="none" stroke="black" d="M1254.17,-233.17C1261.87,-281.07 1278.4,-383.78 1287.21,-438.51"/>
<polygon fill="black" stroke="black" points="1283.77,-439.14 1288.81,-448.46 1290.68,-438.03 1283.77,-439.14"/>
</g>
<!-- BB48&#45;&gt;BB44 -->
<g id="edge64" class="edge">
<title>BB48&#45;&gt;BB44</title>
<path fill="none" stroke="black" d="M1314.45,-451.06C1323.69,-440.93 1334.62,-428.94 1344.52,-418.08"/>
<polygon fill="black" stroke="black" points="1347.36,-420.16 1351.51,-410.41 1342.19,-415.44 1347.36,-420.16"/>
</g>
<!-- BB49 -->
<g id="node50" class="node">
<title>BB49</title>
<ellipse fill="none" stroke="black" cx="1214.01" cy="-385.83" rx="50.82" ry="26.74"/>
<text text-anchor="middle" x="1214.01" y="-389.63" font-family="Times New Roman,serif" font-size="14.00">[16a..16e)</text>
<text text-anchor="middle" x="1214.01" y="-374.63" font-family="Times New Roman,serif" font-size="14.00">0.00</text>
</g>
<!-- BB48&#45;&gt;BB49 -->
<g id="edge65" class="edge">
<title>BB48&#45;&gt;BB49</title>
<path fill="none" stroke="black" d="M1271.84,-451.06C1262.72,-440.93 1251.92,-428.94 1242.14,-418.08"/>
<polygon fill="black" stroke="black" points="1244.53,-415.5 1235.24,-410.41 1239.33,-420.18 1244.53,-415.5"/>
</g>
<!-- BB49&#45;&gt;BB50 -->
<g id="edge66" class="edge">
<title>BB49&#45;&gt;BB50</title>
<path fill="none" stroke="black" d="M1214.3,-412.73C1215.18,-451.96 1218.64,-528.62 1232.01,-592.18 1233.88,-601.05 1236.63,-610.41 1239.52,-619.1"/>
<polygon fill="black" stroke="black" points="1236.22,-620.26 1242.82,-628.55 1242.83,-617.95 1236.22,-620.26"/>
</g>
<!-- BB50&#45;&gt;BB43 -->
<g id="edge67" class="edge">
<title>BB50&#45;&gt;BB43</title>
<path fill="none" stroke="black" d="M1264.58,-628.67C1268.52,-620.03 1272.99,-610.22 1277.21,-600.98"/>
<polygon fill="black" stroke="black" points="1280.5,-602.18 1281.47,-591.63 1274.14,-599.28 1280.5,-602.18"/>
</g>
<!-- BB51 -->
<g id="node52" class="node">
<title>BB51</title>
<ellipse fill="none" stroke="black" cx="1455.01" cy="-565.31" rx="52.15" ry="26.74"/>
<text text-anchor="middle" x="1455.01" y="-569.11" font-family="Times New Roman,serif" font-size="14.00">[173..177)</text>
<text text-anchor="middle" x="1455.01" y="-554.11" font-family="Times New Roman,serif" font-size="14.00">0.00</text>
</g>
<!-- BB50&#45;&gt;BB51 -->
<g id="edge68" class="edge">
<title>BB50&#45;&gt;BB51</title>
<path fill="none" stroke="black" d="M1291.96,-637.13C1324.55,-622.98 1371.22,-602.71 1406.28,-587.48"/>
<polygon fill="black" stroke="black" points="1408.06,-590.52 1415.84,-583.33 1405.27,-584.1 1408.06,-590.52"/>
</g>
<!-- BB59 -->
<g id="node60" class="node">
<title>BB59</title>
<ellipse fill="none" stroke="black" cx="1535.01" cy="-475.57" rx="52.15" ry="26.74"/>
<text text-anchor="middle" x="1535.01" y="-479.37" font-family="Times New Roman,serif" font-size="14.00">[1ad..1b2)</text>
<text text-anchor="middle" x="1535.01" y="-464.37" font-family="Times New Roman,serif" font-size="14.00">0.00</text>
</g>
<!-- BB51&#45;&gt;BB59 -->
<g id="edge69" class="edge">
<title>BB51&#45;&gt;BB59</title>
<path fill="none" stroke="black" d="M1476.45,-540.8C1485.69,-530.67 1496.62,-518.68 1506.52,-507.82"/>
<polygon fill="black" stroke="black" points="1509.36,-509.9 1513.51,-500.15 1504.19,-505.18 1509.36,-509.9"/>
</g>
<!-- BB52 -->
<g id="node53" class="node">
<title>BB52</title>
<ellipse fill="none" stroke="black" cx="1575.01" cy="-385.83" rx="52.15" ry="26.74"/>
<text text-anchor="middle" x="1575.01" y="-389.63" font-family="Times New Roman,serif" font-size="14.00">[177..17b)</text>
<text text-anchor="middle" x="1575.01" y="-374.63" font-family="Times New Roman,serif" font-size="14.00">0.00</text>
</g>
<!-- BB57 -->
<g id="node58" class="node">
<title>BB57</title>
<ellipse fill="none" stroke="black" cx="1575.01" cy="-296.09" rx="50.82" ry="26.74"/>
<text text-anchor="middle" x="1575.01" y="-299.89" font-family="Times New Roman,serif" font-size="14.00">[1a4..1a9)</text>
<text text-anchor="middle" x="1575.01" y="-284.89" font-family="Times New Roman,serif" font-size="14.00">0.00</text>
</g>
<!-- BB52&#45;&gt;BB57 -->
<g id="edge70" class="edge">
<title>BB52&#45;&gt;BB57</title>
<path fill="none" stroke="black" d="M1575.01,-358.51C1575.01,-350.54 1575.01,-341.65 1575.01,-333.16"/>
<polygon fill="black" stroke="black" points="1578.51,-333.09 1575.01,-323.09 1571.51,-333.09 1578.51,-333.09"/>
</g>
<!-- BB53 -->
<g id="node54" class="node">
<title>BB53</title>
<ellipse fill="none" stroke="black" cx="1659.01" cy="-206.35" rx="50.82" ry="26.74"/>
<text text-anchor="middle" x="1659.01" y="-210.15" font-family="Times New Roman,serif" font-size="14.00">[17b..17f)</text>
<text text-anchor="middle" x="1659.01" y="-195.15" font-family="Times New Roman,serif" font-size="14.00">0.00</text>
</g>
<!-- BB55 -->
<g id="node56" class="node">
<title>BB55</title>
<ellipse fill="none" stroke="black" cx="1665.01" cy="-116.61" rx="52.15" ry="26.74"/>
<text text-anchor="middle" x="1665.01" y="-120.41" font-family="Times New Roman,serif" font-size="14.00">[19b..1a0)</text>
<text text-anchor="middle" x="1665.01" y="-105.41" font-family="Times New Roman,serif" font-size="14.00">0.08</text>
</g>
<!-- BB53&#45;&gt;BB55 -->
<g id="edge71" class="edge">
<title>BB53&#45;&gt;BB55</title>
<path fill="none" stroke="black" d="M1660.81,-179.03C1661.36,-171.06 1661.97,-162.17 1662.55,-153.68"/>
<polygon fill="black" stroke="black" points="1666.04,-153.83 1663.23,-143.61 1659.06,-153.35 1666.04,-153.83"/>
</g>
<!-- BB54 -->
<g id="node55" class="node">
<title>BB54</title>
<ellipse fill="none" stroke="black" cx="1675.01" cy="-26.87" rx="50.82" ry="26.74"/>
<text text-anchor="middle" x="1675.01" y="-30.67" font-family="Times New Roman,serif" font-size="14.00">[17f..19b)</text>
<text text-anchor="middle" x="1675.01" y="-15.67" font-family="Times New Roman,serif" font-size="14.00">0.08</text>
</g>
<!-- BB54&#45;&gt;BB55 -->
<g id="edge72" class="edge">
<title>BB54&#45;&gt;BB55</title>
<path fill="none" stroke="black" d="M1678.28,-53.84C1677.85,-61.99 1676.95,-71.13 1675.74,-79.83"/>
<polygon fill="black" stroke="black" points="1672.27,-79.34 1674.17,-89.76 1679.19,-80.43 1672.27,-79.34"/>
</g>
<!-- BB55&#45;&gt;BB54 -->
<g id="edge73" class="edge">
<title>BB55&#45;&gt;BB54</title>
<path fill="none" stroke="black" d="M1661.74,-89.76C1662.16,-81.55 1663.07,-72.32 1664.3,-63.54"/>
<polygon fill="black" stroke="black" points="1667.78,-63.96 1665.88,-53.54 1660.87,-62.87 1667.78,-63.96"/>
</g>
<!-- BB56 -->
<g id="node57" class="node">
<title>BB56</title>
<ellipse fill="none" stroke="black" cx="1555.01" cy="-26.87" rx="50.82" ry="26.74"/>
<text text-anchor="middle" x="1555.01" y="-30.67" font-family="Times New Roman,serif" font-size="14.00">[1a0..1a4)</text>
<text text-anchor="middle" x="1555.01" y="-15.67" font-family="Times New Roman,serif" font-size="14.00">0.00</text>
</g>
<!-- BB55&#45;&gt;BB56 -->
<g id="edge74" class="edge">
<title>BB55&#45;&gt;BB56</title>
<path fill="none" stroke="black" d="M1637.54,-93.7C1623.36,-82.39 1605.9,-68.46 1590.7,-56.33"/>
<polygon fill="black" stroke="black" points="1592.52,-53.31 1582.52,-49.81 1588.15,-58.78 1592.52,-53.31"/>
</g>
<!-- BB56&#45;&gt;BB57 -->
<g id="edge75" class="edge">
<title>BB56&#45;&gt;BB57</title>
<path fill="none" stroke="black" d="M1556.97,-54.08C1560.56,-102.06 1568.2,-204.06 1572.29,-258.71"/>
<polygon fill="black" stroke="black" points="1568.82,-259.27 1573.06,-268.98 1575.8,-258.75 1568.82,-259.27"/>
</g>
<!-- BB57&#45;&gt;BB53 -->
<g id="edge76" class="edge">
<title>BB57&#45;&gt;BB53</title>
<path fill="none" stroke="black" d="M1597.52,-271.58C1607.39,-261.27 1619.11,-249.03 1629.66,-238.01"/>
<polygon fill="black" stroke="black" points="1632.34,-240.27 1636.73,-230.62 1627.29,-235.43 1632.34,-240.27"/>
</g>
<!-- BB58 -->
<g id="node59" class="node">
<title>BB58</title>
<ellipse fill="none" stroke="black" cx="1495.01" cy="-206.35" rx="51.74" ry="26.74"/>
<text text-anchor="middle" x="1495.01" y="-210.15" font-family="Times New Roman,serif" font-size="14.00">[1a9..1ad)</text>
<text text-anchor="middle" x="1495.01" y="-195.15" font-family="Times New Roman,serif" font-size="14.00">0.00</text>
</g>
<!-- BB57&#45;&gt;BB58 -->
<g id="edge77" class="edge">
<title>BB57&#45;&gt;BB58</title>
<path fill="none" stroke="black" d="M1553.57,-271.58C1544.34,-261.45 1533.4,-249.46 1523.5,-238.59"/>
<polygon fill="black" stroke="black" points="1525.83,-235.96 1516.51,-230.93 1520.66,-240.68 1525.83,-235.96"/>
</g>
<!-- BB58&#45;&gt;BB59 -->
<g id="edge78" class="edge">
<title>BB58&#45;&gt;BB59</title>
<path fill="none" stroke="black" d="M1495.47,-233.25C1496.59,-272.49 1500.48,-349.14 1514.01,-412.7 1515.9,-421.57 1518.66,-430.93 1521.55,-439.61"/>
<polygon fill="black" stroke="black" points="1518.25,-440.77 1524.85,-449.06 1524.86,-438.47 1518.25,-440.77"/>
</g>
<!-- BB59&#45;&gt;BB52 -->
<g id="edge79" class="edge">
<title>BB59&#45;&gt;BB52</title>
<path fill="none" stroke="black" d="M1546.58,-449.19C1550.52,-440.55 1554.99,-430.74 1559.21,-421.5"/>
<polygon fill="black" stroke="black" points="1562.5,-422.7 1563.47,-412.15 1556.14,-419.8 1562.5,-422.7"/>
</g>
<!-- BB60 -->
<g id="node61" class="node">
<title>BB60</title>
<ellipse fill="none" stroke="black" cx="1698.01" cy="-385.83" rx="53.07" ry="26.74"/>
<text text-anchor="middle" x="1698.01" y="-389.63" font-family="Times New Roman,serif" font-size="14.00">[1b2..1b3)</text>
<text text-anchor="middle" x="1698.01" y="-374.63" font-family="Times New Roman,serif" font-size="14.00">0.00</text>
</g>
<!-- BB59&#45;&gt;BB60 -->
<g id="edge80" class="edge">
<title>BB59&#45;&gt;BB60</title>
<path fill="none" stroke="black" d="M1570.38,-455.53C1594.75,-442.41 1627.33,-424.87 1653.48,-410.8"/>
<polygon fill="black" stroke="black" points="1655.29,-413.8 1662.43,-405.98 1651.97,-407.64 1655.29,-413.8"/>
</g>
</g>
</svg>
