<?xml version="1.0" encoding="UTF-8" standalone="no"?>
<!DOCTYPE svg PUBLIC "-//W3C//DTD SVG 1.1//EN"
 "http://www.w3.org/Graphics/SVG/1.1/DTD/svg11.dtd">
<!-- Generated by graphviz version 2.47.0 (20210316.0004)
 -->
<!-- Title: G Pages: 1 -->
<svg width="1373pt" height="1192pt"
 viewBox="0.00 0.00 1372.93 1192.49" xmlns="http://www.w3.org/2000/svg" xmlns:xlink="http://www.w3.org/1999/xlink">
<g id="graph0" class="graph" transform="scale(1 1) rotate(0) translate(4 1188.49)">
<title>G</title>
<polygon fill="white" stroke="transparent" points="-4,4 -4,-1188.49 1368.93,-1188.49 1368.93,4 -4,4"/>
<!-- BB0 -->
<g id="node1" class="node">
<title>BB0</title>
<ellipse fill="none" stroke="black" cx="888.97" cy="-1147.01" rx="106.55" ry="37.45"/>
<text text-anchor="middle" x="888.97" y="-1158.31" font-family="Times New Roman,serif" font-size="14.00">[0..27)</text>
<text text-anchor="middle" x="888.97" y="-1143.31" font-family="Times New Roman,serif" font-size="14.00">Normalized Count: NaN</text>
<text text-anchor="middle" x="888.97" y="-1128.31" font-family="Times New Roman,serif" font-size="14.00">Samples weight: 0.00</text>
</g>
<!-- BB2 -->
<g id="node3" class="node">
<title>BB2</title>
<ellipse fill="none" stroke="black" cx="888.97" cy="-1036.06" rx="106.55" ry="37.45"/>
<text text-anchor="middle" x="888.97" y="-1047.36" font-family="Times New Roman,serif" font-size="14.00">[3f..44)</text>
<text text-anchor="middle" x="888.97" y="-1032.36" font-family="Times New Roman,serif" font-size="14.00">Normalized Count: NaN</text>
<text text-anchor="middle" x="888.97" y="-1017.36" font-family="Times New Roman,serif" font-size="14.00">Samples weight: 0.00</text>
</g>
<!-- BB0&#45;&gt;BB2 -->
<g id="edge1" class="edge">
<title>BB0&#45;&gt;BB2</title>
<path fill="none" stroke="black" d="M888.97,-1109.43C888.97,-1101.25 888.97,-1092.47 888.97,-1083.95"/>
<polygon fill="black" stroke="black" points="892.47,-1083.73 888.97,-1073.73 885.47,-1083.73 892.47,-1083.73"/>
</g>
<!-- BB1 -->
<g id="node2" class="node">
<title>BB1</title>
<ellipse fill="none" stroke="black" cx="888.97" cy="-925.1" rx="106.55" ry="37.45"/>
<text text-anchor="middle" x="888.97" y="-936.4" font-family="Times New Roman,serif" font-size="14.00">[27..3f)</text>
<text text-anchor="middle" x="888.97" y="-921.4" font-family="Times New Roman,serif" font-size="14.00">Normalized Count: NaN</text>
<text text-anchor="middle" x="888.97" y="-906.4" font-family="Times New Roman,serif" font-size="14.00">Samples weight: 0.00</text>
</g>
<!-- BB1&#45;&gt;BB2 -->
<g id="edge2" class="edge">
<title>BB1&#45;&gt;BB2</title>
<path fill="none" stroke="black" d="M895.38,-962.78C895.7,-970.95 895.79,-979.74 895.66,-988.26"/>
<polygon fill="black" stroke="black" points="892.15,-988.38 895.38,-998.47 899.15,-988.57 892.15,-988.38"/>
</g>
<!-- BB2&#45;&gt;BB1 -->
<g id="edge3" class="edge">
<title>BB2&#45;&gt;BB1</title>
<path fill="none" stroke="black" d="M882.55,-998.47C882.23,-990.3 882.14,-981.52 882.27,-972.99"/>
<polygon fill="black" stroke="black" points="885.78,-972.86 882.55,-962.78 878.78,-972.68 885.78,-972.86"/>
</g>
<!-- BB3 -->
<g id="node4" class="node">
<title>BB3</title>
<ellipse fill="none" stroke="black" cx="1129.97" cy="-925.1" rx="115.93" ry="37.45"/>
<text text-anchor="middle" x="1129.97" y="-936.4" font-family="Times New Roman,serif" font-size="14.00">[44..50)</text>
<text text-anchor="middle" x="1129.97" y="-921.4" font-family="Times New Roman,serif" font-size="14.00">Normalized Count: Infinity</text>
<text text-anchor="middle" x="1129.97" y="-906.4" font-family="Times New Roman,serif" font-size="14.00">Samples weight: 0.01</text>
</g>
<!-- BB2&#45;&gt;BB3 -->
<g id="edge4" class="edge">
<title>BB2&#45;&gt;BB3</title>
<path fill="none" stroke="black" d="M953.23,-1006C984.33,-991.95 1021.86,-974.98 1054.32,-960.3"/>
<polygon fill="black" stroke="black" points="1056.11,-963.33 1063.78,-956.03 1053.22,-956.96 1056.11,-963.33"/>
</g>
<!-- BB4 -->
<g id="node5" class="node">
<title>BB4</title>
<ellipse fill="none" stroke="black" cx="591.97" cy="-814.15" rx="115.93" ry="37.45"/>
<text text-anchor="middle" x="591.97" y="-825.45" font-family="Times New Roman,serif" font-size="14.00">[50..55)</text>
<text text-anchor="middle" x="591.97" y="-810.45" font-family="Times New Roman,serif" font-size="14.00">Normalized Count: Infinity</text>
<text text-anchor="middle" x="591.97" y="-795.45" font-family="Times New Roman,serif" font-size="14.00">Samples weight: 0.00</text>
</g>
<!-- BB3&#45;&gt;BB4 -->
<g id="edge6" class="edge">
<title>BB3&#45;&gt;BB4</title>
<path fill="none" stroke="black" d="M1048.02,-898.4C1033.76,-894.44 1018.99,-890.67 1004.97,-887.63 895.26,-863.84 865.38,-871.9 754.97,-851.63 735.11,-847.98 714,-843.62 693.79,-839.21"/>
<polygon fill="black" stroke="black" points="694.47,-835.77 683.95,-837.04 692.96,-842.61 694.47,-835.77"/>
</g>
<!-- BB15 -->
<g id="node16" class="node">
<title>BB15</title>
<ellipse fill="none" stroke="black" cx="879.97" cy="-814.15" rx="115.93" ry="37.45"/>
<text text-anchor="middle" x="879.97" y="-825.45" font-family="Times New Roman,serif" font-size="14.00">[d0..d4)</text>
<text text-anchor="middle" x="879.97" y="-810.45" font-family="Times New Roman,serif" font-size="14.00">Normalized Count: Infinity</text>
<text text-anchor="middle" x="879.97" y="-795.45" font-family="Times New Roman,serif" font-size="14.00">Samples weight: 0.00</text>
</g>
<!-- BB3&#45;&gt;BB15 -->
<g id="edge5" class="edge">
<title>BB3&#45;&gt;BB15</title>
<path fill="none" stroke="black" d="M1062.31,-894.62C1029.8,-880.45 990.67,-863.4 957.01,-848.73"/>
<polygon fill="black" stroke="black" points="958.24,-845.44 947.67,-844.66 955.44,-851.86 958.24,-845.44"/>
</g>
<!-- BB6 -->
<g id="node7" class="node">
<title>BB6</title>
<ellipse fill="none" stroke="black" cx="553.97" cy="-703.2" rx="115.93" ry="37.45"/>
<text text-anchor="middle" x="553.97" y="-714.5" font-family="Times New Roman,serif" font-size="14.00">[63..68)</text>
<text text-anchor="middle" x="553.97" y="-699.5" font-family="Times New Roman,serif" font-size="14.00">Normalized Count: Infinity</text>
<text text-anchor="middle" x="553.97" y="-684.5" font-family="Times New Roman,serif" font-size="14.00">Samples weight: 0.02</text>
</g>
<!-- BB4&#45;&gt;BB6 -->
<g id="edge7" class="edge">
<title>BB4&#45;&gt;BB6</title>
<path fill="none" stroke="black" d="M579.31,-776.87C576.33,-768.32 573.11,-759.1 570.01,-750.19"/>
<polygon fill="black" stroke="black" points="573.29,-748.98 566.69,-740.69 566.68,-751.28 573.29,-748.98"/>
</g>
<!-- BB5 -->
<g id="node6" class="node">
<title>BB5</title>
<ellipse fill="none" stroke="black" cx="553.97" cy="-592.24" rx="115.93" ry="37.45"/>
<text text-anchor="middle" x="553.97" y="-603.54" font-family="Times New Roman,serif" font-size="14.00">[55..63)</text>
<text text-anchor="middle" x="553.97" y="-588.54" font-family="Times New Roman,serif" font-size="14.00">Normalized Count: Infinity</text>
<text text-anchor="middle" x="553.97" y="-573.54" font-family="Times New Roman,serif" font-size="14.00">Samples weight: 0.17</text>
</g>
<!-- BB5&#45;&gt;BB6 -->
<g id="edge8" class="edge">
<title>BB5&#45;&gt;BB6</title>
<path fill="none" stroke="black" d="M560.38,-629.92C560.7,-638.09 560.79,-646.88 560.66,-655.4"/>
<polygon fill="black" stroke="black" points="557.15,-655.52 560.38,-665.61 564.15,-655.71 557.15,-655.52"/>
</g>
<!-- BB6&#45;&gt;BB5 -->
<g id="edge9" class="edge">
<title>BB6&#45;&gt;BB5</title>
<path fill="none" stroke="black" d="M547.55,-665.61C547.23,-657.44 547.14,-648.66 547.27,-640.13"/>
<polygon fill="black" stroke="black" points="550.78,-640 547.55,-629.92 543.78,-639.82 550.78,-640"/>
</g>
<!-- BB7 -->
<g id="node8" class="node">
<title>BB7</title>
<ellipse fill="none" stroke="black" cx="312.97" cy="-592.24" rx="106.55" ry="37.45"/>
<text text-anchor="middle" x="312.97" y="-603.54" font-family="Times New Roman,serif" font-size="14.00">[68..6b)</text>
<text text-anchor="middle" x="312.97" y="-588.54" font-family="Times New Roman,serif" font-size="14.00">Normalized Count: NaN</text>
<text text-anchor="middle" x="312.97" y="-573.54" font-family="Times New Roman,serif" font-size="14.00">Samples weight: 0.00</text>
</g>
<!-- BB6&#45;&gt;BB7 -->
<g id="edge10" class="edge">
<title>BB6&#45;&gt;BB7</title>
<path fill="none" stroke="black" d="M487.79,-672.28C456.47,-658.12 418.94,-641.16 386.71,-626.58"/>
<polygon fill="black" stroke="black" points="387.88,-623.27 377.33,-622.34 385,-629.65 387.88,-623.27"/>
</g>
<!-- BB8 -->
<g id="node9" class="node">
<title>BB8</title>
<ellipse fill="none" stroke="black" cx="354.97" cy="-481.29" rx="115.93" ry="37.45"/>
<text text-anchor="middle" x="354.97" y="-492.59" font-family="Times New Roman,serif" font-size="14.00">[6b..75)</text>
<text text-anchor="middle" x="354.97" y="-477.59" font-family="Times New Roman,serif" font-size="14.00">Normalized Count: Infinity</text>
<text text-anchor="middle" x="354.97" y="-462.59" font-family="Times New Roman,serif" font-size="14.00">Samples weight: 0.19</text>
</g>
<!-- BB7&#45;&gt;BB8 -->
<g id="edge11" class="edge">
<title>BB7&#45;&gt;BB8</title>
<path fill="none" stroke="black" d="M326.95,-554.96C330.25,-546.42 333.8,-537.2 337.24,-528.28"/>
<polygon fill="black" stroke="black" points="340.57,-529.37 340.9,-518.78 334.04,-526.85 340.57,-529.37"/>
</g>
<!-- BB9 -->
<g id="node10" class="node">
<title>BB9</title>
<ellipse fill="none" stroke="black" cx="591.97" cy="-370.34" rx="115.93" ry="37.45"/>
<text text-anchor="middle" x="591.97" y="-381.64" font-family="Times New Roman,serif" font-size="14.00">[75..84)</text>
<text text-anchor="middle" x="591.97" y="-366.64" font-family="Times New Roman,serif" font-size="14.00">Normalized Count: Infinity</text>
<text text-anchor="middle" x="591.97" y="-351.64" font-family="Times New Roman,serif" font-size="14.00">Samples weight: 0.02</text>
</g>
<!-- BB8&#45;&gt;BB9 -->
<g id="edge13" class="edge">
<title>BB8&#45;&gt;BB9</title>
<path fill="none" stroke="black" d="M420.35,-450.23C450.28,-436.47 485.9,-420.1 516.91,-405.84"/>
<polygon fill="black" stroke="black" points="518.76,-408.84 526.38,-401.49 515.83,-402.48 518.76,-408.84"/>
</g>
<!-- BB11 -->
<g id="node12" class="node">
<title>BB11</title>
<ellipse fill="none" stroke="black" cx="221.97" cy="-370.34" rx="115.93" ry="37.45"/>
<text text-anchor="middle" x="221.97" y="-381.64" font-family="Times New Roman,serif" font-size="14.00">[8a..95)</text>
<text text-anchor="middle" x="221.97" y="-366.64" font-family="Times New Roman,serif" font-size="14.00">Normalized Count: Infinity</text>
<text text-anchor="middle" x="221.97" y="-351.64" font-family="Times New Roman,serif" font-size="14.00">Samples weight: 0.05</text>
</g>
<!-- BB8&#45;&gt;BB11 -->
<g id="edge12" class="edge">
<title>BB8&#45;&gt;BB11</title>
<path fill="none" stroke="black" d="M313.25,-446.12C300,-435.26 285.23,-423.16 271.49,-411.9"/>
<polygon fill="black" stroke="black" points="273.49,-409.02 263.53,-405.39 269.05,-414.43 273.49,-409.02"/>
</g>
<!-- BB10 -->
<g id="node11" class="node">
<title>BB10</title>
<ellipse fill="none" stroke="black" cx="636.97" cy="-259.38" rx="115.93" ry="37.45"/>
<text text-anchor="middle" x="636.97" y="-270.68" font-family="Times New Roman,serif" font-size="14.00">[84..8a)</text>
<text text-anchor="middle" x="636.97" y="-255.68" font-family="Times New Roman,serif" font-size="14.00">Normalized Count: Infinity</text>
<text text-anchor="middle" x="636.97" y="-240.68" font-family="Times New Roman,serif" font-size="14.00">Samples weight: 0.02</text>
</g>
<!-- BB9&#45;&gt;BB10 -->
<g id="edge15" class="edge">
<title>BB9&#45;&gt;BB10</title>
<path fill="none" stroke="black" d="M606.95,-333.06C610.48,-324.51 614.29,-315.29 617.97,-306.38"/>
<polygon fill="black" stroke="black" points="621.31,-307.46 621.89,-296.88 614.84,-304.78 621.31,-307.46"/>
</g>
<!-- BB9&#45;&gt;BB15 -->
<g id="edge14" class="edge">
<title>BB9&#45;&gt;BB15</title>
<path fill="none" stroke="black" d="M612.03,-407.59C631.44,-443.9 660.54,-501.84 678.97,-554.77 706.85,-634.86 668.38,-674.94 721.97,-740.67 737.8,-760.1 760,-774.55 782.75,-785.21"/>
<polygon fill="black" stroke="black" points="781.62,-788.53 792.18,-789.4 784.46,-782.14 781.62,-788.53"/>
</g>
<!-- BB10&#45;&gt;BB15 -->
<g id="edge16" class="edge">
<title>BB10&#45;&gt;BB15</title>
<path fill="none" stroke="black" d="M684.82,-293.8C697.22,-304.81 709.24,-318.08 716.97,-332.86 747.56,-391.42 735.97,-414.22 735.97,-480.29 735.97,-593.24 735.97,-593.24 735.97,-593.24 735.97,-659.31 718.39,-685.66 754.97,-740.67 765.61,-756.68 781.08,-769.6 797.54,-779.85"/>
<polygon fill="black" stroke="black" points="795.83,-782.9 806.22,-784.96 799.38,-776.87 795.83,-782.9"/>
</g>
<!-- BB12 -->
<g id="node13" class="node">
<title>BB12</title>
<ellipse fill="none" stroke="black" cx="115.97" cy="-259.38" rx="115.93" ry="37.45"/>
<text text-anchor="middle" x="115.97" y="-270.68" font-family="Times New Roman,serif" font-size="14.00">[95..9e)</text>
<text text-anchor="middle" x="115.97" y="-255.68" font-family="Times New Roman,serif" font-size="14.00">Normalized Count: Infinity</text>
<text text-anchor="middle" x="115.97" y="-240.68" font-family="Times New Roman,serif" font-size="14.00">Samples weight: 0.01</text>
</g>
<!-- BB11&#45;&gt;BB12 -->
<g id="edge18" class="edge">
<title>BB11&#45;&gt;BB12</title>
<path fill="none" stroke="black" d="M187.84,-334.26C178.1,-324.25 167.38,-313.23 157.26,-302.83"/>
<polygon fill="black" stroke="black" points="159.51,-300.12 150.02,-295.39 154.49,-305 159.51,-300.12"/>
</g>
<!-- BB14 -->
<g id="node15" class="node">
<title>BB14</title>
<ellipse fill="none" stroke="black" cx="365.97" cy="-259.38" rx="115.93" ry="37.45"/>
<text text-anchor="middle" x="365.97" y="-270.68" font-family="Times New Roman,serif" font-size="14.00">[c4..d0)</text>
<text text-anchor="middle" x="365.97" y="-255.68" font-family="Times New Roman,serif" font-size="14.00">Normalized Count: Infinity</text>
<text text-anchor="middle" x="365.97" y="-240.68" font-family="Times New Roman,serif" font-size="14.00">Samples weight: 0.06</text>
</g>
<!-- BB11&#45;&gt;BB14 -->
<g id="edge17" class="edge">
<title>BB11&#45;&gt;BB14</title>
<path fill="none" stroke="black" d="M266.74,-335.46C281.37,-324.39 297.76,-311.99 312.93,-300.51"/>
<polygon fill="black" stroke="black" points="315.36,-303.06 321.22,-294.24 311.13,-297.48 315.36,-303.06"/>
</g>
<!-- BB13 -->
<g id="node14" class="node">
<title>BB13</title>
<ellipse fill="none" stroke="black" cx="240.97" cy="-148.43" rx="115.93" ry="37.45"/>
<text text-anchor="middle" x="240.97" y="-159.73" font-family="Times New Roman,serif" font-size="14.00">[9e..c4)</text>
<text text-anchor="middle" x="240.97" y="-144.73" font-family="Times New Roman,serif" font-size="14.00">Normalized Count: Infinity</text>
<text text-anchor="middle" x="240.97" y="-129.73" font-family="Times New Roman,serif" font-size="14.00">Samples weight: 0.33</text>
</g>
<!-- BB12&#45;&gt;BB13 -->
<g id="edge19" class="edge">
<title>BB12&#45;&gt;BB13</title>
<path fill="none" stroke="black" d="M155.52,-223.91C167.6,-213.38 181.01,-201.69 193.56,-190.75"/>
<polygon fill="black" stroke="black" points="196,-193.26 201.24,-184.05 191.4,-187.99 196,-193.26"/>
</g>
<!-- BB13&#45;&gt;BB13 -->
<g id="edge20" class="edge">
<title>BB13&#45;&gt;BB13</title>
<path fill="none" stroke="black" d="M339.4,-168.36C360.05,-166.3 374.93,-159.66 374.93,-148.43 374.93,-139.13 364.73,-132.98 349.49,-129.97"/>
<polygon fill="black" stroke="black" points="349.8,-126.48 339.4,-128.5 348.79,-133.4 349.8,-126.48"/>
</g>
<!-- BB13&#45;&gt;BB14 -->
<g id="edge21" class="edge">
<title>BB13&#45;&gt;BB14</title>
<path fill="none" stroke="black" d="M280.69,-184.05C292.78,-194.6 306.2,-206.29 318.74,-217.22"/>
<polygon fill="black" stroke="black" points="316.58,-219.98 326.41,-223.91 321.18,-214.7 316.58,-219.98"/>
</g>
<!-- BB14&#45;&gt;BB8 -->
<g id="edge22" class="edge">
<title>BB14&#45;&gt;BB8</title>
<path fill="none" stroke="black" d="M364.14,-296.94C362.27,-334.31 359.36,-392.48 357.32,-433.26"/>
<polygon fill="black" stroke="black" points="353.81,-433.32 356.81,-443.48 360.8,-433.67 353.81,-433.32"/>
</g>
<!-- BB16 -->
<g id="node17" class="node">
<title>BB16</title>
<ellipse fill="none" stroke="black" cx="1129.97" cy="-703.2" rx="115.93" ry="37.45"/>
<text text-anchor="middle" x="1129.97" y="-714.5" font-family="Times New Roman,serif" font-size="14.00">[d4..eb)</text>
<text text-anchor="middle" x="1129.97" y="-699.5" font-family="Times New Roman,serif" font-size="14.00">Normalized Count: Infinity</text>
<text text-anchor="middle" x="1129.97" y="-684.5" font-family="Times New Roman,serif" font-size="14.00">Samples weight: 0.03</text>
</g>
<!-- BB15&#45;&gt;BB16 -->
<g id="edge24" class="edge">
<title>BB15&#45;&gt;BB16</title>
<path fill="none" stroke="black" d="M947.62,-783.67C980.14,-769.49 1019.26,-752.44 1052.92,-737.77"/>
<polygon fill="black" stroke="black" points="1054.49,-740.91 1062.26,-733.7 1051.69,-734.49 1054.49,-740.91"/>
</g>
<!-- BB17 -->
<g id="node18" class="node">
<title>BB17</title>
<ellipse fill="none" stroke="black" cx="879.97" cy="-703.2" rx="115.93" ry="37.45"/>
<text text-anchor="middle" x="879.97" y="-714.5" font-family="Times New Roman,serif" font-size="14.00">[eb..102)</text>
<text text-anchor="middle" x="879.97" y="-699.5" font-family="Times New Roman,serif" font-size="14.00">Normalized Count: Infinity</text>
<text text-anchor="middle" x="879.97" y="-684.5" font-family="Times New Roman,serif" font-size="14.00">Samples weight: 0.02</text>
</g>
<!-- BB15&#45;&gt;BB17 -->
<g id="edge23" class="edge">
<title>BB15&#45;&gt;BB17</title>
<path fill="none" stroke="black" d="M879.97,-776.57C879.97,-768.39 879.97,-759.61 879.97,-751.09"/>
<polygon fill="black" stroke="black" points="883.47,-750.87 879.97,-740.87 876.47,-750.87 883.47,-750.87"/>
</g>
<!-- BB16&#45;&gt;BB3 -->
<g id="edge25" class="edge">
<title>BB16&#45;&gt;BB3</title>
<path fill="none" stroke="black" d="M1129.97,-740.76C1129.97,-778.12 1129.97,-836.29 1129.97,-877.07"/>
<polygon fill="black" stroke="black" points="1126.47,-877.3 1129.97,-887.3 1133.47,-877.3 1126.47,-877.3"/>
</g>
<!-- BB26 -->
<g id="node27" class="node">
<title>BB26</title>
<ellipse fill="none" stroke="black" cx="907.97" cy="-592.24" rx="106.55" ry="37.45"/>
<text text-anchor="middle" x="907.97" y="-603.54" font-family="Times New Roman,serif" font-size="14.00">[164..169)</text>
<text text-anchor="middle" x="907.97" y="-588.54" font-family="Times New Roman,serif" font-size="14.00">Normalized Count: NaN</text>
<text text-anchor="middle" x="907.97" y="-573.54" font-family="Times New Roman,serif" font-size="14.00">Samples weight: 0.00</text>
</g>
<!-- BB17&#45;&gt;BB26 -->
<g id="edge26" class="edge">
<title>BB17&#45;&gt;BB26</title>
<path fill="none" stroke="black" d="M889.37,-665.61C891.49,-657.35 893.77,-648.47 895.99,-639.85"/>
<polygon fill="black" stroke="black" points="899.44,-640.47 898.54,-629.92 892.66,-638.73 899.44,-640.47"/>
</g>
<!-- BB18 -->
<g id="node19" class="node">
<title>BB18</title>
<ellipse fill="none" stroke="black" cx="935.97" cy="-481.29" rx="115.93" ry="37.45"/>
<text text-anchor="middle" x="935.97" y="-492.59" font-family="Times New Roman,serif" font-size="14.00">[102..10c)</text>
<text text-anchor="middle" x="935.97" y="-477.59" font-family="Times New Roman,serif" font-size="14.00">Normalized Count: Infinity</text>
<text text-anchor="middle" x="935.97" y="-462.59" font-family="Times New Roman,serif" font-size="14.00">Samples weight: 0.02</text>
</g>
<!-- BB19 -->
<g id="node20" class="node">
<title>BB19</title>
<ellipse fill="none" stroke="black" cx="1248.97" cy="-370.34" rx="115.93" ry="37.45"/>
<text text-anchor="middle" x="1248.97" y="-381.64" font-family="Times New Roman,serif" font-size="14.00">[10c..119)</text>
<text text-anchor="middle" x="1248.97" y="-366.64" font-family="Times New Roman,serif" font-size="14.00">Normalized Count: Infinity</text>
<text text-anchor="middle" x="1248.97" y="-351.64" font-family="Times New Roman,serif" font-size="14.00">Samples weight: 0.01</text>
</g>
<!-- BB18&#45;&gt;BB19 -->
<g id="edge28" class="edge">
<title>BB18&#45;&gt;BB19</title>
<path fill="none" stroke="black" d="M1013.34,-453.36C1058.39,-437.68 1115.31,-417.86 1161.92,-401.64"/>
<polygon fill="black" stroke="black" points="1163.11,-404.93 1171.4,-398.34 1160.81,-398.32 1163.11,-404.93"/>
</g>
<!-- BB20 -->
<g id="node21" class="node">
<title>BB20</title>
<ellipse fill="none" stroke="black" cx="935.97" cy="-370.34" rx="115.93" ry="37.45"/>
<text text-anchor="middle" x="935.97" y="-381.64" font-family="Times New Roman,serif" font-size="14.00">[119..11f)</text>
<text text-anchor="middle" x="935.97" y="-366.64" font-family="Times New Roman,serif" font-size="14.00">Normalized Count: Infinity</text>
<text text-anchor="middle" x="935.97" y="-351.64" font-family="Times New Roman,serif" font-size="14.00">Samples weight: 0.01</text>
</g>
<!-- BB18&#45;&gt;BB20 -->
<g id="edge27" class="edge">
<title>BB18&#45;&gt;BB20</title>
<path fill="none" stroke="black" d="M935.97,-443.71C935.97,-435.53 935.97,-426.75 935.97,-418.23"/>
<polygon fill="black" stroke="black" points="939.47,-418.01 935.97,-408.01 932.47,-418.01 939.47,-418.01"/>
</g>
<!-- BB19&#45;&gt;BB3 -->
<g id="edge29" class="edge">
<title>BB19&#45;&gt;BB3</title>
<path fill="none" stroke="black" d="M1274.72,-407.09C1281.7,-418.36 1288.54,-431.17 1292.97,-443.81 1314.8,-506.17 1311.97,-525.18 1311.97,-591.24 1311.97,-704.2 1311.97,-704.2 1311.97,-704.2 1311.97,-781.81 1243.84,-846.77 1190.95,-885.5"/>
<polygon fill="black" stroke="black" points="1188.69,-882.82 1182.61,-891.49 1192.77,-888.51 1188.69,-882.82"/>
</g>
<!-- BB21 -->
<g id="node22" class="node">
<title>BB21</title>
<ellipse fill="none" stroke="black" cx="935.97" cy="-259.38" rx="115.93" ry="37.45"/>
<text text-anchor="middle" x="935.97" y="-270.68" font-family="Times New Roman,serif" font-size="14.00">[11f..130)</text>
<text text-anchor="middle" x="935.97" y="-255.68" font-family="Times New Roman,serif" font-size="14.00">Normalized Count: Infinity</text>
<text text-anchor="middle" x="935.97" y="-240.68" font-family="Times New Roman,serif" font-size="14.00">Samples weight: 0.00</text>
</g>
<!-- BB20&#45;&gt;BB21 -->
<g id="edge31" class="edge">
<title>BB20&#45;&gt;BB21</title>
<path fill="none" stroke="black" d="M935.97,-332.75C935.97,-324.58 935.97,-315.8 935.97,-307.27"/>
<polygon fill="black" stroke="black" points="939.47,-307.06 935.97,-297.06 932.47,-307.06 939.47,-307.06"/>
</g>
<!-- BB22 -->
<g id="node23" class="node">
<title>BB22</title>
<ellipse fill="none" stroke="black" cx="1185.97" cy="-259.38" rx="115.93" ry="37.45"/>
<text text-anchor="middle" x="1185.97" y="-270.68" font-family="Times New Roman,serif" font-size="14.00">[130..140)</text>
<text text-anchor="middle" x="1185.97" y="-255.68" font-family="Times New Roman,serif" font-size="14.00">Normalized Count: Infinity</text>
<text text-anchor="middle" x="1185.97" y="-240.68" font-family="Times New Roman,serif" font-size="14.00">Samples weight: 0.00</text>
</g>
<!-- BB20&#45;&gt;BB22 -->
<g id="edge30" class="edge">
<title>BB20&#45;&gt;BB22</title>
<path fill="none" stroke="black" d="M1003.62,-339.85C1036.14,-325.68 1075.26,-308.63 1108.92,-293.96"/>
<polygon fill="black" stroke="black" points="1110.49,-297.1 1118.26,-289.89 1107.69,-290.68 1110.49,-297.1"/>
</g>
<!-- BB24 -->
<g id="node25" class="node">
<title>BB24</title>
<ellipse fill="none" stroke="black" cx="1149.97" cy="-148.43" rx="115.93" ry="37.45"/>
<text text-anchor="middle" x="1149.97" y="-159.73" font-family="Times New Roman,serif" font-size="14.00">[150..156)</text>
<text text-anchor="middle" x="1149.97" y="-144.73" font-family="Times New Roman,serif" font-size="14.00">Normalized Count: Infinity</text>
<text text-anchor="middle" x="1149.97" y="-129.73" font-family="Times New Roman,serif" font-size="14.00">Samples weight: 0.00</text>
</g>
<!-- BB22&#45;&gt;BB24 -->
<g id="edge32" class="edge">
<title>BB22&#45;&gt;BB24</title>
<path fill="none" stroke="black" d="M1173.98,-222.1C1171.15,-213.56 1168.11,-204.34 1165.16,-195.42"/>
<polygon fill="black" stroke="black" points="1168.48,-194.32 1162.02,-185.92 1161.84,-196.52 1168.48,-194.32"/>
</g>
<!-- BB23 -->
<g id="node24" class="node">
<title>BB23</title>
<ellipse fill="none" stroke="black" cx="1149.97" cy="-37.48" rx="115.93" ry="37.45"/>
<text text-anchor="middle" x="1149.97" y="-48.78" font-family="Times New Roman,serif" font-size="14.00">[140..150)</text>
<text text-anchor="middle" x="1149.97" y="-33.78" font-family="Times New Roman,serif" font-size="14.00">Normalized Count: Infinity</text>
<text text-anchor="middle" x="1149.97" y="-18.78" font-family="Times New Roman,serif" font-size="14.00">Samples weight: 0.02</text>
</g>
<!-- BB23&#45;&gt;BB24 -->
<g id="edge33" class="edge">
<title>BB23&#45;&gt;BB24</title>
<path fill="none" stroke="black" d="M1156.38,-75.15C1156.7,-83.33 1156.79,-92.11 1156.66,-100.63"/>
<polygon fill="black" stroke="black" points="1153.15,-100.76 1156.38,-110.85 1160.15,-100.94 1153.15,-100.76"/>
</g>
<!-- BB24&#45;&gt;BB23 -->
<g id="edge34" class="edge">
<title>BB24&#45;&gt;BB23</title>
<path fill="none" stroke="black" d="M1143.55,-110.85C1143.23,-102.67 1143.14,-93.89 1143.27,-85.37"/>
<polygon fill="black" stroke="black" points="1146.78,-85.24 1143.55,-75.15 1139.78,-85.05 1146.78,-85.24"/>
</g>
<!-- BB25 -->
<g id="node26" class="node">
<title>BB25</title>
<ellipse fill="none" stroke="black" cx="863.97" cy="-37.48" rx="115.93" ry="37.45"/>
<text text-anchor="middle" x="863.97" y="-48.78" font-family="Times New Roman,serif" font-size="14.00">[156..164)</text>
<text text-anchor="middle" x="863.97" y="-33.78" font-family="Times New Roman,serif" font-size="14.00">Normalized Count: Infinity</text>
<text text-anchor="middle" x="863.97" y="-18.78" font-family="Times New Roman,serif" font-size="14.00">Samples weight: 0.00</text>
</g>
<!-- BB24&#45;&gt;BB25 -->
<g id="edge35" class="edge">
<title>BB24&#45;&gt;BB25</title>
<path fill="none" stroke="black" d="M1076.31,-119.37C1036.85,-104.34 988.09,-85.76 947.26,-70.21"/>
<polygon fill="black" stroke="black" points="948.46,-66.92 937.86,-66.63 945.96,-73.46 948.46,-66.92"/>
</g>
<!-- BB25&#45;&gt;BB26 -->
<g id="edge36" class="edge">
<title>BB25&#45;&gt;BB26</title>
<path fill="none" stroke="black" d="M844.29,-74.64C822.97,-117.28 791.97,-190.89 791.97,-258.38 791.97,-371.34 791.97,-371.34 791.97,-371.34 791.97,-437.4 777.64,-461.72 810.97,-518.77 818.88,-532.32 830.43,-544.13 842.81,-554.06"/>
<polygon fill="black" stroke="black" points="840.97,-557.05 851.05,-560.32 845.2,-551.48 840.97,-557.05"/>
</g>
<!-- BB26&#45;&gt;BB18 -->
<g id="edge37" class="edge">
<title>BB26&#45;&gt;BB18</title>
<path fill="none" stroke="black" d="M917.37,-554.66C919.49,-546.4 921.77,-537.51 923.99,-528.9"/>
<polygon fill="black" stroke="black" points="927.44,-529.52 926.54,-518.96 920.66,-527.78 927.44,-529.52"/>
</g>
<!-- BB27 -->
<g id="node28" class="node">
<title>BB27</title>
<ellipse fill="none" stroke="black" cx="1176.97" cy="-481.29" rx="106.55" ry="37.45"/>
<text text-anchor="middle" x="1176.97" y="-492.59" font-family="Times New Roman,serif" font-size="14.00">[169..16e)</text>
<text text-anchor="middle" x="1176.97" y="-477.59" font-family="Times New Roman,serif" font-size="14.00">Normalized Count: NaN</text>
<text text-anchor="middle" x="1176.97" y="-462.59" font-family="Times New Roman,serif" font-size="14.00">Samples weight: 0.00</text>
</g>
<!-- BB26&#45;&gt;BB27 -->
<g id="edge38" class="edge">
<title>BB26&#45;&gt;BB27</title>
<path fill="none" stroke="black" d="M976.54,-563.47C1013.71,-548.41 1059.8,-529.75 1098.4,-514.11"/>
<polygon fill="black" stroke="black" points="1100.09,-517.2 1108.05,-510.2 1097.46,-510.71 1100.09,-517.2"/>
</g>
<!-- BB27&#45;&gt;BB3 -->
<g id="edge39" class="edge">
<title>BB27&#45;&gt;BB3</title>
<path fill="none" stroke="black" d="M1201.38,-517.86C1232.5,-567.71 1279.47,-661.19 1254.97,-740.67 1238.39,-794.42 1200.08,-846.51 1170.21,-881.36"/>
<polygon fill="black" stroke="black" points="1167.52,-879.12 1163.59,-888.96 1172.8,-883.72 1167.52,-879.12"/>
</g>
</g>
</svg>
