<?xml version="1.0" encoding="UTF-8" standalone="no"?>
<!DOCTYPE svg PUBLIC "-//W3C//DTD SVG 1.1//EN"
 "http://www.w3.org/Graphics/SVG/1.1/DTD/svg11.dtd">
<!-- Generated by graphviz version 2.47.0 (20210316.0004)
 -->
<!-- Title: G Pages: 1 -->
<svg width="637pt" height="638pt"
 viewBox="0.00 0.00 636.72 637.72" xmlns="http://www.w3.org/2000/svg" xmlns:xlink="http://www.w3.org/1999/xlink">
<g id="graph0" class="graph" transform="scale(1 1) rotate(0) translate(4 633.72)">
<title>G</title>
<polygon fill="white" stroke="transparent" points="-4,4 -4,-633.72 632.72,-633.72 632.72,4 -4,4"/>
<!-- BB0 -->
<g id="node1" class="node">
<title>BB0</title>
<ellipse fill="none" stroke="black" cx="219.36" cy="-592.24" rx="105.22" ry="37.45"/>
<text text-anchor="middle" x="219.36" y="-603.54" font-family="Times New Roman,serif" font-size="14.00">[0..1f)</text>
<text text-anchor="middle" x="219.36" y="-588.54" font-family="Times New Roman,serif" font-size="14.00">Normalized Count: 1.00</text>
<text text-anchor="middle" x="219.36" y="-573.54" font-family="Times New Roman,serif" font-size="14.00">Samples weight: 0.03</text>
</g>
<!-- BB1 -->
<g id="node2" class="node">
<title>BB1</title>
<ellipse fill="none" stroke="black" cx="105.36" cy="-481.29" rx="105.22" ry="37.45"/>
<text text-anchor="middle" x="105.36" y="-492.59" font-family="Times New Roman,serif" font-size="14.00">[1f..23)</text>
<text text-anchor="middle" x="105.36" y="-477.59" font-family="Times New Roman,serif" font-size="14.00">Normalized Count: 0.04</text>
<text text-anchor="middle" x="105.36" y="-462.59" font-family="Times New Roman,serif" font-size="14.00">Samples weight: 0.00</text>
</g>
<!-- BB0&#45;&gt;BB1 -->
<g id="edge2" class="edge">
<title>BB0&#45;&gt;BB1</title>
<path fill="none" stroke="black" d="M183.29,-556.77C172.27,-546.23 160.03,-534.54 148.58,-523.6"/>
<polygon fill="black" stroke="black" points="150.84,-520.92 141.19,-516.54 146.01,-525.98 150.84,-520.92"/>
</g>
<!-- BB2 -->
<g id="node3" class="node">
<title>BB2</title>
<ellipse fill="none" stroke="black" cx="334.36" cy="-481.29" rx="105.22" ry="37.45"/>
<text text-anchor="middle" x="334.36" y="-492.59" font-family="Times New Roman,serif" font-size="14.00">[23..2e)</text>
<text text-anchor="middle" x="334.36" y="-477.59" font-family="Times New Roman,serif" font-size="14.00">Normalized Count: 0.92</text>
<text text-anchor="middle" x="334.36" y="-462.59" font-family="Times New Roman,serif" font-size="14.00">Samples weight: 0.03</text>
</g>
<!-- BB0&#45;&gt;BB2 -->
<g id="edge1" class="edge">
<title>BB0&#45;&gt;BB2</title>
<path fill="none" stroke="black" d="M255.75,-556.77C266.87,-546.23 279.21,-534.54 290.76,-523.6"/>
<polygon fill="black" stroke="black" points="293.36,-525.96 298.21,-516.54 288.54,-520.88 293.36,-525.96"/>
</g>
<!-- BB3 -->
<g id="node4" class="node">
<title>BB3</title>
<ellipse fill="none" stroke="black" cx="334.36" cy="-370.34" rx="105.22" ry="37.45"/>
<text text-anchor="middle" x="334.36" y="-381.64" font-family="Times New Roman,serif" font-size="14.00">[2e..3f)</text>
<text text-anchor="middle" x="334.36" y="-366.64" font-family="Times New Roman,serif" font-size="14.00">Normalized Count: 3.16</text>
<text text-anchor="middle" x="334.36" y="-351.64" font-family="Times New Roman,serif" font-size="14.00">Samples weight: 0.11</text>
</g>
<!-- BB2&#45;&gt;BB3 -->
<g id="edge3" class="edge">
<title>BB2&#45;&gt;BB3</title>
<path fill="none" stroke="black" d="M334.36,-443.71C334.36,-435.53 334.36,-426.75 334.36,-418.23"/>
<polygon fill="black" stroke="black" points="337.86,-418.01 334.36,-408.01 330.86,-418.01 337.86,-418.01"/>
</g>
<!-- BB4 -->
<g id="node5" class="node">
<title>BB4</title>
<ellipse fill="none" stroke="black" cx="449.36" cy="-259.38" rx="105.22" ry="37.45"/>
<text text-anchor="middle" x="449.36" y="-270.68" font-family="Times New Roman,serif" font-size="14.00">[3f..55)</text>
<text text-anchor="middle" x="449.36" y="-255.68" font-family="Times New Roman,serif" font-size="14.00">Normalized Count: 5.44</text>
<text text-anchor="middle" x="449.36" y="-240.68" font-family="Times New Roman,serif" font-size="14.00">Samples weight: 0.19</text>
</g>
<!-- BB3&#45;&gt;BB4 -->
<g id="edge5" class="edge">
<title>BB3&#45;&gt;BB4</title>
<path fill="none" stroke="black" d="M370.75,-334.86C381.87,-324.33 394.21,-312.63 405.76,-301.69"/>
<polygon fill="black" stroke="black" points="408.36,-304.05 413.21,-294.63 403.54,-298.97 408.36,-304.05"/>
</g>
<!-- BB9 -->
<g id="node10" class="node">
<title>BB9</title>
<ellipse fill="none" stroke="black" cx="220.36" cy="-259.38" rx="105.22" ry="37.45"/>
<text text-anchor="middle" x="220.36" y="-270.68" font-family="Times New Roman,serif" font-size="14.00">[79..7a)</text>
<text text-anchor="middle" x="220.36" y="-255.68" font-family="Times New Roman,serif" font-size="14.00">Normalized Count: 0.00</text>
<text text-anchor="middle" x="220.36" y="-240.68" font-family="Times New Roman,serif" font-size="14.00">Samples weight: 0.00</text>
</g>
<!-- BB3&#45;&gt;BB9 -->
<g id="edge4" class="edge">
<title>BB3&#45;&gt;BB9</title>
<path fill="none" stroke="black" d="M298.29,-334.86C287.27,-324.33 275.03,-312.63 263.58,-301.69"/>
<polygon fill="black" stroke="black" points="265.84,-299.01 256.19,-294.63 261.01,-304.07 265.84,-299.01"/>
</g>
<!-- BB5 -->
<g id="node6" class="node">
<title>BB5</title>
<ellipse fill="none" stroke="black" cx="454.36" cy="-148.43" rx="110.12" ry="37.45"/>
<text text-anchor="middle" x="454.36" y="-159.73" font-family="Times New Roman,serif" font-size="14.00">[55..6a)</text>
<text text-anchor="middle" x="454.36" y="-144.73" font-family="Times New Roman,serif" font-size="14.00">Normalized Count: 16.92</text>
<text text-anchor="middle" x="454.36" y="-129.73" font-family="Times New Roman,serif" font-size="14.00">Samples weight: 0.58</text>
</g>
<!-- BB4&#45;&gt;BB5 -->
<g id="edge7" class="edge">
<title>BB4&#45;&gt;BB5</title>
<path fill="none" stroke="black" d="M451.04,-221.8C451.41,-213.63 451.82,-204.85 452.21,-196.32"/>
<polygon fill="black" stroke="black" points="455.71,-196.25 452.68,-186.1 448.72,-195.93 455.71,-196.25"/>
</g>
<!-- BB8 -->
<g id="node9" class="node">
<title>BB8</title>
<ellipse fill="none" stroke="black" cx="220.36" cy="-148.43" rx="105.22" ry="37.45"/>
<text text-anchor="middle" x="220.36" y="-159.73" font-family="Times New Roman,serif" font-size="14.00">[76..79)</text>
<text text-anchor="middle" x="220.36" y="-144.73" font-family="Times New Roman,serif" font-size="14.00">Normalized Count: 0.08</text>
<text text-anchor="middle" x="220.36" y="-129.73" font-family="Times New Roman,serif" font-size="14.00">Samples weight: 0.00</text>
</g>
<!-- BB4&#45;&gt;BB8 -->
<g id="edge6" class="edge">
<title>BB4&#45;&gt;BB8</title>
<path fill="none" stroke="black" d="M387.39,-228.9C357.86,-214.85 322.38,-197.97 291.72,-183.38"/>
<polygon fill="black" stroke="black" points="292.91,-180.07 282.38,-178.94 289.91,-186.39 292.91,-180.07"/>
</g>
<!-- BB6 -->
<g id="node7" class="node">
<title>BB6</title>
<ellipse fill="none" stroke="black" cx="225.36" cy="-37.48" rx="105.22" ry="37.45"/>
<text text-anchor="middle" x="225.36" y="-48.78" font-family="Times New Roman,serif" font-size="14.00">[6a..71)</text>
<text text-anchor="middle" x="225.36" y="-33.78" font-family="Times New Roman,serif" font-size="14.00">Normalized Count: 1.84</text>
<text text-anchor="middle" x="225.36" y="-18.78" font-family="Times New Roman,serif" font-size="14.00">Samples weight: 0.06</text>
</g>
<!-- BB5&#45;&gt;BB6 -->
<g id="edge9" class="edge">
<title>BB5&#45;&gt;BB6</title>
<path fill="none" stroke="black" d="M391.48,-117.51C362.08,-103.53 326.94,-86.81 296.57,-72.36"/>
<polygon fill="black" stroke="black" points="297.84,-69.08 287.3,-67.95 294.83,-75.41 297.84,-69.08"/>
</g>
<!-- BB7 -->
<g id="node8" class="node">
<title>BB7</title>
<ellipse fill="none" stroke="black" cx="523.36" cy="-37.48" rx="105.22" ry="37.45"/>
<text text-anchor="middle" x="523.36" y="-48.78" font-family="Times New Roman,serif" font-size="14.00">[71..76)</text>
<text text-anchor="middle" x="523.36" y="-33.78" font-family="Times New Roman,serif" font-size="14.00">Normalized Count: 0.00</text>
<text text-anchor="middle" x="523.36" y="-18.78" font-family="Times New Roman,serif" font-size="14.00">Samples weight: 0.00</text>
</g>
<!-- BB5&#45;&gt;BB7 -->
<g id="edge8" class="edge">
<title>BB5&#45;&gt;BB7</title>
<path fill="none" stroke="black" d="M477.14,-111.45C482.91,-102.34 489.18,-92.45 495.18,-82.97"/>
<polygon fill="black" stroke="black" points="498.2,-84.74 500.6,-74.42 492.29,-80.99 498.2,-84.74"/>
</g>
<!-- BB6&#45;&gt;BB3 -->
<g id="edge10" class="edge">
<title>BB6&#45;&gt;BB3</title>
<path fill="none" stroke="black" d="M155.15,-65.53C135.89,-76.57 117.32,-91.45 106.36,-110.95 65.89,-182.99 57.58,-230.17 106.36,-296.86 132.92,-333.17 177.82,-351.73 220.78,-361.06"/>
<polygon fill="black" stroke="black" points="220.28,-364.53 230.78,-363.07 221.67,-357.67 220.28,-364.53"/>
</g>
<!-- BB7&#45;&gt;BB3 -->
<g id="edge11" class="edge">
<title>BB7&#45;&gt;BB3</title>
<path fill="none" stroke="black" d="M553.74,-73.44C561.71,-84.67 569.22,-97.67 573.36,-110.95 597.97,-189.95 615.2,-232.37 563.36,-296.86 535.12,-331.99 489.91,-350.37 447.09,-359.89"/>
<polygon fill="black" stroke="black" points="446.21,-356.5 437.13,-361.96 447.64,-363.35 446.21,-356.5"/>
</g>
<!-- BB8&#45;&gt;BB9 -->
<g id="edge12" class="edge">
<title>BB8&#45;&gt;BB9</title>
<path fill="none" stroke="black" d="M220.36,-186.1C220.36,-194.28 220.36,-203.06 220.36,-211.59"/>
<polygon fill="black" stroke="black" points="216.86,-211.8 220.36,-221.8 223.86,-211.8 216.86,-211.8"/>
</g>
</g>
</svg>
