<?xml version="1.0" encoding="UTF-8" standalone="no"?>
<!DOCTYPE svg PUBLIC "-//W3C//DTD SVG 1.1//EN"
 "http://www.w3.org/Graphics/SVG/1.1/DTD/svg11.dtd">
<!-- Generated by graphviz version 2.47.0 (20210316.0004)
 -->
<!-- Title: G Pages: 1 -->
<svg width="584pt" height="633pt"
 viewBox="0.00 0.00 584.42 632.83" xmlns="http://www.w3.org/2000/svg" xmlns:xlink="http://www.w3.org/1999/xlink">
<g id="graph0" class="graph" transform="scale(1 1) rotate(0) translate(4 628.83)">
<title>G</title>
<polygon fill="white" stroke="transparent" points="-4,4 -4,-628.83 580.42,-628.83 580.42,4 -4,4"/>
<!-- BB0 -->
<g id="node1" class="node">
<title>BB0</title>
<ellipse fill="none" stroke="black" cx="342.19" cy="-576.75" rx="103.48" ry="48.17"/>
<text text-anchor="middle" x="342.19" y="-595.55" font-family="Times New Roman,serif" font-size="14.00">[0..4)</text>
<text text-anchor="middle" x="342.19" y="-580.55" font-family="Times New Roman,serif" font-size="14.00">Count: 5</text>
<text text-anchor="middle" x="342.19" y="-565.55" font-family="Times New Roman,serif" font-size="14.00">Normalized count: 1.00</text>
<text text-anchor="middle" x="342.19" y="-550.55" font-family="Times New Roman,serif" font-size="14.00">Samples weight: 0.00</text>
</g>
<!-- BB5 -->
<g id="node6" class="node">
<title>BB5</title>
<ellipse fill="none" stroke="black" cx="342.19" cy="-444.58" rx="108.38" ry="48.17"/>
<text text-anchor="middle" x="342.19" y="-463.38" font-family="Times New Roman,serif" font-size="14.00">[22..2d)</text>
<text text-anchor="middle" x="342.19" y="-448.38" font-family="Times New Roman,serif" font-size="14.00">Count: 398</text>
<text text-anchor="middle" x="342.19" y="-433.38" font-family="Times New Roman,serif" font-size="14.00">Normalized count: 79.60</text>
<text text-anchor="middle" x="342.19" y="-418.38" font-family="Times New Roman,serif" font-size="14.00">Samples weight: 0.32</text>
</g>
<!-- BB0&#45;&gt;BB5 -->
<g id="edge1" class="edge">
<title>BB0&#45;&gt;BB5</title>
<path fill="none" stroke="black" d="M342.19,-528.39C342.19,-520.12 342.19,-511.44 342.19,-502.93"/>
<polygon fill="black" stroke="black" points="345.69,-502.69 342.19,-492.69 338.69,-502.69 345.69,-502.69"/>
</g>
<!-- BB1 -->
<g id="node2" class="node">
<title>BB1</title>
<ellipse fill="none" stroke="black" cx="206.19" cy="-312.42" rx="108.38" ry="48.17"/>
<text text-anchor="middle" x="206.19" y="-331.22" font-family="Times New Roman,serif" font-size="14.00">[4..10)</text>
<text text-anchor="middle" x="206.19" y="-316.22" font-family="Times New Roman,serif" font-size="14.00">Count: 395</text>
<text text-anchor="middle" x="206.19" y="-301.22" font-family="Times New Roman,serif" font-size="14.00">Normalized count: 79.00</text>
<text text-anchor="middle" x="206.19" y="-286.22" font-family="Times New Roman,serif" font-size="14.00">Samples weight: 0.31</text>
</g>
<!-- BB2 -->
<g id="node3" class="node">
<title>BB2</title>
<ellipse fill="none" stroke="black" cx="108.19" cy="-180.25" rx="108.38" ry="48.17"/>
<text text-anchor="middle" x="108.19" y="-199.05" font-family="Times New Roman,serif" font-size="14.00">[10..1c)</text>
<text text-anchor="middle" x="108.19" y="-184.05" font-family="Times New Roman,serif" font-size="14.00">Count: 64</text>
<text text-anchor="middle" x="108.19" y="-169.05" font-family="Times New Roman,serif" font-size="14.00">Normalized count: 12.80</text>
<text text-anchor="middle" x="108.19" y="-154.05" font-family="Times New Roman,serif" font-size="14.00">Samples weight: 0.05</text>
</g>
<!-- BB1&#45;&gt;BB2 -->
<g id="edge3" class="edge">
<title>BB1&#45;&gt;BB2</title>
<path fill="none" stroke="black" d="M172.46,-266.62C164.61,-256.19 156.17,-244.99 148.08,-234.24"/>
<polygon fill="black" stroke="black" points="150.79,-232.01 141.98,-226.13 145.19,-236.22 150.79,-232.01"/>
</g>
<!-- BB4 -->
<g id="node5" class="node">
<title>BB4</title>
<ellipse fill="none" stroke="black" cx="342.19" cy="-180.25" rx="108.38" ry="48.17"/>
<text text-anchor="middle" x="342.19" y="-199.05" font-family="Times New Roman,serif" font-size="14.00">[1e..22)</text>
<text text-anchor="middle" x="342.19" y="-184.05" font-family="Times New Roman,serif" font-size="14.00">Count: 393</text>
<text text-anchor="middle" x="342.19" y="-169.05" font-family="Times New Roman,serif" font-size="14.00">Normalized count: 78.60</text>
<text text-anchor="middle" x="342.19" y="-154.05" font-family="Times New Roman,serif" font-size="14.00">Samples weight: 0.31</text>
</g>
<!-- BB1&#45;&gt;BB4 -->
<g id="edge2" class="edge">
<title>BB1&#45;&gt;BB4</title>
<path fill="none" stroke="black" d="M251.1,-268.43C263.51,-256.55 277.1,-243.55 289.9,-231.3"/>
<polygon fill="black" stroke="black" points="292.52,-233.63 297.33,-224.19 287.68,-228.57 292.52,-233.63"/>
</g>
<!-- BB3 -->
<g id="node4" class="node">
<title>BB3</title>
<ellipse fill="none" stroke="black" cx="108.19" cy="-48.08" rx="103.48" ry="48.17"/>
<text text-anchor="middle" x="108.19" y="-66.88" font-family="Times New Roman,serif" font-size="14.00">[1c..1e)</text>
<text text-anchor="middle" x="108.19" y="-51.88" font-family="Times New Roman,serif" font-size="14.00">Count: 2</text>
<text text-anchor="middle" x="108.19" y="-36.88" font-family="Times New Roman,serif" font-size="14.00">Normalized count: 0.40</text>
<text text-anchor="middle" x="108.19" y="-21.88" font-family="Times New Roman,serif" font-size="14.00">Samples weight: 0.00</text>
</g>
<!-- BB2&#45;&gt;BB3 -->
<g id="edge5" class="edge">
<title>BB2&#45;&gt;BB3</title>
<path fill="none" stroke="black" d="M108.19,-131.89C108.19,-123.62 108.19,-114.94 108.19,-106.43"/>
<polygon fill="black" stroke="black" points="111.69,-106.19 108.19,-96.19 104.69,-106.19 111.69,-106.19"/>
</g>
<!-- BB2&#45;&gt;BB4 -->
<g id="edge4" class="edge">
<title>BB2&#45;&gt;BB4</title>
<path fill="none" stroke="black" d="M216.5,-180.25C218.83,-180.25 221.16,-180.25 223.48,-180.25"/>
<polygon fill="black" stroke="black" points="223.69,-183.75 233.69,-180.25 223.69,-176.75 223.69,-183.75"/>
</g>
<!-- BB4&#45;&gt;BB5 -->
<g id="edge6" class="edge">
<title>BB4&#45;&gt;BB5</title>
<path fill="none" stroke="black" d="M342.19,-228.52C342.19,-272.79 342.19,-339.04 342.19,-386.3"/>
<polygon fill="black" stroke="black" points="338.69,-386.38 342.19,-396.38 345.69,-386.38 338.69,-386.38"/>
</g>
<!-- BB5&#45;&gt;BB1 -->
<g id="edge7" class="edge">
<title>BB5&#45;&gt;BB1</title>
<path fill="none" stroke="black" d="M297.28,-400.6C284.86,-388.72 271.28,-375.71 258.48,-363.46"/>
<polygon fill="black" stroke="black" points="260.69,-360.74 251.05,-356.35 255.85,-365.8 260.69,-360.74"/>
</g>
<!-- BB6 -->
<g id="node7" class="node">
<title>BB6</title>
<ellipse fill="none" stroke="black" cx="473.19" cy="-312.42" rx="103.48" ry="48.17"/>
<text text-anchor="middle" x="473.19" y="-331.22" font-family="Times New Roman,serif" font-size="14.00">[2d..2f)</text>
<text text-anchor="middle" x="473.19" y="-316.22" font-family="Times New Roman,serif" font-size="14.00">Count: 3</text>
<text text-anchor="middle" x="473.19" y="-301.22" font-family="Times New Roman,serif" font-size="14.00">Normalized count: 0.60</text>
<text text-anchor="middle" x="473.19" y="-286.22" font-family="Times New Roman,serif" font-size="14.00">Samples weight: 0.00</text>
</g>
<!-- BB5&#45;&gt;BB6 -->
<g id="edge8" class="edge">
<title>BB5&#45;&gt;BB6</title>
<path fill="none" stroke="black" d="M385.81,-400.24C397.52,-388.6 410.28,-375.92 422.35,-363.93"/>
<polygon fill="black" stroke="black" points="425.13,-366.1 429.76,-356.57 420.2,-361.14 425.13,-366.1"/>
</g>
</g>
</svg>
