<?xml version="1.0" encoding="UTF-8" standalone="no"?>
<!DOCTYPE svg PUBLIC "-//W3C//DTD SVG 1.1//EN"
 "http://www.w3.org/Graphics/SVG/1.1/DTD/svg11.dtd">
<!-- Generated by graphviz version 2.47.0 (20210316.0004)
 -->
<!-- Title: G Pages: 1 -->
<svg width="863pt" height="1161pt"
 viewBox="0.00 0.00 863.48 1161.50" xmlns="http://www.w3.org/2000/svg" xmlns:xlink="http://www.w3.org/1999/xlink">
<g id="graph0" class="graph" transform="scale(1 1) rotate(0) translate(4 1157.5)">
<title>G</title>
<polygon fill="white" stroke="transparent" points="-4,4 -4,-1157.5 859.48,-1157.5 859.48,4 -4,4"/>
<!-- BB0 -->
<g id="node1" class="node">
<title>BB0</title>
<ellipse fill="none" stroke="black" cx="215.24" cy="-1105.42" rx="103.48" ry="48.17"/>
<text text-anchor="middle" x="215.24" y="-1124.22" font-family="Times New Roman,serif" font-size="14.00">[0..3)</text>
<text text-anchor="middle" x="215.24" y="-1109.22" font-family="Times New Roman,serif" font-size="14.00">Count: 11162</text>
<text text-anchor="middle" x="215.24" y="-1094.22" font-family="Times New Roman,serif" font-size="14.00">Normalized count: 1.00</text>
<text text-anchor="middle" x="215.24" y="-1079.22" font-family="Times New Roman,serif" font-size="14.00">Samples weight: 0.02</text>
</g>
<!-- BB1 -->
<g id="node2" class="node">
<title>BB1</title>
<ellipse fill="none" stroke="black" cx="103.24" cy="-973.25" rx="103.48" ry="48.17"/>
<text text-anchor="middle" x="103.24" y="-992.05" font-family="Times New Roman,serif" font-size="14.00">[3..5)</text>
<text text-anchor="middle" x="103.24" y="-977.05" font-family="Times New Roman,serif" font-size="14.00">Count: 864</text>
<text text-anchor="middle" x="103.24" y="-962.05" font-family="Times New Roman,serif" font-size="14.00">Normalized count: 0.08</text>
<text text-anchor="middle" x="103.24" y="-947.05" font-family="Times New Roman,serif" font-size="14.00">Samples weight: 0.00</text>
</g>
<!-- BB0&#45;&gt;BB1 -->
<g id="edge2" class="edge">
<title>BB0&#45;&gt;BB1</title>
<path fill="none" stroke="black" d="M177.32,-1060.35C167.83,-1049.32 157.57,-1037.39 147.79,-1026.03"/>
<polygon fill="black" stroke="black" points="150.29,-1023.57 141.12,-1018.27 144.99,-1028.14 150.29,-1023.57"/>
</g>
<!-- BB2 -->
<g id="node3" class="node">
<title>BB2</title>
<ellipse fill="none" stroke="black" cx="327.24" cy="-973.25" rx="103.48" ry="48.17"/>
<text text-anchor="middle" x="327.24" y="-992.05" font-family="Times New Roman,serif" font-size="14.00">[5..a)</text>
<text text-anchor="middle" x="327.24" y="-977.05" font-family="Times New Roman,serif" font-size="14.00">Count: 10643</text>
<text text-anchor="middle" x="327.24" y="-962.05" font-family="Times New Roman,serif" font-size="14.00">Normalized count: 0.95</text>
<text text-anchor="middle" x="327.24" y="-947.05" font-family="Times New Roman,serif" font-size="14.00">Samples weight: 0.01</text>
</g>
<!-- BB0&#45;&gt;BB2 -->
<g id="edge1" class="edge">
<title>BB0&#45;&gt;BB2</title>
<path fill="none" stroke="black" d="M253.16,-1060.35C262.64,-1049.32 272.91,-1037.39 282.68,-1026.03"/>
<polygon fill="black" stroke="black" points="285.49,-1028.14 289.36,-1018.27 280.18,-1023.57 285.49,-1028.14"/>
</g>
<!-- BB3 -->
<g id="node4" class="node">
<title>BB3</title>
<ellipse fill="none" stroke="black" cx="215.24" cy="-841.08" rx="103.48" ry="48.17"/>
<text text-anchor="middle" x="215.24" y="-859.88" font-family="Times New Roman,serif" font-size="14.00">[a..c)</text>
<text text-anchor="middle" x="215.24" y="-844.88" font-family="Times New Roman,serif" font-size="14.00">Count: 828</text>
<text text-anchor="middle" x="215.24" y="-829.88" font-family="Times New Roman,serif" font-size="14.00">Normalized count: 0.07</text>
<text text-anchor="middle" x="215.24" y="-814.88" font-family="Times New Roman,serif" font-size="14.00">Samples weight: 0.00</text>
</g>
<!-- BB2&#45;&gt;BB3 -->
<g id="edge4" class="edge">
<title>BB2&#45;&gt;BB3</title>
<path fill="none" stroke="black" d="M289.32,-928.18C279.83,-917.15 269.57,-905.23 259.79,-893.86"/>
<polygon fill="black" stroke="black" points="262.29,-891.4 253.12,-886.11 256.99,-895.97 262.29,-891.4"/>
</g>
<!-- BB4 -->
<g id="node5" class="node">
<title>BB4</title>
<ellipse fill="none" stroke="black" cx="439.24" cy="-841.08" rx="103.48" ry="48.17"/>
<text text-anchor="middle" x="439.24" y="-859.88" font-family="Times New Roman,serif" font-size="14.00">[c..10)</text>
<text text-anchor="middle" x="439.24" y="-844.88" font-family="Times New Roman,serif" font-size="14.00">Count: 10376</text>
<text text-anchor="middle" x="439.24" y="-829.88" font-family="Times New Roman,serif" font-size="14.00">Normalized count: 0.93</text>
<text text-anchor="middle" x="439.24" y="-814.88" font-family="Times New Roman,serif" font-size="14.00">Samples weight: 0.01</text>
</g>
<!-- BB2&#45;&gt;BB4 -->
<g id="edge3" class="edge">
<title>BB2&#45;&gt;BB4</title>
<path fill="none" stroke="black" d="M365.16,-928.18C374.64,-917.15 384.91,-905.23 394.68,-893.86"/>
<polygon fill="black" stroke="black" points="397.49,-895.97 401.36,-886.11 392.18,-891.4 397.49,-895.97"/>
</g>
<!-- BB6 -->
<g id="node7" class="node">
<title>BB6</title>
<ellipse fill="none" stroke="black" cx="439.24" cy="-708.92" rx="108.38" ry="48.17"/>
<text text-anchor="middle" x="439.24" y="-727.72" font-family="Times New Roman,serif" font-size="14.00">[1a..20)</text>
<text text-anchor="middle" x="439.24" y="-712.72" font-family="Times New Roman,serif" font-size="14.00">Count: 117902</text>
<text text-anchor="middle" x="439.24" y="-697.72" font-family="Times New Roman,serif" font-size="14.00">Normalized count: 10.56</text>
<text text-anchor="middle" x="439.24" y="-682.72" font-family="Times New Roman,serif" font-size="14.00">Samples weight: 0.16</text>
</g>
<!-- BB4&#45;&gt;BB6 -->
<g id="edge5" class="edge">
<title>BB4&#45;&gt;BB6</title>
<path fill="none" stroke="black" d="M439.24,-792.72C439.24,-784.45 439.24,-775.77 439.24,-767.27"/>
<polygon fill="black" stroke="black" points="442.74,-767.02 439.24,-757.02 435.74,-767.02 442.74,-767.02"/>
</g>
<!-- BB5 -->
<g id="node6" class="node">
<title>BB5</title>
<ellipse fill="none" stroke="black" cx="439.24" cy="-576.75" rx="103.48" ry="48.17"/>
<text text-anchor="middle" x="439.24" y="-595.55" font-family="Times New Roman,serif" font-size="14.00">[10..1a)</text>
<text text-anchor="middle" x="439.24" y="-580.55" font-family="Times New Roman,serif" font-size="14.00">Count: 106953</text>
<text text-anchor="middle" x="439.24" y="-565.55" font-family="Times New Roman,serif" font-size="14.00">Normalized count: 9.58</text>
<text text-anchor="middle" x="439.24" y="-550.55" font-family="Times New Roman,serif" font-size="14.00">Samples weight: 0.15</text>
</g>
<!-- BB5&#45;&gt;BB6 -->
<g id="edge6" class="edge">
<title>BB5&#45;&gt;BB6</title>
<path fill="none" stroke="black" d="M445.75,-624.86C445.97,-633.12 446.04,-641.8 445.95,-650.3"/>
<polygon fill="black" stroke="black" points="442.44,-650.49 445.76,-660.55 449.44,-650.62 442.44,-650.49"/>
</g>
<!-- BB6&#45;&gt;BB5 -->
<g id="edge7" class="edge">
<title>BB6&#45;&gt;BB5</title>
<path fill="none" stroke="black" d="M432.72,-660.55C432.5,-652.29 432.44,-643.6 432.53,-635.1"/>
<polygon fill="black" stroke="black" points="436.03,-634.92 432.72,-624.86 429.04,-634.79 436.03,-634.92"/>
</g>
<!-- BB7 -->
<g id="node8" class="node">
<title>BB7</title>
<ellipse fill="none" stroke="black" cx="663.24" cy="-576.75" rx="103.48" ry="48.17"/>
<text text-anchor="middle" x="663.24" y="-595.55" font-family="Times New Roman,serif" font-size="14.00">[20..22)</text>
<text text-anchor="middle" x="663.24" y="-580.55" font-family="Times New Roman,serif" font-size="14.00">Count: 10704</text>
<text text-anchor="middle" x="663.24" y="-565.55" font-family="Times New Roman,serif" font-size="14.00">Normalized count: 0.96</text>
<text text-anchor="middle" x="663.24" y="-550.55" font-family="Times New Roman,serif" font-size="14.00">Samples weight: 0.01</text>
</g>
<!-- BB6&#45;&gt;BB7 -->
<g id="edge8" class="edge">
<title>BB6&#45;&gt;BB7</title>
<path fill="none" stroke="black" d="M504.03,-670.27C531.08,-654.55 562.62,-636.22 590.47,-620.04"/>
<polygon fill="black" stroke="black" points="592.48,-622.92 599.37,-614.86 588.96,-616.86 592.48,-622.92"/>
</g>
<!-- BB8 -->
<g id="node9" class="node">
<title>BB8</title>
<ellipse fill="none" stroke="black" cx="663.24" cy="-444.58" rx="103.48" ry="48.17"/>
<text text-anchor="middle" x="663.24" y="-463.38" font-family="Times New Roman,serif" font-size="14.00">[22..2b)</text>
<text text-anchor="middle" x="663.24" y="-448.38" font-family="Times New Roman,serif" font-size="14.00">Count: 68107</text>
<text text-anchor="middle" x="663.24" y="-433.38" font-family="Times New Roman,serif" font-size="14.00">Normalized count: 6.10</text>
<text text-anchor="middle" x="663.24" y="-418.38" font-family="Times New Roman,serif" font-size="14.00">Samples weight: 0.09</text>
</g>
<!-- BB7&#45;&gt;BB8 -->
<g id="edge9" class="edge">
<title>BB7&#45;&gt;BB8</title>
<path fill="none" stroke="black" d="M663.24,-528.39C663.24,-520.12 663.24,-511.44 663.24,-502.93"/>
<polygon fill="black" stroke="black" points="666.74,-502.69 663.24,-492.69 659.74,-502.69 666.74,-502.69"/>
</g>
<!-- BB10 -->
<g id="node11" class="node">
<title>BB10</title>
<ellipse fill="none" stroke="black" cx="486.24" cy="-312.42" rx="108.38" ry="48.17"/>
<text text-anchor="middle" x="486.24" y="-331.22" font-family="Times New Roman,serif" font-size="14.00">[47..4c)</text>
<text text-anchor="middle" x="486.24" y="-316.22" font-family="Times New Roman,serif" font-size="14.00">Count: 170582</text>
<text text-anchor="middle" x="486.24" y="-301.22" font-family="Times New Roman,serif" font-size="14.00">Normalized count: 15.28</text>
<text text-anchor="middle" x="486.24" y="-286.22" font-family="Times New Roman,serif" font-size="14.00">Samples weight: 0.23</text>
</g>
<!-- BB8&#45;&gt;BB10 -->
<g id="edge10" class="edge">
<title>BB8&#45;&gt;BB10</title>
<path fill="none" stroke="black" d="M608.69,-403.47C589.93,-389.68 568.78,-374.12 549.4,-359.87"/>
<polygon fill="black" stroke="black" points="551.35,-356.95 541.22,-353.85 547.2,-362.59 551.35,-356.95"/>
</g>
<!-- BB9 -->
<g id="node10" class="node">
<title>BB9</title>
<ellipse fill="none" stroke="black" cx="397.24" cy="-180.25" rx="103.48" ry="48.17"/>
<text text-anchor="middle" x="397.24" y="-199.05" font-family="Times New Roman,serif" font-size="14.00">[2b..47)</text>
<text text-anchor="middle" x="397.24" y="-184.05" font-family="Times New Roman,serif" font-size="14.00">Count: 101115</text>
<text text-anchor="middle" x="397.24" y="-169.05" font-family="Times New Roman,serif" font-size="14.00">Normalized count: 9.06</text>
<text text-anchor="middle" x="397.24" y="-154.05" font-family="Times New Roman,serif" font-size="14.00">Samples weight: 0.14</text>
</g>
<!-- BB9&#45;&gt;BB10 -->
<g id="edge11" class="edge">
<title>BB9&#45;&gt;BB10</title>
<path fill="none" stroke="black" d="M433.87,-225.42C441.16,-235.61 448.74,-246.58 455.8,-257.15"/>
<polygon fill="black" stroke="black" points="452.9,-259.12 461.34,-265.52 458.74,-255.25 452.9,-259.12"/>
</g>
<!-- BB10&#45;&gt;BB9 -->
<g id="edge12" class="edge">
<title>BB10&#45;&gt;BB9</title>
<path fill="none" stroke="black" d="M449.42,-266.98C442.26,-256.97 434.84,-246.23 427.9,-235.86"/>
<polygon fill="black" stroke="black" points="430.65,-233.66 422.21,-227.25 424.81,-237.52 430.65,-233.66"/>
</g>
<!-- BB11 -->
<g id="node12" class="node">
<title>BB11</title>
<ellipse fill="none" stroke="black" cx="621.24" cy="-180.25" rx="103.48" ry="48.17"/>
<text text-anchor="middle" x="621.24" y="-199.05" font-family="Times New Roman,serif" font-size="14.00">[4c..55)</text>
<text text-anchor="middle" x="621.24" y="-184.05" font-family="Times New Roman,serif" font-size="14.00">Count: 58072</text>
<text text-anchor="middle" x="621.24" y="-169.05" font-family="Times New Roman,serif" font-size="14.00">Normalized count: 5.20</text>
<text text-anchor="middle" x="621.24" y="-154.05" font-family="Times New Roman,serif" font-size="14.00">Samples weight: 0.08</text>
</g>
<!-- BB10&#45;&gt;BB11 -->
<g id="edge13" class="edge">
<title>BB10&#45;&gt;BB11</title>
<path fill="none" stroke="black" d="M530.82,-268.43C543.27,-256.43 556.91,-243.28 569.73,-230.92"/>
<polygon fill="black" stroke="black" points="572.4,-233.2 577.17,-223.74 567.54,-228.16 572.4,-233.2"/>
</g>
<!-- BB12 -->
<g id="node13" class="node">
<title>BB12</title>
<ellipse fill="none" stroke="black" cx="528.24" cy="-48.08" rx="103.48" ry="48.17"/>
<text text-anchor="middle" x="528.24" y="-66.88" font-family="Times New Roman,serif" font-size="14.00">[55..57)</text>
<text text-anchor="middle" x="528.24" y="-51.88" font-family="Times New Roman,serif" font-size="14.00">Count: 6239</text>
<text text-anchor="middle" x="528.24" y="-36.88" font-family="Times New Roman,serif" font-size="14.00">Normalized count: 0.56</text>
<text text-anchor="middle" x="528.24" y="-21.88" font-family="Times New Roman,serif" font-size="14.00">Samples weight: 0.01</text>
</g>
<!-- BB11&#45;&gt;BB12 -->
<g id="edge15" class="edge">
<title>BB11&#45;&gt;BB12</title>
<path fill="none" stroke="black" d="M589.23,-134.45C581.85,-124.12 573.93,-113.04 566.32,-102.39"/>
<polygon fill="black" stroke="black" points="568.96,-100.06 560.3,-93.96 563.27,-104.13 568.96,-100.06"/>
</g>
<!-- BB13 -->
<g id="node14" class="node">
<title>BB13</title>
<ellipse fill="none" stroke="black" cx="752.24" cy="-48.08" rx="103.48" ry="48.17"/>
<text text-anchor="middle" x="752.24" y="-66.88" font-family="Times New Roman,serif" font-size="14.00">[57..64)</text>
<text text-anchor="middle" x="752.24" y="-51.88" font-family="Times New Roman,serif" font-size="14.00">Count: 54204</text>
<text text-anchor="middle" x="752.24" y="-36.88" font-family="Times New Roman,serif" font-size="14.00">Normalized count: 4.86</text>
<text text-anchor="middle" x="752.24" y="-21.88" font-family="Times New Roman,serif" font-size="14.00">Samples weight: 0.07</text>
</g>
<!-- BB11&#45;&gt;BB13 -->
<g id="edge14" class="edge">
<title>BB11&#45;&gt;BB13</title>
<path fill="none" stroke="black" d="M664.49,-136.27C676.46,-124.38 689.54,-111.38 701.87,-99.13"/>
<polygon fill="black" stroke="black" points="704.4,-101.55 709.03,-92.02 699.47,-96.59 704.4,-101.55"/>
</g>
<!-- BB13&#45;&gt;BB8 -->
<g id="edge16" class="edge">
<title>BB13&#45;&gt;BB8</title>
<path fill="none" stroke="black" d="M749.93,-96.3C747.5,-132.7 742.66,-184.11 733.24,-228.33 721.47,-283.54 700.87,-344.56 685.06,-387.49"/>
<polygon fill="black" stroke="black" points="681.76,-386.31 681.55,-396.91 688.32,-388.75 681.76,-386.31"/>
</g>
</g>
</svg>
