<?xml version="1.0" encoding="UTF-8" standalone="no"?>
<!DOCTYPE svg PUBLIC "-//W3C//DTD SVG 1.1//EN"
 "http://www.w3.org/Graphics/SVG/1.1/DTD/svg11.dtd">
<!-- Generated by graphviz version 2.47.0 (20210316.0004)
 -->
<!-- Title: G Pages: 1 -->
<svg width="764pt" height="1161pt"
 viewBox="0.00 0.00 763.66 1161.50" xmlns="http://www.w3.org/2000/svg" xmlns:xlink="http://www.w3.org/1999/xlink">
<g id="graph0" class="graph" transform="scale(1 1) rotate(0) translate(4 1157.5)">
<title>G</title>
<polygon fill="white" stroke="transparent" points="-4,4 -4,-1157.5 759.66,-1157.5 759.66,4 -4,4"/>
<!-- BB0 -->
<g id="node1" class="node">
<title>BB0</title>
<ellipse fill="none" stroke="black" cx="529.42" cy="-1105.42" rx="103.48" ry="48.17"/>
<text text-anchor="middle" x="529.42" y="-1124.22" font-family="Times New Roman,serif" font-size="14.00">[0..7)</text>
<text text-anchor="middle" x="529.42" y="-1109.22" font-family="Times New Roman,serif" font-size="14.00">Count: 7</text>
<text text-anchor="middle" x="529.42" y="-1094.22" font-family="Times New Roman,serif" font-size="14.00">Normalized count: 1.00</text>
<text text-anchor="middle" x="529.42" y="-1079.22" font-family="Times New Roman,serif" font-size="14.00">Samples weight: 0.01</text>
</g>
<!-- BB8 -->
<g id="node9" class="node">
<title>BB8</title>
<ellipse fill="none" stroke="black" cx="529.42" cy="-973.25" rx="108.38" ry="48.17"/>
<text text-anchor="middle" x="529.42" y="-992.05" font-family="Times New Roman,serif" font-size="14.00">[76..7a)</text>
<text text-anchor="middle" x="529.42" y="-977.05" font-family="Times New Roman,serif" font-size="14.00">Count: 133</text>
<text text-anchor="middle" x="529.42" y="-962.05" font-family="Times New Roman,serif" font-size="14.00">Normalized count: 19.00</text>
<text text-anchor="middle" x="529.42" y="-947.05" font-family="Times New Roman,serif" font-size="14.00">Samples weight: 0.23</text>
</g>
<!-- BB0&#45;&gt;BB8 -->
<g id="edge1" class="edge">
<title>BB0&#45;&gt;BB8</title>
<path fill="none" stroke="black" d="M529.42,-1057.05C529.42,-1048.79 529.42,-1040.1 529.42,-1031.6"/>
<polygon fill="black" stroke="black" points="532.92,-1031.36 529.42,-1021.36 525.92,-1031.36 532.92,-1031.36"/>
</g>
<!-- BB1 -->
<g id="node2" class="node">
<title>BB1</title>
<ellipse fill="none" stroke="black" cx="499.42" cy="-708.92" rx="108.38" ry="48.17"/>
<text text-anchor="middle" x="499.42" y="-727.72" font-family="Times New Roman,serif" font-size="14.00">[7..14)</text>
<text text-anchor="middle" x="499.42" y="-712.72" font-family="Times New Roman,serif" font-size="14.00">Count: 126</text>
<text text-anchor="middle" x="499.42" y="-697.72" font-family="Times New Roman,serif" font-size="14.00">Normalized count: 18.00</text>
<text text-anchor="middle" x="499.42" y="-682.72" font-family="Times New Roman,serif" font-size="14.00">Samples weight: 0.22</text>
</g>
<!-- BB2 -->
<g id="node3" class="node">
<title>BB2</title>
<ellipse fill="none" stroke="black" cx="499.42" cy="-576.75" rx="103.48" ry="48.17"/>
<text text-anchor="middle" x="499.42" y="-595.55" font-family="Times New Roman,serif" font-size="14.00">[14..1c)</text>
<text text-anchor="middle" x="499.42" y="-580.55" font-family="Times New Roman,serif" font-size="14.00">Count: 39</text>
<text text-anchor="middle" x="499.42" y="-565.55" font-family="Times New Roman,serif" font-size="14.00">Normalized count: 5.57</text>
<text text-anchor="middle" x="499.42" y="-550.55" font-family="Times New Roman,serif" font-size="14.00">Samples weight: 0.07</text>
</g>
<!-- BB1&#45;&gt;BB2 -->
<g id="edge3" class="edge">
<title>BB1&#45;&gt;BB2</title>
<path fill="none" stroke="black" d="M499.42,-660.55C499.42,-652.29 499.42,-643.6 499.42,-635.1"/>
<polygon fill="black" stroke="black" points="502.92,-634.86 499.42,-624.86 495.92,-634.86 502.92,-634.86"/>
</g>
<!-- BB1&#45;&gt;BB8 -->
<g id="edge2" class="edge">
<title>BB1&#45;&gt;BB8</title>
<path fill="none" stroke="black" d="M515.9,-756.86C519.34,-768.53 522.5,-781.1 524.42,-793 530.95,-833.42 532.09,-879.62 531.65,-914.99"/>
<polygon fill="black" stroke="black" points="528.15,-915.07 531.48,-925.13 535.15,-915.19 528.15,-915.07"/>
</g>
<!-- BB3 -->
<g id="node4" class="node">
<title>BB3</title>
<ellipse fill="none" stroke="black" cx="497.42" cy="-444.58" rx="103.48" ry="48.17"/>
<text text-anchor="middle" x="497.42" y="-463.38" font-family="Times New Roman,serif" font-size="14.00">[1c..2a)</text>
<text text-anchor="middle" x="497.42" y="-448.38" font-family="Times New Roman,serif" font-size="14.00">Count: 39</text>
<text text-anchor="middle" x="497.42" y="-433.38" font-family="Times New Roman,serif" font-size="14.00">Normalized count: 5.57</text>
<text text-anchor="middle" x="497.42" y="-418.38" font-family="Times New Roman,serif" font-size="14.00">Samples weight: 0.07</text>
</g>
<!-- BB2&#45;&gt;BB3 -->
<g id="edge5" class="edge">
<title>BB2&#45;&gt;BB3</title>
<path fill="none" stroke="black" d="M498.69,-528.39C498.56,-520.12 498.43,-511.44 498.3,-502.93"/>
<polygon fill="black" stroke="black" points="501.8,-502.64 498.14,-492.69 494.8,-502.74 501.8,-502.64"/>
</g>
<!-- BB2&#45;&gt;BB8 -->
<g id="edge4" class="edge">
<title>BB2&#45;&gt;BB8</title>
<path fill="none" stroke="black" d="M569.92,-611.91C588.42,-624.55 606.07,-640.8 616.42,-660.83 660.08,-745.39 607.76,-854.52 567.44,-918.6"/>
<polygon fill="black" stroke="black" points="564.29,-917.03 561.84,-927.34 570.18,-920.8 564.29,-917.03"/>
</g>
<!-- BB4 -->
<g id="node5" class="node">
<title>BB4</title>
<ellipse fill="none" stroke="black" cx="497.42" cy="-312.42" rx="103.48" ry="48.17"/>
<text text-anchor="middle" x="497.42" y="-331.22" font-family="Times New Roman,serif" font-size="14.00">[2a..4c)</text>
<text text-anchor="middle" x="497.42" y="-316.22" font-family="Times New Roman,serif" font-size="14.00">Count: 39</text>
<text text-anchor="middle" x="497.42" y="-301.22" font-family="Times New Roman,serif" font-size="14.00">Normalized count: 5.57</text>
<text text-anchor="middle" x="497.42" y="-286.22" font-family="Times New Roman,serif" font-size="14.00">Samples weight: 0.07</text>
</g>
<!-- BB3&#45;&gt;BB4 -->
<g id="edge7" class="edge">
<title>BB3&#45;&gt;BB4</title>
<path fill="none" stroke="black" d="M497.42,-396.22C497.42,-387.95 497.42,-379.27 497.42,-370.77"/>
<polygon fill="black" stroke="black" points="500.92,-370.52 497.42,-360.52 493.92,-370.52 500.92,-370.52"/>
</g>
<!-- BB3&#45;&gt;BB8 -->
<g id="edge6" class="edge">
<title>BB3&#45;&gt;BB8</title>
<path fill="none" stroke="black" d="M418.91,-475.94C252.26,-544.65 -110.31,-719.36 33.42,-889.17 80.87,-945.23 280.18,-963.49 411.25,-969.42"/>
<polygon fill="black" stroke="black" points="411.21,-972.92 421.35,-969.86 411.51,-965.92 411.21,-972.92"/>
</g>
<!-- BB5 -->
<g id="node6" class="node">
<title>BB5</title>
<ellipse fill="none" stroke="black" cx="587.42" cy="-180.25" rx="103.48" ry="48.17"/>
<text text-anchor="middle" x="587.42" y="-199.05" font-family="Times New Roman,serif" font-size="14.00">[4c..5b)</text>
<text text-anchor="middle" x="587.42" y="-184.05" font-family="Times New Roman,serif" font-size="14.00">Count: 19</text>
<text text-anchor="middle" x="587.42" y="-169.05" font-family="Times New Roman,serif" font-size="14.00">Normalized count: 2.71</text>
<text text-anchor="middle" x="587.42" y="-154.05" font-family="Times New Roman,serif" font-size="14.00">Samples weight: 0.03</text>
</g>
<!-- BB4&#45;&gt;BB5 -->
<g id="edge9" class="edge">
<title>BB4&#45;&gt;BB5</title>
<path fill="none" stroke="black" d="M528.64,-266.26C535.69,-256.06 543.24,-245.14 550.5,-234.64"/>
<polygon fill="black" stroke="black" points="553.44,-236.55 556.25,-226.33 547.68,-232.57 553.44,-236.55"/>
</g>
<!-- BB7 -->
<g id="node8" class="node">
<title>BB7</title>
<ellipse fill="none" stroke="black" cx="363.42" cy="-180.25" rx="103.48" ry="48.17"/>
<text text-anchor="middle" x="363.42" y="-199.05" font-family="Times New Roman,serif" font-size="14.00">[73..76)</text>
<text text-anchor="middle" x="363.42" y="-184.05" font-family="Times New Roman,serif" font-size="14.00">Count: 20</text>
<text text-anchor="middle" x="363.42" y="-169.05" font-family="Times New Roman,serif" font-size="14.00">Normalized count: 2.86</text>
<text text-anchor="middle" x="363.42" y="-154.05" font-family="Times New Roman,serif" font-size="14.00">Samples weight: 0.03</text>
</g>
<!-- BB4&#45;&gt;BB7 -->
<g id="edge8" class="edge">
<title>BB4&#45;&gt;BB7</title>
<path fill="none" stroke="black" d="M453.54,-268.79C441.16,-256.77 427.59,-243.58 414.81,-231.17"/>
<polygon fill="black" stroke="black" points="417.01,-228.42 407.39,-223.97 412.13,-233.45 417.01,-228.42"/>
</g>
<!-- BB6 -->
<g id="node7" class="node">
<title>BB6</title>
<ellipse fill="none" stroke="black" cx="652.42" cy="-48.08" rx="103.48" ry="48.17"/>
<text text-anchor="middle" x="652.42" y="-66.88" font-family="Times New Roman,serif" font-size="14.00">[5b..73)</text>
<text text-anchor="middle" x="652.42" y="-51.88" font-family="Times New Roman,serif" font-size="14.00">Count: 19</text>
<text text-anchor="middle" x="652.42" y="-36.88" font-family="Times New Roman,serif" font-size="14.00">Normalized count: 2.71</text>
<text text-anchor="middle" x="652.42" y="-21.88" font-family="Times New Roman,serif" font-size="14.00">Samples weight: 0.03</text>
</g>
<!-- BB5&#45;&gt;BB6 -->
<g id="edge11" class="edge">
<title>BB5&#45;&gt;BB6</title>
<path fill="none" stroke="black" d="M610.34,-133.36C615.04,-123.93 620.05,-113.91 624.9,-104.19"/>
<polygon fill="black" stroke="black" points="628.15,-105.51 629.49,-95 621.89,-102.38 628.15,-105.51"/>
</g>
<!-- BB5&#45;&gt;BB8 -->
<g id="edge10" class="edge">
<title>BB5&#45;&gt;BB8</title>
<path fill="none" stroke="black" d="M612.29,-227.15C637.69,-278.38 673.42,-364.5 673.42,-443.58 673.42,-709.92 673.42,-709.92 673.42,-709.92 673.42,-793.25 662.59,-818.51 618.42,-889.17 610.68,-901.54 600.64,-913.29 590.1,-923.84"/>
<polygon fill="black" stroke="black" points="587.51,-921.49 582.75,-930.95 592.37,-926.52 587.51,-921.49"/>
</g>
<!-- BB6&#45;&gt;BB8 -->
<g id="edge12" class="edge">
<title>BB6&#45;&gt;BB8</title>
<path fill="none" stroke="black" d="M682.29,-94.12C688.96,-106.05 695.27,-119.23 699.42,-132.17 723.87,-208.46 718.42,-231.3 718.42,-311.42 718.42,-709.92 718.42,-709.92 718.42,-709.92 718.42,-794.36 707.39,-822.61 655.42,-889.17 642.74,-905.41 625.96,-919.51 608.8,-931.25"/>
<polygon fill="black" stroke="black" points="606.77,-928.4 600.36,-936.83 610.63,-934.24 606.77,-928.4"/>
</g>
<!-- BB7&#45;&gt;BB8 -->
<g id="edge13" class="edge">
<title>BB7&#45;&gt;BB8</title>
<path fill="none" stroke="black" d="M363.42,-228.64C363.42,-281.18 363.42,-368.44 363.42,-443.58 363.42,-577.75 363.42,-577.75 363.42,-577.75 363.42,-657.86 332.13,-694.64 382.42,-757 414.45,-796.71 457.38,-754.99 491.42,-793 507.35,-810.79 517.67,-869.37 523.47,-914.78"/>
<polygon fill="black" stroke="black" points="520.01,-915.33 524.71,-924.83 526.96,-914.47 520.01,-915.33"/>
</g>
<!-- BB9 -->
<g id="node10" class="node">
<title>BB9</title>
<ellipse fill="none" stroke="black" cx="150.42" cy="-841.08" rx="108.38" ry="48.17"/>
<text text-anchor="middle" x="150.42" y="-859.88" font-family="Times New Roman,serif" font-size="14.00">[7a..7e)</text>
<text text-anchor="middle" x="150.42" y="-844.88" font-family="Times New Roman,serif" font-size="14.00">Count: 126</text>
<text text-anchor="middle" x="150.42" y="-829.88" font-family="Times New Roman,serif" font-size="14.00">Normalized count: 18.00</text>
<text text-anchor="middle" x="150.42" y="-814.88" font-family="Times New Roman,serif" font-size="14.00">Samples weight: 0.22</text>
</g>
<!-- BB8&#45;&gt;BB9 -->
<g id="edge15" class="edge">
<title>BB8&#45;&gt;BB9</title>
<path fill="none" stroke="black" d="M440.33,-945.83C389.38,-930.26 324.45,-909.65 267.42,-889.17 257.81,-885.72 247.83,-881.96 237.92,-878.13"/>
<polygon fill="black" stroke="black" points="239.05,-874.81 228.46,-874.44 236.5,-881.33 239.05,-874.81"/>
</g>
<!-- BB10 -->
<g id="node11" class="node">
<title>BB10</title>
<ellipse fill="none" stroke="black" cx="379.42" cy="-841.08" rx="103.48" ry="48.17"/>
<text text-anchor="middle" x="379.42" y="-859.88" font-family="Times New Roman,serif" font-size="14.00">[7e..7f)</text>
<text text-anchor="middle" x="379.42" y="-844.88" font-family="Times New Roman,serif" font-size="14.00">Count: 7</text>
<text text-anchor="middle" x="379.42" y="-829.88" font-family="Times New Roman,serif" font-size="14.00">Normalized count: 1.00</text>
<text text-anchor="middle" x="379.42" y="-814.88" font-family="Times New Roman,serif" font-size="14.00">Samples weight: 0.01</text>
</g>
<!-- BB8&#45;&gt;BB10 -->
<g id="edge14" class="edge">
<title>BB8&#45;&gt;BB10</title>
<path fill="none" stroke="black" d="M480.72,-929.99C466.15,-917.34 450.06,-903.39 435.08,-890.39"/>
<polygon fill="black" stroke="black" points="437.21,-887.6 427.36,-883.69 432.62,-892.88 437.21,-887.6"/>
</g>
<!-- BB9&#45;&gt;BB1 -->
<g id="edge16" class="edge">
<title>BB9&#45;&gt;BB1</title>
<path fill="none" stroke="black" d="M229.24,-807.88C241.97,-802.82 255.04,-797.71 267.42,-793 312.68,-775.79 363.28,-757.56 405.64,-742.57"/>
<polygon fill="black" stroke="black" points="406.84,-745.86 415.1,-739.23 404.5,-739.26 406.84,-745.86"/>
</g>
<!-- BB9&#45;&gt;BB10 -->
<g id="edge17" class="edge">
<title>BB9&#45;&gt;BB10</title>
<path fill="none" stroke="black" d="M258.66,-841.08C261.11,-841.08 263.57,-841.08 266.02,-841.08"/>
<polygon fill="black" stroke="black" points="266.11,-844.58 276.11,-841.08 266.11,-837.58 266.11,-844.58"/>
</g>
</g>
</svg>
