<?xml version="1.0" encoding="UTF-8" standalone="no"?>
<!DOCTYPE svg PUBLIC "-//W3C//DTD SVG 1.1//EN"
 "http://www.w3.org/Graphics/SVG/1.1/DTD/svg11.dtd">
<!-- Generated by graphviz version 2.47.0 (20210316.0004)
 -->
<!-- Title: G Pages: 1 -->
<svg width="1207pt" height="1029pt"
 viewBox="0.00 0.00 1207.37 1029.33" xmlns="http://www.w3.org/2000/svg" xmlns:xlink="http://www.w3.org/1999/xlink">
<g id="graph0" class="graph" transform="scale(1 1) rotate(0) translate(4 1025.33)">
<title>G</title>
<polygon fill="white" stroke="transparent" points="-4,4 -4,-1025.33 1203.37,-1025.33 1203.37,4 -4,4"/>
<!-- BB0 -->
<g id="node1" class="node">
<title>BB0</title>
<ellipse fill="none" stroke="black" cx="395.14" cy="-973.25" rx="103.48" ry="48.17"/>
<text text-anchor="middle" x="395.14" y="-992.05" font-family="Times New Roman,serif" font-size="14.00">[0..4)</text>
<text text-anchor="middle" x="395.14" y="-977.05" font-family="Times New Roman,serif" font-size="14.00">Count: 2</text>
<text text-anchor="middle" x="395.14" y="-962.05" font-family="Times New Roman,serif" font-size="14.00">Normalized count: 1.00</text>
<text text-anchor="middle" x="395.14" y="-947.05" font-family="Times New Roman,serif" font-size="14.00">Samples weight: 0.00</text>
</g>
<!-- BB6 -->
<g id="node7" class="node">
<title>BB6</title>
<ellipse fill="none" stroke="black" cx="395.14" cy="-841.08" rx="113.27" ry="48.17"/>
<text text-anchor="middle" x="395.14" y="-859.88" font-family="Times New Roman,serif" font-size="14.00">[2e..32)</text>
<text text-anchor="middle" x="395.14" y="-844.88" font-family="Times New Roman,serif" font-size="14.00">Count: 1889</text>
<text text-anchor="middle" x="395.14" y="-829.88" font-family="Times New Roman,serif" font-size="14.00">Normalized count: 944.50</text>
<text text-anchor="middle" x="395.14" y="-814.88" font-family="Times New Roman,serif" font-size="14.00">Samples weight: 0.01</text>
</g>
<!-- BB0&#45;&gt;BB6 -->
<g id="edge1" class="edge">
<title>BB0&#45;&gt;BB6</title>
<path fill="none" stroke="black" d="M395.14,-924.89C395.14,-916.62 395.14,-907.94 395.14,-899.43"/>
<polygon fill="black" stroke="black" points="398.64,-899.19 395.14,-889.19 391.64,-899.19 398.64,-899.19"/>
</g>
<!-- BB1 -->
<g id="node2" class="node">
<title>BB1</title>
<ellipse fill="none" stroke="black" cx="254.14" cy="-708.92" rx="113.27" ry="48.17"/>
<text text-anchor="middle" x="254.14" y="-727.72" font-family="Times New Roman,serif" font-size="14.00">[4..10)</text>
<text text-anchor="middle" x="254.14" y="-712.72" font-family="Times New Roman,serif" font-size="14.00">Count: 1887</text>
<text text-anchor="middle" x="254.14" y="-697.72" font-family="Times New Roman,serif" font-size="14.00">Normalized count: 943.50</text>
<text text-anchor="middle" x="254.14" y="-682.72" font-family="Times New Roman,serif" font-size="14.00">Samples weight: 0.01</text>
</g>
<!-- BB4 -->
<g id="node5" class="node">
<title>BB4</title>
<ellipse fill="none" stroke="black" cx="254.14" cy="-576.75" rx="113.27" ry="48.17"/>
<text text-anchor="middle" x="254.14" y="-595.55" font-family="Times New Roman,serif" font-size="14.00">[22..26)</text>
<text text-anchor="middle" x="254.14" y="-580.55" font-family="Times New Roman,serif" font-size="14.00">Count: 1969</text>
<text text-anchor="middle" x="254.14" y="-565.55" font-family="Times New Roman,serif" font-size="14.00">Normalized count: 984.50</text>
<text text-anchor="middle" x="254.14" y="-550.55" font-family="Times New Roman,serif" font-size="14.00">Samples weight: 0.01</text>
</g>
<!-- BB1&#45;&gt;BB4 -->
<g id="edge2" class="edge">
<title>BB1&#45;&gt;BB4</title>
<path fill="none" stroke="black" d="M254.14,-660.55C254.14,-652.29 254.14,-643.6 254.14,-635.1"/>
<polygon fill="black" stroke="black" points="257.64,-634.86 254.14,-624.86 250.64,-634.86 257.64,-634.86"/>
</g>
<!-- BB2 -->
<g id="node3" class="node">
<title>BB2</title>
<ellipse fill="none" stroke="black" cx="113.14" cy="-444.58" rx="113.27" ry="48.17"/>
<text text-anchor="middle" x="113.14" y="-463.38" font-family="Times New Roman,serif" font-size="14.00">[10..16)</text>
<text text-anchor="middle" x="113.14" y="-448.38" font-family="Times New Roman,serif" font-size="14.00">Count: 1768</text>
<text text-anchor="middle" x="113.14" y="-433.38" font-family="Times New Roman,serif" font-size="14.00">Normalized count: 884.00</text>
<text text-anchor="middle" x="113.14" y="-418.38" font-family="Times New Roman,serif" font-size="14.00">Samples weight: 0.01</text>
</g>
<!-- BB3 -->
<g id="node4" class="node">
<title>BB3</title>
<ellipse fill="none" stroke="black" cx="235.14" cy="-312.42" rx="108.38" ry="48.17"/>
<text text-anchor="middle" x="235.14" y="-331.22" font-family="Times New Roman,serif" font-size="14.00">[16..22)</text>
<text text-anchor="middle" x="235.14" y="-316.22" font-family="Times New Roman,serif" font-size="14.00">Count: 82</text>
<text text-anchor="middle" x="235.14" y="-301.22" font-family="Times New Roman,serif" font-size="14.00">Normalized count: 41.00</text>
<text text-anchor="middle" x="235.14" y="-286.22" font-family="Times New Roman,serif" font-size="14.00">Samples weight: 0.00</text>
</g>
<!-- BB2&#45;&gt;BB3 -->
<g id="edge4" class="edge">
<title>BB2&#45;&gt;BB3</title>
<path fill="none" stroke="black" d="M154.44,-399.51C164.99,-388.26 176.42,-376.07 187.26,-364.5"/>
<polygon fill="black" stroke="black" points="190.01,-366.69 194.29,-357 184.9,-361.9 190.01,-366.69"/>
</g>
<!-- BB5 -->
<g id="node6" class="node">
<title>BB5</title>
<ellipse fill="none" stroke="black" cx="395.14" cy="-444.58" rx="113.27" ry="48.17"/>
<text text-anchor="middle" x="395.14" y="-463.38" font-family="Times New Roman,serif" font-size="14.00">[26..2e)</text>
<text text-anchor="middle" x="395.14" y="-448.38" font-family="Times New Roman,serif" font-size="14.00">Count: 1887</text>
<text text-anchor="middle" x="395.14" y="-433.38" font-family="Times New Roman,serif" font-size="14.00">Normalized count: 943.50</text>
<text text-anchor="middle" x="395.14" y="-418.38" font-family="Times New Roman,serif" font-size="14.00">Samples weight: 0.01</text>
</g>
<!-- BB2&#45;&gt;BB5 -->
<g id="edge3" class="edge">
<title>BB2&#45;&gt;BB5</title>
<path fill="none" stroke="black" d="M226.32,-444.58C241.32,-444.58 256.33,-444.58 271.33,-444.58"/>
<polygon fill="black" stroke="black" points="271.71,-448.08 281.71,-444.58 271.71,-441.08 271.71,-448.08"/>
</g>
<!-- BB3&#45;&gt;BB4 -->
<g id="edge5" class="edge">
<title>BB3&#45;&gt;BB4</title>
<path fill="none" stroke="black" d="M238.56,-360.68C241.77,-404.96 246.57,-471.21 249.99,-518.47"/>
<polygon fill="black" stroke="black" points="246.5,-518.83 250.72,-528.55 253.49,-518.32 246.5,-518.83"/>
</g>
<!-- BB4&#45;&gt;BB2 -->
<g id="edge6" class="edge">
<title>BB4&#45;&gt;BB2</title>
<path fill="none" stroke="black" d="M207.58,-532.77C194.7,-520.88 180.62,-507.88 167.35,-495.63"/>
<polygon fill="black" stroke="black" points="169.37,-492.73 159.65,-488.52 164.62,-497.87 169.37,-492.73"/>
</g>
<!-- BB4&#45;&gt;BB5 -->
<g id="edge7" class="edge">
<title>BB4&#45;&gt;BB5</title>
<path fill="none" stroke="black" d="M300.7,-532.77C313.57,-520.88 327.65,-507.88 340.92,-495.63"/>
<polygon fill="black" stroke="black" points="343.65,-497.87 348.63,-488.52 338.9,-492.73 343.65,-497.87"/>
</g>
<!-- BB5&#45;&gt;BB6 -->
<g id="edge8" class="edge">
<title>BB5&#45;&gt;BB6</title>
<path fill="none" stroke="black" d="M395.14,-492.83C395.14,-565.48 395.14,-704.4 395.14,-782.72"/>
<polygon fill="black" stroke="black" points="391.64,-782.89 395.14,-792.89 398.64,-782.89 391.64,-782.89"/>
</g>
<!-- BB6&#45;&gt;BB1 -->
<g id="edge9" class="edge">
<title>BB6&#45;&gt;BB1</title>
<path fill="none" stroke="black" d="M348.58,-797.1C335.7,-785.21 321.62,-772.21 308.35,-759.96"/>
<polygon fill="black" stroke="black" points="310.37,-757.06 300.65,-752.85 305.62,-762.21 310.37,-757.06"/>
</g>
<!-- BB7 -->
<g id="node8" class="node">
<title>BB7</title>
<ellipse fill="none" stroke="black" cx="587.14" cy="-708.92" rx="103.48" ry="48.17"/>
<text text-anchor="middle" x="587.14" y="-727.72" font-family="Times New Roman,serif" font-size="14.00">[32..34)</text>
<text text-anchor="middle" x="587.14" y="-712.72" font-family="Times New Roman,serif" font-size="14.00">Count: 2</text>
<text text-anchor="middle" x="587.14" y="-697.72" font-family="Times New Roman,serif" font-size="14.00">Normalized count: 1.00</text>
<text text-anchor="middle" x="587.14" y="-682.72" font-family="Times New Roman,serif" font-size="14.00">Samples weight: 0.00</text>
</g>
<!-- BB6&#45;&gt;BB7 -->
<g id="edge10" class="edge">
<title>BB6&#45;&gt;BB7</title>
<path fill="none" stroke="black" d="M454.31,-799.97C475.42,-785.66 499.33,-769.45 520.98,-754.77"/>
<polygon fill="black" stroke="black" points="523.16,-757.52 529.48,-749.01 519.24,-751.72 523.16,-757.52"/>
</g>
<!-- BB8 -->
<g id="node9" class="node">
<title>BB8</title>
<ellipse fill="none" stroke="black" cx="648.14" cy="-576.75" rx="118.17" ry="48.17"/>
<text text-anchor="middle" x="648.14" y="-595.55" font-family="Times New Roman,serif" font-size="14.00">[34..44)</text>
<text text-anchor="middle" x="648.14" y="-580.55" font-family="Times New Roman,serif" font-size="14.00">Count: 5881</text>
<text text-anchor="middle" x="648.14" y="-565.55" font-family="Times New Roman,serif" font-size="14.00">Normalized count: 2940.50</text>
<text text-anchor="middle" x="648.14" y="-550.55" font-family="Times New Roman,serif" font-size="14.00">Samples weight: 0.02</text>
</g>
<!-- BB7&#45;&gt;BB8 -->
<g id="edge11" class="edge">
<title>BB7&#45;&gt;BB8</title>
<path fill="none" stroke="black" d="M608.82,-661.66C613.08,-652.56 617.59,-642.93 621.99,-633.55"/>
<polygon fill="black" stroke="black" points="625.25,-634.84 626.32,-624.3 618.91,-631.87 625.25,-634.84"/>
</g>
<!-- BB14 -->
<g id="node15" class="node">
<title>BB14</title>
<ellipse fill="none" stroke="black" cx="648.14" cy="-444.58" rx="122.16" ry="48.17"/>
<text text-anchor="middle" x="648.14" y="-463.38" font-family="Times New Roman,serif" font-size="14.00">[6a..6e)</text>
<text text-anchor="middle" x="648.14" y="-448.38" font-family="Times New Roman,serif" font-size="14.00">Count: 64622</text>
<text text-anchor="middle" x="648.14" y="-433.38" font-family="Times New Roman,serif" font-size="14.00">Normalized count: 32311.00</text>
<text text-anchor="middle" x="648.14" y="-418.38" font-family="Times New Roman,serif" font-size="14.00">Samples weight: 0.18</text>
</g>
<!-- BB8&#45;&gt;BB14 -->
<g id="edge12" class="edge">
<title>BB8&#45;&gt;BB14</title>
<path fill="none" stroke="black" d="M648.14,-528.39C648.14,-520.12 648.14,-511.44 648.14,-502.93"/>
<polygon fill="black" stroke="black" points="651.64,-502.69 648.14,-492.69 644.64,-502.69 651.64,-502.69"/>
</g>
<!-- BB9 -->
<g id="node10" class="node">
<title>BB9</title>
<ellipse fill="none" stroke="black" cx="594.14" cy="-312.42" rx="122.16" ry="48.17"/>
<text text-anchor="middle" x="594.14" y="-331.22" font-family="Times New Roman,serif" font-size="14.00">[44..4a)</text>
<text text-anchor="middle" x="594.14" y="-316.22" font-family="Times New Roman,serif" font-size="14.00">Count: 59208</text>
<text text-anchor="middle" x="594.14" y="-301.22" font-family="Times New Roman,serif" font-size="14.00">Normalized count: 29604.00</text>
<text text-anchor="middle" x="594.14" y="-286.22" font-family="Times New Roman,serif" font-size="14.00">Samples weight: 0.17</text>
</g>
<!-- BB10 -->
<g id="node11" class="node">
<title>BB10</title>
<ellipse fill="none" stroke="black" cx="589.14" cy="-180.25" rx="122.16" ry="48.17"/>
<text text-anchor="middle" x="589.14" y="-199.05" font-family="Times New Roman,serif" font-size="14.00">[4a..54)</text>
<text text-anchor="middle" x="589.14" y="-184.05" font-family="Times New Roman,serif" font-size="14.00">Count: 59182</text>
<text text-anchor="middle" x="589.14" y="-169.05" font-family="Times New Roman,serif" font-size="14.00">Normalized count: 29591.00</text>
<text text-anchor="middle" x="589.14" y="-154.05" font-family="Times New Roman,serif" font-size="14.00">Samples weight: 0.17</text>
</g>
<!-- BB9&#45;&gt;BB10 -->
<g id="edge14" class="edge">
<title>BB9&#45;&gt;BB10</title>
<path fill="none" stroke="black" d="M592.32,-264.05C592,-255.79 591.67,-247.1 591.34,-238.6"/>
<polygon fill="black" stroke="black" points="594.83,-238.22 590.95,-228.36 587.83,-238.48 594.83,-238.22"/>
</g>
<!-- BB12 -->
<g id="node13" class="node">
<title>BB12</title>
<ellipse fill="none" stroke="black" cx="852.14" cy="-180.25" rx="122.16" ry="48.17"/>
<text text-anchor="middle" x="852.14" y="-199.05" font-family="Times New Roman,serif" font-size="14.00">[58..5e)</text>
<text text-anchor="middle" x="852.14" y="-184.05" font-family="Times New Roman,serif" font-size="14.00">Count: 59208</text>
<text text-anchor="middle" x="852.14" y="-169.05" font-family="Times New Roman,serif" font-size="14.00">Normalized count: 29604.00</text>
<text text-anchor="middle" x="852.14" y="-154.05" font-family="Times New Roman,serif" font-size="14.00">Samples weight: 0.17</text>
</g>
<!-- BB9&#45;&gt;BB12 -->
<g id="edge13" class="edge">
<title>BB9&#45;&gt;BB12</title>
<path fill="none" stroke="black" d="M668.42,-273.94C699.85,-258.08 736.6,-239.54 768.94,-223.22"/>
<polygon fill="black" stroke="black" points="770.59,-226.31 777.94,-218.69 767.43,-220.07 770.59,-226.31"/>
</g>
<!-- BB11 -->
<g id="node12" class="node">
<title>BB11</title>
<ellipse fill="none" stroke="black" cx="814.14" cy="-48.08" rx="122.16" ry="48.17"/>
<text text-anchor="middle" x="814.14" y="-66.88" font-family="Times New Roman,serif" font-size="14.00">[54..58)</text>
<text text-anchor="middle" x="814.14" y="-51.88" font-family="Times New Roman,serif" font-size="14.00">Count: 27584</text>
<text text-anchor="middle" x="814.14" y="-36.88" font-family="Times New Roman,serif" font-size="14.00">Normalized count: 13792.00</text>
<text text-anchor="middle" x="814.14" y="-21.88" font-family="Times New Roman,serif" font-size="14.00">Samples weight: 0.08</text>
</g>
<!-- BB10&#45;&gt;BB11 -->
<g id="edge16" class="edge">
<title>BB10&#45;&gt;BB11</title>
<path fill="none" stroke="black" d="M656.95,-140.02C682.41,-125.29 711.51,-108.45 737.7,-93.3"/>
<polygon fill="black" stroke="black" points="739.56,-96.27 746.46,-88.23 736.05,-90.21 739.56,-96.27"/>
</g>
<!-- BB10&#45;&gt;BB12 -->
<g id="edge15" class="edge">
<title>BB10&#45;&gt;BB12</title>
<path fill="none" stroke="black" d="M711.65,-180.25C714.29,-180.25 716.93,-180.25 719.57,-180.25"/>
<polygon fill="black" stroke="black" points="719.76,-183.75 729.76,-180.25 719.76,-176.75 719.76,-183.75"/>
</g>
<!-- BB11&#45;&gt;BB12 -->
<g id="edge17" class="edge">
<title>BB11&#45;&gt;BB12</title>
<path fill="none" stroke="black" d="M827.84,-96.01C830.34,-104.58 832.97,-113.6 835.55,-122.42"/>
<polygon fill="black" stroke="black" points="832.26,-123.64 838.42,-132.26 838.98,-121.68 832.26,-123.64"/>
</g>
<!-- BB13 -->
<g id="node14" class="node">
<title>BB13</title>
<ellipse fill="none" stroke="black" cx="514.14" cy="-48.08" rx="122.16" ry="48.17"/>
<text text-anchor="middle" x="514.14" y="-66.88" font-family="Times New Roman,serif" font-size="14.00">[5e..6a)</text>
<text text-anchor="middle" x="514.14" y="-51.88" font-family="Times New Roman,serif" font-size="14.00">Count: 58741</text>
<text text-anchor="middle" x="514.14" y="-36.88" font-family="Times New Roman,serif" font-size="14.00">Normalized count: 29370.50</text>
<text text-anchor="middle" x="514.14" y="-21.88" font-family="Times New Roman,serif" font-size="14.00">Samples weight: 0.17</text>
</g>
<!-- BB12&#45;&gt;BB13 -->
<g id="edge19" class="edge">
<title>BB12&#45;&gt;BB13</title>
<path fill="none" stroke="black" d="M765.97,-146.07C718.29,-127.7 658.92,-104.84 609.8,-85.92"/>
<polygon fill="black" stroke="black" points="611.03,-82.65 600.44,-82.32 608.51,-89.18 611.03,-82.65"/>
</g>
<!-- BB15 -->
<g id="node16" class="node">
<title>BB15</title>
<ellipse fill="none" stroke="black" cx="852.14" cy="-312.42" rx="118.17" ry="48.17"/>
<text text-anchor="middle" x="852.14" y="-331.22" font-family="Times New Roman,serif" font-size="14.00">[6e..7a)</text>
<text text-anchor="middle" x="852.14" y="-316.22" font-family="Times New Roman,serif" font-size="14.00">Count: 5881</text>
<text text-anchor="middle" x="852.14" y="-301.22" font-family="Times New Roman,serif" font-size="14.00">Normalized count: 2940.50</text>
<text text-anchor="middle" x="852.14" y="-286.22" font-family="Times New Roman,serif" font-size="14.00">Samples weight: 0.02</text>
</g>
<!-- BB12&#45;&gt;BB15 -->
<g id="edge18" class="edge">
<title>BB12&#45;&gt;BB15</title>
<path fill="none" stroke="black" d="M852.14,-228.36C852.14,-236.62 852.14,-245.3 852.14,-253.8"/>
<polygon fill="black" stroke="black" points="848.64,-254.05 852.14,-264.05 855.64,-254.06 848.64,-254.05"/>
</g>
<!-- BB13&#45;&gt;BB14 -->
<g id="edge20" class="edge">
<title>BB13&#45;&gt;BB14</title>
<path fill="none" stroke="black" d="M476.89,-94.03C469.2,-105.75 462.2,-118.86 458.14,-132.17 428.48,-229.24 406.39,-276.34 463.14,-360.5 473.96,-376.55 509.6,-394.13 546.75,-408.98"/>
<polygon fill="black" stroke="black" points="545.63,-412.29 556.21,-412.69 548.18,-405.78 545.63,-412.29"/>
</g>
<!-- BB14&#45;&gt;BB9 -->
<g id="edge21" class="edge">
<title>BB14&#45;&gt;BB9</title>
<path fill="none" stroke="black" d="M628.79,-396.96C625.11,-388.08 621.22,-378.7 617.43,-369.56"/>
<polygon fill="black" stroke="black" points="620.59,-368.05 613.53,-360.15 614.13,-370.73 620.59,-368.05"/>
</g>
<!-- BB14&#45;&gt;BB15 -->
<g id="edge22" class="edge">
<title>BB14&#45;&gt;BB15</title>
<path fill="none" stroke="black" d="M711.29,-403.29C733.39,-389.19 758.35,-373.26 781.06,-358.77"/>
<polygon fill="black" stroke="black" points="783.09,-361.63 789.64,-353.3 779.32,-355.73 783.09,-361.63"/>
</g>
<!-- BB15&#45;&gt;BB8 -->
<g id="edge23" class="edge">
<title>BB15&#45;&gt;BB8</title>
<path fill="none" stroke="black" d="M841.47,-360.66C830.84,-399.46 811.35,-454.12 779.14,-492.67 765.93,-508.47 748.92,-522.25 731.56,-533.8"/>
<polygon fill="black" stroke="black" points="729.54,-530.94 723.02,-539.29 733.33,-536.82 729.54,-530.94"/>
</g>
<!-- BB16 -->
<g id="node17" class="node">
<title>BB16</title>
<ellipse fill="none" stroke="black" cx="1096.14" cy="-180.25" rx="103.48" ry="48.17"/>
<text text-anchor="middle" x="1096.14" y="-199.05" font-family="Times New Roman,serif" font-size="14.00">[7a..7b)</text>
<text text-anchor="middle" x="1096.14" y="-184.05" font-family="Times New Roman,serif" font-size="14.00">Count: 2</text>
<text text-anchor="middle" x="1096.14" y="-169.05" font-family="Times New Roman,serif" font-size="14.00">Normalized count: 1.00</text>
<text text-anchor="middle" x="1096.14" y="-154.05" font-family="Times New Roman,serif" font-size="14.00">Samples weight: 0.00</text>
</g>
<!-- BB15&#45;&gt;BB16 -->
<g id="edge24" class="edge">
<title>BB15&#45;&gt;BB16</title>
<path fill="none" stroke="black" d="M922.71,-273.77C953.2,-257.5 988.93,-238.44 1020.02,-221.86"/>
<polygon fill="black" stroke="black" points="1021.9,-224.82 1029.07,-217.03 1018.6,-218.64 1021.9,-224.82"/>
</g>
</g>
</svg>
