<?xml version="1.0" encoding="UTF-8" standalone="no"?>
<!DOCTYPE svg PUBLIC "-//W3C//DTD SVG 1.1//EN"
 "http://www.w3.org/Graphics/SVG/1.1/DTD/svg11.dtd">
<!-- Generated by graphviz version 2.47.0 (20210316.0004)
 -->
<!-- Title: G Pages: 1 -->
<svg width="1218pt" height="1161pt"
 viewBox="0.00 0.00 1218.42 1161.50" xmlns="http://www.w3.org/2000/svg" xmlns:xlink="http://www.w3.org/1999/xlink">
<g id="graph0" class="graph" transform="scale(1 1) rotate(0) translate(4 1157.5)">
<title>G</title>
<polygon fill="white" stroke="transparent" points="-4,4 -4,-1157.5 1214.42,-1157.5 1214.42,4 -4,4"/>
<!-- BB0 -->
<g id="node1" class="node">
<title>BB0</title>
<ellipse fill="none" stroke="black" cx="352.19" cy="-1105.42" rx="103.48" ry="48.17"/>
<text text-anchor="middle" x="352.19" y="-1124.22" font-family="Times New Roman,serif" font-size="14.00">[0..b)</text>
<text text-anchor="middle" x="352.19" y="-1109.22" font-family="Times New Roman,serif" font-size="14.00">Count: 2</text>
<text text-anchor="middle" x="352.19" y="-1094.22" font-family="Times New Roman,serif" font-size="14.00">Normalized count: 1.00</text>
<text text-anchor="middle" x="352.19" y="-1079.22" font-family="Times New Roman,serif" font-size="14.00">Samples weight: 0.00</text>
</g>
<!-- BB5 -->
<g id="node6" class="node">
<title>BB5</title>
<ellipse fill="none" stroke="black" cx="352.19" cy="-973.25" rx="108.38" ry="48.17"/>
<text text-anchor="middle" x="352.19" y="-992.05" font-family="Times New Roman,serif" font-size="14.00">[27..2c)</text>
<text text-anchor="middle" x="352.19" y="-977.05" font-family="Times New Roman,serif" font-size="14.00">Count: 83</text>
<text text-anchor="middle" x="352.19" y="-962.05" font-family="Times New Roman,serif" font-size="14.00">Normalized count: 41.50</text>
<text text-anchor="middle" x="352.19" y="-947.05" font-family="Times New Roman,serif" font-size="14.00">Samples weight: 0.00</text>
</g>
<!-- BB0&#45;&gt;BB5 -->
<g id="edge1" class="edge">
<title>BB0&#45;&gt;BB5</title>
<path fill="none" stroke="black" d="M352.19,-1057.05C352.19,-1048.79 352.19,-1040.1 352.19,-1031.6"/>
<polygon fill="black" stroke="black" points="355.69,-1031.36 352.19,-1021.36 348.69,-1031.36 355.69,-1031.36"/>
</g>
<!-- BB1 -->
<g id="node2" class="node">
<title>BB1</title>
<ellipse fill="none" stroke="black" cx="352.19" cy="-841.08" rx="108.38" ry="48.17"/>
<text text-anchor="middle" x="352.19" y="-859.88" font-family="Times New Roman,serif" font-size="14.00">[b..f)</text>
<text text-anchor="middle" x="352.19" y="-844.88" font-family="Times New Roman,serif" font-size="14.00">Count: 84</text>
<text text-anchor="middle" x="352.19" y="-829.88" font-family="Times New Roman,serif" font-size="14.00">Normalized count: 42.00</text>
<text text-anchor="middle" x="352.19" y="-814.88" font-family="Times New Roman,serif" font-size="14.00">Samples weight: 0.00</text>
</g>
<!-- BB3 -->
<g id="node4" class="node">
<title>BB3</title>
<ellipse fill="none" stroke="black" cx="352.19" cy="-708.92" rx="118.17" ry="48.17"/>
<text text-anchor="middle" x="352.19" y="-727.72" font-family="Times New Roman,serif" font-size="14.00">[1e..23)</text>
<text text-anchor="middle" x="352.19" y="-712.72" font-family="Times New Roman,serif" font-size="14.00">Count: 5219</text>
<text text-anchor="middle" x="352.19" y="-697.72" font-family="Times New Roman,serif" font-size="14.00">Normalized count: 2609.50</text>
<text text-anchor="middle" x="352.19" y="-682.72" font-family="Times New Roman,serif" font-size="14.00">Samples weight: 0.02</text>
</g>
<!-- BB1&#45;&gt;BB3 -->
<g id="edge2" class="edge">
<title>BB1&#45;&gt;BB3</title>
<path fill="none" stroke="black" d="M352.19,-792.72C352.19,-784.45 352.19,-775.77 352.19,-767.27"/>
<polygon fill="black" stroke="black" points="355.69,-767.02 352.19,-757.02 348.69,-767.02 355.69,-767.02"/>
</g>
<!-- BB2 -->
<g id="node3" class="node">
<title>BB2</title>
<ellipse fill="none" stroke="black" cx="352.19" cy="-576.75" rx="118.17" ry="48.17"/>
<text text-anchor="middle" x="352.19" y="-595.55" font-family="Times New Roman,serif" font-size="14.00">[f..1e)</text>
<text text-anchor="middle" x="352.19" y="-580.55" font-family="Times New Roman,serif" font-size="14.00">Count: 5129</text>
<text text-anchor="middle" x="352.19" y="-565.55" font-family="Times New Roman,serif" font-size="14.00">Normalized count: 2564.50</text>
<text text-anchor="middle" x="352.19" y="-550.55" font-family="Times New Roman,serif" font-size="14.00">Samples weight: 0.02</text>
</g>
<!-- BB2&#45;&gt;BB3 -->
<g id="edge3" class="edge">
<title>BB2&#45;&gt;BB3</title>
<path fill="none" stroke="black" d="M358.7,-624.86C358.92,-633.12 358.99,-641.8 358.9,-650.3"/>
<polygon fill="black" stroke="black" points="355.39,-650.49 358.71,-660.55 362.39,-650.62 355.39,-650.49"/>
</g>
<!-- BB3&#45;&gt;BB2 -->
<g id="edge4" class="edge">
<title>BB3&#45;&gt;BB2</title>
<path fill="none" stroke="black" d="M345.66,-660.55C345.45,-652.29 345.39,-643.6 345.48,-635.1"/>
<polygon fill="black" stroke="black" points="348.98,-634.92 345.67,-624.86 341.98,-634.79 348.98,-634.92"/>
</g>
<!-- BB4 -->
<g id="node5" class="node">
<title>BB4</title>
<ellipse fill="none" stroke="black" cx="108.19" cy="-576.75" rx="108.38" ry="48.17"/>
<text text-anchor="middle" x="108.19" y="-595.55" font-family="Times New Roman,serif" font-size="14.00">[23..27)</text>
<text text-anchor="middle" x="108.19" y="-580.55" font-family="Times New Roman,serif" font-size="14.00">Count: 80</text>
<text text-anchor="middle" x="108.19" y="-565.55" font-family="Times New Roman,serif" font-size="14.00">Normalized count: 40.00</text>
<text text-anchor="middle" x="108.19" y="-550.55" font-family="Times New Roman,serif" font-size="14.00">Samples weight: 0.00</text>
</g>
<!-- BB3&#45;&gt;BB4 -->
<g id="edge5" class="edge">
<title>BB3&#45;&gt;BB4</title>
<path fill="none" stroke="black" d="M281.61,-670.27C251.51,-654.21 216.29,-635.42 185.49,-618.99"/>
<polygon fill="black" stroke="black" points="186.97,-615.81 176.5,-614.19 183.68,-621.99 186.97,-615.81"/>
</g>
<!-- BB4&#45;&gt;BB5 -->
<g id="edge6" class="edge">
<title>BB4&#45;&gt;BB5</title>
<path fill="none" stroke="black" d="M118.53,-624.73C134.65,-689.64 170.81,-807.95 235.19,-889.17 247.05,-904.13 262.29,-917.58 277.83,-929.08"/>
<polygon fill="black" stroke="black" points="275.8,-931.93 285.97,-934.92 279.88,-926.24 275.8,-931.93"/>
</g>
<!-- BB5&#45;&gt;BB1 -->
<g id="edge7" class="edge">
<title>BB5&#45;&gt;BB1</title>
<path fill="none" stroke="black" d="M352.19,-924.89C352.19,-916.62 352.19,-907.94 352.19,-899.43"/>
<polygon fill="black" stroke="black" points="355.69,-899.19 352.19,-889.19 348.69,-899.19 355.69,-899.19"/>
</g>
<!-- BB6 -->
<g id="node7" class="node">
<title>BB6</title>
<ellipse fill="none" stroke="black" cx="598.19" cy="-841.08" rx="103.48" ry="48.17"/>
<text text-anchor="middle" x="598.19" y="-859.88" font-family="Times New Roman,serif" font-size="14.00">[2c..30)</text>
<text text-anchor="middle" x="598.19" y="-844.88" font-family="Times New Roman,serif" font-size="14.00">Count: 5</text>
<text text-anchor="middle" x="598.19" y="-829.88" font-family="Times New Roman,serif" font-size="14.00">Normalized count: 2.50</text>
<text text-anchor="middle" x="598.19" y="-814.88" font-family="Times New Roman,serif" font-size="14.00">Samples weight: 0.00</text>
</g>
<!-- BB5&#45;&gt;BB6 -->
<g id="edge8" class="edge">
<title>BB5&#45;&gt;BB6</title>
<path fill="none" stroke="black" d="M420.71,-935.99C452.16,-919.35 489.56,-899.56 521.9,-882.45"/>
<polygon fill="black" stroke="black" points="523.68,-885.47 530.88,-877.7 520.4,-879.28 523.68,-885.47"/>
</g>
<!-- BB13 -->
<g id="node14" class="node">
<title>BB13</title>
<ellipse fill="none" stroke="black" cx="615.19" cy="-708.92" rx="108.38" ry="48.17"/>
<text text-anchor="middle" x="615.19" y="-727.72" font-family="Times New Roman,serif" font-size="14.00">[70..75)</text>
<text text-anchor="middle" x="615.19" y="-712.72" font-family="Times New Roman,serif" font-size="14.00">Count: 137</text>
<text text-anchor="middle" x="615.19" y="-697.72" font-family="Times New Roman,serif" font-size="14.00">Normalized count: 68.50</text>
<text text-anchor="middle" x="615.19" y="-682.72" font-family="Times New Roman,serif" font-size="14.00">Samples weight: 0.00</text>
</g>
<!-- BB6&#45;&gt;BB13 -->
<g id="edge9" class="edge">
<title>BB6&#45;&gt;BB13</title>
<path fill="none" stroke="black" d="M604.37,-792.72C605.46,-784.36 606.61,-775.58 607.73,-766.99"/>
<polygon fill="black" stroke="black" points="611.21,-767.39 609.03,-757.02 604.27,-766.49 611.21,-767.39"/>
</g>
<!-- BB7 -->
<g id="node8" class="node">
<title>BB7</title>
<ellipse fill="none" stroke="black" cx="639.19" cy="-576.75" rx="108.38" ry="48.17"/>
<text text-anchor="middle" x="639.19" y="-595.55" font-family="Times New Roman,serif" font-size="14.00">[30..34)</text>
<text text-anchor="middle" x="639.19" y="-580.55" font-family="Times New Roman,serif" font-size="14.00">Count: 140</text>
<text text-anchor="middle" x="639.19" y="-565.55" font-family="Times New Roman,serif" font-size="14.00">Normalized count: 70.00</text>
<text text-anchor="middle" x="639.19" y="-550.55" font-family="Times New Roman,serif" font-size="14.00">Samples weight: 0.00</text>
</g>
<!-- BB11 -->
<g id="node12" class="node">
<title>BB11</title>
<ellipse fill="none" stroke="black" cx="644.19" cy="-444.58" rx="118.17" ry="48.17"/>
<text text-anchor="middle" x="644.19" y="-463.38" font-family="Times New Roman,serif" font-size="14.00">[67..6c)</text>
<text text-anchor="middle" x="644.19" y="-448.38" font-family="Times New Roman,serif" font-size="14.00">Count: 8695</text>
<text text-anchor="middle" x="644.19" y="-433.38" font-family="Times New Roman,serif" font-size="14.00">Normalized count: 4347.50</text>
<text text-anchor="middle" x="644.19" y="-418.38" font-family="Times New Roman,serif" font-size="14.00">Samples weight: 0.03</text>
</g>
<!-- BB7&#45;&gt;BB11 -->
<g id="edge10" class="edge">
<title>BB7&#45;&gt;BB11</title>
<path fill="none" stroke="black" d="M641.01,-528.39C641.32,-520.12 641.66,-511.44 641.98,-502.93"/>
<polygon fill="black" stroke="black" points="645.49,-502.82 642.38,-492.69 638.5,-502.55 645.49,-502.82"/>
</g>
<!-- BB8 -->
<g id="node9" class="node">
<title>BB8</title>
<ellipse fill="none" stroke="black" cx="792.19" cy="-312.42" rx="118.17" ry="48.17"/>
<text text-anchor="middle" x="792.19" y="-331.22" font-family="Times New Roman,serif" font-size="14.00">[34..36)</text>
<text text-anchor="middle" x="792.19" y="-316.22" font-family="Times New Roman,serif" font-size="14.00">Count: 8702</text>
<text text-anchor="middle" x="792.19" y="-301.22" font-family="Times New Roman,serif" font-size="14.00">Normalized count: 4351.00</text>
<text text-anchor="middle" x="792.19" y="-286.22" font-family="Times New Roman,serif" font-size="14.00">Samples weight: 0.03</text>
</g>
<!-- BB9 -->
<g id="node10" class="node">
<title>BB9</title>
<ellipse fill="none" stroke="black" cx="796.19" cy="-180.25" rx="127.06" ry="48.17"/>
<text text-anchor="middle" x="796.19" y="-199.05" font-family="Times New Roman,serif" font-size="14.00">[36..63)</text>
<text text-anchor="middle" x="796.19" y="-184.05" font-family="Times New Roman,serif" font-size="14.00">Count: 216422</text>
<text text-anchor="middle" x="796.19" y="-169.05" font-family="Times New Roman,serif" font-size="14.00">Normalized count: 108211.00</text>
<text text-anchor="middle" x="796.19" y="-154.05" font-family="Times New Roman,serif" font-size="14.00">Samples weight: 0.85</text>
</g>
<!-- BB8&#45;&gt;BB9 -->
<g id="edge11" class="edge">
<title>BB8&#45;&gt;BB9</title>
<path fill="none" stroke="black" d="M793.64,-264.05C793.9,-255.79 794.16,-247.1 794.42,-238.6"/>
<polygon fill="black" stroke="black" points="797.93,-238.46 794.74,-228.36 790.93,-238.25 797.93,-238.46"/>
</g>
<!-- BB9&#45;&gt;BB9 -->
<g id="edge12" class="edge">
<title>BB9&#45;&gt;BB9</title>
<path fill="none" stroke="black" d="M907.65,-203.55C927.56,-200.52 941.47,-192.75 941.47,-180.25 941.47,-169.99 932.11,-162.92 917.76,-159.04"/>
<polygon fill="black" stroke="black" points="918.16,-155.55 907.65,-156.95 916.74,-162.41 918.16,-155.55"/>
</g>
<!-- BB10 -->
<g id="node11" class="node">
<title>BB10</title>
<ellipse fill="none" stroke="black" cx="718.19" cy="-48.08" rx="118.17" ry="48.17"/>
<text text-anchor="middle" x="718.19" y="-66.88" font-family="Times New Roman,serif" font-size="14.00">[63..67)</text>
<text text-anchor="middle" x="718.19" y="-51.88" font-family="Times New Roman,serif" font-size="14.00">Count: 8552</text>
<text text-anchor="middle" x="718.19" y="-36.88" font-family="Times New Roman,serif" font-size="14.00">Normalized count: 4276.00</text>
<text text-anchor="middle" x="718.19" y="-21.88" font-family="Times New Roman,serif" font-size="14.00">Samples weight: 0.03</text>
</g>
<!-- BB9&#45;&gt;BB10 -->
<g id="edge13" class="edge">
<title>BB9&#45;&gt;BB10</title>
<path fill="none" stroke="black" d="M768.47,-132.99C762.84,-123.59 756.86,-113.62 751.07,-103.96"/>
<polygon fill="black" stroke="black" points="753.96,-101.97 745.82,-95.19 747.96,-105.57 753.96,-101.97"/>
</g>
<!-- BB10&#45;&gt;BB11 -->
<g id="edge14" class="edge">
<title>BB10&#45;&gt;BB11</title>
<path fill="none" stroke="black" d="M680.11,-94.02C672.13,-105.75 664.75,-118.85 660.19,-132.17 631.12,-216.93 632.95,-322.29 637.88,-386.16"/>
<polygon fill="black" stroke="black" points="634.41,-386.75 638.72,-396.43 641.39,-386.18 634.41,-386.75"/>
</g>
<!-- BB11&#45;&gt;BB8 -->
<g id="edge15" class="edge">
<title>BB11&#45;&gt;BB8</title>
<path fill="none" stroke="black" d="M693.06,-400.6C706.7,-388.6 721.63,-375.47 735.67,-363.12"/>
<polygon fill="black" stroke="black" points="738.17,-365.59 743.37,-356.35 733.55,-360.33 738.17,-365.59"/>
</g>
<!-- BB12 -->
<g id="node13" class="node">
<title>BB12</title>
<ellipse fill="none" stroke="black" cx="503.19" cy="-312.42" rx="108.38" ry="48.17"/>
<text text-anchor="middle" x="503.19" y="-331.22" font-family="Times New Roman,serif" font-size="14.00">[6c..70)</text>
<text text-anchor="middle" x="503.19" y="-316.22" font-family="Times New Roman,serif" font-size="14.00">Count: 131</text>
<text text-anchor="middle" x="503.19" y="-301.22" font-family="Times New Roman,serif" font-size="14.00">Normalized count: 65.50</text>
<text text-anchor="middle" x="503.19" y="-286.22" font-family="Times New Roman,serif" font-size="14.00">Samples weight: 0.00</text>
</g>
<!-- BB11&#45;&gt;BB12 -->
<g id="edge16" class="edge">
<title>BB11&#45;&gt;BB12</title>
<path fill="none" stroke="black" d="M597.24,-400.24C584.38,-388.37 570.34,-375.41 557.12,-363.21"/>
<polygon fill="black" stroke="black" points="559.18,-360.34 549.45,-356.13 554.43,-365.48 559.18,-360.34"/>
</g>
<!-- BB12&#45;&gt;BB13 -->
<g id="edge17" class="edge">
<title>BB12&#45;&gt;BB13</title>
<path fill="none" stroke="black" d="M495.41,-360.51C487.22,-424.02 480.61,-539.05 522.19,-624.83 528.77,-638.42 538.67,-650.77 549.58,-661.54"/>
<polygon fill="black" stroke="black" points="547.2,-664.1 556.88,-668.4 551.99,-659 547.2,-664.1"/>
</g>
<!-- BB13&#45;&gt;BB7 -->
<g id="edge18" class="edge">
<title>BB13&#45;&gt;BB7</title>
<path fill="none" stroke="black" d="M623.85,-660.92C625.4,-652.55 627.02,-643.74 628.61,-635.11"/>
<polygon fill="black" stroke="black" points="632.08,-635.58 630.45,-625.11 625.2,-634.31 632.08,-635.58"/>
</g>
<!-- BB14 -->
<g id="node15" class="node">
<title>BB14</title>
<ellipse fill="none" stroke="black" cx="883.19" cy="-576.75" rx="103.48" ry="48.17"/>
<text text-anchor="middle" x="883.19" y="-595.55" font-family="Times New Roman,serif" font-size="14.00">[75..7e)</text>
<text text-anchor="middle" x="883.19" y="-580.55" font-family="Times New Roman,serif" font-size="14.00">Count: 1</text>
<text text-anchor="middle" x="883.19" y="-565.55" font-family="Times New Roman,serif" font-size="14.00">Normalized count: 0.50</text>
<text text-anchor="middle" x="883.19" y="-550.55" font-family="Times New Roman,serif" font-size="14.00">Samples weight: 0.00</text>
</g>
<!-- BB13&#45;&gt;BB14 -->
<g id="edge19" class="edge">
<title>BB13&#45;&gt;BB14</title>
<path fill="none" stroke="black" d="M687.36,-672.86C723.23,-655.44 766.68,-634.34 803.52,-616.44"/>
<polygon fill="black" stroke="black" points="805.28,-619.48 812.74,-611.96 802.22,-613.19 805.28,-619.48"/>
</g>
<!-- BB15 -->
<g id="node16" class="node">
<title>BB15</title>
<ellipse fill="none" stroke="black" cx="883.19" cy="-444.58" rx="103.48" ry="48.17"/>
<text text-anchor="middle" x="883.19" y="-463.38" font-family="Times New Roman,serif" font-size="14.00">[7e..80)</text>
<text text-anchor="middle" x="883.19" y="-448.38" font-family="Times New Roman,serif" font-size="14.00">Count: 0</text>
<text text-anchor="middle" x="883.19" y="-433.38" font-family="Times New Roman,serif" font-size="14.00">Normalized count: 0.00</text>
<text text-anchor="middle" x="883.19" y="-418.38" font-family="Times New Roman,serif" font-size="14.00">Samples weight: 0.00</text>
</g>
<!-- BB14&#45;&gt;BB15 -->
<g id="edge21" class="edge">
<title>BB14&#45;&gt;BB15</title>
<path fill="none" stroke="black" d="M883.19,-528.39C883.19,-520.12 883.19,-511.44 883.19,-502.93"/>
<polygon fill="black" stroke="black" points="886.69,-502.69 883.19,-492.69 879.69,-502.69 886.69,-502.69"/>
</g>
<!-- BB16 -->
<g id="node17" class="node">
<title>BB16</title>
<ellipse fill="none" stroke="black" cx="1107.19" cy="-444.58" rx="103.48" ry="48.17"/>
<text text-anchor="middle" x="1107.19" y="-463.38" font-family="Times New Roman,serif" font-size="14.00">[80..82)</text>
<text text-anchor="middle" x="1107.19" y="-448.38" font-family="Times New Roman,serif" font-size="14.00">Count: 1</text>
<text text-anchor="middle" x="1107.19" y="-433.38" font-family="Times New Roman,serif" font-size="14.00">Normalized count: 0.50</text>
<text text-anchor="middle" x="1107.19" y="-418.38" font-family="Times New Roman,serif" font-size="14.00">Samples weight: 0.00</text>
</g>
<!-- BB14&#45;&gt;BB16 -->
<g id="edge20" class="edge">
<title>BB14&#45;&gt;BB16</title>
<path fill="none" stroke="black" d="M946.78,-538.8C974.21,-522.86 1006.43,-504.13 1034.78,-487.66"/>
<polygon fill="black" stroke="black" points="1036.55,-490.68 1043.44,-482.63 1033.03,-484.63 1036.55,-490.68"/>
</g>
</g>
</svg>
