<?xml version="1.0" encoding="UTF-8" standalone="no"?>
<!DOCTYPE svg PUBLIC "-//W3C//DTD SVG 1.1//EN"
 "http://www.w3.org/Graphics/SVG/1.1/DTD/svg11.dtd">
<!-- Generated by graphviz version 2.47.0 (20210316.0004)
 -->
<!-- Title: G Pages: 1 -->
<svg width="481pt" height="765pt"
 viewBox="0.00 0.00 481.42 765.00" xmlns="http://www.w3.org/2000/svg" xmlns:xlink="http://www.w3.org/1999/xlink">
<g id="graph0" class="graph" transform="scale(1 1) rotate(0) translate(4 761)">
<title>G</title>
<polygon fill="white" stroke="transparent" points="-4,4 -4,-761 477.42,-761 477.42,4 -4,4"/>
<!-- BB0 -->
<g id="node1" class="node">
<title>BB0</title>
<ellipse fill="none" stroke="black" cx="255.19" cy="-708.92" rx="103.48" ry="48.17"/>
<text text-anchor="middle" x="255.19" y="-727.72" font-family="Times New Roman,serif" font-size="14.00">[0..4)</text>
<text text-anchor="middle" x="255.19" y="-712.72" font-family="Times New Roman,serif" font-size="14.00">Count: 3</text>
<text text-anchor="middle" x="255.19" y="-697.72" font-family="Times New Roman,serif" font-size="14.00">Normalized count: 1.00</text>
<text text-anchor="middle" x="255.19" y="-682.72" font-family="Times New Roman,serif" font-size="14.00">Samples weight: 0.00</text>
</g>
<!-- BB1 -->
<g id="node2" class="node">
<title>BB1</title>
<ellipse fill="none" stroke="black" cx="141.19" cy="-576.75" rx="108.38" ry="48.17"/>
<text text-anchor="middle" x="141.19" y="-595.55" font-family="Times New Roman,serif" font-size="14.00">[4..e)</text>
<text text-anchor="middle" x="141.19" y="-580.55" font-family="Times New Roman,serif" font-size="14.00">Count: 75</text>
<text text-anchor="middle" x="141.19" y="-565.55" font-family="Times New Roman,serif" font-size="14.00">Normalized count: 25.00</text>
<text text-anchor="middle" x="141.19" y="-550.55" font-family="Times New Roman,serif" font-size="14.00">Samples weight: 0.09</text>
</g>
<!-- BB0&#45;&gt;BB1 -->
<g id="edge2" class="edge">
<title>BB0&#45;&gt;BB1</title>
<path fill="none" stroke="black" d="M216.91,-664.21C207.24,-653.17 196.76,-641.2 186.77,-629.8"/>
<polygon fill="black" stroke="black" points="189.17,-627.22 179.95,-622.01 183.9,-631.83 189.17,-627.22"/>
</g>
<!-- BB7 -->
<g id="node8" class="node">
<title>BB7</title>
<ellipse fill="none" stroke="black" cx="370.19" cy="-576.75" rx="103.48" ry="48.17"/>
<text text-anchor="middle" x="370.19" y="-595.55" font-family="Times New Roman,serif" font-size="14.00">[58..59)</text>
<text text-anchor="middle" x="370.19" y="-580.55" font-family="Times New Roman,serif" font-size="14.00">Count: 0</text>
<text text-anchor="middle" x="370.19" y="-565.55" font-family="Times New Roman,serif" font-size="14.00">Normalized count: 0.00</text>
<text text-anchor="middle" x="370.19" y="-550.55" font-family="Times New Roman,serif" font-size="14.00">Samples weight: 0.00</text>
</g>
<!-- BB0&#45;&gt;BB7 -->
<g id="edge1" class="edge">
<title>BB0&#45;&gt;BB7</title>
<path fill="none" stroke="black" d="M293.8,-664.21C303.76,-652.94 314.56,-640.71 324.83,-629.09"/>
<polygon fill="black" stroke="black" points="327.48,-631.37 331.48,-621.56 322.24,-626.74 327.48,-631.37"/>
</g>
<!-- BB2 -->
<g id="node3" class="node">
<title>BB2</title>
<ellipse fill="none" stroke="black" cx="141.19" cy="-444.58" rx="108.38" ry="48.17"/>
<text text-anchor="middle" x="141.19" y="-463.38" font-family="Times New Roman,serif" font-size="14.00">[e..18)</text>
<text text-anchor="middle" x="141.19" y="-448.38" font-family="Times New Roman,serif" font-size="14.00">Count: 268</text>
<text text-anchor="middle" x="141.19" y="-433.38" font-family="Times New Roman,serif" font-size="14.00">Normalized count: 89.33</text>
<text text-anchor="middle" x="141.19" y="-418.38" font-family="Times New Roman,serif" font-size="14.00">Samples weight: 0.33</text>
</g>
<!-- BB1&#45;&gt;BB2 -->
<g id="edge3" class="edge">
<title>BB1&#45;&gt;BB2</title>
<path fill="none" stroke="black" d="M141.19,-528.39C141.19,-520.12 141.19,-511.44 141.19,-502.93"/>
<polygon fill="black" stroke="black" points="144.69,-502.69 141.19,-492.69 137.69,-502.69 144.69,-502.69"/>
</g>
<!-- BB2&#45;&gt;BB2 -->
<g id="edge4" class="edge">
<title>BB2&#45;&gt;BB2</title>
<path fill="none" stroke="black" d="M235.29,-468.31C254.02,-465.64 267.37,-457.73 267.37,-444.58 267.37,-433.9 258.56,-426.68 245.21,-422.91"/>
<polygon fill="black" stroke="black" points="245.79,-419.46 235.29,-420.85 244.37,-426.31 245.79,-419.46"/>
</g>
<!-- BB3 -->
<g id="node4" class="node">
<title>BB3</title>
<ellipse fill="none" stroke="black" cx="216.19" cy="-312.42" rx="108.38" ry="48.17"/>
<text text-anchor="middle" x="216.19" y="-331.22" font-family="Times New Roman,serif" font-size="14.00">[18..22)</text>
<text text-anchor="middle" x="216.19" y="-316.22" font-family="Times New Roman,serif" font-size="14.00">Count: 271</text>
<text text-anchor="middle" x="216.19" y="-301.22" font-family="Times New Roman,serif" font-size="14.00">Normalized count: 90.33</text>
<text text-anchor="middle" x="216.19" y="-286.22" font-family="Times New Roman,serif" font-size="14.00">Samples weight: 0.33</text>
</g>
<!-- BB2&#45;&gt;BB3 -->
<g id="edge5" class="edge">
<title>BB2&#45;&gt;BB3</title>
<path fill="none" stroke="black" d="M167.63,-397.69C173.12,-388.16 178.96,-378.03 184.61,-368.23"/>
<polygon fill="black" stroke="black" points="187.77,-369.74 189.73,-359.33 181.71,-366.25 187.77,-369.74"/>
</g>
<!-- BB3&#45;&gt;BB3 -->
<g id="edge6" class="edge">
<title>BB3&#45;&gt;BB3</title>
<path fill="none" stroke="black" d="M310.29,-336.15C329.02,-333.47 342.37,-325.56 342.37,-312.42 342.37,-301.73 333.56,-294.51 320.21,-290.74"/>
<polygon fill="black" stroke="black" points="320.79,-287.29 310.29,-288.69 319.37,-294.14 320.79,-287.29"/>
</g>
<!-- BB4 -->
<g id="node5" class="node">
<title>BB4</title>
<ellipse fill="none" stroke="black" cx="216.19" cy="-180.25" rx="108.38" ry="48.17"/>
<text text-anchor="middle" x="216.19" y="-199.05" font-family="Times New Roman,serif" font-size="14.00">[22..26)</text>
<text text-anchor="middle" x="216.19" y="-184.05" font-family="Times New Roman,serif" font-size="14.00">Count: 42</text>
<text text-anchor="middle" x="216.19" y="-169.05" font-family="Times New Roman,serif" font-size="14.00">Normalized count: 14.00</text>
<text text-anchor="middle" x="216.19" y="-154.05" font-family="Times New Roman,serif" font-size="14.00">Samples weight: 0.05</text>
</g>
<!-- BB3&#45;&gt;BB4 -->
<g id="edge7" class="edge">
<title>BB3&#45;&gt;BB4</title>
<path fill="none" stroke="black" d="M216.19,-264.05C216.19,-255.79 216.19,-247.1 216.19,-238.6"/>
<polygon fill="black" stroke="black" points="219.69,-238.36 216.19,-228.36 212.69,-238.36 219.69,-238.36"/>
</g>
<!-- BB5 -->
<g id="node6" class="node">
<title>BB5</title>
<ellipse fill="none" stroke="black" cx="108.19" cy="-48.08" rx="108.38" ry="48.17"/>
<text text-anchor="middle" x="108.19" y="-66.88" font-family="Times New Roman,serif" font-size="14.00">[26..36)</text>
<text text-anchor="middle" x="108.19" y="-51.88" font-family="Times New Roman,serif" font-size="14.00">Count: 87</text>
<text text-anchor="middle" x="108.19" y="-36.88" font-family="Times New Roman,serif" font-size="14.00">Normalized count: 29.00</text>
<text text-anchor="middle" x="108.19" y="-21.88" font-family="Times New Roman,serif" font-size="14.00">Samples weight: 0.11</text>
</g>
<!-- BB4&#45;&gt;BB5 -->
<g id="edge9" class="edge">
<title>BB4&#45;&gt;BB5</title>
<path fill="none" stroke="black" d="M179.32,-134.82C170.47,-124.15 160.93,-112.66 151.81,-101.66"/>
<polygon fill="black" stroke="black" points="154.33,-99.22 145.25,-93.76 148.95,-103.69 154.33,-99.22"/>
</g>
<!-- BB6 -->
<g id="node7" class="node">
<title>BB6</title>
<ellipse fill="none" stroke="black" cx="356.19" cy="-48.08" rx="108.38" ry="48.17"/>
<text text-anchor="middle" x="356.19" y="-66.88" font-family="Times New Roman,serif" font-size="14.00">[36..58)</text>
<text text-anchor="middle" x="356.19" y="-51.88" font-family="Times New Roman,serif" font-size="14.00">Count: 77</text>
<text text-anchor="middle" x="356.19" y="-36.88" font-family="Times New Roman,serif" font-size="14.00">Normalized count: 25.67</text>
<text text-anchor="middle" x="356.19" y="-21.88" font-family="Times New Roman,serif" font-size="14.00">Samples weight: 0.09</text>
</g>
<!-- BB4&#45;&gt;BB6 -->
<g id="edge8" class="edge">
<title>BB4&#45;&gt;BB6</title>
<path fill="none" stroke="black" d="M262.03,-136.63C275.08,-124.49 289.41,-111.17 302.87,-98.66"/>
<polygon fill="black" stroke="black" points="305.3,-101.17 310.24,-91.8 300.54,-96.05 305.3,-101.17"/>
</g>
<!-- BB5&#45;&gt;BB2 -->
<g id="edge10" class="edge">
<title>BB5&#45;&gt;BB2</title>
<path fill="none" stroke="black" d="M99.33,-96.02C89.4,-157.67 77.33,-268.82 99.19,-360.5 101.46,-370.05 105.03,-379.75 109.13,-388.98"/>
<polygon fill="black" stroke="black" points="105.97,-390.48 113.4,-398.04 112.31,-387.5 105.97,-390.48"/>
</g>
<!-- BB6&#45;&gt;BB7 -->
<g id="edge11" class="edge">
<title>BB6&#45;&gt;BB7</title>
<path fill="none" stroke="black" d="M357.44,-96.37C360.02,-193.2 365.88,-413.74 368.66,-518.48"/>
<polygon fill="black" stroke="black" points="365.17,-518.64 368.93,-528.55 372.17,-518.46 365.17,-518.64"/>
</g>
</g>
</svg>
