<?xml version="1.0" encoding="UTF-8" standalone="no"?>
<!DOCTYPE svg PUBLIC "-//W3C//DTD SVG 1.1//EN"
 "http://www.w3.org/Graphics/SVG/1.1/DTD/svg11.dtd">
<!-- Generated by graphviz version 2.47.0 (20210316.0004)
 -->
<!-- Title: G Pages: 1 -->
<svg width="682pt" height="527pt"
 viewBox="0.00 0.00 681.72 526.77" xmlns="http://www.w3.org/2000/svg" xmlns:xlink="http://www.w3.org/1999/xlink">
<g id="graph0" class="graph" transform="scale(1 1) rotate(0) translate(4 522.77)">
<title>G</title>
<polygon fill="white" stroke="transparent" points="-4,4 -4,-522.77 677.72,-522.77 677.72,4 -4,4"/>
<!-- BB0 -->
<g id="node1" class="node">
<title>BB0</title>
<ellipse fill="none" stroke="black" cx="219.36" cy="-481.29" rx="105.22" ry="37.45"/>
<text text-anchor="middle" x="219.36" y="-492.59" font-family="Times New Roman,serif" font-size="14.00">[0..e)</text>
<text text-anchor="middle" x="219.36" y="-477.59" font-family="Times New Roman,serif" font-size="14.00">Normalized Count: 1.00</text>
<text text-anchor="middle" x="219.36" y="-462.59" font-family="Times New Roman,serif" font-size="14.00">Samples weight: 0.03</text>
</g>
<!-- BB1 -->
<g id="node2" class="node">
<title>BB1</title>
<ellipse fill="none" stroke="black" cx="105.36" cy="-370.34" rx="105.22" ry="37.45"/>
<text text-anchor="middle" x="105.36" y="-381.64" font-family="Times New Roman,serif" font-size="14.00">[e..10)</text>
<text text-anchor="middle" x="105.36" y="-366.64" font-family="Times New Roman,serif" font-size="14.00">Normalized Count: 0.40</text>
<text text-anchor="middle" x="105.36" y="-351.64" font-family="Times New Roman,serif" font-size="14.00">Samples weight: 0.01</text>
</g>
<!-- BB0&#45;&gt;BB1 -->
<g id="edge2" class="edge">
<title>BB0&#45;&gt;BB1</title>
<path fill="none" stroke="black" d="M183.29,-445.82C172.27,-435.28 160.03,-423.59 148.58,-412.65"/>
<polygon fill="black" stroke="black" points="150.84,-409.96 141.19,-405.59 146.01,-415.03 150.84,-409.96"/>
</g>
<!-- BB2 -->
<g id="node3" class="node">
<title>BB2</title>
<ellipse fill="none" stroke="black" cx="334.36" cy="-370.34" rx="105.22" ry="37.45"/>
<text text-anchor="middle" x="334.36" y="-381.64" font-family="Times New Roman,serif" font-size="14.00">[10..14)</text>
<text text-anchor="middle" x="334.36" y="-366.64" font-family="Times New Roman,serif" font-size="14.00">Normalized Count: 0.80</text>
<text text-anchor="middle" x="334.36" y="-351.64" font-family="Times New Roman,serif" font-size="14.00">Samples weight: 0.02</text>
</g>
<!-- BB0&#45;&gt;BB2 -->
<g id="edge1" class="edge">
<title>BB0&#45;&gt;BB2</title>
<path fill="none" stroke="black" d="M255.75,-445.82C266.87,-435.28 279.21,-423.59 290.76,-412.65"/>
<polygon fill="black" stroke="black" points="293.36,-415 298.21,-405.59 288.54,-409.92 293.36,-415"/>
</g>
<!-- BB6 -->
<g id="node7" class="node">
<title>BB6</title>
<ellipse fill="none" stroke="black" cx="334.36" cy="-259.38" rx="105.22" ry="37.45"/>
<text text-anchor="middle" x="334.36" y="-270.68" font-family="Times New Roman,serif" font-size="14.00">[3a..43)</text>
<text text-anchor="middle" x="334.36" y="-255.68" font-family="Times New Roman,serif" font-size="14.00">Normalized Count: 2.20</text>
<text text-anchor="middle" x="334.36" y="-240.68" font-family="Times New Roman,serif" font-size="14.00">Samples weight: 0.07</text>
</g>
<!-- BB2&#45;&gt;BB6 -->
<g id="edge3" class="edge">
<title>BB2&#45;&gt;BB6</title>
<path fill="none" stroke="black" d="M334.36,-332.75C334.36,-324.58 334.36,-315.8 334.36,-307.27"/>
<polygon fill="black" stroke="black" points="337.86,-307.06 334.36,-297.06 330.86,-307.06 337.86,-307.06"/>
</g>
<!-- BB3 -->
<g id="node4" class="node">
<title>BB3</title>
<ellipse fill="none" stroke="black" cx="334.36" cy="-148.43" rx="110.12" ry="37.45"/>
<text text-anchor="middle" x="334.36" y="-159.73" font-family="Times New Roman,serif" font-size="14.00">[14..34)</text>
<text text-anchor="middle" x="334.36" y="-144.73" font-family="Times New Roman,serif" font-size="14.00">Normalized Count: 18.60</text>
<text text-anchor="middle" x="334.36" y="-129.73" font-family="Times New Roman,serif" font-size="14.00">Samples weight: 0.57</text>
</g>
<!-- BB4 -->
<g id="node5" class="node">
<title>BB4</title>
<ellipse fill="none" stroke="black" cx="425.36" cy="-37.48" rx="105.22" ry="37.45"/>
<text text-anchor="middle" x="425.36" y="-48.78" font-family="Times New Roman,serif" font-size="14.00">[34..36)</text>
<text text-anchor="middle" x="425.36" y="-33.78" font-family="Times New Roman,serif" font-size="14.00">Normalized Count: 7.80</text>
<text text-anchor="middle" x="425.36" y="-18.78" font-family="Times New Roman,serif" font-size="14.00">Samples weight: 0.24</text>
</g>
<!-- BB3&#45;&gt;BB4 -->
<g id="edge5" class="edge">
<title>BB3&#45;&gt;BB4</title>
<path fill="none" stroke="black" d="M363.9,-112.06C372.01,-102.35 380.89,-91.71 389.32,-81.62"/>
<polygon fill="black" stroke="black" points="392.24,-83.59 395.96,-73.67 386.87,-79.1 392.24,-83.59"/>
</g>
<!-- BB5 -->
<g id="node6" class="node">
<title>BB5</title>
<ellipse fill="none" stroke="black" cx="196.36" cy="-37.48" rx="105.22" ry="37.45"/>
<text text-anchor="middle" x="196.36" y="-48.78" font-family="Times New Roman,serif" font-size="14.00">[36..3a)</text>
<text text-anchor="middle" x="196.36" y="-33.78" font-family="Times New Roman,serif" font-size="14.00">Normalized Count: 1.60</text>
<text text-anchor="middle" x="196.36" y="-18.78" font-family="Times New Roman,serif" font-size="14.00">Samples weight: 0.05</text>
</g>
<!-- BB3&#45;&gt;BB5 -->
<g id="edge4" class="edge">
<title>BB3&#45;&gt;BB5</title>
<path fill="none" stroke="black" d="M291.45,-113.55C277.3,-102.38 261.43,-89.85 246.77,-78.28"/>
<polygon fill="black" stroke="black" points="248.78,-75.41 238.77,-71.96 244.45,-80.9 248.78,-75.41"/>
</g>
<!-- BB5&#45;&gt;BB6 -->
<g id="edge6" class="edge">
<title>BB5&#45;&gt;BB6</title>
<path fill="none" stroke="black" d="M192.65,-75.1C191.28,-106.9 193.92,-152.9 215.36,-185.91 225.85,-202.06 241.32,-215.18 257.67,-225.58"/>
<polygon fill="black" stroke="black" points="255.91,-228.6 266.28,-230.78 259.52,-222.61 255.91,-228.6"/>
</g>
<!-- BB6&#45;&gt;BB3 -->
<g id="edge7" class="edge">
<title>BB6&#45;&gt;BB3</title>
<path fill="none" stroke="black" d="M334.36,-221.8C334.36,-213.63 334.36,-204.85 334.36,-196.32"/>
<polygon fill="black" stroke="black" points="337.86,-196.1 334.36,-186.1 330.86,-196.1 337.86,-196.1"/>
</g>
<!-- BB7 -->
<g id="node8" class="node">
<title>BB7</title>
<ellipse fill="none" stroke="black" cx="568.36" cy="-148.43" rx="105.22" ry="37.45"/>
<text text-anchor="middle" x="568.36" y="-159.73" font-family="Times New Roman,serif" font-size="14.00">[43..45)</text>
<text text-anchor="middle" x="568.36" y="-144.73" font-family="Times New Roman,serif" font-size="14.00">Normalized Count: 0.00</text>
<text text-anchor="middle" x="568.36" y="-129.73" font-family="Times New Roman,serif" font-size="14.00">Samples weight: 0.00</text>
</g>
<!-- BB6&#45;&gt;BB7 -->
<g id="edge8" class="edge">
<title>BB6&#45;&gt;BB7</title>
<path fill="none" stroke="black" d="M397.07,-229.19C427.62,-214.96 464.53,-197.77 496.25,-183.01"/>
<polygon fill="black" stroke="black" points="497.89,-186.1 505.48,-178.71 494.94,-179.76 497.89,-186.1"/>
</g>
</g>
</svg>
