<?xml version="1.0" encoding="UTF-8" standalone="no"?>
<!DOCTYPE svg PUBLIC "-//W3C//DTD SVG 1.1//EN"
 "http://www.w3.org/Graphics/SVG/1.1/DTD/svg11.dtd">
<!-- Generated by graphviz version 2.47.0 (20210316.0004)
 -->
<!-- Title: G Pages: 1 -->
<svg width="1149pt" height="1161pt"
 viewBox="0.00 0.00 1149.42 1161.50" xmlns="http://www.w3.org/2000/svg" xmlns:xlink="http://www.w3.org/1999/xlink">
<g id="graph0" class="graph" transform="scale(1 1) rotate(0) translate(4 1157.5)">
<title>G</title>
<polygon fill="white" stroke="transparent" points="-4,4 -4,-1157.5 1145.42,-1157.5 1145.42,4 -4,4"/>
<!-- BB0 -->
<g id="node1" class="node">
<title>BB0</title>
<ellipse fill="none" stroke="black" cx="108.19" cy="-1105.42" rx="103.48" ry="48.17"/>
<text text-anchor="middle" x="108.19" y="-1124.22" font-family="Times New Roman,serif" font-size="14.00">[0..17)</text>
<text text-anchor="middle" x="108.19" y="-1109.22" font-family="Times New Roman,serif" font-size="14.00">Count: 8</text>
<text text-anchor="middle" x="108.19" y="-1094.22" font-family="Times New Roman,serif" font-size="14.00">Normalized count: 1.00</text>
<text text-anchor="middle" x="108.19" y="-1079.22" font-family="Times New Roman,serif" font-size="14.00">Samples weight: 0.00</text>
</g>
<!-- BB2 -->
<g id="node3" class="node">
<title>BB2</title>
<ellipse fill="none" stroke="black" cx="108.19" cy="-973.25" rx="108.38" ry="48.17"/>
<text text-anchor="middle" x="108.19" y="-992.05" font-family="Times New Roman,serif" font-size="14.00">[24..2d)</text>
<text text-anchor="middle" x="108.19" y="-977.05" font-family="Times New Roman,serif" font-size="14.00">Count: 117</text>
<text text-anchor="middle" x="108.19" y="-962.05" font-family="Times New Roman,serif" font-size="14.00">Normalized count: 14.62</text>
<text text-anchor="middle" x="108.19" y="-947.05" font-family="Times New Roman,serif" font-size="14.00">Samples weight: 0.00</text>
</g>
<!-- BB0&#45;&gt;BB2 -->
<g id="edge1" class="edge">
<title>BB0&#45;&gt;BB2</title>
<path fill="none" stroke="black" d="M108.19,-1057.05C108.19,-1048.79 108.19,-1040.1 108.19,-1031.6"/>
<polygon fill="black" stroke="black" points="111.69,-1031.36 108.19,-1021.36 104.69,-1031.36 111.69,-1031.36"/>
</g>
<!-- BB1 -->
<g id="node2" class="node">
<title>BB1</title>
<ellipse fill="none" stroke="black" cx="108.19" cy="-841.08" rx="108.38" ry="48.17"/>
<text text-anchor="middle" x="108.19" y="-859.88" font-family="Times New Roman,serif" font-size="14.00">[17..24)</text>
<text text-anchor="middle" x="108.19" y="-844.88" font-family="Times New Roman,serif" font-size="14.00">Count: 110</text>
<text text-anchor="middle" x="108.19" y="-829.88" font-family="Times New Roman,serif" font-size="14.00">Normalized count: 13.75</text>
<text text-anchor="middle" x="108.19" y="-814.88" font-family="Times New Roman,serif" font-size="14.00">Samples weight: 0.00</text>
</g>
<!-- BB1&#45;&gt;BB2 -->
<g id="edge2" class="edge">
<title>BB1&#45;&gt;BB2</title>
<path fill="none" stroke="black" d="M114.7,-889.19C114.92,-897.45 114.99,-906.13 114.9,-914.64"/>
<polygon fill="black" stroke="black" points="111.39,-914.83 114.71,-924.89 118.39,-914.95 111.39,-914.83"/>
</g>
<!-- BB2&#45;&gt;BB1 -->
<g id="edge3" class="edge">
<title>BB2&#45;&gt;BB1</title>
<path fill="none" stroke="black" d="M101.66,-924.89C101.45,-916.62 101.39,-907.94 101.48,-899.43"/>
<polygon fill="black" stroke="black" points="104.98,-899.25 101.67,-889.19 97.98,-899.12 104.98,-899.25"/>
</g>
<!-- BB3 -->
<g id="node4" class="node">
<title>BB3</title>
<ellipse fill="none" stroke="black" cx="337.19" cy="-841.08" rx="103.48" ry="48.17"/>
<text text-anchor="middle" x="337.19" y="-859.88" font-family="Times New Roman,serif" font-size="14.00">[2d..38)</text>
<text text-anchor="middle" x="337.19" y="-844.88" font-family="Times New Roman,serif" font-size="14.00">Count: 8</text>
<text text-anchor="middle" x="337.19" y="-829.88" font-family="Times New Roman,serif" font-size="14.00">Normalized count: 1.00</text>
<text text-anchor="middle" x="337.19" y="-814.88" font-family="Times New Roman,serif" font-size="14.00">Samples weight: 0.00</text>
</g>
<!-- BB2&#45;&gt;BB3 -->
<g id="edge4" class="edge">
<title>BB2&#45;&gt;BB3</title>
<path fill="none" stroke="black" d="M173.81,-934.95C201.96,-918.95 234.96,-900.19 263.9,-883.74"/>
<polygon fill="black" stroke="black" points="265.78,-886.7 272.74,-878.71 262.32,-880.61 265.78,-886.7"/>
</g>
<!-- BB5 -->
<g id="node6" class="node">
<title>BB5</title>
<ellipse fill="none" stroke="black" cx="337.19" cy="-708.92" rx="132.46" ry="48.17"/>
<text text-anchor="middle" x="337.19" y="-727.72" font-family="Times New Roman,serif" font-size="14.00">[4c..53)</text>
<text text-anchor="middle" x="337.19" y="-712.72" font-family="Times New Roman,serif" font-size="14.00">Count: 15297352</text>
<text text-anchor="middle" x="337.19" y="-697.72" font-family="Times New Roman,serif" font-size="14.00">Normalized count: 1912169.00</text>
<text text-anchor="middle" x="337.19" y="-682.72" font-family="Times New Roman,serif" font-size="14.00">Samples weight: 0.50</text>
</g>
<!-- BB3&#45;&gt;BB5 -->
<g id="edge5" class="edge">
<title>BB3&#45;&gt;BB5</title>
<path fill="none" stroke="black" d="M337.19,-792.72C337.19,-784.45 337.19,-775.77 337.19,-767.27"/>
<polygon fill="black" stroke="black" points="340.69,-767.02 337.19,-757.02 333.69,-767.02 340.69,-767.02"/>
</g>
<!-- BB4 -->
<g id="node5" class="node">
<title>BB4</title>
<ellipse fill="none" stroke="black" cx="337.19" cy="-576.75" rx="132.46" ry="48.17"/>
<text text-anchor="middle" x="337.19" y="-595.55" font-family="Times New Roman,serif" font-size="14.00">[38..4c)</text>
<text text-anchor="middle" x="337.19" y="-580.55" font-family="Times New Roman,serif" font-size="14.00">Count: 15417006</text>
<text text-anchor="middle" x="337.19" y="-565.55" font-family="Times New Roman,serif" font-size="14.00">Normalized count: 1927125.75</text>
<text text-anchor="middle" x="337.19" y="-550.55" font-family="Times New Roman,serif" font-size="14.00">Samples weight: 0.50</text>
</g>
<!-- BB4&#45;&gt;BB5 -->
<g id="edge6" class="edge">
<title>BB4&#45;&gt;BB5</title>
<path fill="none" stroke="black" d="M343.7,-624.86C343.92,-633.12 343.99,-641.8 343.9,-650.3"/>
<polygon fill="black" stroke="black" points="340.39,-650.49 343.71,-660.55 347.39,-650.62 340.39,-650.49"/>
</g>
<!-- BB5&#45;&gt;BB4 -->
<g id="edge7" class="edge">
<title>BB5&#45;&gt;BB4</title>
<path fill="none" stroke="black" d="M330.66,-660.55C330.45,-652.29 330.39,-643.6 330.48,-635.1"/>
<polygon fill="black" stroke="black" points="333.98,-634.92 330.67,-624.86 326.98,-634.79 333.98,-634.92"/>
</g>
<!-- BB6 -->
<g id="node7" class="node">
<title>BB6</title>
<ellipse fill="none" stroke="black" cx="590.19" cy="-576.75" rx="103.48" ry="48.17"/>
<text text-anchor="middle" x="590.19" y="-595.55" font-family="Times New Roman,serif" font-size="14.00">[53..66)</text>
<text text-anchor="middle" x="590.19" y="-580.55" font-family="Times New Roman,serif" font-size="14.00">Count: 8</text>
<text text-anchor="middle" x="590.19" y="-565.55" font-family="Times New Roman,serif" font-size="14.00">Normalized count: 1.00</text>
<text text-anchor="middle" x="590.19" y="-550.55" font-family="Times New Roman,serif" font-size="14.00">Samples weight: 0.00</text>
</g>
<!-- BB5&#45;&gt;BB6 -->
<g id="edge8" class="edge">
<title>BB5&#45;&gt;BB6</title>
<path fill="none" stroke="black" d="M412.41,-669.21C443.96,-652.98 480.64,-634.11 512.45,-617.74"/>
<polygon fill="black" stroke="black" points="514.43,-620.66 521.72,-612.97 511.23,-614.44 514.43,-620.66"/>
</g>
<!-- BB11 -->
<g id="node12" class="node">
<title>BB11</title>
<ellipse fill="none" stroke="black" cx="590.19" cy="-444.58" rx="103.48" ry="48.17"/>
<text text-anchor="middle" x="590.19" y="-463.38" font-family="Times New Roman,serif" font-size="14.00">[9c..a2)</text>
<text text-anchor="middle" x="590.19" y="-448.38" font-family="Times New Roman,serif" font-size="14.00">Count: 8</text>
<text text-anchor="middle" x="590.19" y="-433.38" font-family="Times New Roman,serif" font-size="14.00">Normalized count: 1.00</text>
<text text-anchor="middle" x="590.19" y="-418.38" font-family="Times New Roman,serif" font-size="14.00">Samples weight: 0.00</text>
</g>
<!-- BB6&#45;&gt;BB11 -->
<g id="edge9" class="edge">
<title>BB6&#45;&gt;BB11</title>
<path fill="none" stroke="black" d="M590.19,-528.39C590.19,-520.12 590.19,-511.44 590.19,-502.93"/>
<polygon fill="black" stroke="black" points="593.69,-502.69 590.19,-492.69 586.69,-502.69 593.69,-502.69"/>
</g>
<!-- BB7 -->
<g id="node8" class="node">
<title>BB7</title>
<ellipse fill="none" stroke="black" cx="590.19" cy="-312.42" rx="103.48" ry="48.17"/>
<text text-anchor="middle" x="590.19" y="-331.22" font-family="Times New Roman,serif" font-size="14.00">[66..79)</text>
<text text-anchor="middle" x="590.19" y="-316.22" font-family="Times New Roman,serif" font-size="14.00">Count: 0</text>
<text text-anchor="middle" x="590.19" y="-301.22" font-family="Times New Roman,serif" font-size="14.00">Normalized count: 0.00</text>
<text text-anchor="middle" x="590.19" y="-286.22" font-family="Times New Roman,serif" font-size="14.00">Samples weight: 0.00</text>
</g>
<!-- BB9 -->
<g id="node10" class="node">
<title>BB9</title>
<ellipse fill="none" stroke="black" cx="590.19" cy="-180.25" rx="103.48" ry="48.17"/>
<text text-anchor="middle" x="590.19" y="-199.05" font-family="Times New Roman,serif" font-size="14.00">[8e..96)</text>
<text text-anchor="middle" x="590.19" y="-184.05" font-family="Times New Roman,serif" font-size="14.00">Count: 0</text>
<text text-anchor="middle" x="590.19" y="-169.05" font-family="Times New Roman,serif" font-size="14.00">Normalized count: 0.00</text>
<text text-anchor="middle" x="590.19" y="-154.05" font-family="Times New Roman,serif" font-size="14.00">Samples weight: 0.00</text>
</g>
<!-- BB7&#45;&gt;BB9 -->
<g id="edge10" class="edge">
<title>BB7&#45;&gt;BB9</title>
<path fill="none" stroke="black" d="M590.19,-264.05C590.19,-255.79 590.19,-247.1 590.19,-238.6"/>
<polygon fill="black" stroke="black" points="593.69,-238.36 590.19,-228.36 586.69,-238.36 593.69,-238.36"/>
</g>
<!-- BB8 -->
<g id="node9" class="node">
<title>BB8</title>
<ellipse fill="none" stroke="black" cx="590.19" cy="-48.08" rx="103.48" ry="48.17"/>
<text text-anchor="middle" x="590.19" y="-66.88" font-family="Times New Roman,serif" font-size="14.00">[79..8e)</text>
<text text-anchor="middle" x="590.19" y="-51.88" font-family="Times New Roman,serif" font-size="14.00">Count: 0</text>
<text text-anchor="middle" x="590.19" y="-36.88" font-family="Times New Roman,serif" font-size="14.00">Normalized count: 0.00</text>
<text text-anchor="middle" x="590.19" y="-21.88" font-family="Times New Roman,serif" font-size="14.00">Samples weight: 0.00</text>
</g>
<!-- BB8&#45;&gt;BB9 -->
<g id="edge11" class="edge">
<title>BB8&#45;&gt;BB9</title>
<path fill="none" stroke="black" d="M596.71,-96.44C596.93,-104.74 596.99,-113.45 596.89,-121.98"/>
<polygon fill="black" stroke="black" points="593.39,-122.19 596.7,-132.26 600.39,-122.32 593.39,-122.19"/>
</g>
<!-- BB9&#45;&gt;BB8 -->
<g id="edge12" class="edge">
<title>BB9&#45;&gt;BB8</title>
<path fill="none" stroke="black" d="M583.67,-132.26C583.45,-123.88 583.38,-115.07 583.48,-106.45"/>
<polygon fill="black" stroke="black" points="586.98,-106.51 583.66,-96.44 579.98,-106.38 586.98,-106.51"/>
</g>
<!-- BB10 -->
<g id="node11" class="node">
<title>BB10</title>
<ellipse fill="none" stroke="black" cx="366.19" cy="-48.08" rx="103.48" ry="48.17"/>
<text text-anchor="middle" x="366.19" y="-66.88" font-family="Times New Roman,serif" font-size="14.00">[96..9c)</text>
<text text-anchor="middle" x="366.19" y="-51.88" font-family="Times New Roman,serif" font-size="14.00">Count: 0</text>
<text text-anchor="middle" x="366.19" y="-36.88" font-family="Times New Roman,serif" font-size="14.00">Normalized count: 0.00</text>
<text text-anchor="middle" x="366.19" y="-21.88" font-family="Times New Roman,serif" font-size="14.00">Samples weight: 0.00</text>
</g>
<!-- BB9&#45;&gt;BB10 -->
<g id="edge13" class="edge">
<title>BB9&#45;&gt;BB10</title>
<path fill="none" stroke="black" d="M526.6,-142.3C499.17,-126.36 466.94,-107.63 438.6,-91.16"/>
<polygon fill="black" stroke="black" points="440.34,-88.13 429.94,-86.13 436.82,-94.18 440.34,-88.13"/>
</g>
<!-- BB10&#45;&gt;BB11 -->
<g id="edge14" class="edge">
<title>BB10&#45;&gt;BB11</title>
<path fill="none" stroke="black" d="M374.22,-96.15C387.13,-160.91 417.46,-278.75 478.19,-360.5 489.27,-375.42 503.78,-388.87 518.67,-400.38"/>
<polygon fill="black" stroke="black" points="516.85,-403.39 526.96,-406.57 521.04,-397.78 516.85,-403.39"/>
</g>
<!-- BB11&#45;&gt;BB7 -->
<g id="edge15" class="edge">
<title>BB11&#45;&gt;BB7</title>
<path fill="none" stroke="black" d="M590.19,-396.22C590.19,-387.95 590.19,-379.27 590.19,-370.77"/>
<polygon fill="black" stroke="black" points="593.69,-370.52 590.19,-360.52 586.69,-370.52 593.69,-370.52"/>
</g>
<!-- BB12 -->
<g id="node13" class="node">
<title>BB12</title>
<ellipse fill="none" stroke="black" cx="814.19" cy="-312.42" rx="103.48" ry="48.17"/>
<text text-anchor="middle" x="814.19" y="-331.22" font-family="Times New Roman,serif" font-size="14.00">[a2..b5)</text>
<text text-anchor="middle" x="814.19" y="-316.22" font-family="Times New Roman,serif" font-size="14.00">Count: 8</text>
<text text-anchor="middle" x="814.19" y="-301.22" font-family="Times New Roman,serif" font-size="14.00">Normalized count: 1.00</text>
<text text-anchor="middle" x="814.19" y="-286.22" font-family="Times New Roman,serif" font-size="14.00">Samples weight: 0.00</text>
</g>
<!-- BB11&#45;&gt;BB12 -->
<g id="edge16" class="edge">
<title>BB11&#45;&gt;BB12</title>
<path fill="none" stroke="black" d="M653.78,-406.63C681.21,-390.69 713.43,-371.97 741.78,-355.49"/>
<polygon fill="black" stroke="black" points="743.55,-358.51 750.44,-350.46 740.03,-352.46 743.55,-358.51"/>
</g>
<!-- BB14 -->
<g id="node15" class="node">
<title>BB14</title>
<ellipse fill="none" stroke="black" cx="814.19" cy="-180.25" rx="103.48" ry="48.17"/>
<text text-anchor="middle" x="814.19" y="-199.05" font-family="Times New Roman,serif" font-size="14.00">[ca..d3)</text>
<text text-anchor="middle" x="814.19" y="-184.05" font-family="Times New Roman,serif" font-size="14.00">Count: 8</text>
<text text-anchor="middle" x="814.19" y="-169.05" font-family="Times New Roman,serif" font-size="14.00">Normalized count: 1.00</text>
<text text-anchor="middle" x="814.19" y="-154.05" font-family="Times New Roman,serif" font-size="14.00">Samples weight: 0.00</text>
</g>
<!-- BB12&#45;&gt;BB14 -->
<g id="edge17" class="edge">
<title>BB12&#45;&gt;BB14</title>
<path fill="none" stroke="black" d="M814.19,-264.05C814.19,-255.79 814.19,-247.1 814.19,-238.6"/>
<polygon fill="black" stroke="black" points="817.69,-238.36 814.19,-228.36 810.69,-238.36 817.69,-238.36"/>
</g>
<!-- BB13 -->
<g id="node14" class="node">
<title>BB13</title>
<ellipse fill="none" stroke="black" cx="814.19" cy="-48.08" rx="103.48" ry="48.17"/>
<text text-anchor="middle" x="814.19" y="-66.88" font-family="Times New Roman,serif" font-size="14.00">[b5..ca)</text>
<text text-anchor="middle" x="814.19" y="-51.88" font-family="Times New Roman,serif" font-size="14.00">Count: 0</text>
<text text-anchor="middle" x="814.19" y="-36.88" font-family="Times New Roman,serif" font-size="14.00">Normalized count: 0.00</text>
<text text-anchor="middle" x="814.19" y="-21.88" font-family="Times New Roman,serif" font-size="14.00">Samples weight: 0.00</text>
</g>
<!-- BB13&#45;&gt;BB14 -->
<g id="edge18" class="edge">
<title>BB13&#45;&gt;BB14</title>
<path fill="none" stroke="black" d="M820.71,-96.44C820.93,-104.74 820.99,-113.45 820.89,-121.98"/>
<polygon fill="black" stroke="black" points="817.39,-122.19 820.7,-132.26 824.39,-122.32 817.39,-122.19"/>
</g>
<!-- BB14&#45;&gt;BB13 -->
<g id="edge19" class="edge">
<title>BB14&#45;&gt;BB13</title>
<path fill="none" stroke="black" d="M807.67,-132.26C807.45,-123.88 807.38,-115.07 807.48,-106.45"/>
<polygon fill="black" stroke="black" points="810.98,-106.51 807.66,-96.44 803.98,-106.38 810.98,-106.51"/>
</g>
<!-- BB15 -->
<g id="node16" class="node">
<title>BB15</title>
<ellipse fill="none" stroke="black" cx="1038.19" cy="-48.08" rx="103.48" ry="48.17"/>
<text text-anchor="middle" x="1038.19" y="-66.88" font-family="Times New Roman,serif" font-size="14.00">[d3..d5)</text>
<text text-anchor="middle" x="1038.19" y="-51.88" font-family="Times New Roman,serif" font-size="14.00">Count: 8</text>
<text text-anchor="middle" x="1038.19" y="-36.88" font-family="Times New Roman,serif" font-size="14.00">Normalized count: 1.00</text>
<text text-anchor="middle" x="1038.19" y="-21.88" font-family="Times New Roman,serif" font-size="14.00">Samples weight: 0.00</text>
</g>
<!-- BB14&#45;&gt;BB15 -->
<g id="edge20" class="edge">
<title>BB14&#45;&gt;BB15</title>
<path fill="none" stroke="black" d="M877.78,-142.3C905.21,-126.36 937.43,-107.63 965.78,-91.16"/>
<polygon fill="black" stroke="black" points="967.55,-94.18 974.44,-86.13 964.03,-88.13 967.55,-94.18"/>
</g>
</g>
</svg>
