<?xml version="1.0" encoding="UTF-8" standalone="no"?>
<!DOCTYPE svg PUBLIC "-//W3C//DTD SVG 1.1//EN"
 "http://www.w3.org/Graphics/SVG/1.1/DTD/svg11.dtd">
<!-- Generated by graphviz version 2.47.0 (20210316.0004)
 -->
<!-- Title: G Pages: 1 -->
<svg width="1360pt" height="1294pt"
 viewBox="0.00 0.00 1360.47 1293.67" xmlns="http://www.w3.org/2000/svg" xmlns:xlink="http://www.w3.org/1999/xlink">
<g id="graph0" class="graph" transform="scale(1 1) rotate(0) translate(4 1289.67)">
<title>G</title>
<polygon fill="white" stroke="transparent" points="-4,4 -4,-1289.67 1356.47,-1289.67 1356.47,4 -4,4"/>
<!-- BB0 -->
<g id="node1" class="node">
<title>BB0</title>
<ellipse fill="none" stroke="black" cx="782.23" cy="-1237.58" rx="103.48" ry="48.17"/>
<text text-anchor="middle" x="782.23" y="-1256.38" font-family="Times New Roman,serif" font-size="14.00">[0..12)</text>
<text text-anchor="middle" x="782.23" y="-1241.38" font-family="Times New Roman,serif" font-size="14.00">Count: 1</text>
<text text-anchor="middle" x="782.23" y="-1226.38" font-family="Times New Roman,serif" font-size="14.00">Normalized count: 1.00</text>
<text text-anchor="middle" x="782.23" y="-1211.38" font-family="Times New Roman,serif" font-size="14.00">Samples weight: 0.00</text>
</g>
<!-- BB1 -->
<g id="node2" class="node">
<title>BB1</title>
<ellipse fill="none" stroke="black" cx="670.23" cy="-1105.42" rx="103.48" ry="48.17"/>
<text text-anchor="middle" x="670.23" y="-1124.22" font-family="Times New Roman,serif" font-size="14.00">[12..32)</text>
<text text-anchor="middle" x="670.23" y="-1109.22" font-family="Times New Roman,serif" font-size="14.00">Count: 0</text>
<text text-anchor="middle" x="670.23" y="-1094.22" font-family="Times New Roman,serif" font-size="14.00">Normalized count: 0.00</text>
<text text-anchor="middle" x="670.23" y="-1079.22" font-family="Times New Roman,serif" font-size="14.00">Samples weight: 0.00</text>
</g>
<!-- BB0&#45;&gt;BB1 -->
<g id="edge2" class="edge">
<title>BB0&#45;&gt;BB1</title>
<path fill="none" stroke="black" d="M744.31,-1192.51C734.82,-1181.49 724.56,-1169.56 714.78,-1158.2"/>
<polygon fill="black" stroke="black" points="717.28,-1155.74 708.11,-1150.44 711.98,-1160.3 717.28,-1155.74"/>
</g>
<!-- BB2 -->
<g id="node3" class="node">
<title>BB2</title>
<ellipse fill="none" stroke="black" cx="894.23" cy="-1105.42" rx="103.48" ry="48.17"/>
<text text-anchor="middle" x="894.23" y="-1124.22" font-family="Times New Roman,serif" font-size="14.00">[32..39)</text>
<text text-anchor="middle" x="894.23" y="-1109.22" font-family="Times New Roman,serif" font-size="14.00">Count: 1</text>
<text text-anchor="middle" x="894.23" y="-1094.22" font-family="Times New Roman,serif" font-size="14.00">Normalized count: 1.00</text>
<text text-anchor="middle" x="894.23" y="-1079.22" font-family="Times New Roman,serif" font-size="14.00">Samples weight: 0.00</text>
</g>
<!-- BB0&#45;&gt;BB2 -->
<g id="edge1" class="edge">
<title>BB0&#45;&gt;BB2</title>
<path fill="none" stroke="black" d="M820.15,-1192.51C829.63,-1181.49 839.9,-1169.56 849.67,-1158.2"/>
<polygon fill="black" stroke="black" points="852.48,-1160.3 856.35,-1150.44 847.17,-1155.74 852.48,-1160.3"/>
</g>
<!-- BB1&#45;&gt;BB2 -->
<g id="edge3" class="edge">
<title>BB1&#45;&gt;BB2</title>
<path fill="none" stroke="black" d="M773.48,-1105.42C775.93,-1105.42 778.39,-1105.42 780.84,-1105.42"/>
<polygon fill="black" stroke="black" points="780.93,-1108.92 790.93,-1105.42 780.93,-1101.92 780.93,-1108.92"/>
</g>
<!-- BB15 -->
<g id="node16" class="node">
<title>BB15</title>
<ellipse fill="none" stroke="black" cx="894.23" cy="-973.25" rx="118.17" ry="48.17"/>
<text text-anchor="middle" x="894.23" y="-992.05" font-family="Times New Roman,serif" font-size="14.00">[12d..134)</text>
<text text-anchor="middle" x="894.23" y="-977.05" font-family="Times New Roman,serif" font-size="14.00">Count: 4001</text>
<text text-anchor="middle" x="894.23" y="-962.05" font-family="Times New Roman,serif" font-size="14.00">Normalized count: 4001.00</text>
<text text-anchor="middle" x="894.23" y="-947.05" font-family="Times New Roman,serif" font-size="14.00">Samples weight: 0.00</text>
</g>
<!-- BB2&#45;&gt;BB15 -->
<g id="edge4" class="edge">
<title>BB2&#45;&gt;BB15</title>
<path fill="none" stroke="black" d="M894.23,-1057.05C894.23,-1048.79 894.23,-1040.1 894.23,-1031.6"/>
<polygon fill="black" stroke="black" points="897.73,-1031.36 894.23,-1021.36 890.73,-1031.36 897.73,-1031.36"/>
</g>
<!-- BB3 -->
<g id="node4" class="node">
<title>BB3</title>
<ellipse fill="none" stroke="black" cx="739.23" cy="-841.08" rx="118.17" ry="48.17"/>
<text text-anchor="middle" x="739.23" y="-859.88" font-family="Times New Roman,serif" font-size="14.00">[39..62)</text>
<text text-anchor="middle" x="739.23" y="-844.88" font-family="Times New Roman,serif" font-size="14.00">Count: 4000</text>
<text text-anchor="middle" x="739.23" y="-829.88" font-family="Times New Roman,serif" font-size="14.00">Normalized count: 4000.00</text>
<text text-anchor="middle" x="739.23" y="-814.88" font-family="Times New Roman,serif" font-size="14.00">Samples weight: 0.00</text>
</g>
<!-- BB11 -->
<g id="node12" class="node">
<title>BB11</title>
<ellipse fill="none" stroke="black" cx="661.23" cy="-708.92" rx="137.36" ry="48.17"/>
<text text-anchor="middle" x="661.23" y="-727.72" font-family="Times New Roman,serif" font-size="14.00">[106..10e)</text>
<text text-anchor="middle" x="661.23" y="-712.72" font-family="Times New Roman,serif" font-size="14.00">Count: 16004000</text>
<text text-anchor="middle" x="661.23" y="-697.72" font-family="Times New Roman,serif" font-size="14.00">Normalized count: 16004000.00</text>
<text text-anchor="middle" x="661.23" y="-682.72" font-family="Times New Roman,serif" font-size="14.00">Samples weight: 0.02</text>
</g>
<!-- BB3&#45;&gt;BB11 -->
<g id="edge5" class="edge">
<title>BB3&#45;&gt;BB11</title>
<path fill="none" stroke="black" d="M711.73,-794.19C706.09,-784.78 700.09,-774.77 694.28,-765.07"/>
<polygon fill="black" stroke="black" points="697.15,-763.05 689.01,-756.27 691.14,-766.65 697.15,-763.05"/>
</g>
<!-- BB4 -->
<g id="node5" class="node">
<title>BB4</title>
<ellipse fill="none" stroke="black" cx="426.23" cy="-576.75" rx="137.36" ry="48.17"/>
<text text-anchor="middle" x="426.23" y="-595.55" font-family="Times New Roman,serif" font-size="14.00">[62..9d)</text>
<text text-anchor="middle" x="426.23" y="-580.55" font-family="Times New Roman,serif" font-size="14.00">Count: 16000000</text>
<text text-anchor="middle" x="426.23" y="-565.55" font-family="Times New Roman,serif" font-size="14.00">Normalized count: 16000000.00</text>
<text text-anchor="middle" x="426.23" y="-550.55" font-family="Times New Roman,serif" font-size="14.00">Samples weight: 0.02</text>
</g>
<!-- BB5 -->
<g id="node6" class="node">
<title>BB5</title>
<ellipse fill="none" stroke="black" cx="424.23" cy="-444.58" rx="141.34" ry="48.17"/>
<text text-anchor="middle" x="424.23" y="-463.38" font-family="Times New Roman,serif" font-size="14.00">[9d..cf)</text>
<text text-anchor="middle" x="424.23" y="-448.38" font-family="Times New Roman,serif" font-size="14.00">Count: 390512934</text>
<text text-anchor="middle" x="424.23" y="-433.38" font-family="Times New Roman,serif" font-size="14.00">Normalized count: 390512934.00</text>
<text text-anchor="middle" x="424.23" y="-418.38" font-family="Times New Roman,serif" font-size="14.00">Samples weight: 0.46</text>
</g>
<!-- BB4&#45;&gt;BB5 -->
<g id="edge6" class="edge">
<title>BB4&#45;&gt;BB5</title>
<path fill="none" stroke="black" d="M425.5,-528.39C425.37,-520.12 425.24,-511.44 425.11,-502.93"/>
<polygon fill="black" stroke="black" points="428.61,-502.64 424.95,-492.69 421.61,-502.74 428.61,-502.64"/>
</g>
<!-- BB6 -->
<g id="node7" class="node">
<title>BB6</title>
<ellipse fill="none" stroke="black" cx="132.23" cy="-312.42" rx="132.46" ry="48.17"/>
<text text-anchor="middle" x="132.23" y="-331.22" font-family="Times New Roman,serif" font-size="14.00">[cf..d7)</text>
<text text-anchor="middle" x="132.23" y="-316.22" font-family="Times New Roman,serif" font-size="14.00">Count: 9648959</text>
<text text-anchor="middle" x="132.23" y="-301.22" font-family="Times New Roman,serif" font-size="14.00">Normalized count: 9648959.00</text>
<text text-anchor="middle" x="132.23" y="-286.22" font-family="Times New Roman,serif" font-size="14.00">Samples weight: 0.01</text>
</g>
<!-- BB5&#45;&gt;BB6 -->
<g id="edge8" class="edge">
<title>BB5&#45;&gt;BB6</title>
<path fill="none" stroke="black" d="M339.77,-405.93C303.44,-389.74 260.88,-370.76 223.79,-354.23"/>
<polygon fill="black" stroke="black" points="225.04,-350.96 214.48,-350.08 222.19,-357.35 225.04,-350.96"/>
</g>
<!-- BB7 -->
<g id="node8" class="node">
<title>BB7</title>
<ellipse fill="none" stroke="black" cx="424.23" cy="-312.42" rx="141.34" ry="48.17"/>
<text text-anchor="middle" x="424.23" y="-331.22" font-family="Times New Roman,serif" font-size="14.00">[d7..e1)</text>
<text text-anchor="middle" x="424.23" y="-316.22" font-family="Times New Roman,serif" font-size="14.00">Count: 380863975</text>
<text text-anchor="middle" x="424.23" y="-301.22" font-family="Times New Roman,serif" font-size="14.00">Normalized count: 380863975.00</text>
<text text-anchor="middle" x="424.23" y="-286.22" font-family="Times New Roman,serif" font-size="14.00">Samples weight: 0.45</text>
</g>
<!-- BB5&#45;&gt;BB7 -->
<g id="edge7" class="edge">
<title>BB5&#45;&gt;BB7</title>
<path fill="none" stroke="black" d="M417.71,-396.22C417.49,-387.95 417.43,-379.27 417.52,-370.77"/>
<polygon fill="black" stroke="black" points="421.03,-370.59 417.71,-360.52 414.03,-370.46 421.03,-370.59"/>
</g>
<!-- BB8 -->
<g id="node9" class="node">
<title>BB8</title>
<ellipse fill="none" stroke="black" cx="365.23" cy="-180.25" rx="137.36" ry="48.17"/>
<text text-anchor="middle" x="365.23" y="-199.05" font-family="Times New Roman,serif" font-size="14.00">[e1..eb)</text>
<text text-anchor="middle" x="365.23" y="-184.05" font-family="Times New Roman,serif" font-size="14.00">Count: 16000000</text>
<text text-anchor="middle" x="365.23" y="-169.05" font-family="Times New Roman,serif" font-size="14.00">Normalized count: 16000000.00</text>
<text text-anchor="middle" x="365.23" y="-154.05" font-family="Times New Roman,serif" font-size="14.00">Samples weight: 0.02</text>
</g>
<!-- BB6&#45;&gt;BB8 -->
<g id="edge9" class="edge">
<title>BB6&#45;&gt;BB8</title>
<path fill="none" stroke="black" d="M203.4,-271.65C229.01,-257.35 258.09,-241.11 284.46,-226.37"/>
<polygon fill="black" stroke="black" points="286.26,-229.37 293.29,-221.44 282.85,-223.26 286.26,-229.37"/>
</g>
<!-- BB7&#45;&gt;BB5 -->
<g id="edge10" class="edge">
<title>BB7&#45;&gt;BB5</title>
<path fill="none" stroke="black" d="M430.74,-360.52C430.97,-368.78 431.03,-377.46 430.94,-385.97"/>
<polygon fill="black" stroke="black" points="427.44,-386.16 430.75,-396.22 434.43,-386.29 427.44,-386.16"/>
</g>
<!-- BB7&#45;&gt;BB8 -->
<g id="edge11" class="edge">
<title>BB7&#45;&gt;BB8</title>
<path fill="none" stroke="black" d="M403.1,-264.79C399.03,-255.82 394.73,-246.34 390.55,-237.1"/>
<polygon fill="black" stroke="black" points="393.73,-235.65 386.41,-227.99 387.35,-238.54 393.73,-235.65"/>
</g>
<!-- BB9 -->
<g id="node10" class="node">
<title>BB9</title>
<ellipse fill="none" stroke="black" cx="306.23" cy="-48.08" rx="132.46" ry="48.17"/>
<text text-anchor="middle" x="306.23" y="-66.88" font-family="Times New Roman,serif" font-size="14.00">[eb..100)</text>
<text text-anchor="middle" x="306.23" y="-51.88" font-family="Times New Roman,serif" font-size="14.00">Count: 2000000</text>
<text text-anchor="middle" x="306.23" y="-36.88" font-family="Times New Roman,serif" font-size="14.00">Normalized count: 2000000.00</text>
<text text-anchor="middle" x="306.23" y="-21.88" font-family="Times New Roman,serif" font-size="14.00">Samples weight: 0.00</text>
</g>
<!-- BB8&#45;&gt;BB9 -->
<g id="edge13" class="edge">
<title>BB8&#45;&gt;BB9</title>
<path fill="none" stroke="black" d="M344.1,-132.62C340.03,-123.65 335.73,-114.17 331.55,-104.94"/>
<polygon fill="black" stroke="black" points="334.73,-103.48 327.41,-95.82 328.35,-106.37 334.73,-103.48"/>
</g>
<!-- BB10 -->
<g id="node11" class="node">
<title>BB10</title>
<ellipse fill="none" stroke="black" cx="593.23" cy="-48.08" rx="137.36" ry="48.17"/>
<text text-anchor="middle" x="593.23" y="-66.88" font-family="Times New Roman,serif" font-size="14.00">[100..106)</text>
<text text-anchor="middle" x="593.23" y="-51.88" font-family="Times New Roman,serif" font-size="14.00">Count: 16000000</text>
<text text-anchor="middle" x="593.23" y="-36.88" font-family="Times New Roman,serif" font-size="14.00">Normalized count: 16000000.00</text>
<text text-anchor="middle" x="593.23" y="-21.88" font-family="Times New Roman,serif" font-size="14.00">Samples weight: 0.02</text>
</g>
<!-- BB8&#45;&gt;BB10 -->
<g id="edge12" class="edge">
<title>BB8&#45;&gt;BB10</title>
<path fill="none" stroke="black" d="M435.81,-138.96C460.49,-124.86 488.37,-108.95 513.73,-94.47"/>
<polygon fill="black" stroke="black" points="515.64,-97.41 522.59,-89.41 512.17,-91.33 515.64,-97.41"/>
</g>
<!-- BB9&#45;&gt;BB10 -->
<g id="edge14" class="edge">
<title>BB9&#45;&gt;BB10</title>
<path fill="none" stroke="black" d="M438.52,-48.08C440.98,-48.08 443.45,-48.08 445.91,-48.08"/>
<polygon fill="black" stroke="black" points="446.04,-51.58 456.04,-48.08 446.04,-44.58 446.04,-51.58"/>
</g>
<!-- BB10&#45;&gt;BB11 -->
<g id="edge15" class="edge">
<title>BB10&#45;&gt;BB11</title>
<path fill="none" stroke="black" d="M593.23,-96.47C593.23,-149.01 593.23,-236.27 593.23,-311.42 593.23,-445.58 593.23,-445.58 593.23,-445.58 593.23,-525.7 587.09,-548.77 612.23,-624.83 615.34,-634.25 619.64,-643.76 624.41,-652.82"/>
<polygon fill="black" stroke="black" points="621.41,-654.63 629.3,-661.7 627.54,-651.25 621.41,-654.63"/>
</g>
<!-- BB11&#45;&gt;BB4 -->
<g id="edge16" class="edge">
<title>BB11&#45;&gt;BB4</title>
<path fill="none" stroke="black" d="M589.12,-667.98C563.3,-653.68 534.03,-637.46 507.49,-622.76"/>
<polygon fill="black" stroke="black" points="509.05,-619.62 498.6,-617.84 505.65,-625.74 509.05,-619.62"/>
</g>
<!-- BB12 -->
<g id="node13" class="node">
<title>BB12</title>
<ellipse fill="none" stroke="black" cx="739.23" cy="-576.75" rx="118.17" ry="48.17"/>
<text text-anchor="middle" x="739.23" y="-595.55" font-family="Times New Roman,serif" font-size="14.00">[10e..112)</text>
<text text-anchor="middle" x="739.23" y="-580.55" font-family="Times New Roman,serif" font-size="14.00">Count: 4000</text>
<text text-anchor="middle" x="739.23" y="-565.55" font-family="Times New Roman,serif" font-size="14.00">Normalized count: 4000.00</text>
<text text-anchor="middle" x="739.23" y="-550.55" font-family="Times New Roman,serif" font-size="14.00">Samples weight: 0.00</text>
</g>
<!-- BB11&#45;&gt;BB12 -->
<g id="edge17" class="edge">
<title>BB11&#45;&gt;BB12</title>
<path fill="none" stroke="black" d="M688.95,-661.66C694.58,-652.26 700.56,-642.29 706.35,-632.62"/>
<polygon fill="black" stroke="black" points="709.46,-634.24 711.6,-623.86 703.46,-630.64 709.46,-634.24"/>
</g>
<!-- BB13 -->
<g id="node14" class="node">
<title>BB13</title>
<ellipse fill="none" stroke="black" cx="724.23" cy="-444.58" rx="103.48" ry="48.17"/>
<text text-anchor="middle" x="724.23" y="-463.38" font-family="Times New Roman,serif" font-size="14.00">[112..129)</text>
<text text-anchor="middle" x="724.23" y="-448.38" font-family="Times New Roman,serif" font-size="14.00">Count: 0</text>
<text text-anchor="middle" x="724.23" y="-433.38" font-family="Times New Roman,serif" font-size="14.00">Normalized count: 0.00</text>
<text text-anchor="middle" x="724.23" y="-418.38" font-family="Times New Roman,serif" font-size="14.00">Samples weight: 0.00</text>
</g>
<!-- BB12&#45;&gt;BB13 -->
<g id="edge19" class="edge">
<title>BB12&#45;&gt;BB13</title>
<path fill="none" stroke="black" d="M733.77,-528.39C732.81,-520.03 731.8,-511.25 730.81,-502.65"/>
<polygon fill="black" stroke="black" points="734.28,-502.22 729.66,-492.69 727.33,-503.03 734.28,-502.22"/>
</g>
<!-- BB14 -->
<g id="node15" class="node">
<title>BB14</title>
<ellipse fill="none" stroke="black" cx="963.23" cy="-444.58" rx="118.17" ry="48.17"/>
<text text-anchor="middle" x="963.23" y="-463.38" font-family="Times New Roman,serif" font-size="14.00">[129..12d)</text>
<text text-anchor="middle" x="963.23" y="-448.38" font-family="Times New Roman,serif" font-size="14.00">Count: 4000</text>
<text text-anchor="middle" x="963.23" y="-433.38" font-family="Times New Roman,serif" font-size="14.00">Normalized count: 4000.00</text>
<text text-anchor="middle" x="963.23" y="-418.38" font-family="Times New Roman,serif" font-size="14.00">Samples weight: 0.00</text>
</g>
<!-- BB12&#45;&gt;BB14 -->
<g id="edge18" class="edge">
<title>BB12&#45;&gt;BB14</title>
<path fill="none" stroke="black" d="M806.13,-536.87C831.73,-522 861.1,-504.93 887.47,-489.61"/>
<polygon fill="black" stroke="black" points="889.4,-492.54 896.28,-484.49 885.88,-486.48 889.4,-492.54"/>
</g>
<!-- BB13&#45;&gt;BB14 -->
<g id="edge20" class="edge">
<title>BB13&#45;&gt;BB14</title>
<path fill="none" stroke="black" d="M827.86,-444.58C830.19,-444.58 832.51,-444.58 834.84,-444.58"/>
<polygon fill="black" stroke="black" points="835.04,-448.08 845.04,-444.58 835.04,-441.08 835.04,-448.08"/>
</g>
<!-- BB14&#45;&gt;BB15 -->
<g id="edge21" class="edge">
<title>BB14&#45;&gt;BB15</title>
<path fill="none" stroke="black" d="M949.91,-492.6C938.21,-535.92 921.77,-602.18 913.23,-660.83 900.4,-748.93 896.21,-852.26 894.86,-914.96"/>
<polygon fill="black" stroke="black" points="891.36,-914.97 894.66,-925.04 898.36,-915.11 891.36,-914.97"/>
</g>
<!-- BB15&#45;&gt;BB3 -->
<g id="edge22" class="edge">
<title>BB15&#45;&gt;BB3</title>
<path fill="none" stroke="black" d="M843.48,-929.63C828.82,-917.32 812.7,-903.78 797.61,-891.11"/>
<polygon fill="black" stroke="black" points="799.74,-888.33 789.83,-884.58 795.24,-893.69 799.74,-888.33"/>
</g>
<!-- BB16 -->
<g id="node17" class="node">
<title>BB16</title>
<ellipse fill="none" stroke="black" cx="1025.23" cy="-841.08" rx="103.48" ry="48.17"/>
<text text-anchor="middle" x="1025.23" y="-859.88" font-family="Times New Roman,serif" font-size="14.00">[134..137)</text>
<text text-anchor="middle" x="1025.23" y="-844.88" font-family="Times New Roman,serif" font-size="14.00">Count: 1</text>
<text text-anchor="middle" x="1025.23" y="-829.88" font-family="Times New Roman,serif" font-size="14.00">Normalized count: 1.00</text>
<text text-anchor="middle" x="1025.23" y="-814.88" font-family="Times New Roman,serif" font-size="14.00">Samples weight: 0.00</text>
</g>
<!-- BB15&#45;&gt;BB16 -->
<g id="edge23" class="edge">
<title>BB15&#45;&gt;BB16</title>
<path fill="none" stroke="black" d="M938.21,-928.54C949.91,-916.92 962.63,-904.28 974.65,-892.34"/>
<polygon fill="black" stroke="black" points="977.4,-894.54 982.03,-885.01 972.47,-889.58 977.4,-894.54"/>
</g>
<!-- BB17 -->
<g id="node18" class="node">
<title>BB17</title>
<ellipse fill="none" stroke="black" cx="1025.23" cy="-708.92" rx="103.48" ry="48.17"/>
<text text-anchor="middle" x="1025.23" y="-727.72" font-family="Times New Roman,serif" font-size="14.00">[137..142)</text>
<text text-anchor="middle" x="1025.23" y="-712.72" font-family="Times New Roman,serif" font-size="14.00">Count: 0</text>
<text text-anchor="middle" x="1025.23" y="-697.72" font-family="Times New Roman,serif" font-size="14.00">Normalized count: 0.00</text>
<text text-anchor="middle" x="1025.23" y="-682.72" font-family="Times New Roman,serif" font-size="14.00">Samples weight: 0.00</text>
</g>
<!-- BB16&#45;&gt;BB17 -->
<g id="edge25" class="edge">
<title>BB16&#45;&gt;BB17</title>
<path fill="none" stroke="black" d="M1025.23,-792.72C1025.23,-784.45 1025.23,-775.77 1025.23,-767.27"/>
<polygon fill="black" stroke="black" points="1028.73,-767.02 1025.23,-757.02 1021.73,-767.02 1028.73,-767.02"/>
</g>
<!-- BB18 -->
<g id="node19" class="node">
<title>BB18</title>
<ellipse fill="none" stroke="black" cx="1249.23" cy="-708.92" rx="103.48" ry="48.17"/>
<text text-anchor="middle" x="1249.23" y="-727.72" font-family="Times New Roman,serif" font-size="14.00">[142..143)</text>
<text text-anchor="middle" x="1249.23" y="-712.72" font-family="Times New Roman,serif" font-size="14.00">Count: 1</text>
<text text-anchor="middle" x="1249.23" y="-697.72" font-family="Times New Roman,serif" font-size="14.00">Normalized count: 1.00</text>
<text text-anchor="middle" x="1249.23" y="-682.72" font-family="Times New Roman,serif" font-size="14.00">Samples weight: 0.00</text>
</g>
<!-- BB16&#45;&gt;BB18 -->
<g id="edge24" class="edge">
<title>BB16&#45;&gt;BB18</title>
<path fill="none" stroke="black" d="M1088.82,-803.13C1116.25,-787.19 1148.47,-768.46 1176.82,-751.99"/>
<polygon fill="black" stroke="black" points="1178.59,-755.01 1185.48,-746.96 1175.08,-748.96 1178.59,-755.01"/>
</g>
<!-- BB17&#45;&gt;BB18 -->
<g id="edge26" class="edge">
<title>BB17&#45;&gt;BB18</title>
<path fill="none" stroke="black" d="M1128.48,-708.92C1130.93,-708.92 1133.39,-708.92 1135.84,-708.92"/>
<polygon fill="black" stroke="black" points="1135.93,-712.42 1145.93,-708.92 1135.93,-705.42 1135.93,-712.42"/>
</g>
</g>
</svg>
