<?xml version="1.0" encoding="UTF-8" standalone="no"?>
<!DOCTYPE svg PUBLIC "-//W3C//DTD SVG 1.1//EN"
 "http://www.w3.org/Graphics/SVG/1.1/DTD/svg11.dtd">
<!-- Generated by graphviz version 2.47.0 (20210316.0004)
 -->
<!-- Title: G Pages: 1 -->
<svg width="1582pt" height="1192pt"
 viewBox="0.00 0.00 1582.45 1192.49" xmlns="http://www.w3.org/2000/svg" xmlns:xlink="http://www.w3.org/1999/xlink">
<g id="graph0" class="graph" transform="scale(1 1) rotate(0) translate(4 1188.49)">
<title>G</title>
<polygon fill="white" stroke="transparent" points="-4,4 -4,-1188.49 1578.45,-1188.49 1578.45,4 -4,4"/>
<!-- BB0 -->
<g id="node1" class="node">
<title>BB0</title>
<ellipse fill="none" stroke="black" cx="157" cy="-1147.01" rx="105.22" ry="37.45"/>
<text text-anchor="middle" x="157" y="-1158.31" font-family="Times New Roman,serif" font-size="14.00">[0..18)</text>
<text text-anchor="middle" x="157" y="-1143.31" font-family="Times New Roman,serif" font-size="14.00">Normalized Count: 1.00</text>
<text text-anchor="middle" x="157" y="-1128.31" font-family="Times New Roman,serif" font-size="14.00">Samples weight: 0.00</text>
</g>
<!-- BB2 -->
<g id="node3" class="node">
<title>BB2</title>
<ellipse fill="none" stroke="black" cx="157" cy="-1036.06" rx="105.22" ry="37.45"/>
<text text-anchor="middle" x="157" y="-1047.36" font-family="Times New Roman,serif" font-size="14.00">[2b..39)</text>
<text text-anchor="middle" x="157" y="-1032.36" font-family="Times New Roman,serif" font-size="14.00">Normalized Count: 1.00</text>
<text text-anchor="middle" x="157" y="-1017.36" font-family="Times New Roman,serif" font-size="14.00">Samples weight: 0.00</text>
</g>
<!-- BB0&#45;&gt;BB2 -->
<g id="edge1" class="edge">
<title>BB0&#45;&gt;BB2</title>
<path fill="none" stroke="black" d="M157,-1109.43C157,-1101.25 157,-1092.47 157,-1083.95"/>
<polygon fill="black" stroke="black" points="160.5,-1083.73 157,-1073.73 153.5,-1083.73 160.5,-1083.73"/>
</g>
<!-- BB1 -->
<g id="node2" class="node">
<title>BB1</title>
<ellipse fill="none" stroke="black" cx="157" cy="-925.1" rx="105.22" ry="37.45"/>
<text text-anchor="middle" x="157" y="-936.4" font-family="Times New Roman,serif" font-size="14.00">[18..2b)</text>
<text text-anchor="middle" x="157" y="-921.4" font-family="Times New Roman,serif" font-size="14.00">Normalized Count: 0.00</text>
<text text-anchor="middle" x="157" y="-906.4" font-family="Times New Roman,serif" font-size="14.00">Samples weight: 0.00</text>
</g>
<!-- BB1&#45;&gt;BB2 -->
<g id="edge2" class="edge">
<title>BB1&#45;&gt;BB2</title>
<path fill="none" stroke="black" d="M163.42,-962.78C163.73,-970.95 163.82,-979.74 163.69,-988.26"/>
<polygon fill="black" stroke="black" points="160.19,-988.38 163.42,-998.47 167.18,-988.57 160.19,-988.38"/>
</g>
<!-- BB2&#45;&gt;BB1 -->
<g id="edge3" class="edge">
<title>BB2&#45;&gt;BB1</title>
<path fill="none" stroke="black" d="M150.58,-998.47C150.27,-990.3 150.18,-981.52 150.31,-972.99"/>
<polygon fill="black" stroke="black" points="153.81,-972.86 150.58,-962.78 146.82,-972.68 153.81,-972.86"/>
</g>
<!-- BB3 -->
<g id="node4" class="node">
<title>BB3</title>
<ellipse fill="none" stroke="black" cx="386" cy="-925.1" rx="105.22" ry="37.45"/>
<text text-anchor="middle" x="386" y="-936.4" font-family="Times New Roman,serif" font-size="14.00">[39..56)</text>
<text text-anchor="middle" x="386" y="-921.4" font-family="Times New Roman,serif" font-size="14.00">Normalized Count: 1.00</text>
<text text-anchor="middle" x="386" y="-906.4" font-family="Times New Roman,serif" font-size="14.00">Samples weight: 0.00</text>
</g>
<!-- BB2&#45;&gt;BB3 -->
<g id="edge4" class="edge">
<title>BB2&#45;&gt;BB3</title>
<path fill="none" stroke="black" d="M218.97,-1005.57C248.5,-991.52 283.98,-974.64 314.63,-960.06"/>
<polygon fill="black" stroke="black" points="316.45,-963.07 323.98,-955.61 313.45,-956.75 316.45,-963.07"/>
</g>
<!-- BB4 -->
<g id="node5" class="node">
<title>BB4</title>
<ellipse fill="none" stroke="black" cx="272" cy="-814.15" rx="105.22" ry="37.45"/>
<text text-anchor="middle" x="272" y="-825.45" font-family="Times New Roman,serif" font-size="14.00">[56..6c)</text>
<text text-anchor="middle" x="272" y="-810.45" font-family="Times New Roman,serif" font-size="14.00">Normalized Count: 0.00</text>
<text text-anchor="middle" x="272" y="-795.45" font-family="Times New Roman,serif" font-size="14.00">Samples weight: 0.00</text>
</g>
<!-- BB3&#45;&gt;BB4 -->
<g id="edge6" class="edge">
<title>BB3&#45;&gt;BB4</title>
<path fill="none" stroke="black" d="M349.93,-889.63C338.91,-879.09 326.67,-867.4 315.22,-856.46"/>
<polygon fill="black" stroke="black" points="317.48,-853.78 307.84,-849.4 312.65,-858.84 317.48,-853.78"/>
</g>
<!-- BB5 -->
<g id="node6" class="node">
<title>BB5</title>
<ellipse fill="none" stroke="black" cx="501" cy="-814.15" rx="105.22" ry="37.45"/>
<text text-anchor="middle" x="501" y="-825.45" font-family="Times New Roman,serif" font-size="14.00">[6c..7a)</text>
<text text-anchor="middle" x="501" y="-810.45" font-family="Times New Roman,serif" font-size="14.00">Normalized Count: 1.00</text>
<text text-anchor="middle" x="501" y="-795.45" font-family="Times New Roman,serif" font-size="14.00">Samples weight: 0.00</text>
</g>
<!-- BB3&#45;&gt;BB5 -->
<g id="edge5" class="edge">
<title>BB3&#45;&gt;BB5</title>
<path fill="none" stroke="black" d="M422.39,-889.63C433.51,-879.09 445.85,-867.4 457.4,-856.46"/>
<polygon fill="black" stroke="black" points="460,-858.82 464.85,-849.4 455.18,-853.74 460,-858.82"/>
</g>
<!-- BB4&#45;&gt;BB5 -->
<g id="edge7" class="edge">
<title>BB4&#45;&gt;BB5</title>
<path fill="none" stroke="black" d="M377.55,-814.15C380.16,-814.15 382.76,-814.15 385.36,-814.15"/>
<polygon fill="black" stroke="black" points="385.4,-817.65 395.4,-814.15 385.4,-810.65 385.4,-817.65"/>
</g>
<!-- BB6 -->
<g id="node7" class="node">
<title>BB6</title>
<ellipse fill="none" stroke="black" cx="501" cy="-703.2" rx="124.4" ry="37.45"/>
<text text-anchor="middle" x="501" y="-714.5" font-family="Times New Roman,serif" font-size="14.00">[7a..85)</text>
<text text-anchor="middle" x="501" y="-699.5" font-family="Times New Roman,serif" font-size="14.00">Normalized Count: 21154.67</text>
<text text-anchor="middle" x="501" y="-684.5" font-family="Times New Roman,serif" font-size="14.00">Samples weight: 0.14</text>
</g>
<!-- BB5&#45;&gt;BB6 -->
<g id="edge8" class="edge">
<title>BB5&#45;&gt;BB6</title>
<path fill="none" stroke="black" d="M501,-776.57C501,-768.39 501,-759.61 501,-751.09"/>
<polygon fill="black" stroke="black" points="504.5,-750.87 501,-740.87 497.5,-750.87 504.5,-750.87"/>
</g>
<!-- BB7 -->
<g id="node8" class="node">
<title>BB7</title>
<ellipse fill="none" stroke="black" cx="372" cy="-592.24" rx="115.02" ry="37.45"/>
<text text-anchor="middle" x="372" y="-603.54" font-family="Times New Roman,serif" font-size="14.00">[85..8f)</text>
<text text-anchor="middle" x="372" y="-588.54" font-family="Times New Roman,serif" font-size="14.00">Normalized Count: 669.00</text>
<text text-anchor="middle" x="372" y="-573.54" font-family="Times New Roman,serif" font-size="14.00">Samples weight: 0.00</text>
</g>
<!-- BB6&#45;&gt;BB7 -->
<g id="edge10" class="edge">
<title>BB6&#45;&gt;BB7</title>
<path fill="none" stroke="black" d="M460.18,-667.72C447.59,-657.09 433.6,-645.27 420.54,-634.24"/>
<polygon fill="black" stroke="black" points="422.45,-631.27 412.55,-627.49 417.93,-636.62 422.45,-631.27"/>
</g>
<!-- BB12 -->
<g id="node13" class="node">
<title>BB12</title>
<ellipse fill="none" stroke="black" cx="644" cy="-592.24" rx="124.4" ry="37.45"/>
<text text-anchor="middle" x="644" y="-603.54" font-family="Times New Roman,serif" font-size="14.00">[b3..c0)</text>
<text text-anchor="middle" x="644" y="-588.54" font-family="Times New Roman,serif" font-size="14.00">Normalized Count: 21126.00</text>
<text text-anchor="middle" x="644" y="-573.54" font-family="Times New Roman,serif" font-size="14.00">Samples weight: 0.14</text>
</g>
<!-- BB6&#45;&gt;BB12 -->
<g id="edge9" class="edge">
<title>BB6&#45;&gt;BB12</title>
<path fill="none" stroke="black" d="M545.85,-668.02C560.23,-657.07 576.28,-644.84 591.17,-633.49"/>
<polygon fill="black" stroke="black" points="593.47,-636.14 599.31,-627.3 589.23,-630.57 593.47,-636.14"/>
</g>
<!-- BB8 -->
<g id="node9" class="node">
<title>BB8</title>
<ellipse fill="none" stroke="black" cx="133" cy="-481.29" rx="105.22" ry="37.45"/>
<text text-anchor="middle" x="133" y="-492.59" font-family="Times New Roman,serif" font-size="14.00">[8f..a2)</text>
<text text-anchor="middle" x="133" y="-477.59" font-family="Times New Roman,serif" font-size="14.00">Normalized Count: 0.00</text>
<text text-anchor="middle" x="133" y="-462.59" font-family="Times New Roman,serif" font-size="14.00">Samples weight: 0.00</text>
</g>
<!-- BB7&#45;&gt;BB8 -->
<g id="edge12" class="edge">
<title>BB7&#45;&gt;BB8</title>
<path fill="none" stroke="black" d="M306.38,-561.33C275.31,-547.16 238.1,-530.2 206.13,-515.63"/>
<polygon fill="black" stroke="black" points="207.38,-512.35 196.83,-511.39 204.47,-518.72 207.38,-512.35"/>
</g>
<!-- BB9 -->
<g id="node10" class="node">
<title>BB9</title>
<ellipse fill="none" stroke="black" cx="372" cy="-481.29" rx="115.02" ry="37.45"/>
<text text-anchor="middle" x="372" y="-492.59" font-family="Times New Roman,serif" font-size="14.00">[a2..a7)</text>
<text text-anchor="middle" x="372" y="-477.59" font-family="Times New Roman,serif" font-size="14.00">Normalized Count: 670.00</text>
<text text-anchor="middle" x="372" y="-462.59" font-family="Times New Roman,serif" font-size="14.00">Samples weight: 0.00</text>
</g>
<!-- BB7&#45;&gt;BB9 -->
<g id="edge11" class="edge">
<title>BB7&#45;&gt;BB9</title>
<path fill="none" stroke="black" d="M372,-554.66C372,-546.49 372,-537.71 372,-529.18"/>
<polygon fill="black" stroke="black" points="375.5,-528.96 372,-518.96 368.5,-528.96 375.5,-528.96"/>
</g>
<!-- BB8&#45;&gt;BB9 -->
<g id="edge13" class="edge">
<title>BB8&#45;&gt;BB9</title>
<path fill="none" stroke="black" d="M238.5,-481.29C241.12,-481.29 243.74,-481.29 246.37,-481.29"/>
<polygon fill="black" stroke="black" points="246.49,-484.79 256.49,-481.29 246.49,-477.79 246.49,-484.79"/>
</g>
<!-- BB10 -->
<g id="node11" class="node">
<title>BB10</title>
<ellipse fill="none" stroke="black" cx="133" cy="-370.34" rx="105.22" ry="37.45"/>
<text text-anchor="middle" x="133" y="-381.64" font-family="Times New Roman,serif" font-size="14.00">[a7..ae)</text>
<text text-anchor="middle" x="133" y="-366.64" font-family="Times New Roman,serif" font-size="14.00">Normalized Count: 0.00</text>
<text text-anchor="middle" x="133" y="-351.64" font-family="Times New Roman,serif" font-size="14.00">Samples weight: 0.00</text>
</g>
<!-- BB9&#45;&gt;BB10 -->
<g id="edge15" class="edge">
<title>BB9&#45;&gt;BB10</title>
<path fill="none" stroke="black" d="M306.38,-450.37C275.31,-436.21 238.1,-419.25 206.13,-404.67"/>
<polygon fill="black" stroke="black" points="207.38,-401.4 196.83,-400.43 204.47,-407.77 207.38,-401.4"/>
</g>
<!-- BB11 -->
<g id="node12" class="node">
<title>BB11</title>
<ellipse fill="none" stroke="black" cx="372" cy="-370.34" rx="115.02" ry="37.45"/>
<text text-anchor="middle" x="372" y="-381.64" font-family="Times New Roman,serif" font-size="14.00">[ae..b3)</text>
<text text-anchor="middle" x="372" y="-366.64" font-family="Times New Roman,serif" font-size="14.00">Normalized Count: 669.67</text>
<text text-anchor="middle" x="372" y="-351.64" font-family="Times New Roman,serif" font-size="14.00">Samples weight: 0.00</text>
</g>
<!-- BB9&#45;&gt;BB11 -->
<g id="edge14" class="edge">
<title>BB9&#45;&gt;BB11</title>
<path fill="none" stroke="black" d="M372,-443.71C372,-435.53 372,-426.75 372,-418.23"/>
<polygon fill="black" stroke="black" points="375.5,-418.01 372,-408.01 368.5,-418.01 375.5,-418.01"/>
</g>
<!-- BB10&#45;&gt;BB11 -->
<g id="edge17" class="edge">
<title>BB10&#45;&gt;BB11</title>
<path fill="none" stroke="black" d="M238.5,-370.34C241.12,-370.34 243.74,-370.34 246.37,-370.34"/>
<polygon fill="black" stroke="black" points="246.49,-373.84 256.49,-370.34 246.49,-366.84 246.49,-373.84"/>
</g>
<!-- BB25 -->
<g id="node26" class="node">
<title>BB25</title>
<ellipse fill="none" stroke="black" cx="329" cy="-259.38" rx="105.22" ry="37.45"/>
<text text-anchor="middle" x="329" y="-270.68" font-family="Times New Roman,serif" font-size="14.00">[160..165)</text>
<text text-anchor="middle" x="329" y="-255.68" font-family="Times New Roman,serif" font-size="14.00">Normalized Count: 1.00</text>
<text text-anchor="middle" x="329" y="-240.68" font-family="Times New Roman,serif" font-size="14.00">Samples weight: 0.00</text>
</g>
<!-- BB10&#45;&gt;BB25 -->
<g id="edge16" class="edge">
<title>BB10&#45;&gt;BB25</title>
<path fill="none" stroke="black" d="M188.64,-338.41C212.23,-325.29 239.87,-309.93 264.35,-296.32"/>
<polygon fill="black" stroke="black" points="266.18,-299.31 273.22,-291.39 262.78,-293.19 266.18,-299.31"/>
</g>
<!-- BB11&#45;&gt;BB12 -->
<g id="edge18" class="edge">
<title>BB11&#45;&gt;BB12</title>
<path fill="none" stroke="black" d="M438.49,-401C458.72,-412.3 479.84,-426.66 496,-443.81 521.61,-471 509.13,-490.9 534,-518.77 545.71,-531.89 560.31,-543.67 575.01,-553.73"/>
<polygon fill="black" stroke="black" points="573.39,-556.85 583.66,-559.45 577.25,-551.01 573.39,-556.85"/>
</g>
<!-- BB13 -->
<g id="node14" class="node">
<title>BB13</title>
<ellipse fill="none" stroke="black" cx="658" cy="-481.29" rx="115.02" ry="37.45"/>
<text text-anchor="middle" x="658" y="-492.59" font-family="Times New Roman,serif" font-size="14.00">[c0..ca)</text>
<text text-anchor="middle" x="658" y="-477.59" font-family="Times New Roman,serif" font-size="14.00">Normalized Count: 665.00</text>
<text text-anchor="middle" x="658" y="-462.59" font-family="Times New Roman,serif" font-size="14.00">Samples weight: 0.00</text>
</g>
<!-- BB12&#45;&gt;BB13 -->
<g id="edge20" class="edge">
<title>BB12&#45;&gt;BB13</title>
<path fill="none" stroke="black" d="M648.7,-554.66C649.76,-546.4 650.9,-537.51 652.01,-528.9"/>
<polygon fill="black" stroke="black" points="655.48,-529.33 653.29,-518.96 648.54,-528.43 655.48,-529.33"/>
</g>
<!-- BB18 -->
<g id="node19" class="node">
<title>BB18</title>
<ellipse fill="none" stroke="black" cx="1059" cy="-481.29" rx="124.4" ry="37.45"/>
<text text-anchor="middle" x="1059" y="-492.59" font-family="Times New Roman,serif" font-size="14.00">[f4..116)</text>
<text text-anchor="middle" x="1059" y="-477.59" font-family="Times New Roman,serif" font-size="14.00">Normalized Count: 21122.67</text>
<text text-anchor="middle" x="1059" y="-462.59" font-family="Times New Roman,serif" font-size="14.00">Samples weight: 0.14</text>
</g>
<!-- BB12&#45;&gt;BB18 -->
<g id="edge19" class="edge">
<title>BB12&#45;&gt;BB18</title>
<path fill="none" stroke="black" d="M736.36,-567C801.69,-549.84 889.31,-526.84 956.75,-509.13"/>
<polygon fill="black" stroke="black" points="957.77,-512.49 966.55,-506.56 955.99,-505.72 957.77,-512.49"/>
</g>
<!-- BB14 -->
<g id="node15" class="node">
<title>BB14</title>
<ellipse fill="none" stroke="black" cx="611" cy="-370.34" rx="105.22" ry="37.45"/>
<text text-anchor="middle" x="611" y="-381.64" font-family="Times New Roman,serif" font-size="14.00">[ca..e4)</text>
<text text-anchor="middle" x="611" y="-366.64" font-family="Times New Roman,serif" font-size="14.00">Normalized Count: 0.00</text>
<text text-anchor="middle" x="611" y="-351.64" font-family="Times New Roman,serif" font-size="14.00">Samples weight: 0.00</text>
</g>
<!-- BB13&#45;&gt;BB14 -->
<g id="edge22" class="edge">
<title>BB13&#45;&gt;BB14</title>
<path fill="none" stroke="black" d="M642.35,-444.01C638.58,-435.28 634.51,-425.85 630.59,-416.76"/>
<polygon fill="black" stroke="black" points="633.76,-415.25 626.58,-407.46 627.33,-418.03 633.76,-415.25"/>
</g>
<!-- BB15 -->
<g id="node16" class="node">
<title>BB15</title>
<ellipse fill="none" stroke="black" cx="850" cy="-370.34" rx="115.02" ry="37.45"/>
<text text-anchor="middle" x="850" y="-381.64" font-family="Times New Roman,serif" font-size="14.00">[e4..e9)</text>
<text text-anchor="middle" x="850" y="-366.64" font-family="Times New Roman,serif" font-size="14.00">Normalized Count: 660.00</text>
<text text-anchor="middle" x="850" y="-351.64" font-family="Times New Roman,serif" font-size="14.00">Samples weight: 0.00</text>
</g>
<!-- BB13&#45;&gt;BB15 -->
<g id="edge21" class="edge">
<title>BB13&#45;&gt;BB15</title>
<path fill="none" stroke="black" d="M714.05,-448.48C736.33,-435.84 762.1,-421.21 785.18,-408.12"/>
<polygon fill="black" stroke="black" points="786.91,-411.16 793.88,-403.18 783.46,-405.07 786.91,-411.16"/>
</g>
<!-- BB14&#45;&gt;BB15 -->
<g id="edge23" class="edge">
<title>BB14&#45;&gt;BB15</title>
<path fill="none" stroke="black" d="M716.5,-370.34C719.12,-370.34 721.74,-370.34 724.37,-370.34"/>
<polygon fill="black" stroke="black" points="724.49,-373.84 734.49,-370.34 724.49,-366.84 724.49,-373.84"/>
</g>
<!-- BB16 -->
<g id="node17" class="node">
<title>BB16</title>
<ellipse fill="none" stroke="black" cx="667" cy="-259.38" rx="105.22" ry="37.45"/>
<text text-anchor="middle" x="667" y="-270.68" font-family="Times New Roman,serif" font-size="14.00">[e9..ed)</text>
<text text-anchor="middle" x="667" y="-255.68" font-family="Times New Roman,serif" font-size="14.00">Normalized Count: 0.00</text>
<text text-anchor="middle" x="667" y="-240.68" font-family="Times New Roman,serif" font-size="14.00">Samples weight: 0.00</text>
</g>
<!-- BB15&#45;&gt;BB16 -->
<g id="edge25" class="edge">
<title>BB15&#45;&gt;BB16</title>
<path fill="none" stroke="black" d="M795.59,-336.94C774.57,-324.43 750.41,-310.04 728.74,-297.14"/>
<polygon fill="black" stroke="black" points="730.32,-294.01 719.94,-291.9 726.74,-300.03 730.32,-294.01"/>
</g>
<!-- BB17 -->
<g id="node18" class="node">
<title>BB17</title>
<ellipse fill="none" stroke="black" cx="906" cy="-259.38" rx="115.02" ry="37.45"/>
<text text-anchor="middle" x="906" y="-270.68" font-family="Times New Roman,serif" font-size="14.00">[ed..f4)</text>
<text text-anchor="middle" x="906" y="-255.68" font-family="Times New Roman,serif" font-size="14.00">Normalized Count: 661.00</text>
<text text-anchor="middle" x="906" y="-240.68" font-family="Times New Roman,serif" font-size="14.00">Samples weight: 0.00</text>
</g>
<!-- BB15&#45;&gt;BB17 -->
<g id="edge24" class="edge">
<title>BB15&#45;&gt;BB17</title>
<path fill="none" stroke="black" d="M868.65,-333.06C873.18,-324.24 878.08,-314.7 882.8,-305.52"/>
<polygon fill="black" stroke="black" points="885.98,-307 887.43,-296.5 879.75,-303.8 885.98,-307"/>
</g>
<!-- BB16&#45;&gt;BB17 -->
<g id="edge27" class="edge">
<title>BB16&#45;&gt;BB17</title>
<path fill="none" stroke="black" d="M772.5,-259.38C775.12,-259.38 777.74,-259.38 780.37,-259.38"/>
<polygon fill="black" stroke="black" points="780.49,-262.88 790.49,-259.38 780.49,-255.88 780.49,-262.88"/>
</g>
<!-- BB16&#45;&gt;BB25 -->
<g id="edge26" class="edge">
<title>BB16&#45;&gt;BB25</title>
<path fill="none" stroke="black" d="M561.25,-259.38C522.5,-259.38 483.76,-259.38 445.01,-259.38"/>
<polygon fill="black" stroke="black" points="444.63,-255.88 434.62,-259.38 444.62,-262.88 444.63,-255.88"/>
</g>
<!-- BB17&#45;&gt;BB18 -->
<g id="edge28" class="edge">
<title>BB17&#45;&gt;BB18</title>
<path fill="none" stroke="black" d="M942.4,-295.13C953.3,-306.56 964.79,-319.72 974,-332.86 995.44,-363.44 993.37,-375.44 1012,-407.81 1017.27,-416.97 1023.2,-426.58 1029.03,-435.7"/>
<polygon fill="black" stroke="black" points="1026.2,-437.76 1034.56,-444.26 1032.08,-433.96 1026.2,-437.76"/>
</g>
<!-- BB19 -->
<g id="node20" class="node">
<title>BB19</title>
<ellipse fill="none" stroke="black" cx="1126" cy="-370.34" rx="105.22" ry="37.45"/>
<text text-anchor="middle" x="1126" y="-381.64" font-family="Times New Roman,serif" font-size="14.00">[116..129)</text>
<text text-anchor="middle" x="1126" y="-366.64" font-family="Times New Roman,serif" font-size="14.00">Normalized Count: 0.00</text>
<text text-anchor="middle" x="1126" y="-351.64" font-family="Times New Roman,serif" font-size="14.00">Samples weight: 0.00</text>
</g>
<!-- BB18&#45;&gt;BB19 -->
<g id="edge30" class="edge">
<title>BB18&#45;&gt;BB19</title>
<path fill="none" stroke="black" d="M1081.12,-444.31C1086.73,-435.2 1092.81,-425.31 1098.64,-415.83"/>
<polygon fill="black" stroke="black" points="1101.64,-417.63 1103.9,-407.28 1095.68,-413.96 1101.64,-417.63"/>
</g>
<!-- BB20 -->
<g id="node21" class="node">
<title>BB20</title>
<ellipse fill="none" stroke="black" cx="1374" cy="-370.34" rx="124.4" ry="37.45"/>
<text text-anchor="middle" x="1374" y="-381.64" font-family="Times New Roman,serif" font-size="14.00">[129..133)</text>
<text text-anchor="middle" x="1374" y="-366.64" font-family="Times New Roman,serif" font-size="14.00">Normalized Count: 21173.67</text>
<text text-anchor="middle" x="1374" y="-351.64" font-family="Times New Roman,serif" font-size="14.00">Samples weight: 0.14</text>
</g>
<!-- BB18&#45;&gt;BB20 -->
<g id="edge29" class="edge">
<title>BB18&#45;&gt;BB20</title>
<path fill="none" stroke="black" d="M1139.3,-452.51C1183.55,-437.21 1238.59,-418.17 1284.25,-402.38"/>
<polygon fill="black" stroke="black" points="1285.54,-405.64 1293.84,-399.06 1283.25,-399.02 1285.54,-405.64"/>
</g>
<!-- BB19&#45;&gt;BB20 -->
<g id="edge31" class="edge">
<title>BB19&#45;&gt;BB20</title>
<path fill="none" stroke="black" d="M1231.59,-370.34C1234.19,-370.34 1236.79,-370.34 1239.38,-370.34"/>
<polygon fill="black" stroke="black" points="1239.39,-373.84 1249.39,-370.34 1239.39,-366.84 1239.39,-373.84"/>
</g>
<!-- BB21 -->
<g id="node22" class="node">
<title>BB21</title>
<ellipse fill="none" stroke="black" cx="1202" cy="-259.38" rx="105.22" ry="37.45"/>
<text text-anchor="middle" x="1202" y="-270.68" font-family="Times New Roman,serif" font-size="14.00">[133..14d)</text>
<text text-anchor="middle" x="1202" y="-255.68" font-family="Times New Roman,serif" font-size="14.00">Normalized Count: 0.00</text>
<text text-anchor="middle" x="1202" y="-240.68" font-family="Times New Roman,serif" font-size="14.00">Samples weight: 0.00</text>
</g>
<!-- BB20&#45;&gt;BB21 -->
<g id="edge33" class="edge">
<title>BB20&#45;&gt;BB21</title>
<path fill="none" stroke="black" d="M1321.46,-336.06C1302.35,-323.95 1280.64,-310.2 1261.01,-297.76"/>
<polygon fill="black" stroke="black" points="1262.77,-294.74 1252.45,-292.34 1259.03,-300.65 1262.77,-294.74"/>
</g>
<!-- BB22 -->
<g id="node23" class="node">
<title>BB22</title>
<ellipse fill="none" stroke="black" cx="1450" cy="-259.38" rx="124.4" ry="37.45"/>
<text text-anchor="middle" x="1450" y="-270.68" font-family="Times New Roman,serif" font-size="14.00">[14d..154)</text>
<text text-anchor="middle" x="1450" y="-255.68" font-family="Times New Roman,serif" font-size="14.00">Normalized Count: 21145.67</text>
<text text-anchor="middle" x="1450" y="-240.68" font-family="Times New Roman,serif" font-size="14.00">Samples weight: 0.14</text>
</g>
<!-- BB20&#45;&gt;BB22 -->
<g id="edge32" class="edge">
<title>BB20&#45;&gt;BB22</title>
<path fill="none" stroke="black" d="M1399.1,-333.36C1405.52,-324.15 1412.49,-314.15 1419.17,-304.58"/>
<polygon fill="black" stroke="black" points="1422.08,-306.53 1424.93,-296.32 1416.34,-302.52 1422.08,-306.53"/>
</g>
<!-- BB21&#45;&gt;BB22 -->
<g id="edge34" class="edge">
<title>BB21&#45;&gt;BB22</title>
<path fill="none" stroke="black" d="M1307.59,-259.38C1310.19,-259.38 1312.79,-259.38 1315.38,-259.38"/>
<polygon fill="black" stroke="black" points="1315.39,-262.88 1325.39,-259.38 1315.39,-255.88 1315.39,-262.88"/>
</g>
<!-- BB22&#45;&gt;BB6 -->
<g id="edge35" class="edge">
<title>BB22&#45;&gt;BB6</title>
<path fill="none" stroke="black" d="M1485.17,-295.48C1494.03,-306.53 1502.34,-319.4 1507,-332.86 1517.9,-364.34 1526.25,-380.62 1507,-407.81 1403.87,-553.48 868.15,-648.75 623.31,-685.34"/>
<polygon fill="black" stroke="black" points="622.68,-681.89 613.3,-686.82 623.71,-688.82 622.68,-681.89"/>
</g>
<!-- BB23 -->
<g id="node24" class="node">
<title>BB23</title>
<ellipse fill="none" stroke="black" cx="753" cy="-148.43" rx="124.4" ry="37.45"/>
<text text-anchor="middle" x="753" y="-159.73" font-family="Times New Roman,serif" font-size="14.00">[154..158)</text>
<text text-anchor="middle" x="753" y="-144.73" font-family="Times New Roman,serif" font-size="14.00">Normalized Count: 21165.67</text>
<text text-anchor="middle" x="753" y="-129.73" font-family="Times New Roman,serif" font-size="14.00">Samples weight: 0.14</text>
</g>
<!-- BB22&#45;&gt;BB23 -->
<g id="edge36" class="edge">
<title>BB22&#45;&gt;BB23</title>
<path fill="none" stroke="black" d="M1362.47,-232.7C1347.07,-228.71 1331.13,-224.93 1316,-221.91 1168.36,-192.45 996.44,-172.34 881.8,-160.91"/>
<polygon fill="black" stroke="black" points="881.87,-157.4 871.58,-159.9 881.18,-164.37 881.87,-157.4"/>
</g>
<!-- BB24 -->
<g id="node25" class="node">
<title>BB24</title>
<ellipse fill="none" stroke="black" cx="143" cy="-37.48" rx="124.4" ry="37.45"/>
<text text-anchor="middle" x="143" y="-48.78" font-family="Times New Roman,serif" font-size="14.00">[158..160)</text>
<text text-anchor="middle" x="143" y="-33.78" font-family="Times New Roman,serif" font-size="14.00">Normalized Count: 21167.67</text>
<text text-anchor="middle" x="143" y="-18.78" font-family="Times New Roman,serif" font-size="14.00">Samples weight: 0.14</text>
</g>
<!-- BB23&#45;&gt;BB24 -->
<g id="edge38" class="edge">
<title>BB23&#45;&gt;BB24</title>
<path fill="none" stroke="black" d="M664.69,-121.85C649.52,-117.9 633.86,-114.1 619,-110.95 500.72,-85.94 364.15,-66.05 267.72,-53.49"/>
<polygon fill="black" stroke="black" points="268,-49.99 257.63,-52.18 267.1,-56.94 268,-49.99"/>
</g>
<!-- BB23&#45;&gt;BB25 -->
<g id="edge37" class="edge">
<title>BB23&#45;&gt;BB25</title>
<path fill="none" stroke="black" d="M662.61,-174.31C648.04,-178.24 633.11,-182.22 619,-185.91 554.34,-202.78 481.36,-221.02 424.78,-234.98"/>
<polygon fill="black" stroke="black" points="423.64,-231.65 414.77,-237.45 425.32,-238.45 423.64,-231.65"/>
</g>
<!-- BB24&#45;&gt;BB6 -->
<g id="edge39" class="edge">
<title>BB24&#45;&gt;BB6</title>
<path fill="none" stroke="black" d="M102.02,-73.24C59.77,-113.19 0,-183.01 0,-258.38 0,-482.29 0,-482.29 0,-482.29 0,-642.81 218.32,-687.23 366.72,-698.89"/>
<polygon fill="black" stroke="black" points="366.6,-702.39 376.84,-699.64 367.12,-695.41 366.6,-702.39"/>
</g>
<!-- BB24&#45;&gt;BB25 -->
<g id="edge40" class="edge">
<title>BB24&#45;&gt;BB25</title>
<path fill="none" stroke="black" d="M138.25,-75.23C136.1,-107.55 138.19,-154.25 162,-185.91 179.09,-208.63 204.78,-224.33 230.93,-235.14"/>
<polygon fill="black" stroke="black" points="229.98,-238.53 240.57,-238.91 232.53,-232.01 229.98,-238.53"/>
</g>
<!-- BB26 -->
<g id="node27" class="node">
<title>BB26</title>
<ellipse fill="none" stroke="black" cx="276" cy="-148.43" rx="105.22" ry="37.45"/>
<text text-anchor="middle" x="276" y="-159.73" font-family="Times New Roman,serif" font-size="14.00">[165..171)</text>
<text text-anchor="middle" x="276" y="-144.73" font-family="Times New Roman,serif" font-size="14.00">Normalized Count: 0.33</text>
<text text-anchor="middle" x="276" y="-129.73" font-family="Times New Roman,serif" font-size="14.00">Samples weight: 0.00</text>
</g>
<!-- BB25&#45;&gt;BB26 -->
<g id="edge42" class="edge">
<title>BB25&#45;&gt;BB26</title>
<path fill="none" stroke="black" d="M311.5,-222.41C307.2,-213.57 302.55,-204 298.07,-194.79"/>
<polygon fill="black" stroke="black" points="301.19,-193.2 293.66,-185.74 294.89,-196.27 301.19,-193.2"/>
</g>
<!-- BB27 -->
<g id="node28" class="node">
<title>BB27</title>
<ellipse fill="none" stroke="black" cx="505" cy="-148.43" rx="105.22" ry="37.45"/>
<text text-anchor="middle" x="505" y="-159.73" font-family="Times New Roman,serif" font-size="14.00">[171..172)</text>
<text text-anchor="middle" x="505" y="-144.73" font-family="Times New Roman,serif" font-size="14.00">Normalized Count: 1.00</text>
<text text-anchor="middle" x="505" y="-129.73" font-family="Times New Roman,serif" font-size="14.00">Samples weight: 0.00</text>
</g>
<!-- BB25&#45;&gt;BB27 -->
<g id="edge41" class="edge">
<title>BB25&#45;&gt;BB27</title>
<path fill="none" stroke="black" d="M380.38,-226.58C400.62,-214.05 424.01,-199.57 445.02,-186.56"/>
<polygon fill="black" stroke="black" points="446.9,-189.52 453.56,-181.28 443.21,-183.56 446.9,-189.52"/>
</g>
<!-- BB26&#45;&gt;BB27 -->
<g id="edge43" class="edge">
<title>BB26&#45;&gt;BB27</title>
<path fill="none" stroke="black" d="M381.55,-148.43C384.16,-148.43 386.76,-148.43 389.36,-148.43"/>
<polygon fill="black" stroke="black" points="389.4,-151.93 399.4,-148.43 389.4,-144.93 389.4,-151.93"/>
</g>
</g>
</svg>
