<?xml version="1.0" encoding="UTF-8" standalone="no"?>
<!DOCTYPE svg PUBLIC "-//W3C//DTD SVG 1.1//EN"
 "http://www.w3.org/Graphics/SVG/1.1/DTD/svg11.dtd">
<!-- Generated by graphviz version 2.47.0 (20210316.0004)
 -->
<!-- Title: G Pages: 1 -->
<svg width="748pt" height="1558pt"
 viewBox="0.00 0.00 748.48 1558.00" xmlns="http://www.w3.org/2000/svg" xmlns:xlink="http://www.w3.org/1999/xlink">
<g id="graph0" class="graph" transform="scale(1 1) rotate(0) translate(4 1554)">
<title>G</title>
<polygon fill="white" stroke="transparent" points="-4,4 -4,-1554 744.48,-1554 744.48,4 -4,4"/>
<!-- BB0 -->
<g id="node1" class="node">
<title>BB0</title>
<ellipse fill="none" stroke="black" cx="394.24" cy="-1501.92" rx="103.48" ry="48.17"/>
<text text-anchor="middle" x="394.24" y="-1520.72" font-family="Times New Roman,serif" font-size="14.00">[0..18)</text>
<text text-anchor="middle" x="394.24" y="-1505.72" font-family="Times New Roman,serif" font-size="14.00">Count: 10</text>
<text text-anchor="middle" x="394.24" y="-1490.72" font-family="Times New Roman,serif" font-size="14.00">Normalized count: 1.00</text>
<text text-anchor="middle" x="394.24" y="-1475.72" font-family="Times New Roman,serif" font-size="14.00">Samples weight: 0.02</text>
</g>
<!-- BB1 -->
<g id="node2" class="node">
<title>BB1</title>
<ellipse fill="none" stroke="black" cx="282.24" cy="-1369.75" rx="103.48" ry="48.17"/>
<text text-anchor="middle" x="282.24" y="-1388.55" font-family="Times New Roman,serif" font-size="14.00">[18..24)</text>
<text text-anchor="middle" x="282.24" y="-1373.55" font-family="Times New Roman,serif" font-size="14.00">Count: 0</text>
<text text-anchor="middle" x="282.24" y="-1358.55" font-family="Times New Roman,serif" font-size="14.00">Normalized count: 0.00</text>
<text text-anchor="middle" x="282.24" y="-1343.55" font-family="Times New Roman,serif" font-size="14.00">Samples weight: 0.00</text>
</g>
<!-- BB0&#45;&gt;BB1 -->
<g id="edge2" class="edge">
<title>BB0&#45;&gt;BB1</title>
<path fill="none" stroke="black" d="M356.32,-1456.85C346.83,-1445.82 336.57,-1433.89 326.79,-1422.53"/>
<polygon fill="black" stroke="black" points="329.29,-1420.07 320.12,-1414.77 323.99,-1424.63 329.29,-1420.07"/>
</g>
<!-- BB2 -->
<g id="node3" class="node">
<title>BB2</title>
<ellipse fill="none" stroke="black" cx="506.24" cy="-1369.75" rx="103.48" ry="48.17"/>
<text text-anchor="middle" x="506.24" y="-1388.55" font-family="Times New Roman,serif" font-size="14.00">[24..2e)</text>
<text text-anchor="middle" x="506.24" y="-1373.55" font-family="Times New Roman,serif" font-size="14.00">Count: 0</text>
<text text-anchor="middle" x="506.24" y="-1358.55" font-family="Times New Roman,serif" font-size="14.00">Normalized count: 0.00</text>
<text text-anchor="middle" x="506.24" y="-1343.55" font-family="Times New Roman,serif" font-size="14.00">Samples weight: 0.00</text>
</g>
<!-- BB0&#45;&gt;BB2 -->
<g id="edge1" class="edge">
<title>BB0&#45;&gt;BB2</title>
<path fill="none" stroke="black" d="M432.16,-1456.85C441.64,-1445.82 451.91,-1433.89 461.68,-1422.53"/>
<polygon fill="black" stroke="black" points="464.49,-1424.63 468.36,-1414.77 459.18,-1420.07 464.49,-1424.63"/>
</g>
<!-- BB3 -->
<g id="node4" class="node">
<title>BB3</title>
<ellipse fill="none" stroke="black" cx="394.24" cy="-1237.58" rx="103.48" ry="48.17"/>
<text text-anchor="middle" x="394.24" y="-1256.38" font-family="Times New Roman,serif" font-size="14.00">[2e..44)</text>
<text text-anchor="middle" x="394.24" y="-1241.38" font-family="Times New Roman,serif" font-size="14.00">Count: 14</text>
<text text-anchor="middle" x="394.24" y="-1226.38" font-family="Times New Roman,serif" font-size="14.00">Normalized count: 1.40</text>
<text text-anchor="middle" x="394.24" y="-1211.38" font-family="Times New Roman,serif" font-size="14.00">Samples weight: 0.03</text>
</g>
<!-- BB1&#45;&gt;BB3 -->
<g id="edge3" class="edge">
<title>BB1&#45;&gt;BB3</title>
<path fill="none" stroke="black" d="M320.16,-1324.68C329.64,-1313.65 339.91,-1301.73 349.68,-1290.36"/>
<polygon fill="black" stroke="black" points="352.49,-1292.47 356.36,-1282.61 347.18,-1287.9 352.49,-1292.47"/>
</g>
<!-- BB2&#45;&gt;BB3 -->
<g id="edge4" class="edge">
<title>BB2&#45;&gt;BB3</title>
<path fill="none" stroke="black" d="M468.32,-1324.68C458.83,-1313.65 448.57,-1301.73 438.79,-1290.36"/>
<polygon fill="black" stroke="black" points="441.29,-1287.9 432.12,-1282.61 435.99,-1292.47 441.29,-1287.9"/>
</g>
<!-- BB4 -->
<g id="node5" class="node">
<title>BB4</title>
<ellipse fill="none" stroke="black" cx="282.24" cy="-1105.42" rx="103.48" ry="48.17"/>
<text text-anchor="middle" x="282.24" y="-1124.22" font-family="Times New Roman,serif" font-size="14.00">[44..49)</text>
<text text-anchor="middle" x="282.24" y="-1109.22" font-family="Times New Roman,serif" font-size="14.00">Count: 0</text>
<text text-anchor="middle" x="282.24" y="-1094.22" font-family="Times New Roman,serif" font-size="14.00">Normalized count: 0.00</text>
<text text-anchor="middle" x="282.24" y="-1079.22" font-family="Times New Roman,serif" font-size="14.00">Samples weight: 0.00</text>
</g>
<!-- BB3&#45;&gt;BB4 -->
<g id="edge6" class="edge">
<title>BB3&#45;&gt;BB4</title>
<path fill="none" stroke="black" d="M356.32,-1192.51C346.83,-1181.49 336.57,-1169.56 326.79,-1158.2"/>
<polygon fill="black" stroke="black" points="329.29,-1155.74 320.12,-1150.44 323.99,-1160.3 329.29,-1155.74"/>
</g>
<!-- BB5 -->
<g id="node6" class="node">
<title>BB5</title>
<ellipse fill="none" stroke="black" cx="506.24" cy="-1105.42" rx="103.48" ry="48.17"/>
<text text-anchor="middle" x="506.24" y="-1124.22" font-family="Times New Roman,serif" font-size="14.00">[49..58)</text>
<text text-anchor="middle" x="506.24" y="-1109.22" font-family="Times New Roman,serif" font-size="14.00">Count: 2</text>
<text text-anchor="middle" x="506.24" y="-1094.22" font-family="Times New Roman,serif" font-size="14.00">Normalized count: 0.20</text>
<text text-anchor="middle" x="506.24" y="-1079.22" font-family="Times New Roman,serif" font-size="14.00">Samples weight: 0.00</text>
</g>
<!-- BB3&#45;&gt;BB5 -->
<g id="edge5" class="edge">
<title>BB3&#45;&gt;BB5</title>
<path fill="none" stroke="black" d="M432.16,-1192.51C441.64,-1181.49 451.91,-1169.56 461.68,-1158.2"/>
<polygon fill="black" stroke="black" points="464.49,-1160.3 468.36,-1150.44 459.18,-1155.74 464.49,-1160.3"/>
</g>
<!-- BB18 -->
<g id="node19" class="node">
<title>BB18</title>
<ellipse fill="none" stroke="black" cx="506.24" cy="-973.25" rx="103.48" ry="48.17"/>
<text text-anchor="middle" x="506.24" y="-992.05" font-family="Times New Roman,serif" font-size="14.00">[11f..128)</text>
<text text-anchor="middle" x="506.24" y="-977.05" font-family="Times New Roman,serif" font-size="14.00">Count: 0</text>
<text text-anchor="middle" x="506.24" y="-962.05" font-family="Times New Roman,serif" font-size="14.00">Normalized count: 0.00</text>
<text text-anchor="middle" x="506.24" y="-947.05" font-family="Times New Roman,serif" font-size="14.00">Samples weight: 0.00</text>
</g>
<!-- BB5&#45;&gt;BB18 -->
<g id="edge7" class="edge">
<title>BB5&#45;&gt;BB18</title>
<path fill="none" stroke="black" d="M506.24,-1057.05C506.24,-1048.79 506.24,-1040.1 506.24,-1031.6"/>
<polygon fill="black" stroke="black" points="509.74,-1031.36 506.24,-1021.36 502.74,-1031.36 509.74,-1031.36"/>
</g>
<!-- BB6 -->
<g id="node7" class="node">
<title>BB6</title>
<ellipse fill="none" stroke="black" cx="282.24" cy="-841.08" rx="103.48" ry="48.17"/>
<text text-anchor="middle" x="282.24" y="-859.88" font-family="Times New Roman,serif" font-size="14.00">[58..72)</text>
<text text-anchor="middle" x="282.24" y="-844.88" font-family="Times New Roman,serif" font-size="14.00">Count: 22</text>
<text text-anchor="middle" x="282.24" y="-829.88" font-family="Times New Roman,serif" font-size="14.00">Normalized count: 2.20</text>
<text text-anchor="middle" x="282.24" y="-814.88" font-family="Times New Roman,serif" font-size="14.00">Samples weight: 0.05</text>
</g>
<!-- BB7 -->
<g id="node8" class="node">
<title>BB7</title>
<ellipse fill="none" stroke="black" cx="282.24" cy="-708.92" rx="103.48" ry="48.17"/>
<text text-anchor="middle" x="282.24" y="-727.72" font-family="Times New Roman,serif" font-size="14.00">[72..7c)</text>
<text text-anchor="middle" x="282.24" y="-712.72" font-family="Times New Roman,serif" font-size="14.00">Count: 19</text>
<text text-anchor="middle" x="282.24" y="-697.72" font-family="Times New Roman,serif" font-size="14.00">Normalized count: 1.90</text>
<text text-anchor="middle" x="282.24" y="-682.72" font-family="Times New Roman,serif" font-size="14.00">Samples weight: 0.05</text>
</g>
<!-- BB6&#45;&gt;BB7 -->
<g id="edge9" class="edge">
<title>BB6&#45;&gt;BB7</title>
<path fill="none" stroke="black" d="M282.24,-792.72C282.24,-784.45 282.24,-775.77 282.24,-767.27"/>
<polygon fill="black" stroke="black" points="285.74,-767.02 282.24,-757.02 278.74,-767.02 285.74,-767.02"/>
</g>
<!-- BB20 -->
<g id="node21" class="node">
<title>BB20</title>
<ellipse fill="none" stroke="black" cx="506.24" cy="-708.92" rx="103.48" ry="48.17"/>
<text text-anchor="middle" x="506.24" y="-727.72" font-family="Times New Roman,serif" font-size="14.00">[12c..12d)</text>
<text text-anchor="middle" x="506.24" y="-712.72" font-family="Times New Roman,serif" font-size="14.00">Count: 7</text>
<text text-anchor="middle" x="506.24" y="-697.72" font-family="Times New Roman,serif" font-size="14.00">Normalized count: 0.70</text>
<text text-anchor="middle" x="506.24" y="-682.72" font-family="Times New Roman,serif" font-size="14.00">Samples weight: 0.02</text>
</g>
<!-- BB6&#45;&gt;BB20 -->
<g id="edge8" class="edge">
<title>BB6&#45;&gt;BB20</title>
<path fill="none" stroke="black" d="M345.83,-803.13C373.26,-787.19 405.48,-768.46 433.83,-751.99"/>
<polygon fill="black" stroke="black" points="435.6,-755.01 442.49,-746.96 432.08,-748.96 435.6,-755.01"/>
</g>
<!-- BB8 -->
<g id="node9" class="node">
<title>BB8</title>
<ellipse fill="none" stroke="black" cx="103.24" cy="-576.75" rx="103.48" ry="48.17"/>
<text text-anchor="middle" x="103.24" y="-595.55" font-family="Times New Roman,serif" font-size="14.00">[7c..89)</text>
<text text-anchor="middle" x="103.24" y="-580.55" font-family="Times New Roman,serif" font-size="14.00">Count: 0</text>
<text text-anchor="middle" x="103.24" y="-565.55" font-family="Times New Roman,serif" font-size="14.00">Normalized count: 0.00</text>
<text text-anchor="middle" x="103.24" y="-550.55" font-family="Times New Roman,serif" font-size="14.00">Samples weight: 0.00</text>
</g>
<!-- BB7&#45;&gt;BB8 -->
<g id="edge11" class="edge">
<title>BB7&#45;&gt;BB8</title>
<path fill="none" stroke="black" d="M227.07,-667.8C207.93,-653.88 186.31,-638.16 166.56,-623.8"/>
<polygon fill="black" stroke="black" points="168.37,-620.78 158.22,-617.73 164.25,-626.45 168.37,-620.78"/>
</g>
<!-- BB9 -->
<g id="node10" class="node">
<title>BB9</title>
<ellipse fill="none" stroke="black" cx="332.24" cy="-576.75" rx="108.38" ry="48.17"/>
<text text-anchor="middle" x="332.24" y="-595.55" font-family="Times New Roman,serif" font-size="14.00">[89..a5)</text>
<text text-anchor="middle" x="332.24" y="-580.55" font-family="Times New Roman,serif" font-size="14.00">Count: 137</text>
<text text-anchor="middle" x="332.24" y="-565.55" font-family="Times New Roman,serif" font-size="14.00">Normalized count: 13.70</text>
<text text-anchor="middle" x="332.24" y="-550.55" font-family="Times New Roman,serif" font-size="14.00">Samples weight: 0.34</text>
</g>
<!-- BB7&#45;&gt;BB9 -->
<g id="edge10" class="edge">
<title>BB7&#45;&gt;BB9</title>
<path fill="none" stroke="black" d="M300.15,-661.29C303.56,-652.41 307.16,-643.03 310.67,-633.89"/>
<polygon fill="black" stroke="black" points="313.97,-635.08 314.28,-624.49 307.43,-632.57 313.97,-635.08"/>
</g>
<!-- BB10 -->
<g id="node11" class="node">
<title>BB10</title>
<ellipse fill="none" stroke="black" cx="157.24" cy="-444.58" rx="103.48" ry="48.17"/>
<text text-anchor="middle" x="157.24" y="-463.38" font-family="Times New Roman,serif" font-size="14.00">[a5..b1)</text>
<text text-anchor="middle" x="157.24" y="-448.38" font-family="Times New Roman,serif" font-size="14.00">Count: 4</text>
<text text-anchor="middle" x="157.24" y="-433.38" font-family="Times New Roman,serif" font-size="14.00">Normalized count: 0.40</text>
<text text-anchor="middle" x="157.24" y="-418.38" font-family="Times New Roman,serif" font-size="14.00">Samples weight: 0.01</text>
</g>
<!-- BB9&#45;&gt;BB10 -->
<g id="edge13" class="edge">
<title>BB9&#45;&gt;BB10</title>
<path fill="none" stroke="black" d="M277.35,-534.92C259.01,-521.28 238.44,-505.98 219.58,-491.96"/>
<polygon fill="black" stroke="black" points="221.45,-488.98 211.33,-485.82 217.27,-494.6 221.45,-488.98"/>
</g>
<!-- BB11 -->
<g id="node12" class="node">
<title>BB11</title>
<ellipse fill="none" stroke="black" cx="381.24" cy="-444.58" rx="103.48" ry="48.17"/>
<text text-anchor="middle" x="381.24" y="-463.38" font-family="Times New Roman,serif" font-size="14.00">[b1..bb)</text>
<text text-anchor="middle" x="381.24" y="-448.38" font-family="Times New Roman,serif" font-size="14.00">Count: 0</text>
<text text-anchor="middle" x="381.24" y="-433.38" font-family="Times New Roman,serif" font-size="14.00">Normalized count: 0.00</text>
<text text-anchor="middle" x="381.24" y="-418.38" font-family="Times New Roman,serif" font-size="14.00">Samples weight: 0.00</text>
</g>
<!-- BB9&#45;&gt;BB11 -->
<g id="edge12" class="edge">
<title>BB9&#45;&gt;BB11</title>
<path fill="none" stroke="black" d="M349.79,-529.12C353.13,-520.24 356.66,-510.87 360.1,-501.73"/>
<polygon fill="black" stroke="black" points="363.4,-502.91 363.64,-492.32 356.85,-500.45 363.4,-502.91"/>
</g>
<!-- BB12 -->
<g id="node13" class="node">
<title>BB12</title>
<ellipse fill="none" stroke="black" cx="255.24" cy="-312.42" rx="103.48" ry="48.17"/>
<text text-anchor="middle" x="255.24" y="-331.22" font-family="Times New Roman,serif" font-size="14.00">[bb..d3)</text>
<text text-anchor="middle" x="255.24" y="-316.22" font-family="Times New Roman,serif" font-size="14.00">Count: 97</text>
<text text-anchor="middle" x="255.24" y="-301.22" font-family="Times New Roman,serif" font-size="14.00">Normalized count: 9.70</text>
<text text-anchor="middle" x="255.24" y="-286.22" font-family="Times New Roman,serif" font-size="14.00">Samples weight: 0.24</text>
</g>
<!-- BB10&#45;&gt;BB12 -->
<g id="edge14" class="edge">
<title>BB10&#45;&gt;BB12</title>
<path fill="none" stroke="black" d="M190.96,-398.79C198.82,-388.36 207.25,-377.15 215.34,-366.4"/>
<polygon fill="black" stroke="black" points="218.23,-368.39 221.45,-358.29 212.64,-364.18 218.23,-368.39"/>
</g>
<!-- BB11&#45;&gt;BB12 -->
<g id="edge15" class="edge">
<title>BB11&#45;&gt;BB12</title>
<path fill="none" stroke="black" d="M339.28,-400.24C328.02,-388.6 315.74,-375.92 304.13,-363.93"/>
<polygon fill="black" stroke="black" points="306.48,-361.32 297.01,-356.57 301.45,-366.19 306.48,-361.32"/>
</g>
<!-- BB13 -->
<g id="node14" class="node">
<title>BB13</title>
<ellipse fill="none" stroke="black" cx="435.24" cy="-180.25" rx="103.48" ry="48.17"/>
<text text-anchor="middle" x="435.24" y="-199.05" font-family="Times New Roman,serif" font-size="14.00">[d3..e9)</text>
<text text-anchor="middle" x="435.24" y="-184.05" font-family="Times New Roman,serif" font-size="14.00">Count: 13</text>
<text text-anchor="middle" x="435.24" y="-169.05" font-family="Times New Roman,serif" font-size="14.00">Normalized count: 1.30</text>
<text text-anchor="middle" x="435.24" y="-154.05" font-family="Times New Roman,serif" font-size="14.00">Samples weight: 0.03</text>
</g>
<!-- BB12&#45;&gt;BB13 -->
<g id="edge17" class="edge">
<title>BB12&#45;&gt;BB13</title>
<path fill="none" stroke="black" d="M310.22,-271.65C329.76,-257.53 351.9,-241.51 372.07,-226.93"/>
<polygon fill="black" stroke="black" points="374.23,-229.69 380.28,-220.99 370.13,-224.02 374.23,-229.69"/>
</g>
<!-- BB15 -->
<g id="node16" class="node">
<title>BB15</title>
<ellipse fill="none" stroke="black" cx="211.24" cy="-180.25" rx="103.48" ry="48.17"/>
<text text-anchor="middle" x="211.24" y="-199.05" font-family="Times New Roman,serif" font-size="14.00">[f7..10d)</text>
<text text-anchor="middle" x="211.24" y="-184.05" font-family="Times New Roman,serif" font-size="14.00">Count: 73</text>
<text text-anchor="middle" x="211.24" y="-169.05" font-family="Times New Roman,serif" font-size="14.00">Normalized count: 7.30</text>
<text text-anchor="middle" x="211.24" y="-154.05" font-family="Times New Roman,serif" font-size="14.00">Samples weight: 0.18</text>
</g>
<!-- BB12&#45;&gt;BB15 -->
<g id="edge16" class="edge">
<title>BB12&#45;&gt;BB15</title>
<path fill="none" stroke="black" d="M239.48,-264.79C236.51,-256.01 233.37,-246.73 230.31,-237.68"/>
<polygon fill="black" stroke="black" points="233.55,-236.34 227.04,-227.99 226.92,-238.58 233.55,-236.34"/>
</g>
<!-- BB14 -->
<g id="node15" class="node">
<title>BB14</title>
<ellipse fill="none" stroke="black" cx="413.24" cy="-48.08" rx="103.48" ry="48.17"/>
<text text-anchor="middle" x="413.24" y="-66.88" font-family="Times New Roman,serif" font-size="14.00">[e9..f7)</text>
<text text-anchor="middle" x="413.24" y="-51.88" font-family="Times New Roman,serif" font-size="14.00">Count: 0</text>
<text text-anchor="middle" x="413.24" y="-36.88" font-family="Times New Roman,serif" font-size="14.00">Normalized count: 0.00</text>
<text text-anchor="middle" x="413.24" y="-21.88" font-family="Times New Roman,serif" font-size="14.00">Samples weight: 0.00</text>
</g>
<!-- BB13&#45;&gt;BB14 -->
<g id="edge19" class="edge">
<title>BB13&#45;&gt;BB14</title>
<path fill="none" stroke="black" d="M427.3,-132.26C425.88,-123.88 424.39,-115.07 422.93,-106.45"/>
<polygon fill="black" stroke="black" points="426.36,-105.72 421.24,-96.44 419.46,-106.89 426.36,-105.72"/>
</g>
<!-- BB17 -->
<g id="node18" class="node">
<title>BB17</title>
<ellipse fill="none" stroke="black" cx="637.24" cy="-48.08" rx="103.48" ry="48.17"/>
<text text-anchor="middle" x="637.24" y="-66.88" font-family="Times New Roman,serif" font-size="14.00">[119..11f)</text>
<text text-anchor="middle" x="637.24" y="-51.88" font-family="Times New Roman,serif" font-size="14.00">Count: 7</text>
<text text-anchor="middle" x="637.24" y="-36.88" font-family="Times New Roman,serif" font-size="14.00">Normalized count: 0.70</text>
<text text-anchor="middle" x="637.24" y="-21.88" font-family="Times New Roman,serif" font-size="14.00">Samples weight: 0.02</text>
</g>
<!-- BB13&#45;&gt;BB17 -->
<g id="edge18" class="edge">
<title>BB13&#45;&gt;BB17</title>
<path fill="none" stroke="black" d="M494.75,-140.9C517.97,-125.94 544.73,-108.7 568.74,-93.22"/>
<polygon fill="black" stroke="black" points="570.94,-95.97 577.45,-87.61 567.15,-90.08 570.94,-95.97"/>
</g>
<!-- BB14&#45;&gt;BB17 -->
<g id="edge20" class="edge">
<title>BB14&#45;&gt;BB17</title>
<path fill="none" stroke="black" d="M516.49,-48.08C518.94,-48.08 521.4,-48.08 523.85,-48.08"/>
<polygon fill="black" stroke="black" points="523.94,-51.58 533.94,-48.08 523.94,-44.58 523.94,-51.58"/>
</g>
<!-- BB16 -->
<g id="node17" class="node">
<title>BB16</title>
<ellipse fill="none" stroke="black" cx="189.24" cy="-48.08" rx="103.48" ry="48.17"/>
<text text-anchor="middle" x="189.24" y="-66.88" font-family="Times New Roman,serif" font-size="14.00">[10d..119)</text>
<text text-anchor="middle" x="189.24" y="-51.88" font-family="Times New Roman,serif" font-size="14.00">Count: 0</text>
<text text-anchor="middle" x="189.24" y="-36.88" font-family="Times New Roman,serif" font-size="14.00">Normalized count: 0.00</text>
<text text-anchor="middle" x="189.24" y="-21.88" font-family="Times New Roman,serif" font-size="14.00">Samples weight: 0.00</text>
</g>
<!-- BB15&#45;&gt;BB16 -->
<g id="edge22" class="edge">
<title>BB15&#45;&gt;BB16</title>
<path fill="none" stroke="black" d="M203.3,-132.26C201.88,-123.88 200.39,-115.07 198.93,-106.45"/>
<polygon fill="black" stroke="black" points="202.36,-105.72 197.24,-96.44 195.46,-106.89 202.36,-105.72"/>
</g>
<!-- BB15&#45;&gt;BB17 -->
<g id="edge21" class="edge">
<title>BB15&#45;&gt;BB17</title>
<path fill="none" stroke="black" d="M283.89,-145.98C296.82,-140.84 310.29,-135.99 323.24,-132.17 410.7,-106.34 437.78,-122 525.24,-96.17 535.05,-93.27 545.16,-89.78 555.11,-86.03"/>
<polygon fill="black" stroke="black" points="556.52,-89.23 564.58,-82.36 554,-82.71 556.52,-89.23"/>
</g>
<!-- BB16&#45;&gt;BB17 -->
<g id="edge23" class="edge">
<title>BB16&#45;&gt;BB17</title>
<path fill="none" stroke="black" d="M248.01,-87.82C267.04,-98.54 288.79,-108.69 310.24,-114.17 398.95,-136.81 427.53,-136.81 516.24,-114.17 534.34,-109.55 552.65,-101.6 569.36,-92.79"/>
<polygon fill="black" stroke="black" points="571.36,-95.68 578.47,-87.82 568.01,-89.54 571.36,-95.68"/>
</g>
<!-- BB17&#45;&gt;BB18 -->
<g id="edge24" class="edge">
<title>BB17&#45;&gt;BB18</title>
<path fill="none" stroke="black" d="M637.24,-96.47C637.24,-149.01 637.24,-236.27 637.24,-311.42 637.24,-709.92 637.24,-709.92 637.24,-709.92 637.24,-790.03 657.98,-819.61 618.24,-889.17 609.17,-905.04 595.7,-918.78 581.23,-930.26"/>
<polygon fill="black" stroke="black" points="578.96,-927.58 573.1,-936.41 583.19,-933.16 578.96,-927.58"/>
</g>
<!-- BB18&#45;&gt;BB6 -->
<g id="edge25" class="edge">
<title>BB18&#45;&gt;BB6</title>
<path fill="none" stroke="black" d="M442.65,-935.3C415.22,-919.36 382.99,-900.63 354.65,-884.16"/>
<polygon fill="black" stroke="black" points="356.39,-881.13 345.99,-879.13 352.87,-887.18 356.39,-881.13"/>
</g>
<!-- BB19 -->
<g id="node20" class="node">
<title>BB19</title>
<ellipse fill="none" stroke="black" cx="506.24" cy="-841.08" rx="103.48" ry="48.17"/>
<text text-anchor="middle" x="506.24" y="-859.88" font-family="Times New Roman,serif" font-size="14.00">[128..12c)</text>
<text text-anchor="middle" x="506.24" y="-844.88" font-family="Times New Roman,serif" font-size="14.00">Count: 0</text>
<text text-anchor="middle" x="506.24" y="-829.88" font-family="Times New Roman,serif" font-size="14.00">Normalized count: 0.00</text>
<text text-anchor="middle" x="506.24" y="-814.88" font-family="Times New Roman,serif" font-size="14.00">Samples weight: 0.00</text>
</g>
<!-- BB18&#45;&gt;BB19 -->
<g id="edge26" class="edge">
<title>BB18&#45;&gt;BB19</title>
<path fill="none" stroke="black" d="M506.24,-924.89C506.24,-916.62 506.24,-907.94 506.24,-899.43"/>
<polygon fill="black" stroke="black" points="509.74,-899.19 506.24,-889.19 502.74,-899.19 509.74,-899.19"/>
</g>
<!-- BB19&#45;&gt;BB20 -->
<g id="edge27" class="edge">
<title>BB19&#45;&gt;BB20</title>
<path fill="none" stroke="black" d="M506.24,-792.72C506.24,-784.45 506.24,-775.77 506.24,-767.27"/>
<polygon fill="black" stroke="black" points="509.74,-767.02 506.24,-757.02 502.74,-767.02 509.74,-767.02"/>
</g>
</g>
</svg>
