<?xml version="1.0" encoding="UTF-8" standalone="no"?>
<!DOCTYPE svg PUBLIC "-//W3C//DTD SVG 1.1//EN"
 "http://www.w3.org/Graphics/SVG/1.1/DTD/svg11.dtd">
<!-- Generated by graphviz version 2.47.0 (20210316.0004)
 -->
<!-- Title: G Pages: 1 -->
<svg width="878pt" height="1161pt"
 viewBox="0.00 0.00 878.42 1161.50" xmlns="http://www.w3.org/2000/svg" xmlns:xlink="http://www.w3.org/1999/xlink">
<g id="graph0" class="graph" transform="scale(1 1) rotate(0) translate(4 1157.5)">
<title>G</title>
<polygon fill="white" stroke="transparent" points="-4,4 -4,-1157.5 874.42,-1157.5 874.42,4 -4,4"/>
<!-- BB0 -->
<g id="node1" class="node">
<title>BB0</title>
<ellipse fill="none" stroke="black" cx="215.24" cy="-1105.42" rx="103.48" ry="48.17"/>
<text text-anchor="middle" x="215.24" y="-1124.22" font-family="Times New Roman,serif" font-size="14.00">[0..3)</text>
<text text-anchor="middle" x="215.24" y="-1109.22" font-family="Times New Roman,serif" font-size="14.00">Count: 13</text>
<text text-anchor="middle" x="215.24" y="-1094.22" font-family="Times New Roman,serif" font-size="14.00">Normalized count: 1.00</text>
<text text-anchor="middle" x="215.24" y="-1079.22" font-family="Times New Roman,serif" font-size="14.00">Samples weight: 0.00</text>
</g>
<!-- BB1 -->
<g id="node2" class="node">
<title>BB1</title>
<ellipse fill="none" stroke="black" cx="103.24" cy="-973.25" rx="103.48" ry="48.17"/>
<text text-anchor="middle" x="103.24" y="-992.05" font-family="Times New Roman,serif" font-size="14.00">[3..5)</text>
<text text-anchor="middle" x="103.24" y="-977.05" font-family="Times New Roman,serif" font-size="14.00">Count: 7</text>
<text text-anchor="middle" x="103.24" y="-962.05" font-family="Times New Roman,serif" font-size="14.00">Normalized count: 0.54</text>
<text text-anchor="middle" x="103.24" y="-947.05" font-family="Times New Roman,serif" font-size="14.00">Samples weight: 0.00</text>
</g>
<!-- BB0&#45;&gt;BB1 -->
<g id="edge2" class="edge">
<title>BB0&#45;&gt;BB1</title>
<path fill="none" stroke="black" d="M177.32,-1060.35C167.83,-1049.32 157.57,-1037.39 147.79,-1026.03"/>
<polygon fill="black" stroke="black" points="150.29,-1023.57 141.12,-1018.27 144.99,-1028.14 150.29,-1023.57"/>
</g>
<!-- BB2 -->
<g id="node3" class="node">
<title>BB2</title>
<ellipse fill="none" stroke="black" cx="327.24" cy="-973.25" rx="103.48" ry="48.17"/>
<text text-anchor="middle" x="327.24" y="-992.05" font-family="Times New Roman,serif" font-size="14.00">[5..a)</text>
<text text-anchor="middle" x="327.24" y="-977.05" font-family="Times New Roman,serif" font-size="14.00">Count: 54</text>
<text text-anchor="middle" x="327.24" y="-962.05" font-family="Times New Roman,serif" font-size="14.00">Normalized count: 4.15</text>
<text text-anchor="middle" x="327.24" y="-947.05" font-family="Times New Roman,serif" font-size="14.00">Samples weight: 0.01</text>
</g>
<!-- BB0&#45;&gt;BB2 -->
<g id="edge1" class="edge">
<title>BB0&#45;&gt;BB2</title>
<path fill="none" stroke="black" d="M253.16,-1060.35C262.64,-1049.32 272.91,-1037.39 282.68,-1026.03"/>
<polygon fill="black" stroke="black" points="285.49,-1028.14 289.36,-1018.27 280.18,-1023.57 285.49,-1028.14"/>
</g>
<!-- BB3 -->
<g id="node4" class="node">
<title>BB3</title>
<ellipse fill="none" stroke="black" cx="215.24" cy="-841.08" rx="103.48" ry="48.17"/>
<text text-anchor="middle" x="215.24" y="-859.88" font-family="Times New Roman,serif" font-size="14.00">[a..c)</text>
<text text-anchor="middle" x="215.24" y="-844.88" font-family="Times New Roman,serif" font-size="14.00">Count: 33</text>
<text text-anchor="middle" x="215.24" y="-829.88" font-family="Times New Roman,serif" font-size="14.00">Normalized count: 2.54</text>
<text text-anchor="middle" x="215.24" y="-814.88" font-family="Times New Roman,serif" font-size="14.00">Samples weight: 0.01</text>
</g>
<!-- BB2&#45;&gt;BB3 -->
<g id="edge4" class="edge">
<title>BB2&#45;&gt;BB3</title>
<path fill="none" stroke="black" d="M289.32,-928.18C279.83,-917.15 269.57,-905.23 259.79,-893.86"/>
<polygon fill="black" stroke="black" points="262.29,-891.4 253.12,-886.11 256.99,-895.97 262.29,-891.4"/>
</g>
<!-- BB4 -->
<g id="node5" class="node">
<title>BB4</title>
<ellipse fill="none" stroke="black" cx="439.24" cy="-841.08" rx="103.48" ry="48.17"/>
<text text-anchor="middle" x="439.24" y="-859.88" font-family="Times New Roman,serif" font-size="14.00">[c..10)</text>
<text text-anchor="middle" x="439.24" y="-844.88" font-family="Times New Roman,serif" font-size="14.00">Count: 13</text>
<text text-anchor="middle" x="439.24" y="-829.88" font-family="Times New Roman,serif" font-size="14.00">Normalized count: 1.00</text>
<text text-anchor="middle" x="439.24" y="-814.88" font-family="Times New Roman,serif" font-size="14.00">Samples weight: 0.00</text>
</g>
<!-- BB2&#45;&gt;BB4 -->
<g id="edge3" class="edge">
<title>BB2&#45;&gt;BB4</title>
<path fill="none" stroke="black" d="M365.16,-928.18C374.64,-917.15 384.91,-905.23 394.68,-893.86"/>
<polygon fill="black" stroke="black" points="397.49,-895.97 401.36,-886.11 392.18,-891.4 397.49,-895.97"/>
</g>
<!-- BB6 -->
<g id="node7" class="node">
<title>BB6</title>
<ellipse fill="none" stroke="black" cx="439.24" cy="-708.92" rx="103.48" ry="48.17"/>
<text text-anchor="middle" x="439.24" y="-727.72" font-family="Times New Roman,serif" font-size="14.00">[1a..20)</text>
<text text-anchor="middle" x="439.24" y="-712.72" font-family="Times New Roman,serif" font-size="14.00">Count: 118</text>
<text text-anchor="middle" x="439.24" y="-697.72" font-family="Times New Roman,serif" font-size="14.00">Normalized count: 9.08</text>
<text text-anchor="middle" x="439.24" y="-682.72" font-family="Times New Roman,serif" font-size="14.00">Samples weight: 0.02</text>
</g>
<!-- BB4&#45;&gt;BB6 -->
<g id="edge5" class="edge">
<title>BB4&#45;&gt;BB6</title>
<path fill="none" stroke="black" d="M439.24,-792.72C439.24,-784.45 439.24,-775.77 439.24,-767.27"/>
<polygon fill="black" stroke="black" points="442.74,-767.02 439.24,-757.02 435.74,-767.02 442.74,-767.02"/>
</g>
<!-- BB5 -->
<g id="node6" class="node">
<title>BB5</title>
<ellipse fill="none" stroke="black" cx="439.24" cy="-576.75" rx="108.38" ry="48.17"/>
<text text-anchor="middle" x="439.24" y="-595.55" font-family="Times New Roman,serif" font-size="14.00">[10..1a)</text>
<text text-anchor="middle" x="439.24" y="-580.55" font-family="Times New Roman,serif" font-size="14.00">Count: 911</text>
<text text-anchor="middle" x="439.24" y="-565.55" font-family="Times New Roman,serif" font-size="14.00">Normalized count: 70.08</text>
<text text-anchor="middle" x="439.24" y="-550.55" font-family="Times New Roman,serif" font-size="14.00">Samples weight: 0.18</text>
</g>
<!-- BB5&#45;&gt;BB6 -->
<g id="edge6" class="edge">
<title>BB5&#45;&gt;BB6</title>
<path fill="none" stroke="black" d="M445.76,-625.11C445.98,-633.41 446.04,-642.12 445.94,-650.65"/>
<polygon fill="black" stroke="black" points="442.44,-650.86 445.75,-660.92 449.44,-650.99 442.44,-650.86"/>
</g>
<!-- BB6&#45;&gt;BB5 -->
<g id="edge7" class="edge">
<title>BB6&#45;&gt;BB5</title>
<path fill="none" stroke="black" d="M432.72,-660.92C432.5,-652.55 432.43,-643.74 432.53,-635.11"/>
<polygon fill="black" stroke="black" points="436.03,-635.17 432.72,-625.11 429.03,-635.04 436.03,-635.17"/>
</g>
<!-- BB7 -->
<g id="node8" class="node">
<title>BB7</title>
<ellipse fill="none" stroke="black" cx="668.24" cy="-576.75" rx="103.48" ry="48.17"/>
<text text-anchor="middle" x="668.24" y="-595.55" font-family="Times New Roman,serif" font-size="14.00">[20..22)</text>
<text text-anchor="middle" x="668.24" y="-580.55" font-family="Times New Roman,serif" font-size="14.00">Count: 7</text>
<text text-anchor="middle" x="668.24" y="-565.55" font-family="Times New Roman,serif" font-size="14.00">Normalized count: 0.54</text>
<text text-anchor="middle" x="668.24" y="-550.55" font-family="Times New Roman,serif" font-size="14.00">Samples weight: 0.00</text>
</g>
<!-- BB6&#45;&gt;BB7 -->
<g id="edge8" class="edge">
<title>BB6&#45;&gt;BB7</title>
<path fill="none" stroke="black" d="M503.64,-671.31C531.93,-655.23 565.31,-636.26 594.58,-619.61"/>
<polygon fill="black" stroke="black" points="596.56,-622.52 603.53,-614.53 593.11,-616.43 596.56,-622.52"/>
</g>
<!-- BB8 -->
<g id="node9" class="node">
<title>BB8</title>
<ellipse fill="none" stroke="black" cx="668.24" cy="-444.58" rx="103.48" ry="48.17"/>
<text text-anchor="middle" x="668.24" y="-463.38" font-family="Times New Roman,serif" font-size="14.00">[22..2b)</text>
<text text-anchor="middle" x="668.24" y="-448.38" font-family="Times New Roman,serif" font-size="14.00">Count: 107</text>
<text text-anchor="middle" x="668.24" y="-433.38" font-family="Times New Roman,serif" font-size="14.00">Normalized count: 8.23</text>
<text text-anchor="middle" x="668.24" y="-418.38" font-family="Times New Roman,serif" font-size="14.00">Samples weight: 0.02</text>
</g>
<!-- BB7&#45;&gt;BB8 -->
<g id="edge9" class="edge">
<title>BB7&#45;&gt;BB8</title>
<path fill="none" stroke="black" d="M668.24,-528.39C668.24,-520.12 668.24,-511.44 668.24,-502.93"/>
<polygon fill="black" stroke="black" points="671.74,-502.69 668.24,-492.69 664.74,-502.69 671.74,-502.69"/>
</g>
<!-- BB10 -->
<g id="node11" class="node">
<title>BB10</title>
<ellipse fill="none" stroke="black" cx="481.24" cy="-312.42" rx="103.48" ry="48.17"/>
<text text-anchor="middle" x="481.24" y="-331.22" font-family="Times New Roman,serif" font-size="14.00">[47..4c)</text>
<text text-anchor="middle" x="481.24" y="-316.22" font-family="Times New Roman,serif" font-size="14.00">Count: 77</text>
<text text-anchor="middle" x="481.24" y="-301.22" font-family="Times New Roman,serif" font-size="14.00">Normalized count: 5.92</text>
<text text-anchor="middle" x="481.24" y="-286.22" font-family="Times New Roman,serif" font-size="14.00">Samples weight: 0.02</text>
</g>
<!-- BB8&#45;&gt;BB10 -->
<g id="edge10" class="edge">
<title>BB8&#45;&gt;BB10</title>
<path fill="none" stroke="black" d="M611.62,-404.18C590.94,-389.77 567.38,-373.38 546.03,-358.52"/>
<polygon fill="black" stroke="black" points="547.87,-355.53 537.66,-352.69 543.87,-361.28 547.87,-355.53"/>
</g>
<!-- BB9 -->
<g id="node10" class="node">
<title>BB9</title>
<ellipse fill="none" stroke="black" cx="387.24" cy="-180.25" rx="113.27" ry="48.17"/>
<text text-anchor="middle" x="387.24" y="-199.05" font-family="Times New Roman,serif" font-size="14.00">[2b..47)</text>
<text text-anchor="middle" x="387.24" y="-184.05" font-family="Times New Roman,serif" font-size="14.00">Count: 1880</text>
<text text-anchor="middle" x="387.24" y="-169.05" font-family="Times New Roman,serif" font-size="14.00">Normalized count: 144.62</text>
<text text-anchor="middle" x="387.24" y="-154.05" font-family="Times New Roman,serif" font-size="14.00">Samples weight: 0.38</text>
</g>
<!-- BB9&#45;&gt;BB10 -->
<g id="edge11" class="edge">
<title>BB9&#45;&gt;BB10</title>
<path fill="none" stroke="black" d="M425.74,-225.65C433.46,-235.9 441.48,-246.9 448.96,-257.5"/>
<polygon fill="black" stroke="black" points="446.23,-259.7 454.83,-265.89 451.97,-255.69 446.23,-259.7"/>
</g>
<!-- BB10&#45;&gt;BB9 -->
<g id="edge12" class="edge">
<title>BB10&#45;&gt;BB9</title>
<path fill="none" stroke="black" d="M442.99,-267.35C435.26,-257.11 427.23,-246.08 419.72,-235.46"/>
<polygon fill="black" stroke="black" points="422.43,-233.24 413.83,-227.05 416.7,-237.25 422.43,-233.24"/>
</g>
<!-- BB11 -->
<g id="node12" class="node">
<title>BB11</title>
<ellipse fill="none" stroke="black" cx="626.24" cy="-180.25" rx="108.38" ry="48.17"/>
<text text-anchor="middle" x="626.24" y="-199.05" font-family="Times New Roman,serif" font-size="14.00">[4c..55)</text>
<text text-anchor="middle" x="626.24" y="-184.05" font-family="Times New Roman,serif" font-size="14.00">Count: 1090</text>
<text text-anchor="middle" x="626.24" y="-169.05" font-family="Times New Roman,serif" font-size="14.00">Normalized count: 83.85</text>
<text text-anchor="middle" x="626.24" y="-154.05" font-family="Times New Roman,serif" font-size="14.00">Samples weight: 0.22</text>
</g>
<!-- BB10&#45;&gt;BB11 -->
<g id="edge13" class="edge">
<title>BB10&#45;&gt;BB11</title>
<path fill="none" stroke="black" d="M527.91,-269.51C541.61,-257.22 556.71,-243.66 570.89,-230.94"/>
<polygon fill="black" stroke="black" points="573.55,-233.25 578.65,-223.97 568.87,-228.04 573.55,-233.25"/>
</g>
<!-- BB12 -->
<g id="node13" class="node">
<title>BB12</title>
<ellipse fill="none" stroke="black" cx="528.24" cy="-48.08" rx="108.38" ry="48.17"/>
<text text-anchor="middle" x="528.24" y="-66.88" font-family="Times New Roman,serif" font-size="14.00">[55..57)</text>
<text text-anchor="middle" x="528.24" y="-51.88" font-family="Times New Roman,serif" font-size="14.00">Count: 445</text>
<text text-anchor="middle" x="528.24" y="-36.88" font-family="Times New Roman,serif" font-size="14.00">Normalized count: 34.23</text>
<text text-anchor="middle" x="528.24" y="-21.88" font-family="Times New Roman,serif" font-size="14.00">Samples weight: 0.09</text>
</g>
<!-- BB11&#45;&gt;BB12 -->
<g id="edge15" class="edge">
<title>BB11&#45;&gt;BB12</title>
<path fill="none" stroke="black" d="M592.51,-134.45C584.66,-124.02 576.22,-112.82 568.13,-102.07"/>
<polygon fill="black" stroke="black" points="570.84,-99.85 562.03,-93.96 565.24,-104.06 570.84,-99.85"/>
</g>
<!-- BB13 -->
<g id="node14" class="node">
<title>BB13</title>
<ellipse fill="none" stroke="black" cx="762.24" cy="-48.08" rx="108.38" ry="48.17"/>
<text text-anchor="middle" x="762.24" y="-66.88" font-family="Times New Roman,serif" font-size="14.00">[57..64)</text>
<text text-anchor="middle" x="762.24" y="-51.88" font-family="Times New Roman,serif" font-size="14.00">Count: 232</text>
<text text-anchor="middle" x="762.24" y="-36.88" font-family="Times New Roman,serif" font-size="14.00">Normalized count: 17.85</text>
<text text-anchor="middle" x="762.24" y="-21.88" font-family="Times New Roman,serif" font-size="14.00">Samples weight: 0.05</text>
</g>
<!-- BB11&#45;&gt;BB13 -->
<g id="edge14" class="edge">
<title>BB11&#45;&gt;BB13</title>
<path fill="none" stroke="black" d="M671.15,-136.27C683.56,-124.38 697.15,-111.38 709.95,-99.13"/>
<polygon fill="black" stroke="black" points="712.57,-101.46 717.38,-92.02 707.73,-96.41 712.57,-101.46"/>
</g>
<!-- BB13&#45;&gt;BB8 -->
<g id="edge16" class="edge">
<title>BB13&#45;&gt;BB8</title>
<path fill="none" stroke="black" d="M760.19,-96.36C757.9,-132.79 753.13,-184.21 743.24,-228.33 730.81,-283.8 708.72,-344.79 691.72,-387.64"/>
<polygon fill="black" stroke="black" points="688.42,-386.45 687.95,-397.04 694.92,-389.06 688.42,-386.45"/>
</g>
</g>
</svg>
