<?xml version="1.0" encoding="UTF-8" standalone="no"?>
<!DOCTYPE svg PUBLIC "-//W3C//DTD SVG 1.1//EN"
 "http://www.w3.org/Graphics/SVG/1.1/DTD/svg11.dtd">
<!-- Generated by graphviz version 2.47.0 (20210316.0004)
 -->
<!-- Title: G Pages: 1 -->
<svg width="604pt" height="501pt"
 viewBox="0.00 0.00 604.50 500.67" xmlns="http://www.w3.org/2000/svg" xmlns:xlink="http://www.w3.org/1999/xlink">
<g id="graph0" class="graph" transform="scale(1 1) rotate(0) translate(4 496.67)">
<title>G</title>
<polygon fill="white" stroke="transparent" points="-4,4 -4,-496.67 600.5,-496.67 600.5,4 -4,4"/>
<!-- BB0 -->
<g id="node1" class="node">
<title>BB0</title>
<ellipse fill="none" stroke="black" cx="255.84" cy="-444.58" rx="104.8" ry="48.17"/>
<text text-anchor="middle" x="255.84" y="-463.38" font-family="Times New Roman,serif" font-size="14.00">[0..4)</text>
<text text-anchor="middle" x="255.84" y="-448.38" font-family="Times New Roman,serif" font-size="14.00">Count: 0</text>
<text text-anchor="middle" x="255.84" y="-433.38" font-family="Times New Roman,serif" font-size="14.00">Normalized count: NaN</text>
<text text-anchor="middle" x="255.84" y="-418.38" font-family="Times New Roman,serif" font-size="14.00">Samples weight: 0.00</text>
</g>
<!-- BB4 -->
<g id="node5" class="node">
<title>BB4</title>
<ellipse fill="none" stroke="black" cx="255.84" cy="-312.42" rx="113.69" ry="48.17"/>
<text text-anchor="middle" x="255.84" y="-331.22" font-family="Times New Roman,serif" font-size="14.00">[14..1c)</text>
<text text-anchor="middle" x="255.84" y="-316.22" font-family="Times New Roman,serif" font-size="14.00">Count: 24</text>
<text text-anchor="middle" x="255.84" y="-301.22" font-family="Times New Roman,serif" font-size="14.00">Normalized count: Infinity</text>
<text text-anchor="middle" x="255.84" y="-286.22" font-family="Times New Roman,serif" font-size="14.00">Samples weight: 0.35</text>
</g>
<!-- BB0&#45;&gt;BB4 -->
<g id="edge1" class="edge">
<title>BB0&#45;&gt;BB4</title>
<path fill="none" stroke="black" d="M255.84,-396.22C255.84,-387.95 255.84,-379.27 255.84,-370.77"/>
<polygon fill="black" stroke="black" points="259.34,-370.52 255.84,-360.52 252.34,-370.52 259.34,-370.52"/>
</g>
<!-- BB1 -->
<g id="node2" class="node">
<title>BB1</title>
<ellipse fill="none" stroke="black" cx="255.84" cy="-180.25" rx="113.69" ry="48.17"/>
<text text-anchor="middle" x="255.84" y="-199.05" font-family="Times New Roman,serif" font-size="14.00">[4..e)</text>
<text text-anchor="middle" x="255.84" y="-184.05" font-family="Times New Roman,serif" font-size="14.00">Count: 21</text>
<text text-anchor="middle" x="255.84" y="-169.05" font-family="Times New Roman,serif" font-size="14.00">Normalized count: Infinity</text>
<text text-anchor="middle" x="255.84" y="-154.05" font-family="Times New Roman,serif" font-size="14.00">Samples weight: 0.30</text>
</g>
<!-- BB2 -->
<g id="node3" class="node">
<title>BB2</title>
<ellipse fill="none" stroke="black" cx="349.84" cy="-48.08" rx="104.8" ry="48.17"/>
<text text-anchor="middle" x="349.84" y="-66.88" font-family="Times New Roman,serif" font-size="14.00">[e..10)</text>
<text text-anchor="middle" x="349.84" y="-51.88" font-family="Times New Roman,serif" font-size="14.00">Count: 0</text>
<text text-anchor="middle" x="349.84" y="-36.88" font-family="Times New Roman,serif" font-size="14.00">Normalized count: NaN</text>
<text text-anchor="middle" x="349.84" y="-21.88" font-family="Times New Roman,serif" font-size="14.00">Samples weight: 0.00</text>
</g>
<!-- BB1&#45;&gt;BB2 -->
<g id="edge3" class="edge">
<title>BB1&#45;&gt;BB2</title>
<path fill="none" stroke="black" d="M288.46,-134.09C295.82,-123.89 303.71,-112.97 311.29,-102.47"/>
<polygon fill="black" stroke="black" points="314.27,-104.32 317.29,-94.16 308.6,-100.22 314.27,-104.32"/>
</g>
<!-- BB3 -->
<g id="node4" class="node">
<title>BB3</title>
<ellipse fill="none" stroke="black" cx="113.84" cy="-48.08" rx="113.69" ry="48.17"/>
<text text-anchor="middle" x="113.84" y="-66.88" font-family="Times New Roman,serif" font-size="14.00">[10..14)</text>
<text text-anchor="middle" x="113.84" y="-51.88" font-family="Times New Roman,serif" font-size="14.00">Count: 24</text>
<text text-anchor="middle" x="113.84" y="-36.88" font-family="Times New Roman,serif" font-size="14.00">Normalized count: Infinity</text>
<text text-anchor="middle" x="113.84" y="-21.88" font-family="Times New Roman,serif" font-size="14.00">Samples weight: 0.35</text>
</g>
<!-- BB1&#45;&gt;BB3 -->
<g id="edge2" class="edge">
<title>BB1&#45;&gt;BB3</title>
<path fill="none" stroke="black" d="M208.95,-136.27C195.87,-124.27 181.54,-111.14 168.07,-98.79"/>
<polygon fill="black" stroke="black" points="170.42,-96.2 160.68,-92.02 165.69,-101.36 170.42,-96.2"/>
</g>
<!-- BB3&#45;&gt;BB4 -->
<g id="edge4" class="edge">
<title>BB3&#45;&gt;BB4</title>
<path fill="none" stroke="black" d="M108.42,-96.29C106.35,-134.57 108.91,-188.5 132.84,-228.33 142.74,-244.79 157.29,-258.71 172.95,-270.17"/>
<polygon fill="black" stroke="black" points="171.02,-273.09 181.23,-275.93 175.03,-267.34 171.02,-273.09"/>
</g>
<!-- BB4&#45;&gt;BB1 -->
<g id="edge5" class="edge">
<title>BB4&#45;&gt;BB1</title>
<path fill="none" stroke="black" d="M255.84,-264.05C255.84,-255.79 255.84,-247.1 255.84,-238.6"/>
<polygon fill="black" stroke="black" points="259.34,-238.36 255.84,-228.36 252.34,-238.36 259.34,-238.36"/>
</g>
<!-- BB5 -->
<g id="node6" class="node">
<title>BB5</title>
<ellipse fill="none" stroke="black" cx="491.84" cy="-180.25" rx="104.8" ry="48.17"/>
<text text-anchor="middle" x="491.84" y="-199.05" font-family="Times New Roman,serif" font-size="14.00">[1c..1e)</text>
<text text-anchor="middle" x="491.84" y="-184.05" font-family="Times New Roman,serif" font-size="14.00">Count: 0</text>
<text text-anchor="middle" x="491.84" y="-169.05" font-family="Times New Roman,serif" font-size="14.00">Normalized count: NaN</text>
<text text-anchor="middle" x="491.84" y="-154.05" font-family="Times New Roman,serif" font-size="14.00">Samples weight: 0.00</text>
</g>
<!-- BB4&#45;&gt;BB5 -->
<g id="edge6" class="edge">
<title>BB4&#45;&gt;BB5</title>
<path fill="none" stroke="black" d="M324.11,-273.77C353.1,-257.78 386.99,-239.08 416.7,-222.7"/>
<polygon fill="black" stroke="black" points="418.7,-225.59 425.77,-217.69 415.32,-219.46 418.7,-225.59"/>
</g>
</g>
</svg>
