<?xml version="1.0" encoding="UTF-8" standalone="no"?>
<!DOCTYPE svg PUBLIC "-//W3C//DTD SVG 1.1//EN"
 "http://www.w3.org/Graphics/SVG/1.1/DTD/svg11.dtd">
<!-- Generated by graphviz version 2.47.0 (20210316.0004)
 -->
<!-- Title: G Pages: 1 -->
<svg width="239pt" height="421pt"
 viewBox="0.00 0.00 239.15 420.70" xmlns="http://www.w3.org/2000/svg" xmlns:xlink="http://www.w3.org/1999/xlink">
<g id="graph0" class="graph" transform="scale(1 1) rotate(0) translate(4 416.7)">
<title>G</title>
<polygon fill="white" stroke="transparent" points="-4,4 -4,-416.7 235.15,-416.7 235.15,4 -4,4"/>
<!-- BB0 -->
<g id="node1" class="node">
<title>BB0</title>
<ellipse fill="none" stroke="black" cx="139.72" cy="-385.83" rx="32.55" ry="26.74"/>
<text text-anchor="middle" x="139.72" y="-389.63" font-family="Times New Roman,serif" font-size="14.00">[0..e)</text>
<text text-anchor="middle" x="139.72" y="-374.63" font-family="Times New Roman,serif" font-size="14.00">0.03</text>
</g>
<!-- BB1 -->
<g id="node2" class="node">
<title>BB1</title>
<ellipse fill="none" stroke="black" cx="90.72" cy="-296.09" rx="37.45" ry="26.74"/>
<text text-anchor="middle" x="90.72" y="-299.89" font-family="Times New Roman,serif" font-size="14.00">[e..16)</text>
<text text-anchor="middle" x="90.72" y="-284.89" font-family="Times New Roman,serif" font-size="14.00">0.01</text>
</g>
<!-- BB0&#45;&gt;BB1 -->
<g id="edge2" class="edge">
<title>BB0&#45;&gt;BB1</title>
<path fill="none" stroke="black" d="M126.33,-360.86C121.08,-351.45 114.97,-340.51 109.3,-330.36"/>
<polygon fill="black" stroke="black" points="112.19,-328.37 104.26,-321.34 106.08,-331.78 112.19,-328.37"/>
</g>
<!-- BB6 -->
<g id="node7" class="node">
<title>BB6</title>
<ellipse fill="none" stroke="black" cx="188.72" cy="-296.09" rx="42.35" ry="26.74"/>
<text text-anchor="middle" x="188.72" y="-299.89" font-family="Times New Roman,serif" font-size="14.00">[62..64)</text>
<text text-anchor="middle" x="188.72" y="-284.89" font-family="Times New Roman,serif" font-size="14.00">0.00</text>
</g>
<!-- BB0&#45;&gt;BB6 -->
<g id="edge1" class="edge">
<title>BB0&#45;&gt;BB6</title>
<path fill="none" stroke="black" d="M153.11,-360.86C158.32,-351.53 164.37,-340.69 170,-330.62"/>
<polygon fill="black" stroke="black" points="173.18,-332.08 175,-321.65 167.07,-328.67 173.18,-332.08"/>
</g>
<!-- BB2 -->
<g id="node3" class="node">
<title>BB2</title>
<ellipse fill="none" stroke="black" cx="104.72" cy="-206.35" rx="41.94" ry="26.74"/>
<text text-anchor="middle" x="104.72" y="-210.15" font-family="Times New Roman,serif" font-size="14.00">[16..1e)</text>
<text text-anchor="middle" x="104.72" y="-195.15" font-family="Times New Roman,serif" font-size="14.00">0.03</text>
</g>
<!-- BB1&#45;&gt;BB2 -->
<g id="edge3" class="edge">
<title>BB1&#45;&gt;BB2</title>
<path fill="none" stroke="black" d="M94.84,-269.24C96.14,-261.1 97.6,-251.96 98.99,-243.26"/>
<polygon fill="black" stroke="black" points="102.46,-243.75 100.58,-233.32 95.54,-242.64 102.46,-243.75"/>
</g>
<!-- BB3 -->
<g id="node4" class="node">
<title>BB3</title>
<ellipse fill="none" stroke="black" cx="41.72" cy="-116.61" rx="41.94" ry="26.74"/>
<text text-anchor="middle" x="41.72" y="-120.41" font-family="Times New Roman,serif" font-size="14.00">[1e..2c)</text>
<text text-anchor="middle" x="41.72" y="-105.41" font-family="Times New Roman,serif" font-size="14.00">0.09</text>
</g>
<!-- BB2&#45;&gt;BB3 -->
<g id="edge5" class="edge">
<title>BB2&#45;&gt;BB3</title>
<path fill="none" stroke="black" d="M87.5,-181.37C80.43,-171.53 72.14,-159.98 64.57,-149.44"/>
<polygon fill="black" stroke="black" points="67.37,-147.33 58.7,-141.25 61.68,-151.42 67.37,-147.33"/>
</g>
<!-- BB5 -->
<g id="node6" class="node">
<title>BB5</title>
<ellipse fill="none" stroke="black" cx="143.72" cy="-116.61" rx="42.35" ry="26.74"/>
<text text-anchor="middle" x="143.72" y="-120.41" font-family="Times New Roman,serif" font-size="14.00">[46..62)</text>
<text text-anchor="middle" x="143.72" y="-105.41" font-family="Times New Roman,serif" font-size="14.00">0.40</text>
</g>
<!-- BB2&#45;&gt;BB5 -->
<g id="edge4" class="edge">
<title>BB2&#45;&gt;BB5</title>
<path fill="none" stroke="black" d="M109.99,-179.5C113.44,-170.48 117.88,-160.22 122.45,-150.69"/>
<polygon fill="black" stroke="black" points="125.71,-151.99 127.03,-141.48 119.44,-148.88 125.71,-151.99"/>
</g>
<!-- BB4 -->
<g id="node5" class="node">
<title>BB4</title>
<ellipse fill="none" stroke="black" cx="92.72" cy="-26.87" rx="42.35" ry="26.74"/>
<text text-anchor="middle" x="92.72" y="-30.67" font-family="Times New Roman,serif" font-size="14.00">[2c..46)</text>
<text text-anchor="middle" x="92.72" y="-15.67" font-family="Times New Roman,serif" font-size="14.00">0.45</text>
</g>
<!-- BB3&#45;&gt;BB4 -->
<g id="edge6" class="edge">
<title>BB3&#45;&gt;BB4</title>
<path fill="none" stroke="black" d="M55.93,-91.17C61.3,-81.93 67.5,-71.25 73.27,-61.32"/>
<polygon fill="black" stroke="black" points="76.41,-62.89 78.41,-52.48 70.36,-59.37 76.41,-62.89"/>
</g>
<!-- BB4&#45;&gt;BB4 -->
<g id="edge7" class="edge">
<title>BB4&#45;&gt;BB4</title>
<path fill="none" stroke="black" d="M126.58,-43.2C140.93,-44.43 153.15,-38.99 153.15,-26.87 153.15,-17.78 146.27,-12.45 136.78,-10.87"/>
<polygon fill="black" stroke="black" points="136.69,-7.36 126.58,-10.54 136.46,-14.36 136.69,-7.36"/>
</g>
<!-- BB4&#45;&gt;BB5 -->
<g id="edge8" class="edge">
<title>BB4&#45;&gt;BB5</title>
<path fill="none" stroke="black" d="M107.03,-52.48C112.41,-61.74 118.62,-72.43 124.38,-82.34"/>
<polygon fill="black" stroke="black" points="121.46,-84.28 129.51,-91.17 127.51,-80.77 121.46,-84.28"/>
</g>
<!-- BB5&#45;&gt;BB2 -->
<g id="edge9" class="edge">
<title>BB5&#45;&gt;BB2</title>
<path fill="none" stroke="black" d="M138.47,-143.4C135.03,-152.41 130.6,-162.64 126.04,-172.16"/>
<polygon fill="black" stroke="black" points="122.78,-170.86 121.47,-181.37 129.05,-173.97 122.78,-170.86"/>
</g>
<!-- BB5&#45;&gt;BB6 -->
<g id="edge10" class="edge">
<title>BB5&#45;&gt;BB6</title>
<path fill="none" stroke="black" d="M150.27,-143.45C158.01,-173.96 170.92,-224.88 179.62,-259.2"/>
<polygon fill="black" stroke="black" points="176.33,-260.45 182.18,-269.28 183.11,-258.73 176.33,-260.45"/>
</g>
</g>
</svg>
