<?xml version="1.0" encoding="UTF-8" standalone="no"?>
<!DOCTYPE svg PUBLIC "-//W3C//DTD SVG 1.1//EN"
 "http://www.w3.org/Graphics/SVG/1.1/DTD/svg11.dtd">
<!-- Generated by graphviz version 2.47.0 (20210316.0004)
 -->
<!-- Title: G Pages: 1 -->
<svg width="1135pt" height="416pt"
 viewBox="0.00 0.00 1134.72 415.81" xmlns="http://www.w3.org/2000/svg" xmlns:xlink="http://www.w3.org/1999/xlink">
<g id="graph0" class="graph" transform="scale(1 1) rotate(0) translate(4 411.81)">
<title>G</title>
<polygon fill="white" stroke="transparent" points="-4,4 -4,-411.81 1130.72,-411.81 1130.72,4 -4,4"/>
<!-- BB0 -->
<g id="node1" class="node">
<title>BB0</title>
<ellipse fill="none" stroke="black" cx="677.36" cy="-370.34" rx="105.22" ry="37.45"/>
<text text-anchor="middle" x="677.36" y="-381.64" font-family="Times New Roman,serif" font-size="14.00">[0..6)</text>
<text text-anchor="middle" x="677.36" y="-366.64" font-family="Times New Roman,serif" font-size="14.00">Normalized Count: 1.00</text>
<text text-anchor="middle" x="677.36" y="-351.64" font-family="Times New Roman,serif" font-size="14.00">Samples weight: 0.21</text>
</g>
<!-- BB1 -->
<g id="node2" class="node">
<title>BB1</title>
<ellipse fill="none" stroke="black" cx="563.36" cy="-259.38" rx="105.22" ry="37.45"/>
<text text-anchor="middle" x="563.36" y="-270.68" font-family="Times New Roman,serif" font-size="14.00">[6..c)</text>
<text text-anchor="middle" x="563.36" y="-255.68" font-family="Times New Roman,serif" font-size="14.00">Normalized Count: 0.68</text>
<text text-anchor="middle" x="563.36" y="-240.68" font-family="Times New Roman,serif" font-size="14.00">Samples weight: 0.14</text>
</g>
<!-- BB0&#45;&gt;BB1 -->
<g id="edge2" class="edge">
<title>BB0&#45;&gt;BB1</title>
<path fill="none" stroke="black" d="M641.29,-334.86C630.27,-324.33 618.03,-312.63 606.58,-301.69"/>
<polygon fill="black" stroke="black" points="608.84,-299.01 599.19,-294.63 604.01,-304.07 608.84,-299.01"/>
</g>
<!-- BB6 -->
<g id="node7" class="node">
<title>BB6</title>
<ellipse fill="none" stroke="black" cx="792.36" cy="-259.38" rx="105.22" ry="37.45"/>
<text text-anchor="middle" x="792.36" y="-270.68" font-family="Times New Roman,serif" font-size="14.00">[21..27)</text>
<text text-anchor="middle" x="792.36" y="-255.68" font-family="Times New Roman,serif" font-size="14.00">Normalized Count: 0.32</text>
<text text-anchor="middle" x="792.36" y="-240.68" font-family="Times New Roman,serif" font-size="14.00">Samples weight: 0.07</text>
</g>
<!-- BB0&#45;&gt;BB6 -->
<g id="edge1" class="edge">
<title>BB0&#45;&gt;BB6</title>
<path fill="none" stroke="black" d="M713.75,-334.86C724.87,-324.33 737.21,-312.63 748.76,-301.69"/>
<polygon fill="black" stroke="black" points="751.36,-304.05 756.21,-294.63 746.54,-298.97 751.36,-304.05"/>
</g>
<!-- BB2 -->
<g id="node3" class="node">
<title>BB2</title>
<ellipse fill="none" stroke="black" cx="792.36" cy="-148.43" rx="105.22" ry="37.45"/>
<text text-anchor="middle" x="792.36" y="-159.73" font-family="Times New Roman,serif" font-size="14.00">[c..11)</text>
<text text-anchor="middle" x="792.36" y="-144.73" font-family="Times New Roman,serif" font-size="14.00">Normalized Count: 0.33</text>
<text text-anchor="middle" x="792.36" y="-129.73" font-family="Times New Roman,serif" font-size="14.00">Samples weight: 0.07</text>
</g>
<!-- BB1&#45;&gt;BB2 -->
<g id="edge4" class="edge">
<title>BB1&#45;&gt;BB2</title>
<path fill="none" stroke="black" d="M625.33,-228.9C654.86,-214.85 690.34,-197.97 720.99,-183.38"/>
<polygon fill="black" stroke="black" points="722.81,-186.39 730.34,-178.94 719.8,-180.07 722.81,-186.39"/>
</g>
<!-- BB3 -->
<g id="node4" class="node">
<title>BB3</title>
<ellipse fill="none" stroke="black" cx="334.36" cy="-148.43" rx="105.22" ry="37.45"/>
<text text-anchor="middle" x="334.36" y="-159.73" font-family="Times New Roman,serif" font-size="14.00">[11..17)</text>
<text text-anchor="middle" x="334.36" y="-144.73" font-family="Times New Roman,serif" font-size="14.00">Normalized Count: 0.35</text>
<text text-anchor="middle" x="334.36" y="-129.73" font-family="Times New Roman,serif" font-size="14.00">Samples weight: 0.07</text>
</g>
<!-- BB1&#45;&gt;BB3 -->
<g id="edge3" class="edge">
<title>BB1&#45;&gt;BB3</title>
<path fill="none" stroke="black" d="M501.39,-228.9C471.86,-214.85 436.38,-197.97 405.72,-183.38"/>
<polygon fill="black" stroke="black" points="406.91,-180.07 396.38,-178.94 403.91,-186.39 406.91,-180.07"/>
</g>
<!-- BB11 -->
<g id="node12" class="node">
<title>BB11</title>
<ellipse fill="none" stroke="black" cx="1021.36" cy="-37.48" rx="105.22" ry="37.45"/>
<text text-anchor="middle" x="1021.36" y="-48.78" font-family="Times New Roman,serif" font-size="14.00">[3a..3c)</text>
<text text-anchor="middle" x="1021.36" y="-33.78" font-family="Times New Roman,serif" font-size="14.00">Normalized Count: 1.00</text>
<text text-anchor="middle" x="1021.36" y="-18.78" font-family="Times New Roman,serif" font-size="14.00">Samples weight: 0.21</text>
</g>
<!-- BB2&#45;&gt;BB11 -->
<g id="edge5" class="edge">
<title>BB2&#45;&gt;BB11</title>
<path fill="none" stroke="black" d="M854.33,-117.95C883.86,-103.9 919.34,-87.01 949.99,-72.43"/>
<polygon fill="black" stroke="black" points="951.81,-75.44 959.34,-67.98 948.8,-69.12 951.81,-75.44"/>
</g>
<!-- BB4 -->
<g id="node5" class="node">
<title>BB4</title>
<ellipse fill="none" stroke="black" cx="334.36" cy="-37.48" rx="105.22" ry="37.45"/>
<text text-anchor="middle" x="334.36" y="-48.78" font-family="Times New Roman,serif" font-size="14.00">[17..1c)</text>
<text text-anchor="middle" x="334.36" y="-33.78" font-family="Times New Roman,serif" font-size="14.00">Normalized Count: 0.00</text>
<text text-anchor="middle" x="334.36" y="-18.78" font-family="Times New Roman,serif" font-size="14.00">Samples weight: 0.00</text>
</g>
<!-- BB3&#45;&gt;BB4 -->
<g id="edge7" class="edge">
<title>BB3&#45;&gt;BB4</title>
<path fill="none" stroke="black" d="M334.36,-110.85C334.36,-102.67 334.36,-93.89 334.36,-85.37"/>
<polygon fill="black" stroke="black" points="337.86,-85.15 334.36,-75.15 330.86,-85.15 337.86,-85.15"/>
</g>
<!-- BB5 -->
<g id="node6" class="node">
<title>BB5</title>
<ellipse fill="none" stroke="black" cx="105.36" cy="-37.48" rx="105.22" ry="37.45"/>
<text text-anchor="middle" x="105.36" y="-48.78" font-family="Times New Roman,serif" font-size="14.00">[1c..21)</text>
<text text-anchor="middle" x="105.36" y="-33.78" font-family="Times New Roman,serif" font-size="14.00">Normalized Count: 0.35</text>
<text text-anchor="middle" x="105.36" y="-18.78" font-family="Times New Roman,serif" font-size="14.00">Samples weight: 0.07</text>
</g>
<!-- BB3&#45;&gt;BB5 -->
<g id="edge6" class="edge">
<title>BB3&#45;&gt;BB5</title>
<path fill="none" stroke="black" d="M272.39,-117.95C242.86,-103.9 207.38,-87.01 176.72,-72.43"/>
<polygon fill="black" stroke="black" points="177.91,-69.12 167.38,-67.98 174.91,-75.44 177.91,-69.12"/>
</g>
<!-- BB4&#45;&gt;BB11 -->
<g id="edge8" class="edge">
<title>BB4&#45;&gt;BB11</title>
<path fill="none" stroke="black" d="M391.62,-69.13C412.05,-78.77 435.64,-88.1 458.36,-92.95 553.76,-113.32 801.95,-113.32 897.36,-92.95 916.7,-88.82 936.69,-81.44 954.81,-73.39"/>
<polygon fill="black" stroke="black" points="956.47,-76.48 964.1,-69.13 953.55,-70.11 956.47,-76.48"/>
</g>
<!-- BB5&#45;&gt;BB11 -->
<g id="edge9" class="edge">
<title>BB5&#45;&gt;BB11</title>
<path fill="none" stroke="black" d="M162.62,-69.13C183.05,-78.77 206.64,-88.1 229.36,-92.95 301.95,-108.45 824.77,-108.45 897.36,-92.95 916.7,-88.82 936.69,-81.44 954.81,-73.39"/>
<polygon fill="black" stroke="black" points="956.47,-76.48 964.1,-69.13 953.55,-70.11 956.47,-76.48"/>
</g>
<!-- BB7 -->
<g id="node8" class="node">
<title>BB7</title>
<ellipse fill="none" stroke="black" cx="1021.36" cy="-148.43" rx="105.22" ry="37.45"/>
<text text-anchor="middle" x="1021.36" y="-159.73" font-family="Times New Roman,serif" font-size="14.00">[27..2c)</text>
<text text-anchor="middle" x="1021.36" y="-144.73" font-family="Times New Roman,serif" font-size="14.00">Normalized Count: 0.00</text>
<text text-anchor="middle" x="1021.36" y="-129.73" font-family="Times New Roman,serif" font-size="14.00">Samples weight: 0.00</text>
</g>
<!-- BB6&#45;&gt;BB7 -->
<g id="edge11" class="edge">
<title>BB6&#45;&gt;BB7</title>
<path fill="none" stroke="black" d="M854.33,-228.9C883.86,-214.85 919.34,-197.97 949.99,-183.38"/>
<polygon fill="black" stroke="black" points="951.81,-186.39 959.34,-178.94 948.8,-180.07 951.81,-186.39"/>
</g>
<!-- BB8 -->
<g id="node9" class="node">
<title>BB8</title>
<ellipse fill="none" stroke="black" cx="563.36" cy="-148.43" rx="105.22" ry="37.45"/>
<text text-anchor="middle" x="563.36" y="-159.73" font-family="Times New Roman,serif" font-size="14.00">[2c..32)</text>
<text text-anchor="middle" x="563.36" y="-144.73" font-family="Times New Roman,serif" font-size="14.00">Normalized Count: 0.32</text>
<text text-anchor="middle" x="563.36" y="-129.73" font-family="Times New Roman,serif" font-size="14.00">Samples weight: 0.07</text>
</g>
<!-- BB6&#45;&gt;BB8 -->
<g id="edge10" class="edge">
<title>BB6&#45;&gt;BB8</title>
<path fill="none" stroke="black" d="M730.39,-228.9C700.86,-214.85 665.38,-197.97 634.72,-183.38"/>
<polygon fill="black" stroke="black" points="635.91,-180.07 625.38,-178.94 632.91,-186.39 635.91,-180.07"/>
</g>
<!-- BB7&#45;&gt;BB11 -->
<g id="edge12" class="edge">
<title>BB7&#45;&gt;BB11</title>
<path fill="none" stroke="black" d="M1021.36,-110.85C1021.36,-102.67 1021.36,-93.89 1021.36,-85.37"/>
<polygon fill="black" stroke="black" points="1024.86,-85.15 1021.36,-75.15 1017.86,-85.15 1024.86,-85.15"/>
</g>
<!-- BB9 -->
<g id="node10" class="node">
<title>BB9</title>
<ellipse fill="none" stroke="black" cx="792.36" cy="-37.48" rx="105.22" ry="37.45"/>
<text text-anchor="middle" x="792.36" y="-48.78" font-family="Times New Roman,serif" font-size="14.00">[32..37)</text>
<text text-anchor="middle" x="792.36" y="-33.78" font-family="Times New Roman,serif" font-size="14.00">Normalized Count: 0.32</text>
<text text-anchor="middle" x="792.36" y="-18.78" font-family="Times New Roman,serif" font-size="14.00">Samples weight: 0.07</text>
</g>
<!-- BB8&#45;&gt;BB9 -->
<g id="edge14" class="edge">
<title>BB8&#45;&gt;BB9</title>
<path fill="none" stroke="black" d="M625.33,-117.95C654.86,-103.9 690.34,-87.01 720.99,-72.43"/>
<polygon fill="black" stroke="black" points="722.81,-75.44 730.34,-67.98 719.8,-69.12 722.81,-75.44"/>
</g>
<!-- BB10 -->
<g id="node11" class="node">
<title>BB10</title>
<ellipse fill="none" stroke="black" cx="563.36" cy="-37.48" rx="105.22" ry="37.45"/>
<text text-anchor="middle" x="563.36" y="-48.78" font-family="Times New Roman,serif" font-size="14.00">[37..3a)</text>
<text text-anchor="middle" x="563.36" y="-33.78" font-family="Times New Roman,serif" font-size="14.00">Normalized Count: 0.00</text>
<text text-anchor="middle" x="563.36" y="-18.78" font-family="Times New Roman,serif" font-size="14.00">Samples weight: 0.00</text>
</g>
<!-- BB8&#45;&gt;BB10 -->
<g id="edge13" class="edge">
<title>BB8&#45;&gt;BB10</title>
<path fill="none" stroke="black" d="M563.36,-110.85C563.36,-102.67 563.36,-93.89 563.36,-85.37"/>
<polygon fill="black" stroke="black" points="566.86,-85.15 563.36,-75.15 559.86,-85.15 566.86,-85.15"/>
</g>
<!-- BB9&#45;&gt;BB11 -->
<g id="edge15" class="edge">
<title>BB9&#45;&gt;BB11</title>
<path fill="none" stroke="black" d="M897.91,-37.48C900.52,-37.48 903.12,-37.48 905.72,-37.48"/>
<polygon fill="black" stroke="black" points="905.76,-40.98 915.76,-37.48 905.76,-33.98 905.76,-40.98"/>
</g>
<!-- BB10&#45;&gt;BB11 -->
<g id="edge16" class="edge">
<title>BB10&#45;&gt;BB11</title>
<path fill="none" stroke="black" d="M620.62,-69.13C641.05,-78.77 664.64,-88.1 687.36,-92.95 778.64,-112.44 806.08,-112.44 897.36,-92.95 916.7,-88.82 936.69,-81.44 954.81,-73.39"/>
<polygon fill="black" stroke="black" points="956.47,-76.48 964.1,-69.13 953.55,-70.11 956.47,-76.48"/>
</g>
</g>
</svg>
