<?xml version="1.0" encoding="UTF-8" standalone="no"?>
<!DOCTYPE svg PUBLIC "-//W3C//DTD SVG 1.1//EN"
 "http://www.w3.org/Graphics/SVG/1.1/DTD/svg11.dtd">
<!-- Generated by graphviz version 2.47.0 (20210316.0004)
 -->
<!-- Title: G Pages: 1 -->
<svg width="598pt" height="1082pt"
 viewBox="0.00 0.00 597.62 1081.53" xmlns="http://www.w3.org/2000/svg" xmlns:xlink="http://www.w3.org/1999/xlink">
<g id="graph0" class="graph" transform="scale(1 1) rotate(0) translate(4 1077.53)">
<title>G</title>
<polygon fill="white" stroke="transparent" points="-4,4 -4,-1077.53 593.62,-1077.53 593.62,4 -4,4"/>
<!-- BB0 -->
<g id="node1" class="node">
<title>BB0</title>
<ellipse fill="none" stroke="black" cx="248.31" cy="-1036.06" rx="105.22" ry="37.45"/>
<text text-anchor="middle" x="248.31" y="-1047.36" font-family="Times New Roman,serif" font-size="14.00">[0..31)</text>
<text text-anchor="middle" x="248.31" y="-1032.36" font-family="Times New Roman,serif" font-size="14.00">Normalized Count: 1.00</text>
<text text-anchor="middle" x="248.31" y="-1017.36" font-family="Times New Roman,serif" font-size="14.00">Samples weight: 0.01</text>
</g>
<!-- BB13 -->
<g id="node14" class="node">
<title>BB13</title>
<ellipse fill="none" stroke="black" cx="248.31" cy="-925.1" rx="110.12" ry="37.45"/>
<text text-anchor="middle" x="248.31" y="-936.4" font-family="Times New Roman,serif" font-size="14.00">[162..16b)</text>
<text text-anchor="middle" x="248.31" y="-921.4" font-family="Times New Roman,serif" font-size="14.00">Normalized Count: 12.50</text>
<text text-anchor="middle" x="248.31" y="-906.4" font-family="Times New Roman,serif" font-size="14.00">Samples weight: 0.13</text>
</g>
<!-- BB0&#45;&gt;BB13 -->
<g id="edge1" class="edge">
<title>BB0&#45;&gt;BB13</title>
<path fill="none" stroke="black" d="M248.31,-998.47C248.31,-990.3 248.31,-981.52 248.31,-972.99"/>
<polygon fill="black" stroke="black" points="251.81,-972.78 248.31,-962.78 244.81,-972.78 251.81,-972.78"/>
</g>
<!-- BB1 -->
<g id="node2" class="node">
<title>BB1</title>
<ellipse fill="none" stroke="black" cx="248.31" cy="-814.15" rx="110.12" ry="37.45"/>
<text text-anchor="middle" x="248.31" y="-825.45" font-family="Times New Roman,serif" font-size="14.00">[31..6a)</text>
<text text-anchor="middle" x="248.31" y="-810.45" font-family="Times New Roman,serif" font-size="14.00">Normalized Count: 11.50</text>
<text text-anchor="middle" x="248.31" y="-795.45" font-family="Times New Roman,serif" font-size="14.00">Samples weight: 0.12</text>
</g>
<!-- BB2 -->
<g id="node3" class="node">
<title>BB2</title>
<ellipse fill="none" stroke="black" cx="245.31" cy="-703.2" rx="105.22" ry="37.45"/>
<text text-anchor="middle" x="245.31" y="-714.5" font-family="Times New Roman,serif" font-size="14.00">[6a..7c)</text>
<text text-anchor="middle" x="245.31" y="-699.5" font-family="Times New Roman,serif" font-size="14.00">Normalized Count: 0.00</text>
<text text-anchor="middle" x="245.31" y="-684.5" font-family="Times New Roman,serif" font-size="14.00">Samples weight: 0.00</text>
</g>
<!-- BB1&#45;&gt;BB2 -->
<g id="edge3" class="edge">
<title>BB1&#45;&gt;BB2</title>
<path fill="none" stroke="black" d="M247.3,-776.57C247.08,-768.39 246.83,-759.61 246.6,-751.09"/>
<polygon fill="black" stroke="black" points="250.09,-750.77 246.32,-740.87 243.1,-750.96 250.09,-750.77"/>
</g>
<!-- BB3 -->
<g id="node4" class="node">
<title>BB3</title>
<ellipse fill="none" stroke="black" cx="479.31" cy="-703.2" rx="110.12" ry="37.45"/>
<text text-anchor="middle" x="479.31" y="-714.5" font-family="Times New Roman,serif" font-size="14.00">[7c..7d)</text>
<text text-anchor="middle" x="479.31" y="-699.5" font-family="Times New Roman,serif" font-size="14.00">Normalized Count: 11.50</text>
<text text-anchor="middle" x="479.31" y="-684.5" font-family="Times New Roman,serif" font-size="14.00">Samples weight: 0.12</text>
</g>
<!-- BB1&#45;&gt;BB3 -->
<g id="edge2" class="edge">
<title>BB1&#45;&gt;BB3</title>
<path fill="none" stroke="black" d="M311.43,-783.38C340.85,-769.5 376.02,-752.92 406.55,-738.51"/>
<polygon fill="black" stroke="black" points="408.31,-741.55 415.86,-734.12 405.32,-735.22 408.31,-741.55"/>
</g>
<!-- BB4 -->
<g id="node5" class="node">
<title>BB4</title>
<ellipse fill="none" stroke="black" cx="296.31" cy="-592.24" rx="110.12" ry="37.45"/>
<text text-anchor="middle" x="296.31" y="-603.54" font-family="Times New Roman,serif" font-size="14.00">[7d..82)</text>
<text text-anchor="middle" x="296.31" y="-588.54" font-family="Times New Roman,serif" font-size="14.00">Normalized Count: 11.50</text>
<text text-anchor="middle" x="296.31" y="-573.54" font-family="Times New Roman,serif" font-size="14.00">Samples weight: 0.12</text>
</g>
<!-- BB2&#45;&gt;BB4 -->
<g id="edge4" class="edge">
<title>BB2&#45;&gt;BB4</title>
<path fill="none" stroke="black" d="M262.29,-665.92C266.38,-657.19 270.79,-647.75 275.05,-638.67"/>
<polygon fill="black" stroke="black" points="278.33,-639.91 279.4,-629.36 271.99,-636.94 278.33,-639.91"/>
</g>
<!-- BB3&#45;&gt;BB4 -->
<g id="edge5" class="edge">
<title>BB3&#45;&gt;BB4</title>
<path fill="none" stroke="black" d="M425.89,-670.39C404.84,-657.86 380.52,-643.38 358.67,-630.37"/>
<polygon fill="black" stroke="black" points="360.18,-627.2 349.8,-625.09 356.6,-633.21 360.18,-627.2"/>
</g>
<!-- BB5 -->
<g id="node6" class="node">
<title>BB5</title>
<ellipse fill="none" stroke="black" cx="344.31" cy="-481.29" rx="105.22" ry="37.45"/>
<text text-anchor="middle" x="344.31" y="-492.59" font-family="Times New Roman,serif" font-size="14.00">[82..95)</text>
<text text-anchor="middle" x="344.31" y="-477.59" font-family="Times New Roman,serif" font-size="14.00">Normalized Count: 7.50</text>
<text text-anchor="middle" x="344.31" y="-462.59" font-family="Times New Roman,serif" font-size="14.00">Samples weight: 0.08</text>
</g>
<!-- BB4&#45;&gt;BB5 -->
<g id="edge7" class="edge">
<title>BB4&#45;&gt;BB5</title>
<path fill="none" stroke="black" d="M312.29,-554.96C316.14,-546.23 320.29,-536.8 324.3,-527.71"/>
<polygon fill="black" stroke="black" points="327.57,-528.97 328.4,-518.41 321.16,-526.15 327.57,-528.97"/>
</g>
<!-- BB12 -->
<g id="node13" class="node">
<title>BB12</title>
<ellipse fill="none" stroke="black" cx="110.31" cy="-481.29" rx="110.12" ry="37.45"/>
<text text-anchor="middle" x="110.31" y="-492.59" font-family="Times New Roman,serif" font-size="14.00">[15e..162)</text>
<text text-anchor="middle" x="110.31" y="-477.59" font-family="Times New Roman,serif" font-size="14.00">Normalized Count: 11.50</text>
<text text-anchor="middle" x="110.31" y="-462.59" font-family="Times New Roman,serif" font-size="14.00">Samples weight: 0.12</text>
</g>
<!-- BB4&#45;&gt;BB12 -->
<g id="edge6" class="edge">
<title>BB4&#45;&gt;BB12</title>
<path fill="none" stroke="black" d="M242.01,-559.44C220.52,-546.85 195.68,-532.3 173.4,-519.25"/>
<polygon fill="black" stroke="black" points="175.07,-516.17 164.68,-514.14 171.53,-522.21 175.07,-516.17"/>
</g>
<!-- BB6 -->
<g id="node7" class="node">
<title>BB6</title>
<ellipse fill="none" stroke="black" cx="243.31" cy="-370.34" rx="105.22" ry="37.45"/>
<text text-anchor="middle" x="243.31" y="-381.64" font-family="Times New Roman,serif" font-size="14.00">[95..b7)</text>
<text text-anchor="middle" x="243.31" y="-366.64" font-family="Times New Roman,serif" font-size="14.00">Normalized Count: 0.50</text>
<text text-anchor="middle" x="243.31" y="-351.64" font-family="Times New Roman,serif" font-size="14.00">Samples weight: 0.01</text>
</g>
<!-- BB5&#45;&gt;BB6 -->
<g id="edge9" class="edge">
<title>BB5&#45;&gt;BB6</title>
<path fill="none" stroke="black" d="M312.07,-445.52C302.69,-435.39 292.33,-424.22 282.57,-413.69"/>
<polygon fill="black" stroke="black" points="284.95,-411.11 275.58,-406.15 279.82,-415.87 284.95,-411.11"/>
</g>
<!-- BB7 -->
<g id="node8" class="node">
<title>BB7</title>
<ellipse fill="none" stroke="black" cx="472.31" cy="-370.34" rx="105.22" ry="37.45"/>
<text text-anchor="middle" x="472.31" y="-381.64" font-family="Times New Roman,serif" font-size="14.00">[b7..c5)</text>
<text text-anchor="middle" x="472.31" y="-366.64" font-family="Times New Roman,serif" font-size="14.00">Normalized Count: 7.00</text>
<text text-anchor="middle" x="472.31" y="-351.64" font-family="Times New Roman,serif" font-size="14.00">Samples weight: 0.07</text>
</g>
<!-- BB5&#45;&gt;BB7 -->
<g id="edge8" class="edge">
<title>BB5&#45;&gt;BB7</title>
<path fill="none" stroke="black" d="M384.11,-446.41C396.99,-435.45 411.41,-423.18 424.79,-411.78"/>
<polygon fill="black" stroke="black" points="427.19,-414.34 432.53,-405.19 422.65,-409.01 427.19,-414.34"/>
</g>
<!-- BB8 -->
<g id="node9" class="node">
<title>BB8</title>
<ellipse fill="none" stroke="black" cx="357.31" cy="-259.38" rx="105.22" ry="37.45"/>
<text text-anchor="middle" x="357.31" y="-270.68" font-family="Times New Roman,serif" font-size="14.00">[c5..e0)</text>
<text text-anchor="middle" x="357.31" y="-255.68" font-family="Times New Roman,serif" font-size="14.00">Normalized Count: 7.50</text>
<text text-anchor="middle" x="357.31" y="-240.68" font-family="Times New Roman,serif" font-size="14.00">Samples weight: 0.08</text>
</g>
<!-- BB6&#45;&gt;BB8 -->
<g id="edge10" class="edge">
<title>BB6&#45;&gt;BB8</title>
<path fill="none" stroke="black" d="M279.38,-334.86C290.4,-324.33 302.64,-312.63 314.09,-301.69"/>
<polygon fill="black" stroke="black" points="316.66,-304.07 321.47,-294.63 311.83,-299.01 316.66,-304.07"/>
</g>
<!-- BB7&#45;&gt;BB8 -->
<g id="edge11" class="edge">
<title>BB7&#45;&gt;BB8</title>
<path fill="none" stroke="black" d="M435.92,-334.86C424.8,-324.33 412.46,-312.63 400.91,-301.69"/>
<polygon fill="black" stroke="black" points="403.13,-298.97 393.46,-294.63 398.31,-304.05 403.13,-298.97"/>
</g>
<!-- BB9 -->
<g id="node10" class="node">
<title>BB9</title>
<ellipse fill="none" stroke="black" cx="243.31" cy="-148.43" rx="105.22" ry="37.45"/>
<text text-anchor="middle" x="243.31" y="-159.73" font-family="Times New Roman,serif" font-size="14.00">[e0..102)</text>
<text text-anchor="middle" x="243.31" y="-144.73" font-family="Times New Roman,serif" font-size="14.00">Normalized Count: 0.50</text>
<text text-anchor="middle" x="243.31" y="-129.73" font-family="Times New Roman,serif" font-size="14.00">Samples weight: 0.01</text>
</g>
<!-- BB8&#45;&gt;BB9 -->
<g id="edge13" class="edge">
<title>BB8&#45;&gt;BB9</title>
<path fill="none" stroke="black" d="M321.24,-223.91C310.22,-213.37 297.98,-201.68 286.53,-190.74"/>
<polygon fill="black" stroke="black" points="288.79,-188.06 279.14,-183.68 283.96,-193.12 288.79,-188.06"/>
</g>
<!-- BB10 -->
<g id="node11" class="node">
<title>BB10</title>
<ellipse fill="none" stroke="black" cx="472.31" cy="-148.43" rx="105.22" ry="37.45"/>
<text text-anchor="middle" x="472.31" y="-159.73" font-family="Times New Roman,serif" font-size="14.00">[102..120)</text>
<text text-anchor="middle" x="472.31" y="-144.73" font-family="Times New Roman,serif" font-size="14.00">Normalized Count: 7.00</text>
<text text-anchor="middle" x="472.31" y="-129.73" font-family="Times New Roman,serif" font-size="14.00">Samples weight: 0.07</text>
</g>
<!-- BB8&#45;&gt;BB10 -->
<g id="edge12" class="edge">
<title>BB8&#45;&gt;BB10</title>
<path fill="none" stroke="black" d="M393.7,-223.91C404.82,-213.37 417.16,-201.68 428.71,-190.74"/>
<polygon fill="black" stroke="black" points="431.31,-193.1 436.16,-183.68 426.49,-188.02 431.31,-193.1"/>
</g>
<!-- BB11 -->
<g id="node12" class="node">
<title>BB11</title>
<ellipse fill="none" stroke="black" cx="243.31" cy="-37.48" rx="105.22" ry="37.45"/>
<text text-anchor="middle" x="243.31" y="-48.78" font-family="Times New Roman,serif" font-size="14.00">[120..15e)</text>
<text text-anchor="middle" x="243.31" y="-33.78" font-family="Times New Roman,serif" font-size="14.00">Normalized Count: 7.50</text>
<text text-anchor="middle" x="243.31" y="-18.78" font-family="Times New Roman,serif" font-size="14.00">Samples weight: 0.08</text>
</g>
<!-- BB9&#45;&gt;BB11 -->
<g id="edge14" class="edge">
<title>BB9&#45;&gt;BB11</title>
<path fill="none" stroke="black" d="M243.31,-110.85C243.31,-102.67 243.31,-93.89 243.31,-85.37"/>
<polygon fill="black" stroke="black" points="246.81,-85.15 243.31,-75.15 239.81,-85.15 246.81,-85.15"/>
</g>
<!-- BB10&#45;&gt;BB11 -->
<g id="edge15" class="edge">
<title>BB10&#45;&gt;BB11</title>
<path fill="none" stroke="black" d="M410.34,-117.95C380.81,-103.9 345.33,-87.01 314.67,-72.43"/>
<polygon fill="black" stroke="black" points="315.86,-69.12 305.33,-67.98 312.86,-75.44 315.86,-69.12"/>
</g>
<!-- BB11&#45;&gt;BB12 -->
<g id="edge16" class="edge">
<title>BB11&#45;&gt;BB12</title>
<path fill="none" stroke="black" d="M176.28,-66.65C157.96,-77.71 140.18,-92.31 129.31,-110.95 69.61,-213.32 86.12,-360.06 99.98,-433.98"/>
<polygon fill="black" stroke="black" points="96.56,-434.77 101.91,-443.92 103.44,-433.43 96.56,-434.77"/>
</g>
<!-- BB12&#45;&gt;BB13 -->
<g id="edge17" class="edge">
<title>BB12&#45;&gt;BB13</title>
<path fill="none" stroke="black" d="M101.72,-518.77C87.33,-588.91 65.77,-745.05 129.31,-851.63 138.82,-867.58 153.33,-880.48 168.99,-890.73"/>
<polygon fill="black" stroke="black" points="167.43,-893.88 177.78,-896.15 171.1,-887.93 167.43,-893.88"/>
</g>
<!-- BB13&#45;&gt;BB1 -->
<g id="edge18" class="edge">
<title>BB13&#45;&gt;BB1</title>
<path fill="none" stroke="black" d="M248.31,-887.52C248.31,-879.35 248.31,-870.57 248.31,-862.04"/>
<polygon fill="black" stroke="black" points="251.81,-861.82 248.31,-851.82 244.81,-861.82 251.81,-861.82"/>
</g>
<!-- BB14 -->
<g id="node15" class="node">
<title>BB14</title>
<ellipse fill="none" stroke="black" cx="482.31" cy="-814.15" rx="105.22" ry="37.45"/>
<text text-anchor="middle" x="482.31" y="-825.45" font-family="Times New Roman,serif" font-size="14.00">[16b..16d)</text>
<text text-anchor="middle" x="482.31" y="-810.45" font-family="Times New Roman,serif" font-size="14.00">Normalized Count: 1.00</text>
<text text-anchor="middle" x="482.31" y="-795.45" font-family="Times New Roman,serif" font-size="14.00">Samples weight: 0.01</text>
</g>
<!-- BB13&#45;&gt;BB14 -->
<g id="edge19" class="edge">
<title>BB13&#45;&gt;BB14</title>
<path fill="none" stroke="black" d="M311.94,-894.48C342.37,-880.31 378.92,-863.29 410.35,-848.65"/>
<polygon fill="black" stroke="black" points="411.91,-851.79 419.5,-844.39 408.96,-845.44 411.91,-851.79"/>
</g>
</g>
</svg>
