<?xml version="1.0" encoding="UTF-8" standalone="no"?>
<!DOCTYPE svg PUBLIC "-//W3C//DTD SVG 1.1//EN"
 "http://www.w3.org/Graphics/SVG/1.1/DTD/svg11.dtd">
<!-- Generated by graphviz version 2.47.0 (20210316.0004)
 -->
<!-- Title: G Pages: 1 -->
<svg width="820pt" height="1303pt"
 viewBox="0.00 0.00 819.72 1303.44" xmlns="http://www.w3.org/2000/svg" xmlns:xlink="http://www.w3.org/1999/xlink">
<g id="graph0" class="graph" transform="scale(1 1) rotate(0) translate(4 1299.44)">
<title>G</title>
<polygon fill="white" stroke="transparent" points="-4,4 -4,-1299.44 815.72,-1299.44 815.72,4 -4,4"/>
<!-- BB0 -->
<g id="node1" class="node">
<title>BB0</title>
<ellipse fill="none" stroke="black" cx="291.36" cy="-1257.96" rx="105.22" ry="37.45"/>
<text text-anchor="middle" x="291.36" y="-1269.26" font-family="Times New Roman,serif" font-size="14.00">[0..a)</text>
<text text-anchor="middle" x="291.36" y="-1254.26" font-family="Times New Roman,serif" font-size="14.00">Normalized Count: 1.00</text>
<text text-anchor="middle" x="291.36" y="-1239.26" font-family="Times New Roman,serif" font-size="14.00">Samples weight: 0.01</text>
</g>
<!-- BB1 -->
<g id="node2" class="node">
<title>BB1</title>
<ellipse fill="none" stroke="black" cx="291.36" cy="-1147.01" rx="110.12" ry="37.45"/>
<text text-anchor="middle" x="291.36" y="-1158.31" font-family="Times New Roman,serif" font-size="14.00">[a..12)</text>
<text text-anchor="middle" x="291.36" y="-1143.31" font-family="Times New Roman,serif" font-size="14.00">Normalized Count: 10.00</text>
<text text-anchor="middle" x="291.36" y="-1128.31" font-family="Times New Roman,serif" font-size="14.00">Samples weight: 0.07</text>
</g>
<!-- BB0&#45;&gt;BB1 -->
<g id="edge1" class="edge">
<title>BB0&#45;&gt;BB1</title>
<path fill="none" stroke="black" d="M291.36,-1220.38C291.36,-1212.21 291.36,-1203.43 291.36,-1194.9"/>
<polygon fill="black" stroke="black" points="294.86,-1194.68 291.36,-1184.68 287.86,-1194.68 294.86,-1194.68"/>
</g>
<!-- BB3 -->
<g id="node4" class="node">
<title>BB3</title>
<ellipse fill="none" stroke="black" cx="222.36" cy="-1036.06" rx="110.12" ry="37.45"/>
<text text-anchor="middle" x="222.36" y="-1047.36" font-family="Times New Roman,serif" font-size="14.00">[16..1e)</text>
<text text-anchor="middle" x="222.36" y="-1032.36" font-family="Times New Roman,serif" font-size="14.00">Normalized Count: 10.50</text>
<text text-anchor="middle" x="222.36" y="-1017.36" font-family="Times New Roman,serif" font-size="14.00">Samples weight: 0.08</text>
</g>
<!-- BB1&#45;&gt;BB3 -->
<g id="edge2" class="edge">
<title>BB1&#45;&gt;BB3</title>
<path fill="none" stroke="black" d="M268.57,-1110.03C262.8,-1100.92 256.54,-1091.03 250.54,-1081.55"/>
<polygon fill="black" stroke="black" points="253.43,-1079.57 245.12,-1073 247.51,-1083.32 253.43,-1079.57"/>
</g>
<!-- BB2 -->
<g id="node3" class="node">
<title>BB2</title>
<ellipse fill="none" stroke="black" cx="105.36" cy="-925.1" rx="105.22" ry="37.45"/>
<text text-anchor="middle" x="105.36" y="-936.4" font-family="Times New Roman,serif" font-size="14.00">[12..16)</text>
<text text-anchor="middle" x="105.36" y="-921.4" font-family="Times New Roman,serif" font-size="14.00">Normalized Count: 0.50</text>
<text text-anchor="middle" x="105.36" y="-906.4" font-family="Times New Roman,serif" font-size="14.00">Samples weight: 0.00</text>
</g>
<!-- BB2&#45;&gt;BB3 -->
<g id="edge3" class="edge">
<title>BB2&#45;&gt;BB3</title>
<path fill="none" stroke="black" d="M147.64,-959.63C159.41,-970.13 172.1,-981.85 183.65,-992.87"/>
<polygon fill="black" stroke="black" points="181.42,-995.58 191.05,-999.98 186.27,-990.53 181.42,-995.58"/>
</g>
<!-- BB3&#45;&gt;BB2 -->
<g id="edge4" class="edge">
<title>BB3&#45;&gt;BB2</title>
<path fill="none" stroke="black" d="M179.68,-1001.18C167.98,-990.73 155.38,-979.09 143.92,-968.15"/>
<polygon fill="black" stroke="black" points="146.21,-965.5 136.58,-961.09 141.36,-970.54 146.21,-965.5"/>
</g>
<!-- BB4 -->
<g id="node5" class="node">
<title>BB4</title>
<ellipse fill="none" stroke="black" cx="339.36" cy="-925.1" rx="110.12" ry="37.45"/>
<text text-anchor="middle" x="339.36" y="-936.4" font-family="Times New Roman,serif" font-size="14.00">[1e..2b)</text>
<text text-anchor="middle" x="339.36" y="-921.4" font-family="Times New Roman,serif" font-size="14.00">Normalized Count: 10.00</text>
<text text-anchor="middle" x="339.36" y="-906.4" font-family="Times New Roman,serif" font-size="14.00">Samples weight: 0.07</text>
</g>
<!-- BB3&#45;&gt;BB4 -->
<g id="edge5" class="edge">
<title>BB3&#45;&gt;BB4</title>
<path fill="none" stroke="black" d="M259.38,-1000.58C270.58,-990.15 283.01,-978.58 294.66,-967.73"/>
<polygon fill="black" stroke="black" points="297.25,-970.1 302.18,-960.73 292.48,-964.98 297.25,-970.1"/>
</g>
<!-- BB5 -->
<g id="node6" class="node">
<title>BB5</title>
<ellipse fill="none" stroke="black" cx="243.36" cy="-814.15" rx="105.22" ry="37.45"/>
<text text-anchor="middle" x="243.36" y="-825.45" font-family="Times New Roman,serif" font-size="14.00">[2b..5f)</text>
<text text-anchor="middle" x="243.36" y="-810.45" font-family="Times New Roman,serif" font-size="14.00">Normalized Count: 6.50</text>
<text text-anchor="middle" x="243.36" y="-795.45" font-family="Times New Roman,serif" font-size="14.00">Samples weight: 0.05</text>
</g>
<!-- BB4&#45;&gt;BB5 -->
<g id="edge7" class="edge">
<title>BB4&#45;&gt;BB5</title>
<path fill="none" stroke="black" d="M308.46,-889.03C299.72,-879.12 290.12,-868.21 281.03,-857.9"/>
<polygon fill="black" stroke="black" points="283.44,-855.35 274.2,-850.16 278.19,-859.97 283.44,-855.35"/>
</g>
<!-- BB6 -->
<g id="node7" class="node">
<title>BB6</title>
<ellipse fill="none" stroke="black" cx="477.36" cy="-814.15" rx="110.12" ry="37.45"/>
<text text-anchor="middle" x="477.36" y="-825.45" font-family="Times New Roman,serif" font-size="14.00">[5f..68)</text>
<text text-anchor="middle" x="477.36" y="-810.45" font-family="Times New Roman,serif" font-size="14.00">Normalized Count: 10.00</text>
<text text-anchor="middle" x="477.36" y="-795.45" font-family="Times New Roman,serif" font-size="14.00">Samples weight: 0.07</text>
</g>
<!-- BB4&#45;&gt;BB6 -->
<g id="edge6" class="edge">
<title>BB4&#45;&gt;BB6</title>
<path fill="none" stroke="black" d="M382.27,-890.23C396.29,-879.16 411.99,-866.76 426.54,-855.28"/>
<polygon fill="black" stroke="black" points="428.8,-857.95 434.48,-849.01 424.46,-852.45 428.8,-857.95"/>
</g>
<!-- BB5&#45;&gt;BB6 -->
<g id="edge8" class="edge">
<title>BB5&#45;&gt;BB6</title>
<path fill="none" stroke="black" d="M348.93,-814.15C351.57,-814.15 354.2,-814.15 356.83,-814.15"/>
<polygon fill="black" stroke="black" points="356.99,-817.65 366.99,-814.15 356.99,-810.65 356.99,-817.65"/>
</g>
<!-- BB6&#45;&gt;BB1 -->
<g id="edge9" class="edge">
<title>BB6&#45;&gt;BB1</title>
<path fill="none" stroke="black" d="M478.65,-851.67C478.37,-882.57 474.67,-927.33 458.36,-962.58 431.85,-1019.87 380.95,-1071.69 342.28,-1105.52"/>
<polygon fill="black" stroke="black" points="339.52,-1103.28 334.23,-1112.46 344.09,-1108.58 339.52,-1103.28"/>
</g>
<!-- BB7 -->
<g id="node8" class="node">
<title>BB7</title>
<ellipse fill="none" stroke="black" cx="477.36" cy="-703.2" rx="105.22" ry="37.45"/>
<text text-anchor="middle" x="477.36" y="-714.5" font-family="Times New Roman,serif" font-size="14.00">[68..6f)</text>
<text text-anchor="middle" x="477.36" y="-699.5" font-family="Times New Roman,serif" font-size="14.00">Normalized Count: 1.00</text>
<text text-anchor="middle" x="477.36" y="-684.5" font-family="Times New Roman,serif" font-size="14.00">Samples weight: 0.01</text>
</g>
<!-- BB6&#45;&gt;BB7 -->
<g id="edge10" class="edge">
<title>BB6&#45;&gt;BB7</title>
<path fill="none" stroke="black" d="M477.36,-776.57C477.36,-768.39 477.36,-759.61 477.36,-751.09"/>
<polygon fill="black" stroke="black" points="480.86,-750.87 477.36,-740.87 473.86,-750.87 480.86,-750.87"/>
</g>
<!-- BB13 -->
<g id="node14" class="node">
<title>BB13</title>
<ellipse fill="none" stroke="black" cx="477.36" cy="-592.24" rx="105.22" ry="37.45"/>
<text text-anchor="middle" x="477.36" y="-603.54" font-family="Times New Roman,serif" font-size="14.00">[f6..fd)</text>
<text text-anchor="middle" x="477.36" y="-588.54" font-family="Times New Roman,serif" font-size="14.00">Normalized Count: 1.50</text>
<text text-anchor="middle" x="477.36" y="-573.54" font-family="Times New Roman,serif" font-size="14.00">Samples weight: 0.01</text>
</g>
<!-- BB7&#45;&gt;BB13 -->
<g id="edge11" class="edge">
<title>BB7&#45;&gt;BB13</title>
<path fill="none" stroke="black" d="M477.36,-665.61C477.36,-657.44 477.36,-648.66 477.36,-640.13"/>
<polygon fill="black" stroke="black" points="480.86,-639.92 477.36,-629.92 473.86,-639.92 480.86,-639.92"/>
</g>
<!-- BB8 -->
<g id="node9" class="node">
<title>BB8</title>
<ellipse fill="none" stroke="black" cx="477.36" cy="-481.29" rx="105.22" ry="37.45"/>
<text text-anchor="middle" x="477.36" y="-492.59" font-family="Times New Roman,serif" font-size="14.00">[6f..7a)</text>
<text text-anchor="middle" x="477.36" y="-477.59" font-family="Times New Roman,serif" font-size="14.00">Normalized Count: 0.50</text>
<text text-anchor="middle" x="477.36" y="-462.59" font-family="Times New Roman,serif" font-size="14.00">Samples weight: 0.00</text>
</g>
<!-- BB9 -->
<g id="node10" class="node">
<title>BB9</title>
<ellipse fill="none" stroke="black" cx="480.36" cy="-370.34" rx="110.12" ry="37.45"/>
<text text-anchor="middle" x="480.36" y="-381.64" font-family="Times New Roman,serif" font-size="14.00">[7a..9c)</text>
<text text-anchor="middle" x="480.36" y="-366.64" font-family="Times New Roman,serif" font-size="14.00">Normalized Count: 14.00</text>
<text text-anchor="middle" x="480.36" y="-351.64" font-family="Times New Roman,serif" font-size="14.00">Samples weight: 0.10</text>
</g>
<!-- BB8&#45;&gt;BB9 -->
<g id="edge12" class="edge">
<title>BB8&#45;&gt;BB9</title>
<path fill="none" stroke="black" d="M478.37,-443.71C478.59,-435.53 478.83,-426.75 479.07,-418.23"/>
<polygon fill="black" stroke="black" points="482.57,-418.1 479.35,-408.01 475.58,-417.91 482.57,-418.1"/>
</g>
<!-- BB10 -->
<g id="node11" class="node">
<title>BB10</title>
<ellipse fill="none" stroke="black" cx="480.36" cy="-259.38" rx="110.12" ry="37.45"/>
<text text-anchor="middle" x="480.36" y="-270.68" font-family="Times New Roman,serif" font-size="14.00">[9c..eb)</text>
<text text-anchor="middle" x="480.36" y="-255.68" font-family="Times New Roman,serif" font-size="14.00">Normalized Count: 55.00</text>
<text text-anchor="middle" x="480.36" y="-240.68" font-family="Times New Roman,serif" font-size="14.00">Samples weight: 0.40</text>
</g>
<!-- BB9&#45;&gt;BB10 -->
<g id="edge13" class="edge">
<title>BB9&#45;&gt;BB10</title>
<path fill="none" stroke="black" d="M480.36,-332.75C480.36,-324.58 480.36,-315.8 480.36,-307.27"/>
<polygon fill="black" stroke="black" points="483.86,-307.06 480.36,-297.06 476.86,-307.06 483.86,-307.06"/>
</g>
<!-- BB10&#45;&gt;BB10 -->
<g id="edge14" class="edge">
<title>BB10&#45;&gt;BB10</title>
<path fill="none" stroke="black" d="M573.78,-279.4C594,-277.44 608.67,-270.77 608.67,-259.38 608.67,-250.04 598.8,-243.87 584.09,-240.88"/>
<polygon fill="black" stroke="black" points="584.18,-237.36 573.78,-239.37 583.17,-244.28 584.18,-237.36"/>
</g>
<!-- BB11 -->
<g id="node12" class="node">
<title>BB11</title>
<ellipse fill="none" stroke="black" cx="480.36" cy="-148.43" rx="110.12" ry="37.45"/>
<text text-anchor="middle" x="480.36" y="-159.73" font-family="Times New Roman,serif" font-size="14.00">[eb..f3)</text>
<text text-anchor="middle" x="480.36" y="-144.73" font-family="Times New Roman,serif" font-size="14.00">Normalized Count: 14.00</text>
<text text-anchor="middle" x="480.36" y="-129.73" font-family="Times New Roman,serif" font-size="14.00">Samples weight: 0.10</text>
</g>
<!-- BB10&#45;&gt;BB11 -->
<g id="edge15" class="edge">
<title>BB10&#45;&gt;BB11</title>
<path fill="none" stroke="black" d="M480.36,-221.8C480.36,-213.63 480.36,-204.85 480.36,-196.32"/>
<polygon fill="black" stroke="black" points="483.86,-196.1 480.36,-186.1 476.86,-196.1 483.86,-196.1"/>
</g>
<!-- BB11&#45;&gt;BB9 -->
<g id="edge16" class="edge">
<title>BB11&#45;&gt;BB9</title>
<path fill="none" stroke="black" d="M560.91,-174.27C583.07,-185.21 604.52,-200.59 617.36,-221.91 634.55,-250.44 634.55,-268.32 617.36,-296.86 606.27,-315.27 588.77,-329.24 569.94,-339.76"/>
<polygon fill="black" stroke="black" points="568.14,-336.75 560.91,-344.5 571.39,-342.95 568.14,-336.75"/>
</g>
<!-- BB12 -->
<g id="node13" class="node">
<title>BB12</title>
<ellipse fill="none" stroke="black" cx="411.36" cy="-37.48" rx="105.22" ry="37.45"/>
<text text-anchor="middle" x="411.36" y="-48.78" font-family="Times New Roman,serif" font-size="14.00">[f3..f6)</text>
<text text-anchor="middle" x="411.36" y="-33.78" font-family="Times New Roman,serif" font-size="14.00">Normalized Count: 0.50</text>
<text text-anchor="middle" x="411.36" y="-18.78" font-family="Times New Roman,serif" font-size="14.00">Samples weight: 0.00</text>
</g>
<!-- BB11&#45;&gt;BB12 -->
<g id="edge17" class="edge">
<title>BB11&#45;&gt;BB12</title>
<path fill="none" stroke="black" d="M457.57,-111.45C451.8,-102.34 445.54,-92.45 439.54,-82.97"/>
<polygon fill="black" stroke="black" points="442.43,-80.99 434.12,-74.42 436.51,-84.74 442.43,-80.99"/>
</g>
<!-- BB12&#45;&gt;BB13 -->
<g id="edge18" class="edge">
<title>BB12&#45;&gt;BB13</title>
<path fill="none" stroke="black" d="M382.03,-73.8C374.09,-85.05 366.34,-97.96 361.36,-110.95 337.71,-172.64 342.36,-192.32 342.36,-258.38 342.36,-371.34 342.36,-371.34 342.36,-371.34 342.36,-437.52 327.48,-463.15 363.36,-518.77 373.34,-534.23 387.91,-547.02 403.32,-557.33"/>
<polygon fill="black" stroke="black" points="401.63,-560.4 411.94,-562.8 405.38,-554.49 401.63,-560.4"/>
</g>
<!-- BB13&#45;&gt;BB8 -->
<g id="edge19" class="edge">
<title>BB13&#45;&gt;BB8</title>
<path fill="none" stroke="black" d="M477.36,-554.66C477.36,-546.49 477.36,-537.71 477.36,-529.18"/>
<polygon fill="black" stroke="black" points="480.86,-528.96 477.36,-518.96 473.86,-528.96 480.86,-528.96"/>
</g>
<!-- BB14 -->
<g id="node15" class="node">
<title>BB14</title>
<ellipse fill="none" stroke="black" cx="706.36" cy="-481.29" rx="105.22" ry="37.45"/>
<text text-anchor="middle" x="706.36" y="-492.59" font-family="Times New Roman,serif" font-size="14.00">[fd..fe)</text>
<text text-anchor="middle" x="706.36" y="-477.59" font-family="Times New Roman,serif" font-size="14.00">Normalized Count: 1.00</text>
<text text-anchor="middle" x="706.36" y="-462.59" font-family="Times New Roman,serif" font-size="14.00">Samples weight: 0.01</text>
</g>
<!-- BB13&#45;&gt;BB14 -->
<g id="edge20" class="edge">
<title>BB13&#45;&gt;BB14</title>
<path fill="none" stroke="black" d="M539.33,-561.76C568.86,-547.71 604.34,-530.83 634.99,-516.24"/>
<polygon fill="black" stroke="black" points="636.81,-519.25 644.34,-511.8 633.8,-512.93 636.81,-519.25"/>
</g>
</g>
</svg>
