<?xml version="1.0" encoding="UTF-8" standalone="no"?>
<!DOCTYPE svg PUBLIC "-//W3C//DTD SVG 1.1//EN"
 "http://www.w3.org/Graphics/SVG/1.1/DTD/svg11.dtd">
<!-- Generated by graphviz version 2.47.0 (20210316.0004)
 -->
<!-- Title: G Pages: 1 -->
<svg width="708pt" height="501pt"
 viewBox="0.00 0.00 708.50 500.67" xmlns="http://www.w3.org/2000/svg" xmlns:xlink="http://www.w3.org/1999/xlink">
<g id="graph0" class="graph" transform="scale(1 1) rotate(0) translate(4 496.67)">
<title>G</title>
<polygon fill="white" stroke="transparent" points="-4,4 -4,-496.67 704.5,-496.67 704.5,4 -4,4"/>
<!-- BB0 -->
<g id="node1" class="node">
<title>BB0</title>
<ellipse fill="none" stroke="black" cx="477.84" cy="-444.58" rx="104.8" ry="48.17"/>
<text text-anchor="middle" x="477.84" y="-463.38" font-family="Times New Roman,serif" font-size="14.00">[0..6)</text>
<text text-anchor="middle" x="477.84" y="-448.38" font-family="Times New Roman,serif" font-size="14.00">Count: 0</text>
<text text-anchor="middle" x="477.84" y="-433.38" font-family="Times New Roman,serif" font-size="14.00">Normalized count: NaN</text>
<text text-anchor="middle" x="477.84" y="-418.38" font-family="Times New Roman,serif" font-size="14.00">Samples weight: 0.00</text>
</g>
<!-- BB4 -->
<g id="node5" class="node">
<title>BB4</title>
<ellipse fill="none" stroke="black" cx="406.84" cy="-312.42" rx="113.69" ry="48.17"/>
<text text-anchor="middle" x="406.84" y="-331.22" font-family="Times New Roman,serif" font-size="14.00">[28..2c)</text>
<text text-anchor="middle" x="406.84" y="-316.22" font-family="Times New Roman,serif" font-size="14.00">Count: 56</text>
<text text-anchor="middle" x="406.84" y="-301.22" font-family="Times New Roman,serif" font-size="14.00">Normalized count: Infinity</text>
<text text-anchor="middle" x="406.84" y="-286.22" font-family="Times New Roman,serif" font-size="14.00">Samples weight: 0.07</text>
</g>
<!-- BB0&#45;&gt;BB4 -->
<g id="edge1" class="edge">
<title>BB0&#45;&gt;BB4</title>
<path fill="none" stroke="black" d="M452.81,-397.69C447.62,-388.16 442.09,-378.03 436.74,-368.23"/>
<polygon fill="black" stroke="black" points="439.75,-366.44 431.89,-359.33 433.61,-369.79 439.75,-366.44"/>
</g>
<!-- BB1 -->
<g id="node2" class="node">
<title>BB1</title>
<ellipse fill="none" stroke="black" cx="264.84" cy="-180.25" rx="113.69" ry="48.17"/>
<text text-anchor="middle" x="264.84" y="-199.05" font-family="Times New Roman,serif" font-size="14.00">[6..10)</text>
<text text-anchor="middle" x="264.84" y="-184.05" font-family="Times New Roman,serif" font-size="14.00">Count: 293</text>
<text text-anchor="middle" x="264.84" y="-169.05" font-family="Times New Roman,serif" font-size="14.00">Normalized count: Infinity</text>
<text text-anchor="middle" x="264.84" y="-154.05" font-family="Times New Roman,serif" font-size="14.00">Samples weight: 0.37</text>
</g>
<!-- BB2 -->
<g id="node3" class="node">
<title>BB2</title>
<ellipse fill="none" stroke="black" cx="113.84" cy="-48.08" rx="113.69" ry="48.17"/>
<text text-anchor="middle" x="113.84" y="-66.88" font-family="Times New Roman,serif" font-size="14.00">[10..24)</text>
<text text-anchor="middle" x="113.84" y="-51.88" font-family="Times New Roman,serif" font-size="14.00">Count: 351</text>
<text text-anchor="middle" x="113.84" y="-36.88" font-family="Times New Roman,serif" font-size="14.00">Normalized count: Infinity</text>
<text text-anchor="middle" x="113.84" y="-21.88" font-family="Times New Roman,serif" font-size="14.00">Samples weight: 0.44</text>
</g>
<!-- BB1&#45;&gt;BB2 -->
<g id="edge3" class="edge">
<title>BB1&#45;&gt;BB2</title>
<path fill="none" stroke="black" d="M215.4,-136.63C201.12,-124.32 185.42,-110.78 170.72,-98.11"/>
<polygon fill="black" stroke="black" points="173,-95.46 163.14,-91.58 168.43,-100.76 173,-95.46"/>
</g>
<!-- BB3 -->
<g id="node4" class="node">
<title>BB3</title>
<ellipse fill="none" stroke="black" cx="359.84" cy="-48.08" rx="113.69" ry="48.17"/>
<text text-anchor="middle" x="359.84" y="-66.88" font-family="Times New Roman,serif" font-size="14.00">[24..28)</text>
<text text-anchor="middle" x="359.84" y="-51.88" font-family="Times New Roman,serif" font-size="14.00">Count: 87</text>
<text text-anchor="middle" x="359.84" y="-36.88" font-family="Times New Roman,serif" font-size="14.00">Normalized count: Infinity</text>
<text text-anchor="middle" x="359.84" y="-21.88" font-family="Times New Roman,serif" font-size="14.00">Samples weight: 0.11</text>
</g>
<!-- BB1&#45;&gt;BB3 -->
<g id="edge2" class="edge">
<title>BB1&#45;&gt;BB3</title>
<path fill="none" stroke="black" d="M297.8,-134.09C305.25,-123.89 313.22,-112.97 320.88,-102.47"/>
<polygon fill="black" stroke="black" points="323.87,-104.3 326.94,-94.16 318.22,-100.18 323.87,-104.3"/>
</g>
<!-- BB2&#45;&gt;BB3 -->
<g id="edge4" class="edge">
<title>BB2&#45;&gt;BB3</title>
<path fill="none" stroke="black" d="M227.72,-48.08C230.35,-48.08 232.98,-48.08 235.62,-48.08"/>
<polygon fill="black" stroke="black" points="235.78,-51.58 245.78,-48.08 235.78,-44.58 235.78,-51.58"/>
</g>
<!-- BB3&#45;&gt;BB4 -->
<g id="edge5" class="edge">
<title>BB3&#45;&gt;BB4</title>
<path fill="none" stroke="black" d="M377.52,-95.59C381.44,-107.38 385.21,-120.12 387.84,-132.17 396.64,-172.37 401.41,-218.58 403.97,-254.01"/>
<polygon fill="black" stroke="black" points="400.49,-254.43 404.67,-264.17 407.48,-253.95 400.49,-254.43"/>
</g>
<!-- BB4&#45;&gt;BB1 -->
<g id="edge6" class="edge">
<title>BB4&#45;&gt;BB1</title>
<path fill="none" stroke="black" d="M359.95,-268.43C346.87,-256.44 332.54,-243.3 319.07,-230.95"/>
<polygon fill="black" stroke="black" points="321.42,-228.36 311.68,-224.19 316.69,-233.52 321.42,-228.36"/>
</g>
<!-- BB5 -->
<g id="node6" class="node">
<title>BB5</title>
<ellipse fill="none" stroke="black" cx="548.84" cy="-180.25" rx="113.69" ry="48.17"/>
<text text-anchor="middle" x="548.84" y="-199.05" font-family="Times New Roman,serif" font-size="14.00">[2c..2f)</text>
<text text-anchor="middle" x="548.84" y="-184.05" font-family="Times New Roman,serif" font-size="14.00">Count: 7</text>
<text text-anchor="middle" x="548.84" y="-169.05" font-family="Times New Roman,serif" font-size="14.00">Normalized count: Infinity</text>
<text text-anchor="middle" x="548.84" y="-154.05" font-family="Times New Roman,serif" font-size="14.00">Samples weight: 0.01</text>
</g>
<!-- BB4&#45;&gt;BB5 -->
<g id="edge7" class="edge">
<title>BB4&#45;&gt;BB5</title>
<path fill="none" stroke="black" d="M453.73,-268.43C466.82,-256.44 481.15,-243.3 494.62,-230.95"/>
<polygon fill="black" stroke="black" points="497,-233.52 502,-224.19 492.27,-228.36 497,-233.52"/>
</g>
<!-- BB5&#45;&gt;BB0 -->
<g id="edge8" class="edge">
<title>BB5&#45;&gt;BB0</title>
<path fill="none" stroke="black" d="M549.59,-228.55C548.81,-265.44 544.7,-317.46 529.84,-360.5 526.39,-370.49 521.55,-380.53 516.2,-390"/>
<polygon fill="black" stroke="black" points="513.03,-388.5 510.95,-398.89 519.05,-392.07 513.03,-388.5"/>
</g>
<!-- BB6 -->
<g id="node7" class="node">
<title>BB6</title>
<ellipse fill="none" stroke="black" cx="595.84" cy="-48.08" rx="104.8" ry="48.17"/>
<text text-anchor="middle" x="595.84" y="-66.88" font-family="Times New Roman,serif" font-size="14.00">[2f..30)</text>
<text text-anchor="middle" x="595.84" y="-51.88" font-family="Times New Roman,serif" font-size="14.00">Count: 0</text>
<text text-anchor="middle" x="595.84" y="-36.88" font-family="Times New Roman,serif" font-size="14.00">Normalized count: NaN</text>
<text text-anchor="middle" x="595.84" y="-21.88" font-family="Times New Roman,serif" font-size="14.00">Samples weight: 0.00</text>
</g>
<!-- BB5&#45;&gt;BB6 -->
<g id="edge9" class="edge">
<title>BB5&#45;&gt;BB6</title>
<path fill="none" stroke="black" d="M565.68,-132.62C568.89,-123.75 572.27,-114.37 575.57,-105.23"/>
<polygon fill="black" stroke="black" points="578.86,-106.41 578.97,-95.82 572.28,-104.04 578.86,-106.41"/>
</g>
</g>
</svg>
