<?xml version="1.0" encoding="UTF-8" standalone="no"?>
<!DOCTYPE svg PUBLIC "-//W3C//DTD SVG 1.1//EN"
 "http://www.w3.org/Graphics/SVG/1.1/DTD/svg11.dtd">
<!-- Generated by graphviz version 2.47.0 (20210316.0004)
 -->
<!-- Title: G Pages: 1 -->
<svg width="839pt" height="765pt"
 viewBox="0.00 0.00 839.42 765.00" xmlns="http://www.w3.org/2000/svg" xmlns:xlink="http://www.w3.org/1999/xlink">
<g id="graph0" class="graph" transform="scale(1 1) rotate(0) translate(4 761)">
<title>G</title>
<polygon fill="white" stroke="transparent" points="-4,4 -4,-761 835.42,-761 835.42,4 -4,4"/>
<!-- BB0 -->
<g id="node1" class="node">
<title>BB0</title>
<ellipse fill="none" stroke="black" cx="444.19" cy="-708.92" rx="103.48" ry="48.17"/>
<text text-anchor="middle" x="444.19" y="-727.72" font-family="Times New Roman,serif" font-size="14.00">[0..18)</text>
<text text-anchor="middle" x="444.19" y="-712.72" font-family="Times New Roman,serif" font-size="14.00">Count: 4</text>
<text text-anchor="middle" x="444.19" y="-697.72" font-family="Times New Roman,serif" font-size="14.00">Normalized count: 1.00</text>
<text text-anchor="middle" x="444.19" y="-682.72" font-family="Times New Roman,serif" font-size="14.00">Samples weight: 0.00</text>
</g>
<!-- BB4 -->
<g id="node5" class="node">
<title>BB4</title>
<ellipse fill="none" stroke="black" cx="444.19" cy="-576.75" rx="113.27" ry="48.17"/>
<text text-anchor="middle" x="444.19" y="-595.55" font-family="Times New Roman,serif" font-size="14.00">[26..2e)</text>
<text text-anchor="middle" x="444.19" y="-580.55" font-family="Times New Roman,serif" font-size="14.00">Count: 713</text>
<text text-anchor="middle" x="444.19" y="-565.55" font-family="Times New Roman,serif" font-size="14.00">Normalized count: 178.25</text>
<text text-anchor="middle" x="444.19" y="-550.55" font-family="Times New Roman,serif" font-size="14.00">Samples weight: 0.56</text>
</g>
<!-- BB0&#45;&gt;BB4 -->
<g id="edge1" class="edge">
<title>BB0&#45;&gt;BB4</title>
<path fill="none" stroke="black" d="M444.19,-660.55C444.19,-652.29 444.19,-643.6 444.19,-635.1"/>
<polygon fill="black" stroke="black" points="447.69,-634.86 444.19,-624.86 440.69,-634.86 447.69,-634.86"/>
</g>
<!-- BB1 -->
<g id="node2" class="node">
<title>BB1</title>
<ellipse fill="none" stroke="black" cx="327.19" cy="-444.58" rx="108.38" ry="48.17"/>
<text text-anchor="middle" x="327.19" y="-463.38" font-family="Times New Roman,serif" font-size="14.00">[18..1d)</text>
<text text-anchor="middle" x="327.19" y="-448.38" font-family="Times New Roman,serif" font-size="14.00">Count: 127</text>
<text text-anchor="middle" x="327.19" y="-433.38" font-family="Times New Roman,serif" font-size="14.00">Normalized count: 31.75</text>
<text text-anchor="middle" x="327.19" y="-418.38" font-family="Times New Roman,serif" font-size="14.00">Samples weight: 0.10</text>
</g>
<!-- BB2 -->
<g id="node3" class="node">
<title>BB2</title>
<ellipse fill="none" stroke="black" cx="337.19" cy="-312.42" rx="103.48" ry="48.17"/>
<text text-anchor="middle" x="337.19" y="-331.22" font-family="Times New Roman,serif" font-size="14.00">[1d..22)</text>
<text text-anchor="middle" x="337.19" y="-316.22" font-family="Times New Roman,serif" font-size="14.00">Count: 0</text>
<text text-anchor="middle" x="337.19" y="-301.22" font-family="Times New Roman,serif" font-size="14.00">Normalized count: 0.00</text>
<text text-anchor="middle" x="337.19" y="-286.22" font-family="Times New Roman,serif" font-size="14.00">Samples weight: 0.00</text>
</g>
<!-- BB1&#45;&gt;BB2 -->
<g id="edge3" class="edge">
<title>BB1&#45;&gt;BB2</title>
<path fill="none" stroke="black" d="M330.83,-396.22C331.46,-387.95 332.13,-379.27 332.78,-370.77"/>
<polygon fill="black" stroke="black" points="336.29,-370.76 333.57,-360.52 329.31,-370.23 336.29,-370.76"/>
</g>
<!-- BB3 -->
<g id="node4" class="node">
<title>BB3</title>
<ellipse fill="none" stroke="black" cx="108.19" cy="-312.42" rx="108.38" ry="48.17"/>
<text text-anchor="middle" x="108.19" y="-331.22" font-family="Times New Roman,serif" font-size="14.00">[22..26)</text>
<text text-anchor="middle" x="108.19" y="-316.22" font-family="Times New Roman,serif" font-size="14.00">Count: 128</text>
<text text-anchor="middle" x="108.19" y="-301.22" font-family="Times New Roman,serif" font-size="14.00">Normalized count: 32.00</text>
<text text-anchor="middle" x="108.19" y="-286.22" font-family="Times New Roman,serif" font-size="14.00">Samples weight: 0.10</text>
</g>
<!-- BB1&#45;&gt;BB3 -->
<g id="edge2" class="edge">
<title>BB1&#45;&gt;BB3</title>
<path fill="none" stroke="black" d="M263.25,-405.58C237.51,-390.28 207.67,-372.54 181.08,-356.74"/>
<polygon fill="black" stroke="black" points="182.58,-353.56 172.2,-351.46 179.01,-359.58 182.58,-353.56"/>
</g>
<!-- BB11 -->
<g id="node12" class="node">
<title>BB11</title>
<ellipse fill="none" stroke="black" cx="337.19" cy="-180.25" rx="103.48" ry="48.17"/>
<text text-anchor="middle" x="337.19" y="-199.05" font-family="Times New Roman,serif" font-size="14.00">[5d..60)</text>
<text text-anchor="middle" x="337.19" y="-184.05" font-family="Times New Roman,serif" font-size="14.00">Count: 4</text>
<text text-anchor="middle" x="337.19" y="-169.05" font-family="Times New Roman,serif" font-size="14.00">Normalized count: 1.00</text>
<text text-anchor="middle" x="337.19" y="-154.05" font-family="Times New Roman,serif" font-size="14.00">Samples weight: 0.00</text>
</g>
<!-- BB2&#45;&gt;BB11 -->
<g id="edge4" class="edge">
<title>BB2&#45;&gt;BB11</title>
<path fill="none" stroke="black" d="M337.19,-264.05C337.19,-255.79 337.19,-247.1 337.19,-238.6"/>
<polygon fill="black" stroke="black" points="340.69,-238.36 337.19,-228.36 333.69,-238.36 340.69,-238.36"/>
</g>
<!-- BB3&#45;&gt;BB4 -->
<g id="edge5" class="edge">
<title>BB3&#45;&gt;BB4</title>
<path fill="none" stroke="black" d="M124.04,-360.03C139.96,-400.33 168.19,-457.49 210.19,-492.67 244.83,-521.69 290.34,-540.87 332.01,-553.41"/>
<polygon fill="black" stroke="black" points="331.09,-556.79 341.67,-556.22 333.05,-550.07 331.09,-556.79"/>
</g>
<!-- BB4&#45;&gt;BB1 -->
<g id="edge6" class="edge">
<title>BB4&#45;&gt;BB1</title>
<path fill="none" stroke="black" d="M404.58,-531.68C394.67,-520.65 383.94,-508.73 373.73,-497.36"/>
<polygon fill="black" stroke="black" points="376.05,-494.7 366.76,-489.61 370.84,-499.38 376.05,-494.7"/>
</g>
<!-- BB5 -->
<g id="node6" class="node">
<title>BB5</title>
<ellipse fill="none" stroke="black" cx="561.19" cy="-444.58" rx="108.38" ry="48.17"/>
<text text-anchor="middle" x="561.19" y="-463.38" font-family="Times New Roman,serif" font-size="14.00">[2e..37)</text>
<text text-anchor="middle" x="561.19" y="-448.38" font-family="Times New Roman,serif" font-size="14.00">Count: 69</text>
<text text-anchor="middle" x="561.19" y="-433.38" font-family="Times New Roman,serif" font-size="14.00">Normalized count: 17.25</text>
<text text-anchor="middle" x="561.19" y="-418.38" font-family="Times New Roman,serif" font-size="14.00">Samples weight: 0.05</text>
</g>
<!-- BB4&#45;&gt;BB5 -->
<g id="edge7" class="edge">
<title>BB4&#45;&gt;BB5</title>
<path fill="none" stroke="black" d="M483.8,-531.68C493.71,-520.65 504.43,-508.73 514.64,-497.36"/>
<polygon fill="black" stroke="black" points="517.54,-499.38 521.62,-489.61 512.33,-494.7 517.54,-499.38"/>
</g>
<!-- BB9 -->
<g id="node10" class="node">
<title>BB9</title>
<ellipse fill="none" stroke="black" cx="561.19" cy="-312.42" rx="103.48" ry="48.17"/>
<text text-anchor="middle" x="561.19" y="-331.22" font-family="Times New Roman,serif" font-size="14.00">[50..55)</text>
<text text-anchor="middle" x="561.19" y="-316.22" font-family="Times New Roman,serif" font-size="14.00">Count: 34</text>
<text text-anchor="middle" x="561.19" y="-301.22" font-family="Times New Roman,serif" font-size="14.00">Normalized count: 8.50</text>
<text text-anchor="middle" x="561.19" y="-286.22" font-family="Times New Roman,serif" font-size="14.00">Samples weight: 0.03</text>
</g>
<!-- BB5&#45;&gt;BB9 -->
<g id="edge8" class="edge">
<title>BB5&#45;&gt;BB9</title>
<path fill="none" stroke="black" d="M561.19,-396.22C561.19,-387.95 561.19,-379.27 561.19,-370.77"/>
<polygon fill="black" stroke="black" points="564.69,-370.52 561.19,-360.52 557.69,-370.52 564.69,-370.52"/>
</g>
<!-- BB6 -->
<g id="node7" class="node">
<title>BB6</title>
<ellipse fill="none" stroke="black" cx="604.19" cy="-180.25" rx="108.38" ry="48.17"/>
<text text-anchor="middle" x="604.19" y="-199.05" font-family="Times New Roman,serif" font-size="14.00">[37..43)</text>
<text text-anchor="middle" x="604.19" y="-184.05" font-family="Times New Roman,serif" font-size="14.00">Count: 166</text>
<text text-anchor="middle" x="604.19" y="-169.05" font-family="Times New Roman,serif" font-size="14.00">Normalized count: 41.50</text>
<text text-anchor="middle" x="604.19" y="-154.05" font-family="Times New Roman,serif" font-size="14.00">Samples weight: 0.13</text>
</g>
<!-- BB7 -->
<g id="node8" class="node">
<title>BB7</title>
<ellipse fill="none" stroke="black" cx="728.19" cy="-48.08" rx="103.48" ry="48.17"/>
<text text-anchor="middle" x="728.19" y="-66.88" font-family="Times New Roman,serif" font-size="14.00">[43..4c)</text>
<text text-anchor="middle" x="728.19" y="-51.88" font-family="Times New Roman,serif" font-size="14.00">Count: 6</text>
<text text-anchor="middle" x="728.19" y="-36.88" font-family="Times New Roman,serif" font-size="14.00">Normalized count: 1.50</text>
<text text-anchor="middle" x="728.19" y="-21.88" font-family="Times New Roman,serif" font-size="14.00">Samples weight: 0.00</text>
</g>
<!-- BB6&#45;&gt;BB7 -->
<g id="edge10" class="edge">
<title>BB6&#45;&gt;BB7</title>
<path fill="none" stroke="black" d="M645.82,-135.54C656.78,-124.05 668.68,-111.55 679.95,-99.72"/>
<polygon fill="black" stroke="black" points="682.51,-102.11 686.87,-92.45 677.44,-97.28 682.51,-102.11"/>
</g>
<!-- BB8 -->
<g id="node9" class="node">
<title>BB8</title>
<ellipse fill="none" stroke="black" cx="480.19" cy="-48.08" rx="103.48" ry="48.17"/>
<text text-anchor="middle" x="480.19" y="-66.88" font-family="Times New Roman,serif" font-size="14.00">[4c..50)</text>
<text text-anchor="middle" x="480.19" y="-51.88" font-family="Times New Roman,serif" font-size="14.00">Count: 28</text>
<text text-anchor="middle" x="480.19" y="-36.88" font-family="Times New Roman,serif" font-size="14.00">Normalized count: 7.00</text>
<text text-anchor="middle" x="480.19" y="-21.88" font-family="Times New Roman,serif" font-size="14.00">Samples weight: 0.02</text>
</g>
<!-- BB6&#45;&gt;BB8 -->
<g id="edge9" class="edge">
<title>BB6&#45;&gt;BB8</title>
<path fill="none" stroke="black" d="M562.55,-135.54C551.6,-124.05 539.69,-111.55 528.42,-99.72"/>
<polygon fill="black" stroke="black" points="530.93,-97.28 521.5,-92.45 525.87,-102.11 530.93,-97.28"/>
</g>
<!-- BB7&#45;&gt;BB4 -->
<g id="edge11" class="edge">
<title>BB7&#45;&gt;BB4</title>
<path fill="none" stroke="black" d="M738.13,-96.28C753.88,-185.03 773.77,-378.13 678.19,-492.67 649.17,-527.44 604.55,-547.67 562.03,-559.43"/>
<polygon fill="black" stroke="black" points="560.92,-556.1 552.14,-562.02 562.7,-562.87 560.92,-556.1"/>
</g>
<!-- BB8&#45;&gt;BB9 -->
<g id="edge12" class="edge">
<title>BB8&#45;&gt;BB9</title>
<path fill="none" stroke="black" d="M473.57,-96.19C470.3,-133.43 470.12,-186.02 487.19,-228.33 491.92,-240.07 499.07,-251.23 507.1,-261.36"/>
<polygon fill="black" stroke="black" points="504.59,-263.82 513.69,-269.24 509.96,-259.32 504.59,-263.82"/>
</g>
<!-- BB9&#45;&gt;BB6 -->
<g id="edge13" class="edge">
<title>BB9&#45;&gt;BB6</title>
<path fill="none" stroke="black" d="M576.59,-264.79C579.49,-256.01 582.56,-246.73 585.55,-237.68"/>
<polygon fill="black" stroke="black" points="588.93,-238.58 588.75,-227.99 582.29,-236.38 588.93,-238.58"/>
</g>
<!-- BB10 -->
<g id="node11" class="node">
<title>BB10</title>
<ellipse fill="none" stroke="black" cx="113.19" cy="-180.25" rx="103.48" ry="48.17"/>
<text text-anchor="middle" x="113.19" y="-199.05" font-family="Times New Roman,serif" font-size="14.00">[55..5d)</text>
<text text-anchor="middle" x="113.19" y="-184.05" font-family="Times New Roman,serif" font-size="14.00">Count: 4</text>
<text text-anchor="middle" x="113.19" y="-169.05" font-family="Times New Roman,serif" font-size="14.00">Normalized count: 1.00</text>
<text text-anchor="middle" x="113.19" y="-154.05" font-family="Times New Roman,serif" font-size="14.00">Samples weight: 0.00</text>
</g>
<!-- BB9&#45;&gt;BB10 -->
<g id="edge14" class="edge">
<title>BB9&#45;&gt;BB10</title>
<path fill="none" stroke="black" d="M488.89,-278.08C475.87,-272.92 462.27,-268.08 449.19,-264.33 352.24,-236.6 322.13,-256.07 225.19,-228.33 215.28,-225.5 205.07,-222.03 195.03,-218.27"/>
<polygon fill="black" stroke="black" points="196.07,-214.92 185.48,-214.59 193.56,-221.45 196.07,-214.92"/>
</g>
<!-- BB10&#45;&gt;BB11 -->
<g id="edge15" class="edge">
<title>BB10&#45;&gt;BB11</title>
<path fill="none" stroke="black" d="M216.44,-180.25C218.89,-180.25 221.35,-180.25 223.8,-180.25"/>
<polygon fill="black" stroke="black" points="223.89,-183.75 233.89,-180.25 223.89,-176.75 223.89,-183.75"/>
</g>
</g>
</svg>
