<?xml version="1.0" encoding="UTF-8" standalone="no"?>
<!DOCTYPE svg PUBLIC "-//W3C//DTD SVG 1.1//EN"
 "http://www.w3.org/Graphics/SVG/1.1/DTD/svg11.dtd">
<!-- Generated by graphviz version 2.47.0 (20210316.0004)
 -->
<!-- Title: G Pages: 1 -->
<svg width="713pt" height="860pt"
 viewBox="0.00 0.00 712.93 859.63" xmlns="http://www.w3.org/2000/svg" xmlns:xlink="http://www.w3.org/1999/xlink">
<g id="graph0" class="graph" transform="scale(1 1) rotate(0) translate(4 855.63)">
<title>G</title>
<polygon fill="white" stroke="transparent" points="-4,4 -4,-855.63 708.93,-855.63 708.93,4 -4,4"/>
<!-- BB0 -->
<g id="node1" class="node">
<title>BB0</title>
<ellipse fill="none" stroke="black" cx="312.97" cy="-814.15" rx="106.55" ry="37.45"/>
<text text-anchor="middle" x="312.97" y="-825.45" font-family="Times New Roman,serif" font-size="14.00">[0..69)</text>
<text text-anchor="middle" x="312.97" y="-810.45" font-family="Times New Roman,serif" font-size="14.00">Normalized Count: NaN</text>
<text text-anchor="middle" x="312.97" y="-795.45" font-family="Times New Roman,serif" font-size="14.00">Samples weight: 0.00</text>
</g>
<!-- BB10 -->
<g id="node11" class="node">
<title>BB10</title>
<ellipse fill="none" stroke="black" cx="312.97" cy="-703.2" rx="115.93" ry="37.45"/>
<text text-anchor="middle" x="312.97" y="-714.5" font-family="Times New Roman,serif" font-size="14.00">[11a..126)</text>
<text text-anchor="middle" x="312.97" y="-699.5" font-family="Times New Roman,serif" font-size="14.00">Normalized Count: Infinity</text>
<text text-anchor="middle" x="312.97" y="-684.5" font-family="Times New Roman,serif" font-size="14.00">Samples weight: 0.01</text>
</g>
<!-- BB0&#45;&gt;BB10 -->
<g id="edge1" class="edge">
<title>BB0&#45;&gt;BB10</title>
<path fill="none" stroke="black" d="M312.97,-776.57C312.97,-768.39 312.97,-759.61 312.97,-751.09"/>
<polygon fill="black" stroke="black" points="316.47,-750.87 312.97,-740.87 309.47,-750.87 316.47,-750.87"/>
</g>
<!-- BB1 -->
<g id="node2" class="node">
<title>BB1</title>
<ellipse fill="none" stroke="black" cx="312.97" cy="-592.24" rx="115.93" ry="37.45"/>
<text text-anchor="middle" x="312.97" y="-603.54" font-family="Times New Roman,serif" font-size="14.00">[69..a1)</text>
<text text-anchor="middle" x="312.97" y="-588.54" font-family="Times New Roman,serif" font-size="14.00">Normalized Count: Infinity</text>
<text text-anchor="middle" x="312.97" y="-573.54" font-family="Times New Roman,serif" font-size="14.00">Samples weight: 0.10</text>
</g>
<!-- BB3 -->
<g id="node4" class="node">
<title>BB3</title>
<ellipse fill="none" stroke="black" cx="437.97" cy="-481.29" rx="115.93" ry="37.45"/>
<text text-anchor="middle" x="437.97" y="-492.59" font-family="Times New Roman,serif" font-size="14.00">[b4..b8)</text>
<text text-anchor="middle" x="437.97" y="-477.59" font-family="Times New Roman,serif" font-size="14.00">Normalized Count: Infinity</text>
<text text-anchor="middle" x="437.97" y="-462.59" font-family="Times New Roman,serif" font-size="14.00">Samples weight: 0.04</text>
</g>
<!-- BB1&#45;&gt;BB3 -->
<g id="edge2" class="edge">
<title>BB1&#45;&gt;BB3</title>
<path fill="none" stroke="black" d="M352.52,-556.77C364.6,-546.24 378.01,-534.55 390.56,-523.61"/>
<polygon fill="black" stroke="black" points="393,-526.12 398.24,-516.91 388.4,-520.85 393,-526.12"/>
</g>
<!-- BB2 -->
<g id="node3" class="node">
<title>BB2</title>
<ellipse fill="none" stroke="black" cx="588.97" cy="-370.34" rx="115.93" ry="37.45"/>
<text text-anchor="middle" x="588.97" y="-381.64" font-family="Times New Roman,serif" font-size="14.00">[a1..b4)</text>
<text text-anchor="middle" x="588.97" y="-366.64" font-family="Times New Roman,serif" font-size="14.00">Normalized Count: Infinity</text>
<text text-anchor="middle" x="588.97" y="-351.64" font-family="Times New Roman,serif" font-size="14.00">Samples weight: 0.07</text>
</g>
<!-- BB2&#45;&gt;BB3 -->
<g id="edge3" class="edge">
<title>BB2&#45;&gt;BB3</title>
<path fill="none" stroke="black" d="M547.91,-405.52C532.57,-416.96 514.84,-429.79 498.14,-441.56"/>
<polygon fill="black" stroke="black" points="495.7,-438.99 489.52,-447.6 499.71,-444.73 495.7,-438.99"/>
</g>
<!-- BB3&#45;&gt;BB2 -->
<g id="edge4" class="edge">
<title>BB3&#45;&gt;BB2</title>
<path fill="none" stroke="black" d="M479.01,-446.12C494.34,-434.69 512.04,-421.87 528.72,-410.12"/>
<polygon fill="black" stroke="black" points="531.15,-412.69 537.33,-404.09 527.13,-406.96 531.15,-412.69"/>
</g>
<!-- BB4 -->
<g id="node5" class="node">
<title>BB4</title>
<ellipse fill="none" stroke="black" cx="338.97" cy="-370.34" rx="115.93" ry="37.45"/>
<text text-anchor="middle" x="338.97" y="-381.64" font-family="Times New Roman,serif" font-size="14.00">[b8..d9)</text>
<text text-anchor="middle" x="338.97" y="-366.64" font-family="Times New Roman,serif" font-size="14.00">Normalized Count: Infinity</text>
<text text-anchor="middle" x="338.97" y="-351.64" font-family="Times New Roman,serif" font-size="14.00">Samples weight: 0.08</text>
</g>
<!-- BB3&#45;&gt;BB4 -->
<g id="edge5" class="edge">
<title>BB3&#45;&gt;BB4</title>
<path fill="none" stroke="black" d="M406.1,-445.22C397.18,-435.4 387.38,-424.62 378.09,-414.4"/>
<polygon fill="black" stroke="black" points="380.43,-411.77 371.11,-406.72 375.25,-416.47 380.43,-411.77"/>
</g>
<!-- BB8 -->
<g id="node9" class="node">
<title>BB8</title>
<ellipse fill="none" stroke="black" cx="351.97" cy="-259.38" rx="115.93" ry="37.45"/>
<text text-anchor="middle" x="351.97" y="-270.68" font-family="Times New Roman,serif" font-size="14.00">[f4..fd)</text>
<text text-anchor="middle" x="351.97" y="-255.68" font-family="Times New Roman,serif" font-size="14.00">Normalized Count: Infinity</text>
<text text-anchor="middle" x="351.97" y="-240.68" font-family="Times New Roman,serif" font-size="14.00">Samples weight: 0.02</text>
</g>
<!-- BB4&#45;&gt;BB8 -->
<g id="edge6" class="edge">
<title>BB4&#45;&gt;BB8</title>
<path fill="none" stroke="black" d="M343.33,-332.75C344.32,-324.49 345.38,-315.61 346.4,-306.99"/>
<polygon fill="black" stroke="black" points="349.88,-307.4 347.59,-297.06 342.93,-306.57 349.88,-307.4"/>
</g>
<!-- BB5 -->
<g id="node6" class="node">
<title>BB5</title>
<ellipse fill="none" stroke="black" cx="365.97" cy="-148.43" rx="115.93" ry="37.45"/>
<text text-anchor="middle" x="365.97" y="-159.73" font-family="Times New Roman,serif" font-size="14.00">[d9..e5)</text>
<text text-anchor="middle" x="365.97" y="-144.73" font-family="Times New Roman,serif" font-size="14.00">Normalized Count: Infinity</text>
<text text-anchor="middle" x="365.97" y="-129.73" font-family="Times New Roman,serif" font-size="14.00">Samples weight: 0.05</text>
</g>
<!-- BB6 -->
<g id="node7" class="node">
<title>BB6</title>
<ellipse fill="none" stroke="black" cx="259.97" cy="-37.48" rx="115.93" ry="37.45"/>
<text text-anchor="middle" x="259.97" y="-48.78" font-family="Times New Roman,serif" font-size="14.00">[e5..ed)</text>
<text text-anchor="middle" x="259.97" y="-33.78" font-family="Times New Roman,serif" font-size="14.00">Normalized Count: Infinity</text>
<text text-anchor="middle" x="259.97" y="-18.78" font-family="Times New Roman,serif" font-size="14.00">Samples weight: 0.04</text>
</g>
<!-- BB5&#45;&gt;BB6 -->
<g id="edge8" class="edge">
<title>BB5&#45;&gt;BB6</title>
<path fill="none" stroke="black" d="M331.84,-112.36C322.1,-102.35 311.38,-91.33 301.26,-80.93"/>
<polygon fill="black" stroke="black" points="303.51,-78.21 294.02,-73.48 298.49,-83.09 303.51,-78.21"/>
</g>
<!-- BB7 -->
<g id="node8" class="node">
<title>BB7</title>
<ellipse fill="none" stroke="black" cx="509.97" cy="-37.48" rx="115.93" ry="37.45"/>
<text text-anchor="middle" x="509.97" y="-48.78" font-family="Times New Roman,serif" font-size="14.00">[ed..f4)</text>
<text text-anchor="middle" x="509.97" y="-33.78" font-family="Times New Roman,serif" font-size="14.00">Normalized Count: Infinity</text>
<text text-anchor="middle" x="509.97" y="-18.78" font-family="Times New Roman,serif" font-size="14.00">Samples weight: 0.06</text>
</g>
<!-- BB5&#45;&gt;BB7 -->
<g id="edge7" class="edge">
<title>BB5&#45;&gt;BB7</title>
<path fill="none" stroke="black" d="M410.74,-113.55C425.37,-102.49 441.76,-90.09 456.93,-78.6"/>
<polygon fill="black" stroke="black" points="459.36,-81.16 465.22,-72.33 455.13,-75.57 459.36,-81.16"/>
</g>
<!-- BB6&#45;&gt;BB7 -->
<g id="edge9" class="edge">
<title>BB6&#45;&gt;BB7</title>
<path fill="none" stroke="black" d="M376.18,-37.48C378.68,-37.48 381.17,-37.48 383.67,-37.48"/>
<polygon fill="black" stroke="black" points="383.95,-40.98 393.95,-37.48 383.95,-33.98 383.95,-40.98"/>
</g>
<!-- BB7&#45;&gt;BB8 -->
<g id="edge10" class="edge">
<title>BB7&#45;&gt;BB8</title>
<path fill="none" stroke="black" d="M514.19,-75.14C515.93,-107.19 513.56,-153.52 490.97,-185.91 478.66,-203.54 460.72,-217.19 441.79,-227.64"/>
<polygon fill="black" stroke="black" points="439.98,-224.63 432.74,-232.36 443.22,-230.84 439.98,-224.63"/>
</g>
<!-- BB8&#45;&gt;BB5 -->
<g id="edge11" class="edge">
<title>BB8&#45;&gt;BB5</title>
<path fill="none" stroke="black" d="M356.67,-221.8C357.73,-213.54 358.87,-204.65 359.98,-196.04"/>
<polygon fill="black" stroke="black" points="363.45,-196.47 361.25,-186.1 356.51,-195.57 363.45,-196.47"/>
</g>
<!-- BB9 -->
<g id="node10" class="node">
<title>BB9</title>
<ellipse fill="none" stroke="black" cx="115.97" cy="-148.43" rx="115.93" ry="37.45"/>
<text text-anchor="middle" x="115.97" y="-159.73" font-family="Times New Roman,serif" font-size="14.00">[fd..11a)</text>
<text text-anchor="middle" x="115.97" y="-144.73" font-family="Times New Roman,serif" font-size="14.00">Normalized Count: Infinity</text>
<text text-anchor="middle" x="115.97" y="-129.73" font-family="Times New Roman,serif" font-size="14.00">Samples weight: 0.54</text>
</g>
<!-- BB8&#45;&gt;BB9 -->
<g id="edge12" class="edge">
<title>BB8&#45;&gt;BB9</title>
<path fill="none" stroke="black" d="M286.85,-228.32C257.05,-214.57 221.58,-198.19 190.7,-183.93"/>
<polygon fill="black" stroke="black" points="191.82,-180.6 181.28,-179.58 188.89,-186.95 191.82,-180.6"/>
</g>
<!-- BB9&#45;&gt;BB10 -->
<g id="edge13" class="edge">
<title>BB9&#45;&gt;BB10</title>
<path fill="none" stroke="black" d="M130.31,-185.75C146,-228.83 168.97,-303.16 168.97,-369.34 168.97,-482.29 168.97,-482.29 168.97,-482.29 168.97,-548.36 151.39,-574.7 187.97,-629.72 198.61,-645.73 214.08,-658.65 230.54,-668.89"/>
<polygon fill="black" stroke="black" points="228.83,-671.95 239.22,-674.01 232.38,-665.92 228.83,-671.95"/>
</g>
<!-- BB10&#45;&gt;BB1 -->
<g id="edge14" class="edge">
<title>BB10&#45;&gt;BB1</title>
<path fill="none" stroke="black" d="M312.97,-665.61C312.97,-657.44 312.97,-648.66 312.97,-640.13"/>
<polygon fill="black" stroke="black" points="316.47,-639.92 312.97,-629.92 309.47,-639.92 316.47,-639.92"/>
</g>
<!-- BB11 -->
<g id="node12" class="node">
<title>BB11</title>
<ellipse fill="none" stroke="black" cx="553.97" cy="-592.24" rx="106.55" ry="37.45"/>
<text text-anchor="middle" x="553.97" y="-603.54" font-family="Times New Roman,serif" font-size="14.00">[126..127)</text>
<text text-anchor="middle" x="553.97" y="-588.54" font-family="Times New Roman,serif" font-size="14.00">Normalized Count: NaN</text>
<text text-anchor="middle" x="553.97" y="-573.54" font-family="Times New Roman,serif" font-size="14.00">Samples weight: 0.00</text>
</g>
<!-- BB10&#45;&gt;BB11 -->
<g id="edge15" class="edge">
<title>BB10&#45;&gt;BB11</title>
<path fill="none" stroke="black" d="M379.14,-672.28C410.46,-658.12 447.99,-641.16 480.22,-626.58"/>
<polygon fill="black" stroke="black" points="481.93,-629.65 489.61,-622.34 479.05,-623.27 481.93,-629.65"/>
</g>
</g>
</svg>
