<?xml version="1.0" encoding="UTF-8" standalone="no"?>
<!DOCTYPE svg PUBLIC "-//W3C//DTD SVG 1.1//EN"
 "http://www.w3.org/Graphics/SVG/1.1/DTD/svg11.dtd">
<!-- Generated by graphviz version 2.47.0 (20210316.0004)
 -->
<!-- Title: G Pages: 1 -->
<svg width="525pt" height="501pt"
 viewBox="0.00 0.00 524.52 500.67" xmlns="http://www.w3.org/2000/svg" xmlns:xlink="http://www.w3.org/1999/xlink">
<g id="graph0" class="graph" transform="scale(1 1) rotate(0) translate(4 496.67)">
<title>G</title>
<polygon fill="white" stroke="transparent" points="-4,4 -4,-496.67 520.52,-496.67 520.52,4 -4,4"/>
<!-- BB0 -->
<g id="node1" class="node">
<title>BB0</title>
<ellipse fill="none" stroke="black" cx="204.28" cy="-444.58" rx="103.48" ry="48.17"/>
<text text-anchor="middle" x="204.28" y="-463.38" font-family="Times New Roman,serif" font-size="14.00">[0..30)</text>
<text text-anchor="middle" x="204.28" y="-448.38" font-family="Times New Roman,serif" font-size="14.00">Count: 8</text>
<text text-anchor="middle" x="204.28" y="-433.38" font-family="Times New Roman,serif" font-size="14.00">Normalized count: 1.00</text>
<text text-anchor="middle" x="204.28" y="-418.38" font-family="Times New Roman,serif" font-size="14.00">Samples weight: 0.00</text>
</g>
<!-- BB3 -->
<g id="node4" class="node">
<title>BB3</title>
<ellipse fill="none" stroke="black" cx="204.28" cy="-312.42" rx="127.06" ry="48.17"/>
<text text-anchor="middle" x="204.28" y="-331.22" font-family="Times New Roman,serif" font-size="14.00">[57..60)</text>
<text text-anchor="middle" x="204.28" y="-316.22" font-family="Times New Roman,serif" font-size="14.00">Count: 1689157</text>
<text text-anchor="middle" x="204.28" y="-301.22" font-family="Times New Roman,serif" font-size="14.00">Normalized count: 211144.62</text>
<text text-anchor="middle" x="204.28" y="-286.22" font-family="Times New Roman,serif" font-size="14.00">Samples weight: 0.50</text>
</g>
<!-- BB0&#45;&gt;BB3 -->
<g id="edge1" class="edge">
<title>BB0&#45;&gt;BB3</title>
<path fill="none" stroke="black" d="M204.28,-396.22C204.28,-387.95 204.28,-379.27 204.28,-370.77"/>
<polygon fill="black" stroke="black" points="207.78,-370.52 204.28,-360.52 200.78,-370.52 207.78,-370.52"/>
</g>
<!-- BB1 -->
<g id="node2" class="node">
<title>BB1</title>
<ellipse fill="none" stroke="black" cx="127.28" cy="-180.25" rx="127.06" ry="48.17"/>
<text text-anchor="middle" x="127.28" y="-199.05" font-family="Times New Roman,serif" font-size="14.00">[30..53)</text>
<text text-anchor="middle" x="127.28" y="-184.05" font-family="Times New Roman,serif" font-size="14.00">Count: 1681960</text>
<text text-anchor="middle" x="127.28" y="-169.05" font-family="Times New Roman,serif" font-size="14.00">Normalized count: 210245.00</text>
<text text-anchor="middle" x="127.28" y="-154.05" font-family="Times New Roman,serif" font-size="14.00">Samples weight: 0.50</text>
</g>
<!-- BB2 -->
<g id="node3" class="node">
<title>BB2</title>
<ellipse fill="none" stroke="black" cx="204.28" cy="-48.08" rx="108.38" ry="48.17"/>
<text text-anchor="middle" x="204.28" y="-66.88" font-family="Times New Roman,serif" font-size="14.00">[53..57)</text>
<text text-anchor="middle" x="204.28" y="-51.88" font-family="Times New Roman,serif" font-size="14.00">Count: 110</text>
<text text-anchor="middle" x="204.28" y="-36.88" font-family="Times New Roman,serif" font-size="14.00">Normalized count: 13.75</text>
<text text-anchor="middle" x="204.28" y="-21.88" font-family="Times New Roman,serif" font-size="14.00">Samples weight: 0.00</text>
</g>
<!-- BB1&#45;&gt;BB2 -->
<g id="edge3" class="edge">
<title>BB1&#45;&gt;BB2</title>
<path fill="none" stroke="black" d="M154.64,-132.99C160.27,-123.48 166.24,-113.38 172.02,-103.61"/>
<polygon fill="black" stroke="black" points="175.18,-105.14 177.26,-94.75 169.16,-101.58 175.18,-105.14"/>
</g>
<!-- BB1&#45;&gt;BB3 -->
<g id="edge2" class="edge">
<title>BB1&#45;&gt;BB3</title>
<path fill="none" stroke="black" d="M160.62,-226.68C166.49,-236.12 172.51,-246.18 178.14,-255.94"/>
<polygon fill="black" stroke="black" points="175.2,-257.84 183.2,-264.79 181.28,-254.37 175.2,-257.84"/>
</g>
<!-- BB2&#45;&gt;BB3 -->
<g id="edge4" class="edge">
<title>BB2&#45;&gt;BB3</title>
<path fill="none" stroke="black" d="M243.19,-93.34C251.42,-105.18 258.92,-118.51 263.28,-132.17 276.27,-172.89 276.27,-187.61 263.28,-228.33 260.03,-238.53 255.02,-248.54 249.27,-257.89"/>
<polygon fill="black" stroke="black" points="246.33,-255.99 243.8,-266.28 252.19,-259.81 246.33,-255.99"/>
</g>
<!-- BB3&#45;&gt;BB1 -->
<g id="edge5" class="edge">
<title>BB3&#45;&gt;BB1</title>
<path fill="none" stroke="black" d="M170.88,-265.89C165.02,-256.46 159.02,-246.43 153.39,-236.69"/>
<polygon fill="black" stroke="black" points="156.34,-234.8 148.34,-227.85 150.26,-238.27 156.34,-234.8"/>
</g>
<!-- BB4 -->
<g id="node5" class="node">
<title>BB4</title>
<ellipse fill="none" stroke="black" cx="413.28" cy="-180.25" rx="103.48" ry="48.17"/>
<text text-anchor="middle" x="413.28" y="-199.05" font-family="Times New Roman,serif" font-size="14.00">[60..72)</text>
<text text-anchor="middle" x="413.28" y="-184.05" font-family="Times New Roman,serif" font-size="14.00">Count: 8</text>
<text text-anchor="middle" x="413.28" y="-169.05" font-family="Times New Roman,serif" font-size="14.00">Normalized count: 1.00</text>
<text text-anchor="middle" x="413.28" y="-154.05" font-family="Times New Roman,serif" font-size="14.00">Samples weight: 0.00</text>
</g>
<!-- BB3&#45;&gt;BB4 -->
<g id="edge6" class="edge">
<title>BB3&#45;&gt;BB4</title>
<path fill="none" stroke="black" d="M269.26,-270.94C292.85,-256.25 319.58,-239.6 343.56,-224.67"/>
<polygon fill="black" stroke="black" points="345.62,-227.51 352.26,-219.25 341.92,-221.57 345.62,-227.51"/>
</g>
</g>
</svg>
