<?xml version="1.0" encoding="UTF-8" standalone="no"?>
<!DOCTYPE svg PUBLIC "-//W3C//DTD SVG 1.1//EN"
 "http://www.w3.org/Graphics/SVG/1.1/DTD/svg11.dtd">
<!-- Generated by graphviz version 2.47.0 (20210316.0004)
 -->
<!-- Title: G Pages: 1 -->
<svg width="471pt" height="765pt"
 viewBox="0.00 0.00 471.48 765.00" xmlns="http://www.w3.org/2000/svg" xmlns:xlink="http://www.w3.org/1999/xlink">
<g id="graph0" class="graph" transform="scale(1 1) rotate(0) translate(4 761)">
<title>G</title>
<polygon fill="white" stroke="transparent" points="-4,4 -4,-761 467.48,-761 467.48,4 -4,4"/>
<!-- BB0 -->
<g id="node1" class="node">
<title>BB0</title>
<ellipse fill="none" stroke="black" cx="248.24" cy="-708.92" rx="103.48" ry="48.17"/>
<text text-anchor="middle" x="248.24" y="-727.72" font-family="Times New Roman,serif" font-size="14.00">[0..4)</text>
<text text-anchor="middle" x="248.24" y="-712.72" font-family="Times New Roman,serif" font-size="14.00">Count: 14</text>
<text text-anchor="middle" x="248.24" y="-697.72" font-family="Times New Roman,serif" font-size="14.00">Normalized count: 1.00</text>
<text text-anchor="middle" x="248.24" y="-682.72" font-family="Times New Roman,serif" font-size="14.00">Samples weight: 0.02</text>
</g>
<!-- BB1 -->
<g id="node2" class="node">
<title>BB1</title>
<ellipse fill="none" stroke="black" cx="136.24" cy="-576.75" rx="103.48" ry="48.17"/>
<text text-anchor="middle" x="136.24" y="-595.55" font-family="Times New Roman,serif" font-size="14.00">[4..e)</text>
<text text-anchor="middle" x="136.24" y="-580.55" font-family="Times New Roman,serif" font-size="14.00">Count: 15</text>
<text text-anchor="middle" x="136.24" y="-565.55" font-family="Times New Roman,serif" font-size="14.00">Normalized count: 1.07</text>
<text text-anchor="middle" x="136.24" y="-550.55" font-family="Times New Roman,serif" font-size="14.00">Samples weight: 0.02</text>
</g>
<!-- BB0&#45;&gt;BB1 -->
<g id="edge2" class="edge">
<title>BB0&#45;&gt;BB1</title>
<path fill="none" stroke="black" d="M210.32,-663.85C200.83,-652.82 190.57,-640.89 180.79,-629.53"/>
<polygon fill="black" stroke="black" points="183.29,-627.07 174.12,-621.77 177.99,-631.64 183.29,-627.07"/>
</g>
<!-- BB7 -->
<g id="node8" class="node">
<title>BB7</title>
<ellipse fill="none" stroke="black" cx="360.24" cy="-576.75" rx="103.48" ry="48.17"/>
<text text-anchor="middle" x="360.24" y="-595.55" font-family="Times New Roman,serif" font-size="14.00">[58..59)</text>
<text text-anchor="middle" x="360.24" y="-580.55" font-family="Times New Roman,serif" font-size="14.00">Count: 23</text>
<text text-anchor="middle" x="360.24" y="-565.55" font-family="Times New Roman,serif" font-size="14.00">Normalized count: 1.64</text>
<text text-anchor="middle" x="360.24" y="-550.55" font-family="Times New Roman,serif" font-size="14.00">Samples weight: 0.03</text>
</g>
<!-- BB0&#45;&gt;BB7 -->
<g id="edge1" class="edge">
<title>BB0&#45;&gt;BB7</title>
<path fill="none" stroke="black" d="M286.16,-663.85C295.64,-652.82 305.91,-640.89 315.68,-629.53"/>
<polygon fill="black" stroke="black" points="318.49,-631.64 322.36,-621.77 313.18,-627.07 318.49,-631.64"/>
</g>
<!-- BB2 -->
<g id="node3" class="node">
<title>BB2</title>
<ellipse fill="none" stroke="black" cx="136.24" cy="-444.58" rx="108.38" ry="48.17"/>
<text text-anchor="middle" x="136.24" y="-463.38" font-family="Times New Roman,serif" font-size="14.00">[e..18)</text>
<text text-anchor="middle" x="136.24" y="-448.38" font-family="Times New Roman,serif" font-size="14.00">Count: 244</text>
<text text-anchor="middle" x="136.24" y="-433.38" font-family="Times New Roman,serif" font-size="14.00">Normalized count: 17.43</text>
<text text-anchor="middle" x="136.24" y="-418.38" font-family="Times New Roman,serif" font-size="14.00">Samples weight: 0.29</text>
</g>
<!-- BB1&#45;&gt;BB2 -->
<g id="edge3" class="edge">
<title>BB1&#45;&gt;BB2</title>
<path fill="none" stroke="black" d="M136.24,-528.39C136.24,-520.12 136.24,-511.44 136.24,-502.93"/>
<polygon fill="black" stroke="black" points="139.74,-502.69 136.24,-492.69 132.74,-502.69 139.74,-502.69"/>
</g>
<!-- BB2&#45;&gt;BB2 -->
<g id="edge4" class="edge">
<title>BB2&#45;&gt;BB2</title>
<path fill="none" stroke="black" d="M230.34,-468.31C249.07,-465.64 262.42,-457.73 262.42,-444.58 262.42,-433.9 253.61,-426.68 240.26,-422.91"/>
<polygon fill="black" stroke="black" points="240.84,-419.46 230.34,-420.85 239.42,-426.31 240.84,-419.46"/>
</g>
<!-- BB3 -->
<g id="node4" class="node">
<title>BB3</title>
<ellipse fill="none" stroke="black" cx="206.24" cy="-312.42" rx="108.38" ry="48.17"/>
<text text-anchor="middle" x="206.24" y="-331.22" font-family="Times New Roman,serif" font-size="14.00">[18..22)</text>
<text text-anchor="middle" x="206.24" y="-316.22" font-family="Times New Roman,serif" font-size="14.00">Count: 314</text>
<text text-anchor="middle" x="206.24" y="-301.22" font-family="Times New Roman,serif" font-size="14.00">Normalized count: 22.43</text>
<text text-anchor="middle" x="206.24" y="-286.22" font-family="Times New Roman,serif" font-size="14.00">Samples weight: 0.38</text>
</g>
<!-- BB2&#45;&gt;BB3 -->
<g id="edge5" class="edge">
<title>BB2&#45;&gt;BB3</title>
<path fill="none" stroke="black" d="M160.92,-397.69C166.04,-388.16 171.49,-378.03 176.76,-368.23"/>
<polygon fill="black" stroke="black" points="179.89,-369.8 181.55,-359.33 173.73,-366.48 179.89,-369.8"/>
</g>
<!-- BB3&#45;&gt;BB3 -->
<g id="edge6" class="edge">
<title>BB3&#45;&gt;BB3</title>
<path fill="none" stroke="black" d="M300.34,-336.15C319.07,-333.47 332.42,-325.56 332.42,-312.42 332.42,-301.73 323.61,-294.51 310.26,-290.74"/>
<polygon fill="black" stroke="black" points="310.84,-287.29 300.34,-288.69 309.42,-294.14 310.84,-287.29"/>
</g>
<!-- BB4 -->
<g id="node5" class="node">
<title>BB4</title>
<ellipse fill="none" stroke="black" cx="206.24" cy="-180.25" rx="103.48" ry="48.17"/>
<text text-anchor="middle" x="206.24" y="-199.05" font-family="Times New Roman,serif" font-size="14.00">[22..26)</text>
<text text-anchor="middle" x="206.24" y="-184.05" font-family="Times New Roman,serif" font-size="14.00">Count: 77</text>
<text text-anchor="middle" x="206.24" y="-169.05" font-family="Times New Roman,serif" font-size="14.00">Normalized count: 5.50</text>
<text text-anchor="middle" x="206.24" y="-154.05" font-family="Times New Roman,serif" font-size="14.00">Samples weight: 0.09</text>
</g>
<!-- BB3&#45;&gt;BB4 -->
<g id="edge7" class="edge">
<title>BB3&#45;&gt;BB4</title>
<path fill="none" stroke="black" d="M206.24,-264.05C206.24,-255.79 206.24,-247.1 206.24,-238.6"/>
<polygon fill="black" stroke="black" points="209.74,-238.36 206.24,-228.36 202.74,-238.36 209.74,-238.36"/>
</g>
<!-- BB5 -->
<g id="node6" class="node">
<title>BB5</title>
<ellipse fill="none" stroke="black" cx="103.24" cy="-48.08" rx="103.48" ry="48.17"/>
<text text-anchor="middle" x="103.24" y="-66.88" font-family="Times New Roman,serif" font-size="14.00">[26..36)</text>
<text text-anchor="middle" x="103.24" y="-51.88" font-family="Times New Roman,serif" font-size="14.00">Count: 86</text>
<text text-anchor="middle" x="103.24" y="-36.88" font-family="Times New Roman,serif" font-size="14.00">Normalized count: 6.14</text>
<text text-anchor="middle" x="103.24" y="-21.88" font-family="Times New Roman,serif" font-size="14.00">Samples weight: 0.10</text>
</g>
<!-- BB4&#45;&gt;BB5 -->
<g id="edge9" class="edge">
<title>BB4&#45;&gt;BB5</title>
<path fill="none" stroke="black" d="M171.08,-134.82C162.64,-124.15 153.54,-112.66 144.84,-101.66"/>
<polygon fill="black" stroke="black" points="147.54,-99.43 138.59,-93.76 142.05,-103.77 147.54,-99.43"/>
</g>
<!-- BB6 -->
<g id="node7" class="node">
<title>BB6</title>
<ellipse fill="none" stroke="black" cx="343.24" cy="-48.08" rx="103.48" ry="48.17"/>
<text text-anchor="middle" x="343.24" y="-66.88" font-family="Times New Roman,serif" font-size="14.00">[36..58)</text>
<text text-anchor="middle" x="343.24" y="-51.88" font-family="Times New Roman,serif" font-size="14.00">Count: 61</text>
<text text-anchor="middle" x="343.24" y="-36.88" font-family="Times New Roman,serif" font-size="14.00">Normalized count: 4.36</text>
<text text-anchor="middle" x="343.24" y="-21.88" font-family="Times New Roman,serif" font-size="14.00">Samples weight: 0.07</text>
</g>
<!-- BB4&#45;&gt;BB6 -->
<g id="edge8" class="edge">
<title>BB4&#45;&gt;BB6</title>
<path fill="none" stroke="black" d="M251.1,-136.63C263.75,-124.6 277.63,-111.41 290.7,-99"/>
<polygon fill="black" stroke="black" points="293.44,-101.23 298.28,-91.8 288.62,-96.15 293.44,-101.23"/>
</g>
<!-- BB5&#45;&gt;BB2 -->
<g id="edge10" class="edge">
<title>BB5&#45;&gt;BB2</title>
<path fill="none" stroke="black" d="M92.52,-96.17C80.39,-157.97 65.23,-269.3 89.24,-360.5 91.8,-370.24 95.79,-380.03 100.39,-389.31"/>
<polygon fill="black" stroke="black" points="97.42,-391.16 105.17,-398.39 103.61,-387.91 97.42,-391.16"/>
</g>
<!-- BB6&#45;&gt;BB7 -->
<g id="edge11" class="edge">
<title>BB6&#45;&gt;BB7</title>
<path fill="none" stroke="black" d="M344.76,-96.37C347.89,-193.2 355.01,-413.74 358.39,-518.48"/>
<polygon fill="black" stroke="black" points="354.89,-518.67 358.71,-528.55 361.89,-518.44 354.89,-518.67"/>
</g>
</g>
</svg>
