<?xml version="1.0" encoding="UTF-8" standalone="no"?>
<!DOCTYPE svg PUBLIC "-//W3C//DTD SVG 1.1//EN"
 "http://www.w3.org/Graphics/SVG/1.1/DTD/svg11.dtd">
<!-- Generated by graphviz version 2.47.0 (20210316.0004)
 -->
<!-- Title: G Pages: 1 -->
<svg width="523pt" height="633pt"
 viewBox="0.00 0.00 523.39 632.83" xmlns="http://www.w3.org/2000/svg" xmlns:xlink="http://www.w3.org/1999/xlink">
<g id="graph0" class="graph" transform="scale(1 1) rotate(0) translate(4 628.83)">
<title>G</title>
<polygon fill="white" stroke="transparent" points="-4,4 -4,-628.83 519.39,-628.83 519.39,4 -4,4"/>
<!-- BB0 -->
<g id="node1" class="node">
<title>BB0</title>
<ellipse fill="none" stroke="black" cx="163.2" cy="-576.75" rx="103.48" ry="48.17"/>
<text text-anchor="middle" x="163.2" y="-595.55" font-family="Times New Roman,serif" font-size="14.00">[0..11)</text>
<text text-anchor="middle" x="163.2" y="-580.55" font-family="Times New Roman,serif" font-size="14.00">Count: 2</text>
<text text-anchor="middle" x="163.2" y="-565.55" font-family="Times New Roman,serif" font-size="14.00">Normalized count: 1.00</text>
<text text-anchor="middle" x="163.2" y="-550.55" font-family="Times New Roman,serif" font-size="14.00">Samples weight: 0.00</text>
</g>
<!-- BB5 -->
<g id="node6" class="node">
<title>BB5</title>
<ellipse fill="none" stroke="black" cx="163.2" cy="-444.58" rx="118.17" ry="48.17"/>
<text text-anchor="middle" x="163.2" y="-463.38" font-family="Times New Roman,serif" font-size="14.00">[56..5a)</text>
<text text-anchor="middle" x="163.2" y="-448.38" font-family="Times New Roman,serif" font-size="14.00">Count: 4155</text>
<text text-anchor="middle" x="163.2" y="-433.38" font-family="Times New Roman,serif" font-size="14.00">Normalized count: 2077.50</text>
<text text-anchor="middle" x="163.2" y="-418.38" font-family="Times New Roman,serif" font-size="14.00">Samples weight: 0.25</text>
</g>
<!-- BB0&#45;&gt;BB5 -->
<g id="edge1" class="edge">
<title>BB0&#45;&gt;BB5</title>
<path fill="none" stroke="black" d="M163.2,-528.39C163.2,-520.12 163.2,-511.44 163.2,-502.93"/>
<polygon fill="black" stroke="black" points="166.7,-502.69 163.2,-492.69 159.7,-502.69 166.7,-502.69"/>
</g>
<!-- BB1 -->
<g id="node2" class="node">
<title>BB1</title>
<ellipse fill="none" stroke="black" cx="163.2" cy="-312.42" rx="118.17" ry="48.17"/>
<text text-anchor="middle" x="163.2" y="-331.22" font-family="Times New Roman,serif" font-size="14.00">[11..30)</text>
<text text-anchor="middle" x="163.2" y="-316.22" font-family="Times New Roman,serif" font-size="14.00">Count: 4153</text>
<text text-anchor="middle" x="163.2" y="-301.22" font-family="Times New Roman,serif" font-size="14.00">Normalized count: 2076.50</text>
<text text-anchor="middle" x="163.2" y="-286.22" font-family="Times New Roman,serif" font-size="14.00">Samples weight: 0.25</text>
</g>
<!-- BB2 -->
<g id="node3" class="node">
<title>BB2</title>
<ellipse fill="none" stroke="black" cx="163.2" cy="-180.25" rx="118.17" ry="48.17"/>
<text text-anchor="middle" x="163.2" y="-199.05" font-family="Times New Roman,serif" font-size="14.00">[30..40)</text>
<text text-anchor="middle" x="163.2" y="-184.05" font-family="Times New Roman,serif" font-size="14.00">Count: 4051</text>
<text text-anchor="middle" x="163.2" y="-169.05" font-family="Times New Roman,serif" font-size="14.00">Normalized count: 2025.50</text>
<text text-anchor="middle" x="163.2" y="-154.05" font-family="Times New Roman,serif" font-size="14.00">Samples weight: 0.24</text>
</g>
<!-- BB1&#45;&gt;BB2 -->
<g id="edge3" class="edge">
<title>BB1&#45;&gt;BB2</title>
<path fill="none" stroke="black" d="M163.2,-264.05C163.2,-255.79 163.2,-247.1 163.2,-238.6"/>
<polygon fill="black" stroke="black" points="166.7,-238.36 163.2,-228.36 159.7,-238.36 166.7,-238.36"/>
</g>
<!-- BB3 -->
<g id="node4" class="node">
<title>BB3</title>
<ellipse fill="none" stroke="black" cx="407.2" cy="-180.25" rx="108.38" ry="48.17"/>
<text text-anchor="middle" x="407.2" y="-199.05" font-family="Times New Roman,serif" font-size="14.00">[40..52)</text>
<text text-anchor="middle" x="407.2" y="-184.05" font-family="Times New Roman,serif" font-size="14.00">Count: 102</text>
<text text-anchor="middle" x="407.2" y="-169.05" font-family="Times New Roman,serif" font-size="14.00">Normalized count: 51.00</text>
<text text-anchor="middle" x="407.2" y="-154.05" font-family="Times New Roman,serif" font-size="14.00">Samples weight: 0.01</text>
</g>
<!-- BB1&#45;&gt;BB3 -->
<g id="edge2" class="edge">
<title>BB1&#45;&gt;BB3</title>
<path fill="none" stroke="black" d="M233.78,-273.77C263.88,-257.71 299.1,-238.92 329.91,-222.49"/>
<polygon fill="black" stroke="black" points="331.71,-225.49 338.89,-217.69 328.42,-219.31 331.71,-225.49"/>
</g>
<!-- BB4 -->
<g id="node5" class="node">
<title>BB4</title>
<ellipse fill="none" stroke="black" cx="163.2" cy="-48.08" rx="118.17" ry="48.17"/>
<text text-anchor="middle" x="163.2" y="-66.88" font-family="Times New Roman,serif" font-size="14.00">[52..56)</text>
<text text-anchor="middle" x="163.2" y="-51.88" font-family="Times New Roman,serif" font-size="14.00">Count: 4153</text>
<text text-anchor="middle" x="163.2" y="-36.88" font-family="Times New Roman,serif" font-size="14.00">Normalized count: 2076.50</text>
<text text-anchor="middle" x="163.2" y="-21.88" font-family="Times New Roman,serif" font-size="14.00">Samples weight: 0.25</text>
</g>
<!-- BB2&#45;&gt;BB4 -->
<g id="edge4" class="edge">
<title>BB2&#45;&gt;BB4</title>
<path fill="none" stroke="black" d="M163.2,-131.89C163.2,-123.62 163.2,-114.94 163.2,-106.43"/>
<polygon fill="black" stroke="black" points="166.7,-106.19 163.2,-96.19 159.7,-106.19 166.7,-106.19"/>
</g>
<!-- BB3&#45;&gt;BB4 -->
<g id="edge5" class="edge">
<title>BB3&#45;&gt;BB4</title>
<path fill="none" stroke="black" d="M338.91,-142.82C309.14,-126.94 274.04,-108.21 243.07,-91.69"/>
<polygon fill="black" stroke="black" points="244.5,-88.49 234.03,-86.87 241.21,-94.66 244.5,-88.49"/>
</g>
<!-- BB4&#45;&gt;BB5 -->
<g id="edge6" class="edge">
<title>BB4&#45;&gt;BB5</title>
<path fill="none" stroke="black" d="M83.83,-83.97C64.85,-96.32 46.98,-112.24 36.2,-132.17 -12.07,-221.43 -12.07,-271.23 36.2,-360.5 45.38,-377.47 59.7,-391.53 75.47,-402.96"/>
<polygon fill="black" stroke="black" points="73.61,-405.92 83.83,-408.7 77.57,-400.15 73.61,-405.92"/>
</g>
<!-- BB5&#45;&gt;BB1 -->
<g id="edge7" class="edge">
<title>BB5&#45;&gt;BB1</title>
<path fill="none" stroke="black" d="M163.2,-396.22C163.2,-387.95 163.2,-379.27 163.2,-370.77"/>
<polygon fill="black" stroke="black" points="166.7,-370.52 163.2,-360.52 159.7,-370.52 166.7,-370.52"/>
</g>
<!-- BB6 -->
<g id="node7" class="node">
<title>BB6</title>
<ellipse fill="none" stroke="black" cx="402.2" cy="-312.42" rx="103.48" ry="48.17"/>
<text text-anchor="middle" x="402.2" y="-331.22" font-family="Times New Roman,serif" font-size="14.00">[5a..5b)</text>
<text text-anchor="middle" x="402.2" y="-316.22" font-family="Times New Roman,serif" font-size="14.00">Count: 2</text>
<text text-anchor="middle" x="402.2" y="-301.22" font-family="Times New Roman,serif" font-size="14.00">Normalized count: 1.00</text>
<text text-anchor="middle" x="402.2" y="-286.22" font-family="Times New Roman,serif" font-size="14.00">Samples weight: 0.00</text>
</g>
<!-- BB5&#45;&gt;BB6 -->
<g id="edge8" class="edge">
<title>BB5&#45;&gt;BB6</title>
<path fill="none" stroke="black" d="M232.98,-405.58C262.57,-389.47 297.12,-370.65 327.25,-354.24"/>
<polygon fill="black" stroke="black" points="328.93,-357.31 336.04,-349.45 325.59,-351.16 328.93,-357.31"/>
</g>
</g>
</svg>
