<?xml version="1.0" encoding="UTF-8" standalone="no"?>
<!DOCTYPE svg PUBLIC "-//W3C//DTD SVG 1.1//EN"
 "http://www.w3.org/Graphics/SVG/1.1/DTD/svg11.dtd">
<!-- Generated by graphviz version 2.47.0 (20210316.0004)
 -->
<!-- Title: G Pages: 1 -->
<svg width="591pt" height="1082pt"
 viewBox="0.00 0.00 590.72 1081.53" xmlns="http://www.w3.org/2000/svg" xmlns:xlink="http://www.w3.org/1999/xlink">
<g id="graph0" class="graph" transform="scale(1 1) rotate(0) translate(4 1077.53)">
<title>G</title>
<polygon fill="white" stroke="transparent" points="-4,4 -4,-1077.53 586.72,-1077.53 586.72,4 -4,4"/>
<!-- BB0 -->
<g id="node1" class="node">
<title>BB0</title>
<ellipse fill="none" stroke="black" cx="243.36" cy="-1036.06" rx="105.22" ry="37.45"/>
<text text-anchor="middle" x="243.36" y="-1047.36" font-family="Times New Roman,serif" font-size="14.00">[0..31)</text>
<text text-anchor="middle" x="243.36" y="-1032.36" font-family="Times New Roman,serif" font-size="14.00">Normalized Count: 1.00</text>
<text text-anchor="middle" x="243.36" y="-1017.36" font-family="Times New Roman,serif" font-size="14.00">Samples weight: 0.04</text>
</g>
<!-- BB13 -->
<g id="node14" class="node">
<title>BB13</title>
<ellipse fill="none" stroke="black" cx="243.36" cy="-925.1" rx="105.22" ry="37.45"/>
<text text-anchor="middle" x="243.36" y="-936.4" font-family="Times New Roman,serif" font-size="14.00">[162..16b)</text>
<text text-anchor="middle" x="243.36" y="-921.4" font-family="Times New Roman,serif" font-size="14.00">Normalized Count: 2.00</text>
<text text-anchor="middle" x="243.36" y="-906.4" font-family="Times New Roman,serif" font-size="14.00">Samples weight: 0.07</text>
</g>
<!-- BB0&#45;&gt;BB13 -->
<g id="edge1" class="edge">
<title>BB0&#45;&gt;BB13</title>
<path fill="none" stroke="black" d="M243.36,-998.47C243.36,-990.3 243.36,-981.52 243.36,-972.99"/>
<polygon fill="black" stroke="black" points="246.86,-972.78 243.36,-962.78 239.86,-972.78 246.86,-972.78"/>
</g>
<!-- BB1 -->
<g id="node2" class="node">
<title>BB1</title>
<ellipse fill="none" stroke="black" cx="243.36" cy="-814.15" rx="110.12" ry="37.45"/>
<text text-anchor="middle" x="243.36" y="-825.45" font-family="Times New Roman,serif" font-size="14.00">[31..6a)</text>
<text text-anchor="middle" x="243.36" y="-810.45" font-family="Times New Roman,serif" font-size="14.00">Normalized Count: 11.50</text>
<text text-anchor="middle" x="243.36" y="-795.45" font-family="Times New Roman,serif" font-size="14.00">Samples weight: 0.41</text>
</g>
<!-- BB2 -->
<g id="node3" class="node">
<title>BB2</title>
<ellipse fill="none" stroke="black" cx="240.36" cy="-703.2" rx="105.22" ry="37.45"/>
<text text-anchor="middle" x="240.36" y="-714.5" font-family="Times New Roman,serif" font-size="14.00">[6a..7c)</text>
<text text-anchor="middle" x="240.36" y="-699.5" font-family="Times New Roman,serif" font-size="14.00">Normalized Count: 0.00</text>
<text text-anchor="middle" x="240.36" y="-684.5" font-family="Times New Roman,serif" font-size="14.00">Samples weight: 0.00</text>
</g>
<!-- BB1&#45;&gt;BB2 -->
<g id="edge3" class="edge">
<title>BB1&#45;&gt;BB2</title>
<path fill="none" stroke="black" d="M242.35,-776.57C242.13,-768.39 241.88,-759.61 241.65,-751.09"/>
<polygon fill="black" stroke="black" points="245.14,-750.77 241.37,-740.87 238.15,-750.96 245.14,-750.77"/>
</g>
<!-- BB3 -->
<g id="node4" class="node">
<title>BB3</title>
<ellipse fill="none" stroke="black" cx="469.36" cy="-703.2" rx="105.22" ry="37.45"/>
<text text-anchor="middle" x="469.36" y="-714.5" font-family="Times New Roman,serif" font-size="14.00">[7c..7d)</text>
<text text-anchor="middle" x="469.36" y="-699.5" font-family="Times New Roman,serif" font-size="14.00">Normalized Count: 0.00</text>
<text text-anchor="middle" x="469.36" y="-684.5" font-family="Times New Roman,serif" font-size="14.00">Samples weight: 0.00</text>
</g>
<!-- BB1&#45;&gt;BB3 -->
<g id="edge2" class="edge">
<title>BB1&#45;&gt;BB3</title>
<path fill="none" stroke="black" d="M305.71,-783.09C334.6,-769.16 369.06,-752.55 398.89,-738.17"/>
<polygon fill="black" stroke="black" points="400.5,-741.28 407.99,-733.78 397.46,-734.97 400.5,-741.28"/>
</g>
<!-- BB4 -->
<g id="node5" class="node">
<title>BB4</title>
<ellipse fill="none" stroke="black" cx="287.36" cy="-592.24" rx="105.22" ry="37.45"/>
<text text-anchor="middle" x="287.36" y="-603.54" font-family="Times New Roman,serif" font-size="14.00">[7d..82)</text>
<text text-anchor="middle" x="287.36" y="-588.54" font-family="Times New Roman,serif" font-size="14.00">Normalized Count: 0.50</text>
<text text-anchor="middle" x="287.36" y="-573.54" font-family="Times New Roman,serif" font-size="14.00">Samples weight: 0.02</text>
</g>
<!-- BB2&#45;&gt;BB4 -->
<g id="edge4" class="edge">
<title>BB2&#45;&gt;BB4</title>
<path fill="none" stroke="black" d="M256.01,-665.92C259.77,-657.19 263.84,-647.75 267.76,-638.67"/>
<polygon fill="black" stroke="black" points="271.03,-639.93 271.78,-629.36 264.6,-637.16 271.03,-639.93"/>
</g>
<!-- BB3&#45;&gt;BB4 -->
<g id="edge5" class="edge">
<title>BB3&#45;&gt;BB4</title>
<path fill="none" stroke="black" d="M416.72,-670.68C395.49,-657.98 370.86,-643.23 348.82,-630.04"/>
<polygon fill="black" stroke="black" points="350.58,-627.01 340.2,-624.87 346.98,-633.01 350.58,-627.01"/>
</g>
<!-- BB5 -->
<g id="node6" class="node">
<title>BB5</title>
<ellipse fill="none" stroke="black" cx="334.36" cy="-481.29" rx="105.22" ry="37.45"/>
<text text-anchor="middle" x="334.36" y="-492.59" font-family="Times New Roman,serif" font-size="14.00">[82..95)</text>
<text text-anchor="middle" x="334.36" y="-477.59" font-family="Times New Roman,serif" font-size="14.00">Normalized Count: 0.00</text>
<text text-anchor="middle" x="334.36" y="-462.59" font-family="Times New Roman,serif" font-size="14.00">Samples weight: 0.00</text>
</g>
<!-- BB4&#45;&gt;BB5 -->
<g id="edge7" class="edge">
<title>BB4&#45;&gt;BB5</title>
<path fill="none" stroke="black" d="M303.01,-554.96C306.77,-546.23 310.84,-536.8 314.76,-527.71"/>
<polygon fill="black" stroke="black" points="318.03,-528.98 318.78,-518.41 311.6,-526.21 318.03,-528.98"/>
</g>
<!-- BB12 -->
<g id="node13" class="node">
<title>BB12</title>
<ellipse fill="none" stroke="black" cx="105.36" cy="-481.29" rx="105.22" ry="37.45"/>
<text text-anchor="middle" x="105.36" y="-492.59" font-family="Times New Roman,serif" font-size="14.00">[15e..162)</text>
<text text-anchor="middle" x="105.36" y="-477.59" font-family="Times New Roman,serif" font-size="14.00">Normalized Count: 0.00</text>
<text text-anchor="middle" x="105.36" y="-462.59" font-family="Times New Roman,serif" font-size="14.00">Samples weight: 0.00</text>
</g>
<!-- BB4&#45;&gt;BB12 -->
<g id="edge6" class="edge">
<title>BB4&#45;&gt;BB12</title>
<path fill="none" stroke="black" d="M234.72,-559.73C213.49,-547.02 188.86,-532.28 166.82,-519.09"/>
<polygon fill="black" stroke="black" points="168.58,-516.05 158.2,-513.92 164.98,-522.06 168.58,-516.05"/>
</g>
<!-- BB6 -->
<g id="node7" class="node">
<title>BB6</title>
<ellipse fill="none" stroke="black" cx="238.36" cy="-370.34" rx="105.22" ry="37.45"/>
<text text-anchor="middle" x="238.36" y="-381.64" font-family="Times New Roman,serif" font-size="14.00">[95..b7)</text>
<text text-anchor="middle" x="238.36" y="-366.64" font-family="Times New Roman,serif" font-size="14.00">Normalized Count: 0.50</text>
<text text-anchor="middle" x="238.36" y="-351.64" font-family="Times New Roman,serif" font-size="14.00">Samples weight: 0.02</text>
</g>
<!-- BB5&#45;&gt;BB6 -->
<g id="edge9" class="edge">
<title>BB5&#45;&gt;BB6</title>
<path fill="none" stroke="black" d="M303.46,-445.22C294.72,-435.3 285.12,-424.4 276.03,-414.09"/>
<polygon fill="black" stroke="black" points="278.44,-411.53 269.2,-406.34 273.19,-416.16 278.44,-411.53"/>
</g>
<!-- BB7 -->
<g id="node8" class="node">
<title>BB7</title>
<ellipse fill="none" stroke="black" cx="467.36" cy="-370.34" rx="105.22" ry="37.45"/>
<text text-anchor="middle" x="467.36" y="-381.64" font-family="Times New Roman,serif" font-size="14.00">[b7..c5)</text>
<text text-anchor="middle" x="467.36" y="-366.64" font-family="Times New Roman,serif" font-size="14.00">Normalized Count: 0.00</text>
<text text-anchor="middle" x="467.36" y="-351.64" font-family="Times New Roman,serif" font-size="14.00">Samples weight: 0.00</text>
</g>
<!-- BB5&#45;&gt;BB7 -->
<g id="edge8" class="edge">
<title>BB5&#45;&gt;BB7</title>
<path fill="none" stroke="black" d="M375.35,-446.71C389,-435.53 404.34,-422.96 418.53,-411.34"/>
<polygon fill="black" stroke="black" points="420.76,-414.04 426.28,-404.99 416.32,-408.62 420.76,-414.04"/>
</g>
<!-- BB8 -->
<g id="node9" class="node">
<title>BB8</title>
<ellipse fill="none" stroke="black" cx="352.36" cy="-259.38" rx="105.22" ry="37.45"/>
<text text-anchor="middle" x="352.36" y="-270.68" font-family="Times New Roman,serif" font-size="14.00">[c5..e0)</text>
<text text-anchor="middle" x="352.36" y="-255.68" font-family="Times New Roman,serif" font-size="14.00">Normalized Count: 4.00</text>
<text text-anchor="middle" x="352.36" y="-240.68" font-family="Times New Roman,serif" font-size="14.00">Samples weight: 0.14</text>
</g>
<!-- BB6&#45;&gt;BB8 -->
<g id="edge10" class="edge">
<title>BB6&#45;&gt;BB8</title>
<path fill="none" stroke="black" d="M274.43,-334.86C285.45,-324.33 297.69,-312.63 309.14,-301.69"/>
<polygon fill="black" stroke="black" points="311.71,-304.07 316.52,-294.63 306.88,-299.01 311.71,-304.07"/>
</g>
<!-- BB7&#45;&gt;BB8 -->
<g id="edge11" class="edge">
<title>BB7&#45;&gt;BB8</title>
<path fill="none" stroke="black" d="M430.97,-334.86C419.85,-324.33 407.51,-312.63 395.96,-301.69"/>
<polygon fill="black" stroke="black" points="398.18,-298.97 388.51,-294.63 393.36,-304.05 398.18,-298.97"/>
</g>
<!-- BB9 -->
<g id="node10" class="node">
<title>BB9</title>
<ellipse fill="none" stroke="black" cx="238.36" cy="-148.43" rx="105.22" ry="37.45"/>
<text text-anchor="middle" x="238.36" y="-159.73" font-family="Times New Roman,serif" font-size="14.00">[e0..102)</text>
<text text-anchor="middle" x="238.36" y="-144.73" font-family="Times New Roman,serif" font-size="14.00">Normalized Count: 0.50</text>
<text text-anchor="middle" x="238.36" y="-129.73" font-family="Times New Roman,serif" font-size="14.00">Samples weight: 0.02</text>
</g>
<!-- BB8&#45;&gt;BB9 -->
<g id="edge13" class="edge">
<title>BB8&#45;&gt;BB9</title>
<path fill="none" stroke="black" d="M316.29,-223.91C305.27,-213.37 293.03,-201.68 281.58,-190.74"/>
<polygon fill="black" stroke="black" points="283.84,-188.06 274.19,-183.68 279.01,-193.12 283.84,-188.06"/>
</g>
<!-- BB10 -->
<g id="node11" class="node">
<title>BB10</title>
<ellipse fill="none" stroke="black" cx="467.36" cy="-148.43" rx="105.22" ry="37.45"/>
<text text-anchor="middle" x="467.36" y="-159.73" font-family="Times New Roman,serif" font-size="14.00">[102..120)</text>
<text text-anchor="middle" x="467.36" y="-144.73" font-family="Times New Roman,serif" font-size="14.00">Normalized Count: 0.50</text>
<text text-anchor="middle" x="467.36" y="-129.73" font-family="Times New Roman,serif" font-size="14.00">Samples weight: 0.02</text>
</g>
<!-- BB8&#45;&gt;BB10 -->
<g id="edge12" class="edge">
<title>BB8&#45;&gt;BB10</title>
<path fill="none" stroke="black" d="M388.75,-223.91C399.87,-213.37 412.21,-201.68 423.76,-190.74"/>
<polygon fill="black" stroke="black" points="426.36,-193.1 431.21,-183.68 421.54,-188.02 426.36,-193.1"/>
</g>
<!-- BB11 -->
<g id="node12" class="node">
<title>BB11</title>
<ellipse fill="none" stroke="black" cx="238.36" cy="-37.48" rx="105.22" ry="37.45"/>
<text text-anchor="middle" x="238.36" y="-48.78" font-family="Times New Roman,serif" font-size="14.00">[120..15e)</text>
<text text-anchor="middle" x="238.36" y="-33.78" font-family="Times New Roman,serif" font-size="14.00">Normalized Count: 7.50</text>
<text text-anchor="middle" x="238.36" y="-18.78" font-family="Times New Roman,serif" font-size="14.00">Samples weight: 0.27</text>
</g>
<!-- BB9&#45;&gt;BB11 -->
<g id="edge14" class="edge">
<title>BB9&#45;&gt;BB11</title>
<path fill="none" stroke="black" d="M238.36,-110.85C238.36,-102.67 238.36,-93.89 238.36,-85.37"/>
<polygon fill="black" stroke="black" points="241.86,-85.15 238.36,-75.15 234.86,-85.15 241.86,-85.15"/>
</g>
<!-- BB10&#45;&gt;BB11 -->
<g id="edge15" class="edge">
<title>BB10&#45;&gt;BB11</title>
<path fill="none" stroke="black" d="M405.39,-117.95C375.86,-103.9 340.38,-87.01 309.72,-72.43"/>
<polygon fill="black" stroke="black" points="310.91,-69.12 300.38,-67.98 307.91,-75.44 310.91,-69.12"/>
</g>
<!-- BB11&#45;&gt;BB12 -->
<g id="edge16" class="edge">
<title>BB11&#45;&gt;BB12</title>
<path fill="none" stroke="black" d="M171.33,-66.65C153.01,-77.71 135.23,-92.31 124.36,-110.95 64.66,-213.32 81.17,-360.06 95.03,-433.98"/>
<polygon fill="black" stroke="black" points="91.61,-434.77 96.96,-443.92 98.49,-433.43 91.61,-434.77"/>
</g>
<!-- BB12&#45;&gt;BB13 -->
<g id="edge17" class="edge">
<title>BB12&#45;&gt;BB13</title>
<path fill="none" stroke="black" d="M96.77,-518.77C82.39,-588.91 60.82,-745.05 124.36,-851.63 134.03,-867.84 148.86,-880.91 164.81,-891.24"/>
<polygon fill="black" stroke="black" points="163.4,-894.48 173.76,-896.69 167.05,-888.5 163.4,-894.48"/>
</g>
<!-- BB13&#45;&gt;BB1 -->
<g id="edge18" class="edge">
<title>BB13&#45;&gt;BB1</title>
<path fill="none" stroke="black" d="M243.36,-887.52C243.36,-879.35 243.36,-870.57 243.36,-862.04"/>
<polygon fill="black" stroke="black" points="246.86,-861.82 243.36,-851.82 239.86,-861.82 246.86,-861.82"/>
</g>
<!-- BB14 -->
<g id="node15" class="node">
<title>BB14</title>
<ellipse fill="none" stroke="black" cx="477.36" cy="-814.15" rx="105.22" ry="37.45"/>
<text text-anchor="middle" x="477.36" y="-825.45" font-family="Times New Roman,serif" font-size="14.00">[16b..16d)</text>
<text text-anchor="middle" x="477.36" y="-810.45" font-family="Times New Roman,serif" font-size="14.00">Normalized Count: 0.00</text>
<text text-anchor="middle" x="477.36" y="-795.45" font-family="Times New Roman,serif" font-size="14.00">Samples weight: 0.00</text>
</g>
<!-- BB13&#45;&gt;BB14 -->
<g id="edge19" class="edge">
<title>BB13&#45;&gt;BB14</title>
<path fill="none" stroke="black" d="M306.07,-894.91C336.62,-880.68 373.53,-863.49 405.25,-848.73"/>
<polygon fill="black" stroke="black" points="406.89,-851.82 414.48,-844.43 403.94,-845.48 406.89,-851.82"/>
</g>
</g>
</svg>
