<?xml version="1.0" encoding="UTF-8" standalone="no"?>
<!DOCTYPE svg PUBLIC "-//W3C//DTD SVG 1.1//EN"
 "http://www.w3.org/Graphics/SVG/1.1/DTD/svg11.dtd">
<!-- Generated by graphviz version 2.47.0 (20210316.0004)
 -->
<!-- Title: G Pages: 1 -->
<svg width="591pt" height="897pt"
 viewBox="0.00 0.00 591.30 897.17" xmlns="http://www.w3.org/2000/svg" xmlns:xlink="http://www.w3.org/1999/xlink">
<g id="graph0" class="graph" transform="scale(1 1) rotate(0) translate(4 893.17)">
<title>G</title>
<polygon fill="white" stroke="transparent" points="-4,4 -4,-893.17 587.3,-893.17 587.3,4 -4,4"/>
<!-- BB0 -->
<g id="node1" class="node">
<title>BB0</title>
<ellipse fill="none" stroke="black" cx="242.65" cy="-841.08" rx="104.8" ry="48.17"/>
<text text-anchor="middle" x="242.65" y="-859.88" font-family="Times New Roman,serif" font-size="14.00">[0..4)</text>
<text text-anchor="middle" x="242.65" y="-844.88" font-family="Times New Roman,serif" font-size="14.00">Count: 0</text>
<text text-anchor="middle" x="242.65" y="-829.88" font-family="Times New Roman,serif" font-size="14.00">Normalized count: NaN</text>
<text text-anchor="middle" x="242.65" y="-814.88" font-family="Times New Roman,serif" font-size="14.00">Samples weight: 0.00</text>
</g>
<!-- BB8 -->
<g id="node9" class="node">
<title>BB8</title>
<ellipse fill="none" stroke="black" cx="242.65" cy="-708.92" rx="113.69" ry="48.17"/>
<text text-anchor="middle" x="242.65" y="-727.72" font-family="Times New Roman,serif" font-size="14.00">[44..48)</text>
<text text-anchor="middle" x="242.65" y="-712.72" font-family="Times New Roman,serif" font-size="14.00">Count: 1</text>
<text text-anchor="middle" x="242.65" y="-697.72" font-family="Times New Roman,serif" font-size="14.00">Normalized count: Infinity</text>
<text text-anchor="middle" x="242.65" y="-682.72" font-family="Times New Roman,serif" font-size="14.00">Samples weight: 0.00</text>
</g>
<!-- BB0&#45;&gt;BB8 -->
<g id="edge1" class="edge">
<title>BB0&#45;&gt;BB8</title>
<path fill="none" stroke="black" d="M242.65,-792.72C242.65,-784.45 242.65,-775.77 242.65,-767.27"/>
<polygon fill="black" stroke="black" points="246.15,-767.02 242.65,-757.02 239.15,-767.02 246.15,-767.02"/>
</g>
<!-- BB1 -->
<g id="node2" class="node">
<title>BB1</title>
<ellipse fill="none" stroke="black" cx="242.65" cy="-576.75" rx="113.69" ry="48.17"/>
<text text-anchor="middle" x="242.65" y="-595.55" font-family="Times New Roman,serif" font-size="14.00">[4..8)</text>
<text text-anchor="middle" x="242.65" y="-580.55" font-family="Times New Roman,serif" font-size="14.00">Count: 2</text>
<text text-anchor="middle" x="242.65" y="-565.55" font-family="Times New Roman,serif" font-size="14.00">Normalized count: Infinity</text>
<text text-anchor="middle" x="242.65" y="-550.55" font-family="Times New Roman,serif" font-size="14.00">Samples weight: 0.00</text>
</g>
<!-- BB6 -->
<g id="node7" class="node">
<title>BB6</title>
<ellipse fill="none" stroke="black" cx="242.65" cy="-444.58" rx="113.69" ry="48.17"/>
<text text-anchor="middle" x="242.65" y="-463.38" font-family="Times New Roman,serif" font-size="14.00">[3c..40)</text>
<text text-anchor="middle" x="242.65" y="-448.38" font-family="Times New Roman,serif" font-size="14.00">Count: 4</text>
<text text-anchor="middle" x="242.65" y="-433.38" font-family="Times New Roman,serif" font-size="14.00">Normalized count: Infinity</text>
<text text-anchor="middle" x="242.65" y="-418.38" font-family="Times New Roman,serif" font-size="14.00">Samples weight: 0.00</text>
</g>
<!-- BB1&#45;&gt;BB6 -->
<g id="edge2" class="edge">
<title>BB1&#45;&gt;BB6</title>
<path fill="none" stroke="black" d="M242.65,-528.39C242.65,-520.12 242.65,-511.44 242.65,-502.93"/>
<polygon fill="black" stroke="black" points="246.15,-502.69 242.65,-492.69 239.15,-502.69 246.15,-502.69"/>
</g>
<!-- BB2 -->
<g id="node3" class="node">
<title>BB2</title>
<ellipse fill="none" stroke="black" cx="407.65" cy="-312.42" rx="113.69" ry="48.17"/>
<text text-anchor="middle" x="407.65" y="-331.22" font-family="Times New Roman,serif" font-size="14.00">[8..1a)</text>
<text text-anchor="middle" x="407.65" y="-316.22" font-family="Times New Roman,serif" font-size="14.00">Count: 21</text>
<text text-anchor="middle" x="407.65" y="-301.22" font-family="Times New Roman,serif" font-size="14.00">Normalized count: Infinity</text>
<text text-anchor="middle" x="407.65" y="-286.22" font-family="Times New Roman,serif" font-size="14.00">Samples weight: 0.01</text>
</g>
<!-- BB4 -->
<g id="node5" class="node">
<title>BB4</title>
<ellipse fill="none" stroke="black" cx="420.65" cy="-180.25" rx="113.69" ry="48.17"/>
<text text-anchor="middle" x="420.65" y="-199.05" font-family="Times New Roman,serif" font-size="14.00">[34..38)</text>
<text text-anchor="middle" x="420.65" y="-184.05" font-family="Times New Roman,serif" font-size="14.00">Count: 84</text>
<text text-anchor="middle" x="420.65" y="-169.05" font-family="Times New Roman,serif" font-size="14.00">Normalized count: Infinity</text>
<text text-anchor="middle" x="420.65" y="-154.05" font-family="Times New Roman,serif" font-size="14.00">Samples weight: 0.05</text>
</g>
<!-- BB2&#45;&gt;BB4 -->
<g id="edge3" class="edge">
<title>BB2&#45;&gt;BB4</title>
<path fill="none" stroke="black" d="M412.38,-264.05C413.22,-255.7 414.09,-246.91 414.95,-238.32"/>
<polygon fill="black" stroke="black" points="418.44,-238.66 415.95,-228.36 411.47,-237.96 418.44,-238.66"/>
</g>
<!-- BB3 -->
<g id="node4" class="node">
<title>BB3</title>
<ellipse fill="none" stroke="black" cx="433.65" cy="-48.08" rx="113.69" ry="48.17"/>
<text text-anchor="middle" x="433.65" y="-66.88" font-family="Times New Roman,serif" font-size="14.00">[1a..34)</text>
<text text-anchor="middle" x="433.65" y="-51.88" font-family="Times New Roman,serif" font-size="14.00">Count: 1429</text>
<text text-anchor="middle" x="433.65" y="-36.88" font-family="Times New Roman,serif" font-size="14.00">Normalized count: Infinity</text>
<text text-anchor="middle" x="433.65" y="-21.88" font-family="Times New Roman,serif" font-size="14.00">Samples weight: 0.93</text>
</g>
<!-- BB3&#45;&gt;BB4 -->
<g id="edge4" class="edge">
<title>BB3&#45;&gt;BB4</title>
<path fill="none" stroke="black" d="M435.44,-96.44C434.83,-104.83 434.01,-113.64 433.05,-122.26"/>
<polygon fill="black" stroke="black" points="429.56,-121.91 431.86,-132.26 436.51,-122.74 429.56,-121.91"/>
</g>
<!-- BB4&#45;&gt;BB3 -->
<g id="edge5" class="edge">
<title>BB4&#45;&gt;BB3</title>
<path fill="none" stroke="black" d="M418.86,-131.89C419.47,-123.53 420.29,-114.75 421.25,-106.15"/>
<polygon fill="black" stroke="black" points="424.73,-106.53 422.43,-96.19 417.78,-105.71 424.73,-106.53"/>
</g>
<!-- BB5 -->
<g id="node6" class="node">
<title>BB5</title>
<ellipse fill="none" stroke="black" cx="187.65" cy="-48.08" rx="113.69" ry="48.17"/>
<text text-anchor="middle" x="187.65" y="-66.88" font-family="Times New Roman,serif" font-size="14.00">[38..3c)</text>
<text text-anchor="middle" x="187.65" y="-51.88" font-family="Times New Roman,serif" font-size="14.00">Count: 3</text>
<text text-anchor="middle" x="187.65" y="-36.88" font-family="Times New Roman,serif" font-size="14.00">Normalized count: Infinity</text>
<text text-anchor="middle" x="187.65" y="-21.88" font-family="Times New Roman,serif" font-size="14.00">Samples weight: 0.00</text>
</g>
<!-- BB4&#45;&gt;BB5 -->
<g id="edge6" class="edge">
<title>BB4&#45;&gt;BB5</title>
<path fill="none" stroke="black" d="M352.95,-141.43C325.18,-125.92 292.91,-107.88 264.28,-91.89"/>
<polygon fill="black" stroke="black" points="265.96,-88.82 255.53,-87 262.55,-94.93 265.96,-88.82"/>
</g>
<!-- BB5&#45;&gt;BB6 -->
<g id="edge7" class="edge">
<title>BB5&#45;&gt;BB6</title>
<path fill="none" stroke="black" d="M194.56,-96.09C200.93,-139.69 210.6,-206.37 218.65,-264.33 224.32,-305.09 230.47,-351.1 235.13,-386.3"/>
<polygon fill="black" stroke="black" points="231.68,-386.93 236.46,-396.39 238.62,-386.02 231.68,-386.93"/>
</g>
<!-- BB6&#45;&gt;BB2 -->
<g id="edge8" class="edge">
<title>BB6&#45;&gt;BB2</title>
<path fill="none" stroke="black" d="M295.77,-401.68C311.96,-388.91 329.89,-374.76 346.56,-361.61"/>
<polygon fill="black" stroke="black" points="348.95,-364.18 354.64,-355.24 344.62,-358.69 348.95,-364.18"/>
</g>
<!-- BB7 -->
<g id="node8" class="node">
<title>BB7</title>
<ellipse fill="none" stroke="black" cx="104.65" cy="-312.42" rx="104.8" ry="48.17"/>
<text text-anchor="middle" x="104.65" y="-331.22" font-family="Times New Roman,serif" font-size="14.00">[40..44)</text>
<text text-anchor="middle" x="104.65" y="-316.22" font-family="Times New Roman,serif" font-size="14.00">Count: 0</text>
<text text-anchor="middle" x="104.65" y="-301.22" font-family="Times New Roman,serif" font-size="14.00">Normalized count: NaN</text>
<text text-anchor="middle" x="104.65" y="-286.22" font-family="Times New Roman,serif" font-size="14.00">Samples weight: 0.00</text>
</g>
<!-- BB6&#45;&gt;BB7 -->
<g id="edge9" class="edge">
<title>BB6&#45;&gt;BB7</title>
<path fill="none" stroke="black" d="M196.7,-400.24C184.12,-388.37 170.38,-375.41 157.44,-363.21"/>
<polygon fill="black" stroke="black" points="159.61,-360.44 149.93,-356.13 154.81,-365.54 159.61,-360.44"/>
</g>
<!-- BB7&#45;&gt;BB8 -->
<g id="edge10" class="edge">
<title>BB7&#45;&gt;BB8</title>
<path fill="none" stroke="black" d="M94.59,-360.5C83.46,-424.76 72.74,-541.45 119.65,-624.83 129.07,-641.57 143.42,-655.6 159.04,-667.08"/>
<polygon fill="black" stroke="black" points="157.1,-670 167.31,-672.86 161.11,-664.26 157.1,-670"/>
</g>
<!-- BB8&#45;&gt;BB1 -->
<g id="edge11" class="edge">
<title>BB8&#45;&gt;BB1</title>
<path fill="none" stroke="black" d="M242.65,-660.55C242.65,-652.29 242.65,-643.6 242.65,-635.1"/>
<polygon fill="black" stroke="black" points="246.15,-634.86 242.65,-624.86 239.15,-634.86 246.15,-634.86"/>
</g>
<!-- BB9 -->
<g id="node10" class="node">
<title>BB9</title>
<ellipse fill="none" stroke="black" cx="478.65" cy="-576.75" rx="104.8" ry="48.17"/>
<text text-anchor="middle" x="478.65" y="-595.55" font-family="Times New Roman,serif" font-size="14.00">[48..49)</text>
<text text-anchor="middle" x="478.65" y="-580.55" font-family="Times New Roman,serif" font-size="14.00">Count: 0</text>
<text text-anchor="middle" x="478.65" y="-565.55" font-family="Times New Roman,serif" font-size="14.00">Normalized count: NaN</text>
<text text-anchor="middle" x="478.65" y="-550.55" font-family="Times New Roman,serif" font-size="14.00">Samples weight: 0.00</text>
</g>
<!-- BB8&#45;&gt;BB9 -->
<g id="edge12" class="edge">
<title>BB8&#45;&gt;BB9</title>
<path fill="none" stroke="black" d="M310.91,-670.27C339.9,-654.28 373.8,-635.58 403.5,-619.2"/>
<polygon fill="black" stroke="black" points="405.51,-622.09 412.58,-614.19 402.13,-615.96 405.51,-622.09"/>
</g>
</g>
</svg>
