<?xml version="1.0" encoding="UTF-8" standalone="no"?>
<!DOCTYPE svg PUBLIC "-//W3C//DTD SVG 1.1//EN"
 "http://www.w3.org/Graphics/SVG/1.1/DTD/svg11.dtd">
<!-- Generated by graphviz version 2.47.0 (20210316.0004)
 -->
<!-- Title: G Pages: 1 -->
<svg width="1078pt" height="897pt"
 viewBox="0.00 0.00 1078.39 897.17" xmlns="http://www.w3.org/2000/svg" xmlns:xlink="http://www.w3.org/1999/xlink">
<g id="graph0" class="graph" transform="scale(1 1) rotate(0) translate(4 893.17)">
<title>G</title>
<polygon fill="white" stroke="transparent" points="-4,4 -4,-893.17 1074.39,-893.17 1074.39,4 -4,4"/>
<!-- BB0 -->
<g id="node1" class="node">
<title>BB0</title>
<ellipse fill="none" stroke="black" cx="832.24" cy="-841.08" rx="103.48" ry="48.17"/>
<text text-anchor="middle" x="832.24" y="-859.88" font-family="Times New Roman,serif" font-size="14.00">[0..4)</text>
<text text-anchor="middle" x="832.24" y="-844.88" font-family="Times New Roman,serif" font-size="14.00">Count: 7</text>
<text text-anchor="middle" x="832.24" y="-829.88" font-family="Times New Roman,serif" font-size="14.00">Normalized count: 1.00</text>
<text text-anchor="middle" x="832.24" y="-814.88" font-family="Times New Roman,serif" font-size="14.00">Samples weight: 0.01</text>
</g>
<!-- BB1 -->
<g id="node2" class="node">
<title>BB1</title>
<ellipse fill="none" stroke="black" cx="720.24" cy="-708.92" rx="103.48" ry="48.17"/>
<text text-anchor="middle" x="720.24" y="-727.72" font-family="Times New Roman,serif" font-size="14.00">[4..e)</text>
<text text-anchor="middle" x="720.24" y="-712.72" font-family="Times New Roman,serif" font-size="14.00">Count: 27</text>
<text text-anchor="middle" x="720.24" y="-697.72" font-family="Times New Roman,serif" font-size="14.00">Normalized count: 3.86</text>
<text text-anchor="middle" x="720.24" y="-682.72" font-family="Times New Roman,serif" font-size="14.00">Samples weight: 0.05</text>
</g>
<!-- BB0&#45;&gt;BB1 -->
<g id="edge2" class="edge">
<title>BB0&#45;&gt;BB1</title>
<path fill="none" stroke="black" d="M794.32,-796.01C784.83,-784.99 774.57,-773.06 764.79,-761.7"/>
<polygon fill="black" stroke="black" points="767.29,-759.24 758.12,-753.94 761.99,-763.8 767.29,-759.24"/>
</g>
<!-- BB15 -->
<g id="node16" class="node">
<title>BB15</title>
<ellipse fill="none" stroke="black" cx="944.24" cy="-708.92" rx="103.48" ry="48.17"/>
<text text-anchor="middle" x="944.24" y="-727.72" font-family="Times New Roman,serif" font-size="14.00">[66..67)</text>
<text text-anchor="middle" x="944.24" y="-712.72" font-family="Times New Roman,serif" font-size="14.00">Count: 13</text>
<text text-anchor="middle" x="944.24" y="-697.72" font-family="Times New Roman,serif" font-size="14.00">Normalized count: 1.86</text>
<text text-anchor="middle" x="944.24" y="-682.72" font-family="Times New Roman,serif" font-size="14.00">Samples weight: 0.03</text>
</g>
<!-- BB0&#45;&gt;BB15 -->
<g id="edge1" class="edge">
<title>BB0&#45;&gt;BB15</title>
<path fill="none" stroke="black" d="M870.16,-796.01C879.64,-784.99 889.91,-773.06 899.68,-761.7"/>
<polygon fill="black" stroke="black" points="902.49,-763.8 906.36,-753.94 897.18,-759.24 902.49,-763.8"/>
</g>
<!-- BB11 -->
<g id="node12" class="node">
<title>BB11</title>
<ellipse fill="none" stroke="black" cx="720.24" cy="-576.75" rx="103.48" ry="48.17"/>
<text text-anchor="middle" x="720.24" y="-595.55" font-family="Times New Roman,serif" font-size="14.00">[3e..42)</text>
<text text-anchor="middle" x="720.24" y="-580.55" font-family="Times New Roman,serif" font-size="14.00">Count: 13</text>
<text text-anchor="middle" x="720.24" y="-565.55" font-family="Times New Roman,serif" font-size="14.00">Normalized count: 1.86</text>
<text text-anchor="middle" x="720.24" y="-550.55" font-family="Times New Roman,serif" font-size="14.00">Samples weight: 0.03</text>
</g>
<!-- BB1&#45;&gt;BB11 -->
<g id="edge3" class="edge">
<title>BB1&#45;&gt;BB11</title>
<path fill="none" stroke="black" d="M720.24,-660.55C720.24,-652.29 720.24,-643.6 720.24,-635.1"/>
<polygon fill="black" stroke="black" points="723.74,-634.86 720.24,-624.86 716.74,-634.86 723.74,-634.86"/>
</g>
<!-- BB2 -->
<g id="node3" class="node">
<title>BB2</title>
<ellipse fill="none" stroke="black" cx="103.24" cy="-180.25" rx="103.48" ry="48.17"/>
<text text-anchor="middle" x="103.24" y="-199.05" font-family="Times New Roman,serif" font-size="14.00">[e..12)</text>
<text text-anchor="middle" x="103.24" y="-184.05" font-family="Times New Roman,serif" font-size="14.00">Count: 44</text>
<text text-anchor="middle" x="103.24" y="-169.05" font-family="Times New Roman,serif" font-size="14.00">Normalized count: 6.29</text>
<text text-anchor="middle" x="103.24" y="-154.05" font-family="Times New Roman,serif" font-size="14.00">Samples weight: 0.09</text>
</g>
<!-- BB3 -->
<g id="node4" class="node">
<title>BB3</title>
<ellipse fill="none" stroke="black" cx="346.24" cy="-444.58" rx="103.48" ry="48.17"/>
<text text-anchor="middle" x="346.24" y="-463.38" font-family="Times New Roman,serif" font-size="14.00">[12..16)</text>
<text text-anchor="middle" x="346.24" y="-448.38" font-family="Times New Roman,serif" font-size="14.00">Count: 13</text>
<text text-anchor="middle" x="346.24" y="-433.38" font-family="Times New Roman,serif" font-size="14.00">Normalized count: 1.86</text>
<text text-anchor="middle" x="346.24" y="-418.38" font-family="Times New Roman,serif" font-size="14.00">Samples weight: 0.03</text>
</g>
<!-- BB2&#45;&gt;BB3 -->
<g id="edge4" class="edge">
<title>BB2&#45;&gt;BB3</title>
<path fill="none" stroke="black" d="M95.53,-228.54C91.85,-267.9 93.34,-323.31 122.24,-360.5 150.04,-396.28 194.9,-416.65 237.2,-428.25"/>
<polygon fill="black" stroke="black" points="236.47,-431.68 247.03,-430.8 238.23,-424.9 236.47,-431.68"/>
</g>
<!-- BB4 -->
<g id="node5" class="node">
<title>BB4</title>
<ellipse fill="none" stroke="black" cx="234.24" cy="-312.42" rx="103.48" ry="48.17"/>
<text text-anchor="middle" x="234.24" y="-331.22" font-family="Times New Roman,serif" font-size="14.00">[16..1c)</text>
<text text-anchor="middle" x="234.24" y="-316.22" font-family="Times New Roman,serif" font-size="14.00">Count: 15</text>
<text text-anchor="middle" x="234.24" y="-301.22" font-family="Times New Roman,serif" font-size="14.00">Normalized count: 2.14</text>
<text text-anchor="middle" x="234.24" y="-286.22" font-family="Times New Roman,serif" font-size="14.00">Samples weight: 0.03</text>
</g>
<!-- BB3&#45;&gt;BB4 -->
<g id="edge6" class="edge">
<title>BB3&#45;&gt;BB4</title>
<path fill="none" stroke="black" d="M308.32,-399.51C298.83,-388.49 288.57,-376.56 278.79,-365.2"/>
<polygon fill="black" stroke="black" points="281.29,-362.74 272.12,-357.44 275.99,-367.3 281.29,-362.74"/>
</g>
<!-- BB7 -->
<g id="node8" class="node">
<title>BB7</title>
<ellipse fill="none" stroke="black" cx="458.24" cy="-312.42" rx="103.48" ry="48.17"/>
<text text-anchor="middle" x="458.24" y="-331.22" font-family="Times New Roman,serif" font-size="14.00">[22..26)</text>
<text text-anchor="middle" x="458.24" y="-316.22" font-family="Times New Roman,serif" font-size="14.00">Count: 56</text>
<text text-anchor="middle" x="458.24" y="-301.22" font-family="Times New Roman,serif" font-size="14.00">Normalized count: 8.00</text>
<text text-anchor="middle" x="458.24" y="-286.22" font-family="Times New Roman,serif" font-size="14.00">Samples weight: 0.11</text>
</g>
<!-- BB3&#45;&gt;BB7 -->
<g id="edge5" class="edge">
<title>BB3&#45;&gt;BB7</title>
<path fill="none" stroke="black" d="M384.16,-399.51C393.64,-388.49 403.91,-376.56 413.68,-365.2"/>
<polygon fill="black" stroke="black" points="416.49,-367.3 420.36,-357.44 411.18,-362.74 416.49,-367.3"/>
</g>
<!-- BB4&#45;&gt;BB2 -->
<g id="edge7" class="edge">
<title>BB4&#45;&gt;BB2</title>
<path fill="none" stroke="black" d="M190.98,-268.43C179.02,-256.55 165.93,-243.55 153.61,-231.3"/>
<polygon fill="black" stroke="black" points="156.01,-228.75 146.45,-224.19 151.08,-233.72 156.01,-228.75"/>
</g>
<!-- BB5 -->
<g id="node6" class="node">
<title>BB5</title>
<ellipse fill="none" stroke="black" cx="327.24" cy="-180.25" rx="103.48" ry="48.17"/>
<text text-anchor="middle" x="327.24" y="-199.05" font-family="Times New Roman,serif" font-size="14.00">[1c..1e)</text>
<text text-anchor="middle" x="327.24" y="-184.05" font-family="Times New Roman,serif" font-size="14.00">Count: 55</text>
<text text-anchor="middle" x="327.24" y="-169.05" font-family="Times New Roman,serif" font-size="14.00">Normalized count: 7.86</text>
<text text-anchor="middle" x="327.24" y="-154.05" font-family="Times New Roman,serif" font-size="14.00">Samples weight: 0.11</text>
</g>
<!-- BB4&#45;&gt;BB5 -->
<g id="edge8" class="edge">
<title>BB4&#45;&gt;BB5</title>
<path fill="none" stroke="black" d="M266.24,-266.62C273.62,-256.29 281.54,-245.21 289.15,-234.55"/>
<polygon fill="black" stroke="black" points="292.21,-236.3 295.17,-226.13 286.51,-232.23 292.21,-236.3"/>
</g>
<!-- BB5&#45;&gt;BB7 -->
<g id="edge9" class="edge">
<title>BB5&#45;&gt;BB7</title>
<path fill="none" stroke="black" d="M370.45,-224.19C382.41,-236.07 395.49,-249.07 407.82,-261.32"/>
<polygon fill="black" stroke="black" points="405.42,-263.87 414.98,-268.43 410.35,-258.9 405.42,-263.87"/>
</g>
<!-- BB6 -->
<g id="node7" class="node">
<title>BB6</title>
<ellipse fill="none" stroke="black" cx="556.24" cy="-48.08" rx="103.48" ry="48.17"/>
<text text-anchor="middle" x="556.24" y="-66.88" font-family="Times New Roman,serif" font-size="14.00">[1e..22)</text>
<text text-anchor="middle" x="556.24" y="-51.88" font-family="Times New Roman,serif" font-size="14.00">Count: 62</text>
<text text-anchor="middle" x="556.24" y="-36.88" font-family="Times New Roman,serif" font-size="14.00">Normalized count: 8.86</text>
<text text-anchor="middle" x="556.24" y="-21.88" font-family="Times New Roman,serif" font-size="14.00">Samples weight: 0.13</text>
</g>
<!-- BB6&#45;&gt;BB7 -->
<g id="edge10" class="edge">
<title>BB6&#45;&gt;BB7</title>
<path fill="none" stroke="black" d="M506.67,-90.65C495.17,-102.83 484.25,-116.99 477.24,-132.17 459.67,-170.17 455.28,-217.41 455.09,-253.85"/>
<polygon fill="black" stroke="black" points="451.59,-254.33 455.14,-264.31 458.59,-254.29 451.59,-254.33"/>
</g>
<!-- BB8 -->
<g id="node9" class="node">
<title>BB8</title>
<ellipse fill="none" stroke="black" cx="589.24" cy="-180.25" rx="103.48" ry="48.17"/>
<text text-anchor="middle" x="589.24" y="-199.05" font-family="Times New Roman,serif" font-size="14.00">[26..2c)</text>
<text text-anchor="middle" x="589.24" y="-184.05" font-family="Times New Roman,serif" font-size="14.00">Count: 66</text>
<text text-anchor="middle" x="589.24" y="-169.05" font-family="Times New Roman,serif" font-size="14.00">Normalized count: 9.43</text>
<text text-anchor="middle" x="589.24" y="-154.05" font-family="Times New Roman,serif" font-size="14.00">Samples weight: 0.13</text>
</g>
<!-- BB7&#45;&gt;BB8 -->
<g id="edge12" class="edge">
<title>BB7&#45;&gt;BB8</title>
<path fill="none" stroke="black" d="M501.49,-268.43C513.46,-256.55 526.54,-243.55 538.87,-231.3"/>
<polygon fill="black" stroke="black" points="541.4,-233.72 546.03,-224.19 536.47,-228.75 541.4,-233.72"/>
</g>
<!-- BB9 -->
<g id="node10" class="node">
<title>BB9</title>
<ellipse fill="none" stroke="black" cx="813.24" cy="-180.25" rx="103.48" ry="48.17"/>
<text text-anchor="middle" x="813.24" y="-199.05" font-family="Times New Roman,serif" font-size="14.00">[2c..30)</text>
<text text-anchor="middle" x="813.24" y="-184.05" font-family="Times New Roman,serif" font-size="14.00">Count: 55</text>
<text text-anchor="middle" x="813.24" y="-169.05" font-family="Times New Roman,serif" font-size="14.00">Normalized count: 7.86</text>
<text text-anchor="middle" x="813.24" y="-154.05" font-family="Times New Roman,serif" font-size="14.00">Samples weight: 0.11</text>
</g>
<!-- BB7&#45;&gt;BB9 -->
<g id="edge11" class="edge">
<title>BB7&#45;&gt;BB9</title>
<path fill="none" stroke="black" d="M533.96,-279.61C547.61,-274.26 561.78,-268.95 575.24,-264.33 630.33,-245.44 646.29,-247.65 701.24,-228.33 710.49,-225.08 720.08,-221.45 729.57,-217.7"/>
<polygon fill="black" stroke="black" points="731.04,-220.88 739.02,-213.91 728.43,-214.39 731.04,-220.88"/>
</g>
<!-- BB8&#45;&gt;BB6 -->
<g id="edge13" class="edge">
<title>BB8&#45;&gt;BB6</title>
<path fill="none" stroke="black" d="M577.32,-132.26C575.15,-123.69 572.86,-114.66 570.63,-105.84"/>
<polygon fill="black" stroke="black" points="573.98,-104.84 568.13,-96.01 567.2,-106.56 573.98,-104.84"/>
</g>
<!-- BB8&#45;&gt;BB9 -->
<g id="edge14" class="edge">
<title>BB8&#45;&gt;BB9</title>
<path fill="none" stroke="black" d="M692.49,-180.25C694.94,-180.25 697.4,-180.25 699.85,-180.25"/>
<polygon fill="black" stroke="black" points="699.94,-183.75 709.94,-180.25 699.94,-176.75 699.94,-183.75"/>
</g>
<!-- BB10 -->
<g id="node11" class="node">
<title>BB10</title>
<ellipse fill="none" stroke="black" cx="845.24" cy="-48.08" rx="103.48" ry="48.17"/>
<text text-anchor="middle" x="845.24" y="-66.88" font-family="Times New Roman,serif" font-size="14.00">[30..3e)</text>
<text text-anchor="middle" x="845.24" y="-51.88" font-family="Times New Roman,serif" font-size="14.00">Count: 38</text>
<text text-anchor="middle" x="845.24" y="-36.88" font-family="Times New Roman,serif" font-size="14.00">Normalized count: 5.43</text>
<text text-anchor="middle" x="845.24" y="-21.88" font-family="Times New Roman,serif" font-size="14.00">Samples weight: 0.08</text>
</g>
<!-- BB9&#45;&gt;BB10 -->
<g id="edge16" class="edge">
<title>BB9&#45;&gt;BB10</title>
<path fill="none" stroke="black" d="M824.79,-132.26C826.9,-123.69 829.12,-114.66 831.28,-105.84"/>
<polygon fill="black" stroke="black" points="834.71,-106.55 833.7,-96.01 827.92,-104.88 834.71,-106.55"/>
</g>
<!-- BB9&#45;&gt;BB11 -->
<g id="edge15" class="edge">
<title>BB9&#45;&gt;BB11</title>
<path fill="none" stroke="black" d="M738.05,-213.2C725.77,-218.32 713.17,-223.52 701.24,-228.33 660.14,-244.92 633.29,-227.77 608.24,-264.33 579.56,-306.19 585.43,-447.34 608.24,-492.67 616.46,-509 629.57,-522.92 643.98,-534.44"/>
<polygon fill="black" stroke="black" points="642.01,-537.34 652.1,-540.59 646.24,-531.76 642.01,-537.34"/>
</g>
<!-- BB10&#45;&gt;BB11 -->
<g id="edge17" class="edge">
<title>BB10&#45;&gt;BB11</title>
<path fill="none" stroke="black" d="M904.57,-87.62C985.06,-144.99 1112.73,-257.22 1056.24,-360.5 1005.12,-453.95 894.21,-512.79 813.76,-544.89"/>
<polygon fill="black" stroke="black" points="812.14,-541.76 804.11,-548.67 814.7,-548.28 812.14,-541.76"/>
</g>
<!-- BB11&#45;&gt;BB3 -->
<g id="edge18" class="edge">
<title>BB11&#45;&gt;BB3</title>
<path fill="none" stroke="black" d="M638.16,-547.18C578.97,-526.58 499.04,-498.77 437.79,-477.45"/>
<polygon fill="black" stroke="black" points="438.72,-474.06 428.12,-474.08 436.42,-480.67 438.72,-474.06"/>
</g>
<!-- BB12 -->
<g id="node13" class="node">
<title>BB12</title>
<ellipse fill="none" stroke="black" cx="720.24" cy="-444.58" rx="103.48" ry="48.17"/>
<text text-anchor="middle" x="720.24" y="-463.38" font-family="Times New Roman,serif" font-size="14.00">[42..46)</text>
<text text-anchor="middle" x="720.24" y="-448.38" font-family="Times New Roman,serif" font-size="14.00">Count: 5</text>
<text text-anchor="middle" x="720.24" y="-433.38" font-family="Times New Roman,serif" font-size="14.00">Normalized count: 0.71</text>
<text text-anchor="middle" x="720.24" y="-418.38" font-family="Times New Roman,serif" font-size="14.00">Samples weight: 0.01</text>
</g>
<!-- BB11&#45;&gt;BB12 -->
<g id="edge19" class="edge">
<title>BB11&#45;&gt;BB12</title>
<path fill="none" stroke="black" d="M720.24,-528.39C720.24,-520.12 720.24,-511.44 720.24,-502.93"/>
<polygon fill="black" stroke="black" points="723.74,-502.69 720.24,-492.69 716.74,-502.69 723.74,-502.69"/>
</g>
<!-- BB13 -->
<g id="node14" class="node">
<title>BB13</title>
<ellipse fill="none" stroke="black" cx="720.24" cy="-312.42" rx="103.48" ry="48.17"/>
<text text-anchor="middle" x="720.24" y="-331.22" font-family="Times New Roman,serif" font-size="14.00">[46..52)</text>
<text text-anchor="middle" x="720.24" y="-316.22" font-family="Times New Roman,serif" font-size="14.00">Count: 15</text>
<text text-anchor="middle" x="720.24" y="-301.22" font-family="Times New Roman,serif" font-size="14.00">Normalized count: 2.14</text>
<text text-anchor="middle" x="720.24" y="-286.22" font-family="Times New Roman,serif" font-size="14.00">Samples weight: 0.03</text>
</g>
<!-- BB12&#45;&gt;BB13 -->
<g id="edge21" class="edge">
<title>BB12&#45;&gt;BB13</title>
<path fill="none" stroke="black" d="M720.24,-396.22C720.24,-387.95 720.24,-379.27 720.24,-370.77"/>
<polygon fill="black" stroke="black" points="723.74,-370.52 720.24,-360.52 716.74,-370.52 723.74,-370.52"/>
</g>
<!-- BB14 -->
<g id="node15" class="node">
<title>BB14</title>
<ellipse fill="none" stroke="black" cx="944.24" cy="-312.42" rx="103.48" ry="48.17"/>
<text text-anchor="middle" x="944.24" y="-331.22" font-family="Times New Roman,serif" font-size="14.00">[52..66)</text>
<text text-anchor="middle" x="944.24" y="-316.22" font-family="Times New Roman,serif" font-size="14.00">Count: 11</text>
<text text-anchor="middle" x="944.24" y="-301.22" font-family="Times New Roman,serif" font-size="14.00">Normalized count: 1.57</text>
<text text-anchor="middle" x="944.24" y="-286.22" font-family="Times New Roman,serif" font-size="14.00">Samples weight: 0.02</text>
</g>
<!-- BB12&#45;&gt;BB14 -->
<g id="edge20" class="edge">
<title>BB12&#45;&gt;BB14</title>
<path fill="none" stroke="black" d="M783.83,-406.63C811.26,-390.69 843.48,-371.97 871.83,-355.49"/>
<polygon fill="black" stroke="black" points="873.6,-358.51 880.49,-350.46 870.08,-352.46 873.6,-358.51"/>
</g>
<!-- BB13&#45;&gt;BB14 -->
<g id="edge22" class="edge">
<title>BB13&#45;&gt;BB14</title>
<path fill="none" stroke="black" d="M823.49,-312.42C825.94,-312.42 828.4,-312.42 830.85,-312.42"/>
<polygon fill="black" stroke="black" points="830.94,-315.92 840.94,-312.42 830.94,-308.92 830.94,-315.92"/>
</g>
<!-- BB14&#45;&gt;BB15 -->
<g id="edge23" class="edge">
<title>BB14&#45;&gt;BB15</title>
<path fill="none" stroke="black" d="M944.24,-360.66C944.24,-433.31 944.24,-572.24 944.24,-650.55"/>
<polygon fill="black" stroke="black" points="940.74,-650.72 944.24,-660.72 947.74,-650.72 940.74,-650.72"/>
</g>
</g>
</svg>
