<?xml version="1.0" encoding="UTF-8" standalone="no"?>
<!DOCTYPE svg PUBLIC "-//W3C//DTD SVG 1.1//EN"
 "http://www.w3.org/Graphics/SVG/1.1/DTD/svg11.dtd">
<!-- Generated by graphviz version 2.47.0 (20210316.0004)
 -->
<!-- Title: G Pages: 1 -->
<svg width="886pt" height="633pt"
 viewBox="0.00 0.00 886.48 632.83" xmlns="http://www.w3.org/2000/svg" xmlns:xlink="http://www.w3.org/1999/xlink">
<g id="graph0" class="graph" transform="scale(1 1) rotate(0) translate(4 628.83)">
<title>G</title>
<polygon fill="white" stroke="transparent" points="-4,4 -4,-628.83 882.48,-628.83 882.48,4 -4,4"/>
<!-- BB0 -->
<g id="node1" class="node">
<title>BB0</title>
<ellipse fill="none" stroke="black" cx="439.24" cy="-576.75" rx="103.48" ry="48.17"/>
<text text-anchor="middle" x="439.24" y="-595.55" font-family="Times New Roman,serif" font-size="14.00">[0..18)</text>
<text text-anchor="middle" x="439.24" y="-580.55" font-family="Times New Roman,serif" font-size="14.00">Count: 39</text>
<text text-anchor="middle" x="439.24" y="-565.55" font-family="Times New Roman,serif" font-size="14.00">Normalized count: 1.00</text>
<text text-anchor="middle" x="439.24" y="-550.55" font-family="Times New Roman,serif" font-size="14.00">Samples weight: 0.03</text>
</g>
<!-- BB1 -->
<g id="node2" class="node">
<title>BB1</title>
<ellipse fill="none" stroke="black" cx="439.24" cy="-444.58" rx="108.38" ry="48.17"/>
<text text-anchor="middle" x="439.24" y="-463.38" font-family="Times New Roman,serif" font-size="14.00">[18..31)</text>
<text text-anchor="middle" x="439.24" y="-448.38" font-family="Times New Roman,serif" font-size="14.00">Count: 435</text>
<text text-anchor="middle" x="439.24" y="-433.38" font-family="Times New Roman,serif" font-size="14.00">Normalized count: 11.15</text>
<text text-anchor="middle" x="439.24" y="-418.38" font-family="Times New Roman,serif" font-size="14.00">Samples weight: 0.31</text>
</g>
<!-- BB0&#45;&gt;BB1 -->
<g id="edge1" class="edge">
<title>BB0&#45;&gt;BB1</title>
<path fill="none" stroke="black" d="M439.24,-528.39C439.24,-520.12 439.24,-511.44 439.24,-502.93"/>
<polygon fill="black" stroke="black" points="442.74,-502.69 439.24,-492.69 435.74,-502.69 442.74,-502.69"/>
</g>
<!-- BB2 -->
<g id="node3" class="node">
<title>BB2</title>
<ellipse fill="none" stroke="black" cx="289.24" cy="-312.42" rx="103.48" ry="48.17"/>
<text text-anchor="middle" x="289.24" y="-331.22" font-family="Times New Roman,serif" font-size="14.00">[31..49)</text>
<text text-anchor="middle" x="289.24" y="-316.22" font-family="Times New Roman,serif" font-size="14.00">Count: 353</text>
<text text-anchor="middle" x="289.24" y="-301.22" font-family="Times New Roman,serif" font-size="14.00">Normalized count: 9.05</text>
<text text-anchor="middle" x="289.24" y="-286.22" font-family="Times New Roman,serif" font-size="14.00">Samples weight: 0.26</text>
</g>
<!-- BB1&#45;&gt;BB2 -->
<g id="edge3" class="edge">
<title>BB1&#45;&gt;BB2</title>
<path fill="none" stroke="black" d="M390.54,-401.32C375.97,-388.68 359.88,-374.72 344.9,-361.72"/>
<polygon fill="black" stroke="black" points="347.03,-358.93 337.18,-355.02 342.44,-364.22 347.03,-358.93"/>
</g>
<!-- BB5 -->
<g id="node6" class="node">
<title>BB5</title>
<ellipse fill="none" stroke="black" cx="589.24" cy="-312.42" rx="103.48" ry="48.17"/>
<text text-anchor="middle" x="589.24" y="-331.22" font-family="Times New Roman,serif" font-size="14.00">[7b..93)</text>
<text text-anchor="middle" x="589.24" y="-316.22" font-family="Times New Roman,serif" font-size="14.00">Count: 82</text>
<text text-anchor="middle" x="589.24" y="-301.22" font-family="Times New Roman,serif" font-size="14.00">Normalized count: 2.10</text>
<text text-anchor="middle" x="589.24" y="-286.22" font-family="Times New Roman,serif" font-size="14.00">Samples weight: 0.06</text>
</g>
<!-- BB1&#45;&gt;BB5 -->
<g id="edge2" class="edge">
<title>BB1&#45;&gt;BB5</title>
<path fill="none" stroke="black" d="M487.94,-401.32C502.51,-388.68 518.59,-374.72 533.57,-361.72"/>
<polygon fill="black" stroke="black" points="536.03,-364.22 541.29,-355.02 531.45,-358.93 536.03,-364.22"/>
</g>
<!-- BB3 -->
<g id="node4" class="node">
<title>BB3</title>
<ellipse fill="none" stroke="black" cx="327.24" cy="-180.25" rx="103.48" ry="48.17"/>
<text text-anchor="middle" x="327.24" y="-199.05" font-family="Times New Roman,serif" font-size="14.00">[49..62)</text>
<text text-anchor="middle" x="327.24" y="-184.05" font-family="Times New Roman,serif" font-size="14.00">Count: 315</text>
<text text-anchor="middle" x="327.24" y="-169.05" font-family="Times New Roman,serif" font-size="14.00">Normalized count: 8.08</text>
<text text-anchor="middle" x="327.24" y="-154.05" font-family="Times New Roman,serif" font-size="14.00">Samples weight: 0.23</text>
</g>
<!-- BB2&#45;&gt;BB3 -->
<g id="edge5" class="edge">
<title>BB2&#45;&gt;BB3</title>
<path fill="none" stroke="black" d="M302.96,-264.42C305.46,-255.85 308.09,-246.83 310.67,-238.01"/>
<polygon fill="black" stroke="black" points="314.1,-238.75 313.54,-228.17 307.38,-236.79 314.1,-238.75"/>
</g>
<!-- BB4 -->
<g id="node5" class="node">
<title>BB4</title>
<ellipse fill="none" stroke="black" cx="103.24" cy="-180.25" rx="103.48" ry="48.17"/>
<text text-anchor="middle" x="103.24" y="-199.05" font-family="Times New Roman,serif" font-size="14.00">[62..7b)</text>
<text text-anchor="middle" x="103.24" y="-184.05" font-family="Times New Roman,serif" font-size="14.00">Count: 38</text>
<text text-anchor="middle" x="103.24" y="-169.05" font-family="Times New Roman,serif" font-size="14.00">Normalized count: 0.97</text>
<text text-anchor="middle" x="103.24" y="-154.05" font-family="Times New Roman,serif" font-size="14.00">Samples weight: 0.03</text>
</g>
<!-- BB2&#45;&gt;BB4 -->
<g id="edge4" class="edge">
<title>BB2&#45;&gt;BB4</title>
<path fill="none" stroke="black" d="M232.93,-272.01C212.44,-257.67 189.13,-241.36 167.98,-226.56"/>
<polygon fill="black" stroke="black" points="169.88,-223.61 159.68,-220.75 165.86,-229.35 169.88,-223.61"/>
</g>
<!-- BB3&#45;&gt;BB1 -->
<g id="edge6" class="edge">
<title>BB3&#45;&gt;BB1</title>
<path fill="none" stroke="black" d="M372.65,-223.76C383.43,-235.93 393.91,-249.85 401.24,-264.33 420.53,-302.48 430.04,-349.96 434.72,-386.47"/>
<polygon fill="black" stroke="black" points="431.25,-386.95 435.92,-396.46 438.2,-386.12 431.25,-386.95"/>
</g>
<!-- BB8 -->
<g id="node9" class="node">
<title>BB8</title>
<ellipse fill="none" stroke="black" cx="439.24" cy="-48.08" rx="103.48" ry="48.17"/>
<text text-anchor="middle" x="439.24" y="-66.88" font-family="Times New Roman,serif" font-size="14.00">[c6..11a)</text>
<text text-anchor="middle" x="439.24" y="-51.88" font-family="Times New Roman,serif" font-size="14.00">Count: 39</text>
<text text-anchor="middle" x="439.24" y="-36.88" font-family="Times New Roman,serif" font-size="14.00">Normalized count: 1.00</text>
<text text-anchor="middle" x="439.24" y="-21.88" font-family="Times New Roman,serif" font-size="14.00">Samples weight: 0.03</text>
</g>
<!-- BB4&#45;&gt;BB8 -->
<g id="edge7" class="edge">
<title>BB4&#45;&gt;BB8</title>
<path fill="none" stroke="black" d="M178.36,-147.15C190.65,-142.05 203.27,-136.9 215.24,-132.17 258.98,-114.87 307.93,-96.59 348.89,-81.59"/>
<polygon fill="black" stroke="black" points="350.12,-84.87 358.31,-78.15 347.72,-78.3 350.12,-84.87"/>
</g>
<!-- BB6 -->
<g id="node7" class="node">
<title>BB6</title>
<ellipse fill="none" stroke="black" cx="551.24" cy="-180.25" rx="103.48" ry="48.17"/>
<text text-anchor="middle" x="551.24" y="-199.05" font-family="Times New Roman,serif" font-size="14.00">[93..af)</text>
<text text-anchor="middle" x="551.24" y="-184.05" font-family="Times New Roman,serif" font-size="14.00">Count: 81</text>
<text text-anchor="middle" x="551.24" y="-169.05" font-family="Times New Roman,serif" font-size="14.00">Normalized count: 2.08</text>
<text text-anchor="middle" x="551.24" y="-154.05" font-family="Times New Roman,serif" font-size="14.00">Samples weight: 0.06</text>
</g>
<!-- BB5&#45;&gt;BB6 -->
<g id="edge9" class="edge">
<title>BB5&#45;&gt;BB6</title>
<path fill="none" stroke="black" d="M575.52,-264.42C573.02,-255.85 570.38,-246.83 567.81,-238.01"/>
<polygon fill="black" stroke="black" points="571.1,-236.79 564.94,-228.17 564.38,-238.75 571.1,-236.79"/>
</g>
<!-- BB7 -->
<g id="node8" class="node">
<title>BB7</title>
<ellipse fill="none" stroke="black" cx="775.24" cy="-180.25" rx="103.48" ry="48.17"/>
<text text-anchor="middle" x="775.24" y="-199.05" font-family="Times New Roman,serif" font-size="14.00">[af..c6)</text>
<text text-anchor="middle" x="775.24" y="-184.05" font-family="Times New Roman,serif" font-size="14.00">Count: 1</text>
<text text-anchor="middle" x="775.24" y="-169.05" font-family="Times New Roman,serif" font-size="14.00">Normalized count: 0.03</text>
<text text-anchor="middle" x="775.24" y="-154.05" font-family="Times New Roman,serif" font-size="14.00">Samples weight: 0.00</text>
</g>
<!-- BB5&#45;&gt;BB7 -->
<g id="edge8" class="edge">
<title>BB5&#45;&gt;BB7</title>
<path fill="none" stroke="black" d="M645.55,-272.01C666.03,-257.67 689.34,-241.36 710.5,-226.56"/>
<polygon fill="black" stroke="black" points="712.61,-229.35 718.8,-220.75 708.6,-223.61 712.61,-229.35"/>
</g>
<!-- BB6&#45;&gt;BB1 -->
<g id="edge10" class="edge">
<title>BB6&#45;&gt;BB1</title>
<path fill="none" stroke="black" d="M505.83,-223.76C495.05,-235.93 484.56,-249.85 477.24,-264.33 457.95,-302.48 448.44,-349.96 443.76,-386.47"/>
<polygon fill="black" stroke="black" points="440.27,-386.12 442.56,-396.46 447.22,-386.95 440.27,-386.12"/>
</g>
<!-- BB7&#45;&gt;BB8 -->
<g id="edge11" class="edge">
<title>BB7&#45;&gt;BB8</title>
<path fill="none" stroke="black" d="M700.11,-147.15C687.82,-142.05 675.2,-136.9 663.24,-132.17 619.49,-114.87 570.54,-96.59 529.58,-81.59"/>
<polygon fill="black" stroke="black" points="530.76,-78.3 520.17,-78.15 528.36,-84.87 530.76,-78.3"/>
</g>
</g>
</svg>
