<?xml version="1.0" encoding="UTF-8" standalone="no"?>
<!DOCTYPE svg PUBLIC "-//W3C//DTD SVG 1.1//EN"
 "http://www.w3.org/Graphics/SVG/1.1/DTD/svg11.dtd">
<!-- Generated by graphviz version 2.47.0 (20210316.0004)
 -->
<!-- Title: G Pages: 1 -->
<svg width="486pt" height="501pt"
 viewBox="0.00 0.00 486.42 500.67" xmlns="http://www.w3.org/2000/svg" xmlns:xlink="http://www.w3.org/1999/xlink">
<g id="graph0" class="graph" transform="scale(1 1) rotate(0) translate(4 496.67)">
<title>G</title>
<polygon fill="white" stroke="transparent" points="-4,4 -4,-496.67 482.42,-496.67 482.42,4 -4,4"/>
<!-- BB0 -->
<g id="node1" class="node">
<title>BB0</title>
<ellipse fill="none" stroke="black" cx="176.19" cy="-444.58" rx="103.48" ry="48.17"/>
<text text-anchor="middle" x="176.19" y="-463.38" font-family="Times New Roman,serif" font-size="14.00">[0..30)</text>
<text text-anchor="middle" x="176.19" y="-448.38" font-family="Times New Roman,serif" font-size="14.00">Count: 4</text>
<text text-anchor="middle" x="176.19" y="-433.38" font-family="Times New Roman,serif" font-size="14.00">Normalized count: 1.00</text>
<text text-anchor="middle" x="176.19" y="-418.38" font-family="Times New Roman,serif" font-size="14.00">Samples weight: 0.02</text>
</g>
<!-- BB3 -->
<g id="node4" class="node">
<title>BB3</title>
<ellipse fill="none" stroke="black" cx="176.19" cy="-312.42" rx="108.38" ry="48.17"/>
<text text-anchor="middle" x="176.19" y="-331.22" font-family="Times New Roman,serif" font-size="14.00">[57..60)</text>
<text text-anchor="middle" x="176.19" y="-316.22" font-family="Times New Roman,serif" font-size="14.00">Count: 118</text>
<text text-anchor="middle" x="176.19" y="-301.22" font-family="Times New Roman,serif" font-size="14.00">Normalized count: 29.50</text>
<text text-anchor="middle" x="176.19" y="-286.22" font-family="Times New Roman,serif" font-size="14.00">Samples weight: 0.49</text>
</g>
<!-- BB0&#45;&gt;BB3 -->
<g id="edge1" class="edge">
<title>BB0&#45;&gt;BB3</title>
<path fill="none" stroke="black" d="M176.19,-396.22C176.19,-387.95 176.19,-379.27 176.19,-370.77"/>
<polygon fill="black" stroke="black" points="179.69,-370.52 176.19,-360.52 172.69,-370.52 179.69,-370.52"/>
</g>
<!-- BB1 -->
<g id="node2" class="node">
<title>BB1</title>
<ellipse fill="none" stroke="black" cx="108.19" cy="-180.25" rx="108.38" ry="48.17"/>
<text text-anchor="middle" x="108.19" y="-199.05" font-family="Times New Roman,serif" font-size="14.00">[30..53)</text>
<text text-anchor="middle" x="108.19" y="-184.05" font-family="Times New Roman,serif" font-size="14.00">Count: 114</text>
<text text-anchor="middle" x="108.19" y="-169.05" font-family="Times New Roman,serif" font-size="14.00">Normalized count: 28.50</text>
<text text-anchor="middle" x="108.19" y="-154.05" font-family="Times New Roman,serif" font-size="14.00">Samples weight: 0.47</text>
</g>
<!-- BB2 -->
<g id="node3" class="node">
<title>BB2</title>
<ellipse fill="none" stroke="black" cx="176.19" cy="-48.08" rx="103.48" ry="48.17"/>
<text text-anchor="middle" x="176.19" y="-66.88" font-family="Times New Roman,serif" font-size="14.00">[53..57)</text>
<text text-anchor="middle" x="176.19" y="-51.88" font-family="Times New Roman,serif" font-size="14.00">Count: 2</text>
<text text-anchor="middle" x="176.19" y="-36.88" font-family="Times New Roman,serif" font-size="14.00">Normalized count: 0.50</text>
<text text-anchor="middle" x="176.19" y="-21.88" font-family="Times New Roman,serif" font-size="14.00">Samples weight: 0.01</text>
</g>
<!-- BB1&#45;&gt;BB2 -->
<g id="edge3" class="edge">
<title>BB1&#45;&gt;BB2</title>
<path fill="none" stroke="black" d="M132.16,-133.36C137.14,-123.83 142.43,-113.7 147.55,-103.89"/>
<polygon fill="black" stroke="black" points="150.67,-105.48 152.2,-95 144.47,-102.24 150.67,-105.48"/>
</g>
<!-- BB1&#45;&gt;BB3 -->
<g id="edge2" class="edge">
<title>BB1&#45;&gt;BB3</title>
<path fill="none" stroke="black" d="M138.39,-226.68C143.55,-236.03 148.82,-245.97 153.74,-255.64"/>
<polygon fill="black" stroke="black" points="150.72,-257.42 158.33,-264.79 156.97,-254.28 150.72,-257.42"/>
</g>
<!-- BB2&#45;&gt;BB3 -->
<g id="edge4" class="edge">
<title>BB2&#45;&gt;BB3</title>
<path fill="none" stroke="black" d="M208.57,-94.13C215.4,-105.96 221.62,-119.08 225.19,-132.17 236.44,-173.4 236.44,-187.1 225.19,-228.33 222.48,-238.25 218.26,-248.19 213.39,-257.57"/>
<polygon fill="black" stroke="black" points="210.31,-255.92 208.57,-266.37 216.45,-259.28 210.31,-255.92"/>
</g>
<!-- BB3&#45;&gt;BB1 -->
<g id="edge5" class="edge">
<title>BB3&#45;&gt;BB1</title>
<path fill="none" stroke="black" d="M145.93,-265.89C140.78,-256.56 135.53,-246.63 130.62,-236.99"/>
<polygon fill="black" stroke="black" points="133.65,-235.22 126.03,-227.85 127.39,-238.36 133.65,-235.22"/>
</g>
<!-- BB4 -->
<g id="node5" class="node">
<title>BB4</title>
<ellipse fill="none" stroke="black" cx="375.19" cy="-180.25" rx="103.48" ry="48.17"/>
<text text-anchor="middle" x="375.19" y="-199.05" font-family="Times New Roman,serif" font-size="14.00">[60..72)</text>
<text text-anchor="middle" x="375.19" y="-184.05" font-family="Times New Roman,serif" font-size="14.00">Count: 4</text>
<text text-anchor="middle" x="375.19" y="-169.05" font-family="Times New Roman,serif" font-size="14.00">Normalized count: 1.00</text>
<text text-anchor="middle" x="375.19" y="-154.05" font-family="Times New Roman,serif" font-size="14.00">Samples weight: 0.02</text>
</g>
<!-- BB3&#45;&gt;BB4 -->
<g id="edge6" class="edge">
<title>BB3&#45;&gt;BB4</title>
<path fill="none" stroke="black" d="M236.16,-272.19C258.69,-257.45 284.44,-240.61 307.61,-225.45"/>
<polygon fill="black" stroke="black" points="309.57,-228.36 316.02,-219.95 305.73,-222.5 309.57,-228.36"/>
</g>
</g>
</svg>
