<?xml version="1.0" encoding="UTF-8" standalone="no"?>
<!DOCTYPE svg PUBLIC "-//W3C//DTD SVG 1.1//EN"
 "http://www.w3.org/Graphics/SVG/1.1/DTD/svg11.dtd">
<!-- Generated by graphviz version 2.47.0 (20210316.0004)
 -->
<!-- Title: G Pages: 1 -->
<svg width="533pt" height="416pt"
 viewBox="0.00 0.00 532.76 415.81" xmlns="http://www.w3.org/2000/svg" xmlns:xlink="http://www.w3.org/1999/xlink">
<g id="graph0" class="graph" transform="scale(1 1) rotate(0) translate(4 411.81)">
<title>G</title>
<polygon fill="white" stroke="transparent" points="-4,4 -4,-411.81 528.76,-411.81 528.76,4 -4,4"/>
<!-- BB0 -->
<g id="node1" class="node">
<title>BB0</title>
<ellipse fill="none" stroke="black" cx="207.4" cy="-370.34" rx="105.22" ry="37.45"/>
<text text-anchor="middle" x="207.4" y="-381.64" font-family="Times New Roman,serif" font-size="14.00">[0..30)</text>
<text text-anchor="middle" x="207.4" y="-366.64" font-family="Times New Roman,serif" font-size="14.00">Normalized Count: 1.00</text>
<text text-anchor="middle" x="207.4" y="-351.64" font-family="Times New Roman,serif" font-size="14.00">Samples weight: 0.00</text>
</g>
<!-- BB3 -->
<g id="node4" class="node">
<title>BB3</title>
<ellipse fill="none" stroke="black" cx="207.4" cy="-259.38" rx="129.3" ry="37.45"/>
<text text-anchor="middle" x="207.4" y="-270.68" font-family="Times New Roman,serif" font-size="14.00">[57..60)</text>
<text text-anchor="middle" x="207.4" y="-255.68" font-family="Times New Roman,serif" font-size="14.00">Normalized Count: 211144.62</text>
<text text-anchor="middle" x="207.4" y="-240.68" font-family="Times New Roman,serif" font-size="14.00">Samples weight: 0.50</text>
</g>
<!-- BB0&#45;&gt;BB3 -->
<g id="edge1" class="edge">
<title>BB0&#45;&gt;BB3</title>
<path fill="none" stroke="black" d="M207.4,-332.75C207.4,-324.58 207.4,-315.8 207.4,-307.27"/>
<polygon fill="black" stroke="black" points="210.9,-307.06 207.4,-297.06 203.9,-307.06 210.9,-307.06"/>
</g>
<!-- BB1 -->
<g id="node2" class="node">
<title>BB1</title>
<ellipse fill="none" stroke="black" cx="129.4" cy="-148.43" rx="129.3" ry="37.45"/>
<text text-anchor="middle" x="129.4" y="-159.73" font-family="Times New Roman,serif" font-size="14.00">[30..53)</text>
<text text-anchor="middle" x="129.4" y="-144.73" font-family="Times New Roman,serif" font-size="14.00">Normalized Count: 210245.00</text>
<text text-anchor="middle" x="129.4" y="-129.73" font-family="Times New Roman,serif" font-size="14.00">Samples weight: 0.50</text>
</g>
<!-- BB2 -->
<g id="node3" class="node">
<title>BB2</title>
<ellipse fill="none" stroke="black" cx="207.4" cy="-37.48" rx="110.12" ry="37.45"/>
<text text-anchor="middle" x="207.4" y="-48.78" font-family="Times New Roman,serif" font-size="14.00">[53..57)</text>
<text text-anchor="middle" x="207.4" y="-33.78" font-family="Times New Roman,serif" font-size="14.00">Normalized Count: 13.75</text>
<text text-anchor="middle" x="207.4" y="-18.78" font-family="Times New Roman,serif" font-size="14.00">Samples weight: 0.00</text>
</g>
<!-- BB1&#45;&gt;BB2 -->
<g id="edge3" class="edge">
<title>BB1&#45;&gt;BB2</title>
<path fill="none" stroke="black" d="M155.16,-111.45C161.82,-102.15 169.06,-92.04 175.97,-82.38"/>
<polygon fill="black" stroke="black" points="178.96,-84.21 181.94,-74.04 173.27,-80.14 178.96,-84.21"/>
</g>
<!-- BB1&#45;&gt;BB3 -->
<g id="edge2" class="edge">
<title>BB1&#45;&gt;BB3</title>
<path fill="none" stroke="black" d="M161.1,-184.81C168.09,-194.05 175.4,-204.12 182.11,-213.77"/>
<polygon fill="black" stroke="black" points="179.29,-215.84 187.83,-222.1 185.06,-211.88 179.29,-215.84"/>
</g>
<!-- BB2&#45;&gt;BB3 -->
<g id="edge4" class="edge">
<title>BB2&#45;&gt;BB3</title>
<path fill="none" stroke="black" d="M244.08,-72.93C253.52,-84.06 262.42,-97.12 267.4,-110.95 278.69,-142.29 278.69,-154.57 267.4,-185.91 263.67,-196.26 257.75,-206.19 251.05,-215.19"/>
<polygon fill="black" stroke="black" points="248.18,-213.17 244.71,-223.18 253.66,-217.52 248.18,-213.17"/>
</g>
<!-- BB3&#45;&gt;BB1 -->
<g id="edge5" class="edge">
<title>BB3&#45;&gt;BB1</title>
<path fill="none" stroke="black" d="M175.71,-223.01C168.72,-213.78 161.42,-203.72 154.71,-194.08"/>
<polygon fill="black" stroke="black" points="157.54,-192.01 149,-185.75 151.77,-195.97 157.54,-192.01"/>
</g>
<!-- BB4 -->
<g id="node5" class="node">
<title>BB4</title>
<ellipse fill="none" stroke="black" cx="419.4" cy="-148.43" rx="105.22" ry="37.45"/>
<text text-anchor="middle" x="419.4" y="-159.73" font-family="Times New Roman,serif" font-size="14.00">[60..72)</text>
<text text-anchor="middle" x="419.4" y="-144.73" font-family="Times New Roman,serif" font-size="14.00">Normalized Count: 1.00</text>
<text text-anchor="middle" x="419.4" y="-129.73" font-family="Times New Roman,serif" font-size="14.00">Samples weight: 0.00</text>
</g>
<!-- BB3&#45;&gt;BB4 -->
<g id="edge6" class="edge">
<title>BB3&#45;&gt;BB4</title>
<path fill="none" stroke="black" d="M269.58,-226.43C295.26,-213.23 325.11,-197.89 351.37,-184.39"/>
<polygon fill="black" stroke="black" points="353.21,-187.38 360.5,-179.7 350.01,-181.16 353.21,-187.38"/>
</g>
</g>
</svg>
