<?xml version="1.0" encoding="UTF-8" standalone="no"?>
<!DOCTYPE svg PUBLIC "-//W3C//DTD SVG 1.1//EN"
 "http://www.w3.org/Graphics/SVG/1.1/DTD/svg11.dtd">
<!-- Generated by graphviz version 2.47.0 (20210316.0004)
 -->
<!-- Title: G Pages: 1 -->
<svg width="777pt" height="1029pt"
 viewBox="0.00 0.00 777.46 1029.33" xmlns="http://www.w3.org/2000/svg" xmlns:xlink="http://www.w3.org/1999/xlink">
<g id="graph0" class="graph" transform="scale(1 1) rotate(0) translate(4 1025.33)">
<title>G</title>
<polygon fill="white" stroke="transparent" points="-4,4 -4,-1025.33 773.46,-1025.33 773.46,4 -4,4"/>
<!-- BB0 -->
<g id="node1" class="node">
<title>BB0</title>
<ellipse fill="none" stroke="black" cx="355.23" cy="-973.25" rx="103.48" ry="48.17"/>
<text text-anchor="middle" x="355.23" y="-992.05" font-family="Times New Roman,serif" font-size="14.00">[0..69)</text>
<text text-anchor="middle" x="355.23" y="-977.05" font-family="Times New Roman,serif" font-size="14.00">Count: 1</text>
<text text-anchor="middle" x="355.23" y="-962.05" font-family="Times New Roman,serif" font-size="14.00">Normalized count: 1.00</text>
<text text-anchor="middle" x="355.23" y="-947.05" font-family="Times New Roman,serif" font-size="14.00">Samples weight: 0.00</text>
</g>
<!-- BB10 -->
<g id="node11" class="node">
<title>BB10</title>
<ellipse fill="none" stroke="black" cx="355.23" cy="-841.08" rx="132.46" ry="48.17"/>
<text text-anchor="middle" x="355.23" y="-859.88" font-family="Times New Roman,serif" font-size="14.00">[11a..126)</text>
<text text-anchor="middle" x="355.23" y="-844.88" font-family="Times New Roman,serif" font-size="14.00">Count: 7000001</text>
<text text-anchor="middle" x="355.23" y="-829.88" font-family="Times New Roman,serif" font-size="14.00">Normalized count: 7000001.00</text>
<text text-anchor="middle" x="355.23" y="-814.88" font-family="Times New Roman,serif" font-size="14.00">Samples weight: 0.07</text>
</g>
<!-- BB0&#45;&gt;BB10 -->
<g id="edge1" class="edge">
<title>BB0&#45;&gt;BB10</title>
<path fill="none" stroke="black" d="M355.23,-924.89C355.23,-916.62 355.23,-907.94 355.23,-899.43"/>
<polygon fill="black" stroke="black" points="358.73,-899.19 355.23,-889.19 351.73,-899.19 358.73,-899.19"/>
</g>
<!-- BB1 -->
<g id="node2" class="node">
<title>BB1</title>
<ellipse fill="none" stroke="black" cx="355.23" cy="-708.92" rx="132.46" ry="48.17"/>
<text text-anchor="middle" x="355.23" y="-727.72" font-family="Times New Roman,serif" font-size="14.00">[69..a1)</text>
<text text-anchor="middle" x="355.23" y="-712.72" font-family="Times New Roman,serif" font-size="14.00">Count: 7000000</text>
<text text-anchor="middle" x="355.23" y="-697.72" font-family="Times New Roman,serif" font-size="14.00">Normalized count: 7000000.00</text>
<text text-anchor="middle" x="355.23" y="-682.72" font-family="Times New Roman,serif" font-size="14.00">Samples weight: 0.07</text>
</g>
<!-- BB3 -->
<g id="node4" class="node">
<title>BB3</title>
<ellipse fill="none" stroke="black" cx="497.23" cy="-576.75" rx="137.36" ry="48.17"/>
<text text-anchor="middle" x="497.23" y="-595.55" font-family="Times New Roman,serif" font-size="14.00">[b4..b8)</text>
<text text-anchor="middle" x="497.23" y="-580.55" font-family="Times New Roman,serif" font-size="14.00">Count: 14000000</text>
<text text-anchor="middle" x="497.23" y="-565.55" font-family="Times New Roman,serif" font-size="14.00">Normalized count: 14000000.00</text>
<text text-anchor="middle" x="497.23" y="-550.55" font-family="Times New Roman,serif" font-size="14.00">Samples weight: 0.14</text>
</g>
<!-- BB1&#45;&gt;BB3 -->
<g id="edge2" class="edge">
<title>BB1&#45;&gt;BB3</title>
<path fill="none" stroke="black" d="M403.3,-663.85C415.43,-652.73 428.56,-640.7 441.04,-629.25"/>
<polygon fill="black" stroke="black" points="443.71,-631.55 448.72,-622.22 438.98,-626.39 443.71,-631.55"/>
</g>
<!-- BB2 -->
<g id="node3" class="node">
<title>BB2</title>
<ellipse fill="none" stroke="black" cx="637.23" cy="-444.58" rx="132.46" ry="48.17"/>
<text text-anchor="middle" x="637.23" y="-463.38" font-family="Times New Roman,serif" font-size="14.00">[a1..b4)</text>
<text text-anchor="middle" x="637.23" y="-448.38" font-family="Times New Roman,serif" font-size="14.00">Count: 7000000</text>
<text text-anchor="middle" x="637.23" y="-433.38" font-family="Times New Roman,serif" font-size="14.00">Normalized count: 7000000.00</text>
<text text-anchor="middle" x="637.23" y="-418.38" font-family="Times New Roman,serif" font-size="14.00">Samples weight: 0.07</text>
</g>
<!-- BB2&#45;&gt;BB3 -->
<g id="edge3" class="edge">
<title>BB2&#45;&gt;BB3</title>
<path fill="none" stroke="black" d="M595.6,-490.28C583.91,-501.47 570.97,-513.55 558.41,-525"/>
<polygon fill="black" stroke="black" points="555.71,-522.73 550.65,-532.04 560.41,-527.92 555.71,-522.73"/>
</g>
<!-- BB3&#45;&gt;BB2 -->
<g id="edge4" class="edge">
<title>BB3&#45;&gt;BB2</title>
<path fill="none" stroke="black" d="M539.34,-530.59C551.04,-519.4 563.96,-507.34 576.49,-495.92"/>
<polygon fill="black" stroke="black" points="579.17,-498.22 584.23,-488.91 574.47,-493.03 579.17,-498.22"/>
</g>
<!-- BB4 -->
<g id="node5" class="node">
<title>BB4</title>
<ellipse fill="none" stroke="black" cx="355.23" cy="-444.58" rx="132.46" ry="48.17"/>
<text text-anchor="middle" x="355.23" y="-463.38" font-family="Times New Roman,serif" font-size="14.00">[b8..d9)</text>
<text text-anchor="middle" x="355.23" y="-448.38" font-family="Times New Roman,serif" font-size="14.00">Count: 7000000</text>
<text text-anchor="middle" x="355.23" y="-433.38" font-family="Times New Roman,serif" font-size="14.00">Normalized count: 7000000.00</text>
<text text-anchor="middle" x="355.23" y="-418.38" font-family="Times New Roman,serif" font-size="14.00">Samples weight: 0.07</text>
</g>
<!-- BB3&#45;&gt;BB4 -->
<g id="edge5" class="edge">
<title>BB3&#45;&gt;BB4</title>
<path fill="none" stroke="black" d="M449.15,-531.68C436.78,-520.34 423.36,-508.04 410.65,-496.38"/>
<polygon fill="black" stroke="black" points="412.99,-493.78 403.25,-489.61 408.26,-498.94 412.99,-493.78"/>
</g>
<!-- BB8 -->
<g id="node9" class="node">
<title>BB8</title>
<ellipse fill="none" stroke="black" cx="388.23" cy="-312.42" rx="137.36" ry="48.17"/>
<text text-anchor="middle" x="388.23" y="-331.22" font-family="Times New Roman,serif" font-size="14.00">[f4..fd)</text>
<text text-anchor="middle" x="388.23" y="-316.22" font-family="Times New Roman,serif" font-size="14.00">Count: 21000000</text>
<text text-anchor="middle" x="388.23" y="-301.22" font-family="Times New Roman,serif" font-size="14.00">Normalized count: 21000000.00</text>
<text text-anchor="middle" x="388.23" y="-286.22" font-family="Times New Roman,serif" font-size="14.00">Samples weight: 0.21</text>
</g>
<!-- BB4&#45;&gt;BB8 -->
<g id="edge6" class="edge">
<title>BB4&#45;&gt;BB8</title>
<path fill="none" stroke="black" d="M367.14,-396.59C369.32,-388.02 371.6,-378.99 373.84,-370.17"/>
<polygon fill="black" stroke="black" points="377.27,-370.89 376.33,-360.34 370.48,-369.17 377.27,-370.89"/>
</g>
<!-- BB5 -->
<g id="node6" class="node">
<title>BB5</title>
<ellipse fill="none" stroke="black" cx="419.23" cy="-180.25" rx="137.36" ry="48.17"/>
<text text-anchor="middle" x="419.23" y="-199.05" font-family="Times New Roman,serif" font-size="14.00">[d9..e5)</text>
<text text-anchor="middle" x="419.23" y="-184.05" font-family="Times New Roman,serif" font-size="14.00">Count: 14000000</text>
<text text-anchor="middle" x="419.23" y="-169.05" font-family="Times New Roman,serif" font-size="14.00">Normalized count: 14000000.00</text>
<text text-anchor="middle" x="419.23" y="-154.05" font-family="Times New Roman,serif" font-size="14.00">Samples weight: 0.14</text>
</g>
<!-- BB6 -->
<g id="node7" class="node">
<title>BB6</title>
<ellipse fill="none" stroke="black" cx="326.23" cy="-48.08" rx="103.48" ry="48.17"/>
<text text-anchor="middle" x="326.23" y="-66.88" font-family="Times New Roman,serif" font-size="14.00">[e5..ed)</text>
<text text-anchor="middle" x="326.23" y="-51.88" font-family="Times New Roman,serif" font-size="14.00">Count: 0</text>
<text text-anchor="middle" x="326.23" y="-36.88" font-family="Times New Roman,serif" font-size="14.00">Normalized count: 0.00</text>
<text text-anchor="middle" x="326.23" y="-21.88" font-family="Times New Roman,serif" font-size="14.00">Samples weight: 0.00</text>
</g>
<!-- BB5&#45;&gt;BB6 -->
<g id="edge8" class="edge">
<title>BB5&#45;&gt;BB6</title>
<path fill="none" stroke="black" d="M386.44,-133.36C379.26,-123.31 371.6,-112.59 364.24,-102.28"/>
<polygon fill="black" stroke="black" points="367.07,-100.22 358.41,-94.12 361.37,-104.29 367.07,-100.22"/>
</g>
<!-- BB7 -->
<g id="node8" class="node">
<title>BB7</title>
<ellipse fill="none" stroke="black" cx="584.23" cy="-48.08" rx="137.36" ry="48.17"/>
<text text-anchor="middle" x="584.23" y="-66.88" font-family="Times New Roman,serif" font-size="14.00">[ed..f4)</text>
<text text-anchor="middle" x="584.23" y="-51.88" font-family="Times New Roman,serif" font-size="14.00">Count: 14000000</text>
<text text-anchor="middle" x="584.23" y="-36.88" font-family="Times New Roman,serif" font-size="14.00">Normalized count: 14000000.00</text>
<text text-anchor="middle" x="584.23" y="-21.88" font-family="Times New Roman,serif" font-size="14.00">Samples weight: 0.14</text>
</g>
<!-- BB5&#45;&gt;BB7 -->
<g id="edge7" class="edge">
<title>BB5&#45;&gt;BB7</title>
<path fill="none" stroke="black" d="M474.17,-135.91C489.34,-123.94 505.91,-110.87 521.49,-98.58"/>
<polygon fill="black" stroke="black" points="523.84,-101.18 529.53,-92.24 519.51,-95.68 523.84,-101.18"/>
</g>
<!-- BB6&#45;&gt;BB7 -->
<g id="edge9" class="edge">
<title>BB6&#45;&gt;BB7</title>
<path fill="none" stroke="black" d="M429.53,-48.08C431.86,-48.08 434.19,-48.08 436.53,-48.08"/>
<polygon fill="black" stroke="black" points="436.75,-51.58 446.75,-48.08 436.75,-44.58 436.75,-51.58"/>
</g>
<!-- BB7&#45;&gt;BB8 -->
<g id="edge10" class="edge">
<title>BB7&#45;&gt;BB8</title>
<path fill="none" stroke="black" d="M591.16,-96.16C594.3,-135.13 592.46,-190.1 565.23,-228.33 550.04,-249.67 527.93,-265.69 504.45,-277.66"/>
<polygon fill="black" stroke="black" points="502.87,-274.54 495.4,-282.05 505.92,-280.83 502.87,-274.54"/>
</g>
<!-- BB8&#45;&gt;BB5 -->
<g id="edge11" class="edge">
<title>BB8&#45;&gt;BB5</title>
<path fill="none" stroke="black" d="M399.42,-264.42C401.46,-255.85 403.61,-246.83 405.71,-238.01"/>
<polygon fill="black" stroke="black" points="409.14,-238.71 408.05,-228.17 402.33,-237.09 409.14,-238.71"/>
</g>
<!-- BB9 -->
<g id="node10" class="node">
<title>BB9</title>
<ellipse fill="none" stroke="black" cx="132.23" cy="-180.25" rx="132.46" ry="48.17"/>
<text text-anchor="middle" x="132.23" y="-199.05" font-family="Times New Roman,serif" font-size="14.00">[fd..11a)</text>
<text text-anchor="middle" x="132.23" y="-184.05" font-family="Times New Roman,serif" font-size="14.00">Count: 7000000</text>
<text text-anchor="middle" x="132.23" y="-169.05" font-family="Times New Roman,serif" font-size="14.00">Normalized count: 7000000.00</text>
<text text-anchor="middle" x="132.23" y="-154.05" font-family="Times New Roman,serif" font-size="14.00">Samples weight: 0.07</text>
</g>
<!-- BB8&#45;&gt;BB9 -->
<g id="edge12" class="edge">
<title>BB8&#45;&gt;BB9</title>
<path fill="none" stroke="black" d="M311.42,-272.36C281.79,-257.3 247.78,-240 217.4,-224.56"/>
<polygon fill="black" stroke="black" points="218.6,-221.24 208.1,-219.83 215.43,-227.48 218.6,-221.24"/>
</g>
<!-- BB9&#45;&gt;BB10 -->
<g id="edge13" class="edge">
<title>BB9&#45;&gt;BB10</title>
<path fill="none" stroke="black" d="M150.04,-228.35C168.04,-280.28 193.23,-366.66 193.23,-443.58 193.23,-577.75 193.23,-577.75 193.23,-577.75 193.23,-657.96 170.44,-689.79 214.23,-757 225.43,-774.18 241.52,-788.28 258.86,-799.67"/>
<polygon fill="black" stroke="black" points="257.12,-802.71 267.45,-805.04 260.83,-796.78 257.12,-802.71"/>
</g>
<!-- BB10&#45;&gt;BB1 -->
<g id="edge14" class="edge">
<title>BB10&#45;&gt;BB1</title>
<path fill="none" stroke="black" d="M355.23,-792.72C355.23,-784.45 355.23,-775.77 355.23,-767.27"/>
<polygon fill="black" stroke="black" points="358.73,-767.02 355.23,-757.02 351.73,-767.02 358.73,-767.02"/>
</g>
<!-- BB11 -->
<g id="node12" class="node">
<title>BB11</title>
<ellipse fill="none" stroke="black" cx="608.23" cy="-708.92" rx="103.48" ry="48.17"/>
<text text-anchor="middle" x="608.23" y="-727.72" font-family="Times New Roman,serif" font-size="14.00">[126..127)</text>
<text text-anchor="middle" x="608.23" y="-712.72" font-family="Times New Roman,serif" font-size="14.00">Count: 1</text>
<text text-anchor="middle" x="608.23" y="-697.72" font-family="Times New Roman,serif" font-size="14.00">Normalized count: 1.00</text>
<text text-anchor="middle" x="608.23" y="-682.72" font-family="Times New Roman,serif" font-size="14.00">Samples weight: 0.00</text>
</g>
<!-- BB10&#45;&gt;BB11 -->
<g id="edge15" class="edge">
<title>BB10&#45;&gt;BB11</title>
<path fill="none" stroke="black" d="M430.45,-801.38C462,-785.15 498.68,-766.28 530.5,-749.91"/>
<polygon fill="black" stroke="black" points="532.48,-752.83 539.77,-745.14 529.27,-746.6 532.48,-752.83"/>
</g>
</g>
</svg>
