<?xml version="1.0" encoding="UTF-8" standalone="no"?>
<!DOCTYPE svg PUBLIC "-//W3C//DTD SVG 1.1//EN"
 "http://www.w3.org/Graphics/SVG/1.1/DTD/svg11.dtd">
<!-- Generated by graphviz version 2.47.0 (20210316.0004)
 -->
<!-- Title: G Pages: 1 -->
<svg width="775pt" height="765pt"
 viewBox="0.00 0.00 775.48 765.00" xmlns="http://www.w3.org/2000/svg" xmlns:xlink="http://www.w3.org/1999/xlink">
<g id="graph0" class="graph" transform="scale(1 1) rotate(0) translate(4 761)">
<title>G</title>
<polygon fill="white" stroke="transparent" points="-4,4 -4,-761 771.48,-761 771.48,4 -4,4"/>
<!-- BB0 -->
<g id="node1" class="node">
<title>BB0</title>
<ellipse fill="none" stroke="black" cx="533.24" cy="-708.92" rx="103.48" ry="48.17"/>
<text text-anchor="middle" x="533.24" y="-727.72" font-family="Times New Roman,serif" font-size="14.00">[0..9)</text>
<text text-anchor="middle" x="533.24" y="-712.72" font-family="Times New Roman,serif" font-size="14.00">Count: 1936724</text>
<text text-anchor="middle" x="533.24" y="-697.72" font-family="Times New Roman,serif" font-size="14.00">Normalized count: 1.00</text>
<text text-anchor="middle" x="533.24" y="-682.72" font-family="Times New Roman,serif" font-size="14.00">Samples weight: 0.02</text>
</g>
<!-- BB8 -->
<g id="node9" class="node">
<title>BB8</title>
<ellipse fill="none" stroke="black" cx="533.24" cy="-576.75" rx="103.48" ry="48.17"/>
<text text-anchor="middle" x="533.24" y="-595.55" font-family="Times New Roman,serif" font-size="14.00">[d4..db)</text>
<text text-anchor="middle" x="533.24" y="-580.55" font-family="Times New Roman,serif" font-size="14.00">Count: 6958558</text>
<text text-anchor="middle" x="533.24" y="-565.55" font-family="Times New Roman,serif" font-size="14.00">Normalized count: 3.59</text>
<text text-anchor="middle" x="533.24" y="-550.55" font-family="Times New Roman,serif" font-size="14.00">Samples weight: 0.06</text>
</g>
<!-- BB0&#45;&gt;BB8 -->
<g id="edge1" class="edge">
<title>BB0&#45;&gt;BB8</title>
<path fill="none" stroke="black" d="M533.24,-660.55C533.24,-652.29 533.24,-643.6 533.24,-635.1"/>
<polygon fill="black" stroke="black" points="536.74,-634.86 533.24,-624.86 529.74,-634.86 536.74,-634.86"/>
</g>
<!-- BB1 -->
<g id="node2" class="node">
<title>BB1</title>
<ellipse fill="none" stroke="black" cx="400.24" cy="-444.58" rx="103.48" ry="48.17"/>
<text text-anchor="middle" x="400.24" y="-463.38" font-family="Times New Roman,serif" font-size="14.00">[9..2f)</text>
<text text-anchor="middle" x="400.24" y="-448.38" font-family="Times New Roman,serif" font-size="14.00">Count: 5884583</text>
<text text-anchor="middle" x="400.24" y="-433.38" font-family="Times New Roman,serif" font-size="14.00">Normalized count: 3.04</text>
<text text-anchor="middle" x="400.24" y="-418.38" font-family="Times New Roman,serif" font-size="14.00">Samples weight: 0.05</text>
</g>
<!-- BB2 -->
<g id="node3" class="node">
<title>BB2</title>
<ellipse fill="none" stroke="black" cx="365.24" cy="-312.42" rx="108.38" ry="48.17"/>
<text text-anchor="middle" x="365.24" y="-331.22" font-family="Times New Roman,serif" font-size="14.00">[2f..93)</text>
<text text-anchor="middle" x="365.24" y="-316.22" font-family="Times New Roman,serif" font-size="14.00">Count: 26558781</text>
<text text-anchor="middle" x="365.24" y="-301.22" font-family="Times New Roman,serif" font-size="14.00">Normalized count: 13.71</text>
<text text-anchor="middle" x="365.24" y="-286.22" font-family="Times New Roman,serif" font-size="14.00">Samples weight: 0.24</text>
</g>
<!-- BB1&#45;&gt;BB2 -->
<g id="edge2" class="edge">
<title>BB1&#45;&gt;BB2</title>
<path fill="none" stroke="black" d="M387.6,-396.59C385.3,-388.02 382.87,-378.99 380.5,-370.17"/>
<polygon fill="black" stroke="black" points="383.83,-369.09 377.85,-360.34 377.07,-370.91 383.83,-369.09"/>
</g>
<!-- BB3 -->
<g id="node4" class="node">
<title>BB3</title>
<ellipse fill="none" stroke="black" cx="103.24" cy="-180.25" rx="103.48" ry="48.17"/>
<text text-anchor="middle" x="103.24" y="-199.05" font-family="Times New Roman,serif" font-size="14.00">[93..9e)</text>
<text text-anchor="middle" x="103.24" y="-184.05" font-family="Times New Roman,serif" font-size="14.00">Count: 4207487</text>
<text text-anchor="middle" x="103.24" y="-169.05" font-family="Times New Roman,serif" font-size="14.00">Normalized count: 2.17</text>
<text text-anchor="middle" x="103.24" y="-154.05" font-family="Times New Roman,serif" font-size="14.00">Samples weight: 0.04</text>
</g>
<!-- BB2&#45;&gt;BB3 -->
<g id="edge4" class="edge">
<title>BB2&#45;&gt;BB3</title>
<path fill="none" stroke="black" d="M293.99,-276.02C259.49,-258.88 217.96,-238.25 182.47,-220.61"/>
<polygon fill="black" stroke="black" points="183.62,-217.28 173.11,-215.96 180.51,-223.55 183.62,-217.28"/>
</g>
<!-- BB4 -->
<g id="node5" class="node">
<title>BB4</title>
<ellipse fill="none" stroke="black" cx="332.24" cy="-180.25" rx="108.38" ry="48.17"/>
<text text-anchor="middle" x="332.24" y="-199.05" font-family="Times New Roman,serif" font-size="14.00">[9e..b1)</text>
<text text-anchor="middle" x="332.24" y="-184.05" font-family="Times New Roman,serif" font-size="14.00">Count: 26547045</text>
<text text-anchor="middle" x="332.24" y="-169.05" font-family="Times New Roman,serif" font-size="14.00">Normalized count: 13.71</text>
<text text-anchor="middle" x="332.24" y="-154.05" font-family="Times New Roman,serif" font-size="14.00">Samples weight: 0.24</text>
</g>
<!-- BB2&#45;&gt;BB4 -->
<g id="edge3" class="edge">
<title>BB2&#45;&gt;BB4</title>
<path fill="none" stroke="black" d="M353.32,-264.42C351.15,-255.85 348.86,-246.83 346.63,-238.01"/>
<polygon fill="black" stroke="black" points="349.98,-237.01 344.13,-228.17 343.2,-238.73 349.98,-237.01"/>
</g>
<!-- BB3&#45;&gt;BB4 -->
<g id="edge6" class="edge">
<title>BB3&#45;&gt;BB4</title>
<path fill="none" stroke="black" d="M206.56,-180.25C208.88,-180.25 211.21,-180.25 213.54,-180.25"/>
<polygon fill="black" stroke="black" points="213.74,-183.75 223.74,-180.25 213.74,-176.75 213.74,-183.75"/>
</g>
<!-- BB7 -->
<g id="node8" class="node">
<title>BB7</title>
<ellipse fill="none" stroke="black" cx="561.24" cy="-48.08" rx="103.48" ry="48.17"/>
<text text-anchor="middle" x="561.24" y="-66.88" font-family="Times New Roman,serif" font-size="14.00">[c9..d4)</text>
<text text-anchor="middle" x="561.24" y="-51.88" font-family="Times New Roman,serif" font-size="14.00">Count: 5515318</text>
<text text-anchor="middle" x="561.24" y="-36.88" font-family="Times New Roman,serif" font-size="14.00">Normalized count: 2.85</text>
<text text-anchor="middle" x="561.24" y="-21.88" font-family="Times New Roman,serif" font-size="14.00">Samples weight: 0.05</text>
</g>
<!-- BB3&#45;&gt;BB7 -->
<g id="edge5" class="edge">
<title>BB3&#45;&gt;BB7</title>
<path fill="none" stroke="black" d="M175.51,-145.84C188.54,-140.69 202.15,-135.86 215.24,-132.17 316.5,-103.56 347.98,-124.77 449.24,-96.17 459.16,-93.36 469.38,-89.92 479.41,-86.17"/>
<polygon fill="black" stroke="black" points="480.88,-89.35 488.96,-82.5 478.37,-82.82 480.88,-89.35"/>
</g>
<!-- BB5 -->
<g id="node6" class="node">
<title>BB5</title>
<ellipse fill="none" stroke="black" cx="103.24" cy="-48.08" rx="103.48" ry="48.17"/>
<text text-anchor="middle" x="103.24" y="-66.88" font-family="Times New Roman,serif" font-size="14.00">[b1..bc)</text>
<text text-anchor="middle" x="103.24" y="-51.88" font-family="Times New Roman,serif" font-size="14.00">Count: 4090554</text>
<text text-anchor="middle" x="103.24" y="-36.88" font-family="Times New Roman,serif" font-size="14.00">Normalized count: 2.11</text>
<text text-anchor="middle" x="103.24" y="-21.88" font-family="Times New Roman,serif" font-size="14.00">Samples weight: 0.04</text>
</g>
<!-- BB4&#45;&gt;BB5 -->
<g id="edge8" class="edge">
<title>BB4&#45;&gt;BB5</title>
<path fill="none" stroke="black" d="M266.62,-141.95C238.47,-125.95 205.47,-107.19 176.53,-90.74"/>
<polygon fill="black" stroke="black" points="178.11,-87.61 167.68,-85.71 174.65,-93.7 178.11,-87.61"/>
</g>
<!-- BB6 -->
<g id="node7" class="node">
<title>BB6</title>
<ellipse fill="none" stroke="black" cx="332.24" cy="-48.08" rx="108.38" ry="48.17"/>
<text text-anchor="middle" x="332.24" y="-66.88" font-family="Times New Roman,serif" font-size="14.00">[bc..c9)</text>
<text text-anchor="middle" x="332.24" y="-51.88" font-family="Times New Roman,serif" font-size="14.00">Count: 26612543</text>
<text text-anchor="middle" x="332.24" y="-36.88" font-family="Times New Roman,serif" font-size="14.00">Normalized count: 13.74</text>
<text text-anchor="middle" x="332.24" y="-21.88" font-family="Times New Roman,serif" font-size="14.00">Samples weight: 0.24</text>
</g>
<!-- BB4&#45;&gt;BB6 -->
<g id="edge7" class="edge">
<title>BB4&#45;&gt;BB6</title>
<path fill="none" stroke="black" d="M332.24,-131.89C332.24,-123.62 332.24,-114.94 332.24,-106.43"/>
<polygon fill="black" stroke="black" points="335.74,-106.19 332.24,-96.19 328.74,-106.19 335.74,-106.19"/>
</g>
<!-- BB5&#45;&gt;BB6 -->
<g id="edge10" class="edge">
<title>BB5&#45;&gt;BB6</title>
<path fill="none" stroke="black" d="M206.56,-48.08C208.88,-48.08 211.21,-48.08 213.54,-48.08"/>
<polygon fill="black" stroke="black" points="213.74,-51.58 223.74,-48.08 213.74,-44.58 213.74,-51.58"/>
</g>
<!-- BB5&#45;&gt;BB7 -->
<g id="edge9" class="edge">
<title>BB5&#45;&gt;BB7</title>
<path fill="none" stroke="black" d="M162.01,-87.82C181.04,-98.54 202.79,-108.69 224.24,-114.17 317.25,-137.91 347.22,-137.91 440.24,-114.17 458.34,-109.55 476.65,-101.6 493.36,-92.79"/>
<polygon fill="black" stroke="black" points="495.36,-95.68 502.47,-87.82 492.01,-89.54 495.36,-95.68"/>
</g>
<!-- BB6&#45;&gt;BB2 -->
<g id="edge11" class="edge">
<title>BB6&#45;&gt;BB2</title>
<path fill="none" stroke="black" d="M403.97,-84.08C422.02,-96.6 439.12,-112.58 449.24,-132.17 468.85,-170.14 465.7,-188.89 449.24,-228.33 443.96,-240.98 435.72,-252.68 426.42,-263.07"/>
<polygon fill="black" stroke="black" points="423.82,-260.72 419.49,-270.4 428.9,-265.53 423.82,-260.72"/>
</g>
<!-- BB6&#45;&gt;BB7 -->
<g id="edge12" class="edge">
<title>BB6&#45;&gt;BB7</title>
<path fill="none" stroke="black" d="M440.48,-48.08C442.93,-48.08 445.38,-48.08 447.84,-48.08"/>
<polygon fill="black" stroke="black" points="447.93,-51.58 457.93,-48.08 447.93,-44.58 447.93,-51.58"/>
</g>
<!-- BB7&#45;&gt;BB8 -->
<g id="edge13" class="edge">
<title>BB7&#45;&gt;BB8</title>
<path fill="none" stroke="black" d="M558.72,-96.37C553.58,-193.2 541.85,-413.74 536.28,-518.48"/>
<polygon fill="black" stroke="black" points="532.78,-518.38 535.75,-528.55 539.77,-518.75 532.78,-518.38"/>
</g>
<!-- BB8&#45;&gt;BB1 -->
<g id="edge14" class="edge">
<title>BB8&#45;&gt;BB1</title>
<path fill="none" stroke="black" d="M489.69,-533.13C477.4,-521.1 463.93,-507.91 451.24,-495.5"/>
<polygon fill="black" stroke="black" points="453.48,-492.79 443.88,-488.3 448.58,-497.8 453.48,-492.79"/>
</g>
<!-- BB9 -->
<g id="node10" class="node">
<title>BB9</title>
<ellipse fill="none" stroke="black" cx="664.24" cy="-444.58" rx="103.48" ry="48.17"/>
<text text-anchor="middle" x="664.24" y="-463.38" font-family="Times New Roman,serif" font-size="14.00">[db..e0)</text>
<text text-anchor="middle" x="664.24" y="-448.38" font-family="Times New Roman,serif" font-size="14.00">Count: 1858200</text>
<text text-anchor="middle" x="664.24" y="-433.38" font-family="Times New Roman,serif" font-size="14.00">Normalized count: 0.96</text>
<text text-anchor="middle" x="664.24" y="-418.38" font-family="Times New Roman,serif" font-size="14.00">Samples weight: 0.02</text>
</g>
<!-- BB8&#45;&gt;BB9 -->
<g id="edge15" class="edge">
<title>BB8&#45;&gt;BB9</title>
<path fill="none" stroke="black" d="M576.49,-532.77C588.46,-520.88 601.54,-507.88 613.87,-495.63"/>
<polygon fill="black" stroke="black" points="616.4,-498.05 621.03,-488.52 611.47,-493.09 616.4,-498.05"/>
</g>
</g>
</svg>
