<?xml version="1.0" encoding="UTF-8" standalone="no"?>
<!DOCTYPE svg PUBLIC "-//W3C//DTD SVG 1.1//EN"
 "http://www.w3.org/Graphics/SVG/1.1/DTD/svg11.dtd">
<!-- Generated by graphviz version 2.47.0 (20210316.0004)
 -->
<!-- Title: G Pages: 1 -->
<svg width="668pt" height="860pt"
 viewBox="0.00 0.00 667.67 859.63" xmlns="http://www.w3.org/2000/svg" xmlns:xlink="http://www.w3.org/1999/xlink">
<g id="graph0" class="graph" transform="scale(1 1) rotate(0) translate(4 855.63)">
<title>G</title>
<polygon fill="white" stroke="transparent" points="-4,4 -4,-855.63 663.67,-855.63 663.67,4 -4,4"/>
<!-- BB0 -->
<g id="node1" class="node">
<title>BB0</title>
<ellipse fill="none" stroke="black" cx="296.31" cy="-814.15" rx="105.22" ry="37.45"/>
<text text-anchor="middle" x="296.31" y="-825.45" font-family="Times New Roman,serif" font-size="14.00">[0..69)</text>
<text text-anchor="middle" x="296.31" y="-810.45" font-family="Times New Roman,serif" font-size="14.00">Normalized Count: 1.00</text>
<text text-anchor="middle" x="296.31" y="-795.45" font-family="Times New Roman,serif" font-size="14.00">Samples weight: 0.00</text>
</g>
<!-- BB10 -->
<g id="node11" class="node">
<title>BB10</title>
<ellipse fill="none" stroke="black" cx="296.31" cy="-703.2" rx="110.12" ry="37.45"/>
<text text-anchor="middle" x="296.31" y="-714.5" font-family="Times New Roman,serif" font-size="14.00">[11a..126)</text>
<text text-anchor="middle" x="296.31" y="-699.5" font-family="Times New Roman,serif" font-size="14.00">Normalized Count: 31.50</text>
<text text-anchor="middle" x="296.31" y="-684.5" font-family="Times New Roman,serif" font-size="14.00">Samples weight: 0.15</text>
</g>
<!-- BB0&#45;&gt;BB10 -->
<g id="edge1" class="edge">
<title>BB0&#45;&gt;BB10</title>
<path fill="none" stroke="black" d="M296.31,-776.57C296.31,-768.39 296.31,-759.61 296.31,-751.09"/>
<polygon fill="black" stroke="black" points="299.81,-750.87 296.31,-740.87 292.81,-750.87 299.81,-750.87"/>
</g>
<!-- BB1 -->
<g id="node2" class="node">
<title>BB1</title>
<ellipse fill="none" stroke="black" cx="296.31" cy="-592.24" rx="110.12" ry="37.45"/>
<text text-anchor="middle" x="296.31" y="-603.54" font-family="Times New Roman,serif" font-size="14.00">[69..a1)</text>
<text text-anchor="middle" x="296.31" y="-588.54" font-family="Times New Roman,serif" font-size="14.00">Normalized Count: 30.50</text>
<text text-anchor="middle" x="296.31" y="-573.54" font-family="Times New Roman,serif" font-size="14.00">Samples weight: 0.15</text>
</g>
<!-- BB3 -->
<g id="node4" class="node">
<title>BB3</title>
<ellipse fill="none" stroke="black" cx="413.31" cy="-481.29" rx="110.12" ry="37.45"/>
<text text-anchor="middle" x="413.31" y="-492.59" font-family="Times New Roman,serif" font-size="14.00">[b4..b8)</text>
<text text-anchor="middle" x="413.31" y="-477.59" font-family="Times New Roman,serif" font-size="14.00">Normalized Count: 34.50</text>
<text text-anchor="middle" x="413.31" y="-462.59" font-family="Times New Roman,serif" font-size="14.00">Samples weight: 0.17</text>
</g>
<!-- BB1&#45;&gt;BB3 -->
<g id="edge2" class="edge">
<title>BB1&#45;&gt;BB3</title>
<path fill="none" stroke="black" d="M333.33,-556.77C344.53,-546.34 356.96,-534.77 368.61,-523.92"/>
<polygon fill="black" stroke="black" points="371.2,-526.29 376.13,-516.91 366.42,-521.17 371.2,-526.29"/>
</g>
<!-- BB2 -->
<g id="node3" class="node">
<title>BB2</title>
<ellipse fill="none" stroke="black" cx="554.31" cy="-370.34" rx="105.22" ry="37.45"/>
<text text-anchor="middle" x="554.31" y="-381.64" font-family="Times New Roman,serif" font-size="14.00">[a1..b4)</text>
<text text-anchor="middle" x="554.31" y="-366.64" font-family="Times New Roman,serif" font-size="14.00">Normalized Count: 4.00</text>
<text text-anchor="middle" x="554.31" y="-351.64" font-family="Times New Roman,serif" font-size="14.00">Samples weight: 0.02</text>
</g>
<!-- BB2&#45;&gt;BB3 -->
<g id="edge3" class="edge">
<title>BB2&#45;&gt;BB3</title>
<path fill="none" stroke="black" d="M516.39,-405.52C502.1,-416.96 485.54,-429.79 469.92,-441.56"/>
<polygon fill="black" stroke="black" points="467.76,-438.8 461.86,-447.6 471.96,-444.41 467.76,-438.8"/>
</g>
<!-- BB3&#45;&gt;BB2 -->
<g id="edge4" class="edge">
<title>BB3&#45;&gt;BB2</title>
<path fill="none" stroke="black" d="M451.59,-445.82C465.93,-434.35 482.49,-421.51 498.1,-409.76"/>
<polygon fill="black" stroke="black" points="500.25,-412.53 506.15,-403.73 496.05,-406.92 500.25,-412.53"/>
</g>
<!-- BB4 -->
<g id="node5" class="node">
<title>BB4</title>
<ellipse fill="none" stroke="black" cx="320.31" cy="-370.34" rx="110.12" ry="37.45"/>
<text text-anchor="middle" x="320.31" y="-381.64" font-family="Times New Roman,serif" font-size="14.00">[b8..d9)</text>
<text text-anchor="middle" x="320.31" y="-366.64" font-family="Times New Roman,serif" font-size="14.00">Normalized Count: 30.50</text>
<text text-anchor="middle" x="320.31" y="-351.64" font-family="Times New Roman,serif" font-size="14.00">Samples weight: 0.15</text>
</g>
<!-- BB3&#45;&gt;BB4 -->
<g id="edge5" class="edge">
<title>BB3&#45;&gt;BB4</title>
<path fill="none" stroke="black" d="M383.37,-445.22C374.99,-435.4 365.79,-424.62 357.07,-414.4"/>
<polygon fill="black" stroke="black" points="359.66,-412.05 350.51,-406.72 354.34,-416.6 359.66,-412.05"/>
</g>
<!-- BB8 -->
<g id="node9" class="node">
<title>BB8</title>
<ellipse fill="none" stroke="black" cx="332.31" cy="-259.38" rx="110.12" ry="37.45"/>
<text text-anchor="middle" x="332.31" y="-270.68" font-family="Times New Roman,serif" font-size="14.00">[f4..fd)</text>
<text text-anchor="middle" x="332.31" y="-255.68" font-family="Times New Roman,serif" font-size="14.00">Normalized Count: 34.00</text>
<text text-anchor="middle" x="332.31" y="-240.68" font-family="Times New Roman,serif" font-size="14.00">Samples weight: 0.16</text>
</g>
<!-- BB4&#45;&gt;BB8 -->
<g id="edge6" class="edge">
<title>BB4&#45;&gt;BB8</title>
<path fill="none" stroke="black" d="M324.34,-332.75C325.24,-324.58 326.21,-315.8 327.14,-307.27"/>
<polygon fill="black" stroke="black" points="330.65,-307.38 328.27,-297.06 323.7,-306.61 330.65,-307.38"/>
</g>
<!-- BB5 -->
<g id="node6" class="node">
<title>BB5</title>
<ellipse fill="none" stroke="black" cx="344.31" cy="-148.43" rx="105.22" ry="37.45"/>
<text text-anchor="middle" x="344.31" y="-159.73" font-family="Times New Roman,serif" font-size="14.00">[d9..e5)</text>
<text text-anchor="middle" x="344.31" y="-144.73" font-family="Times New Roman,serif" font-size="14.00">Normalized Count: 3.50</text>
<text text-anchor="middle" x="344.31" y="-129.73" font-family="Times New Roman,serif" font-size="14.00">Samples weight: 0.02</text>
</g>
<!-- BB6 -->
<g id="node7" class="node">
<title>BB6</title>
<ellipse fill="none" stroke="black" cx="248.31" cy="-37.48" rx="105.22" ry="37.45"/>
<text text-anchor="middle" x="248.31" y="-48.78" font-family="Times New Roman,serif" font-size="14.00">[e5..ed)</text>
<text text-anchor="middle" x="248.31" y="-33.78" font-family="Times New Roman,serif" font-size="14.00">Normalized Count: 2.50</text>
<text text-anchor="middle" x="248.31" y="-18.78" font-family="Times New Roman,serif" font-size="14.00">Samples weight: 0.01</text>
</g>
<!-- BB5&#45;&gt;BB6 -->
<g id="edge8" class="edge">
<title>BB5&#45;&gt;BB6</title>
<path fill="none" stroke="black" d="M313.41,-112.36C304.67,-102.44 295.06,-91.54 285.98,-81.23"/>
<polygon fill="black" stroke="black" points="288.39,-78.67 279.15,-73.48 283.14,-83.3 288.39,-78.67"/>
</g>
<!-- BB7 -->
<g id="node8" class="node">
<title>BB7</title>
<ellipse fill="none" stroke="black" cx="477.31" cy="-37.48" rx="105.22" ry="37.45"/>
<text text-anchor="middle" x="477.31" y="-48.78" font-family="Times New Roman,serif" font-size="14.00">[ed..f4)</text>
<text text-anchor="middle" x="477.31" y="-33.78" font-family="Times New Roman,serif" font-size="14.00">Normalized Count: 3.50</text>
<text text-anchor="middle" x="477.31" y="-18.78" font-family="Times New Roman,serif" font-size="14.00">Samples weight: 0.02</text>
</g>
<!-- BB5&#45;&gt;BB7 -->
<g id="edge7" class="edge">
<title>BB5&#45;&gt;BB7</title>
<path fill="none" stroke="black" d="M385.3,-113.85C398.95,-102.67 414.29,-90.1 428.48,-78.48"/>
<polygon fill="black" stroke="black" points="430.71,-81.18 436.23,-72.13 426.27,-75.76 430.71,-81.18"/>
</g>
<!-- BB6&#45;&gt;BB7 -->
<g id="edge9" class="edge">
<title>BB6&#45;&gt;BB7</title>
<path fill="none" stroke="black" d="M353.86,-37.48C356.47,-37.48 359.07,-37.48 361.67,-37.48"/>
<polygon fill="black" stroke="black" points="361.71,-40.98 371.71,-37.48 361.71,-33.98 361.71,-40.98"/>
</g>
<!-- BB7&#45;&gt;BB8 -->
<g id="edge10" class="edge">
<title>BB7&#45;&gt;BB8</title>
<path fill="none" stroke="black" d="M481.22,-75.23C482.72,-107.12 480.16,-153.17 458.31,-185.91 447.33,-202.35 431.28,-215.52 414.27,-225.87"/>
<polygon fill="black" stroke="black" points="412.23,-223.01 405.32,-231.04 415.73,-229.07 412.23,-223.01"/>
</g>
<!-- BB8&#45;&gt;BB5 -->
<g id="edge11" class="edge">
<title>BB8&#45;&gt;BB5</title>
<path fill="none" stroke="black" d="M336.34,-221.8C337.24,-213.63 338.21,-204.85 339.14,-196.32"/>
<polygon fill="black" stroke="black" points="342.65,-196.42 340.27,-186.1 335.7,-195.66 342.65,-196.42"/>
</g>
<!-- BB9 -->
<g id="node10" class="node">
<title>BB9</title>
<ellipse fill="none" stroke="black" cx="110.31" cy="-148.43" rx="110.12" ry="37.45"/>
<text text-anchor="middle" x="110.31" y="-159.73" font-family="Times New Roman,serif" font-size="14.00">[fd..11a)</text>
<text text-anchor="middle" x="110.31" y="-144.73" font-family="Times New Roman,serif" font-size="14.00">Normalized Count: 30.50</text>
<text text-anchor="middle" x="110.31" y="-129.73" font-family="Times New Roman,serif" font-size="14.00">Samples weight: 0.15</text>
</g>
<!-- BB8&#45;&gt;BB9 -->
<g id="edge12" class="edge">
<title>BB8&#45;&gt;BB9</title>
<path fill="none" stroke="black" d="M270.76,-228.18C242.97,-214.54 209.99,-198.35 181.17,-184.21"/>
<polygon fill="black" stroke="black" points="182.49,-180.96 171.97,-179.69 179.41,-187.24 182.49,-180.96"/>
</g>
<!-- BB9&#45;&gt;BB10 -->
<g id="edge13" class="edge">
<title>BB9&#45;&gt;BB10</title>
<path fill="none" stroke="black" d="M123.3,-185.86C137.51,-229.05 158.31,-303.49 158.31,-369.34 158.31,-482.29 158.31,-482.29 158.31,-482.29 158.31,-548.36 141.33,-574.31 177.31,-629.72 187.48,-645.38 202.34,-658.19 218.13,-668.44"/>
<polygon fill="black" stroke="black" points="216.63,-671.62 226.98,-673.87 220.29,-665.66 216.63,-671.62"/>
</g>
<!-- BB10&#45;&gt;BB1 -->
<g id="edge14" class="edge">
<title>BB10&#45;&gt;BB1</title>
<path fill="none" stroke="black" d="M296.31,-665.61C296.31,-657.44 296.31,-648.66 296.31,-640.13"/>
<polygon fill="black" stroke="black" points="299.81,-639.92 296.31,-629.92 292.81,-639.92 299.81,-639.92"/>
</g>
<!-- BB11 -->
<g id="node12" class="node">
<title>BB11</title>
<ellipse fill="none" stroke="black" cx="530.31" cy="-592.24" rx="105.22" ry="37.45"/>
<text text-anchor="middle" x="530.31" y="-603.54" font-family="Times New Roman,serif" font-size="14.00">[126..127)</text>
<text text-anchor="middle" x="530.31" y="-588.54" font-family="Times New Roman,serif" font-size="14.00">Normalized Count: 1.00</text>
<text text-anchor="middle" x="530.31" y="-573.54" font-family="Times New Roman,serif" font-size="14.00">Samples weight: 0.00</text>
</g>
<!-- BB10&#45;&gt;BB11 -->
<g id="edge15" class="edge">
<title>BB10&#45;&gt;BB11</title>
<path fill="none" stroke="black" d="M359.94,-672.57C390.37,-658.4 426.92,-641.38 458.35,-626.75"/>
<polygon fill="black" stroke="black" points="459.91,-629.88 467.5,-622.49 456.96,-623.54 459.91,-629.88"/>
</g>
</g>
</svg>
