<?xml version="1.0" encoding="UTF-8" standalone="no"?>
<!DOCTYPE svg PUBLIC "-//W3C//DTD SVG 1.1//EN"
 "http://www.w3.org/Graphics/SVG/1.1/DTD/svg11.dtd">
<!-- Generated by graphviz version 2.47.0 (20210316.0004)
 -->
<!-- Title: G Pages: 1 -->
<svg width="963pt" height="897pt"
 viewBox="0.00 0.00 963.48 897.17" xmlns="http://www.w3.org/2000/svg" xmlns:xlink="http://www.w3.org/1999/xlink">
<g id="graph0" class="graph" transform="scale(1 1) rotate(0) translate(4 893.17)">
<title>G</title>
<polygon fill="white" stroke="transparent" points="-4,4 -4,-893.17 959.48,-893.17 959.48,4 -4,4"/>
<!-- BB0 -->
<g id="node1" class="node">
<title>BB0</title>
<ellipse fill="none" stroke="black" cx="385.24" cy="-841.08" rx="103.48" ry="48.17"/>
<text text-anchor="middle" x="385.24" y="-859.88" font-family="Times New Roman,serif" font-size="14.00">[0..21)</text>
<text text-anchor="middle" x="385.24" y="-844.88" font-family="Times New Roman,serif" font-size="14.00">Count: 2</text>
<text text-anchor="middle" x="385.24" y="-829.88" font-family="Times New Roman,serif" font-size="14.00">Normalized count: 1.00</text>
<text text-anchor="middle" x="385.24" y="-814.88" font-family="Times New Roman,serif" font-size="14.00">Samples weight: 0.00</text>
</g>
<!-- BB1 -->
<g id="node2" class="node">
<title>BB1</title>
<ellipse fill="none" stroke="black" cx="273.24" cy="-708.92" rx="103.48" ry="48.17"/>
<text text-anchor="middle" x="273.24" y="-727.72" font-family="Times New Roman,serif" font-size="14.00">[21..37)</text>
<text text-anchor="middle" x="273.24" y="-712.72" font-family="Times New Roman,serif" font-size="14.00">Count: 0</text>
<text text-anchor="middle" x="273.24" y="-697.72" font-family="Times New Roman,serif" font-size="14.00">Normalized count: 0.00</text>
<text text-anchor="middle" x="273.24" y="-682.72" font-family="Times New Roman,serif" font-size="14.00">Samples weight: 0.00</text>
</g>
<!-- BB0&#45;&gt;BB1 -->
<g id="edge2" class="edge">
<title>BB0&#45;&gt;BB1</title>
<path fill="none" stroke="black" d="M347.32,-796.01C337.83,-784.99 327.57,-773.06 317.79,-761.7"/>
<polygon fill="black" stroke="black" points="320.29,-759.24 311.12,-753.94 314.99,-763.8 320.29,-759.24"/>
</g>
<!-- BB2 -->
<g id="node3" class="node">
<title>BB2</title>
<ellipse fill="none" stroke="black" cx="497.24" cy="-708.92" rx="103.48" ry="48.17"/>
<text text-anchor="middle" x="497.24" y="-727.72" font-family="Times New Roman,serif" font-size="14.00">[37..44)</text>
<text text-anchor="middle" x="497.24" y="-712.72" font-family="Times New Roman,serif" font-size="14.00">Count: 2</text>
<text text-anchor="middle" x="497.24" y="-697.72" font-family="Times New Roman,serif" font-size="14.00">Normalized count: 1.00</text>
<text text-anchor="middle" x="497.24" y="-682.72" font-family="Times New Roman,serif" font-size="14.00">Samples weight: 0.00</text>
</g>
<!-- BB0&#45;&gt;BB2 -->
<g id="edge1" class="edge">
<title>BB0&#45;&gt;BB2</title>
<path fill="none" stroke="black" d="M423.16,-796.01C432.64,-784.99 442.91,-773.06 452.68,-761.7"/>
<polygon fill="black" stroke="black" points="455.49,-763.8 459.36,-753.94 450.18,-759.24 455.49,-763.8"/>
</g>
<!-- BB1&#45;&gt;BB2 -->
<g id="edge3" class="edge">
<title>BB1&#45;&gt;BB2</title>
<path fill="none" stroke="black" d="M376.49,-708.92C378.94,-708.92 381.4,-708.92 383.85,-708.92"/>
<polygon fill="black" stroke="black" points="383.94,-712.42 393.94,-708.92 383.94,-705.42 383.94,-712.42"/>
</g>
<!-- BB9 -->
<g id="node10" class="node">
<title>BB9</title>
<ellipse fill="none" stroke="black" cx="497.24" cy="-576.75" rx="103.48" ry="48.17"/>
<text text-anchor="middle" x="497.24" y="-595.55" font-family="Times New Roman,serif" font-size="14.00">[a2..a7)</text>
<text text-anchor="middle" x="497.24" y="-580.55" font-family="Times New Roman,serif" font-size="14.00">Count: 16</text>
<text text-anchor="middle" x="497.24" y="-565.55" font-family="Times New Roman,serif" font-size="14.00">Normalized count: 8.00</text>
<text text-anchor="middle" x="497.24" y="-550.55" font-family="Times New Roman,serif" font-size="14.00">Samples weight: 0.00</text>
</g>
<!-- BB2&#45;&gt;BB9 -->
<g id="edge4" class="edge">
<title>BB2&#45;&gt;BB9</title>
<path fill="none" stroke="black" d="M497.24,-660.55C497.24,-652.29 497.24,-643.6 497.24,-635.1"/>
<polygon fill="black" stroke="black" points="500.74,-634.86 497.24,-624.86 493.74,-634.86 500.74,-634.86"/>
</g>
<!-- BB3 -->
<g id="node4" class="node">
<title>BB3</title>
<ellipse fill="none" stroke="black" cx="357.24" cy="-444.58" rx="103.48" ry="48.17"/>
<text text-anchor="middle" x="357.24" y="-463.38" font-family="Times New Roman,serif" font-size="14.00">[44..58)</text>
<text text-anchor="middle" x="357.24" y="-448.38" font-family="Times New Roman,serif" font-size="14.00">Count: 14</text>
<text text-anchor="middle" x="357.24" y="-433.38" font-family="Times New Roman,serif" font-size="14.00">Normalized count: 7.00</text>
<text text-anchor="middle" x="357.24" y="-418.38" font-family="Times New Roman,serif" font-size="14.00">Samples weight: 0.00</text>
</g>
<!-- BB5 -->
<g id="node6" class="node">
<title>BB5</title>
<ellipse fill="none" stroke="black" cx="347.24" cy="-312.42" rx="122.16" ry="48.17"/>
<text text-anchor="middle" x="347.24" y="-331.22" font-family="Times New Roman,serif" font-size="14.00">[71..77)</text>
<text text-anchor="middle" x="347.24" y="-316.22" font-family="Times New Roman,serif" font-size="14.00">Count: 174766</text>
<text text-anchor="middle" x="347.24" y="-301.22" font-family="Times New Roman,serif" font-size="14.00">Normalized count: 87383.00</text>
<text text-anchor="middle" x="347.24" y="-286.22" font-family="Times New Roman,serif" font-size="14.00">Samples weight: 0.50</text>
</g>
<!-- BB3&#45;&gt;BB5 -->
<g id="edge5" class="edge">
<title>BB3&#45;&gt;BB5</title>
<path fill="none" stroke="black" d="M353.6,-396.22C352.96,-387.95 352.3,-379.27 351.64,-370.77"/>
<polygon fill="black" stroke="black" points="355.11,-370.23 350.86,-360.52 348.13,-370.76 355.11,-370.23"/>
</g>
<!-- BB4 -->
<g id="node5" class="node">
<title>BB4</title>
<ellipse fill="none" stroke="black" cx="347.24" cy="-180.25" rx="122.16" ry="48.17"/>
<text text-anchor="middle" x="347.24" y="-199.05" font-family="Times New Roman,serif" font-size="14.00">[58..71)</text>
<text text-anchor="middle" x="347.24" y="-184.05" font-family="Times New Roman,serif" font-size="14.00">Count: 174752</text>
<text text-anchor="middle" x="347.24" y="-169.05" font-family="Times New Roman,serif" font-size="14.00">Normalized count: 87376.00</text>
<text text-anchor="middle" x="347.24" y="-154.05" font-family="Times New Roman,serif" font-size="14.00">Samples weight: 0.50</text>
</g>
<!-- BB4&#45;&gt;BB5 -->
<g id="edge6" class="edge">
<title>BB4&#45;&gt;BB5</title>
<path fill="none" stroke="black" d="M353.75,-228.36C353.97,-236.62 354.04,-245.3 353.95,-253.8"/>
<polygon fill="black" stroke="black" points="350.44,-253.99 353.76,-264.05 357.44,-254.12 350.44,-253.99"/>
</g>
<!-- BB5&#45;&gt;BB4 -->
<g id="edge7" class="edge">
<title>BB5&#45;&gt;BB4</title>
<path fill="none" stroke="black" d="M340.72,-264.05C340.5,-255.79 340.44,-247.1 340.53,-238.6"/>
<polygon fill="black" stroke="black" points="344.03,-238.42 340.72,-228.36 337.04,-238.29 344.03,-238.42"/>
</g>
<!-- BB6 -->
<g id="node7" class="node">
<title>BB6</title>
<ellipse fill="none" stroke="black" cx="103.24" cy="-180.25" rx="103.48" ry="48.17"/>
<text text-anchor="middle" x="103.24" y="-199.05" font-family="Times New Roman,serif" font-size="14.00">[77..7e)</text>
<text text-anchor="middle" x="103.24" y="-184.05" font-family="Times New Roman,serif" font-size="14.00">Count: 14</text>
<text text-anchor="middle" x="103.24" y="-169.05" font-family="Times New Roman,serif" font-size="14.00">Normalized count: 7.00</text>
<text text-anchor="middle" x="103.24" y="-154.05" font-family="Times New Roman,serif" font-size="14.00">Samples weight: 0.00</text>
</g>
<!-- BB5&#45;&gt;BB6 -->
<g id="edge8" class="edge">
<title>BB5&#45;&gt;BB6</title>
<path fill="none" stroke="black" d="M275.68,-273.24C245.35,-257.06 209.96,-238.18 179.17,-221.76"/>
<polygon fill="black" stroke="black" points="180.67,-218.59 170.2,-216.97 177.37,-224.76 180.67,-218.59"/>
</g>
<!-- BB7 -->
<g id="node8" class="node">
<title>BB7</title>
<ellipse fill="none" stroke="black" cx="103.24" cy="-48.08" rx="103.48" ry="48.17"/>
<text text-anchor="middle" x="103.24" y="-66.88" font-family="Times New Roman,serif" font-size="14.00">[7e..9c)</text>
<text text-anchor="middle" x="103.24" y="-51.88" font-family="Times New Roman,serif" font-size="14.00">Count: 0</text>
<text text-anchor="middle" x="103.24" y="-36.88" font-family="Times New Roman,serif" font-size="14.00">Normalized count: 0.00</text>
<text text-anchor="middle" x="103.24" y="-21.88" font-family="Times New Roman,serif" font-size="14.00">Samples weight: 0.00</text>
</g>
<!-- BB6&#45;&gt;BB7 -->
<g id="edge10" class="edge">
<title>BB6&#45;&gt;BB7</title>
<path fill="none" stroke="black" d="M103.24,-131.89C103.24,-123.62 103.24,-114.94 103.24,-106.43"/>
<polygon fill="black" stroke="black" points="106.74,-106.19 103.24,-96.19 99.74,-106.19 106.74,-106.19"/>
</g>
<!-- BB8 -->
<g id="node9" class="node">
<title>BB8</title>
<ellipse fill="none" stroke="black" cx="327.24" cy="-48.08" rx="103.48" ry="48.17"/>
<text text-anchor="middle" x="327.24" y="-66.88" font-family="Times New Roman,serif" font-size="14.00">[9c..a2)</text>
<text text-anchor="middle" x="327.24" y="-51.88" font-family="Times New Roman,serif" font-size="14.00">Count: 14</text>
<text text-anchor="middle" x="327.24" y="-36.88" font-family="Times New Roman,serif" font-size="14.00">Normalized count: 7.00</text>
<text text-anchor="middle" x="327.24" y="-21.88" font-family="Times New Roman,serif" font-size="14.00">Samples weight: 0.00</text>
</g>
<!-- BB6&#45;&gt;BB8 -->
<g id="edge9" class="edge">
<title>BB6&#45;&gt;BB8</title>
<path fill="none" stroke="black" d="M166.83,-142.3C194.26,-126.36 226.48,-107.63 254.83,-91.16"/>
<polygon fill="black" stroke="black" points="256.6,-94.18 263.49,-86.13 253.08,-88.13 256.6,-94.18"/>
</g>
<!-- BB7&#45;&gt;BB8 -->
<g id="edge11" class="edge">
<title>BB7&#45;&gt;BB8</title>
<path fill="none" stroke="black" d="M206.49,-48.08C208.94,-48.08 211.4,-48.08 213.85,-48.08"/>
<polygon fill="black" stroke="black" points="213.94,-51.58 223.94,-48.08 213.94,-44.58 213.94,-51.58"/>
</g>
<!-- BB8&#45;&gt;BB9 -->
<g id="edge12" class="edge">
<title>BB8&#45;&gt;BB9</title>
<path fill="none" stroke="black" d="M411.13,-76.49C437.03,-89.23 462.78,-107.25 478.24,-132.17 517.27,-195.08 508.42,-413.36 501.57,-518.4"/>
<polygon fill="black" stroke="black" points="498.07,-518.29 500.9,-528.51 505.06,-518.76 498.07,-518.29"/>
</g>
<!-- BB9&#45;&gt;BB3 -->
<g id="edge13" class="edge">
<title>BB9&#45;&gt;BB3</title>
<path fill="none" stroke="black" d="M451.78,-533.49C438.58,-521.21 424.04,-507.69 410.41,-495.02"/>
<polygon fill="black" stroke="black" points="412.65,-492.32 402.94,-488.08 407.88,-497.45 412.65,-492.32"/>
</g>
<!-- BB10 -->
<g id="node11" class="node">
<title>BB10</title>
<ellipse fill="none" stroke="black" cx="628.24" cy="-444.58" rx="103.48" ry="48.17"/>
<text text-anchor="middle" x="628.24" y="-463.38" font-family="Times New Roman,serif" font-size="14.00">[a7..b6)</text>
<text text-anchor="middle" x="628.24" y="-448.38" font-family="Times New Roman,serif" font-size="14.00">Count: 2</text>
<text text-anchor="middle" x="628.24" y="-433.38" font-family="Times New Roman,serif" font-size="14.00">Normalized count: 1.00</text>
<text text-anchor="middle" x="628.24" y="-418.38" font-family="Times New Roman,serif" font-size="14.00">Samples weight: 0.00</text>
</g>
<!-- BB9&#45;&gt;BB10 -->
<g id="edge14" class="edge">
<title>BB9&#45;&gt;BB10</title>
<path fill="none" stroke="black" d="M540.49,-532.77C552.46,-520.88 565.54,-507.88 577.87,-495.63"/>
<polygon fill="black" stroke="black" points="580.4,-498.05 585.03,-488.52 575.47,-493.09 580.4,-498.05"/>
</g>
<!-- BB11 -->
<g id="node12" class="node">
<title>BB11</title>
<ellipse fill="none" stroke="black" cx="628.24" cy="-312.42" rx="103.48" ry="48.17"/>
<text text-anchor="middle" x="628.24" y="-331.22" font-family="Times New Roman,serif" font-size="14.00">[b6..cc)</text>
<text text-anchor="middle" x="628.24" y="-316.22" font-family="Times New Roman,serif" font-size="14.00">Count: 0</text>
<text text-anchor="middle" x="628.24" y="-301.22" font-family="Times New Roman,serif" font-size="14.00">Normalized count: 0.00</text>
<text text-anchor="middle" x="628.24" y="-286.22" font-family="Times New Roman,serif" font-size="14.00">Samples weight: 0.00</text>
</g>
<!-- BB10&#45;&gt;BB11 -->
<g id="edge16" class="edge">
<title>BB10&#45;&gt;BB11</title>
<path fill="none" stroke="black" d="M628.24,-396.22C628.24,-387.95 628.24,-379.27 628.24,-370.77"/>
<polygon fill="black" stroke="black" points="631.74,-370.52 628.24,-360.52 624.74,-370.52 631.74,-370.52"/>
</g>
<!-- BB12 -->
<g id="node13" class="node">
<title>BB12</title>
<ellipse fill="none" stroke="black" cx="852.24" cy="-312.42" rx="103.48" ry="48.17"/>
<text text-anchor="middle" x="852.24" y="-331.22" font-family="Times New Roman,serif" font-size="14.00">[cc..ce)</text>
<text text-anchor="middle" x="852.24" y="-316.22" font-family="Times New Roman,serif" font-size="14.00">Count: 2</text>
<text text-anchor="middle" x="852.24" y="-301.22" font-family="Times New Roman,serif" font-size="14.00">Normalized count: 1.00</text>
<text text-anchor="middle" x="852.24" y="-286.22" font-family="Times New Roman,serif" font-size="14.00">Samples weight: 0.00</text>
</g>
<!-- BB10&#45;&gt;BB12 -->
<g id="edge15" class="edge">
<title>BB10&#45;&gt;BB12</title>
<path fill="none" stroke="black" d="M691.83,-406.63C719.26,-390.69 751.48,-371.97 779.83,-355.49"/>
<polygon fill="black" stroke="black" points="781.6,-358.51 788.49,-350.46 778.08,-352.46 781.6,-358.51"/>
</g>
<!-- BB11&#45;&gt;BB12 -->
<g id="edge17" class="edge">
<title>BB11&#45;&gt;BB12</title>
<path fill="none" stroke="black" d="M731.49,-312.42C733.94,-312.42 736.4,-312.42 738.85,-312.42"/>
<polygon fill="black" stroke="black" points="738.94,-315.92 748.94,-312.42 738.94,-308.92 738.94,-315.92"/>
</g>
</g>
</svg>
