<?xml version="1.0" encoding="UTF-8" standalone="no"?>
<!DOCTYPE svg PUBLIC "-//W3C//DTD SVG 1.1//EN"
 "http://www.w3.org/Graphics/SVG/1.1/DTD/svg11.dtd">
<!-- Generated by graphviz version 2.47.0 (20210316.0004)
 -->
<!-- Title: G Pages: 1 -->
<svg width="934pt" height="897pt"
 viewBox="0.00 0.00 934.48 897.17" xmlns="http://www.w3.org/2000/svg" xmlns:xlink="http://www.w3.org/1999/xlink">
<g id="graph0" class="graph" transform="scale(1 1) rotate(0) translate(4 893.17)">
<title>G</title>
<polygon fill="white" stroke="transparent" points="-4,4 -4,-893.17 930.48,-893.17 930.48,4 -4,4"/>
<!-- BB0 -->
<g id="node1" class="node">
<title>BB0</title>
<ellipse fill="none" stroke="black" cx="356.24" cy="-841.08" rx="103.48" ry="48.17"/>
<text text-anchor="middle" x="356.24" y="-859.88" font-family="Times New Roman,serif" font-size="14.00">[0..21)</text>
<text text-anchor="middle" x="356.24" y="-844.88" font-family="Times New Roman,serif" font-size="14.00">Count: 2</text>
<text text-anchor="middle" x="356.24" y="-829.88" font-family="Times New Roman,serif" font-size="14.00">Normalized count: 1.00</text>
<text text-anchor="middle" x="356.24" y="-814.88" font-family="Times New Roman,serif" font-size="14.00">Samples weight: 0.01</text>
</g>
<!-- BB1 -->
<g id="node2" class="node">
<title>BB1</title>
<ellipse fill="none" stroke="black" cx="244.24" cy="-708.92" rx="103.48" ry="48.17"/>
<text text-anchor="middle" x="244.24" y="-727.72" font-family="Times New Roman,serif" font-size="14.00">[21..37)</text>
<text text-anchor="middle" x="244.24" y="-712.72" font-family="Times New Roman,serif" font-size="14.00">Count: 0</text>
<text text-anchor="middle" x="244.24" y="-697.72" font-family="Times New Roman,serif" font-size="14.00">Normalized count: 0.00</text>
<text text-anchor="middle" x="244.24" y="-682.72" font-family="Times New Roman,serif" font-size="14.00">Samples weight: 0.00</text>
</g>
<!-- BB0&#45;&gt;BB1 -->
<g id="edge2" class="edge">
<title>BB0&#45;&gt;BB1</title>
<path fill="none" stroke="black" d="M318.32,-796.01C308.83,-784.99 298.57,-773.06 288.79,-761.7"/>
<polygon fill="black" stroke="black" points="291.29,-759.24 282.12,-753.94 285.99,-763.8 291.29,-759.24"/>
</g>
<!-- BB2 -->
<g id="node3" class="node">
<title>BB2</title>
<ellipse fill="none" stroke="black" cx="468.24" cy="-708.92" rx="103.48" ry="48.17"/>
<text text-anchor="middle" x="468.24" y="-727.72" font-family="Times New Roman,serif" font-size="14.00">[37..44)</text>
<text text-anchor="middle" x="468.24" y="-712.72" font-family="Times New Roman,serif" font-size="14.00">Count: 2</text>
<text text-anchor="middle" x="468.24" y="-697.72" font-family="Times New Roman,serif" font-size="14.00">Normalized count: 1.00</text>
<text text-anchor="middle" x="468.24" y="-682.72" font-family="Times New Roman,serif" font-size="14.00">Samples weight: 0.01</text>
</g>
<!-- BB0&#45;&gt;BB2 -->
<g id="edge1" class="edge">
<title>BB0&#45;&gt;BB2</title>
<path fill="none" stroke="black" d="M394.16,-796.01C403.64,-784.99 413.91,-773.06 423.68,-761.7"/>
<polygon fill="black" stroke="black" points="426.49,-763.8 430.36,-753.94 421.18,-759.24 426.49,-763.8"/>
</g>
<!-- BB1&#45;&gt;BB2 -->
<g id="edge3" class="edge">
<title>BB1&#45;&gt;BB2</title>
<path fill="none" stroke="black" d="M347.49,-708.92C349.94,-708.92 352.4,-708.92 354.85,-708.92"/>
<polygon fill="black" stroke="black" points="354.94,-712.42 364.94,-708.92 354.94,-705.42 354.94,-712.42"/>
</g>
<!-- BB9 -->
<g id="node10" class="node">
<title>BB9</title>
<ellipse fill="none" stroke="black" cx="468.24" cy="-576.75" rx="103.48" ry="48.17"/>
<text text-anchor="middle" x="468.24" y="-595.55" font-family="Times New Roman,serif" font-size="14.00">[a2..a7)</text>
<text text-anchor="middle" x="468.24" y="-580.55" font-family="Times New Roman,serif" font-size="14.00">Count: 3</text>
<text text-anchor="middle" x="468.24" y="-565.55" font-family="Times New Roman,serif" font-size="14.00">Normalized count: 1.50</text>
<text text-anchor="middle" x="468.24" y="-550.55" font-family="Times New Roman,serif" font-size="14.00">Samples weight: 0.01</text>
</g>
<!-- BB2&#45;&gt;BB9 -->
<g id="edge4" class="edge">
<title>BB2&#45;&gt;BB9</title>
<path fill="none" stroke="black" d="M468.24,-660.55C468.24,-652.29 468.24,-643.6 468.24,-635.1"/>
<polygon fill="black" stroke="black" points="471.74,-634.86 468.24,-624.86 464.74,-634.86 471.74,-634.86"/>
</g>
<!-- BB3 -->
<g id="node4" class="node">
<title>BB3</title>
<ellipse fill="none" stroke="black" cx="335.24" cy="-444.58" rx="103.48" ry="48.17"/>
<text text-anchor="middle" x="335.24" y="-463.38" font-family="Times New Roman,serif" font-size="14.00">[44..58)</text>
<text text-anchor="middle" x="335.24" y="-448.38" font-family="Times New Roman,serif" font-size="14.00">Count: 1</text>
<text text-anchor="middle" x="335.24" y="-433.38" font-family="Times New Roman,serif" font-size="14.00">Normalized count: 0.50</text>
<text text-anchor="middle" x="335.24" y="-418.38" font-family="Times New Roman,serif" font-size="14.00">Samples weight: 0.00</text>
</g>
<!-- BB5 -->
<g id="node6" class="node">
<title>BB5</title>
<ellipse fill="none" stroke="black" cx="332.24" cy="-312.42" rx="108.38" ry="48.17"/>
<text text-anchor="middle" x="332.24" y="-331.22" font-family="Times New Roman,serif" font-size="14.00">[71..77)</text>
<text text-anchor="middle" x="332.24" y="-316.22" font-family="Times New Roman,serif" font-size="14.00">Count: 143</text>
<text text-anchor="middle" x="332.24" y="-301.22" font-family="Times New Roman,serif" font-size="14.00">Normalized count: 71.50</text>
<text text-anchor="middle" x="332.24" y="-286.22" font-family="Times New Roman,serif" font-size="14.00">Samples weight: 0.48</text>
</g>
<!-- BB3&#45;&gt;BB5 -->
<g id="edge5" class="edge">
<title>BB3&#45;&gt;BB5</title>
<path fill="none" stroke="black" d="M334.15,-396.22C333.96,-387.95 333.76,-379.27 333.56,-370.77"/>
<polygon fill="black" stroke="black" points="337.05,-370.44 333.32,-360.52 330.05,-370.6 337.05,-370.44"/>
</g>
<!-- BB4 -->
<g id="node5" class="node">
<title>BB4</title>
<ellipse fill="none" stroke="black" cx="332.24" cy="-180.25" rx="108.38" ry="48.17"/>
<text text-anchor="middle" x="332.24" y="-199.05" font-family="Times New Roman,serif" font-size="14.00">[58..71)</text>
<text text-anchor="middle" x="332.24" y="-184.05" font-family="Times New Roman,serif" font-size="14.00">Count: 142</text>
<text text-anchor="middle" x="332.24" y="-169.05" font-family="Times New Roman,serif" font-size="14.00">Normalized count: 71.00</text>
<text text-anchor="middle" x="332.24" y="-154.05" font-family="Times New Roman,serif" font-size="14.00">Samples weight: 0.47</text>
</g>
<!-- BB4&#45;&gt;BB5 -->
<g id="edge6" class="edge">
<title>BB4&#45;&gt;BB5</title>
<path fill="none" stroke="black" d="M338.75,-228.36C338.97,-236.62 339.04,-245.3 338.95,-253.8"/>
<polygon fill="black" stroke="black" points="335.44,-253.99 338.76,-264.05 342.44,-254.12 335.44,-253.99"/>
</g>
<!-- BB5&#45;&gt;BB4 -->
<g id="edge7" class="edge">
<title>BB5&#45;&gt;BB4</title>
<path fill="none" stroke="black" d="M325.72,-264.05C325.5,-255.79 325.44,-247.1 325.53,-238.6"/>
<polygon fill="black" stroke="black" points="329.03,-238.42 325.72,-228.36 322.04,-238.29 329.03,-238.42"/>
</g>
<!-- BB6 -->
<g id="node7" class="node">
<title>BB6</title>
<ellipse fill="none" stroke="black" cx="103.24" cy="-180.25" rx="103.48" ry="48.17"/>
<text text-anchor="middle" x="103.24" y="-199.05" font-family="Times New Roman,serif" font-size="14.00">[77..7e)</text>
<text text-anchor="middle" x="103.24" y="-184.05" font-family="Times New Roman,serif" font-size="14.00">Count: 1</text>
<text text-anchor="middle" x="103.24" y="-169.05" font-family="Times New Roman,serif" font-size="14.00">Normalized count: 0.50</text>
<text text-anchor="middle" x="103.24" y="-154.05" font-family="Times New Roman,serif" font-size="14.00">Samples weight: 0.00</text>
</g>
<!-- BB5&#45;&gt;BB6 -->
<g id="edge8" class="edge">
<title>BB5&#45;&gt;BB6</title>
<path fill="none" stroke="black" d="M266.62,-274.12C238.47,-258.12 205.47,-239.36 176.53,-222.91"/>
<polygon fill="black" stroke="black" points="178.11,-219.78 167.68,-217.88 174.65,-225.87 178.11,-219.78"/>
</g>
<!-- BB7 -->
<g id="node8" class="node">
<title>BB7</title>
<ellipse fill="none" stroke="black" cx="103.24" cy="-48.08" rx="103.48" ry="48.17"/>
<text text-anchor="middle" x="103.24" y="-66.88" font-family="Times New Roman,serif" font-size="14.00">[7e..9c)</text>
<text text-anchor="middle" x="103.24" y="-51.88" font-family="Times New Roman,serif" font-size="14.00">Count: 0</text>
<text text-anchor="middle" x="103.24" y="-36.88" font-family="Times New Roman,serif" font-size="14.00">Normalized count: 0.00</text>
<text text-anchor="middle" x="103.24" y="-21.88" font-family="Times New Roman,serif" font-size="14.00">Samples weight: 0.00</text>
</g>
<!-- BB6&#45;&gt;BB7 -->
<g id="edge10" class="edge">
<title>BB6&#45;&gt;BB7</title>
<path fill="none" stroke="black" d="M103.24,-131.89C103.24,-123.62 103.24,-114.94 103.24,-106.43"/>
<polygon fill="black" stroke="black" points="106.74,-106.19 103.24,-96.19 99.74,-106.19 106.74,-106.19"/>
</g>
<!-- BB8 -->
<g id="node9" class="node">
<title>BB8</title>
<ellipse fill="none" stroke="black" cx="327.24" cy="-48.08" rx="103.48" ry="48.17"/>
<text text-anchor="middle" x="327.24" y="-66.88" font-family="Times New Roman,serif" font-size="14.00">[9c..a2)</text>
<text text-anchor="middle" x="327.24" y="-51.88" font-family="Times New Roman,serif" font-size="14.00">Count: 1</text>
<text text-anchor="middle" x="327.24" y="-36.88" font-family="Times New Roman,serif" font-size="14.00">Normalized count: 0.50</text>
<text text-anchor="middle" x="327.24" y="-21.88" font-family="Times New Roman,serif" font-size="14.00">Samples weight: 0.00</text>
</g>
<!-- BB6&#45;&gt;BB8 -->
<g id="edge9" class="edge">
<title>BB6&#45;&gt;BB8</title>
<path fill="none" stroke="black" d="M166.83,-142.3C194.26,-126.36 226.48,-107.63 254.83,-91.16"/>
<polygon fill="black" stroke="black" points="256.6,-94.18 263.49,-86.13 253.08,-88.13 256.6,-94.18"/>
</g>
<!-- BB7&#45;&gt;BB8 -->
<g id="edge11" class="edge">
<title>BB7&#45;&gt;BB8</title>
<path fill="none" stroke="black" d="M206.49,-48.08C208.94,-48.08 211.4,-48.08 213.85,-48.08"/>
<polygon fill="black" stroke="black" points="213.94,-51.58 223.94,-48.08 213.94,-44.58 213.94,-51.58"/>
</g>
<!-- BB8&#45;&gt;BB9 -->
<g id="edge12" class="edge">
<title>BB8&#45;&gt;BB9</title>
<path fill="none" stroke="black" d="M399.5,-82.53C419,-95.22 437.83,-111.68 449.24,-132.17 485.2,-196.78 477.93,-413.7 472.03,-518.34"/>
<polygon fill="black" stroke="black" points="468.53,-518.22 471.45,-528.41 475.52,-518.63 468.53,-518.22"/>
</g>
<!-- BB9&#45;&gt;BB3 -->
<g id="edge13" class="edge">
<title>BB9&#45;&gt;BB3</title>
<path fill="none" stroke="black" d="M424.69,-533.13C412.4,-521.1 398.93,-507.91 386.24,-495.5"/>
<polygon fill="black" stroke="black" points="388.48,-492.79 378.88,-488.3 383.58,-497.8 388.48,-492.79"/>
</g>
<!-- BB10 -->
<g id="node11" class="node">
<title>BB10</title>
<ellipse fill="none" stroke="black" cx="599.24" cy="-444.58" rx="103.48" ry="48.17"/>
<text text-anchor="middle" x="599.24" y="-463.38" font-family="Times New Roman,serif" font-size="14.00">[a7..b6)</text>
<text text-anchor="middle" x="599.24" y="-448.38" font-family="Times New Roman,serif" font-size="14.00">Count: 2</text>
<text text-anchor="middle" x="599.24" y="-433.38" font-family="Times New Roman,serif" font-size="14.00">Normalized count: 1.00</text>
<text text-anchor="middle" x="599.24" y="-418.38" font-family="Times New Roman,serif" font-size="14.00">Samples weight: 0.01</text>
</g>
<!-- BB9&#45;&gt;BB10 -->
<g id="edge14" class="edge">
<title>BB9&#45;&gt;BB10</title>
<path fill="none" stroke="black" d="M511.49,-532.77C523.46,-520.88 536.54,-507.88 548.87,-495.63"/>
<polygon fill="black" stroke="black" points="551.4,-498.05 556.03,-488.52 546.47,-493.09 551.4,-498.05"/>
</g>
<!-- BB11 -->
<g id="node12" class="node">
<title>BB11</title>
<ellipse fill="none" stroke="black" cx="599.24" cy="-312.42" rx="103.48" ry="48.17"/>
<text text-anchor="middle" x="599.24" y="-331.22" font-family="Times New Roman,serif" font-size="14.00">[b6..cc)</text>
<text text-anchor="middle" x="599.24" y="-316.22" font-family="Times New Roman,serif" font-size="14.00">Count: 0</text>
<text text-anchor="middle" x="599.24" y="-301.22" font-family="Times New Roman,serif" font-size="14.00">Normalized count: 0.00</text>
<text text-anchor="middle" x="599.24" y="-286.22" font-family="Times New Roman,serif" font-size="14.00">Samples weight: 0.00</text>
</g>
<!-- BB10&#45;&gt;BB11 -->
<g id="edge16" class="edge">
<title>BB10&#45;&gt;BB11</title>
<path fill="none" stroke="black" d="M599.24,-396.22C599.24,-387.95 599.24,-379.27 599.24,-370.77"/>
<polygon fill="black" stroke="black" points="602.74,-370.52 599.24,-360.52 595.74,-370.52 602.74,-370.52"/>
</g>
<!-- BB12 -->
<g id="node13" class="node">
<title>BB12</title>
<ellipse fill="none" stroke="black" cx="823.24" cy="-312.42" rx="103.48" ry="48.17"/>
<text text-anchor="middle" x="823.24" y="-331.22" font-family="Times New Roman,serif" font-size="14.00">[cc..ce)</text>
<text text-anchor="middle" x="823.24" y="-316.22" font-family="Times New Roman,serif" font-size="14.00">Count: 2</text>
<text text-anchor="middle" x="823.24" y="-301.22" font-family="Times New Roman,serif" font-size="14.00">Normalized count: 1.00</text>
<text text-anchor="middle" x="823.24" y="-286.22" font-family="Times New Roman,serif" font-size="14.00">Samples weight: 0.01</text>
</g>
<!-- BB10&#45;&gt;BB12 -->
<g id="edge15" class="edge">
<title>BB10&#45;&gt;BB12</title>
<path fill="none" stroke="black" d="M662.83,-406.63C690.26,-390.69 722.48,-371.97 750.83,-355.49"/>
<polygon fill="black" stroke="black" points="752.6,-358.51 759.49,-350.46 749.08,-352.46 752.6,-358.51"/>
</g>
<!-- BB11&#45;&gt;BB12 -->
<g id="edge17" class="edge">
<title>BB11&#45;&gt;BB12</title>
<path fill="none" stroke="black" d="M702.49,-312.42C704.94,-312.42 707.4,-312.42 709.85,-312.42"/>
<polygon fill="black" stroke="black" points="709.94,-315.92 719.94,-312.42 709.94,-308.92 709.94,-315.92"/>
</g>
</g>
</svg>
