<?xml version="1.0" encoding="UTF-8" standalone="no"?>
<!DOCTYPE svg PUBLIC "-//W3C//DTD SVG 1.1//EN"
 "http://www.w3.org/Graphics/SVG/1.1/DTD/svg11.dtd">
<!-- Generated by graphviz version 2.47.0 (20210316.0004)
 -->
<!-- Title: G Pages: 1 -->
<svg width="1527pt" height="1426pt"
 viewBox="0.00 0.00 1526.84 1425.83" xmlns="http://www.w3.org/2000/svg" xmlns:xlink="http://www.w3.org/1999/xlink">
<g id="graph0" class="graph" transform="scale(1 1) rotate(0) translate(4 1421.83)">
<title>G</title>
<polygon fill="white" stroke="transparent" points="-4,4 -4,-1421.83 1522.84,-1421.83 1522.84,4 -4,4"/>
<!-- BB0 -->
<g id="node1" class="node">
<title>BB0</title>
<ellipse fill="none" stroke="black" cx="143" cy="-1369.75" rx="104.8" ry="48.17"/>
<text text-anchor="middle" x="143" y="-1388.55" font-family="Times New Roman,serif" font-size="14.00">[0..18)</text>
<text text-anchor="middle" x="143" y="-1373.55" font-family="Times New Roman,serif" font-size="14.00">Count: 0</text>
<text text-anchor="middle" x="143" y="-1358.55" font-family="Times New Roman,serif" font-size="14.00">Normalized count: NaN</text>
<text text-anchor="middle" x="143" y="-1343.55" font-family="Times New Roman,serif" font-size="14.00">Samples weight: 0.00</text>
</g>
<!-- BB2 -->
<g id="node3" class="node">
<title>BB2</title>
<ellipse fill="none" stroke="black" cx="143" cy="-1237.58" rx="104.8" ry="48.17"/>
<text text-anchor="middle" x="143" y="-1256.38" font-family="Times New Roman,serif" font-size="14.00">[2b..39)</text>
<text text-anchor="middle" x="143" y="-1241.38" font-family="Times New Roman,serif" font-size="14.00">Count: 0</text>
<text text-anchor="middle" x="143" y="-1226.38" font-family="Times New Roman,serif" font-size="14.00">Normalized count: NaN</text>
<text text-anchor="middle" x="143" y="-1211.38" font-family="Times New Roman,serif" font-size="14.00">Samples weight: 0.00</text>
</g>
<!-- BB0&#45;&gt;BB2 -->
<g id="edge1" class="edge">
<title>BB0&#45;&gt;BB2</title>
<path fill="none" stroke="black" d="M143,-1321.39C143,-1313.12 143,-1304.44 143,-1295.93"/>
<polygon fill="black" stroke="black" points="146.5,-1295.69 143,-1285.69 139.5,-1295.69 146.5,-1295.69"/>
</g>
<!-- BB1 -->
<g id="node2" class="node">
<title>BB1</title>
<ellipse fill="none" stroke="black" cx="143" cy="-1105.42" rx="104.8" ry="48.17"/>
<text text-anchor="middle" x="143" y="-1124.22" font-family="Times New Roman,serif" font-size="14.00">[18..2b)</text>
<text text-anchor="middle" x="143" y="-1109.22" font-family="Times New Roman,serif" font-size="14.00">Count: 0</text>
<text text-anchor="middle" x="143" y="-1094.22" font-family="Times New Roman,serif" font-size="14.00">Normalized count: NaN</text>
<text text-anchor="middle" x="143" y="-1079.22" font-family="Times New Roman,serif" font-size="14.00">Samples weight: 0.00</text>
</g>
<!-- BB1&#45;&gt;BB2 -->
<g id="edge2" class="edge">
<title>BB1&#45;&gt;BB2</title>
<path fill="none" stroke="black" d="M149.52,-1153.78C149.74,-1162.07 149.8,-1170.78 149.71,-1179.31"/>
<polygon fill="black" stroke="black" points="146.2,-1179.52 149.51,-1189.59 153.2,-1179.66 146.2,-1179.52"/>
</g>
<!-- BB2&#45;&gt;BB1 -->
<g id="edge3" class="edge">
<title>BB2&#45;&gt;BB1</title>
<path fill="none" stroke="black" d="M136.49,-1189.59C136.26,-1181.21 136.2,-1172.41 136.29,-1163.78"/>
<polygon fill="black" stroke="black" points="139.79,-1163.84 136.48,-1153.78 132.79,-1163.71 139.79,-1163.84"/>
</g>
<!-- BB3 -->
<g id="node4" class="node">
<title>BB3</title>
<ellipse fill="none" stroke="black" cx="370" cy="-1105.42" rx="104.8" ry="48.17"/>
<text text-anchor="middle" x="370" y="-1124.22" font-family="Times New Roman,serif" font-size="14.00">[39..56)</text>
<text text-anchor="middle" x="370" y="-1109.22" font-family="Times New Roman,serif" font-size="14.00">Count: 0</text>
<text text-anchor="middle" x="370" y="-1094.22" font-family="Times New Roman,serif" font-size="14.00">Normalized count: NaN</text>
<text text-anchor="middle" x="370" y="-1079.22" font-family="Times New Roman,serif" font-size="14.00">Samples weight: 0.00</text>
</g>
<!-- BB2&#45;&gt;BB3 -->
<g id="edge4" class="edge">
<title>BB2&#45;&gt;BB3</title>
<path fill="none" stroke="black" d="M207.44,-1199.63C235.24,-1183.69 267.9,-1164.96 296.62,-1148.49"/>
<polygon fill="black" stroke="black" points="298.46,-1151.47 305.4,-1143.46 294.98,-1145.4 298.46,-1151.47"/>
</g>
<!-- BB4 -->
<g id="node5" class="node">
<title>BB4</title>
<ellipse fill="none" stroke="black" cx="252" cy="-973.25" rx="104.8" ry="48.17"/>
<text text-anchor="middle" x="252" y="-992.05" font-family="Times New Roman,serif" font-size="14.00">[56..6c)</text>
<text text-anchor="middle" x="252" y="-977.05" font-family="Times New Roman,serif" font-size="14.00">Count: 0</text>
<text text-anchor="middle" x="252" y="-962.05" font-family="Times New Roman,serif" font-size="14.00">Normalized count: NaN</text>
<text text-anchor="middle" x="252" y="-947.05" font-family="Times New Roman,serif" font-size="14.00">Samples weight: 0.00</text>
</g>
<!-- BB3&#45;&gt;BB4 -->
<g id="edge6" class="edge">
<title>BB3&#45;&gt;BB4</title>
<path fill="none" stroke="black" d="M330.38,-1060.71C320.16,-1049.44 309.08,-1037.21 298.54,-1025.59"/>
<polygon fill="black" stroke="black" points="301.03,-1023.12 291.72,-1018.06 295.84,-1027.82 301.03,-1023.12"/>
</g>
<!-- BB5 -->
<g id="node6" class="node">
<title>BB5</title>
<ellipse fill="none" stroke="black" cx="488" cy="-973.25" rx="113.69" ry="48.17"/>
<text text-anchor="middle" x="488" y="-992.05" font-family="Times New Roman,serif" font-size="14.00">[6c..7a)</text>
<text text-anchor="middle" x="488" y="-977.05" font-family="Times New Roman,serif" font-size="14.00">Count: 3</text>
<text text-anchor="middle" x="488" y="-962.05" font-family="Times New Roman,serif" font-size="14.00">Normalized count: Infinity</text>
<text text-anchor="middle" x="488" y="-947.05" font-family="Times New Roman,serif" font-size="14.00">Samples weight: 0.05</text>
</g>
<!-- BB3&#45;&gt;BB5 -->
<g id="edge5" class="edge">
<title>BB3&#45;&gt;BB5</title>
<path fill="none" stroke="black" d="M409.62,-1060.71C419.73,-1049.56 430.69,-1037.47 441.12,-1025.97"/>
<polygon fill="black" stroke="black" points="443.76,-1028.26 447.88,-1018.5 438.57,-1023.56 443.76,-1028.26"/>
</g>
<!-- BB4&#45;&gt;BB5 -->
<g id="edge7" class="edge">
<title>BB4&#45;&gt;BB5</title>
<path fill="none" stroke="black" d="M357.09,-973.25C359.38,-973.25 361.66,-973.25 363.95,-973.25"/>
<polygon fill="black" stroke="black" points="363.97,-976.75 373.97,-973.25 363.97,-969.75 363.97,-976.75"/>
</g>
<!-- BB6 -->
<g id="node7" class="node">
<title>BB6</title>
<ellipse fill="none" stroke="black" cx="488" cy="-841.08" rx="113.69" ry="48.17"/>
<text text-anchor="middle" x="488" y="-859.88" font-family="Times New Roman,serif" font-size="14.00">[7a..85)</text>
<text text-anchor="middle" x="488" y="-844.88" font-family="Times New Roman,serif" font-size="14.00">Count: 4</text>
<text text-anchor="middle" x="488" y="-829.88" font-family="Times New Roman,serif" font-size="14.00">Normalized count: Infinity</text>
<text text-anchor="middle" x="488" y="-814.88" font-family="Times New Roman,serif" font-size="14.00">Samples weight: 0.07</text>
</g>
<!-- BB5&#45;&gt;BB6 -->
<g id="edge8" class="edge">
<title>BB5&#45;&gt;BB6</title>
<path fill="none" stroke="black" d="M488,-924.89C488,-916.62 488,-907.94 488,-899.43"/>
<polygon fill="black" stroke="black" points="491.5,-899.19 488,-889.19 484.5,-899.19 491.5,-899.19"/>
</g>
<!-- BB7 -->
<g id="node8" class="node">
<title>BB7</title>
<ellipse fill="none" stroke="black" cx="365" cy="-708.92" rx="113.69" ry="48.17"/>
<text text-anchor="middle" x="365" y="-727.72" font-family="Times New Roman,serif" font-size="14.00">[85..8f)</text>
<text text-anchor="middle" x="365" y="-712.72" font-family="Times New Roman,serif" font-size="14.00">Count: 1</text>
<text text-anchor="middle" x="365" y="-697.72" font-family="Times New Roman,serif" font-size="14.00">Normalized count: Infinity</text>
<text text-anchor="middle" x="365" y="-682.72" font-family="Times New Roman,serif" font-size="14.00">Samples weight: 0.02</text>
</g>
<!-- BB6&#45;&gt;BB7 -->
<g id="edge10" class="edge">
<title>BB6&#45;&gt;BB7</title>
<path fill="none" stroke="black" d="M446.36,-796.01C435.84,-784.88 424.45,-772.83 413.62,-761.37"/>
<polygon fill="black" stroke="black" points="416.01,-758.8 406.6,-753.94 410.92,-763.61 416.01,-758.8"/>
</g>
<!-- BB12 -->
<g id="node13" class="node">
<title>BB12</title>
<ellipse fill="none" stroke="black" cx="621" cy="-708.92" rx="113.69" ry="48.17"/>
<text text-anchor="middle" x="621" y="-727.72" font-family="Times New Roman,serif" font-size="14.00">[b3..c0)</text>
<text text-anchor="middle" x="621" y="-712.72" font-family="Times New Roman,serif" font-size="14.00">Count: 5</text>
<text text-anchor="middle" x="621" y="-697.72" font-family="Times New Roman,serif" font-size="14.00">Normalized count: Infinity</text>
<text text-anchor="middle" x="621" y="-682.72" font-family="Times New Roman,serif" font-size="14.00">Samples weight: 0.09</text>
</g>
<!-- BB6&#45;&gt;BB12 -->
<g id="edge9" class="edge">
<title>BB6&#45;&gt;BB12</title>
<path fill="none" stroke="black" d="M532.29,-796.74C544.05,-785.22 556.86,-772.69 569,-760.81"/>
<polygon fill="black" stroke="black" points="571.75,-763.01 576.45,-753.51 566.86,-758.01 571.75,-763.01"/>
</g>
<!-- BB8 -->
<g id="node9" class="node">
<title>BB8</title>
<ellipse fill="none" stroke="black" cx="138" cy="-576.75" rx="104.8" ry="48.17"/>
<text text-anchor="middle" x="138" y="-595.55" font-family="Times New Roman,serif" font-size="14.00">[8f..a2)</text>
<text text-anchor="middle" x="138" y="-580.55" font-family="Times New Roman,serif" font-size="14.00">Count: 0</text>
<text text-anchor="middle" x="138" y="-565.55" font-family="Times New Roman,serif" font-size="14.00">Normalized count: NaN</text>
<text text-anchor="middle" x="138" y="-550.55" font-family="Times New Roman,serif" font-size="14.00">Samples weight: 0.00</text>
</g>
<!-- BB7&#45;&gt;BB8 -->
<g id="edge12" class="edge">
<title>BB7&#45;&gt;BB8</title>
<path fill="none" stroke="black" d="M298.43,-669.74C271.16,-654.1 239.5,-635.95 211.55,-619.93"/>
<polygon fill="black" stroke="black" points="213.03,-616.74 202.62,-614.8 209.55,-622.81 213.03,-616.74"/>
</g>
<!-- BB9 -->
<g id="node10" class="node">
<title>BB9</title>
<ellipse fill="none" stroke="black" cx="365" cy="-576.75" rx="104.8" ry="48.17"/>
<text text-anchor="middle" x="365" y="-595.55" font-family="Times New Roman,serif" font-size="14.00">[a2..a7)</text>
<text text-anchor="middle" x="365" y="-580.55" font-family="Times New Roman,serif" font-size="14.00">Count: 0</text>
<text text-anchor="middle" x="365" y="-565.55" font-family="Times New Roman,serif" font-size="14.00">Normalized count: NaN</text>
<text text-anchor="middle" x="365" y="-550.55" font-family="Times New Roman,serif" font-size="14.00">Samples weight: 0.00</text>
</g>
<!-- BB7&#45;&gt;BB9 -->
<g id="edge11" class="edge">
<title>BB7&#45;&gt;BB9</title>
<path fill="none" stroke="black" d="M365,-660.55C365,-652.29 365,-643.6 365,-635.1"/>
<polygon fill="black" stroke="black" points="368.5,-634.86 365,-624.86 361.5,-634.86 368.5,-634.86"/>
</g>
<!-- BB8&#45;&gt;BB9 -->
<g id="edge13" class="edge">
<title>BB8&#45;&gt;BB9</title>
<path fill="none" stroke="black" d="M243.08,-576.75C245.4,-576.75 247.72,-576.75 250.04,-576.75"/>
<polygon fill="black" stroke="black" points="250.22,-580.25 260.22,-576.75 250.22,-573.25 250.22,-580.25"/>
</g>
<!-- BB10 -->
<g id="node11" class="node">
<title>BB10</title>
<ellipse fill="none" stroke="black" cx="133" cy="-444.58" rx="104.8" ry="48.17"/>
<text text-anchor="middle" x="133" y="-463.38" font-family="Times New Roman,serif" font-size="14.00">[a7..ae)</text>
<text text-anchor="middle" x="133" y="-448.38" font-family="Times New Roman,serif" font-size="14.00">Count: 0</text>
<text text-anchor="middle" x="133" y="-433.38" font-family="Times New Roman,serif" font-size="14.00">Normalized count: NaN</text>
<text text-anchor="middle" x="133" y="-418.38" font-family="Times New Roman,serif" font-size="14.00">Samples weight: 0.00</text>
</g>
<!-- BB9&#45;&gt;BB10 -->
<g id="edge15" class="edge">
<title>BB9&#45;&gt;BB10</title>
<path fill="none" stroke="black" d="M299.76,-539.14C271.09,-523.06 237.28,-504.09 207.62,-487.45"/>
<polygon fill="black" stroke="black" points="208.99,-484.2 198.56,-482.36 205.56,-490.31 208.99,-484.2"/>
</g>
<!-- BB11 -->
<g id="node12" class="node">
<title>BB11</title>
<ellipse fill="none" stroke="black" cx="369" cy="-444.58" rx="113.69" ry="48.17"/>
<text text-anchor="middle" x="369" y="-463.38" font-family="Times New Roman,serif" font-size="14.00">[ae..b3)</text>
<text text-anchor="middle" x="369" y="-448.38" font-family="Times New Roman,serif" font-size="14.00">Count: 1</text>
<text text-anchor="middle" x="369" y="-433.38" font-family="Times New Roman,serif" font-size="14.00">Normalized count: Infinity</text>
<text text-anchor="middle" x="369" y="-418.38" font-family="Times New Roman,serif" font-size="14.00">Samples weight: 0.02</text>
</g>
<!-- BB9&#45;&gt;BB11 -->
<g id="edge14" class="edge">
<title>BB9&#45;&gt;BB11</title>
<path fill="none" stroke="black" d="M366.46,-528.39C366.71,-520.12 366.98,-511.44 367.24,-502.93"/>
<polygon fill="black" stroke="black" points="370.74,-502.79 367.55,-492.69 363.75,-502.58 370.74,-502.79"/>
</g>
<!-- BB10&#45;&gt;BB11 -->
<g id="edge17" class="edge">
<title>BB10&#45;&gt;BB11</title>
<path fill="none" stroke="black" d="M238.09,-444.58C240.38,-444.58 242.66,-444.58 244.95,-444.58"/>
<polygon fill="black" stroke="black" points="244.97,-448.08 254.97,-444.58 244.97,-441.08 244.97,-448.08"/>
</g>
<!-- BB25 -->
<g id="node26" class="node">
<title>BB25</title>
<ellipse fill="none" stroke="black" cx="326" cy="-312.42" rx="104.8" ry="48.17"/>
<text text-anchor="middle" x="326" y="-331.22" font-family="Times New Roman,serif" font-size="14.00">[160..165)</text>
<text text-anchor="middle" x="326" y="-316.22" font-family="Times New Roman,serif" font-size="14.00">Count: 0</text>
<text text-anchor="middle" x="326" y="-301.22" font-family="Times New Roman,serif" font-size="14.00">Normalized count: NaN</text>
<text text-anchor="middle" x="326" y="-286.22" font-family="Times New Roman,serif" font-size="14.00">Samples weight: 0.00</text>
</g>
<!-- BB10&#45;&gt;BB25 -->
<g id="edge16" class="edge">
<title>BB10&#45;&gt;BB25</title>
<path fill="none" stroke="black" d="M190.91,-404.53C212.47,-389.99 237.11,-373.37 259.39,-358.34"/>
<polygon fill="black" stroke="black" points="261.47,-361.16 267.8,-352.67 257.55,-355.36 261.47,-361.16"/>
</g>
<!-- BB11&#45;&gt;BB12 -->
<g id="edge18" class="edge">
<title>BB11&#45;&gt;BB12</title>
<path fill="none" stroke="black" d="M432.76,-484.52C449.46,-497.02 466.32,-512 479,-528.67 506.82,-565.25 489.68,-587.88 517,-624.83 526.84,-638.14 539.32,-650.51 552.18,-661.42"/>
<polygon fill="black" stroke="black" points="550.27,-664.38 560.22,-668.02 554.71,-658.97 550.27,-664.38"/>
</g>
<!-- BB13 -->
<g id="node14" class="node">
<title>BB13</title>
<ellipse fill="none" stroke="black" cx="631" cy="-576.75" rx="104.8" ry="48.17"/>
<text text-anchor="middle" x="631" y="-595.55" font-family="Times New Roman,serif" font-size="14.00">[c0..ca)</text>
<text text-anchor="middle" x="631" y="-580.55" font-family="Times New Roman,serif" font-size="14.00">Count: 0</text>
<text text-anchor="middle" x="631" y="-565.55" font-family="Times New Roman,serif" font-size="14.00">Normalized count: NaN</text>
<text text-anchor="middle" x="631" y="-550.55" font-family="Times New Roman,serif" font-size="14.00">Samples weight: 0.00</text>
</g>
<!-- BB12&#45;&gt;BB13 -->
<g id="edge20" class="edge">
<title>BB12&#45;&gt;BB13</title>
<path fill="none" stroke="black" d="M624.64,-660.55C625.27,-652.29 625.94,-643.6 626.59,-635.1"/>
<polygon fill="black" stroke="black" points="630.1,-635.1 627.38,-624.86 623.13,-634.56 630.1,-635.1"/>
</g>
<!-- BB18 -->
<g id="node19" class="node">
<title>BB18</title>
<ellipse fill="none" stroke="black" cx="1031" cy="-576.75" rx="113.69" ry="48.17"/>
<text text-anchor="middle" x="1031" y="-595.55" font-family="Times New Roman,serif" font-size="14.00">[f4..116)</text>
<text text-anchor="middle" x="1031" y="-580.55" font-family="Times New Roman,serif" font-size="14.00">Count: 37</text>
<text text-anchor="middle" x="1031" y="-565.55" font-family="Times New Roman,serif" font-size="14.00">Normalized count: Infinity</text>
<text text-anchor="middle" x="1031" y="-550.55" font-family="Times New Roman,serif" font-size="14.00">Samples weight: 0.66</text>
</g>
<!-- BB12&#45;&gt;BB18 -->
<g id="edge19" class="edge">
<title>BB12&#45;&gt;BB18</title>
<path fill="none" stroke="black" d="M710.98,-679.35C776.02,-658.7 863.9,-630.8 931.12,-609.46"/>
<polygon fill="black" stroke="black" points="932.41,-612.72 940.88,-606.36 930.29,-606.05 932.41,-612.72"/>
</g>
<!-- BB14 -->
<g id="node15" class="node">
<title>BB14</title>
<ellipse fill="none" stroke="black" cx="605" cy="-444.58" rx="104.8" ry="48.17"/>
<text text-anchor="middle" x="605" y="-463.38" font-family="Times New Roman,serif" font-size="14.00">[ca..e4)</text>
<text text-anchor="middle" x="605" y="-448.38" font-family="Times New Roman,serif" font-size="14.00">Count: 0</text>
<text text-anchor="middle" x="605" y="-433.38" font-family="Times New Roman,serif" font-size="14.00">Normalized count: NaN</text>
<text text-anchor="middle" x="605" y="-418.38" font-family="Times New Roman,serif" font-size="14.00">Samples weight: 0.00</text>
</g>
<!-- BB13&#45;&gt;BB14 -->
<g id="edge22" class="edge">
<title>BB13&#45;&gt;BB14</title>
<path fill="none" stroke="black" d="M621.61,-528.76C619.9,-520.18 618.1,-511.16 616.34,-502.34"/>
<polygon fill="black" stroke="black" points="619.76,-501.63 614.37,-492.51 612.9,-503 619.76,-501.63"/>
</g>
<!-- BB15 -->
<g id="node16" class="node">
<title>BB15</title>
<ellipse fill="none" stroke="black" cx="832" cy="-444.58" rx="104.8" ry="48.17"/>
<text text-anchor="middle" x="832" y="-463.38" font-family="Times New Roman,serif" font-size="14.00">[e4..e9)</text>
<text text-anchor="middle" x="832" y="-448.38" font-family="Times New Roman,serif" font-size="14.00">Count: 0</text>
<text text-anchor="middle" x="832" y="-433.38" font-family="Times New Roman,serif" font-size="14.00">Normalized count: NaN</text>
<text text-anchor="middle" x="832" y="-418.38" font-family="Times New Roman,serif" font-size="14.00">Samples weight: 0.00</text>
</g>
<!-- BB13&#45;&gt;BB15 -->
<g id="edge21" class="edge">
<title>BB13&#45;&gt;BB15</title>
<path fill="none" stroke="black" d="M690.76,-537.05C713.75,-522.16 740.15,-505.06 763.86,-489.71"/>
<polygon fill="black" stroke="black" points="765.98,-492.51 772.47,-484.14 762.17,-486.63 765.98,-492.51"/>
</g>
<!-- BB14&#45;&gt;BB15 -->
<g id="edge23" class="edge">
<title>BB14&#45;&gt;BB15</title>
<path fill="none" stroke="black" d="M710.08,-444.58C712.4,-444.58 714.72,-444.58 717.04,-444.58"/>
<polygon fill="black" stroke="black" points="717.22,-448.08 727.22,-444.58 717.22,-441.08 717.22,-448.08"/>
</g>
<!-- BB16 -->
<g id="node17" class="node">
<title>BB16</title>
<ellipse fill="none" stroke="black" cx="660" cy="-312.42" rx="104.8" ry="48.17"/>
<text text-anchor="middle" x="660" y="-331.22" font-family="Times New Roman,serif" font-size="14.00">[e9..ed)</text>
<text text-anchor="middle" x="660" y="-316.22" font-family="Times New Roman,serif" font-size="14.00">Count: 0</text>
<text text-anchor="middle" x="660" y="-301.22" font-family="Times New Roman,serif" font-size="14.00">Normalized count: NaN</text>
<text text-anchor="middle" x="660" y="-286.22" font-family="Times New Roman,serif" font-size="14.00">Samples weight: 0.00</text>
</g>
<!-- BB15&#45;&gt;BB16 -->
<g id="edge25" class="edge">
<title>BB15&#45;&gt;BB16</title>
<path fill="none" stroke="black" d="M778.52,-403.11C760.48,-389.46 740.2,-374.11 721.59,-360.02"/>
<polygon fill="black" stroke="black" points="723.53,-357.11 713.45,-353.86 719.31,-362.69 723.53,-357.11"/>
</g>
<!-- BB17 -->
<g id="node18" class="node">
<title>BB17</title>
<ellipse fill="none" stroke="black" cx="887" cy="-312.42" rx="104.8" ry="48.17"/>
<text text-anchor="middle" x="887" y="-331.22" font-family="Times New Roman,serif" font-size="14.00">[ed..f4)</text>
<text text-anchor="middle" x="887" y="-316.22" font-family="Times New Roman,serif" font-size="14.00">Count: 0</text>
<text text-anchor="middle" x="887" y="-301.22" font-family="Times New Roman,serif" font-size="14.00">Normalized count: NaN</text>
<text text-anchor="middle" x="887" y="-286.22" font-family="Times New Roman,serif" font-size="14.00">Samples weight: 0.00</text>
</g>
<!-- BB15&#45;&gt;BB17 -->
<g id="edge24" class="edge">
<title>BB15&#45;&gt;BB17</title>
<path fill="none" stroke="black" d="M851.55,-397.32C855.39,-388.23 859.46,-378.59 863.42,-369.22"/>
<polygon fill="black" stroke="black" points="866.66,-370.54 867.33,-359.96 860.22,-367.81 866.66,-370.54"/>
</g>
<!-- BB16&#45;&gt;BB17 -->
<g id="edge27" class="edge">
<title>BB16&#45;&gt;BB17</title>
<path fill="none" stroke="black" d="M765.08,-312.42C767.4,-312.42 769.72,-312.42 772.04,-312.42"/>
<polygon fill="black" stroke="black" points="772.22,-315.92 782.22,-312.42 772.22,-308.92 772.22,-315.92"/>
</g>
<!-- BB16&#45;&gt;BB25 -->
<g id="edge26" class="edge">
<title>BB16&#45;&gt;BB25</title>
<path fill="none" stroke="black" d="M555.2,-312.42C517.11,-312.42 479.01,-312.42 440.91,-312.42"/>
<polygon fill="black" stroke="black" points="440.7,-308.92 430.7,-312.42 440.7,-315.92 440.7,-308.92"/>
</g>
<!-- BB17&#45;&gt;BB18 -->
<g id="edge28" class="edge">
<title>BB17&#45;&gt;BB18</title>
<path fill="none" stroke="black" d="M921.52,-357.84C930.13,-370 938.92,-383.44 946,-396.5 967.91,-436.9 964.19,-451.2 984,-492.67 988.44,-501.96 993.49,-511.64 998.6,-520.96"/>
<polygon fill="black" stroke="black" points="995.58,-522.73 1003.49,-529.77 1001.7,-519.33 995.58,-522.73"/>
</g>
<!-- BB19 -->
<g id="node20" class="node">
<title>BB19</title>
<ellipse fill="none" stroke="black" cx="1098" cy="-444.58" rx="104.8" ry="48.17"/>
<text text-anchor="middle" x="1098" y="-463.38" font-family="Times New Roman,serif" font-size="14.00">[116..129)</text>
<text text-anchor="middle" x="1098" y="-448.38" font-family="Times New Roman,serif" font-size="14.00">Count: 0</text>
<text text-anchor="middle" x="1098" y="-433.38" font-family="Times New Roman,serif" font-size="14.00">Normalized count: NaN</text>
<text text-anchor="middle" x="1098" y="-418.38" font-family="Times New Roman,serif" font-size="14.00">Samples weight: 0.00</text>
</g>
<!-- BB18&#45;&gt;BB19 -->
<g id="edge30" class="edge">
<title>BB18&#45;&gt;BB19</title>
<path fill="none" stroke="black" d="M1054.81,-529.49C1059.6,-520.19 1064.68,-510.32 1069.6,-500.75"/>
<polygon fill="black" stroke="black" points="1072.8,-502.19 1074.27,-491.69 1066.58,-498.98 1072.8,-502.19"/>
</g>
<!-- BB20 -->
<g id="node21" class="node">
<title>BB20</title>
<ellipse fill="none" stroke="black" cx="1334" cy="-444.58" rx="113.69" ry="48.17"/>
<text text-anchor="middle" x="1334" y="-463.38" font-family="Times New Roman,serif" font-size="14.00">[129..133)</text>
<text text-anchor="middle" x="1334" y="-448.38" font-family="Times New Roman,serif" font-size="14.00">Count: 4</text>
<text text-anchor="middle" x="1334" y="-433.38" font-family="Times New Roman,serif" font-size="14.00">Normalized count: Infinity</text>
<text text-anchor="middle" x="1334" y="-418.38" font-family="Times New Roman,serif" font-size="14.00">Samples weight: 0.07</text>
</g>
<!-- BB18&#45;&gt;BB20 -->
<g id="edge29" class="edge">
<title>BB18&#45;&gt;BB20</title>
<path fill="none" stroke="black" d="M1109.82,-541.89C1151.56,-523.96 1202.94,-501.88 1245.98,-483.4"/>
<polygon fill="black" stroke="black" points="1247.51,-486.55 1255.31,-479.39 1244.74,-480.12 1247.51,-486.55"/>
</g>
<!-- BB19&#45;&gt;BB20 -->
<g id="edge31" class="edge">
<title>BB19&#45;&gt;BB20</title>
<path fill="none" stroke="black" d="M1203.09,-444.58C1205.38,-444.58 1207.66,-444.58 1209.95,-444.58"/>
<polygon fill="black" stroke="black" points="1209.97,-448.08 1219.97,-444.58 1209.97,-441.08 1209.97,-448.08"/>
</g>
<!-- BB21 -->
<g id="node22" class="node">
<title>BB21</title>
<ellipse fill="none" stroke="black" cx="1169" cy="-312.42" rx="104.8" ry="48.17"/>
<text text-anchor="middle" x="1169" y="-331.22" font-family="Times New Roman,serif" font-size="14.00">[133..14d)</text>
<text text-anchor="middle" x="1169" y="-316.22" font-family="Times New Roman,serif" font-size="14.00">Count: 0</text>
<text text-anchor="middle" x="1169" y="-301.22" font-family="Times New Roman,serif" font-size="14.00">Normalized count: NaN</text>
<text text-anchor="middle" x="1169" y="-286.22" font-family="Times New Roman,serif" font-size="14.00">Samples weight: 0.00</text>
</g>
<!-- BB20&#45;&gt;BB21 -->
<g id="edge33" class="edge">
<title>BB20&#45;&gt;BB21</title>
<path fill="none" stroke="black" d="M1280.88,-401.68C1264.37,-388.65 1246.05,-374.2 1229.09,-360.82"/>
<polygon fill="black" stroke="black" points="1230.91,-357.8 1220.89,-354.35 1226.57,-363.29 1230.91,-357.8"/>
</g>
<!-- BB22 -->
<g id="node23" class="node">
<title>BB22</title>
<ellipse fill="none" stroke="black" cx="1405" cy="-312.42" rx="113.69" ry="48.17"/>
<text text-anchor="middle" x="1405" y="-331.22" font-family="Times New Roman,serif" font-size="14.00">[14d..154)</text>
<text text-anchor="middle" x="1405" y="-316.22" font-family="Times New Roman,serif" font-size="14.00">Count: 1</text>
<text text-anchor="middle" x="1405" y="-301.22" font-family="Times New Roman,serif" font-size="14.00">Normalized count: Infinity</text>
<text text-anchor="middle" x="1405" y="-286.22" font-family="Times New Roman,serif" font-size="14.00">Samples weight: 0.02</text>
</g>
<!-- BB20&#45;&gt;BB22 -->
<g id="edge32" class="edge">
<title>BB20&#45;&gt;BB22</title>
<path fill="none" stroke="black" d="M1359.23,-397.32C1364.31,-388.02 1369.69,-378.16 1374.91,-368.58"/>
<polygon fill="black" stroke="black" points="1378.13,-369.98 1379.85,-359.53 1371.99,-366.63 1378.13,-369.98"/>
</g>
<!-- BB21&#45;&gt;BB22 -->
<g id="edge34" class="edge">
<title>BB21&#45;&gt;BB22</title>
<path fill="none" stroke="black" d="M1274.09,-312.42C1276.38,-312.42 1278.66,-312.42 1280.95,-312.42"/>
<polygon fill="black" stroke="black" points="1280.97,-315.92 1290.97,-312.42 1280.97,-308.92 1280.97,-315.92"/>
</g>
<!-- BB22&#45;&gt;BB6 -->
<g id="edge35" class="edge">
<title>BB22&#45;&gt;BB6</title>
<path fill="none" stroke="black" d="M1437.83,-358.87C1461.05,-397.09 1483.71,-451.87 1457,-492.67 1271.36,-776.17 829.12,-830.3 612.24,-839.3"/>
<polygon fill="black" stroke="black" points="611.94,-835.81 602.08,-839.7 612.21,-842.81 611.94,-835.81"/>
</g>
<!-- BB23 -->
<g id="node24" class="node">
<title>BB23</title>
<ellipse fill="none" stroke="black" cx="728" cy="-180.25" rx="104.8" ry="48.17"/>
<text text-anchor="middle" x="728" y="-199.05" font-family="Times New Roman,serif" font-size="14.00">[154..158)</text>
<text text-anchor="middle" x="728" y="-184.05" font-family="Times New Roman,serif" font-size="14.00">Count: 0</text>
<text text-anchor="middle" x="728" y="-169.05" font-family="Times New Roman,serif" font-size="14.00">Normalized count: NaN</text>
<text text-anchor="middle" x="728" y="-154.05" font-family="Times New Roman,serif" font-size="14.00">Samples weight: 0.00</text>
</g>
<!-- BB22&#45;&gt;BB23 -->
<g id="edge36" class="edge">
<title>BB22&#45;&gt;BB23</title>
<path fill="none" stroke="black" d="M1325.44,-277.84C1311.47,-272.77 1296.94,-268.02 1283,-264.33 1132.59,-224.57 953.89,-202.09 840.7,-190.8"/>
<polygon fill="black" stroke="black" points="840.93,-187.3 830.64,-189.81 840.25,-194.27 840.93,-187.3"/>
</g>
<!-- BB24 -->
<g id="node25" class="node">
<title>BB24</title>
<ellipse fill="none" stroke="black" cx="141" cy="-48.08" rx="104.8" ry="48.17"/>
<text text-anchor="middle" x="141" y="-66.88" font-family="Times New Roman,serif" font-size="14.00">[158..160)</text>
<text text-anchor="middle" x="141" y="-51.88" font-family="Times New Roman,serif" font-size="14.00">Count: 0</text>
<text text-anchor="middle" x="141" y="-36.88" font-family="Times New Roman,serif" font-size="14.00">Normalized count: NaN</text>
<text text-anchor="middle" x="141" y="-21.88" font-family="Times New Roman,serif" font-size="14.00">Samples weight: 0.00</text>
</g>
<!-- BB23&#45;&gt;BB24 -->
<g id="edge38" class="edge">
<title>BB23&#45;&gt;BB24</title>
<path fill="none" stroke="black" d="M654.38,-145.84C641.43,-140.75 627.95,-135.95 615,-132.17 493.4,-96.65 349.55,-74.06 252.47,-61.54"/>
<polygon fill="black" stroke="black" points="252.71,-58.04 242.35,-60.25 251.82,-64.99 252.71,-58.04"/>
</g>
<!-- BB23&#45;&gt;BB25 -->
<g id="edge37" class="edge">
<title>BB23&#45;&gt;BB25</title>
<path fill="none" stroke="black" d="M653.1,-213.87C640.47,-218.96 627.43,-223.97 615,-228.33 553.19,-250.01 482.55,-270.4 426.58,-285.55"/>
<polygon fill="black" stroke="black" points="425.41,-282.24 416.66,-288.22 427.23,-289 425.41,-282.24"/>
</g>
<!-- BB24&#45;&gt;BB6 -->
<g id="edge39" class="edge">
<title>BB24&#45;&gt;BB6</title>
<path fill="none" stroke="black" d="M100.22,-92.62C58.57,-141.78 0,-226.1 0,-311.42 0,-577.75 0,-577.75 0,-577.75 0,-744.13 222.79,-805.44 367.3,-827.7"/>
<polygon fill="black" stroke="black" points="367.16,-831.22 377.57,-829.24 368.2,-824.3 367.16,-831.22"/>
</g>
<!-- BB24&#45;&gt;BB25 -->
<g id="edge40" class="edge">
<title>BB24&#45;&gt;BB25</title>
<path fill="none" stroke="black" d="M134.29,-96.38C131.34,-135.21 133.35,-189.88 160,-228.33 176.59,-252.26 202.14,-269.65 228.27,-282.13"/>
<polygon fill="black" stroke="black" points="226.97,-285.39 237.52,-286.35 229.87,-279.02 226.97,-285.39"/>
</g>
<!-- BB26 -->
<g id="node27" class="node">
<title>BB26</title>
<ellipse fill="none" stroke="black" cx="274" cy="-180.25" rx="104.8" ry="48.17"/>
<text text-anchor="middle" x="274" y="-199.05" font-family="Times New Roman,serif" font-size="14.00">[165..171)</text>
<text text-anchor="middle" x="274" y="-184.05" font-family="Times New Roman,serif" font-size="14.00">Count: 0</text>
<text text-anchor="middle" x="274" y="-169.05" font-family="Times New Roman,serif" font-size="14.00">Normalized count: NaN</text>
<text text-anchor="middle" x="274" y="-154.05" font-family="Times New Roman,serif" font-size="14.00">Samples weight: 0.00</text>
</g>
<!-- BB25&#45;&gt;BB26 -->
<g id="edge42" class="edge">
<title>BB25&#45;&gt;BB26</title>
<path fill="none" stroke="black" d="M307.37,-264.79C303.83,-255.91 300.08,-246.53 296.43,-237.39"/>
<polygon fill="black" stroke="black" points="299.63,-235.98 292.67,-227.99 293.13,-238.57 299.63,-235.98"/>
</g>
<!-- BB27 -->
<g id="node28" class="node">
<title>BB27</title>
<ellipse fill="none" stroke="black" cx="501" cy="-180.25" rx="104.8" ry="48.17"/>
<text text-anchor="middle" x="501" y="-199.05" font-family="Times New Roman,serif" font-size="14.00">[171..172)</text>
<text text-anchor="middle" x="501" y="-184.05" font-family="Times New Roman,serif" font-size="14.00">Count: 0</text>
<text text-anchor="middle" x="501" y="-169.05" font-family="Times New Roman,serif" font-size="14.00">Normalized count: NaN</text>
<text text-anchor="middle" x="501" y="-154.05" font-family="Times New Roman,serif" font-size="14.00">Samples weight: 0.00</text>
</g>
<!-- BB25&#45;&gt;BB27 -->
<g id="edge41" class="edge">
<title>BB25&#45;&gt;BB27</title>
<path fill="none" stroke="black" d="M380.41,-270.94C398.94,-257.17 419.78,-241.66 438.86,-227.47"/>
<polygon fill="black" stroke="black" points="440.99,-230.25 446.92,-221.47 436.81,-224.63 440.99,-230.25"/>
</g>
<!-- BB26&#45;&gt;BB27 -->
<g id="edge43" class="edge">
<title>BB26&#45;&gt;BB27</title>
<path fill="none" stroke="black" d="M379.08,-180.25C381.4,-180.25 383.72,-180.25 386.04,-180.25"/>
<polygon fill="black" stroke="black" points="386.22,-183.75 396.22,-180.25 386.22,-176.75 386.22,-183.75"/>
</g>
</g>
</svg>
