<?xml version="1.0" encoding="UTF-8" standalone="no"?>
<!DOCTYPE svg PUBLIC "-//W3C//DTD SVG 1.1//EN"
 "http://www.w3.org/Graphics/SVG/1.1/DTD/svg11.dtd">
<!-- Generated by graphviz version 2.47.0 (20210316.0004)
 -->
<!-- Title: G Pages: 1 -->
<svg width="866pt" height="1303pt"
 viewBox="0.00 0.00 865.74 1303.44" xmlns="http://www.w3.org/2000/svg" xmlns:xlink="http://www.w3.org/1999/xlink">
<g id="graph0" class="graph" transform="scale(1 1) rotate(0) translate(4 1299.44)">
<title>G</title>
<polygon fill="white" stroke="transparent" points="-4,4 -4,-1299.44 861.74,-1299.44 861.74,4 -4,4"/>
<!-- BB0 -->
<g id="node1" class="node">
<title>BB0</title>
<ellipse fill="none" stroke="black" cx="312.97" cy="-1257.96" rx="106.55" ry="37.45"/>
<text text-anchor="middle" x="312.97" y="-1269.26" font-family="Times New Roman,serif" font-size="14.00">[0..a)</text>
<text text-anchor="middle" x="312.97" y="-1254.26" font-family="Times New Roman,serif" font-size="14.00">Normalized Count: NaN</text>
<text text-anchor="middle" x="312.97" y="-1239.26" font-family="Times New Roman,serif" font-size="14.00">Samples weight: 0.00</text>
</g>
<!-- BB1 -->
<g id="node2" class="node">
<title>BB1</title>
<ellipse fill="none" stroke="black" cx="312.97" cy="-1147.01" rx="115.93" ry="37.45"/>
<text text-anchor="middle" x="312.97" y="-1158.31" font-family="Times New Roman,serif" font-size="14.00">[a..12)</text>
<text text-anchor="middle" x="312.97" y="-1143.31" font-family="Times New Roman,serif" font-size="14.00">Normalized Count: Infinity</text>
<text text-anchor="middle" x="312.97" y="-1128.31" font-family="Times New Roman,serif" font-size="14.00">Samples weight: 0.04</text>
</g>
<!-- BB0&#45;&gt;BB1 -->
<g id="edge1" class="edge">
<title>BB0&#45;&gt;BB1</title>
<path fill="none" stroke="black" d="M312.97,-1220.38C312.97,-1212.21 312.97,-1203.43 312.97,-1194.9"/>
<polygon fill="black" stroke="black" points="316.47,-1194.68 312.97,-1184.68 309.47,-1194.68 316.47,-1194.68"/>
</g>
<!-- BB3 -->
<g id="node4" class="node">
<title>BB3</title>
<ellipse fill="none" stroke="black" cx="240.97" cy="-1036.06" rx="115.93" ry="37.45"/>
<text text-anchor="middle" x="240.97" y="-1047.36" font-family="Times New Roman,serif" font-size="14.00">[16..1e)</text>
<text text-anchor="middle" x="240.97" y="-1032.36" font-family="Times New Roman,serif" font-size="14.00">Normalized Count: Infinity</text>
<text text-anchor="middle" x="240.97" y="-1017.36" font-family="Times New Roman,serif" font-size="14.00">Samples weight: 0.02</text>
</g>
<!-- BB1&#45;&gt;BB3 -->
<g id="edge2" class="edge">
<title>BB1&#45;&gt;BB3</title>
<path fill="none" stroke="black" d="M289.19,-1110.03C283.17,-1100.92 276.63,-1091.03 270.37,-1081.55"/>
<polygon fill="black" stroke="black" points="273.15,-1079.41 264.72,-1073 267.31,-1083.27 273.15,-1079.41"/>
</g>
<!-- BB2 -->
<g id="node3" class="node">
<title>BB2</title>
<ellipse fill="none" stroke="black" cx="115.97" cy="-925.1" rx="115.93" ry="37.45"/>
<text text-anchor="middle" x="115.97" y="-936.4" font-family="Times New Roman,serif" font-size="14.00">[12..16)</text>
<text text-anchor="middle" x="115.97" y="-921.4" font-family="Times New Roman,serif" font-size="14.00">Normalized Count: Infinity</text>
<text text-anchor="middle" x="115.97" y="-906.4" font-family="Times New Roman,serif" font-size="14.00">Samples weight: 0.01</text>
</g>
<!-- BB2&#45;&gt;BB3 -->
<g id="edge3" class="edge">
<title>BB2&#45;&gt;BB3</title>
<path fill="none" stroke="black" d="M161.15,-960C173.71,-970.52 187.26,-982.25 199.58,-993.25"/>
<polygon fill="black" stroke="black" points="197.3,-995.9 207.08,-999.98 201.98,-990.7 197.3,-995.9"/>
</g>
<!-- BB3&#45;&gt;BB2 -->
<g id="edge4" class="edge">
<title>BB3&#45;&gt;BB2</title>
<path fill="none" stroke="black" d="M196.15,-1001.48C183.54,-990.92 169.91,-979.12 157.5,-968.05"/>
<polygon fill="black" stroke="black" points="159.73,-965.35 149.95,-961.27 155.05,-970.55 159.73,-965.35"/>
</g>
<!-- BB4 -->
<g id="node5" class="node">
<title>BB4</title>
<ellipse fill="none" stroke="black" cx="365.97" cy="-925.1" rx="115.93" ry="37.45"/>
<text text-anchor="middle" x="365.97" y="-936.4" font-family="Times New Roman,serif" font-size="14.00">[1e..2b)</text>
<text text-anchor="middle" x="365.97" y="-921.4" font-family="Times New Roman,serif" font-size="14.00">Normalized Count: Infinity</text>
<text text-anchor="middle" x="365.97" y="-906.4" font-family="Times New Roman,serif" font-size="14.00">Samples weight: 0.09</text>
</g>
<!-- BB3&#45;&gt;BB4 -->
<g id="edge5" class="edge">
<title>BB3&#45;&gt;BB4</title>
<path fill="none" stroke="black" d="M280.52,-1000.58C292.6,-990.05 306.01,-978.36 318.56,-967.42"/>
<polygon fill="black" stroke="black" points="321,-969.94 326.24,-960.73 316.4,-964.66 321,-969.94"/>
</g>
<!-- BB5 -->
<g id="node6" class="node">
<title>BB5</title>
<ellipse fill="none" stroke="black" cx="268.97" cy="-814.15" rx="115.93" ry="37.45"/>
<text text-anchor="middle" x="268.97" y="-825.45" font-family="Times New Roman,serif" font-size="14.00">[2b..5f)</text>
<text text-anchor="middle" x="268.97" y="-810.45" font-family="Times New Roman,serif" font-size="14.00">Normalized Count: Infinity</text>
<text text-anchor="middle" x="268.97" y="-795.45" font-family="Times New Roman,serif" font-size="14.00">Samples weight: 0.07</text>
</g>
<!-- BB4&#45;&gt;BB5 -->
<g id="edge7" class="edge">
<title>BB4&#45;&gt;BB5</title>
<path fill="none" stroke="black" d="M334.47,-888.73C325.74,-878.93 316.17,-868.18 307.11,-858"/>
<polygon fill="black" stroke="black" points="309.56,-855.49 300.3,-850.35 304.34,-860.14 309.56,-855.49"/>
</g>
<!-- BB6 -->
<g id="node7" class="node">
<title>BB6</title>
<ellipse fill="none" stroke="black" cx="509.97" cy="-814.15" rx="106.55" ry="37.45"/>
<text text-anchor="middle" x="509.97" y="-825.45" font-family="Times New Roman,serif" font-size="14.00">[5f..68)</text>
<text text-anchor="middle" x="509.97" y="-810.45" font-family="Times New Roman,serif" font-size="14.00">Normalized Count: NaN</text>
<text text-anchor="middle" x="509.97" y="-795.45" font-family="Times New Roman,serif" font-size="14.00">Samples weight: 0.00</text>
</g>
<!-- BB4&#45;&gt;BB6 -->
<g id="edge6" class="edge">
<title>BB4&#45;&gt;BB6</title>
<path fill="none" stroke="black" d="M410.74,-890.23C425.51,-879.05 442.07,-866.52 457.37,-854.95"/>
<polygon fill="black" stroke="black" points="459.85,-857.46 465.71,-848.63 455.63,-851.87 459.85,-857.46"/>
</g>
<!-- BB5&#45;&gt;BB6 -->
<g id="edge8" class="edge">
<title>BB5&#45;&gt;BB6</title>
<path fill="none" stroke="black" d="M385.23,-814.15C387.7,-814.15 390.16,-814.15 392.63,-814.15"/>
<polygon fill="black" stroke="black" points="392.77,-817.65 402.77,-814.15 392.77,-810.65 392.77,-817.65"/>
</g>
<!-- BB6&#45;&gt;BB1 -->
<g id="edge9" class="edge">
<title>BB6&#45;&gt;BB1</title>
<path fill="none" stroke="black" d="M511.54,-851.8C511.44,-882.79 507.83,-927.59 490.97,-962.58 462.78,-1021.04 408.7,-1072.57 367.52,-1106.01"/>
<polygon fill="black" stroke="black" points="365.09,-1103.47 359.47,-1112.45 369.46,-1108.94 365.09,-1103.47"/>
</g>
<!-- BB7 -->
<g id="node8" class="node">
<title>BB7</title>
<ellipse fill="none" stroke="black" cx="509.97" cy="-703.2" rx="106.55" ry="37.45"/>
<text text-anchor="middle" x="509.97" y="-714.5" font-family="Times New Roman,serif" font-size="14.00">[68..6f)</text>
<text text-anchor="middle" x="509.97" y="-699.5" font-family="Times New Roman,serif" font-size="14.00">Normalized Count: NaN</text>
<text text-anchor="middle" x="509.97" y="-684.5" font-family="Times New Roman,serif" font-size="14.00">Samples weight: 0.00</text>
</g>
<!-- BB6&#45;&gt;BB7 -->
<g id="edge10" class="edge">
<title>BB6&#45;&gt;BB7</title>
<path fill="none" stroke="black" d="M509.97,-776.57C509.97,-768.39 509.97,-759.61 509.97,-751.09"/>
<polygon fill="black" stroke="black" points="513.47,-750.87 509.97,-740.87 506.47,-750.87 513.47,-750.87"/>
</g>
<!-- BB13 -->
<g id="node14" class="node">
<title>BB13</title>
<ellipse fill="none" stroke="black" cx="509.97" cy="-592.24" rx="115.93" ry="37.45"/>
<text text-anchor="middle" x="509.97" y="-603.54" font-family="Times New Roman,serif" font-size="14.00">[f6..fd)</text>
<text text-anchor="middle" x="509.97" y="-588.54" font-family="Times New Roman,serif" font-size="14.00">Normalized Count: Infinity</text>
<text text-anchor="middle" x="509.97" y="-573.54" font-family="Times New Roman,serif" font-size="14.00">Samples weight: 0.01</text>
</g>
<!-- BB7&#45;&gt;BB13 -->
<g id="edge11" class="edge">
<title>BB7&#45;&gt;BB13</title>
<path fill="none" stroke="black" d="M509.97,-665.61C509.97,-657.44 509.97,-648.66 509.97,-640.13"/>
<polygon fill="black" stroke="black" points="513.47,-639.92 509.97,-629.92 506.47,-639.92 513.47,-639.92"/>
</g>
<!-- BB8 -->
<g id="node9" class="node">
<title>BB8</title>
<ellipse fill="none" stroke="black" cx="509.97" cy="-481.29" rx="115.93" ry="37.45"/>
<text text-anchor="middle" x="509.97" y="-492.59" font-family="Times New Roman,serif" font-size="14.00">[6f..7a)</text>
<text text-anchor="middle" x="509.97" y="-477.59" font-family="Times New Roman,serif" font-size="14.00">Normalized Count: Infinity</text>
<text text-anchor="middle" x="509.97" y="-462.59" font-family="Times New Roman,serif" font-size="14.00">Samples weight: 0.01</text>
</g>
<!-- BB9 -->
<g id="node10" class="node">
<title>BB9</title>
<ellipse fill="none" stroke="black" cx="509.97" cy="-370.34" rx="115.93" ry="37.45"/>
<text text-anchor="middle" x="509.97" y="-381.64" font-family="Times New Roman,serif" font-size="14.00">[7a..9c)</text>
<text text-anchor="middle" x="509.97" y="-366.64" font-family="Times New Roman,serif" font-size="14.00">Normalized Count: Infinity</text>
<text text-anchor="middle" x="509.97" y="-351.64" font-family="Times New Roman,serif" font-size="14.00">Samples weight: 0.15</text>
</g>
<!-- BB8&#45;&gt;BB9 -->
<g id="edge12" class="edge">
<title>BB8&#45;&gt;BB9</title>
<path fill="none" stroke="black" d="M509.97,-443.71C509.97,-435.53 509.97,-426.75 509.97,-418.23"/>
<polygon fill="black" stroke="black" points="513.47,-418.01 509.97,-408.01 506.47,-418.01 513.47,-418.01"/>
</g>
<!-- BB10 -->
<g id="node11" class="node">
<title>BB10</title>
<ellipse fill="none" stroke="black" cx="509.97" cy="-259.38" rx="115.93" ry="37.45"/>
<text text-anchor="middle" x="509.97" y="-270.68" font-family="Times New Roman,serif" font-size="14.00">[9c..eb)</text>
<text text-anchor="middle" x="509.97" y="-255.68" font-family="Times New Roman,serif" font-size="14.00">Normalized Count: Infinity</text>
<text text-anchor="middle" x="509.97" y="-240.68" font-family="Times New Roman,serif" font-size="14.00">Samples weight: 0.58</text>
</g>
<!-- BB9&#45;&gt;BB10 -->
<g id="edge13" class="edge">
<title>BB9&#45;&gt;BB10</title>
<path fill="none" stroke="black" d="M509.97,-332.75C509.97,-324.58 509.97,-315.8 509.97,-307.27"/>
<polygon fill="black" stroke="black" points="513.47,-307.06 509.97,-297.06 506.47,-307.06 513.47,-307.06"/>
</g>
<!-- BB10&#45;&gt;BB10 -->
<g id="edge14" class="edge">
<title>BB10&#45;&gt;BB10</title>
<path fill="none" stroke="black" d="M608.4,-279.31C629.05,-277.25 643.93,-270.61 643.93,-259.38 643.93,-250.09 633.73,-243.93 618.49,-240.92"/>
<polygon fill="black" stroke="black" points="618.8,-237.43 608.4,-239.45 617.79,-244.36 618.8,-237.43"/>
</g>
<!-- BB11 -->
<g id="node12" class="node">
<title>BB11</title>
<ellipse fill="none" stroke="black" cx="509.97" cy="-148.43" rx="115.93" ry="37.45"/>
<text text-anchor="middle" x="509.97" y="-159.73" font-family="Times New Roman,serif" font-size="14.00">[eb..f3)</text>
<text text-anchor="middle" x="509.97" y="-144.73" font-family="Times New Roman,serif" font-size="14.00">Normalized Count: Infinity</text>
<text text-anchor="middle" x="509.97" y="-129.73" font-family="Times New Roman,serif" font-size="14.00">Samples weight: 0.03</text>
</g>
<!-- BB10&#45;&gt;BB11 -->
<g id="edge15" class="edge">
<title>BB10&#45;&gt;BB11</title>
<path fill="none" stroke="black" d="M509.97,-221.8C509.97,-213.63 509.97,-204.85 509.97,-196.32"/>
<polygon fill="black" stroke="black" points="513.47,-196.1 509.97,-186.1 506.47,-196.1 513.47,-196.1"/>
</g>
<!-- BB11&#45;&gt;BB9 -->
<g id="edge16" class="edge">
<title>BB11&#45;&gt;BB9</title>
<path fill="none" stroke="black" d="M595.08,-174.05C617.81,-184.93 639.71,-200.33 652.97,-221.91 670.4,-250.29 670.4,-268.47 652.97,-296.86 641.47,-315.58 623.47,-329.64 604.07,-340.14"/>
<polygon fill="black" stroke="black" points="602.41,-337.06 595.08,-344.72 605.58,-343.3 602.41,-337.06"/>
</g>
<!-- BB12 -->
<g id="node13" class="node">
<title>BB12</title>
<ellipse fill="none" stroke="black" cx="437.97" cy="-37.48" rx="106.55" ry="37.45"/>
<text text-anchor="middle" x="437.97" y="-48.78" font-family="Times New Roman,serif" font-size="14.00">[f3..f6)</text>
<text text-anchor="middle" x="437.97" y="-33.78" font-family="Times New Roman,serif" font-size="14.00">Normalized Count: NaN</text>
<text text-anchor="middle" x="437.97" y="-18.78" font-family="Times New Roman,serif" font-size="14.00">Samples weight: 0.00</text>
</g>
<!-- BB11&#45;&gt;BB12 -->
<g id="edge17" class="edge">
<title>BB11&#45;&gt;BB12</title>
<path fill="none" stroke="black" d="M486.19,-111.45C480.11,-102.25 473.49,-92.24 467.17,-82.67"/>
<polygon fill="black" stroke="black" points="469.9,-80.46 461.47,-74.04 464.06,-84.32 469.9,-80.46"/>
</g>
<!-- BB12&#45;&gt;BB13 -->
<g id="edge18" class="edge">
<title>BB12&#45;&gt;BB13</title>
<path fill="none" stroke="black" d="M406.85,-73.57C398.44,-84.81 390.22,-97.78 384.97,-110.95 360.47,-172.31 365.97,-192.32 365.97,-258.38 365.97,-371.34 365.97,-371.34 365.97,-371.34 365.97,-437.4 348.39,-463.75 384.97,-518.77 395.61,-534.78 411.08,-547.7 427.54,-557.94"/>
<polygon fill="black" stroke="black" points="425.83,-560.99 436.22,-563.06 429.38,-554.96 425.83,-560.99"/>
</g>
<!-- BB13&#45;&gt;BB8 -->
<g id="edge19" class="edge">
<title>BB13&#45;&gt;BB8</title>
<path fill="none" stroke="black" d="M509.97,-554.66C509.97,-546.49 509.97,-537.71 509.97,-529.18"/>
<polygon fill="black" stroke="black" points="513.47,-528.96 509.97,-518.96 506.47,-528.96 513.47,-528.96"/>
</g>
<!-- BB14 -->
<g id="node15" class="node">
<title>BB14</title>
<ellipse fill="none" stroke="black" cx="750.97" cy="-481.29" rx="106.55" ry="37.45"/>
<text text-anchor="middle" x="750.97" y="-492.59" font-family="Times New Roman,serif" font-size="14.00">[fd..fe)</text>
<text text-anchor="middle" x="750.97" y="-477.59" font-family="Times New Roman,serif" font-size="14.00">Normalized Count: NaN</text>
<text text-anchor="middle" x="750.97" y="-462.59" font-family="Times New Roman,serif" font-size="14.00">Samples weight: 0.00</text>
</g>
<!-- BB13&#45;&gt;BB14 -->
<g id="edge20" class="edge">
<title>BB13&#45;&gt;BB14</title>
<path fill="none" stroke="black" d="M576.14,-561.33C607.46,-547.16 644.99,-530.2 677.22,-515.63"/>
<polygon fill="black" stroke="black" points="678.93,-518.7 686.61,-511.39 676.05,-512.32 678.93,-518.7"/>
</g>
</g>
</svg>
