<?xml version="1.0" encoding="UTF-8" standalone="no"?>
<!DOCTYPE svg PUBLIC "-//W3C//DTD SVG 1.1//EN"
 "http://www.w3.org/Graphics/SVG/1.1/DTD/svg11.dtd">
<!-- Generated by graphviz version 2.47.0 (20210316.0004)
 -->
<!-- Title: G Pages: 1 -->
<svg width="1382pt" height="1426pt"
 viewBox="0.00 0.00 1382.42 1425.83" xmlns="http://www.w3.org/2000/svg" xmlns:xlink="http://www.w3.org/1999/xlink">
<g id="graph0" class="graph" transform="scale(1 1) rotate(0) translate(4 1421.83)">
<title>G</title>
<polygon fill="white" stroke="transparent" points="-4,4 -4,-1421.83 1378.42,-1421.83 1378.42,4 -4,4"/>
<!-- BB0 -->
<g id="node1" class="node">
<title>BB0</title>
<ellipse fill="none" stroke="black" cx="130.19" cy="-1369.75" rx="103.48" ry="48.17"/>
<text text-anchor="middle" x="130.19" y="-1388.55" font-family="Times New Roman,serif" font-size="14.00">[0..1f)</text>
<text text-anchor="middle" x="130.19" y="-1373.55" font-family="Times New Roman,serif" font-size="14.00">Count: 2</text>
<text text-anchor="middle" x="130.19" y="-1358.55" font-family="Times New Roman,serif" font-size="14.00">Normalized count: 1.00</text>
<text text-anchor="middle" x="130.19" y="-1343.55" font-family="Times New Roman,serif" font-size="14.00">Samples weight: 0.02</text>
</g>
<!-- BB1 -->
<g id="node2" class="node">
<title>BB1</title>
<ellipse fill="none" stroke="black" cx="130.19" cy="-1237.58" rx="103.48" ry="48.17"/>
<text text-anchor="middle" x="130.19" y="-1256.38" font-family="Times New Roman,serif" font-size="14.00">[1f..48)</text>
<text text-anchor="middle" x="130.19" y="-1241.38" font-family="Times New Roman,serif" font-size="14.00">Count: 2</text>
<text text-anchor="middle" x="130.19" y="-1226.38" font-family="Times New Roman,serif" font-size="14.00">Normalized count: 1.00</text>
<text text-anchor="middle" x="130.19" y="-1211.38" font-family="Times New Roman,serif" font-size="14.00">Samples weight: 0.02</text>
</g>
<!-- BB0&#45;&gt;BB1 -->
<g id="edge1" class="edge">
<title>BB0&#45;&gt;BB1</title>
<path fill="none" stroke="black" d="M130.19,-1321.39C130.19,-1313.12 130.19,-1304.44 130.19,-1295.93"/>
<polygon fill="black" stroke="black" points="133.69,-1295.69 130.19,-1285.69 126.69,-1295.69 133.69,-1295.69"/>
</g>
<!-- BB1&#45;&gt;BB1 -->
<g id="edge2" class="edge">
<title>BB1&#45;&gt;BB1</title>
<path fill="none" stroke="black" d="M220.07,-1261.39C238.34,-1258.79 251.42,-1250.86 251.42,-1237.58 251.42,-1226.9 242.95,-1219.67 230.12,-1215.91"/>
<polygon fill="black" stroke="black" points="230.58,-1212.43 220.07,-1213.78 229.13,-1219.27 230.58,-1212.43"/>
</g>
<!-- BB2 -->
<g id="node3" class="node">
<title>BB2</title>
<ellipse fill="none" stroke="black" cx="130.19" cy="-1105.42" rx="103.48" ry="48.17"/>
<text text-anchor="middle" x="130.19" y="-1124.22" font-family="Times New Roman,serif" font-size="14.00">[48..6b)</text>
<text text-anchor="middle" x="130.19" y="-1109.22" font-family="Times New Roman,serif" font-size="14.00">Count: 2</text>
<text text-anchor="middle" x="130.19" y="-1094.22" font-family="Times New Roman,serif" font-size="14.00">Normalized count: 1.00</text>
<text text-anchor="middle" x="130.19" y="-1079.22" font-family="Times New Roman,serif" font-size="14.00">Samples weight: 0.02</text>
</g>
<!-- BB1&#45;&gt;BB2 -->
<g id="edge3" class="edge">
<title>BB1&#45;&gt;BB2</title>
<path fill="none" stroke="black" d="M130.19,-1189.22C130.19,-1180.95 130.19,-1172.27 130.19,-1163.77"/>
<polygon fill="black" stroke="black" points="133.69,-1163.52 130.19,-1153.52 126.69,-1163.52 133.69,-1163.52"/>
</g>
<!-- BB4 -->
<g id="node5" class="node">
<title>BB4</title>
<ellipse fill="none" stroke="black" cx="130.19" cy="-973.25" rx="103.48" ry="48.17"/>
<text text-anchor="middle" x="130.19" y="-992.05" font-family="Times New Roman,serif" font-size="14.00">[8c..94)</text>
<text text-anchor="middle" x="130.19" y="-977.05" font-family="Times New Roman,serif" font-size="14.00">Count: 2</text>
<text text-anchor="middle" x="130.19" y="-962.05" font-family="Times New Roman,serif" font-size="14.00">Normalized count: 1.00</text>
<text text-anchor="middle" x="130.19" y="-947.05" font-family="Times New Roman,serif" font-size="14.00">Samples weight: 0.02</text>
</g>
<!-- BB2&#45;&gt;BB4 -->
<g id="edge4" class="edge">
<title>BB2&#45;&gt;BB4</title>
<path fill="none" stroke="black" d="M130.19,-1057.05C130.19,-1048.79 130.19,-1040.1 130.19,-1031.6"/>
<polygon fill="black" stroke="black" points="133.69,-1031.36 130.19,-1021.36 126.69,-1031.36 133.69,-1031.36"/>
</g>
<!-- BB3 -->
<g id="node4" class="node">
<title>BB3</title>
<ellipse fill="none" stroke="black" cx="130.19" cy="-841.08" rx="103.48" ry="48.17"/>
<text text-anchor="middle" x="130.19" y="-859.88" font-family="Times New Roman,serif" font-size="14.00">[6b..8c)</text>
<text text-anchor="middle" x="130.19" y="-844.88" font-family="Times New Roman,serif" font-size="14.00">Count: 0</text>
<text text-anchor="middle" x="130.19" y="-829.88" font-family="Times New Roman,serif" font-size="14.00">Normalized count: 0.00</text>
<text text-anchor="middle" x="130.19" y="-814.88" font-family="Times New Roman,serif" font-size="14.00">Samples weight: 0.00</text>
</g>
<!-- BB3&#45;&gt;BB4 -->
<g id="edge5" class="edge">
<title>BB3&#45;&gt;BB4</title>
<path fill="none" stroke="black" d="M136.71,-889.44C136.93,-897.74 136.99,-906.45 136.89,-914.98"/>
<polygon fill="black" stroke="black" points="133.39,-915.19 136.7,-925.26 140.39,-915.32 133.39,-915.19"/>
</g>
<!-- BB4&#45;&gt;BB3 -->
<g id="edge6" class="edge">
<title>BB4&#45;&gt;BB3</title>
<path fill="none" stroke="black" d="M123.67,-925.26C123.45,-916.88 123.38,-908.07 123.48,-899.45"/>
<polygon fill="black" stroke="black" points="126.98,-899.51 123.66,-889.44 119.98,-899.38 126.98,-899.51"/>
</g>
<!-- BB5 -->
<g id="node6" class="node">
<title>BB5</title>
<ellipse fill="none" stroke="black" cx="354.19" cy="-841.08" rx="103.48" ry="48.17"/>
<text text-anchor="middle" x="354.19" y="-859.88" font-family="Times New Roman,serif" font-size="14.00">[94..ab)</text>
<text text-anchor="middle" x="354.19" y="-844.88" font-family="Times New Roman,serif" font-size="14.00">Count: 2</text>
<text text-anchor="middle" x="354.19" y="-829.88" font-family="Times New Roman,serif" font-size="14.00">Normalized count: 1.00</text>
<text text-anchor="middle" x="354.19" y="-814.88" font-family="Times New Roman,serif" font-size="14.00">Samples weight: 0.02</text>
</g>
<!-- BB4&#45;&gt;BB5 -->
<g id="edge7" class="edge">
<title>BB4&#45;&gt;BB5</title>
<path fill="none" stroke="black" d="M193.78,-935.3C221.21,-919.36 253.43,-900.63 281.78,-884.16"/>
<polygon fill="black" stroke="black" points="283.55,-887.18 290.44,-879.13 280.03,-881.13 283.55,-887.18"/>
</g>
<!-- BB6 -->
<g id="node7" class="node">
<title>BB6</title>
<ellipse fill="none" stroke="black" cx="241.19" cy="-708.92" rx="103.48" ry="48.17"/>
<text text-anchor="middle" x="241.19" y="-727.72" font-family="Times New Roman,serif" font-size="14.00">[ab..c0)</text>
<text text-anchor="middle" x="241.19" y="-712.72" font-family="Times New Roman,serif" font-size="14.00">Count: 2</text>
<text text-anchor="middle" x="241.19" y="-697.72" font-family="Times New Roman,serif" font-size="14.00">Normalized count: 1.00</text>
<text text-anchor="middle" x="241.19" y="-682.72" font-family="Times New Roman,serif" font-size="14.00">Samples weight: 0.02</text>
</g>
<!-- BB5&#45;&gt;BB6 -->
<g id="edge9" class="edge">
<title>BB5&#45;&gt;BB6</title>
<path fill="none" stroke="black" d="M315.93,-796.01C306.36,-784.99 296,-773.06 286.14,-761.7"/>
<polygon fill="black" stroke="black" points="288.6,-759.2 279.4,-753.94 283.32,-763.78 288.6,-759.2"/>
</g>
<!-- BB10 -->
<g id="node11" class="node">
<title>BB10</title>
<ellipse fill="none" stroke="black" cx="466.19" cy="-708.92" rx="103.48" ry="48.17"/>
<text text-anchor="middle" x="466.19" y="-727.72" font-family="Times New Roman,serif" font-size="14.00">[ec..10f)</text>
<text text-anchor="middle" x="466.19" y="-712.72" font-family="Times New Roman,serif" font-size="14.00">Count: 0</text>
<text text-anchor="middle" x="466.19" y="-697.72" font-family="Times New Roman,serif" font-size="14.00">Normalized count: 0.00</text>
<text text-anchor="middle" x="466.19" y="-682.72" font-family="Times New Roman,serif" font-size="14.00">Samples weight: 0.00</text>
</g>
<!-- BB5&#45;&gt;BB10 -->
<g id="edge8" class="edge">
<title>BB5&#45;&gt;BB10</title>
<path fill="none" stroke="black" d="M392.11,-796.01C401.59,-784.99 411.86,-773.06 421.63,-761.7"/>
<polygon fill="black" stroke="black" points="424.44,-763.8 428.31,-753.94 419.13,-759.24 424.44,-763.8"/>
</g>
<!-- BB8 -->
<g id="node9" class="node">
<title>BB8</title>
<ellipse fill="none" stroke="black" cx="239.19" cy="-576.75" rx="108.38" ry="48.17"/>
<text text-anchor="middle" x="239.19" y="-595.55" font-family="Times New Roman,serif" font-size="14.00">[cf..d6)</text>
<text text-anchor="middle" x="239.19" y="-580.55" font-family="Times New Roman,serif" font-size="14.00">Count: 50</text>
<text text-anchor="middle" x="239.19" y="-565.55" font-family="Times New Roman,serif" font-size="14.00">Normalized count: 25.00</text>
<text text-anchor="middle" x="239.19" y="-550.55" font-family="Times New Roman,serif" font-size="14.00">Samples weight: 0.45</text>
</g>
<!-- BB6&#45;&gt;BB8 -->
<g id="edge10" class="edge">
<title>BB6&#45;&gt;BB8</title>
<path fill="none" stroke="black" d="M240.46,-660.55C240.33,-652.29 240.2,-643.6 240.07,-635.1"/>
<polygon fill="black" stroke="black" points="243.56,-634.8 239.91,-624.86 236.57,-634.91 243.56,-634.8"/>
</g>
<!-- BB7 -->
<g id="node8" class="node">
<title>BB7</title>
<ellipse fill="none" stroke="black" cx="108.19" cy="-444.58" rx="108.38" ry="48.17"/>
<text text-anchor="middle" x="108.19" y="-463.38" font-family="Times New Roman,serif" font-size="14.00">[c0..cf)</text>
<text text-anchor="middle" x="108.19" y="-448.38" font-family="Times New Roman,serif" font-size="14.00">Count: 48</text>
<text text-anchor="middle" x="108.19" y="-433.38" font-family="Times New Roman,serif" font-size="14.00">Normalized count: 24.00</text>
<text text-anchor="middle" x="108.19" y="-418.38" font-family="Times New Roman,serif" font-size="14.00">Samples weight: 0.43</text>
</g>
<!-- BB7&#45;&gt;BB8 -->
<g id="edge11" class="edge">
<title>BB7&#45;&gt;BB8</title>
<path fill="none" stroke="black" d="M157.09,-487.84C169.18,-499.46 182.08,-512.19 193.99,-524.26"/>
<polygon fill="black" stroke="black" points="191.76,-526.99 201.26,-531.68 196.76,-522.09 191.76,-526.99"/>
</g>
<!-- BB8&#45;&gt;BB7 -->
<g id="edge12" class="edge">
<title>BB8&#45;&gt;BB7</title>
<path fill="none" stroke="black" d="M190.29,-533.49C178.25,-521.93 165.43,-509.27 153.57,-497.26"/>
<polygon fill="black" stroke="black" points="155.83,-494.56 146.32,-489.87 150.83,-499.46 155.83,-494.56"/>
</g>
<!-- BB9 -->
<g id="node10" class="node">
<title>BB9</title>
<ellipse fill="none" stroke="black" cx="337.19" cy="-444.58" rx="103.48" ry="48.17"/>
<text text-anchor="middle" x="337.19" y="-463.38" font-family="Times New Roman,serif" font-size="14.00">[d6..ec)</text>
<text text-anchor="middle" x="337.19" y="-448.38" font-family="Times New Roman,serif" font-size="14.00">Count: 2</text>
<text text-anchor="middle" x="337.19" y="-433.38" font-family="Times New Roman,serif" font-size="14.00">Normalized count: 1.00</text>
<text text-anchor="middle" x="337.19" y="-418.38" font-family="Times New Roman,serif" font-size="14.00">Samples weight: 0.02</text>
</g>
<!-- BB8&#45;&gt;BB9 -->
<g id="edge13" class="edge">
<title>BB8&#45;&gt;BB9</title>
<path fill="none" stroke="black" d="M272.91,-530.95C280.77,-520.52 289.2,-509.32 297.29,-498.57"/>
<polygon fill="black" stroke="black" points="300.18,-500.56 303.4,-490.46 294.59,-496.35 300.18,-500.56"/>
</g>
<!-- BB15 -->
<g id="node16" class="node">
<title>BB15</title>
<ellipse fill="none" stroke="black" cx="533.19" cy="-576.75" rx="103.48" ry="48.17"/>
<text text-anchor="middle" x="533.19" y="-595.55" font-family="Times New Roman,serif" font-size="14.00">[150..158)</text>
<text text-anchor="middle" x="533.19" y="-580.55" font-family="Times New Roman,serif" font-size="14.00">Count: 0</text>
<text text-anchor="middle" x="533.19" y="-565.55" font-family="Times New Roman,serif" font-size="14.00">Normalized count: 0.00</text>
<text text-anchor="middle" x="533.19" y="-550.55" font-family="Times New Roman,serif" font-size="14.00">Samples weight: 0.00</text>
</g>
<!-- BB10&#45;&gt;BB15 -->
<g id="edge14" class="edge">
<title>BB10&#45;&gt;BB15</title>
<path fill="none" stroke="black" d="M489.81,-662.02C494.71,-652.5 499.93,-642.37 504.98,-632.56"/>
<polygon fill="black" stroke="black" points="508.09,-634.16 509.55,-623.67 501.86,-630.95 508.09,-634.16"/>
</g>
<!-- BB11 -->
<g id="node12" class="node">
<title>BB11</title>
<ellipse fill="none" stroke="black" cx="599.19" cy="-444.58" rx="103.48" ry="48.17"/>
<text text-anchor="middle" x="599.19" y="-463.38" font-family="Times New Roman,serif" font-size="14.00">[10f..132)</text>
<text text-anchor="middle" x="599.19" y="-448.38" font-family="Times New Roman,serif" font-size="14.00">Count: 0</text>
<text text-anchor="middle" x="599.19" y="-433.38" font-family="Times New Roman,serif" font-size="14.00">Normalized count: 0.00</text>
<text text-anchor="middle" x="599.19" y="-418.38" font-family="Times New Roman,serif" font-size="14.00">Samples weight: 0.00</text>
</g>
<!-- BB12 -->
<g id="node13" class="node">
<title>BB12</title>
<ellipse fill="none" stroke="black" cx="599.19" cy="-312.42" rx="103.48" ry="48.17"/>
<text text-anchor="middle" x="599.19" y="-331.22" font-family="Times New Roman,serif" font-size="14.00">[132..136)</text>
<text text-anchor="middle" x="599.19" y="-316.22" font-family="Times New Roman,serif" font-size="14.00">Count: 0</text>
<text text-anchor="middle" x="599.19" y="-301.22" font-family="Times New Roman,serif" font-size="14.00">Normalized count: 0.00</text>
<text text-anchor="middle" x="599.19" y="-286.22" font-family="Times New Roman,serif" font-size="14.00">Samples weight: 0.00</text>
</g>
<!-- BB11&#45;&gt;BB12 -->
<g id="edge16" class="edge">
<title>BB11&#45;&gt;BB12</title>
<path fill="none" stroke="black" d="M599.19,-396.22C599.19,-387.95 599.19,-379.27 599.19,-370.77"/>
<polygon fill="black" stroke="black" points="602.69,-370.52 599.19,-360.52 595.69,-370.52 602.69,-370.52"/>
</g>
<!-- BB13 -->
<g id="node14" class="node">
<title>BB13</title>
<ellipse fill="none" stroke="black" cx="823.19" cy="-312.42" rx="103.48" ry="48.17"/>
<text text-anchor="middle" x="823.19" y="-331.22" font-family="Times New Roman,serif" font-size="14.00">[136..140)</text>
<text text-anchor="middle" x="823.19" y="-316.22" font-family="Times New Roman,serif" font-size="14.00">Count: 0</text>
<text text-anchor="middle" x="823.19" y="-301.22" font-family="Times New Roman,serif" font-size="14.00">Normalized count: 0.00</text>
<text text-anchor="middle" x="823.19" y="-286.22" font-family="Times New Roman,serif" font-size="14.00">Samples weight: 0.00</text>
</g>
<!-- BB11&#45;&gt;BB13 -->
<g id="edge15" class="edge">
<title>BB11&#45;&gt;BB13</title>
<path fill="none" stroke="black" d="M662.78,-406.63C690.21,-390.69 722.43,-371.97 750.78,-355.49"/>
<polygon fill="black" stroke="black" points="752.55,-358.51 759.44,-350.46 749.03,-352.46 752.55,-358.51"/>
</g>
<!-- BB14 -->
<g id="node15" class="node">
<title>BB14</title>
<ellipse fill="none" stroke="black" cx="599.19" cy="-180.25" rx="103.48" ry="48.17"/>
<text text-anchor="middle" x="599.19" y="-199.05" font-family="Times New Roman,serif" font-size="14.00">[140..150)</text>
<text text-anchor="middle" x="599.19" y="-184.05" font-family="Times New Roman,serif" font-size="14.00">Count: 0</text>
<text text-anchor="middle" x="599.19" y="-169.05" font-family="Times New Roman,serif" font-size="14.00">Normalized count: 0.00</text>
<text text-anchor="middle" x="599.19" y="-154.05" font-family="Times New Roman,serif" font-size="14.00">Samples weight: 0.00</text>
</g>
<!-- BB12&#45;&gt;BB14 -->
<g id="edge17" class="edge">
<title>BB12&#45;&gt;BB14</title>
<path fill="none" stroke="black" d="M599.19,-264.05C599.19,-255.79 599.19,-247.1 599.19,-238.6"/>
<polygon fill="black" stroke="black" points="602.69,-238.36 599.19,-228.36 595.69,-238.36 602.69,-238.36"/>
</g>
<!-- BB13&#45;&gt;BB14 -->
<g id="edge18" class="edge">
<title>BB13&#45;&gt;BB14</title>
<path fill="none" stroke="black" d="M759.6,-274.46C732.17,-258.52 699.94,-239.8 671.6,-223.33"/>
<polygon fill="black" stroke="black" points="673.34,-220.29 662.94,-218.29 669.82,-226.35 673.34,-220.29"/>
</g>
<!-- BB14&#45;&gt;BB15 -->
<g id="edge19" class="edge">
<title>BB14&#45;&gt;BB15</title>
<path fill="none" stroke="black" d="M531.05,-216.41C513.55,-229 496.93,-244.98 487.19,-264.33 441.56,-354.98 461.8,-394.41 487.19,-492.67 489.69,-502.36 493.6,-512.14 498.1,-521.41"/>
<polygon fill="black" stroke="black" points="495.08,-523.19 502.77,-530.48 501.31,-519.99 495.08,-523.19"/>
</g>
<!-- BB15&#45;&gt;BB11 -->
<g id="edge20" class="edge">
<title>BB15&#45;&gt;BB11</title>
<path fill="none" stroke="black" d="M556.46,-529.86C561.24,-520.43 566.32,-510.41 571.24,-500.69"/>
<polygon fill="black" stroke="black" points="574.51,-502 575.91,-491.5 568.26,-498.84 574.51,-502"/>
</g>
<!-- BB16 -->
<g id="node17" class="node">
<title>BB16</title>
<ellipse fill="none" stroke="black" cx="1047.19" cy="-444.58" rx="103.48" ry="48.17"/>
<text text-anchor="middle" x="1047.19" y="-463.38" font-family="Times New Roman,serif" font-size="14.00">[158..167)</text>
<text text-anchor="middle" x="1047.19" y="-448.38" font-family="Times New Roman,serif" font-size="14.00">Count: 0</text>
<text text-anchor="middle" x="1047.19" y="-433.38" font-family="Times New Roman,serif" font-size="14.00">Normalized count: 0.00</text>
<text text-anchor="middle" x="1047.19" y="-418.38" font-family="Times New Roman,serif" font-size="14.00">Samples weight: 0.00</text>
</g>
<!-- BB15&#45;&gt;BB16 -->
<g id="edge21" class="edge">
<title>BB15&#45;&gt;BB16</title>
<path fill="none" stroke="black" d="M623.01,-553C713.62,-530.06 853.2,-494.71 947.25,-470.89"/>
<polygon fill="black" stroke="black" points="948.23,-474.25 957.06,-468.41 946.51,-467.47 948.23,-474.25"/>
</g>
<!-- BB17 -->
<g id="node18" class="node">
<title>BB17</title>
<ellipse fill="none" stroke="black" cx="1047.19" cy="-312.42" rx="103.48" ry="48.17"/>
<text text-anchor="middle" x="1047.19" y="-331.22" font-family="Times New Roman,serif" font-size="14.00">[167..1b8)</text>
<text text-anchor="middle" x="1047.19" y="-316.22" font-family="Times New Roman,serif" font-size="14.00">Count: 0</text>
<text text-anchor="middle" x="1047.19" y="-301.22" font-family="Times New Roman,serif" font-size="14.00">Normalized count: 0.00</text>
<text text-anchor="middle" x="1047.19" y="-286.22" font-family="Times New Roman,serif" font-size="14.00">Samples weight: 0.00</text>
</g>
<!-- BB16&#45;&gt;BB17 -->
<g id="edge23" class="edge">
<title>BB16&#45;&gt;BB17</title>
<path fill="none" stroke="black" d="M1047.19,-396.22C1047.19,-387.95 1047.19,-379.27 1047.19,-370.77"/>
<polygon fill="black" stroke="black" points="1050.69,-370.52 1047.19,-360.52 1043.69,-370.52 1050.69,-370.52"/>
</g>
<!-- BB20 -->
<g id="node21" class="node">
<title>BB20</title>
<ellipse fill="none" stroke="black" cx="1271.19" cy="-312.42" rx="103.48" ry="48.17"/>
<text text-anchor="middle" x="1271.19" y="-331.22" font-family="Times New Roman,serif" font-size="14.00">[1ce..1cf)</text>
<text text-anchor="middle" x="1271.19" y="-316.22" font-family="Times New Roman,serif" font-size="14.00">Count: 0</text>
<text text-anchor="middle" x="1271.19" y="-301.22" font-family="Times New Roman,serif" font-size="14.00">Normalized count: 0.00</text>
<text text-anchor="middle" x="1271.19" y="-286.22" font-family="Times New Roman,serif" font-size="14.00">Samples weight: 0.00</text>
</g>
<!-- BB16&#45;&gt;BB20 -->
<g id="edge22" class="edge">
<title>BB16&#45;&gt;BB20</title>
<path fill="none" stroke="black" d="M1110.78,-406.63C1138.21,-390.69 1170.43,-371.97 1198.78,-355.49"/>
<polygon fill="black" stroke="black" points="1200.55,-358.51 1207.44,-350.46 1197.03,-352.46 1200.55,-358.51"/>
</g>
<!-- BB19 -->
<g id="node20" class="node">
<title>BB19</title>
<ellipse fill="none" stroke="black" cx="1159.19" cy="-180.25" rx="103.48" ry="48.17"/>
<text text-anchor="middle" x="1159.19" y="-199.05" font-family="Times New Roman,serif" font-size="14.00">[1c8..1ce)</text>
<text text-anchor="middle" x="1159.19" y="-184.05" font-family="Times New Roman,serif" font-size="14.00">Count: 0</text>
<text text-anchor="middle" x="1159.19" y="-169.05" font-family="Times New Roman,serif" font-size="14.00">Normalized count: 0.00</text>
<text text-anchor="middle" x="1159.19" y="-154.05" font-family="Times New Roman,serif" font-size="14.00">Samples weight: 0.00</text>
</g>
<!-- BB17&#45;&gt;BB19 -->
<g id="edge24" class="edge">
<title>BB17&#45;&gt;BB19</title>
<path fill="none" stroke="black" d="M1085.11,-267.35C1094.59,-256.32 1104.86,-244.39 1114.63,-233.03"/>
<polygon fill="black" stroke="black" points="1117.44,-235.14 1121.31,-225.27 1112.13,-230.57 1117.44,-235.14"/>
</g>
<!-- BB18 -->
<g id="node19" class="node">
<title>BB18</title>
<ellipse fill="none" stroke="black" cx="1159.19" cy="-48.08" rx="103.48" ry="48.17"/>
<text text-anchor="middle" x="1159.19" y="-66.88" font-family="Times New Roman,serif" font-size="14.00">[1b8..1c8)</text>
<text text-anchor="middle" x="1159.19" y="-51.88" font-family="Times New Roman,serif" font-size="14.00">Count: 0</text>
<text text-anchor="middle" x="1159.19" y="-36.88" font-family="Times New Roman,serif" font-size="14.00">Normalized count: 0.00</text>
<text text-anchor="middle" x="1159.19" y="-21.88" font-family="Times New Roman,serif" font-size="14.00">Samples weight: 0.00</text>
</g>
<!-- BB18&#45;&gt;BB19 -->
<g id="edge25" class="edge">
<title>BB18&#45;&gt;BB19</title>
<path fill="none" stroke="black" d="M1165.71,-96.44C1165.93,-104.74 1165.99,-113.45 1165.89,-121.98"/>
<polygon fill="black" stroke="black" points="1162.39,-122.19 1165.7,-132.26 1169.39,-122.32 1162.39,-122.19"/>
</g>
<!-- BB19&#45;&gt;BB18 -->
<g id="edge26" class="edge">
<title>BB19&#45;&gt;BB18</title>
<path fill="none" stroke="black" d="M1152.67,-132.26C1152.45,-123.88 1152.38,-115.07 1152.48,-106.45"/>
<polygon fill="black" stroke="black" points="1155.98,-106.51 1152.66,-96.44 1148.98,-106.38 1155.98,-106.51"/>
</g>
<!-- BB19&#45;&gt;BB20 -->
<g id="edge27" class="edge">
<title>BB19&#45;&gt;BB20</title>
<path fill="none" stroke="black" d="M1197.07,-225.27C1206.55,-236.3 1216.81,-248.22 1226.59,-259.59"/>
<polygon fill="black" stroke="black" points="1224.09,-262.05 1233.27,-267.35 1229.4,-257.48 1224.09,-262.05"/>
</g>
</g>
</svg>
