<?xml version="1.0" encoding="UTF-8" standalone="no"?>
<!DOCTYPE svg PUBLIC "-//W3C//DTD SVG 1.1//EN"
 "http://www.w3.org/Graphics/SVG/1.1/DTD/svg11.dtd">
<!-- Generated by graphviz version 2.47.0 (20210316.0004)
 -->
<!-- Title: G Pages: 1 -->
<svg width="891pt" height="765pt"
 viewBox="0.00 0.00 891.48 765.00" xmlns="http://www.w3.org/2000/svg" xmlns:xlink="http://www.w3.org/1999/xlink">
<g id="graph0" class="graph" transform="scale(1 1) rotate(0) translate(4 761)">
<title>G</title>
<polygon fill="white" stroke="transparent" points="-4,4 -4,-761 887.48,-761 887.48,4 -4,4"/>
<!-- BB0 -->
<g id="node1" class="node">
<title>BB0</title>
<ellipse fill="none" stroke="black" cx="215.24" cy="-708.92" rx="103.48" ry="48.17"/>
<text text-anchor="middle" x="215.24" y="-727.72" font-family="Times New Roman,serif" font-size="14.00">[0..9)</text>
<text text-anchor="middle" x="215.24" y="-712.72" font-family="Times New Roman,serif" font-size="14.00">Count: 6</text>
<text text-anchor="middle" x="215.24" y="-697.72" font-family="Times New Roman,serif" font-size="14.00">Normalized count: 1.00</text>
<text text-anchor="middle" x="215.24" y="-682.72" font-family="Times New Roman,serif" font-size="14.00">Samples weight: 0.05</text>
</g>
<!-- BB1 -->
<g id="node2" class="node">
<title>BB1</title>
<ellipse fill="none" stroke="black" cx="103.24" cy="-576.75" rx="103.48" ry="48.17"/>
<text text-anchor="middle" x="103.24" y="-595.55" font-family="Times New Roman,serif" font-size="14.00">[9..b)</text>
<text text-anchor="middle" x="103.24" y="-580.55" font-family="Times New Roman,serif" font-size="14.00">Count: 0</text>
<text text-anchor="middle" x="103.24" y="-565.55" font-family="Times New Roman,serif" font-size="14.00">Normalized count: 0.00</text>
<text text-anchor="middle" x="103.24" y="-550.55" font-family="Times New Roman,serif" font-size="14.00">Samples weight: 0.00</text>
</g>
<!-- BB0&#45;&gt;BB1 -->
<g id="edge2" class="edge">
<title>BB0&#45;&gt;BB1</title>
<path fill="none" stroke="black" d="M177.32,-663.85C167.83,-652.82 157.57,-640.89 147.79,-629.53"/>
<polygon fill="black" stroke="black" points="150.29,-627.07 141.12,-621.77 144.99,-631.64 150.29,-627.07"/>
</g>
<!-- BB2 -->
<g id="node3" class="node">
<title>BB2</title>
<ellipse fill="none" stroke="black" cx="327.24" cy="-576.75" rx="103.48" ry="48.17"/>
<text text-anchor="middle" x="327.24" y="-595.55" font-family="Times New Roman,serif" font-size="14.00">[b..2c)</text>
<text text-anchor="middle" x="327.24" y="-580.55" font-family="Times New Roman,serif" font-size="14.00">Count: 9</text>
<text text-anchor="middle" x="327.24" y="-565.55" font-family="Times New Roman,serif" font-size="14.00">Normalized count: 1.50</text>
<text text-anchor="middle" x="327.24" y="-550.55" font-family="Times New Roman,serif" font-size="14.00">Samples weight: 0.08</text>
</g>
<!-- BB0&#45;&gt;BB2 -->
<g id="edge1" class="edge">
<title>BB0&#45;&gt;BB2</title>
<path fill="none" stroke="black" d="M253.16,-663.85C262.64,-652.82 272.91,-640.89 282.68,-629.53"/>
<polygon fill="black" stroke="black" points="285.49,-631.64 289.36,-621.77 280.18,-627.07 285.49,-631.64"/>
</g>
<!-- BB3 -->
<g id="node4" class="node">
<title>BB3</title>
<ellipse fill="none" stroke="black" cx="215.24" cy="-444.58" rx="103.48" ry="48.17"/>
<text text-anchor="middle" x="215.24" y="-463.38" font-family="Times New Roman,serif" font-size="14.00">[2c..2e)</text>
<text text-anchor="middle" x="215.24" y="-448.38" font-family="Times New Roman,serif" font-size="14.00">Count: 0</text>
<text text-anchor="middle" x="215.24" y="-433.38" font-family="Times New Roman,serif" font-size="14.00">Normalized count: 0.00</text>
<text text-anchor="middle" x="215.24" y="-418.38" font-family="Times New Roman,serif" font-size="14.00">Samples weight: 0.00</text>
</g>
<!-- BB2&#45;&gt;BB3 -->
<g id="edge4" class="edge">
<title>BB2&#45;&gt;BB3</title>
<path fill="none" stroke="black" d="M289.32,-531.68C279.83,-520.65 269.57,-508.73 259.79,-497.36"/>
<polygon fill="black" stroke="black" points="262.29,-494.9 253.12,-489.61 256.99,-499.47 262.29,-494.9"/>
</g>
<!-- BB4 -->
<g id="node5" class="node">
<title>BB4</title>
<ellipse fill="none" stroke="black" cx="439.24" cy="-444.58" rx="103.48" ry="48.17"/>
<text text-anchor="middle" x="439.24" y="-463.38" font-family="Times New Roman,serif" font-size="14.00">[2e..53)</text>
<text text-anchor="middle" x="439.24" y="-448.38" font-family="Times New Roman,serif" font-size="14.00">Count: 18</text>
<text text-anchor="middle" x="439.24" y="-433.38" font-family="Times New Roman,serif" font-size="14.00">Normalized count: 3.00</text>
<text text-anchor="middle" x="439.24" y="-418.38" font-family="Times New Roman,serif" font-size="14.00">Samples weight: 0.16</text>
</g>
<!-- BB2&#45;&gt;BB4 -->
<g id="edge3" class="edge">
<title>BB2&#45;&gt;BB4</title>
<path fill="none" stroke="black" d="M365.16,-531.68C374.64,-520.65 384.91,-508.73 394.68,-497.36"/>
<polygon fill="black" stroke="black" points="397.49,-499.47 401.36,-489.61 392.18,-494.9 397.49,-499.47"/>
</g>
<!-- BB5 -->
<g id="node6" class="node">
<title>BB5</title>
<ellipse fill="none" stroke="black" cx="327.24" cy="-312.42" rx="103.48" ry="48.17"/>
<text text-anchor="middle" x="327.24" y="-331.22" font-family="Times New Roman,serif" font-size="14.00">[53..55)</text>
<text text-anchor="middle" x="327.24" y="-316.22" font-family="Times New Roman,serif" font-size="14.00">Count: 2</text>
<text text-anchor="middle" x="327.24" y="-301.22" font-family="Times New Roman,serif" font-size="14.00">Normalized count: 0.33</text>
<text text-anchor="middle" x="327.24" y="-286.22" font-family="Times New Roman,serif" font-size="14.00">Samples weight: 0.02</text>
</g>
<!-- BB4&#45;&gt;BB5 -->
<g id="edge6" class="edge">
<title>BB4&#45;&gt;BB5</title>
<path fill="none" stroke="black" d="M401.32,-399.51C391.83,-388.49 381.57,-376.56 371.79,-365.2"/>
<polygon fill="black" stroke="black" points="374.29,-362.74 365.12,-357.44 368.99,-367.3 374.29,-362.74"/>
</g>
<!-- BB6 -->
<g id="node7" class="node">
<title>BB6</title>
<ellipse fill="none" stroke="black" cx="551.24" cy="-312.42" rx="103.48" ry="48.17"/>
<text text-anchor="middle" x="551.24" y="-331.22" font-family="Times New Roman,serif" font-size="14.00">[55..60)</text>
<text text-anchor="middle" x="551.24" y="-316.22" font-family="Times New Roman,serif" font-size="14.00">Count: 2</text>
<text text-anchor="middle" x="551.24" y="-301.22" font-family="Times New Roman,serif" font-size="14.00">Normalized count: 0.33</text>
<text text-anchor="middle" x="551.24" y="-286.22" font-family="Times New Roman,serif" font-size="14.00">Samples weight: 0.02</text>
</g>
<!-- BB4&#45;&gt;BB6 -->
<g id="edge5" class="edge">
<title>BB4&#45;&gt;BB6</title>
<path fill="none" stroke="black" d="M477.16,-399.51C486.64,-388.49 496.91,-376.56 506.68,-365.2"/>
<polygon fill="black" stroke="black" points="509.49,-367.3 513.36,-357.44 504.18,-362.74 509.49,-367.3"/>
</g>
<!-- BB8 -->
<g id="node9" class="node">
<title>BB8</title>
<ellipse fill="none" stroke="black" cx="551.24" cy="-180.25" rx="103.48" ry="48.17"/>
<text text-anchor="middle" x="551.24" y="-199.05" font-family="Times New Roman,serif" font-size="14.00">[7e..82)</text>
<text text-anchor="middle" x="551.24" y="-184.05" font-family="Times New Roman,serif" font-size="14.00">Count: 11</text>
<text text-anchor="middle" x="551.24" y="-169.05" font-family="Times New Roman,serif" font-size="14.00">Normalized count: 1.83</text>
<text text-anchor="middle" x="551.24" y="-154.05" font-family="Times New Roman,serif" font-size="14.00">Samples weight: 0.10</text>
</g>
<!-- BB6&#45;&gt;BB8 -->
<g id="edge7" class="edge">
<title>BB6&#45;&gt;BB8</title>
<path fill="none" stroke="black" d="M551.24,-264.05C551.24,-255.79 551.24,-247.1 551.24,-238.6"/>
<polygon fill="black" stroke="black" points="554.74,-238.36 551.24,-228.36 547.74,-238.36 554.74,-238.36"/>
</g>
<!-- BB7 -->
<g id="node8" class="node">
<title>BB7</title>
<ellipse fill="none" stroke="black" cx="551.24" cy="-48.08" rx="108.38" ry="48.17"/>
<text text-anchor="middle" x="551.24" y="-66.88" font-family="Times New Roman,serif" font-size="14.00">[60..7e)</text>
<text text-anchor="middle" x="551.24" y="-51.88" font-family="Times New Roman,serif" font-size="14.00">Count: 63</text>
<text text-anchor="middle" x="551.24" y="-36.88" font-family="Times New Roman,serif" font-size="14.00">Normalized count: 10.50</text>
<text text-anchor="middle" x="551.24" y="-21.88" font-family="Times New Roman,serif" font-size="14.00">Samples weight: 0.56</text>
</g>
<!-- BB7&#45;&gt;BB8 -->
<g id="edge8" class="edge">
<title>BB7&#45;&gt;BB8</title>
<path fill="none" stroke="black" d="M557.76,-96.44C557.98,-104.74 558.04,-113.45 557.94,-121.98"/>
<polygon fill="black" stroke="black" points="554.44,-122.19 557.75,-132.26 561.44,-122.32 554.44,-122.19"/>
</g>
<!-- BB8&#45;&gt;BB7 -->
<g id="edge9" class="edge">
<title>BB8&#45;&gt;BB7</title>
<path fill="none" stroke="black" d="M544.72,-132.26C544.5,-123.88 544.43,-115.07 544.53,-106.45"/>
<polygon fill="black" stroke="black" points="548.03,-106.51 544.72,-96.44 541.03,-106.38 548.03,-106.51"/>
</g>
<!-- BB9 -->
<g id="node10" class="node">
<title>BB9</title>
<ellipse fill="none" stroke="black" cx="780.24" cy="-48.08" rx="103.48" ry="48.17"/>
<text text-anchor="middle" x="780.24" y="-66.88" font-family="Times New Roman,serif" font-size="14.00">[82..84)</text>
<text text-anchor="middle" x="780.24" y="-51.88" font-family="Times New Roman,serif" font-size="14.00">Count: 1</text>
<text text-anchor="middle" x="780.24" y="-36.88" font-family="Times New Roman,serif" font-size="14.00">Normalized count: 0.17</text>
<text text-anchor="middle" x="780.24" y="-21.88" font-family="Times New Roman,serif" font-size="14.00">Samples weight: 0.01</text>
</g>
<!-- BB8&#45;&gt;BB9 -->
<g id="edge10" class="edge">
<title>BB8&#45;&gt;BB9</title>
<path fill="none" stroke="black" d="M615.64,-142.64C643.93,-126.56 677.31,-107.59 706.58,-90.95"/>
<polygon fill="black" stroke="black" points="708.56,-93.85 715.53,-85.86 705.11,-87.76 708.56,-93.85"/>
</g>
</g>
</svg>
