<?xml version="1.0" encoding="UTF-8" standalone="no"?>
<!DOCTYPE svg PUBLIC "-//W3C//DTD SVG 1.1//EN"
 "http://www.w3.org/Graphics/SVG/1.1/DTD/svg11.dtd">
<!-- Generated by graphviz version 2.47.0 (20210316.0004)
 -->
<!-- Title: G Pages: 1 -->
<svg width="263pt" height="600pt"
 viewBox="0.00 0.00 263.15 600.18" xmlns="http://www.w3.org/2000/svg" xmlns:xlink="http://www.w3.org/1999/xlink">
<g id="graph0" class="graph" transform="scale(1 1) rotate(0) translate(4 596.18)">
<title>G</title>
<polygon fill="white" stroke="transparent" points="-4,4 -4,-596.18 259.15,-596.18 259.15,4 -4,4"/>
<!-- BB0 -->
<g id="node1" class="node">
<title>BB0</title>
<ellipse fill="none" stroke="black" cx="112.43" cy="-565.31" rx="37.45" ry="26.74"/>
<text text-anchor="middle" x="112.43" y="-569.11" font-family="Times New Roman,serif" font-size="14.00">[0..10)</text>
<text text-anchor="middle" x="112.43" y="-554.11" font-family="Times New Roman,serif" font-size="14.00">0.00</text>
</g>
<!-- BB7 -->
<g id="node8" class="node">
<title>BB7</title>
<ellipse fill="none" stroke="black" cx="112.43" cy="-475.57" rx="41.02" ry="26.74"/>
<text text-anchor="middle" x="112.43" y="-479.37" font-family="Times New Roman,serif" font-size="14.00">[c7..cf)</text>
<text text-anchor="middle" x="112.43" y="-464.37" font-family="Times New Roman,serif" font-size="14.00">0.00</text>
</g>
<!-- BB0&#45;&gt;BB7 -->
<g id="edge1" class="edge">
<title>BB0&#45;&gt;BB7</title>
<path fill="none" stroke="black" d="M112.43,-537.99C112.43,-530.02 112.43,-521.13 112.43,-512.64"/>
<polygon fill="black" stroke="black" points="115.93,-512.57 112.43,-502.57 108.93,-512.57 115.93,-512.57"/>
</g>
<!-- BB1 -->
<g id="node2" class="node">
<title>BB1</title>
<ellipse fill="none" stroke="black" cx="112.43" cy="-385.83" rx="41.02" ry="26.74"/>
<text text-anchor="middle" x="112.43" y="-389.63" font-family="Times New Roman,serif" font-size="14.00">[10..1f)</text>
<text text-anchor="middle" x="112.43" y="-374.63" font-family="Times New Roman,serif" font-size="14.00">0.00</text>
</g>
<!-- BB5 -->
<g id="node6" class="node">
<title>BB5</title>
<ellipse fill="none" stroke="black" cx="113.43" cy="-296.09" rx="43.27" ry="26.74"/>
<text text-anchor="middle" x="113.43" y="-299.89" font-family="Times New Roman,serif" font-size="14.00">[b2..c1)</text>
<text text-anchor="middle" x="113.43" y="-284.89" font-family="Times New Roman,serif" font-size="14.00">0.11</text>
</g>
<!-- BB1&#45;&gt;BB5 -->
<g id="edge2" class="edge">
<title>BB1&#45;&gt;BB5</title>
<path fill="none" stroke="black" d="M112.73,-358.51C112.82,-350.54 112.92,-341.65 113.02,-333.16"/>
<polygon fill="black" stroke="black" points="116.52,-333.13 113.13,-323.09 109.52,-333.05 116.52,-333.13"/>
</g>
<!-- BB2 -->
<g id="node3" class="node">
<title>BB2</title>
<ellipse fill="none" stroke="black" cx="181.43" cy="-206.35" rx="41.02" ry="26.74"/>
<text text-anchor="middle" x="181.43" y="-210.15" font-family="Times New Roman,serif" font-size="14.00">[1f..40)</text>
<text text-anchor="middle" x="181.43" y="-195.15" font-family="Times New Roman,serif" font-size="14.00">0.11</text>
</g>
<!-- BB3 -->
<g id="node4" class="node">
<title>BB3</title>
<ellipse fill="none" stroke="black" cx="182.43" cy="-116.61" rx="41.94" ry="26.74"/>
<text text-anchor="middle" x="182.43" y="-120.41" font-family="Times New Roman,serif" font-size="14.00">[40..a1)</text>
<text text-anchor="middle" x="182.43" y="-105.41" font-family="Times New Roman,serif" font-size="14.00">0.66</text>
</g>
<!-- BB2&#45;&gt;BB3 -->
<g id="edge3" class="edge">
<title>BB2&#45;&gt;BB3</title>
<path fill="none" stroke="black" d="M181.73,-179.03C181.82,-171.06 181.92,-162.17 182.02,-153.68"/>
<polygon fill="black" stroke="black" points="185.52,-153.65 182.13,-143.61 178.52,-153.57 185.52,-153.65"/>
</g>
<!-- BB3&#45;&gt;BB3 -->
<g id="edge4" class="edge">
<title>BB3&#45;&gt;BB3</title>
<path fill="none" stroke="black" d="M215.89,-132.94C230.07,-134.17 242.15,-128.73 242.15,-116.61 242.15,-107.52 235.35,-102.19 225.97,-100.61"/>
<polygon fill="black" stroke="black" points="226,-97.11 215.89,-100.28 225.77,-104.1 226,-97.11"/>
</g>
<!-- BB4 -->
<g id="node5" class="node">
<title>BB4</title>
<ellipse fill="none" stroke="black" cx="147.43" cy="-26.87" rx="42.35" ry="26.74"/>
<text text-anchor="middle" x="147.43" y="-30.67" font-family="Times New Roman,serif" font-size="14.00">[a1..b2)</text>
<text text-anchor="middle" x="147.43" y="-15.67" font-family="Times New Roman,serif" font-size="14.00">0.11</text>
</g>
<!-- BB3&#45;&gt;BB4 -->
<g id="edge5" class="edge">
<title>BB3&#45;&gt;BB4</title>
<path fill="none" stroke="black" d="M172.3,-90.23C168.86,-81.59 164.94,-71.78 161.26,-62.54"/>
<polygon fill="black" stroke="black" points="164.48,-61.18 157.53,-53.19 157.98,-63.78 164.48,-61.18"/>
</g>
<!-- BB4&#45;&gt;BB5 -->
<g id="edge6" class="edge">
<title>BB4&#45;&gt;BB5</title>
<path fill="none" stroke="black" d="M139.77,-53.55C136.74,-64.6 133.49,-77.71 131.43,-89.74 121.33,-148.47 116.75,-217.67 114.79,-258.88"/>
<polygon fill="black" stroke="black" points="111.28,-258.83 114.33,-268.98 118.28,-259.15 111.28,-258.83"/>
</g>
<!-- BB5&#45;&gt;BB2 -->
<g id="edge7" class="edge">
<title>BB5&#45;&gt;BB2</title>
<path fill="none" stroke="black" d="M131.65,-271.58C139.49,-261.47 148.76,-249.5 157.17,-238.65"/>
<polygon fill="black" stroke="black" points="160.03,-240.67 163.39,-230.62 154.5,-236.38 160.03,-240.67"/>
</g>
<!-- BB6 -->
<g id="node7" class="node">
<title>BB6</title>
<ellipse fill="none" stroke="black" cx="42.43" cy="-206.35" rx="42.35" ry="26.74"/>
<text text-anchor="middle" x="42.43" y="-210.15" font-family="Times New Roman,serif" font-size="14.00">[c1..c7)</text>
<text text-anchor="middle" x="42.43" y="-195.15" font-family="Times New Roman,serif" font-size="14.00">0.00</text>
</g>
<!-- BB5&#45;&gt;BB6 -->
<g id="edge8" class="edge">
<title>BB5&#45;&gt;BB6</title>
<path fill="none" stroke="black" d="M94.4,-271.58C86.22,-261.47 76.53,-249.5 67.76,-238.65"/>
<polygon fill="black" stroke="black" points="70.27,-236.2 61.26,-230.62 64.83,-240.6 70.27,-236.2"/>
</g>
<!-- BB6&#45;&gt;BB7 -->
<g id="edge9" class="edge">
<title>BB6&#45;&gt;BB7</title>
<path fill="none" stroke="black" d="M40.3,-233.45C38.05,-273.6 37.67,-352.2 62.43,-412.7 67.21,-424.38 74.95,-435.61 82.93,-445.22"/>
<polygon fill="black" stroke="black" points="80.41,-447.66 89.62,-452.88 85.68,-443.05 80.41,-447.66"/>
</g>
<!-- BB7&#45;&gt;BB1 -->
<g id="edge10" class="edge">
<title>BB7&#45;&gt;BB1</title>
<path fill="none" stroke="black" d="M112.43,-448.25C112.43,-440.28 112.43,-431.39 112.43,-422.9"/>
<polygon fill="black" stroke="black" points="115.93,-422.83 112.43,-412.83 108.93,-422.83 115.93,-422.83"/>
</g>
<!-- BB8 -->
<g id="node9" class="node">
<title>BB8</title>
<ellipse fill="none" stroke="black" cx="213.43" cy="-385.83" rx="41.94" ry="26.74"/>
<text text-anchor="middle" x="213.43" y="-389.63" font-family="Times New Roman,serif" font-size="14.00">[cf..d7)</text>
<text text-anchor="middle" x="213.43" y="-374.63" font-family="Times New Roman,serif" font-size="14.00">0.00</text>
</g>
<!-- BB7&#45;&gt;BB8 -->
<g id="edge11" class="edge">
<title>BB7&#45;&gt;BB8</title>
<path fill="none" stroke="black" d="M136.62,-453.55C150.01,-441.92 166.83,-427.31 181.31,-414.73"/>
<polygon fill="black" stroke="black" points="183.83,-417.18 189.08,-407.98 179.24,-411.89 183.83,-417.18"/>
</g>
</g>
</svg>
