<?xml version="1.0" encoding="UTF-8" standalone="no"?>
<!DOCTYPE svg PUBLIC "-//W3C//DTD SVG 1.1//EN"
 "http://www.w3.org/Graphics/SVG/1.1/DTD/svg11.dtd">
<!-- Generated by graphviz version 2.47.0 (20210316.0004)
 -->
<!-- Title: G Pages: 1 -->
<svg width="1254pt" height="1029pt"
 viewBox="0.00 0.00 1254.32 1029.33" xmlns="http://www.w3.org/2000/svg" xmlns:xlink="http://www.w3.org/1999/xlink">
<g id="graph0" class="graph" transform="scale(1 1) rotate(0) translate(4 1025.33)">
<title>G</title>
<polygon fill="white" stroke="transparent" points="-4,4 -4,-1025.33 1250.32,-1025.33 1250.32,4 -4,4"/>
<!-- BB0 -->
<g id="node1" class="node">
<title>BB0</title>
<ellipse fill="none" stroke="black" cx="410.09" cy="-973.25" rx="103.48" ry="48.17"/>
<text text-anchor="middle" x="410.09" y="-992.05" font-family="Times New Roman,serif" font-size="14.00">[0..4)</text>
<text text-anchor="middle" x="410.09" y="-977.05" font-family="Times New Roman,serif" font-size="14.00">Count: 1788</text>
<text text-anchor="middle" x="410.09" y="-962.05" font-family="Times New Roman,serif" font-size="14.00">Normalized count: 1.00</text>
<text text-anchor="middle" x="410.09" y="-947.05" font-family="Times New Roman,serif" font-size="14.00">Samples weight: 0.00</text>
</g>
<!-- BB6 -->
<g id="node7" class="node">
<title>BB6</title>
<ellipse fill="none" stroke="black" cx="410.09" cy="-841.08" rx="118.17" ry="48.17"/>
<text text-anchor="middle" x="410.09" y="-859.88" font-family="Times New Roman,serif" font-size="14.00">[2e..32)</text>
<text text-anchor="middle" x="410.09" y="-844.88" font-family="Times New Roman,serif" font-size="14.00">Count: 9834000</text>
<text text-anchor="middle" x="410.09" y="-829.88" font-family="Times New Roman,serif" font-size="14.00">Normalized count: 5500.00</text>
<text text-anchor="middle" x="410.09" y="-814.88" font-family="Times New Roman,serif" font-size="14.00">Samples weight: 0.02</text>
</g>
<!-- BB0&#45;&gt;BB6 -->
<g id="edge1" class="edge">
<title>BB0&#45;&gt;BB6</title>
<path fill="none" stroke="black" d="M410.09,-924.89C410.09,-916.62 410.09,-907.94 410.09,-899.43"/>
<polygon fill="black" stroke="black" points="413.59,-899.19 410.09,-889.19 406.59,-899.19 413.59,-899.19"/>
</g>
<!-- BB1 -->
<g id="node2" class="node">
<title>BB1</title>
<ellipse fill="none" stroke="black" cx="264.09" cy="-708.92" rx="118.17" ry="48.17"/>
<text text-anchor="middle" x="264.09" y="-727.72" font-family="Times New Roman,serif" font-size="14.00">[4..10)</text>
<text text-anchor="middle" x="264.09" y="-712.72" font-family="Times New Roman,serif" font-size="14.00">Count: 9832212</text>
<text text-anchor="middle" x="264.09" y="-697.72" font-family="Times New Roman,serif" font-size="14.00">Normalized count: 5499.00</text>
<text text-anchor="middle" x="264.09" y="-682.72" font-family="Times New Roman,serif" font-size="14.00">Samples weight: 0.02</text>
</g>
<!-- BB4 -->
<g id="node5" class="node">
<title>BB4</title>
<ellipse fill="none" stroke="black" cx="264.09" cy="-576.75" rx="118.17" ry="48.17"/>
<text text-anchor="middle" x="264.09" y="-595.55" font-family="Times New Roman,serif" font-size="14.00">[22..26)</text>
<text text-anchor="middle" x="264.09" y="-580.55" font-family="Times New Roman,serif" font-size="14.00">Count: 9832212</text>
<text text-anchor="middle" x="264.09" y="-565.55" font-family="Times New Roman,serif" font-size="14.00">Normalized count: 5499.00</text>
<text text-anchor="middle" x="264.09" y="-550.55" font-family="Times New Roman,serif" font-size="14.00">Samples weight: 0.02</text>
</g>
<!-- BB1&#45;&gt;BB4 -->
<g id="edge2" class="edge">
<title>BB1&#45;&gt;BB4</title>
<path fill="none" stroke="black" d="M264.09,-660.55C264.09,-652.29 264.09,-643.6 264.09,-635.1"/>
<polygon fill="black" stroke="black" points="267.59,-634.86 264.09,-624.86 260.59,-634.86 267.59,-634.86"/>
</g>
<!-- BB2 -->
<g id="node3" class="node">
<title>BB2</title>
<ellipse fill="none" stroke="black" cx="118.09" cy="-444.58" rx="118.17" ry="48.17"/>
<text text-anchor="middle" x="118.09" y="-463.38" font-family="Times New Roman,serif" font-size="14.00">[10..16)</text>
<text text-anchor="middle" x="118.09" y="-448.38" font-family="Times New Roman,serif" font-size="14.00">Count: 9832212</text>
<text text-anchor="middle" x="118.09" y="-433.38" font-family="Times New Roman,serif" font-size="14.00">Normalized count: 5499.00</text>
<text text-anchor="middle" x="118.09" y="-418.38" font-family="Times New Roman,serif" font-size="14.00">Samples weight: 0.02</text>
</g>
<!-- BB3 -->
<g id="node4" class="node">
<title>BB3</title>
<ellipse fill="none" stroke="black" cx="191.09" cy="-312.42" rx="103.48" ry="48.17"/>
<text text-anchor="middle" x="191.09" y="-331.22" font-family="Times New Roman,serif" font-size="14.00">[16..22)</text>
<text text-anchor="middle" x="191.09" y="-316.22" font-family="Times New Roman,serif" font-size="14.00">Count: 0</text>
<text text-anchor="middle" x="191.09" y="-301.22" font-family="Times New Roman,serif" font-size="14.00">Normalized count: 0.00</text>
<text text-anchor="middle" x="191.09" y="-286.22" font-family="Times New Roman,serif" font-size="14.00">Samples weight: 0.00</text>
</g>
<!-- BB2&#45;&gt;BB3 -->
<g id="edge4" class="edge">
<title>BB2&#45;&gt;BB3</title>
<path fill="none" stroke="black" d="M144.03,-397.32C149.36,-387.81 155.03,-377.72 160.51,-367.94"/>
<polygon fill="black" stroke="black" points="163.63,-369.52 165.47,-359.09 157.53,-366.1 163.63,-369.52"/>
</g>
<!-- BB5 -->
<g id="node6" class="node">
<title>BB5</title>
<ellipse fill="none" stroke="black" cx="410.09" cy="-444.58" rx="118.17" ry="48.17"/>
<text text-anchor="middle" x="410.09" y="-463.38" font-family="Times New Roman,serif" font-size="14.00">[26..2e)</text>
<text text-anchor="middle" x="410.09" y="-448.38" font-family="Times New Roman,serif" font-size="14.00">Count: 9832212</text>
<text text-anchor="middle" x="410.09" y="-433.38" font-family="Times New Roman,serif" font-size="14.00">Normalized count: 5499.00</text>
<text text-anchor="middle" x="410.09" y="-418.38" font-family="Times New Roman,serif" font-size="14.00">Samples weight: 0.02</text>
</g>
<!-- BB2&#45;&gt;BB5 -->
<g id="edge3" class="edge">
<title>BB2&#45;&gt;BB5</title>
<path fill="none" stroke="black" d="M236.43,-444.58C251.4,-444.58 266.37,-444.58 281.35,-444.58"/>
<polygon fill="black" stroke="black" points="281.71,-448.08 291.71,-444.58 281.71,-441.08 281.71,-448.08"/>
</g>
<!-- BB3&#45;&gt;BB4 -->
<g id="edge5" class="edge">
<title>BB3&#45;&gt;BB4</title>
<path fill="none" stroke="black" d="M225.48,-357.96C233.13,-369.9 240.37,-383.21 245.09,-396.5 258.95,-435.56 263.55,-482.17 264.77,-518.07"/>
<polygon fill="black" stroke="black" points="261.28,-518.47 265.03,-528.38 268.27,-518.29 261.28,-518.47"/>
</g>
<!-- BB4&#45;&gt;BB2 -->
<g id="edge6" class="edge">
<title>BB4&#45;&gt;BB2</title>
<path fill="none" stroke="black" d="M215.88,-532.77C202.42,-520.77 187.69,-507.64 173.84,-495.29"/>
<polygon fill="black" stroke="black" points="176.04,-492.56 166.25,-488.52 171.38,-497.79 176.04,-492.56"/>
</g>
<!-- BB4&#45;&gt;BB5 -->
<g id="edge7" class="edge">
<title>BB4&#45;&gt;BB5</title>
<path fill="none" stroke="black" d="M312.3,-532.77C325.75,-520.77 340.48,-507.64 354.34,-495.29"/>
<polygon fill="black" stroke="black" points="356.79,-497.79 361.93,-488.52 352.13,-492.56 356.79,-497.79"/>
</g>
<!-- BB5&#45;&gt;BB6 -->
<g id="edge8" class="edge">
<title>BB5&#45;&gt;BB6</title>
<path fill="none" stroke="black" d="M410.09,-492.83C410.09,-565.48 410.09,-704.4 410.09,-782.72"/>
<polygon fill="black" stroke="black" points="406.59,-782.89 410.09,-792.89 413.59,-782.89 406.59,-782.89"/>
</g>
<!-- BB6&#45;&gt;BB1 -->
<g id="edge9" class="edge">
<title>BB6&#45;&gt;BB1</title>
<path fill="none" stroke="black" d="M361.88,-797.1C348.42,-785.1 333.69,-771.97 319.84,-759.62"/>
<polygon fill="black" stroke="black" points="322.04,-756.9 312.25,-752.85 317.38,-762.12 322.04,-756.9"/>
</g>
<!-- BB7 -->
<g id="node8" class="node">
<title>BB7</title>
<ellipse fill="none" stroke="black" cx="604.09" cy="-708.92" rx="103.48" ry="48.17"/>
<text text-anchor="middle" x="604.09" y="-727.72" font-family="Times New Roman,serif" font-size="14.00">[32..34)</text>
<text text-anchor="middle" x="604.09" y="-712.72" font-family="Times New Roman,serif" font-size="14.00">Count: 1788</text>
<text text-anchor="middle" x="604.09" y="-697.72" font-family="Times New Roman,serif" font-size="14.00">Normalized count: 1.00</text>
<text text-anchor="middle" x="604.09" y="-682.72" font-family="Times New Roman,serif" font-size="14.00">Samples weight: 0.00</text>
</g>
<!-- BB6&#45;&gt;BB7 -->
<g id="edge10" class="edge">
<title>BB6&#45;&gt;BB7</title>
<path fill="none" stroke="black" d="M470.41,-799.61C491.71,-785.31 515.79,-769.16 537.58,-754.54"/>
<polygon fill="black" stroke="black" points="539.77,-757.28 546.13,-748.8 535.87,-751.47 539.77,-757.28"/>
</g>
<!-- BB8 -->
<g id="node9" class="node">
<title>BB8</title>
<ellipse fill="none" stroke="black" cx="668.09" cy="-576.75" rx="118.17" ry="48.17"/>
<text text-anchor="middle" x="668.09" y="-595.55" font-family="Times New Roman,serif" font-size="14.00">[34..44)</text>
<text text-anchor="middle" x="668.09" y="-580.55" font-family="Times New Roman,serif" font-size="14.00">Count: 9832212</text>
<text text-anchor="middle" x="668.09" y="-565.55" font-family="Times New Roman,serif" font-size="14.00">Normalized count: 5499.00</text>
<text text-anchor="middle" x="668.09" y="-550.55" font-family="Times New Roman,serif" font-size="14.00">Samples weight: 0.02</text>
</g>
<!-- BB7&#45;&gt;BB8 -->
<g id="edge11" class="edge">
<title>BB7&#45;&gt;BB8</title>
<path fill="none" stroke="black" d="M626.83,-661.66C631.3,-652.56 636.04,-642.93 640.65,-633.55"/>
<polygon fill="black" stroke="black" points="643.93,-634.82 645.2,-624.3 637.65,-631.73 643.93,-634.82"/>
</g>
<!-- BB14 -->
<g id="node15" class="node">
<title>BB14</title>
<ellipse fill="none" stroke="black" cx="668.09" cy="-444.58" rx="122.16" ry="48.17"/>
<text text-anchor="middle" x="668.09" y="-463.38" font-family="Times New Roman,serif" font-size="14.00">[6a..6e)</text>
<text text-anchor="middle" x="668.09" y="-448.38" font-family="Times New Roman,serif" font-size="14.00">Count: 106457520</text>
<text text-anchor="middle" x="668.09" y="-433.38" font-family="Times New Roman,serif" font-size="14.00">Normalized count: 59540.00</text>
<text text-anchor="middle" x="668.09" y="-418.38" font-family="Times New Roman,serif" font-size="14.00">Samples weight: 0.17</text>
</g>
<!-- BB8&#45;&gt;BB14 -->
<g id="edge12" class="edge">
<title>BB8&#45;&gt;BB14</title>
<path fill="none" stroke="black" d="M668.09,-528.39C668.09,-520.12 668.09,-511.44 668.09,-502.93"/>
<polygon fill="black" stroke="black" points="671.59,-502.69 668.09,-492.69 664.59,-502.69 671.59,-502.69"/>
</g>
<!-- BB9 -->
<g id="node10" class="node">
<title>BB9</title>
<ellipse fill="none" stroke="black" cx="641.09" cy="-312.42" rx="122.16" ry="48.17"/>
<text text-anchor="middle" x="641.09" y="-331.22" font-family="Times New Roman,serif" font-size="14.00">[44..4a)</text>
<text text-anchor="middle" x="641.09" y="-316.22" font-family="Times New Roman,serif" font-size="14.00">Count: 98112924</text>
<text text-anchor="middle" x="641.09" y="-301.22" font-family="Times New Roman,serif" font-size="14.00">Normalized count: 54873.00</text>
<text text-anchor="middle" x="641.09" y="-286.22" font-family="Times New Roman,serif" font-size="14.00">Samples weight: 0.16</text>
</g>
<!-- BB10 -->
<g id="node11" class="node">
<title>BB10</title>
<ellipse fill="none" stroke="black" cx="636.09" cy="-180.25" rx="122.16" ry="48.17"/>
<text text-anchor="middle" x="636.09" y="-199.05" font-family="Times New Roman,serif" font-size="14.00">[4a..54)</text>
<text text-anchor="middle" x="636.09" y="-184.05" font-family="Times New Roman,serif" font-size="14.00">Count: 98071800</text>
<text text-anchor="middle" x="636.09" y="-169.05" font-family="Times New Roman,serif" font-size="14.00">Normalized count: 54850.00</text>
<text text-anchor="middle" x="636.09" y="-154.05" font-family="Times New Roman,serif" font-size="14.00">Samples weight: 0.16</text>
</g>
<!-- BB9&#45;&gt;BB10 -->
<g id="edge14" class="edge">
<title>BB9&#45;&gt;BB10</title>
<path fill="none" stroke="black" d="M639.27,-264.05C638.95,-255.79 638.62,-247.1 638.29,-238.6"/>
<polygon fill="black" stroke="black" points="641.78,-238.22 637.9,-228.36 634.78,-238.48 641.78,-238.22"/>
</g>
<!-- BB12 -->
<g id="node13" class="node">
<title>BB12</title>
<ellipse fill="none" stroke="black" cx="899.09" cy="-180.25" rx="122.16" ry="48.17"/>
<text text-anchor="middle" x="899.09" y="-199.05" font-family="Times New Roman,serif" font-size="14.00">[58..5e)</text>
<text text-anchor="middle" x="899.09" y="-184.05" font-family="Times New Roman,serif" font-size="14.00">Count: 98112924</text>
<text text-anchor="middle" x="899.09" y="-169.05" font-family="Times New Roman,serif" font-size="14.00">Normalized count: 54873.00</text>
<text text-anchor="middle" x="899.09" y="-154.05" font-family="Times New Roman,serif" font-size="14.00">Samples weight: 0.16</text>
</g>
<!-- BB9&#45;&gt;BB12 -->
<g id="edge13" class="edge">
<title>BB9&#45;&gt;BB12</title>
<path fill="none" stroke="black" d="M715.36,-273.94C746.8,-258.08 783.55,-239.54 815.89,-223.22"/>
<polygon fill="black" stroke="black" points="817.53,-226.31 824.89,-218.69 814.38,-220.07 817.53,-226.31"/>
</g>
<!-- BB11 -->
<g id="node12" class="node">
<title>BB11</title>
<ellipse fill="none" stroke="black" cx="861.09" cy="-48.08" rx="122.16" ry="48.17"/>
<text text-anchor="middle" x="861.09" y="-66.88" font-family="Times New Roman,serif" font-size="14.00">[54..58)</text>
<text text-anchor="middle" x="861.09" y="-51.88" font-family="Times New Roman,serif" font-size="14.00">Count: 45983784</text>
<text text-anchor="middle" x="861.09" y="-36.88" font-family="Times New Roman,serif" font-size="14.00">Normalized count: 25718.00</text>
<text text-anchor="middle" x="861.09" y="-21.88" font-family="Times New Roman,serif" font-size="14.00">Samples weight: 0.08</text>
</g>
<!-- BB10&#45;&gt;BB11 -->
<g id="edge16" class="edge">
<title>BB10&#45;&gt;BB11</title>
<path fill="none" stroke="black" d="M703.9,-140.02C729.36,-125.29 758.46,-108.45 784.65,-93.3"/>
<polygon fill="black" stroke="black" points="786.51,-96.27 793.41,-88.23 783,-90.21 786.51,-96.27"/>
</g>
<!-- BB10&#45;&gt;BB12 -->
<g id="edge15" class="edge">
<title>BB10&#45;&gt;BB12</title>
<path fill="none" stroke="black" d="M758.6,-180.25C761.24,-180.25 763.88,-180.25 766.52,-180.25"/>
<polygon fill="black" stroke="black" points="766.71,-183.75 776.71,-180.25 766.71,-176.75 766.71,-183.75"/>
</g>
<!-- BB11&#45;&gt;BB12 -->
<g id="edge17" class="edge">
<title>BB11&#45;&gt;BB12</title>
<path fill="none" stroke="black" d="M874.79,-96.01C877.29,-104.58 879.92,-113.6 882.5,-122.42"/>
<polygon fill="black" stroke="black" points="879.21,-123.64 885.37,-132.26 885.93,-121.68 879.21,-123.64"/>
</g>
<!-- BB13 -->
<g id="node14" class="node">
<title>BB13</title>
<ellipse fill="none" stroke="black" cx="561.09" cy="-48.08" rx="122.16" ry="48.17"/>
<text text-anchor="middle" x="561.09" y="-66.88" font-family="Times New Roman,serif" font-size="14.00">[5e..6a)</text>
<text text-anchor="middle" x="561.09" y="-51.88" font-family="Times New Roman,serif" font-size="14.00">Count: 96625308</text>
<text text-anchor="middle" x="561.09" y="-36.88" font-family="Times New Roman,serif" font-size="14.00">Normalized count: 54041.00</text>
<text text-anchor="middle" x="561.09" y="-21.88" font-family="Times New Roman,serif" font-size="14.00">Samples weight: 0.16</text>
</g>
<!-- BB12&#45;&gt;BB13 -->
<g id="edge19" class="edge">
<title>BB12&#45;&gt;BB13</title>
<path fill="none" stroke="black" d="M812.92,-146.07C765.24,-127.7 705.87,-104.84 656.75,-85.92"/>
<polygon fill="black" stroke="black" points="657.98,-82.65 647.39,-82.32 655.46,-89.18 657.98,-82.65"/>
</g>
<!-- BB15 -->
<g id="node16" class="node">
<title>BB15</title>
<ellipse fill="none" stroke="black" cx="899.09" cy="-312.42" rx="118.17" ry="48.17"/>
<text text-anchor="middle" x="899.09" y="-331.22" font-family="Times New Roman,serif" font-size="14.00">[6e..7a)</text>
<text text-anchor="middle" x="899.09" y="-316.22" font-family="Times New Roman,serif" font-size="14.00">Count: 9832212</text>
<text text-anchor="middle" x="899.09" y="-301.22" font-family="Times New Roman,serif" font-size="14.00">Normalized count: 5499.00</text>
<text text-anchor="middle" x="899.09" y="-286.22" font-family="Times New Roman,serif" font-size="14.00">Samples weight: 0.02</text>
</g>
<!-- BB12&#45;&gt;BB15 -->
<g id="edge18" class="edge">
<title>BB12&#45;&gt;BB15</title>
<path fill="none" stroke="black" d="M899.09,-228.36C899.09,-236.62 899.09,-245.3 899.09,-253.8"/>
<polygon fill="black" stroke="black" points="895.59,-254.05 899.09,-264.05 902.59,-254.06 895.59,-254.05"/>
</g>
<!-- BB13&#45;&gt;BB14 -->
<g id="edge20" class="edge">
<title>BB13&#45;&gt;BB14</title>
<path fill="none" stroke="black" d="M523.84,-94.03C516.15,-105.75 509.15,-118.86 505.09,-132.17 475.43,-229.24 455.97,-274.62 510.09,-360.5 523.16,-381.24 543.23,-397.1 564.74,-409.11"/>
<polygon fill="black" stroke="black" points="563.22,-412.26 573.7,-413.85 566.5,-406.08 563.22,-412.26"/>
</g>
<!-- BB14&#45;&gt;BB9 -->
<g id="edge21" class="edge">
<title>BB14&#45;&gt;BB9</title>
<path fill="none" stroke="black" d="M658.34,-396.59C656.6,-388.22 654.77,-379.41 652.99,-370.78"/>
<polygon fill="black" stroke="black" points="656.37,-369.86 650.91,-360.78 649.51,-371.28 656.37,-369.86"/>
</g>
<!-- BB14&#45;&gt;BB15 -->
<g id="edge22" class="edge">
<title>BB14&#45;&gt;BB15</title>
<path fill="none" stroke="black" d="M737.08,-404.7C763.83,-389.63 794.58,-372.3 822.05,-356.83"/>
<polygon fill="black" stroke="black" points="823.85,-359.83 830.85,-351.87 820.42,-353.73 823.85,-359.83"/>
</g>
<!-- BB15&#45;&gt;BB8 -->
<g id="edge23" class="edge">
<title>BB15&#45;&gt;BB8</title>
<path fill="none" stroke="black" d="M880.74,-360.18C863.83,-398.96 835.8,-453.82 799.09,-492.67 784.7,-507.89 766.96,-521.53 749.24,-533.15"/>
<polygon fill="black" stroke="black" points="747.11,-530.36 740.56,-538.68 750.87,-536.26 747.11,-530.36"/>
</g>
<!-- BB16 -->
<g id="node17" class="node">
<title>BB16</title>
<ellipse fill="none" stroke="black" cx="1143.09" cy="-180.25" rx="103.48" ry="48.17"/>
<text text-anchor="middle" x="1143.09" y="-199.05" font-family="Times New Roman,serif" font-size="14.00">[7a..7b)</text>
<text text-anchor="middle" x="1143.09" y="-184.05" font-family="Times New Roman,serif" font-size="14.00">Count: 1788</text>
<text text-anchor="middle" x="1143.09" y="-169.05" font-family="Times New Roman,serif" font-size="14.00">Normalized count: 1.00</text>
<text text-anchor="middle" x="1143.09" y="-154.05" font-family="Times New Roman,serif" font-size="14.00">Samples weight: 0.00</text>
</g>
<!-- BB15&#45;&gt;BB16 -->
<g id="edge24" class="edge">
<title>BB15&#45;&gt;BB16</title>
<path fill="none" stroke="black" d="M969.66,-273.77C1000.15,-257.5 1035.88,-238.44 1066.97,-221.86"/>
<polygon fill="black" stroke="black" points="1068.85,-224.82 1076.02,-217.03 1065.55,-218.64 1068.85,-224.82"/>
</g>
</g>
</svg>
