<?xml version="1.0" encoding="UTF-8" standalone="no"?>
<!DOCTYPE svg PUBLIC "-//W3C//DTD SVG 1.1//EN"
 "http://www.w3.org/Graphics/SVG/1.1/DTD/svg11.dtd">
<!-- Generated by graphviz version 2.47.0 (20210316.0004)
 -->
<!-- Title: G Pages: 1 -->
<svg width="1163pt" height="1029pt"
 viewBox="0.00 0.00 1163.48 1029.33" xmlns="http://www.w3.org/2000/svg" xmlns:xlink="http://www.w3.org/1999/xlink">
<g id="graph0" class="graph" transform="scale(1 1) rotate(0) translate(4 1025.33)">
<title>G</title>
<polygon fill="white" stroke="transparent" points="-4,4 -4,-1025.33 1159.48,-1025.33 1159.48,4 -4,4"/>
<!-- BB0 -->
<g id="node1" class="node">
<title>BB0</title>
<ellipse fill="none" stroke="black" cx="370.24" cy="-973.25" rx="103.48" ry="48.17"/>
<text text-anchor="middle" x="370.24" y="-992.05" font-family="Times New Roman,serif" font-size="14.00">[0..4)</text>
<text text-anchor="middle" x="370.24" y="-977.05" font-family="Times New Roman,serif" font-size="14.00">Count: 2</text>
<text text-anchor="middle" x="370.24" y="-962.05" font-family="Times New Roman,serif" font-size="14.00">Normalized count: 1.00</text>
<text text-anchor="middle" x="370.24" y="-947.05" font-family="Times New Roman,serif" font-size="14.00">Samples weight: 0.00</text>
</g>
<!-- BB6 -->
<g id="node7" class="node">
<title>BB6</title>
<ellipse fill="none" stroke="black" cx="370.24" cy="-841.08" rx="108.38" ry="48.17"/>
<text text-anchor="middle" x="370.24" y="-859.88" font-family="Times New Roman,serif" font-size="14.00">[2e..32)</text>
<text text-anchor="middle" x="370.24" y="-844.88" font-family="Times New Roman,serif" font-size="14.00">Count: 24</text>
<text text-anchor="middle" x="370.24" y="-829.88" font-family="Times New Roman,serif" font-size="14.00">Normalized count: 12.00</text>
<text text-anchor="middle" x="370.24" y="-814.88" font-family="Times New Roman,serif" font-size="14.00">Samples weight: 0.02</text>
</g>
<!-- BB0&#45;&gt;BB6 -->
<g id="edge1" class="edge">
<title>BB0&#45;&gt;BB6</title>
<path fill="none" stroke="black" d="M370.24,-924.89C370.24,-916.62 370.24,-907.94 370.24,-899.43"/>
<polygon fill="black" stroke="black" points="373.74,-899.19 370.24,-889.19 366.74,-899.19 373.74,-899.19"/>
</g>
<!-- BB1 -->
<g id="node2" class="node">
<title>BB1</title>
<ellipse fill="none" stroke="black" cx="234.24" cy="-708.92" rx="108.38" ry="48.17"/>
<text text-anchor="middle" x="234.24" y="-727.72" font-family="Times New Roman,serif" font-size="14.00">[4..10)</text>
<text text-anchor="middle" x="234.24" y="-712.72" font-family="Times New Roman,serif" font-size="14.00">Count: 22</text>
<text text-anchor="middle" x="234.24" y="-697.72" font-family="Times New Roman,serif" font-size="14.00">Normalized count: 11.00</text>
<text text-anchor="middle" x="234.24" y="-682.72" font-family="Times New Roman,serif" font-size="14.00">Samples weight: 0.02</text>
</g>
<!-- BB4 -->
<g id="node5" class="node">
<title>BB4</title>
<ellipse fill="none" stroke="black" cx="234.24" cy="-576.75" rx="108.38" ry="48.17"/>
<text text-anchor="middle" x="234.24" y="-595.55" font-family="Times New Roman,serif" font-size="14.00">[22..26)</text>
<text text-anchor="middle" x="234.24" y="-580.55" font-family="Times New Roman,serif" font-size="14.00">Count: 22</text>
<text text-anchor="middle" x="234.24" y="-565.55" font-family="Times New Roman,serif" font-size="14.00">Normalized count: 11.00</text>
<text text-anchor="middle" x="234.24" y="-550.55" font-family="Times New Roman,serif" font-size="14.00">Samples weight: 0.02</text>
</g>
<!-- BB1&#45;&gt;BB4 -->
<g id="edge2" class="edge">
<title>BB1&#45;&gt;BB4</title>
<path fill="none" stroke="black" d="M234.24,-660.55C234.24,-652.29 234.24,-643.6 234.24,-635.1"/>
<polygon fill="black" stroke="black" points="237.74,-634.86 234.24,-624.86 230.74,-634.86 237.74,-634.86"/>
</g>
<!-- BB2 -->
<g id="node3" class="node">
<title>BB2</title>
<ellipse fill="none" stroke="black" cx="103.24" cy="-444.58" rx="103.48" ry="48.17"/>
<text text-anchor="middle" x="103.24" y="-463.38" font-family="Times New Roman,serif" font-size="14.00">[10..16)</text>
<text text-anchor="middle" x="103.24" y="-448.38" font-family="Times New Roman,serif" font-size="14.00">Count: 19</text>
<text text-anchor="middle" x="103.24" y="-433.38" font-family="Times New Roman,serif" font-size="14.00">Normalized count: 9.50</text>
<text text-anchor="middle" x="103.24" y="-418.38" font-family="Times New Roman,serif" font-size="14.00">Samples weight: 0.01</text>
</g>
<!-- BB3 -->
<g id="node4" class="node">
<title>BB3</title>
<ellipse fill="none" stroke="black" cx="168.24" cy="-312.42" rx="103.48" ry="48.17"/>
<text text-anchor="middle" x="168.24" y="-331.22" font-family="Times New Roman,serif" font-size="14.00">[16..22)</text>
<text text-anchor="middle" x="168.24" y="-316.22" font-family="Times New Roman,serif" font-size="14.00">Count: 0</text>
<text text-anchor="middle" x="168.24" y="-301.22" font-family="Times New Roman,serif" font-size="14.00">Normalized count: 0.00</text>
<text text-anchor="middle" x="168.24" y="-286.22" font-family="Times New Roman,serif" font-size="14.00">Samples weight: 0.00</text>
</g>
<!-- BB2&#45;&gt;BB3 -->
<g id="edge4" class="edge">
<title>BB2&#45;&gt;BB3</title>
<path fill="none" stroke="black" d="M126.15,-397.69C130.86,-388.26 135.87,-378.24 140.72,-368.53"/>
<polygon fill="black" stroke="black" points="143.97,-369.84 145.31,-359.33 137.71,-366.72 143.97,-369.84"/>
</g>
<!-- BB5 -->
<g id="node6" class="node">
<title>BB5</title>
<ellipse fill="none" stroke="black" cx="370.24" cy="-444.58" rx="108.38" ry="48.17"/>
<text text-anchor="middle" x="370.24" y="-463.38" font-family="Times New Roman,serif" font-size="14.00">[26..2e)</text>
<text text-anchor="middle" x="370.24" y="-448.38" font-family="Times New Roman,serif" font-size="14.00">Count: 22</text>
<text text-anchor="middle" x="370.24" y="-433.38" font-family="Times New Roman,serif" font-size="14.00">Normalized count: 11.00</text>
<text text-anchor="middle" x="370.24" y="-418.38" font-family="Times New Roman,serif" font-size="14.00">Samples weight: 0.02</text>
</g>
<!-- BB2&#45;&gt;BB5 -->
<g id="edge3" class="edge">
<title>BB2&#45;&gt;BB5</title>
<path fill="none" stroke="black" d="M206.49,-444.58C221.48,-444.58 236.46,-444.58 251.45,-444.58"/>
<polygon fill="black" stroke="black" points="251.82,-448.08 261.82,-444.58 251.82,-441.08 251.82,-448.08"/>
</g>
<!-- BB3&#45;&gt;BB4 -->
<g id="edge5" class="edge">
<title>BB3&#45;&gt;BB4</title>
<path fill="none" stroke="black" d="M198.11,-358.45C204.78,-370.38 211.09,-383.56 215.24,-396.5 227.89,-435.96 232.53,-482.56 234.07,-518.36"/>
<polygon fill="black" stroke="black" points="230.59,-518.76 234.44,-528.63 237.58,-518.51 230.59,-518.76"/>
</g>
<!-- BB4&#45;&gt;BB2 -->
<g id="edge6" class="edge">
<title>BB4&#45;&gt;BB2</title>
<path fill="none" stroke="black" d="M190.62,-532.41C178.91,-520.77 166.14,-508.09 154.07,-496.1"/>
<polygon fill="black" stroke="black" points="156.23,-493.3 146.67,-488.74 151.29,-498.27 156.23,-493.3"/>
</g>
<!-- BB4&#45;&gt;BB5 -->
<g id="edge7" class="edge">
<title>BB4&#45;&gt;BB5</title>
<path fill="none" stroke="black" d="M279.15,-532.77C291.56,-520.88 305.15,-507.88 317.95,-495.63"/>
<polygon fill="black" stroke="black" points="320.57,-497.96 325.38,-488.52 315.73,-492.91 320.57,-497.96"/>
</g>
<!-- BB5&#45;&gt;BB6 -->
<g id="edge8" class="edge">
<title>BB5&#45;&gt;BB6</title>
<path fill="none" stroke="black" d="M370.24,-492.83C370.24,-565.48 370.24,-704.4 370.24,-782.72"/>
<polygon fill="black" stroke="black" points="366.74,-782.89 370.24,-792.89 373.74,-782.89 366.74,-782.89"/>
</g>
<!-- BB6&#45;&gt;BB1 -->
<g id="edge9" class="edge">
<title>BB6&#45;&gt;BB1</title>
<path fill="none" stroke="black" d="M325.33,-797.1C312.91,-785.21 299.33,-772.21 286.53,-759.96"/>
<polygon fill="black" stroke="black" points="288.74,-757.24 279.1,-752.85 283.9,-762.3 288.74,-757.24"/>
</g>
<!-- BB7 -->
<g id="node8" class="node">
<title>BB7</title>
<ellipse fill="none" stroke="black" cx="555.24" cy="-708.92" rx="103.48" ry="48.17"/>
<text text-anchor="middle" x="555.24" y="-727.72" font-family="Times New Roman,serif" font-size="14.00">[32..34)</text>
<text text-anchor="middle" x="555.24" y="-712.72" font-family="Times New Roman,serif" font-size="14.00">Count: 2</text>
<text text-anchor="middle" x="555.24" y="-697.72" font-family="Times New Roman,serif" font-size="14.00">Normalized count: 1.00</text>
<text text-anchor="middle" x="555.24" y="-682.72" font-family="Times New Roman,serif" font-size="14.00">Samples weight: 0.00</text>
</g>
<!-- BB6&#45;&gt;BB7 -->
<g id="edge10" class="edge">
<title>BB6&#45;&gt;BB7</title>
<path fill="none" stroke="black" d="M427,-800.14C447.17,-785.96 470.01,-769.88 490.77,-755.28"/>
<polygon fill="black" stroke="black" points="493.05,-757.95 499.22,-749.33 489.03,-752.22 493.05,-757.95"/>
</g>
<!-- BB8 -->
<g id="node9" class="node">
<title>BB8</title>
<ellipse fill="none" stroke="black" cx="609.24" cy="-576.75" rx="108.38" ry="48.17"/>
<text text-anchor="middle" x="609.24" y="-595.55" font-family="Times New Roman,serif" font-size="14.00">[34..44)</text>
<text text-anchor="middle" x="609.24" y="-580.55" font-family="Times New Roman,serif" font-size="14.00">Count: 63</text>
<text text-anchor="middle" x="609.24" y="-565.55" font-family="Times New Roman,serif" font-size="14.00">Normalized count: 31.50</text>
<text text-anchor="middle" x="609.24" y="-550.55" font-family="Times New Roman,serif" font-size="14.00">Samples weight: 0.04</text>
</g>
<!-- BB7&#45;&gt;BB8 -->
<g id="edge11" class="edge">
<title>BB7&#45;&gt;BB8</title>
<path fill="none" stroke="black" d="M574.43,-661.66C578.2,-652.56 582.2,-642.93 586.09,-633.55"/>
<polygon fill="black" stroke="black" points="589.33,-634.88 589.93,-624.3 582.86,-632.19 589.33,-634.88"/>
</g>
<!-- BB14 -->
<g id="node15" class="node">
<title>BB14</title>
<ellipse fill="none" stroke="black" cx="609.24" cy="-444.58" rx="113.27" ry="48.17"/>
<text text-anchor="middle" x="609.24" y="-463.38" font-family="Times New Roman,serif" font-size="14.00">[6a..6e)</text>
<text text-anchor="middle" x="609.24" y="-448.38" font-family="Times New Roman,serif" font-size="14.00">Count: 276</text>
<text text-anchor="middle" x="609.24" y="-433.38" font-family="Times New Roman,serif" font-size="14.00">Normalized count: 138.00</text>
<text text-anchor="middle" x="609.24" y="-418.38" font-family="Times New Roman,serif" font-size="14.00">Samples weight: 0.19</text>
</g>
<!-- BB8&#45;&gt;BB14 -->
<g id="edge12" class="edge">
<title>BB8&#45;&gt;BB14</title>
<path fill="none" stroke="black" d="M609.24,-528.39C609.24,-520.12 609.24,-511.44 609.24,-502.93"/>
<polygon fill="black" stroke="black" points="612.74,-502.69 609.24,-492.69 605.74,-502.69 612.74,-502.69"/>
</g>
<!-- BB9 -->
<g id="node10" class="node">
<title>BB9</title>
<ellipse fill="none" stroke="black" cx="584.24" cy="-312.42" rx="113.27" ry="48.17"/>
<text text-anchor="middle" x="584.24" y="-331.22" font-family="Times New Roman,serif" font-size="14.00">[44..4a)</text>
<text text-anchor="middle" x="584.24" y="-316.22" font-family="Times New Roman,serif" font-size="14.00">Count: 236</text>
<text text-anchor="middle" x="584.24" y="-301.22" font-family="Times New Roman,serif" font-size="14.00">Normalized count: 118.00</text>
<text text-anchor="middle" x="584.24" y="-286.22" font-family="Times New Roman,serif" font-size="14.00">Samples weight: 0.16</text>
</g>
<!-- BB10 -->
<g id="node11" class="node">
<title>BB10</title>
<ellipse fill="none" stroke="black" cx="579.24" cy="-180.25" rx="108.38" ry="48.17"/>
<text text-anchor="middle" x="579.24" y="-199.05" font-family="Times New Roman,serif" font-size="14.00">[4a..54)</text>
<text text-anchor="middle" x="579.24" y="-184.05" font-family="Times New Roman,serif" font-size="14.00">Count: 144</text>
<text text-anchor="middle" x="579.24" y="-169.05" font-family="Times New Roman,serif" font-size="14.00">Normalized count: 72.00</text>
<text text-anchor="middle" x="579.24" y="-154.05" font-family="Times New Roman,serif" font-size="14.00">Samples weight: 0.10</text>
</g>
<!-- BB9&#45;&gt;BB10 -->
<g id="edge14" class="edge">
<title>BB9&#45;&gt;BB10</title>
<path fill="none" stroke="black" d="M582.42,-264.05C582.1,-255.79 581.77,-247.1 581.44,-238.6"/>
<polygon fill="black" stroke="black" points="584.93,-238.22 581.05,-228.36 577.93,-238.48 584.93,-238.22"/>
</g>
<!-- BB12 -->
<g id="node13" class="node">
<title>BB12</title>
<ellipse fill="none" stroke="black" cx="818.24" cy="-180.25" rx="113.27" ry="48.17"/>
<text text-anchor="middle" x="818.24" y="-199.05" font-family="Times New Roman,serif" font-size="14.00">[58..5e)</text>
<text text-anchor="middle" x="818.24" y="-184.05" font-family="Times New Roman,serif" font-size="14.00">Count: 236</text>
<text text-anchor="middle" x="818.24" y="-169.05" font-family="Times New Roman,serif" font-size="14.00">Normalized count: 118.00</text>
<text text-anchor="middle" x="818.24" y="-154.05" font-family="Times New Roman,serif" font-size="14.00">Samples weight: 0.16</text>
</g>
<!-- BB9&#45;&gt;BB12 -->
<g id="edge13" class="edge">
<title>BB9&#45;&gt;BB12</title>
<path fill="none" stroke="black" d="M651.92,-273.77C679.93,-258.18 712.56,-240.03 741.46,-223.96"/>
<polygon fill="black" stroke="black" points="743.26,-226.96 750.3,-219.04 739.86,-220.84 743.26,-226.96"/>
</g>
<!-- BB11 -->
<g id="node12" class="node">
<title>BB11</title>
<ellipse fill="none" stroke="black" cx="784.24" cy="-48.08" rx="108.38" ry="48.17"/>
<text text-anchor="middle" x="784.24" y="-66.88" font-family="Times New Roman,serif" font-size="14.00">[54..58)</text>
<text text-anchor="middle" x="784.24" y="-51.88" font-family="Times New Roman,serif" font-size="14.00">Count: 107</text>
<text text-anchor="middle" x="784.24" y="-36.88" font-family="Times New Roman,serif" font-size="14.00">Normalized count: 53.50</text>
<text text-anchor="middle" x="784.24" y="-21.88" font-family="Times New Roman,serif" font-size="14.00">Samples weight: 0.07</text>
</g>
<!-- BB10&#45;&gt;BB11 -->
<g id="edge16" class="edge">
<title>BB10&#45;&gt;BB11</title>
<path fill="none" stroke="black" d="M640.47,-140.37C663.69,-125.63 690.3,-108.73 714.27,-93.51"/>
<polygon fill="black" stroke="black" points="716.4,-96.3 722.97,-87.99 712.65,-90.39 716.4,-96.3"/>
</g>
<!-- BB10&#45;&gt;BB12 -->
<g id="edge15" class="edge">
<title>BB10&#45;&gt;BB12</title>
<path fill="none" stroke="black" d="M687.53,-180.25C689.98,-180.25 692.42,-180.25 694.86,-180.25"/>
<polygon fill="black" stroke="black" points="694.89,-183.75 704.89,-180.25 694.89,-176.75 694.89,-183.75"/>
</g>
<!-- BB11&#45;&gt;BB12 -->
<g id="edge17" class="edge">
<title>BB11&#45;&gt;BB12</title>
<path fill="none" stroke="black" d="M796.49,-96.01C798.73,-104.58 801.09,-113.6 803.39,-122.42"/>
<polygon fill="black" stroke="black" points="800.05,-123.47 805.96,-132.26 806.82,-121.7 800.05,-123.47"/>
</g>
<!-- BB13 -->
<g id="node14" class="node">
<title>BB13</title>
<ellipse fill="none" stroke="black" cx="511.24" cy="-48.08" rx="113.27" ry="48.17"/>
<text text-anchor="middle" x="511.24" y="-66.88" font-family="Times New Roman,serif" font-size="14.00">[5e..6a)</text>
<text text-anchor="middle" x="511.24" y="-51.88" font-family="Times New Roman,serif" font-size="14.00">Count: 213</text>
<text text-anchor="middle" x="511.24" y="-36.88" font-family="Times New Roman,serif" font-size="14.00">Normalized count: 106.50</text>
<text text-anchor="middle" x="511.24" y="-21.88" font-family="Times New Roman,serif" font-size="14.00">Samples weight: 0.15</text>
</g>
<!-- BB12&#45;&gt;BB13 -->
<g id="edge19" class="edge">
<title>BB12&#45;&gt;BB13</title>
<path fill="none" stroke="black" d="M739.18,-145.73C696.47,-127.62 643.61,-105.21 599.56,-86.53"/>
<polygon fill="black" stroke="black" points="600.87,-83.29 590.3,-82.6 598.14,-89.73 600.87,-83.29"/>
</g>
<!-- BB15 -->
<g id="node16" class="node">
<title>BB15</title>
<ellipse fill="none" stroke="black" cx="823.24" cy="-312.42" rx="108.38" ry="48.17"/>
<text text-anchor="middle" x="823.24" y="-331.22" font-family="Times New Roman,serif" font-size="14.00">[6e..7a)</text>
<text text-anchor="middle" x="823.24" y="-316.22" font-family="Times New Roman,serif" font-size="14.00">Count: 63</text>
<text text-anchor="middle" x="823.24" y="-301.22" font-family="Times New Roman,serif" font-size="14.00">Normalized count: 31.50</text>
<text text-anchor="middle" x="823.24" y="-286.22" font-family="Times New Roman,serif" font-size="14.00">Samples weight: 0.04</text>
</g>
<!-- BB12&#45;&gt;BB15 -->
<g id="edge18" class="edge">
<title>BB12&#45;&gt;BB15</title>
<path fill="none" stroke="black" d="M820.05,-228.36C820.36,-236.62 820.7,-245.3 821.02,-253.8"/>
<polygon fill="black" stroke="black" points="817.54,-254.2 821.42,-264.05 824.53,-253.93 817.54,-254.2"/>
</g>
<!-- BB13&#45;&gt;BB14 -->
<g id="edge20" class="edge">
<title>BB13&#45;&gt;BB14</title>
<path fill="none" stroke="black" d="M478.6,-94.57C471.87,-106.28 465.76,-119.24 462.24,-132.17 435.52,-230.07 411.09,-272.85 462.24,-360.5 474.13,-380.88 493.08,-396.66 513.47,-408.72"/>
<polygon fill="black" stroke="black" points="511.85,-411.82 522.28,-413.66 515.27,-405.71 511.85,-411.82"/>
</g>
<!-- BB14&#45;&gt;BB9 -->
<g id="edge21" class="edge">
<title>BB14&#45;&gt;BB9</title>
<path fill="none" stroke="black" d="M600.21,-396.59C598.6,-388.22 596.91,-379.41 595.26,-370.78"/>
<polygon fill="black" stroke="black" points="598.66,-369.94 593.33,-360.78 591.78,-371.26 598.66,-369.94"/>
</g>
<!-- BB14&#45;&gt;BB15 -->
<g id="edge22" class="edge">
<title>BB14&#45;&gt;BB15</title>
<path fill="none" stroke="black" d="M673.15,-404.7C697.83,-389.69 726.18,-372.45 751.55,-357.02"/>
<polygon fill="black" stroke="black" points="753.66,-359.83 760.39,-351.65 750.02,-353.85 753.66,-359.83"/>
</g>
<!-- BB15&#45;&gt;BB8 -->
<g id="edge23" class="edge">
<title>BB15&#45;&gt;BB8</title>
<path fill="none" stroke="black" d="M806.69,-360.32C791.42,-398.93 765.86,-453.47 731.24,-492.67 717.95,-507.71 701.36,-521.33 684.75,-532.99"/>
<polygon fill="black" stroke="black" points="682.37,-530.37 676.08,-538.9 686.31,-536.16 682.37,-530.37"/>
</g>
<!-- BB16 -->
<g id="node17" class="node">
<title>BB16</title>
<ellipse fill="none" stroke="black" cx="1052.24" cy="-180.25" rx="103.48" ry="48.17"/>
<text text-anchor="middle" x="1052.24" y="-199.05" font-family="Times New Roman,serif" font-size="14.00">[7a..7b)</text>
<text text-anchor="middle" x="1052.24" y="-184.05" font-family="Times New Roman,serif" font-size="14.00">Count: 2</text>
<text text-anchor="middle" x="1052.24" y="-169.05" font-family="Times New Roman,serif" font-size="14.00">Normalized count: 1.00</text>
<text text-anchor="middle" x="1052.24" y="-154.05" font-family="Times New Roman,serif" font-size="14.00">Samples weight: 0.00</text>
</g>
<!-- BB15&#45;&gt;BB16 -->
<g id="edge24" class="edge">
<title>BB15&#45;&gt;BB16</title>
<path fill="none" stroke="black" d="M888.86,-274.12C917.01,-258.12 950.01,-239.36 978.95,-222.91"/>
<polygon fill="black" stroke="black" points="980.83,-225.87 987.79,-217.88 977.37,-219.78 980.83,-225.87"/>
</g>
</g>
</svg>
