<?xml version="1.0" encoding="UTF-8" standalone="no"?>
<!DOCTYPE svg PUBLIC "-//W3C//DTD SVG 1.1//EN"
 "http://www.w3.org/Graphics/SVG/1.1/DTD/svg11.dtd">
<!-- Generated by graphviz version 2.47.0 (20210316.0004)
 -->
<!-- Title: G Pages: 1 -->
<svg width="659pt" height="869pt"
 viewBox="0.00 0.00 659.05 869.40" xmlns="http://www.w3.org/2000/svg" xmlns:xlink="http://www.w3.org/1999/xlink">
<g id="graph0" class="graph" transform="scale(1 1) rotate(0) translate(4 865.4)">
<title>G</title>
<polygon fill="white" stroke="transparent" points="-4,4 -4,-865.4 655.05,-865.4 655.05,4 -4,4"/>
<!-- BB0 -->
<g id="node1" class="node">
<title>BB0</title>
<ellipse fill="none" stroke="black" cx="343.72" cy="-834.53" rx="37.45" ry="26.74"/>
<text text-anchor="middle" x="343.72" y="-838.33" font-family="Times New Roman,serif" font-size="14.00">[0..12)</text>
<text text-anchor="middle" x="343.72" y="-823.33" font-family="Times New Roman,serif" font-size="14.00">0.00</text>
</g>
<!-- BB1 -->
<g id="node2" class="node">
<title>BB1</title>
<ellipse fill="none" stroke="black" cx="292.72" cy="-744.79" rx="42.35" ry="26.74"/>
<text text-anchor="middle" x="292.72" y="-748.59" font-family="Times New Roman,serif" font-size="14.00">[12..32)</text>
<text text-anchor="middle" x="292.72" y="-733.59" font-family="Times New Roman,serif" font-size="14.00">0.00</text>
</g>
<!-- BB0&#45;&gt;BB1 -->
<g id="edge2" class="edge">
<title>BB0&#45;&gt;BB1</title>
<path fill="none" stroke="black" d="M329.78,-809.56C324.31,-800.14 317.93,-789.17 312.03,-779.01"/>
<polygon fill="black" stroke="black" points="315.04,-777.23 306.99,-770.35 308.99,-780.75 315.04,-777.23"/>
</g>
<!-- BB2 -->
<g id="node3" class="node">
<title>BB2</title>
<ellipse fill="none" stroke="black" cx="395.72" cy="-744.79" rx="42.35" ry="26.74"/>
<text text-anchor="middle" x="395.72" y="-748.59" font-family="Times New Roman,serif" font-size="14.00">[32..39)</text>
<text text-anchor="middle" x="395.72" y="-733.59" font-family="Times New Roman,serif" font-size="14.00">0.00</text>
</g>
<!-- BB0&#45;&gt;BB2 -->
<g id="edge1" class="edge">
<title>BB0&#45;&gt;BB2</title>
<path fill="none" stroke="black" d="M357.93,-809.56C363.51,-800.14 370.01,-789.17 376.03,-779.01"/>
<polygon fill="black" stroke="black" points="379.08,-780.74 381.17,-770.35 373.06,-777.17 379.08,-780.74"/>
</g>
<!-- BB1&#45;&gt;BB2 -->
<g id="edge3" class="edge">
<title>BB1&#45;&gt;BB2</title>
<path fill="none" stroke="black" d="M335.37,-744.79C337.98,-744.79 340.59,-744.79 343.21,-744.79"/>
<polygon fill="black" stroke="black" points="343.28,-748.29 353.28,-744.79 343.28,-741.29 343.28,-748.29"/>
</g>
<!-- BB15 -->
<g id="node16" class="node">
<title>BB15</title>
<ellipse fill="none" stroke="black" cx="395.72" cy="-655.05" rx="52.15" ry="26.74"/>
<text text-anchor="middle" x="395.72" y="-658.85" font-family="Times New Roman,serif" font-size="14.00">[12d..134)</text>
<text text-anchor="middle" x="395.72" y="-643.85" font-family="Times New Roman,serif" font-size="14.00">0.00</text>
</g>
<!-- BB2&#45;&gt;BB15 -->
<g id="edge4" class="edge">
<title>BB2&#45;&gt;BB15</title>
<path fill="none" stroke="black" d="M395.72,-717.47C395.72,-709.5 395.72,-700.61 395.72,-692.12"/>
<polygon fill="black" stroke="black" points="399.22,-692.05 395.72,-682.05 392.22,-692.05 399.22,-692.05"/>
</g>
<!-- BB3 -->
<g id="node4" class="node">
<title>BB3</title>
<ellipse fill="none" stroke="black" cx="320.72" cy="-565.31" rx="42.35" ry="26.74"/>
<text text-anchor="middle" x="320.72" y="-569.11" font-family="Times New Roman,serif" font-size="14.00">[39..62)</text>
<text text-anchor="middle" x="320.72" y="-554.11" font-family="Times New Roman,serif" font-size="14.00">0.00</text>
</g>
<!-- BB11 -->
<g id="node12" class="node">
<title>BB11</title>
<ellipse fill="none" stroke="black" cx="254.72" cy="-475.57" rx="51.74" ry="26.74"/>
<text text-anchor="middle" x="254.72" y="-479.37" font-family="Times New Roman,serif" font-size="14.00">[106..10e)</text>
<text text-anchor="middle" x="254.72" y="-464.37" font-family="Times New Roman,serif" font-size="14.00">0.02</text>
</g>
<!-- BB3&#45;&gt;BB11 -->
<g id="edge5" class="edge">
<title>BB3&#45;&gt;BB11</title>
<path fill="none" stroke="black" d="M303.03,-540.8C295.68,-531.02 287.03,-519.52 279.09,-508.97"/>
<polygon fill="black" stroke="black" points="281.72,-506.65 272.92,-500.76 276.13,-510.86 281.72,-506.65"/>
</g>
<!-- BB4 -->
<g id="node5" class="node">
<title>BB4</title>
<ellipse fill="none" stroke="black" cx="143.72" cy="-385.83" rx="43.27" ry="26.74"/>
<text text-anchor="middle" x="143.72" y="-389.63" font-family="Times New Roman,serif" font-size="14.00">[62..9d)</text>
<text text-anchor="middle" x="143.72" y="-374.63" font-family="Times New Roman,serif" font-size="14.00">0.02</text>
</g>
<!-- BB5 -->
<g id="node6" class="node">
<title>BB5</title>
<ellipse fill="none" stroke="black" cx="143.72" cy="-296.09" rx="41.94" ry="26.74"/>
<text text-anchor="middle" x="143.72" y="-299.89" font-family="Times New Roman,serif" font-size="14.00">[9d..cf)</text>
<text text-anchor="middle" x="143.72" y="-284.89" font-family="Times New Roman,serif" font-size="14.00">0.46</text>
</g>
<!-- BB4&#45;&gt;BB5 -->
<g id="edge6" class="edge">
<title>BB4&#45;&gt;BB5</title>
<path fill="none" stroke="black" d="M143.72,-358.51C143.72,-350.54 143.72,-341.65 143.72,-333.16"/>
<polygon fill="black" stroke="black" points="147.22,-333.09 143.72,-323.09 140.22,-333.09 147.22,-333.09"/>
</g>
<!-- BB6 -->
<g id="node7" class="node">
<title>BB6</title>
<ellipse fill="none" stroke="black" cx="41.72" cy="-206.35" rx="41.94" ry="26.74"/>
<text text-anchor="middle" x="41.72" y="-210.15" font-family="Times New Roman,serif" font-size="14.00">[cf..d7)</text>
<text text-anchor="middle" x="41.72" y="-195.15" font-family="Times New Roman,serif" font-size="14.00">0.01</text>
</g>
<!-- BB5&#45;&gt;BB6 -->
<g id="edge8" class="edge">
<title>BB5&#45;&gt;BB6</title>
<path fill="none" stroke="black" d="M119.29,-274.07C105.76,-262.44 88.78,-247.83 74.15,-235.25"/>
<polygon fill="black" stroke="black" points="76.17,-232.37 66.31,-228.5 71.6,-237.67 76.17,-232.37"/>
</g>
<!-- BB7 -->
<g id="node8" class="node">
<title>BB7</title>
<ellipse fill="none" stroke="black" cx="143.72" cy="-206.35" rx="42.35" ry="26.74"/>
<text text-anchor="middle" x="143.72" y="-210.15" font-family="Times New Roman,serif" font-size="14.00">[d7..e1)</text>
<text text-anchor="middle" x="143.72" y="-195.15" font-family="Times New Roman,serif" font-size="14.00">0.45</text>
</g>
<!-- BB5&#45;&gt;BB7 -->
<g id="edge7" class="edge">
<title>BB5&#45;&gt;BB7</title>
<path fill="none" stroke="black" d="M137.5,-269.24C136.99,-261.03 136.85,-251.8 137.08,-243.02"/>
<polygon fill="black" stroke="black" points="140.57,-243.16 137.51,-233.02 133.58,-242.85 140.57,-243.16"/>
</g>
<!-- BB8 -->
<g id="node9" class="node">
<title>BB8</title>
<ellipse fill="none" stroke="black" cx="119.72" cy="-116.61" rx="41.94" ry="26.74"/>
<text text-anchor="middle" x="119.72" y="-120.41" font-family="Times New Roman,serif" font-size="14.00">[e1..eb)</text>
<text text-anchor="middle" x="119.72" y="-105.41" font-family="Times New Roman,serif" font-size="14.00">0.02</text>
</g>
<!-- BB6&#45;&gt;BB8 -->
<g id="edge9" class="edge">
<title>BB6&#45;&gt;BB8</title>
<path fill="none" stroke="black" d="M61.81,-182.76C71.2,-172.19 82.51,-159.46 92.64,-148.07"/>
<polygon fill="black" stroke="black" points="95.4,-150.23 99.43,-140.43 90.17,-145.58 95.4,-150.23"/>
</g>
<!-- BB7&#45;&gt;BB5 -->
<g id="edge10" class="edge">
<title>BB7&#45;&gt;BB5</title>
<path fill="none" stroke="black" d="M149.92,-233.02C150.44,-241.21 150.59,-250.44 150.37,-259.22"/>
<polygon fill="black" stroke="black" points="146.87,-259.1 149.94,-269.24 153.86,-259.4 146.87,-259.1"/>
</g>
<!-- BB7&#45;&gt;BB8 -->
<g id="edge11" class="edge">
<title>BB7&#45;&gt;BB8</title>
<path fill="none" stroke="black" d="M136.65,-179.5C134.38,-171.2 131.82,-161.86 129.4,-153"/>
<polygon fill="black" stroke="black" points="132.75,-152 126.74,-143.28 126,-153.84 132.75,-152"/>
</g>
<!-- BB9 -->
<g id="node10" class="node">
<title>BB9</title>
<ellipse fill="none" stroke="black" cx="96.72" cy="-26.87" rx="47.25" ry="26.74"/>
<text text-anchor="middle" x="96.72" y="-30.67" font-family="Times New Roman,serif" font-size="14.00">[eb..100)</text>
<text text-anchor="middle" x="96.72" y="-15.67" font-family="Times New Roman,serif" font-size="14.00">0.00</text>
</g>
<!-- BB8&#45;&gt;BB9 -->
<g id="edge13" class="edge">
<title>BB8&#45;&gt;BB9</title>
<path fill="none" stroke="black" d="M112.94,-89.76C110.77,-81.46 108.32,-72.12 106,-63.26"/>
<polygon fill="black" stroke="black" points="109.37,-62.32 103.45,-53.54 102.6,-64.1 109.37,-62.32"/>
</g>
<!-- BB10 -->
<g id="node11" class="node">
<title>BB10</title>
<ellipse fill="none" stroke="black" cx="214.72" cy="-26.87" rx="52.15" ry="26.74"/>
<text text-anchor="middle" x="214.72" y="-30.67" font-family="Times New Roman,serif" font-size="14.00">[100..106)</text>
<text text-anchor="middle" x="214.72" y="-15.67" font-family="Times New Roman,serif" font-size="14.00">0.02</text>
</g>
<!-- BB8&#45;&gt;BB10 -->
<g id="edge12" class="edge">
<title>BB8&#45;&gt;BB10</title>
<path fill="none" stroke="black" d="M143.2,-93.92C155.05,-82.98 169.61,-69.53 182.49,-57.64"/>
<polygon fill="black" stroke="black" points="184.87,-60.2 189.85,-50.84 180.13,-55.06 184.87,-60.2"/>
</g>
<!-- BB9&#45;&gt;BB10 -->
<g id="edge14" class="edge">
<title>BB9&#45;&gt;BB10</title>
<path fill="none" stroke="black" d="M144.2,-26.87C146.85,-26.87 149.5,-26.87 152.15,-26.87"/>
<polygon fill="black" stroke="black" points="152.38,-30.37 162.38,-26.87 152.38,-23.37 152.38,-30.37"/>
</g>
<!-- BB10&#45;&gt;BB11 -->
<g id="edge15" class="edge">
<title>BB10&#45;&gt;BB11</title>
<path fill="none" stroke="black" d="M214.72,-54.03C214.72,-88.65 214.72,-151.58 214.72,-205.35 214.72,-297.09 214.72,-297.09 214.72,-297.09 214.72,-347.4 230.2,-403.81 241.9,-439.25"/>
<polygon fill="black" stroke="black" points="238.72,-440.76 245.24,-449.11 245.35,-438.52 238.72,-440.76"/>
</g>
<!-- BB11&#45;&gt;BB4 -->
<g id="edge16" class="edge">
<title>BB11&#45;&gt;BB4</title>
<path fill="none" stroke="black" d="M227,-452.66C212.12,-440.9 193.66,-426.31 177.91,-413.85"/>
<polygon fill="black" stroke="black" points="179.96,-411.02 169.95,-407.56 175.62,-416.51 179.96,-411.02"/>
</g>
<!-- BB12 -->
<g id="node13" class="node">
<title>BB12</title>
<ellipse fill="none" stroke="black" cx="294.72" cy="-385.83" rx="51.74" ry="26.74"/>
<text text-anchor="middle" x="294.72" y="-389.63" font-family="Times New Roman,serif" font-size="14.00">[10e..112)</text>
<text text-anchor="middle" x="294.72" y="-374.63" font-family="Times New Roman,serif" font-size="14.00">0.00</text>
</g>
<!-- BB11&#45;&gt;BB12 -->
<g id="edge17" class="edge">
<title>BB11&#45;&gt;BB12</title>
<path fill="none" stroke="black" d="M266.29,-449.19C270.23,-440.55 274.7,-430.74 278.91,-421.5"/>
<polygon fill="black" stroke="black" points="282.21,-422.7 283.18,-412.15 275.84,-419.8 282.21,-422.7"/>
</g>
<!-- BB13 -->
<g id="node14" class="node">
<title>BB13</title>
<ellipse fill="none" stroke="black" cx="294.72" cy="-296.09" rx="52.15" ry="26.74"/>
<text text-anchor="middle" x="294.72" y="-299.89" font-family="Times New Roman,serif" font-size="14.00">[112..129)</text>
<text text-anchor="middle" x="294.72" y="-284.89" font-family="Times New Roman,serif" font-size="14.00">0.00</text>
</g>
<!-- BB12&#45;&gt;BB13 -->
<g id="edge19" class="edge">
<title>BB12&#45;&gt;BB13</title>
<path fill="none" stroke="black" d="M294.72,-358.51C294.72,-350.54 294.72,-341.65 294.72,-333.16"/>
<polygon fill="black" stroke="black" points="298.22,-333.09 294.72,-323.09 291.22,-333.09 298.22,-333.09"/>
</g>
<!-- BB14 -->
<g id="node15" class="node">
<title>BB14</title>
<ellipse fill="none" stroke="black" cx="417.72" cy="-296.09" rx="52.15" ry="26.74"/>
<text text-anchor="middle" x="417.72" y="-299.89" font-family="Times New Roman,serif" font-size="14.00">[129..12d)</text>
<text text-anchor="middle" x="417.72" y="-284.89" font-family="Times New Roman,serif" font-size="14.00">0.00</text>
</g>
<!-- BB12&#45;&gt;BB14 -->
<g id="edge18" class="edge">
<title>BB12&#45;&gt;BB14</title>
<path fill="none" stroke="black" d="M324.49,-363.59C340.99,-351.82 361.68,-337.06 379.38,-324.44"/>
<polygon fill="black" stroke="black" points="381.68,-327.09 387.79,-318.44 377.62,-321.4 381.68,-327.09"/>
</g>
<!-- BB13&#45;&gt;BB14 -->
<g id="edge20" class="edge">
<title>BB13&#45;&gt;BB14</title>
<path fill="none" stroke="black" d="M347.09,-296.09C349.75,-296.09 352.4,-296.09 355.06,-296.09"/>
<polygon fill="black" stroke="black" points="355.3,-299.59 365.3,-296.09 355.3,-292.59 355.3,-299.59"/>
</g>
<!-- BB14&#45;&gt;BB15 -->
<g id="edge21" class="edge">
<title>BB14&#45;&gt;BB15</title>
<path fill="none" stroke="black" d="M416.13,-322.95C412.27,-385.57 402.41,-545.48 397.96,-617.69"/>
<polygon fill="black" stroke="black" points="394.44,-617.9 397.32,-628.09 401.43,-618.33 394.44,-617.9"/>
</g>
<!-- BB15&#45;&gt;BB3 -->
<g id="edge22" class="edge">
<title>BB15&#45;&gt;BB3</title>
<path fill="none" stroke="black" d="M375.23,-630.08C366.5,-619.87 356.22,-607.84 346.95,-596.99"/>
<polygon fill="black" stroke="black" points="349.57,-594.68 340.41,-589.35 344.25,-599.22 349.57,-594.68"/>
</g>
<!-- BB16 -->
<g id="node17" class="node">
<title>BB16</title>
<ellipse fill="none" stroke="black" cx="475.72" cy="-565.31" rx="52.15" ry="26.74"/>
<text text-anchor="middle" x="475.72" y="-569.11" font-family="Times New Roman,serif" font-size="14.00">[134..137)</text>
<text text-anchor="middle" x="475.72" y="-554.11" font-family="Times New Roman,serif" font-size="14.00">0.00</text>
</g>
<!-- BB15&#45;&gt;BB16 -->
<g id="edge23" class="edge">
<title>BB15&#45;&gt;BB16</title>
<path fill="none" stroke="black" d="M417.16,-630.54C426.39,-620.41 437.33,-608.42 447.23,-597.56"/>
<polygon fill="black" stroke="black" points="450.07,-599.64 454.22,-589.89 444.9,-594.92 450.07,-599.64"/>
</g>
<!-- BB17 -->
<g id="node18" class="node">
<title>BB17</title>
<ellipse fill="none" stroke="black" cx="475.72" cy="-475.57" rx="52.15" ry="26.74"/>
<text text-anchor="middle" x="475.72" y="-479.37" font-family="Times New Roman,serif" font-size="14.00">[137..142)</text>
<text text-anchor="middle" x="475.72" y="-464.37" font-family="Times New Roman,serif" font-size="14.00">0.00</text>
</g>
<!-- BB16&#45;&gt;BB17 -->
<g id="edge25" class="edge">
<title>BB16&#45;&gt;BB17</title>
<path fill="none" stroke="black" d="M475.72,-537.99C475.72,-530.02 475.72,-521.13 475.72,-512.64"/>
<polygon fill="black" stroke="black" points="479.22,-512.57 475.72,-502.57 472.22,-512.57 479.22,-512.57"/>
</g>
<!-- BB18 -->
<g id="node19" class="node">
<title>BB18</title>
<ellipse fill="none" stroke="black" cx="598.72" cy="-475.57" rx="52.15" ry="26.74"/>
<text text-anchor="middle" x="598.72" y="-479.37" font-family="Times New Roman,serif" font-size="14.00">[142..143)</text>
<text text-anchor="middle" x="598.72" y="-464.37" font-family="Times New Roman,serif" font-size="14.00">0.00</text>
</g>
<!-- BB16&#45;&gt;BB18 -->
<g id="edge24" class="edge">
<title>BB16&#45;&gt;BB18</title>
<path fill="none" stroke="black" d="M505.49,-543.07C521.99,-531.3 542.68,-516.54 560.38,-503.92"/>
<polygon fill="black" stroke="black" points="562.68,-506.58 568.79,-497.92 558.62,-500.88 562.68,-506.58"/>
</g>
<!-- BB17&#45;&gt;BB18 -->
<g id="edge26" class="edge">
<title>BB17&#45;&gt;BB18</title>
<path fill="none" stroke="black" d="M528.09,-475.57C530.75,-475.57 533.4,-475.57 536.06,-475.57"/>
<polygon fill="black" stroke="black" points="536.3,-479.07 546.3,-475.57 536.3,-472.07 536.3,-479.07"/>
</g>
</g>
</svg>
