<?xml version="1.0" encoding="UTF-8" standalone="no"?>
<!DOCTYPE svg PUBLIC "-//W3C//DTD SVG 1.1//EN"
 "http://www.w3.org/Graphics/SVG/1.1/DTD/svg11.dtd">
<!-- Generated by graphviz version 2.47.0 (20210316.0004)
 -->
<!-- Title: G Pages: 1 -->
<svg width="529pt" height="690pt"
 viewBox="0.00 0.00 528.85 689.92" xmlns="http://www.w3.org/2000/svg" xmlns:xlink="http://www.w3.org/1999/xlink">
<g id="graph0" class="graph" transform="scale(1 1) rotate(0) translate(4 685.92)">
<title>G</title>
<polygon fill="white" stroke="transparent" points="-4,4 -4,-685.92 524.85,-685.92 524.85,4 -4,4"/>
<!-- BB0 -->
<g id="node1" class="node">
<title>BB0</title>
<ellipse fill="none" stroke="black" cx="182.43" cy="-655.05" rx="33.47" ry="26.74"/>
<text text-anchor="middle" x="182.43" y="-658.85" font-family="Times New Roman,serif" font-size="14.00">[0..4)</text>
<text text-anchor="middle" x="182.43" y="-643.85" font-family="Times New Roman,serif" font-size="14.00">0.00</text>
</g>
<!-- BB6 -->
<g id="node7" class="node">
<title>BB6</title>
<ellipse fill="none" stroke="black" cx="182.43" cy="-565.31" rx="41.94" ry="26.74"/>
<text text-anchor="middle" x="182.43" y="-569.11" font-family="Times New Roman,serif" font-size="14.00">[2e..32)</text>
<text text-anchor="middle" x="182.43" y="-554.11" font-family="Times New Roman,serif" font-size="14.00">0.00</text>
</g>
<!-- BB0&#45;&gt;BB6 -->
<g id="edge1" class="edge">
<title>BB0&#45;&gt;BB6</title>
<path fill="none" stroke="black" d="M182.43,-627.73C182.43,-619.76 182.43,-610.87 182.43,-602.38"/>
<polygon fill="black" stroke="black" points="185.93,-602.31 182.43,-592.31 178.93,-602.31 185.93,-602.31"/>
</g>
<!-- BB1 -->
<g id="node2" class="node">
<title>BB1</title>
<ellipse fill="none" stroke="black" cx="115.43" cy="-475.57" rx="37.45" ry="26.74"/>
<text text-anchor="middle" x="115.43" y="-479.37" font-family="Times New Roman,serif" font-size="14.00">[4..10)</text>
<text text-anchor="middle" x="115.43" y="-464.37" font-family="Times New Roman,serif" font-size="14.00">0.00</text>
</g>
<!-- BB4 -->
<g id="node5" class="node">
<title>BB4</title>
<ellipse fill="none" stroke="black" cx="112.43" cy="-385.83" rx="42.35" ry="26.74"/>
<text text-anchor="middle" x="112.43" y="-389.63" font-family="Times New Roman,serif" font-size="14.00">[22..26)</text>
<text text-anchor="middle" x="112.43" y="-374.63" font-family="Times New Roman,serif" font-size="14.00">0.01</text>
</g>
<!-- BB1&#45;&gt;BB4 -->
<g id="edge2" class="edge">
<title>BB1&#45;&gt;BB4</title>
<path fill="none" stroke="black" d="M114.53,-448.25C114.25,-440.28 113.95,-431.39 113.66,-422.9"/>
<polygon fill="black" stroke="black" points="117.16,-422.71 113.32,-412.83 110.16,-422.95 117.16,-422.71"/>
</g>
<!-- BB2 -->
<g id="node3" class="node">
<title>BB2</title>
<ellipse fill="none" stroke="black" cx="42.43" cy="-296.09" rx="42.35" ry="26.74"/>
<text text-anchor="middle" x="42.43" y="-299.89" font-family="Times New Roman,serif" font-size="14.00">[10..16)</text>
<text text-anchor="middle" x="42.43" y="-284.89" font-family="Times New Roman,serif" font-size="14.00">0.01</text>
</g>
<!-- BB3 -->
<g id="node4" class="node">
<title>BB3</title>
<ellipse fill="none" stroke="black" cx="77.43" cy="-206.35" rx="42.35" ry="26.74"/>
<text text-anchor="middle" x="77.43" y="-210.15" font-family="Times New Roman,serif" font-size="14.00">[16..22)</text>
<text text-anchor="middle" x="77.43" y="-195.15" font-family="Times New Roman,serif" font-size="14.00">0.01</text>
</g>
<!-- BB2&#45;&gt;BB3 -->
<g id="edge4" class="edge">
<title>BB2&#45;&gt;BB3</title>
<path fill="none" stroke="black" d="M52.55,-269.71C56,-261.07 59.91,-251.26 63.6,-242.02"/>
<polygon fill="black" stroke="black" points="66.87,-243.26 67.33,-232.67 60.37,-240.66 66.87,-243.26"/>
</g>
<!-- BB5 -->
<g id="node6" class="node">
<title>BB5</title>
<ellipse fill="none" stroke="black" cx="182.43" cy="-296.09" rx="41.94" ry="26.74"/>
<text text-anchor="middle" x="182.43" y="-299.89" font-family="Times New Roman,serif" font-size="14.00">[26..2e)</text>
<text text-anchor="middle" x="182.43" y="-284.89" font-family="Times New Roman,serif" font-size="14.00">0.00</text>
</g>
<!-- BB2&#45;&gt;BB5 -->
<g id="edge3" class="edge">
<title>BB2&#45;&gt;BB5</title>
<path fill="none" stroke="black" d="M85.08,-296.09C100.12,-296.09 115.15,-296.09 130.19,-296.09"/>
<polygon fill="black" stroke="black" points="130.6,-299.59 140.6,-296.09 130.6,-292.59 130.6,-299.59"/>
</g>
<!-- BB3&#45;&gt;BB4 -->
<g id="edge5" class="edge">
<title>BB3&#45;&gt;BB4</title>
<path fill="none" stroke="black" d="M84.64,-233.12C87.6,-244.18 90.91,-257.28 93.43,-269.22 99.04,-295.8 103.96,-326.11 107.39,-349.02"/>
<polygon fill="black" stroke="black" points="103.94,-349.61 108.86,-358.99 110.87,-348.59 103.94,-349.61"/>
</g>
<!-- BB4&#45;&gt;BB2 -->
<g id="edge6" class="edge">
<title>BB4&#45;&gt;BB2</title>
<path fill="none" stroke="black" d="M93.67,-361.32C85.6,-351.21 76.05,-339.24 67.4,-328.39"/>
<polygon fill="black" stroke="black" points="69.97,-326 60.99,-320.36 64.49,-330.36 69.97,-326"/>
</g>
<!-- BB4&#45;&gt;BB5 -->
<g id="edge7" class="edge">
<title>BB4&#45;&gt;BB5</title>
<path fill="none" stroke="black" d="M131.19,-361.32C139.25,-351.21 148.8,-339.24 157.45,-328.39"/>
<polygon fill="black" stroke="black" points="160.36,-330.36 163.86,-320.36 154.89,-326 160.36,-330.36"/>
</g>
<!-- BB5&#45;&gt;BB6 -->
<g id="edge8" class="edge">
<title>BB5&#45;&gt;BB6</title>
<path fill="none" stroke="black" d="M182.43,-323.31C182.43,-371.28 182.43,-473.28 182.43,-527.93"/>
<polygon fill="black" stroke="black" points="178.93,-528.2 182.43,-538.2 185.93,-528.2 178.93,-528.2"/>
</g>
<!-- BB6&#45;&gt;BB1 -->
<g id="edge9" class="edge">
<title>BB6&#45;&gt;BB1</title>
<path fill="none" stroke="black" d="M164.47,-540.8C156.69,-530.6 147.47,-518.53 139.13,-507.61"/>
<polygon fill="black" stroke="black" points="141.82,-505.36 132.97,-499.54 136.25,-509.61 141.82,-505.36"/>
</g>
<!-- BB7 -->
<g id="node8" class="node">
<title>BB7</title>
<ellipse fill="none" stroke="black" cx="267.43" cy="-475.57" rx="42.35" ry="26.74"/>
<text text-anchor="middle" x="267.43" y="-479.37" font-family="Times New Roman,serif" font-size="14.00">[32..34)</text>
<text text-anchor="middle" x="267.43" y="-464.37" font-family="Times New Roman,serif" font-size="14.00">0.00</text>
</g>
<!-- BB6&#45;&gt;BB7 -->
<g id="edge10" class="edge">
<title>BB6&#45;&gt;BB7</title>
<path fill="none" stroke="black" d="M203.88,-542.17C214.36,-531.34 227.14,-518.15 238.48,-506.45"/>
<polygon fill="black" stroke="black" points="241.24,-508.63 245.69,-499.01 236.22,-503.76 241.24,-508.63"/>
</g>
<!-- BB8 -->
<g id="node9" class="node">
<title>BB8</title>
<ellipse fill="none" stroke="black" cx="283.43" cy="-385.83" rx="42.35" ry="26.74"/>
<text text-anchor="middle" x="283.43" y="-389.63" font-family="Times New Roman,serif" font-size="14.00">[34..44)</text>
<text text-anchor="middle" x="283.43" y="-374.63" font-family="Times New Roman,serif" font-size="14.00">0.03</text>
</g>
<!-- BB7&#45;&gt;BB8 -->
<g id="edge11" class="edge">
<title>BB7&#45;&gt;BB8</title>
<path fill="none" stroke="black" d="M272.14,-448.72C273.62,-440.58 275.29,-431.44 276.88,-422.74"/>
<polygon fill="black" stroke="black" points="280.34,-423.27 278.69,-412.8 273.45,-422.01 280.34,-423.27"/>
</g>
<!-- BB14 -->
<g id="node15" class="node">
<title>BB14</title>
<ellipse fill="none" stroke="black" cx="283.43" cy="-296.09" rx="41.94" ry="26.74"/>
<text text-anchor="middle" x="283.43" y="-299.89" font-family="Times New Roman,serif" font-size="14.00">[6a..6e)</text>
<text text-anchor="middle" x="283.43" y="-284.89" font-family="Times New Roman,serif" font-size="14.00">0.17</text>
</g>
<!-- BB8&#45;&gt;BB14 -->
<g id="edge12" class="edge">
<title>BB8&#45;&gt;BB14</title>
<path fill="none" stroke="black" d="M283.43,-358.51C283.43,-350.54 283.43,-341.65 283.43,-333.16"/>
<polygon fill="black" stroke="black" points="286.93,-333.09 283.43,-323.09 279.93,-333.09 286.93,-333.09"/>
</g>
<!-- BB9 -->
<g id="node10" class="node">
<title>BB9</title>
<ellipse fill="none" stroke="black" cx="275.43" cy="-206.35" rx="41.94" ry="26.74"/>
<text text-anchor="middle" x="275.43" y="-210.15" font-family="Times New Roman,serif" font-size="14.00">[44..4a)</text>
<text text-anchor="middle" x="275.43" y="-195.15" font-family="Times New Roman,serif" font-size="14.00">0.17</text>
</g>
<!-- BB10 -->
<g id="node11" class="node">
<title>BB10</title>
<ellipse fill="none" stroke="black" cx="275.43" cy="-116.61" rx="41.94" ry="26.74"/>
<text text-anchor="middle" x="275.43" y="-120.41" font-family="Times New Roman,serif" font-size="14.00">[4a..54)</text>
<text text-anchor="middle" x="275.43" y="-105.41" font-family="Times New Roman,serif" font-size="14.00">0.16</text>
</g>
<!-- BB9&#45;&gt;BB10 -->
<g id="edge14" class="edge">
<title>BB9&#45;&gt;BB10</title>
<path fill="none" stroke="black" d="M275.43,-179.03C275.43,-171.06 275.43,-162.17 275.43,-153.68"/>
<polygon fill="black" stroke="black" points="278.93,-153.61 275.43,-143.61 271.93,-153.61 278.93,-153.61"/>
</g>
<!-- BB12 -->
<g id="node13" class="node">
<title>BB12</title>
<ellipse fill="none" stroke="black" cx="376.43" cy="-116.61" rx="41.94" ry="26.74"/>
<text text-anchor="middle" x="376.43" y="-120.41" font-family="Times New Roman,serif" font-size="14.00">[58..5e)</text>
<text text-anchor="middle" x="376.43" y="-105.41" font-family="Times New Roman,serif" font-size="14.00">0.17</text>
</g>
<!-- BB9&#45;&gt;BB12 -->
<g id="edge13" class="edge">
<title>BB9&#45;&gt;BB12</title>
<path fill="none" stroke="black" d="M299.62,-184.33C313.01,-172.7 329.83,-158.09 344.31,-145.51"/>
<polygon fill="black" stroke="black" points="346.83,-147.96 352.08,-138.76 342.24,-142.67 346.83,-147.96"/>
</g>
<!-- BB11 -->
<g id="node12" class="node">
<title>BB11</title>
<ellipse fill="none" stroke="black" cx="358.43" cy="-26.87" rx="42.35" ry="26.74"/>
<text text-anchor="middle" x="358.43" y="-30.67" font-family="Times New Roman,serif" font-size="14.00">[54..58)</text>
<text text-anchor="middle" x="358.43" y="-15.67" font-family="Times New Roman,serif" font-size="14.00">0.08</text>
</g>
<!-- BB10&#45;&gt;BB11 -->
<g id="edge16" class="edge">
<title>BB10&#45;&gt;BB11</title>
<path fill="none" stroke="black" d="M296.8,-93.01C306.97,-82.27 319.26,-69.28 330.18,-57.73"/>
<polygon fill="black" stroke="black" points="332.79,-60.06 337.12,-50.39 327.71,-55.25 332.79,-60.06"/>
</g>
<!-- BB10&#45;&gt;BB12 -->
<g id="edge15" class="edge">
<title>BB10&#45;&gt;BB12</title>
<path fill="none" stroke="black" d="M317.25,-116.61C319.56,-116.61 321.88,-116.61 324.2,-116.61"/>
<polygon fill="black" stroke="black" points="324.35,-120.11 334.35,-116.61 324.35,-113.11 324.35,-120.11"/>
</g>
<!-- BB11&#45;&gt;BB12 -->
<g id="edge17" class="edge">
<title>BB11&#45;&gt;BB12</title>
<path fill="none" stroke="black" d="M363.69,-53.54C365.37,-61.73 367.27,-70.96 369.07,-79.74"/>
<polygon fill="black" stroke="black" points="365.68,-80.67 371.12,-89.76 372.54,-79.26 365.68,-80.67"/>
</g>
<!-- BB13 -->
<g id="node14" class="node">
<title>BB13</title>
<ellipse fill="none" stroke="black" cx="239.43" cy="-26.87" rx="41.94" ry="26.74"/>
<text text-anchor="middle" x="239.43" y="-30.67" font-family="Times New Roman,serif" font-size="14.00">[5e..6a)</text>
<text text-anchor="middle" x="239.43" y="-15.67" font-family="Times New Roman,serif" font-size="14.00">0.14</text>
</g>
<!-- BB12&#45;&gt;BB13 -->
<g id="edge19" class="edge">
<title>BB12&#45;&gt;BB13</title>
<path fill="none" stroke="black" d="M347.37,-97C326.85,-83.86 299.16,-66.12 276.96,-51.91"/>
<polygon fill="black" stroke="black" points="278.75,-48.9 268.44,-46.45 274.97,-54.79 278.75,-48.9"/>
</g>
<!-- BB15 -->
<g id="node16" class="node">
<title>BB15</title>
<ellipse fill="none" stroke="black" cx="376.43" cy="-206.35" rx="41.94" ry="26.74"/>
<text text-anchor="middle" x="376.43" y="-210.15" font-family="Times New Roman,serif" font-size="14.00">[6e..7a)</text>
<text text-anchor="middle" x="376.43" y="-195.15" font-family="Times New Roman,serif" font-size="14.00">0.03</text>
</g>
<!-- BB12&#45;&gt;BB15 -->
<g id="edge18" class="edge">
<title>BB12&#45;&gt;BB15</title>
<path fill="none" stroke="black" d="M376.43,-143.61C376.43,-151.56 376.43,-160.44 376.43,-168.94"/>
<polygon fill="black" stroke="black" points="372.93,-169.03 376.43,-179.03 379.93,-169.03 372.93,-169.03"/>
</g>
<!-- BB13&#45;&gt;BB14 -->
<g id="edge20" class="edge">
<title>BB13&#45;&gt;BB14</title>
<path fill="none" stroke="black" d="M230.63,-53.3C218.32,-93.22 200.05,-172.33 224.43,-233.22 229.7,-246.4 239.27,-258.36 249.18,-268.18"/>
<polygon fill="black" stroke="black" points="247.07,-271 256.77,-275.26 251.84,-265.88 247.07,-271"/>
</g>
<!-- BB14&#45;&gt;BB9 -->
<g id="edge21" class="edge">
<title>BB14&#45;&gt;BB9</title>
<path fill="none" stroke="black" d="M281.07,-269.24C280.34,-261.19 279.51,-252.16 278.73,-243.54"/>
<polygon fill="black" stroke="black" points="282.19,-242.96 277.79,-233.32 275.22,-243.6 282.19,-242.96"/>
</g>
<!-- BB14&#45;&gt;BB15 -->
<g id="edge22" class="edge">
<title>BB14&#45;&gt;BB15</title>
<path fill="none" stroke="black" d="M306.42,-273.4C318.38,-262.12 333.15,-248.18 346.04,-236.02"/>
<polygon fill="black" stroke="black" points="348.51,-238.5 353.38,-229.09 343.7,-233.41 348.51,-238.5"/>
</g>
<!-- BB15&#45;&gt;BB8 -->
<g id="edge23" class="edge">
<title>BB15&#45;&gt;BB8</title>
<path fill="none" stroke="black" d="M369.77,-233.25C362.93,-257.43 350.95,-294.03 334.43,-322.96 328.12,-334.01 319.81,-345.06 311.74,-354.69"/>
<polygon fill="black" stroke="black" points="308.95,-352.57 305.06,-362.43 314.25,-357.14 308.95,-352.57"/>
</g>
<!-- BB16 -->
<g id="node17" class="node">
<title>BB16</title>
<ellipse fill="none" stroke="black" cx="478.43" cy="-116.61" rx="42.35" ry="26.74"/>
<text text-anchor="middle" x="478.43" y="-120.41" font-family="Times New Roman,serif" font-size="14.00">[7a..7b)</text>
<text text-anchor="middle" x="478.43" y="-105.41" font-family="Times New Roman,serif" font-size="14.00">0.00</text>
</g>
<!-- BB15&#45;&gt;BB16 -->
<g id="edge24" class="edge">
<title>BB15&#45;&gt;BB16</title>
<path fill="none" stroke="black" d="M400.86,-184.33C414.38,-172.7 431.37,-158.09 446,-145.51"/>
<polygon fill="black" stroke="black" points="448.54,-147.93 453.84,-138.76 443.98,-142.63 448.54,-147.93"/>
</g>
</g>
</svg>
