<?xml version="1.0" encoding="UTF-8" standalone="no"?>
<!DOCTYPE svg PUBLIC "-//W3C//DTD SVG 1.1//EN"
 "http://www.w3.org/Graphics/SVG/1.1/DTD/svg11.dtd">
<!-- Generated by graphviz version 2.47.0 (20210316.0004)
 -->
<!-- Title: G Pages: 1 -->
<svg width="613pt" height="897pt"
 viewBox="0.00 0.00 613.37 897.17" xmlns="http://www.w3.org/2000/svg" xmlns:xlink="http://www.w3.org/1999/xlink">
<g id="graph0" class="graph" transform="scale(1 1) rotate(0) translate(4 893.17)">
<title>G</title>
<polygon fill="white" stroke="transparent" points="-4,4 -4,-893.17 609.37,-893.17 609.37,4 -4,4"/>
<!-- BB0 -->
<g id="node1" class="node">
<title>BB0</title>
<ellipse fill="none" stroke="black" cx="254.14" cy="-841.08" rx="103.48" ry="48.17"/>
<text text-anchor="middle" x="254.14" y="-859.88" font-family="Times New Roman,serif" font-size="14.00">[0..7)</text>
<text text-anchor="middle" x="254.14" y="-844.88" font-family="Times New Roman,serif" font-size="14.00">Count: 26</text>
<text text-anchor="middle" x="254.14" y="-829.88" font-family="Times New Roman,serif" font-size="14.00">Normalized count: 1.00</text>
<text text-anchor="middle" x="254.14" y="-814.88" font-family="Times New Roman,serif" font-size="14.00">Samples weight: 0.00</text>
</g>
<!-- BB8 -->
<g id="node9" class="node">
<title>BB8</title>
<ellipse fill="none" stroke="black" cx="254.14" cy="-708.92" rx="113.27" ry="48.17"/>
<text text-anchor="middle" x="254.14" y="-727.72" font-family="Times New Roman,serif" font-size="14.00">[46..4a)</text>
<text text-anchor="middle" x="254.14" y="-712.72" font-family="Times New Roman,serif" font-size="14.00">Count: 5226</text>
<text text-anchor="middle" x="254.14" y="-697.72" font-family="Times New Roman,serif" font-size="14.00">Normalized count: 201.00</text>
<text text-anchor="middle" x="254.14" y="-682.72" font-family="Times New Roman,serif" font-size="14.00">Samples weight: 0.00</text>
</g>
<!-- BB0&#45;&gt;BB8 -->
<g id="edge1" class="edge">
<title>BB0&#45;&gt;BB8</title>
<path fill="none" stroke="black" d="M254.14,-792.72C254.14,-784.45 254.14,-775.77 254.14,-767.27"/>
<polygon fill="black" stroke="black" points="257.64,-767.02 254.14,-757.02 250.64,-767.02 257.64,-767.02"/>
</g>
<!-- BB1 -->
<g id="node2" class="node">
<title>BB1</title>
<ellipse fill="none" stroke="black" cx="254.14" cy="-576.75" rx="113.27" ry="48.17"/>
<text text-anchor="middle" x="254.14" y="-595.55" font-family="Times New Roman,serif" font-size="14.00">[7..e)</text>
<text text-anchor="middle" x="254.14" y="-580.55" font-family="Times New Roman,serif" font-size="14.00">Count: 5200</text>
<text text-anchor="middle" x="254.14" y="-565.55" font-family="Times New Roman,serif" font-size="14.00">Normalized count: 200.00</text>
<text text-anchor="middle" x="254.14" y="-550.55" font-family="Times New Roman,serif" font-size="14.00">Samples weight: 0.00</text>
</g>
<!-- BB6 -->
<g id="node7" class="node">
<title>BB6</title>
<ellipse fill="none" stroke="black" cx="259.14" cy="-444.58" rx="122.16" ry="48.17"/>
<text text-anchor="middle" x="259.14" y="-463.38" font-family="Times New Roman,serif" font-size="14.00">[3d..42)</text>
<text text-anchor="middle" x="259.14" y="-448.38" font-family="Times New Roman,serif" font-size="14.00">Count: 522600</text>
<text text-anchor="middle" x="259.14" y="-433.38" font-family="Times New Roman,serif" font-size="14.00">Normalized count: 20100.00</text>
<text text-anchor="middle" x="259.14" y="-418.38" font-family="Times New Roman,serif" font-size="14.00">Samples weight: 0.00</text>
</g>
<!-- BB1&#45;&gt;BB6 -->
<g id="edge2" class="edge">
<title>BB1&#45;&gt;BB6</title>
<path fill="none" stroke="black" d="M255.96,-528.39C256.27,-520.12 256.61,-511.44 256.93,-502.93"/>
<polygon fill="black" stroke="black" points="260.44,-502.82 257.33,-492.69 253.45,-502.55 260.44,-502.82"/>
</g>
<!-- BB2 -->
<g id="node3" class="node">
<title>BB2</title>
<ellipse fill="none" stroke="black" cx="425.14" cy="-312.42" rx="122.16" ry="48.17"/>
<text text-anchor="middle" x="425.14" y="-331.22" font-family="Times New Roman,serif" font-size="14.00">[e..13)</text>
<text text-anchor="middle" x="425.14" y="-316.22" font-family="Times New Roman,serif" font-size="14.00">Count: 517400</text>
<text text-anchor="middle" x="425.14" y="-301.22" font-family="Times New Roman,serif" font-size="14.00">Normalized count: 19900.00</text>
<text text-anchor="middle" x="425.14" y="-286.22" font-family="Times New Roman,serif" font-size="14.00">Samples weight: 0.00</text>
</g>
<!-- BB4 -->
<g id="node5" class="node">
<title>BB4</title>
<ellipse fill="none" stroke="black" cx="444.14" cy="-180.25" rx="132.46" ry="48.17"/>
<text text-anchor="middle" x="444.14" y="-199.05" font-family="Times New Roman,serif" font-size="14.00">[32..37)</text>
<text text-anchor="middle" x="444.14" y="-184.05" font-family="Times New Roman,serif" font-size="14.00">Count: 103997400</text>
<text text-anchor="middle" x="444.14" y="-169.05" font-family="Times New Roman,serif" font-size="14.00">Normalized count: 3999900.00</text>
<text text-anchor="middle" x="444.14" y="-154.05" font-family="Times New Roman,serif" font-size="14.00">Samples weight: 0.50</text>
</g>
<!-- BB2&#45;&gt;BB4 -->
<g id="edge3" class="edge">
<title>BB2&#45;&gt;BB4</title>
<path fill="none" stroke="black" d="M432.05,-264.05C433.27,-255.7 434.55,-246.91 435.81,-238.32"/>
<polygon fill="black" stroke="black" points="439.28,-238.76 437.26,-228.36 432.35,-237.75 439.28,-238.76"/>
</g>
<!-- BB3 -->
<g id="node4" class="node">
<title>BB3</title>
<ellipse fill="none" stroke="black" cx="473.14" cy="-48.08" rx="132.46" ry="48.17"/>
<text text-anchor="middle" x="473.14" y="-66.88" font-family="Times New Roman,serif" font-size="14.00">[13..32)</text>
<text text-anchor="middle" x="473.14" y="-51.88" font-family="Times New Roman,serif" font-size="14.00">Count: 103480000</text>
<text text-anchor="middle" x="473.14" y="-36.88" font-family="Times New Roman,serif" font-size="14.00">Normalized count: 3980000.00</text>
<text text-anchor="middle" x="473.14" y="-21.88" font-family="Times New Roman,serif" font-size="14.00">Samples weight: 0.50</text>
</g>
<!-- BB3&#45;&gt;BB4 -->
<g id="edge4" class="edge">
<title>BB3&#45;&gt;BB4</title>
<path fill="none" stroke="black" d="M469.11,-96.44C467.46,-104.83 465.56,-113.64 463.54,-122.26"/>
<polygon fill="black" stroke="black" points="460.07,-121.71 461.12,-132.26 466.87,-123.36 460.07,-121.71"/>
</g>
<!-- BB4&#45;&gt;BB3 -->
<g id="edge5" class="edge">
<title>BB4&#45;&gt;BB3</title>
<path fill="none" stroke="black" d="M448.17,-131.89C449.81,-123.53 451.7,-114.75 453.72,-106.15"/>
<polygon fill="black" stroke="black" points="457.18,-106.73 456.13,-96.19 450.37,-105.09 457.18,-106.73"/>
</g>
<!-- BB5 -->
<g id="node6" class="node">
<title>BB5</title>
<ellipse fill="none" stroke="black" cx="200.14" cy="-48.08" rx="122.16" ry="48.17"/>
<text text-anchor="middle" x="200.14" y="-66.88" font-family="Times New Roman,serif" font-size="14.00">[37..3d)</text>
<text text-anchor="middle" x="200.14" y="-51.88" font-family="Times New Roman,serif" font-size="14.00">Count: 517400</text>
<text text-anchor="middle" x="200.14" y="-36.88" font-family="Times New Roman,serif" font-size="14.00">Normalized count: 19900.00</text>
<text text-anchor="middle" x="200.14" y="-21.88" font-family="Times New Roman,serif" font-size="14.00">Samples weight: 0.00</text>
</g>
<!-- BB4&#45;&gt;BB5 -->
<g id="edge6" class="edge">
<title>BB4&#45;&gt;BB5</title>
<path fill="none" stroke="black" d="M370.93,-140.2C342.43,-124.99 309.68,-107.52 280.54,-91.97"/>
<polygon fill="black" stroke="black" points="282.08,-88.83 271.61,-87.21 278.79,-95.01 282.08,-88.83"/>
</g>
<!-- BB5&#45;&gt;BB6 -->
<g id="edge7" class="edge">
<title>BB5&#45;&gt;BB6</title>
<path fill="none" stroke="black" d="M208.24,-96.48C215.59,-140.05 226.56,-206.47 235.14,-264.33 241.17,-305.04 247.32,-351.05 251.88,-386.26"/>
<polygon fill="black" stroke="black" points="248.43,-386.89 253.18,-396.36 255.37,-385.99 248.43,-386.89"/>
</g>
<!-- BB6&#45;&gt;BB2 -->
<g id="edge8" class="edge">
<title>BB6&#45;&gt;BB2</title>
<path fill="none" stroke="black" d="M313.03,-401.32C329.06,-388.75 346.74,-374.89 363.24,-361.95"/>
<polygon fill="black" stroke="black" points="365.52,-364.61 371.23,-355.69 361.2,-359.1 365.52,-364.61"/>
</g>
<!-- BB7 -->
<g id="node8" class="node">
<title>BB7</title>
<ellipse fill="none" stroke="black" cx="113.14" cy="-312.42" rx="113.27" ry="48.17"/>
<text text-anchor="middle" x="113.14" y="-331.22" font-family="Times New Roman,serif" font-size="14.00">[42..46)</text>
<text text-anchor="middle" x="113.14" y="-316.22" font-family="Times New Roman,serif" font-size="14.00">Count: 5200</text>
<text text-anchor="middle" x="113.14" y="-301.22" font-family="Times New Roman,serif" font-size="14.00">Normalized count: 200.00</text>
<text text-anchor="middle" x="113.14" y="-286.22" font-family="Times New Roman,serif" font-size="14.00">Samples weight: 0.00</text>
</g>
<!-- BB6&#45;&gt;BB7 -->
<g id="edge9" class="edge">
<title>BB6&#45;&gt;BB7</title>
<path fill="none" stroke="black" d="M210.52,-400.24C197.08,-388.26 182.4,-375.17 168.6,-362.87"/>
<polygon fill="black" stroke="black" points="170.84,-360.17 161.04,-356.13 166.18,-365.4 170.84,-360.17"/>
</g>
<!-- BB7&#45;&gt;BB8 -->
<g id="edge10" class="edge">
<title>BB7&#45;&gt;BB8</title>
<path fill="none" stroke="black" d="M103.87,-360.54C93.79,-424.85 84.82,-541.6 132.14,-624.83 141.57,-641.43 155.85,-655.41 171.36,-666.88"/>
<polygon fill="black" stroke="black" points="169.36,-669.76 179.55,-672.65 173.39,-664.03 169.36,-669.76"/>
</g>
<!-- BB8&#45;&gt;BB1 -->
<g id="edge11" class="edge">
<title>BB8&#45;&gt;BB1</title>
<path fill="none" stroke="black" d="M254.14,-660.55C254.14,-652.29 254.14,-643.6 254.14,-635.1"/>
<polygon fill="black" stroke="black" points="257.64,-634.86 254.14,-624.86 250.64,-634.86 257.64,-634.86"/>
</g>
<!-- BB9 -->
<g id="node10" class="node">
<title>BB9</title>
<ellipse fill="none" stroke="black" cx="488.14" cy="-576.75" rx="103.48" ry="48.17"/>
<text text-anchor="middle" x="488.14" y="-595.55" font-family="Times New Roman,serif" font-size="14.00">[4a..4b)</text>
<text text-anchor="middle" x="488.14" y="-580.55" font-family="Times New Roman,serif" font-size="14.00">Count: 26</text>
<text text-anchor="middle" x="488.14" y="-565.55" font-family="Times New Roman,serif" font-size="14.00">Normalized count: 1.00</text>
<text text-anchor="middle" x="488.14" y="-550.55" font-family="Times New Roman,serif" font-size="14.00">Samples weight: 0.00</text>
</g>
<!-- BB8&#45;&gt;BB9 -->
<g id="edge12" class="edge">
<title>BB8&#45;&gt;BB9</title>
<path fill="none" stroke="black" d="M321.82,-670.27C350.57,-654.28 384.17,-635.58 413.63,-619.2"/>
<polygon fill="black" stroke="black" points="415.58,-622.11 422.62,-614.19 412.18,-616 415.58,-622.11"/>
</g>
</g>
</svg>
