<?xml version="1.0" encoding="UTF-8" standalone="no"?>
<!DOCTYPE svg PUBLIC "-//W3C//DTD SVG 1.1//EN"
 "http://www.w3.org/Graphics/SVG/1.1/DTD/svg11.dtd">
<!-- Generated by graphviz version 2.47.0 (20210316.0004)
 -->
<!-- Title: G Pages: 1 -->
<svg width="624pt" height="633pt"
 viewBox="0.00 0.00 623.69 632.83" xmlns="http://www.w3.org/2000/svg" xmlns:xlink="http://www.w3.org/1999/xlink">
<g id="graph0" class="graph" transform="scale(1 1) rotate(0) translate(4 628.83)">
<title>G</title>
<polygon fill="white" stroke="transparent" points="-4,4 -4,-628.83 619.69,-628.83 619.69,4 -4,4"/>
<!-- BB0 -->
<g id="node1" class="node">
<title>BB0</title>
<ellipse fill="none" stroke="black" cx="359.84" cy="-576.75" rx="104.8" ry="48.17"/>
<text text-anchor="middle" x="359.84" y="-595.55" font-family="Times New Roman,serif" font-size="14.00">[0..4)</text>
<text text-anchor="middle" x="359.84" y="-580.55" font-family="Times New Roman,serif" font-size="14.00">Count: 0</text>
<text text-anchor="middle" x="359.84" y="-565.55" font-family="Times New Roman,serif" font-size="14.00">Normalized count: NaN</text>
<text text-anchor="middle" x="359.84" y="-550.55" font-family="Times New Roman,serif" font-size="14.00">Samples weight: 0.00</text>
</g>
<!-- BB5 -->
<g id="node6" class="node">
<title>BB5</title>
<ellipse fill="none" stroke="black" cx="359.84" cy="-444.58" rx="113.69" ry="48.17"/>
<text text-anchor="middle" x="359.84" y="-463.38" font-family="Times New Roman,serif" font-size="14.00">[22..2d)</text>
<text text-anchor="middle" x="359.84" y="-448.38" font-family="Times New Roman,serif" font-size="14.00">Count: 115</text>
<text text-anchor="middle" x="359.84" y="-433.38" font-family="Times New Roman,serif" font-size="14.00">Normalized count: Infinity</text>
<text text-anchor="middle" x="359.84" y="-418.38" font-family="Times New Roman,serif" font-size="14.00">Samples weight: 0.17</text>
</g>
<!-- BB0&#45;&gt;BB5 -->
<g id="edge1" class="edge">
<title>BB0&#45;&gt;BB5</title>
<path fill="none" stroke="black" d="M359.84,-528.39C359.84,-520.12 359.84,-511.44 359.84,-502.93"/>
<polygon fill="black" stroke="black" points="363.34,-502.69 359.84,-492.69 356.34,-502.69 363.34,-502.69"/>
</g>
<!-- BB1 -->
<g id="node2" class="node">
<title>BB1</title>
<ellipse fill="none" stroke="black" cx="217.84" cy="-312.42" rx="113.69" ry="48.17"/>
<text text-anchor="middle" x="217.84" y="-331.22" font-family="Times New Roman,serif" font-size="14.00">[4..10)</text>
<text text-anchor="middle" x="217.84" y="-316.22" font-family="Times New Roman,serif" font-size="14.00">Count: 430</text>
<text text-anchor="middle" x="217.84" y="-301.22" font-family="Times New Roman,serif" font-size="14.00">Normalized count: Infinity</text>
<text text-anchor="middle" x="217.84" y="-286.22" font-family="Times New Roman,serif" font-size="14.00">Samples weight: 0.63</text>
</g>
<!-- BB2 -->
<g id="node3" class="node">
<title>BB2</title>
<ellipse fill="none" stroke="black" cx="113.84" cy="-180.25" rx="113.69" ry="48.17"/>
<text text-anchor="middle" x="113.84" y="-199.05" font-family="Times New Roman,serif" font-size="14.00">[10..1c)</text>
<text text-anchor="middle" x="113.84" y="-184.05" font-family="Times New Roman,serif" font-size="14.00">Count: 55</text>
<text text-anchor="middle" x="113.84" y="-169.05" font-family="Times New Roman,serif" font-size="14.00">Normalized count: Infinity</text>
<text text-anchor="middle" x="113.84" y="-154.05" font-family="Times New Roman,serif" font-size="14.00">Samples weight: 0.08</text>
</g>
<!-- BB1&#45;&gt;BB2 -->
<g id="edge3" class="edge">
<title>BB1&#45;&gt;BB2</title>
<path fill="none" stroke="black" d="M182.05,-266.62C173.72,-256.19 164.77,-244.99 156.18,-234.24"/>
<polygon fill="black" stroke="black" points="158.68,-231.76 149.7,-226.13 153.21,-236.13 158.68,-231.76"/>
</g>
<!-- BB4 -->
<g id="node5" class="node">
<title>BB4</title>
<ellipse fill="none" stroke="black" cx="359.84" cy="-180.25" rx="113.69" ry="48.17"/>
<text text-anchor="middle" x="359.84" y="-199.05" font-family="Times New Roman,serif" font-size="14.00">[1e..22)</text>
<text text-anchor="middle" x="359.84" y="-184.05" font-family="Times New Roman,serif" font-size="14.00">Count: 76</text>
<text text-anchor="middle" x="359.84" y="-169.05" font-family="Times New Roman,serif" font-size="14.00">Normalized count: Infinity</text>
<text text-anchor="middle" x="359.84" y="-154.05" font-family="Times New Roman,serif" font-size="14.00">Samples weight: 0.11</text>
</g>
<!-- BB1&#45;&gt;BB4 -->
<g id="edge2" class="edge">
<title>BB1&#45;&gt;BB4</title>
<path fill="none" stroke="black" d="M264.73,-268.43C277.82,-256.44 292.15,-243.3 305.62,-230.95"/>
<polygon fill="black" stroke="black" points="308,-233.52 313,-224.19 303.27,-228.36 308,-233.52"/>
</g>
<!-- BB3 -->
<g id="node4" class="node">
<title>BB3</title>
<ellipse fill="none" stroke="black" cx="113.84" cy="-48.08" rx="113.69" ry="48.17"/>
<text text-anchor="middle" x="113.84" y="-66.88" font-family="Times New Roman,serif" font-size="14.00">[1c..1e)</text>
<text text-anchor="middle" x="113.84" y="-51.88" font-family="Times New Roman,serif" font-size="14.00">Count: 7</text>
<text text-anchor="middle" x="113.84" y="-36.88" font-family="Times New Roman,serif" font-size="14.00">Normalized count: Infinity</text>
<text text-anchor="middle" x="113.84" y="-21.88" font-family="Times New Roman,serif" font-size="14.00">Samples weight: 0.01</text>
</g>
<!-- BB2&#45;&gt;BB3 -->
<g id="edge5" class="edge">
<title>BB2&#45;&gt;BB3</title>
<path fill="none" stroke="black" d="M113.84,-131.89C113.84,-123.62 113.84,-114.94 113.84,-106.43"/>
<polygon fill="black" stroke="black" points="117.34,-106.19 113.84,-96.19 110.34,-106.19 117.34,-106.19"/>
</g>
<!-- BB2&#45;&gt;BB4 -->
<g id="edge4" class="edge">
<title>BB2&#45;&gt;BB4</title>
<path fill="none" stroke="black" d="M227.72,-180.25C230.35,-180.25 232.98,-180.25 235.62,-180.25"/>
<polygon fill="black" stroke="black" points="235.78,-183.75 245.78,-180.25 235.78,-176.75 235.78,-183.75"/>
</g>
<!-- BB4&#45;&gt;BB5 -->
<g id="edge6" class="edge">
<title>BB4&#45;&gt;BB5</title>
<path fill="none" stroke="black" d="M359.84,-228.52C359.84,-272.79 359.84,-339.04 359.84,-386.3"/>
<polygon fill="black" stroke="black" points="356.34,-386.38 359.84,-396.38 363.34,-386.38 356.34,-386.38"/>
</g>
<!-- BB5&#45;&gt;BB1 -->
<g id="edge7" class="edge">
<title>BB5&#45;&gt;BB1</title>
<path fill="none" stroke="black" d="M312.95,-400.6C299.87,-388.6 285.54,-375.47 272.07,-363.12"/>
<polygon fill="black" stroke="black" points="274.42,-360.53 264.68,-356.35 269.69,-365.69 274.42,-360.53"/>
</g>
<!-- BB6 -->
<g id="node7" class="node">
<title>BB6</title>
<ellipse fill="none" stroke="black" cx="501.84" cy="-312.42" rx="113.69" ry="48.17"/>
<text text-anchor="middle" x="501.84" y="-331.22" font-family="Times New Roman,serif" font-size="14.00">[2d..2f)</text>
<text text-anchor="middle" x="501.84" y="-316.22" font-family="Times New Roman,serif" font-size="14.00">Count: 2</text>
<text text-anchor="middle" x="501.84" y="-301.22" font-family="Times New Roman,serif" font-size="14.00">Normalized count: Infinity</text>
<text text-anchor="middle" x="501.84" y="-286.22" font-family="Times New Roman,serif" font-size="14.00">Samples weight: 0.00</text>
</g>
<!-- BB5&#45;&gt;BB6 -->
<g id="edge8" class="edge">
<title>BB5&#45;&gt;BB6</title>
<path fill="none" stroke="black" d="M406.73,-400.6C419.82,-388.6 434.15,-375.47 447.62,-363.12"/>
<polygon fill="black" stroke="black" points="450,-365.69 455,-356.35 445.27,-360.53 450,-365.69"/>
</g>
</g>
</svg>
