<?xml version="1.0" encoding="UTF-8" standalone="no"?>
<!DOCTYPE svg PUBLIC "-//W3C//DTD SVG 1.1//EN"
 "http://www.w3.org/Graphics/SVG/1.1/DTD/svg11.dtd">
<!-- Generated by graphviz version 2.47.0 (20210316.0004)
 -->
<!-- Title: G Pages: 1 -->
<svg width="468pt" height="305pt"
 viewBox="0.00 0.00 467.62 304.86" xmlns="http://www.w3.org/2000/svg" xmlns:xlink="http://www.w3.org/1999/xlink">
<g id="graph0" class="graph" transform="scale(1 1) rotate(0) translate(4 300.86)">
<title>G</title>
<polygon fill="white" stroke="transparent" points="-4,4 -4,-300.86 463.62,-300.86 463.62,4 -4,4"/>
<!-- BB0 -->
<g id="node1" class="node">
<title>BB0</title>
<ellipse fill="none" stroke="black" cx="115.26" cy="-259.38" rx="105.22" ry="37.45"/>
<text text-anchor="middle" x="115.26" y="-270.68" font-family="Times New Roman,serif" font-size="14.00">[0..f)</text>
<text text-anchor="middle" x="115.26" y="-255.68" font-family="Times New Roman,serif" font-size="14.00">Normalized Count: 1.00</text>
<text text-anchor="middle" x="115.26" y="-240.68" font-family="Times New Roman,serif" font-size="14.00">Samples weight: 0.00</text>
</g>
<!-- BB2 -->
<g id="node3" class="node">
<title>BB2</title>
<ellipse fill="none" stroke="black" cx="115.26" cy="-148.43" rx="115.02" ry="37.45"/>
<text text-anchor="middle" x="115.26" y="-159.73" font-family="Times New Roman,serif" font-size="14.00">[24..2c)</text>
<text text-anchor="middle" x="115.26" y="-144.73" font-family="Times New Roman,serif" font-size="14.00">Normalized Count: 700.00</text>
<text text-anchor="middle" x="115.26" y="-129.73" font-family="Times New Roman,serif" font-size="14.00">Samples weight: 0.50</text>
</g>
<!-- BB0&#45;&gt;BB2 -->
<g id="edge1" class="edge">
<title>BB0&#45;&gt;BB2</title>
<path fill="none" stroke="black" d="M115.26,-221.8C115.26,-213.63 115.26,-204.85 115.26,-196.32"/>
<polygon fill="black" stroke="black" points="118.76,-196.1 115.26,-186.1 111.76,-196.1 118.76,-196.1"/>
</g>
<!-- BB1 -->
<g id="node2" class="node">
<title>BB1</title>
<ellipse fill="none" stroke="black" cx="115.26" cy="-37.48" rx="115.02" ry="37.45"/>
<text text-anchor="middle" x="115.26" y="-48.78" font-family="Times New Roman,serif" font-size="14.00">[f..24)</text>
<text text-anchor="middle" x="115.26" y="-33.78" font-family="Times New Roman,serif" font-size="14.00">Normalized Count: 699.00</text>
<text text-anchor="middle" x="115.26" y="-18.78" font-family="Times New Roman,serif" font-size="14.00">Samples weight: 0.50</text>
</g>
<!-- BB1&#45;&gt;BB2 -->
<g id="edge2" class="edge">
<title>BB1&#45;&gt;BB2</title>
<path fill="none" stroke="black" d="M121.68,-75.15C121.99,-83.33 122.08,-92.11 121.95,-100.63"/>
<polygon fill="black" stroke="black" points="118.44,-100.76 121.67,-110.85 125.44,-100.94 118.44,-100.76"/>
</g>
<!-- BB2&#45;&gt;BB1 -->
<g id="edge3" class="edge">
<title>BB2&#45;&gt;BB1</title>
<path fill="none" stroke="black" d="M108.84,-110.85C108.53,-102.67 108.43,-93.89 108.57,-85.37"/>
<polygon fill="black" stroke="black" points="112.07,-85.24 108.84,-75.15 105.07,-85.05 112.07,-85.24"/>
</g>
<!-- BB3 -->
<g id="node4" class="node">
<title>BB3</title>
<ellipse fill="none" stroke="black" cx="354.26" cy="-37.48" rx="105.22" ry="37.45"/>
<text text-anchor="middle" x="354.26" y="-48.78" font-family="Times New Roman,serif" font-size="14.00">[2c..2d)</text>
<text text-anchor="middle" x="354.26" y="-33.78" font-family="Times New Roman,serif" font-size="14.00">Normalized Count: 1.00</text>
<text text-anchor="middle" x="354.26" y="-18.78" font-family="Times New Roman,serif" font-size="14.00">Samples weight: 0.00</text>
</g>
<!-- BB2&#45;&gt;BB3 -->
<g id="edge4" class="edge">
<title>BB2&#45;&gt;BB3</title>
<path fill="none" stroke="black" d="M180.88,-117.51C211.95,-103.35 249.16,-86.39 281.13,-71.81"/>
<polygon fill="black" stroke="black" points="282.78,-74.91 290.43,-67.57 279.88,-68.54 282.78,-74.91"/>
</g>
</g>
</svg>
