<?xml version="1.0" encoding="UTF-8" standalone="no"?>
<!DOCTYPE svg PUBLIC "-//W3C//DTD SVG 1.1//EN"
 "http://www.w3.org/Graphics/SVG/1.1/DTD/svg11.dtd">
<!-- Generated by graphviz version 2.47.0 (20210316.0004)
 -->
<!-- Title: G Pages: 1 -->
<svg width="936pt" height="527pt"
 viewBox="0.00 0.00 935.67 526.77" xmlns="http://www.w3.org/2000/svg" xmlns:xlink="http://www.w3.org/1999/xlink">
<g id="graph0" class="graph" transform="scale(1 1) rotate(0) translate(4 522.77)">
<title>G</title>
<polygon fill="white" stroke="transparent" points="-4,4 -4,-522.77 931.67,-522.77 931.67,4 -4,4"/>
<!-- BB0 -->
<g id="node1" class="node">
<title>BB0</title>
<ellipse fill="none" stroke="black" cx="471.31" cy="-481.29" rx="105.22" ry="37.45"/>
<text text-anchor="middle" x="471.31" y="-492.59" font-family="Times New Roman,serif" font-size="14.00">[0..18)</text>
<text text-anchor="middle" x="471.31" y="-477.59" font-family="Times New Roman,serif" font-size="14.00">Normalized Count: 1.00</text>
<text text-anchor="middle" x="471.31" y="-462.59" font-family="Times New Roman,serif" font-size="14.00">Samples weight: 0.00</text>
</g>
<!-- BB1 -->
<g id="node2" class="node">
<title>BB1</title>
<ellipse fill="none" stroke="black" cx="471.31" cy="-370.34" rx="115.02" ry="37.45"/>
<text text-anchor="middle" x="471.31" y="-381.64" font-family="Times New Roman,serif" font-size="14.00">[18..31)</text>
<text text-anchor="middle" x="471.31" y="-366.64" font-family="Times New Roman,serif" font-size="14.00">Normalized Count: 547.00</text>
<text text-anchor="middle" x="471.31" y="-351.64" font-family="Times New Roman,serif" font-size="14.00">Samples weight: 0.61</text>
</g>
<!-- BB0&#45;&gt;BB1 -->
<g id="edge1" class="edge">
<title>BB0&#45;&gt;BB1</title>
<path fill="none" stroke="black" d="M471.31,-443.71C471.31,-435.53 471.31,-426.75 471.31,-418.23"/>
<polygon fill="black" stroke="black" points="474.81,-418.01 471.31,-408.01 467.81,-418.01 474.81,-418.01"/>
</g>
<!-- BB2 -->
<g id="node3" class="node">
<title>BB2</title>
<ellipse fill="none" stroke="black" cx="309.31" cy="-259.38" rx="115.02" ry="37.45"/>
<text text-anchor="middle" x="309.31" y="-270.68" font-family="Times New Roman,serif" font-size="14.00">[31..49)</text>
<text text-anchor="middle" x="309.31" y="-255.68" font-family="Times New Roman,serif" font-size="14.00">Normalized Count: 106.00</text>
<text text-anchor="middle" x="309.31" y="-240.68" font-family="Times New Roman,serif" font-size="14.00">Samples weight: 0.12</text>
</g>
<!-- BB1&#45;&gt;BB2 -->
<g id="edge3" class="edge">
<title>BB1&#45;&gt;BB2</title>
<path fill="none" stroke="black" d="M422.26,-336.35C404.9,-324.67 385.2,-311.42 367.17,-299.3"/>
<polygon fill="black" stroke="black" points="368.72,-296.12 358.47,-293.44 364.81,-301.93 368.72,-296.12"/>
</g>
<!-- BB5 -->
<g id="node6" class="node">
<title>BB5</title>
<ellipse fill="none" stroke="black" cx="628.31" cy="-259.38" rx="110.12" ry="37.45"/>
<text text-anchor="middle" x="628.31" y="-270.68" font-family="Times New Roman,serif" font-size="14.00">[7b..93)</text>
<text text-anchor="middle" x="628.31" y="-255.68" font-family="Times New Roman,serif" font-size="14.00">Normalized Count: 60.00</text>
<text text-anchor="middle" x="628.31" y="-240.68" font-family="Times New Roman,serif" font-size="14.00">Samples weight: 0.07</text>
</g>
<!-- BB1&#45;&gt;BB5 -->
<g id="edge2" class="edge">
<title>BB1&#45;&gt;BB5</title>
<path fill="none" stroke="black" d="M519.27,-336.06C536.08,-324.38 555.12,-311.18 572.52,-299.1"/>
<polygon fill="black" stroke="black" points="574.69,-301.85 580.91,-293.27 570.7,-296.1 574.69,-301.85"/>
</g>
<!-- BB3 -->
<g id="node4" class="node">
<title>BB3</title>
<ellipse fill="none" stroke="black" cx="349.31" cy="-148.43" rx="110.12" ry="37.45"/>
<text text-anchor="middle" x="349.31" y="-159.73" font-family="Times New Roman,serif" font-size="14.00">[49..62)</text>
<text text-anchor="middle" x="349.31" y="-144.73" font-family="Times New Roman,serif" font-size="14.00">Normalized Count: 76.00</text>
<text text-anchor="middle" x="349.31" y="-129.73" font-family="Times New Roman,serif" font-size="14.00">Samples weight: 0.08</text>
</g>
<!-- BB2&#45;&gt;BB3 -->
<g id="edge5" class="edge">
<title>BB2&#45;&gt;BB3</title>
<path fill="none" stroke="black" d="M322.63,-222.1C325.77,-213.56 329.15,-204.34 332.42,-195.42"/>
<polygon fill="black" stroke="black" points="335.75,-196.52 335.91,-185.92 329.18,-194.1 335.75,-196.52"/>
</g>
<!-- BB4 -->
<g id="node5" class="node">
<title>BB4</title>
<ellipse fill="none" stroke="black" cx="110.31" cy="-148.43" rx="110.12" ry="37.45"/>
<text text-anchor="middle" x="110.31" y="-159.73" font-family="Times New Roman,serif" font-size="14.00">[62..7b)</text>
<text text-anchor="middle" x="110.31" y="-144.73" font-family="Times New Roman,serif" font-size="14.00">Normalized Count: 65.00</text>
<text text-anchor="middle" x="110.31" y="-129.73" font-family="Times New Roman,serif" font-size="14.00">Samples weight: 0.07</text>
</g>
<!-- BB2&#45;&gt;BB4 -->
<g id="edge4" class="edge">
<title>BB2&#45;&gt;BB4</title>
<path fill="none" stroke="black" d="M251.75,-226.87C228.13,-213.94 200.66,-198.9 176.24,-185.53"/>
<polygon fill="black" stroke="black" points="177.85,-182.42 167.39,-180.68 174.49,-188.56 177.85,-182.42"/>
</g>
<!-- BB3&#45;&gt;BB1 -->
<g id="edge6" class="edge">
<title>BB3&#45;&gt;BB1</title>
<path fill="none" stroke="black" d="M397.49,-182.38C410.78,-193.55 424.06,-207.02 433.31,-221.91 452.28,-252.47 461.82,-292.21 466.6,-322.73"/>
<polygon fill="black" stroke="black" points="463.14,-323.31 468.04,-332.7 470.07,-322.3 463.14,-323.31"/>
</g>
<!-- BB8 -->
<g id="node9" class="node">
<title>BB8</title>
<ellipse fill="none" stroke="black" cx="466.31" cy="-37.48" rx="110.12" ry="37.45"/>
<text text-anchor="middle" x="466.31" y="-48.78" font-family="Times New Roman,serif" font-size="14.00">[c6..11a)</text>
<text text-anchor="middle" x="466.31" y="-33.78" font-family="Times New Roman,serif" font-size="14.00">Normalized Count: 34.00</text>
<text text-anchor="middle" x="466.31" y="-18.78" font-family="Times New Roman,serif" font-size="14.00">Samples weight: 0.04</text>
</g>
<!-- BB4&#45;&gt;BB8 -->
<g id="edge7" class="edge">
<title>BB4&#45;&gt;BB8</title>
<path fill="none" stroke="black" d="M191.09,-122.71C246.07,-105.88 318.9,-83.59 375.82,-66.17"/>
<polygon fill="black" stroke="black" points="377,-69.47 385.54,-63.2 374.95,-62.78 377,-69.47"/>
</g>
<!-- BB6 -->
<g id="node7" class="node">
<title>BB6</title>
<ellipse fill="none" stroke="black" cx="588.31" cy="-148.43" rx="110.12" ry="37.45"/>
<text text-anchor="middle" x="588.31" y="-159.73" font-family="Times New Roman,serif" font-size="14.00">[93..af)</text>
<text text-anchor="middle" x="588.31" y="-144.73" font-family="Times New Roman,serif" font-size="14.00">Normalized Count: 10.00</text>
<text text-anchor="middle" x="588.31" y="-129.73" font-family="Times New Roman,serif" font-size="14.00">Samples weight: 0.01</text>
</g>
<!-- BB5&#45;&gt;BB6 -->
<g id="edge9" class="edge">
<title>BB5&#45;&gt;BB6</title>
<path fill="none" stroke="black" d="M614.99,-222.1C611.85,-213.56 608.47,-204.34 605.19,-195.42"/>
<polygon fill="black" stroke="black" points="608.44,-194.1 601.71,-185.92 601.87,-196.52 608.44,-194.1"/>
</g>
<!-- BB7 -->
<g id="node8" class="node">
<title>BB7</title>
<ellipse fill="none" stroke="black" cx="822.31" cy="-148.43" rx="105.22" ry="37.45"/>
<text text-anchor="middle" x="822.31" y="-159.73" font-family="Times New Roman,serif" font-size="14.00">[af..c6)</text>
<text text-anchor="middle" x="822.31" y="-144.73" font-family="Times New Roman,serif" font-size="14.00">Normalized Count: 3.00</text>
<text text-anchor="middle" x="822.31" y="-129.73" font-family="Times New Roman,serif" font-size="14.00">Samples weight: 0.00</text>
</g>
<!-- BB5&#45;&gt;BB7 -->
<g id="edge8" class="edge">
<title>BB5&#45;&gt;BB7</title>
<path fill="none" stroke="black" d="M684.16,-227.02C707.29,-214.03 734.25,-198.89 758.18,-185.45"/>
<polygon fill="black" stroke="black" points="760.18,-188.34 767.18,-180.39 756.75,-182.23 760.18,-188.34"/>
</g>
<!-- BB6&#45;&gt;BB1 -->
<g id="edge10" class="edge">
<title>BB6&#45;&gt;BB1</title>
<path fill="none" stroke="black" d="M543.02,-182.84C530.52,-194.03 518.02,-207.38 509.31,-221.91 490.8,-252.76 481.23,-292.48 476.33,-322.92"/>
<polygon fill="black" stroke="black" points="472.86,-322.45 474.84,-332.86 479.78,-323.49 472.86,-322.45"/>
</g>
<!-- BB7&#45;&gt;BB8 -->
<g id="edge11" class="edge">
<title>BB7&#45;&gt;BB8</title>
<path fill="none" stroke="black" d="M745.03,-122.74C732.44,-118.77 719.52,-114.72 707.31,-110.95 658.01,-95.72 602.92,-79.12 557.86,-65.66"/>
<polygon fill="black" stroke="black" points="558.69,-62.25 548.11,-62.75 556.69,-68.96 558.69,-62.25"/>
</g>
</g>
</svg>
