<?xml version="1.0" encoding="UTF-8" standalone="no"?>
<!DOCTYPE svg PUBLIC "-//W3C//DTD SVG 1.1//EN"
 "http://www.w3.org/Graphics/SVG/1.1/DTD/svg11.dtd">
<!-- Generated by graphviz version 2.47.0 (20210316.0004)
 -->
<!-- Title: G Pages: 1 -->
<svg width="401pt" height="331pt"
 viewBox="0.00 0.00 400.85 330.96" xmlns="http://www.w3.org/2000/svg" xmlns:xlink="http://www.w3.org/1999/xlink">
<g id="graph0" class="graph" transform="scale(1 1) rotate(0) translate(4 326.96)">
<title>G</title>
<polygon fill="white" stroke="transparent" points="-4,4 -4,-326.96 396.85,-326.96 396.85,4 -4,4"/>
<!-- BB0 -->
<g id="node1" class="node">
<title>BB0</title>
<ellipse fill="none" stroke="black" cx="197.13" cy="-296.09" rx="37.45" ry="26.74"/>
<text text-anchor="middle" x="197.13" y="-299.89" font-family="Times New Roman,serif" font-size="14.00">[0..27)</text>
<text text-anchor="middle" x="197.13" y="-284.89" font-family="Times New Roman,serif" font-size="14.00">0.55</text>
</g>
<!-- BB1 -->
<g id="node2" class="node">
<title>BB1</title>
<ellipse fill="none" stroke="black" cx="249.13" cy="-206.35" rx="41.02" ry="26.74"/>
<text text-anchor="middle" x="249.13" y="-210.15" font-family="Times New Roman,serif" font-size="14.00">[27..2f)</text>
<text text-anchor="middle" x="249.13" y="-195.15" font-family="Times New Roman,serif" font-size="14.00">0.08</text>
</g>
<!-- BB0&#45;&gt;BB1 -->
<g id="edge2" class="edge">
<title>BB0&#45;&gt;BB1</title>
<path fill="none" stroke="black" d="M211.34,-271.12C216.97,-261.62 223.53,-250.54 229.6,-240.31"/>
<polygon fill="black" stroke="black" points="232.67,-241.99 234.76,-231.6 226.65,-238.42 232.67,-241.99"/>
</g>
<!-- BB2 -->
<g id="node3" class="node">
<title>BB2</title>
<ellipse fill="none" stroke="black" cx="147.13" cy="-206.35" rx="41.94" ry="26.74"/>
<text text-anchor="middle" x="147.13" y="-210.15" font-family="Times New Roman,serif" font-size="14.00">[2f..6b)</text>
<text text-anchor="middle" x="147.13" y="-195.15" font-family="Times New Roman,serif" font-size="14.00">0.17</text>
</g>
<!-- BB0&#45;&gt;BB2 -->
<g id="edge1" class="edge">
<title>BB0&#45;&gt;BB2</title>
<path fill="none" stroke="black" d="M183.21,-270.65C177.94,-261.41 171.85,-250.73 166.2,-240.8"/>
<polygon fill="black" stroke="black" points="169.15,-238.92 161.16,-231.96 163.07,-242.39 169.15,-238.92"/>
</g>
<!-- BB6 -->
<g id="node7" class="node">
<title>BB6</title>
<ellipse fill="none" stroke="black" cx="251.13" cy="-116.61" rx="42.35" ry="26.74"/>
<text text-anchor="middle" x="251.13" y="-120.41" font-family="Times New Roman,serif" font-size="14.00">[7c..84)</text>
<text text-anchor="middle" x="251.13" y="-105.41" font-family="Times New Roman,serif" font-size="14.00">0.02</text>
</g>
<!-- BB1&#45;&gt;BB6 -->
<g id="edge3" class="edge">
<title>BB1&#45;&gt;BB6</title>
<path fill="none" stroke="black" d="M249.73,-179.03C249.92,-171.06 250.12,-162.17 250.31,-153.68"/>
<polygon fill="black" stroke="black" points="253.81,-153.69 250.54,-143.61 246.81,-153.53 253.81,-153.69"/>
</g>
<!-- BB3 -->
<g id="node4" class="node">
<title>BB3</title>
<ellipse fill="none" stroke="black" cx="43.13" cy="-116.61" rx="43.27" ry="26.74"/>
<text text-anchor="middle" x="43.13" y="-120.41" font-family="Times New Roman,serif" font-size="14.00">[6b..76)</text>
<text text-anchor="middle" x="43.13" y="-105.41" font-family="Times New Roman,serif" font-size="14.00">0.15</text>
</g>
<!-- BB2&#45;&gt;BB3 -->
<g id="edge5" class="edge">
<title>BB2&#45;&gt;BB3</title>
<path fill="none" stroke="black" d="M122.49,-184.56C108.7,-172.93 91.33,-158.27 76.36,-145.64"/>
<polygon fill="black" stroke="black" points="78.23,-142.64 68.33,-138.86 73.71,-147.99 78.23,-142.64"/>
</g>
<!-- BB4 -->
<g id="node5" class="node">
<title>BB4</title>
<ellipse fill="none" stroke="black" cx="147.13" cy="-116.61" rx="43.27" ry="26.74"/>
<text text-anchor="middle" x="147.13" y="-120.41" font-family="Times New Roman,serif" font-size="14.00">[76..7b)</text>
<text text-anchor="middle" x="147.13" y="-105.41" font-family="Times New Roman,serif" font-size="14.00">0.00</text>
</g>
<!-- BB2&#45;&gt;BB4 -->
<g id="edge4" class="edge">
<title>BB2&#45;&gt;BB4</title>
<path fill="none" stroke="black" d="M147.13,-179.03C147.13,-171.06 147.13,-162.17 147.13,-153.68"/>
<polygon fill="black" stroke="black" points="150.63,-153.61 147.13,-143.61 143.63,-153.61 150.63,-153.61"/>
</g>
<!-- BB5 -->
<g id="node6" class="node">
<title>BB5</title>
<ellipse fill="none" stroke="black" cx="147.13" cy="-26.87" rx="43.27" ry="26.74"/>
<text text-anchor="middle" x="147.13" y="-30.67" font-family="Times New Roman,serif" font-size="14.00">[7b..7c)</text>
<text text-anchor="middle" x="147.13" y="-15.67" font-family="Times New Roman,serif" font-size="14.00">0.02</text>
</g>
<!-- BB3&#45;&gt;BB5 -->
<g id="edge6" class="edge">
<title>BB3&#45;&gt;BB5</title>
<path fill="none" stroke="black" d="M68.04,-94.59C81.84,-82.96 99.15,-68.35 114.07,-55.77"/>
<polygon fill="black" stroke="black" points="116.68,-58.14 122.07,-49.02 112.17,-52.79 116.68,-58.14"/>
</g>
<!-- BB4&#45;&gt;BB5 -->
<g id="edge7" class="edge">
<title>BB4&#45;&gt;BB5</title>
<path fill="none" stroke="black" d="M147.13,-89.29C147.13,-81.32 147.13,-72.43 147.13,-63.94"/>
<polygon fill="black" stroke="black" points="150.63,-63.87 147.13,-53.87 143.63,-63.87 150.63,-63.87"/>
</g>
<!-- BB5&#45;&gt;BB6 -->
<g id="edge8" class="edge">
<title>BB5&#45;&gt;BB6</title>
<path fill="none" stroke="black" d="M172.2,-49.02C186.02,-60.68 203.34,-75.29 218.24,-87.86"/>
<polygon fill="black" stroke="black" points="216.32,-90.82 226.22,-94.59 220.84,-85.47 216.32,-90.82"/>
</g>
<!-- BB7 -->
<g id="node8" class="node">
<title>BB7</title>
<ellipse fill="none" stroke="black" cx="250.13" cy="-26.87" rx="41.94" ry="26.74"/>
<text text-anchor="middle" x="250.13" y="-30.67" font-family="Times New Roman,serif" font-size="14.00">[84..8a)</text>
<text text-anchor="middle" x="250.13" y="-15.67" font-family="Times New Roman,serif" font-size="14.00">0.00</text>
</g>
<!-- BB6&#45;&gt;BB7 -->
<g id="edge10" class="edge">
<title>BB6&#45;&gt;BB7</title>
<path fill="none" stroke="black" d="M250.83,-89.29C250.74,-81.32 250.64,-72.43 250.54,-63.94"/>
<polygon fill="black" stroke="black" points="254.04,-63.83 250.43,-53.87 247.04,-63.91 254.04,-63.83"/>
</g>
<!-- BB8 -->
<g id="node9" class="node">
<title>BB8</title>
<ellipse fill="none" stroke="black" cx="351.13" cy="-26.87" rx="41.94" ry="26.74"/>
<text text-anchor="middle" x="351.13" y="-30.67" font-family="Times New Roman,serif" font-size="14.00">[8a..94)</text>
<text text-anchor="middle" x="351.13" y="-15.67" font-family="Times New Roman,serif" font-size="14.00">0.02</text>
</g>
<!-- BB6&#45;&gt;BB8 -->
<g id="edge9" class="edge">
<title>BB6&#45;&gt;BB8</title>
<path fill="none" stroke="black" d="M275.34,-94.37C288.61,-82.73 305.21,-68.17 319.49,-55.63"/>
<polygon fill="black" stroke="black" points="321.94,-58.14 327.15,-48.91 317.32,-52.88 321.94,-58.14"/>
</g>
</g>
</svg>
