<?xml version="1.0" encoding="UTF-8" standalone="no"?>
<!DOCTYPE svg PUBLIC "-//W3C//DTD SVG 1.1//EN"
 "http://www.w3.org/Graphics/SVG/1.1/DTD/svg11.dtd">
<!-- Generated by graphviz version 2.47.0 (20210316.0004)
 -->
<!-- Title: G Pages: 1 -->
<svg width="1143pt" height="1029pt"
 viewBox="0.00 0.00 1143.48 1029.33" xmlns="http://www.w3.org/2000/svg" xmlns:xlink="http://www.w3.org/1999/xlink">
<g id="graph0" class="graph" transform="scale(1 1) rotate(0) translate(4 1025.33)">
<title>G</title>
<polygon fill="white" stroke="transparent" points="-4,4 -4,-1025.33 1139.48,-1025.33 1139.48,4 -4,4"/>
<!-- BB0 -->
<g id="node1" class="node">
<title>BB0</title>
<ellipse fill="none" stroke="black" cx="168.24" cy="-973.25" rx="103.48" ry="48.17"/>
<text text-anchor="middle" x="168.24" y="-992.05" font-family="Times New Roman,serif" font-size="14.00">[0..6)</text>
<text text-anchor="middle" x="168.24" y="-977.05" font-family="Times New Roman,serif" font-size="14.00">Count: 11</text>
<text text-anchor="middle" x="168.24" y="-962.05" font-family="Times New Roman,serif" font-size="14.00">Normalized count: 1.00</text>
<text text-anchor="middle" x="168.24" y="-947.05" font-family="Times New Roman,serif" font-size="14.00">Samples weight: 0.02</text>
</g>
<!-- BB3 -->
<g id="node4" class="node">
<title>BB3</title>
<ellipse fill="none" stroke="black" cx="168.24" cy="-841.08" rx="103.48" ry="48.17"/>
<text text-anchor="middle" x="168.24" y="-859.88" font-family="Times New Roman,serif" font-size="14.00">[1d..21)</text>
<text text-anchor="middle" x="168.24" y="-844.88" font-family="Times New Roman,serif" font-size="14.00">Count: 16</text>
<text text-anchor="middle" x="168.24" y="-829.88" font-family="Times New Roman,serif" font-size="14.00">Normalized count: 1.45</text>
<text text-anchor="middle" x="168.24" y="-814.88" font-family="Times New Roman,serif" font-size="14.00">Samples weight: 0.03</text>
</g>
<!-- BB0&#45;&gt;BB3 -->
<g id="edge1" class="edge">
<title>BB0&#45;&gt;BB3</title>
<path fill="none" stroke="black" d="M168.24,-924.89C168.24,-916.62 168.24,-907.94 168.24,-899.43"/>
<polygon fill="black" stroke="black" points="171.74,-899.19 168.24,-889.19 164.74,-899.19 171.74,-899.19"/>
</g>
<!-- BB1 -->
<g id="node2" class="node">
<title>BB1</title>
<ellipse fill="none" stroke="black" cx="103.24" cy="-708.92" rx="103.48" ry="48.17"/>
<text text-anchor="middle" x="103.24" y="-727.72" font-family="Times New Roman,serif" font-size="14.00">[6..16)</text>
<text text-anchor="middle" x="103.24" y="-712.72" font-family="Times New Roman,serif" font-size="14.00">Count: 5</text>
<text text-anchor="middle" x="103.24" y="-697.72" font-family="Times New Roman,serif" font-size="14.00">Normalized count: 0.45</text>
<text text-anchor="middle" x="103.24" y="-682.72" font-family="Times New Roman,serif" font-size="14.00">Samples weight: 0.01</text>
</g>
<!-- BB2 -->
<g id="node3" class="node">
<title>BB2</title>
<ellipse fill="none" stroke="black" cx="112.24" cy="-576.75" rx="103.48" ry="48.17"/>
<text text-anchor="middle" x="112.24" y="-595.55" font-family="Times New Roman,serif" font-size="14.00">[16..1d)</text>
<text text-anchor="middle" x="112.24" y="-580.55" font-family="Times New Roman,serif" font-size="14.00">Count: 2</text>
<text text-anchor="middle" x="112.24" y="-565.55" font-family="Times New Roman,serif" font-size="14.00">Normalized count: 0.18</text>
<text text-anchor="middle" x="112.24" y="-550.55" font-family="Times New Roman,serif" font-size="14.00">Samples weight: 0.00</text>
</g>
<!-- BB1&#45;&gt;BB2 -->
<g id="edge3" class="edge">
<title>BB1&#45;&gt;BB2</title>
<path fill="none" stroke="black" d="M106.51,-660.55C107.08,-652.29 107.68,-643.6 108.27,-635.1"/>
<polygon fill="black" stroke="black" points="111.78,-635.08 108.98,-624.86 104.8,-634.59 111.78,-635.08"/>
</g>
<!-- BB1&#45;&gt;BB3 -->
<g id="edge2" class="edge">
<title>BB1&#45;&gt;BB3</title>
<path fill="none" stroke="black" d="M132.39,-755.34C137.33,-764.69 142.37,-774.64 147.07,-784.3"/>
<polygon fill="black" stroke="black" points="143.98,-785.95 151.46,-793.46 150.29,-782.93 143.98,-785.95"/>
</g>
<!-- BB2&#45;&gt;BB3 -->
<g id="edge4" class="edge">
<title>BB2&#45;&gt;BB3</title>
<path fill="none" stroke="black" d="M176.09,-614.78C191.79,-627.25 206.57,-642.7 215.24,-660.83 233.67,-699.39 226.12,-715.67 215.24,-757 212.67,-766.74 208.68,-776.53 204.08,-785.8"/>
<polygon fill="black" stroke="black" points="200.86,-784.41 199.31,-794.89 207.06,-787.66 200.86,-784.41"/>
</g>
<!-- BB3&#45;&gt;BB1 -->
<g id="edge5" class="edge">
<title>BB3&#45;&gt;BB1</title>
<path fill="none" stroke="black" d="M139.23,-794.92C134.28,-785.57 129.23,-775.62 124.52,-765.94"/>
<polygon fill="black" stroke="black" points="127.6,-764.27 120.12,-756.77 121.29,-767.3 127.6,-764.27"/>
</g>
<!-- BB4 -->
<g id="node5" class="node">
<title>BB4</title>
<ellipse fill="none" stroke="black" cx="365.24" cy="-708.92" rx="103.48" ry="48.17"/>
<text text-anchor="middle" x="365.24" y="-727.72" font-family="Times New Roman,serif" font-size="14.00">[21..26)</text>
<text text-anchor="middle" x="365.24" y="-712.72" font-family="Times New Roman,serif" font-size="14.00">Count: 11</text>
<text text-anchor="middle" x="365.24" y="-697.72" font-family="Times New Roman,serif" font-size="14.00">Normalized count: 1.00</text>
<text text-anchor="middle" x="365.24" y="-682.72" font-family="Times New Roman,serif" font-size="14.00">Samples weight: 0.02</text>
</g>
<!-- BB3&#45;&gt;BB4 -->
<g id="edge6" class="edge">
<title>BB3&#45;&gt;BB4</title>
<path fill="none" stroke="black" d="M226.81,-801.38C249.24,-786.56 274.98,-769.55 298.15,-754.25"/>
<polygon fill="black" stroke="black" points="300.14,-757.13 306.55,-748.69 296.28,-751.29 300.14,-757.13"/>
</g>
<!-- BB5 -->
<g id="node6" class="node">
<title>BB5</title>
<ellipse fill="none" stroke="black" cx="355.24" cy="-576.75" rx="103.48" ry="48.17"/>
<text text-anchor="middle" x="355.24" y="-595.55" font-family="Times New Roman,serif" font-size="14.00">[26..2b)</text>
<text text-anchor="middle" x="355.24" y="-580.55" font-family="Times New Roman,serif" font-size="14.00">Count: 0</text>
<text text-anchor="middle" x="355.24" y="-565.55" font-family="Times New Roman,serif" font-size="14.00">Normalized count: 0.00</text>
<text text-anchor="middle" x="355.24" y="-550.55" font-family="Times New Roman,serif" font-size="14.00">Samples weight: 0.00</text>
</g>
<!-- BB4&#45;&gt;BB5 -->
<g id="edge8" class="edge">
<title>BB4&#45;&gt;BB5</title>
<path fill="none" stroke="black" d="M361.6,-660.55C360.96,-652.29 360.3,-643.6 359.64,-635.1"/>
<polygon fill="black" stroke="black" points="363.11,-634.56 358.86,-624.86 356.13,-635.1 363.11,-634.56"/>
</g>
<!-- BB7 -->
<g id="node8" class="node">
<title>BB7</title>
<ellipse fill="none" stroke="black" cx="579.24" cy="-576.75" rx="103.48" ry="48.17"/>
<text text-anchor="middle" x="579.24" y="-595.55" font-family="Times New Roman,serif" font-size="14.00">[2d..32)</text>
<text text-anchor="middle" x="579.24" y="-580.55" font-family="Times New Roman,serif" font-size="14.00">Count: 11</text>
<text text-anchor="middle" x="579.24" y="-565.55" font-family="Times New Roman,serif" font-size="14.00">Normalized count: 1.00</text>
<text text-anchor="middle" x="579.24" y="-550.55" font-family="Times New Roman,serif" font-size="14.00">Samples weight: 0.02</text>
</g>
<!-- BB4&#45;&gt;BB7 -->
<g id="edge7" class="edge">
<title>BB4&#45;&gt;BB7</title>
<path fill="none" stroke="black" d="M427.14,-670.27C452.64,-654.75 482.34,-636.69 508.68,-620.66"/>
<polygon fill="black" stroke="black" points="510.75,-623.5 517.48,-615.31 507.12,-617.52 510.75,-623.5"/>
</g>
<!-- BB6 -->
<g id="node7" class="node">
<title>BB6</title>
<ellipse fill="none" stroke="black" cx="355.24" cy="-444.58" rx="103.48" ry="48.17"/>
<text text-anchor="middle" x="355.24" y="-463.38" font-family="Times New Roman,serif" font-size="14.00">[2b..2d)</text>
<text text-anchor="middle" x="355.24" y="-448.38" font-family="Times New Roman,serif" font-size="14.00">Count: 0</text>
<text text-anchor="middle" x="355.24" y="-433.38" font-family="Times New Roman,serif" font-size="14.00">Normalized count: 0.00</text>
<text text-anchor="middle" x="355.24" y="-418.38" font-family="Times New Roman,serif" font-size="14.00">Samples weight: 0.00</text>
</g>
<!-- BB5&#45;&gt;BB6 -->
<g id="edge10" class="edge">
<title>BB5&#45;&gt;BB6</title>
<path fill="none" stroke="black" d="M355.24,-528.39C355.24,-520.12 355.24,-511.44 355.24,-502.93"/>
<polygon fill="black" stroke="black" points="358.74,-502.69 355.24,-492.69 351.74,-502.69 358.74,-502.69"/>
</g>
<!-- BB5&#45;&gt;BB7 -->
<g id="edge9" class="edge">
<title>BB5&#45;&gt;BB7</title>
<path fill="none" stroke="black" d="M458.49,-576.75C460.94,-576.75 463.4,-576.75 465.85,-576.75"/>
<polygon fill="black" stroke="black" points="465.94,-580.25 475.94,-576.75 465.94,-573.25 465.94,-580.25"/>
</g>
<!-- BB6&#45;&gt;BB7 -->
<g id="edge11" class="edge">
<title>BB6&#45;&gt;BB7</title>
<path fill="none" stroke="black" d="M418.99,-482.63C446.43,-498.58 478.66,-517.3 506.99,-533.77"/>
<polygon fill="black" stroke="black" points="505.24,-536.8 515.65,-538.8 508.76,-530.75 505.24,-536.8"/>
</g>
<!-- BB8 -->
<g id="node9" class="node">
<title>BB8</title>
<ellipse fill="none" stroke="black" cx="579.24" cy="-444.58" rx="103.48" ry="48.17"/>
<text text-anchor="middle" x="579.24" y="-463.38" font-family="Times New Roman,serif" font-size="14.00">[32..34)</text>
<text text-anchor="middle" x="579.24" y="-448.38" font-family="Times New Roman,serif" font-size="14.00">Count: 0</text>
<text text-anchor="middle" x="579.24" y="-433.38" font-family="Times New Roman,serif" font-size="14.00">Normalized count: 0.00</text>
<text text-anchor="middle" x="579.24" y="-418.38" font-family="Times New Roman,serif" font-size="14.00">Samples weight: 0.00</text>
</g>
<!-- BB7&#45;&gt;BB8 -->
<g id="edge13" class="edge">
<title>BB7&#45;&gt;BB8</title>
<path fill="none" stroke="black" d="M579.24,-528.39C579.24,-520.12 579.24,-511.44 579.24,-502.93"/>
<polygon fill="black" stroke="black" points="582.74,-502.69 579.24,-492.69 575.74,-502.69 582.74,-502.69"/>
</g>
<!-- BB9 -->
<g id="node10" class="node">
<title>BB9</title>
<ellipse fill="none" stroke="black" cx="803.24" cy="-444.58" rx="103.48" ry="48.17"/>
<text text-anchor="middle" x="803.24" y="-463.38" font-family="Times New Roman,serif" font-size="14.00">[34..38)</text>
<text text-anchor="middle" x="803.24" y="-448.38" font-family="Times New Roman,serif" font-size="14.00">Count: 11</text>
<text text-anchor="middle" x="803.24" y="-433.38" font-family="Times New Roman,serif" font-size="14.00">Normalized count: 1.00</text>
<text text-anchor="middle" x="803.24" y="-418.38" font-family="Times New Roman,serif" font-size="14.00">Samples weight: 0.02</text>
</g>
<!-- BB7&#45;&gt;BB9 -->
<g id="edge12" class="edge">
<title>BB7&#45;&gt;BB9</title>
<path fill="none" stroke="black" d="M642.83,-538.8C670.26,-522.86 702.48,-504.13 730.83,-487.66"/>
<polygon fill="black" stroke="black" points="732.6,-490.68 739.49,-482.63 729.08,-484.63 732.6,-490.68"/>
</g>
<!-- BB13 -->
<g id="node14" class="node">
<title>BB13</title>
<ellipse fill="none" stroke="black" cx="803.24" cy="-312.42" rx="108.38" ry="48.17"/>
<text text-anchor="middle" x="803.24" y="-331.22" font-family="Times New Roman,serif" font-size="14.00">[4a..4f)</text>
<text text-anchor="middle" x="803.24" y="-316.22" font-family="Times New Roman,serif" font-size="14.00">Count: 163</text>
<text text-anchor="middle" x="803.24" y="-301.22" font-family="Times New Roman,serif" font-size="14.00">Normalized count: 14.82</text>
<text text-anchor="middle" x="803.24" y="-286.22" font-family="Times New Roman,serif" font-size="14.00">Samples weight: 0.29</text>
</g>
<!-- BB9&#45;&gt;BB13 -->
<g id="edge14" class="edge">
<title>BB9&#45;&gt;BB13</title>
<path fill="none" stroke="black" d="M803.24,-396.22C803.24,-387.95 803.24,-379.27 803.24,-370.77"/>
<polygon fill="black" stroke="black" points="806.74,-370.52 803.24,-360.52 799.74,-370.52 806.74,-370.52"/>
</g>
<!-- BB10 -->
<g id="node11" class="node">
<title>BB10</title>
<ellipse fill="none" stroke="black" cx="803.24" cy="-180.25" rx="108.38" ry="48.17"/>
<text text-anchor="middle" x="803.24" y="-199.05" font-family="Times New Roman,serif" font-size="14.00">[38..40)</text>
<text text-anchor="middle" x="803.24" y="-184.05" font-family="Times New Roman,serif" font-size="14.00">Count: 163</text>
<text text-anchor="middle" x="803.24" y="-169.05" font-family="Times New Roman,serif" font-size="14.00">Normalized count: 14.82</text>
<text text-anchor="middle" x="803.24" y="-154.05" font-family="Times New Roman,serif" font-size="14.00">Samples weight: 0.29</text>
</g>
<!-- BB11 -->
<g id="node12" class="node">
<title>BB11</title>
<ellipse fill="none" stroke="black" cx="896.24" cy="-48.08" rx="103.48" ry="48.17"/>
<text text-anchor="middle" x="896.24" y="-66.88" font-family="Times New Roman,serif" font-size="14.00">[40..46)</text>
<text text-anchor="middle" x="896.24" y="-51.88" font-family="Times New Roman,serif" font-size="14.00">Count: 11</text>
<text text-anchor="middle" x="896.24" y="-36.88" font-family="Times New Roman,serif" font-size="14.00">Normalized count: 1.00</text>
<text text-anchor="middle" x="896.24" y="-21.88" font-family="Times New Roman,serif" font-size="14.00">Samples weight: 0.02</text>
</g>
<!-- BB10&#45;&gt;BB11 -->
<g id="edge16" class="edge">
<title>BB10&#45;&gt;BB11</title>
<path fill="none" stroke="black" d="M835.5,-134.09C842.79,-123.89 850.59,-112.97 858.09,-102.47"/>
<polygon fill="black" stroke="black" points="861.06,-104.34 864.03,-94.16 855.37,-100.27 861.06,-104.34"/>
</g>
<!-- BB12 -->
<g id="node13" class="node">
<title>BB12</title>
<ellipse fill="none" stroke="black" cx="667.24" cy="-48.08" rx="108.38" ry="48.17"/>
<text text-anchor="middle" x="667.24" y="-66.88" font-family="Times New Roman,serif" font-size="14.00">[46..4a)</text>
<text text-anchor="middle" x="667.24" y="-51.88" font-family="Times New Roman,serif" font-size="14.00">Count: 152</text>
<text text-anchor="middle" x="667.24" y="-36.88" font-family="Times New Roman,serif" font-size="14.00">Normalized count: 13.82</text>
<text text-anchor="middle" x="667.24" y="-21.88" font-family="Times New Roman,serif" font-size="14.00">Samples weight: 0.27</text>
</g>
<!-- BB10&#45;&gt;BB12 -->
<g id="edge15" class="edge">
<title>BB10&#45;&gt;BB12</title>
<path fill="none" stroke="black" d="M758.33,-136.27C745.91,-124.38 732.33,-111.38 719.53,-99.13"/>
<polygon fill="black" stroke="black" points="721.74,-96.41 712.1,-92.02 716.9,-101.46 721.74,-96.41"/>
</g>
<!-- BB12&#45;&gt;BB13 -->
<g id="edge17" class="edge">
<title>BB12&#45;&gt;BB13</title>
<path fill="none" stroke="black" d="M662.06,-96.14C660.13,-134.33 662.77,-188.22 686.24,-228.33 695.63,-244.39 709.5,-258.15 724.44,-269.58"/>
<polygon fill="black" stroke="black" points="722.68,-272.63 732.82,-275.7 726.8,-266.98 722.68,-272.63"/>
</g>
<!-- BB13&#45;&gt;BB10 -->
<g id="edge18" class="edge">
<title>BB13&#45;&gt;BB10</title>
<path fill="none" stroke="black" d="M803.24,-264.05C803.24,-255.79 803.24,-247.1 803.24,-238.6"/>
<polygon fill="black" stroke="black" points="806.74,-238.36 803.24,-228.36 799.74,-238.36 806.74,-238.36"/>
</g>
<!-- BB14 -->
<g id="node15" class="node">
<title>BB14</title>
<ellipse fill="none" stroke="black" cx="1032.24" cy="-180.25" rx="103.48" ry="48.17"/>
<text text-anchor="middle" x="1032.24" y="-199.05" font-family="Times New Roman,serif" font-size="14.00">[4f..51)</text>
<text text-anchor="middle" x="1032.24" y="-184.05" font-family="Times New Roman,serif" font-size="14.00">Count: 0</text>
<text text-anchor="middle" x="1032.24" y="-169.05" font-family="Times New Roman,serif" font-size="14.00">Normalized count: 0.00</text>
<text text-anchor="middle" x="1032.24" y="-154.05" font-family="Times New Roman,serif" font-size="14.00">Samples weight: 0.00</text>
</g>
<!-- BB13&#45;&gt;BB14 -->
<g id="edge19" class="edge">
<title>BB13&#45;&gt;BB14</title>
<path fill="none" stroke="black" d="M868.86,-274.12C897.01,-258.12 930.01,-239.36 958.95,-222.91"/>
<polygon fill="black" stroke="black" points="960.83,-225.87 967.79,-217.88 957.37,-219.78 960.83,-225.87"/>
</g>
</g>
</svg>
