<?xml version="1.0" encoding="UTF-8" standalone="no"?>
<!DOCTYPE svg PUBLIC "-//W3C//DTD SVG 1.1//EN"
 "http://www.w3.org/Graphics/SVG/1.1/DTD/svg11.dtd">
<!-- Generated by graphviz version 2.47.0 (20210316.0004)
 -->
<!-- Title: G Pages: 1 -->
<svg width="221pt" height="421pt"
 viewBox="0.00 0.00 220.59 420.70" xmlns="http://www.w3.org/2000/svg" xmlns:xlink="http://www.w3.org/1999/xlink">
<g id="graph0" class="graph" transform="scale(1 1) rotate(0) translate(4 416.7)">
<title>G</title>
<polygon fill="white" stroke="transparent" points="-4,4 -4,-416.7 216.59,-416.7 216.59,4 -4,4"/>
<!-- BB0 -->
<g id="node1" class="node">
<title>BB0</title>
<ellipse fill="none" stroke="black" cx="67.16" cy="-385.83" rx="37.45" ry="26.74"/>
<text text-anchor="middle" x="67.16" y="-389.63" font-family="Times New Roman,serif" font-size="14.00">[0..11)</text>
<text text-anchor="middle" x="67.16" y="-374.63" font-family="Times New Roman,serif" font-size="14.00">0.00</text>
</g>
<!-- BB5 -->
<g id="node6" class="node">
<title>BB5</title>
<ellipse fill="none" stroke="black" cx="67.16" cy="-296.09" rx="41.94" ry="26.74"/>
<text text-anchor="middle" x="67.16" y="-299.89" font-family="Times New Roman,serif" font-size="14.00">[56..5a)</text>
<text text-anchor="middle" x="67.16" y="-284.89" font-family="Times New Roman,serif" font-size="14.00">0.25</text>
</g>
<!-- BB0&#45;&gt;BB5 -->
<g id="edge1" class="edge">
<title>BB0&#45;&gt;BB5</title>
<path fill="none" stroke="black" d="M67.16,-358.51C67.16,-350.54 67.16,-341.65 67.16,-333.16"/>
<polygon fill="black" stroke="black" points="70.66,-333.09 67.16,-323.09 63.66,-333.09 70.66,-333.09"/>
</g>
<!-- BB1 -->
<g id="node2" class="node">
<title>BB1</title>
<ellipse fill="none" stroke="black" cx="67.16" cy="-206.35" rx="42.35" ry="26.74"/>
<text text-anchor="middle" x="67.16" y="-210.15" font-family="Times New Roman,serif" font-size="14.00">[11..30)</text>
<text text-anchor="middle" x="67.16" y="-195.15" font-family="Times New Roman,serif" font-size="14.00">0.25</text>
</g>
<!-- BB2 -->
<g id="node3" class="node">
<title>BB2</title>
<ellipse fill="none" stroke="black" cx="67.16" cy="-116.61" rx="42.35" ry="26.74"/>
<text text-anchor="middle" x="67.16" y="-120.41" font-family="Times New Roman,serif" font-size="14.00">[30..40)</text>
<text text-anchor="middle" x="67.16" y="-105.41" font-family="Times New Roman,serif" font-size="14.00">0.25</text>
</g>
<!-- BB1&#45;&gt;BB2 -->
<g id="edge3" class="edge">
<title>BB1&#45;&gt;BB2</title>
<path fill="none" stroke="black" d="M67.16,-179.03C67.16,-171.06 67.16,-162.17 67.16,-153.68"/>
<polygon fill="black" stroke="black" points="70.66,-153.61 67.16,-143.61 63.66,-153.61 70.66,-153.61"/>
</g>
<!-- BB3 -->
<g id="node4" class="node">
<title>BB3</title>
<ellipse fill="none" stroke="black" cx="170.16" cy="-116.61" rx="42.35" ry="26.74"/>
<text text-anchor="middle" x="170.16" y="-120.41" font-family="Times New Roman,serif" font-size="14.00">[40..52)</text>
<text text-anchor="middle" x="170.16" y="-105.41" font-family="Times New Roman,serif" font-size="14.00">0.00</text>
</g>
<!-- BB1&#45;&gt;BB3 -->
<g id="edge2" class="edge">
<title>BB1&#45;&gt;BB3</title>
<path fill="none" stroke="black" d="M91.83,-184.33C105.49,-172.7 122.64,-158.09 137.41,-145.51"/>
<polygon fill="black" stroke="black" points="139.99,-147.91 145.33,-138.76 135.45,-142.58 139.99,-147.91"/>
</g>
<!-- BB4 -->
<g id="node5" class="node">
<title>BB4</title>
<ellipse fill="none" stroke="black" cx="67.16" cy="-26.87" rx="42.35" ry="26.74"/>
<text text-anchor="middle" x="67.16" y="-30.67" font-family="Times New Roman,serif" font-size="14.00">[52..56)</text>
<text text-anchor="middle" x="67.16" y="-15.67" font-family="Times New Roman,serif" font-size="14.00">0.25</text>
</g>
<!-- BB2&#45;&gt;BB4 -->
<g id="edge4" class="edge">
<title>BB2&#45;&gt;BB4</title>
<path fill="none" stroke="black" d="M67.16,-89.29C67.16,-81.32 67.16,-72.43 67.16,-63.94"/>
<polygon fill="black" stroke="black" points="70.66,-63.87 67.16,-53.87 63.66,-63.87 70.66,-63.87"/>
</g>
<!-- BB3&#45;&gt;BB4 -->
<g id="edge5" class="edge">
<title>BB3&#45;&gt;BB4</title>
<path fill="none" stroke="black" d="M145.49,-94.59C131.83,-82.96 114.68,-68.35 99.91,-55.77"/>
<polygon fill="black" stroke="black" points="101.87,-52.84 91.99,-49.02 97.33,-58.17 101.87,-52.84"/>
</g>
<!-- BB4&#45;&gt;BB5 -->
<g id="edge6" class="edge">
<title>BB4&#45;&gt;BB5</title>
<path fill="none" stroke="black" d="M43.25,-49.23C32.79,-60.17 21.66,-74.41 16.16,-89.74 -5.39,-149.76 -5.39,-173.2 16.16,-233.22 20.46,-245.2 28.19,-256.51 36.36,-266.1"/>
<polygon fill="black" stroke="black" points="33.95,-268.66 43.25,-273.73 39.14,-263.97 33.95,-268.66"/>
</g>
<!-- BB5&#45;&gt;BB1 -->
<g id="edge7" class="edge">
<title>BB5&#45;&gt;BB1</title>
<path fill="none" stroke="black" d="M67.16,-268.77C67.16,-260.8 67.16,-251.91 67.16,-243.42"/>
<polygon fill="black" stroke="black" points="70.66,-243.35 67.16,-233.35 63.66,-243.35 70.66,-243.35"/>
</g>
<!-- BB6 -->
<g id="node7" class="node">
<title>BB6</title>
<ellipse fill="none" stroke="black" cx="170.16" cy="-206.35" rx="42.35" ry="26.74"/>
<text text-anchor="middle" x="170.16" y="-210.15" font-family="Times New Roman,serif" font-size="14.00">[5a..5b)</text>
<text text-anchor="middle" x="170.16" y="-195.15" font-family="Times New Roman,serif" font-size="14.00">0.00</text>
</g>
<!-- BB5&#45;&gt;BB6 -->
<g id="edge8" class="edge">
<title>BB5&#45;&gt;BB6</title>
<path fill="none" stroke="black" d="M91.57,-274.3C105.32,-262.58 122.68,-247.8 137.58,-235.1"/>
<polygon fill="black" stroke="black" points="140.23,-237.45 145.57,-228.3 135.69,-232.12 140.23,-237.45"/>
</g>
</g>
</svg>
