<?xml version="1.0" encoding="UTF-8" standalone="no"?>
<!DOCTYPE svg PUBLIC "-//W3C//DTD SVG 1.1//EN"
 "http://www.w3.org/Graphics/SVG/1.1/DTD/svg11.dtd">
<!-- Generated by graphviz version 2.47.0 (20210316.0004)
 -->
<!-- Title: G Pages: 1 -->
<svg width="3062pt" height="2302pt"
 viewBox="0.00 0.00 3061.57 2302.02" xmlns="http://www.w3.org/2000/svg" xmlns:xlink="http://www.w3.org/1999/xlink">
<g id="graph0" class="graph" transform="scale(1 1) rotate(0) translate(4 2298.02)">
<title>G</title>
<polygon fill="white" stroke="transparent" points="-4,4 -4,-2298.02 3057.57,-2298.02 3057.57,4 -4,4"/>
<!-- BB0 -->
<g id="node1" class="node">
<title>BB0</title>
<ellipse fill="none" stroke="black" cx="120.21" cy="-2256.54" rx="105.22" ry="37.45"/>
<text text-anchor="middle" x="120.21" y="-2267.84" font-family="Times New Roman,serif" font-size="14.00">[0..4)</text>
<text text-anchor="middle" x="120.21" y="-2252.84" font-family="Times New Roman,serif" font-size="14.00">Normalized Count: 1.00</text>
<text text-anchor="middle" x="120.21" y="-2237.84" font-family="Times New Roman,serif" font-size="14.00">Samples weight: 0.00</text>
</g>
<!-- BB2 -->
<g id="node3" class="node">
<title>BB2</title>
<ellipse fill="none" stroke="black" cx="120.21" cy="-2145.59" rx="120.42" ry="37.45"/>
<text text-anchor="middle" x="120.21" y="-2156.89" font-family="Times New Roman,serif" font-size="14.00">[3b..43)</text>
<text text-anchor="middle" x="120.21" y="-2141.89" font-family="Times New Roman,serif" font-size="14.00">Normalized Count: 1001.00</text>
<text text-anchor="middle" x="120.21" y="-2126.89" font-family="Times New Roman,serif" font-size="14.00">Samples weight: 0.08</text>
</g>
<!-- BB0&#45;&gt;BB2 -->
<g id="edge1" class="edge">
<title>BB0&#45;&gt;BB2</title>
<path fill="none" stroke="black" d="M120.21,-2218.96C120.21,-2210.79 120.21,-2202.01 120.21,-2193.48"/>
<polygon fill="black" stroke="black" points="123.71,-2193.26 120.21,-2183.26 116.71,-2193.26 123.71,-2193.26"/>
</g>
<!-- BB1 -->
<g id="node2" class="node">
<title>BB1</title>
<ellipse fill="none" stroke="black" cx="120.21" cy="-2034.64" rx="120.42" ry="37.45"/>
<text text-anchor="middle" x="120.21" y="-2045.94" font-family="Times New Roman,serif" font-size="14.00">[4..3b)</text>
<text text-anchor="middle" x="120.21" y="-2030.94" font-family="Times New Roman,serif" font-size="14.00">Normalized Count: 1000.00</text>
<text text-anchor="middle" x="120.21" y="-2015.94" font-family="Times New Roman,serif" font-size="14.00">Samples weight: 0.08</text>
</g>
<!-- BB1&#45;&gt;BB2 -->
<g id="edge2" class="edge">
<title>BB1&#45;&gt;BB2</title>
<path fill="none" stroke="black" d="M126.63,-2072.31C126.94,-2080.49 127.03,-2089.27 126.9,-2097.79"/>
<polygon fill="black" stroke="black" points="123.39,-2097.92 126.62,-2108.01 130.39,-2098.1 123.39,-2097.92"/>
</g>
<!-- BB2&#45;&gt;BB1 -->
<g id="edge3" class="edge">
<title>BB2&#45;&gt;BB1</title>
<path fill="none" stroke="black" d="M113.79,-2108.01C113.48,-2099.83 113.38,-2091.05 113.52,-2082.53"/>
<polygon fill="black" stroke="black" points="117.02,-2082.4 113.79,-2072.31 110.02,-2082.21 117.02,-2082.4"/>
</g>
<!-- BB3 -->
<g id="node4" class="node">
<title>BB3</title>
<ellipse fill="none" stroke="black" cx="364.21" cy="-2034.64" rx="105.22" ry="37.45"/>
<text text-anchor="middle" x="364.21" y="-2045.94" font-family="Times New Roman,serif" font-size="14.00">[43..47)</text>
<text text-anchor="middle" x="364.21" y="-2030.94" font-family="Times New Roman,serif" font-size="14.00">Normalized Count: 1.00</text>
<text text-anchor="middle" x="364.21" y="-2015.94" font-family="Times New Roman,serif" font-size="14.00">Samples weight: 0.00</text>
</g>
<!-- BB2&#45;&gt;BB3 -->
<g id="edge4" class="edge">
<title>BB2&#45;&gt;BB3</title>
<path fill="none" stroke="black" d="M187.53,-2114.53C219.37,-2100.31 257.47,-2083.3 290.13,-2068.71"/>
<polygon fill="black" stroke="black" points="291.93,-2071.75 299.63,-2064.47 289.07,-2065.35 291.93,-2071.75"/>
</g>
<!-- BB5 -->
<g id="node6" class="node">
<title>BB5</title>
<ellipse fill="none" stroke="black" cx="364.21" cy="-1923.68" rx="115.02" ry="37.45"/>
<text text-anchor="middle" x="364.21" y="-1934.98" font-family="Times New Roman,serif" font-size="14.00">[5c..64)</text>
<text text-anchor="middle" x="364.21" y="-1919.98" font-family="Times New Roman,serif" font-size="14.00">Normalized Count: 501.00</text>
<text text-anchor="middle" x="364.21" y="-1904.98" font-family="Times New Roman,serif" font-size="14.00">Samples weight: 0.04</text>
</g>
<!-- BB3&#45;&gt;BB5 -->
<g id="edge5" class="edge">
<title>BB3&#45;&gt;BB5</title>
<path fill="none" stroke="black" d="M364.21,-1997.05C364.21,-1988.88 364.21,-1980.1 364.21,-1971.57"/>
<polygon fill="black" stroke="black" points="367.71,-1971.35 364.21,-1961.35 360.71,-1971.35 367.71,-1971.35"/>
</g>
<!-- BB4 -->
<g id="node5" class="node">
<title>BB4</title>
<ellipse fill="none" stroke="black" cx="364.21" cy="-1812.73" rx="115.02" ry="37.45"/>
<text text-anchor="middle" x="364.21" y="-1824.03" font-family="Times New Roman,serif" font-size="14.00">[47..5c)</text>
<text text-anchor="middle" x="364.21" y="-1809.03" font-family="Times New Roman,serif" font-size="14.00">Normalized Count: 500.00</text>
<text text-anchor="middle" x="364.21" y="-1794.03" font-family="Times New Roman,serif" font-size="14.00">Samples weight: 0.04</text>
</g>
<!-- BB4&#45;&gt;BB5 -->
<g id="edge6" class="edge">
<title>BB4&#45;&gt;BB5</title>
<path fill="none" stroke="black" d="M370.63,-1850.4C370.94,-1858.58 371.03,-1867.36 370.9,-1875.89"/>
<polygon fill="black" stroke="black" points="367.39,-1876.01 370.62,-1886.1 374.39,-1876.2 367.39,-1876.01"/>
</g>
<!-- BB5&#45;&gt;BB4 -->
<g id="edge7" class="edge">
<title>BB5&#45;&gt;BB4</title>
<path fill="none" stroke="black" d="M357.79,-1886.1C357.48,-1877.93 357.38,-1869.15 357.52,-1860.62"/>
<polygon fill="black" stroke="black" points="361.02,-1860.49 357.79,-1850.4 354.02,-1860.3 361.02,-1860.49"/>
</g>
<!-- BB6 -->
<g id="node7" class="node">
<title>BB6</title>
<ellipse fill="none" stroke="black" cx="603.21" cy="-1812.73" rx="105.22" ry="37.45"/>
<text text-anchor="middle" x="603.21" y="-1824.03" font-family="Times New Roman,serif" font-size="14.00">[64..68)</text>
<text text-anchor="middle" x="603.21" y="-1809.03" font-family="Times New Roman,serif" font-size="14.00">Normalized Count: 1.00</text>
<text text-anchor="middle" x="603.21" y="-1794.03" font-family="Times New Roman,serif" font-size="14.00">Samples weight: 0.00</text>
</g>
<!-- BB5&#45;&gt;BB6 -->
<g id="edge8" class="edge">
<title>BB5&#45;&gt;BB6</title>
<path fill="none" stroke="black" d="M429.83,-1892.77C460.9,-1878.6 498.11,-1861.64 530.08,-1847.07"/>
<polygon fill="black" stroke="black" points="531.73,-1850.16 539.38,-1842.83 528.83,-1843.79 531.73,-1850.16"/>
</g>
<!-- BB11 -->
<g id="node12" class="node">
<title>BB11</title>
<ellipse fill="none" stroke="black" cx="603.21" cy="-1701.78" rx="110.12" ry="37.45"/>
<text text-anchor="middle" x="603.21" y="-1713.08" font-family="Times New Roman,serif" font-size="14.00">[91..96)</text>
<text text-anchor="middle" x="603.21" y="-1698.08" font-family="Times New Roman,serif" font-size="14.00">Normalized Count: 16.00</text>
<text text-anchor="middle" x="603.21" y="-1683.08" font-family="Times New Roman,serif" font-size="14.00">Samples weight: 0.00</text>
</g>
<!-- BB6&#45;&gt;BB11 -->
<g id="edge9" class="edge">
<title>BB6&#45;&gt;BB11</title>
<path fill="none" stroke="black" d="M603.21,-1775.15C603.21,-1766.97 603.21,-1758.19 603.21,-1749.67"/>
<polygon fill="black" stroke="black" points="606.71,-1749.45 603.21,-1739.45 599.71,-1749.45 606.71,-1749.45"/>
</g>
<!-- BB7 -->
<g id="node8" class="node">
<title>BB7</title>
<ellipse fill="none" stroke="black" cx="603.21" cy="-1590.82" rx="110.12" ry="37.45"/>
<text text-anchor="middle" x="603.21" y="-1602.12" font-family="Times New Roman,serif" font-size="14.00">[68..6c)</text>
<text text-anchor="middle" x="603.21" y="-1587.12" font-family="Times New Roman,serif" font-size="14.00">Normalized Count: 15.00</text>
<text text-anchor="middle" x="603.21" y="-1572.12" font-family="Times New Roman,serif" font-size="14.00">Samples weight: 0.00</text>
</g>
<!-- BB9 -->
<g id="node10" class="node">
<title>BB9</title>
<ellipse fill="none" stroke="black" cx="603.21" cy="-1479.87" rx="120.42" ry="37.45"/>
<text text-anchor="middle" x="603.21" y="-1491.17" font-family="Times New Roman,serif" font-size="14.00">[88..8d)</text>
<text text-anchor="middle" x="603.21" y="-1476.17" font-family="Times New Roman,serif" font-size="14.00">Normalized Count: 1515.00</text>
<text text-anchor="middle" x="603.21" y="-1461.17" font-family="Times New Roman,serif" font-size="14.00">Samples weight: 0.11</text>
</g>
<!-- BB7&#45;&gt;BB9 -->
<g id="edge10" class="edge">
<title>BB7&#45;&gt;BB9</title>
<path fill="none" stroke="black" d="M603.21,-1553.24C603.21,-1545.07 603.21,-1536.29 603.21,-1527.76"/>
<polygon fill="black" stroke="black" points="606.71,-1527.54 603.21,-1517.54 599.71,-1527.54 606.71,-1527.54"/>
</g>
<!-- BB8 -->
<g id="node9" class="node">
<title>BB8</title>
<ellipse fill="none" stroke="black" cx="603.21" cy="-1368.92" rx="120.42" ry="37.45"/>
<text text-anchor="middle" x="603.21" y="-1380.22" font-family="Times New Roman,serif" font-size="14.00">[6c..88)</text>
<text text-anchor="middle" x="603.21" y="-1365.22" font-family="Times New Roman,serif" font-size="14.00">Normalized Count: 1500.00</text>
<text text-anchor="middle" x="603.21" y="-1350.22" font-family="Times New Roman,serif" font-size="14.00">Samples weight: 0.11</text>
</g>
<!-- BB8&#45;&gt;BB9 -->
<g id="edge11" class="edge">
<title>BB8&#45;&gt;BB9</title>
<path fill="none" stroke="black" d="M609.63,-1406.59C609.94,-1414.77 610.03,-1423.55 609.9,-1432.07"/>
<polygon fill="black" stroke="black" points="606.39,-1432.2 609.62,-1442.29 613.39,-1432.38 606.39,-1432.2"/>
</g>
<!-- BB9&#45;&gt;BB8 -->
<g id="edge12" class="edge">
<title>BB9&#45;&gt;BB8</title>
<path fill="none" stroke="black" d="M596.79,-1442.29C596.48,-1434.11 596.38,-1425.33 596.52,-1416.81"/>
<polygon fill="black" stroke="black" points="600.02,-1416.68 596.79,-1406.59 593.02,-1416.49 600.02,-1416.68"/>
</g>
<!-- BB10 -->
<g id="node11" class="node">
<title>BB10</title>
<ellipse fill="none" stroke="black" cx="354.21" cy="-1368.92" rx="110.12" ry="37.45"/>
<text text-anchor="middle" x="354.21" y="-1380.22" font-family="Times New Roman,serif" font-size="14.00">[8d..91)</text>
<text text-anchor="middle" x="354.21" y="-1365.22" font-family="Times New Roman,serif" font-size="14.00">Normalized Count: 15.00</text>
<text text-anchor="middle" x="354.21" y="-1350.22" font-family="Times New Roman,serif" font-size="14.00">Samples weight: 0.00</text>
</g>
<!-- BB9&#45;&gt;BB10 -->
<g id="edge13" class="edge">
<title>BB9&#45;&gt;BB10</title>
<path fill="none" stroke="black" d="M534.84,-1448.95C502.33,-1434.73 463.37,-1417.68 429.97,-1403.07"/>
<polygon fill="black" stroke="black" points="431.27,-1399.82 420.7,-1399.01 428.46,-1406.23 431.27,-1399.82"/>
</g>
<!-- BB10&#45;&gt;BB11 -->
<g id="edge14" class="edge">
<title>BB10&#45;&gt;BB11</title>
<path fill="none" stroke="black" d="M365.28,-1406.25C383.12,-1459.99 422.59,-1561.48 484.21,-1628.3 497.54,-1642.76 514.42,-1655.35 531.23,-1665.79"/>
<polygon fill="black" stroke="black" points="529.63,-1668.91 540,-1671.06 533.23,-1662.91 529.63,-1668.91"/>
</g>
<!-- BB11&#45;&gt;BB7 -->
<g id="edge15" class="edge">
<title>BB11&#45;&gt;BB7</title>
<path fill="none" stroke="black" d="M603.21,-1664.19C603.21,-1656.02 603.21,-1647.24 603.21,-1638.71"/>
<polygon fill="black" stroke="black" points="606.71,-1638.49 603.21,-1628.49 599.71,-1638.5 606.71,-1638.49"/>
</g>
<!-- BB12 -->
<g id="node13" class="node">
<title>BB12</title>
<ellipse fill="none" stroke="black" cx="842.21" cy="-1590.82" rx="105.22" ry="37.45"/>
<text text-anchor="middle" x="842.21" y="-1602.12" font-family="Times New Roman,serif" font-size="14.00">[96..9a)</text>
<text text-anchor="middle" x="842.21" y="-1587.12" font-family="Times New Roman,serif" font-size="14.00">Normalized Count: 1.00</text>
<text text-anchor="middle" x="842.21" y="-1572.12" font-family="Times New Roman,serif" font-size="14.00">Samples weight: 0.00</text>
</g>
<!-- BB11&#45;&gt;BB12 -->
<g id="edge16" class="edge">
<title>BB11&#45;&gt;BB12</title>
<path fill="none" stroke="black" d="M667.88,-1671.29C699.22,-1657.01 736.96,-1639.8 769.31,-1625.05"/>
<polygon fill="black" stroke="black" points="771.07,-1628.1 778.72,-1620.77 768.17,-1621.73 771.07,-1628.1"/>
</g>
<!-- BB20 -->
<g id="node21" class="node">
<title>BB20</title>
<ellipse fill="none" stroke="black" cx="865.21" cy="-1479.87" rx="105.22" ry="37.45"/>
<text text-anchor="middle" x="865.21" y="-1491.17" font-family="Times New Roman,serif" font-size="14.00">[e7..eb)</text>
<text text-anchor="middle" x="865.21" y="-1476.17" font-family="Times New Roman,serif" font-size="14.00">Normalized Count: 6.00</text>
<text text-anchor="middle" x="865.21" y="-1461.17" font-family="Times New Roman,serif" font-size="14.00">Samples weight: 0.00</text>
</g>
<!-- BB12&#45;&gt;BB20 -->
<g id="edge17" class="edge">
<title>BB12&#45;&gt;BB20</title>
<path fill="none" stroke="black" d="M849.93,-1553.24C851.68,-1544.98 853.55,-1536.09 855.37,-1527.48"/>
<polygon fill="black" stroke="black" points="858.83,-1528.05 857.47,-1517.54 851.98,-1526.6 858.83,-1528.05"/>
</g>
<!-- BB13 -->
<g id="node14" class="node">
<title>BB13</title>
<ellipse fill="none" stroke="black" cx="889.21" cy="-1368.92" rx="105.22" ry="37.45"/>
<text text-anchor="middle" x="889.21" y="-1380.22" font-family="Times New Roman,serif" font-size="14.00">[9a..9e)</text>
<text text-anchor="middle" x="889.21" y="-1365.22" font-family="Times New Roman,serif" font-size="14.00">Normalized Count: 5.00</text>
<text text-anchor="middle" x="889.21" y="-1350.22" font-family="Times New Roman,serif" font-size="14.00">Samples weight: 0.00</text>
</g>
<!-- BB18 -->
<g id="node19" class="node">
<title>BB18</title>
<ellipse fill="none" stroke="black" cx="894.21" cy="-1257.96" rx="115.02" ry="37.45"/>
<text text-anchor="middle" x="894.21" y="-1269.26" font-family="Times New Roman,serif" font-size="14.00">[de..e3)</text>
<text text-anchor="middle" x="894.21" y="-1254.26" font-family="Times New Roman,serif" font-size="14.00">Normalized Count: 115.00</text>
<text text-anchor="middle" x="894.21" y="-1239.26" font-family="Times New Roman,serif" font-size="14.00">Samples weight: 0.01</text>
</g>
<!-- BB13&#45;&gt;BB18 -->
<g id="edge18" class="edge">
<title>BB13&#45;&gt;BB18</title>
<path fill="none" stroke="black" d="M890.89,-1331.33C891.26,-1323.16 891.67,-1314.38 892.06,-1305.85"/>
<polygon fill="black" stroke="black" points="895.56,-1305.79 892.53,-1295.64 888.57,-1305.46 895.56,-1305.79"/>
</g>
<!-- BB14 -->
<g id="node15" class="node">
<title>BB14</title>
<ellipse fill="none" stroke="black" cx="1027.21" cy="-1147.01" rx="115.02" ry="37.45"/>
<text text-anchor="middle" x="1027.21" y="-1158.31" font-family="Times New Roman,serif" font-size="14.00">[9e..a2)</text>
<text text-anchor="middle" x="1027.21" y="-1143.31" font-family="Times New Roman,serif" font-size="14.00">Normalized Count: 110.00</text>
<text text-anchor="middle" x="1027.21" y="-1128.31" font-family="Times New Roman,serif" font-size="14.00">Samples weight: 0.01</text>
</g>
<!-- BB16 -->
<g id="node17" class="node">
<title>BB16</title>
<ellipse fill="none" stroke="black" cx="1027.21" cy="-1036.06" rx="115.02" ry="37.45"/>
<text text-anchor="middle" x="1027.21" y="-1047.36" font-family="Times New Roman,serif" font-size="14.00">[d6..da)</text>
<text text-anchor="middle" x="1027.21" y="-1032.36" font-family="Times New Roman,serif" font-size="14.00">Normalized Count: 330.00</text>
<text text-anchor="middle" x="1027.21" y="-1017.36" font-family="Times New Roman,serif" font-size="14.00">Samples weight: 0.02</text>
</g>
<!-- BB14&#45;&gt;BB16 -->
<g id="edge19" class="edge">
<title>BB14&#45;&gt;BB16</title>
<path fill="none" stroke="black" d="M1027.21,-1109.43C1027.21,-1101.25 1027.21,-1092.47 1027.21,-1083.95"/>
<polygon fill="black" stroke="black" points="1030.71,-1083.73 1027.21,-1073.73 1023.71,-1083.73 1030.71,-1083.73"/>
</g>
<!-- BB15 -->
<g id="node16" class="node">
<title>BB15</title>
<ellipse fill="none" stroke="black" cx="1027.21" cy="-925.1" rx="115.02" ry="37.45"/>
<text text-anchor="middle" x="1027.21" y="-936.4" font-family="Times New Roman,serif" font-size="14.00">[a2..d6)</text>
<text text-anchor="middle" x="1027.21" y="-921.4" font-family="Times New Roman,serif" font-size="14.00">Normalized Count: 220.00</text>
<text text-anchor="middle" x="1027.21" y="-906.4" font-family="Times New Roman,serif" font-size="14.00">Samples weight: 0.02</text>
</g>
<!-- BB15&#45;&gt;BB16 -->
<g id="edge20" class="edge">
<title>BB15&#45;&gt;BB16</title>
<path fill="none" stroke="black" d="M1033.63,-962.78C1033.94,-970.95 1034.03,-979.74 1033.9,-988.26"/>
<polygon fill="black" stroke="black" points="1030.39,-988.38 1033.62,-998.47 1037.39,-988.57 1030.39,-988.38"/>
</g>
<!-- BB16&#45;&gt;BB15 -->
<g id="edge21" class="edge">
<title>BB16&#45;&gt;BB15</title>
<path fill="none" stroke="black" d="M1020.79,-998.47C1020.48,-990.3 1020.38,-981.52 1020.52,-972.99"/>
<polygon fill="black" stroke="black" points="1024.02,-972.86 1020.79,-962.78 1017.02,-972.68 1024.02,-972.86"/>
</g>
<!-- BB17 -->
<g id="node18" class="node">
<title>BB17</title>
<ellipse fill="none" stroke="black" cx="778.21" cy="-925.1" rx="115.02" ry="37.45"/>
<text text-anchor="middle" x="778.21" y="-936.4" font-family="Times New Roman,serif" font-size="14.00">[da..de)</text>
<text text-anchor="middle" x="778.21" y="-921.4" font-family="Times New Roman,serif" font-size="14.00">Normalized Count: 110.00</text>
<text text-anchor="middle" x="778.21" y="-906.4" font-family="Times New Roman,serif" font-size="14.00">Samples weight: 0.01</text>
</g>
<!-- BB16&#45;&gt;BB17 -->
<g id="edge22" class="edge">
<title>BB16&#45;&gt;BB17</title>
<path fill="none" stroke="black" d="M959.83,-1005.57C927.44,-991.4 888.47,-974.35 854.95,-959.68"/>
<polygon fill="black" stroke="black" points="856.21,-956.41 845.64,-955.61 853.4,-962.83 856.21,-956.41"/>
</g>
<!-- BB17&#45;&gt;BB18 -->
<g id="edge23" class="edge">
<title>BB17&#45;&gt;BB18</title>
<path fill="none" stroke="black" d="M798.65,-962.23C818.35,-998.44 847.66,-1056.31 865.21,-1109.53 876.06,-1142.44 883.46,-1180.89 888.07,-1210.28"/>
<polygon fill="black" stroke="black" points="884.62,-1210.9 889.58,-1220.27 891.54,-1209.86 884.62,-1210.9"/>
</g>
<!-- BB18&#45;&gt;BB14 -->
<g id="edge24" class="edge">
<title>BB18&#45;&gt;BB14</title>
<path fill="none" stroke="black" d="M935.93,-1222.79C949.17,-1211.94 963.95,-1199.83 977.69,-1188.58"/>
<polygon fill="black" stroke="black" points="980.12,-1191.11 985.64,-1182.06 975.69,-1185.69 980.12,-1191.11"/>
</g>
<!-- BB19 -->
<g id="node20" class="node">
<title>BB19</title>
<ellipse fill="none" stroke="black" cx="751.21" cy="-1147.01" rx="105.22" ry="37.45"/>
<text text-anchor="middle" x="751.21" y="-1158.31" font-family="Times New Roman,serif" font-size="14.00">[e3..e7)</text>
<text text-anchor="middle" x="751.21" y="-1143.31" font-family="Times New Roman,serif" font-size="14.00">Normalized Count: 5.00</text>
<text text-anchor="middle" x="751.21" y="-1128.31" font-family="Times New Roman,serif" font-size="14.00">Samples weight: 0.00</text>
</g>
<!-- BB18&#45;&gt;BB19 -->
<g id="edge25" class="edge">
<title>BB18&#45;&gt;BB19</title>
<path fill="none" stroke="black" d="M849.75,-1223.09C835.08,-1211.91 818.63,-1199.38 803.44,-1187.81"/>
<polygon fill="black" stroke="black" points="805.23,-1184.77 795.15,-1181.49 800.98,-1190.34 805.23,-1184.77"/>
</g>
<!-- BB19&#45;&gt;BB20 -->
<g id="edge26" class="edge">
<title>BB19&#45;&gt;BB20</title>
<path fill="none" stroke="black" d="M746.06,-1184.79C740.53,-1237.33 737.06,-1335.34 775.21,-1406.39 782.22,-1419.46 792.7,-1431.03 804.04,-1440.87"/>
<polygon fill="black" stroke="black" points="802.05,-1443.76 812,-1447.4 806.49,-1438.35 802.05,-1443.76"/>
</g>
<!-- BB20&#45;&gt;BB13 -->
<g id="edge27" class="edge">
<title>BB20&#45;&gt;BB13</title>
<path fill="none" stroke="black" d="M873.27,-1442.29C875.09,-1434.02 877.04,-1425.14 878.94,-1416.52"/>
<polygon fill="black" stroke="black" points="882.4,-1417.11 881.13,-1406.59 875.56,-1415.6 882.4,-1417.11"/>
</g>
<!-- BB21 -->
<g id="node22" class="node">
<title>BB21</title>
<ellipse fill="none" stroke="black" cx="1194.21" cy="-1368.92" rx="105.22" ry="37.45"/>
<text text-anchor="middle" x="1194.21" y="-1380.22" font-family="Times New Roman,serif" font-size="14.00">[eb..ef)</text>
<text text-anchor="middle" x="1194.21" y="-1365.22" font-family="Times New Roman,serif" font-size="14.00">Normalized Count: 1.00</text>
<text text-anchor="middle" x="1194.21" y="-1350.22" font-family="Times New Roman,serif" font-size="14.00">Samples weight: 0.00</text>
</g>
<!-- BB20&#45;&gt;BB21 -->
<g id="edge28" class="edge">
<title>BB20&#45;&gt;BB21</title>
<path fill="none" stroke="black" d="M941.1,-1453.74C991.21,-1437.14 1056.96,-1415.37 1108.89,-1398.17"/>
<polygon fill="black" stroke="black" points="1110.02,-1401.48 1118.41,-1395.02 1107.82,-1394.84 1110.02,-1401.48"/>
</g>
<!-- BB26 -->
<g id="node27" class="node">
<title>BB26</title>
<ellipse fill="none" stroke="black" cx="1368.21" cy="-1257.96" rx="110.12" ry="37.45"/>
<text text-anchor="middle" x="1368.21" y="-1269.26" font-family="Times New Roman,serif" font-size="14.00">[139..13e)</text>
<text text-anchor="middle" x="1368.21" y="-1254.26" font-family="Times New Roman,serif" font-size="14.00">Normalized Count: 65.00</text>
<text text-anchor="middle" x="1368.21" y="-1239.26" font-family="Times New Roman,serif" font-size="14.00">Samples weight: 0.00</text>
</g>
<!-- BB21&#45;&gt;BB26 -->
<g id="edge29" class="edge">
<title>BB21&#45;&gt;BB26</title>
<path fill="none" stroke="black" d="M1245.47,-1335.82C1265.12,-1323.51 1287.71,-1309.37 1308.11,-1296.59"/>
<polygon fill="black" stroke="black" points="1310.09,-1299.48 1316.71,-1291.21 1306.38,-1293.55 1310.09,-1299.48"/>
</g>
<!-- BB22 -->
<g id="node23" class="node">
<title>BB22</title>
<ellipse fill="none" stroke="black" cx="1451.21" cy="-1147.01" rx="110.12" ry="37.45"/>
<text text-anchor="middle" x="1451.21" y="-1158.31" font-family="Times New Roman,serif" font-size="14.00">[ef..f3)</text>
<text text-anchor="middle" x="1451.21" y="-1143.31" font-family="Times New Roman,serif" font-size="14.00">Normalized Count: 64.00</text>
<text text-anchor="middle" x="1451.21" y="-1128.31" font-family="Times New Roman,serif" font-size="14.00">Samples weight: 0.00</text>
</g>
<!-- BB24 -->
<g id="node25" class="node">
<title>BB24</title>
<ellipse fill="none" stroke="black" cx="1465.21" cy="-1036.06" rx="115.02" ry="37.45"/>
<text text-anchor="middle" x="1465.21" y="-1047.36" font-family="Times New Roman,serif" font-size="14.00">[130..135)</text>
<text text-anchor="middle" x="1465.21" y="-1032.36" font-family="Times New Roman,serif" font-size="14.00">Normalized Count: 576.00</text>
<text text-anchor="middle" x="1465.21" y="-1017.36" font-family="Times New Roman,serif" font-size="14.00">Samples weight: 0.04</text>
</g>
<!-- BB22&#45;&gt;BB24 -->
<g id="edge30" class="edge">
<title>BB22&#45;&gt;BB24</title>
<path fill="none" stroke="black" d="M1455.91,-1109.43C1456.97,-1101.16 1458.11,-1092.28 1459.22,-1083.66"/>
<polygon fill="black" stroke="black" points="1462.69,-1084.09 1460.5,-1073.73 1455.75,-1083.2 1462.69,-1084.09"/>
</g>
<!-- BB23 -->
<g id="node24" class="node">
<title>BB23</title>
<ellipse fill="none" stroke="black" cx="1515.21" cy="-925.1" rx="115.02" ry="37.45"/>
<text text-anchor="middle" x="1515.21" y="-936.4" font-family="Times New Roman,serif" font-size="14.00">[f3..130)</text>
<text text-anchor="middle" x="1515.21" y="-921.4" font-family="Times New Roman,serif" font-size="14.00">Normalized Count: 512.00</text>
<text text-anchor="middle" x="1515.21" y="-906.4" font-family="Times New Roman,serif" font-size="14.00">Samples weight: 0.04</text>
</g>
<!-- BB23&#45;&gt;BB24 -->
<g id="edge31" class="edge">
<title>BB23&#45;&gt;BB24</title>
<path fill="none" stroke="black" d="M1504.79,-962.79C1501.14,-971.47 1496.92,-980.84 1492.61,-989.85"/>
<polygon fill="black" stroke="black" points="1489.35,-988.56 1488.11,-999.08 1495.64,-991.63 1489.35,-988.56"/>
</g>
<!-- BB24&#45;&gt;BB23 -->
<g id="edge32" class="edge">
<title>BB24&#45;&gt;BB23</title>
<path fill="none" stroke="black" d="M1475.58,-998.47C1479.24,-989.76 1483.48,-980.35 1487.81,-971.3"/>
<polygon fill="black" stroke="black" points="1491.09,-972.56 1492.33,-962.03 1484.8,-969.48 1491.09,-972.56"/>
</g>
<!-- BB25 -->
<g id="node26" class="node">
<title>BB25</title>
<ellipse fill="none" stroke="black" cx="1271.21" cy="-925.1" rx="110.12" ry="37.45"/>
<text text-anchor="middle" x="1271.21" y="-936.4" font-family="Times New Roman,serif" font-size="14.00">[135..139)</text>
<text text-anchor="middle" x="1271.21" y="-921.4" font-family="Times New Roman,serif" font-size="14.00">Normalized Count: 64.00</text>
<text text-anchor="middle" x="1271.21" y="-906.4" font-family="Times New Roman,serif" font-size="14.00">Samples weight: 0.00</text>
</g>
<!-- BB24&#45;&gt;BB25 -->
<g id="edge33" class="edge">
<title>BB24&#45;&gt;BB25</title>
<path fill="none" stroke="black" d="M1408.57,-1003.25C1385.86,-990.5 1359.56,-975.72 1336.09,-962.54"/>
<polygon fill="black" stroke="black" points="1337.68,-959.42 1327.24,-957.57 1334.25,-965.52 1337.68,-959.42"/>
</g>
<!-- BB25&#45;&gt;BB26 -->
<g id="edge34" class="edge">
<title>BB25&#45;&gt;BB26</title>
<path fill="none" stroke="black" d="M1277.14,-962.81C1285.95,-1013.61 1304.51,-1107.75 1332.21,-1184.49 1335.47,-1193.51 1339.55,-1202.88 1343.78,-1211.76"/>
<polygon fill="black" stroke="black" points="1340.67,-1213.37 1348.22,-1220.81 1346.96,-1210.29 1340.67,-1213.37"/>
</g>
<!-- BB26&#45;&gt;BB22 -->
<g id="edge35" class="edge">
<title>BB26&#45;&gt;BB22</title>
<path fill="none" stroke="black" d="M1395.16,-1221.59C1402.4,-1212.07 1410.33,-1201.67 1417.88,-1191.76"/>
<polygon fill="black" stroke="black" points="1420.84,-1193.65 1424.11,-1183.58 1415.27,-1189.41 1420.84,-1193.65"/>
</g>
<!-- BB27 -->
<g id="node28" class="node">
<title>BB27</title>
<ellipse fill="none" stroke="black" cx="1726.21" cy="-1147.01" rx="105.22" ry="37.45"/>
<text text-anchor="middle" x="1726.21" y="-1158.31" font-family="Times New Roman,serif" font-size="14.00">[13e..142)</text>
<text text-anchor="middle" x="1726.21" y="-1143.31" font-family="Times New Roman,serif" font-size="14.00">Normalized Count: 1.00</text>
<text text-anchor="middle" x="1726.21" y="-1128.31" font-family="Times New Roman,serif" font-size="14.00">Samples weight: 0.00</text>
</g>
<!-- BB26&#45;&gt;BB27 -->
<g id="edge36" class="edge">
<title>BB26&#45;&gt;BB27</title>
<path fill="none" stroke="black" d="M1449,-1232.38C1505.04,-1215.32 1579.7,-1192.6 1637.41,-1175.03"/>
<polygon fill="black" stroke="black" points="1638.71,-1178.3 1647.25,-1172.04 1636.67,-1171.6 1638.71,-1178.3"/>
</g>
<!-- BB29 -->
<g id="node30" class="node">
<title>BB29</title>
<ellipse fill="none" stroke="black" cx="1754.21" cy="-1036.06" rx="105.22" ry="37.45"/>
<text text-anchor="middle" x="1754.21" y="-1047.36" font-family="Times New Roman,serif" font-size="14.00">[18d..191)</text>
<text text-anchor="middle" x="1754.21" y="-1032.36" font-family="Times New Roman,serif" font-size="14.00">Normalized Count: 6.00</text>
<text text-anchor="middle" x="1754.21" y="-1017.36" font-family="Times New Roman,serif" font-size="14.00">Samples weight: 0.00</text>
</g>
<!-- BB27&#45;&gt;BB29 -->
<g id="edge37" class="edge">
<title>BB27&#45;&gt;BB29</title>
<path fill="none" stroke="black" d="M1735.61,-1109.43C1737.73,-1101.16 1740.02,-1092.28 1742.23,-1083.66"/>
<polygon fill="black" stroke="black" points="1745.68,-1084.28 1744.78,-1073.73 1738.9,-1082.54 1745.68,-1084.28"/>
</g>
<!-- BB28 -->
<g id="node29" class="node">
<title>BB28</title>
<ellipse fill="none" stroke="black" cx="1754.21" cy="-925.1" rx="105.22" ry="37.45"/>
<text text-anchor="middle" x="1754.21" y="-936.4" font-family="Times New Roman,serif" font-size="14.00">[142..18d)</text>
<text text-anchor="middle" x="1754.21" y="-921.4" font-family="Times New Roman,serif" font-size="14.00">Normalized Count: 5.00</text>
<text text-anchor="middle" x="1754.21" y="-906.4" font-family="Times New Roman,serif" font-size="14.00">Samples weight: 0.00</text>
</g>
<!-- BB28&#45;&gt;BB29 -->
<g id="edge38" class="edge">
<title>BB28&#45;&gt;BB29</title>
<path fill="none" stroke="black" d="M1760.63,-962.78C1760.94,-970.95 1761.03,-979.74 1760.9,-988.26"/>
<polygon fill="black" stroke="black" points="1757.39,-988.38 1760.62,-998.47 1764.39,-988.57 1757.39,-988.38"/>
</g>
<!-- BB29&#45;&gt;BB28 -->
<g id="edge39" class="edge">
<title>BB29&#45;&gt;BB28</title>
<path fill="none" stroke="black" d="M1747.79,-998.47C1747.48,-990.3 1747.38,-981.52 1747.52,-972.99"/>
<polygon fill="black" stroke="black" points="1751.02,-972.86 1747.79,-962.78 1744.02,-972.68 1751.02,-972.86"/>
</g>
<!-- BB30 -->
<g id="node31" class="node">
<title>BB30</title>
<ellipse fill="none" stroke="black" cx="1983.21" cy="-925.1" rx="105.22" ry="37.45"/>
<text text-anchor="middle" x="1983.21" y="-936.4" font-family="Times New Roman,serif" font-size="14.00">[191..195)</text>
<text text-anchor="middle" x="1983.21" y="-921.4" font-family="Times New Roman,serif" font-size="14.00">Normalized Count: 1.00</text>
<text text-anchor="middle" x="1983.21" y="-906.4" font-family="Times New Roman,serif" font-size="14.00">Samples weight: 0.00</text>
</g>
<!-- BB29&#45;&gt;BB30 -->
<g id="edge40" class="edge">
<title>BB29&#45;&gt;BB30</title>
<path fill="none" stroke="black" d="M1816.18,-1005.57C1845.71,-991.52 1881.19,-974.64 1911.84,-960.06"/>
<polygon fill="black" stroke="black" points="1913.66,-963.07 1921.19,-955.61 1910.65,-956.75 1913.66,-963.07"/>
</g>
<!-- BB35 -->
<g id="node36" class="node">
<title>BB35</title>
<ellipse fill="none" stroke="black" cx="1983.21" cy="-814.15" rx="105.22" ry="37.45"/>
<text text-anchor="middle" x="1983.21" y="-825.45" font-family="Times New Roman,serif" font-size="14.00">[1bc..1c0)</text>
<text text-anchor="middle" x="1983.21" y="-810.45" font-family="Times New Roman,serif" font-size="14.00">Normalized Count: 5.00</text>
<text text-anchor="middle" x="1983.21" y="-795.45" font-family="Times New Roman,serif" font-size="14.00">Samples weight: 0.00</text>
</g>
<!-- BB30&#45;&gt;BB35 -->
<g id="edge41" class="edge">
<title>BB30&#45;&gt;BB35</title>
<path fill="none" stroke="black" d="M1983.21,-887.52C1983.21,-879.35 1983.21,-870.57 1983.21,-862.04"/>
<polygon fill="black" stroke="black" points="1986.71,-861.82 1983.21,-851.82 1979.71,-861.82 1986.71,-861.82"/>
</g>
<!-- BB31 -->
<g id="node32" class="node">
<title>BB31</title>
<ellipse fill="none" stroke="black" cx="1983.21" cy="-703.2" rx="105.22" ry="37.45"/>
<text text-anchor="middle" x="1983.21" y="-714.5" font-family="Times New Roman,serif" font-size="14.00">[195..199)</text>
<text text-anchor="middle" x="1983.21" y="-699.5" font-family="Times New Roman,serif" font-size="14.00">Normalized Count: 4.00</text>
<text text-anchor="middle" x="1983.21" y="-684.5" font-family="Times New Roman,serif" font-size="14.00">Samples weight: 0.00</text>
</g>
<!-- BB33 -->
<g id="node34" class="node">
<title>BB33</title>
<ellipse fill="none" stroke="black" cx="1983.21" cy="-592.24" rx="120.42" ry="37.45"/>
<text text-anchor="middle" x="1983.21" y="-603.54" font-family="Times New Roman,serif" font-size="14.00">[1b0..1b8)</text>
<text text-anchor="middle" x="1983.21" y="-588.54" font-family="Times New Roman,serif" font-size="14.00">Normalized Count: 2052.00</text>
<text text-anchor="middle" x="1983.21" y="-573.54" font-family="Times New Roman,serif" font-size="14.00">Samples weight: 0.16</text>
</g>
<!-- BB31&#45;&gt;BB33 -->
<g id="edge42" class="edge">
<title>BB31&#45;&gt;BB33</title>
<path fill="none" stroke="black" d="M1983.21,-665.61C1983.21,-657.44 1983.21,-648.66 1983.21,-640.13"/>
<polygon fill="black" stroke="black" points="1986.71,-639.92 1983.21,-629.92 1979.71,-639.92 1986.71,-639.92"/>
</g>
<!-- BB32 -->
<g id="node33" class="node">
<title>BB32</title>
<ellipse fill="none" stroke="black" cx="1983.21" cy="-481.29" rx="120.42" ry="37.45"/>
<text text-anchor="middle" x="1983.21" y="-492.59" font-family="Times New Roman,serif" font-size="14.00">[199..1b0)</text>
<text text-anchor="middle" x="1983.21" y="-477.59" font-family="Times New Roman,serif" font-size="14.00">Normalized Count: 2048.00</text>
<text text-anchor="middle" x="1983.21" y="-462.59" font-family="Times New Roman,serif" font-size="14.00">Samples weight: 0.16</text>
</g>
<!-- BB32&#45;&gt;BB33 -->
<g id="edge43" class="edge">
<title>BB32&#45;&gt;BB33</title>
<path fill="none" stroke="black" d="M1989.63,-518.96C1989.94,-527.14 1990.03,-535.92 1989.9,-544.45"/>
<polygon fill="black" stroke="black" points="1986.39,-544.57 1989.62,-554.66 1993.39,-544.76 1986.39,-544.57"/>
</g>
<!-- BB33&#45;&gt;BB32 -->
<g id="edge44" class="edge">
<title>BB33&#45;&gt;BB32</title>
<path fill="none" stroke="black" d="M1976.79,-554.66C1976.48,-546.49 1976.38,-537.71 1976.52,-529.18"/>
<polygon fill="black" stroke="black" points="1980.02,-529.05 1976.79,-518.96 1973.02,-528.86 1980.02,-529.05"/>
</g>
<!-- BB34 -->
<g id="node35" class="node">
<title>BB34</title>
<ellipse fill="none" stroke="black" cx="1739.21" cy="-481.29" rx="105.22" ry="37.45"/>
<text text-anchor="middle" x="1739.21" y="-492.59" font-family="Times New Roman,serif" font-size="14.00">[1b8..1bc)</text>
<text text-anchor="middle" x="1739.21" y="-477.59" font-family="Times New Roman,serif" font-size="14.00">Normalized Count: 4.00</text>
<text text-anchor="middle" x="1739.21" y="-462.59" font-family="Times New Roman,serif" font-size="14.00">Samples weight: 0.00</text>
</g>
<!-- BB33&#45;&gt;BB34 -->
<g id="edge45" class="edge">
<title>BB33&#45;&gt;BB34</title>
<path fill="none" stroke="black" d="M1915.89,-561.18C1884.05,-546.97 1845.94,-529.95 1813.29,-515.37"/>
<polygon fill="black" stroke="black" points="1814.34,-512.01 1803.79,-511.13 1811.49,-518.4 1814.34,-512.01"/>
</g>
<!-- BB34&#45;&gt;BB35 -->
<g id="edge46" class="edge">
<title>BB34&#45;&gt;BB35</title>
<path fill="none" stroke="black" d="M1750.59,-518.92C1768.72,-572.57 1808.4,-673.45 1869.21,-740.67 1881.95,-754.76 1898.04,-767.19 1914.09,-777.6"/>
<polygon fill="black" stroke="black" points="1912.65,-780.83 1922.98,-783.17 1916.36,-774.89 1912.65,-780.83"/>
</g>
<!-- BB35&#45;&gt;BB31 -->
<g id="edge47" class="edge">
<title>BB35&#45;&gt;BB31</title>
<path fill="none" stroke="black" d="M1983.21,-776.57C1983.21,-768.39 1983.21,-759.61 1983.21,-751.09"/>
<polygon fill="black" stroke="black" points="1986.71,-750.87 1983.21,-740.87 1979.71,-750.87 1986.71,-750.87"/>
</g>
<!-- BB36 -->
<g id="node37" class="node">
<title>BB36</title>
<ellipse fill="none" stroke="black" cx="2224.21" cy="-703.2" rx="105.22" ry="37.45"/>
<text text-anchor="middle" x="2224.21" y="-714.5" font-family="Times New Roman,serif" font-size="14.00">[1c0..1c4)</text>
<text text-anchor="middle" x="2224.21" y="-699.5" font-family="Times New Roman,serif" font-size="14.00">Normalized Count: 1.00</text>
<text text-anchor="middle" x="2224.21" y="-684.5" font-family="Times New Roman,serif" font-size="14.00">Samples weight: 0.00</text>
</g>
<!-- BB35&#45;&gt;BB36 -->
<g id="edge48" class="edge">
<title>BB35&#45;&gt;BB36</title>
<path fill="none" stroke="black" d="M2047.16,-784.24C2079.15,-769.77 2118.02,-752.2 2151.19,-737.21"/>
<polygon fill="black" stroke="black" points="2152.71,-740.36 2160.38,-733.05 2149.82,-733.98 2152.71,-740.36"/>
</g>
<!-- BB38 -->
<g id="node39" class="node">
<title>BB38</title>
<ellipse fill="none" stroke="black" cx="2236.21" cy="-592.24" rx="115.02" ry="37.45"/>
<text text-anchor="middle" x="2236.21" y="-603.54" font-family="Times New Roman,serif" font-size="14.00">[1dc..1e4)</text>
<text text-anchor="middle" x="2236.21" y="-588.54" font-family="Times New Roman,serif" font-size="14.00">Normalized Count: 193.00</text>
<text text-anchor="middle" x="2236.21" y="-573.54" font-family="Times New Roman,serif" font-size="14.00">Samples weight: 0.01</text>
</g>
<!-- BB36&#45;&gt;BB38 -->
<g id="edge49" class="edge">
<title>BB36&#45;&gt;BB38</title>
<path fill="none" stroke="black" d="M2228.24,-665.61C2229.14,-657.44 2230.1,-648.66 2231.04,-640.13"/>
<polygon fill="black" stroke="black" points="2234.55,-640.24 2232.17,-629.92 2227.6,-639.47 2234.55,-640.24"/>
</g>
<!-- BB37 -->
<g id="node38" class="node">
<title>BB37</title>
<ellipse fill="none" stroke="black" cx="2236.21" cy="-481.29" rx="115.02" ry="37.45"/>
<text text-anchor="middle" x="2236.21" y="-492.59" font-family="Times New Roman,serif" font-size="14.00">[1c4..1dc)</text>
<text text-anchor="middle" x="2236.21" y="-477.59" font-family="Times New Roman,serif" font-size="14.00">Normalized Count: 192.00</text>
<text text-anchor="middle" x="2236.21" y="-462.59" font-family="Times New Roman,serif" font-size="14.00">Samples weight: 0.01</text>
</g>
<!-- BB37&#45;&gt;BB38 -->
<g id="edge50" class="edge">
<title>BB37&#45;&gt;BB38</title>
<path fill="none" stroke="black" d="M2242.63,-518.96C2242.94,-527.14 2243.03,-535.92 2242.9,-544.45"/>
<polygon fill="black" stroke="black" points="2239.39,-544.57 2242.62,-554.66 2246.39,-544.76 2239.39,-544.57"/>
</g>
<!-- BB38&#45;&gt;BB37 -->
<g id="edge51" class="edge">
<title>BB38&#45;&gt;BB37</title>
<path fill="none" stroke="black" d="M2229.79,-554.66C2229.48,-546.49 2229.38,-537.71 2229.52,-529.18"/>
<polygon fill="black" stroke="black" points="2233.02,-529.05 2229.79,-518.96 2226.02,-528.86 2233.02,-529.05"/>
</g>
<!-- BB39 -->
<g id="node40" class="node">
<title>BB39</title>
<ellipse fill="none" stroke="black" cx="2475.21" cy="-481.29" rx="105.22" ry="37.45"/>
<text text-anchor="middle" x="2475.21" y="-492.59" font-family="Times New Roman,serif" font-size="14.00">[1e4..1e8)</text>
<text text-anchor="middle" x="2475.21" y="-477.59" font-family="Times New Roman,serif" font-size="14.00">Normalized Count: 1.00</text>
<text text-anchor="middle" x="2475.21" y="-462.59" font-family="Times New Roman,serif" font-size="14.00">Samples weight: 0.00</text>
</g>
<!-- BB38&#45;&gt;BB39 -->
<g id="edge52" class="edge">
<title>BB38&#45;&gt;BB39</title>
<path fill="none" stroke="black" d="M2301.83,-561.33C2332.9,-547.16 2370.11,-530.2 2402.08,-515.63"/>
<polygon fill="black" stroke="black" points="2403.73,-518.72 2411.38,-511.39 2400.83,-512.35 2403.73,-518.72"/>
</g>
<!-- BB41 -->
<g id="node42" class="node">
<title>BB41</title>
<ellipse fill="none" stroke="black" cx="2475.21" cy="-370.34" rx="110.12" ry="37.45"/>
<text text-anchor="middle" x="2475.21" y="-381.64" font-family="Times New Roman,serif" font-size="14.00">[210..215)</text>
<text text-anchor="middle" x="2475.21" y="-366.64" font-family="Times New Roman,serif" font-size="14.00">Normalized Count: 68.00</text>
<text text-anchor="middle" x="2475.21" y="-351.64" font-family="Times New Roman,serif" font-size="14.00">Samples weight: 0.01</text>
</g>
<!-- BB39&#45;&gt;BB41 -->
<g id="edge53" class="edge">
<title>BB39&#45;&gt;BB41</title>
<path fill="none" stroke="black" d="M2475.21,-443.71C2475.21,-435.53 2475.21,-426.75 2475.21,-418.23"/>
<polygon fill="black" stroke="black" points="2478.71,-418.01 2475.21,-408.01 2471.71,-418.01 2478.71,-418.01"/>
</g>
<!-- BB40 -->
<g id="node41" class="node">
<title>BB40</title>
<ellipse fill="none" stroke="black" cx="2475.21" cy="-259.38" rx="110.12" ry="37.45"/>
<text text-anchor="middle" x="2475.21" y="-270.68" font-family="Times New Roman,serif" font-size="14.00">[1e8..210)</text>
<text text-anchor="middle" x="2475.21" y="-255.68" font-family="Times New Roman,serif" font-size="14.00">Normalized Count: 67.00</text>
<text text-anchor="middle" x="2475.21" y="-240.68" font-family="Times New Roman,serif" font-size="14.00">Samples weight: 0.01</text>
</g>
<!-- BB40&#45;&gt;BB41 -->
<g id="edge54" class="edge">
<title>BB40&#45;&gt;BB41</title>
<path fill="none" stroke="black" d="M2481.63,-297.06C2481.94,-305.23 2482.03,-314.02 2481.9,-322.54"/>
<polygon fill="black" stroke="black" points="2478.39,-322.66 2481.62,-332.75 2485.39,-322.85 2478.39,-322.66"/>
</g>
<!-- BB41&#45;&gt;BB40 -->
<g id="edge55" class="edge">
<title>BB41&#45;&gt;BB40</title>
<path fill="none" stroke="black" d="M2468.79,-332.75C2468.48,-324.58 2468.38,-315.8 2468.52,-307.27"/>
<polygon fill="black" stroke="black" points="2472.02,-307.15 2468.79,-297.06 2465.02,-306.96 2472.02,-307.15"/>
</g>
<!-- BB42 -->
<g id="node43" class="node">
<title>BB42</title>
<ellipse fill="none" stroke="black" cx="2709.21" cy="-259.38" rx="105.22" ry="37.45"/>
<text text-anchor="middle" x="2709.21" y="-270.68" font-family="Times New Roman,serif" font-size="14.00">[215..219)</text>
<text text-anchor="middle" x="2709.21" y="-255.68" font-family="Times New Roman,serif" font-size="14.00">Normalized Count: 1.00</text>
<text text-anchor="middle" x="2709.21" y="-240.68" font-family="Times New Roman,serif" font-size="14.00">Samples weight: 0.00</text>
</g>
<!-- BB41&#45;&gt;BB42 -->
<g id="edge56" class="edge">
<title>BB41&#45;&gt;BB42</title>
<path fill="none" stroke="black" d="M2538.84,-339.71C2569.27,-325.54 2605.82,-308.52 2637.25,-293.89"/>
<polygon fill="black" stroke="black" points="2638.81,-297.02 2646.4,-289.63 2635.86,-290.68 2638.81,-297.02"/>
</g>
<!-- BB44 -->
<g id="node45" class="node">
<title>BB44</title>
<ellipse fill="none" stroke="black" cx="2709.21" cy="-148.43" rx="115.02" ry="37.45"/>
<text text-anchor="middle" x="2709.21" y="-159.73" font-family="Times New Roman,serif" font-size="14.00">[24d..255)</text>
<text text-anchor="middle" x="2709.21" y="-144.73" font-family="Times New Roman,serif" font-size="14.00">Normalized Count: 151.00</text>
<text text-anchor="middle" x="2709.21" y="-129.73" font-family="Times New Roman,serif" font-size="14.00">Samples weight: 0.01</text>
</g>
<!-- BB42&#45;&gt;BB44 -->
<g id="edge57" class="edge">
<title>BB42&#45;&gt;BB44</title>
<path fill="none" stroke="black" d="M2709.21,-221.8C2709.21,-213.63 2709.21,-204.85 2709.21,-196.32"/>
<polygon fill="black" stroke="black" points="2712.71,-196.1 2709.21,-186.1 2705.71,-196.1 2712.71,-196.1"/>
</g>
<!-- BB43 -->
<g id="node44" class="node">
<title>BB43</title>
<ellipse fill="none" stroke="black" cx="2709.21" cy="-37.48" rx="115.02" ry="37.45"/>
<text text-anchor="middle" x="2709.21" y="-48.78" font-family="Times New Roman,serif" font-size="14.00">[219..24d)</text>
<text text-anchor="middle" x="2709.21" y="-33.78" font-family="Times New Roman,serif" font-size="14.00">Normalized Count: 150.00</text>
<text text-anchor="middle" x="2709.21" y="-18.78" font-family="Times New Roman,serif" font-size="14.00">Samples weight: 0.01</text>
</g>
<!-- BB43&#45;&gt;BB44 -->
<g id="edge58" class="edge">
<title>BB43&#45;&gt;BB44</title>
<path fill="none" stroke="black" d="M2715.63,-75.15C2715.94,-83.33 2716.03,-92.11 2715.9,-100.63"/>
<polygon fill="black" stroke="black" points="2712.39,-100.76 2715.62,-110.85 2719.39,-100.94 2712.39,-100.76"/>
</g>
<!-- BB44&#45;&gt;BB43 -->
<g id="edge59" class="edge">
<title>BB44&#45;&gt;BB43</title>
<path fill="none" stroke="black" d="M2702.79,-110.85C2702.48,-102.67 2702.38,-93.89 2702.52,-85.37"/>
<polygon fill="black" stroke="black" points="2706.02,-85.24 2702.79,-75.15 2699.02,-85.05 2706.02,-85.24"/>
</g>
<!-- BB45 -->
<g id="node46" class="node">
<title>BB45</title>
<ellipse fill="none" stroke="black" cx="2948.21" cy="-37.48" rx="105.22" ry="37.45"/>
<text text-anchor="middle" x="2948.21" y="-48.78" font-family="Times New Roman,serif" font-size="14.00">[255..256)</text>
<text text-anchor="middle" x="2948.21" y="-33.78" font-family="Times New Roman,serif" font-size="14.00">Normalized Count: 1.00</text>
<text text-anchor="middle" x="2948.21" y="-18.78" font-family="Times New Roman,serif" font-size="14.00">Samples weight: 0.00</text>
</g>
<!-- BB44&#45;&gt;BB45 -->
<g id="edge60" class="edge">
<title>BB44&#45;&gt;BB45</title>
<path fill="none" stroke="black" d="M2774.83,-117.51C2805.9,-103.35 2843.11,-86.39 2875.08,-71.81"/>
<polygon fill="black" stroke="black" points="2876.73,-74.91 2884.38,-67.57 2873.83,-68.54 2876.73,-74.91"/>
</g>
</g>
</svg>
