<?xml version="1.0" encoding="UTF-8" standalone="no"?>
<!DOCTYPE svg PUBLIC "-//W3C//DTD SVG 1.1//EN"
 "http://www.w3.org/Graphics/SVG/1.1/DTD/svg11.dtd">
<!-- Generated by graphviz version 2.47.0 (20210316.0004)
 -->
<!-- Title: G Pages: 1 -->
<svg width="702pt" height="1029pt"
 viewBox="0.00 0.00 701.69 1029.33" xmlns="http://www.w3.org/2000/svg" xmlns:xlink="http://www.w3.org/1999/xlink">
<g id="graph0" class="graph" transform="scale(1 1) rotate(0) translate(4 1025.33)">
<title>G</title>
<polygon fill="white" stroke="transparent" points="-4,4 -4,-1025.33 697.69,-1025.33 697.69,4 -4,4"/>
<!-- BB0 -->
<g id="node1" class="node">
<title>BB0</title>
<ellipse fill="none" stroke="black" cx="307.84" cy="-973.25" rx="104.8" ry="48.17"/>
<text text-anchor="middle" x="307.84" y="-992.05" font-family="Times New Roman,serif" font-size="14.00">[0..69)</text>
<text text-anchor="middle" x="307.84" y="-977.05" font-family="Times New Roman,serif" font-size="14.00">Count: 0</text>
<text text-anchor="middle" x="307.84" y="-962.05" font-family="Times New Roman,serif" font-size="14.00">Normalized count: NaN</text>
<text text-anchor="middle" x="307.84" y="-947.05" font-family="Times New Roman,serif" font-size="14.00">Samples weight: 0.00</text>
</g>
<!-- BB10 -->
<g id="node11" class="node">
<title>BB10</title>
<ellipse fill="none" stroke="black" cx="307.84" cy="-841.08" rx="113.69" ry="48.17"/>
<text text-anchor="middle" x="307.84" y="-859.88" font-family="Times New Roman,serif" font-size="14.00">[11a..126)</text>
<text text-anchor="middle" x="307.84" y="-844.88" font-family="Times New Roman,serif" font-size="14.00">Count: 3</text>
<text text-anchor="middle" x="307.84" y="-829.88" font-family="Times New Roman,serif" font-size="14.00">Normalized count: Infinity</text>
<text text-anchor="middle" x="307.84" y="-814.88" font-family="Times New Roman,serif" font-size="14.00">Samples weight: 0.03</text>
</g>
<!-- BB0&#45;&gt;BB10 -->
<g id="edge1" class="edge">
<title>BB0&#45;&gt;BB10</title>
<path fill="none" stroke="black" d="M307.84,-924.89C307.84,-916.62 307.84,-907.94 307.84,-899.43"/>
<polygon fill="black" stroke="black" points="311.34,-899.19 307.84,-889.19 304.34,-899.19 311.34,-899.19"/>
</g>
<!-- BB1 -->
<g id="node2" class="node">
<title>BB1</title>
<ellipse fill="none" stroke="black" cx="307.84" cy="-708.92" rx="113.69" ry="48.17"/>
<text text-anchor="middle" x="307.84" y="-727.72" font-family="Times New Roman,serif" font-size="14.00">[69..a1)</text>
<text text-anchor="middle" x="307.84" y="-712.72" font-family="Times New Roman,serif" font-size="14.00">Count: 7</text>
<text text-anchor="middle" x="307.84" y="-697.72" font-family="Times New Roman,serif" font-size="14.00">Normalized count: Infinity</text>
<text text-anchor="middle" x="307.84" y="-682.72" font-family="Times New Roman,serif" font-size="14.00">Samples weight: 0.06</text>
</g>
<!-- BB3 -->
<g id="node4" class="node">
<title>BB3</title>
<ellipse fill="none" stroke="black" cx="430.84" cy="-576.75" rx="113.69" ry="48.17"/>
<text text-anchor="middle" x="430.84" y="-595.55" font-family="Times New Roman,serif" font-size="14.00">[b4..b8)</text>
<text text-anchor="middle" x="430.84" y="-580.55" font-family="Times New Roman,serif" font-size="14.00">Count: 6</text>
<text text-anchor="middle" x="430.84" y="-565.55" font-family="Times New Roman,serif" font-size="14.00">Normalized count: Infinity</text>
<text text-anchor="middle" x="430.84" y="-550.55" font-family="Times New Roman,serif" font-size="14.00">Samples weight: 0.05</text>
</g>
<!-- BB1&#45;&gt;BB3 -->
<g id="edge2" class="edge">
<title>BB1&#45;&gt;BB3</title>
<path fill="none" stroke="black" d="M349.49,-663.85C360.01,-652.72 371.39,-640.66 382.22,-629.2"/>
<polygon fill="black" stroke="black" points="384.92,-631.44 389.24,-621.77 379.83,-626.64 384.92,-631.44"/>
</g>
<!-- BB2 -->
<g id="node3" class="node">
<title>BB2</title>
<ellipse fill="none" stroke="black" cx="579.84" cy="-444.58" rx="113.69" ry="48.17"/>
<text text-anchor="middle" x="579.84" y="-463.38" font-family="Times New Roman,serif" font-size="14.00">[a1..b4)</text>
<text text-anchor="middle" x="579.84" y="-448.38" font-family="Times New Roman,serif" font-size="14.00">Count: 8</text>
<text text-anchor="middle" x="579.84" y="-433.38" font-family="Times New Roman,serif" font-size="14.00">Normalized count: Infinity</text>
<text text-anchor="middle" x="579.84" y="-418.38" font-family="Times New Roman,serif" font-size="14.00">Samples weight: 0.07</text>
</g>
<!-- BB2&#45;&gt;BB3 -->
<g id="edge3" class="edge">
<title>BB2&#45;&gt;BB3</title>
<path fill="none" stroke="black" d="M536.33,-489.2C522.58,-501.56 507.13,-515.09 492.38,-527.71"/>
<polygon fill="black" stroke="black" points="490.09,-525.06 484.74,-534.21 494.62,-530.39 490.09,-525.06"/>
</g>
<!-- BB3&#45;&gt;BB2 -->
<g id="edge4" class="edge">
<title>BB3&#45;&gt;BB2</title>
<path fill="none" stroke="black" d="M474.46,-532.04C488.04,-519.83 503.27,-506.49 517.85,-494.02"/>
<polygon fill="black" stroke="black" points="520.53,-496.34 525.87,-487.19 515.99,-491.01 520.53,-496.34"/>
</g>
<!-- BB4 -->
<g id="node5" class="node">
<title>BB4</title>
<ellipse fill="none" stroke="black" cx="333.84" cy="-444.58" rx="113.69" ry="48.17"/>
<text text-anchor="middle" x="333.84" y="-463.38" font-family="Times New Roman,serif" font-size="14.00">[b8..d9)</text>
<text text-anchor="middle" x="333.84" y="-448.38" font-family="Times New Roman,serif" font-size="14.00">Count: 17</text>
<text text-anchor="middle" x="333.84" y="-433.38" font-family="Times New Roman,serif" font-size="14.00">Normalized count: Infinity</text>
<text text-anchor="middle" x="333.84" y="-418.38" font-family="Times New Roman,serif" font-size="14.00">Samples weight: 0.14</text>
</g>
<!-- BB3&#45;&gt;BB4 -->
<g id="edge5" class="edge">
<title>BB3&#45;&gt;BB4</title>
<path fill="none" stroke="black" d="M397.19,-530.59C389.59,-520.39 381.45,-509.47 373.63,-498.97"/>
<polygon fill="black" stroke="black" points="376.22,-496.59 367.44,-490.66 370.61,-500.77 376.22,-496.59"/>
</g>
<!-- BB8 -->
<g id="node9" class="node">
<title>BB8</title>
<ellipse fill="none" stroke="black" cx="346.84" cy="-312.42" rx="113.69" ry="48.17"/>
<text text-anchor="middle" x="346.84" y="-331.22" font-family="Times New Roman,serif" font-size="14.00">[f4..fd)</text>
<text text-anchor="middle" x="346.84" y="-316.22" font-family="Times New Roman,serif" font-size="14.00">Count: 2</text>
<text text-anchor="middle" x="346.84" y="-301.22" font-family="Times New Roman,serif" font-size="14.00">Normalized count: Infinity</text>
<text text-anchor="middle" x="346.84" y="-286.22" font-family="Times New Roman,serif" font-size="14.00">Samples weight: 0.02</text>
</g>
<!-- BB4&#45;&gt;BB8 -->
<g id="edge6" class="edge">
<title>BB4&#45;&gt;BB8</title>
<path fill="none" stroke="black" d="M338.57,-396.22C339.41,-387.86 340.29,-379.08 341.14,-370.49"/>
<polygon fill="black" stroke="black" points="344.63,-370.82 342.14,-360.52 337.66,-370.13 344.63,-370.82"/>
</g>
<!-- BB5 -->
<g id="node6" class="node">
<title>BB5</title>
<ellipse fill="none" stroke="black" cx="359.84" cy="-180.25" rx="113.69" ry="48.17"/>
<text text-anchor="middle" x="359.84" y="-199.05" font-family="Times New Roman,serif" font-size="14.00">[d9..e5)</text>
<text text-anchor="middle" x="359.84" y="-184.05" font-family="Times New Roman,serif" font-size="14.00">Count: 5</text>
<text text-anchor="middle" x="359.84" y="-169.05" font-family="Times New Roman,serif" font-size="14.00">Normalized count: Infinity</text>
<text text-anchor="middle" x="359.84" y="-154.05" font-family="Times New Roman,serif" font-size="14.00">Samples weight: 0.04</text>
</g>
<!-- BB6 -->
<g id="node7" class="node">
<title>BB6</title>
<ellipse fill="none" stroke="black" cx="265.84" cy="-48.08" rx="104.8" ry="48.17"/>
<text text-anchor="middle" x="265.84" y="-66.88" font-family="Times New Roman,serif" font-size="14.00">[e5..ed)</text>
<text text-anchor="middle" x="265.84" y="-51.88" font-family="Times New Roman,serif" font-size="14.00">Count: 0</text>
<text text-anchor="middle" x="265.84" y="-36.88" font-family="Times New Roman,serif" font-size="14.00">Normalized count: NaN</text>
<text text-anchor="middle" x="265.84" y="-21.88" font-family="Times New Roman,serif" font-size="14.00">Samples weight: 0.00</text>
</g>
<!-- BB5&#45;&gt;BB6 -->
<g id="edge8" class="edge">
<title>BB5&#45;&gt;BB6</title>
<path fill="none" stroke="black" d="M327.23,-134.09C319.87,-123.89 311.98,-112.97 304.4,-102.47"/>
<polygon fill="black" stroke="black" points="307.09,-100.22 298.4,-94.16 301.42,-104.32 307.09,-100.22"/>
</g>
<!-- BB7 -->
<g id="node8" class="node">
<title>BB7</title>
<ellipse fill="none" stroke="black" cx="501.84" cy="-48.08" rx="113.69" ry="48.17"/>
<text text-anchor="middle" x="501.84" y="-66.88" font-family="Times New Roman,serif" font-size="14.00">[ed..f4)</text>
<text text-anchor="middle" x="501.84" y="-51.88" font-family="Times New Roman,serif" font-size="14.00">Count: 1</text>
<text text-anchor="middle" x="501.84" y="-36.88" font-family="Times New Roman,serif" font-size="14.00">Normalized count: Infinity</text>
<text text-anchor="middle" x="501.84" y="-21.88" font-family="Times New Roman,serif" font-size="14.00">Samples weight: 0.01</text>
</g>
<!-- BB5&#45;&gt;BB7 -->
<g id="edge7" class="edge">
<title>BB5&#45;&gt;BB7</title>
<path fill="none" stroke="black" d="M406.73,-136.27C419.82,-124.27 434.15,-111.14 447.62,-98.79"/>
<polygon fill="black" stroke="black" points="450,-101.36 455,-92.02 445.27,-96.2 450,-101.36"/>
</g>
<!-- BB6&#45;&gt;BB7 -->
<g id="edge9" class="edge">
<title>BB6&#45;&gt;BB7</title>
<path fill="none" stroke="black" d="M370.94,-48.08C373.22,-48.08 375.51,-48.08 377.79,-48.08"/>
<polygon fill="black" stroke="black" points="377.81,-51.58 387.81,-48.08 377.81,-44.58 377.81,-51.58"/>
</g>
<!-- BB7&#45;&gt;BB8 -->
<g id="edge10" class="edge">
<title>BB7&#45;&gt;BB8</title>
<path fill="none" stroke="black" d="M507.72,-96.2C510.12,-134.67 507.77,-188.93 482.84,-228.33 471.47,-246.32 454.65,-261 436.69,-272.73"/>
<polygon fill="black" stroke="black" points="434.45,-270 427.8,-278.26 438.14,-275.95 434.45,-270"/>
</g>
<!-- BB8&#45;&gt;BB5 -->
<g id="edge11" class="edge">
<title>BB8&#45;&gt;BB5</title>
<path fill="none" stroke="black" d="M351.57,-264.05C352.41,-255.7 353.29,-246.91 354.14,-238.32"/>
<polygon fill="black" stroke="black" points="357.63,-238.66 355.14,-228.36 350.66,-237.96 357.63,-238.66"/>
</g>
<!-- BB9 -->
<g id="node10" class="node">
<title>BB9</title>
<ellipse fill="none" stroke="black" cx="113.84" cy="-180.25" rx="113.69" ry="48.17"/>
<text text-anchor="middle" x="113.84" y="-199.05" font-family="Times New Roman,serif" font-size="14.00">[fd..11a)</text>
<text text-anchor="middle" x="113.84" y="-184.05" font-family="Times New Roman,serif" font-size="14.00">Count: 69</text>
<text text-anchor="middle" x="113.84" y="-169.05" font-family="Times New Roman,serif" font-size="14.00">Normalized count: Infinity</text>
<text text-anchor="middle" x="113.84" y="-154.05" font-family="Times New Roman,serif" font-size="14.00">Samples weight: 0.58</text>
</g>
<!-- BB8&#45;&gt;BB9 -->
<g id="edge12" class="edge">
<title>BB8&#45;&gt;BB9</title>
<path fill="none" stroke="black" d="M279.14,-273.59C251.38,-258.08 219.1,-240.05 190.48,-224.06"/>
<polygon fill="black" stroke="black" points="192.16,-220.99 181.72,-219.17 188.74,-227.1 192.16,-220.99"/>
</g>
<!-- BB9&#45;&gt;BB10 -->
<g id="edge13" class="edge">
<title>BB9&#45;&gt;BB10</title>
<path fill="none" stroke="black" d="M128.88,-228.09C144.24,-280.14 165.84,-366.97 165.84,-443.58 165.84,-577.75 165.84,-577.75 165.84,-577.75 165.84,-657.86 143.58,-688.33 184.84,-757 194.74,-773.46 209.29,-787.37 224.95,-798.83"/>
<polygon fill="black" stroke="black" points="223.02,-801.75 233.23,-804.6 227.03,-796.01 223.02,-801.75"/>
</g>
<!-- BB10&#45;&gt;BB1 -->
<g id="edge14" class="edge">
<title>BB10&#45;&gt;BB1</title>
<path fill="none" stroke="black" d="M307.84,-792.72C307.84,-784.45 307.84,-775.77 307.84,-767.27"/>
<polygon fill="black" stroke="black" points="311.34,-767.02 307.84,-757.02 304.34,-767.02 311.34,-767.02"/>
</g>
<!-- BB11 -->
<g id="node12" class="node">
<title>BB11</title>
<ellipse fill="none" stroke="black" cx="543.84" cy="-708.92" rx="104.8" ry="48.17"/>
<text text-anchor="middle" x="543.84" y="-727.72" font-family="Times New Roman,serif" font-size="14.00">[126..127)</text>
<text text-anchor="middle" x="543.84" y="-712.72" font-family="Times New Roman,serif" font-size="14.00">Count: 0</text>
<text text-anchor="middle" x="543.84" y="-697.72" font-family="Times New Roman,serif" font-size="14.00">Normalized count: NaN</text>
<text text-anchor="middle" x="543.84" y="-682.72" font-family="Times New Roman,serif" font-size="14.00">Samples weight: 0.00</text>
</g>
<!-- BB10&#45;&gt;BB11 -->
<g id="edge15" class="edge">
<title>BB10&#45;&gt;BB11</title>
<path fill="none" stroke="black" d="M376.11,-802.43C405.1,-786.44 438.99,-767.75 468.7,-751.36"/>
<polygon fill="black" stroke="black" points="470.7,-754.25 477.77,-746.36 467.32,-748.12 470.7,-754.25"/>
</g>
</g>
</svg>
