<?xml version="1.0" encoding="UTF-8" standalone="no"?>
<!DOCTYPE svg PUBLIC "-//W3C//DTD SVG 1.1//EN"
 "http://www.w3.org/Graphics/SVG/1.1/DTD/svg11.dtd">
<!-- Generated by graphviz version 2.47.0 (20210316.0004)
 -->
<!-- Title: G Pages: 1 -->
<svg width="526pt" height="780pt"
 viewBox="0.00 0.00 525.85 779.66" xmlns="http://www.w3.org/2000/svg" xmlns:xlink="http://www.w3.org/1999/xlink">
<g id="graph0" class="graph" transform="scale(1 1) rotate(0) translate(4 775.66)">
<title>G</title>
<polygon fill="white" stroke="transparent" points="-4,4 -4,-775.66 521.85,-775.66 521.85,4 -4,4"/>
<!-- BB0 -->
<g id="node1" class="node">
<title>BB0</title>
<ellipse fill="none" stroke="black" cx="138.43" cy="-744.79" rx="33.47" ry="26.74"/>
<text text-anchor="middle" x="138.43" y="-748.59" font-family="Times New Roman,serif" font-size="14.00">[0..b)</text>
<text text-anchor="middle" x="138.43" y="-733.59" font-family="Times New Roman,serif" font-size="14.00">0.00</text>
</g>
<!-- BB5 -->
<g id="node6" class="node">
<title>BB5</title>
<ellipse fill="none" stroke="black" cx="138.43" cy="-655.05" rx="42.35" ry="26.74"/>
<text text-anchor="middle" x="138.43" y="-658.85" font-family="Times New Roman,serif" font-size="14.00">[27..2c)</text>
<text text-anchor="middle" x="138.43" y="-643.85" font-family="Times New Roman,serif" font-size="14.00">0.00</text>
</g>
<!-- BB0&#45;&gt;BB5 -->
<g id="edge1" class="edge">
<title>BB0&#45;&gt;BB5</title>
<path fill="none" stroke="black" d="M138.43,-717.47C138.43,-709.5 138.43,-700.61 138.43,-692.12"/>
<polygon fill="black" stroke="black" points="141.93,-692.05 138.43,-682.05 134.93,-692.05 141.93,-692.05"/>
</g>
<!-- BB1 -->
<g id="node2" class="node">
<title>BB1</title>
<ellipse fill="none" stroke="black" cx="138.43" cy="-565.31" rx="31.64" ry="26.74"/>
<text text-anchor="middle" x="138.43" y="-569.11" font-family="Times New Roman,serif" font-size="14.00">[b..f)</text>
<text text-anchor="middle" x="138.43" y="-554.11" font-family="Times New Roman,serif" font-size="14.00">0.00</text>
</g>
<!-- BB3 -->
<g id="node4" class="node">
<title>BB3</title>
<ellipse fill="none" stroke="black" cx="138.43" cy="-475.57" rx="41.94" ry="26.74"/>
<text text-anchor="middle" x="138.43" y="-479.37" font-family="Times New Roman,serif" font-size="14.00">[1e..23)</text>
<text text-anchor="middle" x="138.43" y="-464.37" font-family="Times New Roman,serif" font-size="14.00">0.00</text>
</g>
<!-- BB1&#45;&gt;BB3 -->
<g id="edge2" class="edge">
<title>BB1&#45;&gt;BB3</title>
<path fill="none" stroke="black" d="M138.43,-537.99C138.43,-530.02 138.43,-521.13 138.43,-512.64"/>
<polygon fill="black" stroke="black" points="141.93,-512.57 138.43,-502.57 134.93,-512.57 141.93,-512.57"/>
</g>
<!-- BB2 -->
<g id="node3" class="node">
<title>BB2</title>
<ellipse fill="none" stroke="black" cx="138.43" cy="-385.83" rx="35.21" ry="26.74"/>
<text text-anchor="middle" x="138.43" y="-389.63" font-family="Times New Roman,serif" font-size="14.00">[f..1e)</text>
<text text-anchor="middle" x="138.43" y="-374.63" font-family="Times New Roman,serif" font-size="14.00">0.02</text>
</g>
<!-- BB2&#45;&gt;BB3 -->
<g id="edge3" class="edge">
<title>BB2&#45;&gt;BB3</title>
<path fill="none" stroke="black" d="M144.63,-412.5C145.15,-420.69 145.3,-429.92 145.08,-438.7"/>
<polygon fill="black" stroke="black" points="141.58,-438.58 144.64,-448.72 148.57,-438.88 141.58,-438.58"/>
</g>
<!-- BB3&#45;&gt;BB2 -->
<g id="edge4" class="edge">
<title>BB3&#45;&gt;BB2</title>
<path fill="none" stroke="black" d="M132.21,-448.72C131.7,-440.51 131.55,-431.28 131.78,-422.5"/>
<polygon fill="black" stroke="black" points="135.28,-422.64 132.22,-412.5 128.29,-422.33 135.28,-422.64"/>
</g>
<!-- BB4 -->
<g id="node5" class="node">
<title>BB4</title>
<ellipse fill="none" stroke="black" cx="42.43" cy="-385.83" rx="42.35" ry="26.74"/>
<text text-anchor="middle" x="42.43" y="-389.63" font-family="Times New Roman,serif" font-size="14.00">[23..27)</text>
<text text-anchor="middle" x="42.43" y="-374.63" font-family="Times New Roman,serif" font-size="14.00">0.00</text>
</g>
<!-- BB3&#45;&gt;BB4 -->
<g id="edge5" class="edge">
<title>BB3&#45;&gt;BB4</title>
<path fill="none" stroke="black" d="M114.7,-452.88C102.26,-441.51 86.87,-427.45 73.49,-415.22"/>
<polygon fill="black" stroke="black" points="75.63,-412.43 65.88,-408.27 70.9,-417.6 75.63,-412.43"/>
</g>
<!-- BB4&#45;&gt;BB5 -->
<g id="edge6" class="edge">
<title>BB4&#45;&gt;BB5</title>
<path fill="none" stroke="black" d="M46.58,-412.71C53.58,-452.56 69.75,-530.77 97.43,-592.18 102.09,-602.52 108.39,-613.07 114.66,-622.46"/>
<polygon fill="black" stroke="black" points="111.8,-624.47 120.36,-630.71 117.56,-620.5 111.8,-624.47"/>
</g>
<!-- BB5&#45;&gt;BB1 -->
<g id="edge7" class="edge">
<title>BB5&#45;&gt;BB1</title>
<path fill="none" stroke="black" d="M138.43,-627.73C138.43,-619.76 138.43,-610.87 138.43,-602.38"/>
<polygon fill="black" stroke="black" points="141.93,-602.31 138.43,-592.31 134.93,-602.31 141.93,-602.31"/>
</g>
<!-- BB6 -->
<g id="node7" class="node">
<title>BB6</title>
<ellipse fill="none" stroke="black" cx="235.43" cy="-565.31" rx="42.35" ry="26.74"/>
<text text-anchor="middle" x="235.43" y="-569.11" font-family="Times New Roman,serif" font-size="14.00">[2c..30)</text>
<text text-anchor="middle" x="235.43" y="-554.11" font-family="Times New Roman,serif" font-size="14.00">0.00</text>
</g>
<!-- BB5&#45;&gt;BB6 -->
<g id="edge8" class="edge">
<title>BB5&#45;&gt;BB6</title>
<path fill="none" stroke="black" d="M162.4,-632.36C174.97,-620.99 190.52,-606.93 204.04,-594.7"/>
<polygon fill="black" stroke="black" points="206.66,-597.05 211.72,-587.75 201.96,-591.86 206.66,-597.05"/>
</g>
<!-- BB13 -->
<g id="node14" class="node">
<title>BB13</title>
<ellipse fill="none" stroke="black" cx="255.43" cy="-475.57" rx="42.35" ry="26.74"/>
<text text-anchor="middle" x="255.43" y="-479.37" font-family="Times New Roman,serif" font-size="14.00">[70..75)</text>
<text text-anchor="middle" x="255.43" y="-464.37" font-family="Times New Roman,serif" font-size="14.00">0.00</text>
</g>
<!-- BB6&#45;&gt;BB13 -->
<g id="edge9" class="edge">
<title>BB6&#45;&gt;BB13</title>
<path fill="none" stroke="black" d="M241.32,-538.46C243.19,-530.25 245.29,-521.02 247.3,-512.24"/>
<polygon fill="black" stroke="black" points="250.77,-512.76 249.58,-502.24 243.94,-511.21 250.77,-512.76"/>
</g>
<!-- BB7 -->
<g id="node8" class="node">
<title>BB7</title>
<ellipse fill="none" stroke="black" cx="271.43" cy="-385.83" rx="42.35" ry="26.74"/>
<text text-anchor="middle" x="271.43" y="-389.63" font-family="Times New Roman,serif" font-size="14.00">[30..34)</text>
<text text-anchor="middle" x="271.43" y="-374.63" font-family="Times New Roman,serif" font-size="14.00">0.00</text>
</g>
<!-- BB11 -->
<g id="node12" class="node">
<title>BB11</title>
<ellipse fill="none" stroke="black" cx="271.43" cy="-296.09" rx="42.35" ry="26.74"/>
<text text-anchor="middle" x="271.43" y="-299.89" font-family="Times New Roman,serif" font-size="14.00">[67..6c)</text>
<text text-anchor="middle" x="271.43" y="-284.89" font-family="Times New Roman,serif" font-size="14.00">0.00</text>
</g>
<!-- BB7&#45;&gt;BB11 -->
<g id="edge10" class="edge">
<title>BB7&#45;&gt;BB11</title>
<path fill="none" stroke="black" d="M271.43,-358.51C271.43,-350.54 271.43,-341.65 271.43,-333.16"/>
<polygon fill="black" stroke="black" points="274.93,-333.09 271.43,-323.09 267.93,-333.09 274.93,-333.09"/>
</g>
<!-- BB8 -->
<g id="node9" class="node">
<title>BB8</title>
<ellipse fill="none" stroke="black" cx="341.43" cy="-206.35" rx="42.35" ry="26.74"/>
<text text-anchor="middle" x="341.43" y="-210.15" font-family="Times New Roman,serif" font-size="14.00">[34..36)</text>
<text text-anchor="middle" x="341.43" y="-195.15" font-family="Times New Roman,serif" font-size="14.00">0.00</text>
</g>
<!-- BB9 -->
<g id="node10" class="node">
<title>BB9</title>
<ellipse fill="none" stroke="black" cx="341.43" cy="-116.61" rx="42.35" ry="26.74"/>
<text text-anchor="middle" x="341.43" y="-120.41" font-family="Times New Roman,serif" font-size="14.00">[36..63)</text>
<text text-anchor="middle" x="341.43" y="-105.41" font-family="Times New Roman,serif" font-size="14.00">0.97</text>
</g>
<!-- BB8&#45;&gt;BB9 -->
<g id="edge11" class="edge">
<title>BB8&#45;&gt;BB9</title>
<path fill="none" stroke="black" d="M341.43,-179.03C341.43,-171.06 341.43,-162.17 341.43,-153.68"/>
<polygon fill="black" stroke="black" points="344.93,-153.61 341.43,-143.61 337.93,-153.61 344.93,-153.61"/>
</g>
<!-- BB9&#45;&gt;BB9 -->
<g id="edge12" class="edge">
<title>BB9&#45;&gt;BB9</title>
<path fill="none" stroke="black" d="M375.29,-132.94C389.63,-134.17 401.85,-128.73 401.85,-116.61 401.85,-107.52 394.98,-102.19 385.49,-100.61"/>
<polygon fill="black" stroke="black" points="385.39,-97.1 375.29,-100.28 385.17,-104.1 385.39,-97.1"/>
</g>
<!-- BB10 -->
<g id="node11" class="node">
<title>BB10</title>
<ellipse fill="none" stroke="black" cx="306.43" cy="-26.87" rx="42.35" ry="26.74"/>
<text text-anchor="middle" x="306.43" y="-30.67" font-family="Times New Roman,serif" font-size="14.00">[63..67)</text>
<text text-anchor="middle" x="306.43" y="-15.67" font-family="Times New Roman,serif" font-size="14.00">0.00</text>
</g>
<!-- BB9&#45;&gt;BB10 -->
<g id="edge13" class="edge">
<title>BB9&#45;&gt;BB10</title>
<path fill="none" stroke="black" d="M331.3,-90.23C327.86,-81.59 323.94,-71.78 320.26,-62.54"/>
<polygon fill="black" stroke="black" points="323.48,-61.18 316.53,-53.19 316.98,-63.78 323.48,-61.18"/>
</g>
<!-- BB10&#45;&gt;BB11 -->
<g id="edge14" class="edge">
<title>BB10&#45;&gt;BB11</title>
<path fill="none" stroke="black" d="M298.8,-53.56C295.77,-64.6 292.52,-77.72 290.43,-89.74 280.18,-148.47 275.23,-217.67 273.01,-258.88"/>
<polygon fill="black" stroke="black" points="269.51,-258.81 272.5,-268.98 276.5,-259.17 269.51,-258.81"/>
</g>
<!-- BB11&#45;&gt;BB8 -->
<g id="edge15" class="edge">
<title>BB11&#45;&gt;BB8</title>
<path fill="none" stroke="black" d="M290.19,-271.58C298.25,-261.47 307.8,-249.5 316.45,-238.65"/>
<polygon fill="black" stroke="black" points="319.36,-240.62 322.86,-230.62 313.89,-236.26 319.36,-240.62"/>
</g>
<!-- BB12 -->
<g id="node13" class="node">
<title>BB12</title>
<ellipse fill="none" stroke="black" cx="201.43" cy="-206.35" rx="42.35" ry="26.74"/>
<text text-anchor="middle" x="201.43" y="-210.15" font-family="Times New Roman,serif" font-size="14.00">[6c..70)</text>
<text text-anchor="middle" x="201.43" y="-195.15" font-family="Times New Roman,serif" font-size="14.00">0.00</text>
</g>
<!-- BB11&#45;&gt;BB12 -->
<g id="edge16" class="edge">
<title>BB11&#45;&gt;BB12</title>
<path fill="none" stroke="black" d="M252.67,-271.58C244.6,-261.47 235.05,-249.5 226.4,-238.65"/>
<polygon fill="black" stroke="black" points="228.97,-236.26 219.99,-230.62 223.49,-240.62 228.97,-236.26"/>
</g>
<!-- BB12&#45;&gt;BB13 -->
<g id="edge17" class="edge">
<title>BB12&#45;&gt;BB13</title>
<path fill="none" stroke="black" d="M200.39,-233.32C199.56,-272.96 200.95,-350.52 220.43,-412.7 223.55,-422.68 228.44,-432.83 233.59,-441.95"/>
<polygon fill="black" stroke="black" points="230.66,-443.86 238.77,-450.68 236.68,-440.29 230.66,-443.86"/>
</g>
<!-- BB13&#45;&gt;BB7 -->
<g id="edge18" class="edge">
<title>BB13&#45;&gt;BB7</title>
<path fill="none" stroke="black" d="M260.14,-448.72C261.62,-440.58 263.29,-431.44 264.88,-422.74"/>
<polygon fill="black" stroke="black" points="268.34,-423.27 266.69,-412.8 261.45,-422.01 268.34,-423.27"/>
</g>
<!-- BB14 -->
<g id="node15" class="node">
<title>BB14</title>
<ellipse fill="none" stroke="black" cx="373.43" cy="-385.83" rx="41.94" ry="26.74"/>
<text text-anchor="middle" x="373.43" y="-389.63" font-family="Times New Roman,serif" font-size="14.00">[75..7e)</text>
<text text-anchor="middle" x="373.43" y="-374.63" font-family="Times New Roman,serif" font-size="14.00">0.00</text>
</g>
<!-- BB13&#45;&gt;BB14 -->
<g id="edge19" class="edge">
<title>BB13&#45;&gt;BB14</title>
<path fill="none" stroke="black" d="M282.2,-454.66C298.8,-442.32 320.3,-426.33 338.26,-412.98"/>
<polygon fill="black" stroke="black" points="340.82,-415.44 346.76,-406.66 336.64,-409.82 340.82,-415.44"/>
</g>
<!-- BB15 -->
<g id="node16" class="node">
<title>BB15</title>
<ellipse fill="none" stroke="black" cx="373.43" cy="-296.09" rx="41.94" ry="26.74"/>
<text text-anchor="middle" x="373.43" y="-299.89" font-family="Times New Roman,serif" font-size="14.00">[7e..80)</text>
<text text-anchor="middle" x="373.43" y="-284.89" font-family="Times New Roman,serif" font-size="14.00">0.00</text>
</g>
<!-- BB14&#45;&gt;BB15 -->
<g id="edge21" class="edge">
<title>BB14&#45;&gt;BB15</title>
<path fill="none" stroke="black" d="M373.43,-358.51C373.43,-350.54 373.43,-341.65 373.43,-333.16"/>
<polygon fill="black" stroke="black" points="376.93,-333.09 373.43,-323.09 369.93,-333.09 376.93,-333.09"/>
</g>
<!-- BB16 -->
<g id="node17" class="node">
<title>BB16</title>
<ellipse fill="none" stroke="black" cx="475.43" cy="-296.09" rx="42.35" ry="26.74"/>
<text text-anchor="middle" x="475.43" y="-299.89" font-family="Times New Roman,serif" font-size="14.00">[80..82)</text>
<text text-anchor="middle" x="475.43" y="-284.89" font-family="Times New Roman,serif" font-size="14.00">0.00</text>
</g>
<!-- BB14&#45;&gt;BB16 -->
<g id="edge20" class="edge">
<title>BB14&#45;&gt;BB16</title>
<path fill="none" stroke="black" d="M397.86,-363.81C411.38,-352.18 428.37,-337.57 443,-324.99"/>
<polygon fill="black" stroke="black" points="445.54,-327.41 450.84,-318.24 440.98,-322.11 445.54,-327.41"/>
</g>
</g>
</svg>
