<?xml version="1.0" encoding="UTF-8" standalone="no"?>
<!DOCTYPE svg PUBLIC "-//W3C//DTD SVG 1.1//EN"
 "http://www.w3.org/Graphics/SVG/1.1/DTD/svg11.dtd">
<!-- Generated by graphviz version 2.47.0 (20210316.0004)
 -->
<!-- Title: G Pages: 1 -->
<svg width="1334pt" height="501pt"
 viewBox="0.00 0.00 1334.48 500.67" xmlns="http://www.w3.org/2000/svg" xmlns:xlink="http://www.w3.org/1999/xlink">
<g id="graph0" class="graph" transform="scale(1 1) rotate(0) translate(4 496.67)">
<title>G</title>
<polygon fill="white" stroke="transparent" points="-4,4 -4,-496.67 1330.48,-496.67 1330.48,4 -4,4"/>
<!-- BB0 -->
<g id="node1" class="node">
<title>BB0</title>
<ellipse fill="none" stroke="black" cx="551.24" cy="-444.58" rx="103.48" ry="48.17"/>
<text text-anchor="middle" x="551.24" y="-463.38" font-family="Times New Roman,serif" font-size="14.00">[0..b)</text>
<text text-anchor="middle" x="551.24" y="-448.38" font-family="Times New Roman,serif" font-size="14.00">Count: 1693</text>
<text text-anchor="middle" x="551.24" y="-433.38" font-family="Times New Roman,serif" font-size="14.00">Normalized count: 1.00</text>
<text text-anchor="middle" x="551.24" y="-418.38" font-family="Times New Roman,serif" font-size="14.00">Samples weight: 0.22</text>
</g>
<!-- BB1 -->
<g id="node2" class="node">
<title>BB1</title>
<ellipse fill="none" stroke="black" cx="439.24" cy="-312.42" rx="103.48" ry="48.17"/>
<text text-anchor="middle" x="439.24" y="-331.22" font-family="Times New Roman,serif" font-size="14.00">[b..e)</text>
<text text-anchor="middle" x="439.24" y="-316.22" font-family="Times New Roman,serif" font-size="14.00">Count: 1453</text>
<text text-anchor="middle" x="439.24" y="-301.22" font-family="Times New Roman,serif" font-size="14.00">Normalized count: 0.86</text>
<text text-anchor="middle" x="439.24" y="-286.22" font-family="Times New Roman,serif" font-size="14.00">Samples weight: 0.19</text>
</g>
<!-- BB0&#45;&gt;BB1 -->
<g id="edge2" class="edge">
<title>BB0&#45;&gt;BB1</title>
<path fill="none" stroke="black" d="M513.32,-399.51C503.83,-388.49 493.57,-376.56 483.79,-365.2"/>
<polygon fill="black" stroke="black" points="486.29,-362.74 477.12,-357.44 480.99,-367.3 486.29,-362.74"/>
</g>
<!-- BB2 -->
<g id="node3" class="node">
<title>BB2</title>
<ellipse fill="none" stroke="black" cx="663.24" cy="-312.42" rx="103.48" ry="48.17"/>
<text text-anchor="middle" x="663.24" y="-331.22" font-family="Times New Roman,serif" font-size="14.00">[e..2a)</text>
<text text-anchor="middle" x="663.24" y="-316.22" font-family="Times New Roman,serif" font-size="14.00">Count: 1453</text>
<text text-anchor="middle" x="663.24" y="-301.22" font-family="Times New Roman,serif" font-size="14.00">Normalized count: 0.86</text>
<text text-anchor="middle" x="663.24" y="-286.22" font-family="Times New Roman,serif" font-size="14.00">Samples weight: 0.19</text>
</g>
<!-- BB0&#45;&gt;BB2 -->
<g id="edge1" class="edge">
<title>BB0&#45;&gt;BB2</title>
<path fill="none" stroke="black" d="M589.16,-399.51C598.64,-388.49 608.91,-376.56 618.68,-365.2"/>
<polygon fill="black" stroke="black" points="621.49,-367.3 625.36,-357.44 616.18,-362.74 621.49,-367.3"/>
</g>
<!-- BB1&#45;&gt;BB2 -->
<g id="edge3" class="edge">
<title>BB1&#45;&gt;BB2</title>
<path fill="none" stroke="black" d="M542.49,-312.42C544.94,-312.42 547.4,-312.42 549.85,-312.42"/>
<polygon fill="black" stroke="black" points="549.94,-315.92 559.94,-312.42 549.94,-308.92 549.94,-315.92"/>
</g>
<!-- BB3 -->
<g id="node4" class="node">
<title>BB3</title>
<ellipse fill="none" stroke="black" cx="103.24" cy="-180.25" rx="103.48" ry="48.17"/>
<text text-anchor="middle" x="103.24" y="-199.05" font-family="Times New Roman,serif" font-size="14.00">[2a..2b)</text>
<text text-anchor="middle" x="103.24" y="-184.05" font-family="Times New Roman,serif" font-size="14.00">Count: 0</text>
<text text-anchor="middle" x="103.24" y="-169.05" font-family="Times New Roman,serif" font-size="14.00">Normalized count: 0.00</text>
<text text-anchor="middle" x="103.24" y="-154.05" font-family="Times New Roman,serif" font-size="14.00">Samples weight: 0.00</text>
</g>
<!-- BB2&#45;&gt;BB3 -->
<g id="edge4" class="edge">
<title>BB2&#45;&gt;BB3</title>
<path fill="none" stroke="black" d="M591.71,-277.73C578.48,-272.55 564.62,-267.78 551.24,-264.33 405.81,-226.83 360.67,-265.83 215.24,-228.33 204.99,-225.69 194.47,-222.28 184.16,-218.5"/>
<polygon fill="black" stroke="black" points="185.36,-215.21 174.77,-214.93 182.88,-221.75 185.36,-215.21"/>
</g>
<!-- BB4 -->
<g id="node5" class="node">
<title>BB4</title>
<ellipse fill="none" stroke="black" cx="327.24" cy="-180.25" rx="103.48" ry="48.17"/>
<text text-anchor="middle" x="327.24" y="-199.05" font-family="Times New Roman,serif" font-size="14.00">[2b..2f)</text>
<text text-anchor="middle" x="327.24" y="-184.05" font-family="Times New Roman,serif" font-size="14.00">Count: 0</text>
<text text-anchor="middle" x="327.24" y="-169.05" font-family="Times New Roman,serif" font-size="14.00">Normalized count: 0.00</text>
<text text-anchor="middle" x="327.24" y="-154.05" font-family="Times New Roman,serif" font-size="14.00">Samples weight: 0.00</text>
</g>
<!-- BB2&#45;&gt;BB4 -->
<g id="edge5" class="edge">
<title>BB2&#45;&gt;BB4</title>
<path fill="none" stroke="black" d="M588.59,-278.98C576.19,-273.89 563.4,-268.84 551.24,-264.33 502.2,-246.18 488.27,-246.48 439.24,-228.33 430.11,-224.96 420.64,-221.27 411.24,-217.49"/>
<polygon fill="black" stroke="black" points="412.47,-214.21 401.88,-213.69 409.83,-220.69 412.47,-214.21"/>
</g>
<!-- BB5 -->
<g id="node6" class="node">
<title>BB5</title>
<ellipse fill="none" stroke="black" cx="551.24" cy="-180.25" rx="103.48" ry="48.17"/>
<text text-anchor="middle" x="551.24" y="-199.05" font-family="Times New Roman,serif" font-size="14.00">[2f..38)</text>
<text text-anchor="middle" x="551.24" y="-184.05" font-family="Times New Roman,serif" font-size="14.00">Count: 0</text>
<text text-anchor="middle" x="551.24" y="-169.05" font-family="Times New Roman,serif" font-size="14.00">Normalized count: 0.00</text>
<text text-anchor="middle" x="551.24" y="-154.05" font-family="Times New Roman,serif" font-size="14.00">Samples weight: 0.00</text>
</g>
<!-- BB2&#45;&gt;BB5 -->
<g id="edge6" class="edge">
<title>BB2&#45;&gt;BB5</title>
<path fill="none" stroke="black" d="M625.32,-267.35C615.83,-256.32 605.57,-244.39 595.79,-233.03"/>
<polygon fill="black" stroke="black" points="598.29,-230.57 589.12,-225.27 592.99,-235.14 598.29,-230.57"/>
</g>
<!-- BB8 -->
<g id="node9" class="node">
<title>BB8</title>
<ellipse fill="none" stroke="black" cx="775.24" cy="-180.25" rx="103.48" ry="48.17"/>
<text text-anchor="middle" x="775.24" y="-199.05" font-family="Times New Roman,serif" font-size="14.00">[40..44)</text>
<text text-anchor="middle" x="775.24" y="-184.05" font-family="Times New Roman,serif" font-size="14.00">Count: 0</text>
<text text-anchor="middle" x="775.24" y="-169.05" font-family="Times New Roman,serif" font-size="14.00">Normalized count: 0.00</text>
<text text-anchor="middle" x="775.24" y="-154.05" font-family="Times New Roman,serif" font-size="14.00">Samples weight: 0.00</text>
</g>
<!-- BB2&#45;&gt;BB8 -->
<g id="edge7" class="edge">
<title>BB2&#45;&gt;BB8</title>
<path fill="none" stroke="black" d="M701.16,-267.35C710.64,-256.32 720.91,-244.39 730.68,-233.03"/>
<polygon fill="black" stroke="black" points="733.49,-235.14 737.36,-225.27 728.18,-230.57 733.49,-235.14"/>
</g>
<!-- BB9 -->
<g id="node10" class="node">
<title>BB9</title>
<ellipse fill="none" stroke="black" cx="999.24" cy="-180.25" rx="103.48" ry="48.17"/>
<text text-anchor="middle" x="999.24" y="-199.05" font-family="Times New Roman,serif" font-size="14.00">[44..47)</text>
<text text-anchor="middle" x="999.24" y="-184.05" font-family="Times New Roman,serif" font-size="14.00">Count: 3080</text>
<text text-anchor="middle" x="999.24" y="-169.05" font-family="Times New Roman,serif" font-size="14.00">Normalized count: 1.82</text>
<text text-anchor="middle" x="999.24" y="-154.05" font-family="Times New Roman,serif" font-size="14.00">Samples weight: 0.40</text>
</g>
<!-- BB2&#45;&gt;BB9 -->
<g id="edge9" class="edge">
<title>BB2&#45;&gt;BB9</title>
<path fill="none" stroke="black" d="M744.17,-282.35C786.88,-266.76 840.08,-246.98 887.24,-228.33 896.21,-224.78 905.55,-221 914.85,-217.18"/>
<polygon fill="black" stroke="black" points="916.21,-220.41 924.11,-213.35 913.53,-213.94 916.21,-220.41"/>
</g>
<!-- BB10 -->
<g id="node11" class="node">
<title>BB10</title>
<ellipse fill="none" stroke="black" cx="1223.24" cy="-180.25" rx="103.48" ry="48.17"/>
<text text-anchor="middle" x="1223.24" y="-199.05" font-family="Times New Roman,serif" font-size="14.00">[47..48)</text>
<text text-anchor="middle" x="1223.24" y="-184.05" font-family="Times New Roman,serif" font-size="14.00">Count: 0</text>
<text text-anchor="middle" x="1223.24" y="-169.05" font-family="Times New Roman,serif" font-size="14.00">Normalized count: 0.00</text>
<text text-anchor="middle" x="1223.24" y="-154.05" font-family="Times New Roman,serif" font-size="14.00">Samples weight: 0.00</text>
</g>
<!-- BB2&#45;&gt;BB10 -->
<g id="edge8" class="edge">
<title>BB2&#45;&gt;BB10</title>
<path fill="none" stroke="black" d="M762.56,-299.23C854.31,-286.52 993.77,-263.47 1111.24,-228.33 1121.04,-225.4 1131.15,-221.89 1141.09,-218.13"/>
<polygon fill="black" stroke="black" points="1142.51,-221.33 1150.56,-214.45 1139.97,-214.8 1142.51,-221.33"/>
</g>
<!-- BB6 -->
<g id="node7" class="node">
<title>BB6</title>
<ellipse fill="none" stroke="black" cx="439.24" cy="-48.08" rx="103.48" ry="48.17"/>
<text text-anchor="middle" x="439.24" y="-66.88" font-family="Times New Roman,serif" font-size="14.00">[38..3c)</text>
<text text-anchor="middle" x="439.24" y="-51.88" font-family="Times New Roman,serif" font-size="14.00">Count: 0</text>
<text text-anchor="middle" x="439.24" y="-36.88" font-family="Times New Roman,serif" font-size="14.00">Normalized count: 0.00</text>
<text text-anchor="middle" x="439.24" y="-21.88" font-family="Times New Roman,serif" font-size="14.00">Samples weight: 0.00</text>
</g>
<!-- BB5&#45;&gt;BB6 -->
<g id="edge11" class="edge">
<title>BB5&#45;&gt;BB6</title>
<path fill="none" stroke="black" d="M513.32,-135.18C503.83,-124.16 493.57,-112.23 483.79,-100.86"/>
<polygon fill="black" stroke="black" points="486.29,-98.4 477.12,-93.11 480.99,-102.97 486.29,-98.4"/>
</g>
<!-- BB7 -->
<g id="node8" class="node">
<title>BB7</title>
<ellipse fill="none" stroke="black" cx="663.24" cy="-48.08" rx="103.48" ry="48.17"/>
<text text-anchor="middle" x="663.24" y="-66.88" font-family="Times New Roman,serif" font-size="14.00">[3c..40)</text>
<text text-anchor="middle" x="663.24" y="-51.88" font-family="Times New Roman,serif" font-size="14.00">Count: 0</text>
<text text-anchor="middle" x="663.24" y="-36.88" font-family="Times New Roman,serif" font-size="14.00">Normalized count: 0.00</text>
<text text-anchor="middle" x="663.24" y="-21.88" font-family="Times New Roman,serif" font-size="14.00">Samples weight: 0.00</text>
</g>
<!-- BB5&#45;&gt;BB7 -->
<g id="edge10" class="edge">
<title>BB5&#45;&gt;BB7</title>
<path fill="none" stroke="black" d="M589.16,-135.18C598.64,-124.16 608.91,-112.23 618.68,-100.86"/>
<polygon fill="black" stroke="black" points="621.49,-102.97 625.36,-93.11 616.18,-98.4 621.49,-102.97"/>
</g>
<!-- BB9&#45;&gt;BB10 -->
<g id="edge12" class="edge">
<title>BB9&#45;&gt;BB10</title>
<path fill="none" stroke="black" d="M1102.49,-180.25C1104.94,-180.25 1107.4,-180.25 1109.85,-180.25"/>
<polygon fill="black" stroke="black" points="1109.94,-183.75 1119.94,-180.25 1109.94,-176.75 1109.94,-183.75"/>
</g>
</g>
</svg>
