<?xml version="1.0" encoding="UTF-8" standalone="no"?>
<!DOCTYPE svg PUBLIC "-//W3C//DTD SVG 1.1//EN"
 "http://www.w3.org/Graphics/SVG/1.1/DTD/svg11.dtd">
<!-- Generated by graphviz version 2.47.0 (20210316.0004)
 -->
<!-- Title: G Pages: 1 -->
<svg width="717pt" height="749pt"
 viewBox="0.00 0.00 716.57 748.67" xmlns="http://www.w3.org/2000/svg" xmlns:xlink="http://www.w3.org/1999/xlink">
<g id="graph0" class="graph" transform="scale(1 1) rotate(0) translate(4 744.67)">
<title>G</title>
<polygon fill="white" stroke="transparent" points="-4,4 -4,-744.67 712.57,-744.67 712.57,4 -4,4"/>
<!-- BB0 -->
<g id="node1" class="node">
<title>BB0</title>
<ellipse fill="none" stroke="black" cx="120.21" cy="-703.2" rx="105.22" ry="37.45"/>
<text text-anchor="middle" x="120.21" y="-714.5" font-family="Times New Roman,serif" font-size="14.00">[0..2c)</text>
<text text-anchor="middle" x="120.21" y="-699.5" font-family="Times New Roman,serif" font-size="14.00">Normalized Count: 1.00</text>
<text text-anchor="middle" x="120.21" y="-684.5" font-family="Times New Roman,serif" font-size="14.00">Samples weight: 0.00</text>
</g>
<!-- BB2 -->
<g id="node3" class="node">
<title>BB2</title>
<ellipse fill="none" stroke="black" cx="120.21" cy="-592.24" rx="120.42" ry="37.45"/>
<text text-anchor="middle" x="120.21" y="-603.54" font-family="Times New Roman,serif" font-size="14.00">[37..3c)</text>
<text text-anchor="middle" x="120.21" y="-588.54" font-family="Times New Roman,serif" font-size="14.00">Normalized Count: 3337.00</text>
<text text-anchor="middle" x="120.21" y="-573.54" font-family="Times New Roman,serif" font-size="14.00">Samples weight: 0.00</text>
</g>
<!-- BB0&#45;&gt;BB2 -->
<g id="edge1" class="edge">
<title>BB0&#45;&gt;BB2</title>
<path fill="none" stroke="black" d="M120.21,-665.61C120.21,-657.44 120.21,-648.66 120.21,-640.13"/>
<polygon fill="black" stroke="black" points="123.71,-639.92 120.21,-629.92 116.71,-639.92 123.71,-639.92"/>
</g>
<!-- BB1 -->
<g id="node2" class="node">
<title>BB1</title>
<ellipse fill="none" stroke="black" cx="120.21" cy="-481.29" rx="120.42" ry="37.45"/>
<text text-anchor="middle" x="120.21" y="-492.59" font-family="Times New Roman,serif" font-size="14.00">[2c..37)</text>
<text text-anchor="middle" x="120.21" y="-477.59" font-family="Times New Roman,serif" font-size="14.00">Normalized Count: 3336.00</text>
<text text-anchor="middle" x="120.21" y="-462.59" font-family="Times New Roman,serif" font-size="14.00">Samples weight: 0.00</text>
</g>
<!-- BB1&#45;&gt;BB2 -->
<g id="edge2" class="edge">
<title>BB1&#45;&gt;BB2</title>
<path fill="none" stroke="black" d="M126.63,-518.96C126.94,-527.14 127.03,-535.92 126.9,-544.45"/>
<polygon fill="black" stroke="black" points="123.39,-544.57 126.62,-554.66 130.39,-544.76 123.39,-544.57"/>
</g>
<!-- BB2&#45;&gt;BB1 -->
<g id="edge3" class="edge">
<title>BB2&#45;&gt;BB1</title>
<path fill="none" stroke="black" d="M113.79,-554.66C113.48,-546.49 113.38,-537.71 113.52,-529.18"/>
<polygon fill="black" stroke="black" points="117.02,-529.05 113.79,-518.96 110.02,-528.86 117.02,-529.05"/>
</g>
<!-- BB3 -->
<g id="node4" class="node">
<title>BB3</title>
<ellipse fill="none" stroke="black" cx="364.21" cy="-481.29" rx="105.22" ry="37.45"/>
<text text-anchor="middle" x="364.21" y="-492.59" font-family="Times New Roman,serif" font-size="14.00">[3c..45)</text>
<text text-anchor="middle" x="364.21" y="-477.59" font-family="Times New Roman,serif" font-size="14.00">Normalized Count: 1.00</text>
<text text-anchor="middle" x="364.21" y="-462.59" font-family="Times New Roman,serif" font-size="14.00">Samples weight: 0.00</text>
</g>
<!-- BB2&#45;&gt;BB3 -->
<g id="edge4" class="edge">
<title>BB2&#45;&gt;BB3</title>
<path fill="none" stroke="black" d="M187.53,-561.18C219.37,-546.97 257.47,-529.95 290.13,-515.37"/>
<polygon fill="black" stroke="black" points="291.93,-518.4 299.63,-511.13 289.07,-512.01 291.93,-518.4"/>
</g>
<!-- BB8 -->
<g id="node9" class="node">
<title>BB8</title>
<ellipse fill="none" stroke="black" cx="364.21" cy="-370.34" rx="115.02" ry="37.45"/>
<text text-anchor="middle" x="364.21" y="-381.64" font-family="Times New Roman,serif" font-size="14.00">[c0..c5)</text>
<text text-anchor="middle" x="364.21" y="-366.64" font-family="Times New Roman,serif" font-size="14.00">Normalized Count: 252.00</text>
<text text-anchor="middle" x="364.21" y="-351.64" font-family="Times New Roman,serif" font-size="14.00">Samples weight: 0.00</text>
</g>
<!-- BB3&#45;&gt;BB8 -->
<g id="edge5" class="edge">
<title>BB3&#45;&gt;BB8</title>
<path fill="none" stroke="black" d="M364.21,-443.71C364.21,-435.53 364.21,-426.75 364.21,-418.23"/>
<polygon fill="black" stroke="black" points="367.71,-418.01 364.21,-408.01 360.71,-418.01 367.71,-418.01"/>
</g>
<!-- BB4 -->
<g id="node5" class="node">
<title>BB4</title>
<ellipse fill="none" stroke="black" cx="364.21" cy="-259.38" rx="115.02" ry="37.45"/>
<text text-anchor="middle" x="364.21" y="-270.68" font-family="Times New Roman,serif" font-size="14.00">[45..4d)</text>
<text text-anchor="middle" x="364.21" y="-255.68" font-family="Times New Roman,serif" font-size="14.00">Normalized Count: 251.00</text>
<text text-anchor="middle" x="364.21" y="-240.68" font-family="Times New Roman,serif" font-size="14.00">Samples weight: 0.00</text>
</g>
<!-- BB6 -->
<g id="node7" class="node">
<title>BB6</title>
<ellipse fill="none" stroke="black" cx="397.21" cy="-148.43" rx="129.3" ry="37.45"/>
<text text-anchor="middle" x="397.21" y="-159.73" font-family="Times New Roman,serif" font-size="14.00">[89..90)</text>
<text text-anchor="middle" x="397.21" y="-144.73" font-family="Times New Roman,serif" font-size="14.00">Normalized Count: 837336.00</text>
<text text-anchor="middle" x="397.21" y="-129.73" font-family="Times New Roman,serif" font-size="14.00">Samples weight: 0.50</text>
</g>
<!-- BB4&#45;&gt;BB6 -->
<g id="edge6" class="edge">
<title>BB4&#45;&gt;BB6</title>
<path fill="none" stroke="black" d="M375.29,-221.8C377.82,-213.45 380.54,-204.46 383.18,-195.76"/>
<polygon fill="black" stroke="black" points="386.55,-196.69 386.1,-186.1 379.85,-194.66 386.55,-196.69"/>
</g>
<!-- BB5 -->
<g id="node6" class="node">
<title>BB5</title>
<ellipse fill="none" stroke="black" cx="424.21" cy="-37.48" rx="129.3" ry="37.45"/>
<text text-anchor="middle" x="424.21" y="-48.78" font-family="Times New Roman,serif" font-size="14.00">[4d..89)</text>
<text text-anchor="middle" x="424.21" y="-33.78" font-family="Times New Roman,serif" font-size="14.00">Normalized Count: 837085.00</text>
<text text-anchor="middle" x="424.21" y="-18.78" font-family="Times New Roman,serif" font-size="14.00">Samples weight: 0.50</text>
</g>
<!-- BB5&#45;&gt;BB6 -->
<g id="edge7" class="edge">
<title>BB5&#45;&gt;BB6</title>
<path fill="none" stroke="black" d="M421.58,-74.97C419.81,-83.44 417.64,-92.56 415.3,-101.37"/>
<polygon fill="black" stroke="black" points="411.89,-100.58 412.6,-111.15 418.64,-102.44 411.89,-100.58"/>
</g>
<!-- BB6&#45;&gt;BB5 -->
<g id="edge8" class="edge">
<title>BB6&#45;&gt;BB5</title>
<path fill="none" stroke="black" d="M399.86,-110.85C401.62,-102.4 403.79,-93.31 406.12,-84.52"/>
<polygon fill="black" stroke="black" points="409.52,-85.35 408.81,-74.78 402.77,-83.49 409.52,-85.35"/>
</g>
<!-- BB7 -->
<g id="node8" class="node">
<title>BB7</title>
<ellipse fill="none" stroke="black" cx="161.21" cy="-37.48" rx="115.02" ry="37.45"/>
<text text-anchor="middle" x="161.21" y="-48.78" font-family="Times New Roman,serif" font-size="14.00">[90..c0)</text>
<text text-anchor="middle" x="161.21" y="-33.78" font-family="Times New Roman,serif" font-size="14.00">Normalized Count: 251.00</text>
<text text-anchor="middle" x="161.21" y="-18.78" font-family="Times New Roman,serif" font-size="14.00">Samples weight: 0.00</text>
</g>
<!-- BB6&#45;&gt;BB7 -->
<g id="edge9" class="edge">
<title>BB6&#45;&gt;BB7</title>
<path fill="none" stroke="black" d="M329.9,-116.35C300.39,-102.73 265.66,-86.7 235.4,-72.73"/>
<polygon fill="black" stroke="black" points="236.72,-69.48 226.17,-68.47 233.78,-75.84 236.72,-69.48"/>
</g>
<!-- BB7&#45;&gt;BB8 -->
<g id="edge10" class="edge">
<title>BB7&#45;&gt;BB8</title>
<path fill="none" stroke="black" d="M164.06,-75.32C169.95,-129.24 187.68,-230.46 240.21,-296.86 252.33,-312.18 268.64,-324.91 285.45,-335.2"/>
<polygon fill="black" stroke="black" points="283.87,-338.33 294.27,-340.36 287.4,-332.29 283.87,-338.33"/>
</g>
<!-- BB8&#45;&gt;BB4 -->
<g id="edge11" class="edge">
<title>BB8&#45;&gt;BB4</title>
<path fill="none" stroke="black" d="M364.21,-332.75C364.21,-324.58 364.21,-315.8 364.21,-307.27"/>
<polygon fill="black" stroke="black" points="367.71,-307.06 364.21,-297.06 360.71,-307.06 367.71,-307.06"/>
</g>
<!-- BB9 -->
<g id="node10" class="node">
<title>BB9</title>
<ellipse fill="none" stroke="black" cx="603.21" cy="-259.38" rx="105.22" ry="37.45"/>
<text text-anchor="middle" x="603.21" y="-270.68" font-family="Times New Roman,serif" font-size="14.00">[c5..c8)</text>
<text text-anchor="middle" x="603.21" y="-255.68" font-family="Times New Roman,serif" font-size="14.00">Normalized Count: 1.00</text>
<text text-anchor="middle" x="603.21" y="-240.68" font-family="Times New Roman,serif" font-size="14.00">Samples weight: 0.00</text>
</g>
<!-- BB8&#45;&gt;BB9 -->
<g id="edge12" class="edge">
<title>BB8&#45;&gt;BB9</title>
<path fill="none" stroke="black" d="M429.83,-339.42C460.9,-325.26 498.11,-308.3 530.08,-293.72"/>
<polygon fill="black" stroke="black" points="531.73,-296.81 539.38,-289.48 528.83,-290.44 531.73,-296.81"/>
</g>
</g>
</svg>
