<?xml version="1.0" encoding="UTF-8" standalone="no"?>
<!DOCTYPE svg PUBLIC "-//W3C//DTD SVG 1.1//EN"
 "http://www.w3.org/Graphics/SVG/1.1/DTD/svg11.dtd">
<!-- Generated by graphviz version 2.47.0 (20210316.0004)
 -->
<!-- Title: G Pages: 1 -->
<svg width="643pt" height="959pt"
 viewBox="0.00 0.00 643.05 959.14" xmlns="http://www.w3.org/2000/svg" xmlns:xlink="http://www.w3.org/1999/xlink">
<g id="graph0" class="graph" transform="scale(1 1) rotate(0) translate(4 955.14)">
<title>G</title>
<polygon fill="white" stroke="transparent" points="-4,4 -4,-955.14 639.05,-955.14 639.05,4 -4,4"/>
<!-- BB0 -->
<g id="node1" class="node">
<title>BB0</title>
<ellipse fill="none" stroke="black" cx="385.72" cy="-924.27" rx="37.45" ry="26.74"/>
<text text-anchor="middle" x="385.72" y="-928.07" font-family="Times New Roman,serif" font-size="14.00">[0..27)</text>
<text text-anchor="middle" x="385.72" y="-913.07" font-family="Times New Roman,serif" font-size="14.00">0.00</text>
</g>
<!-- BB2 -->
<g id="node3" class="node">
<title>BB2</title>
<ellipse fill="none" stroke="black" cx="385.72" cy="-834.53" rx="41.02" ry="26.74"/>
<text text-anchor="middle" x="385.72" y="-838.33" font-family="Times New Roman,serif" font-size="14.00">[3f..44)</text>
<text text-anchor="middle" x="385.72" y="-823.33" font-family="Times New Roman,serif" font-size="14.00">0.00</text>
</g>
<!-- BB0&#45;&gt;BB2 -->
<g id="edge1" class="edge">
<title>BB0&#45;&gt;BB2</title>
<path fill="none" stroke="black" d="M385.72,-896.95C385.72,-888.98 385.72,-880.09 385.72,-871.6"/>
<polygon fill="black" stroke="black" points="389.22,-871.54 385.72,-861.54 382.22,-871.54 389.22,-871.54"/>
</g>
<!-- BB1 -->
<g id="node2" class="node">
<title>BB1</title>
<ellipse fill="none" stroke="black" cx="385.72" cy="-744.79" rx="41.02" ry="26.74"/>
<text text-anchor="middle" x="385.72" y="-748.59" font-family="Times New Roman,serif" font-size="14.00">[27..3f)</text>
<text text-anchor="middle" x="385.72" y="-733.59" font-family="Times New Roman,serif" font-size="14.00">0.00</text>
</g>
<!-- BB1&#45;&gt;BB2 -->
<g id="edge2" class="edge">
<title>BB1&#45;&gt;BB2</title>
<path fill="none" stroke="black" d="M391.92,-771.46C392.44,-779.65 392.59,-788.88 392.37,-797.66"/>
<polygon fill="black" stroke="black" points="388.87,-797.54 391.94,-807.68 395.86,-797.84 388.87,-797.54"/>
</g>
<!-- BB2&#45;&gt;BB1 -->
<g id="edge3" class="edge">
<title>BB2&#45;&gt;BB1</title>
<path fill="none" stroke="black" d="M379.5,-807.68C378.99,-799.47 378.85,-790.24 379.08,-781.46"/>
<polygon fill="black" stroke="black" points="382.57,-781.6 379.51,-771.46 375.58,-781.29 382.57,-781.6"/>
</g>
<!-- BB3 -->
<g id="node4" class="node">
<title>BB3</title>
<ellipse fill="none" stroke="black" cx="486.72" cy="-744.79" rx="42.35" ry="26.74"/>
<text text-anchor="middle" x="486.72" y="-748.59" font-family="Times New Roman,serif" font-size="14.00">[44..50)</text>
<text text-anchor="middle" x="486.72" y="-733.59" font-family="Times New Roman,serif" font-size="14.00">0.01</text>
</g>
<!-- BB2&#45;&gt;BB3 -->
<g id="edge4" class="edge">
<title>BB2&#45;&gt;BB3</title>
<path fill="none" stroke="black" d="M409.91,-812.52C423.3,-800.88 440.12,-786.27 454.61,-773.69"/>
<polygon fill="black" stroke="black" points="457.12,-776.14 462.37,-766.94 452.53,-770.86 457.12,-776.14"/>
</g>
<!-- BB4 -->
<g id="node5" class="node">
<title>BB4</title>
<ellipse fill="none" stroke="black" cx="234.72" cy="-655.05" rx="42.35" ry="26.74"/>
<text text-anchor="middle" x="234.72" y="-658.85" font-family="Times New Roman,serif" font-size="14.00">[50..55)</text>
<text text-anchor="middle" x="234.72" y="-643.85" font-family="Times New Roman,serif" font-size="14.00">0.00</text>
</g>
<!-- BB3&#45;&gt;BB4 -->
<g id="edge6" class="edge">
<title>BB3&#45;&gt;BB4</title>
<path fill="none" stroke="black" d="M455,-726.65C448.7,-723.55 442.07,-720.49 435.72,-717.92 407.87,-706.67 332.79,-684.32 282.7,-669.79"/>
<polygon fill="black" stroke="black" points="283.61,-666.41 273.03,-667 281.67,-673.14 283.61,-666.41"/>
</g>
<!-- BB15 -->
<g id="node16" class="node">
<title>BB15</title>
<ellipse fill="none" stroke="black" cx="377.72" cy="-655.05" rx="43.68" ry="26.74"/>
<text text-anchor="middle" x="377.72" y="-658.85" font-family="Times New Roman,serif" font-size="14.00">[d0..d4)</text>
<text text-anchor="middle" x="377.72" y="-643.85" font-family="Times New Roman,serif" font-size="14.00">0.00</text>
</g>
<!-- BB3&#45;&gt;BB15 -->
<g id="edge5" class="edge">
<title>BB3&#45;&gt;BB15</title>
<path fill="none" stroke="black" d="M461.16,-723.22C446.37,-711.32 427.58,-696.19 411.57,-683.3"/>
<polygon fill="black" stroke="black" points="413.48,-680.34 403.49,-676.8 409.09,-685.79 413.48,-680.34"/>
</g>
<!-- BB6 -->
<g id="node7" class="node">
<title>BB6</title>
<ellipse fill="none" stroke="black" cx="194.72" cy="-565.31" rx="42.35" ry="26.74"/>
<text text-anchor="middle" x="194.72" y="-569.11" font-family="Times New Roman,serif" font-size="14.00">[63..68)</text>
<text text-anchor="middle" x="194.72" y="-554.11" font-family="Times New Roman,serif" font-size="14.00">0.02</text>
</g>
<!-- BB4&#45;&gt;BB6 -->
<g id="edge7" class="edge">
<title>BB4&#45;&gt;BB6</title>
<path fill="none" stroke="black" d="M223.36,-629.14C219.31,-620.25 214.67,-610.07 210.32,-600.53"/>
<polygon fill="black" stroke="black" points="213.44,-598.93 206.1,-591.28 207.07,-601.83 213.44,-598.93"/>
</g>
<!-- BB5 -->
<g id="node6" class="node">
<title>BB5</title>
<ellipse fill="none" stroke="black" cx="194.72" cy="-475.57" rx="42.35" ry="26.74"/>
<text text-anchor="middle" x="194.72" y="-479.37" font-family="Times New Roman,serif" font-size="14.00">[55..63)</text>
<text text-anchor="middle" x="194.72" y="-464.37" font-family="Times New Roman,serif" font-size="14.00">0.17</text>
</g>
<!-- BB5&#45;&gt;BB6 -->
<g id="edge8" class="edge">
<title>BB5&#45;&gt;BB6</title>
<path fill="none" stroke="black" d="M200.92,-502.24C201.44,-510.43 201.59,-519.66 201.37,-528.44"/>
<polygon fill="black" stroke="black" points="197.87,-528.32 200.94,-538.46 204.86,-528.62 197.87,-528.32"/>
</g>
<!-- BB6&#45;&gt;BB5 -->
<g id="edge9" class="edge">
<title>BB6&#45;&gt;BB5</title>
<path fill="none" stroke="black" d="M188.5,-538.46C187.99,-530.25 187.85,-521.02 188.08,-512.24"/>
<polygon fill="black" stroke="black" points="191.57,-512.38 188.51,-502.24 184.58,-512.07 191.57,-512.38"/>
</g>
<!-- BB7 -->
<g id="node8" class="node">
<title>BB7</title>
<ellipse fill="none" stroke="black" cx="90.72" cy="-475.57" rx="43.27" ry="26.74"/>
<text text-anchor="middle" x="90.72" y="-479.37" font-family="Times New Roman,serif" font-size="14.00">[68..6b)</text>
<text text-anchor="middle" x="90.72" y="-464.37" font-family="Times New Roman,serif" font-size="14.00">0.00</text>
</g>
<!-- BB6&#45;&gt;BB7 -->
<g id="edge10" class="edge">
<title>BB6&#45;&gt;BB7</title>
<path fill="none" stroke="black" d="M169.81,-543.29C156.02,-531.66 138.7,-517.05 123.79,-504.47"/>
<polygon fill="black" stroke="black" points="125.69,-501.49 115.79,-497.72 121.17,-506.84 125.69,-501.49"/>
</g>
<!-- BB8 -->
<g id="node9" class="node">
<title>BB8</title>
<ellipse fill="none" stroke="black" cx="109.72" cy="-385.83" rx="43.27" ry="26.74"/>
<text text-anchor="middle" x="109.72" y="-389.63" font-family="Times New Roman,serif" font-size="14.00">[6b..75)</text>
<text text-anchor="middle" x="109.72" y="-374.63" font-family="Times New Roman,serif" font-size="14.00">0.19</text>
</g>
<!-- BB7&#45;&gt;BB8 -->
<g id="edge11" class="edge">
<title>BB7&#45;&gt;BB8</title>
<path fill="none" stroke="black" d="M96.32,-448.72C98.1,-440.51 100.09,-431.28 101.99,-422.5"/>
<polygon fill="black" stroke="black" points="105.47,-423.01 104.16,-412.5 98.62,-421.53 105.47,-423.01"/>
</g>
<!-- BB9 -->
<g id="node10" class="node">
<title>BB9</title>
<ellipse fill="none" stroke="black" cx="232.72" cy="-296.09" rx="42.35" ry="26.74"/>
<text text-anchor="middle" x="232.72" y="-299.89" font-family="Times New Roman,serif" font-size="14.00">[75..84)</text>
<text text-anchor="middle" x="232.72" y="-284.89" font-family="Times New Roman,serif" font-size="14.00">0.02</text>
</g>
<!-- BB8&#45;&gt;BB9 -->
<g id="edge13" class="edge">
<title>BB8&#45;&gt;BB9</title>
<path fill="none" stroke="black" d="M137.32,-365.14C154.97,-352.55 178.03,-336.1 197.06,-322.53"/>
<polygon fill="black" stroke="black" points="199.1,-325.37 205.21,-316.72 195.03,-319.67 199.1,-325.37"/>
</g>
<!-- BB11 -->
<g id="node12" class="node">
<title>BB11</title>
<ellipse fill="none" stroke="black" cx="74.72" cy="-296.09" rx="41.94" ry="26.74"/>
<text text-anchor="middle" x="74.72" y="-299.89" font-family="Times New Roman,serif" font-size="14.00">[8a..95)</text>
<text text-anchor="middle" x="74.72" y="-284.89" font-family="Times New Roman,serif" font-size="14.00">0.05</text>
</g>
<!-- BB8&#45;&gt;BB11 -->
<g id="edge12" class="edge">
<title>BB8&#45;&gt;BB11</title>
<path fill="none" stroke="black" d="M99.6,-359.45C96.15,-350.81 92.24,-341 88.55,-331.76"/>
<polygon fill="black" stroke="black" points="91.78,-330.4 84.82,-322.41 85.27,-333 91.78,-330.4"/>
</g>
<!-- BB10 -->
<g id="node11" class="node">
<title>BB10</title>
<ellipse fill="none" stroke="black" cx="259.72" cy="-206.35" rx="41.94" ry="26.74"/>
<text text-anchor="middle" x="259.72" y="-210.15" font-family="Times New Roman,serif" font-size="14.00">[84..8a)</text>
<text text-anchor="middle" x="259.72" y="-195.15" font-family="Times New Roman,serif" font-size="14.00">0.02</text>
</g>
<!-- BB9&#45;&gt;BB10 -->
<g id="edge15" class="edge">
<title>BB9&#45;&gt;BB10</title>
<path fill="none" stroke="black" d="M240.67,-269.24C243.23,-260.94 246.1,-251.6 248.83,-242.74"/>
<polygon fill="black" stroke="black" points="252.23,-243.6 251.82,-233.02 245.53,-241.54 252.23,-243.6"/>
</g>
<!-- BB9&#45;&gt;BB15 -->
<g id="edge14" class="edge">
<title>BB9&#45;&gt;BB15</title>
<path fill="none" stroke="black" d="M235.13,-323.15C241.4,-386.67 259.77,-547.56 288.72,-592.18 299.78,-609.23 317.35,-622.91 333.96,-633.02"/>
<polygon fill="black" stroke="black" points="332.64,-636.3 343.05,-638.27 336.14,-630.24 332.64,-636.3"/>
</g>
<!-- BB10&#45;&gt;BB15 -->
<g id="edge16" class="edge">
<title>BB10&#45;&gt;BB15</title>
<path fill="none" stroke="black" d="M270.85,-232.54C275.39,-243.61 280.35,-256.88 283.72,-269.22 297.43,-319.45 302.72,-332.76 302.72,-384.83 302.72,-476.57 302.72,-476.57 302.72,-476.57 302.72,-528.64 299.1,-545.28 321.72,-592.18 327.53,-604.23 336.43,-615.63 345.44,-625.29"/>
<polygon fill="black" stroke="black" points="343.13,-627.94 352.63,-632.64 348.14,-623.05 343.13,-627.94"/>
</g>
<!-- BB12 -->
<g id="node13" class="node">
<title>BB12</title>
<ellipse fill="none" stroke="black" cx="41.72" cy="-206.35" rx="41.94" ry="26.74"/>
<text text-anchor="middle" x="41.72" y="-210.15" font-family="Times New Roman,serif" font-size="14.00">[95..9e)</text>
<text text-anchor="middle" x="41.72" y="-195.15" font-family="Times New Roman,serif" font-size="14.00">0.01</text>
</g>
<!-- BB11&#45;&gt;BB12 -->
<g id="edge18" class="edge">
<title>BB11&#45;&gt;BB12</title>
<path fill="none" stroke="black" d="M65.17,-269.71C61.96,-261.16 58.31,-251.47 54.87,-242.31"/>
<polygon fill="black" stroke="black" points="58.04,-240.8 51.24,-232.67 51.49,-243.26 58.04,-240.8"/>
</g>
<!-- BB14 -->
<g id="node15" class="node">
<title>BB14</title>
<ellipse fill="none" stroke="black" cx="144.72" cy="-206.35" rx="43.27" ry="26.74"/>
<text text-anchor="middle" x="144.72" y="-210.15" font-family="Times New Roman,serif" font-size="14.00">[c4..d0)</text>
<text text-anchor="middle" x="144.72" y="-195.15" font-family="Times New Roman,serif" font-size="14.00">0.06</text>
</g>
<!-- BB11&#45;&gt;BB14 -->
<g id="edge17" class="edge">
<title>BB11&#45;&gt;BB14</title>
<path fill="none" stroke="black" d="M93.48,-271.58C101.55,-261.47 111.09,-249.5 119.75,-238.65"/>
<polygon fill="black" stroke="black" points="122.65,-240.62 126.15,-230.62 117.18,-236.26 122.65,-240.62"/>
</g>
<!-- BB13 -->
<g id="node14" class="node">
<title>BB13</title>
<ellipse fill="none" stroke="black" cx="93.72" cy="-116.61" rx="41.94" ry="26.74"/>
<text text-anchor="middle" x="93.72" y="-120.41" font-family="Times New Roman,serif" font-size="14.00">[9e..c4)</text>
<text text-anchor="middle" x="93.72" y="-105.41" font-family="Times New Roman,serif" font-size="14.00">0.33</text>
</g>
<!-- BB12&#45;&gt;BB13 -->
<g id="edge19" class="edge">
<title>BB12&#45;&gt;BB13</title>
<path fill="none" stroke="black" d="M56.2,-180.91C61.73,-171.59 68.12,-160.81 74.04,-150.81"/>
<polygon fill="black" stroke="black" points="77.22,-152.31 79.31,-141.92 71.2,-148.74 77.22,-152.31"/>
</g>
<!-- BB13&#45;&gt;BB13 -->
<g id="edge20" class="edge">
<title>BB13&#45;&gt;BB13</title>
<path fill="none" stroke="black" d="M127.18,-132.94C141.36,-134.17 153.44,-128.73 153.44,-116.61 153.44,-107.52 146.64,-102.19 137.27,-100.61"/>
<polygon fill="black" stroke="black" points="137.29,-97.11 127.18,-100.28 137.06,-104.1 137.29,-97.11"/>
</g>
<!-- BB13&#45;&gt;BB14 -->
<g id="edge21" class="edge">
<title>BB13&#45;&gt;BB14</title>
<path fill="none" stroke="black" d="M107.85,-141.92C113.26,-151.22 119.52,-162 125.34,-172.01"/>
<polygon fill="black" stroke="black" points="122.46,-174.02 130.51,-180.91 128.51,-170.51 122.46,-174.02"/>
</g>
<!-- BB14&#45;&gt;BB8 -->
<g id="edge22" class="edge">
<title>BB14&#45;&gt;BB8</title>
<path fill="none" stroke="black" d="M141.15,-233.19C137.75,-256.7 132.19,-292.31 125.72,-322.96 123.91,-331.54 121.69,-340.73 119.49,-349.32"/>
<polygon fill="black" stroke="black" points="116.08,-348.5 116.94,-359.06 122.86,-350.28 116.08,-348.5"/>
</g>
<!-- BB16 -->
<g id="node17" class="node">
<title>BB16</title>
<ellipse fill="none" stroke="black" cx="486.72" cy="-565.31" rx="43.27" ry="26.74"/>
<text text-anchor="middle" x="486.72" y="-569.11" font-family="Times New Roman,serif" font-size="14.00">[d4..eb)</text>
<text text-anchor="middle" x="486.72" y="-554.11" font-family="Times New Roman,serif" font-size="14.00">0.03</text>
</g>
<!-- BB15&#45;&gt;BB16 -->
<g id="edge24" class="edge">
<title>BB15&#45;&gt;BB16</title>
<path fill="none" stroke="black" d="M403.55,-633.26C418.35,-621.35 437.08,-606.26 453.03,-593.43"/>
<polygon fill="black" stroke="black" points="455.48,-595.95 461.07,-586.95 451.09,-590.5 455.48,-595.95"/>
</g>
<!-- BB17 -->
<g id="node18" class="node">
<title>BB17</title>
<ellipse fill="none" stroke="black" cx="377.72" cy="-565.31" rx="47.25" ry="26.74"/>
<text text-anchor="middle" x="377.72" y="-569.11" font-family="Times New Roman,serif" font-size="14.00">[eb..102)</text>
<text text-anchor="middle" x="377.72" y="-554.11" font-family="Times New Roman,serif" font-size="14.00">0.02</text>
</g>
<!-- BB15&#45;&gt;BB17 -->
<g id="edge23" class="edge">
<title>BB15&#45;&gt;BB17</title>
<path fill="none" stroke="black" d="M377.72,-627.73C377.72,-619.76 377.72,-610.87 377.72,-602.38"/>
<polygon fill="black" stroke="black" points="381.22,-602.31 377.72,-592.31 374.22,-602.31 381.22,-602.31"/>
</g>
<!-- BB16&#45;&gt;BB3 -->
<g id="edge25" class="edge">
<title>BB16&#45;&gt;BB3</title>
<path fill="none" stroke="black" d="M486.72,-592.32C486.72,-622.73 486.72,-673.28 486.72,-707.54"/>
<polygon fill="black" stroke="black" points="483.22,-707.6 486.72,-717.6 490.22,-707.6 483.22,-707.6"/>
</g>
<!-- BB26 -->
<g id="node27" class="node">
<title>BB26</title>
<ellipse fill="none" stroke="black" cx="401.72" cy="-475.57" rx="52.15" ry="26.74"/>
<text text-anchor="middle" x="401.72" y="-479.37" font-family="Times New Roman,serif" font-size="14.00">[164..169)</text>
<text text-anchor="middle" x="401.72" y="-464.37" font-family="Times New Roman,serif" font-size="14.00">0.00</text>
</g>
<!-- BB17&#45;&gt;BB26 -->
<g id="edge26" class="edge">
<title>BB17&#45;&gt;BB26</title>
<path fill="none" stroke="black" d="M384.79,-538.46C387.06,-530.16 389.62,-520.82 392.04,-511.96"/>
<polygon fill="black" stroke="black" points="395.44,-512.81 394.7,-502.24 388.68,-510.96 395.44,-512.81"/>
</g>
<!-- BB18 -->
<g id="node19" class="node">
<title>BB18</title>
<ellipse fill="none" stroke="black" cx="420.72" cy="-385.83" rx="52.15" ry="26.74"/>
<text text-anchor="middle" x="420.72" y="-389.63" font-family="Times New Roman,serif" font-size="14.00">[102..10c)</text>
<text text-anchor="middle" x="420.72" y="-374.63" font-family="Times New Roman,serif" font-size="14.00">0.02</text>
</g>
<!-- BB19 -->
<g id="node20" class="node">
<title>BB19</title>
<ellipse fill="none" stroke="black" cx="582.72" cy="-296.09" rx="52.15" ry="26.74"/>
<text text-anchor="middle" x="582.72" y="-299.89" font-family="Times New Roman,serif" font-size="14.00">[10c..119)</text>
<text text-anchor="middle" x="582.72" y="-284.89" font-family="Times New Roman,serif" font-size="14.00">0.01</text>
</g>
<!-- BB18&#45;&gt;BB19 -->
<g id="edge28" class="edge">
<title>BB18&#45;&gt;BB19</title>
<path fill="none" stroke="black" d="M455.87,-365.79C480.18,-352.63 512.7,-335.01 538.73,-320.92"/>
<polygon fill="black" stroke="black" points="540.51,-323.93 547.64,-316.09 537.18,-317.78 540.51,-323.93"/>
</g>
<!-- BB20 -->
<g id="node21" class="node">
<title>BB20</title>
<ellipse fill="none" stroke="black" cx="420.72" cy="-296.09" rx="50.41" ry="26.74"/>
<text text-anchor="middle" x="420.72" y="-299.89" font-family="Times New Roman,serif" font-size="14.00">[119..11f)</text>
<text text-anchor="middle" x="420.72" y="-284.89" font-family="Times New Roman,serif" font-size="14.00">0.01</text>
</g>
<!-- BB18&#45;&gt;BB20 -->
<g id="edge27" class="edge">
<title>BB18&#45;&gt;BB20</title>
<path fill="none" stroke="black" d="M420.72,-358.51C420.72,-350.54 420.72,-341.65 420.72,-333.16"/>
<polygon fill="black" stroke="black" points="424.22,-333.09 420.72,-323.09 417.22,-333.09 424.22,-333.09"/>
</g>
<!-- BB19&#45;&gt;BB3 -->
<g id="edge29" class="edge">
<title>BB19&#45;&gt;BB3</title>
<path fill="none" stroke="black" d="M592.2,-322.55C604.03,-356.66 622.72,-419.3 622.72,-474.57 622.72,-566.31 622.72,-566.31 622.72,-566.31 622.72,-631.86 563.54,-688.16 523.26,-718.89"/>
<polygon fill="black" stroke="black" points="521.16,-716.09 515.23,-724.87 525.34,-721.7 521.16,-716.09"/>
</g>
<!-- BB21 -->
<g id="node22" class="node">
<title>BB21</title>
<ellipse fill="none" stroke="black" cx="418.72" cy="-206.35" rx="50.41" ry="26.74"/>
<text text-anchor="middle" x="418.72" y="-210.15" font-family="Times New Roman,serif" font-size="14.00">[11f..130)</text>
<text text-anchor="middle" x="418.72" y="-195.15" font-family="Times New Roman,serif" font-size="14.00">0.00</text>
</g>
<!-- BB20&#45;&gt;BB21 -->
<g id="edge31" class="edge">
<title>BB20&#45;&gt;BB21</title>
<path fill="none" stroke="black" d="M420.12,-268.77C419.94,-260.8 419.73,-251.91 419.54,-243.42"/>
<polygon fill="black" stroke="black" points="423.04,-243.27 419.31,-233.35 416.04,-243.43 423.04,-243.27"/>
</g>
<!-- BB22 -->
<g id="node23" class="node">
<title>BB22</title>
<ellipse fill="none" stroke="black" cx="539.72" cy="-206.35" rx="52.15" ry="26.74"/>
<text text-anchor="middle" x="539.72" y="-210.15" font-family="Times New Roman,serif" font-size="14.00">[130..140)</text>
<text text-anchor="middle" x="539.72" y="-195.15" font-family="Times New Roman,serif" font-size="14.00">0.00</text>
</g>
<!-- BB20&#45;&gt;BB22 -->
<g id="edge30" class="edge">
<title>BB20&#45;&gt;BB22</title>
<path fill="none" stroke="black" d="M449.53,-273.85C465.37,-262.17 485.21,-247.54 502.24,-234.98"/>
<polygon fill="black" stroke="black" points="504.38,-237.76 510.35,-229 500.23,-232.12 504.38,-237.76"/>
</g>
<!-- BB21&#45;&gt;BB22 -->
<g id="edge32" class="edge">
<title>BB21&#45;&gt;BB22</title>
<path fill="none" stroke="black" d="M469.29,-206.35C471.9,-206.35 474.51,-206.35 477.12,-206.35"/>
<polygon fill="black" stroke="black" points="477.18,-209.85 487.18,-206.35 477.18,-202.85 477.18,-209.85"/>
</g>
<!-- BB24 -->
<g id="node25" class="node">
<title>BB24</title>
<ellipse fill="none" stroke="black" cx="520.72" cy="-116.61" rx="52.15" ry="26.74"/>
<text text-anchor="middle" x="520.72" y="-120.41" font-family="Times New Roman,serif" font-size="14.00">[150..156)</text>
<text text-anchor="middle" x="520.72" y="-105.41" font-family="Times New Roman,serif" font-size="14.00">0.00</text>
</g>
<!-- BB22&#45;&gt;BB24 -->
<g id="edge33" class="edge">
<title>BB22&#45;&gt;BB24</title>
<path fill="none" stroke="black" d="M534.12,-179.5C532.36,-171.36 530.38,-162.22 528.49,-153.51"/>
<polygon fill="black" stroke="black" points="531.88,-152.61 526.34,-143.58 525.04,-154.09 531.88,-152.61"/>
</g>
<!-- BB23 -->
<g id="node24" class="node">
<title>BB23</title>
<ellipse fill="none" stroke="black" cx="520.72" cy="-26.87" rx="52.15" ry="26.74"/>
<text text-anchor="middle" x="520.72" y="-30.67" font-family="Times New Roman,serif" font-size="14.00">[140..150)</text>
<text text-anchor="middle" x="520.72" y="-15.67" font-family="Times New Roman,serif" font-size="14.00">0.02</text>
</g>
<!-- BB23&#45;&gt;BB24 -->
<g id="edge34" class="edge">
<title>BB23&#45;&gt;BB24</title>
<path fill="none" stroke="black" d="M526.94,-53.84C527.44,-61.9 527.59,-70.93 527.37,-79.55"/>
<polygon fill="black" stroke="black" points="523.87,-79.62 526.94,-89.76 530.86,-79.92 523.87,-79.62"/>
</g>
<!-- BB24&#45;&gt;BB23 -->
<g id="edge35" class="edge">
<title>BB24&#45;&gt;BB23</title>
<path fill="none" stroke="black" d="M514.5,-89.76C514,-81.71 513.85,-72.68 514.06,-64.06"/>
<polygon fill="black" stroke="black" points="517.57,-63.98 514.5,-53.84 510.57,-63.68 517.57,-63.98"/>
</g>
<!-- BB25 -->
<g id="node26" class="node">
<title>BB25</title>
<ellipse fill="none" stroke="black" cx="378.72" cy="-26.87" rx="52.15" ry="26.74"/>
<text text-anchor="middle" x="378.72" y="-30.67" font-family="Times New Roman,serif" font-size="14.00">[156..164)</text>
<text text-anchor="middle" x="378.72" y="-15.67" font-family="Times New Roman,serif" font-size="14.00">0.00</text>
</g>
<!-- BB24&#45;&gt;BB25 -->
<g id="edge36" class="edge">
<title>BB24&#45;&gt;BB25</title>
<path fill="none" stroke="black" d="M488.14,-95.48C467.99,-83.03 441.93,-66.93 420.3,-53.56"/>
<polygon fill="black" stroke="black" points="421.98,-50.49 411.64,-48.21 418.3,-56.44 421.98,-50.49"/>
</g>
<!-- BB25&#45;&gt;BB26 -->
<g id="edge37" class="edge">
<title>BB25&#45;&gt;BB26</title>
<path fill="none" stroke="black" d="M369.71,-53.37C358.48,-87.52 340.72,-150.21 340.72,-205.35 340.72,-297.09 340.72,-297.09 340.72,-297.09 340.72,-349.16 340.42,-364.34 359.72,-412.7 363.8,-422.93 369.8,-433.18 375.98,-442.31"/>
<polygon fill="black" stroke="black" points="373.28,-444.55 381.92,-450.68 378.99,-440.5 373.28,-444.55"/>
</g>
<!-- BB26&#45;&gt;BB18 -->
<g id="edge38" class="edge">
<title>BB26&#45;&gt;BB18</title>
<path fill="none" stroke="black" d="M407.32,-448.72C409.08,-440.58 411.06,-431.44 412.94,-422.74"/>
<polygon fill="black" stroke="black" points="416.4,-423.31 415.1,-412.8 409.56,-421.83 416.4,-423.31"/>
</g>
<!-- BB27 -->
<g id="node28" class="node">
<title>BB27</title>
<ellipse fill="none" stroke="black" cx="542.72" cy="-385.83" rx="51.74" ry="26.74"/>
<text text-anchor="middle" x="542.72" y="-389.63" font-family="Times New Roman,serif" font-size="14.00">[169..16e)</text>
<text text-anchor="middle" x="542.72" y="-374.63" font-family="Times New Roman,serif" font-size="14.00">0.00</text>
</g>
<!-- BB26&#45;&gt;BB27 -->
<g id="edge39" class="edge">
<title>BB26&#45;&gt;BB27</title>
<path fill="none" stroke="black" d="M434.07,-454.44C454.22,-441.9 480.32,-425.66 501.89,-412.24"/>
<polygon fill="black" stroke="black" points="503.88,-415.12 510.52,-406.87 500.18,-409.18 503.88,-415.12"/>
</g>
<!-- BB27&#45;&gt;BB3 -->
<g id="edge40" class="edge">
<title>BB27&#45;&gt;BB3</title>
<path fill="none" stroke="black" d="M544.76,-412.69C547.29,-451.87 549.98,-528.45 538.72,-592.18 531.38,-633.72 514.5,-679.23 501.95,-709.44"/>
<polygon fill="black" stroke="black" points="498.71,-708.11 498.04,-718.68 505.16,-710.83 498.71,-708.11"/>
</g>
</g>
</svg>
