<?xml version="1.0" encoding="UTF-8" standalone="no"?>
<!DOCTYPE svg PUBLIC "-//W3C//DTD SVG 1.1//EN"
 "http://www.w3.org/Graphics/SVG/1.1/DTD/svg11.dtd">
<!-- Generated by graphviz version 2.47.0 (20210316.0004)
 -->
<!-- Title: G Pages: 1 -->
<svg width="1278pt" height="1426pt"
 viewBox="0.00 0.00 1278.42 1425.83" xmlns="http://www.w3.org/2000/svg" xmlns:xlink="http://www.w3.org/1999/xlink">
<g id="graph0" class="graph" transform="scale(1 1) rotate(0) translate(4 1421.83)">
<title>G</title>
<polygon fill="white" stroke="transparent" points="-4,4 -4,-1421.83 1274.42,-1421.83 1274.42,4 -4,4"/>
<!-- BB0 -->
<g id="node1" class="node">
<title>BB0</title>
<ellipse fill="none" stroke="black" cx="832.19" cy="-1369.75" rx="103.48" ry="48.17"/>
<text text-anchor="middle" x="832.19" y="-1388.55" font-family="Times New Roman,serif" font-size="14.00">[0..27)</text>
<text text-anchor="middle" x="832.19" y="-1373.55" font-family="Times New Roman,serif" font-size="14.00">Count: 2</text>
<text text-anchor="middle" x="832.19" y="-1358.55" font-family="Times New Roman,serif" font-size="14.00">Normalized count: 1.00</text>
<text text-anchor="middle" x="832.19" y="-1343.55" font-family="Times New Roman,serif" font-size="14.00">Samples weight: 0.00</text>
</g>
<!-- BB2 -->
<g id="node3" class="node">
<title>BB2</title>
<ellipse fill="none" stroke="black" cx="832.19" cy="-1237.58" rx="103.48" ry="48.17"/>
<text text-anchor="middle" x="832.19" y="-1256.38" font-family="Times New Roman,serif" font-size="14.00">[3f..44)</text>
<text text-anchor="middle" x="832.19" y="-1241.38" font-family="Times New Roman,serif" font-size="14.00">Count: 2</text>
<text text-anchor="middle" x="832.19" y="-1226.38" font-family="Times New Roman,serif" font-size="14.00">Normalized count: 1.00</text>
<text text-anchor="middle" x="832.19" y="-1211.38" font-family="Times New Roman,serif" font-size="14.00">Samples weight: 0.00</text>
</g>
<!-- BB0&#45;&gt;BB2 -->
<g id="edge1" class="edge">
<title>BB0&#45;&gt;BB2</title>
<path fill="none" stroke="black" d="M832.19,-1321.39C832.19,-1313.12 832.19,-1304.44 832.19,-1295.93"/>
<polygon fill="black" stroke="black" points="835.69,-1295.69 832.19,-1285.69 828.69,-1295.69 835.69,-1295.69"/>
</g>
<!-- BB1 -->
<g id="node2" class="node">
<title>BB1</title>
<ellipse fill="none" stroke="black" cx="832.19" cy="-1105.42" rx="103.48" ry="48.17"/>
<text text-anchor="middle" x="832.19" y="-1124.22" font-family="Times New Roman,serif" font-size="14.00">[27..3f)</text>
<text text-anchor="middle" x="832.19" y="-1109.22" font-family="Times New Roman,serif" font-size="14.00">Count: 0</text>
<text text-anchor="middle" x="832.19" y="-1094.22" font-family="Times New Roman,serif" font-size="14.00">Normalized count: 0.00</text>
<text text-anchor="middle" x="832.19" y="-1079.22" font-family="Times New Roman,serif" font-size="14.00">Samples weight: 0.00</text>
</g>
<!-- BB1&#45;&gt;BB2 -->
<g id="edge2" class="edge">
<title>BB1&#45;&gt;BB2</title>
<path fill="none" stroke="black" d="M838.71,-1153.78C838.93,-1162.07 838.99,-1170.78 838.89,-1179.31"/>
<polygon fill="black" stroke="black" points="835.39,-1179.52 838.7,-1189.59 842.39,-1179.66 835.39,-1179.52"/>
</g>
<!-- BB2&#45;&gt;BB1 -->
<g id="edge3" class="edge">
<title>BB2&#45;&gt;BB1</title>
<path fill="none" stroke="black" d="M825.67,-1189.59C825.45,-1181.21 825.38,-1172.41 825.48,-1163.78"/>
<polygon fill="black" stroke="black" points="828.98,-1163.84 825.66,-1153.78 821.98,-1163.71 828.98,-1163.84"/>
</g>
<!-- BB3 -->
<g id="node4" class="node">
<title>BB3</title>
<ellipse fill="none" stroke="black" cx="1061.19" cy="-1105.42" rx="108.38" ry="48.17"/>
<text text-anchor="middle" x="1061.19" y="-1124.22" font-family="Times New Roman,serif" font-size="14.00">[44..50)</text>
<text text-anchor="middle" x="1061.19" y="-1109.22" font-family="Times New Roman,serif" font-size="14.00">Count: 67</text>
<text text-anchor="middle" x="1061.19" y="-1094.22" font-family="Times New Roman,serif" font-size="14.00">Normalized count: 33.50</text>
<text text-anchor="middle" x="1061.19" y="-1079.22" font-family="Times New Roman,serif" font-size="14.00">Samples weight: 0.04</text>
</g>
<!-- BB2&#45;&gt;BB3 -->
<g id="edge4" class="edge">
<title>BB2&#45;&gt;BB3</title>
<path fill="none" stroke="black" d="M896.59,-1199.98C924.52,-1184.1 957.41,-1165.4 986.42,-1148.92"/>
<polygon fill="black" stroke="black" points="988.32,-1151.86 995.28,-1143.88 984.86,-1145.77 988.32,-1151.86"/>
</g>
<!-- BB4 -->
<g id="node5" class="node">
<title>BB4</title>
<ellipse fill="none" stroke="black" cx="553.19" cy="-973.25" rx="108.38" ry="48.17"/>
<text text-anchor="middle" x="553.19" y="-992.05" font-family="Times New Roman,serif" font-size="14.00">[50..55)</text>
<text text-anchor="middle" x="553.19" y="-977.05" font-family="Times New Roman,serif" font-size="14.00">Count: 38</text>
<text text-anchor="middle" x="553.19" y="-962.05" font-family="Times New Roman,serif" font-size="14.00">Normalized count: 19.00</text>
<text text-anchor="middle" x="553.19" y="-947.05" font-family="Times New Roman,serif" font-size="14.00">Samples weight: 0.02</text>
</g>
<!-- BB3&#45;&gt;BB4 -->
<g id="edge6" class="edge">
<title>BB3&#45;&gt;BB4</title>
<path fill="none" stroke="black" d="M985.27,-1070.94C971.77,-1065.83 957.7,-1061.04 944.19,-1057.33 842.71,-1029.51 812.83,-1044.5 710.19,-1021.33 690.27,-1016.84 669.18,-1011.16 649.15,-1005.32"/>
<polygon fill="black" stroke="black" points="649.99,-1001.92 639.4,-1002.45 648,-1008.63 649.99,-1001.92"/>
</g>
<!-- BB15 -->
<g id="node16" class="node">
<title>BB15</title>
<ellipse fill="none" stroke="black" cx="827.19" cy="-973.25" rx="108.38" ry="48.17"/>
<text text-anchor="middle" x="827.19" y="-992.05" font-family="Times New Roman,serif" font-size="14.00">[d0..d4)</text>
<text text-anchor="middle" x="827.19" y="-977.05" font-family="Times New Roman,serif" font-size="14.00">Count: 67</text>
<text text-anchor="middle" x="827.19" y="-962.05" font-family="Times New Roman,serif" font-size="14.00">Normalized count: 33.50</text>
<text text-anchor="middle" x="827.19" y="-947.05" font-family="Times New Roman,serif" font-size="14.00">Samples weight: 0.04</text>
</g>
<!-- BB3&#45;&gt;BB15 -->
<g id="edge5" class="edge">
<title>BB3&#45;&gt;BB15</title>
<path fill="none" stroke="black" d="M994.76,-1067.46C966.1,-1051.52 932.44,-1032.8 902.83,-1016.33"/>
<polygon fill="black" stroke="black" points="904.22,-1013.1 893.78,-1011.29 900.82,-1019.21 904.22,-1013.1"/>
</g>
<!-- BB6 -->
<g id="node7" class="node">
<title>BB6</title>
<ellipse fill="none" stroke="black" cx="512.19" cy="-841.08" rx="113.27" ry="48.17"/>
<text text-anchor="middle" x="512.19" y="-859.88" font-family="Times New Roman,serif" font-size="14.00">[63..68)</text>
<text text-anchor="middle" x="512.19" y="-844.88" font-family="Times New Roman,serif" font-size="14.00">Count: 221</text>
<text text-anchor="middle" x="512.19" y="-829.88" font-family="Times New Roman,serif" font-size="14.00">Normalized count: 110.50</text>
<text text-anchor="middle" x="512.19" y="-814.88" font-family="Times New Roman,serif" font-size="14.00">Samples weight: 0.12</text>
</g>
<!-- BB4&#45;&gt;BB6 -->
<g id="edge7" class="edge">
<title>BB4&#45;&gt;BB6</title>
<path fill="none" stroke="black" d="M538.39,-925.26C535.66,-916.59 532.78,-907.46 529.98,-898.56"/>
<polygon fill="black" stroke="black" points="533.31,-897.49 526.97,-889.01 526.63,-899.6 533.31,-897.49"/>
</g>
<!-- BB5 -->
<g id="node6" class="node">
<title>BB5</title>
<ellipse fill="none" stroke="black" cx="515.19" cy="-708.92" rx="108.38" ry="48.17"/>
<text text-anchor="middle" x="515.19" y="-727.72" font-family="Times New Roman,serif" font-size="14.00">[55..63)</text>
<text text-anchor="middle" x="515.19" y="-712.72" font-family="Times New Roman,serif" font-size="14.00">Count: 183</text>
<text text-anchor="middle" x="515.19" y="-697.72" font-family="Times New Roman,serif" font-size="14.00">Normalized count: 91.50</text>
<text text-anchor="middle" x="515.19" y="-682.72" font-family="Times New Roman,serif" font-size="14.00">Samples weight: 0.10</text>
</g>
<!-- BB5&#45;&gt;BB6 -->
<g id="edge8" class="edge">
<title>BB5&#45;&gt;BB6</title>
<path fill="none" stroke="black" d="M520.62,-757.28C520.65,-765.66 520.5,-774.48 520.2,-783.1"/>
<polygon fill="black" stroke="black" points="516.71,-782.95 519.78,-793.09 523.7,-783.25 516.71,-782.95"/>
</g>
<!-- BB6&#45;&gt;BB5 -->
<g id="edge9" class="edge">
<title>BB6&#45;&gt;BB5</title>
<path fill="none" stroke="black" d="M506.76,-792.72C506.73,-784.45 506.87,-775.77 507.16,-767.27"/>
<polygon fill="black" stroke="black" points="510.67,-767.16 507.59,-757.02 503.67,-766.87 510.67,-767.16"/>
</g>
<!-- BB7 -->
<g id="node8" class="node">
<title>BB7</title>
<ellipse fill="none" stroke="black" cx="281.19" cy="-708.92" rx="108.38" ry="48.17"/>
<text text-anchor="middle" x="281.19" y="-727.72" font-family="Times New Roman,serif" font-size="14.00">[68..6b)</text>
<text text-anchor="middle" x="281.19" y="-712.72" font-family="Times New Roman,serif" font-size="14.00">Count: 38</text>
<text text-anchor="middle" x="281.19" y="-697.72" font-family="Times New Roman,serif" font-size="14.00">Normalized count: 19.00</text>
<text text-anchor="middle" x="281.19" y="-682.72" font-family="Times New Roman,serif" font-size="14.00">Samples weight: 0.02</text>
</g>
<!-- BB6&#45;&gt;BB7 -->
<g id="edge10" class="edge">
<title>BB6&#45;&gt;BB7</title>
<path fill="none" stroke="black" d="M445.06,-802.26C417.18,-786.54 384.7,-768.24 356.04,-752.1"/>
<polygon fill="black" stroke="black" points="357.71,-749.02 347.28,-747.16 354.28,-755.12 357.71,-749.02"/>
</g>
<!-- BB8 -->
<g id="node9" class="node">
<title>BB8</title>
<ellipse fill="none" stroke="black" cx="329.19" cy="-576.75" rx="113.27" ry="48.17"/>
<text text-anchor="middle" x="329.19" y="-595.55" font-family="Times New Roman,serif" font-size="14.00">[6b..75)</text>
<text text-anchor="middle" x="329.19" y="-580.55" font-family="Times New Roman,serif" font-size="14.00">Count: 211</text>
<text text-anchor="middle" x="329.19" y="-565.55" font-family="Times New Roman,serif" font-size="14.00">Normalized count: 105.50</text>
<text text-anchor="middle" x="329.19" y="-550.55" font-family="Times New Roman,serif" font-size="14.00">Samples weight: 0.11</text>
</g>
<!-- BB7&#45;&gt;BB8 -->
<g id="edge11" class="edge">
<title>BB7&#45;&gt;BB8</title>
<path fill="none" stroke="black" d="M298.38,-661.29C301.66,-652.41 305.11,-643.03 308.48,-633.89"/>
<polygon fill="black" stroke="black" points="311.78,-635.08 311.95,-624.49 305.21,-632.66 311.78,-635.08"/>
</g>
<!-- BB9 -->
<g id="node10" class="node">
<title>BB9</title>
<ellipse fill="none" stroke="black" cx="555.19" cy="-444.58" rx="108.38" ry="48.17"/>
<text text-anchor="middle" x="555.19" y="-463.38" font-family="Times New Roman,serif" font-size="14.00">[75..84)</text>
<text text-anchor="middle" x="555.19" y="-448.38" font-family="Times New Roman,serif" font-size="14.00">Count: 38</text>
<text text-anchor="middle" x="555.19" y="-433.38" font-family="Times New Roman,serif" font-size="14.00">Normalized count: 19.00</text>
<text text-anchor="middle" x="555.19" y="-418.38" font-family="Times New Roman,serif" font-size="14.00">Samples weight: 0.02</text>
</g>
<!-- BB8&#45;&gt;BB9 -->
<g id="edge13" class="edge">
<title>BB8&#45;&gt;BB9</title>
<path fill="none" stroke="black" d="M395.47,-537.57C422.38,-522.07 453.59,-504.1 481.24,-488.18"/>
<polygon fill="black" stroke="black" points="483.16,-491.11 490.08,-483.08 479.67,-485.04 483.16,-491.11"/>
</g>
<!-- BB11 -->
<g id="node12" class="node">
<title>BB11</title>
<ellipse fill="none" stroke="black" cx="206.19" cy="-444.58" rx="108.38" ry="48.17"/>
<text text-anchor="middle" x="206.19" y="-463.38" font-family="Times New Roman,serif" font-size="14.00">[8a..95)</text>
<text text-anchor="middle" x="206.19" y="-448.38" font-family="Times New Roman,serif" font-size="14.00">Count: 173</text>
<text text-anchor="middle" x="206.19" y="-433.38" font-family="Times New Roman,serif" font-size="14.00">Normalized count: 86.50</text>
<text text-anchor="middle" x="206.19" y="-418.38" font-family="Times New Roman,serif" font-size="14.00">Samples weight: 0.09</text>
</g>
<!-- BB8&#45;&gt;BB11 -->
<g id="edge12" class="edge">
<title>BB8&#45;&gt;BB11</title>
<path fill="none" stroke="black" d="M287.55,-531.68C276.91,-520.43 265.39,-508.24 254.46,-496.66"/>
<polygon fill="black" stroke="black" points="256.78,-494.03 247.37,-489.16 251.69,-498.84 256.78,-494.03"/>
</g>
<!-- BB10 -->
<g id="node11" class="node">
<title>BB10</title>
<ellipse fill="none" stroke="black" cx="596.19" cy="-312.42" rx="103.48" ry="48.17"/>
<text text-anchor="middle" x="596.19" y="-331.22" font-family="Times New Roman,serif" font-size="14.00">[84..8a)</text>
<text text-anchor="middle" x="596.19" y="-316.22" font-family="Times New Roman,serif" font-size="14.00">Count: 0</text>
<text text-anchor="middle" x="596.19" y="-301.22" font-family="Times New Roman,serif" font-size="14.00">Normalized count: 0.00</text>
<text text-anchor="middle" x="596.19" y="-286.22" font-family="Times New Roman,serif" font-size="14.00">Samples weight: 0.00</text>
</g>
<!-- BB9&#45;&gt;BB10 -->
<g id="edge15" class="edge">
<title>BB9&#45;&gt;BB10</title>
<path fill="none" stroke="black" d="M569.99,-396.59C572.72,-387.93 575.59,-378.8 578.4,-369.89"/>
<polygon fill="black" stroke="black" points="581.74,-370.93 581.41,-360.34 575.06,-368.83 581.74,-370.93"/>
</g>
<!-- BB9&#45;&gt;BB15 -->
<g id="edge14" class="edge">
<title>BB9&#45;&gt;BB15</title>
<path fill="none" stroke="black" d="M574.05,-491.97C591.06,-535.13 615.83,-601.53 632.19,-660.83 659.68,-760.54 616.27,-805.58 677.19,-889.17 691.9,-909.36 713.1,-925.24 734.93,-937.47"/>
<polygon fill="black" stroke="black" points="733.51,-940.68 743.98,-942.32 736.82,-934.51 733.51,-940.68"/>
</g>
<!-- BB10&#45;&gt;BB15 -->
<g id="edge16" class="edge">
<title>BB10&#45;&gt;BB15</title>
<path fill="none" stroke="black" d="M643.88,-355.26C654.94,-367.44 665.44,-381.53 672.19,-396.5 705.09,-469.54 691.19,-495.64 691.19,-575.75 691.19,-709.92 691.19,-709.92 691.19,-709.92 691.19,-790.03 669.73,-820.02 710.19,-889.17 719.58,-905.22 733.45,-918.98 748.39,-930.41"/>
<polygon fill="black" stroke="black" points="746.63,-933.46 756.77,-936.53 750.75,-927.81 746.63,-933.46"/>
</g>
<!-- BB12 -->
<g id="node13" class="node">
<title>BB12</title>
<ellipse fill="none" stroke="black" cx="108.19" cy="-312.42" rx="108.38" ry="48.17"/>
<text text-anchor="middle" x="108.19" y="-331.22" font-family="Times New Roman,serif" font-size="14.00">[95..9e)</text>
<text text-anchor="middle" x="108.19" y="-316.22" font-family="Times New Roman,serif" font-size="14.00">Count: 22</text>
<text text-anchor="middle" x="108.19" y="-301.22" font-family="Times New Roman,serif" font-size="14.00">Normalized count: 11.00</text>
<text text-anchor="middle" x="108.19" y="-286.22" font-family="Times New Roman,serif" font-size="14.00">Samples weight: 0.01</text>
</g>
<!-- BB11&#45;&gt;BB12 -->
<g id="edge18" class="edge">
<title>BB11&#45;&gt;BB12</title>
<path fill="none" stroke="black" d="M172.46,-398.79C164.61,-388.36 156.17,-377.15 148.08,-366.4"/>
<polygon fill="black" stroke="black" points="150.79,-364.18 141.98,-358.29 145.19,-368.39 150.79,-364.18"/>
</g>
<!-- BB14 -->
<g id="node15" class="node">
<title>BB14</title>
<ellipse fill="none" stroke="black" cx="342.19" cy="-312.42" rx="108.38" ry="48.17"/>
<text text-anchor="middle" x="342.19" y="-331.22" font-family="Times New Roman,serif" font-size="14.00">[c4..d0)</text>
<text text-anchor="middle" x="342.19" y="-316.22" font-family="Times New Roman,serif" font-size="14.00">Count: 173</text>
<text text-anchor="middle" x="342.19" y="-301.22" font-family="Times New Roman,serif" font-size="14.00">Normalized count: 86.50</text>
<text text-anchor="middle" x="342.19" y="-286.22" font-family="Times New Roman,serif" font-size="14.00">Samples weight: 0.09</text>
</g>
<!-- BB11&#45;&gt;BB14 -->
<g id="edge17" class="edge">
<title>BB11&#45;&gt;BB14</title>
<path fill="none" stroke="black" d="M251.1,-400.6C263.51,-388.72 277.1,-375.71 289.9,-363.46"/>
<polygon fill="black" stroke="black" points="292.52,-365.8 297.33,-356.35 287.68,-360.74 292.52,-365.8"/>
</g>
<!-- BB13 -->
<g id="node14" class="node">
<title>BB13</title>
<ellipse fill="none" stroke="black" cx="225.19" cy="-180.25" rx="113.27" ry="48.17"/>
<text text-anchor="middle" x="225.19" y="-199.05" font-family="Times New Roman,serif" font-size="14.00">[9e..c4)</text>
<text text-anchor="middle" x="225.19" y="-184.05" font-family="Times New Roman,serif" font-size="14.00">Count: 388</text>
<text text-anchor="middle" x="225.19" y="-169.05" font-family="Times New Roman,serif" font-size="14.00">Normalized count: 194.00</text>
<text text-anchor="middle" x="225.19" y="-154.05" font-family="Times New Roman,serif" font-size="14.00">Samples weight: 0.21</text>
</g>
<!-- BB12&#45;&gt;BB13 -->
<g id="edge19" class="edge">
<title>BB12&#45;&gt;BB13</title>
<path fill="none" stroke="black" d="M147.8,-267.35C157.6,-256.44 168.2,-244.65 178.31,-233.4"/>
<polygon fill="black" stroke="black" points="181.14,-235.49 185.22,-225.72 175.93,-230.81 181.14,-235.49"/>
</g>
<!-- BB13&#45;&gt;BB13 -->
<g id="edge20" class="edge">
<title>BB13&#45;&gt;BB13</title>
<path fill="none" stroke="black" d="M323.84,-203.86C342.85,-201.07 356.32,-193.2 356.32,-180.25 356.32,-169.72 347.43,-162.56 333.9,-158.74"/>
<polygon fill="black" stroke="black" points="334.34,-155.26 323.84,-156.64 332.91,-162.11 334.34,-155.26"/>
</g>
<!-- BB13&#45;&gt;BB14 -->
<g id="edge21" class="edge">
<title>BB13&#45;&gt;BB14</title>
<path fill="none" stroke="black" d="M265.16,-225.72C274.98,-236.64 285.58,-248.44 295.68,-259.67"/>
<polygon fill="black" stroke="black" points="293.29,-262.25 302.58,-267.35 298.49,-257.57 293.29,-262.25"/>
</g>
<!-- BB14&#45;&gt;BB8 -->
<g id="edge22" class="edge">
<title>BB14&#45;&gt;BB8</title>
<path fill="none" stroke="black" d="M339.85,-360.68C337.65,-404.96 334.37,-471.21 332.03,-518.47"/>
<polygon fill="black" stroke="black" points="328.53,-518.39 331.53,-528.55 335.52,-518.73 328.53,-518.39"/>
</g>
<!-- BB16 -->
<g id="node17" class="node">
<title>BB16</title>
<ellipse fill="none" stroke="black" cx="1061.19" cy="-841.08" rx="108.38" ry="48.17"/>
<text text-anchor="middle" x="1061.19" y="-859.88" font-family="Times New Roman,serif" font-size="14.00">[d4..eb)</text>
<text text-anchor="middle" x="1061.19" y="-844.88" font-family="Times New Roman,serif" font-size="14.00">Count: 35</text>
<text text-anchor="middle" x="1061.19" y="-829.88" font-family="Times New Roman,serif" font-size="14.00">Normalized count: 17.50</text>
<text text-anchor="middle" x="1061.19" y="-814.88" font-family="Times New Roman,serif" font-size="14.00">Samples weight: 0.02</text>
</g>
<!-- BB15&#45;&gt;BB16 -->
<g id="edge24" class="edge">
<title>BB15&#45;&gt;BB16</title>
<path fill="none" stroke="black" d="M893.62,-935.3C922.27,-919.36 955.93,-900.63 985.54,-884.16"/>
<polygon fill="black" stroke="black" points="987.55,-887.05 994.59,-879.13 984.15,-880.93 987.55,-887.05"/>
</g>
<!-- BB17 -->
<g id="node18" class="node">
<title>BB17</title>
<ellipse fill="none" stroke="black" cx="827.19" cy="-841.08" rx="108.38" ry="48.17"/>
<text text-anchor="middle" x="827.19" y="-859.88" font-family="Times New Roman,serif" font-size="14.00">[eb..102)</text>
<text text-anchor="middle" x="827.19" y="-844.88" font-family="Times New Roman,serif" font-size="14.00">Count: 32</text>
<text text-anchor="middle" x="827.19" y="-829.88" font-family="Times New Roman,serif" font-size="14.00">Normalized count: 16.00</text>
<text text-anchor="middle" x="827.19" y="-814.88" font-family="Times New Roman,serif" font-size="14.00">Samples weight: 0.02</text>
</g>
<!-- BB15&#45;&gt;BB17 -->
<g id="edge23" class="edge">
<title>BB15&#45;&gt;BB17</title>
<path fill="none" stroke="black" d="M827.19,-924.89C827.19,-916.62 827.19,-907.94 827.19,-899.43"/>
<polygon fill="black" stroke="black" points="830.69,-899.19 827.19,-889.19 823.69,-899.19 830.69,-899.19"/>
</g>
<!-- BB16&#45;&gt;BB3 -->
<g id="edge25" class="edge">
<title>BB16&#45;&gt;BB3</title>
<path fill="none" stroke="black" d="M1061.19,-889.35C1061.19,-933.62 1061.19,-999.87 1061.19,-1047.13"/>
<polygon fill="black" stroke="black" points="1057.69,-1047.21 1061.19,-1057.21 1064.69,-1047.21 1057.69,-1047.21"/>
</g>
<!-- BB26 -->
<g id="node27" class="node">
<title>BB26</title>
<ellipse fill="none" stroke="black" cx="851.19" cy="-708.92" rx="108.38" ry="48.17"/>
<text text-anchor="middle" x="851.19" y="-727.72" font-family="Times New Roman,serif" font-size="14.00">[164..169)</text>
<text text-anchor="middle" x="851.19" y="-712.72" font-family="Times New Roman,serif" font-size="14.00">Count: 42</text>
<text text-anchor="middle" x="851.19" y="-697.72" font-family="Times New Roman,serif" font-size="14.00">Normalized count: 21.00</text>
<text text-anchor="middle" x="851.19" y="-682.72" font-family="Times New Roman,serif" font-size="14.00">Samples weight: 0.02</text>
</g>
<!-- BB17&#45;&gt;BB26 -->
<g id="edge26" class="edge">
<title>BB17&#45;&gt;BB26</title>
<path fill="none" stroke="black" d="M835.85,-793.09C837.4,-784.71 839.02,-775.91 840.61,-767.28"/>
<polygon fill="black" stroke="black" points="844.08,-767.75 842.45,-757.28 837.2,-766.48 844.08,-767.75"/>
</g>
<!-- BB18 -->
<g id="node19" class="node">
<title>BB18</title>
<ellipse fill="none" stroke="black" cx="875.19" cy="-576.75" rx="108.38" ry="48.17"/>
<text text-anchor="middle" x="875.19" y="-595.55" font-family="Times New Roman,serif" font-size="14.00">[102..10c)</text>
<text text-anchor="middle" x="875.19" y="-580.55" font-family="Times New Roman,serif" font-size="14.00">Count: 23</text>
<text text-anchor="middle" x="875.19" y="-565.55" font-family="Times New Roman,serif" font-size="14.00">Normalized count: 11.50</text>
<text text-anchor="middle" x="875.19" y="-550.55" font-family="Times New Roman,serif" font-size="14.00">Samples weight: 0.01</text>
</g>
<!-- BB19 -->
<g id="node20" class="node">
<title>BB19</title>
<ellipse fill="none" stroke="black" cx="1167.19" cy="-444.58" rx="103.48" ry="48.17"/>
<text text-anchor="middle" x="1167.19" y="-463.38" font-family="Times New Roman,serif" font-size="14.00">[10c..119)</text>
<text text-anchor="middle" x="1167.19" y="-448.38" font-family="Times New Roman,serif" font-size="14.00">Count: 11</text>
<text text-anchor="middle" x="1167.19" y="-433.38" font-family="Times New Roman,serif" font-size="14.00">Normalized count: 5.50</text>
<text text-anchor="middle" x="1167.19" y="-418.38" font-family="Times New Roman,serif" font-size="14.00">Samples weight: 0.01</text>
</g>
<!-- BB18&#45;&gt;BB19 -->
<g id="edge28" class="edge">
<title>BB18&#45;&gt;BB19</title>
<path fill="none" stroke="black" d="M950.76,-542.06C991.61,-523.85 1042.13,-501.33 1084.08,-482.63"/>
<polygon fill="black" stroke="black" points="1085.73,-485.73 1093.44,-478.46 1082.88,-479.33 1085.73,-485.73"/>
</g>
<!-- BB20 -->
<g id="node21" class="node">
<title>BB20</title>
<ellipse fill="none" stroke="black" cx="875.19" cy="-444.58" rx="103.48" ry="48.17"/>
<text text-anchor="middle" x="875.19" y="-463.38" font-family="Times New Roman,serif" font-size="14.00">[119..11f)</text>
<text text-anchor="middle" x="875.19" y="-448.38" font-family="Times New Roman,serif" font-size="14.00">Count: 12</text>
<text text-anchor="middle" x="875.19" y="-433.38" font-family="Times New Roman,serif" font-size="14.00">Normalized count: 6.00</text>
<text text-anchor="middle" x="875.19" y="-418.38" font-family="Times New Roman,serif" font-size="14.00">Samples weight: 0.01</text>
</g>
<!-- BB18&#45;&gt;BB20 -->
<g id="edge27" class="edge">
<title>BB18&#45;&gt;BB20</title>
<path fill="none" stroke="black" d="M875.19,-528.39C875.19,-520.12 875.19,-511.44 875.19,-502.93"/>
<polygon fill="black" stroke="black" points="878.69,-502.69 875.19,-492.69 871.69,-502.69 878.69,-502.69"/>
</g>
<!-- BB19&#45;&gt;BB3 -->
<g id="edge29" class="edge">
<title>BB19&#45;&gt;BB3</title>
<path fill="none" stroke="black" d="M1198.35,-490.48C1205.3,-502.42 1211.88,-515.63 1216.19,-528.67 1241.33,-604.73 1235.19,-627.8 1235.19,-707.92 1235.19,-842.08 1235.19,-842.08 1235.19,-842.08 1235.19,-929.14 1207.74,-951.17 1156.19,-1021.33 1146.93,-1033.93 1135.45,-1045.97 1123.71,-1056.77"/>
<polygon fill="black" stroke="black" points="1121.1,-1054.41 1115.97,-1063.68 1125.76,-1059.63 1121.1,-1054.41"/>
</g>
<!-- BB21 -->
<g id="node22" class="node">
<title>BB21</title>
<ellipse fill="none" stroke="black" cx="870.19" cy="-312.42" rx="103.48" ry="48.17"/>
<text text-anchor="middle" x="870.19" y="-331.22" font-family="Times New Roman,serif" font-size="14.00">[11f..130)</text>
<text text-anchor="middle" x="870.19" y="-316.22" font-family="Times New Roman,serif" font-size="14.00">Count: 2</text>
<text text-anchor="middle" x="870.19" y="-301.22" font-family="Times New Roman,serif" font-size="14.00">Normalized count: 1.00</text>
<text text-anchor="middle" x="870.19" y="-286.22" font-family="Times New Roman,serif" font-size="14.00">Samples weight: 0.00</text>
</g>
<!-- BB20&#45;&gt;BB21 -->
<g id="edge31" class="edge">
<title>BB20&#45;&gt;BB21</title>
<path fill="none" stroke="black" d="M873.37,-396.22C873.05,-387.95 872.72,-379.27 872.39,-370.77"/>
<polygon fill="black" stroke="black" points="875.88,-370.38 872,-360.52 868.88,-370.65 875.88,-370.38"/>
</g>
<!-- BB22 -->
<g id="node23" class="node">
<title>BB22</title>
<ellipse fill="none" stroke="black" cx="1094.19" cy="-312.42" rx="103.48" ry="48.17"/>
<text text-anchor="middle" x="1094.19" y="-331.22" font-family="Times New Roman,serif" font-size="14.00">[130..140)</text>
<text text-anchor="middle" x="1094.19" y="-316.22" font-family="Times New Roman,serif" font-size="14.00">Count: 10</text>
<text text-anchor="middle" x="1094.19" y="-301.22" font-family="Times New Roman,serif" font-size="14.00">Normalized count: 5.00</text>
<text text-anchor="middle" x="1094.19" y="-286.22" font-family="Times New Roman,serif" font-size="14.00">Samples weight: 0.01</text>
</g>
<!-- BB20&#45;&gt;BB22 -->
<g id="edge30" class="edge">
<title>BB20&#45;&gt;BB22</title>
<path fill="none" stroke="black" d="M937.94,-406.28C964.4,-390.56 995.35,-372.16 1022.68,-355.92"/>
<polygon fill="black" stroke="black" points="1024.61,-358.84 1031.42,-350.72 1021.04,-352.82 1024.61,-358.84"/>
</g>
<!-- BB24 -->
<g id="node25" class="node">
<title>BB24</title>
<ellipse fill="none" stroke="black" cx="1061.19" cy="-180.25" rx="108.38" ry="48.17"/>
<text text-anchor="middle" x="1061.19" y="-199.05" font-family="Times New Roman,serif" font-size="14.00">[150..156)</text>
<text text-anchor="middle" x="1061.19" y="-184.05" font-family="Times New Roman,serif" font-size="14.00">Count: 29</text>
<text text-anchor="middle" x="1061.19" y="-169.05" font-family="Times New Roman,serif" font-size="14.00">Normalized count: 14.50</text>
<text text-anchor="middle" x="1061.19" y="-154.05" font-family="Times New Roman,serif" font-size="14.00">Samples weight: 0.02</text>
</g>
<!-- BB22&#45;&gt;BB24 -->
<g id="edge32" class="edge">
<title>BB22&#45;&gt;BB24</title>
<path fill="none" stroke="black" d="M1082.27,-264.42C1080.1,-255.85 1077.81,-246.83 1075.58,-238.01"/>
<polygon fill="black" stroke="black" points="1078.93,-237.01 1073.08,-228.17 1072.15,-238.73 1078.93,-237.01"/>
</g>
<!-- BB23 -->
<g id="node24" class="node">
<title>BB23</title>
<ellipse fill="none" stroke="black" cx="1061.19" cy="-48.08" rx="103.48" ry="48.17"/>
<text text-anchor="middle" x="1061.19" y="-66.88" font-family="Times New Roman,serif" font-size="14.00">[140..150)</text>
<text text-anchor="middle" x="1061.19" y="-51.88" font-family="Times New Roman,serif" font-size="14.00">Count: 19</text>
<text text-anchor="middle" x="1061.19" y="-36.88" font-family="Times New Roman,serif" font-size="14.00">Normalized count: 9.50</text>
<text text-anchor="middle" x="1061.19" y="-21.88" font-family="Times New Roman,serif" font-size="14.00">Samples weight: 0.01</text>
</g>
<!-- BB23&#45;&gt;BB24 -->
<g id="edge33" class="edge">
<title>BB23&#45;&gt;BB24</title>
<path fill="none" stroke="black" d="M1067.7,-96.19C1067.92,-104.45 1067.99,-113.13 1067.9,-121.64"/>
<polygon fill="black" stroke="black" points="1064.39,-121.83 1067.71,-131.89 1071.39,-121.95 1064.39,-121.83"/>
</g>
<!-- BB24&#45;&gt;BB23 -->
<g id="edge34" class="edge">
<title>BB24&#45;&gt;BB23</title>
<path fill="none" stroke="black" d="M1054.66,-131.89C1054.45,-123.62 1054.39,-114.94 1054.48,-106.43"/>
<polygon fill="black" stroke="black" points="1057.98,-106.26 1054.67,-96.19 1050.98,-106.12 1057.98,-106.26"/>
</g>
<!-- BB25 -->
<g id="node26" class="node">
<title>BB25</title>
<ellipse fill="none" stroke="black" cx="804.19" cy="-48.08" rx="103.48" ry="48.17"/>
<text text-anchor="middle" x="804.19" y="-66.88" font-family="Times New Roman,serif" font-size="14.00">[156..164)</text>
<text text-anchor="middle" x="804.19" y="-51.88" font-family="Times New Roman,serif" font-size="14.00">Count: 10</text>
<text text-anchor="middle" x="804.19" y="-36.88" font-family="Times New Roman,serif" font-size="14.00">Normalized count: 5.00</text>
<text text-anchor="middle" x="804.19" y="-21.88" font-family="Times New Roman,serif" font-size="14.00">Samples weight: 0.01</text>
</g>
<!-- BB24&#45;&gt;BB25 -->
<g id="edge35" class="edge">
<title>BB24&#45;&gt;BB25</title>
<path fill="none" stroke="black" d="M990.62,-143.51C957.06,-126.51 916.84,-106.14 882.36,-88.68"/>
<polygon fill="black" stroke="black" points="883.77,-85.47 873.26,-84.07 880.6,-91.71 883.77,-85.47"/>
</g>
<!-- BB25&#45;&gt;BB26 -->
<g id="edge36" class="edge">
<title>BB25&#45;&gt;BB26</title>
<path fill="none" stroke="black" d="M785.39,-95.61C766.19,-147.4 739.19,-234 739.19,-311.42 739.19,-445.58 739.19,-445.58 739.19,-445.58 739.19,-525.7 721.65,-553.54 758.19,-624.83 765.07,-638.27 775.11,-650.55 786.06,-661.3"/>
<polygon fill="black" stroke="black" points="783.68,-663.87 793.37,-668.15 788.47,-658.76 783.68,-663.87"/>
</g>
<!-- BB26&#45;&gt;BB18 -->
<g id="edge37" class="edge">
<title>BB26&#45;&gt;BB18</title>
<path fill="none" stroke="black" d="M859.85,-660.92C861.4,-652.55 863.02,-643.74 864.61,-635.11"/>
<polygon fill="black" stroke="black" points="868.08,-635.58 866.45,-625.11 861.2,-634.31 868.08,-635.58"/>
</g>
<!-- BB27 -->
<g id="node28" class="node">
<title>BB27</title>
<ellipse fill="none" stroke="black" cx="1104.19" cy="-576.75" rx="103.48" ry="48.17"/>
<text text-anchor="middle" x="1104.19" y="-595.55" font-family="Times New Roman,serif" font-size="14.00">[169..16e)</text>
<text text-anchor="middle" x="1104.19" y="-580.55" font-family="Times New Roman,serif" font-size="14.00">Count: 19</text>
<text text-anchor="middle" x="1104.19" y="-565.55" font-family="Times New Roman,serif" font-size="14.00">Normalized count: 9.50</text>
<text text-anchor="middle" x="1104.19" y="-550.55" font-family="Times New Roman,serif" font-size="14.00">Samples weight: 0.01</text>
</g>
<!-- BB26&#45;&gt;BB27 -->
<g id="edge38" class="edge">
<title>BB26&#45;&gt;BB27</title>
<path fill="none" stroke="black" d="M920.99,-672C953.89,-655.08 993.23,-634.84 1027.01,-617.46"/>
<polygon fill="black" stroke="black" points="1028.63,-620.56 1035.92,-612.87 1025.43,-614.33 1028.63,-620.56"/>
</g>
<!-- BB27&#45;&gt;BB3 -->
<g id="edge39" class="edge">
<title>BB27&#45;&gt;BB3</title>
<path fill="none" stroke="black" d="M1129.05,-623.5C1158.89,-684.31 1202.11,-795.05 1178.19,-889.17 1163.09,-948.56 1127.93,-1009.27 1100.07,-1051.02"/>
<polygon fill="black" stroke="black" points="1097.12,-1049.12 1094.42,-1059.37 1102.92,-1053.04 1097.12,-1049.12"/>
</g>
</g>
</svg>
