<?xml version="1.0" encoding="UTF-8" standalone="no"?>
<!DOCTYPE svg PUBLIC "-//W3C//DTD SVG 1.1//EN"
 "http://www.w3.org/Graphics/SVG/1.1/DTD/svg11.dtd">
<!-- Generated by graphviz version 2.47.0 (20210316.0004)
 -->
<!-- Title: G Pages: 1 -->
<svg width="279pt" height="510pt"
 viewBox="0.00 0.00 279.44 510.44" xmlns="http://www.w3.org/2000/svg" xmlns:xlink="http://www.w3.org/1999/xlink">
<g id="graph0" class="graph" transform="scale(1 1) rotate(0) translate(4 506.44)">
<title>G</title>
<polygon fill="white" stroke="transparent" points="-4,4 -4,-506.44 275.44,-506.44 275.44,4 -4,4"/>
<!-- BB0 -->
<g id="node1" class="node">
<title>BB0</title>
<ellipse fill="none" stroke="black" cx="91.01" cy="-475.57" rx="36.12" ry="26.74"/>
<text text-anchor="middle" x="91.01" y="-479.37" font-family="Times New Roman,serif" font-size="14.00">[0..1f)</text>
<text text-anchor="middle" x="91.01" y="-464.37" font-family="Times New Roman,serif" font-size="14.00">0.01</text>
</g>
<!-- BB1 -->
<g id="node2" class="node">
<title>BB1</title>
<ellipse fill="none" stroke="black" cx="41.01" cy="-385.83" rx="41.02" ry="26.74"/>
<text text-anchor="middle" x="41.01" y="-389.63" font-family="Times New Roman,serif" font-size="14.00">[1f..23)</text>
<text text-anchor="middle" x="41.01" y="-374.63" font-family="Times New Roman,serif" font-size="14.00">0.00</text>
</g>
<!-- BB0&#45;&gt;BB1 -->
<g id="edge2" class="edge">
<title>BB0&#45;&gt;BB1</title>
<path fill="none" stroke="black" d="M77.35,-450.6C72.04,-441.27 65.86,-430.43 60.12,-420.36"/>
<polygon fill="black" stroke="black" points="63,-418.34 55.01,-411.39 56.92,-421.81 63,-418.34"/>
</g>
<!-- BB2 -->
<g id="node3" class="node">
<title>BB2</title>
<ellipse fill="none" stroke="black" cx="142.01" cy="-385.83" rx="41.94" ry="26.74"/>
<text text-anchor="middle" x="142.01" y="-389.63" font-family="Times New Roman,serif" font-size="14.00">[23..2e)</text>
<text text-anchor="middle" x="142.01" y="-374.63" font-family="Times New Roman,serif" font-size="14.00">0.01</text>
</g>
<!-- BB0&#45;&gt;BB2 -->
<g id="edge1" class="edge">
<title>BB0&#45;&gt;BB2</title>
<path fill="none" stroke="black" d="M104.95,-450.6C110.42,-441.18 116.8,-430.21 122.7,-420.05"/>
<polygon fill="black" stroke="black" points="125.74,-421.79 127.74,-411.39 119.69,-418.27 125.74,-421.79"/>
</g>
<!-- BB3 -->
<g id="node4" class="node">
<title>BB3</title>
<ellipse fill="none" stroke="black" cx="142.01" cy="-296.09" rx="40.11" ry="26.74"/>
<text text-anchor="middle" x="142.01" y="-299.89" font-family="Times New Roman,serif" font-size="14.00">[2e..3f)</text>
<text text-anchor="middle" x="142.01" y="-284.89" font-family="Times New Roman,serif" font-size="14.00">0.25</text>
</g>
<!-- BB2&#45;&gt;BB3 -->
<g id="edge3" class="edge">
<title>BB2&#45;&gt;BB3</title>
<path fill="none" stroke="black" d="M142.01,-358.51C142.01,-350.54 142.01,-341.65 142.01,-333.16"/>
<polygon fill="black" stroke="black" points="145.51,-333.09 142.01,-323.09 138.51,-333.09 145.51,-333.09"/>
</g>
<!-- BB4 -->
<g id="node5" class="node">
<title>BB4</title>
<ellipse fill="none" stroke="black" cx="193.01" cy="-206.35" rx="41.02" ry="26.74"/>
<text text-anchor="middle" x="193.01" y="-210.15" font-family="Times New Roman,serif" font-size="14.00">[3f..55)</text>
<text text-anchor="middle" x="193.01" y="-195.15" font-family="Times New Roman,serif" font-size="14.00">0.24</text>
</g>
<!-- BB3&#45;&gt;BB4 -->
<g id="edge5" class="edge">
<title>BB3&#45;&gt;BB4</title>
<path fill="none" stroke="black" d="M156.22,-270.65C161.63,-261.33 167.9,-250.55 173.71,-240.55"/>
<polygon fill="black" stroke="black" points="176.88,-242.06 178.88,-231.66 170.83,-238.55 176.88,-242.06"/>
</g>
<!-- BB9 -->
<g id="node10" class="node">
<title>BB9</title>
<ellipse fill="none" stroke="black" cx="92.01" cy="-206.35" rx="41.94" ry="26.74"/>
<text text-anchor="middle" x="92.01" y="-210.15" font-family="Times New Roman,serif" font-size="14.00">[79..7a)</text>
<text text-anchor="middle" x="92.01" y="-195.15" font-family="Times New Roman,serif" font-size="14.00">0.01</text>
</g>
<!-- BB3&#45;&gt;BB9 -->
<g id="edge4" class="edge">
<title>BB3&#45;&gt;BB9</title>
<path fill="none" stroke="black" d="M128.08,-270.65C122.82,-261.41 116.73,-250.73 111.08,-240.8"/>
<polygon fill="black" stroke="black" points="114.03,-238.92 106.04,-231.96 107.95,-242.39 114.03,-238.92"/>
</g>
<!-- BB5 -->
<g id="node6" class="node">
<title>BB5</title>
<ellipse fill="none" stroke="black" cx="194.01" cy="-116.61" rx="41.94" ry="26.74"/>
<text text-anchor="middle" x="194.01" y="-120.41" font-family="Times New Roman,serif" font-size="14.00">[55..6a)</text>
<text text-anchor="middle" x="194.01" y="-105.41" font-family="Times New Roman,serif" font-size="14.00">0.24</text>
</g>
<!-- BB4&#45;&gt;BB5 -->
<g id="edge7" class="edge">
<title>BB4&#45;&gt;BB5</title>
<path fill="none" stroke="black" d="M193.31,-179.03C193.4,-171.06 193.5,-162.17 193.6,-153.68"/>
<polygon fill="black" stroke="black" points="197.1,-153.65 193.72,-143.61 190.1,-153.57 197.1,-153.65"/>
</g>
<!-- BB8 -->
<g id="node9" class="node">
<title>BB8</title>
<ellipse fill="none" stroke="black" cx="92.01" cy="-116.61" rx="42.35" ry="26.74"/>
<text text-anchor="middle" x="92.01" y="-120.41" font-family="Times New Roman,serif" font-size="14.00">[76..79)</text>
<text text-anchor="middle" x="92.01" y="-105.41" font-family="Times New Roman,serif" font-size="14.00">0.00</text>
</g>
<!-- BB4&#45;&gt;BB8 -->
<g id="edge6" class="edge">
<title>BB4&#45;&gt;BB8</title>
<path fill="none" stroke="black" d="M168.82,-184.33C155.43,-172.7 138.61,-158.09 124.13,-145.51"/>
<polygon fill="black" stroke="black" points="126.2,-142.67 116.36,-138.76 121.61,-147.96 126.2,-142.67"/>
</g>
<!-- BB6 -->
<g id="node7" class="node">
<title>BB6</title>
<ellipse fill="none" stroke="black" cx="92.01" cy="-26.87" rx="41.94" ry="26.74"/>
<text text-anchor="middle" x="92.01" y="-30.67" font-family="Times New Roman,serif" font-size="14.00">[6a..71)</text>
<text text-anchor="middle" x="92.01" y="-15.67" font-family="Times New Roman,serif" font-size="14.00">0.09</text>
</g>
<!-- BB5&#45;&gt;BB6 -->
<g id="edge9" class="edge">
<title>BB5&#45;&gt;BB6</title>
<path fill="none" stroke="black" d="M169.58,-94.59C156.05,-82.96 139.07,-68.35 124.44,-55.77"/>
<polygon fill="black" stroke="black" points="126.46,-52.89 116.6,-49.02 121.9,-58.19 126.46,-52.89"/>
</g>
<!-- BB7 -->
<g id="node8" class="node">
<title>BB7</title>
<ellipse fill="none" stroke="black" cx="229.01" cy="-26.87" rx="42.35" ry="26.74"/>
<text text-anchor="middle" x="229.01" y="-30.67" font-family="Times New Roman,serif" font-size="14.00">[71..76)</text>
<text text-anchor="middle" x="229.01" y="-15.67" font-family="Times New Roman,serif" font-size="14.00">0.15</text>
</g>
<!-- BB5&#45;&gt;BB7 -->
<g id="edge8" class="edge">
<title>BB5&#45;&gt;BB7</title>
<path fill="none" stroke="black" d="M204.14,-90.23C207.58,-81.59 211.5,-71.78 215.18,-62.54"/>
<polygon fill="black" stroke="black" points="218.46,-63.78 218.91,-53.19 211.96,-61.18 218.46,-63.78"/>
</g>
<!-- BB6&#45;&gt;BB3 -->
<g id="edge10" class="edge">
<title>BB6&#45;&gt;BB3</title>
<path fill="none" stroke="black" d="M68.1,-49.23C57.64,-60.17 46.52,-74.41 41.01,-89.74 19.46,-149.76 9.85,-177.58 41.01,-233.22 53.04,-254.69 75.89,-269.61 96.82,-279.41"/>
<polygon fill="black" stroke="black" points="95.69,-282.73 106.26,-283.55 98.51,-276.33 95.69,-282.73"/>
</g>
<!-- BB7&#45;&gt;BB3 -->
<g id="edge11" class="edge">
<title>BB7&#45;&gt;BB3</title>
<path fill="none" stroke="black" d="M239.25,-53.27C253.98,-94.19 275.96,-175.91 243.01,-233.22 230.75,-254.55 207.88,-269.46 187,-279.29"/>
<polygon fill="black" stroke="black" points="185.32,-276.21 177.59,-283.45 188.15,-282.61 185.32,-276.21"/>
</g>
<!-- BB8&#45;&gt;BB9 -->
<g id="edge12" class="edge">
<title>BB8&#45;&gt;BB9</title>
<path fill="none" stroke="black" d="M92.01,-143.61C92.01,-151.56 92.01,-160.44 92.01,-168.94"/>
<polygon fill="black" stroke="black" points="88.51,-169.03 92.01,-179.03 95.51,-169.03 88.51,-169.03"/>
</g>
</g>
</svg>
