<?xml version="1.0" encoding="UTF-8" standalone="no"?>
<!DOCTYPE svg PUBLIC "-//W3C//DTD SVG 1.1//EN"
 "http://www.w3.org/Graphics/SVG/1.1/DTD/svg11.dtd">
<!-- Generated by graphviz version 2.47.0 (20210316.0004)
 -->
<!-- Title: G Pages: 1 -->
<svg width="448pt" height="416pt"
 viewBox="0.00 0.00 447.72 415.81" xmlns="http://www.w3.org/2000/svg" xmlns:xlink="http://www.w3.org/1999/xlink">
<g id="graph0" class="graph" transform="scale(1 1) rotate(0) translate(4 411.81)">
<title>G</title>
<polygon fill="white" stroke="transparent" points="-4,4 -4,-411.81 443.72,-411.81 443.72,4 -4,4"/>
<!-- BB0 -->
<g id="node1" class="node">
<title>BB0</title>
<ellipse fill="none" stroke="black" cx="219.36" cy="-370.34" rx="105.22" ry="37.45"/>
<text text-anchor="middle" x="219.36" y="-381.64" font-family="Times New Roman,serif" font-size="14.00">[0..10)</text>
<text text-anchor="middle" x="219.36" y="-366.64" font-family="Times New Roman,serif" font-size="14.00">Normalized Count: 1.00</text>
<text text-anchor="middle" x="219.36" y="-351.64" font-family="Times New Roman,serif" font-size="14.00">Samples weight: 0.22</text>
</g>
<!-- BB1 -->
<g id="node2" class="node">
<title>BB1</title>
<ellipse fill="none" stroke="black" cx="105.36" cy="-259.38" rx="105.22" ry="37.45"/>
<text text-anchor="middle" x="105.36" y="-270.68" font-family="Times New Roman,serif" font-size="14.00">[10..1f)</text>
<text text-anchor="middle" x="105.36" y="-255.68" font-family="Times New Roman,serif" font-size="14.00">Normalized Count: 0.80</text>
<text text-anchor="middle" x="105.36" y="-240.68" font-family="Times New Roman,serif" font-size="14.00">Samples weight: 0.18</text>
</g>
<!-- BB0&#45;&gt;BB1 -->
<g id="edge2" class="edge">
<title>BB0&#45;&gt;BB1</title>
<path fill="none" stroke="black" d="M183.29,-334.86C172.27,-324.33 160.03,-312.63 148.58,-301.69"/>
<polygon fill="black" stroke="black" points="150.84,-299.01 141.19,-294.63 146.01,-304.07 150.84,-299.01"/>
</g>
<!-- BB4 -->
<g id="node5" class="node">
<title>BB4</title>
<ellipse fill="none" stroke="black" cx="334.36" cy="-259.38" rx="105.22" ry="37.45"/>
<text text-anchor="middle" x="334.36" y="-270.68" font-family="Times New Roman,serif" font-size="14.00">[4a..4b)</text>
<text text-anchor="middle" x="334.36" y="-255.68" font-family="Times New Roman,serif" font-size="14.00">Normalized Count: 0.00</text>
<text text-anchor="middle" x="334.36" y="-240.68" font-family="Times New Roman,serif" font-size="14.00">Samples weight: 0.00</text>
</g>
<!-- BB0&#45;&gt;BB4 -->
<g id="edge1" class="edge">
<title>BB0&#45;&gt;BB4</title>
<path fill="none" stroke="black" d="M255.75,-334.86C266.87,-324.33 279.21,-312.63 290.76,-301.69"/>
<polygon fill="black" stroke="black" points="293.36,-304.05 298.21,-294.63 288.54,-298.97 293.36,-304.05"/>
</g>
<!-- BB3 -->
<g id="node4" class="node">
<title>BB3</title>
<ellipse fill="none" stroke="black" cx="219.36" cy="-148.43" rx="105.22" ry="37.45"/>
<text text-anchor="middle" x="219.36" y="-159.73" font-family="Times New Roman,serif" font-size="14.00">[46..4a)</text>
<text text-anchor="middle" x="219.36" y="-144.73" font-family="Times New Roman,serif" font-size="14.00">Normalized Count: 1.16</text>
<text text-anchor="middle" x="219.36" y="-129.73" font-family="Times New Roman,serif" font-size="14.00">Samples weight: 0.26</text>
</g>
<!-- BB1&#45;&gt;BB3 -->
<g id="edge3" class="edge">
<title>BB1&#45;&gt;BB3</title>
<path fill="none" stroke="black" d="M141.43,-223.91C152.45,-213.37 164.69,-201.68 176.14,-190.74"/>
<polygon fill="black" stroke="black" points="178.71,-193.12 183.52,-183.68 173.88,-188.06 178.71,-193.12"/>
</g>
<!-- BB2 -->
<g id="node3" class="node">
<title>BB2</title>
<ellipse fill="none" stroke="black" cx="219.36" cy="-37.48" rx="105.22" ry="37.45"/>
<text text-anchor="middle" x="219.36" y="-48.78" font-family="Times New Roman,serif" font-size="14.00">[1f..46)</text>
<text text-anchor="middle" x="219.36" y="-33.78" font-family="Times New Roman,serif" font-size="14.00">Normalized Count: 1.55</text>
<text text-anchor="middle" x="219.36" y="-18.78" font-family="Times New Roman,serif" font-size="14.00">Samples weight: 0.34</text>
</g>
<!-- BB2&#45;&gt;BB3 -->
<g id="edge4" class="edge">
<title>BB2&#45;&gt;BB3</title>
<path fill="none" stroke="black" d="M225.78,-75.15C226.09,-83.33 226.18,-92.11 226.05,-100.63"/>
<polygon fill="black" stroke="black" points="222.54,-100.76 225.77,-110.85 229.54,-100.94 222.54,-100.76"/>
</g>
<!-- BB3&#45;&gt;BB2 -->
<g id="edge5" class="edge">
<title>BB3&#45;&gt;BB2</title>
<path fill="none" stroke="black" d="M212.94,-110.85C212.63,-102.67 212.54,-93.89 212.67,-85.37"/>
<polygon fill="black" stroke="black" points="216.17,-85.24 212.94,-75.15 209.17,-85.05 216.17,-85.24"/>
</g>
<!-- BB3&#45;&gt;BB4 -->
<g id="edge6" class="edge">
<title>BB3&#45;&gt;BB4</title>
<path fill="none" stroke="black" d="M255.51,-183.68C266.61,-194.2 278.95,-205.89 290.51,-216.84"/>
<polygon fill="black" stroke="black" points="288.31,-219.57 297.97,-223.91 293.12,-214.49 288.31,-219.57"/>
</g>
</g>
</svg>
