<?xml version="1.0" encoding="UTF-8" standalone="no"?>
<!DOCTYPE svg PUBLIC "-//W3C//DTD SVG 1.1//EN"
 "http://www.w3.org/Graphics/SVG/1.1/DTD/svg11.dtd">
<!-- Generated by graphviz version 2.47.0 (20210316.0004)
 -->
<!-- Title: G Pages: 1 -->
<svg width="1212pt" height="1029pt"
 viewBox="0.00 0.00 1212.50 1029.33" xmlns="http://www.w3.org/2000/svg" xmlns:xlink="http://www.w3.org/1999/xlink">
<g id="graph0" class="graph" transform="scale(1 1) rotate(0) translate(4 1025.33)">
<title>G</title>
<polygon fill="white" stroke="transparent" points="-4,4 -4,-1025.33 1208.5,-1025.33 1208.5,4 -4,4"/>
<!-- BB0 -->
<g id="node1" class="node">
<title>BB0</title>
<ellipse fill="none" stroke="black" cx="397.84" cy="-973.25" rx="104.8" ry="48.17"/>
<text text-anchor="middle" x="397.84" y="-992.05" font-family="Times New Roman,serif" font-size="14.00">[0..4)</text>
<text text-anchor="middle" x="397.84" y="-977.05" font-family="Times New Roman,serif" font-size="14.00">Count: 0</text>
<text text-anchor="middle" x="397.84" y="-962.05" font-family="Times New Roman,serif" font-size="14.00">Normalized count: NaN</text>
<text text-anchor="middle" x="397.84" y="-947.05" font-family="Times New Roman,serif" font-size="14.00">Samples weight: 0.00</text>
</g>
<!-- BB6 -->
<g id="node7" class="node">
<title>BB6</title>
<ellipse fill="none" stroke="black" cx="397.84" cy="-841.08" rx="113.69" ry="48.17"/>
<text text-anchor="middle" x="397.84" y="-859.88" font-family="Times New Roman,serif" font-size="14.00">[2e..32)</text>
<text text-anchor="middle" x="397.84" y="-844.88" font-family="Times New Roman,serif" font-size="14.00">Count: 1861</text>
<text text-anchor="middle" x="397.84" y="-829.88" font-family="Times New Roman,serif" font-size="14.00">Normalized count: Infinity</text>
<text text-anchor="middle" x="397.84" y="-814.88" font-family="Times New Roman,serif" font-size="14.00">Samples weight: 0.01</text>
</g>
<!-- BB0&#45;&gt;BB6 -->
<g id="edge1" class="edge">
<title>BB0&#45;&gt;BB6</title>
<path fill="none" stroke="black" d="M397.84,-924.89C397.84,-916.62 397.84,-907.94 397.84,-899.43"/>
<polygon fill="black" stroke="black" points="401.34,-899.19 397.84,-889.19 394.34,-899.19 401.34,-899.19"/>
</g>
<!-- BB1 -->
<g id="node2" class="node">
<title>BB1</title>
<ellipse fill="none" stroke="black" cx="255.84" cy="-708.92" rx="113.69" ry="48.17"/>
<text text-anchor="middle" x="255.84" y="-727.72" font-family="Times New Roman,serif" font-size="14.00">[4..10)</text>
<text text-anchor="middle" x="255.84" y="-712.72" font-family="Times New Roman,serif" font-size="14.00">Count: 1887</text>
<text text-anchor="middle" x="255.84" y="-697.72" font-family="Times New Roman,serif" font-size="14.00">Normalized count: Infinity</text>
<text text-anchor="middle" x="255.84" y="-682.72" font-family="Times New Roman,serif" font-size="14.00">Samples weight: 0.01</text>
</g>
<!-- BB4 -->
<g id="node5" class="node">
<title>BB4</title>
<ellipse fill="none" stroke="black" cx="255.84" cy="-576.75" rx="113.69" ry="48.17"/>
<text text-anchor="middle" x="255.84" y="-595.55" font-family="Times New Roman,serif" font-size="14.00">[22..26)</text>
<text text-anchor="middle" x="255.84" y="-580.55" font-family="Times New Roman,serif" font-size="14.00">Count: 1969</text>
<text text-anchor="middle" x="255.84" y="-565.55" font-family="Times New Roman,serif" font-size="14.00">Normalized count: Infinity</text>
<text text-anchor="middle" x="255.84" y="-550.55" font-family="Times New Roman,serif" font-size="14.00">Samples weight: 0.01</text>
</g>
<!-- BB1&#45;&gt;BB4 -->
<g id="edge2" class="edge">
<title>BB1&#45;&gt;BB4</title>
<path fill="none" stroke="black" d="M255.84,-660.55C255.84,-652.29 255.84,-643.6 255.84,-635.1"/>
<polygon fill="black" stroke="black" points="259.34,-634.86 255.84,-624.86 252.34,-634.86 259.34,-634.86"/>
</g>
<!-- BB2 -->
<g id="node3" class="node">
<title>BB2</title>
<ellipse fill="none" stroke="black" cx="113.84" cy="-444.58" rx="113.69" ry="48.17"/>
<text text-anchor="middle" x="113.84" y="-463.38" font-family="Times New Roman,serif" font-size="14.00">[10..16)</text>
<text text-anchor="middle" x="113.84" y="-448.38" font-family="Times New Roman,serif" font-size="14.00">Count: 1768</text>
<text text-anchor="middle" x="113.84" y="-433.38" font-family="Times New Roman,serif" font-size="14.00">Normalized count: Infinity</text>
<text text-anchor="middle" x="113.84" y="-418.38" font-family="Times New Roman,serif" font-size="14.00">Samples weight: 0.01</text>
</g>
<!-- BB3 -->
<g id="node4" class="node">
<title>BB3</title>
<ellipse fill="none" stroke="black" cx="184.84" cy="-312.42" rx="104.8" ry="48.17"/>
<text text-anchor="middle" x="184.84" y="-331.22" font-family="Times New Roman,serif" font-size="14.00">[16..22)</text>
<text text-anchor="middle" x="184.84" y="-316.22" font-family="Times New Roman,serif" font-size="14.00">Count: 0</text>
<text text-anchor="middle" x="184.84" y="-301.22" font-family="Times New Roman,serif" font-size="14.00">Normalized count: NaN</text>
<text text-anchor="middle" x="184.84" y="-286.22" font-family="Times New Roman,serif" font-size="14.00">Samples weight: 0.00</text>
</g>
<!-- BB2&#45;&gt;BB3 -->
<g id="edge4" class="edge">
<title>BB2&#45;&gt;BB3</title>
<path fill="none" stroke="black" d="M139.08,-397.32C144.15,-388.02 149.53,-378.16 154.75,-368.58"/>
<polygon fill="black" stroke="black" points="157.98,-369.98 159.69,-359.53 151.83,-366.63 157.98,-369.98"/>
</g>
<!-- BB5 -->
<g id="node6" class="node">
<title>BB5</title>
<ellipse fill="none" stroke="black" cx="397.84" cy="-444.58" rx="113.69" ry="48.17"/>
<text text-anchor="middle" x="397.84" y="-463.38" font-family="Times New Roman,serif" font-size="14.00">[26..2e)</text>
<text text-anchor="middle" x="397.84" y="-448.38" font-family="Times New Roman,serif" font-size="14.00">Count: 1861</text>
<text text-anchor="middle" x="397.84" y="-433.38" font-family="Times New Roman,serif" font-size="14.00">Normalized count: Infinity</text>
<text text-anchor="middle" x="397.84" y="-418.38" font-family="Times New Roman,serif" font-size="14.00">Samples weight: 0.01</text>
</g>
<!-- BB2&#45;&gt;BB5 -->
<g id="edge3" class="edge">
<title>BB2&#45;&gt;BB5</title>
<path fill="none" stroke="black" d="M227.83,-444.58C243.18,-444.58 258.52,-444.58 273.87,-444.58"/>
<polygon fill="black" stroke="black" points="273.95,-448.08 283.95,-444.58 273.95,-441.08 273.95,-448.08"/>
</g>
<!-- BB3&#45;&gt;BB4 -->
<g id="edge5" class="edge">
<title>BB3&#45;&gt;BB4</title>
<path fill="none" stroke="black" d="M217.95,-358.11C225.32,-370.05 232.29,-383.31 236.84,-396.5 250.37,-435.67 254.98,-482.28 256.29,-518.16"/>
<polygon fill="black" stroke="black" points="252.8,-518.55 256.59,-528.45 259.8,-518.35 252.8,-518.55"/>
</g>
<!-- BB4&#45;&gt;BB2 -->
<g id="edge6" class="edge">
<title>BB4&#45;&gt;BB2</title>
<path fill="none" stroke="black" d="M208.95,-532.77C195.87,-520.77 181.54,-507.64 168.07,-495.29"/>
<polygon fill="black" stroke="black" points="170.42,-492.7 160.68,-488.52 165.69,-497.86 170.42,-492.7"/>
</g>
<!-- BB4&#45;&gt;BB5 -->
<g id="edge7" class="edge">
<title>BB4&#45;&gt;BB5</title>
<path fill="none" stroke="black" d="M302.73,-532.77C315.82,-520.77 330.15,-507.64 343.62,-495.29"/>
<polygon fill="black" stroke="black" points="346,-497.86 351,-488.52 341.27,-492.7 346,-497.86"/>
</g>
<!-- BB5&#45;&gt;BB6 -->
<g id="edge8" class="edge">
<title>BB5&#45;&gt;BB6</title>
<path fill="none" stroke="black" d="M397.84,-492.83C397.84,-565.48 397.84,-704.4 397.84,-782.72"/>
<polygon fill="black" stroke="black" points="394.34,-782.89 397.84,-792.89 401.34,-782.89 394.34,-782.89"/>
</g>
<!-- BB6&#45;&gt;BB1 -->
<g id="edge9" class="edge">
<title>BB6&#45;&gt;BB1</title>
<path fill="none" stroke="black" d="M350.95,-797.1C337.87,-785.1 323.54,-771.97 310.07,-759.62"/>
<polygon fill="black" stroke="black" points="312.42,-757.03 302.68,-752.85 307.69,-762.19 312.42,-757.03"/>
</g>
<!-- BB7 -->
<g id="node8" class="node">
<title>BB7</title>
<ellipse fill="none" stroke="black" cx="586.84" cy="-708.92" rx="104.8" ry="48.17"/>
<text text-anchor="middle" x="586.84" y="-727.72" font-family="Times New Roman,serif" font-size="14.00">[32..34)</text>
<text text-anchor="middle" x="586.84" y="-712.72" font-family="Times New Roman,serif" font-size="14.00">Count: 0</text>
<text text-anchor="middle" x="586.84" y="-697.72" font-family="Times New Roman,serif" font-size="14.00">Normalized count: NaN</text>
<text text-anchor="middle" x="586.84" y="-682.72" font-family="Times New Roman,serif" font-size="14.00">Samples weight: 0.00</text>
</g>
<!-- BB6&#45;&gt;BB7 -->
<g id="edge10" class="edge">
<title>BB6&#45;&gt;BB7</title>
<path fill="none" stroke="black" d="M456.35,-799.79C476.93,-785.62 500.18,-769.6 521.3,-755.06"/>
<polygon fill="black" stroke="black" points="523.34,-757.9 529.59,-749.35 519.37,-752.14 523.34,-757.9"/>
</g>
<!-- BB8 -->
<g id="node9" class="node">
<title>BB8</title>
<ellipse fill="none" stroke="black" cx="643.84" cy="-576.75" rx="113.69" ry="48.17"/>
<text text-anchor="middle" x="643.84" y="-595.55" font-family="Times New Roman,serif" font-size="14.00">[34..44)</text>
<text text-anchor="middle" x="643.84" y="-580.55" font-family="Times New Roman,serif" font-size="14.00">Count: 5879</text>
<text text-anchor="middle" x="643.84" y="-565.55" font-family="Times New Roman,serif" font-size="14.00">Normalized count: Infinity</text>
<text text-anchor="middle" x="643.84" y="-550.55" font-family="Times New Roman,serif" font-size="14.00">Samples weight: 0.02</text>
</g>
<!-- BB7&#45;&gt;BB8 -->
<g id="edge11" class="edge">
<title>BB7&#45;&gt;BB8</title>
<path fill="none" stroke="black" d="M607.1,-661.66C611.08,-652.56 615.3,-642.93 619.41,-633.55"/>
<polygon fill="black" stroke="black" points="622.66,-634.86 623.46,-624.3 616.24,-632.05 622.66,-634.86"/>
</g>
<!-- BB14 -->
<g id="node15" class="node">
<title>BB14</title>
<ellipse fill="none" stroke="black" cx="643.84" cy="-444.58" rx="113.69" ry="48.17"/>
<text text-anchor="middle" x="643.84" y="-463.38" font-family="Times New Roman,serif" font-size="14.00">[6a..6e)</text>
<text text-anchor="middle" x="643.84" y="-448.38" font-family="Times New Roman,serif" font-size="14.00">Count: 64620</text>
<text text-anchor="middle" x="643.84" y="-433.38" font-family="Times New Roman,serif" font-size="14.00">Normalized count: Infinity</text>
<text text-anchor="middle" x="643.84" y="-418.38" font-family="Times New Roman,serif" font-size="14.00">Samples weight: 0.19</text>
</g>
<!-- BB8&#45;&gt;BB14 -->
<g id="edge12" class="edge">
<title>BB8&#45;&gt;BB14</title>
<path fill="none" stroke="black" d="M643.84,-528.39C643.84,-520.12 643.84,-511.44 643.84,-502.93"/>
<polygon fill="black" stroke="black" points="647.34,-502.69 643.84,-492.69 640.34,-502.69 647.34,-502.69"/>
</g>
<!-- BB9 -->
<g id="node10" class="node">
<title>BB9</title>
<ellipse fill="none" stroke="black" cx="617.84" cy="-312.42" rx="113.69" ry="48.17"/>
<text text-anchor="middle" x="617.84" y="-331.22" font-family="Times New Roman,serif" font-size="14.00">[44..4a)</text>
<text text-anchor="middle" x="617.84" y="-316.22" font-family="Times New Roman,serif" font-size="14.00">Count: 59206</text>
<text text-anchor="middle" x="617.84" y="-301.22" font-family="Times New Roman,serif" font-size="14.00">Normalized count: Infinity</text>
<text text-anchor="middle" x="617.84" y="-286.22" font-family="Times New Roman,serif" font-size="14.00">Samples weight: 0.17</text>
</g>
<!-- BB10 -->
<g id="node11" class="node">
<title>BB10</title>
<ellipse fill="none" stroke="black" cx="617.84" cy="-180.25" rx="113.69" ry="48.17"/>
<text text-anchor="middle" x="617.84" y="-199.05" font-family="Times New Roman,serif" font-size="14.00">[4a..54)</text>
<text text-anchor="middle" x="617.84" y="-184.05" font-family="Times New Roman,serif" font-size="14.00">Count: 59182</text>
<text text-anchor="middle" x="617.84" y="-169.05" font-family="Times New Roman,serif" font-size="14.00">Normalized count: Infinity</text>
<text text-anchor="middle" x="617.84" y="-154.05" font-family="Times New Roman,serif" font-size="14.00">Samples weight: 0.17</text>
</g>
<!-- BB9&#45;&gt;BB10 -->
<g id="edge14" class="edge">
<title>BB9&#45;&gt;BB10</title>
<path fill="none" stroke="black" d="M617.84,-264.05C617.84,-255.79 617.84,-247.1 617.84,-238.6"/>
<polygon fill="black" stroke="black" points="621.34,-238.36 617.84,-228.36 614.34,-238.36 621.34,-238.36"/>
</g>
<!-- BB12 -->
<g id="node13" class="node">
<title>BB12</title>
<ellipse fill="none" stroke="black" cx="863.84" cy="-180.25" rx="113.69" ry="48.17"/>
<text text-anchor="middle" x="863.84" y="-199.05" font-family="Times New Roman,serif" font-size="14.00">[58..5e)</text>
<text text-anchor="middle" x="863.84" y="-184.05" font-family="Times New Roman,serif" font-size="14.00">Count: 59206</text>
<text text-anchor="middle" x="863.84" y="-169.05" font-family="Times New Roman,serif" font-size="14.00">Normalized count: Infinity</text>
<text text-anchor="middle" x="863.84" y="-154.05" font-family="Times New Roman,serif" font-size="14.00">Samples weight: 0.17</text>
</g>
<!-- BB9&#45;&gt;BB12 -->
<g id="edge13" class="edge">
<title>BB9&#45;&gt;BB12</title>
<path fill="none" stroke="black" d="M688.01,-274.29C718.12,-258.35 753.46,-239.66 784.52,-223.22"/>
<polygon fill="black" stroke="black" points="786.38,-226.2 793.59,-218.43 783.11,-220.01 786.38,-226.2"/>
</g>
<!-- BB11 -->
<g id="node12" class="node">
<title>BB11</title>
<ellipse fill="none" stroke="black" cx="827.84" cy="-48.08" rx="113.69" ry="48.17"/>
<text text-anchor="middle" x="827.84" y="-66.88" font-family="Times New Roman,serif" font-size="14.00">[54..58)</text>
<text text-anchor="middle" x="827.84" y="-51.88" font-family="Times New Roman,serif" font-size="14.00">Count: 27584</text>
<text text-anchor="middle" x="827.84" y="-36.88" font-family="Times New Roman,serif" font-size="14.00">Normalized count: Infinity</text>
<text text-anchor="middle" x="827.84" y="-21.88" font-family="Times New Roman,serif" font-size="14.00">Samples weight: 0.08</text>
</g>
<!-- BB10&#45;&gt;BB11 -->
<g id="edge16" class="edge">
<title>BB10&#45;&gt;BB11</title>
<path fill="none" stroke="black" d="M680.85,-140.2C704.52,-125.53 731.59,-108.74 756.01,-93.61"/>
<polygon fill="black" stroke="black" points="757.86,-96.58 764.52,-88.33 754.18,-90.63 757.86,-96.58"/>
</g>
<!-- BB10&#45;&gt;BB12 -->
<g id="edge15" class="edge">
<title>BB10&#45;&gt;BB12</title>
<path fill="none" stroke="black" d="M731.72,-180.25C734.35,-180.25 736.98,-180.25 739.62,-180.25"/>
<polygon fill="black" stroke="black" points="739.78,-183.75 749.78,-180.25 739.78,-176.75 739.78,-183.75"/>
</g>
<!-- BB11&#45;&gt;BB12 -->
<g id="edge17" class="edge">
<title>BB11&#45;&gt;BB12</title>
<path fill="none" stroke="black" d="M840.82,-96.01C843.19,-104.58 845.69,-113.6 848.13,-122.42"/>
<polygon fill="black" stroke="black" points="844.81,-123.55 850.85,-132.26 851.56,-121.69 844.81,-123.55"/>
</g>
<!-- BB13 -->
<g id="node14" class="node">
<title>BB13</title>
<ellipse fill="none" stroke="black" cx="546.84" cy="-48.08" rx="113.69" ry="48.17"/>
<text text-anchor="middle" x="546.84" y="-66.88" font-family="Times New Roman,serif" font-size="14.00">[5e..6a)</text>
<text text-anchor="middle" x="546.84" y="-51.88" font-family="Times New Roman,serif" font-size="14.00">Count: 58418</text>
<text text-anchor="middle" x="546.84" y="-36.88" font-family="Times New Roman,serif" font-size="14.00">Normalized count: Infinity</text>
<text text-anchor="middle" x="546.84" y="-21.88" font-family="Times New Roman,serif" font-size="14.00">Samples weight: 0.17</text>
</g>
<!-- BB12&#45;&gt;BB13 -->
<g id="edge19" class="edge">
<title>BB12&#45;&gt;BB13</title>
<path fill="none" stroke="black" d="M783.03,-146.07C738.41,-127.74 682.88,-104.94 636.88,-86.05"/>
<polygon fill="black" stroke="black" points="638.09,-82.77 627.51,-82.21 635.43,-89.24 638.09,-82.77"/>
</g>
<!-- BB15 -->
<g id="node16" class="node">
<title>BB15</title>
<ellipse fill="none" stroke="black" cx="863.84" cy="-312.42" rx="113.69" ry="48.17"/>
<text text-anchor="middle" x="863.84" y="-331.22" font-family="Times New Roman,serif" font-size="14.00">[6e..7a)</text>
<text text-anchor="middle" x="863.84" y="-316.22" font-family="Times New Roman,serif" font-size="14.00">Count: 5628</text>
<text text-anchor="middle" x="863.84" y="-301.22" font-family="Times New Roman,serif" font-size="14.00">Normalized count: Infinity</text>
<text text-anchor="middle" x="863.84" y="-286.22" font-family="Times New Roman,serif" font-size="14.00">Samples weight: 0.02</text>
</g>
<!-- BB12&#45;&gt;BB15 -->
<g id="edge18" class="edge">
<title>BB12&#45;&gt;BB15</title>
<path fill="none" stroke="black" d="M863.84,-228.36C863.84,-236.62 863.84,-245.3 863.84,-253.8"/>
<polygon fill="black" stroke="black" points="860.34,-254.05 863.84,-264.05 867.34,-254.06 860.34,-254.05"/>
</g>
<!-- BB13&#45;&gt;BB14 -->
<g id="edge20" class="edge">
<title>BB13&#45;&gt;BB14</title>
<path fill="none" stroke="black" d="M512.23,-94.34C505.09,-106.06 498.6,-119.08 494.84,-132.17 466.84,-229.71 443.45,-273 494.84,-360.5 506.92,-381.06 526.13,-396.9 546.8,-408.96"/>
<polygon fill="black" stroke="black" points="545.29,-412.13 555.73,-413.91 548.68,-406 545.29,-412.13"/>
</g>
<!-- BB14&#45;&gt;BB9 -->
<g id="edge21" class="edge">
<title>BB14&#45;&gt;BB9</title>
<path fill="none" stroke="black" d="M634.46,-396.59C632.75,-388.02 630.94,-378.99 629.18,-370.17"/>
<polygon fill="black" stroke="black" points="632.61,-369.46 627.22,-360.34 625.74,-370.83 632.61,-369.46"/>
</g>
<!-- BB14&#45;&gt;BB15 -->
<g id="edge22" class="edge">
<title>BB14&#45;&gt;BB15</title>
<path fill="none" stroke="black" d="M708.96,-405.06C734.34,-390.04 763.58,-372.74 789.76,-357.25"/>
<polygon fill="black" stroke="black" points="791.69,-360.17 798.52,-352.07 788.13,-354.15 791.69,-360.17"/>
</g>
<!-- BB15&#45;&gt;BB8 -->
<g id="edge23" class="edge">
<title>BB15&#45;&gt;BB8</title>
<path fill="none" stroke="black" d="M846.06,-359.94C829.67,-398.56 802.49,-453.34 766.84,-492.67 753.51,-507.38 737.05,-520.76 720.57,-532.29"/>
<polygon fill="black" stroke="black" points="718.26,-529.62 711.96,-538.14 722.2,-535.41 718.26,-529.62"/>
</g>
<!-- BB16 -->
<g id="node17" class="node">
<title>BB16</title>
<ellipse fill="none" stroke="black" cx="1099.84" cy="-180.25" rx="104.8" ry="48.17"/>
<text text-anchor="middle" x="1099.84" y="-199.05" font-family="Times New Roman,serif" font-size="14.00">[7a..7b)</text>
<text text-anchor="middle" x="1099.84" y="-184.05" font-family="Times New Roman,serif" font-size="14.00">Count: 0</text>
<text text-anchor="middle" x="1099.84" y="-169.05" font-family="Times New Roman,serif" font-size="14.00">Normalized count: NaN</text>
<text text-anchor="middle" x="1099.84" y="-154.05" font-family="Times New Roman,serif" font-size="14.00">Samples weight: 0.00</text>
</g>
<!-- BB15&#45;&gt;BB16 -->
<g id="edge24" class="edge">
<title>BB15&#45;&gt;BB16</title>
<path fill="none" stroke="black" d="M932.11,-273.77C961.1,-257.78 994.99,-239.08 1024.7,-222.7"/>
<polygon fill="black" stroke="black" points="1026.7,-225.59 1033.77,-217.69 1023.32,-219.46 1026.7,-225.59"/>
</g>
</g>
</svg>
