<?xml version="1.0" encoding="UTF-8" standalone="no"?>
<!DOCTYPE svg PUBLIC "-//W3C//DTD SVG 1.1//EN"
 "http://www.w3.org/Graphics/SVG/1.1/DTD/svg11.dtd">
<!-- Generated by graphviz version 2.47.0 (20210316.0004)
 -->
<!-- Title: G Pages: 1 -->
<svg width="745pt" height="959pt"
 viewBox="0.00 0.00 745.33 959.14" xmlns="http://www.w3.org/2000/svg" xmlns:xlink="http://www.w3.org/1999/xlink">
<g id="graph0" class="graph" transform="scale(1 1) rotate(0) translate(4 955.14)">
<title>G</title>
<polygon fill="white" stroke="transparent" points="-4,4 -4,-955.14 741.33,-955.14 741.33,4 -4,4"/>
<!-- BB0 -->
<g id="node1" class="node">
<title>BB0</title>
<ellipse fill="none" stroke="black" cx="65" cy="-924.27" rx="37.45" ry="26.74"/>
<text text-anchor="middle" x="65" y="-928.07" font-family="Times New Roman,serif" font-size="14.00">[0..18)</text>
<text text-anchor="middle" x="65" y="-913.07" font-family="Times New Roman,serif" font-size="14.00">0.00</text>
</g>
<!-- BB2 -->
<g id="node3" class="node">
<title>BB2</title>
<ellipse fill="none" stroke="black" cx="65" cy="-834.53" rx="43.27" ry="26.74"/>
<text text-anchor="middle" x="65" y="-838.33" font-family="Times New Roman,serif" font-size="14.00">[2b..39)</text>
<text text-anchor="middle" x="65" y="-823.33" font-family="Times New Roman,serif" font-size="14.00">0.00</text>
</g>
<!-- BB0&#45;&gt;BB2 -->
<g id="edge1" class="edge">
<title>BB0&#45;&gt;BB2</title>
<path fill="none" stroke="black" d="M65,-896.95C65,-888.98 65,-880.09 65,-871.6"/>
<polygon fill="black" stroke="black" points="68.5,-871.54 65,-861.54 61.5,-871.54 68.5,-871.54"/>
</g>
<!-- BB1 -->
<g id="node2" class="node">
<title>BB1</title>
<ellipse fill="none" stroke="black" cx="65" cy="-744.79" rx="43.27" ry="26.74"/>
<text text-anchor="middle" x="65" y="-748.59" font-family="Times New Roman,serif" font-size="14.00">[18..2b)</text>
<text text-anchor="middle" x="65" y="-733.59" font-family="Times New Roman,serif" font-size="14.00">0.00</text>
</g>
<!-- BB1&#45;&gt;BB2 -->
<g id="edge2" class="edge">
<title>BB1&#45;&gt;BB2</title>
<path fill="none" stroke="black" d="M71.2,-771.46C71.72,-779.65 71.87,-788.88 71.65,-797.66"/>
<polygon fill="black" stroke="black" points="68.15,-797.54 71.22,-807.68 75.14,-797.84 68.15,-797.54"/>
</g>
<!-- BB2&#45;&gt;BB1 -->
<g id="edge3" class="edge">
<title>BB2&#45;&gt;BB1</title>
<path fill="none" stroke="black" d="M58.78,-807.68C58.27,-799.47 58.13,-790.24 58.36,-781.46"/>
<polygon fill="black" stroke="black" points="61.85,-781.6 58.8,-771.46 54.86,-781.29 61.85,-781.6"/>
</g>
<!-- BB3 -->
<g id="node4" class="node">
<title>BB3</title>
<ellipse fill="none" stroke="black" cx="169" cy="-744.79" rx="42.35" ry="26.74"/>
<text text-anchor="middle" x="169" y="-748.59" font-family="Times New Roman,serif" font-size="14.00">[39..56)</text>
<text text-anchor="middle" x="169" y="-733.59" font-family="Times New Roman,serif" font-size="14.00">0.00</text>
</g>
<!-- BB2&#45;&gt;BB3 -->
<g id="edge4" class="edge">
<title>BB2&#45;&gt;BB3</title>
<path fill="none" stroke="black" d="M89.91,-812.52C103.8,-800.79 121.28,-786.05 136.26,-773.41"/>
<polygon fill="black" stroke="black" points="138.91,-775.76 144.29,-766.64 134.39,-770.41 138.91,-775.76"/>
</g>
<!-- BB4 -->
<g id="node5" class="node">
<title>BB4</title>
<ellipse fill="none" stroke="black" cx="118" cy="-655.05" rx="42.35" ry="26.74"/>
<text text-anchor="middle" x="118" y="-658.85" font-family="Times New Roman,serif" font-size="14.00">[56..6c)</text>
<text text-anchor="middle" x="118" y="-643.85" font-family="Times New Roman,serif" font-size="14.00">0.00</text>
</g>
<!-- BB3&#45;&gt;BB4 -->
<g id="edge6" class="edge">
<title>BB3&#45;&gt;BB4</title>
<path fill="none" stroke="black" d="M154.79,-719.35C149.42,-710.11 143.21,-699.43 137.45,-689.5"/>
<polygon fill="black" stroke="black" points="140.36,-687.55 132.31,-680.66 134.31,-691.07 140.36,-687.55"/>
</g>
<!-- BB5 -->
<g id="node6" class="node">
<title>BB5</title>
<ellipse fill="none" stroke="black" cx="220" cy="-655.05" rx="41.94" ry="26.74"/>
<text text-anchor="middle" x="220" y="-658.85" font-family="Times New Roman,serif" font-size="14.00">[6c..7a)</text>
<text text-anchor="middle" x="220" y="-643.85" font-family="Times New Roman,serif" font-size="14.00">0.00</text>
</g>
<!-- BB3&#45;&gt;BB5 -->
<g id="edge5" class="edge">
<title>BB3&#45;&gt;BB5</title>
<path fill="none" stroke="black" d="M183.21,-719.35C188.62,-710.03 194.89,-699.25 200.7,-689.25"/>
<polygon fill="black" stroke="black" points="203.87,-690.76 205.87,-680.36 197.82,-687.25 203.87,-690.76"/>
</g>
<!-- BB4&#45;&gt;BB5 -->
<g id="edge7" class="edge">
<title>BB4&#45;&gt;BB5</title>
<path fill="none" stroke="black" d="M160.63,-655.05C163.11,-655.05 165.59,-655.05 168.07,-655.05"/>
<polygon fill="black" stroke="black" points="168.26,-658.55 178.26,-655.05 168.26,-651.55 168.26,-658.55"/>
</g>
<!-- BB6 -->
<g id="node7" class="node">
<title>BB6</title>
<ellipse fill="none" stroke="black" cx="220" cy="-565.31" rx="41.94" ry="26.74"/>
<text text-anchor="middle" x="220" y="-569.11" font-family="Times New Roman,serif" font-size="14.00">[7a..85)</text>
<text text-anchor="middle" x="220" y="-554.11" font-family="Times New Roman,serif" font-size="14.00">0.14</text>
</g>
<!-- BB5&#45;&gt;BB6 -->
<g id="edge8" class="edge">
<title>BB5&#45;&gt;BB6</title>
<path fill="none" stroke="black" d="M220,-627.73C220,-619.76 220,-610.87 220,-602.38"/>
<polygon fill="black" stroke="black" points="223.5,-602.31 220,-592.31 216.5,-602.31 223.5,-602.31"/>
</g>
<!-- BB7 -->
<g id="node8" class="node">
<title>BB7</title>
<ellipse fill="none" stroke="black" cx="169" cy="-475.57" rx="41.02" ry="26.74"/>
<text text-anchor="middle" x="169" y="-479.37" font-family="Times New Roman,serif" font-size="14.00">[85..8f)</text>
<text text-anchor="middle" x="169" y="-464.37" font-family="Times New Roman,serif" font-size="14.00">0.00</text>
</g>
<!-- BB6&#45;&gt;BB7 -->
<g id="edge10" class="edge">
<title>BB6&#45;&gt;BB7</title>
<path fill="none" stroke="black" d="M205.79,-539.87C200.38,-530.55 194.11,-519.77 188.3,-509.77"/>
<polygon fill="black" stroke="black" points="191.18,-507.77 183.13,-500.88 185.13,-511.28 191.18,-507.77"/>
</g>
<!-- BB12 -->
<g id="node13" class="node">
<title>BB12</title>
<ellipse fill="none" stroke="black" cx="290" cy="-475.57" rx="43.27" ry="26.74"/>
<text text-anchor="middle" x="290" y="-479.37" font-family="Times New Roman,serif" font-size="14.00">[b3..c0)</text>
<text text-anchor="middle" x="290" y="-464.37" font-family="Times New Roman,serif" font-size="14.00">0.14</text>
</g>
<!-- BB6&#45;&gt;BB12 -->
<g id="edge9" class="edge">
<title>BB6&#45;&gt;BB12</title>
<path fill="none" stroke="black" d="M238.76,-540.8C246.83,-530.69 256.37,-518.72 265.03,-507.87"/>
<polygon fill="black" stroke="black" points="267.93,-509.84 271.43,-499.84 262.46,-505.48 267.93,-509.84"/>
</g>
<!-- BB8 -->
<g id="node9" class="node">
<title>BB8</title>
<ellipse fill="none" stroke="black" cx="69" cy="-385.83" rx="40.11" ry="26.74"/>
<text text-anchor="middle" x="69" y="-389.63" font-family="Times New Roman,serif" font-size="14.00">[8f..a2)</text>
<text text-anchor="middle" x="69" y="-374.63" font-family="Times New Roman,serif" font-size="14.00">0.00</text>
</g>
<!-- BB7&#45;&gt;BB8 -->
<g id="edge12" class="edge">
<title>BB7&#45;&gt;BB8</title>
<path fill="none" stroke="black" d="M145.05,-453.55C131.69,-441.83 114.89,-427.09 100.48,-414.45"/>
<polygon fill="black" stroke="black" points="102.58,-411.64 92.76,-407.67 97.97,-416.9 102.58,-411.64"/>
</g>
<!-- BB9 -->
<g id="node10" class="node">
<title>BB9</title>
<ellipse fill="none" stroke="black" cx="169" cy="-385.83" rx="41.94" ry="26.74"/>
<text text-anchor="middle" x="169" y="-389.63" font-family="Times New Roman,serif" font-size="14.00">[a2..a7)</text>
<text text-anchor="middle" x="169" y="-374.63" font-family="Times New Roman,serif" font-size="14.00">0.00</text>
</g>
<!-- BB7&#45;&gt;BB9 -->
<g id="edge11" class="edge">
<title>BB7&#45;&gt;BB9</title>
<path fill="none" stroke="black" d="M169,-448.25C169,-440.28 169,-431.39 169,-422.9"/>
<polygon fill="black" stroke="black" points="172.5,-422.83 169,-412.83 165.5,-422.83 172.5,-422.83"/>
</g>
<!-- BB8&#45;&gt;BB9 -->
<g id="edge13" class="edge">
<title>BB8&#45;&gt;BB9</title>
<path fill="none" stroke="black" d="M109.62,-385.83C112.1,-385.83 114.58,-385.83 117.06,-385.83"/>
<polygon fill="black" stroke="black" points="117.25,-389.33 127.25,-385.83 117.25,-382.33 117.25,-389.33"/>
</g>
<!-- BB10 -->
<g id="node11" class="node">
<title>BB10</title>
<ellipse fill="none" stroke="black" cx="69" cy="-296.09" rx="41.02" ry="26.74"/>
<text text-anchor="middle" x="69" y="-299.89" font-family="Times New Roman,serif" font-size="14.00">[a7..ae)</text>
<text text-anchor="middle" x="69" y="-284.89" font-family="Times New Roman,serif" font-size="14.00">0.00</text>
</g>
<!-- BB9&#45;&gt;BB10 -->
<g id="edge15" class="edge">
<title>BB9&#45;&gt;BB10</title>
<path fill="none" stroke="black" d="M145.05,-363.81C131.79,-352.18 115.13,-337.57 100.8,-324.99"/>
<polygon fill="black" stroke="black" points="102.93,-322.2 93.1,-318.24 98.31,-327.47 102.93,-322.2"/>
</g>
<!-- BB11 -->
<g id="node12" class="node">
<title>BB11</title>
<ellipse fill="none" stroke="black" cx="170" cy="-296.09" rx="41.94" ry="26.74"/>
<text text-anchor="middle" x="170" y="-299.89" font-family="Times New Roman,serif" font-size="14.00">[ae..b3)</text>
<text text-anchor="middle" x="170" y="-284.89" font-family="Times New Roman,serif" font-size="14.00">0.00</text>
</g>
<!-- BB9&#45;&gt;BB11 -->
<g id="edge14" class="edge">
<title>BB9&#45;&gt;BB11</title>
<path fill="none" stroke="black" d="M169.3,-358.51C169.39,-350.54 169.49,-341.65 169.59,-333.16"/>
<polygon fill="black" stroke="black" points="173.09,-333.13 169.7,-323.09 166.09,-333.05 173.09,-333.13"/>
</g>
<!-- BB10&#45;&gt;BB11 -->
<g id="edge17" class="edge">
<title>BB10&#45;&gt;BB11</title>
<path fill="none" stroke="black" d="M110.03,-296.09C112.63,-296.09 115.22,-296.09 117.82,-296.09"/>
<polygon fill="black" stroke="black" points="117.83,-299.59 127.83,-296.09 117.83,-292.59 117.83,-299.59"/>
</g>
<!-- BB25 -->
<g id="node26" class="node">
<title>BB25</title>
<ellipse fill="none" stroke="black" cx="148" cy="-206.35" rx="52.15" ry="26.74"/>
<text text-anchor="middle" x="148" y="-210.15" font-family="Times New Roman,serif" font-size="14.00">[160..165)</text>
<text text-anchor="middle" x="148" y="-195.15" font-family="Times New Roman,serif" font-size="14.00">0.00</text>
</g>
<!-- BB10&#45;&gt;BB25 -->
<g id="edge16" class="edge">
<title>BB10&#45;&gt;BB25</title>
<path fill="none" stroke="black" d="M89.34,-272.5C98.63,-262.18 109.78,-249.8 119.85,-238.61"/>
<polygon fill="black" stroke="black" points="122.53,-240.87 126.62,-231.1 117.33,-236.19 122.53,-240.87"/>
</g>
<!-- BB11&#45;&gt;BB12 -->
<g id="edge18" class="edge">
<title>BB11&#45;&gt;BB12</title>
<path fill="none" stroke="black" d="M189.76,-320.02C199.28,-331.44 210.64,-345.62 220,-358.96 238.8,-385.75 257.9,-417.67 271.38,-441.17"/>
<polygon fill="black" stroke="black" points="268.45,-443.1 276.44,-450.06 274.54,-439.63 268.45,-443.1"/>
</g>
<!-- BB13 -->
<g id="node14" class="node">
<title>BB13</title>
<ellipse fill="none" stroke="black" cx="309" cy="-385.83" rx="41.94" ry="26.74"/>
<text text-anchor="middle" x="309" y="-389.63" font-family="Times New Roman,serif" font-size="14.00">[c0..ca)</text>
<text text-anchor="middle" x="309" y="-374.63" font-family="Times New Roman,serif" font-size="14.00">0.00</text>
</g>
<!-- BB12&#45;&gt;BB13 -->
<g id="edge20" class="edge">
<title>BB12&#45;&gt;BB13</title>
<path fill="none" stroke="black" d="M295.6,-448.72C297.38,-440.51 299.37,-431.28 301.28,-422.5"/>
<polygon fill="black" stroke="black" points="304.75,-423.01 303.44,-412.5 297.9,-421.53 304.75,-423.01"/>
</g>
<!-- BB18 -->
<g id="node19" class="node">
<title>BB18</title>
<ellipse fill="none" stroke="black" cx="482" cy="-385.83" rx="45.92" ry="26.74"/>
<text text-anchor="middle" x="482" y="-389.63" font-family="Times New Roman,serif" font-size="14.00">[f4..116)</text>
<text text-anchor="middle" x="482" y="-374.63" font-family="Times New Roman,serif" font-size="14.00">0.14</text>
</g>
<!-- BB12&#45;&gt;BB18 -->
<g id="edge19" class="edge">
<title>BB12&#45;&gt;BB18</title>
<path fill="none" stroke="black" d="M324.33,-458.88C355.78,-444.51 402.54,-423.14 436.98,-407.4"/>
<polygon fill="black" stroke="black" points="438.7,-410.46 446.35,-403.12 435.79,-404.1 438.7,-410.46"/>
</g>
<!-- BB14 -->
<g id="node15" class="node">
<title>BB14</title>
<ellipse fill="none" stroke="black" cx="271" cy="-296.09" rx="41.94" ry="26.74"/>
<text text-anchor="middle" x="271" y="-299.89" font-family="Times New Roman,serif" font-size="14.00">[ca..e4)</text>
<text text-anchor="middle" x="271" y="-284.89" font-family="Times New Roman,serif" font-size="14.00">0.00</text>
</g>
<!-- BB13&#45;&gt;BB14 -->
<g id="edge22" class="edge">
<title>BB13&#45;&gt;BB14</title>
<path fill="none" stroke="black" d="M298.01,-359.45C294.23,-350.74 289.94,-340.83 285.91,-331.52"/>
<polygon fill="black" stroke="black" points="289.02,-329.89 281.84,-322.11 282.6,-332.68 289.02,-329.89"/>
</g>
<!-- BB15 -->
<g id="node16" class="node">
<title>BB15</title>
<ellipse fill="none" stroke="black" cx="372" cy="-296.09" rx="41.94" ry="26.74"/>
<text text-anchor="middle" x="372" y="-299.89" font-family="Times New Roman,serif" font-size="14.00">[e4..e9)</text>
<text text-anchor="middle" x="372" y="-284.89" font-family="Times New Roman,serif" font-size="14.00">0.00</text>
</g>
<!-- BB13&#45;&gt;BB15 -->
<g id="edge21" class="edge">
<title>BB13&#45;&gt;BB15</title>
<path fill="none" stroke="black" d="M326.22,-360.86C333.29,-351.01 341.58,-339.46 349.15,-328.92"/>
<polygon fill="black" stroke="black" points="352.03,-330.9 355.02,-320.73 346.35,-326.81 352.03,-330.9"/>
</g>
<!-- BB14&#45;&gt;BB15 -->
<g id="edge23" class="edge">
<title>BB14&#45;&gt;BB15</title>
<path fill="none" stroke="black" d="M312.82,-296.09C315.14,-296.09 317.45,-296.09 319.77,-296.09"/>
<polygon fill="black" stroke="black" points="319.93,-299.59 329.93,-296.09 319.93,-292.59 319.93,-299.59"/>
</g>
<!-- BB16 -->
<g id="node17" class="node">
<title>BB16</title>
<ellipse fill="none" stroke="black" cx="306" cy="-206.35" rx="41.94" ry="26.74"/>
<text text-anchor="middle" x="306" y="-210.15" font-family="Times New Roman,serif" font-size="14.00">[e9..ed)</text>
<text text-anchor="middle" x="306" y="-195.15" font-family="Times New Roman,serif" font-size="14.00">0.00</text>
</g>
<!-- BB15&#45;&gt;BB16 -->
<g id="edge25" class="edge">
<title>BB15&#45;&gt;BB16</title>
<path fill="none" stroke="black" d="M354.31,-271.58C346.84,-261.64 338.02,-249.92 329.98,-239.23"/>
<polygon fill="black" stroke="black" points="332.54,-236.82 323.74,-230.93 326.95,-241.02 332.54,-236.82"/>
</g>
<!-- BB17 -->
<g id="node18" class="node">
<title>BB17</title>
<ellipse fill="none" stroke="black" cx="407" cy="-206.35" rx="41.02" ry="26.74"/>
<text text-anchor="middle" x="407" y="-210.15" font-family="Times New Roman,serif" font-size="14.00">[ed..f4)</text>
<text text-anchor="middle" x="407" y="-195.15" font-family="Times New Roman,serif" font-size="14.00">0.00</text>
</g>
<!-- BB15&#45;&gt;BB17 -->
<g id="edge24" class="edge">
<title>BB15&#45;&gt;BB17</title>
<path fill="none" stroke="black" d="M382.12,-269.71C385.57,-261.07 389.48,-251.26 393.17,-242.02"/>
<polygon fill="black" stroke="black" points="396.44,-243.26 396.9,-232.67 389.94,-240.66 396.44,-243.26"/>
</g>
<!-- BB16&#45;&gt;BB17 -->
<g id="edge27" class="edge">
<title>BB16&#45;&gt;BB17</title>
<path fill="none" stroke="black" d="M347.82,-206.35C350.45,-206.35 353.08,-206.35 355.71,-206.35"/>
<polygon fill="black" stroke="black" points="355.85,-209.85 365.85,-206.35 355.85,-202.85 355.85,-209.85"/>
</g>
<!-- BB16&#45;&gt;BB25 -->
<g id="edge26" class="edge">
<title>BB16&#45;&gt;BB25</title>
<path fill="none" stroke="black" d="M263.95,-206.35C246.26,-206.35 228.57,-206.35 210.88,-206.35"/>
<polygon fill="black" stroke="black" points="210.46,-202.85 200.46,-206.35 210.46,-209.85 210.46,-202.85"/>
</g>
<!-- BB17&#45;&gt;BB18 -->
<g id="edge28" class="edge">
<title>BB17&#45;&gt;BB18</title>
<path fill="none" stroke="black" d="M417.6,-232.44C430.61,-263.22 452.72,-315.54 467.34,-350.14"/>
<polygon fill="black" stroke="black" points="464.14,-351.55 471.25,-359.4 470.59,-348.83 464.14,-351.55"/>
</g>
<!-- BB19 -->
<g id="node20" class="node">
<title>BB19</title>
<ellipse fill="none" stroke="black" cx="522" cy="-296.09" rx="52.15" ry="26.74"/>
<text text-anchor="middle" x="522" y="-299.89" font-family="Times New Roman,serif" font-size="14.00">[116..129)</text>
<text text-anchor="middle" x="522" y="-284.89" font-family="Times New Roman,serif" font-size="14.00">0.00</text>
</g>
<!-- BB18&#45;&gt;BB19 -->
<g id="edge30" class="edge">
<title>BB18&#45;&gt;BB19</title>
<path fill="none" stroke="black" d="M493.57,-359.45C497.51,-350.81 501.98,-341 506.19,-331.76"/>
<polygon fill="black" stroke="black" points="509.49,-332.96 510.46,-322.41 503.12,-330.06 509.49,-332.96"/>
</g>
<!-- BB20 -->
<g id="node21" class="node">
<title>BB20</title>
<ellipse fill="none" stroke="black" cx="645" cy="-296.09" rx="52.15" ry="26.74"/>
<text text-anchor="middle" x="645" y="-299.89" font-family="Times New Roman,serif" font-size="14.00">[129..133)</text>
<text text-anchor="middle" x="645" y="-284.89" font-family="Times New Roman,serif" font-size="14.00">0.14</text>
</g>
<!-- BB18&#45;&gt;BB20 -->
<g id="edge29" class="edge">
<title>BB18&#45;&gt;BB20</title>
<path fill="none" stroke="black" d="M514.99,-367.07C539.72,-353.76 573.84,-335.39 600.92,-320.82"/>
<polygon fill="black" stroke="black" points="602.66,-323.86 609.81,-316.03 599.34,-317.69 602.66,-323.86"/>
</g>
<!-- BB19&#45;&gt;BB20 -->
<g id="edge31" class="edge">
<title>BB19&#45;&gt;BB20</title>
<path fill="none" stroke="black" d="M574.37,-296.09C577.03,-296.09 579.68,-296.09 582.34,-296.09"/>
<polygon fill="black" stroke="black" points="582.58,-299.59 592.58,-296.09 582.58,-292.59 582.58,-299.59"/>
</g>
<!-- BB21 -->
<g id="node22" class="node">
<title>BB21</title>
<ellipse fill="none" stroke="black" cx="562" cy="-206.35" rx="52.15" ry="26.74"/>
<text text-anchor="middle" x="562" y="-210.15" font-family="Times New Roman,serif" font-size="14.00">[133..14d)</text>
<text text-anchor="middle" x="562" y="-195.15" font-family="Times New Roman,serif" font-size="14.00">0.00</text>
</g>
<!-- BB20&#45;&gt;BB21 -->
<g id="edge33" class="edge">
<title>BB20&#45;&gt;BB21</title>
<path fill="none" stroke="black" d="M622.76,-271.58C613.08,-261.35 601.61,-249.22 591.26,-238.28"/>
<polygon fill="black" stroke="black" points="593.72,-235.79 584.3,-230.93 588.63,-240.6 593.72,-235.79"/>
</g>
<!-- BB22 -->
<g id="node23" class="node">
<title>BB22</title>
<ellipse fill="none" stroke="black" cx="685" cy="-206.35" rx="52.15" ry="26.74"/>
<text text-anchor="middle" x="685" y="-210.15" font-family="Times New Roman,serif" font-size="14.00">[14d..154)</text>
<text text-anchor="middle" x="685" y="-195.15" font-family="Times New Roman,serif" font-size="14.00">0.14</text>
</g>
<!-- BB20&#45;&gt;BB22 -->
<g id="edge32" class="edge">
<title>BB20&#45;&gt;BB22</title>
<path fill="none" stroke="black" d="M656.57,-269.71C660.51,-261.07 664.98,-251.26 669.19,-242.02"/>
<polygon fill="black" stroke="black" points="672.49,-243.22 673.46,-232.67 666.12,-240.32 672.49,-243.22"/>
</g>
<!-- BB21&#45;&gt;BB22 -->
<g id="edge34" class="edge">
<title>BB21&#45;&gt;BB22</title>
<path fill="none" stroke="black" d="M614.37,-206.35C617.03,-206.35 619.68,-206.35 622.34,-206.35"/>
<polygon fill="black" stroke="black" points="622.58,-209.85 632.58,-206.35 622.58,-202.85 622.58,-209.85"/>
</g>
<!-- BB22&#45;&gt;BB6 -->
<g id="edge35" class="edge">
<title>BB22&#45;&gt;BB6</title>
<path fill="none" stroke="black" d="M698.96,-232.59C710.56,-257.3 722.71,-295.16 706,-322.96 610.4,-481.97 374.26,-539.16 270.4,-557.09"/>
<polygon fill="black" stroke="black" points="269.76,-553.65 260.47,-558.75 270.91,-560.55 269.76,-553.65"/>
</g>
<!-- BB23 -->
<g id="node24" class="node">
<title>BB23</title>
<ellipse fill="none" stroke="black" cx="384" cy="-116.61" rx="52.15" ry="26.74"/>
<text text-anchor="middle" x="384" y="-120.41" font-family="Times New Roman,serif" font-size="14.00">[154..158)</text>
<text text-anchor="middle" x="384" y="-105.41" font-family="Times New Roman,serif" font-size="14.00">0.14</text>
</g>
<!-- BB22&#45;&gt;BB23 -->
<g id="edge36" class="edge">
<title>BB22&#45;&gt;BB23</title>
<path fill="none" stroke="black" d="M646.3,-188.21C638.65,-185.11 630.63,-182.04 623,-179.48 562,-158.97 490.33,-141.24 441.5,-130.08"/>
<polygon fill="black" stroke="black" points="442.27,-126.66 431.74,-127.86 440.72,-133.49 442.27,-126.66"/>
</g>
<!-- BB24 -->
<g id="node25" class="node">
<title>BB24</title>
<ellipse fill="none" stroke="black" cx="58" cy="-26.87" rx="52.15" ry="26.74"/>
<text text-anchor="middle" x="58" y="-30.67" font-family="Times New Roman,serif" font-size="14.00">[158..160)</text>
<text text-anchor="middle" x="58" y="-15.67" font-family="Times New Roman,serif" font-size="14.00">0.14</text>
</g>
<!-- BB23&#45;&gt;BB24 -->
<g id="edge38" class="edge">
<title>BB23&#45;&gt;BB24</title>
<path fill="none" stroke="black" d="M345.34,-98.33C337.69,-95.24 329.66,-92.22 322,-89.74 252.78,-67.36 170.92,-49.45 116.92,-38.77"/>
<polygon fill="black" stroke="black" points="117.32,-35.29 106.83,-36.8 115.97,-42.16 117.32,-35.29"/>
</g>
<!-- BB23&#45;&gt;BB25 -->
<g id="edge37" class="edge">
<title>BB23&#45;&gt;BB25</title>
<path fill="none" stroke="black" d="M344.44,-134.49C337.01,-137.55 329.29,-140.67 322,-143.48 281.4,-159.16 234.94,-175.6 200.24,-187.59"/>
<polygon fill="black" stroke="black" points="199.1,-184.29 190.78,-190.86 201.38,-190.91 199.1,-184.29"/>
</g>
<!-- BB24&#45;&gt;BB6 -->
<g id="edge39" class="edge">
<title>BB24&#45;&gt;BB6</title>
<path fill="none" stroke="black" d="M44.25,-52.89C27.1,-86.52 0,-148.62 0,-205.35 0,-386.83 0,-386.83 0,-386.83 0,-475.05 108.49,-526.89 173.1,-549.94"/>
<polygon fill="black" stroke="black" points="172.09,-553.29 182.68,-553.26 174.38,-546.68 172.09,-553.29"/>
</g>
<!-- BB24&#45;&gt;BB25 -->
<g id="edge40" class="edge">
<title>BB24&#45;&gt;BB25</title>
<path fill="none" stroke="black" d="M57.35,-53.85C57.83,-78.42 61.45,-115.59 77,-143.48 84.5,-156.94 96.1,-168.88 107.77,-178.58"/>
<polygon fill="black" stroke="black" points="105.79,-181.48 115.81,-184.94 110.13,-175.99 105.79,-181.48"/>
</g>
<!-- BB26 -->
<g id="node27" class="node">
<title>BB26</title>
<ellipse fill="none" stroke="black" cx="138" cy="-116.61" rx="52.15" ry="26.74"/>
<text text-anchor="middle" x="138" y="-120.41" font-family="Times New Roman,serif" font-size="14.00">[165..171)</text>
<text text-anchor="middle" x="138" y="-105.41" font-family="Times New Roman,serif" font-size="14.00">0.00</text>
</g>
<!-- BB25&#45;&gt;BB26 -->
<g id="edge42" class="edge">
<title>BB25&#45;&gt;BB26</title>
<path fill="none" stroke="black" d="M145.05,-179.5C144.13,-171.36 143.08,-162.22 142.09,-153.51"/>
<polygon fill="black" stroke="black" points="145.57,-153.12 140.96,-143.58 138.61,-153.91 145.57,-153.12"/>
</g>
<!-- BB27 -->
<g id="node28" class="node">
<title>BB27</title>
<ellipse fill="none" stroke="black" cx="261" cy="-116.61" rx="52.15" ry="26.74"/>
<text text-anchor="middle" x="261" y="-120.41" font-family="Times New Roman,serif" font-size="14.00">[171..172)</text>
<text text-anchor="middle" x="261" y="-105.41" font-family="Times New Roman,serif" font-size="14.00">0.00</text>
</g>
<!-- BB25&#45;&gt;BB27 -->
<g id="edge41" class="edge">
<title>BB25&#45;&gt;BB27</title>
<path fill="none" stroke="black" d="M176.22,-183.44C190.92,-172.03 209.05,-157.94 224.78,-145.74"/>
<polygon fill="black" stroke="black" points="226.99,-148.45 232.74,-139.55 222.7,-142.92 226.99,-148.45"/>
</g>
<!-- BB26&#45;&gt;BB27 -->
<g id="edge43" class="edge">
<title>BB26&#45;&gt;BB27</title>
<path fill="none" stroke="black" d="M190.37,-116.61C193.03,-116.61 195.68,-116.61 198.34,-116.61"/>
<polygon fill="black" stroke="black" points="198.58,-120.11 208.58,-116.61 198.58,-113.11 198.58,-120.11"/>
</g>
</g>
</svg>
