<?xml version="1.0" encoding="UTF-8" standalone="no"?>
<!DOCTYPE svg PUBLIC "-//W3C//DTD SVG 1.1//EN"
 "http://www.w3.org/Graphics/SVG/1.1/DTD/svg11.dtd">
<!-- Generated by graphviz version 2.47.0 (20210316.0004)
 -->
<!-- Title: G Pages: 1 -->
<svg width="702pt" height="897pt"
 viewBox="0.00 0.00 702.32 897.17" xmlns="http://www.w3.org/2000/svg" xmlns:xlink="http://www.w3.org/1999/xlink">
<g id="graph0" class="graph" transform="scale(1 1) rotate(0) translate(4 893.17)">
<title>G</title>
<polygon fill="white" stroke="transparent" points="-4,4 -4,-893.17 698.32,-893.17 698.32,4 -4,4"/>
<!-- BB0 -->
<g id="node1" class="node">
<title>BB0</title>
<ellipse fill="none" stroke="black" cx="118.09" cy="-841.08" rx="103.48" ry="48.17"/>
<text text-anchor="middle" x="118.09" y="-859.88" font-family="Times New Roman,serif" font-size="14.00">[0..2c)</text>
<text text-anchor="middle" x="118.09" y="-844.88" font-family="Times New Roman,serif" font-size="14.00">Count: 1</text>
<text text-anchor="middle" x="118.09" y="-829.88" font-family="Times New Roman,serif" font-size="14.00">Normalized count: 1.00</text>
<text text-anchor="middle" x="118.09" y="-814.88" font-family="Times New Roman,serif" font-size="14.00">Samples weight: 0.00</text>
</g>
<!-- BB2 -->
<g id="node3" class="node">
<title>BB2</title>
<ellipse fill="none" stroke="black" cx="118.09" cy="-708.92" rx="118.17" ry="48.17"/>
<text text-anchor="middle" x="118.09" y="-727.72" font-family="Times New Roman,serif" font-size="14.00">[37..3c)</text>
<text text-anchor="middle" x="118.09" y="-712.72" font-family="Times New Roman,serif" font-size="14.00">Count: 3337</text>
<text text-anchor="middle" x="118.09" y="-697.72" font-family="Times New Roman,serif" font-size="14.00">Normalized count: 3337.00</text>
<text text-anchor="middle" x="118.09" y="-682.72" font-family="Times New Roman,serif" font-size="14.00">Samples weight: 0.00</text>
</g>
<!-- BB0&#45;&gt;BB2 -->
<g id="edge1" class="edge">
<title>BB0&#45;&gt;BB2</title>
<path fill="none" stroke="black" d="M118.09,-792.72C118.09,-784.45 118.09,-775.77 118.09,-767.27"/>
<polygon fill="black" stroke="black" points="121.59,-767.02 118.09,-757.02 114.59,-767.02 121.59,-767.02"/>
</g>
<!-- BB1 -->
<g id="node2" class="node">
<title>BB1</title>
<ellipse fill="none" stroke="black" cx="118.09" cy="-576.75" rx="118.17" ry="48.17"/>
<text text-anchor="middle" x="118.09" y="-595.55" font-family="Times New Roman,serif" font-size="14.00">[2c..37)</text>
<text text-anchor="middle" x="118.09" y="-580.55" font-family="Times New Roman,serif" font-size="14.00">Count: 3336</text>
<text text-anchor="middle" x="118.09" y="-565.55" font-family="Times New Roman,serif" font-size="14.00">Normalized count: 3336.00</text>
<text text-anchor="middle" x="118.09" y="-550.55" font-family="Times New Roman,serif" font-size="14.00">Samples weight: 0.00</text>
</g>
<!-- BB1&#45;&gt;BB2 -->
<g id="edge2" class="edge">
<title>BB1&#45;&gt;BB2</title>
<path fill="none" stroke="black" d="M124.6,-624.86C124.82,-633.12 124.89,-641.8 124.8,-650.3"/>
<polygon fill="black" stroke="black" points="121.29,-650.49 124.61,-660.55 128.29,-650.62 121.29,-650.49"/>
</g>
<!-- BB2&#45;&gt;BB1 -->
<g id="edge3" class="edge">
<title>BB2&#45;&gt;BB1</title>
<path fill="none" stroke="black" d="M111.56,-660.55C111.35,-652.29 111.29,-643.6 111.38,-635.1"/>
<polygon fill="black" stroke="black" points="114.88,-634.92 111.57,-624.86 107.88,-634.79 114.88,-634.92"/>
</g>
<!-- BB3 -->
<g id="node4" class="node">
<title>BB3</title>
<ellipse fill="none" stroke="black" cx="357.09" cy="-576.75" rx="103.48" ry="48.17"/>
<text text-anchor="middle" x="357.09" y="-595.55" font-family="Times New Roman,serif" font-size="14.00">[3c..45)</text>
<text text-anchor="middle" x="357.09" y="-580.55" font-family="Times New Roman,serif" font-size="14.00">Count: 1</text>
<text text-anchor="middle" x="357.09" y="-565.55" font-family="Times New Roman,serif" font-size="14.00">Normalized count: 1.00</text>
<text text-anchor="middle" x="357.09" y="-550.55" font-family="Times New Roman,serif" font-size="14.00">Samples weight: 0.00</text>
</g>
<!-- BB2&#45;&gt;BB3 -->
<g id="edge4" class="edge">
<title>BB2&#45;&gt;BB3</title>
<path fill="none" stroke="black" d="M187.86,-669.92C217.45,-653.8 252,-634.98 282.14,-618.57"/>
<polygon fill="black" stroke="black" points="283.82,-621.64 290.92,-613.78 280.47,-615.49 283.82,-621.64"/>
</g>
<!-- BB8 -->
<g id="node9" class="node">
<title>BB8</title>
<ellipse fill="none" stroke="black" cx="357.09" cy="-444.58" rx="113.27" ry="48.17"/>
<text text-anchor="middle" x="357.09" y="-463.38" font-family="Times New Roman,serif" font-size="14.00">[c0..c5)</text>
<text text-anchor="middle" x="357.09" y="-448.38" font-family="Times New Roman,serif" font-size="14.00">Count: 252</text>
<text text-anchor="middle" x="357.09" y="-433.38" font-family="Times New Roman,serif" font-size="14.00">Normalized count: 252.00</text>
<text text-anchor="middle" x="357.09" y="-418.38" font-family="Times New Roman,serif" font-size="14.00">Samples weight: 0.00</text>
</g>
<!-- BB3&#45;&gt;BB8 -->
<g id="edge5" class="edge">
<title>BB3&#45;&gt;BB8</title>
<path fill="none" stroke="black" d="M357.09,-528.39C357.09,-520.12 357.09,-511.44 357.09,-502.93"/>
<polygon fill="black" stroke="black" points="360.59,-502.69 357.09,-492.69 353.59,-502.69 360.59,-502.69"/>
</g>
<!-- BB4 -->
<g id="node5" class="node">
<title>BB4</title>
<ellipse fill="none" stroke="black" cx="357.09" cy="-312.42" rx="113.27" ry="48.17"/>
<text text-anchor="middle" x="357.09" y="-331.22" font-family="Times New Roman,serif" font-size="14.00">[45..4d)</text>
<text text-anchor="middle" x="357.09" y="-316.22" font-family="Times New Roman,serif" font-size="14.00">Count: 251</text>
<text text-anchor="middle" x="357.09" y="-301.22" font-family="Times New Roman,serif" font-size="14.00">Normalized count: 251.00</text>
<text text-anchor="middle" x="357.09" y="-286.22" font-family="Times New Roman,serif" font-size="14.00">Samples weight: 0.00</text>
</g>
<!-- BB6 -->
<g id="node7" class="node">
<title>BB6</title>
<ellipse fill="none" stroke="black" cx="390.09" cy="-180.25" rx="127.06" ry="48.17"/>
<text text-anchor="middle" x="390.09" y="-199.05" font-family="Times New Roman,serif" font-size="14.00">[89..90)</text>
<text text-anchor="middle" x="390.09" y="-184.05" font-family="Times New Roman,serif" font-size="14.00">Count: 837336</text>
<text text-anchor="middle" x="390.09" y="-169.05" font-family="Times New Roman,serif" font-size="14.00">Normalized count: 837336.00</text>
<text text-anchor="middle" x="390.09" y="-154.05" font-family="Times New Roman,serif" font-size="14.00">Samples weight: 0.50</text>
</g>
<!-- BB4&#45;&gt;BB6 -->
<g id="edge6" class="edge">
<title>BB4&#45;&gt;BB6</title>
<path fill="none" stroke="black" d="M369,-264.42C371.17,-255.85 373.46,-246.83 375.7,-238.01"/>
<polygon fill="black" stroke="black" points="379.13,-238.73 378.19,-228.17 372.34,-237.01 379.13,-238.73"/>
</g>
<!-- BB5 -->
<g id="node6" class="node">
<title>BB5</title>
<ellipse fill="none" stroke="black" cx="416.09" cy="-48.08" rx="127.06" ry="48.17"/>
<text text-anchor="middle" x="416.09" y="-66.88" font-family="Times New Roman,serif" font-size="14.00">[4d..89)</text>
<text text-anchor="middle" x="416.09" y="-51.88" font-family="Times New Roman,serif" font-size="14.00">Count: 837085</text>
<text text-anchor="middle" x="416.09" y="-36.88" font-family="Times New Roman,serif" font-size="14.00">Normalized count: 837085.00</text>
<text text-anchor="middle" x="416.09" y="-21.88" font-family="Times New Roman,serif" font-size="14.00">Samples weight: 0.50</text>
</g>
<!-- BB5&#45;&gt;BB6 -->
<g id="edge7" class="edge">
<title>BB5&#45;&gt;BB6</title>
<path fill="none" stroke="black" d="M413.15,-96.44C411.69,-104.83 409.99,-113.64 408.17,-122.26"/>
<polygon fill="black" stroke="black" points="404.7,-121.74 405.99,-132.26 411.54,-123.24 404.7,-121.74"/>
</g>
<!-- BB6&#45;&gt;BB5 -->
<g id="edge8" class="edge">
<title>BB6&#45;&gt;BB5</title>
<path fill="none" stroke="black" d="M393.02,-131.89C394.47,-123.53 396.17,-114.75 397.98,-106.15"/>
<polygon fill="black" stroke="black" points="401.44,-106.71 400.16,-96.19 394.61,-105.21 401.44,-106.71"/>
</g>
<!-- BB7 -->
<g id="node8" class="node">
<title>BB7</title>
<ellipse fill="none" stroke="black" cx="158.09" cy="-48.08" rx="113.27" ry="48.17"/>
<text text-anchor="middle" x="158.09" y="-66.88" font-family="Times New Roman,serif" font-size="14.00">[90..c0)</text>
<text text-anchor="middle" x="158.09" y="-51.88" font-family="Times New Roman,serif" font-size="14.00">Count: 251</text>
<text text-anchor="middle" x="158.09" y="-36.88" font-family="Times New Roman,serif" font-size="14.00">Normalized count: 251.00</text>
<text text-anchor="middle" x="158.09" y="-21.88" font-family="Times New Roman,serif" font-size="14.00">Samples weight: 0.00</text>
</g>
<!-- BB6&#45;&gt;BB7 -->
<g id="edge9" class="edge">
<title>BB6&#45;&gt;BB7</title>
<path fill="none" stroke="black" d="M320.16,-140.02C293.08,-124.82 261.99,-107.38 234.33,-91.86"/>
<polygon fill="black" stroke="black" points="235.91,-88.73 225.48,-86.89 232.48,-94.84 235.91,-88.73"/>
</g>
<!-- BB7&#45;&gt;BB8 -->
<g id="edge10" class="edge">
<title>BB7&#45;&gt;BB8</title>
<path fill="none" stroke="black" d="M159.46,-96.35C163.5,-161.35 178.72,-279.45 235.09,-360.5 246.11,-376.35 261.22,-390.08 277.05,-401.54"/>
<polygon fill="black" stroke="black" points="275.17,-404.5 285.38,-407.33 279.17,-398.75 275.17,-404.5"/>
</g>
<!-- BB8&#45;&gt;BB4 -->
<g id="edge11" class="edge">
<title>BB8&#45;&gt;BB4</title>
<path fill="none" stroke="black" d="M357.09,-396.22C357.09,-387.95 357.09,-379.27 357.09,-370.77"/>
<polygon fill="black" stroke="black" points="360.59,-370.52 357.09,-360.52 353.59,-370.52 360.59,-370.52"/>
</g>
<!-- BB9 -->
<g id="node10" class="node">
<title>BB9</title>
<ellipse fill="none" stroke="black" cx="591.09" cy="-312.42" rx="103.48" ry="48.17"/>
<text text-anchor="middle" x="591.09" y="-331.22" font-family="Times New Roman,serif" font-size="14.00">[c5..c8)</text>
<text text-anchor="middle" x="591.09" y="-316.22" font-family="Times New Roman,serif" font-size="14.00">Count: 1</text>
<text text-anchor="middle" x="591.09" y="-301.22" font-family="Times New Roman,serif" font-size="14.00">Normalized count: 1.00</text>
<text text-anchor="middle" x="591.09" y="-286.22" font-family="Times New Roman,serif" font-size="14.00">Samples weight: 0.00</text>
</g>
<!-- BB8&#45;&gt;BB9 -->
<g id="edge12" class="edge">
<title>BB8&#45;&gt;BB9</title>
<path fill="none" stroke="black" d="M424.77,-405.93C453.52,-389.94 487.12,-371.25 516.58,-354.86"/>
<polygon fill="black" stroke="black" points="518.53,-357.78 525.57,-349.86 515.13,-351.66 518.53,-357.78"/>
</g>
</g>
</svg>
