<?xml version="1.0" encoding="UTF-8" standalone="no"?>
<!DOCTYPE svg PUBLIC "-//W3C//DTD SVG 1.1//EN"
 "http://www.w3.org/Graphics/SVG/1.1/DTD/svg11.dtd">
<!-- Generated by graphviz version 2.47.0 (20210316.0004)
 -->
<!-- Title: G Pages: 1 -->
<svg width="886pt" height="633pt"
 viewBox="0.00 0.00 886.48 632.83" xmlns="http://www.w3.org/2000/svg" xmlns:xlink="http://www.w3.org/1999/xlink">
<g id="graph0" class="graph" transform="scale(1 1) rotate(0) translate(4 628.83)">
<title>G</title>
<polygon fill="white" stroke="transparent" points="-4,4 -4,-628.83 882.48,-628.83 882.48,4 -4,4"/>
<!-- BB0 -->
<g id="node1" class="node">
<title>BB0</title>
<ellipse fill="none" stroke="black" cx="441.24" cy="-576.75" rx="103.48" ry="48.17"/>
<text text-anchor="middle" x="441.24" y="-595.55" font-family="Times New Roman,serif" font-size="14.00">[0..18)</text>
<text text-anchor="middle" x="441.24" y="-580.55" font-family="Times New Roman,serif" font-size="14.00">Count: 39</text>
<text text-anchor="middle" x="441.24" y="-565.55" font-family="Times New Roman,serif" font-size="14.00">Normalized count: 1.00</text>
<text text-anchor="middle" x="441.24" y="-550.55" font-family="Times New Roman,serif" font-size="14.00">Samples weight: 0.03</text>
</g>
<!-- BB1 -->
<g id="node2" class="node">
<title>BB1</title>
<ellipse fill="none" stroke="black" cx="441.24" cy="-444.58" rx="108.38" ry="48.17"/>
<text text-anchor="middle" x="441.24" y="-463.38" font-family="Times New Roman,serif" font-size="14.00">[18..31)</text>
<text text-anchor="middle" x="441.24" y="-448.38" font-family="Times New Roman,serif" font-size="14.00">Count: 480</text>
<text text-anchor="middle" x="441.24" y="-433.38" font-family="Times New Roman,serif" font-size="14.00">Normalized count: 12.31</text>
<text text-anchor="middle" x="441.24" y="-418.38" font-family="Times New Roman,serif" font-size="14.00">Samples weight: 0.32</text>
</g>
<!-- BB0&#45;&gt;BB1 -->
<g id="edge1" class="edge">
<title>BB0&#45;&gt;BB1</title>
<path fill="none" stroke="black" d="M441.24,-528.39C441.24,-520.12 441.24,-511.44 441.24,-502.93"/>
<polygon fill="black" stroke="black" points="444.74,-502.69 441.24,-492.69 437.74,-502.69 444.74,-502.69"/>
</g>
<!-- BB2 -->
<g id="node3" class="node">
<title>BB2</title>
<ellipse fill="none" stroke="black" cx="286.24" cy="-312.42" rx="108.38" ry="48.17"/>
<text text-anchor="middle" x="286.24" y="-331.22" font-family="Times New Roman,serif" font-size="14.00">[31..49)</text>
<text text-anchor="middle" x="286.24" y="-316.22" font-family="Times New Roman,serif" font-size="14.00">Count: 398</text>
<text text-anchor="middle" x="286.24" y="-301.22" font-family="Times New Roman,serif" font-size="14.00">Normalized count: 10.21</text>
<text text-anchor="middle" x="286.24" y="-286.22" font-family="Times New Roman,serif" font-size="14.00">Samples weight: 0.26</text>
</g>
<!-- BB1&#45;&gt;BB2 -->
<g id="edge3" class="edge">
<title>BB1&#45;&gt;BB2</title>
<path fill="none" stroke="black" d="M391.34,-401.68C376.27,-389.02 359.59,-375.02 344.05,-361.97"/>
<polygon fill="black" stroke="black" points="345.95,-358.99 336.04,-355.24 341.45,-364.35 345.95,-358.99"/>
</g>
<!-- BB5 -->
<g id="node6" class="node">
<title>BB5</title>
<ellipse fill="none" stroke="black" cx="591.24" cy="-312.42" rx="103.48" ry="48.17"/>
<text text-anchor="middle" x="591.24" y="-331.22" font-family="Times New Roman,serif" font-size="14.00">[7b..93)</text>
<text text-anchor="middle" x="591.24" y="-316.22" font-family="Times New Roman,serif" font-size="14.00">Count: 82</text>
<text text-anchor="middle" x="591.24" y="-301.22" font-family="Times New Roman,serif" font-size="14.00">Normalized count: 2.10</text>
<text text-anchor="middle" x="591.24" y="-286.22" font-family="Times New Roman,serif" font-size="14.00">Samples weight: 0.05</text>
</g>
<!-- BB1&#45;&gt;BB5 -->
<g id="edge2" class="edge">
<title>BB1&#45;&gt;BB5</title>
<path fill="none" stroke="black" d="M489.94,-401.32C504.51,-388.68 520.59,-374.72 535.57,-361.72"/>
<polygon fill="black" stroke="black" points="538.03,-364.22 543.29,-355.02 533.45,-358.93 538.03,-364.22"/>
</g>
<!-- BB3 -->
<g id="node4" class="node">
<title>BB3</title>
<ellipse fill="none" stroke="black" cx="327.24" cy="-180.25" rx="103.48" ry="48.17"/>
<text text-anchor="middle" x="327.24" y="-199.05" font-family="Times New Roman,serif" font-size="14.00">[49..62)</text>
<text text-anchor="middle" x="327.24" y="-184.05" font-family="Times New Roman,serif" font-size="14.00">Count: 359</text>
<text text-anchor="middle" x="327.24" y="-169.05" font-family="Times New Roman,serif" font-size="14.00">Normalized count: 9.21</text>
<text text-anchor="middle" x="327.24" y="-154.05" font-family="Times New Roman,serif" font-size="14.00">Samples weight: 0.24</text>
</g>
<!-- BB2&#45;&gt;BB3 -->
<g id="edge5" class="edge">
<title>BB2&#45;&gt;BB3</title>
<path fill="none" stroke="black" d="M301.04,-264.42C303.77,-255.76 306.64,-246.63 309.45,-237.72"/>
<polygon fill="black" stroke="black" points="312.79,-238.76 312.46,-228.17 306.11,-236.66 312.79,-238.76"/>
</g>
<!-- BB4 -->
<g id="node5" class="node">
<title>BB4</title>
<ellipse fill="none" stroke="black" cx="103.24" cy="-180.25" rx="103.48" ry="48.17"/>
<text text-anchor="middle" x="103.24" y="-199.05" font-family="Times New Roman,serif" font-size="14.00">[62..7b)</text>
<text text-anchor="middle" x="103.24" y="-184.05" font-family="Times New Roman,serif" font-size="14.00">Count: 39</text>
<text text-anchor="middle" x="103.24" y="-169.05" font-family="Times New Roman,serif" font-size="14.00">Normalized count: 1.00</text>
<text text-anchor="middle" x="103.24" y="-154.05" font-family="Times New Roman,serif" font-size="14.00">Samples weight: 0.03</text>
</g>
<!-- BB2&#45;&gt;BB4 -->
<g id="edge4" class="edge">
<title>BB2&#45;&gt;BB4</title>
<path fill="none" stroke="black" d="M229.84,-271.3C209.99,-257.18 187.55,-241.22 167.13,-226.7"/>
<polygon fill="black" stroke="black" points="169,-223.73 158.82,-220.79 164.94,-229.43 169,-223.73"/>
</g>
<!-- BB3&#45;&gt;BB1 -->
<g id="edge6" class="edge">
<title>BB3&#45;&gt;BB1</title>
<path fill="none" stroke="black" d="M373.89,-223.59C384.97,-235.76 395.73,-249.73 403.24,-264.33 422.78,-302.35 432.28,-349.84 436.89,-386.38"/>
<polygon fill="black" stroke="black" points="433.42,-386.86 438.07,-396.39 440.37,-386.04 433.42,-386.86"/>
</g>
<!-- BB8 -->
<g id="node9" class="node">
<title>BB8</title>
<ellipse fill="none" stroke="black" cx="439.24" cy="-48.08" rx="103.48" ry="48.17"/>
<text text-anchor="middle" x="439.24" y="-66.88" font-family="Times New Roman,serif" font-size="14.00">[c6..11a)</text>
<text text-anchor="middle" x="439.24" y="-51.88" font-family="Times New Roman,serif" font-size="14.00">Count: 39</text>
<text text-anchor="middle" x="439.24" y="-36.88" font-family="Times New Roman,serif" font-size="14.00">Normalized count: 1.00</text>
<text text-anchor="middle" x="439.24" y="-21.88" font-family="Times New Roman,serif" font-size="14.00">Samples weight: 0.03</text>
</g>
<!-- BB4&#45;&gt;BB8 -->
<g id="edge7" class="edge">
<title>BB4&#45;&gt;BB8</title>
<path fill="none" stroke="black" d="M178.36,-147.15C190.65,-142.05 203.27,-136.9 215.24,-132.17 258.98,-114.87 307.93,-96.59 348.89,-81.59"/>
<polygon fill="black" stroke="black" points="350.12,-84.87 358.31,-78.15 347.72,-78.3 350.12,-84.87"/>
</g>
<!-- BB6 -->
<g id="node7" class="node">
<title>BB6</title>
<ellipse fill="none" stroke="black" cx="551.24" cy="-180.25" rx="103.48" ry="48.17"/>
<text text-anchor="middle" x="551.24" y="-199.05" font-family="Times New Roman,serif" font-size="14.00">[93..af)</text>
<text text-anchor="middle" x="551.24" y="-184.05" font-family="Times New Roman,serif" font-size="14.00">Count: 82</text>
<text text-anchor="middle" x="551.24" y="-169.05" font-family="Times New Roman,serif" font-size="14.00">Normalized count: 2.10</text>
<text text-anchor="middle" x="551.24" y="-154.05" font-family="Times New Roman,serif" font-size="14.00">Samples weight: 0.05</text>
</g>
<!-- BB5&#45;&gt;BB6 -->
<g id="edge9" class="edge">
<title>BB5&#45;&gt;BB6</title>
<path fill="none" stroke="black" d="M576.91,-264.79C574.21,-256.01 571.36,-246.73 568.58,-237.68"/>
<polygon fill="black" stroke="black" points="571.88,-236.52 565.6,-227.99 565.19,-238.57 571.88,-236.52"/>
</g>
<!-- BB7 -->
<g id="node8" class="node">
<title>BB7</title>
<ellipse fill="none" stroke="black" cx="775.24" cy="-180.25" rx="103.48" ry="48.17"/>
<text text-anchor="middle" x="775.24" y="-199.05" font-family="Times New Roman,serif" font-size="14.00">[af..c6)</text>
<text text-anchor="middle" x="775.24" y="-184.05" font-family="Times New Roman,serif" font-size="14.00">Count: 0</text>
<text text-anchor="middle" x="775.24" y="-169.05" font-family="Times New Roman,serif" font-size="14.00">Normalized count: 0.00</text>
<text text-anchor="middle" x="775.24" y="-154.05" font-family="Times New Roman,serif" font-size="14.00">Samples weight: 0.00</text>
</g>
<!-- BB5&#45;&gt;BB7 -->
<g id="edge8" class="edge">
<title>BB5&#45;&gt;BB7</title>
<path fill="none" stroke="black" d="M647.44,-271.65C667.51,-257.46 690.26,-241.36 710.95,-226.73"/>
<polygon fill="black" stroke="black" points="713.23,-229.4 719.38,-220.77 709.19,-223.69 713.23,-229.4"/>
</g>
<!-- BB6&#45;&gt;BB1 -->
<g id="edge10" class="edge">
<title>BB6&#45;&gt;BB1</title>
<path fill="none" stroke="black" d="M507.07,-223.93C496.58,-236.1 486.38,-249.98 479.24,-264.33 460.27,-302.48 450.75,-349.76 445.98,-386.19"/>
<polygon fill="black" stroke="black" points="442.5,-385.8 444.76,-396.16 449.45,-386.66 442.5,-385.8"/>
</g>
<!-- BB7&#45;&gt;BB8 -->
<g id="edge11" class="edge">
<title>BB7&#45;&gt;BB8</title>
<path fill="none" stroke="black" d="M700.11,-147.15C687.82,-142.05 675.2,-136.9 663.24,-132.17 619.49,-114.87 570.54,-96.59 529.58,-81.59"/>
<polygon fill="black" stroke="black" points="530.76,-78.3 520.17,-78.15 528.36,-84.87 530.76,-78.3"/>
</g>
</g>
</svg>
