<?xml version="1.0" encoding="UTF-8" standalone="no"?>
<!DOCTYPE svg PUBLIC "-//W3C//DTD SVG 1.1//EN"
 "http://www.w3.org/Graphics/SVG/1.1/DTD/svg11.dtd">
<!-- Generated by graphviz version 2.47.0 (20210316.0004)
 -->
<!-- Title: G Pages: 1 -->
<svg width="1340pt" height="1426pt"
 viewBox="0.00 0.00 1339.69 1425.83" xmlns="http://www.w3.org/2000/svg" xmlns:xlink="http://www.w3.org/1999/xlink">
<g id="graph0" class="graph" transform="scale(1 1) rotate(0) translate(4 1421.83)">
<title>G</title>
<polygon fill="white" stroke="transparent" points="-4,4 -4,-1421.83 1335.69,-1421.83 1335.69,4 -4,4"/>
<!-- BB0 -->
<g id="node1" class="node">
<title>BB0</title>
<ellipse fill="none" stroke="black" cx="862.84" cy="-1369.75" rx="104.8" ry="48.17"/>
<text text-anchor="middle" x="862.84" y="-1388.55" font-family="Times New Roman,serif" font-size="14.00">[0..27)</text>
<text text-anchor="middle" x="862.84" y="-1373.55" font-family="Times New Roman,serif" font-size="14.00">Count: 0</text>
<text text-anchor="middle" x="862.84" y="-1358.55" font-family="Times New Roman,serif" font-size="14.00">Normalized count: NaN</text>
<text text-anchor="middle" x="862.84" y="-1343.55" font-family="Times New Roman,serif" font-size="14.00">Samples weight: 0.00</text>
</g>
<!-- BB2 -->
<g id="node3" class="node">
<title>BB2</title>
<ellipse fill="none" stroke="black" cx="862.84" cy="-1237.58" rx="104.8" ry="48.17"/>
<text text-anchor="middle" x="862.84" y="-1256.38" font-family="Times New Roman,serif" font-size="14.00">[3f..44)</text>
<text text-anchor="middle" x="862.84" y="-1241.38" font-family="Times New Roman,serif" font-size="14.00">Count: 0</text>
<text text-anchor="middle" x="862.84" y="-1226.38" font-family="Times New Roman,serif" font-size="14.00">Normalized count: NaN</text>
<text text-anchor="middle" x="862.84" y="-1211.38" font-family="Times New Roman,serif" font-size="14.00">Samples weight: 0.00</text>
</g>
<!-- BB0&#45;&gt;BB2 -->
<g id="edge1" class="edge">
<title>BB0&#45;&gt;BB2</title>
<path fill="none" stroke="black" d="M862.84,-1321.39C862.84,-1313.12 862.84,-1304.44 862.84,-1295.93"/>
<polygon fill="black" stroke="black" points="866.34,-1295.69 862.84,-1285.69 859.34,-1295.69 866.34,-1295.69"/>
</g>
<!-- BB1 -->
<g id="node2" class="node">
<title>BB1</title>
<ellipse fill="none" stroke="black" cx="862.84" cy="-1105.42" rx="104.8" ry="48.17"/>
<text text-anchor="middle" x="862.84" y="-1124.22" font-family="Times New Roman,serif" font-size="14.00">[27..3f)</text>
<text text-anchor="middle" x="862.84" y="-1109.22" font-family="Times New Roman,serif" font-size="14.00">Count: 0</text>
<text text-anchor="middle" x="862.84" y="-1094.22" font-family="Times New Roman,serif" font-size="14.00">Normalized count: NaN</text>
<text text-anchor="middle" x="862.84" y="-1079.22" font-family="Times New Roman,serif" font-size="14.00">Samples weight: 0.00</text>
</g>
<!-- BB1&#45;&gt;BB2 -->
<g id="edge2" class="edge">
<title>BB1&#45;&gt;BB2</title>
<path fill="none" stroke="black" d="M869.37,-1153.78C869.58,-1162.07 869.65,-1170.78 869.55,-1179.31"/>
<polygon fill="black" stroke="black" points="866.05,-1179.52 869.36,-1189.59 873.05,-1179.66 866.05,-1179.52"/>
</g>
<!-- BB2&#45;&gt;BB1 -->
<g id="edge3" class="edge">
<title>BB2&#45;&gt;BB1</title>
<path fill="none" stroke="black" d="M856.33,-1189.59C856.11,-1181.21 856.04,-1172.41 856.14,-1163.78"/>
<polygon fill="black" stroke="black" points="859.64,-1163.84 856.32,-1153.78 852.64,-1163.71 859.64,-1163.84"/>
</g>
<!-- BB3 -->
<g id="node4" class="node">
<title>BB3</title>
<ellipse fill="none" stroke="black" cx="1098.84" cy="-1105.42" rx="113.69" ry="48.17"/>
<text text-anchor="middle" x="1098.84" y="-1124.22" font-family="Times New Roman,serif" font-size="14.00">[44..50)</text>
<text text-anchor="middle" x="1098.84" y="-1109.22" font-family="Times New Roman,serif" font-size="14.00">Count: 12</text>
<text text-anchor="middle" x="1098.84" y="-1094.22" font-family="Times New Roman,serif" font-size="14.00">Normalized count: Infinity</text>
<text text-anchor="middle" x="1098.84" y="-1079.22" font-family="Times New Roman,serif" font-size="14.00">Samples weight: 0.01</text>
</g>
<!-- BB2&#45;&gt;BB3 -->
<g id="edge4" class="edge">
<title>BB2&#45;&gt;BB3</title>
<path fill="none" stroke="black" d="M928.9,-1200.15C957.81,-1184.2 991.93,-1165.38 1021.98,-1148.81"/>
<polygon fill="black" stroke="black" points="1023.69,-1151.87 1030.75,-1143.97 1020.31,-1145.74 1023.69,-1151.87"/>
</g>
<!-- BB4 -->
<g id="node5" class="node">
<title>BB4</title>
<ellipse fill="none" stroke="black" cx="568.84" cy="-973.25" rx="113.69" ry="48.17"/>
<text text-anchor="middle" x="568.84" y="-992.05" font-family="Times New Roman,serif" font-size="14.00">[50..55)</text>
<text text-anchor="middle" x="568.84" y="-977.05" font-family="Times New Roman,serif" font-size="14.00">Count: 1</text>
<text text-anchor="middle" x="568.84" y="-962.05" font-family="Times New Roman,serif" font-size="14.00">Normalized count: Infinity</text>
<text text-anchor="middle" x="568.84" y="-947.05" font-family="Times New Roman,serif" font-size="14.00">Samples weight: 0.00</text>
</g>
<!-- BB3&#45;&gt;BB4 -->
<g id="edge6" class="edge">
<title>BB3&#45;&gt;BB4</title>
<path fill="none" stroke="black" d="M1019.29,-1070.79C1005.32,-1065.73 990.79,-1060.99 976.84,-1057.33 869.54,-1029.19 838.24,-1044.96 729.84,-1021.33 709.79,-1016.96 688.58,-1011.43 668.37,-1005.71"/>
<polygon fill="black" stroke="black" points="669.11,-1002.28 658.53,-1002.89 667.18,-1009.01 669.11,-1002.28"/>
</g>
<!-- BB15 -->
<g id="node16" class="node">
<title>BB15</title>
<ellipse fill="none" stroke="black" cx="852.84" cy="-973.25" rx="113.69" ry="48.17"/>
<text text-anchor="middle" x="852.84" y="-992.05" font-family="Times New Roman,serif" font-size="14.00">[d0..d4)</text>
<text text-anchor="middle" x="852.84" y="-977.05" font-family="Times New Roman,serif" font-size="14.00">Count: 3</text>
<text text-anchor="middle" x="852.84" y="-962.05" font-family="Times New Roman,serif" font-size="14.00">Normalized count: Infinity</text>
<text text-anchor="middle" x="852.84" y="-947.05" font-family="Times New Roman,serif" font-size="14.00">Samples weight: 0.00</text>
</g>
<!-- BB3&#45;&gt;BB15 -->
<g id="edge5" class="edge">
<title>BB3&#45;&gt;BB15</title>
<path fill="none" stroke="black" d="M1028.68,-1067.29C998.56,-1051.35 963.23,-1032.66 932.17,-1016.22"/>
<polygon fill="black" stroke="black" points="933.58,-1013.01 923.1,-1011.42 930.3,-1019.2 933.58,-1013.01"/>
</g>
<!-- BB6 -->
<g id="node7" class="node">
<title>BB6</title>
<ellipse fill="none" stroke="black" cx="530.84" cy="-841.08" rx="113.69" ry="48.17"/>
<text text-anchor="middle" x="530.84" y="-859.88" font-family="Times New Roman,serif" font-size="14.00">[63..68)</text>
<text text-anchor="middle" x="530.84" y="-844.88" font-family="Times New Roman,serif" font-size="14.00">Count: 18</text>
<text text-anchor="middle" x="530.84" y="-829.88" font-family="Times New Roman,serif" font-size="14.00">Normalized count: Infinity</text>
<text text-anchor="middle" x="530.84" y="-814.88" font-family="Times New Roman,serif" font-size="14.00">Samples weight: 0.02</text>
</g>
<!-- BB4&#45;&gt;BB6 -->
<g id="edge7" class="edge">
<title>BB4&#45;&gt;BB6</title>
<path fill="none" stroke="black" d="M555.13,-925.26C552.62,-916.68 549.99,-907.66 547.41,-898.84"/>
<polygon fill="black" stroke="black" points="550.71,-897.62 544.54,-889.01 543.99,-899.59 550.71,-897.62"/>
</g>
<!-- BB5 -->
<g id="node6" class="node">
<title>BB5</title>
<ellipse fill="none" stroke="black" cx="530.84" cy="-708.92" rx="113.69" ry="48.17"/>
<text text-anchor="middle" x="530.84" y="-727.72" font-family="Times New Roman,serif" font-size="14.00">[55..63)</text>
<text text-anchor="middle" x="530.84" y="-712.72" font-family="Times New Roman,serif" font-size="14.00">Count: 164</text>
<text text-anchor="middle" x="530.84" y="-697.72" font-family="Times New Roman,serif" font-size="14.00">Normalized count: Infinity</text>
<text text-anchor="middle" x="530.84" y="-682.72" font-family="Times New Roman,serif" font-size="14.00">Samples weight: 0.15</text>
</g>
<!-- BB5&#45;&gt;BB6 -->
<g id="edge8" class="edge">
<title>BB5&#45;&gt;BB6</title>
<path fill="none" stroke="black" d="M537.36,-757.02C537.58,-765.28 537.65,-773.96 537.55,-782.47"/>
<polygon fill="black" stroke="black" points="534.05,-782.66 537.37,-792.72 541.05,-782.79 534.05,-782.66"/>
</g>
<!-- BB6&#45;&gt;BB5 -->
<g id="edge9" class="edge">
<title>BB6&#45;&gt;BB5</title>
<path fill="none" stroke="black" d="M524.32,-792.72C524.1,-784.45 524.04,-775.77 524.14,-767.27"/>
<polygon fill="black" stroke="black" points="527.64,-767.09 524.33,-757.02 520.64,-766.96 527.64,-767.09"/>
</g>
<!-- BB7 -->
<g id="node8" class="node">
<title>BB7</title>
<ellipse fill="none" stroke="black" cx="294.84" cy="-708.92" rx="104.8" ry="48.17"/>
<text text-anchor="middle" x="294.84" y="-727.72" font-family="Times New Roman,serif" font-size="14.00">[68..6b)</text>
<text text-anchor="middle" x="294.84" y="-712.72" font-family="Times New Roman,serif" font-size="14.00">Count: 0</text>
<text text-anchor="middle" x="294.84" y="-697.72" font-family="Times New Roman,serif" font-size="14.00">Normalized count: NaN</text>
<text text-anchor="middle" x="294.84" y="-682.72" font-family="Times New Roman,serif" font-size="14.00">Samples weight: 0.00</text>
</g>
<!-- BB6&#45;&gt;BB7 -->
<g id="edge10" class="edge">
<title>BB6&#45;&gt;BB7</title>
<path fill="none" stroke="black" d="M462.58,-802.43C433.59,-786.44 399.7,-767.75 369.99,-751.36"/>
<polygon fill="black" stroke="black" points="371.37,-748.12 360.92,-746.36 367.99,-754.25 371.37,-748.12"/>
</g>
<!-- BB8 -->
<g id="node9" class="node">
<title>BB8</title>
<ellipse fill="none" stroke="black" cx="346.84" cy="-576.75" rx="113.69" ry="48.17"/>
<text text-anchor="middle" x="346.84" y="-595.55" font-family="Times New Roman,serif" font-size="14.00">[6b..75)</text>
<text text-anchor="middle" x="346.84" y="-580.55" font-family="Times New Roman,serif" font-size="14.00">Count: 198</text>
<text text-anchor="middle" x="346.84" y="-565.55" font-family="Times New Roman,serif" font-size="14.00">Normalized count: Infinity</text>
<text text-anchor="middle" x="346.84" y="-550.55" font-family="Times New Roman,serif" font-size="14.00">Samples weight: 0.18</text>
</g>
<!-- BB7&#45;&gt;BB8 -->
<g id="edge11" class="edge">
<title>BB7&#45;&gt;BB8</title>
<path fill="none" stroke="black" d="M313.47,-661.29C317.02,-652.41 320.76,-643.03 324.42,-633.89"/>
<polygon fill="black" stroke="black" points="327.71,-635.07 328.17,-624.49 321.21,-632.47 327.71,-635.07"/>
</g>
<!-- BB9 -->
<g id="node10" class="node">
<title>BB9</title>
<ellipse fill="none" stroke="black" cx="568.84" cy="-444.58" rx="113.69" ry="48.17"/>
<text text-anchor="middle" x="568.84" y="-463.38" font-family="Times New Roman,serif" font-size="14.00">[75..84)</text>
<text text-anchor="middle" x="568.84" y="-448.38" font-family="Times New Roman,serif" font-size="14.00">Count: 48</text>
<text text-anchor="middle" x="568.84" y="-433.38" font-family="Times New Roman,serif" font-size="14.00">Normalized count: Infinity</text>
<text text-anchor="middle" x="568.84" y="-418.38" font-family="Times New Roman,serif" font-size="14.00">Samples weight: 0.04</text>
</g>
<!-- BB8&#45;&gt;BB9 -->
<g id="edge13" class="edge">
<title>BB8&#45;&gt;BB9</title>
<path fill="none" stroke="black" d="M412.55,-537.22C438.28,-522.14 467.93,-504.75 494.45,-489.21"/>
<polygon fill="black" stroke="black" points="496.45,-492.09 503.31,-484.01 492.91,-486.05 496.45,-492.09"/>
</g>
<!-- BB11 -->
<g id="node12" class="node">
<title>BB11</title>
<ellipse fill="none" stroke="black" cx="217.84" cy="-444.58" rx="113.69" ry="48.17"/>
<text text-anchor="middle" x="217.84" y="-463.38" font-family="Times New Roman,serif" font-size="14.00">[8a..95)</text>
<text text-anchor="middle" x="217.84" y="-448.38" font-family="Times New Roman,serif" font-size="14.00">Count: 57</text>
<text text-anchor="middle" x="217.84" y="-433.38" font-family="Times New Roman,serif" font-size="14.00">Normalized count: Infinity</text>
<text text-anchor="middle" x="217.84" y="-418.38" font-family="Times New Roman,serif" font-size="14.00">Samples weight: 0.05</text>
</g>
<!-- BB8&#45;&gt;BB11 -->
<g id="edge12" class="edge">
<title>BB8&#45;&gt;BB11</title>
<path fill="none" stroke="black" d="M303.53,-532.04C292.26,-520.67 280.01,-508.31 268.4,-496.59"/>
<polygon fill="black" stroke="black" points="270.79,-494.03 261.26,-489.39 265.82,-498.96 270.79,-494.03"/>
</g>
<!-- BB10 -->
<g id="node11" class="node">
<title>BB10</title>
<ellipse fill="none" stroke="black" cx="621.84" cy="-312.42" rx="104.8" ry="48.17"/>
<text text-anchor="middle" x="621.84" y="-331.22" font-family="Times New Roman,serif" font-size="14.00">[84..8a)</text>
<text text-anchor="middle" x="621.84" y="-316.22" font-family="Times New Roman,serif" font-size="14.00">Count: 0</text>
<text text-anchor="middle" x="621.84" y="-301.22" font-family="Times New Roman,serif" font-size="14.00">Normalized count: NaN</text>
<text text-anchor="middle" x="621.84" y="-286.22" font-family="Times New Roman,serif" font-size="14.00">Samples weight: 0.00</text>
</g>
<!-- BB9&#45;&gt;BB10 -->
<g id="edge15" class="edge">
<title>BB9&#45;&gt;BB10</title>
<path fill="none" stroke="black" d="M587.83,-396.96C591.49,-387.97 595.36,-378.47 599.12,-369.23"/>
<polygon fill="black" stroke="black" points="602.46,-370.3 602.99,-359.72 595.98,-367.66 602.46,-370.3"/>
</g>
<!-- BB9&#45;&gt;BB15 -->
<g id="edge14" class="edge">
<title>BB9&#45;&gt;BB15</title>
<path fill="none" stroke="black" d="M590.21,-492.14C609.23,-535.14 636.62,-601.19 653.84,-660.83 682.49,-760.04 635.69,-805.96 696.84,-889.17 711.92,-909.68 733.62,-925.63 756.06,-937.81"/>
<polygon fill="black" stroke="black" points="754.53,-940.96 765.02,-942.47 757.76,-934.75 754.53,-940.96"/>
</g>
<!-- BB10&#45;&gt;BB15 -->
<g id="edge16" class="edge">
<title>BB10&#45;&gt;BB15</title>
<path fill="none" stroke="black" d="M666.13,-356.23C676.19,-368.3 685.71,-382.1 691.84,-396.5 723.25,-470.2 710.84,-495.64 710.84,-575.75 710.84,-709.92 710.84,-709.92 710.84,-709.92 710.84,-790.03 688.58,-820.5 729.84,-889.17 739.74,-905.62 754.29,-919.54 769.95,-931"/>
<polygon fill="black" stroke="black" points="768.02,-933.92 778.23,-936.77 772.03,-928.18 768.02,-933.92"/>
</g>
<!-- BB12 -->
<g id="node13" class="node">
<title>BB12</title>
<ellipse fill="none" stroke="black" cx="113.84" cy="-312.42" rx="113.69" ry="48.17"/>
<text text-anchor="middle" x="113.84" y="-331.22" font-family="Times New Roman,serif" font-size="14.00">[95..9e)</text>
<text text-anchor="middle" x="113.84" y="-316.22" font-family="Times New Roman,serif" font-size="14.00">Count: 21</text>
<text text-anchor="middle" x="113.84" y="-301.22" font-family="Times New Roman,serif" font-size="14.00">Normalized count: Infinity</text>
<text text-anchor="middle" x="113.84" y="-286.22" font-family="Times New Roman,serif" font-size="14.00">Samples weight: 0.02</text>
</g>
<!-- BB11&#45;&gt;BB12 -->
<g id="edge18" class="edge">
<title>BB11&#45;&gt;BB12</title>
<path fill="none" stroke="black" d="M182.05,-398.79C173.72,-388.36 164.77,-377.15 156.18,-366.4"/>
<polygon fill="black" stroke="black" points="158.68,-363.92 149.7,-358.29 153.21,-368.29 158.68,-363.92"/>
</g>
<!-- BB14 -->
<g id="node15" class="node">
<title>BB14</title>
<ellipse fill="none" stroke="black" cx="359.84" cy="-312.42" rx="113.69" ry="48.17"/>
<text text-anchor="middle" x="359.84" y="-331.22" font-family="Times New Roman,serif" font-size="14.00">[c4..d0)</text>
<text text-anchor="middle" x="359.84" y="-316.22" font-family="Times New Roman,serif" font-size="14.00">Count: 78</text>
<text text-anchor="middle" x="359.84" y="-301.22" font-family="Times New Roman,serif" font-size="14.00">Normalized count: Infinity</text>
<text text-anchor="middle" x="359.84" y="-286.22" font-family="Times New Roman,serif" font-size="14.00">Samples weight: 0.07</text>
</g>
<!-- BB11&#45;&gt;BB14 -->
<g id="edge17" class="edge">
<title>BB11&#45;&gt;BB14</title>
<path fill="none" stroke="black" d="M264.73,-400.6C277.82,-388.6 292.15,-375.47 305.62,-363.12"/>
<polygon fill="black" stroke="black" points="308,-365.69 313,-356.35 303.27,-360.53 308,-365.69"/>
</g>
<!-- BB13 -->
<g id="node14" class="node">
<title>BB13</title>
<ellipse fill="none" stroke="black" cx="236.84" cy="-180.25" rx="113.69" ry="48.17"/>
<text text-anchor="middle" x="236.84" y="-199.05" font-family="Times New Roman,serif" font-size="14.00">[9e..c4)</text>
<text text-anchor="middle" x="236.84" y="-184.05" font-family="Times New Roman,serif" font-size="14.00">Count: 371</text>
<text text-anchor="middle" x="236.84" y="-169.05" font-family="Times New Roman,serif" font-size="14.00">Normalized count: Infinity</text>
<text text-anchor="middle" x="236.84" y="-154.05" font-family="Times New Roman,serif" font-size="14.00">Samples weight: 0.35</text>
</g>
<!-- BB12&#45;&gt;BB13 -->
<g id="edge19" class="edge">
<title>BB12&#45;&gt;BB13</title>
<path fill="none" stroke="black" d="M155.49,-267.35C166.01,-256.22 177.39,-244.16 188.22,-232.7"/>
<polygon fill="black" stroke="black" points="190.92,-234.95 195.24,-225.27 185.83,-230.14 190.92,-234.95"/>
</g>
<!-- BB13&#45;&gt;BB13 -->
<g id="edge20" class="edge">
<title>BB13&#45;&gt;BB13</title>
<path fill="none" stroke="black" d="M336.03,-203.86C355.14,-201.07 368.69,-193.2 368.69,-180.25 368.69,-169.72 359.75,-162.56 346.14,-158.74"/>
<polygon fill="black" stroke="black" points="346.53,-155.25 336.03,-156.64 345.1,-162.1 346.53,-155.25"/>
</g>
<!-- BB13&#45;&gt;BB14 -->
<g id="edge21" class="edge">
<title>BB13&#45;&gt;BB14</title>
<path fill="none" stroke="black" d="M278.44,-225.27C288.96,-236.4 300.35,-248.45 311.18,-259.92"/>
<polygon fill="black" stroke="black" points="308.79,-262.48 318.2,-267.35 313.88,-257.68 308.79,-262.48"/>
</g>
<!-- BB14&#45;&gt;BB8 -->
<g id="edge22" class="edge">
<title>BB14&#45;&gt;BB8</title>
<path fill="none" stroke="black" d="M357.5,-360.68C355.31,-404.96 352.02,-471.21 349.68,-518.47"/>
<polygon fill="black" stroke="black" points="346.18,-518.39 349.18,-528.55 353.17,-518.73 346.18,-518.39"/>
</g>
<!-- BB16 -->
<g id="node17" class="node">
<title>BB16</title>
<ellipse fill="none" stroke="black" cx="1098.84" cy="-841.08" rx="113.69" ry="48.17"/>
<text text-anchor="middle" x="1098.84" y="-859.88" font-family="Times New Roman,serif" font-size="14.00">[d4..eb)</text>
<text text-anchor="middle" x="1098.84" y="-844.88" font-family="Times New Roman,serif" font-size="14.00">Count: 22</text>
<text text-anchor="middle" x="1098.84" y="-829.88" font-family="Times New Roman,serif" font-size="14.00">Normalized count: Infinity</text>
<text text-anchor="middle" x="1098.84" y="-814.88" font-family="Times New Roman,serif" font-size="14.00">Samples weight: 0.02</text>
</g>
<!-- BB15&#45;&gt;BB16 -->
<g id="edge24" class="edge">
<title>BB15&#45;&gt;BB16</title>
<path fill="none" stroke="black" d="M923.01,-935.12C953.12,-919.19 988.46,-900.49 1019.52,-884.05"/>
<polygon fill="black" stroke="black" points="1021.38,-887.03 1028.59,-879.26 1018.11,-880.84 1021.38,-887.03"/>
</g>
<!-- BB17 -->
<g id="node18" class="node">
<title>BB17</title>
<ellipse fill="none" stroke="black" cx="852.84" cy="-841.08" rx="113.69" ry="48.17"/>
<text text-anchor="middle" x="852.84" y="-859.88" font-family="Times New Roman,serif" font-size="14.00">[eb..102)</text>
<text text-anchor="middle" x="852.84" y="-844.88" font-family="Times New Roman,serif" font-size="14.00">Count: 18</text>
<text text-anchor="middle" x="852.84" y="-829.88" font-family="Times New Roman,serif" font-size="14.00">Normalized count: Infinity</text>
<text text-anchor="middle" x="852.84" y="-814.88" font-family="Times New Roman,serif" font-size="14.00">Samples weight: 0.02</text>
</g>
<!-- BB15&#45;&gt;BB17 -->
<g id="edge23" class="edge">
<title>BB15&#45;&gt;BB17</title>
<path fill="none" stroke="black" d="M852.84,-924.89C852.84,-916.62 852.84,-907.94 852.84,-899.43"/>
<polygon fill="black" stroke="black" points="856.34,-899.19 852.84,-889.19 849.34,-899.19 856.34,-899.19"/>
</g>
<!-- BB16&#45;&gt;BB3 -->
<g id="edge25" class="edge">
<title>BB16&#45;&gt;BB3</title>
<path fill="none" stroke="black" d="M1098.84,-889.35C1098.84,-933.62 1098.84,-999.87 1098.84,-1047.13"/>
<polygon fill="black" stroke="black" points="1095.34,-1047.21 1098.84,-1057.21 1102.34,-1047.21 1095.34,-1047.21"/>
</g>
<!-- BB26 -->
<g id="node27" class="node">
<title>BB26</title>
<ellipse fill="none" stroke="black" cx="881.84" cy="-708.92" rx="113.69" ry="48.17"/>
<text text-anchor="middle" x="881.84" y="-727.72" font-family="Times New Roman,serif" font-size="14.00">[164..169)</text>
<text text-anchor="middle" x="881.84" y="-712.72" font-family="Times New Roman,serif" font-size="14.00">Count: 1</text>
<text text-anchor="middle" x="881.84" y="-697.72" font-family="Times New Roman,serif" font-size="14.00">Normalized count: Infinity</text>
<text text-anchor="middle" x="881.84" y="-682.72" font-family="Times New Roman,serif" font-size="14.00">Samples weight: 0.00</text>
</g>
<!-- BB17&#45;&gt;BB26 -->
<g id="edge26" class="edge">
<title>BB17&#45;&gt;BB26</title>
<path fill="none" stroke="black" d="M863.31,-793.09C865.22,-784.52 867.23,-775.49 869.2,-766.67"/>
<polygon fill="black" stroke="black" points="872.63,-767.36 871.39,-756.84 865.8,-765.84 872.63,-767.36"/>
</g>
<!-- BB18 -->
<g id="node19" class="node">
<title>BB18</title>
<ellipse fill="none" stroke="black" cx="909.84" cy="-576.75" rx="113.69" ry="48.17"/>
<text text-anchor="middle" x="909.84" y="-595.55" font-family="Times New Roman,serif" font-size="14.00">[102..10c)</text>
<text text-anchor="middle" x="909.84" y="-580.55" font-family="Times New Roman,serif" font-size="14.00">Count: 12</text>
<text text-anchor="middle" x="909.84" y="-565.55" font-family="Times New Roman,serif" font-size="14.00">Normalized count: Infinity</text>
<text text-anchor="middle" x="909.84" y="-550.55" font-family="Times New Roman,serif" font-size="14.00">Samples weight: 0.01</text>
</g>
<!-- BB19 -->
<g id="node20" class="node">
<title>BB19</title>
<ellipse fill="none" stroke="black" cx="1217.84" cy="-444.58" rx="113.69" ry="48.17"/>
<text text-anchor="middle" x="1217.84" y="-463.38" font-family="Times New Roman,serif" font-size="14.00">[10c..119)</text>
<text text-anchor="middle" x="1217.84" y="-448.38" font-family="Times New Roman,serif" font-size="14.00">Count: 6</text>
<text text-anchor="middle" x="1217.84" y="-433.38" font-family="Times New Roman,serif" font-size="14.00">Normalized count: Infinity</text>
<text text-anchor="middle" x="1217.84" y="-418.38" font-family="Times New Roman,serif" font-size="14.00">Samples weight: 0.01</text>
</g>
<!-- BB18&#45;&gt;BB19 -->
<g id="edge28" class="edge">
<title>BB18&#45;&gt;BB19</title>
<path fill="none" stroke="black" d="M989.16,-542.23C1032.01,-524.12 1085.04,-501.71 1129.24,-483.03"/>
<polygon fill="black" stroke="black" points="1130.68,-486.22 1138.53,-479.1 1127.95,-479.77 1130.68,-486.22"/>
</g>
<!-- BB20 -->
<g id="node21" class="node">
<title>BB20</title>
<ellipse fill="none" stroke="black" cx="909.84" cy="-444.58" rx="113.69" ry="48.17"/>
<text text-anchor="middle" x="909.84" y="-463.38" font-family="Times New Roman,serif" font-size="14.00">[119..11f)</text>
<text text-anchor="middle" x="909.84" y="-448.38" font-family="Times New Roman,serif" font-size="14.00">Count: 8</text>
<text text-anchor="middle" x="909.84" y="-433.38" font-family="Times New Roman,serif" font-size="14.00">Normalized count: Infinity</text>
<text text-anchor="middle" x="909.84" y="-418.38" font-family="Times New Roman,serif" font-size="14.00">Samples weight: 0.01</text>
</g>
<!-- BB18&#45;&gt;BB20 -->
<g id="edge27" class="edge">
<title>BB18&#45;&gt;BB20</title>
<path fill="none" stroke="black" d="M909.84,-528.39C909.84,-520.12 909.84,-511.44 909.84,-502.93"/>
<polygon fill="black" stroke="black" points="913.34,-502.69 909.84,-492.69 906.34,-502.69 913.34,-502.69"/>
</g>
<!-- BB19&#45;&gt;BB3 -->
<g id="edge29" class="edge">
<title>BB19&#45;&gt;BB3</title>
<path fill="none" stroke="black" d="M1244.7,-491.37C1250.58,-503.18 1256.14,-516.11 1259.84,-528.67 1282.51,-605.51 1278.84,-627.8 1278.84,-707.92 1278.84,-842.08 1278.84,-842.08 1278.84,-842.08 1278.84,-929.51 1250.65,-951.66 1197.84,-1021.33 1188.14,-1034.14 1176.11,-1046.29 1163.82,-1057.14"/>
<polygon fill="black" stroke="black" points="1161.46,-1054.55 1156.16,-1063.72 1166.02,-1059.86 1161.46,-1054.55"/>
</g>
<!-- BB21 -->
<g id="node22" class="node">
<title>BB21</title>
<ellipse fill="none" stroke="black" cx="900.84" cy="-312.42" rx="104.8" ry="48.17"/>
<text text-anchor="middle" x="900.84" y="-331.22" font-family="Times New Roman,serif" font-size="14.00">[11f..130)</text>
<text text-anchor="middle" x="900.84" y="-316.22" font-family="Times New Roman,serif" font-size="14.00">Count: 0</text>
<text text-anchor="middle" x="900.84" y="-301.22" font-family="Times New Roman,serif" font-size="14.00">Normalized count: NaN</text>
<text text-anchor="middle" x="900.84" y="-286.22" font-family="Times New Roman,serif" font-size="14.00">Samples weight: 0.00</text>
</g>
<!-- BB20&#45;&gt;BB21 -->
<g id="edge31" class="edge">
<title>BB20&#45;&gt;BB21</title>
<path fill="none" stroke="black" d="M906.57,-396.22C906,-387.95 905.4,-379.27 904.81,-370.77"/>
<polygon fill="black" stroke="black" points="908.28,-370.26 904.1,-360.52 901.3,-370.74 908.28,-370.26"/>
</g>
<!-- BB22 -->
<g id="node23" class="node">
<title>BB22</title>
<ellipse fill="none" stroke="black" cx="1136.84" cy="-312.42" rx="113.69" ry="48.17"/>
<text text-anchor="middle" x="1136.84" y="-331.22" font-family="Times New Roman,serif" font-size="14.00">[130..140)</text>
<text text-anchor="middle" x="1136.84" y="-316.22" font-family="Times New Roman,serif" font-size="14.00">Count: 8</text>
<text text-anchor="middle" x="1136.84" y="-301.22" font-family="Times New Roman,serif" font-size="14.00">Normalized count: Infinity</text>
<text text-anchor="middle" x="1136.84" y="-286.22" font-family="Times New Roman,serif" font-size="14.00">Samples weight: 0.01</text>
</g>
<!-- BB20&#45;&gt;BB22 -->
<g id="edge30" class="edge">
<title>BB20&#45;&gt;BB22</title>
<path fill="none" stroke="black" d="M976.42,-405.41C1003.1,-390.11 1033.97,-372.4 1061.47,-356.64"/>
<polygon fill="black" stroke="black" points="1063.34,-359.6 1070.27,-351.59 1059.86,-353.53 1063.34,-359.6"/>
</g>
<!-- BB24 -->
<g id="node25" class="node">
<title>BB24</title>
<ellipse fill="none" stroke="black" cx="1102.84" cy="-180.25" rx="113.69" ry="48.17"/>
<text text-anchor="middle" x="1102.84" y="-199.05" font-family="Times New Roman,serif" font-size="14.00">[150..156)</text>
<text text-anchor="middle" x="1102.84" y="-184.05" font-family="Times New Roman,serif" font-size="14.00">Count: 4</text>
<text text-anchor="middle" x="1102.84" y="-169.05" font-family="Times New Roman,serif" font-size="14.00">Normalized count: Infinity</text>
<text text-anchor="middle" x="1102.84" y="-154.05" font-family="Times New Roman,serif" font-size="14.00">Samples weight: 0.00</text>
</g>
<!-- BB22&#45;&gt;BB24 -->
<g id="edge32" class="edge">
<title>BB22&#45;&gt;BB24</title>
<path fill="none" stroke="black" d="M1124.57,-264.42C1122.33,-255.85 1119.97,-246.83 1117.67,-238.01"/>
<polygon fill="black" stroke="black" points="1121.01,-236.96 1115.1,-228.17 1114.24,-238.73 1121.01,-236.96"/>
</g>
<!-- BB23 -->
<g id="node24" class="node">
<title>BB23</title>
<ellipse fill="none" stroke="black" cx="1102.84" cy="-48.08" rx="113.69" ry="48.17"/>
<text text-anchor="middle" x="1102.84" y="-66.88" font-family="Times New Roman,serif" font-size="14.00">[140..150)</text>
<text text-anchor="middle" x="1102.84" y="-51.88" font-family="Times New Roman,serif" font-size="14.00">Count: 24</text>
<text text-anchor="middle" x="1102.84" y="-36.88" font-family="Times New Roman,serif" font-size="14.00">Normalized count: Infinity</text>
<text text-anchor="middle" x="1102.84" y="-21.88" font-family="Times New Roman,serif" font-size="14.00">Samples weight: 0.02</text>
</g>
<!-- BB23&#45;&gt;BB24 -->
<g id="edge33" class="edge">
<title>BB23&#45;&gt;BB24</title>
<path fill="none" stroke="black" d="M1109.36,-96.19C1109.58,-104.45 1109.65,-113.13 1109.55,-121.64"/>
<polygon fill="black" stroke="black" points="1106.05,-121.83 1109.37,-131.89 1113.05,-121.95 1106.05,-121.83"/>
</g>
<!-- BB24&#45;&gt;BB23 -->
<g id="edge34" class="edge">
<title>BB24&#45;&gt;BB23</title>
<path fill="none" stroke="black" d="M1096.32,-131.89C1096.1,-123.62 1096.04,-114.94 1096.14,-106.43"/>
<polygon fill="black" stroke="black" points="1099.64,-106.26 1096.33,-96.19 1092.64,-106.12 1099.64,-106.26"/>
</g>
<!-- BB25 -->
<g id="node26" class="node">
<title>BB25</title>
<ellipse fill="none" stroke="black" cx="833.84" cy="-48.08" rx="104.8" ry="48.17"/>
<text text-anchor="middle" x="833.84" y="-66.88" font-family="Times New Roman,serif" font-size="14.00">[156..164)</text>
<text text-anchor="middle" x="833.84" y="-51.88" font-family="Times New Roman,serif" font-size="14.00">Count: 0</text>
<text text-anchor="middle" x="833.84" y="-36.88" font-family="Times New Roman,serif" font-size="14.00">Normalized count: NaN</text>
<text text-anchor="middle" x="833.84" y="-21.88" font-family="Times New Roman,serif" font-size="14.00">Samples weight: 0.00</text>
</g>
<!-- BB24&#45;&gt;BB25 -->
<g id="edge35" class="edge">
<title>BB24&#45;&gt;BB25</title>
<path fill="none" stroke="black" d="M1028.98,-143.51C993.42,-126.3 950.71,-105.63 914.33,-88.03"/>
<polygon fill="black" stroke="black" points="915.75,-84.83 905.22,-83.62 912.7,-91.13 915.75,-84.83"/>
</g>
<!-- BB25&#45;&gt;BB26 -->
<g id="edge36" class="edge">
<title>BB25&#45;&gt;BB26</title>
<path fill="none" stroke="black" d="M814.75,-95.59C795.26,-147.35 767.84,-233.93 767.84,-311.42 767.84,-445.58 767.84,-445.58 767.84,-445.58 767.84,-525.7 749.93,-553.73 786.84,-624.83 793.8,-638.23 803.9,-650.44 814.94,-661.12"/>
<polygon fill="black" stroke="black" points="812.58,-663.71 822.3,-667.92 817.33,-658.57 812.58,-663.71"/>
</g>
<!-- BB26&#45;&gt;BB18 -->
<g id="edge37" class="edge">
<title>BB26&#45;&gt;BB18</title>
<path fill="none" stroke="black" d="M891.95,-660.92C893.8,-652.35 895.74,-643.33 897.64,-634.51"/>
<polygon fill="black" stroke="black" points="901.07,-635.19 899.75,-624.67 894.23,-633.71 901.07,-635.19"/>
</g>
<!-- BB27 -->
<g id="node28" class="node">
<title>BB27</title>
<ellipse fill="none" stroke="black" cx="1145.84" cy="-576.75" rx="104.8" ry="48.17"/>
<text text-anchor="middle" x="1145.84" y="-595.55" font-family="Times New Roman,serif" font-size="14.00">[169..16e)</text>
<text text-anchor="middle" x="1145.84" y="-580.55" font-family="Times New Roman,serif" font-size="14.00">Count: 0</text>
<text text-anchor="middle" x="1145.84" y="-565.55" font-family="Times New Roman,serif" font-size="14.00">Normalized count: NaN</text>
<text text-anchor="middle" x="1145.84" y="-550.55" font-family="Times New Roman,serif" font-size="14.00">Samples weight: 0.00</text>
</g>
<!-- BB26&#45;&gt;BB27 -->
<g id="edge38" class="edge">
<title>BB26&#45;&gt;BB27</title>
<path fill="none" stroke="black" d="M955.03,-671.83C989.49,-654.84 1030.67,-634.54 1065.94,-617.15"/>
<polygon fill="black" stroke="black" points="1067.83,-620.12 1075.25,-612.56 1064.73,-613.84 1067.83,-620.12"/>
</g>
<!-- BB27&#45;&gt;BB3 -->
<g id="edge39" class="edge">
<title>BB27&#45;&gt;BB3</title>
<path fill="none" stroke="black" d="M1171.49,-623.54C1202.28,-684.39 1246.81,-795.17 1221.84,-889.17 1205.93,-949.1 1168.97,-1009.75 1139.69,-1051.33"/>
<polygon fill="black" stroke="black" points="1136.72,-1049.47 1133.76,-1059.64 1142.42,-1053.53 1136.72,-1049.47"/>
</g>
</g>
</svg>
