<?xml version="1.0" encoding="UTF-8" standalone="no"?>
<!DOCTYPE svg PUBLIC "-//W3C//DTD SVG 1.1//EN"
 "http://www.w3.org/Graphics/SVG/1.1/DTD/svg11.dtd">
<!-- Generated by graphviz version 2.47.0 (20210316.0004)
 -->
<!-- Title: G Pages: 1 -->
<svg width="677pt" height="633pt"
 viewBox="0.00 0.00 677.42 632.83" xmlns="http://www.w3.org/2000/svg" xmlns:xlink="http://www.w3.org/1999/xlink">
<g id="graph0" class="graph" transform="scale(1 1) rotate(0) translate(4 628.83)">
<title>G</title>
<polygon fill="white" stroke="transparent" points="-4,4 -4,-628.83 673.42,-628.83 673.42,4 -4,4"/>
<!-- BB0 -->
<g id="node1" class="node">
<title>BB0</title>
<ellipse fill="none" stroke="black" cx="108.19" cy="-576.75" rx="103.48" ry="48.17"/>
<text text-anchor="middle" x="108.19" y="-595.55" font-family="Times New Roman,serif" font-size="14.00">[0..e)</text>
<text text-anchor="middle" x="108.19" y="-580.55" font-family="Times New Roman,serif" font-size="14.00">Count: 302</text>
<text text-anchor="middle" x="108.19" y="-565.55" font-family="Times New Roman,serif" font-size="14.00">Normalized count: 1.00</text>
<text text-anchor="middle" x="108.19" y="-550.55" font-family="Times New Roman,serif" font-size="14.00">Samples weight: 0.01</text>
</g>
<!-- BB2 -->
<g id="node3" class="node">
<title>BB2</title>
<ellipse fill="none" stroke="black" cx="108.19" cy="-444.58" rx="108.38" ry="48.17"/>
<text text-anchor="middle" x="108.19" y="-463.38" font-family="Times New Roman,serif" font-size="14.00">[106..10f)</text>
<text text-anchor="middle" x="108.19" y="-448.38" font-family="Times New Roman,serif" font-size="14.00">Count: 12693</text>
<text text-anchor="middle" x="108.19" y="-433.38" font-family="Times New Roman,serif" font-size="14.00">Normalized count: 42.03</text>
<text text-anchor="middle" x="108.19" y="-418.38" font-family="Times New Roman,serif" font-size="14.00">Samples weight: 0.22</text>
</g>
<!-- BB0&#45;&gt;BB2 -->
<g id="edge1" class="edge">
<title>BB0&#45;&gt;BB2</title>
<path fill="none" stroke="black" d="M108.19,-528.39C108.19,-520.12 108.19,-511.44 108.19,-502.93"/>
<polygon fill="black" stroke="black" points="111.69,-502.69 108.19,-492.69 104.69,-502.69 111.69,-502.69"/>
</g>
<!-- BB1 -->
<g id="node2" class="node">
<title>BB1</title>
<ellipse fill="none" stroke="black" cx="108.19" cy="-312.42" rx="108.38" ry="48.17"/>
<text text-anchor="middle" x="108.19" y="-331.22" font-family="Times New Roman,serif" font-size="14.00">[e..106)</text>
<text text-anchor="middle" x="108.19" y="-316.22" font-family="Times New Roman,serif" font-size="14.00">Count: 29720</text>
<text text-anchor="middle" x="108.19" y="-301.22" font-family="Times New Roman,serif" font-size="14.00">Normalized count: 98.41</text>
<text text-anchor="middle" x="108.19" y="-286.22" font-family="Times New Roman,serif" font-size="14.00">Samples weight: 0.51</text>
</g>
<!-- BB1&#45;&gt;BB2 -->
<g id="edge2" class="edge">
<title>BB1&#45;&gt;BB2</title>
<path fill="none" stroke="black" d="M114.7,-360.52C114.92,-368.78 114.99,-377.46 114.9,-385.97"/>
<polygon fill="black" stroke="black" points="111.39,-386.16 114.71,-396.22 118.39,-386.29 111.39,-386.16"/>
</g>
<!-- BB2&#45;&gt;BB1 -->
<g id="edge3" class="edge">
<title>BB2&#45;&gt;BB1</title>
<path fill="none" stroke="black" d="M101.66,-396.22C101.45,-387.95 101.39,-379.27 101.48,-370.77"/>
<polygon fill="black" stroke="black" points="104.98,-370.59 101.67,-360.52 97.98,-370.46 104.98,-370.59"/>
</g>
<!-- BB3 -->
<g id="node4" class="node">
<title>BB3</title>
<ellipse fill="none" stroke="black" cx="337.19" cy="-312.42" rx="103.48" ry="48.17"/>
<text text-anchor="middle" x="337.19" y="-331.22" font-family="Times New Roman,serif" font-size="14.00">[10f..11b)</text>
<text text-anchor="middle" x="337.19" y="-316.22" font-family="Times New Roman,serif" font-size="14.00">Count: 2481</text>
<text text-anchor="middle" x="337.19" y="-301.22" font-family="Times New Roman,serif" font-size="14.00">Normalized count: 8.22</text>
<text text-anchor="middle" x="337.19" y="-286.22" font-family="Times New Roman,serif" font-size="14.00">Samples weight: 0.04</text>
</g>
<!-- BB2&#45;&gt;BB3 -->
<g id="edge4" class="edge">
<title>BB2&#45;&gt;BB3</title>
<path fill="none" stroke="black" d="M173.81,-406.28C201.96,-390.28 234.96,-371.53 263.9,-355.07"/>
<polygon fill="black" stroke="black" points="265.78,-358.03 272.74,-350.05 262.32,-351.95 265.78,-358.03"/>
</g>
<!-- BB5 -->
<g id="node6" class="node">
<title>BB5</title>
<ellipse fill="none" stroke="black" cx="337.19" cy="-180.25" rx="108.38" ry="48.17"/>
<text text-anchor="middle" x="337.19" y="-199.05" font-family="Times New Roman,serif" font-size="14.00">[16a..171)</text>
<text text-anchor="middle" x="337.19" y="-184.05" font-family="Times New Roman,serif" font-size="14.00">Count: 7635</text>
<text text-anchor="middle" x="337.19" y="-169.05" font-family="Times New Roman,serif" font-size="14.00">Normalized count: 25.28</text>
<text text-anchor="middle" x="337.19" y="-154.05" font-family="Times New Roman,serif" font-size="14.00">Samples weight: 0.13</text>
</g>
<!-- BB3&#45;&gt;BB5 -->
<g id="edge5" class="edge">
<title>BB3&#45;&gt;BB5</title>
<path fill="none" stroke="black" d="M337.19,-264.05C337.19,-255.79 337.19,-247.1 337.19,-238.6"/>
<polygon fill="black" stroke="black" points="340.69,-238.36 337.19,-228.36 333.69,-238.36 340.69,-238.36"/>
</g>
<!-- BB4 -->
<g id="node5" class="node">
<title>BB4</title>
<ellipse fill="none" stroke="black" cx="337.19" cy="-48.08" rx="108.38" ry="48.17"/>
<text text-anchor="middle" x="337.19" y="-66.88" font-family="Times New Roman,serif" font-size="14.00">[11b..16a)</text>
<text text-anchor="middle" x="337.19" y="-51.88" font-family="Times New Roman,serif" font-size="14.00">Count: 5160</text>
<text text-anchor="middle" x="337.19" y="-36.88" font-family="Times New Roman,serif" font-size="14.00">Normalized count: 17.09</text>
<text text-anchor="middle" x="337.19" y="-21.88" font-family="Times New Roman,serif" font-size="14.00">Samples weight: 0.09</text>
</g>
<!-- BB4&#45;&gt;BB5 -->
<g id="edge6" class="edge">
<title>BB4&#45;&gt;BB5</title>
<path fill="none" stroke="black" d="M343.7,-96.19C343.92,-104.45 343.99,-113.13 343.9,-121.64"/>
<polygon fill="black" stroke="black" points="340.39,-121.83 343.71,-131.89 347.39,-121.95 340.39,-121.83"/>
</g>
<!-- BB5&#45;&gt;BB4 -->
<g id="edge7" class="edge">
<title>BB5&#45;&gt;BB4</title>
<path fill="none" stroke="black" d="M330.66,-131.89C330.45,-123.62 330.39,-114.94 330.48,-106.43"/>
<polygon fill="black" stroke="black" points="333.98,-106.26 330.67,-96.19 326.98,-106.12 333.98,-106.26"/>
</g>
<!-- BB6 -->
<g id="node7" class="node">
<title>BB6</title>
<ellipse fill="none" stroke="black" cx="566.19" cy="-48.08" rx="103.48" ry="48.17"/>
<text text-anchor="middle" x="566.19" y="-66.88" font-family="Times New Roman,serif" font-size="14.00">[171..172)</text>
<text text-anchor="middle" x="566.19" y="-51.88" font-family="Times New Roman,serif" font-size="14.00">Count: 68</text>
<text text-anchor="middle" x="566.19" y="-36.88" font-family="Times New Roman,serif" font-size="14.00">Normalized count: 0.23</text>
<text text-anchor="middle" x="566.19" y="-21.88" font-family="Times New Roman,serif" font-size="14.00">Samples weight: 0.00</text>
</g>
<!-- BB5&#45;&gt;BB6 -->
<g id="edge8" class="edge">
<title>BB5&#45;&gt;BB6</title>
<path fill="none" stroke="black" d="M402.81,-141.95C430.96,-125.95 463.96,-107.19 492.9,-90.74"/>
<polygon fill="black" stroke="black" points="494.78,-93.7 501.74,-85.71 491.32,-87.61 494.78,-93.7"/>
</g>
</g>
</svg>
