<?xml version="1.0" encoding="UTF-8" standalone="no"?>
<!DOCTYPE svg PUBLIC "-//W3C//DTD SVG 1.1//EN"
 "http://www.w3.org/Graphics/SVG/1.1/DTD/svg11.dtd">
<!-- Generated by graphviz version 2.47.0 (20210316.0004)
 -->
<!-- Title: G Pages: 1 -->
<svg width="501pt" height="501pt"
 viewBox="0.00 0.00 501.50 500.67" xmlns="http://www.w3.org/2000/svg" xmlns:xlink="http://www.w3.org/1999/xlink">
<g id="graph0" class="graph" transform="scale(1 1) rotate(0) translate(4 496.67)">
<title>G</title>
<polygon fill="white" stroke="transparent" points="-4,4 -4,-496.67 497.5,-496.67 497.5,4 -4,4"/>
<!-- BB0 -->
<g id="node1" class="node">
<title>BB0</title>
<ellipse fill="none" stroke="black" cx="184.84" cy="-444.58" rx="104.8" ry="48.17"/>
<text text-anchor="middle" x="184.84" y="-463.38" font-family="Times New Roman,serif" font-size="14.00">[0..30)</text>
<text text-anchor="middle" x="184.84" y="-448.38" font-family="Times New Roman,serif" font-size="14.00">Count: 0</text>
<text text-anchor="middle" x="184.84" y="-433.38" font-family="Times New Roman,serif" font-size="14.00">Normalized count: NaN</text>
<text text-anchor="middle" x="184.84" y="-418.38" font-family="Times New Roman,serif" font-size="14.00">Samples weight: 0.00</text>
</g>
<!-- BB3 -->
<g id="node4" class="node">
<title>BB3</title>
<ellipse fill="none" stroke="black" cx="184.84" cy="-312.42" rx="113.69" ry="48.17"/>
<text text-anchor="middle" x="184.84" y="-331.22" font-family="Times New Roman,serif" font-size="14.00">[57..60)</text>
<text text-anchor="middle" x="184.84" y="-316.22" font-family="Times New Roman,serif" font-size="14.00">Count: 17</text>
<text text-anchor="middle" x="184.84" y="-301.22" font-family="Times New Roman,serif" font-size="14.00">Normalized count: Infinity</text>
<text text-anchor="middle" x="184.84" y="-286.22" font-family="Times New Roman,serif" font-size="14.00">Samples weight: 0.14</text>
</g>
<!-- BB0&#45;&gt;BB3 -->
<g id="edge1" class="edge">
<title>BB0&#45;&gt;BB3</title>
<path fill="none" stroke="black" d="M184.84,-396.22C184.84,-387.95 184.84,-379.27 184.84,-370.77"/>
<polygon fill="black" stroke="black" points="188.34,-370.52 184.84,-360.52 181.34,-370.52 188.34,-370.52"/>
</g>
<!-- BB1 -->
<g id="node2" class="node">
<title>BB1</title>
<ellipse fill="none" stroke="black" cx="113.84" cy="-180.25" rx="113.69" ry="48.17"/>
<text text-anchor="middle" x="113.84" y="-199.05" font-family="Times New Roman,serif" font-size="14.00">[30..53)</text>
<text text-anchor="middle" x="113.84" y="-184.05" font-family="Times New Roman,serif" font-size="14.00">Count: 103</text>
<text text-anchor="middle" x="113.84" y="-169.05" font-family="Times New Roman,serif" font-size="14.00">Normalized count: Infinity</text>
<text text-anchor="middle" x="113.84" y="-154.05" font-family="Times New Roman,serif" font-size="14.00">Samples weight: 0.86</text>
</g>
<!-- BB2 -->
<g id="node3" class="node">
<title>BB2</title>
<ellipse fill="none" stroke="black" cx="184.84" cy="-48.08" rx="104.8" ry="48.17"/>
<text text-anchor="middle" x="184.84" y="-66.88" font-family="Times New Roman,serif" font-size="14.00">[53..57)</text>
<text text-anchor="middle" x="184.84" y="-51.88" font-family="Times New Roman,serif" font-size="14.00">Count: 0</text>
<text text-anchor="middle" x="184.84" y="-36.88" font-family="Times New Roman,serif" font-size="14.00">Normalized count: NaN</text>
<text text-anchor="middle" x="184.84" y="-21.88" font-family="Times New Roman,serif" font-size="14.00">Samples weight: 0.00</text>
</g>
<!-- BB1&#45;&gt;BB2 -->
<g id="edge3" class="edge">
<title>BB1&#45;&gt;BB2</title>
<path fill="none" stroke="black" d="M139.08,-132.99C144.15,-123.69 149.53,-113.82 154.75,-104.25"/>
<polygon fill="black" stroke="black" points="157.98,-105.65 159.69,-95.19 151.83,-102.3 157.98,-105.65"/>
</g>
<!-- BB1&#45;&gt;BB3 -->
<g id="edge2" class="edge">
<title>BB1&#45;&gt;BB3</title>
<path fill="none" stroke="black" d="M145.09,-226.68C150.52,-236.12 156.08,-246.18 161.27,-255.94"/>
<polygon fill="black" stroke="black" points="158.17,-257.56 165.91,-264.79 164.37,-254.31 158.17,-257.56"/>
</g>
<!-- BB2&#45;&gt;BB3 -->
<g id="edge4" class="edge">
<title>BB2&#45;&gt;BB3</title>
<path fill="none" stroke="black" d="M219.19,-93.9C226.44,-105.74 233.04,-118.92 236.84,-132.17 248.64,-173.25 248.64,-187.25 236.84,-228.33 234,-238.25 229.58,-248.13 224.5,-257.43"/>
<polygon fill="black" stroke="black" points="221.43,-255.75 219.46,-266.16 227.49,-259.25 221.43,-255.75"/>
</g>
<!-- BB3&#45;&gt;BB1 -->
<g id="edge5" class="edge">
<title>BB3&#45;&gt;BB1</title>
<path fill="none" stroke="black" d="M153.54,-265.89C148.18,-256.56 142.69,-246.63 137.56,-236.99"/>
<polygon fill="black" stroke="black" points="140.51,-235.08 132.76,-227.85 134.31,-238.33 140.51,-235.08"/>
</g>
<!-- BB4 -->
<g id="node5" class="node">
<title>BB4</title>
<ellipse fill="none" stroke="black" cx="388.84" cy="-180.25" rx="104.8" ry="48.17"/>
<text text-anchor="middle" x="388.84" y="-199.05" font-family="Times New Roman,serif" font-size="14.00">[60..72)</text>
<text text-anchor="middle" x="388.84" y="-184.05" font-family="Times New Roman,serif" font-size="14.00">Count: 0</text>
<text text-anchor="middle" x="388.84" y="-169.05" font-family="Times New Roman,serif" font-size="14.00">Normalized count: NaN</text>
<text text-anchor="middle" x="388.84" y="-154.05" font-family="Times New Roman,serif" font-size="14.00">Samples weight: 0.00</text>
</g>
<!-- BB3&#45;&gt;BB4 -->
<g id="edge6" class="edge">
<title>BB3&#45;&gt;BB4</title>
<path fill="none" stroke="black" d="M246.6,-272.01C269.79,-257.21 296.28,-240.31 320.07,-225.13"/>
<polygon fill="black" stroke="black" points="322.15,-227.96 328.7,-219.63 318.38,-222.06 322.15,-227.96"/>
</g>
</g>
</svg>
