<?xml version="1.0" encoding="UTF-8" standalone="no"?>
<!DOCTYPE svg PUBLIC "-//W3C//DTD SVG 1.1//EN"
 "http://www.w3.org/Graphics/SVG/1.1/DTD/svg11.dtd">
<!-- Generated by graphviz version 2.47.0 (20210316.0004)
 -->
<!-- Title: G Pages: 1 -->
<svg width="896pt" height="765pt"
 viewBox="0.00 0.00 896.42 765.00" xmlns="http://www.w3.org/2000/svg" xmlns:xlink="http://www.w3.org/1999/xlink">
<g id="graph0" class="graph" transform="scale(1 1) rotate(0) translate(4 761)">
<title>G</title>
<polygon fill="white" stroke="transparent" points="-4,4 -4,-761 892.42,-761 892.42,4 -4,4"/>
<!-- BB0 -->
<g id="node1" class="node">
<title>BB0</title>
<ellipse fill="none" stroke="black" cx="359.19" cy="-708.92" rx="103.48" ry="48.17"/>
<text text-anchor="middle" x="359.19" y="-727.72" font-family="Times New Roman,serif" font-size="14.00">[0..4)</text>
<text text-anchor="middle" x="359.19" y="-712.72" font-family="Times New Roman,serif" font-size="14.00">Count: 1</text>
<text text-anchor="middle" x="359.19" y="-697.72" font-family="Times New Roman,serif" font-size="14.00">Normalized count: 1.00</text>
<text text-anchor="middle" x="359.19" y="-682.72" font-family="Times New Roman,serif" font-size="14.00">Samples weight: 0.01</text>
</g>
<!-- BB4 -->
<g id="node5" class="node">
<title>BB4</title>
<ellipse fill="none" stroke="black" cx="359.19" cy="-576.75" rx="108.38" ry="48.17"/>
<text text-anchor="middle" x="359.19" y="-595.55" font-family="Times New Roman,serif" font-size="14.00">[1f..2a)</text>
<text text-anchor="middle" x="359.19" y="-580.55" font-family="Times New Roman,serif" font-size="14.00">Count: 32</text>
<text text-anchor="middle" x="359.19" y="-565.55" font-family="Times New Roman,serif" font-size="14.00">Normalized count: 32.00</text>
<text text-anchor="middle" x="359.19" y="-550.55" font-family="Times New Roman,serif" font-size="14.00">Samples weight: 0.17</text>
</g>
<!-- BB0&#45;&gt;BB4 -->
<g id="edge1" class="edge">
<title>BB0&#45;&gt;BB4</title>
<path fill="none" stroke="black" d="M359.19,-660.55C359.19,-652.29 359.19,-643.6 359.19,-635.1"/>
<polygon fill="black" stroke="black" points="362.69,-634.86 359.19,-624.86 355.69,-634.86 362.69,-634.86"/>
</g>
<!-- BB1 -->
<g id="node2" class="node">
<title>BB1</title>
<ellipse fill="none" stroke="black" cx="218.19" cy="-444.58" rx="113.27" ry="48.17"/>
<text text-anchor="middle" x="218.19" y="-463.38" font-family="Times New Roman,serif" font-size="14.00">[4..10)</text>
<text text-anchor="middle" x="218.19" y="-448.38" font-family="Times New Roman,serif" font-size="14.00">Count: 100</text>
<text text-anchor="middle" x="218.19" y="-433.38" font-family="Times New Roman,serif" font-size="14.00">Normalized count: 100.00</text>
<text text-anchor="middle" x="218.19" y="-418.38" font-family="Times New Roman,serif" font-size="14.00">Samples weight: 0.54</text>
</g>
<!-- BB2 -->
<g id="node3" class="node">
<title>BB2</title>
<ellipse fill="none" stroke="black" cx="108.19" cy="-312.42" rx="108.38" ry="48.17"/>
<text text-anchor="middle" x="108.19" y="-331.22" font-family="Times New Roman,serif" font-size="14.00">[10..1b)</text>
<text text-anchor="middle" x="108.19" y="-316.22" font-family="Times New Roman,serif" font-size="14.00">Count: 23</text>
<text text-anchor="middle" x="108.19" y="-301.22" font-family="Times New Roman,serif" font-size="14.00">Normalized count: 23.00</text>
<text text-anchor="middle" x="108.19" y="-286.22" font-family="Times New Roman,serif" font-size="14.00">Samples weight: 0.12</text>
</g>
<!-- BB1&#45;&gt;BB2 -->
<g id="edge3" class="edge">
<title>BB1&#45;&gt;BB2</title>
<path fill="none" stroke="black" d="M180.64,-399.15C171.44,-388.26 161.5,-376.51 152.03,-365.3"/>
<polygon fill="black" stroke="black" points="154.69,-363.03 145.57,-357.65 149.35,-367.55 154.69,-363.03"/>
</g>
<!-- BB3 -->
<g id="node4" class="node">
<title>BB3</title>
<ellipse fill="none" stroke="black" cx="337.19" cy="-312.42" rx="103.48" ry="48.17"/>
<text text-anchor="middle" x="337.19" y="-331.22" font-family="Times New Roman,serif" font-size="14.00">[1b..1f)</text>
<text text-anchor="middle" x="337.19" y="-316.22" font-family="Times New Roman,serif" font-size="14.00">Count: 1</text>
<text text-anchor="middle" x="337.19" y="-301.22" font-family="Times New Roman,serif" font-size="14.00">Normalized count: 1.00</text>
<text text-anchor="middle" x="337.19" y="-286.22" font-family="Times New Roman,serif" font-size="14.00">Samples weight: 0.01</text>
</g>
<!-- BB1&#45;&gt;BB3 -->
<g id="edge2" class="edge">
<title>BB1&#45;&gt;BB3</title>
<path fill="none" stroke="black" d="M258.48,-399.51C268.76,-388.26 279.91,-376.07 290.49,-364.5"/>
<polygon fill="black" stroke="black" points="293.18,-366.74 297.34,-357 288.01,-362.02 293.18,-366.74"/>
</g>
<!-- BB2&#45;&gt;BB3 -->
<g id="edge4" class="edge">
<title>BB2&#45;&gt;BB3</title>
<path fill="none" stroke="black" d="M216.43,-312.42C218.88,-312.42 221.33,-312.42 223.79,-312.42"/>
<polygon fill="black" stroke="black" points="223.88,-315.92 233.88,-312.42 223.88,-308.92 223.88,-315.92"/>
</g>
<!-- BB3&#45;&gt;BB4 -->
<g id="edge5" class="edge">
<title>BB3&#45;&gt;BB4</title>
<path fill="none" stroke="black" d="M341.15,-360.68C344.86,-404.96 350.42,-471.21 354.38,-518.47"/>
<polygon fill="black" stroke="black" points="350.91,-518.87 355.23,-528.55 357.88,-518.29 350.91,-518.87"/>
</g>
<!-- BB4&#45;&gt;BB1 -->
<g id="edge6" class="edge">
<title>BB4&#45;&gt;BB1</title>
<path fill="none" stroke="black" d="M313.02,-533.13C300.01,-521.12 285.74,-507.94 272.3,-495.54"/>
<polygon fill="black" stroke="black" points="274.66,-492.96 264.94,-488.75 269.92,-498.1 274.66,-492.96"/>
</g>
<!-- BB5 -->
<g id="node6" class="node">
<title>BB5</title>
<ellipse fill="none" stroke="black" cx="539.19" cy="-444.58" rx="108.38" ry="48.17"/>
<text text-anchor="middle" x="539.19" y="-463.38" font-family="Times New Roman,serif" font-size="14.00">[2a..4e)</text>
<text text-anchor="middle" x="539.19" y="-448.38" font-family="Times New Roman,serif" font-size="14.00">Count: 10</text>
<text text-anchor="middle" x="539.19" y="-433.38" font-family="Times New Roman,serif" font-size="14.00">Normalized count: 10.00</text>
<text text-anchor="middle" x="539.19" y="-418.38" font-family="Times New Roman,serif" font-size="14.00">Samples weight: 0.05</text>
</g>
<!-- BB4&#45;&gt;BB5 -->
<g id="edge7" class="edge">
<title>BB4&#45;&gt;BB5</title>
<path fill="none" stroke="black" d="M415.15,-535.28C434.12,-521.56 455.44,-506.14 475,-492"/>
<polygon fill="black" stroke="black" points="477.2,-494.73 483.26,-486.03 473.1,-489.05 477.2,-494.73"/>
</g>
<!-- BB9 -->
<g id="node10" class="node">
<title>BB9</title>
<ellipse fill="none" stroke="black" cx="561.19" cy="-312.42" rx="103.48" ry="48.17"/>
<text text-anchor="middle" x="561.19" y="-331.22" font-family="Times New Roman,serif" font-size="14.00">[5e..66)</text>
<text text-anchor="middle" x="561.19" y="-316.22" font-family="Times New Roman,serif" font-size="14.00">Count: 5</text>
<text text-anchor="middle" x="561.19" y="-301.22" font-family="Times New Roman,serif" font-size="14.00">Normalized count: 5.00</text>
<text text-anchor="middle" x="561.19" y="-286.22" font-family="Times New Roman,serif" font-size="14.00">Samples weight: 0.03</text>
</g>
<!-- BB5&#45;&gt;BB9 -->
<g id="edge8" class="edge">
<title>BB5&#45;&gt;BB9</title>
<path fill="none" stroke="black" d="M547.13,-396.59C548.55,-388.22 550.03,-379.41 551.49,-370.78"/>
<polygon fill="black" stroke="black" points="554.97,-371.22 553.18,-360.78 548.06,-370.05 554.97,-371.22"/>
</g>
<!-- BB6 -->
<g id="node7" class="node">
<title>BB6</title>
<ellipse fill="none" stroke="black" cx="561.19" cy="-180.25" rx="103.48" ry="48.17"/>
<text text-anchor="middle" x="561.19" y="-199.05" font-family="Times New Roman,serif" font-size="14.00">[4e..58)</text>
<text text-anchor="middle" x="561.19" y="-184.05" font-family="Times New Roman,serif" font-size="14.00">Count: 8</text>
<text text-anchor="middle" x="561.19" y="-169.05" font-family="Times New Roman,serif" font-size="14.00">Normalized count: 8.00</text>
<text text-anchor="middle" x="561.19" y="-154.05" font-family="Times New Roman,serif" font-size="14.00">Samples weight: 0.04</text>
</g>
<!-- BB7 -->
<g id="node8" class="node">
<title>BB7</title>
<ellipse fill="none" stroke="black" cx="654.19" cy="-48.08" rx="103.48" ry="48.17"/>
<text text-anchor="middle" x="654.19" y="-66.88" font-family="Times New Roman,serif" font-size="14.00">[58..5a)</text>
<text text-anchor="middle" x="654.19" y="-51.88" font-family="Times New Roman,serif" font-size="14.00">Count: 6</text>
<text text-anchor="middle" x="654.19" y="-36.88" font-family="Times New Roman,serif" font-size="14.00">Normalized count: 6.00</text>
<text text-anchor="middle" x="654.19" y="-21.88" font-family="Times New Roman,serif" font-size="14.00">Samples weight: 0.03</text>
</g>
<!-- BB6&#45;&gt;BB7 -->
<g id="edge10" class="edge">
<title>BB6&#45;&gt;BB7</title>
<path fill="none" stroke="black" d="M593.19,-134.45C600.57,-124.12 608.49,-113.04 616.1,-102.39"/>
<polygon fill="black" stroke="black" points="619.16,-104.13 622.12,-93.96 613.46,-100.06 619.16,-104.13"/>
</g>
<!-- BB8 -->
<g id="node9" class="node">
<title>BB8</title>
<ellipse fill="none" stroke="black" cx="430.19" cy="-48.08" rx="103.48" ry="48.17"/>
<text text-anchor="middle" x="430.19" y="-66.88" font-family="Times New Roman,serif" font-size="14.00">[5a..5e)</text>
<text text-anchor="middle" x="430.19" y="-51.88" font-family="Times New Roman,serif" font-size="14.00">Count: 0</text>
<text text-anchor="middle" x="430.19" y="-36.88" font-family="Times New Roman,serif" font-size="14.00">Normalized count: 0.00</text>
<text text-anchor="middle" x="430.19" y="-21.88" font-family="Times New Roman,serif" font-size="14.00">Samples weight: 0.00</text>
</g>
<!-- BB6&#45;&gt;BB8 -->
<g id="edge9" class="edge">
<title>BB6&#45;&gt;BB8</title>
<path fill="none" stroke="black" d="M517.93,-136.27C505.97,-124.38 492.88,-111.38 480.56,-99.13"/>
<polygon fill="black" stroke="black" points="482.96,-96.59 473.4,-92.02 478.03,-101.55 482.96,-96.59"/>
</g>
<!-- BB8&#45;&gt;BB9 -->
<g id="edge11" class="edge">
<title>BB8&#45;&gt;BB9</title>
<path fill="none" stroke="black" d="M425.21,-96.4C423.45,-134.49 426.21,-188.12 449.19,-228.33 458.26,-244.21 471.72,-257.95 486.2,-269.43"/>
<polygon fill="black" stroke="black" points="484.24,-272.33 494.32,-275.57 488.46,-266.75 484.24,-272.33"/>
</g>
<!-- BB9&#45;&gt;BB6 -->
<g id="edge12" class="edge">
<title>BB9&#45;&gt;BB6</title>
<path fill="none" stroke="black" d="M561.19,-264.05C561.19,-255.79 561.19,-247.1 561.19,-238.6"/>
<polygon fill="black" stroke="black" points="564.69,-238.36 561.19,-228.36 557.69,-238.36 564.69,-238.36"/>
</g>
<!-- BB10 -->
<g id="node11" class="node">
<title>BB10</title>
<ellipse fill="none" stroke="black" cx="785.19" cy="-180.25" rx="103.48" ry="48.17"/>
<text text-anchor="middle" x="785.19" y="-199.05" font-family="Times New Roman,serif" font-size="14.00">[66..68)</text>
<text text-anchor="middle" x="785.19" y="-184.05" font-family="Times New Roman,serif" font-size="14.00">Count: 0</text>
<text text-anchor="middle" x="785.19" y="-169.05" font-family="Times New Roman,serif" font-size="14.00">Normalized count: 0.00</text>
<text text-anchor="middle" x="785.19" y="-154.05" font-family="Times New Roman,serif" font-size="14.00">Samples weight: 0.00</text>
</g>
<!-- BB9&#45;&gt;BB10 -->
<g id="edge13" class="edge">
<title>BB9&#45;&gt;BB10</title>
<path fill="none" stroke="black" d="M624.78,-274.46C652.21,-258.52 684.43,-239.8 712.78,-223.33"/>
<polygon fill="black" stroke="black" points="714.55,-226.35 721.44,-218.29 711.03,-220.29 714.55,-226.35"/>
</g>
</g>
</svg>
