<?xml version="1.0" encoding="UTF-8" standalone="no"?>
<!DOCTYPE svg PUBLIC "-//W3C//DTD SVG 1.1//EN"
 "http://www.w3.org/Graphics/SVG/1.1/DTD/svg11.dtd">
<!-- Generated by graphviz version 2.47.0 (20210316.0004)
 -->
<!-- Title: G Pages: 1 -->
<svg width="184pt" height="151pt"
 viewBox="0.00 0.00 184.20 151.48" xmlns="http://www.w3.org/2000/svg" xmlns:xlink="http://www.w3.org/1999/xlink">
<g id="graph0" class="graph" transform="scale(1 1) rotate(0) translate(4 147.48)">
<title>G</title>
<polygon fill="white" stroke="transparent" points="-4,4 -4,-147.48 180.2,-147.48 180.2,4 -4,4"/>
<!-- BB0 -->
<g id="node1" class="node">
<title>BB0</title>
<ellipse fill="none" stroke="black" cx="85.48" cy="-116.61" rx="33.47" ry="26.74"/>
<text text-anchor="middle" x="85.48" y="-120.41" font-family="Times New Roman,serif" font-size="14.00">[0..4)</text>
<text text-anchor="middle" x="85.48" y="-105.41" font-family="Times New Roman,serif" font-size="14.00">0.25</text>
</g>
<!-- BB1 -->
<g id="node2" class="node">
<title>BB1</title>
<ellipse fill="none" stroke="black" cx="37.48" cy="-26.87" rx="37.45" ry="26.74"/>
<text text-anchor="middle" x="37.48" y="-30.67" font-family="Times New Roman,serif" font-size="14.00">[4..1a)</text>
<text text-anchor="middle" x="37.48" y="-15.67" font-family="Times New Roman,serif" font-size="14.00">0.66</text>
</g>
<!-- BB0&#45;&gt;BB1 -->
<g id="edge2" class="edge">
<title>BB0&#45;&gt;BB1</title>
<path fill="none" stroke="black" d="M72.36,-91.63C67.22,-82.23 61.23,-71.29 55.68,-61.14"/>
<polygon fill="black" stroke="black" points="58.61,-59.21 50.74,-52.12 52.47,-62.57 58.61,-59.21"/>
</g>
<!-- BB2 -->
<g id="node3" class="node">
<title>BB2</title>
<ellipse fill="none" stroke="black" cx="134.48" cy="-26.87" rx="41.94" ry="26.74"/>
<text text-anchor="middle" x="134.48" y="-30.67" font-family="Times New Roman,serif" font-size="14.00">[1a..24)</text>
<text text-anchor="middle" x="134.48" y="-15.67" font-family="Times New Roman,serif" font-size="14.00">0.10</text>
</g>
<!-- BB0&#45;&gt;BB2 -->
<g id="edge1" class="edge">
<title>BB0&#45;&gt;BB2</title>
<path fill="none" stroke="black" d="M98.87,-91.63C104.07,-82.31 110.13,-71.47 115.75,-61.39"/>
<polygon fill="black" stroke="black" points="118.94,-62.86 120.76,-52.43 112.83,-59.45 118.94,-62.86"/>
</g>
<!-- BB1&#45;&gt;BB2 -->
<g id="edge3" class="edge">
<title>BB1&#45;&gt;BB2</title>
<path fill="none" stroke="black" d="M74.99,-26.87C77.47,-26.87 79.96,-26.87 82.44,-26.87"/>
<polygon fill="black" stroke="black" points="82.65,-30.37 92.65,-26.87 82.65,-23.37 82.65,-30.37"/>
</g>
</g>
</svg>
