<?xml version="1.0" encoding="UTF-8" standalone="no"?>
<!DOCTYPE svg PUBLIC "-//W3C//DTD SVG 1.1//EN"
 "http://www.w3.org/Graphics/SVG/1.1/DTD/svg11.dtd">
<!-- Generated by graphviz version 2.47.0 (20210316.0004)
 -->
<!-- Title: G Pages: 1 -->
<svg width="289pt" height="421pt"
 viewBox="0.00 0.00 288.90 420.70" xmlns="http://www.w3.org/2000/svg" xmlns:xlink="http://www.w3.org/1999/xlink">
<g id="graph0" class="graph" transform="scale(1 1) rotate(0) translate(4 416.7)">
<title>G</title>
<polygon fill="white" stroke="transparent" points="-4,4 -4,-416.7 284.9,-416.7 284.9,4 -4,4"/>
<!-- BB0 -->
<g id="node1" class="node">
<title>BB0</title>
<ellipse fill="none" stroke="black" cx="86.48" cy="-385.83" rx="32.55" ry="26.74"/>
<text text-anchor="middle" x="86.48" y="-389.63" font-family="Times New Roman,serif" font-size="14.00">[0..e)</text>
<text text-anchor="middle" x="86.48" y="-374.63" font-family="Times New Roman,serif" font-size="14.00">0.03</text>
</g>
<!-- BB1 -->
<g id="node2" class="node">
<title>BB1</title>
<ellipse fill="none" stroke="black" cx="37.48" cy="-296.09" rx="37.45" ry="26.74"/>
<text text-anchor="middle" x="37.48" y="-299.89" font-family="Times New Roman,serif" font-size="14.00">[e..10)</text>
<text text-anchor="middle" x="37.48" y="-284.89" font-family="Times New Roman,serif" font-size="14.00">0.01</text>
</g>
<!-- BB0&#45;&gt;BB1 -->
<g id="edge2" class="edge">
<title>BB0&#45;&gt;BB1</title>
<path fill="none" stroke="black" d="M73.09,-360.86C67.84,-351.45 61.72,-340.51 56.06,-330.36"/>
<polygon fill="black" stroke="black" points="58.95,-328.37 51.02,-321.34 52.84,-331.78 58.95,-328.37"/>
</g>
<!-- BB2 -->
<g id="node3" class="node">
<title>BB2</title>
<ellipse fill="none" stroke="black" cx="135.48" cy="-296.09" rx="42.35" ry="26.74"/>
<text text-anchor="middle" x="135.48" y="-299.89" font-family="Times New Roman,serif" font-size="14.00">[10..14)</text>
<text text-anchor="middle" x="135.48" y="-284.89" font-family="Times New Roman,serif" font-size="14.00">0.02</text>
</g>
<!-- BB0&#45;&gt;BB2 -->
<g id="edge1" class="edge">
<title>BB0&#45;&gt;BB2</title>
<path fill="none" stroke="black" d="M99.87,-360.86C105.07,-351.53 111.13,-340.69 116.75,-330.62"/>
<polygon fill="black" stroke="black" points="119.94,-332.08 121.76,-321.65 113.83,-328.67 119.94,-332.08"/>
</g>
<!-- BB6 -->
<g id="node7" class="node">
<title>BB6</title>
<ellipse fill="none" stroke="black" cx="135.48" cy="-206.35" rx="41.94" ry="26.74"/>
<text text-anchor="middle" x="135.48" y="-210.15" font-family="Times New Roman,serif" font-size="14.00">[3a..43)</text>
<text text-anchor="middle" x="135.48" y="-195.15" font-family="Times New Roman,serif" font-size="14.00">0.07</text>
</g>
<!-- BB2&#45;&gt;BB6 -->
<g id="edge3" class="edge">
<title>BB2&#45;&gt;BB6</title>
<path fill="none" stroke="black" d="M135.48,-268.77C135.48,-260.8 135.48,-251.91 135.48,-243.42"/>
<polygon fill="black" stroke="black" points="138.98,-243.35 135.48,-233.35 131.98,-243.35 138.98,-243.35"/>
</g>
<!-- BB3 -->
<g id="node4" class="node">
<title>BB3</title>
<ellipse fill="none" stroke="black" cx="135.48" cy="-116.61" rx="42.35" ry="26.74"/>
<text text-anchor="middle" x="135.48" y="-120.41" font-family="Times New Roman,serif" font-size="14.00">[14..34)</text>
<text text-anchor="middle" x="135.48" y="-105.41" font-family="Times New Roman,serif" font-size="14.00">0.57</text>
</g>
<!-- BB4 -->
<g id="node5" class="node">
<title>BB4</title>
<ellipse fill="none" stroke="black" cx="167.48" cy="-26.87" rx="42.35" ry="26.74"/>
<text text-anchor="middle" x="167.48" y="-30.67" font-family="Times New Roman,serif" font-size="14.00">[34..36)</text>
<text text-anchor="middle" x="167.48" y="-15.67" font-family="Times New Roman,serif" font-size="14.00">0.24</text>
</g>
<!-- BB3&#45;&gt;BB4 -->
<g id="edge5" class="edge">
<title>BB3&#45;&gt;BB4</title>
<path fill="none" stroke="black" d="M144.73,-90.23C147.85,-81.68 151.39,-71.99 154.73,-62.83"/>
<polygon fill="black" stroke="black" points="158.1,-63.79 158.24,-53.19 151.53,-61.39 158.1,-63.79"/>
</g>
<!-- BB5 -->
<g id="node6" class="node">
<title>BB5</title>
<ellipse fill="none" stroke="black" cx="65.48" cy="-26.87" rx="41.94" ry="26.74"/>
<text text-anchor="middle" x="65.48" y="-30.67" font-family="Times New Roman,serif" font-size="14.00">[36..3a)</text>
<text text-anchor="middle" x="65.48" y="-15.67" font-family="Times New Roman,serif" font-size="14.00">0.05</text>
</g>
<!-- BB3&#45;&gt;BB5 -->
<g id="edge4" class="edge">
<title>BB3&#45;&gt;BB5</title>
<path fill="none" stroke="black" d="M116.72,-92.1C108.65,-81.98 99.1,-70.02 90.45,-59.17"/>
<polygon fill="black" stroke="black" points="93.02,-56.78 84.04,-51.14 87.55,-61.14 93.02,-56.78"/>
</g>
<!-- BB5&#45;&gt;BB6 -->
<g id="edge6" class="edge">
<title>BB5&#45;&gt;BB6</title>
<path fill="none" stroke="black" d="M65.91,-53.78C67.17,-77.98 71.36,-114.59 84.48,-143.48 89.74,-155.07 97.74,-166.27 105.86,-175.88"/>
<polygon fill="black" stroke="black" points="103.4,-178.38 112.65,-183.55 108.65,-173.74 103.4,-178.38"/>
</g>
<!-- BB6&#45;&gt;BB3 -->
<g id="edge7" class="edge">
<title>BB6&#45;&gt;BB3</title>
<path fill="none" stroke="black" d="M135.48,-179.03C135.48,-171.06 135.48,-162.17 135.48,-153.68"/>
<polygon fill="black" stroke="black" points="138.98,-153.61 135.48,-143.61 131.98,-153.61 138.98,-153.61"/>
</g>
<!-- BB7 -->
<g id="node8" class="node">
<title>BB7</title>
<ellipse fill="none" stroke="black" cx="238.48" cy="-116.61" rx="42.35" ry="26.74"/>
<text text-anchor="middle" x="238.48" y="-120.41" font-family="Times New Roman,serif" font-size="14.00">[43..45)</text>
<text text-anchor="middle" x="238.48" y="-105.41" font-family="Times New Roman,serif" font-size="14.00">0.00</text>
</g>
<!-- BB6&#45;&gt;BB7 -->
<g id="edge8" class="edge">
<title>BB6&#45;&gt;BB7</title>
<path fill="none" stroke="black" d="M159.89,-184.56C173.64,-172.84 191,-158.06 205.9,-145.36"/>
<polygon fill="black" stroke="black" points="208.54,-147.71 213.89,-138.56 204,-142.38 208.54,-147.71"/>
</g>
</g>
</svg>
