<?xml version="1.0" encoding="UTF-8" standalone="no"?>
<!DOCTYPE svg PUBLIC "-//W3C//DTD SVG 1.1//EN"
 "http://www.w3.org/Graphics/SVG/1.1/DTD/svg11.dtd">
<!-- Generated by graphviz version 2.47.0 (20210316.0004)
 -->
<!-- Title: G Pages: 1 -->
<svg width="677pt" height="749pt"
 viewBox="0.00 0.00 676.72 748.67" xmlns="http://www.w3.org/2000/svg" xmlns:xlink="http://www.w3.org/1999/xlink">
<g id="graph0" class="graph" transform="scale(1 1) rotate(0) translate(4 744.67)">
<title>G</title>
<polygon fill="white" stroke="transparent" points="-4,4 -4,-744.67 672.72,-744.67 672.72,4 -4,4"/>
<!-- BB0 -->
<g id="node1" class="node">
<title>BB0</title>
<ellipse fill="none" stroke="black" cx="105.36" cy="-703.2" rx="105.22" ry="37.45"/>
<text text-anchor="middle" x="105.36" y="-714.5" font-family="Times New Roman,serif" font-size="14.00">[0..2c)</text>
<text text-anchor="middle" x="105.36" y="-699.5" font-family="Times New Roman,serif" font-size="14.00">Normalized Count: 1.00</text>
<text text-anchor="middle" x="105.36" y="-684.5" font-family="Times New Roman,serif" font-size="14.00">Samples weight: 0.00</text>
</g>
<!-- BB2 -->
<g id="node3" class="node">
<title>BB2</title>
<ellipse fill="none" stroke="black" cx="105.36" cy="-592.24" rx="105.22" ry="37.45"/>
<text text-anchor="middle" x="105.36" y="-603.54" font-family="Times New Roman,serif" font-size="14.00">[37..3c)</text>
<text text-anchor="middle" x="105.36" y="-588.54" font-family="Times New Roman,serif" font-size="14.00">Normalized Count: 1.00</text>
<text text-anchor="middle" x="105.36" y="-573.54" font-family="Times New Roman,serif" font-size="14.00">Samples weight: 0.00</text>
</g>
<!-- BB0&#45;&gt;BB2 -->
<g id="edge1" class="edge">
<title>BB0&#45;&gt;BB2</title>
<path fill="none" stroke="black" d="M105.36,-665.61C105.36,-657.44 105.36,-648.66 105.36,-640.13"/>
<polygon fill="black" stroke="black" points="108.86,-639.92 105.36,-629.92 101.86,-639.92 108.86,-639.92"/>
</g>
<!-- BB1 -->
<g id="node2" class="node">
<title>BB1</title>
<ellipse fill="none" stroke="black" cx="105.36" cy="-481.29" rx="105.22" ry="37.45"/>
<text text-anchor="middle" x="105.36" y="-492.59" font-family="Times New Roman,serif" font-size="14.00">[2c..37)</text>
<text text-anchor="middle" x="105.36" y="-477.59" font-family="Times New Roman,serif" font-size="14.00">Normalized Count: 0.00</text>
<text text-anchor="middle" x="105.36" y="-462.59" font-family="Times New Roman,serif" font-size="14.00">Samples weight: 0.00</text>
</g>
<!-- BB1&#45;&gt;BB2 -->
<g id="edge2" class="edge">
<title>BB1&#45;&gt;BB2</title>
<path fill="none" stroke="black" d="M111.78,-518.96C112.09,-527.14 112.18,-535.92 112.05,-544.45"/>
<polygon fill="black" stroke="black" points="108.54,-544.57 111.77,-554.66 115.54,-544.76 108.54,-544.57"/>
</g>
<!-- BB2&#45;&gt;BB1 -->
<g id="edge3" class="edge">
<title>BB2&#45;&gt;BB1</title>
<path fill="none" stroke="black" d="M98.94,-554.66C98.63,-546.49 98.54,-537.71 98.67,-529.18"/>
<polygon fill="black" stroke="black" points="102.17,-529.05 98.94,-518.96 95.17,-528.86 102.17,-529.05"/>
</g>
<!-- BB3 -->
<g id="node4" class="node">
<title>BB3</title>
<ellipse fill="none" stroke="black" cx="334.36" cy="-481.29" rx="105.22" ry="37.45"/>
<text text-anchor="middle" x="334.36" y="-492.59" font-family="Times New Roman,serif" font-size="14.00">[3c..45)</text>
<text text-anchor="middle" x="334.36" y="-477.59" font-family="Times New Roman,serif" font-size="14.00">Normalized Count: 1.00</text>
<text text-anchor="middle" x="334.36" y="-462.59" font-family="Times New Roman,serif" font-size="14.00">Samples weight: 0.00</text>
</g>
<!-- BB2&#45;&gt;BB3 -->
<g id="edge4" class="edge">
<title>BB2&#45;&gt;BB3</title>
<path fill="none" stroke="black" d="M167.33,-561.76C196.86,-547.71 232.34,-530.83 262.99,-516.24"/>
<polygon fill="black" stroke="black" points="264.81,-519.25 272.34,-511.8 261.8,-512.93 264.81,-519.25"/>
</g>
<!-- BB8 -->
<g id="node9" class="node">
<title>BB8</title>
<ellipse fill="none" stroke="black" cx="334.36" cy="-370.34" rx="105.22" ry="37.45"/>
<text text-anchor="middle" x="334.36" y="-381.64" font-family="Times New Roman,serif" font-size="14.00">[c0..c5)</text>
<text text-anchor="middle" x="334.36" y="-366.64" font-family="Times New Roman,serif" font-size="14.00">Normalized Count: 9.50</text>
<text text-anchor="middle" x="334.36" y="-351.64" font-family="Times New Roman,serif" font-size="14.00">Samples weight: 0.01</text>
</g>
<!-- BB3&#45;&gt;BB8 -->
<g id="edge5" class="edge">
<title>BB3&#45;&gt;BB8</title>
<path fill="none" stroke="black" d="M334.36,-443.71C334.36,-435.53 334.36,-426.75 334.36,-418.23"/>
<polygon fill="black" stroke="black" points="337.86,-418.01 334.36,-408.01 330.86,-418.01 337.86,-418.01"/>
</g>
<!-- BB4 -->
<g id="node5" class="node">
<title>BB4</title>
<ellipse fill="none" stroke="black" cx="334.36" cy="-259.38" rx="105.22" ry="37.45"/>
<text text-anchor="middle" x="334.36" y="-270.68" font-family="Times New Roman,serif" font-size="14.00">[45..4d)</text>
<text text-anchor="middle" x="334.36" y="-255.68" font-family="Times New Roman,serif" font-size="14.00">Normalized Count: 8.50</text>
<text text-anchor="middle" x="334.36" y="-240.68" font-family="Times New Roman,serif" font-size="14.00">Samples weight: 0.01</text>
</g>
<!-- BB6 -->
<g id="node7" class="node">
<title>BB6</title>
<ellipse fill="none" stroke="black" cx="363.36" cy="-148.43" rx="115.02" ry="37.45"/>
<text text-anchor="middle" x="363.36" y="-159.73" font-family="Times New Roman,serif" font-size="14.00">[89..90)</text>
<text text-anchor="middle" x="363.36" y="-144.73" font-family="Times New Roman,serif" font-size="14.00">Normalized Count: 483.00</text>
<text text-anchor="middle" x="363.36" y="-129.73" font-family="Times New Roman,serif" font-size="14.00">Samples weight: 0.49</text>
</g>
<!-- BB4&#45;&gt;BB6 -->
<g id="edge6" class="edge">
<title>BB4&#45;&gt;BB6</title>
<path fill="none" stroke="black" d="M344.1,-221.8C346.3,-213.54 348.66,-204.65 350.95,-196.04"/>
<polygon fill="black" stroke="black" points="354.41,-196.67 353.6,-186.1 347.64,-194.87 354.41,-196.67"/>
</g>
<!-- BB5 -->
<g id="node6" class="node">
<title>BB5</title>
<ellipse fill="none" stroke="black" cx="387.36" cy="-37.48" rx="115.02" ry="37.45"/>
<text text-anchor="middle" x="387.36" y="-48.78" font-family="Times New Roman,serif" font-size="14.00">[4d..89)</text>
<text text-anchor="middle" x="387.36" y="-33.78" font-family="Times New Roman,serif" font-size="14.00">Normalized Count: 474.50</text>
<text text-anchor="middle" x="387.36" y="-18.78" font-family="Times New Roman,serif" font-size="14.00">Samples weight: 0.48</text>
</g>
<!-- BB5&#45;&gt;BB6 -->
<g id="edge7" class="edge">
<title>BB5&#45;&gt;BB6</title>
<path fill="none" stroke="black" d="M385.73,-74.97C384.2,-83.44 382.28,-92.56 380.18,-101.37"/>
<polygon fill="black" stroke="black" points="376.77,-100.6 377.75,-111.15 383.56,-102.29 376.77,-100.6"/>
</g>
<!-- BB6&#45;&gt;BB5 -->
<g id="edge8" class="edge">
<title>BB6&#45;&gt;BB5</title>
<path fill="none" stroke="black" d="M365,-110.85C366.54,-102.4 368.45,-93.31 370.54,-84.52"/>
<polygon fill="black" stroke="black" points="373.94,-85.33 372.96,-74.78 367.15,-83.64 373.94,-85.33"/>
</g>
<!-- BB7 -->
<g id="node8" class="node">
<title>BB7</title>
<ellipse fill="none" stroke="black" cx="148.36" cy="-37.48" rx="105.22" ry="37.45"/>
<text text-anchor="middle" x="148.36" y="-48.78" font-family="Times New Roman,serif" font-size="14.00">[90..c0)</text>
<text text-anchor="middle" x="148.36" y="-33.78" font-family="Times New Roman,serif" font-size="14.00">Normalized Count: 8.50</text>
<text text-anchor="middle" x="148.36" y="-18.78" font-family="Times New Roman,serif" font-size="14.00">Samples weight: 0.01</text>
</g>
<!-- BB6&#45;&gt;BB7 -->
<g id="edge9" class="edge">
<title>BB6&#45;&gt;BB7</title>
<path fill="none" stroke="black" d="M302.32,-116.5C275.67,-102.99 244.29,-87.09 216.84,-73.18"/>
<polygon fill="black" stroke="black" points="218.19,-69.94 207.69,-68.54 215.03,-76.19 218.19,-69.94"/>
</g>
<!-- BB7&#45;&gt;BB8 -->
<g id="edge10" class="edge">
<title>BB7&#45;&gt;BB8</title>
<path fill="none" stroke="black" d="M150.39,-75.03C155.03,-128.59 170.29,-229.35 220.36,-296.86 231.44,-311.8 246.6,-324.44 262.24,-334.77"/>
<polygon fill="black" stroke="black" points="260.63,-337.9 270.96,-340.27 264.37,-331.98 260.63,-337.9"/>
</g>
<!-- BB8&#45;&gt;BB4 -->
<g id="edge11" class="edge">
<title>BB8&#45;&gt;BB4</title>
<path fill="none" stroke="black" d="M334.36,-332.75C334.36,-324.58 334.36,-315.8 334.36,-307.27"/>
<polygon fill="black" stroke="black" points="337.86,-307.06 334.36,-297.06 330.86,-307.06 337.86,-307.06"/>
</g>
<!-- BB9 -->
<g id="node10" class="node">
<title>BB9</title>
<ellipse fill="none" stroke="black" cx="563.36" cy="-259.38" rx="105.22" ry="37.45"/>
<text text-anchor="middle" x="563.36" y="-270.68" font-family="Times New Roman,serif" font-size="14.00">[c5..c8)</text>
<text text-anchor="middle" x="563.36" y="-255.68" font-family="Times New Roman,serif" font-size="14.00">Normalized Count: 1.00</text>
<text text-anchor="middle" x="563.36" y="-240.68" font-family="Times New Roman,serif" font-size="14.00">Samples weight: 0.00</text>
</g>
<!-- BB8&#45;&gt;BB9 -->
<g id="edge12" class="edge">
<title>BB8&#45;&gt;BB9</title>
<path fill="none" stroke="black" d="M396.33,-339.85C425.86,-325.8 461.34,-308.92 491.99,-294.34"/>
<polygon fill="black" stroke="black" points="493.81,-297.35 501.34,-289.89 490.8,-291.03 493.81,-297.35"/>
</g>
</g>
</svg>
