<?xml version="1.0" encoding="UTF-8" standalone="no"?>
<!DOCTYPE svg PUBLIC "-//W3C//DTD SVG 1.1//EN"
 "http://www.w3.org/Graphics/SVG/1.1/DTD/svg11.dtd">
<!-- Generated by graphviz version 2.47.0 (20210316.0004)
 -->
<!-- Title: G Pages: 1 -->
<svg width="589pt" height="749pt"
 viewBox="0.00 0.00 588.55 748.67" xmlns="http://www.w3.org/2000/svg" xmlns:xlink="http://www.w3.org/1999/xlink">
<g id="graph0" class="graph" transform="scale(1 1) rotate(0) translate(4 744.67)">
<title>G</title>
<polygon fill="white" stroke="transparent" points="-4,4 -4,-744.67 584.55,-744.67 584.55,4 -4,4"/>
<!-- BB0 -->
<g id="node1" class="node">
<title>BB0</title>
<ellipse fill="none" stroke="black" cx="241.77" cy="-703.2" rx="106.55" ry="37.45"/>
<text text-anchor="middle" x="241.77" y="-714.5" font-family="Times New Roman,serif" font-size="14.00">[0..4)</text>
<text text-anchor="middle" x="241.77" y="-699.5" font-family="Times New Roman,serif" font-size="14.00">Normalized Count: NaN</text>
<text text-anchor="middle" x="241.77" y="-684.5" font-family="Times New Roman,serif" font-size="14.00">Samples weight: 0.00</text>
</g>
<!-- BB8 -->
<g id="node9" class="node">
<title>BB8</title>
<ellipse fill="none" stroke="black" cx="241.77" cy="-592.24" rx="106.55" ry="37.45"/>
<text text-anchor="middle" x="241.77" y="-603.54" font-family="Times New Roman,serif" font-size="14.00">[65..6a)</text>
<text text-anchor="middle" x="241.77" y="-588.54" font-family="Times New Roman,serif" font-size="14.00">Normalized Count: NaN</text>
<text text-anchor="middle" x="241.77" y="-573.54" font-family="Times New Roman,serif" font-size="14.00">Samples weight: 0.00</text>
</g>
<!-- BB0&#45;&gt;BB8 -->
<g id="edge1" class="edge">
<title>BB0&#45;&gt;BB8</title>
<path fill="none" stroke="black" d="M241.77,-665.61C241.77,-657.44 241.77,-648.66 241.77,-640.13"/>
<polygon fill="black" stroke="black" points="245.27,-639.92 241.77,-629.92 238.27,-639.92 245.27,-639.92"/>
</g>
<!-- BB1 -->
<g id="node2" class="node">
<title>BB1</title>
<ellipse fill="none" stroke="black" cx="241.77" cy="-481.29" rx="106.55" ry="37.45"/>
<text text-anchor="middle" x="241.77" y="-492.59" font-family="Times New Roman,serif" font-size="14.00">[4..8)</text>
<text text-anchor="middle" x="241.77" y="-477.59" font-family="Times New Roman,serif" font-size="14.00">Normalized Count: NaN</text>
<text text-anchor="middle" x="241.77" y="-462.59" font-family="Times New Roman,serif" font-size="14.00">Samples weight: 0.00</text>
</g>
<!-- BB6 -->
<g id="node7" class="node">
<title>BB6</title>
<ellipse fill="none" stroke="black" cx="246.77" cy="-370.34" rx="115.93" ry="37.45"/>
<text text-anchor="middle" x="246.77" y="-381.64" font-family="Times New Roman,serif" font-size="14.00">[5c..61)</text>
<text text-anchor="middle" x="246.77" y="-366.64" font-family="Times New Roman,serif" font-size="14.00">Normalized Count: Infinity</text>
<text text-anchor="middle" x="246.77" y="-351.64" font-family="Times New Roman,serif" font-size="14.00">Samples weight: 0.01</text>
</g>
<!-- BB1&#45;&gt;BB6 -->
<g id="edge2" class="edge">
<title>BB1&#45;&gt;BB6</title>
<path fill="none" stroke="black" d="M243.45,-443.71C243.83,-435.53 244.23,-426.75 244.62,-418.23"/>
<polygon fill="black" stroke="black" points="248.13,-418.16 245.09,-408.01 241.14,-417.84 248.13,-418.16"/>
</g>
<!-- BB2 -->
<g id="node3" class="node">
<title>BB2</title>
<ellipse fill="none" stroke="black" cx="413.77" cy="-259.38" rx="115.93" ry="37.45"/>
<text text-anchor="middle" x="413.77" y="-270.68" font-family="Times New Roman,serif" font-size="14.00">[8..1d)</text>
<text text-anchor="middle" x="413.77" y="-255.68" font-family="Times New Roman,serif" font-size="14.00">Normalized Count: Infinity</text>
<text text-anchor="middle" x="413.77" y="-240.68" font-family="Times New Roman,serif" font-size="14.00">Samples weight: 0.01</text>
</g>
<!-- BB4 -->
<g id="node5" class="node">
<title>BB4</title>
<ellipse fill="none" stroke="black" cx="426.77" cy="-148.43" rx="115.93" ry="37.45"/>
<text text-anchor="middle" x="426.77" y="-159.73" font-family="Times New Roman,serif" font-size="14.00">[53..58)</text>
<text text-anchor="middle" x="426.77" y="-144.73" font-family="Times New Roman,serif" font-size="14.00">Normalized Count: Infinity</text>
<text text-anchor="middle" x="426.77" y="-129.73" font-family="Times New Roman,serif" font-size="14.00">Samples weight: 0.03</text>
</g>
<!-- BB2&#45;&gt;BB4 -->
<g id="edge3" class="edge">
<title>BB2&#45;&gt;BB4</title>
<path fill="none" stroke="black" d="M418.14,-221.8C419.12,-213.54 420.18,-204.65 421.21,-196.04"/>
<polygon fill="black" stroke="black" points="424.69,-196.45 422.4,-186.1 417.74,-195.62 424.69,-196.45"/>
</g>
<!-- BB3 -->
<g id="node4" class="node">
<title>BB3</title>
<ellipse fill="none" stroke="black" cx="440.77" cy="-37.48" rx="115.93" ry="37.45"/>
<text text-anchor="middle" x="440.77" y="-48.78" font-family="Times New Roman,serif" font-size="14.00">[1d..53)</text>
<text text-anchor="middle" x="440.77" y="-33.78" font-family="Times New Roman,serif" font-size="14.00">Normalized Count: Infinity</text>
<text text-anchor="middle" x="440.77" y="-18.78" font-family="Times New Roman,serif" font-size="14.00">Samples weight: 0.93</text>
</g>
<!-- BB3&#45;&gt;BB4 -->
<g id="edge4" class="edge">
<title>BB3&#45;&gt;BB4</title>
<path fill="none" stroke="black" d="M442.48,-75.15C441.74,-83.42 440.68,-92.3 439.44,-100.91"/>
<polygon fill="black" stroke="black" points="435.97,-100.43 437.89,-110.85 442.89,-101.5 435.97,-100.43"/>
</g>
<!-- BB4&#45;&gt;BB3 -->
<g id="edge5" class="edge">
<title>BB4&#45;&gt;BB3</title>
<path fill="none" stroke="black" d="M425.06,-110.85C425.8,-102.58 426.85,-93.7 428.1,-85.09"/>
<polygon fill="black" stroke="black" points="431.56,-85.57 429.64,-75.15 424.65,-84.49 431.56,-85.57"/>
</g>
<!-- BB5 -->
<g id="node6" class="node">
<title>BB5</title>
<ellipse fill="none" stroke="black" cx="190.77" cy="-37.48" rx="115.93" ry="37.45"/>
<text text-anchor="middle" x="190.77" y="-48.78" font-family="Times New Roman,serif" font-size="14.00">[58..5c)</text>
<text text-anchor="middle" x="190.77" y="-33.78" font-family="Times New Roman,serif" font-size="14.00">Normalized Count: Infinity</text>
<text text-anchor="middle" x="190.77" y="-18.78" font-family="Times New Roman,serif" font-size="14.00">Samples weight: 0.01</text>
</g>
<!-- BB4&#45;&gt;BB5 -->
<g id="edge6" class="edge">
<title>BB4&#45;&gt;BB5</title>
<path fill="none" stroke="black" d="M361.66,-117.37C331.86,-103.61 296.39,-87.24 265.51,-72.98"/>
<polygon fill="black" stroke="black" points="266.63,-69.64 256.08,-68.63 263.69,-76 266.63,-69.64"/>
</g>
<!-- BB5&#45;&gt;BB6 -->
<g id="edge7" class="edge">
<title>BB5&#45;&gt;BB6</title>
<path fill="none" stroke="black" d="M197.27,-75C203.82,-112 214.17,-170.9 222.77,-221.91 228.44,-255.5 234.61,-293.44 239.27,-322.42"/>
<polygon fill="black" stroke="black" points="235.88,-323.34 240.92,-332.66 242.79,-322.23 235.88,-323.34"/>
</g>
<!-- BB6&#45;&gt;BB2 -->
<g id="edge8" class="edge">
<title>BB6&#45;&gt;BB2</title>
<path fill="none" stroke="black" d="M297.33,-336.35C315.48,-324.51 336.1,-311.06 354.9,-298.8"/>
<polygon fill="black" stroke="black" points="356.92,-301.65 363.39,-293.26 353.1,-295.79 356.92,-301.65"/>
</g>
<!-- BB7 -->
<g id="node8" class="node">
<title>BB7</title>
<ellipse fill="none" stroke="black" cx="106.77" cy="-259.38" rx="106.55" ry="37.45"/>
<text text-anchor="middle" x="106.77" y="-270.68" font-family="Times New Roman,serif" font-size="14.00">[61..65)</text>
<text text-anchor="middle" x="106.77" y="-255.68" font-family="Times New Roman,serif" font-size="14.00">Normalized Count: NaN</text>
<text text-anchor="middle" x="106.77" y="-240.68" font-family="Times New Roman,serif" font-size="14.00">Samples weight: 0.00</text>
</g>
<!-- BB6&#45;&gt;BB7 -->
<g id="edge9" class="edge">
<title>BB6&#45;&gt;BB7</title>
<path fill="none" stroke="black" d="M203.24,-335.46C188.89,-324.29 172.79,-311.76 157.91,-300.18"/>
<polygon fill="black" stroke="black" points="159.84,-297.24 149.79,-293.86 155.54,-302.77 159.84,-297.24"/>
</g>
<!-- BB7&#45;&gt;BB8 -->
<g id="edge10" class="edge">
<title>BB7&#45;&gt;BB8</title>
<path fill="none" stroke="black" d="M99.74,-296.85C91.55,-349.87 83.95,-449.44 125.77,-518.77 135.3,-534.55 149.71,-547.43 165.17,-557.7"/>
<polygon fill="black" stroke="black" points="163.51,-560.8 173.84,-563.15 167.24,-554.87 163.51,-560.8"/>
</g>
<!-- BB8&#45;&gt;BB1 -->
<g id="edge11" class="edge">
<title>BB8&#45;&gt;BB1</title>
<path fill="none" stroke="black" d="M241.77,-554.66C241.77,-546.49 241.77,-537.71 241.77,-529.18"/>
<polygon fill="black" stroke="black" points="245.27,-528.96 241.77,-518.96 238.27,-528.96 245.27,-528.96"/>
</g>
<!-- BB9 -->
<g id="node10" class="node">
<title>BB9</title>
<ellipse fill="none" stroke="black" cx="473.77" cy="-481.29" rx="106.55" ry="37.45"/>
<text text-anchor="middle" x="473.77" y="-492.59" font-family="Times New Roman,serif" font-size="14.00">[6a..6b)</text>
<text text-anchor="middle" x="473.77" y="-477.59" font-family="Times New Roman,serif" font-size="14.00">Normalized Count: NaN</text>
<text text-anchor="middle" x="473.77" y="-462.59" font-family="Times New Roman,serif" font-size="14.00">Samples weight: 0.00</text>
</g>
<!-- BB8&#45;&gt;BB9 -->
<g id="edge12" class="edge">
<title>BB8&#45;&gt;BB9</title>
<path fill="none" stroke="black" d="M304.56,-561.76C334.6,-547.65 370.73,-530.68 401.87,-516.06"/>
<polygon fill="black" stroke="black" points="403.38,-519.22 410.94,-511.8 400.4,-512.88 403.38,-519.22"/>
</g>
</g>
</svg>
