<?xml version="1.0" encoding="UTF-8" standalone="no"?>
<!DOCTYPE svg PUBLIC "-//W3C//DTD SVG 1.1//EN"
 "http://www.w3.org/Graphics/SVG/1.1/DTD/svg11.dtd">
<!-- Generated by graphviz version 2.47.0 (20210316.0004)
 -->
<!-- Title: G Pages: 1 -->
<svg width="252pt" height="600pt"
 viewBox="0.00 0.00 251.85 600.18" xmlns="http://www.w3.org/2000/svg" xmlns:xlink="http://www.w3.org/1999/xlink">
<g id="graph0" class="graph" transform="scale(1 1) rotate(0) translate(4 596.18)">
<title>G</title>
<polygon fill="white" stroke="transparent" points="-4,4 -4,-596.18 247.85,-596.18 247.85,4 -4,4"/>
<!-- BB0 -->
<g id="node1" class="node">
<title>BB0</title>
<ellipse fill="none" stroke="black" cx="108.43" cy="-565.31" rx="33.47" ry="26.74"/>
<text text-anchor="middle" x="108.43" y="-569.11" font-family="Times New Roman,serif" font-size="14.00">[0..7)</text>
<text text-anchor="middle" x="108.43" y="-554.11" font-family="Times New Roman,serif" font-size="14.00">0.00</text>
</g>
<!-- BB8 -->
<g id="node9" class="node">
<title>BB8</title>
<ellipse fill="none" stroke="black" cx="108.43" cy="-475.57" rx="41.94" ry="26.74"/>
<text text-anchor="middle" x="108.43" y="-479.37" font-family="Times New Roman,serif" font-size="14.00">[46..4a)</text>
<text text-anchor="middle" x="108.43" y="-464.37" font-family="Times New Roman,serif" font-size="14.00">0.00</text>
</g>
<!-- BB0&#45;&gt;BB8 -->
<g id="edge1" class="edge">
<title>BB0&#45;&gt;BB8</title>
<path fill="none" stroke="black" d="M108.43,-537.99C108.43,-530.02 108.43,-521.13 108.43,-512.64"/>
<polygon fill="black" stroke="black" points="111.93,-512.57 108.43,-502.57 104.93,-512.57 111.93,-512.57"/>
</g>
<!-- BB1 -->
<g id="node2" class="node">
<title>BB1</title>
<ellipse fill="none" stroke="black" cx="108.43" cy="-385.83" rx="32.55" ry="26.74"/>
<text text-anchor="middle" x="108.43" y="-389.63" font-family="Times New Roman,serif" font-size="14.00">[7..e)</text>
<text text-anchor="middle" x="108.43" y="-374.63" font-family="Times New Roman,serif" font-size="14.00">0.00</text>
</g>
<!-- BB6 -->
<g id="node7" class="node">
<title>BB6</title>
<ellipse fill="none" stroke="black" cx="113.43" cy="-296.09" rx="43.27" ry="26.74"/>
<text text-anchor="middle" x="113.43" y="-299.89" font-family="Times New Roman,serif" font-size="14.00">[3d..42)</text>
<text text-anchor="middle" x="113.43" y="-284.89" font-family="Times New Roman,serif" font-size="14.00">0.00</text>
</g>
<!-- BB1&#45;&gt;BB6 -->
<g id="edge2" class="edge">
<title>BB1&#45;&gt;BB6</title>
<path fill="none" stroke="black" d="M109.9,-358.98C110.36,-350.93 110.87,-341.9 111.36,-333.28"/>
<polygon fill="black" stroke="black" points="114.87,-333.24 111.95,-323.06 107.88,-332.84 114.87,-333.24"/>
</g>
<!-- BB2 -->
<g id="node3" class="node">
<title>BB2</title>
<ellipse fill="none" stroke="black" cx="183.43" cy="-206.35" rx="37.45" ry="26.74"/>
<text text-anchor="middle" x="183.43" y="-210.15" font-family="Times New Roman,serif" font-size="14.00">[e..13)</text>
<text text-anchor="middle" x="183.43" y="-195.15" font-family="Times New Roman,serif" font-size="14.00">0.00</text>
</g>
<!-- BB4 -->
<g id="node5" class="node">
<title>BB4</title>
<ellipse fill="none" stroke="black" cx="190.43" cy="-116.61" rx="42.35" ry="26.74"/>
<text text-anchor="middle" x="190.43" y="-120.41" font-family="Times New Roman,serif" font-size="14.00">[32..37)</text>
<text text-anchor="middle" x="190.43" y="-105.41" font-family="Times New Roman,serif" font-size="14.00">0.07</text>
</g>
<!-- BB2&#45;&gt;BB4 -->
<g id="edge3" class="edge">
<title>BB2&#45;&gt;BB4</title>
<path fill="none" stroke="black" d="M185.49,-179.5C186.13,-171.45 186.85,-162.42 187.54,-153.8"/>
<polygon fill="black" stroke="black" points="191.05,-153.83 188.35,-143.58 184.07,-153.27 191.05,-153.83"/>
</g>
<!-- BB3 -->
<g id="node4" class="node">
<title>BB3</title>
<ellipse fill="none" stroke="black" cx="199.43" cy="-26.87" rx="42.35" ry="26.74"/>
<text text-anchor="middle" x="199.43" y="-30.67" font-family="Times New Roman,serif" font-size="14.00">[13..32)</text>
<text text-anchor="middle" x="199.43" y="-15.67" font-family="Times New Roman,serif" font-size="14.00">0.93</text>
</g>
<!-- BB3&#45;&gt;BB4 -->
<g id="edge4" class="edge">
<title>BB3&#45;&gt;BB4</title>
<path fill="none" stroke="black" d="M202.99,-53.8C202.65,-62.07 201.84,-71.36 200.7,-80.18"/>
<polygon fill="black" stroke="black" points="197.21,-79.83 199.22,-90.23 204.14,-80.85 197.21,-79.83"/>
</g>
<!-- BB4&#45;&gt;BB3 -->
<g id="edge5" class="edge">
<title>BB4&#45;&gt;BB3</title>
<path fill="none" stroke="black" d="M186.86,-89.76C187.19,-81.48 188.01,-72.15 189.15,-63.31"/>
<polygon fill="black" stroke="black" points="192.64,-63.64 190.64,-53.23 185.72,-62.62 192.64,-63.64"/>
</g>
<!-- BB5 -->
<g id="node6" class="node">
<title>BB5</title>
<ellipse fill="none" stroke="black" cx="95.43" cy="-26.87" rx="43.27" ry="26.74"/>
<text text-anchor="middle" x="95.43" y="-30.67" font-family="Times New Roman,serif" font-size="14.00">[37..3d)</text>
<text text-anchor="middle" x="95.43" y="-15.67" font-family="Times New Roman,serif" font-size="14.00">0.00</text>
</g>
<!-- BB4&#45;&gt;BB5 -->
<g id="edge6" class="edge">
<title>BB4&#45;&gt;BB5</title>
<path fill="none" stroke="black" d="M166.94,-93.92C154.73,-82.64 139.63,-68.7 126.46,-56.53"/>
<polygon fill="black" stroke="black" points="128.69,-53.83 118.97,-49.61 123.94,-58.97 128.69,-53.83"/>
</g>
<!-- BB5&#45;&gt;BB6 -->
<g id="edge7" class="edge">
<title>BB5&#45;&gt;BB6</title>
<path fill="none" stroke="black" d="M97.19,-54.08C100.42,-102.06 107.29,-204.06 110.98,-258.71"/>
<polygon fill="black" stroke="black" points="107.5,-259.24 111.67,-268.98 114.49,-258.77 107.5,-259.24"/>
</g>
<!-- BB6&#45;&gt;BB2 -->
<g id="edge8" class="edge">
<title>BB6&#45;&gt;BB2</title>
<path fill="none" stroke="black" d="M132.19,-271.58C140.38,-261.3 150.11,-249.11 158.87,-238.13"/>
<polygon fill="black" stroke="black" points="161.84,-240.02 165.34,-230.02 156.37,-235.65 161.84,-240.02"/>
</g>
<!-- BB7 -->
<g id="node8" class="node">
<title>BB7</title>
<ellipse fill="none" stroke="black" cx="42.43" cy="-206.35" rx="42.35" ry="26.74"/>
<text text-anchor="middle" x="42.43" y="-210.15" font-family="Times New Roman,serif" font-size="14.00">[42..46)</text>
<text text-anchor="middle" x="42.43" y="-195.15" font-family="Times New Roman,serif" font-size="14.00">0.00</text>
</g>
<!-- BB6&#45;&gt;BB7 -->
<g id="edge9" class="edge">
<title>BB6&#45;&gt;BB7</title>
<path fill="none" stroke="black" d="M94.4,-271.58C86.22,-261.47 76.53,-249.5 67.76,-238.65"/>
<polygon fill="black" stroke="black" points="70.27,-236.2 61.26,-230.62 64.83,-240.6 70.27,-236.2"/>
</g>
<!-- BB7&#45;&gt;BB8 -->
<g id="edge10" class="edge">
<title>BB7&#45;&gt;BB8</title>
<path fill="none" stroke="black" d="M41.57,-233.23C41.11,-273.09 43.57,-351.31 66.43,-412.7 70.41,-423.41 76.63,-434.08 83.06,-443.45"/>
<polygon fill="black" stroke="black" points="80.3,-445.6 88.98,-451.67 85.98,-441.51 80.3,-445.6"/>
</g>
<!-- BB8&#45;&gt;BB1 -->
<g id="edge11" class="edge">
<title>BB8&#45;&gt;BB1</title>
<path fill="none" stroke="black" d="M108.43,-448.25C108.43,-440.28 108.43,-431.39 108.43,-422.9"/>
<polygon fill="black" stroke="black" points="111.93,-422.83 108.43,-412.83 104.93,-422.83 111.93,-422.83"/>
</g>
<!-- BB9 -->
<g id="node10" class="node">
<title>BB9</title>
<ellipse fill="none" stroke="black" cx="201.43" cy="-385.83" rx="42.35" ry="26.74"/>
<text text-anchor="middle" x="201.43" y="-389.63" font-family="Times New Roman,serif" font-size="14.00">[4a..4b)</text>
<text text-anchor="middle" x="201.43" y="-374.63" font-family="Times New Roman,serif" font-size="14.00">0.00</text>
</g>
<!-- BB8&#45;&gt;BB9 -->
<g id="edge12" class="edge">
<title>BB8&#45;&gt;BB9</title>
<path fill="none" stroke="black" d="M131.42,-452.88C143.38,-441.6 158.15,-427.66 171.04,-415.5"/>
<polygon fill="black" stroke="black" points="173.51,-417.98 178.38,-408.57 168.7,-412.89 173.51,-417.98"/>
</g>
</g>
</svg>
