<?xml version="1.0" encoding="UTF-8" standalone="no"?>
<!DOCTYPE svg PUBLIC "-//W3C//DTD SVG 1.1//EN"
 "http://www.w3.org/Graphics/SVG/1.1/DTD/svg11.dtd">
<!-- Generated by graphviz version 2.47.0 (20210316.0004)
 -->
<!-- Title: G Pages: 1 -->
<svg width="753pt" height="1161pt"
 viewBox="0.00 0.00 753.40 1161.50" xmlns="http://www.w3.org/2000/svg" xmlns:xlink="http://www.w3.org/1999/xlink">
<g id="graph0" class="graph" transform="scale(1 1) rotate(0) translate(4 1157.5)">
<title>G</title>
<polygon fill="white" stroke="transparent" points="-4,4 -4,-1157.5 749.4,-1157.5 749.4,4 -4,4"/>
<!-- BB0 -->
<g id="node1" class="node">
<title>BB0</title>
<ellipse fill="none" stroke="black" cx="519.16" cy="-1105.42" rx="103.48" ry="48.17"/>
<text text-anchor="middle" x="519.16" y="-1124.22" font-family="Times New Roman,serif" font-size="14.00">[0..7)</text>
<text text-anchor="middle" x="519.16" y="-1109.22" font-family="Times New Roman,serif" font-size="14.00">Count: 7</text>
<text text-anchor="middle" x="519.16" y="-1094.22" font-family="Times New Roman,serif" font-size="14.00">Normalized count: 1.00</text>
<text text-anchor="middle" x="519.16" y="-1079.22" font-family="Times New Roman,serif" font-size="14.00">Samples weight: 0.02</text>
</g>
<!-- BB8 -->
<g id="node9" class="node">
<title>BB8</title>
<ellipse fill="none" stroke="black" cx="519.16" cy="-973.25" rx="103.48" ry="48.17"/>
<text text-anchor="middle" x="519.16" y="-992.05" font-family="Times New Roman,serif" font-size="14.00">[76..7a)</text>
<text text-anchor="middle" x="519.16" y="-977.05" font-family="Times New Roman,serif" font-size="14.00">Count: 43</text>
<text text-anchor="middle" x="519.16" y="-962.05" font-family="Times New Roman,serif" font-size="14.00">Normalized count: 6.14</text>
<text text-anchor="middle" x="519.16" y="-947.05" font-family="Times New Roman,serif" font-size="14.00">Samples weight: 0.15</text>
</g>
<!-- BB0&#45;&gt;BB8 -->
<g id="edge1" class="edge">
<title>BB0&#45;&gt;BB8</title>
<path fill="none" stroke="black" d="M519.16,-1057.05C519.16,-1048.79 519.16,-1040.1 519.16,-1031.6"/>
<polygon fill="black" stroke="black" points="522.66,-1031.36 519.16,-1021.36 515.66,-1031.36 522.66,-1031.36"/>
</g>
<!-- BB1 -->
<g id="node2" class="node">
<title>BB1</title>
<ellipse fill="none" stroke="black" cx="489.16" cy="-708.92" rx="108.38" ry="48.17"/>
<text text-anchor="middle" x="489.16" y="-727.72" font-family="Times New Roman,serif" font-size="14.00">[7..14)</text>
<text text-anchor="middle" x="489.16" y="-712.72" font-family="Times New Roman,serif" font-size="14.00">Count: 126</text>
<text text-anchor="middle" x="489.16" y="-697.72" font-family="Times New Roman,serif" font-size="14.00">Normalized count: 18.00</text>
<text text-anchor="middle" x="489.16" y="-682.72" font-family="Times New Roman,serif" font-size="14.00">Samples weight: 0.43</text>
</g>
<!-- BB2 -->
<g id="node3" class="node">
<title>BB2</title>
<ellipse fill="none" stroke="black" cx="489.16" cy="-576.75" rx="103.48" ry="48.17"/>
<text text-anchor="middle" x="489.16" y="-595.55" font-family="Times New Roman,serif" font-size="14.00">[14..1c)</text>
<text text-anchor="middle" x="489.16" y="-580.55" font-family="Times New Roman,serif" font-size="14.00">Count: 13</text>
<text text-anchor="middle" x="489.16" y="-565.55" font-family="Times New Roman,serif" font-size="14.00">Normalized count: 1.86</text>
<text text-anchor="middle" x="489.16" y="-550.55" font-family="Times New Roman,serif" font-size="14.00">Samples weight: 0.04</text>
</g>
<!-- BB1&#45;&gt;BB2 -->
<g id="edge3" class="edge">
<title>BB1&#45;&gt;BB2</title>
<path fill="none" stroke="black" d="M489.16,-660.55C489.16,-652.29 489.16,-643.6 489.16,-635.1"/>
<polygon fill="black" stroke="black" points="492.66,-634.86 489.16,-624.86 485.66,-634.86 492.66,-634.86"/>
</g>
<!-- BB1&#45;&gt;BB8 -->
<g id="edge2" class="edge">
<title>BB1&#45;&gt;BB8</title>
<path fill="none" stroke="black" d="M505.64,-756.86C509.08,-768.53 512.24,-781.1 514.16,-793 520.69,-833.42 521.83,-879.62 521.39,-914.99"/>
<polygon fill="black" stroke="black" points="517.89,-915.07 521.22,-925.13 524.89,-915.19 517.89,-915.07"/>
</g>
<!-- BB3 -->
<g id="node4" class="node">
<title>BB3</title>
<ellipse fill="none" stroke="black" cx="487.16" cy="-444.58" rx="103.48" ry="48.17"/>
<text text-anchor="middle" x="487.16" y="-463.38" font-family="Times New Roman,serif" font-size="14.00">[1c..2a)</text>
<text text-anchor="middle" x="487.16" y="-448.38" font-family="Times New Roman,serif" font-size="14.00">Count: 17</text>
<text text-anchor="middle" x="487.16" y="-433.38" font-family="Times New Roman,serif" font-size="14.00">Normalized count: 2.43</text>
<text text-anchor="middle" x="487.16" y="-418.38" font-family="Times New Roman,serif" font-size="14.00">Samples weight: 0.06</text>
</g>
<!-- BB2&#45;&gt;BB3 -->
<g id="edge5" class="edge">
<title>BB2&#45;&gt;BB3</title>
<path fill="none" stroke="black" d="M488.43,-528.39C488.3,-520.12 488.17,-511.44 488.04,-502.93"/>
<polygon fill="black" stroke="black" points="491.54,-502.64 487.88,-492.69 484.54,-502.74 491.54,-502.64"/>
</g>
<!-- BB2&#45;&gt;BB8 -->
<g id="edge4" class="edge">
<title>BB2&#45;&gt;BB8</title>
<path fill="none" stroke="black" d="M559.66,-611.91C578.16,-624.55 595.81,-640.8 606.16,-660.83 649.82,-745.39 597.5,-854.52 557.18,-918.6"/>
<polygon fill="black" stroke="black" points="554.03,-917.03 551.58,-927.34 559.92,-920.8 554.03,-917.03"/>
</g>
<!-- BB4 -->
<g id="node5" class="node">
<title>BB4</title>
<ellipse fill="none" stroke="black" cx="487.16" cy="-312.42" rx="103.48" ry="48.17"/>
<text text-anchor="middle" x="487.16" y="-331.22" font-family="Times New Roman,serif" font-size="14.00">[2a..4c)</text>
<text text-anchor="middle" x="487.16" y="-316.22" font-family="Times New Roman,serif" font-size="14.00">Count: 39</text>
<text text-anchor="middle" x="487.16" y="-301.22" font-family="Times New Roman,serif" font-size="14.00">Normalized count: 5.57</text>
<text text-anchor="middle" x="487.16" y="-286.22" font-family="Times New Roman,serif" font-size="14.00">Samples weight: 0.13</text>
</g>
<!-- BB3&#45;&gt;BB4 -->
<g id="edge7" class="edge">
<title>BB3&#45;&gt;BB4</title>
<path fill="none" stroke="black" d="M487.16,-396.22C487.16,-387.95 487.16,-379.27 487.16,-370.77"/>
<polygon fill="black" stroke="black" points="490.66,-370.52 487.16,-360.52 483.66,-370.52 490.66,-370.52"/>
</g>
<!-- BB3&#45;&gt;BB8 -->
<g id="edge6" class="edge">
<title>BB3&#45;&gt;BB8</title>
<path fill="none" stroke="black" d="M409.56,-476.44C245.86,-545.82 -108.5,-721.23 33.16,-889.17 79.88,-944.55 277.34,-963.02 405.74,-969.17"/>
<polygon fill="black" stroke="black" points="405.87,-972.68 416.02,-969.65 406.19,-965.69 405.87,-972.68"/>
</g>
<!-- BB5 -->
<g id="node6" class="node">
<title>BB5</title>
<ellipse fill="none" stroke="black" cx="577.16" cy="-180.25" rx="103.48" ry="48.17"/>
<text text-anchor="middle" x="577.16" y="-199.05" font-family="Times New Roman,serif" font-size="14.00">[4c..5b)</text>
<text text-anchor="middle" x="577.16" y="-184.05" font-family="Times New Roman,serif" font-size="14.00">Count: 6</text>
<text text-anchor="middle" x="577.16" y="-169.05" font-family="Times New Roman,serif" font-size="14.00">Normalized count: 0.86</text>
<text text-anchor="middle" x="577.16" y="-154.05" font-family="Times New Roman,serif" font-size="14.00">Samples weight: 0.02</text>
</g>
<!-- BB4&#45;&gt;BB5 -->
<g id="edge9" class="edge">
<title>BB4&#45;&gt;BB5</title>
<path fill="none" stroke="black" d="M518.38,-266.26C525.43,-256.06 532.98,-245.14 540.24,-234.64"/>
<polygon fill="black" stroke="black" points="543.18,-236.55 545.99,-226.33 537.42,-232.57 543.18,-236.55"/>
</g>
<!-- BB7 -->
<g id="node8" class="node">
<title>BB7</title>
<ellipse fill="none" stroke="black" cx="353.16" cy="-180.25" rx="103.48" ry="48.17"/>
<text text-anchor="middle" x="353.16" y="-199.05" font-family="Times New Roman,serif" font-size="14.00">[73..76)</text>
<text text-anchor="middle" x="353.16" y="-184.05" font-family="Times New Roman,serif" font-size="14.00">Count: 0</text>
<text text-anchor="middle" x="353.16" y="-169.05" font-family="Times New Roman,serif" font-size="14.00">Normalized count: 0.00</text>
<text text-anchor="middle" x="353.16" y="-154.05" font-family="Times New Roman,serif" font-size="14.00">Samples weight: 0.00</text>
</g>
<!-- BB4&#45;&gt;BB7 -->
<g id="edge8" class="edge">
<title>BB4&#45;&gt;BB7</title>
<path fill="none" stroke="black" d="M443.28,-268.79C430.9,-256.77 417.33,-243.58 404.55,-231.17"/>
<polygon fill="black" stroke="black" points="406.75,-228.42 397.13,-223.97 401.87,-233.45 406.75,-228.42"/>
</g>
<!-- BB6 -->
<g id="node7" class="node">
<title>BB6</title>
<ellipse fill="none" stroke="black" cx="642.16" cy="-48.08" rx="103.48" ry="48.17"/>
<text text-anchor="middle" x="642.16" y="-66.88" font-family="Times New Roman,serif" font-size="14.00">[5b..73)</text>
<text text-anchor="middle" x="642.16" y="-51.88" font-family="Times New Roman,serif" font-size="14.00">Count: 19</text>
<text text-anchor="middle" x="642.16" y="-36.88" font-family="Times New Roman,serif" font-size="14.00">Normalized count: 2.71</text>
<text text-anchor="middle" x="642.16" y="-21.88" font-family="Times New Roman,serif" font-size="14.00">Samples weight: 0.07</text>
</g>
<!-- BB5&#45;&gt;BB6 -->
<g id="edge11" class="edge">
<title>BB5&#45;&gt;BB6</title>
<path fill="none" stroke="black" d="M600.08,-133.36C604.78,-123.93 609.79,-113.91 614.64,-104.19"/>
<polygon fill="black" stroke="black" points="617.89,-105.51 619.23,-95 611.63,-102.38 617.89,-105.51"/>
</g>
<!-- BB5&#45;&gt;BB8 -->
<g id="edge10" class="edge">
<title>BB5&#45;&gt;BB8</title>
<path fill="none" stroke="black" d="M602.03,-227.15C627.43,-278.38 663.16,-364.5 663.16,-443.58 663.16,-709.92 663.16,-709.92 663.16,-709.92 663.16,-793.25 652.33,-818.51 608.16,-889.17 600.16,-901.96 589.71,-914.07 578.79,-924.9"/>
<polygon fill="black" stroke="black" points="576.36,-922.37 571.56,-931.82 581.2,-927.43 576.36,-922.37"/>
</g>
<!-- BB6&#45;&gt;BB8 -->
<g id="edge12" class="edge">
<title>BB6&#45;&gt;BB8</title>
<path fill="none" stroke="black" d="M672.03,-94.12C678.7,-106.05 685.01,-119.23 689.16,-132.17 713.61,-208.46 708.16,-231.3 708.16,-311.42 708.16,-709.92 708.16,-709.92 708.16,-709.92 708.16,-794.36 697.13,-822.61 645.16,-889.17 632.2,-905.76 614.97,-920.12 597.41,-932.02"/>
<polygon fill="black" stroke="black" points="595.24,-929.26 588.79,-937.66 599.07,-935.12 595.24,-929.26"/>
</g>
<!-- BB7&#45;&gt;BB8 -->
<g id="edge13" class="edge">
<title>BB7&#45;&gt;BB8</title>
<path fill="none" stroke="black" d="M353.16,-228.64C353.16,-281.18 353.16,-368.44 353.16,-443.58 353.16,-577.75 353.16,-577.75 353.16,-577.75 353.16,-657.86 321.87,-694.64 372.16,-757 404.19,-796.71 447.12,-754.99 481.16,-793 497.09,-810.79 507.41,-869.37 513.21,-914.78"/>
<polygon fill="black" stroke="black" points="509.75,-915.33 514.45,-924.83 516.7,-914.47 509.75,-915.33"/>
</g>
<!-- BB9 -->
<g id="node10" class="node">
<title>BB9</title>
<ellipse fill="none" stroke="black" cx="145.16" cy="-841.08" rx="103.48" ry="48.17"/>
<text text-anchor="middle" x="145.16" y="-859.88" font-family="Times New Roman,serif" font-size="14.00">[7a..7e)</text>
<text text-anchor="middle" x="145.16" y="-844.88" font-family="Times New Roman,serif" font-size="14.00">Count: 19</text>
<text text-anchor="middle" x="145.16" y="-829.88" font-family="Times New Roman,serif" font-size="14.00">Normalized count: 2.71</text>
<text text-anchor="middle" x="145.16" y="-814.88" font-family="Times New Roman,serif" font-size="14.00">Samples weight: 0.07</text>
</g>
<!-- BB8&#45;&gt;BB9 -->
<g id="edge15" class="edge">
<title>BB8&#45;&gt;BB9</title>
<path fill="none" stroke="black" d="M432.65,-946.98C381.26,-931.43 315.04,-910.46 257.16,-889.17 248.03,-885.81 238.55,-882.13 229.15,-878.36"/>
<polygon fill="black" stroke="black" points="230.37,-875.08 219.79,-874.56 227.74,-881.56 230.37,-875.08"/>
</g>
<!-- BB10 -->
<g id="node11" class="node">
<title>BB10</title>
<ellipse fill="none" stroke="black" cx="369.16" cy="-841.08" rx="103.48" ry="48.17"/>
<text text-anchor="middle" x="369.16" y="-859.88" font-family="Times New Roman,serif" font-size="14.00">[7e..7f)</text>
<text text-anchor="middle" x="369.16" y="-844.88" font-family="Times New Roman,serif" font-size="14.00">Count: 1</text>
<text text-anchor="middle" x="369.16" y="-829.88" font-family="Times New Roman,serif" font-size="14.00">Normalized count: 0.14</text>
<text text-anchor="middle" x="369.16" y="-814.88" font-family="Times New Roman,serif" font-size="14.00">Samples weight: 0.00</text>
</g>
<!-- BB8&#45;&gt;BB10 -->
<g id="edge14" class="edge">
<title>BB8&#45;&gt;BB10</title>
<path fill="none" stroke="black" d="M470.87,-930.35C456.21,-917.63 439.99,-903.55 424.88,-890.44"/>
<polygon fill="black" stroke="black" points="426.94,-887.59 417.1,-883.68 422.36,-892.88 426.94,-887.59"/>
</g>
<!-- BB9&#45;&gt;BB1 -->
<g id="edge16" class="edge">
<title>BB9&#45;&gt;BB1</title>
<path fill="none" stroke="black" d="M220.24,-807.86C232.53,-802.78 245.17,-797.66 257.16,-793 302.2,-775.48 352.66,-757.25 394.99,-742.34"/>
<polygon fill="black" stroke="black" points="396.17,-745.63 404.45,-739.02 393.85,-739.03 396.17,-745.63"/>
</g>
<!-- BB9&#45;&gt;BB10 -->
<g id="edge17" class="edge">
<title>BB9&#45;&gt;BB10</title>
<path fill="none" stroke="black" d="M248.41,-841.08C250.86,-841.08 253.32,-841.08 255.77,-841.08"/>
<polygon fill="black" stroke="black" points="255.86,-844.58 265.86,-841.08 255.86,-837.58 255.86,-844.58"/>
</g>
</g>
</svg>
