<?xml version="1.0" encoding="UTF-8" standalone="no"?>
<!DOCTYPE svg PUBLIC "-//W3C//DTD SVG 1.1//EN"
 "http://www.w3.org/Graphics/SVG/1.1/DTD/svg11.dtd">
<!-- Generated by graphviz version 2.47.0 (20210316.0004)
 -->
<!-- Title: G Pages: 1 -->
<svg width="639pt" height="638pt"
 viewBox="0.00 0.00 638.67 637.72" xmlns="http://www.w3.org/2000/svg" xmlns:xlink="http://www.w3.org/1999/xlink">
<g id="graph0" class="graph" transform="scale(1 1) rotate(0) translate(4 633.72)">
<title>G</title>
<polygon fill="white" stroke="transparent" points="-4,4 -4,-633.72 634.67,-633.72 634.67,4 -4,4"/>
<!-- BB0 -->
<g id="node1" class="node">
<title>BB0</title>
<ellipse fill="none" stroke="black" cx="219.36" cy="-592.24" rx="105.22" ry="37.45"/>
<text text-anchor="middle" x="219.36" y="-603.54" font-family="Times New Roman,serif" font-size="14.00">[0..1f)</text>
<text text-anchor="middle" x="219.36" y="-588.54" font-family="Times New Roman,serif" font-size="14.00">Normalized Count: 1.00</text>
<text text-anchor="middle" x="219.36" y="-573.54" font-family="Times New Roman,serif" font-size="14.00">Samples weight: 0.01</text>
</g>
<!-- BB1 -->
<g id="node2" class="node">
<title>BB1</title>
<ellipse fill="none" stroke="black" cx="105.36" cy="-481.29" rx="105.22" ry="37.45"/>
<text text-anchor="middle" x="105.36" y="-492.59" font-family="Times New Roman,serif" font-size="14.00">[1f..23)</text>
<text text-anchor="middle" x="105.36" y="-477.59" font-family="Times New Roman,serif" font-size="14.00">Normalized Count: 0.08</text>
<text text-anchor="middle" x="105.36" y="-462.59" font-family="Times New Roman,serif" font-size="14.00">Samples weight: 0.00</text>
</g>
<!-- BB0&#45;&gt;BB1 -->
<g id="edge2" class="edge">
<title>BB0&#45;&gt;BB1</title>
<path fill="none" stroke="black" d="M183.29,-556.77C172.27,-546.23 160.03,-534.54 148.58,-523.6"/>
<polygon fill="black" stroke="black" points="150.84,-520.92 141.19,-516.54 146.01,-525.98 150.84,-520.92"/>
</g>
<!-- BB2 -->
<g id="node3" class="node">
<title>BB2</title>
<ellipse fill="none" stroke="black" cx="334.36" cy="-481.29" rx="105.22" ry="37.45"/>
<text text-anchor="middle" x="334.36" y="-492.59" font-family="Times New Roman,serif" font-size="14.00">[23..2e)</text>
<text text-anchor="middle" x="334.36" y="-477.59" font-family="Times New Roman,serif" font-size="14.00">Normalized Count: 0.92</text>
<text text-anchor="middle" x="334.36" y="-462.59" font-family="Times New Roman,serif" font-size="14.00">Samples weight: 0.01</text>
</g>
<!-- BB0&#45;&gt;BB2 -->
<g id="edge1" class="edge">
<title>BB0&#45;&gt;BB2</title>
<path fill="none" stroke="black" d="M255.75,-556.77C266.87,-546.23 279.21,-534.54 290.76,-523.6"/>
<polygon fill="black" stroke="black" points="293.36,-525.96 298.21,-516.54 288.54,-520.88 293.36,-525.96"/>
</g>
<!-- BB3 -->
<g id="node4" class="node">
<title>BB3</title>
<ellipse fill="none" stroke="black" cx="334.36" cy="-370.34" rx="110.12" ry="37.45"/>
<text text-anchor="middle" x="334.36" y="-381.64" font-family="Times New Roman,serif" font-size="14.00">[2e..3f)</text>
<text text-anchor="middle" x="334.36" y="-366.64" font-family="Times New Roman,serif" font-size="14.00">Normalized Count: 17.84</text>
<text text-anchor="middle" x="334.36" y="-351.64" font-family="Times New Roman,serif" font-size="14.00">Samples weight: 0.25</text>
</g>
<!-- BB2&#45;&gt;BB3 -->
<g id="edge3" class="edge">
<title>BB2&#45;&gt;BB3</title>
<path fill="none" stroke="black" d="M334.36,-443.71C334.36,-435.53 334.36,-426.75 334.36,-418.23"/>
<polygon fill="black" stroke="black" points="337.86,-418.01 334.36,-408.01 330.86,-418.01 337.86,-418.01"/>
</g>
<!-- BB4 -->
<g id="node5" class="node">
<title>BB4</title>
<ellipse fill="none" stroke="black" cx="451.36" cy="-259.38" rx="110.12" ry="37.45"/>
<text text-anchor="middle" x="451.36" y="-270.68" font-family="Times New Roman,serif" font-size="14.00">[3f..55)</text>
<text text-anchor="middle" x="451.36" y="-255.68" font-family="Times New Roman,serif" font-size="14.00">Normalized Count: 17.00</text>
<text text-anchor="middle" x="451.36" y="-240.68" font-family="Times New Roman,serif" font-size="14.00">Samples weight: 0.24</text>
</g>
<!-- BB3&#45;&gt;BB4 -->
<g id="edge5" class="edge">
<title>BB3&#45;&gt;BB4</title>
<path fill="none" stroke="black" d="M371.38,-334.86C382.58,-324.43 395.01,-312.86 406.66,-302.01"/>
<polygon fill="black" stroke="black" points="409.25,-304.38 414.18,-295.01 404.48,-299.26 409.25,-304.38"/>
</g>
<!-- BB9 -->
<g id="node10" class="node">
<title>BB9</title>
<ellipse fill="none" stroke="black" cx="217.36" cy="-259.38" rx="105.22" ry="37.45"/>
<text text-anchor="middle" x="217.36" y="-270.68" font-family="Times New Roman,serif" font-size="14.00">[79..7a)</text>
<text text-anchor="middle" x="217.36" y="-255.68" font-family="Times New Roman,serif" font-size="14.00">Normalized Count: 0.92</text>
<text text-anchor="middle" x="217.36" y="-240.68" font-family="Times New Roman,serif" font-size="14.00">Samples weight: 0.01</text>
</g>
<!-- BB3&#45;&gt;BB9 -->
<g id="edge4" class="edge">
<title>BB3&#45;&gt;BB9</title>
<path fill="none" stroke="black" d="M297.34,-334.86C286.03,-324.33 273.47,-312.63 261.72,-301.69"/>
<polygon fill="black" stroke="black" points="263.84,-298.89 254.14,-294.63 259.07,-304.01 263.84,-298.89"/>
</g>
<!-- BB5 -->
<g id="node6" class="node">
<title>BB5</title>
<ellipse fill="none" stroke="black" cx="451.36" cy="-148.43" rx="110.12" ry="37.45"/>
<text text-anchor="middle" x="451.36" y="-159.73" font-family="Times New Roman,serif" font-size="14.00">[55..6a)</text>
<text text-anchor="middle" x="451.36" y="-144.73" font-family="Times New Roman,serif" font-size="14.00">Normalized Count: 16.92</text>
<text text-anchor="middle" x="451.36" y="-129.73" font-family="Times New Roman,serif" font-size="14.00">Samples weight: 0.24</text>
</g>
<!-- BB4&#45;&gt;BB5 -->
<g id="edge7" class="edge">
<title>BB4&#45;&gt;BB5</title>
<path fill="none" stroke="black" d="M451.36,-221.8C451.36,-213.63 451.36,-204.85 451.36,-196.32"/>
<polygon fill="black" stroke="black" points="454.86,-196.1 451.36,-186.1 447.86,-196.1 454.86,-196.1"/>
</g>
<!-- BB8 -->
<g id="node9" class="node">
<title>BB8</title>
<ellipse fill="none" stroke="black" cx="217.36" cy="-148.43" rx="105.22" ry="37.45"/>
<text text-anchor="middle" x="217.36" y="-159.73" font-family="Times New Roman,serif" font-size="14.00">[76..79)</text>
<text text-anchor="middle" x="217.36" y="-144.73" font-family="Times New Roman,serif" font-size="14.00">Normalized Count: 0.08</text>
<text text-anchor="middle" x="217.36" y="-129.73" font-family="Times New Roman,serif" font-size="14.00">Samples weight: 0.00</text>
</g>
<!-- BB4&#45;&gt;BB8 -->
<g id="edge6" class="edge">
<title>BB4&#45;&gt;BB8</title>
<path fill="none" stroke="black" d="M387.73,-228.76C357.3,-214.59 320.75,-197.57 289.32,-182.93"/>
<polygon fill="black" stroke="black" points="290.71,-179.72 280.17,-178.67 287.76,-186.07 290.71,-179.72"/>
</g>
<!-- BB6 -->
<g id="node7" class="node">
<title>BB6</title>
<ellipse fill="none" stroke="black" cx="220.36" cy="-37.48" rx="105.22" ry="37.45"/>
<text text-anchor="middle" x="220.36" y="-48.78" font-family="Times New Roman,serif" font-size="14.00">[6a..71)</text>
<text text-anchor="middle" x="220.36" y="-33.78" font-family="Times New Roman,serif" font-size="14.00">Normalized Count: 1.84</text>
<text text-anchor="middle" x="220.36" y="-18.78" font-family="Times New Roman,serif" font-size="14.00">Samples weight: 0.03</text>
</g>
<!-- BB5&#45;&gt;BB6 -->
<g id="edge9" class="edge">
<title>BB5&#45;&gt;BB6</title>
<path fill="none" stroke="black" d="M388.24,-117.66C358.46,-103.61 322.78,-86.79 291.99,-72.26"/>
<polygon fill="black" stroke="black" points="293.14,-68.94 282.6,-67.84 290.16,-75.27 293.14,-68.94"/>
</g>
<!-- BB7 -->
<g id="node8" class="node">
<title>BB7</title>
<ellipse fill="none" stroke="black" cx="520.36" cy="-37.48" rx="110.12" ry="37.45"/>
<text text-anchor="middle" x="520.36" y="-48.78" font-family="Times New Roman,serif" font-size="14.00">[71..76)</text>
<text text-anchor="middle" x="520.36" y="-33.78" font-family="Times New Roman,serif" font-size="14.00">Normalized Count: 15.08</text>
<text text-anchor="middle" x="520.36" y="-18.78" font-family="Times New Roman,serif" font-size="14.00">Samples weight: 0.21</text>
</g>
<!-- BB5&#45;&gt;BB7 -->
<g id="edge8" class="edge">
<title>BB5&#45;&gt;BB7</title>
<path fill="none" stroke="black" d="M474.14,-111.45C479.91,-102.34 486.18,-92.45 492.18,-82.97"/>
<polygon fill="black" stroke="black" points="495.2,-84.74 497.6,-74.42 489.29,-80.99 495.2,-84.74"/>
</g>
<!-- BB6&#45;&gt;BB3 -->
<g id="edge10" class="edge">
<title>BB6&#45;&gt;BB3</title>
<path fill="none" stroke="black" d="M151,-65.95C132.17,-76.99 114.05,-91.75 103.36,-110.95 63.16,-183.14 54.45,-230.26 103.36,-296.86 129.67,-332.69 173.67,-351.29 216.25,-360.77"/>
<polygon fill="black" stroke="black" points="215.66,-364.22 226.16,-362.83 217.08,-357.37 215.66,-364.22"/>
</g>
<!-- BB7&#45;&gt;BB3 -->
<g id="edge11" class="edge">
<title>BB7&#45;&gt;BB3</title>
<path fill="none" stroke="black" d="M551,-73.81C558.87,-84.96 566.27,-97.82 570.36,-110.95 594.93,-189.84 619.46,-230.41 570.36,-296.86 554.08,-318.89 495.22,-336.99 440.36,-349.59"/>
<polygon fill="black" stroke="black" points="439.52,-346.19 430.53,-351.8 441.05,-353.02 439.52,-346.19"/>
</g>
<!-- BB8&#45;&gt;BB9 -->
<g id="edge12" class="edge">
<title>BB8&#45;&gt;BB9</title>
<path fill="none" stroke="black" d="M217.36,-186.1C217.36,-194.28 217.36,-203.06 217.36,-211.59"/>
<polygon fill="black" stroke="black" points="213.86,-211.8 217.36,-221.8 220.86,-211.8 213.86,-211.8"/>
</g>
</g>
</svg>
