<?xml version="1.0" encoding="UTF-8" standalone="no"?>
<!DOCTYPE svg PUBLIC "-//W3C//DTD SVG 1.1//EN"
 "http://www.w3.org/Graphics/SVG/1.1/DTD/svg11.dtd">
<!-- Generated by graphviz version 2.47.0 (20210316.0004)
 -->
<!-- Title: G Pages: 1 -->
<svg width="656pt" height="765pt"
 viewBox="0.00 0.00 656.50 765.00" xmlns="http://www.w3.org/2000/svg" xmlns:xlink="http://www.w3.org/1999/xlink">
<g id="graph0" class="graph" transform="scale(1 1) rotate(0) translate(4 761)">
<title>G</title>
<polygon fill="white" stroke="transparent" points="-4,4 -4,-761 652.5,-761 652.5,4 -4,4"/>
<!-- BB0 -->
<g id="node1" class="node">
<title>BB0</title>
<ellipse fill="none" stroke="black" cx="307.84" cy="-708.92" rx="104.8" ry="48.17"/>
<text text-anchor="middle" x="307.84" y="-727.72" font-family="Times New Roman,serif" font-size="14.00">[0..a)</text>
<text text-anchor="middle" x="307.84" y="-712.72" font-family="Times New Roman,serif" font-size="14.00">Count: 0</text>
<text text-anchor="middle" x="307.84" y="-697.72" font-family="Times New Roman,serif" font-size="14.00">Normalized count: NaN</text>
<text text-anchor="middle" x="307.84" y="-682.72" font-family="Times New Roman,serif" font-size="14.00">Samples weight: 0.00</text>
</g>
<!-- BB7 -->
<g id="node8" class="node">
<title>BB7</title>
<ellipse fill="none" stroke="black" cx="307.84" cy="-576.75" rx="113.69" ry="48.17"/>
<text text-anchor="middle" x="307.84" y="-595.55" font-family="Times New Roman,serif" font-size="14.00">[34..38)</text>
<text text-anchor="middle" x="307.84" y="-580.55" font-family="Times New Roman,serif" font-size="14.00">Count: 49</text>
<text text-anchor="middle" x="307.84" y="-565.55" font-family="Times New Roman,serif" font-size="14.00">Normalized count: Infinity</text>
<text text-anchor="middle" x="307.84" y="-550.55" font-family="Times New Roman,serif" font-size="14.00">Samples weight: 0.00</text>
</g>
<!-- BB0&#45;&gt;BB7 -->
<g id="edge1" class="edge">
<title>BB0&#45;&gt;BB7</title>
<path fill="none" stroke="black" d="M307.84,-660.55C307.84,-652.29 307.84,-643.6 307.84,-635.1"/>
<polygon fill="black" stroke="black" points="311.34,-634.86 307.84,-624.86 304.34,-634.86 311.34,-634.86"/>
</g>
<!-- BB1 -->
<g id="node2" class="node">
<title>BB1</title>
<ellipse fill="none" stroke="black" cx="307.84" cy="-444.58" rx="113.69" ry="48.17"/>
<text text-anchor="middle" x="307.84" y="-463.38" font-family="Times New Roman,serif" font-size="14.00">[a..e)</text>
<text text-anchor="middle" x="307.84" y="-448.38" font-family="Times New Roman,serif" font-size="14.00">Count: 53</text>
<text text-anchor="middle" x="307.84" y="-433.38" font-family="Times New Roman,serif" font-size="14.00">Normalized count: Infinity</text>
<text text-anchor="middle" x="307.84" y="-418.38" font-family="Times New Roman,serif" font-size="14.00">Samples weight: 0.00</text>
</g>
<!-- BB5 -->
<g id="node6" class="node">
<title>BB5</title>
<ellipse fill="none" stroke="black" cx="333.84" cy="-312.42" rx="113.69" ry="48.17"/>
<text text-anchor="middle" x="333.84" y="-331.22" font-family="Times New Roman,serif" font-size="14.00">[28..30)</text>
<text text-anchor="middle" x="333.84" y="-316.22" font-family="Times New Roman,serif" font-size="14.00">Count: 140062</text>
<text text-anchor="middle" x="333.84" y="-301.22" font-family="Times New Roman,serif" font-size="14.00">Normalized count: Infinity</text>
<text text-anchor="middle" x="333.84" y="-286.22" font-family="Times New Roman,serif" font-size="14.00">Samples weight: 0.28</text>
</g>
<!-- BB1&#45;&gt;BB5 -->
<g id="edge2" class="edge">
<title>BB1&#45;&gt;BB5</title>
<path fill="none" stroke="black" d="M317.23,-396.59C318.94,-388.02 320.75,-378.99 322.51,-370.17"/>
<polygon fill="black" stroke="black" points="325.94,-370.83 324.47,-360.34 319.08,-369.46 325.94,-370.83"/>
</g>
<!-- BB2 -->
<g id="node3" class="node">
<title>BB2</title>
<ellipse fill="none" stroke="black" cx="359.84" cy="-180.25" rx="113.69" ry="48.17"/>
<text text-anchor="middle" x="359.84" y="-199.05" font-family="Times New Roman,serif" font-size="14.00">[e..16)</text>
<text text-anchor="middle" x="359.84" y="-184.05" font-family="Times New Roman,serif" font-size="14.00">Count: 138010</text>
<text text-anchor="middle" x="359.84" y="-169.05" font-family="Times New Roman,serif" font-size="14.00">Normalized count: Infinity</text>
<text text-anchor="middle" x="359.84" y="-154.05" font-family="Times New Roman,serif" font-size="14.00">Samples weight: 0.27</text>
</g>
<!-- BB3 -->
<g id="node4" class="node">
<title>BB3</title>
<ellipse fill="none" stroke="black" cx="255.84" cy="-48.08" rx="113.69" ry="48.17"/>
<text text-anchor="middle" x="255.84" y="-66.88" font-family="Times New Roman,serif" font-size="14.00">[16..24)</text>
<text text-anchor="middle" x="255.84" y="-51.88" font-family="Times New Roman,serif" font-size="14.00">Count: 85038</text>
<text text-anchor="middle" x="255.84" y="-36.88" font-family="Times New Roman,serif" font-size="14.00">Normalized count: Infinity</text>
<text text-anchor="middle" x="255.84" y="-21.88" font-family="Times New Roman,serif" font-size="14.00">Samples weight: 0.17</text>
</g>
<!-- BB2&#45;&gt;BB3 -->
<g id="edge4" class="edge">
<title>BB2&#45;&gt;BB3</title>
<path fill="none" stroke="black" d="M324.05,-134.45C315.72,-124.02 306.77,-112.82 298.18,-102.07"/>
<polygon fill="black" stroke="black" points="300.68,-99.59 291.7,-93.96 295.21,-103.96 300.68,-99.59"/>
</g>
<!-- BB4 -->
<g id="node5" class="node">
<title>BB4</title>
<ellipse fill="none" stroke="black" cx="501.84" cy="-48.08" rx="113.69" ry="48.17"/>
<text text-anchor="middle" x="501.84" y="-66.88" font-family="Times New Roman,serif" font-size="14.00">[24..28)</text>
<text text-anchor="middle" x="501.84" y="-51.88" font-family="Times New Roman,serif" font-size="14.00">Count: 140004</text>
<text text-anchor="middle" x="501.84" y="-36.88" font-family="Times New Roman,serif" font-size="14.00">Normalized count: Infinity</text>
<text text-anchor="middle" x="501.84" y="-21.88" font-family="Times New Roman,serif" font-size="14.00">Samples weight: 0.28</text>
</g>
<!-- BB2&#45;&gt;BB4 -->
<g id="edge3" class="edge">
<title>BB2&#45;&gt;BB4</title>
<path fill="none" stroke="black" d="M406.73,-136.27C419.82,-124.27 434.15,-111.14 447.62,-98.79"/>
<polygon fill="black" stroke="black" points="450,-101.36 455,-92.02 445.27,-96.2 450,-101.36"/>
</g>
<!-- BB3&#45;&gt;BB4 -->
<g id="edge5" class="edge">
<title>BB3&#45;&gt;BB4</title>
<path fill="none" stroke="black" d="M369.72,-48.08C372.35,-48.08 374.98,-48.08 377.62,-48.08"/>
<polygon fill="black" stroke="black" points="377.78,-51.58 387.78,-48.08 377.78,-44.58 377.78,-51.58"/>
</g>
<!-- BB4&#45;&gt;BB5 -->
<g id="edge6" class="edge">
<title>BB4&#45;&gt;BB5</title>
<path fill="none" stroke="black" d="M508.13,-96.46C510.77,-135.09 508.55,-189.43 482.84,-228.33 469.63,-248.33 449.88,-263.99 429.04,-276.06"/>
<polygon fill="black" stroke="black" points="427.13,-273.11 420.06,-281.01 430.51,-279.24 427.13,-273.11"/>
</g>
<!-- BB5&#45;&gt;BB2 -->
<g id="edge7" class="edge">
<title>BB5&#45;&gt;BB2</title>
<path fill="none" stroke="black" d="M343.23,-264.42C344.94,-255.85 346.75,-246.83 348.51,-238.01"/>
<polygon fill="black" stroke="black" points="351.94,-238.67 350.47,-228.17 345.08,-237.29 351.94,-238.67"/>
</g>
<!-- BB6 -->
<g id="node7" class="node">
<title>BB6</title>
<ellipse fill="none" stroke="black" cx="113.84" cy="-180.25" rx="113.69" ry="48.17"/>
<text text-anchor="middle" x="113.84" y="-199.05" font-family="Times New Roman,serif" font-size="14.00">[30..34)</text>
<text text-anchor="middle" x="113.84" y="-184.05" font-family="Times New Roman,serif" font-size="14.00">Count: 49</text>
<text text-anchor="middle" x="113.84" y="-169.05" font-family="Times New Roman,serif" font-size="14.00">Normalized count: Infinity</text>
<text text-anchor="middle" x="113.84" y="-154.05" font-family="Times New Roman,serif" font-size="14.00">Samples weight: 0.00</text>
</g>
<!-- BB5&#45;&gt;BB6 -->
<g id="edge8" class="edge">
<title>BB5&#45;&gt;BB6</title>
<path fill="none" stroke="black" d="M268.73,-272.89C243.34,-257.87 214.11,-240.57 187.92,-225.08"/>
<polygon fill="black" stroke="black" points="189.56,-221.98 179.17,-219.9 186,-228.01 189.56,-221.98"/>
</g>
<!-- BB6&#45;&gt;BB7 -->
<g id="edge9" class="edge">
<title>BB6&#45;&gt;BB7</title>
<path fill="none" stroke="black" d="M114.1,-228.5C116.64,-293.48 129.31,-411.57 184.84,-492.67 195.75,-508.6 210.82,-522.32 226.67,-533.77"/>
<polygon fill="black" stroke="black" points="224.79,-536.73 235.01,-539.54 228.78,-530.97 224.79,-536.73"/>
</g>
<!-- BB7&#45;&gt;BB1 -->
<g id="edge10" class="edge">
<title>BB7&#45;&gt;BB1</title>
<path fill="none" stroke="black" d="M307.84,-528.39C307.84,-520.12 307.84,-511.44 307.84,-502.93"/>
<polygon fill="black" stroke="black" points="311.34,-502.69 307.84,-492.69 304.34,-502.69 311.34,-502.69"/>
</g>
<!-- BB8 -->
<g id="node9" class="node">
<title>BB8</title>
<ellipse fill="none" stroke="black" cx="543.84" cy="-444.58" rx="104.8" ry="48.17"/>
<text text-anchor="middle" x="543.84" y="-463.38" font-family="Times New Roman,serif" font-size="14.00">[38..39)</text>
<text text-anchor="middle" x="543.84" y="-448.38" font-family="Times New Roman,serif" font-size="14.00">Count: 0</text>
<text text-anchor="middle" x="543.84" y="-433.38" font-family="Times New Roman,serif" font-size="14.00">Normalized count: NaN</text>
<text text-anchor="middle" x="543.84" y="-418.38" font-family="Times New Roman,serif" font-size="14.00">Samples weight: 0.00</text>
</g>
<!-- BB7&#45;&gt;BB8 -->
<g id="edge11" class="edge">
<title>BB7&#45;&gt;BB8</title>
<path fill="none" stroke="black" d="M376.11,-538.1C405.1,-522.11 438.99,-503.41 468.7,-487.03"/>
<polygon fill="black" stroke="black" points="470.7,-489.92 477.77,-482.03 467.32,-483.79 470.7,-489.92"/>
</g>
</g>
</svg>
