<?xml version="1.0" encoding="UTF-8" standalone="no"?>
<!DOCTYPE svg PUBLIC "-//W3C//DTD SVG 1.1//EN"
 "http://www.w3.org/Graphics/SVG/1.1/DTD/svg11.dtd">
<!-- Generated by graphviz version 2.47.0 (20210316.0004)
 -->
<!-- Title: G Pages: 1 -->
<svg width="692pt" height="501pt"
 viewBox="0.00 0.00 692.42 500.67" xmlns="http://www.w3.org/2000/svg" xmlns:xlink="http://www.w3.org/1999/xlink">
<g id="graph0" class="graph" transform="scale(1 1) rotate(0) translate(4 496.67)">
<title>G</title>
<polygon fill="white" stroke="transparent" points="-4,4 -4,-496.67 688.42,-496.67 688.42,4 -4,4"/>
<!-- BB0 -->
<g id="node1" class="node">
<title>BB0</title>
<ellipse fill="none" stroke="black" cx="463.19" cy="-444.58" rx="103.48" ry="48.17"/>
<text text-anchor="middle" x="463.19" y="-463.38" font-family="Times New Roman,serif" font-size="14.00">[0..6)</text>
<text text-anchor="middle" x="463.19" y="-448.38" font-family="Times New Roman,serif" font-size="14.00">Count: 980</text>
<text text-anchor="middle" x="463.19" y="-433.38" font-family="Times New Roman,serif" font-size="14.00">Normalized count: 1.00</text>
<text text-anchor="middle" x="463.19" y="-418.38" font-family="Times New Roman,serif" font-size="14.00">Samples weight: 0.00</text>
</g>
<!-- BB4 -->
<g id="node5" class="node">
<title>BB4</title>
<ellipse fill="none" stroke="black" cx="393.19" cy="-312.42" rx="113.27" ry="48.17"/>
<text text-anchor="middle" x="393.19" y="-331.22" font-family="Times New Roman,serif" font-size="14.00">[28..2c)</text>
<text text-anchor="middle" x="393.19" y="-316.22" font-family="Times New Roman,serif" font-size="14.00">Count: 116966</text>
<text text-anchor="middle" x="393.19" y="-301.22" font-family="Times New Roman,serif" font-size="14.00">Normalized count: 119.35</text>
<text text-anchor="middle" x="393.19" y="-286.22" font-family="Times New Roman,serif" font-size="14.00">Samples weight: 0.27</text>
</g>
<!-- BB0&#45;&gt;BB4 -->
<g id="edge1" class="edge">
<title>BB0&#45;&gt;BB4</title>
<path fill="none" stroke="black" d="M438.51,-397.69C433.5,-388.37 428.18,-378.48 423.01,-368.87"/>
<polygon fill="black" stroke="black" points="425.94,-366.92 418.12,-359.77 419.77,-370.24 425.94,-366.92"/>
</g>
<!-- BB1 -->
<g id="node2" class="node">
<title>BB1</title>
<ellipse fill="none" stroke="black" cx="252.19" cy="-180.25" rx="113.27" ry="48.17"/>
<text text-anchor="middle" x="252.19" y="-199.05" font-family="Times New Roman,serif" font-size="14.00">[6..10)</text>
<text text-anchor="middle" x="252.19" y="-184.05" font-family="Times New Roman,serif" font-size="14.00">Count: 113129</text>
<text text-anchor="middle" x="252.19" y="-169.05" font-family="Times New Roman,serif" font-size="14.00">Normalized count: 115.44</text>
<text text-anchor="middle" x="252.19" y="-154.05" font-family="Times New Roman,serif" font-size="14.00">Samples weight: 0.26</text>
</g>
<!-- BB2 -->
<g id="node3" class="node">
<title>BB2</title>
<ellipse fill="none" stroke="black" cx="108.19" cy="-48.08" rx="108.38" ry="48.17"/>
<text text-anchor="middle" x="108.19" y="-66.88" font-family="Times New Roman,serif" font-size="14.00">[10..24)</text>
<text text-anchor="middle" x="108.19" y="-51.88" font-family="Times New Roman,serif" font-size="14.00">Count: 85052</text>
<text text-anchor="middle" x="108.19" y="-36.88" font-family="Times New Roman,serif" font-size="14.00">Normalized count: 86.79</text>
<text text-anchor="middle" x="108.19" y="-21.88" font-family="Times New Roman,serif" font-size="14.00">Samples weight: 0.20</text>
</g>
<!-- BB1&#45;&gt;BB2 -->
<g id="edge3" class="edge">
<title>BB1&#45;&gt;BB2</title>
<path fill="none" stroke="black" d="M204.64,-136.27C191.23,-124.15 176.53,-110.86 162.75,-98.4"/>
<polygon fill="black" stroke="black" points="164.96,-95.69 155.2,-91.58 160.27,-100.88 164.96,-95.69"/>
</g>
<!-- BB3 -->
<g id="node4" class="node">
<title>BB3</title>
<ellipse fill="none" stroke="black" cx="347.19" cy="-48.08" rx="113.27" ry="48.17"/>
<text text-anchor="middle" x="347.19" y="-66.88" font-family="Times New Roman,serif" font-size="14.00">[24..28)</text>
<text text-anchor="middle" x="347.19" y="-51.88" font-family="Times New Roman,serif" font-size="14.00">Count: 115859</text>
<text text-anchor="middle" x="347.19" y="-36.88" font-family="Times New Roman,serif" font-size="14.00">Normalized count: 118.22</text>
<text text-anchor="middle" x="347.19" y="-21.88" font-family="Times New Roman,serif" font-size="14.00">Samples weight: 0.27</text>
</g>
<!-- BB1&#45;&gt;BB3 -->
<g id="edge2" class="edge">
<title>BB1&#45;&gt;BB3</title>
<path fill="none" stroke="black" d="M285.15,-134.09C292.59,-123.89 300.56,-112.97 308.22,-102.47"/>
<polygon fill="black" stroke="black" points="311.22,-104.3 314.29,-94.16 305.56,-100.18 311.22,-104.3"/>
</g>
<!-- BB2&#45;&gt;BB3 -->
<g id="edge4" class="edge">
<title>BB2&#45;&gt;BB3</title>
<path fill="none" stroke="black" d="M216.48,-48.08C218.93,-48.08 221.37,-48.08 223.81,-48.08"/>
<polygon fill="black" stroke="black" points="223.84,-51.58 233.84,-48.08 223.84,-44.58 223.84,-51.58"/>
</g>
<!-- BB3&#45;&gt;BB4 -->
<g id="edge5" class="edge">
<title>BB3&#45;&gt;BB4</title>
<path fill="none" stroke="black" d="M364.2,-95.63C367.98,-107.42 371.63,-120.15 374.19,-132.17 382.76,-172.42 387.54,-218.62 390.16,-254.04"/>
<polygon fill="black" stroke="black" points="386.68,-254.47 390.88,-264.2 393.67,-253.97 386.68,-254.47"/>
</g>
<!-- BB4&#45;&gt;BB1 -->
<g id="edge6" class="edge">
<title>BB4&#45;&gt;BB1</title>
<path fill="none" stroke="black" d="M346.63,-268.43C333.75,-256.55 319.67,-243.55 306.4,-231.3"/>
<polygon fill="black" stroke="black" points="308.42,-228.4 298.7,-224.19 303.67,-233.54 308.42,-228.4"/>
</g>
<!-- BB5 -->
<g id="node6" class="node">
<title>BB5</title>
<ellipse fill="none" stroke="black" cx="534.19" cy="-180.25" rx="103.48" ry="48.17"/>
<text text-anchor="middle" x="534.19" y="-199.05" font-family="Times New Roman,serif" font-size="14.00">[2c..2f)</text>
<text text-anchor="middle" x="534.19" y="-184.05" font-family="Times New Roman,serif" font-size="14.00">Count: 889</text>
<text text-anchor="middle" x="534.19" y="-169.05" font-family="Times New Roman,serif" font-size="14.00">Normalized count: 0.91</text>
<text text-anchor="middle" x="534.19" y="-154.05" font-family="Times New Roman,serif" font-size="14.00">Samples weight: 0.00</text>
</g>
<!-- BB4&#45;&gt;BB5 -->
<g id="edge7" class="edge">
<title>BB4&#45;&gt;BB5</title>
<path fill="none" stroke="black" d="M439.75,-268.43C452.88,-256.31 467.26,-243.03 480.76,-230.57"/>
<polygon fill="black" stroke="black" points="483.18,-233.1 488.16,-223.74 478.44,-227.95 483.18,-233.1"/>
</g>
<!-- BB5&#45;&gt;BB0 -->
<g id="edge8" class="edge">
<title>BB5&#45;&gt;BB0</title>
<path fill="none" stroke="black" d="M534.93,-228.55C534.15,-265.44 530.05,-317.46 515.19,-360.5 511.74,-370.49 506.9,-380.53 501.55,-390"/>
<polygon fill="black" stroke="black" points="498.37,-388.5 496.29,-398.89 504.39,-392.07 498.37,-388.5"/>
</g>
<!-- BB6 -->
<g id="node7" class="node">
<title>BB6</title>
<ellipse fill="none" stroke="black" cx="581.19" cy="-48.08" rx="103.48" ry="48.17"/>
<text text-anchor="middle" x="581.19" y="-66.88" font-family="Times New Roman,serif" font-size="14.00">[2f..30)</text>
<text text-anchor="middle" x="581.19" y="-51.88" font-family="Times New Roman,serif" font-size="14.00">Count: 5</text>
<text text-anchor="middle" x="581.19" y="-36.88" font-family="Times New Roman,serif" font-size="14.00">Normalized count: 0.01</text>
<text text-anchor="middle" x="581.19" y="-21.88" font-family="Times New Roman,serif" font-size="14.00">Samples weight: 0.00</text>
</g>
<!-- BB5&#45;&gt;BB6 -->
<g id="edge9" class="edge">
<title>BB5&#45;&gt;BB6</title>
<path fill="none" stroke="black" d="M551.02,-132.62C554.23,-123.75 557.62,-114.37 560.92,-105.23"/>
<polygon fill="black" stroke="black" points="564.21,-106.41 564.31,-95.82 557.62,-104.04 564.21,-106.41"/>
</g>
</g>
</svg>
