<?xml version="1.0" encoding="UTF-8" standalone="no"?>
<!DOCTYPE svg PUBLIC "-//W3C//DTD SVG 1.1//EN"
 "http://www.w3.org/Graphics/SVG/1.1/DTD/svg11.dtd">
<!-- Generated by graphviz version 2.47.0 (20210316.0004)
 -->
<!-- Title: G Pages: 1 -->
<svg width="401pt" height="780pt"
 viewBox="0.00 0.00 400.66 779.66" xmlns="http://www.w3.org/2000/svg" xmlns:xlink="http://www.w3.org/1999/xlink">
<g id="graph0" class="graph" transform="scale(1 1) rotate(0) translate(4 775.66)">
<title>G</title>
<polygon fill="white" stroke="transparent" points="-4,4 -4,-775.66 396.66,-775.66 396.66,4 -4,4"/>
<!-- BB0 -->
<g id="node1" class="node">
<title>BB0</title>
<ellipse fill="none" stroke="black" cx="75.23" cy="-744.79" rx="33.47" ry="26.74"/>
<text text-anchor="middle" x="75.23" y="-748.59" font-family="Times New Roman,serif" font-size="14.00">[0..3)</text>
<text text-anchor="middle" x="75.23" y="-733.59" font-family="Times New Roman,serif" font-size="14.00">0.00</text>
</g>
<!-- BB1 -->
<g id="node2" class="node">
<title>BB1</title>
<ellipse fill="none" stroke="black" cx="33.23" cy="-655.05" rx="33.47" ry="26.74"/>
<text text-anchor="middle" x="33.23" y="-658.85" font-family="Times New Roman,serif" font-size="14.00">[3..5)</text>
<text text-anchor="middle" x="33.23" y="-643.85" font-family="Times New Roman,serif" font-size="14.00">0.00</text>
</g>
<!-- BB0&#45;&gt;BB1 -->
<g id="edge2" class="edge">
<title>BB0&#45;&gt;BB1</title>
<path fill="none" stroke="black" d="M63.53,-719.35C59.12,-710.13 54.02,-699.47 49.27,-689.56"/>
<polygon fill="black" stroke="black" points="52.35,-687.87 44.87,-680.36 46.03,-690.89 52.35,-687.87"/>
</g>
<!-- BB2 -->
<g id="node3" class="node">
<title>BB2</title>
<ellipse fill="none" stroke="black" cx="117.23" cy="-655.05" rx="32.55" ry="26.74"/>
<text text-anchor="middle" x="117.23" y="-658.85" font-family="Times New Roman,serif" font-size="14.00">[5..a)</text>
<text text-anchor="middle" x="117.23" y="-643.85" font-family="Times New Roman,serif" font-size="14.00">0.01</text>
</g>
<!-- BB0&#45;&gt;BB2 -->
<g id="edge1" class="edge">
<title>BB0&#45;&gt;BB2</title>
<path fill="none" stroke="black" d="M86.93,-719.35C91.35,-710.13 96.45,-699.47 101.19,-689.56"/>
<polygon fill="black" stroke="black" points="104.44,-690.89 105.6,-680.36 98.12,-687.87 104.44,-690.89"/>
</g>
<!-- BB3 -->
<g id="node4" class="node">
<title>BB3</title>
<ellipse fill="none" stroke="black" cx="73.23" cy="-565.31" rx="32.55" ry="26.74"/>
<text text-anchor="middle" x="73.23" y="-569.11" font-family="Times New Roman,serif" font-size="14.00">[a..c)</text>
<text text-anchor="middle" x="73.23" y="-554.11" font-family="Times New Roman,serif" font-size="14.00">0.00</text>
</g>
<!-- BB2&#45;&gt;BB3 -->
<g id="edge4" class="edge">
<title>BB2&#45;&gt;BB3</title>
<path fill="none" stroke="black" d="M105.21,-630.08C100.5,-620.67 95.01,-609.73 89.92,-599.58"/>
<polygon fill="black" stroke="black" points="93.01,-597.93 85.4,-590.56 86.75,-601.07 93.01,-597.93"/>
</g>
<!-- BB4 -->
<g id="node5" class="node">
<title>BB4</title>
<ellipse fill="none" stroke="black" cx="161.23" cy="-565.31" rx="37.45" ry="26.74"/>
<text text-anchor="middle" x="161.23" y="-569.11" font-family="Times New Roman,serif" font-size="14.00">[c..10)</text>
<text text-anchor="middle" x="161.23" y="-554.11" font-family="Times New Roman,serif" font-size="14.00">0.03</text>
</g>
<!-- BB2&#45;&gt;BB4 -->
<g id="edge3" class="edge">
<title>BB2&#45;&gt;BB4</title>
<path fill="none" stroke="black" d="M129.26,-630.08C133.93,-620.75 139.37,-609.91 144.42,-599.84"/>
<polygon fill="black" stroke="black" points="147.56,-601.38 148.92,-590.87 141.31,-598.24 147.56,-601.38"/>
</g>
<!-- BB6 -->
<g id="node7" class="node">
<title>BB6</title>
<ellipse fill="none" stroke="black" cx="161.23" cy="-475.57" rx="41.94" ry="26.74"/>
<text text-anchor="middle" x="161.23" y="-479.37" font-family="Times New Roman,serif" font-size="14.00">[1a..20)</text>
<text text-anchor="middle" x="161.23" y="-464.37" font-family="Times New Roman,serif" font-size="14.00">0.02</text>
</g>
<!-- BB4&#45;&gt;BB6 -->
<g id="edge5" class="edge">
<title>BB4&#45;&gt;BB6</title>
<path fill="none" stroke="black" d="M161.23,-537.99C161.23,-530.02 161.23,-521.13 161.23,-512.64"/>
<polygon fill="black" stroke="black" points="164.73,-512.57 161.23,-502.57 157.73,-512.57 164.73,-512.57"/>
</g>
<!-- BB5 -->
<g id="node6" class="node">
<title>BB5</title>
<ellipse fill="none" stroke="black" cx="161.23" cy="-385.83" rx="41.94" ry="26.74"/>
<text text-anchor="middle" x="161.23" y="-389.63" font-family="Times New Roman,serif" font-size="14.00">[10..1a)</text>
<text text-anchor="middle" x="161.23" y="-374.63" font-family="Times New Roman,serif" font-size="14.00">0.15</text>
</g>
<!-- BB5&#45;&gt;BB6 -->
<g id="edge6" class="edge">
<title>BB5&#45;&gt;BB6</title>
<path fill="none" stroke="black" d="M167.44,-412.5C167.96,-420.69 168.11,-429.92 167.88,-438.7"/>
<polygon fill="black" stroke="black" points="164.39,-438.58 167.45,-448.72 171.38,-438.88 164.39,-438.58"/>
</g>
<!-- BB6&#45;&gt;BB5 -->
<g id="edge7" class="edge">
<title>BB6&#45;&gt;BB5</title>
<path fill="none" stroke="black" d="M155.02,-448.72C154.5,-440.51 154.36,-431.28 154.59,-422.5"/>
<polygon fill="black" stroke="black" points="158.09,-422.64 155.03,-412.5 151.09,-422.33 158.09,-422.64"/>
</g>
<!-- BB7 -->
<g id="node8" class="node">
<title>BB7</title>
<ellipse fill="none" stroke="black" cx="263.23" cy="-385.83" rx="42.35" ry="26.74"/>
<text text-anchor="middle" x="263.23" y="-389.63" font-family="Times New Roman,serif" font-size="14.00">[20..22)</text>
<text text-anchor="middle" x="263.23" y="-374.63" font-family="Times New Roman,serif" font-size="14.00">0.00</text>
</g>
<!-- BB6&#45;&gt;BB7 -->
<g id="edge8" class="edge">
<title>BB6&#45;&gt;BB7</title>
<path fill="none" stroke="black" d="M185.67,-453.55C199.19,-441.92 216.18,-427.31 230.8,-414.73"/>
<polygon fill="black" stroke="black" points="233.35,-417.15 238.65,-407.98 228.78,-411.85 233.35,-417.15"/>
</g>
<!-- BB8 -->
<g id="node9" class="node">
<title>BB8</title>
<ellipse fill="none" stroke="black" cx="263.23" cy="-296.09" rx="43.27" ry="26.74"/>
<text text-anchor="middle" x="263.23" y="-299.89" font-family="Times New Roman,serif" font-size="14.00">[22..2b)</text>
<text text-anchor="middle" x="263.23" y="-284.89" font-family="Times New Roman,serif" font-size="14.00">0.06</text>
</g>
<!-- BB7&#45;&gt;BB8 -->
<g id="edge9" class="edge">
<title>BB7&#45;&gt;BB8</title>
<path fill="none" stroke="black" d="M263.23,-358.51C263.23,-350.54 263.23,-341.65 263.23,-333.16"/>
<polygon fill="black" stroke="black" points="266.73,-333.09 263.23,-323.09 259.73,-333.09 266.73,-333.09"/>
</g>
<!-- BB10 -->
<g id="node11" class="node">
<title>BB10</title>
<ellipse fill="none" stroke="black" cx="228.23" cy="-206.35" rx="42.35" ry="26.74"/>
<text text-anchor="middle" x="228.23" y="-210.15" font-family="Times New Roman,serif" font-size="14.00">[47..4c)</text>
<text text-anchor="middle" x="228.23" y="-195.15" font-family="Times New Roman,serif" font-size="14.00">0.07</text>
</g>
<!-- BB8&#45;&gt;BB10 -->
<g id="edge10" class="edge">
<title>BB8&#45;&gt;BB10</title>
<path fill="none" stroke="black" d="M253.11,-269.71C249.66,-261.07 245.75,-251.26 242.06,-242.02"/>
<polygon fill="black" stroke="black" points="245.29,-240.66 238.33,-232.67 238.79,-243.26 245.29,-240.66"/>
</g>
<!-- BB9 -->
<g id="node10" class="node">
<title>BB9</title>
<ellipse fill="none" stroke="black" cx="176.23" cy="-116.61" rx="43.27" ry="26.74"/>
<text text-anchor="middle" x="176.23" y="-120.41" font-family="Times New Roman,serif" font-size="14.00">[2b..47)</text>
<text text-anchor="middle" x="176.23" y="-105.41" font-family="Times New Roman,serif" font-size="14.00">0.34</text>
</g>
<!-- BB9&#45;&gt;BB10 -->
<g id="edge11" class="edge">
<title>BB9&#45;&gt;BB10</title>
<path fill="none" stroke="black" d="M196.03,-140.83C202.19,-150.06 208.78,-160.86 214.46,-170.96"/>
<polygon fill="black" stroke="black" points="211.52,-172.87 219.38,-179.97 217.66,-169.52 211.52,-172.87"/>
</g>
<!-- BB10&#45;&gt;BB9 -->
<g id="edge12" class="edge">
<title>BB10&#45;&gt;BB9</title>
<path fill="none" stroke="black" d="M208.55,-182.3C202.37,-173.05 195.74,-162.19 190.03,-152.03"/>
<polygon fill="black" stroke="black" points="192.95,-150.08 185.08,-142.98 186.8,-153.43 192.95,-150.08"/>
</g>
<!-- BB11 -->
<g id="node12" class="node">
<title>BB11</title>
<ellipse fill="none" stroke="black" cx="280.23" cy="-116.61" rx="42.35" ry="26.74"/>
<text text-anchor="middle" x="280.23" y="-120.41" font-family="Times New Roman,serif" font-size="14.00">[4c..55)</text>
<text text-anchor="middle" x="280.23" y="-105.41" font-family="Times New Roman,serif" font-size="14.00">0.25</text>
</g>
<!-- BB10&#45;&gt;BB11 -->
<g id="edge13" class="edge">
<title>BB10&#45;&gt;BB11</title>
<path fill="none" stroke="black" d="M242.72,-180.91C248.24,-171.59 254.63,-160.81 260.56,-150.81"/>
<polygon fill="black" stroke="black" points="263.74,-152.31 265.83,-141.92 257.72,-148.74 263.74,-152.31"/>
</g>
<!-- BB12 -->
<g id="node13" class="node">
<title>BB12</title>
<ellipse fill="none" stroke="black" cx="247.23" cy="-26.87" rx="42.35" ry="26.74"/>
<text text-anchor="middle" x="247.23" y="-30.67" font-family="Times New Roman,serif" font-size="14.00">[55..57)</text>
<text text-anchor="middle" x="247.23" y="-15.67" font-family="Times New Roman,serif" font-size="14.00">0.02</text>
</g>
<!-- BB11&#45;&gt;BB12 -->
<g id="edge15" class="edge">
<title>BB11&#45;&gt;BB12</title>
<path fill="none" stroke="black" d="M270.69,-90.23C267.47,-81.68 263.83,-71.99 260.38,-62.83"/>
<polygon fill="black" stroke="black" points="263.55,-61.32 256.76,-53.19 257,-63.78 263.55,-61.32"/>
</g>
<!-- BB13 -->
<g id="node14" class="node">
<title>BB13</title>
<ellipse fill="none" stroke="black" cx="350.23" cy="-26.87" rx="42.35" ry="26.74"/>
<text text-anchor="middle" x="350.23" y="-30.67" font-family="Times New Roman,serif" font-size="14.00">[57..64)</text>
<text text-anchor="middle" x="350.23" y="-15.67" font-family="Times New Roman,serif" font-size="14.00">0.04</text>
</g>
<!-- BB11&#45;&gt;BB13 -->
<g id="edge14" class="edge">
<title>BB11&#45;&gt;BB13</title>
<path fill="none" stroke="black" d="M298.99,-92.1C307.06,-81.98 316.61,-70.02 325.26,-59.17"/>
<polygon fill="black" stroke="black" points="328.17,-61.14 331.67,-51.14 322.69,-56.78 328.17,-61.14"/>
</g>
<!-- BB13&#45;&gt;BB8 -->
<g id="edge16" class="edge">
<title>BB13&#45;&gt;BB8</title>
<path fill="none" stroke="black" d="M347.89,-54.02C345.3,-77.74 340.26,-113.48 331.23,-143.48 318.6,-185.48 296.98,-231.07 281.51,-261.17"/>
<polygon fill="black" stroke="black" points="278.24,-259.89 276.73,-270.38 284.45,-263.12 278.24,-259.89"/>
</g>
</g>
</svg>
