<?xml version="1.0" encoding="UTF-8" standalone="no"?>
<!DOCTYPE svg PUBLIC "-//W3C//DTD SVG 1.1//EN"
 "http://www.w3.org/Graphics/SVG/1.1/DTD/svg11.dtd">
<!-- Generated by graphviz version 2.47.0 (20210316.0004)
 -->
<!-- Title: G Pages: 1 -->
<svg width="672pt" height="501pt"
 viewBox="0.00 0.00 672.42 500.67" xmlns="http://www.w3.org/2000/svg" xmlns:xlink="http://www.w3.org/1999/xlink">
<g id="graph0" class="graph" transform="scale(1 1) rotate(0) translate(4 496.67)">
<title>G</title>
<polygon fill="white" stroke="transparent" points="-4,4 -4,-496.67 668.42,-496.67 668.42,4 -4,4"/>
<!-- BB0 -->
<g id="node1" class="node">
<title>BB0</title>
<ellipse fill="none" stroke="black" cx="448.19" cy="-444.58" rx="103.48" ry="48.17"/>
<text text-anchor="middle" x="448.19" y="-463.38" font-family="Times New Roman,serif" font-size="14.00">[0..6)</text>
<text text-anchor="middle" x="448.19" y="-448.38" font-family="Times New Roman,serif" font-size="14.00">Count: 14</text>
<text text-anchor="middle" x="448.19" y="-433.38" font-family="Times New Roman,serif" font-size="14.00">Normalized count: 1.00</text>
<text text-anchor="middle" x="448.19" y="-418.38" font-family="Times New Roman,serif" font-size="14.00">Samples weight: 0.02</text>
</g>
<!-- BB4 -->
<g id="node5" class="node">
<title>BB4</title>
<ellipse fill="none" stroke="black" cx="383.19" cy="-312.42" rx="103.48" ry="48.17"/>
<text text-anchor="middle" x="383.19" y="-331.22" font-family="Times New Roman,serif" font-size="14.00">[28..2c)</text>
<text text-anchor="middle" x="383.19" y="-316.22" font-family="Times New Roman,serif" font-size="14.00">Count: 44</text>
<text text-anchor="middle" x="383.19" y="-301.22" font-family="Times New Roman,serif" font-size="14.00">Normalized count: 3.14</text>
<text text-anchor="middle" x="383.19" y="-286.22" font-family="Times New Roman,serif" font-size="14.00">Samples weight: 0.06</text>
</g>
<!-- BB0&#45;&gt;BB4 -->
<g id="edge1" class="edge">
<title>BB0&#45;&gt;BB4</title>
<path fill="none" stroke="black" d="M425.27,-397.69C420.56,-388.26 415.56,-378.24 410.71,-368.53"/>
<polygon fill="black" stroke="black" points="413.71,-366.72 406.12,-359.33 407.45,-369.84 413.71,-366.72"/>
</g>
<!-- BB1 -->
<g id="node2" class="node">
<title>BB1</title>
<ellipse fill="none" stroke="black" cx="247.19" cy="-180.25" rx="108.38" ry="48.17"/>
<text text-anchor="middle" x="247.19" y="-199.05" font-family="Times New Roman,serif" font-size="14.00">[6..10)</text>
<text text-anchor="middle" x="247.19" y="-184.05" font-family="Times New Roman,serif" font-size="14.00">Count: 347</text>
<text text-anchor="middle" x="247.19" y="-169.05" font-family="Times New Roman,serif" font-size="14.00">Normalized count: 24.79</text>
<text text-anchor="middle" x="247.19" y="-154.05" font-family="Times New Roman,serif" font-size="14.00">Samples weight: 0.44</text>
</g>
<!-- BB2 -->
<g id="node3" class="node">
<title>BB2</title>
<ellipse fill="none" stroke="black" cx="108.19" cy="-48.08" rx="108.38" ry="48.17"/>
<text text-anchor="middle" x="108.19" y="-66.88" font-family="Times New Roman,serif" font-size="14.00">[10..24)</text>
<text text-anchor="middle" x="108.19" y="-51.88" font-family="Times New Roman,serif" font-size="14.00">Count: 346</text>
<text text-anchor="middle" x="108.19" y="-36.88" font-family="Times New Roman,serif" font-size="14.00">Normalized count: 24.71</text>
<text text-anchor="middle" x="108.19" y="-21.88" font-family="Times New Roman,serif" font-size="14.00">Samples weight: 0.44</text>
</g>
<!-- BB1&#45;&gt;BB2 -->
<g id="edge3" class="edge">
<title>BB1&#45;&gt;BB2</title>
<path fill="none" stroke="black" d="M201.67,-136.63C188.71,-124.49 174.48,-111.17 161.12,-98.66"/>
<polygon fill="black" stroke="black" points="163.49,-96.08 153.8,-91.8 158.71,-101.19 163.49,-96.08"/>
</g>
<!-- BB3 -->
<g id="node4" class="node">
<title>BB3</title>
<ellipse fill="none" stroke="black" cx="337.19" cy="-48.08" rx="103.48" ry="48.17"/>
<text text-anchor="middle" x="337.19" y="-66.88" font-family="Times New Roman,serif" font-size="14.00">[24..28)</text>
<text text-anchor="middle" x="337.19" y="-51.88" font-family="Times New Roman,serif" font-size="14.00">Count: 31</text>
<text text-anchor="middle" x="337.19" y="-36.88" font-family="Times New Roman,serif" font-size="14.00">Normalized count: 2.21</text>
<text text-anchor="middle" x="337.19" y="-21.88" font-family="Times New Roman,serif" font-size="14.00">Samples weight: 0.04</text>
</g>
<!-- BB1&#45;&gt;BB3 -->
<g id="edge2" class="edge">
<title>BB1&#45;&gt;BB3</title>
<path fill="none" stroke="black" d="M278.41,-134.09C285.46,-123.89 293.01,-112.97 300.27,-102.47"/>
<polygon fill="black" stroke="black" points="303.21,-104.38 306.02,-94.16 297.45,-100.4 303.21,-104.38"/>
</g>
<!-- BB2&#45;&gt;BB3 -->
<g id="edge4" class="edge">
<title>BB2&#45;&gt;BB3</title>
<path fill="none" stroke="black" d="M216.43,-48.08C218.88,-48.08 221.33,-48.08 223.79,-48.08"/>
<polygon fill="black" stroke="black" points="223.88,-51.58 233.88,-48.08 223.88,-44.58 223.88,-51.58"/>
</g>
<!-- BB3&#45;&gt;BB4 -->
<g id="edge5" class="edge">
<title>BB3&#45;&gt;BB4</title>
<path fill="none" stroke="black" d="M354.2,-95.63C357.98,-107.42 361.63,-120.15 364.19,-132.17 372.76,-172.42 377.54,-218.62 380.16,-254.04"/>
<polygon fill="black" stroke="black" points="376.68,-254.47 380.88,-264.2 383.67,-253.97 376.68,-254.47"/>
</g>
<!-- BB4&#45;&gt;BB1 -->
<g id="edge6" class="edge">
<title>BB4&#45;&gt;BB1</title>
<path fill="none" stroke="black" d="M338.66,-268.79C326.22,-256.89 312.6,-243.85 299.75,-231.55"/>
<polygon fill="black" stroke="black" points="301.93,-228.8 292.28,-224.41 297.09,-233.86 301.93,-228.8"/>
</g>
<!-- BB5 -->
<g id="node6" class="node">
<title>BB5</title>
<ellipse fill="none" stroke="black" cx="514.19" cy="-180.25" rx="103.48" ry="48.17"/>
<text text-anchor="middle" x="514.19" y="-199.05" font-family="Times New Roman,serif" font-size="14.00">[2c..2f)</text>
<text text-anchor="middle" x="514.19" y="-184.05" font-family="Times New Roman,serif" font-size="14.00">Count: 3</text>
<text text-anchor="middle" x="514.19" y="-169.05" font-family="Times New Roman,serif" font-size="14.00">Normalized count: 0.21</text>
<text text-anchor="middle" x="514.19" y="-154.05" font-family="Times New Roman,serif" font-size="14.00">Samples weight: 0.00</text>
</g>
<!-- BB4&#45;&gt;BB5 -->
<g id="edge7" class="edge">
<title>BB4&#45;&gt;BB5</title>
<path fill="none" stroke="black" d="M426.44,-268.43C438.41,-256.55 451.49,-243.55 463.82,-231.3"/>
<polygon fill="black" stroke="black" points="466.35,-233.72 470.98,-224.19 461.41,-228.75 466.35,-233.72"/>
</g>
<!-- BB5&#45;&gt;BB0 -->
<g id="edge8" class="edge">
<title>BB5&#45;&gt;BB0</title>
<path fill="none" stroke="black" d="M514.39,-228.37C513.32,-265.16 509.09,-317.14 495.19,-360.5 492.04,-370.31 487.66,-380.25 482.82,-389.68"/>
<polygon fill="black" stroke="black" points="479.7,-388.08 478.06,-398.55 485.87,-391.39 479.7,-388.08"/>
</g>
<!-- BB6 -->
<g id="node7" class="node">
<title>BB6</title>
<ellipse fill="none" stroke="black" cx="561.19" cy="-48.08" rx="103.48" ry="48.17"/>
<text text-anchor="middle" x="561.19" y="-66.88" font-family="Times New Roman,serif" font-size="14.00">[2f..30)</text>
<text text-anchor="middle" x="561.19" y="-51.88" font-family="Times New Roman,serif" font-size="14.00">Count: 0</text>
<text text-anchor="middle" x="561.19" y="-36.88" font-family="Times New Roman,serif" font-size="14.00">Normalized count: 0.00</text>
<text text-anchor="middle" x="561.19" y="-21.88" font-family="Times New Roman,serif" font-size="14.00">Samples weight: 0.00</text>
</g>
<!-- BB5&#45;&gt;BB6 -->
<g id="edge9" class="edge">
<title>BB5&#45;&gt;BB6</title>
<path fill="none" stroke="black" d="M531.02,-132.62C534.23,-123.75 537.62,-114.37 540.92,-105.23"/>
<polygon fill="black" stroke="black" points="544.21,-106.41 544.31,-95.82 537.62,-104.04 544.21,-106.41"/>
</g>
</g>
</svg>
