<?xml version="1.0" encoding="UTF-8" standalone="no"?>
<!DOCTYPE svg PUBLIC "-//W3C//DTD SVG 1.1//EN"
 "http://www.w3.org/Graphics/SVG/1.1/DTD/svg11.dtd">
<!-- Generated by graphviz version 2.47.0 (20210316.0004)
 -->
<!-- Title: G Pages: 1 -->
<svg width="1310pt" height="1192pt"
 viewBox="0.00 0.00 1309.72 1192.49" xmlns="http://www.w3.org/2000/svg" xmlns:xlink="http://www.w3.org/1999/xlink">
<g id="graph0" class="graph" transform="scale(1 1) rotate(0) translate(4 1188.49)">
<title>G</title>
<polygon fill="white" stroke="transparent" points="-4,4 -4,-1188.49 1305.72,-1188.49 1305.72,4 -4,4"/>
<!-- BB0 -->
<g id="node1" class="node">
<title>BB0</title>
<ellipse fill="none" stroke="black" cx="855.36" cy="-1147.01" rx="105.22" ry="37.45"/>
<text text-anchor="middle" x="855.36" y="-1158.31" font-family="Times New Roman,serif" font-size="14.00">[0..27)</text>
<text text-anchor="middle" x="855.36" y="-1143.31" font-family="Times New Roman,serif" font-size="14.00">Normalized Count: 1.00</text>
<text text-anchor="middle" x="855.36" y="-1128.31" font-family="Times New Roman,serif" font-size="14.00">Samples weight: 0.00</text>
</g>
<!-- BB2 -->
<g id="node3" class="node">
<title>BB2</title>
<ellipse fill="none" stroke="black" cx="855.36" cy="-1036.06" rx="105.22" ry="37.45"/>
<text text-anchor="middle" x="855.36" y="-1047.36" font-family="Times New Roman,serif" font-size="14.00">[3f..44)</text>
<text text-anchor="middle" x="855.36" y="-1032.36" font-family="Times New Roman,serif" font-size="14.00">Normalized Count: 1.00</text>
<text text-anchor="middle" x="855.36" y="-1017.36" font-family="Times New Roman,serif" font-size="14.00">Samples weight: 0.00</text>
</g>
<!-- BB0&#45;&gt;BB2 -->
<g id="edge1" class="edge">
<title>BB0&#45;&gt;BB2</title>
<path fill="none" stroke="black" d="M855.36,-1109.43C855.36,-1101.25 855.36,-1092.47 855.36,-1083.95"/>
<polygon fill="black" stroke="black" points="858.86,-1083.73 855.36,-1073.73 851.86,-1083.73 858.86,-1083.73"/>
</g>
<!-- BB1 -->
<g id="node2" class="node">
<title>BB1</title>
<ellipse fill="none" stroke="black" cx="855.36" cy="-925.1" rx="105.22" ry="37.45"/>
<text text-anchor="middle" x="855.36" y="-936.4" font-family="Times New Roman,serif" font-size="14.00">[27..3f)</text>
<text text-anchor="middle" x="855.36" y="-921.4" font-family="Times New Roman,serif" font-size="14.00">Normalized Count: 0.00</text>
<text text-anchor="middle" x="855.36" y="-906.4" font-family="Times New Roman,serif" font-size="14.00">Samples weight: 0.00</text>
</g>
<!-- BB1&#45;&gt;BB2 -->
<g id="edge2" class="edge">
<title>BB1&#45;&gt;BB2</title>
<path fill="none" stroke="black" d="M861.78,-962.78C862.09,-970.95 862.18,-979.74 862.05,-988.26"/>
<polygon fill="black" stroke="black" points="858.54,-988.38 861.77,-998.47 865.54,-988.57 858.54,-988.38"/>
</g>
<!-- BB2&#45;&gt;BB1 -->
<g id="edge3" class="edge">
<title>BB2&#45;&gt;BB1</title>
<path fill="none" stroke="black" d="M848.94,-998.47C848.63,-990.3 848.54,-981.52 848.67,-972.99"/>
<polygon fill="black" stroke="black" points="852.17,-972.86 848.94,-962.78 845.17,-972.68 852.17,-972.86"/>
</g>
<!-- BB3 -->
<g id="node4" class="node">
<title>BB3</title>
<ellipse fill="none" stroke="black" cx="1089.36" cy="-925.1" rx="110.12" ry="37.45"/>
<text text-anchor="middle" x="1089.36" y="-936.4" font-family="Times New Roman,serif" font-size="14.00">[44..50)</text>
<text text-anchor="middle" x="1089.36" y="-921.4" font-family="Times New Roman,serif" font-size="14.00">Normalized Count: 28.00</text>
<text text-anchor="middle" x="1089.36" y="-906.4" font-family="Times New Roman,serif" font-size="14.00">Samples weight: 0.03</text>
</g>
<!-- BB2&#45;&gt;BB3 -->
<g id="edge4" class="edge">
<title>BB2&#45;&gt;BB3</title>
<path fill="none" stroke="black" d="M918.07,-1005.86C948.38,-991.75 984.94,-974.72 1016.48,-960.04"/>
<polygon fill="black" stroke="black" points="1018.08,-963.15 1025.66,-955.76 1015.12,-956.81 1018.08,-963.15"/>
</g>
<!-- BB4 -->
<g id="node5" class="node">
<title>BB4</title>
<ellipse fill="none" stroke="black" cx="571.36" cy="-814.15" rx="110.12" ry="37.45"/>
<text text-anchor="middle" x="571.36" y="-825.45" font-family="Times New Roman,serif" font-size="14.00">[50..55)</text>
<text text-anchor="middle" x="571.36" y="-810.45" font-family="Times New Roman,serif" font-size="14.00">Normalized Count: 14.50</text>
<text text-anchor="middle" x="571.36" y="-795.45" font-family="Times New Roman,serif" font-size="14.00">Samples weight: 0.01</text>
</g>
<!-- BB3&#45;&gt;BB4 -->
<g id="edge6" class="edge">
<title>BB3&#45;&gt;BB4</title>
<path fill="none" stroke="black" d="M1011.05,-898.52C997.25,-894.52 982.95,-890.7 969.36,-887.63 865.02,-864.01 836.47,-871.53 731.36,-851.63 711.39,-847.85 690.13,-843.34 669.85,-838.81"/>
<polygon fill="black" stroke="black" points="670.5,-835.37 659.98,-836.58 668.96,-842.2 670.5,-835.37"/>
</g>
<!-- BB15 -->
<g id="node16" class="node">
<title>BB15</title>
<ellipse fill="none" stroke="black" cx="850.36" cy="-814.15" rx="110.12" ry="37.45"/>
<text text-anchor="middle" x="850.36" y="-825.45" font-family="Times New Roman,serif" font-size="14.00">[d0..d4)</text>
<text text-anchor="middle" x="850.36" y="-810.45" font-family="Times New Roman,serif" font-size="14.00">Normalized Count: 28.00</text>
<text text-anchor="middle" x="850.36" y="-795.45" font-family="Times New Roman,serif" font-size="14.00">Samples weight: 0.03</text>
</g>
<!-- BB3&#45;&gt;BB15 -->
<g id="edge5" class="edge">
<title>BB3&#45;&gt;BB15</title>
<path fill="none" stroke="black" d="M1024.68,-894.62C993.73,-880.51 956.51,-863.54 924.43,-848.92"/>
<polygon fill="black" stroke="black" points="925.64,-845.62 915.09,-844.66 922.73,-851.99 925.64,-845.62"/>
</g>
<!-- BB6 -->
<g id="node7" class="node">
<title>BB6</title>
<ellipse fill="none" stroke="black" cx="531.36" cy="-703.2" rx="115.02" ry="37.45"/>
<text text-anchor="middle" x="531.36" y="-714.5" font-family="Times New Roman,serif" font-size="14.00">[63..68)</text>
<text text-anchor="middle" x="531.36" y="-699.5" font-family="Times New Roman,serif" font-size="14.00">Normalized Count: 124.50</text>
<text text-anchor="middle" x="531.36" y="-684.5" font-family="Times New Roman,serif" font-size="14.00">Samples weight: 0.13</text>
</g>
<!-- BB4&#45;&gt;BB6 -->
<g id="edge7" class="edge">
<title>BB4&#45;&gt;BB6</title>
<path fill="none" stroke="black" d="M558.04,-776.87C554.9,-768.32 551.52,-759.1 548.24,-750.19"/>
<polygon fill="black" stroke="black" points="551.49,-748.87 544.76,-740.69 544.92,-751.28 551.49,-748.87"/>
</g>
<!-- BB5 -->
<g id="node6" class="node">
<title>BB5</title>
<ellipse fill="none" stroke="black" cx="531.36" cy="-592.24" rx="115.02" ry="37.45"/>
<text text-anchor="middle" x="531.36" y="-603.54" font-family="Times New Roman,serif" font-size="14.00">[55..63)</text>
<text text-anchor="middle" x="531.36" y="-588.54" font-family="Times New Roman,serif" font-size="14.00">Normalized Count: 110.00</text>
<text text-anchor="middle" x="531.36" y="-573.54" font-family="Times New Roman,serif" font-size="14.00">Samples weight: 0.11</text>
</g>
<!-- BB5&#45;&gt;BB6 -->
<g id="edge8" class="edge">
<title>BB5&#45;&gt;BB6</title>
<path fill="none" stroke="black" d="M537.78,-629.92C538.09,-638.09 538.18,-646.88 538.05,-655.4"/>
<polygon fill="black" stroke="black" points="534.54,-655.52 537.77,-665.61 541.54,-655.71 534.54,-655.52"/>
</g>
<!-- BB6&#45;&gt;BB5 -->
<g id="edge9" class="edge">
<title>BB6&#45;&gt;BB5</title>
<path fill="none" stroke="black" d="M524.94,-665.61C524.63,-657.44 524.54,-648.66 524.67,-640.13"/>
<polygon fill="black" stroke="black" points="528.17,-640 524.94,-629.92 521.17,-639.82 528.17,-640"/>
</g>
<!-- BB7 -->
<g id="node8" class="node">
<title>BB7</title>
<ellipse fill="none" stroke="black" cx="287.36" cy="-592.24" rx="110.12" ry="37.45"/>
<text text-anchor="middle" x="287.36" y="-603.54" font-family="Times New Roman,serif" font-size="14.00">[68..6b)</text>
<text text-anchor="middle" x="287.36" y="-588.54" font-family="Times New Roman,serif" font-size="14.00">Normalized Count: 14.50</text>
<text text-anchor="middle" x="287.36" y="-573.54" font-family="Times New Roman,serif" font-size="14.00">Samples weight: 0.01</text>
</g>
<!-- BB6&#45;&gt;BB7 -->
<g id="edge10" class="edge">
<title>BB6&#45;&gt;BB7</title>
<path fill="none" stroke="black" d="M464.68,-672.42C433.09,-658.32 395.22,-641.41 362.6,-626.84"/>
<polygon fill="black" stroke="black" points="363.67,-623.48 353.11,-622.6 360.81,-629.88 363.67,-623.48"/>
</g>
<!-- BB8 -->
<g id="node9" class="node">
<title>BB8</title>
<ellipse fill="none" stroke="black" cx="332.36" cy="-481.29" rx="115.02" ry="37.45"/>
<text text-anchor="middle" x="332.36" y="-492.59" font-family="Times New Roman,serif" font-size="14.00">[6b..75)</text>
<text text-anchor="middle" x="332.36" y="-477.59" font-family="Times New Roman,serif" font-size="14.00">Normalized Count: 119.50</text>
<text text-anchor="middle" x="332.36" y="-462.59" font-family="Times New Roman,serif" font-size="14.00">Samples weight: 0.12</text>
</g>
<!-- BB7&#45;&gt;BB8 -->
<g id="edge11" class="edge">
<title>BB7&#45;&gt;BB8</title>
<path fill="none" stroke="black" d="M302.34,-554.96C305.87,-546.42 309.68,-537.2 313.36,-528.28"/>
<polygon fill="black" stroke="black" points="316.7,-529.36 317.29,-518.78 310.23,-526.69 316.7,-529.36"/>
</g>
<!-- BB9 -->
<g id="node10" class="node">
<title>BB9</title>
<ellipse fill="none" stroke="black" cx="574.36" cy="-370.34" rx="110.12" ry="37.45"/>
<text text-anchor="middle" x="574.36" y="-381.64" font-family="Times New Roman,serif" font-size="14.00">[75..84)</text>
<text text-anchor="middle" x="574.36" y="-366.64" font-family="Times New Roman,serif" font-size="14.00">Normalized Count: 14.50</text>
<text text-anchor="middle" x="574.36" y="-351.64" font-family="Times New Roman,serif" font-size="14.00">Samples weight: 0.01</text>
</g>
<!-- BB8&#45;&gt;BB9 -->
<g id="edge13" class="edge">
<title>BB8&#45;&gt;BB9</title>
<path fill="none" stroke="black" d="M398.49,-450.52C429.82,-436.41 467.38,-419.5 499.73,-404.94"/>
<polygon fill="black" stroke="black" points="501.47,-407.99 509.15,-400.7 498.59,-401.61 501.47,-407.99"/>
</g>
<!-- BB11 -->
<g id="node12" class="node">
<title>BB11</title>
<ellipse fill="none" stroke="black" cx="201.36" cy="-370.34" rx="115.02" ry="37.45"/>
<text text-anchor="middle" x="201.36" y="-381.64" font-family="Times New Roman,serif" font-size="14.00">[8a..95)</text>
<text text-anchor="middle" x="201.36" y="-366.64" font-family="Times New Roman,serif" font-size="14.00">Normalized Count: 105.00</text>
<text text-anchor="middle" x="201.36" y="-351.64" font-family="Times New Roman,serif" font-size="14.00">Samples weight: 0.11</text>
</g>
<!-- BB8&#45;&gt;BB11 -->
<g id="edge12" class="edge">
<title>BB8&#45;&gt;BB11</title>
<path fill="none" stroke="black" d="M291.27,-446.12C278.22,-435.26 263.67,-423.16 250.13,-411.9"/>
<polygon fill="black" stroke="black" points="252.23,-409.09 242.3,-405.39 247.75,-414.48 252.23,-409.09"/>
</g>
<!-- BB10 -->
<g id="node11" class="node">
<title>BB10</title>
<ellipse fill="none" stroke="black" cx="611.36" cy="-259.38" rx="110.12" ry="37.45"/>
<text text-anchor="middle" x="611.36" y="-270.68" font-family="Times New Roman,serif" font-size="14.00">[84..8a)</text>
<text text-anchor="middle" x="611.36" y="-255.68" font-family="Times New Roman,serif" font-size="14.00">Normalized Count: 10.00</text>
<text text-anchor="middle" x="611.36" y="-240.68" font-family="Times New Roman,serif" font-size="14.00">Samples weight: 0.01</text>
</g>
<!-- BB9&#45;&gt;BB10 -->
<g id="edge15" class="edge">
<title>BB9&#45;&gt;BB10</title>
<path fill="none" stroke="black" d="M586.68,-333.06C589.58,-324.51 592.71,-315.29 595.74,-306.38"/>
<polygon fill="black" stroke="black" points="599.06,-307.47 598.97,-296.88 592.44,-305.22 599.06,-307.47"/>
</g>
<!-- BB9&#45;&gt;BB15 -->
<g id="edge14" class="edge">
<title>BB9&#45;&gt;BB15</title>
<path fill="none" stroke="black" d="M592.73,-407.42C610.69,-443.85 637.81,-502.09 655.36,-554.77 682.16,-635.23 645.26,-674.55 698.36,-740.67 713.88,-760.01 735.81,-774.49 758.18,-785.2"/>
<polygon fill="black" stroke="black" points="756.89,-788.46 767.44,-789.42 759.79,-782.09 756.89,-788.46"/>
</g>
<!-- BB10&#45;&gt;BB15 -->
<g id="edge16" class="edge">
<title>BB10&#45;&gt;BB15</title>
<path fill="none" stroke="black" d="M659.98,-293.23C672.83,-304.31 685.35,-317.75 693.36,-332.86 724.31,-391.23 712.36,-414.22 712.36,-480.29 712.36,-593.24 712.36,-593.24 712.36,-593.24 712.36,-659.31 695.38,-685.27 731.36,-740.67 741.53,-756.34 756.39,-769.14 772.18,-779.39"/>
<polygon fill="black" stroke="black" points="770.68,-782.58 781.03,-784.83 774.34,-776.61 770.68,-782.58"/>
</g>
<!-- BB12 -->
<g id="node13" class="node">
<title>BB12</title>
<ellipse fill="none" stroke="black" cx="105.36" cy="-259.38" rx="105.22" ry="37.45"/>
<text text-anchor="middle" x="105.36" y="-270.68" font-family="Times New Roman,serif" font-size="14.00">[95..9e)</text>
<text text-anchor="middle" x="105.36" y="-255.68" font-family="Times New Roman,serif" font-size="14.00">Normalized Count: 8.00</text>
<text text-anchor="middle" x="105.36" y="-240.68" font-family="Times New Roman,serif" font-size="14.00">Samples weight: 0.01</text>
</g>
<!-- BB11&#45;&gt;BB12 -->
<g id="edge18" class="edge">
<title>BB11&#45;&gt;BB12</title>
<path fill="none" stroke="black" d="M170.19,-333.96C161.55,-324.16 152.08,-313.41 143.11,-303.23"/>
<polygon fill="black" stroke="black" points="145.61,-300.77 136.37,-295.58 140.36,-305.4 145.61,-300.77"/>
</g>
<!-- BB14 -->
<g id="node15" class="node">
<title>BB14</title>
<ellipse fill="none" stroke="black" cx="344.36" cy="-259.38" rx="115.02" ry="37.45"/>
<text text-anchor="middle" x="344.36" y="-270.68" font-family="Times New Roman,serif" font-size="14.00">[c4..d0)</text>
<text text-anchor="middle" x="344.36" y="-255.68" font-family="Times New Roman,serif" font-size="14.00">Normalized Count: 105.00</text>
<text text-anchor="middle" x="344.36" y="-240.68" font-family="Times New Roman,serif" font-size="14.00">Samples weight: 0.11</text>
</g>
<!-- BB11&#45;&gt;BB14 -->
<g id="edge17" class="edge">
<title>BB11&#45;&gt;BB14</title>
<path fill="none" stroke="black" d="M245.82,-335.46C260.35,-324.39 276.62,-311.99 291.69,-300.51"/>
<polygon fill="black" stroke="black" points="294.09,-303.08 299.92,-294.24 289.85,-297.52 294.09,-303.08"/>
</g>
<!-- BB13 -->
<g id="node14" class="node">
<title>BB13</title>
<ellipse fill="none" stroke="black" cx="225.36" cy="-148.43" rx="115.02" ry="37.45"/>
<text text-anchor="middle" x="225.36" y="-159.73" font-family="Times New Roman,serif" font-size="14.00">[9e..c4)</text>
<text text-anchor="middle" x="225.36" y="-144.73" font-family="Times New Roman,serif" font-size="14.00">Normalized Count: 212.00</text>
<text text-anchor="middle" x="225.36" y="-129.73" font-family="Times New Roman,serif" font-size="14.00">Samples weight: 0.21</text>
</g>
<!-- BB12&#45;&gt;BB13 -->
<g id="edge19" class="edge">
<title>BB12&#45;&gt;BB13</title>
<path fill="none" stroke="black" d="M143,-224.21C154.72,-213.56 167.78,-201.71 179.98,-190.63"/>
<polygon fill="black" stroke="black" points="182.39,-193.17 187.44,-183.86 177.68,-187.99 182.39,-193.17"/>
</g>
<!-- BB13&#45;&gt;BB13 -->
<g id="edge20" class="edge">
<title>BB13&#45;&gt;BB13</title>
<path fill="none" stroke="black" d="M322.98,-168.39C343.67,-166.36 358.62,-159.71 358.62,-148.43 358.62,-139.09 348.37,-132.92 333.09,-129.93"/>
<polygon fill="black" stroke="black" points="333.37,-126.43 322.98,-128.47 332.38,-133.36 333.37,-126.43"/>
</g>
<!-- BB13&#45;&gt;BB14 -->
<g id="edge21" class="edge">
<title>BB13&#45;&gt;BB14</title>
<path fill="none" stroke="black" d="M263.17,-184.05C274.58,-194.5 287.22,-206.07 299.06,-216.91"/>
<polygon fill="black" stroke="black" points="296.97,-219.74 306.71,-223.91 301.69,-214.58 296.97,-219.74"/>
</g>
<!-- BB14&#45;&gt;BB8 -->
<g id="edge22" class="edge">
<title>BB14&#45;&gt;BB8</title>
<path fill="none" stroke="black" d="M342.36,-296.94C340.32,-334.31 337.15,-392.48 334.93,-433.26"/>
<polygon fill="black" stroke="black" points="331.42,-433.31 334.37,-443.48 338.41,-433.69 331.42,-433.31"/>
</g>
<!-- BB16 -->
<g id="node17" class="node">
<title>BB16</title>
<ellipse fill="none" stroke="black" cx="1089.36" cy="-703.2" rx="110.12" ry="37.45"/>
<text text-anchor="middle" x="1089.36" y="-714.5" font-family="Times New Roman,serif" font-size="14.00">[d4..eb)</text>
<text text-anchor="middle" x="1089.36" y="-699.5" font-family="Times New Roman,serif" font-size="14.00">Normalized Count: 17.00</text>
<text text-anchor="middle" x="1089.36" y="-684.5" font-family="Times New Roman,serif" font-size="14.00">Samples weight: 0.02</text>
</g>
<!-- BB15&#45;&gt;BB16 -->
<g id="edge24" class="edge">
<title>BB15&#45;&gt;BB16</title>
<path fill="none" stroke="black" d="M915.04,-783.67C945.99,-769.56 983.21,-752.59 1015.29,-737.96"/>
<polygon fill="black" stroke="black" points="1016.98,-741.04 1024.63,-733.7 1014.08,-734.67 1016.98,-741.04"/>
</g>
<!-- BB17 -->
<g id="node18" class="node">
<title>BB17</title>
<ellipse fill="none" stroke="black" cx="850.36" cy="-703.2" rx="110.12" ry="37.45"/>
<text text-anchor="middle" x="850.36" y="-714.5" font-family="Times New Roman,serif" font-size="14.00">[eb..102)</text>
<text text-anchor="middle" x="850.36" y="-699.5" font-family="Times New Roman,serif" font-size="14.00">Normalized Count: 11.00</text>
<text text-anchor="middle" x="850.36" y="-684.5" font-family="Times New Roman,serif" font-size="14.00">Samples weight: 0.01</text>
</g>
<!-- BB15&#45;&gt;BB17 -->
<g id="edge23" class="edge">
<title>BB15&#45;&gt;BB17</title>
<path fill="none" stroke="black" d="M850.36,-776.57C850.36,-768.39 850.36,-759.61 850.36,-751.09"/>
<polygon fill="black" stroke="black" points="853.86,-750.87 850.36,-740.87 846.86,-750.87 853.86,-750.87"/>
</g>
<!-- BB16&#45;&gt;BB3 -->
<g id="edge25" class="edge">
<title>BB16&#45;&gt;BB3</title>
<path fill="none" stroke="black" d="M1089.36,-740.76C1089.36,-778.12 1089.36,-836.29 1089.36,-877.07"/>
<polygon fill="black" stroke="black" points="1085.86,-877.3 1089.36,-887.3 1092.86,-877.3 1085.86,-877.3"/>
</g>
<!-- BB26 -->
<g id="node27" class="node">
<title>BB26</title>
<ellipse fill="none" stroke="black" cx="874.36" cy="-592.24" rx="110.12" ry="37.45"/>
<text text-anchor="middle" x="874.36" y="-603.54" font-family="Times New Roman,serif" font-size="14.00">[164..169)</text>
<text text-anchor="middle" x="874.36" y="-588.54" font-family="Times New Roman,serif" font-size="14.00">Normalized Count: 14.00</text>
<text text-anchor="middle" x="874.36" y="-573.54" font-family="Times New Roman,serif" font-size="14.00">Samples weight: 0.01</text>
</g>
<!-- BB17&#45;&gt;BB26 -->
<g id="edge26" class="edge">
<title>BB17&#45;&gt;BB26</title>
<path fill="none" stroke="black" d="M858.42,-665.61C860.24,-657.35 862.19,-648.47 864.09,-639.85"/>
<polygon fill="black" stroke="black" points="867.55,-640.43 866.28,-629.92 860.71,-638.93 867.55,-640.43"/>
</g>
<!-- BB18 -->
<g id="node19" class="node">
<title>BB18</title>
<ellipse fill="none" stroke="black" cx="898.36" cy="-481.29" rx="110.12" ry="37.45"/>
<text text-anchor="middle" x="898.36" y="-492.59" font-family="Times New Roman,serif" font-size="14.00">[102..10c)</text>
<text text-anchor="middle" x="898.36" y="-477.59" font-family="Times New Roman,serif" font-size="14.00">Normalized Count: 10.50</text>
<text text-anchor="middle" x="898.36" y="-462.59" font-family="Times New Roman,serif" font-size="14.00">Samples weight: 0.01</text>
</g>
<!-- BB19 -->
<g id="node20" class="node">
<title>BB19</title>
<ellipse fill="none" stroke="black" cx="1196.36" cy="-370.34" rx="105.22" ry="37.45"/>
<text text-anchor="middle" x="1196.36" y="-381.64" font-family="Times New Roman,serif" font-size="14.00">[10c..119)</text>
<text text-anchor="middle" x="1196.36" y="-366.64" font-family="Times New Roman,serif" font-size="14.00">Normalized Count: 6.50</text>
<text text-anchor="middle" x="1196.36" y="-351.64" font-family="Times New Roman,serif" font-size="14.00">Samples weight: 0.01</text>
</g>
<!-- BB18&#45;&gt;BB19 -->
<g id="edge28" class="edge">
<title>BB18&#45;&gt;BB19</title>
<path fill="none" stroke="black" d="M972.02,-453.36C1015.22,-437.57 1069.87,-417.58 1114.42,-401.29"/>
<polygon fill="black" stroke="black" points="1115.87,-404.49 1124.06,-397.77 1113.46,-397.92 1115.87,-404.49"/>
</g>
<!-- BB20 -->
<g id="node21" class="node">
<title>BB20</title>
<ellipse fill="none" stroke="black" cx="898.36" cy="-370.34" rx="105.22" ry="37.45"/>
<text text-anchor="middle" x="898.36" y="-381.64" font-family="Times New Roman,serif" font-size="14.00">[119..11f)</text>
<text text-anchor="middle" x="898.36" y="-366.64" font-family="Times New Roman,serif" font-size="14.00">Normalized Count: 4.00</text>
<text text-anchor="middle" x="898.36" y="-351.64" font-family="Times New Roman,serif" font-size="14.00">Samples weight: 0.00</text>
</g>
<!-- BB18&#45;&gt;BB20 -->
<g id="edge27" class="edge">
<title>BB18&#45;&gt;BB20</title>
<path fill="none" stroke="black" d="M898.36,-443.71C898.36,-435.53 898.36,-426.75 898.36,-418.23"/>
<polygon fill="black" stroke="black" points="901.86,-418.01 898.36,-408.01 894.86,-418.01 901.86,-418.01"/>
</g>
<!-- BB19&#45;&gt;BB3 -->
<g id="edge29" class="edge">
<title>BB19&#45;&gt;BB3</title>
<path fill="none" stroke="black" d="M1225.69,-406.66C1233.62,-417.91 1241.38,-430.82 1246.36,-443.81 1270.01,-505.5 1265.36,-525.18 1265.36,-591.24 1265.36,-704.2 1265.36,-704.2 1265.36,-704.2 1265.36,-781.02 1199.08,-846.37 1147.87,-885.39"/>
<polygon fill="black" stroke="black" points="1145.71,-882.64 1139.79,-891.43 1149.9,-888.25 1145.71,-882.64"/>
</g>
<!-- BB21 -->
<g id="node22" class="node">
<title>BB21</title>
<ellipse fill="none" stroke="black" cx="893.36" cy="-259.38" rx="105.22" ry="37.45"/>
<text text-anchor="middle" x="893.36" y="-270.68" font-family="Times New Roman,serif" font-size="14.00">[11f..130)</text>
<text text-anchor="middle" x="893.36" y="-255.68" font-family="Times New Roman,serif" font-size="14.00">Normalized Count: 1.00</text>
<text text-anchor="middle" x="893.36" y="-240.68" font-family="Times New Roman,serif" font-size="14.00">Samples weight: 0.00</text>
</g>
<!-- BB20&#45;&gt;BB21 -->
<g id="edge31" class="edge">
<title>BB20&#45;&gt;BB21</title>
<path fill="none" stroke="black" d="M896.68,-332.75C896.3,-324.58 895.9,-315.8 895.51,-307.27"/>
<polygon fill="black" stroke="black" points="899,-306.88 895.04,-297.06 892,-307.21 899,-306.88"/>
</g>
<!-- BB22 -->
<g id="node23" class="node">
<title>BB22</title>
<ellipse fill="none" stroke="black" cx="1122.36" cy="-259.38" rx="105.22" ry="37.45"/>
<text text-anchor="middle" x="1122.36" y="-270.68" font-family="Times New Roman,serif" font-size="14.00">[130..140)</text>
<text text-anchor="middle" x="1122.36" y="-255.68" font-family="Times New Roman,serif" font-size="14.00">Normalized Count: 3.00</text>
<text text-anchor="middle" x="1122.36" y="-240.68" font-family="Times New Roman,serif" font-size="14.00">Samples weight: 0.00</text>
</g>
<!-- BB20&#45;&gt;BB22 -->
<g id="edge30" class="edge">
<title>BB20&#45;&gt;BB22</title>
<path fill="none" stroke="black" d="M959.27,-339.71C988.04,-325.72 1022.52,-308.94 1052.36,-294.43"/>
<polygon fill="black" stroke="black" points="1054,-297.53 1061.46,-290.01 1050.93,-291.23 1054,-297.53"/>
</g>
<!-- BB24 -->
<g id="node25" class="node">
<title>BB24</title>
<ellipse fill="none" stroke="black" cx="1090.36" cy="-148.43" rx="110.12" ry="37.45"/>
<text text-anchor="middle" x="1090.36" y="-159.73" font-family="Times New Roman,serif" font-size="14.00">[150..156)</text>
<text text-anchor="middle" x="1090.36" y="-144.73" font-family="Times New Roman,serif" font-size="14.00">Normalized Count: 13.00</text>
<text text-anchor="middle" x="1090.36" y="-129.73" font-family="Times New Roman,serif" font-size="14.00">Samples weight: 0.01</text>
</g>
<!-- BB22&#45;&gt;BB24 -->
<g id="edge32" class="edge">
<title>BB22&#45;&gt;BB24</title>
<path fill="none" stroke="black" d="M1111.61,-221.8C1109.16,-213.45 1106.52,-204.46 1103.97,-195.76"/>
<polygon fill="black" stroke="black" points="1107.31,-194.71 1101.13,-186.1 1100.59,-196.68 1107.31,-194.71"/>
</g>
<!-- BB23 -->
<g id="node24" class="node">
<title>BB23</title>
<ellipse fill="none" stroke="black" cx="1090.36" cy="-37.48" rx="110.12" ry="37.45"/>
<text text-anchor="middle" x="1090.36" y="-48.78" font-family="Times New Roman,serif" font-size="14.00">[140..150)</text>
<text text-anchor="middle" x="1090.36" y="-33.78" font-family="Times New Roman,serif" font-size="14.00">Normalized Count: 10.00</text>
<text text-anchor="middle" x="1090.36" y="-18.78" font-family="Times New Roman,serif" font-size="14.00">Samples weight: 0.01</text>
</g>
<!-- BB23&#45;&gt;BB24 -->
<g id="edge33" class="edge">
<title>BB23&#45;&gt;BB24</title>
<path fill="none" stroke="black" d="M1096.78,-75.15C1097.09,-83.33 1097.18,-92.11 1097.05,-100.63"/>
<polygon fill="black" stroke="black" points="1093.54,-100.76 1096.77,-110.85 1100.54,-100.94 1093.54,-100.76"/>
</g>
<!-- BB24&#45;&gt;BB23 -->
<g id="edge34" class="edge">
<title>BB24&#45;&gt;BB23</title>
<path fill="none" stroke="black" d="M1083.94,-110.85C1083.63,-102.67 1083.54,-93.89 1083.67,-85.37"/>
<polygon fill="black" stroke="black" points="1087.17,-85.24 1083.94,-75.15 1080.17,-85.05 1087.17,-85.24"/>
</g>
<!-- BB25 -->
<g id="node26" class="node">
<title>BB25</title>
<ellipse fill="none" stroke="black" cx="824.36" cy="-37.48" rx="105.22" ry="37.45"/>
<text text-anchor="middle" x="824.36" y="-48.78" font-family="Times New Roman,serif" font-size="14.00">[156..164)</text>
<text text-anchor="middle" x="824.36" y="-33.78" font-family="Times New Roman,serif" font-size="14.00">Normalized Count: 3.00</text>
<text text-anchor="middle" x="824.36" y="-18.78" font-family="Times New Roman,serif" font-size="14.00">Samples weight: 0.00</text>
</g>
<!-- BB24&#45;&gt;BB25 -->
<g id="edge35" class="edge">
<title>BB24&#45;&gt;BB25</title>
<path fill="none" stroke="black" d="M1021.16,-119.09C984.55,-104.09 939.49,-85.63 901.72,-70.16"/>
<polygon fill="black" stroke="black" points="902.87,-66.85 892.29,-66.3 900.21,-73.33 902.87,-66.85"/>
</g>
<!-- BB25&#45;&gt;BB26 -->
<g id="edge36" class="edge">
<title>BB25&#45;&gt;BB26</title>
<path fill="none" stroke="black" d="M807.04,-74.5C788.09,-117.31 760.36,-191.38 760.36,-258.38 760.36,-371.34 760.36,-371.34 760.36,-371.34 760.36,-437.4 746.32,-461.55 779.36,-518.77 787.02,-532.03 798.16,-543.67 810.14,-553.52"/>
<polygon fill="black" stroke="black" points="808.07,-556.35 818.1,-559.74 812.37,-550.83 808.07,-556.35"/>
</g>
<!-- BB26&#45;&gt;BB18 -->
<g id="edge37" class="edge">
<title>BB26&#45;&gt;BB18</title>
<path fill="none" stroke="black" d="M882.42,-554.66C884.24,-546.4 886.19,-537.51 888.09,-528.9"/>
<polygon fill="black" stroke="black" points="891.55,-529.48 890.28,-518.96 884.71,-527.97 891.55,-529.48"/>
</g>
<!-- BB27 -->
<g id="node28" class="node">
<title>BB27</title>
<ellipse fill="none" stroke="black" cx="1132.36" cy="-481.29" rx="105.22" ry="37.45"/>
<text text-anchor="middle" x="1132.36" y="-492.59" font-family="Times New Roman,serif" font-size="14.00">[169..16e)</text>
<text text-anchor="middle" x="1132.36" y="-477.59" font-family="Times New Roman,serif" font-size="14.00">Normalized Count: 3.50</text>
<text text-anchor="middle" x="1132.36" y="-462.59" font-family="Times New Roman,serif" font-size="14.00">Samples weight: 0.00</text>
</g>
<!-- BB26&#45;&gt;BB27 -->
<g id="edge38" class="edge">
<title>BB26&#45;&gt;BB27</title>
<path fill="none" stroke="black" d="M942.15,-562.62C977.09,-547.86 1019.84,-529.8 1055.96,-514.55"/>
<polygon fill="black" stroke="black" points="1057.62,-517.65 1065.47,-510.54 1054.9,-511.2 1057.62,-517.65"/>
</g>
<!-- BB27&#45;&gt;BB3 -->
<g id="edge39" class="edge">
<title>BB27&#45;&gt;BB3</title>
<path fill="none" stroke="black" d="M1156.06,-517.83C1186.27,-567.65 1231.91,-661.09 1208.36,-740.67 1192.65,-793.75 1156.23,-845.87 1127.79,-880.91"/>
<polygon fill="black" stroke="black" points="1124.78,-879.05 1121.12,-888.99 1130.18,-883.51 1124.78,-879.05"/>
</g>
</g>
</svg>
