<?xml version="1.0" encoding="UTF-8" standalone="no"?>
<!DOCTYPE svg PUBLIC "-//W3C//DTD SVG 1.1//EN"
 "http://www.w3.org/Graphics/SVG/1.1/DTD/svg11.dtd">
<!-- Generated by graphviz version 2.47.0 (20210316.0004)
 -->
<!-- Title: G Pages: 1 -->
<svg width="642pt" height="1029pt"
 viewBox="0.00 0.00 642.42 1029.33" xmlns="http://www.w3.org/2000/svg" xmlns:xlink="http://www.w3.org/1999/xlink">
<g id="graph0" class="graph" transform="scale(1 1) rotate(0) translate(4 1025.33)">
<title>G</title>
<polygon fill="white" stroke="transparent" points="-4,4 -4,-1025.33 638.42,-1025.33 638.42,4 -4,4"/>
<!-- BB0 -->
<g id="node1" class="node">
<title>BB0</title>
<ellipse fill="none" stroke="black" cx="290.19" cy="-973.25" rx="103.48" ry="48.17"/>
<text text-anchor="middle" x="290.19" y="-992.05" font-family="Times New Roman,serif" font-size="14.00">[0..69)</text>
<text text-anchor="middle" x="290.19" y="-977.05" font-family="Times New Roman,serif" font-size="14.00">Count: 2</text>
<text text-anchor="middle" x="290.19" y="-962.05" font-family="Times New Roman,serif" font-size="14.00">Normalized count: 1.00</text>
<text text-anchor="middle" x="290.19" y="-947.05" font-family="Times New Roman,serif" font-size="14.00">Samples weight: 0.00</text>
</g>
<!-- BB10 -->
<g id="node11" class="node">
<title>BB10</title>
<ellipse fill="none" stroke="black" cx="290.19" cy="-841.08" rx="108.38" ry="48.17"/>
<text text-anchor="middle" x="290.19" y="-859.88" font-family="Times New Roman,serif" font-size="14.00">[11a..126)</text>
<text text-anchor="middle" x="290.19" y="-844.88" font-family="Times New Roman,serif" font-size="14.00">Count: 78</text>
<text text-anchor="middle" x="290.19" y="-829.88" font-family="Times New Roman,serif" font-size="14.00">Normalized count: 39.00</text>
<text text-anchor="middle" x="290.19" y="-814.88" font-family="Times New Roman,serif" font-size="14.00">Samples weight: 0.16</text>
</g>
<!-- BB0&#45;&gt;BB10 -->
<g id="edge1" class="edge">
<title>BB0&#45;&gt;BB10</title>
<path fill="none" stroke="black" d="M290.19,-924.89C290.19,-916.62 290.19,-907.94 290.19,-899.43"/>
<polygon fill="black" stroke="black" points="293.69,-899.19 290.19,-889.19 286.69,-899.19 293.69,-899.19"/>
</g>
<!-- BB1 -->
<g id="node2" class="node">
<title>BB1</title>
<ellipse fill="none" stroke="black" cx="290.19" cy="-708.92" rx="108.38" ry="48.17"/>
<text text-anchor="middle" x="290.19" y="-727.72" font-family="Times New Roman,serif" font-size="14.00">[69..a1)</text>
<text text-anchor="middle" x="290.19" y="-712.72" font-family="Times New Roman,serif" font-size="14.00">Count: 76</text>
<text text-anchor="middle" x="290.19" y="-697.72" font-family="Times New Roman,serif" font-size="14.00">Normalized count: 38.00</text>
<text text-anchor="middle" x="290.19" y="-682.72" font-family="Times New Roman,serif" font-size="14.00">Samples weight: 0.16</text>
</g>
<!-- BB3 -->
<g id="node4" class="node">
<title>BB3</title>
<ellipse fill="none" stroke="black" cx="416.19" cy="-576.75" rx="108.38" ry="48.17"/>
<text text-anchor="middle" x="416.19" y="-595.55" font-family="Times New Roman,serif" font-size="14.00">[b4..b8)</text>
<text text-anchor="middle" x="416.19" y="-580.55" font-family="Times New Roman,serif" font-size="14.00">Count: 79</text>
<text text-anchor="middle" x="416.19" y="-565.55" font-family="Times New Roman,serif" font-size="14.00">Normalized count: 39.50</text>
<text text-anchor="middle" x="416.19" y="-550.55" font-family="Times New Roman,serif" font-size="14.00">Samples weight: 0.16</text>
</g>
<!-- BB1&#45;&gt;BB3 -->
<g id="edge2" class="edge">
<title>BB1&#45;&gt;BB3</title>
<path fill="none" stroke="black" d="M332.14,-664.57C343.29,-653.06 355.43,-640.52 366.92,-628.64"/>
<polygon fill="black" stroke="black" points="369.54,-630.97 373.98,-621.35 364.51,-626.1 369.54,-630.97"/>
</g>
<!-- BB2 -->
<g id="node3" class="node">
<title>BB2</title>
<ellipse fill="none" stroke="black" cx="531.19" cy="-444.58" rx="103.48" ry="48.17"/>
<text text-anchor="middle" x="531.19" y="-463.38" font-family="Times New Roman,serif" font-size="14.00">[a1..b4)</text>
<text text-anchor="middle" x="531.19" y="-448.38" font-family="Times New Roman,serif" font-size="14.00">Count: 3</text>
<text text-anchor="middle" x="531.19" y="-433.38" font-family="Times New Roman,serif" font-size="14.00">Normalized count: 1.50</text>
<text text-anchor="middle" x="531.19" y="-418.38" font-family="Times New Roman,serif" font-size="14.00">Samples weight: 0.01</text>
</g>
<!-- BB2&#45;&gt;BB3 -->
<g id="edge3" class="edge">
<title>BB2&#45;&gt;BB3</title>
<path fill="none" stroke="black" d="M498.12,-490.3C488.51,-501.58 477.8,-513.76 467.36,-525.3"/>
<polygon fill="black" stroke="black" points="464.7,-523.02 460.55,-532.77 469.87,-527.73 464.7,-523.02"/>
</g>
<!-- BB3&#45;&gt;BB2 -->
<g id="edge4" class="edge">
<title>BB3&#45;&gt;BB2</title>
<path fill="none" stroke="black" d="M449.31,-530.95C458.99,-519.61 469.77,-507.36 480.26,-495.77"/>
<polygon fill="black" stroke="black" points="482.95,-498.01 487.1,-488.27 477.77,-493.3 482.95,-498.01"/>
</g>
<!-- BB4 -->
<g id="node5" class="node">
<title>BB4</title>
<ellipse fill="none" stroke="black" cx="302.19" cy="-444.58" rx="108.38" ry="48.17"/>
<text text-anchor="middle" x="302.19" y="-463.38" font-family="Times New Roman,serif" font-size="14.00">[b8..d9)</text>
<text text-anchor="middle" x="302.19" y="-448.38" font-family="Times New Roman,serif" font-size="14.00">Count: 76</text>
<text text-anchor="middle" x="302.19" y="-433.38" font-family="Times New Roman,serif" font-size="14.00">Normalized count: 38.00</text>
<text text-anchor="middle" x="302.19" y="-418.38" font-family="Times New Roman,serif" font-size="14.00">Samples weight: 0.16</text>
</g>
<!-- BB3&#45;&gt;BB4 -->
<g id="edge5" class="edge">
<title>BB3&#45;&gt;BB4</title>
<path fill="none" stroke="black" d="M377.59,-531.68C367.94,-520.65 357.49,-508.73 347.54,-497.36"/>
<polygon fill="black" stroke="black" points="349.96,-494.82 340.74,-489.61 344.7,-499.43 349.96,-494.82"/>
</g>
<!-- BB8 -->
<g id="node9" class="node">
<title>BB8</title>
<ellipse fill="none" stroke="black" cx="313.19" cy="-312.42" rx="108.38" ry="48.17"/>
<text text-anchor="middle" x="313.19" y="-331.22" font-family="Times New Roman,serif" font-size="14.00">[f4..fd)</text>
<text text-anchor="middle" x="313.19" y="-316.22" font-family="Times New Roman,serif" font-size="14.00">Count: 83</text>
<text text-anchor="middle" x="313.19" y="-301.22" font-family="Times New Roman,serif" font-size="14.00">Normalized count: 41.50</text>
<text text-anchor="middle" x="313.19" y="-286.22" font-family="Times New Roman,serif" font-size="14.00">Samples weight: 0.17</text>
</g>
<!-- BB4&#45;&gt;BB8 -->
<g id="edge6" class="edge">
<title>BB4&#45;&gt;BB8</title>
<path fill="none" stroke="black" d="M306.19,-396.22C306.89,-387.95 307.62,-379.27 308.34,-370.77"/>
<polygon fill="black" stroke="black" points="311.85,-370.78 309.21,-360.52 304.88,-370.19 311.85,-370.78"/>
</g>
<!-- BB5 -->
<g id="node6" class="node">
<title>BB5</title>
<ellipse fill="none" stroke="black" cx="337.19" cy="-180.25" rx="103.48" ry="48.17"/>
<text text-anchor="middle" x="337.19" y="-199.05" font-family="Times New Roman,serif" font-size="14.00">[d9..e5)</text>
<text text-anchor="middle" x="337.19" y="-184.05" font-family="Times New Roman,serif" font-size="14.00">Count: 7</text>
<text text-anchor="middle" x="337.19" y="-169.05" font-family="Times New Roman,serif" font-size="14.00">Normalized count: 3.50</text>
<text text-anchor="middle" x="337.19" y="-154.05" font-family="Times New Roman,serif" font-size="14.00">Samples weight: 0.01</text>
</g>
<!-- BB6 -->
<g id="node7" class="node">
<title>BB6</title>
<ellipse fill="none" stroke="black" cx="244.19" cy="-48.08" rx="103.48" ry="48.17"/>
<text text-anchor="middle" x="244.19" y="-66.88" font-family="Times New Roman,serif" font-size="14.00">[e5..ed)</text>
<text text-anchor="middle" x="244.19" y="-51.88" font-family="Times New Roman,serif" font-size="14.00">Count: 0</text>
<text text-anchor="middle" x="244.19" y="-36.88" font-family="Times New Roman,serif" font-size="14.00">Normalized count: 0.00</text>
<text text-anchor="middle" x="244.19" y="-21.88" font-family="Times New Roman,serif" font-size="14.00">Samples weight: 0.00</text>
</g>
<!-- BB5&#45;&gt;BB6 -->
<g id="edge8" class="edge">
<title>BB5&#45;&gt;BB6</title>
<path fill="none" stroke="black" d="M305.18,-134.45C297.8,-124.12 289.88,-113.04 282.27,-102.39"/>
<polygon fill="black" stroke="black" points="284.91,-100.06 276.25,-93.96 279.22,-104.13 284.91,-100.06"/>
</g>
<!-- BB7 -->
<g id="node8" class="node">
<title>BB7</title>
<ellipse fill="none" stroke="black" cx="468.19" cy="-48.08" rx="103.48" ry="48.17"/>
<text text-anchor="middle" x="468.19" y="-66.88" font-family="Times New Roman,serif" font-size="14.00">[ed..f4)</text>
<text text-anchor="middle" x="468.19" y="-51.88" font-family="Times New Roman,serif" font-size="14.00">Count: 7</text>
<text text-anchor="middle" x="468.19" y="-36.88" font-family="Times New Roman,serif" font-size="14.00">Normalized count: 3.50</text>
<text text-anchor="middle" x="468.19" y="-21.88" font-family="Times New Roman,serif" font-size="14.00">Samples weight: 0.01</text>
</g>
<!-- BB5&#45;&gt;BB7 -->
<g id="edge7" class="edge">
<title>BB5&#45;&gt;BB7</title>
<path fill="none" stroke="black" d="M380.44,-136.27C392.41,-124.38 405.49,-111.38 417.82,-99.13"/>
<polygon fill="black" stroke="black" points="420.35,-101.55 424.98,-92.02 415.41,-96.59 420.35,-101.55"/>
</g>
<!-- BB6&#45;&gt;BB7 -->
<g id="edge9" class="edge">
<title>BB6&#45;&gt;BB7</title>
<path fill="none" stroke="black" d="M347.44,-48.08C349.89,-48.08 352.35,-48.08 354.8,-48.08"/>
<polygon fill="black" stroke="black" points="354.89,-51.58 364.89,-48.08 354.89,-44.58 354.89,-51.58"/>
</g>
<!-- BB7&#45;&gt;BB8 -->
<g id="edge10" class="edge">
<title>BB7&#45;&gt;BB8</title>
<path fill="none" stroke="black" d="M474.07,-96.2C476.46,-134.67 474.11,-188.93 449.19,-228.33 437.39,-246.99 419.73,-262.09 401.02,-274.03"/>
<polygon fill="black" stroke="black" points="399.09,-271.11 392.36,-279.3 402.73,-277.09 399.09,-271.11"/>
</g>
<!-- BB8&#45;&gt;BB5 -->
<g id="edge11" class="edge">
<title>BB8&#45;&gt;BB5</title>
<path fill="none" stroke="black" d="M321.85,-264.42C323.42,-255.94 325.06,-247.02 326.67,-238.29"/>
<polygon fill="black" stroke="black" points="330.16,-238.64 328.54,-228.17 323.28,-237.37 330.16,-238.64"/>
</g>
<!-- BB9 -->
<g id="node10" class="node">
<title>BB9</title>
<ellipse fill="none" stroke="black" cx="108.19" cy="-180.25" rx="108.38" ry="48.17"/>
<text text-anchor="middle" x="108.19" y="-199.05" font-family="Times New Roman,serif" font-size="14.00">[fd..11a)</text>
<text text-anchor="middle" x="108.19" y="-184.05" font-family="Times New Roman,serif" font-size="14.00">Count: 76</text>
<text text-anchor="middle" x="108.19" y="-169.05" font-family="Times New Roman,serif" font-size="14.00">Normalized count: 38.00</text>
<text text-anchor="middle" x="108.19" y="-154.05" font-family="Times New Roman,serif" font-size="14.00">Samples weight: 0.16</text>
</g>
<!-- BB8&#45;&gt;BB9 -->
<g id="edge12" class="edge">
<title>BB8&#45;&gt;BB9</title>
<path fill="none" stroke="black" d="M251.96,-272.54C228.74,-257.79 202.12,-240.89 178.15,-225.68"/>
<polygon fill="black" stroke="black" points="179.77,-222.56 169.45,-220.15 176.02,-228.47 179.77,-222.56"/>
</g>
<!-- BB9&#45;&gt;BB10 -->
<g id="edge13" class="edge">
<title>BB9&#45;&gt;BB10</title>
<path fill="none" stroke="black" d="M121.49,-228.21C135.08,-280.36 154.19,-367.29 154.19,-443.58 154.19,-577.75 154.19,-577.75 154.19,-577.75 154.19,-657.86 132.73,-687.86 173.19,-757 182.58,-773.05 196.45,-786.81 211.39,-798.25"/>
<polygon fill="black" stroke="black" points="209.63,-801.3 219.77,-804.36 213.75,-795.64 209.63,-801.3"/>
</g>
<!-- BB10&#45;&gt;BB1 -->
<g id="edge14" class="edge">
<title>BB10&#45;&gt;BB1</title>
<path fill="none" stroke="black" d="M290.19,-792.72C290.19,-784.45 290.19,-775.77 290.19,-767.27"/>
<polygon fill="black" stroke="black" points="293.69,-767.02 290.19,-757.02 286.69,-767.02 293.69,-767.02"/>
</g>
<!-- BB11 -->
<g id="node12" class="node">
<title>BB11</title>
<ellipse fill="none" stroke="black" cx="519.19" cy="-708.92" rx="103.48" ry="48.17"/>
<text text-anchor="middle" x="519.19" y="-727.72" font-family="Times New Roman,serif" font-size="14.00">[126..127)</text>
<text text-anchor="middle" x="519.19" y="-712.72" font-family="Times New Roman,serif" font-size="14.00">Count: 2</text>
<text text-anchor="middle" x="519.19" y="-697.72" font-family="Times New Roman,serif" font-size="14.00">Normalized count: 1.00</text>
<text text-anchor="middle" x="519.19" y="-682.72" font-family="Times New Roman,serif" font-size="14.00">Samples weight: 0.00</text>
</g>
<!-- BB10&#45;&gt;BB11 -->
<g id="edge15" class="edge">
<title>BB10&#45;&gt;BB11</title>
<path fill="none" stroke="black" d="M355.81,-802.78C383.96,-786.78 416.96,-768.03 445.9,-751.57"/>
<polygon fill="black" stroke="black" points="447.78,-754.53 454.74,-746.55 444.32,-748.45 447.78,-754.53"/>
</g>
</g>
</svg>
