<?xml version="1.0" encoding="UTF-8" standalone="no"?>
<!DOCTYPE svg PUBLIC "-//W3C//DTD SVG 1.1//EN"
 "http://www.w3.org/Graphics/SVG/1.1/DTD/svg11.dtd">
<!-- Generated by graphviz version 2.47.0 (20210316.0004)
 -->
<!-- Title: G Pages: 1 -->
<svg width="624pt" height="1294pt"
 viewBox="0.00 0.00 623.69 1293.67" xmlns="http://www.w3.org/2000/svg" xmlns:xlink="http://www.w3.org/1999/xlink">
<g id="graph0" class="graph" transform="scale(1 1) rotate(0) translate(4 1289.67)">
<title>G</title>
<polygon fill="white" stroke="transparent" points="-4,4 -4,-1289.67 619.69,-1289.67 619.69,4 -4,4"/>
<!-- BB0 -->
<g id="node1" class="node">
<title>BB0</title>
<ellipse fill="none" stroke="black" cx="255.84" cy="-1237.58" rx="104.8" ry="48.17"/>
<text text-anchor="middle" x="255.84" y="-1256.38" font-family="Times New Roman,serif" font-size="14.00">[0..31)</text>
<text text-anchor="middle" x="255.84" y="-1241.38" font-family="Times New Roman,serif" font-size="14.00">Count: 0</text>
<text text-anchor="middle" x="255.84" y="-1226.38" font-family="Times New Roman,serif" font-size="14.00">Normalized count: NaN</text>
<text text-anchor="middle" x="255.84" y="-1211.38" font-family="Times New Roman,serif" font-size="14.00">Samples weight: 0.00</text>
</g>
<!-- BB13 -->
<g id="node14" class="node">
<title>BB13</title>
<ellipse fill="none" stroke="black" cx="255.84" cy="-1105.42" rx="113.69" ry="48.17"/>
<text text-anchor="middle" x="255.84" y="-1124.22" font-family="Times New Roman,serif" font-size="14.00">[162..16b)</text>
<text text-anchor="middle" x="255.84" y="-1109.22" font-family="Times New Roman,serif" font-size="14.00">Count: 1</text>
<text text-anchor="middle" x="255.84" y="-1094.22" font-family="Times New Roman,serif" font-size="14.00">Normalized count: Infinity</text>
<text text-anchor="middle" x="255.84" y="-1079.22" font-family="Times New Roman,serif" font-size="14.00">Samples weight: 0.02</text>
</g>
<!-- BB0&#45;&gt;BB13 -->
<g id="edge1" class="edge">
<title>BB0&#45;&gt;BB13</title>
<path fill="none" stroke="black" d="M255.84,-1189.22C255.84,-1180.95 255.84,-1172.27 255.84,-1163.77"/>
<polygon fill="black" stroke="black" points="259.34,-1163.52 255.84,-1153.52 252.34,-1163.52 259.34,-1163.52"/>
</g>
<!-- BB1 -->
<g id="node2" class="node">
<title>BB1</title>
<ellipse fill="none" stroke="black" cx="255.84" cy="-973.25" rx="113.69" ry="48.17"/>
<text text-anchor="middle" x="255.84" y="-992.05" font-family="Times New Roman,serif" font-size="14.00">[31..6a)</text>
<text text-anchor="middle" x="255.84" y="-977.05" font-family="Times New Roman,serif" font-size="14.00">Count: 21</text>
<text text-anchor="middle" x="255.84" y="-962.05" font-family="Times New Roman,serif" font-size="14.00">Normalized count: Infinity</text>
<text text-anchor="middle" x="255.84" y="-947.05" font-family="Times New Roman,serif" font-size="14.00">Samples weight: 0.38</text>
</g>
<!-- BB2 -->
<g id="node3" class="node">
<title>BB2</title>
<ellipse fill="none" stroke="black" cx="255.84" cy="-841.08" rx="113.69" ry="48.17"/>
<text text-anchor="middle" x="255.84" y="-859.88" font-family="Times New Roman,serif" font-size="14.00">[6a..7c)</text>
<text text-anchor="middle" x="255.84" y="-844.88" font-family="Times New Roman,serif" font-size="14.00">Count: 1</text>
<text text-anchor="middle" x="255.84" y="-829.88" font-family="Times New Roman,serif" font-size="14.00">Normalized count: Infinity</text>
<text text-anchor="middle" x="255.84" y="-814.88" font-family="Times New Roman,serif" font-size="14.00">Samples weight: 0.02</text>
</g>
<!-- BB1&#45;&gt;BB2 -->
<g id="edge3" class="edge">
<title>BB1&#45;&gt;BB2</title>
<path fill="none" stroke="black" d="M255.84,-924.89C255.84,-916.62 255.84,-907.94 255.84,-899.43"/>
<polygon fill="black" stroke="black" points="259.34,-899.19 255.84,-889.19 252.34,-899.19 259.34,-899.19"/>
</g>
<!-- BB3 -->
<g id="node4" class="node">
<title>BB3</title>
<ellipse fill="none" stroke="black" cx="491.84" cy="-841.08" rx="104.8" ry="48.17"/>
<text text-anchor="middle" x="491.84" y="-859.88" font-family="Times New Roman,serif" font-size="14.00">[7c..7d)</text>
<text text-anchor="middle" x="491.84" y="-844.88" font-family="Times New Roman,serif" font-size="14.00">Count: 0</text>
<text text-anchor="middle" x="491.84" y="-829.88" font-family="Times New Roman,serif" font-size="14.00">Normalized count: NaN</text>
<text text-anchor="middle" x="491.84" y="-814.88" font-family="Times New Roman,serif" font-size="14.00">Samples weight: 0.00</text>
</g>
<!-- BB1&#45;&gt;BB3 -->
<g id="edge2" class="edge">
<title>BB1&#45;&gt;BB3</title>
<path fill="none" stroke="black" d="M324.11,-934.6C353.1,-918.61 386.99,-899.91 416.7,-883.53"/>
<polygon fill="black" stroke="black" points="418.7,-886.42 425.77,-878.53 415.32,-880.29 418.7,-886.42"/>
</g>
<!-- BB4 -->
<g id="node5" class="node">
<title>BB4</title>
<ellipse fill="none" stroke="black" cx="307.84" cy="-708.92" rx="104.8" ry="48.17"/>
<text text-anchor="middle" x="307.84" y="-727.72" font-family="Times New Roman,serif" font-size="14.00">[7d..82)</text>
<text text-anchor="middle" x="307.84" y="-712.72" font-family="Times New Roman,serif" font-size="14.00">Count: 0</text>
<text text-anchor="middle" x="307.84" y="-697.72" font-family="Times New Roman,serif" font-size="14.00">Normalized count: NaN</text>
<text text-anchor="middle" x="307.84" y="-682.72" font-family="Times New Roman,serif" font-size="14.00">Samples weight: 0.00</text>
</g>
<!-- BB2&#45;&gt;BB4 -->
<g id="edge4" class="edge">
<title>BB2&#45;&gt;BB4</title>
<path fill="none" stroke="black" d="M274.47,-793.46C278.02,-784.58 281.76,-775.2 285.42,-766.06"/>
<polygon fill="black" stroke="black" points="288.71,-767.24 289.17,-756.65 282.21,-764.64 288.71,-767.24"/>
</g>
<!-- BB3&#45;&gt;BB4 -->
<g id="edge5" class="edge">
<title>BB3&#45;&gt;BB4</title>
<path fill="none" stroke="black" d="M435.64,-800.32C415.67,-786.19 393.03,-770.18 372.42,-755.6"/>
<polygon fill="black" stroke="black" points="374.21,-752.58 364.02,-749.66 370.17,-758.29 374.21,-752.58"/>
</g>
<!-- BB5 -->
<g id="node6" class="node">
<title>BB5</title>
<ellipse fill="none" stroke="black" cx="359.84" cy="-576.75" rx="113.69" ry="48.17"/>
<text text-anchor="middle" x="359.84" y="-595.55" font-family="Times New Roman,serif" font-size="14.00">[82..95)</text>
<text text-anchor="middle" x="359.84" y="-580.55" font-family="Times New Roman,serif" font-size="14.00">Count: 9</text>
<text text-anchor="middle" x="359.84" y="-565.55" font-family="Times New Roman,serif" font-size="14.00">Normalized count: Infinity</text>
<text text-anchor="middle" x="359.84" y="-550.55" font-family="Times New Roman,serif" font-size="14.00">Samples weight: 0.16</text>
</g>
<!-- BB4&#45;&gt;BB5 -->
<g id="edge7" class="edge">
<title>BB4&#45;&gt;BB5</title>
<path fill="none" stroke="black" d="M326.47,-661.29C330.02,-652.41 333.76,-643.03 337.42,-633.89"/>
<polygon fill="black" stroke="black" points="340.71,-635.07 341.17,-624.49 334.21,-632.47 340.71,-635.07"/>
</g>
<!-- BB12 -->
<g id="node13" class="node">
<title>BB12</title>
<ellipse fill="none" stroke="black" cx="113.84" cy="-576.75" rx="113.69" ry="48.17"/>
<text text-anchor="middle" x="113.84" y="-595.55" font-family="Times New Roman,serif" font-size="14.00">[15e..162)</text>
<text text-anchor="middle" x="113.84" y="-580.55" font-family="Times New Roman,serif" font-size="14.00">Count: 2</text>
<text text-anchor="middle" x="113.84" y="-565.55" font-family="Times New Roman,serif" font-size="14.00">Normalized count: Infinity</text>
<text text-anchor="middle" x="113.84" y="-550.55" font-family="Times New Roman,serif" font-size="14.00">Samples weight: 0.04</text>
</g>
<!-- BB4&#45;&gt;BB12 -->
<g id="edge6" class="edge">
<title>BB4&#45;&gt;BB12</title>
<path fill="none" stroke="black" d="M249.64,-668.86C228.36,-654.59 204.1,-638.31 182.03,-623.5"/>
<polygon fill="black" stroke="black" points="183.94,-620.57 173.69,-617.9 180.04,-626.38 183.94,-620.57"/>
</g>
<!-- BB6 -->
<g id="node7" class="node">
<title>BB6</title>
<ellipse fill="none" stroke="black" cx="255.84" cy="-444.58" rx="113.69" ry="48.17"/>
<text text-anchor="middle" x="255.84" y="-463.38" font-family="Times New Roman,serif" font-size="14.00">[95..b7)</text>
<text text-anchor="middle" x="255.84" y="-448.38" font-family="Times New Roman,serif" font-size="14.00">Count: 1</text>
<text text-anchor="middle" x="255.84" y="-433.38" font-family="Times New Roman,serif" font-size="14.00">Normalized count: Infinity</text>
<text text-anchor="middle" x="255.84" y="-418.38" font-family="Times New Roman,serif" font-size="14.00">Samples weight: 0.02</text>
</g>
<!-- BB5&#45;&gt;BB6 -->
<g id="edge9" class="edge">
<title>BB5&#45;&gt;BB6</title>
<path fill="none" stroke="black" d="M324.05,-530.95C315.72,-520.52 306.77,-509.32 298.18,-498.57"/>
<polygon fill="black" stroke="black" points="300.68,-496.09 291.7,-490.46 295.21,-500.46 300.68,-496.09"/>
</g>
<!-- BB7 -->
<g id="node8" class="node">
<title>BB7</title>
<ellipse fill="none" stroke="black" cx="501.84" cy="-444.58" rx="113.69" ry="48.17"/>
<text text-anchor="middle" x="501.84" y="-463.38" font-family="Times New Roman,serif" font-size="14.00">[b7..c5)</text>
<text text-anchor="middle" x="501.84" y="-448.38" font-family="Times New Roman,serif" font-size="14.00">Count: 4</text>
<text text-anchor="middle" x="501.84" y="-433.38" font-family="Times New Roman,serif" font-size="14.00">Normalized count: Infinity</text>
<text text-anchor="middle" x="501.84" y="-418.38" font-family="Times New Roman,serif" font-size="14.00">Samples weight: 0.07</text>
</g>
<!-- BB5&#45;&gt;BB7 -->
<g id="edge8" class="edge">
<title>BB5&#45;&gt;BB7</title>
<path fill="none" stroke="black" d="M406.73,-532.77C419.82,-520.77 434.15,-507.64 447.62,-495.29"/>
<polygon fill="black" stroke="black" points="450,-497.86 455,-488.52 445.27,-492.7 450,-497.86"/>
</g>
<!-- BB8 -->
<g id="node9" class="node">
<title>BB8</title>
<ellipse fill="none" stroke="black" cx="378.84" cy="-312.42" rx="113.69" ry="48.17"/>
<text text-anchor="middle" x="378.84" y="-331.22" font-family="Times New Roman,serif" font-size="14.00">[c5..e0)</text>
<text text-anchor="middle" x="378.84" y="-316.22" font-family="Times New Roman,serif" font-size="14.00">Count: 5</text>
<text text-anchor="middle" x="378.84" y="-301.22" font-family="Times New Roman,serif" font-size="14.00">Normalized count: Infinity</text>
<text text-anchor="middle" x="378.84" y="-286.22" font-family="Times New Roman,serif" font-size="14.00">Samples weight: 0.09</text>
</g>
<!-- BB6&#45;&gt;BB8 -->
<g id="edge10" class="edge">
<title>BB6&#45;&gt;BB8</title>
<path fill="none" stroke="black" d="M297.49,-399.51C308.01,-388.38 319.39,-376.33 330.22,-364.87"/>
<polygon fill="black" stroke="black" points="332.92,-367.11 337.24,-357.44 327.83,-362.3 332.92,-367.11"/>
</g>
<!-- BB7&#45;&gt;BB8 -->
<g id="edge11" class="edge">
<title>BB7&#45;&gt;BB8</title>
<path fill="none" stroke="black" d="M460.2,-399.51C449.68,-388.38 438.29,-376.33 427.46,-364.87"/>
<polygon fill="black" stroke="black" points="429.86,-362.3 420.44,-357.44 424.77,-367.11 429.86,-362.3"/>
</g>
<!-- BB9 -->
<g id="node10" class="node">
<title>BB9</title>
<ellipse fill="none" stroke="black" cx="255.84" cy="-180.25" rx="113.69" ry="48.17"/>
<text text-anchor="middle" x="255.84" y="-199.05" font-family="Times New Roman,serif" font-size="14.00">[e0..102)</text>
<text text-anchor="middle" x="255.84" y="-184.05" font-family="Times New Roman,serif" font-size="14.00">Count: 1</text>
<text text-anchor="middle" x="255.84" y="-169.05" font-family="Times New Roman,serif" font-size="14.00">Normalized count: Infinity</text>
<text text-anchor="middle" x="255.84" y="-154.05" font-family="Times New Roman,serif" font-size="14.00">Samples weight: 0.02</text>
</g>
<!-- BB8&#45;&gt;BB9 -->
<g id="edge13" class="edge">
<title>BB8&#45;&gt;BB9</title>
<path fill="none" stroke="black" d="M337.2,-267.35C326.68,-256.22 315.29,-244.16 304.46,-232.7"/>
<polygon fill="black" stroke="black" points="306.86,-230.14 297.44,-225.27 301.77,-234.95 306.86,-230.14"/>
</g>
<!-- BB10 -->
<g id="node11" class="node">
<title>BB10</title>
<ellipse fill="none" stroke="black" cx="501.84" cy="-180.25" rx="113.69" ry="48.17"/>
<text text-anchor="middle" x="501.84" y="-199.05" font-family="Times New Roman,serif" font-size="14.00">[102..120)</text>
<text text-anchor="middle" x="501.84" y="-184.05" font-family="Times New Roman,serif" font-size="14.00">Count: 1</text>
<text text-anchor="middle" x="501.84" y="-169.05" font-family="Times New Roman,serif" font-size="14.00">Normalized count: Infinity</text>
<text text-anchor="middle" x="501.84" y="-154.05" font-family="Times New Roman,serif" font-size="14.00">Samples weight: 0.02</text>
</g>
<!-- BB8&#45;&gt;BB10 -->
<g id="edge12" class="edge">
<title>BB8&#45;&gt;BB10</title>
<path fill="none" stroke="black" d="M420.49,-267.35C431.01,-256.22 442.39,-244.16 453.22,-232.7"/>
<polygon fill="black" stroke="black" points="455.92,-234.95 460.24,-225.27 450.83,-230.14 455.92,-234.95"/>
</g>
<!-- BB11 -->
<g id="node12" class="node">
<title>BB11</title>
<ellipse fill="none" stroke="black" cx="255.84" cy="-48.08" rx="113.69" ry="48.17"/>
<text text-anchor="middle" x="255.84" y="-66.88" font-family="Times New Roman,serif" font-size="14.00">[120..15e)</text>
<text text-anchor="middle" x="255.84" y="-51.88" font-family="Times New Roman,serif" font-size="14.00">Count: 8</text>
<text text-anchor="middle" x="255.84" y="-36.88" font-family="Times New Roman,serif" font-size="14.00">Normalized count: Infinity</text>
<text text-anchor="middle" x="255.84" y="-21.88" font-family="Times New Roman,serif" font-size="14.00">Samples weight: 0.15</text>
</g>
<!-- BB9&#45;&gt;BB11 -->
<g id="edge14" class="edge">
<title>BB9&#45;&gt;BB11</title>
<path fill="none" stroke="black" d="M255.84,-131.89C255.84,-123.62 255.84,-114.94 255.84,-106.43"/>
<polygon fill="black" stroke="black" points="259.34,-106.19 255.84,-96.19 252.34,-106.19 259.34,-106.19"/>
</g>
<!-- BB10&#45;&gt;BB11 -->
<g id="edge15" class="edge">
<title>BB10&#45;&gt;BB11</title>
<path fill="none" stroke="black" d="M431.68,-142.12C401.56,-126.19 366.23,-107.49 335.17,-91.06"/>
<polygon fill="black" stroke="black" points="336.58,-87.84 326.1,-86.26 333.3,-94.03 336.58,-87.84"/>
</g>
<!-- BB11&#45;&gt;BB12 -->
<g id="edge16" class="edge">
<title>BB11&#45;&gt;BB12</title>
<path fill="none" stroke="black" d="M180.11,-84.32C161.49,-96.73 143.78,-112.6 132.84,-132.17 63.85,-255.58 83.97,-429.88 100.93,-518.77"/>
<polygon fill="black" stroke="black" points="97.51,-519.53 102.87,-528.66 104.38,-518.18 97.51,-519.53"/>
</g>
<!-- BB12&#45;&gt;BB13 -->
<g id="edge17" class="edge">
<title>BB12&#45;&gt;BB13</title>
<path fill="none" stroke="black" d="M102.87,-624.83C85.66,-710.11 61.19,-893.16 132.84,-1021.33 142.16,-1038 156.39,-1051.97 171.9,-1063.42"/>
<polygon fill="black" stroke="black" points="169.91,-1066.31 180.11,-1069.18 173.93,-1060.57 169.91,-1066.31"/>
</g>
<!-- BB13&#45;&gt;BB1 -->
<g id="edge18" class="edge">
<title>BB13&#45;&gt;BB1</title>
<path fill="none" stroke="black" d="M255.84,-1057.05C255.84,-1048.79 255.84,-1040.1 255.84,-1031.6"/>
<polygon fill="black" stroke="black" points="259.34,-1031.36 255.84,-1021.36 252.34,-1031.36 259.34,-1031.36"/>
</g>
<!-- BB14 -->
<g id="node15" class="node">
<title>BB14</title>
<ellipse fill="none" stroke="black" cx="501.84" cy="-973.25" rx="113.69" ry="48.17"/>
<text text-anchor="middle" x="501.84" y="-992.05" font-family="Times New Roman,serif" font-size="14.00">[16b..16d)</text>
<text text-anchor="middle" x="501.84" y="-977.05" font-family="Times New Roman,serif" font-size="14.00">Count: 1</text>
<text text-anchor="middle" x="501.84" y="-962.05" font-family="Times New Roman,serif" font-size="14.00">Normalized count: Infinity</text>
<text text-anchor="middle" x="501.84" y="-947.05" font-family="Times New Roman,serif" font-size="14.00">Samples weight: 0.02</text>
</g>
<!-- BB13&#45;&gt;BB14 -->
<g id="edge19" class="edge">
<title>BB13&#45;&gt;BB14</title>
<path fill="none" stroke="black" d="M326.01,-1067.29C356.12,-1051.35 391.46,-1032.66 422.52,-1016.22"/>
<polygon fill="black" stroke="black" points="424.38,-1019.2 431.59,-1011.42 421.11,-1013.01 424.38,-1019.2"/>
</g>
</g>
</svg>
