<?xml version="1.0" encoding="UTF-8" standalone="no"?>
<!DOCTYPE svg PUBLIC "-//W3C//DTD SVG 1.1//EN"
 "http://www.w3.org/Graphics/SVG/1.1/DTD/svg11.dtd">
<!-- Generated by graphviz version 2.47.0 (20210316.0004)
 -->
<!-- Title: G Pages: 1 -->
<svg width="813pt" height="1558pt"
 viewBox="0.00 0.00 813.42 1558.00" xmlns="http://www.w3.org/2000/svg" xmlns:xlink="http://www.w3.org/1999/xlink">
<g id="graph0" class="graph" transform="scale(1 1) rotate(0) translate(4 1554)">
<title>G</title>
<polygon fill="white" stroke="transparent" points="-4,4 -4,-1554 809.42,-1554 809.42,4 -4,4"/>
<!-- BB0 -->
<g id="node1" class="node">
<title>BB0</title>
<ellipse fill="none" stroke="black" cx="385.19" cy="-1501.92" rx="103.48" ry="48.17"/>
<text text-anchor="middle" x="385.19" y="-1520.72" font-family="Times New Roman,serif" font-size="14.00">[0..a)</text>
<text text-anchor="middle" x="385.19" y="-1505.72" font-family="Times New Roman,serif" font-size="14.00">Count: 138</text>
<text text-anchor="middle" x="385.19" y="-1490.72" font-family="Times New Roman,serif" font-size="14.00">Normalized count: 1.00</text>
<text text-anchor="middle" x="385.19" y="-1475.72" font-family="Times New Roman,serif" font-size="14.00">Samples weight: 0.01</text>
</g>
<!-- BB1 -->
<g id="node2" class="node">
<title>BB1</title>
<ellipse fill="none" stroke="black" cx="385.19" cy="-1369.75" rx="108.38" ry="48.17"/>
<text text-anchor="middle" x="385.19" y="-1388.55" font-family="Times New Roman,serif" font-size="14.00">[a..12)</text>
<text text-anchor="middle" x="385.19" y="-1373.55" font-family="Times New Roman,serif" font-size="14.00">Count: 1882</text>
<text text-anchor="middle" x="385.19" y="-1358.55" font-family="Times New Roman,serif" font-size="14.00">Normalized count: 13.64</text>
<text text-anchor="middle" x="385.19" y="-1343.55" font-family="Times New Roman,serif" font-size="14.00">Samples weight: 0.07</text>
</g>
<!-- BB0&#45;&gt;BB1 -->
<g id="edge1" class="edge">
<title>BB0&#45;&gt;BB1</title>
<path fill="none" stroke="black" d="M385.19,-1453.55C385.19,-1445.29 385.19,-1436.6 385.19,-1428.1"/>
<polygon fill="black" stroke="black" points="388.69,-1427.86 385.19,-1417.86 381.69,-1427.86 388.69,-1427.86"/>
</g>
<!-- BB3 -->
<g id="node4" class="node">
<title>BB3</title>
<ellipse fill="none" stroke="black" cx="200.19" cy="-1237.58" rx="108.38" ry="48.17"/>
<text text-anchor="middle" x="200.19" y="-1256.38" font-family="Times New Roman,serif" font-size="14.00">[16..1e)</text>
<text text-anchor="middle" x="200.19" y="-1241.38" font-family="Times New Roman,serif" font-size="14.00">Count: 3289</text>
<text text-anchor="middle" x="200.19" y="-1226.38" font-family="Times New Roman,serif" font-size="14.00">Normalized count: 23.83</text>
<text text-anchor="middle" x="200.19" y="-1211.38" font-family="Times New Roman,serif" font-size="14.00">Samples weight: 0.12</text>
</g>
<!-- BB1&#45;&gt;BB3 -->
<g id="edge2" class="edge">
<title>BB1&#45;&gt;BB3</title>
<path fill="none" stroke="black" d="M328.42,-1328.81C308.54,-1314.82 286.05,-1299 265.52,-1284.55"/>
<polygon fill="black" stroke="black" points="267.35,-1281.56 257.16,-1278.67 263.33,-1287.29 267.35,-1281.56"/>
</g>
<!-- BB2 -->
<g id="node3" class="node">
<title>BB2</title>
<ellipse fill="none" stroke="black" cx="108.19" cy="-1105.42" rx="108.38" ry="48.17"/>
<text text-anchor="middle" x="108.19" y="-1124.22" font-family="Times New Roman,serif" font-size="14.00">[12..16)</text>
<text text-anchor="middle" x="108.19" y="-1109.22" font-family="Times New Roman,serif" font-size="14.00">Count: 1407</text>
<text text-anchor="middle" x="108.19" y="-1094.22" font-family="Times New Roman,serif" font-size="14.00">Normalized count: 10.20</text>
<text text-anchor="middle" x="108.19" y="-1079.22" font-family="Times New Roman,serif" font-size="14.00">Samples weight: 0.05</text>
</g>
<!-- BB2&#45;&gt;BB3 -->
<g id="edge3" class="edge">
<title>BB2&#45;&gt;BB3</title>
<path fill="none" stroke="black" d="M145.83,-1150.58C153.36,-1160.78 161.19,-1171.74 168.5,-1182.32"/>
<polygon fill="black" stroke="black" points="165.7,-1184.42 174.23,-1190.69 171.47,-1180.46 165.7,-1184.42"/>
</g>
<!-- BB3&#45;&gt;BB2 -->
<g id="edge4" class="edge">
<title>BB3&#45;&gt;BB2</title>
<path fill="none" stroke="black" d="M162.35,-1192.15C154.88,-1182.04 147.14,-1171.18 139.9,-1160.71"/>
<polygon fill="black" stroke="black" points="142.76,-1158.69 134.22,-1152.42 136.98,-1162.65 142.76,-1158.69"/>
</g>
<!-- BB4 -->
<g id="node5" class="node">
<title>BB4</title>
<ellipse fill="none" stroke="black" cx="342.19" cy="-1105.42" rx="108.38" ry="48.17"/>
<text text-anchor="middle" x="342.19" y="-1124.22" font-family="Times New Roman,serif" font-size="14.00">[1e..2b)</text>
<text text-anchor="middle" x="342.19" y="-1109.22" font-family="Times New Roman,serif" font-size="14.00">Count: 1882</text>
<text text-anchor="middle" x="342.19" y="-1094.22" font-family="Times New Roman,serif" font-size="14.00">Normalized count: 13.64</text>
<text text-anchor="middle" x="342.19" y="-1079.22" font-family="Times New Roman,serif" font-size="14.00">Samples weight: 0.07</text>
</g>
<!-- BB3&#45;&gt;BB4 -->
<g id="edge5" class="edge">
<title>BB3&#45;&gt;BB4</title>
<path fill="none" stroke="black" d="M246.68,-1193.96C259.92,-1181.82 274.46,-1168.5 288.11,-1155.99"/>
<polygon fill="black" stroke="black" points="290.58,-1158.47 295.59,-1149.13 285.85,-1153.31 290.58,-1158.47"/>
</g>
<!-- BB5 -->
<g id="node6" class="node">
<title>BB5</title>
<ellipse fill="none" stroke="black" cx="249.19" cy="-973.25" rx="103.48" ry="48.17"/>
<text text-anchor="middle" x="249.19" y="-992.05" font-family="Times New Roman,serif" font-size="14.00">[2b..5f)</text>
<text text-anchor="middle" x="249.19" y="-977.05" font-family="Times New Roman,serif" font-size="14.00">Count: 944</text>
<text text-anchor="middle" x="249.19" y="-962.05" font-family="Times New Roman,serif" font-size="14.00">Normalized count: 6.84</text>
<text text-anchor="middle" x="249.19" y="-947.05" font-family="Times New Roman,serif" font-size="14.00">Samples weight: 0.03</text>
</g>
<!-- BB4&#45;&gt;BB5 -->
<g id="edge7" class="edge">
<title>BB4&#45;&gt;BB5</title>
<path fill="none" stroke="black" d="M309.92,-1059.25C302.64,-1049.06 294.83,-1038.14 287.33,-1027.64"/>
<polygon fill="black" stroke="black" points="290.06,-1025.43 281.4,-1019.33 284.36,-1029.5 290.06,-1025.43"/>
</g>
<!-- BB6 -->
<g id="node7" class="node">
<title>BB6</title>
<ellipse fill="none" stroke="black" cx="478.19" cy="-973.25" rx="108.38" ry="48.17"/>
<text text-anchor="middle" x="478.19" y="-992.05" font-family="Times New Roman,serif" font-size="14.00">[5f..68)</text>
<text text-anchor="middle" x="478.19" y="-977.05" font-family="Times New Roman,serif" font-size="14.00">Count: 1882</text>
<text text-anchor="middle" x="478.19" y="-962.05" font-family="Times New Roman,serif" font-size="14.00">Normalized count: 13.64</text>
<text text-anchor="middle" x="478.19" y="-947.05" font-family="Times New Roman,serif" font-size="14.00">Samples weight: 0.07</text>
</g>
<!-- BB4&#45;&gt;BB6 -->
<g id="edge6" class="edge">
<title>BB4&#45;&gt;BB6</title>
<path fill="none" stroke="black" d="M387.1,-1061.43C399.51,-1049.55 413.1,-1036.55 425.9,-1024.3"/>
<polygon fill="black" stroke="black" points="428.52,-1026.63 433.33,-1017.19 423.68,-1021.57 428.52,-1026.63"/>
</g>
<!-- BB5&#45;&gt;BB6 -->
<g id="edge8" class="edge">
<title>BB5&#45;&gt;BB6</title>
<path fill="none" stroke="black" d="M352.51,-973.25C354.83,-973.25 357.16,-973.25 359.49,-973.25"/>
<polygon fill="black" stroke="black" points="359.69,-976.75 369.69,-973.25 359.69,-969.75 359.69,-976.75"/>
</g>
<!-- BB6&#45;&gt;BB1 -->
<g id="edge9" class="edge">
<title>BB6&#45;&gt;BB1</title>
<path fill="none" stroke="black" d="M476.09,-1021.52C473.77,-1057.93 468.98,-1109.35 459.19,-1153.5 446.89,-1208.91 425.1,-1269.9 408.33,-1312.77"/>
<polygon fill="black" stroke="black" points="405.04,-1311.59 404.62,-1322.18 411.55,-1314.16 405.04,-1311.59"/>
</g>
<!-- BB7 -->
<g id="node8" class="node">
<title>BB7</title>
<ellipse fill="none" stroke="black" cx="478.19" cy="-841.08" rx="103.48" ry="48.17"/>
<text text-anchor="middle" x="478.19" y="-859.88" font-family="Times New Roman,serif" font-size="14.00">[68..6f)</text>
<text text-anchor="middle" x="478.19" y="-844.88" font-family="Times New Roman,serif" font-size="14.00">Count: 138</text>
<text text-anchor="middle" x="478.19" y="-829.88" font-family="Times New Roman,serif" font-size="14.00">Normalized count: 1.00</text>
<text text-anchor="middle" x="478.19" y="-814.88" font-family="Times New Roman,serif" font-size="14.00">Samples weight: 0.01</text>
</g>
<!-- BB6&#45;&gt;BB7 -->
<g id="edge10" class="edge">
<title>BB6&#45;&gt;BB7</title>
<path fill="none" stroke="black" d="M478.19,-924.89C478.19,-916.62 478.19,-907.94 478.19,-899.43"/>
<polygon fill="black" stroke="black" points="481.69,-899.19 478.19,-889.19 474.69,-899.19 481.69,-899.19"/>
</g>
<!-- BB13 -->
<g id="node14" class="node">
<title>BB13</title>
<ellipse fill="none" stroke="black" cx="478.19" cy="-708.92" rx="103.48" ry="48.17"/>
<text text-anchor="middle" x="478.19" y="-727.72" font-family="Times New Roman,serif" font-size="14.00">[f6..fd)</text>
<text text-anchor="middle" x="478.19" y="-712.72" font-family="Times New Roman,serif" font-size="14.00">Count: 285</text>
<text text-anchor="middle" x="478.19" y="-697.72" font-family="Times New Roman,serif" font-size="14.00">Normalized count: 2.07</text>
<text text-anchor="middle" x="478.19" y="-682.72" font-family="Times New Roman,serif" font-size="14.00">Samples weight: 0.01</text>
</g>
<!-- BB7&#45;&gt;BB13 -->
<g id="edge11" class="edge">
<title>BB7&#45;&gt;BB13</title>
<path fill="none" stroke="black" d="M478.19,-792.72C478.19,-784.45 478.19,-775.77 478.19,-767.27"/>
<polygon fill="black" stroke="black" points="481.69,-767.02 478.19,-757.02 474.69,-767.02 481.69,-767.02"/>
</g>
<!-- BB8 -->
<g id="node9" class="node">
<title>BB8</title>
<ellipse fill="none" stroke="black" cx="478.19" cy="-576.75" rx="103.48" ry="48.17"/>
<text text-anchor="middle" x="478.19" y="-595.55" font-family="Times New Roman,serif" font-size="14.00">[6f..7a)</text>
<text text-anchor="middle" x="478.19" y="-580.55" font-family="Times New Roman,serif" font-size="14.00">Count: 147</text>
<text text-anchor="middle" x="478.19" y="-565.55" font-family="Times New Roman,serif" font-size="14.00">Normalized count: 1.07</text>
<text text-anchor="middle" x="478.19" y="-550.55" font-family="Times New Roman,serif" font-size="14.00">Samples weight: 0.01</text>
</g>
<!-- BB9 -->
<g id="node10" class="node">
<title>BB9</title>
<ellipse fill="none" stroke="black" cx="481.19" cy="-444.58" rx="108.38" ry="48.17"/>
<text text-anchor="middle" x="481.19" y="-463.38" font-family="Times New Roman,serif" font-size="14.00">[7a..9c)</text>
<text text-anchor="middle" x="481.19" y="-448.38" font-family="Times New Roman,serif" font-size="14.00">Count: 4841</text>
<text text-anchor="middle" x="481.19" y="-433.38" font-family="Times New Roman,serif" font-size="14.00">Normalized count: 35.08</text>
<text text-anchor="middle" x="481.19" y="-418.38" font-family="Times New Roman,serif" font-size="14.00">Samples weight: 0.18</text>
</g>
<!-- BB8&#45;&gt;BB9 -->
<g id="edge12" class="edge">
<title>BB8&#45;&gt;BB9</title>
<path fill="none" stroke="black" d="M479.28,-528.39C479.47,-520.12 479.67,-511.44 479.87,-502.93"/>
<polygon fill="black" stroke="black" points="483.37,-502.77 480.1,-492.69 476.37,-502.61 483.37,-502.77"/>
</g>
<!-- BB10 -->
<g id="node11" class="node">
<title>BB10</title>
<ellipse fill="none" stroke="black" cx="481.19" cy="-312.42" rx="108.38" ry="48.17"/>
<text text-anchor="middle" x="481.19" y="-331.22" font-family="Times New Roman,serif" font-size="14.00">[9c..eb)</text>
<text text-anchor="middle" x="481.19" y="-316.22" font-family="Times New Roman,serif" font-size="14.00">Count: 5216</text>
<text text-anchor="middle" x="481.19" y="-301.22" font-family="Times New Roman,serif" font-size="14.00">Normalized count: 37.80</text>
<text text-anchor="middle" x="481.19" y="-286.22" font-family="Times New Roman,serif" font-size="14.00">Samples weight: 0.19</text>
</g>
<!-- BB9&#45;&gt;BB10 -->
<g id="edge13" class="edge">
<title>BB9&#45;&gt;BB10</title>
<path fill="none" stroke="black" d="M481.19,-396.22C481.19,-387.95 481.19,-379.27 481.19,-370.77"/>
<polygon fill="black" stroke="black" points="484.69,-370.52 481.19,-360.52 477.69,-370.52 484.69,-370.52"/>
</g>
<!-- BB10&#45;&gt;BB10 -->
<g id="edge14" class="edge">
<title>BB10&#45;&gt;BB10</title>
<path fill="none" stroke="black" d="M575.29,-336.15C594.02,-333.47 607.37,-325.56 607.37,-312.42 607.37,-301.73 598.56,-294.51 585.21,-290.74"/>
<polygon fill="black" stroke="black" points="585.79,-287.29 575.29,-288.69 584.37,-294.14 585.79,-287.29"/>
</g>
<!-- BB11 -->
<g id="node12" class="node">
<title>BB11</title>
<ellipse fill="none" stroke="black" cx="481.19" cy="-180.25" rx="108.38" ry="48.17"/>
<text text-anchor="middle" x="481.19" y="-199.05" font-family="Times New Roman,serif" font-size="14.00">[eb..f3)</text>
<text text-anchor="middle" x="481.19" y="-184.05" font-family="Times New Roman,serif" font-size="14.00">Count: 4841</text>
<text text-anchor="middle" x="481.19" y="-169.05" font-family="Times New Roman,serif" font-size="14.00">Normalized count: 35.08</text>
<text text-anchor="middle" x="481.19" y="-154.05" font-family="Times New Roman,serif" font-size="14.00">Samples weight: 0.18</text>
</g>
<!-- BB10&#45;&gt;BB11 -->
<g id="edge15" class="edge">
<title>BB10&#45;&gt;BB11</title>
<path fill="none" stroke="black" d="M481.19,-264.05C481.19,-255.79 481.19,-247.1 481.19,-238.6"/>
<polygon fill="black" stroke="black" points="484.69,-238.36 481.19,-228.36 477.69,-238.36 484.69,-238.36"/>
</g>
<!-- BB11&#45;&gt;BB9 -->
<g id="edge16" class="edge">
<title>BB11&#45;&gt;BB9</title>
<path fill="none" stroke="black" d="M561.21,-212.64C582.93,-225.28 603.84,-242.23 616.19,-264.33 637.04,-301.64 637.04,-323.19 616.19,-360.5 605.48,-379.67 588.33,-394.96 569.8,-406.92"/>
<polygon fill="black" stroke="black" points="567.9,-403.98 561.21,-412.19 571.56,-409.95 567.9,-403.98"/>
</g>
<!-- BB12 -->
<g id="node13" class="node">
<title>BB12</title>
<ellipse fill="none" stroke="black" cx="413.19" cy="-48.08" rx="103.48" ry="48.17"/>
<text text-anchor="middle" x="413.19" y="-66.88" font-family="Times New Roman,serif" font-size="14.00">[f3..f6)</text>
<text text-anchor="middle" x="413.19" y="-51.88" font-family="Times New Roman,serif" font-size="14.00">Count: 147</text>
<text text-anchor="middle" x="413.19" y="-36.88" font-family="Times New Roman,serif" font-size="14.00">Normalized count: 1.07</text>
<text text-anchor="middle" x="413.19" y="-21.88" font-family="Times New Roman,serif" font-size="14.00">Samples weight: 0.01</text>
</g>
<!-- BB11&#45;&gt;BB12 -->
<g id="edge17" class="edge">
<title>BB11&#45;&gt;BB12</title>
<path fill="none" stroke="black" d="M457.21,-133.36C452.24,-123.83 446.94,-113.7 441.82,-103.89"/>
<polygon fill="black" stroke="black" points="444.91,-102.24 437.17,-95 438.7,-105.48 444.91,-102.24"/>
</g>
<!-- BB12&#45;&gt;BB13 -->
<g id="edge18" class="edge">
<title>BB12&#45;&gt;BB13</title>
<path fill="none" stroke="black" d="M382.02,-93.98C375.07,-105.92 368.5,-119.13 364.19,-132.17 339.04,-208.23 345.19,-231.3 345.19,-311.42 345.19,-445.58 345.19,-445.58 345.19,-445.58 345.19,-525.79 326.01,-555.41 366.19,-624.83 375.34,-640.66 388.84,-654.37 403.33,-665.85"/>
<polygon fill="black" stroke="black" points="401.37,-668.76 411.46,-672 405.59,-663.17 401.37,-668.76"/>
</g>
<!-- BB13&#45;&gt;BB8 -->
<g id="edge19" class="edge">
<title>BB13&#45;&gt;BB8</title>
<path fill="none" stroke="black" d="M478.19,-660.55C478.19,-652.29 478.19,-643.6 478.19,-635.1"/>
<polygon fill="black" stroke="black" points="481.69,-634.86 478.19,-624.86 474.69,-634.86 481.69,-634.86"/>
</g>
<!-- BB14 -->
<g id="node15" class="node">
<title>BB14</title>
<ellipse fill="none" stroke="black" cx="702.19" cy="-576.75" rx="103.48" ry="48.17"/>
<text text-anchor="middle" x="702.19" y="-595.55" font-family="Times New Roman,serif" font-size="14.00">[fd..fe)</text>
<text text-anchor="middle" x="702.19" y="-580.55" font-family="Times New Roman,serif" font-size="14.00">Count: 138</text>
<text text-anchor="middle" x="702.19" y="-565.55" font-family="Times New Roman,serif" font-size="14.00">Normalized count: 1.00</text>
<text text-anchor="middle" x="702.19" y="-550.55" font-family="Times New Roman,serif" font-size="14.00">Samples weight: 0.01</text>
</g>
<!-- BB13&#45;&gt;BB14 -->
<g id="edge20" class="edge">
<title>BB13&#45;&gt;BB14</title>
<path fill="none" stroke="black" d="M541.78,-670.96C569.21,-655.02 601.43,-636.3 629.78,-619.83"/>
<polygon fill="black" stroke="black" points="631.55,-622.84 638.44,-614.79 628.03,-616.79 631.55,-622.84"/>
</g>
</g>
</svg>
