<?xml version="1.0" encoding="UTF-8" standalone="no"?>
<!DOCTYPE svg PUBLIC "-//W3C//DTD SVG 1.1//EN"
 "http://www.w3.org/Graphics/SVG/1.1/DTD/svg11.dtd">
<!-- Generated by graphviz version 2.47.0 (20210316.0004)
 -->
<!-- Title: G Pages: 1 -->
<svg width="1101pt" height="897pt"
 viewBox="0.00 0.00 1100.66 897.17" xmlns="http://www.w3.org/2000/svg" xmlns:xlink="http://www.w3.org/1999/xlink">
<g id="graph0" class="graph" transform="scale(1 1) rotate(0) translate(4 893.17)">
<title>G</title>
<polygon fill="white" stroke="transparent" points="-4,4 -4,-893.17 1096.66,-893.17 1096.66,4 -4,4"/>
<!-- BB0 -->
<g id="node1" class="node">
<title>BB0</title>
<ellipse fill="none" stroke="black" cx="852.24" cy="-841.08" rx="103.48" ry="48.17"/>
<text text-anchor="middle" x="852.24" y="-859.88" font-family="Times New Roman,serif" font-size="14.00">[0..4)</text>
<text text-anchor="middle" x="852.24" y="-844.88" font-family="Times New Roman,serif" font-size="14.00">Count: 4</text>
<text text-anchor="middle" x="852.24" y="-829.88" font-family="Times New Roman,serif" font-size="14.00">Normalized count: 1.00</text>
<text text-anchor="middle" x="852.24" y="-814.88" font-family="Times New Roman,serif" font-size="14.00">Samples weight: 0.01</text>
</g>
<!-- BB1 -->
<g id="node2" class="node">
<title>BB1</title>
<ellipse fill="none" stroke="black" cx="740.24" cy="-708.92" rx="103.48" ry="48.17"/>
<text text-anchor="middle" x="740.24" y="-727.72" font-family="Times New Roman,serif" font-size="14.00">[4..e)</text>
<text text-anchor="middle" x="740.24" y="-712.72" font-family="Times New Roman,serif" font-size="14.00">Count: 32</text>
<text text-anchor="middle" x="740.24" y="-697.72" font-family="Times New Roman,serif" font-size="14.00">Normalized count: 8.00</text>
<text text-anchor="middle" x="740.24" y="-682.72" font-family="Times New Roman,serif" font-size="14.00">Samples weight: 0.07</text>
</g>
<!-- BB0&#45;&gt;BB1 -->
<g id="edge2" class="edge">
<title>BB0&#45;&gt;BB1</title>
<path fill="none" stroke="black" d="M814.32,-796.01C804.83,-784.99 794.57,-773.06 784.79,-761.7"/>
<polygon fill="black" stroke="black" points="787.29,-759.24 778.12,-753.94 781.99,-763.8 787.29,-759.24"/>
</g>
<!-- BB15 -->
<g id="node16" class="node">
<title>BB15</title>
<ellipse fill="none" stroke="black" cx="964.24" cy="-708.92" rx="103.48" ry="48.17"/>
<text text-anchor="middle" x="964.24" y="-727.72" font-family="Times New Roman,serif" font-size="14.00">[66..67)</text>
<text text-anchor="middle" x="964.24" y="-712.72" font-family="Times New Roman,serif" font-size="14.00">Count: 0</text>
<text text-anchor="middle" x="964.24" y="-697.72" font-family="Times New Roman,serif" font-size="14.00">Normalized count: 0.00</text>
<text text-anchor="middle" x="964.24" y="-682.72" font-family="Times New Roman,serif" font-size="14.00">Samples weight: 0.00</text>
</g>
<!-- BB0&#45;&gt;BB15 -->
<g id="edge1" class="edge">
<title>BB0&#45;&gt;BB15</title>
<path fill="none" stroke="black" d="M890.16,-796.01C899.64,-784.99 909.91,-773.06 919.68,-761.7"/>
<polygon fill="black" stroke="black" points="922.49,-763.8 926.36,-753.94 917.18,-759.24 922.49,-763.8"/>
</g>
<!-- BB11 -->
<g id="node12" class="node">
<title>BB11</title>
<ellipse fill="none" stroke="black" cx="740.24" cy="-576.75" rx="103.48" ry="48.17"/>
<text text-anchor="middle" x="740.24" y="-595.55" font-family="Times New Roman,serif" font-size="14.00">[3e..42)</text>
<text text-anchor="middle" x="740.24" y="-580.55" font-family="Times New Roman,serif" font-size="14.00">Count: 3</text>
<text text-anchor="middle" x="740.24" y="-565.55" font-family="Times New Roman,serif" font-size="14.00">Normalized count: 0.75</text>
<text text-anchor="middle" x="740.24" y="-550.55" font-family="Times New Roman,serif" font-size="14.00">Samples weight: 0.01</text>
</g>
<!-- BB1&#45;&gt;BB11 -->
<g id="edge3" class="edge">
<title>BB1&#45;&gt;BB11</title>
<path fill="none" stroke="black" d="M740.24,-660.55C740.24,-652.29 740.24,-643.6 740.24,-635.1"/>
<polygon fill="black" stroke="black" points="743.74,-634.86 740.24,-624.86 736.74,-634.86 743.74,-634.86"/>
</g>
<!-- BB2 -->
<g id="node3" class="node">
<title>BB2</title>
<ellipse fill="none" stroke="black" cx="103.24" cy="-180.25" rx="103.48" ry="48.17"/>
<text text-anchor="middle" x="103.24" y="-199.05" font-family="Times New Roman,serif" font-size="14.00">[e..12)</text>
<text text-anchor="middle" x="103.24" y="-184.05" font-family="Times New Roman,serif" font-size="14.00">Count: 35</text>
<text text-anchor="middle" x="103.24" y="-169.05" font-family="Times New Roman,serif" font-size="14.00">Normalized count: 8.75</text>
<text text-anchor="middle" x="103.24" y="-154.05" font-family="Times New Roman,serif" font-size="14.00">Samples weight: 0.08</text>
</g>
<!-- BB3 -->
<g id="node4" class="node">
<title>BB3</title>
<ellipse fill="none" stroke="black" cx="356.24" cy="-444.58" rx="103.48" ry="48.17"/>
<text text-anchor="middle" x="356.24" y="-463.38" font-family="Times New Roman,serif" font-size="14.00">[12..16)</text>
<text text-anchor="middle" x="356.24" y="-448.38" font-family="Times New Roman,serif" font-size="14.00">Count: 11</text>
<text text-anchor="middle" x="356.24" y="-433.38" font-family="Times New Roman,serif" font-size="14.00">Normalized count: 2.75</text>
<text text-anchor="middle" x="356.24" y="-418.38" font-family="Times New Roman,serif" font-size="14.00">Samples weight: 0.02</text>
</g>
<!-- BB2&#45;&gt;BB3 -->
<g id="edge4" class="edge">
<title>BB2&#45;&gt;BB3</title>
<path fill="none" stroke="black" d="M95.44,-228.25C91.63,-267.7 92.98,-323.39 122.24,-360.5 152.2,-398.51 200.88,-419.16 246.11,-430.36"/>
<polygon fill="black" stroke="black" points="245.46,-433.81 256,-432.68 247.06,-426.99 245.46,-433.81"/>
</g>
<!-- BB4 -->
<g id="node5" class="node">
<title>BB4</title>
<ellipse fill="none" stroke="black" cx="239.24" cy="-312.42" rx="108.38" ry="48.17"/>
<text text-anchor="middle" x="239.24" y="-331.22" font-family="Times New Roman,serif" font-size="14.00">[16..1c)</text>
<text text-anchor="middle" x="239.24" y="-316.22" font-family="Times New Roman,serif" font-size="14.00">Count: 98</text>
<text text-anchor="middle" x="239.24" y="-301.22" font-family="Times New Roman,serif" font-size="14.00">Normalized count: 24.50</text>
<text text-anchor="middle" x="239.24" y="-286.22" font-family="Times New Roman,serif" font-size="14.00">Samples weight: 0.22</text>
</g>
<!-- BB3&#45;&gt;BB4 -->
<g id="edge6" class="edge">
<title>BB3&#45;&gt;BB4</title>
<path fill="none" stroke="black" d="M316.95,-399.88C306.82,-388.61 295.83,-376.38 285.39,-364.76"/>
<polygon fill="black" stroke="black" points="287.91,-362.33 278.62,-357.23 282.7,-367.01 287.91,-362.33"/>
</g>
<!-- BB7 -->
<g id="node8" class="node">
<title>BB7</title>
<ellipse fill="none" stroke="black" cx="473.24" cy="-312.42" rx="108.38" ry="48.17"/>
<text text-anchor="middle" x="473.24" y="-331.22" font-family="Times New Roman,serif" font-size="14.00">[22..26)</text>
<text text-anchor="middle" x="473.24" y="-316.22" font-family="Times New Roman,serif" font-size="14.00">Count: 52</text>
<text text-anchor="middle" x="473.24" y="-301.22" font-family="Times New Roman,serif" font-size="14.00">Normalized count: 13.00</text>
<text text-anchor="middle" x="473.24" y="-286.22" font-family="Times New Roman,serif" font-size="14.00">Samples weight: 0.11</text>
</g>
<!-- BB3&#45;&gt;BB7 -->
<g id="edge5" class="edge">
<title>BB3&#45;&gt;BB7</title>
<path fill="none" stroke="black" d="M395.52,-399.88C405.65,-388.61 416.65,-376.38 427.09,-364.76"/>
<polygon fill="black" stroke="black" points="429.78,-367.01 433.86,-357.23 424.57,-362.33 429.78,-367.01"/>
</g>
<!-- BB4&#45;&gt;BB2 -->
<g id="edge7" class="edge">
<title>BB4&#45;&gt;BB2</title>
<path fill="none" stroke="black" d="M194.33,-268.43C181.78,-256.43 168.04,-243.28 155.13,-230.92"/>
<polygon fill="black" stroke="black" points="157.28,-228.13 147.64,-223.74 152.44,-233.19 157.28,-228.13"/>
</g>
<!-- BB5 -->
<g id="node6" class="node">
<title>BB5</title>
<ellipse fill="none" stroke="black" cx="327.24" cy="-180.25" rx="103.48" ry="48.17"/>
<text text-anchor="middle" x="327.24" y="-199.05" font-family="Times New Roman,serif" font-size="14.00">[1c..1e)</text>
<text text-anchor="middle" x="327.24" y="-184.05" font-family="Times New Roman,serif" font-size="14.00">Count: 0</text>
<text text-anchor="middle" x="327.24" y="-169.05" font-family="Times New Roman,serif" font-size="14.00">Normalized count: 0.00</text>
<text text-anchor="middle" x="327.24" y="-154.05" font-family="Times New Roman,serif" font-size="14.00">Samples weight: 0.00</text>
</g>
<!-- BB4&#45;&gt;BB5 -->
<g id="edge8" class="edge">
<title>BB4&#45;&gt;BB5</title>
<path fill="none" stroke="black" d="M269.77,-266.26C276.66,-256.06 284.04,-245.14 291.14,-234.64"/>
<polygon fill="black" stroke="black" points="294.06,-236.58 296.76,-226.33 288.26,-232.65 294.06,-236.58"/>
</g>
<!-- BB5&#45;&gt;BB7 -->
<g id="edge9" class="edge">
<title>BB5&#45;&gt;BB7</title>
<path fill="none" stroke="black" d="M374.4,-223.3C388.3,-235.69 403.62,-249.35 417.98,-262.15"/>
<polygon fill="black" stroke="black" points="416.04,-265.11 425.84,-269.15 420.7,-259.89 416.04,-265.11"/>
</g>
<!-- BB6 -->
<g id="node7" class="node">
<title>BB6</title>
<ellipse fill="none" stroke="black" cx="526.24" cy="-48.08" rx="103.48" ry="48.17"/>
<text text-anchor="middle" x="526.24" y="-66.88" font-family="Times New Roman,serif" font-size="14.00">[1e..22)</text>
<text text-anchor="middle" x="526.24" y="-51.88" font-family="Times New Roman,serif" font-size="14.00">Count: 33</text>
<text text-anchor="middle" x="526.24" y="-36.88" font-family="Times New Roman,serif" font-size="14.00">Normalized count: 8.25</text>
<text text-anchor="middle" x="526.24" y="-21.88" font-family="Times New Roman,serif" font-size="14.00">Samples weight: 0.07</text>
</g>
<!-- BB6&#45;&gt;BB7 -->
<g id="edge10" class="edge">
<title>BB6&#45;&gt;BB7</title>
<path fill="none" stroke="black" d="M494.06,-94.19C487.23,-106.01 480.95,-119.12 477.24,-132.17 465.98,-171.67 465.27,-218.08 467.22,-253.78"/>
<polygon fill="black" stroke="black" points="463.74,-254.26 467.87,-264.02 470.73,-253.82 463.74,-254.26"/>
</g>
<!-- BB8 -->
<g id="node9" class="node">
<title>BB8</title>
<ellipse fill="none" stroke="black" cx="594.24" cy="-180.25" rx="108.38" ry="48.17"/>
<text text-anchor="middle" x="594.24" y="-199.05" font-family="Times New Roman,serif" font-size="14.00">[26..2c)</text>
<text text-anchor="middle" x="594.24" y="-184.05" font-family="Times New Roman,serif" font-size="14.00">Count: 74</text>
<text text-anchor="middle" x="594.24" y="-169.05" font-family="Times New Roman,serif" font-size="14.00">Normalized count: 18.50</text>
<text text-anchor="middle" x="594.24" y="-154.05" font-family="Times New Roman,serif" font-size="14.00">Samples weight: 0.16</text>
</g>
<!-- BB7&#45;&gt;BB8 -->
<g id="edge12" class="edge">
<title>BB7&#45;&gt;BB8</title>
<path fill="none" stroke="black" d="M513.87,-267.71C524.34,-256.44 535.71,-244.21 546.51,-232.59"/>
<polygon fill="black" stroke="black" points="549.27,-234.77 553.51,-225.06 544.14,-230 549.27,-234.77"/>
</g>
<!-- BB9 -->
<g id="node10" class="node">
<title>BB9</title>
<ellipse fill="none" stroke="black" cx="828.24" cy="-180.25" rx="108.38" ry="48.17"/>
<text text-anchor="middle" x="828.24" y="-199.05" font-family="Times New Roman,serif" font-size="14.00">[2c..30)</text>
<text text-anchor="middle" x="828.24" y="-184.05" font-family="Times New Roman,serif" font-size="14.00">Count: 44</text>
<text text-anchor="middle" x="828.24" y="-169.05" font-family="Times New Roman,serif" font-size="14.00">Normalized count: 11.00</text>
<text text-anchor="middle" x="828.24" y="-154.05" font-family="Times New Roman,serif" font-size="14.00">Samples weight: 0.10</text>
</g>
<!-- BB7&#45;&gt;BB9 -->
<g id="edge11" class="edge">
<title>BB7&#45;&gt;BB9</title>
<path fill="none" stroke="black" d="M553.02,-279.74C567.03,-274.43 581.51,-269.1 595.24,-264.33 646.22,-246.61 660.38,-246.42 711.24,-228.33 720.85,-224.91 730.84,-221.18 740.76,-217.36"/>
<polygon fill="black" stroke="black" points="742.17,-220.56 750.22,-213.67 739.63,-214.04 742.17,-220.56"/>
</g>
<!-- BB8&#45;&gt;BB6 -->
<g id="edge13" class="edge">
<title>BB8&#45;&gt;BB6</title>
<path fill="none" stroke="black" d="M570.26,-133.36C565.29,-123.83 559.99,-113.7 554.87,-103.89"/>
<polygon fill="black" stroke="black" points="557.96,-102.24 550.22,-95 551.75,-105.48 557.96,-102.24"/>
</g>
<!-- BB8&#45;&gt;BB9 -->
<g id="edge14" class="edge">
<title>BB8&#45;&gt;BB9</title>
<path fill="none" stroke="black" d="M702.55,-180.25C704.88,-180.25 707.21,-180.25 709.53,-180.25"/>
<polygon fill="black" stroke="black" points="709.74,-183.75 719.74,-180.25 709.74,-176.75 709.74,-183.75"/>
</g>
<!-- BB10 -->
<g id="node11" class="node">
<title>BB10</title>
<ellipse fill="none" stroke="black" cx="961.24" cy="-48.08" rx="108.38" ry="48.17"/>
<text text-anchor="middle" x="961.24" y="-66.88" font-family="Times New Roman,serif" font-size="14.00">[30..3e)</text>
<text text-anchor="middle" x="961.24" y="-51.88" font-family="Times New Roman,serif" font-size="14.00">Count: 41</text>
<text text-anchor="middle" x="961.24" y="-36.88" font-family="Times New Roman,serif" font-size="14.00">Normalized count: 10.25</text>
<text text-anchor="middle" x="961.24" y="-21.88" font-family="Times New Roman,serif" font-size="14.00">Samples weight: 0.09</text>
</g>
<!-- BB9&#45;&gt;BB10 -->
<g id="edge16" class="edge">
<title>BB9&#45;&gt;BB10</title>
<path fill="none" stroke="black" d="M872.16,-136.27C884.17,-124.51 897.31,-111.65 909.71,-99.51"/>
<polygon fill="black" stroke="black" points="912.21,-101.96 916.91,-92.46 907.32,-96.96 912.21,-101.96"/>
</g>
<!-- BB9&#45;&gt;BB11 -->
<g id="edge15" class="edge">
<title>BB9&#45;&gt;BB11</title>
<path fill="none" stroke="black" d="M748.82,-213.08C693.82,-235.31 630.13,-261.5 628.24,-264.33 571.9,-348.74 582.62,-402.02 628.24,-492.67 636.46,-509 649.57,-522.92 663.98,-534.44"/>
<polygon fill="black" stroke="black" points="662.01,-537.34 672.1,-540.59 666.24,-531.76 662.01,-537.34"/>
</g>
<!-- BB10&#45;&gt;BB11 -->
<g id="edge17" class="edge">
<title>BB10&#45;&gt;BB11</title>
<path fill="none" stroke="black" d="M1000.47,-93.13C1050.64,-155.1 1125.47,-270.5 1076.24,-360.5 1025.12,-453.95 914.21,-512.79 833.76,-544.89"/>
<polygon fill="black" stroke="black" points="832.14,-541.76 824.11,-548.67 834.7,-548.28 832.14,-541.76"/>
</g>
<!-- BB11&#45;&gt;BB3 -->
<g id="edge18" class="edge">
<title>BB11&#45;&gt;BB3</title>
<path fill="none" stroke="black" d="M657.39,-547.67C595.94,-526.84 512.16,-498.44 448.57,-476.88"/>
<polygon fill="black" stroke="black" points="449.53,-473.51 438.94,-473.62 447.29,-480.14 449.53,-473.51"/>
</g>
<!-- BB12 -->
<g id="node13" class="node">
<title>BB12</title>
<ellipse fill="none" stroke="black" cx="740.24" cy="-444.58" rx="103.48" ry="48.17"/>
<text text-anchor="middle" x="740.24" y="-463.38" font-family="Times New Roman,serif" font-size="14.00">[42..46)</text>
<text text-anchor="middle" x="740.24" y="-448.38" font-family="Times New Roman,serif" font-size="14.00">Count: 2</text>
<text text-anchor="middle" x="740.24" y="-433.38" font-family="Times New Roman,serif" font-size="14.00">Normalized count: 0.50</text>
<text text-anchor="middle" x="740.24" y="-418.38" font-family="Times New Roman,serif" font-size="14.00">Samples weight: 0.00</text>
</g>
<!-- BB11&#45;&gt;BB12 -->
<g id="edge19" class="edge">
<title>BB11&#45;&gt;BB12</title>
<path fill="none" stroke="black" d="M740.24,-528.39C740.24,-520.12 740.24,-511.44 740.24,-502.93"/>
<polygon fill="black" stroke="black" points="743.74,-502.69 740.24,-492.69 736.74,-502.69 743.74,-502.69"/>
</g>
<!-- BB13 -->
<g id="node14" class="node">
<title>BB13</title>
<ellipse fill="none" stroke="black" cx="740.24" cy="-312.42" rx="103.48" ry="48.17"/>
<text text-anchor="middle" x="740.24" y="-331.22" font-family="Times New Roman,serif" font-size="14.00">[46..52)</text>
<text text-anchor="middle" x="740.24" y="-316.22" font-family="Times New Roman,serif" font-size="14.00">Count: 17</text>
<text text-anchor="middle" x="740.24" y="-301.22" font-family="Times New Roman,serif" font-size="14.00">Normalized count: 4.25</text>
<text text-anchor="middle" x="740.24" y="-286.22" font-family="Times New Roman,serif" font-size="14.00">Samples weight: 0.04</text>
</g>
<!-- BB12&#45;&gt;BB13 -->
<g id="edge21" class="edge">
<title>BB12&#45;&gt;BB13</title>
<path fill="none" stroke="black" d="M740.24,-396.22C740.24,-387.95 740.24,-379.27 740.24,-370.77"/>
<polygon fill="black" stroke="black" points="743.74,-370.52 740.24,-360.52 736.74,-370.52 743.74,-370.52"/>
</g>
<!-- BB14 -->
<g id="node15" class="node">
<title>BB14</title>
<ellipse fill="none" stroke="black" cx="964.24" cy="-312.42" rx="103.48" ry="48.17"/>
<text text-anchor="middle" x="964.24" y="-331.22" font-family="Times New Roman,serif" font-size="14.00">[52..66)</text>
<text text-anchor="middle" x="964.24" y="-316.22" font-family="Times New Roman,serif" font-size="14.00">Count: 9</text>
<text text-anchor="middle" x="964.24" y="-301.22" font-family="Times New Roman,serif" font-size="14.00">Normalized count: 2.25</text>
<text text-anchor="middle" x="964.24" y="-286.22" font-family="Times New Roman,serif" font-size="14.00">Samples weight: 0.02</text>
</g>
<!-- BB12&#45;&gt;BB14 -->
<g id="edge20" class="edge">
<title>BB12&#45;&gt;BB14</title>
<path fill="none" stroke="black" d="M803.83,-406.63C831.26,-390.69 863.48,-371.97 891.83,-355.49"/>
<polygon fill="black" stroke="black" points="893.6,-358.51 900.49,-350.46 890.08,-352.46 893.6,-358.51"/>
</g>
<!-- BB13&#45;&gt;BB14 -->
<g id="edge22" class="edge">
<title>BB13&#45;&gt;BB14</title>
<path fill="none" stroke="black" d="M843.49,-312.42C845.94,-312.42 848.4,-312.42 850.85,-312.42"/>
<polygon fill="black" stroke="black" points="850.94,-315.92 860.94,-312.42 850.94,-308.92 850.94,-315.92"/>
</g>
<!-- BB14&#45;&gt;BB15 -->
<g id="edge23" class="edge">
<title>BB14&#45;&gt;BB15</title>
<path fill="none" stroke="black" d="M964.24,-360.66C964.24,-433.31 964.24,-572.24 964.24,-650.55"/>
<polygon fill="black" stroke="black" points="960.74,-650.72 964.24,-660.72 967.74,-650.72 960.74,-650.72"/>
</g>
</g>
</svg>
