<?xml version="1.0" encoding="UTF-8" standalone="no"?>
<!DOCTYPE svg PUBLIC "-//W3C//DTD SVG 1.1//EN"
 "http://www.w3.org/Graphics/SVG/1.1/DTD/svg11.dtd">
<!-- Generated by graphviz version 2.47.0 (20210316.0004)
 -->
<!-- Title: G Pages: 1 -->
<svg width="107pt" height="241pt"
 viewBox="0.00 0.00 107.32 241.22" xmlns="http://www.w3.org/2000/svg" xmlns:xlink="http://www.w3.org/1999/xlink">
<g id="graph0" class="graph" transform="scale(1 1) rotate(0) translate(4 237.22)">
<title>G</title>
<polygon fill="white" stroke="transparent" points="-4,4 -4,-237.22 103.32,-237.22 103.32,4 -4,4"/>
<!-- BB0 -->
<g id="node1" class="node">
<title>BB0</title>
<ellipse fill="none" stroke="black" cx="43.13" cy="-206.35" rx="33.47" ry="26.74"/>
<text text-anchor="middle" x="43.13" y="-210.15" font-family="Times New Roman,serif" font-size="14.00">[0..2)</text>
<text text-anchor="middle" x="43.13" y="-195.15" font-family="Times New Roman,serif" font-size="14.00">0.02</text>
</g>
<!-- BB1 -->
<g id="node2" class="node">
<title>BB1</title>
<ellipse fill="none" stroke="black" cx="43.13" cy="-116.61" rx="38.37" ry="26.74"/>
<text text-anchor="middle" x="43.13" y="-120.41" font-family="Times New Roman,serif" font-size="14.00">[2..6b)</text>
<text text-anchor="middle" x="43.13" y="-105.41" font-family="Times New Roman,serif" font-size="14.00">0.96</text>
</g>
<!-- BB0&#45;&gt;BB1 -->
<g id="edge1" class="edge">
<title>BB0&#45;&gt;BB1</title>
<path fill="none" stroke="black" d="M43.13,-179.03C43.13,-171.06 43.13,-162.17 43.13,-153.68"/>
<polygon fill="black" stroke="black" points="46.63,-153.61 43.13,-143.61 39.63,-153.61 46.63,-153.61"/>
</g>
<!-- BB1&#45;&gt;BB1 -->
<g id="edge2" class="edge">
<title>BB1&#45;&gt;BB1</title>
<path fill="none" stroke="black" d="M73.76,-132.85C87.47,-134.4 99.32,-128.99 99.32,-116.61 99.32,-107.43 92.79,-102.08 83.82,-100.56"/>
<polygon fill="black" stroke="black" points="83.83,-97.06 73.76,-100.37 83.69,-104.06 83.83,-97.06"/>
</g>
<!-- BB2 -->
<g id="node3" class="node">
<title>BB2</title>
<ellipse fill="none" stroke="black" cx="43.13" cy="-26.87" rx="43.27" ry="26.74"/>
<text text-anchor="middle" x="43.13" y="-30.67" font-family="Times New Roman,serif" font-size="14.00">[6b..6c)</text>
<text text-anchor="middle" x="43.13" y="-15.67" font-family="Times New Roman,serif" font-size="14.00">0.02</text>
</g>
<!-- BB1&#45;&gt;BB2 -->
<g id="edge3" class="edge">
<title>BB1&#45;&gt;BB2</title>
<path fill="none" stroke="black" d="M43.13,-89.29C43.13,-81.32 43.13,-72.43 43.13,-63.94"/>
<polygon fill="black" stroke="black" points="46.63,-63.87 43.13,-53.87 39.63,-63.87 46.63,-63.87"/>
</g>
</g>
</svg>
