<?xml version="1.0" encoding="UTF-8" standalone="no"?>
<!DOCTYPE svg PUBLIC "-//W3C//DTD SVG 1.1//EN"
 "http://www.w3.org/Graphics/SVG/1.1/DTD/svg11.dtd">
<!-- Generated by graphviz version 2.47.0 (20210316.0004)
 -->
<!-- Title: G Pages: 1 -->
<svg width="1242pt" height="971pt"
 viewBox="0.00 0.00 1241.67 970.58" xmlns="http://www.w3.org/2000/svg" xmlns:xlink="http://www.w3.org/1999/xlink">
<g id="graph0" class="graph" transform="scale(1 1) rotate(0) translate(4 966.58)">
<title>G</title>
<polygon fill="white" stroke="transparent" points="-4,4 -4,-966.58 1237.67,-966.58 1237.67,4 -4,4"/>
<!-- BB0 -->
<g id="node1" class="node">
<title>BB0</title>
<ellipse fill="none" stroke="black" cx="359.31" cy="-925.1" rx="105.22" ry="37.45"/>
<text text-anchor="middle" x="359.31" y="-936.4" font-family="Times New Roman,serif" font-size="14.00">[0..b)</text>
<text text-anchor="middle" x="359.31" y="-921.4" font-family="Times New Roman,serif" font-size="14.00">Normalized Count: 1.00</text>
<text text-anchor="middle" x="359.31" y="-906.4" font-family="Times New Roman,serif" font-size="14.00">Samples weight: 0.00</text>
</g>
<!-- BB5 -->
<g id="node6" class="node">
<title>BB5</title>
<ellipse fill="none" stroke="black" cx="359.31" cy="-814.15" rx="110.12" ry="37.45"/>
<text text-anchor="middle" x="359.31" y="-825.45" font-family="Times New Roman,serif" font-size="14.00">[27..2c)</text>
<text text-anchor="middle" x="359.31" y="-810.45" font-family="Times New Roman,serif" font-size="14.00">Normalized Count: 51.00</text>
<text text-anchor="middle" x="359.31" y="-795.45" font-family="Times New Roman,serif" font-size="14.00">Samples weight: 0.00</text>
</g>
<!-- BB0&#45;&gt;BB5 -->
<g id="edge1" class="edge">
<title>BB0&#45;&gt;BB5</title>
<path fill="none" stroke="black" d="M359.31,-887.52C359.31,-879.35 359.31,-870.57 359.31,-862.04"/>
<polygon fill="black" stroke="black" points="362.81,-861.82 359.31,-851.82 355.81,-861.82 362.81,-861.82"/>
</g>
<!-- BB1 -->
<g id="node2" class="node">
<title>BB1</title>
<ellipse fill="none" stroke="black" cx="359.31" cy="-703.2" rx="110.12" ry="37.45"/>
<text text-anchor="middle" x="359.31" y="-714.5" font-family="Times New Roman,serif" font-size="14.00">[b..f)</text>
<text text-anchor="middle" x="359.31" y="-699.5" font-family="Times New Roman,serif" font-size="14.00">Normalized Count: 50.00</text>
<text text-anchor="middle" x="359.31" y="-684.5" font-family="Times New Roman,serif" font-size="14.00">Samples weight: 0.00</text>
</g>
<!-- BB3 -->
<g id="node4" class="node">
<title>BB3</title>
<ellipse fill="none" stroke="black" cx="359.31" cy="-592.24" rx="120.42" ry="37.45"/>
<text text-anchor="middle" x="359.31" y="-603.54" font-family="Times New Roman,serif" font-size="14.00">[1e..23)</text>
<text text-anchor="middle" x="359.31" y="-588.54" font-family="Times New Roman,serif" font-size="14.00">Normalized Count: 2550.00</text>
<text text-anchor="middle" x="359.31" y="-573.54" font-family="Times New Roman,serif" font-size="14.00">Samples weight: 0.03</text>
</g>
<!-- BB1&#45;&gt;BB3 -->
<g id="edge2" class="edge">
<title>BB1&#45;&gt;BB3</title>
<path fill="none" stroke="black" d="M359.31,-665.61C359.31,-657.44 359.31,-648.66 359.31,-640.13"/>
<polygon fill="black" stroke="black" points="362.81,-639.92 359.31,-629.92 355.81,-639.92 362.81,-639.92"/>
</g>
<!-- BB2 -->
<g id="node3" class="node">
<title>BB2</title>
<ellipse fill="none" stroke="black" cx="359.31" cy="-481.29" rx="120.42" ry="37.45"/>
<text text-anchor="middle" x="359.31" y="-492.59" font-family="Times New Roman,serif" font-size="14.00">[f..1e)</text>
<text text-anchor="middle" x="359.31" y="-477.59" font-family="Times New Roman,serif" font-size="14.00">Normalized Count: 2500.00</text>
<text text-anchor="middle" x="359.31" y="-462.59" font-family="Times New Roman,serif" font-size="14.00">Samples weight: 0.03</text>
</g>
<!-- BB2&#45;&gt;BB3 -->
<g id="edge3" class="edge">
<title>BB2&#45;&gt;BB3</title>
<path fill="none" stroke="black" d="M365.73,-518.96C366.04,-527.14 366.13,-535.92 366,-544.45"/>
<polygon fill="black" stroke="black" points="362.49,-544.57 365.72,-554.66 369.49,-544.76 362.49,-544.57"/>
</g>
<!-- BB3&#45;&gt;BB2 -->
<g id="edge4" class="edge">
<title>BB3&#45;&gt;BB2</title>
<path fill="none" stroke="black" d="M352.89,-554.66C352.58,-546.49 352.48,-537.71 352.62,-529.18"/>
<polygon fill="black" stroke="black" points="356.12,-529.05 352.89,-518.96 349.12,-528.86 356.12,-529.05"/>
</g>
<!-- BB4 -->
<g id="node5" class="node">
<title>BB4</title>
<ellipse fill="none" stroke="black" cx="110.31" cy="-481.29" rx="110.12" ry="37.45"/>
<text text-anchor="middle" x="110.31" y="-492.59" font-family="Times New Roman,serif" font-size="14.00">[23..27)</text>
<text text-anchor="middle" x="110.31" y="-477.59" font-family="Times New Roman,serif" font-size="14.00">Normalized Count: 50.00</text>
<text text-anchor="middle" x="110.31" y="-462.59" font-family="Times New Roman,serif" font-size="14.00">Samples weight: 0.00</text>
</g>
<!-- BB3&#45;&gt;BB4 -->
<g id="edge5" class="edge">
<title>BB3&#45;&gt;BB4</title>
<path fill="none" stroke="black" d="M290.94,-561.33C258.43,-547.1 219.47,-530.06 186.07,-515.44"/>
<polygon fill="black" stroke="black" points="187.37,-512.19 176.81,-511.39 184.56,-518.6 187.37,-512.19"/>
</g>
<!-- BB4&#45;&gt;BB5 -->
<g id="edge6" class="edge">
<title>BB4&#45;&gt;BB5</title>
<path fill="none" stroke="black" d="M121.38,-518.62C139.22,-572.36 178.69,-673.86 240.31,-740.67 253.65,-755.13 270.52,-767.72 287.33,-778.17"/>
<polygon fill="black" stroke="black" points="285.73,-781.29 296.1,-783.43 289.33,-775.28 285.73,-781.29"/>
</g>
<!-- BB5&#45;&gt;BB1 -->
<g id="edge7" class="edge">
<title>BB5&#45;&gt;BB1</title>
<path fill="none" stroke="black" d="M359.31,-776.57C359.31,-768.39 359.31,-759.61 359.31,-751.09"/>
<polygon fill="black" stroke="black" points="362.81,-750.87 359.31,-740.87 355.81,-750.87 362.81,-750.87"/>
</g>
<!-- BB6 -->
<g id="node7" class="node">
<title>BB6</title>
<ellipse fill="none" stroke="black" cx="600.31" cy="-703.2" rx="105.22" ry="37.45"/>
<text text-anchor="middle" x="600.31" y="-714.5" font-family="Times New Roman,serif" font-size="14.00">[2c..30)</text>
<text text-anchor="middle" x="600.31" y="-699.5" font-family="Times New Roman,serif" font-size="14.00">Normalized Count: 1.00</text>
<text text-anchor="middle" x="600.31" y="-684.5" font-family="Times New Roman,serif" font-size="14.00">Samples weight: 0.00</text>
</g>
<!-- BB5&#45;&gt;BB6 -->
<g id="edge8" class="edge">
<title>BB5&#45;&gt;BB6</title>
<path fill="none" stroke="black" d="M424.21,-783.81C455.8,-769.53 493.93,-752.29 526.62,-737.51"/>
<polygon fill="black" stroke="black" points="528.46,-740.52 536.13,-733.21 525.57,-734.14 528.46,-740.52"/>
</g>
<!-- BB13 -->
<g id="node14" class="node">
<title>BB13</title>
<ellipse fill="none" stroke="black" cx="631.31" cy="-592.24" rx="110.12" ry="37.45"/>
<text text-anchor="middle" x="631.31" y="-603.54" font-family="Times New Roman,serif" font-size="14.00">[70..75)</text>
<text text-anchor="middle" x="631.31" y="-588.54" font-family="Times New Roman,serif" font-size="14.00">Normalized Count: 51.00</text>
<text text-anchor="middle" x="631.31" y="-573.54" font-family="Times New Roman,serif" font-size="14.00">Samples weight: 0.00</text>
</g>
<!-- BB6&#45;&gt;BB13 -->
<g id="edge9" class="edge">
<title>BB6&#45;&gt;BB13</title>
<path fill="none" stroke="black" d="M610.72,-665.61C613.09,-657.26 615.65,-648.27 618.13,-639.57"/>
<polygon fill="black" stroke="black" points="621.5,-640.49 620.87,-629.92 614.77,-638.58 621.5,-640.49"/>
</g>
<!-- BB7 -->
<g id="node8" class="node">
<title>BB7</title>
<ellipse fill="none" stroke="black" cx="650.31" cy="-481.29" rx="110.12" ry="37.45"/>
<text text-anchor="middle" x="650.31" y="-492.59" font-family="Times New Roman,serif" font-size="14.00">[30..34)</text>
<text text-anchor="middle" x="650.31" y="-477.59" font-family="Times New Roman,serif" font-size="14.00">Normalized Count: 50.00</text>
<text text-anchor="middle" x="650.31" y="-462.59" font-family="Times New Roman,serif" font-size="14.00">Samples weight: 0.00</text>
</g>
<!-- BB11 -->
<g id="node12" class="node">
<title>BB11</title>
<ellipse fill="none" stroke="black" cx="655.31" cy="-370.34" rx="120.42" ry="37.45"/>
<text text-anchor="middle" x="655.31" y="-381.64" font-family="Times New Roman,serif" font-size="14.00">[67..6c)</text>
<text text-anchor="middle" x="655.31" y="-366.64" font-family="Times New Roman,serif" font-size="14.00">Normalized Count: 2550.00</text>
<text text-anchor="middle" x="655.31" y="-351.64" font-family="Times New Roman,serif" font-size="14.00">Samples weight: 0.03</text>
</g>
<!-- BB7&#45;&gt;BB11 -->
<g id="edge10" class="edge">
<title>BB7&#45;&gt;BB11</title>
<path fill="none" stroke="black" d="M651.99,-443.71C652.36,-435.53 652.77,-426.75 653.16,-418.23"/>
<polygon fill="black" stroke="black" points="656.66,-418.16 653.63,-408.01 649.67,-417.84 656.66,-418.16"/>
</g>
<!-- BB8 -->
<g id="node9" class="node">
<title>BB8</title>
<ellipse fill="none" stroke="black" cx="802.31" cy="-259.38" rx="120.42" ry="37.45"/>
<text text-anchor="middle" x="802.31" y="-270.68" font-family="Times New Roman,serif" font-size="14.00">[34..36)</text>
<text text-anchor="middle" x="802.31" y="-255.68" font-family="Times New Roman,serif" font-size="14.00">Normalized Count: 2500.00</text>
<text text-anchor="middle" x="802.31" y="-240.68" font-family="Times New Roman,serif" font-size="14.00">Samples weight: 0.03</text>
</g>
<!-- BB9 -->
<g id="node10" class="node">
<title>BB9</title>
<ellipse fill="none" stroke="black" cx="804.31" cy="-148.43" rx="124.4" ry="37.45"/>
<text text-anchor="middle" x="804.31" y="-159.73" font-family="Times New Roman,serif" font-size="14.00">[36..63)</text>
<text text-anchor="middle" x="804.31" y="-144.73" font-family="Times New Roman,serif" font-size="14.00">Normalized Count: 62500.00</text>
<text text-anchor="middle" x="804.31" y="-129.73" font-family="Times New Roman,serif" font-size="14.00">Samples weight: 0.83</text>
</g>
<!-- BB8&#45;&gt;BB9 -->
<g id="edge11" class="edge">
<title>BB8&#45;&gt;BB9</title>
<path fill="none" stroke="black" d="M802.98,-221.8C803.13,-213.63 803.29,-204.85 803.45,-196.32"/>
<polygon fill="black" stroke="black" points="806.95,-196.16 803.64,-186.1 799.95,-196.04 806.95,-196.16"/>
</g>
<!-- BB9&#45;&gt;BB9 -->
<g id="edge12" class="edge">
<title>BB9&#45;&gt;BB9</title>
<path fill="none" stroke="black" d="M909.92,-168.27C931.39,-166.11 946.76,-159.49 946.76,-148.43 946.76,-139.18 936.02,-133.04 919.95,-130.01"/>
<polygon fill="black" stroke="black" points="920.31,-126.53 909.92,-128.59 919.33,-133.46 920.31,-126.53"/>
</g>
<!-- BB10 -->
<g id="node11" class="node">
<title>BB10</title>
<ellipse fill="none" stroke="black" cx="728.31" cy="-37.48" rx="120.42" ry="37.45"/>
<text text-anchor="middle" x="728.31" y="-48.78" font-family="Times New Roman,serif" font-size="14.00">[63..67)</text>
<text text-anchor="middle" x="728.31" y="-33.78" font-family="Times New Roman,serif" font-size="14.00">Normalized Count: 2500.00</text>
<text text-anchor="middle" x="728.31" y="-18.78" font-family="Times New Roman,serif" font-size="14.00">Samples weight: 0.03</text>
</g>
<!-- BB9&#45;&gt;BB10 -->
<g id="edge13" class="edge">
<title>BB9&#45;&gt;BB10</title>
<path fill="none" stroke="black" d="M779.21,-111.45C772.79,-102.25 765.81,-92.24 759.14,-82.68"/>
<polygon fill="black" stroke="black" points="761.97,-80.62 753.38,-74.42 756.23,-84.62 761.97,-80.62"/>
</g>
<!-- BB10&#45;&gt;BB11 -->
<g id="edge14" class="edge">
<title>BB10&#45;&gt;BB11</title>
<path fill="none" stroke="black" d="M693.96,-73.4C685.01,-84.54 676.44,-97.49 671.31,-110.95 644.6,-181.04 645.91,-269.54 650.06,-322.67"/>
<polygon fill="black" stroke="black" points="646.59,-323.14 650.92,-332.81 653.57,-322.55 646.59,-323.14"/>
</g>
<!-- BB11&#45;&gt;BB8 -->
<g id="edge15" class="edge">
<title>BB11&#45;&gt;BB8</title>
<path fill="none" stroke="black" d="M701.01,-335.46C715.95,-324.39 732.68,-311.99 748.17,-300.51"/>
<polygon fill="black" stroke="black" points="750.68,-303.01 756.63,-294.24 746.51,-297.38 750.68,-303.01"/>
</g>
<!-- BB12 -->
<g id="node13" class="node">
<title>BB12</title>
<ellipse fill="none" stroke="black" cx="512.31" cy="-259.38" rx="110.12" ry="37.45"/>
<text text-anchor="middle" x="512.31" y="-270.68" font-family="Times New Roman,serif" font-size="14.00">[6c..70)</text>
<text text-anchor="middle" x="512.31" y="-255.68" font-family="Times New Roman,serif" font-size="14.00">Normalized Count: 50.00</text>
<text text-anchor="middle" x="512.31" y="-240.68" font-family="Times New Roman,serif" font-size="14.00">Samples weight: 0.00</text>
</g>
<!-- BB11&#45;&gt;BB12 -->
<g id="edge16" class="edge">
<title>BB11&#45;&gt;BB12</title>
<path fill="none" stroke="black" d="M610.85,-335.46C596.18,-324.29 579.74,-311.76 564.54,-300.18"/>
<polygon fill="black" stroke="black" points="566.33,-297.14 556.25,-293.86 562.09,-302.71 566.33,-297.14"/>
</g>
<!-- BB12&#45;&gt;BB13 -->
<g id="edge17" class="edge">
<title>BB12&#45;&gt;BB13</title>
<path fill="none" stroke="black" d="M505.85,-296.92C498.47,-349.59 492,-448.24 531.31,-518.77 539.02,-532.59 550.59,-544.47 563.17,-554.38"/>
<polygon fill="black" stroke="black" points="561.43,-557.45 571.55,-560.6 565.61,-551.83 561.43,-557.45"/>
</g>
<!-- BB13&#45;&gt;BB7 -->
<g id="edge18" class="edge">
<title>BB13&#45;&gt;BB7</title>
<path fill="none" stroke="black" d="M637.69,-554.66C639.13,-546.4 640.68,-537.51 642.18,-528.9"/>
<polygon fill="black" stroke="black" points="645.64,-529.41 643.91,-518.96 638.75,-528.21 645.64,-529.41"/>
</g>
<!-- BB14 -->
<g id="node15" class="node">
<title>BB14</title>
<ellipse fill="none" stroke="black" cx="899.31" cy="-481.29" rx="105.22" ry="37.45"/>
<text text-anchor="middle" x="899.31" y="-492.59" font-family="Times New Roman,serif" font-size="14.00">[75..7e)</text>
<text text-anchor="middle" x="899.31" y="-477.59" font-family="Times New Roman,serif" font-size="14.00">Normalized Count: 1.00</text>
<text text-anchor="middle" x="899.31" y="-462.59" font-family="Times New Roman,serif" font-size="14.00">Samples weight: 0.00</text>
</g>
<!-- BB13&#45;&gt;BB14 -->
<g id="edge19" class="edge">
<title>BB13&#45;&gt;BB14</title>
<path fill="none" stroke="black" d="M700.67,-563.04C737.7,-547.99 783.4,-529.41 821.62,-513.88"/>
<polygon fill="black" stroke="black" points="823.22,-517 831.16,-509.99 820.58,-510.52 823.22,-517"/>
</g>
<!-- BB15 -->
<g id="node16" class="node">
<title>BB15</title>
<ellipse fill="none" stroke="black" cx="899.31" cy="-370.34" rx="105.22" ry="37.45"/>
<text text-anchor="middle" x="899.31" y="-381.64" font-family="Times New Roman,serif" font-size="14.00">[7e..80)</text>
<text text-anchor="middle" x="899.31" y="-366.64" font-family="Times New Roman,serif" font-size="14.00">Normalized Count: 0.00</text>
<text text-anchor="middle" x="899.31" y="-351.64" font-family="Times New Roman,serif" font-size="14.00">Samples weight: 0.00</text>
</g>
<!-- BB14&#45;&gt;BB15 -->
<g id="edge21" class="edge">
<title>BB14&#45;&gt;BB15</title>
<path fill="none" stroke="black" d="M899.31,-443.71C899.31,-435.53 899.31,-426.75 899.31,-418.23"/>
<polygon fill="black" stroke="black" points="902.81,-418.01 899.31,-408.01 895.81,-418.01 902.81,-418.01"/>
</g>
<!-- BB16 -->
<g id="node17" class="node">
<title>BB16</title>
<ellipse fill="none" stroke="black" cx="1128.31" cy="-370.34" rx="105.22" ry="37.45"/>
<text text-anchor="middle" x="1128.31" y="-381.64" font-family="Times New Roman,serif" font-size="14.00">[80..82)</text>
<text text-anchor="middle" x="1128.31" y="-366.64" font-family="Times New Roman,serif" font-size="14.00">Normalized Count: 1.00</text>
<text text-anchor="middle" x="1128.31" y="-351.64" font-family="Times New Roman,serif" font-size="14.00">Samples weight: 0.00</text>
</g>
<!-- BB14&#45;&gt;BB16 -->
<g id="edge20" class="edge">
<title>BB14&#45;&gt;BB16</title>
<path fill="none" stroke="black" d="M961.28,-450.81C990.81,-436.76 1026.29,-419.87 1056.94,-405.29"/>
<polygon fill="black" stroke="black" points="1058.76,-408.3 1066.29,-400.84 1055.75,-401.98 1058.76,-408.3"/>
</g>
</g>
</svg>
