<?xml version="1.0" encoding="UTF-8" standalone="no"?>
<!DOCTYPE svg PUBLIC "-//W3C//DTD SVG 1.1//EN"
 "http://www.w3.org/Graphics/SVG/1.1/DTD/svg11.dtd">
<!-- Generated by graphviz version 2.47.0 (20210316.0004)
 -->
<!-- Title: G Pages: 1 -->
<svg width="566pt" height="633pt"
 viewBox="0.00 0.00 566.48 632.83" xmlns="http://www.w3.org/2000/svg" xmlns:xlink="http://www.w3.org/1999/xlink">
<g id="graph0" class="graph" transform="scale(1 1) rotate(0) translate(4 628.83)">
<title>G</title>
<polygon fill="white" stroke="transparent" points="-4,4 -4,-628.83 562.48,-628.83 562.48,4 -4,4"/>
<!-- BB0 -->
<g id="node1" class="node">
<title>BB0</title>
<ellipse fill="none" stroke="black" cx="343.24" cy="-576.75" rx="103.48" ry="48.17"/>
<text text-anchor="middle" x="343.24" y="-595.55" font-family="Times New Roman,serif" font-size="14.00">[0..e)</text>
<text text-anchor="middle" x="343.24" y="-580.55" font-family="Times New Roman,serif" font-size="14.00">Count: 150</text>
<text text-anchor="middle" x="343.24" y="-565.55" font-family="Times New Roman,serif" font-size="14.00">Normalized count: 1.00</text>
<text text-anchor="middle" x="343.24" y="-550.55" font-family="Times New Roman,serif" font-size="14.00">Samples weight: 0.03</text>
</g>
<!-- BB1 -->
<g id="node2" class="node">
<title>BB1</title>
<ellipse fill="none" stroke="black" cx="231.24" cy="-444.58" rx="103.48" ry="48.17"/>
<text text-anchor="middle" x="231.24" y="-463.38" font-family="Times New Roman,serif" font-size="14.00">[e..16)</text>
<text text-anchor="middle" x="231.24" y="-448.38" font-family="Times New Roman,serif" font-size="14.00">Count: 9</text>
<text text-anchor="middle" x="231.24" y="-433.38" font-family="Times New Roman,serif" font-size="14.00">Normalized count: 0.06</text>
<text text-anchor="middle" x="231.24" y="-418.38" font-family="Times New Roman,serif" font-size="14.00">Samples weight: 0.00</text>
</g>
<!-- BB0&#45;&gt;BB1 -->
<g id="edge2" class="edge">
<title>BB0&#45;&gt;BB1</title>
<path fill="none" stroke="black" d="M305.32,-531.68C295.83,-520.65 285.57,-508.73 275.79,-497.36"/>
<polygon fill="black" stroke="black" points="278.29,-494.9 269.12,-489.61 272.99,-499.47 278.29,-494.9"/>
</g>
<!-- BB6 -->
<g id="node7" class="node">
<title>BB6</title>
<ellipse fill="none" stroke="black" cx="455.24" cy="-444.58" rx="103.48" ry="48.17"/>
<text text-anchor="middle" x="455.24" y="-463.38" font-family="Times New Roman,serif" font-size="14.00">[62..64)</text>
<text text-anchor="middle" x="455.24" y="-448.38" font-family="Times New Roman,serif" font-size="14.00">Count: 158</text>
<text text-anchor="middle" x="455.24" y="-433.38" font-family="Times New Roman,serif" font-size="14.00">Normalized count: 1.05</text>
<text text-anchor="middle" x="455.24" y="-418.38" font-family="Times New Roman,serif" font-size="14.00">Samples weight: 0.03</text>
</g>
<!-- BB0&#45;&gt;BB6 -->
<g id="edge1" class="edge">
<title>BB0&#45;&gt;BB6</title>
<path fill="none" stroke="black" d="M381.16,-531.68C390.64,-520.65 400.91,-508.73 410.68,-497.36"/>
<polygon fill="black" stroke="black" points="413.49,-499.47 417.36,-489.61 408.18,-494.9 413.49,-499.47"/>
</g>
<!-- BB2 -->
<g id="node3" class="node">
<title>BB2</title>
<ellipse fill="none" stroke="black" cx="254.24" cy="-312.42" rx="103.48" ry="48.17"/>
<text text-anchor="middle" x="254.24" y="-331.22" font-family="Times New Roman,serif" font-size="14.00">[16..1e)</text>
<text text-anchor="middle" x="254.24" y="-316.22" font-family="Times New Roman,serif" font-size="14.00">Count: 172</text>
<text text-anchor="middle" x="254.24" y="-301.22" font-family="Times New Roman,serif" font-size="14.00">Normalized count: 1.15</text>
<text text-anchor="middle" x="254.24" y="-286.22" font-family="Times New Roman,serif" font-size="14.00">Samples weight: 0.04</text>
</g>
<!-- BB1&#45;&gt;BB2 -->
<g id="edge3" class="edge">
<title>BB1&#45;&gt;BB2</title>
<path fill="none" stroke="black" d="M239.54,-396.59C241.02,-388.22 242.58,-379.41 244.1,-370.78"/>
<polygon fill="black" stroke="black" points="247.58,-371.23 245.87,-360.78 240.68,-370.02 247.58,-371.23"/>
</g>
<!-- BB3 -->
<g id="node4" class="node">
<title>BB3</title>
<ellipse fill="none" stroke="black" cx="103.24" cy="-180.25" rx="103.48" ry="48.17"/>
<text text-anchor="middle" x="103.24" y="-199.05" font-family="Times New Roman,serif" font-size="14.00">[1e..2c)</text>
<text text-anchor="middle" x="103.24" y="-184.05" font-family="Times New Roman,serif" font-size="14.00">Count: 288</text>
<text text-anchor="middle" x="103.24" y="-169.05" font-family="Times New Roman,serif" font-size="14.00">Normalized count: 1.92</text>
<text text-anchor="middle" x="103.24" y="-154.05" font-family="Times New Roman,serif" font-size="14.00">Samples weight: 0.06</text>
</g>
<!-- BB2&#45;&gt;BB3 -->
<g id="edge5" class="edge">
<title>BB2&#45;&gt;BB3</title>
<path fill="none" stroke="black" d="M206.05,-269.87C191.2,-257.07 174.72,-242.87 159.39,-229.65"/>
<polygon fill="black" stroke="black" points="161.35,-226.72 151.49,-222.84 156.78,-232.03 161.35,-226.72"/>
</g>
<!-- BB5 -->
<g id="node6" class="node">
<title>BB5</title>
<ellipse fill="none" stroke="black" cx="332.24" cy="-180.25" rx="108.38" ry="48.17"/>
<text text-anchor="middle" x="332.24" y="-199.05" font-family="Times New Roman,serif" font-size="14.00">[46..62)</text>
<text text-anchor="middle" x="332.24" y="-184.05" font-family="Times New Roman,serif" font-size="14.00">Count: 1989</text>
<text text-anchor="middle" x="332.24" y="-169.05" font-family="Times New Roman,serif" font-size="14.00">Normalized count: 13.26</text>
<text text-anchor="middle" x="332.24" y="-154.05" font-family="Times New Roman,serif" font-size="14.00">Samples weight: 0.42</text>
</g>
<!-- BB2&#45;&gt;BB5 -->
<g id="edge4" class="edge">
<title>BB2&#45;&gt;BB5</title>
<path fill="none" stroke="black" d="M275.46,-265.16C281.08,-255.32 287.3,-244.86 293.5,-234.78"/>
<polygon fill="black" stroke="black" points="296.63,-236.39 298.94,-226.05 290.69,-232.69 296.63,-236.39"/>
</g>
<!-- BB4 -->
<g id="node5" class="node">
<title>BB4</title>
<ellipse fill="none" stroke="black" cx="217.24" cy="-48.08" rx="108.38" ry="48.17"/>
<text text-anchor="middle" x="217.24" y="-66.88" font-family="Times New Roman,serif" font-size="14.00">[2c..46)</text>
<text text-anchor="middle" x="217.24" y="-51.88" font-family="Times New Roman,serif" font-size="14.00">Count: 2023</text>
<text text-anchor="middle" x="217.24" y="-36.88" font-family="Times New Roman,serif" font-size="14.00">Normalized count: 13.49</text>
<text text-anchor="middle" x="217.24" y="-21.88" font-family="Times New Roman,serif" font-size="14.00">Samples weight: 0.42</text>
</g>
<!-- BB3&#45;&gt;BB4 -->
<g id="edge6" class="edge">
<title>BB3&#45;&gt;BB4</title>
<path fill="none" stroke="black" d="M141.52,-135.54C151.19,-124.5 161.66,-112.54 171.66,-101.13"/>
<polygon fill="black" stroke="black" points="174.52,-103.17 178.48,-93.34 169.26,-98.56 174.52,-103.17"/>
</g>
<!-- BB4&#45;&gt;BB4 -->
<g id="edge7" class="edge">
<title>BB4&#45;&gt;BB4</title>
<path fill="none" stroke="black" d="M311.34,-71.81C330.07,-69.14 343.42,-61.23 343.42,-48.08 343.42,-37.4 334.61,-30.18 321.26,-26.41"/>
<polygon fill="black" stroke="black" points="321.84,-22.96 311.34,-24.35 320.42,-29.81 321.84,-22.96"/>
</g>
<!-- BB4&#45;&gt;BB5 -->
<g id="edge8" class="edge">
<title>BB4&#45;&gt;BB5</title>
<path fill="none" stroke="black" d="M256.13,-93.11C265.87,-104.13 276.41,-116.06 286.45,-127.42"/>
<polygon fill="black" stroke="black" points="284.06,-130 293.3,-135.18 289.31,-125.37 284.06,-130"/>
</g>
<!-- BB5&#45;&gt;BB2 -->
<g id="edge9" class="edge">
<title>BB5&#45;&gt;BB2</title>
<path fill="none" stroke="black" d="M311.04,-227.46C305.42,-237.3 299.19,-247.78 292.98,-257.87"/>
<polygon fill="black" stroke="black" points="289.85,-256.28 287.53,-266.62 295.79,-259.98 289.85,-256.28"/>
</g>
<!-- BB5&#45;&gt;BB6 -->
<g id="edge10" class="edge">
<title>BB5&#45;&gt;BB6</title>
<path fill="none" stroke="black" d="M353.93,-227.52C374.94,-272.33 406.82,-340.31 429.19,-388.03"/>
<polygon fill="black" stroke="black" points="426.12,-389.72 433.53,-397.29 432.45,-386.75 426.12,-389.72"/>
</g>
</g>
</svg>
