<?xml version="1.0" encoding="UTF-8" standalone="no"?>
<!DOCTYPE svg PUBLIC "-//W3C//DTD SVG 1.1//EN"
 "http://www.w3.org/Graphics/SVG/1.1/DTD/svg11.dtd">
<!-- Generated by graphviz version 2.47.0 (20210316.0004)
 -->
<!-- Title: G Pages: 1 -->
<svg width="829pt" height="1161pt"
 viewBox="0.00 0.00 828.70 1161.50" xmlns="http://www.w3.org/2000/svg" xmlns:xlink="http://www.w3.org/1999/xlink">
<g id="graph0" class="graph" transform="scale(1 1) rotate(0) translate(4 1157.5)">
<title>G</title>
<polygon fill="white" stroke="transparent" points="-4,4 -4,-1157.5 824.7,-1157.5 824.7,4 -4,4"/>
<!-- BB0 -->
<g id="node1" class="node">
<title>BB0</title>
<ellipse fill="none" stroke="black" cx="282.28" cy="-1105.42" rx="103.48" ry="48.17"/>
<text text-anchor="middle" x="282.28" y="-1124.22" font-family="Times New Roman,serif" font-size="14.00">[0..20)</text>
<text text-anchor="middle" x="282.28" y="-1109.22" font-family="Times New Roman,serif" font-size="14.00">Count: 1</text>
<text text-anchor="middle" x="282.28" y="-1094.22" font-family="Times New Roman,serif" font-size="14.00">Normalized count: 1.00</text>
<text text-anchor="middle" x="282.28" y="-1079.22" font-family="Times New Roman,serif" font-size="14.00">Samples weight: 0.00</text>
</g>
<!-- BB11 -->
<g id="node12" class="node">
<title>BB11</title>
<ellipse fill="none" stroke="black" cx="282.28" cy="-973.25" rx="127.06" ry="48.17"/>
<text text-anchor="middle" x="282.28" y="-992.05" font-family="Times New Roman,serif" font-size="14.00">[60..63)</text>
<text text-anchor="middle" x="282.28" y="-977.05" font-family="Times New Roman,serif" font-size="14.00">Count: 500001</text>
<text text-anchor="middle" x="282.28" y="-962.05" font-family="Times New Roman,serif" font-size="14.00">Normalized count: 500001.00</text>
<text text-anchor="middle" x="282.28" y="-947.05" font-family="Times New Roman,serif" font-size="14.00">Samples weight: 0.00</text>
</g>
<!-- BB0&#45;&gt;BB11 -->
<g id="edge1" class="edge">
<title>BB0&#45;&gt;BB11</title>
<path fill="none" stroke="black" d="M282.28,-1057.05C282.28,-1048.79 282.28,-1040.1 282.28,-1031.6"/>
<polygon fill="black" stroke="black" points="285.78,-1031.36 282.28,-1021.36 278.78,-1031.36 285.78,-1031.36"/>
</g>
<!-- BB1 -->
<g id="node2" class="node">
<title>BB1</title>
<ellipse fill="none" stroke="black" cx="282.28" cy="-841.08" rx="127.06" ry="48.17"/>
<text text-anchor="middle" x="282.28" y="-859.88" font-family="Times New Roman,serif" font-size="14.00">[20..24)</text>
<text text-anchor="middle" x="282.28" y="-844.88" font-family="Times New Roman,serif" font-size="14.00">Count: 500000</text>
<text text-anchor="middle" x="282.28" y="-829.88" font-family="Times New Roman,serif" font-size="14.00">Normalized count: 500000.00</text>
<text text-anchor="middle" x="282.28" y="-814.88" font-family="Times New Roman,serif" font-size="14.00">Samples weight: 0.00</text>
</g>
<!-- BB9 -->
<g id="node10" class="node">
<title>BB9</title>
<ellipse fill="none" stroke="black" cx="285.28" cy="-708.92" rx="132.46" ry="48.17"/>
<text text-anchor="middle" x="285.28" y="-727.72" font-family="Times New Roman,serif" font-size="14.00">[56..5b)</text>
<text text-anchor="middle" x="285.28" y="-712.72" font-family="Times New Roman,serif" font-size="14.00">Count: 5500000</text>
<text text-anchor="middle" x="285.28" y="-697.72" font-family="Times New Roman,serif" font-size="14.00">Normalized count: 5500000.00</text>
<text text-anchor="middle" x="285.28" y="-682.72" font-family="Times New Roman,serif" font-size="14.00">Samples weight: 0.00</text>
</g>
<!-- BB1&#45;&gt;BB9 -->
<g id="edge2" class="edge">
<title>BB1&#45;&gt;BB9</title>
<path fill="none" stroke="black" d="M283.37,-792.72C283.56,-784.45 283.76,-775.77 283.96,-767.27"/>
<polygon fill="black" stroke="black" points="287.46,-767.1 284.19,-757.02 280.46,-766.94 287.46,-767.1"/>
</g>
<!-- BB2 -->
<g id="node3" class="node">
<title>BB2</title>
<ellipse fill="none" stroke="black" cx="445.28" cy="-576.75" rx="132.46" ry="48.17"/>
<text text-anchor="middle" x="445.28" y="-595.55" font-family="Times New Roman,serif" font-size="14.00">[24..28)</text>
<text text-anchor="middle" x="445.28" y="-580.55" font-family="Times New Roman,serif" font-size="14.00">Count: 5000000</text>
<text text-anchor="middle" x="445.28" y="-565.55" font-family="Times New Roman,serif" font-size="14.00">Normalized count: 5000000.00</text>
<text text-anchor="middle" x="445.28" y="-550.55" font-family="Times New Roman,serif" font-size="14.00">Samples weight: 0.00</text>
</g>
<!-- BB7 -->
<g id="node8" class="node">
<title>BB7</title>
<ellipse fill="none" stroke="black" cx="448.28" cy="-444.58" rx="137.36" ry="48.17"/>
<text text-anchor="middle" x="448.28" y="-463.38" font-family="Times New Roman,serif" font-size="14.00">[4d..52)</text>
<text text-anchor="middle" x="448.28" y="-448.38" font-family="Times New Roman,serif" font-size="14.00">Count: 55000000</text>
<text text-anchor="middle" x="448.28" y="-433.38" font-family="Times New Roman,serif" font-size="14.00">Normalized count: 55000000.00</text>
<text text-anchor="middle" x="448.28" y="-418.38" font-family="Times New Roman,serif" font-size="14.00">Samples weight: 0.05</text>
</g>
<!-- BB2&#45;&gt;BB7 -->
<g id="edge3" class="edge">
<title>BB2&#45;&gt;BB7</title>
<path fill="none" stroke="black" d="M446.37,-528.39C446.56,-520.12 446.76,-511.44 446.96,-502.93"/>
<polygon fill="black" stroke="black" points="450.46,-502.77 447.19,-492.69 443.46,-502.61 450.46,-502.77"/>
</g>
<!-- BB3 -->
<g id="node4" class="node">
<title>BB3</title>
<ellipse fill="none" stroke="black" cx="629.28" cy="-312.42" rx="137.36" ry="48.17"/>
<text text-anchor="middle" x="629.28" y="-331.22" font-family="Times New Roman,serif" font-size="14.00">[28..2d)</text>
<text text-anchor="middle" x="629.28" y="-316.22" font-family="Times New Roman,serif" font-size="14.00">Count: 50000000</text>
<text text-anchor="middle" x="629.28" y="-301.22" font-family="Times New Roman,serif" font-size="14.00">Normalized count: 50000000.00</text>
<text text-anchor="middle" x="629.28" y="-286.22" font-family="Times New Roman,serif" font-size="14.00">Samples weight: 0.04</text>
</g>
<!-- BB5 -->
<g id="node6" class="node">
<title>BB5</title>
<ellipse fill="none" stroke="black" cx="647.28" cy="-180.25" rx="141.34" ry="48.17"/>
<text text-anchor="middle" x="647.28" y="-199.05" font-family="Times New Roman,serif" font-size="14.00">[43..49)</text>
<text text-anchor="middle" x="647.28" y="-184.05" font-family="Times New Roman,serif" font-size="14.00">Count: 550000000</text>
<text text-anchor="middle" x="647.28" y="-169.05" font-family="Times New Roman,serif" font-size="14.00">Normalized count: 550000000.00</text>
<text text-anchor="middle" x="647.28" y="-154.05" font-family="Times New Roman,serif" font-size="14.00">Samples weight: 0.45</text>
</g>
<!-- BB3&#45;&gt;BB5 -->
<g id="edge4" class="edge">
<title>BB3&#45;&gt;BB5</title>
<path fill="none" stroke="black" d="M635.83,-264.05C636.98,-255.7 638.2,-246.91 639.39,-238.32"/>
<polygon fill="black" stroke="black" points="642.86,-238.74 640.76,-228.36 635.93,-237.78 642.86,-238.74"/>
</g>
<!-- BB4 -->
<g id="node5" class="node">
<title>BB4</title>
<ellipse fill="none" stroke="black" cx="679.28" cy="-48.08" rx="141.34" ry="48.17"/>
<text text-anchor="middle" x="679.28" y="-66.88" font-family="Times New Roman,serif" font-size="14.00">[2d..43)</text>
<text text-anchor="middle" x="679.28" y="-51.88" font-family="Times New Roman,serif" font-size="14.00">Count: 500000000</text>
<text text-anchor="middle" x="679.28" y="-36.88" font-family="Times New Roman,serif" font-size="14.00">Normalized count: 500000000.00</text>
<text text-anchor="middle" x="679.28" y="-21.88" font-family="Times New Roman,serif" font-size="14.00">Samples weight: 0.41</text>
</g>
<!-- BB4&#45;&gt;BB5 -->
<g id="edge5" class="edge">
<title>BB4&#45;&gt;BB5</title>
<path fill="none" stroke="black" d="M674.16,-96.44C672.3,-104.92 670.17,-113.84 667.92,-122.54"/>
<polygon fill="black" stroke="black" points="664.52,-121.69 665.34,-132.26 671.29,-123.49 664.52,-121.69"/>
</g>
<!-- BB5&#45;&gt;BB4 -->
<g id="edge6" class="edge">
<title>BB5&#45;&gt;BB4</title>
<path fill="none" stroke="black" d="M652.4,-131.89C654.26,-123.44 656.38,-114.56 658.62,-105.87"/>
<polygon fill="black" stroke="black" points="662,-106.75 661.18,-96.19 655.24,-104.96 662,-106.75"/>
</g>
<!-- BB6 -->
<g id="node7" class="node">
<title>BB6</title>
<ellipse fill="none" stroke="black" cx="382.28" cy="-48.08" rx="137.36" ry="48.17"/>
<text text-anchor="middle" x="382.28" y="-66.88" font-family="Times New Roman,serif" font-size="14.00">[49..4d)</text>
<text text-anchor="middle" x="382.28" y="-51.88" font-family="Times New Roman,serif" font-size="14.00">Count: 50000000</text>
<text text-anchor="middle" x="382.28" y="-36.88" font-family="Times New Roman,serif" font-size="14.00">Normalized count: 50000000.00</text>
<text text-anchor="middle" x="382.28" y="-21.88" font-family="Times New Roman,serif" font-size="14.00">Samples weight: 0.04</text>
</g>
<!-- BB5&#45;&gt;BB6 -->
<g id="edge7" class="edge">
<title>BB5&#45;&gt;BB6</title>
<path fill="none" stroke="black" d="M568.13,-140.37C537.31,-125.24 501.88,-107.83 470.26,-92.3"/>
<polygon fill="black" stroke="black" points="471.54,-89.03 461.02,-87.76 468.45,-95.31 471.54,-89.03"/>
</g>
<!-- BB6&#45;&gt;BB7 -->
<g id="edge8" class="edge">
<title>BB6&#45;&gt;BB7</title>
<path fill="none" stroke="black" d="M393.07,-96.33C402.72,-139.81 416.78,-206.17 426.28,-264.33 432.9,-304.89 438.51,-350.9 442.41,-386.15"/>
<polygon fill="black" stroke="black" points="438.95,-386.7 443.51,-396.26 445.9,-385.94 438.95,-386.7"/>
</g>
<!-- BB7&#45;&gt;BB3 -->
<g id="edge9" class="edge">
<title>BB7&#45;&gt;BB3</title>
<path fill="none" stroke="black" d="M507.55,-400.96C524.98,-388.42 544.18,-374.62 562.07,-361.75"/>
<polygon fill="black" stroke="black" points="564.11,-364.59 570.19,-355.91 560.03,-358.91 564.11,-364.59"/>
</g>
<!-- BB8 -->
<g id="node9" class="node">
<title>BB8</title>
<ellipse fill="none" stroke="black" cx="285.28" cy="-312.42" rx="132.46" ry="48.17"/>
<text text-anchor="middle" x="285.28" y="-331.22" font-family="Times New Roman,serif" font-size="14.00">[52..56)</text>
<text text-anchor="middle" x="285.28" y="-316.22" font-family="Times New Roman,serif" font-size="14.00">Count: 5000000</text>
<text text-anchor="middle" x="285.28" y="-301.22" font-family="Times New Roman,serif" font-size="14.00">Normalized count: 5000000.00</text>
<text text-anchor="middle" x="285.28" y="-286.22" font-family="Times New Roman,serif" font-size="14.00">Samples weight: 0.00</text>
</g>
<!-- BB7&#45;&gt;BB8 -->
<g id="edge10" class="edge">
<title>BB7&#45;&gt;BB8</title>
<path fill="none" stroke="black" d="M394,-400.24C378.94,-388.21 362.47,-375.06 347.02,-362.72"/>
<polygon fill="black" stroke="black" points="349.04,-359.85 339.04,-356.35 344.67,-365.32 349.04,-359.85"/>
</g>
<!-- BB8&#45;&gt;BB9 -->
<g id="edge11" class="edge">
<title>BB8&#45;&gt;BB9</title>
<path fill="none" stroke="black" d="M285.28,-360.66C285.28,-433.31 285.28,-572.24 285.28,-650.55"/>
<polygon fill="black" stroke="black" points="281.78,-650.72 285.28,-660.72 288.78,-650.72 281.78,-650.72"/>
</g>
<!-- BB9&#45;&gt;BB2 -->
<g id="edge12" class="edge">
<title>BB9&#45;&gt;BB2</title>
<path fill="none" stroke="black" d="M338.56,-664.57C353.27,-652.61 369.34,-639.53 384.44,-627.25"/>
<polygon fill="black" stroke="black" points="386.69,-629.93 392.23,-620.9 382.27,-624.5 386.69,-629.93"/>
</g>
<!-- BB10 -->
<g id="node11" class="node">
<title>BB10</title>
<ellipse fill="none" stroke="black" cx="127.28" cy="-576.75" rx="127.06" ry="48.17"/>
<text text-anchor="middle" x="127.28" y="-595.55" font-family="Times New Roman,serif" font-size="14.00">[5b..60)</text>
<text text-anchor="middle" x="127.28" y="-580.55" font-family="Times New Roman,serif" font-size="14.00">Count: 500000</text>
<text text-anchor="middle" x="127.28" y="-565.55" font-family="Times New Roman,serif" font-size="14.00">Normalized count: 500000.00</text>
<text text-anchor="middle" x="127.28" y="-550.55" font-family="Times New Roman,serif" font-size="14.00">Samples weight: 0.00</text>
</g>
<!-- BB9&#45;&gt;BB10 -->
<g id="edge13" class="edge">
<title>BB9&#45;&gt;BB10</title>
<path fill="none" stroke="black" d="M232.67,-664.57C218.07,-652.54 202.11,-639.4 187.13,-627.05"/>
<polygon fill="black" stroke="black" points="189.34,-624.34 179.39,-620.68 184.88,-629.74 189.34,-624.34"/>
</g>
<!-- BB10&#45;&gt;BB11 -->
<g id="edge14" class="edge">
<title>BB10&#45;&gt;BB11</title>
<path fill="none" stroke="black" d="M117.47,-624.95C106.69,-689.59 96.85,-807.02 146.28,-889.17 156.54,-906.23 171.78,-920.26 188.39,-931.62"/>
<polygon fill="black" stroke="black" points="186.88,-934.81 197.18,-937.32 190.69,-928.94 186.88,-934.81"/>
</g>
<!-- BB11&#45;&gt;BB1 -->
<g id="edge15" class="edge">
<title>BB11&#45;&gt;BB1</title>
<path fill="none" stroke="black" d="M282.28,-924.89C282.28,-916.62 282.28,-907.94 282.28,-899.43"/>
<polygon fill="black" stroke="black" points="285.78,-899.19 282.28,-889.19 278.78,-899.19 285.78,-899.19"/>
</g>
<!-- BB12 -->
<g id="node13" class="node">
<title>BB12</title>
<ellipse fill="none" stroke="black" cx="531.28" cy="-841.08" rx="103.48" ry="48.17"/>
<text text-anchor="middle" x="531.28" y="-859.88" font-family="Times New Roman,serif" font-size="14.00">[63..6b)</text>
<text text-anchor="middle" x="531.28" y="-844.88" font-family="Times New Roman,serif" font-size="14.00">Count: 1</text>
<text text-anchor="middle" x="531.28" y="-829.88" font-family="Times New Roman,serif" font-size="14.00">Normalized count: 1.00</text>
<text text-anchor="middle" x="531.28" y="-814.88" font-family="Times New Roman,serif" font-size="14.00">Samples weight: 0.00</text>
</g>
<!-- BB11&#45;&gt;BB12 -->
<g id="edge16" class="edge">
<title>BB11&#45;&gt;BB12</title>
<path fill="none" stroke="black" d="M355.64,-933.9C386.72,-917.65 422.93,-898.72 454.38,-882.28"/>
<polygon fill="black" stroke="black" points="456.31,-885.22 463.55,-877.49 453.06,-879.02 456.31,-885.22"/>
</g>
</g>
</svg>
