<?xml version="1.0" encoding="UTF-8" standalone="no"?>
<!DOCTYPE svg PUBLIC "-//W3C//DTD SVG 1.1//EN"
 "http://www.w3.org/Graphics/SVG/1.1/DTD/svg11.dtd">
<!-- Generated by graphviz version 2.47.0 (20210316.0004)
 -->
<!-- Title: G Pages: 1 -->
<svg width="509pt" height="780pt"
 viewBox="0.00 0.00 508.97 779.66" xmlns="http://www.w3.org/2000/svg" xmlns:xlink="http://www.w3.org/1999/xlink">
<g id="graph0" class="graph" transform="scale(1 1) rotate(0) translate(4 775.66)">
<title>G</title>
<polygon fill="white" stroke="transparent" points="-4,4 -4,-775.66 504.97,-775.66 504.97,4 -4,4"/>
<!-- BB0 -->
<g id="node1" class="node">
<title>BB0</title>
<ellipse fill="none" stroke="black" cx="43.13" cy="-744.79" rx="37.45" ry="26.74"/>
<text text-anchor="middle" x="43.13" y="-748.59" font-family="Times New Roman,serif" font-size="14.00">[0..17)</text>
<text text-anchor="middle" x="43.13" y="-733.59" font-family="Times New Roman,serif" font-size="14.00">0.00</text>
</g>
<!-- BB2 -->
<g id="node3" class="node">
<title>BB2</title>
<ellipse fill="none" stroke="black" cx="43.13" cy="-655.05" rx="43.27" ry="26.74"/>
<text text-anchor="middle" x="43.13" y="-658.85" font-family="Times New Roman,serif" font-size="14.00">[24..2d)</text>
<text text-anchor="middle" x="43.13" y="-643.85" font-family="Times New Roman,serif" font-size="14.00">0.00</text>
</g>
<!-- BB0&#45;&gt;BB2 -->
<g id="edge1" class="edge">
<title>BB0&#45;&gt;BB2</title>
<path fill="none" stroke="black" d="M43.13,-717.47C43.13,-709.5 43.13,-700.61 43.13,-692.12"/>
<polygon fill="black" stroke="black" points="46.63,-692.05 43.13,-682.05 39.63,-692.05 46.63,-692.05"/>
</g>
<!-- BB1 -->
<g id="node2" class="node">
<title>BB1</title>
<ellipse fill="none" stroke="black" cx="43.13" cy="-565.31" rx="42.35" ry="26.74"/>
<text text-anchor="middle" x="43.13" y="-569.11" font-family="Times New Roman,serif" font-size="14.00">[17..24)</text>
<text text-anchor="middle" x="43.13" y="-554.11" font-family="Times New Roman,serif" font-size="14.00">0.00</text>
</g>
<!-- BB1&#45;&gt;BB2 -->
<g id="edge2" class="edge">
<title>BB1&#45;&gt;BB2</title>
<path fill="none" stroke="black" d="M49.34,-591.98C49.86,-600.17 50.01,-609.4 49.78,-618.18"/>
<polygon fill="black" stroke="black" points="46.28,-618.06 49.35,-628.2 53.28,-618.36 46.28,-618.06"/>
</g>
<!-- BB2&#45;&gt;BB1 -->
<g id="edge3" class="edge">
<title>BB2&#45;&gt;BB1</title>
<path fill="none" stroke="black" d="M36.92,-628.2C36.4,-619.99 36.26,-610.76 36.49,-601.98"/>
<polygon fill="black" stroke="black" points="39.99,-602.12 36.93,-591.98 32.99,-601.81 39.99,-602.12"/>
</g>
<!-- BB3 -->
<g id="node4" class="node">
<title>BB3</title>
<ellipse fill="none" stroke="black" cx="147.13" cy="-565.31" rx="43.27" ry="26.74"/>
<text text-anchor="middle" x="147.13" y="-569.11" font-family="Times New Roman,serif" font-size="14.00">[2d..38)</text>
<text text-anchor="middle" x="147.13" y="-554.11" font-family="Times New Roman,serif" font-size="14.00">0.00</text>
</g>
<!-- BB2&#45;&gt;BB3 -->
<g id="edge4" class="edge">
<title>BB2&#45;&gt;BB3</title>
<path fill="none" stroke="black" d="M68.04,-633.03C81.84,-621.4 99.15,-606.79 114.07,-594.21"/>
<polygon fill="black" stroke="black" points="116.68,-596.58 122.07,-587.46 112.17,-591.23 116.68,-596.58"/>
</g>
<!-- BB5 -->
<g id="node6" class="node">
<title>BB5</title>
<ellipse fill="none" stroke="black" cx="147.13" cy="-475.57" rx="42.35" ry="26.74"/>
<text text-anchor="middle" x="147.13" y="-479.37" font-family="Times New Roman,serif" font-size="14.00">[4c..53)</text>
<text text-anchor="middle" x="147.13" y="-464.37" font-family="Times New Roman,serif" font-size="14.00">0.50</text>
</g>
<!-- BB3&#45;&gt;BB5 -->
<g id="edge5" class="edge">
<title>BB3&#45;&gt;BB5</title>
<path fill="none" stroke="black" d="M147.13,-537.99C147.13,-530.02 147.13,-521.13 147.13,-512.64"/>
<polygon fill="black" stroke="black" points="150.63,-512.57 147.13,-502.57 143.63,-512.57 150.63,-512.57"/>
</g>
<!-- BB4 -->
<g id="node5" class="node">
<title>BB4</title>
<ellipse fill="none" stroke="black" cx="147.13" cy="-385.83" rx="42.35" ry="26.74"/>
<text text-anchor="middle" x="147.13" y="-389.63" font-family="Times New Roman,serif" font-size="14.00">[38..4c)</text>
<text text-anchor="middle" x="147.13" y="-374.63" font-family="Times New Roman,serif" font-size="14.00">0.50</text>
</g>
<!-- BB4&#45;&gt;BB5 -->
<g id="edge6" class="edge">
<title>BB4&#45;&gt;BB5</title>
<path fill="none" stroke="black" d="M153.34,-412.5C153.86,-420.69 154.01,-429.92 153.78,-438.7"/>
<polygon fill="black" stroke="black" points="150.28,-438.58 153.35,-448.72 157.28,-438.88 150.28,-438.58"/>
</g>
<!-- BB5&#45;&gt;BB4 -->
<g id="edge7" class="edge">
<title>BB5&#45;&gt;BB4</title>
<path fill="none" stroke="black" d="M140.92,-448.72C140.4,-440.51 140.26,-431.28 140.49,-422.5"/>
<polygon fill="black" stroke="black" points="143.99,-422.64 140.93,-412.5 136.99,-422.33 143.99,-422.64"/>
</g>
<!-- BB6 -->
<g id="node7" class="node">
<title>BB6</title>
<ellipse fill="none" stroke="black" cx="250.13" cy="-385.83" rx="42.35" ry="26.74"/>
<text text-anchor="middle" x="250.13" y="-389.63" font-family="Times New Roman,serif" font-size="14.00">[53..66)</text>
<text text-anchor="middle" x="250.13" y="-374.63" font-family="Times New Roman,serif" font-size="14.00">0.00</text>
</g>
<!-- BB5&#45;&gt;BB6 -->
<g id="edge8" class="edge">
<title>BB5&#45;&gt;BB6</title>
<path fill="none" stroke="black" d="M171.8,-453.55C185.46,-441.92 202.62,-427.31 217.38,-414.73"/>
<polygon fill="black" stroke="black" points="219.96,-417.13 225.31,-407.98 215.42,-411.8 219.96,-417.13"/>
</g>
<!-- BB11 -->
<g id="node12" class="node">
<title>BB11</title>
<ellipse fill="none" stroke="black" cx="250.13" cy="-296.09" rx="41.94" ry="26.74"/>
<text text-anchor="middle" x="250.13" y="-299.89" font-family="Times New Roman,serif" font-size="14.00">[9c..a2)</text>
<text text-anchor="middle" x="250.13" y="-284.89" font-family="Times New Roman,serif" font-size="14.00">0.00</text>
</g>
<!-- BB6&#45;&gt;BB11 -->
<g id="edge9" class="edge">
<title>BB6&#45;&gt;BB11</title>
<path fill="none" stroke="black" d="M250.13,-358.51C250.13,-350.54 250.13,-341.65 250.13,-333.16"/>
<polygon fill="black" stroke="black" points="253.63,-333.09 250.13,-323.09 246.63,-333.09 253.63,-333.09"/>
</g>
<!-- BB7 -->
<g id="node8" class="node">
<title>BB7</title>
<ellipse fill="none" stroke="black" cx="250.13" cy="-206.35" rx="42.35" ry="26.74"/>
<text text-anchor="middle" x="250.13" y="-210.15" font-family="Times New Roman,serif" font-size="14.00">[66..79)</text>
<text text-anchor="middle" x="250.13" y="-195.15" font-family="Times New Roman,serif" font-size="14.00">0.00</text>
</g>
<!-- BB9 -->
<g id="node10" class="node">
<title>BB9</title>
<ellipse fill="none" stroke="black" cx="250.13" cy="-116.61" rx="41.94" ry="26.74"/>
<text text-anchor="middle" x="250.13" y="-120.41" font-family="Times New Roman,serif" font-size="14.00">[8e..96)</text>
<text text-anchor="middle" x="250.13" y="-105.41" font-family="Times New Roman,serif" font-size="14.00">0.00</text>
</g>
<!-- BB7&#45;&gt;BB9 -->
<g id="edge10" class="edge">
<title>BB7&#45;&gt;BB9</title>
<path fill="none" stroke="black" d="M250.13,-179.03C250.13,-171.06 250.13,-162.17 250.13,-153.68"/>
<polygon fill="black" stroke="black" points="253.63,-153.61 250.13,-143.61 246.63,-153.61 253.63,-153.61"/>
</g>
<!-- BB8 -->
<g id="node9" class="node">
<title>BB8</title>
<ellipse fill="none" stroke="black" cx="251.13" cy="-26.87" rx="41.94" ry="26.74"/>
<text text-anchor="middle" x="251.13" y="-30.67" font-family="Times New Roman,serif" font-size="14.00">[79..8e)</text>
<text text-anchor="middle" x="251.13" y="-15.67" font-family="Times New Roman,serif" font-size="14.00">0.00</text>
</g>
<!-- BB8&#45;&gt;BB9 -->
<g id="edge11" class="edge">
<title>BB8&#45;&gt;BB9</title>
<path fill="none" stroke="black" d="M257.05,-53.54C257.47,-61.73 257.52,-70.96 257.19,-79.74"/>
<polygon fill="black" stroke="black" points="253.7,-79.58 256.64,-89.76 260.68,-79.97 253.7,-79.58"/>
</g>
<!-- BB9&#45;&gt;BB8 -->
<g id="edge12" class="edge">
<title>BB9&#45;&gt;BB8</title>
<path fill="none" stroke="black" d="M244.21,-89.76C243.79,-81.55 243.75,-72.32 244.08,-63.54"/>
<polygon fill="black" stroke="black" points="247.58,-63.71 244.64,-53.54 240.59,-63.33 247.58,-63.71"/>
</g>
<!-- BB10 -->
<g id="node11" class="node">
<title>BB10</title>
<ellipse fill="none" stroke="black" cx="149.13" cy="-26.87" rx="42.35" ry="26.74"/>
<text text-anchor="middle" x="149.13" y="-30.67" font-family="Times New Roman,serif" font-size="14.00">[96..9c)</text>
<text text-anchor="middle" x="149.13" y="-15.67" font-family="Times New Roman,serif" font-size="14.00">0.00</text>
</g>
<!-- BB9&#45;&gt;BB10 -->
<g id="edge13" class="edge">
<title>BB9&#45;&gt;BB10</title>
<path fill="none" stroke="black" d="M225.94,-94.59C212.55,-82.96 195.73,-68.35 181.25,-55.77"/>
<polygon fill="black" stroke="black" points="183.32,-52.93 173.48,-49.02 178.73,-58.22 183.32,-52.93"/>
</g>
<!-- BB10&#45;&gt;BB11 -->
<g id="edge14" class="edge">
<title>BB10&#45;&gt;BB11</title>
<path fill="none" stroke="black" d="M151.68,-53.79C156.44,-94.04 169.08,-173.18 199.13,-233.22 204.83,-244.6 212.96,-255.74 221.06,-265.36"/>
<polygon fill="black" stroke="black" points="218.58,-267.84 227.8,-273.06 223.85,-263.23 218.58,-267.84"/>
</g>
<!-- BB11&#45;&gt;BB7 -->
<g id="edge15" class="edge">
<title>BB11&#45;&gt;BB7</title>
<path fill="none" stroke="black" d="M250.13,-268.77C250.13,-260.8 250.13,-251.91 250.13,-243.42"/>
<polygon fill="black" stroke="black" points="253.63,-243.35 250.13,-233.35 246.63,-243.35 253.63,-243.35"/>
</g>
<!-- BB12 -->
<g id="node13" class="node">
<title>BB12</title>
<ellipse fill="none" stroke="black" cx="353.13" cy="-206.35" rx="42.35" ry="26.74"/>
<text text-anchor="middle" x="353.13" y="-210.15" font-family="Times New Roman,serif" font-size="14.00">[a2..b5)</text>
<text text-anchor="middle" x="353.13" y="-195.15" font-family="Times New Roman,serif" font-size="14.00">0.00</text>
</g>
<!-- BB11&#45;&gt;BB12 -->
<g id="edge16" class="edge">
<title>BB11&#45;&gt;BB12</title>
<path fill="none" stroke="black" d="M274.54,-274.3C288.3,-262.58 305.65,-247.8 320.55,-235.1"/>
<polygon fill="black" stroke="black" points="323.2,-237.45 328.54,-228.3 318.66,-232.12 323.2,-237.45"/>
</g>
<!-- BB14 -->
<g id="node15" class="node">
<title>BB14</title>
<ellipse fill="none" stroke="black" cx="353.13" cy="-116.61" rx="42.35" ry="26.74"/>
<text text-anchor="middle" x="353.13" y="-120.41" font-family="Times New Roman,serif" font-size="14.00">[ca..d3)</text>
<text text-anchor="middle" x="353.13" y="-105.41" font-family="Times New Roman,serif" font-size="14.00">0.00</text>
</g>
<!-- BB12&#45;&gt;BB14 -->
<g id="edge17" class="edge">
<title>BB12&#45;&gt;BB14</title>
<path fill="none" stroke="black" d="M353.13,-179.03C353.13,-171.06 353.13,-162.17 353.13,-153.68"/>
<polygon fill="black" stroke="black" points="356.63,-153.61 353.13,-143.61 349.63,-153.61 356.63,-153.61"/>
</g>
<!-- BB13 -->
<g id="node14" class="node">
<title>BB13</title>
<ellipse fill="none" stroke="black" cx="353.13" cy="-26.87" rx="42.35" ry="26.74"/>
<text text-anchor="middle" x="353.13" y="-30.67" font-family="Times New Roman,serif" font-size="14.00">[b5..ca)</text>
<text text-anchor="middle" x="353.13" y="-15.67" font-family="Times New Roman,serif" font-size="14.00">0.00</text>
</g>
<!-- BB13&#45;&gt;BB14 -->
<g id="edge18" class="edge">
<title>BB13&#45;&gt;BB14</title>
<path fill="none" stroke="black" d="M359.34,-53.54C359.86,-61.73 360.01,-70.96 359.78,-79.74"/>
<polygon fill="black" stroke="black" points="356.28,-79.62 359.35,-89.76 363.28,-79.92 356.28,-79.62"/>
</g>
<!-- BB14&#45;&gt;BB13 -->
<g id="edge19" class="edge">
<title>BB14&#45;&gt;BB13</title>
<path fill="none" stroke="black" d="M346.92,-89.76C346.4,-81.55 346.26,-72.32 346.49,-63.54"/>
<polygon fill="black" stroke="black" points="349.99,-63.68 346.93,-53.54 342.99,-63.37 349.99,-63.68"/>
</g>
<!-- BB15 -->
<g id="node16" class="node">
<title>BB15</title>
<ellipse fill="none" stroke="black" cx="457.13" cy="-26.87" rx="43.68" ry="26.74"/>
<text text-anchor="middle" x="457.13" y="-30.67" font-family="Times New Roman,serif" font-size="14.00">[d3..d5)</text>
<text text-anchor="middle" x="457.13" y="-15.67" font-family="Times New Roman,serif" font-size="14.00">0.00</text>
</g>
<!-- BB14&#45;&gt;BB15 -->
<g id="edge20" class="edge">
<title>BB14&#45;&gt;BB15</title>
<path fill="none" stroke="black" d="M378.04,-94.59C391.84,-82.96 409.15,-68.35 424.07,-55.77"/>
<polygon fill="black" stroke="black" points="426.68,-58.14 432.07,-49.02 422.17,-52.79 426.68,-58.14"/>
</g>
</g>
</svg>
