<?xml version="1.0" encoding="UTF-8" standalone="no"?>
<!DOCTYPE svg PUBLIC "-//W3C//DTD SVG 1.1//EN"
 "http://www.w3.org/Graphics/SVG/1.1/DTD/svg11.dtd">
<!-- Generated by graphviz version 2.47.0 (20210316.0004)
 -->
<!-- Title: G Pages: 1 -->
<svg width="713pt" height="638pt"
 viewBox="0.00 0.00 712.51 637.72" xmlns="http://www.w3.org/2000/svg" xmlns:xlink="http://www.w3.org/1999/xlink">
<g id="graph0" class="graph" transform="scale(1 1) rotate(0) translate(4 633.72)">
<title>G</title>
<polygon fill="white" stroke="transparent" points="-4,4 -4,-633.72 708.51,-633.72 708.51,4 -4,4"/>
<!-- BB0 -->
<g id="node1" class="node">
<title>BB0</title>
<ellipse fill="none" stroke="black" cx="332.21" cy="-592.24" rx="105.22" ry="37.45"/>
<text text-anchor="middle" x="332.21" y="-603.54" font-family="Times New Roman,serif" font-size="14.00">[0..a)</text>
<text text-anchor="middle" x="332.21" y="-588.54" font-family="Times New Roman,serif" font-size="14.00">Normalized Count: 1.00</text>
<text text-anchor="middle" x="332.21" y="-573.54" font-family="Times New Roman,serif" font-size="14.00">Samples weight: 0.00</text>
</g>
<!-- BB7 -->
<g id="node8" class="node">
<title>BB7</title>
<ellipse fill="none" stroke="black" cx="332.21" cy="-481.29" rx="120.42" ry="37.45"/>
<text text-anchor="middle" x="332.21" y="-492.59" font-family="Times New Roman,serif" font-size="14.00">[34..38)</text>
<text text-anchor="middle" x="332.21" y="-477.59" font-family="Times New Roman,serif" font-size="14.00">Normalized Count: 7500.00</text>
<text text-anchor="middle" x="332.21" y="-462.59" font-family="Times New Roman,serif" font-size="14.00">Samples weight: 0.00</text>
</g>
<!-- BB0&#45;&gt;BB7 -->
<g id="edge1" class="edge">
<title>BB0&#45;&gt;BB7</title>
<path fill="none" stroke="black" d="M332.21,-554.66C332.21,-546.49 332.21,-537.71 332.21,-529.18"/>
<polygon fill="black" stroke="black" points="335.71,-528.96 332.21,-518.96 328.71,-528.96 335.71,-528.96"/>
</g>
<!-- BB1 -->
<g id="node2" class="node">
<title>BB1</title>
<ellipse fill="none" stroke="black" cx="332.21" cy="-370.34" rx="120.42" ry="37.45"/>
<text text-anchor="middle" x="332.21" y="-381.64" font-family="Times New Roman,serif" font-size="14.00">[a..e)</text>
<text text-anchor="middle" x="332.21" y="-366.64" font-family="Times New Roman,serif" font-size="14.00">Normalized Count: 7499.00</text>
<text text-anchor="middle" x="332.21" y="-351.64" font-family="Times New Roman,serif" font-size="14.00">Samples weight: 0.00</text>
</g>
<!-- BB5 -->
<g id="node6" class="node">
<title>BB5</title>
<ellipse fill="none" stroke="black" cx="370.21" cy="-259.38" rx="139.1" ry="37.45"/>
<text text-anchor="middle" x="370.21" y="-270.68" font-family="Times New Roman,serif" font-size="14.00">[28..30)</text>
<text text-anchor="middle" x="370.21" y="-255.68" font-family="Times New Roman,serif" font-size="14.00">Normalized Count: 28136248.00</text>
<text text-anchor="middle" x="370.21" y="-240.68" font-family="Times New Roman,serif" font-size="14.00">Samples weight: 0.29</text>
</g>
<!-- BB1&#45;&gt;BB5 -->
<g id="edge2" class="edge">
<title>BB1&#45;&gt;BB5</title>
<path fill="none" stroke="black" d="M344.86,-333.06C347.84,-324.51 351.06,-315.29 354.17,-306.38"/>
<polygon fill="black" stroke="black" points="357.49,-307.47 357.48,-296.88 350.88,-305.17 357.49,-307.47"/>
</g>
<!-- BB2 -->
<g id="node3" class="node">
<title>BB2</title>
<ellipse fill="none" stroke="black" cx="398.21" cy="-148.43" rx="139.1" ry="37.45"/>
<text text-anchor="middle" x="398.21" y="-159.73" font-family="Times New Roman,serif" font-size="14.00">[e..16)</text>
<text text-anchor="middle" x="398.21" y="-144.73" font-family="Times New Roman,serif" font-size="14.00">Normalized Count: 28128749.00</text>
<text text-anchor="middle" x="398.21" y="-129.73" font-family="Times New Roman,serif" font-size="14.00">Samples weight: 0.29</text>
</g>
<!-- BB3 -->
<g id="node4" class="node">
<title>BB3</title>
<ellipse fill="none" stroke="black" cx="268.21" cy="-37.48" rx="139.1" ry="37.45"/>
<text text-anchor="middle" x="268.21" y="-48.78" font-family="Times New Roman,serif" font-size="14.00">[16..24)</text>
<text text-anchor="middle" x="268.21" y="-33.78" font-family="Times New Roman,serif" font-size="14.00">Normalized Count: 13967128.00</text>
<text text-anchor="middle" x="268.21" y="-18.78" font-family="Times New Roman,serif" font-size="14.00">Samples weight: 0.14</text>
</g>
<!-- BB2&#45;&gt;BB3 -->
<g id="edge4" class="edge">
<title>BB2&#45;&gt;BB3</title>
<path fill="none" stroke="black" d="M356.36,-112.36C344.07,-102.05 330.5,-90.69 317.78,-80.02"/>
<polygon fill="black" stroke="black" points="319.89,-77.23 309.98,-73.48 315.39,-82.59 319.89,-77.23"/>
</g>
<!-- BB4 -->
<g id="node5" class="node">
<title>BB4</title>
<ellipse fill="none" stroke="black" cx="565.21" cy="-37.48" rx="139.1" ry="37.45"/>
<text text-anchor="middle" x="565.21" y="-48.78" font-family="Times New Roman,serif" font-size="14.00">[24..28)</text>
<text text-anchor="middle" x="565.21" y="-33.78" font-family="Times New Roman,serif" font-size="14.00">Normalized Count: 28128749.00</text>
<text text-anchor="middle" x="565.21" y="-18.78" font-family="Times New Roman,serif" font-size="14.00">Samples weight: 0.29</text>
</g>
<!-- BB2&#45;&gt;BB4 -->
<g id="edge3" class="edge">
<title>BB2&#45;&gt;BB4</title>
<path fill="none" stroke="black" d="M450.13,-113.55C467.41,-102.28 486.81,-89.63 504.68,-77.97"/>
<polygon fill="black" stroke="black" points="506.85,-80.73 513.32,-72.33 503.03,-74.86 506.85,-80.73"/>
</g>
<!-- BB3&#45;&gt;BB4 -->
<g id="edge5" class="edge">
<title>BB3&#45;&gt;BB4</title>
<path fill="none" stroke="black" d="M407.72,-37.48C410.36,-37.48 413.01,-37.48 415.66,-37.48"/>
<polygon fill="black" stroke="black" points="415.87,-40.98 425.87,-37.48 415.87,-33.98 415.87,-40.98"/>
</g>
<!-- BB4&#45;&gt;BB5 -->
<g id="edge6" class="edge">
<title>BB4&#45;&gt;BB5</title>
<path fill="none" stroke="black" d="M570.08,-75.02C572.36,-107.42 570.39,-154.37 546.21,-185.91 530.85,-205.93 509,-220.46 485.89,-230.99"/>
<polygon fill="black" stroke="black" points="484.43,-227.8 476.63,-234.97 487.2,-234.23 484.43,-227.8"/>
</g>
<!-- BB5&#45;&gt;BB2 -->
<g id="edge7" class="edge">
<title>BB5&#45;&gt;BB2</title>
<path fill="none" stroke="black" d="M379.61,-221.8C381.73,-213.54 384.02,-204.65 386.23,-196.04"/>
<polygon fill="black" stroke="black" points="389.68,-196.66 388.78,-186.1 382.9,-194.92 389.68,-196.66"/>
</g>
<!-- BB6 -->
<g id="node7" class="node">
<title>BB6</title>
<ellipse fill="none" stroke="black" cx="120.21" cy="-148.43" rx="120.42" ry="37.45"/>
<text text-anchor="middle" x="120.21" y="-159.73" font-family="Times New Roman,serif" font-size="14.00">[30..34)</text>
<text text-anchor="middle" x="120.21" y="-144.73" font-family="Times New Roman,serif" font-size="14.00">Normalized Count: 7499.00</text>
<text text-anchor="middle" x="120.21" y="-129.73" font-family="Times New Roman,serif" font-size="14.00">Samples weight: 0.00</text>
</g>
<!-- BB5&#45;&gt;BB6 -->
<g id="edge8" class="edge">
<title>BB5&#45;&gt;BB6</title>
<path fill="none" stroke="black" d="M298.57,-227.16C267.18,-213.48 230.27,-197.4 198.19,-183.42"/>
<polygon fill="black" stroke="black" points="199.41,-180.13 188.85,-179.34 196.61,-186.55 199.41,-180.13"/>
</g>
<!-- BB6&#45;&gt;BB7 -->
<g id="edge9" class="edge">
<title>BB6&#45;&gt;BB7</title>
<path fill="none" stroke="black" d="M123.52,-185.96C130.11,-239.95 149.26,-341.76 203.21,-407.81 215.8,-423.23 232.59,-435.96 249.88,-446.21"/>
<polygon fill="black" stroke="black" points="248.52,-449.46 258.95,-451.34 251.97,-443.37 248.52,-449.46"/>
</g>
<!-- BB7&#45;&gt;BB1 -->
<g id="edge10" class="edge">
<title>BB7&#45;&gt;BB1</title>
<path fill="none" stroke="black" d="M332.21,-443.71C332.21,-435.53 332.21,-426.75 332.21,-418.23"/>
<polygon fill="black" stroke="black" points="335.71,-418.01 332.21,-408.01 328.71,-418.01 335.71,-418.01"/>
</g>
<!-- BB8 -->
<g id="node9" class="node">
<title>BB8</title>
<ellipse fill="none" stroke="black" cx="576.21" cy="-370.34" rx="105.22" ry="37.45"/>
<text text-anchor="middle" x="576.21" y="-381.64" font-family="Times New Roman,serif" font-size="14.00">[38..39)</text>
<text text-anchor="middle" x="576.21" y="-366.64" font-family="Times New Roman,serif" font-size="14.00">Normalized Count: 1.00</text>
<text text-anchor="middle" x="576.21" y="-351.64" font-family="Times New Roman,serif" font-size="14.00">Samples weight: 0.00</text>
</g>
<!-- BB7&#45;&gt;BB8 -->
<g id="edge11" class="edge">
<title>BB7&#45;&gt;BB8</title>
<path fill="none" stroke="black" d="M399.53,-450.23C431.37,-436.01 469.47,-419 502.13,-404.41"/>
<polygon fill="black" stroke="black" points="503.93,-407.45 511.63,-400.17 501.07,-401.05 503.93,-407.45"/>
</g>
</g>
</svg>
