<?xml version="1.0" encoding="UTF-8" standalone="no"?>
<!DOCTYPE svg PUBLIC "-//W3C//DTD SVG 1.1//EN"
 "http://www.w3.org/Graphics/SVG/1.1/DTD/svg11.dtd">
<!-- Generated by graphviz version 2.47.0 (20210316.0004)
 -->
<!-- Title: G Pages: 1 -->
<svg width="399pt" height="510pt"
 viewBox="0.00 0.00 398.56 510.44" xmlns="http://www.w3.org/2000/svg" xmlns:xlink="http://www.w3.org/1999/xlink">
<g id="graph0" class="graph" transform="scale(1 1) rotate(0) translate(4 506.44)">
<title>G</title>
<polygon fill="white" stroke="transparent" points="-4,4 -4,-506.44 394.56,-506.44 394.56,4 -4,4"/>
<!-- BB0 -->
<g id="node1" class="node">
<title>BB0</title>
<ellipse fill="none" stroke="black" cx="199.13" cy="-475.57" rx="37.45" ry="26.74"/>
<text text-anchor="middle" x="199.13" y="-479.37" font-family="Times New Roman,serif" font-size="14.00">[0..18)</text>
<text text-anchor="middle" x="199.13" y="-464.37" font-family="Times New Roman,serif" font-size="14.00">0.05</text>
</g>
<!-- BB4 -->
<g id="node5" class="node">
<title>BB4</title>
<ellipse fill="none" stroke="black" cx="199.13" cy="-385.83" rx="41.94" ry="26.74"/>
<text text-anchor="middle" x="199.13" y="-389.63" font-family="Times New Roman,serif" font-size="14.00">[26..2e)</text>
<text text-anchor="middle" x="199.13" y="-374.63" font-family="Times New Roman,serif" font-size="14.00">0.25</text>
</g>
<!-- BB0&#45;&gt;BB4 -->
<g id="edge1" class="edge">
<title>BB0&#45;&gt;BB4</title>
<path fill="none" stroke="black" d="M199.13,-448.25C199.13,-440.28 199.13,-431.39 199.13,-422.9"/>
<polygon fill="black" stroke="black" points="202.63,-422.83 199.13,-412.83 195.63,-422.83 202.63,-422.83"/>
</g>
<!-- BB1 -->
<g id="node2" class="node">
<title>BB1</title>
<ellipse fill="none" stroke="black" cx="147.13" cy="-296.09" rx="43.27" ry="26.74"/>
<text text-anchor="middle" x="147.13" y="-299.89" font-family="Times New Roman,serif" font-size="14.00">[18..1d)</text>
<text text-anchor="middle" x="147.13" y="-284.89" font-family="Times New Roman,serif" font-size="14.00">0.23</text>
</g>
<!-- BB2 -->
<g id="node3" class="node">
<title>BB2</title>
<ellipse fill="none" stroke="black" cx="147.13" cy="-206.35" rx="43.27" ry="26.74"/>
<text text-anchor="middle" x="147.13" y="-210.15" font-family="Times New Roman,serif" font-size="14.00">[1d..22)</text>
<text text-anchor="middle" x="147.13" y="-195.15" font-family="Times New Roman,serif" font-size="14.00">0.05</text>
</g>
<!-- BB1&#45;&gt;BB2 -->
<g id="edge3" class="edge">
<title>BB1&#45;&gt;BB2</title>
<path fill="none" stroke="black" d="M147.13,-268.77C147.13,-260.8 147.13,-251.91 147.13,-243.42"/>
<polygon fill="black" stroke="black" points="150.63,-243.35 147.13,-233.35 143.63,-243.35 150.63,-243.35"/>
</g>
<!-- BB3 -->
<g id="node4" class="node">
<title>BB3</title>
<ellipse fill="none" stroke="black" cx="43.13" cy="-206.35" rx="42.35" ry="26.74"/>
<text text-anchor="middle" x="43.13" y="-210.15" font-family="Times New Roman,serif" font-size="14.00">[22..26)</text>
<text text-anchor="middle" x="43.13" y="-195.15" font-family="Times New Roman,serif" font-size="14.00">0.18</text>
</g>
<!-- BB1&#45;&gt;BB3 -->
<g id="edge2" class="edge">
<title>BB1&#45;&gt;BB3</title>
<path fill="none" stroke="black" d="M122.22,-274.07C108.33,-262.35 90.86,-247.61 75.87,-234.97"/>
<polygon fill="black" stroke="black" points="77.74,-231.97 67.84,-228.19 73.23,-237.32 77.74,-231.97"/>
</g>
<!-- BB11 -->
<g id="node12" class="node">
<title>BB11</title>
<ellipse fill="none" stroke="black" cx="147.13" cy="-116.61" rx="43.27" ry="26.74"/>
<text text-anchor="middle" x="147.13" y="-120.41" font-family="Times New Roman,serif" font-size="14.00">[5d..60)</text>
<text text-anchor="middle" x="147.13" y="-105.41" font-family="Times New Roman,serif" font-size="14.00">0.05</text>
</g>
<!-- BB2&#45;&gt;BB11 -->
<g id="edge4" class="edge">
<title>BB2&#45;&gt;BB11</title>
<path fill="none" stroke="black" d="M147.13,-179.03C147.13,-171.06 147.13,-162.17 147.13,-153.68"/>
<polygon fill="black" stroke="black" points="150.63,-153.61 147.13,-143.61 143.63,-153.61 150.63,-153.61"/>
</g>
<!-- BB3&#45;&gt;BB4 -->
<g id="edge5" class="edge">
<title>BB3&#45;&gt;BB4</title>
<path fill="none" stroke="black" d="M49.84,-233.32C57.42,-258.57 71.84,-296.85 95.13,-322.96 111.51,-341.31 134.65,-355.82 154.96,-366.16"/>
<polygon fill="black" stroke="black" points="153.53,-369.36 164.05,-370.62 156.61,-363.07 153.53,-369.36"/>
</g>
<!-- BB4&#45;&gt;BB1 -->
<g id="edge6" class="edge">
<title>BB4&#45;&gt;BB1</title>
<path fill="none" stroke="black" d="M184.65,-360.39C179.17,-351.15 172.84,-340.47 166.96,-330.54"/>
<polygon fill="black" stroke="black" points="169.83,-328.52 161.72,-321.7 163.81,-332.09 169.83,-328.52"/>
</g>
<!-- BB5 -->
<g id="node6" class="node">
<title>BB5</title>
<ellipse fill="none" stroke="black" cx="251.13" cy="-296.09" rx="41.94" ry="26.74"/>
<text text-anchor="middle" x="251.13" y="-299.89" font-family="Times New Roman,serif" font-size="14.00">[2e..37)</text>
<text text-anchor="middle" x="251.13" y="-284.89" font-family="Times New Roman,serif" font-size="14.00">0.01</text>
</g>
<!-- BB4&#45;&gt;BB5 -->
<g id="edge7" class="edge">
<title>BB4&#45;&gt;BB5</title>
<path fill="none" stroke="black" d="M213.62,-360.39C219.14,-351.07 225.53,-340.29 231.45,-330.29"/>
<polygon fill="black" stroke="black" points="234.64,-331.79 236.73,-321.4 228.62,-328.22 234.64,-331.79"/>
</g>
<!-- BB9 -->
<g id="node10" class="node">
<title>BB9</title>
<ellipse fill="none" stroke="black" cx="251.13" cy="-206.35" rx="42.35" ry="26.74"/>
<text text-anchor="middle" x="251.13" y="-210.15" font-family="Times New Roman,serif" font-size="14.00">[50..55)</text>
<text text-anchor="middle" x="251.13" y="-195.15" font-family="Times New Roman,serif" font-size="14.00">0.06</text>
</g>
<!-- BB5&#45;&gt;BB9 -->
<g id="edge8" class="edge">
<title>BB5&#45;&gt;BB9</title>
<path fill="none" stroke="black" d="M251.13,-268.77C251.13,-260.8 251.13,-251.91 251.13,-243.42"/>
<polygon fill="black" stroke="black" points="254.63,-243.35 251.13,-233.35 247.63,-243.35 254.63,-243.35"/>
</g>
<!-- BB6 -->
<g id="node7" class="node">
<title>BB6</title>
<ellipse fill="none" stroke="black" cx="288.13" cy="-116.61" rx="42.35" ry="26.74"/>
<text text-anchor="middle" x="288.13" y="-120.41" font-family="Times New Roman,serif" font-size="14.00">[37..43)</text>
<text text-anchor="middle" x="288.13" y="-105.41" font-family="Times New Roman,serif" font-size="14.00">0.06</text>
</g>
<!-- BB7 -->
<g id="node8" class="node">
<title>BB7</title>
<ellipse fill="none" stroke="black" cx="348.13" cy="-26.87" rx="42.35" ry="26.74"/>
<text text-anchor="middle" x="348.13" y="-30.67" font-family="Times New Roman,serif" font-size="14.00">[43..4c)</text>
<text text-anchor="middle" x="348.13" y="-15.67" font-family="Times New Roman,serif" font-size="14.00">0.01</text>
</g>
<!-- BB6&#45;&gt;BB7 -->
<g id="edge10" class="edge">
<title>BB6&#45;&gt;BB7</title>
<path fill="none" stroke="black" d="M304.53,-91.63C311.14,-81.96 318.88,-70.65 325.98,-60.27"/>
<polygon fill="black" stroke="black" points="329,-62.05 331.76,-51.82 323.22,-58.1 329,-62.05"/>
</g>
<!-- BB8 -->
<g id="node9" class="node">
<title>BB8</title>
<ellipse fill="none" stroke="black" cx="236.13" cy="-26.87" rx="42.35" ry="26.74"/>
<text text-anchor="middle" x="236.13" y="-30.67" font-family="Times New Roman,serif" font-size="14.00">[4c..50)</text>
<text text-anchor="middle" x="236.13" y="-15.67" font-family="Times New Roman,serif" font-size="14.00">0.04</text>
</g>
<!-- BB6&#45;&gt;BB8 -->
<g id="edge9" class="edge">
<title>BB6&#45;&gt;BB8</title>
<path fill="none" stroke="black" d="M273.65,-91.17C268.13,-81.85 261.74,-71.07 255.81,-61.07"/>
<polygon fill="black" stroke="black" points="258.65,-59 250.54,-52.18 252.63,-62.57 258.65,-59"/>
</g>
<!-- BB7&#45;&gt;BB4 -->
<g id="edge11" class="edge">
<title>BB7&#45;&gt;BB4</title>
<path fill="none" stroke="black" d="M351.3,-53.97C356.58,-109.14 361.35,-239.41 302.13,-322.96 287.91,-343.03 264.93,-357.74 244.28,-367.77"/>
<polygon fill="black" stroke="black" points="242.61,-364.68 235,-372.05 245.54,-371.04 242.61,-364.68"/>
</g>
<!-- BB8&#45;&gt;BB9 -->
<g id="edge12" class="edge">
<title>BB8&#45;&gt;BB9</title>
<path fill="none" stroke="black" d="M234.77,-54.14C233.93,-77.64 233.59,-112.98 237.13,-143.48 238.14,-152.13 239.86,-161.34 241.75,-169.93"/>
<polygon fill="black" stroke="black" points="238.35,-170.73 244.03,-179.67 245.16,-169.14 238.35,-170.73"/>
</g>
<!-- BB9&#45;&gt;BB6 -->
<g id="edge13" class="edge">
<title>BB9&#45;&gt;BB6</title>
<path fill="none" stroke="black" d="M261.84,-179.97C265.48,-171.33 269.62,-161.52 273.51,-152.28"/>
<polygon fill="black" stroke="black" points="276.79,-153.51 277.46,-142.93 270.34,-150.79 276.79,-153.51"/>
</g>
<!-- BB10 -->
<g id="node11" class="node">
<title>BB10</title>
<ellipse fill="none" stroke="black" cx="43.13" cy="-116.61" rx="43.27" ry="26.74"/>
<text text-anchor="middle" x="43.13" y="-120.41" font-family="Times New Roman,serif" font-size="14.00">[55..5d)</text>
<text text-anchor="middle" x="43.13" y="-105.41" font-family="Times New Roman,serif" font-size="14.00">0.00</text>
</g>
<!-- BB9&#45;&gt;BB10 -->
<g id="edge14" class="edge">
<title>BB9&#45;&gt;BB10</title>
<path fill="none" stroke="black" d="M218.98,-188.55C212.48,-185.38 205.64,-182.21 199.13,-179.48 154.03,-160.55 140.23,-162.41 95.13,-143.48 91.73,-142.05 88.23,-140.5 84.73,-138.89"/>
<polygon fill="black" stroke="black" points="86.1,-135.67 75.57,-134.54 83.1,-141.99 86.1,-135.67"/>
</g>
<!-- BB10&#45;&gt;BB11 -->
<g id="edge15" class="edge">
<title>BB10&#45;&gt;BB11</title>
<path fill="none" stroke="black" d="M86.6,-116.61C88.91,-116.61 91.21,-116.61 93.52,-116.61"/>
<polygon fill="black" stroke="black" points="93.63,-120.11 103.63,-116.61 93.63,-113.11 93.63,-120.11"/>
</g>
</g>
</svg>
