<?xml version="1.0" encoding="UTF-8" standalone="no"?>
<!DOCTYPE svg PUBLIC "-//W3C//DTD SVG 1.1//EN"
 "http://www.w3.org/Graphics/SVG/1.1/DTD/svg11.dtd">
<!-- Generated by graphviz version 2.47.0 (20210316.0004)
 -->
<!-- Title: G Pages: 1 -->
<svg width="252pt" height="368pt"
 viewBox="0.00 0.00 252.27 368.50" xmlns="http://www.w3.org/2000/svg" xmlns:xlink="http://www.w3.org/1999/xlink">
<g id="graph0" class="graph" transform="scale(1 1) rotate(0) translate(4 364.5)">
<title>G</title>
<polygon fill="white" stroke="transparent" points="-4,4 -4,-364.5 248.27,-364.5 248.27,4 -4,4"/>
<!-- BB0 -->
<g id="node1" class="node">
<title>BB0</title>
<ellipse fill="none" stroke="black" cx="113.14" cy="-312.42" rx="103.48" ry="48.17"/>
<text text-anchor="middle" x="113.14" y="-331.22" font-family="Times New Roman,serif" font-size="14.00">[0..2)</text>
<text text-anchor="middle" x="113.14" y="-316.22" font-family="Times New Roman,serif" font-size="14.00">Count: 1</text>
<text text-anchor="middle" x="113.14" y="-301.22" font-family="Times New Roman,serif" font-size="14.00">Normalized count: 1.00</text>
<text text-anchor="middle" x="113.14" y="-286.22" font-family="Times New Roman,serif" font-size="14.00">Samples weight: 0.01</text>
</g>
<!-- BB1 -->
<g id="node2" class="node">
<title>BB1</title>
<ellipse fill="none" stroke="black" cx="113.14" cy="-180.25" rx="113.27" ry="48.17"/>
<text text-anchor="middle" x="113.14" y="-199.05" font-family="Times New Roman,serif" font-size="14.00">[2..6b)</text>
<text text-anchor="middle" x="113.14" y="-184.05" font-family="Times New Roman,serif" font-size="14.00">Count: 106</text>
<text text-anchor="middle" x="113.14" y="-169.05" font-family="Times New Roman,serif" font-size="14.00">Normalized count: 106.00</text>
<text text-anchor="middle" x="113.14" y="-154.05" font-family="Times New Roman,serif" font-size="14.00">Samples weight: 0.98</text>
</g>
<!-- BB0&#45;&gt;BB1 -->
<g id="edge1" class="edge">
<title>BB0&#45;&gt;BB1</title>
<path fill="none" stroke="black" d="M113.14,-264.05C113.14,-255.79 113.14,-247.1 113.14,-238.6"/>
<polygon fill="black" stroke="black" points="116.64,-238.36 113.14,-228.36 109.64,-238.36 116.64,-238.36"/>
</g>
<!-- BB1&#45;&gt;BB1 -->
<g id="edge2" class="edge">
<title>BB1&#45;&gt;BB1</title>
<path fill="none" stroke="black" d="M211.79,-203.86C230.8,-201.07 244.27,-193.2 244.27,-180.25 244.27,-169.72 235.38,-162.56 221.85,-158.74"/>
<polygon fill="black" stroke="black" points="222.29,-155.26 211.79,-156.64 220.86,-162.11 222.29,-155.26"/>
</g>
<!-- BB2 -->
<g id="node3" class="node">
<title>BB2</title>
<ellipse fill="none" stroke="black" cx="113.14" cy="-48.08" rx="103.48" ry="48.17"/>
<text text-anchor="middle" x="113.14" y="-66.88" font-family="Times New Roman,serif" font-size="14.00">[6b..6c)</text>
<text text-anchor="middle" x="113.14" y="-51.88" font-family="Times New Roman,serif" font-size="14.00">Count: 1</text>
<text text-anchor="middle" x="113.14" y="-36.88" font-family="Times New Roman,serif" font-size="14.00">Normalized count: 1.00</text>
<text text-anchor="middle" x="113.14" y="-21.88" font-family="Times New Roman,serif" font-size="14.00">Samples weight: 0.01</text>
</g>
<!-- BB1&#45;&gt;BB2 -->
<g id="edge3" class="edge">
<title>BB1&#45;&gt;BB2</title>
<path fill="none" stroke="black" d="M113.14,-131.89C113.14,-123.62 113.14,-114.94 113.14,-106.43"/>
<polygon fill="black" stroke="black" points="116.64,-106.19 113.14,-96.19 109.64,-106.19 116.64,-106.19"/>
</g>
</g>
</svg>
