<?xml version="1.0" encoding="UTF-8" standalone="no"?>
<!DOCTYPE svg PUBLIC "-//W3C//DTD SVG 1.1//EN"
 "http://www.w3.org/Graphics/SVG/1.1/DTD/svg11.dtd">
<!-- Generated by graphviz version 2.47.0 (20210316.0004)
 -->
<!-- Title: G Pages: 1 -->
<svg width="1129pt" height="1029pt"
 viewBox="0.00 0.00 1129.48 1029.33" xmlns="http://www.w3.org/2000/svg" xmlns:xlink="http://www.w3.org/1999/xlink">
<g id="graph0" class="graph" transform="scale(1 1) rotate(0) translate(4 1025.33)">
<title>G</title>
<polygon fill="white" stroke="transparent" points="-4,4 -4,-1025.33 1125.48,-1025.33 1125.48,4 -4,4"/>
<!-- BB0 -->
<g id="node1" class="node">
<title>BB0</title>
<ellipse fill="none" stroke="black" cx="365.24" cy="-973.25" rx="103.48" ry="48.17"/>
<text text-anchor="middle" x="365.24" y="-992.05" font-family="Times New Roman,serif" font-size="14.00">[0..4)</text>
<text text-anchor="middle" x="365.24" y="-977.05" font-family="Times New Roman,serif" font-size="14.00">Count: 5</text>
<text text-anchor="middle" x="365.24" y="-962.05" font-family="Times New Roman,serif" font-size="14.00">Normalized count: 1.00</text>
<text text-anchor="middle" x="365.24" y="-947.05" font-family="Times New Roman,serif" font-size="14.00">Samples weight: 0.01</text>
</g>
<!-- BB6 -->
<g id="node7" class="node">
<title>BB6</title>
<ellipse fill="none" stroke="black" cx="365.24" cy="-841.08" rx="103.48" ry="48.17"/>
<text text-anchor="middle" x="365.24" y="-859.88" font-family="Times New Roman,serif" font-size="14.00">[2e..32)</text>
<text text-anchor="middle" x="365.24" y="-844.88" font-family="Times New Roman,serif" font-size="14.00">Count: 0</text>
<text text-anchor="middle" x="365.24" y="-829.88" font-family="Times New Roman,serif" font-size="14.00">Normalized count: 0.00</text>
<text text-anchor="middle" x="365.24" y="-814.88" font-family="Times New Roman,serif" font-size="14.00">Samples weight: 0.00</text>
</g>
<!-- BB0&#45;&gt;BB6 -->
<g id="edge1" class="edge">
<title>BB0&#45;&gt;BB6</title>
<path fill="none" stroke="black" d="M365.24,-924.89C365.24,-916.62 365.24,-907.94 365.24,-899.43"/>
<polygon fill="black" stroke="black" points="368.74,-899.19 365.24,-889.19 361.74,-899.19 368.74,-899.19"/>
</g>
<!-- BB1 -->
<g id="node2" class="node">
<title>BB1</title>
<ellipse fill="none" stroke="black" cx="234.24" cy="-708.92" rx="103.48" ry="48.17"/>
<text text-anchor="middle" x="234.24" y="-727.72" font-family="Times New Roman,serif" font-size="14.00">[4..10)</text>
<text text-anchor="middle" x="234.24" y="-712.72" font-family="Times New Roman,serif" font-size="14.00">Count: 22</text>
<text text-anchor="middle" x="234.24" y="-697.72" font-family="Times New Roman,serif" font-size="14.00">Normalized count: 4.40</text>
<text text-anchor="middle" x="234.24" y="-682.72" font-family="Times New Roman,serif" font-size="14.00">Samples weight: 0.03</text>
</g>
<!-- BB4 -->
<g id="node5" class="node">
<title>BB4</title>
<ellipse fill="none" stroke="black" cx="234.24" cy="-576.75" rx="103.48" ry="48.17"/>
<text text-anchor="middle" x="234.24" y="-595.55" font-family="Times New Roman,serif" font-size="14.00">[22..26)</text>
<text text-anchor="middle" x="234.24" y="-580.55" font-family="Times New Roman,serif" font-size="14.00">Count: 8</text>
<text text-anchor="middle" x="234.24" y="-565.55" font-family="Times New Roman,serif" font-size="14.00">Normalized count: 1.60</text>
<text text-anchor="middle" x="234.24" y="-550.55" font-family="Times New Roman,serif" font-size="14.00">Samples weight: 0.01</text>
</g>
<!-- BB1&#45;&gt;BB4 -->
<g id="edge2" class="edge">
<title>BB1&#45;&gt;BB4</title>
<path fill="none" stroke="black" d="M234.24,-660.55C234.24,-652.29 234.24,-643.6 234.24,-635.1"/>
<polygon fill="black" stroke="black" points="237.74,-634.86 234.24,-624.86 230.74,-634.86 237.74,-634.86"/>
</g>
<!-- BB2 -->
<g id="node3" class="node">
<title>BB2</title>
<ellipse fill="none" stroke="black" cx="103.24" cy="-444.58" rx="103.48" ry="48.17"/>
<text text-anchor="middle" x="103.24" y="-463.38" font-family="Times New Roman,serif" font-size="14.00">[10..16)</text>
<text text-anchor="middle" x="103.24" y="-448.38" font-family="Times New Roman,serif" font-size="14.00">Count: 14</text>
<text text-anchor="middle" x="103.24" y="-433.38" font-family="Times New Roman,serif" font-size="14.00">Normalized count: 2.80</text>
<text text-anchor="middle" x="103.24" y="-418.38" font-family="Times New Roman,serif" font-size="14.00">Samples weight: 0.02</text>
</g>
<!-- BB3 -->
<g id="node4" class="node">
<title>BB3</title>
<ellipse fill="none" stroke="black" cx="168.24" cy="-312.42" rx="103.48" ry="48.17"/>
<text text-anchor="middle" x="168.24" y="-331.22" font-family="Times New Roman,serif" font-size="14.00">[16..22)</text>
<text text-anchor="middle" x="168.24" y="-316.22" font-family="Times New Roman,serif" font-size="14.00">Count: 0</text>
<text text-anchor="middle" x="168.24" y="-301.22" font-family="Times New Roman,serif" font-size="14.00">Normalized count: 0.00</text>
<text text-anchor="middle" x="168.24" y="-286.22" font-family="Times New Roman,serif" font-size="14.00">Samples weight: 0.00</text>
</g>
<!-- BB2&#45;&gt;BB3 -->
<g id="edge4" class="edge">
<title>BB2&#45;&gt;BB3</title>
<path fill="none" stroke="black" d="M126.15,-397.69C130.86,-388.26 135.87,-378.24 140.72,-368.53"/>
<polygon fill="black" stroke="black" points="143.97,-369.84 145.31,-359.33 137.71,-366.72 143.97,-369.84"/>
</g>
<!-- BB5 -->
<g id="node6" class="node">
<title>BB5</title>
<ellipse fill="none" stroke="black" cx="365.24" cy="-444.58" rx="103.48" ry="48.17"/>
<text text-anchor="middle" x="365.24" y="-463.38" font-family="Times New Roman,serif" font-size="14.00">[26..2e)</text>
<text text-anchor="middle" x="365.24" y="-448.38" font-family="Times New Roman,serif" font-size="14.00">Count: 7</text>
<text text-anchor="middle" x="365.24" y="-433.38" font-family="Times New Roman,serif" font-size="14.00">Normalized count: 1.40</text>
<text text-anchor="middle" x="365.24" y="-418.38" font-family="Times New Roman,serif" font-size="14.00">Samples weight: 0.01</text>
</g>
<!-- BB2&#45;&gt;BB5 -->
<g id="edge3" class="edge">
<title>BB2&#45;&gt;BB5</title>
<path fill="none" stroke="black" d="M206.6,-444.58C221.54,-444.58 236.48,-444.58 251.41,-444.58"/>
<polygon fill="black" stroke="black" points="251.75,-448.08 261.75,-444.58 251.75,-441.08 251.75,-448.08"/>
</g>
<!-- BB3&#45;&gt;BB4 -->
<g id="edge5" class="edge">
<title>BB3&#45;&gt;BB4</title>
<path fill="none" stroke="black" d="M198.11,-358.45C204.78,-370.38 211.09,-383.56 215.24,-396.5 227.89,-435.96 232.53,-482.56 234.07,-518.36"/>
<polygon fill="black" stroke="black" points="230.59,-518.76 234.44,-528.63 237.58,-518.51 230.59,-518.76"/>
</g>
<!-- BB4&#45;&gt;BB2 -->
<g id="edge6" class="edge">
<title>BB4&#45;&gt;BB2</title>
<path fill="none" stroke="black" d="M190.98,-532.77C179.02,-520.88 165.93,-507.88 153.61,-495.63"/>
<polygon fill="black" stroke="black" points="156.01,-493.09 146.45,-488.52 151.08,-498.05 156.01,-493.09"/>
</g>
<!-- BB4&#45;&gt;BB5 -->
<g id="edge7" class="edge">
<title>BB4&#45;&gt;BB5</title>
<path fill="none" stroke="black" d="M277.49,-532.77C289.46,-520.88 302.54,-507.88 314.87,-495.63"/>
<polygon fill="black" stroke="black" points="317.4,-498.05 322.03,-488.52 312.47,-493.09 317.4,-498.05"/>
</g>
<!-- BB5&#45;&gt;BB6 -->
<g id="edge8" class="edge">
<title>BB5&#45;&gt;BB6</title>
<path fill="none" stroke="black" d="M365.24,-492.83C365.24,-565.48 365.24,-704.4 365.24,-782.72"/>
<polygon fill="black" stroke="black" points="361.74,-782.89 365.24,-792.89 368.74,-782.89 361.74,-782.89"/>
</g>
<!-- BB6&#45;&gt;BB1 -->
<g id="edge9" class="edge">
<title>BB6&#45;&gt;BB1</title>
<path fill="none" stroke="black" d="M321.98,-797.1C310.02,-785.21 296.93,-772.21 284.61,-759.96"/>
<polygon fill="black" stroke="black" points="287.01,-757.42 277.45,-752.85 282.08,-762.38 287.01,-757.42"/>
</g>
<!-- BB7 -->
<g id="node8" class="node">
<title>BB7</title>
<ellipse fill="none" stroke="black" cx="543.24" cy="-708.92" rx="103.48" ry="48.17"/>
<text text-anchor="middle" x="543.24" y="-727.72" font-family="Times New Roman,serif" font-size="14.00">[32..34)</text>
<text text-anchor="middle" x="543.24" y="-712.72" font-family="Times New Roman,serif" font-size="14.00">Count: 0</text>
<text text-anchor="middle" x="543.24" y="-697.72" font-family="Times New Roman,serif" font-size="14.00">Normalized count: 0.00</text>
<text text-anchor="middle" x="543.24" y="-682.72" font-family="Times New Roman,serif" font-size="14.00">Samples weight: 0.00</text>
</g>
<!-- BB6&#45;&gt;BB7 -->
<g id="edge10" class="edge">
<title>BB6&#45;&gt;BB7</title>
<path fill="none" stroke="black" d="M420.1,-799.97C439.13,-786.04 460.63,-770.33 480.27,-755.96"/>
<polygon fill="black" stroke="black" points="482.55,-758.63 488.56,-749.9 478.42,-752.98 482.55,-758.63"/>
</g>
<!-- BB8 -->
<g id="node9" class="node">
<title>BB8</title>
<ellipse fill="none" stroke="black" cx="589.24" cy="-576.75" rx="103.48" ry="48.17"/>
<text text-anchor="middle" x="589.24" y="-595.55" font-family="Times New Roman,serif" font-size="14.00">[34..44)</text>
<text text-anchor="middle" x="589.24" y="-580.55" font-family="Times New Roman,serif" font-size="14.00">Count: 35</text>
<text text-anchor="middle" x="589.24" y="-565.55" font-family="Times New Roman,serif" font-size="14.00">Normalized count: 7.00</text>
<text text-anchor="middle" x="589.24" y="-550.55" font-family="Times New Roman,serif" font-size="14.00">Samples weight: 0.04</text>
</g>
<!-- BB7&#45;&gt;BB8 -->
<g id="edge11" class="edge">
<title>BB7&#45;&gt;BB8</title>
<path fill="none" stroke="black" d="M559.71,-661.29C562.82,-652.5 566.1,-643.23 569.29,-634.18"/>
<polygon fill="black" stroke="black" points="572.69,-635.08 572.72,-624.49 566.09,-632.75 572.69,-635.08"/>
</g>
<!-- BB14 -->
<g id="node15" class="node">
<title>BB14</title>
<ellipse fill="none" stroke="black" cx="589.24" cy="-444.58" rx="103.48" ry="48.17"/>
<text text-anchor="middle" x="589.24" y="-463.38" font-family="Times New Roman,serif" font-size="14.00">[6a..6e)</text>
<text text-anchor="middle" x="589.24" y="-448.38" font-family="Times New Roman,serif" font-size="14.00">Count: 14</text>
<text text-anchor="middle" x="589.24" y="-433.38" font-family="Times New Roman,serif" font-size="14.00">Normalized count: 2.80</text>
<text text-anchor="middle" x="589.24" y="-418.38" font-family="Times New Roman,serif" font-size="14.00">Samples weight: 0.02</text>
</g>
<!-- BB8&#45;&gt;BB14 -->
<g id="edge12" class="edge">
<title>BB8&#45;&gt;BB14</title>
<path fill="none" stroke="black" d="M589.24,-528.39C589.24,-520.12 589.24,-511.44 589.24,-502.93"/>
<polygon fill="black" stroke="black" points="592.74,-502.69 589.24,-492.69 585.74,-502.69 592.74,-502.69"/>
</g>
<!-- BB9 -->
<g id="node10" class="node">
<title>BB9</title>
<ellipse fill="none" stroke="black" cx="565.24" cy="-312.42" rx="103.48" ry="48.17"/>
<text text-anchor="middle" x="565.24" y="-331.22" font-family="Times New Roman,serif" font-size="14.00">[44..4a)</text>
<text text-anchor="middle" x="565.24" y="-316.22" font-family="Times New Roman,serif" font-size="14.00">Count: 30</text>
<text text-anchor="middle" x="565.24" y="-301.22" font-family="Times New Roman,serif" font-size="14.00">Normalized count: 6.00</text>
<text text-anchor="middle" x="565.24" y="-286.22" font-family="Times New Roman,serif" font-size="14.00">Samples weight: 0.03</text>
</g>
<!-- BB10 -->
<g id="node11" class="node">
<title>BB10</title>
<ellipse fill="none" stroke="black" cx="555.24" cy="-180.25" rx="108.38" ry="48.17"/>
<text text-anchor="middle" x="555.24" y="-199.05" font-family="Times New Roman,serif" font-size="14.00">[4a..54)</text>
<text text-anchor="middle" x="555.24" y="-184.05" font-family="Times New Roman,serif" font-size="14.00">Count: 191</text>
<text text-anchor="middle" x="555.24" y="-169.05" font-family="Times New Roman,serif" font-size="14.00">Normalized count: 38.20</text>
<text text-anchor="middle" x="555.24" y="-154.05" font-family="Times New Roman,serif" font-size="14.00">Samples weight: 0.22</text>
</g>
<!-- BB9&#45;&gt;BB10 -->
<g id="edge14" class="edge">
<title>BB9&#45;&gt;BB10</title>
<path fill="none" stroke="black" d="M561.6,-264.05C560.96,-255.79 560.3,-247.1 559.64,-238.6"/>
<polygon fill="black" stroke="black" points="563.11,-238.06 558.86,-228.36 556.13,-238.6 563.11,-238.06"/>
</g>
<!-- BB12 -->
<g id="node13" class="node">
<title>BB12</title>
<ellipse fill="none" stroke="black" cx="789.24" cy="-180.25" rx="108.38" ry="48.17"/>
<text text-anchor="middle" x="789.24" y="-199.05" font-family="Times New Roman,serif" font-size="14.00">[58..5e)</text>
<text text-anchor="middle" x="789.24" y="-184.05" font-family="Times New Roman,serif" font-size="14.00">Count: 204</text>
<text text-anchor="middle" x="789.24" y="-169.05" font-family="Times New Roman,serif" font-size="14.00">Normalized count: 40.80</text>
<text text-anchor="middle" x="789.24" y="-154.05" font-family="Times New Roman,serif" font-size="14.00">Samples weight: 0.23</text>
</g>
<!-- BB9&#45;&gt;BB12 -->
<g id="edge13" class="edge">
<title>BB9&#45;&gt;BB12</title>
<path fill="none" stroke="black" d="M628.83,-274.46C655.79,-258.8 687.38,-240.44 715.37,-224.17"/>
<polygon fill="black" stroke="black" points="717.43,-227.02 724.32,-218.97 713.92,-220.97 717.43,-227.02"/>
</g>
<!-- BB11 -->
<g id="node12" class="node">
<title>BB11</title>
<ellipse fill="none" stroke="black" cx="755.24" cy="-48.08" rx="108.38" ry="48.17"/>
<text text-anchor="middle" x="755.24" y="-66.88" font-family="Times New Roman,serif" font-size="14.00">[54..58)</text>
<text text-anchor="middle" x="755.24" y="-51.88" font-family="Times New Roman,serif" font-size="14.00">Count: 110</text>
<text text-anchor="middle" x="755.24" y="-36.88" font-family="Times New Roman,serif" font-size="14.00">Normalized count: 22.00</text>
<text text-anchor="middle" x="755.24" y="-21.88" font-family="Times New Roman,serif" font-size="14.00">Samples weight: 0.13</text>
</g>
<!-- BB10&#45;&gt;BB11 -->
<g id="edge16" class="edge">
<title>BB10&#45;&gt;BB11</title>
<path fill="none" stroke="black" d="M615.24,-140.2C637.79,-125.52 663.58,-108.74 686.83,-93.6"/>
<polygon fill="black" stroke="black" points="688.8,-96.5 695.27,-88.11 684.98,-90.63 688.8,-96.5"/>
</g>
<!-- BB10&#45;&gt;BB12 -->
<g id="edge15" class="edge">
<title>BB10&#45;&gt;BB12</title>
<path fill="none" stroke="black" d="M663.55,-180.25C665.88,-180.25 668.21,-180.25 670.53,-180.25"/>
<polygon fill="black" stroke="black" points="670.74,-183.75 680.74,-180.25 670.74,-176.75 670.74,-183.75"/>
</g>
<!-- BB11&#45;&gt;BB12 -->
<g id="edge17" class="edge">
<title>BB11&#45;&gt;BB12</title>
<path fill="none" stroke="black" d="M767.49,-96.01C769.73,-104.58 772.09,-113.6 774.39,-122.42"/>
<polygon fill="black" stroke="black" points="771.05,-123.47 776.96,-132.26 777.82,-121.7 771.05,-123.47"/>
</g>
<!-- BB13 -->
<g id="node14" class="node">
<title>BB13</title>
<ellipse fill="none" stroke="black" cx="487.24" cy="-48.08" rx="108.38" ry="48.17"/>
<text text-anchor="middle" x="487.24" y="-66.88" font-family="Times New Roman,serif" font-size="14.00">[5e..6a)</text>
<text text-anchor="middle" x="487.24" y="-51.88" font-family="Times New Roman,serif" font-size="14.00">Count: 188</text>
<text text-anchor="middle" x="487.24" y="-36.88" font-family="Times New Roman,serif" font-size="14.00">Normalized count: 37.60</text>
<text text-anchor="middle" x="487.24" y="-21.88" font-family="Times New Roman,serif" font-size="14.00">Samples weight: 0.21</text>
</g>
<!-- BB12&#45;&gt;BB13 -->
<g id="edge19" class="edge">
<title>BB12&#45;&gt;BB13</title>
<path fill="none" stroke="black" d="M712.64,-146.24C670.14,-127.92 617.16,-105.08 573.24,-86.15"/>
<polygon fill="black" stroke="black" points="574.58,-82.92 564.02,-82.18 571.81,-89.35 574.58,-82.92"/>
</g>
<!-- BB15 -->
<g id="node16" class="node">
<title>BB15</title>
<ellipse fill="none" stroke="black" cx="789.24" cy="-312.42" rx="103.48" ry="48.17"/>
<text text-anchor="middle" x="789.24" y="-331.22" font-family="Times New Roman,serif" font-size="14.00">[6e..7a)</text>
<text text-anchor="middle" x="789.24" y="-316.22" font-family="Times New Roman,serif" font-size="14.00">Count: 47</text>
<text text-anchor="middle" x="789.24" y="-301.22" font-family="Times New Roman,serif" font-size="14.00">Normalized count: 9.40</text>
<text text-anchor="middle" x="789.24" y="-286.22" font-family="Times New Roman,serif" font-size="14.00">Samples weight: 0.05</text>
</g>
<!-- BB12&#45;&gt;BB15 -->
<g id="edge18" class="edge">
<title>BB12&#45;&gt;BB15</title>
<path fill="none" stroke="black" d="M789.24,-228.36C789.24,-236.62 789.24,-245.3 789.24,-253.8"/>
<polygon fill="black" stroke="black" points="785.74,-254.05 789.24,-264.05 792.74,-254.06 785.74,-254.05"/>
</g>
<!-- BB13&#45;&gt;BB14 -->
<g id="edge20" class="edge">
<title>BB13&#45;&gt;BB14</title>
<path fill="none" stroke="black" d="M454.86,-94.13C448.03,-105.96 441.81,-119.08 438.24,-132.17 411.46,-230.28 398.55,-274.75 453.24,-360.5 465.48,-379.7 483.92,-395.15 503.29,-407.26"/>
<polygon fill="black" stroke="black" points="501.56,-410.3 511.94,-412.43 505.15,-404.29 501.56,-410.3"/>
</g>
<!-- BB14&#45;&gt;BB9 -->
<g id="edge21" class="edge">
<title>BB14&#45;&gt;BB9</title>
<path fill="none" stroke="black" d="M580.57,-396.59C579.01,-388.11 577.36,-379.19 575.75,-370.46"/>
<polygon fill="black" stroke="black" points="579.14,-369.54 573.89,-360.34 572.26,-370.81 579.14,-369.54"/>
</g>
<!-- BB14&#45;&gt;BB15 -->
<g id="edge22" class="edge">
<title>BB14&#45;&gt;BB15</title>
<path fill="none" stroke="black" d="M648.43,-405.06C671.31,-390.17 697.63,-373.04 721.27,-357.65"/>
<polygon fill="black" stroke="black" points="723.38,-360.46 729.85,-352.07 719.56,-354.59 723.38,-360.46"/>
</g>
<!-- BB15&#45;&gt;BB8 -->
<g id="edge23" class="edge">
<title>BB15&#45;&gt;BB8</title>
<path fill="none" stroke="black" d="M773.44,-360C758.85,-398.4 734.41,-452.84 701.24,-492.67 689.28,-507.03 674.34,-520.28 659.32,-531.79"/>
<polygon fill="black" stroke="black" points="656.91,-529.23 650.98,-538.01 661.09,-534.84 656.91,-529.23"/>
</g>
<!-- BB16 -->
<g id="node17" class="node">
<title>BB16</title>
<ellipse fill="none" stroke="black" cx="1018.24" cy="-180.25" rx="103.48" ry="48.17"/>
<text text-anchor="middle" x="1018.24" y="-199.05" font-family="Times New Roman,serif" font-size="14.00">[7a..7b)</text>
<text text-anchor="middle" x="1018.24" y="-184.05" font-family="Times New Roman,serif" font-size="14.00">Count: 0</text>
<text text-anchor="middle" x="1018.24" y="-169.05" font-family="Times New Roman,serif" font-size="14.00">Normalized count: 0.00</text>
<text text-anchor="middle" x="1018.24" y="-154.05" font-family="Times New Roman,serif" font-size="14.00">Samples weight: 0.00</text>
</g>
<!-- BB15&#45;&gt;BB16 -->
<g id="edge24" class="edge">
<title>BB15&#45;&gt;BB16</title>
<path fill="none" stroke="black" d="M853.64,-274.81C881.93,-258.73 915.31,-239.76 944.58,-223.12"/>
<polygon fill="black" stroke="black" points="946.56,-226.02 953.53,-218.03 943.11,-219.93 946.56,-226.02"/>
</g>
</g>
</svg>
