<?xml version="1.0" encoding="UTF-8" standalone="no"?>
<!DOCTYPE svg PUBLIC "-//W3C//DTD SVG 1.1//EN"
 "http://www.w3.org/Graphics/SVG/1.1/DTD/svg11.dtd">
<!-- Generated by graphviz version 2.47.0 (20210316.0004)
 -->
<!-- Title: G Pages: 1 -->
<svg width="803pt" height="1558pt"
 viewBox="0.00 0.00 803.48 1558.00" xmlns="http://www.w3.org/2000/svg" xmlns:xlink="http://www.w3.org/1999/xlink">
<g id="graph0" class="graph" transform="scale(1 1) rotate(0) translate(4 1554)">
<title>G</title>
<polygon fill="white" stroke="transparent" points="-4,4 -4,-1554 799.48,-1554 799.48,4 -4,4"/>
<!-- BB0 -->
<g id="node1" class="node">
<title>BB0</title>
<ellipse fill="none" stroke="black" cx="376.24" cy="-1501.92" rx="103.48" ry="48.17"/>
<text text-anchor="middle" x="376.24" y="-1520.72" font-family="Times New Roman,serif" font-size="14.00">[0..a)</text>
<text text-anchor="middle" x="376.24" y="-1505.72" font-family="Times New Roman,serif" font-size="14.00">Count: 2</text>
<text text-anchor="middle" x="376.24" y="-1490.72" font-family="Times New Roman,serif" font-size="14.00">Normalized count: 1.00</text>
<text text-anchor="middle" x="376.24" y="-1475.72" font-family="Times New Roman,serif" font-size="14.00">Samples weight: 0.01</text>
</g>
<!-- BB1 -->
<g id="node2" class="node">
<title>BB1</title>
<ellipse fill="none" stroke="black" cx="376.24" cy="-1369.75" rx="108.38" ry="48.17"/>
<text text-anchor="middle" x="376.24" y="-1388.55" font-family="Times New Roman,serif" font-size="14.00">[a..12)</text>
<text text-anchor="middle" x="376.24" y="-1373.55" font-family="Times New Roman,serif" font-size="14.00">Count: 23</text>
<text text-anchor="middle" x="376.24" y="-1358.55" font-family="Times New Roman,serif" font-size="14.00">Normalized count: 11.50</text>
<text text-anchor="middle" x="376.24" y="-1343.55" font-family="Times New Roman,serif" font-size="14.00">Samples weight: 0.08</text>
</g>
<!-- BB0&#45;&gt;BB1 -->
<g id="edge1" class="edge">
<title>BB0&#45;&gt;BB1</title>
<path fill="none" stroke="black" d="M376.24,-1453.55C376.24,-1445.29 376.24,-1436.6 376.24,-1428.1"/>
<polygon fill="black" stroke="black" points="379.74,-1427.86 376.24,-1417.86 372.74,-1427.86 379.74,-1427.86"/>
</g>
<!-- BB3 -->
<g id="node4" class="node">
<title>BB3</title>
<ellipse fill="none" stroke="black" cx="194.24" cy="-1237.58" rx="108.38" ry="48.17"/>
<text text-anchor="middle" x="194.24" y="-1256.38" font-family="Times New Roman,serif" font-size="14.00">[16..1e)</text>
<text text-anchor="middle" x="194.24" y="-1241.38" font-family="Times New Roman,serif" font-size="14.00">Count: 24</text>
<text text-anchor="middle" x="194.24" y="-1226.38" font-family="Times New Roman,serif" font-size="14.00">Normalized count: 12.00</text>
<text text-anchor="middle" x="194.24" y="-1211.38" font-family="Times New Roman,serif" font-size="14.00">Samples weight: 0.09</text>
</g>
<!-- BB1&#45;&gt;BB3 -->
<g id="edge2" class="edge">
<title>BB1&#45;&gt;BB3</title>
<path fill="none" stroke="black" d="M320.15,-1328.63C300.69,-1314.71 278.71,-1299 258.64,-1284.64"/>
<polygon fill="black" stroke="black" points="260.63,-1281.76 250.46,-1278.79 256.55,-1287.45 260.63,-1281.76"/>
</g>
<!-- BB2 -->
<g id="node3" class="node">
<title>BB2</title>
<ellipse fill="none" stroke="black" cx="103.24" cy="-1105.42" rx="103.48" ry="48.17"/>
<text text-anchor="middle" x="103.24" y="-1124.22" font-family="Times New Roman,serif" font-size="14.00">[12..16)</text>
<text text-anchor="middle" x="103.24" y="-1109.22" font-family="Times New Roman,serif" font-size="14.00">Count: 1</text>
<text text-anchor="middle" x="103.24" y="-1094.22" font-family="Times New Roman,serif" font-size="14.00">Normalized count: 0.50</text>
<text text-anchor="middle" x="103.24" y="-1079.22" font-family="Times New Roman,serif" font-size="14.00">Samples weight: 0.00</text>
</g>
<!-- BB2&#45;&gt;BB3 -->
<g id="edge3" class="edge">
<title>BB2&#45;&gt;BB3</title>
<path fill="none" stroke="black" d="M140.54,-1150.58C148,-1160.78 155.74,-1171.74 162.97,-1182.32"/>
<polygon fill="black" stroke="black" points="160.13,-1184.37 168.64,-1190.69 165.93,-1180.45 160.13,-1184.37"/>
</g>
<!-- BB3&#45;&gt;BB2 -->
<g id="edge4" class="edge">
<title>BB3&#45;&gt;BB2</title>
<path fill="none" stroke="black" d="M156.74,-1192.15C149.35,-1182.04 141.69,-1171.18 134.53,-1160.71"/>
<polygon fill="black" stroke="black" points="137.42,-1158.74 128.91,-1152.42 131.62,-1162.66 137.42,-1158.74"/>
</g>
<!-- BB4 -->
<g id="node5" class="node">
<title>BB4</title>
<ellipse fill="none" stroke="black" cx="332.24" cy="-1105.42" rx="108.38" ry="48.17"/>
<text text-anchor="middle" x="332.24" y="-1124.22" font-family="Times New Roman,serif" font-size="14.00">[1e..2b)</text>
<text text-anchor="middle" x="332.24" y="-1109.22" font-family="Times New Roman,serif" font-size="14.00">Count: 23</text>
<text text-anchor="middle" x="332.24" y="-1094.22" font-family="Times New Roman,serif" font-size="14.00">Normalized count: 11.50</text>
<text text-anchor="middle" x="332.24" y="-1079.22" font-family="Times New Roman,serif" font-size="14.00">Samples weight: 0.08</text>
</g>
<!-- BB3&#45;&gt;BB4 -->
<g id="edge5" class="edge">
<title>BB3&#45;&gt;BB4</title>
<path fill="none" stroke="black" d="M239.81,-1193.6C252.41,-1181.71 266.19,-1168.71 279.18,-1156.46"/>
<polygon fill="black" stroke="black" points="281.84,-1158.76 286.72,-1149.35 277.04,-1153.67 281.84,-1158.76"/>
</g>
<!-- BB5 -->
<g id="node6" class="node">
<title>BB5</title>
<ellipse fill="none" stroke="black" cx="239.24" cy="-973.25" rx="103.48" ry="48.17"/>
<text text-anchor="middle" x="239.24" y="-992.05" font-family="Times New Roman,serif" font-size="14.00">[2b..5f)</text>
<text text-anchor="middle" x="239.24" y="-977.05" font-family="Times New Roman,serif" font-size="14.00">Count: 14</text>
<text text-anchor="middle" x="239.24" y="-962.05" font-family="Times New Roman,serif" font-size="14.00">Normalized count: 7.00</text>
<text text-anchor="middle" x="239.24" y="-947.05" font-family="Times New Roman,serif" font-size="14.00">Samples weight: 0.05</text>
</g>
<!-- BB4&#45;&gt;BB5 -->
<g id="edge7" class="edge">
<title>BB4&#45;&gt;BB5</title>
<path fill="none" stroke="black" d="M299.97,-1059.25C292.69,-1049.06 284.88,-1038.14 277.38,-1027.64"/>
<polygon fill="black" stroke="black" points="280.11,-1025.43 271.45,-1019.33 274.41,-1029.5 280.11,-1025.43"/>
</g>
<!-- BB6 -->
<g id="node7" class="node">
<title>BB6</title>
<ellipse fill="none" stroke="black" cx="468.24" cy="-973.25" rx="108.38" ry="48.17"/>
<text text-anchor="middle" x="468.24" y="-992.05" font-family="Times New Roman,serif" font-size="14.00">[5f..68)</text>
<text text-anchor="middle" x="468.24" y="-977.05" font-family="Times New Roman,serif" font-size="14.00">Count: 23</text>
<text text-anchor="middle" x="468.24" y="-962.05" font-family="Times New Roman,serif" font-size="14.00">Normalized count: 11.50</text>
<text text-anchor="middle" x="468.24" y="-947.05" font-family="Times New Roman,serif" font-size="14.00">Samples weight: 0.08</text>
</g>
<!-- BB4&#45;&gt;BB6 -->
<g id="edge6" class="edge">
<title>BB4&#45;&gt;BB6</title>
<path fill="none" stroke="black" d="M377.15,-1061.43C389.56,-1049.55 403.15,-1036.55 415.95,-1024.3"/>
<polygon fill="black" stroke="black" points="418.57,-1026.63 423.38,-1017.19 413.73,-1021.57 418.57,-1026.63"/>
</g>
<!-- BB5&#45;&gt;BB6 -->
<g id="edge8" class="edge">
<title>BB5&#45;&gt;BB6</title>
<path fill="none" stroke="black" d="M342.56,-973.25C344.88,-973.25 347.21,-973.25 349.54,-973.25"/>
<polygon fill="black" stroke="black" points="349.74,-976.75 359.74,-973.25 349.74,-969.75 349.74,-976.75"/>
</g>
<!-- BB6&#45;&gt;BB1 -->
<g id="edge9" class="edge">
<title>BB6&#45;&gt;BB1</title>
<path fill="none" stroke="black" d="M466.09,-1021.5C463.74,-1057.92 458.94,-1109.33 449.24,-1153.5 437.07,-1208.86 415.58,-1269.86 399.05,-1312.74"/>
<polygon fill="black" stroke="black" points="395.76,-1311.56 395.39,-1322.15 402.28,-1314.1 395.76,-1311.56"/>
</g>
<!-- BB7 -->
<g id="node8" class="node">
<title>BB7</title>
<ellipse fill="none" stroke="black" cx="468.24" cy="-841.08" rx="103.48" ry="48.17"/>
<text text-anchor="middle" x="468.24" y="-859.88" font-family="Times New Roman,serif" font-size="14.00">[68..6f)</text>
<text text-anchor="middle" x="468.24" y="-844.88" font-family="Times New Roman,serif" font-size="14.00">Count: 2</text>
<text text-anchor="middle" x="468.24" y="-829.88" font-family="Times New Roman,serif" font-size="14.00">Normalized count: 1.00</text>
<text text-anchor="middle" x="468.24" y="-814.88" font-family="Times New Roman,serif" font-size="14.00">Samples weight: 0.01</text>
</g>
<!-- BB6&#45;&gt;BB7 -->
<g id="edge10" class="edge">
<title>BB6&#45;&gt;BB7</title>
<path fill="none" stroke="black" d="M468.24,-924.89C468.24,-916.62 468.24,-907.94 468.24,-899.43"/>
<polygon fill="black" stroke="black" points="471.74,-899.19 468.24,-889.19 464.74,-899.19 471.74,-899.19"/>
</g>
<!-- BB13 -->
<g id="node14" class="node">
<title>BB13</title>
<ellipse fill="none" stroke="black" cx="468.24" cy="-708.92" rx="103.48" ry="48.17"/>
<text text-anchor="middle" x="468.24" y="-727.72" font-family="Times New Roman,serif" font-size="14.00">[f6..fd)</text>
<text text-anchor="middle" x="468.24" y="-712.72" font-family="Times New Roman,serif" font-size="14.00">Count: 4</text>
<text text-anchor="middle" x="468.24" y="-697.72" font-family="Times New Roman,serif" font-size="14.00">Normalized count: 2.00</text>
<text text-anchor="middle" x="468.24" y="-682.72" font-family="Times New Roman,serif" font-size="14.00">Samples weight: 0.01</text>
</g>
<!-- BB7&#45;&gt;BB13 -->
<g id="edge11" class="edge">
<title>BB7&#45;&gt;BB13</title>
<path fill="none" stroke="black" d="M468.24,-792.72C468.24,-784.45 468.24,-775.77 468.24,-767.27"/>
<polygon fill="black" stroke="black" points="471.74,-767.02 468.24,-757.02 464.74,-767.02 471.74,-767.02"/>
</g>
<!-- BB8 -->
<g id="node9" class="node">
<title>BB8</title>
<ellipse fill="none" stroke="black" cx="468.24" cy="-576.75" rx="103.48" ry="48.17"/>
<text text-anchor="middle" x="468.24" y="-595.55" font-family="Times New Roman,serif" font-size="14.00">[6f..7a)</text>
<text text-anchor="middle" x="468.24" y="-580.55" font-family="Times New Roman,serif" font-size="14.00">Count: 2</text>
<text text-anchor="middle" x="468.24" y="-565.55" font-family="Times New Roman,serif" font-size="14.00">Normalized count: 1.00</text>
<text text-anchor="middle" x="468.24" y="-550.55" font-family="Times New Roman,serif" font-size="14.00">Samples weight: 0.01</text>
</g>
<!-- BB9 -->
<g id="node10" class="node">
<title>BB9</title>
<ellipse fill="none" stroke="black" cx="471.24" cy="-444.58" rx="108.38" ry="48.17"/>
<text text-anchor="middle" x="471.24" y="-463.38" font-family="Times New Roman,serif" font-size="14.00">[7a..9c)</text>
<text text-anchor="middle" x="471.24" y="-448.38" font-family="Times New Roman,serif" font-size="14.00">Count: 24</text>
<text text-anchor="middle" x="471.24" y="-433.38" font-family="Times New Roman,serif" font-size="14.00">Normalized count: 12.00</text>
<text text-anchor="middle" x="471.24" y="-418.38" font-family="Times New Roman,serif" font-size="14.00">Samples weight: 0.09</text>
</g>
<!-- BB8&#45;&gt;BB9 -->
<g id="edge12" class="edge">
<title>BB8&#45;&gt;BB9</title>
<path fill="none" stroke="black" d="M469.33,-528.39C469.52,-520.12 469.72,-511.44 469.92,-502.93"/>
<polygon fill="black" stroke="black" points="473.42,-502.77 470.15,-492.69 466.42,-502.61 473.42,-502.77"/>
</g>
<!-- BB10 -->
<g id="node11" class="node">
<title>BB10</title>
<ellipse fill="none" stroke="black" cx="471.24" cy="-312.42" rx="108.38" ry="48.17"/>
<text text-anchor="middle" x="471.24" y="-331.22" font-family="Times New Roman,serif" font-size="14.00">[9c..eb)</text>
<text text-anchor="middle" x="471.24" y="-316.22" font-family="Times New Roman,serif" font-size="14.00">Count: 110</text>
<text text-anchor="middle" x="471.24" y="-301.22" font-family="Times New Roman,serif" font-size="14.00">Normalized count: 55.00</text>
<text text-anchor="middle" x="471.24" y="-286.22" font-family="Times New Roman,serif" font-size="14.00">Samples weight: 0.39</text>
</g>
<!-- BB9&#45;&gt;BB10 -->
<g id="edge13" class="edge">
<title>BB9&#45;&gt;BB10</title>
<path fill="none" stroke="black" d="M471.24,-396.22C471.24,-387.95 471.24,-379.27 471.24,-370.77"/>
<polygon fill="black" stroke="black" points="474.74,-370.52 471.24,-360.52 467.74,-370.52 474.74,-370.52"/>
</g>
<!-- BB10&#45;&gt;BB10 -->
<g id="edge14" class="edge">
<title>BB10&#45;&gt;BB10</title>
<path fill="none" stroke="black" d="M565.34,-336.15C584.07,-333.47 597.42,-325.56 597.42,-312.42 597.42,-301.73 588.61,-294.51 575.26,-290.74"/>
<polygon fill="black" stroke="black" points="575.84,-287.29 565.34,-288.69 574.42,-294.14 575.84,-287.29"/>
</g>
<!-- BB11 -->
<g id="node12" class="node">
<title>BB11</title>
<ellipse fill="none" stroke="black" cx="471.24" cy="-180.25" rx="108.38" ry="48.17"/>
<text text-anchor="middle" x="471.24" y="-199.05" font-family="Times New Roman,serif" font-size="14.00">[eb..f3)</text>
<text text-anchor="middle" x="471.24" y="-184.05" font-family="Times New Roman,serif" font-size="14.00">Count: 24</text>
<text text-anchor="middle" x="471.24" y="-169.05" font-family="Times New Roman,serif" font-size="14.00">Normalized count: 12.00</text>
<text text-anchor="middle" x="471.24" y="-154.05" font-family="Times New Roman,serif" font-size="14.00">Samples weight: 0.09</text>
</g>
<!-- BB10&#45;&gt;BB11 -->
<g id="edge15" class="edge">
<title>BB10&#45;&gt;BB11</title>
<path fill="none" stroke="black" d="M471.24,-264.05C471.24,-255.79 471.24,-247.1 471.24,-238.6"/>
<polygon fill="black" stroke="black" points="474.74,-238.36 471.24,-228.36 467.74,-238.36 474.74,-238.36"/>
</g>
<!-- BB11&#45;&gt;BB9 -->
<g id="edge16" class="edge">
<title>BB11&#45;&gt;BB9</title>
<path fill="none" stroke="black" d="M551.26,-212.64C572.98,-225.28 593.89,-242.23 606.24,-264.33 627.09,-301.64 627.09,-323.19 606.24,-360.5 595.53,-379.67 578.38,-394.96 559.85,-406.92"/>
<polygon fill="black" stroke="black" points="557.95,-403.98 551.26,-412.19 561.61,-409.95 557.95,-403.98"/>
</g>
<!-- BB12 -->
<g id="node13" class="node">
<title>BB12</title>
<ellipse fill="none" stroke="black" cx="403.24" cy="-48.08" rx="103.48" ry="48.17"/>
<text text-anchor="middle" x="403.24" y="-66.88" font-family="Times New Roman,serif" font-size="14.00">[f3..f6)</text>
<text text-anchor="middle" x="403.24" y="-51.88" font-family="Times New Roman,serif" font-size="14.00">Count: 2</text>
<text text-anchor="middle" x="403.24" y="-36.88" font-family="Times New Roman,serif" font-size="14.00">Normalized count: 1.00</text>
<text text-anchor="middle" x="403.24" y="-21.88" font-family="Times New Roman,serif" font-size="14.00">Samples weight: 0.01</text>
</g>
<!-- BB11&#45;&gt;BB12 -->
<g id="edge17" class="edge">
<title>BB11&#45;&gt;BB12</title>
<path fill="none" stroke="black" d="M447.26,-133.36C442.29,-123.83 436.99,-113.7 431.87,-103.89"/>
<polygon fill="black" stroke="black" points="434.96,-102.24 427.22,-95 428.75,-105.48 434.96,-102.24"/>
</g>
<!-- BB12&#45;&gt;BB13 -->
<g id="edge18" class="edge">
<title>BB12&#45;&gt;BB13</title>
<path fill="none" stroke="black" d="M372.07,-93.98C365.12,-105.92 358.55,-119.13 354.24,-132.17 329.1,-208.23 335.24,-231.3 335.24,-311.42 335.24,-445.58 335.24,-445.58 335.24,-445.58 335.24,-525.79 316.06,-555.41 356.24,-624.83 365.39,-640.66 378.89,-654.37 393.38,-665.85"/>
<polygon fill="black" stroke="black" points="391.42,-668.76 401.51,-672 395.64,-663.17 391.42,-668.76"/>
</g>
<!-- BB13&#45;&gt;BB8 -->
<g id="edge19" class="edge">
<title>BB13&#45;&gt;BB8</title>
<path fill="none" stroke="black" d="M468.24,-660.55C468.24,-652.29 468.24,-643.6 468.24,-635.1"/>
<polygon fill="black" stroke="black" points="471.74,-634.86 468.24,-624.86 464.74,-634.86 471.74,-634.86"/>
</g>
<!-- BB14 -->
<g id="node15" class="node">
<title>BB14</title>
<ellipse fill="none" stroke="black" cx="692.24" cy="-576.75" rx="103.48" ry="48.17"/>
<text text-anchor="middle" x="692.24" y="-595.55" font-family="Times New Roman,serif" font-size="14.00">[fd..fe)</text>
<text text-anchor="middle" x="692.24" y="-580.55" font-family="Times New Roman,serif" font-size="14.00">Count: 2</text>
<text text-anchor="middle" x="692.24" y="-565.55" font-family="Times New Roman,serif" font-size="14.00">Normalized count: 1.00</text>
<text text-anchor="middle" x="692.24" y="-550.55" font-family="Times New Roman,serif" font-size="14.00">Samples weight: 0.01</text>
</g>
<!-- BB13&#45;&gt;BB14 -->
<g id="edge20" class="edge">
<title>BB13&#45;&gt;BB14</title>
<path fill="none" stroke="black" d="M531.83,-670.96C559.26,-655.02 591.48,-636.3 619.83,-619.83"/>
<polygon fill="black" stroke="black" points="621.6,-622.84 628.49,-614.79 618.08,-616.79 621.6,-622.84"/>
</g>
</g>
</svg>
