<?xml version="1.0" encoding="UTF-8" standalone="no"?>
<!DOCTYPE svg PUBLIC "-//W3C//DTD SVG 1.1//EN"
 "http://www.w3.org/Graphics/SVG/1.1/DTD/svg11.dtd">
<!-- Generated by graphviz version 2.47.0 (20210316.0004)
 -->
<!-- Title: G Pages: 1 -->
<svg width="574pt" height="501pt"
 viewBox="0.00 0.00 574.48 500.67" xmlns="http://www.w3.org/2000/svg" xmlns:xlink="http://www.w3.org/1999/xlink">
<g id="graph0" class="graph" transform="scale(1 1) rotate(0) translate(4 496.67)">
<title>G</title>
<polygon fill="white" stroke="transparent" points="-4,4 -4,-496.67 570.48,-496.67 570.48,4 -4,4"/>
<!-- BB0 -->
<g id="node1" class="node">
<title>BB0</title>
<ellipse fill="none" stroke="black" cx="332.24" cy="-444.58" rx="103.48" ry="48.17"/>
<text text-anchor="middle" x="332.24" y="-463.38" font-family="Times New Roman,serif" font-size="14.00">[0..4)</text>
<text text-anchor="middle" x="332.24" y="-448.38" font-family="Times New Roman,serif" font-size="14.00">Count: 794800</text>
<text text-anchor="middle" x="332.24" y="-433.38" font-family="Times New Roman,serif" font-size="14.00">Normalized count: 1.00</text>
<text text-anchor="middle" x="332.24" y="-418.38" font-family="Times New Roman,serif" font-size="14.00">Samples weight: 0.01</text>
</g>
<!-- BB4 -->
<g id="node5" class="node">
<title>BB4</title>
<ellipse fill="none" stroke="black" cx="332.24" cy="-312.42" rx="108.38" ry="48.17"/>
<text text-anchor="middle" x="332.24" y="-331.22" font-family="Times New Roman,serif" font-size="14.00">[1f..2a)</text>
<text text-anchor="middle" x="332.24" y="-316.22" font-family="Times New Roman,serif" font-size="14.00">Count: 44791200</text>
<text text-anchor="middle" x="332.24" y="-301.22" font-family="Times New Roman,serif" font-size="14.00">Normalized count: 56.36</text>
<text text-anchor="middle" x="332.24" y="-286.22" font-family="Times New Roman,serif" font-size="14.00">Samples weight: 0.32</text>
</g>
<!-- BB0&#45;&gt;BB4 -->
<g id="edge1" class="edge">
<title>BB0&#45;&gt;BB4</title>
<path fill="none" stroke="black" d="M332.24,-396.22C332.24,-387.95 332.24,-379.27 332.24,-370.77"/>
<polygon fill="black" stroke="black" points="335.74,-370.52 332.24,-360.52 328.74,-370.52 335.74,-370.52"/>
</g>
<!-- BB1 -->
<g id="node2" class="node">
<title>BB1</title>
<ellipse fill="none" stroke="black" cx="196.24" cy="-180.25" rx="108.38" ry="48.17"/>
<text text-anchor="middle" x="196.24" y="-199.05" font-family="Times New Roman,serif" font-size="14.00">[4..10)</text>
<text text-anchor="middle" x="196.24" y="-184.05" font-family="Times New Roman,serif" font-size="14.00">Count: 43996400</text>
<text text-anchor="middle" x="196.24" y="-169.05" font-family="Times New Roman,serif" font-size="14.00">Normalized count: 55.36</text>
<text text-anchor="middle" x="196.24" y="-154.05" font-family="Times New Roman,serif" font-size="14.00">Samples weight: 0.32</text>
</g>
<!-- BB2 -->
<g id="node3" class="node">
<title>BB2</title>
<ellipse fill="none" stroke="black" cx="103.24" cy="-48.08" rx="103.48" ry="48.17"/>
<text text-anchor="middle" x="103.24" y="-66.88" font-family="Times New Roman,serif" font-size="14.00">[10..1b)</text>
<text text-anchor="middle" x="103.24" y="-51.88" font-family="Times New Roman,serif" font-size="14.00">Count: 4668000</text>
<text text-anchor="middle" x="103.24" y="-36.88" font-family="Times New Roman,serif" font-size="14.00">Normalized count: 5.87</text>
<text text-anchor="middle" x="103.24" y="-21.88" font-family="Times New Roman,serif" font-size="14.00">Samples weight: 0.03</text>
</g>
<!-- BB1&#45;&gt;BB2 -->
<g id="edge3" class="edge">
<title>BB1&#45;&gt;BB2</title>
<path fill="none" stroke="black" d="M163.97,-134.09C156.69,-123.89 148.88,-112.97 141.38,-102.47"/>
<polygon fill="black" stroke="black" points="144.11,-100.27 135.45,-94.16 138.41,-104.34 144.11,-100.27"/>
</g>
<!-- BB3 -->
<g id="node4" class="node">
<title>BB3</title>
<ellipse fill="none" stroke="black" cx="332.24" cy="-48.08" rx="108.38" ry="48.17"/>
<text text-anchor="middle" x="332.24" y="-66.88" font-family="Times New Roman,serif" font-size="14.00">[1b..1f)</text>
<text text-anchor="middle" x="332.24" y="-51.88" font-family="Times New Roman,serif" font-size="14.00">Count: 43996400</text>
<text text-anchor="middle" x="332.24" y="-36.88" font-family="Times New Roman,serif" font-size="14.00">Normalized count: 55.36</text>
<text text-anchor="middle" x="332.24" y="-21.88" font-family="Times New Roman,serif" font-size="14.00">Samples weight: 0.32</text>
</g>
<!-- BB1&#45;&gt;BB3 -->
<g id="edge2" class="edge">
<title>BB1&#45;&gt;BB3</title>
<path fill="none" stroke="black" d="M241.15,-136.27C253.56,-124.38 267.15,-111.38 279.95,-99.13"/>
<polygon fill="black" stroke="black" points="282.57,-101.46 287.38,-92.02 277.73,-96.41 282.57,-101.46"/>
</g>
<!-- BB2&#45;&gt;BB3 -->
<g id="edge4" class="edge">
<title>BB2&#45;&gt;BB3</title>
<path fill="none" stroke="black" d="M206.56,-48.08C208.88,-48.08 211.21,-48.08 213.54,-48.08"/>
<polygon fill="black" stroke="black" points="213.74,-51.58 223.74,-48.08 213.74,-44.58 213.74,-51.58"/>
</g>
<!-- BB3&#45;&gt;BB4 -->
<g id="edge5" class="edge">
<title>BB3&#45;&gt;BB4</title>
<path fill="none" stroke="black" d="M332.24,-96.35C332.24,-140.62 332.24,-206.87 332.24,-254.13"/>
<polygon fill="black" stroke="black" points="328.74,-254.21 332.24,-264.21 335.74,-254.21 328.74,-254.21"/>
</g>
<!-- BB4&#45;&gt;BB1 -->
<g id="edge6" class="edge">
<title>BB4&#45;&gt;BB1</title>
<path fill="none" stroke="black" d="M287.33,-268.43C274.91,-256.55 261.33,-243.55 248.53,-231.3"/>
<polygon fill="black" stroke="black" points="250.74,-228.57 241.1,-224.19 245.9,-233.63 250.74,-228.57"/>
</g>
<!-- BB5 -->
<g id="node6" class="node">
<title>BB5</title>
<ellipse fill="none" stroke="black" cx="463.24" cy="-180.25" rx="103.48" ry="48.17"/>
<text text-anchor="middle" x="463.24" y="-199.05" font-family="Times New Roman,serif" font-size="14.00">[2a..4b)</text>
<text text-anchor="middle" x="463.24" y="-184.05" font-family="Times New Roman,serif" font-size="14.00">Count: 794800</text>
<text text-anchor="middle" x="463.24" y="-169.05" font-family="Times New Roman,serif" font-size="14.00">Normalized count: 1.00</text>
<text text-anchor="middle" x="463.24" y="-154.05" font-family="Times New Roman,serif" font-size="14.00">Samples weight: 0.01</text>
</g>
<!-- BB4&#45;&gt;BB5 -->
<g id="edge7" class="edge">
<title>BB4&#45;&gt;BB5</title>
<path fill="none" stroke="black" d="M375.86,-268.07C387.57,-256.44 400.34,-243.75 412.4,-231.76"/>
<polygon fill="black" stroke="black" points="415.18,-233.94 419.81,-224.4 410.25,-228.97 415.18,-233.94"/>
</g>
</g>
</svg>
