<?xml version="1.0" encoding="UTF-8" standalone="no"?>
<!DOCTYPE svg PUBLIC "-//W3C//DTD SVG 1.1//EN"
 "http://www.w3.org/Graphics/SVG/1.1/DTD/svg11.dtd">
<!-- Generated by graphviz version 2.47.0 (20210316.0004)
 -->
<!-- Title: G Pages: 1 -->
<svg width="193pt" height="241pt"
 viewBox="0.00 0.00 193.27 241.22" xmlns="http://www.w3.org/2000/svg" xmlns:xlink="http://www.w3.org/1999/xlink">
<g id="graph0" class="graph" transform="scale(1 1) rotate(0) translate(4 237.22)">
<title>G</title>
<polygon fill="white" stroke="transparent" points="-4,4 -4,-237.22 189.27,-237.22 189.27,4 -4,4"/>
<!-- BB0 -->
<g id="node1" class="node">
<title>BB0</title>
<ellipse fill="none" stroke="black" cx="43.13" cy="-206.35" rx="33.47" ry="26.74"/>
<text text-anchor="middle" x="43.13" y="-210.15" font-family="Times New Roman,serif" font-size="14.00">[0..c)</text>
<text text-anchor="middle" x="43.13" y="-195.15" font-family="Times New Roman,serif" font-size="14.00">0.07</text>
</g>
<!-- BB2 -->
<g id="node3" class="node">
<title>BB2</title>
<ellipse fill="none" stroke="black" cx="43.13" cy="-116.61" rx="43.27" ry="26.74"/>
<text text-anchor="middle" x="43.13" y="-120.41" font-family="Times New Roman,serif" font-size="14.00">[1d..29)</text>
<text text-anchor="middle" x="43.13" y="-105.41" font-family="Times New Roman,serif" font-size="14.00">0.46</text>
</g>
<!-- BB0&#45;&gt;BB2 -->
<g id="edge1" class="edge">
<title>BB0&#45;&gt;BB2</title>
<path fill="none" stroke="black" d="M43.13,-179.03C43.13,-171.06 43.13,-162.17 43.13,-153.68"/>
<polygon fill="black" stroke="black" points="46.63,-153.61 43.13,-143.61 39.63,-153.61 46.63,-153.61"/>
</g>
<!-- BB1 -->
<g id="node2" class="node">
<title>BB1</title>
<ellipse fill="none" stroke="black" cx="43.13" cy="-26.87" rx="38.37" ry="26.74"/>
<text text-anchor="middle" x="43.13" y="-30.67" font-family="Times New Roman,serif" font-size="14.00">[c..1d)</text>
<text text-anchor="middle" x="43.13" y="-15.67" font-family="Times New Roman,serif" font-size="14.00">0.48</text>
</g>
<!-- BB1&#45;&gt;BB2 -->
<g id="edge2" class="edge">
<title>BB1&#45;&gt;BB2</title>
<path fill="none" stroke="black" d="M49.34,-53.54C49.86,-61.73 50.01,-70.96 49.78,-79.74"/>
<polygon fill="black" stroke="black" points="46.28,-79.62 49.35,-89.76 53.28,-79.92 46.28,-79.62"/>
</g>
<!-- BB2&#45;&gt;BB1 -->
<g id="edge3" class="edge">
<title>BB2&#45;&gt;BB1</title>
<path fill="none" stroke="black" d="M36.92,-89.76C36.4,-81.55 36.26,-72.32 36.49,-63.54"/>
<polygon fill="black" stroke="black" points="39.99,-63.68 36.93,-53.54 32.99,-63.37 39.99,-63.68"/>
</g>
<!-- BB3 -->
<g id="node4" class="node">
<title>BB3</title>
<ellipse fill="none" stroke="black" cx="142.13" cy="-26.87" rx="43.27" ry="26.74"/>
<text text-anchor="middle" x="142.13" y="-30.67" font-family="Times New Roman,serif" font-size="14.00">[29..2b)</text>
<text text-anchor="middle" x="142.13" y="-15.67" font-family="Times New Roman,serif" font-size="14.00">0.00</text>
</g>
<!-- BB2&#45;&gt;BB3 -->
<g id="edge4" class="edge">
<title>BB2&#45;&gt;BB3</title>
<path fill="none" stroke="black" d="M67.35,-94.15C80.3,-82.67 96.39,-68.41 110.33,-56.05"/>
<polygon fill="black" stroke="black" points="112.66,-58.67 117.82,-49.42 108.02,-53.43 112.66,-58.67"/>
</g>
</g>
</svg>
