<?xml version="1.0" encoding="UTF-8" standalone="no"?>
<!DOCTYPE svg PUBLIC "-//W3C//DTD SVG 1.1//EN"
 "http://www.w3.org/Graphics/SVG/1.1/DTD/svg11.dtd">
<!-- Generated by graphviz version 2.47.0 (20210316.0004)
 -->
<!-- Title: G Pages: 1 -->
<svg width="698pt" height="633pt"
 viewBox="0.00 0.00 698.50 632.83" xmlns="http://www.w3.org/2000/svg" xmlns:xlink="http://www.w3.org/1999/xlink">
<g id="graph0" class="graph" transform="scale(1 1) rotate(0) translate(4 628.83)">
<title>G</title>
<polygon fill="white" stroke="transparent" points="-4,4 -4,-628.83 694.5,-628.83 694.5,4 -4,4"/>
<!-- BB0 -->
<g id="node1" class="node">
<title>BB0</title>
<ellipse fill="none" stroke="black" cx="113.84" cy="-576.75" rx="104.8" ry="48.17"/>
<text text-anchor="middle" x="113.84" y="-595.55" font-family="Times New Roman,serif" font-size="14.00">[0..68)</text>
<text text-anchor="middle" x="113.84" y="-580.55" font-family="Times New Roman,serif" font-size="14.00">Count: 0</text>
<text text-anchor="middle" x="113.84" y="-565.55" font-family="Times New Roman,serif" font-size="14.00">Normalized count: NaN</text>
<text text-anchor="middle" x="113.84" y="-550.55" font-family="Times New Roman,serif" font-size="14.00">Samples weight: 0.00</text>
</g>
<!-- BB2 -->
<g id="node3" class="node">
<title>BB2</title>
<ellipse fill="none" stroke="black" cx="113.84" cy="-444.58" rx="104.8" ry="48.17"/>
<text text-anchor="middle" x="113.84" y="-463.38" font-family="Times New Roman,serif" font-size="14.00">[87..8c)</text>
<text text-anchor="middle" x="113.84" y="-448.38" font-family="Times New Roman,serif" font-size="14.00">Count: 0</text>
<text text-anchor="middle" x="113.84" y="-433.38" font-family="Times New Roman,serif" font-size="14.00">Normalized count: NaN</text>
<text text-anchor="middle" x="113.84" y="-418.38" font-family="Times New Roman,serif" font-size="14.00">Samples weight: 0.00</text>
</g>
<!-- BB0&#45;&gt;BB2 -->
<g id="edge1" class="edge">
<title>BB0&#45;&gt;BB2</title>
<path fill="none" stroke="black" d="M113.84,-528.39C113.84,-520.12 113.84,-511.44 113.84,-502.93"/>
<polygon fill="black" stroke="black" points="117.34,-502.69 113.84,-492.69 110.34,-502.69 117.34,-502.69"/>
</g>
<!-- BB1 -->
<g id="node2" class="node">
<title>BB1</title>
<ellipse fill="none" stroke="black" cx="113.84" cy="-312.42" rx="113.69" ry="48.17"/>
<text text-anchor="middle" x="113.84" y="-331.22" font-family="Times New Roman,serif" font-size="14.00">[68..87)</text>
<text text-anchor="middle" x="113.84" y="-316.22" font-family="Times New Roman,serif" font-size="14.00">Count: 1</text>
<text text-anchor="middle" x="113.84" y="-301.22" font-family="Times New Roman,serif" font-size="14.00">Normalized count: Infinity</text>
<text text-anchor="middle" x="113.84" y="-286.22" font-family="Times New Roman,serif" font-size="14.00">Samples weight: 0.02</text>
</g>
<!-- BB1&#45;&gt;BB2 -->
<g id="edge2" class="edge">
<title>BB1&#45;&gt;BB2</title>
<path fill="none" stroke="black" d="M120.37,-360.78C120.58,-369.07 120.65,-377.79 120.55,-386.32"/>
<polygon fill="black" stroke="black" points="117.05,-386.53 120.36,-396.59 124.05,-386.66 117.05,-386.53"/>
</g>
<!-- BB2&#45;&gt;BB1 -->
<g id="edge3" class="edge">
<title>BB2&#45;&gt;BB1</title>
<path fill="none" stroke="black" d="M107.33,-396.59C107.11,-388.22 107.04,-379.41 107.14,-370.78"/>
<polygon fill="black" stroke="black" points="110.64,-370.84 107.32,-360.78 103.64,-370.71 110.64,-370.84"/>
</g>
<!-- BB3 -->
<g id="node4" class="node">
<title>BB3</title>
<ellipse fill="none" stroke="black" cx="349.84" cy="-312.42" rx="104.8" ry="48.17"/>
<text text-anchor="middle" x="349.84" y="-331.22" font-family="Times New Roman,serif" font-size="14.00">[8c..94)</text>
<text text-anchor="middle" x="349.84" y="-316.22" font-family="Times New Roman,serif" font-size="14.00">Count: 0</text>
<text text-anchor="middle" x="349.84" y="-301.22" font-family="Times New Roman,serif" font-size="14.00">Normalized count: NaN</text>
<text text-anchor="middle" x="349.84" y="-286.22" font-family="Times New Roman,serif" font-size="14.00">Samples weight: 0.00</text>
</g>
<!-- BB2&#45;&gt;BB3 -->
<g id="edge4" class="edge">
<title>BB2&#45;&gt;BB3</title>
<path fill="none" stroke="black" d="M179.9,-407.15C209.44,-390.86 244.4,-371.57 274.91,-354.75"/>
<polygon fill="black" stroke="black" points="276.74,-357.73 283.81,-349.84 273.36,-351.6 276.74,-357.73"/>
</g>
<!-- BB5 -->
<g id="node6" class="node">
<title>BB5</title>
<ellipse fill="none" stroke="black" cx="349.84" cy="-180.25" rx="113.69" ry="48.17"/>
<text text-anchor="middle" x="349.84" y="-199.05" font-family="Times New Roman,serif" font-size="14.00">[180..189)</text>
<text text-anchor="middle" x="349.84" y="-184.05" font-family="Times New Roman,serif" font-size="14.00">Count: 2</text>
<text text-anchor="middle" x="349.84" y="-169.05" font-family="Times New Roman,serif" font-size="14.00">Normalized count: Infinity</text>
<text text-anchor="middle" x="349.84" y="-154.05" font-family="Times New Roman,serif" font-size="14.00">Samples weight: 0.03</text>
</g>
<!-- BB3&#45;&gt;BB5 -->
<g id="edge5" class="edge">
<title>BB3&#45;&gt;BB5</title>
<path fill="none" stroke="black" d="M349.84,-264.05C349.84,-255.79 349.84,-247.1 349.84,-238.6"/>
<polygon fill="black" stroke="black" points="353.34,-238.36 349.84,-228.36 346.34,-238.36 353.34,-238.36"/>
</g>
<!-- BB4 -->
<g id="node5" class="node">
<title>BB4</title>
<ellipse fill="none" stroke="black" cx="349.84" cy="-48.08" rx="113.69" ry="48.17"/>
<text text-anchor="middle" x="349.84" y="-66.88" font-family="Times New Roman,serif" font-size="14.00">[94..180)</text>
<text text-anchor="middle" x="349.84" y="-51.88" font-family="Times New Roman,serif" font-size="14.00">Count: 60</text>
<text text-anchor="middle" x="349.84" y="-36.88" font-family="Times New Roman,serif" font-size="14.00">Normalized count: Infinity</text>
<text text-anchor="middle" x="349.84" y="-21.88" font-family="Times New Roman,serif" font-size="14.00">Samples weight: 0.95</text>
</g>
<!-- BB4&#45;&gt;BB5 -->
<g id="edge6" class="edge">
<title>BB4&#45;&gt;BB5</title>
<path fill="none" stroke="black" d="M356.36,-96.19C356.58,-104.45 356.65,-113.13 356.55,-121.64"/>
<polygon fill="black" stroke="black" points="353.05,-121.83 356.37,-131.89 360.05,-121.95 353.05,-121.83"/>
</g>
<!-- BB5&#45;&gt;BB4 -->
<g id="edge7" class="edge">
<title>BB5&#45;&gt;BB4</title>
<path fill="none" stroke="black" d="M343.32,-131.89C343.1,-123.62 343.04,-114.94 343.14,-106.43"/>
<polygon fill="black" stroke="black" points="346.64,-106.26 343.33,-96.19 339.64,-106.12 346.64,-106.26"/>
</g>
<!-- BB6 -->
<g id="node7" class="node">
<title>BB6</title>
<ellipse fill="none" stroke="black" cx="585.84" cy="-48.08" rx="104.8" ry="48.17"/>
<text text-anchor="middle" x="585.84" y="-66.88" font-family="Times New Roman,serif" font-size="14.00">[189..1a3)</text>
<text text-anchor="middle" x="585.84" y="-51.88" font-family="Times New Roman,serif" font-size="14.00">Count: 0</text>
<text text-anchor="middle" x="585.84" y="-36.88" font-family="Times New Roman,serif" font-size="14.00">Normalized count: NaN</text>
<text text-anchor="middle" x="585.84" y="-21.88" font-family="Times New Roman,serif" font-size="14.00">Samples weight: 0.00</text>
</g>
<!-- BB5&#45;&gt;BB6 -->
<g id="edge8" class="edge">
<title>BB5&#45;&gt;BB6</title>
<path fill="none" stroke="black" d="M418.11,-141.6C447.1,-125.61 480.99,-106.91 510.7,-90.53"/>
<polygon fill="black" stroke="black" points="512.7,-93.42 519.77,-85.53 509.32,-87.29 512.7,-93.42"/>
</g>
</g>
</svg>
