<?xml version="1.0" encoding="UTF-8" standalone="no"?>
<!DOCTYPE svg PUBLIC "-//W3C//DTD SVG 1.1//EN"
 "http://www.w3.org/Graphics/SVG/1.1/DTD/svg11.dtd">
<!-- Generated by graphviz version 2.47.0 (20210316.0004)
 -->
<!-- Title: G Pages: 1 -->
<svg width="813pt" height="638pt"
 viewBox="0.00 0.00 812.67 637.72" xmlns="http://www.w3.org/2000/svg" xmlns:xlink="http://www.w3.org/1999/xlink">
<g id="graph0" class="graph" transform="scale(1 1) rotate(0) translate(4 633.72)">
<title>G</title>
<polygon fill="white" stroke="transparent" points="-4,4 -4,-633.72 808.67,-633.72 808.67,4 -4,4"/>
<!-- BB0 -->
<g id="node1" class="node">
<title>BB0</title>
<ellipse fill="none" stroke="black" cx="566.31" cy="-592.24" rx="105.22" ry="37.45"/>
<text text-anchor="middle" x="566.31" y="-603.54" font-family="Times New Roman,serif" font-size="14.00">[0..9)</text>
<text text-anchor="middle" x="566.31" y="-588.54" font-family="Times New Roman,serif" font-size="14.00">Normalized Count: 1.00</text>
<text text-anchor="middle" x="566.31" y="-573.54" font-family="Times New Roman,serif" font-size="14.00">Samples weight: 0.00</text>
</g>
<!-- BB8 -->
<g id="node9" class="node">
<title>BB8</title>
<ellipse fill="none" stroke="black" cx="566.31" cy="-481.29" rx="110.12" ry="37.45"/>
<text text-anchor="middle" x="566.31" y="-492.59" font-family="Times New Roman,serif" font-size="14.00">[d4..db)</text>
<text text-anchor="middle" x="566.31" y="-477.59" font-family="Times New Roman,serif" font-size="14.00">Normalized Count: 15.10</text>
<text text-anchor="middle" x="566.31" y="-462.59" font-family="Times New Roman,serif" font-size="14.00">Samples weight: 0.02</text>
</g>
<!-- BB0&#45;&gt;BB8 -->
<g id="edge1" class="edge">
<title>BB0&#45;&gt;BB8</title>
<path fill="none" stroke="black" d="M566.31,-554.66C566.31,-546.49 566.31,-537.71 566.31,-529.18"/>
<polygon fill="black" stroke="black" points="569.81,-528.96 566.31,-518.96 562.81,-528.96 569.81,-528.96"/>
</g>
<!-- BB1 -->
<g id="node2" class="node">
<title>BB1</title>
<ellipse fill="none" stroke="black" cx="426.31" cy="-370.34" rx="110.12" ry="37.45"/>
<text text-anchor="middle" x="426.31" y="-381.64" font-family="Times New Roman,serif" font-size="14.00">[9..2f)</text>
<text text-anchor="middle" x="426.31" y="-366.64" font-family="Times New Roman,serif" font-size="14.00">Normalized Count: 14.10</text>
<text text-anchor="middle" x="426.31" y="-351.64" font-family="Times New Roman,serif" font-size="14.00">Samples weight: 0.01</text>
</g>
<!-- BB2 -->
<g id="node3" class="node">
<title>BB2</title>
<ellipse fill="none" stroke="black" cx="389.31" cy="-259.38" rx="115.02" ry="37.45"/>
<text text-anchor="middle" x="389.31" y="-270.68" font-family="Times New Roman,serif" font-size="14.00">[2f..93)</text>
<text text-anchor="middle" x="389.31" y="-255.68" font-family="Times New Roman,serif" font-size="14.00">Normalized Count: 307.90</text>
<text text-anchor="middle" x="389.31" y="-240.68" font-family="Times New Roman,serif" font-size="14.00">Samples weight: 0.32</text>
</g>
<!-- BB1&#45;&gt;BB2 -->
<g id="edge2" class="edge">
<title>BB1&#45;&gt;BB2</title>
<path fill="none" stroke="black" d="M413.99,-333.06C411.09,-324.51 407.95,-315.29 404.93,-306.38"/>
<polygon fill="black" stroke="black" points="408.23,-305.22 401.7,-296.88 401.6,-307.47 408.23,-305.22"/>
</g>
<!-- BB3 -->
<g id="node4" class="node">
<title>BB3</title>
<ellipse fill="none" stroke="black" cx="110.31" cy="-148.43" rx="110.12" ry="37.45"/>
<text text-anchor="middle" x="110.31" y="-159.73" font-family="Times New Roman,serif" font-size="14.00">[93..9e)</text>
<text text-anchor="middle" x="110.31" y="-144.73" font-family="Times New Roman,serif" font-size="14.00">Normalized Count: 14.10</text>
<text text-anchor="middle" x="110.31" y="-129.73" font-family="Times New Roman,serif" font-size="14.00">Samples weight: 0.01</text>
</g>
<!-- BB2&#45;&gt;BB3 -->
<g id="edge4" class="edge">
<title>BB2&#45;&gt;BB3</title>
<path fill="none" stroke="black" d="M316.73,-230.04C278.17,-214.98 230.66,-196.43 190.95,-180.92"/>
<polygon fill="black" stroke="black" points="192.14,-177.63 181.56,-177.25 189.6,-184.15 192.14,-177.63"/>
</g>
<!-- BB4 -->
<g id="node5" class="node">
<title>BB4</title>
<ellipse fill="none" stroke="black" cx="354.31" cy="-148.43" rx="115.02" ry="37.45"/>
<text text-anchor="middle" x="354.31" y="-159.73" font-family="Times New Roman,serif" font-size="14.00">[9e..b1)</text>
<text text-anchor="middle" x="354.31" y="-144.73" font-family="Times New Roman,serif" font-size="14.00">Normalized Count: 293.80</text>
<text text-anchor="middle" x="354.31" y="-129.73" font-family="Times New Roman,serif" font-size="14.00">Samples weight: 0.31</text>
</g>
<!-- BB2&#45;&gt;BB4 -->
<g id="edge3" class="edge">
<title>BB2&#45;&gt;BB4</title>
<path fill="none" stroke="black" d="M377.56,-221.8C374.84,-213.36 371.92,-204.27 369.1,-195.48"/>
<polygon fill="black" stroke="black" points="372.36,-194.18 365.97,-185.73 365.7,-196.32 372.36,-194.18"/>
</g>
<!-- BB3&#45;&gt;BB4 -->
<g id="edge6" class="edge">
<title>BB3&#45;&gt;BB4</title>
<path fill="none" stroke="black" d="M220.87,-148.43C223.49,-148.43 226.12,-148.43 228.74,-148.43"/>
<polygon fill="black" stroke="black" points="228.85,-151.93 238.85,-148.43 228.85,-144.93 228.85,-151.93"/>
</g>
<!-- BB7 -->
<g id="node8" class="node">
<title>BB7</title>
<ellipse fill="none" stroke="black" cx="598.31" cy="-37.48" rx="110.12" ry="37.45"/>
<text text-anchor="middle" x="598.31" y="-48.78" font-family="Times New Roman,serif" font-size="14.00">[c9..d4)</text>
<text text-anchor="middle" x="598.31" y="-33.78" font-family="Times New Roman,serif" font-size="14.00">Normalized Count: 14.10</text>
<text text-anchor="middle" x="598.31" y="-18.78" font-family="Times New Roman,serif" font-size="14.00">Samples weight: 0.01</text>
</g>
<!-- BB3&#45;&gt;BB7 -->
<g id="edge5" class="edge">
<title>BB3&#45;&gt;BB7</title>
<path fill="none" stroke="black" d="M188.28,-121.87C202.18,-117.85 216.6,-114.01 230.31,-110.95 339.01,-86.69 369.61,-99.22 478.31,-74.95 488.8,-72.61 499.71,-69.81 510.49,-66.83"/>
<polygon fill="black" stroke="black" points="511.67,-70.13 520.33,-64.04 509.76,-63.4 511.67,-70.13"/>
</g>
<!-- BB5 -->
<g id="node6" class="node">
<title>BB5</title>
<ellipse fill="none" stroke="black" cx="115.31" cy="-37.48" rx="105.22" ry="37.45"/>
<text text-anchor="middle" x="115.31" y="-48.78" font-family="Times New Roman,serif" font-size="14.00">[b1..bc)</text>
<text text-anchor="middle" x="115.31" y="-33.78" font-family="Times New Roman,serif" font-size="14.00">Normalized Count: 5.15</text>
<text text-anchor="middle" x="115.31" y="-18.78" font-family="Times New Roman,serif" font-size="14.00">Samples weight: 0.01</text>
</g>
<!-- BB4&#45;&gt;BB5 -->
<g id="edge8" class="edge">
<title>BB4&#45;&gt;BB5</title>
<path fill="none" stroke="black" d="M288.68,-117.51C257.62,-103.35 220.41,-86.39 188.44,-71.81"/>
<polygon fill="black" stroke="black" points="189.69,-68.54 179.13,-67.57 186.78,-74.91 189.69,-68.54"/>
</g>
<!-- BB6 -->
<g id="node7" class="node">
<title>BB6</title>
<ellipse fill="none" stroke="black" cx="354.31" cy="-37.48" rx="115.02" ry="37.45"/>
<text text-anchor="middle" x="354.31" y="-48.78" font-family="Times New Roman,serif" font-size="14.00">[bc..c9)</text>
<text text-anchor="middle" x="354.31" y="-33.78" font-family="Times New Roman,serif" font-size="14.00">Normalized Count: 293.80</text>
<text text-anchor="middle" x="354.31" y="-18.78" font-family="Times New Roman,serif" font-size="14.00">Samples weight: 0.31</text>
</g>
<!-- BB4&#45;&gt;BB6 -->
<g id="edge7" class="edge">
<title>BB4&#45;&gt;BB6</title>
<path fill="none" stroke="black" d="M354.31,-110.85C354.31,-102.67 354.31,-93.89 354.31,-85.37"/>
<polygon fill="black" stroke="black" points="357.81,-85.15 354.31,-75.15 350.81,-85.15 357.81,-85.15"/>
</g>
<!-- BB5&#45;&gt;BB6 -->
<g id="edge10" class="edge">
<title>BB5&#45;&gt;BB6</title>
<path fill="none" stroke="black" d="M220.8,-37.48C223.43,-37.48 226.05,-37.48 228.68,-37.48"/>
<polygon fill="black" stroke="black" points="228.8,-40.98 238.8,-37.48 228.8,-33.98 228.8,-40.98"/>
</g>
<!-- BB5&#45;&gt;BB7 -->
<g id="edge9" class="edge">
<title>BB5&#45;&gt;BB7</title>
<path fill="none" stroke="black" d="M172.57,-69.13C193,-78.77 216.59,-88.1 239.31,-92.95 339.28,-114.3 369.19,-113.57 469.31,-92.95 489.52,-88.79 510.47,-81.32 529.46,-73.17"/>
<polygon fill="black" stroke="black" points="530.88,-76.37 538.61,-69.14 528.05,-69.97 530.88,-76.37"/>
</g>
<!-- BB6&#45;&gt;BB2 -->
<g id="edge11" class="edge">
<title>BB6&#45;&gt;BB2</title>
<path fill="none" stroke="black" d="M429.34,-66.01C448.7,-76.92 467.2,-91.6 478.31,-110.95 494.89,-139.85 492.61,-155.82 478.31,-185.91 472.25,-198.65 462.74,-209.89 452.14,-219.48"/>
<polygon fill="black" stroke="black" points="449.62,-217.03 444.26,-226.17 454.15,-222.36 449.62,-217.03"/>
</g>
<!-- BB6&#45;&gt;BB7 -->
<g id="edge12" class="edge">
<title>BB6&#45;&gt;BB7</title>
<path fill="none" stroke="black" d="M469.64,-37.48C472.41,-37.48 475.18,-37.48 477.95,-37.48"/>
<polygon fill="black" stroke="black" points="477.98,-40.98 487.98,-37.48 477.98,-33.98 477.98,-40.98"/>
</g>
<!-- BB7&#45;&gt;BB8 -->
<g id="edge13" class="edge">
<title>BB7&#45;&gt;BB8</title>
<path fill="none" stroke="black" d="M595.66,-75.05C589.87,-155.04 576.08,-345.4 569.68,-433.76"/>
<polygon fill="black" stroke="black" points="566.19,-433.53 568.95,-443.76 573.17,-434.04 566.19,-433.53"/>
</g>
<!-- BB8&#45;&gt;BB1 -->
<g id="edge14" class="edge">
<title>BB8&#45;&gt;BB1</title>
<path fill="none" stroke="black" d="M523.16,-446.71C508.79,-435.53 492.64,-422.96 477.71,-411.34"/>
<polygon fill="black" stroke="black" points="479.6,-408.37 469.55,-404.99 475.3,-413.9 479.6,-408.37"/>
</g>
<!-- BB9 -->
<g id="node10" class="node">
<title>BB9</title>
<ellipse fill="none" stroke="black" cx="699.31" cy="-370.34" rx="105.22" ry="37.45"/>
<text text-anchor="middle" x="699.31" y="-381.64" font-family="Times New Roman,serif" font-size="14.00">[db..e0)</text>
<text text-anchor="middle" x="699.31" y="-366.64" font-family="Times New Roman,serif" font-size="14.00">Normalized Count: 1.00</text>
<text text-anchor="middle" x="699.31" y="-351.64" font-family="Times New Roman,serif" font-size="14.00">Samples weight: 0.00</text>
</g>
<!-- BB8&#45;&gt;BB9 -->
<g id="edge15" class="edge">
<title>BB8&#45;&gt;BB9</title>
<path fill="none" stroke="black" d="M607.66,-446.41C621.05,-435.45 636.03,-423.18 649.94,-411.78"/>
<polygon fill="black" stroke="black" points="652.46,-414.24 657.98,-405.19 648.03,-408.82 652.46,-414.24"/>
</g>
</g>
</svg>
