<?xml version="1.0" encoding="UTF-8" standalone="no"?>
<!DOCTYPE svg PUBLIC "-//W3C//DTD SVG 1.1//EN"
 "http://www.w3.org/Graphics/SVG/1.1/DTD/svg11.dtd">
<!-- Generated by graphviz version 2.47.0 (20210316.0004)
 -->
<!-- Title: G Pages: 1 -->
<svg width="1266pt" height="1082pt"
 viewBox="0.00 0.00 1265.74 1081.53" xmlns="http://www.w3.org/2000/svg" xmlns:xlink="http://www.w3.org/1999/xlink">
<g id="graph0" class="graph" transform="scale(1 1) rotate(0) translate(4 1077.53)">
<title>G</title>
<polygon fill="white" stroke="transparent" points="-4,4 -4,-1077.53 1261.74,-1077.53 1261.74,4 -4,4"/>
<!-- BB0 -->
<g id="node1" class="node">
<title>BB0</title>
<ellipse fill="none" stroke="black" cx="667.97" cy="-1036.06" rx="106.55" ry="37.45"/>
<text text-anchor="middle" x="667.97" y="-1047.36" font-family="Times New Roman,serif" font-size="14.00">[0..12)</text>
<text text-anchor="middle" x="667.97" y="-1032.36" font-family="Times New Roman,serif" font-size="14.00">Normalized Count: NaN</text>
<text text-anchor="middle" x="667.97" y="-1017.36" font-family="Times New Roman,serif" font-size="14.00">Samples weight: 0.00</text>
</g>
<!-- BB1 -->
<g id="node2" class="node">
<title>BB1</title>
<ellipse fill="none" stroke="black" cx="551.97" cy="-925.1" rx="106.55" ry="37.45"/>
<text text-anchor="middle" x="551.97" y="-936.4" font-family="Times New Roman,serif" font-size="14.00">[12..32)</text>
<text text-anchor="middle" x="551.97" y="-921.4" font-family="Times New Roman,serif" font-size="14.00">Normalized Count: NaN</text>
<text text-anchor="middle" x="551.97" y="-906.4" font-family="Times New Roman,serif" font-size="14.00">Samples weight: 0.00</text>
</g>
<!-- BB0&#45;&gt;BB1 -->
<g id="edge2" class="edge">
<title>BB0&#45;&gt;BB1</title>
<path fill="none" stroke="black" d="M631.26,-1000.58C620.05,-990.05 607.6,-978.35 595.95,-967.41"/>
<polygon fill="black" stroke="black" points="598.12,-964.65 588.43,-960.35 593.32,-969.75 598.12,-964.65"/>
</g>
<!-- BB2 -->
<g id="node3" class="node">
<title>BB2</title>
<ellipse fill="none" stroke="black" cx="783.97" cy="-925.1" rx="106.55" ry="37.45"/>
<text text-anchor="middle" x="783.97" y="-936.4" font-family="Times New Roman,serif" font-size="14.00">[32..39)</text>
<text text-anchor="middle" x="783.97" y="-921.4" font-family="Times New Roman,serif" font-size="14.00">Normalized Count: NaN</text>
<text text-anchor="middle" x="783.97" y="-906.4" font-family="Times New Roman,serif" font-size="14.00">Samples weight: 0.00</text>
</g>
<!-- BB0&#45;&gt;BB2 -->
<g id="edge1" class="edge">
<title>BB0&#45;&gt;BB2</title>
<path fill="none" stroke="black" d="M704.67,-1000.58C715.89,-990.05 728.34,-978.35 739.98,-967.41"/>
<polygon fill="black" stroke="black" points="742.61,-969.75 747.5,-960.35 737.82,-964.65 742.61,-969.75"/>
</g>
<!-- BB1&#45;&gt;BB2 -->
<g id="edge3" class="edge">
<title>BB1&#45;&gt;BB2</title>
<path fill="none" stroke="black" d="M658.9,-925.1C661.54,-925.1 664.18,-925.1 666.81,-925.1"/>
<polygon fill="black" stroke="black" points="666.98,-928.6 676.98,-925.1 666.98,-921.6 666.98,-928.6"/>
</g>
<!-- BB15 -->
<g id="node16" class="node">
<title>BB15</title>
<ellipse fill="none" stroke="black" cx="783.97" cy="-814.15" rx="106.55" ry="37.45"/>
<text text-anchor="middle" x="783.97" y="-825.45" font-family="Times New Roman,serif" font-size="14.00">[12d..134)</text>
<text text-anchor="middle" x="783.97" y="-810.45" font-family="Times New Roman,serif" font-size="14.00">Normalized Count: NaN</text>
<text text-anchor="middle" x="783.97" y="-795.45" font-family="Times New Roman,serif" font-size="14.00">Samples weight: 0.00</text>
</g>
<!-- BB2&#45;&gt;BB15 -->
<g id="edge4" class="edge">
<title>BB2&#45;&gt;BB15</title>
<path fill="none" stroke="black" d="M783.97,-887.52C783.97,-879.35 783.97,-870.57 783.97,-862.04"/>
<polygon fill="black" stroke="black" points="787.47,-861.82 783.97,-851.82 780.47,-861.82 787.47,-861.82"/>
</g>
<!-- BB3 -->
<g id="node4" class="node">
<title>BB3</title>
<ellipse fill="none" stroke="black" cx="639.97" cy="-703.2" rx="115.93" ry="37.45"/>
<text text-anchor="middle" x="639.97" y="-714.5" font-family="Times New Roman,serif" font-size="14.00">[39..62)</text>
<text text-anchor="middle" x="639.97" y="-699.5" font-family="Times New Roman,serif" font-size="14.00">Normalized Count: Infinity</text>
<text text-anchor="middle" x="639.97" y="-684.5" font-family="Times New Roman,serif" font-size="14.00">Samples weight: 0.00</text>
</g>
<!-- BB11 -->
<g id="node12" class="node">
<title>BB11</title>
<ellipse fill="none" stroke="black" cx="574.97" cy="-592.24" rx="115.93" ry="37.45"/>
<text text-anchor="middle" x="574.97" y="-603.54" font-family="Times New Roman,serif" font-size="14.00">[106..10e)</text>
<text text-anchor="middle" x="574.97" y="-588.54" font-family="Times New Roman,serif" font-size="14.00">Normalized Count: Infinity</text>
<text text-anchor="middle" x="574.97" y="-573.54" font-family="Times New Roman,serif" font-size="14.00">Samples weight: 0.00</text>
</g>
<!-- BB3&#45;&gt;BB11 -->
<g id="edge5" class="edge">
<title>BB3&#45;&gt;BB11</title>
<path fill="none" stroke="black" d="M618.5,-666.22C613.12,-657.2 607.28,-647.41 601.68,-638.03"/>
<polygon fill="black" stroke="black" points="604.54,-635.98 596.41,-629.18 598.52,-639.56 604.54,-635.98"/>
</g>
<!-- BB4 -->
<g id="node5" class="node">
<title>BB4</title>
<ellipse fill="none" stroke="black" cx="365.97" cy="-481.29" rx="115.93" ry="37.45"/>
<text text-anchor="middle" x="365.97" y="-492.59" font-family="Times New Roman,serif" font-size="14.00">[62..9d)</text>
<text text-anchor="middle" x="365.97" y="-477.59" font-family="Times New Roman,serif" font-size="14.00">Normalized Count: Infinity</text>
<text text-anchor="middle" x="365.97" y="-462.59" font-family="Times New Roman,serif" font-size="14.00">Samples weight: 0.03</text>
</g>
<!-- BB5 -->
<g id="node6" class="node">
<title>BB5</title>
<ellipse fill="none" stroke="black" cx="365.97" cy="-370.34" rx="115.93" ry="37.45"/>
<text text-anchor="middle" x="365.97" y="-381.64" font-family="Times New Roman,serif" font-size="14.00">[9d..cf)</text>
<text text-anchor="middle" x="365.97" y="-366.64" font-family="Times New Roman,serif" font-size="14.00">Normalized Count: Infinity</text>
<text text-anchor="middle" x="365.97" y="-351.64" font-family="Times New Roman,serif" font-size="14.00">Samples weight: 0.89</text>
</g>
<!-- BB4&#45;&gt;BB5 -->
<g id="edge6" class="edge">
<title>BB4&#45;&gt;BB5</title>
<path fill="none" stroke="black" d="M365.97,-443.71C365.97,-435.53 365.97,-426.75 365.97,-418.23"/>
<polygon fill="black" stroke="black" points="369.47,-418.01 365.97,-408.01 362.47,-418.01 369.47,-418.01"/>
</g>
<!-- BB6 -->
<g id="node7" class="node">
<title>BB6</title>
<ellipse fill="none" stroke="black" cx="115.97" cy="-259.38" rx="115.93" ry="37.45"/>
<text text-anchor="middle" x="115.97" y="-270.68" font-family="Times New Roman,serif" font-size="14.00">[cf..d7)</text>
<text text-anchor="middle" x="115.97" y="-255.68" font-family="Times New Roman,serif" font-size="14.00">Normalized Count: Infinity</text>
<text text-anchor="middle" x="115.97" y="-240.68" font-family="Times New Roman,serif" font-size="14.00">Samples weight: 0.04</text>
</g>
<!-- BB5&#45;&gt;BB6 -->
<g id="edge8" class="edge">
<title>BB5&#45;&gt;BB6</title>
<path fill="none" stroke="black" d="M298.31,-339.85C265.8,-325.68 226.67,-308.63 193.01,-293.96"/>
<polygon fill="black" stroke="black" points="194.24,-290.68 183.67,-289.89 191.44,-297.1 194.24,-290.68"/>
</g>
<!-- BB7 -->
<g id="node8" class="node">
<title>BB7</title>
<ellipse fill="none" stroke="black" cx="365.97" cy="-259.38" rx="115.93" ry="37.45"/>
<text text-anchor="middle" x="365.97" y="-270.68" font-family="Times New Roman,serif" font-size="14.00">[d7..e1)</text>
<text text-anchor="middle" x="365.97" y="-255.68" font-family="Times New Roman,serif" font-size="14.00">Normalized Count: Infinity</text>
<text text-anchor="middle" x="365.97" y="-240.68" font-family="Times New Roman,serif" font-size="14.00">Samples weight: 0.04</text>
</g>
<!-- BB5&#45;&gt;BB7 -->
<g id="edge7" class="edge">
<title>BB5&#45;&gt;BB7</title>
<path fill="none" stroke="black" d="M359.55,-332.75C359.23,-324.58 359.14,-315.8 359.27,-307.27"/>
<polygon fill="black" stroke="black" points="362.78,-307.15 359.55,-297.06 355.78,-306.96 362.78,-307.15"/>
</g>
<!-- BB8 -->
<g id="node9" class="node">
<title>BB8</title>
<ellipse fill="none" stroke="black" cx="312.97" cy="-148.43" rx="115.93" ry="37.45"/>
<text text-anchor="middle" x="312.97" y="-159.73" font-family="Times New Roman,serif" font-size="14.00">[e1..eb)</text>
<text text-anchor="middle" x="312.97" y="-144.73" font-family="Times New Roman,serif" font-size="14.00">Normalized Count: Infinity</text>
<text text-anchor="middle" x="312.97" y="-129.73" font-family="Times New Roman,serif" font-size="14.00">Samples weight: 0.00</text>
</g>
<!-- BB6&#45;&gt;BB8 -->
<g id="edge9" class="edge">
<title>BB6&#45;&gt;BB8</title>
<path fill="none" stroke="black" d="M173.21,-226.72C196.18,-214.02 222.8,-199.3 246.6,-186.13"/>
<polygon fill="black" stroke="black" points="248.52,-189.07 255.58,-181.17 245.13,-182.95 248.52,-189.07"/>
</g>
<!-- BB7&#45;&gt;BB5 -->
<g id="edge10" class="edge">
<title>BB7&#45;&gt;BB5</title>
<path fill="none" stroke="black" d="M372.38,-297.06C372.7,-305.23 372.79,-314.02 372.66,-322.54"/>
<polygon fill="black" stroke="black" points="369.15,-322.66 372.38,-332.75 376.15,-322.85 369.15,-322.66"/>
</g>
<!-- BB7&#45;&gt;BB8 -->
<g id="edge11" class="edge">
<title>BB7&#45;&gt;BB8</title>
<path fill="none" stroke="black" d="M348.32,-222.1C344.03,-213.28 339.39,-203.74 334.92,-194.57"/>
<polygon fill="black" stroke="black" points="338.06,-193.01 330.54,-185.55 331.76,-196.07 338.06,-193.01"/>
</g>
<!-- BB9 -->
<g id="node10" class="node">
<title>BB9</title>
<ellipse fill="none" stroke="black" cx="259.97" cy="-37.48" rx="115.93" ry="37.45"/>
<text text-anchor="middle" x="259.97" y="-48.78" font-family="Times New Roman,serif" font-size="14.00">[eb..100)</text>
<text text-anchor="middle" x="259.97" y="-33.78" font-family="Times New Roman,serif" font-size="14.00">Normalized Count: Infinity</text>
<text text-anchor="middle" x="259.97" y="-18.78" font-family="Times New Roman,serif" font-size="14.00">Samples weight: 0.00</text>
</g>
<!-- BB8&#45;&gt;BB9 -->
<g id="edge13" class="edge">
<title>BB8&#45;&gt;BB9</title>
<path fill="none" stroke="black" d="M295.32,-111.15C291.03,-102.33 286.39,-92.79 281.92,-83.61"/>
<polygon fill="black" stroke="black" points="285.06,-82.06 277.54,-74.6 278.76,-85.12 285.06,-82.06"/>
</g>
<!-- BB10 -->
<g id="node11" class="node">
<title>BB10</title>
<ellipse fill="none" stroke="black" cx="509.97" cy="-37.48" rx="115.93" ry="37.45"/>
<text text-anchor="middle" x="509.97" y="-48.78" font-family="Times New Roman,serif" font-size="14.00">[100..106)</text>
<text text-anchor="middle" x="509.97" y="-33.78" font-family="Times New Roman,serif" font-size="14.00">Normalized Count: Infinity</text>
<text text-anchor="middle" x="509.97" y="-18.78" font-family="Times New Roman,serif" font-size="14.00">Samples weight: 0.00</text>
</g>
<!-- BB8&#45;&gt;BB10 -->
<g id="edge12" class="edge">
<title>BB8&#45;&gt;BB10</title>
<path fill="none" stroke="black" d="M370.21,-115.77C393.18,-103.07 419.8,-88.35 443.6,-75.18"/>
<polygon fill="black" stroke="black" points="445.52,-78.12 452.58,-70.22 442.13,-71.99 445.52,-78.12"/>
</g>
<!-- BB9&#45;&gt;BB10 -->
<g id="edge14" class="edge">
<title>BB9&#45;&gt;BB10</title>
<path fill="none" stroke="black" d="M376.18,-37.48C378.68,-37.48 381.17,-37.48 383.67,-37.48"/>
<polygon fill="black" stroke="black" points="383.95,-40.98 393.95,-37.48 383.95,-33.98 383.95,-40.98"/>
</g>
<!-- BB10&#45;&gt;BB11 -->
<g id="edge15" class="edge">
<title>BB10&#45;&gt;BB11</title>
<path fill="none" stroke="black" d="M509.97,-75.05C509.97,-118.69 509.97,-193.86 509.97,-258.38 509.97,-371.34 509.97,-371.34 509.97,-371.34 509.97,-437.4 506.51,-456.63 528.97,-518.77 532.42,-528.33 537.31,-537.95 542.61,-546.91"/>
<polygon fill="black" stroke="black" points="539.77,-548.97 548.02,-555.62 545.72,-545.28 539.77,-548.97"/>
</g>
<!-- BB11&#45;&gt;BB4 -->
<g id="edge16" class="edge">
<title>BB11&#45;&gt;BB4</title>
<path fill="none" stroke="black" d="M515.07,-560.02C490.04,-546.97 460.8,-531.73 434.88,-518.22"/>
<polygon fill="black" stroke="black" points="436.35,-515.04 425.87,-513.52 433.11,-521.24 436.35,-515.04"/>
</g>
<!-- BB12 -->
<g id="node13" class="node">
<title>BB12</title>
<ellipse fill="none" stroke="black" cx="644.97" cy="-481.29" rx="106.55" ry="37.45"/>
<text text-anchor="middle" x="644.97" y="-492.59" font-family="Times New Roman,serif" font-size="14.00">[10e..112)</text>
<text text-anchor="middle" x="644.97" y="-477.59" font-family="Times New Roman,serif" font-size="14.00">Normalized Count: NaN</text>
<text text-anchor="middle" x="644.97" y="-462.59" font-family="Times New Roman,serif" font-size="14.00">Samples weight: 0.00</text>
</g>
<!-- BB11&#45;&gt;BB12 -->
<g id="edge17" class="edge">
<title>BB11&#45;&gt;BB12</title>
<path fill="none" stroke="black" d="M598.08,-555.27C603.93,-546.15 610.29,-536.26 616.38,-526.78"/>
<polygon fill="black" stroke="black" points="619.41,-528.53 621.88,-518.23 613.53,-524.75 619.41,-528.53"/>
</g>
<!-- BB13 -->
<g id="node14" class="node">
<title>BB13</title>
<ellipse fill="none" stroke="black" cx="644.97" cy="-370.34" rx="106.55" ry="37.45"/>
<text text-anchor="middle" x="644.97" y="-381.64" font-family="Times New Roman,serif" font-size="14.00">[112..129)</text>
<text text-anchor="middle" x="644.97" y="-366.64" font-family="Times New Roman,serif" font-size="14.00">Normalized Count: NaN</text>
<text text-anchor="middle" x="644.97" y="-351.64" font-family="Times New Roman,serif" font-size="14.00">Samples weight: 0.00</text>
</g>
<!-- BB12&#45;&gt;BB13 -->
<g id="edge19" class="edge">
<title>BB12&#45;&gt;BB13</title>
<path fill="none" stroke="black" d="M644.97,-443.71C644.97,-435.53 644.97,-426.75 644.97,-418.23"/>
<polygon fill="black" stroke="black" points="648.47,-418.01 644.97,-408.01 641.47,-418.01 648.47,-418.01"/>
</g>
<!-- BB14 -->
<g id="node15" class="node">
<title>BB14</title>
<ellipse fill="none" stroke="black" cx="876.97" cy="-370.34" rx="106.55" ry="37.45"/>
<text text-anchor="middle" x="876.97" y="-381.64" font-family="Times New Roman,serif" font-size="14.00">[129..12d)</text>
<text text-anchor="middle" x="876.97" y="-366.64" font-family="Times New Roman,serif" font-size="14.00">Normalized Count: NaN</text>
<text text-anchor="middle" x="876.97" y="-351.64" font-family="Times New Roman,serif" font-size="14.00">Samples weight: 0.00</text>
</g>
<!-- BB12&#45;&gt;BB14 -->
<g id="edge18" class="edge">
<title>BB12&#45;&gt;BB14</title>
<path fill="none" stroke="black" d="M707.75,-450.81C737.79,-436.7 773.92,-419.73 805.07,-405.1"/>
<polygon fill="black" stroke="black" points="806.57,-408.26 814.13,-400.84 803.59,-401.93 806.57,-408.26"/>
</g>
<!-- BB13&#45;&gt;BB14 -->
<g id="edge20" class="edge">
<title>BB13&#45;&gt;BB14</title>
<path fill="none" stroke="black" d="M751.9,-370.34C754.54,-370.34 757.18,-370.34 759.81,-370.34"/>
<polygon fill="black" stroke="black" points="759.98,-373.84 769.98,-370.34 759.98,-366.84 759.98,-373.84"/>
</g>
<!-- BB14&#45;&gt;BB15 -->
<g id="edge21" class="edge">
<title>BB14&#45;&gt;BB15</title>
<path fill="none" stroke="black" d="M858.47,-407.48C840.88,-443.71 815.33,-501.59 802.97,-554.77 786.1,-627.31 783.1,-714.12 783.09,-766.38"/>
<polygon fill="black" stroke="black" points="779.59,-766.69 783.13,-776.67 786.59,-766.66 779.59,-766.69"/>
</g>
<!-- BB15&#45;&gt;BB3 -->
<g id="edge22" class="edge">
<title>BB15&#45;&gt;BB3</title>
<path fill="none" stroke="black" d="M739.98,-779.87C725.05,-768.57 708.21,-755.83 692.67,-744.07"/>
<polygon fill="black" stroke="black" points="694.76,-741.27 684.68,-738.03 690.54,-746.85 694.76,-741.27"/>
</g>
<!-- BB16 -->
<g id="node17" class="node">
<title>BB16</title>
<ellipse fill="none" stroke="black" cx="918.97" cy="-703.2" rx="106.55" ry="37.45"/>
<text text-anchor="middle" x="918.97" y="-714.5" font-family="Times New Roman,serif" font-size="14.00">[134..137)</text>
<text text-anchor="middle" x="918.97" y="-699.5" font-family="Times New Roman,serif" font-size="14.00">Normalized Count: NaN</text>
<text text-anchor="middle" x="918.97" y="-684.5" font-family="Times New Roman,serif" font-size="14.00">Samples weight: 0.00</text>
</g>
<!-- BB15&#45;&gt;BB16 -->
<g id="edge23" class="edge">
<title>BB15&#45;&gt;BB16</title>
<path fill="none" stroke="black" d="M825.57,-779.57C839.43,-768.39 855,-755.82 869.4,-744.2"/>
<polygon fill="black" stroke="black" points="871.68,-746.86 877.26,-737.85 867.28,-741.41 871.68,-746.86"/>
</g>
<!-- BB17 -->
<g id="node18" class="node">
<title>BB17</title>
<ellipse fill="none" stroke="black" cx="918.97" cy="-592.24" rx="106.55" ry="37.45"/>
<text text-anchor="middle" x="918.97" y="-603.54" font-family="Times New Roman,serif" font-size="14.00">[137..142)</text>
<text text-anchor="middle" x="918.97" y="-588.54" font-family="Times New Roman,serif" font-size="14.00">Normalized Count: NaN</text>
<text text-anchor="middle" x="918.97" y="-573.54" font-family="Times New Roman,serif" font-size="14.00">Samples weight: 0.00</text>
</g>
<!-- BB16&#45;&gt;BB17 -->
<g id="edge25" class="edge">
<title>BB16&#45;&gt;BB17</title>
<path fill="none" stroke="black" d="M918.97,-665.61C918.97,-657.44 918.97,-648.66 918.97,-640.13"/>
<polygon fill="black" stroke="black" points="922.47,-639.92 918.97,-629.92 915.47,-639.92 922.47,-639.92"/>
</g>
<!-- BB18 -->
<g id="node19" class="node">
<title>BB18</title>
<ellipse fill="none" stroke="black" cx="1150.97" cy="-592.24" rx="106.55" ry="37.45"/>
<text text-anchor="middle" x="1150.97" y="-603.54" font-family="Times New Roman,serif" font-size="14.00">[142..143)</text>
<text text-anchor="middle" x="1150.97" y="-588.54" font-family="Times New Roman,serif" font-size="14.00">Normalized Count: NaN</text>
<text text-anchor="middle" x="1150.97" y="-573.54" font-family="Times New Roman,serif" font-size="14.00">Samples weight: 0.00</text>
</g>
<!-- BB16&#45;&gt;BB18 -->
<g id="edge24" class="edge">
<title>BB16&#45;&gt;BB18</title>
<path fill="none" stroke="black" d="M981.75,-672.71C1011.79,-658.6 1047.92,-641.64 1079.07,-627.01"/>
<polygon fill="black" stroke="black" points="1080.57,-630.17 1088.13,-622.75 1077.59,-623.83 1080.57,-630.17"/>
</g>
<!-- BB17&#45;&gt;BB18 -->
<g id="edge26" class="edge">
<title>BB17&#45;&gt;BB18</title>
<path fill="none" stroke="black" d="M1025.9,-592.24C1028.54,-592.24 1031.18,-592.24 1033.81,-592.24"/>
<polygon fill="black" stroke="black" points="1033.98,-595.74 1043.98,-592.24 1033.98,-588.74 1033.98,-595.74"/>
</g>
</g>
</svg>
