<?xml version="1.0" encoding="UTF-8" standalone="no"?>
<!DOCTYPE svg PUBLIC "-//W3C//DTD SVG 1.1//EN"
 "http://www.w3.org/Graphics/SVG/1.1/DTD/svg11.dtd">
<!-- Generated by graphviz version 2.47.0 (20210316.0004)
 -->
<!-- Title: G Pages: 1 -->
<svg width="709pt" height="1161pt"
 viewBox="0.00 0.00 708.69 1161.50" xmlns="http://www.w3.org/2000/svg" xmlns:xlink="http://www.w3.org/1999/xlink">
<g id="graph0" class="graph" transform="scale(1 1) rotate(0) translate(4 1157.5)">
<title>G</title>
<polygon fill="white" stroke="transparent" points="-4,4 -4,-1157.5 704.69,-1157.5 704.69,4 -4,4"/>
<!-- BB0 -->
<g id="node1" class="node">
<title>BB0</title>
<ellipse fill="none" stroke="black" cx="255.84" cy="-1105.42" rx="104.8" ry="48.17"/>
<text text-anchor="middle" x="255.84" y="-1124.22" font-family="Times New Roman,serif" font-size="14.00">[0..20)</text>
<text text-anchor="middle" x="255.84" y="-1109.22" font-family="Times New Roman,serif" font-size="14.00">Count: 0</text>
<text text-anchor="middle" x="255.84" y="-1094.22" font-family="Times New Roman,serif" font-size="14.00">Normalized count: NaN</text>
<text text-anchor="middle" x="255.84" y="-1079.22" font-family="Times New Roman,serif" font-size="14.00">Samples weight: 0.00</text>
</g>
<!-- BB11 -->
<g id="node12" class="node">
<title>BB11</title>
<ellipse fill="none" stroke="black" cx="255.84" cy="-973.25" rx="113.69" ry="48.17"/>
<text text-anchor="middle" x="255.84" y="-992.05" font-family="Times New Roman,serif" font-size="14.00">[60..63)</text>
<text text-anchor="middle" x="255.84" y="-977.05" font-family="Times New Roman,serif" font-size="14.00">Count: 1</text>
<text text-anchor="middle" x="255.84" y="-962.05" font-family="Times New Roman,serif" font-size="14.00">Normalized count: Infinity</text>
<text text-anchor="middle" x="255.84" y="-947.05" font-family="Times New Roman,serif" font-size="14.00">Samples weight: 0.00</text>
</g>
<!-- BB0&#45;&gt;BB11 -->
<g id="edge1" class="edge">
<title>BB0&#45;&gt;BB11</title>
<path fill="none" stroke="black" d="M255.84,-1057.05C255.84,-1048.79 255.84,-1040.1 255.84,-1031.6"/>
<polygon fill="black" stroke="black" points="259.34,-1031.36 255.84,-1021.36 252.34,-1031.36 259.34,-1031.36"/>
</g>
<!-- BB1 -->
<g id="node2" class="node">
<title>BB1</title>
<ellipse fill="none" stroke="black" cx="255.84" cy="-841.08" rx="113.69" ry="48.17"/>
<text text-anchor="middle" x="255.84" y="-859.88" font-family="Times New Roman,serif" font-size="14.00">[20..24)</text>
<text text-anchor="middle" x="255.84" y="-844.88" font-family="Times New Roman,serif" font-size="14.00">Count: 1</text>
<text text-anchor="middle" x="255.84" y="-829.88" font-family="Times New Roman,serif" font-size="14.00">Normalized count: Infinity</text>
<text text-anchor="middle" x="255.84" y="-814.88" font-family="Times New Roman,serif" font-size="14.00">Samples weight: 0.00</text>
</g>
<!-- BB9 -->
<g id="node10" class="node">
<title>BB9</title>
<ellipse fill="none" stroke="black" cx="255.84" cy="-708.92" rx="113.69" ry="48.17"/>
<text text-anchor="middle" x="255.84" y="-727.72" font-family="Times New Roman,serif" font-size="14.00">[56..5b)</text>
<text text-anchor="middle" x="255.84" y="-712.72" font-family="Times New Roman,serif" font-size="14.00">Count: 5</text>
<text text-anchor="middle" x="255.84" y="-697.72" font-family="Times New Roman,serif" font-size="14.00">Normalized count: Infinity</text>
<text text-anchor="middle" x="255.84" y="-682.72" font-family="Times New Roman,serif" font-size="14.00">Samples weight: 0.00</text>
</g>
<!-- BB1&#45;&gt;BB9 -->
<g id="edge2" class="edge">
<title>BB1&#45;&gt;BB9</title>
<path fill="none" stroke="black" d="M255.84,-792.72C255.84,-784.45 255.84,-775.77 255.84,-767.27"/>
<polygon fill="black" stroke="black" points="259.34,-767.02 255.84,-757.02 252.34,-767.02 259.34,-767.02"/>
</g>
<!-- BB2 -->
<g id="node3" class="node">
<title>BB2</title>
<ellipse fill="none" stroke="black" cx="397.84" cy="-576.75" rx="113.69" ry="48.17"/>
<text text-anchor="middle" x="397.84" y="-595.55" font-family="Times New Roman,serif" font-size="14.00">[24..28)</text>
<text text-anchor="middle" x="397.84" y="-580.55" font-family="Times New Roman,serif" font-size="14.00">Count: 4</text>
<text text-anchor="middle" x="397.84" y="-565.55" font-family="Times New Roman,serif" font-size="14.00">Normalized count: Infinity</text>
<text text-anchor="middle" x="397.84" y="-550.55" font-family="Times New Roman,serif" font-size="14.00">Samples weight: 0.00</text>
</g>
<!-- BB7 -->
<g id="node8" class="node">
<title>BB7</title>
<ellipse fill="none" stroke="black" cx="397.84" cy="-444.58" rx="113.69" ry="48.17"/>
<text text-anchor="middle" x="397.84" y="-463.38" font-family="Times New Roman,serif" font-size="14.00">[4d..52)</text>
<text text-anchor="middle" x="397.84" y="-448.38" font-family="Times New Roman,serif" font-size="14.00">Count: 13</text>
<text text-anchor="middle" x="397.84" y="-433.38" font-family="Times New Roman,serif" font-size="14.00">Normalized count: Infinity</text>
<text text-anchor="middle" x="397.84" y="-418.38" font-family="Times New Roman,serif" font-size="14.00">Samples weight: 0.01</text>
</g>
<!-- BB2&#45;&gt;BB7 -->
<g id="edge3" class="edge">
<title>BB2&#45;&gt;BB7</title>
<path fill="none" stroke="black" d="M397.84,-528.39C397.84,-520.12 397.84,-511.44 397.84,-502.93"/>
<polygon fill="black" stroke="black" points="401.34,-502.69 397.84,-492.69 394.34,-502.69 401.34,-502.69"/>
</g>
<!-- BB3 -->
<g id="node4" class="node">
<title>BB3</title>
<ellipse fill="none" stroke="black" cx="550.84" cy="-312.42" rx="113.69" ry="48.17"/>
<text text-anchor="middle" x="550.84" y="-331.22" font-family="Times New Roman,serif" font-size="14.00">[28..2d)</text>
<text text-anchor="middle" x="550.84" y="-316.22" font-family="Times New Roman,serif" font-size="14.00">Count: 13</text>
<text text-anchor="middle" x="550.84" y="-301.22" font-family="Times New Roman,serif" font-size="14.00">Normalized count: Infinity</text>
<text text-anchor="middle" x="550.84" y="-286.22" font-family="Times New Roman,serif" font-size="14.00">Samples weight: 0.01</text>
</g>
<!-- BB5 -->
<g id="node6" class="node">
<title>BB5</title>
<ellipse fill="none" stroke="black" cx="562.84" cy="-180.25" rx="113.69" ry="48.17"/>
<text text-anchor="middle" x="562.84" y="-199.05" font-family="Times New Roman,serif" font-size="14.00">[43..49)</text>
<text text-anchor="middle" x="562.84" y="-184.05" font-family="Times New Roman,serif" font-size="14.00">Count: 127</text>
<text text-anchor="middle" x="562.84" y="-169.05" font-family="Times New Roman,serif" font-size="14.00">Normalized count: Infinity</text>
<text text-anchor="middle" x="562.84" y="-154.05" font-family="Times New Roman,serif" font-size="14.00">Samples weight: 0.06</text>
</g>
<!-- BB3&#45;&gt;BB5 -->
<g id="edge4" class="edge">
<title>BB3&#45;&gt;BB5</title>
<path fill="none" stroke="black" d="M555.21,-264.05C555.98,-255.7 556.79,-246.91 557.58,-238.32"/>
<polygon fill="black" stroke="black" points="561.07,-238.64 558.5,-228.36 554.1,-237.99 561.07,-238.64"/>
</g>
<!-- BB4 -->
<g id="node5" class="node">
<title>BB4</title>
<ellipse fill="none" stroke="black" cx="586.84" cy="-48.08" rx="113.69" ry="48.17"/>
<text text-anchor="middle" x="586.84" y="-66.88" font-family="Times New Roman,serif" font-size="14.00">[2d..43)</text>
<text text-anchor="middle" x="586.84" y="-51.88" font-family="Times New Roman,serif" font-size="14.00">Count: 2006</text>
<text text-anchor="middle" x="586.84" y="-36.88" font-family="Times New Roman,serif" font-size="14.00">Normalized count: Infinity</text>
<text text-anchor="middle" x="586.84" y="-21.88" font-family="Times New Roman,serif" font-size="14.00">Samples weight: 0.92</text>
</g>
<!-- BB4&#45;&gt;BB5 -->
<g id="edge5" class="edge">
<title>BB4&#45;&gt;BB5</title>
<path fill="none" stroke="black" d="M584.63,-96.44C583.31,-104.83 581.74,-113.64 580.05,-122.26"/>
<polygon fill="black" stroke="black" points="576.59,-121.76 578.02,-132.26 583.44,-123.16 576.59,-121.76"/>
</g>
<!-- BB5&#45;&gt;BB4 -->
<g id="edge6" class="edge">
<title>BB5&#45;&gt;BB4</title>
<path fill="none" stroke="black" d="M565.05,-131.89C566.39,-123.42 567.97,-114.53 569.68,-105.83"/>
<polygon fill="black" stroke="black" points="573.17,-106.25 571.73,-95.76 566.31,-104.86 573.17,-106.25"/>
</g>
<!-- BB6 -->
<g id="node7" class="node">
<title>BB6</title>
<ellipse fill="none" stroke="black" cx="350.84" cy="-48.08" rx="104.8" ry="48.17"/>
<text text-anchor="middle" x="350.84" y="-66.88" font-family="Times New Roman,serif" font-size="14.00">[49..4d)</text>
<text text-anchor="middle" x="350.84" y="-51.88" font-family="Times New Roman,serif" font-size="14.00">Count: 0</text>
<text text-anchor="middle" x="350.84" y="-36.88" font-family="Times New Roman,serif" font-size="14.00">Normalized count: NaN</text>
<text text-anchor="middle" x="350.84" y="-21.88" font-family="Times New Roman,serif" font-size="14.00">Samples weight: 0.00</text>
</g>
<!-- BB5&#45;&gt;BB6 -->
<g id="edge7" class="edge">
<title>BB5&#45;&gt;BB6</title>
<path fill="none" stroke="black" d="M499.24,-140.2C474.69,-125.12 446.51,-107.82 421.35,-92.37"/>
<polygon fill="black" stroke="black" points="422.94,-89.24 412.58,-86.99 419.27,-95.21 422.94,-89.24"/>
</g>
<!-- BB6&#45;&gt;BB7 -->
<g id="edge8" class="edge">
<title>BB6&#45;&gt;BB7</title>
<path fill="none" stroke="black" d="M357.34,-96.49C363.23,-140.08 372.02,-206.51 378.84,-264.33 383.65,-305.07 388.52,-351.07 392.12,-386.28"/>
<polygon fill="black" stroke="black" points="388.65,-386.78 393.15,-396.37 395.62,-386.07 388.65,-386.78"/>
</g>
<!-- BB7&#45;&gt;BB3 -->
<g id="edge9" class="edge">
<title>BB7&#45;&gt;BB3</title>
<path fill="none" stroke="black" d="M447.94,-400.96C462.49,-388.59 478.49,-374.98 493.44,-362.25"/>
<polygon fill="black" stroke="black" points="495.81,-364.83 501.16,-355.69 491.27,-359.5 495.81,-364.83"/>
</g>
<!-- BB8 -->
<g id="node9" class="node">
<title>BB8</title>
<ellipse fill="none" stroke="black" cx="255.84" cy="-312.42" rx="113.69" ry="48.17"/>
<text text-anchor="middle" x="255.84" y="-331.22" font-family="Times New Roman,serif" font-size="14.00">[52..56)</text>
<text text-anchor="middle" x="255.84" y="-316.22" font-family="Times New Roman,serif" font-size="14.00">Count: 8</text>
<text text-anchor="middle" x="255.84" y="-301.22" font-family="Times New Roman,serif" font-size="14.00">Normalized count: Infinity</text>
<text text-anchor="middle" x="255.84" y="-286.22" font-family="Times New Roman,serif" font-size="14.00">Samples weight: 0.00</text>
</g>
<!-- BB7&#45;&gt;BB8 -->
<g id="edge10" class="edge">
<title>BB7&#45;&gt;BB8</title>
<path fill="none" stroke="black" d="M350.95,-400.6C337.87,-388.6 323.54,-375.47 310.07,-363.12"/>
<polygon fill="black" stroke="black" points="312.42,-360.53 302.68,-356.35 307.69,-365.69 312.42,-360.53"/>
</g>
<!-- BB8&#45;&gt;BB9 -->
<g id="edge11" class="edge">
<title>BB8&#45;&gt;BB9</title>
<path fill="none" stroke="black" d="M255.84,-360.66C255.84,-433.31 255.84,-572.24 255.84,-650.55"/>
<polygon fill="black" stroke="black" points="252.34,-650.72 255.84,-660.72 259.34,-650.72 252.34,-650.72"/>
</g>
<!-- BB9&#45;&gt;BB2 -->
<g id="edge12" class="edge">
<title>BB9&#45;&gt;BB2</title>
<path fill="none" stroke="black" d="M302.73,-664.93C315.82,-652.94 330.15,-639.8 343.62,-627.45"/>
<polygon fill="black" stroke="black" points="346,-630.02 351,-620.69 341.27,-624.86 346,-630.02"/>
</g>
<!-- BB10 -->
<g id="node11" class="node">
<title>BB10</title>
<ellipse fill="none" stroke="black" cx="113.84" cy="-576.75" rx="113.69" ry="48.17"/>
<text text-anchor="middle" x="113.84" y="-595.55" font-family="Times New Roman,serif" font-size="14.00">[5b..60)</text>
<text text-anchor="middle" x="113.84" y="-580.55" font-family="Times New Roman,serif" font-size="14.00">Count: 2</text>
<text text-anchor="middle" x="113.84" y="-565.55" font-family="Times New Roman,serif" font-size="14.00">Normalized count: Infinity</text>
<text text-anchor="middle" x="113.84" y="-550.55" font-family="Times New Roman,serif" font-size="14.00">Samples weight: 0.00</text>
</g>
<!-- BB9&#45;&gt;BB10 -->
<g id="edge13" class="edge">
<title>BB9&#45;&gt;BB10</title>
<path fill="none" stroke="black" d="M208.95,-664.93C195.87,-652.94 181.54,-639.8 168.07,-627.45"/>
<polygon fill="black" stroke="black" points="170.42,-624.86 160.68,-620.69 165.69,-630.02 170.42,-624.86"/>
</g>
<!-- BB10&#45;&gt;BB11 -->
<g id="edge14" class="edge">
<title>BB10&#45;&gt;BB11</title>
<path fill="none" stroke="black" d="M104.53,-624.9C94.39,-689.24 85.37,-806.03 132.84,-889.17 142.37,-905.84 156.76,-919.85 172.39,-931.33"/>
<polygon fill="black" stroke="black" points="170.46,-934.24 180.66,-937.1 174.47,-928.5 170.46,-934.24"/>
</g>
<!-- BB11&#45;&gt;BB1 -->
<g id="edge15" class="edge">
<title>BB11&#45;&gt;BB1</title>
<path fill="none" stroke="black" d="M255.84,-924.89C255.84,-916.62 255.84,-907.94 255.84,-899.43"/>
<polygon fill="black" stroke="black" points="259.34,-899.19 255.84,-889.19 252.34,-899.19 259.34,-899.19"/>
</g>
<!-- BB12 -->
<g id="node13" class="node">
<title>BB12</title>
<ellipse fill="none" stroke="black" cx="491.84" cy="-841.08" rx="104.8" ry="48.17"/>
<text text-anchor="middle" x="491.84" y="-859.88" font-family="Times New Roman,serif" font-size="14.00">[63..6b)</text>
<text text-anchor="middle" x="491.84" y="-844.88" font-family="Times New Roman,serif" font-size="14.00">Count: 0</text>
<text text-anchor="middle" x="491.84" y="-829.88" font-family="Times New Roman,serif" font-size="14.00">Normalized count: NaN</text>
<text text-anchor="middle" x="491.84" y="-814.88" font-family="Times New Roman,serif" font-size="14.00">Samples weight: 0.00</text>
</g>
<!-- BB11&#45;&gt;BB12 -->
<g id="edge16" class="edge">
<title>BB11&#45;&gt;BB12</title>
<path fill="none" stroke="black" d="M324.11,-934.6C353.1,-918.61 386.99,-899.91 416.7,-883.53"/>
<polygon fill="black" stroke="black" points="418.7,-886.42 425.77,-878.53 415.32,-880.29 418.7,-886.42"/>
</g>
</g>
</svg>
