<?xml version="1.0" encoding="UTF-8" standalone="no"?>
<!DOCTYPE svg PUBLIC "-//W3C//DTD SVG 1.1//EN"
 "http://www.w3.org/Graphics/SVG/1.1/DTD/svg11.dtd">
<!-- Generated by graphviz version 2.47.0 (20210316.0004)
 -->
<!-- Title: G Pages: 1 -->
<svg width="1500pt" height="1426pt"
 viewBox="0.00 0.00 1499.65 1425.83" xmlns="http://www.w3.org/2000/svg" xmlns:xlink="http://www.w3.org/1999/xlink">
<g id="graph0" class="graph" transform="scale(1 1) rotate(0) translate(4 1421.83)">
<title>G</title>
<polygon fill="white" stroke="transparent" points="-4,4 -4,-1421.83 1495.65,-1421.83 1495.65,4 -4,4"/>
<!-- BB0 -->
<g id="node1" class="node">
<title>BB0</title>
<ellipse fill="none" stroke="black" cx="142" cy="-1369.75" rx="104.8" ry="48.17"/>
<text text-anchor="middle" x="142" y="-1388.55" font-family="Times New Roman,serif" font-size="14.00">[0..18)</text>
<text text-anchor="middle" x="142" y="-1373.55" font-family="Times New Roman,serif" font-size="14.00">Count: 0</text>
<text text-anchor="middle" x="142" y="-1358.55" font-family="Times New Roman,serif" font-size="14.00">Normalized count: NaN</text>
<text text-anchor="middle" x="142" y="-1343.55" font-family="Times New Roman,serif" font-size="14.00">Samples weight: 0.00</text>
</g>
<!-- BB2 -->
<g id="node3" class="node">
<title>BB2</title>
<ellipse fill="none" stroke="black" cx="142" cy="-1237.58" rx="104.8" ry="48.17"/>
<text text-anchor="middle" x="142" y="-1256.38" font-family="Times New Roman,serif" font-size="14.00">[2b..39)</text>
<text text-anchor="middle" x="142" y="-1241.38" font-family="Times New Roman,serif" font-size="14.00">Count: 0</text>
<text text-anchor="middle" x="142" y="-1226.38" font-family="Times New Roman,serif" font-size="14.00">Normalized count: NaN</text>
<text text-anchor="middle" x="142" y="-1211.38" font-family="Times New Roman,serif" font-size="14.00">Samples weight: 0.00</text>
</g>
<!-- BB0&#45;&gt;BB2 -->
<g id="edge1" class="edge">
<title>BB0&#45;&gt;BB2</title>
<path fill="none" stroke="black" d="M142,-1321.39C142,-1313.12 142,-1304.44 142,-1295.93"/>
<polygon fill="black" stroke="black" points="145.5,-1295.69 142,-1285.69 138.5,-1295.69 145.5,-1295.69"/>
</g>
<!-- BB1 -->
<g id="node2" class="node">
<title>BB1</title>
<ellipse fill="none" stroke="black" cx="142" cy="-1105.42" rx="104.8" ry="48.17"/>
<text text-anchor="middle" x="142" y="-1124.22" font-family="Times New Roman,serif" font-size="14.00">[18..2b)</text>
<text text-anchor="middle" x="142" y="-1109.22" font-family="Times New Roman,serif" font-size="14.00">Count: 0</text>
<text text-anchor="middle" x="142" y="-1094.22" font-family="Times New Roman,serif" font-size="14.00">Normalized count: NaN</text>
<text text-anchor="middle" x="142" y="-1079.22" font-family="Times New Roman,serif" font-size="14.00">Samples weight: 0.00</text>
</g>
<!-- BB1&#45;&gt;BB2 -->
<g id="edge2" class="edge">
<title>BB1&#45;&gt;BB2</title>
<path fill="none" stroke="black" d="M148.52,-1153.78C148.74,-1162.07 148.8,-1170.78 148.71,-1179.31"/>
<polygon fill="black" stroke="black" points="145.2,-1179.52 148.51,-1189.59 152.2,-1179.66 145.2,-1179.52"/>
</g>
<!-- BB2&#45;&gt;BB1 -->
<g id="edge3" class="edge">
<title>BB2&#45;&gt;BB1</title>
<path fill="none" stroke="black" d="M135.49,-1189.59C135.26,-1181.21 135.2,-1172.41 135.29,-1163.78"/>
<polygon fill="black" stroke="black" points="138.79,-1163.84 135.48,-1153.78 131.79,-1163.71 138.79,-1163.84"/>
</g>
<!-- BB3 -->
<g id="node4" class="node">
<title>BB3</title>
<ellipse fill="none" stroke="black" cx="369" cy="-1105.42" rx="104.8" ry="48.17"/>
<text text-anchor="middle" x="369" y="-1124.22" font-family="Times New Roman,serif" font-size="14.00">[39..56)</text>
<text text-anchor="middle" x="369" y="-1109.22" font-family="Times New Roman,serif" font-size="14.00">Count: 0</text>
<text text-anchor="middle" x="369" y="-1094.22" font-family="Times New Roman,serif" font-size="14.00">Normalized count: NaN</text>
<text text-anchor="middle" x="369" y="-1079.22" font-family="Times New Roman,serif" font-size="14.00">Samples weight: 0.00</text>
</g>
<!-- BB2&#45;&gt;BB3 -->
<g id="edge4" class="edge">
<title>BB2&#45;&gt;BB3</title>
<path fill="none" stroke="black" d="M206.44,-1199.63C234.24,-1183.69 266.9,-1164.96 295.62,-1148.49"/>
<polygon fill="black" stroke="black" points="297.46,-1151.47 304.4,-1143.46 293.98,-1145.4 297.46,-1151.47"/>
</g>
<!-- BB4 -->
<g id="node5" class="node">
<title>BB4</title>
<ellipse fill="none" stroke="black" cx="256" cy="-973.25" rx="104.8" ry="48.17"/>
<text text-anchor="middle" x="256" y="-992.05" font-family="Times New Roman,serif" font-size="14.00">[56..6c)</text>
<text text-anchor="middle" x="256" y="-977.05" font-family="Times New Roman,serif" font-size="14.00">Count: 0</text>
<text text-anchor="middle" x="256" y="-962.05" font-family="Times New Roman,serif" font-size="14.00">Normalized count: NaN</text>
<text text-anchor="middle" x="256" y="-947.05" font-family="Times New Roman,serif" font-size="14.00">Samples weight: 0.00</text>
</g>
<!-- BB3&#45;&gt;BB4 -->
<g id="edge6" class="edge">
<title>BB3&#45;&gt;BB4</title>
<path fill="none" stroke="black" d="M330.74,-1060.35C321.17,-1049.32 310.82,-1037.39 300.95,-1026.03"/>
<polygon fill="black" stroke="black" points="303.42,-1023.53 294.22,-1018.27 298.13,-1028.12 303.42,-1023.53"/>
</g>
<!-- BB5 -->
<g id="node6" class="node">
<title>BB5</title>
<ellipse fill="none" stroke="black" cx="483" cy="-973.25" rx="104.8" ry="48.17"/>
<text text-anchor="middle" x="483" y="-992.05" font-family="Times New Roman,serif" font-size="14.00">[6c..7a)</text>
<text text-anchor="middle" x="483" y="-977.05" font-family="Times New Roman,serif" font-size="14.00">Count: 0</text>
<text text-anchor="middle" x="483" y="-962.05" font-family="Times New Roman,serif" font-size="14.00">Normalized count: NaN</text>
<text text-anchor="middle" x="483" y="-947.05" font-family="Times New Roman,serif" font-size="14.00">Samples weight: 0.00</text>
</g>
<!-- BB3&#45;&gt;BB5 -->
<g id="edge5" class="edge">
<title>BB3&#45;&gt;BB5</title>
<path fill="none" stroke="black" d="M407.6,-1060.35C417.25,-1049.32 427.7,-1037.39 437.65,-1026.03"/>
<polygon fill="black" stroke="black" points="440.49,-1028.1 444.44,-1018.27 435.22,-1023.49 440.49,-1028.1"/>
</g>
<!-- BB4&#45;&gt;BB5 -->
<g id="edge7" class="edge">
<title>BB4&#45;&gt;BB5</title>
<path fill="none" stroke="black" d="M361.08,-973.25C363.4,-973.25 365.72,-973.25 368.04,-973.25"/>
<polygon fill="black" stroke="black" points="368.22,-976.75 378.22,-973.25 368.22,-969.75 368.22,-976.75"/>
</g>
<!-- BB6 -->
<g id="node7" class="node">
<title>BB6</title>
<ellipse fill="none" stroke="black" cx="483" cy="-841.08" rx="113.69" ry="48.17"/>
<text text-anchor="middle" x="483" y="-859.88" font-family="Times New Roman,serif" font-size="14.00">[7a..85)</text>
<text text-anchor="middle" x="483" y="-844.88" font-family="Times New Roman,serif" font-size="14.00">Count: 9</text>
<text text-anchor="middle" x="483" y="-829.88" font-family="Times New Roman,serif" font-size="14.00">Normalized count: Infinity</text>
<text text-anchor="middle" x="483" y="-814.88" font-family="Times New Roman,serif" font-size="14.00">Samples weight: 0.15</text>
</g>
<!-- BB5&#45;&gt;BB6 -->
<g id="edge8" class="edge">
<title>BB5&#45;&gt;BB6</title>
<path fill="none" stroke="black" d="M483,-924.89C483,-916.62 483,-907.94 483,-899.43"/>
<polygon fill="black" stroke="black" points="486.5,-899.19 483,-889.19 479.5,-899.19 486.5,-899.19"/>
</g>
<!-- BB7 -->
<g id="node8" class="node">
<title>BB7</title>
<ellipse fill="none" stroke="black" cx="360" cy="-708.92" rx="113.69" ry="48.17"/>
<text text-anchor="middle" x="360" y="-727.72" font-family="Times New Roman,serif" font-size="14.00">[85..8f)</text>
<text text-anchor="middle" x="360" y="-712.72" font-family="Times New Roman,serif" font-size="14.00">Count: 1</text>
<text text-anchor="middle" x="360" y="-697.72" font-family="Times New Roman,serif" font-size="14.00">Normalized count: Infinity</text>
<text text-anchor="middle" x="360" y="-682.72" font-family="Times New Roman,serif" font-size="14.00">Samples weight: 0.02</text>
</g>
<!-- BB6&#45;&gt;BB7 -->
<g id="edge10" class="edge">
<title>BB6&#45;&gt;BB7</title>
<path fill="none" stroke="black" d="M441.36,-796.01C430.84,-784.88 419.45,-772.83 408.62,-761.37"/>
<polygon fill="black" stroke="black" points="411.01,-758.8 401.6,-753.94 405.92,-763.61 411.01,-758.8"/>
</g>
<!-- BB12 -->
<g id="node13" class="node">
<title>BB12</title>
<ellipse fill="none" stroke="black" cx="620" cy="-708.92" rx="113.69" ry="48.17"/>
<text text-anchor="middle" x="620" y="-727.72" font-family="Times New Roman,serif" font-size="14.00">[b3..c0)</text>
<text text-anchor="middle" x="620" y="-712.72" font-family="Times New Roman,serif" font-size="14.00">Count: 7</text>
<text text-anchor="middle" x="620" y="-697.72" font-family="Times New Roman,serif" font-size="14.00">Normalized count: Infinity</text>
<text text-anchor="middle" x="620" y="-682.72" font-family="Times New Roman,serif" font-size="14.00">Samples weight: 0.12</text>
</g>
<!-- BB6&#45;&gt;BB12 -->
<g id="edge9" class="edge">
<title>BB6&#45;&gt;BB12</title>
<path fill="none" stroke="black" d="M528.62,-796.74C540.98,-784.99 554.47,-772.18 567.19,-760.09"/>
<polygon fill="black" stroke="black" points="569.74,-762.5 574.58,-753.07 564.92,-757.42 569.74,-762.5"/>
</g>
<!-- BB8 -->
<g id="node9" class="node">
<title>BB8</title>
<ellipse fill="none" stroke="black" cx="133" cy="-576.75" rx="104.8" ry="48.17"/>
<text text-anchor="middle" x="133" y="-595.55" font-family="Times New Roman,serif" font-size="14.00">[8f..a2)</text>
<text text-anchor="middle" x="133" y="-580.55" font-family="Times New Roman,serif" font-size="14.00">Count: 0</text>
<text text-anchor="middle" x="133" y="-565.55" font-family="Times New Roman,serif" font-size="14.00">Normalized count: NaN</text>
<text text-anchor="middle" x="133" y="-550.55" font-family="Times New Roman,serif" font-size="14.00">Samples weight: 0.00</text>
</g>
<!-- BB7&#45;&gt;BB8 -->
<g id="edge12" class="edge">
<title>BB7&#45;&gt;BB8</title>
<path fill="none" stroke="black" d="M293.43,-669.74C266.16,-654.1 234.5,-635.95 206.55,-619.93"/>
<polygon fill="black" stroke="black" points="208.03,-616.74 197.62,-614.8 204.55,-622.81 208.03,-616.74"/>
</g>
<!-- BB9 -->
<g id="node10" class="node">
<title>BB9</title>
<ellipse fill="none" stroke="black" cx="360" cy="-576.75" rx="104.8" ry="48.17"/>
<text text-anchor="middle" x="360" y="-595.55" font-family="Times New Roman,serif" font-size="14.00">[a2..a7)</text>
<text text-anchor="middle" x="360" y="-580.55" font-family="Times New Roman,serif" font-size="14.00">Count: 0</text>
<text text-anchor="middle" x="360" y="-565.55" font-family="Times New Roman,serif" font-size="14.00">Normalized count: NaN</text>
<text text-anchor="middle" x="360" y="-550.55" font-family="Times New Roman,serif" font-size="14.00">Samples weight: 0.00</text>
</g>
<!-- BB7&#45;&gt;BB9 -->
<g id="edge11" class="edge">
<title>BB7&#45;&gt;BB9</title>
<path fill="none" stroke="black" d="M360,-660.55C360,-652.29 360,-643.6 360,-635.1"/>
<polygon fill="black" stroke="black" points="363.5,-634.86 360,-624.86 356.5,-634.86 363.5,-634.86"/>
</g>
<!-- BB8&#45;&gt;BB9 -->
<g id="edge13" class="edge">
<title>BB8&#45;&gt;BB9</title>
<path fill="none" stroke="black" d="M238.08,-576.75C240.4,-576.75 242.72,-576.75 245.04,-576.75"/>
<polygon fill="black" stroke="black" points="245.22,-580.25 255.22,-576.75 245.22,-573.25 245.22,-580.25"/>
</g>
<!-- BB10 -->
<g id="node11" class="node">
<title>BB10</title>
<ellipse fill="none" stroke="black" cx="133" cy="-444.58" rx="104.8" ry="48.17"/>
<text text-anchor="middle" x="133" y="-463.38" font-family="Times New Roman,serif" font-size="14.00">[a7..ae)</text>
<text text-anchor="middle" x="133" y="-448.38" font-family="Times New Roman,serif" font-size="14.00">Count: 0</text>
<text text-anchor="middle" x="133" y="-433.38" font-family="Times New Roman,serif" font-size="14.00">Normalized count: NaN</text>
<text text-anchor="middle" x="133" y="-418.38" font-family="Times New Roman,serif" font-size="14.00">Samples weight: 0.00</text>
</g>
<!-- BB9&#45;&gt;BB10 -->
<g id="edge15" class="edge">
<title>BB9&#45;&gt;BB10</title>
<path fill="none" stroke="black" d="M295.56,-538.8C267.76,-522.86 235.1,-504.13 206.38,-487.66"/>
<polygon fill="black" stroke="black" points="208.02,-484.57 197.6,-482.63 204.54,-490.64 208.02,-484.57"/>
</g>
<!-- BB11 -->
<g id="node12" class="node">
<title>BB11</title>
<ellipse fill="none" stroke="black" cx="360" cy="-444.58" rx="104.8" ry="48.17"/>
<text text-anchor="middle" x="360" y="-463.38" font-family="Times New Roman,serif" font-size="14.00">[ae..b3)</text>
<text text-anchor="middle" x="360" y="-448.38" font-family="Times New Roman,serif" font-size="14.00">Count: 0</text>
<text text-anchor="middle" x="360" y="-433.38" font-family="Times New Roman,serif" font-size="14.00">Normalized count: NaN</text>
<text text-anchor="middle" x="360" y="-418.38" font-family="Times New Roman,serif" font-size="14.00">Samples weight: 0.00</text>
</g>
<!-- BB9&#45;&gt;BB11 -->
<g id="edge14" class="edge">
<title>BB9&#45;&gt;BB11</title>
<path fill="none" stroke="black" d="M360,-528.39C360,-520.12 360,-511.44 360,-502.93"/>
<polygon fill="black" stroke="black" points="363.5,-502.69 360,-492.69 356.5,-502.69 363.5,-502.69"/>
</g>
<!-- BB10&#45;&gt;BB11 -->
<g id="edge17" class="edge">
<title>BB10&#45;&gt;BB11</title>
<path fill="none" stroke="black" d="M238.08,-444.58C240.4,-444.58 242.72,-444.58 245.04,-444.58"/>
<polygon fill="black" stroke="black" points="245.22,-448.08 255.22,-444.58 245.22,-441.08 245.22,-448.08"/>
</g>
<!-- BB25 -->
<g id="node26" class="node">
<title>BB25</title>
<ellipse fill="none" stroke="black" cx="306" cy="-312.42" rx="104.8" ry="48.17"/>
<text text-anchor="middle" x="306" y="-331.22" font-family="Times New Roman,serif" font-size="14.00">[160..165)</text>
<text text-anchor="middle" x="306" y="-316.22" font-family="Times New Roman,serif" font-size="14.00">Count: 0</text>
<text text-anchor="middle" x="306" y="-301.22" font-family="Times New Roman,serif" font-size="14.00">Normalized count: NaN</text>
<text text-anchor="middle" x="306" y="-286.22" font-family="Times New Roman,serif" font-size="14.00">Samples weight: 0.00</text>
</g>
<!-- BB10&#45;&gt;BB25 -->
<g id="edge16" class="edge">
<title>BB10&#45;&gt;BB25</title>
<path fill="none" stroke="black" d="M186.79,-403.11C204.93,-389.46 225.33,-374.11 244.05,-360.02"/>
<polygon fill="black" stroke="black" points="246.36,-362.67 252.24,-353.86 242.15,-357.08 246.36,-362.67"/>
</g>
<!-- BB11&#45;&gt;BB12 -->
<g id="edge18" class="edge">
<title>BB11&#45;&gt;BB12</title>
<path fill="none" stroke="black" d="M424.03,-482.67C442.01,-495.45 460.36,-511.04 474,-528.67 502.13,-565.01 484.35,-588.13 512,-624.83 522.35,-638.57 535.54,-651.21 549.11,-662.27"/>
<polygon fill="black" stroke="black" points="547.11,-665.15 557.13,-668.59 551.45,-659.65 547.11,-665.15"/>
</g>
<!-- BB13 -->
<g id="node14" class="node">
<title>BB13</title>
<ellipse fill="none" stroke="black" cx="635" cy="-576.75" rx="113.69" ry="48.17"/>
<text text-anchor="middle" x="635" y="-595.55" font-family="Times New Roman,serif" font-size="14.00">[c0..ca)</text>
<text text-anchor="middle" x="635" y="-580.55" font-family="Times New Roman,serif" font-size="14.00">Count: 1</text>
<text text-anchor="middle" x="635" y="-565.55" font-family="Times New Roman,serif" font-size="14.00">Normalized count: Infinity</text>
<text text-anchor="middle" x="635" y="-550.55" font-family="Times New Roman,serif" font-size="14.00">Samples weight: 0.02</text>
</g>
<!-- BB12&#45;&gt;BB13 -->
<g id="edge20" class="edge">
<title>BB12&#45;&gt;BB13</title>
<path fill="none" stroke="black" d="M625.46,-660.55C626.42,-652.2 627.43,-643.41 628.42,-634.82"/>
<polygon fill="black" stroke="black" points="631.9,-635.19 629.57,-624.86 624.95,-634.39 631.9,-635.19"/>
</g>
<!-- BB18 -->
<g id="node19" class="node">
<title>BB18</title>
<ellipse fill="none" stroke="black" cx="1013" cy="-576.75" rx="113.69" ry="48.17"/>
<text text-anchor="middle" x="1013" y="-595.55" font-family="Times New Roman,serif" font-size="14.00">[f4..116)</text>
<text text-anchor="middle" x="1013" y="-580.55" font-family="Times New Roman,serif" font-size="14.00">Count: 33</text>
<text text-anchor="middle" x="1013" y="-565.55" font-family="Times New Roman,serif" font-size="14.00">Normalized count: Infinity</text>
<text text-anchor="middle" x="1013" y="-550.55" font-family="Times New Roman,serif" font-size="14.00">Samples weight: 0.55</text>
</g>
<!-- BB12&#45;&gt;BB18 -->
<g id="edge19" class="edge">
<title>BB12&#45;&gt;BB18</title>
<path fill="none" stroke="black" d="M708.69,-678.54C769.95,-658.25 851.46,-631.25 914.71,-610.31"/>
<polygon fill="black" stroke="black" points="915.9,-613.6 924.3,-607.13 913.7,-606.95 915.9,-613.6"/>
</g>
<!-- BB14 -->
<g id="node15" class="node">
<title>BB14</title>
<ellipse fill="none" stroke="black" cx="587" cy="-444.58" rx="104.8" ry="48.17"/>
<text text-anchor="middle" x="587" y="-463.38" font-family="Times New Roman,serif" font-size="14.00">[ca..e4)</text>
<text text-anchor="middle" x="587" y="-448.38" font-family="Times New Roman,serif" font-size="14.00">Count: 0</text>
<text text-anchor="middle" x="587" y="-433.38" font-family="Times New Roman,serif" font-size="14.00">Normalized count: NaN</text>
<text text-anchor="middle" x="587" y="-418.38" font-family="Times New Roman,serif" font-size="14.00">Samples weight: 0.00</text>
</g>
<!-- BB13&#45;&gt;BB14 -->
<g id="edge22" class="edge">
<title>BB13&#45;&gt;BB14</title>
<path fill="none" stroke="black" d="M617.81,-529.12C614.53,-520.24 611.07,-510.87 607.7,-501.73"/>
<polygon fill="black" stroke="black" points="610.98,-500.49 604.23,-492.32 604.41,-502.91 610.98,-500.49"/>
</g>
<!-- BB15 -->
<g id="node16" class="node">
<title>BB15</title>
<ellipse fill="none" stroke="black" cx="814" cy="-444.58" rx="104.8" ry="48.17"/>
<text text-anchor="middle" x="814" y="-463.38" font-family="Times New Roman,serif" font-size="14.00">[e4..e9)</text>
<text text-anchor="middle" x="814" y="-448.38" font-family="Times New Roman,serif" font-size="14.00">Count: 0</text>
<text text-anchor="middle" x="814" y="-433.38" font-family="Times New Roman,serif" font-size="14.00">Normalized count: NaN</text>
<text text-anchor="middle" x="814" y="-418.38" font-family="Times New Roman,serif" font-size="14.00">Samples weight: 0.00</text>
</g>
<!-- BB13&#45;&gt;BB15 -->
<g id="edge21" class="edge">
<title>BB13&#45;&gt;BB15</title>
<path fill="none" stroke="black" d="M691.64,-534.56C710.46,-520.88 731.53,-505.55 750.81,-491.53"/>
<polygon fill="black" stroke="black" points="752.93,-494.32 758.96,-485.61 748.81,-488.66 752.93,-494.32"/>
</g>
<!-- BB14&#45;&gt;BB15 -->
<g id="edge23" class="edge">
<title>BB14&#45;&gt;BB15</title>
<path fill="none" stroke="black" d="M692.08,-444.58C694.4,-444.58 696.72,-444.58 699.04,-444.58"/>
<polygon fill="black" stroke="black" points="699.22,-448.08 709.22,-444.58 699.22,-441.08 699.22,-448.08"/>
</g>
<!-- BB16 -->
<g id="node17" class="node">
<title>BB16</title>
<ellipse fill="none" stroke="black" cx="633" cy="-312.42" rx="104.8" ry="48.17"/>
<text text-anchor="middle" x="633" y="-331.22" font-family="Times New Roman,serif" font-size="14.00">[e9..ed)</text>
<text text-anchor="middle" x="633" y="-316.22" font-family="Times New Roman,serif" font-size="14.00">Count: 0</text>
<text text-anchor="middle" x="633" y="-301.22" font-family="Times New Roman,serif" font-size="14.00">Normalized count: NaN</text>
<text text-anchor="middle" x="633" y="-286.22" font-family="Times New Roman,serif" font-size="14.00">Samples weight: 0.00</text>
</g>
<!-- BB15&#45;&gt;BB16 -->
<g id="edge25" class="edge">
<title>BB15&#45;&gt;BB16</title>
<path fill="none" stroke="black" d="M758.22,-403.47C738.77,-389.48 716.81,-373.69 696.76,-359.27"/>
<polygon fill="black" stroke="black" points="698.76,-356.4 688.6,-353.4 694.67,-362.08 698.76,-356.4"/>
</g>
<!-- BB17 -->
<g id="node18" class="node">
<title>BB17</title>
<ellipse fill="none" stroke="black" cx="869" cy="-312.42" rx="113.69" ry="48.17"/>
<text text-anchor="middle" x="869" y="-331.22" font-family="Times New Roman,serif" font-size="14.00">[ed..f4)</text>
<text text-anchor="middle" x="869" y="-316.22" font-family="Times New Roman,serif" font-size="14.00">Count: 1</text>
<text text-anchor="middle" x="869" y="-301.22" font-family="Times New Roman,serif" font-size="14.00">Normalized count: Infinity</text>
<text text-anchor="middle" x="869" y="-286.22" font-family="Times New Roman,serif" font-size="14.00">Samples weight: 0.02</text>
</g>
<!-- BB15&#45;&gt;BB17 -->
<g id="edge24" class="edge">
<title>BB15&#45;&gt;BB17</title>
<path fill="none" stroke="black" d="M833.55,-397.32C837.39,-388.23 841.46,-378.59 845.42,-369.22"/>
<polygon fill="black" stroke="black" points="848.66,-370.54 849.33,-359.96 842.22,-367.81 848.66,-370.54"/>
</g>
<!-- BB16&#45;&gt;BB17 -->
<g id="edge27" class="edge">
<title>BB16&#45;&gt;BB17</title>
<path fill="none" stroke="black" d="M738.09,-312.42C740.38,-312.42 742.66,-312.42 744.95,-312.42"/>
<polygon fill="black" stroke="black" points="744.97,-315.92 754.97,-312.42 744.97,-308.92 744.97,-315.92"/>
</g>
<!-- BB16&#45;&gt;BB25 -->
<g id="edge26" class="edge">
<title>BB16&#45;&gt;BB25</title>
<path fill="none" stroke="black" d="M527.95,-312.42C492.24,-312.42 456.53,-312.42 420.81,-312.42"/>
<polygon fill="black" stroke="black" points="420.74,-308.92 410.74,-312.42 420.74,-315.92 420.74,-308.92"/>
</g>
<!-- BB17&#45;&gt;BB18 -->
<g id="edge28" class="edge">
<title>BB17&#45;&gt;BB18</title>
<path fill="none" stroke="black" d="M903.83,-358.28C912.34,-370.32 921,-383.59 928,-396.5 949.91,-436.9 946.19,-451.2 966,-492.67 970.44,-501.96 975.49,-511.64 980.6,-520.96"/>
<polygon fill="black" stroke="black" points="977.58,-522.73 985.49,-529.77 983.7,-519.33 977.58,-522.73"/>
</g>
<!-- BB19 -->
<g id="node20" class="node">
<title>BB19</title>
<ellipse fill="none" stroke="black" cx="1080" cy="-444.58" rx="104.8" ry="48.17"/>
<text text-anchor="middle" x="1080" y="-463.38" font-family="Times New Roman,serif" font-size="14.00">[116..129)</text>
<text text-anchor="middle" x="1080" y="-448.38" font-family="Times New Roman,serif" font-size="14.00">Count: 0</text>
<text text-anchor="middle" x="1080" y="-433.38" font-family="Times New Roman,serif" font-size="14.00">Normalized count: NaN</text>
<text text-anchor="middle" x="1080" y="-418.38" font-family="Times New Roman,serif" font-size="14.00">Samples weight: 0.00</text>
</g>
<!-- BB18&#45;&gt;BB19 -->
<g id="edge30" class="edge">
<title>BB18&#45;&gt;BB19</title>
<path fill="none" stroke="black" d="M1036.81,-529.49C1041.6,-520.19 1046.68,-510.32 1051.6,-500.75"/>
<polygon fill="black" stroke="black" points="1054.8,-502.19 1056.27,-491.69 1048.58,-498.98 1054.8,-502.19"/>
</g>
<!-- BB20 -->
<g id="node21" class="node">
<title>BB20</title>
<ellipse fill="none" stroke="black" cx="1316" cy="-444.58" rx="113.69" ry="48.17"/>
<text text-anchor="middle" x="1316" y="-463.38" font-family="Times New Roman,serif" font-size="14.00">[129..133)</text>
<text text-anchor="middle" x="1316" y="-448.38" font-family="Times New Roman,serif" font-size="14.00">Count: 7</text>
<text text-anchor="middle" x="1316" y="-433.38" font-family="Times New Roman,serif" font-size="14.00">Normalized count: Infinity</text>
<text text-anchor="middle" x="1316" y="-418.38" font-family="Times New Roman,serif" font-size="14.00">Samples weight: 0.12</text>
</g>
<!-- BB18&#45;&gt;BB20 -->
<g id="edge29" class="edge">
<title>BB18&#45;&gt;BB20</title>
<path fill="none" stroke="black" d="M1091.82,-541.89C1133.56,-523.96 1184.94,-501.88 1227.98,-483.4"/>
<polygon fill="black" stroke="black" points="1229.51,-486.55 1237.31,-479.39 1226.74,-480.12 1229.51,-486.55"/>
</g>
<!-- BB19&#45;&gt;BB20 -->
<g id="edge31" class="edge">
<title>BB19&#45;&gt;BB20</title>
<path fill="none" stroke="black" d="M1185.09,-444.58C1187.38,-444.58 1189.66,-444.58 1191.95,-444.58"/>
<polygon fill="black" stroke="black" points="1191.97,-448.08 1201.97,-444.58 1191.97,-441.08 1191.97,-448.08"/>
</g>
<!-- BB21 -->
<g id="node22" class="node">
<title>BB21</title>
<ellipse fill="none" stroke="black" cx="1160" cy="-312.42" rx="104.8" ry="48.17"/>
<text text-anchor="middle" x="1160" y="-331.22" font-family="Times New Roman,serif" font-size="14.00">[133..14d)</text>
<text text-anchor="middle" x="1160" y="-316.22" font-family="Times New Roman,serif" font-size="14.00">Count: 0</text>
<text text-anchor="middle" x="1160" y="-301.22" font-family="Times New Roman,serif" font-size="14.00">Normalized count: NaN</text>
<text text-anchor="middle" x="1160" y="-286.22" font-family="Times New Roman,serif" font-size="14.00">Samples weight: 0.00</text>
</g>
<!-- BB20&#45;&gt;BB21 -->
<g id="edge33" class="edge">
<title>BB20&#45;&gt;BB21</title>
<path fill="none" stroke="black" d="M1265.35,-401.32C1250.12,-388.62 1233.3,-374.58 1217.66,-361.53"/>
<polygon fill="black" stroke="black" points="1219.52,-358.52 1209.6,-354.8 1215.03,-363.89 1219.52,-358.52"/>
</g>
<!-- BB22 -->
<g id="node23" class="node">
<title>BB22</title>
<ellipse fill="none" stroke="black" cx="1387" cy="-312.42" rx="104.8" ry="48.17"/>
<text text-anchor="middle" x="1387" y="-331.22" font-family="Times New Roman,serif" font-size="14.00">[14d..154)</text>
<text text-anchor="middle" x="1387" y="-316.22" font-family="Times New Roman,serif" font-size="14.00">Count: 0</text>
<text text-anchor="middle" x="1387" y="-301.22" font-family="Times New Roman,serif" font-size="14.00">Normalized count: NaN</text>
<text text-anchor="middle" x="1387" y="-286.22" font-family="Times New Roman,serif" font-size="14.00">Samples weight: 0.00</text>
</g>
<!-- BB20&#45;&gt;BB22 -->
<g id="edge32" class="edge">
<title>BB20&#45;&gt;BB22</title>
<path fill="none" stroke="black" d="M1341.23,-397.32C1346.31,-388.02 1351.69,-378.16 1356.91,-368.58"/>
<polygon fill="black" stroke="black" points="1360.13,-369.98 1361.85,-359.53 1353.99,-366.63 1360.13,-369.98"/>
</g>
<!-- BB21&#45;&gt;BB22 -->
<g id="edge34" class="edge">
<title>BB21&#45;&gt;BB22</title>
<path fill="none" stroke="black" d="M1265.08,-312.42C1267.4,-312.42 1269.72,-312.42 1272.04,-312.42"/>
<polygon fill="black" stroke="black" points="1272.22,-315.92 1282.22,-312.42 1272.22,-308.92 1272.22,-315.92"/>
</g>
<!-- BB22&#45;&gt;BB6 -->
<g id="edge35" class="edge">
<title>BB22&#45;&gt;BB6</title>
<path fill="none" stroke="black" d="M1419.59,-358.49C1442.9,-396.72 1465.8,-451.73 1439,-492.67 1256.05,-772.07 821.66,-828.26 607.18,-838.55"/>
<polygon fill="black" stroke="black" points="606.97,-835.05 597.14,-839 607.29,-842.04 606.97,-835.05"/>
</g>
<!-- BB23 -->
<g id="node24" class="node">
<title>BB23</title>
<ellipse fill="none" stroke="black" cx="724" cy="-180.25" rx="113.69" ry="48.17"/>
<text text-anchor="middle" x="724" y="-199.05" font-family="Times New Roman,serif" font-size="14.00">[154..158)</text>
<text text-anchor="middle" x="724" y="-184.05" font-family="Times New Roman,serif" font-size="14.00">Count: 1</text>
<text text-anchor="middle" x="724" y="-169.05" font-family="Times New Roman,serif" font-size="14.00">Normalized count: Infinity</text>
<text text-anchor="middle" x="724" y="-154.05" font-family="Times New Roman,serif" font-size="14.00">Samples weight: 0.02</text>
</g>
<!-- BB22&#45;&gt;BB23 -->
<g id="edge36" class="edge">
<title>BB22&#45;&gt;BB23</title>
<path fill="none" stroke="black" d="M1313.76,-277.86C1300.71,-272.76 1287.1,-267.99 1274,-264.33 1129.66,-224.02 958.2,-202.05 845.54,-191"/>
<polygon fill="black" stroke="black" points="845.8,-187.51 835.51,-190.03 845.12,-194.47 845.8,-187.51"/>
</g>
<!-- BB24 -->
<g id="node25" class="node">
<title>BB24</title>
<ellipse fill="none" stroke="black" cx="128" cy="-48.08" rx="104.8" ry="48.17"/>
<text text-anchor="middle" x="128" y="-66.88" font-family="Times New Roman,serif" font-size="14.00">[158..160)</text>
<text text-anchor="middle" x="128" y="-51.88" font-family="Times New Roman,serif" font-size="14.00">Count: 0</text>
<text text-anchor="middle" x="128" y="-36.88" font-family="Times New Roman,serif" font-size="14.00">Normalized count: NaN</text>
<text text-anchor="middle" x="128" y="-21.88" font-family="Times New Roman,serif" font-size="14.00">Samples weight: 0.00</text>
</g>
<!-- BB23&#45;&gt;BB24 -->
<g id="edge38" class="edge">
<title>BB23&#45;&gt;BB24</title>
<path fill="none" stroke="black" d="M644.03,-145.84C630.17,-140.79 615.78,-135.99 602,-132.17 479.94,-98.26 336.17,-75.37 239.24,-62.35"/>
<polygon fill="black" stroke="black" points="239.51,-58.85 229.13,-61 238.58,-65.79 239.51,-58.85"/>
</g>
<!-- BB23&#45;&gt;BB25 -->
<g id="edge37" class="edge">
<title>BB23&#45;&gt;BB25</title>
<path fill="none" stroke="black" d="M642.35,-213.98C628.95,-219 615.14,-223.96 602,-228.33 537.6,-249.74 464.16,-270.38 406.54,-285.73"/>
<polygon fill="black" stroke="black" points="405.47,-282.39 396.7,-288.34 407.26,-289.16 405.47,-282.39"/>
</g>
<!-- BB24&#45;&gt;BB6 -->
<g id="edge39" class="edge">
<title>BB24&#45;&gt;BB6</title>
<path fill="none" stroke="black" d="M90.98,-93.26C53.17,-142.99 0,-227.8 0,-311.42 0,-577.75 0,-577.75 0,-577.75 0,-742.46 219.58,-804.32 362.63,-827.14"/>
<polygon fill="black" stroke="black" points="362.38,-830.64 372.8,-828.72 363.45,-823.73 362.38,-830.64"/>
</g>
<!-- BB24&#45;&gt;BB25 -->
<g id="edge40" class="edge">
<title>BB24&#45;&gt;BB25</title>
<path fill="none" stroke="black" d="M121.46,-96.26C118.62,-135.02 120.68,-189.65 147,-228.33 162.53,-251.15 186.36,-268.13 210.88,-280.57"/>
<polygon fill="black" stroke="black" points="209.41,-283.75 219.93,-284.96 212.46,-277.45 209.41,-283.75"/>
</g>
<!-- BB26 -->
<g id="node27" class="node">
<title>BB26</title>
<ellipse fill="none" stroke="black" cx="261" cy="-180.25" rx="104.8" ry="48.17"/>
<text text-anchor="middle" x="261" y="-199.05" font-family="Times New Roman,serif" font-size="14.00">[165..171)</text>
<text text-anchor="middle" x="261" y="-184.05" font-family="Times New Roman,serif" font-size="14.00">Count: 0</text>
<text text-anchor="middle" x="261" y="-169.05" font-family="Times New Roman,serif" font-size="14.00">Normalized count: NaN</text>
<text text-anchor="middle" x="261" y="-154.05" font-family="Times New Roman,serif" font-size="14.00">Samples weight: 0.00</text>
</g>
<!-- BB25&#45;&gt;BB26 -->
<g id="edge42" class="edge">
<title>BB25&#45;&gt;BB26</title>
<path fill="none" stroke="black" d="M289.88,-264.79C286.84,-256.01 283.64,-246.73 280.51,-237.68"/>
<polygon fill="black" stroke="black" points="283.73,-236.29 277.16,-227.99 277.12,-238.58 283.73,-236.29"/>
</g>
<!-- BB27 -->
<g id="node28" class="node">
<title>BB27</title>
<ellipse fill="none" stroke="black" cx="488" cy="-180.25" rx="104.8" ry="48.17"/>
<text text-anchor="middle" x="488" y="-199.05" font-family="Times New Roman,serif" font-size="14.00">[171..172)</text>
<text text-anchor="middle" x="488" y="-184.05" font-family="Times New Roman,serif" font-size="14.00">Count: 0</text>
<text text-anchor="middle" x="488" y="-169.05" font-family="Times New Roman,serif" font-size="14.00">Normalized count: NaN</text>
<text text-anchor="middle" x="488" y="-154.05" font-family="Times New Roman,serif" font-size="14.00">Samples weight: 0.00</text>
</g>
<!-- BB25&#45;&gt;BB27 -->
<g id="edge41" class="edge">
<title>BB25&#45;&gt;BB27</title>
<path fill="none" stroke="black" d="M361.59,-271.65C381.26,-257.59 403.53,-241.66 423.85,-227.13"/>
<polygon fill="black" stroke="black" points="426.02,-229.88 432.12,-221.22 421.95,-224.19 426.02,-229.88"/>
</g>
<!-- BB26&#45;&gt;BB27 -->
<g id="edge43" class="edge">
<title>BB26&#45;&gt;BB27</title>
<path fill="none" stroke="black" d="M366.08,-180.25C368.4,-180.25 370.72,-180.25 373.04,-180.25"/>
<polygon fill="black" stroke="black" points="373.22,-183.75 383.22,-180.25 373.22,-176.75 373.22,-183.75"/>
</g>
</g>
</svg>
