<?xml version="1.0" encoding="UTF-8" standalone="no"?>
<!DOCTYPE svg PUBLIC "-//W3C//DTD SVG 1.1//EN"
 "http://www.w3.org/Graphics/SVG/1.1/DTD/svg11.dtd">
<!-- Generated by graphviz version 2.47.0 (20210316.0004)
 -->
<!-- Title: G Pages: 1 -->
<svg width="400pt" height="510pt"
 viewBox="0.00 0.00 399.56 510.44" xmlns="http://www.w3.org/2000/svg" xmlns:xlink="http://www.w3.org/1999/xlink">
<g id="graph0" class="graph" transform="scale(1 1) rotate(0) translate(4 506.44)">
<title>G</title>
<polygon fill="white" stroke="transparent" points="-4,4 -4,-506.44 395.56,-506.44 395.56,4 -4,4"/>
<!-- BB0 -->
<g id="node1" class="node">
<title>BB0</title>
<ellipse fill="none" stroke="black" cx="154.13" cy="-475.57" rx="33.47" ry="26.74"/>
<text text-anchor="middle" x="154.13" y="-479.37" font-family="Times New Roman,serif" font-size="14.00">[0..4)</text>
<text text-anchor="middle" x="154.13" y="-464.37" font-family="Times New Roman,serif" font-size="14.00">0.00</text>
</g>
<!-- BB4 -->
<g id="node5" class="node">
<title>BB4</title>
<ellipse fill="none" stroke="black" cx="154.13" cy="-385.83" rx="40.11" ry="26.74"/>
<text text-anchor="middle" x="154.13" y="-389.63" font-family="Times New Roman,serif" font-size="14.00">[1f..2a)</text>
<text text-anchor="middle" x="154.13" y="-374.63" font-family="Times New Roman,serif" font-size="14.00">0.27</text>
</g>
<!-- BB0&#45;&gt;BB4 -->
<g id="edge1" class="edge">
<title>BB0&#45;&gt;BB4</title>
<path fill="none" stroke="black" d="M154.13,-448.25C154.13,-440.28 154.13,-431.39 154.13,-422.9"/>
<polygon fill="black" stroke="black" points="157.63,-422.83 154.13,-412.83 150.63,-422.83 157.63,-422.83"/>
</g>
<!-- BB1 -->
<g id="node2" class="node">
<title>BB1</title>
<ellipse fill="none" stroke="black" cx="89.13" cy="-296.09" rx="37.45" ry="26.74"/>
<text text-anchor="middle" x="89.13" y="-299.89" font-family="Times New Roman,serif" font-size="14.00">[4..10)</text>
<text text-anchor="middle" x="89.13" y="-284.89" font-family="Times New Roman,serif" font-size="14.00">0.26</text>
</g>
<!-- BB2 -->
<g id="node3" class="node">
<title>BB2</title>
<ellipse fill="none" stroke="black" cx="43.13" cy="-206.35" rx="43.27" ry="26.74"/>
<text text-anchor="middle" x="43.13" y="-210.15" font-family="Times New Roman,serif" font-size="14.00">[10..1b)</text>
<text text-anchor="middle" x="43.13" y="-195.15" font-family="Times New Roman,serif" font-size="14.00">0.03</text>
</g>
<!-- BB1&#45;&gt;BB2 -->
<g id="edge3" class="edge">
<title>BB1&#45;&gt;BB2</title>
<path fill="none" stroke="black" d="M76.32,-270.65C71.57,-261.58 66.08,-251.12 60.96,-241.36"/>
<polygon fill="black" stroke="black" points="63.94,-239.5 56.2,-232.27 57.74,-242.75 63.94,-239.5"/>
</g>
<!-- BB3 -->
<g id="node4" class="node">
<title>BB3</title>
<ellipse fill="none" stroke="black" cx="146.13" cy="-206.35" rx="41.94" ry="26.74"/>
<text text-anchor="middle" x="146.13" y="-210.15" font-family="Times New Roman,serif" font-size="14.00">[1b..1f)</text>
<text text-anchor="middle" x="146.13" y="-195.15" font-family="Times New Roman,serif" font-size="14.00">0.26</text>
</g>
<!-- BB1&#45;&gt;BB3 -->
<g id="edge2" class="edge">
<title>BB1&#45;&gt;BB3</title>
<path fill="none" stroke="black" d="M104.71,-271.12C110.99,-261.44 118.34,-250.13 125.09,-239.75"/>
<polygon fill="black" stroke="black" points="128.06,-241.59 130.58,-231.3 122.19,-237.78 128.06,-241.59"/>
</g>
<!-- BB2&#45;&gt;BB3 -->
<g id="edge4" class="edge">
<title>BB2&#45;&gt;BB3</title>
<path fill="none" stroke="black" d="M86.59,-206.35C89.07,-206.35 91.56,-206.35 94.04,-206.35"/>
<polygon fill="black" stroke="black" points="94.26,-209.85 104.26,-206.35 94.26,-202.85 94.26,-209.85"/>
</g>
<!-- BB3&#45;&gt;BB4 -->
<g id="edge5" class="edge">
<title>BB3&#45;&gt;BB4</title>
<path fill="none" stroke="black" d="M147.31,-233.36C148.68,-263.77 150.96,-314.32 152.5,-348.57"/>
<polygon fill="black" stroke="black" points="149.01,-348.81 152.95,-358.64 156,-348.5 149.01,-348.81"/>
</g>
<!-- BB4&#45;&gt;BB1 -->
<g id="edge6" class="edge">
<title>BB4&#45;&gt;BB1</title>
<path fill="none" stroke="black" d="M136.71,-361.32C129.16,-351.12 120.22,-339.05 112.13,-328.13"/>
<polygon fill="black" stroke="black" points="114.92,-326.01 106.15,-320.06 109.29,-330.18 114.92,-326.01"/>
</g>
<!-- BB5 -->
<g id="node6" class="node">
<title>BB5</title>
<ellipse fill="none" stroke="black" cx="239.13" cy="-296.09" rx="41.94" ry="26.74"/>
<text text-anchor="middle" x="239.13" y="-299.89" font-family="Times New Roman,serif" font-size="14.00">[2a..4e)</text>
<text text-anchor="middle" x="239.13" y="-284.89" font-family="Times New Roman,serif" font-size="14.00">0.00</text>
</g>
<!-- BB4&#45;&gt;BB5 -->
<g id="edge7" class="edge">
<title>BB4&#45;&gt;BB5</title>
<path fill="none" stroke="black" d="M175.58,-362.69C186.15,-351.78 199.05,-338.47 210.45,-326.7"/>
<polygon fill="black" stroke="black" points="213.25,-328.84 217.69,-319.22 208.22,-323.97 213.25,-328.84"/>
</g>
<!-- BB9 -->
<g id="node10" class="node">
<title>BB9</title>
<ellipse fill="none" stroke="black" cx="247.13" cy="-206.35" rx="41.94" ry="26.74"/>
<text text-anchor="middle" x="247.13" y="-210.15" font-family="Times New Roman,serif" font-size="14.00">[5e..66)</text>
<text text-anchor="middle" x="247.13" y="-195.15" font-family="Times New Roman,serif" font-size="14.00">0.05</text>
</g>
<!-- BB5&#45;&gt;BB9 -->
<g id="edge8" class="edge">
<title>BB5&#45;&gt;BB9</title>
<path fill="none" stroke="black" d="M241.49,-269.24C242.22,-261.19 243.05,-252.16 243.83,-243.54"/>
<polygon fill="black" stroke="black" points="247.34,-243.6 244.77,-233.32 240.37,-242.96 247.34,-243.6"/>
</g>
<!-- BB6 -->
<g id="node7" class="node">
<title>BB6</title>
<ellipse fill="none" stroke="black" cx="247.13" cy="-116.61" rx="41.94" ry="26.74"/>
<text text-anchor="middle" x="247.13" y="-120.41" font-family="Times New Roman,serif" font-size="14.00">[4e..58)</text>
<text text-anchor="middle" x="247.13" y="-105.41" font-family="Times New Roman,serif" font-size="14.00">0.05</text>
</g>
<!-- BB7 -->
<g id="node8" class="node">
<title>BB7</title>
<ellipse fill="none" stroke="black" cx="278.13" cy="-26.87" rx="41.94" ry="26.74"/>
<text text-anchor="middle" x="278.13" y="-30.67" font-family="Times New Roman,serif" font-size="14.00">[58..5a)</text>
<text text-anchor="middle" x="278.13" y="-15.67" font-family="Times New Roman,serif" font-size="14.00">0.00</text>
</g>
<!-- BB6&#45;&gt;BB7 -->
<g id="edge10" class="edge">
<title>BB6&#45;&gt;BB7</title>
<path fill="none" stroke="black" d="M256.1,-90.23C259.12,-81.68 262.55,-71.99 265.78,-62.83"/>
<polygon fill="black" stroke="black" points="269.16,-63.79 269.19,-53.19 262.56,-61.45 269.16,-63.79"/>
</g>
<!-- BB8 -->
<g id="node9" class="node">
<title>BB8</title>
<ellipse fill="none" stroke="black" cx="177.13" cy="-26.87" rx="41.94" ry="26.74"/>
<text text-anchor="middle" x="177.13" y="-30.67" font-family="Times New Roman,serif" font-size="14.00">[5a..5e)</text>
<text text-anchor="middle" x="177.13" y="-15.67" font-family="Times New Roman,serif" font-size="14.00">0.05</text>
</g>
<!-- BB6&#45;&gt;BB8 -->
<g id="edge9" class="edge">
<title>BB6&#45;&gt;BB8</title>
<path fill="none" stroke="black" d="M228.37,-92.1C220.31,-81.98 210.76,-70.02 202.11,-59.17"/>
<polygon fill="black" stroke="black" points="204.67,-56.78 195.7,-51.14 199.2,-61.14 204.67,-56.78"/>
</g>
<!-- BB8&#45;&gt;BB9 -->
<g id="edge11" class="edge">
<title>BB8&#45;&gt;BB9</title>
<path fill="none" stroke="black" d="M177.56,-53.78C178.83,-77.98 183.02,-114.59 196.13,-143.48 201.39,-155.07 209.4,-166.27 217.52,-175.88"/>
<polygon fill="black" stroke="black" points="215.06,-178.38 224.31,-183.55 220.3,-173.74 215.06,-178.38"/>
</g>
<!-- BB9&#45;&gt;BB6 -->
<g id="edge12" class="edge">
<title>BB9&#45;&gt;BB6</title>
<path fill="none" stroke="black" d="M247.13,-179.03C247.13,-171.06 247.13,-162.17 247.13,-153.68"/>
<polygon fill="black" stroke="black" points="250.63,-153.61 247.13,-143.61 243.63,-153.61 250.63,-153.61"/>
</g>
<!-- BB10 -->
<g id="node11" class="node">
<title>BB10</title>
<ellipse fill="none" stroke="black" cx="349.13" cy="-116.61" rx="42.35" ry="26.74"/>
<text text-anchor="middle" x="349.13" y="-120.41" font-family="Times New Roman,serif" font-size="14.00">[66..68)</text>
<text text-anchor="middle" x="349.13" y="-105.41" font-family="Times New Roman,serif" font-size="14.00">0.00</text>
</g>
<!-- BB9&#45;&gt;BB10 -->
<g id="edge13" class="edge">
<title>BB9&#45;&gt;BB10</title>
<path fill="none" stroke="black" d="M271.57,-184.33C285.09,-172.7 302.08,-158.09 316.7,-145.51"/>
<polygon fill="black" stroke="black" points="319.25,-147.93 324.55,-138.76 314.68,-142.63 319.25,-147.93"/>
</g>
</g>
</svg>
