<?xml version="1.0" encoding="UTF-8" standalone="no"?>
<!DOCTYPE svg PUBLIC "-//W3C//DTD SVG 1.1//EN"
 "http://www.w3.org/Graphics/SVG/1.1/DTD/svg11.dtd">
<!-- Generated by graphviz version 2.47.0 (20210316.0004)
 -->
<!-- Title: G Pages: 1 -->
<svg width="886pt" height="501pt"
 viewBox="0.00 0.00 886.48 500.67" xmlns="http://www.w3.org/2000/svg" xmlns:xlink="http://www.w3.org/1999/xlink">
<g id="graph0" class="graph" transform="scale(1 1) rotate(0) translate(4 496.67)">
<title>G</title>
<polygon fill="white" stroke="transparent" points="-4,4 -4,-496.67 882.48,-496.67 882.48,4 -4,4"/>
<!-- BB0 -->
<g id="node1" class="node">
<title>BB0</title>
<ellipse fill="none" stroke="black" cx="439.24" cy="-444.58" rx="103.48" ry="48.17"/>
<text text-anchor="middle" x="439.24" y="-463.38" font-family="Times New Roman,serif" font-size="14.00">[0..4)</text>
<text text-anchor="middle" x="439.24" y="-448.38" font-family="Times New Roman,serif" font-size="14.00">Count: 108</text>
<text text-anchor="middle" x="439.24" y="-433.38" font-family="Times New Roman,serif" font-size="14.00">Normalized count: 1.00</text>
<text text-anchor="middle" x="439.24" y="-418.38" font-family="Times New Roman,serif" font-size="14.00">Samples weight: 0.22</text>
</g>
<!-- BB1 -->
<g id="node2" class="node">
<title>BB1</title>
<ellipse fill="none" stroke="black" cx="327.24" cy="-312.42" rx="103.48" ry="48.17"/>
<text text-anchor="middle" x="327.24" y="-331.22" font-family="Times New Roman,serif" font-size="14.00">[4..10)</text>
<text text-anchor="middle" x="327.24" y="-316.22" font-family="Times New Roman,serif" font-size="14.00">Count: 68</text>
<text text-anchor="middle" x="327.24" y="-301.22" font-family="Times New Roman,serif" font-size="14.00">Normalized count: 0.63</text>
<text text-anchor="middle" x="327.24" y="-286.22" font-family="Times New Roman,serif" font-size="14.00">Samples weight: 0.14</text>
</g>
<!-- BB0&#45;&gt;BB1 -->
<g id="edge2" class="edge">
<title>BB0&#45;&gt;BB1</title>
<path fill="none" stroke="black" d="M401.32,-399.51C391.83,-388.49 381.57,-376.56 371.79,-365.2"/>
<polygon fill="black" stroke="black" points="374.29,-362.74 365.12,-357.44 368.99,-367.3 374.29,-362.74"/>
</g>
<!-- BB5 -->
<g id="node6" class="node">
<title>BB5</title>
<ellipse fill="none" stroke="black" cx="551.24" cy="-312.42" rx="103.48" ry="48.17"/>
<text text-anchor="middle" x="551.24" y="-331.22" font-family="Times New Roman,serif" font-size="14.00">[3a..42)</text>
<text text-anchor="middle" x="551.24" y="-316.22" font-family="Times New Roman,serif" font-size="14.00">Count: 105</text>
<text text-anchor="middle" x="551.24" y="-301.22" font-family="Times New Roman,serif" font-size="14.00">Normalized count: 0.97</text>
<text text-anchor="middle" x="551.24" y="-286.22" font-family="Times New Roman,serif" font-size="14.00">Samples weight: 0.22</text>
</g>
<!-- BB0&#45;&gt;BB5 -->
<g id="edge1" class="edge">
<title>BB0&#45;&gt;BB5</title>
<path fill="none" stroke="black" d="M477.16,-399.51C486.64,-388.49 496.91,-376.56 506.68,-365.2"/>
<polygon fill="black" stroke="black" points="509.49,-367.3 513.36,-357.44 504.18,-362.74 509.49,-367.3"/>
</g>
<!-- BB2 -->
<g id="node3" class="node">
<title>BB2</title>
<ellipse fill="none" stroke="black" cx="103.24" cy="-180.25" rx="103.48" ry="48.17"/>
<text text-anchor="middle" x="103.24" y="-199.05" font-family="Times New Roman,serif" font-size="14.00">[10..20)</text>
<text text-anchor="middle" x="103.24" y="-184.05" font-family="Times New Roman,serif" font-size="14.00">Count: 76</text>
<text text-anchor="middle" x="103.24" y="-169.05" font-family="Times New Roman,serif" font-size="14.00">Normalized count: 0.70</text>
<text text-anchor="middle" x="103.24" y="-154.05" font-family="Times New Roman,serif" font-size="14.00">Samples weight: 0.16</text>
</g>
<!-- BB1&#45;&gt;BB2 -->
<g id="edge4" class="edge">
<title>BB1&#45;&gt;BB2</title>
<path fill="none" stroke="black" d="M263.65,-274.46C236.22,-258.52 203.99,-239.8 175.65,-223.33"/>
<polygon fill="black" stroke="black" points="177.39,-220.29 166.99,-218.29 173.87,-226.35 177.39,-220.29"/>
</g>
<!-- BB3 -->
<g id="node4" class="node">
<title>BB3</title>
<ellipse fill="none" stroke="black" cx="327.24" cy="-180.25" rx="103.48" ry="48.17"/>
<text text-anchor="middle" x="327.24" y="-199.05" font-family="Times New Roman,serif" font-size="14.00">[20..2d)</text>
<text text-anchor="middle" x="327.24" y="-184.05" font-family="Times New Roman,serif" font-size="14.00">Count: 2</text>
<text text-anchor="middle" x="327.24" y="-169.05" font-family="Times New Roman,serif" font-size="14.00">Normalized count: 0.02</text>
<text text-anchor="middle" x="327.24" y="-154.05" font-family="Times New Roman,serif" font-size="14.00">Samples weight: 0.00</text>
</g>
<!-- BB1&#45;&gt;BB3 -->
<g id="edge3" class="edge">
<title>BB1&#45;&gt;BB3</title>
<path fill="none" stroke="black" d="M327.24,-264.05C327.24,-255.79 327.24,-247.1 327.24,-238.6"/>
<polygon fill="black" stroke="black" points="330.74,-238.36 327.24,-228.36 323.74,-238.36 330.74,-238.36"/>
</g>
<!-- BB4 -->
<g id="node5" class="node">
<title>BB4</title>
<ellipse fill="none" stroke="black" cx="215.24" cy="-48.08" rx="103.48" ry="48.17"/>
<text text-anchor="middle" x="215.24" y="-66.88" font-family="Times New Roman,serif" font-size="14.00">[2d..3a)</text>
<text text-anchor="middle" x="215.24" y="-51.88" font-family="Times New Roman,serif" font-size="14.00">Count: 12</text>
<text text-anchor="middle" x="215.24" y="-36.88" font-family="Times New Roman,serif" font-size="14.00">Normalized count: 0.11</text>
<text text-anchor="middle" x="215.24" y="-21.88" font-family="Times New Roman,serif" font-size="14.00">Samples weight: 0.02</text>
</g>
<!-- BB2&#45;&gt;BB4 -->
<g id="edge5" class="edge">
<title>BB2&#45;&gt;BB4</title>
<path fill="none" stroke="black" d="M141.16,-135.18C150.64,-124.16 160.91,-112.23 170.68,-100.86"/>
<polygon fill="black" stroke="black" points="173.49,-102.97 177.36,-93.11 168.18,-98.4 173.49,-102.97"/>
</g>
<!-- BB3&#45;&gt;BB4 -->
<g id="edge6" class="edge">
<title>BB3&#45;&gt;BB4</title>
<path fill="none" stroke="black" d="M289.32,-135.18C279.83,-124.16 269.57,-112.23 259.79,-100.86"/>
<polygon fill="black" stroke="black" points="262.29,-98.4 253.12,-93.11 256.99,-102.97 262.29,-98.4"/>
</g>
<!-- BB6 -->
<g id="node7" class="node">
<title>BB6</title>
<ellipse fill="none" stroke="black" cx="551.24" cy="-180.25" rx="103.48" ry="48.17"/>
<text text-anchor="middle" x="551.24" y="-199.05" font-family="Times New Roman,serif" font-size="14.00">[42..4e)</text>
<text text-anchor="middle" x="551.24" y="-184.05" font-family="Times New Roman,serif" font-size="14.00">Count: 32</text>
<text text-anchor="middle" x="551.24" y="-169.05" font-family="Times New Roman,serif" font-size="14.00">Normalized count: 0.30</text>
<text text-anchor="middle" x="551.24" y="-154.05" font-family="Times New Roman,serif" font-size="14.00">Samples weight: 0.07</text>
</g>
<!-- BB5&#45;&gt;BB6 -->
<g id="edge8" class="edge">
<title>BB5&#45;&gt;BB6</title>
<path fill="none" stroke="black" d="M551.24,-264.05C551.24,-255.79 551.24,-247.1 551.24,-238.6"/>
<polygon fill="black" stroke="black" points="554.74,-238.36 551.24,-228.36 547.74,-238.36 554.74,-238.36"/>
</g>
<!-- BB7 -->
<g id="node8" class="node">
<title>BB7</title>
<ellipse fill="none" stroke="black" cx="775.24" cy="-180.25" rx="103.48" ry="48.17"/>
<text text-anchor="middle" x="775.24" y="-199.05" font-family="Times New Roman,serif" font-size="14.00">[4e..4f)</text>
<text text-anchor="middle" x="775.24" y="-184.05" font-family="Times New Roman,serif" font-size="14.00">Count: 79</text>
<text text-anchor="middle" x="775.24" y="-169.05" font-family="Times New Roman,serif" font-size="14.00">Normalized count: 0.73</text>
<text text-anchor="middle" x="775.24" y="-154.05" font-family="Times New Roman,serif" font-size="14.00">Samples weight: 0.16</text>
</g>
<!-- BB5&#45;&gt;BB7 -->
<g id="edge7" class="edge">
<title>BB5&#45;&gt;BB7</title>
<path fill="none" stroke="black" d="M614.83,-274.46C642.26,-258.52 674.48,-239.8 702.83,-223.33"/>
<polygon fill="black" stroke="black" points="704.6,-226.35 711.49,-218.29 701.08,-220.29 704.6,-226.35"/>
</g>
<!-- BB6&#45;&gt;BB7 -->
<g id="edge9" class="edge">
<title>BB6&#45;&gt;BB7</title>
<path fill="none" stroke="black" d="M654.49,-180.25C656.94,-180.25 659.4,-180.25 661.85,-180.25"/>
<polygon fill="black" stroke="black" points="661.94,-183.75 671.94,-180.25 661.94,-176.75 661.94,-183.75"/>
</g>
</g>
</svg>
