<?xml version="1.0" encoding="UTF-8" standalone="no"?>
<!DOCTYPE svg PUBLIC "-//W3C//DTD SVG 1.1//EN"
 "http://www.w3.org/Graphics/SVG/1.1/DTD/svg11.dtd">
<!-- Generated by graphviz version 2.47.0 (20210316.0004)
 -->
<!-- Title: G Pages: 1 -->
<svg width="640pt" height="765pt"
 viewBox="0.00 0.00 640.42 765.00" xmlns="http://www.w3.org/2000/svg" xmlns:xlink="http://www.w3.org/1999/xlink">
<g id="graph0" class="graph" transform="scale(1 1) rotate(0) translate(4 761)">
<title>G</title>
<polygon fill="white" stroke="transparent" points="-4,4 -4,-761 636.42,-761 636.42,4 -4,4"/>
<!-- BB0 -->
<g id="node1" class="node">
<title>BB0</title>
<ellipse fill="none" stroke="black" cx="300.19" cy="-708.92" rx="103.48" ry="48.17"/>
<text text-anchor="middle" x="300.19" y="-727.72" font-family="Times New Roman,serif" font-size="14.00">[0..a)</text>
<text text-anchor="middle" x="300.19" y="-712.72" font-family="Times New Roman,serif" font-size="14.00">Count: 2</text>
<text text-anchor="middle" x="300.19" y="-697.72" font-family="Times New Roman,serif" font-size="14.00">Normalized count: 1.00</text>
<text text-anchor="middle" x="300.19" y="-682.72" font-family="Times New Roman,serif" font-size="14.00">Samples weight: 0.00</text>
</g>
<!-- BB7 -->
<g id="node8" class="node">
<title>BB7</title>
<ellipse fill="none" stroke="black" cx="300.19" cy="-576.75" rx="108.38" ry="48.17"/>
<text text-anchor="middle" x="300.19" y="-595.55" font-family="Times New Roman,serif" font-size="14.00">[34..38)</text>
<text text-anchor="middle" x="300.19" y="-580.55" font-family="Times New Roman,serif" font-size="14.00">Count: 55</text>
<text text-anchor="middle" x="300.19" y="-565.55" font-family="Times New Roman,serif" font-size="14.00">Normalized count: 27.50</text>
<text text-anchor="middle" x="300.19" y="-550.55" font-family="Times New Roman,serif" font-size="14.00">Samples weight: 0.00</text>
</g>
<!-- BB0&#45;&gt;BB7 -->
<g id="edge1" class="edge">
<title>BB0&#45;&gt;BB7</title>
<path fill="none" stroke="black" d="M300.19,-660.55C300.19,-652.29 300.19,-643.6 300.19,-635.1"/>
<polygon fill="black" stroke="black" points="303.69,-634.86 300.19,-624.86 296.69,-634.86 303.69,-634.86"/>
</g>
<!-- BB1 -->
<g id="node2" class="node">
<title>BB1</title>
<ellipse fill="none" stroke="black" cx="300.19" cy="-444.58" rx="108.38" ry="48.17"/>
<text text-anchor="middle" x="300.19" y="-463.38" font-family="Times New Roman,serif" font-size="14.00">[a..e)</text>
<text text-anchor="middle" x="300.19" y="-448.38" font-family="Times New Roman,serif" font-size="14.00">Count: 53</text>
<text text-anchor="middle" x="300.19" y="-433.38" font-family="Times New Roman,serif" font-size="14.00">Normalized count: 26.50</text>
<text text-anchor="middle" x="300.19" y="-418.38" font-family="Times New Roman,serif" font-size="14.00">Samples weight: 0.00</text>
</g>
<!-- BB5 -->
<g id="node6" class="node">
<title>BB5</title>
<ellipse fill="none" stroke="black" cx="332.19" cy="-312.42" rx="122.16" ry="48.17"/>
<text text-anchor="middle" x="332.19" y="-331.22" font-family="Times New Roman,serif" font-size="14.00">[28..30)</text>
<text text-anchor="middle" x="332.19" y="-316.22" font-family="Times New Roman,serif" font-size="14.00">Count: 140062</text>
<text text-anchor="middle" x="332.19" y="-301.22" font-family="Times New Roman,serif" font-size="14.00">Normalized count: 70031.00</text>
<text text-anchor="middle" x="332.19" y="-286.22" font-family="Times New Roman,serif" font-size="14.00">Samples weight: 0.28</text>
</g>
<!-- BB1&#45;&gt;BB5 -->
<g id="edge2" class="edge">
<title>BB1&#45;&gt;BB5</title>
<path fill="none" stroke="black" d="M311.74,-396.59C313.85,-388.02 316.07,-378.99 318.23,-370.17"/>
<polygon fill="black" stroke="black" points="321.66,-370.89 320.65,-360.34 314.87,-369.22 321.66,-370.89"/>
</g>
<!-- BB2 -->
<g id="node3" class="node">
<title>BB2</title>
<ellipse fill="none" stroke="black" cx="357.19" cy="-180.25" rx="122.16" ry="48.17"/>
<text text-anchor="middle" x="357.19" y="-199.05" font-family="Times New Roman,serif" font-size="14.00">[e..16)</text>
<text text-anchor="middle" x="357.19" y="-184.05" font-family="Times New Roman,serif" font-size="14.00">Count: 140009</text>
<text text-anchor="middle" x="357.19" y="-169.05" font-family="Times New Roman,serif" font-size="14.00">Normalized count: 70004.50</text>
<text text-anchor="middle" x="357.19" y="-154.05" font-family="Times New Roman,serif" font-size="14.00">Samples weight: 0.28</text>
</g>
<!-- BB3 -->
<g id="node4" class="node">
<title>BB3</title>
<ellipse fill="none" stroke="black" cx="244.19" cy="-48.08" rx="122.16" ry="48.17"/>
<text text-anchor="middle" x="244.19" y="-66.88" font-family="Times New Roman,serif" font-size="14.00">[16..24)</text>
<text text-anchor="middle" x="244.19" y="-51.88" font-family="Times New Roman,serif" font-size="14.00">Count: 85038</text>
<text text-anchor="middle" x="244.19" y="-36.88" font-family="Times New Roman,serif" font-size="14.00">Normalized count: 42519.00</text>
<text text-anchor="middle" x="244.19" y="-21.88" font-family="Times New Roman,serif" font-size="14.00">Samples weight: 0.17</text>
</g>
<!-- BB2&#45;&gt;BB3 -->
<g id="edge4" class="edge">
<title>BB2&#45;&gt;BB3</title>
<path fill="none" stroke="black" d="M318.3,-134.45C309.15,-123.92 299.33,-112.6 289.91,-101.76"/>
<polygon fill="black" stroke="black" points="292.35,-99.22 283.15,-93.96 287.06,-103.81 292.35,-99.22"/>
</g>
<!-- BB4 -->
<g id="node5" class="node">
<title>BB4</title>
<ellipse fill="none" stroke="black" cx="507.19" cy="-48.08" rx="122.16" ry="48.17"/>
<text text-anchor="middle" x="507.19" y="-66.88" font-family="Times New Roman,serif" font-size="14.00">[24..28)</text>
<text text-anchor="middle" x="507.19" y="-51.88" font-family="Times New Roman,serif" font-size="14.00">Count: 140009</text>
<text text-anchor="middle" x="507.19" y="-36.88" font-family="Times New Roman,serif" font-size="14.00">Normalized count: 70004.50</text>
<text text-anchor="middle" x="507.19" y="-21.88" font-family="Times New Roman,serif" font-size="14.00">Samples weight: 0.28</text>
</g>
<!-- BB2&#45;&gt;BB4 -->
<g id="edge3" class="edge">
<title>BB2&#45;&gt;BB4</title>
<path fill="none" stroke="black" d="M406.72,-136.27C420.47,-124.33 435.52,-111.27 449.69,-98.98"/>
<polygon fill="black" stroke="black" points="452.19,-101.44 457.45,-92.24 447.61,-96.15 452.19,-101.44"/>
</g>
<!-- BB3&#45;&gt;BB4 -->
<g id="edge5" class="edge">
<title>BB3&#45;&gt;BB4</title>
<path fill="none" stroke="black" d="M366.7,-48.08C369.34,-48.08 371.98,-48.08 374.62,-48.08"/>
<polygon fill="black" stroke="black" points="374.81,-51.58 384.81,-48.08 374.81,-44.58 374.81,-51.58"/>
</g>
<!-- BB4&#45;&gt;BB5 -->
<g id="edge6" class="edge">
<title>BB4&#45;&gt;BB5</title>
<path fill="none" stroke="black" d="M513.64,-96.2C516.44,-134.93 514.35,-189.55 488.19,-228.33 474.61,-248.45 454.53,-264.07 433.26,-276.05"/>
<polygon fill="black" stroke="black" points="431.58,-272.99 424.42,-280.8 434.89,-279.15 431.58,-272.99"/>
</g>
<!-- BB5&#45;&gt;BB2 -->
<g id="edge7" class="edge">
<title>BB5&#45;&gt;BB2</title>
<path fill="none" stroke="black" d="M341.21,-264.42C342.82,-256.05 344.51,-247.24 346.17,-238.62"/>
<polygon fill="black" stroke="black" points="349.64,-239.09 348.09,-228.61 342.77,-237.77 349.64,-239.09"/>
</g>
<!-- BB6 -->
<g id="node7" class="node">
<title>BB6</title>
<ellipse fill="none" stroke="black" cx="108.19" cy="-180.25" rx="108.38" ry="48.17"/>
<text text-anchor="middle" x="108.19" y="-199.05" font-family="Times New Roman,serif" font-size="14.00">[30..34)</text>
<text text-anchor="middle" x="108.19" y="-184.05" font-family="Times New Roman,serif" font-size="14.00">Count: 53</text>
<text text-anchor="middle" x="108.19" y="-169.05" font-family="Times New Roman,serif" font-size="14.00">Normalized count: 26.50</text>
<text text-anchor="middle" x="108.19" y="-154.05" font-family="Times New Roman,serif" font-size="14.00">Samples weight: 0.00</text>
</g>
<!-- BB5&#45;&gt;BB6 -->
<g id="edge8" class="edge">
<title>BB5&#45;&gt;BB6</title>
<path fill="none" stroke="black" d="M264.68,-272.19C238.52,-256.99 208.5,-239.54 181.79,-224.02"/>
<polygon fill="black" stroke="black" points="183.28,-220.84 172.87,-218.84 179.76,-226.89 183.28,-220.84"/>
</g>
<!-- BB6&#45;&gt;BB7 -->
<g id="edge9" class="edge">
<title>BB6&#45;&gt;BB7</title>
<path fill="none" stroke="black" d="M109.43,-228.35C113.25,-293.15 127.95,-411.03 183.19,-492.67 193.67,-508.16 208.07,-521.71 223.19,-533.13"/>
<polygon fill="black" stroke="black" points="221.49,-536.22 231.64,-539.25 225.59,-530.55 221.49,-536.22"/>
</g>
<!-- BB7&#45;&gt;BB1 -->
<g id="edge10" class="edge">
<title>BB7&#45;&gt;BB1</title>
<path fill="none" stroke="black" d="M300.19,-528.39C300.19,-520.12 300.19,-511.44 300.19,-502.93"/>
<polygon fill="black" stroke="black" points="303.69,-502.69 300.19,-492.69 296.69,-502.69 303.69,-502.69"/>
</g>
<!-- BB8 -->
<g id="node9" class="node">
<title>BB8</title>
<ellipse fill="none" stroke="black" cx="529.19" cy="-444.58" rx="103.48" ry="48.17"/>
<text text-anchor="middle" x="529.19" y="-463.38" font-family="Times New Roman,serif" font-size="14.00">[38..39)</text>
<text text-anchor="middle" x="529.19" y="-448.38" font-family="Times New Roman,serif" font-size="14.00">Count: 2</text>
<text text-anchor="middle" x="529.19" y="-433.38" font-family="Times New Roman,serif" font-size="14.00">Normalized count: 1.00</text>
<text text-anchor="middle" x="529.19" y="-418.38" font-family="Times New Roman,serif" font-size="14.00">Samples weight: 0.00</text>
</g>
<!-- BB7&#45;&gt;BB8 -->
<g id="edge11" class="edge">
<title>BB7&#45;&gt;BB8</title>
<path fill="none" stroke="black" d="M365.81,-538.45C393.96,-522.45 426.96,-503.69 455.9,-487.24"/>
<polygon fill="black" stroke="black" points="457.78,-490.2 464.74,-482.21 454.32,-484.11 457.78,-490.2"/>
</g>
</g>
</svg>
