<?xml version="1.0" encoding="UTF-8" standalone="no"?>
<!DOCTYPE svg PUBLIC "-//W3C//DTD SVG 1.1//EN"
 "http://www.w3.org/Graphics/SVG/1.1/DTD/svg11.dtd">
<!-- Generated by graphviz version 2.47.0 (20210316.0004)
 -->
<!-- Title: G Pages: 1 -->
<svg width="577pt" height="897pt"
 viewBox="0.00 0.00 577.30 897.17" xmlns="http://www.w3.org/2000/svg" xmlns:xlink="http://www.w3.org/1999/xlink">
<g id="graph0" class="graph" transform="scale(1 1) rotate(0) translate(4 893.17)">
<title>G</title>
<polygon fill="white" stroke="transparent" points="-4,4 -4,-893.17 573.3,-893.17 573.3,4 -4,4"/>
<!-- BB0 -->
<g id="node1" class="node">
<title>BB0</title>
<ellipse fill="none" stroke="black" cx="237.65" cy="-841.08" rx="104.8" ry="48.17"/>
<text text-anchor="middle" x="237.65" y="-859.88" font-family="Times New Roman,serif" font-size="14.00">[0..4)</text>
<text text-anchor="middle" x="237.65" y="-844.88" font-family="Times New Roman,serif" font-size="14.00">Count: 0</text>
<text text-anchor="middle" x="237.65" y="-829.88" font-family="Times New Roman,serif" font-size="14.00">Normalized count: NaN</text>
<text text-anchor="middle" x="237.65" y="-814.88" font-family="Times New Roman,serif" font-size="14.00">Samples weight: 0.00</text>
</g>
<!-- BB8 -->
<g id="node9" class="node">
<title>BB8</title>
<ellipse fill="none" stroke="black" cx="237.65" cy="-708.92" rx="104.8" ry="48.17"/>
<text text-anchor="middle" x="237.65" y="-727.72" font-family="Times New Roman,serif" font-size="14.00">[65..6a)</text>
<text text-anchor="middle" x="237.65" y="-712.72" font-family="Times New Roman,serif" font-size="14.00">Count: 0</text>
<text text-anchor="middle" x="237.65" y="-697.72" font-family="Times New Roman,serif" font-size="14.00">Normalized count: NaN</text>
<text text-anchor="middle" x="237.65" y="-682.72" font-family="Times New Roman,serif" font-size="14.00">Samples weight: 0.00</text>
</g>
<!-- BB0&#45;&gt;BB8 -->
<g id="edge1" class="edge">
<title>BB0&#45;&gt;BB8</title>
<path fill="none" stroke="black" d="M237.65,-792.72C237.65,-784.45 237.65,-775.77 237.65,-767.27"/>
<polygon fill="black" stroke="black" points="241.15,-767.02 237.65,-757.02 234.15,-767.02 241.15,-767.02"/>
</g>
<!-- BB1 -->
<g id="node2" class="node">
<title>BB1</title>
<ellipse fill="none" stroke="black" cx="237.65" cy="-576.75" rx="104.8" ry="48.17"/>
<text text-anchor="middle" x="237.65" y="-595.55" font-family="Times New Roman,serif" font-size="14.00">[4..8)</text>
<text text-anchor="middle" x="237.65" y="-580.55" font-family="Times New Roman,serif" font-size="14.00">Count: 0</text>
<text text-anchor="middle" x="237.65" y="-565.55" font-family="Times New Roman,serif" font-size="14.00">Normalized count: NaN</text>
<text text-anchor="middle" x="237.65" y="-550.55" font-family="Times New Roman,serif" font-size="14.00">Samples weight: 0.00</text>
</g>
<!-- BB6 -->
<g id="node7" class="node">
<title>BB6</title>
<ellipse fill="none" stroke="black" cx="242.65" cy="-444.58" rx="113.69" ry="48.17"/>
<text text-anchor="middle" x="242.65" y="-463.38" font-family="Times New Roman,serif" font-size="14.00">[5c..61)</text>
<text text-anchor="middle" x="242.65" y="-448.38" font-family="Times New Roman,serif" font-size="14.00">Count: 1</text>
<text text-anchor="middle" x="242.65" y="-433.38" font-family="Times New Roman,serif" font-size="14.00">Normalized count: Infinity</text>
<text text-anchor="middle" x="242.65" y="-418.38" font-family="Times New Roman,serif" font-size="14.00">Samples weight: 0.01</text>
</g>
<!-- BB1&#45;&gt;BB6 -->
<g id="edge2" class="edge">
<title>BB1&#45;&gt;BB6</title>
<path fill="none" stroke="black" d="M239.47,-528.39C239.79,-520.12 240.12,-511.44 240.45,-502.93"/>
<polygon fill="black" stroke="black" points="243.96,-502.82 240.84,-492.69 236.96,-502.55 243.96,-502.82"/>
</g>
<!-- BB2 -->
<g id="node3" class="node">
<title>BB2</title>
<ellipse fill="none" stroke="black" cx="404.65" cy="-312.42" rx="113.69" ry="48.17"/>
<text text-anchor="middle" x="404.65" y="-331.22" font-family="Times New Roman,serif" font-size="14.00">[8..1d)</text>
<text text-anchor="middle" x="404.65" y="-316.22" font-family="Times New Roman,serif" font-size="14.00">Count: 1</text>
<text text-anchor="middle" x="404.65" y="-301.22" font-family="Times New Roman,serif" font-size="14.00">Normalized count: Infinity</text>
<text text-anchor="middle" x="404.65" y="-286.22" font-family="Times New Roman,serif" font-size="14.00">Samples weight: 0.01</text>
</g>
<!-- BB4 -->
<g id="node5" class="node">
<title>BB4</title>
<ellipse fill="none" stroke="black" cx="416.65" cy="-180.25" rx="104.8" ry="48.17"/>
<text text-anchor="middle" x="416.65" y="-199.05" font-family="Times New Roman,serif" font-size="14.00">[53..58)</text>
<text text-anchor="middle" x="416.65" y="-184.05" font-family="Times New Roman,serif" font-size="14.00">Count: 0</text>
<text text-anchor="middle" x="416.65" y="-169.05" font-family="Times New Roman,serif" font-size="14.00">Normalized count: NaN</text>
<text text-anchor="middle" x="416.65" y="-154.05" font-family="Times New Roman,serif" font-size="14.00">Samples weight: 0.00</text>
</g>
<!-- BB2&#45;&gt;BB4 -->
<g id="edge3" class="edge">
<title>BB2&#45;&gt;BB4</title>
<path fill="none" stroke="black" d="M409.02,-264.05C409.79,-255.7 410.6,-246.91 411.39,-238.32"/>
<polygon fill="black" stroke="black" points="414.88,-238.64 412.31,-228.36 407.91,-237.99 414.88,-238.64"/>
</g>
<!-- BB3 -->
<g id="node4" class="node">
<title>BB3</title>
<ellipse fill="none" stroke="black" cx="428.65" cy="-48.08" rx="113.69" ry="48.17"/>
<text text-anchor="middle" x="428.65" y="-66.88" font-family="Times New Roman,serif" font-size="14.00">[1d..53)</text>
<text text-anchor="middle" x="428.65" y="-51.88" font-family="Times New Roman,serif" font-size="14.00">Count: 71</text>
<text text-anchor="middle" x="428.65" y="-36.88" font-family="Times New Roman,serif" font-size="14.00">Normalized count: Infinity</text>
<text text-anchor="middle" x="428.65" y="-21.88" font-family="Times New Roman,serif" font-size="14.00">Samples weight: 0.97</text>
</g>
<!-- BB3&#45;&gt;BB4 -->
<g id="edge4" class="edge">
<title>BB3&#45;&gt;BB4</title>
<path fill="none" stroke="black" d="M430.81,-96.44C430.26,-104.83 429.5,-113.64 428.61,-122.26"/>
<polygon fill="black" stroke="black" points="425.12,-121.93 427.5,-132.26 432.08,-122.71 425.12,-121.93"/>
</g>
<!-- BB4&#45;&gt;BB3 -->
<g id="edge5" class="edge">
<title>BB4&#45;&gt;BB3</title>
<path fill="none" stroke="black" d="M414.5,-131.89C415.05,-123.53 415.8,-114.75 416.69,-106.15"/>
<polygon fill="black" stroke="black" points="420.17,-106.52 417.79,-96.19 413.21,-105.74 420.17,-106.52"/>
</g>
<!-- BB5 -->
<g id="node6" class="node">
<title>BB5</title>
<ellipse fill="none" stroke="black" cx="192.65" cy="-48.08" rx="104.8" ry="48.17"/>
<text text-anchor="middle" x="192.65" y="-66.88" font-family="Times New Roman,serif" font-size="14.00">[58..5c)</text>
<text text-anchor="middle" x="192.65" y="-51.88" font-family="Times New Roman,serif" font-size="14.00">Count: 0</text>
<text text-anchor="middle" x="192.65" y="-36.88" font-family="Times New Roman,serif" font-size="14.00">Normalized count: NaN</text>
<text text-anchor="middle" x="192.65" y="-21.88" font-family="Times New Roman,serif" font-size="14.00">Samples weight: 0.00</text>
</g>
<!-- BB4&#45;&gt;BB5 -->
<g id="edge6" class="edge">
<title>BB4&#45;&gt;BB5</title>
<path fill="none" stroke="black" d="M352.76,-142.12C325.57,-126.32 293.72,-107.81 265.61,-91.48"/>
<polygon fill="black" stroke="black" points="267.03,-88.26 256.63,-86.26 263.51,-94.31 267.03,-88.26"/>
</g>
<!-- BB5&#45;&gt;BB6 -->
<g id="edge7" class="edge">
<title>BB5&#45;&gt;BB6</title>
<path fill="none" stroke="black" d="M198.64,-96.33C207.85,-168.98 225.46,-307.9 235.38,-386.22"/>
<polygon fill="black" stroke="black" points="231.94,-386.91 236.67,-396.39 238.89,-386.03 231.94,-386.91"/>
</g>
<!-- BB6&#45;&gt;BB2 -->
<g id="edge8" class="edge">
<title>BB6&#45;&gt;BB2</title>
<path fill="none" stroke="black" d="M294.8,-401.68C310.7,-388.91 328.3,-374.76 344.67,-361.61"/>
<polygon fill="black" stroke="black" points="347,-364.23 352.6,-355.24 342.61,-358.78 347,-364.23"/>
</g>
<!-- BB7 -->
<g id="node8" class="node">
<title>BB7</title>
<ellipse fill="none" stroke="black" cx="104.65" cy="-312.42" rx="104.8" ry="48.17"/>
<text text-anchor="middle" x="104.65" y="-331.22" font-family="Times New Roman,serif" font-size="14.00">[61..65)</text>
<text text-anchor="middle" x="104.65" y="-316.22" font-family="Times New Roman,serif" font-size="14.00">Count: 0</text>
<text text-anchor="middle" x="104.65" y="-301.22" font-family="Times New Roman,serif" font-size="14.00">Normalized count: NaN</text>
<text text-anchor="middle" x="104.65" y="-286.22" font-family="Times New Roman,serif" font-size="14.00">Samples weight: 0.00</text>
</g>
<!-- BB6&#45;&gt;BB7 -->
<g id="edge9" class="edge">
<title>BB6&#45;&gt;BB7</title>
<path fill="none" stroke="black" d="M196.7,-400.24C184.12,-388.37 170.38,-375.41 157.44,-363.21"/>
<polygon fill="black" stroke="black" points="159.61,-360.44 149.93,-356.13 154.81,-365.54 159.61,-360.44"/>
</g>
<!-- BB7&#45;&gt;BB8 -->
<g id="edge10" class="edge">
<title>BB7&#45;&gt;BB8</title>
<path fill="none" stroke="black" d="M95.77,-360.33C86.13,-424.39 77.67,-540.86 123.65,-624.83 132.53,-641.05 146.1,-654.93 160.8,-666.44"/>
<polygon fill="black" stroke="black" points="158.96,-669.43 169.07,-672.59 163.14,-663.82 158.96,-669.43"/>
</g>
<!-- BB8&#45;&gt;BB1 -->
<g id="edge11" class="edge">
<title>BB8&#45;&gt;BB1</title>
<path fill="none" stroke="black" d="M237.65,-660.55C237.65,-652.29 237.65,-643.6 237.65,-635.1"/>
<polygon fill="black" stroke="black" points="241.15,-634.86 237.65,-624.86 234.15,-634.86 241.15,-634.86"/>
</g>
<!-- BB9 -->
<g id="node10" class="node">
<title>BB9</title>
<ellipse fill="none" stroke="black" cx="464.65" cy="-576.75" rx="104.8" ry="48.17"/>
<text text-anchor="middle" x="464.65" y="-595.55" font-family="Times New Roman,serif" font-size="14.00">[6a..6b)</text>
<text text-anchor="middle" x="464.65" y="-580.55" font-family="Times New Roman,serif" font-size="14.00">Count: 0</text>
<text text-anchor="middle" x="464.65" y="-565.55" font-family="Times New Roman,serif" font-size="14.00">Normalized count: NaN</text>
<text text-anchor="middle" x="464.65" y="-550.55" font-family="Times New Roman,serif" font-size="14.00">Samples weight: 0.00</text>
</g>
<!-- BB8&#45;&gt;BB9 -->
<g id="edge12" class="edge">
<title>BB8&#45;&gt;BB9</title>
<path fill="none" stroke="black" d="M302.09,-670.96C329.89,-655.02 362.55,-636.3 391.27,-619.83"/>
<polygon fill="black" stroke="black" points="393.11,-622.8 400.05,-614.79 389.63,-616.73 393.11,-622.8"/>
</g>
</g>
</svg>
