<?xml version="1.0" encoding="UTF-8" standalone="no"?>
<!DOCTYPE svg PUBLIC "-//W3C//DTD SVG 1.1//EN"
 "http://www.w3.org/Graphics/SVG/1.1/DTD/svg11.dtd">
<!-- Generated by graphviz version 2.47.0 (20210316.0004)
 -->
<!-- Title: G Pages: 1 -->
<svg width="1356pt" height="1426pt"
 viewBox="0.00 0.00 1355.69 1425.83" xmlns="http://www.w3.org/2000/svg" xmlns:xlink="http://www.w3.org/1999/xlink">
<g id="graph0" class="graph" transform="scale(1 1) rotate(0) translate(4 1421.83)">
<title>G</title>
<polygon fill="white" stroke="transparent" points="-4,4 -4,-1421.83 1351.69,-1421.83 1351.69,4 -4,4"/>
<!-- BB0 -->
<g id="node1" class="node">
<title>BB0</title>
<ellipse fill="none" stroke="black" cx="878.84" cy="-1369.75" rx="104.8" ry="48.17"/>
<text text-anchor="middle" x="878.84" y="-1388.55" font-family="Times New Roman,serif" font-size="14.00">[0..27)</text>
<text text-anchor="middle" x="878.84" y="-1373.55" font-family="Times New Roman,serif" font-size="14.00">Count: 0</text>
<text text-anchor="middle" x="878.84" y="-1358.55" font-family="Times New Roman,serif" font-size="14.00">Normalized count: NaN</text>
<text text-anchor="middle" x="878.84" y="-1343.55" font-family="Times New Roman,serif" font-size="14.00">Samples weight: 0.00</text>
</g>
<!-- BB2 -->
<g id="node3" class="node">
<title>BB2</title>
<ellipse fill="none" stroke="black" cx="878.84" cy="-1237.58" rx="104.8" ry="48.17"/>
<text text-anchor="middle" x="878.84" y="-1256.38" font-family="Times New Roman,serif" font-size="14.00">[3f..44)</text>
<text text-anchor="middle" x="878.84" y="-1241.38" font-family="Times New Roman,serif" font-size="14.00">Count: 0</text>
<text text-anchor="middle" x="878.84" y="-1226.38" font-family="Times New Roman,serif" font-size="14.00">Normalized count: NaN</text>
<text text-anchor="middle" x="878.84" y="-1211.38" font-family="Times New Roman,serif" font-size="14.00">Samples weight: 0.00</text>
</g>
<!-- BB0&#45;&gt;BB2 -->
<g id="edge1" class="edge">
<title>BB0&#45;&gt;BB2</title>
<path fill="none" stroke="black" d="M878.84,-1321.39C878.84,-1313.12 878.84,-1304.44 878.84,-1295.93"/>
<polygon fill="black" stroke="black" points="882.34,-1295.69 878.84,-1285.69 875.34,-1295.69 882.34,-1295.69"/>
</g>
<!-- BB1 -->
<g id="node2" class="node">
<title>BB1</title>
<ellipse fill="none" stroke="black" cx="878.84" cy="-1105.42" rx="104.8" ry="48.17"/>
<text text-anchor="middle" x="878.84" y="-1124.22" font-family="Times New Roman,serif" font-size="14.00">[27..3f)</text>
<text text-anchor="middle" x="878.84" y="-1109.22" font-family="Times New Roman,serif" font-size="14.00">Count: 0</text>
<text text-anchor="middle" x="878.84" y="-1094.22" font-family="Times New Roman,serif" font-size="14.00">Normalized count: NaN</text>
<text text-anchor="middle" x="878.84" y="-1079.22" font-family="Times New Roman,serif" font-size="14.00">Samples weight: 0.00</text>
</g>
<!-- BB1&#45;&gt;BB2 -->
<g id="edge2" class="edge">
<title>BB1&#45;&gt;BB2</title>
<path fill="none" stroke="black" d="M885.37,-1153.78C885.58,-1162.07 885.65,-1170.78 885.55,-1179.31"/>
<polygon fill="black" stroke="black" points="882.05,-1179.52 885.36,-1189.59 889.05,-1179.66 882.05,-1179.52"/>
</g>
<!-- BB2&#45;&gt;BB1 -->
<g id="edge3" class="edge">
<title>BB2&#45;&gt;BB1</title>
<path fill="none" stroke="black" d="M872.33,-1189.59C872.11,-1181.21 872.04,-1172.41 872.14,-1163.78"/>
<polygon fill="black" stroke="black" points="875.64,-1163.84 872.32,-1153.78 868.64,-1163.71 875.64,-1163.84"/>
</g>
<!-- BB3 -->
<g id="node4" class="node">
<title>BB3</title>
<ellipse fill="none" stroke="black" cx="1114.84" cy="-1105.42" rx="113.69" ry="48.17"/>
<text text-anchor="middle" x="1114.84" y="-1124.22" font-family="Times New Roman,serif" font-size="14.00">[44..50)</text>
<text text-anchor="middle" x="1114.84" y="-1109.22" font-family="Times New Roman,serif" font-size="14.00">Count: 13</text>
<text text-anchor="middle" x="1114.84" y="-1094.22" font-family="Times New Roman,serif" font-size="14.00">Normalized count: Infinity</text>
<text text-anchor="middle" x="1114.84" y="-1079.22" font-family="Times New Roman,serif" font-size="14.00">Samples weight: 0.01</text>
</g>
<!-- BB2&#45;&gt;BB3 -->
<g id="edge4" class="edge">
<title>BB2&#45;&gt;BB3</title>
<path fill="none" stroke="black" d="M944.9,-1200.15C973.81,-1184.2 1007.93,-1165.38 1037.98,-1148.81"/>
<polygon fill="black" stroke="black" points="1039.69,-1151.87 1046.75,-1143.97 1036.31,-1145.74 1039.69,-1151.87"/>
</g>
<!-- BB4 -->
<g id="node5" class="node">
<title>BB4</title>
<ellipse fill="none" stroke="black" cx="584.84" cy="-973.25" rx="113.69" ry="48.17"/>
<text text-anchor="middle" x="584.84" y="-992.05" font-family="Times New Roman,serif" font-size="14.00">[50..55)</text>
<text text-anchor="middle" x="584.84" y="-977.05" font-family="Times New Roman,serif" font-size="14.00">Count: 4</text>
<text text-anchor="middle" x="584.84" y="-962.05" font-family="Times New Roman,serif" font-size="14.00">Normalized count: Infinity</text>
<text text-anchor="middle" x="584.84" y="-947.05" font-family="Times New Roman,serif" font-size="14.00">Samples weight: 0.00</text>
</g>
<!-- BB3&#45;&gt;BB4 -->
<g id="edge6" class="edge">
<title>BB3&#45;&gt;BB4</title>
<path fill="none" stroke="black" d="M1035.29,-1070.79C1021.32,-1065.73 1006.79,-1060.99 992.84,-1057.33 885.54,-1029.19 854.24,-1044.96 745.84,-1021.33 725.79,-1016.96 704.58,-1011.43 684.37,-1005.71"/>
<polygon fill="black" stroke="black" points="685.11,-1002.28 674.53,-1002.89 683.18,-1009.01 685.11,-1002.28"/>
</g>
<!-- BB15 -->
<g id="node16" class="node">
<title>BB15</title>
<ellipse fill="none" stroke="black" cx="868.84" cy="-973.25" rx="113.69" ry="48.17"/>
<text text-anchor="middle" x="868.84" y="-992.05" font-family="Times New Roman,serif" font-size="14.00">[d0..d4)</text>
<text text-anchor="middle" x="868.84" y="-977.05" font-family="Times New Roman,serif" font-size="14.00">Count: 5</text>
<text text-anchor="middle" x="868.84" y="-962.05" font-family="Times New Roman,serif" font-size="14.00">Normalized count: Infinity</text>
<text text-anchor="middle" x="868.84" y="-947.05" font-family="Times New Roman,serif" font-size="14.00">Samples weight: 0.00</text>
</g>
<!-- BB3&#45;&gt;BB15 -->
<g id="edge5" class="edge">
<title>BB3&#45;&gt;BB15</title>
<path fill="none" stroke="black" d="M1044.68,-1067.29C1014.56,-1051.35 979.23,-1032.66 948.17,-1016.22"/>
<polygon fill="black" stroke="black" points="949.58,-1013.01 939.1,-1011.42 946.3,-1019.2 949.58,-1013.01"/>
</g>
<!-- BB6 -->
<g id="node7" class="node">
<title>BB6</title>
<ellipse fill="none" stroke="black" cx="546.84" cy="-841.08" rx="113.69" ry="48.17"/>
<text text-anchor="middle" x="546.84" y="-859.88" font-family="Times New Roman,serif" font-size="14.00">[63..68)</text>
<text text-anchor="middle" x="546.84" y="-844.88" font-family="Times New Roman,serif" font-size="14.00">Count: 15</text>
<text text-anchor="middle" x="546.84" y="-829.88" font-family="Times New Roman,serif" font-size="14.00">Normalized count: Infinity</text>
<text text-anchor="middle" x="546.84" y="-814.88" font-family="Times New Roman,serif" font-size="14.00">Samples weight: 0.01</text>
</g>
<!-- BB4&#45;&gt;BB6 -->
<g id="edge7" class="edge">
<title>BB4&#45;&gt;BB6</title>
<path fill="none" stroke="black" d="M571.13,-925.26C568.62,-916.68 565.99,-907.66 563.41,-898.84"/>
<polygon fill="black" stroke="black" points="566.71,-897.62 560.54,-889.01 559.99,-899.59 566.71,-897.62"/>
</g>
<!-- BB5 -->
<g id="node6" class="node">
<title>BB5</title>
<ellipse fill="none" stroke="black" cx="546.84" cy="-708.92" rx="113.69" ry="48.17"/>
<text text-anchor="middle" x="546.84" y="-727.72" font-family="Times New Roman,serif" font-size="14.00">[55..63)</text>
<text text-anchor="middle" x="546.84" y="-712.72" font-family="Times New Roman,serif" font-size="14.00">Count: 163</text>
<text text-anchor="middle" x="546.84" y="-697.72" font-family="Times New Roman,serif" font-size="14.00">Normalized count: Infinity</text>
<text text-anchor="middle" x="546.84" y="-682.72" font-family="Times New Roman,serif" font-size="14.00">Samples weight: 0.15</text>
</g>
<!-- BB5&#45;&gt;BB6 -->
<g id="edge8" class="edge">
<title>BB5&#45;&gt;BB6</title>
<path fill="none" stroke="black" d="M553.36,-757.02C553.58,-765.28 553.65,-773.96 553.55,-782.47"/>
<polygon fill="black" stroke="black" points="550.05,-782.66 553.37,-792.72 557.05,-782.79 550.05,-782.66"/>
</g>
<!-- BB6&#45;&gt;BB5 -->
<g id="edge9" class="edge">
<title>BB6&#45;&gt;BB5</title>
<path fill="none" stroke="black" d="M540.32,-792.72C540.1,-784.45 540.04,-775.77 540.14,-767.27"/>
<polygon fill="black" stroke="black" points="543.64,-767.09 540.33,-757.02 536.64,-766.96 543.64,-767.09"/>
</g>
<!-- BB7 -->
<g id="node8" class="node">
<title>BB7</title>
<ellipse fill="none" stroke="black" cx="300.84" cy="-708.92" rx="113.69" ry="48.17"/>
<text text-anchor="middle" x="300.84" y="-727.72" font-family="Times New Roman,serif" font-size="14.00">[68..6b)</text>
<text text-anchor="middle" x="300.84" y="-712.72" font-family="Times New Roman,serif" font-size="14.00">Count: 2</text>
<text text-anchor="middle" x="300.84" y="-697.72" font-family="Times New Roman,serif" font-size="14.00">Normalized count: Infinity</text>
<text text-anchor="middle" x="300.84" y="-682.72" font-family="Times New Roman,serif" font-size="14.00">Samples weight: 0.00</text>
</g>
<!-- BB6&#45;&gt;BB7 -->
<g id="edge10" class="edge">
<title>BB6&#45;&gt;BB7</title>
<path fill="none" stroke="black" d="M476.68,-802.96C446.56,-787.02 411.23,-768.32 380.17,-751.89"/>
<polygon fill="black" stroke="black" points="381.58,-748.67 371.1,-747.09 378.3,-754.86 381.58,-748.67"/>
</g>
<!-- BB8 -->
<g id="node9" class="node">
<title>BB8</title>
<ellipse fill="none" stroke="black" cx="347.84" cy="-576.75" rx="113.69" ry="48.17"/>
<text text-anchor="middle" x="347.84" y="-595.55" font-family="Times New Roman,serif" font-size="14.00">[6b..75)</text>
<text text-anchor="middle" x="347.84" y="-580.55" font-family="Times New Roman,serif" font-size="14.00">Count: 207</text>
<text text-anchor="middle" x="347.84" y="-565.55" font-family="Times New Roman,serif" font-size="14.00">Normalized count: Infinity</text>
<text text-anchor="middle" x="347.84" y="-550.55" font-family="Times New Roman,serif" font-size="14.00">Samples weight: 0.19</text>
</g>
<!-- BB7&#45;&gt;BB8 -->
<g id="edge11" class="edge">
<title>BB7&#45;&gt;BB8</title>
<path fill="none" stroke="black" d="M317.68,-661.29C320.89,-652.41 324.27,-643.03 327.57,-633.89"/>
<polygon fill="black" stroke="black" points="330.86,-635.08 330.97,-624.49 324.28,-632.7 330.86,-635.08"/>
</g>
<!-- BB9 -->
<g id="node10" class="node">
<title>BB9</title>
<ellipse fill="none" stroke="black" cx="584.84" cy="-444.58" rx="113.69" ry="48.17"/>
<text text-anchor="middle" x="584.84" y="-463.38" font-family="Times New Roman,serif" font-size="14.00">[75..84)</text>
<text text-anchor="middle" x="584.84" y="-448.38" font-family="Times New Roman,serif" font-size="14.00">Count: 37</text>
<text text-anchor="middle" x="584.84" y="-433.38" font-family="Times New Roman,serif" font-size="14.00">Normalized count: Infinity</text>
<text text-anchor="middle" x="584.84" y="-418.38" font-family="Times New Roman,serif" font-size="14.00">Samples weight: 0.03</text>
</g>
<!-- BB8&#45;&gt;BB9 -->
<g id="edge13" class="edge">
<title>BB8&#45;&gt;BB9</title>
<path fill="none" stroke="black" d="M416.39,-538.1C444.89,-522.45 478.1,-504.21 507.47,-488.08"/>
<polygon fill="black" stroke="black" points="509.37,-491.03 516.45,-483.15 506,-484.89 509.37,-491.03"/>
</g>
<!-- BB11 -->
<g id="node12" class="node">
<title>BB11</title>
<ellipse fill="none" stroke="black" cx="217.84" cy="-444.58" rx="113.69" ry="48.17"/>
<text text-anchor="middle" x="217.84" y="-463.38" font-family="Times New Roman,serif" font-size="14.00">[8a..95)</text>
<text text-anchor="middle" x="217.84" y="-448.38" font-family="Times New Roman,serif" font-size="14.00">Count: 42</text>
<text text-anchor="middle" x="217.84" y="-433.38" font-family="Times New Roman,serif" font-size="14.00">Normalized count: Infinity</text>
<text text-anchor="middle" x="217.84" y="-418.38" font-family="Times New Roman,serif" font-size="14.00">Samples weight: 0.04</text>
</g>
<!-- BB8&#45;&gt;BB11 -->
<g id="edge12" class="edge">
<title>BB8&#45;&gt;BB11</title>
<path fill="none" stroke="black" d="M304.19,-532.04C292.83,-520.67 280.49,-508.31 268.79,-496.59"/>
<polygon fill="black" stroke="black" points="271.14,-494 261.6,-489.39 266.19,-498.94 271.14,-494"/>
</g>
<!-- BB10 -->
<g id="node11" class="node">
<title>BB10</title>
<ellipse fill="none" stroke="black" cx="629.84" cy="-312.42" rx="113.69" ry="48.17"/>
<text text-anchor="middle" x="629.84" y="-331.22" font-family="Times New Roman,serif" font-size="14.00">[84..8a)</text>
<text text-anchor="middle" x="629.84" y="-316.22" font-family="Times New Roman,serif" font-size="14.00">Count: 17</text>
<text text-anchor="middle" x="629.84" y="-301.22" font-family="Times New Roman,serif" font-size="14.00">Normalized count: Infinity</text>
<text text-anchor="middle" x="629.84" y="-286.22" font-family="Times New Roman,serif" font-size="14.00">Samples weight: 0.02</text>
</g>
<!-- BB9&#45;&gt;BB10 -->
<g id="edge15" class="edge">
<title>BB9&#45;&gt;BB10</title>
<path fill="none" stroke="black" d="M600.96,-396.96C604,-388.17 607.21,-378.9 610.33,-369.85"/>
<polygon fill="black" stroke="black" points="613.73,-370.75 613.69,-360.15 607.11,-368.46 613.73,-370.75"/>
</g>
<!-- BB9&#45;&gt;BB15 -->
<g id="edge14" class="edge">
<title>BB9&#45;&gt;BB15</title>
<path fill="none" stroke="black" d="M606.21,-492.14C625.23,-535.14 652.62,-601.19 669.84,-660.83 698.49,-760.04 651.69,-805.96 712.84,-889.17 727.92,-909.68 749.62,-925.63 772.06,-937.81"/>
<polygon fill="black" stroke="black" points="770.53,-940.96 781.02,-942.47 773.76,-934.75 770.53,-940.96"/>
</g>
<!-- BB10&#45;&gt;BB15 -->
<g id="edge16" class="edge">
<title>BB10&#45;&gt;BB15</title>
<path fill="none" stroke="black" d="M679.6,-355.95C690.65,-367.93 701.09,-381.75 707.84,-396.5 741.22,-469.33 726.84,-495.64 726.84,-575.75 726.84,-709.92 726.84,-709.92 726.84,-709.92 726.84,-790.03 704.58,-820.5 745.84,-889.17 755.74,-905.62 770.29,-919.54 785.95,-931"/>
<polygon fill="black" stroke="black" points="784.02,-933.92 794.23,-936.77 788.03,-928.18 784.02,-933.92"/>
</g>
<!-- BB12 -->
<g id="node13" class="node">
<title>BB12</title>
<ellipse fill="none" stroke="black" cx="113.84" cy="-312.42" rx="113.69" ry="48.17"/>
<text text-anchor="middle" x="113.84" y="-331.22" font-family="Times New Roman,serif" font-size="14.00">[95..9e)</text>
<text text-anchor="middle" x="113.84" y="-316.22" font-family="Times New Roman,serif" font-size="14.00">Count: 35</text>
<text text-anchor="middle" x="113.84" y="-301.22" font-family="Times New Roman,serif" font-size="14.00">Normalized count: Infinity</text>
<text text-anchor="middle" x="113.84" y="-286.22" font-family="Times New Roman,serif" font-size="14.00">Samples weight: 0.03</text>
</g>
<!-- BB11&#45;&gt;BB12 -->
<g id="edge18" class="edge">
<title>BB11&#45;&gt;BB12</title>
<path fill="none" stroke="black" d="M182.05,-398.79C173.72,-388.36 164.77,-377.15 156.18,-366.4"/>
<polygon fill="black" stroke="black" points="158.68,-363.92 149.7,-358.29 153.21,-368.29 158.68,-363.92"/>
</g>
<!-- BB14 -->
<g id="node15" class="node">
<title>BB14</title>
<ellipse fill="none" stroke="black" cx="359.84" cy="-312.42" rx="113.69" ry="48.17"/>
<text text-anchor="middle" x="359.84" y="-331.22" font-family="Times New Roman,serif" font-size="14.00">[c4..d0)</text>
<text text-anchor="middle" x="359.84" y="-316.22" font-family="Times New Roman,serif" font-size="14.00">Count: 63</text>
<text text-anchor="middle" x="359.84" y="-301.22" font-family="Times New Roman,serif" font-size="14.00">Normalized count: Infinity</text>
<text text-anchor="middle" x="359.84" y="-286.22" font-family="Times New Roman,serif" font-size="14.00">Samples weight: 0.06</text>
</g>
<!-- BB11&#45;&gt;BB14 -->
<g id="edge17" class="edge">
<title>BB11&#45;&gt;BB14</title>
<path fill="none" stroke="black" d="M264.73,-400.6C277.82,-388.6 292.15,-375.47 305.62,-363.12"/>
<polygon fill="black" stroke="black" points="308,-365.69 313,-356.35 303.27,-360.53 308,-365.69"/>
</g>
<!-- BB13 -->
<g id="node14" class="node">
<title>BB13</title>
<ellipse fill="none" stroke="black" cx="236.84" cy="-180.25" rx="113.69" ry="48.17"/>
<text text-anchor="middle" x="236.84" y="-199.05" font-family="Times New Roman,serif" font-size="14.00">[9e..c4)</text>
<text text-anchor="middle" x="236.84" y="-184.05" font-family="Times New Roman,serif" font-size="14.00">Count: 371</text>
<text text-anchor="middle" x="236.84" y="-169.05" font-family="Times New Roman,serif" font-size="14.00">Normalized count: Infinity</text>
<text text-anchor="middle" x="236.84" y="-154.05" font-family="Times New Roman,serif" font-size="14.00">Samples weight: 0.35</text>
</g>
<!-- BB12&#45;&gt;BB13 -->
<g id="edge19" class="edge">
<title>BB12&#45;&gt;BB13</title>
<path fill="none" stroke="black" d="M155.49,-267.35C166.01,-256.22 177.39,-244.16 188.22,-232.7"/>
<polygon fill="black" stroke="black" points="190.92,-234.95 195.24,-225.27 185.83,-230.14 190.92,-234.95"/>
</g>
<!-- BB13&#45;&gt;BB13 -->
<g id="edge20" class="edge">
<title>BB13&#45;&gt;BB13</title>
<path fill="none" stroke="black" d="M336.03,-203.86C355.14,-201.07 368.69,-193.2 368.69,-180.25 368.69,-169.72 359.75,-162.56 346.14,-158.74"/>
<polygon fill="black" stroke="black" points="346.53,-155.25 336.03,-156.64 345.1,-162.1 346.53,-155.25"/>
</g>
<!-- BB13&#45;&gt;BB14 -->
<g id="edge21" class="edge">
<title>BB13&#45;&gt;BB14</title>
<path fill="none" stroke="black" d="M278.44,-225.27C288.96,-236.4 300.35,-248.45 311.18,-259.92"/>
<polygon fill="black" stroke="black" points="308.79,-262.48 318.2,-267.35 313.88,-257.68 308.79,-262.48"/>
</g>
<!-- BB14&#45;&gt;BB8 -->
<g id="edge22" class="edge">
<title>BB14&#45;&gt;BB8</title>
<path fill="none" stroke="black" d="M357.68,-360.68C355.66,-404.96 352.63,-471.21 350.46,-518.47"/>
<polygon fill="black" stroke="black" points="346.96,-518.4 350,-528.55 353.96,-518.72 346.96,-518.4"/>
</g>
<!-- BB16 -->
<g id="node17" class="node">
<title>BB16</title>
<ellipse fill="none" stroke="black" cx="1114.84" cy="-841.08" rx="113.69" ry="48.17"/>
<text text-anchor="middle" x="1114.84" y="-859.88" font-family="Times New Roman,serif" font-size="14.00">[d4..eb)</text>
<text text-anchor="middle" x="1114.84" y="-844.88" font-family="Times New Roman,serif" font-size="14.00">Count: 21</text>
<text text-anchor="middle" x="1114.84" y="-829.88" font-family="Times New Roman,serif" font-size="14.00">Normalized count: Infinity</text>
<text text-anchor="middle" x="1114.84" y="-814.88" font-family="Times New Roman,serif" font-size="14.00">Samples weight: 0.02</text>
</g>
<!-- BB15&#45;&gt;BB16 -->
<g id="edge24" class="edge">
<title>BB15&#45;&gt;BB16</title>
<path fill="none" stroke="black" d="M939.01,-935.12C969.12,-919.19 1004.46,-900.49 1035.52,-884.05"/>
<polygon fill="black" stroke="black" points="1037.38,-887.03 1044.59,-879.26 1034.11,-880.84 1037.38,-887.03"/>
</g>
<!-- BB17 -->
<g id="node18" class="node">
<title>BB17</title>
<ellipse fill="none" stroke="black" cx="868.84" cy="-841.08" rx="113.69" ry="48.17"/>
<text text-anchor="middle" x="868.84" y="-859.88" font-family="Times New Roman,serif" font-size="14.00">[eb..102)</text>
<text text-anchor="middle" x="868.84" y="-844.88" font-family="Times New Roman,serif" font-size="14.00">Count: 16</text>
<text text-anchor="middle" x="868.84" y="-829.88" font-family="Times New Roman,serif" font-size="14.00">Normalized count: Infinity</text>
<text text-anchor="middle" x="868.84" y="-814.88" font-family="Times New Roman,serif" font-size="14.00">Samples weight: 0.01</text>
</g>
<!-- BB15&#45;&gt;BB17 -->
<g id="edge23" class="edge">
<title>BB15&#45;&gt;BB17</title>
<path fill="none" stroke="black" d="M868.84,-924.89C868.84,-916.62 868.84,-907.94 868.84,-899.43"/>
<polygon fill="black" stroke="black" points="872.34,-899.19 868.84,-889.19 865.34,-899.19 872.34,-899.19"/>
</g>
<!-- BB16&#45;&gt;BB3 -->
<g id="edge25" class="edge">
<title>BB16&#45;&gt;BB3</title>
<path fill="none" stroke="black" d="M1114.84,-889.35C1114.84,-933.62 1114.84,-999.87 1114.84,-1047.13"/>
<polygon fill="black" stroke="black" points="1111.34,-1047.21 1114.84,-1057.21 1118.34,-1047.21 1111.34,-1047.21"/>
</g>
<!-- BB26 -->
<g id="node27" class="node">
<title>BB26</title>
<ellipse fill="none" stroke="black" cx="897.84" cy="-708.92" rx="104.8" ry="48.17"/>
<text text-anchor="middle" x="897.84" y="-727.72" font-family="Times New Roman,serif" font-size="14.00">[164..169)</text>
<text text-anchor="middle" x="897.84" y="-712.72" font-family="Times New Roman,serif" font-size="14.00">Count: 0</text>
<text text-anchor="middle" x="897.84" y="-697.72" font-family="Times New Roman,serif" font-size="14.00">Normalized count: NaN</text>
<text text-anchor="middle" x="897.84" y="-682.72" font-family="Times New Roman,serif" font-size="14.00">Samples weight: 0.00</text>
</g>
<!-- BB17&#45;&gt;BB26 -->
<g id="edge26" class="edge">
<title>BB17&#45;&gt;BB26</title>
<path fill="none" stroke="black" d="M879.31,-793.09C881.22,-784.52 883.23,-775.49 885.2,-766.67"/>
<polygon fill="black" stroke="black" points="888.63,-767.36 887.39,-756.84 881.8,-765.84 888.63,-767.36"/>
</g>
<!-- BB18 -->
<g id="node19" class="node">
<title>BB18</title>
<ellipse fill="none" stroke="black" cx="925.84" cy="-576.75" rx="113.69" ry="48.17"/>
<text text-anchor="middle" x="925.84" y="-595.55" font-family="Times New Roman,serif" font-size="14.00">[102..10c)</text>
<text text-anchor="middle" x="925.84" y="-580.55" font-family="Times New Roman,serif" font-size="14.00">Count: 12</text>
<text text-anchor="middle" x="925.84" y="-565.55" font-family="Times New Roman,serif" font-size="14.00">Normalized count: Infinity</text>
<text text-anchor="middle" x="925.84" y="-550.55" font-family="Times New Roman,serif" font-size="14.00">Samples weight: 0.01</text>
</g>
<!-- BB19 -->
<g id="node20" class="node">
<title>BB19</title>
<ellipse fill="none" stroke="black" cx="1233.84" cy="-444.58" rx="113.69" ry="48.17"/>
<text text-anchor="middle" x="1233.84" y="-463.38" font-family="Times New Roman,serif" font-size="14.00">[10c..119)</text>
<text text-anchor="middle" x="1233.84" y="-448.38" font-family="Times New Roman,serif" font-size="14.00">Count: 8</text>
<text text-anchor="middle" x="1233.84" y="-433.38" font-family="Times New Roman,serif" font-size="14.00">Normalized count: Infinity</text>
<text text-anchor="middle" x="1233.84" y="-418.38" font-family="Times New Roman,serif" font-size="14.00">Samples weight: 0.01</text>
</g>
<!-- BB18&#45;&gt;BB19 -->
<g id="edge28" class="edge">
<title>BB18&#45;&gt;BB19</title>
<path fill="none" stroke="black" d="M1005.16,-542.23C1048.01,-524.12 1101.04,-501.71 1145.24,-483.03"/>
<polygon fill="black" stroke="black" points="1146.68,-486.22 1154.53,-479.1 1143.95,-479.77 1146.68,-486.22"/>
</g>
<!-- BB20 -->
<g id="node21" class="node">
<title>BB20</title>
<ellipse fill="none" stroke="black" cx="925.84" cy="-444.58" rx="113.69" ry="48.17"/>
<text text-anchor="middle" x="925.84" y="-463.38" font-family="Times New Roman,serif" font-size="14.00">[119..11f)</text>
<text text-anchor="middle" x="925.84" y="-448.38" font-family="Times New Roman,serif" font-size="14.00">Count: 6</text>
<text text-anchor="middle" x="925.84" y="-433.38" font-family="Times New Roman,serif" font-size="14.00">Normalized count: Infinity</text>
<text text-anchor="middle" x="925.84" y="-418.38" font-family="Times New Roman,serif" font-size="14.00">Samples weight: 0.01</text>
</g>
<!-- BB18&#45;&gt;BB20 -->
<g id="edge27" class="edge">
<title>BB18&#45;&gt;BB20</title>
<path fill="none" stroke="black" d="M925.84,-528.39C925.84,-520.12 925.84,-511.44 925.84,-502.93"/>
<polygon fill="black" stroke="black" points="929.34,-502.69 925.84,-492.69 922.34,-502.69 929.34,-502.69"/>
</g>
<!-- BB19&#45;&gt;BB3 -->
<g id="edge29" class="edge">
<title>BB19&#45;&gt;BB3</title>
<path fill="none" stroke="black" d="M1260.7,-491.37C1266.58,-503.18 1272.14,-516.11 1275.84,-528.67 1298.51,-605.51 1294.84,-627.8 1294.84,-707.92 1294.84,-842.08 1294.84,-842.08 1294.84,-842.08 1294.84,-929.51 1266.65,-951.66 1213.84,-1021.33 1204.14,-1034.14 1192.11,-1046.29 1179.82,-1057.14"/>
<polygon fill="black" stroke="black" points="1177.46,-1054.55 1172.16,-1063.72 1182.02,-1059.86 1177.46,-1054.55"/>
</g>
<!-- BB21 -->
<g id="node22" class="node">
<title>BB21</title>
<ellipse fill="none" stroke="black" cx="925.84" cy="-312.42" rx="113.69" ry="48.17"/>
<text text-anchor="middle" x="925.84" y="-331.22" font-family="Times New Roman,serif" font-size="14.00">[11f..130)</text>
<text text-anchor="middle" x="925.84" y="-316.22" font-family="Times New Roman,serif" font-size="14.00">Count: 3</text>
<text text-anchor="middle" x="925.84" y="-301.22" font-family="Times New Roman,serif" font-size="14.00">Normalized count: Infinity</text>
<text text-anchor="middle" x="925.84" y="-286.22" font-family="Times New Roman,serif" font-size="14.00">Samples weight: 0.00</text>
</g>
<!-- BB20&#45;&gt;BB21 -->
<g id="edge31" class="edge">
<title>BB20&#45;&gt;BB21</title>
<path fill="none" stroke="black" d="M925.84,-396.22C925.84,-387.95 925.84,-379.27 925.84,-370.77"/>
<polygon fill="black" stroke="black" points="929.34,-370.52 925.84,-360.52 922.34,-370.52 929.34,-370.52"/>
</g>
<!-- BB22 -->
<g id="node23" class="node">
<title>BB22</title>
<ellipse fill="none" stroke="black" cx="1171.84" cy="-312.42" rx="113.69" ry="48.17"/>
<text text-anchor="middle" x="1171.84" y="-331.22" font-family="Times New Roman,serif" font-size="14.00">[130..140)</text>
<text text-anchor="middle" x="1171.84" y="-316.22" font-family="Times New Roman,serif" font-size="14.00">Count: 5</text>
<text text-anchor="middle" x="1171.84" y="-301.22" font-family="Times New Roman,serif" font-size="14.00">Normalized count: Infinity</text>
<text text-anchor="middle" x="1171.84" y="-286.22" font-family="Times New Roman,serif" font-size="14.00">Samples weight: 0.00</text>
</g>
<!-- BB20&#45;&gt;BB22 -->
<g id="edge30" class="edge">
<title>BB20&#45;&gt;BB22</title>
<path fill="none" stroke="black" d="M996.01,-406.46C1026.12,-390.52 1061.46,-371.82 1092.52,-355.39"/>
<polygon fill="black" stroke="black" points="1094.38,-358.36 1101.59,-350.59 1091.11,-352.18 1094.38,-358.36"/>
</g>
<!-- BB24 -->
<g id="node25" class="node">
<title>BB24</title>
<ellipse fill="none" stroke="black" cx="1135.84" cy="-180.25" rx="113.69" ry="48.17"/>
<text text-anchor="middle" x="1135.84" y="-199.05" font-family="Times New Roman,serif" font-size="14.00">[150..156)</text>
<text text-anchor="middle" x="1135.84" y="-184.05" font-family="Times New Roman,serif" font-size="14.00">Count: 4</text>
<text text-anchor="middle" x="1135.84" y="-169.05" font-family="Times New Roman,serif" font-size="14.00">Normalized count: Infinity</text>
<text text-anchor="middle" x="1135.84" y="-154.05" font-family="Times New Roman,serif" font-size="14.00">Samples weight: 0.00</text>
</g>
<!-- BB22&#45;&gt;BB24 -->
<g id="edge32" class="edge">
<title>BB22&#45;&gt;BB24</title>
<path fill="none" stroke="black" d="M1158.85,-264.42C1156.48,-255.85 1153.98,-246.83 1151.54,-238.01"/>
<polygon fill="black" stroke="black" points="1154.86,-236.88 1148.82,-228.17 1148.11,-238.75 1154.86,-236.88"/>
</g>
<!-- BB23 -->
<g id="node24" class="node">
<title>BB23</title>
<ellipse fill="none" stroke="black" cx="1135.84" cy="-48.08" rx="113.69" ry="48.17"/>
<text text-anchor="middle" x="1135.84" y="-66.88" font-family="Times New Roman,serif" font-size="14.00">[140..150)</text>
<text text-anchor="middle" x="1135.84" y="-51.88" font-family="Times New Roman,serif" font-size="14.00">Count: 24</text>
<text text-anchor="middle" x="1135.84" y="-36.88" font-family="Times New Roman,serif" font-size="14.00">Normalized count: Infinity</text>
<text text-anchor="middle" x="1135.84" y="-21.88" font-family="Times New Roman,serif" font-size="14.00">Samples weight: 0.02</text>
</g>
<!-- BB23&#45;&gt;BB24 -->
<g id="edge33" class="edge">
<title>BB23&#45;&gt;BB24</title>
<path fill="none" stroke="black" d="M1142.36,-96.19C1142.58,-104.45 1142.65,-113.13 1142.55,-121.64"/>
<polygon fill="black" stroke="black" points="1139.05,-121.83 1142.37,-131.89 1146.05,-121.95 1139.05,-121.83"/>
</g>
<!-- BB24&#45;&gt;BB23 -->
<g id="edge34" class="edge">
<title>BB24&#45;&gt;BB23</title>
<path fill="none" stroke="black" d="M1129.32,-131.89C1129.1,-123.62 1129.04,-114.94 1129.14,-106.43"/>
<polygon fill="black" stroke="black" points="1132.64,-106.26 1129.33,-96.19 1125.64,-106.12 1132.64,-106.26"/>
</g>
<!-- BB25 -->
<g id="node26" class="node">
<title>BB25</title>
<ellipse fill="none" stroke="black" cx="854.84" cy="-48.08" rx="113.69" ry="48.17"/>
<text text-anchor="middle" x="854.84" y="-66.88" font-family="Times New Roman,serif" font-size="14.00">[156..164)</text>
<text text-anchor="middle" x="854.84" y="-51.88" font-family="Times New Roman,serif" font-size="14.00">Count: 1</text>
<text text-anchor="middle" x="854.84" y="-36.88" font-family="Times New Roman,serif" font-size="14.00">Normalized count: Infinity</text>
<text text-anchor="middle" x="854.84" y="-21.88" font-family="Times New Roman,serif" font-size="14.00">Samples weight: 0.00</text>
</g>
<!-- BB24&#45;&gt;BB25 -->
<g id="edge35" class="edge">
<title>BB24&#45;&gt;BB25</title>
<path fill="none" stroke="black" d="M1060.17,-144.2C1023,-126.98 978.08,-106.17 939.74,-88.41"/>
<polygon fill="black" stroke="black" points="941.2,-85.23 930.65,-84.2 938.25,-91.58 941.2,-85.23"/>
</g>
<!-- BB25&#45;&gt;BB26 -->
<g id="edge36" class="edge">
<title>BB25&#45;&gt;BB26</title>
<path fill="none" stroke="black" d="M834.31,-95.45C813.34,-147.09 783.84,-233.57 783.84,-311.42 783.84,-445.58 783.84,-445.58 783.84,-445.58 783.84,-525.7 765.93,-553.73 802.84,-624.83 809.97,-638.55 820.38,-651.02 831.73,-661.88"/>
<polygon fill="black" stroke="black" points="829.55,-664.63 839.29,-668.79 834.26,-659.46 829.55,-664.63"/>
</g>
<!-- BB26&#45;&gt;BB18 -->
<g id="edge37" class="edge">
<title>BB26&#45;&gt;BB18</title>
<path fill="none" stroke="black" d="M907.95,-660.92C909.8,-652.35 911.74,-643.33 913.64,-634.51"/>
<polygon fill="black" stroke="black" points="917.07,-635.19 915.75,-624.67 910.23,-633.71 917.07,-635.19"/>
</g>
<!-- BB27 -->
<g id="node28" class="node">
<title>BB27</title>
<ellipse fill="none" stroke="black" cx="1161.84" cy="-576.75" rx="104.8" ry="48.17"/>
<text text-anchor="middle" x="1161.84" y="-595.55" font-family="Times New Roman,serif" font-size="14.00">[169..16e)</text>
<text text-anchor="middle" x="1161.84" y="-580.55" font-family="Times New Roman,serif" font-size="14.00">Count: 0</text>
<text text-anchor="middle" x="1161.84" y="-565.55" font-family="Times New Roman,serif" font-size="14.00">Normalized count: NaN</text>
<text text-anchor="middle" x="1161.84" y="-550.55" font-family="Times New Roman,serif" font-size="14.00">Samples weight: 0.00</text>
</g>
<!-- BB26&#45;&gt;BB27 -->
<g id="edge38" class="edge">
<title>BB26&#45;&gt;BB27</title>
<path fill="none" stroke="black" d="M968.24,-673.2C1003.31,-655.92 1045.84,-634.94 1082.11,-617.06"/>
<polygon fill="black" stroke="black" points="1083.76,-620.15 1091.18,-612.59 1080.66,-613.87 1083.76,-620.15"/>
</g>
<!-- BB27&#45;&gt;BB3 -->
<g id="edge39" class="edge">
<title>BB27&#45;&gt;BB3</title>
<path fill="none" stroke="black" d="M1187.49,-623.54C1218.28,-684.39 1262.81,-795.17 1237.84,-889.17 1221.93,-949.1 1184.97,-1009.75 1155.69,-1051.33"/>
<polygon fill="black" stroke="black" points="1152.72,-1049.47 1149.76,-1059.64 1158.42,-1053.53 1152.72,-1049.47"/>
</g>
</g>
</svg>
