<?xml version="1.0" encoding="UTF-8" standalone="no"?>
<!DOCTYPE svg PUBLIC "-//W3C//DTD SVG 1.1//EN"
 "http://www.w3.org/Graphics/SVG/1.1/DTD/svg11.dtd">
<!-- Generated by graphviz version 2.47.0 (20210316.0004)
 -->
<!-- Title: G Pages: 1 -->
<svg width="1228pt" height="1294pt"
 viewBox="0.00 0.00 1228.42 1293.67" xmlns="http://www.w3.org/2000/svg" xmlns:xlink="http://www.w3.org/1999/xlink">
<g id="graph0" class="graph" transform="scale(1 1) rotate(0) translate(4 1289.67)">
<title>G</title>
<polygon fill="white" stroke="transparent" points="-4,4 -4,-1289.67 1224.42,-1289.67 1224.42,4 -4,4"/>
<!-- BB0 -->
<g id="node1" class="node">
<title>BB0</title>
<ellipse fill="none" stroke="black" cx="650.19" cy="-1237.58" rx="103.48" ry="48.17"/>
<text text-anchor="middle" x="650.19" y="-1256.38" font-family="Times New Roman,serif" font-size="14.00">[0..12)</text>
<text text-anchor="middle" x="650.19" y="-1241.38" font-family="Times New Roman,serif" font-size="14.00">Count: 2</text>
<text text-anchor="middle" x="650.19" y="-1226.38" font-family="Times New Roman,serif" font-size="14.00">Normalized count: 1.00</text>
<text text-anchor="middle" x="650.19" y="-1211.38" font-family="Times New Roman,serif" font-size="14.00">Samples weight: 0.00</text>
</g>
<!-- BB1 -->
<g id="node2" class="node">
<title>BB1</title>
<ellipse fill="none" stroke="black" cx="538.19" cy="-1105.42" rx="103.48" ry="48.17"/>
<text text-anchor="middle" x="538.19" y="-1124.22" font-family="Times New Roman,serif" font-size="14.00">[12..32)</text>
<text text-anchor="middle" x="538.19" y="-1109.22" font-family="Times New Roman,serif" font-size="14.00">Count: 0</text>
<text text-anchor="middle" x="538.19" y="-1094.22" font-family="Times New Roman,serif" font-size="14.00">Normalized count: 0.00</text>
<text text-anchor="middle" x="538.19" y="-1079.22" font-family="Times New Roman,serif" font-size="14.00">Samples weight: 0.00</text>
</g>
<!-- BB0&#45;&gt;BB1 -->
<g id="edge2" class="edge">
<title>BB0&#45;&gt;BB1</title>
<path fill="none" stroke="black" d="M612.27,-1192.51C602.78,-1181.49 592.52,-1169.56 582.74,-1158.2"/>
<polygon fill="black" stroke="black" points="585.24,-1155.74 576.07,-1150.44 579.94,-1160.3 585.24,-1155.74"/>
</g>
<!-- BB2 -->
<g id="node3" class="node">
<title>BB2</title>
<ellipse fill="none" stroke="black" cx="762.19" cy="-1105.42" rx="103.48" ry="48.17"/>
<text text-anchor="middle" x="762.19" y="-1124.22" font-family="Times New Roman,serif" font-size="14.00">[32..39)</text>
<text text-anchor="middle" x="762.19" y="-1109.22" font-family="Times New Roman,serif" font-size="14.00">Count: 2</text>
<text text-anchor="middle" x="762.19" y="-1094.22" font-family="Times New Roman,serif" font-size="14.00">Normalized count: 1.00</text>
<text text-anchor="middle" x="762.19" y="-1079.22" font-family="Times New Roman,serif" font-size="14.00">Samples weight: 0.00</text>
</g>
<!-- BB0&#45;&gt;BB2 -->
<g id="edge1" class="edge">
<title>BB0&#45;&gt;BB2</title>
<path fill="none" stroke="black" d="M688.11,-1192.51C697.59,-1181.49 707.86,-1169.56 717.63,-1158.2"/>
<polygon fill="black" stroke="black" points="720.44,-1160.3 724.31,-1150.44 715.13,-1155.74 720.44,-1160.3"/>
</g>
<!-- BB1&#45;&gt;BB2 -->
<g id="edge3" class="edge">
<title>BB1&#45;&gt;BB2</title>
<path fill="none" stroke="black" d="M641.44,-1105.42C643.89,-1105.42 646.35,-1105.42 648.8,-1105.42"/>
<polygon fill="black" stroke="black" points="648.89,-1108.92 658.89,-1105.42 648.89,-1101.92 648.89,-1108.92"/>
</g>
<!-- BB15 -->
<g id="node16" class="node">
<title>BB15</title>
<ellipse fill="none" stroke="black" cx="762.19" cy="-973.25" rx="103.48" ry="48.17"/>
<text text-anchor="middle" x="762.19" y="-992.05" font-family="Times New Roman,serif" font-size="14.00">[12d..134)</text>
<text text-anchor="middle" x="762.19" y="-977.05" font-family="Times New Roman,serif" font-size="14.00">Count: 3</text>
<text text-anchor="middle" x="762.19" y="-962.05" font-family="Times New Roman,serif" font-size="14.00">Normalized count: 1.50</text>
<text text-anchor="middle" x="762.19" y="-947.05" font-family="Times New Roman,serif" font-size="14.00">Samples weight: 0.00</text>
</g>
<!-- BB2&#45;&gt;BB15 -->
<g id="edge4" class="edge">
<title>BB2&#45;&gt;BB15</title>
<path fill="none" stroke="black" d="M762.19,-1057.05C762.19,-1048.79 762.19,-1040.1 762.19,-1031.6"/>
<polygon fill="black" stroke="black" points="765.69,-1031.36 762.19,-1021.36 758.69,-1031.36 765.69,-1031.36"/>
</g>
<!-- BB3 -->
<g id="node4" class="node">
<title>BB3</title>
<ellipse fill="none" stroke="black" cx="629.19" cy="-841.08" rx="103.48" ry="48.17"/>
<text text-anchor="middle" x="629.19" y="-859.88" font-family="Times New Roman,serif" font-size="14.00">[39..62)</text>
<text text-anchor="middle" x="629.19" y="-844.88" font-family="Times New Roman,serif" font-size="14.00">Count: 1</text>
<text text-anchor="middle" x="629.19" y="-829.88" font-family="Times New Roman,serif" font-size="14.00">Normalized count: 0.50</text>
<text text-anchor="middle" x="629.19" y="-814.88" font-family="Times New Roman,serif" font-size="14.00">Samples weight: 0.00</text>
</g>
<!-- BB11 -->
<g id="node12" class="node">
<title>BB11</title>
<ellipse fill="none" stroke="black" cx="562.19" cy="-708.92" rx="108.38" ry="48.17"/>
<text text-anchor="middle" x="562.19" y="-727.72" font-family="Times New Roman,serif" font-size="14.00">[106..10e)</text>
<text text-anchor="middle" x="562.19" y="-712.72" font-family="Times New Roman,serif" font-size="14.00">Count: 73</text>
<text text-anchor="middle" x="562.19" y="-697.72" font-family="Times New Roman,serif" font-size="14.00">Normalized count: 36.50</text>
<text text-anchor="middle" x="562.19" y="-682.72" font-family="Times New Roman,serif" font-size="14.00">Samples weight: 0.02</text>
</g>
<!-- BB3&#45;&gt;BB11 -->
<g id="edge5" class="edge">
<title>BB3&#45;&gt;BB11</title>
<path fill="none" stroke="black" d="M605.57,-794.19C600.77,-784.87 595.68,-774.98 590.73,-765.37"/>
<polygon fill="black" stroke="black" points="593.74,-763.56 586.05,-756.27 587.51,-766.76 593.74,-763.56"/>
</g>
<!-- BB4 -->
<g id="node5" class="node">
<title>BB4</title>
<ellipse fill="none" stroke="black" cx="357.19" cy="-576.75" rx="108.38" ry="48.17"/>
<text text-anchor="middle" x="357.19" y="-595.55" font-family="Times New Roman,serif" font-size="14.00">[62..9d)</text>
<text text-anchor="middle" x="357.19" y="-580.55" font-family="Times New Roman,serif" font-size="14.00">Count: 72</text>
<text text-anchor="middle" x="357.19" y="-565.55" font-family="Times New Roman,serif" font-size="14.00">Normalized count: 36.00</text>
<text text-anchor="middle" x="357.19" y="-550.55" font-family="Times New Roman,serif" font-size="14.00">Samples weight: 0.02</text>
</g>
<!-- BB5 -->
<g id="node6" class="node">
<title>BB5</title>
<ellipse fill="none" stroke="black" cx="352.19" cy="-444.58" rx="118.17" ry="48.17"/>
<text text-anchor="middle" x="352.19" y="-463.38" font-family="Times New Roman,serif" font-size="14.00">[9d..cf)</text>
<text text-anchor="middle" x="352.19" y="-448.38" font-family="Times New Roman,serif" font-size="14.00">Count: 2245</text>
<text text-anchor="middle" x="352.19" y="-433.38" font-family="Times New Roman,serif" font-size="14.00">Normalized count: 1122.50</text>
<text text-anchor="middle" x="352.19" y="-418.38" font-family="Times New Roman,serif" font-size="14.00">Samples weight: 0.47</text>
</g>
<!-- BB4&#45;&gt;BB5 -->
<g id="edge6" class="edge">
<title>BB4&#45;&gt;BB5</title>
<path fill="none" stroke="black" d="M355.37,-528.39C355.05,-520.12 354.72,-511.44 354.39,-502.93"/>
<polygon fill="black" stroke="black" points="357.88,-502.55 354,-492.69 350.88,-502.82 357.88,-502.55"/>
</g>
<!-- BB6 -->
<g id="node7" class="node">
<title>BB6</title>
<ellipse fill="none" stroke="black" cx="108.19" cy="-312.42" rx="108.38" ry="48.17"/>
<text text-anchor="middle" x="108.19" y="-331.22" font-family="Times New Roman,serif" font-size="14.00">[cf..d7)</text>
<text text-anchor="middle" x="108.19" y="-316.22" font-family="Times New Roman,serif" font-size="14.00">Count: 72</text>
<text text-anchor="middle" x="108.19" y="-301.22" font-family="Times New Roman,serif" font-size="14.00">Normalized count: 36.00</text>
<text text-anchor="middle" x="108.19" y="-286.22" font-family="Times New Roman,serif" font-size="14.00">Samples weight: 0.02</text>
</g>
<!-- BB5&#45;&gt;BB6 -->
<g id="edge8" class="edge">
<title>BB5&#45;&gt;BB6</title>
<path fill="none" stroke="black" d="M281.61,-405.93C251.51,-389.87 216.29,-371.09 185.49,-354.65"/>
<polygon fill="black" stroke="black" points="186.97,-351.48 176.5,-349.86 183.68,-357.66 186.97,-351.48"/>
</g>
<!-- BB7 -->
<g id="node8" class="node">
<title>BB7</title>
<ellipse fill="none" stroke="black" cx="352.19" cy="-312.42" rx="118.17" ry="48.17"/>
<text text-anchor="middle" x="352.19" y="-331.22" font-family="Times New Roman,serif" font-size="14.00">[d7..e1)</text>
<text text-anchor="middle" x="352.19" y="-316.22" font-family="Times New Roman,serif" font-size="14.00">Count: 2173</text>
<text text-anchor="middle" x="352.19" y="-301.22" font-family="Times New Roman,serif" font-size="14.00">Normalized count: 1086.50</text>
<text text-anchor="middle" x="352.19" y="-286.22" font-family="Times New Roman,serif" font-size="14.00">Samples weight: 0.45</text>
</g>
<!-- BB5&#45;&gt;BB7 -->
<g id="edge7" class="edge">
<title>BB5&#45;&gt;BB7</title>
<path fill="none" stroke="black" d="M345.66,-396.22C345.45,-387.95 345.39,-379.27 345.48,-370.77"/>
<polygon fill="black" stroke="black" points="348.98,-370.59 345.67,-360.52 341.98,-370.46 348.98,-370.59"/>
</g>
<!-- BB8 -->
<g id="node9" class="node">
<title>BB8</title>
<ellipse fill="none" stroke="black" cx="310.19" cy="-180.25" rx="108.38" ry="48.17"/>
<text text-anchor="middle" x="310.19" y="-199.05" font-family="Times New Roman,serif" font-size="14.00">[e1..eb)</text>
<text text-anchor="middle" x="310.19" y="-184.05" font-family="Times New Roman,serif" font-size="14.00">Count: 72</text>
<text text-anchor="middle" x="310.19" y="-169.05" font-family="Times New Roman,serif" font-size="14.00">Normalized count: 36.00</text>
<text text-anchor="middle" x="310.19" y="-154.05" font-family="Times New Roman,serif" font-size="14.00">Samples weight: 0.02</text>
</g>
<!-- BB6&#45;&gt;BB8 -->
<g id="edge9" class="edge">
<title>BB6&#45;&gt;BB8</title>
<path fill="none" stroke="black" d="M168.79,-272.36C191.56,-257.69 217.61,-240.9 241.1,-225.77"/>
<polygon fill="black" stroke="black" points="243.11,-228.64 249.62,-220.28 239.32,-222.75 243.11,-228.64"/>
</g>
<!-- BB7&#45;&gt;BB5 -->
<g id="edge10" class="edge">
<title>BB7&#45;&gt;BB5</title>
<path fill="none" stroke="black" d="M358.7,-360.52C358.92,-368.78 358.99,-377.46 358.9,-385.97"/>
<polygon fill="black" stroke="black" points="355.39,-386.16 358.71,-396.22 362.39,-386.29 355.39,-386.16"/>
</g>
<!-- BB7&#45;&gt;BB8 -->
<g id="edge11" class="edge">
<title>BB7&#45;&gt;BB8</title>
<path fill="none" stroke="black" d="M337.02,-264.42C334.23,-255.76 331.28,-246.63 328.41,-237.72"/>
<polygon fill="black" stroke="black" points="331.73,-236.62 325.33,-228.17 325.07,-238.77 331.73,-236.62"/>
</g>
<!-- BB9 -->
<g id="node10" class="node">
<title>BB9</title>
<ellipse fill="none" stroke="black" cx="269.19" cy="-48.08" rx="103.48" ry="48.17"/>
<text text-anchor="middle" x="269.19" y="-66.88" font-family="Times New Roman,serif" font-size="14.00">[eb..100)</text>
<text text-anchor="middle" x="269.19" y="-51.88" font-family="Times New Roman,serif" font-size="14.00">Count: 4</text>
<text text-anchor="middle" x="269.19" y="-36.88" font-family="Times New Roman,serif" font-size="14.00">Normalized count: 2.00</text>
<text text-anchor="middle" x="269.19" y="-21.88" font-family="Times New Roman,serif" font-size="14.00">Samples weight: 0.00</text>
</g>
<!-- BB8&#45;&gt;BB9 -->
<g id="edge13" class="edge">
<title>BB8&#45;&gt;BB9</title>
<path fill="none" stroke="black" d="M295.39,-132.26C292.66,-123.59 289.78,-114.47 286.98,-105.56"/>
<polygon fill="black" stroke="black" points="290.31,-104.49 283.97,-96.01 283.63,-106.6 290.31,-104.49"/>
</g>
<!-- BB10 -->
<g id="node11" class="node">
<title>BB10</title>
<ellipse fill="none" stroke="black" cx="498.19" cy="-48.08" rx="108.38" ry="48.17"/>
<text text-anchor="middle" x="498.19" y="-66.88" font-family="Times New Roman,serif" font-size="14.00">[100..106)</text>
<text text-anchor="middle" x="498.19" y="-51.88" font-family="Times New Roman,serif" font-size="14.00">Count: 72</text>
<text text-anchor="middle" x="498.19" y="-36.88" font-family="Times New Roman,serif" font-size="14.00">Normalized count: 36.00</text>
<text text-anchor="middle" x="498.19" y="-21.88" font-family="Times New Roman,serif" font-size="14.00">Samples weight: 0.02</text>
</g>
<!-- BB8&#45;&gt;BB10 -->
<g id="edge12" class="edge">
<title>BB8&#45;&gt;BB10</title>
<path fill="none" stroke="black" d="M367.62,-139.49C388.02,-125.36 411.14,-109.35 432.2,-94.77"/>
<polygon fill="black" stroke="black" points="434.23,-97.62 440.46,-89.05 430.25,-91.86 434.23,-97.62"/>
</g>
<!-- BB9&#45;&gt;BB10 -->
<g id="edge14" class="edge">
<title>BB9&#45;&gt;BB10</title>
<path fill="none" stroke="black" d="M372.51,-48.08C374.83,-48.08 377.16,-48.08 379.49,-48.08"/>
<polygon fill="black" stroke="black" points="379.69,-51.58 389.69,-48.08 379.69,-44.58 379.69,-51.58"/>
</g>
<!-- BB10&#45;&gt;BB11 -->
<g id="edge15" class="edge">
<title>BB10&#45;&gt;BB11</title>
<path fill="none" stroke="black" d="M498.19,-96.47C498.19,-149.01 498.19,-236.27 498.19,-311.42 498.19,-445.58 498.19,-445.58 498.19,-445.58 498.19,-525.7 493.44,-548.32 517.19,-624.83 520.14,-634.35 524.23,-644.03 528.74,-653.26"/>
<polygon fill="black" stroke="black" points="525.7,-655 533.37,-662.31 531.94,-651.82 525.7,-655"/>
</g>
<!-- BB11&#45;&gt;BB4 -->
<g id="edge16" class="edge">
<title>BB11&#45;&gt;BB4</title>
<path fill="none" stroke="black" d="M500.96,-669.04C477.74,-654.29 451.12,-637.39 427.15,-622.18"/>
<polygon fill="black" stroke="black" points="428.77,-619.06 418.45,-616.65 425.02,-624.97 428.77,-619.06"/>
</g>
<!-- BB12 -->
<g id="node13" class="node">
<title>BB12</title>
<ellipse fill="none" stroke="black" cx="629.19" cy="-576.75" rx="103.48" ry="48.17"/>
<text text-anchor="middle" x="629.19" y="-595.55" font-family="Times New Roman,serif" font-size="14.00">[10e..112)</text>
<text text-anchor="middle" x="629.19" y="-580.55" font-family="Times New Roman,serif" font-size="14.00">Count: 1</text>
<text text-anchor="middle" x="629.19" y="-565.55" font-family="Times New Roman,serif" font-size="14.00">Normalized count: 0.50</text>
<text text-anchor="middle" x="629.19" y="-550.55" font-family="Times New Roman,serif" font-size="14.00">Samples weight: 0.00</text>
</g>
<!-- BB11&#45;&gt;BB12 -->
<g id="edge17" class="edge">
<title>BB11&#45;&gt;BB12</title>
<path fill="none" stroke="black" d="M586,-661.66C590.79,-652.35 595.86,-642.49 600.79,-632.92"/>
<polygon fill="black" stroke="black" points="603.99,-634.35 605.45,-623.86 597.77,-631.15 603.99,-634.35"/>
</g>
<!-- BB13 -->
<g id="node14" class="node">
<title>BB13</title>
<ellipse fill="none" stroke="black" cx="629.19" cy="-444.58" rx="103.48" ry="48.17"/>
<text text-anchor="middle" x="629.19" y="-463.38" font-family="Times New Roman,serif" font-size="14.00">[112..129)</text>
<text text-anchor="middle" x="629.19" y="-448.38" font-family="Times New Roman,serif" font-size="14.00">Count: 0</text>
<text text-anchor="middle" x="629.19" y="-433.38" font-family="Times New Roman,serif" font-size="14.00">Normalized count: 0.00</text>
<text text-anchor="middle" x="629.19" y="-418.38" font-family="Times New Roman,serif" font-size="14.00">Samples weight: 0.00</text>
</g>
<!-- BB12&#45;&gt;BB13 -->
<g id="edge19" class="edge">
<title>BB12&#45;&gt;BB13</title>
<path fill="none" stroke="black" d="M629.19,-528.39C629.19,-520.12 629.19,-511.44 629.19,-502.93"/>
<polygon fill="black" stroke="black" points="632.69,-502.69 629.19,-492.69 625.69,-502.69 632.69,-502.69"/>
</g>
<!-- BB14 -->
<g id="node15" class="node">
<title>BB14</title>
<ellipse fill="none" stroke="black" cx="853.19" cy="-444.58" rx="103.48" ry="48.17"/>
<text text-anchor="middle" x="853.19" y="-463.38" font-family="Times New Roman,serif" font-size="14.00">[129..12d)</text>
<text text-anchor="middle" x="853.19" y="-448.38" font-family="Times New Roman,serif" font-size="14.00">Count: 1</text>
<text text-anchor="middle" x="853.19" y="-433.38" font-family="Times New Roman,serif" font-size="14.00">Normalized count: 0.50</text>
<text text-anchor="middle" x="853.19" y="-418.38" font-family="Times New Roman,serif" font-size="14.00">Samples weight: 0.00</text>
</g>
<!-- BB12&#45;&gt;BB14 -->
<g id="edge18" class="edge">
<title>BB12&#45;&gt;BB14</title>
<path fill="none" stroke="black" d="M692.78,-538.8C720.21,-522.86 752.43,-504.13 780.78,-487.66"/>
<polygon fill="black" stroke="black" points="782.55,-490.68 789.44,-482.63 779.03,-484.63 782.55,-490.68"/>
</g>
<!-- BB13&#45;&gt;BB14 -->
<g id="edge20" class="edge">
<title>BB13&#45;&gt;BB14</title>
<path fill="none" stroke="black" d="M732.44,-444.58C734.89,-444.58 737.35,-444.58 739.8,-444.58"/>
<polygon fill="black" stroke="black" points="739.89,-448.08 749.89,-444.58 739.89,-441.08 739.89,-448.08"/>
</g>
<!-- BB14&#45;&gt;BB15 -->
<g id="edge21" class="edge">
<title>BB14&#45;&gt;BB15</title>
<path fill="none" stroke="black" d="M833.68,-492.08C816.62,-535.04 792.8,-601.07 781.19,-660.83 764.19,-748.35 761.19,-852.05 761.22,-914.96"/>
<polygon fill="black" stroke="black" points="757.72,-915.09 761.25,-925.08 764.72,-915.07 757.72,-915.09"/>
</g>
<!-- BB15&#45;&gt;BB3 -->
<g id="edge22" class="edge">
<title>BB15&#45;&gt;BB3</title>
<path fill="none" stroke="black" d="M718.64,-929.63C706.35,-917.6 692.88,-904.41 680.19,-892"/>
<polygon fill="black" stroke="black" points="682.43,-889.29 672.83,-884.8 677.53,-894.3 682.43,-889.29"/>
</g>
<!-- BB16 -->
<g id="node17" class="node">
<title>BB16</title>
<ellipse fill="none" stroke="black" cx="893.19" cy="-841.08" rx="103.48" ry="48.17"/>
<text text-anchor="middle" x="893.19" y="-859.88" font-family="Times New Roman,serif" font-size="14.00">[134..137)</text>
<text text-anchor="middle" x="893.19" y="-844.88" font-family="Times New Roman,serif" font-size="14.00">Count: 2</text>
<text text-anchor="middle" x="893.19" y="-829.88" font-family="Times New Roman,serif" font-size="14.00">Normalized count: 1.00</text>
<text text-anchor="middle" x="893.19" y="-814.88" font-family="Times New Roman,serif" font-size="14.00">Samples weight: 0.00</text>
</g>
<!-- BB15&#45;&gt;BB16 -->
<g id="edge23" class="edge">
<title>BB15&#45;&gt;BB16</title>
<path fill="none" stroke="black" d="M805.44,-929.27C817.41,-917.38 830.49,-904.38 842.82,-892.13"/>
<polygon fill="black" stroke="black" points="845.35,-894.55 849.98,-885.02 840.41,-889.59 845.35,-894.55"/>
</g>
<!-- BB17 -->
<g id="node18" class="node">
<title>BB17</title>
<ellipse fill="none" stroke="black" cx="893.19" cy="-708.92" rx="103.48" ry="48.17"/>
<text text-anchor="middle" x="893.19" y="-727.72" font-family="Times New Roman,serif" font-size="14.00">[137..142)</text>
<text text-anchor="middle" x="893.19" y="-712.72" font-family="Times New Roman,serif" font-size="14.00">Count: 0</text>
<text text-anchor="middle" x="893.19" y="-697.72" font-family="Times New Roman,serif" font-size="14.00">Normalized count: 0.00</text>
<text text-anchor="middle" x="893.19" y="-682.72" font-family="Times New Roman,serif" font-size="14.00">Samples weight: 0.00</text>
</g>
<!-- BB16&#45;&gt;BB17 -->
<g id="edge25" class="edge">
<title>BB16&#45;&gt;BB17</title>
<path fill="none" stroke="black" d="M893.19,-792.72C893.19,-784.45 893.19,-775.77 893.19,-767.27"/>
<polygon fill="black" stroke="black" points="896.69,-767.02 893.19,-757.02 889.69,-767.02 896.69,-767.02"/>
</g>
<!-- BB18 -->
<g id="node19" class="node">
<title>BB18</title>
<ellipse fill="none" stroke="black" cx="1117.19" cy="-708.92" rx="103.48" ry="48.17"/>
<text text-anchor="middle" x="1117.19" y="-727.72" font-family="Times New Roman,serif" font-size="14.00">[142..143)</text>
<text text-anchor="middle" x="1117.19" y="-712.72" font-family="Times New Roman,serif" font-size="14.00">Count: 2</text>
<text text-anchor="middle" x="1117.19" y="-697.72" font-family="Times New Roman,serif" font-size="14.00">Normalized count: 1.00</text>
<text text-anchor="middle" x="1117.19" y="-682.72" font-family="Times New Roman,serif" font-size="14.00">Samples weight: 0.00</text>
</g>
<!-- BB16&#45;&gt;BB18 -->
<g id="edge24" class="edge">
<title>BB16&#45;&gt;BB18</title>
<path fill="none" stroke="black" d="M956.78,-803.13C984.21,-787.19 1016.43,-768.46 1044.78,-751.99"/>
<polygon fill="black" stroke="black" points="1046.55,-755.01 1053.44,-746.96 1043.03,-748.96 1046.55,-755.01"/>
</g>
<!-- BB17&#45;&gt;BB18 -->
<g id="edge26" class="edge">
<title>BB17&#45;&gt;BB18</title>
<path fill="none" stroke="black" d="M996.44,-708.92C998.89,-708.92 1001.35,-708.92 1003.8,-708.92"/>
<polygon fill="black" stroke="black" points="1003.89,-712.42 1013.89,-708.92 1003.89,-705.42 1003.89,-712.42"/>
</g>
</g>
</svg>
