<?xml version="1.0" encoding="UTF-8" standalone="no"?>
<!DOCTYPE svg PUBLIC "-//W3C//DTD SVG 1.1//EN"
 "http://www.w3.org/Graphics/SVG/1.1/DTD/svg11.dtd">
<!-- Generated by graphviz version 2.47.0 (20210316.0004)
 -->
<!-- Title: G Pages: 1 -->
<svg width="668pt" height="527pt"
 viewBox="0.00 0.00 667.62 526.77" xmlns="http://www.w3.org/2000/svg" xmlns:xlink="http://www.w3.org/1999/xlink">
<g id="graph0" class="graph" transform="scale(1 1) rotate(0) translate(4 522.77)">
<title>G</title>
<polygon fill="white" stroke="transparent" points="-4,4 -4,-522.77 663.62,-522.77 663.62,4 -4,4"/>
<!-- BB0 -->
<g id="node1" class="node">
<title>BB0</title>
<ellipse fill="none" stroke="black" cx="315.26" cy="-481.29" rx="105.22" ry="37.45"/>
<text text-anchor="middle" x="315.26" y="-492.59" font-family="Times New Roman,serif" font-size="14.00">[0..4)</text>
<text text-anchor="middle" x="315.26" y="-477.59" font-family="Times New Roman,serif" font-size="14.00">Normalized Count: 1.00</text>
<text text-anchor="middle" x="315.26" y="-462.59" font-family="Times New Roman,serif" font-size="14.00">Samples weight: 0.00</text>
</g>
<!-- BB5 -->
<g id="node6" class="node">
<title>BB5</title>
<ellipse fill="none" stroke="black" cx="315.26" cy="-370.34" rx="115.02" ry="37.45"/>
<text text-anchor="middle" x="315.26" y="-381.64" font-family="Times New Roman,serif" font-size="14.00">[37..3b)</text>
<text text-anchor="middle" x="315.26" y="-366.64" font-family="Times New Roman,serif" font-size="14.00">Normalized Count: 101.00</text>
<text text-anchor="middle" x="315.26" y="-351.64" font-family="Times New Roman,serif" font-size="14.00">Samples weight: 0.00</text>
</g>
<!-- BB0&#45;&gt;BB5 -->
<g id="edge1" class="edge">
<title>BB0&#45;&gt;BB5</title>
<path fill="none" stroke="black" d="M315.26,-443.71C315.26,-435.53 315.26,-426.75 315.26,-418.23"/>
<polygon fill="black" stroke="black" points="318.76,-418.01 315.26,-408.01 311.76,-418.01 318.76,-418.01"/>
</g>
<!-- BB1 -->
<g id="node2" class="node">
<title>BB1</title>
<ellipse fill="none" stroke="black" cx="315.26" cy="-259.38" rx="115.02" ry="37.45"/>
<text text-anchor="middle" x="315.26" y="-270.68" font-family="Times New Roman,serif" font-size="14.00">[4..14)</text>
<text text-anchor="middle" x="315.26" y="-255.68" font-family="Times New Roman,serif" font-size="14.00">Normalized Count: 100.00</text>
<text text-anchor="middle" x="315.26" y="-240.68" font-family="Times New Roman,serif" font-size="14.00">Samples weight: 0.00</text>
</g>
<!-- BB3 -->
<g id="node4" class="node">
<title>BB3</title>
<ellipse fill="none" stroke="black" cx="346.26" cy="-148.43" rx="124.4" ry="37.45"/>
<text text-anchor="middle" x="346.26" y="-159.73" font-family="Times New Roman,serif" font-size="14.00">[2f..33)</text>
<text text-anchor="middle" x="346.26" y="-144.73" font-family="Times New Roman,serif" font-size="14.00">Normalized Count: 10100.00</text>
<text text-anchor="middle" x="346.26" y="-129.73" font-family="Times New Roman,serif" font-size="14.00">Samples weight: 0.50</text>
</g>
<!-- BB1&#45;&gt;BB3 -->
<g id="edge2" class="edge">
<title>BB1&#45;&gt;BB3</title>
<path fill="none" stroke="black" d="M325.67,-221.8C328.04,-213.45 330.6,-204.46 333.08,-195.76"/>
<polygon fill="black" stroke="black" points="336.45,-196.68 335.82,-186.1 329.72,-194.76 336.45,-196.68"/>
</g>
<!-- BB2 -->
<g id="node3" class="node">
<title>BB2</title>
<ellipse fill="none" stroke="black" cx="373.26" cy="-37.48" rx="124.4" ry="37.45"/>
<text text-anchor="middle" x="373.26" y="-48.78" font-family="Times New Roman,serif" font-size="14.00">[14..2f)</text>
<text text-anchor="middle" x="373.26" y="-33.78" font-family="Times New Roman,serif" font-size="14.00">Normalized Count: 10000.00</text>
<text text-anchor="middle" x="373.26" y="-18.78" font-family="Times New Roman,serif" font-size="14.00">Samples weight: 0.49</text>
</g>
<!-- BB2&#45;&gt;BB3 -->
<g id="edge3" class="edge">
<title>BB2&#45;&gt;BB3</title>
<path fill="none" stroke="black" d="M370.63,-74.97C368.86,-83.44 366.69,-92.56 364.35,-101.37"/>
<polygon fill="black" stroke="black" points="360.94,-100.58 361.65,-111.15 367.69,-102.44 360.94,-100.58"/>
</g>
<!-- BB3&#45;&gt;BB2 -->
<g id="edge4" class="edge">
<title>BB3&#45;&gt;BB2</title>
<path fill="none" stroke="black" d="M348.91,-110.85C350.67,-102.4 352.84,-93.31 355.17,-84.52"/>
<polygon fill="black" stroke="black" points="358.57,-85.35 357.86,-74.78 351.82,-83.49 358.57,-85.35"/>
</g>
<!-- BB4 -->
<g id="node5" class="node">
<title>BB4</title>
<ellipse fill="none" stroke="black" cx="115.26" cy="-37.48" rx="115.02" ry="37.45"/>
<text text-anchor="middle" x="115.26" y="-48.78" font-family="Times New Roman,serif" font-size="14.00">[33..37)</text>
<text text-anchor="middle" x="115.26" y="-33.78" font-family="Times New Roman,serif" font-size="14.00">Normalized Count: 100.00</text>
<text text-anchor="middle" x="115.26" y="-18.78" font-family="Times New Roman,serif" font-size="14.00">Samples weight: 0.00</text>
</g>
<!-- BB3&#45;&gt;BB4 -->
<g id="edge5" class="edge">
<title>BB3&#45;&gt;BB4</title>
<path fill="none" stroke="black" d="M280.68,-116.5C252.04,-102.99 218.32,-87.08 188.82,-73.17"/>
<polygon fill="black" stroke="black" points="189.94,-69.83 179.4,-68.73 186.95,-76.16 189.94,-69.83"/>
</g>
<!-- BB4&#45;&gt;BB5 -->
<g id="edge6" class="edge">
<title>BB4&#45;&gt;BB5</title>
<path fill="none" stroke="black" d="M117.62,-75.3C122.8,-129.2 139.25,-230.39 191.26,-296.86 203.3,-312.25 219.58,-325 236.38,-335.3"/>
<polygon fill="black" stroke="black" points="234.8,-338.43 245.2,-340.46 238.34,-332.38 234.8,-338.43"/>
</g>
<!-- BB5&#45;&gt;BB1 -->
<g id="edge7" class="edge">
<title>BB5&#45;&gt;BB1</title>
<path fill="none" stroke="black" d="M315.26,-332.75C315.26,-324.58 315.26,-315.8 315.26,-307.27"/>
<polygon fill="black" stroke="black" points="318.76,-307.06 315.26,-297.06 311.76,-307.06 318.76,-307.06"/>
</g>
<!-- BB6 -->
<g id="node7" class="node">
<title>BB6</title>
<ellipse fill="none" stroke="black" cx="554.26" cy="-259.38" rx="105.22" ry="37.45"/>
<text text-anchor="middle" x="554.26" y="-270.68" font-family="Times New Roman,serif" font-size="14.00">[3b..3c)</text>
<text text-anchor="middle" x="554.26" y="-255.68" font-family="Times New Roman,serif" font-size="14.00">Normalized Count: 1.00</text>
<text text-anchor="middle" x="554.26" y="-240.68" font-family="Times New Roman,serif" font-size="14.00">Samples weight: 0.00</text>
</g>
<!-- BB5&#45;&gt;BB6 -->
<g id="edge8" class="edge">
<title>BB5&#45;&gt;BB6</title>
<path fill="none" stroke="black" d="M380.88,-339.42C411.95,-325.26 449.16,-308.3 481.13,-293.72"/>
<polygon fill="black" stroke="black" points="482.78,-296.81 490.43,-289.48 479.88,-290.44 482.78,-296.81"/>
</g>
</g>
</svg>
