<?xml version="1.0" encoding="UTF-8" standalone="no"?>
<!DOCTYPE svg PUBLIC "-//W3C//DTD SVG 1.1//EN"
 "http://www.w3.org/Graphics/SVG/1.1/DTD/svg11.dtd">
<!-- Generated by graphviz version 2.47.0 (20210316.0004)
 -->
<!-- Title: G Pages: 1 -->
<svg width="398pt" height="331pt"
 viewBox="0.00 0.00 397.73 330.96" xmlns="http://www.w3.org/2000/svg" xmlns:xlink="http://www.w3.org/1999/xlink">
<g id="graph0" class="graph" transform="scale(1 1) rotate(0) translate(4 326.96)">
<title>G</title>
<polygon fill="white" stroke="transparent" points="-4,4 -4,-326.96 393.73,-326.96 393.73,4 -4,4"/>
<!-- BB0 -->
<g id="node1" class="node">
<title>BB0</title>
<ellipse fill="none" stroke="black" cx="197.43" cy="-296.09" rx="33.47" ry="26.74"/>
<text text-anchor="middle" x="197.43" y="-299.89" font-family="Times New Roman,serif" font-size="14.00">[0..4)</text>
<text text-anchor="middle" x="197.43" y="-284.89" font-family="Times New Roman,serif" font-size="14.00">0.25</text>
</g>
<!-- BB1 -->
<g id="node2" class="node">
<title>BB1</title>
<ellipse fill="none" stroke="black" cx="146.43" cy="-206.35" rx="37.45" ry="26.74"/>
<text text-anchor="middle" x="146.43" y="-210.15" font-family="Times New Roman,serif" font-size="14.00">[4..10)</text>
<text text-anchor="middle" x="146.43" y="-195.15" font-family="Times New Roman,serif" font-size="14.00">0.13</text>
</g>
<!-- BB0&#45;&gt;BB1 -->
<g id="edge2" class="edge">
<title>BB0&#45;&gt;BB1</title>
<path fill="none" stroke="black" d="M183.76,-271.58C178.19,-262 171.66,-250.75 165.62,-240.38"/>
<polygon fill="black" stroke="black" points="168.54,-238.43 160.49,-231.54 162.49,-241.94 168.54,-238.43"/>
</g>
<!-- BB5 -->
<g id="node6" class="node">
<title>BB5</title>
<ellipse fill="none" stroke="black" cx="249.43" cy="-206.35" rx="41.94" ry="26.74"/>
<text text-anchor="middle" x="249.43" y="-210.15" font-family="Times New Roman,serif" font-size="14.00">[3a..42)</text>
<text text-anchor="middle" x="249.43" y="-195.15" font-family="Times New Roman,serif" font-size="14.00">0.12</text>
</g>
<!-- BB0&#45;&gt;BB5 -->
<g id="edge1" class="edge">
<title>BB0&#45;&gt;BB5</title>
<path fill="none" stroke="black" d="M211.36,-271.58C216.99,-262.08 223.59,-250.94 229.7,-240.63"/>
<polygon fill="black" stroke="black" points="232.82,-242.23 234.91,-231.85 226.8,-238.67 232.82,-242.23"/>
</g>
<!-- BB2 -->
<g id="node3" class="node">
<title>BB2</title>
<ellipse fill="none" stroke="black" cx="42.43" cy="-116.61" rx="42.35" ry="26.74"/>
<text text-anchor="middle" x="42.43" y="-120.41" font-family="Times New Roman,serif" font-size="14.00">[10..20)</text>
<text text-anchor="middle" x="42.43" y="-105.41" font-family="Times New Roman,serif" font-size="14.00">0.05</text>
</g>
<!-- BB1&#45;&gt;BB2 -->
<g id="edge4" class="edge">
<title>BB1&#45;&gt;BB2</title>
<path fill="none" stroke="black" d="M122.83,-185.44C108.74,-173.56 90.65,-158.29 75.19,-145.25"/>
<polygon fill="black" stroke="black" points="77.28,-142.44 67.38,-138.66 72.77,-147.79 77.28,-142.44"/>
</g>
<!-- BB3 -->
<g id="node4" class="node">
<title>BB3</title>
<ellipse fill="none" stroke="black" cx="146.43" cy="-116.61" rx="43.27" ry="26.74"/>
<text text-anchor="middle" x="146.43" y="-120.41" font-family="Times New Roman,serif" font-size="14.00">[20..2d)</text>
<text text-anchor="middle" x="146.43" y="-105.41" font-family="Times New Roman,serif" font-size="14.00">0.08</text>
</g>
<!-- BB1&#45;&gt;BB3 -->
<g id="edge3" class="edge">
<title>BB1&#45;&gt;BB3</title>
<path fill="none" stroke="black" d="M146.43,-179.03C146.43,-171.06 146.43,-162.17 146.43,-153.68"/>
<polygon fill="black" stroke="black" points="149.93,-153.61 146.43,-143.61 142.93,-153.61 149.93,-153.61"/>
</g>
<!-- BB4 -->
<g id="node5" class="node">
<title>BB4</title>
<ellipse fill="none" stroke="black" cx="94.43" cy="-26.87" rx="42.35" ry="26.74"/>
<text text-anchor="middle" x="94.43" y="-30.67" font-family="Times New Roman,serif" font-size="14.00">[2d..3a)</text>
<text text-anchor="middle" x="94.43" y="-15.67" font-family="Times New Roman,serif" font-size="14.00">0.13</text>
</g>
<!-- BB2&#45;&gt;BB4 -->
<g id="edge5" class="edge">
<title>BB2&#45;&gt;BB4</title>
<path fill="none" stroke="black" d="M56.91,-91.17C62.43,-81.85 68.82,-71.07 74.75,-61.07"/>
<polygon fill="black" stroke="black" points="77.93,-62.57 80.02,-52.18 71.91,-59 77.93,-62.57"/>
</g>
<!-- BB3&#45;&gt;BB4 -->
<g id="edge6" class="edge">
<title>BB3&#45;&gt;BB4</title>
<path fill="none" stroke="black" d="M131.94,-91.17C126.42,-81.85 120.03,-71.07 114.1,-61.07"/>
<polygon fill="black" stroke="black" points="116.94,-59 108.83,-52.18 110.92,-62.57 116.94,-59"/>
</g>
<!-- BB6 -->
<g id="node7" class="node">
<title>BB6</title>
<ellipse fill="none" stroke="black" cx="249.43" cy="-116.61" rx="41.94" ry="26.74"/>
<text text-anchor="middle" x="249.43" y="-120.41" font-family="Times New Roman,serif" font-size="14.00">[42..4e)</text>
<text text-anchor="middle" x="249.43" y="-105.41" font-family="Times New Roman,serif" font-size="14.00">0.12</text>
</g>
<!-- BB5&#45;&gt;BB6 -->
<g id="edge8" class="edge">
<title>BB5&#45;&gt;BB6</title>
<path fill="none" stroke="black" d="M249.43,-179.03C249.43,-171.06 249.43,-162.17 249.43,-153.68"/>
<polygon fill="black" stroke="black" points="252.93,-153.61 249.43,-143.61 245.93,-153.61 252.93,-153.61"/>
</g>
<!-- BB7 -->
<g id="node8" class="node">
<title>BB7</title>
<ellipse fill="none" stroke="black" cx="349.43" cy="-116.61" rx="40.11" ry="26.74"/>
<text text-anchor="middle" x="349.43" y="-120.41" font-family="Times New Roman,serif" font-size="14.00">[4e..4f)</text>
<text text-anchor="middle" x="349.43" y="-105.41" font-family="Times New Roman,serif" font-size="14.00">0.12</text>
</g>
<!-- BB5&#45;&gt;BB7 -->
<g id="edge7" class="edge">
<title>BB5&#45;&gt;BB7</title>
<path fill="none" stroke="black" d="M273.38,-184.33C286.74,-172.61 303.54,-157.87 317.95,-145.23"/>
<polygon fill="black" stroke="black" points="320.46,-147.68 325.67,-138.45 315.84,-142.42 320.46,-147.68"/>
</g>
<!-- BB6&#45;&gt;BB7 -->
<g id="edge9" class="edge">
<title>BB6&#45;&gt;BB7</title>
<path fill="none" stroke="black" d="M291.22,-116.61C293.72,-116.61 296.21,-116.61 298.7,-116.61"/>
<polygon fill="black" stroke="black" points="298.96,-120.11 308.96,-116.61 298.96,-113.11 298.96,-120.11"/>
</g>
</g>
</svg>
