<?xml version="1.0" encoding="UTF-8" standalone="no"?>
<!DOCTYPE svg PUBLIC "-//W3C//DTD SVG 1.1//EN"
 "http://www.w3.org/Graphics/SVG/1.1/DTD/svg11.dtd">
<!-- Generated by graphviz version 2.47.0 (20210316.0004)
 -->
<!-- Title: G Pages: 1 -->
<svg width="891pt" height="501pt"
 viewBox="0.00 0.00 891.48 500.67" xmlns="http://www.w3.org/2000/svg" xmlns:xlink="http://www.w3.org/1999/xlink">
<g id="graph0" class="graph" transform="scale(1 1) rotate(0) translate(4 496.67)">
<title>G</title>
<polygon fill="white" stroke="transparent" points="-4,4 -4,-496.67 887.48,-496.67 887.48,4 -4,4"/>
<!-- BB0 -->
<g id="node1" class="node">
<title>BB0</title>
<ellipse fill="none" stroke="black" cx="441.24" cy="-444.58" rx="103.48" ry="48.17"/>
<text text-anchor="middle" x="441.24" y="-463.38" font-family="Times New Roman,serif" font-size="14.00">[0..9)</text>
<text text-anchor="middle" x="441.24" y="-448.38" font-family="Times New Roman,serif" font-size="14.00">Count: 13</text>
<text text-anchor="middle" x="441.24" y="-433.38" font-family="Times New Roman,serif" font-size="14.00">Normalized count: 1.00</text>
<text text-anchor="middle" x="441.24" y="-418.38" font-family="Times New Roman,serif" font-size="14.00">Samples weight: 0.03</text>
</g>
<!-- BB1 -->
<g id="node2" class="node">
<title>BB1</title>
<ellipse fill="none" stroke="black" cx="324.24" cy="-312.42" rx="108.38" ry="48.17"/>
<text text-anchor="middle" x="324.24" y="-331.22" font-family="Times New Roman,serif" font-size="14.00">[9..11)</text>
<text text-anchor="middle" x="324.24" y="-316.22" font-family="Times New Roman,serif" font-size="14.00">Count: 164</text>
<text text-anchor="middle" x="324.24" y="-301.22" font-family="Times New Roman,serif" font-size="14.00">Normalized count: 12.62</text>
<text text-anchor="middle" x="324.24" y="-286.22" font-family="Times New Roman,serif" font-size="14.00">Samples weight: 0.40</text>
</g>
<!-- BB0&#45;&gt;BB1 -->
<g id="edge2" class="edge">
<title>BB0&#45;&gt;BB1</title>
<path fill="none" stroke="black" d="M401.95,-399.88C391.82,-388.61 380.83,-376.38 370.39,-364.76"/>
<polygon fill="black" stroke="black" points="372.91,-362.33 363.62,-357.23 367.7,-367.01 372.91,-362.33"/>
</g>
<!-- BB4 -->
<g id="node5" class="node">
<title>BB4</title>
<ellipse fill="none" stroke="black" cx="558.24" cy="-312.42" rx="108.38" ry="48.17"/>
<text text-anchor="middle" x="558.24" y="-331.22" font-family="Times New Roman,serif" font-size="14.00">[2b..34)</text>
<text text-anchor="middle" x="558.24" y="-316.22" font-family="Times New Roman,serif" font-size="14.00">Count: 143</text>
<text text-anchor="middle" x="558.24" y="-301.22" font-family="Times New Roman,serif" font-size="14.00">Normalized count: 11.00</text>
<text text-anchor="middle" x="558.24" y="-286.22" font-family="Times New Roman,serif" font-size="14.00">Samples weight: 0.35</text>
</g>
<!-- BB0&#45;&gt;BB4 -->
<g id="edge1" class="edge">
<title>BB0&#45;&gt;BB4</title>
<path fill="none" stroke="black" d="M480.52,-399.88C490.65,-388.61 501.65,-376.38 512.09,-364.76"/>
<polygon fill="black" stroke="black" points="514.78,-367.01 518.86,-357.23 509.57,-362.33 514.78,-367.01"/>
</g>
<!-- BB2 -->
<g id="node3" class="node">
<title>BB2</title>
<ellipse fill="none" stroke="black" cx="103.24" cy="-180.25" rx="103.48" ry="48.17"/>
<text text-anchor="middle" x="103.24" y="-199.05" font-family="Times New Roman,serif" font-size="14.00">[11..1e)</text>
<text text-anchor="middle" x="103.24" y="-184.05" font-family="Times New Roman,serif" font-size="14.00">Count: 12</text>
<text text-anchor="middle" x="103.24" y="-169.05" font-family="Times New Roman,serif" font-size="14.00">Normalized count: 0.92</text>
<text text-anchor="middle" x="103.24" y="-154.05" font-family="Times New Roman,serif" font-size="14.00">Samples weight: 0.03</text>
</g>
<!-- BB1&#45;&gt;BB2 -->
<g id="edge4" class="edge">
<title>BB1&#45;&gt;BB2</title>
<path fill="none" stroke="black" d="M260.02,-273.59C233.45,-257.95 202.53,-239.73 175.21,-223.64"/>
<polygon fill="black" stroke="black" points="176.86,-220.55 166.47,-218.49 173.31,-226.58 176.86,-220.55"/>
</g>
<!-- BB3 -->
<g id="node4" class="node">
<title>BB3</title>
<ellipse fill="none" stroke="black" cx="327.24" cy="-180.25" rx="103.48" ry="48.17"/>
<text text-anchor="middle" x="327.24" y="-199.05" font-family="Times New Roman,serif" font-size="14.00">[1e..2b)</text>
<text text-anchor="middle" x="327.24" y="-184.05" font-family="Times New Roman,serif" font-size="14.00">Count: 8</text>
<text text-anchor="middle" x="327.24" y="-169.05" font-family="Times New Roman,serif" font-size="14.00">Normalized count: 0.62</text>
<text text-anchor="middle" x="327.24" y="-154.05" font-family="Times New Roman,serif" font-size="14.00">Samples weight: 0.02</text>
</g>
<!-- BB1&#45;&gt;BB3 -->
<g id="edge3" class="edge">
<title>BB1&#45;&gt;BB3</title>
<path fill="none" stroke="black" d="M325.33,-264.05C325.52,-255.79 325.72,-247.1 325.92,-238.6"/>
<polygon fill="black" stroke="black" points="329.42,-238.44 326.15,-228.36 322.42,-238.27 329.42,-238.44"/>
</g>
<!-- BB5 -->
<g id="node6" class="node">
<title>BB5</title>
<ellipse fill="none" stroke="black" cx="556.24" cy="-180.25" rx="103.48" ry="48.17"/>
<text text-anchor="middle" x="556.24" y="-199.05" font-family="Times New Roman,serif" font-size="14.00">[34..3c)</text>
<text text-anchor="middle" x="556.24" y="-184.05" font-family="Times New Roman,serif" font-size="14.00">Count: 36</text>
<text text-anchor="middle" x="556.24" y="-169.05" font-family="Times New Roman,serif" font-size="14.00">Normalized count: 2.77</text>
<text text-anchor="middle" x="556.24" y="-154.05" font-family="Times New Roman,serif" font-size="14.00">Samples weight: 0.09</text>
</g>
<!-- BB4&#45;&gt;BB5 -->
<g id="edge6" class="edge">
<title>BB4&#45;&gt;BB5</title>
<path fill="none" stroke="black" d="M557.51,-264.05C557.38,-255.79 557.25,-247.1 557.12,-238.6"/>
<polygon fill="black" stroke="black" points="560.61,-238.3 556.96,-228.36 553.62,-238.41 560.61,-238.3"/>
</g>
<!-- BB8 -->
<g id="node9" class="node">
<title>BB8</title>
<ellipse fill="none" stroke="black" cx="780.24" cy="-180.25" rx="103.48" ry="48.17"/>
<text text-anchor="middle" x="780.24" y="-199.05" font-family="Times New Roman,serif" font-size="14.00">[55..56)</text>
<text text-anchor="middle" x="780.24" y="-184.05" font-family="Times New Roman,serif" font-size="14.00">Count: 9</text>
<text text-anchor="middle" x="780.24" y="-169.05" font-family="Times New Roman,serif" font-size="14.00">Normalized count: 0.69</text>
<text text-anchor="middle" x="780.24" y="-154.05" font-family="Times New Roman,serif" font-size="14.00">Samples weight: 0.02</text>
</g>
<!-- BB4&#45;&gt;BB8 -->
<g id="edge5" class="edge">
<title>BB4&#45;&gt;BB8</title>
<path fill="none" stroke="black" d="M622.75,-273.59C649.43,-257.95 680.49,-239.73 707.94,-223.64"/>
<polygon fill="black" stroke="black" points="709.86,-226.57 716.72,-218.49 706.32,-220.53 709.86,-226.57"/>
</g>
<!-- BB6 -->
<g id="node7" class="node">
<title>BB6</title>
<ellipse fill="none" stroke="black" cx="556.24" cy="-48.08" rx="103.48" ry="48.17"/>
<text text-anchor="middle" x="556.24" y="-66.88" font-family="Times New Roman,serif" font-size="14.00">[3c..49)</text>
<text text-anchor="middle" x="556.24" y="-51.88" font-family="Times New Roman,serif" font-size="14.00">Count: 12</text>
<text text-anchor="middle" x="556.24" y="-36.88" font-family="Times New Roman,serif" font-size="14.00">Normalized count: 0.92</text>
<text text-anchor="middle" x="556.24" y="-21.88" font-family="Times New Roman,serif" font-size="14.00">Samples weight: 0.03</text>
</g>
<!-- BB5&#45;&gt;BB6 -->
<g id="edge8" class="edge">
<title>BB5&#45;&gt;BB6</title>
<path fill="none" stroke="black" d="M556.24,-131.89C556.24,-123.62 556.24,-114.94 556.24,-106.43"/>
<polygon fill="black" stroke="black" points="559.74,-106.19 556.24,-96.19 552.74,-106.19 559.74,-106.19"/>
</g>
<!-- BB7 -->
<g id="node8" class="node">
<title>BB7</title>
<ellipse fill="none" stroke="black" cx="780.24" cy="-48.08" rx="103.48" ry="48.17"/>
<text text-anchor="middle" x="780.24" y="-66.88" font-family="Times New Roman,serif" font-size="14.00">[49..55)</text>
<text text-anchor="middle" x="780.24" y="-51.88" font-family="Times New Roman,serif" font-size="14.00">Count: 9</text>
<text text-anchor="middle" x="780.24" y="-36.88" font-family="Times New Roman,serif" font-size="14.00">Normalized count: 0.69</text>
<text text-anchor="middle" x="780.24" y="-21.88" font-family="Times New Roman,serif" font-size="14.00">Samples weight: 0.02</text>
</g>
<!-- BB5&#45;&gt;BB7 -->
<g id="edge7" class="edge">
<title>BB5&#45;&gt;BB7</title>
<path fill="none" stroke="black" d="M619.83,-142.3C647.26,-126.36 679.48,-107.63 707.83,-91.16"/>
<polygon fill="black" stroke="black" points="709.6,-94.18 716.49,-86.13 706.08,-88.13 709.6,-94.18"/>
</g>
<!-- BB7&#45;&gt;BB8 -->
<g id="edge9" class="edge">
<title>BB7&#45;&gt;BB8</title>
<path fill="none" stroke="black" d="M780.24,-96.19C780.24,-104.45 780.24,-113.13 780.24,-121.64"/>
<polygon fill="black" stroke="black" points="776.74,-121.89 780.24,-131.89 783.74,-121.89 776.74,-121.89"/>
</g>
</g>
</svg>
