<?xml version="1.0" encoding="UTF-8" standalone="no"?>
<!DOCTYPE svg PUBLIC "-//W3C//DTD SVG 1.1//EN"
 "http://www.w3.org/Graphics/SVG/1.1/DTD/svg11.dtd">
<!-- Generated by graphviz version 2.47.0 (20210316.0004)
 -->
<!-- Title: G Pages: 1 -->
<svg width="643pt" height="897pt"
 viewBox="0.00 0.00 642.52 897.17" xmlns="http://www.w3.org/2000/svg" xmlns:xlink="http://www.w3.org/1999/xlink">
<g id="graph0" class="graph" transform="scale(1 1) rotate(0) translate(4 893.17)">
<title>G</title>
<polygon fill="white" stroke="transparent" points="-4,4 -4,-893.17 638.52,-893.17 638.52,4 -4,4"/>
<!-- BB0 -->
<g id="node1" class="node">
<title>BB0</title>
<ellipse fill="none" stroke="black" cx="282.28" cy="-841.08" rx="103.48" ry="48.17"/>
<text text-anchor="middle" x="282.28" y="-859.88" font-family="Times New Roman,serif" font-size="14.00">[0..10)</text>
<text text-anchor="middle" x="282.28" y="-844.88" font-family="Times New Roman,serif" font-size="14.00">Count: 1</text>
<text text-anchor="middle" x="282.28" y="-829.88" font-family="Times New Roman,serif" font-size="14.00">Normalized count: 1.00</text>
<text text-anchor="middle" x="282.28" y="-814.88" font-family="Times New Roman,serif" font-size="14.00">Samples weight: 0.00</text>
</g>
<!-- BB7 -->
<g id="node8" class="node">
<title>BB7</title>
<ellipse fill="none" stroke="black" cx="282.28" cy="-708.92" rx="127.06" ry="48.17"/>
<text text-anchor="middle" x="282.28" y="-727.72" font-family="Times New Roman,serif" font-size="14.00">[c7..cf)</text>
<text text-anchor="middle" x="282.28" y="-712.72" font-family="Times New Roman,serif" font-size="14.00">Count: 100001</text>
<text text-anchor="middle" x="282.28" y="-697.72" font-family="Times New Roman,serif" font-size="14.00">Normalized count: 100001.00</text>
<text text-anchor="middle" x="282.28" y="-682.72" font-family="Times New Roman,serif" font-size="14.00">Samples weight: 0.00</text>
</g>
<!-- BB0&#45;&gt;BB7 -->
<g id="edge1" class="edge">
<title>BB0&#45;&gt;BB7</title>
<path fill="none" stroke="black" d="M282.28,-792.72C282.28,-784.45 282.28,-775.77 282.28,-767.27"/>
<polygon fill="black" stroke="black" points="285.78,-767.02 282.28,-757.02 278.78,-767.02 285.78,-767.02"/>
</g>
<!-- BB1 -->
<g id="node2" class="node">
<title>BB1</title>
<ellipse fill="none" stroke="black" cx="282.28" cy="-576.75" rx="127.06" ry="48.17"/>
<text text-anchor="middle" x="282.28" y="-595.55" font-family="Times New Roman,serif" font-size="14.00">[10..1f)</text>
<text text-anchor="middle" x="282.28" y="-580.55" font-family="Times New Roman,serif" font-size="14.00">Count: 100000</text>
<text text-anchor="middle" x="282.28" y="-565.55" font-family="Times New Roman,serif" font-size="14.00">Normalized count: 100000.00</text>
<text text-anchor="middle" x="282.28" y="-550.55" font-family="Times New Roman,serif" font-size="14.00">Samples weight: 0.00</text>
</g>
<!-- BB5 -->
<g id="node6" class="node">
<title>BB5</title>
<ellipse fill="none" stroke="black" cx="285.28" cy="-444.58" rx="132.46" ry="48.17"/>
<text text-anchor="middle" x="285.28" y="-463.38" font-family="Times New Roman,serif" font-size="14.00">[b2..c1)</text>
<text text-anchor="middle" x="285.28" y="-448.38" font-family="Times New Roman,serif" font-size="14.00">Count: 9200000</text>
<text text-anchor="middle" x="285.28" y="-433.38" font-family="Times New Roman,serif" font-size="14.00">Normalized count: 9200000.00</text>
<text text-anchor="middle" x="285.28" y="-418.38" font-family="Times New Roman,serif" font-size="14.00">Samples weight: 0.11</text>
</g>
<!-- BB1&#45;&gt;BB5 -->
<g id="edge2" class="edge">
<title>BB1&#45;&gt;BB5</title>
<path fill="none" stroke="black" d="M283.37,-528.39C283.56,-520.12 283.76,-511.44 283.96,-502.93"/>
<polygon fill="black" stroke="black" points="287.46,-502.77 284.19,-492.69 280.46,-502.61 287.46,-502.77"/>
</g>
<!-- BB2 -->
<g id="node3" class="node">
<title>BB2</title>
<ellipse fill="none" stroke="black" cx="445.28" cy="-312.42" rx="132.46" ry="48.17"/>
<text text-anchor="middle" x="445.28" y="-331.22" font-family="Times New Roman,serif" font-size="14.00">[1f..40)</text>
<text text-anchor="middle" x="445.28" y="-316.22" font-family="Times New Roman,serif" font-size="14.00">Count: 9100000</text>
<text text-anchor="middle" x="445.28" y="-301.22" font-family="Times New Roman,serif" font-size="14.00">Normalized count: 9100000.00</text>
<text text-anchor="middle" x="445.28" y="-286.22" font-family="Times New Roman,serif" font-size="14.00">Samples weight: 0.11</text>
</g>
<!-- BB3 -->
<g id="node4" class="node">
<title>BB3</title>
<ellipse fill="none" stroke="black" cx="448.28" cy="-180.25" rx="137.36" ry="48.17"/>
<text text-anchor="middle" x="448.28" y="-199.05" font-family="Times New Roman,serif" font-size="14.00">[40..a1)</text>
<text text-anchor="middle" x="448.28" y="-184.05" font-family="Times New Roman,serif" font-size="14.00">Count: 54500000</text>
<text text-anchor="middle" x="448.28" y="-169.05" font-family="Times New Roman,serif" font-size="14.00">Normalized count: 54500000.00</text>
<text text-anchor="middle" x="448.28" y="-154.05" font-family="Times New Roman,serif" font-size="14.00">Samples weight: 0.66</text>
</g>
<!-- BB2&#45;&gt;BB3 -->
<g id="edge3" class="edge">
<title>BB2&#45;&gt;BB3</title>
<path fill="none" stroke="black" d="M446.37,-264.05C446.56,-255.79 446.76,-247.1 446.96,-238.6"/>
<polygon fill="black" stroke="black" points="450.46,-238.44 447.19,-228.36 443.46,-238.27 450.46,-238.44"/>
</g>
<!-- BB3&#45;&gt;BB3 -->
<g id="edge4" class="edge">
<title>BB3&#45;&gt;BB3</title>
<path fill="none" stroke="black" d="M568.65,-203.35C589.21,-200.2 603.46,-192.5 603.46,-180.25 603.46,-170.11 593.69,-163.08 578.65,-159.18"/>
<polygon fill="black" stroke="black" points="579.15,-155.7 568.65,-157.14 577.75,-162.56 579.15,-155.7"/>
</g>
<!-- BB4 -->
<g id="node5" class="node">
<title>BB4</title>
<ellipse fill="none" stroke="black" cx="365.28" cy="-48.08" rx="132.46" ry="48.17"/>
<text text-anchor="middle" x="365.28" y="-66.88" font-family="Times New Roman,serif" font-size="14.00">[a1..b2)</text>
<text text-anchor="middle" x="365.28" y="-51.88" font-family="Times New Roman,serif" font-size="14.00">Count: 9100000</text>
<text text-anchor="middle" x="365.28" y="-36.88" font-family="Times New Roman,serif" font-size="14.00">Normalized count: 9100000.00</text>
<text text-anchor="middle" x="365.28" y="-21.88" font-family="Times New Roman,serif" font-size="14.00">Samples weight: 0.11</text>
</g>
<!-- BB3&#45;&gt;BB4 -->
<g id="edge5" class="edge">
<title>BB3&#45;&gt;BB4</title>
<path fill="none" stroke="black" d="M418.78,-132.99C412.73,-123.5 406.3,-113.42 400.08,-103.66"/>
<polygon fill="black" stroke="black" points="403.01,-101.74 394.68,-95.19 397.11,-105.51 403.01,-101.74"/>
</g>
<!-- BB4&#45;&gt;BB5 -->
<g id="edge6" class="edge">
<title>BB4&#45;&gt;BB5</title>
<path fill="none" stroke="black" d="M323.64,-94.06C315.09,-105.69 307.21,-118.74 302.28,-132.17 271.36,-216.43 273.36,-322.15 278.6,-386.2"/>
<polygon fill="black" stroke="black" points="275.15,-386.84 279.51,-396.5 282.12,-386.23 275.15,-386.84"/>
</g>
<!-- BB5&#45;&gt;BB2 -->
<g id="edge7" class="edge">
<title>BB5&#45;&gt;BB2</title>
<path fill="none" stroke="black" d="M338.56,-400.24C353.27,-388.27 369.34,-375.2 384.44,-362.91"/>
<polygon fill="black" stroke="black" points="386.69,-365.6 392.23,-356.57 382.27,-360.17 386.69,-365.6"/>
</g>
<!-- BB6 -->
<g id="node7" class="node">
<title>BB6</title>
<ellipse fill="none" stroke="black" cx="127.28" cy="-312.42" rx="127.06" ry="48.17"/>
<text text-anchor="middle" x="127.28" y="-331.22" font-family="Times New Roman,serif" font-size="14.00">[c1..c7)</text>
<text text-anchor="middle" x="127.28" y="-316.22" font-family="Times New Roman,serif" font-size="14.00">Count: 100000</text>
<text text-anchor="middle" x="127.28" y="-301.22" font-family="Times New Roman,serif" font-size="14.00">Normalized count: 100000.00</text>
<text text-anchor="middle" x="127.28" y="-286.22" font-family="Times New Roman,serif" font-size="14.00">Samples weight: 0.00</text>
</g>
<!-- BB5&#45;&gt;BB6 -->
<g id="edge8" class="edge">
<title>BB5&#45;&gt;BB6</title>
<path fill="none" stroke="black" d="M232.67,-400.24C218.07,-388.21 202.11,-375.06 187.13,-362.72"/>
<polygon fill="black" stroke="black" points="189.34,-360.01 179.39,-356.35 184.88,-365.41 189.34,-360.01"/>
</g>
<!-- BB6&#45;&gt;BB7 -->
<g id="edge9" class="edge">
<title>BB6&#45;&gt;BB7</title>
<path fill="none" stroke="black" d="M117.47,-360.61C106.69,-425.26 96.85,-542.68 146.28,-624.83 156.54,-641.89 171.78,-655.93 188.39,-667.29"/>
<polygon fill="black" stroke="black" points="186.88,-670.48 197.18,-672.99 190.69,-664.61 186.88,-670.48"/>
</g>
<!-- BB7&#45;&gt;BB1 -->
<g id="edge10" class="edge">
<title>BB7&#45;&gt;BB1</title>
<path fill="none" stroke="black" d="M282.28,-660.55C282.28,-652.29 282.28,-643.6 282.28,-635.1"/>
<polygon fill="black" stroke="black" points="285.78,-634.86 282.28,-624.86 278.78,-634.86 285.78,-634.86"/>
</g>
<!-- BB8 -->
<g id="node9" class="node">
<title>BB8</title>
<ellipse fill="none" stroke="black" cx="531.28" cy="-576.75" rx="103.48" ry="48.17"/>
<text text-anchor="middle" x="531.28" y="-595.55" font-family="Times New Roman,serif" font-size="14.00">[cf..d7)</text>
<text text-anchor="middle" x="531.28" y="-580.55" font-family="Times New Roman,serif" font-size="14.00">Count: 1</text>
<text text-anchor="middle" x="531.28" y="-565.55" font-family="Times New Roman,serif" font-size="14.00">Normalized count: 1.00</text>
<text text-anchor="middle" x="531.28" y="-550.55" font-family="Times New Roman,serif" font-size="14.00">Samples weight: 0.00</text>
</g>
<!-- BB7&#45;&gt;BB8 -->
<g id="edge11" class="edge">
<title>BB7&#45;&gt;BB8</title>
<path fill="none" stroke="black" d="M355.64,-669.57C386.72,-653.32 422.93,-634.39 454.38,-617.95"/>
<polygon fill="black" stroke="black" points="456.31,-620.89 463.55,-613.16 453.06,-614.69 456.31,-620.89"/>
</g>
</g>
</svg>
