<?xml version="1.0" encoding="UTF-8" standalone="no"?>
<!DOCTYPE svg PUBLIC "-//W3C//DTD SVG 1.1//EN"
 "http://www.w3.org/Graphics/SVG/1.1/DTD/svg11.dtd">
<!-- Generated by graphviz version 2.47.0 (20210316.0004)
 -->
<!-- Title: G Pages: 1 -->
<svg width="1219pt" height="1161pt"
 viewBox="0.00 0.00 1219.50 1161.50" xmlns="http://www.w3.org/2000/svg" xmlns:xlink="http://www.w3.org/1999/xlink">
<g id="graph0" class="graph" transform="scale(1 1) rotate(0) translate(4 1157.5)">
<title>G</title>
<polygon fill="white" stroke="transparent" points="-4,4 -4,-1157.5 1215.5,-1157.5 1215.5,4 -4,4"/>
<!-- BB0 -->
<g id="node1" class="node">
<title>BB0</title>
<ellipse fill="none" stroke="black" cx="359.84" cy="-1105.42" rx="104.8" ry="48.17"/>
<text text-anchor="middle" x="359.84" y="-1124.22" font-family="Times New Roman,serif" font-size="14.00">[0..b)</text>
<text text-anchor="middle" x="359.84" y="-1109.22" font-family="Times New Roman,serif" font-size="14.00">Count: 0</text>
<text text-anchor="middle" x="359.84" y="-1094.22" font-family="Times New Roman,serif" font-size="14.00">Normalized count: NaN</text>
<text text-anchor="middle" x="359.84" y="-1079.22" font-family="Times New Roman,serif" font-size="14.00">Samples weight: 0.00</text>
</g>
<!-- BB5 -->
<g id="node6" class="node">
<title>BB5</title>
<ellipse fill="none" stroke="black" cx="359.84" cy="-973.25" rx="113.69" ry="48.17"/>
<text text-anchor="middle" x="359.84" y="-992.05" font-family="Times New Roman,serif" font-size="14.00">[27..2c)</text>
<text text-anchor="middle" x="359.84" y="-977.05" font-family="Times New Roman,serif" font-size="14.00">Count: 88</text>
<text text-anchor="middle" x="359.84" y="-962.05" font-family="Times New Roman,serif" font-size="14.00">Normalized count: Infinity</text>
<text text-anchor="middle" x="359.84" y="-947.05" font-family="Times New Roman,serif" font-size="14.00">Samples weight: 0.00</text>
</g>
<!-- BB0&#45;&gt;BB5 -->
<g id="edge1" class="edge">
<title>BB0&#45;&gt;BB5</title>
<path fill="none" stroke="black" d="M359.84,-1057.05C359.84,-1048.79 359.84,-1040.1 359.84,-1031.6"/>
<polygon fill="black" stroke="black" points="363.34,-1031.36 359.84,-1021.36 356.34,-1031.36 363.34,-1031.36"/>
</g>
<!-- BB1 -->
<g id="node2" class="node">
<title>BB1</title>
<ellipse fill="none" stroke="black" cx="359.84" cy="-841.08" rx="113.69" ry="48.17"/>
<text text-anchor="middle" x="359.84" y="-859.88" font-family="Times New Roman,serif" font-size="14.00">[b..f)</text>
<text text-anchor="middle" x="359.84" y="-844.88" font-family="Times New Roman,serif" font-size="14.00">Count: 95</text>
<text text-anchor="middle" x="359.84" y="-829.88" font-family="Times New Roman,serif" font-size="14.00">Normalized count: Infinity</text>
<text text-anchor="middle" x="359.84" y="-814.88" font-family="Times New Roman,serif" font-size="14.00">Samples weight: 0.00</text>
</g>
<!-- BB3 -->
<g id="node4" class="node">
<title>BB3</title>
<ellipse fill="none" stroke="black" cx="359.84" cy="-708.92" rx="113.69" ry="48.17"/>
<text text-anchor="middle" x="359.84" y="-727.72" font-family="Times New Roman,serif" font-size="14.00">[1e..23)</text>
<text text-anchor="middle" x="359.84" y="-712.72" font-family="Times New Roman,serif" font-size="14.00">Count: 5094</text>
<text text-anchor="middle" x="359.84" y="-697.72" font-family="Times New Roman,serif" font-size="14.00">Normalized count: Infinity</text>
<text text-anchor="middle" x="359.84" y="-682.72" font-family="Times New Roman,serif" font-size="14.00">Samples weight: 0.02</text>
</g>
<!-- BB1&#45;&gt;BB3 -->
<g id="edge2" class="edge">
<title>BB1&#45;&gt;BB3</title>
<path fill="none" stroke="black" d="M359.84,-792.72C359.84,-784.45 359.84,-775.77 359.84,-767.27"/>
<polygon fill="black" stroke="black" points="363.34,-767.02 359.84,-757.02 356.34,-767.02 363.34,-767.02"/>
</g>
<!-- BB2 -->
<g id="node3" class="node">
<title>BB2</title>
<ellipse fill="none" stroke="black" cx="359.84" cy="-576.75" rx="113.69" ry="48.17"/>
<text text-anchor="middle" x="359.84" y="-595.55" font-family="Times New Roman,serif" font-size="14.00">[f..1e)</text>
<text text-anchor="middle" x="359.84" y="-580.55" font-family="Times New Roman,serif" font-size="14.00">Count: 4995</text>
<text text-anchor="middle" x="359.84" y="-565.55" font-family="Times New Roman,serif" font-size="14.00">Normalized count: Infinity</text>
<text text-anchor="middle" x="359.84" y="-550.55" font-family="Times New Roman,serif" font-size="14.00">Samples weight: 0.02</text>
</g>
<!-- BB2&#45;&gt;BB3 -->
<g id="edge3" class="edge">
<title>BB2&#45;&gt;BB3</title>
<path fill="none" stroke="black" d="M366.36,-624.86C366.58,-633.12 366.65,-641.8 366.55,-650.3"/>
<polygon fill="black" stroke="black" points="363.05,-650.49 366.37,-660.55 370.05,-650.62 363.05,-650.49"/>
</g>
<!-- BB3&#45;&gt;BB2 -->
<g id="edge4" class="edge">
<title>BB3&#45;&gt;BB2</title>
<path fill="none" stroke="black" d="M353.32,-660.55C353.1,-652.29 353.04,-643.6 353.14,-635.1"/>
<polygon fill="black" stroke="black" points="356.64,-634.92 353.33,-624.86 349.64,-634.79 356.64,-634.92"/>
</g>
<!-- BB4 -->
<g id="node5" class="node">
<title>BB4</title>
<ellipse fill="none" stroke="black" cx="113.84" cy="-576.75" rx="113.69" ry="48.17"/>
<text text-anchor="middle" x="113.84" y="-595.55" font-family="Times New Roman,serif" font-size="14.00">[23..27)</text>
<text text-anchor="middle" x="113.84" y="-580.55" font-family="Times New Roman,serif" font-size="14.00">Count: 87</text>
<text text-anchor="middle" x="113.84" y="-565.55" font-family="Times New Roman,serif" font-size="14.00">Normalized count: Infinity</text>
<text text-anchor="middle" x="113.84" y="-550.55" font-family="Times New Roman,serif" font-size="14.00">Samples weight: 0.00</text>
</g>
<!-- BB3&#45;&gt;BB4 -->
<g id="edge5" class="edge">
<title>BB3&#45;&gt;BB4</title>
<path fill="none" stroke="black" d="M289.68,-670.79C259.56,-654.85 224.23,-636.16 193.17,-619.72"/>
<polygon fill="black" stroke="black" points="194.58,-616.51 184.1,-614.92 191.3,-622.7 194.58,-616.51"/>
</g>
<!-- BB4&#45;&gt;BB5 -->
<g id="edge6" class="edge">
<title>BB4&#45;&gt;BB5</title>
<path fill="none" stroke="black" d="M123.23,-624.94C138.1,-690.11 172.25,-808.71 236.84,-889.17 249.14,-904.48 265.02,-918.04 281.25,-929.53"/>
<polygon fill="black" stroke="black" points="279.53,-932.6 289.76,-935.35 283.48,-926.82 279.53,-932.6"/>
</g>
<!-- BB5&#45;&gt;BB1 -->
<g id="edge7" class="edge">
<title>BB5&#45;&gt;BB1</title>
<path fill="none" stroke="black" d="M359.84,-924.89C359.84,-916.62 359.84,-907.94 359.84,-899.43"/>
<polygon fill="black" stroke="black" points="363.34,-899.19 359.84,-889.19 356.34,-899.19 363.34,-899.19"/>
</g>
<!-- BB6 -->
<g id="node7" class="node">
<title>BB6</title>
<ellipse fill="none" stroke="black" cx="600.84" cy="-841.08" rx="104.8" ry="48.17"/>
<text text-anchor="middle" x="600.84" y="-859.88" font-family="Times New Roman,serif" font-size="14.00">[2c..30)</text>
<text text-anchor="middle" x="600.84" y="-844.88" font-family="Times New Roman,serif" font-size="14.00">Count: 0</text>
<text text-anchor="middle" x="600.84" y="-829.88" font-family="Times New Roman,serif" font-size="14.00">Normalized count: NaN</text>
<text text-anchor="middle" x="600.84" y="-814.88" font-family="Times New Roman,serif" font-size="14.00">Samples weight: 0.00</text>
</g>
<!-- BB5&#45;&gt;BB6 -->
<g id="edge8" class="edge">
<title>BB5&#45;&gt;BB6</title>
<path fill="none" stroke="black" d="M428.91,-934.95C458.91,-918.74 494.15,-899.71 524.89,-883.11"/>
<polygon fill="black" stroke="black" points="526.72,-886.1 533.85,-878.27 523.39,-879.94 526.72,-886.1"/>
</g>
<!-- BB13 -->
<g id="node14" class="node">
<title>BB13</title>
<ellipse fill="none" stroke="black" cx="624.84" cy="-708.92" rx="113.69" ry="48.17"/>
<text text-anchor="middle" x="624.84" y="-727.72" font-family="Times New Roman,serif" font-size="14.00">[70..75)</text>
<text text-anchor="middle" x="624.84" y="-712.72" font-family="Times New Roman,serif" font-size="14.00">Count: 130</text>
<text text-anchor="middle" x="624.84" y="-697.72" font-family="Times New Roman,serif" font-size="14.00">Normalized count: Infinity</text>
<text text-anchor="middle" x="624.84" y="-682.72" font-family="Times New Roman,serif" font-size="14.00">Samples weight: 0.00</text>
</g>
<!-- BB6&#45;&gt;BB13 -->
<g id="edge9" class="edge">
<title>BB6&#45;&gt;BB13</title>
<path fill="none" stroke="black" d="M609.51,-793.09C611.05,-784.71 612.68,-775.91 614.27,-767.28"/>
<polygon fill="black" stroke="black" points="617.74,-767.75 616.11,-757.28 610.86,-766.48 617.74,-767.75"/>
</g>
<!-- BB7 -->
<g id="node8" class="node">
<title>BB7</title>
<ellipse fill="none" stroke="black" cx="643.84" cy="-576.75" rx="113.69" ry="48.17"/>
<text text-anchor="middle" x="643.84" y="-595.55" font-family="Times New Roman,serif" font-size="14.00">[30..34)</text>
<text text-anchor="middle" x="643.84" y="-580.55" font-family="Times New Roman,serif" font-size="14.00">Count: 141</text>
<text text-anchor="middle" x="643.84" y="-565.55" font-family="Times New Roman,serif" font-size="14.00">Normalized count: Infinity</text>
<text text-anchor="middle" x="643.84" y="-550.55" font-family="Times New Roman,serif" font-size="14.00">Samples weight: 0.00</text>
</g>
<!-- BB11 -->
<g id="node12" class="node">
<title>BB11</title>
<ellipse fill="none" stroke="black" cx="643.84" cy="-444.58" rx="113.69" ry="48.17"/>
<text text-anchor="middle" x="643.84" y="-463.38" font-family="Times New Roman,serif" font-size="14.00">[67..6c)</text>
<text text-anchor="middle" x="643.84" y="-448.38" font-family="Times New Roman,serif" font-size="14.00">Count: 8744</text>
<text text-anchor="middle" x="643.84" y="-433.38" font-family="Times New Roman,serif" font-size="14.00">Normalized count: Infinity</text>
<text text-anchor="middle" x="643.84" y="-418.38" font-family="Times New Roman,serif" font-size="14.00">Samples weight: 0.03</text>
</g>
<!-- BB7&#45;&gt;BB11 -->
<g id="edge10" class="edge">
<title>BB7&#45;&gt;BB11</title>
<path fill="none" stroke="black" d="M643.84,-528.39C643.84,-520.12 643.84,-511.44 643.84,-502.93"/>
<polygon fill="black" stroke="black" points="647.34,-502.69 643.84,-492.69 640.34,-502.69 647.34,-502.69"/>
</g>
<!-- BB8 -->
<g id="node9" class="node">
<title>BB8</title>
<ellipse fill="none" stroke="black" cx="785.84" cy="-312.42" rx="113.69" ry="48.17"/>
<text text-anchor="middle" x="785.84" y="-331.22" font-family="Times New Roman,serif" font-size="14.00">[34..36)</text>
<text text-anchor="middle" x="785.84" y="-316.22" font-family="Times New Roman,serif" font-size="14.00">Count: 8592</text>
<text text-anchor="middle" x="785.84" y="-301.22" font-family="Times New Roman,serif" font-size="14.00">Normalized count: Infinity</text>
<text text-anchor="middle" x="785.84" y="-286.22" font-family="Times New Roman,serif" font-size="14.00">Samples weight: 0.03</text>
</g>
<!-- BB9 -->
<g id="node10" class="node">
<title>BB9</title>
<ellipse fill="none" stroke="black" cx="785.84" cy="-180.25" rx="113.69" ry="48.17"/>
<text text-anchor="middle" x="785.84" y="-199.05" font-family="Times New Roman,serif" font-size="14.00">[36..63)</text>
<text text-anchor="middle" x="785.84" y="-184.05" font-family="Times New Roman,serif" font-size="14.00">Count: 216409</text>
<text text-anchor="middle" x="785.84" y="-169.05" font-family="Times New Roman,serif" font-size="14.00">Normalized count: Infinity</text>
<text text-anchor="middle" x="785.84" y="-154.05" font-family="Times New Roman,serif" font-size="14.00">Samples weight: 0.86</text>
</g>
<!-- BB8&#45;&gt;BB9 -->
<g id="edge11" class="edge">
<title>BB8&#45;&gt;BB9</title>
<path fill="none" stroke="black" d="M785.84,-264.05C785.84,-255.79 785.84,-247.1 785.84,-238.6"/>
<polygon fill="black" stroke="black" points="789.34,-238.36 785.84,-228.36 782.34,-238.36 789.34,-238.36"/>
</g>
<!-- BB9&#45;&gt;BB9 -->
<g id="edge12" class="edge">
<title>BB9&#45;&gt;BB9</title>
<path fill="none" stroke="black" d="M885.03,-203.86C904.14,-201.07 917.69,-193.2 917.69,-180.25 917.69,-169.72 908.75,-162.56 895.14,-158.74"/>
<polygon fill="black" stroke="black" points="895.53,-155.25 885.03,-156.64 894.1,-162.1 895.53,-155.25"/>
</g>
<!-- BB10 -->
<g id="node11" class="node">
<title>BB10</title>
<ellipse fill="none" stroke="black" cx="714.84" cy="-48.08" rx="113.69" ry="48.17"/>
<text text-anchor="middle" x="714.84" y="-66.88" font-family="Times New Roman,serif" font-size="14.00">[63..67)</text>
<text text-anchor="middle" x="714.84" y="-51.88" font-family="Times New Roman,serif" font-size="14.00">Count: 8597</text>
<text text-anchor="middle" x="714.84" y="-36.88" font-family="Times New Roman,serif" font-size="14.00">Normalized count: Infinity</text>
<text text-anchor="middle" x="714.84" y="-21.88" font-family="Times New Roman,serif" font-size="14.00">Samples weight: 0.03</text>
</g>
<!-- BB9&#45;&gt;BB10 -->
<g id="edge13" class="edge">
<title>BB9&#45;&gt;BB10</title>
<path fill="none" stroke="black" d="M760.61,-132.99C755.54,-123.69 750.16,-113.82 744.94,-104.25"/>
<polygon fill="black" stroke="black" points="747.86,-102.3 739.99,-95.19 741.71,-105.65 747.86,-102.3"/>
</g>
<!-- BB10&#45;&gt;BB11 -->
<g id="edge14" class="edge">
<title>BB10&#45;&gt;BB11</title>
<path fill="none" stroke="black" d="M681.06,-94.08C673.8,-105.9 667.05,-119.04 662.84,-132.17 635.52,-217.43 635.56,-322.42 639.02,-386.12"/>
<polygon fill="black" stroke="black" points="635.54,-386.58 639.63,-396.36 642.53,-386.17 635.54,-386.58"/>
</g>
<!-- BB11&#45;&gt;BB8 -->
<g id="edge15" class="edge">
<title>BB11&#45;&gt;BB8</title>
<path fill="none" stroke="black" d="M690.73,-400.6C703.82,-388.6 718.15,-375.47 731.62,-363.12"/>
<polygon fill="black" stroke="black" points="734,-365.69 739,-356.35 729.27,-360.53 734,-365.69"/>
</g>
<!-- BB12 -->
<g id="node13" class="node">
<title>BB12</title>
<ellipse fill="none" stroke="black" cx="501.84" cy="-312.42" rx="113.69" ry="48.17"/>
<text text-anchor="middle" x="501.84" y="-331.22" font-family="Times New Roman,serif" font-size="14.00">[6c..70)</text>
<text text-anchor="middle" x="501.84" y="-316.22" font-family="Times New Roman,serif" font-size="14.00">Count: 130</text>
<text text-anchor="middle" x="501.84" y="-301.22" font-family="Times New Roman,serif" font-size="14.00">Normalized count: Infinity</text>
<text text-anchor="middle" x="501.84" y="-286.22" font-family="Times New Roman,serif" font-size="14.00">Samples weight: 0.00</text>
</g>
<!-- BB11&#45;&gt;BB12 -->
<g id="edge16" class="edge">
<title>BB11&#45;&gt;BB12</title>
<path fill="none" stroke="black" d="M596.95,-400.6C583.87,-388.6 569.54,-375.47 556.07,-363.12"/>
<polygon fill="black" stroke="black" points="558.42,-360.53 548.68,-356.35 553.69,-365.69 558.42,-360.53"/>
</g>
<!-- BB12&#45;&gt;BB13 -->
<g id="edge17" class="edge">
<title>BB12&#45;&gt;BB13</title>
<path fill="none" stroke="black" d="M493.42,-360.58C484.43,-424.43 476.86,-540.1 520.84,-624.83 528.3,-639.19 539.44,-651.9 551.71,-662.8"/>
<polygon fill="black" stroke="black" points="549.57,-665.57 559.47,-669.35 554.09,-660.22 549.57,-665.57"/>
</g>
<!-- BB13&#45;&gt;BB7 -->
<g id="edge18" class="edge">
<title>BB13&#45;&gt;BB7</title>
<path fill="none" stroke="black" d="M631.76,-660.55C632.98,-652.2 634.26,-643.41 635.51,-634.82"/>
<polygon fill="black" stroke="black" points="638.99,-635.26 636.97,-624.86 632.06,-634.25 638.99,-635.26"/>
</g>
<!-- BB14 -->
<g id="node15" class="node">
<title>BB14</title>
<ellipse fill="none" stroke="black" cx="879.84" cy="-576.75" rx="104.8" ry="48.17"/>
<text text-anchor="middle" x="879.84" y="-595.55" font-family="Times New Roman,serif" font-size="14.00">[75..7e)</text>
<text text-anchor="middle" x="879.84" y="-580.55" font-family="Times New Roman,serif" font-size="14.00">Count: 0</text>
<text text-anchor="middle" x="879.84" y="-565.55" font-family="Times New Roman,serif" font-size="14.00">Normalized count: NaN</text>
<text text-anchor="middle" x="879.84" y="-550.55" font-family="Times New Roman,serif" font-size="14.00">Samples weight: 0.00</text>
</g>
<!-- BB13&#45;&gt;BB14 -->
<g id="edge19" class="edge">
<title>BB13&#45;&gt;BB14</title>
<path fill="none" stroke="black" d="M696.55,-671.31C729.27,-654.61 768.1,-634.79 801.58,-617.7"/>
<polygon fill="black" stroke="black" points="803.55,-620.62 810.87,-612.96 800.37,-614.39 803.55,-620.62"/>
</g>
<!-- BB15 -->
<g id="node16" class="node">
<title>BB15</title>
<ellipse fill="none" stroke="black" cx="879.84" cy="-444.58" rx="104.8" ry="48.17"/>
<text text-anchor="middle" x="879.84" y="-463.38" font-family="Times New Roman,serif" font-size="14.00">[7e..80)</text>
<text text-anchor="middle" x="879.84" y="-448.38" font-family="Times New Roman,serif" font-size="14.00">Count: 0</text>
<text text-anchor="middle" x="879.84" y="-433.38" font-family="Times New Roman,serif" font-size="14.00">Normalized count: NaN</text>
<text text-anchor="middle" x="879.84" y="-418.38" font-family="Times New Roman,serif" font-size="14.00">Samples weight: 0.00</text>
</g>
<!-- BB14&#45;&gt;BB15 -->
<g id="edge21" class="edge">
<title>BB14&#45;&gt;BB15</title>
<path fill="none" stroke="black" d="M879.84,-528.39C879.84,-520.12 879.84,-511.44 879.84,-502.93"/>
<polygon fill="black" stroke="black" points="883.34,-502.69 879.84,-492.69 876.34,-502.69 883.34,-502.69"/>
</g>
<!-- BB16 -->
<g id="node17" class="node">
<title>BB16</title>
<ellipse fill="none" stroke="black" cx="1106.84" cy="-444.58" rx="104.8" ry="48.17"/>
<text text-anchor="middle" x="1106.84" y="-463.38" font-family="Times New Roman,serif" font-size="14.00">[80..82)</text>
<text text-anchor="middle" x="1106.84" y="-448.38" font-family="Times New Roman,serif" font-size="14.00">Count: 0</text>
<text text-anchor="middle" x="1106.84" y="-433.38" font-family="Times New Roman,serif" font-size="14.00">Normalized count: NaN</text>
<text text-anchor="middle" x="1106.84" y="-418.38" font-family="Times New Roman,serif" font-size="14.00">Samples weight: 0.00</text>
</g>
<!-- BB14&#45;&gt;BB16 -->
<g id="edge20" class="edge">
<title>BB14&#45;&gt;BB16</title>
<path fill="none" stroke="black" d="M944.29,-538.8C972.08,-522.86 1004.74,-504.13 1033.46,-487.66"/>
<polygon fill="black" stroke="black" points="1035.31,-490.64 1042.24,-482.63 1031.83,-484.57 1035.31,-490.64"/>
</g>
</g>
</svg>
