<?xml version="1.0" encoding="UTF-8" standalone="no"?>
<!DOCTYPE svg PUBLIC "-//W3C//DTD SVG 1.1//EN"
 "http://www.w3.org/Graphics/SVG/1.1/DTD/svg11.dtd">
<!-- Generated by graphviz version 2.47.0 (20210316.0004)
 -->
<!-- Title: G Pages: 1 -->
<svg width="1168pt" height="971pt"
 viewBox="0.00 0.00 1167.55 970.58" xmlns="http://www.w3.org/2000/svg" xmlns:xlink="http://www.w3.org/1999/xlink">
<g id="graph0" class="graph" transform="scale(1 1) rotate(0) translate(4 966.58)">
<title>G</title>
<polygon fill="white" stroke="transparent" points="-4,4 -4,-966.58 1163.55,-966.58 1163.55,4 -4,4"/>
<!-- BB0 -->
<g id="node1" class="node">
<title>BB0</title>
<ellipse fill="none" stroke="black" cx="106.77" cy="-925.1" rx="106.55" ry="37.45"/>
<text text-anchor="middle" x="106.77" y="-936.4" font-family="Times New Roman,serif" font-size="14.00">[0..17)</text>
<text text-anchor="middle" x="106.77" y="-921.4" font-family="Times New Roman,serif" font-size="14.00">Normalized Count: NaN</text>
<text text-anchor="middle" x="106.77" y="-906.4" font-family="Times New Roman,serif" font-size="14.00">Samples weight: 0.00</text>
</g>
<!-- BB2 -->
<g id="node3" class="node">
<title>BB2</title>
<ellipse fill="none" stroke="black" cx="106.77" cy="-814.15" rx="106.55" ry="37.45"/>
<text text-anchor="middle" x="106.77" y="-825.45" font-family="Times New Roman,serif" font-size="14.00">[24..2d)</text>
<text text-anchor="middle" x="106.77" y="-810.45" font-family="Times New Roman,serif" font-size="14.00">Normalized Count: NaN</text>
<text text-anchor="middle" x="106.77" y="-795.45" font-family="Times New Roman,serif" font-size="14.00">Samples weight: 0.00</text>
</g>
<!-- BB0&#45;&gt;BB2 -->
<g id="edge1" class="edge">
<title>BB0&#45;&gt;BB2</title>
<path fill="none" stroke="black" d="M106.77,-887.52C106.77,-879.35 106.77,-870.57 106.77,-862.04"/>
<polygon fill="black" stroke="black" points="110.27,-861.82 106.77,-851.82 103.27,-861.82 110.27,-861.82"/>
</g>
<!-- BB1 -->
<g id="node2" class="node">
<title>BB1</title>
<ellipse fill="none" stroke="black" cx="106.77" cy="-703.2" rx="106.55" ry="37.45"/>
<text text-anchor="middle" x="106.77" y="-714.5" font-family="Times New Roman,serif" font-size="14.00">[17..24)</text>
<text text-anchor="middle" x="106.77" y="-699.5" font-family="Times New Roman,serif" font-size="14.00">Normalized Count: NaN</text>
<text text-anchor="middle" x="106.77" y="-684.5" font-family="Times New Roman,serif" font-size="14.00">Samples weight: 0.00</text>
</g>
<!-- BB1&#45;&gt;BB2 -->
<g id="edge2" class="edge">
<title>BB1&#45;&gt;BB2</title>
<path fill="none" stroke="black" d="M113.19,-740.87C113.51,-749.05 113.6,-757.83 113.46,-766.35"/>
<polygon fill="black" stroke="black" points="109.96,-766.48 113.19,-776.57 116.96,-766.66 109.96,-766.48"/>
</g>
<!-- BB2&#45;&gt;BB1 -->
<g id="edge3" class="edge">
<title>BB2&#45;&gt;BB1</title>
<path fill="none" stroke="black" d="M100.36,-776.57C100.04,-768.39 99.95,-759.61 100.08,-751.09"/>
<polygon fill="black" stroke="black" points="103.59,-750.96 100.35,-740.87 96.59,-750.77 103.59,-750.96"/>
</g>
<!-- BB3 -->
<g id="node4" class="node">
<title>BB3</title>
<ellipse fill="none" stroke="black" cx="347.77" cy="-703.2" rx="115.93" ry="37.45"/>
<text text-anchor="middle" x="347.77" y="-714.5" font-family="Times New Roman,serif" font-size="14.00">[2d..38)</text>
<text text-anchor="middle" x="347.77" y="-699.5" font-family="Times New Roman,serif" font-size="14.00">Normalized Count: Infinity</text>
<text text-anchor="middle" x="347.77" y="-684.5" font-family="Times New Roman,serif" font-size="14.00">Samples weight: 0.15</text>
</g>
<!-- BB2&#45;&gt;BB3 -->
<g id="edge4" class="edge">
<title>BB2&#45;&gt;BB3</title>
<path fill="none" stroke="black" d="M171.04,-784.1C202.13,-770.04 239.67,-753.07 272.13,-738.39"/>
<polygon fill="black" stroke="black" points="273.92,-741.43 281.59,-734.12 271.03,-735.05 273.92,-741.43"/>
</g>
<!-- BB5 -->
<g id="node6" class="node">
<title>BB5</title>
<ellipse fill="none" stroke="black" cx="347.77" cy="-592.24" rx="115.93" ry="37.45"/>
<text text-anchor="middle" x="347.77" y="-603.54" font-family="Times New Roman,serif" font-size="14.00">[4c..53)</text>
<text text-anchor="middle" x="347.77" y="-588.54" font-family="Times New Roman,serif" font-size="14.00">Normalized Count: Infinity</text>
<text text-anchor="middle" x="347.77" y="-573.54" font-family="Times New Roman,serif" font-size="14.00">Samples weight: 0.13</text>
</g>
<!-- BB3&#45;&gt;BB5 -->
<g id="edge5" class="edge">
<title>BB3&#45;&gt;BB5</title>
<path fill="none" stroke="black" d="M347.77,-665.61C347.77,-657.44 347.77,-648.66 347.77,-640.13"/>
<polygon fill="black" stroke="black" points="351.27,-639.92 347.77,-629.92 344.27,-639.92 351.27,-639.92"/>
</g>
<!-- BB4 -->
<g id="node5" class="node">
<title>BB4</title>
<ellipse fill="none" stroke="black" cx="347.77" cy="-481.29" rx="115.93" ry="37.45"/>
<text text-anchor="middle" x="347.77" y="-492.59" font-family="Times New Roman,serif" font-size="14.00">[38..4c)</text>
<text text-anchor="middle" x="347.77" y="-477.59" font-family="Times New Roman,serif" font-size="14.00">Normalized Count: Infinity</text>
<text text-anchor="middle" x="347.77" y="-462.59" font-family="Times New Roman,serif" font-size="14.00">Samples weight: 0.71</text>
</g>
<!-- BB4&#45;&gt;BB5 -->
<g id="edge6" class="edge">
<title>BB4&#45;&gt;BB5</title>
<path fill="none" stroke="black" d="M354.19,-518.96C354.51,-527.14 354.6,-535.92 354.46,-544.45"/>
<polygon fill="black" stroke="black" points="350.96,-544.57 354.19,-554.66 357.96,-544.76 350.96,-544.57"/>
</g>
<!-- BB5&#45;&gt;BB4 -->
<g id="edge7" class="edge">
<title>BB5&#45;&gt;BB4</title>
<path fill="none" stroke="black" d="M341.36,-554.66C341.04,-546.49 340.95,-537.71 341.08,-529.18"/>
<polygon fill="black" stroke="black" points="344.59,-529.05 341.35,-518.96 337.59,-528.86 344.59,-529.05"/>
</g>
<!-- BB6 -->
<g id="node7" class="node">
<title>BB6</title>
<ellipse fill="none" stroke="black" cx="588.77" cy="-481.29" rx="106.55" ry="37.45"/>
<text text-anchor="middle" x="588.77" y="-492.59" font-family="Times New Roman,serif" font-size="14.00">[53..66)</text>
<text text-anchor="middle" x="588.77" y="-477.59" font-family="Times New Roman,serif" font-size="14.00">Normalized Count: NaN</text>
<text text-anchor="middle" x="588.77" y="-462.59" font-family="Times New Roman,serif" font-size="14.00">Samples weight: 0.00</text>
</g>
<!-- BB5&#45;&gt;BB6 -->
<g id="edge8" class="edge">
<title>BB5&#45;&gt;BB6</title>
<path fill="none" stroke="black" d="M413.95,-561.33C445.27,-547.16 482.79,-530.2 515.03,-515.63"/>
<polygon fill="black" stroke="black" points="516.74,-518.7 524.41,-511.39 513.86,-512.32 516.74,-518.7"/>
</g>
<!-- BB11 -->
<g id="node12" class="node">
<title>BB11</title>
<ellipse fill="none" stroke="black" cx="588.77" cy="-370.34" rx="106.55" ry="37.45"/>
<text text-anchor="middle" x="588.77" y="-381.64" font-family="Times New Roman,serif" font-size="14.00">[9c..a2)</text>
<text text-anchor="middle" x="588.77" y="-366.64" font-family="Times New Roman,serif" font-size="14.00">Normalized Count: NaN</text>
<text text-anchor="middle" x="588.77" y="-351.64" font-family="Times New Roman,serif" font-size="14.00">Samples weight: 0.00</text>
</g>
<!-- BB6&#45;&gt;BB11 -->
<g id="edge9" class="edge">
<title>BB6&#45;&gt;BB11</title>
<path fill="none" stroke="black" d="M588.77,-443.71C588.77,-435.53 588.77,-426.75 588.77,-418.23"/>
<polygon fill="black" stroke="black" points="592.27,-418.01 588.77,-408.01 585.27,-418.01 592.27,-418.01"/>
</g>
<!-- BB7 -->
<g id="node8" class="node">
<title>BB7</title>
<ellipse fill="none" stroke="black" cx="588.77" cy="-259.38" rx="106.55" ry="37.45"/>
<text text-anchor="middle" x="588.77" y="-270.68" font-family="Times New Roman,serif" font-size="14.00">[66..79)</text>
<text text-anchor="middle" x="588.77" y="-255.68" font-family="Times New Roman,serif" font-size="14.00">Normalized Count: NaN</text>
<text text-anchor="middle" x="588.77" y="-240.68" font-family="Times New Roman,serif" font-size="14.00">Samples weight: 0.00</text>
</g>
<!-- BB9 -->
<g id="node10" class="node">
<title>BB9</title>
<ellipse fill="none" stroke="black" cx="588.77" cy="-148.43" rx="106.55" ry="37.45"/>
<text text-anchor="middle" x="588.77" y="-159.73" font-family="Times New Roman,serif" font-size="14.00">[8e..96)</text>
<text text-anchor="middle" x="588.77" y="-144.73" font-family="Times New Roman,serif" font-size="14.00">Normalized Count: NaN</text>
<text text-anchor="middle" x="588.77" y="-129.73" font-family="Times New Roman,serif" font-size="14.00">Samples weight: 0.00</text>
</g>
<!-- BB7&#45;&gt;BB9 -->
<g id="edge10" class="edge">
<title>BB7&#45;&gt;BB9</title>
<path fill="none" stroke="black" d="M588.77,-221.8C588.77,-213.63 588.77,-204.85 588.77,-196.32"/>
<polygon fill="black" stroke="black" points="592.27,-196.1 588.77,-186.1 585.27,-196.1 592.27,-196.1"/>
</g>
<!-- BB8 -->
<g id="node9" class="node">
<title>BB8</title>
<ellipse fill="none" stroke="black" cx="588.77" cy="-37.48" rx="106.55" ry="37.45"/>
<text text-anchor="middle" x="588.77" y="-48.78" font-family="Times New Roman,serif" font-size="14.00">[79..8e)</text>
<text text-anchor="middle" x="588.77" y="-33.78" font-family="Times New Roman,serif" font-size="14.00">Normalized Count: NaN</text>
<text text-anchor="middle" x="588.77" y="-18.78" font-family="Times New Roman,serif" font-size="14.00">Samples weight: 0.00</text>
</g>
<!-- BB8&#45;&gt;BB9 -->
<g id="edge11" class="edge">
<title>BB8&#45;&gt;BB9</title>
<path fill="none" stroke="black" d="M595.19,-75.15C595.51,-83.33 595.6,-92.11 595.46,-100.63"/>
<polygon fill="black" stroke="black" points="591.96,-100.76 595.19,-110.85 598.96,-100.94 591.96,-100.76"/>
</g>
<!-- BB9&#45;&gt;BB8 -->
<g id="edge12" class="edge">
<title>BB9&#45;&gt;BB8</title>
<path fill="none" stroke="black" d="M582.36,-110.85C582.04,-102.67 581.95,-93.89 582.08,-85.37"/>
<polygon fill="black" stroke="black" points="585.59,-85.24 582.35,-75.15 578.59,-85.05 585.59,-85.24"/>
</g>
<!-- BB10 -->
<g id="node11" class="node">
<title>BB10</title>
<ellipse fill="none" stroke="black" cx="356.77" cy="-37.48" rx="106.55" ry="37.45"/>
<text text-anchor="middle" x="356.77" y="-48.78" font-family="Times New Roman,serif" font-size="14.00">[96..9c)</text>
<text text-anchor="middle" x="356.77" y="-33.78" font-family="Times New Roman,serif" font-size="14.00">Normalized Count: NaN</text>
<text text-anchor="middle" x="356.77" y="-18.78" font-family="Times New Roman,serif" font-size="14.00">Samples weight: 0.00</text>
</g>
<!-- BB9&#45;&gt;BB10 -->
<g id="edge13" class="edge">
<title>BB9&#45;&gt;BB10</title>
<path fill="none" stroke="black" d="M525.99,-117.95C495.94,-103.84 459.82,-86.87 428.67,-72.24"/>
<polygon fill="black" stroke="black" points="430.15,-69.07 419.61,-67.98 427.17,-75.4 430.15,-69.07"/>
</g>
<!-- BB10&#45;&gt;BB11 -->
<g id="edge14" class="edge">
<title>BB10&#45;&gt;BB11</title>
<path fill="none" stroke="black" d="M365.87,-75.19C380.7,-128.95 414.44,-229.97 472.77,-296.86 485.47,-311.41 501.8,-324.04 518.18,-334.48"/>
<polygon fill="black" stroke="black" points="516.38,-337.49 526.73,-339.75 520.05,-331.53 516.38,-337.49"/>
</g>
<!-- BB11&#45;&gt;BB7 -->
<g id="edge15" class="edge">
<title>BB11&#45;&gt;BB7</title>
<path fill="none" stroke="black" d="M588.77,-332.75C588.77,-324.58 588.77,-315.8 588.77,-307.27"/>
<polygon fill="black" stroke="black" points="592.27,-307.06 588.77,-297.06 585.27,-307.06 592.27,-307.06"/>
</g>
<!-- BB12 -->
<g id="node13" class="node">
<title>BB12</title>
<ellipse fill="none" stroke="black" cx="820.77" cy="-259.38" rx="106.55" ry="37.45"/>
<text text-anchor="middle" x="820.77" y="-270.68" font-family="Times New Roman,serif" font-size="14.00">[a2..b5)</text>
<text text-anchor="middle" x="820.77" y="-255.68" font-family="Times New Roman,serif" font-size="14.00">Normalized Count: NaN</text>
<text text-anchor="middle" x="820.77" y="-240.68" font-family="Times New Roman,serif" font-size="14.00">Samples weight: 0.00</text>
</g>
<!-- BB11&#45;&gt;BB12 -->
<g id="edge16" class="edge">
<title>BB11&#45;&gt;BB12</title>
<path fill="none" stroke="black" d="M651.56,-339.85C681.6,-325.74 717.73,-308.78 748.87,-294.15"/>
<polygon fill="black" stroke="black" points="750.38,-297.31 757.94,-289.89 747.4,-290.97 750.38,-297.31"/>
</g>
<!-- BB14 -->
<g id="node15" class="node">
<title>BB14</title>
<ellipse fill="none" stroke="black" cx="820.77" cy="-148.43" rx="106.55" ry="37.45"/>
<text text-anchor="middle" x="820.77" y="-159.73" font-family="Times New Roman,serif" font-size="14.00">[ca..d3)</text>
<text text-anchor="middle" x="820.77" y="-144.73" font-family="Times New Roman,serif" font-size="14.00">Normalized Count: NaN</text>
<text text-anchor="middle" x="820.77" y="-129.73" font-family="Times New Roman,serif" font-size="14.00">Samples weight: 0.00</text>
</g>
<!-- BB12&#45;&gt;BB14 -->
<g id="edge17" class="edge">
<title>BB12&#45;&gt;BB14</title>
<path fill="none" stroke="black" d="M820.77,-221.8C820.77,-213.63 820.77,-204.85 820.77,-196.32"/>
<polygon fill="black" stroke="black" points="824.27,-196.1 820.77,-186.1 817.27,-196.1 824.27,-196.1"/>
</g>
<!-- BB13 -->
<g id="node14" class="node">
<title>BB13</title>
<ellipse fill="none" stroke="black" cx="820.77" cy="-37.48" rx="106.55" ry="37.45"/>
<text text-anchor="middle" x="820.77" y="-48.78" font-family="Times New Roman,serif" font-size="14.00">[b5..ca)</text>
<text text-anchor="middle" x="820.77" y="-33.78" font-family="Times New Roman,serif" font-size="14.00">Normalized Count: NaN</text>
<text text-anchor="middle" x="820.77" y="-18.78" font-family="Times New Roman,serif" font-size="14.00">Samples weight: 0.00</text>
</g>
<!-- BB13&#45;&gt;BB14 -->
<g id="edge18" class="edge">
<title>BB13&#45;&gt;BB14</title>
<path fill="none" stroke="black" d="M827.19,-75.15C827.51,-83.33 827.6,-92.11 827.46,-100.63"/>
<polygon fill="black" stroke="black" points="823.96,-100.76 827.19,-110.85 830.96,-100.94 823.96,-100.76"/>
</g>
<!-- BB14&#45;&gt;BB13 -->
<g id="edge19" class="edge">
<title>BB14&#45;&gt;BB13</title>
<path fill="none" stroke="black" d="M814.36,-110.85C814.04,-102.67 813.95,-93.89 814.08,-85.37"/>
<polygon fill="black" stroke="black" points="817.59,-85.24 814.35,-75.15 810.59,-85.05 817.59,-85.24"/>
</g>
<!-- BB15 -->
<g id="node16" class="node">
<title>BB15</title>
<ellipse fill="none" stroke="black" cx="1052.77" cy="-37.48" rx="106.55" ry="37.45"/>
<text text-anchor="middle" x="1052.77" y="-48.78" font-family="Times New Roman,serif" font-size="14.00">[d3..d5)</text>
<text text-anchor="middle" x="1052.77" y="-33.78" font-family="Times New Roman,serif" font-size="14.00">Normalized Count: NaN</text>
<text text-anchor="middle" x="1052.77" y="-18.78" font-family="Times New Roman,serif" font-size="14.00">Samples weight: 0.00</text>
</g>
<!-- BB14&#45;&gt;BB15 -->
<g id="edge20" class="edge">
<title>BB14&#45;&gt;BB15</title>
<path fill="none" stroke="black" d="M883.56,-117.95C913.6,-103.84 949.73,-86.87 980.87,-72.24"/>
<polygon fill="black" stroke="black" points="982.38,-75.4 989.94,-67.98 979.4,-69.07 982.38,-75.4"/>
</g>
</g>
</svg>
