<?xml version="1.0" encoding="UTF-8" standalone="no"?>
<!DOCTYPE svg PUBLIC "-//W3C//DTD SVG 1.1//EN"
 "http://www.w3.org/Graphics/SVG/1.1/DTD/svg11.dtd">
<!-- Generated by graphviz version 2.47.0 (20210316.0004)
 -->
<!-- Title: G Pages: 1 -->
<svg width="682pt" height="501pt"
 viewBox="0.00 0.00 682.42 500.67" xmlns="http://www.w3.org/2000/svg" xmlns:xlink="http://www.w3.org/1999/xlink">
<g id="graph0" class="graph" transform="scale(1 1) rotate(0) translate(4 496.67)">
<title>G</title>
<polygon fill="white" stroke="transparent" points="-4,4 -4,-496.67 678.42,-496.67 678.42,4 -4,4"/>
<!-- BB0 -->
<g id="node1" class="node">
<title>BB0</title>
<ellipse fill="none" stroke="black" cx="456.19" cy="-444.58" rx="103.48" ry="48.17"/>
<text text-anchor="middle" x="456.19" y="-463.38" font-family="Times New Roman,serif" font-size="14.00">[0..6)</text>
<text text-anchor="middle" x="456.19" y="-448.38" font-family="Times New Roman,serif" font-size="14.00">Count: 7</text>
<text text-anchor="middle" x="456.19" y="-433.38" font-family="Times New Roman,serif" font-size="14.00">Normalized count: 1.00</text>
<text text-anchor="middle" x="456.19" y="-418.38" font-family="Times New Roman,serif" font-size="14.00">Samples weight: 0.00</text>
</g>
<!-- BB4 -->
<g id="node5" class="node">
<title>BB4</title>
<ellipse fill="none" stroke="black" cx="388.19" cy="-312.42" rx="108.38" ry="48.17"/>
<text text-anchor="middle" x="388.19" y="-331.22" font-family="Times New Roman,serif" font-size="14.00">[28..2c)</text>
<text text-anchor="middle" x="388.19" y="-316.22" font-family="Times New Roman,serif" font-size="14.00">Count: 358</text>
<text text-anchor="middle" x="388.19" y="-301.22" font-family="Times New Roman,serif" font-size="14.00">Normalized count: 51.14</text>
<text text-anchor="middle" x="388.19" y="-286.22" font-family="Times New Roman,serif" font-size="14.00">Samples weight: 0.25</text>
</g>
<!-- BB0&#45;&gt;BB4 -->
<g id="edge1" class="edge">
<title>BB0&#45;&gt;BB4</title>
<path fill="none" stroke="black" d="M432.21,-397.69C427.24,-388.16 421.94,-378.03 416.82,-368.23"/>
<polygon fill="black" stroke="black" points="419.91,-366.58 412.17,-359.33 413.7,-369.82 419.91,-366.58"/>
</g>
<!-- BB1 -->
<g id="node2" class="node">
<title>BB1</title>
<ellipse fill="none" stroke="black" cx="252.19" cy="-180.25" rx="108.38" ry="48.17"/>
<text text-anchor="middle" x="252.19" y="-199.05" font-family="Times New Roman,serif" font-size="14.00">[6..10)</text>
<text text-anchor="middle" x="252.19" y="-184.05" font-family="Times New Roman,serif" font-size="14.00">Count: 351</text>
<text text-anchor="middle" x="252.19" y="-169.05" font-family="Times New Roman,serif" font-size="14.00">Normalized count: 50.14</text>
<text text-anchor="middle" x="252.19" y="-154.05" font-family="Times New Roman,serif" font-size="14.00">Samples weight: 0.25</text>
</g>
<!-- BB2 -->
<g id="node3" class="node">
<title>BB2</title>
<ellipse fill="none" stroke="black" cx="108.19" cy="-48.08" rx="108.38" ry="48.17"/>
<text text-anchor="middle" x="108.19" y="-66.88" font-family="Times New Roman,serif" font-size="14.00">[10..24)</text>
<text text-anchor="middle" x="108.19" y="-51.88" font-family="Times New Roman,serif" font-size="14.00">Count: 351</text>
<text text-anchor="middle" x="108.19" y="-36.88" font-family="Times New Roman,serif" font-size="14.00">Normalized count: 50.14</text>
<text text-anchor="middle" x="108.19" y="-21.88" font-family="Times New Roman,serif" font-size="14.00">Samples weight: 0.25</text>
</g>
<!-- BB1&#45;&gt;BB2 -->
<g id="edge3" class="edge">
<title>BB1&#45;&gt;BB2</title>
<path fill="none" stroke="black" d="M205.04,-136.63C191.61,-124.49 176.87,-111.17 163.03,-98.66"/>
<polygon fill="black" stroke="black" points="165.21,-95.91 155.44,-91.8 160.52,-101.1 165.21,-95.91"/>
</g>
<!-- BB3 -->
<g id="node4" class="node">
<title>BB3</title>
<ellipse fill="none" stroke="black" cx="342.19" cy="-48.08" rx="108.38" ry="48.17"/>
<text text-anchor="middle" x="342.19" y="-66.88" font-family="Times New Roman,serif" font-size="14.00">[24..28)</text>
<text text-anchor="middle" x="342.19" y="-51.88" font-family="Times New Roman,serif" font-size="14.00">Count: 351</text>
<text text-anchor="middle" x="342.19" y="-36.88" font-family="Times New Roman,serif" font-size="14.00">Normalized count: 50.14</text>
<text text-anchor="middle" x="342.19" y="-21.88" font-family="Times New Roman,serif" font-size="14.00">Samples weight: 0.25</text>
</g>
<!-- BB1&#45;&gt;BB3 -->
<g id="edge2" class="edge">
<title>BB1&#45;&gt;BB3</title>
<path fill="none" stroke="black" d="M283.41,-134.09C290.46,-123.89 298.01,-112.97 305.27,-102.47"/>
<polygon fill="black" stroke="black" points="308.21,-104.38 311.02,-94.16 302.45,-100.4 308.21,-104.38"/>
</g>
<!-- BB2&#45;&gt;BB3 -->
<g id="edge4" class="edge">
<title>BB2&#45;&gt;BB3</title>
<path fill="none" stroke="black" d="M216.5,-48.08C218.83,-48.08 221.16,-48.08 223.48,-48.08"/>
<polygon fill="black" stroke="black" points="223.69,-51.58 233.69,-48.08 223.69,-44.58 223.69,-51.58"/>
</g>
<!-- BB3&#45;&gt;BB4 -->
<g id="edge5" class="edge">
<title>BB3&#45;&gt;BB4</title>
<path fill="none" stroke="black" d="M359.2,-95.63C362.98,-107.42 366.63,-120.15 369.19,-132.17 377.76,-172.42 382.54,-218.62 385.16,-254.04"/>
<polygon fill="black" stroke="black" points="381.68,-254.47 385.88,-264.2 388.67,-253.97 381.68,-254.47"/>
</g>
<!-- BB4&#45;&gt;BB1 -->
<g id="edge6" class="edge">
<title>BB4&#45;&gt;BB1</title>
<path fill="none" stroke="black" d="M343.28,-268.43C330.86,-256.55 317.28,-243.55 304.48,-231.3"/>
<polygon fill="black" stroke="black" points="306.69,-228.57 297.05,-224.19 301.85,-233.63 306.69,-228.57"/>
</g>
<!-- BB5 -->
<g id="node6" class="node">
<title>BB5</title>
<ellipse fill="none" stroke="black" cx="524.19" cy="-180.25" rx="103.48" ry="48.17"/>
<text text-anchor="middle" x="524.19" y="-199.05" font-family="Times New Roman,serif" font-size="14.00">[2c..2f)</text>
<text text-anchor="middle" x="524.19" y="-184.05" font-family="Times New Roman,serif" font-size="14.00">Count: 7</text>
<text text-anchor="middle" x="524.19" y="-169.05" font-family="Times New Roman,serif" font-size="14.00">Normalized count: 1.00</text>
<text text-anchor="middle" x="524.19" y="-154.05" font-family="Times New Roman,serif" font-size="14.00">Samples weight: 0.00</text>
</g>
<!-- BB4&#45;&gt;BB5 -->
<g id="edge7" class="edge">
<title>BB4&#45;&gt;BB5</title>
<path fill="none" stroke="black" d="M433.1,-268.43C445.64,-256.43 459.38,-243.28 472.3,-230.92"/>
<polygon fill="black" stroke="black" points="474.99,-233.19 479.79,-223.74 470.15,-228.13 474.99,-233.19"/>
</g>
<!-- BB5&#45;&gt;BB0 -->
<g id="edge8" class="edge">
<title>BB5&#45;&gt;BB0</title>
<path fill="none" stroke="black" d="M524.61,-228.44C523.66,-265.27 519.48,-317.27 505.19,-360.5 501.92,-370.38 497.35,-380.36 492.31,-389.81"/>
<polygon fill="black" stroke="black" points="489.17,-388.24 487.35,-398.68 495.28,-391.66 489.17,-388.24"/>
</g>
<!-- BB6 -->
<g id="node7" class="node">
<title>BB6</title>
<ellipse fill="none" stroke="black" cx="571.19" cy="-48.08" rx="103.48" ry="48.17"/>
<text text-anchor="middle" x="571.19" y="-66.88" font-family="Times New Roman,serif" font-size="14.00">[2f..30)</text>
<text text-anchor="middle" x="571.19" y="-51.88" font-family="Times New Roman,serif" font-size="14.00">Count: 0</text>
<text text-anchor="middle" x="571.19" y="-36.88" font-family="Times New Roman,serif" font-size="14.00">Normalized count: 0.00</text>
<text text-anchor="middle" x="571.19" y="-21.88" font-family="Times New Roman,serif" font-size="14.00">Samples weight: 0.00</text>
</g>
<!-- BB5&#45;&gt;BB6 -->
<g id="edge9" class="edge">
<title>BB5&#45;&gt;BB6</title>
<path fill="none" stroke="black" d="M541.02,-132.62C544.23,-123.75 547.62,-114.37 550.92,-105.23"/>
<polygon fill="black" stroke="black" points="554.21,-106.41 554.31,-95.82 547.62,-104.04 554.21,-106.41"/>
</g>
</g>
</svg>
