<?xml version="1.0" encoding="UTF-8" standalone="no"?>
<!DOCTYPE svg PUBLIC "-//W3C//DTD SVG 1.1//EN"
 "http://www.w3.org/Graphics/SVG/1.1/DTD/svg11.dtd">
<!-- Generated by graphviz version 2.47.0 (20210316.0004)
 -->
<!-- Title: G Pages: 1 -->
<svg width="916pt" height="527pt"
 viewBox="0.00 0.00 915.72 526.77" xmlns="http://www.w3.org/2000/svg" xmlns:xlink="http://www.w3.org/1999/xlink">
<g id="graph0" class="graph" transform="scale(1 1) rotate(0) translate(4 522.77)">
<title>G</title>
<polygon fill="white" stroke="transparent" points="-4,4 -4,-522.77 911.72,-522.77 911.72,4 -4,4"/>
<!-- BB0 -->
<g id="node1" class="node">
<title>BB0</title>
<ellipse fill="none" stroke="black" cx="458.36" cy="-481.29" rx="105.22" ry="37.45"/>
<text text-anchor="middle" x="458.36" y="-492.59" font-family="Times New Roman,serif" font-size="14.00">[0..18)</text>
<text text-anchor="middle" x="458.36" y="-477.59" font-family="Times New Roman,serif" font-size="14.00">Normalized Count: 1.00</text>
<text text-anchor="middle" x="458.36" y="-462.59" font-family="Times New Roman,serif" font-size="14.00">Samples weight: 0.02</text>
</g>
<!-- BB1 -->
<g id="node2" class="node">
<title>BB1</title>
<ellipse fill="none" stroke="black" cx="458.36" cy="-370.34" rx="110.12" ry="37.45"/>
<text text-anchor="middle" x="458.36" y="-381.64" font-family="Times New Roman,serif" font-size="14.00">[18..31)</text>
<text text-anchor="middle" x="458.36" y="-366.64" font-family="Times New Roman,serif" font-size="14.00">Normalized Count: 20.04</text>
<text text-anchor="middle" x="458.36" y="-351.64" font-family="Times New Roman,serif" font-size="14.00">Samples weight: 0.32</text>
</g>
<!-- BB0&#45;&gt;BB1 -->
<g id="edge1" class="edge">
<title>BB0&#45;&gt;BB1</title>
<path fill="none" stroke="black" d="M458.36,-443.71C458.36,-435.53 458.36,-426.75 458.36,-418.23"/>
<polygon fill="black" stroke="black" points="461.86,-418.01 458.36,-408.01 454.86,-418.01 461.86,-418.01"/>
</g>
<!-- BB2 -->
<g id="node3" class="node">
<title>BB2</title>
<ellipse fill="none" stroke="black" cx="301.36" cy="-259.38" rx="110.12" ry="37.45"/>
<text text-anchor="middle" x="301.36" y="-270.68" font-family="Times New Roman,serif" font-size="14.00">[31..49)</text>
<text text-anchor="middle" x="301.36" y="-255.68" font-family="Times New Roman,serif" font-size="14.00">Normalized Count: 17.46</text>
<text text-anchor="middle" x="301.36" y="-240.68" font-family="Times New Roman,serif" font-size="14.00">Samples weight: 0.28</text>
</g>
<!-- BB1&#45;&gt;BB2 -->
<g id="edge3" class="edge">
<title>BB1&#45;&gt;BB2</title>
<path fill="none" stroke="black" d="M410.83,-336.35C393.92,-324.62 374.73,-311.3 357.19,-299.13"/>
<polygon fill="black" stroke="black" points="358.94,-296.08 348.73,-293.26 354.95,-301.83 358.94,-296.08"/>
</g>
<!-- BB5 -->
<g id="node6" class="node">
<title>BB5</title>
<ellipse fill="none" stroke="black" cx="610.36" cy="-259.38" rx="105.22" ry="37.45"/>
<text text-anchor="middle" x="610.36" y="-270.68" font-family="Times New Roman,serif" font-size="14.00">[7b..93)</text>
<text text-anchor="middle" x="610.36" y="-255.68" font-family="Times New Roman,serif" font-size="14.00">Normalized Count: 2.58</text>
<text text-anchor="middle" x="610.36" y="-240.68" font-family="Times New Roman,serif" font-size="14.00">Samples weight: 0.04</text>
</g>
<!-- BB1&#45;&gt;BB5 -->
<g id="edge2" class="edge">
<title>BB1&#45;&gt;BB5</title>
<path fill="none" stroke="black" d="M504.79,-336.06C521.07,-324.38 539.5,-311.18 556.35,-299.1"/>
<polygon fill="black" stroke="black" points="558.39,-301.94 564.47,-293.27 554.31,-296.26 558.39,-301.94"/>
</g>
<!-- BB3 -->
<g id="node4" class="node">
<title>BB3</title>
<ellipse fill="none" stroke="black" cx="339.36" cy="-148.43" rx="110.12" ry="37.45"/>
<text text-anchor="middle" x="339.36" y="-159.73" font-family="Times New Roman,serif" font-size="14.00">[49..62)</text>
<text text-anchor="middle" x="339.36" y="-144.73" font-family="Times New Roman,serif" font-size="14.00">Normalized Count: 16.49</text>
<text text-anchor="middle" x="339.36" y="-129.73" font-family="Times New Roman,serif" font-size="14.00">Samples weight: 0.27</text>
</g>
<!-- BB2&#45;&gt;BB3 -->
<g id="edge5" class="edge">
<title>BB2&#45;&gt;BB3</title>
<path fill="none" stroke="black" d="M314.01,-222.1C316.99,-213.56 320.21,-204.34 323.32,-195.42"/>
<polygon fill="black" stroke="black" points="326.64,-196.52 326.63,-185.92 320.03,-194.21 326.64,-196.52"/>
</g>
<!-- BB4 -->
<g id="node5" class="node">
<title>BB4</title>
<ellipse fill="none" stroke="black" cx="105.36" cy="-148.43" rx="105.22" ry="37.45"/>
<text text-anchor="middle" x="105.36" y="-159.73" font-family="Times New Roman,serif" font-size="14.00">[62..7b)</text>
<text text-anchor="middle" x="105.36" y="-144.73" font-family="Times New Roman,serif" font-size="14.00">Normalized Count: 0.97</text>
<text text-anchor="middle" x="105.36" y="-129.73" font-family="Times New Roman,serif" font-size="14.00">Samples weight: 0.02</text>
</g>
<!-- BB2&#45;&gt;BB4 -->
<g id="edge4" class="edge">
<title>BB2&#45;&gt;BB4</title>
<path fill="none" stroke="black" d="M244.93,-227.02C221.46,-213.97 194.09,-198.75 169.83,-185.27"/>
<polygon fill="black" stroke="black" points="171.49,-182.19 161.05,-180.39 168.09,-188.31 171.49,-182.19"/>
</g>
<!-- BB3&#45;&gt;BB1 -->
<g id="edge6" class="edge">
<title>BB3&#45;&gt;BB1</title>
<path fill="none" stroke="black" d="M385.81,-182.66C398.62,-193.84 411.43,-207.24 420.36,-221.91 439.06,-252.64 448.62,-292.37 453.47,-322.84"/>
<polygon fill="black" stroke="black" points="450.01,-323.41 454.94,-332.8 456.94,-322.39 450.01,-323.41"/>
</g>
<!-- BB8 -->
<g id="node9" class="node">
<title>BB8</title>
<ellipse fill="none" stroke="black" cx="453.36" cy="-37.48" rx="105.22" ry="37.45"/>
<text text-anchor="middle" x="453.36" y="-48.78" font-family="Times New Roman,serif" font-size="14.00">[c6..11a)</text>
<text text-anchor="middle" x="453.36" y="-33.78" font-family="Times New Roman,serif" font-size="14.00">Normalized Count: 1.00</text>
<text text-anchor="middle" x="453.36" y="-18.78" font-family="Times New Roman,serif" font-size="14.00">Samples weight: 0.02</text>
</g>
<!-- BB4&#45;&gt;BB8 -->
<g id="edge7" class="edge">
<title>BB4&#45;&gt;BB8</title>
<path fill="none" stroke="black" d="M182.66,-122.84C195.26,-118.86 208.17,-114.78 220.36,-110.95 268.27,-95.9 321.76,-79.25 365.4,-65.71"/>
<polygon fill="black" stroke="black" points="366.61,-69 375.13,-62.69 364.54,-62.31 366.61,-69"/>
</g>
<!-- BB6 -->
<g id="node7" class="node">
<title>BB6</title>
<ellipse fill="none" stroke="black" cx="573.36" cy="-148.43" rx="105.22" ry="37.45"/>
<text text-anchor="middle" x="573.36" y="-159.73" font-family="Times New Roman,serif" font-size="14.00">[93..af)</text>
<text text-anchor="middle" x="573.36" y="-144.73" font-family="Times New Roman,serif" font-size="14.00">Normalized Count: 2.54</text>
<text text-anchor="middle" x="573.36" y="-129.73" font-family="Times New Roman,serif" font-size="14.00">Samples weight: 0.04</text>
</g>
<!-- BB5&#45;&gt;BB6 -->
<g id="edge9" class="edge">
<title>BB5&#45;&gt;BB6</title>
<path fill="none" stroke="black" d="M598.04,-222.1C595.14,-213.56 592,-204.34 588.98,-195.42"/>
<polygon fill="black" stroke="black" points="592.28,-194.27 585.75,-185.92 585.65,-196.52 592.28,-194.27"/>
</g>
<!-- BB7 -->
<g id="node8" class="node">
<title>BB7</title>
<ellipse fill="none" stroke="black" cx="802.36" cy="-148.43" rx="105.22" ry="37.45"/>
<text text-anchor="middle" x="802.36" y="-159.73" font-family="Times New Roman,serif" font-size="14.00">[af..c6)</text>
<text text-anchor="middle" x="802.36" y="-144.73" font-family="Times New Roman,serif" font-size="14.00">Normalized Count: 0.03</text>
<text text-anchor="middle" x="802.36" y="-129.73" font-family="Times New Roman,serif" font-size="14.00">Samples weight: 0.00</text>
</g>
<!-- BB5&#45;&gt;BB7 -->
<g id="edge8" class="edge">
<title>BB5&#45;&gt;BB7</title>
<path fill="none" stroke="black" d="M665.12,-227.31C688.02,-214.31 714.79,-199.12 738.57,-185.63"/>
<polygon fill="black" stroke="black" points="740.55,-188.53 747.52,-180.55 737.1,-182.44 740.55,-188.53"/>
</g>
<!-- BB6&#45;&gt;BB1 -->
<g id="edge10" class="edge">
<title>BB6&#45;&gt;BB1</title>
<path fill="none" stroke="black" d="M529.63,-182.65C517.32,-193.92 504.95,-207.37 496.36,-221.91 478.11,-252.77 468.53,-292.33 463.56,-322.7"/>
<polygon fill="black" stroke="black" points="460.09,-322.2 462.04,-332.62 467.01,-323.26 460.09,-322.2"/>
</g>
<!-- BB7&#45;&gt;BB8 -->
<g id="edge11" class="edge">
<title>BB7&#45;&gt;BB8</title>
<path fill="none" stroke="black" d="M725.06,-122.83C712.46,-118.85 699.55,-114.77 687.36,-110.95 639.16,-95.85 585.32,-79.16 541.44,-65.6"/>
<polygon fill="black" stroke="black" points="542.25,-62.19 531.67,-62.59 540.19,-68.88 542.25,-62.19"/>
</g>
</g>
</svg>
