<?xml version="1.0" encoding="UTF-8" standalone="no"?>
<!DOCTYPE svg PUBLIC "-//W3C//DTD SVG 1.1//EN"
 "http://www.w3.org/Graphics/SVG/1.1/DTD/svg11.dtd">
<!-- Generated by graphviz version 2.47.0 (20210316.0004)
 -->
<!-- Title: G Pages: 1 -->
<svg width="700pt" height="897pt"
 viewBox="0.00 0.00 700.48 897.17" xmlns="http://www.w3.org/2000/svg" xmlns:xlink="http://www.w3.org/1999/xlink">
<g id="graph0" class="graph" transform="scale(1 1) rotate(0) translate(4 893.17)">
<title>G</title>
<polygon fill="white" stroke="transparent" points="-4,4 -4,-893.17 696.48,-893.17 696.48,4 -4,4"/>
<!-- BB0 -->
<g id="node1" class="node">
<title>BB0</title>
<ellipse fill="none" stroke="black" cx="458.24" cy="-841.08" rx="103.48" ry="48.17"/>
<text text-anchor="middle" x="458.24" y="-859.88" font-family="Times New Roman,serif" font-size="14.00">[0..4)</text>
<text text-anchor="middle" x="458.24" y="-844.88" font-family="Times New Roman,serif" font-size="14.00">Count: 2</text>
<text text-anchor="middle" x="458.24" y="-829.88" font-family="Times New Roman,serif" font-size="14.00">Normalized count: 1.00</text>
<text text-anchor="middle" x="458.24" y="-814.88" font-family="Times New Roman,serif" font-size="14.00">Samples weight: 0.01</text>
</g>
<!-- BB8 -->
<g id="node9" class="node">
<title>BB8</title>
<ellipse fill="none" stroke="black" cx="458.24" cy="-708.92" rx="108.38" ry="48.17"/>
<text text-anchor="middle" x="458.24" y="-727.72" font-family="Times New Roman,serif" font-size="14.00">[50..55)</text>
<text text-anchor="middle" x="458.24" y="-712.72" font-family="Times New Roman,serif" font-size="14.00">Count: 43</text>
<text text-anchor="middle" x="458.24" y="-697.72" font-family="Times New Roman,serif" font-size="14.00">Normalized count: 21.50</text>
<text text-anchor="middle" x="458.24" y="-682.72" font-family="Times New Roman,serif" font-size="14.00">Samples weight: 0.29</text>
</g>
<!-- BB0&#45;&gt;BB8 -->
<g id="edge1" class="edge">
<title>BB0&#45;&gt;BB8</title>
<path fill="none" stroke="black" d="M458.24,-792.72C458.24,-784.45 458.24,-775.77 458.24,-767.27"/>
<polygon fill="black" stroke="black" points="461.74,-767.02 458.24,-757.02 454.74,-767.02 461.74,-767.02"/>
</g>
<!-- BB1 -->
<g id="node2" class="node">
<title>BB1</title>
<ellipse fill="none" stroke="black" cx="322.24" cy="-576.75" rx="108.38" ry="48.17"/>
<text text-anchor="middle" x="322.24" y="-595.55" font-family="Times New Roman,serif" font-size="14.00">[4..15)</text>
<text text-anchor="middle" x="322.24" y="-580.55" font-family="Times New Roman,serif" font-size="14.00">Count: 41</text>
<text text-anchor="middle" x="322.24" y="-565.55" font-family="Times New Roman,serif" font-size="14.00">Normalized count: 20.50</text>
<text text-anchor="middle" x="322.24" y="-550.55" font-family="Times New Roman,serif" font-size="14.00">Samples weight: 0.28</text>
</g>
<!-- BB2 -->
<g id="node3" class="node">
<title>BB2</title>
<ellipse fill="none" stroke="black" cx="229.24" cy="-444.58" rx="103.48" ry="48.17"/>
<text text-anchor="middle" x="229.24" y="-463.38" font-family="Times New Roman,serif" font-size="14.00">[15..1f)</text>
<text text-anchor="middle" x="229.24" y="-448.38" font-family="Times New Roman,serif" font-size="14.00">Count: 5</text>
<text text-anchor="middle" x="229.24" y="-433.38" font-family="Times New Roman,serif" font-size="14.00">Normalized count: 2.50</text>
<text text-anchor="middle" x="229.24" y="-418.38" font-family="Times New Roman,serif" font-size="14.00">Samples weight: 0.03</text>
</g>
<!-- BB1&#45;&gt;BB2 -->
<g id="edge3" class="edge">
<title>BB1&#45;&gt;BB2</title>
<path fill="none" stroke="black" d="M289.97,-530.59C282.69,-520.39 274.88,-509.47 267.38,-498.97"/>
<polygon fill="black" stroke="black" points="270.11,-496.77 261.45,-490.66 264.41,-500.83 270.11,-496.77"/>
</g>
<!-- BB7 -->
<g id="node8" class="node">
<title>BB7</title>
<ellipse fill="none" stroke="black" cx="458.24" cy="-444.58" rx="108.38" ry="48.17"/>
<text text-anchor="middle" x="458.24" y="-463.38" font-family="Times New Roman,serif" font-size="14.00">[4c..50)</text>
<text text-anchor="middle" x="458.24" y="-448.38" font-family="Times New Roman,serif" font-size="14.00">Count: 41</text>
<text text-anchor="middle" x="458.24" y="-433.38" font-family="Times New Roman,serif" font-size="14.00">Normalized count: 20.50</text>
<text text-anchor="middle" x="458.24" y="-418.38" font-family="Times New Roman,serif" font-size="14.00">Samples weight: 0.28</text>
</g>
<!-- BB1&#45;&gt;BB7 -->
<g id="edge2" class="edge">
<title>BB1&#45;&gt;BB7</title>
<path fill="none" stroke="black" d="M367.15,-532.77C379.56,-520.88 393.15,-507.88 405.95,-495.63"/>
<polygon fill="black" stroke="black" points="408.57,-497.96 413.38,-488.52 403.73,-492.91 408.57,-497.96"/>
</g>
<!-- BB3 -->
<g id="node4" class="node">
<title>BB3</title>
<ellipse fill="none" stroke="black" cx="229.24" cy="-312.42" rx="103.48" ry="48.17"/>
<text text-anchor="middle" x="229.24" y="-331.22" font-family="Times New Roman,serif" font-size="14.00">[1f..31)</text>
<text text-anchor="middle" x="229.24" y="-316.22" font-family="Times New Roman,serif" font-size="14.00">Count: 5</text>
<text text-anchor="middle" x="229.24" y="-301.22" font-family="Times New Roman,serif" font-size="14.00">Normalized count: 2.50</text>
<text text-anchor="middle" x="229.24" y="-286.22" font-family="Times New Roman,serif" font-size="14.00">Samples weight: 0.03</text>
</g>
<!-- BB2&#45;&gt;BB3 -->
<g id="edge5" class="edge">
<title>BB2&#45;&gt;BB3</title>
<path fill="none" stroke="black" d="M229.24,-396.22C229.24,-387.95 229.24,-379.27 229.24,-370.77"/>
<polygon fill="black" stroke="black" points="232.74,-370.52 229.24,-360.52 225.74,-370.52 232.74,-370.52"/>
</g>
<!-- BB2&#45;&gt;BB7 -->
<g id="edge4" class="edge">
<title>BB2&#45;&gt;BB7</title>
<path fill="none" stroke="black" d="M332.56,-444.58C334.88,-444.58 337.21,-444.58 339.54,-444.58"/>
<polygon fill="black" stroke="black" points="339.74,-448.08 349.74,-444.58 339.74,-441.08 339.74,-448.08"/>
</g>
<!-- BB4 -->
<g id="node5" class="node">
<title>BB4</title>
<ellipse fill="none" stroke="black" cx="103.24" cy="-180.25" rx="103.48" ry="48.17"/>
<text text-anchor="middle" x="103.24" y="-199.05" font-family="Times New Roman,serif" font-size="14.00">[31..34)</text>
<text text-anchor="middle" x="103.24" y="-184.05" font-family="Times New Roman,serif" font-size="14.00">Count: 5</text>
<text text-anchor="middle" x="103.24" y="-169.05" font-family="Times New Roman,serif" font-size="14.00">Normalized count: 2.50</text>
<text text-anchor="middle" x="103.24" y="-154.05" font-family="Times New Roman,serif" font-size="14.00">Samples weight: 0.03</text>
</g>
<!-- BB3&#45;&gt;BB4 -->
<g id="edge7" class="edge">
<title>BB3&#45;&gt;BB4</title>
<path fill="none" stroke="black" d="M187.28,-268.07C176.02,-256.44 163.74,-243.75 152.13,-231.76"/>
<polygon fill="black" stroke="black" points="154.48,-229.15 145.01,-224.4 149.45,-234.02 154.48,-229.15"/>
</g>
<!-- BB5 -->
<g id="node6" class="node">
<title>BB5</title>
<ellipse fill="none" stroke="black" cx="327.24" cy="-180.25" rx="103.48" ry="48.17"/>
<text text-anchor="middle" x="327.24" y="-199.05" font-family="Times New Roman,serif" font-size="14.00">[34..44)</text>
<text text-anchor="middle" x="327.24" y="-184.05" font-family="Times New Roman,serif" font-size="14.00">Count: 0</text>
<text text-anchor="middle" x="327.24" y="-169.05" font-family="Times New Roman,serif" font-size="14.00">Normalized count: 0.00</text>
<text text-anchor="middle" x="327.24" y="-154.05" font-family="Times New Roman,serif" font-size="14.00">Samples weight: 0.00</text>
</g>
<!-- BB3&#45;&gt;BB5 -->
<g id="edge6" class="edge">
<title>BB3&#45;&gt;BB5</title>
<path fill="none" stroke="black" d="M262.96,-266.62C270.82,-256.19 279.25,-244.99 287.34,-234.24"/>
<polygon fill="black" stroke="black" points="290.23,-236.22 293.45,-226.13 284.64,-232.01 290.23,-236.22"/>
</g>
<!-- BB4&#45;&gt;BB5 -->
<g id="edge9" class="edge">
<title>BB4&#45;&gt;BB5</title>
<path fill="none" stroke="black" d="M206.49,-180.25C208.94,-180.25 211.4,-180.25 213.85,-180.25"/>
<polygon fill="black" stroke="black" points="213.94,-183.75 223.94,-180.25 213.94,-176.75 213.94,-183.75"/>
</g>
<!-- BB6 -->
<g id="node7" class="node">
<title>BB6</title>
<ellipse fill="none" stroke="black" cx="280.24" cy="-48.08" rx="103.48" ry="48.17"/>
<text text-anchor="middle" x="280.24" y="-66.88" font-family="Times New Roman,serif" font-size="14.00">[44..4c)</text>
<text text-anchor="middle" x="280.24" y="-51.88" font-family="Times New Roman,serif" font-size="14.00">Count: 5</text>
<text text-anchor="middle" x="280.24" y="-36.88" font-family="Times New Roman,serif" font-size="14.00">Normalized count: 2.50</text>
<text text-anchor="middle" x="280.24" y="-21.88" font-family="Times New Roman,serif" font-size="14.00">Samples weight: 0.03</text>
</g>
<!-- BB4&#45;&gt;BB6 -->
<g id="edge8" class="edge">
<title>BB4&#45;&gt;BB6</title>
<path fill="none" stroke="black" d="M157.79,-139.13C176.72,-125.21 198.09,-109.49 217.62,-95.13"/>
<polygon fill="black" stroke="black" points="219.89,-97.81 225.87,-89.07 215.74,-92.17 219.89,-97.81"/>
</g>
<!-- BB6&#45;&gt;BB7 -->
<g id="edge10" class="edge">
<title>BB6&#45;&gt;BB7</title>
<path fill="none" stroke="black" d="M366.54,-74.92C394.33,-87.64 422.3,-106.03 439.24,-132.17 488.98,-208.91 481.38,-319.87 470.43,-386.55"/>
<polygon fill="black" stroke="black" points="466.97,-386 468.73,-396.45 473.87,-387.19 466.97,-386"/>
</g>
<!-- BB7&#45;&gt;BB8 -->
<g id="edge11" class="edge">
<title>BB7&#45;&gt;BB8</title>
<path fill="none" stroke="black" d="M458.24,-492.85C458.24,-537.12 458.24,-603.37 458.24,-650.63"/>
<polygon fill="black" stroke="black" points="454.74,-650.71 458.24,-660.71 461.74,-650.71 454.74,-650.71"/>
</g>
<!-- BB8&#45;&gt;BB1 -->
<g id="edge12" class="edge">
<title>BB8&#45;&gt;BB1</title>
<path fill="none" stroke="black" d="M413.33,-664.93C400.91,-653.05 387.33,-640.05 374.53,-627.8"/>
<polygon fill="black" stroke="black" points="376.74,-625.07 367.1,-620.69 371.9,-630.13 376.74,-625.07"/>
</g>
<!-- BB9 -->
<g id="node10" class="node">
<title>BB9</title>
<ellipse fill="none" stroke="black" cx="589.24" cy="-576.75" rx="103.48" ry="48.17"/>
<text text-anchor="middle" x="589.24" y="-595.55" font-family="Times New Roman,serif" font-size="14.00">[55..65)</text>
<text text-anchor="middle" x="589.24" y="-580.55" font-family="Times New Roman,serif" font-size="14.00">Count: 2</text>
<text text-anchor="middle" x="589.24" y="-565.55" font-family="Times New Roman,serif" font-size="14.00">Normalized count: 1.00</text>
<text text-anchor="middle" x="589.24" y="-550.55" font-family="Times New Roman,serif" font-size="14.00">Samples weight: 0.01</text>
</g>
<!-- BB8&#45;&gt;BB9 -->
<g id="edge13" class="edge">
<title>BB8&#45;&gt;BB9</title>
<path fill="none" stroke="black" d="M501.86,-664.57C513.57,-652.94 526.34,-640.25 538.4,-628.26"/>
<polygon fill="black" stroke="black" points="541.18,-630.43 545.81,-620.9 536.25,-625.47 541.18,-630.43"/>
</g>
</g>
</svg>
