<?xml version="1.0" encoding="UTF-8" standalone="no"?>
<!DOCTYPE svg PUBLIC "-//W3C//DTD SVG 1.1//EN"
 "http://www.w3.org/Graphics/SVG/1.1/DTD/svg11.dtd">
<!-- Generated by graphviz version 2.47.0 (20210316.0004)
 -->
<!-- Title: G Pages: 1 -->
<svg width="766pt" height="1558pt"
 viewBox="0.00 0.00 766.48 1558.00" xmlns="http://www.w3.org/2000/svg" xmlns:xlink="http://www.w3.org/1999/xlink">
<g id="graph0" class="graph" transform="scale(1 1) rotate(0) translate(4 1554)">
<title>G</title>
<polygon fill="white" stroke="transparent" points="-4,4 -4,-1554 762.48,-1554 762.48,4 -4,4"/>
<!-- BB0 -->
<g id="node1" class="node">
<title>BB0</title>
<ellipse fill="none" stroke="black" cx="407.24" cy="-1501.92" rx="103.48" ry="48.17"/>
<text text-anchor="middle" x="407.24" y="-1520.72" font-family="Times New Roman,serif" font-size="14.00">[0..18)</text>
<text text-anchor="middle" x="407.24" y="-1505.72" font-family="Times New Roman,serif" font-size="14.00">Count: 1</text>
<text text-anchor="middle" x="407.24" y="-1490.72" font-family="Times New Roman,serif" font-size="14.00">Normalized count: 1.00</text>
<text text-anchor="middle" x="407.24" y="-1475.72" font-family="Times New Roman,serif" font-size="14.00">Samples weight: 0.00</text>
</g>
<!-- BB1 -->
<g id="node2" class="node">
<title>BB1</title>
<ellipse fill="none" stroke="black" cx="295.24" cy="-1369.75" rx="103.48" ry="48.17"/>
<text text-anchor="middle" x="295.24" y="-1388.55" font-family="Times New Roman,serif" font-size="14.00">[18..24)</text>
<text text-anchor="middle" x="295.24" y="-1373.55" font-family="Times New Roman,serif" font-size="14.00">Count: 0</text>
<text text-anchor="middle" x="295.24" y="-1358.55" font-family="Times New Roman,serif" font-size="14.00">Normalized count: 0.00</text>
<text text-anchor="middle" x="295.24" y="-1343.55" font-family="Times New Roman,serif" font-size="14.00">Samples weight: 0.00</text>
</g>
<!-- BB0&#45;&gt;BB1 -->
<g id="edge2" class="edge">
<title>BB0&#45;&gt;BB1</title>
<path fill="none" stroke="black" d="M369.32,-1456.85C359.83,-1445.82 349.57,-1433.89 339.79,-1422.53"/>
<polygon fill="black" stroke="black" points="342.29,-1420.07 333.12,-1414.77 336.99,-1424.63 342.29,-1420.07"/>
</g>
<!-- BB2 -->
<g id="node3" class="node">
<title>BB2</title>
<ellipse fill="none" stroke="black" cx="519.24" cy="-1369.75" rx="103.48" ry="48.17"/>
<text text-anchor="middle" x="519.24" y="-1388.55" font-family="Times New Roman,serif" font-size="14.00">[24..2e)</text>
<text text-anchor="middle" x="519.24" y="-1373.55" font-family="Times New Roman,serif" font-size="14.00">Count: 0</text>
<text text-anchor="middle" x="519.24" y="-1358.55" font-family="Times New Roman,serif" font-size="14.00">Normalized count: 0.00</text>
<text text-anchor="middle" x="519.24" y="-1343.55" font-family="Times New Roman,serif" font-size="14.00">Samples weight: 0.00</text>
</g>
<!-- BB0&#45;&gt;BB2 -->
<g id="edge1" class="edge">
<title>BB0&#45;&gt;BB2</title>
<path fill="none" stroke="black" d="M445.16,-1456.85C454.64,-1445.82 464.91,-1433.89 474.68,-1422.53"/>
<polygon fill="black" stroke="black" points="477.49,-1424.63 481.36,-1414.77 472.18,-1420.07 477.49,-1424.63"/>
</g>
<!-- BB3 -->
<g id="node4" class="node">
<title>BB3</title>
<ellipse fill="none" stroke="black" cx="407.24" cy="-1237.58" rx="108.38" ry="48.17"/>
<text text-anchor="middle" x="407.24" y="-1256.38" font-family="Times New Roman,serif" font-size="14.00">[2e..44)</text>
<text text-anchor="middle" x="407.24" y="-1241.38" font-family="Times New Roman,serif" font-size="14.00">Count: 17</text>
<text text-anchor="middle" x="407.24" y="-1226.38" font-family="Times New Roman,serif" font-size="14.00">Normalized count: 17.00</text>
<text text-anchor="middle" x="407.24" y="-1211.38" font-family="Times New Roman,serif" font-size="14.00">Samples weight: 0.04</text>
</g>
<!-- BB1&#45;&gt;BB3 -->
<g id="edge3" class="edge">
<title>BB1&#45;&gt;BB3</title>
<path fill="none" stroke="black" d="M333.16,-1324.68C342.54,-1313.77 352.68,-1301.99 362.36,-1290.73"/>
<polygon fill="black" stroke="black" points="365.11,-1292.91 368.98,-1283.05 359.8,-1288.35 365.11,-1292.91"/>
</g>
<!-- BB2&#45;&gt;BB3 -->
<g id="edge4" class="edge">
<title>BB2&#45;&gt;BB3</title>
<path fill="none" stroke="black" d="M481.32,-1324.68C471.94,-1313.77 461.79,-1301.99 452.11,-1290.73"/>
<polygon fill="black" stroke="black" points="454.67,-1288.35 445.5,-1283.05 449.37,-1292.91 454.67,-1288.35"/>
</g>
<!-- BB4 -->
<g id="node5" class="node">
<title>BB4</title>
<ellipse fill="none" stroke="black" cx="295.24" cy="-1105.42" rx="103.48" ry="48.17"/>
<text text-anchor="middle" x="295.24" y="-1124.22" font-family="Times New Roman,serif" font-size="14.00">[44..49)</text>
<text text-anchor="middle" x="295.24" y="-1109.22" font-family="Times New Roman,serif" font-size="14.00">Count: 2</text>
<text text-anchor="middle" x="295.24" y="-1094.22" font-family="Times New Roman,serif" font-size="14.00">Normalized count: 2.00</text>
<text text-anchor="middle" x="295.24" y="-1079.22" font-family="Times New Roman,serif" font-size="14.00">Samples weight: 0.00</text>
</g>
<!-- BB3&#45;&gt;BB4 -->
<g id="edge6" class="edge">
<title>BB3&#45;&gt;BB4</title>
<path fill="none" stroke="black" d="M369.32,-1192.51C359.83,-1181.49 349.57,-1169.56 339.79,-1158.2"/>
<polygon fill="black" stroke="black" points="342.29,-1155.74 333.12,-1150.44 336.99,-1160.3 342.29,-1155.74"/>
</g>
<!-- BB5 -->
<g id="node6" class="node">
<title>BB5</title>
<ellipse fill="none" stroke="black" cx="519.24" cy="-1105.42" rx="103.48" ry="48.17"/>
<text text-anchor="middle" x="519.24" y="-1124.22" font-family="Times New Roman,serif" font-size="14.00">[49..58)</text>
<text text-anchor="middle" x="519.24" y="-1109.22" font-family="Times New Roman,serif" font-size="14.00">Count: 1</text>
<text text-anchor="middle" x="519.24" y="-1094.22" font-family="Times New Roman,serif" font-size="14.00">Normalized count: 1.00</text>
<text text-anchor="middle" x="519.24" y="-1079.22" font-family="Times New Roman,serif" font-size="14.00">Samples weight: 0.00</text>
</g>
<!-- BB3&#45;&gt;BB5 -->
<g id="edge5" class="edge">
<title>BB3&#45;&gt;BB5</title>
<path fill="none" stroke="black" d="M445.16,-1192.51C454.64,-1181.49 464.91,-1169.56 474.68,-1158.2"/>
<polygon fill="black" stroke="black" points="477.49,-1160.3 481.36,-1150.44 472.18,-1155.74 477.49,-1160.3"/>
</g>
<!-- BB18 -->
<g id="node19" class="node">
<title>BB18</title>
<ellipse fill="none" stroke="black" cx="519.24" cy="-973.25" rx="108.38" ry="48.17"/>
<text text-anchor="middle" x="519.24" y="-992.05" font-family="Times New Roman,serif" font-size="14.00">[11f..128)</text>
<text text-anchor="middle" x="519.24" y="-977.05" font-family="Times New Roman,serif" font-size="14.00">Count: 16</text>
<text text-anchor="middle" x="519.24" y="-962.05" font-family="Times New Roman,serif" font-size="14.00">Normalized count: 16.00</text>
<text text-anchor="middle" x="519.24" y="-947.05" font-family="Times New Roman,serif" font-size="14.00">Samples weight: 0.04</text>
</g>
<!-- BB5&#45;&gt;BB18 -->
<g id="edge7" class="edge">
<title>BB5&#45;&gt;BB18</title>
<path fill="none" stroke="black" d="M519.24,-1057.05C519.24,-1048.79 519.24,-1040.1 519.24,-1031.6"/>
<polygon fill="black" stroke="black" points="522.74,-1031.36 519.24,-1021.36 515.74,-1031.36 522.74,-1031.36"/>
</g>
<!-- BB6 -->
<g id="node7" class="node">
<title>BB6</title>
<ellipse fill="none" stroke="black" cx="285.24" cy="-841.08" rx="108.38" ry="48.17"/>
<text text-anchor="middle" x="285.24" y="-859.88" font-family="Times New Roman,serif" font-size="14.00">[58..72)</text>
<text text-anchor="middle" x="285.24" y="-844.88" font-family="Times New Roman,serif" font-size="14.00">Count: 33</text>
<text text-anchor="middle" x="285.24" y="-829.88" font-family="Times New Roman,serif" font-size="14.00">Normalized count: 33.00</text>
<text text-anchor="middle" x="285.24" y="-814.88" font-family="Times New Roman,serif" font-size="14.00">Samples weight: 0.08</text>
</g>
<!-- BB7 -->
<g id="node8" class="node">
<title>BB7</title>
<ellipse fill="none" stroke="black" cx="285.24" cy="-708.92" rx="103.48" ry="48.17"/>
<text text-anchor="middle" x="285.24" y="-727.72" font-family="Times New Roman,serif" font-size="14.00">[72..7c)</text>
<text text-anchor="middle" x="285.24" y="-712.72" font-family="Times New Roman,serif" font-size="14.00">Count: 7</text>
<text text-anchor="middle" x="285.24" y="-697.72" font-family="Times New Roman,serif" font-size="14.00">Normalized count: 7.00</text>
<text text-anchor="middle" x="285.24" y="-682.72" font-family="Times New Roman,serif" font-size="14.00">Samples weight: 0.02</text>
</g>
<!-- BB6&#45;&gt;BB7 -->
<g id="edge9" class="edge">
<title>BB6&#45;&gt;BB7</title>
<path fill="none" stroke="black" d="M285.24,-792.72C285.24,-784.45 285.24,-775.77 285.24,-767.27"/>
<polygon fill="black" stroke="black" points="288.74,-767.02 285.24,-757.02 281.74,-767.02 288.74,-767.02"/>
</g>
<!-- BB20 -->
<g id="node21" class="node">
<title>BB20</title>
<ellipse fill="none" stroke="black" cx="514.24" cy="-708.92" rx="103.48" ry="48.17"/>
<text text-anchor="middle" x="514.24" y="-727.72" font-family="Times New Roman,serif" font-size="14.00">[12c..12d)</text>
<text text-anchor="middle" x="514.24" y="-712.72" font-family="Times New Roman,serif" font-size="14.00">Count: 0</text>
<text text-anchor="middle" x="514.24" y="-697.72" font-family="Times New Roman,serif" font-size="14.00">Normalized count: 0.00</text>
<text text-anchor="middle" x="514.24" y="-682.72" font-family="Times New Roman,serif" font-size="14.00">Samples weight: 0.00</text>
</g>
<!-- BB6&#45;&gt;BB20 -->
<g id="edge8" class="edge">
<title>BB6&#45;&gt;BB20</title>
<path fill="none" stroke="black" d="M350.86,-802.78C379.01,-786.78 412.01,-768.03 440.95,-751.57"/>
<polygon fill="black" stroke="black" points="442.83,-754.53 449.79,-746.55 439.37,-748.45 442.83,-754.53"/>
</g>
<!-- BB8 -->
<g id="node9" class="node">
<title>BB8</title>
<ellipse fill="none" stroke="black" cx="103.24" cy="-576.75" rx="103.48" ry="48.17"/>
<text text-anchor="middle" x="103.24" y="-595.55" font-family="Times New Roman,serif" font-size="14.00">[7c..89)</text>
<text text-anchor="middle" x="103.24" y="-580.55" font-family="Times New Roman,serif" font-size="14.00">Count: 1</text>
<text text-anchor="middle" x="103.24" y="-565.55" font-family="Times New Roman,serif" font-size="14.00">Normalized count: 1.00</text>
<text text-anchor="middle" x="103.24" y="-550.55" font-family="Times New Roman,serif" font-size="14.00">Samples weight: 0.00</text>
</g>
<!-- BB7&#45;&gt;BB8 -->
<g id="edge11" class="edge">
<title>BB7&#45;&gt;BB8</title>
<path fill="none" stroke="black" d="M229.64,-668.15C209.89,-654.03 187.5,-638.01 167.11,-623.43"/>
<polygon fill="black" stroke="black" points="168.98,-620.46 158.81,-617.49 164.9,-626.16 168.98,-620.46"/>
</g>
<!-- BB9 -->
<g id="node10" class="node">
<title>BB9</title>
<ellipse fill="none" stroke="black" cx="337.24" cy="-576.75" rx="113.27" ry="48.17"/>
<text text-anchor="middle" x="337.24" y="-595.55" font-family="Times New Roman,serif" font-size="14.00">[89..a5)</text>
<text text-anchor="middle" x="337.24" y="-580.55" font-family="Times New Roman,serif" font-size="14.00">Count: 132</text>
<text text-anchor="middle" x="337.24" y="-565.55" font-family="Times New Roman,serif" font-size="14.00">Normalized count: 132.00</text>
<text text-anchor="middle" x="337.24" y="-550.55" font-family="Times New Roman,serif" font-size="14.00">Samples weight: 0.31</text>
</g>
<!-- BB7&#45;&gt;BB9 -->
<g id="edge10" class="edge">
<title>BB7&#45;&gt;BB9</title>
<path fill="none" stroke="black" d="M303.86,-661.29C307.41,-652.41 311.16,-643.03 314.81,-633.89"/>
<polygon fill="black" stroke="black" points="318.11,-635.07 318.57,-624.49 311.61,-632.47 318.11,-635.07"/>
</g>
<!-- BB10 -->
<g id="node11" class="node">
<title>BB10</title>
<ellipse fill="none" stroke="black" cx="164.24" cy="-444.58" rx="103.48" ry="48.17"/>
<text text-anchor="middle" x="164.24" y="-463.38" font-family="Times New Roman,serif" font-size="14.00">[a5..b1)</text>
<text text-anchor="middle" x="164.24" y="-448.38" font-family="Times New Roman,serif" font-size="14.00">Count: 0</text>
<text text-anchor="middle" x="164.24" y="-433.38" font-family="Times New Roman,serif" font-size="14.00">Normalized count: 0.00</text>
<text text-anchor="middle" x="164.24" y="-418.38" font-family="Times New Roman,serif" font-size="14.00">Samples weight: 0.00</text>
</g>
<!-- BB9&#45;&gt;BB10 -->
<g id="edge13" class="edge">
<title>BB9&#45;&gt;BB10</title>
<path fill="none" stroke="black" d="M282.5,-534.56C264.56,-521.06 244.5,-505.97 226.07,-492.11"/>
<polygon fill="black" stroke="black" points="227.83,-489.05 217.73,-485.83 223.62,-494.64 227.83,-489.05"/>
</g>
<!-- BB11 -->
<g id="node12" class="node">
<title>BB11</title>
<ellipse fill="none" stroke="black" cx="388.24" cy="-444.58" rx="103.48" ry="48.17"/>
<text text-anchor="middle" x="388.24" y="-463.38" font-family="Times New Roman,serif" font-size="14.00">[b1..bb)</text>
<text text-anchor="middle" x="388.24" y="-448.38" font-family="Times New Roman,serif" font-size="14.00">Count: 1</text>
<text text-anchor="middle" x="388.24" y="-433.38" font-family="Times New Roman,serif" font-size="14.00">Normalized count: 1.00</text>
<text text-anchor="middle" x="388.24" y="-418.38" font-family="Times New Roman,serif" font-size="14.00">Samples weight: 0.00</text>
</g>
<!-- BB9&#45;&gt;BB11 -->
<g id="edge12" class="edge">
<title>BB9&#45;&gt;BB11</title>
<path fill="none" stroke="black" d="M355.51,-529.12C358.98,-520.24 362.66,-510.87 366.24,-501.73"/>
<polygon fill="black" stroke="black" points="369.54,-502.91 369.93,-492.32 363.02,-500.35 369.54,-502.91"/>
</g>
<!-- BB12 -->
<g id="node13" class="node">
<title>BB12</title>
<ellipse fill="none" stroke="black" cx="266.24" cy="-312.42" rx="113.27" ry="48.17"/>
<text text-anchor="middle" x="266.24" y="-331.22" font-family="Times New Roman,serif" font-size="14.00">[bb..d3)</text>
<text text-anchor="middle" x="266.24" y="-316.22" font-family="Times New Roman,serif" font-size="14.00">Count: 107</text>
<text text-anchor="middle" x="266.24" y="-301.22" font-family="Times New Roman,serif" font-size="14.00">Normalized count: 107.00</text>
<text text-anchor="middle" x="266.24" y="-286.22" font-family="Times New Roman,serif" font-size="14.00">Samples weight: 0.25</text>
</g>
<!-- BB10&#45;&gt;BB12 -->
<g id="edge14" class="edge">
<title>BB10&#45;&gt;BB12</title>
<path fill="none" stroke="black" d="M199.05,-399.15C207.24,-388.7 216.05,-377.47 224.5,-366.68"/>
<polygon fill="black" stroke="black" points="227.47,-368.56 230.88,-358.53 221.96,-364.25 227.47,-368.56"/>
</g>
<!-- BB11&#45;&gt;BB12 -->
<g id="edge15" class="edge">
<title>BB11&#45;&gt;BB12</title>
<path fill="none" stroke="black" d="M347.61,-400.24C337.04,-388.96 325.54,-376.69 314.6,-365.02"/>
<polygon fill="black" stroke="black" points="316.91,-362.36 307.52,-357.46 311.8,-367.15 316.91,-362.36"/>
</g>
<!-- BB13 -->
<g id="node14" class="node">
<title>BB13</title>
<ellipse fill="none" stroke="black" cx="449.24" cy="-180.25" rx="103.48" ry="48.17"/>
<text text-anchor="middle" x="449.24" y="-199.05" font-family="Times New Roman,serif" font-size="14.00">[d3..e9)</text>
<text text-anchor="middle" x="449.24" y="-184.05" font-family="Times New Roman,serif" font-size="14.00">Count: 7</text>
<text text-anchor="middle" x="449.24" y="-169.05" font-family="Times New Roman,serif" font-size="14.00">Normalized count: 7.00</text>
<text text-anchor="middle" x="449.24" y="-154.05" font-family="Times New Roman,serif" font-size="14.00">Samples weight: 0.02</text>
</g>
<!-- BB12&#45;&gt;BB13 -->
<g id="edge17" class="edge">
<title>BB12&#45;&gt;BB13</title>
<path fill="none" stroke="black" d="M323.39,-270.77C343.02,-256.8 365.12,-241.08 385.26,-226.76"/>
<polygon fill="black" stroke="black" points="387.34,-229.57 393.46,-220.92 383.28,-223.87 387.34,-229.57"/>
</g>
<!-- BB15 -->
<g id="node16" class="node">
<title>BB15</title>
<ellipse fill="none" stroke="black" cx="220.24" cy="-180.25" rx="108.38" ry="48.17"/>
<text text-anchor="middle" x="220.24" y="-199.05" font-family="Times New Roman,serif" font-size="14.00">[f7..10d)</text>
<text text-anchor="middle" x="220.24" y="-184.05" font-family="Times New Roman,serif" font-size="14.00">Count: 48</text>
<text text-anchor="middle" x="220.24" y="-169.05" font-family="Times New Roman,serif" font-size="14.00">Normalized count: 48.00</text>
<text text-anchor="middle" x="220.24" y="-154.05" font-family="Times New Roman,serif" font-size="14.00">Samples weight: 0.11</text>
</g>
<!-- BB12&#45;&gt;BB15 -->
<g id="edge16" class="edge">
<title>BB12&#45;&gt;BB15</title>
<path fill="none" stroke="black" d="M249.76,-264.79C246.66,-256.01 243.38,-246.73 240.18,-237.68"/>
<polygon fill="black" stroke="black" points="243.39,-236.25 236.75,-227.99 236.79,-238.58 243.39,-236.25"/>
</g>
<!-- BB14 -->
<g id="node15" class="node">
<title>BB14</title>
<ellipse fill="none" stroke="black" cx="426.24" cy="-48.08" rx="108.38" ry="48.17"/>
<text text-anchor="middle" x="426.24" y="-66.88" font-family="Times New Roman,serif" font-size="14.00">[e9..f7)</text>
<text text-anchor="middle" x="426.24" y="-51.88" font-family="Times New Roman,serif" font-size="14.00">Count: 17</text>
<text text-anchor="middle" x="426.24" y="-36.88" font-family="Times New Roman,serif" font-size="14.00">Normalized count: 17.00</text>
<text text-anchor="middle" x="426.24" y="-21.88" font-family="Times New Roman,serif" font-size="14.00">Samples weight: 0.04</text>
</g>
<!-- BB13&#45;&gt;BB14 -->
<g id="edge19" class="edge">
<title>BB13&#45;&gt;BB14</title>
<path fill="none" stroke="black" d="M440.93,-132.26C439.45,-123.88 437.9,-115.07 436.37,-106.45"/>
<polygon fill="black" stroke="black" points="439.79,-105.68 434.61,-96.44 432.9,-106.9 439.79,-105.68"/>
</g>
<!-- BB17 -->
<g id="node18" class="node">
<title>BB17</title>
<ellipse fill="none" stroke="black" cx="655.24" cy="-48.08" rx="103.48" ry="48.17"/>
<text text-anchor="middle" x="655.24" y="-66.88" font-family="Times New Roman,serif" font-size="14.00">[119..11f)</text>
<text text-anchor="middle" x="655.24" y="-51.88" font-family="Times New Roman,serif" font-size="14.00">Count: 2</text>
<text text-anchor="middle" x="655.24" y="-36.88" font-family="Times New Roman,serif" font-size="14.00">Normalized count: 2.00</text>
<text text-anchor="middle" x="655.24" y="-21.88" font-family="Times New Roman,serif" font-size="14.00">Samples weight: 0.00</text>
</g>
<!-- BB13&#45;&gt;BB17 -->
<g id="edge18" class="edge">
<title>BB13&#45;&gt;BB17</title>
<path fill="none" stroke="black" d="M509.65,-141.08C533.65,-125.91 561.4,-108.38 586.19,-92.71"/>
<polygon fill="black" stroke="black" points="588.24,-95.56 594.82,-87.26 584.5,-89.64 588.24,-95.56"/>
</g>
<!-- BB14&#45;&gt;BB17 -->
<g id="edge20" class="edge">
<title>BB14&#45;&gt;BB17</title>
<path fill="none" stroke="black" d="M534.48,-48.08C536.93,-48.08 539.38,-48.08 541.84,-48.08"/>
<polygon fill="black" stroke="black" points="541.93,-51.58 551.93,-48.08 541.93,-44.58 541.93,-51.58"/>
</g>
<!-- BB16 -->
<g id="node17" class="node">
<title>BB16</title>
<ellipse fill="none" stroke="black" cx="197.24" cy="-48.08" rx="103.48" ry="48.17"/>
<text text-anchor="middle" x="197.24" y="-66.88" font-family="Times New Roman,serif" font-size="14.00">[10d..119)</text>
<text text-anchor="middle" x="197.24" y="-51.88" font-family="Times New Roman,serif" font-size="14.00">Count: 1</text>
<text text-anchor="middle" x="197.24" y="-36.88" font-family="Times New Roman,serif" font-size="14.00">Normalized count: 1.00</text>
<text text-anchor="middle" x="197.24" y="-21.88" font-family="Times New Roman,serif" font-size="14.00">Samples weight: 0.00</text>
</g>
<!-- BB15&#45;&gt;BB16 -->
<g id="edge22" class="edge">
<title>BB15&#45;&gt;BB16</title>
<path fill="none" stroke="black" d="M211.93,-132.26C210.45,-123.88 208.9,-115.07 207.37,-106.45"/>
<polygon fill="black" stroke="black" points="210.79,-105.68 205.61,-96.44 203.9,-106.9 210.79,-105.68"/>
</g>
<!-- BB15&#45;&gt;BB17 -->
<g id="edge21" class="edge">
<title>BB15&#45;&gt;BB17</title>
<path fill="none" stroke="black" d="M296.22,-146.01C309.71,-140.87 323.76,-136.01 337.24,-132.17 426.62,-106.68 454.06,-122.34 543.24,-96.17 553.05,-93.29 563.17,-89.81 573.12,-86.06"/>
<polygon fill="black" stroke="black" points="574.53,-89.27 582.6,-82.39 572.01,-82.74 574.53,-89.27"/>
</g>
<!-- BB16&#45;&gt;BB17 -->
<g id="edge23" class="edge">
<title>BB16&#45;&gt;BB17</title>
<path fill="none" stroke="black" d="M256.01,-87.82C275.04,-98.54 296.79,-108.69 318.24,-114.17 411.25,-137.91 441.22,-137.91 534.24,-114.17 552.34,-109.55 570.65,-101.6 587.36,-92.79"/>
<polygon fill="black" stroke="black" points="589.36,-95.68 596.47,-87.82 586.01,-89.54 589.36,-95.68"/>
</g>
<!-- BB17&#45;&gt;BB18 -->
<g id="edge24" class="edge">
<title>BB17&#45;&gt;BB18</title>
<path fill="none" stroke="black" d="M655.24,-96.47C655.24,-149.01 655.24,-236.27 655.24,-311.42 655.24,-709.92 655.24,-709.92 655.24,-709.92 655.24,-790.03 676.7,-820.02 636.24,-889.17 626.84,-905.22 612.97,-918.98 598.04,-930.41"/>
<polygon fill="black" stroke="black" points="595.67,-927.81 589.66,-936.53 599.8,-933.46 595.67,-927.81"/>
</g>
<!-- BB18&#45;&gt;BB6 -->
<g id="edge25" class="edge">
<title>BB18&#45;&gt;BB6</title>
<path fill="none" stroke="black" d="M452.81,-935.3C424.15,-919.36 390.49,-900.63 360.88,-884.16"/>
<polygon fill="black" stroke="black" points="362.27,-880.93 351.83,-879.13 358.87,-887.05 362.27,-880.93"/>
</g>
<!-- BB19 -->
<g id="node20" class="node">
<title>BB19</title>
<ellipse fill="none" stroke="black" cx="519.24" cy="-841.08" rx="108.38" ry="48.17"/>
<text text-anchor="middle" x="519.24" y="-859.88" font-family="Times New Roman,serif" font-size="14.00">[128..12c)</text>
<text text-anchor="middle" x="519.24" y="-844.88" font-family="Times New Roman,serif" font-size="14.00">Count: 29</text>
<text text-anchor="middle" x="519.24" y="-829.88" font-family="Times New Roman,serif" font-size="14.00">Normalized count: 29.00</text>
<text text-anchor="middle" x="519.24" y="-814.88" font-family="Times New Roman,serif" font-size="14.00">Samples weight: 0.07</text>
</g>
<!-- BB18&#45;&gt;BB19 -->
<g id="edge26" class="edge">
<title>BB18&#45;&gt;BB19</title>
<path fill="none" stroke="black" d="M519.24,-924.89C519.24,-916.62 519.24,-907.94 519.24,-899.43"/>
<polygon fill="black" stroke="black" points="522.74,-899.19 519.24,-889.19 515.74,-899.19 522.74,-899.19"/>
</g>
<!-- BB19&#45;&gt;BB20 -->
<g id="edge27" class="edge">
<title>BB19&#45;&gt;BB20</title>
<path fill="none" stroke="black" d="M517.42,-792.72C517.1,-784.45 516.77,-775.77 516.44,-767.27"/>
<polygon fill="black" stroke="black" points="519.93,-766.88 516.05,-757.02 512.93,-767.15 519.93,-766.88"/>
</g>
</g>
</svg>
