<?xml version="1.0" encoding="UTF-8" standalone="no"?>
<!DOCTYPE svg PUBLIC "-//W3C//DTD SVG 1.1//EN"
 "http://www.w3.org/Graphics/SVG/1.1/DTD/svg11.dtd">
<!-- Generated by graphviz version 2.47.0 (20210316.0004)
 -->
<!-- Title: G Pages: 1 -->
<svg width="1500pt" height="1426pt"
 viewBox="0.00 0.00 1499.65 1425.83" xmlns="http://www.w3.org/2000/svg" xmlns:xlink="http://www.w3.org/1999/xlink">
<g id="graph0" class="graph" transform="scale(1 1) rotate(0) translate(4 1421.83)">
<title>G</title>
<polygon fill="white" stroke="transparent" points="-4,4 -4,-1421.83 1495.65,-1421.83 1495.65,4 -4,4"/>
<!-- BB0 -->
<g id="node1" class="node">
<title>BB0</title>
<ellipse fill="none" stroke="black" cx="137" cy="-1369.75" rx="104.8" ry="48.17"/>
<text text-anchor="middle" x="137" y="-1388.55" font-family="Times New Roman,serif" font-size="14.00">[0..18)</text>
<text text-anchor="middle" x="137" y="-1373.55" font-family="Times New Roman,serif" font-size="14.00">Count: 0</text>
<text text-anchor="middle" x="137" y="-1358.55" font-family="Times New Roman,serif" font-size="14.00">Normalized count: NaN</text>
<text text-anchor="middle" x="137" y="-1343.55" font-family="Times New Roman,serif" font-size="14.00">Samples weight: 0.00</text>
</g>
<!-- BB2 -->
<g id="node3" class="node">
<title>BB2</title>
<ellipse fill="none" stroke="black" cx="137" cy="-1237.58" rx="104.8" ry="48.17"/>
<text text-anchor="middle" x="137" y="-1256.38" font-family="Times New Roman,serif" font-size="14.00">[2b..39)</text>
<text text-anchor="middle" x="137" y="-1241.38" font-family="Times New Roman,serif" font-size="14.00">Count: 0</text>
<text text-anchor="middle" x="137" y="-1226.38" font-family="Times New Roman,serif" font-size="14.00">Normalized count: NaN</text>
<text text-anchor="middle" x="137" y="-1211.38" font-family="Times New Roman,serif" font-size="14.00">Samples weight: 0.00</text>
</g>
<!-- BB0&#45;&gt;BB2 -->
<g id="edge1" class="edge">
<title>BB0&#45;&gt;BB2</title>
<path fill="none" stroke="black" d="M137,-1321.39C137,-1313.12 137,-1304.44 137,-1295.93"/>
<polygon fill="black" stroke="black" points="140.5,-1295.69 137,-1285.69 133.5,-1295.69 140.5,-1295.69"/>
</g>
<!-- BB1 -->
<g id="node2" class="node">
<title>BB1</title>
<ellipse fill="none" stroke="black" cx="137" cy="-1105.42" rx="104.8" ry="48.17"/>
<text text-anchor="middle" x="137" y="-1124.22" font-family="Times New Roman,serif" font-size="14.00">[18..2b)</text>
<text text-anchor="middle" x="137" y="-1109.22" font-family="Times New Roman,serif" font-size="14.00">Count: 0</text>
<text text-anchor="middle" x="137" y="-1094.22" font-family="Times New Roman,serif" font-size="14.00">Normalized count: NaN</text>
<text text-anchor="middle" x="137" y="-1079.22" font-family="Times New Roman,serif" font-size="14.00">Samples weight: 0.00</text>
</g>
<!-- BB1&#45;&gt;BB2 -->
<g id="edge2" class="edge">
<title>BB1&#45;&gt;BB2</title>
<path fill="none" stroke="black" d="M143.52,-1153.78C143.74,-1162.07 143.8,-1170.78 143.71,-1179.31"/>
<polygon fill="black" stroke="black" points="140.2,-1179.52 143.51,-1189.59 147.2,-1179.66 140.2,-1179.52"/>
</g>
<!-- BB2&#45;&gt;BB1 -->
<g id="edge3" class="edge">
<title>BB2&#45;&gt;BB1</title>
<path fill="none" stroke="black" d="M130.49,-1189.59C130.26,-1181.21 130.2,-1172.41 130.29,-1163.78"/>
<polygon fill="black" stroke="black" points="133.79,-1163.84 130.48,-1153.78 126.79,-1163.71 133.79,-1163.84"/>
</g>
<!-- BB3 -->
<g id="node4" class="node">
<title>BB3</title>
<ellipse fill="none" stroke="black" cx="364" cy="-1105.42" rx="104.8" ry="48.17"/>
<text text-anchor="middle" x="364" y="-1124.22" font-family="Times New Roman,serif" font-size="14.00">[39..56)</text>
<text text-anchor="middle" x="364" y="-1109.22" font-family="Times New Roman,serif" font-size="14.00">Count: 0</text>
<text text-anchor="middle" x="364" y="-1094.22" font-family="Times New Roman,serif" font-size="14.00">Normalized count: NaN</text>
<text text-anchor="middle" x="364" y="-1079.22" font-family="Times New Roman,serif" font-size="14.00">Samples weight: 0.00</text>
</g>
<!-- BB2&#45;&gt;BB3 -->
<g id="edge4" class="edge">
<title>BB2&#45;&gt;BB3</title>
<path fill="none" stroke="black" d="M201.44,-1199.63C229.24,-1183.69 261.9,-1164.96 290.62,-1148.49"/>
<polygon fill="black" stroke="black" points="292.46,-1151.47 299.4,-1143.46 288.98,-1145.4 292.46,-1151.47"/>
</g>
<!-- BB4 -->
<g id="node5" class="node">
<title>BB4</title>
<ellipse fill="none" stroke="black" cx="251" cy="-973.25" rx="104.8" ry="48.17"/>
<text text-anchor="middle" x="251" y="-992.05" font-family="Times New Roman,serif" font-size="14.00">[56..6c)</text>
<text text-anchor="middle" x="251" y="-977.05" font-family="Times New Roman,serif" font-size="14.00">Count: 0</text>
<text text-anchor="middle" x="251" y="-962.05" font-family="Times New Roman,serif" font-size="14.00">Normalized count: NaN</text>
<text text-anchor="middle" x="251" y="-947.05" font-family="Times New Roman,serif" font-size="14.00">Samples weight: 0.00</text>
</g>
<!-- BB3&#45;&gt;BB4 -->
<g id="edge6" class="edge">
<title>BB3&#45;&gt;BB4</title>
<path fill="none" stroke="black" d="M325.74,-1060.35C316.17,-1049.32 305.82,-1037.39 295.95,-1026.03"/>
<polygon fill="black" stroke="black" points="298.42,-1023.53 289.22,-1018.27 293.13,-1028.12 298.42,-1023.53"/>
</g>
<!-- BB5 -->
<g id="node6" class="node">
<title>BB5</title>
<ellipse fill="none" stroke="black" cx="478" cy="-973.25" rx="104.8" ry="48.17"/>
<text text-anchor="middle" x="478" y="-992.05" font-family="Times New Roman,serif" font-size="14.00">[6c..7a)</text>
<text text-anchor="middle" x="478" y="-977.05" font-family="Times New Roman,serif" font-size="14.00">Count: 0</text>
<text text-anchor="middle" x="478" y="-962.05" font-family="Times New Roman,serif" font-size="14.00">Normalized count: NaN</text>
<text text-anchor="middle" x="478" y="-947.05" font-family="Times New Roman,serif" font-size="14.00">Samples weight: 0.00</text>
</g>
<!-- BB3&#45;&gt;BB5 -->
<g id="edge5" class="edge">
<title>BB3&#45;&gt;BB5</title>
<path fill="none" stroke="black" d="M402.6,-1060.35C412.25,-1049.32 422.7,-1037.39 432.65,-1026.03"/>
<polygon fill="black" stroke="black" points="435.49,-1028.1 439.44,-1018.27 430.22,-1023.49 435.49,-1028.1"/>
</g>
<!-- BB4&#45;&gt;BB5 -->
<g id="edge7" class="edge">
<title>BB4&#45;&gt;BB5</title>
<path fill="none" stroke="black" d="M356.08,-973.25C358.4,-973.25 360.72,-973.25 363.04,-973.25"/>
<polygon fill="black" stroke="black" points="363.22,-976.75 373.22,-973.25 363.22,-969.75 363.22,-976.75"/>
</g>
<!-- BB6 -->
<g id="node7" class="node">
<title>BB6</title>
<ellipse fill="none" stroke="black" cx="478" cy="-841.08" rx="113.69" ry="48.17"/>
<text text-anchor="middle" x="478" y="-859.88" font-family="Times New Roman,serif" font-size="14.00">[7a..85)</text>
<text text-anchor="middle" x="478" y="-844.88" font-family="Times New Roman,serif" font-size="14.00">Count: 5</text>
<text text-anchor="middle" x="478" y="-829.88" font-family="Times New Roman,serif" font-size="14.00">Normalized count: Infinity</text>
<text text-anchor="middle" x="478" y="-814.88" font-family="Times New Roman,serif" font-size="14.00">Samples weight: 0.10</text>
</g>
<!-- BB5&#45;&gt;BB6 -->
<g id="edge8" class="edge">
<title>BB5&#45;&gt;BB6</title>
<path fill="none" stroke="black" d="M478,-924.89C478,-916.62 478,-907.94 478,-899.43"/>
<polygon fill="black" stroke="black" points="481.5,-899.19 478,-889.19 474.5,-899.19 481.5,-899.19"/>
</g>
<!-- BB7 -->
<g id="node8" class="node">
<title>BB7</title>
<ellipse fill="none" stroke="black" cx="360" cy="-708.92" rx="104.8" ry="48.17"/>
<text text-anchor="middle" x="360" y="-727.72" font-family="Times New Roman,serif" font-size="14.00">[85..8f)</text>
<text text-anchor="middle" x="360" y="-712.72" font-family="Times New Roman,serif" font-size="14.00">Count: 0</text>
<text text-anchor="middle" x="360" y="-697.72" font-family="Times New Roman,serif" font-size="14.00">Normalized count: NaN</text>
<text text-anchor="middle" x="360" y="-682.72" font-family="Times New Roman,serif" font-size="14.00">Samples weight: 0.00</text>
</g>
<!-- BB6&#45;&gt;BB7 -->
<g id="edge10" class="edge">
<title>BB6&#45;&gt;BB7</title>
<path fill="none" stroke="black" d="M438.05,-796.01C427.85,-784.76 416.8,-772.57 406.31,-761"/>
<polygon fill="black" stroke="black" points="408.82,-758.56 399.51,-753.5 403.63,-763.26 408.82,-758.56"/>
</g>
<!-- BB12 -->
<g id="node13" class="node">
<title>BB12</title>
<ellipse fill="none" stroke="black" cx="611" cy="-708.92" rx="113.69" ry="48.17"/>
<text text-anchor="middle" x="611" y="-727.72" font-family="Times New Roman,serif" font-size="14.00">[b3..c0)</text>
<text text-anchor="middle" x="611" y="-712.72" font-family="Times New Roman,serif" font-size="14.00">Count: 10</text>
<text text-anchor="middle" x="611" y="-697.72" font-family="Times New Roman,serif" font-size="14.00">Normalized count: Infinity</text>
<text text-anchor="middle" x="611" y="-682.72" font-family="Times New Roman,serif" font-size="14.00">Samples weight: 0.20</text>
</g>
<!-- BB6&#45;&gt;BB12 -->
<g id="edge9" class="edge">
<title>BB6&#45;&gt;BB12</title>
<path fill="none" stroke="black" d="M522.29,-796.74C534.05,-785.22 546.86,-772.69 559,-760.81"/>
<polygon fill="black" stroke="black" points="561.75,-763.01 566.45,-753.51 556.86,-758.01 561.75,-763.01"/>
</g>
<!-- BB8 -->
<g id="node9" class="node">
<title>BB8</title>
<ellipse fill="none" stroke="black" cx="133" cy="-576.75" rx="104.8" ry="48.17"/>
<text text-anchor="middle" x="133" y="-595.55" font-family="Times New Roman,serif" font-size="14.00">[8f..a2)</text>
<text text-anchor="middle" x="133" y="-580.55" font-family="Times New Roman,serif" font-size="14.00">Count: 0</text>
<text text-anchor="middle" x="133" y="-565.55" font-family="Times New Roman,serif" font-size="14.00">Normalized count: NaN</text>
<text text-anchor="middle" x="133" y="-550.55" font-family="Times New Roman,serif" font-size="14.00">Samples weight: 0.00</text>
</g>
<!-- BB7&#45;&gt;BB8 -->
<g id="edge12" class="edge">
<title>BB7&#45;&gt;BB8</title>
<path fill="none" stroke="black" d="M295.56,-670.96C267.76,-655.02 235.1,-636.3 206.38,-619.83"/>
<polygon fill="black" stroke="black" points="208.02,-616.73 197.6,-614.79 204.54,-622.8 208.02,-616.73"/>
</g>
<!-- BB9 -->
<g id="node10" class="node">
<title>BB9</title>
<ellipse fill="none" stroke="black" cx="360" cy="-576.75" rx="104.8" ry="48.17"/>
<text text-anchor="middle" x="360" y="-595.55" font-family="Times New Roman,serif" font-size="14.00">[a2..a7)</text>
<text text-anchor="middle" x="360" y="-580.55" font-family="Times New Roman,serif" font-size="14.00">Count: 0</text>
<text text-anchor="middle" x="360" y="-565.55" font-family="Times New Roman,serif" font-size="14.00">Normalized count: NaN</text>
<text text-anchor="middle" x="360" y="-550.55" font-family="Times New Roman,serif" font-size="14.00">Samples weight: 0.00</text>
</g>
<!-- BB7&#45;&gt;BB9 -->
<g id="edge11" class="edge">
<title>BB7&#45;&gt;BB9</title>
<path fill="none" stroke="black" d="M360,-660.55C360,-652.29 360,-643.6 360,-635.1"/>
<polygon fill="black" stroke="black" points="363.5,-634.86 360,-624.86 356.5,-634.86 363.5,-634.86"/>
</g>
<!-- BB8&#45;&gt;BB9 -->
<g id="edge13" class="edge">
<title>BB8&#45;&gt;BB9</title>
<path fill="none" stroke="black" d="M238.08,-576.75C240.4,-576.75 242.72,-576.75 245.04,-576.75"/>
<polygon fill="black" stroke="black" points="245.22,-580.25 255.22,-576.75 245.22,-573.25 245.22,-580.25"/>
</g>
<!-- BB10 -->
<g id="node11" class="node">
<title>BB10</title>
<ellipse fill="none" stroke="black" cx="133" cy="-444.58" rx="104.8" ry="48.17"/>
<text text-anchor="middle" x="133" y="-463.38" font-family="Times New Roman,serif" font-size="14.00">[a7..ae)</text>
<text text-anchor="middle" x="133" y="-448.38" font-family="Times New Roman,serif" font-size="14.00">Count: 0</text>
<text text-anchor="middle" x="133" y="-433.38" font-family="Times New Roman,serif" font-size="14.00">Normalized count: NaN</text>
<text text-anchor="middle" x="133" y="-418.38" font-family="Times New Roman,serif" font-size="14.00">Samples weight: 0.00</text>
</g>
<!-- BB9&#45;&gt;BB10 -->
<g id="edge15" class="edge">
<title>BB9&#45;&gt;BB10</title>
<path fill="none" stroke="black" d="M295.56,-538.8C267.76,-522.86 235.1,-504.13 206.38,-487.66"/>
<polygon fill="black" stroke="black" points="208.02,-484.57 197.6,-482.63 204.54,-490.64 208.02,-484.57"/>
</g>
<!-- BB11 -->
<g id="node12" class="node">
<title>BB11</title>
<ellipse fill="none" stroke="black" cx="360" cy="-444.58" rx="104.8" ry="48.17"/>
<text text-anchor="middle" x="360" y="-463.38" font-family="Times New Roman,serif" font-size="14.00">[ae..b3)</text>
<text text-anchor="middle" x="360" y="-448.38" font-family="Times New Roman,serif" font-size="14.00">Count: 0</text>
<text text-anchor="middle" x="360" y="-433.38" font-family="Times New Roman,serif" font-size="14.00">Normalized count: NaN</text>
<text text-anchor="middle" x="360" y="-418.38" font-family="Times New Roman,serif" font-size="14.00">Samples weight: 0.00</text>
</g>
<!-- BB9&#45;&gt;BB11 -->
<g id="edge14" class="edge">
<title>BB9&#45;&gt;BB11</title>
<path fill="none" stroke="black" d="M360,-528.39C360,-520.12 360,-511.44 360,-502.93"/>
<polygon fill="black" stroke="black" points="363.5,-502.69 360,-492.69 356.5,-502.69 363.5,-502.69"/>
</g>
<!-- BB10&#45;&gt;BB11 -->
<g id="edge17" class="edge">
<title>BB10&#45;&gt;BB11</title>
<path fill="none" stroke="black" d="M238.08,-444.58C240.4,-444.58 242.72,-444.58 245.04,-444.58"/>
<polygon fill="black" stroke="black" points="245.22,-448.08 255.22,-444.58 245.22,-441.08 245.22,-448.08"/>
</g>
<!-- BB25 -->
<g id="node26" class="node">
<title>BB25</title>
<ellipse fill="none" stroke="black" cx="312" cy="-312.42" rx="104.8" ry="48.17"/>
<text text-anchor="middle" x="312" y="-331.22" font-family="Times New Roman,serif" font-size="14.00">[160..165)</text>
<text text-anchor="middle" x="312" y="-316.22" font-family="Times New Roman,serif" font-size="14.00">Count: 0</text>
<text text-anchor="middle" x="312" y="-301.22" font-family="Times New Roman,serif" font-size="14.00">Normalized count: NaN</text>
<text text-anchor="middle" x="312" y="-286.22" font-family="Times New Roman,serif" font-size="14.00">Samples weight: 0.00</text>
</g>
<!-- BB10&#45;&gt;BB25 -->
<g id="edge16" class="edge">
<title>BB10&#45;&gt;BB25</title>
<path fill="none" stroke="black" d="M188.17,-403.47C207.31,-389.54 228.93,-373.83 248.68,-359.46"/>
<polygon fill="black" stroke="black" points="250.99,-362.11 257.02,-353.4 246.87,-356.45 250.99,-362.11"/>
</g>
<!-- BB11&#45;&gt;BB12 -->
<g id="edge18" class="edge">
<title>BB11&#45;&gt;BB12</title>
<path fill="none" stroke="black" d="M424.03,-482.67C442.01,-495.45 460.36,-511.04 474,-528.67 502.13,-565.01 485.13,-587.55 512,-624.83 521.34,-637.8 533.15,-649.98 545.33,-660.81"/>
<polygon fill="black" stroke="black" points="543.08,-663.49 552.94,-667.37 547.65,-658.19 543.08,-663.49"/>
</g>
<!-- BB13 -->
<g id="node14" class="node">
<title>BB13</title>
<ellipse fill="none" stroke="black" cx="626" cy="-576.75" rx="104.8" ry="48.17"/>
<text text-anchor="middle" x="626" y="-595.55" font-family="Times New Roman,serif" font-size="14.00">[c0..ca)</text>
<text text-anchor="middle" x="626" y="-580.55" font-family="Times New Roman,serif" font-size="14.00">Count: 0</text>
<text text-anchor="middle" x="626" y="-565.55" font-family="Times New Roman,serif" font-size="14.00">Normalized count: NaN</text>
<text text-anchor="middle" x="626" y="-550.55" font-family="Times New Roman,serif" font-size="14.00">Samples weight: 0.00</text>
</g>
<!-- BB12&#45;&gt;BB13 -->
<g id="edge20" class="edge">
<title>BB12&#45;&gt;BB13</title>
<path fill="none" stroke="black" d="M616.46,-660.55C617.42,-652.2 618.43,-643.41 619.42,-634.82"/>
<polygon fill="black" stroke="black" points="622.9,-635.19 620.57,-624.86 615.95,-634.39 622.9,-635.19"/>
</g>
<!-- BB18 -->
<g id="node19" class="node">
<title>BB18</title>
<ellipse fill="none" stroke="black" cx="1013" cy="-576.75" rx="113.69" ry="48.17"/>
<text text-anchor="middle" x="1013" y="-595.55" font-family="Times New Roman,serif" font-size="14.00">[f4..116)</text>
<text text-anchor="middle" x="1013" y="-580.55" font-family="Times New Roman,serif" font-size="14.00">Count: 23</text>
<text text-anchor="middle" x="1013" y="-565.55" font-family="Times New Roman,serif" font-size="14.00">Normalized count: Infinity</text>
<text text-anchor="middle" x="1013" y="-550.55" font-family="Times New Roman,serif" font-size="14.00">Samples weight: 0.46</text>
</g>
<!-- BB12&#45;&gt;BB18 -->
<g id="edge19" class="edge">
<title>BB12&#45;&gt;BB18</title>
<path fill="none" stroke="black" d="M700.22,-679.03C763.47,-658.55 848.38,-631.05 913.78,-609.88"/>
<polygon fill="black" stroke="black" points="915.25,-613.08 923.69,-606.67 913.09,-606.42 915.25,-613.08"/>
</g>
<!-- BB14 -->
<g id="node15" class="node">
<title>BB14</title>
<ellipse fill="none" stroke="black" cx="587" cy="-444.58" rx="104.8" ry="48.17"/>
<text text-anchor="middle" x="587" y="-463.38" font-family="Times New Roman,serif" font-size="14.00">[ca..e4)</text>
<text text-anchor="middle" x="587" y="-448.38" font-family="Times New Roman,serif" font-size="14.00">Count: 0</text>
<text text-anchor="middle" x="587" y="-433.38" font-family="Times New Roman,serif" font-size="14.00">Normalized count: NaN</text>
<text text-anchor="middle" x="587" y="-418.38" font-family="Times New Roman,serif" font-size="14.00">Samples weight: 0.00</text>
</g>
<!-- BB13&#45;&gt;BB14 -->
<g id="edge22" class="edge">
<title>BB13&#45;&gt;BB14</title>
<path fill="none" stroke="black" d="M611.92,-528.76C609.35,-520.18 606.65,-511.16 604.01,-502.34"/>
<polygon fill="black" stroke="black" points="607.28,-501.08 601.06,-492.51 600.58,-503.09 607.28,-501.08"/>
</g>
<!-- BB15 -->
<g id="node16" class="node">
<title>BB15</title>
<ellipse fill="none" stroke="black" cx="814" cy="-444.58" rx="104.8" ry="48.17"/>
<text text-anchor="middle" x="814" y="-463.38" font-family="Times New Roman,serif" font-size="14.00">[e4..e9)</text>
<text text-anchor="middle" x="814" y="-448.38" font-family="Times New Roman,serif" font-size="14.00">Count: 0</text>
<text text-anchor="middle" x="814" y="-433.38" font-family="Times New Roman,serif" font-size="14.00">Normalized count: NaN</text>
<text text-anchor="middle" x="814" y="-418.38" font-family="Times New Roman,serif" font-size="14.00">Samples weight: 0.00</text>
</g>
<!-- BB13&#45;&gt;BB15 -->
<g id="edge21" class="edge">
<title>BB13&#45;&gt;BB15</title>
<path fill="none" stroke="black" d="M682.92,-536.34C703.62,-522.01 727.18,-505.69 748.56,-490.89"/>
<polygon fill="black" stroke="black" points="750.72,-493.65 756.95,-485.08 746.74,-487.9 750.72,-493.65"/>
</g>
<!-- BB14&#45;&gt;BB15 -->
<g id="edge23" class="edge">
<title>BB14&#45;&gt;BB15</title>
<path fill="none" stroke="black" d="M692.08,-444.58C694.4,-444.58 696.72,-444.58 699.04,-444.58"/>
<polygon fill="black" stroke="black" points="699.22,-448.08 709.22,-444.58 699.22,-441.08 699.22,-448.08"/>
</g>
<!-- BB16 -->
<g id="node17" class="node">
<title>BB16</title>
<ellipse fill="none" stroke="black" cx="646" cy="-312.42" rx="104.8" ry="48.17"/>
<text text-anchor="middle" x="646" y="-331.22" font-family="Times New Roman,serif" font-size="14.00">[e9..ed)</text>
<text text-anchor="middle" x="646" y="-316.22" font-family="Times New Roman,serif" font-size="14.00">Count: 0</text>
<text text-anchor="middle" x="646" y="-301.22" font-family="Times New Roman,serif" font-size="14.00">Normalized count: NaN</text>
<text text-anchor="middle" x="646" y="-286.22" font-family="Times New Roman,serif" font-size="14.00">Samples weight: 0.00</text>
</g>
<!-- BB15&#45;&gt;BB16 -->
<g id="edge25" class="edge">
<title>BB15&#45;&gt;BB16</title>
<path fill="none" stroke="black" d="M761.3,-402.75C743.95,-389.31 724.51,-374.25 706.61,-360.38"/>
<polygon fill="black" stroke="black" points="708.56,-357.46 698.51,-354.1 704.27,-362.99 708.56,-357.46"/>
</g>
<!-- BB17 -->
<g id="node18" class="node">
<title>BB17</title>
<ellipse fill="none" stroke="black" cx="873" cy="-312.42" rx="104.8" ry="48.17"/>
<text text-anchor="middle" x="873" y="-331.22" font-family="Times New Roman,serif" font-size="14.00">[ed..f4)</text>
<text text-anchor="middle" x="873" y="-316.22" font-family="Times New Roman,serif" font-size="14.00">Count: 0</text>
<text text-anchor="middle" x="873" y="-301.22" font-family="Times New Roman,serif" font-size="14.00">Normalized count: NaN</text>
<text text-anchor="middle" x="873" y="-286.22" font-family="Times New Roman,serif" font-size="14.00">Samples weight: 0.00</text>
</g>
<!-- BB15&#45;&gt;BB17 -->
<g id="edge24" class="edge">
<title>BB15&#45;&gt;BB17</title>
<path fill="none" stroke="black" d="M834.97,-397.32C839.09,-388.23 843.46,-378.59 847.71,-369.22"/>
<polygon fill="black" stroke="black" points="850.96,-370.52 851.9,-359.96 844.59,-367.63 850.96,-370.52"/>
</g>
<!-- BB16&#45;&gt;BB17 -->
<g id="edge27" class="edge">
<title>BB16&#45;&gt;BB17</title>
<path fill="none" stroke="black" d="M751.08,-312.42C753.4,-312.42 755.72,-312.42 758.04,-312.42"/>
<polygon fill="black" stroke="black" points="758.22,-315.92 768.22,-312.42 758.22,-308.92 758.22,-315.92"/>
</g>
<!-- BB16&#45;&gt;BB25 -->
<g id="edge26" class="edge">
<title>BB16&#45;&gt;BB25</title>
<path fill="none" stroke="black" d="M541.2,-312.42C503.11,-312.42 465.01,-312.42 426.91,-312.42"/>
<polygon fill="black" stroke="black" points="426.7,-308.92 416.7,-312.42 426.7,-315.92 426.7,-308.92"/>
</g>
<!-- BB17&#45;&gt;BB18 -->
<g id="edge28" class="edge">
<title>BB17&#45;&gt;BB18</title>
<path fill="none" stroke="black" d="M905.31,-358.52C913.25,-370.56 921.36,-383.77 928,-396.5 949.24,-437.25 946.19,-451.2 966,-492.67 970.44,-501.96 975.49,-511.64 980.6,-520.96"/>
<polygon fill="black" stroke="black" points="977.58,-522.73 985.49,-529.77 983.7,-519.33 977.58,-522.73"/>
</g>
<!-- BB19 -->
<g id="node20" class="node">
<title>BB19</title>
<ellipse fill="none" stroke="black" cx="1080" cy="-444.58" rx="104.8" ry="48.17"/>
<text text-anchor="middle" x="1080" y="-463.38" font-family="Times New Roman,serif" font-size="14.00">[116..129)</text>
<text text-anchor="middle" x="1080" y="-448.38" font-family="Times New Roman,serif" font-size="14.00">Count: 0</text>
<text text-anchor="middle" x="1080" y="-433.38" font-family="Times New Roman,serif" font-size="14.00">Normalized count: NaN</text>
<text text-anchor="middle" x="1080" y="-418.38" font-family="Times New Roman,serif" font-size="14.00">Samples weight: 0.00</text>
</g>
<!-- BB18&#45;&gt;BB19 -->
<g id="edge30" class="edge">
<title>BB18&#45;&gt;BB19</title>
<path fill="none" stroke="black" d="M1036.81,-529.49C1041.6,-520.19 1046.68,-510.32 1051.6,-500.75"/>
<polygon fill="black" stroke="black" points="1054.8,-502.19 1056.27,-491.69 1048.58,-498.98 1054.8,-502.19"/>
</g>
<!-- BB20 -->
<g id="node21" class="node">
<title>BB20</title>
<ellipse fill="none" stroke="black" cx="1316" cy="-444.58" rx="113.69" ry="48.17"/>
<text text-anchor="middle" x="1316" y="-463.38" font-family="Times New Roman,serif" font-size="14.00">[129..133)</text>
<text text-anchor="middle" x="1316" y="-448.38" font-family="Times New Roman,serif" font-size="14.00">Count: 9</text>
<text text-anchor="middle" x="1316" y="-433.38" font-family="Times New Roman,serif" font-size="14.00">Normalized count: Infinity</text>
<text text-anchor="middle" x="1316" y="-418.38" font-family="Times New Roman,serif" font-size="14.00">Samples weight: 0.18</text>
</g>
<!-- BB18&#45;&gt;BB20 -->
<g id="edge29" class="edge">
<title>BB18&#45;&gt;BB20</title>
<path fill="none" stroke="black" d="M1091.82,-541.89C1133.56,-523.96 1184.94,-501.88 1227.98,-483.4"/>
<polygon fill="black" stroke="black" points="1229.51,-486.55 1237.31,-479.39 1226.74,-480.12 1229.51,-486.55"/>
</g>
<!-- BB19&#45;&gt;BB20 -->
<g id="edge31" class="edge">
<title>BB19&#45;&gt;BB20</title>
<path fill="none" stroke="black" d="M1185.09,-444.58C1187.38,-444.58 1189.66,-444.58 1191.95,-444.58"/>
<polygon fill="black" stroke="black" points="1191.97,-448.08 1201.97,-444.58 1191.97,-441.08 1191.97,-448.08"/>
</g>
<!-- BB21 -->
<g id="node22" class="node">
<title>BB21</title>
<ellipse fill="none" stroke="black" cx="1160" cy="-312.42" rx="104.8" ry="48.17"/>
<text text-anchor="middle" x="1160" y="-331.22" font-family="Times New Roman,serif" font-size="14.00">[133..14d)</text>
<text text-anchor="middle" x="1160" y="-316.22" font-family="Times New Roman,serif" font-size="14.00">Count: 0</text>
<text text-anchor="middle" x="1160" y="-301.22" font-family="Times New Roman,serif" font-size="14.00">Normalized count: NaN</text>
<text text-anchor="middle" x="1160" y="-286.22" font-family="Times New Roman,serif" font-size="14.00">Samples weight: 0.00</text>
</g>
<!-- BB20&#45;&gt;BB21 -->
<g id="edge33" class="edge">
<title>BB20&#45;&gt;BB21</title>
<path fill="none" stroke="black" d="M1265.35,-401.32C1250.12,-388.62 1233.3,-374.58 1217.66,-361.53"/>
<polygon fill="black" stroke="black" points="1219.52,-358.52 1209.6,-354.8 1215.03,-363.89 1219.52,-358.52"/>
</g>
<!-- BB22 -->
<g id="node23" class="node">
<title>BB22</title>
<ellipse fill="none" stroke="black" cx="1387" cy="-312.42" rx="104.8" ry="48.17"/>
<text text-anchor="middle" x="1387" y="-331.22" font-family="Times New Roman,serif" font-size="14.00">[14d..154)</text>
<text text-anchor="middle" x="1387" y="-316.22" font-family="Times New Roman,serif" font-size="14.00">Count: 0</text>
<text text-anchor="middle" x="1387" y="-301.22" font-family="Times New Roman,serif" font-size="14.00">Normalized count: NaN</text>
<text text-anchor="middle" x="1387" y="-286.22" font-family="Times New Roman,serif" font-size="14.00">Samples weight: 0.00</text>
</g>
<!-- BB20&#45;&gt;BB22 -->
<g id="edge32" class="edge">
<title>BB20&#45;&gt;BB22</title>
<path fill="none" stroke="black" d="M1341.23,-397.32C1346.31,-388.02 1351.69,-378.16 1356.91,-368.58"/>
<polygon fill="black" stroke="black" points="1360.13,-369.98 1361.85,-359.53 1353.99,-366.63 1360.13,-369.98"/>
</g>
<!-- BB21&#45;&gt;BB22 -->
<g id="edge34" class="edge">
<title>BB21&#45;&gt;BB22</title>
<path fill="none" stroke="black" d="M1265.08,-312.42C1267.4,-312.42 1269.72,-312.42 1272.04,-312.42"/>
<polygon fill="black" stroke="black" points="1272.22,-315.92 1282.22,-312.42 1272.22,-308.92 1272.22,-315.92"/>
</g>
<!-- BB22&#45;&gt;BB6 -->
<g id="edge35" class="edge">
<title>BB22&#45;&gt;BB6</title>
<path fill="none" stroke="black" d="M1419.59,-358.49C1442.9,-396.72 1465.8,-451.73 1439,-492.67 1254.96,-773.73 817.35,-829.08 602.01,-838.85"/>
<polygon fill="black" stroke="black" points="601.77,-835.36 591.93,-839.28 602.07,-842.35 601.77,-835.36"/>
</g>
<!-- BB23 -->
<g id="node24" class="node">
<title>BB23</title>
<ellipse fill="none" stroke="black" cx="728" cy="-180.25" rx="113.69" ry="48.17"/>
<text text-anchor="middle" x="728" y="-199.05" font-family="Times New Roman,serif" font-size="14.00">[154..158)</text>
<text text-anchor="middle" x="728" y="-184.05" font-family="Times New Roman,serif" font-size="14.00">Count: 3</text>
<text text-anchor="middle" x="728" y="-169.05" font-family="Times New Roman,serif" font-size="14.00">Normalized count: Infinity</text>
<text text-anchor="middle" x="728" y="-154.05" font-family="Times New Roman,serif" font-size="14.00">Samples weight: 0.06</text>
</g>
<!-- BB22&#45;&gt;BB23 -->
<g id="edge36" class="edge">
<title>BB22&#45;&gt;BB23</title>
<path fill="none" stroke="black" d="M1313.76,-277.88C1300.71,-272.77 1287.1,-268 1274,-264.33 1131.04,-224.32 961.29,-202.32 849.45,-191.17"/>
<polygon fill="black" stroke="black" points="849.77,-187.69 839.48,-190.2 849.09,-194.66 849.77,-187.69"/>
</g>
<!-- BB24 -->
<g id="node25" class="node">
<title>BB24</title>
<ellipse fill="none" stroke="black" cx="132" cy="-48.08" rx="104.8" ry="48.17"/>
<text text-anchor="middle" x="132" y="-66.88" font-family="Times New Roman,serif" font-size="14.00">[158..160)</text>
<text text-anchor="middle" x="132" y="-51.88" font-family="Times New Roman,serif" font-size="14.00">Count: 0</text>
<text text-anchor="middle" x="132" y="-36.88" font-family="Times New Roman,serif" font-size="14.00">Normalized count: NaN</text>
<text text-anchor="middle" x="132" y="-21.88" font-family="Times New Roman,serif" font-size="14.00">Samples weight: 0.00</text>
</g>
<!-- BB23&#45;&gt;BB24 -->
<g id="edge38" class="edge">
<title>BB23&#45;&gt;BB24</title>
<path fill="none" stroke="black" d="M648.03,-145.84C634.17,-140.79 619.78,-135.99 606,-132.17 483.94,-98.26 340.17,-75.37 243.24,-62.35"/>
<polygon fill="black" stroke="black" points="243.51,-58.85 233.13,-61 242.58,-65.79 243.51,-58.85"/>
</g>
<!-- BB23&#45;&gt;BB25 -->
<g id="edge37" class="edge">
<title>BB23&#45;&gt;BB25</title>
<path fill="none" stroke="black" d="M646.35,-213.96C632.94,-218.99 619.14,-223.95 606,-228.33 542.26,-249.59 469.62,-270.15 412.49,-285.5"/>
<polygon fill="black" stroke="black" points="411.49,-282.15 402.73,-288.11 413.3,-288.91 411.49,-282.15"/>
</g>
<!-- BB24&#45;&gt;BB6 -->
<g id="edge39" class="edge">
<title>BB24&#45;&gt;BB6</title>
<path fill="none" stroke="black" d="M93.82,-93.07C54.84,-142.63 0,-227.29 0,-311.42 0,-577.75 0,-577.75 0,-577.75 0,-740.8 216.38,-803.2 357.98,-826.57"/>
<polygon fill="black" stroke="black" points="357.61,-830.06 368.04,-828.19 358.72,-823.15 357.61,-830.06"/>
</g>
<!-- BB24&#45;&gt;BB25 -->
<g id="edge40" class="edge">
<title>BB24&#45;&gt;BB25</title>
<path fill="none" stroke="black" d="M125.41,-96.29C122.54,-135.07 124.58,-189.72 151,-228.33 166.82,-251.45 191.12,-268.54 216.08,-281"/>
<polygon fill="black" stroke="black" points="214.76,-284.25 225.29,-285.38 217.77,-277.92 214.76,-284.25"/>
</g>
<!-- BB26 -->
<g id="node27" class="node">
<title>BB26</title>
<ellipse fill="none" stroke="black" cx="265" cy="-180.25" rx="104.8" ry="48.17"/>
<text text-anchor="middle" x="265" y="-199.05" font-family="Times New Roman,serif" font-size="14.00">[165..171)</text>
<text text-anchor="middle" x="265" y="-184.05" font-family="Times New Roman,serif" font-size="14.00">Count: 0</text>
<text text-anchor="middle" x="265" y="-169.05" font-family="Times New Roman,serif" font-size="14.00">Normalized count: NaN</text>
<text text-anchor="middle" x="265" y="-154.05" font-family="Times New Roman,serif" font-size="14.00">Samples weight: 0.00</text>
</g>
<!-- BB25&#45;&gt;BB26 -->
<g id="edge42" class="edge">
<title>BB25&#45;&gt;BB26</title>
<path fill="none" stroke="black" d="M295.16,-264.79C291.96,-255.91 288.57,-246.53 285.27,-237.39"/>
<polygon fill="black" stroke="black" points="288.56,-236.2 281.88,-227.99 281.98,-238.58 288.56,-236.2"/>
</g>
<!-- BB27 -->
<g id="node28" class="node">
<title>BB27</title>
<ellipse fill="none" stroke="black" cx="492" cy="-180.25" rx="104.8" ry="48.17"/>
<text text-anchor="middle" x="492" y="-199.05" font-family="Times New Roman,serif" font-size="14.00">[171..172)</text>
<text text-anchor="middle" x="492" y="-184.05" font-family="Times New Roman,serif" font-size="14.00">Count: 0</text>
<text text-anchor="middle" x="492" y="-169.05" font-family="Times New Roman,serif" font-size="14.00">Normalized count: NaN</text>
<text text-anchor="middle" x="492" y="-154.05" font-family="Times New Roman,serif" font-size="14.00">Samples weight: 0.00</text>
</g>
<!-- BB25&#45;&gt;BB27 -->
<g id="edge41" class="edge">
<title>BB25&#45;&gt;BB27</title>
<path fill="none" stroke="black" d="M367.47,-271.3C386.81,-257.32 408.66,-241.52 428.59,-227.1"/>
<polygon fill="black" stroke="black" points="430.66,-229.93 436.71,-221.23 426.55,-224.26 430.66,-229.93"/>
</g>
<!-- BB26&#45;&gt;BB27 -->
<g id="edge43" class="edge">
<title>BB26&#45;&gt;BB27</title>
<path fill="none" stroke="black" d="M370.08,-180.25C372.4,-180.25 374.72,-180.25 377.04,-180.25"/>
<polygon fill="black" stroke="black" points="377.22,-183.75 387.22,-180.25 377.22,-176.75 377.22,-183.75"/>
</g>
</g>
</svg>
