<?xml version="1.0" encoding="UTF-8" standalone="no"?>
<!DOCTYPE svg PUBLIC "-//W3C//DTD SVG 1.1//EN"
 "http://www.w3.org/Graphics/SVG/1.1/DTD/svg11.dtd">
<!-- Generated by graphviz version 2.47.0 (20210316.0004)
 -->
<!-- Title: G Pages: 1 -->
<svg width="926pt" height="638pt"
 viewBox="0.00 0.00 925.72 637.72" xmlns="http://www.w3.org/2000/svg" xmlns:xlink="http://www.w3.org/1999/xlink">
<g id="graph0" class="graph" transform="scale(1 1) rotate(0) translate(4 633.72)">
<title>G</title>
<polygon fill="white" stroke="transparent" points="-4,4 -4,-633.72 921.72,-633.72 921.72,4 -4,4"/>
<!-- BB0 -->
<g id="node1" class="node">
<title>BB0</title>
<ellipse fill="none" stroke="black" cx="365.36" cy="-592.24" rx="105.22" ry="37.45"/>
<text text-anchor="middle" x="365.36" y="-603.54" font-family="Times New Roman,serif" font-size="14.00">[0..4)</text>
<text text-anchor="middle" x="365.36" y="-588.54" font-family="Times New Roman,serif" font-size="14.00">Normalized Count: 1.00</text>
<text text-anchor="middle" x="365.36" y="-573.54" font-family="Times New Roman,serif" font-size="14.00">Samples weight: 0.00</text>
</g>
<!-- BB4 -->
<g id="node5" class="node">
<title>BB4</title>
<ellipse fill="none" stroke="black" cx="365.36" cy="-481.29" rx="110.12" ry="37.45"/>
<text text-anchor="middle" x="365.36" y="-492.59" font-family="Times New Roman,serif" font-size="14.00">[1f..2a)</text>
<text text-anchor="middle" x="365.36" y="-477.59" font-family="Times New Roman,serif" font-size="14.00">Normalized Count: 56.39</text>
<text text-anchor="middle" x="365.36" y="-462.59" font-family="Times New Roman,serif" font-size="14.00">Samples weight: 0.27</text>
</g>
<!-- BB0&#45;&gt;BB4 -->
<g id="edge1" class="edge">
<title>BB0&#45;&gt;BB4</title>
<path fill="none" stroke="black" d="M365.36,-554.66C365.36,-546.49 365.36,-537.71 365.36,-529.18"/>
<polygon fill="black" stroke="black" points="368.86,-528.96 365.36,-518.96 361.86,-528.96 368.86,-528.96"/>
</g>
<!-- BB1 -->
<g id="node2" class="node">
<title>BB1</title>
<ellipse fill="none" stroke="black" cx="227.36" cy="-370.34" rx="110.12" ry="37.45"/>
<text text-anchor="middle" x="227.36" y="-381.64" font-family="Times New Roman,serif" font-size="14.00">[4..10)</text>
<text text-anchor="middle" x="227.36" y="-366.64" font-family="Times New Roman,serif" font-size="14.00">Normalized Count: 55.39</text>
<text text-anchor="middle" x="227.36" y="-351.64" font-family="Times New Roman,serif" font-size="14.00">Samples weight: 0.26</text>
</g>
<!-- BB2 -->
<g id="node3" class="node">
<title>BB2</title>
<ellipse fill="none" stroke="black" cx="105.36" cy="-259.38" rx="105.22" ry="37.45"/>
<text text-anchor="middle" x="105.36" y="-270.68" font-family="Times New Roman,serif" font-size="14.00">[10..1b)</text>
<text text-anchor="middle" x="105.36" y="-255.68" font-family="Times New Roman,serif" font-size="14.00">Normalized Count: 5.88</text>
<text text-anchor="middle" x="105.36" y="-240.68" font-family="Times New Roman,serif" font-size="14.00">Samples weight: 0.03</text>
</g>
<!-- BB1&#45;&gt;BB2 -->
<g id="edge3" class="edge">
<title>BB1&#45;&gt;BB2</title>
<path fill="none" stroke="black" d="M189.09,-335.16C177.06,-324.41 163.64,-312.43 151.14,-301.27"/>
<polygon fill="black" stroke="black" points="153.28,-298.49 143.49,-294.44 148.62,-303.71 153.28,-298.49"/>
</g>
<!-- BB3 -->
<g id="node4" class="node">
<title>BB3</title>
<ellipse fill="none" stroke="black" cx="339.36" cy="-259.38" rx="110.12" ry="37.45"/>
<text text-anchor="middle" x="339.36" y="-270.68" font-family="Times New Roman,serif" font-size="14.00">[1b..1f)</text>
<text text-anchor="middle" x="339.36" y="-255.68" font-family="Times New Roman,serif" font-size="14.00">Normalized Count: 55.39</text>
<text text-anchor="middle" x="339.36" y="-240.68" font-family="Times New Roman,serif" font-size="14.00">Samples weight: 0.26</text>
</g>
<!-- BB1&#45;&gt;BB3 -->
<g id="edge2" class="edge">
<title>BB1&#45;&gt;BB3</title>
<path fill="none" stroke="black" d="M263.1,-334.56C273.61,-324.34 285.22,-313.05 296.14,-302.43"/>
<polygon fill="black" stroke="black" points="298.84,-304.68 303.57,-295.2 293.96,-299.66 298.84,-304.68"/>
</g>
<!-- BB2&#45;&gt;BB3 -->
<g id="edge4" class="edge">
<title>BB2&#45;&gt;BB3</title>
<path fill="none" stroke="black" d="M210.93,-259.38C213.57,-259.38 216.2,-259.38 218.83,-259.38"/>
<polygon fill="black" stroke="black" points="218.99,-262.88 228.99,-259.38 218.99,-255.88 218.99,-262.88"/>
</g>
<!-- BB3&#45;&gt;BB4 -->
<g id="edge5" class="edge">
<title>BB3&#45;&gt;BB4</title>
<path fill="none" stroke="black" d="M343.68,-296.94C348.11,-334.39 355.01,-392.73 359.83,-433.51"/>
<polygon fill="black" stroke="black" points="356.36,-433.96 361.01,-443.48 363.31,-433.14 356.36,-433.96"/>
</g>
<!-- BB4&#45;&gt;BB1 -->
<g id="edge6" class="edge">
<title>BB4&#45;&gt;BB1</title>
<path fill="none" stroke="black" d="M322.45,-446.41C308.43,-435.35 292.73,-422.95 278.18,-411.46"/>
<polygon fill="black" stroke="black" points="280.26,-408.64 270.24,-405.19 275.92,-414.14 280.26,-408.64"/>
</g>
<!-- BB5 -->
<g id="node6" class="node">
<title>BB5</title>
<ellipse fill="none" stroke="black" cx="551.36" cy="-370.34" rx="105.22" ry="37.45"/>
<text text-anchor="middle" x="551.36" y="-381.64" font-family="Times New Roman,serif" font-size="14.00">[2a..4e)</text>
<text text-anchor="middle" x="551.36" y="-366.64" font-family="Times New Roman,serif" font-size="14.00">Normalized Count: 1.00</text>
<text text-anchor="middle" x="551.36" y="-351.64" font-family="Times New Roman,serif" font-size="14.00">Samples weight: 0.00</text>
</g>
<!-- BB4&#45;&gt;BB5 -->
<g id="edge7" class="edge">
<title>BB4&#45;&gt;BB5</title>
<path fill="none" stroke="black" d="M419.66,-448.48C441.34,-435.79 466.43,-421.09 488.86,-407.95"/>
<polygon fill="black" stroke="black" points="490.78,-410.88 497.64,-402.81 487.24,-404.84 490.78,-410.88"/>
</g>
<!-- BB9 -->
<g id="node10" class="node">
<title>BB9</title>
<ellipse fill="none" stroke="black" cx="578.36" cy="-259.38" rx="110.12" ry="37.45"/>
<text text-anchor="middle" x="578.36" y="-270.68" font-family="Times New Roman,serif" font-size="14.00">[5e..66)</text>
<text text-anchor="middle" x="578.36" y="-255.68" font-family="Times New Roman,serif" font-size="14.00">Normalized Count: 11.48</text>
<text text-anchor="middle" x="578.36" y="-240.68" font-family="Times New Roman,serif" font-size="14.00">Samples weight: 0.05</text>
</g>
<!-- BB5&#45;&gt;BB9 -->
<g id="edge8" class="edge">
<title>BB5&#45;&gt;BB9</title>
<path fill="none" stroke="black" d="M560.42,-332.75C562.47,-324.49 564.67,-315.61 566.81,-306.99"/>
<polygon fill="black" stroke="black" points="570.26,-307.6 569.27,-297.06 563.47,-305.92 570.26,-307.6"/>
</g>
<!-- BB6 -->
<g id="node7" class="node">
<title>BB6</title>
<ellipse fill="none" stroke="black" cx="578.36" cy="-148.43" rx="110.12" ry="37.45"/>
<text text-anchor="middle" x="578.36" y="-159.73" font-family="Times New Roman,serif" font-size="14.00">[4e..58)</text>
<text text-anchor="middle" x="578.36" y="-144.73" font-family="Times New Roman,serif" font-size="14.00">Normalized Count: 11.48</text>
<text text-anchor="middle" x="578.36" y="-129.73" font-family="Times New Roman,serif" font-size="14.00">Samples weight: 0.05</text>
</g>
<!-- BB7 -->
<g id="node8" class="node">
<title>BB7</title>
<ellipse fill="none" stroke="black" cx="674.36" cy="-37.48" rx="105.22" ry="37.45"/>
<text text-anchor="middle" x="674.36" y="-48.78" font-family="Times New Roman,serif" font-size="14.00">[58..5a)</text>
<text text-anchor="middle" x="674.36" y="-33.78" font-family="Times New Roman,serif" font-size="14.00">Normalized Count: 1.00</text>
<text text-anchor="middle" x="674.36" y="-18.78" font-family="Times New Roman,serif" font-size="14.00">Samples weight: 0.00</text>
</g>
<!-- BB6&#45;&gt;BB7 -->
<g id="edge10" class="edge">
<title>BB6&#45;&gt;BB7</title>
<path fill="none" stroke="black" d="M609.26,-112.36C618,-102.44 627.6,-91.54 636.69,-81.23"/>
<polygon fill="black" stroke="black" points="639.53,-83.3 643.51,-73.48 634.28,-78.67 639.53,-83.3"/>
</g>
<!-- BB8 -->
<g id="node9" class="node">
<title>BB8</title>
<ellipse fill="none" stroke="black" cx="440.36" cy="-37.48" rx="110.12" ry="37.45"/>
<text text-anchor="middle" x="440.36" y="-48.78" font-family="Times New Roman,serif" font-size="14.00">[5a..5e)</text>
<text text-anchor="middle" x="440.36" y="-33.78" font-family="Times New Roman,serif" font-size="14.00">Normalized Count: 10.48</text>
<text text-anchor="middle" x="440.36" y="-18.78" font-family="Times New Roman,serif" font-size="14.00">Samples weight: 0.05</text>
</g>
<!-- BB6&#45;&gt;BB8 -->
<g id="edge9" class="edge">
<title>BB6&#45;&gt;BB8</title>
<path fill="none" stroke="black" d="M535.45,-113.55C521.43,-102.49 505.73,-90.09 491.18,-78.6"/>
<polygon fill="black" stroke="black" points="493.26,-75.78 483.24,-72.33 488.92,-81.28 493.26,-75.78"/>
</g>
<!-- BB8&#45;&gt;BB9 -->
<g id="edge11" class="edge">
<title>BB8&#45;&gt;BB9</title>
<path fill="none" stroke="black" d="M436.65,-75.1C435.28,-106.9 437.92,-152.9 459.36,-185.91 469.53,-201.57 484.39,-214.38 500.18,-224.63"/>
<polygon fill="black" stroke="black" points="498.68,-227.81 509.03,-230.06 502.34,-221.84 498.68,-227.81"/>
</g>
<!-- BB9&#45;&gt;BB6 -->
<g id="edge12" class="edge">
<title>BB9&#45;&gt;BB6</title>
<path fill="none" stroke="black" d="M578.36,-221.8C578.36,-213.63 578.36,-204.85 578.36,-196.32"/>
<polygon fill="black" stroke="black" points="581.86,-196.1 578.36,-186.1 574.86,-196.1 581.86,-196.1"/>
</g>
<!-- BB10 -->
<g id="node11" class="node">
<title>BB10</title>
<ellipse fill="none" stroke="black" cx="812.36" cy="-148.43" rx="105.22" ry="37.45"/>
<text text-anchor="middle" x="812.36" y="-159.73" font-family="Times New Roman,serif" font-size="14.00">[66..68)</text>
<text text-anchor="middle" x="812.36" y="-144.73" font-family="Times New Roman,serif" font-size="14.00">Normalized Count: 0.00</text>
<text text-anchor="middle" x="812.36" y="-129.73" font-family="Times New Roman,serif" font-size="14.00">Samples weight: 0.00</text>
</g>
<!-- BB9&#45;&gt;BB10 -->
<g id="edge13" class="edge">
<title>BB9&#45;&gt;BB10</title>
<path fill="none" stroke="black" d="M641.99,-228.76C672.42,-214.59 708.97,-197.57 740.4,-182.93"/>
<polygon fill="black" stroke="black" points="741.96,-186.07 749.55,-178.67 739.01,-179.72 741.96,-186.07"/>
</g>
</g>
</svg>
