<?xml version="1.0" encoding="UTF-8" standalone="no"?>
<!DOCTYPE svg PUBLIC "-//W3C//DTD SVG 1.1//EN"
 "http://www.w3.org/Graphics/SVG/1.1/DTD/svg11.dtd">
<!-- Generated by graphviz version 2.47.0 (20210316.0004)
 -->
<!-- Title: G Pages: 1 -->
<svg width="623pt" height="749pt"
 viewBox="0.00 0.00 622.61 748.67" xmlns="http://www.w3.org/2000/svg" xmlns:xlink="http://www.w3.org/1999/xlink">
<g id="graph0" class="graph" transform="scale(1 1) rotate(0) translate(4 744.67)">
<title>G</title>
<polygon fill="white" stroke="transparent" points="-4,4 -4,-744.67 618.61,-744.67 618.61,4 -4,4"/>
<!-- BB0 -->
<g id="node1" class="node">
<title>BB0</title>
<ellipse fill="none" stroke="black" cx="258.26" cy="-703.2" rx="105.22" ry="37.45"/>
<text text-anchor="middle" x="258.26" y="-714.5" font-family="Times New Roman,serif" font-size="14.00">[0..7)</text>
<text text-anchor="middle" x="258.26" y="-699.5" font-family="Times New Roman,serif" font-size="14.00">Normalized Count: 1.00</text>
<text text-anchor="middle" x="258.26" y="-684.5" font-family="Times New Roman,serif" font-size="14.00">Samples weight: 0.00</text>
</g>
<!-- BB8 -->
<g id="node9" class="node">
<title>BB8</title>
<ellipse fill="none" stroke="black" cx="258.26" cy="-592.24" rx="115.02" ry="37.45"/>
<text text-anchor="middle" x="258.26" y="-603.54" font-family="Times New Roman,serif" font-size="14.00">[46..4a)</text>
<text text-anchor="middle" x="258.26" y="-588.54" font-family="Times New Roman,serif" font-size="14.00">Normalized Count: 201.00</text>
<text text-anchor="middle" x="258.26" y="-573.54" font-family="Times New Roman,serif" font-size="14.00">Samples weight: 0.00</text>
</g>
<!-- BB0&#45;&gt;BB8 -->
<g id="edge1" class="edge">
<title>BB0&#45;&gt;BB8</title>
<path fill="none" stroke="black" d="M258.26,-665.61C258.26,-657.44 258.26,-648.66 258.26,-640.13"/>
<polygon fill="black" stroke="black" points="261.76,-639.92 258.26,-629.92 254.76,-639.92 261.76,-639.92"/>
</g>
<!-- BB1 -->
<g id="node2" class="node">
<title>BB1</title>
<ellipse fill="none" stroke="black" cx="258.26" cy="-481.29" rx="115.02" ry="37.45"/>
<text text-anchor="middle" x="258.26" y="-492.59" font-family="Times New Roman,serif" font-size="14.00">[7..e)</text>
<text text-anchor="middle" x="258.26" y="-477.59" font-family="Times New Roman,serif" font-size="14.00">Normalized Count: 200.00</text>
<text text-anchor="middle" x="258.26" y="-462.59" font-family="Times New Roman,serif" font-size="14.00">Samples weight: 0.00</text>
</g>
<!-- BB6 -->
<g id="node7" class="node">
<title>BB6</title>
<ellipse fill="none" stroke="black" cx="263.26" cy="-370.34" rx="124.4" ry="37.45"/>
<text text-anchor="middle" x="263.26" y="-381.64" font-family="Times New Roman,serif" font-size="14.00">[3d..42)</text>
<text text-anchor="middle" x="263.26" y="-366.64" font-family="Times New Roman,serif" font-size="14.00">Normalized Count: 20100.00</text>
<text text-anchor="middle" x="263.26" y="-351.64" font-family="Times New Roman,serif" font-size="14.00">Samples weight: 0.00</text>
</g>
<!-- BB1&#45;&gt;BB6 -->
<g id="edge2" class="edge">
<title>BB1&#45;&gt;BB6</title>
<path fill="none" stroke="black" d="M259.94,-443.71C260.31,-435.53 260.72,-426.75 261.11,-418.23"/>
<polygon fill="black" stroke="black" points="264.61,-418.16 261.58,-408.01 257.62,-417.84 264.61,-418.16"/>
</g>
<!-- BB2 -->
<g id="node3" class="node">
<title>BB2</title>
<ellipse fill="none" stroke="black" cx="431.26" cy="-259.38" rx="124.4" ry="37.45"/>
<text text-anchor="middle" x="431.26" y="-270.68" font-family="Times New Roman,serif" font-size="14.00">[e..13)</text>
<text text-anchor="middle" x="431.26" y="-255.68" font-family="Times New Roman,serif" font-size="14.00">Normalized Count: 19900.00</text>
<text text-anchor="middle" x="431.26" y="-240.68" font-family="Times New Roman,serif" font-size="14.00">Samples weight: 0.00</text>
</g>
<!-- BB4 -->
<g id="node5" class="node">
<title>BB4</title>
<ellipse fill="none" stroke="black" cx="451.26" cy="-148.43" rx="134.2" ry="37.45"/>
<text text-anchor="middle" x="451.26" y="-159.73" font-family="Times New Roman,serif" font-size="14.00">[32..37)</text>
<text text-anchor="middle" x="451.26" y="-144.73" font-family="Times New Roman,serif" font-size="14.00">Normalized Count: 3999900.00</text>
<text text-anchor="middle" x="451.26" y="-129.73" font-family="Times New Roman,serif" font-size="14.00">Samples weight: 0.50</text>
</g>
<!-- BB2&#45;&gt;BB4 -->
<g id="edge3" class="edge">
<title>BB2&#45;&gt;BB4</title>
<path fill="none" stroke="black" d="M437.97,-221.8C439.49,-213.54 441.12,-204.65 442.7,-196.04"/>
<polygon fill="black" stroke="black" points="446.16,-196.57 444.53,-186.1 439.28,-195.31 446.16,-196.57"/>
</g>
<!-- BB3 -->
<g id="node4" class="node">
<title>BB3</title>
<ellipse fill="none" stroke="black" cx="480.26" cy="-37.48" rx="134.2" ry="37.45"/>
<text text-anchor="middle" x="480.26" y="-48.78" font-family="Times New Roman,serif" font-size="14.00">[13..32)</text>
<text text-anchor="middle" x="480.26" y="-33.78" font-family="Times New Roman,serif" font-size="14.00">Normalized Count: 3980000.00</text>
<text text-anchor="middle" x="480.26" y="-18.78" font-family="Times New Roman,serif" font-size="14.00">Samples weight: 0.50</text>
</g>
<!-- BB3&#45;&gt;BB4 -->
<g id="edge4" class="edge">
<title>BB3&#45;&gt;BB4</title>
<path fill="none" stroke="black" d="M476.96,-74.97C475.03,-83.44 472.69,-92.56 470.2,-101.37"/>
<polygon fill="black" stroke="black" points="466.78,-100.57 467.32,-111.15 473.5,-102.54 466.78,-100.57"/>
</g>
<!-- BB4&#45;&gt;BB3 -->
<g id="edge5" class="edge">
<title>BB4&#45;&gt;BB3</title>
<path fill="none" stroke="black" d="M454.58,-110.85C456.5,-102.4 458.83,-93.31 461.32,-84.52"/>
<polygon fill="black" stroke="black" points="464.73,-85.36 464.19,-74.78 458.01,-83.38 464.73,-85.36"/>
</g>
<!-- BB5 -->
<g id="node6" class="node">
<title>BB5</title>
<ellipse fill="none" stroke="black" cx="203.26" cy="-37.48" rx="124.4" ry="37.45"/>
<text text-anchor="middle" x="203.26" y="-48.78" font-family="Times New Roman,serif" font-size="14.00">[37..3d)</text>
<text text-anchor="middle" x="203.26" y="-33.78" font-family="Times New Roman,serif" font-size="14.00">Normalized Count: 19900.00</text>
<text text-anchor="middle" x="203.26" y="-18.78" font-family="Times New Roman,serif" font-size="14.00">Samples weight: 0.00</text>
</g>
<!-- BB4&#45;&gt;BB5 -->
<g id="edge6" class="edge">
<title>BB4&#45;&gt;BB5</title>
<path fill="none" stroke="black" d="M380.85,-116.5C349.83,-102.87 313.27,-86.81 281.41,-72.81"/>
<polygon fill="black" stroke="black" points="282.69,-69.55 272.12,-68.73 279.87,-75.96 282.69,-69.55"/>
</g>
<!-- BB5&#45;&gt;BB6 -->
<g id="edge7" class="edge">
<title>BB5&#45;&gt;BB6</title>
<path fill="none" stroke="black" d="M210.78,-74.95C218.32,-111.92 230.09,-170.8 239.26,-221.91 245.28,-255.44 251.44,-293.38 256.01,-322.37"/>
<polygon fill="black" stroke="black" points="252.61,-323.29 257.62,-332.62 259.53,-322.2 252.61,-323.29"/>
</g>
<!-- BB6&#45;&gt;BB2 -->
<g id="edge8" class="edge">
<title>BB6&#45;&gt;BB2</title>
<path fill="none" stroke="black" d="M314.58,-336.06C332.57,-324.39 352.93,-311.18 371.55,-299.11"/>
<polygon fill="black" stroke="black" points="373.48,-302.03 379.97,-293.65 369.67,-296.15 373.48,-302.03"/>
</g>
<!-- BB7 -->
<g id="node8" class="node">
<title>BB7</title>
<ellipse fill="none" stroke="black" cx="115.26" cy="-259.38" rx="115.02" ry="37.45"/>
<text text-anchor="middle" x="115.26" y="-270.68" font-family="Times New Roman,serif" font-size="14.00">[42..46)</text>
<text text-anchor="middle" x="115.26" y="-255.68" font-family="Times New Roman,serif" font-size="14.00">Normalized Count: 200.00</text>
<text text-anchor="middle" x="115.26" y="-240.68" font-family="Times New Roman,serif" font-size="14.00">Samples weight: 0.00</text>
</g>
<!-- BB6&#45;&gt;BB7 -->
<g id="edge9" class="edge">
<title>BB6&#45;&gt;BB7</title>
<path fill="none" stroke="black" d="M217.24,-335.46C201.92,-324.18 184.73,-311.52 168.88,-299.86"/>
<polygon fill="black" stroke="black" points="170.87,-296.97 160.74,-293.86 166.72,-302.61 170.87,-296.97"/>
</g>
<!-- BB7&#45;&gt;BB8 -->
<g id="edge10" class="edge">
<title>BB7&#45;&gt;BB8</title>
<path fill="none" stroke="black" d="M107.96,-297.02C99.43,-350.24 91.41,-450.07 134.26,-518.77 144.37,-534.98 159.54,-547.98 175.84,-558.24"/>
<polygon fill="black" stroke="black" points="174.06,-561.26 184.44,-563.36 177.64,-555.24 174.06,-561.26"/>
</g>
<!-- BB8&#45;&gt;BB1 -->
<g id="edge11" class="edge">
<title>BB8&#45;&gt;BB1</title>
<path fill="none" stroke="black" d="M258.26,-554.66C258.26,-546.49 258.26,-537.71 258.26,-529.18"/>
<polygon fill="black" stroke="black" points="261.76,-528.96 258.26,-518.96 254.76,-528.96 261.76,-528.96"/>
</g>
<!-- BB9 -->
<g id="node10" class="node">
<title>BB9</title>
<ellipse fill="none" stroke="black" cx="497.26" cy="-481.29" rx="105.22" ry="37.45"/>
<text text-anchor="middle" x="497.26" y="-492.59" font-family="Times New Roman,serif" font-size="14.00">[4a..4b)</text>
<text text-anchor="middle" x="497.26" y="-477.59" font-family="Times New Roman,serif" font-size="14.00">Normalized Count: 1.00</text>
<text text-anchor="middle" x="497.26" y="-462.59" font-family="Times New Roman,serif" font-size="14.00">Samples weight: 0.00</text>
</g>
<!-- BB8&#45;&gt;BB9 -->
<g id="edge12" class="edge">
<title>BB8&#45;&gt;BB9</title>
<path fill="none" stroke="black" d="M323.88,-561.33C354.95,-547.16 392.16,-530.2 424.13,-515.63"/>
<polygon fill="black" stroke="black" points="425.78,-518.72 433.43,-511.39 422.88,-512.35 425.78,-518.72"/>
</g>
</g>
</svg>
