<?xml version="1.0" encoding="UTF-8" standalone="no"?>
<!DOCTYPE svg PUBLIC "-//W3C//DTD SVG 1.1//EN"
 "http://www.w3.org/Graphics/SVG/1.1/DTD/svg11.dtd">
<!-- Generated by graphviz version 2.47.0 (20210316.0004)
 -->
<!-- Title: G Pages: 1 -->
<svg width="1383pt" height="1082pt"
 viewBox="0.00 0.00 1382.71 1081.53" xmlns="http://www.w3.org/2000/svg" xmlns:xlink="http://www.w3.org/1999/xlink">
<g id="graph0" class="graph" transform="scale(1 1) rotate(0) translate(4 1077.53)">
<title>G</title>
<polygon fill="white" stroke="transparent" points="-4,4 -4,-1077.53 1378.71,-1077.53 1378.71,4 -4,4"/>
<!-- BB0 -->
<g id="node1" class="node">
<title>BB0</title>
<ellipse fill="none" stroke="black" cx="792.35" cy="-1036.06" rx="105.22" ry="37.45"/>
<text text-anchor="middle" x="792.35" y="-1047.36" font-family="Times New Roman,serif" font-size="14.00">[0..12)</text>
<text text-anchor="middle" x="792.35" y="-1032.36" font-family="Times New Roman,serif" font-size="14.00">Normalized Count: 1.00</text>
<text text-anchor="middle" x="792.35" y="-1017.36" font-family="Times New Roman,serif" font-size="14.00">Samples weight: 0.00</text>
</g>
<!-- BB1 -->
<g id="node2" class="node">
<title>BB1</title>
<ellipse fill="none" stroke="black" cx="678.35" cy="-925.1" rx="105.22" ry="37.45"/>
<text text-anchor="middle" x="678.35" y="-936.4" font-family="Times New Roman,serif" font-size="14.00">[12..32)</text>
<text text-anchor="middle" x="678.35" y="-921.4" font-family="Times New Roman,serif" font-size="14.00">Normalized Count: 0.00</text>
<text text-anchor="middle" x="678.35" y="-906.4" font-family="Times New Roman,serif" font-size="14.00">Samples weight: 0.00</text>
</g>
<!-- BB0&#45;&gt;BB1 -->
<g id="edge2" class="edge">
<title>BB0&#45;&gt;BB1</title>
<path fill="none" stroke="black" d="M756.28,-1000.58C745.26,-990.05 733.02,-978.35 721.57,-967.41"/>
<polygon fill="black" stroke="black" points="723.83,-964.73 714.19,-960.35 719,-969.79 723.83,-964.73"/>
</g>
<!-- BB2 -->
<g id="node3" class="node">
<title>BB2</title>
<ellipse fill="none" stroke="black" cx="907.35" cy="-925.1" rx="105.22" ry="37.45"/>
<text text-anchor="middle" x="907.35" y="-936.4" font-family="Times New Roman,serif" font-size="14.00">[32..39)</text>
<text text-anchor="middle" x="907.35" y="-921.4" font-family="Times New Roman,serif" font-size="14.00">Normalized Count: 1.00</text>
<text text-anchor="middle" x="907.35" y="-906.4" font-family="Times New Roman,serif" font-size="14.00">Samples weight: 0.00</text>
</g>
<!-- BB0&#45;&gt;BB2 -->
<g id="edge1" class="edge">
<title>BB0&#45;&gt;BB2</title>
<path fill="none" stroke="black" d="M828.74,-1000.58C839.86,-990.05 852.2,-978.35 863.75,-967.41"/>
<polygon fill="black" stroke="black" points="866.35,-969.77 871.2,-960.35 861.53,-964.69 866.35,-969.77"/>
</g>
<!-- BB1&#45;&gt;BB2 -->
<g id="edge3" class="edge">
<title>BB1&#45;&gt;BB2</title>
<path fill="none" stroke="black" d="M783.9,-925.1C786.51,-925.1 789.11,-925.1 791.71,-925.1"/>
<polygon fill="black" stroke="black" points="791.75,-928.6 801.75,-925.1 791.75,-921.6 791.75,-928.6"/>
</g>
<!-- BB15 -->
<g id="node16" class="node">
<title>BB15</title>
<ellipse fill="none" stroke="black" cx="907.35" cy="-814.15" rx="120.42" ry="37.45"/>
<text text-anchor="middle" x="907.35" y="-825.45" font-family="Times New Roman,serif" font-size="14.00">[12d..134)</text>
<text text-anchor="middle" x="907.35" y="-810.45" font-family="Times New Roman,serif" font-size="14.00">Normalized Count: 4001.00</text>
<text text-anchor="middle" x="907.35" y="-795.45" font-family="Times New Roman,serif" font-size="14.00">Samples weight: 0.00</text>
</g>
<!-- BB2&#45;&gt;BB15 -->
<g id="edge4" class="edge">
<title>BB2&#45;&gt;BB15</title>
<path fill="none" stroke="black" d="M907.35,-887.52C907.35,-879.35 907.35,-870.57 907.35,-862.04"/>
<polygon fill="black" stroke="black" points="910.85,-861.82 907.35,-851.82 903.85,-861.82 910.85,-861.82"/>
</g>
<!-- BB3 -->
<g id="node4" class="node">
<title>BB3</title>
<ellipse fill="none" stroke="black" cx="750.35" cy="-703.2" rx="120.42" ry="37.45"/>
<text text-anchor="middle" x="750.35" y="-714.5" font-family="Times New Roman,serif" font-size="14.00">[39..62)</text>
<text text-anchor="middle" x="750.35" y="-699.5" font-family="Times New Roman,serif" font-size="14.00">Normalized Count: 4000.00</text>
<text text-anchor="middle" x="750.35" y="-684.5" font-family="Times New Roman,serif" font-size="14.00">Samples weight: 0.00</text>
</g>
<!-- BB11 -->
<g id="node12" class="node">
<title>BB11</title>
<ellipse fill="none" stroke="black" cx="671.35" cy="-592.24" rx="139.1" ry="37.45"/>
<text text-anchor="middle" x="671.35" y="-603.54" font-family="Times New Roman,serif" font-size="14.00">[106..10e)</text>
<text text-anchor="middle" x="671.35" y="-588.54" font-family="Times New Roman,serif" font-size="14.00">Normalized Count: 16004000.00</text>
<text text-anchor="middle" x="671.35" y="-573.54" font-family="Times New Roman,serif" font-size="14.00">Samples weight: 0.02</text>
</g>
<!-- BB3&#45;&gt;BB11 -->
<g id="edge5" class="edge">
<title>BB3&#45;&gt;BB11</title>
<path fill="none" stroke="black" d="M724.48,-666.52C717.8,-657.31 710.52,-647.27 703.56,-637.67"/>
<polygon fill="black" stroke="black" points="706.25,-635.41 697.55,-629.37 700.58,-639.52 706.25,-635.41"/>
</g>
<!-- BB4 -->
<g id="node5" class="node">
<title>BB4</title>
<ellipse fill="none" stroke="black" cx="433.35" cy="-481.29" rx="139.1" ry="37.45"/>
<text text-anchor="middle" x="433.35" y="-492.59" font-family="Times New Roman,serif" font-size="14.00">[62..9d)</text>
<text text-anchor="middle" x="433.35" y="-477.59" font-family="Times New Roman,serif" font-size="14.00">Normalized Count: 16000000.00</text>
<text text-anchor="middle" x="433.35" y="-462.59" font-family="Times New Roman,serif" font-size="14.00">Samples weight: 0.02</text>
</g>
<!-- BB5 -->
<g id="node6" class="node">
<title>BB5</title>
<ellipse fill="none" stroke="black" cx="430.35" cy="-370.34" rx="143.59" ry="37.45"/>
<text text-anchor="middle" x="430.35" y="-381.64" font-family="Times New Roman,serif" font-size="14.00">[9d..cf)</text>
<text text-anchor="middle" x="430.35" y="-366.64" font-family="Times New Roman,serif" font-size="14.00">Normalized Count: 390512934.00</text>
<text text-anchor="middle" x="430.35" y="-351.64" font-family="Times New Roman,serif" font-size="14.00">Samples weight: 0.46</text>
</g>
<!-- BB4&#45;&gt;BB5 -->
<g id="edge6" class="edge">
<title>BB4&#45;&gt;BB5</title>
<path fill="none" stroke="black" d="M432.34,-443.71C432.12,-435.53 431.88,-426.75 431.64,-418.23"/>
<polygon fill="black" stroke="black" points="435.13,-417.91 431.36,-408.01 428.14,-418.1 435.13,-417.91"/>
</g>
<!-- BB6 -->
<g id="node7" class="node">
<title>BB6</title>
<ellipse fill="none" stroke="black" cx="134.35" cy="-259.38" rx="134.2" ry="37.45"/>
<text text-anchor="middle" x="134.35" y="-270.68" font-family="Times New Roman,serif" font-size="14.00">[cf..d7)</text>
<text text-anchor="middle" x="134.35" y="-255.68" font-family="Times New Roman,serif" font-size="14.00">Normalized Count: 9648959.00</text>
<text text-anchor="middle" x="134.35" y="-240.68" font-family="Times New Roman,serif" font-size="14.00">Samples weight: 0.01</text>
</g>
<!-- BB5&#45;&gt;BB6 -->
<g id="edge8" class="edge">
<title>BB5&#45;&gt;BB6</title>
<path fill="none" stroke="black" d="M349.08,-339.42C310.1,-325.07 263.31,-307.85 223.37,-293.15"/>
<polygon fill="black" stroke="black" points="224.5,-289.84 213.91,-289.67 222.08,-296.41 224.5,-289.84"/>
</g>
<!-- BB7 -->
<g id="node8" class="node">
<title>BB7</title>
<ellipse fill="none" stroke="black" cx="430.35" cy="-259.38" rx="143.59" ry="37.45"/>
<text text-anchor="middle" x="430.35" y="-270.68" font-family="Times New Roman,serif" font-size="14.00">[d7..e1)</text>
<text text-anchor="middle" x="430.35" y="-255.68" font-family="Times New Roman,serif" font-size="14.00">Normalized Count: 380863975.00</text>
<text text-anchor="middle" x="430.35" y="-240.68" font-family="Times New Roman,serif" font-size="14.00">Samples weight: 0.45</text>
</g>
<!-- BB5&#45;&gt;BB7 -->
<g id="edge7" class="edge">
<title>BB5&#45;&gt;BB7</title>
<path fill="none" stroke="black" d="M423.93,-332.75C423.62,-324.58 423.53,-315.8 423.66,-307.27"/>
<polygon fill="black" stroke="black" points="427.16,-307.15 423.93,-297.06 420.17,-306.96 427.16,-307.15"/>
</g>
<!-- BB8 -->
<g id="node9" class="node">
<title>BB8</title>
<ellipse fill="none" stroke="black" cx="370.35" cy="-148.43" rx="139.1" ry="37.45"/>
<text text-anchor="middle" x="370.35" y="-159.73" font-family="Times New Roman,serif" font-size="14.00">[e1..eb)</text>
<text text-anchor="middle" x="370.35" y="-144.73" font-family="Times New Roman,serif" font-size="14.00">Normalized Count: 16000000.00</text>
<text text-anchor="middle" x="370.35" y="-129.73" font-family="Times New Roman,serif" font-size="14.00">Samples weight: 0.02</text>
</g>
<!-- BB6&#45;&gt;BB8 -->
<g id="edge9" class="edge">
<title>BB6&#45;&gt;BB8</title>
<path fill="none" stroke="black" d="M202.29,-227.02C230.43,-214.03 263.23,-198.88 292.35,-185.44"/>
<polygon fill="black" stroke="black" points="294.05,-188.51 301.66,-181.14 291.11,-182.16 294.05,-188.51"/>
</g>
<!-- BB7&#45;&gt;BB5 -->
<g id="edge10" class="edge">
<title>BB7&#45;&gt;BB5</title>
<path fill="none" stroke="black" d="M436.77,-297.06C437.08,-305.23 437.17,-314.02 437.04,-322.54"/>
<polygon fill="black" stroke="black" points="433.54,-322.66 436.77,-332.75 440.53,-322.85 433.54,-322.66"/>
</g>
<!-- BB7&#45;&gt;BB8 -->
<g id="edge11" class="edge">
<title>BB7&#45;&gt;BB8</title>
<path fill="none" stroke="black" d="M410.37,-222.1C405.51,-213.28 400.26,-203.74 395.21,-194.57"/>
<polygon fill="black" stroke="black" points="398.13,-192.62 390.24,-185.55 392,-196 398.13,-192.62"/>
</g>
<!-- BB9 -->
<g id="node10" class="node">
<title>BB9</title>
<ellipse fill="none" stroke="black" cx="310.35" cy="-37.48" rx="134.2" ry="37.45"/>
<text text-anchor="middle" x="310.35" y="-48.78" font-family="Times New Roman,serif" font-size="14.00">[eb..100)</text>
<text text-anchor="middle" x="310.35" y="-33.78" font-family="Times New Roman,serif" font-size="14.00">Normalized Count: 2000000.00</text>
<text text-anchor="middle" x="310.35" y="-18.78" font-family="Times New Roman,serif" font-size="14.00">Samples weight: 0.00</text>
</g>
<!-- BB8&#45;&gt;BB9 -->
<g id="edge13" class="edge">
<title>BB8&#45;&gt;BB9</title>
<path fill="none" stroke="black" d="M350.37,-111.15C345.51,-102.33 340.26,-92.79 335.21,-83.61"/>
<polygon fill="black" stroke="black" points="338.13,-81.67 330.24,-74.6 332,-85.05 338.13,-81.67"/>
</g>
<!-- BB10 -->
<g id="node11" class="node">
<title>BB10</title>
<ellipse fill="none" stroke="black" cx="602.35" cy="-37.48" rx="139.1" ry="37.45"/>
<text text-anchor="middle" x="602.35" y="-48.78" font-family="Times New Roman,serif" font-size="14.00">[100..106)</text>
<text text-anchor="middle" x="602.35" y="-33.78" font-family="Times New Roman,serif" font-size="14.00">Normalized Count: 16000000.00</text>
<text text-anchor="middle" x="602.35" y="-18.78" font-family="Times New Roman,serif" font-size="14.00">Samples weight: 0.02</text>
</g>
<!-- BB8&#45;&gt;BB10 -->
<g id="edge12" class="edge">
<title>BB8&#45;&gt;BB10</title>
<path fill="none" stroke="black" d="M438.08,-115.62C465.35,-102.81 496.97,-87.97 525.13,-74.74"/>
<polygon fill="black" stroke="black" points="526.97,-77.74 534.54,-70.32 524,-71.41 526.97,-77.74"/>
</g>
<!-- BB9&#45;&gt;BB10 -->
<g id="edge14" class="edge">
<title>BB9&#45;&gt;BB10</title>
<path fill="none" stroke="black" d="M444.94,-37.48C447.54,-37.48 450.14,-37.48 452.75,-37.48"/>
<polygon fill="black" stroke="black" points="452.78,-40.98 462.78,-37.48 452.78,-33.98 452.78,-40.98"/>
</g>
<!-- BB10&#45;&gt;BB11 -->
<g id="edge15" class="edge">
<title>BB10&#45;&gt;BB11</title>
<path fill="none" stroke="black" d="M602.35,-75.05C602.35,-118.69 602.35,-193.86 602.35,-258.38 602.35,-371.34 602.35,-371.34 602.35,-371.34 602.35,-437.4 597.7,-457.08 621.35,-518.77 625.08,-528.5 630.37,-538.19 636.13,-547.18"/>
<polygon fill="black" stroke="black" points="633.27,-549.2 641.76,-555.55 639.08,-545.29 633.27,-549.2"/>
</g>
<!-- BB11&#45;&gt;BB4 -->
<g id="edge16" class="edge">
<title>BB11&#45;&gt;BB4</title>
<path fill="none" stroke="black" d="M602.19,-559.58C573.95,-546.66 541.15,-531.64 512.01,-518.3"/>
<polygon fill="black" stroke="black" points="513.23,-515.01 502.68,-514.03 510.32,-521.37 513.23,-515.01"/>
</g>
<!-- BB12 -->
<g id="node13" class="node">
<title>BB12</title>
<ellipse fill="none" stroke="black" cx="750.35" cy="-481.29" rx="120.42" ry="37.45"/>
<text text-anchor="middle" x="750.35" y="-492.59" font-family="Times New Roman,serif" font-size="14.00">[10e..112)</text>
<text text-anchor="middle" x="750.35" y="-477.59" font-family="Times New Roman,serif" font-size="14.00">Normalized Count: 4000.00</text>
<text text-anchor="middle" x="750.35" y="-462.59" font-family="Times New Roman,serif" font-size="14.00">Samples weight: 0.00</text>
</g>
<!-- BB11&#45;&gt;BB12 -->
<g id="edge17" class="edge">
<title>BB11&#45;&gt;BB12</title>
<path fill="none" stroke="black" d="M697.44,-555.27C704.11,-546.06 711.36,-536.06 718.3,-526.49"/>
<polygon fill="black" stroke="black" points="721.25,-528.38 724.29,-518.23 715.59,-524.27 721.25,-528.38"/>
</g>
<!-- BB13 -->
<g id="node14" class="node">
<title>BB13</title>
<ellipse fill="none" stroke="black" cx="735.35" cy="-370.34" rx="105.22" ry="37.45"/>
<text text-anchor="middle" x="735.35" y="-381.64" font-family="Times New Roman,serif" font-size="14.00">[112..129)</text>
<text text-anchor="middle" x="735.35" y="-366.64" font-family="Times New Roman,serif" font-size="14.00">Normalized Count: 0.00</text>
<text text-anchor="middle" x="735.35" y="-351.64" font-family="Times New Roman,serif" font-size="14.00">Samples weight: 0.00</text>
</g>
<!-- BB12&#45;&gt;BB13 -->
<g id="edge19" class="edge">
<title>BB12&#45;&gt;BB13</title>
<path fill="none" stroke="black" d="M745.31,-443.71C744.18,-435.44 742.95,-426.56 741.77,-417.95"/>
<polygon fill="black" stroke="black" points="745.23,-417.44 740.4,-408.01 738.3,-418.39 745.23,-417.44"/>
</g>
<!-- BB14 -->
<g id="node15" class="node">
<title>BB14</title>
<ellipse fill="none" stroke="black" cx="979.35" cy="-370.34" rx="120.42" ry="37.45"/>
<text text-anchor="middle" x="979.35" y="-381.64" font-family="Times New Roman,serif" font-size="14.00">[129..12d)</text>
<text text-anchor="middle" x="979.35" y="-366.64" font-family="Times New Roman,serif" font-size="14.00">Normalized Count: 4000.00</text>
<text text-anchor="middle" x="979.35" y="-351.64" font-family="Times New Roman,serif" font-size="14.00">Samples weight: 0.00</text>
</g>
<!-- BB12&#45;&gt;BB14 -->
<g id="edge18" class="edge">
<title>BB12&#45;&gt;BB14</title>
<path fill="none" stroke="black" d="M815.05,-449.51C843.22,-436.1 876.38,-420.33 905.5,-406.47"/>
<polygon fill="black" stroke="black" points="907.28,-409.5 914.81,-402.05 904.27,-403.18 907.28,-409.5"/>
</g>
<!-- BB13&#45;&gt;BB14 -->
<g id="edge20" class="edge">
<title>BB13&#45;&gt;BB14</title>
<path fill="none" stroke="black" d="M841.15,-370.34C843.75,-370.34 846.34,-370.34 848.94,-370.34"/>
<polygon fill="black" stroke="black" points="848.96,-373.84 858.96,-370.34 848.96,-366.84 848.96,-373.84"/>
</g>
<!-- BB14&#45;&gt;BB15 -->
<g id="edge21" class="edge">
<title>BB14&#45;&gt;BB15</title>
<path fill="none" stroke="black" d="M966.41,-407.69C953.96,-444.33 935.68,-502.72 926.35,-554.77 913.25,-627.87 909.14,-714.17 907.88,-766.22"/>
<polygon fill="black" stroke="black" points="904.38,-766.41 907.66,-776.48 911.37,-766.56 904.38,-766.41"/>
</g>
<!-- BB15&#45;&gt;BB3 -->
<g id="edge22" class="edge">
<title>BB15&#45;&gt;BB3</title>
<path fill="none" stroke="black" d="M858.96,-779.57C842.47,-768.13 823.89,-755.23 806.82,-743.38"/>
<polygon fill="black" stroke="black" points="808.79,-740.49 798.58,-737.66 804.8,-746.24 808.79,-740.49"/>
</g>
<!-- BB16 -->
<g id="node17" class="node">
<title>BB16</title>
<ellipse fill="none" stroke="black" cx="1040.35" cy="-703.2" rx="105.22" ry="37.45"/>
<text text-anchor="middle" x="1040.35" y="-714.5" font-family="Times New Roman,serif" font-size="14.00">[134..137)</text>
<text text-anchor="middle" x="1040.35" y="-699.5" font-family="Times New Roman,serif" font-size="14.00">Normalized Count: 1.00</text>
<text text-anchor="middle" x="1040.35" y="-684.5" font-family="Times New Roman,serif" font-size="14.00">Samples weight: 0.00</text>
</g>
<!-- BB15&#45;&gt;BB16 -->
<g id="edge23" class="edge">
<title>BB15&#45;&gt;BB16</title>
<path fill="none" stroke="black" d="M949.07,-778.98C962.44,-768.02 977.37,-755.79 991.23,-744.44"/>
<polygon fill="black" stroke="black" points="993.72,-746.92 999.24,-737.88 989.28,-741.51 993.72,-746.92"/>
</g>
<!-- BB17 -->
<g id="node18" class="node">
<title>BB17</title>
<ellipse fill="none" stroke="black" cx="1040.35" cy="-592.24" rx="105.22" ry="37.45"/>
<text text-anchor="middle" x="1040.35" y="-603.54" font-family="Times New Roman,serif" font-size="14.00">[137..142)</text>
<text text-anchor="middle" x="1040.35" y="-588.54" font-family="Times New Roman,serif" font-size="14.00">Normalized Count: 0.00</text>
<text text-anchor="middle" x="1040.35" y="-573.54" font-family="Times New Roman,serif" font-size="14.00">Samples weight: 0.00</text>
</g>
<!-- BB16&#45;&gt;BB17 -->
<g id="edge25" class="edge">
<title>BB16&#45;&gt;BB17</title>
<path fill="none" stroke="black" d="M1040.35,-665.61C1040.35,-657.44 1040.35,-648.66 1040.35,-640.13"/>
<polygon fill="black" stroke="black" points="1043.85,-639.92 1040.35,-629.92 1036.85,-639.92 1043.85,-639.92"/>
</g>
<!-- BB18 -->
<g id="node19" class="node">
<title>BB18</title>
<ellipse fill="none" stroke="black" cx="1269.35" cy="-592.24" rx="105.22" ry="37.45"/>
<text text-anchor="middle" x="1269.35" y="-603.54" font-family="Times New Roman,serif" font-size="14.00">[142..143)</text>
<text text-anchor="middle" x="1269.35" y="-588.54" font-family="Times New Roman,serif" font-size="14.00">Normalized Count: 1.00</text>
<text text-anchor="middle" x="1269.35" y="-573.54" font-family="Times New Roman,serif" font-size="14.00">Samples weight: 0.00</text>
</g>
<!-- BB16&#45;&gt;BB18 -->
<g id="edge24" class="edge">
<title>BB16&#45;&gt;BB18</title>
<path fill="none" stroke="black" d="M1102.32,-672.71C1131.85,-658.66 1167.33,-641.78 1197.98,-627.2"/>
<polygon fill="black" stroke="black" points="1199.8,-630.21 1207.33,-622.75 1196.8,-623.89 1199.8,-630.21"/>
</g>
<!-- BB17&#45;&gt;BB18 -->
<g id="edge26" class="edge">
<title>BB17&#45;&gt;BB18</title>
<path fill="none" stroke="black" d="M1145.9,-592.24C1148.51,-592.24 1151.11,-592.24 1153.71,-592.24"/>
<polygon fill="black" stroke="black" points="1153.75,-595.74 1163.75,-592.24 1153.75,-588.74 1153.75,-595.74"/>
</g>
</g>
</svg>
