<?xml version="1.0" encoding="UTF-8" standalone="no"?>
<!DOCTYPE svg PUBLIC "-//W3C//DTD SVG 1.1//EN"
 "http://www.w3.org/Graphics/SVG/1.1/DTD/svg11.dtd">
<!-- Generated by graphviz version 2.47.0 (20210316.0004)
 -->
<!-- Title: G Pages: 1 -->
<svg width="906pt" height="1029pt"
 viewBox="0.00 0.00 906.30 1029.33" xmlns="http://www.w3.org/2000/svg" xmlns:xlink="http://www.w3.org/1999/xlink">
<g id="graph0" class="graph" transform="scale(1 1) rotate(0) translate(4 1025.33)">
<title>G</title>
<polygon fill="white" stroke="transparent" points="-4,4 -4,-1025.33 902.3,-1025.33 902.3,4 -4,4"/>
<!-- BB0 -->
<g id="node1" class="node">
<title>BB0</title>
<ellipse fill="none" stroke="black" cx="217.65" cy="-973.25" rx="104.8" ry="48.17"/>
<text text-anchor="middle" x="217.65" y="-992.05" font-family="Times New Roman,serif" font-size="14.00">[0..10)</text>
<text text-anchor="middle" x="217.65" y="-977.05" font-family="Times New Roman,serif" font-size="14.00">Count: 0</text>
<text text-anchor="middle" x="217.65" y="-962.05" font-family="Times New Roman,serif" font-size="14.00">Normalized count: NaN</text>
<text text-anchor="middle" x="217.65" y="-947.05" font-family="Times New Roman,serif" font-size="14.00">Samples weight: 0.00</text>
</g>
<!-- BB1 -->
<g id="node2" class="node">
<title>BB1</title>
<ellipse fill="none" stroke="black" cx="104.65" cy="-841.08" rx="104.8" ry="48.17"/>
<text text-anchor="middle" x="104.65" y="-859.88" font-family="Times New Roman,serif" font-size="14.00">[10..20)</text>
<text text-anchor="middle" x="104.65" y="-844.88" font-family="Times New Roman,serif" font-size="14.00">Count: 0</text>
<text text-anchor="middle" x="104.65" y="-829.88" font-family="Times New Roman,serif" font-size="14.00">Normalized count: NaN</text>
<text text-anchor="middle" x="104.65" y="-814.88" font-family="Times New Roman,serif" font-size="14.00">Samples weight: 0.00</text>
</g>
<!-- BB0&#45;&gt;BB1 -->
<g id="edge2" class="edge">
<title>BB0&#45;&gt;BB1</title>
<path fill="none" stroke="black" d="M179.4,-928.18C169.82,-917.15 159.47,-905.23 149.6,-893.86"/>
<polygon fill="black" stroke="black" points="152.07,-891.36 142.87,-886.11 146.78,-895.95 152.07,-891.36"/>
</g>
<!-- BB2 -->
<g id="node3" class="node">
<title>BB2</title>
<ellipse fill="none" stroke="black" cx="331.65" cy="-841.08" rx="104.8" ry="48.17"/>
<text text-anchor="middle" x="331.65" y="-859.88" font-family="Times New Roman,serif" font-size="14.00">[20..25)</text>
<text text-anchor="middle" x="331.65" y="-844.88" font-family="Times New Roman,serif" font-size="14.00">Count: 0</text>
<text text-anchor="middle" x="331.65" y="-829.88" font-family="Times New Roman,serif" font-size="14.00">Normalized count: NaN</text>
<text text-anchor="middle" x="331.65" y="-814.88" font-family="Times New Roman,serif" font-size="14.00">Samples weight: 0.00</text>
</g>
<!-- BB0&#45;&gt;BB2 -->
<g id="edge1" class="edge">
<title>BB0&#45;&gt;BB2</title>
<path fill="none" stroke="black" d="M256.25,-928.18C265.9,-917.15 276.35,-905.23 286.3,-893.86"/>
<polygon fill="black" stroke="black" points="289.14,-895.93 293.1,-886.11 283.87,-891.32 289.14,-895.93"/>
</g>
<!-- BB1&#45;&gt;BB2 -->
<g id="edge3" class="edge">
<title>BB1&#45;&gt;BB2</title>
<path fill="none" stroke="black" d="M209.73,-841.08C212.05,-841.08 214.37,-841.08 216.69,-841.08"/>
<polygon fill="black" stroke="black" points="216.87,-844.58 226.87,-841.08 216.87,-837.58 216.87,-844.58"/>
</g>
<!-- BB4 -->
<g id="node5" class="node">
<title>BB4</title>
<ellipse fill="none" stroke="black" cx="331.65" cy="-708.92" rx="113.69" ry="48.17"/>
<text text-anchor="middle" x="331.65" y="-727.72" font-family="Times New Roman,serif" font-size="14.00">[3a..3f)</text>
<text text-anchor="middle" x="331.65" y="-712.72" font-family="Times New Roman,serif" font-size="14.00">Count: 141</text>
<text text-anchor="middle" x="331.65" y="-697.72" font-family="Times New Roman,serif" font-size="14.00">Normalized count: Infinity</text>
<text text-anchor="middle" x="331.65" y="-682.72" font-family="Times New Roman,serif" font-size="14.00">Samples weight: 0.33</text>
</g>
<!-- BB2&#45;&gt;BB4 -->
<g id="edge4" class="edge">
<title>BB2&#45;&gt;BB4</title>
<path fill="none" stroke="black" d="M331.65,-792.72C331.65,-784.45 331.65,-775.77 331.65,-767.27"/>
<polygon fill="black" stroke="black" points="335.15,-767.02 331.65,-757.02 328.15,-767.02 335.15,-767.02"/>
</g>
<!-- BB3 -->
<g id="node4" class="node">
<title>BB3</title>
<ellipse fill="none" stroke="black" cx="331.65" cy="-576.75" rx="113.69" ry="48.17"/>
<text text-anchor="middle" x="331.65" y="-595.55" font-family="Times New Roman,serif" font-size="14.00">[25..3a)</text>
<text text-anchor="middle" x="331.65" y="-580.55" font-family="Times New Roman,serif" font-size="14.00">Count: 285</text>
<text text-anchor="middle" x="331.65" y="-565.55" font-family="Times New Roman,serif" font-size="14.00">Normalized count: Infinity</text>
<text text-anchor="middle" x="331.65" y="-550.55" font-family="Times New Roman,serif" font-size="14.00">Samples weight: 0.67</text>
</g>
<!-- BB3&#45;&gt;BB4 -->
<g id="edge5" class="edge">
<title>BB3&#45;&gt;BB4</title>
<path fill="none" stroke="black" d="M338.17,-624.86C338.39,-633.12 338.45,-641.8 338.36,-650.3"/>
<polygon fill="black" stroke="black" points="334.86,-650.49 338.17,-660.55 341.86,-650.62 334.86,-650.49"/>
</g>
<!-- BB4&#45;&gt;BB3 -->
<g id="edge6" class="edge">
<title>BB4&#45;&gt;BB3</title>
<path fill="none" stroke="black" d="M325.13,-660.55C324.91,-652.29 324.85,-643.6 324.94,-635.1"/>
<polygon fill="black" stroke="black" points="328.45,-634.92 325.14,-624.86 321.45,-634.79 328.45,-634.92"/>
</g>
<!-- BB5 -->
<g id="node6" class="node">
<title>BB5</title>
<ellipse fill="none" stroke="black" cx="567.65" cy="-576.75" rx="104.8" ry="48.17"/>
<text text-anchor="middle" x="567.65" y="-595.55" font-family="Times New Roman,serif" font-size="14.00">[3f..49)</text>
<text text-anchor="middle" x="567.65" y="-580.55" font-family="Times New Roman,serif" font-size="14.00">Count: 0</text>
<text text-anchor="middle" x="567.65" y="-565.55" font-family="Times New Roman,serif" font-size="14.00">Normalized count: NaN</text>
<text text-anchor="middle" x="567.65" y="-550.55" font-family="Times New Roman,serif" font-size="14.00">Samples weight: 0.00</text>
</g>
<!-- BB4&#45;&gt;BB5 -->
<g id="edge7" class="edge">
<title>BB4&#45;&gt;BB5</title>
<path fill="none" stroke="black" d="M399.91,-670.27C428.9,-654.28 462.8,-635.58 492.5,-619.2"/>
<polygon fill="black" stroke="black" points="494.51,-622.09 501.58,-614.19 491.13,-615.96 494.51,-622.09"/>
</g>
<!-- BB6 -->
<g id="node7" class="node">
<title>BB6</title>
<ellipse fill="none" stroke="black" cx="453.65" cy="-444.58" rx="104.8" ry="48.17"/>
<text text-anchor="middle" x="453.65" y="-463.38" font-family="Times New Roman,serif" font-size="14.00">[49..59)</text>
<text text-anchor="middle" x="453.65" y="-448.38" font-family="Times New Roman,serif" font-size="14.00">Count: 0</text>
<text text-anchor="middle" x="453.65" y="-433.38" font-family="Times New Roman,serif" font-size="14.00">Normalized count: NaN</text>
<text text-anchor="middle" x="453.65" y="-418.38" font-family="Times New Roman,serif" font-size="14.00">Samples weight: 0.00</text>
</g>
<!-- BB5&#45;&gt;BB6 -->
<g id="edge9" class="edge">
<title>BB5&#45;&gt;BB6</title>
<path fill="none" stroke="black" d="M529.06,-531.68C519.4,-520.65 508.95,-508.73 499,-497.36"/>
<polygon fill="black" stroke="black" points="501.43,-494.82 492.21,-489.61 496.16,-499.43 501.43,-494.82"/>
</g>
<!-- BB7 -->
<g id="node8" class="node">
<title>BB7</title>
<ellipse fill="none" stroke="black" cx="680.65" cy="-444.58" rx="104.8" ry="48.17"/>
<text text-anchor="middle" x="680.65" y="-463.38" font-family="Times New Roman,serif" font-size="14.00">[59..70)</text>
<text text-anchor="middle" x="680.65" y="-448.38" font-family="Times New Roman,serif" font-size="14.00">Count: 0</text>
<text text-anchor="middle" x="680.65" y="-433.38" font-family="Times New Roman,serif" font-size="14.00">Normalized count: NaN</text>
<text text-anchor="middle" x="680.65" y="-418.38" font-family="Times New Roman,serif" font-size="14.00">Samples weight: 0.00</text>
</g>
<!-- BB5&#45;&gt;BB7 -->
<g id="edge8" class="edge">
<title>BB5&#45;&gt;BB7</title>
<path fill="none" stroke="black" d="M605.91,-531.68C615.48,-520.65 625.84,-508.73 635.7,-497.36"/>
<polygon fill="black" stroke="black" points="638.52,-499.45 642.43,-489.61 633.24,-494.86 638.52,-499.45"/>
</g>
<!-- BB6&#45;&gt;BB7 -->
<g id="edge10" class="edge">
<title>BB6&#45;&gt;BB7</title>
<path fill="none" stroke="black" d="M558.73,-444.58C561.05,-444.58 563.37,-444.58 565.69,-444.58"/>
<polygon fill="black" stroke="black" points="565.87,-448.08 575.87,-444.58 565.87,-441.08 565.87,-448.08"/>
</g>
<!-- BB8 -->
<g id="node9" class="node">
<title>BB8</title>
<ellipse fill="none" stroke="black" cx="566.65" cy="-312.42" rx="104.8" ry="48.17"/>
<text text-anchor="middle" x="566.65" y="-331.22" font-family="Times New Roman,serif" font-size="14.00">[70..78)</text>
<text text-anchor="middle" x="566.65" y="-316.22" font-family="Times New Roman,serif" font-size="14.00">Count: 0</text>
<text text-anchor="middle" x="566.65" y="-301.22" font-family="Times New Roman,serif" font-size="14.00">Normalized count: NaN</text>
<text text-anchor="middle" x="566.65" y="-286.22" font-family="Times New Roman,serif" font-size="14.00">Samples weight: 0.00</text>
</g>
<!-- BB7&#45;&gt;BB8 -->
<g id="edge12" class="edge">
<title>BB7&#45;&gt;BB8</title>
<path fill="none" stroke="black" d="M642.06,-399.51C632.4,-388.49 621.95,-376.56 612,-365.2"/>
<polygon fill="black" stroke="black" points="614.43,-362.66 605.21,-357.44 609.16,-367.27 614.43,-362.66"/>
</g>
<!-- BB12 -->
<g id="node13" class="node">
<title>BB12</title>
<ellipse fill="none" stroke="black" cx="793.65" cy="-312.42" rx="104.8" ry="48.17"/>
<text text-anchor="middle" x="793.65" y="-331.22" font-family="Times New Roman,serif" font-size="14.00">[89..8b)</text>
<text text-anchor="middle" x="793.65" y="-316.22" font-family="Times New Roman,serif" font-size="14.00">Count: 0</text>
<text text-anchor="middle" x="793.65" y="-301.22" font-family="Times New Roman,serif" font-size="14.00">Normalized count: NaN</text>
<text text-anchor="middle" x="793.65" y="-286.22" font-family="Times New Roman,serif" font-size="14.00">Samples weight: 0.00</text>
</g>
<!-- BB7&#45;&gt;BB12 -->
<g id="edge11" class="edge">
<title>BB7&#45;&gt;BB12</title>
<path fill="none" stroke="black" d="M718.91,-399.51C728.48,-388.49 738.84,-376.56 748.7,-365.2"/>
<polygon fill="black" stroke="black" points="751.52,-367.29 755.43,-357.44 746.24,-362.7 751.52,-367.29"/>
</g>
<!-- BB9 -->
<g id="node10" class="node">
<title>BB9</title>
<ellipse fill="none" stroke="black" cx="433.65" cy="-180.25" rx="104.8" ry="48.17"/>
<text text-anchor="middle" x="433.65" y="-199.05" font-family="Times New Roman,serif" font-size="14.00">[78..7f)</text>
<text text-anchor="middle" x="433.65" y="-184.05" font-family="Times New Roman,serif" font-size="14.00">Count: 0</text>
<text text-anchor="middle" x="433.65" y="-169.05" font-family="Times New Roman,serif" font-size="14.00">Normalized count: NaN</text>
<text text-anchor="middle" x="433.65" y="-154.05" font-family="Times New Roman,serif" font-size="14.00">Samples weight: 0.00</text>
</g>
<!-- BB8&#45;&gt;BB9 -->
<g id="edge14" class="edge">
<title>BB8&#45;&gt;BB9</title>
<path fill="none" stroke="black" d="M522.73,-268.43C510.59,-256.55 497.31,-243.55 484.79,-231.3"/>
<polygon fill="black" stroke="black" points="487.12,-228.68 477.52,-224.19 482.22,-233.68 487.12,-228.68"/>
</g>
<!-- BB10 -->
<g id="node11" class="node">
<title>BB10</title>
<ellipse fill="none" stroke="black" cx="660.65" cy="-180.25" rx="104.8" ry="48.17"/>
<text text-anchor="middle" x="660.65" y="-199.05" font-family="Times New Roman,serif" font-size="14.00">[7f..84)</text>
<text text-anchor="middle" x="660.65" y="-184.05" font-family="Times New Roman,serif" font-size="14.00">Count: 0</text>
<text text-anchor="middle" x="660.65" y="-169.05" font-family="Times New Roman,serif" font-size="14.00">Normalized count: NaN</text>
<text text-anchor="middle" x="660.65" y="-154.05" font-family="Times New Roman,serif" font-size="14.00">Samples weight: 0.00</text>
</g>
<!-- BB8&#45;&gt;BB10 -->
<g id="edge13" class="edge">
<title>BB8&#45;&gt;BB10</title>
<path fill="none" stroke="black" d="M599,-266.62C606.53,-256.19 614.62,-244.99 622.39,-234.24"/>
<polygon fill="black" stroke="black" points="625.23,-236.28 628.24,-226.13 619.55,-232.19 625.23,-236.28"/>
</g>
<!-- BB11 -->
<g id="node12" class="node">
<title>BB11</title>
<ellipse fill="none" stroke="black" cx="660.65" cy="-48.08" rx="104.8" ry="48.17"/>
<text text-anchor="middle" x="660.65" y="-66.88" font-family="Times New Roman,serif" font-size="14.00">[84..89)</text>
<text text-anchor="middle" x="660.65" y="-51.88" font-family="Times New Roman,serif" font-size="14.00">Count: 0</text>
<text text-anchor="middle" x="660.65" y="-36.88" font-family="Times New Roman,serif" font-size="14.00">Normalized count: NaN</text>
<text text-anchor="middle" x="660.65" y="-21.88" font-family="Times New Roman,serif" font-size="14.00">Samples weight: 0.00</text>
</g>
<!-- BB9&#45;&gt;BB11 -->
<g id="edge15" class="edge">
<title>BB9&#45;&gt;BB11</title>
<path fill="none" stroke="black" d="M498.09,-142.3C525.89,-126.36 558.55,-107.63 587.27,-91.16"/>
<polygon fill="black" stroke="black" points="589.11,-94.14 596.05,-86.13 585.63,-88.07 589.11,-94.14"/>
</g>
<!-- BB10&#45;&gt;BB11 -->
<g id="edge16" class="edge">
<title>BB10&#45;&gt;BB11</title>
<path fill="none" stroke="black" d="M660.65,-131.89C660.65,-123.62 660.65,-114.94 660.65,-106.43"/>
<polygon fill="black" stroke="black" points="664.15,-106.19 660.65,-96.19 657.15,-106.19 664.15,-106.19"/>
</g>
<!-- BB11&#45;&gt;BB12 -->
<g id="edge17" class="edge">
<title>BB11&#45;&gt;BB12</title>
<path fill="none" stroke="black" d="M728.69,-84.71C746.47,-97.32 763.7,-113.18 774.65,-132.17 795.81,-168.84 799.91,-216.81 799.08,-253.89"/>
<polygon fill="black" stroke="black" points="795.57,-253.93 798.72,-264.05 802.57,-254.18 795.57,-253.93"/>
</g>
</g>
</svg>
