<?xml version="1.0" encoding="UTF-8" standalone="no"?>
<!DOCTYPE svg PUBLIC "-//W3C//DTD SVG 1.1//EN"
 "http://www.w3.org/Graphics/SVG/1.1/DTD/svg11.dtd">
<!-- Generated by graphviz version 2.47.0 (20210316.0004)
 -->
<!-- Title: G Pages: 1 -->
<svg width="553pt" height="765pt"
 viewBox="0.00 0.00 552.69 765.00" xmlns="http://www.w3.org/2000/svg" xmlns:xlink="http://www.w3.org/1999/xlink">
<g id="graph0" class="graph" transform="scale(1 1) rotate(0) translate(4 761)">
<title>G</title>
<polygon fill="white" stroke="transparent" points="-4,4 -4,-761 548.69,-761 548.69,4 -4,4"/>
<!-- BB0 -->
<g id="node1" class="node">
<title>BB0</title>
<ellipse fill="none" stroke="black" cx="179.84" cy="-708.92" rx="104.8" ry="48.17"/>
<text text-anchor="middle" x="179.84" y="-727.72" font-family="Times New Roman,serif" font-size="14.00">[0..17)</text>
<text text-anchor="middle" x="179.84" y="-712.72" font-family="Times New Roman,serif" font-size="14.00">Count: 0</text>
<text text-anchor="middle" x="179.84" y="-697.72" font-family="Times New Roman,serif" font-size="14.00">Normalized count: NaN</text>
<text text-anchor="middle" x="179.84" y="-682.72" font-family="Times New Roman,serif" font-size="14.00">Samples weight: 0.00</text>
</g>
<!-- BB5 -->
<g id="node6" class="node">
<title>BB5</title>
<ellipse fill="none" stroke="black" cx="179.84" cy="-576.75" rx="113.69" ry="48.17"/>
<text text-anchor="middle" x="179.84" y="-595.55" font-family="Times New Roman,serif" font-size="14.00">[59..5f)</text>
<text text-anchor="middle" x="179.84" y="-580.55" font-family="Times New Roman,serif" font-size="14.00">Count: 1</text>
<text text-anchor="middle" x="179.84" y="-565.55" font-family="Times New Roman,serif" font-size="14.00">Normalized count: Infinity</text>
<text text-anchor="middle" x="179.84" y="-550.55" font-family="Times New Roman,serif" font-size="14.00">Samples weight: 0.01</text>
</g>
<!-- BB0&#45;&gt;BB5 -->
<g id="edge1" class="edge">
<title>BB0&#45;&gt;BB5</title>
<path fill="none" stroke="black" d="M179.84,-660.55C179.84,-652.29 179.84,-643.6 179.84,-635.1"/>
<polygon fill="black" stroke="black" points="183.34,-634.86 179.84,-624.86 176.34,-634.86 183.34,-634.86"/>
</g>
<!-- BB1 -->
<g id="node2" class="node">
<title>BB1</title>
<ellipse fill="none" stroke="black" cx="415.84" cy="-444.58" rx="113.69" ry="48.17"/>
<text text-anchor="middle" x="415.84" y="-463.38" font-family="Times New Roman,serif" font-size="14.00">[17..28)</text>
<text text-anchor="middle" x="415.84" y="-448.38" font-family="Times New Roman,serif" font-size="14.00">Count: 34</text>
<text text-anchor="middle" x="415.84" y="-433.38" font-family="Times New Roman,serif" font-size="14.00">Normalized count: Infinity</text>
<text text-anchor="middle" x="415.84" y="-418.38" font-family="Times New Roman,serif" font-size="14.00">Samples weight: 0.18</text>
</g>
<!-- BB2 -->
<g id="node3" class="node">
<title>BB2</title>
<ellipse fill="none" stroke="black" cx="184.84" cy="-312.42" rx="113.69" ry="48.17"/>
<text text-anchor="middle" x="184.84" y="-331.22" font-family="Times New Roman,serif" font-size="14.00">[28..38)</text>
<text text-anchor="middle" x="184.84" y="-316.22" font-family="Times New Roman,serif" font-size="14.00">Count: 11</text>
<text text-anchor="middle" x="184.84" y="-301.22" font-family="Times New Roman,serif" font-size="14.00">Normalized count: Infinity</text>
<text text-anchor="middle" x="184.84" y="-286.22" font-family="Times New Roman,serif" font-size="14.00">Samples weight: 0.06</text>
</g>
<!-- BB1&#45;&gt;BB2 -->
<g id="edge3" class="edge">
<title>BB1&#45;&gt;BB2</title>
<path fill="none" stroke="black" d="M348.41,-405.58C321.13,-390.21 289.5,-372.39 261.37,-356.54"/>
<polygon fill="black" stroke="black" points="262.79,-353.32 252.36,-351.46 259.36,-359.42 262.79,-353.32"/>
</g>
<!-- BB7 -->
<g id="node8" class="node">
<title>BB7</title>
<ellipse fill="none" stroke="black" cx="430.84" cy="-312.42" rx="113.69" ry="48.17"/>
<text text-anchor="middle" x="430.84" y="-331.22" font-family="Times New Roman,serif" font-size="14.00">[64..68)</text>
<text text-anchor="middle" x="430.84" y="-316.22" font-family="Times New Roman,serif" font-size="14.00">Count: 2</text>
<text text-anchor="middle" x="430.84" y="-301.22" font-family="Times New Roman,serif" font-size="14.00">Normalized count: Infinity</text>
<text text-anchor="middle" x="430.84" y="-286.22" font-family="Times New Roman,serif" font-size="14.00">Samples weight: 0.01</text>
</g>
<!-- BB1&#45;&gt;BB7 -->
<g id="edge2" class="edge">
<title>BB1&#45;&gt;BB7</title>
<path fill="none" stroke="black" d="M421.3,-396.22C422.27,-387.86 423.28,-379.08 424.27,-370.49"/>
<polygon fill="black" stroke="black" points="427.75,-370.86 425.42,-360.52 420.79,-370.06 427.75,-370.86"/>
</g>
<!-- BB3 -->
<g id="node4" class="node">
<title>BB3</title>
<ellipse fill="none" stroke="black" cx="184.84" cy="-180.25" rx="113.69" ry="48.17"/>
<text text-anchor="middle" x="184.84" y="-199.05" font-family="Times New Roman,serif" font-size="14.00">[38..51)</text>
<text text-anchor="middle" x="184.84" y="-184.05" font-family="Times New Roman,serif" font-size="14.00">Count: 129</text>
<text text-anchor="middle" x="184.84" y="-169.05" font-family="Times New Roman,serif" font-size="14.00">Normalized count: Infinity</text>
<text text-anchor="middle" x="184.84" y="-154.05" font-family="Times New Roman,serif" font-size="14.00">Samples weight: 0.70</text>
</g>
<!-- BB2&#45;&gt;BB3 -->
<g id="edge5" class="edge">
<title>BB2&#45;&gt;BB3</title>
<path fill="none" stroke="black" d="M184.84,-264.05C184.84,-255.79 184.84,-247.1 184.84,-238.6"/>
<polygon fill="black" stroke="black" points="188.34,-238.36 184.84,-228.36 181.34,-238.36 188.34,-238.36"/>
</g>
<!-- BB6 -->
<g id="node7" class="node">
<title>BB6</title>
<ellipse fill="none" stroke="black" cx="179.84" cy="-444.58" rx="104.8" ry="48.17"/>
<text text-anchor="middle" x="179.84" y="-463.38" font-family="Times New Roman,serif" font-size="14.00">[5f..64)</text>
<text text-anchor="middle" x="179.84" y="-448.38" font-family="Times New Roman,serif" font-size="14.00">Count: 0</text>
<text text-anchor="middle" x="179.84" y="-433.38" font-family="Times New Roman,serif" font-size="14.00">Normalized count: NaN</text>
<text text-anchor="middle" x="179.84" y="-418.38" font-family="Times New Roman,serif" font-size="14.00">Samples weight: 0.00</text>
</g>
<!-- BB2&#45;&gt;BB6 -->
<g id="edge4" class="edge">
<title>BB2&#45;&gt;BB6</title>
<path fill="none" stroke="black" d="M183.03,-360.52C182.72,-368.78 182.38,-377.46 182.06,-385.97"/>
<polygon fill="black" stroke="black" points="178.55,-386.09 181.66,-396.22 185.54,-386.36 178.55,-386.09"/>
</g>
<!-- BB4 -->
<g id="node5" class="node">
<title>BB4</title>
<ellipse fill="none" stroke="black" cx="113.84" cy="-48.08" rx="113.69" ry="48.17"/>
<text text-anchor="middle" x="113.84" y="-66.88" font-family="Times New Roman,serif" font-size="14.00">[51..59)</text>
<text text-anchor="middle" x="113.84" y="-51.88" font-family="Times New Roman,serif" font-size="14.00">Count: 5</text>
<text text-anchor="middle" x="113.84" y="-36.88" font-family="Times New Roman,serif" font-size="14.00">Normalized count: Infinity</text>
<text text-anchor="middle" x="113.84" y="-21.88" font-family="Times New Roman,serif" font-size="14.00">Samples weight: 0.03</text>
</g>
<!-- BB3&#45;&gt;BB4 -->
<g id="edge7" class="edge">
<title>BB3&#45;&gt;BB4</title>
<path fill="none" stroke="black" d="M159.61,-132.99C154.54,-123.69 149.16,-113.82 143.94,-104.25"/>
<polygon fill="black" stroke="black" points="146.86,-102.3 138.99,-95.19 140.71,-105.65 146.86,-102.3"/>
</g>
<!-- BB8 -->
<g id="node9" class="node">
<title>BB8</title>
<ellipse fill="none" stroke="black" cx="430.84" cy="-180.25" rx="113.69" ry="48.17"/>
<text text-anchor="middle" x="430.84" y="-199.05" font-family="Times New Roman,serif" font-size="14.00">[68..69)</text>
<text text-anchor="middle" x="430.84" y="-184.05" font-family="Times New Roman,serif" font-size="14.00">Count: 2</text>
<text text-anchor="middle" x="430.84" y="-169.05" font-family="Times New Roman,serif" font-size="14.00">Normalized count: Infinity</text>
<text text-anchor="middle" x="430.84" y="-154.05" font-family="Times New Roman,serif" font-size="14.00">Samples weight: 0.01</text>
</g>
<!-- BB3&#45;&gt;BB8 -->
<g id="edge6" class="edge">
<title>BB3&#45;&gt;BB8</title>
<path fill="none" stroke="black" d="M298.72,-180.25C301.35,-180.25 303.98,-180.25 306.62,-180.25"/>
<polygon fill="black" stroke="black" points="306.78,-183.75 316.78,-180.25 306.78,-176.75 306.78,-183.75"/>
</g>
<!-- BB4&#45;&gt;BB5 -->
<g id="edge8" class="edge">
<title>BB4&#45;&gt;BB5</title>
<path fill="none" stroke="black" d="M79.23,-94.34C72.09,-106.06 65.6,-119.08 61.84,-132.17 45.34,-189.65 47.88,-458.63 65.84,-492.67 74.06,-508.24 86.65,-521.61 100.52,-532.8"/>
<polygon fill="black" stroke="black" points="98.73,-535.84 108.8,-539.14 102.98,-530.28 98.73,-535.84"/>
</g>
<!-- BB5&#45;&gt;BB1 -->
<g id="edge9" class="edge">
<title>BB5&#45;&gt;BB1</title>
<path fill="none" stroke="black" d="M248.11,-538.1C276.48,-522.45 309.55,-504.21 338.79,-488.08"/>
<polygon fill="black" stroke="black" points="340.67,-491.04 347.74,-483.15 337.29,-484.91 340.67,-491.04"/>
</g>
<!-- BB5&#45;&gt;BB6 -->
<g id="edge10" class="edge">
<title>BB5&#45;&gt;BB6</title>
<path fill="none" stroke="black" d="M179.84,-528.39C179.84,-520.12 179.84,-511.44 179.84,-502.93"/>
<polygon fill="black" stroke="black" points="183.34,-502.69 179.84,-492.69 176.34,-502.69 183.34,-502.69"/>
</g>
<!-- BB7&#45;&gt;BB8 -->
<g id="edge11" class="edge">
<title>BB7&#45;&gt;BB8</title>
<path fill="none" stroke="black" d="M430.84,-264.05C430.84,-255.79 430.84,-247.1 430.84,-238.6"/>
<polygon fill="black" stroke="black" points="434.34,-238.36 430.84,-228.36 427.34,-238.36 434.34,-238.36"/>
</g>
</g>
</svg>
