<?xml version="1.0" encoding="UTF-8" standalone="no"?>
<!DOCTYPE svg PUBLIC "-//W3C//DTD SVG 1.1//EN"
 "http://www.w3.org/Graphics/SVG/1.1/DTD/svg11.dtd">
<!-- Generated by graphviz version 2.47.0 (20210316.0004)
 -->
<!-- Title: G Pages: 1 -->
<svg width="224pt" height="510pt"
 viewBox="0.00 0.00 223.85 510.44" xmlns="http://www.w3.org/2000/svg" xmlns:xlink="http://www.w3.org/1999/xlink">
<g id="graph0" class="graph" transform="scale(1 1) rotate(0) translate(4 506.44)">
<title>G</title>
<polygon fill="white" stroke="transparent" points="-4,4 -4,-506.44 219.85,-506.44 219.85,4 -4,4"/>
<!-- BB0 -->
<g id="node1" class="node">
<title>BB0</title>
<ellipse fill="none" stroke="black" cx="126.43" cy="-475.57" rx="33.47" ry="26.74"/>
<text text-anchor="middle" x="126.43" y="-479.37" font-family="Times New Roman,serif" font-size="14.00">[0..4)</text>
<text text-anchor="middle" x="126.43" y="-464.37" font-family="Times New Roman,serif" font-size="14.00">0.01</text>
</g>
<!-- BB1 -->
<g id="node2" class="node">
<title>BB1</title>
<ellipse fill="none" stroke="black" cx="80.43" cy="-385.83" rx="32.55" ry="26.74"/>
<text text-anchor="middle" x="80.43" y="-389.63" font-family="Times New Roman,serif" font-size="14.00">[4..e)</text>
<text text-anchor="middle" x="80.43" y="-374.63" font-family="Times New Roman,serif" font-size="14.00">0.08</text>
</g>
<!-- BB0&#45;&gt;BB1 -->
<g id="edge2" class="edge">
<title>BB0&#45;&gt;BB1</title>
<path fill="none" stroke="black" d="M113.86,-450.6C108.89,-441.12 103.09,-430.07 97.74,-419.85"/>
<polygon fill="black" stroke="black" points="100.72,-418.01 92.98,-410.78 94.52,-421.26 100.72,-418.01"/>
</g>
<!-- BB7 -->
<g id="node8" class="node">
<title>BB7</title>
<ellipse fill="none" stroke="black" cx="173.43" cy="-385.83" rx="42.35" ry="26.74"/>
<text text-anchor="middle" x="173.43" y="-389.63" font-family="Times New Roman,serif" font-size="14.00">[58..59)</text>
<text text-anchor="middle" x="173.43" y="-374.63" font-family="Times New Roman,serif" font-size="14.00">0.00</text>
</g>
<!-- BB0&#45;&gt;BB7 -->
<g id="edge1" class="edge">
<title>BB0&#45;&gt;BB7</title>
<path fill="none" stroke="black" d="M139.27,-450.6C144.26,-441.27 150.07,-430.43 155.47,-420.36"/>
<polygon fill="black" stroke="black" points="158.64,-421.86 160.27,-411.39 152.46,-418.55 158.64,-421.86"/>
</g>
<!-- BB2 -->
<g id="node3" class="node">
<title>BB2</title>
<ellipse fill="none" stroke="black" cx="80.43" cy="-296.09" rx="37.45" ry="26.74"/>
<text text-anchor="middle" x="80.43" y="-299.89" font-family="Times New Roman,serif" font-size="14.00">[e..18)</text>
<text text-anchor="middle" x="80.43" y="-284.89" font-family="Times New Roman,serif" font-size="14.00">0.33</text>
</g>
<!-- BB1&#45;&gt;BB2 -->
<g id="edge3" class="edge">
<title>BB1&#45;&gt;BB2</title>
<path fill="none" stroke="black" d="M80.43,-358.51C80.43,-350.54 80.43,-341.65 80.43,-333.16"/>
<polygon fill="black" stroke="black" points="83.93,-333.09 80.43,-323.09 76.93,-333.09 83.93,-333.09"/>
</g>
<!-- BB2&#45;&gt;BB2 -->
<g id="edge4" class="edge">
<title>BB2&#45;&gt;BB2</title>
<path fill="none" stroke="black" d="M110.39,-312.3C124.04,-313.95 135.9,-308.55 135.9,-296.09 135.9,-286.84 129.37,-281.48 120.42,-280.01"/>
<polygon fill="black" stroke="black" points="120.43,-276.51 110.39,-279.88 120.34,-283.51 120.43,-276.51"/>
</g>
<!-- BB3 -->
<g id="node4" class="node">
<title>BB3</title>
<ellipse fill="none" stroke="black" cx="85.43" cy="-206.35" rx="42.35" ry="26.74"/>
<text text-anchor="middle" x="85.43" y="-210.15" font-family="Times New Roman,serif" font-size="14.00">[18..22)</text>
<text text-anchor="middle" x="85.43" y="-195.15" font-family="Times New Roman,serif" font-size="14.00">0.33</text>
</g>
<!-- BB2&#45;&gt;BB3 -->
<g id="edge5" class="edge">
<title>BB2&#45;&gt;BB3</title>
<path fill="none" stroke="black" d="M81.9,-269.24C82.36,-261.19 82.87,-252.16 83.36,-243.54"/>
<polygon fill="black" stroke="black" points="86.87,-243.5 83.95,-233.32 79.88,-243.1 86.87,-243.5"/>
</g>
<!-- BB3&#45;&gt;BB3 -->
<g id="edge6" class="edge">
<title>BB3&#45;&gt;BB3</title>
<path fill="none" stroke="black" d="M119.29,-222.68C133.63,-223.91 145.85,-218.47 145.85,-206.35 145.85,-197.26 138.98,-191.93 129.49,-190.35"/>
<polygon fill="black" stroke="black" points="129.39,-186.84 119.29,-190.02 129.17,-193.84 129.39,-186.84"/>
</g>
<!-- BB4 -->
<g id="node5" class="node">
<title>BB4</title>
<ellipse fill="none" stroke="black" cx="85.43" cy="-116.61" rx="42.35" ry="26.74"/>
<text text-anchor="middle" x="85.43" y="-120.41" font-family="Times New Roman,serif" font-size="14.00">[22..26)</text>
<text text-anchor="middle" x="85.43" y="-105.41" font-family="Times New Roman,serif" font-size="14.00">0.05</text>
</g>
<!-- BB3&#45;&gt;BB4 -->
<g id="edge7" class="edge">
<title>BB3&#45;&gt;BB4</title>
<path fill="none" stroke="black" d="M85.43,-179.03C85.43,-171.06 85.43,-162.17 85.43,-153.68"/>
<polygon fill="black" stroke="black" points="88.93,-153.61 85.43,-143.61 81.93,-153.61 88.93,-153.61"/>
</g>
<!-- BB5 -->
<g id="node6" class="node">
<title>BB5</title>
<ellipse fill="none" stroke="black" cx="42.43" cy="-26.87" rx="42.35" ry="26.74"/>
<text text-anchor="middle" x="42.43" y="-30.67" font-family="Times New Roman,serif" font-size="14.00">[26..36)</text>
<text text-anchor="middle" x="42.43" y="-15.67" font-family="Times New Roman,serif" font-size="14.00">0.12</text>
</g>
<!-- BB4&#45;&gt;BB5 -->
<g id="edge9" class="edge">
<title>BB4&#45;&gt;BB5</title>
<path fill="none" stroke="black" d="M73.22,-90.7C68.86,-81.81 63.87,-71.63 59.2,-62.09"/>
<polygon fill="black" stroke="black" points="62.21,-60.28 54.66,-52.84 55.92,-63.36 62.21,-60.28"/>
</g>
<!-- BB6 -->
<g id="node7" class="node">
<title>BB6</title>
<ellipse fill="none" stroke="black" cx="159.43" cy="-26.87" rx="42.35" ry="26.74"/>
<text text-anchor="middle" x="159.43" y="-30.67" font-family="Times New Roman,serif" font-size="14.00">[36..58)</text>
<text text-anchor="middle" x="159.43" y="-15.67" font-family="Times New Roman,serif" font-size="14.00">0.09</text>
</g>
<!-- BB4&#45;&gt;BB6 -->
<g id="edge8" class="edge">
<title>BB4&#45;&gt;BB6</title>
<path fill="none" stroke="black" d="M104.87,-92.56C113.55,-82.26 123.92,-69.97 133.27,-58.89"/>
<polygon fill="black" stroke="black" points="136.09,-60.97 139.86,-51.07 130.73,-56.46 136.09,-60.97"/>
</g>
<!-- BB5&#45;&gt;BB2 -->
<g id="edge10" class="edge">
<title>BB5&#45;&gt;BB2</title>
<path fill="none" stroke="black" d="M35.77,-53.65C26.74,-93.36 13.97,-171.41 34.43,-233.22 38.3,-244.92 45.33,-256.2 52.75,-265.85"/>
<polygon fill="black" stroke="black" points="50.27,-268.35 59.31,-273.89 55.7,-263.93 50.27,-268.35"/>
</g>
<!-- BB6&#45;&gt;BB7 -->
<g id="edge11" class="edge">
<title>BB6&#45;&gt;BB7</title>
<path fill="none" stroke="black" d="M160.46,-54.21C162.93,-117.18 169.18,-276.48 172,-348.5"/>
<polygon fill="black" stroke="black" points="168.52,-349.02 172.41,-358.87 175.51,-348.74 168.52,-349.02"/>
</g>
</g>
</svg>
