<?xml version="1.0" encoding="UTF-8" standalone="no"?>
<!DOCTYPE svg PUBLIC "-//W3C//DTD SVG 1.1//EN"
 "http://www.w3.org/Graphics/SVG/1.1/DTD/svg11.dtd">
<!-- Generated by graphviz version 2.47.0 (20210316.0004)
 -->
<!-- Title: G Pages: 1 -->
<svg width="714pt" height="860pt"
 viewBox="0.00 0.00 713.72 859.63" xmlns="http://www.w3.org/2000/svg" xmlns:xlink="http://www.w3.org/1999/xlink">
<g id="graph0" class="graph" transform="scale(1 1) rotate(0) translate(4 855.63)">
<title>G</title>
<polygon fill="white" stroke="transparent" points="-4,4 -4,-855.63 709.72,-855.63 709.72,4 -4,4"/>
<!-- BB0 -->
<g id="node1" class="node">
<title>BB0</title>
<ellipse fill="none" stroke="black" cx="467.36" cy="-814.15" rx="105.22" ry="37.45"/>
<text text-anchor="middle" x="467.36" y="-825.45" font-family="Times New Roman,serif" font-size="14.00">[0..1d)</text>
<text text-anchor="middle" x="467.36" y="-810.45" font-family="Times New Roman,serif" font-size="14.00">Normalized Count: 1.00</text>
<text text-anchor="middle" x="467.36" y="-795.45" font-family="Times New Roman,serif" font-size="14.00">Samples weight: 0.00</text>
</g>
<!-- BB10 -->
<g id="node11" class="node">
<title>BB10</title>
<ellipse fill="none" stroke="black" cx="467.36" cy="-703.2" rx="105.22" ry="37.45"/>
<text text-anchor="middle" x="467.36" y="-714.5" font-family="Times New Roman,serif" font-size="14.00">[88..97)</text>
<text text-anchor="middle" x="467.36" y="-699.5" font-family="Times New Roman,serif" font-size="14.00">Normalized Count: 2.00</text>
<text text-anchor="middle" x="467.36" y="-684.5" font-family="Times New Roman,serif" font-size="14.00">Samples weight: 0.00</text>
</g>
<!-- BB0&#45;&gt;BB10 -->
<g id="edge1" class="edge">
<title>BB0&#45;&gt;BB10</title>
<path fill="none" stroke="black" d="M467.36,-776.57C467.36,-768.39 467.36,-759.61 467.36,-751.09"/>
<polygon fill="black" stroke="black" points="470.86,-750.87 467.36,-740.87 463.86,-750.87 470.86,-750.87"/>
</g>
<!-- BB1 -->
<g id="node2" class="node">
<title>BB1</title>
<ellipse fill="none" stroke="black" cx="334.36" cy="-592.24" rx="105.22" ry="37.45"/>
<text text-anchor="middle" x="334.36" y="-603.54" font-family="Times New Roman,serif" font-size="14.00">[1d..30)</text>
<text text-anchor="middle" x="334.36" y="-588.54" font-family="Times New Roman,serif" font-size="14.00">Normalized Count: 1.00</text>
<text text-anchor="middle" x="334.36" y="-573.54" font-family="Times New Roman,serif" font-size="14.00">Samples weight: 0.00</text>
</g>
<!-- BB2 -->
<g id="node3" class="node">
<title>BB2</title>
<ellipse fill="none" stroke="black" cx="105.36" cy="-481.29" rx="105.22" ry="37.45"/>
<text text-anchor="middle" x="105.36" y="-492.59" font-family="Times New Roman,serif" font-size="14.00">[30..46)</text>
<text text-anchor="middle" x="105.36" y="-477.59" font-family="Times New Roman,serif" font-size="14.00">Normalized Count: 0.88</text>
<text text-anchor="middle" x="105.36" y="-462.59" font-family="Times New Roman,serif" font-size="14.00">Samples weight: 0.00</text>
</g>
<!-- BB1&#45;&gt;BB2 -->
<g id="edge3" class="edge">
<title>BB1&#45;&gt;BB2</title>
<path fill="none" stroke="black" d="M272.39,-561.76C242.86,-547.71 207.38,-530.83 176.72,-516.24"/>
<polygon fill="black" stroke="black" points="177.91,-512.93 167.38,-511.8 174.91,-519.25 177.91,-512.93"/>
</g>
<!-- BB4 -->
<g id="node5" class="node">
<title>BB4</title>
<ellipse fill="none" stroke="black" cx="334.36" cy="-481.29" rx="105.22" ry="37.45"/>
<text text-anchor="middle" x="334.36" y="-492.59" font-family="Times New Roman,serif" font-size="14.00">[49..4e)</text>
<text text-anchor="middle" x="334.36" y="-477.59" font-family="Times New Roman,serif" font-size="14.00">Normalized Count: 1.00</text>
<text text-anchor="middle" x="334.36" y="-462.59" font-family="Times New Roman,serif" font-size="14.00">Samples weight: 0.00</text>
</g>
<!-- BB1&#45;&gt;BB4 -->
<g id="edge2" class="edge">
<title>BB1&#45;&gt;BB4</title>
<path fill="none" stroke="black" d="M334.36,-554.66C334.36,-546.49 334.36,-537.71 334.36,-529.18"/>
<polygon fill="black" stroke="black" points="337.86,-528.96 334.36,-518.96 330.86,-528.96 337.86,-528.96"/>
</g>
<!-- BB3 -->
<g id="node4" class="node">
<title>BB3</title>
<ellipse fill="none" stroke="black" cx="157.36" cy="-370.34" rx="105.22" ry="37.45"/>
<text text-anchor="middle" x="157.36" y="-381.64" font-family="Times New Roman,serif" font-size="14.00">[46..49)</text>
<text text-anchor="middle" x="157.36" y="-366.64" font-family="Times New Roman,serif" font-size="14.00">Normalized Count: 0.88</text>
<text text-anchor="middle" x="157.36" y="-351.64" font-family="Times New Roman,serif" font-size="14.00">Samples weight: 0.00</text>
</g>
<!-- BB2&#45;&gt;BB3 -->
<g id="edge5" class="edge">
<title>BB2&#45;&gt;BB3</title>
<path fill="none" stroke="black" d="M122.53,-444.31C126.75,-435.48 131.31,-425.91 135.71,-416.7"/>
<polygon fill="black" stroke="black" points="138.88,-418.18 140.03,-407.65 132.56,-415.17 138.88,-418.18"/>
</g>
<!-- BB2&#45;&gt;BB4 -->
<g id="edge4" class="edge">
<title>BB2&#45;&gt;BB4</title>
<path fill="none" stroke="black" d="M210.91,-481.29C213.52,-481.29 216.12,-481.29 218.72,-481.29"/>
<polygon fill="black" stroke="black" points="218.76,-484.79 228.76,-481.29 218.76,-477.79 218.76,-484.79"/>
</g>
<!-- BB3&#45;&gt;BB4 -->
<g id="edge6" class="edge">
<title>BB3&#45;&gt;BB4</title>
<path fill="none" stroke="black" d="M209.09,-403.18C229.46,-415.72 252.98,-430.2 274.11,-443.2"/>
<polygon fill="black" stroke="black" points="272.34,-446.22 282.69,-448.48 276.01,-440.26 272.34,-446.22"/>
</g>
<!-- BB9 -->
<g id="node10" class="node">
<title>BB9</title>
<ellipse fill="none" stroke="black" cx="441.36" cy="-370.34" rx="134.2" ry="37.45"/>
<text text-anchor="middle" x="441.36" y="-381.64" font-family="Times New Roman,serif" font-size="14.00">[83..88)</text>
<text text-anchor="middle" x="441.36" y="-366.64" font-family="Times New Roman,serif" font-size="14.00">Normalized Count: 2408380.75</text>
<text text-anchor="middle" x="441.36" y="-351.64" font-family="Times New Roman,serif" font-size="14.00">Samples weight: 0.25</text>
</g>
<!-- BB4&#45;&gt;BB9 -->
<g id="edge7" class="edge">
<title>BB4&#45;&gt;BB9</title>
<path fill="none" stroke="black" d="M368.51,-445.52C378.25,-435.59 388.99,-424.66 399.15,-414.31"/>
<polygon fill="black" stroke="black" points="401.92,-416.49 406.43,-406.9 396.93,-411.58 401.92,-416.49"/>
</g>
<!-- BB5 -->
<g id="node6" class="node">
<title>BB5</title>
<ellipse fill="none" stroke="black" cx="360.36" cy="-259.38" rx="134.2" ry="37.45"/>
<text text-anchor="middle" x="360.36" y="-270.68" font-family="Times New Roman,serif" font-size="14.00">[4e..5b)</text>
<text text-anchor="middle" x="360.36" y="-255.68" font-family="Times New Roman,serif" font-size="14.00">Normalized Count: 2477880.88</text>
<text text-anchor="middle" x="360.36" y="-240.68" font-family="Times New Roman,serif" font-size="14.00">Samples weight: 0.26</text>
</g>
<!-- BB6 -->
<g id="node7" class="node">
<title>BB6</title>
<ellipse fill="none" stroke="black" cx="235.36" cy="-148.43" rx="134.2" ry="37.45"/>
<text text-anchor="middle" x="235.36" y="-159.73" font-family="Times New Roman,serif" font-size="14.00">[5b..7a)</text>
<text text-anchor="middle" x="235.36" y="-144.73" font-family="Times New Roman,serif" font-size="14.00">Normalized Count: 2346507.12</text>
<text text-anchor="middle" x="235.36" y="-129.73" font-family="Times New Roman,serif" font-size="14.00">Samples weight: 0.24</text>
</g>
<!-- BB5&#45;&gt;BB6 -->
<g id="edge9" class="edge">
<title>BB5&#45;&gt;BB6</title>
<path fill="none" stroke="black" d="M320.12,-223.31C308.41,-213.1 295.5,-201.85 283.37,-191.27"/>
<polygon fill="black" stroke="black" points="285.36,-188.37 275.52,-184.44 280.76,-193.65 285.36,-188.37"/>
</g>
<!-- BB8 -->
<g id="node9" class="node">
<title>BB8</title>
<ellipse fill="none" stroke="black" cx="522.36" cy="-148.43" rx="134.2" ry="37.45"/>
<text text-anchor="middle" x="522.36" y="-159.73" font-family="Times New Roman,serif" font-size="14.00">[7d..83)</text>
<text text-anchor="middle" x="522.36" y="-144.73" font-family="Times New Roman,serif" font-size="14.00">Normalized Count: 2413240.62</text>
<text text-anchor="middle" x="522.36" y="-129.73" font-family="Times New Roman,serif" font-size="14.00">Samples weight: 0.25</text>
</g>
<!-- BB5&#45;&gt;BB8 -->
<g id="edge8" class="edge">
<title>BB5&#45;&gt;BB8</title>
<path fill="none" stroke="black" d="M410.73,-224.51C427.49,-213.23 446.31,-200.58 463.64,-188.92"/>
<polygon fill="black" stroke="black" points="465.68,-191.77 472.02,-183.29 461.77,-185.96 465.68,-191.77"/>
</g>
<!-- BB7 -->
<g id="node8" class="node">
<title>BB7</title>
<ellipse fill="none" stroke="black" cx="378.36" cy="-37.48" rx="110.12" ry="37.45"/>
<text text-anchor="middle" x="378.36" y="-48.78" font-family="Times New Roman,serif" font-size="14.00">[7a..7d)</text>
<text text-anchor="middle" x="378.36" y="-33.78" font-family="Times New Roman,serif" font-size="14.00">Normalized Count: 19.38</text>
<text text-anchor="middle" x="378.36" y="-18.78" font-family="Times New Roman,serif" font-size="14.00">Samples weight: 0.00</text>
</g>
<!-- BB6&#45;&gt;BB7 -->
<g id="edge11" class="edge">
<title>BB6&#45;&gt;BB7</title>
<path fill="none" stroke="black" d="M280.61,-112.96C295.1,-101.91 311.27,-89.59 326.22,-78.2"/>
<polygon fill="black" stroke="black" points="328.55,-80.83 334.38,-71.98 324.31,-75.26 328.55,-80.83"/>
</g>
<!-- BB6&#45;&gt;BB8 -->
<g id="edge10" class="edge">
<title>BB6&#45;&gt;BB8</title>
<path fill="none" stroke="black" d="M369.89,-148.43C372.5,-148.43 375.1,-148.43 377.71,-148.43"/>
<polygon fill="black" stroke="black" points="377.76,-151.93 387.76,-148.43 377.76,-144.93 377.76,-151.93"/>
</g>
<!-- BB7&#45;&gt;BB8 -->
<g id="edge12" class="edge">
<title>BB7&#45;&gt;BB8</title>
<path fill="none" stroke="black" d="M422.64,-71.98C437.14,-82.95 453.41,-95.26 468.53,-106.7"/>
<polygon fill="black" stroke="black" points="466.71,-109.71 476.8,-112.96 470.93,-104.13 466.71,-109.71"/>
</g>
<!-- BB8&#45;&gt;BB9 -->
<g id="edge13" class="edge">
<title>BB8&#45;&gt;BB9</title>
<path fill="none" stroke="black" d="M523.36,-186.13C522.89,-216.95 519.07,-261.48 503.36,-296.86 498.73,-307.28 492.11,-317.33 484.9,-326.47"/>
<polygon fill="black" stroke="black" points="482.14,-324.31 478.45,-334.24 487.53,-328.78 482.14,-324.31"/>
</g>
<!-- BB9&#45;&gt;BB5 -->
<g id="edge14" class="edge">
<title>BB9&#45;&gt;BB5</title>
<path fill="none" stroke="black" d="M414.61,-333.36C407.77,-324.15 400.33,-314.15 393.22,-304.58"/>
<polygon fill="black" stroke="black" points="395.85,-302.26 387.08,-296.32 390.24,-306.44 395.85,-302.26"/>
</g>
<!-- BB9&#45;&gt;BB10 -->
<g id="edge15" class="edge">
<title>BB9&#45;&gt;BB10</title>
<path fill="none" stroke="black" d="M445.05,-407.82C446.17,-419.33 447.36,-432.1 448.36,-443.81 454.63,-517.61 460.7,-603.37 464.23,-655.17"/>
<polygon fill="black" stroke="black" points="460.75,-655.64 464.92,-665.38 467.73,-655.16 460.75,-655.64"/>
</g>
<!-- BB10&#45;&gt;BB1 -->
<g id="edge16" class="edge">
<title>BB10&#45;&gt;BB1</title>
<path fill="none" stroke="black" d="M426.37,-668.62C412.72,-657.43 397.37,-644.86 383.19,-633.24"/>
<polygon fill="black" stroke="black" points="385.4,-630.53 375.44,-626.9 380.96,-635.94 385.4,-630.53"/>
</g>
<!-- BB11 -->
<g id="node12" class="node">
<title>BB11</title>
<ellipse fill="none" stroke="black" cx="600.36" cy="-592.24" rx="105.22" ry="37.45"/>
<text text-anchor="middle" x="600.36" y="-603.54" font-family="Times New Roman,serif" font-size="14.00">[97..ae)</text>
<text text-anchor="middle" x="600.36" y="-588.54" font-family="Times New Roman,serif" font-size="14.00">Normalized Count: 1.00</text>
<text text-anchor="middle" x="600.36" y="-573.54" font-family="Times New Roman,serif" font-size="14.00">Samples weight: 0.00</text>
</g>
<!-- BB10&#45;&gt;BB11 -->
<g id="edge17" class="edge">
<title>BB10&#45;&gt;BB11</title>
<path fill="none" stroke="black" d="M508.35,-668.62C522,-657.43 537.34,-644.86 551.53,-633.24"/>
<polygon fill="black" stroke="black" points="553.76,-635.94 559.28,-626.9 549.32,-630.53 553.76,-635.94"/>
</g>
</g>
</svg>
