<?xml version="1.0" encoding="UTF-8" standalone="no"?>
<!DOCTYPE svg PUBLIC "-//W3C//DTD SVG 1.1//EN"
 "http://www.w3.org/Graphics/SVG/1.1/DTD/svg11.dtd">
<!-- Generated by graphviz version 2.47.0 (20210316.0004)
 -->
<!-- Title: G Pages: 1 -->
<svg width="896pt" height="1029pt"
 viewBox="0.00 0.00 896.48 1029.33" xmlns="http://www.w3.org/2000/svg" xmlns:xlink="http://www.w3.org/1999/xlink">
<g id="graph0" class="graph" transform="scale(1 1) rotate(0) translate(4 1025.33)">
<title>G</title>
<polygon fill="white" stroke="transparent" points="-4,4 -4,-1025.33 892.48,-1025.33 892.48,4 -4,4"/>
<!-- BB0 -->
<g id="node1" class="node">
<title>BB0</title>
<ellipse fill="none" stroke="black" cx="215.24" cy="-973.25" rx="103.48" ry="48.17"/>
<text text-anchor="middle" x="215.24" y="-992.05" font-family="Times New Roman,serif" font-size="14.00">[0..10)</text>
<text text-anchor="middle" x="215.24" y="-977.05" font-family="Times New Roman,serif" font-size="14.00">Count: 2</text>
<text text-anchor="middle" x="215.24" y="-962.05" font-family="Times New Roman,serif" font-size="14.00">Normalized count: 1.00</text>
<text text-anchor="middle" x="215.24" y="-947.05" font-family="Times New Roman,serif" font-size="14.00">Samples weight: 0.00</text>
</g>
<!-- BB1 -->
<g id="node2" class="node">
<title>BB1</title>
<ellipse fill="none" stroke="black" cx="103.24" cy="-841.08" rx="103.48" ry="48.17"/>
<text text-anchor="middle" x="103.24" y="-859.88" font-family="Times New Roman,serif" font-size="14.00">[10..20)</text>
<text text-anchor="middle" x="103.24" y="-844.88" font-family="Times New Roman,serif" font-size="14.00">Count: 0</text>
<text text-anchor="middle" x="103.24" y="-829.88" font-family="Times New Roman,serif" font-size="14.00">Normalized count: 0.00</text>
<text text-anchor="middle" x="103.24" y="-814.88" font-family="Times New Roman,serif" font-size="14.00">Samples weight: 0.00</text>
</g>
<!-- BB0&#45;&gt;BB1 -->
<g id="edge2" class="edge">
<title>BB0&#45;&gt;BB1</title>
<path fill="none" stroke="black" d="M177.32,-928.18C167.83,-917.15 157.57,-905.23 147.79,-893.86"/>
<polygon fill="black" stroke="black" points="150.29,-891.4 141.12,-886.11 144.99,-895.97 150.29,-891.4"/>
</g>
<!-- BB2 -->
<g id="node3" class="node">
<title>BB2</title>
<ellipse fill="none" stroke="black" cx="327.24" cy="-841.08" rx="103.48" ry="48.17"/>
<text text-anchor="middle" x="327.24" y="-859.88" font-family="Times New Roman,serif" font-size="14.00">[20..25)</text>
<text text-anchor="middle" x="327.24" y="-844.88" font-family="Times New Roman,serif" font-size="14.00">Count: 2</text>
<text text-anchor="middle" x="327.24" y="-829.88" font-family="Times New Roman,serif" font-size="14.00">Normalized count: 1.00</text>
<text text-anchor="middle" x="327.24" y="-814.88" font-family="Times New Roman,serif" font-size="14.00">Samples weight: 0.00</text>
</g>
<!-- BB0&#45;&gt;BB2 -->
<g id="edge1" class="edge">
<title>BB0&#45;&gt;BB2</title>
<path fill="none" stroke="black" d="M253.16,-928.18C262.64,-917.15 272.91,-905.23 282.68,-893.86"/>
<polygon fill="black" stroke="black" points="285.49,-895.97 289.36,-886.11 280.18,-891.4 285.49,-895.97"/>
</g>
<!-- BB1&#45;&gt;BB2 -->
<g id="edge3" class="edge">
<title>BB1&#45;&gt;BB2</title>
<path fill="none" stroke="black" d="M206.49,-841.08C208.94,-841.08 211.4,-841.08 213.85,-841.08"/>
<polygon fill="black" stroke="black" points="213.94,-844.58 223.94,-841.08 213.94,-837.58 213.94,-844.58"/>
</g>
<!-- BB4 -->
<g id="node5" class="node">
<title>BB4</title>
<ellipse fill="none" stroke="black" cx="327.24" cy="-708.92" rx="113.27" ry="48.17"/>
<text text-anchor="middle" x="327.24" y="-727.72" font-family="Times New Roman,serif" font-size="14.00">[3a..3f)</text>
<text text-anchor="middle" x="327.24" y="-712.72" font-family="Times New Roman,serif" font-size="14.00">Count: 407</text>
<text text-anchor="middle" x="327.24" y="-697.72" font-family="Times New Roman,serif" font-size="14.00">Normalized count: 203.50</text>
<text text-anchor="middle" x="327.24" y="-682.72" font-family="Times New Roman,serif" font-size="14.00">Samples weight: 0.50</text>
</g>
<!-- BB2&#45;&gt;BB4 -->
<g id="edge4" class="edge">
<title>BB2&#45;&gt;BB4</title>
<path fill="none" stroke="black" d="M327.24,-792.72C327.24,-784.45 327.24,-775.77 327.24,-767.27"/>
<polygon fill="black" stroke="black" points="330.74,-767.02 327.24,-757.02 323.74,-767.02 330.74,-767.02"/>
</g>
<!-- BB3 -->
<g id="node4" class="node">
<title>BB3</title>
<ellipse fill="none" stroke="black" cx="327.24" cy="-576.75" rx="113.27" ry="48.17"/>
<text text-anchor="middle" x="327.24" y="-595.55" font-family="Times New Roman,serif" font-size="14.00">[25..3a)</text>
<text text-anchor="middle" x="327.24" y="-580.55" font-family="Times New Roman,serif" font-size="14.00">Count: 405</text>
<text text-anchor="middle" x="327.24" y="-565.55" font-family="Times New Roman,serif" font-size="14.00">Normalized count: 202.50</text>
<text text-anchor="middle" x="327.24" y="-550.55" font-family="Times New Roman,serif" font-size="14.00">Samples weight: 0.49</text>
</g>
<!-- BB3&#45;&gt;BB4 -->
<g id="edge5" class="edge">
<title>BB3&#45;&gt;BB4</title>
<path fill="none" stroke="black" d="M333.75,-624.86C333.97,-633.12 334.04,-641.8 333.95,-650.3"/>
<polygon fill="black" stroke="black" points="330.44,-650.49 333.76,-660.55 337.44,-650.62 330.44,-650.49"/>
</g>
<!-- BB4&#45;&gt;BB3 -->
<g id="edge6" class="edge">
<title>BB4&#45;&gt;BB3</title>
<path fill="none" stroke="black" d="M320.72,-660.55C320.5,-652.29 320.44,-643.6 320.53,-635.1"/>
<polygon fill="black" stroke="black" points="324.03,-634.92 320.72,-624.86 317.04,-634.79 324.03,-634.92"/>
</g>
<!-- BB5 -->
<g id="node6" class="node">
<title>BB5</title>
<ellipse fill="none" stroke="black" cx="561.24" cy="-576.75" rx="103.48" ry="48.17"/>
<text text-anchor="middle" x="561.24" y="-595.55" font-family="Times New Roman,serif" font-size="14.00">[3f..49)</text>
<text text-anchor="middle" x="561.24" y="-580.55" font-family="Times New Roman,serif" font-size="14.00">Count: 2</text>
<text text-anchor="middle" x="561.24" y="-565.55" font-family="Times New Roman,serif" font-size="14.00">Normalized count: 1.00</text>
<text text-anchor="middle" x="561.24" y="-550.55" font-family="Times New Roman,serif" font-size="14.00">Samples weight: 0.00</text>
</g>
<!-- BB4&#45;&gt;BB5 -->
<g id="edge7" class="edge">
<title>BB4&#45;&gt;BB5</title>
<path fill="none" stroke="black" d="M394.92,-670.27C423.67,-654.28 457.27,-635.58 486.73,-619.2"/>
<polygon fill="black" stroke="black" points="488.68,-622.11 495.72,-614.19 485.28,-616 488.68,-622.11"/>
</g>
<!-- BB6 -->
<g id="node7" class="node">
<title>BB6</title>
<ellipse fill="none" stroke="black" cx="449.24" cy="-444.58" rx="103.48" ry="48.17"/>
<text text-anchor="middle" x="449.24" y="-463.38" font-family="Times New Roman,serif" font-size="14.00">[49..59)</text>
<text text-anchor="middle" x="449.24" y="-448.38" font-family="Times New Roman,serif" font-size="14.00">Count: 0</text>
<text text-anchor="middle" x="449.24" y="-433.38" font-family="Times New Roman,serif" font-size="14.00">Normalized count: 0.00</text>
<text text-anchor="middle" x="449.24" y="-418.38" font-family="Times New Roman,serif" font-size="14.00">Samples weight: 0.00</text>
</g>
<!-- BB5&#45;&gt;BB6 -->
<g id="edge9" class="edge">
<title>BB5&#45;&gt;BB6</title>
<path fill="none" stroke="black" d="M523.32,-531.68C513.83,-520.65 503.57,-508.73 493.79,-497.36"/>
<polygon fill="black" stroke="black" points="496.29,-494.9 487.12,-489.61 490.99,-499.47 496.29,-494.9"/>
</g>
<!-- BB7 -->
<g id="node8" class="node">
<title>BB7</title>
<ellipse fill="none" stroke="black" cx="673.24" cy="-444.58" rx="103.48" ry="48.17"/>
<text text-anchor="middle" x="673.24" y="-463.38" font-family="Times New Roman,serif" font-size="14.00">[59..70)</text>
<text text-anchor="middle" x="673.24" y="-448.38" font-family="Times New Roman,serif" font-size="14.00">Count: 2</text>
<text text-anchor="middle" x="673.24" y="-433.38" font-family="Times New Roman,serif" font-size="14.00">Normalized count: 1.00</text>
<text text-anchor="middle" x="673.24" y="-418.38" font-family="Times New Roman,serif" font-size="14.00">Samples weight: 0.00</text>
</g>
<!-- BB5&#45;&gt;BB7 -->
<g id="edge8" class="edge">
<title>BB5&#45;&gt;BB7</title>
<path fill="none" stroke="black" d="M599.16,-531.68C608.64,-520.65 618.91,-508.73 628.68,-497.36"/>
<polygon fill="black" stroke="black" points="631.49,-499.47 635.36,-489.61 626.18,-494.9 631.49,-499.47"/>
</g>
<!-- BB6&#45;&gt;BB7 -->
<g id="edge10" class="edge">
<title>BB6&#45;&gt;BB7</title>
<path fill="none" stroke="black" d="M552.49,-444.58C554.94,-444.58 557.4,-444.58 559.85,-444.58"/>
<polygon fill="black" stroke="black" points="559.94,-448.08 569.94,-444.58 559.94,-441.08 559.94,-448.08"/>
</g>
<!-- BB8 -->
<g id="node9" class="node">
<title>BB8</title>
<ellipse fill="none" stroke="black" cx="561.24" cy="-312.42" rx="103.48" ry="48.17"/>
<text text-anchor="middle" x="561.24" y="-331.22" font-family="Times New Roman,serif" font-size="14.00">[70..78)</text>
<text text-anchor="middle" x="561.24" y="-316.22" font-family="Times New Roman,serif" font-size="14.00">Count: 0</text>
<text text-anchor="middle" x="561.24" y="-301.22" font-family="Times New Roman,serif" font-size="14.00">Normalized count: 0.00</text>
<text text-anchor="middle" x="561.24" y="-286.22" font-family="Times New Roman,serif" font-size="14.00">Samples weight: 0.00</text>
</g>
<!-- BB7&#45;&gt;BB8 -->
<g id="edge12" class="edge">
<title>BB7&#45;&gt;BB8</title>
<path fill="none" stroke="black" d="M635.32,-399.51C625.83,-388.49 615.57,-376.56 605.79,-365.2"/>
<polygon fill="black" stroke="black" points="608.29,-362.74 599.12,-357.44 602.99,-367.3 608.29,-362.74"/>
</g>
<!-- BB12 -->
<g id="node13" class="node">
<title>BB12</title>
<ellipse fill="none" stroke="black" cx="785.24" cy="-312.42" rx="103.48" ry="48.17"/>
<text text-anchor="middle" x="785.24" y="-331.22" font-family="Times New Roman,serif" font-size="14.00">[89..8b)</text>
<text text-anchor="middle" x="785.24" y="-316.22" font-family="Times New Roman,serif" font-size="14.00">Count: 2</text>
<text text-anchor="middle" x="785.24" y="-301.22" font-family="Times New Roman,serif" font-size="14.00">Normalized count: 1.00</text>
<text text-anchor="middle" x="785.24" y="-286.22" font-family="Times New Roman,serif" font-size="14.00">Samples weight: 0.00</text>
</g>
<!-- BB7&#45;&gt;BB12 -->
<g id="edge11" class="edge">
<title>BB7&#45;&gt;BB12</title>
<path fill="none" stroke="black" d="M711.16,-399.51C720.64,-388.49 730.91,-376.56 740.68,-365.2"/>
<polygon fill="black" stroke="black" points="743.49,-367.3 747.36,-357.44 738.18,-362.74 743.49,-367.3"/>
</g>
<!-- BB9 -->
<g id="node10" class="node">
<title>BB9</title>
<ellipse fill="none" stroke="black" cx="430.24" cy="-180.25" rx="103.48" ry="48.17"/>
<text text-anchor="middle" x="430.24" y="-199.05" font-family="Times New Roman,serif" font-size="14.00">[78..7f)</text>
<text text-anchor="middle" x="430.24" y="-184.05" font-family="Times New Roman,serif" font-size="14.00">Count: 0</text>
<text text-anchor="middle" x="430.24" y="-169.05" font-family="Times New Roman,serif" font-size="14.00">Normalized count: 0.00</text>
<text text-anchor="middle" x="430.24" y="-154.05" font-family="Times New Roman,serif" font-size="14.00">Samples weight: 0.00</text>
</g>
<!-- BB8&#45;&gt;BB9 -->
<g id="edge14" class="edge">
<title>BB8&#45;&gt;BB9</title>
<path fill="none" stroke="black" d="M517.98,-268.43C506.02,-256.55 492.93,-243.55 480.61,-231.3"/>
<polygon fill="black" stroke="black" points="483.01,-228.75 473.45,-224.19 478.08,-233.72 483.01,-228.75"/>
</g>
<!-- BB10 -->
<g id="node11" class="node">
<title>BB10</title>
<ellipse fill="none" stroke="black" cx="654.24" cy="-180.25" rx="103.48" ry="48.17"/>
<text text-anchor="middle" x="654.24" y="-199.05" font-family="Times New Roman,serif" font-size="14.00">[7f..84)</text>
<text text-anchor="middle" x="654.24" y="-184.05" font-family="Times New Roman,serif" font-size="14.00">Count: 0</text>
<text text-anchor="middle" x="654.24" y="-169.05" font-family="Times New Roman,serif" font-size="14.00">Normalized count: 0.00</text>
<text text-anchor="middle" x="654.24" y="-154.05" font-family="Times New Roman,serif" font-size="14.00">Samples weight: 0.00</text>
</g>
<!-- BB8&#45;&gt;BB10 -->
<g id="edge13" class="edge">
<title>BB8&#45;&gt;BB10</title>
<path fill="none" stroke="black" d="M593.24,-266.62C600.62,-256.29 608.54,-245.21 616.15,-234.55"/>
<polygon fill="black" stroke="black" points="619.21,-236.3 622.17,-226.13 613.51,-232.23 619.21,-236.3"/>
</g>
<!-- BB11 -->
<g id="node12" class="node">
<title>BB11</title>
<ellipse fill="none" stroke="black" cx="654.24" cy="-48.08" rx="103.48" ry="48.17"/>
<text text-anchor="middle" x="654.24" y="-66.88" font-family="Times New Roman,serif" font-size="14.00">[84..89)</text>
<text text-anchor="middle" x="654.24" y="-51.88" font-family="Times New Roman,serif" font-size="14.00">Count: 0</text>
<text text-anchor="middle" x="654.24" y="-36.88" font-family="Times New Roman,serif" font-size="14.00">Normalized count: 0.00</text>
<text text-anchor="middle" x="654.24" y="-21.88" font-family="Times New Roman,serif" font-size="14.00">Samples weight: 0.00</text>
</g>
<!-- BB9&#45;&gt;BB11 -->
<g id="edge15" class="edge">
<title>BB9&#45;&gt;BB11</title>
<path fill="none" stroke="black" d="M493.83,-142.3C521.26,-126.36 553.48,-107.63 581.83,-91.16"/>
<polygon fill="black" stroke="black" points="583.6,-94.18 590.49,-86.13 580.08,-88.13 583.6,-94.18"/>
</g>
<!-- BB10&#45;&gt;BB11 -->
<g id="edge16" class="edge">
<title>BB10&#45;&gt;BB11</title>
<path fill="none" stroke="black" d="M654.24,-131.89C654.24,-123.62 654.24,-114.94 654.24,-106.43"/>
<polygon fill="black" stroke="black" points="657.74,-106.19 654.24,-96.19 650.74,-106.19 657.74,-106.19"/>
</g>
<!-- BB11&#45;&gt;BB12 -->
<g id="edge17" class="edge">
<title>BB11&#45;&gt;BB12</title>
<path fill="none" stroke="black" d="M721.1,-84.93C738.57,-97.54 755.49,-113.35 766.24,-132.17 787.24,-168.93 791.35,-216.89 790.56,-253.95"/>
<polygon fill="black" stroke="black" points="787.05,-253.99 790.21,-264.1 794.05,-254.22 787.05,-253.99"/>
</g>
</g>
</svg>
