<?xml version="1.0" encoding="UTF-8" standalone="no"?>
<!DOCTYPE svg PUBLIC "-//W3C//DTD SVG 1.1//EN"
 "http://www.w3.org/Graphics/SVG/1.1/DTD/svg11.dtd">
<!-- Generated by graphviz version 2.47.0 (20210316.0004)
 -->
<!-- Title: G Pages: 1 -->
<svg width="1159pt" height="1161pt"
 viewBox="0.00 0.00 1159.50 1161.50" xmlns="http://www.w3.org/2000/svg" xmlns:xlink="http://www.w3.org/1999/xlink">
<g id="graph0" class="graph" transform="scale(1 1) rotate(0) translate(4 1157.5)">
<title>G</title>
<polygon fill="white" stroke="transparent" points="-4,4 -4,-1157.5 1155.5,-1157.5 1155.5,4 -4,4"/>
<!-- BB0 -->
<g id="node1" class="node">
<title>BB0</title>
<ellipse fill="none" stroke="black" cx="184.84" cy="-1105.42" rx="104.8" ry="48.17"/>
<text text-anchor="middle" x="184.84" y="-1124.22" font-family="Times New Roman,serif" font-size="14.00">[0..f)</text>
<text text-anchor="middle" x="184.84" y="-1109.22" font-family="Times New Roman,serif" font-size="14.00">Count: 0</text>
<text text-anchor="middle" x="184.84" y="-1094.22" font-family="Times New Roman,serif" font-size="14.00">Normalized count: NaN</text>
<text text-anchor="middle" x="184.84" y="-1079.22" font-family="Times New Roman,serif" font-size="14.00">Samples weight: 0.00</text>
</g>
<!-- BB3 -->
<g id="node4" class="node">
<title>BB3</title>
<ellipse fill="none" stroke="black" cx="184.84" cy="-973.25" rx="113.69" ry="48.17"/>
<text text-anchor="middle" x="184.84" y="-992.05" font-family="Times New Roman,serif" font-size="14.00">[2e..38)</text>
<text text-anchor="middle" x="184.84" y="-977.05" font-family="Times New Roman,serif" font-size="14.00">Count: 14</text>
<text text-anchor="middle" x="184.84" y="-962.05" font-family="Times New Roman,serif" font-size="14.00">Normalized count: Infinity</text>
<text text-anchor="middle" x="184.84" y="-947.05" font-family="Times New Roman,serif" font-size="14.00">Samples weight: 0.20</text>
</g>
<!-- BB0&#45;&gt;BB3 -->
<g id="edge1" class="edge">
<title>BB0&#45;&gt;BB3</title>
<path fill="none" stroke="black" d="M184.84,-1057.05C184.84,-1048.79 184.84,-1040.1 184.84,-1031.6"/>
<polygon fill="black" stroke="black" points="188.34,-1031.36 184.84,-1021.36 181.34,-1031.36 188.34,-1031.36"/>
</g>
<!-- BB1 -->
<g id="node2" class="node">
<title>BB1</title>
<ellipse fill="none" stroke="black" cx="113.84" cy="-841.08" rx="113.69" ry="48.17"/>
<text text-anchor="middle" x="113.84" y="-859.88" font-family="Times New Roman,serif" font-size="14.00">[f..1a)</text>
<text text-anchor="middle" x="113.84" y="-844.88" font-family="Times New Roman,serif" font-size="14.00">Count: 12</text>
<text text-anchor="middle" x="113.84" y="-829.88" font-family="Times New Roman,serif" font-size="14.00">Normalized count: Infinity</text>
<text text-anchor="middle" x="113.84" y="-814.88" font-family="Times New Roman,serif" font-size="14.00">Samples weight: 0.17</text>
</g>
<!-- BB2 -->
<g id="node3" class="node">
<title>BB2</title>
<ellipse fill="none" stroke="black" cx="152.84" cy="-708.92" rx="104.8" ry="48.17"/>
<text text-anchor="middle" x="152.84" y="-727.72" font-family="Times New Roman,serif" font-size="14.00">[1a..2e)</text>
<text text-anchor="middle" x="152.84" y="-712.72" font-family="Times New Roman,serif" font-size="14.00">Count: 0</text>
<text text-anchor="middle" x="152.84" y="-697.72" font-family="Times New Roman,serif" font-size="14.00">Normalized count: NaN</text>
<text text-anchor="middle" x="152.84" y="-682.72" font-family="Times New Roman,serif" font-size="14.00">Samples weight: 0.00</text>
</g>
<!-- BB1&#45;&gt;BB2 -->
<g id="edge3" class="edge">
<title>BB1&#45;&gt;BB2</title>
<path fill="none" stroke="black" d="M127.92,-793.09C130.49,-784.52 133.2,-775.49 135.84,-766.67"/>
<polygon fill="black" stroke="black" points="139.27,-767.42 138.78,-756.84 132.56,-765.41 139.27,-767.42"/>
</g>
<!-- BB1&#45;&gt;BB3 -->
<g id="edge2" class="edge">
<title>BB1&#45;&gt;BB3</title>
<path fill="none" stroke="black" d="M145.09,-887.51C150.52,-896.95 156.08,-907.01 161.27,-916.77"/>
<polygon fill="black" stroke="black" points="158.17,-918.4 165.91,-925.62 164.37,-915.14 158.17,-918.4"/>
</g>
<!-- BB2&#45;&gt;BB3 -->
<g id="edge5" class="edge">
<title>BB2&#45;&gt;BB3</title>
<path fill="none" stroke="black" d="M206.66,-750.5C218.88,-762.69 230.21,-777.1 236.84,-793 253.31,-832.44 248.64,-848.08 236.84,-889.17 234,-899.08 229.58,-908.96 224.5,-918.26"/>
<polygon fill="black" stroke="black" points="221.43,-916.58 219.46,-926.99 227.49,-920.08 221.43,-916.58"/>
</g>
<!-- BB8 -->
<g id="node9" class="node">
<title>BB8</title>
<ellipse fill="none" stroke="black" cx="388.84" cy="-708.92" rx="113.69" ry="48.17"/>
<text text-anchor="middle" x="388.84" y="-727.72" font-family="Times New Roman,serif" font-size="14.00">[5b..65)</text>
<text text-anchor="middle" x="388.84" y="-712.72" font-family="Times New Roman,serif" font-size="14.00">Count: 15</text>
<text text-anchor="middle" x="388.84" y="-697.72" font-family="Times New Roman,serif" font-size="14.00">Normalized count: Infinity</text>
<text text-anchor="middle" x="388.84" y="-682.72" font-family="Times New Roman,serif" font-size="14.00">Samples weight: 0.22</text>
</g>
<!-- BB2&#45;&gt;BB8 -->
<g id="edge4" class="edge">
<title>BB2&#45;&gt;BB8</title>
<path fill="none" stroke="black" d="M257.94,-708.92C260.22,-708.92 262.51,-708.92 264.79,-708.92"/>
<polygon fill="black" stroke="black" points="264.81,-712.42 274.81,-708.92 264.81,-705.42 264.81,-712.42"/>
</g>
<!-- BB3&#45;&gt;BB1 -->
<g id="edge6" class="edge">
<title>BB3&#45;&gt;BB1</title>
<path fill="none" stroke="black" d="M153.54,-926.72C148.18,-917.39 142.69,-907.46 137.56,-897.82"/>
<polygon fill="black" stroke="black" points="140.51,-895.91 132.76,-888.68 134.31,-899.17 140.51,-895.91"/>
</g>
<!-- BB4 -->
<g id="node5" class="node">
<title>BB4</title>
<ellipse fill="none" stroke="black" cx="388.84" cy="-841.08" rx="104.8" ry="48.17"/>
<text text-anchor="middle" x="388.84" y="-859.88" font-family="Times New Roman,serif" font-size="14.00">[38..3a)</text>
<text text-anchor="middle" x="388.84" y="-844.88" font-family="Times New Roman,serif" font-size="14.00">Count: 0</text>
<text text-anchor="middle" x="388.84" y="-829.88" font-family="Times New Roman,serif" font-size="14.00">Normalized count: NaN</text>
<text text-anchor="middle" x="388.84" y="-814.88" font-family="Times New Roman,serif" font-size="14.00">Samples weight: 0.00</text>
</g>
<!-- BB3&#45;&gt;BB4 -->
<g id="edge7" class="edge">
<title>BB3&#45;&gt;BB4</title>
<path fill="none" stroke="black" d="M246.6,-932.84C269.79,-918.05 296.28,-901.14 320.07,-885.97"/>
<polygon fill="black" stroke="black" points="322.15,-888.79 328.7,-880.46 318.38,-882.89 322.15,-888.79"/>
</g>
<!-- BB4&#45;&gt;BB8 -->
<g id="edge8" class="edge">
<title>BB4&#45;&gt;BB8</title>
<path fill="none" stroke="black" d="M388.84,-792.72C388.84,-784.45 388.84,-775.77 388.84,-767.27"/>
<polygon fill="black" stroke="black" points="392.34,-767.02 388.84,-757.02 385.34,-767.02 392.34,-767.02"/>
</g>
<!-- BB5 -->
<g id="node6" class="node">
<title>BB5</title>
<ellipse fill="none" stroke="black" cx="317.84" cy="-576.75" rx="113.69" ry="48.17"/>
<text text-anchor="middle" x="317.84" y="-595.55" font-family="Times New Roman,serif" font-size="14.00">[3a..49)</text>
<text text-anchor="middle" x="317.84" y="-580.55" font-family="Times New Roman,serif" font-size="14.00">Count: 13</text>
<text text-anchor="middle" x="317.84" y="-565.55" font-family="Times New Roman,serif" font-size="14.00">Normalized count: Infinity</text>
<text text-anchor="middle" x="317.84" y="-550.55" font-family="Times New Roman,serif" font-size="14.00">Samples weight: 0.19</text>
</g>
<!-- BB6 -->
<g id="node7" class="node">
<title>BB6</title>
<ellipse fill="none" stroke="black" cx="317.84" cy="-444.58" rx="113.69" ry="48.17"/>
<text text-anchor="middle" x="317.84" y="-463.38" font-family="Times New Roman,serif" font-size="14.00">[49..4f)</text>
<text text-anchor="middle" x="317.84" y="-448.38" font-family="Times New Roman,serif" font-size="14.00">Count: 4</text>
<text text-anchor="middle" x="317.84" y="-433.38" font-family="Times New Roman,serif" font-size="14.00">Normalized count: Infinity</text>
<text text-anchor="middle" x="317.84" y="-418.38" font-family="Times New Roman,serif" font-size="14.00">Samples weight: 0.06</text>
</g>
<!-- BB5&#45;&gt;BB6 -->
<g id="edge10" class="edge">
<title>BB5&#45;&gt;BB6</title>
<path fill="none" stroke="black" d="M317.84,-528.39C317.84,-520.12 317.84,-511.44 317.84,-502.93"/>
<polygon fill="black" stroke="black" points="321.34,-502.69 317.84,-492.69 314.34,-502.69 321.34,-502.69"/>
</g>
<!-- BB9 -->
<g id="node10" class="node">
<title>BB9</title>
<ellipse fill="none" stroke="black" cx="592.84" cy="-576.75" rx="104.8" ry="48.17"/>
<text text-anchor="middle" x="592.84" y="-595.55" font-family="Times New Roman,serif" font-size="14.00">[65..7b)</text>
<text text-anchor="middle" x="592.84" y="-580.55" font-family="Times New Roman,serif" font-size="14.00">Count: 0</text>
<text text-anchor="middle" x="592.84" y="-565.55" font-family="Times New Roman,serif" font-size="14.00">Normalized count: NaN</text>
<text text-anchor="middle" x="592.84" y="-550.55" font-family="Times New Roman,serif" font-size="14.00">Samples weight: 0.00</text>
</g>
<!-- BB5&#45;&gt;BB9 -->
<g id="edge9" class="edge">
<title>BB5&#45;&gt;BB9</title>
<path fill="none" stroke="black" d="M431.71,-576.75C447.12,-576.75 462.52,-576.75 477.92,-576.75"/>
<polygon fill="black" stroke="black" points="478.04,-580.25 488.04,-576.75 478.04,-573.25 478.04,-580.25"/>
</g>
<!-- BB7 -->
<g id="node8" class="node">
<title>BB7</title>
<ellipse fill="none" stroke="black" cx="337.84" cy="-312.42" rx="113.69" ry="48.17"/>
<text text-anchor="middle" x="337.84" y="-331.22" font-family="Times New Roman,serif" font-size="14.00">[4f..5b)</text>
<text text-anchor="middle" x="337.84" y="-316.22" font-family="Times New Roman,serif" font-size="14.00">Count: 11</text>
<text text-anchor="middle" x="337.84" y="-301.22" font-family="Times New Roman,serif" font-size="14.00">Normalized count: Infinity</text>
<text text-anchor="middle" x="337.84" y="-286.22" font-family="Times New Roman,serif" font-size="14.00">Samples weight: 0.16</text>
</g>
<!-- BB6&#45;&gt;BB7 -->
<g id="edge12" class="edge">
<title>BB6&#45;&gt;BB7</title>
<path fill="none" stroke="black" d="M325.06,-396.59C326.35,-388.22 327.7,-379.41 329.03,-370.78"/>
<polygon fill="black" stroke="black" points="332.51,-371.19 330.57,-360.78 325.59,-370.13 332.51,-371.19"/>
</g>
<!-- BB6&#45;&gt;BB8 -->
<g id="edge11" class="edge">
<title>BB6&#45;&gt;BB8</title>
<path fill="none" stroke="black" d="M241.56,-480.52C222.94,-492.93 205.36,-508.87 194.84,-528.67 174.79,-566.41 171.31,-589.15 194.84,-624.83 198.15,-629.84 248.91,-651.5 297.68,-671.44"/>
<polygon fill="black" stroke="black" points="296.49,-674.74 307.07,-675.27 299.13,-668.25 296.49,-674.74"/>
</g>
<!-- BB7&#45;&gt;BB8 -->
<g id="edge13" class="edge">
<title>BB7&#45;&gt;BB8</title>
<path fill="none" stroke="black" d="M403.58,-351.96C418.57,-364.16 432.52,-379.09 440.84,-396.5 484.62,-488.05 468.85,-527.29 440.84,-624.83 438,-634.75 433.58,-644.63 428.5,-653.93"/>
<polygon fill="black" stroke="black" points="425.43,-652.25 423.46,-662.66 431.49,-655.75 425.43,-652.25"/>
</g>
<!-- BB8&#45;&gt;BB5 -->
<g id="edge14" class="edge">
<title>BB8&#45;&gt;BB5</title>
<path fill="none" stroke="black" d="M363.61,-661.66C358.54,-652.35 353.16,-642.49 347.94,-632.92"/>
<polygon fill="black" stroke="black" points="350.86,-630.96 342.99,-623.86 344.71,-634.31 350.86,-630.96"/>
</g>
<!-- BB8&#45;&gt;BB9 -->
<g id="edge15" class="edge">
<title>BB8&#45;&gt;BB9</title>
<path fill="none" stroke="black" d="M450.6,-668.51C473.79,-653.71 500.28,-636.81 524.07,-621.63"/>
<polygon fill="black" stroke="black" points="526.15,-624.46 532.7,-616.13 522.38,-618.56 526.15,-624.46"/>
</g>
<!-- BB11 -->
<g id="node12" class="node">
<title>BB11</title>
<ellipse fill="none" stroke="black" cx="592.84" cy="-444.58" rx="104.8" ry="48.17"/>
<text text-anchor="middle" x="592.84" y="-463.38" font-family="Times New Roman,serif" font-size="14.00">[9a..9f)</text>
<text text-anchor="middle" x="592.84" y="-448.38" font-family="Times New Roman,serif" font-size="14.00">Count: 0</text>
<text text-anchor="middle" x="592.84" y="-433.38" font-family="Times New Roman,serif" font-size="14.00">Normalized count: NaN</text>
<text text-anchor="middle" x="592.84" y="-418.38" font-family="Times New Roman,serif" font-size="14.00">Samples weight: 0.00</text>
</g>
<!-- BB9&#45;&gt;BB11 -->
<g id="edge16" class="edge">
<title>BB9&#45;&gt;BB11</title>
<path fill="none" stroke="black" d="M592.84,-528.39C592.84,-520.12 592.84,-511.44 592.84,-502.93"/>
<polygon fill="black" stroke="black" points="596.34,-502.69 592.84,-492.69 589.34,-502.69 596.34,-502.69"/>
</g>
<!-- BB10 -->
<g id="node11" class="node">
<title>BB10</title>
<ellipse fill="none" stroke="black" cx="592.84" cy="-312.42" rx="104.8" ry="48.17"/>
<text text-anchor="middle" x="592.84" y="-331.22" font-family="Times New Roman,serif" font-size="14.00">[7b..9a)</text>
<text text-anchor="middle" x="592.84" y="-316.22" font-family="Times New Roman,serif" font-size="14.00">Count: 0</text>
<text text-anchor="middle" x="592.84" y="-301.22" font-family="Times New Roman,serif" font-size="14.00">Normalized count: NaN</text>
<text text-anchor="middle" x="592.84" y="-286.22" font-family="Times New Roman,serif" font-size="14.00">Samples weight: 0.00</text>
</g>
<!-- BB10&#45;&gt;BB11 -->
<g id="edge17" class="edge">
<title>BB10&#45;&gt;BB11</title>
<path fill="none" stroke="black" d="M599.37,-360.78C599.58,-369.07 599.65,-377.79 599.55,-386.32"/>
<polygon fill="black" stroke="black" points="596.05,-386.53 599.36,-396.59 603.05,-386.66 596.05,-386.53"/>
</g>
<!-- BB11&#45;&gt;BB10 -->
<g id="edge18" class="edge">
<title>BB11&#45;&gt;BB10</title>
<path fill="none" stroke="black" d="M586.33,-396.59C586.11,-388.22 586.04,-379.41 586.14,-370.78"/>
<polygon fill="black" stroke="black" points="589.64,-370.84 586.32,-360.78 582.64,-370.71 589.64,-370.84"/>
</g>
<!-- BB12 -->
<g id="node13" class="node">
<title>BB12</title>
<ellipse fill="none" stroke="black" cx="819.84" cy="-312.42" rx="104.8" ry="48.17"/>
<text text-anchor="middle" x="819.84" y="-331.22" font-family="Times New Roman,serif" font-size="14.00">[9f..d7)</text>
<text text-anchor="middle" x="819.84" y="-316.22" font-family="Times New Roman,serif" font-size="14.00">Count: 0</text>
<text text-anchor="middle" x="819.84" y="-301.22" font-family="Times New Roman,serif" font-size="14.00">Normalized count: NaN</text>
<text text-anchor="middle" x="819.84" y="-286.22" font-family="Times New Roman,serif" font-size="14.00">Samples weight: 0.00</text>
</g>
<!-- BB11&#45;&gt;BB12 -->
<g id="edge19" class="edge">
<title>BB11&#45;&gt;BB12</title>
<path fill="none" stroke="black" d="M657.29,-406.63C685.08,-390.69 717.74,-371.97 746.46,-355.49"/>
<polygon fill="black" stroke="black" points="748.31,-358.47 755.24,-350.46 744.83,-352.4 748.31,-358.47"/>
</g>
<!-- BB14 -->
<g id="node15" class="node">
<title>BB14</title>
<ellipse fill="none" stroke="black" cx="819.84" cy="-180.25" rx="104.8" ry="48.17"/>
<text text-anchor="middle" x="819.84" y="-199.05" font-family="Times New Roman,serif" font-size="14.00">[100..108)</text>
<text text-anchor="middle" x="819.84" y="-184.05" font-family="Times New Roman,serif" font-size="14.00">Count: 0</text>
<text text-anchor="middle" x="819.84" y="-169.05" font-family="Times New Roman,serif" font-size="14.00">Normalized count: NaN</text>
<text text-anchor="middle" x="819.84" y="-154.05" font-family="Times New Roman,serif" font-size="14.00">Samples weight: 0.00</text>
</g>
<!-- BB12&#45;&gt;BB14 -->
<g id="edge20" class="edge">
<title>BB12&#45;&gt;BB14</title>
<path fill="none" stroke="black" d="M819.84,-264.05C819.84,-255.79 819.84,-247.1 819.84,-238.6"/>
<polygon fill="black" stroke="black" points="823.34,-238.36 819.84,-228.36 816.34,-238.36 823.34,-238.36"/>
</g>
<!-- BB13 -->
<g id="node14" class="node">
<title>BB13</title>
<ellipse fill="none" stroke="black" cx="819.84" cy="-48.08" rx="104.8" ry="48.17"/>
<text text-anchor="middle" x="819.84" y="-66.88" font-family="Times New Roman,serif" font-size="14.00">[d7..100)</text>
<text text-anchor="middle" x="819.84" y="-51.88" font-family="Times New Roman,serif" font-size="14.00">Count: 0</text>
<text text-anchor="middle" x="819.84" y="-36.88" font-family="Times New Roman,serif" font-size="14.00">Normalized count: NaN</text>
<text text-anchor="middle" x="819.84" y="-21.88" font-family="Times New Roman,serif" font-size="14.00">Samples weight: 0.00</text>
</g>
<!-- BB13&#45;&gt;BB14 -->
<g id="edge21" class="edge">
<title>BB13&#45;&gt;BB14</title>
<path fill="none" stroke="black" d="M826.37,-96.44C826.58,-104.74 826.65,-113.45 826.55,-121.98"/>
<polygon fill="black" stroke="black" points="823.05,-122.19 826.36,-132.26 830.05,-122.32 823.05,-122.19"/>
</g>
<!-- BB14&#45;&gt;BB13 -->
<g id="edge22" class="edge">
<title>BB14&#45;&gt;BB13</title>
<path fill="none" stroke="black" d="M813.33,-132.26C813.11,-123.88 813.04,-115.07 813.14,-106.45"/>
<polygon fill="black" stroke="black" points="816.64,-106.51 813.32,-96.44 809.64,-106.38 816.64,-106.51"/>
</g>
<!-- BB15 -->
<g id="node16" class="node">
<title>BB15</title>
<ellipse fill="none" stroke="black" cx="1046.84" cy="-48.08" rx="104.8" ry="48.17"/>
<text text-anchor="middle" x="1046.84" y="-66.88" font-family="Times New Roman,serif" font-size="14.00">[108..10b)</text>
<text text-anchor="middle" x="1046.84" y="-51.88" font-family="Times New Roman,serif" font-size="14.00">Count: 0</text>
<text text-anchor="middle" x="1046.84" y="-36.88" font-family="Times New Roman,serif" font-size="14.00">Normalized count: NaN</text>
<text text-anchor="middle" x="1046.84" y="-21.88" font-family="Times New Roman,serif" font-size="14.00">Samples weight: 0.00</text>
</g>
<!-- BB14&#45;&gt;BB15 -->
<g id="edge23" class="edge">
<title>BB14&#45;&gt;BB15</title>
<path fill="none" stroke="black" d="M884.29,-142.3C912.08,-126.36 944.74,-107.63 973.46,-91.16"/>
<polygon fill="black" stroke="black" points="975.31,-94.14 982.24,-86.13 971.83,-88.07 975.31,-94.14"/>
</g>
</g>
</svg>
