<?xml version="1.0" encoding="UTF-8" standalone="no"?>
<!DOCTYPE svg PUBLIC "-//W3C//DTD SVG 1.1//EN"
 "http://www.w3.org/Graphics/SVG/1.1/DTD/svg11.dtd">
<!-- Generated by graphviz version 2.47.0 (20210316.0004)
 -->
<!-- Title: G Pages: 1 -->
<svg width="577pt" height="897pt"
 viewBox="0.00 0.00 577.30 897.17" xmlns="http://www.w3.org/2000/svg" xmlns:xlink="http://www.w3.org/1999/xlink">
<g id="graph0" class="graph" transform="scale(1 1) rotate(0) translate(4 893.17)">
<title>G</title>
<polygon fill="white" stroke="transparent" points="-4,4 -4,-893.17 573.3,-893.17 573.3,4 -4,4"/>
<!-- BB0 -->
<g id="node1" class="node">
<title>BB0</title>
<ellipse fill="none" stroke="black" cx="237.65" cy="-841.08" rx="104.8" ry="48.17"/>
<text text-anchor="middle" x="237.65" y="-859.88" font-family="Times New Roman,serif" font-size="14.00">[0..10)</text>
<text text-anchor="middle" x="237.65" y="-844.88" font-family="Times New Roman,serif" font-size="14.00">Count: 0</text>
<text text-anchor="middle" x="237.65" y="-829.88" font-family="Times New Roman,serif" font-size="14.00">Normalized count: NaN</text>
<text text-anchor="middle" x="237.65" y="-814.88" font-family="Times New Roman,serif" font-size="14.00">Samples weight: 0.00</text>
</g>
<!-- BB7 -->
<g id="node8" class="node">
<title>BB7</title>
<ellipse fill="none" stroke="black" cx="237.65" cy="-708.92" rx="104.8" ry="48.17"/>
<text text-anchor="middle" x="237.65" y="-727.72" font-family="Times New Roman,serif" font-size="14.00">[c7..cf)</text>
<text text-anchor="middle" x="237.65" y="-712.72" font-family="Times New Roman,serif" font-size="14.00">Count: 0</text>
<text text-anchor="middle" x="237.65" y="-697.72" font-family="Times New Roman,serif" font-size="14.00">Normalized count: NaN</text>
<text text-anchor="middle" x="237.65" y="-682.72" font-family="Times New Roman,serif" font-size="14.00">Samples weight: 0.00</text>
</g>
<!-- BB0&#45;&gt;BB7 -->
<g id="edge1" class="edge">
<title>BB0&#45;&gt;BB7</title>
<path fill="none" stroke="black" d="M237.65,-792.72C237.65,-784.45 237.65,-775.77 237.65,-767.27"/>
<polygon fill="black" stroke="black" points="241.15,-767.02 237.65,-757.02 234.15,-767.02 241.15,-767.02"/>
</g>
<!-- BB1 -->
<g id="node2" class="node">
<title>BB1</title>
<ellipse fill="none" stroke="black" cx="237.65" cy="-576.75" rx="104.8" ry="48.17"/>
<text text-anchor="middle" x="237.65" y="-595.55" font-family="Times New Roman,serif" font-size="14.00">[10..1f)</text>
<text text-anchor="middle" x="237.65" y="-580.55" font-family="Times New Roman,serif" font-size="14.00">Count: 0</text>
<text text-anchor="middle" x="237.65" y="-565.55" font-family="Times New Roman,serif" font-size="14.00">Normalized count: NaN</text>
<text text-anchor="middle" x="237.65" y="-550.55" font-family="Times New Roman,serif" font-size="14.00">Samples weight: 0.00</text>
</g>
<!-- BB5 -->
<g id="node6" class="node">
<title>BB5</title>
<ellipse fill="none" stroke="black" cx="242.65" cy="-444.58" rx="113.69" ry="48.17"/>
<text text-anchor="middle" x="242.65" y="-463.38" font-family="Times New Roman,serif" font-size="14.00">[b2..c1)</text>
<text text-anchor="middle" x="242.65" y="-448.38" font-family="Times New Roman,serif" font-size="14.00">Count: 5</text>
<text text-anchor="middle" x="242.65" y="-433.38" font-family="Times New Roman,serif" font-size="14.00">Normalized count: Infinity</text>
<text text-anchor="middle" x="242.65" y="-418.38" font-family="Times New Roman,serif" font-size="14.00">Samples weight: 0.01</text>
</g>
<!-- BB1&#45;&gt;BB5 -->
<g id="edge2" class="edge">
<title>BB1&#45;&gt;BB5</title>
<path fill="none" stroke="black" d="M239.47,-528.39C239.79,-520.12 240.12,-511.44 240.45,-502.93"/>
<polygon fill="black" stroke="black" points="243.96,-502.82 240.84,-492.69 236.96,-502.55 243.96,-502.82"/>
</g>
<!-- BB2 -->
<g id="node3" class="node">
<title>BB2</title>
<ellipse fill="none" stroke="black" cx="381.65" cy="-312.42" rx="113.69" ry="48.17"/>
<text text-anchor="middle" x="381.65" y="-331.22" font-family="Times New Roman,serif" font-size="14.00">[1f..40)</text>
<text text-anchor="middle" x="381.65" y="-316.22" font-family="Times New Roman,serif" font-size="14.00">Count: 37</text>
<text text-anchor="middle" x="381.65" y="-301.22" font-family="Times New Roman,serif" font-size="14.00">Normalized count: Infinity</text>
<text text-anchor="middle" x="381.65" y="-286.22" font-family="Times New Roman,serif" font-size="14.00">Samples weight: 0.06</text>
</g>
<!-- BB3 -->
<g id="node4" class="node">
<title>BB3</title>
<ellipse fill="none" stroke="black" cx="381.65" cy="-180.25" rx="113.69" ry="48.17"/>
<text text-anchor="middle" x="381.65" y="-199.05" font-family="Times New Roman,serif" font-size="14.00">[40..a1)</text>
<text text-anchor="middle" x="381.65" y="-184.05" font-family="Times New Roman,serif" font-size="14.00">Count: 505</text>
<text text-anchor="middle" x="381.65" y="-169.05" font-family="Times New Roman,serif" font-size="14.00">Normalized count: Infinity</text>
<text text-anchor="middle" x="381.65" y="-154.05" font-family="Times New Roman,serif" font-size="14.00">Samples weight: 0.84</text>
</g>
<!-- BB2&#45;&gt;BB3 -->
<g id="edge3" class="edge">
<title>BB2&#45;&gt;BB3</title>
<path fill="none" stroke="black" d="M381.65,-264.05C381.65,-255.79 381.65,-247.1 381.65,-238.6"/>
<polygon fill="black" stroke="black" points="385.15,-238.36 381.65,-228.36 378.15,-238.36 385.15,-238.36"/>
</g>
<!-- BB3&#45;&gt;BB3 -->
<g id="edge4" class="edge">
<title>BB3&#45;&gt;BB3</title>
<path fill="none" stroke="black" d="M480.83,-203.86C499.95,-201.07 513.5,-193.2 513.5,-180.25 513.5,-169.72 504.55,-162.56 490.95,-158.74"/>
<polygon fill="black" stroke="black" points="491.34,-155.25 480.83,-156.64 489.91,-162.1 491.34,-155.25"/>
</g>
<!-- BB4 -->
<g id="node5" class="node">
<title>BB4</title>
<ellipse fill="none" stroke="black" cx="310.65" cy="-48.08" rx="113.69" ry="48.17"/>
<text text-anchor="middle" x="310.65" y="-66.88" font-family="Times New Roman,serif" font-size="14.00">[a1..b2)</text>
<text text-anchor="middle" x="310.65" y="-51.88" font-family="Times New Roman,serif" font-size="14.00">Count: 57</text>
<text text-anchor="middle" x="310.65" y="-36.88" font-family="Times New Roman,serif" font-size="14.00">Normalized count: Infinity</text>
<text text-anchor="middle" x="310.65" y="-21.88" font-family="Times New Roman,serif" font-size="14.00">Samples weight: 0.09</text>
</g>
<!-- BB3&#45;&gt;BB4 -->
<g id="edge5" class="edge">
<title>BB3&#45;&gt;BB4</title>
<path fill="none" stroke="black" d="M356.42,-132.99C351.35,-123.69 345.96,-113.82 340.74,-104.25"/>
<polygon fill="black" stroke="black" points="343.66,-102.3 335.8,-95.19 337.52,-105.65 343.66,-102.3"/>
</g>
<!-- BB4&#45;&gt;BB5 -->
<g id="edge6" class="edge">
<title>BB4&#45;&gt;BB5</title>
<path fill="none" stroke="black" d="M276.78,-94.05C269.52,-105.88 262.79,-119.02 258.65,-132.17 231.76,-217.52 232.92,-322.48 237.13,-386.15"/>
<polygon fill="black" stroke="black" points="233.65,-386.66 237.85,-396.39 240.63,-386.16 233.65,-386.66"/>
</g>
<!-- BB5&#45;&gt;BB2 -->
<g id="edge7" class="edge">
<title>BB5&#45;&gt;BB2</title>
<path fill="none" stroke="black" d="M288.94,-400.24C301.48,-388.49 315.16,-375.68 328.07,-363.59"/>
<polygon fill="black" stroke="black" points="330.66,-365.96 335.57,-356.57 325.88,-360.85 330.66,-365.96"/>
</g>
<!-- BB6 -->
<g id="node7" class="node">
<title>BB6</title>
<ellipse fill="none" stroke="black" cx="104.65" cy="-312.42" rx="104.8" ry="48.17"/>
<text text-anchor="middle" x="104.65" y="-331.22" font-family="Times New Roman,serif" font-size="14.00">[c1..c7)</text>
<text text-anchor="middle" x="104.65" y="-316.22" font-family="Times New Roman,serif" font-size="14.00">Count: 0</text>
<text text-anchor="middle" x="104.65" y="-301.22" font-family="Times New Roman,serif" font-size="14.00">Normalized count: NaN</text>
<text text-anchor="middle" x="104.65" y="-286.22" font-family="Times New Roman,serif" font-size="14.00">Samples weight: 0.00</text>
</g>
<!-- BB5&#45;&gt;BB6 -->
<g id="edge8" class="edge">
<title>BB5&#45;&gt;BB6</title>
<path fill="none" stroke="black" d="M196.7,-400.24C184.12,-388.37 170.38,-375.41 157.44,-363.21"/>
<polygon fill="black" stroke="black" points="159.61,-360.44 149.93,-356.13 154.81,-365.54 159.61,-360.44"/>
</g>
<!-- BB6&#45;&gt;BB7 -->
<g id="edge9" class="edge">
<title>BB6&#45;&gt;BB7</title>
<path fill="none" stroke="black" d="M95.77,-360.33C86.13,-424.39 77.67,-540.86 123.65,-624.83 132.53,-641.05 146.1,-654.93 160.8,-666.44"/>
<polygon fill="black" stroke="black" points="158.96,-669.43 169.07,-672.59 163.14,-663.82 158.96,-669.43"/>
</g>
<!-- BB7&#45;&gt;BB1 -->
<g id="edge10" class="edge">
<title>BB7&#45;&gt;BB1</title>
<path fill="none" stroke="black" d="M237.65,-660.55C237.65,-652.29 237.65,-643.6 237.65,-635.1"/>
<polygon fill="black" stroke="black" points="241.15,-634.86 237.65,-624.86 234.15,-634.86 241.15,-634.86"/>
</g>
<!-- BB8 -->
<g id="node9" class="node">
<title>BB8</title>
<ellipse fill="none" stroke="black" cx="464.65" cy="-576.75" rx="104.8" ry="48.17"/>
<text text-anchor="middle" x="464.65" y="-595.55" font-family="Times New Roman,serif" font-size="14.00">[cf..d7)</text>
<text text-anchor="middle" x="464.65" y="-580.55" font-family="Times New Roman,serif" font-size="14.00">Count: 0</text>
<text text-anchor="middle" x="464.65" y="-565.55" font-family="Times New Roman,serif" font-size="14.00">Normalized count: NaN</text>
<text text-anchor="middle" x="464.65" y="-550.55" font-family="Times New Roman,serif" font-size="14.00">Samples weight: 0.00</text>
</g>
<!-- BB7&#45;&gt;BB8 -->
<g id="edge11" class="edge">
<title>BB7&#45;&gt;BB8</title>
<path fill="none" stroke="black" d="M302.09,-670.96C329.89,-655.02 362.55,-636.3 391.27,-619.83"/>
<polygon fill="black" stroke="black" points="393.11,-622.8 400.05,-614.79 389.63,-616.73 393.11,-622.8"/>
</g>
</g>
</svg>
