<?xml version="1.0" encoding="UTF-8" standalone="no"?>
<!DOCTYPE svg PUBLIC "-//W3C//DTD SVG 1.1//EN"
 "http://www.w3.org/Graphics/SVG/1.1/DTD/svg11.dtd">
<!-- Generated by graphviz version 2.47.0 (20210316.0004)
 -->
<!-- Title: G Pages: 1 -->
<svg width="436pt" height="331pt"
 viewBox="0.00 0.00 435.73 330.96" xmlns="http://www.w3.org/2000/svg" xmlns:xlink="http://www.w3.org/1999/xlink">
<g id="graph0" class="graph" transform="scale(1 1) rotate(0) translate(4 326.96)">
<title>G</title>
<polygon fill="white" stroke="transparent" points="-4,4 -4,-326.96 431.73,-326.96 431.73,4 -4,4"/>
<!-- BB0 -->
<g id="node1" class="node">
<title>BB0</title>
<ellipse fill="none" stroke="black" cx="194.43" cy="-296.09" rx="33.47" ry="26.74"/>
<text text-anchor="middle" x="194.43" y="-299.89" font-family="Times New Roman,serif" font-size="14.00">[0..4)</text>
<text text-anchor="middle" x="194.43" y="-284.89" font-family="Times New Roman,serif" font-size="14.00">0.28</text>
</g>
<!-- BB1 -->
<g id="node2" class="node">
<title>BB1</title>
<ellipse fill="none" stroke="black" cx="146.43" cy="-206.35" rx="37.45" ry="26.74"/>
<text text-anchor="middle" x="146.43" y="-210.15" font-family="Times New Roman,serif" font-size="14.00">[4..10)</text>
<text text-anchor="middle" x="146.43" y="-195.15" font-family="Times New Roman,serif" font-size="14.00">0.03</text>
</g>
<!-- BB0&#45;&gt;BB1 -->
<g id="edge2" class="edge">
<title>BB0&#45;&gt;BB1</title>
<path fill="none" stroke="black" d="M181.31,-271.12C176.17,-261.71 170.18,-250.77 164.63,-240.62"/>
<polygon fill="black" stroke="black" points="167.56,-238.69 159.69,-231.6 161.42,-242.05 167.56,-238.69"/>
</g>
<!-- BB5 -->
<g id="node6" class="node">
<title>BB5</title>
<ellipse fill="none" stroke="black" cx="265.43" cy="-206.35" rx="41.94" ry="26.74"/>
<text text-anchor="middle" x="265.43" y="-210.15" font-family="Times New Roman,serif" font-size="14.00">[3a..42)</text>
<text text-anchor="middle" x="265.43" y="-195.15" font-family="Times New Roman,serif" font-size="14.00">0.28</text>
</g>
<!-- BB0&#45;&gt;BB5 -->
<g id="edge1" class="edge">
<title>BB0&#45;&gt;BB5</title>
<path fill="none" stroke="black" d="M212.34,-272.95C220.81,-262.49 231.05,-249.83 240.28,-238.43"/>
<polygon fill="black" stroke="black" points="243.2,-240.38 246.77,-230.4 237.76,-235.97 243.2,-240.38"/>
</g>
<!-- BB2 -->
<g id="node3" class="node">
<title>BB2</title>
<ellipse fill="none" stroke="black" cx="42.43" cy="-116.61" rx="42.35" ry="26.74"/>
<text text-anchor="middle" x="42.43" y="-120.41" font-family="Times New Roman,serif" font-size="14.00">[10..20)</text>
<text text-anchor="middle" x="42.43" y="-105.41" font-family="Times New Roman,serif" font-size="14.00">0.03</text>
</g>
<!-- BB1&#45;&gt;BB2 -->
<g id="edge4" class="edge">
<title>BB1&#45;&gt;BB2</title>
<path fill="none" stroke="black" d="M122.83,-185.44C108.74,-173.56 90.65,-158.29 75.19,-145.25"/>
<polygon fill="black" stroke="black" points="77.28,-142.44 67.38,-138.66 72.77,-147.79 77.28,-142.44"/>
</g>
<!-- BB3 -->
<g id="node4" class="node">
<title>BB3</title>
<ellipse fill="none" stroke="black" cx="146.43" cy="-116.61" rx="43.27" ry="26.74"/>
<text text-anchor="middle" x="146.43" y="-120.41" font-family="Times New Roman,serif" font-size="14.00">[20..2d)</text>
<text text-anchor="middle" x="146.43" y="-105.41" font-family="Times New Roman,serif" font-size="14.00">0.01</text>
</g>
<!-- BB1&#45;&gt;BB3 -->
<g id="edge3" class="edge">
<title>BB1&#45;&gt;BB3</title>
<path fill="none" stroke="black" d="M146.43,-179.03C146.43,-171.06 146.43,-162.17 146.43,-153.68"/>
<polygon fill="black" stroke="black" points="149.93,-153.61 146.43,-143.61 142.93,-153.61 149.93,-153.61"/>
</g>
<!-- BB4 -->
<g id="node5" class="node">
<title>BB4</title>
<ellipse fill="none" stroke="black" cx="146.43" cy="-26.87" rx="42.35" ry="26.74"/>
<text text-anchor="middle" x="146.43" y="-30.67" font-family="Times New Roman,serif" font-size="14.00">[2d..3a)</text>
<text text-anchor="middle" x="146.43" y="-15.67" font-family="Times New Roman,serif" font-size="14.00">0.03</text>
</g>
<!-- BB2&#45;&gt;BB4 -->
<g id="edge5" class="edge">
<title>BB2&#45;&gt;BB4</title>
<path fill="none" stroke="black" d="M67.34,-94.59C81.23,-82.87 98.7,-68.13 113.69,-55.49"/>
<polygon fill="black" stroke="black" points="116.33,-57.84 121.72,-48.71 111.82,-52.49 116.33,-57.84"/>
</g>
<!-- BB3&#45;&gt;BB4 -->
<g id="edge6" class="edge">
<title>BB3&#45;&gt;BB4</title>
<path fill="none" stroke="black" d="M146.43,-89.29C146.43,-81.32 146.43,-72.43 146.43,-63.94"/>
<polygon fill="black" stroke="black" points="149.93,-63.87 146.43,-53.87 142.93,-63.87 149.93,-63.87"/>
</g>
<!-- BB4&#45;&gt;BB5 -->
<g id="edge7" class="edge">
<title>BB4&#45;&gt;BB5</title>
<path fill="none" stroke="black" d="M167.17,-50.61C177.12,-61.99 188.91,-76.19 198.43,-89.74 217.02,-116.22 235.24,-148.17 247.98,-171.76"/>
<polygon fill="black" stroke="black" points="244.95,-173.52 252.75,-180.68 251.12,-170.21 244.95,-173.52"/>
</g>
<!-- BB6 -->
<g id="node7" class="node">
<title>BB6</title>
<ellipse fill="none" stroke="black" cx="287.43" cy="-116.61" rx="41.94" ry="26.74"/>
<text text-anchor="middle" x="287.43" y="-120.41" font-family="Times New Roman,serif" font-size="14.00">[42..4e)</text>
<text text-anchor="middle" x="287.43" y="-105.41" font-family="Times New Roman,serif" font-size="14.00">0.06</text>
</g>
<!-- BB5&#45;&gt;BB6 -->
<g id="edge9" class="edge">
<title>BB5&#45;&gt;BB6</title>
<path fill="none" stroke="black" d="M271.91,-179.5C273.99,-171.2 276.33,-161.86 278.55,-153"/>
<polygon fill="black" stroke="black" points="281.95,-153.83 280.99,-143.28 275.16,-152.12 281.95,-153.83"/>
</g>
<!-- BB7 -->
<g id="node8" class="node">
<title>BB7</title>
<ellipse fill="none" stroke="black" cx="387.43" cy="-116.61" rx="40.11" ry="26.74"/>
<text text-anchor="middle" x="387.43" y="-120.41" font-family="Times New Roman,serif" font-size="14.00">[4e..4f)</text>
<text text-anchor="middle" x="387.43" y="-105.41" font-family="Times New Roman,serif" font-size="14.00">0.28</text>
</g>
<!-- BB5&#45;&gt;BB7 -->
<g id="edge8" class="edge">
<title>BB5&#45;&gt;BB7</title>
<path fill="none" stroke="black" d="M292.5,-185.88C310.11,-173.21 333.26,-156.57 352.28,-142.89"/>
<polygon fill="black" stroke="black" points="354.35,-145.71 360.43,-137.03 350.26,-140.03 354.35,-145.71"/>
</g>
<!-- BB6&#45;&gt;BB7 -->
<g id="edge10" class="edge">
<title>BB6&#45;&gt;BB7</title>
<path fill="none" stroke="black" d="M329.22,-116.61C331.72,-116.61 334.21,-116.61 336.7,-116.61"/>
<polygon fill="black" stroke="black" points="336.96,-120.11 346.96,-116.61 336.96,-113.11 336.96,-120.11"/>
</g>
</g>
</svg>
