<?xml version="1.0" encoding="UTF-8" standalone="no"?>
<!DOCTYPE svg PUBLIC "-//W3C//DTD SVG 1.1//EN"
 "http://www.w3.org/Graphics/SVG/1.1/DTD/svg11.dtd">
<!-- Generated by graphviz version 2.47.0 (20210316.0004)
 -->
<!-- Title: G Pages: 1 -->
<svg width="1224pt" height="971pt"
 viewBox="0.00 0.00 1223.55 970.58" xmlns="http://www.w3.org/2000/svg" xmlns:xlink="http://www.w3.org/1999/xlink">
<g id="graph0" class="graph" transform="scale(1 1) rotate(0) translate(4 966.58)">
<title>G</title>
<polygon fill="white" stroke="transparent" points="-4,4 -4,-966.58 1219.55,-966.58 1219.55,4 -4,4"/>
<!-- BB0 -->
<g id="node1" class="node">
<title>BB0</title>
<ellipse fill="none" stroke="black" cx="347.77" cy="-925.1" rx="106.55" ry="37.45"/>
<text text-anchor="middle" x="347.77" y="-936.4" font-family="Times New Roman,serif" font-size="14.00">[0..b)</text>
<text text-anchor="middle" x="347.77" y="-921.4" font-family="Times New Roman,serif" font-size="14.00">Normalized Count: NaN</text>
<text text-anchor="middle" x="347.77" y="-906.4" font-family="Times New Roman,serif" font-size="14.00">Samples weight: 0.00</text>
</g>
<!-- BB5 -->
<g id="node6" class="node">
<title>BB5</title>
<ellipse fill="none" stroke="black" cx="347.77" cy="-814.15" rx="115.93" ry="37.45"/>
<text text-anchor="middle" x="347.77" y="-825.45" font-family="Times New Roman,serif" font-size="14.00">[27..2c)</text>
<text text-anchor="middle" x="347.77" y="-810.45" font-family="Times New Roman,serif" font-size="14.00">Normalized Count: Infinity</text>
<text text-anchor="middle" x="347.77" y="-795.45" font-family="Times New Roman,serif" font-size="14.00">Samples weight: 0.00</text>
</g>
<!-- BB0&#45;&gt;BB5 -->
<g id="edge1" class="edge">
<title>BB0&#45;&gt;BB5</title>
<path fill="none" stroke="black" d="M347.77,-887.52C347.77,-879.35 347.77,-870.57 347.77,-862.04"/>
<polygon fill="black" stroke="black" points="351.27,-861.82 347.77,-851.82 344.27,-861.82 351.27,-861.82"/>
</g>
<!-- BB1 -->
<g id="node2" class="node">
<title>BB1</title>
<ellipse fill="none" stroke="black" cx="347.77" cy="-703.2" rx="115.93" ry="37.45"/>
<text text-anchor="middle" x="347.77" y="-714.5" font-family="Times New Roman,serif" font-size="14.00">[b..f)</text>
<text text-anchor="middle" x="347.77" y="-699.5" font-family="Times New Roman,serif" font-size="14.00">Normalized Count: Infinity</text>
<text text-anchor="middle" x="347.77" y="-684.5" font-family="Times New Roman,serif" font-size="14.00">Samples weight: 0.00</text>
</g>
<!-- BB3 -->
<g id="node4" class="node">
<title>BB3</title>
<ellipse fill="none" stroke="black" cx="347.77" cy="-592.24" rx="115.93" ry="37.45"/>
<text text-anchor="middle" x="347.77" y="-603.54" font-family="Times New Roman,serif" font-size="14.00">[1e..23)</text>
<text text-anchor="middle" x="347.77" y="-588.54" font-family="Times New Roman,serif" font-size="14.00">Normalized Count: Infinity</text>
<text text-anchor="middle" x="347.77" y="-573.54" font-family="Times New Roman,serif" font-size="14.00">Samples weight: 0.00</text>
</g>
<!-- BB1&#45;&gt;BB3 -->
<g id="edge2" class="edge">
<title>BB1&#45;&gt;BB3</title>
<path fill="none" stroke="black" d="M347.77,-665.61C347.77,-657.44 347.77,-648.66 347.77,-640.13"/>
<polygon fill="black" stroke="black" points="351.27,-639.92 347.77,-629.92 344.27,-639.92 351.27,-639.92"/>
</g>
<!-- BB2 -->
<g id="node3" class="node">
<title>BB2</title>
<ellipse fill="none" stroke="black" cx="347.77" cy="-481.29" rx="115.93" ry="37.45"/>
<text text-anchor="middle" x="347.77" y="-492.59" font-family="Times New Roman,serif" font-size="14.00">[f..1e)</text>
<text text-anchor="middle" x="347.77" y="-477.59" font-family="Times New Roman,serif" font-size="14.00">Normalized Count: Infinity</text>
<text text-anchor="middle" x="347.77" y="-462.59" font-family="Times New Roman,serif" font-size="14.00">Samples weight: 0.02</text>
</g>
<!-- BB2&#45;&gt;BB3 -->
<g id="edge3" class="edge">
<title>BB2&#45;&gt;BB3</title>
<path fill="none" stroke="black" d="M354.19,-518.96C354.51,-527.14 354.6,-535.92 354.46,-544.45"/>
<polygon fill="black" stroke="black" points="350.96,-544.57 354.19,-554.66 357.96,-544.76 350.96,-544.57"/>
</g>
<!-- BB3&#45;&gt;BB2 -->
<g id="edge4" class="edge">
<title>BB3&#45;&gt;BB2</title>
<path fill="none" stroke="black" d="M341.36,-554.66C341.04,-546.49 340.95,-537.71 341.08,-529.18"/>
<polygon fill="black" stroke="black" points="344.59,-529.05 341.35,-518.96 337.59,-528.86 344.59,-529.05"/>
</g>
<!-- BB4 -->
<g id="node5" class="node">
<title>BB4</title>
<ellipse fill="none" stroke="black" cx="106.77" cy="-481.29" rx="106.55" ry="37.45"/>
<text text-anchor="middle" x="106.77" y="-492.59" font-family="Times New Roman,serif" font-size="14.00">[23..27)</text>
<text text-anchor="middle" x="106.77" y="-477.59" font-family="Times New Roman,serif" font-size="14.00">Normalized Count: NaN</text>
<text text-anchor="middle" x="106.77" y="-462.59" font-family="Times New Roman,serif" font-size="14.00">Samples weight: 0.00</text>
</g>
<!-- BB3&#45;&gt;BB4 -->
<g id="edge5" class="edge">
<title>BB3&#45;&gt;BB4</title>
<path fill="none" stroke="black" d="M281.6,-561.33C250.27,-547.16 212.75,-530.2 180.51,-515.63"/>
<polygon fill="black" stroke="black" points="181.69,-512.32 171.13,-511.39 178.8,-518.7 181.69,-512.32"/>
</g>
<!-- BB4&#45;&gt;BB5 -->
<g id="edge6" class="edge">
<title>BB4&#45;&gt;BB5</title>
<path fill="none" stroke="black" d="M115.46,-518.81C129.87,-572.78 163.18,-674.57 222.77,-740.67 236.15,-755.51 253.29,-768.13 270.57,-778.47"/>
<polygon fill="black" stroke="black" points="269.19,-781.71 279.6,-783.67 272.68,-775.65 269.19,-781.71"/>
</g>
<!-- BB5&#45;&gt;BB1 -->
<g id="edge7" class="edge">
<title>BB5&#45;&gt;BB1</title>
<path fill="none" stroke="black" d="M347.77,-776.57C347.77,-768.39 347.77,-759.61 347.77,-751.09"/>
<polygon fill="black" stroke="black" points="351.27,-750.87 347.77,-740.87 344.27,-750.87 351.27,-750.87"/>
</g>
<!-- BB6 -->
<g id="node7" class="node">
<title>BB6</title>
<ellipse fill="none" stroke="black" cx="600.77" cy="-703.2" rx="106.55" ry="37.45"/>
<text text-anchor="middle" x="600.77" y="-714.5" font-family="Times New Roman,serif" font-size="14.00">[2c..30)</text>
<text text-anchor="middle" x="600.77" y="-699.5" font-family="Times New Roman,serif" font-size="14.00">Normalized Count: NaN</text>
<text text-anchor="middle" x="600.77" y="-684.5" font-family="Times New Roman,serif" font-size="14.00">Samples weight: 0.00</text>
</g>
<!-- BB5&#45;&gt;BB6 -->
<g id="edge8" class="edge">
<title>BB5&#45;&gt;BB6</title>
<path fill="none" stroke="black" d="M415.91,-783.81C449.62,-769.29 490.41,-751.72 525.1,-736.79"/>
<polygon fill="black" stroke="black" points="526.91,-739.82 534.71,-732.65 524.14,-733.39 526.91,-739.82"/>
</g>
<!-- BB13 -->
<g id="node14" class="node">
<title>BB13</title>
<ellipse fill="none" stroke="black" cx="623.77" cy="-592.24" rx="106.55" ry="37.45"/>
<text text-anchor="middle" x="623.77" y="-603.54" font-family="Times New Roman,serif" font-size="14.00">[70..75)</text>
<text text-anchor="middle" x="623.77" y="-588.54" font-family="Times New Roman,serif" font-size="14.00">Normalized Count: NaN</text>
<text text-anchor="middle" x="623.77" y="-573.54" font-family="Times New Roman,serif" font-size="14.00">Samples weight: 0.00</text>
</g>
<!-- BB6&#45;&gt;BB13 -->
<g id="edge9" class="edge">
<title>BB6&#45;&gt;BB13</title>
<path fill="none" stroke="black" d="M608.5,-665.61C610.24,-657.35 612.12,-648.47 613.93,-639.85"/>
<polygon fill="black" stroke="black" points="617.39,-640.42 616.03,-629.92 610.54,-638.98 617.39,-640.42"/>
</g>
<!-- BB7 -->
<g id="node8" class="node">
<title>BB7</title>
<ellipse fill="none" stroke="black" cx="631.77" cy="-481.29" rx="106.55" ry="37.45"/>
<text text-anchor="middle" x="631.77" y="-492.59" font-family="Times New Roman,serif" font-size="14.00">[30..34)</text>
<text text-anchor="middle" x="631.77" y="-477.59" font-family="Times New Roman,serif" font-size="14.00">Normalized Count: NaN</text>
<text text-anchor="middle" x="631.77" y="-462.59" font-family="Times New Roman,serif" font-size="14.00">Samples weight: 0.00</text>
</g>
<!-- BB11 -->
<g id="node12" class="node">
<title>BB11</title>
<ellipse fill="none" stroke="black" cx="635.77" cy="-370.34" rx="115.93" ry="37.45"/>
<text text-anchor="middle" x="635.77" y="-381.64" font-family="Times New Roman,serif" font-size="14.00">[67..6c)</text>
<text text-anchor="middle" x="635.77" y="-366.64" font-family="Times New Roman,serif" font-size="14.00">Normalized Count: Infinity</text>
<text text-anchor="middle" x="635.77" y="-351.64" font-family="Times New Roman,serif" font-size="14.00">Samples weight: 0.00</text>
</g>
<!-- BB7&#45;&gt;BB11 -->
<g id="edge10" class="edge">
<title>BB7&#45;&gt;BB11</title>
<path fill="none" stroke="black" d="M633.12,-443.71C633.42,-435.53 633.74,-426.75 634.05,-418.23"/>
<polygon fill="black" stroke="black" points="637.56,-418.13 634.43,-408.01 630.56,-417.87 637.56,-418.13"/>
</g>
<!-- BB8 -->
<g id="node9" class="node">
<title>BB8</title>
<ellipse fill="none" stroke="black" cx="776.77" cy="-259.38" rx="115.93" ry="37.45"/>
<text text-anchor="middle" x="776.77" y="-270.68" font-family="Times New Roman,serif" font-size="14.00">[34..36)</text>
<text text-anchor="middle" x="776.77" y="-255.68" font-family="Times New Roman,serif" font-size="14.00">Normalized Count: Infinity</text>
<text text-anchor="middle" x="776.77" y="-240.68" font-family="Times New Roman,serif" font-size="14.00">Samples weight: 0.00</text>
</g>
<!-- BB9 -->
<g id="node10" class="node">
<title>BB9</title>
<ellipse fill="none" stroke="black" cx="776.77" cy="-148.43" rx="115.93" ry="37.45"/>
<text text-anchor="middle" x="776.77" y="-159.73" font-family="Times New Roman,serif" font-size="14.00">[36..63)</text>
<text text-anchor="middle" x="776.77" y="-144.73" font-family="Times New Roman,serif" font-size="14.00">Normalized Count: Infinity</text>
<text text-anchor="middle" x="776.77" y="-129.73" font-family="Times New Roman,serif" font-size="14.00">Samples weight: 0.97</text>
</g>
<!-- BB8&#45;&gt;BB9 -->
<g id="edge11" class="edge">
<title>BB8&#45;&gt;BB9</title>
<path fill="none" stroke="black" d="M776.77,-221.8C776.77,-213.63 776.77,-204.85 776.77,-196.32"/>
<polygon fill="black" stroke="black" points="780.27,-196.1 776.77,-186.1 773.27,-196.1 780.27,-196.1"/>
</g>
<!-- BB9&#45;&gt;BB9 -->
<g id="edge12" class="edge">
<title>BB9&#45;&gt;BB9</title>
<path fill="none" stroke="black" d="M875.21,-168.36C895.86,-166.3 910.74,-159.66 910.74,-148.43 910.74,-139.13 900.53,-132.98 885.3,-129.97"/>
<polygon fill="black" stroke="black" points="885.61,-126.48 875.21,-128.5 884.6,-133.4 885.61,-126.48"/>
</g>
<!-- BB10 -->
<g id="node11" class="node">
<title>BB10</title>
<ellipse fill="none" stroke="black" cx="704.77" cy="-37.48" rx="115.93" ry="37.45"/>
<text text-anchor="middle" x="704.77" y="-48.78" font-family="Times New Roman,serif" font-size="14.00">[63..67)</text>
<text text-anchor="middle" x="704.77" y="-33.78" font-family="Times New Roman,serif" font-size="14.00">Normalized Count: Infinity</text>
<text text-anchor="middle" x="704.77" y="-18.78" font-family="Times New Roman,serif" font-size="14.00">Samples weight: 0.00</text>
</g>
<!-- BB9&#45;&gt;BB10 -->
<g id="edge13" class="edge">
<title>BB9&#45;&gt;BB10</title>
<path fill="none" stroke="black" d="M753,-111.45C746.98,-102.34 740.44,-92.45 734.17,-82.97"/>
<polygon fill="black" stroke="black" points="736.96,-80.83 728.52,-74.42 731.12,-84.69 736.96,-80.83"/>
</g>
<!-- BB10&#45;&gt;BB11 -->
<g id="edge14" class="edge">
<title>BB10&#45;&gt;BB11</title>
<path fill="none" stroke="black" d="M672.83,-73.73C664.5,-84.88 656.54,-97.76 651.77,-110.95 626.37,-181.3 627.23,-269.36 630.94,-322.39"/>
<polygon fill="black" stroke="black" points="627.47,-322.81 631.72,-332.52 634.45,-322.28 627.47,-322.81"/>
</g>
<!-- BB11&#45;&gt;BB8 -->
<g id="edge15" class="edge">
<title>BB11&#45;&gt;BB8</title>
<path fill="none" stroke="black" d="M679.61,-335.46C693.94,-324.39 709.98,-311.99 724.84,-300.51"/>
<polygon fill="black" stroke="black" points="727.19,-303.12 732.96,-294.24 722.91,-297.58 727.19,-303.12"/>
</g>
<!-- BB12 -->
<g id="node13" class="node">
<title>BB12</title>
<ellipse fill="none" stroke="black" cx="495.77" cy="-259.38" rx="106.55" ry="37.45"/>
<text text-anchor="middle" x="495.77" y="-270.68" font-family="Times New Roman,serif" font-size="14.00">[6c..70)</text>
<text text-anchor="middle" x="495.77" y="-255.68" font-family="Times New Roman,serif" font-size="14.00">Normalized Count: NaN</text>
<text text-anchor="middle" x="495.77" y="-240.68" font-family="Times New Roman,serif" font-size="14.00">Samples weight: 0.00</text>
</g>
<!-- BB11&#45;&gt;BB12 -->
<g id="edge16" class="edge">
<title>BB11&#45;&gt;BB12</title>
<path fill="none" stroke="black" d="M592.24,-335.46C577.89,-324.29 561.79,-311.76 546.91,-300.18"/>
<polygon fill="black" stroke="black" points="548.84,-297.24 538.79,-293.86 544.54,-302.77 548.84,-297.24"/>
</g>
<!-- BB12&#45;&gt;BB13 -->
<g id="edge17" class="edge">
<title>BB12&#45;&gt;BB13</title>
<path fill="none" stroke="black" d="M489.15,-297.13C481.6,-350.05 475.05,-449.02 515.77,-518.77 524.48,-533.68 537.63,-546.15 551.78,-556.31"/>
<polygon fill="black" stroke="black" points="549.97,-559.31 560.21,-562.03 553.9,-553.52 549.97,-559.31"/>
</g>
<!-- BB13&#45;&gt;BB7 -->
<g id="edge18" class="edge">
<title>BB13&#45;&gt;BB7</title>
<path fill="none" stroke="black" d="M626.46,-554.66C627.06,-546.49 627.7,-537.71 628.33,-529.18"/>
<polygon fill="black" stroke="black" points="631.84,-529.19 629.08,-518.96 624.86,-528.68 631.84,-529.19"/>
</g>
<!-- BB14 -->
<g id="node15" class="node">
<title>BB14</title>
<ellipse fill="none" stroke="black" cx="876.77" cy="-481.29" rx="106.55" ry="37.45"/>
<text text-anchor="middle" x="876.77" y="-492.59" font-family="Times New Roman,serif" font-size="14.00">[75..7e)</text>
<text text-anchor="middle" x="876.77" y="-477.59" font-family="Times New Roman,serif" font-size="14.00">Normalized Count: NaN</text>
<text text-anchor="middle" x="876.77" y="-462.59" font-family="Times New Roman,serif" font-size="14.00">Samples weight: 0.00</text>
</g>
<!-- BB13&#45;&gt;BB14 -->
<g id="edge19" class="edge">
<title>BB13&#45;&gt;BB14</title>
<path fill="none" stroke="black" d="M689.92,-562.76C724.05,-548.06 765.85,-530.06 801.25,-514.81"/>
<polygon fill="black" stroke="black" points="802.78,-517.97 810.58,-510.8 800.01,-511.54 802.78,-517.97"/>
</g>
<!-- BB15 -->
<g id="node16" class="node">
<title>BB15</title>
<ellipse fill="none" stroke="black" cx="876.77" cy="-370.34" rx="106.55" ry="37.45"/>
<text text-anchor="middle" x="876.77" y="-381.64" font-family="Times New Roman,serif" font-size="14.00">[7e..80)</text>
<text text-anchor="middle" x="876.77" y="-366.64" font-family="Times New Roman,serif" font-size="14.00">Normalized Count: NaN</text>
<text text-anchor="middle" x="876.77" y="-351.64" font-family="Times New Roman,serif" font-size="14.00">Samples weight: 0.00</text>
</g>
<!-- BB14&#45;&gt;BB15 -->
<g id="edge21" class="edge">
<title>BB14&#45;&gt;BB15</title>
<path fill="none" stroke="black" d="M876.77,-443.71C876.77,-435.53 876.77,-426.75 876.77,-418.23"/>
<polygon fill="black" stroke="black" points="880.27,-418.01 876.77,-408.01 873.27,-418.01 880.27,-418.01"/>
</g>
<!-- BB16 -->
<g id="node17" class="node">
<title>BB16</title>
<ellipse fill="none" stroke="black" cx="1108.77" cy="-370.34" rx="106.55" ry="37.45"/>
<text text-anchor="middle" x="1108.77" y="-381.64" font-family="Times New Roman,serif" font-size="14.00">[80..82)</text>
<text text-anchor="middle" x="1108.77" y="-366.64" font-family="Times New Roman,serif" font-size="14.00">Normalized Count: NaN</text>
<text text-anchor="middle" x="1108.77" y="-351.64" font-family="Times New Roman,serif" font-size="14.00">Samples weight: 0.00</text>
</g>
<!-- BB14&#45;&gt;BB16 -->
<g id="edge20" class="edge">
<title>BB14&#45;&gt;BB16</title>
<path fill="none" stroke="black" d="M939.56,-450.81C969.6,-436.7 1005.73,-419.73 1036.87,-405.1"/>
<polygon fill="black" stroke="black" points="1038.38,-408.26 1045.94,-400.84 1035.4,-401.93 1038.38,-408.26"/>
</g>
</g>
</svg>
