<?xml version="1.0" encoding="UTF-8" standalone="no"?>
<!DOCTYPE svg PUBLIC "-//W3C//DTD SVG 1.1//EN"
 "http://www.w3.org/Graphics/SVG/1.1/DTD/svg11.dtd">
<!-- Generated by graphviz version 2.47.0 (20210316.0004)
 -->
<!-- Title: G Pages: 1 -->
<svg width="1124pt" height="897pt"
 viewBox="0.00 0.00 1123.71 897.17" xmlns="http://www.w3.org/2000/svg" xmlns:xlink="http://www.w3.org/1999/xlink">
<g id="graph0" class="graph" transform="scale(1 1) rotate(0) translate(4 893.17)">
<title>G</title>
<polygon fill="white" stroke="transparent" points="-4,4 -4,-893.17 1119.71,-893.17 1119.71,4 -4,4"/>
<!-- BB0 -->
<g id="node1" class="node">
<title>BB0</title>
<ellipse fill="none" stroke="black" cx="865.19" cy="-841.08" rx="103.48" ry="48.17"/>
<text text-anchor="middle" x="865.19" y="-859.88" font-family="Times New Roman,serif" font-size="14.00">[0..4)</text>
<text text-anchor="middle" x="865.19" y="-844.88" font-family="Times New Roman,serif" font-size="14.00">Count: 1</text>
<text text-anchor="middle" x="865.19" y="-829.88" font-family="Times New Roman,serif" font-size="14.00">Normalized count: 1.00</text>
<text text-anchor="middle" x="865.19" y="-814.88" font-family="Times New Roman,serif" font-size="14.00">Samples weight: 0.00</text>
</g>
<!-- BB1 -->
<g id="node2" class="node">
<title>BB1</title>
<ellipse fill="none" stroke="black" cx="751.19" cy="-708.92" rx="108.38" ry="48.17"/>
<text text-anchor="middle" x="751.19" y="-727.72" font-family="Times New Roman,serif" font-size="14.00">[4..e)</text>
<text text-anchor="middle" x="751.19" y="-712.72" font-family="Times New Roman,serif" font-size="14.00">Count: 26</text>
<text text-anchor="middle" x="751.19" y="-697.72" font-family="Times New Roman,serif" font-size="14.00">Normalized count: 26.00</text>
<text text-anchor="middle" x="751.19" y="-682.72" font-family="Times New Roman,serif" font-size="14.00">Samples weight: 0.06</text>
</g>
<!-- BB0&#45;&gt;BB1 -->
<g id="edge2" class="edge">
<title>BB0&#45;&gt;BB1</title>
<path fill="none" stroke="black" d="M826.91,-796.38C817.24,-785.34 806.76,-773.37 796.77,-761.96"/>
<polygon fill="black" stroke="black" points="799.17,-759.39 789.95,-754.17 793.9,-764 799.17,-759.39"/>
</g>
<!-- BB15 -->
<g id="node16" class="node">
<title>BB15</title>
<ellipse fill="none" stroke="black" cx="981.19" cy="-708.92" rx="103.48" ry="48.17"/>
<text text-anchor="middle" x="981.19" y="-727.72" font-family="Times New Roman,serif" font-size="14.00">[66..67)</text>
<text text-anchor="middle" x="981.19" y="-712.72" font-family="Times New Roman,serif" font-size="14.00">Count: 7</text>
<text text-anchor="middle" x="981.19" y="-697.72" font-family="Times New Roman,serif" font-size="14.00">Normalized count: 7.00</text>
<text text-anchor="middle" x="981.19" y="-682.72" font-family="Times New Roman,serif" font-size="14.00">Samples weight: 0.02</text>
</g>
<!-- BB0&#45;&gt;BB15 -->
<g id="edge1" class="edge">
<title>BB0&#45;&gt;BB15</title>
<path fill="none" stroke="black" d="M904.14,-796.38C914.18,-785.11 925.08,-772.88 935.43,-761.26"/>
<polygon fill="black" stroke="black" points="938.1,-763.52 942.14,-753.73 932.88,-758.86 938.1,-763.52"/>
</g>
<!-- BB11 -->
<g id="node12" class="node">
<title>BB11</title>
<ellipse fill="none" stroke="black" cx="750.19" cy="-576.75" rx="103.48" ry="48.17"/>
<text text-anchor="middle" x="750.19" y="-595.55" font-family="Times New Roman,serif" font-size="14.00">[3e..42)</text>
<text text-anchor="middle" x="750.19" y="-580.55" font-family="Times New Roman,serif" font-size="14.00">Count: 8</text>
<text text-anchor="middle" x="750.19" y="-565.55" font-family="Times New Roman,serif" font-size="14.00">Normalized count: 8.00</text>
<text text-anchor="middle" x="750.19" y="-550.55" font-family="Times New Roman,serif" font-size="14.00">Samples weight: 0.02</text>
</g>
<!-- BB1&#45;&gt;BB11 -->
<g id="edge3" class="edge">
<title>BB1&#45;&gt;BB11</title>
<path fill="none" stroke="black" d="M750.82,-660.55C750.76,-652.29 750.69,-643.6 750.63,-635.1"/>
<polygon fill="black" stroke="black" points="754.13,-634.83 750.55,-624.86 747.13,-634.88 754.13,-634.83"/>
</g>
<!-- BB2 -->
<g id="node3" class="node">
<title>BB2</title>
<ellipse fill="none" stroke="black" cx="108.19" cy="-180.25" rx="108.38" ry="48.17"/>
<text text-anchor="middle" x="108.19" y="-199.05" font-family="Times New Roman,serif" font-size="14.00">[e..12)</text>
<text text-anchor="middle" x="108.19" y="-184.05" font-family="Times New Roman,serif" font-size="14.00">Count: 34</text>
<text text-anchor="middle" x="108.19" y="-169.05" font-family="Times New Roman,serif" font-size="14.00">Normalized count: 34.00</text>
<text text-anchor="middle" x="108.19" y="-154.05" font-family="Times New Roman,serif" font-size="14.00">Samples weight: 0.07</text>
</g>
<!-- BB3 -->
<g id="node4" class="node">
<title>BB3</title>
<ellipse fill="none" stroke="black" cx="361.19" cy="-444.58" rx="108.38" ry="48.17"/>
<text text-anchor="middle" x="361.19" y="-463.38" font-family="Times New Roman,serif" font-size="14.00">[12..16)</text>
<text text-anchor="middle" x="361.19" y="-448.38" font-family="Times New Roman,serif" font-size="14.00">Count: 13</text>
<text text-anchor="middle" x="361.19" y="-433.38" font-family="Times New Roman,serif" font-size="14.00">Normalized count: 13.00</text>
<text text-anchor="middle" x="361.19" y="-418.38" font-family="Times New Roman,serif" font-size="14.00">Samples weight: 0.03</text>
</g>
<!-- BB2&#45;&gt;BB3 -->
<g id="edge4" class="edge">
<title>BB2&#45;&gt;BB3</title>
<path fill="none" stroke="black" d="M100.39,-228.25C96.58,-267.7 97.93,-323.39 127.19,-360.5 156.22,-397.32 202.83,-417.85 246.83,-429.29"/>
<polygon fill="black" stroke="black" points="246.21,-432.74 256.76,-431.73 247.89,-425.95 246.21,-432.74"/>
</g>
<!-- BB4 -->
<g id="node5" class="node">
<title>BB4</title>
<ellipse fill="none" stroke="black" cx="244.19" cy="-312.42" rx="108.38" ry="48.17"/>
<text text-anchor="middle" x="244.19" y="-331.22" font-family="Times New Roman,serif" font-size="14.00">[16..1c)</text>
<text text-anchor="middle" x="244.19" y="-316.22" font-family="Times New Roman,serif" font-size="14.00">Count: 25</text>
<text text-anchor="middle" x="244.19" y="-301.22" font-family="Times New Roman,serif" font-size="14.00">Normalized count: 25.00</text>
<text text-anchor="middle" x="244.19" y="-286.22" font-family="Times New Roman,serif" font-size="14.00">Samples weight: 0.05</text>
</g>
<!-- BB3&#45;&gt;BB4 -->
<g id="edge6" class="edge">
<title>BB3&#45;&gt;BB4</title>
<path fill="none" stroke="black" d="M321.58,-399.51C311.67,-388.49 300.94,-376.56 290.73,-365.2"/>
<polygon fill="black" stroke="black" points="293.05,-362.54 283.76,-357.44 287.84,-367.22 293.05,-362.54"/>
</g>
<!-- BB7 -->
<g id="node8" class="node">
<title>BB7</title>
<ellipse fill="none" stroke="black" cx="478.19" cy="-312.42" rx="108.38" ry="48.17"/>
<text text-anchor="middle" x="478.19" y="-331.22" font-family="Times New Roman,serif" font-size="14.00">[22..26)</text>
<text text-anchor="middle" x="478.19" y="-316.22" font-family="Times New Roman,serif" font-size="14.00">Count: 45</text>
<text text-anchor="middle" x="478.19" y="-301.22" font-family="Times New Roman,serif" font-size="14.00">Normalized count: 45.00</text>
<text text-anchor="middle" x="478.19" y="-286.22" font-family="Times New Roman,serif" font-size="14.00">Samples weight: 0.10</text>
</g>
<!-- BB3&#45;&gt;BB7 -->
<g id="edge5" class="edge">
<title>BB3&#45;&gt;BB7</title>
<path fill="none" stroke="black" d="M400.8,-399.51C410.71,-388.49 421.43,-376.56 431.64,-365.2"/>
<polygon fill="black" stroke="black" points="434.54,-367.22 438.62,-357.44 429.33,-362.54 434.54,-367.22"/>
</g>
<!-- BB4&#45;&gt;BB2 -->
<g id="edge7" class="edge">
<title>BB4&#45;&gt;BB2</title>
<path fill="none" stroke="black" d="M199.28,-268.43C186.86,-256.55 173.28,-243.55 160.48,-231.3"/>
<polygon fill="black" stroke="black" points="162.69,-228.57 153.05,-224.19 157.85,-233.63 162.69,-228.57"/>
</g>
<!-- BB5 -->
<g id="node6" class="node">
<title>BB5</title>
<ellipse fill="none" stroke="black" cx="342.19" cy="-180.25" rx="108.38" ry="48.17"/>
<text text-anchor="middle" x="342.19" y="-199.05" font-family="Times New Roman,serif" font-size="14.00">[1c..1e)</text>
<text text-anchor="middle" x="342.19" y="-184.05" font-family="Times New Roman,serif" font-size="14.00">Count: 32</text>
<text text-anchor="middle" x="342.19" y="-169.05" font-family="Times New Roman,serif" font-size="14.00">Normalized count: 32.00</text>
<text text-anchor="middle" x="342.19" y="-154.05" font-family="Times New Roman,serif" font-size="14.00">Samples weight: 0.07</text>
</g>
<!-- BB4&#45;&gt;BB5 -->
<g id="edge8" class="edge">
<title>BB4&#45;&gt;BB5</title>
<path fill="none" stroke="black" d="M277.91,-266.62C285.77,-256.19 294.2,-244.99 302.29,-234.24"/>
<polygon fill="black" stroke="black" points="305.18,-236.22 308.4,-226.13 299.59,-232.01 305.18,-236.22"/>
</g>
<!-- BB5&#45;&gt;BB7 -->
<g id="edge9" class="edge">
<title>BB5&#45;&gt;BB7</title>
<path fill="none" stroke="black" d="M387.05,-224.19C399.46,-236.07 413.05,-249.07 425.85,-261.32"/>
<polygon fill="black" stroke="black" points="423.63,-264.05 433.28,-268.43 428.47,-258.99 423.63,-264.05"/>
</g>
<!-- BB6 -->
<g id="node7" class="node">
<title>BB6</title>
<ellipse fill="none" stroke="black" cx="580.19" cy="-48.08" rx="108.38" ry="48.17"/>
<text text-anchor="middle" x="580.19" y="-66.88" font-family="Times New Roman,serif" font-size="14.00">[1e..22)</text>
<text text-anchor="middle" x="580.19" y="-51.88" font-family="Times New Roman,serif" font-size="14.00">Count: 65</text>
<text text-anchor="middle" x="580.19" y="-36.88" font-family="Times New Roman,serif" font-size="14.00">Normalized count: 65.00</text>
<text text-anchor="middle" x="580.19" y="-21.88" font-family="Times New Roman,serif" font-size="14.00">Samples weight: 0.14</text>
</g>
<!-- BB6&#45;&gt;BB7 -->
<g id="edge10" class="edge">
<title>BB6&#45;&gt;BB7</title>
<path fill="none" stroke="black" d="M528.12,-90.27C516.04,-102.45 504.56,-116.71 497.19,-132.17 479.08,-170.12 474.74,-217.61 474.71,-254.17"/>
<polygon fill="black" stroke="black" points="471.21,-254.22 474.81,-264.18 478.21,-254.15 471.21,-254.22"/>
</g>
<!-- BB8 -->
<g id="node9" class="node">
<title>BB8</title>
<ellipse fill="none" stroke="black" cx="614.19" cy="-180.25" rx="108.38" ry="48.17"/>
<text text-anchor="middle" x="614.19" y="-199.05" font-family="Times New Roman,serif" font-size="14.00">[26..2c)</text>
<text text-anchor="middle" x="614.19" y="-184.05" font-family="Times New Roman,serif" font-size="14.00">Count: 76</text>
<text text-anchor="middle" x="614.19" y="-169.05" font-family="Times New Roman,serif" font-size="14.00">Normalized count: 76.00</text>
<text text-anchor="middle" x="614.19" y="-154.05" font-family="Times New Roman,serif" font-size="14.00">Samples weight: 0.17</text>
</g>
<!-- BB7&#45;&gt;BB8 -->
<g id="edge12" class="edge">
<title>BB7&#45;&gt;BB8</title>
<path fill="none" stroke="black" d="M523.1,-268.43C535.51,-256.55 549.1,-243.55 561.9,-231.3"/>
<polygon fill="black" stroke="black" points="564.52,-233.63 569.33,-224.19 559.68,-228.57 564.52,-233.63"/>
</g>
<!-- BB9 -->
<g id="node10" class="node">
<title>BB9</title>
<ellipse fill="none" stroke="black" cx="848.19" cy="-180.25" rx="108.38" ry="48.17"/>
<text text-anchor="middle" x="848.19" y="-199.05" font-family="Times New Roman,serif" font-size="14.00">[2c..30)</text>
<text text-anchor="middle" x="848.19" y="-184.05" font-family="Times New Roman,serif" font-size="14.00">Count: 42</text>
<text text-anchor="middle" x="848.19" y="-169.05" font-family="Times New Roman,serif" font-size="14.00">Normalized count: 42.00</text>
<text text-anchor="middle" x="848.19" y="-154.05" font-family="Times New Roman,serif" font-size="14.00">Samples weight: 0.09</text>
</g>
<!-- BB7&#45;&gt;BB9 -->
<g id="edge11" class="edge">
<title>BB7&#45;&gt;BB9</title>
<path fill="none" stroke="black" d="M557.51,-279.49C571.63,-274.18 586.28,-268.92 600.19,-264.33 657.54,-245.44 673.98,-247.64 731.19,-228.33 740.93,-225.04 751.05,-221.38 761.06,-217.58"/>
<polygon fill="black" stroke="black" points="762.53,-220.76 770.61,-213.91 760.02,-214.23 762.53,-220.76"/>
</g>
<!-- BB8&#45;&gt;BB6 -->
<g id="edge13" class="edge">
<title>BB8&#45;&gt;BB6</title>
<path fill="none" stroke="black" d="M601.91,-132.26C599.67,-123.69 597.32,-114.66 595.01,-105.84"/>
<polygon fill="black" stroke="black" points="598.36,-104.8 592.44,-96.01 591.59,-106.57 598.36,-104.8"/>
</g>
<!-- BB8&#45;&gt;BB9 -->
<g id="edge14" class="edge">
<title>BB8&#45;&gt;BB9</title>
<path fill="none" stroke="black" d="M722.5,-180.25C724.83,-180.25 727.16,-180.25 729.48,-180.25"/>
<polygon fill="black" stroke="black" points="729.69,-183.75 739.69,-180.25 729.69,-176.75 729.69,-183.75"/>
</g>
<!-- BB10 -->
<g id="node11" class="node">
<title>BB10</title>
<ellipse fill="none" stroke="black" cx="882.19" cy="-48.08" rx="108.38" ry="48.17"/>
<text text-anchor="middle" x="882.19" y="-66.88" font-family="Times New Roman,serif" font-size="14.00">[30..3e)</text>
<text text-anchor="middle" x="882.19" y="-51.88" font-family="Times New Roman,serif" font-size="14.00">Count: 50</text>
<text text-anchor="middle" x="882.19" y="-36.88" font-family="Times New Roman,serif" font-size="14.00">Normalized count: 50.00</text>
<text text-anchor="middle" x="882.19" y="-21.88" font-family="Times New Roman,serif" font-size="14.00">Samples weight: 0.11</text>
</g>
<!-- BB9&#45;&gt;BB10 -->
<g id="edge16" class="edge">
<title>BB9&#45;&gt;BB10</title>
<path fill="none" stroke="black" d="M860.46,-132.26C862.7,-123.69 865.06,-114.66 867.36,-105.84"/>
<polygon fill="black" stroke="black" points="870.79,-106.57 869.93,-96.01 864.02,-104.8 870.79,-106.57"/>
</g>
<!-- BB9&#45;&gt;BB11 -->
<g id="edge15" class="edge">
<title>BB9&#45;&gt;BB11</title>
<path fill="none" stroke="black" d="M769.33,-213.36C756.6,-218.44 743.55,-223.58 731.19,-228.33 687.88,-245 659.75,-226.28 633.19,-264.33 575.09,-347.57 590.85,-402.88 638.19,-492.67 646.71,-508.84 659.96,-522.7 674.39,-534.21"/>
<polygon fill="black" stroke="black" points="672.42,-537.11 682.51,-540.35 676.65,-531.53 672.42,-537.11"/>
</g>
<!-- BB10&#45;&gt;BB11 -->
<g id="edge17" class="edge">
<title>BB10&#45;&gt;BB11</title>
<path fill="none" stroke="black" d="M944,-87.68C1027.42,-144.9 1159.3,-256.69 1101.19,-360.5 1047.14,-457.05 930.13,-515.53 846.06,-546.69"/>
<polygon fill="black" stroke="black" points="844.69,-543.46 836.49,-550.17 847.08,-550.04 844.69,-543.46"/>
</g>
<!-- BB11&#45;&gt;BB3 -->
<g id="edge18" class="edge">
<title>BB11&#45;&gt;BB3</title>
<path fill="none" stroke="black" d="M667.21,-547.99C605.45,-527.32 521.03,-499.07 456.5,-477.48"/>
<polygon fill="black" stroke="black" points="457.32,-474.06 446.72,-474.2 455.1,-480.7 457.32,-474.06"/>
</g>
<!-- BB12 -->
<g id="node13" class="node">
<title>BB12</title>
<ellipse fill="none" stroke="black" cx="750.19" cy="-444.58" rx="103.48" ry="48.17"/>
<text text-anchor="middle" x="750.19" y="-463.38" font-family="Times New Roman,serif" font-size="14.00">[42..46)</text>
<text text-anchor="middle" x="750.19" y="-448.38" font-family="Times New Roman,serif" font-size="14.00">Count: 3</text>
<text text-anchor="middle" x="750.19" y="-433.38" font-family="Times New Roman,serif" font-size="14.00">Normalized count: 3.00</text>
<text text-anchor="middle" x="750.19" y="-418.38" font-family="Times New Roman,serif" font-size="14.00">Samples weight: 0.01</text>
</g>
<!-- BB11&#45;&gt;BB12 -->
<g id="edge19" class="edge">
<title>BB11&#45;&gt;BB12</title>
<path fill="none" stroke="black" d="M750.19,-528.39C750.19,-520.12 750.19,-511.44 750.19,-502.93"/>
<polygon fill="black" stroke="black" points="753.69,-502.69 750.19,-492.69 746.69,-502.69 753.69,-502.69"/>
</g>
<!-- BB13 -->
<g id="node14" class="node">
<title>BB13</title>
<ellipse fill="none" stroke="black" cx="750.19" cy="-312.42" rx="108.38" ry="48.17"/>
<text text-anchor="middle" x="750.19" y="-331.22" font-family="Times New Roman,serif" font-size="14.00">[46..52)</text>
<text text-anchor="middle" x="750.19" y="-316.22" font-family="Times New Roman,serif" font-size="14.00">Count: 18</text>
<text text-anchor="middle" x="750.19" y="-301.22" font-family="Times New Roman,serif" font-size="14.00">Normalized count: 18.00</text>
<text text-anchor="middle" x="750.19" y="-286.22" font-family="Times New Roman,serif" font-size="14.00">Samples weight: 0.04</text>
</g>
<!-- BB12&#45;&gt;BB13 -->
<g id="edge21" class="edge">
<title>BB12&#45;&gt;BB13</title>
<path fill="none" stroke="black" d="M750.19,-396.22C750.19,-387.95 750.19,-379.27 750.19,-370.77"/>
<polygon fill="black" stroke="black" points="753.69,-370.52 750.19,-360.52 746.69,-370.52 753.69,-370.52"/>
</g>
<!-- BB14 -->
<g id="node15" class="node">
<title>BB14</title>
<ellipse fill="none" stroke="black" cx="984.19" cy="-312.42" rx="108.38" ry="48.17"/>
<text text-anchor="middle" x="984.19" y="-331.22" font-family="Times New Roman,serif" font-size="14.00">[52..66)</text>
<text text-anchor="middle" x="984.19" y="-316.22" font-family="Times New Roman,serif" font-size="14.00">Count: 13</text>
<text text-anchor="middle" x="984.19" y="-301.22" font-family="Times New Roman,serif" font-size="14.00">Normalized count: 13.00</text>
<text text-anchor="middle" x="984.19" y="-286.22" font-family="Times New Roman,serif" font-size="14.00">Samples weight: 0.03</text>
</g>
<!-- BB12&#45;&gt;BB14 -->
<g id="edge20" class="edge">
<title>BB12&#45;&gt;BB14</title>
<path fill="none" stroke="black" d="M815.68,-407.15C844.6,-391.06 878.76,-372.06 908.74,-355.38"/>
<polygon fill="black" stroke="black" points="910.45,-358.44 917.49,-350.52 907.05,-352.32 910.45,-358.44"/>
</g>
<!-- BB13&#45;&gt;BB14 -->
<g id="edge22" class="edge">
<title>BB13&#45;&gt;BB14</title>
<path fill="none" stroke="black" d="M858.5,-312.42C860.83,-312.42 863.16,-312.42 865.48,-312.42"/>
<polygon fill="black" stroke="black" points="865.69,-315.92 875.69,-312.42 865.69,-308.92 865.69,-315.92"/>
</g>
<!-- BB14&#45;&gt;BB15 -->
<g id="edge23" class="edge">
<title>BB14&#45;&gt;BB15</title>
<path fill="none" stroke="black" d="M983.83,-360.66C983.28,-433.31 982.22,-572.24 981.62,-650.55"/>
<polygon fill="black" stroke="black" points="978.12,-650.7 981.55,-660.72 985.12,-650.75 978.12,-650.7"/>
</g>
</g>
</svg>
