<?xml version="1.0" encoding="UTF-8" standalone="no"?>
<!DOCTYPE svg PUBLIC "-//W3C//DTD SVG 1.1//EN"
 "http://www.w3.org/Graphics/SVG/1.1/DTD/svg11.dtd">
<!-- Generated by graphviz version 2.47.0 (20210316.0004)
 -->
<!-- Title: G Pages: 1 -->
<svg width="771pt" height="1161pt"
 viewBox="0.00 0.00 770.72 1161.50" xmlns="http://www.w3.org/2000/svg" xmlns:xlink="http://www.w3.org/1999/xlink">
<g id="graph0" class="graph" transform="scale(1 1) rotate(0) translate(4 1157.5)">
<title>G</title>
<polygon fill="white" stroke="transparent" points="-4,4 -4,-1157.5 766.72,-1157.5 766.72,4 -4,4"/>
<!-- BB0 -->
<g id="node1" class="node">
<title>BB0</title>
<ellipse fill="none" stroke="black" cx="529.48" cy="-1105.42" rx="103.48" ry="48.17"/>
<text text-anchor="middle" x="529.48" y="-1124.22" font-family="Times New Roman,serif" font-size="14.00">[0..7)</text>
<text text-anchor="middle" x="529.48" y="-1109.22" font-family="Times New Roman,serif" font-size="14.00">Count: 2811</text>
<text text-anchor="middle" x="529.48" y="-1094.22" font-family="Times New Roman,serif" font-size="14.00">Normalized count: 1.00</text>
<text text-anchor="middle" x="529.48" y="-1079.22" font-family="Times New Roman,serif" font-size="14.00">Samples weight: 0.02</text>
</g>
<!-- BB8 -->
<g id="node9" class="node">
<title>BB8</title>
<ellipse fill="none" stroke="black" cx="529.48" cy="-973.25" rx="108.38" ry="48.17"/>
<text text-anchor="middle" x="529.48" y="-992.05" font-family="Times New Roman,serif" font-size="14.00">[76..7a)</text>
<text text-anchor="middle" x="529.48" y="-977.05" font-family="Times New Roman,serif" font-size="14.00">Count: 30494</text>
<text text-anchor="middle" x="529.48" y="-962.05" font-family="Times New Roman,serif" font-size="14.00">Normalized count: 10.85</text>
<text text-anchor="middle" x="529.48" y="-947.05" font-family="Times New Roman,serif" font-size="14.00">Samples weight: 0.25</text>
</g>
<!-- BB0&#45;&gt;BB8 -->
<g id="edge1" class="edge">
<title>BB0&#45;&gt;BB8</title>
<path fill="none" stroke="black" d="M529.48,-1057.05C529.48,-1048.79 529.48,-1040.1 529.48,-1031.6"/>
<polygon fill="black" stroke="black" points="532.98,-1031.36 529.48,-1021.36 525.98,-1031.36 532.98,-1031.36"/>
</g>
<!-- BB1 -->
<g id="node2" class="node">
<title>BB1</title>
<ellipse fill="none" stroke="black" cx="501.48" cy="-708.92" rx="103.48" ry="48.17"/>
<text text-anchor="middle" x="501.48" y="-727.72" font-family="Times New Roman,serif" font-size="14.00">[7..14)</text>
<text text-anchor="middle" x="501.48" y="-712.72" font-family="Times New Roman,serif" font-size="14.00">Count: 24460</text>
<text text-anchor="middle" x="501.48" y="-697.72" font-family="Times New Roman,serif" font-size="14.00">Normalized count: 8.70</text>
<text text-anchor="middle" x="501.48" y="-682.72" font-family="Times New Roman,serif" font-size="14.00">Samples weight: 0.20</text>
</g>
<!-- BB2 -->
<g id="node3" class="node">
<title>BB2</title>
<ellipse fill="none" stroke="black" cx="501.48" cy="-576.75" rx="103.48" ry="48.17"/>
<text text-anchor="middle" x="501.48" y="-595.55" font-family="Times New Roman,serif" font-size="14.00">[14..1c)</text>
<text text-anchor="middle" x="501.48" y="-580.55" font-family="Times New Roman,serif" font-size="14.00">Count: 9516</text>
<text text-anchor="middle" x="501.48" y="-565.55" font-family="Times New Roman,serif" font-size="14.00">Normalized count: 3.39</text>
<text text-anchor="middle" x="501.48" y="-550.55" font-family="Times New Roman,serif" font-size="14.00">Samples weight: 0.08</text>
</g>
<!-- BB1&#45;&gt;BB2 -->
<g id="edge3" class="edge">
<title>BB1&#45;&gt;BB2</title>
<path fill="none" stroke="black" d="M501.48,-660.55C501.48,-652.29 501.48,-643.6 501.48,-635.1"/>
<polygon fill="black" stroke="black" points="504.98,-634.86 501.48,-624.86 497.98,-634.86 504.98,-634.86"/>
</g>
<!-- BB1&#45;&gt;BB8 -->
<g id="edge2" class="edge">
<title>BB1&#45;&gt;BB8</title>
<path fill="none" stroke="black" d="M516.51,-756.5C519.72,-768.29 522.68,-781.01 524.48,-793 530.54,-833.35 531.7,-879.37 531.4,-914.67"/>
<polygon fill="black" stroke="black" points="527.9,-914.75 531.27,-924.8 534.9,-914.84 527.9,-914.75"/>
</g>
<!-- BB3 -->
<g id="node4" class="node">
<title>BB3</title>
<ellipse fill="none" stroke="black" cx="501.48" cy="-444.58" rx="103.48" ry="48.17"/>
<text text-anchor="middle" x="501.48" y="-463.38" font-family="Times New Roman,serif" font-size="14.00">[1c..2a)</text>
<text text-anchor="middle" x="501.48" y="-448.38" font-family="Times New Roman,serif" font-size="14.00">Count: 6763</text>
<text text-anchor="middle" x="501.48" y="-433.38" font-family="Times New Roman,serif" font-size="14.00">Normalized count: 2.41</text>
<text text-anchor="middle" x="501.48" y="-418.38" font-family="Times New Roman,serif" font-size="14.00">Samples weight: 0.06</text>
</g>
<!-- BB2&#45;&gt;BB3 -->
<g id="edge5" class="edge">
<title>BB2&#45;&gt;BB3</title>
<path fill="none" stroke="black" d="M501.48,-528.39C501.48,-520.12 501.48,-511.44 501.48,-502.93"/>
<polygon fill="black" stroke="black" points="504.98,-502.69 501.48,-492.69 497.98,-502.69 504.98,-502.69"/>
</g>
<!-- BB2&#45;&gt;BB8 -->
<g id="edge4" class="edge">
<title>BB2&#45;&gt;BB8</title>
<path fill="none" stroke="black" d="M569.62,-612.91C587.12,-625.5 603.74,-641.48 613.48,-660.83 656.1,-745.51 605.62,-854.38 566.53,-918.41"/>
<polygon fill="black" stroke="black" points="563.41,-916.8 561.1,-927.14 569.36,-920.5 563.41,-916.8"/>
</g>
<!-- BB4 -->
<g id="node5" class="node">
<title>BB4</title>
<ellipse fill="none" stroke="black" cx="501.48" cy="-312.42" rx="103.48" ry="48.17"/>
<text text-anchor="middle" x="501.48" y="-331.22" font-family="Times New Roman,serif" font-size="14.00">[2a..4c)</text>
<text text-anchor="middle" x="501.48" y="-316.22" font-family="Times New Roman,serif" font-size="14.00">Count: 2652</text>
<text text-anchor="middle" x="501.48" y="-301.22" font-family="Times New Roman,serif" font-size="14.00">Normalized count: 0.94</text>
<text text-anchor="middle" x="501.48" y="-286.22" font-family="Times New Roman,serif" font-size="14.00">Samples weight: 0.02</text>
</g>
<!-- BB3&#45;&gt;BB4 -->
<g id="edge7" class="edge">
<title>BB3&#45;&gt;BB4</title>
<path fill="none" stroke="black" d="M501.48,-396.22C501.48,-387.95 501.48,-379.27 501.48,-370.77"/>
<polygon fill="black" stroke="black" points="504.98,-370.52 501.48,-360.52 497.98,-370.52 504.98,-370.52"/>
</g>
<!-- BB3&#45;&gt;BB8 -->
<g id="edge6" class="edge">
<title>BB3&#45;&gt;BB8</title>
<path fill="none" stroke="black" d="M422.7,-475.7C254.92,-544.09 -110.99,-718.48 33.48,-889.17 80.93,-945.23 280.24,-963.49 411.31,-969.42"/>
<polygon fill="black" stroke="black" points="411.27,-972.92 421.41,-969.86 411.57,-965.92 411.27,-972.92"/>
</g>
<!-- BB5 -->
<g id="node6" class="node">
<title>BB5</title>
<ellipse fill="none" stroke="black" cx="594.48" cy="-180.25" rx="103.48" ry="48.17"/>
<text text-anchor="middle" x="594.48" y="-199.05" font-family="Times New Roman,serif" font-size="14.00">[4c..5b)</text>
<text text-anchor="middle" x="594.48" y="-184.05" font-family="Times New Roman,serif" font-size="14.00">Count: 6103</text>
<text text-anchor="middle" x="594.48" y="-169.05" font-family="Times New Roman,serif" font-size="14.00">Normalized count: 2.17</text>
<text text-anchor="middle" x="594.48" y="-154.05" font-family="Times New Roman,serif" font-size="14.00">Samples weight: 0.05</text>
</g>
<!-- BB4&#45;&gt;BB5 -->
<g id="edge9" class="edge">
<title>BB4&#45;&gt;BB5</title>
<path fill="none" stroke="black" d="M533.49,-266.62C540.87,-256.29 548.79,-245.21 556.4,-234.55"/>
<polygon fill="black" stroke="black" points="559.45,-236.3 562.42,-226.13 553.76,-232.23 559.45,-236.3"/>
</g>
<!-- BB7 -->
<g id="node8" class="node">
<title>BB7</title>
<ellipse fill="none" stroke="black" cx="370.48" cy="-180.25" rx="103.48" ry="48.17"/>
<text text-anchor="middle" x="370.48" y="-199.05" font-family="Times New Roman,serif" font-size="14.00">[73..76)</text>
<text text-anchor="middle" x="370.48" y="-184.05" font-family="Times New Roman,serif" font-size="14.00">Count: 17</text>
<text text-anchor="middle" x="370.48" y="-169.05" font-family="Times New Roman,serif" font-size="14.00">Normalized count: 0.01</text>
<text text-anchor="middle" x="370.48" y="-154.05" font-family="Times New Roman,serif" font-size="14.00">Samples weight: 0.00</text>
</g>
<!-- BB4&#45;&gt;BB7 -->
<g id="edge8" class="edge">
<title>BB4&#45;&gt;BB7</title>
<path fill="none" stroke="black" d="M458.22,-268.43C446.26,-256.55 433.18,-243.55 420.85,-231.3"/>
<polygon fill="black" stroke="black" points="423.25,-228.75 413.69,-224.19 418.32,-233.72 423.25,-228.75"/>
</g>
<!-- BB6 -->
<g id="node7" class="node">
<title>BB6</title>
<ellipse fill="none" stroke="black" cx="659.48" cy="-48.08" rx="103.48" ry="48.17"/>
<text text-anchor="middle" x="659.48" y="-66.88" font-family="Times New Roman,serif" font-size="14.00">[5b..73)</text>
<text text-anchor="middle" x="659.48" y="-51.88" font-family="Times New Roman,serif" font-size="14.00">Count: 3380</text>
<text text-anchor="middle" x="659.48" y="-36.88" font-family="Times New Roman,serif" font-size="14.00">Normalized count: 1.20</text>
<text text-anchor="middle" x="659.48" y="-21.88" font-family="Times New Roman,serif" font-size="14.00">Samples weight: 0.03</text>
</g>
<!-- BB5&#45;&gt;BB6 -->
<g id="edge11" class="edge">
<title>BB5&#45;&gt;BB6</title>
<path fill="none" stroke="black" d="M617.4,-133.36C622.11,-123.93 627.11,-113.91 631.96,-104.19"/>
<polygon fill="black" stroke="black" points="635.22,-105.51 636.55,-95 628.95,-102.38 635.22,-105.51"/>
</g>
<!-- BB5&#45;&gt;BB8 -->
<g id="edge10" class="edge">
<title>BB5&#45;&gt;BB8</title>
<path fill="none" stroke="black" d="M616.46,-227.47C638.91,-278.98 670.48,-365.35 670.48,-443.58 670.48,-709.92 670.48,-709.92 670.48,-709.92 670.48,-793.12 660.01,-818.26 616.48,-889.17 608.94,-901.46 599.13,-913.17 588.83,-923.71"/>
<polygon fill="black" stroke="black" points="586.3,-921.29 581.65,-930.81 591.22,-926.27 586.3,-921.29"/>
</g>
<!-- BB6&#45;&gt;BB8 -->
<g id="edge12" class="edge">
<title>BB6&#45;&gt;BB8</title>
<path fill="none" stroke="black" d="M689.35,-94.12C696.02,-106.05 702.33,-119.23 706.48,-132.17 730.94,-208.46 725.48,-231.3 725.48,-311.42 725.48,-709.92 725.48,-709.92 725.48,-709.92 725.48,-795.94 706.69,-822.37 652.48,-889.17 639.83,-904.76 623.48,-918.55 606.87,-930.2"/>
<polygon fill="black" stroke="black" points="604.48,-927.59 598.17,-936.1 608.41,-933.39 604.48,-927.59"/>
</g>
<!-- BB7&#45;&gt;BB8 -->
<g id="edge13" class="edge">
<title>BB7&#45;&gt;BB8</title>
<path fill="none" stroke="black" d="M370.48,-228.64C370.48,-281.18 370.48,-368.44 370.48,-443.58 370.48,-577.75 370.48,-577.75 370.48,-577.75 370.48,-657.86 339.82,-694.13 389.48,-757 419.28,-794.72 459.77,-756.86 491.48,-793 507.23,-810.95 517.58,-869.5 523.44,-914.86"/>
<polygon fill="black" stroke="black" points="519.98,-915.41 524.7,-924.9 526.93,-914.54 519.98,-915.41"/>
</g>
<!-- BB9 -->
<g id="node10" class="node">
<title>BB9</title>
<ellipse fill="none" stroke="black" cx="150.48" cy="-841.08" rx="108.38" ry="48.17"/>
<text text-anchor="middle" x="150.48" y="-859.88" font-family="Times New Roman,serif" font-size="14.00">[7a..7e)</text>
<text text-anchor="middle" x="150.48" y="-844.88" font-family="Times New Roman,serif" font-size="14.00">Count: 30399</text>
<text text-anchor="middle" x="150.48" y="-829.88" font-family="Times New Roman,serif" font-size="14.00">Normalized count: 10.81</text>
<text text-anchor="middle" x="150.48" y="-814.88" font-family="Times New Roman,serif" font-size="14.00">Samples weight: 0.25</text>
</g>
<!-- BB8&#45;&gt;BB9 -->
<g id="edge15" class="edge">
<title>BB8&#45;&gt;BB9</title>
<path fill="none" stroke="black" d="M440.39,-945.83C389.44,-930.26 324.52,-909.65 267.48,-889.17 257.88,-885.72 247.89,-881.96 237.98,-878.13"/>
<polygon fill="black" stroke="black" points="239.11,-874.81 228.52,-874.44 236.57,-881.33 239.11,-874.81"/>
</g>
<!-- BB10 -->
<g id="node11" class="node">
<title>BB10</title>
<ellipse fill="none" stroke="black" cx="379.48" cy="-841.08" rx="103.48" ry="48.17"/>
<text text-anchor="middle" x="379.48" y="-859.88" font-family="Times New Roman,serif" font-size="14.00">[7e..7f)</text>
<text text-anchor="middle" x="379.48" y="-844.88" font-family="Times New Roman,serif" font-size="14.00">Count: 3678</text>
<text text-anchor="middle" x="379.48" y="-829.88" font-family="Times New Roman,serif" font-size="14.00">Normalized count: 1.31</text>
<text text-anchor="middle" x="379.48" y="-814.88" font-family="Times New Roman,serif" font-size="14.00">Samples weight: 0.03</text>
</g>
<!-- BB8&#45;&gt;BB10 -->
<g id="edge14" class="edge">
<title>BB8&#45;&gt;BB10</title>
<path fill="none" stroke="black" d="M480.78,-929.99C466.21,-917.34 450.13,-903.39 435.14,-890.39"/>
<polygon fill="black" stroke="black" points="437.27,-887.6 427.43,-883.69 432.68,-892.88 437.27,-887.6"/>
</g>
<!-- BB9&#45;&gt;BB1 -->
<g id="edge16" class="edge">
<title>BB9&#45;&gt;BB1</title>
<path fill="none" stroke="black" d="M228.98,-807.98C241.81,-802.88 254.99,-797.73 267.48,-793 314.15,-775.33 366.45,-756.66 409.75,-741.5"/>
<polygon fill="black" stroke="black" points="411.13,-744.72 419.42,-738.12 408.82,-738.11 411.13,-744.72"/>
</g>
<!-- BB9&#45;&gt;BB10 -->
<g id="edge17" class="edge">
<title>BB9&#45;&gt;BB10</title>
<path fill="none" stroke="black" d="M258.72,-841.08C261.17,-841.08 263.63,-841.08 266.08,-841.08"/>
<polygon fill="black" stroke="black" points="266.17,-844.58 276.17,-841.08 266.17,-837.58 266.17,-844.58"/>
</g>
</g>
</svg>
