<?xml version="1.0" encoding="UTF-8" standalone="no"?>
<!DOCTYPE svg PUBLIC "-//W3C//DTD SVG 1.1//EN"
 "http://www.w3.org/Graphics/SVG/1.1/DTD/svg11.dtd">
<!-- Generated by graphviz version 2.47.0 (20210316.0004)
 -->
<!-- Title: G Pages: 1 -->
<svg width="1135pt" height="971pt"
 viewBox="0.00 0.00 1134.72 970.58" xmlns="http://www.w3.org/2000/svg" xmlns:xlink="http://www.w3.org/1999/xlink">
<g id="graph0" class="graph" transform="scale(1 1) rotate(0) translate(4 966.58)">
<title>G</title>
<polygon fill="white" stroke="transparent" points="-4,4 -4,-966.58 1130.72,-966.58 1130.72,4 -4,4"/>
<!-- BB0 -->
<g id="node1" class="node">
<title>BB0</title>
<ellipse fill="none" stroke="black" cx="105.36" cy="-925.1" rx="105.22" ry="37.45"/>
<text text-anchor="middle" x="105.36" y="-936.4" font-family="Times New Roman,serif" font-size="14.00">[0..17)</text>
<text text-anchor="middle" x="105.36" y="-921.4" font-family="Times New Roman,serif" font-size="14.00">Normalized Count: 1.00</text>
<text text-anchor="middle" x="105.36" y="-906.4" font-family="Times New Roman,serif" font-size="14.00">Samples weight: 0.05</text>
</g>
<!-- BB2 -->
<g id="node3" class="node">
<title>BB2</title>
<ellipse fill="none" stroke="black" cx="105.36" cy="-814.15" rx="105.22" ry="37.45"/>
<text text-anchor="middle" x="105.36" y="-825.45" font-family="Times New Roman,serif" font-size="14.00">[24..2d)</text>
<text text-anchor="middle" x="105.36" y="-810.45" font-family="Times New Roman,serif" font-size="14.00">Normalized Count: 1.00</text>
<text text-anchor="middle" x="105.36" y="-795.45" font-family="Times New Roman,serif" font-size="14.00">Samples weight: 0.05</text>
</g>
<!-- BB0&#45;&gt;BB2 -->
<g id="edge1" class="edge">
<title>BB0&#45;&gt;BB2</title>
<path fill="none" stroke="black" d="M105.36,-887.52C105.36,-879.35 105.36,-870.57 105.36,-862.04"/>
<polygon fill="black" stroke="black" points="108.86,-861.82 105.36,-851.82 101.86,-861.82 108.86,-861.82"/>
</g>
<!-- BB1 -->
<g id="node2" class="node">
<title>BB1</title>
<ellipse fill="none" stroke="black" cx="105.36" cy="-703.2" rx="105.22" ry="37.45"/>
<text text-anchor="middle" x="105.36" y="-714.5" font-family="Times New Roman,serif" font-size="14.00">[17..24)</text>
<text text-anchor="middle" x="105.36" y="-699.5" font-family="Times New Roman,serif" font-size="14.00">Normalized Count: 0.00</text>
<text text-anchor="middle" x="105.36" y="-684.5" font-family="Times New Roman,serif" font-size="14.00">Samples weight: 0.00</text>
</g>
<!-- BB1&#45;&gt;BB2 -->
<g id="edge2" class="edge">
<title>BB1&#45;&gt;BB2</title>
<path fill="none" stroke="black" d="M111.78,-740.87C112.09,-749.05 112.18,-757.83 112.05,-766.35"/>
<polygon fill="black" stroke="black" points="108.54,-766.48 111.77,-776.57 115.54,-766.66 108.54,-766.48"/>
</g>
<!-- BB2&#45;&gt;BB1 -->
<g id="edge3" class="edge">
<title>BB2&#45;&gt;BB1</title>
<path fill="none" stroke="black" d="M98.94,-776.57C98.63,-768.39 98.54,-759.61 98.67,-751.09"/>
<polygon fill="black" stroke="black" points="102.17,-750.96 98.94,-740.87 95.17,-750.77 102.17,-750.96"/>
</g>
<!-- BB3 -->
<g id="node4" class="node">
<title>BB3</title>
<ellipse fill="none" stroke="black" cx="334.36" cy="-703.2" rx="105.22" ry="37.45"/>
<text text-anchor="middle" x="334.36" y="-714.5" font-family="Times New Roman,serif" font-size="14.00">[2d..38)</text>
<text text-anchor="middle" x="334.36" y="-699.5" font-family="Times New Roman,serif" font-size="14.00">Normalized Count: 1.00</text>
<text text-anchor="middle" x="334.36" y="-684.5" font-family="Times New Roman,serif" font-size="14.00">Samples weight: 0.05</text>
</g>
<!-- BB2&#45;&gt;BB3 -->
<g id="edge4" class="edge">
<title>BB2&#45;&gt;BB3</title>
<path fill="none" stroke="black" d="M167.33,-783.67C196.86,-769.62 232.34,-752.73 262.99,-738.15"/>
<polygon fill="black" stroke="black" points="264.81,-741.16 272.34,-733.7 261.8,-734.84 264.81,-741.16"/>
</g>
<!-- BB5 -->
<g id="node6" class="node">
<title>BB5</title>
<ellipse fill="none" stroke="black" cx="334.36" cy="-592.24" rx="105.22" ry="37.45"/>
<text text-anchor="middle" x="334.36" y="-603.54" font-family="Times New Roman,serif" font-size="14.00">[4c..53)</text>
<text text-anchor="middle" x="334.36" y="-588.54" font-family="Times New Roman,serif" font-size="14.00">Normalized Count: 5.68</text>
<text text-anchor="middle" x="334.36" y="-573.54" font-family="Times New Roman,serif" font-size="14.00">Samples weight: 0.31</text>
</g>
<!-- BB3&#45;&gt;BB5 -->
<g id="edge5" class="edge">
<title>BB3&#45;&gt;BB5</title>
<path fill="none" stroke="black" d="M334.36,-665.61C334.36,-657.44 334.36,-648.66 334.36,-640.13"/>
<polygon fill="black" stroke="black" points="337.86,-639.92 334.36,-629.92 330.86,-639.92 337.86,-639.92"/>
</g>
<!-- BB4 -->
<g id="node5" class="node">
<title>BB4</title>
<ellipse fill="none" stroke="black" cx="334.36" cy="-481.29" rx="105.22" ry="37.45"/>
<text text-anchor="middle" x="334.36" y="-492.59" font-family="Times New Roman,serif" font-size="14.00">[38..4c)</text>
<text text-anchor="middle" x="334.36" y="-477.59" font-family="Times New Roman,serif" font-size="14.00">Normalized Count: 4.68</text>
<text text-anchor="middle" x="334.36" y="-462.59" font-family="Times New Roman,serif" font-size="14.00">Samples weight: 0.25</text>
</g>
<!-- BB4&#45;&gt;BB5 -->
<g id="edge6" class="edge">
<title>BB4&#45;&gt;BB5</title>
<path fill="none" stroke="black" d="M340.78,-518.96C341.09,-527.14 341.18,-535.92 341.05,-544.45"/>
<polygon fill="black" stroke="black" points="337.54,-544.57 340.77,-554.66 344.54,-544.76 337.54,-544.57"/>
</g>
<!-- BB5&#45;&gt;BB4 -->
<g id="edge7" class="edge">
<title>BB5&#45;&gt;BB4</title>
<path fill="none" stroke="black" d="M327.94,-554.66C327.63,-546.49 327.54,-537.71 327.67,-529.18"/>
<polygon fill="black" stroke="black" points="331.17,-529.05 327.94,-518.96 324.17,-528.86 331.17,-529.05"/>
</g>
<!-- BB6 -->
<g id="node7" class="node">
<title>BB6</title>
<ellipse fill="none" stroke="black" cx="563.36" cy="-481.29" rx="105.22" ry="37.45"/>
<text text-anchor="middle" x="563.36" y="-492.59" font-family="Times New Roman,serif" font-size="14.00">[53..66)</text>
<text text-anchor="middle" x="563.36" y="-477.59" font-family="Times New Roman,serif" font-size="14.00">Normalized Count: 1.00</text>
<text text-anchor="middle" x="563.36" y="-462.59" font-family="Times New Roman,serif" font-size="14.00">Samples weight: 0.05</text>
</g>
<!-- BB5&#45;&gt;BB6 -->
<g id="edge8" class="edge">
<title>BB5&#45;&gt;BB6</title>
<path fill="none" stroke="black" d="M396.33,-561.76C425.86,-547.71 461.34,-530.83 491.99,-516.24"/>
<polygon fill="black" stroke="black" points="493.81,-519.25 501.34,-511.8 490.8,-512.93 493.81,-519.25"/>
</g>
<!-- BB11 -->
<g id="node12" class="node">
<title>BB11</title>
<ellipse fill="none" stroke="black" cx="563.36" cy="-370.34" rx="105.22" ry="37.45"/>
<text text-anchor="middle" x="563.36" y="-381.64" font-family="Times New Roman,serif" font-size="14.00">[9c..a2)</text>
<text text-anchor="middle" x="563.36" y="-366.64" font-family="Times New Roman,serif" font-size="14.00">Normalized Count: 1.00</text>
<text text-anchor="middle" x="563.36" y="-351.64" font-family="Times New Roman,serif" font-size="14.00">Samples weight: 0.05</text>
</g>
<!-- BB6&#45;&gt;BB11 -->
<g id="edge9" class="edge">
<title>BB6&#45;&gt;BB11</title>
<path fill="none" stroke="black" d="M563.36,-443.71C563.36,-435.53 563.36,-426.75 563.36,-418.23"/>
<polygon fill="black" stroke="black" points="566.86,-418.01 563.36,-408.01 559.86,-418.01 566.86,-418.01"/>
</g>
<!-- BB7 -->
<g id="node8" class="node">
<title>BB7</title>
<ellipse fill="none" stroke="black" cx="563.36" cy="-259.38" rx="105.22" ry="37.45"/>
<text text-anchor="middle" x="563.36" y="-270.68" font-family="Times New Roman,serif" font-size="14.00">[66..79)</text>
<text text-anchor="middle" x="563.36" y="-255.68" font-family="Times New Roman,serif" font-size="14.00">Normalized Count: 0.00</text>
<text text-anchor="middle" x="563.36" y="-240.68" font-family="Times New Roman,serif" font-size="14.00">Samples weight: 0.00</text>
</g>
<!-- BB9 -->
<g id="node10" class="node">
<title>BB9</title>
<ellipse fill="none" stroke="black" cx="563.36" cy="-148.43" rx="105.22" ry="37.45"/>
<text text-anchor="middle" x="563.36" y="-159.73" font-family="Times New Roman,serif" font-size="14.00">[8e..96)</text>
<text text-anchor="middle" x="563.36" y="-144.73" font-family="Times New Roman,serif" font-size="14.00">Normalized Count: 0.00</text>
<text text-anchor="middle" x="563.36" y="-129.73" font-family="Times New Roman,serif" font-size="14.00">Samples weight: 0.00</text>
</g>
<!-- BB7&#45;&gt;BB9 -->
<g id="edge10" class="edge">
<title>BB7&#45;&gt;BB9</title>
<path fill="none" stroke="black" d="M563.36,-221.8C563.36,-213.63 563.36,-204.85 563.36,-196.32"/>
<polygon fill="black" stroke="black" points="566.86,-196.1 563.36,-186.1 559.86,-196.1 566.86,-196.1"/>
</g>
<!-- BB8 -->
<g id="node9" class="node">
<title>BB8</title>
<ellipse fill="none" stroke="black" cx="563.36" cy="-37.48" rx="105.22" ry="37.45"/>
<text text-anchor="middle" x="563.36" y="-48.78" font-family="Times New Roman,serif" font-size="14.00">[79..8e)</text>
<text text-anchor="middle" x="563.36" y="-33.78" font-family="Times New Roman,serif" font-size="14.00">Normalized Count: 0.00</text>
<text text-anchor="middle" x="563.36" y="-18.78" font-family="Times New Roman,serif" font-size="14.00">Samples weight: 0.00</text>
</g>
<!-- BB8&#45;&gt;BB9 -->
<g id="edge11" class="edge">
<title>BB8&#45;&gt;BB9</title>
<path fill="none" stroke="black" d="M569.78,-75.15C570.09,-83.33 570.18,-92.11 570.05,-100.63"/>
<polygon fill="black" stroke="black" points="566.54,-100.76 569.77,-110.85 573.54,-100.94 566.54,-100.76"/>
</g>
<!-- BB9&#45;&gt;BB8 -->
<g id="edge12" class="edge">
<title>BB9&#45;&gt;BB8</title>
<path fill="none" stroke="black" d="M556.94,-110.85C556.63,-102.67 556.54,-93.89 556.67,-85.37"/>
<polygon fill="black" stroke="black" points="560.17,-85.24 556.94,-75.15 553.17,-85.05 560.17,-85.24"/>
</g>
<!-- BB10 -->
<g id="node11" class="node">
<title>BB10</title>
<ellipse fill="none" stroke="black" cx="334.36" cy="-37.48" rx="105.22" ry="37.45"/>
<text text-anchor="middle" x="334.36" y="-48.78" font-family="Times New Roman,serif" font-size="14.00">[96..9c)</text>
<text text-anchor="middle" x="334.36" y="-33.78" font-family="Times New Roman,serif" font-size="14.00">Normalized Count: 0.00</text>
<text text-anchor="middle" x="334.36" y="-18.78" font-family="Times New Roman,serif" font-size="14.00">Samples weight: 0.00</text>
</g>
<!-- BB9&#45;&gt;BB10 -->
<g id="edge13" class="edge">
<title>BB9&#45;&gt;BB10</title>
<path fill="none" stroke="black" d="M501.39,-117.95C471.86,-103.9 436.38,-87.01 405.72,-72.43"/>
<polygon fill="black" stroke="black" points="406.91,-69.12 396.38,-67.98 403.91,-75.44 406.91,-69.12"/>
</g>
<!-- BB10&#45;&gt;BB11 -->
<g id="edge14" class="edge">
<title>BB10&#45;&gt;BB11</title>
<path fill="none" stroke="black" d="M343.36,-75.13C358.05,-128.82 391.48,-229.74 449.36,-296.86 461.7,-311.17 477.57,-323.65 493.52,-334.04"/>
<polygon fill="black" stroke="black" points="492.03,-337.24 502.36,-339.59 495.76,-331.31 492.03,-337.24"/>
</g>
<!-- BB11&#45;&gt;BB7 -->
<g id="edge15" class="edge">
<title>BB11&#45;&gt;BB7</title>
<path fill="none" stroke="black" d="M563.36,-332.75C563.36,-324.58 563.36,-315.8 563.36,-307.27"/>
<polygon fill="black" stroke="black" points="566.86,-307.06 563.36,-297.06 559.86,-307.06 566.86,-307.06"/>
</g>
<!-- BB12 -->
<g id="node13" class="node">
<title>BB12</title>
<ellipse fill="none" stroke="black" cx="792.36" cy="-259.38" rx="105.22" ry="37.45"/>
<text text-anchor="middle" x="792.36" y="-270.68" font-family="Times New Roman,serif" font-size="14.00">[a2..b5)</text>
<text text-anchor="middle" x="792.36" y="-255.68" font-family="Times New Roman,serif" font-size="14.00">Normalized Count: 1.00</text>
<text text-anchor="middle" x="792.36" y="-240.68" font-family="Times New Roman,serif" font-size="14.00">Samples weight: 0.05</text>
</g>
<!-- BB11&#45;&gt;BB12 -->
<g id="edge16" class="edge">
<title>BB11&#45;&gt;BB12</title>
<path fill="none" stroke="black" d="M625.33,-339.85C654.86,-325.8 690.34,-308.92 720.99,-294.34"/>
<polygon fill="black" stroke="black" points="722.81,-297.35 730.34,-289.89 719.8,-291.03 722.81,-297.35"/>
</g>
<!-- BB14 -->
<g id="node15" class="node">
<title>BB14</title>
<ellipse fill="none" stroke="black" cx="792.36" cy="-148.43" rx="105.22" ry="37.45"/>
<text text-anchor="middle" x="792.36" y="-159.73" font-family="Times New Roman,serif" font-size="14.00">[ca..d3)</text>
<text text-anchor="middle" x="792.36" y="-144.73" font-family="Times New Roman,serif" font-size="14.00">Normalized Count: 1.00</text>
<text text-anchor="middle" x="792.36" y="-129.73" font-family="Times New Roman,serif" font-size="14.00">Samples weight: 0.05</text>
</g>
<!-- BB12&#45;&gt;BB14 -->
<g id="edge17" class="edge">
<title>BB12&#45;&gt;BB14</title>
<path fill="none" stroke="black" d="M792.36,-221.8C792.36,-213.63 792.36,-204.85 792.36,-196.32"/>
<polygon fill="black" stroke="black" points="795.86,-196.1 792.36,-186.1 788.86,-196.1 795.86,-196.1"/>
</g>
<!-- BB13 -->
<g id="node14" class="node">
<title>BB13</title>
<ellipse fill="none" stroke="black" cx="792.36" cy="-37.48" rx="105.22" ry="37.45"/>
<text text-anchor="middle" x="792.36" y="-48.78" font-family="Times New Roman,serif" font-size="14.00">[b5..ca)</text>
<text text-anchor="middle" x="792.36" y="-33.78" font-family="Times New Roman,serif" font-size="14.00">Normalized Count: 0.00</text>
<text text-anchor="middle" x="792.36" y="-18.78" font-family="Times New Roman,serif" font-size="14.00">Samples weight: 0.00</text>
</g>
<!-- BB13&#45;&gt;BB14 -->
<g id="edge18" class="edge">
<title>BB13&#45;&gt;BB14</title>
<path fill="none" stroke="black" d="M798.78,-75.15C799.09,-83.33 799.18,-92.11 799.05,-100.63"/>
<polygon fill="black" stroke="black" points="795.54,-100.76 798.77,-110.85 802.54,-100.94 795.54,-100.76"/>
</g>
<!-- BB14&#45;&gt;BB13 -->
<g id="edge19" class="edge">
<title>BB14&#45;&gt;BB13</title>
<path fill="none" stroke="black" d="M785.94,-110.85C785.63,-102.67 785.54,-93.89 785.67,-85.37"/>
<polygon fill="black" stroke="black" points="789.17,-85.24 785.94,-75.15 782.17,-85.05 789.17,-85.24"/>
</g>
<!-- BB15 -->
<g id="node16" class="node">
<title>BB15</title>
<ellipse fill="none" stroke="black" cx="1021.36" cy="-37.48" rx="105.22" ry="37.45"/>
<text text-anchor="middle" x="1021.36" y="-48.78" font-family="Times New Roman,serif" font-size="14.00">[d3..d5)</text>
<text text-anchor="middle" x="1021.36" y="-33.78" font-family="Times New Roman,serif" font-size="14.00">Normalized Count: 1.00</text>
<text text-anchor="middle" x="1021.36" y="-18.78" font-family="Times New Roman,serif" font-size="14.00">Samples weight: 0.05</text>
</g>
<!-- BB14&#45;&gt;BB15 -->
<g id="edge20" class="edge">
<title>BB14&#45;&gt;BB15</title>
<path fill="none" stroke="black" d="M854.33,-117.95C883.86,-103.9 919.34,-87.01 949.99,-72.43"/>
<polygon fill="black" stroke="black" points="951.81,-75.44 959.34,-67.98 948.8,-69.12 951.81,-75.44"/>
</g>
</g>
</svg>
