<?xml version="1.0" encoding="UTF-8" standalone="no"?>
<!DOCTYPE svg PUBLIC "-//W3C//DTD SVG 1.1//EN"
 "http://www.w3.org/Graphics/SVG/1.1/DTD/svg11.dtd">
<!-- Generated by graphviz version 2.47.0 (20210316.0004)
 -->
<!-- Title: G Pages: 1 -->
<svg width="793pt" height="1558pt"
 viewBox="0.00 0.00 793.48 1558.00" xmlns="http://www.w3.org/2000/svg" xmlns:xlink="http://www.w3.org/1999/xlink">
<g id="graph0" class="graph" transform="scale(1 1) rotate(0) translate(4 1554)">
<title>G</title>
<polygon fill="white" stroke="transparent" points="-4,4 -4,-1554 789.48,-1554 789.48,4 -4,4"/>
<!-- BB0 -->
<g id="node1" class="node">
<title>BB0</title>
<ellipse fill="none" stroke="black" cx="369.24" cy="-1501.92" rx="103.48" ry="48.17"/>
<text text-anchor="middle" x="369.24" y="-1520.72" font-family="Times New Roman,serif" font-size="14.00">[0..a)</text>
<text text-anchor="middle" x="369.24" y="-1505.72" font-family="Times New Roman,serif" font-size="14.00">Count: 277</text>
<text text-anchor="middle" x="369.24" y="-1490.72" font-family="Times New Roman,serif" font-size="14.00">Normalized count: 1.00</text>
<text text-anchor="middle" x="369.24" y="-1475.72" font-family="Times New Roman,serif" font-size="14.00">Samples weight: 0.01</text>
</g>
<!-- BB1 -->
<g id="node2" class="node">
<title>BB1</title>
<ellipse fill="none" stroke="black" cx="369.24" cy="-1369.75" rx="103.48" ry="48.17"/>
<text text-anchor="middle" x="369.24" y="-1388.55" font-family="Times New Roman,serif" font-size="14.00">[a..12)</text>
<text text-anchor="middle" x="369.24" y="-1373.55" font-family="Times New Roman,serif" font-size="14.00">Count: 2063</text>
<text text-anchor="middle" x="369.24" y="-1358.55" font-family="Times New Roman,serif" font-size="14.00">Normalized count: 7.45</text>
<text text-anchor="middle" x="369.24" y="-1343.55" font-family="Times New Roman,serif" font-size="14.00">Samples weight: 0.09</text>
</g>
<!-- BB0&#45;&gt;BB1 -->
<g id="edge1" class="edge">
<title>BB0&#45;&gt;BB1</title>
<path fill="none" stroke="black" d="M369.24,-1453.55C369.24,-1445.29 369.24,-1436.6 369.24,-1428.1"/>
<polygon fill="black" stroke="black" points="372.74,-1427.86 369.24,-1417.86 365.74,-1427.86 372.74,-1427.86"/>
</g>
<!-- BB3 -->
<g id="node4" class="node">
<title>BB3</title>
<ellipse fill="none" stroke="black" cx="192.24" cy="-1237.58" rx="108.38" ry="48.17"/>
<text text-anchor="middle" x="192.24" y="-1256.38" font-family="Times New Roman,serif" font-size="14.00">[16..1e)</text>
<text text-anchor="middle" x="192.24" y="-1241.38" font-family="Times New Roman,serif" font-size="14.00">Count: 3111</text>
<text text-anchor="middle" x="192.24" y="-1226.38" font-family="Times New Roman,serif" font-size="14.00">Normalized count: 11.23</text>
<text text-anchor="middle" x="192.24" y="-1211.38" font-family="Times New Roman,serif" font-size="14.00">Samples weight: 0.13</text>
</g>
<!-- BB1&#45;&gt;BB3 -->
<g id="edge2" class="edge">
<title>BB1&#45;&gt;BB3</title>
<path fill="none" stroke="black" d="M314.69,-1328.63C295.93,-1314.84 274.78,-1299.29 255.4,-1285.03"/>
<polygon fill="black" stroke="black" points="257.35,-1282.12 247.22,-1279.01 253.2,-1287.76 257.35,-1282.12"/>
</g>
<!-- BB2 -->
<g id="node3" class="node">
<title>BB2</title>
<ellipse fill="none" stroke="black" cx="103.24" cy="-1105.42" rx="103.48" ry="48.17"/>
<text text-anchor="middle" x="103.24" y="-1124.22" font-family="Times New Roman,serif" font-size="14.00">[12..16)</text>
<text text-anchor="middle" x="103.24" y="-1109.22" font-family="Times New Roman,serif" font-size="14.00">Count: 1293</text>
<text text-anchor="middle" x="103.24" y="-1094.22" font-family="Times New Roman,serif" font-size="14.00">Normalized count: 4.67</text>
<text text-anchor="middle" x="103.24" y="-1079.22" font-family="Times New Roman,serif" font-size="14.00">Samples weight: 0.05</text>
</g>
<!-- BB2&#45;&gt;BB3 -->
<g id="edge3" class="edge">
<title>BB2&#45;&gt;BB3</title>
<path fill="none" stroke="black" d="M139.87,-1150.58C147.16,-1160.78 154.74,-1171.74 161.8,-1182.32"/>
<polygon fill="black" stroke="black" points="158.9,-1184.28 167.34,-1190.69 164.74,-1180.42 158.9,-1184.28"/>
</g>
<!-- BB3&#45;&gt;BB2 -->
<g id="edge4" class="edge">
<title>BB3&#45;&gt;BB2</title>
<path fill="none" stroke="black" d="M155.42,-1192.15C148.26,-1182.14 140.84,-1171.4 133.9,-1161.03"/>
<polygon fill="black" stroke="black" points="136.65,-1158.83 128.21,-1152.42 130.81,-1162.69 136.65,-1158.83"/>
</g>
<!-- BB4 -->
<g id="node5" class="node">
<title>BB4</title>
<ellipse fill="none" stroke="black" cx="327.24" cy="-1105.42" rx="103.48" ry="48.17"/>
<text text-anchor="middle" x="327.24" y="-1124.22" font-family="Times New Roman,serif" font-size="14.00">[1e..2b)</text>
<text text-anchor="middle" x="327.24" y="-1109.22" font-family="Times New Roman,serif" font-size="14.00">Count: 1805</text>
<text text-anchor="middle" x="327.24" y="-1094.22" font-family="Times New Roman,serif" font-size="14.00">Normalized count: 6.52</text>
<text text-anchor="middle" x="327.24" y="-1079.22" font-family="Times New Roman,serif" font-size="14.00">Samples weight: 0.08</text>
</g>
<!-- BB3&#45;&gt;BB4 -->
<g id="edge5" class="edge">
<title>BB3&#45;&gt;BB4</title>
<path fill="none" stroke="black" d="M236.82,-1193.6C249.27,-1181.59 262.91,-1168.44 275.73,-1156.08"/>
<polygon fill="black" stroke="black" points="278.4,-1158.37 283.17,-1148.91 273.54,-1153.33 278.4,-1158.37"/>
</g>
<!-- BB5 -->
<g id="node6" class="node">
<title>BB5</title>
<ellipse fill="none" stroke="black" cx="234.24" cy="-973.25" rx="103.48" ry="48.17"/>
<text text-anchor="middle" x="234.24" y="-992.05" font-family="Times New Roman,serif" font-size="14.00">[2b..5f)</text>
<text text-anchor="middle" x="234.24" y="-977.05" font-family="Times New Roman,serif" font-size="14.00">Count: 801</text>
<text text-anchor="middle" x="234.24" y="-962.05" font-family="Times New Roman,serif" font-size="14.00">Normalized count: 2.89</text>
<text text-anchor="middle" x="234.24" y="-947.05" font-family="Times New Roman,serif" font-size="14.00">Samples weight: 0.03</text>
</g>
<!-- BB4&#45;&gt;BB5 -->
<g id="edge7" class="edge">
<title>BB4&#45;&gt;BB5</title>
<path fill="none" stroke="black" d="M295.23,-1059.62C287.85,-1049.29 279.93,-1038.2 272.32,-1027.55"/>
<polygon fill="black" stroke="black" points="274.96,-1025.23 266.3,-1019.13 269.27,-1029.3 274.96,-1025.23"/>
</g>
<!-- BB6 -->
<g id="node7" class="node">
<title>BB6</title>
<ellipse fill="none" stroke="black" cx="458.24" cy="-973.25" rx="103.48" ry="48.17"/>
<text text-anchor="middle" x="458.24" y="-992.05" font-family="Times New Roman,serif" font-size="14.00">[5f..68)</text>
<text text-anchor="middle" x="458.24" y="-977.05" font-family="Times New Roman,serif" font-size="14.00">Count: 1812</text>
<text text-anchor="middle" x="458.24" y="-962.05" font-family="Times New Roman,serif" font-size="14.00">Normalized count: 6.54</text>
<text text-anchor="middle" x="458.24" y="-947.05" font-family="Times New Roman,serif" font-size="14.00">Samples weight: 0.08</text>
</g>
<!-- BB4&#45;&gt;BB6 -->
<g id="edge6" class="edge">
<title>BB4&#45;&gt;BB6</title>
<path fill="none" stroke="black" d="M370.49,-1061.43C382.46,-1049.55 395.54,-1036.55 407.87,-1024.3"/>
<polygon fill="black" stroke="black" points="410.4,-1026.72 415.03,-1017.19 405.47,-1021.75 410.4,-1026.72"/>
</g>
<!-- BB5&#45;&gt;BB6 -->
<g id="edge8" class="edge">
<title>BB5&#45;&gt;BB6</title>
<path fill="none" stroke="black" d="M337.49,-973.25C339.94,-973.25 342.4,-973.25 344.85,-973.25"/>
<polygon fill="black" stroke="black" points="344.94,-976.75 354.94,-973.25 344.94,-969.75 344.94,-976.75"/>
</g>
<!-- BB6&#45;&gt;BB1 -->
<g id="edge9" class="edge">
<title>BB6&#45;&gt;BB1</title>
<path fill="none" stroke="black" d="M455.93,-1021.47C453.5,-1057.86 448.66,-1109.27 439.24,-1153.5 427.47,-1208.7 406.87,-1269.72 391.06,-1312.65"/>
<polygon fill="black" stroke="black" points="387.76,-1311.48 387.55,-1322.07 394.32,-1313.92 387.76,-1311.48"/>
</g>
<!-- BB7 -->
<g id="node8" class="node">
<title>BB7</title>
<ellipse fill="none" stroke="black" cx="458.24" cy="-841.08" rx="103.48" ry="48.17"/>
<text text-anchor="middle" x="458.24" y="-859.88" font-family="Times New Roman,serif" font-size="14.00">[68..6f)</text>
<text text-anchor="middle" x="458.24" y="-844.88" font-family="Times New Roman,serif" font-size="14.00">Count: 206</text>
<text text-anchor="middle" x="458.24" y="-829.88" font-family="Times New Roman,serif" font-size="14.00">Normalized count: 0.74</text>
<text text-anchor="middle" x="458.24" y="-814.88" font-family="Times New Roman,serif" font-size="14.00">Samples weight: 0.01</text>
</g>
<!-- BB6&#45;&gt;BB7 -->
<g id="edge10" class="edge">
<title>BB6&#45;&gt;BB7</title>
<path fill="none" stroke="black" d="M458.24,-924.89C458.24,-916.62 458.24,-907.94 458.24,-899.43"/>
<polygon fill="black" stroke="black" points="461.74,-899.19 458.24,-889.19 454.74,-899.19 461.74,-899.19"/>
</g>
<!-- BB13 -->
<g id="node14" class="node">
<title>BB13</title>
<ellipse fill="none" stroke="black" cx="458.24" cy="-708.92" rx="103.48" ry="48.17"/>
<text text-anchor="middle" x="458.24" y="-727.72" font-family="Times New Roman,serif" font-size="14.00">[f6..fd)</text>
<text text-anchor="middle" x="458.24" y="-712.72" font-family="Times New Roman,serif" font-size="14.00">Count: 500</text>
<text text-anchor="middle" x="458.24" y="-697.72" font-family="Times New Roman,serif" font-size="14.00">Normalized count: 1.81</text>
<text text-anchor="middle" x="458.24" y="-682.72" font-family="Times New Roman,serif" font-size="14.00">Samples weight: 0.02</text>
</g>
<!-- BB7&#45;&gt;BB13 -->
<g id="edge11" class="edge">
<title>BB7&#45;&gt;BB13</title>
<path fill="none" stroke="black" d="M458.24,-792.72C458.24,-784.45 458.24,-775.77 458.24,-767.27"/>
<polygon fill="black" stroke="black" points="461.74,-767.02 458.24,-757.02 454.74,-767.02 461.74,-767.02"/>
</g>
<!-- BB8 -->
<g id="node9" class="node">
<title>BB8</title>
<ellipse fill="none" stroke="black" cx="458.24" cy="-576.75" rx="103.48" ry="48.17"/>
<text text-anchor="middle" x="458.24" y="-595.55" font-family="Times New Roman,serif" font-size="14.00">[6f..7a)</text>
<text text-anchor="middle" x="458.24" y="-580.55" font-family="Times New Roman,serif" font-size="14.00">Count: 520</text>
<text text-anchor="middle" x="458.24" y="-565.55" font-family="Times New Roman,serif" font-size="14.00">Normalized count: 1.88</text>
<text text-anchor="middle" x="458.24" y="-550.55" font-family="Times New Roman,serif" font-size="14.00">Samples weight: 0.02</text>
</g>
<!-- BB9 -->
<g id="node10" class="node">
<title>BB9</title>
<ellipse fill="none" stroke="black" cx="461.24" cy="-444.58" rx="108.38" ry="48.17"/>
<text text-anchor="middle" x="461.24" y="-463.38" font-family="Times New Roman,serif" font-size="14.00">[7a..9c)</text>
<text text-anchor="middle" x="461.24" y="-448.38" font-family="Times New Roman,serif" font-size="14.00">Count: 5585</text>
<text text-anchor="middle" x="461.24" y="-433.38" font-family="Times New Roman,serif" font-size="14.00">Normalized count: 20.16</text>
<text text-anchor="middle" x="461.24" y="-418.38" font-family="Times New Roman,serif" font-size="14.00">Samples weight: 0.23</text>
</g>
<!-- BB8&#45;&gt;BB9 -->
<g id="edge12" class="edge">
<title>BB8&#45;&gt;BB9</title>
<path fill="none" stroke="black" d="M459.33,-528.39C459.52,-520.12 459.72,-511.44 459.92,-502.93"/>
<polygon fill="black" stroke="black" points="463.42,-502.77 460.15,-492.69 456.42,-502.61 463.42,-502.77"/>
</g>
<!-- BB10 -->
<g id="node11" class="node">
<title>BB10</title>
<ellipse fill="none" stroke="black" cx="461.24" cy="-312.42" rx="108.38" ry="48.17"/>
<text text-anchor="middle" x="461.24" y="-331.22" font-family="Times New Roman,serif" font-size="14.00">[9c..eb)</text>
<text text-anchor="middle" x="461.24" y="-316.22" font-family="Times New Roman,serif" font-size="14.00">Count: 4286</text>
<text text-anchor="middle" x="461.24" y="-301.22" font-family="Times New Roman,serif" font-size="14.00">Normalized count: 15.47</text>
<text text-anchor="middle" x="461.24" y="-286.22" font-family="Times New Roman,serif" font-size="14.00">Samples weight: 0.18</text>
</g>
<!-- BB9&#45;&gt;BB10 -->
<g id="edge13" class="edge">
<title>BB9&#45;&gt;BB10</title>
<path fill="none" stroke="black" d="M461.24,-396.22C461.24,-387.95 461.24,-379.27 461.24,-370.77"/>
<polygon fill="black" stroke="black" points="464.74,-370.52 461.24,-360.52 457.74,-370.52 464.74,-370.52"/>
</g>
<!-- BB10&#45;&gt;BB10 -->
<g id="edge14" class="edge">
<title>BB10&#45;&gt;BB10</title>
<path fill="none" stroke="black" d="M555.34,-336.15C574.07,-333.47 587.42,-325.56 587.42,-312.42 587.42,-301.73 578.61,-294.51 565.26,-290.74"/>
<polygon fill="black" stroke="black" points="565.84,-287.29 555.34,-288.69 564.42,-294.14 565.84,-287.29"/>
</g>
<!-- BB11 -->
<g id="node12" class="node">
<title>BB11</title>
<ellipse fill="none" stroke="black" cx="461.24" cy="-180.25" rx="103.48" ry="48.17"/>
<text text-anchor="middle" x="461.24" y="-199.05" font-family="Times New Roman,serif" font-size="14.00">[eb..f3)</text>
<text text-anchor="middle" x="461.24" y="-184.05" font-family="Times New Roman,serif" font-size="14.00">Count: 1391</text>
<text text-anchor="middle" x="461.24" y="-169.05" font-family="Times New Roman,serif" font-size="14.00">Normalized count: 5.02</text>
<text text-anchor="middle" x="461.24" y="-154.05" font-family="Times New Roman,serif" font-size="14.00">Samples weight: 0.06</text>
</g>
<!-- BB10&#45;&gt;BB11 -->
<g id="edge15" class="edge">
<title>BB10&#45;&gt;BB11</title>
<path fill="none" stroke="black" d="M461.24,-264.05C461.24,-255.79 461.24,-247.1 461.24,-238.6"/>
<polygon fill="black" stroke="black" points="464.74,-238.36 461.24,-228.36 457.74,-238.36 464.74,-238.36"/>
</g>
<!-- BB11&#45;&gt;BB9 -->
<g id="edge16" class="edge">
<title>BB11&#45;&gt;BB9</title>
<path fill="none" stroke="black" d="M539.49,-211.62C561.84,-224.37 583.55,-241.63 596.24,-264.33 617.09,-301.64 617.09,-323.19 596.24,-360.5 585.53,-379.67 568.38,-394.96 549.85,-406.92"/>
<polygon fill="black" stroke="black" points="547.95,-403.98 541.26,-412.19 551.61,-409.95 547.95,-403.98"/>
</g>
<!-- BB12 -->
<g id="node13" class="node">
<title>BB12</title>
<ellipse fill="none" stroke="black" cx="393.24" cy="-48.08" rx="103.48" ry="48.17"/>
<text text-anchor="middle" x="393.24" y="-66.88" font-family="Times New Roman,serif" font-size="14.00">[f3..f6)</text>
<text text-anchor="middle" x="393.24" y="-51.88" font-family="Times New Roman,serif" font-size="14.00">Count: 293</text>
<text text-anchor="middle" x="393.24" y="-36.88" font-family="Times New Roman,serif" font-size="14.00">Normalized count: 1.06</text>
<text text-anchor="middle" x="393.24" y="-21.88" font-family="Times New Roman,serif" font-size="14.00">Samples weight: 0.01</text>
</g>
<!-- BB11&#45;&gt;BB12 -->
<g id="edge17" class="edge">
<title>BB11&#45;&gt;BB12</title>
<path fill="none" stroke="black" d="M437.26,-133.36C432.29,-123.83 426.99,-113.7 421.87,-103.89"/>
<polygon fill="black" stroke="black" points="424.96,-102.24 417.22,-95 418.75,-105.48 424.96,-102.24"/>
</g>
<!-- BB12&#45;&gt;BB13 -->
<g id="edge18" class="edge">
<title>BB12&#45;&gt;BB13</title>
<path fill="none" stroke="black" d="M365.32,-94.83C359.16,-106.64 353.27,-119.58 349.24,-132.17 324.71,-208.71 325.24,-231.04 325.24,-311.42 325.24,-445.58 325.24,-445.58 325.24,-445.58 325.24,-525.79 306.06,-555.41 346.24,-624.83 355.39,-640.66 368.89,-654.37 383.38,-665.85"/>
<polygon fill="black" stroke="black" points="381.42,-668.76 391.51,-672 385.64,-663.17 381.42,-668.76"/>
</g>
<!-- BB13&#45;&gt;BB8 -->
<g id="edge19" class="edge">
<title>BB13&#45;&gt;BB8</title>
<path fill="none" stroke="black" d="M458.24,-660.55C458.24,-652.29 458.24,-643.6 458.24,-635.1"/>
<polygon fill="black" stroke="black" points="461.74,-634.86 458.24,-624.86 454.74,-634.86 461.74,-634.86"/>
</g>
<!-- BB14 -->
<g id="node15" class="node">
<title>BB14</title>
<ellipse fill="none" stroke="black" cx="682.24" cy="-576.75" rx="103.48" ry="48.17"/>
<text text-anchor="middle" x="682.24" y="-595.55" font-family="Times New Roman,serif" font-size="14.00">[fd..fe)</text>
<text text-anchor="middle" x="682.24" y="-580.55" font-family="Times New Roman,serif" font-size="14.00">Count: 49</text>
<text text-anchor="middle" x="682.24" y="-565.55" font-family="Times New Roman,serif" font-size="14.00">Normalized count: 0.18</text>
<text text-anchor="middle" x="682.24" y="-550.55" font-family="Times New Roman,serif" font-size="14.00">Samples weight: 0.00</text>
</g>
<!-- BB13&#45;&gt;BB14 -->
<g id="edge20" class="edge">
<title>BB13&#45;&gt;BB14</title>
<path fill="none" stroke="black" d="M521.83,-670.96C549.26,-655.02 581.48,-636.3 609.83,-619.83"/>
<polygon fill="black" stroke="black" points="611.6,-622.84 618.49,-614.79 608.08,-616.79 611.6,-622.84"/>
</g>
</g>
</svg>
