<?xml version="1.0" encoding="UTF-8" standalone="no"?>
<!DOCTYPE svg PUBLIC "-//W3C//DTD SVG 1.1//EN"
 "http://www.w3.org/Graphics/SVG/1.1/DTD/svg11.dtd">
<!-- Generated by graphviz version 2.47.0 (20210316.0004)
 -->
<!-- Title: G Pages: 1 -->
<svg width="689pt" height="897pt"
 viewBox="0.00 0.00 689.50 897.17" xmlns="http://www.w3.org/2000/svg" xmlns:xlink="http://www.w3.org/1999/xlink">
<g id="graph0" class="graph" transform="scale(1 1) rotate(0) translate(4 893.17)">
<title>G</title>
<polygon fill="white" stroke="transparent" points="-4,4 -4,-893.17 685.5,-893.17 685.5,4 -4,4"/>
<!-- BB0 -->
<g id="node1" class="node">
<title>BB0</title>
<ellipse fill="none" stroke="black" cx="113.84" cy="-841.08" rx="104.8" ry="48.17"/>
<text text-anchor="middle" x="113.84" y="-859.88" font-family="Times New Roman,serif" font-size="14.00">[0..2c)</text>
<text text-anchor="middle" x="113.84" y="-844.88" font-family="Times New Roman,serif" font-size="14.00">Count: 0</text>
<text text-anchor="middle" x="113.84" y="-829.88" font-family="Times New Roman,serif" font-size="14.00">Normalized count: NaN</text>
<text text-anchor="middle" x="113.84" y="-814.88" font-family="Times New Roman,serif" font-size="14.00">Samples weight: 0.00</text>
</g>
<!-- BB2 -->
<g id="node3" class="node">
<title>BB2</title>
<ellipse fill="none" stroke="black" cx="113.84" cy="-708.92" rx="104.8" ry="48.17"/>
<text text-anchor="middle" x="113.84" y="-727.72" font-family="Times New Roman,serif" font-size="14.00">[37..3c)</text>
<text text-anchor="middle" x="113.84" y="-712.72" font-family="Times New Roman,serif" font-size="14.00">Count: 0</text>
<text text-anchor="middle" x="113.84" y="-697.72" font-family="Times New Roman,serif" font-size="14.00">Normalized count: NaN</text>
<text text-anchor="middle" x="113.84" y="-682.72" font-family="Times New Roman,serif" font-size="14.00">Samples weight: 0.00</text>
</g>
<!-- BB0&#45;&gt;BB2 -->
<g id="edge1" class="edge">
<title>BB0&#45;&gt;BB2</title>
<path fill="none" stroke="black" d="M113.84,-792.72C113.84,-784.45 113.84,-775.77 113.84,-767.27"/>
<polygon fill="black" stroke="black" points="117.34,-767.02 113.84,-757.02 110.34,-767.02 117.34,-767.02"/>
</g>
<!-- BB1 -->
<g id="node2" class="node">
<title>BB1</title>
<ellipse fill="none" stroke="black" cx="113.84" cy="-576.75" rx="113.69" ry="48.17"/>
<text text-anchor="middle" x="113.84" y="-595.55" font-family="Times New Roman,serif" font-size="14.00">[2c..37)</text>
<text text-anchor="middle" x="113.84" y="-580.55" font-family="Times New Roman,serif" font-size="14.00">Count: 1</text>
<text text-anchor="middle" x="113.84" y="-565.55" font-family="Times New Roman,serif" font-size="14.00">Normalized count: Infinity</text>
<text text-anchor="middle" x="113.84" y="-550.55" font-family="Times New Roman,serif" font-size="14.00">Samples weight: 0.00</text>
</g>
<!-- BB1&#45;&gt;BB2 -->
<g id="edge2" class="edge">
<title>BB1&#45;&gt;BB2</title>
<path fill="none" stroke="black" d="M120.37,-625.11C120.58,-633.41 120.65,-642.12 120.55,-650.65"/>
<polygon fill="black" stroke="black" points="117.05,-650.86 120.36,-660.92 124.05,-650.99 117.05,-650.86"/>
</g>
<!-- BB2&#45;&gt;BB1 -->
<g id="edge3" class="edge">
<title>BB2&#45;&gt;BB1</title>
<path fill="none" stroke="black" d="M107.33,-660.92C107.11,-652.55 107.04,-643.74 107.14,-635.11"/>
<polygon fill="black" stroke="black" points="110.64,-635.17 107.32,-625.11 103.64,-635.04 110.64,-635.17"/>
</g>
<!-- BB3 -->
<g id="node4" class="node">
<title>BB3</title>
<ellipse fill="none" stroke="black" cx="349.84" cy="-576.75" rx="104.8" ry="48.17"/>
<text text-anchor="middle" x="349.84" y="-595.55" font-family="Times New Roman,serif" font-size="14.00">[3c..45)</text>
<text text-anchor="middle" x="349.84" y="-580.55" font-family="Times New Roman,serif" font-size="14.00">Count: 0</text>
<text text-anchor="middle" x="349.84" y="-565.55" font-family="Times New Roman,serif" font-size="14.00">Normalized count: NaN</text>
<text text-anchor="middle" x="349.84" y="-550.55" font-family="Times New Roman,serif" font-size="14.00">Samples weight: 0.00</text>
</g>
<!-- BB2&#45;&gt;BB3 -->
<g id="edge4" class="edge">
<title>BB2&#45;&gt;BB3</title>
<path fill="none" stroke="black" d="M179.9,-671.48C209.44,-655.19 244.4,-635.91 274.91,-619.08"/>
<polygon fill="black" stroke="black" points="276.74,-622.07 283.81,-614.17 273.36,-615.94 276.74,-622.07"/>
</g>
<!-- BB8 -->
<g id="node9" class="node">
<title>BB8</title>
<ellipse fill="none" stroke="black" cx="349.84" cy="-444.58" rx="104.8" ry="48.17"/>
<text text-anchor="middle" x="349.84" y="-463.38" font-family="Times New Roman,serif" font-size="14.00">[c0..c5)</text>
<text text-anchor="middle" x="349.84" y="-448.38" font-family="Times New Roman,serif" font-size="14.00">Count: 0</text>
<text text-anchor="middle" x="349.84" y="-433.38" font-family="Times New Roman,serif" font-size="14.00">Normalized count: NaN</text>
<text text-anchor="middle" x="349.84" y="-418.38" font-family="Times New Roman,serif" font-size="14.00">Samples weight: 0.00</text>
</g>
<!-- BB3&#45;&gt;BB8 -->
<g id="edge5" class="edge">
<title>BB3&#45;&gt;BB8</title>
<path fill="none" stroke="black" d="M349.84,-528.39C349.84,-520.12 349.84,-511.44 349.84,-502.93"/>
<polygon fill="black" stroke="black" points="353.34,-502.69 349.84,-492.69 346.34,-502.69 353.34,-502.69"/>
</g>
<!-- BB4 -->
<g id="node5" class="node">
<title>BB4</title>
<ellipse fill="none" stroke="black" cx="349.84" cy="-312.42" rx="104.8" ry="48.17"/>
<text text-anchor="middle" x="349.84" y="-331.22" font-family="Times New Roman,serif" font-size="14.00">[45..4d)</text>
<text text-anchor="middle" x="349.84" y="-316.22" font-family="Times New Roman,serif" font-size="14.00">Count: 0</text>
<text text-anchor="middle" x="349.84" y="-301.22" font-family="Times New Roman,serif" font-size="14.00">Normalized count: NaN</text>
<text text-anchor="middle" x="349.84" y="-286.22" font-family="Times New Roman,serif" font-size="14.00">Samples weight: 0.00</text>
</g>
<!-- BB6 -->
<g id="node7" class="node">
<title>BB6</title>
<ellipse fill="none" stroke="black" cx="377.84" cy="-180.25" rx="113.69" ry="48.17"/>
<text text-anchor="middle" x="377.84" y="-199.05" font-family="Times New Roman,serif" font-size="14.00">[89..90)</text>
<text text-anchor="middle" x="377.84" y="-184.05" font-family="Times New Roman,serif" font-size="14.00">Count: 23</text>
<text text-anchor="middle" x="377.84" y="-169.05" font-family="Times New Roman,serif" font-size="14.00">Normalized count: Infinity</text>
<text text-anchor="middle" x="377.84" y="-154.05" font-family="Times New Roman,serif" font-size="14.00">Samples weight: 0.02</text>
</g>
<!-- BB4&#45;&gt;BB6 -->
<g id="edge6" class="edge">
<title>BB4&#45;&gt;BB6</title>
<path fill="none" stroke="black" d="M359.95,-264.42C361.8,-255.85 363.74,-246.83 365.64,-238.01"/>
<polygon fill="black" stroke="black" points="369.07,-238.69 367.75,-228.17 362.23,-237.21 369.07,-238.69"/>
</g>
<!-- BB5 -->
<g id="node6" class="node">
<title>BB5</title>
<ellipse fill="none" stroke="black" cx="401.84" cy="-48.08" rx="113.69" ry="48.17"/>
<text text-anchor="middle" x="401.84" y="-66.88" font-family="Times New Roman,serif" font-size="14.00">[4d..89)</text>
<text text-anchor="middle" x="401.84" y="-51.88" font-family="Times New Roman,serif" font-size="14.00">Count: 956</text>
<text text-anchor="middle" x="401.84" y="-36.88" font-family="Times New Roman,serif" font-size="14.00">Normalized count: Infinity</text>
<text text-anchor="middle" x="401.84" y="-21.88" font-family="Times New Roman,serif" font-size="14.00">Samples weight: 0.98</text>
</g>
<!-- BB5&#45;&gt;BB6 -->
<g id="edge7" class="edge">
<title>BB5&#45;&gt;BB6</title>
<path fill="none" stroke="black" d="M399.63,-96.44C398.31,-104.83 396.74,-113.64 395.05,-122.26"/>
<polygon fill="black" stroke="black" points="391.59,-121.76 393.02,-132.26 398.44,-123.16 391.59,-121.76"/>
</g>
<!-- BB6&#45;&gt;BB5 -->
<g id="edge8" class="edge">
<title>BB6&#45;&gt;BB5</title>
<path fill="none" stroke="black" d="M380.05,-131.89C381.39,-123.42 382.97,-114.53 384.68,-105.83"/>
<polygon fill="black" stroke="black" points="388.17,-106.25 386.73,-95.76 381.31,-104.86 388.17,-106.25"/>
</g>
<!-- BB7 -->
<g id="node8" class="node">
<title>BB7</title>
<ellipse fill="none" stroke="black" cx="165.84" cy="-48.08" rx="104.8" ry="48.17"/>
<text text-anchor="middle" x="165.84" y="-66.88" font-family="Times New Roman,serif" font-size="14.00">[90..c0)</text>
<text text-anchor="middle" x="165.84" y="-51.88" font-family="Times New Roman,serif" font-size="14.00">Count: 0</text>
<text text-anchor="middle" x="165.84" y="-36.88" font-family="Times New Roman,serif" font-size="14.00">Normalized count: NaN</text>
<text text-anchor="middle" x="165.84" y="-21.88" font-family="Times New Roman,serif" font-size="14.00">Samples weight: 0.00</text>
</g>
<!-- BB6&#45;&gt;BB7 -->
<g id="edge9" class="edge">
<title>BB6&#45;&gt;BB7</title>
<path fill="none" stroke="black" d="M314.24,-140.2C289.69,-125.12 261.51,-107.82 236.35,-92.37"/>
<polygon fill="black" stroke="black" points="237.94,-89.24 227.58,-86.99 234.27,-95.21 237.94,-89.24"/>
</g>
<!-- BB7&#45;&gt;BB8 -->
<g id="edge10" class="edge">
<title>BB7&#45;&gt;BB8</title>
<path fill="none" stroke="black" d="M166.35,-96.33C169.15,-161.03 182.01,-278.51 235.84,-360.5 246.05,-376.04 260.24,-389.68 275.14,-401.17"/>
<polygon fill="black" stroke="black" points="273.35,-404.2 283.47,-407.33 277.51,-398.57 273.35,-404.2"/>
</g>
<!-- BB8&#45;&gt;BB4 -->
<g id="edge11" class="edge">
<title>BB8&#45;&gt;BB4</title>
<path fill="none" stroke="black" d="M349.84,-396.22C349.84,-387.95 349.84,-379.27 349.84,-370.77"/>
<polygon fill="black" stroke="black" points="353.34,-370.52 349.84,-360.52 346.34,-370.52 353.34,-370.52"/>
</g>
<!-- BB9 -->
<g id="node10" class="node">
<title>BB9</title>
<ellipse fill="none" stroke="black" cx="576.84" cy="-312.42" rx="104.8" ry="48.17"/>
<text text-anchor="middle" x="576.84" y="-331.22" font-family="Times New Roman,serif" font-size="14.00">[c5..c8)</text>
<text text-anchor="middle" x="576.84" y="-316.22" font-family="Times New Roman,serif" font-size="14.00">Count: 0</text>
<text text-anchor="middle" x="576.84" y="-301.22" font-family="Times New Roman,serif" font-size="14.00">Normalized count: NaN</text>
<text text-anchor="middle" x="576.84" y="-286.22" font-family="Times New Roman,serif" font-size="14.00">Samples weight: 0.00</text>
</g>
<!-- BB8&#45;&gt;BB9 -->
<g id="edge12" class="edge">
<title>BB8&#45;&gt;BB9</title>
<path fill="none" stroke="black" d="M414.29,-406.63C442.08,-390.69 474.74,-371.97 503.46,-355.49"/>
<polygon fill="black" stroke="black" points="505.31,-358.47 512.24,-350.46 501.83,-352.4 505.31,-358.47"/>
</g>
</g>
</svg>
