<?xml version="1.0" encoding="UTF-8" standalone="no"?>
<!DOCTYPE svg PUBLIC "-//W3C//DTD SVG 1.1//EN"
 "http://www.w3.org/Graphics/SVG/1.1/DTD/svg11.dtd">
<!-- Generated by graphviz version 2.47.0 (20210316.0004)
 -->
<!-- Title: G Pages: 1 -->
<svg width="594pt" height="897pt"
 viewBox="0.00 0.00 593.57 897.17" xmlns="http://www.w3.org/2000/svg" xmlns:xlink="http://www.w3.org/1999/xlink">
<g id="graph0" class="graph" transform="scale(1 1) rotate(0) translate(4 893.17)">
<title>G</title>
<polygon fill="white" stroke="transparent" points="-4,4 -4,-893.17 589.57,-893.17 589.57,4 -4,4"/>
<!-- BB0 -->
<g id="node1" class="node">
<title>BB0</title>
<ellipse fill="none" stroke="black" cx="234.24" cy="-841.08" rx="103.48" ry="48.17"/>
<text text-anchor="middle" x="234.24" y="-859.88" font-family="Times New Roman,serif" font-size="14.00">[0..7)</text>
<text text-anchor="middle" x="234.24" y="-844.88" font-family="Times New Roman,serif" font-size="14.00">Count: 2</text>
<text text-anchor="middle" x="234.24" y="-829.88" font-family="Times New Roman,serif" font-size="14.00">Normalized count: 1.00</text>
<text text-anchor="middle" x="234.24" y="-814.88" font-family="Times New Roman,serif" font-size="14.00">Samples weight: 0.00</text>
</g>
<!-- BB8 -->
<g id="node9" class="node">
<title>BB8</title>
<ellipse fill="none" stroke="black" cx="234.24" cy="-708.92" rx="103.48" ry="48.17"/>
<text text-anchor="middle" x="234.24" y="-727.72" font-family="Times New Roman,serif" font-size="14.00">[46..4a)</text>
<text text-anchor="middle" x="234.24" y="-712.72" font-family="Times New Roman,serif" font-size="14.00">Count: 7</text>
<text text-anchor="middle" x="234.24" y="-697.72" font-family="Times New Roman,serif" font-size="14.00">Normalized count: 3.50</text>
<text text-anchor="middle" x="234.24" y="-682.72" font-family="Times New Roman,serif" font-size="14.00">Samples weight: 0.00</text>
</g>
<!-- BB0&#45;&gt;BB8 -->
<g id="edge1" class="edge">
<title>BB0&#45;&gt;BB8</title>
<path fill="none" stroke="black" d="M234.24,-792.72C234.24,-784.45 234.24,-775.77 234.24,-767.27"/>
<polygon fill="black" stroke="black" points="237.74,-767.02 234.24,-757.02 230.74,-767.02 237.74,-767.02"/>
</g>
<!-- BB1 -->
<g id="node2" class="node">
<title>BB1</title>
<ellipse fill="none" stroke="black" cx="234.24" cy="-576.75" rx="103.48" ry="48.17"/>
<text text-anchor="middle" x="234.24" y="-595.55" font-family="Times New Roman,serif" font-size="14.00">[7..e)</text>
<text text-anchor="middle" x="234.24" y="-580.55" font-family="Times New Roman,serif" font-size="14.00">Count: 5</text>
<text text-anchor="middle" x="234.24" y="-565.55" font-family="Times New Roman,serif" font-size="14.00">Normalized count: 2.50</text>
<text text-anchor="middle" x="234.24" y="-550.55" font-family="Times New Roman,serif" font-size="14.00">Samples weight: 0.00</text>
</g>
<!-- BB6 -->
<g id="node7" class="node">
<title>BB6</title>
<ellipse fill="none" stroke="black" cx="239.24" cy="-444.58" rx="113.27" ry="48.17"/>
<text text-anchor="middle" x="239.24" y="-463.38" font-family="Times New Roman,serif" font-size="14.00">[3d..42)</text>
<text text-anchor="middle" x="239.24" y="-448.38" font-family="Times New Roman,serif" font-size="14.00">Count: 371</text>
<text text-anchor="middle" x="239.24" y="-433.38" font-family="Times New Roman,serif" font-size="14.00">Normalized count: 185.50</text>
<text text-anchor="middle" x="239.24" y="-418.38" font-family="Times New Roman,serif" font-size="14.00">Samples weight: 0.00</text>
</g>
<!-- BB1&#45;&gt;BB6 -->
<g id="edge2" class="edge">
<title>BB1&#45;&gt;BB6</title>
<path fill="none" stroke="black" d="M236.06,-528.39C236.37,-520.12 236.71,-511.44 237.03,-502.93"/>
<polygon fill="black" stroke="black" points="240.54,-502.82 237.43,-492.69 233.55,-502.55 240.54,-502.82"/>
</g>
<!-- BB2 -->
<g id="node3" class="node">
<title>BB2</title>
<ellipse fill="none" stroke="black" cx="433.24" cy="-312.42" rx="113.27" ry="48.17"/>
<text text-anchor="middle" x="433.24" y="-331.22" font-family="Times New Roman,serif" font-size="14.00">[e..13)</text>
<text text-anchor="middle" x="433.24" y="-316.22" font-family="Times New Roman,serif" font-size="14.00">Count: 366</text>
<text text-anchor="middle" x="433.24" y="-301.22" font-family="Times New Roman,serif" font-size="14.00">Normalized count: 183.00</text>
<text text-anchor="middle" x="433.24" y="-286.22" font-family="Times New Roman,serif" font-size="14.00">Samples weight: 0.00</text>
</g>
<!-- BB4 -->
<g id="node5" class="node">
<title>BB4</title>
<ellipse fill="none" stroke="black" cx="437.24" cy="-180.25" rx="122.16" ry="48.17"/>
<text text-anchor="middle" x="437.24" y="-199.05" font-family="Times New Roman,serif" font-size="14.00">[32..37)</text>
<text text-anchor="middle" x="437.24" y="-184.05" font-family="Times New Roman,serif" font-size="14.00">Count: 70168</text>
<text text-anchor="middle" x="437.24" y="-169.05" font-family="Times New Roman,serif" font-size="14.00">Normalized count: 35084.00</text>
<text text-anchor="middle" x="437.24" y="-154.05" font-family="Times New Roman,serif" font-size="14.00">Samples weight: 0.50</text>
</g>
<!-- BB2&#45;&gt;BB4 -->
<g id="edge3" class="edge">
<title>BB2&#45;&gt;BB4</title>
<path fill="none" stroke="black" d="M434.69,-264.05C434.95,-255.79 435.21,-247.1 435.48,-238.6"/>
<polygon fill="black" stroke="black" points="438.98,-238.46 435.79,-228.36 431.98,-238.25 438.98,-238.46"/>
</g>
<!-- BB3 -->
<g id="node4" class="node">
<title>BB3</title>
<ellipse fill="none" stroke="black" cx="463.24" cy="-48.08" rx="122.16" ry="48.17"/>
<text text-anchor="middle" x="463.24" y="-66.88" font-family="Times New Roman,serif" font-size="14.00">[13..32)</text>
<text text-anchor="middle" x="463.24" y="-51.88" font-family="Times New Roman,serif" font-size="14.00">Count: 69802</text>
<text text-anchor="middle" x="463.24" y="-36.88" font-family="Times New Roman,serif" font-size="14.00">Normalized count: 34901.00</text>
<text text-anchor="middle" x="463.24" y="-21.88" font-family="Times New Roman,serif" font-size="14.00">Samples weight: 0.49</text>
</g>
<!-- BB3&#45;&gt;BB4 -->
<g id="edge4" class="edge">
<title>BB3&#45;&gt;BB4</title>
<path fill="none" stroke="black" d="M460.3,-96.44C458.85,-104.83 457.15,-113.64 455.32,-122.26"/>
<polygon fill="black" stroke="black" points="451.86,-121.74 453.14,-132.26 458.69,-123.24 451.86,-121.74"/>
</g>
<!-- BB4&#45;&gt;BB3 -->
<g id="edge5" class="edge">
<title>BB4&#45;&gt;BB3</title>
<path fill="none" stroke="black" d="M440.18,-131.89C441.63,-123.53 443.32,-114.75 445.13,-106.15"/>
<polygon fill="black" stroke="black" points="448.6,-106.71 447.31,-96.19 441.76,-105.21 448.6,-106.71"/>
</g>
<!-- BB5 -->
<g id="node6" class="node">
<title>BB5</title>
<ellipse fill="none" stroke="black" cx="210.24" cy="-48.08" rx="113.27" ry="48.17"/>
<text text-anchor="middle" x="210.24" y="-66.88" font-family="Times New Roman,serif" font-size="14.00">[37..3d)</text>
<text text-anchor="middle" x="210.24" y="-51.88" font-family="Times New Roman,serif" font-size="14.00">Count: 366</text>
<text text-anchor="middle" x="210.24" y="-36.88" font-family="Times New Roman,serif" font-size="14.00">Normalized count: 183.00</text>
<text text-anchor="middle" x="210.24" y="-21.88" font-family="Times New Roman,serif" font-size="14.00">Samples weight: 0.00</text>
</g>
<!-- BB4&#45;&gt;BB5 -->
<g id="edge6" class="edge">
<title>BB4&#45;&gt;BB5</title>
<path fill="none" stroke="black" d="M369.13,-140.2C342.85,-125.12 312.68,-107.82 285.74,-92.38"/>
<polygon fill="black" stroke="black" points="287.15,-89.15 276.73,-87.21 283.67,-95.22 287.15,-89.15"/>
</g>
<!-- BB5&#45;&gt;BB6 -->
<g id="edge7" class="edge">
<title>BB5&#45;&gt;BB6</title>
<path fill="none" stroke="black" d="M213.71,-96.33C219.05,-168.98 229.26,-307.9 235.02,-386.22"/>
<polygon fill="black" stroke="black" points="231.54,-386.67 235.77,-396.39 238.53,-386.16 231.54,-386.67"/>
</g>
<!-- BB6&#45;&gt;BB2 -->
<g id="edge8" class="edge">
<title>BB6&#45;&gt;BB2</title>
<path fill="none" stroke="black" d="M298.76,-403.64C319.71,-389.59 343.4,-373.69 365.01,-359.19"/>
<polygon fill="black" stroke="black" points="367.14,-361.98 373.49,-353.5 363.24,-356.17 367.14,-361.98"/>
</g>
<!-- BB7 -->
<g id="node8" class="node">
<title>BB7</title>
<ellipse fill="none" stroke="black" cx="103.24" cy="-312.42" rx="103.48" ry="48.17"/>
<text text-anchor="middle" x="103.24" y="-331.22" font-family="Times New Roman,serif" font-size="14.00">[42..46)</text>
<text text-anchor="middle" x="103.24" y="-316.22" font-family="Times New Roman,serif" font-size="14.00">Count: 5</text>
<text text-anchor="middle" x="103.24" y="-301.22" font-family="Times New Roman,serif" font-size="14.00">Normalized count: 2.50</text>
<text text-anchor="middle" x="103.24" y="-286.22" font-family="Times New Roman,serif" font-size="14.00">Samples weight: 0.00</text>
</g>
<!-- BB6&#45;&gt;BB7 -->
<g id="edge9" class="edge">
<title>BB6&#45;&gt;BB7</title>
<path fill="none" stroke="black" d="M193.95,-400.24C181.55,-388.37 168.01,-375.41 155.26,-363.21"/>
<polygon fill="black" stroke="black" points="157.51,-360.51 147.86,-356.13 152.67,-365.57 157.51,-360.51"/>
</g>
<!-- BB7&#45;&gt;BB8 -->
<g id="edge10" class="edge">
<title>BB7&#45;&gt;BB8</title>
<path fill="none" stroke="black" d="M94.41,-360.54C84.91,-424.6 76.68,-540.78 122.24,-624.83 130.95,-640.91 144.27,-654.73 158.72,-666.22"/>
<polygon fill="black" stroke="black" points="156.75,-669.13 166.84,-672.37 160.98,-663.54 156.75,-669.13"/>
</g>
<!-- BB8&#45;&gt;BB1 -->
<g id="edge11" class="edge">
<title>BB8&#45;&gt;BB1</title>
<path fill="none" stroke="black" d="M234.24,-660.55C234.24,-652.29 234.24,-643.6 234.24,-635.1"/>
<polygon fill="black" stroke="black" points="237.74,-634.86 234.24,-624.86 230.74,-634.86 237.74,-634.86"/>
</g>
<!-- BB9 -->
<g id="node10" class="node">
<title>BB9</title>
<ellipse fill="none" stroke="black" cx="458.24" cy="-576.75" rx="103.48" ry="48.17"/>
<text text-anchor="middle" x="458.24" y="-595.55" font-family="Times New Roman,serif" font-size="14.00">[4a..4b)</text>
<text text-anchor="middle" x="458.24" y="-580.55" font-family="Times New Roman,serif" font-size="14.00">Count: 2</text>
<text text-anchor="middle" x="458.24" y="-565.55" font-family="Times New Roman,serif" font-size="14.00">Normalized count: 1.00</text>
<text text-anchor="middle" x="458.24" y="-550.55" font-family="Times New Roman,serif" font-size="14.00">Samples weight: 0.00</text>
</g>
<!-- BB8&#45;&gt;BB9 -->
<g id="edge12" class="edge">
<title>BB8&#45;&gt;BB9</title>
<path fill="none" stroke="black" d="M297.83,-670.96C325.26,-655.02 357.48,-636.3 385.83,-619.83"/>
<polygon fill="black" stroke="black" points="387.6,-622.84 394.49,-614.79 384.08,-616.79 387.6,-622.84"/>
</g>
</g>
</svg>
