<?xml version="1.0" encoding="UTF-8" standalone="no"?>
<!DOCTYPE svg PUBLIC "-//W3C//DTD SVG 1.1//EN"
 "http://www.w3.org/Graphics/SVG/1.1/DTD/svg11.dtd">
<!-- Generated by graphviz version 2.47.0 (20210316.0004)
 -->
<!-- Title: G Pages: 1 -->
<svg width="728pt" height="1029pt"
 viewBox="0.00 0.00 728.30 1029.33" xmlns="http://www.w3.org/2000/svg" xmlns:xlink="http://www.w3.org/1999/xlink">
<g id="graph0" class="graph" transform="scale(1 1) rotate(0) translate(4 1025.33)">
<title>G</title>
<polygon fill="white" stroke="transparent" points="-4,4 -4,-1025.33 724.3,-1025.33 724.3,4 -4,4"/>
<!-- BB0 -->
<g id="node1" class="node">
<title>BB0</title>
<ellipse fill="none" stroke="black" cx="482.65" cy="-973.25" rx="104.8" ry="48.17"/>
<text text-anchor="middle" x="482.65" y="-992.05" font-family="Times New Roman,serif" font-size="14.00">[0..1d)</text>
<text text-anchor="middle" x="482.65" y="-977.05" font-family="Times New Roman,serif" font-size="14.00">Count: 0</text>
<text text-anchor="middle" x="482.65" y="-962.05" font-family="Times New Roman,serif" font-size="14.00">Normalized count: NaN</text>
<text text-anchor="middle" x="482.65" y="-947.05" font-family="Times New Roman,serif" font-size="14.00">Samples weight: 0.00</text>
</g>
<!-- BB10 -->
<g id="node11" class="node">
<title>BB10</title>
<ellipse fill="none" stroke="black" cx="482.65" cy="-841.08" rx="104.8" ry="48.17"/>
<text text-anchor="middle" x="482.65" y="-859.88" font-family="Times New Roman,serif" font-size="14.00">[88..97)</text>
<text text-anchor="middle" x="482.65" y="-844.88" font-family="Times New Roman,serif" font-size="14.00">Count: 0</text>
<text text-anchor="middle" x="482.65" y="-829.88" font-family="Times New Roman,serif" font-size="14.00">Normalized count: NaN</text>
<text text-anchor="middle" x="482.65" y="-814.88" font-family="Times New Roman,serif" font-size="14.00">Samples weight: 0.00</text>
</g>
<!-- BB0&#45;&gt;BB10 -->
<g id="edge1" class="edge">
<title>BB0&#45;&gt;BB10</title>
<path fill="none" stroke="black" d="M482.65,-924.89C482.65,-916.62 482.65,-907.94 482.65,-899.43"/>
<polygon fill="black" stroke="black" points="486.15,-899.19 482.65,-889.19 479.15,-899.19 486.15,-899.19"/>
</g>
<!-- BB1 -->
<g id="node2" class="node">
<title>BB1</title>
<ellipse fill="none" stroke="black" cx="340.65" cy="-708.92" rx="104.8" ry="48.17"/>
<text text-anchor="middle" x="340.65" y="-727.72" font-family="Times New Roman,serif" font-size="14.00">[1d..30)</text>
<text text-anchor="middle" x="340.65" y="-712.72" font-family="Times New Roman,serif" font-size="14.00">Count: 0</text>
<text text-anchor="middle" x="340.65" y="-697.72" font-family="Times New Roman,serif" font-size="14.00">Normalized count: NaN</text>
<text text-anchor="middle" x="340.65" y="-682.72" font-family="Times New Roman,serif" font-size="14.00">Samples weight: 0.00</text>
</g>
<!-- BB2 -->
<g id="node3" class="node">
<title>BB2</title>
<ellipse fill="none" stroke="black" cx="104.65" cy="-576.75" rx="104.8" ry="48.17"/>
<text text-anchor="middle" x="104.65" y="-595.55" font-family="Times New Roman,serif" font-size="14.00">[30..46)</text>
<text text-anchor="middle" x="104.65" y="-580.55" font-family="Times New Roman,serif" font-size="14.00">Count: 0</text>
<text text-anchor="middle" x="104.65" y="-565.55" font-family="Times New Roman,serif" font-size="14.00">Normalized count: NaN</text>
<text text-anchor="middle" x="104.65" y="-550.55" font-family="Times New Roman,serif" font-size="14.00">Samples weight: 0.00</text>
</g>
<!-- BB1&#45;&gt;BB2 -->
<g id="edge3" class="edge">
<title>BB1&#45;&gt;BB2</title>
<path fill="none" stroke="black" d="M274.6,-671.48C245.06,-655.19 210.1,-635.91 179.58,-619.08"/>
<polygon fill="black" stroke="black" points="181.14,-615.94 170.69,-614.17 177.75,-622.07 181.14,-615.94"/>
</g>
<!-- BB4 -->
<g id="node5" class="node">
<title>BB4</title>
<ellipse fill="none" stroke="black" cx="340.65" cy="-576.75" rx="113.69" ry="48.17"/>
<text text-anchor="middle" x="340.65" y="-595.55" font-family="Times New Roman,serif" font-size="14.00">[49..4e)</text>
<text text-anchor="middle" x="340.65" y="-580.55" font-family="Times New Roman,serif" font-size="14.00">Count: 11</text>
<text text-anchor="middle" x="340.65" y="-565.55" font-family="Times New Roman,serif" font-size="14.00">Normalized count: Infinity</text>
<text text-anchor="middle" x="340.65" y="-550.55" font-family="Times New Roman,serif" font-size="14.00">Samples weight: 0.05</text>
</g>
<!-- BB1&#45;&gt;BB4 -->
<g id="edge2" class="edge">
<title>BB1&#45;&gt;BB4</title>
<path fill="none" stroke="black" d="M340.65,-660.55C340.65,-652.29 340.65,-643.6 340.65,-635.1"/>
<polygon fill="black" stroke="black" points="344.15,-634.86 340.65,-624.86 337.15,-634.86 344.15,-634.86"/>
</g>
<!-- BB3 -->
<g id="node4" class="node">
<title>BB3</title>
<ellipse fill="none" stroke="black" cx="175.65" cy="-444.58" rx="104.8" ry="48.17"/>
<text text-anchor="middle" x="175.65" y="-463.38" font-family="Times New Roman,serif" font-size="14.00">[46..49)</text>
<text text-anchor="middle" x="175.65" y="-448.38" font-family="Times New Roman,serif" font-size="14.00">Count: 0</text>
<text text-anchor="middle" x="175.65" y="-433.38" font-family="Times New Roman,serif" font-size="14.00">Normalized count: NaN</text>
<text text-anchor="middle" x="175.65" y="-418.38" font-family="Times New Roman,serif" font-size="14.00">Samples weight: 0.00</text>
</g>
<!-- BB2&#45;&gt;BB3 -->
<g id="edge5" class="edge">
<title>BB2&#45;&gt;BB3</title>
<path fill="none" stroke="black" d="M129.68,-529.86C134.88,-520.33 140.41,-510.2 145.76,-500.39"/>
<polygon fill="black" stroke="black" points="148.89,-501.95 150.61,-491.5 142.75,-498.6 148.89,-501.95"/>
</g>
<!-- BB2&#45;&gt;BB4 -->
<g id="edge4" class="edge">
<title>BB2&#45;&gt;BB4</title>
<path fill="none" stroke="black" d="M209.75,-576.75C212.03,-576.75 214.32,-576.75 216.6,-576.75"/>
<polygon fill="black" stroke="black" points="216.62,-580.25 226.62,-576.75 216.62,-573.25 216.62,-580.25"/>
</g>
<!-- BB3&#45;&gt;BB4 -->
<g id="edge6" class="edge">
<title>BB3&#45;&gt;BB4</title>
<path fill="none" stroke="black" d="M227.54,-486.52C243.96,-499.47 262.28,-513.92 279.3,-527.35"/>
<polygon fill="black" stroke="black" points="277.52,-530.4 287.54,-533.85 281.85,-524.91 277.52,-530.4"/>
</g>
<!-- BB9 -->
<g id="node10" class="node">
<title>BB9</title>
<ellipse fill="none" stroke="black" cx="446.65" cy="-444.58" rx="113.69" ry="48.17"/>
<text text-anchor="middle" x="446.65" y="-463.38" font-family="Times New Roman,serif" font-size="14.00">[83..88)</text>
<text text-anchor="middle" x="446.65" y="-448.38" font-family="Times New Roman,serif" font-size="14.00">Count: 22</text>
<text text-anchor="middle" x="446.65" y="-433.38" font-family="Times New Roman,serif" font-size="14.00">Normalized count: Infinity</text>
<text text-anchor="middle" x="446.65" y="-418.38" font-family="Times New Roman,serif" font-size="14.00">Samples weight: 0.10</text>
</g>
<!-- BB4&#45;&gt;BB9 -->
<g id="edge7" class="edge">
<title>BB4&#45;&gt;BB9</title>
<path fill="none" stroke="black" d="M377.13,-530.95C385.71,-520.42 394.93,-509.1 403.76,-498.25"/>
<polygon fill="black" stroke="black" points="406.5,-500.43 410.11,-490.46 401.08,-496.01 406.5,-500.43"/>
</g>
<!-- BB5 -->
<g id="node6" class="node">
<title>BB5</title>
<ellipse fill="none" stroke="black" cx="375.65" cy="-312.42" rx="113.69" ry="48.17"/>
<text text-anchor="middle" x="375.65" y="-331.22" font-family="Times New Roman,serif" font-size="14.00">[4e..5b)</text>
<text text-anchor="middle" x="375.65" y="-316.22" font-family="Times New Roman,serif" font-size="14.00">Count: 41</text>
<text text-anchor="middle" x="375.65" y="-301.22" font-family="Times New Roman,serif" font-size="14.00">Normalized count: Infinity</text>
<text text-anchor="middle" x="375.65" y="-286.22" font-family="Times New Roman,serif" font-size="14.00">Samples weight: 0.18</text>
</g>
<!-- BB6 -->
<g id="node7" class="node">
<title>BB6</title>
<ellipse fill="none" stroke="black" cx="271.65" cy="-180.25" rx="113.69" ry="48.17"/>
<text text-anchor="middle" x="271.65" y="-199.05" font-family="Times New Roman,serif" font-size="14.00">[5b..7a)</text>
<text text-anchor="middle" x="271.65" y="-184.05" font-family="Times New Roman,serif" font-size="14.00">Count: 128</text>
<text text-anchor="middle" x="271.65" y="-169.05" font-family="Times New Roman,serif" font-size="14.00">Normalized count: Infinity</text>
<text text-anchor="middle" x="271.65" y="-154.05" font-family="Times New Roman,serif" font-size="14.00">Samples weight: 0.58</text>
</g>
<!-- BB5&#45;&gt;BB6 -->
<g id="edge9" class="edge">
<title>BB5&#45;&gt;BB6</title>
<path fill="none" stroke="black" d="M339.86,-266.62C331.53,-256.19 322.58,-244.99 313.99,-234.24"/>
<polygon fill="black" stroke="black" points="316.49,-231.76 307.51,-226.13 311.02,-236.13 316.49,-231.76"/>
</g>
<!-- BB8 -->
<g id="node9" class="node">
<title>BB8</title>
<ellipse fill="none" stroke="black" cx="517.65" cy="-180.25" rx="113.69" ry="48.17"/>
<text text-anchor="middle" x="517.65" y="-199.05" font-family="Times New Roman,serif" font-size="14.00">[7d..83)</text>
<text text-anchor="middle" x="517.65" y="-184.05" font-family="Times New Roman,serif" font-size="14.00">Count: 12</text>
<text text-anchor="middle" x="517.65" y="-169.05" font-family="Times New Roman,serif" font-size="14.00">Normalized count: Infinity</text>
<text text-anchor="middle" x="517.65" y="-154.05" font-family="Times New Roman,serif" font-size="14.00">Samples weight: 0.05</text>
</g>
<!-- BB5&#45;&gt;BB8 -->
<g id="edge8" class="edge">
<title>BB5&#45;&gt;BB8</title>
<path fill="none" stroke="black" d="M422.54,-268.43C435.63,-256.44 449.96,-243.3 463.43,-230.95"/>
<polygon fill="black" stroke="black" points="465.8,-233.52 470.81,-224.19 461.07,-228.36 465.8,-233.52"/>
</g>
<!-- BB7 -->
<g id="node8" class="node">
<title>BB7</title>
<ellipse fill="none" stroke="black" cx="394.65" cy="-48.08" rx="113.69" ry="48.17"/>
<text text-anchor="middle" x="394.65" y="-66.88" font-family="Times New Roman,serif" font-size="14.00">[7a..7d)</text>
<text text-anchor="middle" x="394.65" y="-51.88" font-family="Times New Roman,serif" font-size="14.00">Count: 8</text>
<text text-anchor="middle" x="394.65" y="-36.88" font-family="Times New Roman,serif" font-size="14.00">Normalized count: Infinity</text>
<text text-anchor="middle" x="394.65" y="-21.88" font-family="Times New Roman,serif" font-size="14.00">Samples weight: 0.04</text>
</g>
<!-- BB6&#45;&gt;BB7 -->
<g id="edge11" class="edge">
<title>BB6&#45;&gt;BB7</title>
<path fill="none" stroke="black" d="M313.29,-135.18C323.81,-124.05 335.2,-112 346.03,-100.54"/>
<polygon fill="black" stroke="black" points="348.73,-102.78 353.05,-93.11 343.64,-97.97 348.73,-102.78"/>
</g>
<!-- BB6&#45;&gt;BB8 -->
<g id="edge10" class="edge">
<title>BB6&#45;&gt;BB8</title>
<path fill="none" stroke="black" d="M385.52,-180.25C388.16,-180.25 390.79,-180.25 393.43,-180.25"/>
<polygon fill="black" stroke="black" points="393.59,-183.75 403.59,-180.25 393.59,-176.75 393.59,-183.75"/>
</g>
<!-- BB7&#45;&gt;BB8 -->
<g id="edge12" class="edge">
<title>BB7&#45;&gt;BB8</title>
<path fill="none" stroke="black" d="M436.25,-93.11C446.77,-104.24 458.16,-116.29 468.99,-127.75"/>
<polygon fill="black" stroke="black" points="466.6,-130.32 476.01,-135.18 471.69,-125.51 466.6,-130.32"/>
</g>
<!-- BB8&#45;&gt;BB9 -->
<g id="edge13" class="edge">
<title>BB8&#45;&gt;BB9</title>
<path fill="none" stroke="black" d="M518.39,-228.55C517.62,-265.44 513.51,-317.46 498.65,-360.5 495.24,-370.37 490.48,-380.29 485.21,-389.66"/>
<polygon fill="black" stroke="black" points="482.08,-388.06 480.02,-398.45 488.12,-391.62 482.08,-388.06"/>
</g>
<!-- BB9&#45;&gt;BB5 -->
<g id="edge14" class="edge">
<title>BB9&#45;&gt;BB5</title>
<path fill="none" stroke="black" d="M421.42,-397.32C416.35,-388.02 410.96,-378.16 405.74,-368.58"/>
<polygon fill="black" stroke="black" points="408.66,-366.63 400.8,-359.53 402.52,-369.98 408.66,-366.63"/>
</g>
<!-- BB9&#45;&gt;BB10 -->
<g id="edge15" class="edge">
<title>BB9&#45;&gt;BB10</title>
<path fill="none" stroke="black" d="M457.52,-492.84C459.87,-504.5 462.11,-516.99 463.65,-528.67 475.31,-616.92 479.83,-720.21 481.57,-782.85"/>
<polygon fill="black" stroke="black" points="478.08,-783.03 481.84,-792.93 485.07,-782.84 478.08,-783.03"/>
</g>
<!-- BB10&#45;&gt;BB1 -->
<g id="edge16" class="edge">
<title>BB10&#45;&gt;BB1</title>
<path fill="none" stroke="black" d="M436.55,-797.82C423.16,-785.54 408.41,-772.03 394.58,-759.35"/>
<polygon fill="black" stroke="black" points="396.75,-756.59 387.01,-752.41 392.02,-761.75 396.75,-756.59"/>
</g>
<!-- BB11 -->
<g id="node12" class="node">
<title>BB11</title>
<ellipse fill="none" stroke="black" cx="615.65" cy="-708.92" rx="104.8" ry="48.17"/>
<text text-anchor="middle" x="615.65" y="-727.72" font-family="Times New Roman,serif" font-size="14.00">[97..ae)</text>
<text text-anchor="middle" x="615.65" y="-712.72" font-family="Times New Roman,serif" font-size="14.00">Count: 0</text>
<text text-anchor="middle" x="615.65" y="-697.72" font-family="Times New Roman,serif" font-size="14.00">Normalized count: NaN</text>
<text text-anchor="middle" x="615.65" y="-682.72" font-family="Times New Roman,serif" font-size="14.00">Samples weight: 0.00</text>
</g>
<!-- BB10&#45;&gt;BB11 -->
<g id="edge17" class="edge">
<title>BB10&#45;&gt;BB11</title>
<path fill="none" stroke="black" d="M526.57,-797.1C538.71,-785.21 552,-772.21 564.51,-759.96"/>
<polygon fill="black" stroke="black" points="567.08,-762.35 571.78,-752.85 562.19,-757.35 567.08,-762.35"/>
</g>
</g>
</svg>
