<?xml version="1.0" encoding="UTF-8" standalone="no"?>
<!DOCTYPE svg PUBLIC "-//W3C//DTD SVG 1.1//EN"
 "http://www.w3.org/Graphics/SVG/1.1/DTD/svg11.dtd">
<!-- Generated by graphviz version 2.47.0 (20210316.0004)
 -->
<!-- Title: G Pages: 1 -->
<svg width="840pt" height="765pt"
 viewBox="0.00 0.00 840.42 765.00" xmlns="http://www.w3.org/2000/svg" xmlns:xlink="http://www.w3.org/1999/xlink">
<g id="graph0" class="graph" transform="scale(1 1) rotate(0) translate(4 761)">
<title>G</title>
<polygon fill="white" stroke="transparent" points="-4,4 -4,-761 836.42,-761 836.42,4 -4,4"/>
<!-- BB0 -->
<g id="node1" class="node">
<title>BB0</title>
<ellipse fill="none" stroke="black" cx="451.19" cy="-708.92" rx="103.48" ry="48.17"/>
<text text-anchor="middle" x="451.19" y="-727.72" font-family="Times New Roman,serif" font-size="14.00">[0..18)</text>
<text text-anchor="middle" x="451.19" y="-712.72" font-family="Times New Roman,serif" font-size="14.00">Count: 723168</text>
<text text-anchor="middle" x="451.19" y="-697.72" font-family="Times New Roman,serif" font-size="14.00">Normalized count: 1.00</text>
<text text-anchor="middle" x="451.19" y="-682.72" font-family="Times New Roman,serif" font-size="14.00">Samples weight: 0.00</text>
</g>
<!-- BB4 -->
<g id="node5" class="node">
<title>BB4</title>
<ellipse fill="none" stroke="black" cx="451.19" cy="-576.75" rx="108.38" ry="48.17"/>
<text text-anchor="middle" x="451.19" y="-595.55" font-family="Times New Roman,serif" font-size="14.00">[26..2e)</text>
<text text-anchor="middle" x="451.19" y="-580.55" font-family="Times New Roman,serif" font-size="14.00">Count: 65808288</text>
<text text-anchor="middle" x="451.19" y="-565.55" font-family="Times New Roman,serif" font-size="14.00">Normalized count: 91.00</text>
<text text-anchor="middle" x="451.19" y="-550.55" font-family="Times New Roman,serif" font-size="14.00">Samples weight: 0.28</text>
</g>
<!-- BB0&#45;&gt;BB4 -->
<g id="edge1" class="edge">
<title>BB0&#45;&gt;BB4</title>
<path fill="none" stroke="black" d="M451.19,-660.55C451.19,-652.29 451.19,-643.6 451.19,-635.1"/>
<polygon fill="black" stroke="black" points="454.69,-634.86 451.19,-624.86 447.69,-634.86 454.69,-634.86"/>
</g>
<!-- BB1 -->
<g id="node2" class="node">
<title>BB1</title>
<ellipse fill="none" stroke="black" cx="337.19" cy="-444.58" rx="108.38" ry="48.17"/>
<text text-anchor="middle" x="337.19" y="-463.38" font-family="Times New Roman,serif" font-size="14.00">[18..1d)</text>
<text text-anchor="middle" x="337.19" y="-448.38" font-family="Times New Roman,serif" font-size="14.00">Count: 64361952</text>
<text text-anchor="middle" x="337.19" y="-433.38" font-family="Times New Roman,serif" font-size="14.00">Normalized count: 89.00</text>
<text text-anchor="middle" x="337.19" y="-418.38" font-family="Times New Roman,serif" font-size="14.00">Samples weight: 0.27</text>
</g>
<!-- BB2 -->
<g id="node3" class="node">
<title>BB2</title>
<ellipse fill="none" stroke="black" cx="337.19" cy="-312.42" rx="103.48" ry="48.17"/>
<text text-anchor="middle" x="337.19" y="-331.22" font-family="Times New Roman,serif" font-size="14.00">[1d..22)</text>
<text text-anchor="middle" x="337.19" y="-316.22" font-family="Times New Roman,serif" font-size="14.00">Count: 0</text>
<text text-anchor="middle" x="337.19" y="-301.22" font-family="Times New Roman,serif" font-size="14.00">Normalized count: 0.00</text>
<text text-anchor="middle" x="337.19" y="-286.22" font-family="Times New Roman,serif" font-size="14.00">Samples weight: 0.00</text>
</g>
<!-- BB1&#45;&gt;BB2 -->
<g id="edge3" class="edge">
<title>BB1&#45;&gt;BB2</title>
<path fill="none" stroke="black" d="M337.19,-396.22C337.19,-387.95 337.19,-379.27 337.19,-370.77"/>
<polygon fill="black" stroke="black" points="340.69,-370.52 337.19,-360.52 333.69,-370.52 340.69,-370.52"/>
</g>
<!-- BB3 -->
<g id="node4" class="node">
<title>BB3</title>
<ellipse fill="none" stroke="black" cx="108.19" cy="-312.42" rx="108.38" ry="48.17"/>
<text text-anchor="middle" x="108.19" y="-331.22" font-family="Times New Roman,serif" font-size="14.00">[22..26)</text>
<text text-anchor="middle" x="108.19" y="-316.22" font-family="Times New Roman,serif" font-size="14.00">Count: 64361952</text>
<text text-anchor="middle" x="108.19" y="-301.22" font-family="Times New Roman,serif" font-size="14.00">Normalized count: 89.00</text>
<text text-anchor="middle" x="108.19" y="-286.22" font-family="Times New Roman,serif" font-size="14.00">Samples weight: 0.27</text>
</g>
<!-- BB1&#45;&gt;BB3 -->
<g id="edge2" class="edge">
<title>BB1&#45;&gt;BB3</title>
<path fill="none" stroke="black" d="M271.57,-406.28C243.78,-390.49 211.26,-372 182.59,-355.71"/>
<polygon fill="black" stroke="black" points="184.24,-352.62 173.82,-350.72 180.78,-358.71 184.24,-352.62"/>
</g>
<!-- BB11 -->
<g id="node12" class="node">
<title>BB11</title>
<ellipse fill="none" stroke="black" cx="337.19" cy="-180.25" rx="103.48" ry="48.17"/>
<text text-anchor="middle" x="337.19" y="-199.05" font-family="Times New Roman,serif" font-size="14.00">[5d..60)</text>
<text text-anchor="middle" x="337.19" y="-184.05" font-family="Times New Roman,serif" font-size="14.00">Count: 723168</text>
<text text-anchor="middle" x="337.19" y="-169.05" font-family="Times New Roman,serif" font-size="14.00">Normalized count: 1.00</text>
<text text-anchor="middle" x="337.19" y="-154.05" font-family="Times New Roman,serif" font-size="14.00">Samples weight: 0.00</text>
</g>
<!-- BB2&#45;&gt;BB11 -->
<g id="edge4" class="edge">
<title>BB2&#45;&gt;BB11</title>
<path fill="none" stroke="black" d="M337.19,-264.05C337.19,-255.79 337.19,-247.1 337.19,-238.6"/>
<polygon fill="black" stroke="black" points="340.69,-238.36 337.19,-228.36 333.69,-238.36 340.69,-238.36"/>
</g>
<!-- BB3&#45;&gt;BB4 -->
<g id="edge5" class="edge">
<title>BB3&#45;&gt;BB4</title>
<path fill="none" stroke="black" d="M126.77,-360C145.02,-400.27 176.49,-457.42 220.19,-492.67 255.73,-521.34 301.99,-540.56 343.77,-553.23"/>
<polygon fill="black" stroke="black" points="342.86,-556.61 353.44,-556.07 344.84,-549.89 342.86,-556.61"/>
</g>
<!-- BB4&#45;&gt;BB1 -->
<g id="edge6" class="edge">
<title>BB4&#45;&gt;BB1</title>
<path fill="none" stroke="black" d="M412.59,-531.68C402.94,-520.65 392.49,-508.73 382.54,-497.36"/>
<polygon fill="black" stroke="black" points="384.96,-494.82 375.74,-489.61 379.7,-499.43 384.96,-494.82"/>
</g>
<!-- BB5 -->
<g id="node6" class="node">
<title>BB5</title>
<ellipse fill="none" stroke="black" cx="566.19" cy="-444.58" rx="103.48" ry="48.17"/>
<text text-anchor="middle" x="566.19" y="-463.38" font-family="Times New Roman,serif" font-size="14.00">[2e..37)</text>
<text text-anchor="middle" x="566.19" y="-448.38" font-family="Times New Roman,serif" font-size="14.00">Count: 1446336</text>
<text text-anchor="middle" x="566.19" y="-433.38" font-family="Times New Roman,serif" font-size="14.00">Normalized count: 2.00</text>
<text text-anchor="middle" x="566.19" y="-418.38" font-family="Times New Roman,serif" font-size="14.00">Samples weight: 0.01</text>
</g>
<!-- BB4&#45;&gt;BB5 -->
<g id="edge7" class="edge">
<title>BB4&#45;&gt;BB5</title>
<path fill="none" stroke="black" d="M490.12,-531.68C499.86,-520.65 510.4,-508.73 520.44,-497.36"/>
<polygon fill="black" stroke="black" points="523.3,-499.42 527.29,-489.61 518.05,-494.78 523.3,-499.42"/>
</g>
<!-- BB9 -->
<g id="node10" class="node">
<title>BB9</title>
<ellipse fill="none" stroke="black" cx="566.19" cy="-312.42" rx="108.38" ry="48.17"/>
<text text-anchor="middle" x="566.19" y="-331.22" font-family="Times New Roman,serif" font-size="14.00">[50..55)</text>
<text text-anchor="middle" x="566.19" y="-316.22" font-family="Times New Roman,serif" font-size="14.00">Count: 13740192</text>
<text text-anchor="middle" x="566.19" y="-301.22" font-family="Times New Roman,serif" font-size="14.00">Normalized count: 19.00</text>
<text text-anchor="middle" x="566.19" y="-286.22" font-family="Times New Roman,serif" font-size="14.00">Samples weight: 0.06</text>
</g>
<!-- BB5&#45;&gt;BB9 -->
<g id="edge8" class="edge">
<title>BB5&#45;&gt;BB9</title>
<path fill="none" stroke="black" d="M566.19,-396.22C566.19,-387.95 566.19,-379.27 566.19,-370.77"/>
<polygon fill="black" stroke="black" points="569.69,-370.52 566.19,-360.52 562.69,-370.52 569.69,-370.52"/>
</g>
<!-- BB6 -->
<g id="node7" class="node">
<title>BB6</title>
<ellipse fill="none" stroke="black" cx="604.19" cy="-180.25" rx="108.38" ry="48.17"/>
<text text-anchor="middle" x="604.19" y="-199.05" font-family="Times New Roman,serif" font-size="14.00">[37..43)</text>
<text text-anchor="middle" x="604.19" y="-184.05" font-family="Times New Roman,serif" font-size="14.00">Count: 13017024</text>
<text text-anchor="middle" x="604.19" y="-169.05" font-family="Times New Roman,serif" font-size="14.00">Normalized count: 18.00</text>
<text text-anchor="middle" x="604.19" y="-154.05" font-family="Times New Roman,serif" font-size="14.00">Samples weight: 0.05</text>
</g>
<!-- BB7 -->
<g id="node8" class="node">
<title>BB7</title>
<ellipse fill="none" stroke="black" cx="729.19" cy="-48.08" rx="103.48" ry="48.17"/>
<text text-anchor="middle" x="729.19" y="-66.88" font-family="Times New Roman,serif" font-size="14.00">[43..4c)</text>
<text text-anchor="middle" x="729.19" y="-51.88" font-family="Times New Roman,serif" font-size="14.00">Count: 723168</text>
<text text-anchor="middle" x="729.19" y="-36.88" font-family="Times New Roman,serif" font-size="14.00">Normalized count: 1.00</text>
<text text-anchor="middle" x="729.19" y="-21.88" font-family="Times New Roman,serif" font-size="14.00">Samples weight: 0.00</text>
</g>
<!-- BB6&#45;&gt;BB7 -->
<g id="edge10" class="edge">
<title>BB6&#45;&gt;BB7</title>
<path fill="none" stroke="black" d="M646.16,-135.54C657.2,-124.05 669.2,-111.55 680.56,-99.72"/>
<polygon fill="black" stroke="black" points="683.14,-102.09 687.54,-92.45 678.09,-97.24 683.14,-102.09"/>
</g>
<!-- BB8 -->
<g id="node9" class="node">
<title>BB8</title>
<ellipse fill="none" stroke="black" cx="479.19" cy="-48.08" rx="108.38" ry="48.17"/>
<text text-anchor="middle" x="479.19" y="-66.88" font-family="Times New Roman,serif" font-size="14.00">[4c..50)</text>
<text text-anchor="middle" x="479.19" y="-51.88" font-family="Times New Roman,serif" font-size="14.00">Count: 12293856</text>
<text text-anchor="middle" x="479.19" y="-36.88" font-family="Times New Roman,serif" font-size="14.00">Normalized count: 17.00</text>
<text text-anchor="middle" x="479.19" y="-21.88" font-family="Times New Roman,serif" font-size="14.00">Samples weight: 0.05</text>
</g>
<!-- BB6&#45;&gt;BB8 -->
<g id="edge9" class="edge">
<title>BB6&#45;&gt;BB8</title>
<path fill="none" stroke="black" d="M562.22,-135.54C551.39,-124.28 539.65,-112.04 528.49,-100.43"/>
<polygon fill="black" stroke="black" points="530.71,-97.68 521.26,-92.9 525.66,-102.53 530.71,-97.68"/>
</g>
<!-- BB7&#45;&gt;BB4 -->
<g id="edge11" class="edge">
<title>BB7&#45;&gt;BB4</title>
<path fill="none" stroke="black" d="M738.88,-96.19C754.18,-184.78 773.24,-377.64 678.19,-492.67 649.73,-527.11 605.68,-547.27 563.94,-559.08"/>
<polygon fill="black" stroke="black" points="562.98,-555.71 554.23,-561.68 564.8,-562.47 562.98,-555.71"/>
</g>
<!-- BB8&#45;&gt;BB9 -->
<g id="edge12" class="edge">
<title>BB8&#45;&gt;BB9</title>
<path fill="none" stroke="black" d="M472.52,-96.37C469.28,-133.71 469.31,-186.34 487.19,-228.33 492.34,-240.45 500.11,-251.85 508.79,-262.09"/>
<polygon fill="black" stroke="black" points="506.31,-264.57 515.58,-269.7 511.53,-259.91 506.31,-264.57"/>
</g>
<!-- BB9&#45;&gt;BB6 -->
<g id="edge13" class="edge">
<title>BB9&#45;&gt;BB6</title>
<path fill="none" stroke="black" d="M579.91,-264.42C582.41,-255.85 585.04,-246.83 587.62,-238.01"/>
<polygon fill="black" stroke="black" points="591.05,-238.75 590.49,-228.17 584.33,-236.79 591.05,-238.75"/>
</g>
<!-- BB10 -->
<g id="node11" class="node">
<title>BB10</title>
<ellipse fill="none" stroke="black" cx="113.19" cy="-180.25" rx="103.48" ry="48.17"/>
<text text-anchor="middle" x="113.19" y="-199.05" font-family="Times New Roman,serif" font-size="14.00">[55..5d)</text>
<text text-anchor="middle" x="113.19" y="-184.05" font-family="Times New Roman,serif" font-size="14.00">Count: 723168</text>
<text text-anchor="middle" x="113.19" y="-169.05" font-family="Times New Roman,serif" font-size="14.00">Normalized count: 1.00</text>
<text text-anchor="middle" x="113.19" y="-154.05" font-family="Times New Roman,serif" font-size="14.00">Samples weight: 0.00</text>
</g>
<!-- BB9&#45;&gt;BB10 -->
<g id="edge14" class="edge">
<title>BB9&#45;&gt;BB10</title>
<path fill="none" stroke="black" d="M490.25,-278.02C476.75,-272.9 462.69,-268.08 449.19,-264.33 352.03,-237.34 322.13,-256.07 225.19,-228.33 215.28,-225.5 205.07,-222.03 195.03,-218.27"/>
<polygon fill="black" stroke="black" points="196.07,-214.92 185.48,-214.59 193.56,-221.45 196.07,-214.92"/>
</g>
<!-- BB10&#45;&gt;BB11 -->
<g id="edge15" class="edge">
<title>BB10&#45;&gt;BB11</title>
<path fill="none" stroke="black" d="M216.44,-180.25C218.89,-180.25 221.35,-180.25 223.8,-180.25"/>
<polygon fill="black" stroke="black" points="223.89,-183.75 233.89,-180.25 223.89,-176.75 223.89,-183.75"/>
</g>
</g>
</svg>
