<?xml version="1.0" encoding="UTF-8" standalone="no"?>
<!DOCTYPE svg PUBLIC "-//W3C//DTD SVG 1.1//EN"
 "http://www.w3.org/Graphics/SVG/1.1/DTD/svg11.dtd">
<!-- Generated by graphviz version 2.47.0 (20210316.0004)
 -->
<!-- Title: G Pages: 1 -->
<svg width="604pt" height="897pt"
 viewBox="0.00 0.00 604.50 897.17" xmlns="http://www.w3.org/2000/svg" xmlns:xlink="http://www.w3.org/1999/xlink">
<g id="graph0" class="graph" transform="scale(1 1) rotate(0) translate(4 893.17)">
<title>G</title>
<polygon fill="white" stroke="transparent" points="-4,4 -4,-893.17 600.5,-893.17 600.5,4 -4,4"/>
<!-- BB0 -->
<g id="node1" class="node">
<title>BB0</title>
<ellipse fill="none" stroke="black" cx="255.84" cy="-841.08" rx="104.8" ry="48.17"/>
<text text-anchor="middle" x="255.84" y="-859.88" font-family="Times New Roman,serif" font-size="14.00">[0..10)</text>
<text text-anchor="middle" x="255.84" y="-844.88" font-family="Times New Roman,serif" font-size="14.00">Count: 0</text>
<text text-anchor="middle" x="255.84" y="-829.88" font-family="Times New Roman,serif" font-size="14.00">Normalized count: NaN</text>
<text text-anchor="middle" x="255.84" y="-814.88" font-family="Times New Roman,serif" font-size="14.00">Samples weight: 0.00</text>
</g>
<!-- BB7 -->
<g id="node8" class="node">
<title>BB7</title>
<ellipse fill="none" stroke="black" cx="255.84" cy="-708.92" rx="113.69" ry="48.17"/>
<text text-anchor="middle" x="255.84" y="-727.72" font-family="Times New Roman,serif" font-size="14.00">[c7..cf)</text>
<text text-anchor="middle" x="255.84" y="-712.72" font-family="Times New Roman,serif" font-size="14.00">Count: 5</text>
<text text-anchor="middle" x="255.84" y="-697.72" font-family="Times New Roman,serif" font-size="14.00">Normalized count: Infinity</text>
<text text-anchor="middle" x="255.84" y="-682.72" font-family="Times New Roman,serif" font-size="14.00">Samples weight: 0.00</text>
</g>
<!-- BB0&#45;&gt;BB7 -->
<g id="edge1" class="edge">
<title>BB0&#45;&gt;BB7</title>
<path fill="none" stroke="black" d="M255.84,-792.72C255.84,-784.45 255.84,-775.77 255.84,-767.27"/>
<polygon fill="black" stroke="black" points="259.34,-767.02 255.84,-757.02 252.34,-767.02 259.34,-767.02"/>
</g>
<!-- BB1 -->
<g id="node2" class="node">
<title>BB1</title>
<ellipse fill="none" stroke="black" cx="255.84" cy="-576.75" rx="113.69" ry="48.17"/>
<text text-anchor="middle" x="255.84" y="-595.55" font-family="Times New Roman,serif" font-size="14.00">[10..1f)</text>
<text text-anchor="middle" x="255.84" y="-580.55" font-family="Times New Roman,serif" font-size="14.00">Count: 6</text>
<text text-anchor="middle" x="255.84" y="-565.55" font-family="Times New Roman,serif" font-size="14.00">Normalized count: Infinity</text>
<text text-anchor="middle" x="255.84" y="-550.55" font-family="Times New Roman,serif" font-size="14.00">Samples weight: 0.00</text>
</g>
<!-- BB5 -->
<g id="node6" class="node">
<title>BB5</title>
<ellipse fill="none" stroke="black" cx="255.84" cy="-444.58" rx="113.69" ry="48.17"/>
<text text-anchor="middle" x="255.84" y="-463.38" font-family="Times New Roman,serif" font-size="14.00">[b2..c1)</text>
<text text-anchor="middle" x="255.84" y="-448.38" font-family="Times New Roman,serif" font-size="14.00">Count: 2702</text>
<text text-anchor="middle" x="255.84" y="-433.38" font-family="Times New Roman,serif" font-size="14.00">Normalized count: Infinity</text>
<text text-anchor="middle" x="255.84" y="-418.38" font-family="Times New Roman,serif" font-size="14.00">Samples weight: 0.04</text>
</g>
<!-- BB1&#45;&gt;BB5 -->
<g id="edge2" class="edge">
<title>BB1&#45;&gt;BB5</title>
<path fill="none" stroke="black" d="M255.84,-528.39C255.84,-520.12 255.84,-511.44 255.84,-502.93"/>
<polygon fill="black" stroke="black" points="259.34,-502.69 255.84,-492.69 252.34,-502.69 259.34,-502.69"/>
</g>
<!-- BB2 -->
<g id="node3" class="node">
<title>BB2</title>
<ellipse fill="none" stroke="black" cx="397.84" cy="-312.42" rx="113.69" ry="48.17"/>
<text text-anchor="middle" x="397.84" y="-331.22" font-family="Times New Roman,serif" font-size="14.00">[1f..40)</text>
<text text-anchor="middle" x="397.84" y="-316.22" font-family="Times New Roman,serif" font-size="14.00">Count: 2500</text>
<text text-anchor="middle" x="397.84" y="-301.22" font-family="Times New Roman,serif" font-size="14.00">Normalized count: Infinity</text>
<text text-anchor="middle" x="397.84" y="-286.22" font-family="Times New Roman,serif" font-size="14.00">Samples weight: 0.03</text>
</g>
<!-- BB3 -->
<g id="node4" class="node">
<title>BB3</title>
<ellipse fill="none" stroke="black" cx="397.84" cy="-180.25" rx="113.69" ry="48.17"/>
<text text-anchor="middle" x="397.84" y="-199.05" font-family="Times New Roman,serif" font-size="14.00">[40..a1)</text>
<text text-anchor="middle" x="397.84" y="-184.05" font-family="Times New Roman,serif" font-size="14.00">Count: 65325</text>
<text text-anchor="middle" x="397.84" y="-169.05" font-family="Times New Roman,serif" font-size="14.00">Normalized count: Infinity</text>
<text text-anchor="middle" x="397.84" y="-154.05" font-family="Times New Roman,serif" font-size="14.00">Samples weight: 0.89</text>
</g>
<!-- BB2&#45;&gt;BB3 -->
<g id="edge3" class="edge">
<title>BB2&#45;&gt;BB3</title>
<path fill="none" stroke="black" d="M397.84,-264.05C397.84,-255.79 397.84,-247.1 397.84,-238.6"/>
<polygon fill="black" stroke="black" points="401.34,-238.36 397.84,-228.36 394.34,-238.36 401.34,-238.36"/>
</g>
<!-- BB3&#45;&gt;BB3 -->
<g id="edge4" class="edge">
<title>BB3&#45;&gt;BB3</title>
<path fill="none" stroke="black" d="M497.03,-203.86C516.14,-201.07 529.69,-193.2 529.69,-180.25 529.69,-169.72 520.75,-162.56 507.14,-158.74"/>
<polygon fill="black" stroke="black" points="507.53,-155.25 497.03,-156.64 506.1,-162.1 507.53,-155.25"/>
</g>
<!-- BB4 -->
<g id="node5" class="node">
<title>BB4</title>
<ellipse fill="none" stroke="black" cx="326.84" cy="-48.08" rx="113.69" ry="48.17"/>
<text text-anchor="middle" x="326.84" y="-66.88" font-family="Times New Roman,serif" font-size="14.00">[a1..b2)</text>
<text text-anchor="middle" x="326.84" y="-51.88" font-family="Times New Roman,serif" font-size="14.00">Count: 2694</text>
<text text-anchor="middle" x="326.84" y="-36.88" font-family="Times New Roman,serif" font-size="14.00">Normalized count: Infinity</text>
<text text-anchor="middle" x="326.84" y="-21.88" font-family="Times New Roman,serif" font-size="14.00">Samples weight: 0.04</text>
</g>
<!-- BB3&#45;&gt;BB4 -->
<g id="edge5" class="edge">
<title>BB3&#45;&gt;BB4</title>
<path fill="none" stroke="black" d="M372.61,-132.99C367.54,-123.69 362.16,-113.82 356.94,-104.25"/>
<polygon fill="black" stroke="black" points="359.86,-102.3 351.99,-95.19 353.71,-105.65 359.86,-102.3"/>
</g>
<!-- BB4&#45;&gt;BB5 -->
<g id="edge6" class="edge">
<title>BB4&#45;&gt;BB5</title>
<path fill="none" stroke="black" d="M293.06,-94.08C285.8,-105.9 279.05,-119.04 274.84,-132.17 247.52,-217.43 247.56,-322.42 251.02,-386.12"/>
<polygon fill="black" stroke="black" points="247.54,-386.58 251.63,-396.36 254.53,-386.17 247.54,-386.58"/>
</g>
<!-- BB5&#45;&gt;BB2 -->
<g id="edge7" class="edge">
<title>BB5&#45;&gt;BB2</title>
<path fill="none" stroke="black" d="M302.73,-400.6C315.82,-388.6 330.15,-375.47 343.62,-363.12"/>
<polygon fill="black" stroke="black" points="346,-365.69 351,-356.35 341.27,-360.53 346,-365.69"/>
</g>
<!-- BB6 -->
<g id="node7" class="node">
<title>BB6</title>
<ellipse fill="none" stroke="black" cx="113.84" cy="-312.42" rx="113.69" ry="48.17"/>
<text text-anchor="middle" x="113.84" y="-331.22" font-family="Times New Roman,serif" font-size="14.00">[c1..c7)</text>
<text text-anchor="middle" x="113.84" y="-316.22" font-family="Times New Roman,serif" font-size="14.00">Count: 5</text>
<text text-anchor="middle" x="113.84" y="-301.22" font-family="Times New Roman,serif" font-size="14.00">Normalized count: Infinity</text>
<text text-anchor="middle" x="113.84" y="-286.22" font-family="Times New Roman,serif" font-size="14.00">Samples weight: 0.00</text>
</g>
<!-- BB5&#45;&gt;BB6 -->
<g id="edge8" class="edge">
<title>BB5&#45;&gt;BB6</title>
<path fill="none" stroke="black" d="M208.95,-400.6C195.87,-388.6 181.54,-375.47 168.07,-363.12"/>
<polygon fill="black" stroke="black" points="170.42,-360.53 160.68,-356.35 165.69,-365.69 170.42,-360.53"/>
</g>
<!-- BB6&#45;&gt;BB7 -->
<g id="edge9" class="edge">
<title>BB6&#45;&gt;BB7</title>
<path fill="none" stroke="black" d="M104.53,-360.57C94.39,-424.91 85.37,-541.69 132.84,-624.83 142.37,-641.51 156.76,-655.51 172.39,-666.99"/>
<polygon fill="black" stroke="black" points="170.46,-669.91 180.66,-672.77 174.47,-664.17 170.46,-669.91"/>
</g>
<!-- BB7&#45;&gt;BB1 -->
<g id="edge10" class="edge">
<title>BB7&#45;&gt;BB1</title>
<path fill="none" stroke="black" d="M255.84,-660.55C255.84,-652.29 255.84,-643.6 255.84,-635.1"/>
<polygon fill="black" stroke="black" points="259.34,-634.86 255.84,-624.86 252.34,-634.86 259.34,-634.86"/>
</g>
<!-- BB8 -->
<g id="node9" class="node">
<title>BB8</title>
<ellipse fill="none" stroke="black" cx="491.84" cy="-576.75" rx="104.8" ry="48.17"/>
<text text-anchor="middle" x="491.84" y="-595.55" font-family="Times New Roman,serif" font-size="14.00">[cf..d7)</text>
<text text-anchor="middle" x="491.84" y="-580.55" font-family="Times New Roman,serif" font-size="14.00">Count: 0</text>
<text text-anchor="middle" x="491.84" y="-565.55" font-family="Times New Roman,serif" font-size="14.00">Normalized count: NaN</text>
<text text-anchor="middle" x="491.84" y="-550.55" font-family="Times New Roman,serif" font-size="14.00">Samples weight: 0.00</text>
</g>
<!-- BB7&#45;&gt;BB8 -->
<g id="edge11" class="edge">
<title>BB7&#45;&gt;BB8</title>
<path fill="none" stroke="black" d="M324.11,-670.27C353.1,-654.28 386.99,-635.58 416.7,-619.2"/>
<polygon fill="black" stroke="black" points="418.7,-622.09 425.77,-614.19 415.32,-615.96 418.7,-622.09"/>
</g>
</g>
</svg>
