<?xml version="1.0" encoding="UTF-8" standalone="no"?>
<!DOCTYPE svg PUBLIC "-//W3C//DTD SVG 1.1//EN"
 "http://www.w3.org/Graphics/SVG/1.1/DTD/svg11.dtd">
<!-- Generated by graphviz version 2.47.0 (20210316.0004)
 -->
<!-- Title: G Pages: 1 -->
<svg width="712pt" height="1029pt"
 viewBox="0.00 0.00 712.17 1029.33" xmlns="http://www.w3.org/2000/svg" xmlns:xlink="http://www.w3.org/1999/xlink">
<g id="graph0" class="graph" transform="scale(1 1) rotate(0) translate(4 1025.33)">
<title>G</title>
<polygon fill="white" stroke="transparent" points="-4,4 -4,-1025.33 708.17,-1025.33 708.17,4 -4,4"/>
<!-- BB0 -->
<g id="node1" class="node">
<title>BB0</title>
<ellipse fill="none" stroke="black" cx="318.09" cy="-973.25" rx="103.48" ry="48.17"/>
<text text-anchor="middle" x="318.09" y="-992.05" font-family="Times New Roman,serif" font-size="14.00">[0..69)</text>
<text text-anchor="middle" x="318.09" y="-977.05" font-family="Times New Roman,serif" font-size="14.00">Count: 2</text>
<text text-anchor="middle" x="318.09" y="-962.05" font-family="Times New Roman,serif" font-size="14.00">Normalized count: 1.00</text>
<text text-anchor="middle" x="318.09" y="-947.05" font-family="Times New Roman,serif" font-size="14.00">Samples weight: 0.00</text>
</g>
<!-- BB10 -->
<g id="node11" class="node">
<title>BB10</title>
<ellipse fill="none" stroke="black" cx="318.09" cy="-841.08" rx="118.17" ry="48.17"/>
<text text-anchor="middle" x="318.09" y="-859.88" font-family="Times New Roman,serif" font-size="14.00">[11a..126)</text>
<text text-anchor="middle" x="318.09" y="-844.88" font-family="Times New Roman,serif" font-size="14.00">Count: 10791</text>
<text text-anchor="middle" x="318.09" y="-829.88" font-family="Times New Roman,serif" font-size="14.00">Normalized count: 5395.50</text>
<text text-anchor="middle" x="318.09" y="-814.88" font-family="Times New Roman,serif" font-size="14.00">Samples weight: 0.13</text>
</g>
<!-- BB0&#45;&gt;BB10 -->
<g id="edge1" class="edge">
<title>BB0&#45;&gt;BB10</title>
<path fill="none" stroke="black" d="M318.09,-924.89C318.09,-916.62 318.09,-907.94 318.09,-899.43"/>
<polygon fill="black" stroke="black" points="321.59,-899.19 318.09,-889.19 314.59,-899.19 321.59,-899.19"/>
</g>
<!-- BB1 -->
<g id="node2" class="node">
<title>BB1</title>
<ellipse fill="none" stroke="black" cx="318.09" cy="-708.92" rx="118.17" ry="48.17"/>
<text text-anchor="middle" x="318.09" y="-727.72" font-family="Times New Roman,serif" font-size="14.00">[69..a1)</text>
<text text-anchor="middle" x="318.09" y="-712.72" font-family="Times New Roman,serif" font-size="14.00">Count: 10789</text>
<text text-anchor="middle" x="318.09" y="-697.72" font-family="Times New Roman,serif" font-size="14.00">Normalized count: 5394.50</text>
<text text-anchor="middle" x="318.09" y="-682.72" font-family="Times New Roman,serif" font-size="14.00">Samples weight: 0.13</text>
</g>
<!-- BB3 -->
<g id="node4" class="node">
<title>BB3</title>
<ellipse fill="none" stroke="black" cx="459.09" cy="-576.75" rx="118.17" ry="48.17"/>
<text text-anchor="middle" x="459.09" y="-595.55" font-family="Times New Roman,serif" font-size="14.00">[b4..b8)</text>
<text text-anchor="middle" x="459.09" y="-580.55" font-family="Times New Roman,serif" font-size="14.00">Count: 15368</text>
<text text-anchor="middle" x="459.09" y="-565.55" font-family="Times New Roman,serif" font-size="14.00">Normalized count: 7684.00</text>
<text text-anchor="middle" x="459.09" y="-550.55" font-family="Times New Roman,serif" font-size="14.00">Samples weight: 0.18</text>
</g>
<!-- BB1&#45;&gt;BB3 -->
<g id="edge2" class="edge">
<title>BB1&#45;&gt;BB3</title>
<path fill="none" stroke="black" d="M365.04,-664.57C377.63,-652.95 391.35,-640.28 404.32,-628.31"/>
<polygon fill="black" stroke="black" points="406.89,-630.7 411.86,-621.35 402.14,-625.56 406.89,-630.7"/>
</g>
<!-- BB2 -->
<g id="node3" class="node">
<title>BB2</title>
<ellipse fill="none" stroke="black" cx="586.09" cy="-444.58" rx="118.17" ry="48.17"/>
<text text-anchor="middle" x="586.09" y="-463.38" font-family="Times New Roman,serif" font-size="14.00">[a1..b4)</text>
<text text-anchor="middle" x="586.09" y="-448.38" font-family="Times New Roman,serif" font-size="14.00">Count: 4579</text>
<text text-anchor="middle" x="586.09" y="-433.38" font-family="Times New Roman,serif" font-size="14.00">Normalized count: 2289.50</text>
<text text-anchor="middle" x="586.09" y="-418.38" font-family="Times New Roman,serif" font-size="14.00">Samples weight: 0.05</text>
</g>
<!-- BB2&#45;&gt;BB3 -->
<g id="edge3" class="edge">
<title>BB2&#45;&gt;BB3</title>
<path fill="none" stroke="black" d="M548.9,-490.3C538.14,-501.69 526.18,-513.99 514.58,-525.63"/>
<polygon fill="black" stroke="black" points="512.03,-523.23 507.41,-532.77 516.97,-528.19 512.03,-523.23"/>
</g>
<!-- BB3&#45;&gt;BB2 -->
<g id="edge4" class="edge">
<title>BB3&#45;&gt;BB2</title>
<path fill="none" stroke="black" d="M496.34,-530.95C507.05,-519.63 518.94,-507.39 530.49,-495.81"/>
<polygon fill="black" stroke="black" points="533.01,-498.24 537.62,-488.7 528.07,-493.28 533.01,-498.24"/>
</g>
<!-- BB4 -->
<g id="node5" class="node">
<title>BB4</title>
<ellipse fill="none" stroke="black" cx="332.09" cy="-444.58" rx="118.17" ry="48.17"/>
<text text-anchor="middle" x="332.09" y="-463.38" font-family="Times New Roman,serif" font-size="14.00">[b8..d9)</text>
<text text-anchor="middle" x="332.09" y="-448.38" font-family="Times New Roman,serif" font-size="14.00">Count: 10789</text>
<text text-anchor="middle" x="332.09" y="-433.38" font-family="Times New Roman,serif" font-size="14.00">Normalized count: 5394.50</text>
<text text-anchor="middle" x="332.09" y="-418.38" font-family="Times New Roman,serif" font-size="14.00">Samples weight: 0.13</text>
</g>
<!-- BB3&#45;&gt;BB4 -->
<g id="edge5" class="edge">
<title>BB3&#45;&gt;BB4</title>
<path fill="none" stroke="black" d="M416.09,-531.68C405.23,-520.55 393.47,-508.5 382.29,-497.04"/>
<polygon fill="black" stroke="black" points="384.53,-494.32 375.04,-489.61 379.52,-499.21 384.53,-494.32"/>
</g>
<!-- BB8 -->
<g id="node9" class="node">
<title>BB8</title>
<ellipse fill="none" stroke="black" cx="345.09" cy="-312.42" rx="118.17" ry="48.17"/>
<text text-anchor="middle" x="345.09" y="-331.22" font-family="Times New Roman,serif" font-size="14.00">[f4..fd)</text>
<text text-anchor="middle" x="345.09" y="-316.22" font-family="Times New Roman,serif" font-size="14.00">Count: 14773</text>
<text text-anchor="middle" x="345.09" y="-301.22" font-family="Times New Roman,serif" font-size="14.00">Normalized count: 7386.50</text>
<text text-anchor="middle" x="345.09" y="-286.22" font-family="Times New Roman,serif" font-size="14.00">Samples weight: 0.17</text>
</g>
<!-- BB4&#45;&gt;BB8 -->
<g id="edge6" class="edge">
<title>BB4&#45;&gt;BB8</title>
<path fill="none" stroke="black" d="M336.82,-396.22C337.65,-387.86 338.53,-379.08 339.39,-370.49"/>
<polygon fill="black" stroke="black" points="342.87,-370.82 340.38,-360.52 335.91,-370.13 342.87,-370.82"/>
</g>
<!-- BB5 -->
<g id="node6" class="node">
<title>BB5</title>
<ellipse fill="none" stroke="black" cx="372.09" cy="-180.25" rx="118.17" ry="48.17"/>
<text text-anchor="middle" x="372.09" y="-199.05" font-family="Times New Roman,serif" font-size="14.00">[d9..e5)</text>
<text text-anchor="middle" x="372.09" y="-184.05" font-family="Times New Roman,serif" font-size="14.00">Count: 3984</text>
<text text-anchor="middle" x="372.09" y="-169.05" font-family="Times New Roman,serif" font-size="14.00">Normalized count: 1992.00</text>
<text text-anchor="middle" x="372.09" y="-154.05" font-family="Times New Roman,serif" font-size="14.00">Samples weight: 0.05</text>
</g>
<!-- BB6 -->
<g id="node7" class="node">
<title>BB6</title>
<ellipse fill="none" stroke="black" cx="279.09" cy="-48.08" rx="103.48" ry="48.17"/>
<text text-anchor="middle" x="279.09" y="-66.88" font-family="Times New Roman,serif" font-size="14.00">[e5..ed)</text>
<text text-anchor="middle" x="279.09" y="-51.88" font-family="Times New Roman,serif" font-size="14.00">Count: 0</text>
<text text-anchor="middle" x="279.09" y="-36.88" font-family="Times New Roman,serif" font-size="14.00">Normalized count: 0.00</text>
<text text-anchor="middle" x="279.09" y="-21.88" font-family="Times New Roman,serif" font-size="14.00">Samples weight: 0.00</text>
</g>
<!-- BB5&#45;&gt;BB6 -->
<g id="edge8" class="edge">
<title>BB5&#45;&gt;BB6</title>
<path fill="none" stroke="black" d="M339.56,-133.72C332.29,-123.54 324.51,-112.66 317.04,-102.2"/>
<polygon fill="black" stroke="black" points="319.79,-100.03 311.12,-93.92 314.09,-104.1 319.79,-100.03"/>
</g>
<!-- BB7 -->
<g id="node8" class="node">
<title>BB7</title>
<ellipse fill="none" stroke="black" cx="518.09" cy="-48.08" rx="118.17" ry="48.17"/>
<text text-anchor="middle" x="518.09" y="-66.88" font-family="Times New Roman,serif" font-size="14.00">[ed..f4)</text>
<text text-anchor="middle" x="518.09" y="-51.88" font-family="Times New Roman,serif" font-size="14.00">Count: 3984</text>
<text text-anchor="middle" x="518.09" y="-36.88" font-family="Times New Roman,serif" font-size="14.00">Normalized count: 1992.00</text>
<text text-anchor="middle" x="518.09" y="-21.88" font-family="Times New Roman,serif" font-size="14.00">Samples weight: 0.05</text>
</g>
<!-- BB5&#45;&gt;BB7 -->
<g id="edge7" class="edge">
<title>BB5&#45;&gt;BB7</title>
<path fill="none" stroke="black" d="M420.3,-136.27C433.75,-124.27 448.48,-111.14 462.34,-98.79"/>
<polygon fill="black" stroke="black" points="464.79,-101.29 469.93,-92.02 460.13,-96.06 464.79,-101.29"/>
</g>
<!-- BB6&#45;&gt;BB7 -->
<g id="edge9" class="edge">
<title>BB6&#45;&gt;BB7</title>
<path fill="none" stroke="black" d="M382.72,-48.08C385.04,-48.08 387.37,-48.08 389.7,-48.08"/>
<polygon fill="black" stroke="black" points="389.9,-51.58 399.9,-48.08 389.9,-44.58 389.9,-51.58"/>
</g>
<!-- BB7&#45;&gt;BB8 -->
<g id="edge10" class="edge">
<title>BB7&#45;&gt;BB8</title>
<path fill="none" stroke="black" d="M524.49,-96.17C527.25,-134.87 525.15,-189.48 499.09,-228.33 485.48,-248.62 465.22,-264.36 443.84,-276.41"/>
<polygon fill="black" stroke="black" points="442.1,-273.37 434.95,-281.18 445.42,-279.54 442.1,-273.37"/>
</g>
<!-- BB8&#45;&gt;BB5 -->
<g id="edge11" class="edge">
<title>BB8&#45;&gt;BB5</title>
<path fill="none" stroke="black" d="M354.83,-264.42C356.61,-255.85 358.48,-246.83 360.31,-238.01"/>
<polygon fill="black" stroke="black" points="363.75,-238.68 362.35,-228.17 356.9,-237.25 363.75,-238.68"/>
</g>
<!-- BB9 -->
<g id="node10" class="node">
<title>BB9</title>
<ellipse fill="none" stroke="black" cx="118.09" cy="-180.25" rx="118.17" ry="48.17"/>
<text text-anchor="middle" x="118.09" y="-199.05" font-family="Times New Roman,serif" font-size="14.00">[fd..11a)</text>
<text text-anchor="middle" x="118.09" y="-184.05" font-family="Times New Roman,serif" font-size="14.00">Count: 10789</text>
<text text-anchor="middle" x="118.09" y="-169.05" font-family="Times New Roman,serif" font-size="14.00">Normalized count: 5394.50</text>
<text text-anchor="middle" x="118.09" y="-154.05" font-family="Times New Roman,serif" font-size="14.00">Samples weight: 0.13</text>
</g>
<!-- BB8&#45;&gt;BB9 -->
<g id="edge12" class="edge">
<title>BB8&#45;&gt;BB9</title>
<path fill="none" stroke="black" d="M277.59,-272.71C251.41,-257.7 221.29,-240.43 194.33,-224.97"/>
<polygon fill="black" stroke="black" points="195.74,-221.74 185.32,-219.8 192.25,-227.81 195.74,-221.74"/>
</g>
<!-- BB9&#45;&gt;BB10 -->
<g id="edge13" class="edge">
<title>BB9&#45;&gt;BB10</title>
<path fill="none" stroke="black" d="M133.71,-228.04C149.65,-280.06 172.09,-366.86 172.09,-443.58 172.09,-577.75 172.09,-577.75 172.09,-577.75 172.09,-657.86 149.31,-688.64 191.09,-757 201.21,-773.56 216.02,-787.47 231.98,-798.88"/>
<polygon fill="black" stroke="black" points="230.18,-801.89 240.42,-804.62 234.12,-796.1 230.18,-801.89"/>
</g>
<!-- BB10&#45;&gt;BB1 -->
<g id="edge14" class="edge">
<title>BB10&#45;&gt;BB1</title>
<path fill="none" stroke="black" d="M318.09,-792.72C318.09,-784.45 318.09,-775.77 318.09,-767.27"/>
<polygon fill="black" stroke="black" points="321.59,-767.02 318.09,-757.02 314.59,-767.02 321.59,-767.02"/>
</g>
<!-- BB11 -->
<g id="node12" class="node">
<title>BB11</title>
<ellipse fill="none" stroke="black" cx="557.09" cy="-708.92" rx="103.48" ry="48.17"/>
<text text-anchor="middle" x="557.09" y="-727.72" font-family="Times New Roman,serif" font-size="14.00">[126..127)</text>
<text text-anchor="middle" x="557.09" y="-712.72" font-family="Times New Roman,serif" font-size="14.00">Count: 2</text>
<text text-anchor="middle" x="557.09" y="-697.72" font-family="Times New Roman,serif" font-size="14.00">Normalized count: 1.00</text>
<text text-anchor="middle" x="557.09" y="-682.72" font-family="Times New Roman,serif" font-size="14.00">Samples weight: 0.00</text>
</g>
<!-- BB10&#45;&gt;BB11 -->
<g id="edge15" class="edge">
<title>BB10&#45;&gt;BB11</title>
<path fill="none" stroke="black" d="M387.86,-802.08C417.45,-785.96 452,-767.15 482.14,-750.74"/>
<polygon fill="black" stroke="black" points="483.82,-753.81 490.92,-745.95 480.47,-747.66 483.82,-753.81"/>
</g>
</g>
</svg>
