<?xml version="1.0" encoding="UTF-8" standalone="no"?>
<!DOCTYPE svg PUBLIC "-//W3C//DTD SVG 1.1//EN"
 "http://www.w3.org/Graphics/SVG/1.1/DTD/svg11.dtd">
<!-- Generated by graphviz version 2.47.0 (20210316.0004)
 -->
<!-- Title: G Pages: 1 -->
<svg width="638pt" height="765pt"
 viewBox="0.00 0.00 638.42 765.00" xmlns="http://www.w3.org/2000/svg" xmlns:xlink="http://www.w3.org/1999/xlink">
<g id="graph0" class="graph" transform="scale(1 1) rotate(0) translate(4 761)">
<title>G</title>
<polygon fill="white" stroke="transparent" points="-4,4 -4,-761 634.42,-761 634.42,4 -4,4"/>
<!-- BB0 -->
<g id="node1" class="node">
<title>BB0</title>
<ellipse fill="none" stroke="black" cx="298.19" cy="-708.92" rx="103.48" ry="48.17"/>
<text text-anchor="middle" x="298.19" y="-727.72" font-family="Times New Roman,serif" font-size="14.00">[0..a)</text>
<text text-anchor="middle" x="298.19" y="-712.72" font-family="Times New Roman,serif" font-size="14.00">Count: 13</text>
<text text-anchor="middle" x="298.19" y="-697.72" font-family="Times New Roman,serif" font-size="14.00">Normalized count: 1.00</text>
<text text-anchor="middle" x="298.19" y="-682.72" font-family="Times New Roman,serif" font-size="14.00">Samples weight: 0.00</text>
</g>
<!-- BB7 -->
<g id="node8" class="node">
<title>BB7</title>
<ellipse fill="none" stroke="black" cx="298.19" cy="-576.75" rx="108.38" ry="48.17"/>
<text text-anchor="middle" x="298.19" y="-595.55" font-family="Times New Roman,serif" font-size="14.00">[46..4b)</text>
<text text-anchor="middle" x="298.19" y="-580.55" font-family="Times New Roman,serif" font-size="14.00">Count: 793</text>
<text text-anchor="middle" x="298.19" y="-565.55" font-family="Times New Roman,serif" font-size="14.00">Normalized count: 61.00</text>
<text text-anchor="middle" x="298.19" y="-550.55" font-family="Times New Roman,serif" font-size="14.00">Samples weight: 0.01</text>
</g>
<!-- BB0&#45;&gt;BB7 -->
<g id="edge1" class="edge">
<title>BB0&#45;&gt;BB7</title>
<path fill="none" stroke="black" d="M298.19,-660.55C298.19,-652.29 298.19,-643.6 298.19,-635.1"/>
<polygon fill="black" stroke="black" points="301.69,-634.86 298.19,-624.86 294.69,-634.86 301.69,-634.86"/>
</g>
<!-- BB1 -->
<g id="node2" class="node">
<title>BB1</title>
<ellipse fill="none" stroke="black" cx="298.19" cy="-444.58" rx="108.38" ry="48.17"/>
<text text-anchor="middle" x="298.19" y="-463.38" font-family="Times New Roman,serif" font-size="14.00">[a..e)</text>
<text text-anchor="middle" x="298.19" y="-448.38" font-family="Times New Roman,serif" font-size="14.00">Count: 780</text>
<text text-anchor="middle" x="298.19" y="-433.38" font-family="Times New Roman,serif" font-size="14.00">Normalized count: 60.00</text>
<text text-anchor="middle" x="298.19" y="-418.38" font-family="Times New Roman,serif" font-size="14.00">Samples weight: 0.01</text>
</g>
<!-- BB5 -->
<g id="node6" class="node">
<title>BB5</title>
<ellipse fill="none" stroke="black" cx="327.19" cy="-312.42" rx="118.17" ry="48.17"/>
<text text-anchor="middle" x="327.19" y="-331.22" font-family="Times New Roman,serif" font-size="14.00">[3d..42)</text>
<text text-anchor="middle" x="327.19" y="-316.22" font-family="Times New Roman,serif" font-size="14.00">Count: 47580</text>
<text text-anchor="middle" x="327.19" y="-301.22" font-family="Times New Roman,serif" font-size="14.00">Normalized count: 3660.00</text>
<text text-anchor="middle" x="327.19" y="-286.22" font-family="Times New Roman,serif" font-size="14.00">Samples weight: 0.33</text>
</g>
<!-- BB1&#45;&gt;BB5 -->
<g id="edge2" class="edge">
<title>BB1&#45;&gt;BB5</title>
<path fill="none" stroke="black" d="M308.66,-396.59C310.57,-388.02 312.58,-378.99 314.54,-370.17"/>
<polygon fill="black" stroke="black" points="317.97,-370.86 316.73,-360.34 311.14,-369.34 317.97,-370.86"/>
</g>
<!-- BB2 -->
<g id="node3" class="node">
<title>BB2</title>
<ellipse fill="none" stroke="black" cx="352.19" cy="-180.25" rx="118.17" ry="48.17"/>
<text text-anchor="middle" x="352.19" y="-199.05" font-family="Times New Roman,serif" font-size="14.00">[e..18)</text>
<text text-anchor="middle" x="352.19" y="-184.05" font-family="Times New Roman,serif" font-size="14.00">Count: 46800</text>
<text text-anchor="middle" x="352.19" y="-169.05" font-family="Times New Roman,serif" font-size="14.00">Normalized count: 3600.00</text>
<text text-anchor="middle" x="352.19" y="-154.05" font-family="Times New Roman,serif" font-size="14.00">Samples weight: 0.32</text>
</g>
<!-- BB3 -->
<g id="node4" class="node">
<title>BB3</title>
<ellipse fill="none" stroke="black" cx="254.19" cy="-48.08" rx="108.38" ry="48.17"/>
<text text-anchor="middle" x="254.19" y="-66.88" font-family="Times New Roman,serif" font-size="14.00">[18..1e)</text>
<text text-anchor="middle" x="254.19" y="-51.88" font-family="Times New Roman,serif" font-size="14.00">Count: 780</text>
<text text-anchor="middle" x="254.19" y="-36.88" font-family="Times New Roman,serif" font-size="14.00">Normalized count: 60.00</text>
<text text-anchor="middle" x="254.19" y="-21.88" font-family="Times New Roman,serif" font-size="14.00">Samples weight: 0.01</text>
</g>
<!-- BB2&#45;&gt;BB3 -->
<g id="edge4" class="edge">
<title>BB2&#45;&gt;BB3</title>
<path fill="none" stroke="black" d="M318.19,-134.09C310.43,-123.79 302.13,-112.76 294.15,-102.16"/>
<polygon fill="black" stroke="black" points="296.94,-100.05 288.13,-94.16 291.35,-104.26 296.94,-100.05"/>
</g>
<!-- BB4 -->
<g id="node5" class="node">
<title>BB4</title>
<ellipse fill="none" stroke="black" cx="498.19" cy="-48.08" rx="118.17" ry="48.17"/>
<text text-anchor="middle" x="498.19" y="-66.88" font-family="Times New Roman,serif" font-size="14.00">[1e..3d)</text>
<text text-anchor="middle" x="498.19" y="-51.88" font-family="Times New Roman,serif" font-size="14.00">Count: 46800</text>
<text text-anchor="middle" x="498.19" y="-36.88" font-family="Times New Roman,serif" font-size="14.00">Normalized count: 3600.00</text>
<text text-anchor="middle" x="498.19" y="-21.88" font-family="Times New Roman,serif" font-size="14.00">Samples weight: 0.32</text>
</g>
<!-- BB2&#45;&gt;BB4 -->
<g id="edge3" class="edge">
<title>BB2&#45;&gt;BB4</title>
<path fill="none" stroke="black" d="M400.4,-136.27C413.85,-124.27 428.58,-111.14 442.44,-98.79"/>
<polygon fill="black" stroke="black" points="444.89,-101.29 450.03,-92.02 440.23,-96.06 444.89,-101.29"/>
</g>
<!-- BB3&#45;&gt;BB4 -->
<g id="edge5" class="edge">
<title>BB3&#45;&gt;BB4</title>
<path fill="none" stroke="black" d="M362.84,-48.08C365.17,-48.08 367.5,-48.08 369.82,-48.08"/>
<polygon fill="black" stroke="black" points="370.03,-51.58 380.03,-48.08 370.03,-44.58 370.03,-51.58"/>
</g>
<!-- BB4&#45;&gt;BB5 -->
<g id="edge6" class="edge">
<title>BB4&#45;&gt;BB5</title>
<path fill="none" stroke="black" d="M504.53,-96.13C507.26,-134.82 505.14,-189.41 479.19,-228.33 465.9,-248.26 446.18,-263.82 425.3,-275.82"/>
<polygon fill="black" stroke="black" points="423.4,-272.87 416.3,-280.74 426.75,-279.01 423.4,-272.87"/>
</g>
<!-- BB5&#45;&gt;BB2 -->
<g id="edge7" class="edge">
<title>BB5&#45;&gt;BB2</title>
<path fill="none" stroke="black" d="M336.21,-264.42C337.82,-256.05 339.51,-247.24 341.17,-238.62"/>
<polygon fill="black" stroke="black" points="344.64,-239.09 343.09,-228.61 337.77,-237.77 344.64,-239.09"/>
</g>
<!-- BB6 -->
<g id="node7" class="node">
<title>BB6</title>
<ellipse fill="none" stroke="black" cx="108.19" cy="-180.25" rx="108.38" ry="48.17"/>
<text text-anchor="middle" x="108.19" y="-199.05" font-family="Times New Roman,serif" font-size="14.00">[42..46)</text>
<text text-anchor="middle" x="108.19" y="-184.05" font-family="Times New Roman,serif" font-size="14.00">Count: 780</text>
<text text-anchor="middle" x="108.19" y="-169.05" font-family="Times New Roman,serif" font-size="14.00">Normalized count: 60.00</text>
<text text-anchor="middle" x="108.19" y="-154.05" font-family="Times New Roman,serif" font-size="14.00">Samples weight: 0.01</text>
</g>
<!-- BB5&#45;&gt;BB6 -->
<g id="edge8" class="edge">
<title>BB5&#45;&gt;BB6</title>
<path fill="none" stroke="black" d="M261.48,-272.36C236.01,-257.22 206.76,-239.84 180.68,-224.34"/>
<polygon fill="black" stroke="black" points="182.35,-221.26 171.97,-219.16 178.77,-227.28 182.35,-221.26"/>
</g>
<!-- BB6&#45;&gt;BB7 -->
<g id="edge9" class="edge">
<title>BB6&#45;&gt;BB7</title>
<path fill="none" stroke="black" d="M109.07,-228.34C112.41,-293.12 126.28,-410.98 181.19,-492.67 191.62,-508.19 206,-521.76 221.12,-533.18"/>
<polygon fill="black" stroke="black" points="219.42,-536.27 229.57,-539.3 223.52,-530.6 219.42,-536.27"/>
</g>
<!-- BB7&#45;&gt;BB1 -->
<g id="edge10" class="edge">
<title>BB7&#45;&gt;BB1</title>
<path fill="none" stroke="black" d="M298.19,-528.39C298.19,-520.12 298.19,-511.44 298.19,-502.93"/>
<polygon fill="black" stroke="black" points="301.69,-502.69 298.19,-492.69 294.69,-502.69 301.69,-502.69"/>
</g>
<!-- BB8 -->
<g id="node9" class="node">
<title>BB8</title>
<ellipse fill="none" stroke="black" cx="527.19" cy="-444.58" rx="103.48" ry="48.17"/>
<text text-anchor="middle" x="527.19" y="-463.38" font-family="Times New Roman,serif" font-size="14.00">[4b..4c)</text>
<text text-anchor="middle" x="527.19" y="-448.38" font-family="Times New Roman,serif" font-size="14.00">Count: 13</text>
<text text-anchor="middle" x="527.19" y="-433.38" font-family="Times New Roman,serif" font-size="14.00">Normalized count: 1.00</text>
<text text-anchor="middle" x="527.19" y="-418.38" font-family="Times New Roman,serif" font-size="14.00">Samples weight: 0.00</text>
</g>
<!-- BB7&#45;&gt;BB8 -->
<g id="edge11" class="edge">
<title>BB7&#45;&gt;BB8</title>
<path fill="none" stroke="black" d="M363.81,-538.45C391.96,-522.45 424.96,-503.69 453.9,-487.24"/>
<polygon fill="black" stroke="black" points="455.78,-490.2 462.74,-482.21 452.32,-484.11 455.78,-490.2"/>
</g>
</g>
</svg>
