<?xml version="1.0" encoding="UTF-8" standalone="no"?>
<!DOCTYPE svg PUBLIC "-//W3C//DTD SVG 1.1//EN"
 "http://www.w3.org/Graphics/SVG/1.1/DTD/svg11.dtd">
<!-- Generated by graphviz version 2.47.0 (20210316.0004)
 -->
<!-- Title: G Pages: 1 -->
<svg width="692pt" height="501pt"
 viewBox="0.00 0.00 692.37 500.67" xmlns="http://www.w3.org/2000/svg" xmlns:xlink="http://www.w3.org/1999/xlink">
<g id="graph0" class="graph" transform="scale(1 1) rotate(0) translate(4 496.67)">
<title>G</title>
<polygon fill="white" stroke="transparent" points="-4,4 -4,-496.67 688.37,-496.67 688.37,4 -4,4"/>
<!-- BB0 -->
<g id="node1" class="node">
<title>BB0</title>
<ellipse fill="none" stroke="black" cx="466.14" cy="-444.58" rx="103.48" ry="48.17"/>
<text text-anchor="middle" x="466.14" y="-463.38" font-family="Times New Roman,serif" font-size="14.00">[0..6)</text>
<text text-anchor="middle" x="466.14" y="-448.38" font-family="Times New Roman,serif" font-size="14.00">Count: 3</text>
<text text-anchor="middle" x="466.14" y="-433.38" font-family="Times New Roman,serif" font-size="14.00">Normalized count: 1.00</text>
<text text-anchor="middle" x="466.14" y="-418.38" font-family="Times New Roman,serif" font-size="14.00">Samples weight: 0.00</text>
</g>
<!-- BB4 -->
<g id="node5" class="node">
<title>BB4</title>
<ellipse fill="none" stroke="black" cx="398.14" cy="-312.42" rx="108.38" ry="48.17"/>
<text text-anchor="middle" x="398.14" y="-331.22" font-family="Times New Roman,serif" font-size="14.00">[28..2c)</text>
<text text-anchor="middle" x="398.14" y="-316.22" font-family="Times New Roman,serif" font-size="14.00">Count: 58</text>
<text text-anchor="middle" x="398.14" y="-301.22" font-family="Times New Roman,serif" font-size="14.00">Normalized count: 19.33</text>
<text text-anchor="middle" x="398.14" y="-286.22" font-family="Times New Roman,serif" font-size="14.00">Samples weight: 0.07</text>
</g>
<!-- BB0&#45;&gt;BB4 -->
<g id="edge1" class="edge">
<title>BB0&#45;&gt;BB4</title>
<path fill="none" stroke="black" d="M442.16,-397.69C437.19,-388.16 431.89,-378.03 426.77,-368.23"/>
<polygon fill="black" stroke="black" points="429.86,-366.58 422.12,-359.33 423.65,-369.82 429.86,-366.58"/>
</g>
<!-- BB1 -->
<g id="node2" class="node">
<title>BB1</title>
<ellipse fill="none" stroke="black" cx="257.14" cy="-180.25" rx="113.27" ry="48.17"/>
<text text-anchor="middle" x="257.14" y="-199.05" font-family="Times New Roman,serif" font-size="14.00">[6..10)</text>
<text text-anchor="middle" x="257.14" y="-184.05" font-family="Times New Roman,serif" font-size="14.00">Count: 307</text>
<text text-anchor="middle" x="257.14" y="-169.05" font-family="Times New Roman,serif" font-size="14.00">Normalized count: 102.33</text>
<text text-anchor="middle" x="257.14" y="-154.05" font-family="Times New Roman,serif" font-size="14.00">Samples weight: 0.39</text>
</g>
<!-- BB2 -->
<g id="node3" class="node">
<title>BB2</title>
<ellipse fill="none" stroke="black" cx="113.14" cy="-48.08" rx="113.27" ry="48.17"/>
<text text-anchor="middle" x="113.14" y="-66.88" font-family="Times New Roman,serif" font-size="14.00">[10..24)</text>
<text text-anchor="middle" x="113.14" y="-51.88" font-family="Times New Roman,serif" font-size="14.00">Count: 334</text>
<text text-anchor="middle" x="113.14" y="-36.88" font-family="Times New Roman,serif" font-size="14.00">Normalized count: 111.33</text>
<text text-anchor="middle" x="113.14" y="-21.88" font-family="Times New Roman,serif" font-size="14.00">Samples weight: 0.43</text>
</g>
<!-- BB1&#45;&gt;BB2 -->
<g id="edge3" class="edge">
<title>BB1&#45;&gt;BB2</title>
<path fill="none" stroke="black" d="M209.59,-136.27C196.32,-124.27 181.79,-111.14 168.12,-98.79"/>
<polygon fill="black" stroke="black" points="170.4,-96.13 160.64,-92.02 165.71,-101.32 170.4,-96.13"/>
</g>
<!-- BB3 -->
<g id="node4" class="node">
<title>BB3</title>
<ellipse fill="none" stroke="black" cx="352.14" cy="-48.08" rx="108.38" ry="48.17"/>
<text text-anchor="middle" x="352.14" y="-66.88" font-family="Times New Roman,serif" font-size="14.00">[24..28)</text>
<text text-anchor="middle" x="352.14" y="-51.88" font-family="Times New Roman,serif" font-size="14.00">Count: 77</text>
<text text-anchor="middle" x="352.14" y="-36.88" font-family="Times New Roman,serif" font-size="14.00">Normalized count: 25.67</text>
<text text-anchor="middle" x="352.14" y="-21.88" font-family="Times New Roman,serif" font-size="14.00">Samples weight: 0.10</text>
</g>
<!-- BB1&#45;&gt;BB3 -->
<g id="edge2" class="edge">
<title>BB1&#45;&gt;BB3</title>
<path fill="none" stroke="black" d="M290.1,-134.09C297.54,-123.89 305.51,-112.97 313.17,-102.47"/>
<polygon fill="black" stroke="black" points="316.17,-104.3 319.24,-94.16 310.51,-100.18 316.17,-104.3"/>
</g>
<!-- BB2&#45;&gt;BB3 -->
<g id="edge4" class="edge">
<title>BB2&#45;&gt;BB3</title>
<path fill="none" stroke="black" d="M226.57,-48.08C228.89,-48.08 231.22,-48.08 233.54,-48.08"/>
<polygon fill="black" stroke="black" points="233.74,-51.58 243.74,-48.08 233.74,-44.58 233.74,-51.58"/>
</g>
<!-- BB3&#45;&gt;BB4 -->
<g id="edge5" class="edge">
<title>BB3&#45;&gt;BB4</title>
<path fill="none" stroke="black" d="M369.15,-95.63C372.93,-107.42 376.58,-120.15 379.14,-132.17 387.71,-172.42 392.49,-218.62 395.11,-254.04"/>
<polygon fill="black" stroke="black" points="391.63,-254.47 395.83,-264.2 398.62,-253.97 391.63,-254.47"/>
</g>
<!-- BB4&#45;&gt;BB1 -->
<g id="edge6" class="edge">
<title>BB4&#45;&gt;BB1</title>
<path fill="none" stroke="black" d="M351.97,-268.79C338.96,-256.78 324.69,-243.61 311.25,-231.21"/>
<polygon fill="black" stroke="black" points="313.61,-228.62 303.89,-224.41 308.87,-233.77 313.61,-228.62"/>
</g>
<!-- BB5 -->
<g id="node6" class="node">
<title>BB5</title>
<ellipse fill="none" stroke="black" cx="534.14" cy="-180.25" rx="103.48" ry="48.17"/>
<text text-anchor="middle" x="534.14" y="-199.05" font-family="Times New Roman,serif" font-size="14.00">[2c..2f)</text>
<text text-anchor="middle" x="534.14" y="-184.05" font-family="Times New Roman,serif" font-size="14.00">Count: 6</text>
<text text-anchor="middle" x="534.14" y="-169.05" font-family="Times New Roman,serif" font-size="14.00">Normalized count: 2.00</text>
<text text-anchor="middle" x="534.14" y="-154.05" font-family="Times New Roman,serif" font-size="14.00">Samples weight: 0.01</text>
</g>
<!-- BB4&#45;&gt;BB5 -->
<g id="edge7" class="edge">
<title>BB4&#45;&gt;BB5</title>
<path fill="none" stroke="black" d="M443.05,-268.43C455.59,-256.43 469.33,-243.28 482.25,-230.92"/>
<polygon fill="black" stroke="black" points="484.94,-233.19 489.74,-223.74 480.1,-228.13 484.94,-233.19"/>
</g>
<!-- BB5&#45;&gt;BB0 -->
<g id="edge8" class="edge">
<title>BB5&#45;&gt;BB0</title>
<path fill="none" stroke="black" d="M534.56,-228.44C533.61,-265.27 529.43,-317.27 515.14,-360.5 511.87,-370.38 507.3,-380.36 502.26,-389.81"/>
<polygon fill="black" stroke="black" points="499.12,-388.24 497.3,-398.68 505.23,-391.66 499.12,-388.24"/>
</g>
<!-- BB6 -->
<g id="node7" class="node">
<title>BB6</title>
<ellipse fill="none" stroke="black" cx="581.14" cy="-48.08" rx="103.48" ry="48.17"/>
<text text-anchor="middle" x="581.14" y="-66.88" font-family="Times New Roman,serif" font-size="14.00">[2f..30)</text>
<text text-anchor="middle" x="581.14" y="-51.88" font-family="Times New Roman,serif" font-size="14.00">Count: 0</text>
<text text-anchor="middle" x="581.14" y="-36.88" font-family="Times New Roman,serif" font-size="14.00">Normalized count: 0.00</text>
<text text-anchor="middle" x="581.14" y="-21.88" font-family="Times New Roman,serif" font-size="14.00">Samples weight: 0.00</text>
</g>
<!-- BB5&#45;&gt;BB6 -->
<g id="edge9" class="edge">
<title>BB5&#45;&gt;BB6</title>
<path fill="none" stroke="black" d="M550.97,-132.62C554.18,-123.75 557.57,-114.37 560.86,-105.23"/>
<polygon fill="black" stroke="black" points="564.16,-106.41 564.26,-95.82 557.57,-104.04 564.16,-106.41"/>
</g>
</g>
</svg>
