<?xml version="1.0" encoding="UTF-8" standalone="no"?>
<!DOCTYPE svg PUBLIC "-//W3C//DTD SVG 1.1//EN"
 "http://www.w3.org/Graphics/SVG/1.1/DTD/svg11.dtd">
<!-- Generated by graphviz version 2.47.0 (20210316.0004)
 -->
<!-- Title: G Pages: 1 -->
<svg width="1343pt" height="1426pt"
 viewBox="0.00 0.00 1342.69 1425.83" xmlns="http://www.w3.org/2000/svg" xmlns:xlink="http://www.w3.org/1999/xlink">
<g id="graph0" class="graph" transform="scale(1 1) rotate(0) translate(4 1421.83)">
<title>G</title>
<polygon fill="white" stroke="transparent" points="-4,4 -4,-1421.83 1338.69,-1421.83 1338.69,4 -4,4"/>
<!-- BB0 -->
<g id="node1" class="node">
<title>BB0</title>
<ellipse fill="none" stroke="black" cx="865.84" cy="-1369.75" rx="104.8" ry="48.17"/>
<text text-anchor="middle" x="865.84" y="-1388.55" font-family="Times New Roman,serif" font-size="14.00">[0..27)</text>
<text text-anchor="middle" x="865.84" y="-1373.55" font-family="Times New Roman,serif" font-size="14.00">Count: 0</text>
<text text-anchor="middle" x="865.84" y="-1358.55" font-family="Times New Roman,serif" font-size="14.00">Normalized count: NaN</text>
<text text-anchor="middle" x="865.84" y="-1343.55" font-family="Times New Roman,serif" font-size="14.00">Samples weight: 0.00</text>
</g>
<!-- BB2 -->
<g id="node3" class="node">
<title>BB2</title>
<ellipse fill="none" stroke="black" cx="865.84" cy="-1237.58" rx="104.8" ry="48.17"/>
<text text-anchor="middle" x="865.84" y="-1256.38" font-family="Times New Roman,serif" font-size="14.00">[3f..44)</text>
<text text-anchor="middle" x="865.84" y="-1241.38" font-family="Times New Roman,serif" font-size="14.00">Count: 0</text>
<text text-anchor="middle" x="865.84" y="-1226.38" font-family="Times New Roman,serif" font-size="14.00">Normalized count: NaN</text>
<text text-anchor="middle" x="865.84" y="-1211.38" font-family="Times New Roman,serif" font-size="14.00">Samples weight: 0.00</text>
</g>
<!-- BB0&#45;&gt;BB2 -->
<g id="edge1" class="edge">
<title>BB0&#45;&gt;BB2</title>
<path fill="none" stroke="black" d="M865.84,-1321.39C865.84,-1313.12 865.84,-1304.44 865.84,-1295.93"/>
<polygon fill="black" stroke="black" points="869.34,-1295.69 865.84,-1285.69 862.34,-1295.69 869.34,-1295.69"/>
</g>
<!-- BB1 -->
<g id="node2" class="node">
<title>BB1</title>
<ellipse fill="none" stroke="black" cx="865.84" cy="-1105.42" rx="104.8" ry="48.17"/>
<text text-anchor="middle" x="865.84" y="-1124.22" font-family="Times New Roman,serif" font-size="14.00">[27..3f)</text>
<text text-anchor="middle" x="865.84" y="-1109.22" font-family="Times New Roman,serif" font-size="14.00">Count: 0</text>
<text text-anchor="middle" x="865.84" y="-1094.22" font-family="Times New Roman,serif" font-size="14.00">Normalized count: NaN</text>
<text text-anchor="middle" x="865.84" y="-1079.22" font-family="Times New Roman,serif" font-size="14.00">Samples weight: 0.00</text>
</g>
<!-- BB1&#45;&gt;BB2 -->
<g id="edge2" class="edge">
<title>BB1&#45;&gt;BB2</title>
<path fill="none" stroke="black" d="M872.37,-1153.78C872.58,-1162.07 872.65,-1170.78 872.55,-1179.31"/>
<polygon fill="black" stroke="black" points="869.05,-1179.52 872.36,-1189.59 876.05,-1179.66 869.05,-1179.52"/>
</g>
<!-- BB2&#45;&gt;BB1 -->
<g id="edge3" class="edge">
<title>BB2&#45;&gt;BB1</title>
<path fill="none" stroke="black" d="M859.33,-1189.59C859.11,-1181.21 859.04,-1172.41 859.14,-1163.78"/>
<polygon fill="black" stroke="black" points="862.64,-1163.84 859.32,-1153.78 855.64,-1163.71 862.64,-1163.84"/>
</g>
<!-- BB3 -->
<g id="node4" class="node">
<title>BB3</title>
<ellipse fill="none" stroke="black" cx="1101.84" cy="-1105.42" rx="113.69" ry="48.17"/>
<text text-anchor="middle" x="1101.84" y="-1124.22" font-family="Times New Roman,serif" font-size="14.00">[44..50)</text>
<text text-anchor="middle" x="1101.84" y="-1109.22" font-family="Times New Roman,serif" font-size="14.00">Count: 5835</text>
<text text-anchor="middle" x="1101.84" y="-1094.22" font-family="Times New Roman,serif" font-size="14.00">Normalized count: Infinity</text>
<text text-anchor="middle" x="1101.84" y="-1079.22" font-family="Times New Roman,serif" font-size="14.00">Samples weight: 0.02</text>
</g>
<!-- BB2&#45;&gt;BB3 -->
<g id="edge4" class="edge">
<title>BB2&#45;&gt;BB3</title>
<path fill="none" stroke="black" d="M931.9,-1200.15C960.81,-1184.2 994.93,-1165.38 1024.98,-1148.81"/>
<polygon fill="black" stroke="black" points="1026.69,-1151.87 1033.75,-1143.97 1023.31,-1145.74 1026.69,-1151.87"/>
</g>
<!-- BB4 -->
<g id="node5" class="node">
<title>BB4</title>
<ellipse fill="none" stroke="black" cx="571.84" cy="-973.25" rx="113.69" ry="48.17"/>
<text text-anchor="middle" x="571.84" y="-992.05" font-family="Times New Roman,serif" font-size="14.00">[50..55)</text>
<text text-anchor="middle" x="571.84" y="-977.05" font-family="Times New Roman,serif" font-size="14.00">Count: 5274</text>
<text text-anchor="middle" x="571.84" y="-962.05" font-family="Times New Roman,serif" font-size="14.00">Normalized count: Infinity</text>
<text text-anchor="middle" x="571.84" y="-947.05" font-family="Times New Roman,serif" font-size="14.00">Samples weight: 0.02</text>
</g>
<!-- BB3&#45;&gt;BB4 -->
<g id="edge6" class="edge">
<title>BB3&#45;&gt;BB4</title>
<path fill="none" stroke="black" d="M1022.29,-1070.79C1008.32,-1065.73 993.79,-1060.99 979.84,-1057.33 872.54,-1029.19 841.24,-1044.96 732.84,-1021.33 712.79,-1016.96 691.58,-1011.43 671.37,-1005.71"/>
<polygon fill="black" stroke="black" points="672.11,-1002.28 661.53,-1002.89 670.18,-1009.01 672.11,-1002.28"/>
</g>
<!-- BB15 -->
<g id="node16" class="node">
<title>BB15</title>
<ellipse fill="none" stroke="black" cx="855.84" cy="-973.25" rx="113.69" ry="48.17"/>
<text text-anchor="middle" x="855.84" y="-992.05" font-family="Times New Roman,serif" font-size="14.00">[d0..d4)</text>
<text text-anchor="middle" x="855.84" y="-977.05" font-family="Times New Roman,serif" font-size="14.00">Count: 5348</text>
<text text-anchor="middle" x="855.84" y="-962.05" font-family="Times New Roman,serif" font-size="14.00">Normalized count: Infinity</text>
<text text-anchor="middle" x="855.84" y="-947.05" font-family="Times New Roman,serif" font-size="14.00">Samples weight: 0.02</text>
</g>
<!-- BB3&#45;&gt;BB15 -->
<g id="edge5" class="edge">
<title>BB3&#45;&gt;BB15</title>
<path fill="none" stroke="black" d="M1031.68,-1067.29C1001.56,-1051.35 966.23,-1032.66 935.17,-1016.22"/>
<polygon fill="black" stroke="black" points="936.58,-1013.01 926.1,-1011.42 933.3,-1019.2 936.58,-1013.01"/>
</g>
<!-- BB6 -->
<g id="node7" class="node">
<title>BB6</title>
<ellipse fill="none" stroke="black" cx="533.84" cy="-841.08" rx="113.69" ry="48.17"/>
<text text-anchor="middle" x="533.84" y="-859.88" font-family="Times New Roman,serif" font-size="14.00">[63..68)</text>
<text text-anchor="middle" x="533.84" y="-844.88" font-family="Times New Roman,serif" font-size="14.00">Count: 58102</text>
<text text-anchor="middle" x="533.84" y="-829.88" font-family="Times New Roman,serif" font-size="14.00">Normalized count: Infinity</text>
<text text-anchor="middle" x="533.84" y="-814.88" font-family="Times New Roman,serif" font-size="14.00">Samples weight: 0.17</text>
</g>
<!-- BB4&#45;&gt;BB6 -->
<g id="edge7" class="edge">
<title>BB4&#45;&gt;BB6</title>
<path fill="none" stroke="black" d="M558.13,-925.26C555.62,-916.68 552.99,-907.66 550.41,-898.84"/>
<polygon fill="black" stroke="black" points="553.71,-897.62 547.54,-889.01 546.99,-899.59 553.71,-897.62"/>
</g>
<!-- BB5 -->
<g id="node6" class="node">
<title>BB5</title>
<ellipse fill="none" stroke="black" cx="533.84" cy="-708.92" rx="113.69" ry="48.17"/>
<text text-anchor="middle" x="533.84" y="-727.72" font-family="Times New Roman,serif" font-size="14.00">[55..63)</text>
<text text-anchor="middle" x="533.84" y="-712.72" font-family="Times New Roman,serif" font-size="14.00">Count: 52488</text>
<text text-anchor="middle" x="533.84" y="-697.72" font-family="Times New Roman,serif" font-size="14.00">Normalized count: Infinity</text>
<text text-anchor="middle" x="533.84" y="-682.72" font-family="Times New Roman,serif" font-size="14.00">Samples weight: 0.15</text>
</g>
<!-- BB5&#45;&gt;BB6 -->
<g id="edge8" class="edge">
<title>BB5&#45;&gt;BB6</title>
<path fill="none" stroke="black" d="M540.36,-757.02C540.58,-765.28 540.65,-773.96 540.55,-782.47"/>
<polygon fill="black" stroke="black" points="537.05,-782.66 540.37,-792.72 544.05,-782.79 537.05,-782.66"/>
</g>
<!-- BB6&#45;&gt;BB5 -->
<g id="edge9" class="edge">
<title>BB6&#45;&gt;BB5</title>
<path fill="none" stroke="black" d="M527.32,-792.72C527.1,-784.45 527.04,-775.77 527.14,-767.27"/>
<polygon fill="black" stroke="black" points="530.64,-767.09 527.33,-757.02 523.64,-766.96 530.64,-767.09"/>
</g>
<!-- BB7 -->
<g id="node8" class="node">
<title>BB7</title>
<ellipse fill="none" stroke="black" cx="287.84" cy="-708.92" rx="113.69" ry="48.17"/>
<text text-anchor="middle" x="287.84" y="-727.72" font-family="Times New Roman,serif" font-size="14.00">[68..6b)</text>
<text text-anchor="middle" x="287.84" y="-712.72" font-family="Times New Roman,serif" font-size="14.00">Count: 5944</text>
<text text-anchor="middle" x="287.84" y="-697.72" font-family="Times New Roman,serif" font-size="14.00">Normalized count: Infinity</text>
<text text-anchor="middle" x="287.84" y="-682.72" font-family="Times New Roman,serif" font-size="14.00">Samples weight: 0.02</text>
</g>
<!-- BB6&#45;&gt;BB7 -->
<g id="edge10" class="edge">
<title>BB6&#45;&gt;BB7</title>
<path fill="none" stroke="black" d="M463.68,-802.96C433.56,-787.02 398.23,-768.32 367.17,-751.89"/>
<polygon fill="black" stroke="black" points="368.58,-748.67 358.1,-747.09 365.3,-754.86 368.58,-748.67"/>
</g>
<!-- BB8 -->
<g id="node9" class="node">
<title>BB8</title>
<ellipse fill="none" stroke="black" cx="344.84" cy="-576.75" rx="113.69" ry="48.17"/>
<text text-anchor="middle" x="344.84" y="-595.55" font-family="Times New Roman,serif" font-size="14.00">[6b..75)</text>
<text text-anchor="middle" x="344.84" y="-580.55" font-family="Times New Roman,serif" font-size="14.00">Count: 36777</text>
<text text-anchor="middle" x="344.84" y="-565.55" font-family="Times New Roman,serif" font-size="14.00">Normalized count: Infinity</text>
<text text-anchor="middle" x="344.84" y="-550.55" font-family="Times New Roman,serif" font-size="14.00">Samples weight: 0.11</text>
</g>
<!-- BB7&#45;&gt;BB8 -->
<g id="edge11" class="edge">
<title>BB7&#45;&gt;BB8</title>
<path fill="none" stroke="black" d="M308.26,-661.29C312.15,-652.41 316.26,-643.03 320.26,-633.89"/>
<polygon fill="black" stroke="black" points="323.57,-635.05 324.38,-624.49 317.16,-632.24 323.57,-635.05"/>
</g>
<!-- BB9 -->
<g id="node10" class="node">
<title>BB9</title>
<ellipse fill="none" stroke="black" cx="571.84" cy="-444.58" rx="113.69" ry="48.17"/>
<text text-anchor="middle" x="571.84" y="-463.38" font-family="Times New Roman,serif" font-size="14.00">[75..84)</text>
<text text-anchor="middle" x="571.84" y="-448.38" font-family="Times New Roman,serif" font-size="14.00">Count: 4398</text>
<text text-anchor="middle" x="571.84" y="-433.38" font-family="Times New Roman,serif" font-size="14.00">Normalized count: Infinity</text>
<text text-anchor="middle" x="571.84" y="-418.38" font-family="Times New Roman,serif" font-size="14.00">Samples weight: 0.01</text>
</g>
<!-- BB8&#45;&gt;BB9 -->
<g id="edge13" class="edge">
<title>BB8&#45;&gt;BB9</title>
<path fill="none" stroke="black" d="M411.42,-537.57C438.1,-522.28 468.97,-504.57 496.47,-488.8"/>
<polygon fill="black" stroke="black" points="498.34,-491.77 505.27,-483.76 494.86,-485.7 498.34,-491.77"/>
</g>
<!-- BB11 -->
<g id="node12" class="node">
<title>BB11</title>
<ellipse fill="none" stroke="black" cx="217.84" cy="-444.58" rx="113.69" ry="48.17"/>
<text text-anchor="middle" x="217.84" y="-463.38" font-family="Times New Roman,serif" font-size="14.00">[8a..95)</text>
<text text-anchor="middle" x="217.84" y="-448.38" font-family="Times New Roman,serif" font-size="14.00">Count: 31946</text>
<text text-anchor="middle" x="217.84" y="-433.38" font-family="Times New Roman,serif" font-size="14.00">Normalized count: Infinity</text>
<text text-anchor="middle" x="217.84" y="-418.38" font-family="Times New Roman,serif" font-size="14.00">Samples weight: 0.09</text>
</g>
<!-- BB8&#45;&gt;BB11 -->
<g id="edge12" class="edge">
<title>BB8&#45;&gt;BB11</title>
<path fill="none" stroke="black" d="M302.2,-532.04C291.1,-520.67 279.05,-508.31 267.61,-496.59"/>
<polygon fill="black" stroke="black" points="270.08,-494.11 260.59,-489.39 265.07,-499 270.08,-494.11"/>
</g>
<!-- BB10 -->
<g id="node11" class="node">
<title>BB10</title>
<ellipse fill="none" stroke="black" cx="623.84" cy="-312.42" rx="104.8" ry="48.17"/>
<text text-anchor="middle" x="623.84" y="-331.22" font-family="Times New Roman,serif" font-size="14.00">[84..8a)</text>
<text text-anchor="middle" x="623.84" y="-316.22" font-family="Times New Roman,serif" font-size="14.00">Count: 0</text>
<text text-anchor="middle" x="623.84" y="-301.22" font-family="Times New Roman,serif" font-size="14.00">Normalized count: NaN</text>
<text text-anchor="middle" x="623.84" y="-286.22" font-family="Times New Roman,serif" font-size="14.00">Samples weight: 0.00</text>
</g>
<!-- BB9&#45;&gt;BB10 -->
<g id="edge15" class="edge">
<title>BB9&#45;&gt;BB10</title>
<path fill="none" stroke="black" d="M590.47,-396.96C594.02,-388.08 597.76,-378.7 601.42,-369.56"/>
<polygon fill="black" stroke="black" points="604.71,-370.74 605.17,-360.15 598.21,-368.14 604.71,-370.74"/>
</g>
<!-- BB9&#45;&gt;BB15 -->
<g id="edge14" class="edge">
<title>BB9&#45;&gt;BB15</title>
<path fill="none" stroke="black" d="M593.21,-492.14C612.23,-535.14 639.62,-601.19 656.84,-660.83 685.49,-760.04 638.69,-805.96 699.84,-889.17 714.92,-909.68 736.62,-925.63 759.06,-937.81"/>
<polygon fill="black" stroke="black" points="757.53,-940.96 768.02,-942.47 760.76,-934.75 757.53,-940.96"/>
</g>
<!-- BB10&#45;&gt;BB15 -->
<g id="edge16" class="edge">
<title>BB10&#45;&gt;BB15</title>
<path fill="none" stroke="black" d="M668.77,-356.14C678.97,-368.21 688.62,-382.03 694.84,-396.5 726.51,-470.09 713.84,-495.64 713.84,-575.75 713.84,-709.92 713.84,-709.92 713.84,-709.92 713.84,-790.03 691.58,-820.5 732.84,-889.17 742.74,-905.62 757.29,-919.54 772.95,-931"/>
<polygon fill="black" stroke="black" points="771.02,-933.92 781.23,-936.77 775.03,-928.18 771.02,-933.92"/>
</g>
<!-- BB12 -->
<g id="node13" class="node">
<title>BB12</title>
<ellipse fill="none" stroke="black" cx="113.84" cy="-312.42" rx="113.69" ry="48.17"/>
<text text-anchor="middle" x="113.84" y="-331.22" font-family="Times New Roman,serif" font-size="14.00">[95..9e)</text>
<text text-anchor="middle" x="113.84" y="-316.22" font-family="Times New Roman,serif" font-size="14.00">Count: 24100</text>
<text text-anchor="middle" x="113.84" y="-301.22" font-family="Times New Roman,serif" font-size="14.00">Normalized count: Infinity</text>
<text text-anchor="middle" x="113.84" y="-286.22" font-family="Times New Roman,serif" font-size="14.00">Samples weight: 0.07</text>
</g>
<!-- BB11&#45;&gt;BB12 -->
<g id="edge18" class="edge">
<title>BB11&#45;&gt;BB12</title>
<path fill="none" stroke="black" d="M182.05,-398.79C173.72,-388.36 164.77,-377.15 156.18,-366.4"/>
<polygon fill="black" stroke="black" points="158.68,-363.92 149.7,-358.29 153.21,-368.29 158.68,-363.92"/>
</g>
<!-- BB14 -->
<g id="node15" class="node">
<title>BB14</title>
<ellipse fill="none" stroke="black" cx="359.84" cy="-312.42" rx="113.69" ry="48.17"/>
<text text-anchor="middle" x="359.84" y="-331.22" font-family="Times New Roman,serif" font-size="14.00">[c4..d0)</text>
<text text-anchor="middle" x="359.84" y="-316.22" font-family="Times New Roman,serif" font-size="14.00">Count: 31068</text>
<text text-anchor="middle" x="359.84" y="-301.22" font-family="Times New Roman,serif" font-size="14.00">Normalized count: Infinity</text>
<text text-anchor="middle" x="359.84" y="-286.22" font-family="Times New Roman,serif" font-size="14.00">Samples weight: 0.09</text>
</g>
<!-- BB11&#45;&gt;BB14 -->
<g id="edge17" class="edge">
<title>BB11&#45;&gt;BB14</title>
<path fill="none" stroke="black" d="M264.73,-400.6C277.82,-388.6 292.15,-375.47 305.62,-363.12"/>
<polygon fill="black" stroke="black" points="308,-365.69 313,-356.35 303.27,-360.53 308,-365.69"/>
</g>
<!-- BB13 -->
<g id="node14" class="node">
<title>BB13</title>
<ellipse fill="none" stroke="black" cx="236.84" cy="-180.25" rx="113.69" ry="48.17"/>
<text text-anchor="middle" x="236.84" y="-199.05" font-family="Times New Roman,serif" font-size="14.00">[9e..c4)</text>
<text text-anchor="middle" x="236.84" y="-184.05" font-family="Times New Roman,serif" font-size="14.00">Count: 51194</text>
<text text-anchor="middle" x="236.84" y="-169.05" font-family="Times New Roman,serif" font-size="14.00">Normalized count: Infinity</text>
<text text-anchor="middle" x="236.84" y="-154.05" font-family="Times New Roman,serif" font-size="14.00">Samples weight: 0.15</text>
</g>
<!-- BB12&#45;&gt;BB13 -->
<g id="edge19" class="edge">
<title>BB12&#45;&gt;BB13</title>
<path fill="none" stroke="black" d="M155.49,-267.35C166.01,-256.22 177.39,-244.16 188.22,-232.7"/>
<polygon fill="black" stroke="black" points="190.92,-234.95 195.24,-225.27 185.83,-230.14 190.92,-234.95"/>
</g>
<!-- BB13&#45;&gt;BB13 -->
<g id="edge20" class="edge">
<title>BB13&#45;&gt;BB13</title>
<path fill="none" stroke="black" d="M336.03,-203.86C355.14,-201.07 368.69,-193.2 368.69,-180.25 368.69,-169.72 359.75,-162.56 346.14,-158.74"/>
<polygon fill="black" stroke="black" points="346.53,-155.25 336.03,-156.64 345.1,-162.1 346.53,-155.25"/>
</g>
<!-- BB13&#45;&gt;BB14 -->
<g id="edge21" class="edge">
<title>BB13&#45;&gt;BB14</title>
<path fill="none" stroke="black" d="M278.44,-225.27C288.96,-236.4 300.35,-248.45 311.18,-259.92"/>
<polygon fill="black" stroke="black" points="308.79,-262.48 318.2,-267.35 313.88,-257.68 308.79,-262.48"/>
</g>
<!-- BB14&#45;&gt;BB8 -->
<g id="edge22" class="edge">
<title>BB14&#45;&gt;BB8</title>
<path fill="none" stroke="black" d="M357.14,-360.68C354.61,-404.96 350.82,-471.21 348.12,-518.47"/>
<polygon fill="black" stroke="black" points="344.62,-518.36 347.54,-528.55 351.61,-518.76 344.62,-518.36"/>
</g>
<!-- BB16 -->
<g id="node17" class="node">
<title>BB16</title>
<ellipse fill="none" stroke="black" cx="1101.84" cy="-841.08" rx="113.69" ry="48.17"/>
<text text-anchor="middle" x="1101.84" y="-859.88" font-family="Times New Roman,serif" font-size="14.00">[d4..eb)</text>
<text text-anchor="middle" x="1101.84" y="-844.88" font-family="Times New Roman,serif" font-size="14.00">Count: 2882</text>
<text text-anchor="middle" x="1101.84" y="-829.88" font-family="Times New Roman,serif" font-size="14.00">Normalized count: Infinity</text>
<text text-anchor="middle" x="1101.84" y="-814.88" font-family="Times New Roman,serif" font-size="14.00">Samples weight: 0.01</text>
</g>
<!-- BB15&#45;&gt;BB16 -->
<g id="edge24" class="edge">
<title>BB15&#45;&gt;BB16</title>
<path fill="none" stroke="black" d="M926.01,-935.12C956.12,-919.19 991.46,-900.49 1022.52,-884.05"/>
<polygon fill="black" stroke="black" points="1024.38,-887.03 1031.59,-879.26 1021.11,-880.84 1024.38,-887.03"/>
</g>
<!-- BB17 -->
<g id="node18" class="node">
<title>BB17</title>
<ellipse fill="none" stroke="black" cx="855.84" cy="-841.08" rx="113.69" ry="48.17"/>
<text text-anchor="middle" x="855.84" y="-859.88" font-family="Times New Roman,serif" font-size="14.00">[eb..102)</text>
<text text-anchor="middle" x="855.84" y="-844.88" font-family="Times New Roman,serif" font-size="14.00">Count: 2548</text>
<text text-anchor="middle" x="855.84" y="-829.88" font-family="Times New Roman,serif" font-size="14.00">Normalized count: Infinity</text>
<text text-anchor="middle" x="855.84" y="-814.88" font-family="Times New Roman,serif" font-size="14.00">Samples weight: 0.01</text>
</g>
<!-- BB15&#45;&gt;BB17 -->
<g id="edge23" class="edge">
<title>BB15&#45;&gt;BB17</title>
<path fill="none" stroke="black" d="M855.84,-924.89C855.84,-916.62 855.84,-907.94 855.84,-899.43"/>
<polygon fill="black" stroke="black" points="859.34,-899.19 855.84,-889.19 852.34,-899.19 859.34,-899.19"/>
</g>
<!-- BB16&#45;&gt;BB3 -->
<g id="edge25" class="edge">
<title>BB16&#45;&gt;BB3</title>
<path fill="none" stroke="black" d="M1101.84,-889.35C1101.84,-933.62 1101.84,-999.87 1101.84,-1047.13"/>
<polygon fill="black" stroke="black" points="1098.34,-1047.21 1101.84,-1057.21 1105.34,-1047.21 1098.34,-1047.21"/>
</g>
<!-- BB26 -->
<g id="node27" class="node">
<title>BB26</title>
<ellipse fill="none" stroke="black" cx="884.84" cy="-708.92" rx="113.69" ry="48.17"/>
<text text-anchor="middle" x="884.84" y="-727.72" font-family="Times New Roman,serif" font-size="14.00">[164..169)</text>
<text text-anchor="middle" x="884.84" y="-712.72" font-family="Times New Roman,serif" font-size="14.00">Count: 4032</text>
<text text-anchor="middle" x="884.84" y="-697.72" font-family="Times New Roman,serif" font-size="14.00">Normalized count: Infinity</text>
<text text-anchor="middle" x="884.84" y="-682.72" font-family="Times New Roman,serif" font-size="14.00">Samples weight: 0.01</text>
</g>
<!-- BB17&#45;&gt;BB26 -->
<g id="edge26" class="edge">
<title>BB17&#45;&gt;BB26</title>
<path fill="none" stroke="black" d="M866.31,-793.09C868.22,-784.52 870.23,-775.49 872.2,-766.67"/>
<polygon fill="black" stroke="black" points="875.63,-767.36 874.39,-756.84 868.8,-765.84 875.63,-767.36"/>
</g>
<!-- BB18 -->
<g id="node19" class="node">
<title>BB18</title>
<ellipse fill="none" stroke="black" cx="912.84" cy="-576.75" rx="113.69" ry="48.17"/>
<text text-anchor="middle" x="912.84" y="-595.55" font-family="Times New Roman,serif" font-size="14.00">[102..10c)</text>
<text text-anchor="middle" x="912.84" y="-580.55" font-family="Times New Roman,serif" font-size="14.00">Count: 3986</text>
<text text-anchor="middle" x="912.84" y="-565.55" font-family="Times New Roman,serif" font-size="14.00">Normalized count: Infinity</text>
<text text-anchor="middle" x="912.84" y="-550.55" font-family="Times New Roman,serif" font-size="14.00">Samples weight: 0.01</text>
</g>
<!-- BB19 -->
<g id="node20" class="node">
<title>BB19</title>
<ellipse fill="none" stroke="black" cx="1220.84" cy="-444.58" rx="113.69" ry="48.17"/>
<text text-anchor="middle" x="1220.84" y="-463.38" font-family="Times New Roman,serif" font-size="14.00">[10c..119)</text>
<text text-anchor="middle" x="1220.84" y="-448.38" font-family="Times New Roman,serif" font-size="14.00">Count: 2871</text>
<text text-anchor="middle" x="1220.84" y="-433.38" font-family="Times New Roman,serif" font-size="14.00">Normalized count: Infinity</text>
<text text-anchor="middle" x="1220.84" y="-418.38" font-family="Times New Roman,serif" font-size="14.00">Samples weight: 0.01</text>
</g>
<!-- BB18&#45;&gt;BB19 -->
<g id="edge28" class="edge">
<title>BB18&#45;&gt;BB19</title>
<path fill="none" stroke="black" d="M992.16,-542.23C1035.01,-524.12 1088.04,-501.71 1132.24,-483.03"/>
<polygon fill="black" stroke="black" points="1133.68,-486.22 1141.53,-479.1 1130.95,-479.77 1133.68,-486.22"/>
</g>
<!-- BB20 -->
<g id="node21" class="node">
<title>BB20</title>
<ellipse fill="none" stroke="black" cx="912.84" cy="-444.58" rx="113.69" ry="48.17"/>
<text text-anchor="middle" x="912.84" y="-463.38" font-family="Times New Roman,serif" font-size="14.00">[119..11f)</text>
<text text-anchor="middle" x="912.84" y="-448.38" font-family="Times New Roman,serif" font-size="14.00">Count: 1087</text>
<text text-anchor="middle" x="912.84" y="-433.38" font-family="Times New Roman,serif" font-size="14.00">Normalized count: Infinity</text>
<text text-anchor="middle" x="912.84" y="-418.38" font-family="Times New Roman,serif" font-size="14.00">Samples weight: 0.00</text>
</g>
<!-- BB18&#45;&gt;BB20 -->
<g id="edge27" class="edge">
<title>BB18&#45;&gt;BB20</title>
<path fill="none" stroke="black" d="M912.84,-528.39C912.84,-520.12 912.84,-511.44 912.84,-502.93"/>
<polygon fill="black" stroke="black" points="916.34,-502.69 912.84,-492.69 909.34,-502.69 916.34,-502.69"/>
</g>
<!-- BB19&#45;&gt;BB3 -->
<g id="edge29" class="edge">
<title>BB19&#45;&gt;BB3</title>
<path fill="none" stroke="black" d="M1247.7,-491.37C1253.58,-503.18 1259.14,-516.11 1262.84,-528.67 1285.51,-605.51 1281.84,-627.8 1281.84,-707.92 1281.84,-842.08 1281.84,-842.08 1281.84,-842.08 1281.84,-929.51 1253.65,-951.66 1200.84,-1021.33 1191.14,-1034.14 1179.11,-1046.29 1166.82,-1057.14"/>
<polygon fill="black" stroke="black" points="1164.46,-1054.55 1159.16,-1063.72 1169.02,-1059.86 1164.46,-1054.55"/>
</g>
<!-- BB21 -->
<g id="node22" class="node">
<title>BB21</title>
<ellipse fill="none" stroke="black" cx="903.84" cy="-312.42" rx="104.8" ry="48.17"/>
<text text-anchor="middle" x="903.84" y="-331.22" font-family="Times New Roman,serif" font-size="14.00">[11f..130)</text>
<text text-anchor="middle" x="903.84" y="-316.22" font-family="Times New Roman,serif" font-size="14.00">Count: 0</text>
<text text-anchor="middle" x="903.84" y="-301.22" font-family="Times New Roman,serif" font-size="14.00">Normalized count: NaN</text>
<text text-anchor="middle" x="903.84" y="-286.22" font-family="Times New Roman,serif" font-size="14.00">Samples weight: 0.00</text>
</g>
<!-- BB20&#45;&gt;BB21 -->
<g id="edge31" class="edge">
<title>BB20&#45;&gt;BB21</title>
<path fill="none" stroke="black" d="M909.57,-396.22C909,-387.95 908.4,-379.27 907.81,-370.77"/>
<polygon fill="black" stroke="black" points="911.28,-370.26 907.1,-360.52 904.3,-370.74 911.28,-370.26"/>
</g>
<!-- BB22 -->
<g id="node23" class="node">
<title>BB22</title>
<ellipse fill="none" stroke="black" cx="1139.84" cy="-312.42" rx="113.69" ry="48.17"/>
<text text-anchor="middle" x="1139.84" y="-331.22" font-family="Times New Roman,serif" font-size="14.00">[130..140)</text>
<text text-anchor="middle" x="1139.84" y="-316.22" font-family="Times New Roman,serif" font-size="14.00">Count: 1132</text>
<text text-anchor="middle" x="1139.84" y="-301.22" font-family="Times New Roman,serif" font-size="14.00">Normalized count: Infinity</text>
<text text-anchor="middle" x="1139.84" y="-286.22" font-family="Times New Roman,serif" font-size="14.00">Samples weight: 0.00</text>
</g>
<!-- BB20&#45;&gt;BB22 -->
<g id="edge30" class="edge">
<title>BB20&#45;&gt;BB22</title>
<path fill="none" stroke="black" d="M979.42,-405.41C1006.1,-390.11 1036.97,-372.4 1064.47,-356.64"/>
<polygon fill="black" stroke="black" points="1066.34,-359.6 1073.27,-351.59 1062.86,-353.53 1066.34,-359.6"/>
</g>
<!-- BB24 -->
<g id="node25" class="node">
<title>BB24</title>
<ellipse fill="none" stroke="black" cx="1108.84" cy="-180.25" rx="113.69" ry="48.17"/>
<text text-anchor="middle" x="1108.84" y="-199.05" font-family="Times New Roman,serif" font-size="14.00">[150..156)</text>
<text text-anchor="middle" x="1108.84" y="-184.05" font-family="Times New Roman,serif" font-size="14.00">Count: 5312</text>
<text text-anchor="middle" x="1108.84" y="-169.05" font-family="Times New Roman,serif" font-size="14.00">Normalized count: Infinity</text>
<text text-anchor="middle" x="1108.84" y="-154.05" font-family="Times New Roman,serif" font-size="14.00">Samples weight: 0.02</text>
</g>
<!-- BB22&#45;&gt;BB24 -->
<g id="edge32" class="edge">
<title>BB22&#45;&gt;BB24</title>
<path fill="none" stroke="black" d="M1128.65,-264.42C1126.61,-255.85 1124.46,-246.83 1122.36,-238.01"/>
<polygon fill="black" stroke="black" points="1125.74,-237.09 1120.02,-228.17 1118.93,-238.71 1125.74,-237.09"/>
</g>
<!-- BB23 -->
<g id="node24" class="node">
<title>BB23</title>
<ellipse fill="none" stroke="black" cx="1108.84" cy="-48.08" rx="113.69" ry="48.17"/>
<text text-anchor="middle" x="1108.84" y="-66.88" font-family="Times New Roman,serif" font-size="14.00">[140..150)</text>
<text text-anchor="middle" x="1108.84" y="-51.88" font-family="Times New Roman,serif" font-size="14.00">Count: 4126</text>
<text text-anchor="middle" x="1108.84" y="-36.88" font-family="Times New Roman,serif" font-size="14.00">Normalized count: Infinity</text>
<text text-anchor="middle" x="1108.84" y="-21.88" font-family="Times New Roman,serif" font-size="14.00">Samples weight: 0.01</text>
</g>
<!-- BB23&#45;&gt;BB24 -->
<g id="edge33" class="edge">
<title>BB23&#45;&gt;BB24</title>
<path fill="none" stroke="black" d="M1115.36,-96.19C1115.58,-104.45 1115.65,-113.13 1115.55,-121.64"/>
<polygon fill="black" stroke="black" points="1112.05,-121.83 1115.37,-131.89 1119.05,-121.95 1112.05,-121.83"/>
</g>
<!-- BB24&#45;&gt;BB23 -->
<g id="edge34" class="edge">
<title>BB24&#45;&gt;BB23</title>
<path fill="none" stroke="black" d="M1102.32,-131.89C1102.1,-123.62 1102.04,-114.94 1102.14,-106.43"/>
<polygon fill="black" stroke="black" points="1105.64,-106.26 1102.33,-96.19 1098.64,-106.12 1105.64,-106.26"/>
</g>
<!-- BB25 -->
<g id="node26" class="node">
<title>BB25</title>
<ellipse fill="none" stroke="black" cx="831.84" cy="-48.08" rx="113.69" ry="48.17"/>
<text text-anchor="middle" x="831.84" y="-66.88" font-family="Times New Roman,serif" font-size="14.00">[156..164)</text>
<text text-anchor="middle" x="831.84" y="-51.88" font-family="Times New Roman,serif" font-size="14.00">Count: 1265</text>
<text text-anchor="middle" x="831.84" y="-36.88" font-family="Times New Roman,serif" font-size="14.00">Normalized count: Infinity</text>
<text text-anchor="middle" x="831.84" y="-21.88" font-family="Times New Roman,serif" font-size="14.00">Samples weight: 0.00</text>
</g>
<!-- BB24&#45;&gt;BB25 -->
<g id="edge35" class="edge">
<title>BB24&#45;&gt;BB25</title>
<path fill="none" stroke="black" d="M1033.88,-144.02C997.55,-126.95 953.76,-106.37 916.26,-88.75"/>
<polygon fill="black" stroke="black" points="917.4,-85.42 906.86,-84.34 914.43,-91.76 917.4,-85.42"/>
</g>
<!-- BB25&#45;&gt;BB26 -->
<g id="edge36" class="edge">
<title>BB25&#45;&gt;BB26</title>
<path fill="none" stroke="black" d="M814.2,-95.71C796.18,-147.59 770.84,-234.26 770.84,-311.42 770.84,-445.58 770.84,-445.58 770.84,-445.58 770.84,-525.7 752.93,-553.73 789.84,-624.83 796.8,-638.23 806.9,-650.44 817.94,-661.12"/>
<polygon fill="black" stroke="black" points="815.58,-663.71 825.3,-667.92 820.33,-658.57 815.58,-663.71"/>
</g>
<!-- BB26&#45;&gt;BB18 -->
<g id="edge37" class="edge">
<title>BB26&#45;&gt;BB18</title>
<path fill="none" stroke="black" d="M894.95,-660.92C896.8,-652.35 898.74,-643.33 900.64,-634.51"/>
<polygon fill="black" stroke="black" points="904.07,-635.19 902.75,-624.67 897.23,-633.71 904.07,-635.19"/>
</g>
<!-- BB27 -->
<g id="node28" class="node">
<title>BB27</title>
<ellipse fill="none" stroke="black" cx="1148.84" cy="-576.75" rx="104.8" ry="48.17"/>
<text text-anchor="middle" x="1148.84" y="-595.55" font-family="Times New Roman,serif" font-size="14.00">[169..16e)</text>
<text text-anchor="middle" x="1148.84" y="-580.55" font-family="Times New Roman,serif" font-size="14.00">Count: 0</text>
<text text-anchor="middle" x="1148.84" y="-565.55" font-family="Times New Roman,serif" font-size="14.00">Normalized count: NaN</text>
<text text-anchor="middle" x="1148.84" y="-550.55" font-family="Times New Roman,serif" font-size="14.00">Samples weight: 0.00</text>
</g>
<!-- BB26&#45;&gt;BB27 -->
<g id="edge38" class="edge">
<title>BB26&#45;&gt;BB27</title>
<path fill="none" stroke="black" d="M958.03,-671.83C992.49,-654.84 1033.67,-634.54 1068.94,-617.15"/>
<polygon fill="black" stroke="black" points="1070.83,-620.12 1078.25,-612.56 1067.73,-613.84 1070.83,-620.12"/>
</g>
<!-- BB27&#45;&gt;BB3 -->
<g id="edge39" class="edge">
<title>BB27&#45;&gt;BB3</title>
<path fill="none" stroke="black" d="M1174.49,-623.54C1205.28,-684.39 1249.81,-795.17 1224.84,-889.17 1208.93,-949.1 1171.97,-1009.75 1142.69,-1051.33"/>
<polygon fill="black" stroke="black" points="1139.72,-1049.47 1136.76,-1059.64 1145.42,-1053.53 1139.72,-1049.47"/>
</g>
</g>
</svg>
