<?xml version="1.0" encoding="UTF-8" standalone="no"?>
<!DOCTYPE svg PUBLIC "-//W3C//DTD SVG 1.1//EN"
 "http://www.w3.org/Graphics/SVG/1.1/DTD/svg11.dtd">
<!-- Generated by graphviz version 2.47.0 (20210316.0004)
 -->
<!-- Title: G Pages: 1 -->
<svg width="1459pt" height="1192pt"
 viewBox="0.00 0.00 1458.71 1192.49" xmlns="http://www.w3.org/2000/svg" xmlns:xlink="http://www.w3.org/1999/xlink">
<g id="graph0" class="graph" transform="scale(1 1) rotate(0) translate(4 1188.49)">
<title>G</title>
<polygon fill="white" stroke="transparent" points="-4,4 -4,-1188.49 1454.71,-1188.49 1454.71,4 -4,4"/>
<!-- BB0 -->
<g id="node1" class="node">
<title>BB0</title>
<ellipse fill="none" stroke="black" cx="170.35" cy="-1147.01" rx="105.22" ry="37.45"/>
<text text-anchor="middle" x="170.35" y="-1158.31" font-family="Times New Roman,serif" font-size="14.00">[0..1f)</text>
<text text-anchor="middle" x="170.35" y="-1143.31" font-family="Times New Roman,serif" font-size="14.00">Normalized Count: 1.00</text>
<text text-anchor="middle" x="170.35" y="-1128.31" font-family="Times New Roman,serif" font-size="14.00">Samples weight: 0.00</text>
</g>
<!-- BB1 -->
<g id="node2" class="node">
<title>BB1</title>
<ellipse fill="none" stroke="black" cx="170.35" cy="-1036.06" rx="105.22" ry="37.45"/>
<text text-anchor="middle" x="170.35" y="-1047.36" font-family="Times New Roman,serif" font-size="14.00">[1f..48)</text>
<text text-anchor="middle" x="170.35" y="-1032.36" font-family="Times New Roman,serif" font-size="14.00">Normalized Count: 1.00</text>
<text text-anchor="middle" x="170.35" y="-1017.36" font-family="Times New Roman,serif" font-size="14.00">Samples weight: 0.00</text>
</g>
<!-- BB0&#45;&gt;BB1 -->
<g id="edge1" class="edge">
<title>BB0&#45;&gt;BB1</title>
<path fill="none" stroke="black" d="M170.35,-1109.43C170.35,-1101.25 170.35,-1092.47 170.35,-1083.95"/>
<polygon fill="black" stroke="black" points="173.85,-1083.73 170.35,-1073.73 166.85,-1083.73 173.85,-1083.73"/>
</g>
<!-- BB1&#45;&gt;BB1 -->
<g id="edge2" class="edge">
<title>BB1&#45;&gt;BB1</title>
<path fill="none" stroke="black" d="M259.34,-1056.15C279.21,-1054.3 293.71,-1047.6 293.71,-1036.06 293.71,-1026.58 283.95,-1020.37 269.48,-1017.43"/>
<polygon fill="black" stroke="black" points="269.74,-1013.93 259.34,-1015.96 268.73,-1020.86 269.74,-1013.93"/>
</g>
<!-- BB2 -->
<g id="node3" class="node">
<title>BB2</title>
<ellipse fill="none" stroke="black" cx="170.35" cy="-925.1" rx="105.22" ry="37.45"/>
<text text-anchor="middle" x="170.35" y="-936.4" font-family="Times New Roman,serif" font-size="14.00">[48..6b)</text>
<text text-anchor="middle" x="170.35" y="-921.4" font-family="Times New Roman,serif" font-size="14.00">Normalized Count: 1.00</text>
<text text-anchor="middle" x="170.35" y="-906.4" font-family="Times New Roman,serif" font-size="14.00">Samples weight: 0.00</text>
</g>
<!-- BB1&#45;&gt;BB2 -->
<g id="edge3" class="edge">
<title>BB1&#45;&gt;BB2</title>
<path fill="none" stroke="black" d="M170.35,-998.47C170.35,-990.3 170.35,-981.52 170.35,-972.99"/>
<polygon fill="black" stroke="black" points="173.85,-972.78 170.35,-962.78 166.85,-972.78 173.85,-972.78"/>
</g>
<!-- BB4 -->
<g id="node5" class="node">
<title>BB4</title>
<ellipse fill="none" stroke="black" cx="170.35" cy="-814.15" rx="105.22" ry="37.45"/>
<text text-anchor="middle" x="170.35" y="-825.45" font-family="Times New Roman,serif" font-size="14.00">[8c..94)</text>
<text text-anchor="middle" x="170.35" y="-810.45" font-family="Times New Roman,serif" font-size="14.00">Normalized Count: 1.00</text>
<text text-anchor="middle" x="170.35" y="-795.45" font-family="Times New Roman,serif" font-size="14.00">Samples weight: 0.00</text>
</g>
<!-- BB2&#45;&gt;BB4 -->
<g id="edge4" class="edge">
<title>BB2&#45;&gt;BB4</title>
<path fill="none" stroke="black" d="M170.35,-887.52C170.35,-879.35 170.35,-870.57 170.35,-862.04"/>
<polygon fill="black" stroke="black" points="173.85,-861.82 170.35,-851.82 166.85,-861.82 173.85,-861.82"/>
</g>
<!-- BB3 -->
<g id="node4" class="node">
<title>BB3</title>
<ellipse fill="none" stroke="black" cx="170.35" cy="-703.2" rx="105.22" ry="37.45"/>
<text text-anchor="middle" x="170.35" y="-714.5" font-family="Times New Roman,serif" font-size="14.00">[6b..8c)</text>
<text text-anchor="middle" x="170.35" y="-699.5" font-family="Times New Roman,serif" font-size="14.00">Normalized Count: 0.00</text>
<text text-anchor="middle" x="170.35" y="-684.5" font-family="Times New Roman,serif" font-size="14.00">Samples weight: 0.00</text>
</g>
<!-- BB3&#45;&gt;BB4 -->
<g id="edge5" class="edge">
<title>BB3&#45;&gt;BB4</title>
<path fill="none" stroke="black" d="M176.77,-740.87C177.08,-749.05 177.17,-757.83 177.04,-766.35"/>
<polygon fill="black" stroke="black" points="173.54,-766.48 176.77,-776.57 180.53,-766.66 173.54,-766.48"/>
</g>
<!-- BB4&#45;&gt;BB3 -->
<g id="edge6" class="edge">
<title>BB4&#45;&gt;BB3</title>
<path fill="none" stroke="black" d="M163.93,-776.57C163.62,-768.39 163.53,-759.61 163.66,-751.09"/>
<polygon fill="black" stroke="black" points="167.16,-750.96 163.93,-740.87 160.17,-750.77 167.16,-750.96"/>
</g>
<!-- BB5 -->
<g id="node6" class="node">
<title>BB5</title>
<ellipse fill="none" stroke="black" cx="399.35" cy="-703.2" rx="105.22" ry="37.45"/>
<text text-anchor="middle" x="399.35" y="-714.5" font-family="Times New Roman,serif" font-size="14.00">[94..ab)</text>
<text text-anchor="middle" x="399.35" y="-699.5" font-family="Times New Roman,serif" font-size="14.00">Normalized Count: 1.00</text>
<text text-anchor="middle" x="399.35" y="-684.5" font-family="Times New Roman,serif" font-size="14.00">Samples weight: 0.00</text>
</g>
<!-- BB4&#45;&gt;BB5 -->
<g id="edge7" class="edge">
<title>BB4&#45;&gt;BB5</title>
<path fill="none" stroke="black" d="M232.32,-783.67C261.85,-769.62 297.33,-752.73 327.98,-738.15"/>
<polygon fill="black" stroke="black" points="329.8,-741.16 337.33,-733.7 326.8,-734.84 329.8,-741.16"/>
</g>
<!-- BB6 -->
<g id="node7" class="node">
<title>BB6</title>
<ellipse fill="none" stroke="black" cx="281.35" cy="-592.24" rx="105.22" ry="37.45"/>
<text text-anchor="middle" x="281.35" y="-603.54" font-family="Times New Roman,serif" font-size="14.00">[ab..c0)</text>
<text text-anchor="middle" x="281.35" y="-588.54" font-family="Times New Roman,serif" font-size="14.00">Normalized Count: 1.00</text>
<text text-anchor="middle" x="281.35" y="-573.54" font-family="Times New Roman,serif" font-size="14.00">Samples weight: 0.00</text>
</g>
<!-- BB5&#45;&gt;BB6 -->
<g id="edge9" class="edge">
<title>BB5&#45;&gt;BB6</title>
<path fill="none" stroke="black" d="M362.34,-668.02C350.92,-657.48 338.21,-645.75 326.32,-634.76"/>
<polygon fill="black" stroke="black" points="328.36,-631.88 318.64,-627.67 323.61,-637.03 328.36,-631.88"/>
</g>
<!-- BB10 -->
<g id="node11" class="node">
<title>BB10</title>
<ellipse fill="none" stroke="black" cx="517.35" cy="-592.24" rx="105.22" ry="37.45"/>
<text text-anchor="middle" x="517.35" y="-603.54" font-family="Times New Roman,serif" font-size="14.00">[ec..10f)</text>
<text text-anchor="middle" x="517.35" y="-588.54" font-family="Times New Roman,serif" font-size="14.00">Normalized Count: 0.00</text>
<text text-anchor="middle" x="517.35" y="-573.54" font-family="Times New Roman,serif" font-size="14.00">Samples weight: 0.00</text>
</g>
<!-- BB5&#45;&gt;BB10 -->
<g id="edge8" class="edge">
<title>BB5&#45;&gt;BB10</title>
<path fill="none" stroke="black" d="M436.36,-668.02C447.78,-657.48 460.49,-645.75 472.38,-634.76"/>
<polygon fill="black" stroke="black" points="475.09,-637.03 480.06,-627.67 470.34,-631.88 475.09,-637.03"/>
</g>
<!-- BB8 -->
<g id="node9" class="node">
<title>BB8</title>
<ellipse fill="none" stroke="black" cx="267.35" cy="-481.29" rx="134.2" ry="37.45"/>
<text text-anchor="middle" x="267.35" y="-492.59" font-family="Times New Roman,serif" font-size="14.00">[cf..d6)</text>
<text text-anchor="middle" x="267.35" y="-477.59" font-family="Times New Roman,serif" font-size="14.00">Normalized Count: 6355198.00</text>
<text text-anchor="middle" x="267.35" y="-462.59" font-family="Times New Roman,serif" font-size="14.00">Samples weight: 0.50</text>
</g>
<!-- BB6&#45;&gt;BB8 -->
<g id="edge10" class="edge">
<title>BB6&#45;&gt;BB8</title>
<path fill="none" stroke="black" d="M276.65,-554.66C275.59,-546.4 274.45,-537.51 273.34,-528.9"/>
<polygon fill="black" stroke="black" points="276.81,-528.43 272.06,-518.96 269.87,-529.33 276.81,-528.43"/>
</g>
<!-- BB7 -->
<g id="node8" class="node">
<title>BB7</title>
<ellipse fill="none" stroke="black" cx="134.35" cy="-370.34" rx="134.2" ry="37.45"/>
<text text-anchor="middle" x="134.35" y="-381.64" font-family="Times New Roman,serif" font-size="14.00">[c0..cf)</text>
<text text-anchor="middle" x="134.35" y="-366.64" font-family="Times New Roman,serif" font-size="14.00">Normalized Count: 6355197.00</text>
<text text-anchor="middle" x="134.35" y="-351.64" font-family="Times New Roman,serif" font-size="14.00">Samples weight: 0.50</text>
</g>
<!-- BB7&#45;&gt;BB8 -->
<g id="edge11" class="edge">
<title>BB7&#45;&gt;BB8</title>
<path fill="none" stroke="black" d="M182.49,-405.6C195.72,-416.05 209.98,-427.66 222.98,-438.55"/>
<polygon fill="black" stroke="black" points="220.99,-441.45 230.89,-445.22 225.5,-436.1 220.99,-441.45"/>
</g>
<!-- BB8&#45;&gt;BB7 -->
<g id="edge12" class="edge">
<title>BB8&#45;&gt;BB7</title>
<path fill="none" stroke="black" d="M219.32,-446.12C206.11,-435.68 191.86,-424.08 178.85,-413.19"/>
<polygon fill="black" stroke="black" points="180.84,-410.28 170.94,-406.52 176.33,-415.64 180.84,-410.28"/>
</g>
<!-- BB9 -->
<g id="node10" class="node">
<title>BB9</title>
<ellipse fill="none" stroke="black" cx="392.35" cy="-370.34" rx="105.22" ry="37.45"/>
<text text-anchor="middle" x="392.35" y="-381.64" font-family="Times New Roman,serif" font-size="14.00">[d6..ec)</text>
<text text-anchor="middle" x="392.35" y="-366.64" font-family="Times New Roman,serif" font-size="14.00">Normalized Count: 1.00</text>
<text text-anchor="middle" x="392.35" y="-351.64" font-family="Times New Roman,serif" font-size="14.00">Samples weight: 0.00</text>
</g>
<!-- BB8&#45;&gt;BB9 -->
<g id="edge13" class="edge">
<title>BB8&#45;&gt;BB9</title>
<path fill="none" stroke="black" d="M307.59,-445.22C319.76,-434.6 333.24,-422.86 345.79,-411.92"/>
<polygon fill="black" stroke="black" points="348.23,-414.44 353.47,-405.23 343.63,-409.16 348.23,-414.44"/>
</g>
<!-- BB15 -->
<g id="node16" class="node">
<title>BB15</title>
<ellipse fill="none" stroke="black" cx="591.35" cy="-481.29" rx="105.22" ry="37.45"/>
<text text-anchor="middle" x="591.35" y="-492.59" font-family="Times New Roman,serif" font-size="14.00">[150..158)</text>
<text text-anchor="middle" x="591.35" y="-477.59" font-family="Times New Roman,serif" font-size="14.00">Normalized Count: 0.00</text>
<text text-anchor="middle" x="591.35" y="-462.59" font-family="Times New Roman,serif" font-size="14.00">Samples weight: 0.00</text>
</g>
<!-- BB10&#45;&gt;BB15 -->
<g id="edge14" class="edge">
<title>BB10&#45;&gt;BB15</title>
<path fill="none" stroke="black" d="M541.58,-555.57C547.91,-546.26 554.8,-536.11 561.38,-526.41"/>
<polygon fill="black" stroke="black" points="564.34,-528.28 567.07,-518.05 558.55,-524.35 564.34,-528.28"/>
</g>
<!-- BB11 -->
<g id="node12" class="node">
<title>BB11</title>
<ellipse fill="none" stroke="black" cx="658.35" cy="-370.34" rx="105.22" ry="37.45"/>
<text text-anchor="middle" x="658.35" y="-381.64" font-family="Times New Roman,serif" font-size="14.00">[10f..132)</text>
<text text-anchor="middle" x="658.35" y="-366.64" font-family="Times New Roman,serif" font-size="14.00">Normalized Count: 0.00</text>
<text text-anchor="middle" x="658.35" y="-351.64" font-family="Times New Roman,serif" font-size="14.00">Samples weight: 0.00</text>
</g>
<!-- BB12 -->
<g id="node13" class="node">
<title>BB12</title>
<ellipse fill="none" stroke="black" cx="658.35" cy="-259.38" rx="105.22" ry="37.45"/>
<text text-anchor="middle" x="658.35" y="-270.68" font-family="Times New Roman,serif" font-size="14.00">[132..136)</text>
<text text-anchor="middle" x="658.35" y="-255.68" font-family="Times New Roman,serif" font-size="14.00">Normalized Count: 0.00</text>
<text text-anchor="middle" x="658.35" y="-240.68" font-family="Times New Roman,serif" font-size="14.00">Samples weight: 0.00</text>
</g>
<!-- BB11&#45;&gt;BB12 -->
<g id="edge16" class="edge">
<title>BB11&#45;&gt;BB12</title>
<path fill="none" stroke="black" d="M658.35,-332.75C658.35,-324.58 658.35,-315.8 658.35,-307.27"/>
<polygon fill="black" stroke="black" points="661.85,-307.06 658.35,-297.06 654.85,-307.06 661.85,-307.06"/>
</g>
<!-- BB13 -->
<g id="node14" class="node">
<title>BB13</title>
<ellipse fill="none" stroke="black" cx="887.35" cy="-259.38" rx="105.22" ry="37.45"/>
<text text-anchor="middle" x="887.35" y="-270.68" font-family="Times New Roman,serif" font-size="14.00">[136..140)</text>
<text text-anchor="middle" x="887.35" y="-255.68" font-family="Times New Roman,serif" font-size="14.00">Normalized Count: 0.00</text>
<text text-anchor="middle" x="887.35" y="-240.68" font-family="Times New Roman,serif" font-size="14.00">Samples weight: 0.00</text>
</g>
<!-- BB11&#45;&gt;BB13 -->
<g id="edge15" class="edge">
<title>BB11&#45;&gt;BB13</title>
<path fill="none" stroke="black" d="M720.32,-339.85C749.85,-325.8 785.33,-308.92 815.98,-294.34"/>
<polygon fill="black" stroke="black" points="817.8,-297.35 825.33,-289.89 814.8,-291.03 817.8,-297.35"/>
</g>
<!-- BB14 -->
<g id="node15" class="node">
<title>BB14</title>
<ellipse fill="none" stroke="black" cx="658.35" cy="-148.43" rx="105.22" ry="37.45"/>
<text text-anchor="middle" x="658.35" y="-159.73" font-family="Times New Roman,serif" font-size="14.00">[140..150)</text>
<text text-anchor="middle" x="658.35" y="-144.73" font-family="Times New Roman,serif" font-size="14.00">Normalized Count: 0.00</text>
<text text-anchor="middle" x="658.35" y="-129.73" font-family="Times New Roman,serif" font-size="14.00">Samples weight: 0.00</text>
</g>
<!-- BB12&#45;&gt;BB14 -->
<g id="edge17" class="edge">
<title>BB12&#45;&gt;BB14</title>
<path fill="none" stroke="black" d="M658.35,-221.8C658.35,-213.63 658.35,-204.85 658.35,-196.32"/>
<polygon fill="black" stroke="black" points="661.85,-196.1 658.35,-186.1 654.85,-196.1 661.85,-196.1"/>
</g>
<!-- BB13&#45;&gt;BB14 -->
<g id="edge18" class="edge">
<title>BB13&#45;&gt;BB14</title>
<path fill="none" stroke="black" d="M825.38,-228.9C795.85,-214.85 760.37,-197.97 729.72,-183.38"/>
<polygon fill="black" stroke="black" points="730.9,-180.07 720.37,-178.94 727.9,-186.39 730.9,-180.07"/>
</g>
<!-- BB14&#45;&gt;BB15 -->
<g id="edge19" class="edge">
<title>BB14&#45;&gt;BB15</title>
<path fill="none" stroke="black" d="M590.73,-177.27C572.38,-188.32 554.74,-202.99 544.35,-221.91 504.57,-294.33 520.91,-328.58 544.35,-407.81 547.25,-417.63 551.95,-427.36 557.28,-436.36"/>
<polygon fill="black" stroke="black" points="554.48,-438.49 562.77,-445.09 560.41,-434.76 554.48,-438.49"/>
</g>
<!-- BB15&#45;&gt;BB11 -->
<g id="edge20" class="edge">
<title>BB15&#45;&gt;BB11</title>
<path fill="none" stroke="black" d="M613.29,-444.61C618.96,-435.4 625.13,-425.36 631.04,-415.76"/>
<polygon fill="black" stroke="black" points="634.11,-417.44 636.36,-407.09 628.14,-413.78 634.11,-417.44"/>
</g>
<!-- BB16 -->
<g id="node17" class="node">
<title>BB16</title>
<ellipse fill="none" stroke="black" cx="1116.35" cy="-370.34" rx="105.22" ry="37.45"/>
<text text-anchor="middle" x="1116.35" y="-381.64" font-family="Times New Roman,serif" font-size="14.00">[158..167)</text>
<text text-anchor="middle" x="1116.35" y="-366.64" font-family="Times New Roman,serif" font-size="14.00">Normalized Count: 0.00</text>
<text text-anchor="middle" x="1116.35" y="-351.64" font-family="Times New Roman,serif" font-size="14.00">Samples weight: 0.00</text>
</g>
<!-- BB15&#45;&gt;BB16 -->
<g id="edge21" class="edge">
<title>BB15&#45;&gt;BB16</title>
<path fill="none" stroke="black" d="M681.3,-461.62C774.41,-442.3 919.51,-412.19 1016.21,-392.12"/>
<polygon fill="black" stroke="black" points="1017.21,-395.49 1026.29,-390.03 1015.79,-388.63 1017.21,-395.49"/>
</g>
<!-- BB17 -->
<g id="node18" class="node">
<title>BB17</title>
<ellipse fill="none" stroke="black" cx="1116.35" cy="-259.38" rx="105.22" ry="37.45"/>
<text text-anchor="middle" x="1116.35" y="-270.68" font-family="Times New Roman,serif" font-size="14.00">[167..1b8)</text>
<text text-anchor="middle" x="1116.35" y="-255.68" font-family="Times New Roman,serif" font-size="14.00">Normalized Count: 0.00</text>
<text text-anchor="middle" x="1116.35" y="-240.68" font-family="Times New Roman,serif" font-size="14.00">Samples weight: 0.00</text>
</g>
<!-- BB16&#45;&gt;BB17 -->
<g id="edge23" class="edge">
<title>BB16&#45;&gt;BB17</title>
<path fill="none" stroke="black" d="M1116.35,-332.75C1116.35,-324.58 1116.35,-315.8 1116.35,-307.27"/>
<polygon fill="black" stroke="black" points="1119.85,-307.06 1116.35,-297.06 1112.85,-307.06 1119.85,-307.06"/>
</g>
<!-- BB20 -->
<g id="node21" class="node">
<title>BB20</title>
<ellipse fill="none" stroke="black" cx="1345.35" cy="-259.38" rx="105.22" ry="37.45"/>
<text text-anchor="middle" x="1345.35" y="-270.68" font-family="Times New Roman,serif" font-size="14.00">[1ce..1cf)</text>
<text text-anchor="middle" x="1345.35" y="-255.68" font-family="Times New Roman,serif" font-size="14.00">Normalized Count: 0.00</text>
<text text-anchor="middle" x="1345.35" y="-240.68" font-family="Times New Roman,serif" font-size="14.00">Samples weight: 0.00</text>
</g>
<!-- BB16&#45;&gt;BB20 -->
<g id="edge22" class="edge">
<title>BB16&#45;&gt;BB20</title>
<path fill="none" stroke="black" d="M1178.32,-339.85C1207.85,-325.8 1243.33,-308.92 1273.98,-294.34"/>
<polygon fill="black" stroke="black" points="1275.8,-297.35 1283.33,-289.89 1272.8,-291.03 1275.8,-297.35"/>
</g>
<!-- BB19 -->
<g id="node20" class="node">
<title>BB19</title>
<ellipse fill="none" stroke="black" cx="1230.35" cy="-148.43" rx="105.22" ry="37.45"/>
<text text-anchor="middle" x="1230.35" y="-159.73" font-family="Times New Roman,serif" font-size="14.00">[1c8..1ce)</text>
<text text-anchor="middle" x="1230.35" y="-144.73" font-family="Times New Roman,serif" font-size="14.00">Normalized Count: 0.00</text>
<text text-anchor="middle" x="1230.35" y="-129.73" font-family="Times New Roman,serif" font-size="14.00">Samples weight: 0.00</text>
</g>
<!-- BB17&#45;&gt;BB19 -->
<g id="edge24" class="edge">
<title>BB17&#45;&gt;BB19</title>
<path fill="none" stroke="black" d="M1152.42,-223.91C1163.44,-213.37 1175.68,-201.68 1187.13,-190.74"/>
<polygon fill="black" stroke="black" points="1189.7,-193.12 1194.51,-183.68 1184.87,-188.06 1189.7,-193.12"/>
</g>
<!-- BB18 -->
<g id="node19" class="node">
<title>BB18</title>
<ellipse fill="none" stroke="black" cx="1230.35" cy="-37.48" rx="105.22" ry="37.45"/>
<text text-anchor="middle" x="1230.35" y="-48.78" font-family="Times New Roman,serif" font-size="14.00">[1b8..1c8)</text>
<text text-anchor="middle" x="1230.35" y="-33.78" font-family="Times New Roman,serif" font-size="14.00">Normalized Count: 0.00</text>
<text text-anchor="middle" x="1230.35" y="-18.78" font-family="Times New Roman,serif" font-size="14.00">Samples weight: 0.00</text>
</g>
<!-- BB18&#45;&gt;BB19 -->
<g id="edge25" class="edge">
<title>BB18&#45;&gt;BB19</title>
<path fill="none" stroke="black" d="M1236.77,-75.15C1237.08,-83.33 1237.17,-92.11 1237.04,-100.63"/>
<polygon fill="black" stroke="black" points="1233.54,-100.76 1236.77,-110.85 1240.53,-100.94 1233.54,-100.76"/>
</g>
<!-- BB19&#45;&gt;BB18 -->
<g id="edge26" class="edge">
<title>BB19&#45;&gt;BB18</title>
<path fill="none" stroke="black" d="M1223.93,-110.85C1223.62,-102.67 1223.53,-93.89 1223.66,-85.37"/>
<polygon fill="black" stroke="black" points="1227.16,-85.24 1223.93,-75.15 1220.17,-85.05 1227.16,-85.24"/>
</g>
<!-- BB19&#45;&gt;BB20 -->
<g id="edge27" class="edge">
<title>BB19&#45;&gt;BB20</title>
<path fill="none" stroke="black" d="M1266.5,-183.68C1277.6,-194.2 1289.94,-205.89 1301.5,-216.84"/>
<polygon fill="black" stroke="black" points="1299.3,-219.57 1308.96,-223.91 1304.11,-214.49 1299.3,-219.57"/>
</g>
</g>
</svg>
