<?xml version="1.0" encoding="UTF-8" standalone="no"?>
<!DOCTYPE svg PUBLIC "-//W3C//DTD SVG 1.1//EN"
 "http://www.w3.org/Graphics/SVG/1.1/DTD/svg11.dtd">
<!-- Generated by graphviz version 2.47.0 (20210316.0004)
 -->
<!-- Title: G Pages: 1 -->
<svg width="1172pt" height="971pt"
 viewBox="0.00 0.00 1171.72 970.58" xmlns="http://www.w3.org/2000/svg" xmlns:xlink="http://www.w3.org/1999/xlink">
<g id="graph0" class="graph" transform="scale(1 1) rotate(0) translate(4 966.58)">
<title>G</title>
<polygon fill="white" stroke="transparent" points="-4,4 -4,-966.58 1167.72,-966.58 1167.72,4 -4,4"/>
<!-- BB0 -->
<g id="node1" class="node">
<title>BB0</title>
<ellipse fill="none" stroke="black" cx="334.36" cy="-925.1" rx="105.22" ry="37.45"/>
<text text-anchor="middle" x="334.36" y="-936.4" font-family="Times New Roman,serif" font-size="14.00">[0..b)</text>
<text text-anchor="middle" x="334.36" y="-921.4" font-family="Times New Roman,serif" font-size="14.00">Normalized Count: 1.00</text>
<text text-anchor="middle" x="334.36" y="-906.4" font-family="Times New Roman,serif" font-size="14.00">Samples weight: 0.00</text>
</g>
<!-- BB5 -->
<g id="node6" class="node">
<title>BB5</title>
<ellipse fill="none" stroke="black" cx="334.36" cy="-814.15" rx="105.22" ry="37.45"/>
<text text-anchor="middle" x="334.36" y="-825.45" font-family="Times New Roman,serif" font-size="14.00">[27..2c)</text>
<text text-anchor="middle" x="334.36" y="-810.45" font-family="Times New Roman,serif" font-size="14.00">Normalized Count: 1.67</text>
<text text-anchor="middle" x="334.36" y="-795.45" font-family="Times New Roman,serif" font-size="14.00">Samples weight: 0.00</text>
</g>
<!-- BB0&#45;&gt;BB5 -->
<g id="edge1" class="edge">
<title>BB0&#45;&gt;BB5</title>
<path fill="none" stroke="black" d="M334.36,-887.52C334.36,-879.35 334.36,-870.57 334.36,-862.04"/>
<polygon fill="black" stroke="black" points="337.86,-861.82 334.36,-851.82 330.86,-861.82 337.86,-861.82"/>
</g>
<!-- BB1 -->
<g id="node2" class="node">
<title>BB1</title>
<ellipse fill="none" stroke="black" cx="334.36" cy="-703.2" rx="105.22" ry="37.45"/>
<text text-anchor="middle" x="334.36" y="-714.5" font-family="Times New Roman,serif" font-size="14.00">[b..f)</text>
<text text-anchor="middle" x="334.36" y="-699.5" font-family="Times New Roman,serif" font-size="14.00">Normalized Count: 0.67</text>
<text text-anchor="middle" x="334.36" y="-684.5" font-family="Times New Roman,serif" font-size="14.00">Samples weight: 0.00</text>
</g>
<!-- BB3 -->
<g id="node4" class="node">
<title>BB3</title>
<ellipse fill="none" stroke="black" cx="334.36" cy="-592.24" rx="105.22" ry="37.45"/>
<text text-anchor="middle" x="334.36" y="-603.54" font-family="Times New Roman,serif" font-size="14.00">[1e..23)</text>
<text text-anchor="middle" x="334.36" y="-588.54" font-family="Times New Roman,serif" font-size="14.00">Normalized Count: 9.67</text>
<text text-anchor="middle" x="334.36" y="-573.54" font-family="Times New Roman,serif" font-size="14.00">Samples weight: 0.02</text>
</g>
<!-- BB1&#45;&gt;BB3 -->
<g id="edge2" class="edge">
<title>BB1&#45;&gt;BB3</title>
<path fill="none" stroke="black" d="M334.36,-665.61C334.36,-657.44 334.36,-648.66 334.36,-640.13"/>
<polygon fill="black" stroke="black" points="337.86,-639.92 334.36,-629.92 330.86,-639.92 337.86,-639.92"/>
</g>
<!-- BB2 -->
<g id="node3" class="node">
<title>BB2</title>
<ellipse fill="none" stroke="black" cx="334.36" cy="-481.29" rx="105.22" ry="37.45"/>
<text text-anchor="middle" x="334.36" y="-492.59" font-family="Times New Roman,serif" font-size="14.00">[f..1e)</text>
<text text-anchor="middle" x="334.36" y="-477.59" font-family="Times New Roman,serif" font-size="14.00">Normalized Count: 9.00</text>
<text text-anchor="middle" x="334.36" y="-462.59" font-family="Times New Roman,serif" font-size="14.00">Samples weight: 0.02</text>
</g>
<!-- BB2&#45;&gt;BB3 -->
<g id="edge3" class="edge">
<title>BB2&#45;&gt;BB3</title>
<path fill="none" stroke="black" d="M340.78,-518.96C341.09,-527.14 341.18,-535.92 341.05,-544.45"/>
<polygon fill="black" stroke="black" points="337.54,-544.57 340.77,-554.66 344.54,-544.76 337.54,-544.57"/>
</g>
<!-- BB3&#45;&gt;BB2 -->
<g id="edge4" class="edge">
<title>BB3&#45;&gt;BB2</title>
<path fill="none" stroke="black" d="M327.94,-554.66C327.63,-546.49 327.54,-537.71 327.67,-529.18"/>
<polygon fill="black" stroke="black" points="331.17,-529.05 327.94,-518.96 324.17,-528.86 331.17,-529.05"/>
</g>
<!-- BB4 -->
<g id="node5" class="node">
<title>BB4</title>
<ellipse fill="none" stroke="black" cx="105.36" cy="-481.29" rx="105.22" ry="37.45"/>
<text text-anchor="middle" x="105.36" y="-492.59" font-family="Times New Roman,serif" font-size="14.00">[23..27)</text>
<text text-anchor="middle" x="105.36" y="-477.59" font-family="Times New Roman,serif" font-size="14.00">Normalized Count: 0.67</text>
<text text-anchor="middle" x="105.36" y="-462.59" font-family="Times New Roman,serif" font-size="14.00">Samples weight: 0.00</text>
</g>
<!-- BB3&#45;&gt;BB4 -->
<g id="edge5" class="edge">
<title>BB3&#45;&gt;BB4</title>
<path fill="none" stroke="black" d="M272.39,-561.76C242.86,-547.71 207.38,-530.83 176.72,-516.24"/>
<polygon fill="black" stroke="black" points="177.91,-512.93 167.38,-511.8 174.91,-519.25 177.91,-512.93"/>
</g>
<!-- BB4&#45;&gt;BB5 -->
<g id="edge6" class="edge">
<title>BB4&#45;&gt;BB5</title>
<path fill="none" stroke="black" d="M114.36,-518.94C129.05,-572.63 162.48,-673.56 220.36,-740.67 232.7,-754.98 248.57,-767.47 264.52,-777.85"/>
<polygon fill="black" stroke="black" points="263.03,-781.06 273.36,-783.41 266.76,-775.13 263.03,-781.06"/>
</g>
<!-- BB5&#45;&gt;BB1 -->
<g id="edge7" class="edge">
<title>BB5&#45;&gt;BB1</title>
<path fill="none" stroke="black" d="M334.36,-776.57C334.36,-768.39 334.36,-759.61 334.36,-751.09"/>
<polygon fill="black" stroke="black" points="337.86,-750.87 334.36,-740.87 330.86,-750.87 337.86,-750.87"/>
</g>
<!-- BB6 -->
<g id="node7" class="node">
<title>BB6</title>
<ellipse fill="none" stroke="black" cx="572.36" cy="-703.2" rx="105.22" ry="37.45"/>
<text text-anchor="middle" x="572.36" y="-714.5" font-family="Times New Roman,serif" font-size="14.00">[2c..30)</text>
<text text-anchor="middle" x="572.36" y="-699.5" font-family="Times New Roman,serif" font-size="14.00">Normalized Count: 1.00</text>
<text text-anchor="middle" x="572.36" y="-684.5" font-family="Times New Roman,serif" font-size="14.00">Samples weight: 0.00</text>
</g>
<!-- BB5&#45;&gt;BB6 -->
<g id="edge8" class="edge">
<title>BB5&#45;&gt;BB6</title>
<path fill="none" stroke="black" d="M397.83,-784.1C429.16,-769.75 467.11,-752.38 499.61,-737.5"/>
<polygon fill="black" stroke="black" points="501.43,-740.51 509.07,-733.17 498.52,-734.15 501.43,-740.51"/>
</g>
<!-- BB13 -->
<g id="node14" class="node">
<title>BB13</title>
<ellipse fill="none" stroke="black" cx="590.36" cy="-592.24" rx="105.22" ry="37.45"/>
<text text-anchor="middle" x="590.36" y="-603.54" font-family="Times New Roman,serif" font-size="14.00">[70..75)</text>
<text text-anchor="middle" x="590.36" y="-588.54" font-family="Times New Roman,serif" font-size="14.00">Normalized Count: 1.33</text>
<text text-anchor="middle" x="590.36" y="-573.54" font-family="Times New Roman,serif" font-size="14.00">Samples weight: 0.00</text>
</g>
<!-- BB6&#45;&gt;BB13 -->
<g id="edge9" class="edge">
<title>BB6&#45;&gt;BB13</title>
<path fill="none" stroke="black" d="M578.4,-665.61C579.77,-657.35 581.24,-648.47 582.66,-639.85"/>
<polygon fill="black" stroke="black" points="586.12,-640.35 584.3,-629.92 579.22,-639.21 586.12,-640.35"/>
</g>
<!-- BB7 -->
<g id="node8" class="node">
<title>BB7</title>
<ellipse fill="none" stroke="black" cx="600.36" cy="-481.29" rx="105.22" ry="37.45"/>
<text text-anchor="middle" x="600.36" y="-492.59" font-family="Times New Roman,serif" font-size="14.00">[30..34)</text>
<text text-anchor="middle" x="600.36" y="-477.59" font-family="Times New Roman,serif" font-size="14.00">Normalized Count: 0.33</text>
<text text-anchor="middle" x="600.36" y="-462.59" font-family="Times New Roman,serif" font-size="14.00">Samples weight: 0.00</text>
</g>
<!-- BB11 -->
<g id="node12" class="node">
<title>BB11</title>
<ellipse fill="none" stroke="black" cx="600.36" cy="-370.34" rx="105.22" ry="37.45"/>
<text text-anchor="middle" x="600.36" y="-381.64" font-family="Times New Roman,serif" font-size="14.00">[67..6c)</text>
<text text-anchor="middle" x="600.36" y="-366.64" font-family="Times New Roman,serif" font-size="14.00">Normalized Count: 2.33</text>
<text text-anchor="middle" x="600.36" y="-351.64" font-family="Times New Roman,serif" font-size="14.00">Samples weight: 0.01</text>
</g>
<!-- BB7&#45;&gt;BB11 -->
<g id="edge10" class="edge">
<title>BB7&#45;&gt;BB11</title>
<path fill="none" stroke="black" d="M600.36,-443.71C600.36,-435.53 600.36,-426.75 600.36,-418.23"/>
<polygon fill="black" stroke="black" points="603.86,-418.01 600.36,-408.01 596.86,-418.01 603.86,-418.01"/>
</g>
<!-- BB8 -->
<g id="node9" class="node">
<title>BB8</title>
<ellipse fill="none" stroke="black" cx="738.36" cy="-259.38" rx="105.22" ry="37.45"/>
<text text-anchor="middle" x="738.36" y="-270.68" font-family="Times New Roman,serif" font-size="14.00">[34..36)</text>
<text text-anchor="middle" x="738.36" y="-255.68" font-family="Times New Roman,serif" font-size="14.00">Normalized Count: 2.00</text>
<text text-anchor="middle" x="738.36" y="-240.68" font-family="Times New Roman,serif" font-size="14.00">Samples weight: 0.00</text>
</g>
<!-- BB9 -->
<g id="node10" class="node">
<title>BB9</title>
<ellipse fill="none" stroke="black" cx="743.36" cy="-148.43" rx="115.02" ry="37.45"/>
<text text-anchor="middle" x="743.36" y="-159.73" font-family="Times New Roman,serif" font-size="14.00">[36..63)</text>
<text text-anchor="middle" x="743.36" y="-144.73" font-family="Times New Roman,serif" font-size="14.00">Normalized Count: 432.33</text>
<text text-anchor="middle" x="743.36" y="-129.73" font-family="Times New Roman,serif" font-size="14.00">Samples weight: 0.93</text>
</g>
<!-- BB8&#45;&gt;BB9 -->
<g id="edge11" class="edge">
<title>BB8&#45;&gt;BB9</title>
<path fill="none" stroke="black" d="M740.04,-221.8C740.41,-213.63 740.82,-204.85 741.21,-196.32"/>
<polygon fill="black" stroke="black" points="744.71,-196.25 741.68,-186.1 737.72,-195.93 744.71,-196.25"/>
</g>
<!-- BB9&#45;&gt;BB9 -->
<g id="edge12" class="edge">
<title>BB9&#45;&gt;BB9</title>
<path fill="none" stroke="black" d="M840.98,-168.39C861.67,-166.36 876.62,-159.71 876.62,-148.43 876.62,-139.09 866.37,-132.92 851.09,-129.93"/>
<polygon fill="black" stroke="black" points="851.37,-126.43 840.98,-128.47 850.38,-133.36 851.37,-126.43"/>
</g>
<!-- BB10 -->
<g id="node11" class="node">
<title>BB10</title>
<ellipse fill="none" stroke="black" cx="671.36" cy="-37.48" rx="105.22" ry="37.45"/>
<text text-anchor="middle" x="671.36" y="-48.78" font-family="Times New Roman,serif" font-size="14.00">[63..67)</text>
<text text-anchor="middle" x="671.36" y="-33.78" font-family="Times New Roman,serif" font-size="14.00">Normalized Count: 2.00</text>
<text text-anchor="middle" x="671.36" y="-18.78" font-family="Times New Roman,serif" font-size="14.00">Samples weight: 0.00</text>
</g>
<!-- BB9&#45;&gt;BB10 -->
<g id="edge13" class="edge">
<title>BB9&#45;&gt;BB10</title>
<path fill="none" stroke="black" d="M719.58,-111.45C713.5,-102.25 706.89,-92.24 700.56,-82.67"/>
<polygon fill="black" stroke="black" points="703.3,-80.46 694.86,-74.04 697.46,-84.32 703.3,-80.46"/>
</g>
<!-- BB10&#45;&gt;BB11 -->
<g id="edge14" class="edge">
<title>BB10&#45;&gt;BB11</title>
<path fill="none" stroke="black" d="M640.39,-73.48C632.12,-84.72 624.16,-97.7 619.36,-110.95 593.84,-181.32 593.47,-269.38 596.34,-322.4"/>
<polygon fill="black" stroke="black" points="592.85,-322.75 596.95,-332.52 599.84,-322.33 592.85,-322.75"/>
</g>
<!-- BB11&#45;&gt;BB8 -->
<g id="edge15" class="edge">
<title>BB11&#45;&gt;BB8</title>
<path fill="none" stroke="black" d="M642.89,-335.76C657.06,-324.57 672.98,-312 687.7,-300.38"/>
<polygon fill="black" stroke="black" points="690.05,-302.98 695.73,-294.04 685.71,-297.49 690.05,-302.98"/>
</g>
<!-- BB12 -->
<g id="node13" class="node">
<title>BB12</title>
<ellipse fill="none" stroke="black" cx="467.36" cy="-259.38" rx="105.22" ry="37.45"/>
<text text-anchor="middle" x="467.36" y="-270.68" font-family="Times New Roman,serif" font-size="14.00">[6c..70)</text>
<text text-anchor="middle" x="467.36" y="-255.68" font-family="Times New Roman,serif" font-size="14.00">Normalized Count: 0.33</text>
<text text-anchor="middle" x="467.36" y="-240.68" font-family="Times New Roman,serif" font-size="14.00">Samples weight: 0.00</text>
</g>
<!-- BB11&#45;&gt;BB12 -->
<g id="edge16" class="edge">
<title>BB11&#45;&gt;BB12</title>
<path fill="none" stroke="black" d="M559.37,-335.76C545.72,-324.57 530.37,-312 516.19,-300.38"/>
<polygon fill="black" stroke="black" points="518.4,-297.67 508.44,-294.04 513.96,-303.08 518.4,-297.67"/>
</g>
<!-- BB12&#45;&gt;BB13 -->
<g id="edge17" class="edge">
<title>BB12&#45;&gt;BB13</title>
<path fill="none" stroke="black" d="M460.73,-297.02C453.13,-349.81 446.4,-448.61 486.36,-518.77 494.61,-533.26 507.09,-545.52 520.57,-555.6"/>
<polygon fill="black" stroke="black" points="518.88,-558.69 529.07,-561.6 522.92,-552.97 518.88,-558.69"/>
</g>
<!-- BB13&#45;&gt;BB7 -->
<g id="edge18" class="edge">
<title>BB13&#45;&gt;BB7</title>
<path fill="none" stroke="black" d="M593.72,-554.66C594.47,-546.49 595.27,-537.71 596.06,-529.18"/>
<polygon fill="black" stroke="black" points="599.56,-529.24 596.99,-518.96 592.59,-528.6 599.56,-529.24"/>
</g>
<!-- BB14 -->
<g id="node15" class="node">
<title>BB14</title>
<ellipse fill="none" stroke="black" cx="829.36" cy="-481.29" rx="105.22" ry="37.45"/>
<text text-anchor="middle" x="829.36" y="-492.59" font-family="Times New Roman,serif" font-size="14.00">[75..7e)</text>
<text text-anchor="middle" x="829.36" y="-477.59" font-family="Times New Roman,serif" font-size="14.00">Normalized Count: 1.00</text>
<text text-anchor="middle" x="829.36" y="-462.59" font-family="Times New Roman,serif" font-size="14.00">Samples weight: 0.00</text>
</g>
<!-- BB13&#45;&gt;BB14 -->
<g id="edge19" class="edge">
<title>BB13&#45;&gt;BB14</title>
<path fill="none" stroke="black" d="M654.09,-562.19C685.56,-547.85 723.67,-530.47 756.31,-515.59"/>
<polygon fill="black" stroke="black" points="758.16,-518.6 765.8,-511.26 755.25,-512.23 758.16,-518.6"/>
</g>
<!-- BB15 -->
<g id="node16" class="node">
<title>BB15</title>
<ellipse fill="none" stroke="black" cx="829.36" cy="-370.34" rx="105.22" ry="37.45"/>
<text text-anchor="middle" x="829.36" y="-381.64" font-family="Times New Roman,serif" font-size="14.00">[7e..80)</text>
<text text-anchor="middle" x="829.36" y="-366.64" font-family="Times New Roman,serif" font-size="14.00">Normalized Count: 0.00</text>
<text text-anchor="middle" x="829.36" y="-351.64" font-family="Times New Roman,serif" font-size="14.00">Samples weight: 0.00</text>
</g>
<!-- BB14&#45;&gt;BB15 -->
<g id="edge21" class="edge">
<title>BB14&#45;&gt;BB15</title>
<path fill="none" stroke="black" d="M829.36,-443.71C829.36,-435.53 829.36,-426.75 829.36,-418.23"/>
<polygon fill="black" stroke="black" points="832.86,-418.01 829.36,-408.01 825.86,-418.01 832.86,-418.01"/>
</g>
<!-- BB16 -->
<g id="node17" class="node">
<title>BB16</title>
<ellipse fill="none" stroke="black" cx="1058.36" cy="-370.34" rx="105.22" ry="37.45"/>
<text text-anchor="middle" x="1058.36" y="-381.64" font-family="Times New Roman,serif" font-size="14.00">[80..82)</text>
<text text-anchor="middle" x="1058.36" y="-366.64" font-family="Times New Roman,serif" font-size="14.00">Normalized Count: 1.00</text>
<text text-anchor="middle" x="1058.36" y="-351.64" font-family="Times New Roman,serif" font-size="14.00">Samples weight: 0.00</text>
</g>
<!-- BB14&#45;&gt;BB16 -->
<g id="edge20" class="edge">
<title>BB14&#45;&gt;BB16</title>
<path fill="none" stroke="black" d="M891.33,-450.81C920.86,-436.76 956.34,-419.87 986.99,-405.29"/>
<polygon fill="black" stroke="black" points="988.81,-408.3 996.34,-400.84 985.8,-401.98 988.81,-408.3"/>
</g>
</g>
</svg>
