<?xml version="1.0" encoding="UTF-8" standalone="no"?>
<!DOCTYPE svg PUBLIC "-//W3C//DTD SVG 1.1//EN"
 "http://www.w3.org/Graphics/SVG/1.1/DTD/svg11.dtd">
<!-- Generated by graphviz version 2.47.0 (20210316.0004)
 -->
<!-- Title: G Pages: 1 -->
<svg width="603pt" height="749pt"
 viewBox="0.00 0.00 602.55 748.67" xmlns="http://www.w3.org/2000/svg" xmlns:xlink="http://www.w3.org/1999/xlink">
<g id="graph0" class="graph" transform="scale(1 1) rotate(0) translate(4 744.67)">
<title>G</title>
<polygon fill="white" stroke="transparent" points="-4,4 -4,-744.67 598.55,-744.67 598.55,4 -4,4"/>
<!-- BB0 -->
<g id="node1" class="node">
<title>BB0</title>
<ellipse fill="none" stroke="black" cx="246.77" cy="-703.2" rx="106.55" ry="37.45"/>
<text text-anchor="middle" x="246.77" y="-714.5" font-family="Times New Roman,serif" font-size="14.00">[0..7)</text>
<text text-anchor="middle" x="246.77" y="-699.5" font-family="Times New Roman,serif" font-size="14.00">Normalized Count: NaN</text>
<text text-anchor="middle" x="246.77" y="-684.5" font-family="Times New Roman,serif" font-size="14.00">Samples weight: 0.00</text>
</g>
<!-- BB8 -->
<g id="node9" class="node">
<title>BB8</title>
<ellipse fill="none" stroke="black" cx="246.77" cy="-592.24" rx="106.55" ry="37.45"/>
<text text-anchor="middle" x="246.77" y="-603.54" font-family="Times New Roman,serif" font-size="14.00">[46..4a)</text>
<text text-anchor="middle" x="246.77" y="-588.54" font-family="Times New Roman,serif" font-size="14.00">Normalized Count: NaN</text>
<text text-anchor="middle" x="246.77" y="-573.54" font-family="Times New Roman,serif" font-size="14.00">Samples weight: 0.00</text>
</g>
<!-- BB0&#45;&gt;BB8 -->
<g id="edge1" class="edge">
<title>BB0&#45;&gt;BB8</title>
<path fill="none" stroke="black" d="M246.77,-665.61C246.77,-657.44 246.77,-648.66 246.77,-640.13"/>
<polygon fill="black" stroke="black" points="250.27,-639.92 246.77,-629.92 243.27,-639.92 250.27,-639.92"/>
</g>
<!-- BB1 -->
<g id="node2" class="node">
<title>BB1</title>
<ellipse fill="none" stroke="black" cx="246.77" cy="-481.29" rx="115.93" ry="37.45"/>
<text text-anchor="middle" x="246.77" y="-492.59" font-family="Times New Roman,serif" font-size="14.00">[7..e)</text>
<text text-anchor="middle" x="246.77" y="-477.59" font-family="Times New Roman,serif" font-size="14.00">Normalized Count: Infinity</text>
<text text-anchor="middle" x="246.77" y="-462.59" font-family="Times New Roman,serif" font-size="14.00">Samples weight: 0.00</text>
</g>
<!-- BB6 -->
<g id="node7" class="node">
<title>BB6</title>
<ellipse fill="none" stroke="black" cx="244.77" cy="-370.34" rx="106.55" ry="37.45"/>
<text text-anchor="middle" x="244.77" y="-381.64" font-family="Times New Roman,serif" font-size="14.00">[3d..42)</text>
<text text-anchor="middle" x="244.77" y="-366.64" font-family="Times New Roman,serif" font-size="14.00">Normalized Count: NaN</text>
<text text-anchor="middle" x="244.77" y="-351.64" font-family="Times New Roman,serif" font-size="14.00">Samples weight: 0.00</text>
</g>
<!-- BB1&#45;&gt;BB6 -->
<g id="edge2" class="edge">
<title>BB1&#45;&gt;BB6</title>
<path fill="none" stroke="black" d="M246.1,-443.71C245.95,-435.53 245.79,-426.75 245.63,-418.23"/>
<polygon fill="black" stroke="black" points="249.13,-417.94 245.45,-408.01 242.13,-418.07 249.13,-417.94"/>
</g>
<!-- BB2 -->
<g id="node3" class="node">
<title>BB2</title>
<ellipse fill="none" stroke="black" cx="394.77" cy="-259.38" rx="106.55" ry="37.45"/>
<text text-anchor="middle" x="394.77" y="-270.68" font-family="Times New Roman,serif" font-size="14.00">[e..13)</text>
<text text-anchor="middle" x="394.77" y="-255.68" font-family="Times New Roman,serif" font-size="14.00">Normalized Count: NaN</text>
<text text-anchor="middle" x="394.77" y="-240.68" font-family="Times New Roman,serif" font-size="14.00">Samples weight: 0.00</text>
</g>
<!-- BB4 -->
<g id="node5" class="node">
<title>BB4</title>
<ellipse fill="none" stroke="black" cx="411.77" cy="-148.43" rx="115.93" ry="37.45"/>
<text text-anchor="middle" x="411.77" y="-159.73" font-family="Times New Roman,serif" font-size="14.00">[32..37)</text>
<text text-anchor="middle" x="411.77" y="-144.73" font-family="Times New Roman,serif" font-size="14.00">Normalized Count: Infinity</text>
<text text-anchor="middle" x="411.77" y="-129.73" font-family="Times New Roman,serif" font-size="14.00">Samples weight: 0.07</text>
</g>
<!-- BB2&#45;&gt;BB4 -->
<g id="edge3" class="edge">
<title>BB2&#45;&gt;BB4</title>
<path fill="none" stroke="black" d="M400.48,-221.8C401.77,-213.54 403.16,-204.65 404.5,-196.04"/>
<polygon fill="black" stroke="black" points="407.97,-196.52 406.05,-186.1 401.05,-195.44 407.97,-196.52"/>
</g>
<!-- BB3 -->
<g id="node4" class="node">
<title>BB3</title>
<ellipse fill="none" stroke="black" cx="436.77" cy="-37.48" rx="115.93" ry="37.45"/>
<text text-anchor="middle" x="436.77" y="-48.78" font-family="Times New Roman,serif" font-size="14.00">[13..32)</text>
<text text-anchor="middle" x="436.77" y="-33.78" font-family="Times New Roman,serif" font-size="14.00">Normalized Count: Infinity</text>
<text text-anchor="middle" x="436.77" y="-18.78" font-family="Times New Roman,serif" font-size="14.00">Samples weight: 0.93</text>
</g>
<!-- BB3&#45;&gt;BB4 -->
<g id="edge4" class="edge">
<title>BB3&#45;&gt;BB4</title>
<path fill="none" stroke="black" d="M434.81,-74.97C433.2,-83.44 431.19,-92.56 429.02,-101.37"/>
<polygon fill="black" stroke="black" points="425.61,-100.59 426.5,-111.15 432.38,-102.34 425.61,-100.59"/>
</g>
<!-- BB4&#45;&gt;BB3 -->
<g id="edge5" class="edge">
<title>BB4&#45;&gt;BB3</title>
<path fill="none" stroke="black" d="M413.75,-110.85C415.36,-102.4 417.36,-93.31 419.53,-84.52"/>
<polygon fill="black" stroke="black" points="422.93,-85.33 422.04,-74.78 416.16,-83.59 422.93,-85.33"/>
</g>
<!-- BB5 -->
<g id="node6" class="node">
<title>BB5</title>
<ellipse fill="none" stroke="black" cx="195.77" cy="-37.48" rx="106.55" ry="37.45"/>
<text text-anchor="middle" x="195.77" y="-48.78" font-family="Times New Roman,serif" font-size="14.00">[37..3d)</text>
<text text-anchor="middle" x="195.77" y="-33.78" font-family="Times New Roman,serif" font-size="14.00">Normalized Count: NaN</text>
<text text-anchor="middle" x="195.77" y="-18.78" font-family="Times New Roman,serif" font-size="14.00">Samples weight: 0.00</text>
</g>
<!-- BB4&#45;&gt;BB5 -->
<g id="edge6" class="edge">
<title>BB4&#45;&gt;BB5</title>
<path fill="none" stroke="black" d="M350.45,-116.5C323.78,-103.05 292.41,-87.22 264.92,-73.35"/>
<polygon fill="black" stroke="black" points="266.26,-70.11 255.75,-68.73 263.11,-76.36 266.26,-70.11"/>
</g>
<!-- BB5&#45;&gt;BB6 -->
<g id="edge7" class="edge">
<title>BB5&#45;&gt;BB6</title>
<path fill="none" stroke="black" d="M201.19,-75.06C210.13,-135.45 227.98,-255.92 237.83,-322.47"/>
<polygon fill="black" stroke="black" points="234.41,-323.29 239.34,-332.66 241.34,-322.26 234.41,-323.29"/>
</g>
<!-- BB6&#45;&gt;BB2 -->
<g id="edge8" class="edge">
<title>BB6&#45;&gt;BB2</title>
<path fill="none" stroke="black" d="M290.19,-336.35C306.12,-324.78 324.18,-311.66 340.75,-299.63"/>
<polygon fill="black" stroke="black" points="343.22,-302.15 349.26,-293.44 339.11,-296.49 343.22,-302.15"/>
</g>
<!-- BB7 -->
<g id="node8" class="node">
<title>BB7</title>
<ellipse fill="none" stroke="black" cx="106.77" cy="-259.38" rx="106.55" ry="37.45"/>
<text text-anchor="middle" x="106.77" y="-270.68" font-family="Times New Roman,serif" font-size="14.00">[42..46)</text>
<text text-anchor="middle" x="106.77" y="-255.68" font-family="Times New Roman,serif" font-size="14.00">Normalized Count: NaN</text>
<text text-anchor="middle" x="106.77" y="-240.68" font-family="Times New Roman,serif" font-size="14.00">Samples weight: 0.00</text>
</g>
<!-- BB6&#45;&gt;BB7 -->
<g id="edge9" class="edge">
<title>BB6&#45;&gt;BB7</title>
<path fill="none" stroke="black" d="M202.24,-335.76C188.08,-324.57 172.16,-312 157.44,-300.38"/>
<polygon fill="black" stroke="black" points="159.42,-297.49 149.4,-294.04 155.08,-302.98 159.42,-297.49"/>
</g>
<!-- BB7&#45;&gt;BB8 -->
<g id="edge10" class="edge">
<title>BB7&#45;&gt;BB8</title>
<path fill="none" stroke="black" d="M98.75,-296.97C89.19,-350.13 79.38,-449.88 121.77,-518.77 132.19,-535.69 148.12,-549.07 165.16,-559.49"/>
<polygon fill="black" stroke="black" points="163.74,-562.71 174.15,-564.68 167.23,-556.65 163.74,-562.71"/>
</g>
<!-- BB8&#45;&gt;BB1 -->
<g id="edge11" class="edge">
<title>BB8&#45;&gt;BB1</title>
<path fill="none" stroke="black" d="M246.77,-554.66C246.77,-546.49 246.77,-537.71 246.77,-529.18"/>
<polygon fill="black" stroke="black" points="250.27,-528.96 246.77,-518.96 243.27,-528.96 250.27,-528.96"/>
</g>
<!-- BB9 -->
<g id="node10" class="node">
<title>BB9</title>
<ellipse fill="none" stroke="black" cx="487.77" cy="-481.29" rx="106.55" ry="37.45"/>
<text text-anchor="middle" x="487.77" y="-492.59" font-family="Times New Roman,serif" font-size="14.00">[4a..4b)</text>
<text text-anchor="middle" x="487.77" y="-477.59" font-family="Times New Roman,serif" font-size="14.00">Normalized Count: NaN</text>
<text text-anchor="middle" x="487.77" y="-462.59" font-family="Times New Roman,serif" font-size="14.00">Samples weight: 0.00</text>
</g>
<!-- BB8&#45;&gt;BB9 -->
<g id="edge12" class="edge">
<title>BB8&#45;&gt;BB9</title>
<path fill="none" stroke="black" d="M311.04,-562.19C342.78,-547.84 381.22,-530.46 414.14,-515.58"/>
<polygon fill="black" stroke="black" points="415.6,-518.76 423.27,-511.45 412.71,-512.38 415.6,-518.76"/>
</g>
</g>
</svg>
