<?xml version="1.0" encoding="UTF-8" standalone="no"?>
<!DOCTYPE svg PUBLIC "-//W3C//DTD SVG 1.1//EN"
 "http://www.w3.org/Graphics/SVG/1.1/DTD/svg11.dtd">
<!-- Generated by graphviz version 2.47.0 (20210316.0004)
 -->
<!-- Title: G Pages: 1 -->
<svg width="1300pt" height="1294pt"
 viewBox="0.00 0.00 1300.50 1293.67" xmlns="http://www.w3.org/2000/svg" xmlns:xlink="http://www.w3.org/1999/xlink">
<g id="graph0" class="graph" transform="scale(1 1) rotate(0) translate(4 1289.67)">
<title>G</title>
<polygon fill="white" stroke="transparent" points="-4,4 -4,-1289.67 1296.5,-1289.67 1296.5,4 -4,4"/>
<!-- BB0 -->
<g id="node1" class="node">
<title>BB0</title>
<ellipse fill="none" stroke="black" cx="713.84" cy="-1237.58" rx="104.8" ry="48.17"/>
<text text-anchor="middle" x="713.84" y="-1256.38" font-family="Times New Roman,serif" font-size="14.00">[0..12)</text>
<text text-anchor="middle" x="713.84" y="-1241.38" font-family="Times New Roman,serif" font-size="14.00">Count: 0</text>
<text text-anchor="middle" x="713.84" y="-1226.38" font-family="Times New Roman,serif" font-size="14.00">Normalized count: NaN</text>
<text text-anchor="middle" x="713.84" y="-1211.38" font-family="Times New Roman,serif" font-size="14.00">Samples weight: 0.00</text>
</g>
<!-- BB1 -->
<g id="node2" class="node">
<title>BB1</title>
<ellipse fill="none" stroke="black" cx="600.84" cy="-1105.42" rx="104.8" ry="48.17"/>
<text text-anchor="middle" x="600.84" y="-1124.22" font-family="Times New Roman,serif" font-size="14.00">[12..32)</text>
<text text-anchor="middle" x="600.84" y="-1109.22" font-family="Times New Roman,serif" font-size="14.00">Count: 0</text>
<text text-anchor="middle" x="600.84" y="-1094.22" font-family="Times New Roman,serif" font-size="14.00">Normalized count: NaN</text>
<text text-anchor="middle" x="600.84" y="-1079.22" font-family="Times New Roman,serif" font-size="14.00">Samples weight: 0.00</text>
</g>
<!-- BB0&#45;&gt;BB1 -->
<g id="edge2" class="edge">
<title>BB0&#45;&gt;BB1</title>
<path fill="none" stroke="black" d="M675.59,-1192.51C666.02,-1181.49 655.66,-1169.56 645.8,-1158.2"/>
<polygon fill="black" stroke="black" points="648.26,-1155.7 639.06,-1150.44 642.97,-1160.28 648.26,-1155.7"/>
</g>
<!-- BB2 -->
<g id="node3" class="node">
<title>BB2</title>
<ellipse fill="none" stroke="black" cx="827.84" cy="-1105.42" rx="104.8" ry="48.17"/>
<text text-anchor="middle" x="827.84" y="-1124.22" font-family="Times New Roman,serif" font-size="14.00">[32..39)</text>
<text text-anchor="middle" x="827.84" y="-1109.22" font-family="Times New Roman,serif" font-size="14.00">Count: 0</text>
<text text-anchor="middle" x="827.84" y="-1094.22" font-family="Times New Roman,serif" font-size="14.00">Normalized count: NaN</text>
<text text-anchor="middle" x="827.84" y="-1079.22" font-family="Times New Roman,serif" font-size="14.00">Samples weight: 0.00</text>
</g>
<!-- BB0&#45;&gt;BB2 -->
<g id="edge1" class="edge">
<title>BB0&#45;&gt;BB2</title>
<path fill="none" stroke="black" d="M752.44,-1192.51C762.1,-1181.49 772.54,-1169.56 782.49,-1158.2"/>
<polygon fill="black" stroke="black" points="785.33,-1160.27 789.29,-1150.44 780.07,-1155.66 785.33,-1160.27"/>
</g>
<!-- BB1&#45;&gt;BB2 -->
<g id="edge3" class="edge">
<title>BB1&#45;&gt;BB2</title>
<path fill="none" stroke="black" d="M705.92,-1105.42C708.24,-1105.42 710.56,-1105.42 712.89,-1105.42"/>
<polygon fill="black" stroke="black" points="713.07,-1108.92 723.07,-1105.42 713.07,-1101.92 713.07,-1108.92"/>
</g>
<!-- BB15 -->
<g id="node16" class="node">
<title>BB15</title>
<ellipse fill="none" stroke="black" cx="827.84" cy="-973.25" rx="113.69" ry="48.17"/>
<text text-anchor="middle" x="827.84" y="-992.05" font-family="Times New Roman,serif" font-size="14.00">[12d..134)</text>
<text text-anchor="middle" x="827.84" y="-977.05" font-family="Times New Roman,serif" font-size="14.00">Count: 2</text>
<text text-anchor="middle" x="827.84" y="-962.05" font-family="Times New Roman,serif" font-size="14.00">Normalized count: Infinity</text>
<text text-anchor="middle" x="827.84" y="-947.05" font-family="Times New Roman,serif" font-size="14.00">Samples weight: 0.00</text>
</g>
<!-- BB2&#45;&gt;BB15 -->
<g id="edge4" class="edge">
<title>BB2&#45;&gt;BB15</title>
<path fill="none" stroke="black" d="M827.84,-1057.05C827.84,-1048.79 827.84,-1040.1 827.84,-1031.6"/>
<polygon fill="black" stroke="black" points="831.34,-1031.36 827.84,-1021.36 824.34,-1031.36 831.34,-1031.36"/>
</g>
<!-- BB3 -->
<g id="node4" class="node">
<title>BB3</title>
<ellipse fill="none" stroke="black" cx="685.84" cy="-841.08" rx="113.69" ry="48.17"/>
<text text-anchor="middle" x="685.84" y="-859.88" font-family="Times New Roman,serif" font-size="14.00">[39..62)</text>
<text text-anchor="middle" x="685.84" y="-844.88" font-family="Times New Roman,serif" font-size="14.00">Count: 2</text>
<text text-anchor="middle" x="685.84" y="-829.88" font-family="Times New Roman,serif" font-size="14.00">Normalized count: Infinity</text>
<text text-anchor="middle" x="685.84" y="-814.88" font-family="Times New Roman,serif" font-size="14.00">Samples weight: 0.00</text>
</g>
<!-- BB11 -->
<g id="node12" class="node">
<title>BB11</title>
<ellipse fill="none" stroke="black" cx="572.84" cy="-708.92" rx="113.69" ry="48.17"/>
<text text-anchor="middle" x="572.84" y="-727.72" font-family="Times New Roman,serif" font-size="14.00">[106..10e)</text>
<text text-anchor="middle" x="572.84" y="-712.72" font-family="Times New Roman,serif" font-size="14.00">Count: 4437</text>
<text text-anchor="middle" x="572.84" y="-697.72" font-family="Times New Roman,serif" font-size="14.00">Normalized count: Infinity</text>
<text text-anchor="middle" x="572.84" y="-682.72" font-family="Times New Roman,serif" font-size="14.00">Samples weight: 0.02</text>
</g>
<!-- BB3&#45;&gt;BB11 -->
<g id="edge5" class="edge">
<title>BB3&#45;&gt;BB11</title>
<path fill="none" stroke="black" d="M647.27,-795.65C637.92,-784.88 627.84,-773.27 618.21,-762.17"/>
<polygon fill="black" stroke="black" points="620.82,-759.85 611.63,-754.59 615.54,-764.44 620.82,-759.85"/>
</g>
<!-- BB4 -->
<g id="node5" class="node">
<title>BB4</title>
<ellipse fill="none" stroke="black" cx="359.84" cy="-576.75" rx="113.69" ry="48.17"/>
<text text-anchor="middle" x="359.84" y="-595.55" font-family="Times New Roman,serif" font-size="14.00">[62..9d)</text>
<text text-anchor="middle" x="359.84" y="-580.55" font-family="Times New Roman,serif" font-size="14.00">Count: 3640</text>
<text text-anchor="middle" x="359.84" y="-565.55" font-family="Times New Roman,serif" font-size="14.00">Normalized count: Infinity</text>
<text text-anchor="middle" x="359.84" y="-550.55" font-family="Times New Roman,serif" font-size="14.00">Samples weight: 0.02</text>
</g>
<!-- BB5 -->
<g id="node6" class="node">
<title>BB5</title>
<ellipse fill="none" stroke="black" cx="359.84" cy="-444.58" rx="113.69" ry="48.17"/>
<text text-anchor="middle" x="359.84" y="-463.38" font-family="Times New Roman,serif" font-size="14.00">[9d..cf)</text>
<text text-anchor="middle" x="359.84" y="-448.38" font-family="Times New Roman,serif" font-size="14.00">Count: 87238</text>
<text text-anchor="middle" x="359.84" y="-433.38" font-family="Times New Roman,serif" font-size="14.00">Normalized count: Infinity</text>
<text text-anchor="middle" x="359.84" y="-418.38" font-family="Times New Roman,serif" font-size="14.00">Samples weight: 0.43</text>
</g>
<!-- BB4&#45;&gt;BB5 -->
<g id="edge6" class="edge">
<title>BB4&#45;&gt;BB5</title>
<path fill="none" stroke="black" d="M359.84,-528.39C359.84,-520.12 359.84,-511.44 359.84,-502.93"/>
<polygon fill="black" stroke="black" points="363.34,-502.69 359.84,-492.69 356.34,-502.69 363.34,-502.69"/>
</g>
<!-- BB6 -->
<g id="node7" class="node">
<title>BB6</title>
<ellipse fill="none" stroke="black" cx="113.84" cy="-312.42" rx="113.69" ry="48.17"/>
<text text-anchor="middle" x="113.84" y="-331.22" font-family="Times New Roman,serif" font-size="14.00">[cf..d7)</text>
<text text-anchor="middle" x="113.84" y="-316.22" font-family="Times New Roman,serif" font-size="14.00">Count: 2385</text>
<text text-anchor="middle" x="113.84" y="-301.22" font-family="Times New Roman,serif" font-size="14.00">Normalized count: Infinity</text>
<text text-anchor="middle" x="113.84" y="-286.22" font-family="Times New Roman,serif" font-size="14.00">Samples weight: 0.01</text>
</g>
<!-- BB5&#45;&gt;BB6 -->
<g id="edge8" class="edge">
<title>BB5&#45;&gt;BB6</title>
<path fill="none" stroke="black" d="M289.68,-406.46C259.56,-390.52 224.23,-371.82 193.17,-355.39"/>
<polygon fill="black" stroke="black" points="194.58,-352.18 184.1,-350.59 191.3,-358.36 194.58,-352.18"/>
</g>
<!-- BB7 -->
<g id="node8" class="node">
<title>BB7</title>
<ellipse fill="none" stroke="black" cx="359.84" cy="-312.42" rx="113.69" ry="48.17"/>
<text text-anchor="middle" x="359.84" y="-331.22" font-family="Times New Roman,serif" font-size="14.00">[d7..e1)</text>
<text text-anchor="middle" x="359.84" y="-316.22" font-family="Times New Roman,serif" font-size="14.00">Count: 94138</text>
<text text-anchor="middle" x="359.84" y="-301.22" font-family="Times New Roman,serif" font-size="14.00">Normalized count: Infinity</text>
<text text-anchor="middle" x="359.84" y="-286.22" font-family="Times New Roman,serif" font-size="14.00">Samples weight: 0.47</text>
</g>
<!-- BB5&#45;&gt;BB7 -->
<g id="edge7" class="edge">
<title>BB5&#45;&gt;BB7</title>
<path fill="none" stroke="black" d="M353.32,-396.22C353.1,-387.95 353.04,-379.27 353.14,-370.77"/>
<polygon fill="black" stroke="black" points="356.64,-370.59 353.33,-360.52 349.64,-370.46 356.64,-370.59"/>
</g>
<!-- BB8 -->
<g id="node9" class="node">
<title>BB8</title>
<ellipse fill="none" stroke="black" cx="307.84" cy="-180.25" rx="113.69" ry="48.17"/>
<text text-anchor="middle" x="307.84" y="-199.05" font-family="Times New Roman,serif" font-size="14.00">[e1..eb)</text>
<text text-anchor="middle" x="307.84" y="-184.05" font-family="Times New Roman,serif" font-size="14.00">Count: 4121</text>
<text text-anchor="middle" x="307.84" y="-169.05" font-family="Times New Roman,serif" font-size="14.00">Normalized count: Infinity</text>
<text text-anchor="middle" x="307.84" y="-154.05" font-family="Times New Roman,serif" font-size="14.00">Samples weight: 0.02</text>
</g>
<!-- BB6&#45;&gt;BB8 -->
<g id="edge9" class="edge">
<title>BB6&#45;&gt;BB8</title>
<path fill="none" stroke="black" d="M173.63,-271.3C194.57,-257.25 218.23,-241.38 239.79,-226.91"/>
<polygon fill="black" stroke="black" points="241.9,-229.71 248.25,-221.23 238,-223.9 241.9,-229.71"/>
</g>
<!-- BB7&#45;&gt;BB5 -->
<g id="edge10" class="edge">
<title>BB7&#45;&gt;BB5</title>
<path fill="none" stroke="black" d="M366.36,-360.52C366.58,-368.78 366.65,-377.46 366.55,-385.97"/>
<polygon fill="black" stroke="black" points="363.05,-386.16 366.37,-396.22 370.05,-386.29 363.05,-386.16"/>
</g>
<!-- BB7&#45;&gt;BB8 -->
<g id="edge11" class="edge">
<title>BB7&#45;&gt;BB8</title>
<path fill="none" stroke="black" d="M341.22,-264.79C337.67,-255.91 333.92,-246.53 330.27,-237.39"/>
<polygon fill="black" stroke="black" points="333.48,-235.98 326.52,-227.99 326.97,-238.57 333.48,-235.98"/>
</g>
<!-- BB9 -->
<g id="node10" class="node">
<title>BB9</title>
<ellipse fill="none" stroke="black" cx="255.84" cy="-48.08" rx="113.69" ry="48.17"/>
<text text-anchor="middle" x="255.84" y="-66.88" font-family="Times New Roman,serif" font-size="14.00">[eb..100)</text>
<text text-anchor="middle" x="255.84" y="-51.88" font-family="Times New Roman,serif" font-size="14.00">Count: 694</text>
<text text-anchor="middle" x="255.84" y="-36.88" font-family="Times New Roman,serif" font-size="14.00">Normalized count: Infinity</text>
<text text-anchor="middle" x="255.84" y="-21.88" font-family="Times New Roman,serif" font-size="14.00">Samples weight: 0.00</text>
</g>
<!-- BB8&#45;&gt;BB9 -->
<g id="edge13" class="edge">
<title>BB8&#45;&gt;BB9</title>
<path fill="none" stroke="black" d="M289.22,-132.62C285.67,-123.75 281.92,-114.37 278.27,-105.23"/>
<polygon fill="black" stroke="black" points="281.48,-103.81 274.52,-95.82 274.97,-106.41 281.48,-103.81"/>
</g>
<!-- BB10 -->
<g id="node11" class="node">
<title>BB10</title>
<ellipse fill="none" stroke="black" cx="501.84" cy="-48.08" rx="113.69" ry="48.17"/>
<text text-anchor="middle" x="501.84" y="-66.88" font-family="Times New Roman,serif" font-size="14.00">[100..106)</text>
<text text-anchor="middle" x="501.84" y="-51.88" font-family="Times New Roman,serif" font-size="14.00">Count: 4434</text>
<text text-anchor="middle" x="501.84" y="-36.88" font-family="Times New Roman,serif" font-size="14.00">Normalized count: Infinity</text>
<text text-anchor="middle" x="501.84" y="-21.88" font-family="Times New Roman,serif" font-size="14.00">Samples weight: 0.02</text>
</g>
<!-- BB8&#45;&gt;BB10 -->
<g id="edge12" class="edge">
<title>BB8&#45;&gt;BB10</title>
<path fill="none" stroke="black" d="M367.63,-139.13C388.57,-125.09 412.23,-109.21 433.79,-94.75"/>
<polygon fill="black" stroke="black" points="435.9,-97.55 442.25,-89.07 432,-91.73 435.9,-97.55"/>
</g>
<!-- BB9&#45;&gt;BB10 -->
<g id="edge14" class="edge">
<title>BB9&#45;&gt;BB10</title>
<path fill="none" stroke="black" d="M369.72,-48.08C372.35,-48.08 374.98,-48.08 377.62,-48.08"/>
<polygon fill="black" stroke="black" points="377.78,-51.58 387.78,-48.08 377.78,-44.58 377.78,-51.58"/>
</g>
<!-- BB10&#45;&gt;BB11 -->
<g id="edge15" class="edge">
<title>BB10&#45;&gt;BB11</title>
<path fill="none" stroke="black" d="M501.84,-96.47C501.84,-149.01 501.84,-236.27 501.84,-311.42 501.84,-445.58 501.84,-445.58 501.84,-445.58 501.84,-525.7 494.7,-549.11 520.84,-624.83 524.25,-634.71 529.02,-644.62 534.29,-653.99"/>
<polygon fill="black" stroke="black" points="531.38,-655.95 539.47,-662.79 537.41,-652.39 531.38,-655.95"/>
</g>
<!-- BB11&#45;&gt;BB4 -->
<g id="edge16" class="edge">
<title>BB11&#45;&gt;BB4</title>
<path fill="none" stroke="black" d="M509.23,-669.04C484.99,-654.23 457.2,-637.25 432.21,-621.98"/>
<polygon fill="black" stroke="black" points="433.86,-618.88 423.5,-616.65 430.21,-624.85 433.86,-618.88"/>
</g>
<!-- BB12 -->
<g id="node13" class="node">
<title>BB12</title>
<ellipse fill="none" stroke="black" cx="643.84" cy="-576.75" rx="113.69" ry="48.17"/>
<text text-anchor="middle" x="643.84" y="-595.55" font-family="Times New Roman,serif" font-size="14.00">[10e..112)</text>
<text text-anchor="middle" x="643.84" y="-580.55" font-family="Times New Roman,serif" font-size="14.00">Count: 2</text>
<text text-anchor="middle" x="643.84" y="-565.55" font-family="Times New Roman,serif" font-size="14.00">Normalized count: Infinity</text>
<text text-anchor="middle" x="643.84" y="-550.55" font-family="Times New Roman,serif" font-size="14.00">Samples weight: 0.00</text>
</g>
<!-- BB11&#45;&gt;BB12 -->
<g id="edge17" class="edge">
<title>BB11&#45;&gt;BB12</title>
<path fill="none" stroke="black" d="M598.08,-661.66C603.15,-652.35 608.53,-642.49 613.75,-632.92"/>
<polygon fill="black" stroke="black" points="616.98,-634.31 618.69,-623.86 610.83,-630.96 616.98,-634.31"/>
</g>
<!-- BB13 -->
<g id="node14" class="node">
<title>BB13</title>
<ellipse fill="none" stroke="black" cx="634.84" cy="-444.58" rx="104.8" ry="48.17"/>
<text text-anchor="middle" x="634.84" y="-463.38" font-family="Times New Roman,serif" font-size="14.00">[112..129)</text>
<text text-anchor="middle" x="634.84" y="-448.38" font-family="Times New Roman,serif" font-size="14.00">Count: 0</text>
<text text-anchor="middle" x="634.84" y="-433.38" font-family="Times New Roman,serif" font-size="14.00">Normalized count: NaN</text>
<text text-anchor="middle" x="634.84" y="-418.38" font-family="Times New Roman,serif" font-size="14.00">Samples weight: 0.00</text>
</g>
<!-- BB12&#45;&gt;BB13 -->
<g id="edge19" class="edge">
<title>BB12&#45;&gt;BB13</title>
<path fill="none" stroke="black" d="M640.57,-528.39C640,-520.12 639.4,-511.44 638.81,-502.93"/>
<polygon fill="black" stroke="black" points="642.28,-502.43 638.1,-492.69 635.3,-502.91 642.28,-502.43"/>
</g>
<!-- BB14 -->
<g id="node15" class="node">
<title>BB14</title>
<ellipse fill="none" stroke="black" cx="870.84" cy="-444.58" rx="113.69" ry="48.17"/>
<text text-anchor="middle" x="870.84" y="-463.38" font-family="Times New Roman,serif" font-size="14.00">[129..12d)</text>
<text text-anchor="middle" x="870.84" y="-448.38" font-family="Times New Roman,serif" font-size="14.00">Count: 2</text>
<text text-anchor="middle" x="870.84" y="-433.38" font-family="Times New Roman,serif" font-size="14.00">Normalized count: Infinity</text>
<text text-anchor="middle" x="870.84" y="-418.38" font-family="Times New Roman,serif" font-size="14.00">Samples weight: 0.00</text>
</g>
<!-- BB12&#45;&gt;BB14 -->
<g id="edge18" class="edge">
<title>BB12&#45;&gt;BB14</title>
<path fill="none" stroke="black" d="M710.42,-537.57C737.1,-522.28 767.97,-504.57 795.47,-488.8"/>
<polygon fill="black" stroke="black" points="797.34,-491.77 804.27,-483.76 793.86,-485.7 797.34,-491.77"/>
</g>
<!-- BB13&#45;&gt;BB14 -->
<g id="edge20" class="edge">
<title>BB13&#45;&gt;BB14</title>
<path fill="none" stroke="black" d="M739.94,-444.58C742.22,-444.58 744.51,-444.58 746.79,-444.58"/>
<polygon fill="black" stroke="black" points="746.81,-448.08 756.81,-444.58 746.81,-441.08 746.81,-448.08"/>
</g>
<!-- BB14&#45;&gt;BB15 -->
<g id="edge21" class="edge">
<title>BB14&#45;&gt;BB15</title>
<path fill="none" stroke="black" d="M864.87,-492.97C859.54,-536.54 851.83,-602.95 846.84,-660.83 839.21,-749.4 833.56,-852.39 830.48,-914.92"/>
<polygon fill="black" stroke="black" points="826.98,-914.82 829.99,-924.98 833.97,-915.16 826.98,-914.82"/>
</g>
<!-- BB15&#45;&gt;BB3 -->
<g id="edge22" class="edge">
<title>BB15&#45;&gt;BB3</title>
<path fill="none" stroke="black" d="M780.95,-929.27C767.87,-917.27 753.54,-904.14 740.07,-891.79"/>
<polygon fill="black" stroke="black" points="742.42,-889.2 732.68,-885.02 737.69,-894.36 742.42,-889.2"/>
</g>
<!-- BB16 -->
<g id="node17" class="node">
<title>BB16</title>
<ellipse fill="none" stroke="black" cx="960.84" cy="-841.08" rx="104.8" ry="48.17"/>
<text text-anchor="middle" x="960.84" y="-859.88" font-family="Times New Roman,serif" font-size="14.00">[134..137)</text>
<text text-anchor="middle" x="960.84" y="-844.88" font-family="Times New Roman,serif" font-size="14.00">Count: 0</text>
<text text-anchor="middle" x="960.84" y="-829.88" font-family="Times New Roman,serif" font-size="14.00">Normalized count: NaN</text>
<text text-anchor="middle" x="960.84" y="-814.88" font-family="Times New Roman,serif" font-size="14.00">Samples weight: 0.00</text>
</g>
<!-- BB15&#45;&gt;BB16 -->
<g id="edge23" class="edge">
<title>BB15&#45;&gt;BB16</title>
<path fill="none" stroke="black" d="M872.13,-928.91C884.26,-917.04 897.5,-904.08 909.97,-891.88"/>
<polygon fill="black" stroke="black" points="912.5,-894.29 917.2,-884.79 907.61,-889.29 912.5,-894.29"/>
</g>
<!-- BB17 -->
<g id="node18" class="node">
<title>BB17</title>
<ellipse fill="none" stroke="black" cx="960.84" cy="-708.92" rx="104.8" ry="48.17"/>
<text text-anchor="middle" x="960.84" y="-727.72" font-family="Times New Roman,serif" font-size="14.00">[137..142)</text>
<text text-anchor="middle" x="960.84" y="-712.72" font-family="Times New Roman,serif" font-size="14.00">Count: 0</text>
<text text-anchor="middle" x="960.84" y="-697.72" font-family="Times New Roman,serif" font-size="14.00">Normalized count: NaN</text>
<text text-anchor="middle" x="960.84" y="-682.72" font-family="Times New Roman,serif" font-size="14.00">Samples weight: 0.00</text>
</g>
<!-- BB16&#45;&gt;BB17 -->
<g id="edge25" class="edge">
<title>BB16&#45;&gt;BB17</title>
<path fill="none" stroke="black" d="M960.84,-792.72C960.84,-784.45 960.84,-775.77 960.84,-767.27"/>
<polygon fill="black" stroke="black" points="964.34,-767.02 960.84,-757.02 957.34,-767.02 964.34,-767.02"/>
</g>
<!-- BB18 -->
<g id="node19" class="node">
<title>BB18</title>
<ellipse fill="none" stroke="black" cx="1187.84" cy="-708.92" rx="104.8" ry="48.17"/>
<text text-anchor="middle" x="1187.84" y="-727.72" font-family="Times New Roman,serif" font-size="14.00">[142..143)</text>
<text text-anchor="middle" x="1187.84" y="-712.72" font-family="Times New Roman,serif" font-size="14.00">Count: 0</text>
<text text-anchor="middle" x="1187.84" y="-697.72" font-family="Times New Roman,serif" font-size="14.00">Normalized count: NaN</text>
<text text-anchor="middle" x="1187.84" y="-682.72" font-family="Times New Roman,serif" font-size="14.00">Samples weight: 0.00</text>
</g>
<!-- BB16&#45;&gt;BB18 -->
<g id="edge24" class="edge">
<title>BB16&#45;&gt;BB18</title>
<path fill="none" stroke="black" d="M1025.29,-803.13C1053.08,-787.19 1085.74,-768.46 1114.46,-751.99"/>
<polygon fill="black" stroke="black" points="1116.31,-754.97 1123.24,-746.96 1112.83,-748.9 1116.31,-754.97"/>
</g>
<!-- BB17&#45;&gt;BB18 -->
<g id="edge26" class="edge">
<title>BB17&#45;&gt;BB18</title>
<path fill="none" stroke="black" d="M1065.92,-708.92C1068.24,-708.92 1070.56,-708.92 1072.89,-708.92"/>
<polygon fill="black" stroke="black" points="1073.07,-712.42 1083.07,-708.92 1073.07,-705.42 1073.07,-712.42"/>
</g>
</g>
</svg>
