<?xml version="1.0" encoding="UTF-8" standalone="no"?>
<!DOCTYPE svg PUBLIC "-//W3C//DTD SVG 1.1//EN"
 "http://www.w3.org/Graphics/SVG/1.1/DTD/svg11.dtd">
<!-- Generated by graphviz version 2.47.0 (20210316.0004)
 -->
<!-- Title: G Pages: 1 -->
<svg width="1402pt" height="1426pt"
 viewBox="0.00 0.00 1402.32 1425.83" xmlns="http://www.w3.org/2000/svg" xmlns:xlink="http://www.w3.org/1999/xlink">
<g id="graph0" class="graph" transform="scale(1 1) rotate(0) translate(4 1421.83)">
<title>G</title>
<polygon fill="white" stroke="transparent" points="-4,4 -4,-1421.83 1398.32,-1421.83 1398.32,4 -4,4"/>
<!-- BB0 -->
<g id="node1" class="node">
<title>BB0</title>
<ellipse fill="none" stroke="black" cx="146.09" cy="-1369.75" rx="103.48" ry="48.17"/>
<text text-anchor="middle" x="146.09" y="-1388.55" font-family="Times New Roman,serif" font-size="14.00">[0..1f)</text>
<text text-anchor="middle" x="146.09" y="-1373.55" font-family="Times New Roman,serif" font-size="14.00">Count: 2</text>
<text text-anchor="middle" x="146.09" y="-1358.55" font-family="Times New Roman,serif" font-size="14.00">Normalized count: 1.00</text>
<text text-anchor="middle" x="146.09" y="-1343.55" font-family="Times New Roman,serif" font-size="14.00">Samples weight: 0.00</text>
</g>
<!-- BB1 -->
<g id="node2" class="node">
<title>BB1</title>
<ellipse fill="none" stroke="black" cx="146.09" cy="-1237.58" rx="103.48" ry="48.17"/>
<text text-anchor="middle" x="146.09" y="-1256.38" font-family="Times New Roman,serif" font-size="14.00">[1f..48)</text>
<text text-anchor="middle" x="146.09" y="-1241.38" font-family="Times New Roman,serif" font-size="14.00">Count: 2</text>
<text text-anchor="middle" x="146.09" y="-1226.38" font-family="Times New Roman,serif" font-size="14.00">Normalized count: 1.00</text>
<text text-anchor="middle" x="146.09" y="-1211.38" font-family="Times New Roman,serif" font-size="14.00">Samples weight: 0.00</text>
</g>
<!-- BB0&#45;&gt;BB1 -->
<g id="edge1" class="edge">
<title>BB0&#45;&gt;BB1</title>
<path fill="none" stroke="black" d="M146.09,-1321.39C146.09,-1313.12 146.09,-1304.44 146.09,-1295.93"/>
<polygon fill="black" stroke="black" points="149.59,-1295.69 146.09,-1285.69 142.59,-1295.69 149.59,-1295.69"/>
</g>
<!-- BB1&#45;&gt;BB1 -->
<g id="edge2" class="edge">
<title>BB1&#45;&gt;BB1</title>
<path fill="none" stroke="black" d="M235.97,-1261.39C254.24,-1258.79 267.32,-1250.86 267.32,-1237.58 267.32,-1226.9 258.85,-1219.67 246.02,-1215.91"/>
<polygon fill="black" stroke="black" points="246.48,-1212.43 235.97,-1213.78 245.03,-1219.27 246.48,-1212.43"/>
</g>
<!-- BB2 -->
<g id="node3" class="node">
<title>BB2</title>
<ellipse fill="none" stroke="black" cx="146.09" cy="-1105.42" rx="103.48" ry="48.17"/>
<text text-anchor="middle" x="146.09" y="-1124.22" font-family="Times New Roman,serif" font-size="14.00">[48..6b)</text>
<text text-anchor="middle" x="146.09" y="-1109.22" font-family="Times New Roman,serif" font-size="14.00">Count: 2</text>
<text text-anchor="middle" x="146.09" y="-1094.22" font-family="Times New Roman,serif" font-size="14.00">Normalized count: 1.00</text>
<text text-anchor="middle" x="146.09" y="-1079.22" font-family="Times New Roman,serif" font-size="14.00">Samples weight: 0.00</text>
</g>
<!-- BB1&#45;&gt;BB2 -->
<g id="edge3" class="edge">
<title>BB1&#45;&gt;BB2</title>
<path fill="none" stroke="black" d="M146.09,-1189.22C146.09,-1180.95 146.09,-1172.27 146.09,-1163.77"/>
<polygon fill="black" stroke="black" points="149.59,-1163.52 146.09,-1153.52 142.59,-1163.52 149.59,-1163.52"/>
</g>
<!-- BB4 -->
<g id="node5" class="node">
<title>BB4</title>
<ellipse fill="none" stroke="black" cx="146.09" cy="-973.25" rx="103.48" ry="48.17"/>
<text text-anchor="middle" x="146.09" y="-992.05" font-family="Times New Roman,serif" font-size="14.00">[8c..94)</text>
<text text-anchor="middle" x="146.09" y="-977.05" font-family="Times New Roman,serif" font-size="14.00">Count: 2</text>
<text text-anchor="middle" x="146.09" y="-962.05" font-family="Times New Roman,serif" font-size="14.00">Normalized count: 1.00</text>
<text text-anchor="middle" x="146.09" y="-947.05" font-family="Times New Roman,serif" font-size="14.00">Samples weight: 0.00</text>
</g>
<!-- BB2&#45;&gt;BB4 -->
<g id="edge4" class="edge">
<title>BB2&#45;&gt;BB4</title>
<path fill="none" stroke="black" d="M146.09,-1057.05C146.09,-1048.79 146.09,-1040.1 146.09,-1031.6"/>
<polygon fill="black" stroke="black" points="149.59,-1031.36 146.09,-1021.36 142.59,-1031.36 149.59,-1031.36"/>
</g>
<!-- BB3 -->
<g id="node4" class="node">
<title>BB3</title>
<ellipse fill="none" stroke="black" cx="146.09" cy="-841.08" rx="103.48" ry="48.17"/>
<text text-anchor="middle" x="146.09" y="-859.88" font-family="Times New Roman,serif" font-size="14.00">[6b..8c)</text>
<text text-anchor="middle" x="146.09" y="-844.88" font-family="Times New Roman,serif" font-size="14.00">Count: 0</text>
<text text-anchor="middle" x="146.09" y="-829.88" font-family="Times New Roman,serif" font-size="14.00">Normalized count: 0.00</text>
<text text-anchor="middle" x="146.09" y="-814.88" font-family="Times New Roman,serif" font-size="14.00">Samples weight: 0.00</text>
</g>
<!-- BB3&#45;&gt;BB4 -->
<g id="edge5" class="edge">
<title>BB3&#45;&gt;BB4</title>
<path fill="none" stroke="black" d="M152.61,-889.44C152.83,-897.74 152.89,-906.45 152.79,-914.98"/>
<polygon fill="black" stroke="black" points="149.29,-915.19 152.6,-925.26 156.29,-915.32 149.29,-915.19"/>
</g>
<!-- BB4&#45;&gt;BB3 -->
<g id="edge6" class="edge">
<title>BB4&#45;&gt;BB3</title>
<path fill="none" stroke="black" d="M139.57,-925.26C139.35,-916.88 139.28,-908.07 139.38,-899.45"/>
<polygon fill="black" stroke="black" points="142.88,-899.51 139.56,-889.44 135.88,-899.38 142.88,-899.51"/>
</g>
<!-- BB5 -->
<g id="node6" class="node">
<title>BB5</title>
<ellipse fill="none" stroke="black" cx="370.09" cy="-841.08" rx="103.48" ry="48.17"/>
<text text-anchor="middle" x="370.09" y="-859.88" font-family="Times New Roman,serif" font-size="14.00">[94..ab)</text>
<text text-anchor="middle" x="370.09" y="-844.88" font-family="Times New Roman,serif" font-size="14.00">Count: 2</text>
<text text-anchor="middle" x="370.09" y="-829.88" font-family="Times New Roman,serif" font-size="14.00">Normalized count: 1.00</text>
<text text-anchor="middle" x="370.09" y="-814.88" font-family="Times New Roman,serif" font-size="14.00">Samples weight: 0.00</text>
</g>
<!-- BB4&#45;&gt;BB5 -->
<g id="edge7" class="edge">
<title>BB4&#45;&gt;BB5</title>
<path fill="none" stroke="black" d="M209.68,-935.3C237.11,-919.36 269.33,-900.63 297.68,-884.16"/>
<polygon fill="black" stroke="black" points="299.45,-887.18 306.34,-879.13 295.93,-881.13 299.45,-887.18"/>
</g>
<!-- BB6 -->
<g id="node7" class="node">
<title>BB6</title>
<ellipse fill="none" stroke="black" cx="256.09" cy="-708.92" rx="103.48" ry="48.17"/>
<text text-anchor="middle" x="256.09" y="-727.72" font-family="Times New Roman,serif" font-size="14.00">[ab..c0)</text>
<text text-anchor="middle" x="256.09" y="-712.72" font-family="Times New Roman,serif" font-size="14.00">Count: 2</text>
<text text-anchor="middle" x="256.09" y="-697.72" font-family="Times New Roman,serif" font-size="14.00">Normalized count: 1.00</text>
<text text-anchor="middle" x="256.09" y="-682.72" font-family="Times New Roman,serif" font-size="14.00">Samples weight: 0.00</text>
</g>
<!-- BB5&#45;&gt;BB6 -->
<g id="edge9" class="edge">
<title>BB5&#45;&gt;BB6</title>
<path fill="none" stroke="black" d="M331.81,-796.38C321.94,-785.11 311.23,-772.88 301.05,-761.26"/>
<polygon fill="black" stroke="black" points="303.68,-758.94 294.46,-753.73 298.41,-763.56 303.68,-758.94"/>
</g>
<!-- BB10 -->
<g id="node11" class="node">
<title>BB10</title>
<ellipse fill="none" stroke="black" cx="484.09" cy="-708.92" rx="103.48" ry="48.17"/>
<text text-anchor="middle" x="484.09" y="-727.72" font-family="Times New Roman,serif" font-size="14.00">[ec..10f)</text>
<text text-anchor="middle" x="484.09" y="-712.72" font-family="Times New Roman,serif" font-size="14.00">Count: 0</text>
<text text-anchor="middle" x="484.09" y="-697.72" font-family="Times New Roman,serif" font-size="14.00">Normalized count: 0.00</text>
<text text-anchor="middle" x="484.09" y="-682.72" font-family="Times New Roman,serif" font-size="14.00">Samples weight: 0.00</text>
</g>
<!-- BB5&#45;&gt;BB10 -->
<g id="edge8" class="edge">
<title>BB5&#45;&gt;BB10</title>
<path fill="none" stroke="black" d="M408.36,-796.38C418.23,-785.11 428.95,-772.88 439.12,-761.26"/>
<polygon fill="black" stroke="black" points="441.76,-763.56 445.72,-753.73 436.49,-758.94 441.76,-763.56"/>
</g>
<!-- BB8 -->
<g id="node9" class="node">
<title>BB8</title>
<ellipse fill="none" stroke="black" cx="249.09" cy="-576.75" rx="118.17" ry="48.17"/>
<text text-anchor="middle" x="249.09" y="-595.55" font-family="Times New Roman,serif" font-size="14.00">[cf..d6)</text>
<text text-anchor="middle" x="249.09" y="-580.55" font-family="Times New Roman,serif" font-size="14.00">Count: 5807</text>
<text text-anchor="middle" x="249.09" y="-565.55" font-family="Times New Roman,serif" font-size="14.00">Normalized count: 2903.50</text>
<text text-anchor="middle" x="249.09" y="-550.55" font-family="Times New Roman,serif" font-size="14.00">Samples weight: 0.50</text>
</g>
<!-- BB6&#45;&gt;BB8 -->
<g id="edge10" class="edge">
<title>BB6&#45;&gt;BB8</title>
<path fill="none" stroke="black" d="M253.54,-660.55C253.1,-652.29 252.63,-643.6 252.17,-635.1"/>
<polygon fill="black" stroke="black" points="255.65,-634.66 251.62,-624.86 248.66,-635.03 255.65,-634.66"/>
</g>
<!-- BB7 -->
<g id="node8" class="node">
<title>BB7</title>
<ellipse fill="none" stroke="black" cx="118.09" cy="-444.58" rx="118.17" ry="48.17"/>
<text text-anchor="middle" x="118.09" y="-463.38" font-family="Times New Roman,serif" font-size="14.00">[c0..cf)</text>
<text text-anchor="middle" x="118.09" y="-448.38" font-family="Times New Roman,serif" font-size="14.00">Count: 5805</text>
<text text-anchor="middle" x="118.09" y="-433.38" font-family="Times New Roman,serif" font-size="14.00">Normalized count: 2902.50</text>
<text text-anchor="middle" x="118.09" y="-418.38" font-family="Times New Roman,serif" font-size="14.00">Samples weight: 0.50</text>
</g>
<!-- BB7&#45;&gt;BB8 -->
<g id="edge11" class="edge">
<title>BB7&#45;&gt;BB8</title>
<path fill="none" stroke="black" d="M167.88,-488.7C179.56,-499.94 191.94,-512.16 203.43,-523.8"/>
<polygon fill="black" stroke="black" points="200.95,-526.27 210.45,-530.95 205.95,-521.37 200.95,-526.27"/>
</g>
<!-- BB8&#45;&gt;BB7 -->
<g id="edge12" class="edge">
<title>BB8&#45;&gt;BB7</title>
<path fill="none" stroke="black" d="M199.44,-532.77C187.7,-521.48 175.26,-509.19 163.71,-497.5"/>
<polygon fill="black" stroke="black" points="166.15,-494.99 156.65,-490.3 161.16,-499.89 166.15,-494.99"/>
</g>
<!-- BB9 -->
<g id="node10" class="node">
<title>BB9</title>
<ellipse fill="none" stroke="black" cx="357.09" cy="-444.58" rx="103.48" ry="48.17"/>
<text text-anchor="middle" x="357.09" y="-463.38" font-family="Times New Roman,serif" font-size="14.00">[d6..ec)</text>
<text text-anchor="middle" x="357.09" y="-448.38" font-family="Times New Roman,serif" font-size="14.00">Count: 2</text>
<text text-anchor="middle" x="357.09" y="-433.38" font-family="Times New Roman,serif" font-size="14.00">Normalized count: 1.00</text>
<text text-anchor="middle" x="357.09" y="-418.38" font-family="Times New Roman,serif" font-size="14.00">Samples weight: 0.00</text>
</g>
<!-- BB8&#45;&gt;BB9 -->
<g id="edge13" class="edge">
<title>BB8&#45;&gt;BB9</title>
<path fill="none" stroke="black" d="M286.25,-530.95C295.19,-520.18 304.81,-508.59 313.99,-497.52"/>
<polygon fill="black" stroke="black" points="316.89,-499.51 320.58,-489.58 311.5,-495.04 316.89,-499.51"/>
</g>
<!-- BB15 -->
<g id="node16" class="node">
<title>BB15</title>
<ellipse fill="none" stroke="black" cx="553.09" cy="-576.75" rx="103.48" ry="48.17"/>
<text text-anchor="middle" x="553.09" y="-595.55" font-family="Times New Roman,serif" font-size="14.00">[150..158)</text>
<text text-anchor="middle" x="553.09" y="-580.55" font-family="Times New Roman,serif" font-size="14.00">Count: 0</text>
<text text-anchor="middle" x="553.09" y="-565.55" font-family="Times New Roman,serif" font-size="14.00">Normalized count: 0.00</text>
<text text-anchor="middle" x="553.09" y="-550.55" font-family="Times New Roman,serif" font-size="14.00">Samples weight: 0.00</text>
</g>
<!-- BB10&#45;&gt;BB15 -->
<g id="edge14" class="edge">
<title>BB10&#45;&gt;BB15</title>
<path fill="none" stroke="black" d="M508.41,-662.02C513.46,-652.5 518.83,-642.37 524.03,-632.56"/>
<polygon fill="black" stroke="black" points="527.16,-634.14 528.75,-623.67 520.97,-630.86 527.16,-634.14"/>
</g>
<!-- BB11 -->
<g id="node12" class="node">
<title>BB11</title>
<ellipse fill="none" stroke="black" cx="619.09" cy="-444.58" rx="103.48" ry="48.17"/>
<text text-anchor="middle" x="619.09" y="-463.38" font-family="Times New Roman,serif" font-size="14.00">[10f..132)</text>
<text text-anchor="middle" x="619.09" y="-448.38" font-family="Times New Roman,serif" font-size="14.00">Count: 0</text>
<text text-anchor="middle" x="619.09" y="-433.38" font-family="Times New Roman,serif" font-size="14.00">Normalized count: 0.00</text>
<text text-anchor="middle" x="619.09" y="-418.38" font-family="Times New Roman,serif" font-size="14.00">Samples weight: 0.00</text>
</g>
<!-- BB12 -->
<g id="node13" class="node">
<title>BB12</title>
<ellipse fill="none" stroke="black" cx="619.09" cy="-312.42" rx="103.48" ry="48.17"/>
<text text-anchor="middle" x="619.09" y="-331.22" font-family="Times New Roman,serif" font-size="14.00">[132..136)</text>
<text text-anchor="middle" x="619.09" y="-316.22" font-family="Times New Roman,serif" font-size="14.00">Count: 0</text>
<text text-anchor="middle" x="619.09" y="-301.22" font-family="Times New Roman,serif" font-size="14.00">Normalized count: 0.00</text>
<text text-anchor="middle" x="619.09" y="-286.22" font-family="Times New Roman,serif" font-size="14.00">Samples weight: 0.00</text>
</g>
<!-- BB11&#45;&gt;BB12 -->
<g id="edge16" class="edge">
<title>BB11&#45;&gt;BB12</title>
<path fill="none" stroke="black" d="M619.09,-396.22C619.09,-387.95 619.09,-379.27 619.09,-370.77"/>
<polygon fill="black" stroke="black" points="622.59,-370.52 619.09,-360.52 615.59,-370.52 622.59,-370.52"/>
</g>
<!-- BB13 -->
<g id="node14" class="node">
<title>BB13</title>
<ellipse fill="none" stroke="black" cx="843.09" cy="-312.42" rx="103.48" ry="48.17"/>
<text text-anchor="middle" x="843.09" y="-331.22" font-family="Times New Roman,serif" font-size="14.00">[136..140)</text>
<text text-anchor="middle" x="843.09" y="-316.22" font-family="Times New Roman,serif" font-size="14.00">Count: 0</text>
<text text-anchor="middle" x="843.09" y="-301.22" font-family="Times New Roman,serif" font-size="14.00">Normalized count: 0.00</text>
<text text-anchor="middle" x="843.09" y="-286.22" font-family="Times New Roman,serif" font-size="14.00">Samples weight: 0.00</text>
</g>
<!-- BB11&#45;&gt;BB13 -->
<g id="edge15" class="edge">
<title>BB11&#45;&gt;BB13</title>
<path fill="none" stroke="black" d="M682.68,-406.63C710.11,-390.69 742.33,-371.97 770.68,-355.49"/>
<polygon fill="black" stroke="black" points="772.45,-358.51 779.34,-350.46 768.93,-352.46 772.45,-358.51"/>
</g>
<!-- BB14 -->
<g id="node15" class="node">
<title>BB14</title>
<ellipse fill="none" stroke="black" cx="619.09" cy="-180.25" rx="103.48" ry="48.17"/>
<text text-anchor="middle" x="619.09" y="-199.05" font-family="Times New Roman,serif" font-size="14.00">[140..150)</text>
<text text-anchor="middle" x="619.09" y="-184.05" font-family="Times New Roman,serif" font-size="14.00">Count: 0</text>
<text text-anchor="middle" x="619.09" y="-169.05" font-family="Times New Roman,serif" font-size="14.00">Normalized count: 0.00</text>
<text text-anchor="middle" x="619.09" y="-154.05" font-family="Times New Roman,serif" font-size="14.00">Samples weight: 0.00</text>
</g>
<!-- BB12&#45;&gt;BB14 -->
<g id="edge17" class="edge">
<title>BB12&#45;&gt;BB14</title>
<path fill="none" stroke="black" d="M619.09,-264.05C619.09,-255.79 619.09,-247.1 619.09,-238.6"/>
<polygon fill="black" stroke="black" points="622.59,-238.36 619.09,-228.36 615.59,-238.36 622.59,-238.36"/>
</g>
<!-- BB13&#45;&gt;BB14 -->
<g id="edge18" class="edge">
<title>BB13&#45;&gt;BB14</title>
<path fill="none" stroke="black" d="M779.5,-274.46C752.07,-258.52 719.84,-239.8 691.5,-223.33"/>
<polygon fill="black" stroke="black" points="693.24,-220.29 682.84,-218.29 689.72,-226.35 693.24,-220.29"/>
</g>
<!-- BB14&#45;&gt;BB15 -->
<g id="edge19" class="edge">
<title>BB14&#45;&gt;BB15</title>
<path fill="none" stroke="black" d="M550.95,-216.41C533.45,-229 516.83,-244.98 507.09,-264.33 461.46,-354.98 481.7,-394.41 507.09,-492.67 509.59,-502.36 513.5,-512.14 518,-521.41"/>
<polygon fill="black" stroke="black" points="514.98,-523.19 522.67,-530.48 521.21,-519.99 514.98,-523.19"/>
</g>
<!-- BB15&#45;&gt;BB11 -->
<g id="edge20" class="edge">
<title>BB15&#45;&gt;BB11</title>
<path fill="none" stroke="black" d="M576.36,-529.86C581.14,-520.43 586.22,-510.41 591.14,-500.69"/>
<polygon fill="black" stroke="black" points="594.4,-502 595.81,-491.5 588.16,-498.84 594.4,-502"/>
</g>
<!-- BB16 -->
<g id="node17" class="node">
<title>BB16</title>
<ellipse fill="none" stroke="black" cx="1067.09" cy="-444.58" rx="103.48" ry="48.17"/>
<text text-anchor="middle" x="1067.09" y="-463.38" font-family="Times New Roman,serif" font-size="14.00">[158..167)</text>
<text text-anchor="middle" x="1067.09" y="-448.38" font-family="Times New Roman,serif" font-size="14.00">Count: 0</text>
<text text-anchor="middle" x="1067.09" y="-433.38" font-family="Times New Roman,serif" font-size="14.00">Normalized count: 0.00</text>
<text text-anchor="middle" x="1067.09" y="-418.38" font-family="Times New Roman,serif" font-size="14.00">Samples weight: 0.00</text>
</g>
<!-- BB15&#45;&gt;BB16 -->
<g id="edge21" class="edge">
<title>BB15&#45;&gt;BB16</title>
<path fill="none" stroke="black" d="M642.91,-553C733.52,-530.06 873.1,-494.71 967.15,-470.89"/>
<polygon fill="black" stroke="black" points="968.13,-474.25 976.96,-468.41 966.41,-467.47 968.13,-474.25"/>
</g>
<!-- BB17 -->
<g id="node18" class="node">
<title>BB17</title>
<ellipse fill="none" stroke="black" cx="1067.09" cy="-312.42" rx="103.48" ry="48.17"/>
<text text-anchor="middle" x="1067.09" y="-331.22" font-family="Times New Roman,serif" font-size="14.00">[167..1b8)</text>
<text text-anchor="middle" x="1067.09" y="-316.22" font-family="Times New Roman,serif" font-size="14.00">Count: 0</text>
<text text-anchor="middle" x="1067.09" y="-301.22" font-family="Times New Roman,serif" font-size="14.00">Normalized count: 0.00</text>
<text text-anchor="middle" x="1067.09" y="-286.22" font-family="Times New Roman,serif" font-size="14.00">Samples weight: 0.00</text>
</g>
<!-- BB16&#45;&gt;BB17 -->
<g id="edge23" class="edge">
<title>BB16&#45;&gt;BB17</title>
<path fill="none" stroke="black" d="M1067.09,-396.22C1067.09,-387.95 1067.09,-379.27 1067.09,-370.77"/>
<polygon fill="black" stroke="black" points="1070.59,-370.52 1067.09,-360.52 1063.59,-370.52 1070.59,-370.52"/>
</g>
<!-- BB20 -->
<g id="node21" class="node">
<title>BB20</title>
<ellipse fill="none" stroke="black" cx="1291.09" cy="-312.42" rx="103.48" ry="48.17"/>
<text text-anchor="middle" x="1291.09" y="-331.22" font-family="Times New Roman,serif" font-size="14.00">[1ce..1cf)</text>
<text text-anchor="middle" x="1291.09" y="-316.22" font-family="Times New Roman,serif" font-size="14.00">Count: 0</text>
<text text-anchor="middle" x="1291.09" y="-301.22" font-family="Times New Roman,serif" font-size="14.00">Normalized count: 0.00</text>
<text text-anchor="middle" x="1291.09" y="-286.22" font-family="Times New Roman,serif" font-size="14.00">Samples weight: 0.00</text>
</g>
<!-- BB16&#45;&gt;BB20 -->
<g id="edge22" class="edge">
<title>BB16&#45;&gt;BB20</title>
<path fill="none" stroke="black" d="M1130.68,-406.63C1158.11,-390.69 1190.33,-371.97 1218.68,-355.49"/>
<polygon fill="black" stroke="black" points="1220.45,-358.51 1227.34,-350.46 1216.93,-352.46 1220.45,-358.51"/>
</g>
<!-- BB19 -->
<g id="node20" class="node">
<title>BB19</title>
<ellipse fill="none" stroke="black" cx="1179.09" cy="-180.25" rx="103.48" ry="48.17"/>
<text text-anchor="middle" x="1179.09" y="-199.05" font-family="Times New Roman,serif" font-size="14.00">[1c8..1ce)</text>
<text text-anchor="middle" x="1179.09" y="-184.05" font-family="Times New Roman,serif" font-size="14.00">Count: 0</text>
<text text-anchor="middle" x="1179.09" y="-169.05" font-family="Times New Roman,serif" font-size="14.00">Normalized count: 0.00</text>
<text text-anchor="middle" x="1179.09" y="-154.05" font-family="Times New Roman,serif" font-size="14.00">Samples weight: 0.00</text>
</g>
<!-- BB17&#45;&gt;BB19 -->
<g id="edge24" class="edge">
<title>BB17&#45;&gt;BB19</title>
<path fill="none" stroke="black" d="M1105,-267.35C1114.49,-256.32 1124.76,-244.39 1134.53,-233.03"/>
<polygon fill="black" stroke="black" points="1137.34,-235.14 1141.21,-225.27 1132.03,-230.57 1137.34,-235.14"/>
</g>
<!-- BB18 -->
<g id="node19" class="node">
<title>BB18</title>
<ellipse fill="none" stroke="black" cx="1179.09" cy="-48.08" rx="103.48" ry="48.17"/>
<text text-anchor="middle" x="1179.09" y="-66.88" font-family="Times New Roman,serif" font-size="14.00">[1b8..1c8)</text>
<text text-anchor="middle" x="1179.09" y="-51.88" font-family="Times New Roman,serif" font-size="14.00">Count: 0</text>
<text text-anchor="middle" x="1179.09" y="-36.88" font-family="Times New Roman,serif" font-size="14.00">Normalized count: 0.00</text>
<text text-anchor="middle" x="1179.09" y="-21.88" font-family="Times New Roman,serif" font-size="14.00">Samples weight: 0.00</text>
</g>
<!-- BB18&#45;&gt;BB19 -->
<g id="edge25" class="edge">
<title>BB18&#45;&gt;BB19</title>
<path fill="none" stroke="black" d="M1185.61,-96.44C1185.83,-104.74 1185.89,-113.45 1185.79,-121.98"/>
<polygon fill="black" stroke="black" points="1182.29,-122.19 1185.6,-132.26 1189.29,-122.32 1182.29,-122.19"/>
</g>
<!-- BB19&#45;&gt;BB18 -->
<g id="edge26" class="edge">
<title>BB19&#45;&gt;BB18</title>
<path fill="none" stroke="black" d="M1172.57,-132.26C1172.35,-123.88 1172.28,-115.07 1172.38,-106.45"/>
<polygon fill="black" stroke="black" points="1175.88,-106.51 1172.56,-96.44 1168.88,-106.38 1175.88,-106.51"/>
</g>
<!-- BB19&#45;&gt;BB20 -->
<g id="edge27" class="edge">
<title>BB19&#45;&gt;BB20</title>
<path fill="none" stroke="black" d="M1216.97,-225.27C1226.45,-236.3 1236.71,-248.22 1246.49,-259.59"/>
<polygon fill="black" stroke="black" points="1243.99,-262.05 1253.17,-267.35 1249.3,-257.48 1243.99,-262.05"/>
</g>
</g>
</svg>
