<?xml version="1.0" encoding="UTF-8" standalone="no"?>
<!DOCTYPE svg PUBLIC "-//W3C//DTD SVG 1.1//EN"
 "http://www.w3.org/Graphics/SVG/1.1/DTD/svg11.dtd">
<!-- Generated by graphviz version 2.47.0 (20210316.0004)
 -->
<!-- Title: G Pages: 1 -->
<svg width="710pt" height="1029pt"
 viewBox="0.00 0.00 710.30 1029.33" xmlns="http://www.w3.org/2000/svg" xmlns:xlink="http://www.w3.org/1999/xlink">
<g id="graph0" class="graph" transform="scale(1 1) rotate(0) translate(4 1025.33)">
<title>G</title>
<polygon fill="white" stroke="transparent" points="-4,4 -4,-1025.33 706.3,-1025.33 706.3,4 -4,4"/>
<!-- BB0 -->
<g id="node1" class="node">
<title>BB0</title>
<ellipse fill="none" stroke="black" cx="464.65" cy="-973.25" rx="104.8" ry="48.17"/>
<text text-anchor="middle" x="464.65" y="-992.05" font-family="Times New Roman,serif" font-size="14.00">[0..1d)</text>
<text text-anchor="middle" x="464.65" y="-977.05" font-family="Times New Roman,serif" font-size="14.00">Count: 0</text>
<text text-anchor="middle" x="464.65" y="-962.05" font-family="Times New Roman,serif" font-size="14.00">Normalized count: NaN</text>
<text text-anchor="middle" x="464.65" y="-947.05" font-family="Times New Roman,serif" font-size="14.00">Samples weight: 0.00</text>
</g>
<!-- BB10 -->
<g id="node11" class="node">
<title>BB10</title>
<ellipse fill="none" stroke="black" cx="464.65" cy="-841.08" rx="104.8" ry="48.17"/>
<text text-anchor="middle" x="464.65" y="-859.88" font-family="Times New Roman,serif" font-size="14.00">[88..97)</text>
<text text-anchor="middle" x="464.65" y="-844.88" font-family="Times New Roman,serif" font-size="14.00">Count: 0</text>
<text text-anchor="middle" x="464.65" y="-829.88" font-family="Times New Roman,serif" font-size="14.00">Normalized count: NaN</text>
<text text-anchor="middle" x="464.65" y="-814.88" font-family="Times New Roman,serif" font-size="14.00">Samples weight: 0.00</text>
</g>
<!-- BB0&#45;&gt;BB10 -->
<g id="edge1" class="edge">
<title>BB0&#45;&gt;BB10</title>
<path fill="none" stroke="black" d="M464.65,-924.89C464.65,-916.62 464.65,-907.94 464.65,-899.43"/>
<polygon fill="black" stroke="black" points="468.15,-899.19 464.65,-889.19 461.15,-899.19 468.15,-899.19"/>
</g>
<!-- BB1 -->
<g id="node2" class="node">
<title>BB1</title>
<ellipse fill="none" stroke="black" cx="331.65" cy="-708.92" rx="104.8" ry="48.17"/>
<text text-anchor="middle" x="331.65" y="-727.72" font-family="Times New Roman,serif" font-size="14.00">[1d..30)</text>
<text text-anchor="middle" x="331.65" y="-712.72" font-family="Times New Roman,serif" font-size="14.00">Count: 0</text>
<text text-anchor="middle" x="331.65" y="-697.72" font-family="Times New Roman,serif" font-size="14.00">Normalized count: NaN</text>
<text text-anchor="middle" x="331.65" y="-682.72" font-family="Times New Roman,serif" font-size="14.00">Samples weight: 0.00</text>
</g>
<!-- BB2 -->
<g id="node3" class="node">
<title>BB2</title>
<ellipse fill="none" stroke="black" cx="104.65" cy="-576.75" rx="104.8" ry="48.17"/>
<text text-anchor="middle" x="104.65" y="-595.55" font-family="Times New Roman,serif" font-size="14.00">[30..46)</text>
<text text-anchor="middle" x="104.65" y="-580.55" font-family="Times New Roman,serif" font-size="14.00">Count: 0</text>
<text text-anchor="middle" x="104.65" y="-565.55" font-family="Times New Roman,serif" font-size="14.00">Normalized count: NaN</text>
<text text-anchor="middle" x="104.65" y="-550.55" font-family="Times New Roman,serif" font-size="14.00">Samples weight: 0.00</text>
</g>
<!-- BB1&#45;&gt;BB2 -->
<g id="edge3" class="edge">
<title>BB1&#45;&gt;BB2</title>
<path fill="none" stroke="black" d="M267.21,-670.96C239.41,-655.02 206.76,-636.3 178.03,-619.83"/>
<polygon fill="black" stroke="black" points="179.67,-616.73 169.25,-614.79 176.19,-622.8 179.67,-616.73"/>
</g>
<!-- BB4 -->
<g id="node5" class="node">
<title>BB4</title>
<ellipse fill="none" stroke="black" cx="331.65" cy="-576.75" rx="104.8" ry="48.17"/>
<text text-anchor="middle" x="331.65" y="-595.55" font-family="Times New Roman,serif" font-size="14.00">[49..4e)</text>
<text text-anchor="middle" x="331.65" y="-580.55" font-family="Times New Roman,serif" font-size="14.00">Count: 0</text>
<text text-anchor="middle" x="331.65" y="-565.55" font-family="Times New Roman,serif" font-size="14.00">Normalized count: NaN</text>
<text text-anchor="middle" x="331.65" y="-550.55" font-family="Times New Roman,serif" font-size="14.00">Samples weight: 0.00</text>
</g>
<!-- BB1&#45;&gt;BB4 -->
<g id="edge2" class="edge">
<title>BB1&#45;&gt;BB4</title>
<path fill="none" stroke="black" d="M331.65,-660.55C331.65,-652.29 331.65,-643.6 331.65,-635.1"/>
<polygon fill="black" stroke="black" points="335.15,-634.86 331.65,-624.86 328.15,-634.86 335.15,-634.86"/>
</g>
<!-- BB3 -->
<g id="node4" class="node">
<title>BB3</title>
<ellipse fill="none" stroke="black" cx="166.65" cy="-444.58" rx="104.8" ry="48.17"/>
<text text-anchor="middle" x="166.65" y="-463.38" font-family="Times New Roman,serif" font-size="14.00">[46..49)</text>
<text text-anchor="middle" x="166.65" y="-448.38" font-family="Times New Roman,serif" font-size="14.00">Count: 0</text>
<text text-anchor="middle" x="166.65" y="-433.38" font-family="Times New Roman,serif" font-size="14.00">Normalized count: NaN</text>
<text text-anchor="middle" x="166.65" y="-418.38" font-family="Times New Roman,serif" font-size="14.00">Samples weight: 0.00</text>
</g>
<!-- BB2&#45;&gt;BB3 -->
<g id="edge5" class="edge">
<title>BB2&#45;&gt;BB3</title>
<path fill="none" stroke="black" d="M126.69,-529.49C131.12,-520.19 135.82,-510.32 140.37,-500.75"/>
<polygon fill="black" stroke="black" points="143.55,-502.23 144.69,-491.69 137.23,-499.22 143.55,-502.23"/>
</g>
<!-- BB2&#45;&gt;BB4 -->
<g id="edge4" class="edge">
<title>BB2&#45;&gt;BB4</title>
<path fill="none" stroke="black" d="M209.73,-576.75C212.05,-576.75 214.37,-576.75 216.69,-576.75"/>
<polygon fill="black" stroke="black" points="216.87,-580.25 226.87,-576.75 216.87,-573.25 216.87,-580.25"/>
</g>
<!-- BB3&#45;&gt;BB4 -->
<g id="edge6" class="edge">
<title>BB3&#45;&gt;BB4</title>
<path fill="none" stroke="black" d="M218.51,-486.49C235.48,-499.88 254.47,-514.86 271.97,-528.67"/>
<polygon fill="black" stroke="black" points="269.88,-531.48 279.9,-534.92 274.21,-525.98 269.88,-531.48"/>
</g>
<!-- BB9 -->
<g id="node10" class="node">
<title>BB9</title>
<ellipse fill="none" stroke="black" cx="433.65" cy="-444.58" rx="113.69" ry="48.17"/>
<text text-anchor="middle" x="433.65" y="-463.38" font-family="Times New Roman,serif" font-size="14.00">[83..88)</text>
<text text-anchor="middle" x="433.65" y="-448.38" font-family="Times New Roman,serif" font-size="14.00">Count: 16</text>
<text text-anchor="middle" x="433.65" y="-433.38" font-family="Times New Roman,serif" font-size="14.00">Normalized count: Infinity</text>
<text text-anchor="middle" x="433.65" y="-418.38" font-family="Times New Roman,serif" font-size="14.00">Samples weight: 0.08</text>
</g>
<!-- BB4&#45;&gt;BB9 -->
<g id="edge7" class="edge">
<title>BB4&#45;&gt;BB9</title>
<path fill="none" stroke="black" d="M366.47,-531.32C374.66,-520.87 383.46,-509.63 391.92,-498.84"/>
<polygon fill="black" stroke="black" points="394.88,-500.73 398.3,-490.7 389.38,-496.41 394.88,-500.73"/>
</g>
<!-- BB5 -->
<g id="node6" class="node">
<title>BB5</title>
<ellipse fill="none" stroke="black" cx="362.65" cy="-312.42" rx="113.69" ry="48.17"/>
<text text-anchor="middle" x="362.65" y="-331.22" font-family="Times New Roman,serif" font-size="14.00">[4e..5b)</text>
<text text-anchor="middle" x="362.65" y="-316.22" font-family="Times New Roman,serif" font-size="14.00">Count: 41</text>
<text text-anchor="middle" x="362.65" y="-301.22" font-family="Times New Roman,serif" font-size="14.00">Normalized count: Infinity</text>
<text text-anchor="middle" x="362.65" y="-286.22" font-family="Times New Roman,serif" font-size="14.00">Samples weight: 0.19</text>
</g>
<!-- BB6 -->
<g id="node7" class="node">
<title>BB6</title>
<ellipse fill="none" stroke="black" cx="258.65" cy="-180.25" rx="113.69" ry="48.17"/>
<text text-anchor="middle" x="258.65" y="-199.05" font-family="Times New Roman,serif" font-size="14.00">[5b..7a)</text>
<text text-anchor="middle" x="258.65" y="-184.05" font-family="Times New Roman,serif" font-size="14.00">Count: 132</text>
<text text-anchor="middle" x="258.65" y="-169.05" font-family="Times New Roman,serif" font-size="14.00">Normalized count: Infinity</text>
<text text-anchor="middle" x="258.65" y="-154.05" font-family="Times New Roman,serif" font-size="14.00">Samples weight: 0.62</text>
</g>
<!-- BB5&#45;&gt;BB6 -->
<g id="edge9" class="edge">
<title>BB5&#45;&gt;BB6</title>
<path fill="none" stroke="black" d="M326.86,-266.62C318.53,-256.19 309.58,-244.99 300.99,-234.24"/>
<polygon fill="black" stroke="black" points="303.49,-231.76 294.51,-226.13 298.02,-236.13 303.49,-231.76"/>
</g>
<!-- BB8 -->
<g id="node9" class="node">
<title>BB8</title>
<ellipse fill="none" stroke="black" cx="504.65" cy="-180.25" rx="113.69" ry="48.17"/>
<text text-anchor="middle" x="504.65" y="-199.05" font-family="Times New Roman,serif" font-size="14.00">[7d..83)</text>
<text text-anchor="middle" x="504.65" y="-184.05" font-family="Times New Roman,serif" font-size="14.00">Count: 23</text>
<text text-anchor="middle" x="504.65" y="-169.05" font-family="Times New Roman,serif" font-size="14.00">Normalized count: Infinity</text>
<text text-anchor="middle" x="504.65" y="-154.05" font-family="Times New Roman,serif" font-size="14.00">Samples weight: 0.11</text>
</g>
<!-- BB5&#45;&gt;BB8 -->
<g id="edge8" class="edge">
<title>BB5&#45;&gt;BB8</title>
<path fill="none" stroke="black" d="M409.54,-268.43C422.63,-256.44 436.96,-243.3 450.43,-230.95"/>
<polygon fill="black" stroke="black" points="452.8,-233.52 457.81,-224.19 448.07,-228.36 452.8,-233.52"/>
</g>
<!-- BB7 -->
<g id="node8" class="node">
<title>BB7</title>
<ellipse fill="none" stroke="black" cx="381.65" cy="-48.08" rx="104.8" ry="48.17"/>
<text text-anchor="middle" x="381.65" y="-66.88" font-family="Times New Roman,serif" font-size="14.00">[7a..7d)</text>
<text text-anchor="middle" x="381.65" y="-51.88" font-family="Times New Roman,serif" font-size="14.00">Count: 0</text>
<text text-anchor="middle" x="381.65" y="-36.88" font-family="Times New Roman,serif" font-size="14.00">Normalized count: NaN</text>
<text text-anchor="middle" x="381.65" y="-21.88" font-family="Times New Roman,serif" font-size="14.00">Samples weight: 0.00</text>
</g>
<!-- BB6&#45;&gt;BB7 -->
<g id="edge11" class="edge">
<title>BB6&#45;&gt;BB7</title>
<path fill="none" stroke="black" d="M300.29,-135.18C310.93,-123.93 322.45,-111.74 333.38,-100.16"/>
<polygon fill="black" stroke="black" points="336.15,-102.34 340.47,-92.66 331.06,-97.53 336.15,-102.34"/>
</g>
<!-- BB6&#45;&gt;BB8 -->
<g id="edge10" class="edge">
<title>BB6&#45;&gt;BB8</title>
<path fill="none" stroke="black" d="M372.52,-180.25C375.16,-180.25 377.79,-180.25 380.43,-180.25"/>
<polygon fill="black" stroke="black" points="380.59,-183.75 390.59,-180.25 380.59,-176.75 380.59,-183.75"/>
</g>
<!-- BB7&#45;&gt;BB8 -->
<g id="edge12" class="edge">
<title>BB7&#45;&gt;BB8</title>
<path fill="none" stroke="black" d="M422.83,-92.66C433.44,-103.89 444.96,-116.08 455.91,-127.67"/>
<polygon fill="black" stroke="black" points="453.6,-130.32 463.01,-135.18 458.69,-125.51 453.6,-130.32"/>
</g>
<!-- BB8&#45;&gt;BB9 -->
<g id="edge13" class="edge">
<title>BB8&#45;&gt;BB9</title>
<path fill="none" stroke="black" d="M505.39,-228.55C504.62,-265.44 500.51,-317.46 485.65,-360.5 482.24,-370.37 477.48,-380.29 472.21,-389.66"/>
<polygon fill="black" stroke="black" points="469.08,-388.06 467.02,-398.45 475.12,-391.62 469.08,-388.06"/>
</g>
<!-- BB9&#45;&gt;BB5 -->
<g id="edge14" class="edge">
<title>BB9&#45;&gt;BB5</title>
<path fill="none" stroke="black" d="M408.42,-397.32C403.35,-388.02 397.96,-378.16 392.74,-368.58"/>
<polygon fill="black" stroke="black" points="395.66,-366.63 387.8,-359.53 389.52,-369.98 395.66,-366.63"/>
</g>
<!-- BB9&#45;&gt;BB10 -->
<g id="edge15" class="edge">
<title>BB9&#45;&gt;BB10</title>
<path fill="none" stroke="black" d="M441.18,-492.95C442.84,-504.6 444.46,-517.07 445.65,-528.67 454.72,-617.1 459.97,-720.13 462.57,-782.7"/>
<polygon fill="black" stroke="black" points="459.08,-782.92 462.98,-792.76 466.07,-782.63 459.08,-782.92"/>
</g>
<!-- BB10&#45;&gt;BB1 -->
<g id="edge16" class="edge">
<title>BB10&#45;&gt;BB1</title>
<path fill="none" stroke="black" d="M420.73,-797.1C408.59,-785.21 395.31,-772.21 382.79,-759.96"/>
<polygon fill="black" stroke="black" points="385.12,-757.35 375.52,-752.85 380.22,-762.35 385.12,-757.35"/>
</g>
<!-- BB11 -->
<g id="node12" class="node">
<title>BB11</title>
<ellipse fill="none" stroke="black" cx="597.65" cy="-708.92" rx="104.8" ry="48.17"/>
<text text-anchor="middle" x="597.65" y="-727.72" font-family="Times New Roman,serif" font-size="14.00">[97..ae)</text>
<text text-anchor="middle" x="597.65" y="-712.72" font-family="Times New Roman,serif" font-size="14.00">Count: 0</text>
<text text-anchor="middle" x="597.65" y="-697.72" font-family="Times New Roman,serif" font-size="14.00">Normalized count: NaN</text>
<text text-anchor="middle" x="597.65" y="-682.72" font-family="Times New Roman,serif" font-size="14.00">Samples weight: 0.00</text>
</g>
<!-- BB10&#45;&gt;BB11 -->
<g id="edge17" class="edge">
<title>BB10&#45;&gt;BB11</title>
<path fill="none" stroke="black" d="M508.57,-797.1C520.71,-785.21 534,-772.21 546.51,-759.96"/>
<polygon fill="black" stroke="black" points="549.08,-762.35 553.78,-752.85 544.19,-757.35 549.08,-762.35"/>
</g>
</g>
</svg>
