<?xml version="1.0" encoding="UTF-8" standalone="no"?>
<!DOCTYPE svg PUBLIC "-//W3C//DTD SVG 1.1//EN"
 "http://www.w3.org/Graphics/SVG/1.1/DTD/svg11.dtd">
<!-- Generated by graphviz version 2.47.0 (20210316.0004)
 -->
<!-- Title: G Pages: 1 -->
<svg width="791pt" height="638pt"
 viewBox="0.00 0.00 790.72 637.72" xmlns="http://www.w3.org/2000/svg" xmlns:xlink="http://www.w3.org/1999/xlink">
<g id="graph0" class="graph" transform="scale(1 1) rotate(0) translate(4 633.72)">
<title>G</title>
<polygon fill="white" stroke="transparent" points="-4,4 -4,-633.72 786.72,-633.72 786.72,4 -4,4"/>
<!-- BB0 -->
<g id="node1" class="node">
<title>BB0</title>
<ellipse fill="none" stroke="black" cx="544.36" cy="-592.24" rx="105.22" ry="37.45"/>
<text text-anchor="middle" x="544.36" y="-603.54" font-family="Times New Roman,serif" font-size="14.00">[0..9)</text>
<text text-anchor="middle" x="544.36" y="-588.54" font-family="Times New Roman,serif" font-size="14.00">Normalized Count: 1.00</text>
<text text-anchor="middle" x="544.36" y="-573.54" font-family="Times New Roman,serif" font-size="14.00">Samples weight: 0.02</text>
</g>
<!-- BB8 -->
<g id="node9" class="node">
<title>BB8</title>
<ellipse fill="none" stroke="black" cx="544.36" cy="-481.29" rx="105.22" ry="37.45"/>
<text text-anchor="middle" x="544.36" y="-492.59" font-family="Times New Roman,serif" font-size="14.00">[d4..db)</text>
<text text-anchor="middle" x="544.36" y="-477.59" font-family="Times New Roman,serif" font-size="14.00">Normalized Count: 3.33</text>
<text text-anchor="middle" x="544.36" y="-462.59" font-family="Times New Roman,serif" font-size="14.00">Samples weight: 0.07</text>
</g>
<!-- BB0&#45;&gt;BB8 -->
<g id="edge1" class="edge">
<title>BB0&#45;&gt;BB8</title>
<path fill="none" stroke="black" d="M544.36,-554.66C544.36,-546.49 544.36,-537.71 544.36,-529.18"/>
<polygon fill="black" stroke="black" points="547.86,-528.96 544.36,-518.96 540.86,-528.96 547.86,-528.96"/>
</g>
<!-- BB1 -->
<g id="node2" class="node">
<title>BB1</title>
<ellipse fill="none" stroke="black" cx="409.36" cy="-370.34" rx="105.22" ry="37.45"/>
<text text-anchor="middle" x="409.36" y="-381.64" font-family="Times New Roman,serif" font-size="14.00">[9..2f)</text>
<text text-anchor="middle" x="409.36" y="-366.64" font-family="Times New Roman,serif" font-size="14.00">Normalized Count: 2.83</text>
<text text-anchor="middle" x="409.36" y="-351.64" font-family="Times New Roman,serif" font-size="14.00">Samples weight: 0.06</text>
</g>
<!-- BB2 -->
<g id="node3" class="node">
<title>BB2</title>
<ellipse fill="none" stroke="black" cx="373.36" cy="-259.38" rx="110.12" ry="37.45"/>
<text text-anchor="middle" x="373.36" y="-270.68" font-family="Times New Roman,serif" font-size="14.00">[2f..93)</text>
<text text-anchor="middle" x="373.36" y="-255.68" font-family="Times New Roman,serif" font-size="14.00">Normalized Count: 10.42</text>
<text text-anchor="middle" x="373.36" y="-240.68" font-family="Times New Roman,serif" font-size="14.00">Samples weight: 0.22</text>
</g>
<!-- BB1&#45;&gt;BB2 -->
<g id="edge2" class="edge">
<title>BB1&#45;&gt;BB2</title>
<path fill="none" stroke="black" d="M397.37,-333.06C394.55,-324.51 391.5,-315.29 388.56,-306.38"/>
<polygon fill="black" stroke="black" points="391.88,-305.27 385.42,-296.88 385.23,-307.47 391.88,-305.27"/>
</g>
<!-- BB3 -->
<g id="node4" class="node">
<title>BB3</title>
<ellipse fill="none" stroke="black" cx="105.36" cy="-148.43" rx="105.22" ry="37.45"/>
<text text-anchor="middle" x="105.36" y="-159.73" font-family="Times New Roman,serif" font-size="14.00">[93..9e)</text>
<text text-anchor="middle" x="105.36" y="-144.73" font-family="Times New Roman,serif" font-size="14.00">Normalized Count: 2.51</text>
<text text-anchor="middle" x="105.36" y="-129.73" font-family="Times New Roman,serif" font-size="14.00">Samples weight: 0.05</text>
</g>
<!-- BB2&#45;&gt;BB3 -->
<g id="edge4" class="edge">
<title>BB2&#45;&gt;BB3</title>
<path fill="none" stroke="black" d="M303.99,-230.18C266.96,-215.13 221.27,-196.55 183.05,-181.02"/>
<polygon fill="black" stroke="black" points="184.09,-177.66 173.51,-177.13 181.45,-184.14 184.09,-177.66"/>
</g>
<!-- BB4 -->
<g id="node5" class="node">
<title>BB4</title>
<ellipse fill="none" stroke="black" cx="339.36" cy="-148.43" rx="110.12" ry="37.45"/>
<text text-anchor="middle" x="339.36" y="-159.73" font-family="Times New Roman,serif" font-size="14.00">[9e..b1)</text>
<text text-anchor="middle" x="339.36" y="-144.73" font-family="Times New Roman,serif" font-size="14.00">Normalized Count: 10.33</text>
<text text-anchor="middle" x="339.36" y="-129.73" font-family="Times New Roman,serif" font-size="14.00">Samples weight: 0.22</text>
</g>
<!-- BB2&#45;&gt;BB4 -->
<g id="edge3" class="edge">
<title>BB2&#45;&gt;BB4</title>
<path fill="none" stroke="black" d="M362.04,-222.1C359.4,-213.65 356.55,-204.53 353.8,-195.71"/>
<polygon fill="black" stroke="black" points="357.07,-194.43 350.75,-185.92 350.38,-196.51 357.07,-194.43"/>
</g>
<!-- BB3&#45;&gt;BB4 -->
<g id="edge6" class="edge">
<title>BB3&#45;&gt;BB4</title>
<path fill="none" stroke="black" d="M210.93,-148.43C213.57,-148.43 216.2,-148.43 218.83,-148.43"/>
<polygon fill="black" stroke="black" points="218.99,-151.93 228.99,-148.43 218.99,-144.93 218.99,-151.93"/>
</g>
<!-- BB7 -->
<g id="node8" class="node">
<title>BB7</title>
<ellipse fill="none" stroke="black" cx="573.36" cy="-37.48" rx="105.22" ry="37.45"/>
<text text-anchor="middle" x="573.36" y="-48.78" font-family="Times New Roman,serif" font-size="14.00">[c9..d4)</text>
<text text-anchor="middle" x="573.36" y="-33.78" font-family="Times New Roman,serif" font-size="14.00">Normalized Count: 2.64</text>
<text text-anchor="middle" x="573.36" y="-18.78" font-family="Times New Roman,serif" font-size="14.00">Samples weight: 0.06</text>
</g>
<!-- BB3&#45;&gt;BB7 -->
<g id="edge5" class="edge">
<title>BB3&#45;&gt;BB7</title>
<path fill="none" stroke="black" d="M180.05,-121.87C193.37,-117.85 207.2,-114.02 220.36,-110.95 324.56,-86.71 354.16,-99.2 458.36,-74.95 468.33,-72.63 478.69,-69.87 488.92,-66.92"/>
<polygon fill="black" stroke="black" points="490.07,-70.22 498.67,-64.03 488.09,-63.51 490.07,-70.22"/>
</g>
<!-- BB5 -->
<g id="node6" class="node">
<title>BB5</title>
<ellipse fill="none" stroke="black" cx="105.36" cy="-37.48" rx="105.22" ry="37.45"/>
<text text-anchor="middle" x="105.36" y="-48.78" font-family="Times New Roman,serif" font-size="14.00">[b1..bc)</text>
<text text-anchor="middle" x="105.36" y="-33.78" font-family="Times New Roman,serif" font-size="14.00">Normalized Count: 2.46</text>
<text text-anchor="middle" x="105.36" y="-18.78" font-family="Times New Roman,serif" font-size="14.00">Samples weight: 0.05</text>
</g>
<!-- BB4&#45;&gt;BB5 -->
<g id="edge8" class="edge">
<title>BB4&#45;&gt;BB5</title>
<path fill="none" stroke="black" d="M275.73,-117.8C245.3,-103.64 208.75,-86.62 177.32,-71.98"/>
<polygon fill="black" stroke="black" points="178.71,-68.77 168.17,-67.72 175.76,-75.12 178.71,-68.77"/>
</g>
<!-- BB6 -->
<g id="node7" class="node">
<title>BB6</title>
<ellipse fill="none" stroke="black" cx="339.36" cy="-37.48" rx="110.12" ry="37.45"/>
<text text-anchor="middle" x="339.36" y="-48.78" font-family="Times New Roman,serif" font-size="14.00">[bc..c9)</text>
<text text-anchor="middle" x="339.36" y="-33.78" font-family="Times New Roman,serif" font-size="14.00">Normalized Count: 10.36</text>
<text text-anchor="middle" x="339.36" y="-18.78" font-family="Times New Roman,serif" font-size="14.00">Samples weight: 0.22</text>
</g>
<!-- BB4&#45;&gt;BB6 -->
<g id="edge7" class="edge">
<title>BB4&#45;&gt;BB6</title>
<path fill="none" stroke="black" d="M339.36,-110.85C339.36,-102.67 339.36,-93.89 339.36,-85.37"/>
<polygon fill="black" stroke="black" points="342.86,-85.15 339.36,-75.15 335.86,-85.15 342.86,-85.15"/>
</g>
<!-- BB5&#45;&gt;BB6 -->
<g id="edge10" class="edge">
<title>BB5&#45;&gt;BB6</title>
<path fill="none" stroke="black" d="M210.93,-37.48C213.57,-37.48 216.2,-37.48 218.83,-37.48"/>
<polygon fill="black" stroke="black" points="218.99,-40.98 228.99,-37.48 218.99,-33.98 218.99,-40.98"/>
</g>
<!-- BB5&#45;&gt;BB7 -->
<g id="edge9" class="edge">
<title>BB5&#45;&gt;BB7</title>
<path fill="none" stroke="black" d="M162.62,-69.13C183.05,-78.77 206.64,-88.1 229.36,-92.95 324.98,-113.37 353.74,-113.37 449.36,-92.95 468.7,-88.82 488.69,-81.44 506.81,-73.39"/>
<polygon fill="black" stroke="black" points="508.47,-76.48 516.1,-69.13 505.55,-70.11 508.47,-76.48"/>
</g>
<!-- BB6&#45;&gt;BB2 -->
<g id="edge11" class="edge">
<title>BB6&#45;&gt;BB2</title>
<path fill="none" stroke="black" d="M410.81,-66.25C429.62,-77.22 447.64,-91.87 458.36,-110.95 474.68,-140 472.32,-155.66 458.36,-185.91 452.54,-198.52 443.32,-209.74 433.07,-219.38"/>
<polygon fill="black" stroke="black" points="430.63,-216.86 425.45,-226.1 435.26,-222.11 430.63,-216.86"/>
</g>
<!-- BB6&#45;&gt;BB7 -->
<g id="edge12" class="edge">
<title>BB6&#45;&gt;BB7</title>
<path fill="none" stroke="black" d="M449.96,-37.48C452.56,-37.48 455.16,-37.48 457.76,-37.48"/>
<polygon fill="black" stroke="black" points="457.8,-40.98 467.8,-37.48 457.8,-33.98 457.8,-40.98"/>
</g>
<!-- BB7&#45;&gt;BB8 -->
<g id="edge13" class="edge">
<title>BB7&#45;&gt;BB8</title>
<path fill="none" stroke="black" d="M570.96,-75.05C565.71,-155.04 553.21,-345.4 547.41,-433.76"/>
<polygon fill="black" stroke="black" points="543.92,-433.55 546.76,-443.76 550.9,-434.01 543.92,-433.55"/>
</g>
<!-- BB8&#45;&gt;BB1 -->
<g id="edge14" class="edge">
<title>BB8&#45;&gt;BB1</title>
<path fill="none" stroke="black" d="M502.75,-446.71C488.89,-435.53 473.32,-422.96 458.92,-411.34"/>
<polygon fill="black" stroke="black" points="461.04,-408.55 451.06,-404.99 456.64,-414 461.04,-408.55"/>
</g>
<!-- BB9 -->
<g id="node10" class="node">
<title>BB9</title>
<ellipse fill="none" stroke="black" cx="677.36" cy="-370.34" rx="105.22" ry="37.45"/>
<text text-anchor="middle" x="677.36" y="-381.64" font-family="Times New Roman,serif" font-size="14.00">[db..e0)</text>
<text text-anchor="middle" x="677.36" y="-366.64" font-family="Times New Roman,serif" font-size="14.00">Normalized Count: 0.95</text>
<text text-anchor="middle" x="677.36" y="-351.64" font-family="Times New Roman,serif" font-size="14.00">Samples weight: 0.02</text>
</g>
<!-- BB8&#45;&gt;BB9 -->
<g id="edge15" class="edge">
<title>BB8&#45;&gt;BB9</title>
<path fill="none" stroke="black" d="M585.35,-446.71C599,-435.53 614.34,-422.96 628.53,-411.34"/>
<polygon fill="black" stroke="black" points="630.76,-414.04 636.28,-404.99 626.32,-408.62 630.76,-414.04"/>
</g>
</g>
</svg>
