<?xml version="1.0" encoding="UTF-8" standalone="no"?>
<!DOCTYPE svg PUBLIC "-//W3C//DTD SVG 1.1//EN"
 "http://www.w3.org/Graphics/SVG/1.1/DTD/svg11.dtd">
<!-- Generated by graphviz version 2.47.0 (20210316.0004)
 -->
<!-- Title: G Pages: 1 -->
<svg width="1542pt" height="1192pt"
 viewBox="0.00 0.00 1541.65 1192.49" xmlns="http://www.w3.org/2000/svg" xmlns:xlink="http://www.w3.org/1999/xlink">
<g id="graph0" class="graph" transform="scale(1 1) rotate(0) translate(4 1188.49)">
<title>G</title>
<polygon fill="white" stroke="transparent" points="-4,4 -4,-1188.49 1537.65,-1188.49 1537.65,4 -4,4"/>
<!-- BB0 -->
<g id="node1" class="node">
<title>BB0</title>
<ellipse fill="none" stroke="black" cx="990.3" cy="-1147.01" rx="105.22" ry="37.45"/>
<text text-anchor="middle" x="990.3" y="-1158.31" font-family="Times New Roman,serif" font-size="14.00">[0..27)</text>
<text text-anchor="middle" x="990.3" y="-1143.31" font-family="Times New Roman,serif" font-size="14.00">Normalized Count: 1.00</text>
<text text-anchor="middle" x="990.3" y="-1128.31" font-family="Times New Roman,serif" font-size="14.00">Samples weight: 0.00</text>
</g>
<!-- BB2 -->
<g id="node3" class="node">
<title>BB2</title>
<ellipse fill="none" stroke="black" cx="990.3" cy="-1036.06" rx="110.12" ry="37.45"/>
<text text-anchor="middle" x="990.3" y="-1047.36" font-family="Times New Roman,serif" font-size="14.00">[3f..44)</text>
<text text-anchor="middle" x="990.3" y="-1032.36" font-family="Times New Roman,serif" font-size="14.00">Normalized Count: 11.00</text>
<text text-anchor="middle" x="990.3" y="-1017.36" font-family="Times New Roman,serif" font-size="14.00">Samples weight: 0.00</text>
</g>
<!-- BB0&#45;&gt;BB2 -->
<g id="edge1" class="edge">
<title>BB0&#45;&gt;BB2</title>
<path fill="none" stroke="black" d="M990.3,-1109.43C990.3,-1101.25 990.3,-1092.47 990.3,-1083.95"/>
<polygon fill="black" stroke="black" points="993.8,-1083.73 990.3,-1073.73 986.8,-1083.73 993.8,-1083.73"/>
</g>
<!-- BB1 -->
<g id="node2" class="node">
<title>BB1</title>
<ellipse fill="none" stroke="black" cx="990.3" cy="-925.1" rx="110.12" ry="37.45"/>
<text text-anchor="middle" x="990.3" y="-936.4" font-family="Times New Roman,serif" font-size="14.00">[27..3f)</text>
<text text-anchor="middle" x="990.3" y="-921.4" font-family="Times New Roman,serif" font-size="14.00">Normalized Count: 10.00</text>
<text text-anchor="middle" x="990.3" y="-906.4" font-family="Times New Roman,serif" font-size="14.00">Samples weight: 0.00</text>
</g>
<!-- BB1&#45;&gt;BB2 -->
<g id="edge2" class="edge">
<title>BB1&#45;&gt;BB2</title>
<path fill="none" stroke="black" d="M996.72,-962.78C997.03,-970.95 997.12,-979.74 996.99,-988.26"/>
<polygon fill="black" stroke="black" points="993.49,-988.38 996.72,-998.47 1000.48,-988.57 993.49,-988.38"/>
</g>
<!-- BB2&#45;&gt;BB1 -->
<g id="edge3" class="edge">
<title>BB2&#45;&gt;BB1</title>
<path fill="none" stroke="black" d="M983.88,-998.47C983.57,-990.3 983.48,-981.52 983.61,-972.99"/>
<polygon fill="black" stroke="black" points="987.11,-972.86 983.88,-962.78 980.12,-972.68 987.11,-972.86"/>
</g>
<!-- BB3 -->
<g id="node4" class="node">
<title>BB3</title>
<ellipse fill="none" stroke="black" cx="1253.3" cy="-925.1" rx="134.2" ry="37.45"/>
<text text-anchor="middle" x="1253.3" y="-936.4" font-family="Times New Roman,serif" font-size="14.00">[44..50)</text>
<text text-anchor="middle" x="1253.3" y="-921.4" font-family="Times New Roman,serif" font-size="14.00">Normalized Count: 3628800.00</text>
<text text-anchor="middle" x="1253.3" y="-906.4" font-family="Times New Roman,serif" font-size="14.00">Samples weight: 0.02</text>
</g>
<!-- BB2&#45;&gt;BB3 -->
<g id="edge4" class="edge">
<title>BB2&#45;&gt;BB3</title>
<path fill="none" stroke="black" d="M1059.06,-1006.57C1093.15,-992.45 1134.58,-975.28 1170.42,-960.44"/>
<polygon fill="black" stroke="black" points="1171.98,-963.58 1179.88,-956.52 1169.3,-957.11 1171.98,-963.58"/>
</g>
<!-- BB4 -->
<g id="node5" class="node">
<title>BB4</title>
<ellipse fill="none" stroke="black" cx="639.3" cy="-814.15" rx="134.2" ry="37.45"/>
<text text-anchor="middle" x="639.3" y="-825.45" font-family="Times New Roman,serif" font-size="14.00">[50..55)</text>
<text text-anchor="middle" x="639.3" y="-810.45" font-family="Times New Roman,serif" font-size="14.00">Normalized Count: 3265920.00</text>
<text text-anchor="middle" x="639.3" y="-795.45" font-family="Times New Roman,serif" font-size="14.00">Samples weight: 0.02</text>
</g>
<!-- BB3&#45;&gt;BB4 -->
<g id="edge6" class="edge">
<title>BB3&#45;&gt;BB4</title>
<path fill="none" stroke="black" d="M1158.78,-898.4C1142.36,-894.44 1125.39,-890.67 1109.3,-887.63 983.41,-863.85 949.77,-872.1 823.3,-851.63 801.18,-848.05 777.65,-843.75 755.08,-839.39"/>
<polygon fill="black" stroke="black" points="755.61,-835.93 745.13,-837.45 754.27,-842.8 755.61,-835.93"/>
</g>
<!-- BB15 -->
<g id="node16" class="node">
<title>BB15</title>
<ellipse fill="none" stroke="black" cx="966.3" cy="-814.15" rx="134.2" ry="37.45"/>
<text text-anchor="middle" x="966.3" y="-825.45" font-family="Times New Roman,serif" font-size="14.00">[d0..d4)</text>
<text text-anchor="middle" x="966.3" y="-810.45" font-family="Times New Roman,serif" font-size="14.00">Normalized Count: 3628800.00</text>
<text text-anchor="middle" x="966.3" y="-795.45" font-family="Times New Roman,serif" font-size="14.00">Samples weight: 0.02</text>
</g>
<!-- BB3&#45;&gt;BB15 -->
<g id="edge5" class="edge">
<title>BB3&#45;&gt;BB15</title>
<path fill="none" stroke="black" d="M1175.26,-894.48C1137.76,-880.24 1092.69,-863.13 1054.02,-848.45"/>
<polygon fill="black" stroke="black" points="1054.92,-845.05 1044.33,-844.77 1052.44,-851.59 1054.92,-845.05"/>
</g>
<!-- BB6 -->
<g id="node7" class="node">
<title>BB6</title>
<ellipse fill="none" stroke="black" cx="599.3" cy="-703.2" rx="139.1" ry="37.45"/>
<text text-anchor="middle" x="599.3" y="-714.5" font-family="Times New Roman,serif" font-size="14.00">[63..68)</text>
<text text-anchor="middle" x="599.3" y="-699.5" font-family="Times New Roman,serif" font-size="14.00">Normalized Count: 32659200.00</text>
<text text-anchor="middle" x="599.3" y="-684.5" font-family="Times New Roman,serif" font-size="14.00">Samples weight: 0.16</text>
</g>
<!-- BB4&#45;&gt;BB6 -->
<g id="edge7" class="edge">
<title>BB4&#45;&gt;BB6</title>
<path fill="none" stroke="black" d="M625.87,-776.57C622.8,-768.21 619.5,-759.23 616.31,-750.52"/>
<polygon fill="black" stroke="black" points="619.5,-749.05 612.76,-740.87 612.92,-751.46 619.5,-749.05"/>
</g>
<!-- BB5 -->
<g id="node6" class="node">
<title>BB5</title>
<ellipse fill="none" stroke="black" cx="599.3" cy="-592.24" rx="139.1" ry="37.45"/>
<text text-anchor="middle" x="599.3" y="-603.54" font-family="Times New Roman,serif" font-size="14.00">[55..63)</text>
<text text-anchor="middle" x="599.3" y="-588.54" font-family="Times New Roman,serif" font-size="14.00">Normalized Count: 29393280.00</text>
<text text-anchor="middle" x="599.3" y="-573.54" font-family="Times New Roman,serif" font-size="14.00">Samples weight: 0.15</text>
</g>
<!-- BB5&#45;&gt;BB6 -->
<g id="edge8" class="edge">
<title>BB5&#45;&gt;BB6</title>
<path fill="none" stroke="black" d="M605.72,-629.92C606.03,-638.09 606.12,-646.88 605.99,-655.4"/>
<polygon fill="black" stroke="black" points="602.49,-655.52 605.72,-665.61 609.48,-655.71 602.49,-655.52"/>
</g>
<!-- BB6&#45;&gt;BB5 -->
<g id="edge9" class="edge">
<title>BB6&#45;&gt;BB5</title>
<path fill="none" stroke="black" d="M592.88,-665.61C592.57,-657.44 592.48,-648.66 592.61,-640.13"/>
<polygon fill="black" stroke="black" points="596.11,-640 592.88,-629.92 589.12,-639.82 596.11,-640"/>
</g>
<!-- BB7 -->
<g id="node8" class="node">
<title>BB7</title>
<ellipse fill="none" stroke="black" cx="307.3" cy="-592.24" rx="134.2" ry="37.45"/>
<text text-anchor="middle" x="307.3" y="-603.54" font-family="Times New Roman,serif" font-size="14.00">[68..6b)</text>
<text text-anchor="middle" x="307.3" y="-588.54" font-family="Times New Roman,serif" font-size="14.00">Normalized Count: 3265920.00</text>
<text text-anchor="middle" x="307.3" y="-573.54" font-family="Times New Roman,serif" font-size="14.00">Samples weight: 0.02</text>
</g>
<!-- BB6&#45;&gt;BB7 -->
<g id="edge10" class="edge">
<title>BB6&#45;&gt;BB7</title>
<path fill="none" stroke="black" d="M519.51,-672.42C481.29,-658.17 435.4,-641.04 396.08,-626.37"/>
<polygon fill="black" stroke="black" points="396.83,-622.91 386.24,-622.7 394.38,-629.47 396.83,-622.91"/>
</g>
<!-- BB8 -->
<g id="node9" class="node">
<title>BB8</title>
<ellipse fill="none" stroke="black" cx="352.3" cy="-481.29" rx="139.1" ry="37.45"/>
<text text-anchor="middle" x="352.3" y="-492.59" font-family="Times New Roman,serif" font-size="14.00">[6b..75)</text>
<text text-anchor="middle" x="352.3" y="-477.59" font-family="Times New Roman,serif" font-size="14.00">Normalized Count: 22169434.00</text>
<text text-anchor="middle" x="352.3" y="-462.59" font-family="Times New Roman,serif" font-size="14.00">Samples weight: 0.11</text>
</g>
<!-- BB7&#45;&gt;BB8 -->
<g id="edge11" class="edge">
<title>BB7&#45;&gt;BB8</title>
<path fill="none" stroke="black" d="M322.28,-554.96C325.81,-546.42 329.62,-537.2 333.3,-528.28"/>
<polygon fill="black" stroke="black" points="336.65,-529.36 337.23,-518.78 330.18,-526.69 336.65,-529.36"/>
</g>
<!-- BB9 -->
<g id="node10" class="node">
<title>BB9</title>
<ellipse fill="none" stroke="black" cx="642.3" cy="-370.34" rx="134.2" ry="37.45"/>
<text text-anchor="middle" x="642.3" y="-381.64" font-family="Times New Roman,serif" font-size="14.00">[75..84)</text>
<text text-anchor="middle" x="642.3" y="-366.64" font-family="Times New Roman,serif" font-size="14.00">Normalized Count: 3265920.00</text>
<text text-anchor="middle" x="642.3" y="-351.64" font-family="Times New Roman,serif" font-size="14.00">Samples weight: 0.02</text>
</g>
<!-- BB8&#45;&gt;BB9 -->
<g id="edge13" class="edge">
<title>BB8&#45;&gt;BB9</title>
<path fill="none" stroke="black" d="M431.93,-450.37C469.8,-436.15 515.2,-419.09 554.11,-404.47"/>
<polygon fill="black" stroke="black" points="555.72,-407.6 563.85,-400.81 553.26,-401.05 555.72,-407.6"/>
</g>
<!-- BB11 -->
<g id="node12" class="node">
<title>BB11</title>
<ellipse fill="none" stroke="black" cx="269.3" cy="-370.34" rx="139.1" ry="37.45"/>
<text text-anchor="middle" x="269.3" y="-381.64" font-family="Times New Roman,serif" font-size="14.00">[8a..95)</text>
<text text-anchor="middle" x="269.3" y="-366.64" font-family="Times New Roman,serif" font-size="14.00">Normalized Count: 18903514.00</text>
<text text-anchor="middle" x="269.3" y="-351.64" font-family="Times New Roman,serif" font-size="14.00">Samples weight: 0.09</text>
</g>
<!-- BB8&#45;&gt;BB11 -->
<g id="edge12" class="edge">
<title>BB8&#45;&gt;BB11</title>
<path fill="none" stroke="black" d="M324.89,-444.31C317.81,-435.02 310.11,-424.9 302.75,-415.25"/>
<polygon fill="black" stroke="black" points="305.52,-413.11 296.68,-407.28 299.95,-417.35 305.52,-413.11"/>
</g>
<!-- BB10 -->
<g id="node11" class="node">
<title>BB10</title>
<ellipse fill="none" stroke="black" cx="733.3" cy="-259.38" rx="110.12" ry="37.45"/>
<text text-anchor="middle" x="733.3" y="-270.68" font-family="Times New Roman,serif" font-size="14.00">[84..8a)</text>
<text text-anchor="middle" x="733.3" y="-255.68" font-family="Times New Roman,serif" font-size="14.00">Normalized Count: 28.00</text>
<text text-anchor="middle" x="733.3" y="-240.68" font-family="Times New Roman,serif" font-size="14.00">Samples weight: 0.00</text>
</g>
<!-- BB9&#45;&gt;BB10 -->
<g id="edge15" class="edge">
<title>BB9&#45;&gt;BB10</title>
<path fill="none" stroke="black" d="M672.1,-333.66C680.11,-324.06 688.87,-313.58 697.19,-303.62"/>
<polygon fill="black" stroke="black" points="700.02,-305.69 703.75,-295.77 694.65,-301.2 700.02,-305.69"/>
</g>
<!-- BB9&#45;&gt;BB15 -->
<g id="edge14" class="edge">
<title>BB9&#45;&gt;BB15</title>
<path fill="none" stroke="black" d="M667.15,-407.33C690.88,-443.21 726.07,-500.62 747.3,-554.77 778.25,-633.72 735.42,-676.01 790.3,-740.67 807.27,-760.67 830.63,-775.23 854.79,-785.81"/>
<polygon fill="black" stroke="black" points="853.5,-789.06 864.08,-789.67 856.19,-782.6 853.5,-789.06"/>
</g>
<!-- BB10&#45;&gt;BB15 -->
<g id="edge16" class="edge">
<title>BB10&#45;&gt;BB15</title>
<path fill="none" stroke="black" d="M763.82,-295.56C772.07,-306.8 780.13,-319.75 785.3,-332.86 809.51,-394.33 804.3,-414.22 804.3,-480.29 804.3,-593.24 804.3,-593.24 804.3,-593.24 804.3,-659.31 785.19,-686.71 823.3,-740.67 835.17,-757.48 852.1,-770.62 870.19,-780.81"/>
<polygon fill="black" stroke="black" points="868.67,-783.97 879.14,-785.58 871.96,-777.79 868.67,-783.97"/>
</g>
<!-- BB12 -->
<g id="node13" class="node">
<title>BB12</title>
<ellipse fill="none" stroke="black" cx="139.3" cy="-259.38" rx="139.1" ry="37.45"/>
<text text-anchor="middle" x="139.3" y="-270.68" font-family="Times New Roman,serif" font-size="14.00">[95..9e)</text>
<text text-anchor="middle" x="139.3" y="-255.68" font-family="Times New Roman,serif" font-size="14.00">Normalized Count: 14016041.00</text>
<text text-anchor="middle" x="139.3" y="-240.68" font-family="Times New Roman,serif" font-size="14.00">Samples weight: 0.07</text>
</g>
<!-- BB11&#45;&gt;BB12 -->
<g id="edge18" class="edge">
<title>BB11&#45;&gt;BB12</title>
<path fill="none" stroke="black" d="M227.45,-334.26C215.16,-323.96 201.59,-312.59 188.87,-301.93"/>
<polygon fill="black" stroke="black" points="190.98,-299.13 181.07,-295.39 186.49,-304.5 190.98,-299.13"/>
</g>
<!-- BB14 -->
<g id="node15" class="node">
<title>BB14</title>
<ellipse fill="none" stroke="black" cx="436.3" cy="-259.38" rx="139.1" ry="37.45"/>
<text text-anchor="middle" x="436.3" y="-270.68" font-family="Times New Roman,serif" font-size="14.00">[c4..d0)</text>
<text text-anchor="middle" x="436.3" y="-255.68" font-family="Times New Roman,serif" font-size="14.00">Normalized Count: 18903514.00</text>
<text text-anchor="middle" x="436.3" y="-240.68" font-family="Times New Roman,serif" font-size="14.00">Samples weight: 0.09</text>
</g>
<!-- BB11&#45;&gt;BB14 -->
<g id="edge17" class="edge">
<title>BB11&#45;&gt;BB14</title>
<path fill="none" stroke="black" d="M321.22,-335.46C338.5,-324.19 357.9,-311.53 375.77,-299.87"/>
<polygon fill="black" stroke="black" points="377.94,-302.63 384.41,-294.24 374.12,-296.77 377.94,-302.63"/>
</g>
<!-- BB13 -->
<g id="node14" class="node">
<title>BB13</title>
<ellipse fill="none" stroke="black" cx="288.3" cy="-148.43" rx="139.1" ry="37.45"/>
<text text-anchor="middle" x="288.3" y="-159.73" font-family="Times New Roman,serif" font-size="14.00">[9e..c4)</text>
<text text-anchor="middle" x="288.3" y="-144.73" font-family="Times New Roman,serif" font-size="14.00">Normalized Count: 29922911.00</text>
<text text-anchor="middle" x="288.3" y="-129.73" font-family="Times New Roman,serif" font-size="14.00">Samples weight: 0.15</text>
</g>
<!-- BB12&#45;&gt;BB13 -->
<g id="edge19" class="edge">
<title>BB12&#45;&gt;BB13</title>
<path fill="none" stroke="black" d="M186.44,-223.91C201.19,-213.13 217.6,-201.13 232.86,-189.97"/>
<polygon fill="black" stroke="black" points="235.2,-192.59 241.21,-183.87 231.07,-186.94 235.2,-192.59"/>
</g>
<!-- BB13&#45;&gt;BB13 -->
<g id="edge20" class="edge">
<title>BB13&#45;&gt;BB13</title>
<path fill="none" stroke="black" d="M406.97,-168.07C429.6,-165.72 445.6,-159.17 445.6,-148.43 445.6,-139.37 434.21,-133.29 417.06,-130.2"/>
<polygon fill="black" stroke="black" points="417.36,-126.71 406.97,-128.79 416.39,-133.64 417.36,-126.71"/>
</g>
<!-- BB13&#45;&gt;BB14 -->
<g id="edge21" class="edge">
<title>BB13&#45;&gt;BB14</title>
<path fill="none" stroke="black" d="M335.08,-183.87C349.72,-194.65 366.02,-206.64 381.18,-217.81"/>
<polygon fill="black" stroke="black" points="379.34,-220.8 389.47,-223.91 383.49,-215.16 379.34,-220.8"/>
</g>
<!-- BB14&#45;&gt;BB8 -->
<g id="edge22" class="edge">
<title>BB14&#45;&gt;BB8</title>
<path fill="none" stroke="black" d="M437.52,-296.87C437.2,-327.76 433.48,-372.5 417.3,-407.81 412.51,-418.27 405.67,-428.29 398.21,-437.37"/>
<polygon fill="black" stroke="black" points="395.43,-435.24 391.53,-445.09 400.72,-439.81 395.43,-435.24"/>
</g>
<!-- BB16 -->
<g id="node17" class="node">
<title>BB16</title>
<ellipse fill="none" stroke="black" cx="1253.3" cy="-703.2" rx="134.2" ry="37.45"/>
<text text-anchor="middle" x="1253.3" y="-714.5" font-family="Times New Roman,serif" font-size="14.00">[d4..eb)</text>
<text text-anchor="middle" x="1253.3" y="-699.5" font-family="Times New Roman,serif" font-size="14.00">Normalized Count: 1814400.00</text>
<text text-anchor="middle" x="1253.3" y="-684.5" font-family="Times New Roman,serif" font-size="14.00">Samples weight: 0.01</text>
</g>
<!-- BB15&#45;&gt;BB16 -->
<g id="edge24" class="edge">
<title>BB15&#45;&gt;BB16</title>
<path fill="none" stroke="black" d="M1044.34,-783.52C1081.84,-769.29 1126.91,-752.18 1165.58,-737.5"/>
<polygon fill="black" stroke="black" points="1167.16,-740.64 1175.27,-733.82 1164.68,-734.1 1167.16,-740.64"/>
</g>
<!-- BB17 -->
<g id="node18" class="node">
<title>BB17</title>
<ellipse fill="none" stroke="black" cx="966.3" cy="-703.2" rx="134.2" ry="37.45"/>
<text text-anchor="middle" x="966.3" y="-714.5" font-family="Times New Roman,serif" font-size="14.00">[eb..102)</text>
<text text-anchor="middle" x="966.3" y="-699.5" font-family="Times New Roman,serif" font-size="14.00">Normalized Count: 1814400.00</text>
<text text-anchor="middle" x="966.3" y="-684.5" font-family="Times New Roman,serif" font-size="14.00">Samples weight: 0.01</text>
</g>
<!-- BB15&#45;&gt;BB17 -->
<g id="edge23" class="edge">
<title>BB15&#45;&gt;BB17</title>
<path fill="none" stroke="black" d="M966.3,-776.57C966.3,-768.39 966.3,-759.61 966.3,-751.09"/>
<polygon fill="black" stroke="black" points="969.8,-750.87 966.3,-740.87 962.8,-750.87 969.8,-750.87"/>
</g>
<!-- BB16&#45;&gt;BB3 -->
<g id="edge25" class="edge">
<title>BB16&#45;&gt;BB3</title>
<path fill="none" stroke="black" d="M1253.3,-740.76C1253.3,-778.12 1253.3,-836.29 1253.3,-877.07"/>
<polygon fill="black" stroke="black" points="1249.8,-877.3 1253.3,-887.3 1256.8,-877.3 1249.8,-877.3"/>
</g>
<!-- BB26 -->
<g id="node27" class="node">
<title>BB26</title>
<ellipse fill="none" stroke="black" cx="1014.3" cy="-592.24" rx="134.2" ry="37.45"/>
<text text-anchor="middle" x="1014.3" y="-603.54" font-family="Times New Roman,serif" font-size="14.00">[164..169)</text>
<text text-anchor="middle" x="1014.3" y="-588.54" font-family="Times New Roman,serif" font-size="14.00">Normalized Count: 2606500.00</text>
<text text-anchor="middle" x="1014.3" y="-573.54" font-family="Times New Roman,serif" font-size="14.00">Samples weight: 0.01</text>
</g>
<!-- BB17&#45;&gt;BB26 -->
<g id="edge26" class="edge">
<title>BB17&#45;&gt;BB26</title>
<path fill="none" stroke="black" d="M982.28,-665.92C986.09,-657.28 990.2,-647.95 994.16,-638.95"/>
<polygon fill="black" stroke="black" points="997.39,-640.3 998.22,-629.74 990.99,-637.48 997.39,-640.3"/>
</g>
<!-- BB18 -->
<g id="node19" class="node">
<title>BB18</title>
<ellipse fill="none" stroke="black" cx="1062.3" cy="-481.29" rx="134.2" ry="37.45"/>
<text text-anchor="middle" x="1062.3" y="-492.59" font-family="Times New Roman,serif" font-size="14.00">[102..10c)</text>
<text text-anchor="middle" x="1062.3" y="-477.59" font-family="Times New Roman,serif" font-size="14.00">Normalized Count: 2606500.00</text>
<text text-anchor="middle" x="1062.3" y="-462.59" font-family="Times New Roman,serif" font-size="14.00">Samples weight: 0.01</text>
</g>
<!-- BB19 -->
<g id="node20" class="node">
<title>BB19</title>
<ellipse fill="none" stroke="black" cx="1399.3" cy="-370.34" rx="134.2" ry="37.45"/>
<text text-anchor="middle" x="1399.3" y="-381.64" font-family="Times New Roman,serif" font-size="14.00">[10c..119)</text>
<text text-anchor="middle" x="1399.3" y="-366.64" font-family="Times New Roman,serif" font-size="14.00">Normalized Count: 1814399.00</text>
<text text-anchor="middle" x="1399.3" y="-351.64" font-family="Times New Roman,serif" font-size="14.00">Samples weight: 0.01</text>
</g>
<!-- BB18&#45;&gt;BB19 -->
<g id="edge28" class="edge">
<title>BB18&#45;&gt;BB19</title>
<path fill="none" stroke="black" d="M1148.65,-452.37C1196,-437.06 1254.81,-418.05 1303.57,-402.29"/>
<polygon fill="black" stroke="black" points="1304.74,-405.59 1313.18,-399.18 1302.58,-398.93 1304.74,-405.59"/>
</g>
<!-- BB20 -->
<g id="node21" class="node">
<title>BB20</title>
<ellipse fill="none" stroke="black" cx="1062.3" cy="-370.34" rx="129.3" ry="37.45"/>
<text text-anchor="middle" x="1062.3" y="-381.64" font-family="Times New Roman,serif" font-size="14.00">[119..11f)</text>
<text text-anchor="middle" x="1062.3" y="-366.64" font-family="Times New Roman,serif" font-size="14.00">Normalized Count: 792101.00</text>
<text text-anchor="middle" x="1062.3" y="-351.64" font-family="Times New Roman,serif" font-size="14.00">Samples weight: 0.00</text>
</g>
<!-- BB18&#45;&gt;BB20 -->
<g id="edge27" class="edge">
<title>BB18&#45;&gt;BB20</title>
<path fill="none" stroke="black" d="M1062.3,-443.71C1062.3,-435.53 1062.3,-426.75 1062.3,-418.23"/>
<polygon fill="black" stroke="black" points="1065.8,-418.01 1062.3,-408.01 1058.8,-418.01 1065.8,-418.01"/>
</g>
<!-- BB19&#45;&gt;BB3 -->
<g id="edge29" class="edge">
<title>BB19&#45;&gt;BB3</title>
<path fill="none" stroke="black" d="M1419.66,-407.66C1425.21,-418.94 1430.68,-431.63 1434.3,-443.81 1453.13,-507.14 1453.3,-525.18 1453.3,-591.24 1453.3,-704.2 1453.3,-704.2 1453.3,-704.2 1453.3,-784.21 1379.94,-847.96 1322.08,-885.81"/>
<polygon fill="black" stroke="black" points="1319.84,-883.09 1313.31,-891.43 1323.62,-888.98 1319.84,-883.09"/>
</g>
<!-- BB21 -->
<g id="node22" class="node">
<title>BB21</title>
<ellipse fill="none" stroke="black" cx="1033.3" cy="-259.38" rx="105.22" ry="37.45"/>
<text text-anchor="middle" x="1033.3" y="-270.68" font-family="Times New Roman,serif" font-size="14.00">[11f..130)</text>
<text text-anchor="middle" x="1033.3" y="-255.68" font-family="Times New Roman,serif" font-size="14.00">Normalized Count: 1.00</text>
<text text-anchor="middle" x="1033.3" y="-240.68" font-family="Times New Roman,serif" font-size="14.00">Samples weight: 0.00</text>
</g>
<!-- BB20&#45;&gt;BB21 -->
<g id="edge31" class="edge">
<title>BB20&#45;&gt;BB21</title>
<path fill="none" stroke="black" d="M1052.56,-332.75C1050.36,-324.49 1048,-315.61 1045.71,-306.99"/>
<polygon fill="black" stroke="black" points="1049.02,-305.82 1043.06,-297.06 1042.25,-307.62 1049.02,-305.82"/>
</g>
<!-- BB22 -->
<g id="node23" class="node">
<title>BB22</title>
<ellipse fill="none" stroke="black" cx="1286.3" cy="-259.38" rx="129.3" ry="37.45"/>
<text text-anchor="middle" x="1286.3" y="-270.68" font-family="Times New Roman,serif" font-size="14.00">[130..140)</text>
<text text-anchor="middle" x="1286.3" y="-255.68" font-family="Times New Roman,serif" font-size="14.00">Normalized Count: 792100.00</text>
<text text-anchor="middle" x="1286.3" y="-240.68" font-family="Times New Roman,serif" font-size="14.00">Samples weight: 0.00</text>
</g>
<!-- BB20&#45;&gt;BB22 -->
<g id="edge30" class="edge">
<title>BB20&#45;&gt;BB22</title>
<path fill="none" stroke="black" d="M1127.09,-337.82C1153.67,-324.89 1184.6,-309.85 1212.09,-296.48"/>
<polygon fill="black" stroke="black" points="1213.81,-299.54 1221.27,-292.01 1210.74,-293.24 1213.81,-299.54"/>
</g>
<!-- BB24 -->
<g id="node25" class="node">
<title>BB24</title>
<ellipse fill="none" stroke="black" cx="1260.3" cy="-148.43" rx="134.2" ry="37.45"/>
<text text-anchor="middle" x="1260.3" y="-159.73" font-family="Times New Roman,serif" font-size="14.00">[150..156)</text>
<text text-anchor="middle" x="1260.3" y="-144.73" font-family="Times New Roman,serif" font-size="14.00">Normalized Count: 3398590.00</text>
<text text-anchor="middle" x="1260.3" y="-129.73" font-family="Times New Roman,serif" font-size="14.00">Samples weight: 0.02</text>
</g>
<!-- BB22&#45;&gt;BB24 -->
<g id="edge32" class="edge">
<title>BB22&#45;&gt;BB24</title>
<path fill="none" stroke="black" d="M1277.57,-221.8C1275.6,-213.54 1273.48,-204.65 1271.42,-196.04"/>
<polygon fill="black" stroke="black" points="1274.78,-195.02 1269.05,-186.1 1267.97,-196.64 1274.78,-195.02"/>
</g>
<!-- BB23 -->
<g id="node24" class="node">
<title>BB23</title>
<ellipse fill="none" stroke="black" cx="1260.3" cy="-37.48" rx="134.2" ry="37.45"/>
<text text-anchor="middle" x="1260.3" y="-48.78" font-family="Times New Roman,serif" font-size="14.00">[140..150)</text>
<text text-anchor="middle" x="1260.3" y="-33.78" font-family="Times New Roman,serif" font-size="14.00">Normalized Count: 2606490.00</text>
<text text-anchor="middle" x="1260.3" y="-18.78" font-family="Times New Roman,serif" font-size="14.00">Samples weight: 0.01</text>
</g>
<!-- BB23&#45;&gt;BB24 -->
<g id="edge33" class="edge">
<title>BB23&#45;&gt;BB24</title>
<path fill="none" stroke="black" d="M1266.72,-75.15C1267.03,-83.33 1267.12,-92.11 1266.99,-100.63"/>
<polygon fill="black" stroke="black" points="1263.49,-100.76 1266.72,-110.85 1270.48,-100.94 1263.49,-100.76"/>
</g>
<!-- BB24&#45;&gt;BB23 -->
<g id="edge34" class="edge">
<title>BB24&#45;&gt;BB23</title>
<path fill="none" stroke="black" d="M1253.88,-110.85C1253.57,-102.67 1253.48,-93.89 1253.61,-85.37"/>
<polygon fill="black" stroke="black" points="1257.11,-85.24 1253.88,-75.15 1250.12,-85.05 1257.11,-85.24"/>
</g>
<!-- BB25 -->
<g id="node26" class="node">
<title>BB25</title>
<ellipse fill="none" stroke="black" cx="952.3" cy="-37.48" rx="129.3" ry="37.45"/>
<text text-anchor="middle" x="952.3" y="-48.78" font-family="Times New Roman,serif" font-size="14.00">[156..164)</text>
<text text-anchor="middle" x="952.3" y="-33.78" font-family="Times New Roman,serif" font-size="14.00">Normalized Count: 792100.00</text>
<text text-anchor="middle" x="952.3" y="-18.78" font-family="Times New Roman,serif" font-size="14.00">Samples weight: 0.00</text>
</g>
<!-- BB24&#45;&gt;BB25 -->
<g id="edge35" class="edge">
<title>BB24&#45;&gt;BB25</title>
<path fill="none" stroke="black" d="M1178.57,-118.52C1136.65,-103.69 1085.49,-85.59 1042.43,-70.36"/>
<polygon fill="black" stroke="black" points="1043.4,-66.99 1032.81,-66.96 1041.07,-73.59 1043.4,-66.99"/>
</g>
<!-- BB25&#45;&gt;BB26 -->
<g id="edge36" class="edge">
<title>BB25&#45;&gt;BB26</title>
<path fill="none" stroke="black" d="M938.23,-74.82C922.83,-117.92 900.3,-192.28 900.3,-258.38 900.3,-371.34 900.3,-371.34 900.3,-371.34 900.3,-437.4 886.27,-461.55 919.3,-518.77 926.55,-531.32 936.92,-542.42 948.16,-551.92"/>
<polygon fill="black" stroke="black" points="946.07,-554.73 956.06,-558.25 950.44,-549.27 946.07,-554.73"/>
</g>
<!-- BB26&#45;&gt;BB18 -->
<g id="edge37" class="edge">
<title>BB26&#45;&gt;BB18</title>
<path fill="none" stroke="black" d="M1030.28,-554.96C1034.09,-546.33 1038.2,-537 1042.16,-528"/>
<polygon fill="black" stroke="black" points="1045.39,-529.35 1046.22,-518.78 1038.99,-526.52 1045.39,-529.35"/>
</g>
<!-- BB27 -->
<g id="node28" class="node">
<title>BB27</title>
<ellipse fill="none" stroke="black" cx="1320.3" cy="-481.29" rx="105.22" ry="37.45"/>
<text text-anchor="middle" x="1320.3" y="-492.59" font-family="Times New Roman,serif" font-size="14.00">[169..16e)</text>
<text text-anchor="middle" x="1320.3" y="-477.59" font-family="Times New Roman,serif" font-size="14.00">Normalized Count: 0.00</text>
<text text-anchor="middle" x="1320.3" y="-462.59" font-family="Times New Roman,serif" font-size="14.00">Samples weight: 0.00</text>
</g>
<!-- BB26&#45;&gt;BB27 -->
<g id="edge38" class="edge">
<title>BB26&#45;&gt;BB27</title>
<path fill="none" stroke="black" d="M1095.5,-562.33C1139.38,-546.71 1193.44,-527.46 1237.56,-511.75"/>
<polygon fill="black" stroke="black" points="1238.85,-515.01 1247.1,-508.35 1236.5,-508.41 1238.85,-515.01"/>
</g>
<!-- BB27&#45;&gt;BB3 -->
<g id="edge39" class="edge">
<title>BB27&#45;&gt;BB3</title>
<path fill="none" stroke="black" d="M1344.97,-518.14C1376.31,-568.32 1423.28,-662.18 1396.3,-740.67 1377.24,-796.11 1333.81,-847.66 1299.78,-881.9"/>
<polygon fill="black" stroke="black" points="1297.32,-879.42 1292.68,-888.94 1302.24,-884.39 1297.32,-879.42"/>
</g>
</g>
</svg>
