<?xml version="1.0" encoding="UTF-8" standalone="no"?>
<!DOCTYPE svg PUBLIC "-//W3C//DTD SVG 1.1//EN"
 "http://www.w3.org/Graphics/SVG/1.1/DTD/svg11.dtd">
<!-- Generated by graphviz version 2.47.0 (20210316.0004)
 -->
<!-- Title: G Pages: 1 -->
<svg width="742pt" height="860pt"
 viewBox="0.00 0.00 741.55 859.63" xmlns="http://www.w3.org/2000/svg" xmlns:xlink="http://www.w3.org/1999/xlink">
<g id="graph0" class="graph" transform="scale(1 1) rotate(0) translate(4 855.63)">
<title>G</title>
<polygon fill="white" stroke="transparent" points="-4,4 -4,-855.63 737.55,-855.63 737.55,4 -4,4"/>
<!-- BB0 -->
<g id="node1" class="node">
<title>BB0</title>
<ellipse fill="none" stroke="black" cx="491.77" cy="-814.15" rx="106.55" ry="37.45"/>
<text text-anchor="middle" x="491.77" y="-825.45" font-family="Times New Roman,serif" font-size="14.00">[0..1d)</text>
<text text-anchor="middle" x="491.77" y="-810.45" font-family="Times New Roman,serif" font-size="14.00">Normalized Count: NaN</text>
<text text-anchor="middle" x="491.77" y="-795.45" font-family="Times New Roman,serif" font-size="14.00">Samples weight: 0.00</text>
</g>
<!-- BB10 -->
<g id="node11" class="node">
<title>BB10</title>
<ellipse fill="none" stroke="black" cx="491.77" cy="-703.2" rx="106.55" ry="37.45"/>
<text text-anchor="middle" x="491.77" y="-714.5" font-family="Times New Roman,serif" font-size="14.00">[88..97)</text>
<text text-anchor="middle" x="491.77" y="-699.5" font-family="Times New Roman,serif" font-size="14.00">Normalized Count: NaN</text>
<text text-anchor="middle" x="491.77" y="-684.5" font-family="Times New Roman,serif" font-size="14.00">Samples weight: 0.00</text>
</g>
<!-- BB0&#45;&gt;BB10 -->
<g id="edge1" class="edge">
<title>BB0&#45;&gt;BB10</title>
<path fill="none" stroke="black" d="M491.77,-776.57C491.77,-768.39 491.77,-759.61 491.77,-751.09"/>
<polygon fill="black" stroke="black" points="495.27,-750.87 491.77,-740.87 488.27,-750.87 495.27,-750.87"/>
</g>
<!-- BB1 -->
<g id="node2" class="node">
<title>BB1</title>
<ellipse fill="none" stroke="black" cx="347.77" cy="-592.24" rx="106.55" ry="37.45"/>
<text text-anchor="middle" x="347.77" y="-603.54" font-family="Times New Roman,serif" font-size="14.00">[1d..30)</text>
<text text-anchor="middle" x="347.77" y="-588.54" font-family="Times New Roman,serif" font-size="14.00">Normalized Count: NaN</text>
<text text-anchor="middle" x="347.77" y="-573.54" font-family="Times New Roman,serif" font-size="14.00">Samples weight: 0.00</text>
</g>
<!-- BB2 -->
<g id="node3" class="node">
<title>BB2</title>
<ellipse fill="none" stroke="black" cx="106.77" cy="-481.29" rx="106.55" ry="37.45"/>
<text text-anchor="middle" x="106.77" y="-492.59" font-family="Times New Roman,serif" font-size="14.00">[30..46)</text>
<text text-anchor="middle" x="106.77" y="-477.59" font-family="Times New Roman,serif" font-size="14.00">Normalized Count: NaN</text>
<text text-anchor="middle" x="106.77" y="-462.59" font-family="Times New Roman,serif" font-size="14.00">Samples weight: 0.00</text>
</g>
<!-- BB1&#45;&gt;BB2 -->
<g id="edge3" class="edge">
<title>BB1&#45;&gt;BB2</title>
<path fill="none" stroke="black" d="M283.51,-562.19C251.77,-547.84 213.32,-530.46 180.41,-515.58"/>
<polygon fill="black" stroke="black" points="181.83,-512.38 171.28,-511.45 178.95,-518.76 181.83,-512.38"/>
</g>
<!-- BB4 -->
<g id="node5" class="node">
<title>BB4</title>
<ellipse fill="none" stroke="black" cx="347.77" cy="-481.29" rx="115.93" ry="37.45"/>
<text text-anchor="middle" x="347.77" y="-492.59" font-family="Times New Roman,serif" font-size="14.00">[49..4e)</text>
<text text-anchor="middle" x="347.77" y="-477.59" font-family="Times New Roman,serif" font-size="14.00">Normalized Count: Infinity</text>
<text text-anchor="middle" x="347.77" y="-462.59" font-family="Times New Roman,serif" font-size="14.00">Samples weight: 0.03</text>
</g>
<!-- BB1&#45;&gt;BB4 -->
<g id="edge2" class="edge">
<title>BB1&#45;&gt;BB4</title>
<path fill="none" stroke="black" d="M347.77,-554.66C347.77,-546.49 347.77,-537.71 347.77,-529.18"/>
<polygon fill="black" stroke="black" points="351.27,-528.96 347.77,-518.96 344.27,-528.96 351.27,-528.96"/>
</g>
<!-- BB3 -->
<g id="node4" class="node">
<title>BB3</title>
<ellipse fill="none" stroke="black" cx="178.77" cy="-370.34" rx="106.55" ry="37.45"/>
<text text-anchor="middle" x="178.77" y="-381.64" font-family="Times New Roman,serif" font-size="14.00">[46..49)</text>
<text text-anchor="middle" x="178.77" y="-366.64" font-family="Times New Roman,serif" font-size="14.00">Normalized Count: NaN</text>
<text text-anchor="middle" x="178.77" y="-351.64" font-family="Times New Roman,serif" font-size="14.00">Samples weight: 0.00</text>
</g>
<!-- BB2&#45;&gt;BB3 -->
<g id="edge5" class="edge">
<title>BB2&#45;&gt;BB3</title>
<path fill="none" stroke="black" d="M130.35,-444.61C136.5,-435.3 143.21,-425.15 149.61,-415.46"/>
<polygon fill="black" stroke="black" points="152.55,-417.36 155.14,-407.09 146.71,-413.51 152.55,-417.36"/>
</g>
<!-- BB2&#45;&gt;BB4 -->
<g id="edge4" class="edge">
<title>BB2&#45;&gt;BB4</title>
<path fill="none" stroke="black" d="M213.62,-481.29C216.26,-481.29 218.9,-481.29 221.53,-481.29"/>
<polygon fill="black" stroke="black" points="221.7,-484.79 231.7,-481.29 221.7,-477.79 221.7,-484.79"/>
</g>
<!-- BB3&#45;&gt;BB4 -->
<g id="edge6" class="edge">
<title>BB3&#45;&gt;BB4</title>
<path fill="none" stroke="black" d="M228.89,-403.65C247.5,-415.64 268.78,-429.36 288.15,-441.85"/>
<polygon fill="black" stroke="black" points="286.31,-444.83 296.61,-447.3 290.1,-438.94 286.31,-444.83"/>
</g>
<!-- BB9 -->
<g id="node10" class="node">
<title>BB9</title>
<ellipse fill="none" stroke="black" cx="455.77" cy="-370.34" rx="115.93" ry="37.45"/>
<text text-anchor="middle" x="455.77" y="-381.64" font-family="Times New Roman,serif" font-size="14.00">[83..88)</text>
<text text-anchor="middle" x="455.77" y="-366.64" font-family="Times New Roman,serif" font-size="14.00">Normalized Count: Infinity</text>
<text text-anchor="middle" x="455.77" y="-351.64" font-family="Times New Roman,serif" font-size="14.00">Samples weight: 0.05</text>
</g>
<!-- BB4&#45;&gt;BB9 -->
<g id="edge7" class="edge">
<title>BB4&#45;&gt;BB9</title>
<path fill="none" stroke="black" d="M382.54,-445.22C392.56,-435.11 403.6,-423.97 414,-413.48"/>
<polygon fill="black" stroke="black" points="416.52,-415.91 421.07,-406.34 411.55,-410.98 416.52,-415.91"/>
</g>
<!-- BB5 -->
<g id="node6" class="node">
<title>BB5</title>
<ellipse fill="none" stroke="black" cx="383.77" cy="-259.38" rx="115.93" ry="37.45"/>
<text text-anchor="middle" x="383.77" y="-270.68" font-family="Times New Roman,serif" font-size="14.00">[4e..5b)</text>
<text text-anchor="middle" x="383.77" y="-255.68" font-family="Times New Roman,serif" font-size="14.00">Normalized Count: Infinity</text>
<text text-anchor="middle" x="383.77" y="-240.68" font-family="Times New Roman,serif" font-size="14.00">Samples weight: 0.19</text>
</g>
<!-- BB6 -->
<g id="node7" class="node">
<title>BB6</title>
<ellipse fill="none" stroke="black" cx="277.77" cy="-148.43" rx="115.93" ry="37.45"/>
<text text-anchor="middle" x="277.77" y="-159.73" font-family="Times New Roman,serif" font-size="14.00">[5b..7a)</text>
<text text-anchor="middle" x="277.77" y="-144.73" font-family="Times New Roman,serif" font-size="14.00">Normalized Count: Infinity</text>
<text text-anchor="middle" x="277.77" y="-129.73" font-family="Times New Roman,serif" font-size="14.00">Samples weight: 0.62</text>
</g>
<!-- BB5&#45;&gt;BB6 -->
<g id="edge9" class="edge">
<title>BB5&#45;&gt;BB6</title>
<path fill="none" stroke="black" d="M349.65,-223.31C339.91,-213.3 329.19,-202.28 319.07,-191.88"/>
<polygon fill="black" stroke="black" points="321.31,-189.16 311.83,-184.44 316.3,-194.05 321.31,-189.16"/>
</g>
<!-- BB8 -->
<g id="node9" class="node">
<title>BB8</title>
<ellipse fill="none" stroke="black" cx="527.77" cy="-148.43" rx="115.93" ry="37.45"/>
<text text-anchor="middle" x="527.77" y="-159.73" font-family="Times New Roman,serif" font-size="14.00">[7d..83)</text>
<text text-anchor="middle" x="527.77" y="-144.73" font-family="Times New Roman,serif" font-size="14.00">Normalized Count: Infinity</text>
<text text-anchor="middle" x="527.77" y="-129.73" font-family="Times New Roman,serif" font-size="14.00">Samples weight: 0.06</text>
</g>
<!-- BB5&#45;&gt;BB8 -->
<g id="edge8" class="edge">
<title>BB5&#45;&gt;BB8</title>
<path fill="none" stroke="black" d="M428.55,-224.51C443.18,-213.44 459.56,-201.04 474.74,-189.56"/>
<polygon fill="black" stroke="black" points="477.16,-192.11 483.03,-183.29 472.94,-186.53 477.16,-192.11"/>
</g>
<!-- BB7 -->
<g id="node8" class="node">
<title>BB7</title>
<ellipse fill="none" stroke="black" cx="402.77" cy="-37.48" rx="115.93" ry="37.45"/>
<text text-anchor="middle" x="402.77" y="-48.78" font-family="Times New Roman,serif" font-size="14.00">[7a..7d)</text>
<text text-anchor="middle" x="402.77" y="-33.78" font-family="Times New Roman,serif" font-size="14.00">Normalized Count: Infinity</text>
<text text-anchor="middle" x="402.77" y="-18.78" font-family="Times New Roman,serif" font-size="14.00">Samples weight: 0.04</text>
</g>
<!-- BB6&#45;&gt;BB7 -->
<g id="edge11" class="edge">
<title>BB6&#45;&gt;BB7</title>
<path fill="none" stroke="black" d="M317.32,-112.96C329.41,-102.42 342.82,-90.73 355.37,-79.8"/>
<polygon fill="black" stroke="black" points="357.81,-82.31 363.05,-73.1 353.21,-77.03 357.81,-82.31"/>
</g>
<!-- BB6&#45;&gt;BB8 -->
<g id="edge10" class="edge">
<title>BB6&#45;&gt;BB8</title>
<path fill="none" stroke="black" d="M393.98,-148.43C396.48,-148.43 398.98,-148.43 401.48,-148.43"/>
<polygon fill="black" stroke="black" points="401.75,-151.93 411.75,-148.43 401.75,-144.93 401.75,-151.93"/>
</g>
<!-- BB7&#45;&gt;BB8 -->
<g id="edge12" class="edge">
<title>BB7&#45;&gt;BB8</title>
<path fill="none" stroke="black" d="M442.5,-73.1C454.59,-83.64 468.01,-95.34 480.55,-106.27"/>
<polygon fill="black" stroke="black" points="478.38,-109.02 488.22,-112.96 482.98,-103.75 478.38,-109.02"/>
</g>
<!-- BB8&#45;&gt;BB9 -->
<g id="edge13" class="edge">
<title>BB8&#45;&gt;BB9</title>
<path fill="none" stroke="black" d="M528.07,-186.14C527.15,-216.77 523.08,-261.03 508.77,-296.86 504.83,-306.73 499.23,-316.49 493.13,-325.49"/>
<polygon fill="black" stroke="black" points="490.11,-323.69 487.17,-333.87 495.82,-327.75 490.11,-323.69"/>
</g>
<!-- BB9&#45;&gt;BB5 -->
<g id="edge14" class="edge">
<title>BB9&#45;&gt;BB5</title>
<path fill="none" stroke="black" d="M432,-333.36C425.98,-324.25 419.44,-314.35 413.17,-304.87"/>
<polygon fill="black" stroke="black" points="415.96,-302.74 407.52,-296.32 410.12,-306.6 415.96,-302.74"/>
</g>
<!-- BB9&#45;&gt;BB10 -->
<g id="edge15" class="edge">
<title>BB9&#45;&gt;BB10</title>
<path fill="none" stroke="black" d="M465.55,-407.99C468.27,-419.39 470.97,-432.06 472.77,-443.81 484.01,-517.23 488.66,-603.44 490.54,-655.39"/>
<polygon fill="black" stroke="black" points="487.05,-655.75 490.89,-665.62 494.04,-655.51 487.05,-655.75"/>
</g>
<!-- BB10&#45;&gt;BB1 -->
<g id="edge16" class="edge">
<title>BB10&#45;&gt;BB1</title>
<path fill="none" stroke="black" d="M447.79,-668.91C432.71,-657.51 415.7,-644.64 400.04,-632.79"/>
<polygon fill="black" stroke="black" points="402.07,-629.94 391.99,-626.7 397.85,-635.52 402.07,-629.94"/>
</g>
<!-- BB11 -->
<g id="node12" class="node">
<title>BB11</title>
<ellipse fill="none" stroke="black" cx="626.77" cy="-592.24" rx="106.55" ry="37.45"/>
<text text-anchor="middle" x="626.77" y="-603.54" font-family="Times New Roman,serif" font-size="14.00">[97..ae)</text>
<text text-anchor="middle" x="626.77" y="-588.54" font-family="Times New Roman,serif" font-size="14.00">Normalized Count: NaN</text>
<text text-anchor="middle" x="626.77" y="-573.54" font-family="Times New Roman,serif" font-size="14.00">Samples weight: 0.00</text>
</g>
<!-- BB10&#45;&gt;BB11 -->
<g id="edge17" class="edge">
<title>BB10&#45;&gt;BB11</title>
<path fill="none" stroke="black" d="M533.38,-668.62C547.24,-657.43 562.81,-644.86 577.21,-633.24"/>
<polygon fill="black" stroke="black" points="579.49,-635.9 585.07,-626.9 575.09,-630.46 579.49,-635.9"/>
</g>
</g>
</svg>
