<?xml version="1.0" encoding="UTF-8" standalone="no"?>
<!DOCTYPE svg PUBLIC "-//W3C//DTD SVG 1.1//EN"
 "http://www.w3.org/Graphics/SVG/1.1/DTD/svg11.dtd">
<!-- Generated by graphviz version 2.47.0 (20210316.0004)
 -->
<!-- Title: G Pages: 1 -->
<svg width="529pt" height="638pt"
 viewBox="0.00 0.00 528.62 637.72" xmlns="http://www.w3.org/2000/svg" xmlns:xlink="http://www.w3.org/1999/xlink">
<g id="graph0" class="graph" transform="scale(1 1) rotate(0) translate(4 633.72)">
<title>G</title>
<polygon fill="white" stroke="transparent" points="-4,4 -4,-633.72 524.62,-633.72 524.62,4 -4,4"/>
<!-- BB0 -->
<g id="node1" class="node">
<title>BB0</title>
<ellipse fill="none" stroke="black" cx="176.31" cy="-592.24" rx="105.22" ry="37.45"/>
<text text-anchor="middle" x="176.31" y="-603.54" font-family="Times New Roman,serif" font-size="14.00">[0..17)</text>
<text text-anchor="middle" x="176.31" y="-588.54" font-family="Times New Roman,serif" font-size="14.00">Normalized Count: 1.00</text>
<text text-anchor="middle" x="176.31" y="-573.54" font-family="Times New Roman,serif" font-size="14.00">Samples weight: 0.01</text>
</g>
<!-- BB5 -->
<g id="node6" class="node">
<title>BB5</title>
<ellipse fill="none" stroke="black" cx="176.31" cy="-481.29" rx="110.12" ry="37.45"/>
<text text-anchor="middle" x="176.31" y="-492.59" font-family="Times New Roman,serif" font-size="14.00">[59..5f)</text>
<text text-anchor="middle" x="176.31" y="-477.59" font-family="Times New Roman,serif" font-size="14.00">Normalized Count: 14.80</text>
<text text-anchor="middle" x="176.31" y="-462.59" font-family="Times New Roman,serif" font-size="14.00">Samples weight: 0.20</text>
</g>
<!-- BB0&#45;&gt;BB5 -->
<g id="edge1" class="edge">
<title>BB0&#45;&gt;BB5</title>
<path fill="none" stroke="black" d="M176.31,-554.66C176.31,-546.49 176.31,-537.71 176.31,-529.18"/>
<polygon fill="black" stroke="black" points="179.81,-528.96 176.31,-518.96 172.81,-528.96 179.81,-528.96"/>
</g>
<!-- BB1 -->
<g id="node2" class="node">
<title>BB1</title>
<ellipse fill="none" stroke="black" cx="410.31" cy="-370.34" rx="110.12" ry="37.45"/>
<text text-anchor="middle" x="410.31" y="-381.64" font-family="Times New Roman,serif" font-size="14.00">[17..28)</text>
<text text-anchor="middle" x="410.31" y="-366.64" font-family="Times New Roman,serif" font-size="14.00">Normalized Count: 14.80</text>
<text text-anchor="middle" x="410.31" y="-351.64" font-family="Times New Roman,serif" font-size="14.00">Samples weight: 0.20</text>
</g>
<!-- BB2 -->
<g id="node3" class="node">
<title>BB2</title>
<ellipse fill="none" stroke="black" cx="179.31" cy="-259.38" rx="110.12" ry="37.45"/>
<text text-anchor="middle" x="179.31" y="-270.68" font-family="Times New Roman,serif" font-size="14.00">[28..38)</text>
<text text-anchor="middle" x="179.31" y="-255.68" font-family="Times New Roman,serif" font-size="14.00">Normalized Count: 13.80</text>
<text text-anchor="middle" x="179.31" y="-240.68" font-family="Times New Roman,serif" font-size="14.00">Samples weight: 0.19</text>
</g>
<!-- BB1&#45;&gt;BB2 -->
<g id="edge3" class="edge">
<title>BB1&#45;&gt;BB2</title>
<path fill="none" stroke="black" d="M347.19,-339.56C317.77,-325.69 282.6,-309.1 252.07,-294.7"/>
<polygon fill="black" stroke="black" points="253.29,-291.41 242.76,-290.31 250.31,-297.74 253.29,-291.41"/>
</g>
<!-- BB7 -->
<g id="node8" class="node">
<title>BB7</title>
<ellipse fill="none" stroke="black" cx="413.31" cy="-259.38" rx="105.22" ry="37.45"/>
<text text-anchor="middle" x="413.31" y="-270.68" font-family="Times New Roman,serif" font-size="14.00">[64..68)</text>
<text text-anchor="middle" x="413.31" y="-255.68" font-family="Times New Roman,serif" font-size="14.00">Normalized Count: 1.00</text>
<text text-anchor="middle" x="413.31" y="-240.68" font-family="Times New Roman,serif" font-size="14.00">Samples weight: 0.01</text>
</g>
<!-- BB1&#45;&gt;BB7 -->
<g id="edge2" class="edge">
<title>BB1&#45;&gt;BB7</title>
<path fill="none" stroke="black" d="M411.32,-332.75C411.54,-324.58 411.78,-315.8 412.02,-307.27"/>
<polygon fill="black" stroke="black" points="415.52,-307.15 412.3,-297.06 408.52,-306.96 415.52,-307.15"/>
</g>
<!-- BB3 -->
<g id="node4" class="node">
<title>BB3</title>
<ellipse fill="none" stroke="black" cx="179.31" cy="-148.43" rx="110.12" ry="37.45"/>
<text text-anchor="middle" x="179.31" y="-159.73" font-family="Times New Roman,serif" font-size="14.00">[38..51)</text>
<text text-anchor="middle" x="179.31" y="-144.73" font-family="Times New Roman,serif" font-size="14.00">Normalized Count: 13.80</text>
<text text-anchor="middle" x="179.31" y="-129.73" font-family="Times New Roman,serif" font-size="14.00">Samples weight: 0.19</text>
</g>
<!-- BB2&#45;&gt;BB3 -->
<g id="edge5" class="edge">
<title>BB2&#45;&gt;BB3</title>
<path fill="none" stroke="black" d="M179.31,-221.8C179.31,-213.63 179.31,-204.85 179.31,-196.32"/>
<polygon fill="black" stroke="black" points="182.81,-196.1 179.31,-186.1 175.81,-196.1 182.81,-196.1"/>
</g>
<!-- BB6 -->
<g id="node7" class="node">
<title>BB6</title>
<ellipse fill="none" stroke="black" cx="176.31" cy="-370.34" rx="105.22" ry="37.45"/>
<text text-anchor="middle" x="176.31" y="-381.64" font-family="Times New Roman,serif" font-size="14.00">[5f..64)</text>
<text text-anchor="middle" x="176.31" y="-366.64" font-family="Times New Roman,serif" font-size="14.00">Normalized Count: 0.00</text>
<text text-anchor="middle" x="176.31" y="-351.64" font-family="Times New Roman,serif" font-size="14.00">Samples weight: 0.00</text>
</g>
<!-- BB2&#45;&gt;BB6 -->
<g id="edge4" class="edge">
<title>BB2&#45;&gt;BB6</title>
<path fill="none" stroke="black" d="M178.3,-297.06C178.07,-305.23 177.83,-314.02 177.6,-322.54"/>
<polygon fill="black" stroke="black" points="174.09,-322.66 177.32,-332.75 181.09,-322.85 174.09,-322.66"/>
</g>
<!-- BB4 -->
<g id="node5" class="node">
<title>BB4</title>
<ellipse fill="none" stroke="black" cx="110.31" cy="-37.48" rx="110.12" ry="37.45"/>
<text text-anchor="middle" x="110.31" y="-48.78" font-family="Times New Roman,serif" font-size="14.00">[51..59)</text>
<text text-anchor="middle" x="110.31" y="-33.78" font-family="Times New Roman,serif" font-size="14.00">Normalized Count: 13.80</text>
<text text-anchor="middle" x="110.31" y="-18.78" font-family="Times New Roman,serif" font-size="14.00">Samples weight: 0.19</text>
</g>
<!-- BB3&#45;&gt;BB4 -->
<g id="edge7" class="edge">
<title>BB3&#45;&gt;BB4</title>
<path fill="none" stroke="black" d="M156.52,-111.45C150.75,-102.34 144.49,-92.45 138.49,-82.97"/>
<polygon fill="black" stroke="black" points="141.38,-80.99 133.07,-74.42 135.46,-84.74 141.38,-80.99"/>
</g>
<!-- BB8 -->
<g id="node9" class="node">
<title>BB8</title>
<ellipse fill="none" stroke="black" cx="413.31" cy="-148.43" rx="105.22" ry="37.45"/>
<text text-anchor="middle" x="413.31" y="-159.73" font-family="Times New Roman,serif" font-size="14.00">[68..69)</text>
<text text-anchor="middle" x="413.31" y="-144.73" font-family="Times New Roman,serif" font-size="14.00">Normalized Count: 1.00</text>
<text text-anchor="middle" x="413.31" y="-129.73" font-family="Times New Roman,serif" font-size="14.00">Samples weight: 0.01</text>
</g>
<!-- BB3&#45;&gt;BB8 -->
<g id="edge6" class="edge">
<title>BB3&#45;&gt;BB8</title>
<path fill="none" stroke="black" d="M289.91,-148.43C292.51,-148.43 295.11,-148.43 297.71,-148.43"/>
<polygon fill="black" stroke="black" points="297.75,-151.93 307.75,-148.43 297.75,-144.93 297.75,-151.93"/>
</g>
<!-- BB4&#45;&gt;BB5 -->
<g id="edge8" class="edge">
<title>BB4&#45;&gt;BB5</title>
<path fill="none" stroke="black" d="M79.66,-73.81C71.79,-84.96 64.4,-97.82 60.31,-110.95 44.96,-160.22 48.99,-384.08 62.31,-407.81 70.99,-423.29 84.5,-435.94 99.22,-446.1"/>
<polygon fill="black" stroke="black" points="97.7,-449.29 108,-451.79 101.51,-443.41 97.7,-449.29"/>
</g>
<!-- BB5&#45;&gt;BB1 -->
<g id="edge9" class="edge">
<title>BB5&#45;&gt;BB1</title>
<path fill="none" stroke="black" d="M239.94,-450.66C270.12,-436.61 306.33,-419.75 337.59,-405.2"/>
<polygon fill="black" stroke="black" points="339.1,-408.35 346.69,-400.96 336.15,-402.01 339.1,-408.35"/>
</g>
<!-- BB5&#45;&gt;BB6 -->
<g id="edge10" class="edge">
<title>BB5&#45;&gt;BB6</title>
<path fill="none" stroke="black" d="M176.31,-443.71C176.31,-435.53 176.31,-426.75 176.31,-418.23"/>
<polygon fill="black" stroke="black" points="179.81,-418.01 176.31,-408.01 172.81,-418.01 179.81,-418.01"/>
</g>
<!-- BB7&#45;&gt;BB8 -->
<g id="edge11" class="edge">
<title>BB7&#45;&gt;BB8</title>
<path fill="none" stroke="black" d="M413.31,-221.8C413.31,-213.63 413.31,-204.85 413.31,-196.32"/>
<polygon fill="black" stroke="black" points="416.81,-196.1 413.31,-186.1 409.81,-196.1 416.81,-196.1"/>
</g>
</g>
</svg>
