<?xml version="1.0" encoding="UTF-8" standalone="no"?>
<!DOCTYPE svg PUBLIC "-//W3C//DTD SVG 1.1//EN"
 "http://www.w3.org/Graphics/SVG/1.1/DTD/svg11.dtd">
<!-- Generated by graphviz version 2.47.0 (20210316.0004)
 -->
<!-- Title: G Pages: 1 -->
<svg width="295pt" height="331pt"
 viewBox="0.00 0.00 295.44 330.96" xmlns="http://www.w3.org/2000/svg" xmlns:xlink="http://www.w3.org/1999/xlink">
<g id="graph0" class="graph" transform="scale(1 1) rotate(0) translate(4 326.96)">
<title>G</title>
<polygon fill="white" stroke="transparent" points="-4,4 -4,-326.96 291.44,-326.96 291.44,4 -4,4"/>
<!-- BB0 -->
<g id="node1" class="node">
<title>BB0</title>
<ellipse fill="none" stroke="black" cx="195.43" cy="-296.09" rx="33.47" ry="26.74"/>
<text text-anchor="middle" x="195.43" y="-299.89" font-family="Times New Roman,serif" font-size="14.00">[0..6)</text>
<text text-anchor="middle" x="195.43" y="-284.89" font-family="Times New Roman,serif" font-size="14.00">0.01</text>
</g>
<!-- BB4 -->
<g id="node5" class="node">
<title>BB4</title>
<ellipse fill="none" stroke="black" cx="160.43" cy="-206.35" rx="42.35" ry="26.74"/>
<text text-anchor="middle" x="160.43" y="-210.15" font-family="Times New Roman,serif" font-size="14.00">[28..2c)</text>
<text text-anchor="middle" x="160.43" y="-195.15" font-family="Times New Roman,serif" font-size="14.00">0.26</text>
</g>
<!-- BB0&#45;&gt;BB4 -->
<g id="edge1" class="edge">
<title>BB0&#45;&gt;BB4</title>
<path fill="none" stroke="black" d="M185.49,-270.18C182.01,-261.46 178.04,-251.5 174.29,-242.11"/>
<polygon fill="black" stroke="black" points="177.46,-240.62 170.51,-232.63 170.96,-243.21 177.46,-240.62"/>
</g>
<!-- BB1 -->
<g id="node2" class="node">
<title>BB1</title>
<ellipse fill="none" stroke="black" cx="95.43" cy="-116.61" rx="37.45" ry="26.74"/>
<text text-anchor="middle" x="95.43" y="-120.41" font-family="Times New Roman,serif" font-size="14.00">[6..10)</text>
<text text-anchor="middle" x="95.43" y="-105.41" font-family="Times New Roman,serif" font-size="14.00">0.25</text>
</g>
<!-- BB2 -->
<g id="node3" class="node">
<title>BB2</title>
<ellipse fill="none" stroke="black" cx="42.43" cy="-26.87" rx="42.35" ry="26.74"/>
<text text-anchor="middle" x="42.43" y="-30.67" font-family="Times New Roman,serif" font-size="14.00">[10..24)</text>
<text text-anchor="middle" x="42.43" y="-15.67" font-family="Times New Roman,serif" font-size="14.00">0.22</text>
</g>
<!-- BB1&#45;&gt;BB2 -->
<g id="edge3" class="edge">
<title>BB1&#45;&gt;BB2</title>
<path fill="none" stroke="black" d="M80.94,-91.63C75.21,-82.14 68.52,-71.06 62.34,-60.83"/>
<polygon fill="black" stroke="black" points="65.24,-58.87 57.08,-52.12 59.25,-62.49 65.24,-58.87"/>
</g>
<!-- BB3 -->
<g id="node4" class="node">
<title>BB3</title>
<ellipse fill="none" stroke="black" cx="145.43" cy="-26.87" rx="42.35" ry="26.74"/>
<text text-anchor="middle" x="145.43" y="-30.67" font-family="Times New Roman,serif" font-size="14.00">[24..28)</text>
<text text-anchor="middle" x="145.43" y="-15.67" font-family="Times New Roman,serif" font-size="14.00">0.25</text>
</g>
<!-- BB1&#45;&gt;BB3 -->
<g id="edge2" class="edge">
<title>BB1&#45;&gt;BB3</title>
<path fill="none" stroke="black" d="M109.35,-91.17C114.62,-81.93 120.71,-71.25 126.36,-61.32"/>
<polygon fill="black" stroke="black" points="129.49,-62.91 131.4,-52.48 123.41,-59.44 129.49,-62.91"/>
</g>
<!-- BB2&#45;&gt;BB3 -->
<g id="edge4" class="edge">
<title>BB2&#45;&gt;BB3</title>
<path fill="none" stroke="black" d="M85.07,-26.87C87.69,-26.87 90.3,-26.87 92.91,-26.87"/>
<polygon fill="black" stroke="black" points="92.99,-30.37 102.99,-26.87 92.99,-23.37 92.99,-30.37"/>
</g>
<!-- BB3&#45;&gt;BB4 -->
<g id="edge5" class="edge">
<title>BB3&#45;&gt;BB4</title>
<path fill="none" stroke="black" d="M147.62,-53.88C150.2,-84.29 154.47,-134.84 157.36,-169.09"/>
<polygon fill="black" stroke="black" points="153.88,-169.49 158.21,-179.16 160.86,-168.9 153.88,-169.49"/>
</g>
<!-- BB4&#45;&gt;BB1 -->
<g id="edge6" class="edge">
<title>BB4&#45;&gt;BB1</title>
<path fill="none" stroke="black" d="M143.01,-181.84C135.46,-171.64 126.51,-159.57 118.42,-148.65"/>
<polygon fill="black" stroke="black" points="121.21,-146.53 112.44,-140.58 115.58,-150.7 121.21,-146.53"/>
</g>
<!-- BB5 -->
<g id="node6" class="node">
<title>BB5</title>
<ellipse fill="none" stroke="black" cx="230.43" cy="-116.61" rx="41.02" ry="26.74"/>
<text text-anchor="middle" x="230.43" y="-120.41" font-family="Times New Roman,serif" font-size="14.00">[2c..2f)</text>
<text text-anchor="middle" x="230.43" y="-105.41" font-family="Times New Roman,serif" font-size="14.00">0.01</text>
</g>
<!-- BB4&#45;&gt;BB5 -->
<g id="edge7" class="edge">
<title>BB4&#45;&gt;BB5</title>
<path fill="none" stroke="black" d="M179.19,-181.84C187.25,-171.72 196.8,-159.76 205.45,-148.91"/>
<polygon fill="black" stroke="black" points="208.36,-150.88 211.86,-140.88 202.89,-146.52 208.36,-150.88"/>
</g>
<!-- BB5&#45;&gt;BB0 -->
<g id="edge8" class="edge">
<title>BB5&#45;&gt;BB0</title>
<path fill="none" stroke="black" d="M226.86,-143.45C223.46,-166.96 217.89,-202.57 211.43,-233.22 209.6,-241.88 207.36,-251.15 205.14,-259.81"/>
<polygon fill="black" stroke="black" points="201.71,-259.07 202.56,-269.63 208.48,-260.84 201.71,-259.07"/>
</g>
<!-- BB6 -->
<g id="node7" class="node">
<title>BB6</title>
<ellipse fill="none" stroke="black" cx="246.43" cy="-26.87" rx="41.02" ry="26.74"/>
<text text-anchor="middle" x="246.43" y="-30.67" font-family="Times New Roman,serif" font-size="14.00">[2f..30)</text>
<text text-anchor="middle" x="246.43" y="-15.67" font-family="Times New Roman,serif" font-size="14.00">0.00</text>
</g>
<!-- BB5&#45;&gt;BB6 -->
<g id="edge9" class="edge">
<title>BB5&#45;&gt;BB6</title>
<path fill="none" stroke="black" d="M235.14,-89.76C236.62,-81.62 238.29,-72.48 239.88,-63.77"/>
<polygon fill="black" stroke="black" points="243.34,-64.3 241.69,-53.84 236.45,-63.05 243.34,-64.3"/>
</g>
</g>
</svg>
