<?xml version="1.0" encoding="UTF-8" standalone="no"?>
<!DOCTYPE svg PUBLIC "-//W3C//DTD SVG 1.1//EN"
 "http://www.w3.org/Graphics/SVG/1.1/DTD/svg11.dtd">
<!-- Generated by graphviz version 2.47.0 (20210316.0004)
 -->
<!-- Title: G Pages: 1 -->
<svg width="504pt" height="765pt"
 viewBox="0.00 0.00 504.48 765.00" xmlns="http://www.w3.org/2000/svg" xmlns:xlink="http://www.w3.org/1999/xlink">
<g id="graph0" class="graph" transform="scale(1 1) rotate(0) translate(4 761)">
<title>G</title>
<polygon fill="white" stroke="transparent" points="-4,4 -4,-761 500.48,-761 500.48,4 -4,4"/>
<!-- BB0 -->
<g id="node1" class="node">
<title>BB0</title>
<ellipse fill="none" stroke="black" cx="169.24" cy="-708.92" rx="103.48" ry="48.17"/>
<text text-anchor="middle" x="169.24" y="-727.72" font-family="Times New Roman,serif" font-size="14.00">[0..17)</text>
<text text-anchor="middle" x="169.24" y="-712.72" font-family="Times New Roman,serif" font-size="14.00">Count: 148271</text>
<text text-anchor="middle" x="169.24" y="-697.72" font-family="Times New Roman,serif" font-size="14.00">Normalized count: 1.00</text>
<text text-anchor="middle" x="169.24" y="-682.72" font-family="Times New Roman,serif" font-size="14.00">Samples weight: 0.03</text>
</g>
<!-- BB5 -->
<g id="node6" class="node">
<title>BB5</title>
<ellipse fill="none" stroke="black" cx="169.24" cy="-576.75" rx="103.48" ry="48.17"/>
<text text-anchor="middle" x="169.24" y="-595.55" font-family="Times New Roman,serif" font-size="14.00">[59..5f)</text>
<text text-anchor="middle" x="169.24" y="-580.55" font-family="Times New Roman,serif" font-size="14.00">Count: 1037897</text>
<text text-anchor="middle" x="169.24" y="-565.55" font-family="Times New Roman,serif" font-size="14.00">Normalized count: 7.00</text>
<text text-anchor="middle" x="169.24" y="-550.55" font-family="Times New Roman,serif" font-size="14.00">Samples weight: 0.20</text>
</g>
<!-- BB0&#45;&gt;BB5 -->
<g id="edge1" class="edge">
<title>BB0&#45;&gt;BB5</title>
<path fill="none" stroke="black" d="M169.24,-660.55C169.24,-652.29 169.24,-643.6 169.24,-635.1"/>
<polygon fill="black" stroke="black" points="172.74,-634.86 169.24,-624.86 165.74,-634.86 172.74,-634.86"/>
</g>
<!-- BB1 -->
<g id="node2" class="node">
<title>BB1</title>
<ellipse fill="none" stroke="black" cx="393.24" cy="-444.58" rx="103.48" ry="48.17"/>
<text text-anchor="middle" x="393.24" y="-463.38" font-family="Times New Roman,serif" font-size="14.00">[17..28)</text>
<text text-anchor="middle" x="393.24" y="-448.38" font-family="Times New Roman,serif" font-size="14.00">Count: 1037897</text>
<text text-anchor="middle" x="393.24" y="-433.38" font-family="Times New Roman,serif" font-size="14.00">Normalized count: 7.00</text>
<text text-anchor="middle" x="393.24" y="-418.38" font-family="Times New Roman,serif" font-size="14.00">Samples weight: 0.20</text>
</g>
<!-- BB2 -->
<g id="node3" class="node">
<title>BB2</title>
<ellipse fill="none" stroke="black" cx="169.24" cy="-312.42" rx="103.48" ry="48.17"/>
<text text-anchor="middle" x="169.24" y="-331.22" font-family="Times New Roman,serif" font-size="14.00">[28..38)</text>
<text text-anchor="middle" x="169.24" y="-316.22" font-family="Times New Roman,serif" font-size="14.00">Count: 889626</text>
<text text-anchor="middle" x="169.24" y="-301.22" font-family="Times New Roman,serif" font-size="14.00">Normalized count: 6.00</text>
<text text-anchor="middle" x="169.24" y="-286.22" font-family="Times New Roman,serif" font-size="14.00">Samples weight: 0.17</text>
</g>
<!-- BB1&#45;&gt;BB2 -->
<g id="edge3" class="edge">
<title>BB1&#45;&gt;BB2</title>
<path fill="none" stroke="black" d="M329.65,-406.63C302.22,-390.69 269.99,-371.97 241.65,-355.49"/>
<polygon fill="black" stroke="black" points="243.39,-352.46 232.99,-350.46 239.87,-358.51 243.39,-352.46"/>
</g>
<!-- BB7 -->
<g id="node8" class="node">
<title>BB7</title>
<ellipse fill="none" stroke="black" cx="393.24" cy="-312.42" rx="103.48" ry="48.17"/>
<text text-anchor="middle" x="393.24" y="-331.22" font-family="Times New Roman,serif" font-size="14.00">[64..68)</text>
<text text-anchor="middle" x="393.24" y="-316.22" font-family="Times New Roman,serif" font-size="14.00">Count: 148271</text>
<text text-anchor="middle" x="393.24" y="-301.22" font-family="Times New Roman,serif" font-size="14.00">Normalized count: 1.00</text>
<text text-anchor="middle" x="393.24" y="-286.22" font-family="Times New Roman,serif" font-size="14.00">Samples weight: 0.03</text>
</g>
<!-- BB1&#45;&gt;BB7 -->
<g id="edge2" class="edge">
<title>BB1&#45;&gt;BB7</title>
<path fill="none" stroke="black" d="M393.24,-396.22C393.24,-387.95 393.24,-379.27 393.24,-370.77"/>
<polygon fill="black" stroke="black" points="396.74,-370.52 393.24,-360.52 389.74,-370.52 396.74,-370.52"/>
</g>
<!-- BB3 -->
<g id="node4" class="node">
<title>BB3</title>
<ellipse fill="none" stroke="black" cx="169.24" cy="-180.25" rx="103.48" ry="48.17"/>
<text text-anchor="middle" x="169.24" y="-199.05" font-family="Times New Roman,serif" font-size="14.00">[38..51)</text>
<text text-anchor="middle" x="169.24" y="-184.05" font-family="Times New Roman,serif" font-size="14.00">Count: 889626</text>
<text text-anchor="middle" x="169.24" y="-169.05" font-family="Times New Roman,serif" font-size="14.00">Normalized count: 6.00</text>
<text text-anchor="middle" x="169.24" y="-154.05" font-family="Times New Roman,serif" font-size="14.00">Samples weight: 0.17</text>
</g>
<!-- BB2&#45;&gt;BB3 -->
<g id="edge5" class="edge">
<title>BB2&#45;&gt;BB3</title>
<path fill="none" stroke="black" d="M169.24,-264.05C169.24,-255.79 169.24,-247.1 169.24,-238.6"/>
<polygon fill="black" stroke="black" points="172.74,-238.36 169.24,-228.36 165.74,-238.36 172.74,-238.36"/>
</g>
<!-- BB6 -->
<g id="node7" class="node">
<title>BB6</title>
<ellipse fill="none" stroke="black" cx="169.24" cy="-444.58" rx="103.48" ry="48.17"/>
<text text-anchor="middle" x="169.24" y="-463.38" font-family="Times New Roman,serif" font-size="14.00">[5f..64)</text>
<text text-anchor="middle" x="169.24" y="-448.38" font-family="Times New Roman,serif" font-size="14.00">Count: 0</text>
<text text-anchor="middle" x="169.24" y="-433.38" font-family="Times New Roman,serif" font-size="14.00">Normalized count: 0.00</text>
<text text-anchor="middle" x="169.24" y="-418.38" font-family="Times New Roman,serif" font-size="14.00">Samples weight: 0.00</text>
</g>
<!-- BB2&#45;&gt;BB6 -->
<g id="edge4" class="edge">
<title>BB2&#45;&gt;BB6</title>
<path fill="none" stroke="black" d="M169.24,-360.52C169.24,-368.78 169.24,-377.46 169.24,-385.97"/>
<polygon fill="black" stroke="black" points="165.74,-386.22 169.24,-396.22 172.74,-386.22 165.74,-386.22"/>
</g>
<!-- BB4 -->
<g id="node5" class="node">
<title>BB4</title>
<ellipse fill="none" stroke="black" cx="103.24" cy="-48.08" rx="103.48" ry="48.17"/>
<text text-anchor="middle" x="103.24" y="-66.88" font-family="Times New Roman,serif" font-size="14.00">[51..59)</text>
<text text-anchor="middle" x="103.24" y="-51.88" font-family="Times New Roman,serif" font-size="14.00">Count: 889626</text>
<text text-anchor="middle" x="103.24" y="-36.88" font-family="Times New Roman,serif" font-size="14.00">Normalized count: 6.00</text>
<text text-anchor="middle" x="103.24" y="-21.88" font-family="Times New Roman,serif" font-size="14.00">Samples weight: 0.17</text>
</g>
<!-- BB3&#45;&gt;BB4 -->
<g id="edge7" class="edge">
<title>BB3&#45;&gt;BB4</title>
<path fill="none" stroke="black" d="M145.97,-133.36C141.19,-123.93 136.11,-113.91 131.18,-104.19"/>
<polygon fill="black" stroke="black" points="134.16,-102.34 126.52,-95 127.92,-105.5 134.16,-102.34"/>
</g>
<!-- BB8 -->
<g id="node9" class="node">
<title>BB8</title>
<ellipse fill="none" stroke="black" cx="393.24" cy="-180.25" rx="103.48" ry="48.17"/>
<text text-anchor="middle" x="393.24" y="-199.05" font-family="Times New Roman,serif" font-size="14.00">[68..69)</text>
<text text-anchor="middle" x="393.24" y="-184.05" font-family="Times New Roman,serif" font-size="14.00">Count: 148271</text>
<text text-anchor="middle" x="393.24" y="-169.05" font-family="Times New Roman,serif" font-size="14.00">Normalized count: 1.00</text>
<text text-anchor="middle" x="393.24" y="-154.05" font-family="Times New Roman,serif" font-size="14.00">Samples weight: 0.03</text>
</g>
<!-- BB3&#45;&gt;BB8 -->
<g id="edge6" class="edge">
<title>BB3&#45;&gt;BB8</title>
<path fill="none" stroke="black" d="M272.49,-180.25C274.94,-180.25 277.4,-180.25 279.85,-180.25"/>
<polygon fill="black" stroke="black" points="279.94,-183.75 289.94,-180.25 279.94,-176.75 279.94,-183.75"/>
</g>
<!-- BB4&#45;&gt;BB5 -->
<g id="edge8" class="edge">
<title>BB4&#45;&gt;BB5</title>
<path fill="none" stroke="black" d="M72.82,-94.35C66.41,-106.17 60.58,-119.24 57.24,-132.17 17.16,-287.3 -14.79,-349.55 57.24,-492.67 65.46,-509 78.57,-522.92 92.98,-534.44"/>
<polygon fill="black" stroke="black" points="91.01,-537.34 101.1,-540.59 95.24,-531.76 91.01,-537.34"/>
</g>
<!-- BB5&#45;&gt;BB1 -->
<g id="edge9" class="edge">
<title>BB5&#45;&gt;BB1</title>
<path fill="none" stroke="black" d="M232.83,-538.8C260.26,-522.86 292.48,-504.13 320.83,-487.66"/>
<polygon fill="black" stroke="black" points="322.6,-490.68 329.49,-482.63 319.08,-484.63 322.6,-490.68"/>
</g>
<!-- BB5&#45;&gt;BB6 -->
<g id="edge10" class="edge">
<title>BB5&#45;&gt;BB6</title>
<path fill="none" stroke="black" d="M169.24,-528.39C169.24,-520.12 169.24,-511.44 169.24,-502.93"/>
<polygon fill="black" stroke="black" points="172.74,-502.69 169.24,-492.69 165.74,-502.69 172.74,-502.69"/>
</g>
<!-- BB7&#45;&gt;BB8 -->
<g id="edge11" class="edge">
<title>BB7&#45;&gt;BB8</title>
<path fill="none" stroke="black" d="M393.24,-264.05C393.24,-255.79 393.24,-247.1 393.24,-238.6"/>
<polygon fill="black" stroke="black" points="396.74,-238.36 393.24,-228.36 389.74,-238.36 396.74,-238.36"/>
</g>
</g>
</svg>
