<?xml version="1.0" encoding="UTF-8" standalone="no"?>
<!DOCTYPE svg PUBLIC "-//W3C//DTD SVG 1.1//EN"
 "http://www.w3.org/Graphics/SVG/1.1/DTD/svg11.dtd">
<!-- Generated by graphviz version 2.47.0 (20210316.0004)
 -->
<!-- Title: G Pages: 1 -->
<svg width="577pt" height="897pt"
 viewBox="0.00 0.00 577.30 897.17" xmlns="http://www.w3.org/2000/svg" xmlns:xlink="http://www.w3.org/1999/xlink">
<g id="graph0" class="graph" transform="scale(1 1) rotate(0) translate(4 893.17)">
<title>G</title>
<polygon fill="white" stroke="transparent" points="-4,4 -4,-893.17 573.3,-893.17 573.3,4 -4,4"/>
<!-- BB0 -->
<g id="node1" class="node">
<title>BB0</title>
<ellipse fill="none" stroke="black" cx="237.65" cy="-841.08" rx="104.8" ry="48.17"/>
<text text-anchor="middle" x="237.65" y="-859.88" font-family="Times New Roman,serif" font-size="14.00">[0..7)</text>
<text text-anchor="middle" x="237.65" y="-844.88" font-family="Times New Roman,serif" font-size="14.00">Count: 0</text>
<text text-anchor="middle" x="237.65" y="-829.88" font-family="Times New Roman,serif" font-size="14.00">Normalized count: NaN</text>
<text text-anchor="middle" x="237.65" y="-814.88" font-family="Times New Roman,serif" font-size="14.00">Samples weight: 0.00</text>
</g>
<!-- BB8 -->
<g id="node9" class="node">
<title>BB8</title>
<ellipse fill="none" stroke="black" cx="237.65" cy="-708.92" rx="104.8" ry="48.17"/>
<text text-anchor="middle" x="237.65" y="-727.72" font-family="Times New Roman,serif" font-size="14.00">[46..4a)</text>
<text text-anchor="middle" x="237.65" y="-712.72" font-family="Times New Roman,serif" font-size="14.00">Count: 0</text>
<text text-anchor="middle" x="237.65" y="-697.72" font-family="Times New Roman,serif" font-size="14.00">Normalized count: NaN</text>
<text text-anchor="middle" x="237.65" y="-682.72" font-family="Times New Roman,serif" font-size="14.00">Samples weight: 0.00</text>
</g>
<!-- BB0&#45;&gt;BB8 -->
<g id="edge1" class="edge">
<title>BB0&#45;&gt;BB8</title>
<path fill="none" stroke="black" d="M237.65,-792.72C237.65,-784.45 237.65,-775.77 237.65,-767.27"/>
<polygon fill="black" stroke="black" points="241.15,-767.02 237.65,-757.02 234.15,-767.02 241.15,-767.02"/>
</g>
<!-- BB1 -->
<g id="node2" class="node">
<title>BB1</title>
<ellipse fill="none" stroke="black" cx="237.65" cy="-576.75" rx="104.8" ry="48.17"/>
<text text-anchor="middle" x="237.65" y="-595.55" font-family="Times New Roman,serif" font-size="14.00">[7..e)</text>
<text text-anchor="middle" x="237.65" y="-580.55" font-family="Times New Roman,serif" font-size="14.00">Count: 0</text>
<text text-anchor="middle" x="237.65" y="-565.55" font-family="Times New Roman,serif" font-size="14.00">Normalized count: NaN</text>
<text text-anchor="middle" x="237.65" y="-550.55" font-family="Times New Roman,serif" font-size="14.00">Samples weight: 0.00</text>
</g>
<!-- BB6 -->
<g id="node7" class="node">
<title>BB6</title>
<ellipse fill="none" stroke="black" cx="237.65" cy="-444.58" rx="104.8" ry="48.17"/>
<text text-anchor="middle" x="237.65" y="-463.38" font-family="Times New Roman,serif" font-size="14.00">[3d..42)</text>
<text text-anchor="middle" x="237.65" y="-448.38" font-family="Times New Roman,serif" font-size="14.00">Count: 0</text>
<text text-anchor="middle" x="237.65" y="-433.38" font-family="Times New Roman,serif" font-size="14.00">Normalized count: NaN</text>
<text text-anchor="middle" x="237.65" y="-418.38" font-family="Times New Roman,serif" font-size="14.00">Samples weight: 0.00</text>
</g>
<!-- BB1&#45;&gt;BB6 -->
<g id="edge2" class="edge">
<title>BB1&#45;&gt;BB6</title>
<path fill="none" stroke="black" d="M237.65,-528.39C237.65,-520.12 237.65,-511.44 237.65,-502.93"/>
<polygon fill="black" stroke="black" points="241.15,-502.69 237.65,-492.69 234.15,-502.69 241.15,-502.69"/>
</g>
<!-- BB2 -->
<g id="node3" class="node">
<title>BB2</title>
<ellipse fill="none" stroke="black" cx="386.65" cy="-312.42" rx="104.8" ry="48.17"/>
<text text-anchor="middle" x="386.65" y="-331.22" font-family="Times New Roman,serif" font-size="14.00">[e..13)</text>
<text text-anchor="middle" x="386.65" y="-316.22" font-family="Times New Roman,serif" font-size="14.00">Count: 0</text>
<text text-anchor="middle" x="386.65" y="-301.22" font-family="Times New Roman,serif" font-size="14.00">Normalized count: NaN</text>
<text text-anchor="middle" x="386.65" y="-286.22" font-family="Times New Roman,serif" font-size="14.00">Samples weight: 0.00</text>
</g>
<!-- BB4 -->
<g id="node5" class="node">
<title>BB4</title>
<ellipse fill="none" stroke="black" cx="402.65" cy="-180.25" rx="113.69" ry="48.17"/>
<text text-anchor="middle" x="402.65" y="-199.05" font-family="Times New Roman,serif" font-size="14.00">[32..37)</text>
<text text-anchor="middle" x="402.65" y="-184.05" font-family="Times New Roman,serif" font-size="14.00">Count: 21</text>
<text text-anchor="middle" x="402.65" y="-169.05" font-family="Times New Roman,serif" font-size="14.00">Normalized count: Infinity</text>
<text text-anchor="middle" x="402.65" y="-154.05" font-family="Times New Roman,serif" font-size="14.00">Samples weight: 0.04</text>
</g>
<!-- BB2&#45;&gt;BB4 -->
<g id="edge3" class="edge">
<title>BB2&#45;&gt;BB4</title>
<path fill="none" stroke="black" d="M392.47,-264.05C393.5,-255.7 394.58,-246.91 395.64,-238.32"/>
<polygon fill="black" stroke="black" points="399.12,-238.71 396.86,-228.36 392.17,-237.86 399.12,-238.71"/>
</g>
<!-- BB3 -->
<g id="node4" class="node">
<title>BB3</title>
<ellipse fill="none" stroke="black" cx="426.65" cy="-48.08" rx="113.69" ry="48.17"/>
<text text-anchor="middle" x="426.65" y="-66.88" font-family="Times New Roman,serif" font-size="14.00">[13..32)</text>
<text text-anchor="middle" x="426.65" y="-51.88" font-family="Times New Roman,serif" font-size="14.00">Count: 523</text>
<text text-anchor="middle" x="426.65" y="-36.88" font-family="Times New Roman,serif" font-size="14.00">Normalized count: Infinity</text>
<text text-anchor="middle" x="426.65" y="-21.88" font-family="Times New Roman,serif" font-size="14.00">Samples weight: 0.96</text>
</g>
<!-- BB3&#45;&gt;BB4 -->
<g id="edge4" class="edge">
<title>BB3&#45;&gt;BB4</title>
<path fill="none" stroke="black" d="M424.44,-96.44C423.12,-104.83 421.55,-113.64 419.86,-122.26"/>
<polygon fill="black" stroke="black" points="416.39,-121.76 417.83,-132.26 423.25,-123.16 416.39,-121.76"/>
</g>
<!-- BB4&#45;&gt;BB3 -->
<g id="edge5" class="edge">
<title>BB4&#45;&gt;BB3</title>
<path fill="none" stroke="black" d="M404.86,-131.89C406.2,-123.42 407.78,-114.53 409.49,-105.83"/>
<polygon fill="black" stroke="black" points="412.97,-106.25 411.54,-95.76 406.12,-104.86 412.97,-106.25"/>
</g>
<!-- BB5 -->
<g id="node6" class="node">
<title>BB5</title>
<ellipse fill="none" stroke="black" cx="190.65" cy="-48.08" rx="104.8" ry="48.17"/>
<text text-anchor="middle" x="190.65" y="-66.88" font-family="Times New Roman,serif" font-size="14.00">[37..3d)</text>
<text text-anchor="middle" x="190.65" y="-51.88" font-family="Times New Roman,serif" font-size="14.00">Count: 0</text>
<text text-anchor="middle" x="190.65" y="-36.88" font-family="Times New Roman,serif" font-size="14.00">Normalized count: NaN</text>
<text text-anchor="middle" x="190.65" y="-21.88" font-family="Times New Roman,serif" font-size="14.00">Samples weight: 0.00</text>
</g>
<!-- BB4&#45;&gt;BB5 -->
<g id="edge6" class="edge">
<title>BB4&#45;&gt;BB5</title>
<path fill="none" stroke="black" d="M339.04,-140.2C314.5,-125.12 286.32,-107.82 261.16,-92.37"/>
<polygon fill="black" stroke="black" points="262.74,-89.24 252.39,-86.99 259.08,-95.21 262.74,-89.24"/>
</g>
<!-- BB5&#45;&gt;BB6 -->
<g id="edge7" class="edge">
<title>BB5&#45;&gt;BB6</title>
<path fill="none" stroke="black" d="M197.15,-96.49C203.04,-140.08 211.83,-206.51 218.65,-264.33 223.46,-305.07 228.32,-351.07 231.93,-386.28"/>
<polygon fill="black" stroke="black" points="228.46,-386.78 232.96,-396.37 235.42,-386.07 228.46,-386.78"/>
</g>
<!-- BB6&#45;&gt;BB2 -->
<g id="edge8" class="edge">
<title>BB6&#45;&gt;BB2</title>
<path fill="none" stroke="black" d="M285.62,-401.68C300.11,-389.02 316.13,-375.02 331.08,-361.97"/>
<polygon fill="black" stroke="black" points="333.55,-364.45 338.78,-355.24 328.94,-359.18 333.55,-364.45"/>
</g>
<!-- BB7 -->
<g id="node8" class="node">
<title>BB7</title>
<ellipse fill="none" stroke="black" cx="104.65" cy="-312.42" rx="104.8" ry="48.17"/>
<text text-anchor="middle" x="104.65" y="-331.22" font-family="Times New Roman,serif" font-size="14.00">[42..46)</text>
<text text-anchor="middle" x="104.65" y="-316.22" font-family="Times New Roman,serif" font-size="14.00">Count: 0</text>
<text text-anchor="middle" x="104.65" y="-301.22" font-family="Times New Roman,serif" font-size="14.00">Normalized count: NaN</text>
<text text-anchor="middle" x="104.65" y="-286.22" font-family="Times New Roman,serif" font-size="14.00">Samples weight: 0.00</text>
</g>
<!-- BB6&#45;&gt;BB7 -->
<g id="edge9" class="edge">
<title>BB6&#45;&gt;BB7</title>
<path fill="none" stroke="black" d="M193.73,-400.6C181.59,-388.72 168.31,-375.71 155.79,-363.46"/>
<polygon fill="black" stroke="black" points="158.12,-360.85 148.52,-356.35 153.22,-365.85 158.12,-360.85"/>
</g>
<!-- BB7&#45;&gt;BB8 -->
<g id="edge10" class="edge">
<title>BB7&#45;&gt;BB8</title>
<path fill="none" stroke="black" d="M95.77,-360.33C86.13,-424.39 77.67,-540.86 123.65,-624.83 132.53,-641.05 146.1,-654.93 160.8,-666.44"/>
<polygon fill="black" stroke="black" points="158.96,-669.43 169.07,-672.59 163.14,-663.82 158.96,-669.43"/>
</g>
<!-- BB8&#45;&gt;BB1 -->
<g id="edge11" class="edge">
<title>BB8&#45;&gt;BB1</title>
<path fill="none" stroke="black" d="M237.65,-660.55C237.65,-652.29 237.65,-643.6 237.65,-635.1"/>
<polygon fill="black" stroke="black" points="241.15,-634.86 237.65,-624.86 234.15,-634.86 241.15,-634.86"/>
</g>
<!-- BB9 -->
<g id="node10" class="node">
<title>BB9</title>
<ellipse fill="none" stroke="black" cx="464.65" cy="-576.75" rx="104.8" ry="48.17"/>
<text text-anchor="middle" x="464.65" y="-595.55" font-family="Times New Roman,serif" font-size="14.00">[4a..4b)</text>
<text text-anchor="middle" x="464.65" y="-580.55" font-family="Times New Roman,serif" font-size="14.00">Count: 0</text>
<text text-anchor="middle" x="464.65" y="-565.55" font-family="Times New Roman,serif" font-size="14.00">Normalized count: NaN</text>
<text text-anchor="middle" x="464.65" y="-550.55" font-family="Times New Roman,serif" font-size="14.00">Samples weight: 0.00</text>
</g>
<!-- BB8&#45;&gt;BB9 -->
<g id="edge12" class="edge">
<title>BB8&#45;&gt;BB9</title>
<path fill="none" stroke="black" d="M302.09,-670.96C329.89,-655.02 362.55,-636.3 391.27,-619.83"/>
<polygon fill="black" stroke="black" points="393.11,-622.8 400.05,-614.79 389.63,-616.73 393.11,-622.8"/>
</g>
</g>
</svg>
