<?xml version="1.0" encoding="UTF-8" standalone="no"?>
<!DOCTYPE svg PUBLIC "-//W3C//DTD SVG 1.1//EN"
 "http://www.w3.org/Graphics/SVG/1.1/DTD/svg11.dtd">
<!-- Generated by graphviz version 2.47.0 (20210316.0004)
 -->
<!-- Title: G Pages: 1 -->
<svg width="264pt" height="421pt"
 viewBox="0.00 0.00 264.15 420.70" xmlns="http://www.w3.org/2000/svg" xmlns:xlink="http://www.w3.org/1999/xlink">
<g id="graph0" class="graph" transform="scale(1 1) rotate(0) translate(4 416.7)">
<title>G</title>
<polygon fill="white" stroke="transparent" points="-4,4 -4,-416.7 260.15,-416.7 260.15,4 -4,4"/>
<!-- BB0 -->
<g id="node1" class="node">
<title>BB0</title>
<ellipse fill="none" stroke="black" cx="144.43" cy="-385.83" rx="33.47" ry="26.74"/>
<text text-anchor="middle" x="144.43" y="-389.63" font-family="Times New Roman,serif" font-size="14.00">[0..4)</text>
<text text-anchor="middle" x="144.43" y="-374.63" font-family="Times New Roman,serif" font-size="14.00">0.01</text>
</g>
<!-- BB5 -->
<g id="node6" class="node">
<title>BB5</title>
<ellipse fill="none" stroke="black" cx="144.43" cy="-296.09" rx="43.27" ry="26.74"/>
<text text-anchor="middle" x="144.43" y="-299.89" font-family="Times New Roman,serif" font-size="14.00">[22..2d)</text>
<text text-anchor="middle" x="144.43" y="-284.89" font-family="Times New Roman,serif" font-size="14.00">0.32</text>
</g>
<!-- BB0&#45;&gt;BB5 -->
<g id="edge1" class="edge">
<title>BB0&#45;&gt;BB5</title>
<path fill="none" stroke="black" d="M144.43,-358.51C144.43,-350.54 144.43,-341.65 144.43,-333.16"/>
<polygon fill="black" stroke="black" points="147.93,-333.09 144.43,-323.09 140.93,-333.09 147.93,-333.09"/>
</g>
<!-- BB1 -->
<g id="node2" class="node">
<title>BB1</title>
<ellipse fill="none" stroke="black" cx="79.43" cy="-206.35" rx="37.45" ry="26.74"/>
<text text-anchor="middle" x="79.43" y="-210.15" font-family="Times New Roman,serif" font-size="14.00">[4..10)</text>
<text text-anchor="middle" x="79.43" y="-195.15" font-family="Times New Roman,serif" font-size="14.00">0.32</text>
</g>
<!-- BB2 -->
<g id="node3" class="node">
<title>BB2</title>
<ellipse fill="none" stroke="black" cx="42.43" cy="-116.61" rx="42.35" ry="26.74"/>
<text text-anchor="middle" x="42.43" y="-120.41" font-family="Times New Roman,serif" font-size="14.00">[10..1c)</text>
<text text-anchor="middle" x="42.43" y="-105.41" font-family="Times New Roman,serif" font-size="14.00">0.03</text>
</g>
<!-- BB1&#45;&gt;BB2 -->
<g id="edge3" class="edge">
<title>BB1&#45;&gt;BB2</title>
<path fill="none" stroke="black" d="M68.92,-180.44C65.24,-171.72 61.04,-161.76 57.09,-152.37"/>
<polygon fill="black" stroke="black" points="60.2,-150.74 53.08,-142.89 53.75,-153.46 60.2,-150.74"/>
</g>
<!-- BB4 -->
<g id="node5" class="node">
<title>BB4</title>
<ellipse fill="none" stroke="black" cx="144.43" cy="-116.61" rx="41.94" ry="26.74"/>
<text text-anchor="middle" x="144.43" y="-120.41" font-family="Times New Roman,serif" font-size="14.00">[1e..22)</text>
<text text-anchor="middle" x="144.43" y="-105.41" font-family="Times New Roman,serif" font-size="14.00">0.31</text>
</g>
<!-- BB1&#45;&gt;BB4 -->
<g id="edge2" class="edge">
<title>BB1&#45;&gt;BB4</title>
<path fill="none" stroke="black" d="M96.5,-182.3C104,-172.18 112.92,-160.15 121.01,-149.21"/>
<polygon fill="black" stroke="black" points="123.87,-151.24 127.01,-141.12 118.25,-147.07 123.87,-151.24"/>
</g>
<!-- BB3 -->
<g id="node4" class="node">
<title>BB3</title>
<ellipse fill="none" stroke="black" cx="42.43" cy="-26.87" rx="41.94" ry="26.74"/>
<text text-anchor="middle" x="42.43" y="-30.67" font-family="Times New Roman,serif" font-size="14.00">[1c..1e)</text>
<text text-anchor="middle" x="42.43" y="-15.67" font-family="Times New Roman,serif" font-size="14.00">0.01</text>
</g>
<!-- BB2&#45;&gt;BB3 -->
<g id="edge5" class="edge">
<title>BB2&#45;&gt;BB3</title>
<path fill="none" stroke="black" d="M42.43,-89.29C42.43,-81.32 42.43,-72.43 42.43,-63.94"/>
<polygon fill="black" stroke="black" points="45.93,-63.87 42.43,-53.87 38.93,-63.87 45.93,-63.87"/>
</g>
<!-- BB2&#45;&gt;BB4 -->
<g id="edge4" class="edge">
<title>BB2&#45;&gt;BB4</title>
<path fill="none" stroke="black" d="M85.06,-116.61C87.54,-116.61 90.02,-116.61 92.49,-116.61"/>
<polygon fill="black" stroke="black" points="92.68,-120.11 102.68,-116.61 92.68,-113.11 92.68,-120.11"/>
</g>
<!-- BB4&#45;&gt;BB5 -->
<g id="edge6" class="edge">
<title>BB4&#45;&gt;BB5</title>
<path fill="none" stroke="black" d="M144.43,-143.62C144.43,-174.03 144.43,-224.58 144.43,-258.83"/>
<polygon fill="black" stroke="black" points="140.93,-258.9 144.43,-268.9 147.93,-258.9 140.93,-258.9"/>
</g>
<!-- BB5&#45;&gt;BB1 -->
<g id="edge7" class="edge">
<title>BB5&#45;&gt;BB1</title>
<path fill="none" stroke="black" d="M126.66,-271.12C119.25,-261.11 110.54,-249.34 102.63,-238.67"/>
<polygon fill="black" stroke="black" points="105.26,-236.34 96.49,-230.39 99.63,-240.51 105.26,-236.34"/>
</g>
<!-- BB6 -->
<g id="node7" class="node">
<title>BB6</title>
<ellipse fill="none" stroke="black" cx="214.43" cy="-206.35" rx="41.94" ry="26.74"/>
<text text-anchor="middle" x="214.43" y="-210.15" font-family="Times New Roman,serif" font-size="14.00">[2d..2f)</text>
<text text-anchor="middle" x="214.43" y="-195.15" font-family="Times New Roman,serif" font-size="14.00">0.00</text>
</g>
<!-- BB5&#45;&gt;BB6 -->
<g id="edge8" class="edge">
<title>BB5&#45;&gt;BB6</title>
<path fill="none" stroke="black" d="M163.19,-271.58C171.25,-261.47 180.8,-249.5 189.45,-238.65"/>
<polygon fill="black" stroke="black" points="192.36,-240.62 195.86,-230.62 186.89,-236.26 192.36,-240.62"/>
</g>
</g>
</svg>
