<?xml version="1.0" encoding="UTF-8" standalone="no"?>
<!DOCTYPE svg PUBLIC "-//W3C//DTD SVG 1.1//EN"
 "http://www.w3.org/Graphics/SVG/1.1/DTD/svg11.dtd">
<!-- Generated by graphviz version 2.47.0 (20210316.0004)
 -->
<!-- Title: G Pages: 1 -->
<svg width="1274pt" height="1426pt"
 viewBox="0.00 0.00 1274.42 1425.83" xmlns="http://www.w3.org/2000/svg" xmlns:xlink="http://www.w3.org/1999/xlink">
<g id="graph0" class="graph" transform="scale(1 1) rotate(0) translate(4 1421.83)">
<title>G</title>
<polygon fill="white" stroke="transparent" points="-4,4 -4,-1421.83 1270.42,-1421.83 1270.42,4 -4,4"/>
<!-- BB0 -->
<g id="node1" class="node">
<title>BB0</title>
<ellipse fill="none" stroke="black" cx="826.19" cy="-1369.75" rx="103.48" ry="48.17"/>
<text text-anchor="middle" x="826.19" y="-1388.55" font-family="Times New Roman,serif" font-size="14.00">[0..27)</text>
<text text-anchor="middle" x="826.19" y="-1373.55" font-family="Times New Roman,serif" font-size="14.00">Count: 2</text>
<text text-anchor="middle" x="826.19" y="-1358.55" font-family="Times New Roman,serif" font-size="14.00">Normalized count: 1.00</text>
<text text-anchor="middle" x="826.19" y="-1343.55" font-family="Times New Roman,serif" font-size="14.00">Samples weight: 0.00</text>
</g>
<!-- BB2 -->
<g id="node3" class="node">
<title>BB2</title>
<ellipse fill="none" stroke="black" cx="826.19" cy="-1237.58" rx="103.48" ry="48.17"/>
<text text-anchor="middle" x="826.19" y="-1256.38" font-family="Times New Roman,serif" font-size="14.00">[3f..44)</text>
<text text-anchor="middle" x="826.19" y="-1241.38" font-family="Times New Roman,serif" font-size="14.00">Count: 2</text>
<text text-anchor="middle" x="826.19" y="-1226.38" font-family="Times New Roman,serif" font-size="14.00">Normalized count: 1.00</text>
<text text-anchor="middle" x="826.19" y="-1211.38" font-family="Times New Roman,serif" font-size="14.00">Samples weight: 0.00</text>
</g>
<!-- BB0&#45;&gt;BB2 -->
<g id="edge1" class="edge">
<title>BB0&#45;&gt;BB2</title>
<path fill="none" stroke="black" d="M826.19,-1321.39C826.19,-1313.12 826.19,-1304.44 826.19,-1295.93"/>
<polygon fill="black" stroke="black" points="829.69,-1295.69 826.19,-1285.69 822.69,-1295.69 829.69,-1295.69"/>
</g>
<!-- BB1 -->
<g id="node2" class="node">
<title>BB1</title>
<ellipse fill="none" stroke="black" cx="826.19" cy="-1105.42" rx="103.48" ry="48.17"/>
<text text-anchor="middle" x="826.19" y="-1124.22" font-family="Times New Roman,serif" font-size="14.00">[27..3f)</text>
<text text-anchor="middle" x="826.19" y="-1109.22" font-family="Times New Roman,serif" font-size="14.00">Count: 0</text>
<text text-anchor="middle" x="826.19" y="-1094.22" font-family="Times New Roman,serif" font-size="14.00">Normalized count: 0.00</text>
<text text-anchor="middle" x="826.19" y="-1079.22" font-family="Times New Roman,serif" font-size="14.00">Samples weight: 0.00</text>
</g>
<!-- BB1&#45;&gt;BB2 -->
<g id="edge2" class="edge">
<title>BB1&#45;&gt;BB2</title>
<path fill="none" stroke="black" d="M832.71,-1153.78C832.93,-1162.07 832.99,-1170.78 832.89,-1179.31"/>
<polygon fill="black" stroke="black" points="829.39,-1179.52 832.7,-1189.59 836.39,-1179.66 829.39,-1179.52"/>
</g>
<!-- BB2&#45;&gt;BB1 -->
<g id="edge3" class="edge">
<title>BB2&#45;&gt;BB1</title>
<path fill="none" stroke="black" d="M819.67,-1189.59C819.45,-1181.21 819.38,-1172.41 819.48,-1163.78"/>
<polygon fill="black" stroke="black" points="822.98,-1163.84 819.66,-1153.78 815.98,-1163.71 822.98,-1163.84"/>
</g>
<!-- BB3 -->
<g id="node4" class="node">
<title>BB3</title>
<ellipse fill="none" stroke="black" cx="1055.19" cy="-1105.42" rx="108.38" ry="48.17"/>
<text text-anchor="middle" x="1055.19" y="-1124.22" font-family="Times New Roman,serif" font-size="14.00">[44..50)</text>
<text text-anchor="middle" x="1055.19" y="-1109.22" font-family="Times New Roman,serif" font-size="14.00">Count: 50</text>
<text text-anchor="middle" x="1055.19" y="-1094.22" font-family="Times New Roman,serif" font-size="14.00">Normalized count: 25.00</text>
<text text-anchor="middle" x="1055.19" y="-1079.22" font-family="Times New Roman,serif" font-size="14.00">Samples weight: 0.03</text>
</g>
<!-- BB2&#45;&gt;BB3 -->
<g id="edge4" class="edge">
<title>BB2&#45;&gt;BB3</title>
<path fill="none" stroke="black" d="M890.59,-1199.98C918.52,-1184.1 951.41,-1165.4 980.42,-1148.92"/>
<polygon fill="black" stroke="black" points="982.32,-1151.86 989.28,-1143.88 978.86,-1145.77 982.32,-1151.86"/>
</g>
<!-- BB4 -->
<g id="node5" class="node">
<title>BB4</title>
<ellipse fill="none" stroke="black" cx="547.19" cy="-973.25" rx="108.38" ry="48.17"/>
<text text-anchor="middle" x="547.19" y="-992.05" font-family="Times New Roman,serif" font-size="14.00">[50..55)</text>
<text text-anchor="middle" x="547.19" y="-977.05" font-family="Times New Roman,serif" font-size="14.00">Count: 48</text>
<text text-anchor="middle" x="547.19" y="-962.05" font-family="Times New Roman,serif" font-size="14.00">Normalized count: 24.00</text>
<text text-anchor="middle" x="547.19" y="-947.05" font-family="Times New Roman,serif" font-size="14.00">Samples weight: 0.03</text>
</g>
<!-- BB3&#45;&gt;BB4 -->
<g id="edge6" class="edge">
<title>BB3&#45;&gt;BB4</title>
<path fill="none" stroke="black" d="M979.27,-1070.94C965.77,-1065.83 951.7,-1061.04 938.19,-1057.33 836.71,-1029.51 806.83,-1044.5 704.19,-1021.33 684.27,-1016.84 663.18,-1011.16 643.15,-1005.32"/>
<polygon fill="black" stroke="black" points="643.99,-1001.92 633.4,-1002.45 642,-1008.63 643.99,-1001.92"/>
</g>
<!-- BB15 -->
<g id="node16" class="node">
<title>BB15</title>
<ellipse fill="none" stroke="black" cx="821.19" cy="-973.25" rx="108.38" ry="48.17"/>
<text text-anchor="middle" x="821.19" y="-992.05" font-family="Times New Roman,serif" font-size="14.00">[d0..d4)</text>
<text text-anchor="middle" x="821.19" y="-977.05" font-family="Times New Roman,serif" font-size="14.00">Count: 50</text>
<text text-anchor="middle" x="821.19" y="-962.05" font-family="Times New Roman,serif" font-size="14.00">Normalized count: 25.00</text>
<text text-anchor="middle" x="821.19" y="-947.05" font-family="Times New Roman,serif" font-size="14.00">Samples weight: 0.03</text>
</g>
<!-- BB3&#45;&gt;BB15 -->
<g id="edge5" class="edge">
<title>BB3&#45;&gt;BB15</title>
<path fill="none" stroke="black" d="M988.76,-1067.46C960.1,-1051.52 926.44,-1032.8 896.83,-1016.33"/>
<polygon fill="black" stroke="black" points="898.22,-1013.1 887.78,-1011.29 894.82,-1019.21 898.22,-1013.1"/>
</g>
<!-- BB6 -->
<g id="node7" class="node">
<title>BB6</title>
<ellipse fill="none" stroke="black" cx="506.19" cy="-841.08" rx="113.27" ry="48.17"/>
<text text-anchor="middle" x="506.19" y="-859.88" font-family="Times New Roman,serif" font-size="14.00">[63..68)</text>
<text text-anchor="middle" x="506.19" y="-844.88" font-family="Times New Roman,serif" font-size="14.00">Count: 212</text>
<text text-anchor="middle" x="506.19" y="-829.88" font-family="Times New Roman,serif" font-size="14.00">Normalized count: 106.00</text>
<text text-anchor="middle" x="506.19" y="-814.88" font-family="Times New Roman,serif" font-size="14.00">Samples weight: 0.12</text>
</g>
<!-- BB4&#45;&gt;BB6 -->
<g id="edge7" class="edge">
<title>BB4&#45;&gt;BB6</title>
<path fill="none" stroke="black" d="M532.39,-925.26C529.66,-916.59 526.78,-907.46 523.98,-898.56"/>
<polygon fill="black" stroke="black" points="527.31,-897.49 520.97,-889.01 520.63,-899.6 527.31,-897.49"/>
</g>
<!-- BB5 -->
<g id="node6" class="node">
<title>BB5</title>
<ellipse fill="none" stroke="black" cx="509.19" cy="-708.92" rx="108.38" ry="48.17"/>
<text text-anchor="middle" x="509.19" y="-727.72" font-family="Times New Roman,serif" font-size="14.00">[55..63)</text>
<text text-anchor="middle" x="509.19" y="-712.72" font-family="Times New Roman,serif" font-size="14.00">Count: 164</text>
<text text-anchor="middle" x="509.19" y="-697.72" font-family="Times New Roman,serif" font-size="14.00">Normalized count: 82.00</text>
<text text-anchor="middle" x="509.19" y="-682.72" font-family="Times New Roman,serif" font-size="14.00">Samples weight: 0.10</text>
</g>
<!-- BB5&#45;&gt;BB6 -->
<g id="edge8" class="edge">
<title>BB5&#45;&gt;BB6</title>
<path fill="none" stroke="black" d="M514.62,-757.28C514.65,-765.66 514.5,-774.48 514.2,-783.1"/>
<polygon fill="black" stroke="black" points="510.71,-782.95 513.78,-793.09 517.7,-783.25 510.71,-782.95"/>
</g>
<!-- BB6&#45;&gt;BB5 -->
<g id="edge9" class="edge">
<title>BB6&#45;&gt;BB5</title>
<path fill="none" stroke="black" d="M500.76,-792.72C500.73,-784.45 500.87,-775.77 501.16,-767.27"/>
<polygon fill="black" stroke="black" points="504.67,-767.16 501.59,-757.02 497.67,-766.87 504.67,-767.16"/>
</g>
<!-- BB7 -->
<g id="node8" class="node">
<title>BB7</title>
<ellipse fill="none" stroke="black" cx="275.19" cy="-708.92" rx="108.38" ry="48.17"/>
<text text-anchor="middle" x="275.19" y="-727.72" font-family="Times New Roman,serif" font-size="14.00">[68..6b)</text>
<text text-anchor="middle" x="275.19" y="-712.72" font-family="Times New Roman,serif" font-size="14.00">Count: 48</text>
<text text-anchor="middle" x="275.19" y="-697.72" font-family="Times New Roman,serif" font-size="14.00">Normalized count: 24.00</text>
<text text-anchor="middle" x="275.19" y="-682.72" font-family="Times New Roman,serif" font-size="14.00">Samples weight: 0.03</text>
</g>
<!-- BB6&#45;&gt;BB7 -->
<g id="edge10" class="edge">
<title>BB6&#45;&gt;BB7</title>
<path fill="none" stroke="black" d="M439.06,-802.26C411.18,-786.54 378.7,-768.24 350.04,-752.1"/>
<polygon fill="black" stroke="black" points="351.71,-749.02 341.28,-747.16 348.28,-755.12 351.71,-749.02"/>
</g>
<!-- BB8 -->
<g id="node9" class="node">
<title>BB8</title>
<ellipse fill="none" stroke="black" cx="328.19" cy="-576.75" rx="108.38" ry="48.17"/>
<text text-anchor="middle" x="328.19" y="-595.55" font-family="Times New Roman,serif" font-size="14.00">[6b..75)</text>
<text text-anchor="middle" x="328.19" y="-580.55" font-family="Times New Roman,serif" font-size="14.00">Count: 198</text>
<text text-anchor="middle" x="328.19" y="-565.55" font-family="Times New Roman,serif" font-size="14.00">Normalized count: 99.00</text>
<text text-anchor="middle" x="328.19" y="-550.55" font-family="Times New Roman,serif" font-size="14.00">Samples weight: 0.12</text>
</g>
<!-- BB7&#45;&gt;BB8 -->
<g id="edge11" class="edge">
<title>BB7&#45;&gt;BB8</title>
<path fill="none" stroke="black" d="M294.17,-661.29C297.79,-652.41 301.61,-643.03 305.33,-633.89"/>
<polygon fill="black" stroke="black" points="308.63,-635.07 309.16,-624.49 302.14,-632.43 308.63,-635.07"/>
</g>
<!-- BB9 -->
<g id="node10" class="node">
<title>BB9</title>
<ellipse fill="none" stroke="black" cx="549.19" cy="-444.58" rx="108.38" ry="48.17"/>
<text text-anchor="middle" x="549.19" y="-463.38" font-family="Times New Roman,serif" font-size="14.00">[75..84)</text>
<text text-anchor="middle" x="549.19" y="-448.38" font-family="Times New Roman,serif" font-size="14.00">Count: 48</text>
<text text-anchor="middle" x="549.19" y="-433.38" font-family="Times New Roman,serif" font-size="14.00">Normalized count: 24.00</text>
<text text-anchor="middle" x="549.19" y="-418.38" font-family="Times New Roman,serif" font-size="14.00">Samples weight: 0.03</text>
</g>
<!-- BB8&#45;&gt;BB9 -->
<g id="edge13" class="edge">
<title>BB8&#45;&gt;BB9</title>
<path fill="none" stroke="black" d="M392.41,-537.92C418.63,-522.48 449.09,-504.54 476.15,-488.6"/>
<polygon fill="black" stroke="black" points="477.97,-491.59 484.81,-483.5 474.42,-485.56 477.97,-491.59"/>
</g>
<!-- BB11 -->
<g id="node12" class="node">
<title>BB11</title>
<ellipse fill="none" stroke="black" cx="206.19" cy="-444.58" rx="108.38" ry="48.17"/>
<text text-anchor="middle" x="206.19" y="-463.38" font-family="Times New Roman,serif" font-size="14.00">[8a..95)</text>
<text text-anchor="middle" x="206.19" y="-448.38" font-family="Times New Roman,serif" font-size="14.00">Count: 150</text>
<text text-anchor="middle" x="206.19" y="-433.38" font-family="Times New Roman,serif" font-size="14.00">Normalized count: 75.00</text>
<text text-anchor="middle" x="206.19" y="-418.38" font-family="Times New Roman,serif" font-size="14.00">Samples weight: 0.09</text>
</g>
<!-- BB8&#45;&gt;BB11 -->
<g id="edge12" class="edge">
<title>BB8&#45;&gt;BB11</title>
<path fill="none" stroke="black" d="M287.22,-532.04C276.66,-520.77 265.2,-508.54 254.31,-496.93"/>
<polygon fill="black" stroke="black" points="256.64,-494.3 247.25,-489.39 251.54,-499.08 256.64,-494.3"/>
</g>
<!-- BB10 -->
<g id="node11" class="node">
<title>BB10</title>
<ellipse fill="none" stroke="black" cx="598.19" cy="-312.42" rx="103.48" ry="48.17"/>
<text text-anchor="middle" x="598.19" y="-331.22" font-family="Times New Roman,serif" font-size="14.00">[84..8a)</text>
<text text-anchor="middle" x="598.19" y="-316.22" font-family="Times New Roman,serif" font-size="14.00">Count: 0</text>
<text text-anchor="middle" x="598.19" y="-301.22" font-family="Times New Roman,serif" font-size="14.00">Normalized count: 0.00</text>
<text text-anchor="middle" x="598.19" y="-286.22" font-family="Times New Roman,serif" font-size="14.00">Samples weight: 0.00</text>
</g>
<!-- BB9&#45;&gt;BB10 -->
<g id="edge15" class="edge">
<title>BB9&#45;&gt;BB10</title>
<path fill="none" stroke="black" d="M566.74,-396.96C570.08,-388.08 573.61,-378.7 577.05,-369.56"/>
<polygon fill="black" stroke="black" points="580.35,-370.75 580.59,-360.15 573.79,-368.28 580.35,-370.75"/>
</g>
<!-- BB9&#45;&gt;BB15 -->
<g id="edge14" class="edge">
<title>BB9&#45;&gt;BB15</title>
<path fill="none" stroke="black" d="M568.05,-491.97C585.06,-535.13 609.83,-601.53 626.19,-660.83 653.68,-760.54 610.27,-805.58 671.19,-889.17 685.9,-909.36 707.1,-925.24 728.93,-937.47"/>
<polygon fill="black" stroke="black" points="727.51,-940.68 737.98,-942.32 730.82,-934.51 727.51,-940.68"/>
</g>
<!-- BB10&#45;&gt;BB15 -->
<g id="edge16" class="edge">
<title>BB10&#45;&gt;BB15</title>
<path fill="none" stroke="black" d="M641.21,-356.4C650.98,-368.47 660.22,-382.22 666.19,-396.5 697.07,-470.42 685.19,-495.64 685.19,-575.75 685.19,-709.92 685.19,-709.92 685.19,-709.92 685.19,-790.03 663.73,-820.02 704.19,-889.17 713.58,-905.22 727.45,-918.98 742.39,-930.41"/>
<polygon fill="black" stroke="black" points="740.63,-933.46 750.77,-936.53 744.75,-927.81 740.63,-933.46"/>
</g>
<!-- BB12 -->
<g id="node13" class="node">
<title>BB12</title>
<ellipse fill="none" stroke="black" cx="108.19" cy="-312.42" rx="108.38" ry="48.17"/>
<text text-anchor="middle" x="108.19" y="-331.22" font-family="Times New Roman,serif" font-size="14.00">[95..9e)</text>
<text text-anchor="middle" x="108.19" y="-316.22" font-family="Times New Roman,serif" font-size="14.00">Count: 21</text>
<text text-anchor="middle" x="108.19" y="-301.22" font-family="Times New Roman,serif" font-size="14.00">Normalized count: 10.50</text>
<text text-anchor="middle" x="108.19" y="-286.22" font-family="Times New Roman,serif" font-size="14.00">Samples weight: 0.01</text>
</g>
<!-- BB11&#45;&gt;BB12 -->
<g id="edge18" class="edge">
<title>BB11&#45;&gt;BB12</title>
<path fill="none" stroke="black" d="M172.46,-398.79C164.61,-388.36 156.17,-377.15 148.08,-366.4"/>
<polygon fill="black" stroke="black" points="150.79,-364.18 141.98,-358.29 145.19,-368.39 150.79,-364.18"/>
</g>
<!-- BB14 -->
<g id="node15" class="node">
<title>BB14</title>
<ellipse fill="none" stroke="black" cx="342.19" cy="-312.42" rx="108.38" ry="48.17"/>
<text text-anchor="middle" x="342.19" y="-331.22" font-family="Times New Roman,serif" font-size="14.00">[c4..d0)</text>
<text text-anchor="middle" x="342.19" y="-316.22" font-family="Times New Roman,serif" font-size="14.00">Count: 150</text>
<text text-anchor="middle" x="342.19" y="-301.22" font-family="Times New Roman,serif" font-size="14.00">Normalized count: 75.00</text>
<text text-anchor="middle" x="342.19" y="-286.22" font-family="Times New Roman,serif" font-size="14.00">Samples weight: 0.09</text>
</g>
<!-- BB11&#45;&gt;BB14 -->
<g id="edge17" class="edge">
<title>BB11&#45;&gt;BB14</title>
<path fill="none" stroke="black" d="M251.1,-400.6C263.51,-388.72 277.1,-375.71 289.9,-363.46"/>
<polygon fill="black" stroke="black" points="292.52,-365.8 297.33,-356.35 287.68,-360.74 292.52,-365.8"/>
</g>
<!-- BB13 -->
<g id="node14" class="node">
<title>BB13</title>
<ellipse fill="none" stroke="black" cx="225.19" cy="-180.25" rx="113.27" ry="48.17"/>
<text text-anchor="middle" x="225.19" y="-199.05" font-family="Times New Roman,serif" font-size="14.00">[9e..c4)</text>
<text text-anchor="middle" x="225.19" y="-184.05" font-family="Times New Roman,serif" font-size="14.00">Count: 371</text>
<text text-anchor="middle" x="225.19" y="-169.05" font-family="Times New Roman,serif" font-size="14.00">Normalized count: 185.50</text>
<text text-anchor="middle" x="225.19" y="-154.05" font-family="Times New Roman,serif" font-size="14.00">Samples weight: 0.22</text>
</g>
<!-- BB12&#45;&gt;BB13 -->
<g id="edge19" class="edge">
<title>BB12&#45;&gt;BB13</title>
<path fill="none" stroke="black" d="M147.8,-267.35C157.6,-256.44 168.2,-244.65 178.31,-233.4"/>
<polygon fill="black" stroke="black" points="181.14,-235.49 185.22,-225.72 175.93,-230.81 181.14,-235.49"/>
</g>
<!-- BB13&#45;&gt;BB13 -->
<g id="edge20" class="edge">
<title>BB13&#45;&gt;BB13</title>
<path fill="none" stroke="black" d="M323.84,-203.86C342.85,-201.07 356.32,-193.2 356.32,-180.25 356.32,-169.72 347.43,-162.56 333.9,-158.74"/>
<polygon fill="black" stroke="black" points="334.34,-155.26 323.84,-156.64 332.91,-162.11 334.34,-155.26"/>
</g>
<!-- BB13&#45;&gt;BB14 -->
<g id="edge21" class="edge">
<title>BB13&#45;&gt;BB14</title>
<path fill="none" stroke="black" d="M265.16,-225.72C274.98,-236.64 285.58,-248.44 295.68,-259.67"/>
<polygon fill="black" stroke="black" points="293.29,-262.25 302.58,-267.35 298.49,-257.57 293.29,-262.25"/>
</g>
<!-- BB14&#45;&gt;BB8 -->
<g id="edge22" class="edge">
<title>BB14&#45;&gt;BB8</title>
<path fill="none" stroke="black" d="M339.66,-360.68C337.3,-404.96 333.77,-471.21 331.24,-518.47"/>
<polygon fill="black" stroke="black" points="327.74,-518.37 330.71,-528.55 334.73,-518.75 327.74,-518.37"/>
</g>
<!-- BB16 -->
<g id="node17" class="node">
<title>BB16</title>
<ellipse fill="none" stroke="black" cx="1055.19" cy="-841.08" rx="108.38" ry="48.17"/>
<text text-anchor="middle" x="1055.19" y="-859.88" font-family="Times New Roman,serif" font-size="14.00">[d4..eb)</text>
<text text-anchor="middle" x="1055.19" y="-844.88" font-family="Times New Roman,serif" font-size="14.00">Count: 30</text>
<text text-anchor="middle" x="1055.19" y="-829.88" font-family="Times New Roman,serif" font-size="14.00">Normalized count: 15.00</text>
<text text-anchor="middle" x="1055.19" y="-814.88" font-family="Times New Roman,serif" font-size="14.00">Samples weight: 0.02</text>
</g>
<!-- BB15&#45;&gt;BB16 -->
<g id="edge24" class="edge">
<title>BB15&#45;&gt;BB16</title>
<path fill="none" stroke="black" d="M887.62,-935.3C916.27,-919.36 949.93,-900.63 979.54,-884.16"/>
<polygon fill="black" stroke="black" points="981.55,-887.05 988.59,-879.13 978.15,-880.93 981.55,-887.05"/>
</g>
<!-- BB17 -->
<g id="node18" class="node">
<title>BB17</title>
<ellipse fill="none" stroke="black" cx="821.19" cy="-841.08" rx="108.38" ry="48.17"/>
<text text-anchor="middle" x="821.19" y="-859.88" font-family="Times New Roman,serif" font-size="14.00">[eb..102)</text>
<text text-anchor="middle" x="821.19" y="-844.88" font-family="Times New Roman,serif" font-size="14.00">Count: 20</text>
<text text-anchor="middle" x="821.19" y="-829.88" font-family="Times New Roman,serif" font-size="14.00">Normalized count: 10.00</text>
<text text-anchor="middle" x="821.19" y="-814.88" font-family="Times New Roman,serif" font-size="14.00">Samples weight: 0.01</text>
</g>
<!-- BB15&#45;&gt;BB17 -->
<g id="edge23" class="edge">
<title>BB15&#45;&gt;BB17</title>
<path fill="none" stroke="black" d="M821.19,-924.89C821.19,-916.62 821.19,-907.94 821.19,-899.43"/>
<polygon fill="black" stroke="black" points="824.69,-899.19 821.19,-889.19 817.69,-899.19 824.69,-899.19"/>
</g>
<!-- BB16&#45;&gt;BB3 -->
<g id="edge25" class="edge">
<title>BB16&#45;&gt;BB3</title>
<path fill="none" stroke="black" d="M1055.19,-889.35C1055.19,-933.62 1055.19,-999.87 1055.19,-1047.13"/>
<polygon fill="black" stroke="black" points="1051.69,-1047.21 1055.19,-1057.21 1058.69,-1047.21 1051.69,-1047.21"/>
</g>
<!-- BB26 -->
<g id="node27" class="node">
<title>BB26</title>
<ellipse fill="none" stroke="black" cx="848.19" cy="-708.92" rx="108.38" ry="48.17"/>
<text text-anchor="middle" x="848.19" y="-727.72" font-family="Times New Roman,serif" font-size="14.00">[164..169)</text>
<text text-anchor="middle" x="848.19" y="-712.72" font-family="Times New Roman,serif" font-size="14.00">Count: 28</text>
<text text-anchor="middle" x="848.19" y="-697.72" font-family="Times New Roman,serif" font-size="14.00">Normalized count: 14.00</text>
<text text-anchor="middle" x="848.19" y="-682.72" font-family="Times New Roman,serif" font-size="14.00">Samples weight: 0.02</text>
</g>
<!-- BB17&#45;&gt;BB26 -->
<g id="edge26" class="edge">
<title>BB17&#45;&gt;BB26</title>
<path fill="none" stroke="black" d="M830.93,-793.09C832.71,-784.52 834.59,-775.49 836.41,-766.67"/>
<polygon fill="black" stroke="black" points="839.85,-767.34 838.45,-756.84 833,-765.92 839.85,-767.34"/>
</g>
<!-- BB18 -->
<g id="node19" class="node">
<title>BB18</title>
<ellipse fill="none" stroke="black" cx="874.19" cy="-576.75" rx="103.48" ry="48.17"/>
<text text-anchor="middle" x="874.19" y="-595.55" font-family="Times New Roman,serif" font-size="14.00">[102..10c)</text>
<text text-anchor="middle" x="874.19" y="-580.55" font-family="Times New Roman,serif" font-size="14.00">Count: 16</text>
<text text-anchor="middle" x="874.19" y="-565.55" font-family="Times New Roman,serif" font-size="14.00">Normalized count: 8.00</text>
<text text-anchor="middle" x="874.19" y="-550.55" font-family="Times New Roman,serif" font-size="14.00">Samples weight: 0.01</text>
</g>
<!-- BB19 -->
<g id="node20" class="node">
<title>BB19</title>
<ellipse fill="none" stroke="black" cx="1163.19" cy="-444.58" rx="103.48" ry="48.17"/>
<text text-anchor="middle" x="1163.19" y="-463.38" font-family="Times New Roman,serif" font-size="14.00">[10c..119)</text>
<text text-anchor="middle" x="1163.19" y="-448.38" font-family="Times New Roman,serif" font-size="14.00">Count: 6</text>
<text text-anchor="middle" x="1163.19" y="-433.38" font-family="Times New Roman,serif" font-size="14.00">Normalized count: 3.00</text>
<text text-anchor="middle" x="1163.19" y="-418.38" font-family="Times New Roman,serif" font-size="14.00">Samples weight: 0.00</text>
</g>
<!-- BB18&#45;&gt;BB19 -->
<g id="edge28" class="edge">
<title>BB18&#45;&gt;BB19</title>
<path fill="none" stroke="black" d="M947.49,-542.73C988.06,-524.46 1038.63,-501.68 1080.6,-482.78"/>
<polygon fill="black" stroke="black" points="1082.28,-485.86 1089.96,-478.56 1079.41,-479.48 1082.28,-485.86"/>
</g>
<!-- BB20 -->
<g id="node21" class="node">
<title>BB20</title>
<ellipse fill="none" stroke="black" cx="874.19" cy="-444.58" rx="103.48" ry="48.17"/>
<text text-anchor="middle" x="874.19" y="-463.38" font-family="Times New Roman,serif" font-size="14.00">[119..11f)</text>
<text text-anchor="middle" x="874.19" y="-448.38" font-family="Times New Roman,serif" font-size="14.00">Count: 10</text>
<text text-anchor="middle" x="874.19" y="-433.38" font-family="Times New Roman,serif" font-size="14.00">Normalized count: 5.00</text>
<text text-anchor="middle" x="874.19" y="-418.38" font-family="Times New Roman,serif" font-size="14.00">Samples weight: 0.01</text>
</g>
<!-- BB18&#45;&gt;BB20 -->
<g id="edge27" class="edge">
<title>BB18&#45;&gt;BB20</title>
<path fill="none" stroke="black" d="M874.19,-528.39C874.19,-520.12 874.19,-511.44 874.19,-502.93"/>
<polygon fill="black" stroke="black" points="877.69,-502.69 874.19,-492.69 870.69,-502.69 877.69,-502.69"/>
</g>
<!-- BB19&#45;&gt;BB3 -->
<g id="edge29" class="edge">
<title>BB19&#45;&gt;BB3</title>
<path fill="none" stroke="black" d="M1193.06,-490.62C1199.73,-502.55 1206.04,-515.73 1210.19,-528.67 1234.64,-604.96 1229.19,-627.8 1229.19,-707.92 1229.19,-842.08 1229.19,-842.08 1229.19,-842.08 1229.19,-929.14 1201.74,-951.17 1150.19,-1021.33 1140.93,-1033.93 1129.45,-1045.97 1117.71,-1056.77"/>
<polygon fill="black" stroke="black" points="1115.1,-1054.41 1109.97,-1063.68 1119.76,-1059.63 1115.1,-1054.41"/>
</g>
<!-- BB21 -->
<g id="node22" class="node">
<title>BB21</title>
<ellipse fill="none" stroke="black" cx="874.19" cy="-312.42" rx="103.48" ry="48.17"/>
<text text-anchor="middle" x="874.19" y="-331.22" font-family="Times New Roman,serif" font-size="14.00">[11f..130)</text>
<text text-anchor="middle" x="874.19" y="-316.22" font-family="Times New Roman,serif" font-size="14.00">Count: 2</text>
<text text-anchor="middle" x="874.19" y="-301.22" font-family="Times New Roman,serif" font-size="14.00">Normalized count: 1.00</text>
<text text-anchor="middle" x="874.19" y="-286.22" font-family="Times New Roman,serif" font-size="14.00">Samples weight: 0.00</text>
</g>
<!-- BB20&#45;&gt;BB21 -->
<g id="edge31" class="edge">
<title>BB20&#45;&gt;BB21</title>
<path fill="none" stroke="black" d="M874.19,-396.22C874.19,-387.95 874.19,-379.27 874.19,-370.77"/>
<polygon fill="black" stroke="black" points="877.69,-370.52 874.19,-360.52 870.69,-370.52 877.69,-370.52"/>
</g>
<!-- BB22 -->
<g id="node23" class="node">
<title>BB22</title>
<ellipse fill="none" stroke="black" cx="1098.19" cy="-312.42" rx="103.48" ry="48.17"/>
<text text-anchor="middle" x="1098.19" y="-331.22" font-family="Times New Roman,serif" font-size="14.00">[130..140)</text>
<text text-anchor="middle" x="1098.19" y="-316.22" font-family="Times New Roman,serif" font-size="14.00">Count: 8</text>
<text text-anchor="middle" x="1098.19" y="-301.22" font-family="Times New Roman,serif" font-size="14.00">Normalized count: 4.00</text>
<text text-anchor="middle" x="1098.19" y="-286.22" font-family="Times New Roman,serif" font-size="14.00">Samples weight: 0.00</text>
</g>
<!-- BB20&#45;&gt;BB22 -->
<g id="edge30" class="edge">
<title>BB20&#45;&gt;BB22</title>
<path fill="none" stroke="black" d="M937.78,-406.63C965.21,-390.69 997.43,-371.97 1025.78,-355.49"/>
<polygon fill="black" stroke="black" points="1027.55,-358.51 1034.44,-350.46 1024.03,-352.46 1027.55,-358.51"/>
</g>
<!-- BB24 -->
<g id="node25" class="node">
<title>BB24</title>
<ellipse fill="none" stroke="black" cx="1066.19" cy="-180.25" rx="108.38" ry="48.17"/>
<text text-anchor="middle" x="1066.19" y="-199.05" font-family="Times New Roman,serif" font-size="14.00">[150..156)</text>
<text text-anchor="middle" x="1066.19" y="-184.05" font-family="Times New Roman,serif" font-size="14.00">Count: 32</text>
<text text-anchor="middle" x="1066.19" y="-169.05" font-family="Times New Roman,serif" font-size="14.00">Normalized count: 16.00</text>
<text text-anchor="middle" x="1066.19" y="-154.05" font-family="Times New Roman,serif" font-size="14.00">Samples weight: 0.02</text>
</g>
<!-- BB22&#45;&gt;BB24 -->
<g id="edge32" class="edge">
<title>BB22&#45;&gt;BB24</title>
<path fill="none" stroke="black" d="M1086.63,-264.42C1084.53,-255.85 1082.31,-246.83 1080.14,-238.01"/>
<polygon fill="black" stroke="black" points="1083.51,-237.05 1077.72,-228.17 1076.71,-238.72 1083.51,-237.05"/>
</g>
<!-- BB23 -->
<g id="node24" class="node">
<title>BB23</title>
<ellipse fill="none" stroke="black" cx="1066.19" cy="-48.08" rx="108.38" ry="48.17"/>
<text text-anchor="middle" x="1066.19" y="-66.88" font-family="Times New Roman,serif" font-size="14.00">[140..150)</text>
<text text-anchor="middle" x="1066.19" y="-51.88" font-family="Times New Roman,serif" font-size="14.00">Count: 24</text>
<text text-anchor="middle" x="1066.19" y="-36.88" font-family="Times New Roman,serif" font-size="14.00">Normalized count: 12.00</text>
<text text-anchor="middle" x="1066.19" y="-21.88" font-family="Times New Roman,serif" font-size="14.00">Samples weight: 0.01</text>
</g>
<!-- BB23&#45;&gt;BB24 -->
<g id="edge33" class="edge">
<title>BB23&#45;&gt;BB24</title>
<path fill="none" stroke="black" d="M1072.7,-96.19C1072.92,-104.45 1072.99,-113.13 1072.9,-121.64"/>
<polygon fill="black" stroke="black" points="1069.39,-121.83 1072.71,-131.89 1076.39,-121.95 1069.39,-121.83"/>
</g>
<!-- BB24&#45;&gt;BB23 -->
<g id="edge34" class="edge">
<title>BB24&#45;&gt;BB23</title>
<path fill="none" stroke="black" d="M1059.66,-131.89C1059.45,-123.62 1059.39,-114.94 1059.48,-106.43"/>
<polygon fill="black" stroke="black" points="1062.98,-106.26 1059.67,-96.19 1055.98,-106.12 1062.98,-106.26"/>
</g>
<!-- BB25 -->
<g id="node26" class="node">
<title>BB25</title>
<ellipse fill="none" stroke="black" cx="806.19" cy="-48.08" rx="103.48" ry="48.17"/>
<text text-anchor="middle" x="806.19" y="-66.88" font-family="Times New Roman,serif" font-size="14.00">[156..164)</text>
<text text-anchor="middle" x="806.19" y="-51.88" font-family="Times New Roman,serif" font-size="14.00">Count: 8</text>
<text text-anchor="middle" x="806.19" y="-36.88" font-family="Times New Roman,serif" font-size="14.00">Normalized count: 4.00</text>
<text text-anchor="middle" x="806.19" y="-21.88" font-family="Times New Roman,serif" font-size="14.00">Samples weight: 0.00</text>
</g>
<!-- BB24&#45;&gt;BB25 -->
<g id="edge35" class="edge">
<title>BB24&#45;&gt;BB25</title>
<path fill="none" stroke="black" d="M995.48,-143.85C961.25,-126.71 920.04,-106.08 884.82,-88.45"/>
<polygon fill="black" stroke="black" points="886.04,-85.14 875.53,-83.8 882.9,-91.4 886.04,-85.14"/>
</g>
<!-- BB25&#45;&gt;BB26 -->
<g id="edge36" class="edge">
<title>BB25&#45;&gt;BB26</title>
<path fill="none" stroke="black" d="M787.97,-95.66C769.36,-147.49 743.19,-234.13 743.19,-311.42 743.19,-445.58 743.19,-445.58 743.19,-445.58 743.19,-525.7 727.04,-552.84 762.19,-624.83 768.34,-637.44 777.24,-649.19 787.01,-659.64"/>
<polygon fill="black" stroke="black" points="784.75,-662.33 794.25,-667.02 789.74,-657.43 784.75,-662.33"/>
</g>
<!-- BB26&#45;&gt;BB18 -->
<g id="edge37" class="edge">
<title>BB26&#45;&gt;BB18</title>
<path fill="none" stroke="black" d="M857.57,-660.92C859.29,-652.35 861.09,-643.33 862.85,-634.51"/>
<polygon fill="black" stroke="black" points="866.29,-635.17 864.81,-624.67 859.42,-633.79 866.29,-635.17"/>
</g>
<!-- BB27 -->
<g id="node28" class="node">
<title>BB27</title>
<ellipse fill="none" stroke="black" cx="1098.19" cy="-576.75" rx="103.48" ry="48.17"/>
<text text-anchor="middle" x="1098.19" y="-595.55" font-family="Times New Roman,serif" font-size="14.00">[169..16e)</text>
<text text-anchor="middle" x="1098.19" y="-580.55" font-family="Times New Roman,serif" font-size="14.00">Count: 12</text>
<text text-anchor="middle" x="1098.19" y="-565.55" font-family="Times New Roman,serif" font-size="14.00">Normalized count: 6.00</text>
<text text-anchor="middle" x="1098.19" y="-550.55" font-family="Times New Roman,serif" font-size="14.00">Samples weight: 0.01</text>
</g>
<!-- BB26&#45;&gt;BB27 -->
<g id="edge38" class="edge">
<title>BB26&#45;&gt;BB27</title>
<path fill="none" stroke="black" d="M917.49,-671.83C949.59,-655.12 987.85,-635.2 1020.88,-618"/>
<polygon fill="black" stroke="black" points="1022.79,-620.95 1030.04,-613.23 1019.56,-614.74 1022.79,-620.95"/>
</g>
<!-- BB27&#45;&gt;BB3 -->
<g id="edge39" class="edge">
<title>BB27&#45;&gt;BB3</title>
<path fill="none" stroke="black" d="M1123.05,-623.5C1152.89,-684.31 1196.11,-795.05 1172.19,-889.17 1157.09,-948.56 1121.93,-1009.27 1094.07,-1051.02"/>
<polygon fill="black" stroke="black" points="1091.12,-1049.12 1088.42,-1059.37 1096.92,-1053.04 1091.12,-1049.12"/>
</g>
</g>
</svg>
