<?xml version="1.0" encoding="UTF-8" standalone="no"?>
<!DOCTYPE svg PUBLIC "-//W3C//DTD SVG 1.1//EN"
 "http://www.w3.org/Graphics/SVG/1.1/DTD/svg11.dtd">
<!-- Generated by graphviz version 2.47.0 (20210316.0004)
 -->
<!-- Title: G Pages: 1 -->
<svg width="1438pt" height="1192pt"
 viewBox="0.00 0.00 1437.74 1192.49" xmlns="http://www.w3.org/2000/svg" xmlns:xlink="http://www.w3.org/1999/xlink">
<g id="graph0" class="graph" transform="scale(1 1) rotate(0) translate(4 1188.49)">
<title>G</title>
<polygon fill="white" stroke="transparent" points="-4,4 -4,-1188.49 1433.74,-1188.49 1433.74,4 -4,4"/>
<!-- BB0 -->
<g id="node1" class="node">
<title>BB0</title>
<ellipse fill="none" stroke="black" cx="139.97" cy="-1147.01" rx="106.55" ry="37.45"/>
<text text-anchor="middle" x="139.97" y="-1158.31" font-family="Times New Roman,serif" font-size="14.00">[0..1f)</text>
<text text-anchor="middle" x="139.97" y="-1143.31" font-family="Times New Roman,serif" font-size="14.00">Normalized Count: NaN</text>
<text text-anchor="middle" x="139.97" y="-1128.31" font-family="Times New Roman,serif" font-size="14.00">Samples weight: 0.00</text>
</g>
<!-- BB1 -->
<g id="node2" class="node">
<title>BB1</title>
<ellipse fill="none" stroke="black" cx="139.97" cy="-1036.06" rx="106.55" ry="37.45"/>
<text text-anchor="middle" x="139.97" y="-1047.36" font-family="Times New Roman,serif" font-size="14.00">[1f..48)</text>
<text text-anchor="middle" x="139.97" y="-1032.36" font-family="Times New Roman,serif" font-size="14.00">Normalized Count: NaN</text>
<text text-anchor="middle" x="139.97" y="-1017.36" font-family="Times New Roman,serif" font-size="14.00">Samples weight: 0.00</text>
</g>
<!-- BB0&#45;&gt;BB1 -->
<g id="edge1" class="edge">
<title>BB0&#45;&gt;BB1</title>
<path fill="none" stroke="black" d="M139.97,-1109.43C139.97,-1101.25 139.97,-1092.47 139.97,-1083.95"/>
<polygon fill="black" stroke="black" points="143.47,-1083.73 139.97,-1073.73 136.47,-1083.73 143.47,-1083.73"/>
</g>
<!-- BB1&#45;&gt;BB1 -->
<g id="edge2" class="edge">
<title>BB1&#45;&gt;BB1</title>
<path fill="none" stroke="black" d="M230.25,-1056.13C250.21,-1054.24 264.74,-1047.55 264.74,-1036.06 264.74,-1026.63 254.96,-1020.43 240.43,-1017.47"/>
<polygon fill="black" stroke="black" points="240.65,-1013.96 230.25,-1015.99 239.65,-1020.89 240.65,-1013.96"/>
</g>
<!-- BB2 -->
<g id="node3" class="node">
<title>BB2</title>
<ellipse fill="none" stroke="black" cx="139.97" cy="-925.1" rx="106.55" ry="37.45"/>
<text text-anchor="middle" x="139.97" y="-936.4" font-family="Times New Roman,serif" font-size="14.00">[48..6b)</text>
<text text-anchor="middle" x="139.97" y="-921.4" font-family="Times New Roman,serif" font-size="14.00">Normalized Count: NaN</text>
<text text-anchor="middle" x="139.97" y="-906.4" font-family="Times New Roman,serif" font-size="14.00">Samples weight: 0.00</text>
</g>
<!-- BB1&#45;&gt;BB2 -->
<g id="edge3" class="edge">
<title>BB1&#45;&gt;BB2</title>
<path fill="none" stroke="black" d="M139.97,-998.47C139.97,-990.3 139.97,-981.52 139.97,-972.99"/>
<polygon fill="black" stroke="black" points="143.47,-972.78 139.97,-962.78 136.47,-972.78 143.47,-972.78"/>
</g>
<!-- BB4 -->
<g id="node5" class="node">
<title>BB4</title>
<ellipse fill="none" stroke="black" cx="139.97" cy="-814.15" rx="106.55" ry="37.45"/>
<text text-anchor="middle" x="139.97" y="-825.45" font-family="Times New Roman,serif" font-size="14.00">[8c..94)</text>
<text text-anchor="middle" x="139.97" y="-810.45" font-family="Times New Roman,serif" font-size="14.00">Normalized Count: NaN</text>
<text text-anchor="middle" x="139.97" y="-795.45" font-family="Times New Roman,serif" font-size="14.00">Samples weight: 0.00</text>
</g>
<!-- BB2&#45;&gt;BB4 -->
<g id="edge4" class="edge">
<title>BB2&#45;&gt;BB4</title>
<path fill="none" stroke="black" d="M139.97,-887.52C139.97,-879.35 139.97,-870.57 139.97,-862.04"/>
<polygon fill="black" stroke="black" points="143.47,-861.82 139.97,-851.82 136.47,-861.82 143.47,-861.82"/>
</g>
<!-- BB3 -->
<g id="node4" class="node">
<title>BB3</title>
<ellipse fill="none" stroke="black" cx="139.97" cy="-703.2" rx="106.55" ry="37.45"/>
<text text-anchor="middle" x="139.97" y="-714.5" font-family="Times New Roman,serif" font-size="14.00">[6b..8c)</text>
<text text-anchor="middle" x="139.97" y="-699.5" font-family="Times New Roman,serif" font-size="14.00">Normalized Count: NaN</text>
<text text-anchor="middle" x="139.97" y="-684.5" font-family="Times New Roman,serif" font-size="14.00">Samples weight: 0.00</text>
</g>
<!-- BB3&#45;&gt;BB4 -->
<g id="edge5" class="edge">
<title>BB3&#45;&gt;BB4</title>
<path fill="none" stroke="black" d="M146.38,-740.87C146.7,-749.05 146.79,-757.83 146.66,-766.35"/>
<polygon fill="black" stroke="black" points="143.15,-766.48 146.38,-776.57 150.15,-766.66 143.15,-766.48"/>
</g>
<!-- BB4&#45;&gt;BB3 -->
<g id="edge6" class="edge">
<title>BB4&#45;&gt;BB3</title>
<path fill="none" stroke="black" d="M133.55,-776.57C133.23,-768.39 133.14,-759.61 133.27,-751.09"/>
<polygon fill="black" stroke="black" points="136.78,-750.96 133.55,-740.87 129.78,-750.77 136.78,-750.96"/>
</g>
<!-- BB5 -->
<g id="node6" class="node">
<title>BB5</title>
<ellipse fill="none" stroke="black" cx="371.97" cy="-703.2" rx="106.55" ry="37.45"/>
<text text-anchor="middle" x="371.97" y="-714.5" font-family="Times New Roman,serif" font-size="14.00">[94..ab)</text>
<text text-anchor="middle" x="371.97" y="-699.5" font-family="Times New Roman,serif" font-size="14.00">Normalized Count: NaN</text>
<text text-anchor="middle" x="371.97" y="-684.5" font-family="Times New Roman,serif" font-size="14.00">Samples weight: 0.00</text>
</g>
<!-- BB4&#45;&gt;BB5 -->
<g id="edge7" class="edge">
<title>BB4&#45;&gt;BB5</title>
<path fill="none" stroke="black" d="M202.75,-783.67C232.79,-769.56 268.92,-752.59 300.07,-737.96"/>
<polygon fill="black" stroke="black" points="301.57,-741.12 309.13,-733.7 298.59,-734.79 301.57,-741.12"/>
</g>
<!-- BB6 -->
<g id="node7" class="node">
<title>BB6</title>
<ellipse fill="none" stroke="black" cx="254.97" cy="-592.24" rx="106.55" ry="37.45"/>
<text text-anchor="middle" x="254.97" y="-603.54" font-family="Times New Roman,serif" font-size="14.00">[ab..c0)</text>
<text text-anchor="middle" x="254.97" y="-588.54" font-family="Times New Roman,serif" font-size="14.00">Normalized Count: NaN</text>
<text text-anchor="middle" x="254.97" y="-573.54" font-family="Times New Roman,serif" font-size="14.00">Samples weight: 0.00</text>
</g>
<!-- BB5&#45;&gt;BB6 -->
<g id="edge9" class="edge">
<title>BB5&#45;&gt;BB6</title>
<path fill="none" stroke="black" d="M334.95,-667.72C323.63,-657.19 311.08,-645.49 299.33,-634.55"/>
<polygon fill="black" stroke="black" points="301.45,-631.75 291.74,-627.49 296.68,-636.87 301.45,-631.75"/>
</g>
<!-- BB10 -->
<g id="node11" class="node">
<title>BB10</title>
<ellipse fill="none" stroke="black" cx="488.97" cy="-592.24" rx="106.55" ry="37.45"/>
<text text-anchor="middle" x="488.97" y="-603.54" font-family="Times New Roman,serif" font-size="14.00">[ec..10f)</text>
<text text-anchor="middle" x="488.97" y="-588.54" font-family="Times New Roman,serif" font-size="14.00">Normalized Count: NaN</text>
<text text-anchor="middle" x="488.97" y="-573.54" font-family="Times New Roman,serif" font-size="14.00">Samples weight: 0.00</text>
</g>
<!-- BB5&#45;&gt;BB10 -->
<g id="edge8" class="edge">
<title>BB5&#45;&gt;BB10</title>
<path fill="none" stroke="black" d="M408.99,-667.72C420.3,-657.19 432.86,-645.49 444.6,-634.55"/>
<polygon fill="black" stroke="black" points="447.25,-636.87 452.19,-627.49 442.48,-631.75 447.25,-636.87"/>
</g>
<!-- BB8 -->
<g id="node9" class="node">
<title>BB8</title>
<ellipse fill="none" stroke="black" cx="250.97" cy="-481.29" rx="115.93" ry="37.45"/>
<text text-anchor="middle" x="250.97" y="-492.59" font-family="Times New Roman,serif" font-size="14.00">[cf..d6)</text>
<text text-anchor="middle" x="250.97" y="-477.59" font-family="Times New Roman,serif" font-size="14.00">Normalized Count: Infinity</text>
<text text-anchor="middle" x="250.97" y="-462.59" font-family="Times New Roman,serif" font-size="14.00">Samples weight: 0.19</text>
</g>
<!-- BB6&#45;&gt;BB8 -->
<g id="edge10" class="edge">
<title>BB6&#45;&gt;BB8</title>
<path fill="none" stroke="black" d="M253.62,-554.66C253.32,-546.49 253,-537.71 252.69,-529.18"/>
<polygon fill="black" stroke="black" points="256.18,-528.83 252.31,-518.96 249.18,-529.08 256.18,-528.83"/>
</g>
<!-- BB7 -->
<g id="node8" class="node">
<title>BB7</title>
<ellipse fill="none" stroke="black" cx="115.97" cy="-370.34" rx="115.93" ry="37.45"/>
<text text-anchor="middle" x="115.97" y="-381.64" font-family="Times New Roman,serif" font-size="14.00">[c0..cf)</text>
<text text-anchor="middle" x="115.97" y="-366.64" font-family="Times New Roman,serif" font-size="14.00">Normalized Count: Infinity</text>
<text text-anchor="middle" x="115.97" y="-351.64" font-family="Times New Roman,serif" font-size="14.00">Samples weight: 0.81</text>
</g>
<!-- BB7&#45;&gt;BB8 -->
<g id="edge11" class="edge">
<title>BB7&#45;&gt;BB8</title>
<path fill="none" stroke="black" d="M163.54,-404.67C177.45,-415.49 192.59,-427.62 206.32,-438.95"/>
<polygon fill="black" stroke="black" points="204.29,-441.82 214.22,-445.52 208.76,-436.43 204.29,-441.82"/>
</g>
<!-- BB8&#45;&gt;BB7 -->
<g id="edge12" class="edge">
<title>BB8&#45;&gt;BB7</title>
<path fill="none" stroke="black" d="M203.45,-447.01C189.46,-436.13 174.22,-423.91 160.42,-412.52"/>
<polygon fill="black" stroke="black" points="162.41,-409.62 152.49,-405.92 157.94,-415.01 162.41,-409.62"/>
</g>
<!-- BB9 -->
<g id="node10" class="node">
<title>BB9</title>
<ellipse fill="none" stroke="black" cx="356.97" cy="-370.34" rx="106.55" ry="37.45"/>
<text text-anchor="middle" x="356.97" y="-381.64" font-family="Times New Roman,serif" font-size="14.00">[d6..ec)</text>
<text text-anchor="middle" x="356.97" y="-366.64" font-family="Times New Roman,serif" font-size="14.00">Normalized Count: NaN</text>
<text text-anchor="middle" x="356.97" y="-351.64" font-family="Times New Roman,serif" font-size="14.00">Samples weight: 0.00</text>
</g>
<!-- BB8&#45;&gt;BB9 -->
<g id="edge13" class="edge">
<title>BB8&#45;&gt;BB9</title>
<path fill="none" stroke="black" d="M285.09,-445.22C295.02,-435.01 305.97,-423.75 316.27,-413.17"/>
<polygon fill="black" stroke="black" points="318.8,-415.58 323.27,-405.97 313.79,-410.7 318.8,-415.58"/>
</g>
<!-- BB15 -->
<g id="node16" class="node">
<title>BB15</title>
<ellipse fill="none" stroke="black" cx="558.97" cy="-481.29" rx="106.55" ry="37.45"/>
<text text-anchor="middle" x="558.97" y="-492.59" font-family="Times New Roman,serif" font-size="14.00">[150..158)</text>
<text text-anchor="middle" x="558.97" y="-477.59" font-family="Times New Roman,serif" font-size="14.00">Normalized Count: NaN</text>
<text text-anchor="middle" x="558.97" y="-462.59" font-family="Times New Roman,serif" font-size="14.00">Samples weight: 0.00</text>
</g>
<!-- BB10&#45;&gt;BB15 -->
<g id="edge14" class="edge">
<title>BB10&#45;&gt;BB15</title>
<path fill="none" stroke="black" d="M511.89,-555.57C517.81,-546.35 524.26,-536.31 530.43,-526.71"/>
<polygon fill="black" stroke="black" points="533.53,-528.35 535.99,-518.05 527.64,-524.57 533.53,-528.35"/>
</g>
<!-- BB11 -->
<g id="node12" class="node">
<title>BB11</title>
<ellipse fill="none" stroke="black" cx="626.97" cy="-370.34" rx="106.55" ry="37.45"/>
<text text-anchor="middle" x="626.97" y="-381.64" font-family="Times New Roman,serif" font-size="14.00">[10f..132)</text>
<text text-anchor="middle" x="626.97" y="-366.64" font-family="Times New Roman,serif" font-size="14.00">Normalized Count: NaN</text>
<text text-anchor="middle" x="626.97" y="-351.64" font-family="Times New Roman,serif" font-size="14.00">Samples weight: 0.00</text>
</g>
<!-- BB12 -->
<g id="node13" class="node">
<title>BB12</title>
<ellipse fill="none" stroke="black" cx="626.97" cy="-259.38" rx="106.55" ry="37.45"/>
<text text-anchor="middle" x="626.97" y="-270.68" font-family="Times New Roman,serif" font-size="14.00">[132..136)</text>
<text text-anchor="middle" x="626.97" y="-255.68" font-family="Times New Roman,serif" font-size="14.00">Normalized Count: NaN</text>
<text text-anchor="middle" x="626.97" y="-240.68" font-family="Times New Roman,serif" font-size="14.00">Samples weight: 0.00</text>
</g>
<!-- BB11&#45;&gt;BB12 -->
<g id="edge16" class="edge">
<title>BB11&#45;&gt;BB12</title>
<path fill="none" stroke="black" d="M626.97,-332.75C626.97,-324.58 626.97,-315.8 626.97,-307.27"/>
<polygon fill="black" stroke="black" points="630.47,-307.06 626.97,-297.06 623.47,-307.06 630.47,-307.06"/>
</g>
<!-- BB13 -->
<g id="node14" class="node">
<title>BB13</title>
<ellipse fill="none" stroke="black" cx="858.97" cy="-259.38" rx="106.55" ry="37.45"/>
<text text-anchor="middle" x="858.97" y="-270.68" font-family="Times New Roman,serif" font-size="14.00">[136..140)</text>
<text text-anchor="middle" x="858.97" y="-255.68" font-family="Times New Roman,serif" font-size="14.00">Normalized Count: NaN</text>
<text text-anchor="middle" x="858.97" y="-240.68" font-family="Times New Roman,serif" font-size="14.00">Samples weight: 0.00</text>
</g>
<!-- BB11&#45;&gt;BB13 -->
<g id="edge15" class="edge">
<title>BB11&#45;&gt;BB13</title>
<path fill="none" stroke="black" d="M689.75,-339.85C719.79,-325.74 755.92,-308.78 787.07,-294.15"/>
<polygon fill="black" stroke="black" points="788.57,-297.31 796.13,-289.89 785.59,-290.97 788.57,-297.31"/>
</g>
<!-- BB14 -->
<g id="node15" class="node">
<title>BB14</title>
<ellipse fill="none" stroke="black" cx="626.97" cy="-148.43" rx="106.55" ry="37.45"/>
<text text-anchor="middle" x="626.97" y="-159.73" font-family="Times New Roman,serif" font-size="14.00">[140..150)</text>
<text text-anchor="middle" x="626.97" y="-144.73" font-family="Times New Roman,serif" font-size="14.00">Normalized Count: NaN</text>
<text text-anchor="middle" x="626.97" y="-129.73" font-family="Times New Roman,serif" font-size="14.00">Samples weight: 0.00</text>
</g>
<!-- BB12&#45;&gt;BB14 -->
<g id="edge17" class="edge">
<title>BB12&#45;&gt;BB14</title>
<path fill="none" stroke="black" d="M626.97,-221.8C626.97,-213.63 626.97,-204.85 626.97,-196.32"/>
<polygon fill="black" stroke="black" points="630.47,-196.1 626.97,-186.1 623.47,-196.1 630.47,-196.1"/>
</g>
<!-- BB13&#45;&gt;BB14 -->
<g id="edge18" class="edge">
<title>BB13&#45;&gt;BB14</title>
<path fill="none" stroke="black" d="M796.18,-228.9C766.14,-214.79 730.01,-197.82 698.86,-183.2"/>
<polygon fill="black" stroke="black" points="700.34,-180.02 689.8,-178.94 697.36,-186.36 700.34,-180.02"/>
</g>
<!-- BB14&#45;&gt;BB15 -->
<g id="edge19" class="edge">
<title>BB14&#45;&gt;BB15</title>
<path fill="none" stroke="black" d="M557.88,-177.21C539.32,-188.23 521.5,-202.9 510.97,-221.91 470.91,-294.17 487.14,-328.7 510.97,-407.81 513.97,-417.78 518.83,-427.63 524.34,-436.72"/>
<polygon fill="black" stroke="black" points="521.43,-438.65 529.78,-445.17 527.31,-434.86 521.43,-438.65"/>
</g>
<!-- BB15&#45;&gt;BB11 -->
<g id="edge20" class="edge">
<title>BB15&#45;&gt;BB11</title>
<path fill="none" stroke="black" d="M581.23,-444.61C586.98,-435.4 593.25,-425.36 599.24,-415.76"/>
<polygon fill="black" stroke="black" points="602.32,-417.43 604.65,-407.09 596.39,-413.72 602.32,-417.43"/>
</g>
<!-- BB16 -->
<g id="node17" class="node">
<title>BB16</title>
<ellipse fill="none" stroke="black" cx="1090.97" cy="-370.34" rx="106.55" ry="37.45"/>
<text text-anchor="middle" x="1090.97" y="-381.64" font-family="Times New Roman,serif" font-size="14.00">[158..167)</text>
<text text-anchor="middle" x="1090.97" y="-366.64" font-family="Times New Roman,serif" font-size="14.00">Normalized Count: NaN</text>
<text text-anchor="middle" x="1090.97" y="-351.64" font-family="Times New Roman,serif" font-size="14.00">Samples weight: 0.00</text>
</g>
<!-- BB15&#45;&gt;BB16 -->
<g id="edge21" class="edge">
<title>BB15&#45;&gt;BB16</title>
<path fill="none" stroke="black" d="M650.12,-461.62C744.56,-442.28 891.8,-412.13 989.79,-392.06"/>
<polygon fill="black" stroke="black" points="990.61,-395.46 999.71,-390.03 989.21,-388.6 990.61,-395.46"/>
</g>
<!-- BB17 -->
<g id="node18" class="node">
<title>BB17</title>
<ellipse fill="none" stroke="black" cx="1090.97" cy="-259.38" rx="106.55" ry="37.45"/>
<text text-anchor="middle" x="1090.97" y="-270.68" font-family="Times New Roman,serif" font-size="14.00">[167..1b8)</text>
<text text-anchor="middle" x="1090.97" y="-255.68" font-family="Times New Roman,serif" font-size="14.00">Normalized Count: NaN</text>
<text text-anchor="middle" x="1090.97" y="-240.68" font-family="Times New Roman,serif" font-size="14.00">Samples weight: 0.00</text>
</g>
<!-- BB16&#45;&gt;BB17 -->
<g id="edge23" class="edge">
<title>BB16&#45;&gt;BB17</title>
<path fill="none" stroke="black" d="M1090.97,-332.75C1090.97,-324.58 1090.97,-315.8 1090.97,-307.27"/>
<polygon fill="black" stroke="black" points="1094.47,-307.06 1090.97,-297.06 1087.47,-307.06 1094.47,-307.06"/>
</g>
<!-- BB20 -->
<g id="node21" class="node">
<title>BB20</title>
<ellipse fill="none" stroke="black" cx="1322.97" cy="-259.38" rx="106.55" ry="37.45"/>
<text text-anchor="middle" x="1322.97" y="-270.68" font-family="Times New Roman,serif" font-size="14.00">[1ce..1cf)</text>
<text text-anchor="middle" x="1322.97" y="-255.68" font-family="Times New Roman,serif" font-size="14.00">Normalized Count: NaN</text>
<text text-anchor="middle" x="1322.97" y="-240.68" font-family="Times New Roman,serif" font-size="14.00">Samples weight: 0.00</text>
</g>
<!-- BB16&#45;&gt;BB20 -->
<g id="edge22" class="edge">
<title>BB16&#45;&gt;BB20</title>
<path fill="none" stroke="black" d="M1153.75,-339.85C1183.79,-325.74 1219.92,-308.78 1251.07,-294.15"/>
<polygon fill="black" stroke="black" points="1252.57,-297.31 1260.13,-289.89 1249.59,-290.97 1252.57,-297.31"/>
</g>
<!-- BB19 -->
<g id="node20" class="node">
<title>BB19</title>
<ellipse fill="none" stroke="black" cx="1206.97" cy="-148.43" rx="106.55" ry="37.45"/>
<text text-anchor="middle" x="1206.97" y="-159.73" font-family="Times New Roman,serif" font-size="14.00">[1c8..1ce)</text>
<text text-anchor="middle" x="1206.97" y="-144.73" font-family="Times New Roman,serif" font-size="14.00">Normalized Count: NaN</text>
<text text-anchor="middle" x="1206.97" y="-129.73" font-family="Times New Roman,serif" font-size="14.00">Samples weight: 0.00</text>
</g>
<!-- BB17&#45;&gt;BB19 -->
<g id="edge24" class="edge">
<title>BB17&#45;&gt;BB19</title>
<path fill="none" stroke="black" d="M1127.67,-223.91C1138.89,-213.37 1151.34,-201.68 1162.98,-190.74"/>
<polygon fill="black" stroke="black" points="1165.61,-193.08 1170.5,-183.68 1160.82,-187.97 1165.61,-193.08"/>
</g>
<!-- BB18 -->
<g id="node19" class="node">
<title>BB18</title>
<ellipse fill="none" stroke="black" cx="1206.97" cy="-37.48" rx="106.55" ry="37.45"/>
<text text-anchor="middle" x="1206.97" y="-48.78" font-family="Times New Roman,serif" font-size="14.00">[1b8..1c8)</text>
<text text-anchor="middle" x="1206.97" y="-33.78" font-family="Times New Roman,serif" font-size="14.00">Normalized Count: NaN</text>
<text text-anchor="middle" x="1206.97" y="-18.78" font-family="Times New Roman,serif" font-size="14.00">Samples weight: 0.00</text>
</g>
<!-- BB18&#45;&gt;BB19 -->
<g id="edge25" class="edge">
<title>BB18&#45;&gt;BB19</title>
<path fill="none" stroke="black" d="M1213.38,-75.15C1213.7,-83.33 1213.79,-92.11 1213.66,-100.63"/>
<polygon fill="black" stroke="black" points="1210.15,-100.76 1213.38,-110.85 1217.15,-100.94 1210.15,-100.76"/>
</g>
<!-- BB19&#45;&gt;BB18 -->
<g id="edge26" class="edge">
<title>BB19&#45;&gt;BB18</title>
<path fill="none" stroke="black" d="M1200.55,-110.85C1200.23,-102.67 1200.14,-93.89 1200.27,-85.37"/>
<polygon fill="black" stroke="black" points="1203.78,-85.24 1200.55,-75.15 1196.78,-85.05 1203.78,-85.24"/>
</g>
<!-- BB19&#45;&gt;BB20 -->
<g id="edge27" class="edge">
<title>BB19&#45;&gt;BB20</title>
<path fill="none" stroke="black" d="M1243.43,-183.68C1254.63,-194.2 1267.08,-205.89 1278.74,-216.84"/>
<polygon fill="black" stroke="black" points="1276.58,-219.61 1286.26,-223.91 1281.37,-214.51 1276.58,-219.61"/>
</g>
</g>
</svg>
