<?xml version="1.0" encoding="UTF-8" standalone="no"?>
<!DOCTYPE svg PUBLIC "-//W3C//DTD SVG 1.1//EN"
 "http://www.w3.org/Graphics/SVG/1.1/DTD/svg11.dtd">
<!-- Generated by graphviz version 2.47.0 (20210316.0004)
 -->
<!-- Title: G Pages: 1 -->
<svg width="700pt" height="1029pt"
 viewBox="0.00 0.00 700.48 1029.33" xmlns="http://www.w3.org/2000/svg" xmlns:xlink="http://www.w3.org/1999/xlink">
<g id="graph0" class="graph" transform="scale(1 1) rotate(0) translate(4 1025.33)">
<title>G</title>
<polygon fill="white" stroke="transparent" points="-4,4 -4,-1025.33 696.48,-1025.33 696.48,4 -4,4"/>
<!-- BB0 -->
<g id="node1" class="node">
<title>BB0</title>
<ellipse fill="none" stroke="black" cx="458.24" cy="-973.25" rx="103.48" ry="48.17"/>
<text text-anchor="middle" x="458.24" y="-992.05" font-family="Times New Roman,serif" font-size="14.00">[0..1d)</text>
<text text-anchor="middle" x="458.24" y="-977.05" font-family="Times New Roman,serif" font-size="14.00">Count: 2</text>
<text text-anchor="middle" x="458.24" y="-962.05" font-family="Times New Roman,serif" font-size="14.00">Normalized count: 1.00</text>
<text text-anchor="middle" x="458.24" y="-947.05" font-family="Times New Roman,serif" font-size="14.00">Samples weight: 0.00</text>
</g>
<!-- BB10 -->
<g id="node11" class="node">
<title>BB10</title>
<ellipse fill="none" stroke="black" cx="458.24" cy="-841.08" rx="103.48" ry="48.17"/>
<text text-anchor="middle" x="458.24" y="-859.88" font-family="Times New Roman,serif" font-size="14.00">[88..97)</text>
<text text-anchor="middle" x="458.24" y="-844.88" font-family="Times New Roman,serif" font-size="14.00">Count: 3</text>
<text text-anchor="middle" x="458.24" y="-829.88" font-family="Times New Roman,serif" font-size="14.00">Normalized count: 1.50</text>
<text text-anchor="middle" x="458.24" y="-814.88" font-family="Times New Roman,serif" font-size="14.00">Samples weight: 0.01</text>
</g>
<!-- BB0&#45;&gt;BB10 -->
<g id="edge1" class="edge">
<title>BB0&#45;&gt;BB10</title>
<path fill="none" stroke="black" d="M458.24,-924.89C458.24,-916.62 458.24,-907.94 458.24,-899.43"/>
<polygon fill="black" stroke="black" points="461.74,-899.19 458.24,-889.19 454.74,-899.19 461.74,-899.19"/>
</g>
<!-- BB1 -->
<g id="node2" class="node">
<title>BB1</title>
<ellipse fill="none" stroke="black" cx="327.24" cy="-708.92" rx="103.48" ry="48.17"/>
<text text-anchor="middle" x="327.24" y="-727.72" font-family="Times New Roman,serif" font-size="14.00">[1d..30)</text>
<text text-anchor="middle" x="327.24" y="-712.72" font-family="Times New Roman,serif" font-size="14.00">Count: 1</text>
<text text-anchor="middle" x="327.24" y="-697.72" font-family="Times New Roman,serif" font-size="14.00">Normalized count: 0.50</text>
<text text-anchor="middle" x="327.24" y="-682.72" font-family="Times New Roman,serif" font-size="14.00">Samples weight: 0.00</text>
</g>
<!-- BB2 -->
<g id="node3" class="node">
<title>BB2</title>
<ellipse fill="none" stroke="black" cx="103.24" cy="-576.75" rx="103.48" ry="48.17"/>
<text text-anchor="middle" x="103.24" y="-595.55" font-family="Times New Roman,serif" font-size="14.00">[30..46)</text>
<text text-anchor="middle" x="103.24" y="-580.55" font-family="Times New Roman,serif" font-size="14.00">Count: 0</text>
<text text-anchor="middle" x="103.24" y="-565.55" font-family="Times New Roman,serif" font-size="14.00">Normalized count: 0.00</text>
<text text-anchor="middle" x="103.24" y="-550.55" font-family="Times New Roman,serif" font-size="14.00">Samples weight: 0.00</text>
</g>
<!-- BB1&#45;&gt;BB2 -->
<g id="edge3" class="edge">
<title>BB1&#45;&gt;BB2</title>
<path fill="none" stroke="black" d="M263.65,-670.96C236.22,-655.02 203.99,-636.3 175.65,-619.83"/>
<polygon fill="black" stroke="black" points="177.39,-616.79 166.99,-614.79 173.87,-622.84 177.39,-616.79"/>
</g>
<!-- BB4 -->
<g id="node5" class="node">
<title>BB4</title>
<ellipse fill="none" stroke="black" cx="327.24" cy="-576.75" rx="103.48" ry="48.17"/>
<text text-anchor="middle" x="327.24" y="-595.55" font-family="Times New Roman,serif" font-size="14.00">[49..4e)</text>
<text text-anchor="middle" x="327.24" y="-580.55" font-family="Times New Roman,serif" font-size="14.00">Count: 1</text>
<text text-anchor="middle" x="327.24" y="-565.55" font-family="Times New Roman,serif" font-size="14.00">Normalized count: 0.50</text>
<text text-anchor="middle" x="327.24" y="-550.55" font-family="Times New Roman,serif" font-size="14.00">Samples weight: 0.00</text>
</g>
<!-- BB1&#45;&gt;BB4 -->
<g id="edge2" class="edge">
<title>BB1&#45;&gt;BB4</title>
<path fill="none" stroke="black" d="M327.24,-660.55C327.24,-652.29 327.24,-643.6 327.24,-635.1"/>
<polygon fill="black" stroke="black" points="330.74,-634.86 327.24,-624.86 323.74,-634.86 330.74,-634.86"/>
</g>
<!-- BB3 -->
<g id="node4" class="node">
<title>BB3</title>
<ellipse fill="none" stroke="black" cx="166.24" cy="-444.58" rx="103.48" ry="48.17"/>
<text text-anchor="middle" x="166.24" y="-463.38" font-family="Times New Roman,serif" font-size="14.00">[46..49)</text>
<text text-anchor="middle" x="166.24" y="-448.38" font-family="Times New Roman,serif" font-size="14.00">Count: 0</text>
<text text-anchor="middle" x="166.24" y="-433.38" font-family="Times New Roman,serif" font-size="14.00">Normalized count: 0.00</text>
<text text-anchor="middle" x="166.24" y="-418.38" font-family="Times New Roman,serif" font-size="14.00">Samples weight: 0.00</text>
</g>
<!-- BB2&#45;&gt;BB3 -->
<g id="edge5" class="edge">
<title>BB2&#45;&gt;BB3</title>
<path fill="none" stroke="black" d="M125.63,-529.49C130.13,-520.19 134.9,-510.32 139.54,-500.75"/>
<polygon fill="black" stroke="black" points="142.71,-502.22 143.92,-491.69 136.41,-499.17 142.71,-502.22"/>
</g>
<!-- BB2&#45;&gt;BB4 -->
<g id="edge4" class="edge">
<title>BB2&#45;&gt;BB4</title>
<path fill="none" stroke="black" d="M206.49,-576.75C208.94,-576.75 211.4,-576.75 213.85,-576.75"/>
<polygon fill="black" stroke="black" points="213.94,-580.25 223.94,-576.75 213.94,-573.25 213.94,-580.25"/>
</g>
<!-- BB3&#45;&gt;BB4 -->
<g id="edge6" class="edge">
<title>BB3&#45;&gt;BB4</title>
<path fill="none" stroke="black" d="M216.85,-486.5C233.13,-499.67 251.32,-514.37 268.15,-527.98"/>
<polygon fill="black" stroke="black" points="266.32,-531 276.3,-534.56 270.72,-525.55 266.32,-531"/>
</g>
<!-- BB9 -->
<g id="node10" class="node">
<title>BB9</title>
<ellipse fill="none" stroke="black" cx="426.24" cy="-444.58" rx="108.38" ry="48.17"/>
<text text-anchor="middle" x="426.24" y="-463.38" font-family="Times New Roman,serif" font-size="14.00">[83..88)</text>
<text text-anchor="middle" x="426.24" y="-448.38" font-family="Times New Roman,serif" font-size="14.00">Count: 143</text>
<text text-anchor="middle" x="426.24" y="-433.38" font-family="Times New Roman,serif" font-size="14.00">Normalized count: 71.50</text>
<text text-anchor="middle" x="426.24" y="-418.38" font-family="Times New Roman,serif" font-size="14.00">Samples weight: 0.25</text>
</g>
<!-- BB4&#45;&gt;BB9 -->
<g id="edge7" class="edge">
<title>BB4&#45;&gt;BB9</title>
<path fill="none" stroke="black" d="M361.31,-530.95C369.24,-520.52 377.76,-509.32 385.94,-498.57"/>
<polygon fill="black" stroke="black" points="388.84,-500.54 392.1,-490.46 383.27,-496.3 388.84,-500.54"/>
</g>
<!-- BB5 -->
<g id="node6" class="node">
<title>BB5</title>
<ellipse fill="none" stroke="black" cx="358.24" cy="-312.42" rx="108.38" ry="48.17"/>
<text text-anchor="middle" x="358.24" y="-331.22" font-family="Times New Roman,serif" font-size="14.00">[4e..5b)</text>
<text text-anchor="middle" x="358.24" y="-316.22" font-family="Times New Roman,serif" font-size="14.00">Count: 142</text>
<text text-anchor="middle" x="358.24" y="-301.22" font-family="Times New Roman,serif" font-size="14.00">Normalized count: 71.00</text>
<text text-anchor="middle" x="358.24" y="-286.22" font-family="Times New Roman,serif" font-size="14.00">Samples weight: 0.25</text>
</g>
<!-- BB6 -->
<g id="node7" class="node">
<title>BB6</title>
<ellipse fill="none" stroke="black" cx="260.24" cy="-180.25" rx="108.38" ry="48.17"/>
<text text-anchor="middle" x="260.24" y="-199.05" font-family="Times New Roman,serif" font-size="14.00">[5b..7a)</text>
<text text-anchor="middle" x="260.24" y="-184.05" font-family="Times New Roman,serif" font-size="14.00">Count: 142</text>
<text text-anchor="middle" x="260.24" y="-169.05" font-family="Times New Roman,serif" font-size="14.00">Normalized count: 71.00</text>
<text text-anchor="middle" x="260.24" y="-154.05" font-family="Times New Roman,serif" font-size="14.00">Samples weight: 0.25</text>
</g>
<!-- BB5&#45;&gt;BB6 -->
<g id="edge9" class="edge">
<title>BB5&#45;&gt;BB6</title>
<path fill="none" stroke="black" d="M324.51,-266.62C316.66,-256.19 308.22,-244.99 300.13,-234.24"/>
<polygon fill="black" stroke="black" points="302.84,-232.01 294.03,-226.13 297.24,-236.22 302.84,-232.01"/>
</g>
<!-- BB8 -->
<g id="node9" class="node">
<title>BB8</title>
<ellipse fill="none" stroke="black" cx="494.24" cy="-180.25" rx="108.38" ry="48.17"/>
<text text-anchor="middle" x="494.24" y="-199.05" font-family="Times New Roman,serif" font-size="14.00">[7d..83)</text>
<text text-anchor="middle" x="494.24" y="-184.05" font-family="Times New Roman,serif" font-size="14.00">Count: 142</text>
<text text-anchor="middle" x="494.24" y="-169.05" font-family="Times New Roman,serif" font-size="14.00">Normalized count: 71.00</text>
<text text-anchor="middle" x="494.24" y="-154.05" font-family="Times New Roman,serif" font-size="14.00">Samples weight: 0.25</text>
</g>
<!-- BB5&#45;&gt;BB8 -->
<g id="edge8" class="edge">
<title>BB5&#45;&gt;BB8</title>
<path fill="none" stroke="black" d="M403.15,-268.43C415.56,-256.55 429.15,-243.55 441.95,-231.3"/>
<polygon fill="black" stroke="black" points="444.57,-233.63 449.38,-224.19 439.73,-228.57 444.57,-233.63"/>
</g>
<!-- BB7 -->
<g id="node8" class="node">
<title>BB7</title>
<ellipse fill="none" stroke="black" cx="377.24" cy="-48.08" rx="103.48" ry="48.17"/>
<text text-anchor="middle" x="377.24" y="-66.88" font-family="Times New Roman,serif" font-size="14.00">[7a..7d)</text>
<text text-anchor="middle" x="377.24" y="-51.88" font-family="Times New Roman,serif" font-size="14.00">Count: 0</text>
<text text-anchor="middle" x="377.24" y="-36.88" font-family="Times New Roman,serif" font-size="14.00">Normalized count: 0.00</text>
<text text-anchor="middle" x="377.24" y="-21.88" font-family="Times New Roman,serif" font-size="14.00">Samples weight: 0.00</text>
</g>
<!-- BB6&#45;&gt;BB7 -->
<g id="edge11" class="edge">
<title>BB6&#45;&gt;BB7</title>
<path fill="none" stroke="black" d="M299.85,-135.18C309.96,-123.93 320.92,-111.74 331.32,-100.16"/>
<polygon fill="black" stroke="black" points="333.98,-102.44 338.06,-92.66 328.78,-97.76 333.98,-102.44"/>
</g>
<!-- BB6&#45;&gt;BB8 -->
<g id="edge10" class="edge">
<title>BB6&#45;&gt;BB8</title>
<path fill="none" stroke="black" d="M368.55,-180.25C370.88,-180.25 373.21,-180.25 375.53,-180.25"/>
<polygon fill="black" stroke="black" points="375.74,-183.75 385.74,-180.25 375.74,-176.75 375.74,-183.75"/>
</g>
<!-- BB7&#45;&gt;BB8 -->
<g id="edge12" class="edge">
<title>BB7&#45;&gt;BB8</title>
<path fill="none" stroke="black" d="M416.41,-92.66C426.5,-103.89 437.46,-116.08 447.87,-127.67"/>
<polygon fill="black" stroke="black" points="445.34,-130.08 454.63,-135.18 450.54,-125.4 445.34,-130.08"/>
</g>
<!-- BB8&#45;&gt;BB9 -->
<g id="edge13" class="edge">
<title>BB8&#45;&gt;BB9</title>
<path fill="none" stroke="black" d="M494.66,-228.44C493.71,-265.27 489.53,-317.27 475.24,-360.5 472.01,-370.26 467.52,-380.12 462.54,-389.46"/>
<polygon fill="black" stroke="black" points="459.46,-387.8 457.66,-398.24 465.58,-391.21 459.46,-387.8"/>
</g>
<!-- BB9&#45;&gt;BB5 -->
<g id="edge14" class="edge">
<title>BB9&#45;&gt;BB5</title>
<path fill="none" stroke="black" d="M402.26,-397.69C397.29,-388.16 391.99,-378.03 386.87,-368.23"/>
<polygon fill="black" stroke="black" points="389.96,-366.58 382.22,-359.33 383.75,-369.82 389.96,-366.58"/>
</g>
<!-- BB9&#45;&gt;BB10 -->
<g id="edge15" class="edge">
<title>BB9&#45;&gt;BB10</title>
<path fill="none" stroke="black" d="M434.44,-492.93C436.24,-504.59 437.98,-517.05 439.24,-528.67 448.83,-617.04 453.93,-720.09 456.36,-782.68"/>
<polygon fill="black" stroke="black" points="452.86,-782.89 456.74,-792.75 459.86,-782.62 452.86,-782.89"/>
</g>
<!-- BB10&#45;&gt;BB1 -->
<g id="edge16" class="edge">
<title>BB10&#45;&gt;BB1</title>
<path fill="none" stroke="black" d="M414.98,-797.1C403.02,-785.21 389.93,-772.21 377.61,-759.96"/>
<polygon fill="black" stroke="black" points="380.01,-757.42 370.45,-752.85 375.08,-762.38 380.01,-757.42"/>
</g>
<!-- BB11 -->
<g id="node12" class="node">
<title>BB11</title>
<ellipse fill="none" stroke="black" cx="589.24" cy="-708.92" rx="103.48" ry="48.17"/>
<text text-anchor="middle" x="589.24" y="-727.72" font-family="Times New Roman,serif" font-size="14.00">[97..ae)</text>
<text text-anchor="middle" x="589.24" y="-712.72" font-family="Times New Roman,serif" font-size="14.00">Count: 2</text>
<text text-anchor="middle" x="589.24" y="-697.72" font-family="Times New Roman,serif" font-size="14.00">Normalized count: 1.00</text>
<text text-anchor="middle" x="589.24" y="-682.72" font-family="Times New Roman,serif" font-size="14.00">Samples weight: 0.00</text>
</g>
<!-- BB10&#45;&gt;BB11 -->
<g id="edge17" class="edge">
<title>BB10&#45;&gt;BB11</title>
<path fill="none" stroke="black" d="M501.49,-797.1C513.46,-785.21 526.54,-772.21 538.87,-759.96"/>
<polygon fill="black" stroke="black" points="541.4,-762.38 546.03,-752.85 536.47,-757.42 541.4,-762.38"/>
</g>
</g>
</svg>
