<?xml version="1.0" encoding="UTF-8" standalone="no"?>
<!DOCTYPE svg PUBLIC "-//W3C//DTD SVG 1.1//EN"
 "http://www.w3.org/Graphics/SVG/1.1/DTD/svg11.dtd">
<!-- Generated by graphviz version 2.47.0 (20210316.0004)
 -->
<!-- Title: G Pages: 1 -->
<svg width="831pt" height="765pt"
 viewBox="0.00 0.00 831.42 765.00" xmlns="http://www.w3.org/2000/svg" xmlns:xlink="http://www.w3.org/1999/xlink">
<g id="graph0" class="graph" transform="scale(1 1) rotate(0) translate(4 761)">
<title>G</title>
<polygon fill="white" stroke="transparent" points="-4,4 -4,-761 827.42,-761 827.42,4 -4,4"/>
<!-- BB0 -->
<g id="node1" class="node">
<title>BB0</title>
<ellipse fill="none" stroke="black" cx="451.19" cy="-708.92" rx="103.48" ry="48.17"/>
<text text-anchor="middle" x="451.19" y="-727.72" font-family="Times New Roman,serif" font-size="14.00">[0..18)</text>
<text text-anchor="middle" x="451.19" y="-712.72" font-family="Times New Roman,serif" font-size="14.00">Count: 3949</text>
<text text-anchor="middle" x="451.19" y="-697.72" font-family="Times New Roman,serif" font-size="14.00">Normalized count: 1.00</text>
<text text-anchor="middle" x="451.19" y="-682.72" font-family="Times New Roman,serif" font-size="14.00">Samples weight: 0.00</text>
</g>
<!-- BB4 -->
<g id="node5" class="node">
<title>BB4</title>
<ellipse fill="none" stroke="black" cx="451.19" cy="-576.75" rx="108.38" ry="48.17"/>
<text text-anchor="middle" x="451.19" y="-595.55" font-family="Times New Roman,serif" font-size="14.00">[26..2e)</text>
<text text-anchor="middle" x="451.19" y="-580.55" font-family="Times New Roman,serif" font-size="14.00">Count: 226036</text>
<text text-anchor="middle" x="451.19" y="-565.55" font-family="Times New Roman,serif" font-size="14.00">Normalized count: 57.24</text>
<text text-anchor="middle" x="451.19" y="-550.55" font-family="Times New Roman,serif" font-size="14.00">Samples weight: 0.28</text>
</g>
<!-- BB0&#45;&gt;BB4 -->
<g id="edge1" class="edge">
<title>BB0&#45;&gt;BB4</title>
<path fill="none" stroke="black" d="M451.19,-660.55C451.19,-652.29 451.19,-643.6 451.19,-635.1"/>
<polygon fill="black" stroke="black" points="454.69,-634.86 451.19,-624.86 447.69,-634.86 454.69,-634.86"/>
</g>
<!-- BB1 -->
<g id="node2" class="node">
<title>BB1</title>
<ellipse fill="none" stroke="black" cx="337.19" cy="-444.58" rx="108.38" ry="48.17"/>
<text text-anchor="middle" x="337.19" y="-463.38" font-family="Times New Roman,serif" font-size="14.00">[18..1d)</text>
<text text-anchor="middle" x="337.19" y="-448.38" font-family="Times New Roman,serif" font-size="14.00">Count: 218309</text>
<text text-anchor="middle" x="337.19" y="-433.38" font-family="Times New Roman,serif" font-size="14.00">Normalized count: 55.28</text>
<text text-anchor="middle" x="337.19" y="-418.38" font-family="Times New Roman,serif" font-size="14.00">Samples weight: 0.27</text>
</g>
<!-- BB2 -->
<g id="node3" class="node">
<title>BB2</title>
<ellipse fill="none" stroke="black" cx="337.19" cy="-312.42" rx="103.48" ry="48.17"/>
<text text-anchor="middle" x="337.19" y="-331.22" font-family="Times New Roman,serif" font-size="14.00">[1d..22)</text>
<text text-anchor="middle" x="337.19" y="-316.22" font-family="Times New Roman,serif" font-size="14.00">Count: 0</text>
<text text-anchor="middle" x="337.19" y="-301.22" font-family="Times New Roman,serif" font-size="14.00">Normalized count: 0.00</text>
<text text-anchor="middle" x="337.19" y="-286.22" font-family="Times New Roman,serif" font-size="14.00">Samples weight: 0.00</text>
</g>
<!-- BB1&#45;&gt;BB2 -->
<g id="edge3" class="edge">
<title>BB1&#45;&gt;BB2</title>
<path fill="none" stroke="black" d="M337.19,-396.22C337.19,-387.95 337.19,-379.27 337.19,-370.77"/>
<polygon fill="black" stroke="black" points="340.69,-370.52 337.19,-360.52 333.69,-370.52 340.69,-370.52"/>
</g>
<!-- BB3 -->
<g id="node4" class="node">
<title>BB3</title>
<ellipse fill="none" stroke="black" cx="108.19" cy="-312.42" rx="108.38" ry="48.17"/>
<text text-anchor="middle" x="108.19" y="-331.22" font-family="Times New Roman,serif" font-size="14.00">[22..26)</text>
<text text-anchor="middle" x="108.19" y="-316.22" font-family="Times New Roman,serif" font-size="14.00">Count: 218309</text>
<text text-anchor="middle" x="108.19" y="-301.22" font-family="Times New Roman,serif" font-size="14.00">Normalized count: 55.28</text>
<text text-anchor="middle" x="108.19" y="-286.22" font-family="Times New Roman,serif" font-size="14.00">Samples weight: 0.27</text>
</g>
<!-- BB1&#45;&gt;BB3 -->
<g id="edge2" class="edge">
<title>BB1&#45;&gt;BB3</title>
<path fill="none" stroke="black" d="M271.57,-406.28C243.78,-390.49 211.26,-372 182.59,-355.71"/>
<polygon fill="black" stroke="black" points="184.24,-352.62 173.82,-350.72 180.78,-358.71 184.24,-352.62"/>
</g>
<!-- BB11 -->
<g id="node12" class="node">
<title>BB11</title>
<ellipse fill="none" stroke="black" cx="337.19" cy="-180.25" rx="103.48" ry="48.17"/>
<text text-anchor="middle" x="337.19" y="-199.05" font-family="Times New Roman,serif" font-size="14.00">[5d..60)</text>
<text text-anchor="middle" x="337.19" y="-184.05" font-family="Times New Roman,serif" font-size="14.00">Count: 3949</text>
<text text-anchor="middle" x="337.19" y="-169.05" font-family="Times New Roman,serif" font-size="14.00">Normalized count: 1.00</text>
<text text-anchor="middle" x="337.19" y="-154.05" font-family="Times New Roman,serif" font-size="14.00">Samples weight: 0.00</text>
</g>
<!-- BB2&#45;&gt;BB11 -->
<g id="edge4" class="edge">
<title>BB2&#45;&gt;BB11</title>
<path fill="none" stroke="black" d="M337.19,-264.05C337.19,-255.79 337.19,-247.1 337.19,-238.6"/>
<polygon fill="black" stroke="black" points="340.69,-238.36 337.19,-228.36 333.69,-238.36 340.69,-238.36"/>
</g>
<!-- BB3&#45;&gt;BB4 -->
<g id="edge5" class="edge">
<title>BB3&#45;&gt;BB4</title>
<path fill="none" stroke="black" d="M126.77,-360C145.02,-400.27 176.49,-457.42 220.19,-492.67 255.73,-521.34 301.99,-540.56 343.77,-553.23"/>
<polygon fill="black" stroke="black" points="342.86,-556.61 353.44,-556.07 344.84,-549.89 342.86,-556.61"/>
</g>
<!-- BB4&#45;&gt;BB1 -->
<g id="edge6" class="edge">
<title>BB4&#45;&gt;BB1</title>
<path fill="none" stroke="black" d="M412.59,-531.68C402.94,-520.65 392.49,-508.73 382.54,-497.36"/>
<polygon fill="black" stroke="black" points="384.96,-494.82 375.74,-489.61 379.7,-499.43 384.96,-494.82"/>
</g>
<!-- BB5 -->
<g id="node6" class="node">
<title>BB5</title>
<ellipse fill="none" stroke="black" cx="566.19" cy="-444.58" rx="103.48" ry="48.17"/>
<text text-anchor="middle" x="566.19" y="-463.38" font-family="Times New Roman,serif" font-size="14.00">[2e..37)</text>
<text text-anchor="middle" x="566.19" y="-448.38" font-family="Times New Roman,serif" font-size="14.00">Count: 7727</text>
<text text-anchor="middle" x="566.19" y="-433.38" font-family="Times New Roman,serif" font-size="14.00">Normalized count: 1.96</text>
<text text-anchor="middle" x="566.19" y="-418.38" font-family="Times New Roman,serif" font-size="14.00">Samples weight: 0.01</text>
</g>
<!-- BB4&#45;&gt;BB5 -->
<g id="edge7" class="edge">
<title>BB4&#45;&gt;BB5</title>
<path fill="none" stroke="black" d="M490.12,-531.68C499.86,-520.65 510.4,-508.73 520.44,-497.36"/>
<polygon fill="black" stroke="black" points="523.3,-499.42 527.29,-489.61 518.05,-494.78 523.3,-499.42"/>
</g>
<!-- BB9 -->
<g id="node10" class="node">
<title>BB9</title>
<ellipse fill="none" stroke="black" cx="566.19" cy="-312.42" rx="108.38" ry="48.17"/>
<text text-anchor="middle" x="566.19" y="-331.22" font-family="Times New Roman,serif" font-size="14.00">[50..55)</text>
<text text-anchor="middle" x="566.19" y="-316.22" font-family="Times New Roman,serif" font-size="14.00">Count: 43053</text>
<text text-anchor="middle" x="566.19" y="-301.22" font-family="Times New Roman,serif" font-size="14.00">Normalized count: 10.90</text>
<text text-anchor="middle" x="566.19" y="-286.22" font-family="Times New Roman,serif" font-size="14.00">Samples weight: 0.05</text>
</g>
<!-- BB5&#45;&gt;BB9 -->
<g id="edge8" class="edge">
<title>BB5&#45;&gt;BB9</title>
<path fill="none" stroke="black" d="M566.19,-396.22C566.19,-387.95 566.19,-379.27 566.19,-370.77"/>
<polygon fill="black" stroke="black" points="569.69,-370.52 566.19,-360.52 562.69,-370.52 569.69,-370.52"/>
</g>
<!-- BB6 -->
<g id="node7" class="node">
<title>BB6</title>
<ellipse fill="none" stroke="black" cx="599.19" cy="-180.25" rx="103.48" ry="48.17"/>
<text text-anchor="middle" x="599.19" y="-199.05" font-family="Times New Roman,serif" font-size="14.00">[37..43)</text>
<text text-anchor="middle" x="599.19" y="-184.05" font-family="Times New Roman,serif" font-size="14.00">Count: 39104</text>
<text text-anchor="middle" x="599.19" y="-169.05" font-family="Times New Roman,serif" font-size="14.00">Normalized count: 9.90</text>
<text text-anchor="middle" x="599.19" y="-154.05" font-family="Times New Roman,serif" font-size="14.00">Samples weight: 0.05</text>
</g>
<!-- BB7 -->
<g id="node8" class="node">
<title>BB7</title>
<ellipse fill="none" stroke="black" cx="720.19" cy="-48.08" rx="103.48" ry="48.17"/>
<text text-anchor="middle" x="720.19" y="-66.88" font-family="Times New Roman,serif" font-size="14.00">[43..4c)</text>
<text text-anchor="middle" x="720.19" y="-51.88" font-family="Times New Roman,serif" font-size="14.00">Count: 3778</text>
<text text-anchor="middle" x="720.19" y="-36.88" font-family="Times New Roman,serif" font-size="14.00">Normalized count: 0.96</text>
<text text-anchor="middle" x="720.19" y="-21.88" font-family="Times New Roman,serif" font-size="14.00">Samples weight: 0.00</text>
</g>
<!-- BB6&#45;&gt;BB7 -->
<g id="edge10" class="edge">
<title>BB6&#45;&gt;BB7</title>
<path fill="none" stroke="black" d="M639.48,-135.91C650.08,-124.5 661.62,-112.09 672.57,-100.31"/>
<polygon fill="black" stroke="black" points="675.41,-102.39 679.66,-92.68 670.29,-97.62 675.41,-102.39"/>
</g>
<!-- BB8 -->
<g id="node9" class="node">
<title>BB8</title>
<ellipse fill="none" stroke="black" cx="477.19" cy="-48.08" rx="103.48" ry="48.17"/>
<text text-anchor="middle" x="477.19" y="-66.88" font-family="Times New Roman,serif" font-size="14.00">[4c..50)</text>
<text text-anchor="middle" x="477.19" y="-51.88" font-family="Times New Roman,serif" font-size="14.00">Count: 35326</text>
<text text-anchor="middle" x="477.19" y="-36.88" font-family="Times New Roman,serif" font-size="14.00">Normalized count: 8.95</text>
<text text-anchor="middle" x="477.19" y="-21.88" font-family="Times New Roman,serif" font-size="14.00">Samples weight: 0.04</text>
</g>
<!-- BB6&#45;&gt;BB8 -->
<g id="edge9" class="edge">
<title>BB6&#45;&gt;BB8</title>
<path fill="none" stroke="black" d="M558.56,-135.91C547.87,-124.5 536.24,-112.09 525.2,-100.31"/>
<polygon fill="black" stroke="black" points="527.44,-97.58 518.05,-92.68 522.33,-102.37 527.44,-97.58"/>
</g>
<!-- BB7&#45;&gt;BB4 -->
<g id="edge11" class="edge">
<title>BB7&#45;&gt;BB4</title>
<path fill="none" stroke="black" d="M730.83,-95.91C747.93,-184.04 770.9,-376.14 678.19,-492.67 650.31,-527.7 606.24,-547.97 564.32,-559.69"/>
<polygon fill="black" stroke="black" points="563.34,-556.32 554.57,-562.27 565.14,-563.09 563.34,-556.32"/>
</g>
<!-- BB8&#45;&gt;BB9 -->
<g id="edge12" class="edge">
<title>BB8&#45;&gt;BB9</title>
<path fill="none" stroke="black" d="M471.17,-96.41C468.41,-133.77 469.07,-186.42 487.19,-228.33 492.41,-240.42 500.21,-251.8 508.9,-262.04"/>
<polygon fill="black" stroke="black" points="506.42,-264.52 515.7,-269.65 511.64,-259.86 506.42,-264.52"/>
</g>
<!-- BB9&#45;&gt;BB6 -->
<g id="edge13" class="edge">
<title>BB9&#45;&gt;BB6</title>
<path fill="none" stroke="black" d="M578.1,-264.42C580.27,-255.85 582.56,-246.83 584.8,-238.01"/>
<polygon fill="black" stroke="black" points="588.23,-238.73 587.29,-228.17 581.44,-237.01 588.23,-238.73"/>
</g>
<!-- BB10 -->
<g id="node11" class="node">
<title>BB10</title>
<ellipse fill="none" stroke="black" cx="113.19" cy="-180.25" rx="103.48" ry="48.17"/>
<text text-anchor="middle" x="113.19" y="-199.05" font-family="Times New Roman,serif" font-size="14.00">[55..5d)</text>
<text text-anchor="middle" x="113.19" y="-184.05" font-family="Times New Roman,serif" font-size="14.00">Count: 3949</text>
<text text-anchor="middle" x="113.19" y="-169.05" font-family="Times New Roman,serif" font-size="14.00">Normalized count: 1.00</text>
<text text-anchor="middle" x="113.19" y="-154.05" font-family="Times New Roman,serif" font-size="14.00">Samples weight: 0.00</text>
</g>
<!-- BB9&#45;&gt;BB10 -->
<g id="edge14" class="edge">
<title>BB9&#45;&gt;BB10</title>
<path fill="none" stroke="black" d="M490.25,-278.02C476.75,-272.9 462.69,-268.08 449.19,-264.33 352.03,-237.34 322.13,-256.07 225.19,-228.33 215.28,-225.5 205.07,-222.03 195.03,-218.27"/>
<polygon fill="black" stroke="black" points="196.07,-214.92 185.48,-214.59 193.56,-221.45 196.07,-214.92"/>
</g>
<!-- BB10&#45;&gt;BB11 -->
<g id="edge15" class="edge">
<title>BB10&#45;&gt;BB11</title>
<path fill="none" stroke="black" d="M216.44,-180.25C218.89,-180.25 221.35,-180.25 223.8,-180.25"/>
<polygon fill="black" stroke="black" points="223.89,-183.75 233.89,-180.25 223.89,-176.75 223.89,-183.75"/>
</g>
</g>
</svg>
