<?xml version="1.0" encoding="UTF-8" standalone="no"?>
<!DOCTYPE svg PUBLIC "-//W3C//DTD SVG 1.1//EN"
 "http://www.w3.org/Graphics/SVG/1.1/DTD/svg11.dtd">
<!-- Generated by graphviz version 2.47.0 (20210316.0004)
 -->
<!-- Title: G Pages: 1 -->
<svg width="630pt" height="765pt"
 viewBox="0.00 0.00 630.42 765.00" xmlns="http://www.w3.org/2000/svg" xmlns:xlink="http://www.w3.org/1999/xlink">
<g id="graph0" class="graph" transform="scale(1 1) rotate(0) translate(4 761)">
<title>G</title>
<polygon fill="white" stroke="transparent" points="-4,4 -4,-761 626.42,-761 626.42,4 -4,4"/>
<!-- BB0 -->
<g id="node1" class="node">
<title>BB0</title>
<ellipse fill="none" stroke="black" cx="215.24" cy="-708.92" rx="103.48" ry="48.17"/>
<text text-anchor="middle" x="215.24" y="-727.72" font-family="Times New Roman,serif" font-size="14.00">[0..1f)</text>
<text text-anchor="middle" x="215.24" y="-712.72" font-family="Times New Roman,serif" font-size="14.00">Count: 422</text>
<text text-anchor="middle" x="215.24" y="-697.72" font-family="Times New Roman,serif" font-size="14.00">Normalized count: 1.00</text>
<text text-anchor="middle" x="215.24" y="-682.72" font-family="Times New Roman,serif" font-size="14.00">Samples weight: 0.00</text>
</g>
<!-- BB1 -->
<g id="node2" class="node">
<title>BB1</title>
<ellipse fill="none" stroke="black" cx="103.24" cy="-576.75" rx="103.48" ry="48.17"/>
<text text-anchor="middle" x="103.24" y="-595.55" font-family="Times New Roman,serif" font-size="14.00">[1f..23)</text>
<text text-anchor="middle" x="103.24" y="-580.55" font-family="Times New Roman,serif" font-size="14.00">Count: 151</text>
<text text-anchor="middle" x="103.24" y="-565.55" font-family="Times New Roman,serif" font-size="14.00">Normalized count: 0.36</text>
<text text-anchor="middle" x="103.24" y="-550.55" font-family="Times New Roman,serif" font-size="14.00">Samples weight: 0.00</text>
</g>
<!-- BB0&#45;&gt;BB1 -->
<g id="edge2" class="edge">
<title>BB0&#45;&gt;BB1</title>
<path fill="none" stroke="black" d="M177.32,-663.85C167.83,-652.82 157.57,-640.89 147.79,-629.53"/>
<polygon fill="black" stroke="black" points="150.29,-627.07 141.12,-621.77 144.99,-631.64 150.29,-627.07"/>
</g>
<!-- BB2 -->
<g id="node3" class="node">
<title>BB2</title>
<ellipse fill="none" stroke="black" cx="327.24" cy="-576.75" rx="103.48" ry="48.17"/>
<text text-anchor="middle" x="327.24" y="-595.55" font-family="Times New Roman,serif" font-size="14.00">[23..2e)</text>
<text text-anchor="middle" x="327.24" y="-580.55" font-family="Times New Roman,serif" font-size="14.00">Count: 271</text>
<text text-anchor="middle" x="327.24" y="-565.55" font-family="Times New Roman,serif" font-size="14.00">Normalized count: 0.64</text>
<text text-anchor="middle" x="327.24" y="-550.55" font-family="Times New Roman,serif" font-size="14.00">Samples weight: 0.00</text>
</g>
<!-- BB0&#45;&gt;BB2 -->
<g id="edge1" class="edge">
<title>BB0&#45;&gt;BB2</title>
<path fill="none" stroke="black" d="M253.16,-663.85C262.64,-652.82 272.91,-640.89 282.68,-629.53"/>
<polygon fill="black" stroke="black" points="285.49,-631.64 289.36,-621.77 280.18,-627.07 285.49,-631.64"/>
</g>
<!-- BB3 -->
<g id="node4" class="node">
<title>BB3</title>
<ellipse fill="none" stroke="black" cx="327.24" cy="-444.58" rx="113.27" ry="48.17"/>
<text text-anchor="middle" x="327.24" y="-463.38" font-family="Times New Roman,serif" font-size="14.00">[2e..3f)</text>
<text text-anchor="middle" x="327.24" y="-448.38" font-family="Times New Roman,serif" font-size="14.00">Count: 55084</text>
<text text-anchor="middle" x="327.24" y="-433.38" font-family="Times New Roman,serif" font-size="14.00">Normalized count: 130.53</text>
<text text-anchor="middle" x="327.24" y="-418.38" font-family="Times New Roman,serif" font-size="14.00">Samples weight: 0.25</text>
</g>
<!-- BB2&#45;&gt;BB3 -->
<g id="edge3" class="edge">
<title>BB2&#45;&gt;BB3</title>
<path fill="none" stroke="black" d="M327.24,-528.39C327.24,-520.12 327.24,-511.44 327.24,-502.93"/>
<polygon fill="black" stroke="black" points="330.74,-502.69 327.24,-492.69 323.74,-502.69 330.74,-502.69"/>
</g>
<!-- BB4 -->
<g id="node5" class="node">
<title>BB4</title>
<ellipse fill="none" stroke="black" cx="444.24" cy="-312.42" rx="113.27" ry="48.17"/>
<text text-anchor="middle" x="444.24" y="-331.22" font-family="Times New Roman,serif" font-size="14.00">[3f..55)</text>
<text text-anchor="middle" x="444.24" y="-316.22" font-family="Times New Roman,serif" font-size="14.00">Count: 54813</text>
<text text-anchor="middle" x="444.24" y="-301.22" font-family="Times New Roman,serif" font-size="14.00">Normalized count: 129.89</text>
<text text-anchor="middle" x="444.24" y="-286.22" font-family="Times New Roman,serif" font-size="14.00">Samples weight: 0.25</text>
</g>
<!-- BB3&#45;&gt;BB4 -->
<g id="edge5" class="edge">
<title>BB3&#45;&gt;BB4</title>
<path fill="none" stroke="black" d="M366.85,-399.51C376.65,-388.61 387.25,-376.82 397.36,-365.57"/>
<polygon fill="black" stroke="black" points="400.19,-367.66 404.27,-357.88 394.98,-362.98 400.19,-367.66"/>
</g>
<!-- BB9 -->
<g id="node10" class="node">
<title>BB9</title>
<ellipse fill="none" stroke="black" cx="210.24" cy="-312.42" rx="103.48" ry="48.17"/>
<text text-anchor="middle" x="210.24" y="-331.22" font-family="Times New Roman,serif" font-size="14.00">[79..7a)</text>
<text text-anchor="middle" x="210.24" y="-316.22" font-family="Times New Roman,serif" font-size="14.00">Count: 271</text>
<text text-anchor="middle" x="210.24" y="-301.22" font-family="Times New Roman,serif" font-size="14.00">Normalized count: 0.64</text>
<text text-anchor="middle" x="210.24" y="-286.22" font-family="Times New Roman,serif" font-size="14.00">Samples weight: 0.00</text>
</g>
<!-- BB3&#45;&gt;BB9 -->
<g id="edge4" class="edge">
<title>BB3&#45;&gt;BB9</title>
<path fill="none" stroke="black" d="M287.63,-399.51C277.51,-388.26 266.55,-376.07 256.15,-364.5"/>
<polygon fill="black" stroke="black" points="258.7,-362.09 249.41,-357 253.49,-366.77 258.7,-362.09"/>
</g>
<!-- BB5 -->
<g id="node6" class="node">
<title>BB5</title>
<ellipse fill="none" stroke="black" cx="444.24" cy="-180.25" rx="113.27" ry="48.17"/>
<text text-anchor="middle" x="444.24" y="-199.05" font-family="Times New Roman,serif" font-size="14.00">[55..6a)</text>
<text text-anchor="middle" x="444.24" y="-184.05" font-family="Times New Roman,serif" font-size="14.00">Count: 54813</text>
<text text-anchor="middle" x="444.24" y="-169.05" font-family="Times New Roman,serif" font-size="14.00">Normalized count: 129.89</text>
<text text-anchor="middle" x="444.24" y="-154.05" font-family="Times New Roman,serif" font-size="14.00">Samples weight: 0.25</text>
</g>
<!-- BB4&#45;&gt;BB5 -->
<g id="edge7" class="edge">
<title>BB4&#45;&gt;BB5</title>
<path fill="none" stroke="black" d="M444.24,-264.05C444.24,-255.79 444.24,-247.1 444.24,-238.6"/>
<polygon fill="black" stroke="black" points="447.74,-238.36 444.24,-228.36 440.74,-238.36 447.74,-238.36"/>
</g>
<!-- BB8 -->
<g id="node9" class="node">
<title>BB8</title>
<ellipse fill="none" stroke="black" cx="210.24" cy="-180.25" rx="103.48" ry="48.17"/>
<text text-anchor="middle" x="210.24" y="-199.05" font-family="Times New Roman,serif" font-size="14.00">[76..79)</text>
<text text-anchor="middle" x="210.24" y="-184.05" font-family="Times New Roman,serif" font-size="14.00">Count: 0</text>
<text text-anchor="middle" x="210.24" y="-169.05" font-family="Times New Roman,serif" font-size="14.00">Normalized count: 0.00</text>
<text text-anchor="middle" x="210.24" y="-154.05" font-family="Times New Roman,serif" font-size="14.00">Samples weight: 0.00</text>
</g>
<!-- BB4&#45;&gt;BB8 -->
<g id="edge6" class="edge">
<title>BB4&#45;&gt;BB8</title>
<path fill="none" stroke="black" d="M376.56,-273.77C347.81,-257.78 314.2,-239.08 284.75,-222.7"/>
<polygon fill="black" stroke="black" points="286.19,-219.5 275.75,-217.69 282.79,-225.61 286.19,-219.5"/>
</g>
<!-- BB6 -->
<g id="node7" class="node">
<title>BB6</title>
<ellipse fill="none" stroke="black" cx="215.24" cy="-48.08" rx="108.38" ry="48.17"/>
<text text-anchor="middle" x="215.24" y="-66.88" font-family="Times New Roman,serif" font-size="14.00">[6a..71)</text>
<text text-anchor="middle" x="215.24" y="-51.88" font-family="Times New Roman,serif" font-size="14.00">Count: 12770</text>
<text text-anchor="middle" x="215.24" y="-36.88" font-family="Times New Roman,serif" font-size="14.00">Normalized count: 30.26</text>
<text text-anchor="middle" x="215.24" y="-21.88" font-family="Times New Roman,serif" font-size="14.00">Samples weight: 0.06</text>
</g>
<!-- BB5&#45;&gt;BB6 -->
<g id="edge9" class="edge">
<title>BB5&#45;&gt;BB6</title>
<path fill="none" stroke="black" d="M377.39,-141.25C349.99,-125.68 318.16,-107.58 289.99,-91.57"/>
<polygon fill="black" stroke="black" points="291.41,-88.35 280.99,-86.46 287.95,-94.44 291.41,-88.35"/>
</g>
<!-- BB7 -->
<g id="node8" class="node">
<title>BB7</title>
<ellipse fill="none" stroke="black" cx="514.24" cy="-48.08" rx="108.38" ry="48.17"/>
<text text-anchor="middle" x="514.24" y="-66.88" font-family="Times New Roman,serif" font-size="14.00">[71..76)</text>
<text text-anchor="middle" x="514.24" y="-51.88" font-family="Times New Roman,serif" font-size="14.00">Count: 42043</text>
<text text-anchor="middle" x="514.24" y="-36.88" font-family="Times New Roman,serif" font-size="14.00">Normalized count: 99.63</text>
<text text-anchor="middle" x="514.24" y="-21.88" font-family="Times New Roman,serif" font-size="14.00">Samples weight: 0.19</text>
</g>
<!-- BB5&#45;&gt;BB7 -->
<g id="edge8" class="edge">
<title>BB5&#45;&gt;BB7</title>
<path fill="none" stroke="black" d="M469.11,-132.99C474.12,-123.69 479.42,-113.82 484.57,-104.25"/>
<polygon fill="black" stroke="black" points="487.79,-105.66 489.44,-95.19 481.62,-102.34 487.79,-105.66"/>
</g>
<!-- BB6&#45;&gt;BB3 -->
<g id="edge10" class="edge">
<title>BB6&#45;&gt;BB3</title>
<path fill="none" stroke="black" d="M143.51,-84.08C125.46,-96.6 108.35,-112.58 98.24,-132.17 51.68,-222.34 39.99,-277.4 98.24,-360.5 123.69,-396.81 166.7,-417.31 208.61,-428.86"/>
<polygon fill="black" stroke="black" points="207.82,-432.27 218.38,-431.4 209.58,-425.5 207.82,-432.27"/>
</g>
<!-- BB7&#45;&gt;BB3 -->
<g id="edge11" class="edge">
<title>BB7&#45;&gt;BB3</title>
<path fill="none" stroke="black" d="M548.58,-93.9C555.83,-105.74 562.43,-118.92 566.24,-132.17 594.25,-229.71 625.05,-277.8 566.24,-360.5 538.79,-399.11 492.05,-419.93 447.15,-431.1"/>
<polygon fill="black" stroke="black" points="446.25,-427.72 437.31,-433.41 447.84,-434.54 446.25,-427.72"/>
</g>
<!-- BB8&#45;&gt;BB9 -->
<g id="edge12" class="edge">
<title>BB8&#45;&gt;BB9</title>
<path fill="none" stroke="black" d="M210.24,-228.36C210.24,-236.62 210.24,-245.3 210.24,-253.8"/>
<polygon fill="black" stroke="black" points="206.74,-254.05 210.24,-264.05 213.74,-254.06 206.74,-254.05"/>
</g>
</g>
</svg>
