<?xml version="1.0" encoding="UTF-8" standalone="no"?>
<!DOCTYPE svg PUBLIC "-//W3C//DTD SVG 1.1//EN"
 "http://www.w3.org/Graphics/SVG/1.1/DTD/svg11.dtd">
<!-- Generated by graphviz version 2.47.0 (20210316.0004)
 -->
<!-- Title: G Pages: 1 -->
<svg width="754pt" height="1558pt"
 viewBox="0.00 0.00 754.48 1558.00" xmlns="http://www.w3.org/2000/svg" xmlns:xlink="http://www.w3.org/1999/xlink">
<g id="graph0" class="graph" transform="scale(1 1) rotate(0) translate(4 1554)">
<title>G</title>
<polygon fill="white" stroke="transparent" points="-4,4 -4,-1554 750.48,-1554 750.48,4 -4,4"/>
<!-- BB0 -->
<g id="node1" class="node">
<title>BB0</title>
<ellipse fill="none" stroke="black" cx="400.24" cy="-1501.92" rx="103.48" ry="48.17"/>
<text text-anchor="middle" x="400.24" y="-1520.72" font-family="Times New Roman,serif" font-size="14.00">[0..18)</text>
<text text-anchor="middle" x="400.24" y="-1505.72" font-family="Times New Roman,serif" font-size="14.00">Count: 4</text>
<text text-anchor="middle" x="400.24" y="-1490.72" font-family="Times New Roman,serif" font-size="14.00">Normalized count: 1.00</text>
<text text-anchor="middle" x="400.24" y="-1475.72" font-family="Times New Roman,serif" font-size="14.00">Samples weight: 0.01</text>
</g>
<!-- BB1 -->
<g id="node2" class="node">
<title>BB1</title>
<ellipse fill="none" stroke="black" cx="288.24" cy="-1369.75" rx="103.48" ry="48.17"/>
<text text-anchor="middle" x="288.24" y="-1388.55" font-family="Times New Roman,serif" font-size="14.00">[18..24)</text>
<text text-anchor="middle" x="288.24" y="-1373.55" font-family="Times New Roman,serif" font-size="14.00">Count: 0</text>
<text text-anchor="middle" x="288.24" y="-1358.55" font-family="Times New Roman,serif" font-size="14.00">Normalized count: 0.00</text>
<text text-anchor="middle" x="288.24" y="-1343.55" font-family="Times New Roman,serif" font-size="14.00">Samples weight: 0.00</text>
</g>
<!-- BB0&#45;&gt;BB1 -->
<g id="edge2" class="edge">
<title>BB0&#45;&gt;BB1</title>
<path fill="none" stroke="black" d="M362.32,-1456.85C352.83,-1445.82 342.57,-1433.89 332.79,-1422.53"/>
<polygon fill="black" stroke="black" points="335.29,-1420.07 326.12,-1414.77 329.99,-1424.63 335.29,-1420.07"/>
</g>
<!-- BB2 -->
<g id="node3" class="node">
<title>BB2</title>
<ellipse fill="none" stroke="black" cx="512.24" cy="-1369.75" rx="103.48" ry="48.17"/>
<text text-anchor="middle" x="512.24" y="-1388.55" font-family="Times New Roman,serif" font-size="14.00">[24..2e)</text>
<text text-anchor="middle" x="512.24" y="-1373.55" font-family="Times New Roman,serif" font-size="14.00">Count: 0</text>
<text text-anchor="middle" x="512.24" y="-1358.55" font-family="Times New Roman,serif" font-size="14.00">Normalized count: 0.00</text>
<text text-anchor="middle" x="512.24" y="-1343.55" font-family="Times New Roman,serif" font-size="14.00">Samples weight: 0.00</text>
</g>
<!-- BB0&#45;&gt;BB2 -->
<g id="edge1" class="edge">
<title>BB0&#45;&gt;BB2</title>
<path fill="none" stroke="black" d="M438.16,-1456.85C447.64,-1445.82 457.91,-1433.89 467.68,-1422.53"/>
<polygon fill="black" stroke="black" points="470.49,-1424.63 474.36,-1414.77 465.18,-1420.07 470.49,-1424.63"/>
</g>
<!-- BB3 -->
<g id="node4" class="node">
<title>BB3</title>
<ellipse fill="none" stroke="black" cx="400.24" cy="-1237.58" rx="103.48" ry="48.17"/>
<text text-anchor="middle" x="400.24" y="-1256.38" font-family="Times New Roman,serif" font-size="14.00">[2e..44)</text>
<text text-anchor="middle" x="400.24" y="-1241.38" font-family="Times New Roman,serif" font-size="14.00">Count: 17</text>
<text text-anchor="middle" x="400.24" y="-1226.38" font-family="Times New Roman,serif" font-size="14.00">Normalized count: 4.25</text>
<text text-anchor="middle" x="400.24" y="-1211.38" font-family="Times New Roman,serif" font-size="14.00">Samples weight: 0.04</text>
</g>
<!-- BB1&#45;&gt;BB3 -->
<g id="edge3" class="edge">
<title>BB1&#45;&gt;BB3</title>
<path fill="none" stroke="black" d="M326.16,-1324.68C335.64,-1313.65 345.91,-1301.73 355.68,-1290.36"/>
<polygon fill="black" stroke="black" points="358.49,-1292.47 362.36,-1282.61 353.18,-1287.9 358.49,-1292.47"/>
</g>
<!-- BB2&#45;&gt;BB3 -->
<g id="edge4" class="edge">
<title>BB2&#45;&gt;BB3</title>
<path fill="none" stroke="black" d="M474.32,-1324.68C464.83,-1313.65 454.57,-1301.73 444.79,-1290.36"/>
<polygon fill="black" stroke="black" points="447.29,-1287.9 438.12,-1282.61 441.99,-1292.47 447.29,-1287.9"/>
</g>
<!-- BB4 -->
<g id="node5" class="node">
<title>BB4</title>
<ellipse fill="none" stroke="black" cx="288.24" cy="-1105.42" rx="103.48" ry="48.17"/>
<text text-anchor="middle" x="288.24" y="-1124.22" font-family="Times New Roman,serif" font-size="14.00">[44..49)</text>
<text text-anchor="middle" x="288.24" y="-1109.22" font-family="Times New Roman,serif" font-size="14.00">Count: 0</text>
<text text-anchor="middle" x="288.24" y="-1094.22" font-family="Times New Roman,serif" font-size="14.00">Normalized count: 0.00</text>
<text text-anchor="middle" x="288.24" y="-1079.22" font-family="Times New Roman,serif" font-size="14.00">Samples weight: 0.00</text>
</g>
<!-- BB3&#45;&gt;BB4 -->
<g id="edge6" class="edge">
<title>BB3&#45;&gt;BB4</title>
<path fill="none" stroke="black" d="M362.32,-1192.51C352.83,-1181.49 342.57,-1169.56 332.79,-1158.2"/>
<polygon fill="black" stroke="black" points="335.29,-1155.74 326.12,-1150.44 329.99,-1160.3 335.29,-1155.74"/>
</g>
<!-- BB5 -->
<g id="node6" class="node">
<title>BB5</title>
<ellipse fill="none" stroke="black" cx="512.24" cy="-1105.42" rx="103.48" ry="48.17"/>
<text text-anchor="middle" x="512.24" y="-1124.22" font-family="Times New Roman,serif" font-size="14.00">[49..58)</text>
<text text-anchor="middle" x="512.24" y="-1109.22" font-family="Times New Roman,serif" font-size="14.00">Count: 3</text>
<text text-anchor="middle" x="512.24" y="-1094.22" font-family="Times New Roman,serif" font-size="14.00">Normalized count: 0.75</text>
<text text-anchor="middle" x="512.24" y="-1079.22" font-family="Times New Roman,serif" font-size="14.00">Samples weight: 0.01</text>
</g>
<!-- BB3&#45;&gt;BB5 -->
<g id="edge5" class="edge">
<title>BB3&#45;&gt;BB5</title>
<path fill="none" stroke="black" d="M438.16,-1192.51C447.64,-1181.49 457.91,-1169.56 467.68,-1158.2"/>
<polygon fill="black" stroke="black" points="470.49,-1160.3 474.36,-1150.44 465.18,-1155.74 470.49,-1160.3"/>
</g>
<!-- BB18 -->
<g id="node19" class="node">
<title>BB18</title>
<ellipse fill="none" stroke="black" cx="512.24" cy="-973.25" rx="103.48" ry="48.17"/>
<text text-anchor="middle" x="512.24" y="-992.05" font-family="Times New Roman,serif" font-size="14.00">[11f..128)</text>
<text text-anchor="middle" x="512.24" y="-977.05" font-family="Times New Roman,serif" font-size="14.00">Count: 16</text>
<text text-anchor="middle" x="512.24" y="-962.05" font-family="Times New Roman,serif" font-size="14.00">Normalized count: 4.00</text>
<text text-anchor="middle" x="512.24" y="-947.05" font-family="Times New Roman,serif" font-size="14.00">Samples weight: 0.04</text>
</g>
<!-- BB5&#45;&gt;BB18 -->
<g id="edge7" class="edge">
<title>BB5&#45;&gt;BB18</title>
<path fill="none" stroke="black" d="M512.24,-1057.05C512.24,-1048.79 512.24,-1040.1 512.24,-1031.6"/>
<polygon fill="black" stroke="black" points="515.74,-1031.36 512.24,-1021.36 508.74,-1031.36 515.74,-1031.36"/>
</g>
<!-- BB6 -->
<g id="node7" class="node">
<title>BB6</title>
<ellipse fill="none" stroke="black" cx="288.24" cy="-841.08" rx="103.48" ry="48.17"/>
<text text-anchor="middle" x="288.24" y="-859.88" font-family="Times New Roman,serif" font-size="14.00">[58..72)</text>
<text text-anchor="middle" x="288.24" y="-844.88" font-family="Times New Roman,serif" font-size="14.00">Count: 27</text>
<text text-anchor="middle" x="288.24" y="-829.88" font-family="Times New Roman,serif" font-size="14.00">Normalized count: 6.75</text>
<text text-anchor="middle" x="288.24" y="-814.88" font-family="Times New Roman,serif" font-size="14.00">Samples weight: 0.06</text>
</g>
<!-- BB7 -->
<g id="node8" class="node">
<title>BB7</title>
<ellipse fill="none" stroke="black" cx="288.24" cy="-708.92" rx="103.48" ry="48.17"/>
<text text-anchor="middle" x="288.24" y="-727.72" font-family="Times New Roman,serif" font-size="14.00">[72..7c)</text>
<text text-anchor="middle" x="288.24" y="-712.72" font-family="Times New Roman,serif" font-size="14.00">Count: 13</text>
<text text-anchor="middle" x="288.24" y="-697.72" font-family="Times New Roman,serif" font-size="14.00">Normalized count: 3.25</text>
<text text-anchor="middle" x="288.24" y="-682.72" font-family="Times New Roman,serif" font-size="14.00">Samples weight: 0.03</text>
</g>
<!-- BB6&#45;&gt;BB7 -->
<g id="edge9" class="edge">
<title>BB6&#45;&gt;BB7</title>
<path fill="none" stroke="black" d="M288.24,-792.72C288.24,-784.45 288.24,-775.77 288.24,-767.27"/>
<polygon fill="black" stroke="black" points="291.74,-767.02 288.24,-757.02 284.74,-767.02 291.74,-767.02"/>
</g>
<!-- BB20 -->
<g id="node21" class="node">
<title>BB20</title>
<ellipse fill="none" stroke="black" cx="512.24" cy="-708.92" rx="103.48" ry="48.17"/>
<text text-anchor="middle" x="512.24" y="-727.72" font-family="Times New Roman,serif" font-size="14.00">[12c..12d)</text>
<text text-anchor="middle" x="512.24" y="-712.72" font-family="Times New Roman,serif" font-size="14.00">Count: 29</text>
<text text-anchor="middle" x="512.24" y="-697.72" font-family="Times New Roman,serif" font-size="14.00">Normalized count: 7.25</text>
<text text-anchor="middle" x="512.24" y="-682.72" font-family="Times New Roman,serif" font-size="14.00">Samples weight: 0.07</text>
</g>
<!-- BB6&#45;&gt;BB20 -->
<g id="edge8" class="edge">
<title>BB6&#45;&gt;BB20</title>
<path fill="none" stroke="black" d="M351.83,-803.13C379.26,-787.19 411.48,-768.46 439.83,-751.99"/>
<polygon fill="black" stroke="black" points="441.6,-755.01 448.49,-746.96 438.08,-748.96 441.6,-755.01"/>
</g>
<!-- BB8 -->
<g id="node9" class="node">
<title>BB8</title>
<ellipse fill="none" stroke="black" cx="103.24" cy="-576.75" rx="103.48" ry="48.17"/>
<text text-anchor="middle" x="103.24" y="-595.55" font-family="Times New Roman,serif" font-size="14.00">[7c..89)</text>
<text text-anchor="middle" x="103.24" y="-580.55" font-family="Times New Roman,serif" font-size="14.00">Count: 0</text>
<text text-anchor="middle" x="103.24" y="-565.55" font-family="Times New Roman,serif" font-size="14.00">Normalized count: 0.00</text>
<text text-anchor="middle" x="103.24" y="-550.55" font-family="Times New Roman,serif" font-size="14.00">Samples weight: 0.00</text>
</g>
<!-- BB7&#45;&gt;BB8 -->
<g id="edge11" class="edge">
<title>BB7&#45;&gt;BB8</title>
<path fill="none" stroke="black" d="M232.23,-668.51C211.86,-654.17 188.67,-637.86 167.63,-623.06"/>
<polygon fill="black" stroke="black" points="169.57,-620.14 159.37,-617.25 165.54,-625.86 169.57,-620.14"/>
</g>
<!-- BB9 -->
<g id="node10" class="node">
<title>BB9</title>
<ellipse fill="none" stroke="black" cx="332.24" cy="-576.75" rx="108.38" ry="48.17"/>
<text text-anchor="middle" x="332.24" y="-595.55" font-family="Times New Roman,serif" font-size="14.00">[89..a5)</text>
<text text-anchor="middle" x="332.24" y="-580.55" font-family="Times New Roman,serif" font-size="14.00">Count: 131</text>
<text text-anchor="middle" x="332.24" y="-565.55" font-family="Times New Roman,serif" font-size="14.00">Normalized count: 32.75</text>
<text text-anchor="middle" x="332.24" y="-550.55" font-family="Times New Roman,serif" font-size="14.00">Samples weight: 0.31</text>
</g>
<!-- BB7&#45;&gt;BB9 -->
<g id="edge10" class="edge">
<title>BB7&#45;&gt;BB9</title>
<path fill="none" stroke="black" d="M304,-661.29C306.97,-652.5 310.1,-643.23 313.16,-634.18"/>
<polygon fill="black" stroke="black" points="316.55,-635.08 316.44,-624.49 309.92,-632.84 316.55,-635.08"/>
</g>
<!-- BB10 -->
<g id="node11" class="node">
<title>BB10</title>
<ellipse fill="none" stroke="black" cx="152.24" cy="-444.58" rx="103.48" ry="48.17"/>
<text text-anchor="middle" x="152.24" y="-463.38" font-family="Times New Roman,serif" font-size="14.00">[a5..b1)</text>
<text text-anchor="middle" x="152.24" y="-448.38" font-family="Times New Roman,serif" font-size="14.00">Count: 2</text>
<text text-anchor="middle" x="152.24" y="-433.38" font-family="Times New Roman,serif" font-size="14.00">Normalized count: 0.50</text>
<text text-anchor="middle" x="152.24" y="-418.38" font-family="Times New Roman,serif" font-size="14.00">Samples weight: 0.00</text>
</g>
<!-- BB9&#45;&gt;BB10 -->
<g id="edge13" class="edge">
<title>BB9&#45;&gt;BB10</title>
<path fill="none" stroke="black" d="M276.27,-535.28C257.04,-521.37 235.37,-505.7 215.59,-491.4"/>
<polygon fill="black" stroke="black" points="217.4,-488.38 207.24,-485.36 213.29,-494.06 217.4,-488.38"/>
</g>
<!-- BB11 -->
<g id="node12" class="node">
<title>BB11</title>
<ellipse fill="none" stroke="black" cx="376.24" cy="-444.58" rx="103.48" ry="48.17"/>
<text text-anchor="middle" x="376.24" y="-463.38" font-family="Times New Roman,serif" font-size="14.00">[b1..bb)</text>
<text text-anchor="middle" x="376.24" y="-448.38" font-family="Times New Roman,serif" font-size="14.00">Count: 0</text>
<text text-anchor="middle" x="376.24" y="-433.38" font-family="Times New Roman,serif" font-size="14.00">Normalized count: 0.00</text>
<text text-anchor="middle" x="376.24" y="-418.38" font-family="Times New Roman,serif" font-size="14.00">Samples weight: 0.00</text>
</g>
<!-- BB9&#45;&gt;BB11 -->
<g id="edge12" class="edge">
<title>BB9&#45;&gt;BB11</title>
<path fill="none" stroke="black" d="M348,-529.12C350.97,-520.34 354.1,-511.06 357.16,-502.02"/>
<polygon fill="black" stroke="black" points="360.55,-502.91 360.44,-492.32 353.92,-500.67 360.55,-502.91"/>
</g>
<!-- BB12 -->
<g id="node13" class="node">
<title>BB12</title>
<ellipse fill="none" stroke="black" cx="239.24" cy="-312.42" rx="108.38" ry="48.17"/>
<text text-anchor="middle" x="239.24" y="-331.22" font-family="Times New Roman,serif" font-size="14.00">[bb..d3)</text>
<text text-anchor="middle" x="239.24" y="-316.22" font-family="Times New Roman,serif" font-size="14.00">Count: 106</text>
<text text-anchor="middle" x="239.24" y="-301.22" font-family="Times New Roman,serif" font-size="14.00">Normalized count: 26.50</text>
<text text-anchor="middle" x="239.24" y="-286.22" font-family="Times New Roman,serif" font-size="14.00">Samples weight: 0.25</text>
</g>
<!-- BB10&#45;&gt;BB12 -->
<g id="edge14" class="edge">
<title>BB10&#45;&gt;BB12</title>
<path fill="none" stroke="black" d="M182.42,-398.42C189.09,-388.44 196.23,-377.77 203.11,-367.47"/>
<polygon fill="black" stroke="black" points="206.17,-369.2 208.81,-358.94 200.35,-365.31 206.17,-369.2"/>
</g>
<!-- BB11&#45;&gt;BB12 -->
<g id="edge15" class="edge">
<title>BB11&#45;&gt;BB12</title>
<path fill="none" stroke="black" d="M331.38,-400.96C318.85,-389.06 305.13,-376.02 292.18,-363.72"/>
<polygon fill="black" stroke="black" points="294.33,-360.93 284.67,-356.58 289.51,-366 294.33,-360.93"/>
</g>
<!-- BB13 -->
<g id="node14" class="node">
<title>BB13</title>
<ellipse fill="none" stroke="black" cx="468.24" cy="-180.25" rx="103.48" ry="48.17"/>
<text text-anchor="middle" x="468.24" y="-199.05" font-family="Times New Roman,serif" font-size="14.00">[d3..e9)</text>
<text text-anchor="middle" x="468.24" y="-184.05" font-family="Times New Roman,serif" font-size="14.00">Count: 9</text>
<text text-anchor="middle" x="468.24" y="-169.05" font-family="Times New Roman,serif" font-size="14.00">Normalized count: 2.25</text>
<text text-anchor="middle" x="468.24" y="-154.05" font-family="Times New Roman,serif" font-size="14.00">Samples weight: 0.02</text>
</g>
<!-- BB12&#45;&gt;BB13 -->
<g id="edge17" class="edge">
<title>BB12&#45;&gt;BB13</title>
<path fill="none" stroke="black" d="M304.86,-274.12C333.01,-258.12 366.01,-239.36 394.95,-222.91"/>
<polygon fill="black" stroke="black" points="396.83,-225.87 403.79,-217.88 393.37,-219.78 396.83,-225.87"/>
</g>
<!-- BB15 -->
<g id="node16" class="node">
<title>BB15</title>
<ellipse fill="none" stroke="black" cx="239.24" cy="-180.25" rx="108.38" ry="48.17"/>
<text text-anchor="middle" x="239.24" y="-199.05" font-family="Times New Roman,serif" font-size="14.00">[f7..10d)</text>
<text text-anchor="middle" x="239.24" y="-184.05" font-family="Times New Roman,serif" font-size="14.00">Count: 64</text>
<text text-anchor="middle" x="239.24" y="-169.05" font-family="Times New Roman,serif" font-size="14.00">Normalized count: 16.00</text>
<text text-anchor="middle" x="239.24" y="-154.05" font-family="Times New Roman,serif" font-size="14.00">Samples weight: 0.15</text>
</g>
<!-- BB12&#45;&gt;BB15 -->
<g id="edge16" class="edge">
<title>BB12&#45;&gt;BB15</title>
<path fill="none" stroke="black" d="M239.24,-264.05C239.24,-255.79 239.24,-247.1 239.24,-238.6"/>
<polygon fill="black" stroke="black" points="242.74,-238.36 239.24,-228.36 235.74,-238.36 242.74,-238.36"/>
</g>
<!-- BB14 -->
<g id="node15" class="node">
<title>BB14</title>
<ellipse fill="none" stroke="black" cx="419.24" cy="-48.08" rx="103.48" ry="48.17"/>
<text text-anchor="middle" x="419.24" y="-66.88" font-family="Times New Roman,serif" font-size="14.00">[e9..f7)</text>
<text text-anchor="middle" x="419.24" y="-51.88" font-family="Times New Roman,serif" font-size="14.00">Count: 1</text>
<text text-anchor="middle" x="419.24" y="-36.88" font-family="Times New Roman,serif" font-size="14.00">Normalized count: 0.25</text>
<text text-anchor="middle" x="419.24" y="-21.88" font-family="Times New Roman,serif" font-size="14.00">Samples weight: 0.00</text>
</g>
<!-- BB13&#45;&gt;BB14 -->
<g id="edge19" class="edge">
<title>BB13&#45;&gt;BB14</title>
<path fill="none" stroke="black" d="M450.69,-132.62C447.34,-123.75 443.81,-114.37 440.37,-105.23"/>
<polygon fill="black" stroke="black" points="443.63,-103.95 436.83,-95.82 437.08,-106.41 443.63,-103.95"/>
</g>
<!-- BB17 -->
<g id="node18" class="node">
<title>BB17</title>
<ellipse fill="none" stroke="black" cx="643.24" cy="-48.08" rx="103.48" ry="48.17"/>
<text text-anchor="middle" x="643.24" y="-66.88" font-family="Times New Roman,serif" font-size="14.00">[119..11f)</text>
<text text-anchor="middle" x="643.24" y="-51.88" font-family="Times New Roman,serif" font-size="14.00">Count: 3</text>
<text text-anchor="middle" x="643.24" y="-36.88" font-family="Times New Roman,serif" font-size="14.00">Normalized count: 0.75</text>
<text text-anchor="middle" x="643.24" y="-21.88" font-family="Times New Roman,serif" font-size="14.00">Samples weight: 0.01</text>
</g>
<!-- BB13&#45;&gt;BB17 -->
<g id="edge18" class="edge">
<title>BB13&#45;&gt;BB17</title>
<path fill="none" stroke="black" d="M522.17,-139.13C540.8,-125.28 561.82,-109.64 581.06,-95.33"/>
<polygon fill="black" stroke="black" points="583.25,-98.07 589.18,-89.29 579.07,-92.45 583.25,-98.07"/>
</g>
<!-- BB14&#45;&gt;BB17 -->
<g id="edge20" class="edge">
<title>BB14&#45;&gt;BB17</title>
<path fill="none" stroke="black" d="M522.49,-48.08C524.94,-48.08 527.4,-48.08 529.85,-48.08"/>
<polygon fill="black" stroke="black" points="529.94,-51.58 539.94,-48.08 529.94,-44.58 529.94,-51.58"/>
</g>
<!-- BB16 -->
<g id="node17" class="node">
<title>BB16</title>
<ellipse fill="none" stroke="black" cx="195.24" cy="-48.08" rx="103.48" ry="48.17"/>
<text text-anchor="middle" x="195.24" y="-66.88" font-family="Times New Roman,serif" font-size="14.00">[10d..119)</text>
<text text-anchor="middle" x="195.24" y="-51.88" font-family="Times New Roman,serif" font-size="14.00">Count: 0</text>
<text text-anchor="middle" x="195.24" y="-36.88" font-family="Times New Roman,serif" font-size="14.00">Normalized count: 0.00</text>
<text text-anchor="middle" x="195.24" y="-21.88" font-family="Times New Roman,serif" font-size="14.00">Samples weight: 0.00</text>
</g>
<!-- BB15&#45;&gt;BB16 -->
<g id="edge22" class="edge">
<title>BB15&#45;&gt;BB16</title>
<path fill="none" stroke="black" d="M223.48,-132.62C220.51,-123.84 217.37,-114.56 214.31,-105.52"/>
<polygon fill="black" stroke="black" points="217.55,-104.17 211.04,-95.82 210.92,-106.41 217.55,-104.17"/>
</g>
<!-- BB15&#45;&gt;BB17 -->
<g id="edge21" class="edge">
<title>BB15&#45;&gt;BB17</title>
<path fill="none" stroke="black" d="M315.95,-146.1C329.24,-141.02 343.03,-136.15 356.24,-132.17 432.27,-109.25 455.39,-119.66 531.24,-96.17 540.93,-93.16 550.94,-89.62 560.8,-85.86"/>
<polygon fill="black" stroke="black" points="562.15,-89.09 570.19,-82.19 559.61,-82.57 562.15,-89.09"/>
</g>
<!-- BB16&#45;&gt;BB17 -->
<g id="edge23" class="edge">
<title>BB16&#45;&gt;BB17</title>
<path fill="none" stroke="black" d="M254.01,-87.82C273.04,-98.54 294.79,-108.69 316.24,-114.17 404.95,-136.81 433.53,-136.81 522.24,-114.17 540.34,-109.55 558.65,-101.6 575.36,-92.79"/>
<polygon fill="black" stroke="black" points="577.36,-95.68 584.47,-87.82 574.01,-89.54 577.36,-95.68"/>
</g>
<!-- BB17&#45;&gt;BB18 -->
<g id="edge24" class="edge">
<title>BB17&#45;&gt;BB18</title>
<path fill="none" stroke="black" d="M643.24,-96.47C643.24,-149.01 643.24,-236.27 643.24,-311.42 643.24,-709.92 643.24,-709.92 643.24,-709.92 643.24,-790.03 663.98,-819.61 624.24,-889.17 615.17,-905.04 601.7,-918.78 587.23,-930.26"/>
<polygon fill="black" stroke="black" points="584.96,-927.58 579.1,-936.41 589.19,-933.16 584.96,-927.58"/>
</g>
<!-- BB18&#45;&gt;BB6 -->
<g id="edge25" class="edge">
<title>BB18&#45;&gt;BB6</title>
<path fill="none" stroke="black" d="M448.65,-935.3C421.22,-919.36 388.99,-900.63 360.65,-884.16"/>
<polygon fill="black" stroke="black" points="362.39,-881.13 351.99,-879.13 358.87,-887.18 362.39,-881.13"/>
</g>
<!-- BB19 -->
<g id="node20" class="node">
<title>BB19</title>
<ellipse fill="none" stroke="black" cx="512.24" cy="-841.08" rx="103.48" ry="48.17"/>
<text text-anchor="middle" x="512.24" y="-859.88" font-family="Times New Roman,serif" font-size="14.00">[128..12c)</text>
<text text-anchor="middle" x="512.24" y="-844.88" font-family="Times New Roman,serif" font-size="14.00">Count: 0</text>
<text text-anchor="middle" x="512.24" y="-829.88" font-family="Times New Roman,serif" font-size="14.00">Normalized count: 0.00</text>
<text text-anchor="middle" x="512.24" y="-814.88" font-family="Times New Roman,serif" font-size="14.00">Samples weight: 0.00</text>
</g>
<!-- BB18&#45;&gt;BB19 -->
<g id="edge26" class="edge">
<title>BB18&#45;&gt;BB19</title>
<path fill="none" stroke="black" d="M512.24,-924.89C512.24,-916.62 512.24,-907.94 512.24,-899.43"/>
<polygon fill="black" stroke="black" points="515.74,-899.19 512.24,-889.19 508.74,-899.19 515.74,-899.19"/>
</g>
<!-- BB19&#45;&gt;BB20 -->
<g id="edge27" class="edge">
<title>BB19&#45;&gt;BB20</title>
<path fill="none" stroke="black" d="M512.24,-792.72C512.24,-784.45 512.24,-775.77 512.24,-767.27"/>
<polygon fill="black" stroke="black" points="515.74,-767.02 512.24,-757.02 508.74,-767.02 515.74,-767.02"/>
</g>
</g>
</svg>
