<?xml version="1.0" encoding="UTF-8" standalone="no"?>
<!DOCTYPE svg PUBLIC "-//W3C//DTD SVG 1.1//EN"
 "http://www.w3.org/Graphics/SVG/1.1/DTD/svg11.dtd">
<!-- Generated by graphviz version 2.47.0 (20210316.0004)
 -->
<!-- Title: G Pages: 1 -->
<svg width="596pt" height="749pt"
 viewBox="0.00 0.00 595.67 748.67" xmlns="http://www.w3.org/2000/svg" xmlns:xlink="http://www.w3.org/1999/xlink">
<g id="graph0" class="graph" transform="scale(1 1) rotate(0) translate(4 744.67)">
<title>G</title>
<polygon fill="white" stroke="transparent" points="-4,4 -4,-744.67 591.67,-744.67 591.67,4 -4,4"/>
<!-- BB0 -->
<g id="node1" class="node">
<title>BB0</title>
<ellipse fill="none" stroke="black" cx="248.31" cy="-703.2" rx="105.22" ry="37.45"/>
<text text-anchor="middle" x="248.31" y="-714.5" font-family="Times New Roman,serif" font-size="14.00">[0..4)</text>
<text text-anchor="middle" x="248.31" y="-699.5" font-family="Times New Roman,serif" font-size="14.00">Normalized Count: 1.00</text>
<text text-anchor="middle" x="248.31" y="-684.5" font-family="Times New Roman,serif" font-size="14.00">Samples weight: 0.00</text>
</g>
<!-- BB8 -->
<g id="node9" class="node">
<title>BB8</title>
<ellipse fill="none" stroke="black" cx="248.31" cy="-592.24" rx="110.12" ry="37.45"/>
<text text-anchor="middle" x="248.31" y="-603.54" font-family="Times New Roman,serif" font-size="14.00">[44..48)</text>
<text text-anchor="middle" x="248.31" y="-588.54" font-family="Times New Roman,serif" font-size="14.00">Normalized Count: 41.00</text>
<text text-anchor="middle" x="248.31" y="-573.54" font-family="Times New Roman,serif" font-size="14.00">Samples weight: 0.00</text>
</g>
<!-- BB0&#45;&gt;BB8 -->
<g id="edge1" class="edge">
<title>BB0&#45;&gt;BB8</title>
<path fill="none" stroke="black" d="M248.31,-665.61C248.31,-657.44 248.31,-648.66 248.31,-640.13"/>
<polygon fill="black" stroke="black" points="251.81,-639.92 248.31,-629.92 244.81,-639.92 251.81,-639.92"/>
</g>
<!-- BB1 -->
<g id="node2" class="node">
<title>BB1</title>
<ellipse fill="none" stroke="black" cx="248.31" cy="-481.29" rx="110.12" ry="37.45"/>
<text text-anchor="middle" x="248.31" y="-492.59" font-family="Times New Roman,serif" font-size="14.00">[4..8)</text>
<text text-anchor="middle" x="248.31" y="-477.59" font-family="Times New Roman,serif" font-size="14.00">Normalized Count: 40.00</text>
<text text-anchor="middle" x="248.31" y="-462.59" font-family="Times New Roman,serif" font-size="14.00">Samples weight: 0.00</text>
</g>
<!-- BB6 -->
<g id="node7" class="node">
<title>BB6</title>
<ellipse fill="none" stroke="black" cx="253.31" cy="-370.34" rx="120.42" ry="37.45"/>
<text text-anchor="middle" x="253.31" y="-381.64" font-family="Times New Roman,serif" font-size="14.00">[3c..40)</text>
<text text-anchor="middle" x="253.31" y="-366.64" font-family="Times New Roman,serif" font-size="14.00">Normalized Count: 1640.00</text>
<text text-anchor="middle" x="253.31" y="-351.64" font-family="Times New Roman,serif" font-size="14.00">Samples weight: 0.01</text>
</g>
<!-- BB1&#45;&gt;BB6 -->
<g id="edge2" class="edge">
<title>BB1&#45;&gt;BB6</title>
<path fill="none" stroke="black" d="M249.99,-443.71C250.36,-435.53 250.77,-426.75 251.16,-418.23"/>
<polygon fill="black" stroke="black" points="254.66,-418.16 251.63,-408.01 247.67,-417.84 254.66,-418.16"/>
</g>
<!-- BB2 -->
<g id="node3" class="node">
<title>BB2</title>
<ellipse fill="none" stroke="black" cx="414.31" cy="-259.38" rx="120.42" ry="37.45"/>
<text text-anchor="middle" x="414.31" y="-270.68" font-family="Times New Roman,serif" font-size="14.00">[8..1a)</text>
<text text-anchor="middle" x="414.31" y="-255.68" font-family="Times New Roman,serif" font-size="14.00">Normalized Count: 1600.00</text>
<text text-anchor="middle" x="414.31" y="-240.68" font-family="Times New Roman,serif" font-size="14.00">Samples weight: 0.01</text>
</g>
<!-- BB4 -->
<g id="node5" class="node">
<title>BB4</title>
<ellipse fill="none" stroke="black" cx="430.31" cy="-148.43" rx="124.4" ry="37.45"/>
<text text-anchor="middle" x="430.31" y="-159.73" font-family="Times New Roman,serif" font-size="14.00">[34..38)</text>
<text text-anchor="middle" x="430.31" y="-144.73" font-family="Times New Roman,serif" font-size="14.00">Normalized Count: 65600.00</text>
<text text-anchor="middle" x="430.31" y="-129.73" font-family="Times New Roman,serif" font-size="14.00">Samples weight: 0.49</text>
</g>
<!-- BB2&#45;&gt;BB4 -->
<g id="edge3" class="edge">
<title>BB2&#45;&gt;BB4</title>
<path fill="none" stroke="black" d="M419.68,-221.8C420.89,-213.54 422.2,-204.65 423.46,-196.04"/>
<polygon fill="black" stroke="black" points="426.93,-196.5 424.92,-186.1 420.01,-195.49 426.93,-196.5"/>
</g>
<!-- BB3 -->
<g id="node4" class="node">
<title>BB3</title>
<ellipse fill="none" stroke="black" cx="458.31" cy="-37.48" rx="124.4" ry="37.45"/>
<text text-anchor="middle" x="458.31" y="-48.78" font-family="Times New Roman,serif" font-size="14.00">[1a..34)</text>
<text text-anchor="middle" x="458.31" y="-33.78" font-family="Times New Roman,serif" font-size="14.00">Normalized Count: 64000.00</text>
<text text-anchor="middle" x="458.31" y="-18.78" font-family="Times New Roman,serif" font-size="14.00">Samples weight: 0.48</text>
</g>
<!-- BB3&#45;&gt;BB4 -->
<g id="edge4" class="edge">
<title>BB3&#45;&gt;BB4</title>
<path fill="none" stroke="black" d="M455.34,-74.97C453.5,-83.44 451.24,-92.56 448.82,-101.37"/>
<polygon fill="black" stroke="black" points="445.41,-100.57 446.04,-111.15 452.14,-102.49 445.41,-100.57"/>
</g>
<!-- BB4&#45;&gt;BB3 -->
<g id="edge5" class="edge">
<title>BB4&#45;&gt;BB3</title>
<path fill="none" stroke="black" d="M433.29,-110.85C435.14,-102.4 437.39,-93.31 439.8,-84.52"/>
<polygon fill="black" stroke="black" points="443.2,-85.35 442.58,-74.78 436.47,-83.44 443.2,-85.35"/>
</g>
<!-- BB5 -->
<g id="node6" class="node">
<title>BB5</title>
<ellipse fill="none" stroke="black" cx="195.31" cy="-37.48" rx="120.42" ry="37.45"/>
<text text-anchor="middle" x="195.31" y="-48.78" font-family="Times New Roman,serif" font-size="14.00">[38..3c)</text>
<text text-anchor="middle" x="195.31" y="-33.78" font-family="Times New Roman,serif" font-size="14.00">Normalized Count: 1600.00</text>
<text text-anchor="middle" x="195.31" y="-18.78" font-family="Times New Roman,serif" font-size="14.00">Samples weight: 0.01</text>
</g>
<!-- BB4&#45;&gt;BB5 -->
<g id="edge6" class="edge">
<title>BB4&#45;&gt;BB5</title>
<path fill="none" stroke="black" d="M363.91,-116.65C334.76,-103.13 300.39,-87.2 270.32,-73.26"/>
<polygon fill="black" stroke="black" points="271.68,-70.03 261.14,-69 268.74,-76.38 271.68,-70.03"/>
</g>
<!-- BB5&#45;&gt;BB6 -->
<g id="edge7" class="edge">
<title>BB5&#45;&gt;BB6</title>
<path fill="none" stroke="black" d="M202.32,-74.98C209.36,-111.96 220.42,-170.85 229.31,-221.91 235.15,-255.47 241.32,-293.41 245.94,-322.39"/>
<polygon fill="black" stroke="black" points="242.54,-323.32 247.56,-332.64 249.45,-322.22 242.54,-323.32"/>
</g>
<!-- BB6&#45;&gt;BB2 -->
<g id="edge8" class="edge">
<title>BB6&#45;&gt;BB2</title>
<path fill="none" stroke="black" d="M302.49,-336.06C319.57,-324.49 338.89,-311.42 356.6,-299.43"/>
<polygon fill="black" stroke="black" points="358.83,-302.15 365.15,-293.65 354.91,-296.35 358.83,-302.15"/>
</g>
<!-- BB7 -->
<g id="node8" class="node">
<title>BB7</title>
<ellipse fill="none" stroke="black" cx="110.31" cy="-259.38" rx="110.12" ry="37.45"/>
<text text-anchor="middle" x="110.31" y="-270.68" font-family="Times New Roman,serif" font-size="14.00">[40..44)</text>
<text text-anchor="middle" x="110.31" y="-255.68" font-family="Times New Roman,serif" font-size="14.00">Normalized Count: 40.00</text>
<text text-anchor="middle" x="110.31" y="-240.68" font-family="Times New Roman,serif" font-size="14.00">Samples weight: 0.00</text>
</g>
<!-- BB6&#45;&gt;BB7 -->
<g id="edge9" class="edge">
<title>BB6&#45;&gt;BB7</title>
<path fill="none" stroke="black" d="M208.85,-335.46C194.18,-324.29 177.74,-311.76 162.54,-300.18"/>
<polygon fill="black" stroke="black" points="164.33,-297.14 154.25,-293.86 160.09,-302.71 164.33,-297.14"/>
</g>
<!-- BB7&#45;&gt;BB8 -->
<g id="edge10" class="edge">
<title>BB7&#45;&gt;BB8</title>
<path fill="none" stroke="black" d="M103.17,-296.91C94.85,-350.01 87.09,-449.68 129.31,-518.77 138.99,-534.61 153.57,-547.48 169.24,-557.72"/>
<polygon fill="black" stroke="black" points="167.69,-560.87 178.03,-563.14 171.36,-554.91 167.69,-560.87"/>
</g>
<!-- BB8&#45;&gt;BB1 -->
<g id="edge11" class="edge">
<title>BB8&#45;&gt;BB1</title>
<path fill="none" stroke="black" d="M248.31,-554.66C248.31,-546.49 248.31,-537.71 248.31,-529.18"/>
<polygon fill="black" stroke="black" points="251.81,-528.96 248.31,-518.96 244.81,-528.96 251.81,-528.96"/>
</g>
<!-- BB9 -->
<g id="node10" class="node">
<title>BB9</title>
<ellipse fill="none" stroke="black" cx="482.31" cy="-481.29" rx="105.22" ry="37.45"/>
<text text-anchor="middle" x="482.31" y="-492.59" font-family="Times New Roman,serif" font-size="14.00">[48..49)</text>
<text text-anchor="middle" x="482.31" y="-477.59" font-family="Times New Roman,serif" font-size="14.00">Normalized Count: 1.00</text>
<text text-anchor="middle" x="482.31" y="-462.59" font-family="Times New Roman,serif" font-size="14.00">Samples weight: 0.00</text>
</g>
<!-- BB8&#45;&gt;BB9 -->
<g id="edge12" class="edge">
<title>BB8&#45;&gt;BB9</title>
<path fill="none" stroke="black" d="M311.94,-561.62C342.37,-547.45 378.92,-530.43 410.35,-515.79"/>
<polygon fill="black" stroke="black" points="411.91,-518.93 419.5,-511.53 408.96,-512.58 411.91,-518.93"/>
</g>
</g>
</svg>
