<?xml version="1.0" encoding="UTF-8" standalone="no"?>
<!DOCTYPE svg PUBLIC "-//W3C//DTD SVG 1.1//EN"
 "http://www.w3.org/Graphics/SVG/1.1/DTD/svg11.dtd">
<!-- Generated by graphviz version 2.47.0 (20210316.0004)
 -->
<!-- Title: G Pages: 1 -->
<svg width="322pt" height="421pt"
 viewBox="0.00 0.00 322.05 420.70" xmlns="http://www.w3.org/2000/svg" xmlns:xlink="http://www.w3.org/1999/xlink">
<g id="graph0" class="graph" transform="scale(1 1) rotate(0) translate(4 416.7)">
<title>G</title>
<polygon fill="white" stroke="transparent" points="-4,4 -4,-416.7 318.05,-416.7 318.05,4 -4,4"/>
<!-- BB0 -->
<g id="node1" class="node">
<title>BB0</title>
<ellipse fill="none" stroke="black" cx="42.43" cy="-385.83" rx="37.45" ry="26.74"/>
<text text-anchor="middle" x="42.43" y="-389.63" font-family="Times New Roman,serif" font-size="14.00">[0..68)</text>
<text text-anchor="middle" x="42.43" y="-374.63" font-family="Times New Roman,serif" font-size="14.00">0.01</text>
</g>
<!-- BB2 -->
<g id="node3" class="node">
<title>BB2</title>
<ellipse fill="none" stroke="black" cx="42.43" cy="-296.09" rx="42.35" ry="26.74"/>
<text text-anchor="middle" x="42.43" y="-299.89" font-family="Times New Roman,serif" font-size="14.00">[87..8c)</text>
<text text-anchor="middle" x="42.43" y="-284.89" font-family="Times New Roman,serif" font-size="14.00">0.01</text>
</g>
<!-- BB0&#45;&gt;BB2 -->
<g id="edge1" class="edge">
<title>BB0&#45;&gt;BB2</title>
<path fill="none" stroke="black" d="M42.43,-358.51C42.43,-350.54 42.43,-341.65 42.43,-333.16"/>
<polygon fill="black" stroke="black" points="45.93,-333.09 42.43,-323.09 38.93,-333.09 45.93,-333.09"/>
</g>
<!-- BB1 -->
<g id="node2" class="node">
<title>BB1</title>
<ellipse fill="none" stroke="black" cx="42.43" cy="-206.35" rx="42.35" ry="26.74"/>
<text text-anchor="middle" x="42.43" y="-210.15" font-family="Times New Roman,serif" font-size="14.00">[68..87)</text>
<text text-anchor="middle" x="42.43" y="-195.15" font-family="Times New Roman,serif" font-size="14.00">0.00</text>
</g>
<!-- BB1&#45;&gt;BB2 -->
<g id="edge2" class="edge">
<title>BB1&#45;&gt;BB2</title>
<path fill="none" stroke="black" d="M48.63,-233.02C49.15,-241.21 49.3,-250.44 49.08,-259.22"/>
<polygon fill="black" stroke="black" points="45.58,-259.1 48.64,-269.24 52.57,-259.4 45.58,-259.1"/>
</g>
<!-- BB2&#45;&gt;BB1 -->
<g id="edge3" class="edge">
<title>BB2&#45;&gt;BB1</title>
<path fill="none" stroke="black" d="M36.21,-269.24C35.7,-261.03 35.55,-251.8 35.78,-243.02"/>
<polygon fill="black" stroke="black" points="39.28,-243.16 36.22,-233.02 32.29,-242.85 39.28,-243.16"/>
</g>
<!-- BB3 -->
<g id="node4" class="node">
<title>BB3</title>
<ellipse fill="none" stroke="black" cx="145.43" cy="-206.35" rx="42.35" ry="26.74"/>
<text text-anchor="middle" x="145.43" y="-210.15" font-family="Times New Roman,serif" font-size="14.00">[8c..94)</text>
<text text-anchor="middle" x="145.43" y="-195.15" font-family="Times New Roman,serif" font-size="14.00">0.01</text>
</g>
<!-- BB2&#45;&gt;BB3 -->
<g id="edge4" class="edge">
<title>BB2&#45;&gt;BB3</title>
<path fill="none" stroke="black" d="M67.1,-274.07C80.76,-262.44 97.91,-247.83 112.68,-235.25"/>
<polygon fill="black" stroke="black" points="115.26,-237.65 120.6,-228.5 110.72,-232.32 115.26,-237.65"/>
</g>
<!-- BB5 -->
<g id="node6" class="node">
<title>BB5</title>
<ellipse fill="none" stroke="black" cx="145.43" cy="-116.61" rx="52.15" ry="26.74"/>
<text text-anchor="middle" x="145.43" y="-120.41" font-family="Times New Roman,serif" font-size="14.00">[180..189)</text>
<text text-anchor="middle" x="145.43" y="-105.41" font-family="Times New Roman,serif" font-size="14.00">0.48</text>
</g>
<!-- BB3&#45;&gt;BB5 -->
<g id="edge5" class="edge">
<title>BB3&#45;&gt;BB5</title>
<path fill="none" stroke="black" d="M145.43,-179.03C145.43,-171.06 145.43,-162.17 145.43,-153.68"/>
<polygon fill="black" stroke="black" points="148.93,-153.61 145.43,-143.61 141.93,-153.61 148.93,-153.61"/>
</g>
<!-- BB4 -->
<g id="node5" class="node">
<title>BB4</title>
<ellipse fill="none" stroke="black" cx="145.43" cy="-26.87" rx="47.25" ry="26.74"/>
<text text-anchor="middle" x="145.43" y="-30.67" font-family="Times New Roman,serif" font-size="14.00">[94..180)</text>
<text text-anchor="middle" x="145.43" y="-15.67" font-family="Times New Roman,serif" font-size="14.00">0.47</text>
</g>
<!-- BB4&#45;&gt;BB5 -->
<g id="edge6" class="edge">
<title>BB4&#45;&gt;BB5</title>
<path fill="none" stroke="black" d="M151.63,-53.54C152.15,-61.73 152.3,-70.96 152.08,-79.74"/>
<polygon fill="black" stroke="black" points="148.58,-79.62 151.64,-89.76 155.57,-79.92 148.58,-79.62"/>
</g>
<!-- BB5&#45;&gt;BB4 -->
<g id="edge7" class="edge">
<title>BB5&#45;&gt;BB4</title>
<path fill="none" stroke="black" d="M139.21,-89.76C138.7,-81.55 138.55,-72.32 138.78,-63.54"/>
<polygon fill="black" stroke="black" points="142.28,-63.68 139.22,-53.54 135.29,-63.37 142.28,-63.68"/>
</g>
<!-- BB6 -->
<g id="node7" class="node">
<title>BB6</title>
<ellipse fill="none" stroke="black" cx="262.43" cy="-26.87" rx="51.74" ry="26.74"/>
<text text-anchor="middle" x="262.43" y="-30.67" font-family="Times New Roman,serif" font-size="14.00">[189..1a3)</text>
<text text-anchor="middle" x="262.43" y="-15.67" font-family="Times New Roman,serif" font-size="14.00">0.01</text>
</g>
<!-- BB5&#45;&gt;BB6 -->
<g id="edge8" class="edge">
<title>BB5&#45;&gt;BB6</title>
<path fill="none" stroke="black" d="M174.35,-93.92C189.79,-82.34 208.97,-67.96 225.48,-55.58"/>
<polygon fill="black" stroke="black" points="227.94,-58.11 233.84,-49.31 223.74,-52.51 227.94,-58.11"/>
</g>
</g>
</svg>
