<?xml version="1.0" encoding="UTF-8" standalone="no"?>
<!DOCTYPE svg PUBLIC "-//W3C//DTD SVG 1.1//EN"
 "http://www.w3.org/Graphics/SVG/1.1/DTD/svg11.dtd">
<!-- Generated by graphviz version 2.47.0 (20210316.0004)
 -->
<!-- Title: G Pages: 1 -->
<svg width="654pt" height="633pt"
 viewBox="0.00 0.00 654.37 632.83" xmlns="http://www.w3.org/2000/svg" xmlns:xlink="http://www.w3.org/1999/xlink">
<g id="graph0" class="graph" transform="scale(1 1) rotate(0) translate(4 628.83)">
<title>G</title>
<polygon fill="white" stroke="transparent" points="-4,4 -4,-628.83 650.37,-628.83 650.37,4 -4,4"/>
<!-- BB0 -->
<g id="node1" class="node">
<title>BB0</title>
<ellipse fill="none" stroke="black" cx="309.14" cy="-576.75" rx="103.48" ry="48.17"/>
<text text-anchor="middle" x="309.14" y="-595.55" font-family="Times New Roman,serif" font-size="14.00">[0..4)</text>
<text text-anchor="middle" x="309.14" y="-580.55" font-family="Times New Roman,serif" font-size="14.00">Count: 1</text>
<text text-anchor="middle" x="309.14" y="-565.55" font-family="Times New Roman,serif" font-size="14.00">Normalized count: 1.00</text>
<text text-anchor="middle" x="309.14" y="-550.55" font-family="Times New Roman,serif" font-size="14.00">Samples weight: 0.00</text>
</g>
<!-- BB5 -->
<g id="node6" class="node">
<title>BB5</title>
<ellipse fill="none" stroke="black" cx="309.14" cy="-444.58" rx="113.27" ry="48.17"/>
<text text-anchor="middle" x="309.14" y="-463.38" font-family="Times New Roman,serif" font-size="14.00">[2a..2e)</text>
<text text-anchor="middle" x="309.14" y="-448.38" font-family="Times New Roman,serif" font-size="14.00">Count: 101</text>
<text text-anchor="middle" x="309.14" y="-433.38" font-family="Times New Roman,serif" font-size="14.00">Normalized count: 101.00</text>
<text text-anchor="middle" x="309.14" y="-418.38" font-family="Times New Roman,serif" font-size="14.00">Samples weight: 0.00</text>
</g>
<!-- BB0&#45;&gt;BB5 -->
<g id="edge1" class="edge">
<title>BB0&#45;&gt;BB5</title>
<path fill="none" stroke="black" d="M309.14,-528.39C309.14,-520.12 309.14,-511.44 309.14,-502.93"/>
<polygon fill="black" stroke="black" points="312.64,-502.69 309.14,-492.69 305.64,-502.69 312.64,-502.69"/>
</g>
<!-- BB1 -->
<g id="node2" class="node">
<title>BB1</title>
<ellipse fill="none" stroke="black" cx="309.14" cy="-312.42" rx="113.27" ry="48.17"/>
<text text-anchor="middle" x="309.14" y="-331.22" font-family="Times New Roman,serif" font-size="14.00">[4..8)</text>
<text text-anchor="middle" x="309.14" y="-316.22" font-family="Times New Roman,serif" font-size="14.00">Count: 100</text>
<text text-anchor="middle" x="309.14" y="-301.22" font-family="Times New Roman,serif" font-size="14.00">Normalized count: 100.00</text>
<text text-anchor="middle" x="309.14" y="-286.22" font-family="Times New Roman,serif" font-size="14.00">Samples weight: 0.00</text>
</g>
<!-- BB3 -->
<g id="node4" class="node">
<title>BB3</title>
<ellipse fill="none" stroke="black" cx="340.14" cy="-180.25" rx="122.16" ry="48.17"/>
<text text-anchor="middle" x="340.14" y="-199.05" font-family="Times New Roman,serif" font-size="14.00">[22..26)</text>
<text text-anchor="middle" x="340.14" y="-184.05" font-family="Times New Roman,serif" font-size="14.00">Count: 10100</text>
<text text-anchor="middle" x="340.14" y="-169.05" font-family="Times New Roman,serif" font-size="14.00">Normalized count: 10100.00</text>
<text text-anchor="middle" x="340.14" y="-154.05" font-family="Times New Roman,serif" font-size="14.00">Samples weight: 0.50</text>
</g>
<!-- BB1&#45;&gt;BB3 -->
<g id="edge2" class="edge">
<title>BB1&#45;&gt;BB3</title>
<path fill="none" stroke="black" d="M320.33,-264.42C322.37,-255.85 324.52,-246.83 326.62,-238.01"/>
<polygon fill="black" stroke="black" points="330.05,-238.71 328.96,-228.17 323.24,-237.09 330.05,-238.71"/>
</g>
<!-- BB2 -->
<g id="node3" class="node">
<title>BB2</title>
<ellipse fill="none" stroke="black" cx="366.14" cy="-48.08" rx="122.16" ry="48.17"/>
<text text-anchor="middle" x="366.14" y="-66.88" font-family="Times New Roman,serif" font-size="14.00">[8..22)</text>
<text text-anchor="middle" x="366.14" y="-51.88" font-family="Times New Roman,serif" font-size="14.00">Count: 10000</text>
<text text-anchor="middle" x="366.14" y="-36.88" font-family="Times New Roman,serif" font-size="14.00">Normalized count: 10000.00</text>
<text text-anchor="middle" x="366.14" y="-21.88" font-family="Times New Roman,serif" font-size="14.00">Samples weight: 0.49</text>
</g>
<!-- BB2&#45;&gt;BB3 -->
<g id="edge3" class="edge">
<title>BB2&#45;&gt;BB3</title>
<path fill="none" stroke="black" d="M363.2,-96.44C361.74,-104.83 360.04,-113.64 358.22,-122.26"/>
<polygon fill="black" stroke="black" points="354.76,-121.74 356.04,-132.26 361.59,-123.24 354.76,-121.74"/>
</g>
<!-- BB3&#45;&gt;BB2 -->
<g id="edge4" class="edge">
<title>BB3&#45;&gt;BB2</title>
<path fill="none" stroke="black" d="M343.07,-131.89C344.52,-123.53 346.22,-114.75 348.03,-106.15"/>
<polygon fill="black" stroke="black" points="351.49,-106.71 350.21,-96.19 344.66,-105.21 351.49,-106.71"/>
</g>
<!-- BB4 -->
<g id="node5" class="node">
<title>BB4</title>
<ellipse fill="none" stroke="black" cx="113.14" cy="-48.08" rx="113.27" ry="48.17"/>
<text text-anchor="middle" x="113.14" y="-66.88" font-family="Times New Roman,serif" font-size="14.00">[26..2a)</text>
<text text-anchor="middle" x="113.14" y="-51.88" font-family="Times New Roman,serif" font-size="14.00">Count: 100</text>
<text text-anchor="middle" x="113.14" y="-36.88" font-family="Times New Roman,serif" font-size="14.00">Normalized count: 100.00</text>
<text text-anchor="middle" x="113.14" y="-21.88" font-family="Times New Roman,serif" font-size="14.00">Samples weight: 0.00</text>
</g>
<!-- BB3&#45;&gt;BB4 -->
<g id="edge5" class="edge">
<title>BB3&#45;&gt;BB4</title>
<path fill="none" stroke="black" d="M272.03,-140.2C245.75,-125.12 215.58,-107.82 188.64,-92.38"/>
<polygon fill="black" stroke="black" points="190.05,-89.15 179.63,-87.21 186.57,-95.22 190.05,-89.15"/>
</g>
<!-- BB4&#45;&gt;BB5 -->
<g id="edge6" class="edge">
<title>BB4&#45;&gt;BB5</title>
<path fill="none" stroke="black" d="M113.98,-96.33C117.29,-161.3 131.27,-279.38 187.14,-360.5 198.09,-376.4 213.17,-390.15 228.99,-401.62"/>
<polygon fill="black" stroke="black" points="227.11,-404.57 237.32,-407.41 231.11,-398.83 227.11,-404.57"/>
</g>
<!-- BB5&#45;&gt;BB1 -->
<g id="edge7" class="edge">
<title>BB5&#45;&gt;BB1</title>
<path fill="none" stroke="black" d="M309.14,-396.22C309.14,-387.95 309.14,-379.27 309.14,-370.77"/>
<polygon fill="black" stroke="black" points="312.64,-370.52 309.14,-360.52 305.64,-370.52 312.64,-370.52"/>
</g>
<!-- BB6 -->
<g id="node7" class="node">
<title>BB6</title>
<ellipse fill="none" stroke="black" cx="543.14" cy="-312.42" rx="103.48" ry="48.17"/>
<text text-anchor="middle" x="543.14" y="-331.22" font-family="Times New Roman,serif" font-size="14.00">[2e..2f)</text>
<text text-anchor="middle" x="543.14" y="-316.22" font-family="Times New Roman,serif" font-size="14.00">Count: 1</text>
<text text-anchor="middle" x="543.14" y="-301.22" font-family="Times New Roman,serif" font-size="14.00">Normalized count: 1.00</text>
<text text-anchor="middle" x="543.14" y="-286.22" font-family="Times New Roman,serif" font-size="14.00">Samples weight: 0.00</text>
</g>
<!-- BB5&#45;&gt;BB6 -->
<g id="edge8" class="edge">
<title>BB5&#45;&gt;BB6</title>
<path fill="none" stroke="black" d="M376.82,-405.93C405.57,-389.94 439.17,-371.25 468.63,-354.86"/>
<polygon fill="black" stroke="black" points="470.58,-357.78 477.62,-349.86 467.18,-351.66 470.58,-357.78"/>
</g>
</g>
</svg>
