<?xml version="1.0" encoding="UTF-8" standalone="no"?>
<!DOCTYPE svg PUBLIC "-//W3C//DTD SVG 1.1//EN"
 "http://www.w3.org/Graphics/SVG/1.1/DTD/svg11.dtd">
<!-- Generated by graphviz version 2.47.0 (20210316.0004)
 -->
<!-- Title: G Pages: 1 -->
<svg width="973pt" height="971pt"
 viewBox="0.00 0.00 972.72 970.58" xmlns="http://www.w3.org/2000/svg" xmlns:xlink="http://www.w3.org/1999/xlink">
<g id="graph0" class="graph" transform="scale(1 1) rotate(0) translate(4 966.58)">
<title>G</title>
<polygon fill="white" stroke="transparent" points="-4,4 -4,-966.58 968.72,-966.58 968.72,4 -4,4"/>
<!-- BB0 -->
<g id="node1" class="node">
<title>BB0</title>
<ellipse fill="none" stroke="black" cx="219.36" cy="-925.1" rx="105.22" ry="37.45"/>
<text text-anchor="middle" x="219.36" y="-936.4" font-family="Times New Roman,serif" font-size="14.00">[0..3)</text>
<text text-anchor="middle" x="219.36" y="-921.4" font-family="Times New Roman,serif" font-size="14.00">Normalized Count: 1.00</text>
<text text-anchor="middle" x="219.36" y="-906.4" font-family="Times New Roman,serif" font-size="14.00">Samples weight: 0.03</text>
</g>
<!-- BB1 -->
<g id="node2" class="node">
<title>BB1</title>
<ellipse fill="none" stroke="black" cx="105.36" cy="-814.15" rx="105.22" ry="37.45"/>
<text text-anchor="middle" x="105.36" y="-825.45" font-family="Times New Roman,serif" font-size="14.00">[3..5)</text>
<text text-anchor="middle" x="105.36" y="-810.45" font-family="Times New Roman,serif" font-size="14.00">Normalized Count: 0.11</text>
<text text-anchor="middle" x="105.36" y="-795.45" font-family="Times New Roman,serif" font-size="14.00">Samples weight: 0.00</text>
</g>
<!-- BB0&#45;&gt;BB1 -->
<g id="edge2" class="edge">
<title>BB0&#45;&gt;BB1</title>
<path fill="none" stroke="black" d="M183.29,-889.63C172.27,-879.09 160.03,-867.4 148.58,-856.46"/>
<polygon fill="black" stroke="black" points="150.84,-853.78 141.19,-849.4 146.01,-858.84 150.84,-853.78"/>
</g>
<!-- BB2 -->
<g id="node3" class="node">
<title>BB2</title>
<ellipse fill="none" stroke="black" cx="334.36" cy="-814.15" rx="105.22" ry="37.45"/>
<text text-anchor="middle" x="334.36" y="-825.45" font-family="Times New Roman,serif" font-size="14.00">[5..a)</text>
<text text-anchor="middle" x="334.36" y="-810.45" font-family="Times New Roman,serif" font-size="14.00">Normalized Count: 0.93</text>
<text text-anchor="middle" x="334.36" y="-795.45" font-family="Times New Roman,serif" font-size="14.00">Samples weight: 0.03</text>
</g>
<!-- BB0&#45;&gt;BB2 -->
<g id="edge1" class="edge">
<title>BB0&#45;&gt;BB2</title>
<path fill="none" stroke="black" d="M255.75,-889.63C266.87,-879.09 279.21,-867.4 290.76,-856.46"/>
<polygon fill="black" stroke="black" points="293.36,-858.82 298.21,-849.4 288.54,-853.74 293.36,-858.82"/>
</g>
<!-- BB3 -->
<g id="node4" class="node">
<title>BB3</title>
<ellipse fill="none" stroke="black" cx="220.36" cy="-703.2" rx="105.22" ry="37.45"/>
<text text-anchor="middle" x="220.36" y="-714.5" font-family="Times New Roman,serif" font-size="14.00">[a..c)</text>
<text text-anchor="middle" x="220.36" y="-699.5" font-family="Times New Roman,serif" font-size="14.00">Normalized Count: 0.12</text>
<text text-anchor="middle" x="220.36" y="-684.5" font-family="Times New Roman,serif" font-size="14.00">Samples weight: 0.00</text>
</g>
<!-- BB2&#45;&gt;BB3 -->
<g id="edge4" class="edge">
<title>BB2&#45;&gt;BB3</title>
<path fill="none" stroke="black" d="M298.29,-778.68C287.27,-768.14 275.03,-756.45 263.58,-745.51"/>
<polygon fill="black" stroke="black" points="265.84,-742.82 256.19,-738.45 261.01,-747.89 265.84,-742.82"/>
</g>
<!-- BB4 -->
<g id="node5" class="node">
<title>BB4</title>
<ellipse fill="none" stroke="black" cx="449.36" cy="-703.2" rx="105.22" ry="37.45"/>
<text text-anchor="middle" x="449.36" y="-714.5" font-family="Times New Roman,serif" font-size="14.00">[c..10)</text>
<text text-anchor="middle" x="449.36" y="-699.5" font-family="Times New Roman,serif" font-size="14.00">Normalized Count: 0.84</text>
<text text-anchor="middle" x="449.36" y="-684.5" font-family="Times New Roman,serif" font-size="14.00">Samples weight: 0.03</text>
</g>
<!-- BB2&#45;&gt;BB4 -->
<g id="edge3" class="edge">
<title>BB2&#45;&gt;BB4</title>
<path fill="none" stroke="black" d="M370.75,-778.68C381.87,-768.14 394.21,-756.45 405.76,-745.51"/>
<polygon fill="black" stroke="black" points="408.36,-747.86 413.21,-738.45 403.54,-742.78 408.36,-747.86"/>
</g>
<!-- BB6 -->
<g id="node7" class="node">
<title>BB6</title>
<ellipse fill="none" stroke="black" cx="449.36" cy="-592.24" rx="105.22" ry="37.45"/>
<text text-anchor="middle" x="449.36" y="-603.54" font-family="Times New Roman,serif" font-size="14.00">[1a..20)</text>
<text text-anchor="middle" x="449.36" y="-588.54" font-family="Times New Roman,serif" font-size="14.00">Normalized Count: 5.67</text>
<text text-anchor="middle" x="449.36" y="-573.54" font-family="Times New Roman,serif" font-size="14.00">Samples weight: 0.17</text>
</g>
<!-- BB4&#45;&gt;BB6 -->
<g id="edge5" class="edge">
<title>BB4&#45;&gt;BB6</title>
<path fill="none" stroke="black" d="M449.36,-665.61C449.36,-657.44 449.36,-648.66 449.36,-640.13"/>
<polygon fill="black" stroke="black" points="452.86,-639.92 449.36,-629.92 445.86,-639.92 452.86,-639.92"/>
</g>
<!-- BB5 -->
<g id="node6" class="node">
<title>BB5</title>
<ellipse fill="none" stroke="black" cx="449.36" cy="-481.29" rx="105.22" ry="37.45"/>
<text text-anchor="middle" x="449.36" y="-492.59" font-family="Times New Roman,serif" font-size="14.00">[10..1a)</text>
<text text-anchor="middle" x="449.36" y="-477.59" font-family="Times New Roman,serif" font-size="14.00">Normalized Count: 5.44</text>
<text text-anchor="middle" x="449.36" y="-462.59" font-family="Times New Roman,serif" font-size="14.00">Samples weight: 0.17</text>
</g>
<!-- BB5&#45;&gt;BB6 -->
<g id="edge6" class="edge">
<title>BB5&#45;&gt;BB6</title>
<path fill="none" stroke="black" d="M455.78,-518.96C456.09,-527.14 456.18,-535.92 456.05,-544.45"/>
<polygon fill="black" stroke="black" points="452.54,-544.57 455.77,-554.66 459.54,-544.76 452.54,-544.57"/>
</g>
<!-- BB6&#45;&gt;BB5 -->
<g id="edge7" class="edge">
<title>BB6&#45;&gt;BB5</title>
<path fill="none" stroke="black" d="M442.94,-554.66C442.63,-546.49 442.54,-537.71 442.67,-529.18"/>
<polygon fill="black" stroke="black" points="446.17,-529.05 442.94,-518.96 439.17,-528.86 446.17,-529.05"/>
</g>
<!-- BB7 -->
<g id="node8" class="node">
<title>BB7</title>
<ellipse fill="none" stroke="black" cx="678.36" cy="-481.29" rx="105.22" ry="37.45"/>
<text text-anchor="middle" x="678.36" y="-492.59" font-family="Times New Roman,serif" font-size="14.00">[20..22)</text>
<text text-anchor="middle" x="678.36" y="-477.59" font-family="Times New Roman,serif" font-size="14.00">Normalized Count: 0.74</text>
<text text-anchor="middle" x="678.36" y="-462.59" font-family="Times New Roman,serif" font-size="14.00">Samples weight: 0.02</text>
</g>
<!-- BB6&#45;&gt;BB7 -->
<g id="edge8" class="edge">
<title>BB6&#45;&gt;BB7</title>
<path fill="none" stroke="black" d="M511.33,-561.76C540.86,-547.71 576.34,-530.83 606.99,-516.24"/>
<polygon fill="black" stroke="black" points="608.81,-519.25 616.34,-511.8 605.8,-512.93 608.81,-519.25"/>
</g>
<!-- BB8 -->
<g id="node9" class="node">
<title>BB8</title>
<ellipse fill="none" stroke="black" cx="678.36" cy="-370.34" rx="105.22" ry="37.45"/>
<text text-anchor="middle" x="678.36" y="-381.64" font-family="Times New Roman,serif" font-size="14.00">[22..2b)</text>
<text text-anchor="middle" x="678.36" y="-366.64" font-family="Times New Roman,serif" font-size="14.00">Normalized Count: 2.77</text>
<text text-anchor="middle" x="678.36" y="-351.64" font-family="Times New Roman,serif" font-size="14.00">Samples weight: 0.09</text>
</g>
<!-- BB7&#45;&gt;BB8 -->
<g id="edge9" class="edge">
<title>BB7&#45;&gt;BB8</title>
<path fill="none" stroke="black" d="M678.36,-443.71C678.36,-435.53 678.36,-426.75 678.36,-418.23"/>
<polygon fill="black" stroke="black" points="681.86,-418.01 678.36,-408.01 674.86,-418.01 681.86,-418.01"/>
</g>
<!-- BB10 -->
<g id="node11" class="node">
<title>BB10</title>
<ellipse fill="none" stroke="black" cx="612.36" cy="-259.38" rx="105.22" ry="37.45"/>
<text text-anchor="middle" x="612.36" y="-270.68" font-family="Times New Roman,serif" font-size="14.00">[47..4c)</text>
<text text-anchor="middle" x="612.36" y="-255.68" font-family="Times New Roman,serif" font-size="14.00">Normalized Count: 4.91</text>
<text text-anchor="middle" x="612.36" y="-240.68" font-family="Times New Roman,serif" font-size="14.00">Samples weight: 0.15</text>
</g>
<!-- BB8&#45;&gt;BB10 -->
<g id="edge10" class="edge">
<title>BB8&#45;&gt;BB10</title>
<path fill="none" stroke="black" d="M656.57,-333.36C651.1,-324.34 645.17,-314.55 639.49,-305.17"/>
<polygon fill="black" stroke="black" points="642.3,-303.06 634.13,-296.32 636.32,-306.69 642.3,-303.06"/>
</g>
<!-- BB9 -->
<g id="node10" class="node">
<title>BB9</title>
<ellipse fill="none" stroke="black" cx="497.36" cy="-148.43" rx="105.22" ry="37.45"/>
<text text-anchor="middle" x="497.36" y="-159.73" font-family="Times New Roman,serif" font-size="14.00">[2b..47)</text>
<text text-anchor="middle" x="497.36" y="-144.73" font-family="Times New Roman,serif" font-size="14.00">Normalized Count: 3.91</text>
<text text-anchor="middle" x="497.36" y="-129.73" font-family="Times New Roman,serif" font-size="14.00">Samples weight: 0.12</text>
</g>
<!-- BB9&#45;&gt;BB10 -->
<g id="edge11" class="edge">
<title>BB9&#45;&gt;BB10</title>
<path fill="none" stroke="black" d="M539.03,-182.95C550.6,-193.45 563.08,-205.18 574.42,-216.19"/>
<polygon fill="black" stroke="black" points="572.1,-218.82 581.69,-223.31 577,-213.81 572.1,-218.82"/>
</g>
<!-- BB10&#45;&gt;BB9 -->
<g id="edge12" class="edge">
<title>BB10&#45;&gt;BB9</title>
<path fill="none" stroke="black" d="M570.63,-224.8C559.1,-214.34 546.67,-202.67 535.37,-191.69"/>
<polygon fill="black" stroke="black" points="537.71,-189.09 528.12,-184.59 532.82,-194.09 537.71,-189.09"/>
</g>
<!-- BB11 -->
<g id="node12" class="node">
<title>BB11</title>
<ellipse fill="none" stroke="black" cx="726.36" cy="-148.43" rx="105.22" ry="37.45"/>
<text text-anchor="middle" x="726.36" y="-159.73" font-family="Times New Roman,serif" font-size="14.00">[4c..55)</text>
<text text-anchor="middle" x="726.36" y="-144.73" font-family="Times New Roman,serif" font-size="14.00">Normalized Count: 2.66</text>
<text text-anchor="middle" x="726.36" y="-129.73" font-family="Times New Roman,serif" font-size="14.00">Samples weight: 0.08</text>
</g>
<!-- BB10&#45;&gt;BB11 -->
<g id="edge13" class="edge">
<title>BB10&#45;&gt;BB11</title>
<path fill="none" stroke="black" d="M648.43,-223.91C659.45,-213.37 671.69,-201.68 683.14,-190.74"/>
<polygon fill="black" stroke="black" points="685.71,-193.12 690.52,-183.68 680.88,-188.06 685.71,-193.12"/>
</g>
<!-- BB12 -->
<g id="node13" class="node">
<title>BB12</title>
<ellipse fill="none" stroke="black" cx="630.36" cy="-37.48" rx="105.22" ry="37.45"/>
<text text-anchor="middle" x="630.36" y="-48.78" font-family="Times New Roman,serif" font-size="14.00">[55..57)</text>
<text text-anchor="middle" x="630.36" y="-33.78" font-family="Times New Roman,serif" font-size="14.00">Normalized Count: 0.83</text>
<text text-anchor="middle" x="630.36" y="-18.78" font-family="Times New Roman,serif" font-size="14.00">Samples weight: 0.03</text>
</g>
<!-- BB11&#45;&gt;BB12 -->
<g id="edge15" class="edge">
<title>BB11&#45;&gt;BB12</title>
<path fill="none" stroke="black" d="M695.46,-112.36C686.72,-102.44 677.12,-91.54 668.03,-81.23"/>
<polygon fill="black" stroke="black" points="670.44,-78.67 661.2,-73.48 665.19,-83.3 670.44,-78.67"/>
</g>
<!-- BB13 -->
<g id="node14" class="node">
<title>BB13</title>
<ellipse fill="none" stroke="black" cx="859.36" cy="-37.48" rx="105.22" ry="37.45"/>
<text text-anchor="middle" x="859.36" y="-48.78" font-family="Times New Roman,serif" font-size="14.00">[57..64)</text>
<text text-anchor="middle" x="859.36" y="-33.78" font-family="Times New Roman,serif" font-size="14.00">Normalized Count: 2.59</text>
<text text-anchor="middle" x="859.36" y="-18.78" font-family="Times New Roman,serif" font-size="14.00">Samples weight: 0.08</text>
</g>
<!-- BB11&#45;&gt;BB13 -->
<g id="edge14" class="edge">
<title>BB11&#45;&gt;BB13</title>
<path fill="none" stroke="black" d="M767.35,-113.85C781,-102.67 796.34,-90.1 810.53,-78.48"/>
<polygon fill="black" stroke="black" points="812.76,-81.18 818.28,-72.13 808.32,-75.76 812.76,-81.18"/>
</g>
<!-- BB13&#45;&gt;BB8 -->
<g id="edge16" class="edge">
<title>BB13&#45;&gt;BB8</title>
<path fill="none" stroke="black" d="M860.51,-75.24C860.12,-106.1 856.35,-150.65 840.36,-185.91 814.55,-242.8 764.95,-294.85 727.39,-328.86"/>
<polygon fill="black" stroke="black" points="724.71,-326.56 719.58,-335.83 729.37,-331.79 724.71,-326.56"/>
</g>
</g>
</svg>
