<?xml version="1.0" encoding="UTF-8" standalone="no"?>
<!DOCTYPE svg PUBLIC "-//W3C//DTD SVG 1.1//EN"
 "http://www.w3.org/Graphics/SVG/1.1/DTD/svg11.dtd">
<!-- Generated by graphviz version 2.47.0 (20210316.0004)
 -->
<!-- Title: G Pages: 1 -->
<svg width="1394pt" height="1426pt"
 viewBox="0.00 0.00 1394.42 1425.83" xmlns="http://www.w3.org/2000/svg" xmlns:xlink="http://www.w3.org/1999/xlink">
<g id="graph0" class="graph" transform="scale(1 1) rotate(0) translate(4 1421.83)">
<title>G</title>
<polygon fill="white" stroke="transparent" points="-4,4 -4,-1421.83 1390.42,-1421.83 1390.42,4 -4,4"/>
<!-- BB0 -->
<g id="node1" class="node">
<title>BB0</title>
<ellipse fill="none" stroke="black" cx="905.33" cy="-1369.75" rx="103.48" ry="48.17"/>
<text text-anchor="middle" x="905.33" y="-1388.55" font-family="Times New Roman,serif" font-size="14.00">[0..27)</text>
<text text-anchor="middle" x="905.33" y="-1373.55" font-family="Times New Roman,serif" font-size="14.00">Count: 2</text>
<text text-anchor="middle" x="905.33" y="-1358.55" font-family="Times New Roman,serif" font-size="14.00">Normalized count: 1.00</text>
<text text-anchor="middle" x="905.33" y="-1343.55" font-family="Times New Roman,serif" font-size="14.00">Samples weight: 0.00</text>
</g>
<!-- BB2 -->
<g id="node3" class="node">
<title>BB2</title>
<ellipse fill="none" stroke="black" cx="905.33" cy="-1237.58" rx="103.48" ry="48.17"/>
<text text-anchor="middle" x="905.33" y="-1256.38" font-family="Times New Roman,serif" font-size="14.00">[3f..44)</text>
<text text-anchor="middle" x="905.33" y="-1241.38" font-family="Times New Roman,serif" font-size="14.00">Count: 2</text>
<text text-anchor="middle" x="905.33" y="-1226.38" font-family="Times New Roman,serif" font-size="14.00">Normalized count: 1.00</text>
<text text-anchor="middle" x="905.33" y="-1211.38" font-family="Times New Roman,serif" font-size="14.00">Samples weight: 0.00</text>
</g>
<!-- BB0&#45;&gt;BB2 -->
<g id="edge1" class="edge">
<title>BB0&#45;&gt;BB2</title>
<path fill="none" stroke="black" d="M905.33,-1321.39C905.33,-1313.12 905.33,-1304.44 905.33,-1295.93"/>
<polygon fill="black" stroke="black" points="908.83,-1295.69 905.33,-1285.69 901.83,-1295.69 908.83,-1295.69"/>
</g>
<!-- BB1 -->
<g id="node2" class="node">
<title>BB1</title>
<ellipse fill="none" stroke="black" cx="905.33" cy="-1105.42" rx="103.48" ry="48.17"/>
<text text-anchor="middle" x="905.33" y="-1124.22" font-family="Times New Roman,serif" font-size="14.00">[27..3f)</text>
<text text-anchor="middle" x="905.33" y="-1109.22" font-family="Times New Roman,serif" font-size="14.00">Count: 0</text>
<text text-anchor="middle" x="905.33" y="-1094.22" font-family="Times New Roman,serif" font-size="14.00">Normalized count: 0.00</text>
<text text-anchor="middle" x="905.33" y="-1079.22" font-family="Times New Roman,serif" font-size="14.00">Samples weight: 0.00</text>
</g>
<!-- BB1&#45;&gt;BB2 -->
<g id="edge2" class="edge">
<title>BB1&#45;&gt;BB2</title>
<path fill="none" stroke="black" d="M911.85,-1153.78C912.07,-1162.07 912.13,-1170.78 912.04,-1179.31"/>
<polygon fill="black" stroke="black" points="908.53,-1179.52 911.84,-1189.59 915.53,-1179.66 908.53,-1179.52"/>
</g>
<!-- BB2&#45;&gt;BB1 -->
<g id="edge3" class="edge">
<title>BB2&#45;&gt;BB1</title>
<path fill="none" stroke="black" d="M898.82,-1189.59C898.59,-1181.21 898.53,-1172.41 898.62,-1163.78"/>
<polygon fill="black" stroke="black" points="902.12,-1163.84 898.81,-1153.78 895.12,-1163.71 902.12,-1163.84"/>
</g>
<!-- BB3 -->
<g id="node4" class="node">
<title>BB3</title>
<ellipse fill="none" stroke="black" cx="1144.33" cy="-1105.42" rx="118.17" ry="48.17"/>
<text text-anchor="middle" x="1144.33" y="-1124.22" font-family="Times New Roman,serif" font-size="14.00">[44..50)</text>
<text text-anchor="middle" x="1144.33" y="-1109.22" font-family="Times New Roman,serif" font-size="14.00">Count: 5946</text>
<text text-anchor="middle" x="1144.33" y="-1094.22" font-family="Times New Roman,serif" font-size="14.00">Normalized count: 2973.00</text>
<text text-anchor="middle" x="1144.33" y="-1079.22" font-family="Times New Roman,serif" font-size="14.00">Samples weight: 0.02</text>
</g>
<!-- BB2&#45;&gt;BB3 -->
<g id="edge4" class="edge">
<title>BB2&#45;&gt;BB3</title>
<path fill="none" stroke="black" d="M971.59,-1200.5C1000.76,-1184.61 1035.25,-1165.82 1065.71,-1149.23"/>
<polygon fill="black" stroke="black" points="1067.5,-1152.25 1074.6,-1144.39 1064.15,-1146.1 1067.5,-1152.25"/>
</g>
<!-- BB4 -->
<g id="node5" class="node">
<title>BB4</title>
<ellipse fill="none" stroke="black" cx="596.33" cy="-973.25" rx="118.17" ry="48.17"/>
<text text-anchor="middle" x="596.33" y="-992.05" font-family="Times New Roman,serif" font-size="14.00">[50..55)</text>
<text text-anchor="middle" x="596.33" y="-977.05" font-family="Times New Roman,serif" font-size="14.00">Count: 5944</text>
<text text-anchor="middle" x="596.33" y="-962.05" font-family="Times New Roman,serif" font-size="14.00">Normalized count: 2972.00</text>
<text text-anchor="middle" x="596.33" y="-947.05" font-family="Times New Roman,serif" font-size="14.00">Samples weight: 0.02</text>
</g>
<!-- BB3&#45;&gt;BB4 -->
<g id="edge6" class="edge">
<title>BB3&#45;&gt;BB4</title>
<path fill="none" stroke="black" d="M1061.79,-1070.92C1047.15,-1065.81 1031.92,-1061.03 1017.33,-1057.33 906.8,-1029.35 874.89,-1044.85 763.33,-1021.33 742.46,-1016.93 720.37,-1011.37 699.32,-1005.61"/>
<polygon fill="black" stroke="black" points="699.98,-1002.17 689.41,-1002.87 698.11,-1008.91 699.98,-1002.17"/>
</g>
<!-- BB15 -->
<g id="node16" class="node">
<title>BB15</title>
<ellipse fill="none" stroke="black" cx="890.33" cy="-973.25" rx="118.17" ry="48.17"/>
<text text-anchor="middle" x="890.33" y="-992.05" font-family="Times New Roman,serif" font-size="14.00">[d0..d4)</text>
<text text-anchor="middle" x="890.33" y="-977.05" font-family="Times New Roman,serif" font-size="14.00">Count: 5946</text>
<text text-anchor="middle" x="890.33" y="-962.05" font-family="Times New Roman,serif" font-size="14.00">Normalized count: 2973.00</text>
<text text-anchor="middle" x="890.33" y="-947.05" font-family="Times New Roman,serif" font-size="14.00">Samples weight: 0.02</text>
</g>
<!-- BB3&#45;&gt;BB15 -->
<g id="edge5" class="edge">
<title>BB3&#45;&gt;BB15</title>
<path fill="none" stroke="black" d="M1071.88,-1067.29C1040.65,-1051.29 1003.99,-1032.5 971.82,-1016.01"/>
<polygon fill="black" stroke="black" points="973.37,-1012.87 962.87,-1011.42 970.18,-1019.1 973.37,-1012.87"/>
</g>
<!-- BB6 -->
<g id="node7" class="node">
<title>BB6</title>
<ellipse fill="none" stroke="black" cx="556.33" cy="-841.08" rx="122.16" ry="48.17"/>
<text text-anchor="middle" x="556.33" y="-859.88" font-family="Times New Roman,serif" font-size="14.00">[63..68)</text>
<text text-anchor="middle" x="556.33" y="-844.88" font-family="Times New Roman,serif" font-size="14.00">Count: 58432</text>
<text text-anchor="middle" x="556.33" y="-829.88" font-family="Times New Roman,serif" font-size="14.00">Normalized count: 29216.00</text>
<text text-anchor="middle" x="556.33" y="-814.88" font-family="Times New Roman,serif" font-size="14.00">Samples weight: 0.17</text>
</g>
<!-- BB4&#45;&gt;BB6 -->
<g id="edge7" class="edge">
<title>BB4&#45;&gt;BB6</title>
<path fill="none" stroke="black" d="M581.89,-925.26C579.25,-916.68 576.48,-907.66 573.77,-898.84"/>
<polygon fill="black" stroke="black" points="577.03,-897.54 570.75,-889.01 570.34,-899.59 577.03,-897.54"/>
</g>
<!-- BB5 -->
<g id="node6" class="node">
<title>BB5</title>
<ellipse fill="none" stroke="black" cx="556.33" cy="-708.92" rx="122.16" ry="48.17"/>
<text text-anchor="middle" x="556.33" y="-727.72" font-family="Times New Roman,serif" font-size="14.00">[55..63)</text>
<text text-anchor="middle" x="556.33" y="-712.72" font-family="Times New Roman,serif" font-size="14.00">Count: 52488</text>
<text text-anchor="middle" x="556.33" y="-697.72" font-family="Times New Roman,serif" font-size="14.00">Normalized count: 26244.00</text>
<text text-anchor="middle" x="556.33" y="-682.72" font-family="Times New Roman,serif" font-size="14.00">Samples weight: 0.15</text>
</g>
<!-- BB5&#45;&gt;BB6 -->
<g id="edge8" class="edge">
<title>BB5&#45;&gt;BB6</title>
<path fill="none" stroke="black" d="M562.85,-757.02C563.07,-765.28 563.13,-773.96 563.04,-782.47"/>
<polygon fill="black" stroke="black" points="559.54,-782.66 562.85,-792.72 566.53,-782.79 559.54,-782.66"/>
</g>
<!-- BB6&#45;&gt;BB5 -->
<g id="edge9" class="edge">
<title>BB6&#45;&gt;BB5</title>
<path fill="none" stroke="black" d="M549.81,-792.72C549.59,-784.45 549.53,-775.77 549.62,-767.27"/>
<polygon fill="black" stroke="black" points="553.13,-767.09 549.81,-757.02 546.13,-766.96 553.13,-767.09"/>
</g>
<!-- BB7 -->
<g id="node8" class="node">
<title>BB7</title>
<ellipse fill="none" stroke="black" cx="298.33" cy="-708.92" rx="118.17" ry="48.17"/>
<text text-anchor="middle" x="298.33" y="-727.72" font-family="Times New Roman,serif" font-size="14.00">[68..6b)</text>
<text text-anchor="middle" x="298.33" y="-712.72" font-family="Times New Roman,serif" font-size="14.00">Count: 5944</text>
<text text-anchor="middle" x="298.33" y="-697.72" font-family="Times New Roman,serif" font-size="14.00">Normalized count: 2972.00</text>
<text text-anchor="middle" x="298.33" y="-682.72" font-family="Times New Roman,serif" font-size="14.00">Samples weight: 0.02</text>
</g>
<!-- BB6&#45;&gt;BB7 -->
<g id="edge10" class="edge">
<title>BB6&#45;&gt;BB7</title>
<path fill="none" stroke="black" d="M482.05,-802.61C450.35,-786.61 413.23,-767.89 380.69,-751.47"/>
<polygon fill="black" stroke="black" points="382.14,-748.28 371.64,-746.9 378.99,-754.53 382.14,-748.28"/>
</g>
<!-- BB8 -->
<g id="node9" class="node">
<title>BB8</title>
<ellipse fill="none" stroke="black" cx="367.33" cy="-576.75" rx="122.16" ry="48.17"/>
<text text-anchor="middle" x="367.33" y="-595.55" font-family="Times New Roman,serif" font-size="14.00">[6b..75)</text>
<text text-anchor="middle" x="367.33" y="-580.55" font-family="Times New Roman,serif" font-size="14.00">Count: 37890</text>
<text text-anchor="middle" x="367.33" y="-565.55" font-family="Times New Roman,serif" font-size="14.00">Normalized count: 18945.00</text>
<text text-anchor="middle" x="367.33" y="-550.55" font-family="Times New Roman,serif" font-size="14.00">Samples weight: 0.11</text>
</g>
<!-- BB7&#45;&gt;BB8 -->
<g id="edge11" class="edge">
<title>BB7&#45;&gt;BB8</title>
<path fill="none" stroke="black" d="M322.85,-661.66C327.72,-652.47 332.89,-642.72 337.9,-633.26"/>
<polygon fill="black" stroke="black" points="341.06,-634.77 342.65,-624.3 334.88,-631.49 341.06,-634.77"/>
</g>
<!-- BB9 -->
<g id="node10" class="node">
<title>BB9</title>
<ellipse fill="none" stroke="black" cx="598.33" cy="-444.58" rx="118.17" ry="48.17"/>
<text text-anchor="middle" x="598.33" y="-463.38" font-family="Times New Roman,serif" font-size="14.00">[75..84)</text>
<text text-anchor="middle" x="598.33" y="-448.38" font-family="Times New Roman,serif" font-size="14.00">Count: 5944</text>
<text text-anchor="middle" x="598.33" y="-433.38" font-family="Times New Roman,serif" font-size="14.00">Normalized count: 2972.00</text>
<text text-anchor="middle" x="598.33" y="-418.38" font-family="Times New Roman,serif" font-size="14.00">Samples weight: 0.02</text>
</g>
<!-- BB8&#45;&gt;BB9 -->
<g id="edge13" class="edge">
<title>BB8&#45;&gt;BB9</title>
<path fill="none" stroke="black" d="M436.32,-536.87C463.08,-521.8 493.82,-504.47 521.29,-488.99"/>
<polygon fill="black" stroke="black" points="523.09,-491.99 530.09,-484.04 519.66,-485.9 523.09,-491.99"/>
</g>
<!-- BB11 -->
<g id="node12" class="node">
<title>BB11</title>
<ellipse fill="none" stroke="black" cx="235.33" cy="-444.58" rx="122.16" ry="48.17"/>
<text text-anchor="middle" x="235.33" y="-463.38" font-family="Times New Roman,serif" font-size="14.00">[8a..95)</text>
<text text-anchor="middle" x="235.33" y="-448.38" font-family="Times New Roman,serif" font-size="14.00">Count: 31946</text>
<text text-anchor="middle" x="235.33" y="-433.38" font-family="Times New Roman,serif" font-size="14.00">Normalized count: 15973.00</text>
<text text-anchor="middle" x="235.33" y="-418.38" font-family="Times New Roman,serif" font-size="14.00">Samples weight: 0.09</text>
</g>
<!-- BB8&#45;&gt;BB11 -->
<g id="edge12" class="edge">
<title>BB8&#45;&gt;BB11</title>
<path fill="none" stroke="black" d="M322.64,-531.68C311.24,-520.44 298.9,-508.27 287.18,-496.71"/>
<polygon fill="black" stroke="black" points="289.55,-494.14 279.97,-489.61 284.64,-499.12 289.55,-494.14"/>
</g>
<!-- BB10 -->
<g id="node11" class="node">
<title>BB10</title>
<ellipse fill="none" stroke="black" cx="664.33" cy="-312.42" rx="103.48" ry="48.17"/>
<text text-anchor="middle" x="664.33" y="-331.22" font-family="Times New Roman,serif" font-size="14.00">[84..8a)</text>
<text text-anchor="middle" x="664.33" y="-316.22" font-family="Times New Roman,serif" font-size="14.00">Count: 0</text>
<text text-anchor="middle" x="664.33" y="-301.22" font-family="Times New Roman,serif" font-size="14.00">Normalized count: 0.00</text>
<text text-anchor="middle" x="664.33" y="-286.22" font-family="Times New Roman,serif" font-size="14.00">Samples weight: 0.00</text>
</g>
<!-- BB9&#45;&gt;BB10 -->
<g id="edge15" class="edge">
<title>BB9&#45;&gt;BB10</title>
<path fill="none" stroke="black" d="M621.78,-397.32C626.5,-388.02 631.5,-378.16 636.36,-368.58"/>
<polygon fill="black" stroke="black" points="639.55,-370.03 640.95,-359.53 633.31,-366.86 639.55,-370.03"/>
</g>
<!-- BB9&#45;&gt;BB15 -->
<g id="edge14" class="edge">
<title>BB9&#45;&gt;BB15</title>
<path fill="none" stroke="black" d="M620.81,-492.02C640.79,-534.95 669.52,-600.95 687.33,-660.83 716.77,-759.81 668.74,-806.28 730.33,-889.17 745.66,-909.79 767.61,-925.73 790.36,-937.88"/>
<polygon fill="black" stroke="black" points="788.95,-941.09 799.45,-942.51 792.13,-934.85 788.95,-941.09"/>
</g>
<!-- BB10&#45;&gt;BB15 -->
<g id="edge16" class="edge">
<title>BB10&#45;&gt;BB15</title>
<path fill="none" stroke="black" d="M703.22,-357.42C711.87,-369.37 720.03,-382.82 725.33,-396.5 754.26,-471.21 744.33,-495.64 744.33,-575.75 744.33,-709.92 744.33,-709.92 744.33,-709.92 744.33,-790.03 721.56,-820.81 763.33,-889.17 773.45,-905.73 788.26,-919.63 804.22,-931.05"/>
<polygon fill="black" stroke="black" points="802.42,-934.05 812.66,-936.79 806.36,-928.27 802.42,-934.05"/>
</g>
<!-- BB12 -->
<g id="node13" class="node">
<title>BB12</title>
<ellipse fill="none" stroke="black" cx="122.33" cy="-312.42" rx="122.16" ry="48.17"/>
<text text-anchor="middle" x="122.33" y="-331.22" font-family="Times New Roman,serif" font-size="14.00">[95..9e)</text>
<text text-anchor="middle" x="122.33" y="-316.22" font-family="Times New Roman,serif" font-size="14.00">Count: 24100</text>
<text text-anchor="middle" x="122.33" y="-301.22" font-family="Times New Roman,serif" font-size="14.00">Normalized count: 12050.00</text>
<text text-anchor="middle" x="122.33" y="-286.22" font-family="Times New Roman,serif" font-size="14.00">Samples weight: 0.07</text>
</g>
<!-- BB11&#45;&gt;BB12 -->
<g id="edge18" class="edge">
<title>BB11&#45;&gt;BB12</title>
<path fill="none" stroke="black" d="M196.44,-398.79C187.3,-388.25 177.47,-376.93 168.06,-366.09"/>
<polygon fill="black" stroke="black" points="170.49,-363.55 161.29,-358.29 165.2,-368.14 170.49,-363.55"/>
</g>
<!-- BB14 -->
<g id="node15" class="node">
<title>BB14</title>
<ellipse fill="none" stroke="black" cx="385.33" cy="-312.42" rx="122.16" ry="48.17"/>
<text text-anchor="middle" x="385.33" y="-331.22" font-family="Times New Roman,serif" font-size="14.00">[c4..d0)</text>
<text text-anchor="middle" x="385.33" y="-316.22" font-family="Times New Roman,serif" font-size="14.00">Count: 31946</text>
<text text-anchor="middle" x="385.33" y="-301.22" font-family="Times New Roman,serif" font-size="14.00">Normalized count: 15973.00</text>
<text text-anchor="middle" x="385.33" y="-286.22" font-family="Times New Roman,serif" font-size="14.00">Samples weight: 0.09</text>
</g>
<!-- BB11&#45;&gt;BB14 -->
<g id="edge17" class="edge">
<title>BB11&#45;&gt;BB14</title>
<path fill="none" stroke="black" d="M284.86,-400.6C298.61,-388.67 313.66,-375.61 327.83,-363.31"/>
<polygon fill="black" stroke="black" points="330.34,-365.77 335.59,-356.58 325.75,-360.49 330.34,-365.77"/>
</g>
<!-- BB13 -->
<g id="node14" class="node">
<title>BB13</title>
<ellipse fill="none" stroke="black" cx="254.33" cy="-180.25" rx="122.16" ry="48.17"/>
<text text-anchor="middle" x="254.33" y="-199.05" font-family="Times New Roman,serif" font-size="14.00">[9e..c4)</text>
<text text-anchor="middle" x="254.33" y="-184.05" font-family="Times New Roman,serif" font-size="14.00">Count: 51194</text>
<text text-anchor="middle" x="254.33" y="-169.05" font-family="Times New Roman,serif" font-size="14.00">Normalized count: 25597.00</text>
<text text-anchor="middle" x="254.33" y="-154.05" font-family="Times New Roman,serif" font-size="14.00">Samples weight: 0.15</text>
</g>
<!-- BB12&#45;&gt;BB13 -->
<g id="edge19" class="edge">
<title>BB12&#45;&gt;BB13</title>
<path fill="none" stroke="black" d="M167.02,-267.35C178.42,-256.11 190.76,-243.93 202.48,-232.38"/>
<polygon fill="black" stroke="black" points="205.02,-234.79 209.69,-225.27 200.11,-229.8 205.02,-234.79"/>
</g>
<!-- BB13&#45;&gt;BB13 -->
<g id="edge20" class="edge">
<title>BB13&#45;&gt;BB13</title>
<path fill="none" stroke="black" d="M361.4,-203.64C380.95,-200.68 394.66,-192.88 394.66,-180.25 394.66,-169.89 385.43,-162.78 371.33,-158.92"/>
<polygon fill="black" stroke="black" points="371.91,-155.47 361.4,-156.86 370.48,-162.32 371.91,-155.47"/>
</g>
<!-- BB13&#45;&gt;BB14 -->
<g id="edge21" class="edge">
<title>BB13&#45;&gt;BB14</title>
<path fill="none" stroke="black" d="M298.63,-225.27C309.94,-236.51 322.19,-248.68 333.83,-260.24"/>
<polygon fill="black" stroke="black" points="331.42,-262.78 340.98,-267.35 336.35,-257.82 331.42,-262.78"/>
</g>
<!-- BB14&#45;&gt;BB8 -->
<g id="edge22" class="edge">
<title>BB14&#45;&gt;BB8</title>
<path fill="none" stroke="black" d="M382.09,-360.68C379.05,-404.96 374.5,-471.21 371.26,-518.47"/>
<polygon fill="black" stroke="black" points="367.76,-518.33 370.57,-528.55 374.74,-518.81 367.76,-518.33"/>
</g>
<!-- BB16 -->
<g id="node17" class="node">
<title>BB16</title>
<ellipse fill="none" stroke="black" cx="1144.33" cy="-841.08" rx="118.17" ry="48.17"/>
<text text-anchor="middle" x="1144.33" y="-859.88" font-family="Times New Roman,serif" font-size="14.00">[d4..eb)</text>
<text text-anchor="middle" x="1144.33" y="-844.88" font-family="Times New Roman,serif" font-size="14.00">Count: 3073</text>
<text text-anchor="middle" x="1144.33" y="-829.88" font-family="Times New Roman,serif" font-size="14.00">Normalized count: 1536.50</text>
<text text-anchor="middle" x="1144.33" y="-814.88" font-family="Times New Roman,serif" font-size="14.00">Samples weight: 0.01</text>
</g>
<!-- BB15&#45;&gt;BB16 -->
<g id="edge24" class="edge">
<title>BB15&#45;&gt;BB16</title>
<path fill="none" stroke="black" d="M962.78,-935.12C994,-919.12 1030.67,-900.33 1062.84,-883.84"/>
<polygon fill="black" stroke="black" points="1064.48,-886.93 1071.79,-879.26 1061.29,-880.7 1064.48,-886.93"/>
</g>
<!-- BB17 -->
<g id="node18" class="node">
<title>BB17</title>
<ellipse fill="none" stroke="black" cx="890.33" cy="-841.08" rx="118.17" ry="48.17"/>
<text text-anchor="middle" x="890.33" y="-859.88" font-family="Times New Roman,serif" font-size="14.00">[eb..102)</text>
<text text-anchor="middle" x="890.33" y="-844.88" font-family="Times New Roman,serif" font-size="14.00">Count: 2873</text>
<text text-anchor="middle" x="890.33" y="-829.88" font-family="Times New Roman,serif" font-size="14.00">Normalized count: 1436.50</text>
<text text-anchor="middle" x="890.33" y="-814.88" font-family="Times New Roman,serif" font-size="14.00">Samples weight: 0.01</text>
</g>
<!-- BB15&#45;&gt;BB17 -->
<g id="edge23" class="edge">
<title>BB15&#45;&gt;BB17</title>
<path fill="none" stroke="black" d="M890.33,-924.89C890.33,-916.62 890.33,-907.94 890.33,-899.43"/>
<polygon fill="black" stroke="black" points="893.83,-899.19 890.33,-889.19 886.83,-899.19 893.83,-899.19"/>
</g>
<!-- BB16&#45;&gt;BB3 -->
<g id="edge25" class="edge">
<title>BB16&#45;&gt;BB3</title>
<path fill="none" stroke="black" d="M1144.33,-889.35C1144.33,-933.62 1144.33,-999.87 1144.33,-1047.13"/>
<polygon fill="black" stroke="black" points="1140.83,-1047.21 1144.33,-1057.21 1147.83,-1047.21 1140.83,-1047.21"/>
</g>
<!-- BB26 -->
<g id="node27" class="node">
<title>BB26</title>
<ellipse fill="none" stroke="black" cx="924.33" cy="-708.92" rx="118.17" ry="48.17"/>
<text text-anchor="middle" x="924.33" y="-727.72" font-family="Times New Roman,serif" font-size="14.00">[164..169)</text>
<text text-anchor="middle" x="924.33" y="-712.72" font-family="Times New Roman,serif" font-size="14.00">Count: 4138</text>
<text text-anchor="middle" x="924.33" y="-697.72" font-family="Times New Roman,serif" font-size="14.00">Normalized count: 2069.00</text>
<text text-anchor="middle" x="924.33" y="-682.72" font-family="Times New Roman,serif" font-size="14.00">Samples weight: 0.01</text>
</g>
<!-- BB17&#45;&gt;BB26 -->
<g id="edge26" class="edge">
<title>BB17&#45;&gt;BB26</title>
<path fill="none" stroke="black" d="M902.6,-793.09C904.84,-784.52 907.2,-775.49 909.5,-766.67"/>
<polygon fill="black" stroke="black" points="912.93,-767.4 912.07,-756.84 906.16,-765.63 912.93,-767.4"/>
</g>
<!-- BB18 -->
<g id="node19" class="node">
<title>BB18</title>
<ellipse fill="none" stroke="black" cx="958.33" cy="-576.75" rx="118.17" ry="48.17"/>
<text text-anchor="middle" x="958.33" y="-595.55" font-family="Times New Roman,serif" font-size="14.00">[102..10c)</text>
<text text-anchor="middle" x="958.33" y="-580.55" font-family="Times New Roman,serif" font-size="14.00">Count: 4138</text>
<text text-anchor="middle" x="958.33" y="-565.55" font-family="Times New Roman,serif" font-size="14.00">Normalized count: 2069.00</text>
<text text-anchor="middle" x="958.33" y="-550.55" font-family="Times New Roman,serif" font-size="14.00">Samples weight: 0.01</text>
</g>
<!-- BB19 -->
<g id="node20" class="node">
<title>BB19</title>
<ellipse fill="none" stroke="black" cx="1268.33" cy="-444.58" rx="118.17" ry="48.17"/>
<text text-anchor="middle" x="1268.33" y="-463.38" font-family="Times New Roman,serif" font-size="14.00">[10c..119)</text>
<text text-anchor="middle" x="1268.33" y="-448.38" font-family="Times New Roman,serif" font-size="14.00">Count: 2871</text>
<text text-anchor="middle" x="1268.33" y="-433.38" font-family="Times New Roman,serif" font-size="14.00">Normalized count: 1435.50</text>
<text text-anchor="middle" x="1268.33" y="-418.38" font-family="Times New Roman,serif" font-size="14.00">Samples weight: 0.01</text>
</g>
<!-- BB18&#45;&gt;BB19 -->
<g id="edge28" class="edge">
<title>BB18&#45;&gt;BB19</title>
<path fill="none" stroke="black" d="M1039.37,-541.72C1081.91,-523.86 1134.16,-501.92 1178,-483.51"/>
<polygon fill="black" stroke="black" points="1179.36,-486.74 1187.22,-479.64 1176.65,-480.28 1179.36,-486.74"/>
</g>
<!-- BB20 -->
<g id="node21" class="node">
<title>BB20</title>
<ellipse fill="none" stroke="black" cx="958.33" cy="-444.58" rx="113.27" ry="48.17"/>
<text text-anchor="middle" x="958.33" y="-463.38" font-family="Times New Roman,serif" font-size="14.00">[119..11f)</text>
<text text-anchor="middle" x="958.33" y="-448.38" font-family="Times New Roman,serif" font-size="14.00">Count: 1267</text>
<text text-anchor="middle" x="958.33" y="-433.38" font-family="Times New Roman,serif" font-size="14.00">Normalized count: 633.50</text>
<text text-anchor="middle" x="958.33" y="-418.38" font-family="Times New Roman,serif" font-size="14.00">Samples weight: 0.00</text>
</g>
<!-- BB18&#45;&gt;BB20 -->
<g id="edge27" class="edge">
<title>BB18&#45;&gt;BB20</title>
<path fill="none" stroke="black" d="M958.33,-528.39C958.33,-520.12 958.33,-511.44 958.33,-502.93"/>
<polygon fill="black" stroke="black" points="961.83,-502.69 958.33,-492.69 954.83,-502.69 961.83,-502.69"/>
</g>
<!-- BB19&#45;&gt;BB3 -->
<g id="edge29" class="edge">
<title>BB19&#45;&gt;BB3</title>
<path fill="none" stroke="black" d="M1294.74,-491.87C1300.4,-503.56 1305.75,-516.31 1309.33,-528.67 1331.62,-605.61 1328.33,-627.8 1328.33,-707.92 1328.33,-842.08 1328.33,-842.08 1328.33,-842.08 1328.33,-929.69 1299.91,-952.02 1246.33,-1021.33 1236.38,-1034.2 1224.07,-1046.34 1211.49,-1057.16"/>
<polygon fill="black" stroke="black" points="1209.07,-1054.62 1203.64,-1063.72 1213.55,-1059.99 1209.07,-1054.62"/>
</g>
<!-- BB21 -->
<g id="node22" class="node">
<title>BB21</title>
<ellipse fill="none" stroke="black" cx="943.33" cy="-312.42" rx="103.48" ry="48.17"/>
<text text-anchor="middle" x="943.33" y="-331.22" font-family="Times New Roman,serif" font-size="14.00">[11f..130)</text>
<text text-anchor="middle" x="943.33" y="-316.22" font-family="Times New Roman,serif" font-size="14.00">Count: 2</text>
<text text-anchor="middle" x="943.33" y="-301.22" font-family="Times New Roman,serif" font-size="14.00">Normalized count: 1.00</text>
<text text-anchor="middle" x="943.33" y="-286.22" font-family="Times New Roman,serif" font-size="14.00">Samples weight: 0.00</text>
</g>
<!-- BB20&#45;&gt;BB21 -->
<g id="edge31" class="edge">
<title>BB20&#45;&gt;BB21</title>
<path fill="none" stroke="black" d="M952.87,-396.22C951.91,-387.86 950.9,-379.08 949.91,-370.49"/>
<polygon fill="black" stroke="black" points="953.38,-370.06 948.76,-360.52 946.43,-370.86 953.38,-370.06"/>
</g>
<!-- BB22 -->
<g id="node23" class="node">
<title>BB22</title>
<ellipse fill="none" stroke="black" cx="1177.33" cy="-312.42" rx="113.27" ry="48.17"/>
<text text-anchor="middle" x="1177.33" y="-331.22" font-family="Times New Roman,serif" font-size="14.00">[130..140)</text>
<text text-anchor="middle" x="1177.33" y="-316.22" font-family="Times New Roman,serif" font-size="14.00">Count: 1265</text>
<text text-anchor="middle" x="1177.33" y="-301.22" font-family="Times New Roman,serif" font-size="14.00">Normalized count: 632.50</text>
<text text-anchor="middle" x="1177.33" y="-286.22" font-family="Times New Roman,serif" font-size="14.00">Samples weight: 0.00</text>
</g>
<!-- BB20&#45;&gt;BB22 -->
<g id="edge30" class="edge">
<title>BB20&#45;&gt;BB22</title>
<path fill="none" stroke="black" d="M1023.15,-405.06C1048.42,-390.04 1077.52,-372.74 1103.59,-357.25"/>
<polygon fill="black" stroke="black" points="1105.49,-360.19 1112.3,-352.07 1101.91,-354.17 1105.49,-360.19"/>
</g>
<!-- BB24 -->
<g id="node25" class="node">
<title>BB24</title>
<ellipse fill="none" stroke="black" cx="1148.33" cy="-180.25" rx="118.17" ry="48.17"/>
<text text-anchor="middle" x="1148.33" y="-199.05" font-family="Times New Roman,serif" font-size="14.00">[150..156)</text>
<text text-anchor="middle" x="1148.33" y="-184.05" font-family="Times New Roman,serif" font-size="14.00">Count: 5391</text>
<text text-anchor="middle" x="1148.33" y="-169.05" font-family="Times New Roman,serif" font-size="14.00">Normalized count: 2695.50</text>
<text text-anchor="middle" x="1148.33" y="-154.05" font-family="Times New Roman,serif" font-size="14.00">Samples weight: 0.02</text>
</g>
<!-- BB22&#45;&gt;BB24 -->
<g id="edge32" class="edge">
<title>BB22&#45;&gt;BB24</title>
<path fill="none" stroke="black" d="M1166.86,-264.42C1164.95,-255.85 1162.94,-246.83 1160.97,-238.01"/>
<polygon fill="black" stroke="black" points="1164.37,-237.17 1158.78,-228.17 1157.54,-238.7 1164.37,-237.17"/>
</g>
<!-- BB23 -->
<g id="node24" class="node">
<title>BB23</title>
<ellipse fill="none" stroke="black" cx="1148.33" cy="-48.08" rx="118.17" ry="48.17"/>
<text text-anchor="middle" x="1148.33" y="-66.88" font-family="Times New Roman,serif" font-size="14.00">[140..150)</text>
<text text-anchor="middle" x="1148.33" y="-51.88" font-family="Times New Roman,serif" font-size="14.00">Count: 4126</text>
<text text-anchor="middle" x="1148.33" y="-36.88" font-family="Times New Roman,serif" font-size="14.00">Normalized count: 2063.00</text>
<text text-anchor="middle" x="1148.33" y="-21.88" font-family="Times New Roman,serif" font-size="14.00">Samples weight: 0.01</text>
</g>
<!-- BB23&#45;&gt;BB24 -->
<g id="edge33" class="edge">
<title>BB23&#45;&gt;BB24</title>
<path fill="none" stroke="black" d="M1154.85,-96.19C1155.07,-104.45 1155.13,-113.13 1155.04,-121.64"/>
<polygon fill="black" stroke="black" points="1151.54,-121.83 1154.85,-131.89 1158.53,-121.95 1151.54,-121.83"/>
</g>
<!-- BB24&#45;&gt;BB23 -->
<g id="edge34" class="edge">
<title>BB24&#45;&gt;BB23</title>
<path fill="none" stroke="black" d="M1141.81,-131.89C1141.59,-123.62 1141.53,-114.94 1141.62,-106.43"/>
<polygon fill="black" stroke="black" points="1145.13,-106.26 1141.81,-96.19 1138.13,-106.12 1145.13,-106.26"/>
</g>
<!-- BB25 -->
<g id="node26" class="node">
<title>BB25</title>
<ellipse fill="none" stroke="black" cx="870.33" cy="-48.08" rx="113.27" ry="48.17"/>
<text text-anchor="middle" x="870.33" y="-66.88" font-family="Times New Roman,serif" font-size="14.00">[156..164)</text>
<text text-anchor="middle" x="870.33" y="-51.88" font-family="Times New Roman,serif" font-size="14.00">Count: 1265</text>
<text text-anchor="middle" x="870.33" y="-36.88" font-family="Times New Roman,serif" font-size="14.00">Normalized count: 632.50</text>
<text text-anchor="middle" x="870.33" y="-21.88" font-family="Times New Roman,serif" font-size="14.00">Samples weight: 0.00</text>
</g>
<!-- BB24&#45;&gt;BB25 -->
<g id="edge35" class="edge">
<title>BB24&#45;&gt;BB25</title>
<path fill="none" stroke="black" d="M1072,-143.51C1035.69,-126.51 992.17,-106.13 954.87,-88.67"/>
<polygon fill="black" stroke="black" points="956.07,-85.36 945.53,-84.29 953.1,-91.7 956.07,-85.36"/>
</g>
<!-- BB25&#45;&gt;BB26 -->
<g id="edge36" class="edge">
<title>BB25&#45;&gt;BB26</title>
<path fill="none" stroke="black" d="M853.55,-95.79C836.42,-147.72 812.33,-234.45 812.33,-311.42 812.33,-445.58 812.33,-445.58 812.33,-445.58 812.33,-525.7 794.79,-553.54 831.33,-624.83 837.91,-637.67 847.36,-649.45 857.75,-659.86"/>
<polygon fill="black" stroke="black" points="855.41,-662.47 865.06,-666.84 860.25,-657.41 855.41,-662.47"/>
</g>
<!-- BB26&#45;&gt;BB18 -->
<g id="edge37" class="edge">
<title>BB26&#45;&gt;BB18</title>
<path fill="none" stroke="black" d="M936.6,-660.92C938.84,-652.35 941.2,-643.33 943.5,-634.51"/>
<polygon fill="black" stroke="black" points="946.93,-635.23 946.07,-624.67 940.16,-633.46 946.93,-635.23"/>
</g>
<!-- BB27 -->
<g id="node28" class="node">
<title>BB27</title>
<ellipse fill="none" stroke="black" cx="1197.33" cy="-576.75" rx="103.48" ry="48.17"/>
<text text-anchor="middle" x="1197.33" y="-595.55" font-family="Times New Roman,serif" font-size="14.00">[169..16e)</text>
<text text-anchor="middle" x="1197.33" y="-580.55" font-family="Times New Roman,serif" font-size="14.00">Count: 0</text>
<text text-anchor="middle" x="1197.33" y="-565.55" font-family="Times New Roman,serif" font-size="14.00">Normalized count: 0.00</text>
<text text-anchor="middle" x="1197.33" y="-550.55" font-family="Times New Roman,serif" font-size="14.00">Samples weight: 0.00</text>
</g>
<!-- BB26&#45;&gt;BB27 -->
<g id="edge38" class="edge">
<title>BB26&#45;&gt;BB27</title>
<path fill="none" stroke="black" d="M1000.01,-671.83C1036.38,-654.49 1079.99,-633.7 1116.95,-616.08"/>
<polygon fill="black" stroke="black" points="1118.67,-619.13 1126.19,-611.67 1115.66,-612.81 1118.67,-619.13"/>
</g>
<!-- BB27&#45;&gt;BB3 -->
<g id="edge39" class="edge">
<title>BB27&#45;&gt;BB3</title>
<path fill="none" stroke="black" d="M1222.69,-623.64C1253.08,-684.59 1296.91,-795.48 1271.33,-889.17 1254.92,-949.28 1216.96,-1009.68 1186.78,-1051.14"/>
<polygon fill="black" stroke="black" points="1183.79,-1049.3 1180.67,-1059.43 1189.42,-1053.46 1183.79,-1049.3"/>
</g>
</g>
</svg>
