<?xml version="1.0" encoding="UTF-8" standalone="no"?>
<!DOCTYPE svg PUBLIC "-//W3C//DTD SVG 1.1//EN"
 "http://www.w3.org/Graphics/SVG/1.1/DTD/svg11.dtd">
<!-- Generated by graphviz version 2.47.0 (20210316.0004)
 -->
<!-- Title: G Pages: 1 -->
<svg width="363pt" height="1049pt"
 viewBox="0.00 0.00 362.63 1048.88" xmlns="http://www.w3.org/2000/svg" xmlns:xlink="http://www.w3.org/1999/xlink">
<g id="graph0" class="graph" transform="scale(1 1) rotate(0) translate(4 1044.88)">
<title>G</title>
<polygon fill="white" stroke="transparent" points="-4,4 -4,-1044.88 358.63,-1044.88 358.63,4 -4,4"/>
<!-- BB0 -->
<g id="node1" class="node">
<title>BB0</title>
<ellipse fill="none" stroke="black" cx="172.43" cy="-1014.01" rx="37.45" ry="26.74"/>
<text text-anchor="middle" x="172.43" y="-1017.81" font-family="Times New Roman,serif" font-size="14.00">[0..18)</text>
<text text-anchor="middle" x="172.43" y="-1002.81" font-family="Times New Roman,serif" font-size="14.00">0.02</text>
</g>
<!-- BB1 -->
<g id="node2" class="node">
<title>BB1</title>
<ellipse fill="none" stroke="black" cx="121.43" cy="-924.27" rx="42.35" ry="26.74"/>
<text text-anchor="middle" x="121.43" y="-928.07" font-family="Times New Roman,serif" font-size="14.00">[18..24)</text>
<text text-anchor="middle" x="121.43" y="-913.07" font-family="Times New Roman,serif" font-size="14.00">0.00</text>
</g>
<!-- BB0&#45;&gt;BB1 -->
<g id="edge2" class="edge">
<title>BB0&#45;&gt;BB1</title>
<path fill="none" stroke="black" d="M158.49,-989.04C153.02,-979.62 146.64,-968.65 140.73,-958.49"/>
<polygon fill="black" stroke="black" points="143.75,-956.72 135.7,-949.83 137.7,-960.23 143.75,-956.72"/>
</g>
<!-- BB2 -->
<g id="node3" class="node">
<title>BB2</title>
<ellipse fill="none" stroke="black" cx="223.43" cy="-924.27" rx="41.94" ry="26.74"/>
<text text-anchor="middle" x="223.43" y="-928.07" font-family="Times New Roman,serif" font-size="14.00">[24..2e)</text>
<text text-anchor="middle" x="223.43" y="-913.07" font-family="Times New Roman,serif" font-size="14.00">0.00</text>
</g>
<!-- BB0&#45;&gt;BB2 -->
<g id="edge1" class="edge">
<title>BB0&#45;&gt;BB2</title>
<path fill="none" stroke="black" d="M186.36,-989.04C191.84,-979.62 198.21,-968.65 204.12,-958.49"/>
<polygon fill="black" stroke="black" points="207.15,-960.23 209.15,-949.83 201.1,-956.72 207.15,-960.23"/>
</g>
<!-- BB3 -->
<g id="node4" class="node">
<title>BB3</title>
<ellipse fill="none" stroke="black" cx="172.43" cy="-834.53" rx="41.94" ry="26.74"/>
<text text-anchor="middle" x="172.43" y="-838.33" font-family="Times New Roman,serif" font-size="14.00">[2e..44)</text>
<text text-anchor="middle" x="172.43" y="-823.33" font-family="Times New Roman,serif" font-size="14.00">0.02</text>
</g>
<!-- BB1&#45;&gt;BB3 -->
<g id="edge3" class="edge">
<title>BB1&#45;&gt;BB3</title>
<path fill="none" stroke="black" d="M135.63,-898.83C141.05,-889.51 147.32,-878.73 153.13,-868.73"/>
<polygon fill="black" stroke="black" points="156.3,-870.25 158.3,-859.84 150.24,-866.73 156.3,-870.25"/>
</g>
<!-- BB2&#45;&gt;BB3 -->
<g id="edge4" class="edge">
<title>BB2&#45;&gt;BB3</title>
<path fill="none" stroke="black" d="M209.22,-898.83C203.8,-889.51 197.54,-878.73 191.73,-868.73"/>
<polygon fill="black" stroke="black" points="194.61,-866.73 186.56,-859.84 188.56,-870.25 194.61,-866.73"/>
</g>
<!-- BB4 -->
<g id="node5" class="node">
<title>BB4</title>
<ellipse fill="none" stroke="black" cx="121.43" cy="-744.79" rx="42.35" ry="26.74"/>
<text text-anchor="middle" x="121.43" y="-748.59" font-family="Times New Roman,serif" font-size="14.00">[44..49)</text>
<text text-anchor="middle" x="121.43" y="-733.59" font-family="Times New Roman,serif" font-size="14.00">0.01</text>
</g>
<!-- BB3&#45;&gt;BB4 -->
<g id="edge6" class="edge">
<title>BB3&#45;&gt;BB4</title>
<path fill="none" stroke="black" d="M158.22,-809.09C152.85,-799.85 146.64,-789.17 140.87,-779.24"/>
<polygon fill="black" stroke="black" points="143.78,-777.29 135.73,-770.4 137.73,-780.81 143.78,-777.29"/>
</g>
<!-- BB5 -->
<g id="node6" class="node">
<title>BB5</title>
<ellipse fill="none" stroke="black" cx="224.43" cy="-744.79" rx="42.35" ry="26.74"/>
<text text-anchor="middle" x="224.43" y="-748.59" font-family="Times New Roman,serif" font-size="14.00">[49..58)</text>
<text text-anchor="middle" x="224.43" y="-733.59" font-family="Times New Roman,serif" font-size="14.00">0.01</text>
</g>
<!-- BB3&#45;&gt;BB5 -->
<g id="edge5" class="edge">
<title>BB3&#45;&gt;BB5</title>
<path fill="none" stroke="black" d="M186.91,-809.09C192.43,-799.77 198.82,-788.99 204.75,-778.99"/>
<polygon fill="black" stroke="black" points="207.93,-780.49 210.02,-770.1 201.91,-776.92 207.93,-780.49"/>
</g>
<!-- BB18 -->
<g id="node19" class="node">
<title>BB18</title>
<ellipse fill="none" stroke="black" cx="224.43" cy="-655.05" rx="50.41" ry="26.74"/>
<text text-anchor="middle" x="224.43" y="-658.85" font-family="Times New Roman,serif" font-size="14.00">[11f..128)</text>
<text text-anchor="middle" x="224.43" y="-643.85" font-family="Times New Roman,serif" font-size="14.00">0.01</text>
</g>
<!-- BB5&#45;&gt;BB18 -->
<g id="edge7" class="edge">
<title>BB5&#45;&gt;BB18</title>
<path fill="none" stroke="black" d="M224.43,-717.47C224.43,-709.5 224.43,-700.61 224.43,-692.12"/>
<polygon fill="black" stroke="black" points="227.93,-692.05 224.43,-682.05 220.93,-692.05 227.93,-692.05"/>
</g>
<!-- BB6 -->
<g id="node7" class="node">
<title>BB6</title>
<ellipse fill="none" stroke="black" cx="111.43" cy="-565.31" rx="42.35" ry="26.74"/>
<text text-anchor="middle" x="111.43" y="-569.11" font-family="Times New Roman,serif" font-size="14.00">[58..72)</text>
<text text-anchor="middle" x="111.43" y="-554.11" font-family="Times New Roman,serif" font-size="14.00">0.05</text>
</g>
<!-- BB7 -->
<g id="node8" class="node">
<title>BB7</title>
<ellipse fill="none" stroke="black" cx="111.43" cy="-475.57" rx="42.35" ry="26.74"/>
<text text-anchor="middle" x="111.43" y="-479.37" font-family="Times New Roman,serif" font-size="14.00">[72..7c)</text>
<text text-anchor="middle" x="111.43" y="-464.37" font-family="Times New Roman,serif" font-size="14.00">0.02</text>
</g>
<!-- BB6&#45;&gt;BB7 -->
<g id="edge9" class="edge">
<title>BB6&#45;&gt;BB7</title>
<path fill="none" stroke="black" d="M111.43,-537.99C111.43,-530.02 111.43,-521.13 111.43,-512.64"/>
<polygon fill="black" stroke="black" points="114.93,-512.57 111.43,-502.57 107.93,-512.57 114.93,-512.57"/>
</g>
<!-- BB20 -->
<g id="node21" class="node">
<title>BB20</title>
<ellipse fill="none" stroke="black" cx="224.43" cy="-475.57" rx="52.15" ry="26.74"/>
<text text-anchor="middle" x="224.43" y="-479.37" font-family="Times New Roman,serif" font-size="14.00">[12c..12d)</text>
<text text-anchor="middle" x="224.43" y="-464.37" font-family="Times New Roman,serif" font-size="14.00">0.00</text>
</g>
<!-- BB6&#45;&gt;BB20 -->
<g id="edge8" class="edge">
<title>BB6&#45;&gt;BB20</title>
<path fill="none" stroke="black" d="M137.63,-543.96C152.63,-532.32 171.65,-517.55 188.07,-504.8"/>
<polygon fill="black" stroke="black" points="190.63,-507.24 196.38,-498.34 186.34,-501.71 190.63,-507.24"/>
</g>
<!-- BB8 -->
<g id="node9" class="node">
<title>BB8</title>
<ellipse fill="none" stroke="black" cx="42.43" cy="-385.83" rx="42.35" ry="26.74"/>
<text text-anchor="middle" x="42.43" y="-389.63" font-family="Times New Roman,serif" font-size="14.00">[7c..89)</text>
<text text-anchor="middle" x="42.43" y="-374.63" font-family="Times New Roman,serif" font-size="14.00">0.00</text>
</g>
<!-- BB7&#45;&gt;BB8 -->
<g id="edge11" class="edge">
<title>BB7&#45;&gt;BB8</title>
<path fill="none" stroke="black" d="M92.94,-451.06C84.98,-440.95 75.57,-428.98 67.04,-418.13"/>
<polygon fill="black" stroke="black" points="69.66,-415.8 60.73,-410.1 64.16,-420.13 69.66,-415.8"/>
</g>
<!-- BB9 -->
<g id="node10" class="node">
<title>BB9</title>
<ellipse fill="none" stroke="black" cx="144.43" cy="-385.83" rx="41.94" ry="26.74"/>
<text text-anchor="middle" x="144.43" y="-389.63" font-family="Times New Roman,serif" font-size="14.00">[89..a5)</text>
<text text-anchor="middle" x="144.43" y="-374.63" font-family="Times New Roman,serif" font-size="14.00">0.33</text>
</g>
<!-- BB7&#45;&gt;BB9 -->
<g id="edge10" class="edge">
<title>BB7&#45;&gt;BB9</title>
<path fill="none" stroke="black" d="M120.97,-449.19C124.19,-440.64 127.83,-430.95 131.28,-421.79"/>
<polygon fill="black" stroke="black" points="134.66,-422.74 134.9,-412.15 128.11,-420.28 134.66,-422.74"/>
</g>
<!-- BB10 -->
<g id="node11" class="node">
<title>BB10</title>
<ellipse fill="none" stroke="black" cx="72.43" cy="-296.09" rx="42.35" ry="26.74"/>
<text text-anchor="middle" x="72.43" y="-299.89" font-family="Times New Roman,serif" font-size="14.00">[a5..b1)</text>
<text text-anchor="middle" x="72.43" y="-284.89" font-family="Times New Roman,serif" font-size="14.00">0.00</text>
</g>
<!-- BB9&#45;&gt;BB10 -->
<g id="edge13" class="edge">
<title>BB9&#45;&gt;BB10</title>
<path fill="none" stroke="black" d="M125.51,-361.78C117.06,-351.48 106.98,-339.19 97.88,-328.11"/>
<polygon fill="black" stroke="black" points="100.52,-325.8 91.47,-320.29 95.11,-330.24 100.52,-325.8"/>
</g>
<!-- BB11 -->
<g id="node12" class="node">
<title>BB11</title>
<ellipse fill="none" stroke="black" cx="176.43" cy="-296.09" rx="43.68" ry="26.74"/>
<text text-anchor="middle" x="176.43" y="-299.89" font-family="Times New Roman,serif" font-size="14.00">[b1..bb)</text>
<text text-anchor="middle" x="176.43" y="-284.89" font-family="Times New Roman,serif" font-size="14.00">0.00</text>
</g>
<!-- BB9&#45;&gt;BB11 -->
<g id="edge12" class="edge">
<title>BB9&#45;&gt;BB11</title>
<path fill="none" stroke="black" d="M153.68,-359.45C156.8,-350.9 160.34,-341.21 163.67,-332.05"/>
<polygon fill="black" stroke="black" points="167.05,-333.01 167.19,-322.41 160.48,-330.61 167.05,-333.01"/>
</g>
<!-- BB12 -->
<g id="node13" class="node">
<title>BB12</title>
<ellipse fill="none" stroke="black" cx="118.43" cy="-206.35" rx="43.68" ry="26.74"/>
<text text-anchor="middle" x="118.43" y="-210.15" font-family="Times New Roman,serif" font-size="14.00">[bb..d3)</text>
<text text-anchor="middle" x="118.43" y="-195.15" font-family="Times New Roman,serif" font-size="14.00">0.20</text>
</g>
<!-- BB10&#45;&gt;BB12 -->
<g id="edge14" class="edge">
<title>BB10&#45;&gt;BB12</title>
<path fill="none" stroke="black" d="M85.49,-270.18C90.2,-261.2 95.59,-250.9 100.64,-241.28"/>
<polygon fill="black" stroke="black" points="103.79,-242.8 105.34,-232.32 97.59,-239.55 103.79,-242.8"/>
</g>
<!-- BB11&#45;&gt;BB12 -->
<g id="edge15" class="edge">
<title>BB11&#45;&gt;BB12</title>
<path fill="none" stroke="black" d="M160.27,-270.65C154.05,-261.24 146.84,-250.33 140.17,-240.25"/>
<polygon fill="black" stroke="black" points="142.93,-238.07 134.5,-231.66 137.09,-241.93 142.93,-238.07"/>
</g>
<!-- BB13 -->
<g id="node14" class="node">
<title>BB13</title>
<ellipse fill="none" stroke="black" cx="214.43" cy="-116.61" rx="42.35" ry="26.74"/>
<text text-anchor="middle" x="214.43" y="-120.41" font-family="Times New Roman,serif" font-size="14.00">[d3..e9)</text>
<text text-anchor="middle" x="214.43" y="-105.41" font-family="Times New Roman,serif" font-size="14.00">0.02</text>
</g>
<!-- BB12&#45;&gt;BB13 -->
<g id="edge17" class="edge">
<title>BB12&#45;&gt;BB13</title>
<path fill="none" stroke="black" d="M142.16,-183.66C154.6,-172.29 169.99,-158.23 183.36,-146"/>
<polygon fill="black" stroke="black" points="185.95,-148.38 190.97,-139.05 181.23,-143.21 185.95,-148.38"/>
</g>
<!-- BB15 -->
<g id="node16" class="node">
<title>BB15</title>
<ellipse fill="none" stroke="black" cx="108.43" cy="-116.61" rx="45.92" ry="26.74"/>
<text text-anchor="middle" x="108.43" y="-120.41" font-family="Times New Roman,serif" font-size="14.00">[f7..10d)</text>
<text text-anchor="middle" x="108.43" y="-105.41" font-family="Times New Roman,serif" font-size="14.00">0.13</text>
</g>
<!-- BB12&#45;&gt;BB15 -->
<g id="edge16" class="edge">
<title>BB12&#45;&gt;BB15</title>
<path fill="none" stroke="black" d="M115.48,-179.5C114.55,-171.36 113.51,-162.22 112.52,-153.51"/>
<polygon fill="black" stroke="black" points="116,-153.12 111.39,-143.58 109.04,-153.91 116,-153.12"/>
</g>
<!-- BB14 -->
<g id="node15" class="node">
<title>BB14</title>
<ellipse fill="none" stroke="black" cx="195.43" cy="-26.87" rx="40.11" ry="26.74"/>
<text text-anchor="middle" x="195.43" y="-30.67" font-family="Times New Roman,serif" font-size="14.00">[e9..f7)</text>
<text text-anchor="middle" x="195.43" y="-15.67" font-family="Times New Roman,serif" font-size="14.00">0.12</text>
</g>
<!-- BB13&#45;&gt;BB14 -->
<g id="edge19" class="edge">
<title>BB13&#45;&gt;BB14</title>
<path fill="none" stroke="black" d="M208.83,-89.76C207.05,-81.55 205.05,-72.32 203.15,-63.54"/>
<polygon fill="black" stroke="black" points="206.52,-62.57 200.98,-53.54 199.68,-64.05 206.52,-62.57"/>
</g>
<!-- BB17 -->
<g id="node18" class="node">
<title>BB17</title>
<ellipse fill="none" stroke="black" cx="304.43" cy="-26.87" rx="50.41" ry="26.74"/>
<text text-anchor="middle" x="304.43" y="-30.67" font-family="Times New Roman,serif" font-size="14.00">[119..11f)</text>
<text text-anchor="middle" x="304.43" y="-15.67" font-family="Times New Roman,serif" font-size="14.00">0.01</text>
</g>
<!-- BB13&#45;&gt;BB17 -->
<g id="edge18" class="edge">
<title>BB13&#45;&gt;BB17</title>
<path fill="none" stroke="black" d="M237.14,-93.47C248.18,-82.71 261.61,-69.61 273.56,-57.96"/>
<polygon fill="black" stroke="black" points="276.06,-60.41 280.78,-50.92 271.18,-55.4 276.06,-60.41"/>
</g>
<!-- BB14&#45;&gt;BB17 -->
<g id="edge20" class="edge">
<title>BB14&#45;&gt;BB17</title>
<path fill="none" stroke="black" d="M235.88,-26.87C238.53,-26.87 241.19,-26.87 243.84,-26.87"/>
<polygon fill="black" stroke="black" points="244.08,-30.37 254.08,-26.87 244.08,-23.37 244.08,-30.37"/>
</g>
<!-- BB16 -->
<g id="node17" class="node">
<title>BB16</title>
<ellipse fill="none" stroke="black" cx="84.43" cy="-26.87" rx="52.15" ry="26.74"/>
<text text-anchor="middle" x="84.43" y="-30.67" font-family="Times New Roman,serif" font-size="14.00">[10d..119)</text>
<text text-anchor="middle" x="84.43" y="-15.67" font-family="Times New Roman,serif" font-size="14.00">0.00</text>
</g>
<!-- BB15&#45;&gt;BB16 -->
<g id="edge22" class="edge">
<title>BB15&#45;&gt;BB16</title>
<path fill="none" stroke="black" d="M101.36,-89.76C99.08,-81.46 96.53,-72.12 94.11,-63.26"/>
<polygon fill="black" stroke="black" points="97.46,-62.26 91.45,-53.54 90.71,-64.1 97.46,-62.26"/>
</g>
<!-- BB15&#45;&gt;BB17 -->
<g id="edge21" class="edge">
<title>BB15&#45;&gt;BB17</title>
<path fill="none" stroke="black" d="M143.28,-99.05C149.95,-95.93 156.89,-92.71 163.43,-89.74 194.34,-75.69 229.29,-60.35 256.66,-48.46"/>
<polygon fill="black" stroke="black" points="258.22,-51.6 266.01,-44.41 255.44,-45.18 258.22,-51.6"/>
</g>
<!-- BB16&#45;&gt;BB17 -->
<g id="edge23" class="edge">
<title>BB16&#45;&gt;BB17</title>
<path fill="none" stroke="black" d="M112.33,-49.65C124.74,-58.37 140.02,-67.28 155.43,-71.74 189.58,-81.63 201.34,-81.85 235.43,-71.74 247.2,-68.25 258.84,-62.05 269.12,-55.34"/>
<polygon fill="black" stroke="black" points="271.15,-58.2 277.4,-49.65 267.18,-52.43 271.15,-58.2"/>
</g>
<!-- BB17&#45;&gt;BB18 -->
<g id="edge24" class="edge">
<title>BB17&#45;&gt;BB18</title>
<path fill="none" stroke="black" d="M304.43,-54.03C304.43,-88.65 304.43,-151.58 304.43,-205.35 304.43,-476.57 304.43,-476.57 304.43,-476.57 304.43,-528.64 309.04,-545.77 285.43,-592.18 279.16,-604.5 269.56,-615.93 259.82,-625.52"/>
<polygon fill="black" stroke="black" points="257.3,-623.1 252.4,-632.49 262.09,-628.2 257.3,-623.1"/>
</g>
<!-- BB18&#45;&gt;BB6 -->
<g id="edge25" class="edge">
<title>BB18&#45;&gt;BB6</title>
<path fill="none" stroke="black" d="M196.78,-632.59C181.43,-620.66 162.18,-605.72 145.86,-593.04"/>
<polygon fill="black" stroke="black" points="147.66,-590.02 137.62,-586.65 143.37,-595.55 147.66,-590.02"/>
</g>
<!-- BB19 -->
<g id="node20" class="node">
<title>BB19</title>
<ellipse fill="none" stroke="black" cx="224.43" cy="-565.31" rx="52.15" ry="26.74"/>
<text text-anchor="middle" x="224.43" y="-569.11" font-family="Times New Roman,serif" font-size="14.00">[128..12c)</text>
<text text-anchor="middle" x="224.43" y="-554.11" font-family="Times New Roman,serif" font-size="14.00">0.06</text>
</g>
<!-- BB18&#45;&gt;BB19 -->
<g id="edge26" class="edge">
<title>BB18&#45;&gt;BB19</title>
<path fill="none" stroke="black" d="M224.43,-627.73C224.43,-619.76 224.43,-610.87 224.43,-602.38"/>
<polygon fill="black" stroke="black" points="227.93,-602.31 224.43,-592.31 220.93,-602.31 227.93,-602.31"/>
</g>
<!-- BB19&#45;&gt;BB20 -->
<g id="edge27" class="edge">
<title>BB19&#45;&gt;BB20</title>
<path fill="none" stroke="black" d="M224.43,-537.99C224.43,-530.02 224.43,-521.13 224.43,-512.64"/>
<polygon fill="black" stroke="black" points="227.93,-512.57 224.43,-502.57 220.93,-512.57 227.93,-512.57"/>
</g>
</g>
</svg>
