<?xml version="1.0" encoding="UTF-8" standalone="no"?>
<!DOCTYPE svg PUBLIC "-//W3C//DTD SVG 1.1//EN"
 "http://www.w3.org/Graphics/SVG/1.1/DTD/svg11.dtd">
<!-- Generated by graphviz version 2.47.0 (20210316.0004)
 -->
<!-- Title: G Pages: 1 -->
<svg width="788pt" height="638pt"
 viewBox="0.00 0.00 787.72 637.72" xmlns="http://www.w3.org/2000/svg" xmlns:xlink="http://www.w3.org/1999/xlink">
<g id="graph0" class="graph" transform="scale(1 1) rotate(0) translate(4 633.72)">
<title>G</title>
<polygon fill="white" stroke="transparent" points="-4,4 -4,-633.72 783.72,-633.72 783.72,4 -4,4"/>
<!-- BB0 -->
<g id="node1" class="node">
<title>BB0</title>
<ellipse fill="none" stroke="black" cx="541.36" cy="-592.24" rx="105.22" ry="37.45"/>
<text text-anchor="middle" x="541.36" y="-603.54" font-family="Times New Roman,serif" font-size="14.00">[0..9)</text>
<text text-anchor="middle" x="541.36" y="-588.54" font-family="Times New Roman,serif" font-size="14.00">Normalized Count: 1.00</text>
<text text-anchor="middle" x="541.36" y="-573.54" font-family="Times New Roman,serif" font-size="14.00">Samples weight: 0.00</text>
</g>
<!-- BB8 -->
<g id="node9" class="node">
<title>BB8</title>
<ellipse fill="none" stroke="black" cx="541.36" cy="-481.29" rx="105.22" ry="37.45"/>
<text text-anchor="middle" x="541.36" y="-492.59" font-family="Times New Roman,serif" font-size="14.00">[d4..db)</text>
<text text-anchor="middle" x="541.36" y="-477.59" font-family="Times New Roman,serif" font-size="14.00">Normalized Count: 3.60</text>
<text text-anchor="middle" x="541.36" y="-462.59" font-family="Times New Roman,serif" font-size="14.00">Samples weight: 0.01</text>
</g>
<!-- BB0&#45;&gt;BB8 -->
<g id="edge1" class="edge">
<title>BB0&#45;&gt;BB8</title>
<path fill="none" stroke="black" d="M541.36,-554.66C541.36,-546.49 541.36,-537.71 541.36,-529.18"/>
<polygon fill="black" stroke="black" points="544.86,-528.96 541.36,-518.96 537.86,-528.96 544.86,-528.96"/>
</g>
<!-- BB1 -->
<g id="node2" class="node">
<title>BB1</title>
<ellipse fill="none" stroke="black" cx="401.36" cy="-370.34" rx="110.12" ry="37.45"/>
<text text-anchor="middle" x="401.36" y="-381.64" font-family="Times New Roman,serif" font-size="14.00">[9..2f)</text>
<text text-anchor="middle" x="401.36" y="-366.64" font-family="Times New Roman,serif" font-size="14.00">Normalized Count: 14.10</text>
<text text-anchor="middle" x="401.36" y="-351.64" font-family="Times New Roman,serif" font-size="14.00">Samples weight: 0.04</text>
</g>
<!-- BB2 -->
<g id="node3" class="node">
<title>BB2</title>
<ellipse fill="none" stroke="black" cx="369.36" cy="-259.38" rx="115.02" ry="37.45"/>
<text text-anchor="middle" x="369.36" y="-270.68" font-family="Times New Roman,serif" font-size="14.00">[2f..93)</text>
<text text-anchor="middle" x="369.36" y="-255.68" font-family="Times New Roman,serif" font-size="14.00">Normalized Count: 307.90</text>
<text text-anchor="middle" x="369.36" y="-240.68" font-family="Times New Roman,serif" font-size="14.00">Samples weight: 0.85</text>
</g>
<!-- BB1&#45;&gt;BB2 -->
<g id="edge2" class="edge">
<title>BB1&#45;&gt;BB2</title>
<path fill="none" stroke="black" d="M390.61,-332.75C388.16,-324.4 385.52,-315.41 382.97,-306.71"/>
<polygon fill="black" stroke="black" points="386.31,-305.66 380.13,-297.06 379.59,-307.64 386.31,-305.66"/>
</g>
<!-- BB3 -->
<g id="node4" class="node">
<title>BB3</title>
<ellipse fill="none" stroke="black" cx="110.36" cy="-148.43" rx="105.22" ry="37.45"/>
<text text-anchor="middle" x="110.36" y="-159.73" font-family="Times New Roman,serif" font-size="14.00">[93..9e)</text>
<text text-anchor="middle" x="110.36" y="-144.73" font-family="Times New Roman,serif" font-size="14.00">Normalized Count: 4.90</text>
<text text-anchor="middle" x="110.36" y="-129.73" font-family="Times New Roman,serif" font-size="14.00">Samples weight: 0.01</text>
</g>
<!-- BB2&#45;&gt;BB3 -->
<g id="edge4" class="edge">
<title>BB2&#45;&gt;BB3</title>
<path fill="none" stroke="black" d="M300.29,-229.33C265.21,-214.57 222.51,-196.61 186.49,-181.45"/>
<polygon fill="black" stroke="black" points="187.57,-178.11 177,-177.46 184.86,-184.57 187.57,-178.11"/>
</g>
<!-- BB4 -->
<g id="node5" class="node">
<title>BB4</title>
<ellipse fill="none" stroke="black" cx="339.36" cy="-148.43" rx="105.22" ry="37.45"/>
<text text-anchor="middle" x="339.36" y="-159.73" font-family="Times New Roman,serif" font-size="14.00">[9e..b1)</text>
<text text-anchor="middle" x="339.36" y="-144.73" font-family="Times New Roman,serif" font-size="14.00">Normalized Count: 9.25</text>
<text text-anchor="middle" x="339.36" y="-129.73" font-family="Times New Roman,serif" font-size="14.00">Samples weight: 0.03</text>
</g>
<!-- BB2&#45;&gt;BB4 -->
<g id="edge3" class="edge">
<title>BB2&#45;&gt;BB4</title>
<path fill="none" stroke="black" d="M359.29,-221.8C356.99,-213.45 354.51,-204.46 352.12,-195.76"/>
<polygon fill="black" stroke="black" points="355.49,-194.81 349.46,-186.1 348.74,-196.67 355.49,-194.81"/>
</g>
<!-- BB3&#45;&gt;BB4 -->
<g id="edge6" class="edge">
<title>BB3&#45;&gt;BB4</title>
<path fill="none" stroke="black" d="M215.91,-148.43C218.52,-148.43 221.12,-148.43 223.72,-148.43"/>
<polygon fill="black" stroke="black" points="223.76,-151.93 233.76,-148.43 223.76,-144.93 223.76,-151.93"/>
</g>
<!-- BB7 -->
<g id="node8" class="node">
<title>BB7</title>
<ellipse fill="none" stroke="black" cx="573.36" cy="-37.48" rx="105.22" ry="37.45"/>
<text text-anchor="middle" x="573.36" y="-48.78" font-family="Times New Roman,serif" font-size="14.00">[c9..d4)</text>
<text text-anchor="middle" x="573.36" y="-33.78" font-family="Times New Roman,serif" font-size="14.00">Normalized Count: 3.50</text>
<text text-anchor="middle" x="573.36" y="-18.78" font-family="Times New Roman,serif" font-size="14.00">Samples weight: 0.01</text>
</g>
<!-- BB3&#45;&gt;BB7 -->
<g id="edge5" class="edge">
<title>BB3&#45;&gt;BB7</title>
<path fill="none" stroke="black" d="M185.06,-121.91C198.38,-117.88 212.21,-114.04 225.36,-110.95 327.38,-87.04 356.34,-98.86 458.36,-74.95 468.33,-72.62 478.68,-69.84 488.91,-66.88"/>
<polygon fill="black" stroke="black" points="490.07,-70.19 498.66,-64 488.08,-63.48 490.07,-70.19"/>
</g>
<!-- BB5 -->
<g id="node6" class="node">
<title>BB5</title>
<ellipse fill="none" stroke="black" cx="105.36" cy="-37.48" rx="105.22" ry="37.45"/>
<text text-anchor="middle" x="105.36" y="-48.78" font-family="Times New Roman,serif" font-size="14.00">[b1..bc)</text>
<text text-anchor="middle" x="105.36" y="-33.78" font-family="Times New Roman,serif" font-size="14.00">Normalized Count: 5.15</text>
<text text-anchor="middle" x="105.36" y="-18.78" font-family="Times New Roman,serif" font-size="14.00">Samples weight: 0.01</text>
</g>
<!-- BB4&#45;&gt;BB5 -->
<g id="edge8" class="edge">
<title>BB4&#45;&gt;BB5</title>
<path fill="none" stroke="black" d="M276.65,-118.23C246.09,-104 209.19,-86.82 177.47,-72.05"/>
<polygon fill="black" stroke="black" points="178.78,-68.8 168.24,-67.75 175.83,-75.15 178.78,-68.8"/>
</g>
<!-- BB6 -->
<g id="node7" class="node">
<title>BB6</title>
<ellipse fill="none" stroke="black" cx="339.36" cy="-37.48" rx="110.12" ry="37.45"/>
<text text-anchor="middle" x="339.36" y="-48.78" font-family="Times New Roman,serif" font-size="14.00">[bc..c9)</text>
<text text-anchor="middle" x="339.36" y="-33.78" font-family="Times New Roman,serif" font-size="14.00">Normalized Count: 14.65</text>
<text text-anchor="middle" x="339.36" y="-18.78" font-family="Times New Roman,serif" font-size="14.00">Samples weight: 0.04</text>
</g>
<!-- BB4&#45;&gt;BB6 -->
<g id="edge7" class="edge">
<title>BB4&#45;&gt;BB6</title>
<path fill="none" stroke="black" d="M339.36,-110.85C339.36,-102.67 339.36,-93.89 339.36,-85.37"/>
<polygon fill="black" stroke="black" points="342.86,-85.15 339.36,-75.15 335.86,-85.15 342.86,-85.15"/>
</g>
<!-- BB5&#45;&gt;BB6 -->
<g id="edge10" class="edge">
<title>BB5&#45;&gt;BB6</title>
<path fill="none" stroke="black" d="M210.93,-37.48C213.57,-37.48 216.2,-37.48 218.83,-37.48"/>
<polygon fill="black" stroke="black" points="218.99,-40.98 228.99,-37.48 218.99,-33.98 218.99,-40.98"/>
</g>
<!-- BB5&#45;&gt;BB7 -->
<g id="edge9" class="edge">
<title>BB5&#45;&gt;BB7</title>
<path fill="none" stroke="black" d="M162.62,-69.13C183.05,-78.77 206.64,-88.1 229.36,-92.95 324.98,-113.37 353.74,-113.37 449.36,-92.95 468.7,-88.82 488.69,-81.44 506.81,-73.39"/>
<polygon fill="black" stroke="black" points="508.47,-76.48 516.1,-69.13 505.55,-70.11 508.47,-76.48"/>
</g>
<!-- BB6&#45;&gt;BB2 -->
<g id="edge11" class="edge">
<title>BB6&#45;&gt;BB2</title>
<path fill="none" stroke="black" d="M407.88,-66.86C425.9,-77.84 443.14,-92.35 453.36,-110.95 469.4,-140.15 467.23,-155.62 453.36,-185.91 447.73,-198.19 438.89,-209.18 429.01,-218.66"/>
<polygon fill="black" stroke="black" points="426.37,-216.33 421.29,-225.62 431.06,-221.53 426.37,-216.33"/>
</g>
<!-- BB6&#45;&gt;BB7 -->
<g id="edge12" class="edge">
<title>BB6&#45;&gt;BB7</title>
<path fill="none" stroke="black" d="M449.96,-37.48C452.56,-37.48 455.16,-37.48 457.76,-37.48"/>
<polygon fill="black" stroke="black" points="457.8,-40.98 467.8,-37.48 457.8,-33.98 457.8,-40.98"/>
</g>
<!-- BB7&#45;&gt;BB8 -->
<g id="edge13" class="edge">
<title>BB7&#45;&gt;BB8</title>
<path fill="none" stroke="black" d="M570.71,-75.05C564.92,-155.04 551.13,-345.4 544.73,-433.76"/>
<polygon fill="black" stroke="black" points="541.24,-433.53 544,-443.76 548.22,-434.04 541.24,-433.53"/>
</g>
<!-- BB8&#45;&gt;BB1 -->
<g id="edge14" class="edge">
<title>BB8&#45;&gt;BB1</title>
<path fill="none" stroke="black" d="M498.59,-447.01C484.21,-435.81 468.01,-423.21 453.01,-411.54"/>
<polygon fill="black" stroke="black" points="454.87,-408.55 444.83,-405.17 450.57,-414.07 454.87,-408.55"/>
</g>
<!-- BB9 -->
<g id="node10" class="node">
<title>BB9</title>
<ellipse fill="none" stroke="black" cx="674.36" cy="-370.34" rx="105.22" ry="37.45"/>
<text text-anchor="middle" x="674.36" y="-381.64" font-family="Times New Roman,serif" font-size="14.00">[db..e0)</text>
<text text-anchor="middle" x="674.36" y="-366.64" font-family="Times New Roman,serif" font-size="14.00">Normalized Count: 0.00</text>
<text text-anchor="middle" x="674.36" y="-351.64" font-family="Times New Roman,serif" font-size="14.00">Samples weight: 0.00</text>
</g>
<!-- BB8&#45;&gt;BB9 -->
<g id="edge15" class="edge">
<title>BB8&#45;&gt;BB9</title>
<path fill="none" stroke="black" d="M582.35,-446.71C596,-435.53 611.34,-422.96 625.53,-411.34"/>
<polygon fill="black" stroke="black" points="627.76,-414.04 633.28,-404.99 623.32,-408.62 627.76,-414.04"/>
</g>
</g>
</svg>
