<?xml version="1.0" encoding="UTF-8" standalone="no"?>
<!DOCTYPE svg PUBLIC "-//W3C//DTD SVG 1.1//EN"
 "http://www.w3.org/Graphics/SVG/1.1/DTD/svg11.dtd">
<!-- Generated by graphviz version 2.47.0 (20210316.0004)
 -->
<!-- Title: G Pages: 1 -->
<svg width="870pt" height="1558pt"
 viewBox="0.00 0.00 869.69 1558.00" xmlns="http://www.w3.org/2000/svg" xmlns:xlink="http://www.w3.org/1999/xlink">
<g id="graph0" class="graph" transform="scale(1 1) rotate(0) translate(4 1554)">
<title>G</title>
<polygon fill="white" stroke="transparent" points="-4,4 -4,-1554 865.69,-1554 865.69,4 -4,4"/>
<!-- BB0 -->
<g id="node1" class="node">
<title>BB0</title>
<ellipse fill="none" stroke="black" cx="307.84" cy="-1501.92" rx="104.8" ry="48.17"/>
<text text-anchor="middle" x="307.84" y="-1520.72" font-family="Times New Roman,serif" font-size="14.00">[0..a)</text>
<text text-anchor="middle" x="307.84" y="-1505.72" font-family="Times New Roman,serif" font-size="14.00">Count: 0</text>
<text text-anchor="middle" x="307.84" y="-1490.72" font-family="Times New Roman,serif" font-size="14.00">Normalized count: NaN</text>
<text text-anchor="middle" x="307.84" y="-1475.72" font-family="Times New Roman,serif" font-size="14.00">Samples weight: 0.00</text>
</g>
<!-- BB1 -->
<g id="node2" class="node">
<title>BB1</title>
<ellipse fill="none" stroke="black" cx="307.84" cy="-1369.75" rx="113.69" ry="48.17"/>
<text text-anchor="middle" x="307.84" y="-1388.55" font-family="Times New Roman,serif" font-size="14.00">[a..12)</text>
<text text-anchor="middle" x="307.84" y="-1373.55" font-family="Times New Roman,serif" font-size="14.00">Count: 3</text>
<text text-anchor="middle" x="307.84" y="-1358.55" font-family="Times New Roman,serif" font-size="14.00">Normalized count: Infinity</text>
<text text-anchor="middle" x="307.84" y="-1343.55" font-family="Times New Roman,serif" font-size="14.00">Samples weight: 0.01</text>
</g>
<!-- BB0&#45;&gt;BB1 -->
<g id="edge1" class="edge">
<title>BB0&#45;&gt;BB1</title>
<path fill="none" stroke="black" d="M307.84,-1453.55C307.84,-1445.29 307.84,-1436.6 307.84,-1428.1"/>
<polygon fill="black" stroke="black" points="311.34,-1427.86 307.84,-1417.86 304.34,-1427.86 311.34,-1427.86"/>
</g>
<!-- BB3 -->
<g id="node4" class="node">
<title>BB3</title>
<ellipse fill="none" stroke="black" cx="236.84" cy="-1237.58" rx="113.69" ry="48.17"/>
<text text-anchor="middle" x="236.84" y="-1256.38" font-family="Times New Roman,serif" font-size="14.00">[16..1e)</text>
<text text-anchor="middle" x="236.84" y="-1241.38" font-family="Times New Roman,serif" font-size="14.00">Count: 6</text>
<text text-anchor="middle" x="236.84" y="-1226.38" font-family="Times New Roman,serif" font-size="14.00">Normalized count: Infinity</text>
<text text-anchor="middle" x="236.84" y="-1211.38" font-family="Times New Roman,serif" font-size="14.00">Samples weight: 0.03</text>
</g>
<!-- BB1&#45;&gt;BB3 -->
<g id="edge2" class="edge">
<title>BB1&#45;&gt;BB3</title>
<path fill="none" stroke="black" d="M282.61,-1322.49C277.54,-1313.19 272.16,-1303.32 266.94,-1293.75"/>
<polygon fill="black" stroke="black" points="269.86,-1291.79 261.99,-1284.69 263.71,-1295.15 269.86,-1291.79"/>
</g>
<!-- BB2 -->
<g id="node3" class="node">
<title>BB2</title>
<ellipse fill="none" stroke="black" cx="113.84" cy="-1105.42" rx="113.69" ry="48.17"/>
<text text-anchor="middle" x="113.84" y="-1124.22" font-family="Times New Roman,serif" font-size="14.00">[12..16)</text>
<text text-anchor="middle" x="113.84" y="-1109.22" font-family="Times New Roman,serif" font-size="14.00">Count: 2</text>
<text text-anchor="middle" x="113.84" y="-1094.22" font-family="Times New Roman,serif" font-size="14.00">Normalized count: Infinity</text>
<text text-anchor="middle" x="113.84" y="-1079.22" font-family="Times New Roman,serif" font-size="14.00">Samples weight: 0.01</text>
</g>
<!-- BB2&#45;&gt;BB3 -->
<g id="edge3" class="edge">
<title>BB2&#45;&gt;BB3</title>
<path fill="none" stroke="black" d="M160.99,-1149.54C171.87,-1160.66 183.38,-1172.76 194.07,-1184.3"/>
<polygon fill="black" stroke="black" points="191.62,-1186.8 200.96,-1191.79 196.77,-1182.06 191.62,-1186.8"/>
</g>
<!-- BB3&#45;&gt;BB2 -->
<g id="edge4" class="edge">
<title>BB3&#45;&gt;BB2</title>
<path fill="none" stroke="black" d="M189.84,-1193.6C178.9,-1182.42 167.32,-1170.26 156.58,-1158.66"/>
<polygon fill="black" stroke="black" points="159,-1156.12 149.66,-1151.14 153.85,-1160.87 159,-1156.12"/>
</g>
<!-- BB4 -->
<g id="node5" class="node">
<title>BB4</title>
<ellipse fill="none" stroke="black" cx="359.84" cy="-1105.42" rx="113.69" ry="48.17"/>
<text text-anchor="middle" x="359.84" y="-1124.22" font-family="Times New Roman,serif" font-size="14.00">[1e..2b)</text>
<text text-anchor="middle" x="359.84" y="-1109.22" font-family="Times New Roman,serif" font-size="14.00">Count: 23</text>
<text text-anchor="middle" x="359.84" y="-1094.22" font-family="Times New Roman,serif" font-size="14.00">Normalized count: Infinity</text>
<text text-anchor="middle" x="359.84" y="-1079.22" font-family="Times New Roman,serif" font-size="14.00">Samples weight: 0.10</text>
</g>
<!-- BB3&#45;&gt;BB4 -->
<g id="edge5" class="edge">
<title>BB3&#45;&gt;BB4</title>
<path fill="none" stroke="black" d="M278.49,-1192.51C289.01,-1181.38 300.39,-1169.33 311.22,-1157.87"/>
<polygon fill="black" stroke="black" points="313.92,-1160.11 318.24,-1150.44 308.83,-1155.3 313.92,-1160.11"/>
</g>
<!-- BB5 -->
<g id="node6" class="node">
<title>BB5</title>
<ellipse fill="none" stroke="black" cx="255.84" cy="-973.25" rx="113.69" ry="48.17"/>
<text text-anchor="middle" x="255.84" y="-992.05" font-family="Times New Roman,serif" font-size="14.00">[2b..5f)</text>
<text text-anchor="middle" x="255.84" y="-977.05" font-family="Times New Roman,serif" font-size="14.00">Count: 15</text>
<text text-anchor="middle" x="255.84" y="-962.05" font-family="Times New Roman,serif" font-size="14.00">Normalized count: Infinity</text>
<text text-anchor="middle" x="255.84" y="-947.05" font-family="Times New Roman,serif" font-size="14.00">Samples weight: 0.07</text>
</g>
<!-- BB4&#45;&gt;BB5 -->
<g id="edge7" class="edge">
<title>BB4&#45;&gt;BB5</title>
<path fill="none" stroke="black" d="M324.05,-1059.62C315.72,-1049.19 306.77,-1037.98 298.18,-1027.24"/>
<polygon fill="black" stroke="black" points="300.68,-1024.76 291.7,-1019.13 295.21,-1029.12 300.68,-1024.76"/>
</g>
<!-- BB6 -->
<g id="node7" class="node">
<title>BB6</title>
<ellipse fill="none" stroke="black" cx="501.84" cy="-973.25" rx="113.69" ry="48.17"/>
<text text-anchor="middle" x="501.84" y="-992.05" font-family="Times New Roman,serif" font-size="14.00">[5f..68)</text>
<text text-anchor="middle" x="501.84" y="-977.05" font-family="Times New Roman,serif" font-size="14.00">Count: 3</text>
<text text-anchor="middle" x="501.84" y="-962.05" font-family="Times New Roman,serif" font-size="14.00">Normalized count: Infinity</text>
<text text-anchor="middle" x="501.84" y="-947.05" font-family="Times New Roman,serif" font-size="14.00">Samples weight: 0.01</text>
</g>
<!-- BB4&#45;&gt;BB6 -->
<g id="edge6" class="edge">
<title>BB4&#45;&gt;BB6</title>
<path fill="none" stroke="black" d="M406.73,-1061.43C419.82,-1049.44 434.15,-1036.3 447.62,-1023.95"/>
<polygon fill="black" stroke="black" points="450,-1026.52 455,-1017.19 445.27,-1021.36 450,-1026.52"/>
</g>
<!-- BB5&#45;&gt;BB6 -->
<g id="edge8" class="edge">
<title>BB5&#45;&gt;BB6</title>
<path fill="none" stroke="black" d="M369.72,-973.25C372.35,-973.25 374.98,-973.25 377.62,-973.25"/>
<polygon fill="black" stroke="black" points="377.78,-976.75 387.78,-973.25 377.78,-969.75 377.78,-976.75"/>
</g>
<!-- BB6&#45;&gt;BB1 -->
<g id="edge9" class="edge">
<title>BB6&#45;&gt;BB1</title>
<path fill="none" stroke="black" d="M504.05,-1021.34C504.13,-1058.58 500.45,-1111.17 482.84,-1153.5 456.06,-1217.89 403.59,-1278.31 363.05,-1318.64"/>
<polygon fill="black" stroke="black" points="360.57,-1316.18 355.89,-1325.69 365.47,-1321.17 360.57,-1316.18"/>
</g>
<!-- BB7 -->
<g id="node8" class="node">
<title>BB7</title>
<ellipse fill="none" stroke="black" cx="501.84" cy="-841.08" rx="104.8" ry="48.17"/>
<text text-anchor="middle" x="501.84" y="-859.88" font-family="Times New Roman,serif" font-size="14.00">[68..6f)</text>
<text text-anchor="middle" x="501.84" y="-844.88" font-family="Times New Roman,serif" font-size="14.00">Count: 0</text>
<text text-anchor="middle" x="501.84" y="-829.88" font-family="Times New Roman,serif" font-size="14.00">Normalized count: NaN</text>
<text text-anchor="middle" x="501.84" y="-814.88" font-family="Times New Roman,serif" font-size="14.00">Samples weight: 0.00</text>
</g>
<!-- BB6&#45;&gt;BB7 -->
<g id="edge10" class="edge">
<title>BB6&#45;&gt;BB7</title>
<path fill="none" stroke="black" d="M501.84,-924.89C501.84,-916.62 501.84,-907.94 501.84,-899.43"/>
<polygon fill="black" stroke="black" points="505.34,-899.19 501.84,-889.19 498.34,-899.19 505.34,-899.19"/>
</g>
<!-- BB13 -->
<g id="node14" class="node">
<title>BB13</title>
<ellipse fill="none" stroke="black" cx="501.84" cy="-708.92" rx="113.69" ry="48.17"/>
<text text-anchor="middle" x="501.84" y="-727.72" font-family="Times New Roman,serif" font-size="14.00">[f6..fd)</text>
<text text-anchor="middle" x="501.84" y="-712.72" font-family="Times New Roman,serif" font-size="14.00">Count: 1</text>
<text text-anchor="middle" x="501.84" y="-697.72" font-family="Times New Roman,serif" font-size="14.00">Normalized count: Infinity</text>
<text text-anchor="middle" x="501.84" y="-682.72" font-family="Times New Roman,serif" font-size="14.00">Samples weight: 0.00</text>
</g>
<!-- BB7&#45;&gt;BB13 -->
<g id="edge11" class="edge">
<title>BB7&#45;&gt;BB13</title>
<path fill="none" stroke="black" d="M501.84,-792.72C501.84,-784.45 501.84,-775.77 501.84,-767.27"/>
<polygon fill="black" stroke="black" points="505.34,-767.02 501.84,-757.02 498.34,-767.02 505.34,-767.02"/>
</g>
<!-- BB8 -->
<g id="node9" class="node">
<title>BB8</title>
<ellipse fill="none" stroke="black" cx="501.84" cy="-576.75" rx="113.69" ry="48.17"/>
<text text-anchor="middle" x="501.84" y="-595.55" font-family="Times New Roman,serif" font-size="14.00">[6f..7a)</text>
<text text-anchor="middle" x="501.84" y="-580.55" font-family="Times New Roman,serif" font-size="14.00">Count: 2</text>
<text text-anchor="middle" x="501.84" y="-565.55" font-family="Times New Roman,serif" font-size="14.00">Normalized count: Infinity</text>
<text text-anchor="middle" x="501.84" y="-550.55" font-family="Times New Roman,serif" font-size="14.00">Samples weight: 0.01</text>
</g>
<!-- BB9 -->
<g id="node10" class="node">
<title>BB9</title>
<ellipse fill="none" stroke="black" cx="501.84" cy="-444.58" rx="113.69" ry="48.17"/>
<text text-anchor="middle" x="501.84" y="-463.38" font-family="Times New Roman,serif" font-size="14.00">[7a..9c)</text>
<text text-anchor="middle" x="501.84" y="-448.38" font-family="Times New Roman,serif" font-size="14.00">Count: 25</text>
<text text-anchor="middle" x="501.84" y="-433.38" font-family="Times New Roman,serif" font-size="14.00">Normalized count: Infinity</text>
<text text-anchor="middle" x="501.84" y="-418.38" font-family="Times New Roman,serif" font-size="14.00">Samples weight: 0.11</text>
</g>
<!-- BB8&#45;&gt;BB9 -->
<g id="edge12" class="edge">
<title>BB8&#45;&gt;BB9</title>
<path fill="none" stroke="black" d="M501.84,-528.39C501.84,-520.12 501.84,-511.44 501.84,-502.93"/>
<polygon fill="black" stroke="black" points="505.34,-502.69 501.84,-492.69 498.34,-502.69 505.34,-502.69"/>
</g>
<!-- BB10 -->
<g id="node11" class="node">
<title>BB10</title>
<ellipse fill="none" stroke="black" cx="501.84" cy="-312.42" rx="113.69" ry="48.17"/>
<text text-anchor="middle" x="501.84" y="-331.22" font-family="Times New Roman,serif" font-size="14.00">[9c..eb)</text>
<text text-anchor="middle" x="501.84" y="-316.22" font-family="Times New Roman,serif" font-size="14.00">Count: 134</text>
<text text-anchor="middle" x="501.84" y="-301.22" font-family="Times New Roman,serif" font-size="14.00">Normalized count: Infinity</text>
<text text-anchor="middle" x="501.84" y="-286.22" font-family="Times New Roman,serif" font-size="14.00">Samples weight: 0.60</text>
</g>
<!-- BB9&#45;&gt;BB10 -->
<g id="edge13" class="edge">
<title>BB9&#45;&gt;BB10</title>
<path fill="none" stroke="black" d="M501.84,-396.22C501.84,-387.95 501.84,-379.27 501.84,-370.77"/>
<polygon fill="black" stroke="black" points="505.34,-370.52 501.84,-360.52 498.34,-370.52 505.34,-370.52"/>
</g>
<!-- BB10&#45;&gt;BB10 -->
<g id="edge14" class="edge">
<title>BB10&#45;&gt;BB10</title>
<path fill="none" stroke="black" d="M601.03,-336.02C620.14,-333.24 633.69,-325.37 633.69,-312.42 633.69,-301.89 624.75,-294.72 611.14,-290.91"/>
<polygon fill="black" stroke="black" points="611.53,-287.42 601.03,-288.81 610.1,-294.27 611.53,-287.42"/>
</g>
<!-- BB11 -->
<g id="node12" class="node">
<title>BB11</title>
<ellipse fill="none" stroke="black" cx="501.84" cy="-180.25" rx="113.69" ry="48.17"/>
<text text-anchor="middle" x="501.84" y="-199.05" font-family="Times New Roman,serif" font-size="14.00">[eb..f3)</text>
<text text-anchor="middle" x="501.84" y="-184.05" font-family="Times New Roman,serif" font-size="14.00">Count: 8</text>
<text text-anchor="middle" x="501.84" y="-169.05" font-family="Times New Roman,serif" font-size="14.00">Normalized count: Infinity</text>
<text text-anchor="middle" x="501.84" y="-154.05" font-family="Times New Roman,serif" font-size="14.00">Samples weight: 0.04</text>
</g>
<!-- BB10&#45;&gt;BB11 -->
<g id="edge15" class="edge">
<title>BB10&#45;&gt;BB11</title>
<path fill="none" stroke="black" d="M501.84,-264.05C501.84,-255.79 501.84,-247.1 501.84,-238.6"/>
<polygon fill="black" stroke="black" points="505.34,-238.36 501.84,-228.36 498.34,-238.36 505.34,-238.36"/>
</g>
<!-- BB11&#45;&gt;BB9 -->
<g id="edge16" class="edge">
<title>BB11&#45;&gt;BB9</title>
<path fill="none" stroke="black" d="M586.44,-212.53C608.73,-225.08 630.09,-242.01 642.84,-264.33 664.05,-301.44 664.05,-323.39 642.84,-360.5 631.78,-379.86 614.25,-395.16 595.26,-407.07"/>
<polygon fill="black" stroke="black" points="593.25,-404.18 586.44,-412.3 596.83,-410.2 593.25,-404.18"/>
</g>
<!-- BB12 -->
<g id="node13" class="node">
<title>BB12</title>
<ellipse fill="none" stroke="black" cx="430.84" cy="-48.08" rx="113.69" ry="48.17"/>
<text text-anchor="middle" x="430.84" y="-66.88" font-family="Times New Roman,serif" font-size="14.00">[f3..f6)</text>
<text text-anchor="middle" x="430.84" y="-51.88" font-family="Times New Roman,serif" font-size="14.00">Count: 1</text>
<text text-anchor="middle" x="430.84" y="-36.88" font-family="Times New Roman,serif" font-size="14.00">Normalized count: Infinity</text>
<text text-anchor="middle" x="430.84" y="-21.88" font-family="Times New Roman,serif" font-size="14.00">Samples weight: 0.00</text>
</g>
<!-- BB11&#45;&gt;BB12 -->
<g id="edge17" class="edge">
<title>BB11&#45;&gt;BB12</title>
<path fill="none" stroke="black" d="M476.61,-132.99C471.54,-123.69 466.16,-113.82 460.94,-104.25"/>
<polygon fill="black" stroke="black" points="463.86,-102.3 455.99,-95.19 457.71,-105.65 463.86,-102.3"/>
</g>
<!-- BB12&#45;&gt;BB13 -->
<g id="edge18" class="edge">
<title>BB12&#45;&gt;BB13</title>
<path fill="none" stroke="black" d="M397.47,-94.21C390.2,-106.04 383.34,-119.14 378.84,-132.17 352.7,-207.89 359.84,-231.3 359.84,-311.42 359.84,-445.58 359.84,-445.58 359.84,-445.58 359.84,-525.7 337.58,-556.17 378.84,-624.83 388.74,-641.29 403.29,-655.21 418.95,-666.67"/>
<polygon fill="black" stroke="black" points="417.02,-669.59 427.23,-672.43 421.03,-663.84 417.02,-669.59"/>
</g>
<!-- BB13&#45;&gt;BB8 -->
<g id="edge19" class="edge">
<title>BB13&#45;&gt;BB8</title>
<path fill="none" stroke="black" d="M501.84,-660.55C501.84,-652.29 501.84,-643.6 501.84,-635.1"/>
<polygon fill="black" stroke="black" points="505.34,-634.86 501.84,-624.86 498.34,-634.86 505.34,-634.86"/>
</g>
<!-- BB14 -->
<g id="node15" class="node">
<title>BB14</title>
<ellipse fill="none" stroke="black" cx="747.84" cy="-576.75" rx="113.69" ry="48.17"/>
<text text-anchor="middle" x="747.84" y="-595.55" font-family="Times New Roman,serif" font-size="14.00">[fd..fe)</text>
<text text-anchor="middle" x="747.84" y="-580.55" font-family="Times New Roman,serif" font-size="14.00">Count: 1</text>
<text text-anchor="middle" x="747.84" y="-565.55" font-family="Times New Roman,serif" font-size="14.00">Normalized count: Infinity</text>
<text text-anchor="middle" x="747.84" y="-550.55" font-family="Times New Roman,serif" font-size="14.00">Samples weight: 0.00</text>
</g>
<!-- BB13&#45;&gt;BB14 -->
<g id="edge20" class="edge">
<title>BB13&#45;&gt;BB14</title>
<path fill="none" stroke="black" d="M572.01,-670.79C602.12,-654.85 637.46,-636.16 668.52,-619.72"/>
<polygon fill="black" stroke="black" points="670.38,-622.7 677.59,-614.92 667.11,-616.51 670.38,-622.7"/>
</g>
</g>
</svg>
