<?xml version="1.0" encoding="UTF-8" standalone="no"?>
<!DOCTYPE svg PUBLIC "-//W3C//DTD SVG 1.1//EN"
 "http://www.w3.org/Graphics/SVG/1.1/DTD/svg11.dtd">
<!-- Generated by graphviz version 2.47.0 (20210316.0004)
 -->
<!-- Title: G Pages: 1 -->
<svg width="1261pt" height="1294pt"
 viewBox="0.00 0.00 1261.32 1293.67" xmlns="http://www.w3.org/2000/svg" xmlns:xlink="http://www.w3.org/1999/xlink">
<g id="graph0" class="graph" transform="scale(1 1) rotate(0) translate(4 1289.67)">
<title>G</title>
<polygon fill="white" stroke="transparent" points="-4,4 -4,-1289.67 1257.32,-1289.67 1257.32,4 -4,4"/>
<!-- BB0 -->
<g id="node1" class="node">
<title>BB0</title>
<ellipse fill="none" stroke="black" cx="683.09" cy="-1237.58" rx="103.48" ry="48.17"/>
<text text-anchor="middle" x="683.09" y="-1256.38" font-family="Times New Roman,serif" font-size="14.00">[0..12)</text>
<text text-anchor="middle" x="683.09" y="-1241.38" font-family="Times New Roman,serif" font-size="14.00">Count: 2</text>
<text text-anchor="middle" x="683.09" y="-1226.38" font-family="Times New Roman,serif" font-size="14.00">Normalized count: 1.00</text>
<text text-anchor="middle" x="683.09" y="-1211.38" font-family="Times New Roman,serif" font-size="14.00">Samples weight: 0.00</text>
</g>
<!-- BB1 -->
<g id="node2" class="node">
<title>BB1</title>
<ellipse fill="none" stroke="black" cx="571.09" cy="-1105.42" rx="103.48" ry="48.17"/>
<text text-anchor="middle" x="571.09" y="-1124.22" font-family="Times New Roman,serif" font-size="14.00">[12..32)</text>
<text text-anchor="middle" x="571.09" y="-1109.22" font-family="Times New Roman,serif" font-size="14.00">Count: 0</text>
<text text-anchor="middle" x="571.09" y="-1094.22" font-family="Times New Roman,serif" font-size="14.00">Normalized count: 0.00</text>
<text text-anchor="middle" x="571.09" y="-1079.22" font-family="Times New Roman,serif" font-size="14.00">Samples weight: 0.00</text>
</g>
<!-- BB0&#45;&gt;BB1 -->
<g id="edge2" class="edge">
<title>BB0&#45;&gt;BB1</title>
<path fill="none" stroke="black" d="M645.17,-1192.51C635.68,-1181.49 625.42,-1169.56 615.64,-1158.2"/>
<polygon fill="black" stroke="black" points="618.14,-1155.74 608.97,-1150.44 612.84,-1160.3 618.14,-1155.74"/>
</g>
<!-- BB2 -->
<g id="node3" class="node">
<title>BB2</title>
<ellipse fill="none" stroke="black" cx="795.09" cy="-1105.42" rx="103.48" ry="48.17"/>
<text text-anchor="middle" x="795.09" y="-1124.22" font-family="Times New Roman,serif" font-size="14.00">[32..39)</text>
<text text-anchor="middle" x="795.09" y="-1109.22" font-family="Times New Roman,serif" font-size="14.00">Count: 2</text>
<text text-anchor="middle" x="795.09" y="-1094.22" font-family="Times New Roman,serif" font-size="14.00">Normalized count: 1.00</text>
<text text-anchor="middle" x="795.09" y="-1079.22" font-family="Times New Roman,serif" font-size="14.00">Samples weight: 0.00</text>
</g>
<!-- BB0&#45;&gt;BB2 -->
<g id="edge1" class="edge">
<title>BB0&#45;&gt;BB2</title>
<path fill="none" stroke="black" d="M721,-1192.51C730.49,-1181.49 740.76,-1169.56 750.53,-1158.2"/>
<polygon fill="black" stroke="black" points="753.34,-1160.3 757.21,-1150.44 748.03,-1155.74 753.34,-1160.3"/>
</g>
<!-- BB1&#45;&gt;BB2 -->
<g id="edge3" class="edge">
<title>BB1&#45;&gt;BB2</title>
<path fill="none" stroke="black" d="M674.34,-1105.42C676.79,-1105.42 679.25,-1105.42 681.7,-1105.42"/>
<polygon fill="black" stroke="black" points="681.79,-1108.92 691.79,-1105.42 681.79,-1101.92 681.79,-1108.92"/>
</g>
<!-- BB15 -->
<g id="node16" class="node">
<title>BB15</title>
<ellipse fill="none" stroke="black" cx="795.09" cy="-973.25" rx="103.48" ry="48.17"/>
<text text-anchor="middle" x="795.09" y="-992.05" font-family="Times New Roman,serif" font-size="14.00">[12d..134)</text>
<text text-anchor="middle" x="795.09" y="-977.05" font-family="Times New Roman,serif" font-size="14.00">Count: 5</text>
<text text-anchor="middle" x="795.09" y="-962.05" font-family="Times New Roman,serif" font-size="14.00">Normalized count: 2.50</text>
<text text-anchor="middle" x="795.09" y="-947.05" font-family="Times New Roman,serif" font-size="14.00">Samples weight: 0.00</text>
</g>
<!-- BB2&#45;&gt;BB15 -->
<g id="edge4" class="edge">
<title>BB2&#45;&gt;BB15</title>
<path fill="none" stroke="black" d="M795.09,-1057.05C795.09,-1048.79 795.09,-1040.1 795.09,-1031.6"/>
<polygon fill="black" stroke="black" points="798.59,-1031.36 795.09,-1021.36 791.59,-1031.36 798.59,-1031.36"/>
</g>
<!-- BB3 -->
<g id="node4" class="node">
<title>BB3</title>
<ellipse fill="none" stroke="black" cx="657.09" cy="-841.08" rx="103.48" ry="48.17"/>
<text text-anchor="middle" x="657.09" y="-859.88" font-family="Times New Roman,serif" font-size="14.00">[39..62)</text>
<text text-anchor="middle" x="657.09" y="-844.88" font-family="Times New Roman,serif" font-size="14.00">Count: 3</text>
<text text-anchor="middle" x="657.09" y="-829.88" font-family="Times New Roman,serif" font-size="14.00">Normalized count: 1.50</text>
<text text-anchor="middle" x="657.09" y="-814.88" font-family="Times New Roman,serif" font-size="14.00">Samples weight: 0.00</text>
</g>
<!-- BB11 -->
<g id="node12" class="node">
<title>BB11</title>
<ellipse fill="none" stroke="black" cx="588.09" cy="-708.92" rx="118.17" ry="48.17"/>
<text text-anchor="middle" x="588.09" y="-727.72" font-family="Times New Roman,serif" font-size="14.00">[106..10e)</text>
<text text-anchor="middle" x="588.09" y="-712.72" font-family="Times New Roman,serif" font-size="14.00">Count: 4437</text>
<text text-anchor="middle" x="588.09" y="-697.72" font-family="Times New Roman,serif" font-size="14.00">Normalized count: 2218.50</text>
<text text-anchor="middle" x="588.09" y="-682.72" font-family="Times New Roman,serif" font-size="14.00">Samples weight: 0.02</text>
</g>
<!-- BB3&#45;&gt;BB11 -->
<g id="edge5" class="edge">
<title>BB3&#45;&gt;BB11</title>
<path fill="none" stroke="black" d="M632.76,-794.19C627.82,-784.87 622.58,-774.98 617.48,-765.37"/>
<polygon fill="black" stroke="black" points="620.44,-763.47 612.66,-756.27 614.25,-766.75 620.44,-763.47"/>
</g>
<!-- BB4 -->
<g id="node5" class="node">
<title>BB4</title>
<ellipse fill="none" stroke="black" cx="378.09" cy="-576.75" rx="118.17" ry="48.17"/>
<text text-anchor="middle" x="378.09" y="-595.55" font-family="Times New Roman,serif" font-size="14.00">[62..9d)</text>
<text text-anchor="middle" x="378.09" y="-580.55" font-family="Times New Roman,serif" font-size="14.00">Count: 4434</text>
<text text-anchor="middle" x="378.09" y="-565.55" font-family="Times New Roman,serif" font-size="14.00">Normalized count: 2217.00</text>
<text text-anchor="middle" x="378.09" y="-550.55" font-family="Times New Roman,serif" font-size="14.00">Samples weight: 0.02</text>
</g>
<!-- BB5 -->
<g id="node6" class="node">
<title>BB5</title>
<ellipse fill="none" stroke="black" cx="376.09" cy="-444.58" rx="122.16" ry="48.17"/>
<text text-anchor="middle" x="376.09" y="-463.38" font-family="Times New Roman,serif" font-size="14.00">[9d..cf)</text>
<text text-anchor="middle" x="376.09" y="-448.38" font-family="Times New Roman,serif" font-size="14.00">Count: 96523</text>
<text text-anchor="middle" x="376.09" y="-433.38" font-family="Times New Roman,serif" font-size="14.00">Normalized count: 48261.50</text>
<text text-anchor="middle" x="376.09" y="-418.38" font-family="Times New Roman,serif" font-size="14.00">Samples weight: 0.46</text>
</g>
<!-- BB4&#45;&gt;BB5 -->
<g id="edge6" class="edge">
<title>BB4&#45;&gt;BB5</title>
<path fill="none" stroke="black" d="M377.36,-528.39C377.23,-520.12 377.1,-511.44 376.97,-502.93"/>
<polygon fill="black" stroke="black" points="380.46,-502.64 376.81,-492.69 373.46,-502.74 380.46,-502.64"/>
</g>
<!-- BB6 -->
<g id="node7" class="node">
<title>BB6</title>
<ellipse fill="none" stroke="black" cx="118.09" cy="-312.42" rx="118.17" ry="48.17"/>
<text text-anchor="middle" x="118.09" y="-331.22" font-family="Times New Roman,serif" font-size="14.00">[cf..d7)</text>
<text text-anchor="middle" x="118.09" y="-316.22" font-family="Times New Roman,serif" font-size="14.00">Count: 2385</text>
<text text-anchor="middle" x="118.09" y="-301.22" font-family="Times New Roman,serif" font-size="14.00">Normalized count: 1192.50</text>
<text text-anchor="middle" x="118.09" y="-286.22" font-family="Times New Roman,serif" font-size="14.00">Samples weight: 0.01</text>
</g>
<!-- BB5&#45;&gt;BB6 -->
<g id="edge8" class="edge">
<title>BB5&#45;&gt;BB6</title>
<path fill="none" stroke="black" d="M301.81,-406.11C270.1,-390.11 232.99,-371.39 200.44,-354.97"/>
<polygon fill="black" stroke="black" points="201.9,-351.78 191.4,-350.4 198.75,-358.03 201.9,-351.78"/>
</g>
<!-- BB7 -->
<g id="node8" class="node">
<title>BB7</title>
<ellipse fill="none" stroke="black" cx="376.09" cy="-312.42" rx="122.16" ry="48.17"/>
<text text-anchor="middle" x="376.09" y="-331.22" font-family="Times New Roman,serif" font-size="14.00">[d7..e1)</text>
<text text-anchor="middle" x="376.09" y="-316.22" font-family="Times New Roman,serif" font-size="14.00">Count: 94138</text>
<text text-anchor="middle" x="376.09" y="-301.22" font-family="Times New Roman,serif" font-size="14.00">Normalized count: 47069.00</text>
<text text-anchor="middle" x="376.09" y="-286.22" font-family="Times New Roman,serif" font-size="14.00">Samples weight: 0.45</text>
</g>
<!-- BB5&#45;&gt;BB7 -->
<g id="edge7" class="edge">
<title>BB5&#45;&gt;BB7</title>
<path fill="none" stroke="black" d="M369.56,-396.22C369.35,-387.95 369.29,-379.27 369.38,-370.77"/>
<polygon fill="black" stroke="black" points="372.88,-370.59 369.57,-360.52 365.88,-370.46 372.88,-370.59"/>
</g>
<!-- BB8 -->
<g id="node9" class="node">
<title>BB8</title>
<ellipse fill="none" stroke="black" cx="326.09" cy="-180.25" rx="118.17" ry="48.17"/>
<text text-anchor="middle" x="326.09" y="-199.05" font-family="Times New Roman,serif" font-size="14.00">[e1..eb)</text>
<text text-anchor="middle" x="326.09" y="-184.05" font-family="Times New Roman,serif" font-size="14.00">Count: 4434</text>
<text text-anchor="middle" x="326.09" y="-169.05" font-family="Times New Roman,serif" font-size="14.00">Normalized count: 2217.00</text>
<text text-anchor="middle" x="326.09" y="-154.05" font-family="Times New Roman,serif" font-size="14.00">Samples weight: 0.02</text>
</g>
<!-- BB6&#45;&gt;BB8 -->
<g id="edge9" class="edge">
<title>BB6&#45;&gt;BB8</title>
<path fill="none" stroke="black" d="M181.62,-271.65C204.5,-257.34 230.47,-241.09 254.02,-226.35"/>
<polygon fill="black" stroke="black" points="255.96,-229.26 262.58,-220.99 252.25,-223.33 255.96,-229.26"/>
</g>
<!-- BB7&#45;&gt;BB5 -->
<g id="edge10" class="edge">
<title>BB7&#45;&gt;BB5</title>
<path fill="none" stroke="black" d="M382.6,-360.52C382.82,-368.78 382.89,-377.46 382.8,-385.97"/>
<polygon fill="black" stroke="black" points="379.29,-386.16 382.61,-396.22 386.29,-386.29 379.29,-386.16"/>
</g>
<!-- BB7&#45;&gt;BB8 -->
<g id="edge11" class="edge">
<title>BB7&#45;&gt;BB8</title>
<path fill="none" stroke="black" d="M358.18,-264.79C354.77,-255.91 351.16,-246.53 347.65,-237.39"/>
<polygon fill="black" stroke="black" points="350.89,-236.07 344.04,-227.99 344.36,-238.58 350.89,-236.07"/>
</g>
<!-- BB9 -->
<g id="node10" class="node">
<title>BB9</title>
<ellipse fill="none" stroke="black" cx="277.09" cy="-48.08" rx="113.27" ry="48.17"/>
<text text-anchor="middle" x="277.09" y="-66.88" font-family="Times New Roman,serif" font-size="14.00">[eb..100)</text>
<text text-anchor="middle" x="277.09" y="-51.88" font-family="Times New Roman,serif" font-size="14.00">Count: 694</text>
<text text-anchor="middle" x="277.09" y="-36.88" font-family="Times New Roman,serif" font-size="14.00">Normalized count: 347.00</text>
<text text-anchor="middle" x="277.09" y="-21.88" font-family="Times New Roman,serif" font-size="14.00">Samples weight: 0.00</text>
</g>
<!-- BB8&#45;&gt;BB9 -->
<g id="edge13" class="edge">
<title>BB8&#45;&gt;BB9</title>
<path fill="none" stroke="black" d="M308.54,-132.62C305.19,-123.75 301.66,-114.37 298.22,-105.23"/>
<polygon fill="black" stroke="black" points="301.48,-103.95 294.68,-95.82 294.93,-106.41 301.48,-103.95"/>
</g>
<!-- BB10 -->
<g id="node11" class="node">
<title>BB10</title>
<ellipse fill="none" stroke="black" cx="526.09" cy="-48.08" rx="118.17" ry="48.17"/>
<text text-anchor="middle" x="526.09" y="-66.88" font-family="Times New Roman,serif" font-size="14.00">[100..106)</text>
<text text-anchor="middle" x="526.09" y="-51.88" font-family="Times New Roman,serif" font-size="14.00">Count: 4434</text>
<text text-anchor="middle" x="526.09" y="-36.88" font-family="Times New Roman,serif" font-size="14.00">Normalized count: 2217.00</text>
<text text-anchor="middle" x="526.09" y="-21.88" font-family="Times New Roman,serif" font-size="14.00">Samples weight: 0.02</text>
</g>
<!-- BB8&#45;&gt;BB10 -->
<g id="edge12" class="edge">
<title>BB8&#45;&gt;BB10</title>
<path fill="none" stroke="black" d="M387.73,-139.13C409.3,-125.09 433.69,-109.22 455.91,-94.76"/>
<polygon fill="black" stroke="black" points="457.84,-97.68 464.31,-89.29 454.02,-91.81 457.84,-97.68"/>
</g>
<!-- BB9&#45;&gt;BB10 -->
<g id="edge14" class="edge">
<title>BB9&#45;&gt;BB10</title>
<path fill="none" stroke="black" d="M390.4,-48.08C392.86,-48.08 395.32,-48.08 397.78,-48.08"/>
<polygon fill="black" stroke="black" points="397.89,-51.58 407.89,-48.08 397.89,-44.58 397.89,-51.58"/>
</g>
<!-- BB10&#45;&gt;BB11 -->
<g id="edge15" class="edge">
<title>BB10&#45;&gt;BB11</title>
<path fill="none" stroke="black" d="M526.09,-96.47C526.09,-149.01 526.09,-236.27 526.09,-311.42 526.09,-445.58 526.09,-445.58 526.09,-445.58 526.09,-525.7 522.06,-548.1 545.09,-624.83 547.86,-634.07 551.66,-643.49 555.86,-652.51"/>
<polygon fill="black" stroke="black" points="552.83,-654.29 560.36,-661.75 559.13,-651.23 552.83,-654.29"/>
</g>
<!-- BB11&#45;&gt;BB4 -->
<g id="edge16" class="edge">
<title>BB11&#45;&gt;BB4</title>
<path fill="none" stroke="black" d="M524.22,-668.33C501.01,-653.94 474.61,-637.58 450.7,-622.75"/>
<polygon fill="black" stroke="black" points="452.35,-619.66 442.01,-617.37 448.66,-625.61 452.35,-619.66"/>
</g>
<!-- BB12 -->
<g id="node13" class="node">
<title>BB12</title>
<ellipse fill="none" stroke="black" cx="657.09" cy="-576.75" rx="103.48" ry="48.17"/>
<text text-anchor="middle" x="657.09" y="-595.55" font-family="Times New Roman,serif" font-size="14.00">[10e..112)</text>
<text text-anchor="middle" x="657.09" y="-580.55" font-family="Times New Roman,serif" font-size="14.00">Count: 3</text>
<text text-anchor="middle" x="657.09" y="-565.55" font-family="Times New Roman,serif" font-size="14.00">Normalized count: 1.50</text>
<text text-anchor="middle" x="657.09" y="-550.55" font-family="Times New Roman,serif" font-size="14.00">Samples weight: 0.00</text>
</g>
<!-- BB11&#45;&gt;BB12 -->
<g id="edge17" class="edge">
<title>BB11&#45;&gt;BB12</title>
<path fill="none" stroke="black" d="M612.61,-661.66C617.54,-652.35 622.77,-642.49 627.84,-632.92"/>
<polygon fill="black" stroke="black" points="631.05,-634.33 632.64,-623.86 624.87,-631.05 631.05,-634.33"/>
</g>
<!-- BB13 -->
<g id="node14" class="node">
<title>BB13</title>
<ellipse fill="none" stroke="black" cx="657.09" cy="-444.58" rx="103.48" ry="48.17"/>
<text text-anchor="middle" x="657.09" y="-463.38" font-family="Times New Roman,serif" font-size="14.00">[112..129)</text>
<text text-anchor="middle" x="657.09" y="-448.38" font-family="Times New Roman,serif" font-size="14.00">Count: 0</text>
<text text-anchor="middle" x="657.09" y="-433.38" font-family="Times New Roman,serif" font-size="14.00">Normalized count: 0.00</text>
<text text-anchor="middle" x="657.09" y="-418.38" font-family="Times New Roman,serif" font-size="14.00">Samples weight: 0.00</text>
</g>
<!-- BB12&#45;&gt;BB13 -->
<g id="edge19" class="edge">
<title>BB12&#45;&gt;BB13</title>
<path fill="none" stroke="black" d="M657.09,-528.39C657.09,-520.12 657.09,-511.44 657.09,-502.93"/>
<polygon fill="black" stroke="black" points="660.59,-502.69 657.09,-492.69 653.59,-502.69 660.59,-502.69"/>
</g>
<!-- BB14 -->
<g id="node15" class="node">
<title>BB14</title>
<ellipse fill="none" stroke="black" cx="881.09" cy="-444.58" rx="103.48" ry="48.17"/>
<text text-anchor="middle" x="881.09" y="-463.38" font-family="Times New Roman,serif" font-size="14.00">[129..12d)</text>
<text text-anchor="middle" x="881.09" y="-448.38" font-family="Times New Roman,serif" font-size="14.00">Count: 3</text>
<text text-anchor="middle" x="881.09" y="-433.38" font-family="Times New Roman,serif" font-size="14.00">Normalized count: 1.50</text>
<text text-anchor="middle" x="881.09" y="-418.38" font-family="Times New Roman,serif" font-size="14.00">Samples weight: 0.00</text>
</g>
<!-- BB12&#45;&gt;BB14 -->
<g id="edge18" class="edge">
<title>BB12&#45;&gt;BB14</title>
<path fill="none" stroke="black" d="M720.68,-538.8C748.11,-522.86 780.33,-504.13 808.68,-487.66"/>
<polygon fill="black" stroke="black" points="810.45,-490.68 817.34,-482.63 806.93,-484.63 810.45,-490.68"/>
</g>
<!-- BB13&#45;&gt;BB14 -->
<g id="edge20" class="edge">
<title>BB13&#45;&gt;BB14</title>
<path fill="none" stroke="black" d="M760.34,-444.58C762.79,-444.58 765.25,-444.58 767.7,-444.58"/>
<polygon fill="black" stroke="black" points="767.79,-448.08 777.79,-444.58 767.79,-441.08 767.79,-448.08"/>
</g>
<!-- BB14&#45;&gt;BB15 -->
<g id="edge21" class="edge">
<title>BB14&#45;&gt;BB15</title>
<path fill="none" stroke="black" d="M862.98,-492.21C847.14,-535.27 824.99,-601.36 814.09,-660.83 798.01,-748.52 794.75,-852.18 794.47,-915.03"/>
<polygon fill="black" stroke="black" points="790.97,-915.13 794.45,-925.13 797.97,-915.14 790.97,-915.13"/>
</g>
<!-- BB15&#45;&gt;BB3 -->
<g id="edge22" class="edge">
<title>BB15&#45;&gt;BB3</title>
<path fill="none" stroke="black" d="M749.9,-929.63C737.15,-917.6 723.17,-904.41 710.01,-892"/>
<polygon fill="black" stroke="black" points="712.05,-889.12 702.37,-884.8 707.25,-894.21 712.05,-889.12"/>
</g>
<!-- BB16 -->
<g id="node17" class="node">
<title>BB16</title>
<ellipse fill="none" stroke="black" cx="926.09" cy="-841.08" rx="103.48" ry="48.17"/>
<text text-anchor="middle" x="926.09" y="-859.88" font-family="Times New Roman,serif" font-size="14.00">[134..137)</text>
<text text-anchor="middle" x="926.09" y="-844.88" font-family="Times New Roman,serif" font-size="14.00">Count: 2</text>
<text text-anchor="middle" x="926.09" y="-829.88" font-family="Times New Roman,serif" font-size="14.00">Normalized count: 1.00</text>
<text text-anchor="middle" x="926.09" y="-814.88" font-family="Times New Roman,serif" font-size="14.00">Samples weight: 0.00</text>
</g>
<!-- BB15&#45;&gt;BB16 -->
<g id="edge23" class="edge">
<title>BB15&#45;&gt;BB16</title>
<path fill="none" stroke="black" d="M838.34,-929.27C850.31,-917.38 863.39,-904.38 875.72,-892.13"/>
<polygon fill="black" stroke="black" points="878.25,-894.55 882.87,-885.02 873.31,-889.59 878.25,-894.55"/>
</g>
<!-- BB17 -->
<g id="node18" class="node">
<title>BB17</title>
<ellipse fill="none" stroke="black" cx="926.09" cy="-708.92" rx="103.48" ry="48.17"/>
<text text-anchor="middle" x="926.09" y="-727.72" font-family="Times New Roman,serif" font-size="14.00">[137..142)</text>
<text text-anchor="middle" x="926.09" y="-712.72" font-family="Times New Roman,serif" font-size="14.00">Count: 0</text>
<text text-anchor="middle" x="926.09" y="-697.72" font-family="Times New Roman,serif" font-size="14.00">Normalized count: 0.00</text>
<text text-anchor="middle" x="926.09" y="-682.72" font-family="Times New Roman,serif" font-size="14.00">Samples weight: 0.00</text>
</g>
<!-- BB16&#45;&gt;BB17 -->
<g id="edge25" class="edge">
<title>BB16&#45;&gt;BB17</title>
<path fill="none" stroke="black" d="M926.09,-792.72C926.09,-784.45 926.09,-775.77 926.09,-767.27"/>
<polygon fill="black" stroke="black" points="929.59,-767.02 926.09,-757.02 922.59,-767.02 929.59,-767.02"/>
</g>
<!-- BB18 -->
<g id="node19" class="node">
<title>BB18</title>
<ellipse fill="none" stroke="black" cx="1150.09" cy="-708.92" rx="103.48" ry="48.17"/>
<text text-anchor="middle" x="1150.09" y="-727.72" font-family="Times New Roman,serif" font-size="14.00">[142..143)</text>
<text text-anchor="middle" x="1150.09" y="-712.72" font-family="Times New Roman,serif" font-size="14.00">Count: 2</text>
<text text-anchor="middle" x="1150.09" y="-697.72" font-family="Times New Roman,serif" font-size="14.00">Normalized count: 1.00</text>
<text text-anchor="middle" x="1150.09" y="-682.72" font-family="Times New Roman,serif" font-size="14.00">Samples weight: 0.00</text>
</g>
<!-- BB16&#45;&gt;BB18 -->
<g id="edge24" class="edge">
<title>BB16&#45;&gt;BB18</title>
<path fill="none" stroke="black" d="M989.68,-803.13C1017.11,-787.19 1049.33,-768.46 1077.68,-751.99"/>
<polygon fill="black" stroke="black" points="1079.45,-755.01 1086.34,-746.96 1075.93,-748.96 1079.45,-755.01"/>
</g>
<!-- BB17&#45;&gt;BB18 -->
<g id="edge26" class="edge">
<title>BB17&#45;&gt;BB18</title>
<path fill="none" stroke="black" d="M1029.34,-708.92C1031.79,-708.92 1034.25,-708.92 1036.7,-708.92"/>
<polygon fill="black" stroke="black" points="1036.79,-712.42 1046.79,-708.92 1036.79,-705.42 1036.79,-712.42"/>
</g>
</g>
</svg>
