<?xml version="1.0" encoding="UTF-8" standalone="no"?>
<!DOCTYPE svg PUBLIC "-//W3C//DTD SVG 1.1//EN"
 "http://www.w3.org/Graphics/SVG/1.1/DTD/svg11.dtd">
<!-- Generated by graphviz version 2.47.0 (20210316.0004)
 -->
<!-- Title: G Pages: 1 -->
<svg width="581pt" height="527pt"
 viewBox="0.00 0.00 580.72 526.77" xmlns="http://www.w3.org/2000/svg" xmlns:xlink="http://www.w3.org/1999/xlink">
<g id="graph0" class="graph" transform="scale(1 1) rotate(0) translate(4 522.77)">
<title>G</title>
<polygon fill="white" stroke="transparent" points="-4,4 -4,-522.77 576.72,-522.77 576.72,4 -4,4"/>
<!-- BB0 -->
<g id="node1" class="node">
<title>BB0</title>
<ellipse fill="none" stroke="black" cx="334.36" cy="-481.29" rx="105.22" ry="37.45"/>
<text text-anchor="middle" x="334.36" y="-492.59" font-family="Times New Roman,serif" font-size="14.00">[0..4)</text>
<text text-anchor="middle" x="334.36" y="-477.59" font-family="Times New Roman,serif" font-size="14.00">Normalized Count: 1.00</text>
<text text-anchor="middle" x="334.36" y="-462.59" font-family="Times New Roman,serif" font-size="14.00">Samples weight: 0.04</text>
</g>
<!-- BB5 -->
<g id="node6" class="node">
<title>BB5</title>
<ellipse fill="none" stroke="black" cx="334.36" cy="-370.34" rx="105.22" ry="37.45"/>
<text text-anchor="middle" x="334.36" y="-381.64" font-family="Times New Roman,serif" font-size="14.00">[22..2d)</text>
<text text-anchor="middle" x="334.36" y="-366.64" font-family="Times New Roman,serif" font-size="14.00">Normalized Count: 7.82</text>
<text text-anchor="middle" x="334.36" y="-351.64" font-family="Times New Roman,serif" font-size="14.00">Samples weight: 0.31</text>
</g>
<!-- BB0&#45;&gt;BB5 -->
<g id="edge1" class="edge">
<title>BB0&#45;&gt;BB5</title>
<path fill="none" stroke="black" d="M334.36,-443.71C334.36,-435.53 334.36,-426.75 334.36,-418.23"/>
<polygon fill="black" stroke="black" points="337.86,-418.01 334.36,-408.01 330.86,-418.01 337.86,-418.01"/>
</g>
<!-- BB1 -->
<g id="node2" class="node">
<title>BB1</title>
<ellipse fill="none" stroke="black" cx="201.36" cy="-259.38" rx="105.22" ry="37.45"/>
<text text-anchor="middle" x="201.36" y="-270.68" font-family="Times New Roman,serif" font-size="14.00">[4..10)</text>
<text text-anchor="middle" x="201.36" y="-255.68" font-family="Times New Roman,serif" font-size="14.00">Normalized Count: 7.82</text>
<text text-anchor="middle" x="201.36" y="-240.68" font-family="Times New Roman,serif" font-size="14.00">Samples weight: 0.31</text>
</g>
<!-- BB2 -->
<g id="node3" class="node">
<title>BB2</title>
<ellipse fill="none" stroke="black" cx="105.36" cy="-148.43" rx="105.22" ry="37.45"/>
<text text-anchor="middle" x="105.36" y="-159.73" font-family="Times New Roman,serif" font-size="14.00">[10..1c)</text>
<text text-anchor="middle" x="105.36" y="-144.73" font-family="Times New Roman,serif" font-size="14.00">Normalized Count: 1.00</text>
<text text-anchor="middle" x="105.36" y="-129.73" font-family="Times New Roman,serif" font-size="14.00">Samples weight: 0.04</text>
</g>
<!-- BB1&#45;&gt;BB2 -->
<g id="edge3" class="edge">
<title>BB1&#45;&gt;BB2</title>
<path fill="none" stroke="black" d="M170.46,-223.31C161.72,-213.4 152.12,-202.49 143.03,-192.18"/>
<polygon fill="black" stroke="black" points="145.44,-189.63 136.2,-184.44 140.19,-194.25 145.44,-189.63"/>
</g>
<!-- BB4 -->
<g id="node5" class="node">
<title>BB4</title>
<ellipse fill="none" stroke="black" cx="334.36" cy="-148.43" rx="105.22" ry="37.45"/>
<text text-anchor="middle" x="334.36" y="-159.73" font-family="Times New Roman,serif" font-size="14.00">[1e..22)</text>
<text text-anchor="middle" x="334.36" y="-144.73" font-family="Times New Roman,serif" font-size="14.00">Normalized Count: 6.82</text>
<text text-anchor="middle" x="334.36" y="-129.73" font-family="Times New Roman,serif" font-size="14.00">Samples weight: 0.27</text>
</g>
<!-- BB1&#45;&gt;BB4 -->
<g id="edge2" class="edge">
<title>BB1&#45;&gt;BB4</title>
<path fill="none" stroke="black" d="M242.35,-224.8C256,-213.62 271.34,-201.05 285.53,-189.43"/>
<polygon fill="black" stroke="black" points="287.76,-192.13 293.28,-183.09 283.32,-186.71 287.76,-192.13"/>
</g>
<!-- BB3 -->
<g id="node4" class="node">
<title>BB3</title>
<ellipse fill="none" stroke="black" cx="105.36" cy="-37.48" rx="105.22" ry="37.45"/>
<text text-anchor="middle" x="105.36" y="-48.78" font-family="Times New Roman,serif" font-size="14.00">[1c..1e)</text>
<text text-anchor="middle" x="105.36" y="-33.78" font-family="Times New Roman,serif" font-size="14.00">Normalized Count: 1.00</text>
<text text-anchor="middle" x="105.36" y="-18.78" font-family="Times New Roman,serif" font-size="14.00">Samples weight: 0.04</text>
</g>
<!-- BB2&#45;&gt;BB3 -->
<g id="edge5" class="edge">
<title>BB2&#45;&gt;BB3</title>
<path fill="none" stroke="black" d="M105.36,-110.85C105.36,-102.67 105.36,-93.89 105.36,-85.37"/>
<polygon fill="black" stroke="black" points="108.86,-85.15 105.36,-75.15 101.86,-85.15 108.86,-85.15"/>
</g>
<!-- BB2&#45;&gt;BB4 -->
<g id="edge4" class="edge">
<title>BB2&#45;&gt;BB4</title>
<path fill="none" stroke="black" d="M210.91,-148.43C213.52,-148.43 216.12,-148.43 218.72,-148.43"/>
<polygon fill="black" stroke="black" points="218.76,-151.93 228.76,-148.43 218.76,-144.93 218.76,-151.93"/>
</g>
<!-- BB4&#45;&gt;BB5 -->
<g id="edge6" class="edge">
<title>BB4&#45;&gt;BB5</title>
<path fill="none" stroke="black" d="M334.36,-185.99C334.36,-223.36 334.36,-281.53 334.36,-322.3"/>
<polygon fill="black" stroke="black" points="330.86,-322.53 334.36,-332.53 337.86,-322.53 330.86,-322.53"/>
</g>
<!-- BB5&#45;&gt;BB1 -->
<g id="edge7" class="edge">
<title>BB5&#45;&gt;BB1</title>
<path fill="none" stroke="black" d="M293.37,-335.76C279.72,-324.57 264.37,-312 250.19,-300.38"/>
<polygon fill="black" stroke="black" points="252.4,-297.67 242.44,-294.04 247.96,-303.08 252.4,-297.67"/>
</g>
<!-- BB6 -->
<g id="node7" class="node">
<title>BB6</title>
<ellipse fill="none" stroke="black" cx="467.36" cy="-259.38" rx="105.22" ry="37.45"/>
<text text-anchor="middle" x="467.36" y="-270.68" font-family="Times New Roman,serif" font-size="14.00">[2d..2f)</text>
<text text-anchor="middle" x="467.36" y="-255.68" font-family="Times New Roman,serif" font-size="14.00">Normalized Count: 0.00</text>
<text text-anchor="middle" x="467.36" y="-240.68" font-family="Times New Roman,serif" font-size="14.00">Samples weight: 0.00</text>
</g>
<!-- BB5&#45;&gt;BB6 -->
<g id="edge8" class="edge">
<title>BB5&#45;&gt;BB6</title>
<path fill="none" stroke="black" d="M375.35,-335.76C389,-324.57 404.34,-312 418.53,-300.38"/>
<polygon fill="black" stroke="black" points="420.76,-303.08 426.28,-294.04 416.32,-297.67 420.76,-303.08"/>
</g>
</g>
</svg>
