<?xml version="1.0" encoding="UTF-8" standalone="no"?>
<!DOCTYPE svg PUBLIC "-//W3C//DTD SVG 1.1//EN"
 "http://www.w3.org/Graphics/SVG/1.1/DTD/svg11.dtd">
<!-- Generated by graphviz version 2.47.0 (20210316.0004)
 -->
<!-- Title: G Pages: 1 -->
<svg width="361pt" height="1049pt"
 viewBox="0.00 0.00 361.02 1048.88" xmlns="http://www.w3.org/2000/svg" xmlns:xlink="http://www.w3.org/1999/xlink">
<g id="graph0" class="graph" transform="scale(1 1) rotate(0) translate(4 1044.88)">
<title>G</title>
<polygon fill="white" stroke="transparent" points="-4,4 -4,-1044.88 357.02,-1044.88 357.02,4 -4,4"/>
<!-- BB0 -->
<g id="node1" class="node">
<title>BB0</title>
<ellipse fill="none" stroke="black" cx="129.43" cy="-1014.01" rx="32.55" ry="26.74"/>
<text text-anchor="middle" x="129.43" y="-1017.81" font-family="Times New Roman,serif" font-size="14.00">[0..a)</text>
<text text-anchor="middle" x="129.43" y="-1002.81" font-family="Times New Roman,serif" font-size="14.00">0.01</text>
</g>
<!-- BB1 -->
<g id="node2" class="node">
<title>BB1</title>
<ellipse fill="none" stroke="black" cx="129.43" cy="-924.27" rx="37.45" ry="26.74"/>
<text text-anchor="middle" x="129.43" y="-928.07" font-family="Times New Roman,serif" font-size="14.00">[a..12)</text>
<text text-anchor="middle" x="129.43" y="-913.07" font-family="Times New Roman,serif" font-size="14.00">0.07</text>
</g>
<!-- BB0&#45;&gt;BB1 -->
<g id="edge1" class="edge">
<title>BB0&#45;&gt;BB1</title>
<path fill="none" stroke="black" d="M129.43,-986.69C129.43,-978.72 129.43,-969.83 129.43,-961.34"/>
<polygon fill="black" stroke="black" points="132.93,-961.28 129.43,-951.28 125.93,-961.28 132.93,-961.28"/>
</g>
<!-- BB3 -->
<g id="node4" class="node">
<title>BB3</title>
<ellipse fill="none" stroke="black" cx="94.43" cy="-834.53" rx="41.94" ry="26.74"/>
<text text-anchor="middle" x="94.43" y="-838.33" font-family="Times New Roman,serif" font-size="14.00">[16..1e)</text>
<text text-anchor="middle" x="94.43" y="-823.33" font-family="Times New Roman,serif" font-size="14.00">0.08</text>
</g>
<!-- BB1&#45;&gt;BB3 -->
<g id="edge2" class="edge">
<title>BB1&#45;&gt;BB3</title>
<path fill="none" stroke="black" d="M119.3,-897.89C115.86,-889.25 111.94,-879.44 108.26,-870.2"/>
<polygon fill="black" stroke="black" points="111.48,-868.84 104.53,-860.85 104.98,-871.44 111.48,-868.84"/>
</g>
<!-- BB2 -->
<g id="node3" class="node">
<title>BB2</title>
<ellipse fill="none" stroke="black" cx="42.43" cy="-744.79" rx="42.35" ry="26.74"/>
<text text-anchor="middle" x="42.43" y="-748.59" font-family="Times New Roman,serif" font-size="14.00">[12..16)</text>
<text text-anchor="middle" x="42.43" y="-733.59" font-family="Times New Roman,serif" font-size="14.00">0.00</text>
</g>
<!-- BB2&#45;&gt;BB3 -->
<g id="edge3" class="edge">
<title>BB2&#45;&gt;BB3</title>
<path fill="none" stroke="black" d="M62.03,-768.72C68.22,-777.98 74.88,-788.88 80.61,-799.07"/>
<polygon fill="black" stroke="black" points="77.71,-801.05 85.57,-808.15 83.85,-797.7 77.71,-801.05"/>
</g>
<!-- BB3&#45;&gt;BB2 -->
<g id="edge4" class="edge">
<title>BB3&#45;&gt;BB2</title>
<path fill="none" stroke="black" d="M74.74,-810.48C68.56,-801.23 61.93,-790.37 56.22,-780.22"/>
<polygon fill="black" stroke="black" points="59.14,-778.26 51.28,-771.16 52.99,-781.61 59.14,-778.26"/>
</g>
<!-- BB4 -->
<g id="node5" class="node">
<title>BB4</title>
<ellipse fill="none" stroke="black" cx="145.43" cy="-744.79" rx="42.35" ry="26.74"/>
<text text-anchor="middle" x="145.43" y="-748.59" font-family="Times New Roman,serif" font-size="14.00">[1e..2b)</text>
<text text-anchor="middle" x="145.43" y="-733.59" font-family="Times New Roman,serif" font-size="14.00">0.07</text>
</g>
<!-- BB3&#45;&gt;BB4 -->
<g id="edge5" class="edge">
<title>BB3&#45;&gt;BB4</title>
<path fill="none" stroke="black" d="M108.63,-809.09C114,-799.85 120.21,-789.17 125.98,-779.24"/>
<polygon fill="black" stroke="black" points="129.12,-780.81 131.12,-770.4 123.07,-777.29 129.12,-780.81"/>
</g>
<!-- BB5 -->
<g id="node6" class="node">
<title>BB5</title>
<ellipse fill="none" stroke="black" cx="114.43" cy="-655.05" rx="41.94" ry="26.74"/>
<text text-anchor="middle" x="114.43" y="-658.85" font-family="Times New Roman,serif" font-size="14.00">[2b..5f)</text>
<text text-anchor="middle" x="114.43" y="-643.85" font-family="Times New Roman,serif" font-size="14.00">0.05</text>
</g>
<!-- BB4&#45;&gt;BB5 -->
<g id="edge7" class="edge">
<title>BB4&#45;&gt;BB5</title>
<path fill="none" stroke="black" d="M136.46,-718.41C133.44,-709.86 130.01,-700.17 126.78,-691.01"/>
<polygon fill="black" stroke="black" points="130,-689.63 123.37,-681.37 123.4,-691.97 130,-689.63"/>
</g>
<!-- BB6 -->
<g id="node7" class="node">
<title>BB6</title>
<ellipse fill="none" stroke="black" cx="215.43" cy="-655.05" rx="41.02" ry="26.74"/>
<text text-anchor="middle" x="215.43" y="-658.85" font-family="Times New Roman,serif" font-size="14.00">[5f..68)</text>
<text text-anchor="middle" x="215.43" y="-643.85" font-family="Times New Roman,serif" font-size="14.00">0.07</text>
</g>
<!-- BB4&#45;&gt;BB6 -->
<g id="edge6" class="edge">
<title>BB4&#45;&gt;BB6</title>
<path fill="none" stroke="black" d="M164.19,-720.28C172.25,-710.17 181.8,-698.2 190.45,-687.35"/>
<polygon fill="black" stroke="black" points="193.36,-689.32 196.86,-679.32 187.89,-684.96 193.36,-689.32"/>
</g>
<!-- BB5&#45;&gt;BB6 -->
<g id="edge8" class="edge">
<title>BB5&#45;&gt;BB6</title>
<path fill="none" stroke="black" d="M156.25,-655.05C158.88,-655.05 161.51,-655.05 164.14,-655.05"/>
<polygon fill="black" stroke="black" points="164.28,-658.55 174.28,-655.05 164.28,-651.55 164.28,-658.55"/>
</g>
<!-- BB6&#45;&gt;BB1 -->
<g id="edge9" class="edge">
<title>BB6&#45;&gt;BB1</title>
<path fill="none" stroke="black" d="M213.04,-682.19C210.43,-705.9 205.37,-741.64 196.43,-771.66 183.86,-813.84 162.4,-859.74 147.15,-889.85"/>
<polygon fill="black" stroke="black" points="143.88,-888.56 142.44,-899.05 150.11,-891.75 143.88,-888.56"/>
</g>
<!-- BB7 -->
<g id="node8" class="node">
<title>BB7</title>
<ellipse fill="none" stroke="black" cx="215.43" cy="-565.31" rx="41.02" ry="26.74"/>
<text text-anchor="middle" x="215.43" y="-569.11" font-family="Times New Roman,serif" font-size="14.00">[68..6f)</text>
<text text-anchor="middle" x="215.43" y="-554.11" font-family="Times New Roman,serif" font-size="14.00">0.01</text>
</g>
<!-- BB6&#45;&gt;BB7 -->
<g id="edge10" class="edge">
<title>BB6&#45;&gt;BB7</title>
<path fill="none" stroke="black" d="M215.43,-627.73C215.43,-619.76 215.43,-610.87 215.43,-602.38"/>
<polygon fill="black" stroke="black" points="218.93,-602.31 215.43,-592.31 211.93,-602.31 218.93,-602.31"/>
</g>
<!-- BB13 -->
<g id="node14" class="node">
<title>BB13</title>
<ellipse fill="none" stroke="black" cx="215.43" cy="-475.57" rx="39.7" ry="26.74"/>
<text text-anchor="middle" x="215.43" y="-479.37" font-family="Times New Roman,serif" font-size="14.00">[f6..fd)</text>
<text text-anchor="middle" x="215.43" y="-464.37" font-family="Times New Roman,serif" font-size="14.00">0.01</text>
</g>
<!-- BB7&#45;&gt;BB13 -->
<g id="edge11" class="edge">
<title>BB7&#45;&gt;BB13</title>
<path fill="none" stroke="black" d="M215.43,-537.99C215.43,-530.02 215.43,-521.13 215.43,-512.64"/>
<polygon fill="black" stroke="black" points="218.93,-512.57 215.43,-502.57 211.93,-512.57 218.93,-512.57"/>
</g>
<!-- BB8 -->
<g id="node9" class="node">
<title>BB8</title>
<ellipse fill="none" stroke="black" cx="215.43" cy="-385.83" rx="40.11" ry="26.74"/>
<text text-anchor="middle" x="215.43" y="-389.63" font-family="Times New Roman,serif" font-size="14.00">[6f..7a)</text>
<text text-anchor="middle" x="215.43" y="-374.63" font-family="Times New Roman,serif" font-size="14.00">0.00</text>
</g>
<!-- BB9 -->
<g id="node10" class="node">
<title>BB9</title>
<ellipse fill="none" stroke="black" cx="216.43" cy="-296.09" rx="41.94" ry="26.74"/>
<text text-anchor="middle" x="216.43" y="-299.89" font-family="Times New Roman,serif" font-size="14.00">[7a..9c)</text>
<text text-anchor="middle" x="216.43" y="-284.89" font-family="Times New Roman,serif" font-size="14.00">0.10</text>
</g>
<!-- BB8&#45;&gt;BB9 -->
<g id="edge12" class="edge">
<title>BB8&#45;&gt;BB9</title>
<path fill="none" stroke="black" d="M215.73,-358.51C215.82,-350.54 215.92,-341.65 216.02,-333.16"/>
<polygon fill="black" stroke="black" points="219.52,-333.13 216.13,-323.09 212.52,-333.05 219.52,-333.13"/>
</g>
<!-- BB10 -->
<g id="node11" class="node">
<title>BB10</title>
<ellipse fill="none" stroke="black" cx="216.43" cy="-206.35" rx="42.35" ry="26.74"/>
<text text-anchor="middle" x="216.43" y="-210.15" font-family="Times New Roman,serif" font-size="14.00">[9c..eb)</text>
<text text-anchor="middle" x="216.43" y="-195.15" font-family="Times New Roman,serif" font-size="14.00">0.40</text>
</g>
<!-- BB9&#45;&gt;BB10 -->
<g id="edge13" class="edge">
<title>BB9&#45;&gt;BB10</title>
<path fill="none" stroke="black" d="M216.43,-268.77C216.43,-260.8 216.43,-251.91 216.43,-243.42"/>
<polygon fill="black" stroke="black" points="219.93,-243.35 216.43,-233.35 212.93,-243.35 219.93,-243.35"/>
</g>
<!-- BB10&#45;&gt;BB10 -->
<g id="edge14" class="edge">
<title>BB10&#45;&gt;BB10</title>
<path fill="none" stroke="black" d="M250.29,-222.68C264.63,-223.91 276.85,-218.47 276.85,-206.35 276.85,-197.26 269.98,-191.93 260.49,-190.35"/>
<polygon fill="black" stroke="black" points="260.39,-186.84 250.29,-190.02 260.17,-193.84 260.39,-186.84"/>
</g>
<!-- BB11 -->
<g id="node12" class="node">
<title>BB11</title>
<ellipse fill="none" stroke="black" cx="216.43" cy="-116.61" rx="41.02" ry="26.74"/>
<text text-anchor="middle" x="216.43" y="-120.41" font-family="Times New Roman,serif" font-size="14.00">[eb..f3)</text>
<text text-anchor="middle" x="216.43" y="-105.41" font-family="Times New Roman,serif" font-size="14.00">0.10</text>
</g>
<!-- BB10&#45;&gt;BB11 -->
<g id="edge15" class="edge">
<title>BB10&#45;&gt;BB11</title>
<path fill="none" stroke="black" d="M216.43,-179.03C216.43,-171.06 216.43,-162.17 216.43,-153.68"/>
<polygon fill="black" stroke="black" points="219.93,-153.61 216.43,-143.61 212.93,-153.61 219.93,-153.61"/>
</g>
<!-- BB11&#45;&gt;BB9 -->
<g id="edge16" class="edge">
<title>BB11&#45;&gt;BB9</title>
<path fill="none" stroke="black" d="M246.06,-135.46C260.85,-146.18 277.29,-161.26 285.43,-179.48 295.16,-201.29 295.16,-211.41 285.43,-233.22 278.81,-248.04 266.69,-260.79 254.43,-270.8"/>
<polygon fill="black" stroke="black" points="252.2,-268.1 246.41,-276.98 256.47,-273.65 252.2,-268.1"/>
</g>
<!-- BB12 -->
<g id="node13" class="node">
<title>BB12</title>
<ellipse fill="none" stroke="black" cx="181.43" cy="-26.87" rx="39.7" ry="26.74"/>
<text text-anchor="middle" x="181.43" y="-30.67" font-family="Times New Roman,serif" font-size="14.00">[f3..f6)</text>
<text text-anchor="middle" x="181.43" y="-15.67" font-family="Times New Roman,serif" font-size="14.00">0.00</text>
</g>
<!-- BB11&#45;&gt;BB12 -->
<g id="edge17" class="edge">
<title>BB11&#45;&gt;BB12</title>
<path fill="none" stroke="black" d="M206.3,-90.23C202.83,-81.52 198.87,-71.61 195.16,-62.3"/>
<polygon fill="black" stroke="black" points="198.36,-60.88 191.41,-52.89 191.86,-63.47 198.36,-60.88"/>
</g>
<!-- BB12&#45;&gt;BB13 -->
<g id="edge18" class="edge">
<title>BB12&#45;&gt;BB13</title>
<path fill="none" stroke="black" d="M173.13,-53.42C162.78,-87.63 146.43,-150.39 146.43,-205.35 146.43,-297.09 146.43,-297.09 146.43,-297.09 146.43,-349.24 145.14,-365.1 166.43,-412.7 171.58,-424.23 179.38,-435.48 187.25,-445.16"/>
<polygon fill="black" stroke="black" points="184.67,-447.53 193.82,-452.88 190.01,-443 184.67,-447.53"/>
</g>
<!-- BB13&#45;&gt;BB8 -->
<g id="edge19" class="edge">
<title>BB13&#45;&gt;BB8</title>
<path fill="none" stroke="black" d="M215.43,-448.25C215.43,-440.28 215.43,-431.39 215.43,-422.9"/>
<polygon fill="black" stroke="black" points="218.93,-422.83 215.43,-412.83 211.93,-422.83 218.93,-422.83"/>
</g>
<!-- BB14 -->
<g id="node15" class="node">
<title>BB14</title>
<ellipse fill="none" stroke="black" cx="313.43" cy="-385.83" rx="39.7" ry="26.74"/>
<text text-anchor="middle" x="313.43" y="-389.63" font-family="Times New Roman,serif" font-size="14.00">[fd..fe)</text>
<text text-anchor="middle" x="313.43" y="-374.63" font-family="Times New Roman,serif" font-size="14.00">0.01</text>
</g>
<!-- BB13&#45;&gt;BB14 -->
<g id="edge20" class="edge">
<title>BB13&#45;&gt;BB14</title>
<path fill="none" stroke="black" d="M238.65,-453.78C251.74,-442.06 268.25,-427.28 282.43,-414.58"/>
<polygon fill="black" stroke="black" points="284.91,-417.06 290.03,-407.78 280.24,-411.84 284.91,-417.06"/>
</g>
</g>
</svg>
