<?xml version="1.0" encoding="UTF-8" standalone="no"?>
<!DOCTYPE svg PUBLIC "-//W3C//DTD SVG 1.1//EN"
 "http://www.w3.org/Graphics/SVG/1.1/DTD/svg11.dtd">
<!-- Generated by graphviz version 2.47.0 (20210316.0004)
 -->
<!-- Title: G Pages: 1 -->
<svg width="798pt" height="765pt"
 viewBox="0.00 0.00 798.42 765.00" xmlns="http://www.w3.org/2000/svg" xmlns:xlink="http://www.w3.org/1999/xlink">
<g id="graph0" class="graph" transform="scale(1 1) rotate(0) translate(4 761)">
<title>G</title>
<polygon fill="white" stroke="transparent" points="-4,4 -4,-761 794.42,-761 794.42,4 -4,4"/>
<!-- BB0 -->
<g id="node1" class="node">
<title>BB0</title>
<ellipse fill="none" stroke="black" cx="556.19" cy="-708.92" rx="103.48" ry="48.17"/>
<text text-anchor="middle" x="556.19" y="-727.72" font-family="Times New Roman,serif" font-size="14.00">[0..9)</text>
<text text-anchor="middle" x="556.19" y="-712.72" font-family="Times New Roman,serif" font-size="14.00">Count: 19</text>
<text text-anchor="middle" x="556.19" y="-697.72" font-family="Times New Roman,serif" font-size="14.00">Normalized count: 1.00</text>
<text text-anchor="middle" x="556.19" y="-682.72" font-family="Times New Roman,serif" font-size="14.00">Samples weight: 0.00</text>
</g>
<!-- BB8 -->
<g id="node9" class="node">
<title>BB8</title>
<ellipse fill="none" stroke="black" cx="556.19" cy="-576.75" rx="108.38" ry="48.17"/>
<text text-anchor="middle" x="556.19" y="-595.55" font-family="Times New Roman,serif" font-size="14.00">[d4..db)</text>
<text text-anchor="middle" x="556.19" y="-580.55" font-family="Times New Roman,serif" font-size="14.00">Count: 287</text>
<text text-anchor="middle" x="556.19" y="-565.55" font-family="Times New Roman,serif" font-size="14.00">Normalized count: 15.11</text>
<text text-anchor="middle" x="556.19" y="-550.55" font-family="Times New Roman,serif" font-size="14.00">Samples weight: 0.01</text>
</g>
<!-- BB0&#45;&gt;BB8 -->
<g id="edge1" class="edge">
<title>BB0&#45;&gt;BB8</title>
<path fill="none" stroke="black" d="M556.19,-660.55C556.19,-652.29 556.19,-643.6 556.19,-635.1"/>
<polygon fill="black" stroke="black" points="559.69,-634.86 556.19,-624.86 552.69,-634.86 559.69,-634.86"/>
</g>
<!-- BB1 -->
<g id="node2" class="node">
<title>BB1</title>
<ellipse fill="none" stroke="black" cx="418.19" cy="-444.58" rx="108.38" ry="48.17"/>
<text text-anchor="middle" x="418.19" y="-463.38" font-family="Times New Roman,serif" font-size="14.00">[9..2f)</text>
<text text-anchor="middle" x="418.19" y="-448.38" font-family="Times New Roman,serif" font-size="14.00">Count: 268</text>
<text text-anchor="middle" x="418.19" y="-433.38" font-family="Times New Roman,serif" font-size="14.00">Normalized count: 14.11</text>
<text text-anchor="middle" x="418.19" y="-418.38" font-family="Times New Roman,serif" font-size="14.00">Samples weight: 0.01</text>
</g>
<!-- BB2 -->
<g id="node3" class="node">
<title>BB2</title>
<ellipse fill="none" stroke="black" cx="381.19" cy="-312.42" rx="113.27" ry="48.17"/>
<text text-anchor="middle" x="381.19" y="-331.22" font-family="Times New Roman,serif" font-size="14.00">[2f..93)</text>
<text text-anchor="middle" x="381.19" y="-316.22" font-family="Times New Roman,serif" font-size="14.00">Count: 6360</text>
<text text-anchor="middle" x="381.19" y="-301.22" font-family="Times New Roman,serif" font-size="14.00">Normalized count: 334.74</text>
<text text-anchor="middle" x="381.19" y="-286.22" font-family="Times New Roman,serif" font-size="14.00">Samples weight: 0.32</text>
</g>
<!-- BB1&#45;&gt;BB2 -->
<g id="edge2" class="edge">
<title>BB1&#45;&gt;BB2</title>
<path fill="none" stroke="black" d="M404.83,-396.59C402.39,-388.02 399.83,-378.99 397.32,-370.17"/>
<polygon fill="black" stroke="black" points="400.63,-369 394.53,-360.34 393.89,-370.92 400.63,-369"/>
</g>
<!-- BB3 -->
<g id="node4" class="node">
<title>BB3</title>
<ellipse fill="none" stroke="black" cx="108.19" cy="-180.25" rx="108.38" ry="48.17"/>
<text text-anchor="middle" x="108.19" y="-199.05" font-family="Times New Roman,serif" font-size="14.00">[93..9e)</text>
<text text-anchor="middle" x="108.19" y="-184.05" font-family="Times New Roman,serif" font-size="14.00">Count: 268</text>
<text text-anchor="middle" x="108.19" y="-169.05" font-family="Times New Roman,serif" font-size="14.00">Normalized count: 14.11</text>
<text text-anchor="middle" x="108.19" y="-154.05" font-family="Times New Roman,serif" font-size="14.00">Samples weight: 0.01</text>
</g>
<!-- BB2&#45;&gt;BB3 -->
<g id="edge4" class="edge">
<title>BB2&#45;&gt;BB3</title>
<path fill="none" stroke="black" d="M306.95,-276.02C270.85,-258.81 227.36,-238.07 190.28,-220.39"/>
<polygon fill="black" stroke="black" points="191.53,-217.11 180.99,-215.96 188.51,-223.43 191.53,-217.11"/>
</g>
<!-- BB4 -->
<g id="node5" class="node">
<title>BB4</title>
<ellipse fill="none" stroke="black" cx="347.19" cy="-180.25" rx="113.27" ry="48.17"/>
<text text-anchor="middle" x="347.19" y="-199.05" font-family="Times New Roman,serif" font-size="14.00">[9e..b1)</text>
<text text-anchor="middle" x="347.19" y="-184.05" font-family="Times New Roman,serif" font-size="14.00">Count: 6092</text>
<text text-anchor="middle" x="347.19" y="-169.05" font-family="Times New Roman,serif" font-size="14.00">Normalized count: 320.63</text>
<text text-anchor="middle" x="347.19" y="-154.05" font-family="Times New Roman,serif" font-size="14.00">Samples weight: 0.31</text>
</g>
<!-- BB2&#45;&gt;BB4 -->
<g id="edge3" class="edge">
<title>BB2&#45;&gt;BB4</title>
<path fill="none" stroke="black" d="M368.91,-264.42C366.67,-255.85 364.32,-246.83 362.01,-238.01"/>
<polygon fill="black" stroke="black" points="365.36,-236.96 359.44,-228.17 358.59,-238.73 365.36,-236.96"/>
</g>
<!-- BB3&#45;&gt;BB4 -->
<g id="edge6" class="edge">
<title>BB3&#45;&gt;BB4</title>
<path fill="none" stroke="black" d="M216.48,-180.25C218.93,-180.25 221.37,-180.25 223.81,-180.25"/>
<polygon fill="black" stroke="black" points="223.84,-183.75 233.84,-180.25 223.84,-176.75 223.84,-183.75"/>
</g>
<!-- BB7 -->
<g id="node8" class="node">
<title>BB7</title>
<ellipse fill="none" stroke="black" cx="586.19" cy="-48.08" rx="108.38" ry="48.17"/>
<text text-anchor="middle" x="586.19" y="-66.88" font-family="Times New Roman,serif" font-size="14.00">[c9..d4)</text>
<text text-anchor="middle" x="586.19" y="-51.88" font-family="Times New Roman,serif" font-size="14.00">Count: 268</text>
<text text-anchor="middle" x="586.19" y="-36.88" font-family="Times New Roman,serif" font-size="14.00">Normalized count: 14.11</text>
<text text-anchor="middle" x="586.19" y="-21.88" font-family="Times New Roman,serif" font-size="14.00">Samples weight: 0.01</text>
</g>
<!-- BB3&#45;&gt;BB7 -->
<g id="edge5" class="edge">
<title>BB3&#45;&gt;BB7</title>
<path fill="none" stroke="black" d="M183.77,-145.83C197.37,-140.68 211.56,-135.86 225.19,-132.17 330.99,-103.51 363.38,-124.83 469.19,-96.17 479.62,-93.34 490.39,-89.85 500.96,-86.06"/>
<polygon fill="black" stroke="black" points="502.44,-89.25 510.61,-82.51 500.02,-82.68 502.44,-89.25"/>
</g>
<!-- BB5 -->
<g id="node6" class="node">
<title>BB5</title>
<ellipse fill="none" stroke="black" cx="113.19" cy="-48.08" rx="103.48" ry="48.17"/>
<text text-anchor="middle" x="113.19" y="-66.88" font-family="Times New Roman,serif" font-size="14.00">[b1..bc)</text>
<text text-anchor="middle" x="113.19" y="-51.88" font-family="Times New Roman,serif" font-size="14.00">Count: 101</text>
<text text-anchor="middle" x="113.19" y="-36.88" font-family="Times New Roman,serif" font-size="14.00">Normalized count: 5.32</text>
<text text-anchor="middle" x="113.19" y="-21.88" font-family="Times New Roman,serif" font-size="14.00">Samples weight: 0.01</text>
</g>
<!-- BB4&#45;&gt;BB5 -->
<g id="edge8" class="edge">
<title>BB4&#45;&gt;BB5</title>
<path fill="none" stroke="black" d="M279.5,-141.6C250.76,-125.61 217.15,-106.91 187.7,-90.53"/>
<polygon fill="black" stroke="black" points="189.14,-87.33 178.7,-85.53 185.74,-93.45 189.14,-87.33"/>
</g>
<!-- BB6 -->
<g id="node7" class="node">
<title>BB6</title>
<ellipse fill="none" stroke="black" cx="347.19" cy="-48.08" rx="113.27" ry="48.17"/>
<text text-anchor="middle" x="347.19" y="-66.88" font-family="Times New Roman,serif" font-size="14.00">[bc..c9)</text>
<text text-anchor="middle" x="347.19" y="-51.88" font-family="Times New Roman,serif" font-size="14.00">Count: 6092</text>
<text text-anchor="middle" x="347.19" y="-36.88" font-family="Times New Roman,serif" font-size="14.00">Normalized count: 320.63</text>
<text text-anchor="middle" x="347.19" y="-21.88" font-family="Times New Roman,serif" font-size="14.00">Samples weight: 0.31</text>
</g>
<!-- BB4&#45;&gt;BB6 -->
<g id="edge7" class="edge">
<title>BB4&#45;&gt;BB6</title>
<path fill="none" stroke="black" d="M347.19,-131.89C347.19,-123.62 347.19,-114.94 347.19,-106.43"/>
<polygon fill="black" stroke="black" points="350.69,-106.19 347.19,-96.19 343.69,-106.19 350.69,-106.19"/>
</g>
<!-- BB5&#45;&gt;BB6 -->
<g id="edge10" class="edge">
<title>BB5&#45;&gt;BB6</title>
<path fill="none" stroke="black" d="M216.48,-48.08C218.92,-48.08 221.36,-48.08 223.8,-48.08"/>
<polygon fill="black" stroke="black" points="223.84,-51.58 233.84,-48.08 223.84,-44.58 223.84,-51.58"/>
</g>
<!-- BB5&#45;&gt;BB7 -->
<g id="edge9" class="edge">
<title>BB5&#45;&gt;BB7</title>
<path fill="none" stroke="black" d="M171.96,-87.82C190.99,-98.54 212.73,-108.69 234.19,-114.17 282.85,-126.59 411.42,-126.18 460.19,-114.17 479.08,-109.51 498.27,-101.47 515.8,-92.56"/>
<polygon fill="black" stroke="black" points="517.57,-95.58 524.8,-87.83 514.32,-89.38 517.57,-95.58"/>
</g>
<!-- BB6&#45;&gt;BB2 -->
<g id="edge11" class="edge">
<title>BB6&#45;&gt;BB2</title>
<path fill="none" stroke="black" d="M422.87,-84.14C441.34,-96.55 458.76,-112.46 469.19,-132.17 489.17,-169.95 486.11,-189.08 469.19,-228.33 463.63,-241.22 454.98,-253.04 445.24,-263.47"/>
<polygon fill="black" stroke="black" points="442.52,-261.24 437.98,-270.81 447.5,-266.16 442.52,-261.24"/>
</g>
<!-- BB6&#45;&gt;BB7 -->
<g id="edge12" class="edge">
<title>BB6&#45;&gt;BB7</title>
<path fill="none" stroke="black" d="M460.62,-48.08C462.94,-48.08 465.27,-48.08 467.59,-48.08"/>
<polygon fill="black" stroke="black" points="467.79,-51.58 477.79,-48.08 467.79,-44.58 467.79,-51.58"/>
</g>
<!-- BB7&#45;&gt;BB8 -->
<g id="edge13" class="edge">
<title>BB7&#45;&gt;BB8</title>
<path fill="none" stroke="black" d="M583.49,-96.37C577.98,-193.2 565.42,-413.74 559.45,-518.48"/>
<polygon fill="black" stroke="black" points="555.95,-518.36 558.88,-528.55 562.94,-518.76 555.95,-518.36"/>
</g>
<!-- BB8&#45;&gt;BB1 -->
<g id="edge14" class="edge">
<title>BB8&#45;&gt;BB1</title>
<path fill="none" stroke="black" d="M510.62,-532.77C498.02,-520.88 484.23,-507.88 471.25,-495.63"/>
<polygon fill="black" stroke="black" points="473.38,-492.84 463.71,-488.52 468.58,-497.93 473.38,-492.84"/>
</g>
<!-- BB9 -->
<g id="node10" class="node">
<title>BB9</title>
<ellipse fill="none" stroke="black" cx="687.19" cy="-444.58" rx="103.48" ry="48.17"/>
<text text-anchor="middle" x="687.19" y="-463.38" font-family="Times New Roman,serif" font-size="14.00">[db..e0)</text>
<text text-anchor="middle" x="687.19" y="-448.38" font-family="Times New Roman,serif" font-size="14.00">Count: 19</text>
<text text-anchor="middle" x="687.19" y="-433.38" font-family="Times New Roman,serif" font-size="14.00">Normalized count: 1.00</text>
<text text-anchor="middle" x="687.19" y="-418.38" font-family="Times New Roman,serif" font-size="14.00">Samples weight: 0.00</text>
</g>
<!-- BB8&#45;&gt;BB9 -->
<g id="edge15" class="edge">
<title>BB8&#45;&gt;BB9</title>
<path fill="none" stroke="black" d="M599.81,-532.41C611.52,-520.77 624.28,-508.09 636.35,-496.1"/>
<polygon fill="black" stroke="black" points="639.13,-498.27 643.76,-488.74 634.2,-493.3 639.13,-498.27"/>
</g>
</g>
</svg>
