<?xml version="1.0" encoding="UTF-8" standalone="no"?>
<!DOCTYPE svg PUBLIC "-//W3C//DTD SVG 1.1//EN"
 "http://www.w3.org/Graphics/SVG/1.1/DTD/svg11.dtd">
<!-- Generated by graphviz version 2.47.0 (20210316.0004)
 -->
<!-- Title: G Pages: 1 -->
<svg width="231pt" height="510pt"
 viewBox="0.00 0.00 230.85 510.44" xmlns="http://www.w3.org/2000/svg" xmlns:xlink="http://www.w3.org/1999/xlink">
<g id="graph0" class="graph" transform="scale(1 1) rotate(0) translate(4 506.44)">
<title>G</title>
<polygon fill="white" stroke="transparent" points="-4,4 -4,-506.44 226.85,-506.44 226.85,4 -4,4"/>
<!-- BB0 -->
<g id="node1" class="node">
<title>BB0</title>
<ellipse fill="none" stroke="black" cx="76.43" cy="-475.57" rx="37.45" ry="26.74"/>
<text text-anchor="middle" x="76.43" y="-479.37" font-family="Times New Roman,serif" font-size="14.00">[0..17)</text>
<text text-anchor="middle" x="76.43" y="-464.37" font-family="Times New Roman,serif" font-size="14.00">0.01</text>
</g>
<!-- BB5 -->
<g id="node6" class="node">
<title>BB5</title>
<ellipse fill="none" stroke="black" cx="76.43" cy="-385.83" rx="41.02" ry="26.74"/>
<text text-anchor="middle" x="76.43" y="-389.63" font-family="Times New Roman,serif" font-size="14.00">[59..5f)</text>
<text text-anchor="middle" x="76.43" y="-374.63" font-family="Times New Roman,serif" font-size="14.00">0.20</text>
</g>
<!-- BB0&#45;&gt;BB5 -->
<g id="edge1" class="edge">
<title>BB0&#45;&gt;BB5</title>
<path fill="none" stroke="black" d="M76.43,-448.25C76.43,-440.28 76.43,-431.39 76.43,-422.9"/>
<polygon fill="black" stroke="black" points="79.93,-422.83 76.43,-412.83 72.93,-422.83 79.93,-422.83"/>
</g>
<!-- BB1 -->
<g id="node2" class="node">
<title>BB1</title>
<ellipse fill="none" stroke="black" cx="177.43" cy="-296.09" rx="42.35" ry="26.74"/>
<text text-anchor="middle" x="177.43" y="-299.89" font-family="Times New Roman,serif" font-size="14.00">[17..28)</text>
<text text-anchor="middle" x="177.43" y="-284.89" font-family="Times New Roman,serif" font-size="14.00">0.20</text>
</g>
<!-- BB2 -->
<g id="node3" class="node">
<title>BB2</title>
<ellipse fill="none" stroke="black" cx="77.43" cy="-206.35" rx="42.35" ry="26.74"/>
<text text-anchor="middle" x="77.43" y="-210.15" font-family="Times New Roman,serif" font-size="14.00">[28..38)</text>
<text text-anchor="middle" x="77.43" y="-195.15" font-family="Times New Roman,serif" font-size="14.00">0.19</text>
</g>
<!-- BB1&#45;&gt;BB2 -->
<g id="edge3" class="edge">
<title>BB1&#45;&gt;BB2</title>
<path fill="none" stroke="black" d="M153.22,-273.85C140.05,-262.3 123.6,-247.86 109.39,-235.39"/>
<polygon fill="black" stroke="black" points="111.58,-232.66 101.76,-228.7 106.97,-237.92 111.58,-232.66"/>
</g>
<!-- BB7 -->
<g id="node8" class="node">
<title>BB7</title>
<ellipse fill="none" stroke="black" cx="180.43" cy="-206.35" rx="42.35" ry="26.74"/>
<text text-anchor="middle" x="180.43" y="-210.15" font-family="Times New Roman,serif" font-size="14.00">[64..68)</text>
<text text-anchor="middle" x="180.43" y="-195.15" font-family="Times New Roman,serif" font-size="14.00">0.01</text>
</g>
<!-- BB1&#45;&gt;BB7 -->
<g id="edge2" class="edge">
<title>BB1&#45;&gt;BB7</title>
<path fill="none" stroke="black" d="M178.33,-268.77C178.6,-260.8 178.9,-251.91 179.19,-243.42"/>
<polygon fill="black" stroke="black" points="182.69,-243.47 179.54,-233.35 175.7,-243.23 182.69,-243.47"/>
</g>
<!-- BB3 -->
<g id="node4" class="node">
<title>BB3</title>
<ellipse fill="none" stroke="black" cx="77.43" cy="-116.61" rx="42.35" ry="26.74"/>
<text text-anchor="middle" x="77.43" y="-120.41" font-family="Times New Roman,serif" font-size="14.00">[38..51)</text>
<text text-anchor="middle" x="77.43" y="-105.41" font-family="Times New Roman,serif" font-size="14.00">0.19</text>
</g>
<!-- BB2&#45;&gt;BB3 -->
<g id="edge5" class="edge">
<title>BB2&#45;&gt;BB3</title>
<path fill="none" stroke="black" d="M77.43,-179.03C77.43,-171.06 77.43,-162.17 77.43,-153.68"/>
<polygon fill="black" stroke="black" points="80.93,-153.61 77.43,-143.61 73.93,-153.61 80.93,-153.61"/>
</g>
<!-- BB6 -->
<g id="node7" class="node">
<title>BB6</title>
<ellipse fill="none" stroke="black" cx="76.43" cy="-296.09" rx="41.02" ry="26.74"/>
<text text-anchor="middle" x="76.43" y="-299.89" font-family="Times New Roman,serif" font-size="14.00">[5f..64)</text>
<text text-anchor="middle" x="76.43" y="-284.89" font-family="Times New Roman,serif" font-size="14.00">0.00</text>
</g>
<!-- BB2&#45;&gt;BB6 -->
<g id="edge4" class="edge">
<title>BB2&#45;&gt;BB6</title>
<path fill="none" stroke="black" d="M77.13,-233.35C77.04,-241.3 76.94,-250.18 76.84,-258.68"/>
<polygon fill="black" stroke="black" points="73.34,-258.73 76.73,-268.77 80.34,-258.81 73.34,-258.73"/>
</g>
<!-- BB4 -->
<g id="node5" class="node">
<title>BB4</title>
<ellipse fill="none" stroke="black" cx="42.43" cy="-26.87" rx="42.35" ry="26.74"/>
<text text-anchor="middle" x="42.43" y="-30.67" font-family="Times New Roman,serif" font-size="14.00">[51..59)</text>
<text text-anchor="middle" x="42.43" y="-15.67" font-family="Times New Roman,serif" font-size="14.00">0.19</text>
</g>
<!-- BB3&#45;&gt;BB4 -->
<g id="edge7" class="edge">
<title>BB3&#45;&gt;BB4</title>
<path fill="none" stroke="black" d="M67.3,-90.23C63.86,-81.59 59.94,-71.78 56.26,-62.54"/>
<polygon fill="black" stroke="black" points="59.48,-61.18 52.53,-53.19 52.98,-63.78 59.48,-61.18"/>
</g>
<!-- BB8 -->
<g id="node9" class="node">
<title>BB8</title>
<ellipse fill="none" stroke="black" cx="180.43" cy="-116.61" rx="42.35" ry="26.74"/>
<text text-anchor="middle" x="180.43" y="-120.41" font-family="Times New Roman,serif" font-size="14.00">[68..69)</text>
<text text-anchor="middle" x="180.43" y="-105.41" font-family="Times New Roman,serif" font-size="14.00">0.01</text>
</g>
<!-- BB3&#45;&gt;BB8 -->
<g id="edge6" class="edge">
<title>BB3&#45;&gt;BB8</title>
<path fill="none" stroke="black" d="M120.07,-116.61C122.69,-116.61 125.3,-116.61 127.91,-116.61"/>
<polygon fill="black" stroke="black" points="127.99,-120.11 137.99,-116.61 127.99,-113.11 127.99,-120.11"/>
</g>
<!-- BB4&#45;&gt;BB5 -->
<g id="edge8" class="edge">
<title>BB4&#45;&gt;BB5</title>
<path fill="none" stroke="black" d="M34.57,-53.68C19.95,-106.17 -7.01,-228.39 26.43,-322.96 30.63,-334.86 38.21,-346.15 46.22,-355.75"/>
<polygon fill="black" stroke="black" points="43.73,-358.22 52.98,-363.39 48.97,-353.58 43.73,-358.22"/>
</g>
<!-- BB5&#45;&gt;BB1 -->
<g id="edge9" class="edge">
<title>BB5&#45;&gt;BB1</title>
<path fill="none" stroke="black" d="M100.62,-363.81C114.01,-352.18 130.83,-337.57 145.31,-324.99"/>
<polygon fill="black" stroke="black" points="147.83,-327.44 153.08,-318.24 143.24,-322.15 147.83,-327.44"/>
</g>
<!-- BB5&#45;&gt;BB6 -->
<g id="edge10" class="edge">
<title>BB5&#45;&gt;BB6</title>
<path fill="none" stroke="black" d="M76.43,-358.51C76.43,-350.54 76.43,-341.65 76.43,-333.16"/>
<polygon fill="black" stroke="black" points="79.93,-333.09 76.43,-323.09 72.93,-333.09 79.93,-333.09"/>
</g>
<!-- BB7&#45;&gt;BB8 -->
<g id="edge11" class="edge">
<title>BB7&#45;&gt;BB8</title>
<path fill="none" stroke="black" d="M180.43,-179.03C180.43,-171.06 180.43,-162.17 180.43,-153.68"/>
<polygon fill="black" stroke="black" points="183.93,-153.61 180.43,-143.61 176.93,-153.61 183.93,-153.61"/>
</g>
</g>
</svg>
