<?xml version="1.0" encoding="UTF-8" standalone="no"?>
<!DOCTYPE svg PUBLIC "-//W3C//DTD SVG 1.1//EN"
 "http://www.w3.org/Graphics/SVG/1.1/DTD/svg11.dtd">
<!-- Generated by graphviz version 2.47.0 (20210316.0004)
 -->
<!-- Title: G Pages: 1 -->
<svg width="626pt" height="765pt"
 viewBox="0.00 0.00 626.42 765.00" xmlns="http://www.w3.org/2000/svg" xmlns:xlink="http://www.w3.org/1999/xlink">
<g id="graph0" class="graph" transform="scale(1 1) rotate(0) translate(4 761)">
<title>G</title>
<polygon fill="white" stroke="transparent" points="-4,4 -4,-761 622.42,-761 622.42,4 -4,4"/>
<!-- BB0 -->
<g id="node1" class="node">
<title>BB0</title>
<ellipse fill="none" stroke="black" cx="215.24" cy="-708.92" rx="103.48" ry="48.17"/>
<text text-anchor="middle" x="215.24" y="-727.72" font-family="Times New Roman,serif" font-size="14.00">[0..1f)</text>
<text text-anchor="middle" x="215.24" y="-712.72" font-family="Times New Roman,serif" font-size="14.00">Count: 1164</text>
<text text-anchor="middle" x="215.24" y="-697.72" font-family="Times New Roman,serif" font-size="14.00">Normalized count: 1.00</text>
<text text-anchor="middle" x="215.24" y="-682.72" font-family="Times New Roman,serif" font-size="14.00">Samples weight: 0.01</text>
</g>
<!-- BB1 -->
<g id="node2" class="node">
<title>BB1</title>
<ellipse fill="none" stroke="black" cx="103.24" cy="-576.75" rx="103.48" ry="48.17"/>
<text text-anchor="middle" x="103.24" y="-595.55" font-family="Times New Roman,serif" font-size="14.00">[1f..23)</text>
<text text-anchor="middle" x="103.24" y="-580.55" font-family="Times New Roman,serif" font-size="14.00">Count: 0</text>
<text text-anchor="middle" x="103.24" y="-565.55" font-family="Times New Roman,serif" font-size="14.00">Normalized count: 0.00</text>
<text text-anchor="middle" x="103.24" y="-550.55" font-family="Times New Roman,serif" font-size="14.00">Samples weight: 0.00</text>
</g>
<!-- BB0&#45;&gt;BB1 -->
<g id="edge2" class="edge">
<title>BB0&#45;&gt;BB1</title>
<path fill="none" stroke="black" d="M177.32,-663.85C167.83,-652.82 157.57,-640.89 147.79,-629.53"/>
<polygon fill="black" stroke="black" points="150.29,-627.07 141.12,-621.77 144.99,-631.64 150.29,-627.07"/>
</g>
<!-- BB2 -->
<g id="node3" class="node">
<title>BB2</title>
<ellipse fill="none" stroke="black" cx="327.24" cy="-576.75" rx="103.48" ry="48.17"/>
<text text-anchor="middle" x="327.24" y="-595.55" font-family="Times New Roman,serif" font-size="14.00">[23..2e)</text>
<text text-anchor="middle" x="327.24" y="-580.55" font-family="Times New Roman,serif" font-size="14.00">Count: 1164</text>
<text text-anchor="middle" x="327.24" y="-565.55" font-family="Times New Roman,serif" font-size="14.00">Normalized count: 1.00</text>
<text text-anchor="middle" x="327.24" y="-550.55" font-family="Times New Roman,serif" font-size="14.00">Samples weight: 0.01</text>
</g>
<!-- BB0&#45;&gt;BB2 -->
<g id="edge1" class="edge">
<title>BB0&#45;&gt;BB2</title>
<path fill="none" stroke="black" d="M253.16,-663.85C262.64,-652.82 272.91,-640.89 282.68,-629.53"/>
<polygon fill="black" stroke="black" points="285.49,-631.64 289.36,-621.77 280.18,-627.07 285.49,-631.64"/>
</g>
<!-- BB3 -->
<g id="node4" class="node">
<title>BB3</title>
<ellipse fill="none" stroke="black" cx="327.24" cy="-444.58" rx="108.38" ry="48.17"/>
<text text-anchor="middle" x="327.24" y="-463.38" font-family="Times New Roman,serif" font-size="14.00">[2e..3f)</text>
<text text-anchor="middle" x="327.24" y="-448.38" font-family="Times New Roman,serif" font-size="14.00">Count: 37636</text>
<text text-anchor="middle" x="327.24" y="-433.38" font-family="Times New Roman,serif" font-size="14.00">Normalized count: 32.33</text>
<text text-anchor="middle" x="327.24" y="-418.38" font-family="Times New Roman,serif" font-size="14.00">Samples weight: 0.25</text>
</g>
<!-- BB2&#45;&gt;BB3 -->
<g id="edge3" class="edge">
<title>BB2&#45;&gt;BB3</title>
<path fill="none" stroke="black" d="M327.24,-528.39C327.24,-520.12 327.24,-511.44 327.24,-502.93"/>
<polygon fill="black" stroke="black" points="330.74,-502.69 327.24,-492.69 323.74,-502.69 330.74,-502.69"/>
</g>
<!-- BB4 -->
<g id="node5" class="node">
<title>BB4</title>
<ellipse fill="none" stroke="black" cx="442.24" cy="-312.42" rx="108.38" ry="48.17"/>
<text text-anchor="middle" x="442.24" y="-331.22" font-family="Times New Roman,serif" font-size="14.00">[3f..55)</text>
<text text-anchor="middle" x="442.24" y="-316.22" font-family="Times New Roman,serif" font-size="14.00">Count: 36472</text>
<text text-anchor="middle" x="442.24" y="-301.22" font-family="Times New Roman,serif" font-size="14.00">Normalized count: 31.33</text>
<text text-anchor="middle" x="442.24" y="-286.22" font-family="Times New Roman,serif" font-size="14.00">Samples weight: 0.24</text>
</g>
<!-- BB3&#45;&gt;BB4 -->
<g id="edge5" class="edge">
<title>BB3&#45;&gt;BB4</title>
<path fill="none" stroke="black" d="M366.17,-399.51C375.91,-388.49 386.45,-376.56 396.49,-365.2"/>
<polygon fill="black" stroke="black" points="399.35,-367.25 403.34,-357.44 394.1,-362.62 399.35,-367.25"/>
</g>
<!-- BB9 -->
<g id="node10" class="node">
<title>BB9</title>
<ellipse fill="none" stroke="black" cx="213.24" cy="-312.42" rx="103.48" ry="48.17"/>
<text text-anchor="middle" x="213.24" y="-331.22" font-family="Times New Roman,serif" font-size="14.00">[79..7a)</text>
<text text-anchor="middle" x="213.24" y="-316.22" font-family="Times New Roman,serif" font-size="14.00">Count: 1164</text>
<text text-anchor="middle" x="213.24" y="-301.22" font-family="Times New Roman,serif" font-size="14.00">Normalized count: 1.00</text>
<text text-anchor="middle" x="213.24" y="-286.22" font-family="Times New Roman,serif" font-size="14.00">Samples weight: 0.01</text>
</g>
<!-- BB3&#45;&gt;BB9 -->
<g id="edge4" class="edge">
<title>BB3&#45;&gt;BB9</title>
<path fill="none" stroke="black" d="M288.64,-399.51C278.99,-388.49 268.54,-376.56 258.59,-365.2"/>
<polygon fill="black" stroke="black" points="261.01,-362.66 251.79,-357.44 255.75,-367.27 261.01,-362.66"/>
</g>
<!-- BB5 -->
<g id="node6" class="node">
<title>BB5</title>
<ellipse fill="none" stroke="black" cx="442.24" cy="-180.25" rx="108.38" ry="48.17"/>
<text text-anchor="middle" x="442.24" y="-199.05" font-family="Times New Roman,serif" font-size="14.00">[55..6a)</text>
<text text-anchor="middle" x="442.24" y="-184.05" font-family="Times New Roman,serif" font-size="14.00">Count: 36472</text>
<text text-anchor="middle" x="442.24" y="-169.05" font-family="Times New Roman,serif" font-size="14.00">Normalized count: 31.33</text>
<text text-anchor="middle" x="442.24" y="-154.05" font-family="Times New Roman,serif" font-size="14.00">Samples weight: 0.24</text>
</g>
<!-- BB4&#45;&gt;BB5 -->
<g id="edge7" class="edge">
<title>BB4&#45;&gt;BB5</title>
<path fill="none" stroke="black" d="M442.24,-264.05C442.24,-255.79 442.24,-247.1 442.24,-238.6"/>
<polygon fill="black" stroke="black" points="445.74,-238.36 442.24,-228.36 438.74,-238.36 445.74,-238.36"/>
</g>
<!-- BB8 -->
<g id="node9" class="node">
<title>BB8</title>
<ellipse fill="none" stroke="black" cx="213.24" cy="-180.25" rx="103.48" ry="48.17"/>
<text text-anchor="middle" x="213.24" y="-199.05" font-family="Times New Roman,serif" font-size="14.00">[76..79)</text>
<text text-anchor="middle" x="213.24" y="-184.05" font-family="Times New Roman,serif" font-size="14.00">Count: 0</text>
<text text-anchor="middle" x="213.24" y="-169.05" font-family="Times New Roman,serif" font-size="14.00">Normalized count: 0.00</text>
<text text-anchor="middle" x="213.24" y="-154.05" font-family="Times New Roman,serif" font-size="14.00">Samples weight: 0.00</text>
</g>
<!-- BB4&#45;&gt;BB8 -->
<g id="edge6" class="edge">
<title>BB4&#45;&gt;BB8</title>
<path fill="none" stroke="black" d="M376.62,-274.12C348.47,-258.12 315.47,-239.36 286.53,-222.91"/>
<polygon fill="black" stroke="black" points="288.11,-219.78 277.68,-217.88 284.65,-225.87 288.11,-219.78"/>
</g>
<!-- BB6 -->
<g id="node7" class="node">
<title>BB6</title>
<ellipse fill="none" stroke="black" cx="216.24" cy="-48.08" rx="103.48" ry="48.17"/>
<text text-anchor="middle" x="216.24" y="-66.88" font-family="Times New Roman,serif" font-size="14.00">[6a..71)</text>
<text text-anchor="middle" x="216.24" y="-51.88" font-family="Times New Roman,serif" font-size="14.00">Count: 11312</text>
<text text-anchor="middle" x="216.24" y="-36.88" font-family="Times New Roman,serif" font-size="14.00">Normalized count: 9.72</text>
<text text-anchor="middle" x="216.24" y="-21.88" font-family="Times New Roman,serif" font-size="14.00">Samples weight: 0.08</text>
</g>
<!-- BB5&#45;&gt;BB6 -->
<g id="edge9" class="edge">
<title>BB5&#45;&gt;BB6</title>
<path fill="none" stroke="black" d="M377.17,-141.77C349.76,-125.98 317.72,-107.53 289.48,-91.27"/>
<polygon fill="black" stroke="black" points="290.87,-88.03 280.45,-86.07 287.37,-94.09 290.87,-88.03"/>
</g>
<!-- BB7 -->
<g id="node8" class="node">
<title>BB7</title>
<ellipse fill="none" stroke="black" cx="510.24" cy="-48.08" rx="108.38" ry="48.17"/>
<text text-anchor="middle" x="510.24" y="-66.88" font-family="Times New Roman,serif" font-size="14.00">[71..76)</text>
<text text-anchor="middle" x="510.24" y="-51.88" font-family="Times New Roman,serif" font-size="14.00">Count: 25160</text>
<text text-anchor="middle" x="510.24" y="-36.88" font-family="Times New Roman,serif" font-size="14.00">Normalized count: 21.62</text>
<text text-anchor="middle" x="510.24" y="-21.88" font-family="Times New Roman,serif" font-size="14.00">Samples weight: 0.17</text>
</g>
<!-- BB5&#45;&gt;BB7 -->
<g id="edge8" class="edge">
<title>BB5&#45;&gt;BB7</title>
<path fill="none" stroke="black" d="M466.21,-133.36C471.19,-123.83 476.48,-113.7 481.61,-103.89"/>
<polygon fill="black" stroke="black" points="484.72,-105.48 486.25,-95 478.52,-102.24 484.72,-105.48"/>
</g>
<!-- BB6&#45;&gt;BB3 -->
<g id="edge10" class="edge">
<title>BB6&#45;&gt;BB3</title>
<path fill="none" stroke="black" d="M146.61,-83.68C128.54,-96.3 111.33,-112.43 101.24,-132.17 55.05,-222.53 43.16,-277.28 101.24,-360.5 126.87,-397.23 170.64,-417.77 212.87,-429.24"/>
<polygon fill="black" stroke="black" points="212.15,-432.67 222.71,-431.76 213.89,-425.88 212.15,-432.67"/>
</g>
<!-- BB7&#45;&gt;BB3 -->
<g id="edge11" class="edge">
<title>BB7&#45;&gt;BB3</title>
<path fill="none" stroke="black" d="M542.62,-94.13C549.45,-105.96 555.67,-119.08 559.24,-132.17 585.96,-230.07 617.66,-277.52 559.24,-360.5 532.39,-398.63 486.34,-419.35 442.31,-430.58"/>
<polygon fill="black" stroke="black" points="441.27,-427.23 432.37,-432.97 442.91,-434.04 441.27,-427.23"/>
</g>
<!-- BB8&#45;&gt;BB9 -->
<g id="edge12" class="edge">
<title>BB8&#45;&gt;BB9</title>
<path fill="none" stroke="black" d="M213.24,-228.36C213.24,-236.62 213.24,-245.3 213.24,-253.8"/>
<polygon fill="black" stroke="black" points="209.74,-254.05 213.24,-264.05 216.74,-254.06 209.74,-254.05"/>
</g>
</g>
</svg>
