<?xml version="1.0" encoding="UTF-8" standalone="no"?>
<!DOCTYPE svg PUBLIC "-//W3C//DTD SVG 1.1//EN"
 "http://www.w3.org/Graphics/SVG/1.1/DTD/svg11.dtd">
<!-- Generated by graphviz version 2.47.0 (20210316.0004)
 -->
<!-- Title: G Pages: 1 -->
<svg width="1050pt" height="1558pt"
 viewBox="0.00 0.00 1050.50 1558.00" xmlns="http://www.w3.org/2000/svg" xmlns:xlink="http://www.w3.org/1999/xlink">
<g id="graph0" class="graph" transform="scale(1 1) rotate(0) translate(4 1554)">
<title>G</title>
<polygon fill="white" stroke="transparent" points="-4,4 -4,-1554 1046.5,-1554 1046.5,4 -4,4"/>
<!-- BB0 -->
<g id="node1" class="node">
<title>BB0</title>
<ellipse fill="none" stroke="black" cx="370.84" cy="-1501.92" rx="104.8" ry="48.17"/>
<text text-anchor="middle" x="370.84" y="-1520.72" font-family="Times New Roman,serif" font-size="14.00">[0..13)</text>
<text text-anchor="middle" x="370.84" y="-1505.72" font-family="Times New Roman,serif" font-size="14.00">Count: 0</text>
<text text-anchor="middle" x="370.84" y="-1490.72" font-family="Times New Roman,serif" font-size="14.00">Normalized count: NaN</text>
<text text-anchor="middle" x="370.84" y="-1475.72" font-family="Times New Roman,serif" font-size="14.00">Samples weight: 0.00</text>
</g>
<!-- BB16 -->
<g id="node17" class="node">
<title>BB16</title>
<ellipse fill="none" stroke="black" cx="370.84" cy="-1369.75" rx="104.8" ry="48.17"/>
<text text-anchor="middle" x="370.84" y="-1388.55" font-family="Times New Roman,serif" font-size="14.00">[9d..a4)</text>
<text text-anchor="middle" x="370.84" y="-1373.55" font-family="Times New Roman,serif" font-size="14.00">Count: 0</text>
<text text-anchor="middle" x="370.84" y="-1358.55" font-family="Times New Roman,serif" font-size="14.00">Normalized count: NaN</text>
<text text-anchor="middle" x="370.84" y="-1343.55" font-family="Times New Roman,serif" font-size="14.00">Samples weight: 0.00</text>
</g>
<!-- BB0&#45;&gt;BB16 -->
<g id="edge1" class="edge">
<title>BB0&#45;&gt;BB16</title>
<path fill="none" stroke="black" d="M370.84,-1453.55C370.84,-1445.29 370.84,-1436.6 370.84,-1428.1"/>
<polygon fill="black" stroke="black" points="374.34,-1427.86 370.84,-1417.86 367.34,-1427.86 374.34,-1427.86"/>
</g>
<!-- BB1 -->
<g id="node2" class="node">
<title>BB1</title>
<ellipse fill="none" stroke="black" cx="370.84" cy="-1237.58" rx="104.8" ry="48.17"/>
<text text-anchor="middle" x="370.84" y="-1256.38" font-family="Times New Roman,serif" font-size="14.00">[13..1e)</text>
<text text-anchor="middle" x="370.84" y="-1241.38" font-family="Times New Roman,serif" font-size="14.00">Count: 0</text>
<text text-anchor="middle" x="370.84" y="-1226.38" font-family="Times New Roman,serif" font-size="14.00">Normalized count: NaN</text>
<text text-anchor="middle" x="370.84" y="-1211.38" font-family="Times New Roman,serif" font-size="14.00">Samples weight: 0.00</text>
</g>
<!-- BB2 -->
<g id="node3" class="node">
<title>BB2</title>
<ellipse fill="none" stroke="black" cx="483.84" cy="-1105.42" rx="104.8" ry="48.17"/>
<text text-anchor="middle" x="483.84" y="-1124.22" font-family="Times New Roman,serif" font-size="14.00">[1e..21)</text>
<text text-anchor="middle" x="483.84" y="-1109.22" font-family="Times New Roman,serif" font-size="14.00">Count: 0</text>
<text text-anchor="middle" x="483.84" y="-1094.22" font-family="Times New Roman,serif" font-size="14.00">Normalized count: NaN</text>
<text text-anchor="middle" x="483.84" y="-1079.22" font-family="Times New Roman,serif" font-size="14.00">Samples weight: 0.00</text>
</g>
<!-- BB1&#45;&gt;BB2 -->
<g id="edge3" class="edge">
<title>BB1&#45;&gt;BB2</title>
<path fill="none" stroke="black" d="M409.1,-1192.51C418.67,-1181.49 429.03,-1169.56 438.89,-1158.2"/>
<polygon fill="black" stroke="black" points="441.71,-1160.28 445.63,-1150.44 436.43,-1155.7 441.71,-1160.28"/>
</g>
<!-- BB3 -->
<g id="node4" class="node">
<title>BB3</title>
<ellipse fill="none" stroke="black" cx="256.84" cy="-1105.42" rx="104.8" ry="48.17"/>
<text text-anchor="middle" x="256.84" y="-1124.22" font-family="Times New Roman,serif" font-size="14.00">[21..22)</text>
<text text-anchor="middle" x="256.84" y="-1109.22" font-family="Times New Roman,serif" font-size="14.00">Count: 0</text>
<text text-anchor="middle" x="256.84" y="-1094.22" font-family="Times New Roman,serif" font-size="14.00">Normalized count: NaN</text>
<text text-anchor="middle" x="256.84" y="-1079.22" font-family="Times New Roman,serif" font-size="14.00">Samples weight: 0.00</text>
</g>
<!-- BB1&#45;&gt;BB3 -->
<g id="edge2" class="edge">
<title>BB1&#45;&gt;BB3</title>
<path fill="none" stroke="black" d="M332.25,-1192.51C322.59,-1181.49 312.15,-1169.56 302.19,-1158.2"/>
<polygon fill="black" stroke="black" points="304.62,-1155.66 295.4,-1150.44 299.36,-1160.27 304.62,-1155.66"/>
</g>
<!-- BB4 -->
<g id="node5" class="node">
<title>BB4</title>
<ellipse fill="none" stroke="black" cx="369.84" cy="-973.25" rx="104.8" ry="48.17"/>
<text text-anchor="middle" x="369.84" y="-992.05" font-family="Times New Roman,serif" font-size="14.00">[22..2f)</text>
<text text-anchor="middle" x="369.84" y="-977.05" font-family="Times New Roman,serif" font-size="14.00">Count: 0</text>
<text text-anchor="middle" x="369.84" y="-962.05" font-family="Times New Roman,serif" font-size="14.00">Normalized count: NaN</text>
<text text-anchor="middle" x="369.84" y="-947.05" font-family="Times New Roman,serif" font-size="14.00">Samples weight: 0.00</text>
</g>
<!-- BB2&#45;&gt;BB4 -->
<g id="edge4" class="edge">
<title>BB2&#45;&gt;BB4</title>
<path fill="none" stroke="black" d="M445.25,-1060.35C435.59,-1049.32 425.15,-1037.39 415.19,-1026.03"/>
<polygon fill="black" stroke="black" points="417.62,-1023.49 408.4,-1018.27 412.36,-1028.1 417.62,-1023.49"/>
</g>
<!-- BB3&#45;&gt;BB4 -->
<g id="edge5" class="edge">
<title>BB3&#45;&gt;BB4</title>
<path fill="none" stroke="black" d="M295.1,-1060.35C304.67,-1049.32 315.03,-1037.39 324.89,-1026.03"/>
<polygon fill="black" stroke="black" points="327.71,-1028.12 331.63,-1018.27 322.43,-1023.53 327.71,-1028.12"/>
</g>
<!-- BB5 -->
<g id="node6" class="node">
<title>BB5</title>
<ellipse fill="none" stroke="black" cx="483.84" cy="-841.08" rx="104.8" ry="48.17"/>
<text text-anchor="middle" x="483.84" y="-859.88" font-family="Times New Roman,serif" font-size="14.00">[2f..34)</text>
<text text-anchor="middle" x="483.84" y="-844.88" font-family="Times New Roman,serif" font-size="14.00">Count: 0</text>
<text text-anchor="middle" x="483.84" y="-829.88" font-family="Times New Roman,serif" font-size="14.00">Normalized count: NaN</text>
<text text-anchor="middle" x="483.84" y="-814.88" font-family="Times New Roman,serif" font-size="14.00">Samples weight: 0.00</text>
</g>
<!-- BB4&#45;&gt;BB5 -->
<g id="edge7" class="edge">
<title>BB4&#45;&gt;BB5</title>
<path fill="none" stroke="black" d="M408.44,-928.18C418.1,-917.15 428.54,-905.23 438.49,-893.86"/>
<polygon fill="black" stroke="black" points="441.33,-895.93 445.29,-886.11 436.07,-891.32 441.33,-895.93"/>
</g>
<!-- BB6 -->
<g id="node7" class="node">
<title>BB6</title>
<ellipse fill="none" stroke="black" cx="256.84" cy="-841.08" rx="104.8" ry="48.17"/>
<text text-anchor="middle" x="256.84" y="-859.88" font-family="Times New Roman,serif" font-size="14.00">[34..35)</text>
<text text-anchor="middle" x="256.84" y="-844.88" font-family="Times New Roman,serif" font-size="14.00">Count: 0</text>
<text text-anchor="middle" x="256.84" y="-829.88" font-family="Times New Roman,serif" font-size="14.00">Normalized count: NaN</text>
<text text-anchor="middle" x="256.84" y="-814.88" font-family="Times New Roman,serif" font-size="14.00">Samples weight: 0.00</text>
</g>
<!-- BB4&#45;&gt;BB6 -->
<g id="edge6" class="edge">
<title>BB4&#45;&gt;BB6</title>
<path fill="none" stroke="black" d="M331.59,-928.18C322.02,-917.15 311.66,-905.23 301.8,-893.86"/>
<polygon fill="black" stroke="black" points="304.26,-891.36 295.06,-886.11 298.97,-895.95 304.26,-891.36"/>
</g>
<!-- BB7 -->
<g id="node8" class="node">
<title>BB7</title>
<ellipse fill="none" stroke="black" cx="359.84" cy="-708.92" rx="104.8" ry="48.17"/>
<text text-anchor="middle" x="359.84" y="-727.72" font-family="Times New Roman,serif" font-size="14.00">[35..3b)</text>
<text text-anchor="middle" x="359.84" y="-712.72" font-family="Times New Roman,serif" font-size="14.00">Count: 0</text>
<text text-anchor="middle" x="359.84" y="-697.72" font-family="Times New Roman,serif" font-size="14.00">Normalized count: NaN</text>
<text text-anchor="middle" x="359.84" y="-682.72" font-family="Times New Roman,serif" font-size="14.00">Samples weight: 0.00</text>
</g>
<!-- BB5&#45;&gt;BB7 -->
<g id="edge8" class="edge">
<title>BB5&#45;&gt;BB7</title>
<path fill="none" stroke="black" d="M442.55,-796.74C431.59,-785.22 419.64,-772.69 408.33,-760.81"/>
<polygon fill="black" stroke="black" points="410.81,-758.34 401.38,-753.51 405.74,-763.17 410.81,-758.34"/>
</g>
<!-- BB6&#45;&gt;BB7 -->
<g id="edge9" class="edge">
<title>BB6&#45;&gt;BB7</title>
<path fill="none" stroke="black" d="M292,-795.65C300.44,-784.98 309.54,-773.49 318.24,-762.49"/>
<polygon fill="black" stroke="black" points="321.03,-764.6 324.49,-754.59 315.54,-760.26 321.03,-764.6"/>
</g>
<!-- BB14 -->
<g id="node15" class="node">
<title>BB14</title>
<ellipse fill="none" stroke="black" cx="359.84" cy="-576.75" rx="113.69" ry="48.17"/>
<text text-anchor="middle" x="359.84" y="-595.55" font-family="Times New Roman,serif" font-size="14.00">[93..99)</text>
<text text-anchor="middle" x="359.84" y="-580.55" font-family="Times New Roman,serif" font-size="14.00">Count: 5</text>
<text text-anchor="middle" x="359.84" y="-565.55" font-family="Times New Roman,serif" font-size="14.00">Normalized count: Infinity</text>
<text text-anchor="middle" x="359.84" y="-550.55" font-family="Times New Roman,serif" font-size="14.00">Samples weight: 0.01</text>
</g>
<!-- BB7&#45;&gt;BB14 -->
<g id="edge10" class="edge">
<title>BB7&#45;&gt;BB14</title>
<path fill="none" stroke="black" d="M359.84,-660.55C359.84,-652.29 359.84,-643.6 359.84,-635.1"/>
<polygon fill="black" stroke="black" points="363.34,-634.86 359.84,-624.86 356.34,-634.86 363.34,-634.86"/>
</g>
<!-- BB8 -->
<g id="node9" class="node">
<title>BB8</title>
<ellipse fill="none" stroke="black" cx="359.84" cy="-444.58" rx="113.69" ry="48.17"/>
<text text-anchor="middle" x="359.84" y="-463.38" font-family="Times New Roman,serif" font-size="14.00">[3b..4c)</text>
<text text-anchor="middle" x="359.84" y="-448.38" font-family="Times New Roman,serif" font-size="14.00">Count: 357</text>
<text text-anchor="middle" x="359.84" y="-433.38" font-family="Times New Roman,serif" font-size="14.00">Normalized count: Infinity</text>
<text text-anchor="middle" x="359.84" y="-418.38" font-family="Times New Roman,serif" font-size="14.00">Samples weight: 0.57</text>
</g>
<!-- BB9 -->
<g id="node10" class="node">
<title>BB9</title>
<ellipse fill="none" stroke="black" cx="113.84" cy="-312.42" rx="113.69" ry="48.17"/>
<text text-anchor="middle" x="113.84" y="-331.22" font-family="Times New Roman,serif" font-size="14.00">[4c..59)</text>
<text text-anchor="middle" x="113.84" y="-316.22" font-family="Times New Roman,serif" font-size="14.00">Count: 141</text>
<text text-anchor="middle" x="113.84" y="-301.22" font-family="Times New Roman,serif" font-size="14.00">Normalized count: Infinity</text>
<text text-anchor="middle" x="113.84" y="-286.22" font-family="Times New Roman,serif" font-size="14.00">Samples weight: 0.22</text>
</g>
<!-- BB8&#45;&gt;BB9 -->
<g id="edge12" class="edge">
<title>BB8&#45;&gt;BB9</title>
<path fill="none" stroke="black" d="M289.68,-406.46C259.56,-390.52 224.23,-371.82 193.17,-355.39"/>
<polygon fill="black" stroke="black" points="194.58,-352.18 184.1,-350.59 191.3,-358.36 194.58,-352.18"/>
</g>
<!-- BB10 -->
<g id="node11" class="node">
<title>BB10</title>
<ellipse fill="none" stroke="black" cx="359.84" cy="-312.42" rx="113.69" ry="48.17"/>
<text text-anchor="middle" x="359.84" y="-331.22" font-family="Times New Roman,serif" font-size="14.00">[59..5d)</text>
<text text-anchor="middle" x="359.84" y="-316.22" font-family="Times New Roman,serif" font-size="14.00">Count: 57</text>
<text text-anchor="middle" x="359.84" y="-301.22" font-family="Times New Roman,serif" font-size="14.00">Normalized count: Infinity</text>
<text text-anchor="middle" x="359.84" y="-286.22" font-family="Times New Roman,serif" font-size="14.00">Samples weight: 0.09</text>
</g>
<!-- BB8&#45;&gt;BB10 -->
<g id="edge11" class="edge">
<title>BB8&#45;&gt;BB10</title>
<path fill="none" stroke="black" d="M359.84,-396.22C359.84,-387.95 359.84,-379.27 359.84,-370.77"/>
<polygon fill="black" stroke="black" points="363.34,-370.52 359.84,-360.52 356.34,-370.52 363.34,-370.52"/>
</g>
<!-- BB9&#45;&gt;BB10 -->
<g id="edge13" class="edge">
<title>BB9&#45;&gt;BB10</title>
<path fill="none" stroke="black" d="M227.72,-312.42C230.35,-312.42 232.98,-312.42 235.62,-312.42"/>
<polygon fill="black" stroke="black" points="235.78,-315.92 245.78,-312.42 235.78,-308.92 235.78,-315.92"/>
</g>
<!-- BB11 -->
<g id="node12" class="node">
<title>BB11</title>
<ellipse fill="none" stroke="black" cx="255.84" cy="-180.25" rx="113.69" ry="48.17"/>
<text text-anchor="middle" x="255.84" y="-199.05" font-family="Times New Roman,serif" font-size="14.00">[5d..77)</text>
<text text-anchor="middle" x="255.84" y="-184.05" font-family="Times New Roman,serif" font-size="14.00">Count: 16</text>
<text text-anchor="middle" x="255.84" y="-169.05" font-family="Times New Roman,serif" font-size="14.00">Normalized count: Infinity</text>
<text text-anchor="middle" x="255.84" y="-154.05" font-family="Times New Roman,serif" font-size="14.00">Samples weight: 0.03</text>
</g>
<!-- BB10&#45;&gt;BB11 -->
<g id="edge15" class="edge">
<title>BB10&#45;&gt;BB11</title>
<path fill="none" stroke="black" d="M324.05,-266.62C315.72,-256.19 306.77,-244.99 298.18,-234.24"/>
<polygon fill="black" stroke="black" points="300.68,-231.76 291.7,-226.13 295.21,-236.13 300.68,-231.76"/>
</g>
<!-- BB13 -->
<g id="node14" class="node">
<title>BB13</title>
<ellipse fill="none" stroke="black" cx="501.84" cy="-180.25" rx="113.69" ry="48.17"/>
<text text-anchor="middle" x="501.84" y="-199.05" font-family="Times New Roman,serif" font-size="14.00">[8d..93)</text>
<text text-anchor="middle" x="501.84" y="-184.05" font-family="Times New Roman,serif" font-size="14.00">Count: 52</text>
<text text-anchor="middle" x="501.84" y="-169.05" font-family="Times New Roman,serif" font-size="14.00">Normalized count: Infinity</text>
<text text-anchor="middle" x="501.84" y="-154.05" font-family="Times New Roman,serif" font-size="14.00">Samples weight: 0.08</text>
</g>
<!-- BB10&#45;&gt;BB13 -->
<g id="edge14" class="edge">
<title>BB10&#45;&gt;BB13</title>
<path fill="none" stroke="black" d="M406.73,-268.43C419.82,-256.44 434.15,-243.3 447.62,-230.95"/>
<polygon fill="black" stroke="black" points="450,-233.52 455,-224.19 445.27,-228.36 450,-233.52"/>
</g>
<!-- BB12 -->
<g id="node13" class="node">
<title>BB12</title>
<ellipse fill="none" stroke="black" cx="378.84" cy="-48.08" rx="113.69" ry="48.17"/>
<text text-anchor="middle" x="378.84" y="-66.88" font-family="Times New Roman,serif" font-size="14.00">[77..8d)</text>
<text text-anchor="middle" x="378.84" y="-51.88" font-family="Times New Roman,serif" font-size="14.00">Count: 2</text>
<text text-anchor="middle" x="378.84" y="-36.88" font-family="Times New Roman,serif" font-size="14.00">Normalized count: Infinity</text>
<text text-anchor="middle" x="378.84" y="-21.88" font-family="Times New Roman,serif" font-size="14.00">Samples weight: 0.00</text>
</g>
<!-- BB11&#45;&gt;BB12 -->
<g id="edge17" class="edge">
<title>BB11&#45;&gt;BB12</title>
<path fill="none" stroke="black" d="M297.49,-135.18C308.01,-124.05 319.39,-112 330.22,-100.54"/>
<polygon fill="black" stroke="black" points="332.92,-102.78 337.24,-93.11 327.83,-97.97 332.92,-102.78"/>
</g>
<!-- BB11&#45;&gt;BB13 -->
<g id="edge16" class="edge">
<title>BB11&#45;&gt;BB13</title>
<path fill="none" stroke="black" d="M369.72,-180.25C372.35,-180.25 374.98,-180.25 377.62,-180.25"/>
<polygon fill="black" stroke="black" points="377.78,-183.75 387.78,-180.25 377.78,-176.75 377.78,-183.75"/>
</g>
<!-- BB12&#45;&gt;BB13 -->
<g id="edge18" class="edge">
<title>BB12&#45;&gt;BB13</title>
<path fill="none" stroke="black" d="M420.44,-93.11C430.96,-104.24 442.35,-116.29 453.18,-127.75"/>
<polygon fill="black" stroke="black" points="450.79,-130.32 460.2,-135.18 455.88,-125.51 450.79,-130.32"/>
</g>
<!-- BB13&#45;&gt;BB14 -->
<g id="edge19" class="edge">
<title>BB13&#45;&gt;BB14</title>
<path fill="none" stroke="black" d="M511.16,-228.4C521.29,-292.74 530.32,-409.53 482.84,-492.67 473.32,-509.34 458.92,-523.35 443.29,-534.83"/>
<polygon fill="black" stroke="black" points="441.22,-532 435.03,-540.6 445.23,-537.74 441.22,-532"/>
</g>
<!-- BB14&#45;&gt;BB8 -->
<g id="edge20" class="edge">
<title>BB14&#45;&gt;BB8</title>
<path fill="none" stroke="black" d="M359.84,-528.39C359.84,-520.12 359.84,-511.44 359.84,-502.93"/>
<polygon fill="black" stroke="black" points="363.34,-502.69 359.84,-492.69 356.34,-502.69 363.34,-502.69"/>
</g>
<!-- BB15 -->
<g id="node16" class="node">
<title>BB15</title>
<ellipse fill="none" stroke="black" cx="123.84" cy="-444.58" rx="104.8" ry="48.17"/>
<text text-anchor="middle" x="123.84" y="-463.38" font-family="Times New Roman,serif" font-size="14.00">[99..9d)</text>
<text text-anchor="middle" x="123.84" y="-448.38" font-family="Times New Roman,serif" font-size="14.00">Count: 0</text>
<text text-anchor="middle" x="123.84" y="-433.38" font-family="Times New Roman,serif" font-size="14.00">Normalized count: NaN</text>
<text text-anchor="middle" x="123.84" y="-418.38" font-family="Times New Roman,serif" font-size="14.00">Samples weight: 0.00</text>
</g>
<!-- BB14&#45;&gt;BB15 -->
<g id="edge21" class="edge">
<title>BB14&#45;&gt;BB15</title>
<path fill="none" stroke="black" d="M291.58,-538.1C262.59,-522.11 228.7,-503.41 198.99,-487.03"/>
<polygon fill="black" stroke="black" points="200.37,-483.79 189.92,-482.03 196.99,-489.92 200.37,-483.79"/>
</g>
<!-- BB15&#45;&gt;BB16 -->
<g id="edge22" class="edge">
<title>BB15&#45;&gt;BB16</title>
<path fill="none" stroke="black" d="M123.84,-492.97C123.84,-545.51 123.84,-632.77 123.84,-707.92 123.84,-1106.42 123.84,-1106.42 123.84,-1106.42 123.84,-1206.65 220.61,-1284.18 293.01,-1328.16"/>
<polygon fill="black" stroke="black" points="291.33,-1331.24 301.71,-1333.36 294.92,-1325.23 291.33,-1331.24"/>
</g>
<!-- BB16&#45;&gt;BB1 -->
<g id="edge23" class="edge">
<title>BB16&#45;&gt;BB1</title>
<path fill="none" stroke="black" d="M370.84,-1321.39C370.84,-1313.12 370.84,-1304.44 370.84,-1295.93"/>
<polygon fill="black" stroke="black" points="374.34,-1295.69 370.84,-1285.69 367.34,-1295.69 374.34,-1295.69"/>
</g>
<!-- BB17 -->
<g id="node18" class="node">
<title>BB17</title>
<ellipse fill="none" stroke="black" cx="710.84" cy="-1237.58" rx="104.8" ry="48.17"/>
<text text-anchor="middle" x="710.84" y="-1256.38" font-family="Times New Roman,serif" font-size="14.00">[a4..a8)</text>
<text text-anchor="middle" x="710.84" y="-1241.38" font-family="Times New Roman,serif" font-size="14.00">Count: 0</text>
<text text-anchor="middle" x="710.84" y="-1226.38" font-family="Times New Roman,serif" font-size="14.00">Normalized count: NaN</text>
<text text-anchor="middle" x="710.84" y="-1211.38" font-family="Times New Roman,serif" font-size="14.00">Samples weight: 0.00</text>
</g>
<!-- BB16&#45;&gt;BB17 -->
<g id="edge24" class="edge">
<title>BB16&#45;&gt;BB17</title>
<path fill="none" stroke="black" d="M450.56,-1338.23C501.94,-1318.56 568.82,-1292.95 621.93,-1272.62"/>
<polygon fill="black" stroke="black" points="623.25,-1275.87 631.33,-1269.02 620.74,-1269.33 623.25,-1275.87"/>
</g>
<!-- BB18 -->
<g id="node19" class="node">
<title>BB18</title>
<ellipse fill="none" stroke="black" cx="710.84" cy="-1105.42" rx="104.8" ry="48.17"/>
<text text-anchor="middle" x="710.84" y="-1124.22" font-family="Times New Roman,serif" font-size="14.00">[a8..b5)</text>
<text text-anchor="middle" x="710.84" y="-1109.22" font-family="Times New Roman,serif" font-size="14.00">Count: 0</text>
<text text-anchor="middle" x="710.84" y="-1094.22" font-family="Times New Roman,serif" font-size="14.00">Normalized count: NaN</text>
<text text-anchor="middle" x="710.84" y="-1079.22" font-family="Times New Roman,serif" font-size="14.00">Samples weight: 0.00</text>
</g>
<!-- BB17&#45;&gt;BB18 -->
<g id="edge26" class="edge">
<title>BB17&#45;&gt;BB18</title>
<path fill="none" stroke="black" d="M710.84,-1189.22C710.84,-1180.95 710.84,-1172.27 710.84,-1163.77"/>
<polygon fill="black" stroke="black" points="714.34,-1163.52 710.84,-1153.52 707.34,-1163.52 714.34,-1163.52"/>
</g>
<!-- BB21 -->
<g id="node22" class="node">
<title>BB21</title>
<ellipse fill="none" stroke="black" cx="937.84" cy="-1105.42" rx="104.8" ry="48.17"/>
<text text-anchor="middle" x="937.84" y="-1124.22" font-family="Times New Roman,serif" font-size="14.00">[cf..d0)</text>
<text text-anchor="middle" x="937.84" y="-1109.22" font-family="Times New Roman,serif" font-size="14.00">Count: 0</text>
<text text-anchor="middle" x="937.84" y="-1094.22" font-family="Times New Roman,serif" font-size="14.00">Normalized count: NaN</text>
<text text-anchor="middle" x="937.84" y="-1079.22" font-family="Times New Roman,serif" font-size="14.00">Samples weight: 0.00</text>
</g>
<!-- BB17&#45;&gt;BB21 -->
<g id="edge25" class="edge">
<title>BB17&#45;&gt;BB21</title>
<path fill="none" stroke="black" d="M775.29,-1199.63C803.08,-1183.69 835.74,-1164.96 864.46,-1148.49"/>
<polygon fill="black" stroke="black" points="866.31,-1151.47 873.24,-1143.46 862.83,-1145.4 866.31,-1151.47"/>
</g>
<!-- BB19 -->
<g id="node20" class="node">
<title>BB19</title>
<ellipse fill="none" stroke="black" cx="710.84" cy="-973.25" rx="104.8" ry="48.17"/>
<text text-anchor="middle" x="710.84" y="-992.05" font-family="Times New Roman,serif" font-size="14.00">[b5..c2)</text>
<text text-anchor="middle" x="710.84" y="-977.05" font-family="Times New Roman,serif" font-size="14.00">Count: 0</text>
<text text-anchor="middle" x="710.84" y="-962.05" font-family="Times New Roman,serif" font-size="14.00">Normalized count: NaN</text>
<text text-anchor="middle" x="710.84" y="-947.05" font-family="Times New Roman,serif" font-size="14.00">Samples weight: 0.00</text>
</g>
<!-- BB18&#45;&gt;BB19 -->
<g id="edge28" class="edge">
<title>BB18&#45;&gt;BB19</title>
<path fill="none" stroke="black" d="M710.84,-1057.05C710.84,-1048.79 710.84,-1040.1 710.84,-1031.6"/>
<polygon fill="black" stroke="black" points="714.34,-1031.36 710.84,-1021.36 707.34,-1031.36 714.34,-1031.36"/>
</g>
<!-- BB20 -->
<g id="node21" class="node">
<title>BB20</title>
<ellipse fill="none" stroke="black" cx="937.84" cy="-973.25" rx="104.8" ry="48.17"/>
<text text-anchor="middle" x="937.84" y="-992.05" font-family="Times New Roman,serif" font-size="14.00">[c2..cf)</text>
<text text-anchor="middle" x="937.84" y="-977.05" font-family="Times New Roman,serif" font-size="14.00">Count: 0</text>
<text text-anchor="middle" x="937.84" y="-962.05" font-family="Times New Roman,serif" font-size="14.00">Normalized count: NaN</text>
<text text-anchor="middle" x="937.84" y="-947.05" font-family="Times New Roman,serif" font-size="14.00">Samples weight: 0.00</text>
</g>
<!-- BB18&#45;&gt;BB20 -->
<g id="edge27" class="edge">
<title>BB18&#45;&gt;BB20</title>
<path fill="none" stroke="black" d="M775.29,-1067.46C803.08,-1051.52 835.74,-1032.8 864.46,-1016.33"/>
<polygon fill="black" stroke="black" points="866.31,-1019.3 873.24,-1011.29 862.83,-1013.23 866.31,-1019.3"/>
</g>
<!-- BB19&#45;&gt;BB20 -->
<g id="edge29" class="edge">
<title>BB19&#45;&gt;BB20</title>
<path fill="none" stroke="black" d="M815.92,-973.25C818.24,-973.25 820.56,-973.25 822.89,-973.25"/>
<polygon fill="black" stroke="black" points="823.07,-976.75 833.07,-973.25 823.07,-969.75 823.07,-976.75"/>
</g>
<!-- BB20&#45;&gt;BB21 -->
<g id="edge30" class="edge">
<title>BB20&#45;&gt;BB21</title>
<path fill="none" stroke="black" d="M937.84,-1021.36C937.84,-1029.62 937.84,-1038.3 937.84,-1046.8"/>
<polygon fill="black" stroke="black" points="934.34,-1047.05 937.84,-1057.05 941.34,-1047.05 934.34,-1047.05"/>
</g>
</g>
</svg>
