<?xml version="1.0" encoding="UTF-8" standalone="no"?>
<!DOCTYPE svg PUBLIC "-//W3C//DTD SVG 1.1//EN"
 "http://www.w3.org/Graphics/SVG/1.1/DTD/svg11.dtd">
<!-- Generated by graphviz version 2.47.0 (20210316.0004)
 -->
<!-- Title: G Pages: 1 -->
<svg width="1134pt" height="1161pt"
 viewBox="0.00 0.00 1134.30 1161.50" xmlns="http://www.w3.org/2000/svg" xmlns:xlink="http://www.w3.org/1999/xlink">
<g id="graph0" class="graph" transform="scale(1 1) rotate(0) translate(4 1157.5)">
<title>G</title>
<polygon fill="white" stroke="transparent" points="-4,4 -4,-1157.5 1130.3,-1157.5 1130.3,4 -4,4"/>
<!-- BB0 -->
<g id="node1" class="node">
<title>BB0</title>
<ellipse fill="none" stroke="black" cx="104.65" cy="-1105.42" rx="104.8" ry="48.17"/>
<text text-anchor="middle" x="104.65" y="-1124.22" font-family="Times New Roman,serif" font-size="14.00">[0..17)</text>
<text text-anchor="middle" x="104.65" y="-1109.22" font-family="Times New Roman,serif" font-size="14.00">Count: 0</text>
<text text-anchor="middle" x="104.65" y="-1094.22" font-family="Times New Roman,serif" font-size="14.00">Normalized count: NaN</text>
<text text-anchor="middle" x="104.65" y="-1079.22" font-family="Times New Roman,serif" font-size="14.00">Samples weight: 0.00</text>
</g>
<!-- BB2 -->
<g id="node3" class="node">
<title>BB2</title>
<ellipse fill="none" stroke="black" cx="104.65" cy="-973.25" rx="104.8" ry="48.17"/>
<text text-anchor="middle" x="104.65" y="-992.05" font-family="Times New Roman,serif" font-size="14.00">[24..2d)</text>
<text text-anchor="middle" x="104.65" y="-977.05" font-family="Times New Roman,serif" font-size="14.00">Count: 0</text>
<text text-anchor="middle" x="104.65" y="-962.05" font-family="Times New Roman,serif" font-size="14.00">Normalized count: NaN</text>
<text text-anchor="middle" x="104.65" y="-947.05" font-family="Times New Roman,serif" font-size="14.00">Samples weight: 0.00</text>
</g>
<!-- BB0&#45;&gt;BB2 -->
<g id="edge1" class="edge">
<title>BB0&#45;&gt;BB2</title>
<path fill="none" stroke="black" d="M104.65,-1057.05C104.65,-1048.79 104.65,-1040.1 104.65,-1031.6"/>
<polygon fill="black" stroke="black" points="108.15,-1031.36 104.65,-1021.36 101.15,-1031.36 108.15,-1031.36"/>
</g>
<!-- BB1 -->
<g id="node2" class="node">
<title>BB1</title>
<ellipse fill="none" stroke="black" cx="104.65" cy="-841.08" rx="104.8" ry="48.17"/>
<text text-anchor="middle" x="104.65" y="-859.88" font-family="Times New Roman,serif" font-size="14.00">[17..24)</text>
<text text-anchor="middle" x="104.65" y="-844.88" font-family="Times New Roman,serif" font-size="14.00">Count: 0</text>
<text text-anchor="middle" x="104.65" y="-829.88" font-family="Times New Roman,serif" font-size="14.00">Normalized count: NaN</text>
<text text-anchor="middle" x="104.65" y="-814.88" font-family="Times New Roman,serif" font-size="14.00">Samples weight: 0.00</text>
</g>
<!-- BB1&#45;&gt;BB2 -->
<g id="edge2" class="edge">
<title>BB1&#45;&gt;BB2</title>
<path fill="none" stroke="black" d="M111.17,-889.44C111.39,-897.74 111.45,-906.45 111.36,-914.98"/>
<polygon fill="black" stroke="black" points="107.85,-915.19 111.16,-925.26 114.85,-915.32 107.85,-915.19"/>
</g>
<!-- BB2&#45;&gt;BB1 -->
<g id="edge3" class="edge">
<title>BB2&#45;&gt;BB1</title>
<path fill="none" stroke="black" d="M98.14,-925.26C97.91,-916.88 97.85,-908.07 97.94,-899.45"/>
<polygon fill="black" stroke="black" points="101.44,-899.51 98.13,-889.44 94.44,-899.38 101.44,-899.51"/>
</g>
<!-- BB3 -->
<g id="node4" class="node">
<title>BB3</title>
<ellipse fill="none" stroke="black" cx="331.65" cy="-841.08" rx="104.8" ry="48.17"/>
<text text-anchor="middle" x="331.65" y="-859.88" font-family="Times New Roman,serif" font-size="14.00">[2d..38)</text>
<text text-anchor="middle" x="331.65" y="-844.88" font-family="Times New Roman,serif" font-size="14.00">Count: 0</text>
<text text-anchor="middle" x="331.65" y="-829.88" font-family="Times New Roman,serif" font-size="14.00">Normalized count: NaN</text>
<text text-anchor="middle" x="331.65" y="-814.88" font-family="Times New Roman,serif" font-size="14.00">Samples weight: 0.00</text>
</g>
<!-- BB2&#45;&gt;BB3 -->
<g id="edge4" class="edge">
<title>BB2&#45;&gt;BB3</title>
<path fill="none" stroke="black" d="M169.09,-935.3C196.89,-919.36 229.55,-900.63 258.27,-884.16"/>
<polygon fill="black" stroke="black" points="260.11,-887.14 267.05,-879.13 256.63,-881.07 260.11,-887.14"/>
</g>
<!-- BB5 -->
<g id="node6" class="node">
<title>BB5</title>
<ellipse fill="none" stroke="black" cx="331.65" cy="-708.92" rx="113.69" ry="48.17"/>
<text text-anchor="middle" x="331.65" y="-727.72" font-family="Times New Roman,serif" font-size="14.00">[4c..53)</text>
<text text-anchor="middle" x="331.65" y="-712.72" font-family="Times New Roman,serif" font-size="14.00">Count: 182</text>
<text text-anchor="middle" x="331.65" y="-697.72" font-family="Times New Roman,serif" font-size="14.00">Normalized count: Infinity</text>
<text text-anchor="middle" x="331.65" y="-682.72" font-family="Times New Roman,serif" font-size="14.00">Samples weight: 0.19</text>
</g>
<!-- BB3&#45;&gt;BB5 -->
<g id="edge5" class="edge">
<title>BB3&#45;&gt;BB5</title>
<path fill="none" stroke="black" d="M331.65,-792.72C331.65,-784.45 331.65,-775.77 331.65,-767.27"/>
<polygon fill="black" stroke="black" points="335.15,-767.02 331.65,-757.02 328.15,-767.02 335.15,-767.02"/>
</g>
<!-- BB4 -->
<g id="node5" class="node">
<title>BB4</title>
<ellipse fill="none" stroke="black" cx="331.65" cy="-576.75" rx="113.69" ry="48.17"/>
<text text-anchor="middle" x="331.65" y="-595.55" font-family="Times New Roman,serif" font-size="14.00">[38..4c)</text>
<text text-anchor="middle" x="331.65" y="-580.55" font-family="Times New Roman,serif" font-size="14.00">Count: 754</text>
<text text-anchor="middle" x="331.65" y="-565.55" font-family="Times New Roman,serif" font-size="14.00">Normalized count: Infinity</text>
<text text-anchor="middle" x="331.65" y="-550.55" font-family="Times New Roman,serif" font-size="14.00">Samples weight: 0.81</text>
</g>
<!-- BB4&#45;&gt;BB5 -->
<g id="edge6" class="edge">
<title>BB4&#45;&gt;BB5</title>
<path fill="none" stroke="black" d="M338.17,-624.86C338.39,-633.12 338.45,-641.8 338.36,-650.3"/>
<polygon fill="black" stroke="black" points="334.86,-650.49 338.17,-660.55 341.86,-650.62 334.86,-650.49"/>
</g>
<!-- BB5&#45;&gt;BB4 -->
<g id="edge7" class="edge">
<title>BB5&#45;&gt;BB4</title>
<path fill="none" stroke="black" d="M325.13,-660.55C324.91,-652.29 324.85,-643.6 324.94,-635.1"/>
<polygon fill="black" stroke="black" points="328.45,-634.92 325.14,-624.86 321.45,-634.79 328.45,-634.92"/>
</g>
<!-- BB6 -->
<g id="node7" class="node">
<title>BB6</title>
<ellipse fill="none" stroke="black" cx="567.65" cy="-576.75" rx="104.8" ry="48.17"/>
<text text-anchor="middle" x="567.65" y="-595.55" font-family="Times New Roman,serif" font-size="14.00">[53..66)</text>
<text text-anchor="middle" x="567.65" y="-580.55" font-family="Times New Roman,serif" font-size="14.00">Count: 0</text>
<text text-anchor="middle" x="567.65" y="-565.55" font-family="Times New Roman,serif" font-size="14.00">Normalized count: NaN</text>
<text text-anchor="middle" x="567.65" y="-550.55" font-family="Times New Roman,serif" font-size="14.00">Samples weight: 0.00</text>
</g>
<!-- BB5&#45;&gt;BB6 -->
<g id="edge8" class="edge">
<title>BB5&#45;&gt;BB6</title>
<path fill="none" stroke="black" d="M399.91,-670.27C428.9,-654.28 462.8,-635.58 492.5,-619.2"/>
<polygon fill="black" stroke="black" points="494.51,-622.09 501.58,-614.19 491.13,-615.96 494.51,-622.09"/>
</g>
<!-- BB11 -->
<g id="node12" class="node">
<title>BB11</title>
<ellipse fill="none" stroke="black" cx="567.65" cy="-444.58" rx="104.8" ry="48.17"/>
<text text-anchor="middle" x="567.65" y="-463.38" font-family="Times New Roman,serif" font-size="14.00">[9c..a2)</text>
<text text-anchor="middle" x="567.65" y="-448.38" font-family="Times New Roman,serif" font-size="14.00">Count: 0</text>
<text text-anchor="middle" x="567.65" y="-433.38" font-family="Times New Roman,serif" font-size="14.00">Normalized count: NaN</text>
<text text-anchor="middle" x="567.65" y="-418.38" font-family="Times New Roman,serif" font-size="14.00">Samples weight: 0.00</text>
</g>
<!-- BB6&#45;&gt;BB11 -->
<g id="edge9" class="edge">
<title>BB6&#45;&gt;BB11</title>
<path fill="none" stroke="black" d="M567.65,-528.39C567.65,-520.12 567.65,-511.44 567.65,-502.93"/>
<polygon fill="black" stroke="black" points="571.15,-502.69 567.65,-492.69 564.15,-502.69 571.15,-502.69"/>
</g>
<!-- BB7 -->
<g id="node8" class="node">
<title>BB7</title>
<ellipse fill="none" stroke="black" cx="567.65" cy="-312.42" rx="104.8" ry="48.17"/>
<text text-anchor="middle" x="567.65" y="-331.22" font-family="Times New Roman,serif" font-size="14.00">[66..79)</text>
<text text-anchor="middle" x="567.65" y="-316.22" font-family="Times New Roman,serif" font-size="14.00">Count: 0</text>
<text text-anchor="middle" x="567.65" y="-301.22" font-family="Times New Roman,serif" font-size="14.00">Normalized count: NaN</text>
<text text-anchor="middle" x="567.65" y="-286.22" font-family="Times New Roman,serif" font-size="14.00">Samples weight: 0.00</text>
</g>
<!-- BB9 -->
<g id="node10" class="node">
<title>BB9</title>
<ellipse fill="none" stroke="black" cx="567.65" cy="-180.25" rx="104.8" ry="48.17"/>
<text text-anchor="middle" x="567.65" y="-199.05" font-family="Times New Roman,serif" font-size="14.00">[8e..96)</text>
<text text-anchor="middle" x="567.65" y="-184.05" font-family="Times New Roman,serif" font-size="14.00">Count: 0</text>
<text text-anchor="middle" x="567.65" y="-169.05" font-family="Times New Roman,serif" font-size="14.00">Normalized count: NaN</text>
<text text-anchor="middle" x="567.65" y="-154.05" font-family="Times New Roman,serif" font-size="14.00">Samples weight: 0.00</text>
</g>
<!-- BB7&#45;&gt;BB9 -->
<g id="edge10" class="edge">
<title>BB7&#45;&gt;BB9</title>
<path fill="none" stroke="black" d="M567.65,-264.05C567.65,-255.79 567.65,-247.1 567.65,-238.6"/>
<polygon fill="black" stroke="black" points="571.15,-238.36 567.65,-228.36 564.15,-238.36 571.15,-238.36"/>
</g>
<!-- BB8 -->
<g id="node9" class="node">
<title>BB8</title>
<ellipse fill="none" stroke="black" cx="567.65" cy="-48.08" rx="104.8" ry="48.17"/>
<text text-anchor="middle" x="567.65" y="-66.88" font-family="Times New Roman,serif" font-size="14.00">[79..8e)</text>
<text text-anchor="middle" x="567.65" y="-51.88" font-family="Times New Roman,serif" font-size="14.00">Count: 0</text>
<text text-anchor="middle" x="567.65" y="-36.88" font-family="Times New Roman,serif" font-size="14.00">Normalized count: NaN</text>
<text text-anchor="middle" x="567.65" y="-21.88" font-family="Times New Roman,serif" font-size="14.00">Samples weight: 0.00</text>
</g>
<!-- BB8&#45;&gt;BB9 -->
<g id="edge11" class="edge">
<title>BB8&#45;&gt;BB9</title>
<path fill="none" stroke="black" d="M574.17,-96.44C574.39,-104.74 574.45,-113.45 574.36,-121.98"/>
<polygon fill="black" stroke="black" points="570.85,-122.19 574.16,-132.26 577.85,-122.32 570.85,-122.19"/>
</g>
<!-- BB9&#45;&gt;BB8 -->
<g id="edge12" class="edge">
<title>BB9&#45;&gt;BB8</title>
<path fill="none" stroke="black" d="M561.14,-132.26C560.91,-123.88 560.85,-115.07 560.94,-106.45"/>
<polygon fill="black" stroke="black" points="564.44,-106.51 561.13,-96.44 557.44,-106.38 564.44,-106.51"/>
</g>
<!-- BB10 -->
<g id="node11" class="node">
<title>BB10</title>
<ellipse fill="none" stroke="black" cx="340.65" cy="-48.08" rx="104.8" ry="48.17"/>
<text text-anchor="middle" x="340.65" y="-66.88" font-family="Times New Roman,serif" font-size="14.00">[96..9c)</text>
<text text-anchor="middle" x="340.65" y="-51.88" font-family="Times New Roman,serif" font-size="14.00">Count: 0</text>
<text text-anchor="middle" x="340.65" y="-36.88" font-family="Times New Roman,serif" font-size="14.00">Normalized count: NaN</text>
<text text-anchor="middle" x="340.65" y="-21.88" font-family="Times New Roman,serif" font-size="14.00">Samples weight: 0.00</text>
</g>
<!-- BB9&#45;&gt;BB10 -->
<g id="edge13" class="edge">
<title>BB9&#45;&gt;BB10</title>
<path fill="none" stroke="black" d="M503.21,-142.3C475.41,-126.36 442.76,-107.63 414.03,-91.16"/>
<polygon fill="black" stroke="black" points="415.67,-88.07 405.25,-86.13 412.19,-94.14 415.67,-88.07"/>
</g>
<!-- BB10&#45;&gt;BB11 -->
<g id="edge14" class="edge">
<title>BB10&#45;&gt;BB11</title>
<path fill="none" stroke="black" d="M348.76,-96.23C361.8,-161.07 392.4,-279.01 453.65,-360.5 464.89,-375.45 479.56,-388.87 494.63,-400.35"/>
<polygon fill="black" stroke="black" points="492.89,-403.41 503.02,-406.52 497.04,-397.78 492.89,-403.41"/>
</g>
<!-- BB11&#45;&gt;BB7 -->
<g id="edge15" class="edge">
<title>BB11&#45;&gt;BB7</title>
<path fill="none" stroke="black" d="M567.65,-396.22C567.65,-387.95 567.65,-379.27 567.65,-370.77"/>
<polygon fill="black" stroke="black" points="571.15,-370.52 567.65,-360.52 564.15,-370.52 571.15,-370.52"/>
</g>
<!-- BB12 -->
<g id="node13" class="node">
<title>BB12</title>
<ellipse fill="none" stroke="black" cx="794.65" cy="-312.42" rx="104.8" ry="48.17"/>
<text text-anchor="middle" x="794.65" y="-331.22" font-family="Times New Roman,serif" font-size="14.00">[a2..b5)</text>
<text text-anchor="middle" x="794.65" y="-316.22" font-family="Times New Roman,serif" font-size="14.00">Count: 0</text>
<text text-anchor="middle" x="794.65" y="-301.22" font-family="Times New Roman,serif" font-size="14.00">Normalized count: NaN</text>
<text text-anchor="middle" x="794.65" y="-286.22" font-family="Times New Roman,serif" font-size="14.00">Samples weight: 0.00</text>
</g>
<!-- BB11&#45;&gt;BB12 -->
<g id="edge16" class="edge">
<title>BB11&#45;&gt;BB12</title>
<path fill="none" stroke="black" d="M632.09,-406.63C659.89,-390.69 692.55,-371.97 721.27,-355.49"/>
<polygon fill="black" stroke="black" points="723.11,-358.47 730.05,-350.46 719.63,-352.4 723.11,-358.47"/>
</g>
<!-- BB14 -->
<g id="node15" class="node">
<title>BB14</title>
<ellipse fill="none" stroke="black" cx="794.65" cy="-180.25" rx="104.8" ry="48.17"/>
<text text-anchor="middle" x="794.65" y="-199.05" font-family="Times New Roman,serif" font-size="14.00">[ca..d3)</text>
<text text-anchor="middle" x="794.65" y="-184.05" font-family="Times New Roman,serif" font-size="14.00">Count: 0</text>
<text text-anchor="middle" x="794.65" y="-169.05" font-family="Times New Roman,serif" font-size="14.00">Normalized count: NaN</text>
<text text-anchor="middle" x="794.65" y="-154.05" font-family="Times New Roman,serif" font-size="14.00">Samples weight: 0.00</text>
</g>
<!-- BB12&#45;&gt;BB14 -->
<g id="edge17" class="edge">
<title>BB12&#45;&gt;BB14</title>
<path fill="none" stroke="black" d="M794.65,-264.05C794.65,-255.79 794.65,-247.1 794.65,-238.6"/>
<polygon fill="black" stroke="black" points="798.15,-238.36 794.65,-228.36 791.15,-238.36 798.15,-238.36"/>
</g>
<!-- BB13 -->
<g id="node14" class="node">
<title>BB13</title>
<ellipse fill="none" stroke="black" cx="794.65" cy="-48.08" rx="104.8" ry="48.17"/>
<text text-anchor="middle" x="794.65" y="-66.88" font-family="Times New Roman,serif" font-size="14.00">[b5..ca)</text>
<text text-anchor="middle" x="794.65" y="-51.88" font-family="Times New Roman,serif" font-size="14.00">Count: 0</text>
<text text-anchor="middle" x="794.65" y="-36.88" font-family="Times New Roman,serif" font-size="14.00">Normalized count: NaN</text>
<text text-anchor="middle" x="794.65" y="-21.88" font-family="Times New Roman,serif" font-size="14.00">Samples weight: 0.00</text>
</g>
<!-- BB13&#45;&gt;BB14 -->
<g id="edge18" class="edge">
<title>BB13&#45;&gt;BB14</title>
<path fill="none" stroke="black" d="M801.17,-96.44C801.39,-104.74 801.45,-113.45 801.36,-121.98"/>
<polygon fill="black" stroke="black" points="797.85,-122.19 801.16,-132.26 804.85,-122.32 797.85,-122.19"/>
</g>
<!-- BB14&#45;&gt;BB13 -->
<g id="edge19" class="edge">
<title>BB14&#45;&gt;BB13</title>
<path fill="none" stroke="black" d="M788.14,-132.26C787.91,-123.88 787.85,-115.07 787.94,-106.45"/>
<polygon fill="black" stroke="black" points="791.44,-106.51 788.13,-96.44 784.44,-106.38 791.44,-106.51"/>
</g>
<!-- BB15 -->
<g id="node16" class="node">
<title>BB15</title>
<ellipse fill="none" stroke="black" cx="1021.65" cy="-48.08" rx="104.8" ry="48.17"/>
<text text-anchor="middle" x="1021.65" y="-66.88" font-family="Times New Roman,serif" font-size="14.00">[d3..d5)</text>
<text text-anchor="middle" x="1021.65" y="-51.88" font-family="Times New Roman,serif" font-size="14.00">Count: 0</text>
<text text-anchor="middle" x="1021.65" y="-36.88" font-family="Times New Roman,serif" font-size="14.00">Normalized count: NaN</text>
<text text-anchor="middle" x="1021.65" y="-21.88" font-family="Times New Roman,serif" font-size="14.00">Samples weight: 0.00</text>
</g>
<!-- BB14&#45;&gt;BB15 -->
<g id="edge20" class="edge">
<title>BB14&#45;&gt;BB15</title>
<path fill="none" stroke="black" d="M859.09,-142.3C886.89,-126.36 919.55,-107.63 948.27,-91.16"/>
<polygon fill="black" stroke="black" points="950.11,-94.14 957.05,-86.13 946.63,-88.07 950.11,-94.14"/>
</g>
</g>
</svg>
