<?xml version="1.0" encoding="UTF-8" standalone="no"?>
<!DOCTYPE svg PUBLIC "-//W3C//DTD SVG 1.1//EN"
 "http://www.w3.org/Graphics/SVG/1.1/DTD/svg11.dtd">
<!-- Generated by graphviz version 2.47.0 (20210316.0004)
 -->
<!-- Title: G Pages: 1 -->
<svg width="1554pt" height="1426pt"
 viewBox="0.00 0.00 1554.33 1425.83" xmlns="http://www.w3.org/2000/svg" xmlns:xlink="http://www.w3.org/1999/xlink">
<g id="graph0" class="graph" transform="scale(1 1) rotate(0) translate(4 1421.83)">
<title>G</title>
<polygon fill="white" stroke="transparent" points="-4,4 -4,-1421.83 1550.33,-1421.83 1550.33,4 -4,4"/>
<!-- BB0 -->
<g id="node1" class="node">
<title>BB0</title>
<ellipse fill="none" stroke="black" cx="155" cy="-1369.75" rx="103.48" ry="48.17"/>
<text text-anchor="middle" x="155" y="-1388.55" font-family="Times New Roman,serif" font-size="14.00">[0..18)</text>
<text text-anchor="middle" x="155" y="-1373.55" font-family="Times New Roman,serif" font-size="14.00">Count: 3</text>
<text text-anchor="middle" x="155" y="-1358.55" font-family="Times New Roman,serif" font-size="14.00">Normalized count: 1.00</text>
<text text-anchor="middle" x="155" y="-1343.55" font-family="Times New Roman,serif" font-size="14.00">Samples weight: 0.00</text>
</g>
<!-- BB2 -->
<g id="node3" class="node">
<title>BB2</title>
<ellipse fill="none" stroke="black" cx="155" cy="-1237.58" rx="103.48" ry="48.17"/>
<text text-anchor="middle" x="155" y="-1256.38" font-family="Times New Roman,serif" font-size="14.00">[2b..39)</text>
<text text-anchor="middle" x="155" y="-1241.38" font-family="Times New Roman,serif" font-size="14.00">Count: 3</text>
<text text-anchor="middle" x="155" y="-1226.38" font-family="Times New Roman,serif" font-size="14.00">Normalized count: 1.00</text>
<text text-anchor="middle" x="155" y="-1211.38" font-family="Times New Roman,serif" font-size="14.00">Samples weight: 0.00</text>
</g>
<!-- BB0&#45;&gt;BB2 -->
<g id="edge1" class="edge">
<title>BB0&#45;&gt;BB2</title>
<path fill="none" stroke="black" d="M155,-1321.39C155,-1313.12 155,-1304.44 155,-1295.93"/>
<polygon fill="black" stroke="black" points="158.5,-1295.69 155,-1285.69 151.5,-1295.69 158.5,-1295.69"/>
</g>
<!-- BB1 -->
<g id="node2" class="node">
<title>BB1</title>
<ellipse fill="none" stroke="black" cx="155" cy="-1105.42" rx="103.48" ry="48.17"/>
<text text-anchor="middle" x="155" y="-1124.22" font-family="Times New Roman,serif" font-size="14.00">[18..2b)</text>
<text text-anchor="middle" x="155" y="-1109.22" font-family="Times New Roman,serif" font-size="14.00">Count: 0</text>
<text text-anchor="middle" x="155" y="-1094.22" font-family="Times New Roman,serif" font-size="14.00">Normalized count: 0.00</text>
<text text-anchor="middle" x="155" y="-1079.22" font-family="Times New Roman,serif" font-size="14.00">Samples weight: 0.00</text>
</g>
<!-- BB1&#45;&gt;BB2 -->
<g id="edge2" class="edge">
<title>BB1&#45;&gt;BB2</title>
<path fill="none" stroke="black" d="M161.52,-1153.78C161.74,-1162.07 161.8,-1170.78 161.71,-1179.31"/>
<polygon fill="black" stroke="black" points="158.2,-1179.52 161.51,-1189.59 165.2,-1179.66 158.2,-1179.52"/>
</g>
<!-- BB2&#45;&gt;BB1 -->
<g id="edge3" class="edge">
<title>BB2&#45;&gt;BB1</title>
<path fill="none" stroke="black" d="M148.49,-1189.59C148.26,-1181.21 148.2,-1172.41 148.29,-1163.78"/>
<polygon fill="black" stroke="black" points="151.79,-1163.84 148.48,-1153.78 144.79,-1163.71 151.79,-1163.84"/>
</g>
<!-- BB3 -->
<g id="node4" class="node">
<title>BB3</title>
<ellipse fill="none" stroke="black" cx="379" cy="-1105.42" rx="103.48" ry="48.17"/>
<text text-anchor="middle" x="379" y="-1124.22" font-family="Times New Roman,serif" font-size="14.00">[39..56)</text>
<text text-anchor="middle" x="379" y="-1109.22" font-family="Times New Roman,serif" font-size="14.00">Count: 3</text>
<text text-anchor="middle" x="379" y="-1094.22" font-family="Times New Roman,serif" font-size="14.00">Normalized count: 1.00</text>
<text text-anchor="middle" x="379" y="-1079.22" font-family="Times New Roman,serif" font-size="14.00">Samples weight: 0.00</text>
</g>
<!-- BB2&#45;&gt;BB3 -->
<g id="edge4" class="edge">
<title>BB2&#45;&gt;BB3</title>
<path fill="none" stroke="black" d="M218.59,-1199.63C246.02,-1183.69 278.25,-1164.96 306.59,-1148.49"/>
<polygon fill="black" stroke="black" points="308.36,-1151.51 315.25,-1143.46 304.85,-1145.46 308.36,-1151.51"/>
</g>
<!-- BB4 -->
<g id="node5" class="node">
<title>BB4</title>
<ellipse fill="none" stroke="black" cx="267" cy="-973.25" rx="103.48" ry="48.17"/>
<text text-anchor="middle" x="267" y="-992.05" font-family="Times New Roman,serif" font-size="14.00">[56..6c)</text>
<text text-anchor="middle" x="267" y="-977.05" font-family="Times New Roman,serif" font-size="14.00">Count: 0</text>
<text text-anchor="middle" x="267" y="-962.05" font-family="Times New Roman,serif" font-size="14.00">Normalized count: 0.00</text>
<text text-anchor="middle" x="267" y="-947.05" font-family="Times New Roman,serif" font-size="14.00">Samples weight: 0.00</text>
</g>
<!-- BB3&#45;&gt;BB4 -->
<g id="edge6" class="edge">
<title>BB3&#45;&gt;BB4</title>
<path fill="none" stroke="black" d="M341.08,-1060.35C331.59,-1049.32 321.33,-1037.39 311.55,-1026.03"/>
<polygon fill="black" stroke="black" points="314.05,-1023.57 304.88,-1018.27 308.75,-1028.14 314.05,-1023.57"/>
</g>
<!-- BB5 -->
<g id="node6" class="node">
<title>BB5</title>
<ellipse fill="none" stroke="black" cx="491" cy="-973.25" rx="103.48" ry="48.17"/>
<text text-anchor="middle" x="491" y="-992.05" font-family="Times New Roman,serif" font-size="14.00">[6c..7a)</text>
<text text-anchor="middle" x="491" y="-977.05" font-family="Times New Roman,serif" font-size="14.00">Count: 3</text>
<text text-anchor="middle" x="491" y="-962.05" font-family="Times New Roman,serif" font-size="14.00">Normalized count: 1.00</text>
<text text-anchor="middle" x="491" y="-947.05" font-family="Times New Roman,serif" font-size="14.00">Samples weight: 0.00</text>
</g>
<!-- BB3&#45;&gt;BB5 -->
<g id="edge5" class="edge">
<title>BB3&#45;&gt;BB5</title>
<path fill="none" stroke="black" d="M416.92,-1060.35C426.41,-1049.32 436.67,-1037.39 446.45,-1026.03"/>
<polygon fill="black" stroke="black" points="449.25,-1028.14 453.12,-1018.27 443.95,-1023.57 449.25,-1028.14"/>
</g>
<!-- BB4&#45;&gt;BB5 -->
<g id="edge7" class="edge">
<title>BB4&#45;&gt;BB5</title>
<path fill="none" stroke="black" d="M370.25,-973.25C372.7,-973.25 375.16,-973.25 377.61,-973.25"/>
<polygon fill="black" stroke="black" points="377.7,-976.75 387.7,-973.25 377.7,-969.75 377.7,-976.75"/>
</g>
<!-- BB6 -->
<g id="node7" class="node">
<title>BB6</title>
<ellipse fill="none" stroke="black" cx="491" cy="-841.08" rx="122.16" ry="48.17"/>
<text text-anchor="middle" x="491" y="-859.88" font-family="Times New Roman,serif" font-size="14.00">[7a..85)</text>
<text text-anchor="middle" x="491" y="-844.88" font-family="Times New Roman,serif" font-size="14.00">Count: 88415</text>
<text text-anchor="middle" x="491" y="-829.88" font-family="Times New Roman,serif" font-size="14.00">Normalized count: 29471.67</text>
<text text-anchor="middle" x="491" y="-814.88" font-family="Times New Roman,serif" font-size="14.00">Samples weight: 0.14</text>
</g>
<!-- BB5&#45;&gt;BB6 -->
<g id="edge8" class="edge">
<title>BB5&#45;&gt;BB6</title>
<path fill="none" stroke="black" d="M491,-924.89C491,-916.62 491,-907.94 491,-899.43"/>
<polygon fill="black" stroke="black" points="494.5,-899.19 491,-889.19 487.5,-899.19 494.5,-899.19"/>
</g>
<!-- BB7 -->
<g id="node8" class="node">
<title>BB7</title>
<ellipse fill="none" stroke="black" cx="365" cy="-708.92" rx="113.27" ry="48.17"/>
<text text-anchor="middle" x="365" y="-727.72" font-family="Times New Roman,serif" font-size="14.00">[85..8f)</text>
<text text-anchor="middle" x="365" y="-712.72" font-family="Times New Roman,serif" font-size="14.00">Count: 2047</text>
<text text-anchor="middle" x="365" y="-697.72" font-family="Times New Roman,serif" font-size="14.00">Normalized count: 682.33</text>
<text text-anchor="middle" x="365" y="-682.72" font-family="Times New Roman,serif" font-size="14.00">Samples weight: 0.00</text>
</g>
<!-- BB6&#45;&gt;BB7 -->
<g id="edge10" class="edge">
<title>BB6&#45;&gt;BB7</title>
<path fill="none" stroke="black" d="M448.34,-796.01C437.57,-784.88 425.9,-772.83 414.81,-761.37"/>
<polygon fill="black" stroke="black" points="417.08,-758.69 407.61,-753.94 412.05,-763.56 417.08,-758.69"/>
</g>
<!-- BB12 -->
<g id="node13" class="node">
<title>BB12</title>
<ellipse fill="none" stroke="black" cx="632" cy="-708.92" rx="122.16" ry="48.17"/>
<text text-anchor="middle" x="632" y="-727.72" font-family="Times New Roman,serif" font-size="14.00">[b3..c0)</text>
<text text-anchor="middle" x="632" y="-712.72" font-family="Times New Roman,serif" font-size="14.00">Count: 88427</text>
<text text-anchor="middle" x="632" y="-697.72" font-family="Times New Roman,serif" font-size="14.00">Normalized count: 29475.67</text>
<text text-anchor="middle" x="632" y="-682.72" font-family="Times New Roman,serif" font-size="14.00">Samples weight: 0.14</text>
</g>
<!-- BB6&#45;&gt;BB12 -->
<g id="edge9" class="edge">
<title>BB6&#45;&gt;BB12</title>
<path fill="none" stroke="black" d="M538.34,-796.38C550.78,-784.89 564.3,-772.41 577.1,-760.59"/>
<polygon fill="black" stroke="black" points="579.57,-763.08 584.54,-753.73 574.82,-757.94 579.57,-763.08"/>
</g>
<!-- BB8 -->
<g id="node9" class="node">
<title>BB8</title>
<ellipse fill="none" stroke="black" cx="131" cy="-576.75" rx="103.48" ry="48.17"/>
<text text-anchor="middle" x="131" y="-595.55" font-family="Times New Roman,serif" font-size="14.00">[8f..a2)</text>
<text text-anchor="middle" x="131" y="-580.55" font-family="Times New Roman,serif" font-size="14.00">Count: 0</text>
<text text-anchor="middle" x="131" y="-565.55" font-family="Times New Roman,serif" font-size="14.00">Normalized count: 0.00</text>
<text text-anchor="middle" x="131" y="-550.55" font-family="Times New Roman,serif" font-size="14.00">Samples weight: 0.00</text>
</g>
<!-- BB7&#45;&gt;BB8 -->
<g id="edge12" class="edge">
<title>BB7&#45;&gt;BB8</title>
<path fill="none" stroke="black" d="M297.32,-670.27C268.57,-654.28 234.96,-635.58 205.51,-619.2"/>
<polygon fill="black" stroke="black" points="206.96,-616 196.52,-614.19 203.55,-622.11 206.96,-616"/>
</g>
<!-- BB9 -->
<g id="node10" class="node">
<title>BB9</title>
<ellipse fill="none" stroke="black" cx="365" cy="-576.75" rx="113.27" ry="48.17"/>
<text text-anchor="middle" x="365" y="-595.55" font-family="Times New Roman,serif" font-size="14.00">[a2..a7)</text>
<text text-anchor="middle" x="365" y="-580.55" font-family="Times New Roman,serif" font-size="14.00">Count: 2050</text>
<text text-anchor="middle" x="365" y="-565.55" font-family="Times New Roman,serif" font-size="14.00">Normalized count: 683.33</text>
<text text-anchor="middle" x="365" y="-550.55" font-family="Times New Roman,serif" font-size="14.00">Samples weight: 0.00</text>
</g>
<!-- BB7&#45;&gt;BB9 -->
<g id="edge11" class="edge">
<title>BB7&#45;&gt;BB9</title>
<path fill="none" stroke="black" d="M365,-660.55C365,-652.29 365,-643.6 365,-635.1"/>
<polygon fill="black" stroke="black" points="368.5,-634.86 365,-624.86 361.5,-634.86 368.5,-634.86"/>
</g>
<!-- BB8&#45;&gt;BB9 -->
<g id="edge13" class="edge">
<title>BB8&#45;&gt;BB9</title>
<path fill="none" stroke="black" d="M234.29,-576.75C236.73,-576.75 239.17,-576.75 241.61,-576.75"/>
<polygon fill="black" stroke="black" points="241.65,-580.25 251.65,-576.75 241.65,-573.25 241.65,-580.25"/>
</g>
<!-- BB10 -->
<g id="node11" class="node">
<title>BB10</title>
<ellipse fill="none" stroke="black" cx="131" cy="-444.58" rx="103.48" ry="48.17"/>
<text text-anchor="middle" x="131" y="-463.38" font-family="Times New Roman,serif" font-size="14.00">[a7..ae)</text>
<text text-anchor="middle" x="131" y="-448.38" font-family="Times New Roman,serif" font-size="14.00">Count: 0</text>
<text text-anchor="middle" x="131" y="-433.38" font-family="Times New Roman,serif" font-size="14.00">Normalized count: 0.00</text>
<text text-anchor="middle" x="131" y="-418.38" font-family="Times New Roman,serif" font-size="14.00">Samples weight: 0.00</text>
</g>
<!-- BB9&#45;&gt;BB10 -->
<g id="edge15" class="edge">
<title>BB9&#45;&gt;BB10</title>
<path fill="none" stroke="black" d="M297.32,-538.1C268.57,-522.11 234.96,-503.41 205.51,-487.03"/>
<polygon fill="black" stroke="black" points="206.96,-483.83 196.52,-482.03 203.55,-489.95 206.96,-483.83"/>
</g>
<!-- BB11 -->
<g id="node12" class="node">
<title>BB11</title>
<ellipse fill="none" stroke="black" cx="365" cy="-444.58" rx="113.27" ry="48.17"/>
<text text-anchor="middle" x="365" y="-463.38" font-family="Times New Roman,serif" font-size="14.00">[ae..b3)</text>
<text text-anchor="middle" x="365" y="-448.38" font-family="Times New Roman,serif" font-size="14.00">Count: 2048</text>
<text text-anchor="middle" x="365" y="-433.38" font-family="Times New Roman,serif" font-size="14.00">Normalized count: 682.67</text>
<text text-anchor="middle" x="365" y="-418.38" font-family="Times New Roman,serif" font-size="14.00">Samples weight: 0.00</text>
</g>
<!-- BB9&#45;&gt;BB11 -->
<g id="edge14" class="edge">
<title>BB9&#45;&gt;BB11</title>
<path fill="none" stroke="black" d="M365,-528.39C365,-520.12 365,-511.44 365,-502.93"/>
<polygon fill="black" stroke="black" points="368.5,-502.69 365,-492.69 361.5,-502.69 368.5,-502.69"/>
</g>
<!-- BB10&#45;&gt;BB11 -->
<g id="edge17" class="edge">
<title>BB10&#45;&gt;BB11</title>
<path fill="none" stroke="black" d="M234.29,-444.58C236.73,-444.58 239.17,-444.58 241.61,-444.58"/>
<polygon fill="black" stroke="black" points="241.65,-448.08 251.65,-444.58 241.65,-441.08 241.65,-448.08"/>
</g>
<!-- BB25 -->
<g id="node26" class="node">
<title>BB25</title>
<ellipse fill="none" stroke="black" cx="323" cy="-312.42" rx="103.48" ry="48.17"/>
<text text-anchor="middle" x="323" y="-331.22" font-family="Times New Roman,serif" font-size="14.00">[160..165)</text>
<text text-anchor="middle" x="323" y="-316.22" font-family="Times New Roman,serif" font-size="14.00">Count: 3</text>
<text text-anchor="middle" x="323" y="-301.22" font-family="Times New Roman,serif" font-size="14.00">Normalized count: 1.00</text>
<text text-anchor="middle" x="323" y="-286.22" font-family="Times New Roman,serif" font-size="14.00">Samples weight: 0.00</text>
</g>
<!-- BB10&#45;&gt;BB25 -->
<g id="edge16" class="edge">
<title>BB10&#45;&gt;BB25</title>
<path fill="none" stroke="black" d="M188.61,-404.53C210.15,-389.92 234.79,-373.22 257.04,-358.14"/>
<polygon fill="black" stroke="black" points="259.12,-360.95 265.43,-352.44 255.19,-355.16 259.12,-360.95"/>
</g>
<!-- BB11&#45;&gt;BB12 -->
<g id="edge18" class="edge">
<title>BB11&#45;&gt;BB12</title>
<path fill="none" stroke="black" d="M434.51,-482.57C453.45,-495.21 472.67,-510.76 487,-528.67 515.7,-564.56 497.43,-588.07 525,-624.83 534.93,-638.08 547.49,-650.32 560.48,-661.11"/>
<polygon fill="black" stroke="black" points="558.62,-664.1 568.61,-667.64 563,-658.65 558.62,-664.1"/>
</g>
<!-- BB13 -->
<g id="node14" class="node">
<title>BB13</title>
<ellipse fill="none" stroke="black" cx="647" cy="-576.75" rx="113.27" ry="48.17"/>
<text text-anchor="middle" x="647" y="-595.55" font-family="Times New Roman,serif" font-size="14.00">[c0..ca)</text>
<text text-anchor="middle" x="647" y="-580.55" font-family="Times New Roman,serif" font-size="14.00">Count: 2054</text>
<text text-anchor="middle" x="647" y="-565.55" font-family="Times New Roman,serif" font-size="14.00">Normalized count: 684.67</text>
<text text-anchor="middle" x="647" y="-550.55" font-family="Times New Roman,serif" font-size="14.00">Samples weight: 0.00</text>
</g>
<!-- BB12&#45;&gt;BB13 -->
<g id="edge20" class="edge">
<title>BB12&#45;&gt;BB13</title>
<path fill="none" stroke="black" d="M637.46,-660.55C638.42,-652.2 639.43,-643.41 640.42,-634.82"/>
<polygon fill="black" stroke="black" points="643.9,-635.19 641.57,-624.86 636.95,-634.39 643.9,-635.19"/>
</g>
<!-- BB18 -->
<g id="node19" class="node">
<title>BB18</title>
<ellipse fill="none" stroke="black" cx="1039" cy="-576.75" rx="122.16" ry="48.17"/>
<text text-anchor="middle" x="1039" y="-595.55" font-family="Times New Roman,serif" font-size="14.00">[f4..116)</text>
<text text-anchor="middle" x="1039" y="-580.55" font-family="Times New Roman,serif" font-size="14.00">Count: 88427</text>
<text text-anchor="middle" x="1039" y="-565.55" font-family="Times New Roman,serif" font-size="14.00">Normalized count: 29475.67</text>
<text text-anchor="middle" x="1039" y="-550.55" font-family="Times New Roman,serif" font-size="14.00">Samples weight: 0.14</text>
</g>
<!-- BB12&#45;&gt;BB18 -->
<g id="edge19" class="edge">
<title>BB12&#45;&gt;BB18</title>
<path fill="none" stroke="black" d="M725.89,-677.89C788.52,-657.86 870.9,-631.51 935.44,-610.87"/>
<polygon fill="black" stroke="black" points="936.78,-614.12 945.24,-607.74 934.64,-607.45 936.78,-614.12"/>
</g>
<!-- BB14 -->
<g id="node15" class="node">
<title>BB14</title>
<ellipse fill="none" stroke="black" cx="599" cy="-444.58" rx="103.48" ry="48.17"/>
<text text-anchor="middle" x="599" y="-463.38" font-family="Times New Roman,serif" font-size="14.00">[ca..e4)</text>
<text text-anchor="middle" x="599" y="-448.38" font-family="Times New Roman,serif" font-size="14.00">Count: 0</text>
<text text-anchor="middle" x="599" y="-433.38" font-family="Times New Roman,serif" font-size="14.00">Normalized count: 0.00</text>
<text text-anchor="middle" x="599" y="-418.38" font-family="Times New Roman,serif" font-size="14.00">Samples weight: 0.00</text>
</g>
<!-- BB13&#45;&gt;BB14 -->
<g id="edge22" class="edge">
<title>BB13&#45;&gt;BB14</title>
<path fill="none" stroke="black" d="M629.81,-529.12C626.53,-520.24 623.07,-510.87 619.7,-501.73"/>
<polygon fill="black" stroke="black" points="622.98,-500.49 616.23,-492.32 616.41,-502.91 622.98,-500.49"/>
</g>
<!-- BB15 -->
<g id="node16" class="node">
<title>BB15</title>
<ellipse fill="none" stroke="black" cx="833" cy="-444.58" rx="113.27" ry="48.17"/>
<text text-anchor="middle" x="833" y="-463.38" font-family="Times New Roman,serif" font-size="14.00">[e4..e9)</text>
<text text-anchor="middle" x="833" y="-448.38" font-family="Times New Roman,serif" font-size="14.00">Count: 2056</text>
<text text-anchor="middle" x="833" y="-433.38" font-family="Times New Roman,serif" font-size="14.00">Normalized count: 685.33</text>
<text text-anchor="middle" x="833" y="-418.38" font-family="Times New Roman,serif" font-size="14.00">Samples weight: 0.00</text>
</g>
<!-- BB13&#45;&gt;BB15 -->
<g id="edge21" class="edge">
<title>BB13&#45;&gt;BB15</title>
<path fill="none" stroke="black" d="M704.83,-535.28C724.51,-521.5 746.66,-506 766.94,-491.81"/>
<polygon fill="black" stroke="black" points="769.02,-494.63 775.2,-486.03 765,-488.9 769.02,-494.63"/>
</g>
<!-- BB14&#45;&gt;BB15 -->
<g id="edge23" class="edge">
<title>BB14&#45;&gt;BB15</title>
<path fill="none" stroke="black" d="M702.29,-444.58C704.73,-444.58 707.17,-444.58 709.61,-444.58"/>
<polygon fill="black" stroke="black" points="709.65,-448.08 719.65,-444.58 709.65,-441.08 709.65,-448.08"/>
</g>
<!-- BB16 -->
<g id="node17" class="node">
<title>BB16</title>
<ellipse fill="none" stroke="black" cx="655" cy="-312.42" rx="103.48" ry="48.17"/>
<text text-anchor="middle" x="655" y="-331.22" font-family="Times New Roman,serif" font-size="14.00">[e9..ed)</text>
<text text-anchor="middle" x="655" y="-316.22" font-family="Times New Roman,serif" font-size="14.00">Count: 0</text>
<text text-anchor="middle" x="655" y="-301.22" font-family="Times New Roman,serif" font-size="14.00">Normalized count: 0.00</text>
<text text-anchor="middle" x="655" y="-286.22" font-family="Times New Roman,serif" font-size="14.00">Samples weight: 0.00</text>
</g>
<!-- BB15&#45;&gt;BB16 -->
<g id="edge25" class="edge">
<title>BB15&#45;&gt;BB16</title>
<path fill="none" stroke="black" d="M777.17,-402.75C758.34,-388.99 737.21,-373.53 717.88,-359.4"/>
<polygon fill="black" stroke="black" points="719.86,-356.51 709.72,-353.43 715.72,-362.16 719.86,-356.51"/>
</g>
<!-- BB17 -->
<g id="node18" class="node">
<title>BB17</title>
<ellipse fill="none" stroke="black" cx="889" cy="-312.42" rx="113.27" ry="48.17"/>
<text text-anchor="middle" x="889" y="-331.22" font-family="Times New Roman,serif" font-size="14.00">[ed..f4)</text>
<text text-anchor="middle" x="889" y="-316.22" font-family="Times New Roman,serif" font-size="14.00">Count: 2056</text>
<text text-anchor="middle" x="889" y="-301.22" font-family="Times New Roman,serif" font-size="14.00">Normalized count: 685.33</text>
<text text-anchor="middle" x="889" y="-286.22" font-family="Times New Roman,serif" font-size="14.00">Samples weight: 0.00</text>
</g>
<!-- BB15&#45;&gt;BB17 -->
<g id="edge24" class="edge">
<title>BB15&#45;&gt;BB17</title>
<path fill="none" stroke="black" d="M853.06,-396.96C856.88,-388.08 860.91,-378.7 864.85,-369.56"/>
<polygon fill="black" stroke="black" points="868.16,-370.72 868.89,-360.15 861.73,-367.96 868.16,-370.72"/>
</g>
<!-- BB16&#45;&gt;BB17 -->
<g id="edge27" class="edge">
<title>BB16&#45;&gt;BB17</title>
<path fill="none" stroke="black" d="M758.29,-312.42C760.73,-312.42 763.17,-312.42 765.61,-312.42"/>
<polygon fill="black" stroke="black" points="765.65,-315.92 775.65,-312.42 765.65,-308.92 765.65,-315.92"/>
</g>
<!-- BB16&#45;&gt;BB25 -->
<g id="edge26" class="edge">
<title>BB16&#45;&gt;BB25</title>
<path fill="none" stroke="black" d="M551.43,-312.42C513.18,-312.42 474.93,-312.42 436.68,-312.42"/>
<polygon fill="black" stroke="black" points="436.43,-308.92 426.43,-312.42 436.43,-315.92 436.43,-308.92"/>
</g>
<!-- BB17&#45;&gt;BB18 -->
<g id="edge28" class="edge">
<title>BB17&#45;&gt;BB18</title>
<path fill="none" stroke="black" d="M928.21,-357.82C937.73,-369.87 947.35,-383.26 955,-396.5 977.99,-436.29 973.38,-451.11 993,-492.67 997.37,-501.93 1002.33,-511.59 1007.34,-520.91"/>
<polygon fill="black" stroke="black" points="1004.28,-522.61 1012.13,-529.72 1010.43,-519.27 1004.28,-522.61"/>
</g>
<!-- BB19 -->
<g id="node20" class="node">
<title>BB19</title>
<ellipse fill="none" stroke="black" cx="1105" cy="-444.58" rx="103.48" ry="48.17"/>
<text text-anchor="middle" x="1105" y="-463.38" font-family="Times New Roman,serif" font-size="14.00">[116..129)</text>
<text text-anchor="middle" x="1105" y="-448.38" font-family="Times New Roman,serif" font-size="14.00">Count: 0</text>
<text text-anchor="middle" x="1105" y="-433.38" font-family="Times New Roman,serif" font-size="14.00">Normalized count: 0.00</text>
<text text-anchor="middle" x="1105" y="-418.38" font-family="Times New Roman,serif" font-size="14.00">Samples weight: 0.00</text>
</g>
<!-- BB18&#45;&gt;BB19 -->
<g id="edge30" class="edge">
<title>BB18&#45;&gt;BB19</title>
<path fill="none" stroke="black" d="M1062.45,-529.49C1067.17,-520.19 1072.17,-510.32 1077.03,-500.75"/>
<polygon fill="black" stroke="black" points="1080.22,-502.19 1081.62,-491.69 1073.98,-499.03 1080.22,-502.19"/>
</g>
<!-- BB20 -->
<g id="node21" class="node">
<title>BB20</title>
<ellipse fill="none" stroke="black" cx="1349" cy="-444.58" rx="122.16" ry="48.17"/>
<text text-anchor="middle" x="1349" y="-463.38" font-family="Times New Roman,serif" font-size="14.00">[129..133)</text>
<text text-anchor="middle" x="1349" y="-448.38" font-family="Times New Roman,serif" font-size="14.00">Count: 87866</text>
<text text-anchor="middle" x="1349" y="-433.38" font-family="Times New Roman,serif" font-size="14.00">Normalized count: 29288.67</text>
<text text-anchor="middle" x="1349" y="-418.38" font-family="Times New Roman,serif" font-size="14.00">Samples weight: 0.14</text>
</g>
<!-- BB18&#45;&gt;BB20 -->
<g id="edge29" class="edge">
<title>BB18&#45;&gt;BB20</title>
<path fill="none" stroke="black" d="M1121.67,-541.04C1163.44,-523.5 1214.25,-502.16 1257.24,-484.11"/>
<polygon fill="black" stroke="black" points="1258.7,-487.3 1266.56,-480.2 1255.99,-480.84 1258.7,-487.3"/>
</g>
<!-- BB19&#45;&gt;BB20 -->
<g id="edge31" class="edge">
<title>BB19&#45;&gt;BB20</title>
<path fill="none" stroke="black" d="M1208.41,-444.58C1211.06,-444.58 1213.7,-444.58 1216.34,-444.58"/>
<polygon fill="black" stroke="black" points="1216.54,-448.08 1226.54,-444.58 1216.54,-441.08 1216.54,-448.08"/>
</g>
<!-- BB21 -->
<g id="node22" class="node">
<title>BB21</title>
<ellipse fill="none" stroke="black" cx="1180" cy="-312.42" rx="103.48" ry="48.17"/>
<text text-anchor="middle" x="1180" y="-331.22" font-family="Times New Roman,serif" font-size="14.00">[133..14d)</text>
<text text-anchor="middle" x="1180" y="-316.22" font-family="Times New Roman,serif" font-size="14.00">Count: 0</text>
<text text-anchor="middle" x="1180" y="-301.22" font-family="Times New Roman,serif" font-size="14.00">Normalized count: 0.00</text>
<text text-anchor="middle" x="1180" y="-286.22" font-family="Times New Roman,serif" font-size="14.00">Samples weight: 0.00</text>
</g>
<!-- BB20&#45;&gt;BB21 -->
<g id="edge33" class="edge">
<title>BB20&#45;&gt;BB21</title>
<path fill="none" stroke="black" d="M1294.13,-401.32C1277.15,-388.24 1258.34,-373.76 1240.98,-360.38"/>
<polygon fill="black" stroke="black" points="1242.64,-357.24 1232.58,-353.92 1238.37,-362.79 1242.64,-357.24"/>
</g>
<!-- BB22 -->
<g id="node23" class="node">
<title>BB22</title>
<ellipse fill="none" stroke="black" cx="1424" cy="-312.42" rx="122.16" ry="48.17"/>
<text text-anchor="middle" x="1424" y="-331.22" font-family="Times New Roman,serif" font-size="14.00">[14d..154)</text>
<text text-anchor="middle" x="1424" y="-316.22" font-family="Times New Roman,serif" font-size="14.00">Count: 88157</text>
<text text-anchor="middle" x="1424" y="-301.22" font-family="Times New Roman,serif" font-size="14.00">Normalized count: 29385.67</text>
<text text-anchor="middle" x="1424" y="-286.22" font-family="Times New Roman,serif" font-size="14.00">Samples weight: 0.14</text>
</g>
<!-- BB20&#45;&gt;BB22 -->
<g id="edge32" class="edge">
<title>BB20&#45;&gt;BB22</title>
<path fill="none" stroke="black" d="M1375.65,-397.32C1381.07,-387.93 1386.81,-377.95 1392.38,-368.29"/>
<polygon fill="black" stroke="black" points="1395.47,-369.94 1397.43,-359.53 1389.41,-366.44 1395.47,-369.94"/>
</g>
<!-- BB21&#45;&gt;BB22 -->
<g id="edge34" class="edge">
<title>BB21&#45;&gt;BB22</title>
<path fill="none" stroke="black" d="M1283.41,-312.42C1286.06,-312.42 1288.7,-312.42 1291.34,-312.42"/>
<polygon fill="black" stroke="black" points="1291.54,-315.92 1301.54,-312.42 1291.54,-308.92 1291.54,-315.92"/>
</g>
<!-- BB22&#45;&gt;BB6 -->
<g id="edge35" class="edge">
<title>BB22&#45;&gt;BB6</title>
<path fill="none" stroke="black" d="M1461.25,-358.36C1468.94,-370.09 1475.93,-383.19 1480,-396.5 1492.49,-437.37 1503.56,-457.01 1480,-492.67 1381.29,-642.05 850.01,-767.05 609.47,-816.89"/>
<polygon fill="black" stroke="black" points="608.72,-813.47 599.63,-818.92 610.14,-820.32 608.72,-813.47"/>
</g>
<!-- BB23 -->
<g id="node24" class="node">
<title>BB23</title>
<ellipse fill="none" stroke="black" cx="740" cy="-180.25" rx="122.16" ry="48.17"/>
<text text-anchor="middle" x="740" y="-199.05" font-family="Times New Roman,serif" font-size="14.00">[154..158)</text>
<text text-anchor="middle" x="740" y="-184.05" font-family="Times New Roman,serif" font-size="14.00">Count: 88120</text>
<text text-anchor="middle" x="740" y="-169.05" font-family="Times New Roman,serif" font-size="14.00">Normalized count: 29373.33</text>
<text text-anchor="middle" x="740" y="-154.05" font-family="Times New Roman,serif" font-size="14.00">Samples weight: 0.14</text>
</g>
<!-- BB22&#45;&gt;BB23 -->
<g id="edge36" class="edge">
<title>BB22&#45;&gt;BB23</title>
<path fill="none" stroke="black" d="M1338.11,-278.09C1322.9,-272.96 1307.1,-268.13 1292,-264.33 1149.09,-228.45 981.23,-205.88 868.47,-193.47"/>
<polygon fill="black" stroke="black" points="868.73,-189.98 858.41,-192.38 867.97,-196.94 868.73,-189.98"/>
</g>
<!-- BB24 -->
<g id="node25" class="node">
<title>BB24</title>
<ellipse fill="none" stroke="black" cx="141" cy="-48.08" rx="122.16" ry="48.17"/>
<text text-anchor="middle" x="141" y="-66.88" font-family="Times New Roman,serif" font-size="14.00">[158..160)</text>
<text text-anchor="middle" x="141" y="-51.88" font-family="Times New Roman,serif" font-size="14.00">Count: 88415</text>
<text text-anchor="middle" x="141" y="-36.88" font-family="Times New Roman,serif" font-size="14.00">Normalized count: 29471.67</text>
<text text-anchor="middle" x="141" y="-21.88" font-family="Times New Roman,serif" font-size="14.00">Samples weight: 0.14</text>
</g>
<!-- BB23&#45;&gt;BB24 -->
<g id="edge38" class="edge">
<title>BB23&#45;&gt;BB24</title>
<path fill="none" stroke="black" d="M653.67,-146.14C638.58,-141.02 622.93,-136.13 608,-132.17 493.84,-101.88 361.01,-79.45 266.27,-65.58"/>
<polygon fill="black" stroke="black" points="266.76,-62.11 256.36,-64.14 265.75,-69.04 266.76,-62.11"/>
</g>
<!-- BB23&#45;&gt;BB25 -->
<g id="edge37" class="edge">
<title>BB23&#45;&gt;BB25</title>
<path fill="none" stroke="black" d="M651.49,-213.63C637.01,-218.69 622.12,-223.76 608,-228.33 546.13,-248.37 476.02,-268.83 420.82,-284.44"/>
<polygon fill="black" stroke="black" points="419.71,-281.12 411.04,-287.2 421.61,-287.85 419.71,-281.12"/>
</g>
<!-- BB24&#45;&gt;BB6 -->
<g id="edge39" class="edge">
<title>BB24&#45;&gt;BB6</title>
<path fill="none" stroke="black" d="M99.46,-93.52C57.87,-142.81 0,-226.62 0,-311.42 0,-577.75 0,-577.75 0,-577.75 0,-742.37 217.38,-804.07 362.86,-826.92"/>
<polygon fill="black" stroke="black" points="362.35,-830.38 372.77,-828.43 363.41,-823.46 362.35,-830.38"/>
</g>
<!-- BB24&#45;&gt;BB25 -->
<g id="edge40" class="edge">
<title>BB24&#45;&gt;BB25</title>
<path fill="none" stroke="black" d="M134.36,-96.33C131.46,-135.13 133.49,-189.79 160,-228.33 176.26,-251.98 201.35,-269.28 227,-281.77"/>
<polygon fill="black" stroke="black" points="225.55,-284.96 236.09,-285.99 228.5,-278.61 225.55,-284.96"/>
</g>
<!-- BB26 -->
<g id="node27" class="node">
<title>BB26</title>
<ellipse fill="none" stroke="black" cx="272" cy="-180.25" rx="103.48" ry="48.17"/>
<text text-anchor="middle" x="272" y="-199.05" font-family="Times New Roman,serif" font-size="14.00">[165..171)</text>
<text text-anchor="middle" x="272" y="-184.05" font-family="Times New Roman,serif" font-size="14.00">Count: 1</text>
<text text-anchor="middle" x="272" y="-169.05" font-family="Times New Roman,serif" font-size="14.00">Normalized count: 0.33</text>
<text text-anchor="middle" x="272" y="-154.05" font-family="Times New Roman,serif" font-size="14.00">Samples weight: 0.00</text>
</g>
<!-- BB25&#45;&gt;BB26 -->
<g id="edge42" class="edge">
<title>BB25&#45;&gt;BB26</title>
<path fill="none" stroke="black" d="M304.73,-264.79C301.25,-255.91 297.58,-246.53 294,-237.39"/>
<polygon fill="black" stroke="black" points="297.22,-236.02 290.31,-227.99 290.7,-238.57 297.22,-236.02"/>
</g>
<!-- BB27 -->
<g id="node28" class="node">
<title>BB27</title>
<ellipse fill="none" stroke="black" cx="496" cy="-180.25" rx="103.48" ry="48.17"/>
<text text-anchor="middle" x="496" y="-199.05" font-family="Times New Roman,serif" font-size="14.00">[171..172)</text>
<text text-anchor="middle" x="496" y="-184.05" font-family="Times New Roman,serif" font-size="14.00">Count: 3</text>
<text text-anchor="middle" x="496" y="-169.05" font-family="Times New Roman,serif" font-size="14.00">Normalized count: 1.00</text>
<text text-anchor="middle" x="496" y="-154.05" font-family="Times New Roman,serif" font-size="14.00">Samples weight: 0.00</text>
</g>
<!-- BB25&#45;&gt;BB27 -->
<g id="edge41" class="edge">
<title>BB25&#45;&gt;BB27</title>
<path fill="none" stroke="black" d="M376.79,-270.94C395.02,-257.23 415.53,-241.8 434.32,-227.66"/>
<polygon fill="black" stroke="black" points="436.65,-230.28 442.54,-221.47 432.45,-224.69 436.65,-230.28"/>
</g>
<!-- BB26&#45;&gt;BB27 -->
<g id="edge43" class="edge">
<title>BB26&#45;&gt;BB27</title>
<path fill="none" stroke="black" d="M375.25,-180.25C377.7,-180.25 380.16,-180.25 382.61,-180.25"/>
<polygon fill="black" stroke="black" points="382.7,-183.75 392.7,-180.25 382.7,-176.75 382.7,-183.75"/>
</g>
</g>
</svg>
