<?xml version="1.0" encoding="UTF-8" standalone="no"?>
<!DOCTYPE svg PUBLIC "-//W3C//DTD SVG 1.1//EN"
 "http://www.w3.org/Graphics/SVG/1.1/DTD/svg11.dtd">
<!-- Generated by graphviz version 2.47.0 (20210316.0004)
 -->
<!-- Title: G Pages: 1 -->
<svg width="662pt" height="897pt"
 viewBox="0.00 0.00 662.48 897.17" xmlns="http://www.w3.org/2000/svg" xmlns:xlink="http://www.w3.org/1999/xlink">
<g id="graph0" class="graph" transform="scale(1 1) rotate(0) translate(4 893.17)">
<title>G</title>
<polygon fill="white" stroke="transparent" points="-4,4 -4,-893.17 658.48,-893.17 658.48,4 -4,4"/>
<!-- BB0 -->
<g id="node1" class="node">
<title>BB0</title>
<ellipse fill="none" stroke="black" cx="103.24" cy="-841.08" rx="103.48" ry="48.17"/>
<text text-anchor="middle" x="103.24" y="-859.88" font-family="Times New Roman,serif" font-size="14.00">[0..2c)</text>
<text text-anchor="middle" x="103.24" y="-844.88" font-family="Times New Roman,serif" font-size="14.00">Count: 2</text>
<text text-anchor="middle" x="103.24" y="-829.88" font-family="Times New Roman,serif" font-size="14.00">Normalized count: 1.00</text>
<text text-anchor="middle" x="103.24" y="-814.88" font-family="Times New Roman,serif" font-size="14.00">Samples weight: 0.00</text>
</g>
<!-- BB2 -->
<g id="node3" class="node">
<title>BB2</title>
<ellipse fill="none" stroke="black" cx="103.24" cy="-708.92" rx="103.48" ry="48.17"/>
<text text-anchor="middle" x="103.24" y="-727.72" font-family="Times New Roman,serif" font-size="14.00">[37..3c)</text>
<text text-anchor="middle" x="103.24" y="-712.72" font-family="Times New Roman,serif" font-size="14.00">Count: 2</text>
<text text-anchor="middle" x="103.24" y="-697.72" font-family="Times New Roman,serif" font-size="14.00">Normalized count: 1.00</text>
<text text-anchor="middle" x="103.24" y="-682.72" font-family="Times New Roman,serif" font-size="14.00">Samples weight: 0.00</text>
</g>
<!-- BB0&#45;&gt;BB2 -->
<g id="edge1" class="edge">
<title>BB0&#45;&gt;BB2</title>
<path fill="none" stroke="black" d="M103.24,-792.72C103.24,-784.45 103.24,-775.77 103.24,-767.27"/>
<polygon fill="black" stroke="black" points="106.74,-767.02 103.24,-757.02 99.74,-767.02 106.74,-767.02"/>
</g>
<!-- BB1 -->
<g id="node2" class="node">
<title>BB1</title>
<ellipse fill="none" stroke="black" cx="103.24" cy="-576.75" rx="103.48" ry="48.17"/>
<text text-anchor="middle" x="103.24" y="-595.55" font-family="Times New Roman,serif" font-size="14.00">[2c..37)</text>
<text text-anchor="middle" x="103.24" y="-580.55" font-family="Times New Roman,serif" font-size="14.00">Count: 0</text>
<text text-anchor="middle" x="103.24" y="-565.55" font-family="Times New Roman,serif" font-size="14.00">Normalized count: 0.00</text>
<text text-anchor="middle" x="103.24" y="-550.55" font-family="Times New Roman,serif" font-size="14.00">Samples weight: 0.00</text>
</g>
<!-- BB1&#45;&gt;BB2 -->
<g id="edge2" class="edge">
<title>BB1&#45;&gt;BB2</title>
<path fill="none" stroke="black" d="M109.76,-625.11C109.98,-633.41 110.04,-642.12 109.94,-650.65"/>
<polygon fill="black" stroke="black" points="106.44,-650.86 109.75,-660.92 113.44,-650.99 106.44,-650.86"/>
</g>
<!-- BB2&#45;&gt;BB1 -->
<g id="edge3" class="edge">
<title>BB2&#45;&gt;BB1</title>
<path fill="none" stroke="black" d="M96.72,-660.92C96.5,-652.55 96.43,-643.74 96.53,-635.11"/>
<polygon fill="black" stroke="black" points="100.03,-635.17 96.72,-625.11 93.03,-635.04 100.03,-635.17"/>
</g>
<!-- BB3 -->
<g id="node4" class="node">
<title>BB3</title>
<ellipse fill="none" stroke="black" cx="327.24" cy="-576.75" rx="103.48" ry="48.17"/>
<text text-anchor="middle" x="327.24" y="-595.55" font-family="Times New Roman,serif" font-size="14.00">[3c..45)</text>
<text text-anchor="middle" x="327.24" y="-580.55" font-family="Times New Roman,serif" font-size="14.00">Count: 2</text>
<text text-anchor="middle" x="327.24" y="-565.55" font-family="Times New Roman,serif" font-size="14.00">Normalized count: 1.00</text>
<text text-anchor="middle" x="327.24" y="-550.55" font-family="Times New Roman,serif" font-size="14.00">Samples weight: 0.00</text>
</g>
<!-- BB2&#45;&gt;BB3 -->
<g id="edge4" class="edge">
<title>BB2&#45;&gt;BB3</title>
<path fill="none" stroke="black" d="M166.83,-670.96C194.26,-655.02 226.48,-636.3 254.83,-619.83"/>
<polygon fill="black" stroke="black" points="256.6,-622.84 263.49,-614.79 253.08,-616.79 256.6,-622.84"/>
</g>
<!-- BB8 -->
<g id="node9" class="node">
<title>BB8</title>
<ellipse fill="none" stroke="black" cx="327.24" cy="-444.58" rx="103.48" ry="48.17"/>
<text text-anchor="middle" x="327.24" y="-463.38" font-family="Times New Roman,serif" font-size="14.00">[c0..c5)</text>
<text text-anchor="middle" x="327.24" y="-448.38" font-family="Times New Roman,serif" font-size="14.00">Count: 3</text>
<text text-anchor="middle" x="327.24" y="-433.38" font-family="Times New Roman,serif" font-size="14.00">Normalized count: 1.50</text>
<text text-anchor="middle" x="327.24" y="-418.38" font-family="Times New Roman,serif" font-size="14.00">Samples weight: 0.00</text>
</g>
<!-- BB3&#45;&gt;BB8 -->
<g id="edge5" class="edge">
<title>BB3&#45;&gt;BB8</title>
<path fill="none" stroke="black" d="M327.24,-528.39C327.24,-520.12 327.24,-511.44 327.24,-502.93"/>
<polygon fill="black" stroke="black" points="330.74,-502.69 327.24,-492.69 323.74,-502.69 330.74,-502.69"/>
</g>
<!-- BB4 -->
<g id="node5" class="node">
<title>BB4</title>
<ellipse fill="none" stroke="black" cx="327.24" cy="-312.42" rx="103.48" ry="48.17"/>
<text text-anchor="middle" x="327.24" y="-331.22" font-family="Times New Roman,serif" font-size="14.00">[45..4d)</text>
<text text-anchor="middle" x="327.24" y="-316.22" font-family="Times New Roman,serif" font-size="14.00">Count: 1</text>
<text text-anchor="middle" x="327.24" y="-301.22" font-family="Times New Roman,serif" font-size="14.00">Normalized count: 0.50</text>
<text text-anchor="middle" x="327.24" y="-286.22" font-family="Times New Roman,serif" font-size="14.00">Samples weight: 0.00</text>
</g>
<!-- BB6 -->
<g id="node7" class="node">
<title>BB6</title>
<ellipse fill="none" stroke="black" cx="355.24" cy="-180.25" rx="113.27" ry="48.17"/>
<text text-anchor="middle" x="355.24" y="-199.05" font-family="Times New Roman,serif" font-size="14.00">[89..90)</text>
<text text-anchor="middle" x="355.24" y="-184.05" font-family="Times New Roman,serif" font-size="14.00">Count: 958</text>
<text text-anchor="middle" x="355.24" y="-169.05" font-family="Times New Roman,serif" font-size="14.00">Normalized count: 479.00</text>
<text text-anchor="middle" x="355.24" y="-154.05" font-family="Times New Roman,serif" font-size="14.00">Samples weight: 0.50</text>
</g>
<!-- BB4&#45;&gt;BB6 -->
<g id="edge6" class="edge">
<title>BB4&#45;&gt;BB6</title>
<path fill="none" stroke="black" d="M337.35,-264.42C339.19,-255.85 341.13,-246.83 343.03,-238.01"/>
<polygon fill="black" stroke="black" points="346.46,-238.69 345.14,-228.17 339.62,-237.21 346.46,-238.69"/>
</g>
<!-- BB5 -->
<g id="node6" class="node">
<title>BB5</title>
<ellipse fill="none" stroke="black" cx="379.24" cy="-48.08" rx="113.27" ry="48.17"/>
<text text-anchor="middle" x="379.24" y="-66.88" font-family="Times New Roman,serif" font-size="14.00">[4d..89)</text>
<text text-anchor="middle" x="379.24" y="-51.88" font-family="Times New Roman,serif" font-size="14.00">Count: 957</text>
<text text-anchor="middle" x="379.24" y="-36.88" font-family="Times New Roman,serif" font-size="14.00">Normalized count: 478.50</text>
<text text-anchor="middle" x="379.24" y="-21.88" font-family="Times New Roman,serif" font-size="14.00">Samples weight: 0.50</text>
</g>
<!-- BB5&#45;&gt;BB6 -->
<g id="edge7" class="edge">
<title>BB5&#45;&gt;BB6</title>
<path fill="none" stroke="black" d="M377.03,-96.44C375.7,-104.83 374.14,-113.64 372.45,-122.26"/>
<polygon fill="black" stroke="black" points="368.98,-121.76 370.41,-132.26 375.84,-123.16 368.98,-121.76"/>
</g>
<!-- BB6&#45;&gt;BB5 -->
<g id="edge8" class="edge">
<title>BB6&#45;&gt;BB5</title>
<path fill="none" stroke="black" d="M357.45,-131.89C358.79,-123.42 360.37,-114.53 362.07,-105.83"/>
<polygon fill="black" stroke="black" points="365.56,-106.25 364.13,-95.76 358.7,-104.86 365.56,-106.25"/>
</g>
<!-- BB7 -->
<g id="node8" class="node">
<title>BB7</title>
<ellipse fill="none" stroke="black" cx="145.24" cy="-48.08" rx="103.48" ry="48.17"/>
<text text-anchor="middle" x="145.24" y="-66.88" font-family="Times New Roman,serif" font-size="14.00">[90..c0)</text>
<text text-anchor="middle" x="145.24" y="-51.88" font-family="Times New Roman,serif" font-size="14.00">Count: 1</text>
<text text-anchor="middle" x="145.24" y="-36.88" font-family="Times New Roman,serif" font-size="14.00">Normalized count: 0.50</text>
<text text-anchor="middle" x="145.24" y="-21.88" font-family="Times New Roman,serif" font-size="14.00">Samples weight: 0.00</text>
</g>
<!-- BB6&#45;&gt;BB7 -->
<g id="edge9" class="edge">
<title>BB6&#45;&gt;BB7</title>
<path fill="none" stroke="black" d="M292.23,-140.2C267.91,-125.12 240,-107.82 215.08,-92.37"/>
<polygon fill="black" stroke="black" points="216.74,-89.28 206.39,-86.99 213.05,-95.23 216.74,-89.28"/>
</g>
<!-- BB7&#45;&gt;BB8 -->
<g id="edge10" class="edge">
<title>BB7&#45;&gt;BB8</title>
<path fill="none" stroke="black" d="M145.84,-96.26C148.76,-160.89 161.75,-278.29 215.24,-360.5 225.26,-375.91 239.2,-389.49 253.84,-400.97"/>
<polygon fill="black" stroke="black" points="251.93,-403.91 262.02,-407.12 256.14,-398.31 251.93,-403.91"/>
</g>
<!-- BB8&#45;&gt;BB4 -->
<g id="edge11" class="edge">
<title>BB8&#45;&gt;BB4</title>
<path fill="none" stroke="black" d="M327.24,-396.22C327.24,-387.95 327.24,-379.27 327.24,-370.77"/>
<polygon fill="black" stroke="black" points="330.74,-370.52 327.24,-360.52 323.74,-370.52 330.74,-370.52"/>
</g>
<!-- BB9 -->
<g id="node10" class="node">
<title>BB9</title>
<ellipse fill="none" stroke="black" cx="551.24" cy="-312.42" rx="103.48" ry="48.17"/>
<text text-anchor="middle" x="551.24" y="-331.22" font-family="Times New Roman,serif" font-size="14.00">[c5..c8)</text>
<text text-anchor="middle" x="551.24" y="-316.22" font-family="Times New Roman,serif" font-size="14.00">Count: 2</text>
<text text-anchor="middle" x="551.24" y="-301.22" font-family="Times New Roman,serif" font-size="14.00">Normalized count: 1.00</text>
<text text-anchor="middle" x="551.24" y="-286.22" font-family="Times New Roman,serif" font-size="14.00">Samples weight: 0.00</text>
</g>
<!-- BB8&#45;&gt;BB9 -->
<g id="edge12" class="edge">
<title>BB8&#45;&gt;BB9</title>
<path fill="none" stroke="black" d="M390.83,-406.63C418.26,-390.69 450.48,-371.97 478.83,-355.49"/>
<polygon fill="black" stroke="black" points="480.6,-358.51 487.49,-350.46 477.08,-352.46 480.6,-358.51"/>
</g>
</g>
</svg>
