<?xml version="1.0" encoding="UTF-8" standalone="no"?>
<!DOCTYPE svg PUBLIC "-//W3C//DTD SVG 1.1//EN"
 "http://www.w3.org/Graphics/SVG/1.1/DTD/svg11.dtd">
<!-- Generated by graphviz version 2.47.0 (20210316.0004)
 -->
<!-- Title: G Pages: 1 -->
<svg width="850pt" height="765pt"
 viewBox="0.00 0.00 850.37 765.00" xmlns="http://www.w3.org/2000/svg" xmlns:xlink="http://www.w3.org/1999/xlink">
<g id="graph0" class="graph" transform="scale(1 1) rotate(0) translate(4 761)">
<title>G</title>
<polygon fill="white" stroke="transparent" points="-4,4 -4,-761 846.37,-761 846.37,4 -4,4"/>
<!-- BB0 -->
<g id="node1" class="node">
<title>BB0</title>
<ellipse fill="none" stroke="black" cx="459.14" cy="-708.92" rx="103.48" ry="48.17"/>
<text text-anchor="middle" x="459.14" y="-727.72" font-family="Times New Roman,serif" font-size="14.00">[0..18)</text>
<text text-anchor="middle" x="459.14" y="-712.72" font-family="Times New Roman,serif" font-size="14.00">Count: 1865</text>
<text text-anchor="middle" x="459.14" y="-697.72" font-family="Times New Roman,serif" font-size="14.00">Normalized count: 1.00</text>
<text text-anchor="middle" x="459.14" y="-682.72" font-family="Times New Roman,serif" font-size="14.00">Samples weight: 0.00</text>
</g>
<!-- BB4 -->
<g id="node5" class="node">
<title>BB4</title>
<ellipse fill="none" stroke="black" cx="459.14" cy="-576.75" rx="113.27" ry="48.17"/>
<text text-anchor="middle" x="459.14" y="-595.55" font-family="Times New Roman,serif" font-size="14.00">[26..2e)</text>
<text text-anchor="middle" x="459.14" y="-580.55" font-family="Times New Roman,serif" font-size="14.00">Count: 199204</text>
<text text-anchor="middle" x="459.14" y="-565.55" font-family="Times New Roman,serif" font-size="14.00">Normalized count: 106.81</text>
<text text-anchor="middle" x="459.14" y="-550.55" font-family="Times New Roman,serif" font-size="14.00">Samples weight: 0.27</text>
</g>
<!-- BB0&#45;&gt;BB4 -->
<g id="edge1" class="edge">
<title>BB0&#45;&gt;BB4</title>
<path fill="none" stroke="black" d="M459.14,-660.55C459.14,-652.29 459.14,-643.6 459.14,-635.1"/>
<polygon fill="black" stroke="black" points="462.64,-634.86 459.14,-624.86 455.64,-634.86 462.64,-634.86"/>
</g>
<!-- BB1 -->
<g id="node2" class="node">
<title>BB1</title>
<ellipse fill="none" stroke="black" cx="342.14" cy="-444.58" rx="113.27" ry="48.17"/>
<text text-anchor="middle" x="342.14" y="-463.38" font-family="Times New Roman,serif" font-size="14.00">[18..1d)</text>
<text text-anchor="middle" x="342.14" y="-448.38" font-family="Times New Roman,serif" font-size="14.00">Count: 218304</text>
<text text-anchor="middle" x="342.14" y="-433.38" font-family="Times New Roman,serif" font-size="14.00">Normalized count: 117.05</text>
<text text-anchor="middle" x="342.14" y="-418.38" font-family="Times New Roman,serif" font-size="14.00">Samples weight: 0.30</text>
</g>
<!-- BB2 -->
<g id="node3" class="node">
<title>BB2</title>
<ellipse fill="none" stroke="black" cx="347.14" cy="-312.42" rx="103.48" ry="48.17"/>
<text text-anchor="middle" x="347.14" y="-331.22" font-family="Times New Roman,serif" font-size="14.00">[1d..22)</text>
<text text-anchor="middle" x="347.14" y="-316.22" font-family="Times New Roman,serif" font-size="14.00">Count: 0</text>
<text text-anchor="middle" x="347.14" y="-301.22" font-family="Times New Roman,serif" font-size="14.00">Normalized count: 0.00</text>
<text text-anchor="middle" x="347.14" y="-286.22" font-family="Times New Roman,serif" font-size="14.00">Samples weight: 0.00</text>
</g>
<!-- BB1&#45;&gt;BB2 -->
<g id="edge3" class="edge">
<title>BB1&#45;&gt;BB2</title>
<path fill="none" stroke="black" d="M343.96,-396.22C344.27,-387.95 344.61,-379.27 344.93,-370.77"/>
<polygon fill="black" stroke="black" points="348.44,-370.65 345.33,-360.52 341.45,-370.38 348.44,-370.65"/>
</g>
<!-- BB3 -->
<g id="node4" class="node">
<title>BB3</title>
<ellipse fill="none" stroke="black" cx="113.14" cy="-312.42" rx="113.27" ry="48.17"/>
<text text-anchor="middle" x="113.14" y="-331.22" font-family="Times New Roman,serif" font-size="14.00">[22..26)</text>
<text text-anchor="middle" x="113.14" y="-316.22" font-family="Times New Roman,serif" font-size="14.00">Count: 194636</text>
<text text-anchor="middle" x="113.14" y="-301.22" font-family="Times New Roman,serif" font-size="14.00">Normalized count: 104.36</text>
<text text-anchor="middle" x="113.14" y="-286.22" font-family="Times New Roman,serif" font-size="14.00">Samples weight: 0.26</text>
</g>
<!-- BB1&#45;&gt;BB3 -->
<g id="edge2" class="edge">
<title>BB1&#45;&gt;BB3</title>
<path fill="none" stroke="black" d="M275.29,-405.58C248.24,-390.21 216.89,-372.39 189,-356.54"/>
<polygon fill="black" stroke="black" points="190.5,-353.36 180.07,-351.46 187.04,-359.45 190.5,-353.36"/>
</g>
<!-- BB11 -->
<g id="node12" class="node">
<title>BB11</title>
<ellipse fill="none" stroke="black" cx="347.14" cy="-180.25" rx="103.48" ry="48.17"/>
<text text-anchor="middle" x="347.14" y="-199.05" font-family="Times New Roman,serif" font-size="14.00">[5d..60)</text>
<text text-anchor="middle" x="347.14" y="-184.05" font-family="Times New Roman,serif" font-size="14.00">Count: 3136</text>
<text text-anchor="middle" x="347.14" y="-169.05" font-family="Times New Roman,serif" font-size="14.00">Normalized count: 1.68</text>
<text text-anchor="middle" x="347.14" y="-154.05" font-family="Times New Roman,serif" font-size="14.00">Samples weight: 0.00</text>
</g>
<!-- BB2&#45;&gt;BB11 -->
<g id="edge4" class="edge">
<title>BB2&#45;&gt;BB11</title>
<path fill="none" stroke="black" d="M347.14,-264.05C347.14,-255.79 347.14,-247.1 347.14,-238.6"/>
<polygon fill="black" stroke="black" points="350.64,-238.36 347.14,-228.36 343.64,-238.36 350.64,-238.36"/>
</g>
<!-- BB3&#45;&gt;BB4 -->
<g id="edge5" class="edge">
<title>BB3&#45;&gt;BB4</title>
<path fill="none" stroke="black" d="M130.28,-360.11C147.32,-400.46 177.15,-457.64 220.14,-492.67 256.31,-522.14 303.61,-541.45 346.58,-553.97"/>
<polygon fill="black" stroke="black" points="345.67,-557.35 356.25,-556.7 347.57,-550.61 345.67,-557.35"/>
</g>
<!-- BB4&#45;&gt;BB1 -->
<g id="edge6" class="edge">
<title>BB4&#45;&gt;BB1</title>
<path fill="none" stroke="black" d="M419.53,-531.68C409.72,-520.77 399.13,-508.99 389.01,-497.73"/>
<polygon fill="black" stroke="black" points="391.39,-495.15 382.11,-490.05 386.19,-499.83 391.39,-495.15"/>
</g>
<!-- BB5 -->
<g id="node6" class="node">
<title>BB5</title>
<ellipse fill="none" stroke="black" cx="576.14" cy="-444.58" rx="103.48" ry="48.17"/>
<text text-anchor="middle" x="576.14" y="-463.38" font-family="Times New Roman,serif" font-size="14.00">[2e..37)</text>
<text text-anchor="middle" x="576.14" y="-448.38" font-family="Times New Roman,serif" font-size="14.00">Count: 2373</text>
<text text-anchor="middle" x="576.14" y="-433.38" font-family="Times New Roman,serif" font-size="14.00">Normalized count: 1.27</text>
<text text-anchor="middle" x="576.14" y="-418.38" font-family="Times New Roman,serif" font-size="14.00">Samples weight: 0.00</text>
</g>
<!-- BB4&#45;&gt;BB5 -->
<g id="edge7" class="edge">
<title>BB4&#45;&gt;BB5</title>
<path fill="none" stroke="black" d="M498.75,-531.68C508.86,-520.43 519.82,-508.24 530.22,-496.66"/>
<polygon fill="black" stroke="black" points="532.88,-498.94 536.96,-489.16 527.68,-494.26 532.88,-498.94"/>
</g>
<!-- BB9 -->
<g id="node10" class="node">
<title>BB9</title>
<ellipse fill="none" stroke="black" cx="576.14" cy="-312.42" rx="108.38" ry="48.17"/>
<text text-anchor="middle" x="576.14" y="-331.22" font-family="Times New Roman,serif" font-size="14.00">[50..55)</text>
<text text-anchor="middle" x="576.14" y="-316.22" font-family="Times New Roman,serif" font-size="14.00">Count: 37902</text>
<text text-anchor="middle" x="576.14" y="-301.22" font-family="Times New Roman,serif" font-size="14.00">Normalized count: 20.32</text>
<text text-anchor="middle" x="576.14" y="-286.22" font-family="Times New Roman,serif" font-size="14.00">Samples weight: 0.05</text>
</g>
<!-- BB5&#45;&gt;BB9 -->
<g id="edge8" class="edge">
<title>BB5&#45;&gt;BB9</title>
<path fill="none" stroke="black" d="M576.14,-396.22C576.14,-387.95 576.14,-379.27 576.14,-370.77"/>
<polygon fill="black" stroke="black" points="579.64,-370.52 576.14,-360.52 572.64,-370.52 579.64,-370.52"/>
</g>
<!-- BB6 -->
<g id="node7" class="node">
<title>BB6</title>
<ellipse fill="none" stroke="black" cx="614.14" cy="-180.25" rx="108.38" ry="48.17"/>
<text text-anchor="middle" x="614.14" y="-199.05" font-family="Times New Roman,serif" font-size="14.00">[37..43)</text>
<text text-anchor="middle" x="614.14" y="-184.05" font-family="Times New Roman,serif" font-size="14.00">Count: 35983</text>
<text text-anchor="middle" x="614.14" y="-169.05" font-family="Times New Roman,serif" font-size="14.00">Normalized count: 19.29</text>
<text text-anchor="middle" x="614.14" y="-154.05" font-family="Times New Roman,serif" font-size="14.00">Samples weight: 0.05</text>
</g>
<!-- BB7 -->
<g id="node8" class="node">
<title>BB7</title>
<ellipse fill="none" stroke="black" cx="739.14" cy="-48.08" rx="103.48" ry="48.17"/>
<text text-anchor="middle" x="739.14" y="-66.88" font-family="Times New Roman,serif" font-size="14.00">[43..4c)</text>
<text text-anchor="middle" x="739.14" y="-51.88" font-family="Times New Roman,serif" font-size="14.00">Count: 3048</text>
<text text-anchor="middle" x="739.14" y="-36.88" font-family="Times New Roman,serif" font-size="14.00">Normalized count: 1.63</text>
<text text-anchor="middle" x="739.14" y="-21.88" font-family="Times New Roman,serif" font-size="14.00">Samples weight: 0.00</text>
</g>
<!-- BB6&#45;&gt;BB7 -->
<g id="edge10" class="edge">
<title>BB6&#45;&gt;BB7</title>
<path fill="none" stroke="black" d="M656.11,-135.54C667.15,-124.05 679.15,-111.55 690.51,-99.72"/>
<polygon fill="black" stroke="black" points="693.09,-102.09 697.49,-92.45 688.04,-97.24 693.09,-102.09"/>
</g>
<!-- BB8 -->
<g id="node9" class="node">
<title>BB8</title>
<ellipse fill="none" stroke="black" cx="489.14" cy="-48.08" rx="108.38" ry="48.17"/>
<text text-anchor="middle" x="489.14" y="-66.88" font-family="Times New Roman,serif" font-size="14.00">[4c..50)</text>
<text text-anchor="middle" x="489.14" y="-51.88" font-family="Times New Roman,serif" font-size="14.00">Count: 35234</text>
<text text-anchor="middle" x="489.14" y="-36.88" font-family="Times New Roman,serif" font-size="14.00">Normalized count: 18.89</text>
<text text-anchor="middle" x="489.14" y="-21.88" font-family="Times New Roman,serif" font-size="14.00">Samples weight: 0.05</text>
</g>
<!-- BB6&#45;&gt;BB8 -->
<g id="edge9" class="edge">
<title>BB6&#45;&gt;BB8</title>
<path fill="none" stroke="black" d="M572.17,-135.54C561.34,-124.28 549.6,-112.04 538.44,-100.43"/>
<polygon fill="black" stroke="black" points="540.66,-97.68 531.21,-92.9 535.61,-102.53 540.66,-97.68"/>
</g>
<!-- BB7&#45;&gt;BB4 -->
<g id="edge11" class="edge">
<title>BB7&#45;&gt;BB4</title>
<path fill="none" stroke="black" d="M748.86,-96.21C764.21,-184.85 783.35,-377.77 688.14,-492.67 660.16,-526.43 617.27,-546.47 576.15,-558.37"/>
<polygon fill="black" stroke="black" points="575.02,-555.05 566.3,-561.08 576.87,-561.8 575.02,-555.05"/>
</g>
<!-- BB8&#45;&gt;BB9 -->
<g id="edge12" class="edge">
<title>BB8&#45;&gt;BB9</title>
<path fill="none" stroke="black" d="M482.47,-96.37C479.23,-133.71 479.26,-186.34 497.14,-228.33 502.29,-240.45 510.06,-251.85 518.74,-262.09"/>
<polygon fill="black" stroke="black" points="516.26,-264.57 525.53,-269.7 521.48,-259.91 516.26,-264.57"/>
</g>
<!-- BB9&#45;&gt;BB6 -->
<g id="edge13" class="edge">
<title>BB9&#45;&gt;BB6</title>
<path fill="none" stroke="black" d="M589.86,-264.42C592.36,-255.85 594.99,-246.83 597.57,-238.01"/>
<polygon fill="black" stroke="black" points="601,-238.75 600.44,-228.17 594.28,-236.79 601,-238.75"/>
</g>
<!-- BB10 -->
<g id="node11" class="node">
<title>BB10</title>
<ellipse fill="none" stroke="black" cx="123.14" cy="-180.25" rx="103.48" ry="48.17"/>
<text text-anchor="middle" x="123.14" y="-199.05" font-family="Times New Roman,serif" font-size="14.00">[55..5d)</text>
<text text-anchor="middle" x="123.14" y="-184.05" font-family="Times New Roman,serif" font-size="14.00">Count: 3136</text>
<text text-anchor="middle" x="123.14" y="-169.05" font-family="Times New Roman,serif" font-size="14.00">Normalized count: 1.68</text>
<text text-anchor="middle" x="123.14" y="-154.05" font-family="Times New Roman,serif" font-size="14.00">Samples weight: 0.00</text>
</g>
<!-- BB9&#45;&gt;BB10 -->
<g id="edge14" class="edge">
<title>BB9&#45;&gt;BB10</title>
<path fill="none" stroke="black" d="M500.2,-278.02C486.7,-272.9 472.64,-268.08 459.14,-264.33 361.98,-237.34 332.08,-256.07 235.14,-228.33 225.22,-225.5 215.01,-222.03 204.98,-218.27"/>
<polygon fill="black" stroke="black" points="206.02,-214.92 195.43,-214.59 203.51,-221.45 206.02,-214.92"/>
</g>
<!-- BB10&#45;&gt;BB11 -->
<g id="edge15" class="edge">
<title>BB10&#45;&gt;BB11</title>
<path fill="none" stroke="black" d="M226.39,-180.25C228.84,-180.25 231.3,-180.25 233.75,-180.25"/>
<polygon fill="black" stroke="black" points="233.84,-183.75 243.84,-180.25 233.84,-176.75 233.84,-183.75"/>
</g>
</g>
</svg>
