<?xml version="1.0" encoding="UTF-8" standalone="no"?>
<!DOCTYPE svg PUBLIC "-//W3C//DTD SVG 1.1//EN"
 "http://www.w3.org/Graphics/SVG/1.1/DTD/svg11.dtd">
<!-- Generated by graphviz version 2.47.0 (20210316.0004)
 -->
<!-- Title: G Pages: 1 -->
<svg width="497pt" height="527pt"
 viewBox="0.00 0.00 496.71 526.77" xmlns="http://www.w3.org/2000/svg" xmlns:xlink="http://www.w3.org/1999/xlink">
<g id="graph0" class="graph" transform="scale(1 1) rotate(0) translate(4 522.77)">
<title>G</title>
<polygon fill="white" stroke="transparent" points="-4,4 -4,-522.77 492.71,-522.77 492.71,4 -4,4"/>
<!-- BB0 -->
<g id="node1" class="node">
<title>BB0</title>
<ellipse fill="none" stroke="black" cx="149.35" cy="-481.29" rx="105.22" ry="37.45"/>
<text text-anchor="middle" x="149.35" y="-492.59" font-family="Times New Roman,serif" font-size="14.00">[0..11)</text>
<text text-anchor="middle" x="149.35" y="-477.59" font-family="Times New Roman,serif" font-size="14.00">Normalized Count: 1.00</text>
<text text-anchor="middle" x="149.35" y="-462.59" font-family="Times New Roman,serif" font-size="14.00">Samples weight: 0.00</text>
</g>
<!-- BB5 -->
<g id="node6" class="node">
<title>BB5</title>
<ellipse fill="none" stroke="black" cx="149.35" cy="-370.34" rx="110.12" ry="37.45"/>
<text text-anchor="middle" x="149.35" y="-381.64" font-family="Times New Roman,serif" font-size="14.00">[56..5a)</text>
<text text-anchor="middle" x="149.35" y="-366.64" font-family="Times New Roman,serif" font-size="14.00">Normalized Count: 72.00</text>
<text text-anchor="middle" x="149.35" y="-351.64" font-family="Times New Roman,serif" font-size="14.00">Samples weight: 0.25</text>
</g>
<!-- BB0&#45;&gt;BB5 -->
<g id="edge1" class="edge">
<title>BB0&#45;&gt;BB5</title>
<path fill="none" stroke="black" d="M149.35,-443.71C149.35,-435.53 149.35,-426.75 149.35,-418.23"/>
<polygon fill="black" stroke="black" points="152.85,-418.01 149.35,-408.01 145.85,-418.01 152.85,-418.01"/>
</g>
<!-- BB1 -->
<g id="node2" class="node">
<title>BB1</title>
<ellipse fill="none" stroke="black" cx="149.35" cy="-259.38" rx="110.12" ry="37.45"/>
<text text-anchor="middle" x="149.35" y="-270.68" font-family="Times New Roman,serif" font-size="14.00">[11..30)</text>
<text text-anchor="middle" x="149.35" y="-255.68" font-family="Times New Roman,serif" font-size="14.00">Normalized Count: 71.00</text>
<text text-anchor="middle" x="149.35" y="-240.68" font-family="Times New Roman,serif" font-size="14.00">Samples weight: 0.25</text>
</g>
<!-- BB2 -->
<g id="node3" class="node">
<title>BB2</title>
<ellipse fill="none" stroke="black" cx="149.35" cy="-148.43" rx="110.12" ry="37.45"/>
<text text-anchor="middle" x="149.35" y="-159.73" font-family="Times New Roman,serif" font-size="14.00">[30..40)</text>
<text text-anchor="middle" x="149.35" y="-144.73" font-family="Times New Roman,serif" font-size="14.00">Normalized Count: 71.00</text>
<text text-anchor="middle" x="149.35" y="-129.73" font-family="Times New Roman,serif" font-size="14.00">Samples weight: 0.25</text>
</g>
<!-- BB1&#45;&gt;BB2 -->
<g id="edge3" class="edge">
<title>BB1&#45;&gt;BB2</title>
<path fill="none" stroke="black" d="M149.35,-221.8C149.35,-213.63 149.35,-204.85 149.35,-196.32"/>
<polygon fill="black" stroke="black" points="152.85,-196.1 149.35,-186.1 145.85,-196.1 152.85,-196.1"/>
</g>
<!-- BB3 -->
<g id="node4" class="node">
<title>BB3</title>
<ellipse fill="none" stroke="black" cx="383.35" cy="-148.43" rx="105.22" ry="37.45"/>
<text text-anchor="middle" x="383.35" y="-159.73" font-family="Times New Roman,serif" font-size="14.00">[40..52)</text>
<text text-anchor="middle" x="383.35" y="-144.73" font-family="Times New Roman,serif" font-size="14.00">Normalized Count: 0.00</text>
<text text-anchor="middle" x="383.35" y="-129.73" font-family="Times New Roman,serif" font-size="14.00">Samples weight: 0.00</text>
</g>
<!-- BB1&#45;&gt;BB3 -->
<g id="edge2" class="edge">
<title>BB1&#45;&gt;BB3</title>
<path fill="none" stroke="black" d="M212.99,-228.76C243.41,-214.59 279.96,-197.57 311.4,-182.93"/>
<polygon fill="black" stroke="black" points="312.96,-186.07 320.54,-178.67 310,-179.72 312.96,-186.07"/>
</g>
<!-- BB4 -->
<g id="node5" class="node">
<title>BB4</title>
<ellipse fill="none" stroke="black" cx="149.35" cy="-37.48" rx="110.12" ry="37.45"/>
<text text-anchor="middle" x="149.35" y="-48.78" font-family="Times New Roman,serif" font-size="14.00">[52..56)</text>
<text text-anchor="middle" x="149.35" y="-33.78" font-family="Times New Roman,serif" font-size="14.00">Normalized Count: 71.00</text>
<text text-anchor="middle" x="149.35" y="-18.78" font-family="Times New Roman,serif" font-size="14.00">Samples weight: 0.25</text>
</g>
<!-- BB2&#45;&gt;BB4 -->
<g id="edge4" class="edge">
<title>BB2&#45;&gt;BB4</title>
<path fill="none" stroke="black" d="M149.35,-110.85C149.35,-102.67 149.35,-93.89 149.35,-85.37"/>
<polygon fill="black" stroke="black" points="152.85,-85.15 149.35,-75.15 145.85,-85.15 152.85,-85.15"/>
</g>
<!-- BB3&#45;&gt;BB4 -->
<g id="edge5" class="edge">
<title>BB3&#45;&gt;BB4</title>
<path fill="none" stroke="black" d="M320.65,-118.23C290.33,-104.12 253.78,-87.1 222.23,-72.41"/>
<polygon fill="black" stroke="black" points="223.59,-69.18 213.05,-68.13 220.64,-75.53 223.59,-69.18"/>
</g>
<!-- BB4&#45;&gt;BB5 -->
<g id="edge6" class="edge">
<title>BB4&#45;&gt;BB5</title>
<path fill="none" stroke="black" d="M77.9,-66.25C59.09,-77.22 41.08,-91.87 30.35,-110.95 -10.12,-182.99 -10.12,-224.83 30.35,-296.86 39.4,-312.96 53.64,-325.91 69.16,-336.15"/>
<polygon fill="black" stroke="black" points="67.55,-339.27 77.9,-341.56 71.24,-333.32 67.55,-339.27"/>
</g>
<!-- BB5&#45;&gt;BB1 -->
<g id="edge7" class="edge">
<title>BB5&#45;&gt;BB1</title>
<path fill="none" stroke="black" d="M149.35,-332.75C149.35,-324.58 149.35,-315.8 149.35,-307.27"/>
<polygon fill="black" stroke="black" points="152.85,-307.06 149.35,-297.06 145.85,-307.06 152.85,-307.06"/>
</g>
<!-- BB6 -->
<g id="node7" class="node">
<title>BB6</title>
<ellipse fill="none" stroke="black" cx="383.35" cy="-259.38" rx="105.22" ry="37.45"/>
<text text-anchor="middle" x="383.35" y="-270.68" font-family="Times New Roman,serif" font-size="14.00">[5a..5b)</text>
<text text-anchor="middle" x="383.35" y="-255.68" font-family="Times New Roman,serif" font-size="14.00">Normalized Count: 1.00</text>
<text text-anchor="middle" x="383.35" y="-240.68" font-family="Times New Roman,serif" font-size="14.00">Samples weight: 0.00</text>
</g>
<!-- BB5&#45;&gt;BB6 -->
<g id="edge8" class="edge">
<title>BB5&#45;&gt;BB6</title>
<path fill="none" stroke="black" d="M212.99,-339.71C243.41,-325.54 279.96,-308.52 311.4,-293.89"/>
<polygon fill="black" stroke="black" points="312.96,-297.02 320.54,-289.63 310,-290.68 312.96,-297.02"/>
</g>
</g>
</svg>
