<?xml version="1.0" encoding="UTF-8" standalone="no"?>
<!DOCTYPE svg PUBLIC "-//W3C//DTD SVG 1.1//EN"
 "http://www.w3.org/Graphics/SVG/1.1/DTD/svg11.dtd">
<!-- Generated by graphviz version 2.47.0 (20210316.0004)
 -->
<!-- Title: G Pages: 1 -->
<svg width="515pt" height="501pt"
 viewBox="0.00 0.00 514.57 500.67" xmlns="http://www.w3.org/2000/svg" xmlns:xlink="http://www.w3.org/1999/xlink">
<g id="graph0" class="graph" transform="scale(1 1) rotate(0) translate(4 496.67)">
<title>G</title>
<polygon fill="white" stroke="transparent" points="-4,4 -4,-496.67 510.57,-496.67 510.57,4 -4,4"/>
<!-- BB0 -->
<g id="node1" class="node">
<title>BB0</title>
<ellipse fill="none" stroke="black" cx="197.33" cy="-444.58" rx="103.48" ry="48.17"/>
<text text-anchor="middle" x="197.33" y="-463.38" font-family="Times New Roman,serif" font-size="14.00">[0..30)</text>
<text text-anchor="middle" x="197.33" y="-448.38" font-family="Times New Roman,serif" font-size="14.00">Count: 2</text>
<text text-anchor="middle" x="197.33" y="-433.38" font-family="Times New Roman,serif" font-size="14.00">Normalized count: 1.00</text>
<text text-anchor="middle" x="197.33" y="-418.38" font-family="Times New Roman,serif" font-size="14.00">Samples weight: 0.00</text>
</g>
<!-- BB3 -->
<g id="node4" class="node">
<title>BB3</title>
<ellipse fill="none" stroke="black" cx="197.33" cy="-312.42" rx="122.16" ry="48.17"/>
<text text-anchor="middle" x="197.33" y="-331.22" font-family="Times New Roman,serif" font-size="14.00">[57..60)</text>
<text text-anchor="middle" x="197.33" y="-316.22" font-family="Times New Roman,serif" font-size="14.00">Count: 26595</text>
<text text-anchor="middle" x="197.33" y="-301.22" font-family="Times New Roman,serif" font-size="14.00">Normalized count: 13297.50</text>
<text text-anchor="middle" x="197.33" y="-286.22" font-family="Times New Roman,serif" font-size="14.00">Samples weight: 0.50</text>
</g>
<!-- BB0&#45;&gt;BB3 -->
<g id="edge1" class="edge">
<title>BB0&#45;&gt;BB3</title>
<path fill="none" stroke="black" d="M197.33,-396.22C197.33,-387.95 197.33,-379.27 197.33,-370.77"/>
<polygon fill="black" stroke="black" points="200.83,-370.52 197.33,-360.52 193.83,-370.52 200.83,-370.52"/>
</g>
<!-- BB1 -->
<g id="node2" class="node">
<title>BB1</title>
<ellipse fill="none" stroke="black" cx="122.33" cy="-180.25" rx="122.16" ry="48.17"/>
<text text-anchor="middle" x="122.33" y="-199.05" font-family="Times New Roman,serif" font-size="14.00">[30..53)</text>
<text text-anchor="middle" x="122.33" y="-184.05" font-family="Times New Roman,serif" font-size="14.00">Count: 26593</text>
<text text-anchor="middle" x="122.33" y="-169.05" font-family="Times New Roman,serif" font-size="14.00">Normalized count: 13296.50</text>
<text text-anchor="middle" x="122.33" y="-154.05" font-family="Times New Roman,serif" font-size="14.00">Samples weight: 0.50</text>
</g>
<!-- BB2 -->
<g id="node3" class="node">
<title>BB2</title>
<ellipse fill="none" stroke="black" cx="197.33" cy="-48.08" rx="103.48" ry="48.17"/>
<text text-anchor="middle" x="197.33" y="-66.88" font-family="Times New Roman,serif" font-size="14.00">[53..57)</text>
<text text-anchor="middle" x="197.33" y="-51.88" font-family="Times New Roman,serif" font-size="14.00">Count: 0</text>
<text text-anchor="middle" x="197.33" y="-36.88" font-family="Times New Roman,serif" font-size="14.00">Normalized count: 0.00</text>
<text text-anchor="middle" x="197.33" y="-21.88" font-family="Times New Roman,serif" font-size="14.00">Samples weight: 0.00</text>
</g>
<!-- BB1&#45;&gt;BB2 -->
<g id="edge3" class="edge">
<title>BB1&#45;&gt;BB2</title>
<path fill="none" stroke="black" d="M148.98,-132.99C154.46,-123.48 160.28,-113.38 165.91,-103.61"/>
<polygon fill="black" stroke="black" points="169.05,-105.17 171.01,-94.75 162.99,-101.67 169.05,-105.17"/>
</g>
<!-- BB1&#45;&gt;BB3 -->
<g id="edge2" class="edge">
<title>BB1&#45;&gt;BB3</title>
<path fill="none" stroke="black" d="M154.97,-226.68C160.69,-236.12 166.56,-246.18 172.05,-255.94"/>
<polygon fill="black" stroke="black" points="169.05,-257.75 176.97,-264.79 175.17,-254.35 169.05,-257.75"/>
</g>
<!-- BB2&#45;&gt;BB3 -->
<g id="edge4" class="edge">
<title>BB2&#45;&gt;BB3</title>
<path fill="none" stroke="black" d="M234,-93.15C241.92,-105.1 249.16,-118.53 253.33,-132.17 265.82,-173.04 265.82,-187.46 253.33,-228.33 250.25,-238.42 245.49,-248.39 240.01,-257.73"/>
<polygon fill="black" stroke="black" points="236.88,-256.13 234.58,-266.47 242.83,-259.83 236.88,-256.13"/>
</g>
<!-- BB3&#45;&gt;BB1 -->
<g id="edge5" class="edge">
<title>BB3&#45;&gt;BB1</title>
<path fill="none" stroke="black" d="M164.63,-265.89C158.92,-256.46 153.06,-246.43 147.59,-236.69"/>
<polygon fill="black" stroke="black" points="150.6,-234.89 142.68,-227.85 144.48,-238.29 150.6,-234.89"/>
</g>
<!-- BB4 -->
<g id="node5" class="node">
<title>BB4</title>
<ellipse fill="none" stroke="black" cx="403.33" cy="-180.25" rx="103.48" ry="48.17"/>
<text text-anchor="middle" x="403.33" y="-199.05" font-family="Times New Roman,serif" font-size="14.00">[60..72)</text>
<text text-anchor="middle" x="403.33" y="-184.05" font-family="Times New Roman,serif" font-size="14.00">Count: 2</text>
<text text-anchor="middle" x="403.33" y="-169.05" font-family="Times New Roman,serif" font-size="14.00">Normalized count: 1.00</text>
<text text-anchor="middle" x="403.33" y="-154.05" font-family="Times New Roman,serif" font-size="14.00">Samples weight: 0.00</text>
</g>
<!-- BB3&#45;&gt;BB4 -->
<g id="edge6" class="edge">
<title>BB3&#45;&gt;BB4</title>
<path fill="none" stroke="black" d="M260.82,-271.3C284.09,-256.6 310.53,-239.89 334.26,-224.89"/>
<polygon fill="black" stroke="black" points="336.29,-227.75 342.87,-219.45 332.55,-221.84 336.29,-227.75"/>
</g>
</g>
</svg>
