<?xml version="1.0" encoding="UTF-8" standalone="no"?>
<!DOCTYPE svg PUBLIC "-//W3C//DTD SVG 1.1//EN"
 "http://www.w3.org/Graphics/SVG/1.1/DTD/svg11.dtd">
<!-- Generated by graphviz version 2.47.0 (20210316.0004)
 -->
<!-- Title: G Pages: 1 -->
<svg width="714pt" height="749pt"
 viewBox="0.00 0.00 713.72 748.67" xmlns="http://www.w3.org/2000/svg" xmlns:xlink="http://www.w3.org/1999/xlink">
<g id="graph0" class="graph" transform="scale(1 1) rotate(0) translate(4 744.67)">
<title>G</title>
<polygon fill="white" stroke="transparent" points="-4,4 -4,-744.67 709.72,-744.67 709.72,4 -4,4"/>
<!-- BB0 -->
<g id="node1" class="node">
<title>BB0</title>
<ellipse fill="none" stroke="black" cx="467.36" cy="-703.2" rx="105.22" ry="37.45"/>
<text text-anchor="middle" x="467.36" y="-714.5" font-family="Times New Roman,serif" font-size="14.00">[0..4)</text>
<text text-anchor="middle" x="467.36" y="-699.5" font-family="Times New Roman,serif" font-size="14.00">Normalized Count: 1.00</text>
<text text-anchor="middle" x="467.36" y="-684.5" font-family="Times New Roman,serif" font-size="14.00">Samples weight: 0.01</text>
</g>
<!-- BB8 -->
<g id="node9" class="node">
<title>BB8</title>
<ellipse fill="none" stroke="black" cx="467.36" cy="-592.24" rx="110.12" ry="37.45"/>
<text text-anchor="middle" x="467.36" y="-603.54" font-family="Times New Roman,serif" font-size="14.00">[50..55)</text>
<text text-anchor="middle" x="467.36" y="-588.54" font-family="Times New Roman,serif" font-size="14.00">Normalized Count: 45.00</text>
<text text-anchor="middle" x="467.36" y="-573.54" font-family="Times New Roman,serif" font-size="14.00">Samples weight: 0.31</text>
</g>
<!-- BB0&#45;&gt;BB8 -->
<g id="edge1" class="edge">
<title>BB0&#45;&gt;BB8</title>
<path fill="none" stroke="black" d="M467.36,-665.61C467.36,-657.44 467.36,-648.66 467.36,-640.13"/>
<polygon fill="black" stroke="black" points="470.86,-639.92 467.36,-629.92 463.86,-639.92 470.86,-639.92"/>
</g>
<!-- BB1 -->
<g id="node2" class="node">
<title>BB1</title>
<ellipse fill="none" stroke="black" cx="329.36" cy="-481.29" rx="110.12" ry="37.45"/>
<text text-anchor="middle" x="329.36" y="-492.59" font-family="Times New Roman,serif" font-size="14.00">[4..15)</text>
<text text-anchor="middle" x="329.36" y="-477.59" font-family="Times New Roman,serif" font-size="14.00">Normalized Count: 44.00</text>
<text text-anchor="middle" x="329.36" y="-462.59" font-family="Times New Roman,serif" font-size="14.00">Samples weight: 0.30</text>
</g>
<!-- BB2 -->
<g id="node3" class="node">
<title>BB2</title>
<ellipse fill="none" stroke="black" cx="233.36" cy="-370.34" rx="105.22" ry="37.45"/>
<text text-anchor="middle" x="233.36" y="-381.64" font-family="Times New Roman,serif" font-size="14.00">[15..1f)</text>
<text text-anchor="middle" x="233.36" y="-366.64" font-family="Times New Roman,serif" font-size="14.00">Normalized Count: 3.00</text>
<text text-anchor="middle" x="233.36" y="-351.64" font-family="Times New Roman,serif" font-size="14.00">Samples weight: 0.02</text>
</g>
<!-- BB1&#45;&gt;BB2 -->
<g id="edge3" class="edge">
<title>BB1&#45;&gt;BB2</title>
<path fill="none" stroke="black" d="M298.46,-445.22C289.72,-435.3 280.12,-424.4 271.03,-414.09"/>
<polygon fill="black" stroke="black" points="273.44,-411.53 264.2,-406.34 268.19,-416.16 273.44,-411.53"/>
</g>
<!-- BB7 -->
<g id="node8" class="node">
<title>BB7</title>
<ellipse fill="none" stroke="black" cx="467.36" cy="-370.34" rx="110.12" ry="37.45"/>
<text text-anchor="middle" x="467.36" y="-381.64" font-family="Times New Roman,serif" font-size="14.00">[4c..50)</text>
<text text-anchor="middle" x="467.36" y="-366.64" font-family="Times New Roman,serif" font-size="14.00">Normalized Count: 44.00</text>
<text text-anchor="middle" x="467.36" y="-351.64" font-family="Times New Roman,serif" font-size="14.00">Samples weight: 0.30</text>
</g>
<!-- BB1&#45;&gt;BB7 -->
<g id="edge2" class="edge">
<title>BB1&#45;&gt;BB7</title>
<path fill="none" stroke="black" d="M372.27,-446.41C386.29,-435.35 401.99,-422.95 416.54,-411.46"/>
<polygon fill="black" stroke="black" points="418.8,-414.14 424.48,-405.19 414.46,-408.64 418.8,-414.14"/>
</g>
<!-- BB3 -->
<g id="node4" class="node">
<title>BB3</title>
<ellipse fill="none" stroke="black" cx="233.36" cy="-259.38" rx="105.22" ry="37.45"/>
<text text-anchor="middle" x="233.36" y="-270.68" font-family="Times New Roman,serif" font-size="14.00">[1f..31)</text>
<text text-anchor="middle" x="233.36" y="-255.68" font-family="Times New Roman,serif" font-size="14.00">Normalized Count: 3.00</text>
<text text-anchor="middle" x="233.36" y="-240.68" font-family="Times New Roman,serif" font-size="14.00">Samples weight: 0.02</text>
</g>
<!-- BB2&#45;&gt;BB3 -->
<g id="edge5" class="edge">
<title>BB2&#45;&gt;BB3</title>
<path fill="none" stroke="black" d="M233.36,-332.75C233.36,-324.58 233.36,-315.8 233.36,-307.27"/>
<polygon fill="black" stroke="black" points="236.86,-307.06 233.36,-297.06 229.86,-307.06 236.86,-307.06"/>
</g>
<!-- BB2&#45;&gt;BB7 -->
<g id="edge4" class="edge">
<title>BB2&#45;&gt;BB7</title>
<path fill="none" stroke="black" d="M338.93,-370.34C341.57,-370.34 344.2,-370.34 346.83,-370.34"/>
<polygon fill="black" stroke="black" points="346.99,-373.84 356.99,-370.34 346.99,-366.84 346.99,-373.84"/>
</g>
<!-- BB4 -->
<g id="node5" class="node">
<title>BB4</title>
<ellipse fill="none" stroke="black" cx="105.36" cy="-148.43" rx="105.22" ry="37.45"/>
<text text-anchor="middle" x="105.36" y="-159.73" font-family="Times New Roman,serif" font-size="14.00">[31..34)</text>
<text text-anchor="middle" x="105.36" y="-144.73" font-family="Times New Roman,serif" font-size="14.00">Normalized Count: 3.00</text>
<text text-anchor="middle" x="105.36" y="-129.73" font-family="Times New Roman,serif" font-size="14.00">Samples weight: 0.02</text>
</g>
<!-- BB3&#45;&gt;BB4 -->
<g id="edge7" class="edge">
<title>BB3&#45;&gt;BB4</title>
<path fill="none" stroke="black" d="M193.56,-224.51C180.68,-213.54 166.26,-201.27 152.87,-189.88"/>
<polygon fill="black" stroke="black" points="155.02,-187.1 145.13,-183.29 150.48,-192.43 155.02,-187.1"/>
</g>
<!-- BB5 -->
<g id="node6" class="node">
<title>BB5</title>
<ellipse fill="none" stroke="black" cx="334.36" cy="-148.43" rx="105.22" ry="37.45"/>
<text text-anchor="middle" x="334.36" y="-159.73" font-family="Times New Roman,serif" font-size="14.00">[34..44)</text>
<text text-anchor="middle" x="334.36" y="-144.73" font-family="Times New Roman,serif" font-size="14.00">Normalized Count: 0.00</text>
<text text-anchor="middle" x="334.36" y="-129.73" font-family="Times New Roman,serif" font-size="14.00">Samples weight: 0.00</text>
</g>
<!-- BB3&#45;&gt;BB5 -->
<g id="edge6" class="edge">
<title>BB3&#45;&gt;BB5</title>
<path fill="none" stroke="black" d="M265.59,-223.61C274.98,-213.49 285.33,-202.32 295.1,-191.78"/>
<polygon fill="black" stroke="black" points="297.85,-193.96 302.08,-184.25 292.72,-189.2 297.85,-193.96"/>
</g>
<!-- BB4&#45;&gt;BB5 -->
<g id="edge9" class="edge">
<title>BB4&#45;&gt;BB5</title>
<path fill="none" stroke="black" d="M210.91,-148.43C213.52,-148.43 216.12,-148.43 218.72,-148.43"/>
<polygon fill="black" stroke="black" points="218.76,-151.93 228.76,-148.43 218.76,-144.93 218.76,-151.93"/>
</g>
<!-- BB6 -->
<g id="node7" class="node">
<title>BB6</title>
<ellipse fill="none" stroke="black" cx="286.36" cy="-37.48" rx="105.22" ry="37.45"/>
<text text-anchor="middle" x="286.36" y="-48.78" font-family="Times New Roman,serif" font-size="14.00">[44..4c)</text>
<text text-anchor="middle" x="286.36" y="-33.78" font-family="Times New Roman,serif" font-size="14.00">Normalized Count: 3.00</text>
<text text-anchor="middle" x="286.36" y="-18.78" font-family="Times New Roman,serif" font-size="14.00">Samples weight: 0.02</text>
</g>
<!-- BB4&#45;&gt;BB6 -->
<g id="edge8" class="edge">
<title>BB4&#45;&gt;BB6</title>
<path fill="none" stroke="black" d="M158.2,-115.62C179.11,-103.04 203.28,-88.48 224.96,-75.43"/>
<polygon fill="black" stroke="black" points="227,-78.29 233.77,-70.13 223.39,-72.29 227,-78.29"/>
</g>
<!-- BB6&#45;&gt;BB7 -->
<g id="edge10" class="edge">
<title>BB6&#45;&gt;BB7</title>
<path fill="none" stroke="black" d="M374.22,-58.48C402.36,-69.32 430.75,-85.86 448.36,-110.95 492.38,-173.7 486.21,-267.39 477.17,-323.03"/>
<polygon fill="black" stroke="black" points="473.71,-322.51 475.46,-332.96 480.61,-323.7 473.71,-322.51"/>
</g>
<!-- BB7&#45;&gt;BB8 -->
<g id="edge11" class="edge">
<title>BB7&#45;&gt;BB8</title>
<path fill="none" stroke="black" d="M467.36,-407.9C467.36,-445.26 467.36,-503.43 467.36,-544.21"/>
<polygon fill="black" stroke="black" points="463.86,-544.44 467.36,-554.44 470.86,-544.44 463.86,-544.44"/>
</g>
<!-- BB8&#45;&gt;BB1 -->
<g id="edge12" class="edge">
<title>BB8&#45;&gt;BB1</title>
<path fill="none" stroke="black" d="M424.45,-557.37C410.43,-546.3 394.73,-533.9 380.18,-522.42"/>
<polygon fill="black" stroke="black" points="382.26,-519.59 372.24,-516.15 377.92,-525.09 382.26,-519.59"/>
</g>
<!-- BB9 -->
<g id="node10" class="node">
<title>BB9</title>
<ellipse fill="none" stroke="black" cx="600.36" cy="-481.29" rx="105.22" ry="37.45"/>
<text text-anchor="middle" x="600.36" y="-492.59" font-family="Times New Roman,serif" font-size="14.00">[55..65)</text>
<text text-anchor="middle" x="600.36" y="-477.59" font-family="Times New Roman,serif" font-size="14.00">Normalized Count: 1.00</text>
<text text-anchor="middle" x="600.36" y="-462.59" font-family="Times New Roman,serif" font-size="14.00">Samples weight: 0.01</text>
</g>
<!-- BB8&#45;&gt;BB9 -->
<g id="edge13" class="edge">
<title>BB8&#45;&gt;BB9</title>
<path fill="none" stroke="black" d="M508.71,-557.37C522.1,-546.4 537.08,-534.13 550.99,-522.74"/>
<polygon fill="black" stroke="black" points="553.51,-525.19 559.03,-516.15 549.08,-519.77 553.51,-525.19"/>
</g>
</g>
</svg>
