<?xml version="1.0" encoding="UTF-8" standalone="no"?>
<!DOCTYPE svg PUBLIC "-//W3C//DTD SVG 1.1//EN"
 "http://www.w3.org/Graphics/SVG/1.1/DTD/svg11.dtd">
<!-- Generated by graphviz version 2.47.0 (20210316.0004)
 -->
<!-- Title: G Pages: 1 -->
<svg width="954pt" height="765pt"
 viewBox="0.00 0.00 954.50 765.00" xmlns="http://www.w3.org/2000/svg" xmlns:xlink="http://www.w3.org/1999/xlink">
<g id="graph0" class="graph" transform="scale(1 1) rotate(0) translate(4 761)">
<title>G</title>
<polygon fill="white" stroke="transparent" points="-4,4 -4,-761 950.5,-761 950.5,4 -4,4"/>
<!-- BB0 -->
<g id="node1" class="node">
<title>BB0</title>
<ellipse fill="none" stroke="black" cx="385.84" cy="-708.92" rx="104.8" ry="48.17"/>
<text text-anchor="middle" x="385.84" y="-727.72" font-family="Times New Roman,serif" font-size="14.00">[0..4)</text>
<text text-anchor="middle" x="385.84" y="-712.72" font-family="Times New Roman,serif" font-size="14.00">Count: 0</text>
<text text-anchor="middle" x="385.84" y="-697.72" font-family="Times New Roman,serif" font-size="14.00">Normalized count: NaN</text>
<text text-anchor="middle" x="385.84" y="-682.72" font-family="Times New Roman,serif" font-size="14.00">Samples weight: 0.00</text>
</g>
<!-- BB4 -->
<g id="node5" class="node">
<title>BB4</title>
<ellipse fill="none" stroke="black" cx="385.84" cy="-576.75" rx="113.69" ry="48.17"/>
<text text-anchor="middle" x="385.84" y="-595.55" font-family="Times New Roman,serif" font-size="14.00">[1f..2a)</text>
<text text-anchor="middle" x="385.84" y="-580.55" font-family="Times New Roman,serif" font-size="14.00">Count: 29</text>
<text text-anchor="middle" x="385.84" y="-565.55" font-family="Times New Roman,serif" font-size="14.00">Normalized count: Infinity</text>
<text text-anchor="middle" x="385.84" y="-550.55" font-family="Times New Roman,serif" font-size="14.00">Samples weight: 0.16</text>
</g>
<!-- BB0&#45;&gt;BB4 -->
<g id="edge1" class="edge">
<title>BB0&#45;&gt;BB4</title>
<path fill="none" stroke="black" d="M385.84,-660.55C385.84,-652.29 385.84,-643.6 385.84,-635.1"/>
<polygon fill="black" stroke="black" points="389.34,-634.86 385.84,-624.86 382.34,-634.86 389.34,-634.86"/>
</g>
<!-- BB1 -->
<g id="node2" class="node">
<title>BB1</title>
<ellipse fill="none" stroke="black" cx="243.84" cy="-444.58" rx="113.69" ry="48.17"/>
<text text-anchor="middle" x="243.84" y="-463.38" font-family="Times New Roman,serif" font-size="14.00">[4..10)</text>
<text text-anchor="middle" x="243.84" y="-448.38" font-family="Times New Roman,serif" font-size="14.00">Count: 94</text>
<text text-anchor="middle" x="243.84" y="-433.38" font-family="Times New Roman,serif" font-size="14.00">Normalized count: Infinity</text>
<text text-anchor="middle" x="243.84" y="-418.38" font-family="Times New Roman,serif" font-size="14.00">Samples weight: 0.53</text>
</g>
<!-- BB2 -->
<g id="node3" class="node">
<title>BB2</title>
<ellipse fill="none" stroke="black" cx="113.84" cy="-312.42" rx="113.69" ry="48.17"/>
<text text-anchor="middle" x="113.84" y="-331.22" font-family="Times New Roman,serif" font-size="14.00">[10..1b)</text>
<text text-anchor="middle" x="113.84" y="-316.22" font-family="Times New Roman,serif" font-size="14.00">Count: 18</text>
<text text-anchor="middle" x="113.84" y="-301.22" font-family="Times New Roman,serif" font-size="14.00">Normalized count: Infinity</text>
<text text-anchor="middle" x="113.84" y="-286.22" font-family="Times New Roman,serif" font-size="14.00">Samples weight: 0.10</text>
</g>
<!-- BB1&#45;&gt;BB2 -->
<g id="edge3" class="edge">
<title>BB1&#45;&gt;BB2</title>
<path fill="none" stroke="black" d="M200.19,-399.88C188.83,-388.5 176.49,-376.14 164.79,-364.43"/>
<polygon fill="black" stroke="black" points="167.14,-361.83 157.6,-357.23 162.19,-366.78 167.14,-361.83"/>
</g>
<!-- BB3 -->
<g id="node4" class="node">
<title>BB3</title>
<ellipse fill="none" stroke="black" cx="359.84" cy="-312.42" rx="113.69" ry="48.17"/>
<text text-anchor="middle" x="359.84" y="-331.22" font-family="Times New Roman,serif" font-size="14.00">[1b..1f)</text>
<text text-anchor="middle" x="359.84" y="-316.22" font-family="Times New Roman,serif" font-size="14.00">Count: 14</text>
<text text-anchor="middle" x="359.84" y="-301.22" font-family="Times New Roman,serif" font-size="14.00">Normalized count: Infinity</text>
<text text-anchor="middle" x="359.84" y="-286.22" font-family="Times New Roman,serif" font-size="14.00">Samples weight: 0.08</text>
</g>
<!-- BB1&#45;&gt;BB3 -->
<g id="edge2" class="edge">
<title>BB1&#45;&gt;BB3</title>
<path fill="none" stroke="black" d="M283.44,-399.15C293.15,-388.26 303.62,-376.51 313.61,-365.3"/>
<polygon fill="black" stroke="black" points="316.39,-367.44 320.43,-357.65 311.16,-362.78 316.39,-367.44"/>
</g>
<!-- BB2&#45;&gt;BB3 -->
<g id="edge4" class="edge">
<title>BB2&#45;&gt;BB3</title>
<path fill="none" stroke="black" d="M227.72,-312.42C230.35,-312.42 232.98,-312.42 235.62,-312.42"/>
<polygon fill="black" stroke="black" points="235.78,-315.92 245.78,-312.42 235.78,-308.92 235.78,-315.92"/>
</g>
<!-- BB3&#45;&gt;BB4 -->
<g id="edge5" class="edge">
<title>BB3&#45;&gt;BB4</title>
<path fill="none" stroke="black" d="M364.53,-360.68C368.92,-404.96 375.48,-471.21 380.17,-518.47"/>
<polygon fill="black" stroke="black" points="376.7,-518.94 381.17,-528.55 383.66,-518.25 376.7,-518.94"/>
</g>
<!-- BB4&#45;&gt;BB1 -->
<g id="edge6" class="edge">
<title>BB4&#45;&gt;BB1</title>
<path fill="none" stroke="black" d="M338.95,-532.77C325.87,-520.77 311.54,-507.64 298.07,-495.29"/>
<polygon fill="black" stroke="black" points="300.42,-492.7 290.68,-488.52 295.69,-497.86 300.42,-492.7"/>
</g>
<!-- BB5 -->
<g id="node6" class="node">
<title>BB5</title>
<ellipse fill="none" stroke="black" cx="579.84" cy="-444.58" rx="113.69" ry="48.17"/>
<text text-anchor="middle" x="579.84" y="-463.38" font-family="Times New Roman,serif" font-size="14.00">[2a..4e)</text>
<text text-anchor="middle" x="579.84" y="-448.38" font-family="Times New Roman,serif" font-size="14.00">Count: 6</text>
<text text-anchor="middle" x="579.84" y="-433.38" font-family="Times New Roman,serif" font-size="14.00">Normalized count: Infinity</text>
<text text-anchor="middle" x="579.84" y="-418.38" font-family="Times New Roman,serif" font-size="14.00">Samples weight: 0.03</text>
</g>
<!-- BB4&#45;&gt;BB5 -->
<g id="edge7" class="edge">
<title>BB4&#45;&gt;BB5</title>
<path fill="none" stroke="black" d="M445.63,-535.63C466.57,-521.59 490.23,-505.71 511.79,-491.25"/>
<polygon fill="black" stroke="black" points="513.9,-494.04 520.25,-485.57 510,-488.23 513.9,-494.04"/>
</g>
<!-- BB9 -->
<g id="node10" class="node">
<title>BB9</title>
<ellipse fill="none" stroke="black" cx="605.84" cy="-312.42" rx="113.69" ry="48.17"/>
<text text-anchor="middle" x="605.84" y="-331.22" font-family="Times New Roman,serif" font-size="14.00">[5e..66)</text>
<text text-anchor="middle" x="605.84" y="-316.22" font-family="Times New Roman,serif" font-size="14.00">Count: 2</text>
<text text-anchor="middle" x="605.84" y="-301.22" font-family="Times New Roman,serif" font-size="14.00">Normalized count: Infinity</text>
<text text-anchor="middle" x="605.84" y="-286.22" font-family="Times New Roman,serif" font-size="14.00">Samples weight: 0.01</text>
</g>
<!-- BB5&#45;&gt;BB9 -->
<g id="edge8" class="edge">
<title>BB5&#45;&gt;BB9</title>
<path fill="none" stroke="black" d="M589.23,-396.59C590.94,-388.02 592.75,-378.99 594.51,-370.17"/>
<polygon fill="black" stroke="black" points="597.94,-370.83 596.47,-360.34 591.08,-369.46 597.94,-370.83"/>
</g>
<!-- BB6 -->
<g id="node7" class="node">
<title>BB6</title>
<ellipse fill="none" stroke="black" cx="605.84" cy="-180.25" rx="113.69" ry="48.17"/>
<text text-anchor="middle" x="605.84" y="-199.05" font-family="Times New Roman,serif" font-size="14.00">[4e..58)</text>
<text text-anchor="middle" x="605.84" y="-184.05" font-family="Times New Roman,serif" font-size="14.00">Count: 14</text>
<text text-anchor="middle" x="605.84" y="-169.05" font-family="Times New Roman,serif" font-size="14.00">Normalized count: Infinity</text>
<text text-anchor="middle" x="605.84" y="-154.05" font-family="Times New Roman,serif" font-size="14.00">Samples weight: 0.08</text>
</g>
<!-- BB7 -->
<g id="node8" class="node">
<title>BB7</title>
<ellipse fill="none" stroke="black" cx="699.84" cy="-48.08" rx="113.69" ry="48.17"/>
<text text-anchor="middle" x="699.84" y="-66.88" font-family="Times New Roman,serif" font-size="14.00">[58..5a)</text>
<text text-anchor="middle" x="699.84" y="-51.88" font-family="Times New Roman,serif" font-size="14.00">Count: 2</text>
<text text-anchor="middle" x="699.84" y="-36.88" font-family="Times New Roman,serif" font-size="14.00">Normalized count: Infinity</text>
<text text-anchor="middle" x="699.84" y="-21.88" font-family="Times New Roman,serif" font-size="14.00">Samples weight: 0.01</text>
</g>
<!-- BB6&#45;&gt;BB7 -->
<g id="edge10" class="edge">
<title>BB6&#45;&gt;BB7</title>
<path fill="none" stroke="black" d="M638.46,-134.09C645.82,-123.89 653.71,-112.97 661.29,-102.47"/>
<polygon fill="black" stroke="black" points="664.27,-104.32 667.29,-94.16 658.6,-100.22 664.27,-104.32"/>
</g>
<!-- BB8 -->
<g id="node9" class="node">
<title>BB8</title>
<ellipse fill="none" stroke="black" cx="463.84" cy="-48.08" rx="104.8" ry="48.17"/>
<text text-anchor="middle" x="463.84" y="-66.88" font-family="Times New Roman,serif" font-size="14.00">[5a..5e)</text>
<text text-anchor="middle" x="463.84" y="-51.88" font-family="Times New Roman,serif" font-size="14.00">Count: 0</text>
<text text-anchor="middle" x="463.84" y="-36.88" font-family="Times New Roman,serif" font-size="14.00">Normalized count: NaN</text>
<text text-anchor="middle" x="463.84" y="-21.88" font-family="Times New Roman,serif" font-size="14.00">Samples weight: 0.00</text>
</g>
<!-- BB6&#45;&gt;BB8 -->
<g id="edge9" class="edge">
<title>BB6&#45;&gt;BB8</title>
<path fill="none" stroke="black" d="M558.95,-136.27C545.73,-124.15 531.24,-110.86 517.65,-98.4"/>
<polygon fill="black" stroke="black" points="519.94,-95.75 510.2,-91.58 515.21,-100.91 519.94,-95.75"/>
</g>
<!-- BB8&#45;&gt;BB9 -->
<g id="edge11" class="edge">
<title>BB8&#45;&gt;BB9</title>
<path fill="none" stroke="black" d="M458.42,-96.29C456.35,-134.57 458.91,-188.5 482.84,-228.33 492.74,-244.79 507.29,-258.71 522.95,-270.17"/>
<polygon fill="black" stroke="black" points="521.02,-273.09 531.23,-275.93 525.03,-267.34 521.02,-273.09"/>
</g>
<!-- BB9&#45;&gt;BB6 -->
<g id="edge12" class="edge">
<title>BB9&#45;&gt;BB6</title>
<path fill="none" stroke="black" d="M605.84,-264.05C605.84,-255.79 605.84,-247.1 605.84,-238.6"/>
<polygon fill="black" stroke="black" points="609.34,-238.36 605.84,-228.36 602.34,-238.36 609.34,-238.36"/>
</g>
<!-- BB10 -->
<g id="node11" class="node">
<title>BB10</title>
<ellipse fill="none" stroke="black" cx="841.84" cy="-180.25" rx="104.8" ry="48.17"/>
<text text-anchor="middle" x="841.84" y="-199.05" font-family="Times New Roman,serif" font-size="14.00">[66..68)</text>
<text text-anchor="middle" x="841.84" y="-184.05" font-family="Times New Roman,serif" font-size="14.00">Count: 0</text>
<text text-anchor="middle" x="841.84" y="-169.05" font-family="Times New Roman,serif" font-size="14.00">Normalized count: NaN</text>
<text text-anchor="middle" x="841.84" y="-154.05" font-family="Times New Roman,serif" font-size="14.00">Samples weight: 0.00</text>
</g>
<!-- BB9&#45;&gt;BB10 -->
<g id="edge13" class="edge">
<title>BB9&#45;&gt;BB10</title>
<path fill="none" stroke="black" d="M674.11,-273.77C703.1,-257.78 736.99,-239.08 766.7,-222.7"/>
<polygon fill="black" stroke="black" points="768.7,-225.59 775.77,-217.69 765.32,-219.46 768.7,-225.59"/>
</g>
</g>
</svg>
