<?xml version="1.0" encoding="UTF-8" standalone="no"?>
<!DOCTYPE svg PUBLIC "-//W3C//DTD SVG 1.1//EN"
 "http://www.w3.org/Graphics/SVG/1.1/DTD/svg11.dtd">
<!-- Generated by graphviz version 2.47.0 (20210316.0004)
 -->
<!-- Title: G Pages: 1 -->
<svg width="186pt" height="151pt"
 viewBox="0.00 0.00 185.90 151.48" xmlns="http://www.w3.org/2000/svg" xmlns:xlink="http://www.w3.org/1999/xlink">
<g id="graph0" class="graph" transform="scale(1 1) rotate(0) translate(4 147.48)">
<title>G</title>
<polygon fill="white" stroke="transparent" points="-4,4 -4,-147.48 181.9,-147.48 181.9,4 -4,4"/>
<!-- BB0 -->
<g id="node1" class="node">
<title>BB0</title>
<ellipse fill="none" stroke="black" cx="86.48" cy="-116.61" rx="33.47" ry="26.74"/>
<text text-anchor="middle" x="86.48" y="-120.41" font-family="Times New Roman,serif" font-size="14.00">[0..4)</text>
<text text-anchor="middle" x="86.48" y="-105.41" font-family="Times New Roman,serif" font-size="14.00">0.42</text>
</g>
<!-- BB1 -->
<g id="node2" class="node">
<title>BB1</title>
<ellipse fill="none" stroke="black" cx="37.48" cy="-26.87" rx="37.45" ry="26.74"/>
<text text-anchor="middle" x="37.48" y="-30.67" font-family="Times New Roman,serif" font-size="14.00">[4..16)</text>
<text text-anchor="middle" x="37.48" y="-15.67" font-family="Times New Roman,serif" font-size="14.00">0.58</text>
</g>
<!-- BB0&#45;&gt;BB1 -->
<g id="edge2" class="edge">
<title>BB0&#45;&gt;BB1</title>
<path fill="none" stroke="black" d="M73.09,-91.63C67.84,-82.23 61.72,-71.29 56.06,-61.14"/>
<polygon fill="black" stroke="black" points="58.95,-59.15 51.02,-52.12 52.84,-62.56 58.95,-59.15"/>
</g>
<!-- BB2 -->
<g id="node3" class="node">
<title>BB2</title>
<ellipse fill="none" stroke="black" cx="135.48" cy="-26.87" rx="42.35" ry="26.74"/>
<text text-anchor="middle" x="135.48" y="-30.67" font-family="Times New Roman,serif" font-size="14.00">[16..18)</text>
<text text-anchor="middle" x="135.48" y="-15.67" font-family="Times New Roman,serif" font-size="14.00">0.00</text>
</g>
<!-- BB0&#45;&gt;BB2 -->
<g id="edge1" class="edge">
<title>BB0&#45;&gt;BB2</title>
<path fill="none" stroke="black" d="M99.87,-91.63C105.07,-82.31 111.13,-71.47 116.75,-61.39"/>
<polygon fill="black" stroke="black" points="119.94,-62.86 121.76,-52.43 113.83,-59.45 119.94,-62.86"/>
</g>
</g>
</svg>
