<?xml version="1.0" encoding="UTF-8" standalone="no"?>
<!DOCTYPE svg PUBLIC "-//W3C//DTD SVG 1.1//EN"
 "http://www.w3.org/Graphics/SVG/1.1/DTD/svg11.dtd">
<!-- Generated by graphviz version 2.47.0 (20210316.0004)
 -->
<!-- Title: G Pages: 1 -->
<svg width="917pt" height="897pt"
 viewBox="0.00 0.00 917.17 897.17" xmlns="http://www.w3.org/2000/svg" xmlns:xlink="http://www.w3.org/1999/xlink">
<g id="graph0" class="graph" transform="scale(1 1) rotate(0) translate(4 893.17)">
<title>G</title>
<polygon fill="white" stroke="transparent" points="-4,4 -4,-893.17 913.17,-893.17 913.17,4 -4,4"/>
<!-- BB0 -->
<g id="node1" class="node">
<title>BB0</title>
<ellipse fill="none" stroke="black" cx="133.94" cy="-841.08" rx="103.48" ry="48.17"/>
<text text-anchor="middle" x="133.94" y="-859.88" font-family="Times New Roman,serif" font-size="14.00">[0..7)</text>
<text text-anchor="middle" x="133.94" y="-844.88" font-family="Times New Roman,serif" font-size="14.00">Count: 61</text>
<text text-anchor="middle" x="133.94" y="-829.88" font-family="Times New Roman,serif" font-size="14.00">Normalized count: 1.00</text>
<text text-anchor="middle" x="133.94" y="-814.88" font-family="Times New Roman,serif" font-size="14.00">Samples weight: 0.20</text>
</g>
<!-- BB2 -->
<g id="node3" class="node">
<title>BB2</title>
<ellipse fill="none" stroke="black" cx="133.94" cy="-708.92" rx="103.48" ry="48.17"/>
<text text-anchor="middle" x="133.94" y="-727.72" font-family="Times New Roman,serif" font-size="14.00">[37..3b)</text>
<text text-anchor="middle" x="133.94" y="-712.72" font-family="Times New Roman,serif" font-size="14.00">Count: 61</text>
<text text-anchor="middle" x="133.94" y="-697.72" font-family="Times New Roman,serif" font-size="14.00">Normalized count: 1.00</text>
<text text-anchor="middle" x="133.94" y="-682.72" font-family="Times New Roman,serif" font-size="14.00">Samples weight: 0.20</text>
</g>
<!-- BB0&#45;&gt;BB2 -->
<g id="edge1" class="edge">
<title>BB0&#45;&gt;BB2</title>
<path fill="none" stroke="black" d="M133.94,-792.72C133.94,-784.45 133.94,-775.77 133.94,-767.27"/>
<polygon fill="black" stroke="black" points="137.44,-767.02 133.94,-757.02 130.44,-767.02 137.44,-767.02"/>
</g>
<!-- BB1 -->
<g id="node2" class="node">
<title>BB1</title>
<ellipse fill="none" stroke="black" cx="133.94" cy="-576.75" rx="103.48" ry="48.17"/>
<text text-anchor="middle" x="133.94" y="-595.55" font-family="Times New Roman,serif" font-size="14.00">[7..37)</text>
<text text-anchor="middle" x="133.94" y="-580.55" font-family="Times New Roman,serif" font-size="14.00">Count: 0</text>
<text text-anchor="middle" x="133.94" y="-565.55" font-family="Times New Roman,serif" font-size="14.00">Normalized count: 0.00</text>
<text text-anchor="middle" x="133.94" y="-550.55" font-family="Times New Roman,serif" font-size="14.00">Samples weight: 0.00</text>
</g>
<!-- BB1&#45;&gt;BB2 -->
<g id="edge2" class="edge">
<title>BB1&#45;&gt;BB2</title>
<path fill="none" stroke="black" d="M140.46,-625.11C140.68,-633.41 140.74,-642.12 140.64,-650.65"/>
<polygon fill="black" stroke="black" points="137.14,-650.86 140.45,-660.92 144.14,-650.99 137.14,-650.86"/>
</g>
<!-- BB2&#45;&gt;BB1 -->
<g id="edge3" class="edge">
<title>BB2&#45;&gt;BB1</title>
<path fill="none" stroke="black" d="M127.42,-660.92C127.2,-652.55 127.13,-643.74 127.23,-635.11"/>
<polygon fill="black" stroke="black" points="130.73,-635.17 127.41,-625.11 123.73,-635.04 130.73,-635.17"/>
</g>
<!-- BB3 -->
<g id="node4" class="node">
<title>BB3</title>
<ellipse fill="none" stroke="black" cx="357.94" cy="-576.75" rx="103.48" ry="48.17"/>
<text text-anchor="middle" x="357.94" y="-595.55" font-family="Times New Roman,serif" font-size="14.00">[3b..45)</text>
<text text-anchor="middle" x="357.94" y="-580.55" font-family="Times New Roman,serif" font-size="14.00">Count: 61</text>
<text text-anchor="middle" x="357.94" y="-565.55" font-family="Times New Roman,serif" font-size="14.00">Normalized count: 1.00</text>
<text text-anchor="middle" x="357.94" y="-550.55" font-family="Times New Roman,serif" font-size="14.00">Samples weight: 0.20</text>
</g>
<!-- BB2&#45;&gt;BB3 -->
<g id="edge4" class="edge">
<title>BB2&#45;&gt;BB3</title>
<path fill="none" stroke="black" d="M197.53,-670.96C224.95,-655.02 257.18,-636.3 285.52,-619.83"/>
<polygon fill="black" stroke="black" points="287.3,-622.84 294.19,-614.79 283.78,-616.79 287.3,-622.84"/>
</g>
<!-- BB10 -->
<g id="node11" class="node">
<title>BB10</title>
<ellipse fill="none" stroke="black" cx="357.94" cy="-444.58" rx="103.48" ry="48.17"/>
<text text-anchor="middle" x="357.94" y="-463.38" font-family="Times New Roman,serif" font-size="14.00">[9d..a1)</text>
<text text-anchor="middle" x="357.94" y="-448.38" font-family="Times New Roman,serif" font-size="14.00">Count: 61</text>
<text text-anchor="middle" x="357.94" y="-433.38" font-family="Times New Roman,serif" font-size="14.00">Normalized count: 1.00</text>
<text text-anchor="middle" x="357.94" y="-418.38" font-family="Times New Roman,serif" font-size="14.00">Samples weight: 0.20</text>
</g>
<!-- BB3&#45;&gt;BB10 -->
<g id="edge5" class="edge">
<title>BB3&#45;&gt;BB10</title>
<path fill="none" stroke="black" d="M357.94,-528.39C357.94,-520.12 357.94,-511.44 357.94,-502.93"/>
<polygon fill="black" stroke="black" points="361.44,-502.69 357.94,-492.69 354.44,-502.69 361.44,-502.69"/>
</g>
<!-- BB4 -->
<g id="node5" class="node">
<title>BB4</title>
<ellipse fill="none" stroke="black" cx="357.94" cy="-312.42" rx="103.48" ry="48.17"/>
<text text-anchor="middle" x="357.94" y="-331.22" font-family="Times New Roman,serif" font-size="14.00">[45..5b)</text>
<text text-anchor="middle" x="357.94" y="-316.22" font-family="Times New Roman,serif" font-size="14.00">Count: 0</text>
<text text-anchor="middle" x="357.94" y="-301.22" font-family="Times New Roman,serif" font-size="14.00">Normalized count: 0.00</text>
<text text-anchor="middle" x="357.94" y="-286.22" font-family="Times New Roman,serif" font-size="14.00">Samples weight: 0.00</text>
</g>
<!-- BB5 -->
<g id="node6" class="node">
<title>BB5</title>
<ellipse fill="none" stroke="black" cx="133.94" cy="-180.25" rx="103.48" ry="48.17"/>
<text text-anchor="middle" x="133.94" y="-199.05" font-family="Times New Roman,serif" font-size="14.00">[5b..5d)</text>
<text text-anchor="middle" x="133.94" y="-184.05" font-family="Times New Roman,serif" font-size="14.00">Count: 0</text>
<text text-anchor="middle" x="133.94" y="-169.05" font-family="Times New Roman,serif" font-size="14.00">Normalized count: 0.00</text>
<text text-anchor="middle" x="133.94" y="-154.05" font-family="Times New Roman,serif" font-size="14.00">Samples weight: 0.00</text>
</g>
<!-- BB4&#45;&gt;BB5 -->
<g id="edge6" class="edge">
<title>BB4&#45;&gt;BB5</title>
<path fill="none" stroke="black" d="M294.35,-274.46C266.92,-258.52 234.69,-239.8 206.35,-223.33"/>
<polygon fill="black" stroke="black" points="208.09,-220.29 197.68,-218.29 204.57,-226.35 208.09,-220.29"/>
</g>
<!-- BB6 -->
<g id="node7" class="node">
<title>BB6</title>
<ellipse fill="none" stroke="black" cx="357.94" cy="-180.25" rx="103.48" ry="48.17"/>
<text text-anchor="middle" x="357.94" y="-199.05" font-family="Times New Roman,serif" font-size="14.00">[5d..72)</text>
<text text-anchor="middle" x="357.94" y="-184.05" font-family="Times New Roman,serif" font-size="14.00">Count: 0</text>
<text text-anchor="middle" x="357.94" y="-169.05" font-family="Times New Roman,serif" font-size="14.00">Normalized count: 0.00</text>
<text text-anchor="middle" x="357.94" y="-154.05" font-family="Times New Roman,serif" font-size="14.00">Samples weight: 0.00</text>
</g>
<!-- BB4&#45;&gt;BB6 -->
<g id="edge7" class="edge">
<title>BB4&#45;&gt;BB6</title>
<path fill="none" stroke="black" d="M357.94,-264.05C357.94,-255.79 357.94,-247.1 357.94,-238.6"/>
<polygon fill="black" stroke="black" points="361.44,-238.36 357.94,-228.36 354.44,-238.36 361.44,-238.36"/>
</g>
<!-- BB7 -->
<g id="node8" class="node">
<title>BB7</title>
<ellipse fill="none" stroke="black" cx="581.94" cy="-180.25" rx="103.48" ry="48.17"/>
<text text-anchor="middle" x="581.94" y="-199.05" font-family="Times New Roman,serif" font-size="14.00">[72..87)</text>
<text text-anchor="middle" x="581.94" y="-184.05" font-family="Times New Roman,serif" font-size="14.00">Count: 0</text>
<text text-anchor="middle" x="581.94" y="-169.05" font-family="Times New Roman,serif" font-size="14.00">Normalized count: 0.00</text>
<text text-anchor="middle" x="581.94" y="-154.05" font-family="Times New Roman,serif" font-size="14.00">Samples weight: 0.00</text>
</g>
<!-- BB4&#45;&gt;BB7 -->
<g id="edge8" class="edge">
<title>BB4&#45;&gt;BB7</title>
<path fill="none" stroke="black" d="M421.53,-274.46C448.95,-258.52 481.18,-239.8 509.52,-223.33"/>
<polygon fill="black" stroke="black" points="511.3,-226.35 518.19,-218.29 507.78,-220.29 511.3,-226.35"/>
</g>
<!-- BB8 -->
<g id="node9" class="node">
<title>BB8</title>
<ellipse fill="none" stroke="black" cx="805.94" cy="-180.25" rx="103.48" ry="48.17"/>
<text text-anchor="middle" x="805.94" y="-199.05" font-family="Times New Roman,serif" font-size="14.00">[87..99)</text>
<text text-anchor="middle" x="805.94" y="-184.05" font-family="Times New Roman,serif" font-size="14.00">Count: 0</text>
<text text-anchor="middle" x="805.94" y="-169.05" font-family="Times New Roman,serif" font-size="14.00">Normalized count: 0.00</text>
<text text-anchor="middle" x="805.94" y="-154.05" font-family="Times New Roman,serif" font-size="14.00">Samples weight: 0.00</text>
</g>
<!-- BB4&#45;&gt;BB8 -->
<g id="edge9" class="edge">
<title>BB4&#45;&gt;BB8</title>
<path fill="none" stroke="black" d="M430.23,-278.08C443.26,-272.92 456.86,-268.08 469.94,-264.33 566.88,-236.6 596.99,-256.07 693.94,-228.33 703.85,-225.5 714.06,-222.03 724.09,-218.27"/>
<polygon fill="black" stroke="black" points="725.57,-221.45 733.64,-214.59 723.05,-214.92 725.57,-221.45"/>
</g>
<!-- BB9 -->
<g id="node10" class="node">
<title>BB9</title>
<ellipse fill="none" stroke="black" cx="357.94" cy="-48.08" rx="103.48" ry="48.17"/>
<text text-anchor="middle" x="357.94" y="-66.88" font-family="Times New Roman,serif" font-size="14.00">[99..9d)</text>
<text text-anchor="middle" x="357.94" y="-51.88" font-family="Times New Roman,serif" font-size="14.00">Count: 0</text>
<text text-anchor="middle" x="357.94" y="-36.88" font-family="Times New Roman,serif" font-size="14.00">Normalized count: 0.00</text>
<text text-anchor="middle" x="357.94" y="-21.88" font-family="Times New Roman,serif" font-size="14.00">Samples weight: 0.00</text>
</g>
<!-- BB5&#45;&gt;BB9 -->
<g id="edge10" class="edge">
<title>BB5&#45;&gt;BB9</title>
<path fill="none" stroke="black" d="M197.53,-142.3C224.95,-126.36 257.18,-107.63 285.52,-91.16"/>
<polygon fill="black" stroke="black" points="287.3,-94.18 294.19,-86.13 283.78,-88.13 287.3,-94.18"/>
</g>
<!-- BB6&#45;&gt;BB9 -->
<g id="edge11" class="edge">
<title>BB6&#45;&gt;BB9</title>
<path fill="none" stroke="black" d="M357.94,-131.89C357.94,-123.62 357.94,-114.94 357.94,-106.43"/>
<polygon fill="black" stroke="black" points="361.44,-106.19 357.94,-96.19 354.44,-106.19 361.44,-106.19"/>
</g>
<!-- BB7&#45;&gt;BB9 -->
<g id="edge12" class="edge">
<title>BB7&#45;&gt;BB9</title>
<path fill="none" stroke="black" d="M518.35,-142.3C490.92,-126.36 458.69,-107.63 430.35,-91.16"/>
<polygon fill="black" stroke="black" points="432.09,-88.13 421.68,-86.13 428.57,-94.18 432.09,-88.13"/>
</g>
<!-- BB8&#45;&gt;BB9 -->
<g id="edge13" class="edge">
<title>BB8&#45;&gt;BB9</title>
<path fill="none" stroke="black" d="M732.45,-146.45C719.74,-141.32 706.55,-136.35 693.94,-132.17 617.44,-106.8 528.88,-85.21 461.89,-70.4"/>
<polygon fill="black" stroke="black" points="462.26,-66.9 451.74,-68.17 460.76,-73.74 462.26,-66.9"/>
</g>
<!-- BB9&#45;&gt;BB10 -->
<g id="edge14" class="edge">
<title>BB9&#45;&gt;BB10</title>
<path fill="none" stroke="black" d="M257.83,-60.26C169.66,-72.41 50.87,-95.2 21.94,-132.17 -67.69,-246.65 142.01,-356.42 269.25,-409.84"/>
<polygon fill="black" stroke="black" points="268.06,-413.14 278.64,-413.74 270.75,-406.67 268.06,-413.14"/>
</g>
<!-- BB10&#45;&gt;BB4 -->
<g id="edge15" class="edge">
<title>BB10&#45;&gt;BB4</title>
<path fill="none" stroke="black" d="M357.94,-396.22C357.94,-387.95 357.94,-379.27 357.94,-370.77"/>
<polygon fill="black" stroke="black" points="361.44,-370.52 357.94,-360.52 354.44,-370.52 361.44,-370.52"/>
</g>
<!-- BB11 -->
<g id="node12" class="node">
<title>BB11</title>
<ellipse fill="none" stroke="black" cx="581.94" cy="-312.42" rx="103.48" ry="48.17"/>
<text text-anchor="middle" x="581.94" y="-331.22" font-family="Times New Roman,serif" font-size="14.00">[a1..a8)</text>
<text text-anchor="middle" x="581.94" y="-316.22" font-family="Times New Roman,serif" font-size="14.00">Count: 61</text>
<text text-anchor="middle" x="581.94" y="-301.22" font-family="Times New Roman,serif" font-size="14.00">Normalized count: 1.00</text>
<text text-anchor="middle" x="581.94" y="-286.22" font-family="Times New Roman,serif" font-size="14.00">Samples weight: 0.20</text>
</g>
<!-- BB10&#45;&gt;BB11 -->
<g id="edge16" class="edge">
<title>BB10&#45;&gt;BB11</title>
<path fill="none" stroke="black" d="M421.53,-406.63C448.95,-390.69 481.18,-371.97 509.52,-355.49"/>
<polygon fill="black" stroke="black" points="511.3,-358.51 518.19,-350.46 507.78,-352.46 511.3,-358.51"/>
</g>
</g>
</svg>
