<?xml version="1.0" encoding="UTF-8" standalone="no"?>
<!DOCTYPE svg PUBLIC "-//W3C//DTD SVG 1.1//EN"
 "http://www.w3.org/Graphics/SVG/1.1/DTD/svg11.dtd">
<!-- Generated by graphviz version 2.47.0 (20210316.0004)
 -->
<!-- Title: G Pages: 1 -->
<svg width="625pt" height="633pt"
 viewBox="0.00 0.00 625.48 632.83" xmlns="http://www.w3.org/2000/svg" xmlns:xlink="http://www.w3.org/1999/xlink">
<g id="graph0" class="graph" transform="scale(1 1) rotate(0) translate(4 628.83)">
<title>G</title>
<polygon fill="white" stroke="transparent" points="-4,4 -4,-628.83 621.48,-628.83 621.48,4 -4,4"/>
<!-- BB0 -->
<g id="node1" class="node">
<title>BB0</title>
<ellipse fill="none" stroke="black" cx="290.24" cy="-576.75" rx="103.48" ry="48.17"/>
<text text-anchor="middle" x="290.24" y="-595.55" font-family="Times New Roman,serif" font-size="14.00">[0..20)</text>
<text text-anchor="middle" x="290.24" y="-580.55" font-family="Times New Roman,serif" font-size="14.00">Count: 2</text>
<text text-anchor="middle" x="290.24" y="-565.55" font-family="Times New Roman,serif" font-size="14.00">Normalized count: 1.00</text>
<text text-anchor="middle" x="290.24" y="-550.55" font-family="Times New Roman,serif" font-size="14.00">Samples weight: 0.00</text>
</g>
<!-- BB5 -->
<g id="node6" class="node">
<title>BB5</title>
<ellipse fill="none" stroke="black" cx="290.24" cy="-444.58" rx="103.48" ry="48.17"/>
<text text-anchor="middle" x="290.24" y="-463.38" font-family="Times New Roman,serif" font-size="14.00">[111..118)</text>
<text text-anchor="middle" x="290.24" y="-448.38" font-family="Times New Roman,serif" font-size="14.00">Count: 12</text>
<text text-anchor="middle" x="290.24" y="-433.38" font-family="Times New Roman,serif" font-size="14.00">Normalized count: 6.00</text>
<text text-anchor="middle" x="290.24" y="-418.38" font-family="Times New Roman,serif" font-size="14.00">Samples weight: 0.00</text>
</g>
<!-- BB0&#45;&gt;BB5 -->
<g id="edge1" class="edge">
<title>BB0&#45;&gt;BB5</title>
<path fill="none" stroke="black" d="M290.24,-528.39C290.24,-520.12 290.24,-511.44 290.24,-502.93"/>
<polygon fill="black" stroke="black" points="293.74,-502.69 290.24,-492.69 286.74,-502.69 293.74,-502.69"/>
</g>
<!-- BB1 -->
<g id="node2" class="node">
<title>BB1</title>
<ellipse fill="none" stroke="black" cx="290.24" cy="-312.42" rx="103.48" ry="48.17"/>
<text text-anchor="middle" x="290.24" y="-331.22" font-family="Times New Roman,serif" font-size="14.00">[20..24)</text>
<text text-anchor="middle" x="290.24" y="-316.22" font-family="Times New Roman,serif" font-size="14.00">Count: 10</text>
<text text-anchor="middle" x="290.24" y="-301.22" font-family="Times New Roman,serif" font-size="14.00">Normalized count: 5.00</text>
<text text-anchor="middle" x="290.24" y="-286.22" font-family="Times New Roman,serif" font-size="14.00">Samples weight: 0.00</text>
</g>
<!-- BB3 -->
<g id="node4" class="node">
<title>BB3</title>
<ellipse fill="none" stroke="black" cx="323.24" cy="-180.25" rx="122.16" ry="48.17"/>
<text text-anchor="middle" x="323.24" y="-199.05" font-family="Times New Roman,serif" font-size="14.00">[6f..75)</text>
<text text-anchor="middle" x="323.24" y="-184.05" font-family="Times New Roman,serif" font-size="14.00">Count: 57253</text>
<text text-anchor="middle" x="323.24" y="-169.05" font-family="Times New Roman,serif" font-size="14.00">Normalized count: 28626.50</text>
<text text-anchor="middle" x="323.24" y="-154.05" font-family="Times New Roman,serif" font-size="14.00">Samples weight: 0.50</text>
</g>
<!-- BB1&#45;&gt;BB3 -->
<g id="edge2" class="edge">
<title>BB1&#45;&gt;BB3</title>
<path fill="none" stroke="black" d="M302.15,-264.42C304.32,-255.85 306.61,-246.83 308.85,-238.01"/>
<polygon fill="black" stroke="black" points="312.28,-238.73 311.34,-228.17 305.49,-237.01 312.28,-238.73"/>
</g>
<!-- BB2 -->
<g id="node3" class="node">
<title>BB2</title>
<ellipse fill="none" stroke="black" cx="347.24" cy="-48.08" rx="122.16" ry="48.17"/>
<text text-anchor="middle" x="347.24" y="-66.88" font-family="Times New Roman,serif" font-size="14.00">[24..6f)</text>
<text text-anchor="middle" x="347.24" y="-51.88" font-family="Times New Roman,serif" font-size="14.00">Count: 57243</text>
<text text-anchor="middle" x="347.24" y="-36.88" font-family="Times New Roman,serif" font-size="14.00">Normalized count: 28621.50</text>
<text text-anchor="middle" x="347.24" y="-21.88" font-family="Times New Roman,serif" font-size="14.00">Samples weight: 0.50</text>
</g>
<!-- BB2&#45;&gt;BB3 -->
<g id="edge3" class="edge">
<title>BB2&#45;&gt;BB3</title>
<path fill="none" stroke="black" d="M345.03,-96.44C343.7,-104.83 342.14,-113.64 340.45,-122.26"/>
<polygon fill="black" stroke="black" points="336.98,-121.76 338.41,-132.26 343.84,-123.16 336.98,-121.76"/>
</g>
<!-- BB3&#45;&gt;BB2 -->
<g id="edge4" class="edge">
<title>BB3&#45;&gt;BB2</title>
<path fill="none" stroke="black" d="M325.45,-131.89C326.77,-123.53 328.33,-114.75 330.01,-106.15"/>
<polygon fill="black" stroke="black" points="333.47,-106.69 332.04,-96.19 326.61,-105.29 333.47,-106.69"/>
</g>
<!-- BB4 -->
<g id="node5" class="node">
<title>BB4</title>
<ellipse fill="none" stroke="black" cx="103.24" cy="-48.08" rx="103.48" ry="48.17"/>
<text text-anchor="middle" x="103.24" y="-66.88" font-family="Times New Roman,serif" font-size="14.00">[75..111)</text>
<text text-anchor="middle" x="103.24" y="-51.88" font-family="Times New Roman,serif" font-size="14.00">Count: 10</text>
<text text-anchor="middle" x="103.24" y="-36.88" font-family="Times New Roman,serif" font-size="14.00">Normalized count: 5.00</text>
<text text-anchor="middle" x="103.24" y="-21.88" font-family="Times New Roman,serif" font-size="14.00">Samples weight: 0.00</text>
</g>
<!-- BB3&#45;&gt;BB4 -->
<g id="edge5" class="edge">
<title>BB3&#45;&gt;BB4</title>
<path fill="none" stroke="black" d="M256.63,-139.84C230.84,-124.58 201.26,-107.08 175,-91.54"/>
<polygon fill="black" stroke="black" points="176.62,-88.43 166.23,-86.35 173.05,-94.46 176.62,-88.43"/>
</g>
<!-- BB4&#45;&gt;BB5 -->
<g id="edge6" class="edge">
<title>BB4&#45;&gt;BB5</title>
<path fill="none" stroke="black" d="M104.74,-96.29C108.87,-160.96 123.93,-278.41 178.24,-360.5 188.38,-375.83 202.36,-389.38 217.01,-400.85"/>
<polygon fill="black" stroke="black" points="215.1,-403.8 225.2,-407.01 219.31,-398.2 215.1,-403.8"/>
</g>
<!-- BB5&#45;&gt;BB1 -->
<g id="edge7" class="edge">
<title>BB5&#45;&gt;BB1</title>
<path fill="none" stroke="black" d="M290.24,-396.22C290.24,-387.95 290.24,-379.27 290.24,-370.77"/>
<polygon fill="black" stroke="black" points="293.74,-370.52 290.24,-360.52 286.74,-370.52 293.74,-370.52"/>
</g>
<!-- BB6 -->
<g id="node7" class="node">
<title>BB6</title>
<ellipse fill="none" stroke="black" cx="514.24" cy="-312.42" rx="103.48" ry="48.17"/>
<text text-anchor="middle" x="514.24" y="-331.22" font-family="Times New Roman,serif" font-size="14.00">[118..11a)</text>
<text text-anchor="middle" x="514.24" y="-316.22" font-family="Times New Roman,serif" font-size="14.00">Count: 2</text>
<text text-anchor="middle" x="514.24" y="-301.22" font-family="Times New Roman,serif" font-size="14.00">Normalized count: 1.00</text>
<text text-anchor="middle" x="514.24" y="-286.22" font-family="Times New Roman,serif" font-size="14.00">Samples weight: 0.00</text>
</g>
<!-- BB5&#45;&gt;BB6 -->
<g id="edge8" class="edge">
<title>BB5&#45;&gt;BB6</title>
<path fill="none" stroke="black" d="M353.83,-406.63C381.26,-390.69 413.48,-371.97 441.83,-355.49"/>
<polygon fill="black" stroke="black" points="443.6,-358.51 450.49,-350.46 440.08,-352.46 443.6,-358.51"/>
</g>
</g>
</svg>
