<?xml version="1.0" encoding="UTF-8" standalone="no"?>
<!DOCTYPE svg PUBLIC "-//W3C//DTD SVG 1.1//EN"
 "http://www.w3.org/Graphics/SVG/1.1/DTD/svg11.dtd">
<!-- Generated by graphviz version 2.47.0 (20210316.0004)
 -->
<!-- Title: G Pages: 1 -->
<svg width="308pt" height="421pt"
 viewBox="0.00 0.00 308.17 420.70" xmlns="http://www.w3.org/2000/svg" xmlns:xlink="http://www.w3.org/1999/xlink">
<g id="graph0" class="graph" transform="scale(1 1) rotate(0) translate(4 416.7)">
<title>G</title>
<polygon fill="white" stroke="transparent" points="-4,4 -4,-416.7 304.17,-416.7 304.17,4 -4,4"/>
<!-- BB0 -->
<g id="node1" class="node">
<title>BB0</title>
<ellipse fill="none" stroke="black" cx="140.96" cy="-385.83" rx="37.45" ry="26.74"/>
<text text-anchor="middle" x="140.96" y="-389.63" font-family="Times New Roman,serif" font-size="14.00">[0..47)</text>
<text text-anchor="middle" x="140.96" y="-374.63" font-family="Times New Roman,serif" font-size="14.00">0.00</text>
</g>
<!-- BB5 -->
<g id="node6" class="node">
<title>BB5</title>
<ellipse fill="none" stroke="black" cx="140.96" cy="-296.09" rx="50.41" ry="26.74"/>
<text text-anchor="middle" x="140.96" y="-299.89" font-family="Times New Roman,serif" font-size="14.00">[157..15f)</text>
<text text-anchor="middle" x="140.96" y="-284.89" font-family="Times New Roman,serif" font-size="14.00">0.00</text>
</g>
<!-- BB0&#45;&gt;BB5 -->
<g id="edge1" class="edge">
<title>BB0&#45;&gt;BB5</title>
<path fill="none" stroke="black" d="M140.96,-358.51C140.96,-350.54 140.96,-341.65 140.96,-333.16"/>
<polygon fill="black" stroke="black" points="144.46,-333.09 140.96,-323.09 137.46,-333.09 144.46,-333.09"/>
</g>
<!-- BB1 -->
<g id="node2" class="node">
<title>BB1</title>
<ellipse fill="none" stroke="black" cx="140.96" cy="-206.35" rx="41.02" ry="26.74"/>
<text text-anchor="middle" x="140.96" y="-210.15" font-family="Times New Roman,serif" font-size="14.00">[47..4f)</text>
<text text-anchor="middle" x="140.96" y="-195.15" font-family="Times New Roman,serif" font-size="14.00">0.00</text>
</g>
<!-- BB3 -->
<g id="node4" class="node">
<title>BB3</title>
<ellipse fill="none" stroke="black" cx="144.96" cy="-116.61" rx="39.7" ry="26.74"/>
<text text-anchor="middle" x="144.96" y="-120.41" font-family="Times New Roman,serif" font-size="14.00">[cf..df)</text>
<text text-anchor="middle" x="144.96" y="-105.41" font-family="Times New Roman,serif" font-size="14.00">0.04</text>
</g>
<!-- BB1&#45;&gt;BB3 -->
<g id="edge2" class="edge">
<title>BB1&#45;&gt;BB3</title>
<path fill="none" stroke="black" d="M142.16,-179.03C142.53,-171.06 142.93,-162.17 143.32,-153.68"/>
<polygon fill="black" stroke="black" points="146.82,-153.76 143.78,-143.61 139.82,-153.44 146.82,-153.76"/>
</g>
<!-- BB2 -->
<g id="node3" class="node">
<title>BB2</title>
<ellipse fill="none" stroke="black" cx="149.96" cy="-26.87" rx="39.7" ry="26.74"/>
<text text-anchor="middle" x="149.96" y="-30.67" font-family="Times New Roman,serif" font-size="14.00">[4f..cf)</text>
<text text-anchor="middle" x="149.96" y="-15.67" font-family="Times New Roman,serif" font-size="14.00">0.96</text>
</g>
<!-- BB2&#45;&gt;BB3 -->
<g id="edge3" class="edge">
<title>BB2&#45;&gt;BB3</title>
<path fill="none" stroke="black" d="M154.71,-53.8C154.75,-62.07 154.36,-71.36 153.62,-80.18"/>
<polygon fill="black" stroke="black" points="150.13,-79.93 152.59,-90.23 157.09,-80.64 150.13,-79.93"/>
</g>
<!-- BB3&#45;&gt;BB2 -->
<g id="edge4" class="edge">
<title>BB3&#45;&gt;BB2</title>
<path fill="none" stroke="black" d="M140.22,-89.76C140.17,-81.55 140.56,-72.32 141.29,-63.54"/>
<polygon fill="black" stroke="black" points="144.77,-63.84 142.29,-53.54 137.81,-63.13 144.77,-63.84"/>
</g>
<!-- BB4 -->
<g id="node5" class="node">
<title>BB4</title>
<ellipse fill="none" stroke="black" cx="45.96" cy="-26.87" rx="45.92" ry="26.74"/>
<text text-anchor="middle" x="45.96" y="-30.67" font-family="Times New Roman,serif" font-size="14.00">[df..157)</text>
<text text-anchor="middle" x="45.96" y="-15.67" font-family="Times New Roman,serif" font-size="14.00">0.00</text>
</g>
<!-- BB3&#45;&gt;BB4 -->
<g id="edge5" class="edge">
<title>BB3&#45;&gt;BB4</title>
<path fill="none" stroke="black" d="M121.5,-94.82C108.57,-83.36 92.33,-68.96 78.22,-56.46"/>
<polygon fill="black" stroke="black" points="80.44,-53.75 70.64,-49.74 75.8,-58.99 80.44,-53.75"/>
</g>
<!-- BB4&#45;&gt;BB5 -->
<g id="edge6" class="edge">
<title>BB4&#45;&gt;BB5</title>
<path fill="none" stroke="black" d="M47.8,-53.75C51.48,-93.95 62.05,-173.01 90.96,-233.22 96.19,-244.1 103.67,-254.76 111.27,-264.09"/>
<polygon fill="black" stroke="black" points="108.77,-266.56 117.91,-271.91 114.1,-262.02 108.77,-266.56"/>
</g>
<!-- BB5&#45;&gt;BB1 -->
<g id="edge7" class="edge">
<title>BB5&#45;&gt;BB1</title>
<path fill="none" stroke="black" d="M140.96,-268.77C140.96,-260.8 140.96,-251.91 140.96,-243.42"/>
<polygon fill="black" stroke="black" points="144.46,-243.35 140.96,-233.35 137.46,-243.35 144.46,-243.35"/>
</g>
<!-- BB6 -->
<g id="node7" class="node">
<title>BB6</title>
<ellipse fill="none" stroke="black" cx="249.96" cy="-206.35" rx="50.41" ry="26.74"/>
<text text-anchor="middle" x="249.96" y="-210.15" font-family="Times New Roman,serif" font-size="14.00">[15f..161)</text>
<text text-anchor="middle" x="249.96" y="-195.15" font-family="Times New Roman,serif" font-size="14.00">0.00</text>
</g>
<!-- BB5&#45;&gt;BB6 -->
<g id="edge8" class="edge">
<title>BB5&#45;&gt;BB6</title>
<path fill="none" stroke="black" d="M167.91,-273.4C182.05,-262.01 199.57,-247.92 214.77,-235.67"/>
<polygon fill="black" stroke="black" points="217.36,-238.09 222.95,-229.09 212.97,-232.64 217.36,-238.09"/>
</g>
</g>
</svg>
