<?xml version="1.0" encoding="UTF-8" standalone="no"?>
<!DOCTYPE svg PUBLIC "-//W3C//DTD SVG 1.1//EN"
 "http://www.w3.org/Graphics/SVG/1.1/DTD/svg11.dtd">
<!-- Generated by graphviz version 2.47.0 (20210316.0004)
 -->
<!-- Title: G Pages: 1 -->
<svg width="691pt" height="633pt"
 viewBox="0.00 0.00 690.57 632.83" xmlns="http://www.w3.org/2000/svg" xmlns:xlink="http://www.w3.org/1999/xlink">
<g id="graph0" class="graph" transform="scale(1 1) rotate(0) translate(4 628.83)">
<title>G</title>
<polygon fill="white" stroke="transparent" points="-4,4 -4,-628.83 686.57,-628.83 686.57,4 -4,4"/>
<!-- BB0 -->
<g id="node1" class="node">
<title>BB0</title>
<ellipse fill="none" stroke="black" cx="335.33" cy="-576.75" rx="103.48" ry="48.17"/>
<text text-anchor="middle" x="335.33" y="-595.55" font-family="Times New Roman,serif" font-size="14.00">[0..35)</text>
<text text-anchor="middle" x="335.33" y="-580.55" font-family="Times New Roman,serif" font-size="14.00">Count: 2</text>
<text text-anchor="middle" x="335.33" y="-565.55" font-family="Times New Roman,serif" font-size="14.00">Normalized count: 1.00</text>
<text text-anchor="middle" x="335.33" y="-550.55" font-family="Times New Roman,serif" font-size="14.00">Samples weight: 0.00</text>
</g>
<!-- BB5 -->
<g id="node6" class="node">
<title>BB5</title>
<ellipse fill="none" stroke="black" cx="335.33" cy="-444.58" rx="122.16" ry="48.17"/>
<text text-anchor="middle" x="335.33" y="-463.38" font-family="Times New Roman,serif" font-size="14.00">[f9..100)</text>
<text text-anchor="middle" x="335.33" y="-448.38" font-family="Times New Roman,serif" font-size="14.00">Count: 20002</text>
<text text-anchor="middle" x="335.33" y="-433.38" font-family="Times New Roman,serif" font-size="14.00">Normalized count: 10001.00</text>
<text text-anchor="middle" x="335.33" y="-418.38" font-family="Times New Roman,serif" font-size="14.00">Samples weight: 0.00</text>
</g>
<!-- BB0&#45;&gt;BB5 -->
<g id="edge1" class="edge">
<title>BB0&#45;&gt;BB5</title>
<path fill="none" stroke="black" d="M335.33,-528.39C335.33,-520.12 335.33,-511.44 335.33,-502.93"/>
<polygon fill="black" stroke="black" points="338.83,-502.69 335.33,-492.69 331.83,-502.69 338.83,-502.69"/>
</g>
<!-- BB1 -->
<g id="node2" class="node">
<title>BB1</title>
<ellipse fill="none" stroke="black" cx="335.33" cy="-312.42" rx="122.16" ry="48.17"/>
<text text-anchor="middle" x="335.33" y="-331.22" font-family="Times New Roman,serif" font-size="14.00">[35..3a)</text>
<text text-anchor="middle" x="335.33" y="-316.22" font-family="Times New Roman,serif" font-size="14.00">Count: 20000</text>
<text text-anchor="middle" x="335.33" y="-301.22" font-family="Times New Roman,serif" font-size="14.00">Normalized count: 10000.00</text>
<text text-anchor="middle" x="335.33" y="-286.22" font-family="Times New Roman,serif" font-size="14.00">Samples weight: 0.00</text>
</g>
<!-- BB3 -->
<g id="node4" class="node">
<title>BB3</title>
<ellipse fill="none" stroke="black" cx="372.33" cy="-180.25" rx="141.34" ry="48.17"/>
<text text-anchor="middle" x="372.33" y="-199.05" font-family="Times New Roman,serif" font-size="14.00">[7c..83)</text>
<text text-anchor="middle" x="372.33" y="-184.05" font-family="Times New Roman,serif" font-size="14.00">Count: 200000000</text>
<text text-anchor="middle" x="372.33" y="-169.05" font-family="Times New Roman,serif" font-size="14.00">Normalized count: 100000000.00</text>
<text text-anchor="middle" x="372.33" y="-154.05" font-family="Times New Roman,serif" font-size="14.00">Samples weight: 0.50</text>
</g>
<!-- BB1&#45;&gt;BB3 -->
<g id="edge2" class="edge">
<title>BB1&#45;&gt;BB3</title>
<path fill="none" stroke="black" d="M348.69,-264.42C351.12,-255.85 353.69,-246.83 356.2,-238.01"/>
<polygon fill="black" stroke="black" points="359.62,-238.75 358.99,-228.17 352.89,-236.84 359.62,-238.75"/>
</g>
<!-- BB2 -->
<g id="node3" class="node">
<title>BB2</title>
<ellipse fill="none" stroke="black" cx="400.33" cy="-48.08" rx="137.36" ry="48.17"/>
<text text-anchor="middle" x="400.33" y="-66.88" font-family="Times New Roman,serif" font-size="14.00">[3a..7c)</text>
<text text-anchor="middle" x="400.33" y="-51.88" font-family="Times New Roman,serif" font-size="14.00">Count: 199980000</text>
<text text-anchor="middle" x="400.33" y="-36.88" font-family="Times New Roman,serif" font-size="14.00">Normalized count: 99990000.00</text>
<text text-anchor="middle" x="400.33" y="-21.88" font-family="Times New Roman,serif" font-size="14.00">Samples weight: 0.50</text>
</g>
<!-- BB2&#45;&gt;BB3 -->
<g id="edge3" class="edge">
<title>BB2&#45;&gt;BB3</title>
<path fill="none" stroke="black" d="M396.66,-96.44C395.08,-104.83 393.25,-113.64 391.29,-122.26"/>
<polygon fill="black" stroke="black" points="387.82,-121.72 388.95,-132.26 394.64,-123.32 387.82,-121.72"/>
</g>
<!-- BB3&#45;&gt;BB2 -->
<g id="edge4" class="edge">
<title>BB3&#45;&gt;BB2</title>
<path fill="none" stroke="black" d="M375.99,-131.89C377.57,-123.53 379.4,-114.75 381.35,-106.15"/>
<polygon fill="black" stroke="black" points="384.81,-106.73 383.68,-96.19 377.99,-105.13 384.81,-106.73"/>
</g>
<!-- BB4 -->
<g id="node5" class="node">
<title>BB4</title>
<ellipse fill="none" stroke="black" cx="122.33" cy="-48.08" rx="122.16" ry="48.17"/>
<text text-anchor="middle" x="122.33" y="-66.88" font-family="Times New Roman,serif" font-size="14.00">[83..f9)</text>
<text text-anchor="middle" x="122.33" y="-51.88" font-family="Times New Roman,serif" font-size="14.00">Count: 20000</text>
<text text-anchor="middle" x="122.33" y="-36.88" font-family="Times New Roman,serif" font-size="14.00">Normalized count: 10000.00</text>
<text text-anchor="middle" x="122.33" y="-21.88" font-family="Times New Roman,serif" font-size="14.00">Samples weight: 0.00</text>
</g>
<!-- BB3&#45;&gt;BB4 -->
<g id="edge5" class="edge">
<title>BB3&#45;&gt;BB4</title>
<path fill="none" stroke="black" d="M296.3,-139.67C267.14,-124.48 233.75,-107.1 204.08,-91.65"/>
<polygon fill="black" stroke="black" points="205.48,-88.43 195,-86.92 202.25,-94.64 205.48,-88.43"/>
</g>
<!-- BB4&#45;&gt;BB5 -->
<g id="edge6" class="edge">
<title>BB4&#45;&gt;BB5</title>
<path fill="none" stroke="black" d="M124.21,-96.38C128.98,-161.67 145.74,-280.4 204.33,-360.5 216.04,-376.51 231.86,-390.19 248.45,-401.55"/>
<polygon fill="black" stroke="black" points="246.9,-404.71 257.18,-407.27 250.74,-398.86 246.9,-404.71"/>
</g>
<!-- BB5&#45;&gt;BB1 -->
<g id="edge7" class="edge">
<title>BB5&#45;&gt;BB1</title>
<path fill="none" stroke="black" d="M335.33,-396.22C335.33,-387.95 335.33,-379.27 335.33,-370.77"/>
<polygon fill="black" stroke="black" points="338.83,-370.52 335.33,-360.52 331.83,-370.52 338.83,-370.52"/>
</g>
<!-- BB6 -->
<g id="node7" class="node">
<title>BB6</title>
<ellipse fill="none" stroke="black" cx="579.33" cy="-312.42" rx="103.48" ry="48.17"/>
<text text-anchor="middle" x="579.33" y="-331.22" font-family="Times New Roman,serif" font-size="14.00">[100..102)</text>
<text text-anchor="middle" x="579.33" y="-316.22" font-family="Times New Roman,serif" font-size="14.00">Count: 2</text>
<text text-anchor="middle" x="579.33" y="-301.22" font-family="Times New Roman,serif" font-size="14.00">Normalized count: 1.00</text>
<text text-anchor="middle" x="579.33" y="-286.22" font-family="Times New Roman,serif" font-size="14.00">Samples weight: 0.00</text>
</g>
<!-- BB5&#45;&gt;BB6 -->
<g id="edge8" class="edge">
<title>BB5&#45;&gt;BB6</title>
<path fill="none" stroke="black" d="M406.89,-405.41C437.22,-389.23 472.6,-370.35 503.4,-353.92"/>
<polygon fill="black" stroke="black" points="505.2,-356.93 512.37,-349.14 501.9,-350.76 505.2,-356.93"/>
</g>
</g>
</svg>
