<?xml version="1.0" encoding="UTF-8" standalone="no"?>
<!DOCTYPE svg PUBLIC "-//W3C//DTD SVG 1.1//EN"
 "http://www.w3.org/Graphics/SVG/1.1/DTD/svg11.dtd">
<!-- Generated by graphviz version 2.47.0 (20210316.0004)
 -->
<!-- Title: G Pages: 1 -->
<svg width="642pt" height="633pt"
 viewBox="0.00 0.00 642.42 632.83" xmlns="http://www.w3.org/2000/svg" xmlns:xlink="http://www.w3.org/1999/xlink">
<g id="graph0" class="graph" transform="scale(1 1) rotate(0) translate(4 628.83)">
<title>G</title>
<polygon fill="white" stroke="transparent" points="-4,4 -4,-628.83 638.42,-628.83 638.42,4 -4,4"/>
<!-- BB0 -->
<g id="node1" class="node">
<title>BB0</title>
<ellipse fill="none" stroke="black" cx="302.19" cy="-576.75" rx="103.48" ry="48.17"/>
<text text-anchor="middle" x="302.19" y="-595.55" font-family="Times New Roman,serif" font-size="14.00">[0..47)</text>
<text text-anchor="middle" x="302.19" y="-580.55" font-family="Times New Roman,serif" font-size="14.00">Count: 2</text>
<text text-anchor="middle" x="302.19" y="-565.55" font-family="Times New Roman,serif" font-size="14.00">Normalized count: 1.00</text>
<text text-anchor="middle" x="302.19" y="-550.55" font-family="Times New Roman,serif" font-size="14.00">Samples weight: 0.00</text>
</g>
<!-- BB5 -->
<g id="node6" class="node">
<title>BB5</title>
<ellipse fill="none" stroke="black" cx="302.19" cy="-444.58" rx="108.38" ry="48.17"/>
<text text-anchor="middle" x="302.19" y="-463.38" font-family="Times New Roman,serif" font-size="14.00">[157..15f)</text>
<text text-anchor="middle" x="302.19" y="-448.38" font-family="Times New Roman,serif" font-size="14.00">Count: 69</text>
<text text-anchor="middle" x="302.19" y="-433.38" font-family="Times New Roman,serif" font-size="14.00">Normalized count: 34.50</text>
<text text-anchor="middle" x="302.19" y="-418.38" font-family="Times New Roman,serif" font-size="14.00">Samples weight: 0.00</text>
</g>
<!-- BB0&#45;&gt;BB5 -->
<g id="edge1" class="edge">
<title>BB0&#45;&gt;BB5</title>
<path fill="none" stroke="black" d="M302.19,-528.39C302.19,-520.12 302.19,-511.44 302.19,-502.93"/>
<polygon fill="black" stroke="black" points="305.69,-502.69 302.19,-492.69 298.69,-502.69 305.69,-502.69"/>
</g>
<!-- BB1 -->
<g id="node2" class="node">
<title>BB1</title>
<ellipse fill="none" stroke="black" cx="302.19" cy="-312.42" rx="108.38" ry="48.17"/>
<text text-anchor="middle" x="302.19" y="-331.22" font-family="Times New Roman,serif" font-size="14.00">[47..4f)</text>
<text text-anchor="middle" x="302.19" y="-316.22" font-family="Times New Roman,serif" font-size="14.00">Count: 67</text>
<text text-anchor="middle" x="302.19" y="-301.22" font-family="Times New Roman,serif" font-size="14.00">Normalized count: 33.50</text>
<text text-anchor="middle" x="302.19" y="-286.22" font-family="Times New Roman,serif" font-size="14.00">Samples weight: 0.00</text>
</g>
<!-- BB3 -->
<g id="node4" class="node">
<title>BB3</title>
<ellipse fill="none" stroke="black" cx="336.19" cy="-180.25" rx="127.06" ry="48.17"/>
<text text-anchor="middle" x="336.19" y="-199.05" font-family="Times New Roman,serif" font-size="14.00">[cf..df)</text>
<text text-anchor="middle" x="336.19" y="-184.05" font-family="Times New Roman,serif" font-size="14.00">Count: 206363</text>
<text text-anchor="middle" x="336.19" y="-169.05" font-family="Times New Roman,serif" font-size="14.00">Normalized count: 103181.50</text>
<text text-anchor="middle" x="336.19" y="-154.05" font-family="Times New Roman,serif" font-size="14.00">Samples weight: 0.50</text>
</g>
<!-- BB1&#45;&gt;BB3 -->
<g id="edge2" class="edge">
<title>BB1&#45;&gt;BB3</title>
<path fill="none" stroke="black" d="M314.46,-264.42C316.7,-255.85 319.06,-246.83 321.36,-238.01"/>
<polygon fill="black" stroke="black" points="324.79,-238.73 323.93,-228.17 318.02,-236.96 324.79,-238.73"/>
</g>
<!-- BB2 -->
<g id="node3" class="node">
<title>BB2</title>
<ellipse fill="none" stroke="black" cx="361.19" cy="-48.08" rx="127.06" ry="48.17"/>
<text text-anchor="middle" x="361.19" y="-66.88" font-family="Times New Roman,serif" font-size="14.00">[4f..cf)</text>
<text text-anchor="middle" x="361.19" y="-51.88" font-family="Times New Roman,serif" font-size="14.00">Count: 206296</text>
<text text-anchor="middle" x="361.19" y="-36.88" font-family="Times New Roman,serif" font-size="14.00">Normalized count: 103148.00</text>
<text text-anchor="middle" x="361.19" y="-21.88" font-family="Times New Roman,serif" font-size="14.00">Samples weight: 0.50</text>
</g>
<!-- BB2&#45;&gt;BB3 -->
<g id="edge3" class="edge">
<title>BB2&#45;&gt;BB3</title>
<path fill="none" stroke="black" d="M358.61,-96.44C357.22,-104.83 355.59,-113.64 353.84,-122.26"/>
<polygon fill="black" stroke="black" points="350.37,-121.75 351.73,-132.26 357.22,-123.2 350.37,-121.75"/>
</g>
<!-- BB3&#45;&gt;BB2 -->
<g id="edge4" class="edge">
<title>BB3&#45;&gt;BB2</title>
<path fill="none" stroke="black" d="M338.76,-131.89C340.15,-123.53 341.77,-114.75 343.52,-106.15"/>
<polygon fill="black" stroke="black" points="346.98,-106.7 345.62,-96.19 340.13,-105.25 346.98,-106.7"/>
</g>
<!-- BB4 -->
<g id="node5" class="node">
<title>BB4</title>
<ellipse fill="none" stroke="black" cx="108.19" cy="-48.08" rx="108.38" ry="48.17"/>
<text text-anchor="middle" x="108.19" y="-66.88" font-family="Times New Roman,serif" font-size="14.00">[df..157)</text>
<text text-anchor="middle" x="108.19" y="-51.88" font-family="Times New Roman,serif" font-size="14.00">Count: 67</text>
<text text-anchor="middle" x="108.19" y="-36.88" font-family="Times New Roman,serif" font-size="14.00">Normalized count: 33.50</text>
<text text-anchor="middle" x="108.19" y="-21.88" font-family="Times New Roman,serif" font-size="14.00">Samples weight: 0.00</text>
</g>
<!-- BB3&#45;&gt;BB4 -->
<g id="edge5" class="edge">
<title>BB3&#45;&gt;BB4</title>
<path fill="none" stroke="black" d="M267.16,-139.84C240.43,-124.58 209.78,-107.08 182.56,-91.54"/>
<polygon fill="black" stroke="black" points="184.27,-88.49 173.85,-86.57 180.8,-94.57 184.27,-88.49"/>
</g>
<!-- BB4&#45;&gt;BB5 -->
<g id="edge6" class="edge">
<title>BB4&#45;&gt;BB5</title>
<path fill="none" stroke="black" d="M109.79,-96.2C114.09,-161.01 129.62,-278.91 185.19,-360.5 195.72,-375.96 210.14,-389.5 225.26,-400.92"/>
<polygon fill="black" stroke="black" points="223.56,-404.01 233.71,-407.04 227.67,-398.34 223.56,-404.01"/>
</g>
<!-- BB5&#45;&gt;BB1 -->
<g id="edge7" class="edge">
<title>BB5&#45;&gt;BB1</title>
<path fill="none" stroke="black" d="M302.19,-396.22C302.19,-387.95 302.19,-379.27 302.19,-370.77"/>
<polygon fill="black" stroke="black" points="305.69,-370.52 302.19,-360.52 298.69,-370.52 305.69,-370.52"/>
</g>
<!-- BB6 -->
<g id="node7" class="node">
<title>BB6</title>
<ellipse fill="none" stroke="black" cx="531.19" cy="-312.42" rx="103.48" ry="48.17"/>
<text text-anchor="middle" x="531.19" y="-331.22" font-family="Times New Roman,serif" font-size="14.00">[15f..161)</text>
<text text-anchor="middle" x="531.19" y="-316.22" font-family="Times New Roman,serif" font-size="14.00">Count: 2</text>
<text text-anchor="middle" x="531.19" y="-301.22" font-family="Times New Roman,serif" font-size="14.00">Normalized count: 1.00</text>
<text text-anchor="middle" x="531.19" y="-286.22" font-family="Times New Roman,serif" font-size="14.00">Samples weight: 0.00</text>
</g>
<!-- BB5&#45;&gt;BB6 -->
<g id="edge8" class="edge">
<title>BB5&#45;&gt;BB6</title>
<path fill="none" stroke="black" d="M367.81,-406.28C395.96,-390.28 428.96,-371.53 457.9,-355.07"/>
<polygon fill="black" stroke="black" points="459.78,-358.03 466.74,-350.05 456.32,-351.95 459.78,-358.03"/>
</g>
</g>
</svg>
