<?xml version="1.0" encoding="UTF-8" standalone="no"?>
<!DOCTYPE svg PUBLIC "-//W3C//DTD SVG 1.1//EN"
 "http://www.w3.org/Graphics/SVG/1.1/DTD/svg11.dtd">
<!-- Generated by graphviz version 2.47.0 (20210316.0004)
 -->
<!-- Title: G Pages: 1 -->
<svg width="640pt" height="633pt"
 viewBox="0.00 0.00 640.42 632.83" xmlns="http://www.w3.org/2000/svg" xmlns:xlink="http://www.w3.org/1999/xlink">
<g id="graph0" class="graph" transform="scale(1 1) rotate(0) translate(4 628.83)">
<title>G</title>
<polygon fill="white" stroke="transparent" points="-4,4 -4,-628.83 636.42,-628.83 636.42,4 -4,4"/>
<!-- BB0 -->
<g id="node1" class="node">
<title>BB0</title>
<ellipse fill="none" stroke="black" cx="300.19" cy="-576.75" rx="103.48" ry="48.17"/>
<text text-anchor="middle" x="300.19" y="-595.55" font-family="Times New Roman,serif" font-size="14.00">[0..47)</text>
<text text-anchor="middle" x="300.19" y="-580.55" font-family="Times New Roman,serif" font-size="14.00">Count: 2</text>
<text text-anchor="middle" x="300.19" y="-565.55" font-family="Times New Roman,serif" font-size="14.00">Normalized count: 1.00</text>
<text text-anchor="middle" x="300.19" y="-550.55" font-family="Times New Roman,serif" font-size="14.00">Samples weight: 0.00</text>
</g>
<!-- BB5 -->
<g id="node6" class="node">
<title>BB5</title>
<ellipse fill="none" stroke="black" cx="300.19" cy="-444.58" rx="108.38" ry="48.17"/>
<text text-anchor="middle" x="300.19" y="-463.38" font-family="Times New Roman,serif" font-size="14.00">[157..15f)</text>
<text text-anchor="middle" x="300.19" y="-448.38" font-family="Times New Roman,serif" font-size="14.00">Count: 42</text>
<text text-anchor="middle" x="300.19" y="-433.38" font-family="Times New Roman,serif" font-size="14.00">Normalized count: 21.00</text>
<text text-anchor="middle" x="300.19" y="-418.38" font-family="Times New Roman,serif" font-size="14.00">Samples weight: 0.00</text>
</g>
<!-- BB0&#45;&gt;BB5 -->
<g id="edge1" class="edge">
<title>BB0&#45;&gt;BB5</title>
<path fill="none" stroke="black" d="M300.19,-528.39C300.19,-520.12 300.19,-511.44 300.19,-502.93"/>
<polygon fill="black" stroke="black" points="303.69,-502.69 300.19,-492.69 296.69,-502.69 303.69,-502.69"/>
</g>
<!-- BB1 -->
<g id="node2" class="node">
<title>BB1</title>
<ellipse fill="none" stroke="black" cx="300.19" cy="-312.42" rx="108.38" ry="48.17"/>
<text text-anchor="middle" x="300.19" y="-331.22" font-family="Times New Roman,serif" font-size="14.00">[47..4f)</text>
<text text-anchor="middle" x="300.19" y="-316.22" font-family="Times New Roman,serif" font-size="14.00">Count: 40</text>
<text text-anchor="middle" x="300.19" y="-301.22" font-family="Times New Roman,serif" font-size="14.00">Normalized count: 20.00</text>
<text text-anchor="middle" x="300.19" y="-286.22" font-family="Times New Roman,serif" font-size="14.00">Samples weight: 0.00</text>
</g>
<!-- BB3 -->
<g id="node4" class="node">
<title>BB3</title>
<ellipse fill="none" stroke="black" cx="332.19" cy="-180.25" rx="122.16" ry="48.17"/>
<text text-anchor="middle" x="332.19" y="-199.05" font-family="Times New Roman,serif" font-size="14.00">[cf..df)</text>
<text text-anchor="middle" x="332.19" y="-184.05" font-family="Times New Roman,serif" font-size="14.00">Count: 103113</text>
<text text-anchor="middle" x="332.19" y="-169.05" font-family="Times New Roman,serif" font-size="14.00">Normalized count: 51556.50</text>
<text text-anchor="middle" x="332.19" y="-154.05" font-family="Times New Roman,serif" font-size="14.00">Samples weight: 0.50</text>
</g>
<!-- BB1&#45;&gt;BB3 -->
<g id="edge2" class="edge">
<title>BB1&#45;&gt;BB3</title>
<path fill="none" stroke="black" d="M311.74,-264.42C313.85,-255.85 316.07,-246.83 318.23,-238.01"/>
<polygon fill="black" stroke="black" points="321.66,-238.72 320.65,-228.17 314.87,-237.05 321.66,-238.72"/>
</g>
<!-- BB2 -->
<g id="node3" class="node">
<title>BB2</title>
<ellipse fill="none" stroke="black" cx="357.19" cy="-48.08" rx="122.16" ry="48.17"/>
<text text-anchor="middle" x="357.19" y="-66.88" font-family="Times New Roman,serif" font-size="14.00">[4f..cf)</text>
<text text-anchor="middle" x="357.19" y="-51.88" font-family="Times New Roman,serif" font-size="14.00">Count: 103073</text>
<text text-anchor="middle" x="357.19" y="-36.88" font-family="Times New Roman,serif" font-size="14.00">Normalized count: 51536.50</text>
<text text-anchor="middle" x="357.19" y="-21.88" font-family="Times New Roman,serif" font-size="14.00">Samples weight: 0.50</text>
</g>
<!-- BB2&#45;&gt;BB3 -->
<g id="edge3" class="edge">
<title>BB2&#45;&gt;BB3</title>
<path fill="none" stroke="black" d="M354.61,-96.44C353.22,-104.83 351.59,-113.64 349.84,-122.26"/>
<polygon fill="black" stroke="black" points="346.37,-121.75 347.73,-132.26 353.22,-123.2 346.37,-121.75"/>
</g>
<!-- BB3&#45;&gt;BB2 -->
<g id="edge4" class="edge">
<title>BB3&#45;&gt;BB2</title>
<path fill="none" stroke="black" d="M334.76,-131.89C336.15,-123.53 337.77,-114.75 339.52,-106.15"/>
<polygon fill="black" stroke="black" points="342.98,-106.7 341.62,-96.19 336.13,-105.25 342.98,-106.7"/>
</g>
<!-- BB4 -->
<g id="node5" class="node">
<title>BB4</title>
<ellipse fill="none" stroke="black" cx="108.19" cy="-48.08" rx="108.38" ry="48.17"/>
<text text-anchor="middle" x="108.19" y="-66.88" font-family="Times New Roman,serif" font-size="14.00">[df..157)</text>
<text text-anchor="middle" x="108.19" y="-51.88" font-family="Times New Roman,serif" font-size="14.00">Count: 40</text>
<text text-anchor="middle" x="108.19" y="-36.88" font-family="Times New Roman,serif" font-size="14.00">Normalized count: 20.00</text>
<text text-anchor="middle" x="108.19" y="-21.88" font-family="Times New Roman,serif" font-size="14.00">Samples weight: 0.00</text>
</g>
<!-- BB3&#45;&gt;BB4 -->
<g id="edge5" class="edge">
<title>BB3&#45;&gt;BB4</title>
<path fill="none" stroke="black" d="M264.68,-140.02C238.52,-124.82 208.5,-107.37 181.79,-91.85"/>
<polygon fill="black" stroke="black" points="183.28,-88.67 172.87,-86.67 179.76,-94.72 183.28,-88.67"/>
</g>
<!-- BB4&#45;&gt;BB5 -->
<g id="edge6" class="edge">
<title>BB4&#45;&gt;BB5</title>
<path fill="none" stroke="black" d="M109.43,-96.18C113.25,-160.98 127.95,-278.86 183.19,-360.5 193.67,-375.99 208.07,-389.55 223.19,-400.97"/>
<polygon fill="black" stroke="black" points="221.49,-404.06 231.64,-407.09 225.59,-398.39 221.49,-404.06"/>
</g>
<!-- BB5&#45;&gt;BB1 -->
<g id="edge7" class="edge">
<title>BB5&#45;&gt;BB1</title>
<path fill="none" stroke="black" d="M300.19,-396.22C300.19,-387.95 300.19,-379.27 300.19,-370.77"/>
<polygon fill="black" stroke="black" points="303.69,-370.52 300.19,-360.52 296.69,-370.52 303.69,-370.52"/>
</g>
<!-- BB6 -->
<g id="node7" class="node">
<title>BB6</title>
<ellipse fill="none" stroke="black" cx="529.19" cy="-312.42" rx="103.48" ry="48.17"/>
<text text-anchor="middle" x="529.19" y="-331.22" font-family="Times New Roman,serif" font-size="14.00">[15f..161)</text>
<text text-anchor="middle" x="529.19" y="-316.22" font-family="Times New Roman,serif" font-size="14.00">Count: 2</text>
<text text-anchor="middle" x="529.19" y="-301.22" font-family="Times New Roman,serif" font-size="14.00">Normalized count: 1.00</text>
<text text-anchor="middle" x="529.19" y="-286.22" font-family="Times New Roman,serif" font-size="14.00">Samples weight: 0.00</text>
</g>
<!-- BB5&#45;&gt;BB6 -->
<g id="edge8" class="edge">
<title>BB5&#45;&gt;BB6</title>
<path fill="none" stroke="black" d="M365.81,-406.28C393.96,-390.28 426.96,-371.53 455.9,-355.07"/>
<polygon fill="black" stroke="black" points="457.78,-358.03 464.74,-350.05 454.32,-351.95 457.78,-358.03"/>
</g>
</g>
</svg>
