<?xml version="1.0" encoding="UTF-8" standalone="no"?>
<!DOCTYPE svg PUBLIC "-//W3C//DTD SVG 1.1//EN"
 "http://www.w3.org/Graphics/SVG/1.1/DTD/svg11.dtd">
<!-- Generated by graphviz version 2.47.0 (20210316.0004)
 -->
<!-- Title: G Pages: 1 -->
<svg width="702pt" height="527pt"
 viewBox="0.00 0.00 701.81 526.77" xmlns="http://www.w3.org/2000/svg" xmlns:xlink="http://www.w3.org/1999/xlink">
<g id="graph0" class="graph" transform="scale(1 1) rotate(0) translate(4 522.77)">
<title>G</title>
<polygon fill="white" stroke="transparent" points="-4,4 -4,-522.77 697.81,-522.77 697.81,4 -4,4"/>
<!-- BB0 -->
<g id="node1" class="node">
<title>BB0</title>
<ellipse fill="none" stroke="black" cx="340.45" cy="-481.29" rx="105.22" ry="37.45"/>
<text text-anchor="middle" x="340.45" y="-492.59" font-family="Times New Roman,serif" font-size="14.00">[0..47)</text>
<text text-anchor="middle" x="340.45" y="-477.59" font-family="Times New Roman,serif" font-size="14.00">Normalized Count: 1.00</text>
<text text-anchor="middle" x="340.45" y="-462.59" font-family="Times New Roman,serif" font-size="14.00">Samples weight: 0.00</text>
</g>
<!-- BB5 -->
<g id="node6" class="node">
<title>BB5</title>
<ellipse fill="none" stroke="black" cx="340.45" cy="-370.34" rx="124.4" ry="37.45"/>
<text text-anchor="middle" x="340.45" y="-381.64" font-family="Times New Roman,serif" font-size="14.00">[157..15f)</text>
<text text-anchor="middle" x="340.45" y="-366.64" font-family="Times New Roman,serif" font-size="14.00">Normalized Count: 20001.00</text>
<text text-anchor="middle" x="340.45" y="-351.64" font-family="Times New Roman,serif" font-size="14.00">Samples weight: 0.00</text>
</g>
<!-- BB0&#45;&gt;BB5 -->
<g id="edge1" class="edge">
<title>BB0&#45;&gt;BB5</title>
<path fill="none" stroke="black" d="M340.45,-443.71C340.45,-435.53 340.45,-426.75 340.45,-418.23"/>
<polygon fill="black" stroke="black" points="343.95,-418.01 340.45,-408.01 336.95,-418.01 343.95,-418.01"/>
</g>
<!-- BB1 -->
<g id="node2" class="node">
<title>BB1</title>
<ellipse fill="none" stroke="black" cx="340.45" cy="-259.38" rx="124.4" ry="37.45"/>
<text text-anchor="middle" x="340.45" y="-270.68" font-family="Times New Roman,serif" font-size="14.00">[47..4f)</text>
<text text-anchor="middle" x="340.45" y="-255.68" font-family="Times New Roman,serif" font-size="14.00">Normalized Count: 20000.00</text>
<text text-anchor="middle" x="340.45" y="-240.68" font-family="Times New Roman,serif" font-size="14.00">Samples weight: 0.00</text>
</g>
<!-- BB3 -->
<g id="node4" class="node">
<title>BB3</title>
<ellipse fill="none" stroke="black" cx="377.45" cy="-148.43" rx="139.1" ry="37.45"/>
<text text-anchor="middle" x="377.45" y="-159.73" font-family="Times New Roman,serif" font-size="14.00">[cf..df)</text>
<text text-anchor="middle" x="377.45" y="-144.73" font-family="Times New Roman,serif" font-size="14.00">Normalized Count: 50020000.00</text>
<text text-anchor="middle" x="377.45" y="-129.73" font-family="Times New Roman,serif" font-size="14.00">Samples weight: 0.50</text>
</g>
<!-- BB1&#45;&gt;BB3 -->
<g id="edge2" class="edge">
<title>BB1&#45;&gt;BB3</title>
<path fill="none" stroke="black" d="M352.87,-221.8C355.71,-213.45 358.76,-204.46 361.72,-195.76"/>
<polygon fill="black" stroke="black" points="365.1,-196.7 365,-186.1 358.47,-194.45 365.1,-196.7"/>
</g>
<!-- BB2 -->
<g id="node3" class="node">
<title>BB2</title>
<ellipse fill="none" stroke="black" cx="406.45" cy="-37.48" rx="139.1" ry="37.45"/>
<text text-anchor="middle" x="406.45" y="-48.78" font-family="Times New Roman,serif" font-size="14.00">[4f..cf)</text>
<text text-anchor="middle" x="406.45" y="-33.78" font-family="Times New Roman,serif" font-size="14.00">Normalized Count: 50000000.00</text>
<text text-anchor="middle" x="406.45" y="-18.78" font-family="Times New Roman,serif" font-size="14.00">Samples weight: 0.50</text>
</g>
<!-- BB2&#45;&gt;BB3 -->
<g id="edge3" class="edge">
<title>BB2&#45;&gt;BB3</title>
<path fill="none" stroke="black" d="M403.15,-74.97C401.23,-83.44 398.89,-92.56 396.39,-101.37"/>
<polygon fill="black" stroke="black" points="392.98,-100.57 393.51,-111.15 399.69,-102.54 392.98,-100.57"/>
</g>
<!-- BB3&#45;&gt;BB2 -->
<g id="edge4" class="edge">
<title>BB3&#45;&gt;BB2</title>
<path fill="none" stroke="black" d="M380.77,-110.85C382.69,-102.4 385.03,-93.31 387.52,-84.52"/>
<polygon fill="black" stroke="black" points="390.92,-85.36 390.38,-74.78 384.2,-83.38 390.92,-85.36"/>
</g>
<!-- BB4 -->
<g id="node5" class="node">
<title>BB4</title>
<ellipse fill="none" stroke="black" cx="124.45" cy="-37.48" rx="124.4" ry="37.45"/>
<text text-anchor="middle" x="124.45" y="-48.78" font-family="Times New Roman,serif" font-size="14.00">[df..157)</text>
<text text-anchor="middle" x="124.45" y="-33.78" font-family="Times New Roman,serif" font-size="14.00">Normalized Count: 20000.00</text>
<text text-anchor="middle" x="124.45" y="-18.78" font-family="Times New Roman,serif" font-size="14.00">Samples weight: 0.00</text>
</g>
<!-- BB3&#45;&gt;BB4 -->
<g id="edge5" class="edge">
<title>BB3&#45;&gt;BB4</title>
<path fill="none" stroke="black" d="M305.29,-116.35C273.65,-102.73 236.42,-86.69 203.98,-72.73"/>
<polygon fill="black" stroke="black" points="205.09,-69.39 194.53,-68.65 202.33,-75.82 205.09,-69.39"/>
</g>
<!-- BB4&#45;&gt;BB5 -->
<g id="edge6" class="edge">
<title>BB4&#45;&gt;BB5</title>
<path fill="none" stroke="black" d="M127.65,-75.1C134.1,-129.2 153.08,-231.16 207.45,-296.86 220.49,-312.62 237.88,-325.49 255.78,-335.77"/>
<polygon fill="black" stroke="black" points="254.14,-338.87 264.59,-340.62 257.51,-332.73 254.14,-338.87"/>
</g>
<!-- BB5&#45;&gt;BB1 -->
<g id="edge7" class="edge">
<title>BB5&#45;&gt;BB1</title>
<path fill="none" stroke="black" d="M340.45,-332.75C340.45,-324.58 340.45,-315.8 340.45,-307.27"/>
<polygon fill="black" stroke="black" points="343.95,-307.06 340.45,-297.06 336.95,-307.06 343.95,-307.06"/>
</g>
<!-- BB6 -->
<g id="node7" class="node">
<title>BB6</title>
<ellipse fill="none" stroke="black" cx="588.45" cy="-259.38" rx="105.22" ry="37.45"/>
<text text-anchor="middle" x="588.45" y="-270.68" font-family="Times New Roman,serif" font-size="14.00">[15f..161)</text>
<text text-anchor="middle" x="588.45" y="-255.68" font-family="Times New Roman,serif" font-size="14.00">Normalized Count: 1.00</text>
<text text-anchor="middle" x="588.45" y="-240.68" font-family="Times New Roman,serif" font-size="14.00">Samples weight: 0.00</text>
</g>
<!-- BB5&#45;&gt;BB6 -->
<g id="edge8" class="edge">
<title>BB5&#45;&gt;BB6</title>
<path fill="none" stroke="black" d="M409.53,-338.99C442.02,-324.71 480.81,-307.67 513.96,-293.11"/>
<polygon fill="black" stroke="black" points="515.4,-296.3 523.15,-289.07 512.59,-289.89 515.4,-296.3"/>
</g>
</g>
</svg>
