<?xml version="1.0" encoding="UTF-8" standalone="no"?>
<!DOCTYPE svg PUBLIC "-//W3C//DTD SVG 1.1//EN"
 "http://www.w3.org/Graphics/SVG/1.1/DTD/svg11.dtd">
<!-- Generated by graphviz version 2.47.0 (20210316.0004)
 -->
<!-- Title: G Pages: 1 -->
<svg width="641pt" height="527pt"
 viewBox="0.00 0.00 640.55 526.77" xmlns="http://www.w3.org/2000/svg" xmlns:xlink="http://www.w3.org/1999/xlink">
<g id="graph0" class="graph" transform="scale(1 1) rotate(0) translate(4 522.77)">
<title>G</title>
<polygon fill="white" stroke="transparent" points="-4,4 -4,-522.77 636.55,-522.77 636.55,4 -4,4"/>
<!-- BB0 -->
<g id="node1" class="node">
<title>BB0</title>
<ellipse fill="none" stroke="black" cx="293.77" cy="-481.29" rx="106.55" ry="37.45"/>
<text text-anchor="middle" x="293.77" y="-492.59" font-family="Times New Roman,serif" font-size="14.00">[0..35)</text>
<text text-anchor="middle" x="293.77" y="-477.59" font-family="Times New Roman,serif" font-size="14.00">Normalized Count: NaN</text>
<text text-anchor="middle" x="293.77" y="-462.59" font-family="Times New Roman,serif" font-size="14.00">Samples weight: 0.00</text>
</g>
<!-- BB5 -->
<g id="node6" class="node">
<title>BB5</title>
<ellipse fill="none" stroke="black" cx="293.77" cy="-370.34" rx="106.55" ry="37.45"/>
<text text-anchor="middle" x="293.77" y="-381.64" font-family="Times New Roman,serif" font-size="14.00">[f9..100)</text>
<text text-anchor="middle" x="293.77" y="-366.64" font-family="Times New Roman,serif" font-size="14.00">Normalized Count: NaN</text>
<text text-anchor="middle" x="293.77" y="-351.64" font-family="Times New Roman,serif" font-size="14.00">Samples weight: 0.00</text>
</g>
<!-- BB0&#45;&gt;BB5 -->
<g id="edge1" class="edge">
<title>BB0&#45;&gt;BB5</title>
<path fill="none" stroke="black" d="M293.77,-443.71C293.77,-435.53 293.77,-426.75 293.77,-418.23"/>
<polygon fill="black" stroke="black" points="297.27,-418.01 293.77,-408.01 290.27,-418.01 297.27,-418.01"/>
</g>
<!-- BB1 -->
<g id="node2" class="node">
<title>BB1</title>
<ellipse fill="none" stroke="black" cx="293.77" cy="-259.38" rx="106.55" ry="37.45"/>
<text text-anchor="middle" x="293.77" y="-270.68" font-family="Times New Roman,serif" font-size="14.00">[35..3a)</text>
<text text-anchor="middle" x="293.77" y="-255.68" font-family="Times New Roman,serif" font-size="14.00">Normalized Count: NaN</text>
<text text-anchor="middle" x="293.77" y="-240.68" font-family="Times New Roman,serif" font-size="14.00">Samples weight: 0.00</text>
</g>
<!-- BB3 -->
<g id="node4" class="node">
<title>BB3</title>
<ellipse fill="none" stroke="black" cx="322.77" cy="-148.43" rx="115.93" ry="37.45"/>
<text text-anchor="middle" x="322.77" y="-159.73" font-family="Times New Roman,serif" font-size="14.00">[7c..83)</text>
<text text-anchor="middle" x="322.77" y="-144.73" font-family="Times New Roman,serif" font-size="14.00">Normalized Count: Infinity</text>
<text text-anchor="middle" x="322.77" y="-129.73" font-family="Times New Roman,serif" font-size="14.00">Samples weight: 0.04</text>
</g>
<!-- BB1&#45;&gt;BB3 -->
<g id="edge2" class="edge">
<title>BB1&#45;&gt;BB3</title>
<path fill="none" stroke="black" d="M303.51,-221.8C305.71,-213.54 308.07,-204.65 310.37,-196.04"/>
<polygon fill="black" stroke="black" points="313.82,-196.67 313.01,-186.1 307.06,-194.87 313.82,-196.67"/>
</g>
<!-- BB2 -->
<g id="node3" class="node">
<title>BB2</title>
<ellipse fill="none" stroke="black" cx="347.77" cy="-37.48" rx="115.93" ry="37.45"/>
<text text-anchor="middle" x="347.77" y="-48.78" font-family="Times New Roman,serif" font-size="14.00">[3a..7c)</text>
<text text-anchor="middle" x="347.77" y="-33.78" font-family="Times New Roman,serif" font-size="14.00">Normalized Count: Infinity</text>
<text text-anchor="middle" x="347.77" y="-18.78" font-family="Times New Roman,serif" font-size="14.00">Samples weight: 0.96</text>
</g>
<!-- BB2&#45;&gt;BB3 -->
<g id="edge3" class="edge">
<title>BB2&#45;&gt;BB3</title>
<path fill="none" stroke="black" d="M345.81,-74.97C344.2,-83.44 342.19,-92.56 340.02,-101.37"/>
<polygon fill="black" stroke="black" points="336.61,-100.59 337.5,-111.15 343.38,-102.34 336.61,-100.59"/>
</g>
<!-- BB3&#45;&gt;BB2 -->
<g id="edge4" class="edge">
<title>BB3&#45;&gt;BB2</title>
<path fill="none" stroke="black" d="M324.75,-110.85C326.36,-102.4 328.36,-93.31 330.53,-84.52"/>
<polygon fill="black" stroke="black" points="333.93,-85.33 333.04,-74.78 327.16,-83.59 333.93,-85.33"/>
</g>
<!-- BB4 -->
<g id="node5" class="node">
<title>BB4</title>
<ellipse fill="none" stroke="black" cx="106.77" cy="-37.48" rx="106.55" ry="37.45"/>
<text text-anchor="middle" x="106.77" y="-48.78" font-family="Times New Roman,serif" font-size="14.00">[83..f9)</text>
<text text-anchor="middle" x="106.77" y="-33.78" font-family="Times New Roman,serif" font-size="14.00">Normalized Count: NaN</text>
<text text-anchor="middle" x="106.77" y="-18.78" font-family="Times New Roman,serif" font-size="14.00">Samples weight: 0.00</text>
</g>
<!-- BB3&#45;&gt;BB4 -->
<g id="edge5" class="edge">
<title>BB3&#45;&gt;BB4</title>
<path fill="none" stroke="black" d="M261.45,-116.5C234.78,-103.05 203.41,-87.22 175.92,-73.35"/>
<polygon fill="black" stroke="black" points="177.26,-70.11 166.75,-68.73 174.11,-76.36 177.26,-70.11"/>
</g>
<!-- BB4&#45;&gt;BB5 -->
<g id="edge6" class="edge">
<title>BB4&#45;&gt;BB5</title>
<path fill="none" stroke="black" d="M108.57,-75.07C112.89,-128.69 127.61,-229.52 177.77,-296.86 188.96,-311.88 204.27,-324.53 220.1,-334.84"/>
<polygon fill="black" stroke="black" points="218.58,-338.02 228.93,-340.33 222.28,-332.07 218.58,-338.02"/>
</g>
<!-- BB5&#45;&gt;BB1 -->
<g id="edge7" class="edge">
<title>BB5&#45;&gt;BB1</title>
<path fill="none" stroke="black" d="M293.77,-332.75C293.77,-324.58 293.77,-315.8 293.77,-307.27"/>
<polygon fill="black" stroke="black" points="297.27,-307.06 293.77,-297.06 290.27,-307.06 297.27,-307.06"/>
</g>
<!-- BB6 -->
<g id="node7" class="node">
<title>BB6</title>
<ellipse fill="none" stroke="black" cx="525.77" cy="-259.38" rx="106.55" ry="37.45"/>
<text text-anchor="middle" x="525.77" y="-270.68" font-family="Times New Roman,serif" font-size="14.00">[100..102)</text>
<text text-anchor="middle" x="525.77" y="-255.68" font-family="Times New Roman,serif" font-size="14.00">Normalized Count: NaN</text>
<text text-anchor="middle" x="525.77" y="-240.68" font-family="Times New Roman,serif" font-size="14.00">Samples weight: 0.00</text>
</g>
<!-- BB5&#45;&gt;BB6 -->
<g id="edge8" class="edge">
<title>BB5&#45;&gt;BB6</title>
<path fill="none" stroke="black" d="M356.56,-339.85C386.6,-325.74 422.73,-308.78 453.87,-294.15"/>
<polygon fill="black" stroke="black" points="455.38,-297.31 462.94,-289.89 452.4,-290.97 455.38,-297.31"/>
</g>
</g>
</svg>
