<?xml version="1.0" encoding="UTF-8" standalone="no"?>
<!DOCTYPE svg PUBLIC "-//W3C//DTD SVG 1.1//EN"
 "http://www.w3.org/Graphics/SVG/1.1/DTD/svg11.dtd">
<!-- Generated by graphviz version 2.47.0 (20210316.0004)
 -->
<!-- Title: G Pages: 1 -->
<svg width="298pt" height="421pt"
 viewBox="0.00 0.00 298.34 420.70" xmlns="http://www.w3.org/2000/svg" xmlns:xlink="http://www.w3.org/1999/xlink">
<g id="graph0" class="graph" transform="scale(1 1) rotate(0) translate(4 416.7)">
<title>G</title>
<polygon fill="white" stroke="transparent" points="-4,4 -4,-416.7 294.34,-416.7 294.34,4 -4,4"/>
<!-- BB0 -->
<g id="node1" class="node">
<title>BB0</title>
<ellipse fill="none" stroke="black" cx="126.01" cy="-385.83" rx="37.45" ry="26.74"/>
<text text-anchor="middle" x="126.01" y="-389.63" font-family="Times New Roman,serif" font-size="14.00">[0..35)</text>
<text text-anchor="middle" x="126.01" y="-374.63" font-family="Times New Roman,serif" font-size="14.00">0.00</text>
</g>
<!-- BB5 -->
<g id="node6" class="node">
<title>BB5</title>
<ellipse fill="none" stroke="black" cx="126.01" cy="-296.09" rx="45.92" ry="26.74"/>
<text text-anchor="middle" x="126.01" y="-299.89" font-family="Times New Roman,serif" font-size="14.00">[f9..100)</text>
<text text-anchor="middle" x="126.01" y="-284.89" font-family="Times New Roman,serif" font-size="14.00">0.00</text>
</g>
<!-- BB0&#45;&gt;BB5 -->
<g id="edge1" class="edge">
<title>BB0&#45;&gt;BB5</title>
<path fill="none" stroke="black" d="M126.01,-358.51C126.01,-350.54 126.01,-341.65 126.01,-333.16"/>
<polygon fill="black" stroke="black" points="129.51,-333.09 126.01,-323.09 122.51,-333.09 129.51,-333.09"/>
</g>
<!-- BB1 -->
<g id="node2" class="node">
<title>BB1</title>
<ellipse fill="none" stroke="black" cx="126.01" cy="-206.35" rx="41.94" ry="26.74"/>
<text text-anchor="middle" x="126.01" y="-210.15" font-family="Times New Roman,serif" font-size="14.00">[35..3a)</text>
<text text-anchor="middle" x="126.01" y="-195.15" font-family="Times New Roman,serif" font-size="14.00">0.00</text>
</g>
<!-- BB3 -->
<g id="node4" class="node">
<title>BB3</title>
<ellipse fill="none" stroke="black" cx="134.01" cy="-116.61" rx="42.35" ry="26.74"/>
<text text-anchor="middle" x="134.01" y="-120.41" font-family="Times New Roman,serif" font-size="14.00">[7c..83)</text>
<text text-anchor="middle" x="134.01" y="-105.41" font-family="Times New Roman,serif" font-size="14.00">0.04</text>
</g>
<!-- BB1&#45;&gt;BB3 -->
<g id="edge2" class="edge">
<title>BB1&#45;&gt;BB3</title>
<path fill="none" stroke="black" d="M128.37,-179.5C129.1,-171.45 129.93,-162.42 130.71,-153.8"/>
<polygon fill="black" stroke="black" points="134.22,-153.86 131.64,-143.58 127.25,-153.22 134.22,-153.86"/>
</g>
<!-- BB2 -->
<g id="node3" class="node">
<title>BB2</title>
<ellipse fill="none" stroke="black" cx="142.01" cy="-26.87" rx="41.94" ry="26.74"/>
<text text-anchor="middle" x="142.01" y="-30.67" font-family="Times New Roman,serif" font-size="14.00">[3a..7c)</text>
<text text-anchor="middle" x="142.01" y="-15.67" font-family="Times New Roman,serif" font-size="14.00">0.96</text>
</g>
<!-- BB2&#45;&gt;BB3 -->
<g id="edge3" class="edge">
<title>BB2&#45;&gt;BB3</title>
<path fill="none" stroke="black" d="M145.87,-53.8C145.63,-62.07 144.92,-71.36 143.88,-80.18"/>
<polygon fill="black" stroke="black" points="140.39,-79.85 142.51,-90.23 147.33,-80.8 140.39,-79.85"/>
</g>
<!-- BB3&#45;&gt;BB2 -->
<g id="edge4" class="edge">
<title>BB3&#45;&gt;BB2</title>
<path fill="none" stroke="black" d="M130.15,-89.76C130.39,-81.48 131.1,-72.15 132.14,-63.31"/>
<polygon fill="black" stroke="black" points="135.63,-63.61 133.51,-53.23 128.7,-62.67 135.63,-63.61"/>
</g>
<!-- BB4 -->
<g id="node5" class="node">
<title>BB4</title>
<ellipse fill="none" stroke="black" cx="41.01" cy="-26.87" rx="41.02" ry="26.74"/>
<text text-anchor="middle" x="41.01" y="-30.67" font-family="Times New Roman,serif" font-size="14.00">[83..f9)</text>
<text text-anchor="middle" x="41.01" y="-15.67" font-family="Times New Roman,serif" font-size="14.00">0.00</text>
</g>
<!-- BB3&#45;&gt;BB4 -->
<g id="edge5" class="edge">
<title>BB3&#45;&gt;BB4</title>
<path fill="none" stroke="black" d="M111.02,-93.92C98.97,-82.55 84.06,-68.49 71.1,-56.26"/>
<polygon fill="black" stroke="black" points="73.41,-53.63 63.74,-49.31 68.61,-58.72 73.41,-53.63"/>
</g>
<!-- BB4&#45;&gt;BB5 -->
<g id="edge6" class="edge">
<title>BB4&#45;&gt;BB5</title>
<path fill="none" stroke="black" d="M41.05,-53.76C42.03,-93.95 47.64,-173.02 75.01,-233.22 80.19,-244.61 88.01,-255.62 95.99,-265.12"/>
<polygon fill="black" stroke="black" points="93.44,-267.52 102.67,-272.72 98.7,-262.9 93.44,-267.52"/>
</g>
<!-- BB5&#45;&gt;BB1 -->
<g id="edge7" class="edge">
<title>BB5&#45;&gt;BB1</title>
<path fill="none" stroke="black" d="M126.01,-268.77C126.01,-260.8 126.01,-251.91 126.01,-243.42"/>
<polygon fill="black" stroke="black" points="129.51,-243.35 126.01,-233.35 122.51,-243.35 129.51,-243.35"/>
</g>
<!-- BB6 -->
<g id="node7" class="node">
<title>BB6</title>
<ellipse fill="none" stroke="black" cx="238.01" cy="-206.35" rx="52.15" ry="26.74"/>
<text text-anchor="middle" x="238.01" y="-210.15" font-family="Times New Roman,serif" font-size="14.00">[100..102)</text>
<text text-anchor="middle" x="238.01" y="-195.15" font-family="Times New Roman,serif" font-size="14.00">0.00</text>
</g>
<!-- BB5&#45;&gt;BB6 -->
<g id="edge8" class="edge">
<title>BB5&#45;&gt;BB6</title>
<path fill="none" stroke="black" d="M152.84,-274.07C167.5,-262.59 185.86,-248.21 201.77,-235.74"/>
<polygon fill="black" stroke="black" points="204.13,-238.34 209.84,-229.42 199.81,-232.83 204.13,-238.34"/>
</g>
</g>
</svg>
