<?xml version="1.0" encoding="UTF-8" standalone="no"?>
<!DOCTYPE svg PUBLIC "-//W3C//DTD SVG 1.1//EN"
 "http://www.w3.org/Graphics/SVG/1.1/DTD/svg11.dtd">
<!-- Generated by graphviz version 2.47.0 (20210316.0004)
 -->
<!-- Title: G Pages: 1 -->
<svg width="448pt" height="236pt"
 viewBox="0.00 0.00 448.42 236.33" xmlns="http://www.w3.org/2000/svg" xmlns:xlink="http://www.w3.org/1999/xlink">
<g id="graph0" class="graph" transform="scale(1 1) rotate(0) translate(4 232.33)">
<title>G</title>
<polygon fill="white" stroke="transparent" points="-4,4 -4,-232.33 444.42,-232.33 444.42,4 -4,4"/>
<!-- BB0 -->
<g id="node1" class="node">
<title>BB0</title>
<ellipse fill="none" stroke="black" cx="217.24" cy="-180.25" rx="103.48" ry="48.17"/>
<text text-anchor="middle" x="217.24" y="-199.05" font-family="Times New Roman,serif" font-size="14.00">[0..4)</text>
<text text-anchor="middle" x="217.24" y="-184.05" font-family="Times New Roman,serif" font-size="14.00">Count: 2</text>
<text text-anchor="middle" x="217.24" y="-169.05" font-family="Times New Roman,serif" font-size="14.00">Normalized count: 1.00</text>
<text text-anchor="middle" x="217.24" y="-154.05" font-family="Times New Roman,serif" font-size="14.00">Samples weight: 0.03</text>
</g>
<!-- BB1 -->
<g id="node2" class="node">
<title>BB1</title>
<ellipse fill="none" stroke="black" cx="103.24" cy="-48.08" rx="103.48" ry="48.17"/>
<text text-anchor="middle" x="103.24" y="-66.88" font-family="Times New Roman,serif" font-size="14.00">[4..16)</text>
<text text-anchor="middle" x="103.24" y="-51.88" font-family="Times New Roman,serif" font-size="14.00">Count: 0</text>
<text text-anchor="middle" x="103.24" y="-36.88" font-family="Times New Roman,serif" font-size="14.00">Normalized count: 0.00</text>
<text text-anchor="middle" x="103.24" y="-21.88" font-family="Times New Roman,serif" font-size="14.00">Samples weight: 0.00</text>
</g>
<!-- BB0&#45;&gt;BB1 -->
<g id="edge2" class="edge">
<title>BB0&#45;&gt;BB1</title>
<path fill="none" stroke="black" d="M178.96,-135.54C169.09,-124.28 158.38,-112.04 148.2,-100.43"/>
<polygon fill="black" stroke="black" points="150.83,-98.11 141.61,-92.9 145.56,-102.72 150.83,-98.11"/>
</g>
<!-- BB2 -->
<g id="node3" class="node">
<title>BB2</title>
<ellipse fill="none" stroke="black" cx="332.24" cy="-48.08" rx="108.38" ry="48.17"/>
<text text-anchor="middle" x="332.24" y="-66.88" font-family="Times New Roman,serif" font-size="14.00">[16..50)</text>
<text text-anchor="middle" x="332.24" y="-51.88" font-family="Times New Roman,serif" font-size="14.00">Count: 66</text>
<text text-anchor="middle" x="332.24" y="-36.88" font-family="Times New Roman,serif" font-size="14.00">Normalized count: 33.00</text>
<text text-anchor="middle" x="332.24" y="-21.88" font-family="Times New Roman,serif" font-size="14.00">Samples weight: 0.97</text>
</g>
<!-- BB0&#45;&gt;BB2 -->
<g id="edge1" class="edge">
<title>BB0&#45;&gt;BB2</title>
<path fill="none" stroke="black" d="M255.85,-135.54C265.61,-124.5 276.18,-112.54 286.26,-101.13"/>
<polygon fill="black" stroke="black" points="289.14,-103.15 293.14,-93.34 283.89,-98.52 289.14,-103.15"/>
</g>
<!-- BB1&#45;&gt;BB2 -->
<g id="edge3" class="edge">
<title>BB1&#45;&gt;BB2</title>
<path fill="none" stroke="black" d="M206.56,-48.08C208.88,-48.08 211.21,-48.08 213.54,-48.08"/>
<polygon fill="black" stroke="black" points="213.74,-51.58 223.74,-48.08 213.74,-44.58 213.74,-51.58"/>
</g>
</g>
</svg>
