<?xml version="1.0" encoding="UTF-8" standalone="no"?>
<!DOCTYPE svg PUBLIC "-//W3C//DTD SVG 1.1//EN"
 "http://www.w3.org/Graphics/SVG/1.1/DTD/svg11.dtd">
<!-- Generated by graphviz version 2.47.0 (20210316.0004)
 -->
<!-- Title: G Pages: 1 -->
<svg width="488pt" height="368pt"
 viewBox="0.00 0.00 487.52 368.50" xmlns="http://www.w3.org/2000/svg" xmlns:xlink="http://www.w3.org/1999/xlink">
<g id="graph0" class="graph" transform="scale(1 1) rotate(0) translate(4 364.5)">
<title>G</title>
<polygon fill="white" stroke="transparent" points="-4,4 -4,-364.5 483.52,-364.5 483.52,4 -4,4"/>
<!-- BB0 -->
<g id="node1" class="node">
<title>BB0</title>
<ellipse fill="none" stroke="black" cx="127.28" cy="-312.42" rx="103.48" ry="48.17"/>
<text text-anchor="middle" x="127.28" y="-331.22" font-family="Times New Roman,serif" font-size="14.00">[0..11)</text>
<text text-anchor="middle" x="127.28" y="-316.22" font-family="Times New Roman,serif" font-size="14.00">Count: 1</text>
<text text-anchor="middle" x="127.28" y="-301.22" font-family="Times New Roman,serif" font-size="14.00">Normalized count: 1.00</text>
<text text-anchor="middle" x="127.28" y="-286.22" font-family="Times New Roman,serif" font-size="14.00">Samples weight: 0.00</text>
</g>
<!-- BB2 -->
<g id="node3" class="node">
<title>BB2</title>
<ellipse fill="none" stroke="black" cx="127.28" cy="-180.25" rx="127.06" ry="48.17"/>
<text text-anchor="middle" x="127.28" y="-199.05" font-family="Times New Roman,serif" font-size="14.00">[1c..24)</text>
<text text-anchor="middle" x="127.28" y="-184.05" font-family="Times New Roman,serif" font-size="14.00">Count: 100001</text>
<text text-anchor="middle" x="127.28" y="-169.05" font-family="Times New Roman,serif" font-size="14.00">Normalized count: 100001.00</text>
<text text-anchor="middle" x="127.28" y="-154.05" font-family="Times New Roman,serif" font-size="14.00">Samples weight: 0.50</text>
</g>
<!-- BB0&#45;&gt;BB2 -->
<g id="edge1" class="edge">
<title>BB0&#45;&gt;BB2</title>
<path fill="none" stroke="black" d="M127.28,-264.05C127.28,-255.79 127.28,-247.1 127.28,-238.6"/>
<polygon fill="black" stroke="black" points="130.78,-238.36 127.28,-228.36 123.78,-238.36 130.78,-238.36"/>
</g>
<!-- BB1 -->
<g id="node2" class="node">
<title>BB1</title>
<ellipse fill="none" stroke="black" cx="127.28" cy="-48.08" rx="127.06" ry="48.17"/>
<text text-anchor="middle" x="127.28" y="-66.88" font-family="Times New Roman,serif" font-size="14.00">[11..1c)</text>
<text text-anchor="middle" x="127.28" y="-51.88" font-family="Times New Roman,serif" font-size="14.00">Count: 100000</text>
<text text-anchor="middle" x="127.28" y="-36.88" font-family="Times New Roman,serif" font-size="14.00">Normalized count: 100000.00</text>
<text text-anchor="middle" x="127.28" y="-21.88" font-family="Times New Roman,serif" font-size="14.00">Samples weight: 0.50</text>
</g>
<!-- BB1&#45;&gt;BB2 -->
<g id="edge2" class="edge">
<title>BB1&#45;&gt;BB2</title>
<path fill="none" stroke="black" d="M133.79,-96.19C134.02,-104.45 134.08,-113.13 133.99,-121.64"/>
<polygon fill="black" stroke="black" points="130.49,-121.83 133.8,-131.89 137.48,-121.95 130.49,-121.83"/>
</g>
<!-- BB2&#45;&gt;BB1 -->
<g id="edge3" class="edge">
<title>BB2&#45;&gt;BB1</title>
<path fill="none" stroke="black" d="M120.76,-131.89C120.54,-123.62 120.48,-114.94 120.57,-106.43"/>
<polygon fill="black" stroke="black" points="124.08,-106.26 120.76,-96.19 117.08,-106.12 124.08,-106.26"/>
</g>
<!-- BB3 -->
<g id="node4" class="node">
<title>BB3</title>
<ellipse fill="none" stroke="black" cx="376.28" cy="-48.08" rx="103.48" ry="48.17"/>
<text text-anchor="middle" x="376.28" y="-66.88" font-family="Times New Roman,serif" font-size="14.00">[24..25)</text>
<text text-anchor="middle" x="376.28" y="-51.88" font-family="Times New Roman,serif" font-size="14.00">Count: 1</text>
<text text-anchor="middle" x="376.28" y="-36.88" font-family="Times New Roman,serif" font-size="14.00">Normalized count: 1.00</text>
<text text-anchor="middle" x="376.28" y="-21.88" font-family="Times New Roman,serif" font-size="14.00">Samples weight: 0.00</text>
</g>
<!-- BB2&#45;&gt;BB3 -->
<g id="edge4" class="edge">
<title>BB2&#45;&gt;BB3</title>
<path fill="none" stroke="black" d="M200.64,-140.9C231.72,-124.66 267.93,-105.72 299.38,-89.28"/>
<polygon fill="black" stroke="black" points="301.31,-92.23 308.55,-84.49 298.06,-86.02 301.31,-92.23"/>
</g>
</g>
</svg>
