<?xml version="1.0" encoding="UTF-8" standalone="no"?>
<!DOCTYPE svg PUBLIC "-//W3C//DTD SVG 1.1//EN"
 "http://www.w3.org/Graphics/SVG/1.1/DTD/svg11.dtd">
<!-- Generated by graphviz version 2.47.0 (20210316.0004)
 -->
<!-- Title: G Pages: 1 -->
<svg width="1966pt" height="1690pt"
 viewBox="0.00 0.00 1966.42 1690.16" xmlns="http://www.w3.org/2000/svg" xmlns:xlink="http://www.w3.org/1999/xlink">
<g id="graph0" class="graph" transform="scale(1 1) rotate(0) translate(4 1686.16)">
<title>G</title>
<polygon fill="white" stroke="transparent" points="-4,4 -4,-1686.16 1962.42,-1686.16 1962.42,4 -4,4"/>
<!-- BB0 -->
<g id="node1" class="node">
<title>BB0</title>
<ellipse fill="none" stroke="black" cx="887.24" cy="-1634.08" rx="103.48" ry="48.17"/>
<text text-anchor="middle" x="887.24" y="-1652.88" font-family="Times New Roman,serif" font-size="14.00">[0..87)</text>
<text text-anchor="middle" x="887.24" y="-1637.88" font-family="Times New Roman,serif" font-size="14.00">Count: 247</text>
<text text-anchor="middle" x="887.24" y="-1622.88" font-family="Times New Roman,serif" font-size="14.00">Normalized count: 1.00</text>
<text text-anchor="middle" x="887.24" y="-1607.88" font-family="Times New Roman,serif" font-size="14.00">Samples weight: 0.00</text>
</g>
<!-- BB1 -->
<g id="node2" class="node">
<title>BB1</title>
<ellipse fill="none" stroke="black" cx="103.24" cy="-1501.92" rx="103.48" ry="48.17"/>
<text text-anchor="middle" x="103.24" y="-1520.72" font-family="Times New Roman,serif" font-size="14.00">[87..8c)</text>
<text text-anchor="middle" x="103.24" y="-1505.72" font-family="Times New Roman,serif" font-size="14.00">Count: 0</text>
<text text-anchor="middle" x="103.24" y="-1490.72" font-family="Times New Roman,serif" font-size="14.00">Normalized count: 0.00</text>
<text text-anchor="middle" x="103.24" y="-1475.72" font-family="Times New Roman,serif" font-size="14.00">Samples weight: 0.00</text>
</g>
<!-- BB0&#45;&gt;BB1 -->
<g id="edge1" class="edge">
<title>BB0&#45;&gt;BB1</title>
<path fill="none" stroke="black" d="M784.54,-1629.14C651.27,-1622.05 412.46,-1602.57 215.24,-1550 205.2,-1547.32 194.88,-1543.93 184.75,-1540.2"/>
<polygon fill="black" stroke="black" points="185.71,-1536.82 175.12,-1536.54 183.22,-1543.37 185.71,-1536.82"/>
</g>
<!-- BB2 -->
<g id="node3" class="node">
<title>BB2</title>
<ellipse fill="none" stroke="black" cx="327.24" cy="-1501.92" rx="103.48" ry="48.17"/>
<text text-anchor="middle" x="327.24" y="-1520.72" font-family="Times New Roman,serif" font-size="14.00">[8c..ac)</text>
<text text-anchor="middle" x="327.24" y="-1505.72" font-family="Times New Roman,serif" font-size="14.00">Count: 0</text>
<text text-anchor="middle" x="327.24" y="-1490.72" font-family="Times New Roman,serif" font-size="14.00">Normalized count: 0.00</text>
<text text-anchor="middle" x="327.24" y="-1475.72" font-family="Times New Roman,serif" font-size="14.00">Samples weight: 0.00</text>
</g>
<!-- BB0&#45;&gt;BB2 -->
<g id="edge2" class="edge">
<title>BB0&#45;&gt;BB2</title>
<path fill="none" stroke="black" d="M787.91,-1620.9C696.16,-1608.18 556.71,-1585.14 439.24,-1550 429.44,-1547.07 419.33,-1543.56 409.38,-1539.79"/>
<polygon fill="black" stroke="black" points="410.5,-1536.47 399.91,-1536.11 407.97,-1543 410.5,-1536.47"/>
</g>
<!-- BB3 -->
<g id="node4" class="node">
<title>BB3</title>
<ellipse fill="none" stroke="black" cx="551.24" cy="-1501.92" rx="103.48" ry="48.17"/>
<text text-anchor="middle" x="551.24" y="-1520.72" font-family="Times New Roman,serif" font-size="14.00">[ac..cc)</text>
<text text-anchor="middle" x="551.24" y="-1505.72" font-family="Times New Roman,serif" font-size="14.00">Count: 0</text>
<text text-anchor="middle" x="551.24" y="-1490.72" font-family="Times New Roman,serif" font-size="14.00">Normalized count: 0.00</text>
<text text-anchor="middle" x="551.24" y="-1475.72" font-family="Times New Roman,serif" font-size="14.00">Samples weight: 0.00</text>
</g>
<!-- BB0&#45;&gt;BB3 -->
<g id="edge5" class="edge">
<title>BB0&#45;&gt;BB3</title>
<path fill="none" stroke="black" d="M806.31,-1604.01C763.59,-1588.43 710.39,-1568.64 663.24,-1550 654.26,-1546.45 644.92,-1542.67 635.63,-1538.84"/>
<polygon fill="black" stroke="black" points="636.94,-1535.6 626.36,-1535.02 634.27,-1542.07 636.94,-1535.6"/>
</g>
<!-- BB4 -->
<g id="node5" class="node">
<title>BB4</title>
<ellipse fill="none" stroke="black" cx="775.24" cy="-1501.92" rx="103.48" ry="48.17"/>
<text text-anchor="middle" x="775.24" y="-1520.72" font-family="Times New Roman,serif" font-size="14.00">[cc..d7)</text>
<text text-anchor="middle" x="775.24" y="-1505.72" font-family="Times New Roman,serif" font-size="14.00">Count: 0</text>
<text text-anchor="middle" x="775.24" y="-1490.72" font-family="Times New Roman,serif" font-size="14.00">Normalized count: 0.00</text>
<text text-anchor="middle" x="775.24" y="-1475.72" font-family="Times New Roman,serif" font-size="14.00">Samples weight: 0.00</text>
</g>
<!-- BB0&#45;&gt;BB4 -->
<g id="edge3" class="edge">
<title>BB0&#45;&gt;BB4</title>
<path fill="none" stroke="black" d="M849.32,-1589.01C839.83,-1577.99 829.57,-1566.06 819.79,-1554.7"/>
<polygon fill="black" stroke="black" points="822.29,-1552.24 813.12,-1546.94 816.99,-1556.8 822.29,-1552.24"/>
</g>
<!-- BB5 -->
<g id="node6" class="node">
<title>BB5</title>
<ellipse fill="none" stroke="black" cx="999.24" cy="-1501.92" rx="103.48" ry="48.17"/>
<text text-anchor="middle" x="999.24" y="-1520.72" font-family="Times New Roman,serif" font-size="14.00">[d7..e3)</text>
<text text-anchor="middle" x="999.24" y="-1505.72" font-family="Times New Roman,serif" font-size="14.00">Count: 0</text>
<text text-anchor="middle" x="999.24" y="-1490.72" font-family="Times New Roman,serif" font-size="14.00">Normalized count: 0.00</text>
<text text-anchor="middle" x="999.24" y="-1475.72" font-family="Times New Roman,serif" font-size="14.00">Samples weight: 0.00</text>
</g>
<!-- BB0&#45;&gt;BB5 -->
<g id="edge7" class="edge">
<title>BB0&#45;&gt;BB5</title>
<path fill="none" stroke="black" d="M925.16,-1589.01C934.64,-1577.99 944.91,-1566.06 954.68,-1554.7"/>
<polygon fill="black" stroke="black" points="957.49,-1556.8 961.36,-1546.94 952.18,-1552.24 957.49,-1556.8"/>
</g>
<!-- BB6 -->
<g id="node7" class="node">
<title>BB6</title>
<ellipse fill="none" stroke="black" cx="1223.24" cy="-1501.92" rx="103.48" ry="48.17"/>
<text text-anchor="middle" x="1223.24" y="-1520.72" font-family="Times New Roman,serif" font-size="14.00">[e3..ef)</text>
<text text-anchor="middle" x="1223.24" y="-1505.72" font-family="Times New Roman,serif" font-size="14.00">Count: 0</text>
<text text-anchor="middle" x="1223.24" y="-1490.72" font-family="Times New Roman,serif" font-size="14.00">Normalized count: 0.00</text>
<text text-anchor="middle" x="1223.24" y="-1475.72" font-family="Times New Roman,serif" font-size="14.00">Samples weight: 0.00</text>
</g>
<!-- BB0&#45;&gt;BB6 -->
<g id="edge4" class="edge">
<title>BB0&#45;&gt;BB6</title>
<path fill="none" stroke="black" d="M968.17,-1604.01C1010.88,-1588.43 1064.08,-1568.64 1111.24,-1550 1120.21,-1546.45 1129.55,-1542.67 1138.85,-1538.84"/>
<polygon fill="black" stroke="black" points="1140.21,-1542.07 1148.11,-1535.02 1137.53,-1535.6 1140.21,-1542.07"/>
</g>
<!-- BB7 -->
<g id="node8" class="node">
<title>BB7</title>
<ellipse fill="none" stroke="black" cx="1671.24" cy="-1501.92" rx="103.48" ry="48.17"/>
<text text-anchor="middle" x="1671.24" y="-1520.72" font-family="Times New Roman,serif" font-size="14.00">[ef..10b)</text>
<text text-anchor="middle" x="1671.24" y="-1505.72" font-family="Times New Roman,serif" font-size="14.00">Count: 247</text>
<text text-anchor="middle" x="1671.24" y="-1490.72" font-family="Times New Roman,serif" font-size="14.00">Normalized count: 1.00</text>
<text text-anchor="middle" x="1671.24" y="-1475.72" font-family="Times New Roman,serif" font-size="14.00">Samples weight: 0.00</text>
</g>
<!-- BB0&#45;&gt;BB7 -->
<g id="edge6" class="edge">
<title>BB0&#45;&gt;BB7</title>
<path fill="none" stroke="black" d="M989.94,-1629.14C1123.21,-1622.05 1362.02,-1602.57 1559.24,-1550 1569.28,-1547.32 1579.6,-1543.93 1589.72,-1540.2"/>
<polygon fill="black" stroke="black" points="1591.26,-1543.37 1599.36,-1536.54 1588.76,-1536.82 1591.26,-1543.37"/>
</g>
<!-- BB31 -->
<g id="node32" class="node">
<title>BB31</title>
<ellipse fill="none" stroke="black" cx="1447.24" cy="-1501.92" rx="103.48" ry="48.17"/>
<text text-anchor="middle" x="1447.24" y="-1520.72" font-family="Times New Roman,serif" font-size="14.00">[240..249)</text>
<text text-anchor="middle" x="1447.24" y="-1505.72" font-family="Times New Roman,serif" font-size="14.00">Count: 0</text>
<text text-anchor="middle" x="1447.24" y="-1490.72" font-family="Times New Roman,serif" font-size="14.00">Normalized count: 0.00</text>
<text text-anchor="middle" x="1447.24" y="-1475.72" font-family="Times New Roman,serif" font-size="14.00">Samples weight: 0.00</text>
</g>
<!-- BB0&#45;&gt;BB31 -->
<g id="edge8" class="edge">
<title>BB0&#45;&gt;BB31</title>
<path fill="none" stroke="black" d="M986.56,-1620.9C1078.31,-1608.18 1217.77,-1585.14 1335.24,-1550 1345.04,-1547.07 1355.15,-1543.56 1365.09,-1539.79"/>
<polygon fill="black" stroke="black" points="1366.51,-1543 1374.56,-1536.11 1363.97,-1536.47 1366.51,-1543"/>
</g>
<!-- BB32 -->
<g id="node33" class="node">
<title>BB32</title>
<ellipse fill="none" stroke="black" cx="781.24" cy="-1369.75" rx="103.48" ry="48.17"/>
<text text-anchor="middle" x="781.24" y="-1388.55" font-family="Times New Roman,serif" font-size="14.00">[249..250)</text>
<text text-anchor="middle" x="781.24" y="-1373.55" font-family="Times New Roman,serif" font-size="14.00">Count: 247</text>
<text text-anchor="middle" x="781.24" y="-1358.55" font-family="Times New Roman,serif" font-size="14.00">Normalized count: 1.00</text>
<text text-anchor="middle" x="781.24" y="-1343.55" font-family="Times New Roman,serif" font-size="14.00">Samples weight: 0.00</text>
</g>
<!-- BB1&#45;&gt;BB32 -->
<g id="edge9" class="edge">
<title>BB1&#45;&gt;BB32</title>
<path fill="none" stroke="black" d="M175.49,-1467.42C188.52,-1462.29 202.13,-1457.48 215.24,-1453.83 369.4,-1410.86 553.73,-1389.07 669.18,-1378.82"/>
<polygon fill="black" stroke="black" points="669.79,-1382.28 679.44,-1377.92 669.18,-1375.3 669.79,-1382.28"/>
</g>
<!-- BB2&#45;&gt;BB32 -->
<g id="edge10" class="edge">
<title>BB2&#45;&gt;BB32</title>
<path fill="none" stroke="black" d="M400.71,-1468.07C413.42,-1462.95 426.62,-1457.99 439.24,-1453.83 517.65,-1428.01 608.55,-1406.3 676.92,-1391.56"/>
<polygon fill="black" stroke="black" points="677.8,-1394.95 686.84,-1389.43 676.33,-1388.11 677.8,-1394.95"/>
</g>
<!-- BB3&#45;&gt;BB32 -->
<g id="edge11" class="edge">
<title>BB3&#45;&gt;BB32</title>
<path fill="none" stroke="black" d="M615.92,-1464.31C644.45,-1448.16 678.14,-1429.09 707.64,-1412.4"/>
<polygon fill="black" stroke="black" points="709.67,-1415.28 716.65,-1407.3 706.22,-1409.18 709.67,-1415.28"/>
</g>
<!-- BB4&#45;&gt;BB32 -->
<g id="edge12" class="edge">
<title>BB4&#45;&gt;BB32</title>
<path fill="none" stroke="black" d="M777.42,-1453.55C777.8,-1445.29 778.2,-1436.6 778.59,-1428.1"/>
<polygon fill="black" stroke="black" points="782.1,-1428.01 779.07,-1417.86 775.11,-1427.68 782.1,-1428.01"/>
</g>
<!-- BB5&#45;&gt;BB32 -->
<g id="edge13" class="edge">
<title>BB5&#45;&gt;BB32</title>
<path fill="none" stroke="black" d="M936.77,-1463.61C910.43,-1447.89 879.63,-1429.5 852.42,-1413.25"/>
<polygon fill="black" stroke="black" points="854.1,-1410.18 843.72,-1408.05 850.51,-1416.19 854.1,-1410.18"/>
</g>
<!-- BB6&#45;&gt;BB32 -->
<g id="edge14" class="edge">
<title>BB6&#45;&gt;BB32</title>
<path fill="none" stroke="black" d="M1149.44,-1468.04C1136.82,-1462.95 1123.74,-1458.01 1111.24,-1453.83 1036.62,-1428.91 950.34,-1407.44 884.72,-1392.57"/>
<polygon fill="black" stroke="black" points="885.3,-1389.11 874.78,-1390.33 883.77,-1395.94 885.3,-1389.11"/>
</g>
<!-- BB8 -->
<g id="node9" class="node">
<title>BB8</title>
<ellipse fill="none" stroke="black" cx="1447.24" cy="-1369.75" rx="103.48" ry="48.17"/>
<text text-anchor="middle" x="1447.24" y="-1388.55" font-family="Times New Roman,serif" font-size="14.00">[10b..118)</text>
<text text-anchor="middle" x="1447.24" y="-1373.55" font-family="Times New Roman,serif" font-size="14.00">Count: 112</text>
<text text-anchor="middle" x="1447.24" y="-1358.55" font-family="Times New Roman,serif" font-size="14.00">Normalized count: 0.45</text>
<text text-anchor="middle" x="1447.24" y="-1343.55" font-family="Times New Roman,serif" font-size="14.00">Samples weight: 0.00</text>
</g>
<!-- BB7&#45;&gt;BB8 -->
<g id="edge16" class="edge">
<title>BB7&#45;&gt;BB8</title>
<path fill="none" stroke="black" d="M1607.65,-1463.96C1580.22,-1448.02 1547.99,-1429.3 1519.65,-1412.83"/>
<polygon fill="black" stroke="black" points="1521.39,-1409.79 1510.99,-1407.79 1517.87,-1415.84 1521.39,-1409.79"/>
</g>
<!-- BB9 -->
<g id="node10" class="node">
<title>BB9</title>
<ellipse fill="none" stroke="black" cx="1671.24" cy="-1369.75" rx="103.48" ry="48.17"/>
<text text-anchor="middle" x="1671.24" y="-1388.55" font-family="Times New Roman,serif" font-size="14.00">[118..11f)</text>
<text text-anchor="middle" x="1671.24" y="-1373.55" font-family="Times New Roman,serif" font-size="14.00">Count: 135</text>
<text text-anchor="middle" x="1671.24" y="-1358.55" font-family="Times New Roman,serif" font-size="14.00">Normalized count: 0.55</text>
<text text-anchor="middle" x="1671.24" y="-1343.55" font-family="Times New Roman,serif" font-size="14.00">Samples weight: 0.00</text>
</g>
<!-- BB7&#45;&gt;BB9 -->
<g id="edge15" class="edge">
<title>BB7&#45;&gt;BB9</title>
<path fill="none" stroke="black" d="M1671.24,-1453.55C1671.24,-1445.29 1671.24,-1436.6 1671.24,-1428.1"/>
<polygon fill="black" stroke="black" points="1674.74,-1427.86 1671.24,-1417.86 1667.74,-1427.86 1674.74,-1427.86"/>
</g>
<!-- BB8&#45;&gt;BB9 -->
<g id="edge18" class="edge">
<title>BB8&#45;&gt;BB9</title>
<path fill="none" stroke="black" d="M1550.49,-1369.75C1552.94,-1369.75 1555.4,-1369.75 1557.85,-1369.75"/>
<polygon fill="black" stroke="black" points="1557.94,-1373.25 1567.94,-1369.75 1557.94,-1366.25 1557.94,-1373.25"/>
</g>
<!-- BB10 -->
<g id="node11" class="node">
<title>BB10</title>
<ellipse fill="none" stroke="black" cx="1447.24" cy="-1237.58" rx="103.48" ry="48.17"/>
<text text-anchor="middle" x="1447.24" y="-1256.38" font-family="Times New Roman,serif" font-size="14.00">[11f..128)</text>
<text text-anchor="middle" x="1447.24" y="-1241.38" font-family="Times New Roman,serif" font-size="14.00">Count: 247</text>
<text text-anchor="middle" x="1447.24" y="-1226.38" font-family="Times New Roman,serif" font-size="14.00">Normalized count: 1.00</text>
<text text-anchor="middle" x="1447.24" y="-1211.38" font-family="Times New Roman,serif" font-size="14.00">Samples weight: 0.00</text>
</g>
<!-- BB8&#45;&gt;BB10 -->
<g id="edge17" class="edge">
<title>BB8&#45;&gt;BB10</title>
<path fill="none" stroke="black" d="M1447.24,-1321.39C1447.24,-1313.12 1447.24,-1304.44 1447.24,-1295.93"/>
<polygon fill="black" stroke="black" points="1450.74,-1295.69 1447.24,-1285.69 1443.74,-1295.69 1450.74,-1295.69"/>
</g>
<!-- BB9&#45;&gt;BB10 -->
<g id="edge19" class="edge">
<title>BB9&#45;&gt;BB10</title>
<path fill="none" stroke="black" d="M1607.65,-1331.8C1580.22,-1315.86 1547.99,-1297.13 1519.65,-1280.66"/>
<polygon fill="black" stroke="black" points="1521.39,-1277.62 1510.99,-1275.63 1517.87,-1283.68 1521.39,-1277.62"/>
</g>
<!-- BB11 -->
<g id="node12" class="node">
<title>BB11</title>
<ellipse fill="none" stroke="black" cx="1223.24" cy="-1105.42" rx="103.48" ry="48.17"/>
<text text-anchor="middle" x="1223.24" y="-1124.22" font-family="Times New Roman,serif" font-size="14.00">[128..131)</text>
<text text-anchor="middle" x="1223.24" y="-1109.22" font-family="Times New Roman,serif" font-size="14.00">Count: 56</text>
<text text-anchor="middle" x="1223.24" y="-1094.22" font-family="Times New Roman,serif" font-size="14.00">Normalized count: 0.23</text>
<text text-anchor="middle" x="1223.24" y="-1079.22" font-family="Times New Roman,serif" font-size="14.00">Samples weight: 0.00</text>
</g>
<!-- BB10&#45;&gt;BB11 -->
<g id="edge21" class="edge">
<title>BB10&#45;&gt;BB11</title>
<path fill="none" stroke="black" d="M1383.65,-1199.63C1356.22,-1183.69 1323.99,-1164.96 1295.65,-1148.49"/>
<polygon fill="black" stroke="black" points="1297.39,-1145.46 1286.99,-1143.46 1293.87,-1151.51 1297.39,-1145.46"/>
</g>
<!-- BB12 -->
<g id="node13" class="node">
<title>BB12</title>
<ellipse fill="none" stroke="black" cx="1447.24" cy="-1105.42" rx="103.48" ry="48.17"/>
<text text-anchor="middle" x="1447.24" y="-1124.22" font-family="Times New Roman,serif" font-size="14.00">[131..13a)</text>
<text text-anchor="middle" x="1447.24" y="-1109.22" font-family="Times New Roman,serif" font-size="14.00">Count: 191</text>
<text text-anchor="middle" x="1447.24" y="-1094.22" font-family="Times New Roman,serif" font-size="14.00">Normalized count: 0.77</text>
<text text-anchor="middle" x="1447.24" y="-1079.22" font-family="Times New Roman,serif" font-size="14.00">Samples weight: 0.00</text>
</g>
<!-- BB10&#45;&gt;BB12 -->
<g id="edge20" class="edge">
<title>BB10&#45;&gt;BB12</title>
<path fill="none" stroke="black" d="M1447.24,-1189.22C1447.24,-1180.95 1447.24,-1172.27 1447.24,-1163.77"/>
<polygon fill="black" stroke="black" points="1450.74,-1163.52 1447.24,-1153.52 1443.74,-1163.52 1450.74,-1163.52"/>
</g>
<!-- BB11&#45;&gt;BB12 -->
<g id="edge23" class="edge">
<title>BB11&#45;&gt;BB12</title>
<path fill="none" stroke="black" d="M1326.49,-1105.42C1328.94,-1105.42 1331.4,-1105.42 1333.85,-1105.42"/>
<polygon fill="black" stroke="black" points="1333.94,-1108.92 1343.94,-1105.42 1333.94,-1101.92 1333.94,-1108.92"/>
</g>
<!-- BB13 -->
<g id="node14" class="node">
<title>BB13</title>
<ellipse fill="none" stroke="black" cx="1223.24" cy="-973.25" rx="103.48" ry="48.17"/>
<text text-anchor="middle" x="1223.24" y="-992.05" font-family="Times New Roman,serif" font-size="14.00">[13a..141)</text>
<text text-anchor="middle" x="1223.24" y="-977.05" font-family="Times New Roman,serif" font-size="14.00">Count: 56</text>
<text text-anchor="middle" x="1223.24" y="-962.05" font-family="Times New Roman,serif" font-size="14.00">Normalized count: 0.23</text>
<text text-anchor="middle" x="1223.24" y="-947.05" font-family="Times New Roman,serif" font-size="14.00">Samples weight: 0.00</text>
</g>
<!-- BB11&#45;&gt;BB13 -->
<g id="edge22" class="edge">
<title>BB11&#45;&gt;BB13</title>
<path fill="none" stroke="black" d="M1223.24,-1057.05C1223.24,-1048.79 1223.24,-1040.1 1223.24,-1031.6"/>
<polygon fill="black" stroke="black" points="1226.74,-1031.36 1223.24,-1021.36 1219.74,-1031.36 1226.74,-1031.36"/>
</g>
<!-- BB14 -->
<g id="node15" class="node">
<title>BB14</title>
<ellipse fill="none" stroke="black" cx="1447.24" cy="-973.25" rx="103.48" ry="48.17"/>
<text text-anchor="middle" x="1447.24" y="-992.05" font-family="Times New Roman,serif" font-size="14.00">[141..16d)</text>
<text text-anchor="middle" x="1447.24" y="-977.05" font-family="Times New Roman,serif" font-size="14.00">Count: 247</text>
<text text-anchor="middle" x="1447.24" y="-962.05" font-family="Times New Roman,serif" font-size="14.00">Normalized count: 1.00</text>
<text text-anchor="middle" x="1447.24" y="-947.05" font-family="Times New Roman,serif" font-size="14.00">Samples weight: 0.00</text>
</g>
<!-- BB12&#45;&gt;BB14 -->
<g id="edge24" class="edge">
<title>BB12&#45;&gt;BB14</title>
<path fill="none" stroke="black" d="M1447.24,-1057.05C1447.24,-1048.79 1447.24,-1040.1 1447.24,-1031.6"/>
<polygon fill="black" stroke="black" points="1450.74,-1031.36 1447.24,-1021.36 1443.74,-1031.36 1450.74,-1031.36"/>
</g>
<!-- BB13&#45;&gt;BB14 -->
<g id="edge25" class="edge">
<title>BB13&#45;&gt;BB14</title>
<path fill="none" stroke="black" d="M1326.49,-973.25C1328.94,-973.25 1331.4,-973.25 1333.85,-973.25"/>
<polygon fill="black" stroke="black" points="1333.94,-976.75 1343.94,-973.25 1333.94,-969.75 1333.94,-976.75"/>
</g>
<!-- BB16 -->
<g id="node17" class="node">
<title>BB16</title>
<ellipse fill="none" stroke="black" cx="1440.24" cy="-841.08" rx="103.48" ry="48.17"/>
<text text-anchor="middle" x="1440.24" y="-859.88" font-family="Times New Roman,serif" font-size="14.00">[17e..182)</text>
<text text-anchor="middle" x="1440.24" y="-844.88" font-family="Times New Roman,serif" font-size="14.00">Count: 451</text>
<text text-anchor="middle" x="1440.24" y="-829.88" font-family="Times New Roman,serif" font-size="14.00">Normalized count: 1.83</text>
<text text-anchor="middle" x="1440.24" y="-814.88" font-family="Times New Roman,serif" font-size="14.00">Samples weight: 0.01</text>
</g>
<!-- BB14&#45;&gt;BB16 -->
<g id="edge26" class="edge">
<title>BB14&#45;&gt;BB16</title>
<path fill="none" stroke="black" d="M1444.69,-924.89C1444.25,-916.62 1443.78,-907.94 1443.32,-899.43"/>
<polygon fill="black" stroke="black" points="1446.8,-898.99 1442.77,-889.19 1439.81,-899.36 1446.8,-898.99"/>
</g>
<!-- BB15 -->
<g id="node16" class="node">
<title>BB15</title>
<ellipse fill="none" stroke="black" cx="1338.24" cy="-708.92" rx="103.48" ry="48.17"/>
<text text-anchor="middle" x="1338.24" y="-727.72" font-family="Times New Roman,serif" font-size="14.00">[16d..17e)</text>
<text text-anchor="middle" x="1338.24" y="-712.72" font-family="Times New Roman,serif" font-size="14.00">Count: 204</text>
<text text-anchor="middle" x="1338.24" y="-697.72" font-family="Times New Roman,serif" font-size="14.00">Normalized count: 0.83</text>
<text text-anchor="middle" x="1338.24" y="-682.72" font-family="Times New Roman,serif" font-size="14.00">Samples weight: 0.00</text>
</g>
<!-- BB15&#45;&gt;BB16 -->
<g id="edge27" class="edge">
<title>BB15&#45;&gt;BB16</title>
<path fill="none" stroke="black" d="M1378.59,-753.24C1387.39,-764.02 1396.62,-775.69 1405.2,-786.88"/>
<polygon fill="black" stroke="black" points="1402.47,-789.08 1411.31,-794.92 1408.04,-784.84 1402.47,-789.08"/>
</g>
<!-- BB16&#45;&gt;BB15 -->
<g id="edge28" class="edge">
<title>BB16&#45;&gt;BB15</title>
<path fill="none" stroke="black" d="M1399.87,-796.74C1391.12,-786.03 1381.95,-774.43 1373.42,-763.3"/>
<polygon fill="black" stroke="black" points="1376.17,-761.14 1367.33,-755.3 1370.6,-765.38 1376.17,-761.14"/>
</g>
<!-- BB17 -->
<g id="node18" class="node">
<title>BB17</title>
<ellipse fill="none" stroke="black" cx="1562.24" cy="-708.92" rx="103.48" ry="48.17"/>
<text text-anchor="middle" x="1562.24" y="-727.72" font-family="Times New Roman,serif" font-size="14.00">[182..186)</text>
<text text-anchor="middle" x="1562.24" y="-712.72" font-family="Times New Roman,serif" font-size="14.00">Count: 247</text>
<text text-anchor="middle" x="1562.24" y="-697.72" font-family="Times New Roman,serif" font-size="14.00">Normalized count: 1.00</text>
<text text-anchor="middle" x="1562.24" y="-682.72" font-family="Times New Roman,serif" font-size="14.00">Samples weight: 0.00</text>
</g>
<!-- BB16&#45;&gt;BB17 -->
<g id="edge29" class="edge">
<title>BB16&#45;&gt;BB17</title>
<path fill="none" stroke="black" d="M1480.86,-796.74C1491.55,-785.33 1503.18,-772.92 1514.22,-761.14"/>
<polygon fill="black" stroke="black" points="1517.09,-763.2 1521.37,-753.51 1511.98,-758.42 1517.09,-763.2"/>
</g>
<!-- BB25 -->
<g id="node26" class="node">
<title>BB25</title>
<ellipse fill="none" stroke="black" cx="1536.24" cy="-576.75" rx="108.38" ry="48.17"/>
<text text-anchor="middle" x="1536.24" y="-595.55" font-family="Times New Roman,serif" font-size="14.00">[1e7..1ec)</text>
<text text-anchor="middle" x="1536.24" y="-580.55" font-family="Times New Roman,serif" font-size="14.00">Count: 7622</text>
<text text-anchor="middle" x="1536.24" y="-565.55" font-family="Times New Roman,serif" font-size="14.00">Normalized count: 30.86</text>
<text text-anchor="middle" x="1536.24" y="-550.55" font-family="Times New Roman,serif" font-size="14.00">Samples weight: 0.14</text>
</g>
<!-- BB17&#45;&gt;BB25 -->
<g id="edge30" class="edge">
<title>BB17&#45;&gt;BB25</title>
<path fill="none" stroke="black" d="M1552.85,-660.92C1551.14,-652.35 1549.34,-643.33 1547.57,-634.51"/>
<polygon fill="black" stroke="black" points="1551,-633.79 1545.61,-624.67 1544.14,-635.17 1551,-633.79"/>
</g>
<!-- BB18 -->
<g id="node19" class="node">
<title>BB18</title>
<ellipse fill="none" stroke="black" cx="1621.24" cy="-444.58" rx="108.38" ry="48.17"/>
<text text-anchor="middle" x="1621.24" y="-463.38" font-family="Times New Roman,serif" font-size="14.00">[186..199)</text>
<text text-anchor="middle" x="1621.24" y="-448.38" font-family="Times New Roman,serif" font-size="14.00">Count: 7375</text>
<text text-anchor="middle" x="1621.24" y="-433.38" font-family="Times New Roman,serif" font-size="14.00">Normalized count: 29.86</text>
<text text-anchor="middle" x="1621.24" y="-418.38" font-family="Times New Roman,serif" font-size="14.00">Samples weight: 0.14</text>
</g>
<!-- BB19 -->
<g id="node20" class="node">
<title>BB19</title>
<ellipse fill="none" stroke="black" cx="1850.24" cy="-312.42" rx="103.48" ry="48.17"/>
<text text-anchor="middle" x="1850.24" y="-331.22" font-family="Times New Roman,serif" font-size="14.00">[199..19f)</text>
<text text-anchor="middle" x="1850.24" y="-316.22" font-family="Times New Roman,serif" font-size="14.00">Count: 1065</text>
<text text-anchor="middle" x="1850.24" y="-301.22" font-family="Times New Roman,serif" font-size="14.00">Normalized count: 4.31</text>
<text text-anchor="middle" x="1850.24" y="-286.22" font-family="Times New Roman,serif" font-size="14.00">Samples weight: 0.02</text>
</g>
<!-- BB18&#45;&gt;BB19 -->
<g id="edge32" class="edge">
<title>BB18&#45;&gt;BB19</title>
<path fill="none" stroke="black" d="M1686.86,-406.28C1715.01,-390.28 1748.01,-371.53 1776.95,-355.07"/>
<polygon fill="black" stroke="black" points="1778.83,-358.03 1785.79,-350.05 1775.37,-351.95 1778.83,-358.03"/>
</g>
<!-- BB23 -->
<g id="node24" class="node">
<title>BB23</title>
<ellipse fill="none" stroke="black" cx="1621.24" cy="-312.42" rx="108.38" ry="48.17"/>
<text text-anchor="middle" x="1621.24" y="-331.22" font-family="Times New Roman,serif" font-size="14.00">[1cc..1ce)</text>
<text text-anchor="middle" x="1621.24" y="-316.22" font-family="Times New Roman,serif" font-size="14.00">Count: 6310</text>
<text text-anchor="middle" x="1621.24" y="-301.22" font-family="Times New Roman,serif" font-size="14.00">Normalized count: 25.55</text>
<text text-anchor="middle" x="1621.24" y="-286.22" font-family="Times New Roman,serif" font-size="14.00">Samples weight: 0.12</text>
</g>
<!-- BB18&#45;&gt;BB23 -->
<g id="edge31" class="edge">
<title>BB18&#45;&gt;BB23</title>
<path fill="none" stroke="black" d="M1621.24,-396.22C1621.24,-387.95 1621.24,-379.27 1621.24,-370.77"/>
<polygon fill="black" stroke="black" points="1624.74,-370.52 1621.24,-360.52 1617.74,-370.52 1624.74,-370.52"/>
</g>
<!-- BB21 -->
<g id="node22" class="node">
<title>BB21</title>
<ellipse fill="none" stroke="black" cx="1850.24" cy="-180.25" rx="108.38" ry="48.17"/>
<text text-anchor="middle" x="1850.24" y="-199.05" font-family="Times New Roman,serif" font-size="14.00">[1c6..1ca)</text>
<text text-anchor="middle" x="1850.24" y="-184.05" font-family="Times New Roman,serif" font-size="14.00">Count: 10151</text>
<text text-anchor="middle" x="1850.24" y="-169.05" font-family="Times New Roman,serif" font-size="14.00">Normalized count: 41.10</text>
<text text-anchor="middle" x="1850.24" y="-154.05" font-family="Times New Roman,serif" font-size="14.00">Samples weight: 0.19</text>
</g>
<!-- BB19&#45;&gt;BB21 -->
<g id="edge33" class="edge">
<title>BB19&#45;&gt;BB21</title>
<path fill="none" stroke="black" d="M1850.24,-264.05C1850.24,-255.79 1850.24,-247.1 1850.24,-238.6"/>
<polygon fill="black" stroke="black" points="1853.74,-238.36 1850.24,-228.36 1846.74,-238.36 1853.74,-238.36"/>
</g>
<!-- BB20 -->
<g id="node21" class="node">
<title>BB20</title>
<ellipse fill="none" stroke="black" cx="1850.24" cy="-48.08" rx="108.38" ry="48.17"/>
<text text-anchor="middle" x="1850.24" y="-66.88" font-family="Times New Roman,serif" font-size="14.00">[19f..1c6)</text>
<text text-anchor="middle" x="1850.24" y="-51.88" font-family="Times New Roman,serif" font-size="14.00">Count: 9086</text>
<text text-anchor="middle" x="1850.24" y="-36.88" font-family="Times New Roman,serif" font-size="14.00">Normalized count: 36.79</text>
<text text-anchor="middle" x="1850.24" y="-21.88" font-family="Times New Roman,serif" font-size="14.00">Samples weight: 0.17</text>
</g>
<!-- BB20&#45;&gt;BB21 -->
<g id="edge34" class="edge">
<title>BB20&#45;&gt;BB21</title>
<path fill="none" stroke="black" d="M1856.75,-96.19C1856.97,-104.45 1857.04,-113.13 1856.95,-121.64"/>
<polygon fill="black" stroke="black" points="1853.44,-121.83 1856.76,-131.89 1860.44,-121.95 1853.44,-121.83"/>
</g>
<!-- BB21&#45;&gt;BB20 -->
<g id="edge35" class="edge">
<title>BB21&#45;&gt;BB20</title>
<path fill="none" stroke="black" d="M1843.72,-131.89C1843.5,-123.62 1843.44,-114.94 1843.53,-106.43"/>
<polygon fill="black" stroke="black" points="1847.03,-106.26 1843.72,-96.19 1840.04,-106.12 1847.03,-106.26"/>
</g>
<!-- BB22 -->
<g id="node23" class="node">
<title>BB22</title>
<ellipse fill="none" stroke="black" cx="1619.24" cy="-48.08" rx="103.48" ry="48.17"/>
<text text-anchor="middle" x="1619.24" y="-66.88" font-family="Times New Roman,serif" font-size="14.00">[1ca..1cc)</text>
<text text-anchor="middle" x="1619.24" y="-51.88" font-family="Times New Roman,serif" font-size="14.00">Count: 1065</text>
<text text-anchor="middle" x="1619.24" y="-36.88" font-family="Times New Roman,serif" font-size="14.00">Normalized count: 4.31</text>
<text text-anchor="middle" x="1619.24" y="-21.88" font-family="Times New Roman,serif" font-size="14.00">Samples weight: 0.02</text>
</g>
<!-- BB21&#45;&gt;BB22 -->
<g id="edge36" class="edge">
<title>BB21&#45;&gt;BB22</title>
<path fill="none" stroke="black" d="M1784.04,-141.95C1755.65,-125.95 1722.36,-107.19 1693.17,-90.74"/>
<polygon fill="black" stroke="black" points="1694.68,-87.57 1684.25,-85.71 1691.24,-93.67 1694.68,-87.57"/>
</g>
<!-- BB24 -->
<g id="node25" class="node">
<title>BB24</title>
<ellipse fill="none" stroke="black" cx="1616.24" cy="-180.25" rx="108.38" ry="48.17"/>
<text text-anchor="middle" x="1616.24" y="-199.05" font-family="Times New Roman,serif" font-size="14.00">[1ce..1e7)</text>
<text text-anchor="middle" x="1616.24" y="-184.05" font-family="Times New Roman,serif" font-size="14.00">Count: 7375</text>
<text text-anchor="middle" x="1616.24" y="-169.05" font-family="Times New Roman,serif" font-size="14.00">Normalized count: 29.86</text>
<text text-anchor="middle" x="1616.24" y="-154.05" font-family="Times New Roman,serif" font-size="14.00">Samples weight: 0.14</text>
</g>
<!-- BB22&#45;&gt;BB24 -->
<g id="edge37" class="edge">
<title>BB22&#45;&gt;BB24</title>
<path fill="none" stroke="black" d="M1618.15,-96.19C1617.96,-104.45 1617.76,-113.13 1617.57,-121.64"/>
<polygon fill="black" stroke="black" points="1614.06,-121.81 1617.33,-131.89 1621.06,-121.97 1614.06,-121.81"/>
</g>
<!-- BB23&#45;&gt;BB24 -->
<g id="edge38" class="edge">
<title>BB23&#45;&gt;BB24</title>
<path fill="none" stroke="black" d="M1619.42,-264.05C1619.1,-255.79 1618.77,-247.1 1618.44,-238.6"/>
<polygon fill="black" stroke="black" points="1621.93,-238.22 1618.05,-228.36 1614.93,-238.48 1621.93,-238.22"/>
</g>
<!-- BB24&#45;&gt;BB25 -->
<g id="edge39" class="edge">
<title>BB24&#45;&gt;BB25</title>
<path fill="none" stroke="black" d="M1546.92,-217.26C1529.86,-229.72 1513.76,-245.41 1504.24,-264.33 1463.16,-345.95 1489.84,-454.68 1512.99,-519.7"/>
<polygon fill="black" stroke="black" points="1509.8,-521.17 1516.52,-529.36 1516.38,-518.77 1509.8,-521.17"/>
</g>
<!-- BB25&#45;&gt;BB18 -->
<g id="edge40" class="edge">
<title>BB25&#45;&gt;BB18</title>
<path fill="none" stroke="black" d="M1565.97,-530.22C1572.47,-520.26 1579.42,-509.62 1586.12,-499.36"/>
<polygon fill="black" stroke="black" points="1589.13,-501.15 1591.67,-490.86 1583.27,-497.32 1589.13,-501.15"/>
</g>
<!-- BB26 -->
<g id="node27" class="node">
<title>BB26</title>
<ellipse fill="none" stroke="black" cx="1341.24" cy="-444.58" rx="103.48" ry="48.17"/>
<text text-anchor="middle" x="1341.24" y="-463.38" font-family="Times New Roman,serif" font-size="14.00">[1ec..1ee)</text>
<text text-anchor="middle" x="1341.24" y="-448.38" font-family="Times New Roman,serif" font-size="14.00">Count: 247</text>
<text text-anchor="middle" x="1341.24" y="-433.38" font-family="Times New Roman,serif" font-size="14.00">Normalized count: 1.00</text>
<text text-anchor="middle" x="1341.24" y="-418.38" font-family="Times New Roman,serif" font-size="14.00">Samples weight: 0.00</text>
</g>
<!-- BB25&#45;&gt;BB26 -->
<g id="edge41" class="edge">
<title>BB25&#45;&gt;BB26</title>
<path fill="none" stroke="black" d="M1477.2,-536.34C1455.33,-521.74 1430.39,-505.1 1407.89,-490.08"/>
<polygon fill="black" stroke="black" points="1409.66,-487.05 1399.4,-484.41 1405.78,-492.87 1409.66,-487.05"/>
</g>
<!-- BB28 -->
<g id="node29" class="node">
<title>BB28</title>
<ellipse fill="none" stroke="black" cx="1341.24" cy="-312.42" rx="103.48" ry="48.17"/>
<text text-anchor="middle" x="1341.24" y="-331.22" font-family="Times New Roman,serif" font-size="14.00">[214..224)</text>
<text text-anchor="middle" x="1341.24" y="-316.22" font-family="Times New Roman,serif" font-size="14.00">Count: 297</text>
<text text-anchor="middle" x="1341.24" y="-301.22" font-family="Times New Roman,serif" font-size="14.00">Normalized count: 1.20</text>
<text text-anchor="middle" x="1341.24" y="-286.22" font-family="Times New Roman,serif" font-size="14.00">Samples weight: 0.01</text>
</g>
<!-- BB26&#45;&gt;BB28 -->
<g id="edge42" class="edge">
<title>BB26&#45;&gt;BB28</title>
<path fill="none" stroke="black" d="M1341.24,-396.22C1341.24,-387.95 1341.24,-379.27 1341.24,-370.77"/>
<polygon fill="black" stroke="black" points="1344.74,-370.52 1341.24,-360.52 1337.74,-370.52 1344.74,-370.52"/>
</g>
<!-- BB27 -->
<g id="node28" class="node">
<title>BB27</title>
<ellipse fill="none" stroke="black" cx="1341.24" cy="-180.25" rx="103.48" ry="48.17"/>
<text text-anchor="middle" x="1341.24" y="-199.05" font-family="Times New Roman,serif" font-size="14.00">[1ee..214)</text>
<text text-anchor="middle" x="1341.24" y="-184.05" font-family="Times New Roman,serif" font-size="14.00">Count: 50</text>
<text text-anchor="middle" x="1341.24" y="-169.05" font-family="Times New Roman,serif" font-size="14.00">Normalized count: 0.20</text>
<text text-anchor="middle" x="1341.24" y="-154.05" font-family="Times New Roman,serif" font-size="14.00">Samples weight: 0.00</text>
</g>
<!-- BB27&#45;&gt;BB28 -->
<g id="edge43" class="edge">
<title>BB27&#45;&gt;BB28</title>
<path fill="none" stroke="black" d="M1347.76,-228.61C1347.98,-236.91 1348.04,-245.62 1347.94,-254.15"/>
<polygon fill="black" stroke="black" points="1344.44,-254.36 1347.75,-264.42 1351.44,-254.49 1344.44,-254.36"/>
</g>
<!-- BB28&#45;&gt;BB27 -->
<g id="edge44" class="edge">
<title>BB28&#45;&gt;BB27</title>
<path fill="none" stroke="black" d="M1334.72,-264.42C1334.5,-256.05 1334.43,-247.24 1334.53,-238.62"/>
<polygon fill="black" stroke="black" points="1338.03,-238.67 1334.72,-228.61 1331.03,-238.54 1338.03,-238.67"/>
</g>
<!-- BB29 -->
<g id="node30" class="node">
<title>BB29</title>
<ellipse fill="none" stroke="black" cx="912.24" cy="-180.25" rx="103.48" ry="48.17"/>
<text text-anchor="middle" x="912.24" y="-199.05" font-family="Times New Roman,serif" font-size="14.00">[224..22c)</text>
<text text-anchor="middle" x="912.24" y="-184.05" font-family="Times New Roman,serif" font-size="14.00">Count: 247</text>
<text text-anchor="middle" x="912.24" y="-169.05" font-family="Times New Roman,serif" font-size="14.00">Normalized count: 1.00</text>
<text text-anchor="middle" x="912.24" y="-154.05" font-family="Times New Roman,serif" font-size="14.00">Samples weight: 0.00</text>
</g>
<!-- BB28&#45;&gt;BB29 -->
<g id="edge45" class="edge">
<title>BB28&#45;&gt;BB29</title>
<path fill="none" stroke="black" d="M1255.71,-285.47C1184.13,-263.75 1082.06,-232.78 1007.8,-210.25"/>
<polygon fill="black" stroke="black" points="1008.56,-206.82 997.98,-207.26 1006.53,-213.52 1008.56,-206.82"/>
</g>
<!-- BB30 -->
<g id="node31" class="node">
<title>BB30</title>
<ellipse fill="none" stroke="black" cx="847.24" cy="-48.08" rx="103.48" ry="48.17"/>
<text text-anchor="middle" x="847.24" y="-66.88" font-family="Times New Roman,serif" font-size="14.00">[22c..240)</text>
<text text-anchor="middle" x="847.24" y="-51.88" font-family="Times New Roman,serif" font-size="14.00">Count: 0</text>
<text text-anchor="middle" x="847.24" y="-36.88" font-family="Times New Roman,serif" font-size="14.00">Normalized count: 0.00</text>
<text text-anchor="middle" x="847.24" y="-21.88" font-family="Times New Roman,serif" font-size="14.00">Samples weight: 0.00</text>
</g>
<!-- BB29&#45;&gt;BB30 -->
<g id="edge47" class="edge">
<title>BB29&#45;&gt;BB30</title>
<path fill="none" stroke="black" d="M889.32,-133.36C884.61,-123.93 879.61,-113.91 874.76,-104.19"/>
<polygon fill="black" stroke="black" points="877.77,-102.38 870.17,-95 871.5,-105.51 877.77,-102.38"/>
</g>
<!-- BB29&#45;&gt;BB32 -->
<g id="edge46" class="edge">
<title>BB29&#45;&gt;BB32</title>
<path fill="none" stroke="black" d="M898.93,-228.21C885.35,-280.36 866.24,-367.29 866.24,-443.58 866.24,-1106.42 866.24,-1106.42 866.24,-1106.42 866.24,-1180.93 834.81,-1261.82 810.18,-1313.78"/>
<polygon fill="black" stroke="black" points="807.01,-1312.29 805.82,-1322.82 813.32,-1315.33 807.01,-1312.29"/>
</g>
<!-- BB30&#45;&gt;BB32 -->
<g id="edge48" class="edge">
<title>BB30&#45;&gt;BB32</title>
<path fill="none" stroke="black" d="M817.36,-94.12C810.7,-106.05 804.39,-119.23 800.24,-132.17 775.78,-208.46 781.24,-231.3 781.24,-311.42 781.24,-1106.42 781.24,-1106.42 781.24,-1106.42 781.24,-1176.87 781.24,-1257.96 781.24,-1311.11"/>
<polygon fill="black" stroke="black" points="777.74,-1311.36 781.24,-1321.36 784.74,-1311.36 777.74,-1311.36"/>
</g>
<!-- BB31&#45;&gt;BB32 -->
<g id="edge49" class="edge">
<title>BB31&#45;&gt;BB32</title>
<path fill="none" stroke="black" d="M1374.97,-1467.46C1361.95,-1462.32 1348.34,-1457.51 1335.24,-1453.83 1185.25,-1411.77 1006.09,-1389.82 892.97,-1379.28"/>
<polygon fill="black" stroke="black" points="893.18,-1375.78 882.91,-1378.35 892.54,-1382.75 893.18,-1375.78"/>
</g>
</g>
</svg>
