<?xml version="1.0" encoding="UTF-8" standalone="no"?>
<!DOCTYPE svg PUBLIC "-//W3C//DTD SVG 1.1//EN"
 "http://www.w3.org/Graphics/SVG/1.1/DTD/svg11.dtd">
<!-- Generated by graphviz version 2.47.0 (20210316.0004)
 -->
<!-- Title: G Pages: 1 -->
<svg width="911pt" height="1139pt"
 viewBox="0.00 0.00 910.75 1138.62" xmlns="http://www.w3.org/2000/svg" xmlns:xlink="http://www.w3.org/1999/xlink">
<g id="graph0" class="graph" transform="scale(1 1) rotate(0) translate(4 1134.62)">
<title>G</title>
<polygon fill="white" stroke="transparent" points="-4,4 -4,-1134.62 906.75,-1134.62 906.75,4 -4,4"/>
<!-- BB0 -->
<g id="node1" class="node">
<title>BB0</title>
<ellipse fill="none" stroke="black" cx="400.43" cy="-1103.75" rx="37.45" ry="26.74"/>
<text text-anchor="middle" x="400.43" y="-1107.55" font-family="Times New Roman,serif" font-size="14.00">[0..87)</text>
<text text-anchor="middle" x="400.43" y="-1092.55" font-family="Times New Roman,serif" font-size="14.00">0.01</text>
</g>
<!-- BB1 -->
<g id="node2" class="node">
<title>BB1</title>
<ellipse fill="none" stroke="black" cx="42.43" cy="-1014.01" rx="42.35" ry="26.74"/>
<text text-anchor="middle" x="42.43" y="-1017.81" font-family="Times New Roman,serif" font-size="14.00">[87..8c)</text>
<text text-anchor="middle" x="42.43" y="-1002.81" font-family="Times New Roman,serif" font-size="14.00">0.00</text>
</g>
<!-- BB0&#45;&gt;BB1 -->
<g id="edge1" class="edge">
<title>BB0&#45;&gt;BB1</title>
<path fill="none" stroke="black" d="M363.18,-1098.55C304.55,-1091.2 187.68,-1073.6 93.43,-1040.88 89.89,-1039.65 86.29,-1038.23 82.72,-1036.68"/>
<polygon fill="black" stroke="black" points="83.95,-1033.4 73.4,-1032.39 81.02,-1039.76 83.95,-1033.4"/>
</g>
<!-- BB2 -->
<g id="node3" class="node">
<title>BB2</title>
<ellipse fill="none" stroke="black" cx="144.43" cy="-1014.01" rx="41.94" ry="26.74"/>
<text text-anchor="middle" x="144.43" y="-1017.81" font-family="Times New Roman,serif" font-size="14.00">[8c..a9)</text>
<text text-anchor="middle" x="144.43" y="-1002.81" font-family="Times New Roman,serif" font-size="14.00">0.00</text>
</g>
<!-- BB0&#45;&gt;BB2 -->
<g id="edge2" class="edge">
<title>BB0&#45;&gt;BB2</title>
<path fill="none" stroke="black" d="M365.12,-1094.28C323.54,-1083.82 252.75,-1064.49 194.43,-1040.88 191.2,-1039.58 187.91,-1038.13 184.63,-1036.62"/>
<polygon fill="black" stroke="black" points="186.01,-1033.4 175.48,-1032.21 182.97,-1039.7 186.01,-1033.4"/>
</g>
<!-- BB3 -->
<g id="node4" class="node">
<title>BB3</title>
<ellipse fill="none" stroke="black" cx="245.43" cy="-1014.01" rx="41.94" ry="26.74"/>
<text text-anchor="middle" x="245.43" y="-1017.81" font-family="Times New Roman,serif" font-size="14.00">[a9..c6)</text>
<text text-anchor="middle" x="245.43" y="-1002.81" font-family="Times New Roman,serif" font-size="14.00">0.00</text>
</g>
<!-- BB0&#45;&gt;BB3 -->
<g id="edge5" class="edge">
<title>BB0&#45;&gt;BB3</title>
<path fill="none" stroke="black" d="M371.64,-1086.45C347.25,-1072.65 312.05,-1052.72 285.01,-1037.42"/>
<polygon fill="black" stroke="black" points="286.61,-1034.3 276.19,-1032.42 283.17,-1040.4 286.61,-1034.3"/>
</g>
<!-- BB4 -->
<g id="node5" class="node">
<title>BB4</title>
<ellipse fill="none" stroke="black" cx="348.43" cy="-1014.01" rx="43.27" ry="26.74"/>
<text text-anchor="middle" x="348.43" y="-1017.81" font-family="Times New Roman,serif" font-size="14.00">[c6..d1)</text>
<text text-anchor="middle" x="348.43" y="-1002.81" font-family="Times New Roman,serif" font-size="14.00">0.00</text>
</g>
<!-- BB0&#45;&gt;BB4 -->
<g id="edge3" class="edge">
<title>BB0&#45;&gt;BB4</title>
<path fill="none" stroke="black" d="M386.22,-1078.78C380.64,-1069.36 374.13,-1058.39 368.11,-1048.23"/>
<polygon fill="black" stroke="black" points="371.09,-1046.39 362.98,-1039.57 365.07,-1049.96 371.09,-1046.39"/>
</g>
<!-- BB5 -->
<g id="node6" class="node">
<title>BB5</title>
<ellipse fill="none" stroke="black" cx="453.43" cy="-1014.01" rx="43.68" ry="26.74"/>
<text text-anchor="middle" x="453.43" y="-1017.81" font-family="Times New Roman,serif" font-size="14.00">[d1..dd)</text>
<text text-anchor="middle" x="453.43" y="-1002.81" font-family="Times New Roman,serif" font-size="14.00">0.00</text>
</g>
<!-- BB0&#45;&gt;BB5 -->
<g id="edge7" class="edge">
<title>BB0&#45;&gt;BB5</title>
<path fill="none" stroke="black" d="M414.91,-1078.78C420.6,-1069.36 427.22,-1058.39 433.36,-1048.23"/>
<polygon fill="black" stroke="black" points="436.42,-1049.94 438.59,-1039.57 430.43,-1046.32 436.42,-1049.94"/>
</g>
<!-- BB6 -->
<g id="node7" class="node">
<title>BB6</title>
<ellipse fill="none" stroke="black" cx="558.43" cy="-1014.01" rx="43.27" ry="26.74"/>
<text text-anchor="middle" x="558.43" y="-1017.81" font-family="Times New Roman,serif" font-size="14.00">[dd..e9)</text>
<text text-anchor="middle" x="558.43" y="-1002.81" font-family="Times New Roman,serif" font-size="14.00">0.00</text>
</g>
<!-- BB0&#45;&gt;BB6 -->
<g id="edge4" class="edge">
<title>BB0&#45;&gt;BB6</title>
<path fill="none" stroke="black" d="M429.41,-1086.66C454.22,-1072.88 490.21,-1052.89 517.88,-1037.52"/>
<polygon fill="black" stroke="black" points="519.88,-1040.42 526.92,-1032.51 516.48,-1034.3 519.88,-1040.42"/>
</g>
<!-- BB7 -->
<g id="node8" class="node">
<title>BB7</title>
<ellipse fill="none" stroke="black" cx="788.43" cy="-1014.01" rx="46.84" ry="26.74"/>
<text text-anchor="middle" x="788.43" y="-1017.81" font-family="Times New Roman,serif" font-size="14.00">[e9..106)</text>
<text text-anchor="middle" x="788.43" y="-1002.81" font-family="Times New Roman,serif" font-size="14.00">0.00</text>
</g>
<!-- BB0&#45;&gt;BB7 -->
<g id="edge6" class="edge">
<title>BB0&#45;&gt;BB7</title>
<path fill="none" stroke="black" d="M437.51,-1098.89C499.65,-1091.75 628.24,-1074.08 732.43,-1040.88 736.5,-1039.58 740.67,-1038.06 744.8,-1036.41"/>
<polygon fill="black" stroke="black" points="746.46,-1039.51 754.31,-1032.4 743.74,-1033.06 746.46,-1039.51"/>
</g>
<!-- BB31 -->
<g id="node32" class="node">
<title>BB31</title>
<ellipse fill="none" stroke="black" cx="671.43" cy="-1014.01" rx="52.15" ry="26.74"/>
<text text-anchor="middle" x="671.43" y="-1017.81" font-family="Times New Roman,serif" font-size="14.00">[238..241)</text>
<text text-anchor="middle" x="671.43" y="-1002.81" font-family="Times New Roman,serif" font-size="14.00">0.00</text>
</g>
<!-- BB0&#45;&gt;BB31 -->
<g id="edge8" class="edge">
<title>BB0&#45;&gt;BB31</title>
<path fill="none" stroke="black" d="M435.38,-1093.77C477.38,-1082.68 549.77,-1062.6 610.43,-1040.88 614.62,-1039.38 618.94,-1037.74 623.26,-1036.04"/>
<polygon fill="black" stroke="black" points="624.68,-1039.24 632.64,-1032.24 622.06,-1032.75 624.68,-1039.24"/>
</g>
<!-- BB32 -->
<g id="node33" class="node">
<title>BB32</title>
<ellipse fill="none" stroke="black" cx="365.43" cy="-924.27" rx="52.15" ry="26.74"/>
<text text-anchor="middle" x="365.43" y="-928.07" font-family="Times New Roman,serif" font-size="14.00">[241..248)</text>
<text text-anchor="middle" x="365.43" y="-913.07" font-family="Times New Roman,serif" font-size="14.00">0.00</text>
</g>
<!-- BB1&#45;&gt;BB32 -->
<g id="edge9" class="edge">
<title>BB1&#45;&gt;BB32</title>
<path fill="none" stroke="black" d="M73.72,-995.62C80.11,-992.51 86.89,-989.5 93.43,-987.14 164.39,-961.51 249.73,-944.16 305.65,-934.51"/>
<polygon fill="black" stroke="black" points="306.47,-937.92 315.75,-932.79 305.3,-931.02 306.47,-937.92"/>
</g>
<!-- BB2&#45;&gt;BB32 -->
<g id="edge10" class="edge">
<title>BB2&#45;&gt;BB32</title>
<path fill="none" stroke="black" d="M175.6,-996.09C181.77,-992.97 188.25,-989.84 194.43,-987.14 233.13,-970.21 278.08,-954.08 312.18,-942.54"/>
<polygon fill="black" stroke="black" points="313.58,-945.76 321.95,-939.25 311.35,-939.12 313.58,-945.76"/>
</g>
<!-- BB3&#45;&gt;BB32 -->
<g id="edge11" class="edge">
<title>BB3&#45;&gt;BB32</title>
<path fill="none" stroke="black" d="M272.36,-993.32C288.63,-981.42 309.62,-966.08 327.54,-952.97"/>
<polygon fill="black" stroke="black" points="330.06,-955.47 336.07,-946.74 325.93,-949.82 330.06,-955.47"/>
</g>
<!-- BB4&#45;&gt;BB32 -->
<g id="edge12" class="edge">
<title>BB4&#45;&gt;BB32</title>
<path fill="none" stroke="black" d="M353.44,-987.16C355.01,-979.02 356.78,-969.88 358.47,-961.18"/>
<polygon fill="black" stroke="black" points="361.93,-961.72 360.39,-951.24 355.06,-960.39 361.93,-961.72"/>
</g>
<!-- BB5&#45;&gt;BB32 -->
<g id="edge13" class="edge">
<title>BB5&#45;&gt;BB32</title>
<path fill="none" stroke="black" d="M430.76,-990.42C420.15,-979.84 407.36,-967.08 395.91,-955.67"/>
<polygon fill="black" stroke="black" points="398.18,-952.98 388.62,-948.4 393.24,-957.94 398.18,-952.98"/>
</g>
<!-- BB6&#45;&gt;BB32 -->
<g id="edge14" class="edge">
<title>BB6&#45;&gt;BB32</title>
<path fill="none" stroke="black" d="M525.53,-996.35C519.22,-993.23 512.64,-990.05 506.43,-987.14 475.99,-972.9 441.46,-957.73 414.18,-945.98"/>
<polygon fill="black" stroke="black" points="415.43,-942.7 404.86,-941.97 412.66,-949.13 415.43,-942.7"/>
</g>
<!-- BB8 -->
<g id="node9" class="node">
<title>BB8</title>
<ellipse fill="none" stroke="black" cx="666.43" cy="-924.27" rx="52.15" ry="26.74"/>
<text text-anchor="middle" x="666.43" y="-928.07" font-family="Times New Roman,serif" font-size="14.00">[106..113)</text>
<text text-anchor="middle" x="666.43" y="-913.07" font-family="Times New Roman,serif" font-size="14.00">0.00</text>
</g>
<!-- BB7&#45;&gt;BB8 -->
<g id="edge16" class="edge">
<title>BB7&#45;&gt;BB8</title>
<path fill="none" stroke="black" d="M759.82,-992.44C743.36,-980.6 722.46,-965.57 704.61,-952.73"/>
<polygon fill="black" stroke="black" points="706.29,-949.63 696.12,-946.63 702.2,-955.31 706.29,-949.63"/>
</g>
<!-- BB9 -->
<g id="node10" class="node">
<title>BB9</title>
<ellipse fill="none" stroke="black" cx="788.43" cy="-924.27" rx="51.74" ry="26.74"/>
<text text-anchor="middle" x="788.43" y="-928.07" font-family="Times New Roman,serif" font-size="14.00">[113..11a)</text>
<text text-anchor="middle" x="788.43" y="-913.07" font-family="Times New Roman,serif" font-size="14.00">0.00</text>
</g>
<!-- BB7&#45;&gt;BB9 -->
<g id="edge15" class="edge">
<title>BB7&#45;&gt;BB9</title>
<path fill="none" stroke="black" d="M788.43,-986.69C788.43,-978.72 788.43,-969.83 788.43,-961.34"/>
<polygon fill="black" stroke="black" points="791.93,-961.28 788.43,-951.28 784.93,-961.28 791.93,-961.28"/>
</g>
<!-- BB8&#45;&gt;BB9 -->
<g id="edge18" class="edge">
<title>BB8&#45;&gt;BB9</title>
<path fill="none" stroke="black" d="M718.85,-924.27C721.46,-924.27 724.08,-924.27 726.7,-924.27"/>
<polygon fill="black" stroke="black" points="726.79,-927.77 736.79,-924.27 726.79,-920.77 726.79,-927.77"/>
</g>
<!-- BB10 -->
<g id="node11" class="node">
<title>BB10</title>
<ellipse fill="none" stroke="black" cx="666.43" cy="-834.53" rx="51.74" ry="26.74"/>
<text text-anchor="middle" x="666.43" y="-838.33" font-family="Times New Roman,serif" font-size="14.00">[11a..123)</text>
<text text-anchor="middle" x="666.43" y="-823.33" font-family="Times New Roman,serif" font-size="14.00">0.00</text>
</g>
<!-- BB8&#45;&gt;BB10 -->
<g id="edge17" class="edge">
<title>BB8&#45;&gt;BB10</title>
<path fill="none" stroke="black" d="M666.43,-896.95C666.43,-888.98 666.43,-880.09 666.43,-871.6"/>
<polygon fill="black" stroke="black" points="669.93,-871.54 666.43,-861.54 662.93,-871.54 669.93,-871.54"/>
</g>
<!-- BB9&#45;&gt;BB10 -->
<g id="edge19" class="edge">
<title>BB9&#45;&gt;BB10</title>
<path fill="none" stroke="black" d="M758.89,-902.03C742.53,-890.26 722.01,-875.5 704.46,-862.88"/>
<polygon fill="black" stroke="black" points="706.27,-859.88 696.11,-856.88 702.19,-865.56 706.27,-859.88"/>
</g>
<!-- BB11 -->
<g id="node12" class="node">
<title>BB11</title>
<ellipse fill="none" stroke="black" cx="543.43" cy="-744.79" rx="52.15" ry="26.74"/>
<text text-anchor="middle" x="543.43" y="-748.59" font-family="Times New Roman,serif" font-size="14.00">[123..12c)</text>
<text text-anchor="middle" x="543.43" y="-733.59" font-family="Times New Roman,serif" font-size="14.00">0.00</text>
</g>
<!-- BB10&#45;&gt;BB11 -->
<g id="edge21" class="edge">
<title>BB10&#45;&gt;BB11</title>
<path fill="none" stroke="black" d="M636.65,-812.29C620.15,-800.52 599.46,-785.76 581.77,-773.14"/>
<polygon fill="black" stroke="black" points="583.53,-770.1 573.35,-767.14 579.46,-775.8 583.53,-770.1"/>
</g>
<!-- BB12 -->
<g id="node13" class="node">
<title>BB12</title>
<ellipse fill="none" stroke="black" cx="666.43" cy="-744.79" rx="52.15" ry="26.74"/>
<text text-anchor="middle" x="666.43" y="-748.59" font-family="Times New Roman,serif" font-size="14.00">[12c..135)</text>
<text text-anchor="middle" x="666.43" y="-733.59" font-family="Times New Roman,serif" font-size="14.00">0.00</text>
</g>
<!-- BB10&#45;&gt;BB12 -->
<g id="edge20" class="edge">
<title>BB10&#45;&gt;BB12</title>
<path fill="none" stroke="black" d="M666.43,-807.21C666.43,-799.24 666.43,-790.35 666.43,-781.86"/>
<polygon fill="black" stroke="black" points="669.93,-781.79 666.43,-771.79 662.93,-781.8 669.93,-781.79"/>
</g>
<!-- BB11&#45;&gt;BB12 -->
<g id="edge23" class="edge">
<title>BB11&#45;&gt;BB12</title>
<path fill="none" stroke="black" d="M595.8,-744.79C598.45,-744.79 601.11,-744.79 603.76,-744.79"/>
<polygon fill="black" stroke="black" points="604.01,-748.29 614.01,-744.79 604.01,-741.29 604.01,-748.29"/>
</g>
<!-- BB13 -->
<g id="node14" class="node">
<title>BB13</title>
<ellipse fill="none" stroke="black" cx="543.43" cy="-655.05" rx="52.15" ry="26.74"/>
<text text-anchor="middle" x="543.43" y="-658.85" font-family="Times New Roman,serif" font-size="14.00">[135..13c)</text>
<text text-anchor="middle" x="543.43" y="-643.85" font-family="Times New Roman,serif" font-size="14.00">0.00</text>
</g>
<!-- BB11&#45;&gt;BB13 -->
<g id="edge22" class="edge">
<title>BB11&#45;&gt;BB13</title>
<path fill="none" stroke="black" d="M543.43,-717.47C543.43,-709.5 543.43,-700.61 543.43,-692.12"/>
<polygon fill="black" stroke="black" points="546.93,-692.05 543.43,-682.05 539.93,-692.05 546.93,-692.05"/>
</g>
<!-- BB14 -->
<g id="node15" class="node">
<title>BB14</title>
<ellipse fill="none" stroke="black" cx="666.43" cy="-655.05" rx="52.15" ry="26.74"/>
<text text-anchor="middle" x="666.43" y="-658.85" font-family="Times New Roman,serif" font-size="14.00">[13c..168)</text>
<text text-anchor="middle" x="666.43" y="-643.85" font-family="Times New Roman,serif" font-size="14.00">0.00</text>
</g>
<!-- BB12&#45;&gt;BB14 -->
<g id="edge24" class="edge">
<title>BB12&#45;&gt;BB14</title>
<path fill="none" stroke="black" d="M666.43,-717.47C666.43,-709.5 666.43,-700.61 666.43,-692.12"/>
<polygon fill="black" stroke="black" points="669.93,-692.05 666.43,-682.05 662.93,-692.05 669.93,-692.05"/>
</g>
<!-- BB13&#45;&gt;BB14 -->
<g id="edge25" class="edge">
<title>BB13&#45;&gt;BB14</title>
<path fill="none" stroke="black" d="M595.8,-655.05C598.45,-655.05 601.11,-655.05 603.76,-655.05"/>
<polygon fill="black" stroke="black" points="604.01,-658.55 614.01,-655.05 604.01,-651.55 604.01,-658.55"/>
</g>
<!-- BB16 -->
<g id="node17" class="node">
<title>BB16</title>
<ellipse fill="none" stroke="black" cx="586.43" cy="-565.31" rx="52.15" ry="26.74"/>
<text text-anchor="middle" x="586.43" y="-569.11" font-family="Times New Roman,serif" font-size="14.00">[179..17d)</text>
<text text-anchor="middle" x="586.43" y="-554.11" font-family="Times New Roman,serif" font-size="14.00">0.00</text>
</g>
<!-- BB14&#45;&gt;BB16 -->
<g id="edge26" class="edge">
<title>BB14&#45;&gt;BB16</title>
<path fill="none" stroke="black" d="M644.99,-630.54C635.75,-620.41 624.82,-608.42 614.91,-597.56"/>
<polygon fill="black" stroke="black" points="617.25,-594.92 607.92,-589.89 612.08,-599.64 617.25,-594.92"/>
</g>
<!-- BB15 -->
<g id="node16" class="node">
<title>BB15</title>
<ellipse fill="none" stroke="black" cx="525.43" cy="-475.57" rx="52.15" ry="26.74"/>
<text text-anchor="middle" x="525.43" y="-479.37" font-family="Times New Roman,serif" font-size="14.00">[168..179)</text>
<text text-anchor="middle" x="525.43" y="-464.37" font-family="Times New Roman,serif" font-size="14.00">0.01</text>
</g>
<!-- BB15&#45;&gt;BB16 -->
<g id="edge27" class="edge">
<title>BB15&#45;&gt;BB16</title>
<path fill="none" stroke="black" d="M547.83,-500.09C554.96,-509.37 562.68,-520.2 569.38,-530.3"/>
<polygon fill="black" stroke="black" points="566.59,-532.44 574.97,-538.93 572.47,-528.64 566.59,-532.44"/>
</g>
<!-- BB16&#45;&gt;BB15 -->
<g id="edge28" class="edge">
<title>BB16&#45;&gt;BB15</title>
<path fill="none" stroke="black" d="M564.02,-540.8C556.9,-531.53 549.2,-520.71 542.5,-510.62"/>
<polygon fill="black" stroke="black" points="545.29,-508.49 536.91,-502 539.41,-512.29 545.29,-508.49"/>
</g>
<!-- BB17 -->
<g id="node18" class="node">
<title>BB17</title>
<ellipse fill="none" stroke="black" cx="648.43" cy="-475.57" rx="52.15" ry="26.74"/>
<text text-anchor="middle" x="648.43" y="-479.37" font-family="Times New Roman,serif" font-size="14.00">[17d..181)</text>
<text text-anchor="middle" x="648.43" y="-464.37" font-family="Times New Roman,serif" font-size="14.00">0.03</text>
</g>
<!-- BB16&#45;&gt;BB17 -->
<g id="edge29" class="edge">
<title>BB16&#45;&gt;BB17</title>
<path fill="none" stroke="black" d="M603.7,-539.87C610.36,-530.44 618.08,-519.51 625.22,-509.42"/>
<polygon fill="black" stroke="black" points="628.12,-511.37 631.03,-501.18 622.4,-507.33 628.12,-511.37"/>
</g>
<!-- BB25 -->
<g id="node26" class="node">
<title>BB25</title>
<ellipse fill="none" stroke="black" cx="648.43" cy="-385.83" rx="50.82" ry="26.74"/>
<text text-anchor="middle" x="648.43" y="-389.63" font-family="Times New Roman,serif" font-size="14.00">[1e2..1e7)</text>
<text text-anchor="middle" x="648.43" y="-374.63" font-family="Times New Roman,serif" font-size="14.00">0.01</text>
</g>
<!-- BB17&#45;&gt;BB25 -->
<g id="edge30" class="edge">
<title>BB17&#45;&gt;BB25</title>
<path fill="none" stroke="black" d="M648.43,-448.25C648.43,-440.28 648.43,-431.39 648.43,-422.9"/>
<polygon fill="black" stroke="black" points="651.93,-422.83 648.43,-412.83 644.93,-422.83 651.93,-422.83"/>
</g>
<!-- BB18 -->
<g id="node19" class="node">
<title>BB18</title>
<ellipse fill="none" stroke="black" cx="728.43" cy="-296.09" rx="52.15" ry="26.74"/>
<text text-anchor="middle" x="728.43" y="-299.89" font-family="Times New Roman,serif" font-size="14.00">[181..194)</text>
<text text-anchor="middle" x="728.43" y="-284.89" font-family="Times New Roman,serif" font-size="14.00">0.24</text>
</g>
<!-- BB19 -->
<g id="node20" class="node">
<title>BB19</title>
<ellipse fill="none" stroke="black" cx="850.43" cy="-206.35" rx="51.74" ry="26.74"/>
<text text-anchor="middle" x="850.43" y="-210.15" font-family="Times New Roman,serif" font-size="14.00">[194..19a)</text>
<text text-anchor="middle" x="850.43" y="-195.15" font-family="Times New Roman,serif" font-size="14.00">0.08</text>
</g>
<!-- BB18&#45;&gt;BB19 -->
<g id="edge32" class="edge">
<title>BB18&#45;&gt;BB19</title>
<path fill="none" stroke="black" d="M757.96,-273.85C774.32,-262.08 794.84,-247.32 812.4,-234.7"/>
<polygon fill="black" stroke="black" points="814.67,-237.38 820.74,-228.7 810.58,-231.7 814.67,-237.38"/>
</g>
<!-- BB23 -->
<g id="node24" class="node">
<title>BB23</title>
<ellipse fill="none" stroke="black" cx="728.43" cy="-206.35" rx="52.15" ry="26.74"/>
<text text-anchor="middle" x="728.43" y="-210.15" font-family="Times New Roman,serif" font-size="14.00">[1c7..1c9)</text>
<text text-anchor="middle" x="728.43" y="-195.15" font-family="Times New Roman,serif" font-size="14.00">0.05</text>
</g>
<!-- BB18&#45;&gt;BB23 -->
<g id="edge31" class="edge">
<title>BB18&#45;&gt;BB23</title>
<path fill="none" stroke="black" d="M728.43,-268.77C728.43,-260.8 728.43,-251.91 728.43,-243.42"/>
<polygon fill="black" stroke="black" points="731.93,-243.35 728.43,-233.35 724.93,-243.35 731.93,-243.35"/>
</g>
<!-- BB21 -->
<g id="node22" class="node">
<title>BB21</title>
<ellipse fill="none" stroke="black" cx="850.43" cy="-116.61" rx="52.15" ry="26.74"/>
<text text-anchor="middle" x="850.43" y="-120.41" font-family="Times New Roman,serif" font-size="14.00">[1c1..1c5)</text>
<text text-anchor="middle" x="850.43" y="-105.41" font-family="Times New Roman,serif" font-size="14.00">0.02</text>
</g>
<!-- BB19&#45;&gt;BB21 -->
<g id="edge33" class="edge">
<title>BB19&#45;&gt;BB21</title>
<path fill="none" stroke="black" d="M850.43,-179.03C850.43,-171.06 850.43,-162.17 850.43,-153.68"/>
<polygon fill="black" stroke="black" points="853.93,-153.61 850.43,-143.61 846.93,-153.61 853.93,-153.61"/>
</g>
<!-- BB20 -->
<g id="node21" class="node">
<title>BB20</title>
<ellipse fill="none" stroke="black" cx="850.43" cy="-26.87" rx="51.74" ry="26.74"/>
<text text-anchor="middle" x="850.43" y="-30.67" font-family="Times New Roman,serif" font-size="14.00">[19a..1c1)</text>
<text text-anchor="middle" x="850.43" y="-15.67" font-family="Times New Roman,serif" font-size="14.00">0.39</text>
</g>
<!-- BB20&#45;&gt;BB21 -->
<g id="edge34" class="edge">
<title>BB20&#45;&gt;BB21</title>
<path fill="none" stroke="black" d="M856.65,-53.84C857.15,-61.9 857.29,-70.93 857.08,-79.55"/>
<polygon fill="black" stroke="black" points="853.57,-79.62 856.64,-89.76 860.57,-79.92 853.57,-79.62"/>
</g>
<!-- BB21&#45;&gt;BB20 -->
<g id="edge35" class="edge">
<title>BB21&#45;&gt;BB20</title>
<path fill="none" stroke="black" d="M844.21,-89.76C843.71,-81.71 843.56,-72.68 843.77,-64.06"/>
<polygon fill="black" stroke="black" points="847.28,-63.98 844.2,-53.84 840.28,-63.68 847.28,-63.98"/>
</g>
<!-- BB22 -->
<g id="node23" class="node">
<title>BB22</title>
<ellipse fill="none" stroke="black" cx="728.43" cy="-26.87" rx="52.15" ry="26.74"/>
<text text-anchor="middle" x="728.43" y="-30.67" font-family="Times New Roman,serif" font-size="14.00">[1c5..1c7)</text>
<text text-anchor="middle" x="728.43" y="-15.67" font-family="Times New Roman,serif" font-size="14.00">0.06</text>
</g>
<!-- BB21&#45;&gt;BB22 -->
<g id="edge36" class="edge">
<title>BB21&#45;&gt;BB22</title>
<path fill="none" stroke="black" d="M820.89,-94.37C804.53,-82.6 784.01,-67.84 766.46,-55.22"/>
<polygon fill="black" stroke="black" points="768.27,-52.22 758.11,-49.22 764.19,-57.9 768.27,-52.22"/>
</g>
<!-- BB24 -->
<g id="node25" class="node">
<title>BB24</title>
<ellipse fill="none" stroke="black" cx="728.43" cy="-116.61" rx="51.74" ry="26.74"/>
<text text-anchor="middle" x="728.43" y="-120.41" font-family="Times New Roman,serif" font-size="14.00">[1c9..1e2)</text>
<text text-anchor="middle" x="728.43" y="-105.41" font-family="Times New Roman,serif" font-size="14.00">0.08</text>
</g>
<!-- BB22&#45;&gt;BB24 -->
<g id="edge37" class="edge">
<title>BB22&#45;&gt;BB24</title>
<path fill="none" stroke="black" d="M728.43,-53.87C728.43,-61.82 728.43,-70.7 728.43,-79.2"/>
<polygon fill="black" stroke="black" points="724.93,-79.29 728.43,-89.29 731.93,-79.29 724.93,-79.29"/>
</g>
<!-- BB23&#45;&gt;BB24 -->
<g id="edge38" class="edge">
<title>BB23&#45;&gt;BB24</title>
<path fill="none" stroke="black" d="M728.43,-179.03C728.43,-171.06 728.43,-162.17 728.43,-153.68"/>
<polygon fill="black" stroke="black" points="731.93,-153.61 728.43,-143.61 724.93,-153.61 731.93,-153.61"/>
</g>
<!-- BB24&#45;&gt;BB25 -->
<g id="edge39" class="edge">
<title>BB24&#45;&gt;BB25</title>
<path fill="none" stroke="black" d="M699.64,-139.21C687.57,-149.91 674.68,-163.89 667.43,-179.48 641.96,-234.25 641.8,-306.01 644.66,-348.59"/>
<polygon fill="black" stroke="black" points="641.19,-349.05 645.44,-358.75 648.17,-348.51 641.19,-349.05"/>
</g>
<!-- BB25&#45;&gt;BB18 -->
<g id="edge40" class="edge">
<title>BB25&#45;&gt;BB18</title>
<path fill="none" stroke="black" d="M669.86,-361.32C679.1,-351.19 690.03,-339.2 699.94,-328.34"/>
<polygon fill="black" stroke="black" points="702.78,-330.42 706.93,-320.67 697.6,-325.7 702.78,-330.42"/>
</g>
<!-- BB26 -->
<g id="node27" class="node">
<title>BB26</title>
<ellipse fill="none" stroke="black" cx="569.43" cy="-296.09" rx="50.82" ry="26.74"/>
<text text-anchor="middle" x="569.43" y="-299.89" font-family="Times New Roman,serif" font-size="14.00">[1e7..1e9)</text>
<text text-anchor="middle" x="569.43" y="-284.89" font-family="Times New Roman,serif" font-size="14.00">0.00</text>
</g>
<!-- BB25&#45;&gt;BB26 -->
<g id="edge41" class="edge">
<title>BB25&#45;&gt;BB26</title>
<path fill="none" stroke="black" d="M627.26,-361.32C618.13,-351.19 607.34,-339.2 597.56,-328.34"/>
<polygon fill="black" stroke="black" points="599.95,-325.76 590.66,-320.67 594.75,-330.44 599.95,-325.76"/>
</g>
<!-- BB28 -->
<g id="node29" class="node">
<title>BB28</title>
<ellipse fill="none" stroke="black" cx="568.43" cy="-206.35" rx="52.15" ry="26.74"/>
<text text-anchor="middle" x="568.43" y="-210.15" font-family="Times New Roman,serif" font-size="14.00">[20c..21c)</text>
<text text-anchor="middle" x="568.43" y="-195.15" font-family="Times New Roman,serif" font-size="14.00">0.01</text>
</g>
<!-- BB26&#45;&gt;BB28 -->
<g id="edge42" class="edge">
<title>BB26&#45;&gt;BB28</title>
<path fill="none" stroke="black" d="M569.13,-268.77C569.04,-260.8 568.93,-251.91 568.84,-243.42"/>
<polygon fill="black" stroke="black" points="572.34,-243.31 568.72,-233.35 565.34,-243.39 572.34,-243.31"/>
</g>
<!-- BB27 -->
<g id="node28" class="node">
<title>BB27</title>
<ellipse fill="none" stroke="black" cx="568.43" cy="-116.61" rx="51.74" ry="26.74"/>
<text text-anchor="middle" x="568.43" y="-120.41" font-family="Times New Roman,serif" font-size="14.00">[1e9..20c)</text>
<text text-anchor="middle" x="568.43" y="-105.41" font-family="Times New Roman,serif" font-size="14.00">0.00</text>
</g>
<!-- BB27&#45;&gt;BB28 -->
<g id="edge43" class="edge">
<title>BB27&#45;&gt;BB28</title>
<path fill="none" stroke="black" d="M574.65,-143.58C575.15,-151.64 575.29,-160.67 575.08,-169.29"/>
<polygon fill="black" stroke="black" points="571.57,-169.36 574.64,-179.5 578.57,-169.66 571.57,-169.36"/>
</g>
<!-- BB28&#45;&gt;BB27 -->
<g id="edge44" class="edge">
<title>BB28&#45;&gt;BB27</title>
<path fill="none" stroke="black" d="M562.21,-179.5C561.71,-171.45 561.56,-162.42 561.77,-153.8"/>
<polygon fill="black" stroke="black" points="565.28,-153.72 562.2,-143.58 558.28,-153.42 565.28,-153.72"/>
</g>
<!-- BB29 -->
<g id="node30" class="node">
<title>BB29</title>
<ellipse fill="none" stroke="black" cx="445.43" cy="-116.61" rx="52.15" ry="26.74"/>
<text text-anchor="middle" x="445.43" y="-120.41" font-family="Times New Roman,serif" font-size="14.00">[21c..224)</text>
<text text-anchor="middle" x="445.43" y="-105.41" font-family="Times New Roman,serif" font-size="14.00">0.00</text>
</g>
<!-- BB28&#45;&gt;BB29 -->
<g id="edge45" class="edge">
<title>BB28&#45;&gt;BB29</title>
<path fill="none" stroke="black" d="M538.65,-184.11C522.15,-172.34 501.46,-157.58 483.77,-144.96"/>
<polygon fill="black" stroke="black" points="485.53,-141.92 475.35,-138.96 481.46,-147.61 485.53,-141.92"/>
</g>
<!-- BB30 -->
<g id="node31" class="node">
<title>BB30</title>
<ellipse fill="none" stroke="black" cx="405.43" cy="-26.87" rx="52.15" ry="26.74"/>
<text text-anchor="middle" x="405.43" y="-30.67" font-family="Times New Roman,serif" font-size="14.00">[224..238)</text>
<text text-anchor="middle" x="405.43" y="-15.67" font-family="Times New Roman,serif" font-size="14.00">0.00</text>
</g>
<!-- BB29&#45;&gt;BB30 -->
<g id="edge47" class="edge">
<title>BB29&#45;&gt;BB30</title>
<path fill="none" stroke="black" d="M433.86,-90.23C429.92,-81.59 425.45,-71.78 421.23,-62.54"/>
<polygon fill="black" stroke="black" points="424.3,-60.84 416.97,-53.19 417.93,-63.74 424.3,-60.84"/>
</g>
<!-- BB29&#45;&gt;BB32 -->
<g id="edge46" class="edge">
<title>BB29&#45;&gt;BB32</title>
<path fill="none" stroke="black" d="M445.43,-143.77C445.43,-178.39 445.43,-241.32 445.43,-295.09 445.43,-745.79 445.43,-745.79 445.43,-745.79 445.43,-800.32 413.66,-856.6 390.16,-890.78"/>
<polygon fill="black" stroke="black" points="387.28,-888.78 384.39,-898.97 393,-892.81 387.28,-888.78"/>
</g>
<!-- BB30&#45;&gt;BB32 -->
<g id="edge48" class="edge">
<title>BB30&#45;&gt;BB32</title>
<path fill="none" stroke="black" d="M395.95,-53.33C384.12,-87.44 365.43,-150.08 365.43,-205.35 365.43,-745.79 365.43,-745.79 365.43,-745.79 365.43,-794.52 365.43,-850.77 365.43,-886.66"/>
<polygon fill="black" stroke="black" points="361.93,-887.11 365.43,-897.11 368.93,-887.11 361.93,-887.11"/>
</g>
<!-- BB31&#45;&gt;BB32 -->
<g id="edge49" class="edge">
<title>BB31&#45;&gt;BB32</title>
<path fill="none" stroke="black" d="M633.05,-995.68C625.62,-992.63 617.84,-989.63 610.43,-987.14 547.6,-966.02 473.59,-948.28 423.48,-937.29"/>
<polygon fill="black" stroke="black" points="423.99,-933.82 413.48,-935.11 422.51,-940.66 423.99,-933.82"/>
</g>
</g>
</svg>
