<?xml version="1.0" encoding="UTF-8" standalone="no"?>
<!DOCTYPE svg PUBLIC "-//W3C//DTD SVG 1.1//EN"
 "http://www.w3.org/Graphics/SVG/1.1/DTD/svg11.dtd">
<!-- Generated by graphviz version 2.47.0 (20210316.0004)
 -->
<!-- Title: G Pages: 1 -->
<svg width="2114pt" height="1690pt"
 viewBox="0.00 0.00 2114.50 1690.16" xmlns="http://www.w3.org/2000/svg" xmlns:xlink="http://www.w3.org/1999/xlink">
<g id="graph0" class="graph" transform="scale(1 1) rotate(0) translate(4 1686.16)">
<title>G</title>
<polygon fill="white" stroke="transparent" points="-4,4 -4,-1686.16 2110.5,-1686.16 2110.5,4 -4,4"/>
<!-- BB0 -->
<g id="node1" class="node">
<title>BB0</title>
<ellipse fill="none" stroke="black" cx="898.65" cy="-1634.08" rx="104.8" ry="48.17"/>
<text text-anchor="middle" x="898.65" y="-1652.88" font-family="Times New Roman,serif" font-size="14.00">[0..87)</text>
<text text-anchor="middle" x="898.65" y="-1637.88" font-family="Times New Roman,serif" font-size="14.00">Count: 0</text>
<text text-anchor="middle" x="898.65" y="-1622.88" font-family="Times New Roman,serif" font-size="14.00">Normalized count: NaN</text>
<text text-anchor="middle" x="898.65" y="-1607.88" font-family="Times New Roman,serif" font-size="14.00">Samples weight: 0.00</text>
</g>
<!-- BB1 -->
<g id="node2" class="node">
<title>BB1</title>
<ellipse fill="none" stroke="black" cx="104.65" cy="-1501.92" rx="104.8" ry="48.17"/>
<text text-anchor="middle" x="104.65" y="-1520.72" font-family="Times New Roman,serif" font-size="14.00">[87..8c)</text>
<text text-anchor="middle" x="104.65" y="-1505.72" font-family="Times New Roman,serif" font-size="14.00">Count: 0</text>
<text text-anchor="middle" x="104.65" y="-1490.72" font-family="Times New Roman,serif" font-size="14.00">Normalized count: NaN</text>
<text text-anchor="middle" x="104.65" y="-1475.72" font-family="Times New Roman,serif" font-size="14.00">Samples weight: 0.00</text>
</g>
<!-- BB0&#45;&gt;BB1 -->
<g id="edge1" class="edge">
<title>BB0&#45;&gt;BB1</title>
<path fill="none" stroke="black" d="M794.31,-1629.19C659.23,-1622.16 417.46,-1602.74 217.65,-1550 207.61,-1547.35 197.28,-1543.99 187.14,-1540.3"/>
<polygon fill="black" stroke="black" points="188.09,-1536.91 177.5,-1536.66 185.62,-1543.46 188.09,-1536.91"/>
</g>
<!-- BB2 -->
<g id="node3" class="node">
<title>BB2</title>
<ellipse fill="none" stroke="black" cx="331.65" cy="-1501.92" rx="104.8" ry="48.17"/>
<text text-anchor="middle" x="331.65" y="-1520.72" font-family="Times New Roman,serif" font-size="14.00">[8c..ac)</text>
<text text-anchor="middle" x="331.65" y="-1505.72" font-family="Times New Roman,serif" font-size="14.00">Count: 0</text>
<text text-anchor="middle" x="331.65" y="-1490.72" font-family="Times New Roman,serif" font-size="14.00">Normalized count: NaN</text>
<text text-anchor="middle" x="331.65" y="-1475.72" font-family="Times New Roman,serif" font-size="14.00">Samples weight: 0.00</text>
</g>
<!-- BB0&#45;&gt;BB2 -->
<g id="edge2" class="edge">
<title>BB0&#45;&gt;BB2</title>
<path fill="none" stroke="black" d="M797.57,-1620.89C704.6,-1608.21 563.55,-1585.21 444.65,-1550 434.85,-1547.09 424.73,-1543.62 414.78,-1539.89"/>
<polygon fill="black" stroke="black" points="415.88,-1536.56 405.29,-1536.24 413.37,-1543.1 415.88,-1536.56"/>
</g>
<!-- BB3 -->
<g id="node4" class="node">
<title>BB3</title>
<ellipse fill="none" stroke="black" cx="558.65" cy="-1501.92" rx="104.8" ry="48.17"/>
<text text-anchor="middle" x="558.65" y="-1520.72" font-family="Times New Roman,serif" font-size="14.00">[ac..cc)</text>
<text text-anchor="middle" x="558.65" y="-1505.72" font-family="Times New Roman,serif" font-size="14.00">Count: 0</text>
<text text-anchor="middle" x="558.65" y="-1490.72" font-family="Times New Roman,serif" font-size="14.00">Normalized count: NaN</text>
<text text-anchor="middle" x="558.65" y="-1475.72" font-family="Times New Roman,serif" font-size="14.00">Samples weight: 0.00</text>
</g>
<!-- BB0&#45;&gt;BB3 -->
<g id="edge5" class="edge">
<title>BB0&#45;&gt;BB3</title>
<path fill="none" stroke="black" d="M816.64,-1604.05C773.34,-1588.47 719.43,-1568.69 671.65,-1550 662.67,-1546.49 653.32,-1542.74 644.02,-1538.95"/>
<polygon fill="black" stroke="black" points="645.33,-1535.71 634.75,-1535.16 642.68,-1542.18 645.33,-1535.71"/>
</g>
<!-- BB4 -->
<g id="node5" class="node">
<title>BB4</title>
<ellipse fill="none" stroke="black" cx="785.65" cy="-1501.92" rx="104.8" ry="48.17"/>
<text text-anchor="middle" x="785.65" y="-1520.72" font-family="Times New Roman,serif" font-size="14.00">[cc..d7)</text>
<text text-anchor="middle" x="785.65" y="-1505.72" font-family="Times New Roman,serif" font-size="14.00">Count: 0</text>
<text text-anchor="middle" x="785.65" y="-1490.72" font-family="Times New Roman,serif" font-size="14.00">Normalized count: NaN</text>
<text text-anchor="middle" x="785.65" y="-1475.72" font-family="Times New Roman,serif" font-size="14.00">Samples weight: 0.00</text>
</g>
<!-- BB0&#45;&gt;BB4 -->
<g id="edge3" class="edge">
<title>BB0&#45;&gt;BB4</title>
<path fill="none" stroke="black" d="M860.4,-1589.01C850.82,-1577.99 840.47,-1566.06 830.6,-1554.7"/>
<polygon fill="black" stroke="black" points="833.07,-1552.2 823.87,-1546.94 827.78,-1556.78 833.07,-1552.2"/>
</g>
<!-- BB5 -->
<g id="node6" class="node">
<title>BB5</title>
<ellipse fill="none" stroke="black" cx="1012.65" cy="-1501.92" rx="104.8" ry="48.17"/>
<text text-anchor="middle" x="1012.65" y="-1520.72" font-family="Times New Roman,serif" font-size="14.00">[d7..e3)</text>
<text text-anchor="middle" x="1012.65" y="-1505.72" font-family="Times New Roman,serif" font-size="14.00">Count: 0</text>
<text text-anchor="middle" x="1012.65" y="-1490.72" font-family="Times New Roman,serif" font-size="14.00">Normalized count: NaN</text>
<text text-anchor="middle" x="1012.65" y="-1475.72" font-family="Times New Roman,serif" font-size="14.00">Samples weight: 0.00</text>
</g>
<!-- BB0&#45;&gt;BB5 -->
<g id="edge7" class="edge">
<title>BB0&#45;&gt;BB5</title>
<path fill="none" stroke="black" d="M937.25,-1589.01C946.9,-1577.99 957.35,-1566.06 967.3,-1554.7"/>
<polygon fill="black" stroke="black" points="970.14,-1556.77 974.1,-1546.94 964.87,-1552.15 970.14,-1556.77"/>
</g>
<!-- BB6 -->
<g id="node7" class="node">
<title>BB6</title>
<ellipse fill="none" stroke="black" cx="1239.65" cy="-1501.92" rx="104.8" ry="48.17"/>
<text text-anchor="middle" x="1239.65" y="-1520.72" font-family="Times New Roman,serif" font-size="14.00">[e3..ef)</text>
<text text-anchor="middle" x="1239.65" y="-1505.72" font-family="Times New Roman,serif" font-size="14.00">Count: 0</text>
<text text-anchor="middle" x="1239.65" y="-1490.72" font-family="Times New Roman,serif" font-size="14.00">Normalized count: NaN</text>
<text text-anchor="middle" x="1239.65" y="-1475.72" font-family="Times New Roman,serif" font-size="14.00">Samples weight: 0.00</text>
</g>
<!-- BB0&#45;&gt;BB6 -->
<g id="edge4" class="edge">
<title>BB0&#45;&gt;BB6</title>
<path fill="none" stroke="black" d="M980.77,-1604.17C1024.3,-1588.59 1078.58,-1568.76 1126.65,-1550 1135.64,-1546.49 1144.98,-1542.75 1154.29,-1538.96"/>
<polygon fill="black" stroke="black" points="1155.63,-1542.2 1163.56,-1535.17 1152.98,-1535.72 1155.63,-1542.2"/>
</g>
<!-- BB7 -->
<g id="node8" class="node">
<title>BB7</title>
<ellipse fill="none" stroke="black" cx="1693.65" cy="-1501.92" rx="104.8" ry="48.17"/>
<text text-anchor="middle" x="1693.65" y="-1520.72" font-family="Times New Roman,serif" font-size="14.00">[ef..10b)</text>
<text text-anchor="middle" x="1693.65" y="-1505.72" font-family="Times New Roman,serif" font-size="14.00">Count: 0</text>
<text text-anchor="middle" x="1693.65" y="-1490.72" font-family="Times New Roman,serif" font-size="14.00">Normalized count: NaN</text>
<text text-anchor="middle" x="1693.65" y="-1475.72" font-family="Times New Roman,serif" font-size="14.00">Samples weight: 0.00</text>
</g>
<!-- BB0&#45;&gt;BB7 -->
<g id="edge6" class="edge">
<title>BB0&#45;&gt;BB7</title>
<path fill="none" stroke="black" d="M1002.85,-1629.22C1138.07,-1622.22 1380.41,-1602.84 1580.65,-1550 1590.7,-1547.35 1601.02,-1543.99 1611.16,-1540.3"/>
<polygon fill="black" stroke="black" points="1612.68,-1543.47 1620.81,-1536.67 1610.22,-1536.92 1612.68,-1543.47"/>
</g>
<!-- BB31 -->
<g id="node32" class="node">
<title>BB31</title>
<ellipse fill="none" stroke="black" cx="1466.65" cy="-1501.92" rx="104.8" ry="48.17"/>
<text text-anchor="middle" x="1466.65" y="-1520.72" font-family="Times New Roman,serif" font-size="14.00">[240..249)</text>
<text text-anchor="middle" x="1466.65" y="-1505.72" font-family="Times New Roman,serif" font-size="14.00">Count: 0</text>
<text text-anchor="middle" x="1466.65" y="-1490.72" font-family="Times New Roman,serif" font-size="14.00">Normalized count: NaN</text>
<text text-anchor="middle" x="1466.65" y="-1475.72" font-family="Times New Roman,serif" font-size="14.00">Samples weight: 0.00</text>
</g>
<!-- BB0&#45;&gt;BB31 -->
<g id="edge8" class="edge">
<title>BB0&#45;&gt;BB31</title>
<path fill="none" stroke="black" d="M999.51,-1620.98C1092.68,-1608.32 1234.3,-1585.31 1353.65,-1550 1363.46,-1547.1 1373.57,-1543.62 1383.53,-1539.89"/>
<polygon fill="black" stroke="black" points="1384.93,-1543.1 1393.01,-1536.25 1382.42,-1536.57 1384.93,-1543.1"/>
</g>
<!-- BB32 -->
<g id="node33" class="node">
<title>BB32</title>
<ellipse fill="none" stroke="black" cx="798.65" cy="-1369.75" rx="113.69" ry="48.17"/>
<text text-anchor="middle" x="798.65" y="-1388.55" font-family="Times New Roman,serif" font-size="14.00">[249..250)</text>
<text text-anchor="middle" x="798.65" y="-1373.55" font-family="Times New Roman,serif" font-size="14.00">Count: 1</text>
<text text-anchor="middle" x="798.65" y="-1358.55" font-family="Times New Roman,serif" font-size="14.00">Normalized count: Infinity</text>
<text text-anchor="middle" x="798.65" y="-1343.55" font-family="Times New Roman,serif" font-size="14.00">Samples weight: 0.01</text>
</g>
<!-- BB1&#45;&gt;BB32 -->
<g id="edge9" class="edge">
<title>BB1&#45;&gt;BB32</title>
<path fill="none" stroke="black" d="M177.56,-1467.4C190.7,-1462.26 204.43,-1457.47 217.65,-1453.83 372.66,-1411.2 557.29,-1389.56 676.15,-1379.23"/>
<polygon fill="black" stroke="black" points="676.71,-1382.69 686.37,-1378.35 676.11,-1375.72 676.71,-1382.69"/>
</g>
<!-- BB2&#45;&gt;BB32 -->
<g id="edge10" class="edge">
<title>BB2&#45;&gt;BB32</title>
<path fill="none" stroke="black" d="M406.07,-1467.88C418.81,-1462.81 432.01,-1457.92 444.65,-1453.83 523.8,-1428.25 615.26,-1406.99 685.39,-1392.38"/>
<polygon fill="black" stroke="black" points="686.49,-1395.73 695.57,-1390.27 685.07,-1388.87 686.49,-1395.73"/>
</g>
<!-- BB3&#45;&gt;BB32 -->
<g id="edge11" class="edge">
<title>BB3&#45;&gt;BB32</title>
<path fill="none" stroke="black" d="M625.51,-1464.66C655.04,-1448.64 689.97,-1429.69 720.69,-1413.03"/>
<polygon fill="black" stroke="black" points="722.53,-1416.02 729.65,-1408.17 719.19,-1409.86 722.53,-1416.02"/>
</g>
<!-- BB4&#45;&gt;BB32 -->
<g id="edge12" class="edge">
<title>BB4&#45;&gt;BB32</title>
<path fill="none" stroke="black" d="M790.38,-1453.55C791.22,-1445.19 792.09,-1436.41 792.95,-1427.82"/>
<polygon fill="black" stroke="black" points="796.44,-1428.15 793.95,-1417.86 789.47,-1427.46 796.44,-1428.15"/>
</g>
<!-- BB5&#45;&gt;BB32 -->
<g id="edge13" class="edge">
<title>BB5&#45;&gt;BB32</title>
<path fill="none" stroke="black" d="M950.47,-1463.09C925.63,-1447.98 896.86,-1430.49 871.09,-1414.81"/>
<polygon fill="black" stroke="black" points="872.84,-1411.78 862.48,-1409.57 869.2,-1417.76 872.84,-1411.78"/>
</g>
<!-- BB6&#45;&gt;BB32 -->
<g id="edge14" class="edge">
<title>BB6&#45;&gt;BB32</title>
<path fill="none" stroke="black" d="M1165.17,-1468.07C1152.44,-1462.98 1139.25,-1458.03 1126.65,-1453.83 1055.5,-1430.14 973.73,-1409.41 909.64,-1394.59"/>
<polygon fill="black" stroke="black" points="910.04,-1391.09 899.51,-1392.26 908.48,-1397.91 910.04,-1391.09"/>
</g>
<!-- BB8 -->
<g id="node9" class="node">
<title>BB8</title>
<ellipse fill="none" stroke="black" cx="1466.65" cy="-1369.75" rx="104.8" ry="48.17"/>
<text text-anchor="middle" x="1466.65" y="-1388.55" font-family="Times New Roman,serif" font-size="14.00">[10b..118)</text>
<text text-anchor="middle" x="1466.65" y="-1373.55" font-family="Times New Roman,serif" font-size="14.00">Count: 0</text>
<text text-anchor="middle" x="1466.65" y="-1358.55" font-family="Times New Roman,serif" font-size="14.00">Normalized count: NaN</text>
<text text-anchor="middle" x="1466.65" y="-1343.55" font-family="Times New Roman,serif" font-size="14.00">Samples weight: 0.00</text>
</g>
<!-- BB7&#45;&gt;BB8 -->
<g id="edge16" class="edge">
<title>BB7&#45;&gt;BB8</title>
<path fill="none" stroke="black" d="M1629.21,-1463.96C1601.41,-1448.02 1568.76,-1429.3 1540.03,-1412.83"/>
<polygon fill="black" stroke="black" points="1541.67,-1409.73 1531.25,-1407.79 1538.19,-1415.8 1541.67,-1409.73"/>
</g>
<!-- BB9 -->
<g id="node10" class="node">
<title>BB9</title>
<ellipse fill="none" stroke="black" cx="1693.65" cy="-1369.75" rx="104.8" ry="48.17"/>
<text text-anchor="middle" x="1693.65" y="-1388.55" font-family="Times New Roman,serif" font-size="14.00">[118..11f)</text>
<text text-anchor="middle" x="1693.65" y="-1373.55" font-family="Times New Roman,serif" font-size="14.00">Count: 0</text>
<text text-anchor="middle" x="1693.65" y="-1358.55" font-family="Times New Roman,serif" font-size="14.00">Normalized count: NaN</text>
<text text-anchor="middle" x="1693.65" y="-1343.55" font-family="Times New Roman,serif" font-size="14.00">Samples weight: 0.00</text>
</g>
<!-- BB7&#45;&gt;BB9 -->
<g id="edge15" class="edge">
<title>BB7&#45;&gt;BB9</title>
<path fill="none" stroke="black" d="M1693.65,-1453.55C1693.65,-1445.29 1693.65,-1436.6 1693.65,-1428.1"/>
<polygon fill="black" stroke="black" points="1697.15,-1427.86 1693.65,-1417.86 1690.15,-1427.86 1697.15,-1427.86"/>
</g>
<!-- BB8&#45;&gt;BB9 -->
<g id="edge18" class="edge">
<title>BB8&#45;&gt;BB9</title>
<path fill="none" stroke="black" d="M1571.73,-1369.75C1574.05,-1369.75 1576.37,-1369.75 1578.69,-1369.75"/>
<polygon fill="black" stroke="black" points="1578.87,-1373.25 1588.87,-1369.75 1578.87,-1366.25 1578.87,-1373.25"/>
</g>
<!-- BB10 -->
<g id="node11" class="node">
<title>BB10</title>
<ellipse fill="none" stroke="black" cx="1466.65" cy="-1237.58" rx="104.8" ry="48.17"/>
<text text-anchor="middle" x="1466.65" y="-1256.38" font-family="Times New Roman,serif" font-size="14.00">[11f..128)</text>
<text text-anchor="middle" x="1466.65" y="-1241.38" font-family="Times New Roman,serif" font-size="14.00">Count: 0</text>
<text text-anchor="middle" x="1466.65" y="-1226.38" font-family="Times New Roman,serif" font-size="14.00">Normalized count: NaN</text>
<text text-anchor="middle" x="1466.65" y="-1211.38" font-family="Times New Roman,serif" font-size="14.00">Samples weight: 0.00</text>
</g>
<!-- BB8&#45;&gt;BB10 -->
<g id="edge17" class="edge">
<title>BB8&#45;&gt;BB10</title>
<path fill="none" stroke="black" d="M1466.65,-1321.39C1466.65,-1313.12 1466.65,-1304.44 1466.65,-1295.93"/>
<polygon fill="black" stroke="black" points="1470.15,-1295.69 1466.65,-1285.69 1463.15,-1295.69 1470.15,-1295.69"/>
</g>
<!-- BB9&#45;&gt;BB10 -->
<g id="edge19" class="edge">
<title>BB9&#45;&gt;BB10</title>
<path fill="none" stroke="black" d="M1629.21,-1331.8C1601.41,-1315.86 1568.76,-1297.13 1540.03,-1280.66"/>
<polygon fill="black" stroke="black" points="1541.67,-1277.56 1531.25,-1275.63 1538.19,-1283.64 1541.67,-1277.56"/>
</g>
<!-- BB11 -->
<g id="node12" class="node">
<title>BB11</title>
<ellipse fill="none" stroke="black" cx="1239.65" cy="-1105.42" rx="104.8" ry="48.17"/>
<text text-anchor="middle" x="1239.65" y="-1124.22" font-family="Times New Roman,serif" font-size="14.00">[128..131)</text>
<text text-anchor="middle" x="1239.65" y="-1109.22" font-family="Times New Roman,serif" font-size="14.00">Count: 0</text>
<text text-anchor="middle" x="1239.65" y="-1094.22" font-family="Times New Roman,serif" font-size="14.00">Normalized count: NaN</text>
<text text-anchor="middle" x="1239.65" y="-1079.22" font-family="Times New Roman,serif" font-size="14.00">Samples weight: 0.00</text>
</g>
<!-- BB10&#45;&gt;BB11 -->
<g id="edge21" class="edge">
<title>BB10&#45;&gt;BB11</title>
<path fill="none" stroke="black" d="M1402.21,-1199.63C1374.41,-1183.69 1341.76,-1164.96 1313.03,-1148.49"/>
<polygon fill="black" stroke="black" points="1314.67,-1145.4 1304.25,-1143.46 1311.19,-1151.47 1314.67,-1145.4"/>
</g>
<!-- BB12 -->
<g id="node13" class="node">
<title>BB12</title>
<ellipse fill="none" stroke="black" cx="1466.65" cy="-1105.42" rx="104.8" ry="48.17"/>
<text text-anchor="middle" x="1466.65" y="-1124.22" font-family="Times New Roman,serif" font-size="14.00">[131..13a)</text>
<text text-anchor="middle" x="1466.65" y="-1109.22" font-family="Times New Roman,serif" font-size="14.00">Count: 0</text>
<text text-anchor="middle" x="1466.65" y="-1094.22" font-family="Times New Roman,serif" font-size="14.00">Normalized count: NaN</text>
<text text-anchor="middle" x="1466.65" y="-1079.22" font-family="Times New Roman,serif" font-size="14.00">Samples weight: 0.00</text>
</g>
<!-- BB10&#45;&gt;BB12 -->
<g id="edge20" class="edge">
<title>BB10&#45;&gt;BB12</title>
<path fill="none" stroke="black" d="M1466.65,-1189.22C1466.65,-1180.95 1466.65,-1172.27 1466.65,-1163.77"/>
<polygon fill="black" stroke="black" points="1470.15,-1163.52 1466.65,-1153.52 1463.15,-1163.52 1470.15,-1163.52"/>
</g>
<!-- BB11&#45;&gt;BB12 -->
<g id="edge23" class="edge">
<title>BB11&#45;&gt;BB12</title>
<path fill="none" stroke="black" d="M1344.73,-1105.42C1347.05,-1105.42 1349.37,-1105.42 1351.69,-1105.42"/>
<polygon fill="black" stroke="black" points="1351.87,-1108.92 1361.87,-1105.42 1351.87,-1101.92 1351.87,-1108.92"/>
</g>
<!-- BB13 -->
<g id="node14" class="node">
<title>BB13</title>
<ellipse fill="none" stroke="black" cx="1230.65" cy="-973.25" rx="104.8" ry="48.17"/>
<text text-anchor="middle" x="1230.65" y="-992.05" font-family="Times New Roman,serif" font-size="14.00">[13a..141)</text>
<text text-anchor="middle" x="1230.65" y="-977.05" font-family="Times New Roman,serif" font-size="14.00">Count: 0</text>
<text text-anchor="middle" x="1230.65" y="-962.05" font-family="Times New Roman,serif" font-size="14.00">Normalized count: NaN</text>
<text text-anchor="middle" x="1230.65" y="-947.05" font-family="Times New Roman,serif" font-size="14.00">Samples weight: 0.00</text>
</g>
<!-- BB11&#45;&gt;BB13 -->
<g id="edge22" class="edge">
<title>BB11&#45;&gt;BB13</title>
<path fill="none" stroke="black" d="M1236.38,-1057.05C1235.81,-1048.79 1235.21,-1040.1 1234.62,-1031.6"/>
<polygon fill="black" stroke="black" points="1238.09,-1031.09 1233.91,-1021.36 1231.11,-1031.57 1238.09,-1031.09"/>
</g>
<!-- BB14 -->
<g id="node15" class="node">
<title>BB14</title>
<ellipse fill="none" stroke="black" cx="1466.65" cy="-973.25" rx="113.69" ry="48.17"/>
<text text-anchor="middle" x="1466.65" y="-992.05" font-family="Times New Roman,serif" font-size="14.00">[141..16d)</text>
<text text-anchor="middle" x="1466.65" y="-977.05" font-family="Times New Roman,serif" font-size="14.00">Count: 1</text>
<text text-anchor="middle" x="1466.65" y="-962.05" font-family="Times New Roman,serif" font-size="14.00">Normalized count: Infinity</text>
<text text-anchor="middle" x="1466.65" y="-947.05" font-family="Times New Roman,serif" font-size="14.00">Samples weight: 0.01</text>
</g>
<!-- BB12&#45;&gt;BB14 -->
<g id="edge24" class="edge">
<title>BB12&#45;&gt;BB14</title>
<path fill="none" stroke="black" d="M1466.65,-1057.05C1466.65,-1048.79 1466.65,-1040.1 1466.65,-1031.6"/>
<polygon fill="black" stroke="black" points="1470.15,-1031.36 1466.65,-1021.36 1463.15,-1031.36 1470.15,-1031.36"/>
</g>
<!-- BB13&#45;&gt;BB14 -->
<g id="edge25" class="edge">
<title>BB13&#45;&gt;BB14</title>
<path fill="none" stroke="black" d="M1335.75,-973.25C1338.03,-973.25 1340.32,-973.25 1342.6,-973.25"/>
<polygon fill="black" stroke="black" points="1342.62,-976.75 1352.62,-973.25 1342.62,-969.75 1342.62,-976.75"/>
</g>
<!-- BB16 -->
<g id="node17" class="node">
<title>BB16</title>
<ellipse fill="none" stroke="black" cx="1459.65" cy="-841.08" rx="104.8" ry="48.17"/>
<text text-anchor="middle" x="1459.65" y="-859.88" font-family="Times New Roman,serif" font-size="14.00">[17e..182)</text>
<text text-anchor="middle" x="1459.65" y="-844.88" font-family="Times New Roman,serif" font-size="14.00">Count: 0</text>
<text text-anchor="middle" x="1459.65" y="-829.88" font-family="Times New Roman,serif" font-size="14.00">Normalized count: NaN</text>
<text text-anchor="middle" x="1459.65" y="-814.88" font-family="Times New Roman,serif" font-size="14.00">Samples weight: 0.00</text>
</g>
<!-- BB14&#45;&gt;BB16 -->
<g id="edge26" class="edge">
<title>BB14&#45;&gt;BB16</title>
<path fill="none" stroke="black" d="M1464.1,-924.89C1463.66,-916.62 1463.19,-907.94 1462.74,-899.43"/>
<polygon fill="black" stroke="black" points="1466.22,-898.99 1462.19,-889.19 1459.23,-899.36 1466.22,-898.99"/>
</g>
<!-- BB15 -->
<g id="node16" class="node">
<title>BB15</title>
<ellipse fill="none" stroke="black" cx="1434.65" cy="-708.92" rx="104.8" ry="48.17"/>
<text text-anchor="middle" x="1434.65" y="-727.72" font-family="Times New Roman,serif" font-size="14.00">[16d..17e)</text>
<text text-anchor="middle" x="1434.65" y="-712.72" font-family="Times New Roman,serif" font-size="14.00">Count: 0</text>
<text text-anchor="middle" x="1434.65" y="-697.72" font-family="Times New Roman,serif" font-size="14.00">Normalized count: NaN</text>
<text text-anchor="middle" x="1434.65" y="-682.72" font-family="Times New Roman,serif" font-size="14.00">Samples weight: 0.00</text>
</g>
<!-- BB15&#45;&gt;BB16 -->
<g id="edge27" class="edge">
<title>BB15&#45;&gt;BB16</title>
<path fill="none" stroke="black" d="M1450.12,-756.59C1451.97,-765.03 1453.75,-773.92 1455.32,-782.62"/>
<polygon fill="black" stroke="black" points="1451.92,-783.47 1457.08,-792.72 1458.82,-782.27 1451.92,-783.47"/>
</g>
<!-- BB16&#45;&gt;BB15 -->
<g id="edge28" class="edge">
<title>BB16&#45;&gt;BB15</title>
<path fill="none" stroke="black" d="M1444.19,-793.46C1442.31,-784.87 1440.5,-775.82 1438.9,-766.96"/>
<polygon fill="black" stroke="black" points="1442.35,-766.35 1437.19,-757.09 1435.45,-767.54 1442.35,-766.35"/>
</g>
<!-- BB17 -->
<g id="node18" class="node">
<title>BB17</title>
<ellipse fill="none" stroke="black" cx="1661.65" cy="-708.92" rx="104.8" ry="48.17"/>
<text text-anchor="middle" x="1661.65" y="-727.72" font-family="Times New Roman,serif" font-size="14.00">[182..186)</text>
<text text-anchor="middle" x="1661.65" y="-712.72" font-family="Times New Roman,serif" font-size="14.00">Count: 0</text>
<text text-anchor="middle" x="1661.65" y="-697.72" font-family="Times New Roman,serif" font-size="14.00">Normalized count: NaN</text>
<text text-anchor="middle" x="1661.65" y="-682.72" font-family="Times New Roman,serif" font-size="14.00">Samples weight: 0.00</text>
</g>
<!-- BB16&#45;&gt;BB17 -->
<g id="edge29" class="edge">
<title>BB16&#45;&gt;BB17</title>
<path fill="none" stroke="black" d="M1519.44,-801.56C1542.54,-786.67 1569.12,-769.54 1593,-754.15"/>
<polygon fill="black" stroke="black" points="1595.16,-756.93 1601.67,-748.57 1591.37,-751.04 1595.16,-756.93"/>
</g>
<!-- BB25 -->
<g id="node26" class="node">
<title>BB25</title>
<ellipse fill="none" stroke="black" cx="1610.65" cy="-576.75" rx="104.8" ry="48.17"/>
<text text-anchor="middle" x="1610.65" y="-595.55" font-family="Times New Roman,serif" font-size="14.00">[1e7..1ec)</text>
<text text-anchor="middle" x="1610.65" y="-580.55" font-family="Times New Roman,serif" font-size="14.00">Count: 0</text>
<text text-anchor="middle" x="1610.65" y="-565.55" font-family="Times New Roman,serif" font-size="14.00">Normalized count: NaN</text>
<text text-anchor="middle" x="1610.65" y="-550.55" font-family="Times New Roman,serif" font-size="14.00">Samples weight: 0.00</text>
</g>
<!-- BB17&#45;&gt;BB25 -->
<g id="edge30" class="edge">
<title>BB17&#45;&gt;BB25</title>
<path fill="none" stroke="black" d="M1643.38,-661.29C1639.9,-652.41 1636.23,-643.03 1632.65,-633.89"/>
<polygon fill="black" stroke="black" points="1635.87,-632.52 1628.96,-624.49 1629.35,-635.07 1635.87,-632.52"/>
</g>
<!-- BB18 -->
<g id="node19" class="node">
<title>BB18</title>
<ellipse fill="none" stroke="black" cx="1746.65" cy="-444.58" rx="113.69" ry="48.17"/>
<text text-anchor="middle" x="1746.65" y="-463.38" font-family="Times New Roman,serif" font-size="14.00">[186..199)</text>
<text text-anchor="middle" x="1746.65" y="-448.38" font-family="Times New Roman,serif" font-size="14.00">Count: 19</text>
<text text-anchor="middle" x="1746.65" y="-433.38" font-family="Times New Roman,serif" font-size="14.00">Normalized count: Infinity</text>
<text text-anchor="middle" x="1746.65" y="-418.38" font-family="Times New Roman,serif" font-size="14.00">Samples weight: 0.19</text>
</g>
<!-- BB19 -->
<g id="node20" class="node">
<title>BB19</title>
<ellipse fill="none" stroke="black" cx="1992.65" cy="-312.42" rx="113.69" ry="48.17"/>
<text text-anchor="middle" x="1992.65" y="-331.22" font-family="Times New Roman,serif" font-size="14.00">[199..19f)</text>
<text text-anchor="middle" x="1992.65" y="-316.22" font-family="Times New Roman,serif" font-size="14.00">Count: 14</text>
<text text-anchor="middle" x="1992.65" y="-301.22" font-family="Times New Roman,serif" font-size="14.00">Normalized count: Infinity</text>
<text text-anchor="middle" x="1992.65" y="-286.22" font-family="Times New Roman,serif" font-size="14.00">Samples weight: 0.14</text>
</g>
<!-- BB18&#45;&gt;BB19 -->
<g id="edge32" class="edge">
<title>BB18&#45;&gt;BB19</title>
<path fill="none" stroke="black" d="M1816.82,-406.46C1846.93,-390.52 1882.27,-371.82 1913.33,-355.39"/>
<polygon fill="black" stroke="black" points="1915.19,-358.36 1922.39,-350.59 1911.92,-352.18 1915.19,-358.36"/>
</g>
<!-- BB23 -->
<g id="node24" class="node">
<title>BB23</title>
<ellipse fill="none" stroke="black" cx="1746.65" cy="-312.42" rx="113.69" ry="48.17"/>
<text text-anchor="middle" x="1746.65" y="-331.22" font-family="Times New Roman,serif" font-size="14.00">[1cc..1ce)</text>
<text text-anchor="middle" x="1746.65" y="-316.22" font-family="Times New Roman,serif" font-size="14.00">Count: 3</text>
<text text-anchor="middle" x="1746.65" y="-301.22" font-family="Times New Roman,serif" font-size="14.00">Normalized count: Infinity</text>
<text text-anchor="middle" x="1746.65" y="-286.22" font-family="Times New Roman,serif" font-size="14.00">Samples weight: 0.03</text>
</g>
<!-- BB18&#45;&gt;BB23 -->
<g id="edge31" class="edge">
<title>BB18&#45;&gt;BB23</title>
<path fill="none" stroke="black" d="M1746.65,-396.22C1746.65,-387.95 1746.65,-379.27 1746.65,-370.77"/>
<polygon fill="black" stroke="black" points="1750.15,-370.52 1746.65,-360.52 1743.15,-370.52 1750.15,-370.52"/>
</g>
<!-- BB21 -->
<g id="node22" class="node">
<title>BB21</title>
<ellipse fill="none" stroke="black" cx="1992.65" cy="-180.25" rx="113.69" ry="48.17"/>
<text text-anchor="middle" x="1992.65" y="-199.05" font-family="Times New Roman,serif" font-size="14.00">[1c6..1ca)</text>
<text text-anchor="middle" x="1992.65" y="-184.05" font-family="Times New Roman,serif" font-size="14.00">Count: 6</text>
<text text-anchor="middle" x="1992.65" y="-169.05" font-family="Times New Roman,serif" font-size="14.00">Normalized count: Infinity</text>
<text text-anchor="middle" x="1992.65" y="-154.05" font-family="Times New Roman,serif" font-size="14.00">Samples weight: 0.06</text>
</g>
<!-- BB19&#45;&gt;BB21 -->
<g id="edge33" class="edge">
<title>BB19&#45;&gt;BB21</title>
<path fill="none" stroke="black" d="M1992.65,-264.05C1992.65,-255.79 1992.65,-247.1 1992.65,-238.6"/>
<polygon fill="black" stroke="black" points="1996.15,-238.36 1992.65,-228.36 1989.15,-238.36 1996.15,-238.36"/>
</g>
<!-- BB20 -->
<g id="node21" class="node">
<title>BB20</title>
<ellipse fill="none" stroke="black" cx="1992.65" cy="-48.08" rx="113.69" ry="48.17"/>
<text text-anchor="middle" x="1992.65" y="-66.88" font-family="Times New Roman,serif" font-size="14.00">[19f..1c6)</text>
<text text-anchor="middle" x="1992.65" y="-51.88" font-family="Times New Roman,serif" font-size="14.00">Count: 39</text>
<text text-anchor="middle" x="1992.65" y="-36.88" font-family="Times New Roman,serif" font-size="14.00">Normalized count: Infinity</text>
<text text-anchor="middle" x="1992.65" y="-21.88" font-family="Times New Roman,serif" font-size="14.00">Samples weight: 0.39</text>
</g>
<!-- BB20&#45;&gt;BB21 -->
<g id="edge34" class="edge">
<title>BB20&#45;&gt;BB21</title>
<path fill="none" stroke="black" d="M1999.17,-96.19C1999.39,-104.45 1999.45,-113.13 1999.36,-121.64"/>
<polygon fill="black" stroke="black" points="1995.86,-121.83 1999.17,-131.89 2002.86,-121.95 1995.86,-121.83"/>
</g>
<!-- BB21&#45;&gt;BB20 -->
<g id="edge35" class="edge">
<title>BB21&#45;&gt;BB20</title>
<path fill="none" stroke="black" d="M1986.13,-131.89C1985.91,-123.62 1985.85,-114.94 1985.94,-106.43"/>
<polygon fill="black" stroke="black" points="1989.45,-106.26 1986.14,-96.19 1982.45,-106.12 1989.45,-106.26"/>
</g>
<!-- BB22 -->
<g id="node23" class="node">
<title>BB22</title>
<ellipse fill="none" stroke="black" cx="1751.65" cy="-48.08" rx="104.8" ry="48.17"/>
<text text-anchor="middle" x="1751.65" y="-66.88" font-family="Times New Roman,serif" font-size="14.00">[1ca..1cc)</text>
<text text-anchor="middle" x="1751.65" y="-51.88" font-family="Times New Roman,serif" font-size="14.00">Count: 0</text>
<text text-anchor="middle" x="1751.65" y="-36.88" font-family="Times New Roman,serif" font-size="14.00">Normalized count: NaN</text>
<text text-anchor="middle" x="1751.65" y="-21.88" font-family="Times New Roman,serif" font-size="14.00">Samples weight: 0.00</text>
</g>
<!-- BB21&#45;&gt;BB22 -->
<g id="edge36" class="edge">
<title>BB21&#45;&gt;BB22</title>
<path fill="none" stroke="black" d="M1923.59,-141.95C1893.59,-125.74 1858.35,-106.71 1827.61,-90.11"/>
<polygon fill="black" stroke="black" points="1829.11,-86.94 1818.64,-85.27 1825.78,-93.1 1829.11,-86.94"/>
</g>
<!-- BB24 -->
<g id="node25" class="node">
<title>BB24</title>
<ellipse fill="none" stroke="black" cx="1746.65" cy="-180.25" rx="113.69" ry="48.17"/>
<text text-anchor="middle" x="1746.65" y="-199.05" font-family="Times New Roman,serif" font-size="14.00">[1ce..1e7)</text>
<text text-anchor="middle" x="1746.65" y="-184.05" font-family="Times New Roman,serif" font-size="14.00">Count: 16</text>
<text text-anchor="middle" x="1746.65" y="-169.05" font-family="Times New Roman,serif" font-size="14.00">Normalized count: Infinity</text>
<text text-anchor="middle" x="1746.65" y="-154.05" font-family="Times New Roman,serif" font-size="14.00">Samples weight: 0.16</text>
</g>
<!-- BB22&#45;&gt;BB24 -->
<g id="edge37" class="edge">
<title>BB22&#45;&gt;BB24</title>
<path fill="none" stroke="black" d="M1749.84,-96.19C1749.52,-104.45 1749.19,-113.13 1748.86,-121.64"/>
<polygon fill="black" stroke="black" points="1745.36,-121.76 1748.47,-131.89 1752.35,-122.03 1745.36,-121.76"/>
</g>
<!-- BB23&#45;&gt;BB24 -->
<g id="edge38" class="edge">
<title>BB23&#45;&gt;BB24</title>
<path fill="none" stroke="black" d="M1746.65,-264.05C1746.65,-255.79 1746.65,-247.1 1746.65,-238.6"/>
<polygon fill="black" stroke="black" points="1750.15,-238.36 1746.65,-228.36 1743.15,-238.36 1750.15,-238.36"/>
</g>
<!-- BB24&#45;&gt;BB25 -->
<g id="edge39" class="edge">
<title>BB24&#45;&gt;BB25</title>
<path fill="none" stroke="black" d="M1670.9,-216.48C1652.29,-228.89 1634.58,-244.76 1623.65,-264.33 1579.39,-343.6 1587.56,-452.73 1598.45,-518.53"/>
<polygon fill="black" stroke="black" points="1595.06,-519.45 1600.21,-528.7 1601.95,-518.25 1595.06,-519.45"/>
</g>
<!-- BB25&#45;&gt;BB18 -->
<g id="edge40" class="edge">
<title>BB25&#45;&gt;BB18</title>
<path fill="none" stroke="black" d="M1655.18,-533.13C1667.62,-521.23 1681.24,-508.19 1694.09,-495.89"/>
<polygon fill="black" stroke="black" points="1696.75,-498.19 1701.55,-488.75 1691.91,-493.13 1696.75,-498.19"/>
</g>
<!-- BB26 -->
<g id="node27" class="node">
<title>BB26</title>
<ellipse fill="none" stroke="black" cx="1416.65" cy="-444.58" rx="104.8" ry="48.17"/>
<text text-anchor="middle" x="1416.65" y="-463.38" font-family="Times New Roman,serif" font-size="14.00">[1ec..1ee)</text>
<text text-anchor="middle" x="1416.65" y="-448.38" font-family="Times New Roman,serif" font-size="14.00">Count: 0</text>
<text text-anchor="middle" x="1416.65" y="-433.38" font-family="Times New Roman,serif" font-size="14.00">Normalized count: NaN</text>
<text text-anchor="middle" x="1416.65" y="-418.38" font-family="Times New Roman,serif" font-size="14.00">Samples weight: 0.00</text>
</g>
<!-- BB25&#45;&gt;BB26 -->
<g id="edge41" class="edge">
<title>BB25&#45;&gt;BB26</title>
<path fill="none" stroke="black" d="M1552.45,-536.7C1530.67,-522.09 1505.78,-505.38 1483.3,-490.3"/>
<polygon fill="black" stroke="black" points="1485.07,-487.27 1474.82,-484.61 1481.17,-493.09 1485.07,-487.27"/>
</g>
<!-- BB28 -->
<g id="node29" class="node">
<title>BB28</title>
<ellipse fill="none" stroke="black" cx="1361.65" cy="-312.42" rx="113.69" ry="48.17"/>
<text text-anchor="middle" x="1361.65" y="-331.22" font-family="Times New Roman,serif" font-size="14.00">[214..224)</text>
<text text-anchor="middle" x="1361.65" y="-316.22" font-family="Times New Roman,serif" font-size="14.00">Count: 1</text>
<text text-anchor="middle" x="1361.65" y="-301.22" font-family="Times New Roman,serif" font-size="14.00">Normalized count: Infinity</text>
<text text-anchor="middle" x="1361.65" y="-286.22" font-family="Times New Roman,serif" font-size="14.00">Samples weight: 0.01</text>
</g>
<!-- BB26&#45;&gt;BB28 -->
<g id="edge42" class="edge">
<title>BB26&#45;&gt;BB28</title>
<path fill="none" stroke="black" d="M1397.11,-397.32C1393.26,-388.23 1389.19,-378.59 1385.23,-369.22"/>
<polygon fill="black" stroke="black" points="1388.44,-367.81 1381.32,-359.96 1381.99,-370.54 1388.44,-367.81"/>
</g>
<!-- BB27 -->
<g id="node28" class="node">
<title>BB27</title>
<ellipse fill="none" stroke="black" cx="1361.65" cy="-180.25" rx="104.8" ry="48.17"/>
<text text-anchor="middle" x="1361.65" y="-199.05" font-family="Times New Roman,serif" font-size="14.00">[1ee..214)</text>
<text text-anchor="middle" x="1361.65" y="-184.05" font-family="Times New Roman,serif" font-size="14.00">Count: 0</text>
<text text-anchor="middle" x="1361.65" y="-169.05" font-family="Times New Roman,serif" font-size="14.00">Normalized count: NaN</text>
<text text-anchor="middle" x="1361.65" y="-154.05" font-family="Times New Roman,serif" font-size="14.00">Samples weight: 0.00</text>
</g>
<!-- BB27&#45;&gt;BB28 -->
<g id="edge43" class="edge">
<title>BB27&#45;&gt;BB28</title>
<path fill="none" stroke="black" d="M1368.17,-228.36C1368.39,-236.62 1368.45,-245.3 1368.36,-253.8"/>
<polygon fill="black" stroke="black" points="1364.86,-253.99 1368.17,-264.05 1371.86,-254.12 1364.86,-253.99"/>
</g>
<!-- BB28&#45;&gt;BB27 -->
<g id="edge44" class="edge">
<title>BB28&#45;&gt;BB27</title>
<path fill="none" stroke="black" d="M1355.13,-264.05C1354.91,-255.79 1354.85,-247.1 1354.94,-238.6"/>
<polygon fill="black" stroke="black" points="1358.45,-238.42 1355.14,-228.36 1351.45,-238.29 1358.45,-238.42"/>
</g>
<!-- BB29 -->
<g id="node30" class="node">
<title>BB29</title>
<ellipse fill="none" stroke="black" cx="931.65" cy="-180.25" rx="104.8" ry="48.17"/>
<text text-anchor="middle" x="931.65" y="-199.05" font-family="Times New Roman,serif" font-size="14.00">[224..22c)</text>
<text text-anchor="middle" x="931.65" y="-184.05" font-family="Times New Roman,serif" font-size="14.00">Count: 0</text>
<text text-anchor="middle" x="931.65" y="-169.05" font-family="Times New Roman,serif" font-size="14.00">Normalized count: NaN</text>
<text text-anchor="middle" x="931.65" y="-154.05" font-family="Times New Roman,serif" font-size="14.00">Samples weight: 0.00</text>
</g>
<!-- BB28&#45;&gt;BB29 -->
<g id="edge45" class="edge">
<title>BB28&#45;&gt;BB29</title>
<path fill="none" stroke="black" d="M1270.2,-283.73C1198.93,-262.16 1100.24,-232.28 1027.8,-210.36"/>
<polygon fill="black" stroke="black" points="1028.79,-207 1018.21,-207.45 1026.76,-213.7 1028.79,-207"/>
</g>
<!-- BB30 -->
<g id="node31" class="node">
<title>BB30</title>
<ellipse fill="none" stroke="black" cx="865.65" cy="-48.08" rx="104.8" ry="48.17"/>
<text text-anchor="middle" x="865.65" y="-66.88" font-family="Times New Roman,serif" font-size="14.00">[22c..240)</text>
<text text-anchor="middle" x="865.65" y="-51.88" font-family="Times New Roman,serif" font-size="14.00">Count: 0</text>
<text text-anchor="middle" x="865.65" y="-36.88" font-family="Times New Roman,serif" font-size="14.00">Normalized count: NaN</text>
<text text-anchor="middle" x="865.65" y="-21.88" font-family="Times New Roman,serif" font-size="14.00">Samples weight: 0.00</text>
</g>
<!-- BB29&#45;&gt;BB30 -->
<g id="edge47" class="edge">
<title>BB29&#45;&gt;BB30</title>
<path fill="none" stroke="black" d="M908.38,-133.36C903.6,-123.93 898.52,-113.91 893.59,-104.19"/>
<polygon fill="black" stroke="black" points="896.58,-102.34 888.93,-95 890.33,-105.5 896.58,-102.34"/>
</g>
<!-- BB29&#45;&gt;BB32 -->
<g id="edge46" class="edge">
<title>BB29&#45;&gt;BB32</title>
<path fill="none" stroke="black" d="M918.06,-228.19C904.18,-280.33 884.65,-367.24 884.65,-443.58 884.65,-1106.42 884.65,-1106.42 884.65,-1106.42 884.65,-1180.79 853.05,-1261.39 828.16,-1313.34"/>
<polygon fill="black" stroke="black" points="824.99,-1311.86 823.76,-1322.38 831.28,-1314.92 824.99,-1311.86"/>
</g>
<!-- BB30&#45;&gt;BB32 -->
<g id="edge48" class="edge">
<title>BB30&#45;&gt;BB32</title>
<path fill="none" stroke="black" d="M834.88,-94.49C828.17,-106.31 821.83,-119.34 817.65,-132.17 792.85,-208.34 798.65,-231.3 798.65,-311.42 798.65,-1106.42 798.65,-1106.42 798.65,-1106.42 798.65,-1176.87 798.65,-1257.96 798.65,-1311.11"/>
<polygon fill="black" stroke="black" points="795.15,-1311.36 798.65,-1321.36 802.15,-1311.36 795.15,-1311.36"/>
</g>
<!-- BB31&#45;&gt;BB32 -->
<g id="edge49" class="edge">
<title>BB31&#45;&gt;BB32</title>
<path fill="none" stroke="black" d="M1393.42,-1467.35C1380.37,-1462.25 1366.75,-1457.48 1353.65,-1453.83 1207.66,-1413.16 1034.17,-1391.24 920.5,-1380.3"/>
<polygon fill="black" stroke="black" points="920.66,-1376.8 910.38,-1379.34 920,-1383.77 920.66,-1376.8"/>
</g>
</g>
</svg>
