<?xml version="1.0" encoding="UTF-8" standalone="no"?>
<!DOCTYPE svg PUBLIC "-//W3C//DTD SVG 1.1//EN"
 "http://www.w3.org/Graphics/SVG/1.1/DTD/svg11.dtd">
<!-- Generated by graphviz version 2.47.0 (20210316.0004)
 -->
<!-- Title: G Pages: 1 -->
<svg width="581pt" height="416pt"
 viewBox="0.00 0.00 580.72 415.81" xmlns="http://www.w3.org/2000/svg" xmlns:xlink="http://www.w3.org/1999/xlink">
<g id="graph0" class="graph" transform="scale(1 1) rotate(0) translate(4 411.81)">
<title>G</title>
<polygon fill="white" stroke="transparent" points="-4,4 -4,-411.81 576.72,-411.81 576.72,4 -4,4"/>
<!-- BB0 -->
<g id="node1" class="node">
<title>BB0</title>
<ellipse fill="none" stroke="black" cx="334.36" cy="-370.34" rx="105.22" ry="37.45"/>
<text text-anchor="middle" x="334.36" y="-381.64" font-family="Times New Roman,serif" font-size="14.00">[0..4)</text>
<text text-anchor="middle" x="334.36" y="-366.64" font-family="Times New Roman,serif" font-size="14.00">Normalized Count: 1.00</text>
<text text-anchor="middle" x="334.36" y="-351.64" font-family="Times New Roman,serif" font-size="14.00">Samples weight: 0.06</text>
</g>
<!-- BB4 -->
<g id="node5" class="node">
<title>BB4</title>
<ellipse fill="none" stroke="black" cx="334.36" cy="-259.38" rx="105.22" ry="37.45"/>
<text text-anchor="middle" x="334.36" y="-270.68" font-family="Times New Roman,serif" font-size="14.00">[2a..2e)</text>
<text text-anchor="middle" x="334.36" y="-255.68" font-family="Times New Roman,serif" font-size="14.00">Normalized Count: 5.00</text>
<text text-anchor="middle" x="334.36" y="-240.68" font-family="Times New Roman,serif" font-size="14.00">Samples weight: 0.32</text>
</g>
<!-- BB0&#45;&gt;BB4 -->
<g id="edge1" class="edge">
<title>BB0&#45;&gt;BB4</title>
<path fill="none" stroke="black" d="M334.36,-332.75C334.36,-324.58 334.36,-315.8 334.36,-307.27"/>
<polygon fill="black" stroke="black" points="337.86,-307.06 334.36,-297.06 330.86,-307.06 337.86,-307.06"/>
</g>
<!-- BB1 -->
<g id="node2" class="node">
<title>BB1</title>
<ellipse fill="none" stroke="black" cx="201.36" cy="-148.43" rx="105.22" ry="37.45"/>
<text text-anchor="middle" x="201.36" y="-159.73" font-family="Times New Roman,serif" font-size="14.00">[4..19)</text>
<text text-anchor="middle" x="201.36" y="-144.73" font-family="Times New Roman,serif" font-size="14.00">Normalized Count: 4.00</text>
<text text-anchor="middle" x="201.36" y="-129.73" font-family="Times New Roman,serif" font-size="14.00">Samples weight: 0.26</text>
</g>
<!-- BB2 -->
<g id="node3" class="node">
<title>BB2</title>
<ellipse fill="none" stroke="black" cx="105.36" cy="-37.48" rx="105.22" ry="37.45"/>
<text text-anchor="middle" x="105.36" y="-48.78" font-family="Times New Roman,serif" font-size="14.00">[19..1e)</text>
<text text-anchor="middle" x="105.36" y="-33.78" font-family="Times New Roman,serif" font-size="14.00">Normalized Count: 0.52</text>
<text text-anchor="middle" x="105.36" y="-18.78" font-family="Times New Roman,serif" font-size="14.00">Samples weight: 0.03</text>
</g>
<!-- BB1&#45;&gt;BB2 -->
<g id="edge3" class="edge">
<title>BB1&#45;&gt;BB2</title>
<path fill="none" stroke="black" d="M170.46,-112.36C161.72,-102.44 152.12,-91.54 143.03,-81.23"/>
<polygon fill="black" stroke="black" points="145.44,-78.67 136.2,-73.48 140.19,-83.3 145.44,-78.67"/>
</g>
<!-- BB3 -->
<g id="node4" class="node">
<title>BB3</title>
<ellipse fill="none" stroke="black" cx="334.36" cy="-37.48" rx="105.22" ry="37.45"/>
<text text-anchor="middle" x="334.36" y="-48.78" font-family="Times New Roman,serif" font-size="14.00">[1e..2a)</text>
<text text-anchor="middle" x="334.36" y="-33.78" font-family="Times New Roman,serif" font-size="14.00">Normalized Count: 4.00</text>
<text text-anchor="middle" x="334.36" y="-18.78" font-family="Times New Roman,serif" font-size="14.00">Samples weight: 0.26</text>
</g>
<!-- BB1&#45;&gt;BB3 -->
<g id="edge2" class="edge">
<title>BB1&#45;&gt;BB3</title>
<path fill="none" stroke="black" d="M242.35,-113.85C256,-102.67 271.34,-90.1 285.53,-78.48"/>
<polygon fill="black" stroke="black" points="287.76,-81.18 293.28,-72.13 283.32,-75.76 287.76,-81.18"/>
</g>
<!-- BB2&#45;&gt;BB3 -->
<g id="edge4" class="edge">
<title>BB2&#45;&gt;BB3</title>
<path fill="none" stroke="black" d="M210.91,-37.48C213.52,-37.48 216.12,-37.48 218.72,-37.48"/>
<polygon fill="black" stroke="black" points="218.76,-40.98 228.76,-37.48 218.76,-33.98 218.76,-40.98"/>
</g>
<!-- BB3&#45;&gt;BB4 -->
<g id="edge5" class="edge">
<title>BB3&#45;&gt;BB4</title>
<path fill="none" stroke="black" d="M334.36,-75.04C334.36,-112.4 334.36,-170.57 334.36,-211.35"/>
<polygon fill="black" stroke="black" points="330.86,-211.58 334.36,-221.58 337.86,-211.58 330.86,-211.58"/>
</g>
<!-- BB4&#45;&gt;BB1 -->
<g id="edge6" class="edge">
<title>BB4&#45;&gt;BB1</title>
<path fill="none" stroke="black" d="M293.37,-224.8C279.72,-213.62 264.37,-201.05 250.19,-189.43"/>
<polygon fill="black" stroke="black" points="252.4,-186.71 242.44,-183.09 247.96,-192.13 252.4,-186.71"/>
</g>
<!-- BB5 -->
<g id="node6" class="node">
<title>BB5</title>
<ellipse fill="none" stroke="black" cx="467.36" cy="-148.43" rx="105.22" ry="37.45"/>
<text text-anchor="middle" x="467.36" y="-159.73" font-family="Times New Roman,serif" font-size="14.00">[2e..2f)</text>
<text text-anchor="middle" x="467.36" y="-144.73" font-family="Times New Roman,serif" font-size="14.00">Normalized Count: 1.00</text>
<text text-anchor="middle" x="467.36" y="-129.73" font-family="Times New Roman,serif" font-size="14.00">Samples weight: 0.06</text>
</g>
<!-- BB4&#45;&gt;BB5 -->
<g id="edge7" class="edge">
<title>BB4&#45;&gt;BB5</title>
<path fill="none" stroke="black" d="M375.35,-224.8C389,-213.62 404.34,-201.05 418.53,-189.43"/>
<polygon fill="black" stroke="black" points="420.76,-192.13 426.28,-183.09 416.32,-186.71 420.76,-192.13"/>
</g>
</g>
</svg>
