<?xml version="1.0" encoding="UTF-8" standalone="no"?>
<!DOCTYPE svg PUBLIC "-//W3C//DTD SVG 1.1//EN"
 "http://www.w3.org/Graphics/SVG/1.1/DTD/svg11.dtd">
<!-- Generated by graphviz version 2.47.0 (20210316.0004)
 -->
<!-- Title: G Pages: 1 -->
<svg width="438pt" height="501pt"
 viewBox="0.00 0.00 438.48 500.67" xmlns="http://www.w3.org/2000/svg" xmlns:xlink="http://www.w3.org/1999/xlink">
<g id="graph0" class="graph" transform="scale(1 1) rotate(0) translate(4 496.67)">
<title>G</title>
<polygon fill="white" stroke="transparent" points="-4,4 -4,-496.67 434.48,-496.67 434.48,4 -4,4"/>
<!-- BB0 -->
<g id="node1" class="node">
<title>BB0</title>
<ellipse fill="none" stroke="black" cx="215.24" cy="-444.58" rx="103.48" ry="48.17"/>
<text text-anchor="middle" x="215.24" y="-463.38" font-family="Times New Roman,serif" font-size="14.00">[0..9)</text>
<text text-anchor="middle" x="215.24" y="-448.38" font-family="Times New Roman,serif" font-size="14.00">Count: 1052</text>
<text text-anchor="middle" x="215.24" y="-433.38" font-family="Times New Roman,serif" font-size="14.00">Normalized count: 1.00</text>
<text text-anchor="middle" x="215.24" y="-418.38" font-family="Times New Roman,serif" font-size="14.00">Samples weight: 0.28</text>
</g>
<!-- BB1 -->
<g id="node2" class="node">
<title>BB1</title>
<ellipse fill="none" stroke="black" cx="103.24" cy="-312.42" rx="103.48" ry="48.17"/>
<text text-anchor="middle" x="103.24" y="-331.22" font-family="Times New Roman,serif" font-size="14.00">[9..12)</text>
<text text-anchor="middle" x="103.24" y="-316.22" font-family="Times New Roman,serif" font-size="14.00">Count: 0</text>
<text text-anchor="middle" x="103.24" y="-301.22" font-family="Times New Roman,serif" font-size="14.00">Normalized count: 0.00</text>
<text text-anchor="middle" x="103.24" y="-286.22" font-family="Times New Roman,serif" font-size="14.00">Samples weight: 0.00</text>
</g>
<!-- BB0&#45;&gt;BB1 -->
<g id="edge2" class="edge">
<title>BB0&#45;&gt;BB1</title>
<path fill="none" stroke="black" d="M177.32,-399.51C167.83,-388.49 157.57,-376.56 147.79,-365.2"/>
<polygon fill="black" stroke="black" points="150.29,-362.74 141.12,-357.44 144.99,-367.3 150.29,-362.74"/>
</g>
<!-- BB2 -->
<g id="node3" class="node">
<title>BB2</title>
<ellipse fill="none" stroke="black" cx="327.24" cy="-312.42" rx="103.48" ry="48.17"/>
<text text-anchor="middle" x="327.24" y="-331.22" font-family="Times New Roman,serif" font-size="14.00">[12..25)</text>
<text text-anchor="middle" x="327.24" y="-316.22" font-family="Times New Roman,serif" font-size="14.00">Count: 1052</text>
<text text-anchor="middle" x="327.24" y="-301.22" font-family="Times New Roman,serif" font-size="14.00">Normalized count: 1.00</text>
<text text-anchor="middle" x="327.24" y="-286.22" font-family="Times New Roman,serif" font-size="14.00">Samples weight: 0.28</text>
</g>
<!-- BB0&#45;&gt;BB2 -->
<g id="edge1" class="edge">
<title>BB0&#45;&gt;BB2</title>
<path fill="none" stroke="black" d="M253.16,-399.51C262.64,-388.49 272.91,-376.56 282.68,-365.2"/>
<polygon fill="black" stroke="black" points="285.49,-367.3 289.36,-357.44 280.18,-362.74 285.49,-367.3"/>
</g>
<!-- BB1&#45;&gt;BB2 -->
<g id="edge4" class="edge">
<title>BB1&#45;&gt;BB2</title>
<path fill="none" stroke="black" d="M206.49,-312.42C208.94,-312.42 211.4,-312.42 213.85,-312.42"/>
<polygon fill="black" stroke="black" points="213.94,-315.92 223.94,-312.42 213.94,-308.92 213.94,-315.92"/>
</g>
<!-- BB5 -->
<g id="node6" class="node">
<title>BB5</title>
<ellipse fill="none" stroke="black" cx="327.24" cy="-180.25" rx="103.48" ry="48.17"/>
<text text-anchor="middle" x="327.24" y="-199.05" font-family="Times New Roman,serif" font-size="14.00">[54..55)</text>
<text text-anchor="middle" x="327.24" y="-184.05" font-family="Times New Roman,serif" font-size="14.00">Count: 1052</text>
<text text-anchor="middle" x="327.24" y="-169.05" font-family="Times New Roman,serif" font-size="14.00">Normalized count: 1.00</text>
<text text-anchor="middle" x="327.24" y="-154.05" font-family="Times New Roman,serif" font-size="14.00">Samples weight: 0.28</text>
</g>
<!-- BB1&#45;&gt;BB5 -->
<g id="edge3" class="edge">
<title>BB1&#45;&gt;BB5</title>
<path fill="none" stroke="black" d="M166.83,-274.46C194.26,-258.52 226.48,-239.8 254.83,-223.33"/>
<polygon fill="black" stroke="black" points="256.6,-226.35 263.49,-218.29 253.08,-220.29 256.6,-226.35"/>
</g>
<!-- BB3 -->
<g id="node4" class="node">
<title>BB3</title>
<ellipse fill="none" stroke="black" cx="103.24" cy="-180.25" rx="103.48" ry="48.17"/>
<text text-anchor="middle" x="103.24" y="-199.05" font-family="Times New Roman,serif" font-size="14.00">[25..48)</text>
<text text-anchor="middle" x="103.24" y="-184.05" font-family="Times New Roman,serif" font-size="14.00">Count: 596</text>
<text text-anchor="middle" x="103.24" y="-169.05" font-family="Times New Roman,serif" font-size="14.00">Normalized count: 0.57</text>
<text text-anchor="middle" x="103.24" y="-154.05" font-family="Times New Roman,serif" font-size="14.00">Samples weight: 0.16</text>
</g>
<!-- BB2&#45;&gt;BB3 -->
<g id="edge6" class="edge">
<title>BB2&#45;&gt;BB3</title>
<path fill="none" stroke="black" d="M263.65,-274.46C236.22,-258.52 203.99,-239.8 175.65,-223.33"/>
<polygon fill="black" stroke="black" points="177.39,-220.29 166.99,-218.29 173.87,-226.35 177.39,-220.29"/>
</g>
<!-- BB2&#45;&gt;BB5 -->
<g id="edge5" class="edge">
<title>BB2&#45;&gt;BB5</title>
<path fill="none" stroke="black" d="M327.24,-264.05C327.24,-255.79 327.24,-247.1 327.24,-238.6"/>
<polygon fill="black" stroke="black" points="330.74,-238.36 327.24,-228.36 323.74,-238.36 330.74,-238.36"/>
</g>
<!-- BB4 -->
<g id="node5" class="node">
<title>BB4</title>
<ellipse fill="none" stroke="black" cx="215.24" cy="-48.08" rx="103.48" ry="48.17"/>
<text text-anchor="middle" x="215.24" y="-66.88" font-family="Times New Roman,serif" font-size="14.00">[48..54)</text>
<text text-anchor="middle" x="215.24" y="-51.88" font-family="Times New Roman,serif" font-size="14.00">Count: 0</text>
<text text-anchor="middle" x="215.24" y="-36.88" font-family="Times New Roman,serif" font-size="14.00">Normalized count: 0.00</text>
<text text-anchor="middle" x="215.24" y="-21.88" font-family="Times New Roman,serif" font-size="14.00">Samples weight: 0.00</text>
</g>
<!-- BB3&#45;&gt;BB4 -->
<g id="edge8" class="edge">
<title>BB3&#45;&gt;BB4</title>
<path fill="none" stroke="black" d="M141.16,-135.18C150.64,-124.16 160.91,-112.23 170.68,-100.86"/>
<polygon fill="black" stroke="black" points="173.49,-102.97 177.36,-93.11 168.18,-98.4 173.49,-102.97"/>
</g>
<!-- BB3&#45;&gt;BB5 -->
<g id="edge7" class="edge">
<title>BB3&#45;&gt;BB5</title>
<path fill="none" stroke="black" d="M206.49,-180.25C208.94,-180.25 211.4,-180.25 213.85,-180.25"/>
<polygon fill="black" stroke="black" points="213.94,-183.75 223.94,-180.25 213.94,-176.75 213.94,-183.75"/>
</g>
<!-- BB4&#45;&gt;BB5 -->
<g id="edge9" class="edge">
<title>BB4&#45;&gt;BB5</title>
<path fill="none" stroke="black" d="M253.12,-93.11C262.6,-104.13 272.86,-116.06 282.64,-127.42"/>
<polygon fill="black" stroke="black" points="280.14,-129.88 289.32,-135.18 285.45,-125.32 280.14,-129.88"/>
</g>
</g>
</svg>
