<?xml version="1.0" encoding="UTF-8" standalone="no"?>
<!DOCTYPE svg PUBLIC "-//W3C//DTD SVG 1.1//EN"
 "http://www.w3.org/Graphics/SVG/1.1/DTD/svg11.dtd">
<!-- Generated by graphviz version 2.47.0 (20210316.0004)
 -->
<!-- Title: G Pages: 1 -->
<svg width="2260pt" height="1690pt"
 viewBox="0.00 0.00 2260.30 1690.16" xmlns="http://www.w3.org/2000/svg" xmlns:xlink="http://www.w3.org/1999/xlink">
<g id="graph0" class="graph" transform="scale(1 1) rotate(0) translate(4 1686.16)">
<title>G</title>
<polygon fill="white" stroke="transparent" points="-4,4 -4,-1686.16 2256.3,-1686.16 2256.3,4 -4,4"/>
<!-- BB0 -->
<g id="node1" class="node">
<title>BB0</title>
<ellipse fill="none" stroke="black" cx="1125.65" cy="-1634.08" rx="104.8" ry="48.17"/>
<text text-anchor="middle" x="1125.65" y="-1652.88" font-family="Times New Roman,serif" font-size="14.00">[0..87)</text>
<text text-anchor="middle" x="1125.65" y="-1637.88" font-family="Times New Roman,serif" font-size="14.00">Count: 0</text>
<text text-anchor="middle" x="1125.65" y="-1622.88" font-family="Times New Roman,serif" font-size="14.00">Normalized count: NaN</text>
<text text-anchor="middle" x="1125.65" y="-1607.88" font-family="Times New Roman,serif" font-size="14.00">Samples weight: 0.00</text>
</g>
<!-- BB1 -->
<g id="node2" class="node">
<title>BB1</title>
<ellipse fill="none" stroke="black" cx="1693.65" cy="-1501.92" rx="104.8" ry="48.17"/>
<text text-anchor="middle" x="1693.65" y="-1520.72" font-family="Times New Roman,serif" font-size="14.00">[87..8c)</text>
<text text-anchor="middle" x="1693.65" y="-1505.72" font-family="Times New Roman,serif" font-size="14.00">Count: 0</text>
<text text-anchor="middle" x="1693.65" y="-1490.72" font-family="Times New Roman,serif" font-size="14.00">Normalized count: NaN</text>
<text text-anchor="middle" x="1693.65" y="-1475.72" font-family="Times New Roman,serif" font-size="14.00">Samples weight: 0.00</text>
</g>
<!-- BB0&#45;&gt;BB1 -->
<g id="edge1" class="edge">
<title>BB0&#45;&gt;BB1</title>
<path fill="none" stroke="black" d="M1226.51,-1620.98C1319.68,-1608.32 1461.3,-1585.31 1580.65,-1550 1590.46,-1547.1 1600.57,-1543.62 1610.53,-1539.89"/>
<polygon fill="black" stroke="black" points="1611.93,-1543.1 1620.01,-1536.25 1609.42,-1536.57 1611.93,-1543.1"/>
</g>
<!-- BB2 -->
<g id="node3" class="node">
<title>BB2</title>
<ellipse fill="none" stroke="black" cx="1920.65" cy="-1501.92" rx="104.8" ry="48.17"/>
<text text-anchor="middle" x="1920.65" y="-1520.72" font-family="Times New Roman,serif" font-size="14.00">[8c..97)</text>
<text text-anchor="middle" x="1920.65" y="-1505.72" font-family="Times New Roman,serif" font-size="14.00">Count: 0</text>
<text text-anchor="middle" x="1920.65" y="-1490.72" font-family="Times New Roman,serif" font-size="14.00">Normalized count: NaN</text>
<text text-anchor="middle" x="1920.65" y="-1475.72" font-family="Times New Roman,serif" font-size="14.00">Samples weight: 0.00</text>
</g>
<!-- BB0&#45;&gt;BB2 -->
<g id="edge2" class="edge">
<title>BB0&#45;&gt;BB2</title>
<path fill="none" stroke="black" d="M1229.85,-1629.22C1365.07,-1622.22 1607.41,-1602.84 1807.65,-1550 1817.7,-1547.35 1828.02,-1543.99 1838.16,-1540.3"/>
<polygon fill="black" stroke="black" points="1839.68,-1543.47 1847.81,-1536.67 1837.22,-1536.92 1839.68,-1543.47"/>
</g>
<!-- BB3 -->
<g id="node4" class="node">
<title>BB3</title>
<ellipse fill="none" stroke="black" cx="104.65" cy="-1501.92" rx="104.8" ry="48.17"/>
<text text-anchor="middle" x="104.65" y="-1520.72" font-family="Times New Roman,serif" font-size="14.00">[97..a4)</text>
<text text-anchor="middle" x="104.65" y="-1505.72" font-family="Times New Roman,serif" font-size="14.00">Count: 0</text>
<text text-anchor="middle" x="104.65" y="-1490.72" font-family="Times New Roman,serif" font-size="14.00">Normalized count: NaN</text>
<text text-anchor="middle" x="104.65" y="-1475.72" font-family="Times New Roman,serif" font-size="14.00">Samples weight: 0.00</text>
</g>
<!-- BB0&#45;&gt;BB3 -->
<g id="edge3" class="edge">
<title>BB0&#45;&gt;BB3</title>
<path fill="none" stroke="black" d="M1020.8,-1633.72C849.98,-1632.49 502.09,-1620.52 217.65,-1550 207.31,-1547.43 196.68,-1544.07 186.28,-1540.31"/>
<polygon fill="black" stroke="black" points="187.39,-1536.99 176.8,-1536.76 184.94,-1543.55 187.39,-1536.99"/>
</g>
<!-- BB5 -->
<g id="node6" class="node">
<title>BB5</title>
<ellipse fill="none" stroke="black" cx="1466.65" cy="-1501.92" rx="104.8" ry="48.17"/>
<text text-anchor="middle" x="1466.65" y="-1520.72" font-family="Times New Roman,serif" font-size="14.00">[af..c8)</text>
<text text-anchor="middle" x="1466.65" y="-1505.72" font-family="Times New Roman,serif" font-size="14.00">Count: 0</text>
<text text-anchor="middle" x="1466.65" y="-1490.72" font-family="Times New Roman,serif" font-size="14.00">Normalized count: NaN</text>
<text text-anchor="middle" x="1466.65" y="-1475.72" font-family="Times New Roman,serif" font-size="14.00">Samples weight: 0.00</text>
</g>
<!-- BB0&#45;&gt;BB5 -->
<g id="edge4" class="edge">
<title>BB0&#45;&gt;BB5</title>
<path fill="none" stroke="black" d="M1207.77,-1604.17C1251.3,-1588.59 1305.58,-1568.76 1353.65,-1550 1362.64,-1546.49 1371.98,-1542.75 1381.29,-1538.96"/>
<polygon fill="black" stroke="black" points="1382.63,-1542.2 1390.56,-1535.17 1379.98,-1535.72 1382.63,-1542.2"/>
</g>
<!-- BB6 -->
<g id="node7" class="node">
<title>BB6</title>
<ellipse fill="none" stroke="black" cx="331.65" cy="-1501.92" rx="104.8" ry="48.17"/>
<text text-anchor="middle" x="331.65" y="-1520.72" font-family="Times New Roman,serif" font-size="14.00">[c8..d5)</text>
<text text-anchor="middle" x="331.65" y="-1505.72" font-family="Times New Roman,serif" font-size="14.00">Count: 0</text>
<text text-anchor="middle" x="331.65" y="-1490.72" font-family="Times New Roman,serif" font-size="14.00">Normalized count: NaN</text>
<text text-anchor="middle" x="331.65" y="-1475.72" font-family="Times New Roman,serif" font-size="14.00">Samples weight: 0.00</text>
</g>
<!-- BB0&#45;&gt;BB6 -->
<g id="edge6" class="edge">
<title>BB0&#45;&gt;BB6</title>
<path fill="none" stroke="black" d="M1021.31,-1629.19C886.23,-1622.16 644.46,-1602.74 444.65,-1550 434.61,-1547.35 424.28,-1543.99 414.14,-1540.3"/>
<polygon fill="black" stroke="black" points="415.09,-1536.91 404.5,-1536.66 412.62,-1543.46 415.09,-1536.91"/>
</g>
<!-- BB8 -->
<g id="node9" class="node">
<title>BB8</title>
<ellipse fill="none" stroke="black" cx="1239.65" cy="-1501.92" rx="104.8" ry="48.17"/>
<text text-anchor="middle" x="1239.65" y="-1520.72" font-family="Times New Roman,serif" font-size="14.00">[e0..100)</text>
<text text-anchor="middle" x="1239.65" y="-1505.72" font-family="Times New Roman,serif" font-size="14.00">Count: 0</text>
<text text-anchor="middle" x="1239.65" y="-1490.72" font-family="Times New Roman,serif" font-size="14.00">Normalized count: NaN</text>
<text text-anchor="middle" x="1239.65" y="-1475.72" font-family="Times New Roman,serif" font-size="14.00">Samples weight: 0.00</text>
</g>
<!-- BB0&#45;&gt;BB8 -->
<g id="edge8" class="edge">
<title>BB0&#45;&gt;BB8</title>
<path fill="none" stroke="black" d="M1164.25,-1589.01C1173.9,-1577.99 1184.35,-1566.06 1194.3,-1554.7"/>
<polygon fill="black" stroke="black" points="1197.14,-1556.77 1201.1,-1546.94 1191.87,-1552.15 1197.14,-1556.77"/>
</g>
<!-- BB9 -->
<g id="node10" class="node">
<title>BB9</title>
<ellipse fill="none" stroke="black" cx="558.65" cy="-1501.92" rx="104.8" ry="48.17"/>
<text text-anchor="middle" x="558.65" y="-1520.72" font-family="Times New Roman,serif" font-size="14.00">[100..10c)</text>
<text text-anchor="middle" x="558.65" y="-1505.72" font-family="Times New Roman,serif" font-size="14.00">Count: 0</text>
<text text-anchor="middle" x="558.65" y="-1490.72" font-family="Times New Roman,serif" font-size="14.00">Normalized count: NaN</text>
<text text-anchor="middle" x="558.65" y="-1475.72" font-family="Times New Roman,serif" font-size="14.00">Samples weight: 0.00</text>
</g>
<!-- BB0&#45;&gt;BB9 -->
<g id="edge9" class="edge">
<title>BB0&#45;&gt;BB9</title>
<path fill="none" stroke="black" d="M1024.57,-1620.89C931.6,-1608.21 790.55,-1585.21 671.65,-1550 661.85,-1547.09 651.73,-1543.62 641.78,-1539.89"/>
<polygon fill="black" stroke="black" points="642.88,-1536.56 632.29,-1536.24 640.37,-1543.1 642.88,-1536.56"/>
</g>
<!-- BB10 -->
<g id="node11" class="node">
<title>BB10</title>
<ellipse fill="none" stroke="black" cx="785.65" cy="-1501.92" rx="104.8" ry="48.17"/>
<text text-anchor="middle" x="785.65" y="-1520.72" font-family="Times New Roman,serif" font-size="14.00">[10c..118)</text>
<text text-anchor="middle" x="785.65" y="-1505.72" font-family="Times New Roman,serif" font-size="14.00">Count: 0</text>
<text text-anchor="middle" x="785.65" y="-1490.72" font-family="Times New Roman,serif" font-size="14.00">Normalized count: NaN</text>
<text text-anchor="middle" x="785.65" y="-1475.72" font-family="Times New Roman,serif" font-size="14.00">Samples weight: 0.00</text>
</g>
<!-- BB0&#45;&gt;BB10 -->
<g id="edge5" class="edge">
<title>BB0&#45;&gt;BB10</title>
<path fill="none" stroke="black" d="M1043.64,-1604.05C1000.34,-1588.47 946.43,-1568.69 898.65,-1550 889.67,-1546.49 880.32,-1542.74 871.02,-1538.95"/>
<polygon fill="black" stroke="black" points="872.33,-1535.71 861.75,-1535.16 869.68,-1542.18 872.33,-1535.71"/>
</g>
<!-- BB11 -->
<g id="node12" class="node">
<title>BB11</title>
<ellipse fill="none" stroke="black" cx="2147.65" cy="-1501.92" rx="104.8" ry="48.17"/>
<text text-anchor="middle" x="2147.65" y="-1520.72" font-family="Times New Roman,serif" font-size="14.00">[118..135)</text>
<text text-anchor="middle" x="2147.65" y="-1505.72" font-family="Times New Roman,serif" font-size="14.00">Count: 0</text>
<text text-anchor="middle" x="2147.65" y="-1490.72" font-family="Times New Roman,serif" font-size="14.00">Normalized count: NaN</text>
<text text-anchor="middle" x="2147.65" y="-1475.72" font-family="Times New Roman,serif" font-size="14.00">Samples weight: 0.00</text>
</g>
<!-- BB0&#45;&gt;BB11 -->
<g id="edge7" class="edge">
<title>BB0&#45;&gt;BB11</title>
<path fill="none" stroke="black" d="M1230.62,-1633.73C1401.63,-1632.53 1749.9,-1620.58 2034.65,-1550 2045,-1547.43 2055.62,-1544.07 2066.03,-1540.31"/>
<polygon fill="black" stroke="black" points="2067.37,-1543.55 2075.5,-1536.77 2064.91,-1536.99 2067.37,-1543.55"/>
</g>
<!-- BB35 -->
<g id="node36" class="node">
<title>BB35</title>
<ellipse fill="none" stroke="black" cx="1012.65" cy="-1501.92" rx="104.8" ry="48.17"/>
<text text-anchor="middle" x="1012.65" y="-1520.72" font-family="Times New Roman,serif" font-size="14.00">[269..272)</text>
<text text-anchor="middle" x="1012.65" y="-1505.72" font-family="Times New Roman,serif" font-size="14.00">Count: 0</text>
<text text-anchor="middle" x="1012.65" y="-1490.72" font-family="Times New Roman,serif" font-size="14.00">Normalized count: NaN</text>
<text text-anchor="middle" x="1012.65" y="-1475.72" font-family="Times New Roman,serif" font-size="14.00">Samples weight: 0.00</text>
</g>
<!-- BB0&#45;&gt;BB35 -->
<g id="edge10" class="edge">
<title>BB0&#45;&gt;BB35</title>
<path fill="none" stroke="black" d="M1087.4,-1589.01C1077.82,-1577.99 1067.47,-1566.06 1057.6,-1554.7"/>
<polygon fill="black" stroke="black" points="1060.07,-1552.2 1050.87,-1546.94 1054.78,-1556.78 1060.07,-1552.2"/>
</g>
<!-- BB36 -->
<g id="node37" class="node">
<title>BB36</title>
<ellipse fill="none" stroke="black" cx="1239.65" cy="-1369.75" rx="104.8" ry="48.17"/>
<text text-anchor="middle" x="1239.65" y="-1388.55" font-family="Times New Roman,serif" font-size="14.00">[272..279)</text>
<text text-anchor="middle" x="1239.65" y="-1373.55" font-family="Times New Roman,serif" font-size="14.00">Count: 0</text>
<text text-anchor="middle" x="1239.65" y="-1358.55" font-family="Times New Roman,serif" font-size="14.00">Normalized count: NaN</text>
<text text-anchor="middle" x="1239.65" y="-1343.55" font-family="Times New Roman,serif" font-size="14.00">Samples weight: 0.00</text>
</g>
<!-- BB1&#45;&gt;BB36 -->
<g id="edge11" class="edge">
<title>BB1&#45;&gt;BB36</title>
<path fill="none" stroke="black" d="M1619.23,-1467.89C1606.49,-1462.82 1593.29,-1457.92 1580.65,-1453.83 1514.19,-1432.33 1495.54,-1434.32 1427.65,-1417.83 1399.28,-1410.94 1368.54,-1403.31 1340.31,-1396.24"/>
<polygon fill="black" stroke="black" points="1340.98,-1392.8 1330.43,-1393.76 1339.28,-1399.59 1340.98,-1392.8"/>
</g>
<!-- BB2&#45;&gt;BB36 -->
<g id="edge12" class="edge">
<title>BB2&#45;&gt;BB36</title>
<path fill="none" stroke="black" d="M1848.19,-1466.98C1834.94,-1461.86 1821.05,-1457.18 1807.65,-1453.83 1643.06,-1412.75 1594.85,-1446.52 1427.65,-1417.83 1398.28,-1412.79 1366.74,-1405.61 1338.03,-1398.36"/>
<polygon fill="black" stroke="black" points="1338.56,-1394.88 1328.01,-1395.8 1336.83,-1401.66 1338.56,-1394.88"/>
</g>
<!-- BB4 -->
<g id="node5" class="node">
<title>BB4</title>
<ellipse fill="none" stroke="black" cx="275.65" cy="-1369.75" rx="104.8" ry="48.17"/>
<text text-anchor="middle" x="275.65" y="-1388.55" font-family="Times New Roman,serif" font-size="14.00">[a4..af)</text>
<text text-anchor="middle" x="275.65" y="-1373.55" font-family="Times New Roman,serif" font-size="14.00">Count: 0</text>
<text text-anchor="middle" x="275.65" y="-1358.55" font-family="Times New Roman,serif" font-size="14.00">Normalized count: NaN</text>
<text text-anchor="middle" x="275.65" y="-1343.55" font-family="Times New Roman,serif" font-size="14.00">Samples weight: 0.00</text>
</g>
<!-- BB3&#45;&gt;BB4 -->
<g id="edge14" class="edge">
<title>BB3&#45;&gt;BB4</title>
<path fill="none" stroke="black" d="M157.82,-1460.44C175.67,-1446.85 195.73,-1431.58 214.17,-1417.55"/>
<polygon fill="black" stroke="black" points="216.68,-1420.04 222.52,-1411.2 212.44,-1414.47 216.68,-1420.04"/>
</g>
<!-- BB3&#45;&gt;BB5 -->
<g id="edge13" class="edge">
<title>BB3&#45;&gt;BB5</title>
<path fill="none" stroke="black" d="M163.95,-1541.65C183.13,-1552.38 205.05,-1562.52 226.65,-1568 286.86,-1583.26 1284.44,-1583.26 1344.65,-1568 1362.88,-1563.38 1381.33,-1555.44 1398.17,-1546.62"/>
<polygon fill="black" stroke="black" points="1400.23,-1549.49 1407.36,-1541.65 1396.9,-1543.33 1400.23,-1549.49"/>
</g>
<!-- BB4&#45;&gt;BB36 -->
<g id="edge15" class="edge">
<title>BB4&#45;&gt;BB36</title>
<path fill="none" stroke="black" d="M369.23,-1391.33C499.14,-1418.46 741.44,-1458.87 947.65,-1435.83 1012.83,-1428.55 1084.69,-1412.39 1140.81,-1397.88"/>
<polygon fill="black" stroke="black" points="1141.96,-1401.2 1150.75,-1395.28 1140.19,-1394.42 1141.96,-1401.2"/>
</g>
<!-- BB5&#45;&gt;BB36 -->
<g id="edge16" class="edge">
<title>BB5&#45;&gt;BB36</title>
<path fill="none" stroke="black" d="M1402.21,-1463.96C1374.41,-1448.02 1341.76,-1429.3 1313.03,-1412.83"/>
<polygon fill="black" stroke="black" points="1314.67,-1409.73 1304.25,-1407.79 1311.19,-1415.8 1314.67,-1409.73"/>
</g>
<!-- BB7 -->
<g id="node8" class="node">
<title>BB7</title>
<ellipse fill="none" stroke="black" cx="842.65" cy="-1369.75" rx="104.8" ry="48.17"/>
<text text-anchor="middle" x="842.65" y="-1388.55" font-family="Times New Roman,serif" font-size="14.00">[d5..e0)</text>
<text text-anchor="middle" x="842.65" y="-1373.55" font-family="Times New Roman,serif" font-size="14.00">Count: 0</text>
<text text-anchor="middle" x="842.65" y="-1358.55" font-family="Times New Roman,serif" font-size="14.00">Normalized count: NaN</text>
<text text-anchor="middle" x="842.65" y="-1343.55" font-family="Times New Roman,serif" font-size="14.00">Samples weight: 0.00</text>
</g>
<!-- BB6&#45;&gt;BB7 -->
<g id="edge18" class="edge">
<title>BB6&#45;&gt;BB7</title>
<path fill="none" stroke="black" d="M405.68,-1467.74C418.52,-1462.66 431.86,-1457.79 444.65,-1453.83 540.68,-1424.1 653.03,-1401.73 733.83,-1387.74"/>
<polygon fill="black" stroke="black" points="734.76,-1391.13 744.02,-1385.99 733.57,-1384.24 734.76,-1391.13"/>
</g>
<!-- BB6&#45;&gt;BB8 -->
<g id="edge17" class="edge">
<title>BB6&#45;&gt;BB8</title>
<path fill="none" stroke="black" d="M390.95,-1541.65C410.13,-1552.38 432.05,-1562.52 453.65,-1568 525.17,-1586.12 1046.14,-1586.12 1117.65,-1568 1135.88,-1563.38 1154.33,-1555.44 1171.17,-1546.62"/>
<polygon fill="black" stroke="black" points="1173.23,-1549.49 1180.36,-1541.65 1169.9,-1543.33 1173.23,-1549.49"/>
</g>
<!-- BB7&#45;&gt;BB36 -->
<g id="edge19" class="edge">
<title>BB7&#45;&gt;BB36</title>
<path fill="none" stroke="black" d="M947.33,-1369.75C1006.43,-1369.75 1065.53,-1369.75 1124.63,-1369.75"/>
<polygon fill="black" stroke="black" points="1124.88,-1373.25 1134.88,-1369.75 1124.88,-1366.25 1124.88,-1373.25"/>
</g>
<!-- BB8&#45;&gt;BB36 -->
<g id="edge20" class="edge">
<title>BB8&#45;&gt;BB36</title>
<path fill="none" stroke="black" d="M1239.65,-1453.55C1239.65,-1445.29 1239.65,-1436.6 1239.65,-1428.1"/>
<polygon fill="black" stroke="black" points="1243.15,-1427.86 1239.65,-1417.86 1236.15,-1427.86 1243.15,-1427.86"/>
</g>
<!-- BB9&#45;&gt;BB36 -->
<g id="edge21" class="edge">
<title>BB9&#45;&gt;BB36</title>
<path fill="none" stroke="black" d="M631.51,-1467.21C644.66,-1462.1 658.41,-1457.36 671.65,-1453.83 795.03,-1420.98 830.32,-1436.31 956.65,-1417.83 1014.87,-1409.31 1079.63,-1398.63 1132.48,-1389.6"/>
<polygon fill="black" stroke="black" points="1133.28,-1393.01 1142.55,-1387.87 1132.1,-1386.11 1133.28,-1393.01"/>
</g>
<!-- BB10&#45;&gt;BB36 -->
<g id="edge22" class="edge">
<title>BB10&#45;&gt;BB36</title>
<path fill="none" stroke="black" d="M860.1,-1467.98C872.84,-1462.9 886.03,-1457.97 898.65,-1453.83 976.46,-1428.31 1066.55,-1406.69 1134.59,-1391.91"/>
<polygon fill="black" stroke="black" points="1135.42,-1395.31 1144.46,-1389.78 1133.95,-1388.46 1135.42,-1395.31"/>
</g>
<!-- BB12 -->
<g id="node13" class="node">
<title>BB12</title>
<ellipse fill="none" stroke="black" cx="1541.65" cy="-1369.75" rx="104.8" ry="48.17"/>
<text text-anchor="middle" x="1541.65" y="-1388.55" font-family="Times New Roman,serif" font-size="14.00">[135..142)</text>
<text text-anchor="middle" x="1541.65" y="-1373.55" font-family="Times New Roman,serif" font-size="14.00">Count: 0</text>
<text text-anchor="middle" x="1541.65" y="-1358.55" font-family="Times New Roman,serif" font-size="14.00">Normalized count: NaN</text>
<text text-anchor="middle" x="1541.65" y="-1343.55" font-family="Times New Roman,serif" font-size="14.00">Samples weight: 0.00</text>
</g>
<!-- BB11&#45;&gt;BB12 -->
<g id="edge24" class="edge">
<title>BB11&#45;&gt;BB12</title>
<path fill="none" stroke="black" d="M2074.36,-1467.55C2061.32,-1462.43 2047.72,-1457.6 2034.65,-1453.83 1906.66,-1416.91 1754.93,-1394.39 1653.94,-1382.28"/>
<polygon fill="black" stroke="black" points="1654.06,-1378.77 1643.72,-1381.07 1653.24,-1385.72 1654.06,-1378.77"/>
</g>
<!-- BB15 -->
<g id="node16" class="node">
<title>BB15</title>
<ellipse fill="none" stroke="black" cx="2004.65" cy="-1369.75" rx="104.8" ry="48.17"/>
<text text-anchor="middle" x="2004.65" y="-1388.55" font-family="Times New Roman,serif" font-size="14.00">[159..166)</text>
<text text-anchor="middle" x="2004.65" y="-1373.55" font-family="Times New Roman,serif" font-size="14.00">Count: 0</text>
<text text-anchor="middle" x="2004.65" y="-1358.55" font-family="Times New Roman,serif" font-size="14.00">Normalized count: NaN</text>
<text text-anchor="middle" x="2004.65" y="-1343.55" font-family="Times New Roman,serif" font-size="14.00">Samples weight: 0.00</text>
</g>
<!-- BB11&#45;&gt;BB15 -->
<g id="edge23" class="edge">
<title>BB11&#45;&gt;BB15</title>
<path fill="none" stroke="black" d="M2101.22,-1458.65C2087.74,-1446.38 2072.89,-1432.86 2058.96,-1420.19"/>
<polygon fill="black" stroke="black" points="2061.09,-1417.39 2051.34,-1413.24 2056.38,-1422.56 2061.09,-1417.39"/>
</g>
<!-- BB13 -->
<g id="node14" class="node">
<title>BB13</title>
<ellipse fill="none" stroke="black" cx="1305.65" cy="-1237.58" rx="104.8" ry="48.17"/>
<text text-anchor="middle" x="1305.65" y="-1256.38" font-family="Times New Roman,serif" font-size="14.00">[142..14d)</text>
<text text-anchor="middle" x="1305.65" y="-1241.38" font-family="Times New Roman,serif" font-size="14.00">Count: 0</text>
<text text-anchor="middle" x="1305.65" y="-1226.38" font-family="Times New Roman,serif" font-size="14.00">Normalized count: NaN</text>
<text text-anchor="middle" x="1305.65" y="-1211.38" font-family="Times New Roman,serif" font-size="14.00">Samples weight: 0.00</text>
</g>
<!-- BB12&#45;&gt;BB13 -->
<g id="edge26" class="edge">
<title>BB12&#45;&gt;BB13</title>
<path fill="none" stroke="black" d="M1475.6,-1332.32C1446.06,-1316.02 1411.1,-1296.74 1380.58,-1279.91"/>
<polygon fill="black" stroke="black" points="1382.14,-1276.77 1371.69,-1275 1378.75,-1282.9 1382.14,-1276.77"/>
</g>
<!-- BB14 -->
<g id="node15" class="node">
<title>BB14</title>
<ellipse fill="none" stroke="black" cx="1541.65" cy="-1237.58" rx="113.69" ry="48.17"/>
<text text-anchor="middle" x="1541.65" y="-1256.38" font-family="Times New Roman,serif" font-size="14.00">[14d..159)</text>
<text text-anchor="middle" x="1541.65" y="-1241.38" font-family="Times New Roman,serif" font-size="14.00">Count: 1</text>
<text text-anchor="middle" x="1541.65" y="-1226.38" font-family="Times New Roman,serif" font-size="14.00">Normalized count: Infinity</text>
<text text-anchor="middle" x="1541.65" y="-1211.38" font-family="Times New Roman,serif" font-size="14.00">Samples weight: 0.01</text>
</g>
<!-- BB12&#45;&gt;BB14 -->
<g id="edge25" class="edge">
<title>BB12&#45;&gt;BB14</title>
<path fill="none" stroke="black" d="M1541.65,-1321.39C1541.65,-1313.12 1541.65,-1304.44 1541.65,-1295.93"/>
<polygon fill="black" stroke="black" points="1545.15,-1295.69 1541.65,-1285.69 1538.15,-1295.69 1545.15,-1295.69"/>
</g>
<!-- BB13&#45;&gt;BB36 -->
<g id="edge27" class="edge">
<title>BB13&#45;&gt;BB36</title>
<path fill="none" stroke="black" d="M1282.37,-1284.5C1277.59,-1293.93 1272.51,-1303.95 1267.58,-1313.66"/>
<polygon fill="black" stroke="black" points="1264.32,-1312.35 1262.92,-1322.86 1270.56,-1315.52 1264.32,-1312.35"/>
</g>
<!-- BB14&#45;&gt;BB36 -->
<g id="edge28" class="edge">
<title>BB14&#45;&gt;BB36</title>
<path fill="none" stroke="black" d="M1462.97,-1272.49C1420.45,-1290.82 1367.92,-1313.46 1324.49,-1332.18"/>
<polygon fill="black" stroke="black" points="1322.88,-1329.07 1315.08,-1336.24 1325.65,-1335.49 1322.88,-1329.07"/>
</g>
<!-- BB16 -->
<g id="node17" class="node">
<title>BB16</title>
<ellipse fill="none" stroke="black" cx="1777.65" cy="-1237.58" rx="104.8" ry="48.17"/>
<text text-anchor="middle" x="1777.65" y="-1256.38" font-family="Times New Roman,serif" font-size="14.00">[166..172)</text>
<text text-anchor="middle" x="1777.65" y="-1241.38" font-family="Times New Roman,serif" font-size="14.00">Count: 0</text>
<text text-anchor="middle" x="1777.65" y="-1226.38" font-family="Times New Roman,serif" font-size="14.00">Normalized count: NaN</text>
<text text-anchor="middle" x="1777.65" y="-1211.38" font-family="Times New Roman,serif" font-size="14.00">Samples weight: 0.00</text>
</g>
<!-- BB15&#45;&gt;BB16 -->
<g id="edge30" class="edge">
<title>BB15&#45;&gt;BB16</title>
<path fill="none" stroke="black" d="M1940.21,-1331.8C1912.41,-1315.86 1879.76,-1297.13 1851.03,-1280.66"/>
<polygon fill="black" stroke="black" points="1852.67,-1277.56 1842.25,-1275.63 1849.19,-1283.64 1852.67,-1277.56"/>
</g>
<!-- BB17 -->
<g id="node18" class="node">
<title>BB17</title>
<ellipse fill="none" stroke="black" cx="2004.65" cy="-1237.58" rx="104.8" ry="48.17"/>
<text text-anchor="middle" x="2004.65" y="-1256.38" font-family="Times New Roman,serif" font-size="14.00">[172..1b0)</text>
<text text-anchor="middle" x="2004.65" y="-1241.38" font-family="Times New Roman,serif" font-size="14.00">Count: 0</text>
<text text-anchor="middle" x="2004.65" y="-1226.38" font-family="Times New Roman,serif" font-size="14.00">Normalized count: NaN</text>
<text text-anchor="middle" x="2004.65" y="-1211.38" font-family="Times New Roman,serif" font-size="14.00">Samples weight: 0.00</text>
</g>
<!-- BB15&#45;&gt;BB17 -->
<g id="edge29" class="edge">
<title>BB15&#45;&gt;BB17</title>
<path fill="none" stroke="black" d="M2004.65,-1321.39C2004.65,-1313.12 2004.65,-1304.44 2004.65,-1295.93"/>
<polygon fill="black" stroke="black" points="2008.15,-1295.69 2004.65,-1285.69 2001.15,-1295.69 2008.15,-1295.69"/>
</g>
<!-- BB16&#45;&gt;BB36 -->
<g id="edge31" class="edge">
<title>BB16&#45;&gt;BB36</title>
<path fill="none" stroke="black" d="M1704.41,-1272.12C1691.36,-1277.23 1677.75,-1282 1664.65,-1285.67 1562.05,-1314.37 1532.11,-1300.7 1427.65,-1321.67 1398.73,-1327.47 1367.57,-1334.82 1339.1,-1341.98"/>
<polygon fill="black" stroke="black" points="1337.98,-1338.65 1329.15,-1344.5 1339.7,-1345.43 1337.98,-1338.65"/>
</g>
<!-- BB19 -->
<g id="node20" class="node">
<title>BB19</title>
<ellipse fill="none" stroke="black" cx="1993.65" cy="-1105.42" rx="104.8" ry="48.17"/>
<text text-anchor="middle" x="1993.65" y="-1124.22" font-family="Times New Roman,serif" font-size="14.00">[1c1..1c5)</text>
<text text-anchor="middle" x="1993.65" y="-1109.22" font-family="Times New Roman,serif" font-size="14.00">Count: 0</text>
<text text-anchor="middle" x="1993.65" y="-1094.22" font-family="Times New Roman,serif" font-size="14.00">Normalized count: NaN</text>
<text text-anchor="middle" x="1993.65" y="-1079.22" font-family="Times New Roman,serif" font-size="14.00">Samples weight: 0.00</text>
</g>
<!-- BB17&#45;&gt;BB19 -->
<g id="edge32" class="edge">
<title>BB17&#45;&gt;BB19</title>
<path fill="none" stroke="black" d="M2000.65,-1189.22C1999.95,-1180.95 1999.22,-1172.27 1998.5,-1163.77"/>
<polygon fill="black" stroke="black" points="2001.96,-1163.19 1997.63,-1153.52 1994.99,-1163.78 2001.96,-1163.19"/>
</g>
<!-- BB18 -->
<g id="node19" class="node">
<title>BB18</title>
<ellipse fill="none" stroke="black" cx="1993.65" cy="-973.25" rx="113.69" ry="48.17"/>
<text text-anchor="middle" x="1993.65" y="-992.05" font-family="Times New Roman,serif" font-size="14.00">[1b0..1c1)</text>
<text text-anchor="middle" x="1993.65" y="-977.05" font-family="Times New Roman,serif" font-size="14.00">Count: 1</text>
<text text-anchor="middle" x="1993.65" y="-962.05" font-family="Times New Roman,serif" font-size="14.00">Normalized count: Infinity</text>
<text text-anchor="middle" x="1993.65" y="-947.05" font-family="Times New Roman,serif" font-size="14.00">Samples weight: 0.01</text>
</g>
<!-- BB18&#45;&gt;BB19 -->
<g id="edge33" class="edge">
<title>BB18&#45;&gt;BB19</title>
<path fill="none" stroke="black" d="M2000.17,-1021.61C2000.39,-1029.91 2000.45,-1038.62 2000.36,-1047.15"/>
<polygon fill="black" stroke="black" points="1996.85,-1047.36 2000.16,-1057.42 2003.85,-1047.49 1996.85,-1047.36"/>
</g>
<!-- BB19&#45;&gt;BB18 -->
<g id="edge34" class="edge">
<title>BB19&#45;&gt;BB18</title>
<path fill="none" stroke="black" d="M1987.14,-1057.42C1986.91,-1049.05 1986.85,-1040.24 1986.94,-1031.61"/>
<polygon fill="black" stroke="black" points="1990.44,-1031.67 1987.13,-1021.61 1983.44,-1031.54 1990.44,-1031.67"/>
</g>
<!-- BB20 -->
<g id="node21" class="node">
<title>BB20</title>
<ellipse fill="none" stroke="black" cx="1703.65" cy="-973.25" rx="113.69" ry="48.17"/>
<text text-anchor="middle" x="1703.65" y="-992.05" font-family="Times New Roman,serif" font-size="14.00">[1c5..1ca)</text>
<text text-anchor="middle" x="1703.65" y="-977.05" font-family="Times New Roman,serif" font-size="14.00">Count: 1</text>
<text text-anchor="middle" x="1703.65" y="-962.05" font-family="Times New Roman,serif" font-size="14.00">Normalized count: Infinity</text>
<text text-anchor="middle" x="1703.65" y="-947.05" font-family="Times New Roman,serif" font-size="14.00">Samples weight: 0.01</text>
</g>
<!-- BB19&#45;&gt;BB20 -->
<g id="edge35" class="edge">
<title>BB19&#45;&gt;BB20</title>
<path fill="none" stroke="black" d="M1919.72,-1071.23C1880.09,-1053.45 1831.06,-1031.44 1789.72,-1012.88"/>
<polygon fill="black" stroke="black" points="1791.04,-1009.64 1780.48,-1008.73 1788.17,-1016.02 1791.04,-1009.64"/>
</g>
<!-- BB33 -->
<g id="node34" class="node">
<title>BB33</title>
<ellipse fill="none" stroke="black" cx="1681.65" cy="-841.08" rx="113.69" ry="48.17"/>
<text text-anchor="middle" x="1681.65" y="-859.88" font-family="Times New Roman,serif" font-size="14.00">[254..267)</text>
<text text-anchor="middle" x="1681.65" y="-844.88" font-family="Times New Roman,serif" font-size="14.00">Count: 5</text>
<text text-anchor="middle" x="1681.65" y="-829.88" font-family="Times New Roman,serif" font-size="14.00">Normalized count: Infinity</text>
<text text-anchor="middle" x="1681.65" y="-814.88" font-family="Times New Roman,serif" font-size="14.00">Samples weight: 0.05</text>
</g>
<!-- BB20&#45;&gt;BB33 -->
<g id="edge36" class="edge">
<title>BB20&#45;&gt;BB33</title>
<path fill="none" stroke="black" d="M1695.71,-925.26C1694.29,-916.88 1692.81,-908.07 1691.35,-899.45"/>
<polygon fill="black" stroke="black" points="1694.77,-898.72 1689.66,-889.44 1687.87,-899.89 1694.77,-898.72"/>
</g>
<!-- BB21 -->
<g id="node22" class="node">
<title>BB21</title>
<ellipse fill="none" stroke="black" cx="1670.65" cy="-708.92" rx="113.69" ry="48.17"/>
<text text-anchor="middle" x="1670.65" y="-727.72" font-family="Times New Roman,serif" font-size="14.00">[1ca..1e5)</text>
<text text-anchor="middle" x="1670.65" y="-712.72" font-family="Times New Roman,serif" font-size="14.00">Count: 45</text>
<text text-anchor="middle" x="1670.65" y="-697.72" font-family="Times New Roman,serif" font-size="14.00">Normalized count: Infinity</text>
<text text-anchor="middle" x="1670.65" y="-682.72" font-family="Times New Roman,serif" font-size="14.00">Samples weight: 0.43</text>
</g>
<!-- BB22 -->
<g id="node23" class="node">
<title>BB22</title>
<ellipse fill="none" stroke="black" cx="1434.65" cy="-576.75" rx="104.8" ry="48.17"/>
<text text-anchor="middle" x="1434.65" y="-595.55" font-family="Times New Roman,serif" font-size="14.00">[1e5..1e9)</text>
<text text-anchor="middle" x="1434.65" y="-580.55" font-family="Times New Roman,serif" font-size="14.00">Count: 0</text>
<text text-anchor="middle" x="1434.65" y="-565.55" font-family="Times New Roman,serif" font-size="14.00">Normalized count: NaN</text>
<text text-anchor="middle" x="1434.65" y="-550.55" font-family="Times New Roman,serif" font-size="14.00">Samples weight: 0.00</text>
</g>
<!-- BB21&#45;&gt;BB22 -->
<g id="edge38" class="edge">
<title>BB21&#45;&gt;BB22</title>
<path fill="none" stroke="black" d="M1602.39,-670.27C1573.4,-654.28 1539.5,-635.58 1509.8,-619.2"/>
<polygon fill="black" stroke="black" points="1511.17,-615.96 1500.73,-614.19 1507.79,-622.09 1511.17,-615.96"/>
</g>
<!-- BB28 -->
<g id="node29" class="node">
<title>BB28</title>
<ellipse fill="none" stroke="black" cx="1670.65" cy="-576.75" rx="113.69" ry="48.17"/>
<text text-anchor="middle" x="1670.65" y="-595.55" font-family="Times New Roman,serif" font-size="14.00">[20f..215)</text>
<text text-anchor="middle" x="1670.65" y="-580.55" font-family="Times New Roman,serif" font-size="14.00">Count: 1</text>
<text text-anchor="middle" x="1670.65" y="-565.55" font-family="Times New Roman,serif" font-size="14.00">Normalized count: Infinity</text>
<text text-anchor="middle" x="1670.65" y="-550.55" font-family="Times New Roman,serif" font-size="14.00">Samples weight: 0.01</text>
</g>
<!-- BB21&#45;&gt;BB28 -->
<g id="edge37" class="edge">
<title>BB21&#45;&gt;BB28</title>
<path fill="none" stroke="black" d="M1670.65,-660.55C1670.65,-652.29 1670.65,-643.6 1670.65,-635.1"/>
<polygon fill="black" stroke="black" points="1674.15,-634.86 1670.65,-624.86 1667.15,-634.86 1674.15,-634.86"/>
</g>
<!-- BB27 -->
<g id="node28" class="node">
<title>BB27</title>
<ellipse fill="none" stroke="black" cx="1434.65" cy="-444.58" rx="113.69" ry="48.17"/>
<text text-anchor="middle" x="1434.65" y="-463.38" font-family="Times New Roman,serif" font-size="14.00">[20b..20f)</text>
<text text-anchor="middle" x="1434.65" y="-448.38" font-family="Times New Roman,serif" font-size="14.00">Count: 4</text>
<text text-anchor="middle" x="1434.65" y="-433.38" font-family="Times New Roman,serif" font-size="14.00">Normalized count: Infinity</text>
<text text-anchor="middle" x="1434.65" y="-418.38" font-family="Times New Roman,serif" font-size="14.00">Samples weight: 0.04</text>
</g>
<!-- BB22&#45;&gt;BB27 -->
<g id="edge39" class="edge">
<title>BB22&#45;&gt;BB27</title>
<path fill="none" stroke="black" d="M1434.65,-528.39C1434.65,-520.12 1434.65,-511.44 1434.65,-502.93"/>
<polygon fill="black" stroke="black" points="1438.15,-502.69 1434.65,-492.69 1431.15,-502.69 1438.15,-502.69"/>
</g>
<!-- BB23 -->
<g id="node24" class="node">
<title>BB23</title>
<ellipse fill="none" stroke="black" cx="1434.65" cy="-312.42" rx="113.69" ry="48.17"/>
<text text-anchor="middle" x="1434.65" y="-331.22" font-family="Times New Roman,serif" font-size="14.00">[1e9..1f6)</text>
<text text-anchor="middle" x="1434.65" y="-316.22" font-family="Times New Roman,serif" font-size="14.00">Count: 12</text>
<text text-anchor="middle" x="1434.65" y="-301.22" font-family="Times New Roman,serif" font-size="14.00">Normalized count: Infinity</text>
<text text-anchor="middle" x="1434.65" y="-286.22" font-family="Times New Roman,serif" font-size="14.00">Samples weight: 0.11</text>
</g>
<!-- BB24 -->
<g id="node25" class="node">
<title>BB24</title>
<ellipse fill="none" stroke="black" cx="1434.65" cy="-180.25" rx="113.69" ry="48.17"/>
<text text-anchor="middle" x="1434.65" y="-199.05" font-family="Times New Roman,serif" font-size="14.00">[1f6..1fa)</text>
<text text-anchor="middle" x="1434.65" y="-184.05" font-family="Times New Roman,serif" font-size="14.00">Count: 2</text>
<text text-anchor="middle" x="1434.65" y="-169.05" font-family="Times New Roman,serif" font-size="14.00">Normalized count: Infinity</text>
<text text-anchor="middle" x="1434.65" y="-154.05" font-family="Times New Roman,serif" font-size="14.00">Samples weight: 0.02</text>
</g>
<!-- BB23&#45;&gt;BB24 -->
<g id="edge41" class="edge">
<title>BB23&#45;&gt;BB24</title>
<path fill="none" stroke="black" d="M1434.65,-264.05C1434.65,-255.79 1434.65,-247.1 1434.65,-238.6"/>
<polygon fill="black" stroke="black" points="1438.15,-238.36 1434.65,-228.36 1431.15,-238.36 1438.15,-238.36"/>
</g>
<!-- BB25 -->
<g id="node26" class="node">
<title>BB25</title>
<ellipse fill="none" stroke="black" cx="1680.65" cy="-180.25" rx="113.69" ry="48.17"/>
<text text-anchor="middle" x="1680.65" y="-199.05" font-family="Times New Roman,serif" font-size="14.00">[1fa..207)</text>
<text text-anchor="middle" x="1680.65" y="-184.05" font-family="Times New Roman,serif" font-size="14.00">Count: 4</text>
<text text-anchor="middle" x="1680.65" y="-169.05" font-family="Times New Roman,serif" font-size="14.00">Normalized count: Infinity</text>
<text text-anchor="middle" x="1680.65" y="-154.05" font-family="Times New Roman,serif" font-size="14.00">Samples weight: 0.04</text>
</g>
<!-- BB23&#45;&gt;BB25 -->
<g id="edge40" class="edge">
<title>BB23&#45;&gt;BB25</title>
<path fill="none" stroke="black" d="M1504.82,-274.29C1534.93,-258.35 1570.27,-239.66 1601.33,-223.22"/>
<polygon fill="black" stroke="black" points="1603.19,-226.2 1610.39,-218.43 1599.92,-220.01 1603.19,-226.2"/>
</g>
<!-- BB32 -->
<g id="node33" class="node">
<title>BB32</title>
<ellipse fill="none" stroke="black" cx="1964.65" cy="-180.25" rx="113.69" ry="48.17"/>
<text text-anchor="middle" x="1964.65" y="-199.05" font-family="Times New Roman,serif" font-size="14.00">[238..254)</text>
<text text-anchor="middle" x="1964.65" y="-184.05" font-family="Times New Roman,serif" font-size="14.00">Count: 2</text>
<text text-anchor="middle" x="1964.65" y="-169.05" font-family="Times New Roman,serif" font-size="14.00">Normalized count: Infinity</text>
<text text-anchor="middle" x="1964.65" y="-154.05" font-family="Times New Roman,serif" font-size="14.00">Samples weight: 0.02</text>
</g>
<!-- BB24&#45;&gt;BB32 -->
<g id="edge42" class="edge">
<title>BB24&#45;&gt;BB32</title>
<path fill="none" stroke="black" d="M1499.17,-220.01C1519.95,-230.74 1543.58,-240.88 1566.65,-246.33 1665.27,-269.64 1695.05,-265.01 1794.65,-246.33 1823.33,-240.96 1853.38,-230.89 1880.11,-220.2"/>
<polygon fill="black" stroke="black" points="1881.48,-223.43 1889.42,-216.41 1878.84,-216.94 1881.48,-223.43"/>
</g>
<!-- BB26 -->
<g id="node27" class="node">
<title>BB26</title>
<ellipse fill="none" stroke="black" cx="1486.65" cy="-48.08" rx="104.8" ry="48.17"/>
<text text-anchor="middle" x="1486.65" y="-66.88" font-family="Times New Roman,serif" font-size="14.00">[207..20b)</text>
<text text-anchor="middle" x="1486.65" y="-51.88" font-family="Times New Roman,serif" font-size="14.00">Count: 0</text>
<text text-anchor="middle" x="1486.65" y="-36.88" font-family="Times New Roman,serif" font-size="14.00">Normalized count: NaN</text>
<text text-anchor="middle" x="1486.65" y="-21.88" font-family="Times New Roman,serif" font-size="14.00">Samples weight: 0.00</text>
</g>
<!-- BB25&#45;&gt;BB26 -->
<g id="edge44" class="edge">
<title>BB25&#45;&gt;BB26</title>
<path fill="none" stroke="black" d="M1620.86,-139.13C1599.53,-124.82 1575.38,-108.62 1553.49,-93.93"/>
<polygon fill="black" stroke="black" points="1555.17,-90.84 1544.91,-88.17 1551.27,-96.65 1555.17,-90.84"/>
</g>
<!-- BB25&#45;&gt;BB28 -->
<g id="edge43" class="edge">
<title>BB25&#45;&gt;BB28</title>
<path fill="none" stroke="black" d="M1625.33,-222.61C1613.3,-234.61 1602.22,-248.74 1595.65,-264.33 1556.28,-357.87 1559.22,-397.95 1595.65,-492.67 1600.11,-504.26 1607.02,-515.24 1614.87,-525.2"/>
<polygon fill="black" stroke="black" points="1612.25,-527.52 1621.35,-532.95 1617.62,-523.03 1612.25,-527.52"/>
</g>
<!-- BB26&#45;&gt;BB27 -->
<g id="edge45" class="edge">
<title>BB26&#45;&gt;BB27</title>
<path fill="none" stroke="black" d="M1394.14,-71.08C1362.42,-83.53 1330.25,-102.74 1311.65,-132.17 1257.42,-217.94 1264.04,-270.88 1311.65,-360.5 1320.61,-377.36 1334.68,-391.42 1350.16,-402.89"/>
<polygon fill="black" stroke="black" points="1348.17,-405.77 1358.37,-408.65 1352.19,-400.04 1348.17,-405.77"/>
</g>
<!-- BB27&#45;&gt;BB23 -->
<g id="edge46" class="edge">
<title>BB27&#45;&gt;BB23</title>
<path fill="none" stroke="black" d="M1434.65,-396.22C1434.65,-387.95 1434.65,-379.27 1434.65,-370.77"/>
<polygon fill="black" stroke="black" points="1438.15,-370.52 1434.65,-360.52 1431.15,-370.52 1438.15,-370.52"/>
</g>
<!-- BB27&#45;&gt;BB28 -->
<g id="edge47" class="edge">
<title>BB27&#45;&gt;BB28</title>
<path fill="none" stroke="black" d="M1502.76,-483.15C1531.12,-498.79 1564.19,-517.03 1593.44,-533.16"/>
<polygon fill="black" stroke="black" points="1591.94,-536.33 1602.39,-538.1 1595.32,-530.21 1591.94,-536.33"/>
</g>
<!-- BB30 -->
<g id="node31" class="node">
<title>BB30</title>
<ellipse fill="none" stroke="black" cx="1718.65" cy="-444.58" rx="113.69" ry="48.17"/>
<text text-anchor="middle" x="1718.65" y="-463.38" font-family="Times New Roman,serif" font-size="14.00">[232..236)</text>
<text text-anchor="middle" x="1718.65" y="-448.38" font-family="Times New Roman,serif" font-size="14.00">Count: 5</text>
<text text-anchor="middle" x="1718.65" y="-433.38" font-family="Times New Roman,serif" font-size="14.00">Normalized count: Infinity</text>
<text text-anchor="middle" x="1718.65" y="-418.38" font-family="Times New Roman,serif" font-size="14.00">Samples weight: 0.05</text>
</g>
<!-- BB28&#45;&gt;BB30 -->
<g id="edge48" class="edge">
<title>BB28&#45;&gt;BB30</title>
<path fill="none" stroke="black" d="M1687.85,-529.12C1691.12,-520.24 1694.58,-510.87 1697.95,-501.73"/>
<polygon fill="black" stroke="black" points="1701.24,-502.91 1701.42,-492.32 1694.67,-500.49 1701.24,-502.91"/>
</g>
<!-- BB29 -->
<g id="node30" class="node">
<title>BB29</title>
<ellipse fill="none" stroke="black" cx="1718.65" cy="-312.42" rx="113.69" ry="48.17"/>
<text text-anchor="middle" x="1718.65" y="-331.22" font-family="Times New Roman,serif" font-size="14.00">[215..232)</text>
<text text-anchor="middle" x="1718.65" y="-316.22" font-family="Times New Roman,serif" font-size="14.00">Count: 20</text>
<text text-anchor="middle" x="1718.65" y="-301.22" font-family="Times New Roman,serif" font-size="14.00">Normalized count: Infinity</text>
<text text-anchor="middle" x="1718.65" y="-286.22" font-family="Times New Roman,serif" font-size="14.00">Samples weight: 0.19</text>
</g>
<!-- BB29&#45;&gt;BB30 -->
<g id="edge49" class="edge">
<title>BB29&#45;&gt;BB30</title>
<path fill="none" stroke="black" d="M1725.17,-360.52C1725.39,-368.78 1725.45,-377.46 1725.36,-385.97"/>
<polygon fill="black" stroke="black" points="1721.86,-386.16 1725.17,-396.22 1728.86,-386.29 1721.86,-386.16"/>
</g>
<!-- BB30&#45;&gt;BB29 -->
<g id="edge50" class="edge">
<title>BB30&#45;&gt;BB29</title>
<path fill="none" stroke="black" d="M1712.13,-396.22C1711.91,-387.95 1711.85,-379.27 1711.94,-370.77"/>
<polygon fill="black" stroke="black" points="1715.45,-370.59 1712.14,-360.52 1708.45,-370.46 1715.45,-370.59"/>
</g>
<!-- BB31 -->
<g id="node32" class="node">
<title>BB31</title>
<ellipse fill="none" stroke="black" cx="1964.65" cy="-312.42" rx="113.69" ry="48.17"/>
<text text-anchor="middle" x="1964.65" y="-331.22" font-family="Times New Roman,serif" font-size="14.00">[236..238)</text>
<text text-anchor="middle" x="1964.65" y="-316.22" font-family="Times New Roman,serif" font-size="14.00">Count: 2</text>
<text text-anchor="middle" x="1964.65" y="-301.22" font-family="Times New Roman,serif" font-size="14.00">Normalized count: Infinity</text>
<text text-anchor="middle" x="1964.65" y="-286.22" font-family="Times New Roman,serif" font-size="14.00">Samples weight: 0.02</text>
</g>
<!-- BB30&#45;&gt;BB31 -->
<g id="edge51" class="edge">
<title>BB30&#45;&gt;BB31</title>
<path fill="none" stroke="black" d="M1788.82,-406.46C1818.93,-390.52 1854.27,-371.82 1885.33,-355.39"/>
<polygon fill="black" stroke="black" points="1887.19,-358.36 1894.39,-350.59 1883.92,-352.18 1887.19,-358.36"/>
</g>
<!-- BB31&#45;&gt;BB32 -->
<g id="edge52" class="edge">
<title>BB31&#45;&gt;BB32</title>
<path fill="none" stroke="black" d="M1964.65,-264.05C1964.65,-255.79 1964.65,-247.1 1964.65,-238.6"/>
<polygon fill="black" stroke="black" points="1968.15,-238.36 1964.65,-228.36 1961.15,-238.36 1968.15,-238.36"/>
</g>
<!-- BB32&#45;&gt;BB33 -->
<g id="edge53" class="edge">
<title>BB32&#45;&gt;BB33</title>
<path fill="none" stroke="black" d="M2039.27,-216.73C2057.99,-229.19 2076.04,-245.01 2087.65,-264.33 2128.92,-333 2106.65,-363.47 2106.65,-443.58 2106.65,-577.75 2106.65,-577.75 2106.65,-577.75 2106.65,-723.8 1922.66,-791.23 1796.8,-820.27"/>
<polygon fill="black" stroke="black" points="1795.69,-816.93 1786.71,-822.54 1797.23,-823.76 1795.69,-816.93"/>
</g>
<!-- BB33&#45;&gt;BB21 -->
<g id="edge54" class="edge">
<title>BB33&#45;&gt;BB21</title>
<path fill="none" stroke="black" d="M1677.65,-792.72C1676.95,-784.45 1676.22,-775.77 1675.5,-767.27"/>
<polygon fill="black" stroke="black" points="1678.96,-766.69 1674.63,-757.02 1671.99,-767.28 1678.96,-766.69"/>
</g>
<!-- BB34 -->
<g id="node35" class="node">
<title>BB34</title>
<ellipse fill="none" stroke="black" cx="1347.65" cy="-708.92" rx="104.8" ry="48.17"/>
<text text-anchor="middle" x="1347.65" y="-727.72" font-family="Times New Roman,serif" font-size="14.00">[267..269)</text>
<text text-anchor="middle" x="1347.65" y="-712.72" font-family="Times New Roman,serif" font-size="14.00">Count: 0</text>
<text text-anchor="middle" x="1347.65" y="-697.72" font-family="Times New Roman,serif" font-size="14.00">Normalized count: NaN</text>
<text text-anchor="middle" x="1347.65" y="-682.72" font-family="Times New Roman,serif" font-size="14.00">Samples weight: 0.00</text>
</g>
<!-- BB33&#45;&gt;BB34 -->
<g id="edge55" class="edge">
<title>BB33&#45;&gt;BB34</title>
<path fill="none" stroke="black" d="M1599.09,-807.91C1549.55,-788.6 1486.55,-764.05 1436,-744.35"/>
<polygon fill="black" stroke="black" points="1436.98,-740.97 1426.39,-740.6 1434.44,-747.49 1436.98,-740.97"/>
</g>
<!-- BB34&#45;&gt;BB36 -->
<g id="edge56" class="edge">
<title>BB34&#45;&gt;BB36</title>
<path fill="none" stroke="black" d="M1297.5,-751.12C1245.79,-798.55 1172.65,-881.64 1172.65,-972.25 1172.65,-1106.42 1172.65,-1106.42 1172.65,-1106.42 1172.65,-1186.53 1166.85,-1209.49 1191.65,-1285.67 1194.78,-1295.29 1199.13,-1305.02 1203.95,-1314.27"/>
<polygon fill="black" stroke="black" points="1201.03,-1316.23 1208.88,-1323.34 1207.17,-1312.89 1201.03,-1316.23"/>
</g>
<!-- BB35&#45;&gt;BB36 -->
<g id="edge57" class="edge">
<title>BB35&#45;&gt;BB36</title>
<path fill="none" stroke="black" d="M1077.09,-1463.96C1104.89,-1448.02 1137.55,-1429.3 1166.27,-1412.83"/>
<polygon fill="black" stroke="black" points="1168.11,-1415.8 1175.05,-1407.79 1164.63,-1409.73 1168.11,-1415.8"/>
</g>
</g>
</svg>
