<?xml version="1.0" encoding="UTF-8" standalone="no"?>
<!DOCTYPE svg PUBLIC "-//W3C//DTD SVG 1.1//EN"
 "http://www.w3.org/Graphics/SVG/1.1/DTD/svg11.dtd">
<!-- Generated by graphviz version 2.47.0 (20210316.0004)
 -->
<!-- Title: G Pages: 1 -->
<svg width="589pt" height="501pt"
 viewBox="0.00 0.00 589.42 500.67" xmlns="http://www.w3.org/2000/svg" xmlns:xlink="http://www.w3.org/1999/xlink">
<g id="graph0" class="graph" transform="scale(1 1) rotate(0) translate(4 496.67)">
<title>G</title>
<polygon fill="white" stroke="transparent" points="-4,4 -4,-496.67 585.42,-496.67 585.42,4 -4,4"/>
<!-- BB0 -->
<g id="node1" class="node">
<title>BB0</title>
<ellipse fill="none" stroke="black" cx="347.19" cy="-444.58" rx="103.48" ry="48.17"/>
<text text-anchor="middle" x="347.19" y="-463.38" font-family="Times New Roman,serif" font-size="14.00">[0..4)</text>
<text text-anchor="middle" x="347.19" y="-448.38" font-family="Times New Roman,serif" font-size="14.00">Count: 5</text>
<text text-anchor="middle" x="347.19" y="-433.38" font-family="Times New Roman,serif" font-size="14.00">Normalized count: 1.00</text>
<text text-anchor="middle" x="347.19" y="-418.38" font-family="Times New Roman,serif" font-size="14.00">Samples weight: 0.00</text>
</g>
<!-- BB4 -->
<g id="node5" class="node">
<title>BB4</title>
<ellipse fill="none" stroke="black" cx="347.19" cy="-312.42" rx="108.38" ry="48.17"/>
<text text-anchor="middle" x="347.19" y="-331.22" font-family="Times New Roman,serif" font-size="14.00">[2a..2e)</text>
<text text-anchor="middle" x="347.19" y="-316.22" font-family="Times New Roman,serif" font-size="14.00">Count: 67</text>
<text text-anchor="middle" x="347.19" y="-301.22" font-family="Times New Roman,serif" font-size="14.00">Normalized count: 13.40</text>
<text text-anchor="middle" x="347.19" y="-286.22" font-family="Times New Roman,serif" font-size="14.00">Samples weight: 0.03</text>
</g>
<!-- BB0&#45;&gt;BB4 -->
<g id="edge1" class="edge">
<title>BB0&#45;&gt;BB4</title>
<path fill="none" stroke="black" d="M347.19,-396.22C347.19,-387.95 347.19,-379.27 347.19,-370.77"/>
<polygon fill="black" stroke="black" points="350.69,-370.52 347.19,-360.52 343.69,-370.52 350.69,-370.52"/>
</g>
<!-- BB1 -->
<g id="node2" class="node">
<title>BB1</title>
<ellipse fill="none" stroke="black" cx="206.19" cy="-180.25" rx="113.27" ry="48.17"/>
<text text-anchor="middle" x="206.19" y="-199.05" font-family="Times New Roman,serif" font-size="14.00">[4..15)</text>
<text text-anchor="middle" x="206.19" y="-184.05" font-family="Times New Roman,serif" font-size="14.00">Count: 920</text>
<text text-anchor="middle" x="206.19" y="-169.05" font-family="Times New Roman,serif" font-size="14.00">Normalized count: 184.00</text>
<text text-anchor="middle" x="206.19" y="-154.05" font-family="Times New Roman,serif" font-size="14.00">Samples weight: 0.45</text>
</g>
<!-- BB2 -->
<g id="node3" class="node">
<title>BB2</title>
<ellipse fill="none" stroke="black" cx="108.19" cy="-48.08" rx="108.38" ry="48.17"/>
<text text-anchor="middle" x="108.19" y="-66.88" font-family="Times New Roman,serif" font-size="14.00">[15..1e)</text>
<text text-anchor="middle" x="108.19" y="-51.88" font-family="Times New Roman,serif" font-size="14.00">Count: 274</text>
<text text-anchor="middle" x="108.19" y="-36.88" font-family="Times New Roman,serif" font-size="14.00">Normalized count: 54.80</text>
<text text-anchor="middle" x="108.19" y="-21.88" font-family="Times New Roman,serif" font-size="14.00">Samples weight: 0.13</text>
</g>
<!-- BB1&#45;&gt;BB2 -->
<g id="edge3" class="edge">
<title>BB1&#45;&gt;BB2</title>
<path fill="none" stroke="black" d="M172.19,-134.09C164.43,-123.79 156.13,-112.76 148.15,-102.16"/>
<polygon fill="black" stroke="black" points="150.94,-100.05 142.13,-94.16 145.35,-104.26 150.94,-100.05"/>
</g>
<!-- BB3 -->
<g id="node4" class="node">
<title>BB3</title>
<ellipse fill="none" stroke="black" cx="347.19" cy="-48.08" rx="113.27" ry="48.17"/>
<text text-anchor="middle" x="347.19" y="-66.88" font-family="Times New Roman,serif" font-size="14.00">[1e..2a)</text>
<text text-anchor="middle" x="347.19" y="-51.88" font-family="Times New Roman,serif" font-size="14.00">Count: 762</text>
<text text-anchor="middle" x="347.19" y="-36.88" font-family="Times New Roman,serif" font-size="14.00">Normalized count: 152.40</text>
<text text-anchor="middle" x="347.19" y="-21.88" font-family="Times New Roman,serif" font-size="14.00">Samples weight: 0.37</text>
</g>
<!-- BB1&#45;&gt;BB3 -->
<g id="edge2" class="edge">
<title>BB1&#45;&gt;BB3</title>
<path fill="none" stroke="black" d="M252.75,-136.27C265.62,-124.38 279.7,-111.38 292.97,-99.13"/>
<polygon fill="black" stroke="black" points="295.7,-101.38 300.68,-92.02 290.95,-96.23 295.7,-101.38"/>
</g>
<!-- BB2&#45;&gt;BB3 -->
<g id="edge4" class="edge">
<title>BB2&#45;&gt;BB3</title>
<path fill="none" stroke="black" d="M216.48,-48.08C218.93,-48.08 221.37,-48.08 223.81,-48.08"/>
<polygon fill="black" stroke="black" points="223.84,-51.58 233.84,-48.08 223.84,-44.58 223.84,-51.58"/>
</g>
<!-- BB3&#45;&gt;BB4 -->
<g id="edge5" class="edge">
<title>BB3&#45;&gt;BB4</title>
<path fill="none" stroke="black" d="M347.19,-96.35C347.19,-140.62 347.19,-206.87 347.19,-254.13"/>
<polygon fill="black" stroke="black" points="343.69,-254.21 347.19,-264.21 350.69,-254.21 343.69,-254.21"/>
</g>
<!-- BB4&#45;&gt;BB1 -->
<g id="edge6" class="edge">
<title>BB4&#45;&gt;BB1</title>
<path fill="none" stroke="black" d="M301.02,-268.79C288.01,-256.78 273.74,-243.61 260.3,-231.21"/>
<polygon fill="black" stroke="black" points="262.66,-228.62 252.94,-224.41 257.92,-233.77 262.66,-228.62"/>
</g>
<!-- BB5 -->
<g id="node6" class="node">
<title>BB5</title>
<ellipse fill="none" stroke="black" cx="478.19" cy="-180.25" rx="103.48" ry="48.17"/>
<text text-anchor="middle" x="478.19" y="-199.05" font-family="Times New Roman,serif" font-size="14.00">[2e..2f)</text>
<text text-anchor="middle" x="478.19" y="-184.05" font-family="Times New Roman,serif" font-size="14.00">Count: 17</text>
<text text-anchor="middle" x="478.19" y="-169.05" font-family="Times New Roman,serif" font-size="14.00">Normalized count: 3.40</text>
<text text-anchor="middle" x="478.19" y="-154.05" font-family="Times New Roman,serif" font-size="14.00">Samples weight: 0.01</text>
</g>
<!-- BB4&#45;&gt;BB5 -->
<g id="edge7" class="edge">
<title>BB4&#45;&gt;BB5</title>
<path fill="none" stroke="black" d="M390.81,-268.07C402.52,-256.44 415.28,-243.75 427.35,-231.76"/>
<polygon fill="black" stroke="black" points="430.13,-233.94 434.76,-224.4 425.2,-228.97 430.13,-233.94"/>
</g>
</g>
</svg>
