<?xml version="1.0" encoding="UTF-8" standalone="no"?>
<!DOCTYPE svg PUBLIC "-//W3C//DTD SVG 1.1//EN"
 "http://www.w3.org/Graphics/SVG/1.1/DTD/svg11.dtd">
<!-- Generated by graphviz version 2.47.0 (20210316.0004)
 -->
<!-- Title: G Pages: 1 -->
<svg width="1876pt" height="1690pt"
 viewBox="0.00 0.00 1876.37 1690.16" xmlns="http://www.w3.org/2000/svg" xmlns:xlink="http://www.w3.org/1999/xlink">
<g id="graph0" class="graph" transform="scale(1 1) rotate(0) translate(4 1686.16)">
<title>G</title>
<polygon fill="white" stroke="transparent" points="-4,4 -4,-1686.16 1872.37,-1686.16 1872.37,4 -4,4"/>
<!-- BB0 -->
<g id="node1" class="node">
<title>BB0</title>
<ellipse fill="none" stroke="black" cx="887.24" cy="-1634.08" rx="103.48" ry="48.17"/>
<text text-anchor="middle" x="887.24" y="-1652.88" font-family="Times New Roman,serif" font-size="14.00">[0..87)</text>
<text text-anchor="middle" x="887.24" y="-1637.88" font-family="Times New Roman,serif" font-size="14.00">Count: 1</text>
<text text-anchor="middle" x="887.24" y="-1622.88" font-family="Times New Roman,serif" font-size="14.00">Normalized count: 1.00</text>
<text text-anchor="middle" x="887.24" y="-1607.88" font-family="Times New Roman,serif" font-size="14.00">Samples weight: 0.00</text>
</g>
<!-- BB1 -->
<g id="node2" class="node">
<title>BB1</title>
<ellipse fill="none" stroke="black" cx="103.24" cy="-1501.92" rx="103.48" ry="48.17"/>
<text text-anchor="middle" x="103.24" y="-1520.72" font-family="Times New Roman,serif" font-size="14.00">[87..8c)</text>
<text text-anchor="middle" x="103.24" y="-1505.72" font-family="Times New Roman,serif" font-size="14.00">Count: 0</text>
<text text-anchor="middle" x="103.24" y="-1490.72" font-family="Times New Roman,serif" font-size="14.00">Normalized count: 0.00</text>
<text text-anchor="middle" x="103.24" y="-1475.72" font-family="Times New Roman,serif" font-size="14.00">Samples weight: 0.00</text>
</g>
<!-- BB0&#45;&gt;BB1 -->
<g id="edge1" class="edge">
<title>BB0&#45;&gt;BB1</title>
<path fill="none" stroke="black" d="M784.54,-1629.14C651.27,-1622.05 412.46,-1602.57 215.24,-1550 205.2,-1547.32 194.88,-1543.93 184.75,-1540.2"/>
<polygon fill="black" stroke="black" points="185.71,-1536.82 175.12,-1536.54 183.22,-1543.37 185.71,-1536.82"/>
</g>
<!-- BB2 -->
<g id="node3" class="node">
<title>BB2</title>
<ellipse fill="none" stroke="black" cx="327.24" cy="-1501.92" rx="103.48" ry="48.17"/>
<text text-anchor="middle" x="327.24" y="-1520.72" font-family="Times New Roman,serif" font-size="14.00">[8c..a9)</text>
<text text-anchor="middle" x="327.24" y="-1505.72" font-family="Times New Roman,serif" font-size="14.00">Count: 0</text>
<text text-anchor="middle" x="327.24" y="-1490.72" font-family="Times New Roman,serif" font-size="14.00">Normalized count: 0.00</text>
<text text-anchor="middle" x="327.24" y="-1475.72" font-family="Times New Roman,serif" font-size="14.00">Samples weight: 0.00</text>
</g>
<!-- BB0&#45;&gt;BB2 -->
<g id="edge2" class="edge">
<title>BB0&#45;&gt;BB2</title>
<path fill="none" stroke="black" d="M787.91,-1620.9C696.16,-1608.18 556.71,-1585.14 439.24,-1550 429.44,-1547.07 419.33,-1543.56 409.38,-1539.79"/>
<polygon fill="black" stroke="black" points="410.5,-1536.47 399.91,-1536.11 407.97,-1543 410.5,-1536.47"/>
</g>
<!-- BB3 -->
<g id="node4" class="node">
<title>BB3</title>
<ellipse fill="none" stroke="black" cx="551.24" cy="-1501.92" rx="103.48" ry="48.17"/>
<text text-anchor="middle" x="551.24" y="-1520.72" font-family="Times New Roman,serif" font-size="14.00">[a9..c6)</text>
<text text-anchor="middle" x="551.24" y="-1505.72" font-family="Times New Roman,serif" font-size="14.00">Count: 0</text>
<text text-anchor="middle" x="551.24" y="-1490.72" font-family="Times New Roman,serif" font-size="14.00">Normalized count: 0.00</text>
<text text-anchor="middle" x="551.24" y="-1475.72" font-family="Times New Roman,serif" font-size="14.00">Samples weight: 0.00</text>
</g>
<!-- BB0&#45;&gt;BB3 -->
<g id="edge5" class="edge">
<title>BB0&#45;&gt;BB3</title>
<path fill="none" stroke="black" d="M806.31,-1604.01C763.59,-1588.43 710.39,-1568.64 663.24,-1550 654.26,-1546.45 644.92,-1542.67 635.63,-1538.84"/>
<polygon fill="black" stroke="black" points="636.94,-1535.6 626.36,-1535.02 634.27,-1542.07 636.94,-1535.6"/>
</g>
<!-- BB4 -->
<g id="node5" class="node">
<title>BB4</title>
<ellipse fill="none" stroke="black" cx="775.24" cy="-1501.92" rx="103.48" ry="48.17"/>
<text text-anchor="middle" x="775.24" y="-1520.72" font-family="Times New Roman,serif" font-size="14.00">[c6..d1)</text>
<text text-anchor="middle" x="775.24" y="-1505.72" font-family="Times New Roman,serif" font-size="14.00">Count: 0</text>
<text text-anchor="middle" x="775.24" y="-1490.72" font-family="Times New Roman,serif" font-size="14.00">Normalized count: 0.00</text>
<text text-anchor="middle" x="775.24" y="-1475.72" font-family="Times New Roman,serif" font-size="14.00">Samples weight: 0.00</text>
</g>
<!-- BB0&#45;&gt;BB4 -->
<g id="edge3" class="edge">
<title>BB0&#45;&gt;BB4</title>
<path fill="none" stroke="black" d="M849.32,-1589.01C839.83,-1577.99 829.57,-1566.06 819.79,-1554.7"/>
<polygon fill="black" stroke="black" points="822.29,-1552.24 813.12,-1546.94 816.99,-1556.8 822.29,-1552.24"/>
</g>
<!-- BB5 -->
<g id="node6" class="node">
<title>BB5</title>
<ellipse fill="none" stroke="black" cx="999.24" cy="-1501.92" rx="103.48" ry="48.17"/>
<text text-anchor="middle" x="999.24" y="-1520.72" font-family="Times New Roman,serif" font-size="14.00">[d1..dd)</text>
<text text-anchor="middle" x="999.24" y="-1505.72" font-family="Times New Roman,serif" font-size="14.00">Count: 0</text>
<text text-anchor="middle" x="999.24" y="-1490.72" font-family="Times New Roman,serif" font-size="14.00">Normalized count: 0.00</text>
<text text-anchor="middle" x="999.24" y="-1475.72" font-family="Times New Roman,serif" font-size="14.00">Samples weight: 0.00</text>
</g>
<!-- BB0&#45;&gt;BB5 -->
<g id="edge7" class="edge">
<title>BB0&#45;&gt;BB5</title>
<path fill="none" stroke="black" d="M925.16,-1589.01C934.64,-1577.99 944.91,-1566.06 954.68,-1554.7"/>
<polygon fill="black" stroke="black" points="957.49,-1556.8 961.36,-1546.94 952.18,-1552.24 957.49,-1556.8"/>
</g>
<!-- BB6 -->
<g id="node7" class="node">
<title>BB6</title>
<ellipse fill="none" stroke="black" cx="1223.24" cy="-1501.92" rx="103.48" ry="48.17"/>
<text text-anchor="middle" x="1223.24" y="-1520.72" font-family="Times New Roman,serif" font-size="14.00">[dd..e9)</text>
<text text-anchor="middle" x="1223.24" y="-1505.72" font-family="Times New Roman,serif" font-size="14.00">Count: 0</text>
<text text-anchor="middle" x="1223.24" y="-1490.72" font-family="Times New Roman,serif" font-size="14.00">Normalized count: 0.00</text>
<text text-anchor="middle" x="1223.24" y="-1475.72" font-family="Times New Roman,serif" font-size="14.00">Samples weight: 0.00</text>
</g>
<!-- BB0&#45;&gt;BB6 -->
<g id="edge4" class="edge">
<title>BB0&#45;&gt;BB6</title>
<path fill="none" stroke="black" d="M968.17,-1604.01C1010.88,-1588.43 1064.08,-1568.64 1111.24,-1550 1120.21,-1546.45 1129.55,-1542.67 1138.85,-1538.84"/>
<polygon fill="black" stroke="black" points="1140.21,-1542.07 1148.11,-1535.02 1137.53,-1535.6 1140.21,-1542.07"/>
</g>
<!-- BB7 -->
<g id="node8" class="node">
<title>BB7</title>
<ellipse fill="none" stroke="black" cx="1671.24" cy="-1501.92" rx="103.48" ry="48.17"/>
<text text-anchor="middle" x="1671.24" y="-1520.72" font-family="Times New Roman,serif" font-size="14.00">[e9..106)</text>
<text text-anchor="middle" x="1671.24" y="-1505.72" font-family="Times New Roman,serif" font-size="14.00">Count: 1</text>
<text text-anchor="middle" x="1671.24" y="-1490.72" font-family="Times New Roman,serif" font-size="14.00">Normalized count: 1.00</text>
<text text-anchor="middle" x="1671.24" y="-1475.72" font-family="Times New Roman,serif" font-size="14.00">Samples weight: 0.00</text>
</g>
<!-- BB0&#45;&gt;BB7 -->
<g id="edge6" class="edge">
<title>BB0&#45;&gt;BB7</title>
<path fill="none" stroke="black" d="M989.94,-1629.14C1123.21,-1622.05 1362.02,-1602.57 1559.24,-1550 1569.28,-1547.32 1579.6,-1543.93 1589.72,-1540.2"/>
<polygon fill="black" stroke="black" points="1591.26,-1543.37 1599.36,-1536.54 1588.76,-1536.82 1591.26,-1543.37"/>
</g>
<!-- BB31 -->
<g id="node32" class="node">
<title>BB31</title>
<ellipse fill="none" stroke="black" cx="1447.24" cy="-1501.92" rx="103.48" ry="48.17"/>
<text text-anchor="middle" x="1447.24" y="-1520.72" font-family="Times New Roman,serif" font-size="14.00">[238..241)</text>
<text text-anchor="middle" x="1447.24" y="-1505.72" font-family="Times New Roman,serif" font-size="14.00">Count: 0</text>
<text text-anchor="middle" x="1447.24" y="-1490.72" font-family="Times New Roman,serif" font-size="14.00">Normalized count: 0.00</text>
<text text-anchor="middle" x="1447.24" y="-1475.72" font-family="Times New Roman,serif" font-size="14.00">Samples weight: 0.00</text>
</g>
<!-- BB0&#45;&gt;BB31 -->
<g id="edge8" class="edge">
<title>BB0&#45;&gt;BB31</title>
<path fill="none" stroke="black" d="M986.56,-1620.9C1078.31,-1608.18 1217.77,-1585.14 1335.24,-1550 1345.04,-1547.07 1355.15,-1543.56 1365.09,-1539.79"/>
<polygon fill="black" stroke="black" points="1366.51,-1543 1374.56,-1536.11 1363.97,-1536.47 1366.51,-1543"/>
</g>
<!-- BB32 -->
<g id="node33" class="node">
<title>BB32</title>
<ellipse fill="none" stroke="black" cx="868.24" cy="-1369.75" rx="103.48" ry="48.17"/>
<text text-anchor="middle" x="868.24" y="-1388.55" font-family="Times New Roman,serif" font-size="14.00">[241..248)</text>
<text text-anchor="middle" x="868.24" y="-1373.55" font-family="Times New Roman,serif" font-size="14.00">Count: 1</text>
<text text-anchor="middle" x="868.24" y="-1358.55" font-family="Times New Roman,serif" font-size="14.00">Normalized count: 1.00</text>
<text text-anchor="middle" x="868.24" y="-1343.55" font-family="Times New Roman,serif" font-size="14.00">Samples weight: 0.00</text>
</g>
<!-- BB1&#45;&gt;BB32 -->
<g id="edge9" class="edge">
<title>BB1&#45;&gt;BB32</title>
<path fill="none" stroke="black" d="M175.13,-1467.33C188.26,-1462.17 202,-1457.39 215.24,-1453.83 400.66,-1404.06 623.94,-1383.83 755.53,-1375.81"/>
<polygon fill="black" stroke="black" points="755.85,-1379.29 765.63,-1375.2 755.44,-1372.31 755.85,-1379.29"/>
</g>
<!-- BB2&#45;&gt;BB32 -->
<g id="edge10" class="edge">
<title>BB2&#45;&gt;BB32</title>
<path fill="none" stroke="black" d="M400.24,-1467.68C413.07,-1462.58 426.42,-1457.72 439.24,-1453.83 546.01,-1421.43 671.7,-1398.84 759.33,-1385.47"/>
<polygon fill="black" stroke="black" points="759.92,-1388.92 769.29,-1383.97 758.88,-1382 759.92,-1388.92"/>
</g>
<!-- BB3&#45;&gt;BB32 -->
<g id="edge11" class="edge">
<title>BB3&#45;&gt;BB32</title>
<path fill="none" stroke="black" d="M626.79,-1469C638.97,-1463.9 651.44,-1458.7 663.24,-1453.83 701.85,-1437.89 744.66,-1420.5 781.13,-1405.76"/>
<polygon fill="black" stroke="black" points="782.79,-1408.87 790.75,-1401.88 780.17,-1402.38 782.79,-1408.87"/>
</g>
<!-- BB4&#45;&gt;BB32 -->
<g id="edge12" class="edge">
<title>BB4&#45;&gt;BB32</title>
<path fill="none" stroke="black" d="M807.24,-1456.12C814.62,-1445.79 822.54,-1434.7 830.15,-1424.05"/>
<polygon fill="black" stroke="black" points="833.21,-1425.8 836.17,-1415.63 827.51,-1421.73 833.21,-1425.8"/>
</g>
<!-- BB5&#45;&gt;BB32 -->
<g id="edge13" class="edge">
<title>BB5&#45;&gt;BB32</title>
<path fill="none" stroke="black" d="M955.98,-1457.93C944.02,-1446.05 930.93,-1433.05 918.61,-1420.8"/>
<polygon fill="black" stroke="black" points="921.01,-1418.25 911.45,-1413.69 916.08,-1423.22 921.01,-1418.25"/>
</g>
<!-- BB6&#45;&gt;BB32 -->
<g id="edge14" class="edge">
<title>BB6&#45;&gt;BB32</title>
<path fill="none" stroke="black" d="M1148.52,-1468.67C1136.12,-1463.56 1123.36,-1458.45 1111.24,-1453.83 1062.32,-1435.21 1007.16,-1416.2 961.78,-1401.06"/>
<polygon fill="black" stroke="black" points="962.84,-1397.73 952.25,-1397.9 960.63,-1404.37 962.84,-1397.73"/>
</g>
<!-- BB8 -->
<g id="node9" class="node">
<title>BB8</title>
<ellipse fill="none" stroke="black" cx="1447.24" cy="-1369.75" rx="103.48" ry="48.17"/>
<text text-anchor="middle" x="1447.24" y="-1388.55" font-family="Times New Roman,serif" font-size="14.00">[106..113)</text>
<text text-anchor="middle" x="1447.24" y="-1373.55" font-family="Times New Roman,serif" font-size="14.00">Count: 0</text>
<text text-anchor="middle" x="1447.24" y="-1358.55" font-family="Times New Roman,serif" font-size="14.00">Normalized count: 0.00</text>
<text text-anchor="middle" x="1447.24" y="-1343.55" font-family="Times New Roman,serif" font-size="14.00">Samples weight: 0.00</text>
</g>
<!-- BB7&#45;&gt;BB8 -->
<g id="edge16" class="edge">
<title>BB7&#45;&gt;BB8</title>
<path fill="none" stroke="black" d="M1607.65,-1463.96C1580.22,-1448.02 1547.99,-1429.3 1519.65,-1412.83"/>
<polygon fill="black" stroke="black" points="1521.39,-1409.79 1510.99,-1407.79 1517.87,-1415.84 1521.39,-1409.79"/>
</g>
<!-- BB9 -->
<g id="node10" class="node">
<title>BB9</title>
<ellipse fill="none" stroke="black" cx="1671.24" cy="-1369.75" rx="103.48" ry="48.17"/>
<text text-anchor="middle" x="1671.24" y="-1388.55" font-family="Times New Roman,serif" font-size="14.00">[113..11a)</text>
<text text-anchor="middle" x="1671.24" y="-1373.55" font-family="Times New Roman,serif" font-size="14.00">Count: 1</text>
<text text-anchor="middle" x="1671.24" y="-1358.55" font-family="Times New Roman,serif" font-size="14.00">Normalized count: 1.00</text>
<text text-anchor="middle" x="1671.24" y="-1343.55" font-family="Times New Roman,serif" font-size="14.00">Samples weight: 0.00</text>
</g>
<!-- BB7&#45;&gt;BB9 -->
<g id="edge15" class="edge">
<title>BB7&#45;&gt;BB9</title>
<path fill="none" stroke="black" d="M1671.24,-1453.55C1671.24,-1445.29 1671.24,-1436.6 1671.24,-1428.1"/>
<polygon fill="black" stroke="black" points="1674.74,-1427.86 1671.24,-1417.86 1667.74,-1427.86 1674.74,-1427.86"/>
</g>
<!-- BB8&#45;&gt;BB9 -->
<g id="edge18" class="edge">
<title>BB8&#45;&gt;BB9</title>
<path fill="none" stroke="black" d="M1550.49,-1369.75C1552.94,-1369.75 1555.4,-1369.75 1557.85,-1369.75"/>
<polygon fill="black" stroke="black" points="1557.94,-1373.25 1567.94,-1369.75 1557.94,-1366.25 1557.94,-1373.25"/>
</g>
<!-- BB10 -->
<g id="node11" class="node">
<title>BB10</title>
<ellipse fill="none" stroke="black" cx="1447.24" cy="-1237.58" rx="103.48" ry="48.17"/>
<text text-anchor="middle" x="1447.24" y="-1256.38" font-family="Times New Roman,serif" font-size="14.00">[11a..123)</text>
<text text-anchor="middle" x="1447.24" y="-1241.38" font-family="Times New Roman,serif" font-size="14.00">Count: 1</text>
<text text-anchor="middle" x="1447.24" y="-1226.38" font-family="Times New Roman,serif" font-size="14.00">Normalized count: 1.00</text>
<text text-anchor="middle" x="1447.24" y="-1211.38" font-family="Times New Roman,serif" font-size="14.00">Samples weight: 0.00</text>
</g>
<!-- BB8&#45;&gt;BB10 -->
<g id="edge17" class="edge">
<title>BB8&#45;&gt;BB10</title>
<path fill="none" stroke="black" d="M1447.24,-1321.39C1447.24,-1313.12 1447.24,-1304.44 1447.24,-1295.93"/>
<polygon fill="black" stroke="black" points="1450.74,-1295.69 1447.24,-1285.69 1443.74,-1295.69 1450.74,-1295.69"/>
</g>
<!-- BB9&#45;&gt;BB10 -->
<g id="edge19" class="edge">
<title>BB9&#45;&gt;BB10</title>
<path fill="none" stroke="black" d="M1607.65,-1331.8C1580.22,-1315.86 1547.99,-1297.13 1519.65,-1280.66"/>
<polygon fill="black" stroke="black" points="1521.39,-1277.62 1510.99,-1275.63 1517.87,-1283.68 1521.39,-1277.62"/>
</g>
<!-- BB11 -->
<g id="node12" class="node">
<title>BB11</title>
<ellipse fill="none" stroke="black" cx="1223.24" cy="-1105.42" rx="103.48" ry="48.17"/>
<text text-anchor="middle" x="1223.24" y="-1124.22" font-family="Times New Roman,serif" font-size="14.00">[123..12c)</text>
<text text-anchor="middle" x="1223.24" y="-1109.22" font-family="Times New Roman,serif" font-size="14.00">Count: 0</text>
<text text-anchor="middle" x="1223.24" y="-1094.22" font-family="Times New Roman,serif" font-size="14.00">Normalized count: 0.00</text>
<text text-anchor="middle" x="1223.24" y="-1079.22" font-family="Times New Roman,serif" font-size="14.00">Samples weight: 0.00</text>
</g>
<!-- BB10&#45;&gt;BB11 -->
<g id="edge21" class="edge">
<title>BB10&#45;&gt;BB11</title>
<path fill="none" stroke="black" d="M1383.65,-1199.63C1356.22,-1183.69 1323.99,-1164.96 1295.65,-1148.49"/>
<polygon fill="black" stroke="black" points="1297.39,-1145.46 1286.99,-1143.46 1293.87,-1151.51 1297.39,-1145.46"/>
</g>
<!-- BB12 -->
<g id="node13" class="node">
<title>BB12</title>
<ellipse fill="none" stroke="black" cx="1447.24" cy="-1105.42" rx="103.48" ry="48.17"/>
<text text-anchor="middle" x="1447.24" y="-1124.22" font-family="Times New Roman,serif" font-size="14.00">[12c..135)</text>
<text text-anchor="middle" x="1447.24" y="-1109.22" font-family="Times New Roman,serif" font-size="14.00">Count: 1</text>
<text text-anchor="middle" x="1447.24" y="-1094.22" font-family="Times New Roman,serif" font-size="14.00">Normalized count: 1.00</text>
<text text-anchor="middle" x="1447.24" y="-1079.22" font-family="Times New Roman,serif" font-size="14.00">Samples weight: 0.00</text>
</g>
<!-- BB10&#45;&gt;BB12 -->
<g id="edge20" class="edge">
<title>BB10&#45;&gt;BB12</title>
<path fill="none" stroke="black" d="M1447.24,-1189.22C1447.24,-1180.95 1447.24,-1172.27 1447.24,-1163.77"/>
<polygon fill="black" stroke="black" points="1450.74,-1163.52 1447.24,-1153.52 1443.74,-1163.52 1450.74,-1163.52"/>
</g>
<!-- BB11&#45;&gt;BB12 -->
<g id="edge23" class="edge">
<title>BB11&#45;&gt;BB12</title>
<path fill="none" stroke="black" d="M1326.49,-1105.42C1328.94,-1105.42 1331.4,-1105.42 1333.85,-1105.42"/>
<polygon fill="black" stroke="black" points="1333.94,-1108.92 1343.94,-1105.42 1333.94,-1101.92 1333.94,-1108.92"/>
</g>
<!-- BB13 -->
<g id="node14" class="node">
<title>BB13</title>
<ellipse fill="none" stroke="black" cx="1223.24" cy="-973.25" rx="103.48" ry="48.17"/>
<text text-anchor="middle" x="1223.24" y="-992.05" font-family="Times New Roman,serif" font-size="14.00">[135..13c)</text>
<text text-anchor="middle" x="1223.24" y="-977.05" font-family="Times New Roman,serif" font-size="14.00">Count: 0</text>
<text text-anchor="middle" x="1223.24" y="-962.05" font-family="Times New Roman,serif" font-size="14.00">Normalized count: 0.00</text>
<text text-anchor="middle" x="1223.24" y="-947.05" font-family="Times New Roman,serif" font-size="14.00">Samples weight: 0.00</text>
</g>
<!-- BB11&#45;&gt;BB13 -->
<g id="edge22" class="edge">
<title>BB11&#45;&gt;BB13</title>
<path fill="none" stroke="black" d="M1223.24,-1057.05C1223.24,-1048.79 1223.24,-1040.1 1223.24,-1031.6"/>
<polygon fill="black" stroke="black" points="1226.74,-1031.36 1223.24,-1021.36 1219.74,-1031.36 1226.74,-1031.36"/>
</g>
<!-- BB14 -->
<g id="node15" class="node">
<title>BB14</title>
<ellipse fill="none" stroke="black" cx="1447.24" cy="-973.25" rx="103.48" ry="48.17"/>
<text text-anchor="middle" x="1447.24" y="-992.05" font-family="Times New Roman,serif" font-size="14.00">[13c..168)</text>
<text text-anchor="middle" x="1447.24" y="-977.05" font-family="Times New Roman,serif" font-size="14.00">Count: 1</text>
<text text-anchor="middle" x="1447.24" y="-962.05" font-family="Times New Roman,serif" font-size="14.00">Normalized count: 1.00</text>
<text text-anchor="middle" x="1447.24" y="-947.05" font-family="Times New Roman,serif" font-size="14.00">Samples weight: 0.00</text>
</g>
<!-- BB12&#45;&gt;BB14 -->
<g id="edge24" class="edge">
<title>BB12&#45;&gt;BB14</title>
<path fill="none" stroke="black" d="M1447.24,-1057.05C1447.24,-1048.79 1447.24,-1040.1 1447.24,-1031.6"/>
<polygon fill="black" stroke="black" points="1450.74,-1031.36 1447.24,-1021.36 1443.74,-1031.36 1450.74,-1031.36"/>
</g>
<!-- BB13&#45;&gt;BB14 -->
<g id="edge25" class="edge">
<title>BB13&#45;&gt;BB14</title>
<path fill="none" stroke="black" d="M1326.49,-973.25C1328.94,-973.25 1331.4,-973.25 1333.85,-973.25"/>
<polygon fill="black" stroke="black" points="1333.94,-976.75 1343.94,-973.25 1333.94,-969.75 1333.94,-976.75"/>
</g>
<!-- BB16 -->
<g id="node17" class="node">
<title>BB16</title>
<ellipse fill="none" stroke="black" cx="1324.24" cy="-841.08" rx="108.38" ry="48.17"/>
<text text-anchor="middle" x="1324.24" y="-859.88" font-family="Times New Roman,serif" font-size="14.00">[179..17d)</text>
<text text-anchor="middle" x="1324.24" y="-844.88" font-family="Times New Roman,serif" font-size="14.00">Count: 12</text>
<text text-anchor="middle" x="1324.24" y="-829.88" font-family="Times New Roman,serif" font-size="14.00">Normalized count: 12.00</text>
<text text-anchor="middle" x="1324.24" y="-814.88" font-family="Times New Roman,serif" font-size="14.00">Samples weight: 0.01</text>
</g>
<!-- BB14&#45;&gt;BB16 -->
<g id="edge26" class="edge">
<title>BB14&#45;&gt;BB16</title>
<path fill="none" stroke="black" d="M1406.28,-928.91C1395.4,-917.39 1383.55,-904.85 1372.33,-892.97"/>
<polygon fill="black" stroke="black" points="1374.85,-890.54 1365.44,-885.68 1369.76,-895.35 1374.85,-890.54"/>
</g>
<!-- BB15 -->
<g id="node16" class="node">
<title>BB15</title>
<ellipse fill="none" stroke="black" cx="1223.24" cy="-708.92" rx="108.38" ry="48.17"/>
<text text-anchor="middle" x="1223.24" y="-727.72" font-family="Times New Roman,serif" font-size="14.00">[168..179)</text>
<text text-anchor="middle" x="1223.24" y="-712.72" font-family="Times New Roman,serif" font-size="14.00">Count: 11</text>
<text text-anchor="middle" x="1223.24" y="-697.72" font-family="Times New Roman,serif" font-size="14.00">Normalized count: 11.00</text>
<text text-anchor="middle" x="1223.24" y="-682.72" font-family="Times New Roman,serif" font-size="14.00">Samples weight: 0.01</text>
</g>
<!-- BB15&#45;&gt;BB16 -->
<g id="edge27" class="edge">
<title>BB15&#45;&gt;BB16</title>
<path fill="none" stroke="black" d="M1263.78,-753.88C1272.21,-764.32 1281.02,-775.57 1289.23,-786.39"/>
<polygon fill="black" stroke="black" points="1286.57,-788.67 1295.38,-794.56 1292.16,-784.46 1286.57,-788.67"/>
</g>
<!-- BB16&#45;&gt;BB15 -->
<g id="edge28" class="edge">
<title>BB16&#45;&gt;BB15</title>
<path fill="none" stroke="black" d="M1283.91,-796.38C1275.44,-785.9 1266.59,-774.59 1258.33,-763.72"/>
<polygon fill="black" stroke="black" points="1260.95,-761.39 1252.14,-755.51 1255.36,-765.6 1260.95,-761.39"/>
</g>
<!-- BB17 -->
<g id="node18" class="node">
<title>BB17</title>
<ellipse fill="none" stroke="black" cx="1452.24" cy="-708.92" rx="103.48" ry="48.17"/>
<text text-anchor="middle" x="1452.24" y="-727.72" font-family="Times New Roman,serif" font-size="14.00">[17d..181)</text>
<text text-anchor="middle" x="1452.24" y="-712.72" font-family="Times New Roman,serif" font-size="14.00">Count: 1</text>
<text text-anchor="middle" x="1452.24" y="-697.72" font-family="Times New Roman,serif" font-size="14.00">Normalized count: 1.00</text>
<text text-anchor="middle" x="1452.24" y="-682.72" font-family="Times New Roman,serif" font-size="14.00">Samples weight: 0.00</text>
</g>
<!-- BB16&#45;&gt;BB17 -->
<g id="edge29" class="edge">
<title>BB16&#45;&gt;BB17</title>
<path fill="none" stroke="black" d="M1366.86,-796.74C1378.3,-785.1 1390.78,-772.42 1402.56,-760.43"/>
<polygon fill="black" stroke="black" points="1405.29,-762.65 1409.8,-753.07 1400.29,-757.75 1405.29,-762.65"/>
</g>
<!-- BB25 -->
<g id="node26" class="node">
<title>BB25</title>
<ellipse fill="none" stroke="black" cx="1438.24" cy="-576.75" rx="113.27" ry="48.17"/>
<text text-anchor="middle" x="1438.24" y="-595.55" font-family="Times New Roman,serif" font-size="14.00">[1e2..1e7)</text>
<text text-anchor="middle" x="1438.24" y="-580.55" font-family="Times New Roman,serif" font-size="14.00">Count: 118</text>
<text text-anchor="middle" x="1438.24" y="-565.55" font-family="Times New Roman,serif" font-size="14.00">Normalized count: 118.00</text>
<text text-anchor="middle" x="1438.24" y="-550.55" font-family="Times New Roman,serif" font-size="14.00">Samples weight: 0.12</text>
</g>
<!-- BB17&#45;&gt;BB25 -->
<g id="edge30" class="edge">
<title>BB17&#45;&gt;BB25</title>
<path fill="none" stroke="black" d="M1447.14,-660.55C1446.24,-652.2 1445.3,-643.41 1444.38,-634.82"/>
<polygon fill="black" stroke="black" points="1447.85,-634.43 1443.3,-624.86 1440.89,-635.17 1447.85,-634.43"/>
</g>
<!-- BB18 -->
<g id="node19" class="node">
<title>BB18</title>
<ellipse fill="none" stroke="black" cx="1526.24" cy="-444.58" rx="113.27" ry="48.17"/>
<text text-anchor="middle" x="1526.24" y="-463.38" font-family="Times New Roman,serif" font-size="14.00">[181..194)</text>
<text text-anchor="middle" x="1526.24" y="-448.38" font-family="Times New Roman,serif" font-size="14.00">Count: 117</text>
<text text-anchor="middle" x="1526.24" y="-433.38" font-family="Times New Roman,serif" font-size="14.00">Normalized count: 117.00</text>
<text text-anchor="middle" x="1526.24" y="-418.38" font-family="Times New Roman,serif" font-size="14.00">Samples weight: 0.12</text>
</g>
<!-- BB19 -->
<g id="node20" class="node">
<title>BB19</title>
<ellipse fill="none" stroke="black" cx="1755.24" cy="-312.42" rx="108.38" ry="48.17"/>
<text text-anchor="middle" x="1755.24" y="-331.22" font-family="Times New Roman,serif" font-size="14.00">[194..19a)</text>
<text text-anchor="middle" x="1755.24" y="-316.22" font-family="Times New Roman,serif" font-size="14.00">Count: 48</text>
<text text-anchor="middle" x="1755.24" y="-301.22" font-family="Times New Roman,serif" font-size="14.00">Normalized count: 48.00</text>
<text text-anchor="middle" x="1755.24" y="-286.22" font-family="Times New Roman,serif" font-size="14.00">Samples weight: 0.05</text>
</g>
<!-- BB18&#45;&gt;BB19 -->
<g id="edge32" class="edge">
<title>BB18&#45;&gt;BB19</title>
<path fill="none" stroke="black" d="M1593.09,-405.58C1620.49,-390.01 1652.32,-371.92 1680.48,-355.91"/>
<polygon fill="black" stroke="black" points="1682.52,-358.77 1689.49,-350.79 1679.07,-352.69 1682.52,-358.77"/>
</g>
<!-- BB23 -->
<g id="node24" class="node">
<title>BB23</title>
<ellipse fill="none" stroke="black" cx="1521.24" cy="-312.42" rx="108.38" ry="48.17"/>
<text text-anchor="middle" x="1521.24" y="-331.22" font-family="Times New Roman,serif" font-size="14.00">[1c7..1c9)</text>
<text text-anchor="middle" x="1521.24" y="-316.22" font-family="Times New Roman,serif" font-size="14.00">Count: 69</text>
<text text-anchor="middle" x="1521.24" y="-301.22" font-family="Times New Roman,serif" font-size="14.00">Normalized count: 69.00</text>
<text text-anchor="middle" x="1521.24" y="-286.22" font-family="Times New Roman,serif" font-size="14.00">Samples weight: 0.07</text>
</g>
<!-- BB18&#45;&gt;BB23 -->
<g id="edge31" class="edge">
<title>BB18&#45;&gt;BB23</title>
<path fill="none" stroke="black" d="M1524.42,-396.22C1524.1,-387.95 1523.77,-379.27 1523.44,-370.77"/>
<polygon fill="black" stroke="black" points="1526.93,-370.38 1523.05,-360.52 1519.93,-370.65 1526.93,-370.38"/>
</g>
<!-- BB21 -->
<g id="node22" class="node">
<title>BB21</title>
<ellipse fill="none" stroke="black" cx="1755.24" cy="-180.25" rx="113.27" ry="48.17"/>
<text text-anchor="middle" x="1755.24" y="-199.05" font-family="Times New Roman,serif" font-size="14.00">[1c1..1c5)</text>
<text text-anchor="middle" x="1755.24" y="-184.05" font-family="Times New Roman,serif" font-size="14.00">Count: 222</text>
<text text-anchor="middle" x="1755.24" y="-169.05" font-family="Times New Roman,serif" font-size="14.00">Normalized count: 222.00</text>
<text text-anchor="middle" x="1755.24" y="-154.05" font-family="Times New Roman,serif" font-size="14.00">Samples weight: 0.23</text>
</g>
<!-- BB19&#45;&gt;BB21 -->
<g id="edge33" class="edge">
<title>BB19&#45;&gt;BB21</title>
<path fill="none" stroke="black" d="M1755.24,-264.05C1755.24,-255.79 1755.24,-247.1 1755.24,-238.6"/>
<polygon fill="black" stroke="black" points="1758.74,-238.36 1755.24,-228.36 1751.74,-238.36 1758.74,-238.36"/>
</g>
<!-- BB20 -->
<g id="node21" class="node">
<title>BB20</title>
<ellipse fill="none" stroke="black" cx="1755.24" cy="-48.08" rx="113.27" ry="48.17"/>
<text text-anchor="middle" x="1755.24" y="-66.88" font-family="Times New Roman,serif" font-size="14.00">[19a..1c1)</text>
<text text-anchor="middle" x="1755.24" y="-51.88" font-family="Times New Roman,serif" font-size="14.00">Count: 174</text>
<text text-anchor="middle" x="1755.24" y="-36.88" font-family="Times New Roman,serif" font-size="14.00">Normalized count: 174.00</text>
<text text-anchor="middle" x="1755.24" y="-21.88" font-family="Times New Roman,serif" font-size="14.00">Samples weight: 0.18</text>
</g>
<!-- BB20&#45;&gt;BB21 -->
<g id="edge34" class="edge">
<title>BB20&#45;&gt;BB21</title>
<path fill="none" stroke="black" d="M1761.75,-96.19C1761.97,-104.45 1762.04,-113.13 1761.95,-121.64"/>
<polygon fill="black" stroke="black" points="1758.44,-121.83 1761.76,-131.89 1765.44,-121.95 1758.44,-121.83"/>
</g>
<!-- BB21&#45;&gt;BB20 -->
<g id="edge35" class="edge">
<title>BB21&#45;&gt;BB20</title>
<path fill="none" stroke="black" d="M1748.72,-131.89C1748.5,-123.62 1748.44,-114.94 1748.53,-106.43"/>
<polygon fill="black" stroke="black" points="1752.03,-106.26 1748.72,-96.19 1745.04,-106.12 1752.03,-106.26"/>
</g>
<!-- BB22 -->
<g id="node23" class="node">
<title>BB22</title>
<ellipse fill="none" stroke="black" cx="1514.24" cy="-48.08" rx="108.38" ry="48.17"/>
<text text-anchor="middle" x="1514.24" y="-66.88" font-family="Times New Roman,serif" font-size="14.00">[1c5..1c7)</text>
<text text-anchor="middle" x="1514.24" y="-51.88" font-family="Times New Roman,serif" font-size="14.00">Count: 48</text>
<text text-anchor="middle" x="1514.24" y="-36.88" font-family="Times New Roman,serif" font-size="14.00">Normalized count: 48.00</text>
<text text-anchor="middle" x="1514.24" y="-21.88" font-family="Times New Roman,serif" font-size="14.00">Samples weight: 0.05</text>
</g>
<!-- BB21&#45;&gt;BB22 -->
<g id="edge36" class="edge">
<title>BB21&#45;&gt;BB22</title>
<path fill="none" stroke="black" d="M1686.18,-141.95C1656.43,-125.88 1621.53,-107.03 1590.97,-90.53"/>
<polygon fill="black" stroke="black" points="1592.52,-87.39 1582.06,-85.71 1589.2,-93.55 1592.52,-87.39"/>
</g>
<!-- BB24 -->
<g id="node25" class="node">
<title>BB24</title>
<ellipse fill="none" stroke="black" cx="1511.24" cy="-180.25" rx="113.27" ry="48.17"/>
<text text-anchor="middle" x="1511.24" y="-199.05" font-family="Times New Roman,serif" font-size="14.00">[1c9..1e2)</text>
<text text-anchor="middle" x="1511.24" y="-184.05" font-family="Times New Roman,serif" font-size="14.00">Count: 117</text>
<text text-anchor="middle" x="1511.24" y="-169.05" font-family="Times New Roman,serif" font-size="14.00">Normalized count: 117.00</text>
<text text-anchor="middle" x="1511.24" y="-154.05" font-family="Times New Roman,serif" font-size="14.00">Samples weight: 0.12</text>
</g>
<!-- BB22&#45;&gt;BB24 -->
<g id="edge37" class="edge">
<title>BB22&#45;&gt;BB24</title>
<path fill="none" stroke="black" d="M1513.15,-96.19C1512.96,-104.45 1512.76,-113.13 1512.57,-121.64"/>
<polygon fill="black" stroke="black" points="1509.06,-121.81 1512.33,-131.89 1516.06,-121.97 1509.06,-121.81"/>
</g>
<!-- BB23&#45;&gt;BB24 -->
<g id="edge38" class="edge">
<title>BB23&#45;&gt;BB24</title>
<path fill="none" stroke="black" d="M1517.6,-264.05C1516.96,-255.79 1516.3,-247.1 1515.64,-238.6"/>
<polygon fill="black" stroke="black" points="1519.11,-238.06 1514.86,-228.36 1512.13,-238.6 1519.11,-238.06"/>
</g>
<!-- BB24&#45;&gt;BB25 -->
<g id="edge39" class="edge">
<title>BB24&#45;&gt;BB25</title>
<path fill="none" stroke="black" d="M1443.56,-218.9C1427.78,-231.19 1413.03,-246.38 1404.24,-264.33 1359.61,-355.48 1384.65,-393.09 1404.24,-492.67 1406,-501.65 1408.75,-510.89 1411.94,-519.79"/>
<polygon fill="black" stroke="black" points="1408.72,-521.17 1415.54,-529.28 1415.26,-518.69 1408.72,-521.17"/>
</g>
<!-- BB25&#45;&gt;BB18 -->
<g id="edge40" class="edge">
<title>BB25&#45;&gt;BB18</title>
<path fill="none" stroke="black" d="M1469.02,-530.22C1475.68,-520.37 1482.78,-509.86 1489.64,-499.72"/>
<polygon fill="black" stroke="black" points="1492.63,-501.55 1495.33,-491.3 1486.83,-497.63 1492.63,-501.55"/>
</g>
<!-- BB26 -->
<g id="node27" class="node">
<title>BB26</title>
<ellipse fill="none" stroke="black" cx="1228.24" cy="-444.58" rx="103.48" ry="48.17"/>
<text text-anchor="middle" x="1228.24" y="-463.38" font-family="Times New Roman,serif" font-size="14.00">[1e7..1e9)</text>
<text text-anchor="middle" x="1228.24" y="-448.38" font-family="Times New Roman,serif" font-size="14.00">Count: 1</text>
<text text-anchor="middle" x="1228.24" y="-433.38" font-family="Times New Roman,serif" font-size="14.00">Normalized count: 1.00</text>
<text text-anchor="middle" x="1228.24" y="-418.38" font-family="Times New Roman,serif" font-size="14.00">Samples weight: 0.00</text>
</g>
<!-- BB25&#45;&gt;BB26 -->
<g id="edge41" class="edge">
<title>BB25&#45;&gt;BB26</title>
<path fill="none" stroke="black" d="M1375.23,-536.7C1350.91,-521.62 1323,-504.32 1298.08,-488.87"/>
<polygon fill="black" stroke="black" points="1299.74,-485.78 1289.39,-483.49 1296.05,-491.73 1299.74,-485.78"/>
</g>
<!-- BB28 -->
<g id="node29" class="node">
<title>BB28</title>
<ellipse fill="none" stroke="black" cx="1228.24" cy="-312.42" rx="103.48" ry="48.17"/>
<text text-anchor="middle" x="1228.24" y="-331.22" font-family="Times New Roman,serif" font-size="14.00">[20c..21c)</text>
<text text-anchor="middle" x="1228.24" y="-316.22" font-family="Times New Roman,serif" font-size="14.00">Count: 2</text>
<text text-anchor="middle" x="1228.24" y="-301.22" font-family="Times New Roman,serif" font-size="14.00">Normalized count: 2.00</text>
<text text-anchor="middle" x="1228.24" y="-286.22" font-family="Times New Roman,serif" font-size="14.00">Samples weight: 0.00</text>
</g>
<!-- BB26&#45;&gt;BB28 -->
<g id="edge42" class="edge">
<title>BB26&#45;&gt;BB28</title>
<path fill="none" stroke="black" d="M1228.24,-396.22C1228.24,-387.95 1228.24,-379.27 1228.24,-370.77"/>
<polygon fill="black" stroke="black" points="1231.74,-370.52 1228.24,-360.52 1224.74,-370.52 1231.74,-370.52"/>
</g>
<!-- BB27 -->
<g id="node28" class="node">
<title>BB27</title>
<ellipse fill="none" stroke="black" cx="1228.24" cy="-180.25" rx="103.48" ry="48.17"/>
<text text-anchor="middle" x="1228.24" y="-199.05" font-family="Times New Roman,serif" font-size="14.00">[1e9..20c)</text>
<text text-anchor="middle" x="1228.24" y="-184.05" font-family="Times New Roman,serif" font-size="14.00">Count: 1</text>
<text text-anchor="middle" x="1228.24" y="-169.05" font-family="Times New Roman,serif" font-size="14.00">Normalized count: 1.00</text>
<text text-anchor="middle" x="1228.24" y="-154.05" font-family="Times New Roman,serif" font-size="14.00">Samples weight: 0.00</text>
</g>
<!-- BB27&#45;&gt;BB28 -->
<g id="edge43" class="edge">
<title>BB27&#45;&gt;BB28</title>
<path fill="none" stroke="black" d="M1234.76,-228.61C1234.98,-236.91 1235.04,-245.62 1234.94,-254.15"/>
<polygon fill="black" stroke="black" points="1231.44,-254.36 1234.75,-264.42 1238.44,-254.49 1231.44,-254.36"/>
</g>
<!-- BB28&#45;&gt;BB27 -->
<g id="edge44" class="edge">
<title>BB28&#45;&gt;BB27</title>
<path fill="none" stroke="black" d="M1221.72,-264.42C1221.5,-256.05 1221.43,-247.24 1221.53,-238.62"/>
<polygon fill="black" stroke="black" points="1225.03,-238.67 1221.72,-228.61 1218.03,-238.54 1225.03,-238.67"/>
</g>
<!-- BB29 -->
<g id="node30" class="node">
<title>BB29</title>
<ellipse fill="none" stroke="black" cx="999.24" cy="-180.25" rx="103.48" ry="48.17"/>
<text text-anchor="middle" x="999.24" y="-199.05" font-family="Times New Roman,serif" font-size="14.00">[21c..224)</text>
<text text-anchor="middle" x="999.24" y="-184.05" font-family="Times New Roman,serif" font-size="14.00">Count: 1</text>
<text text-anchor="middle" x="999.24" y="-169.05" font-family="Times New Roman,serif" font-size="14.00">Normalized count: 1.00</text>
<text text-anchor="middle" x="999.24" y="-154.05" font-family="Times New Roman,serif" font-size="14.00">Samples weight: 0.00</text>
</g>
<!-- BB28&#45;&gt;BB29 -->
<g id="edge45" class="edge">
<title>BB28&#45;&gt;BB29</title>
<path fill="none" stroke="black" d="M1163.84,-274.81C1135.55,-258.73 1102.17,-239.76 1072.89,-223.12"/>
<polygon fill="black" stroke="black" points="1074.37,-219.93 1063.95,-218.03 1070.91,-226.02 1074.37,-219.93"/>
</g>
<!-- BB30 -->
<g id="node31" class="node">
<title>BB30</title>
<ellipse fill="none" stroke="black" cx="934.24" cy="-48.08" rx="103.48" ry="48.17"/>
<text text-anchor="middle" x="934.24" y="-66.88" font-family="Times New Roman,serif" font-size="14.00">[224..238)</text>
<text text-anchor="middle" x="934.24" y="-51.88" font-family="Times New Roman,serif" font-size="14.00">Count: 0</text>
<text text-anchor="middle" x="934.24" y="-36.88" font-family="Times New Roman,serif" font-size="14.00">Normalized count: 0.00</text>
<text text-anchor="middle" x="934.24" y="-21.88" font-family="Times New Roman,serif" font-size="14.00">Samples weight: 0.00</text>
</g>
<!-- BB29&#45;&gt;BB30 -->
<g id="edge47" class="edge">
<title>BB29&#45;&gt;BB30</title>
<path fill="none" stroke="black" d="M976.32,-133.36C971.61,-123.93 966.61,-113.91 961.76,-104.19"/>
<polygon fill="black" stroke="black" points="964.77,-102.38 957.17,-95 958.5,-105.51 964.77,-102.38"/>
</g>
<!-- BB29&#45;&gt;BB32 -->
<g id="edge46" class="edge">
<title>BB29&#45;&gt;BB32</title>
<path fill="none" stroke="black" d="M995.48,-228.61C991.64,-281.11 986.24,-368.34 986.24,-443.58 986.24,-1106.42 986.24,-1106.42 986.24,-1106.42 986.24,-1184.31 942.43,-1264.67 908.2,-1315.57"/>
<polygon fill="black" stroke="black" points="905.12,-1313.88 902.37,-1324.11 910.9,-1317.83 905.12,-1313.88"/>
</g>
<!-- BB30&#45;&gt;BB32 -->
<g id="edge48" class="edge">
<title>BB30&#45;&gt;BB32</title>
<path fill="none" stroke="black" d="M904.36,-94.12C897.7,-106.05 891.39,-119.23 887.24,-132.17 862.78,-208.46 868.24,-231.3 868.24,-311.42 868.24,-1106.42 868.24,-1106.42 868.24,-1106.42 868.24,-1176.87 868.24,-1257.96 868.24,-1311.11"/>
<polygon fill="black" stroke="black" points="864.74,-1311.36 868.24,-1321.36 871.74,-1311.36 864.74,-1311.36"/>
</g>
<!-- BB31&#45;&gt;BB32 -->
<g id="edge49" class="edge">
<title>BB31&#45;&gt;BB32</title>
<path fill="none" stroke="black" d="M1374.59,-1467.64C1361.66,-1462.51 1348.18,-1457.65 1335.24,-1453.83 1215.48,-1418.48 1073.75,-1395.86 978.09,-1383.29"/>
<polygon fill="black" stroke="black" points="978.48,-1379.81 968.11,-1381.99 977.57,-1386.75 978.48,-1379.81"/>
</g>
</g>
</svg>
