<?xml version="1.0" encoding="UTF-8" standalone="no"?>
<!DOCTYPE svg PUBLIC "-//W3C//DTD SVG 1.1//EN"
 "http://www.w3.org/Graphics/SVG/1.1/DTD/svg11.dtd">
<!-- Generated by graphviz version 2.47.0 (20210316.0004)
 -->
<!-- Title: G Pages: 1 -->
<svg width="1103pt" height="1139pt"
 viewBox="0.00 0.00 1103.05 1138.62" xmlns="http://www.w3.org/2000/svg" xmlns:xlink="http://www.w3.org/1999/xlink">
<g id="graph0" class="graph" transform="scale(1 1) rotate(0) translate(4 1134.62)">
<title>G</title>
<polygon fill="white" stroke="transparent" points="-4,4 -4,-1134.62 1099.05,-1134.62 1099.05,4 -4,4"/>
<!-- BB0 -->
<g id="node1" class="node">
<title>BB0</title>
<ellipse fill="none" stroke="black" cx="561.72" cy="-1103.75" rx="37.45" ry="26.74"/>
<text text-anchor="middle" x="561.72" y="-1107.55" font-family="Times New Roman,serif" font-size="14.00">[0..87)</text>
<text text-anchor="middle" x="561.72" y="-1092.55" font-family="Times New Roman,serif" font-size="14.00">0.00</text>
</g>
<!-- BB1 -->
<g id="node2" class="node">
<title>BB1</title>
<ellipse fill="none" stroke="black" cx="826.72" cy="-1014.01" rx="42.35" ry="26.74"/>
<text text-anchor="middle" x="826.72" y="-1017.81" font-family="Times New Roman,serif" font-size="14.00">[87..8c)</text>
<text text-anchor="middle" x="826.72" y="-1002.81" font-family="Times New Roman,serif" font-size="14.00">0.00</text>
</g>
<!-- BB0&#45;&gt;BB1 -->
<g id="edge1" class="edge">
<title>BB0&#45;&gt;BB1</title>
<path fill="none" stroke="black" d="M597.04,-1094.56C639.82,-1084.16 713.74,-1064.69 774.72,-1040.88 778.37,-1039.46 782.1,-1037.87 785.82,-1036.2"/>
<polygon fill="black" stroke="black" points="787.37,-1039.34 794.95,-1031.94 784.41,-1033 787.37,-1039.34"/>
</g>
<!-- BB2 -->
<g id="node3" class="node">
<title>BB2</title>
<ellipse fill="none" stroke="black" cx="929.72" cy="-1014.01" rx="42.35" ry="26.74"/>
<text text-anchor="middle" x="929.72" y="-1017.81" font-family="Times New Roman,serif" font-size="14.00">[8c..97)</text>
<text text-anchor="middle" x="929.72" y="-1002.81" font-family="Times New Roman,serif" font-size="14.00">0.00</text>
</g>
<!-- BB0&#45;&gt;BB2 -->
<g id="edge2" class="edge">
<title>BB0&#45;&gt;BB2</title>
<path fill="none" stroke="black" d="M598.56,-1098.79C658.38,-1091.64 779.8,-1074.15 877.72,-1040.88 881.48,-1039.6 885.31,-1038.11 889.11,-1036.49"/>
<polygon fill="black" stroke="black" points="890.74,-1039.59 898.4,-1032.27 887.85,-1033.22 890.74,-1039.59"/>
</g>
<!-- BB3 -->
<g id="node4" class="node">
<title>BB3</title>
<ellipse fill="none" stroke="black" cx="41.72" cy="-1014.01" rx="41.94" ry="26.74"/>
<text text-anchor="middle" x="41.72" y="-1017.81" font-family="Times New Roman,serif" font-size="14.00">[97..a4)</text>
<text text-anchor="middle" x="41.72" y="-1002.81" font-family="Times New Roman,serif" font-size="14.00">0.00</text>
</g>
<!-- BB0&#45;&gt;BB3 -->
<g id="edge3" class="edge">
<title>BB0&#45;&gt;BB3</title>
<path fill="none" stroke="black" d="M524.02,-1102.06C443.17,-1099.66 247.86,-1088.92 92.72,-1040.88 88.93,-1039.71 85.09,-1038.27 81.29,-1036.68"/>
<polygon fill="black" stroke="black" points="82.58,-1033.43 72.03,-1032.48 79.69,-1039.8 82.58,-1033.43"/>
</g>
<!-- BB5 -->
<g id="node6" class="node">
<title>BB5</title>
<ellipse fill="none" stroke="black" cx="725.72" cy="-1014.01" rx="40.11" ry="26.74"/>
<text text-anchor="middle" x="725.72" y="-1017.81" font-family="Times New Roman,serif" font-size="14.00">[af..c8)</text>
<text text-anchor="middle" x="725.72" y="-1002.81" font-family="Times New Roman,serif" font-size="14.00">0.00</text>
</g>
<!-- BB0&#45;&gt;BB5 -->
<g id="edge4" class="edge">
<title>BB0&#45;&gt;BB5</title>
<path fill="none" stroke="black" d="M591.42,-1086.86C617.82,-1072.74 656.64,-1051.97 685.76,-1036.39"/>
<polygon fill="black" stroke="black" points="687.68,-1039.33 694.85,-1031.53 684.38,-1033.16 687.68,-1039.33"/>
</g>
<!-- BB6 -->
<g id="node7" class="node">
<title>BB6</title>
<ellipse fill="none" stroke="black" cx="144.72" cy="-1014.01" rx="43.27" ry="26.74"/>
<text text-anchor="middle" x="144.72" y="-1017.81" font-family="Times New Roman,serif" font-size="14.00">[c8..d5)</text>
<text text-anchor="middle" x="144.72" y="-1002.81" font-family="Times New Roman,serif" font-size="14.00">0.00</text>
</g>
<!-- BB0&#45;&gt;BB6 -->
<g id="edge6" class="edge">
<title>BB0&#45;&gt;BB6</title>
<path fill="none" stroke="black" d="M524.34,-1100.05C457.27,-1094.42 312.68,-1078.64 196.72,-1040.88 193,-1039.67 189.21,-1038.23 185.46,-1036.66"/>
<polygon fill="black" stroke="black" points="186.83,-1033.44 176.27,-1032.54 183.97,-1039.83 186.83,-1033.44"/>
</g>
<!-- BB8 -->
<g id="node9" class="node">
<title>BB8</title>
<ellipse fill="none" stroke="black" cx="620.72" cy="-1014.01" rx="46.84" ry="26.74"/>
<text text-anchor="middle" x="620.72" y="-1017.81" font-family="Times New Roman,serif" font-size="14.00">[e0..100)</text>
<text text-anchor="middle" x="620.72" y="-1002.81" font-family="Times New Roman,serif" font-size="14.00">0.00</text>
</g>
<!-- BB0&#45;&gt;BB8 -->
<g id="edge8" class="edge">
<title>BB0&#45;&gt;BB8</title>
<path fill="none" stroke="black" d="M577.53,-1079.24C584.04,-1069.56 591.69,-1058.19 598.72,-1047.72"/>
<polygon fill="black" stroke="black" points="601.78,-1049.45 604.45,-1039.2 595.97,-1045.55 601.78,-1049.45"/>
</g>
<!-- BB9 -->
<g id="node10" class="node">
<title>BB9</title>
<ellipse fill="none" stroke="black" cx="257.72" cy="-1014.01" rx="52.15" ry="26.74"/>
<text text-anchor="middle" x="257.72" y="-1017.81" font-family="Times New Roman,serif" font-size="14.00">[100..10c)</text>
<text text-anchor="middle" x="257.72" y="-1002.81" font-family="Times New Roman,serif" font-size="14.00">0.00</text>
</g>
<!-- BB0&#45;&gt;BB9 -->
<g id="edge9" class="edge">
<title>BB0&#45;&gt;BB9</title>
<path fill="none" stroke="black" d="M525.98,-1095.32C478.35,-1085.03 391.69,-1064.96 319.72,-1040.88 315.19,-1039.37 310.52,-1037.67 305.87,-1035.9"/>
<polygon fill="black" stroke="black" points="307,-1032.58 296.42,-1032.17 304.44,-1039.09 307,-1032.58"/>
</g>
<!-- BB10 -->
<g id="node11" class="node">
<title>BB10</title>
<ellipse fill="none" stroke="black" cx="380.72" cy="-1014.01" rx="52.15" ry="26.74"/>
<text text-anchor="middle" x="380.72" y="-1017.81" font-family="Times New Roman,serif" font-size="14.00">[10c..118)</text>
<text text-anchor="middle" x="380.72" y="-1002.81" font-family="Times New Roman,serif" font-size="14.00">0.00</text>
</g>
<!-- BB0&#45;&gt;BB10 -->
<g id="edge5" class="edge">
<title>BB0&#45;&gt;BB10</title>
<path fill="none" stroke="black" d="M531.02,-1087.87C502.56,-1074.07 459.82,-1053.36 427.19,-1037.54"/>
<polygon fill="black" stroke="black" points="428.37,-1034.22 417.84,-1033.01 425.31,-1040.52 428.37,-1034.22"/>
</g>
<!-- BB11 -->
<g id="node12" class="node">
<title>BB11</title>
<ellipse fill="none" stroke="black" cx="1042.72" cy="-1014.01" rx="52.15" ry="26.74"/>
<text text-anchor="middle" x="1042.72" y="-1017.81" font-family="Times New Roman,serif" font-size="14.00">[118..136)</text>
<text text-anchor="middle" x="1042.72" y="-1002.81" font-family="Times New Roman,serif" font-size="14.00">0.00</text>
</g>
<!-- BB0&#45;&gt;BB11 -->
<g id="edge7" class="edge">
<title>BB0&#45;&gt;BB11</title>
<path fill="none" stroke="black" d="M599.07,-1100.36C673.08,-1094.95 843.09,-1079.11 980.72,-1040.88 985.39,-1039.58 990.18,-1038.03 994.92,-1036.33"/>
<polygon fill="black" stroke="black" points="996.44,-1039.49 1004.55,-1032.68 993.96,-1032.95 996.44,-1039.49"/>
</g>
<!-- BB35 -->
<g id="node36" class="node">
<title>BB35</title>
<ellipse fill="none" stroke="black" cx="503.72" cy="-1014.01" rx="52.15" ry="26.74"/>
<text text-anchor="middle" x="503.72" y="-1017.81" font-family="Times New Roman,serif" font-size="14.00">[267..270)</text>
<text text-anchor="middle" x="503.72" y="-1002.81" font-family="Times New Roman,serif" font-size="14.00">0.00</text>
</g>
<!-- BB0&#45;&gt;BB35 -->
<g id="edge10" class="edge">
<title>BB0&#45;&gt;BB35</title>
<path fill="none" stroke="black" d="M546.18,-1079.24C539.88,-1069.72 532.51,-1058.56 525.68,-1048.24"/>
<polygon fill="black" stroke="black" points="528.55,-1046.23 520.12,-1039.82 522.71,-1050.09 528.55,-1046.23"/>
</g>
<!-- BB36 -->
<g id="node37" class="node">
<title>BB36</title>
<ellipse fill="none" stroke="black" cx="620.72" cy="-924.27" rx="52.15" ry="26.74"/>
<text text-anchor="middle" x="620.72" y="-928.07" font-family="Times New Roman,serif" font-size="14.00">[270..277)</text>
<text text-anchor="middle" x="620.72" y="-913.07" font-family="Times New Roman,serif" font-size="14.00">0.00</text>
</g>
<!-- BB1&#45;&gt;BB36 -->
<g id="edge11" class="edge">
<title>BB1&#45;&gt;BB36</title>
<path fill="none" stroke="black" d="M794.46,-996.46C787.96,-993.27 781.16,-990.03 774.72,-987.14 740.8,-971.92 701.95,-956.32 671.76,-944.6"/>
<polygon fill="black" stroke="black" points="672.86,-941.27 662.27,-940.93 670.34,-947.8 672.86,-941.27"/>
</g>
<!-- BB2&#45;&gt;BB36 -->
<g id="edge12" class="edge">
<title>BB2&#45;&gt;BB36</title>
<path fill="none" stroke="black" d="M898.37,-995.84C891.68,-992.63 884.57,-989.54 877.72,-987.14 805.64,-961.94 783.76,-969.81 709.72,-951.14 698.38,-948.28 686.3,-944.96 674.82,-941.67"/>
<polygon fill="black" stroke="black" points="675.49,-938.22 664.91,-938.8 673.54,-944.94 675.49,-938.22"/>
</g>
<!-- BB4 -->
<g id="node5" class="node">
<title>BB4</title>
<ellipse fill="none" stroke="black" cx="224.72" cy="-924.27" rx="39.7" ry="26.74"/>
<text text-anchor="middle" x="224.72" y="-928.07" font-family="Times New Roman,serif" font-size="14.00">[a4..af)</text>
<text text-anchor="middle" x="224.72" y="-913.07" font-family="Times New Roman,serif" font-size="14.00">0.00</text>
</g>
<!-- BB3&#45;&gt;BB4 -->
<g id="edge14" class="edge">
<title>BB3&#45;&gt;BB4</title>
<path fill="none" stroke="black" d="M73.75,-996.57C80.02,-993.41 86.56,-990.14 92.72,-987.14 122.9,-972.42 157.27,-956.33 183.36,-944.25"/>
<polygon fill="black" stroke="black" points="184.97,-947.37 192.58,-940 182.03,-941.01 184.97,-947.37"/>
</g>
<!-- BB3&#45;&gt;BB5 -->
<g id="edge13" class="edge">
<title>BB3&#45;&gt;BB5</title>
<path fill="none" stroke="black" d="M64.76,-1036.74C75.16,-1045.45 88.14,-1054.37 101.72,-1058.88 161.39,-1078.73 608.21,-1079.21 667.72,-1058.88 677.66,-1055.49 687.21,-1049.62 695.6,-1043.23"/>
<polygon fill="black" stroke="black" points="698.03,-1045.76 703.57,-1036.73 693.61,-1040.33 698.03,-1045.76"/>
</g>
<!-- BB4&#45;&gt;BB36 -->
<g id="edge15" class="edge">
<title>BB4&#45;&gt;BB36</title>
<path fill="none" stroke="black" d="M247.03,-946.76C257.29,-955.54 270.18,-964.58 283.72,-969.14 381.68,-1002.16 503.33,-969 570.41,-944.76"/>
<polygon fill="black" stroke="black" points="571.73,-948 579.9,-941.25 569.31,-941.43 571.73,-948"/>
</g>
<!-- BB5&#45;&gt;BB36 -->
<g id="edge16" class="edge">
<title>BB5&#45;&gt;BB36</title>
<path fill="none" stroke="black" d="M701.1,-992.44C687.5,-981.07 670.37,-966.76 655.43,-954.28"/>
<polygon fill="black" stroke="black" points="657.31,-951.28 647.39,-947.56 652.82,-956.66 657.31,-951.28"/>
</g>
<!-- BB7 -->
<g id="node8" class="node">
<title>BB7</title>
<ellipse fill="none" stroke="black" cx="325.72" cy="-924.27" rx="42.35" ry="26.74"/>
<text text-anchor="middle" x="325.72" y="-928.07" font-family="Times New Roman,serif" font-size="14.00">[d5..e0)</text>
<text text-anchor="middle" x="325.72" y="-913.07" font-family="Times New Roman,serif" font-size="14.00">0.00</text>
</g>
<!-- BB6&#45;&gt;BB7 -->
<g id="edge18" class="edge">
<title>BB6&#45;&gt;BB7</title>
<path fill="none" stroke="black" d="M177.67,-996.47C183.98,-993.34 190.54,-990.12 196.72,-987.14 230.74,-970.73 239.69,-967.56 273.72,-951.14 277.05,-949.54 280.49,-947.86 283.94,-946.16"/>
<polygon fill="black" stroke="black" points="285.63,-949.24 293.05,-941.68 282.53,-942.96 285.63,-949.24"/>
</g>
<!-- BB6&#45;&gt;BB8 -->
<g id="edge17" class="edge">
<title>BB6&#45;&gt;BB8</title>
<path fill="none" stroke="black" d="M168.2,-1036.75C178.78,-1045.45 191.98,-1054.37 205.72,-1058.88 279.62,-1083.13 481.46,-1082.02 555.72,-1058.88 566.86,-1055.41 577.77,-1049.29 587.38,-1042.67"/>
<polygon fill="black" stroke="black" points="589.45,-1045.49 595.46,-1036.77 585.32,-1039.84 589.45,-1045.49"/>
</g>
<!-- BB7&#45;&gt;BB36 -->
<g id="edge19" class="edge">
<title>BB7&#45;&gt;BB36</title>
<path fill="none" stroke="black" d="M368.36,-924.27C431.52,-924.27 494.68,-924.27 557.84,-924.27"/>
<polygon fill="black" stroke="black" points="557.98,-927.77 567.98,-924.27 557.98,-920.77 557.98,-927.77"/>
</g>
<!-- BB8&#45;&gt;BB36 -->
<g id="edge20" class="edge">
<title>BB8&#45;&gt;BB36</title>
<path fill="none" stroke="black" d="M620.72,-986.69C620.72,-978.72 620.72,-969.83 620.72,-961.34"/>
<polygon fill="black" stroke="black" points="624.22,-961.28 620.72,-951.28 617.22,-961.28 624.22,-961.28"/>
</g>
<!-- BB9&#45;&gt;BB36 -->
<g id="edge21" class="edge">
<title>BB9&#45;&gt;BB36</title>
<path fill="none" stroke="black" d="M296.32,-995.56C303.98,-992.48 312.03,-989.51 319.72,-987.14 401.7,-961.87 499.45,-943.94 560.81,-934.09"/>
<polygon fill="black" stroke="black" points="561.38,-937.55 570.71,-932.52 560.29,-930.63 561.38,-937.55"/>
</g>
<!-- BB10&#45;&gt;BB36 -->
<g id="edge22" class="edge">
<title>BB10&#45;&gt;BB36</title>
<path fill="none" stroke="black" d="M420.27,-996.09C427.69,-993.03 435.42,-989.93 442.72,-987.14 484.34,-971.24 532.06,-954.75 567.6,-942.79"/>
<polygon fill="black" stroke="black" points="568.92,-946.04 577.29,-939.54 566.7,-939.4 568.92,-946.04"/>
</g>
<!-- BB12 -->
<g id="node13" class="node">
<title>BB12</title>
<ellipse fill="none" stroke="black" cx="770.72" cy="-924.27" rx="52.15" ry="26.74"/>
<text text-anchor="middle" x="770.72" y="-928.07" font-family="Times New Roman,serif" font-size="14.00">[136..143)</text>
<text text-anchor="middle" x="770.72" y="-913.07" font-family="Times New Roman,serif" font-size="14.00">0.00</text>
</g>
<!-- BB11&#45;&gt;BB12 -->
<g id="edge24" class="edge">
<title>BB11&#45;&gt;BB12</title>
<path fill="none" stroke="black" d="M1003.61,-995.94C996.07,-992.86 988.19,-989.79 980.72,-987.14 929.15,-968.85 869.17,-951.56 826.55,-939.94"/>
<polygon fill="black" stroke="black" points="827.22,-936.49 816.65,-937.25 825.38,-943.25 827.22,-936.49"/>
</g>
<!-- BB15 -->
<g id="node16" class="node">
<title>BB15</title>
<ellipse fill="none" stroke="black" cx="1014.72" cy="-924.27" rx="51.74" ry="26.74"/>
<text text-anchor="middle" x="1014.72" y="-928.07" font-family="Times New Roman,serif" font-size="14.00">[15a..167)</text>
<text text-anchor="middle" x="1014.72" y="-913.07" font-family="Times New Roman,serif" font-size="14.00">0.00</text>
</g>
<!-- BB11&#45;&gt;BB15 -->
<g id="edge23" class="edge">
<title>BB11&#45;&gt;BB15</title>
<path fill="none" stroke="black" d="M1034.47,-987.16C1031.82,-978.86 1028.84,-969.52 1026.01,-960.66"/>
<polygon fill="black" stroke="black" points="1029.28,-959.4 1022.91,-950.94 1022.62,-961.53 1029.28,-959.4"/>
</g>
<!-- BB13 -->
<g id="node14" class="node">
<title>BB13</title>
<ellipse fill="none" stroke="black" cx="649.72" cy="-834.53" rx="51.74" ry="26.74"/>
<text text-anchor="middle" x="649.72" y="-838.33" font-family="Times New Roman,serif" font-size="14.00">[143..14e)</text>
<text text-anchor="middle" x="649.72" y="-823.33" font-family="Times New Roman,serif" font-size="14.00">0.00</text>
</g>
<!-- BB12&#45;&gt;BB13 -->
<g id="edge26" class="edge">
<title>BB12&#45;&gt;BB13</title>
<path fill="none" stroke="black" d="M741.12,-901.81C724.89,-890.04 704.59,-875.32 687.26,-862.75"/>
<polygon fill="black" stroke="black" points="689.16,-859.81 679.01,-856.77 685.05,-865.48 689.16,-859.81"/>
</g>
<!-- BB14 -->
<g id="node15" class="node">
<title>BB14</title>
<ellipse fill="none" stroke="black" cx="770.72" cy="-834.53" rx="50.82" ry="26.74"/>
<text text-anchor="middle" x="770.72" y="-838.33" font-family="Times New Roman,serif" font-size="14.00">[14e..15a)</text>
<text text-anchor="middle" x="770.72" y="-823.33" font-family="Times New Roman,serif" font-size="14.00">0.00</text>
</g>
<!-- BB12&#45;&gt;BB14 -->
<g id="edge25" class="edge">
<title>BB12&#45;&gt;BB14</title>
<path fill="none" stroke="black" d="M770.72,-896.95C770.72,-888.98 770.72,-880.09 770.72,-871.6"/>
<polygon fill="black" stroke="black" points="774.22,-871.54 770.72,-861.54 767.22,-871.54 774.22,-871.54"/>
</g>
<!-- BB13&#45;&gt;BB36 -->
<g id="edge27" class="edge">
<title>BB13&#45;&gt;BB36</title>
<path fill="none" stroke="black" d="M641.24,-861.2C638.5,-869.48 635.41,-878.82 632.48,-887.69"/>
<polygon fill="black" stroke="black" points="629.08,-886.83 629.26,-897.42 635.72,-889.02 629.08,-886.83"/>
</g>
<!-- BB14&#45;&gt;BB36 -->
<g id="edge28" class="edge">
<title>BB14&#45;&gt;BB36</title>
<path fill="none" stroke="black" d="M737.43,-855C715.52,-867.82 686.66,-884.7 663.12,-898.47"/>
<polygon fill="black" stroke="black" points="661.25,-895.51 654.38,-903.58 664.78,-901.55 661.25,-895.51"/>
</g>
<!-- BB16 -->
<g id="node17" class="node">
<title>BB16</title>
<ellipse fill="none" stroke="black" cx="891.72" cy="-834.53" rx="52.15" ry="26.74"/>
<text text-anchor="middle" x="891.72" y="-838.33" font-family="Times New Roman,serif" font-size="14.00">[167..173)</text>
<text text-anchor="middle" x="891.72" y="-823.33" font-family="Times New Roman,serif" font-size="14.00">0.00</text>
</g>
<!-- BB15&#45;&gt;BB16 -->
<g id="edge30" class="edge">
<title>BB15&#45;&gt;BB16</title>
<path fill="none" stroke="black" d="M984.94,-902.03C968.45,-890.26 947.76,-875.5 930.06,-862.88"/>
<polygon fill="black" stroke="black" points="931.82,-859.84 921.65,-856.88 927.75,-865.54 931.82,-859.84"/>
</g>
<!-- BB17 -->
<g id="node18" class="node">
<title>BB17</title>
<ellipse fill="none" stroke="black" cx="1014.72" cy="-834.53" rx="52.15" ry="26.74"/>
<text text-anchor="middle" x="1014.72" y="-838.33" font-family="Times New Roman,serif" font-size="14.00">[173..1b1)</text>
<text text-anchor="middle" x="1014.72" y="-823.33" font-family="Times New Roman,serif" font-size="14.00">0.00</text>
</g>
<!-- BB15&#45;&gt;BB17 -->
<g id="edge29" class="edge">
<title>BB15&#45;&gt;BB17</title>
<path fill="none" stroke="black" d="M1014.72,-896.95C1014.72,-888.98 1014.72,-880.09 1014.72,-871.6"/>
<polygon fill="black" stroke="black" points="1018.22,-871.54 1014.72,-861.54 1011.22,-871.54 1018.22,-871.54"/>
</g>
<!-- BB16&#45;&gt;BB36 -->
<g id="edge31" class="edge">
<title>BB16&#45;&gt;BB36</title>
<path fill="none" stroke="black" d="M852.93,-852.76C845.61,-855.79 837.98,-858.8 830.72,-861.4 823.2,-864.09 734.97,-889.94 675.29,-907.36"/>
<polygon fill="black" stroke="black" points="674.23,-904.03 665.61,-910.19 676.19,-910.75 674.23,-904.03"/>
</g>
<!-- BB19 -->
<g id="node20" class="node">
<title>BB19</title>
<ellipse fill="none" stroke="black" cx="1007.72" cy="-744.79" rx="52.15" ry="26.74"/>
<text text-anchor="middle" x="1007.72" y="-748.59" font-family="Times New Roman,serif" font-size="14.00">[1c2..1c6)</text>
<text text-anchor="middle" x="1007.72" y="-733.59" font-family="Times New Roman,serif" font-size="14.00">0.00</text>
</g>
<!-- BB17&#45;&gt;BB19 -->
<g id="edge32" class="edge">
<title>BB17&#45;&gt;BB19</title>
<path fill="none" stroke="black" d="M1012.66,-807.68C1012.01,-799.63 1011.29,-790.6 1010.61,-781.98"/>
<polygon fill="black" stroke="black" points="1014.08,-781.45 1009.79,-771.76 1007.1,-782.01 1014.08,-781.45"/>
</g>
<!-- BB18 -->
<g id="node19" class="node">
<title>BB18</title>
<ellipse fill="none" stroke="black" cx="1007.72" cy="-655.05" rx="52.15" ry="26.74"/>
<text text-anchor="middle" x="1007.72" y="-658.85" font-family="Times New Roman,serif" font-size="14.00">[1b1..1c2)</text>
<text text-anchor="middle" x="1007.72" y="-643.85" font-family="Times New Roman,serif" font-size="14.00">0.01</text>
</g>
<!-- BB18&#45;&gt;BB19 -->
<g id="edge33" class="edge">
<title>BB18&#45;&gt;BB19</title>
<path fill="none" stroke="black" d="M1013.94,-682.02C1014.44,-690.08 1014.59,-699.11 1014.37,-707.73"/>
<polygon fill="black" stroke="black" points="1010.87,-707.8 1013.94,-717.94 1017.86,-708.1 1010.87,-707.8"/>
</g>
<!-- BB19&#45;&gt;BB18 -->
<g id="edge34" class="edge">
<title>BB19&#45;&gt;BB18</title>
<path fill="none" stroke="black" d="M1001.5,-717.94C1001,-709.89 1000.85,-700.86 1001.06,-692.24"/>
<polygon fill="black" stroke="black" points="1004.57,-692.16 1001.5,-682.02 997.57,-691.86 1004.57,-692.16"/>
</g>
<!-- BB20 -->
<g id="node21" class="node">
<title>BB20</title>
<ellipse fill="none" stroke="black" cx="859.72" cy="-655.05" rx="52.15" ry="26.74"/>
<text text-anchor="middle" x="859.72" y="-658.85" font-family="Times New Roman,serif" font-size="14.00">[1c6..1cb)</text>
<text text-anchor="middle" x="859.72" y="-643.85" font-family="Times New Roman,serif" font-size="14.00">0.01</text>
</g>
<!-- BB19&#45;&gt;BB20 -->
<g id="edge35" class="edge">
<title>BB19&#45;&gt;BB20</title>
<path fill="none" stroke="black" d="M974.14,-723.88C952.75,-711.2 924.88,-694.68 901.99,-681.11"/>
<polygon fill="black" stroke="black" points="903.56,-677.97 893.17,-675.88 899.99,-683.99 903.56,-677.97"/>
</g>
<!-- BB33 -->
<g id="node34" class="node">
<title>BB33</title>
<ellipse fill="none" stroke="black" cx="847.72" cy="-565.31" rx="52.15" ry="26.74"/>
<text text-anchor="middle" x="847.72" y="-569.11" font-family="Times New Roman,serif" font-size="14.00">[252..265)</text>
<text text-anchor="middle" x="847.72" y="-554.11" font-family="Times New Roman,serif" font-size="14.00">0.05</text>
</g>
<!-- BB20&#45;&gt;BB33 -->
<g id="edge36" class="edge">
<title>BB20&#45;&gt;BB33</title>
<path fill="none" stroke="black" d="M856.18,-628.2C855.07,-620.06 853.82,-610.92 852.63,-602.22"/>
<polygon fill="black" stroke="black" points="856.09,-601.71 851.27,-592.28 849.16,-602.66 856.09,-601.71"/>
</g>
<!-- BB21 -->
<g id="node22" class="node">
<title>BB21</title>
<ellipse fill="none" stroke="black" cx="841.72" cy="-475.57" rx="52.15" ry="26.74"/>
<text text-anchor="middle" x="841.72" y="-479.37" font-family="Times New Roman,serif" font-size="14.00">[1cb..1e6)</text>
<text text-anchor="middle" x="841.72" y="-464.37" font-family="Times New Roman,serif" font-size="14.00">0.30</text>
</g>
<!-- BB22 -->
<g id="node23" class="node">
<title>BB22</title>
<ellipse fill="none" stroke="black" cx="720.72" cy="-385.83" rx="50.41" ry="26.74"/>
<text text-anchor="middle" x="720.72" y="-389.63" font-family="Times New Roman,serif" font-size="14.00">[1e6..1ea)</text>
<text text-anchor="middle" x="720.72" y="-374.63" font-family="Times New Roman,serif" font-size="14.00">0.01</text>
</g>
<!-- BB21&#45;&gt;BB22 -->
<g id="edge38" class="edge">
<title>BB21&#45;&gt;BB22</title>
<path fill="none" stroke="black" d="M812.12,-453.11C795.89,-441.34 775.59,-426.62 758.26,-414.05"/>
<polygon fill="black" stroke="black" points="760.16,-411.11 750.01,-408.07 756.05,-416.78 760.16,-411.11"/>
</g>
<!-- BB28 -->
<g id="node29" class="node">
<title>BB28</title>
<ellipse fill="none" stroke="black" cx="841.72" cy="-385.83" rx="52.15" ry="26.74"/>
<text text-anchor="middle" x="841.72" y="-389.63" font-family="Times New Roman,serif" font-size="14.00">[210..216)</text>
<text text-anchor="middle" x="841.72" y="-374.63" font-family="Times New Roman,serif" font-size="14.00">0.04</text>
</g>
<!-- BB21&#45;&gt;BB28 -->
<g id="edge37" class="edge">
<title>BB21&#45;&gt;BB28</title>
<path fill="none" stroke="black" d="M841.72,-448.25C841.72,-440.28 841.72,-431.39 841.72,-422.9"/>
<polygon fill="black" stroke="black" points="845.22,-422.83 841.72,-412.83 838.22,-422.83 845.22,-422.83"/>
</g>
<!-- BB27 -->
<g id="node28" class="node">
<title>BB27</title>
<ellipse fill="none" stroke="black" cx="720.72" cy="-296.09" rx="52.15" ry="26.74"/>
<text text-anchor="middle" x="720.72" y="-299.89" font-family="Times New Roman,serif" font-size="14.00">[20c..210)</text>
<text text-anchor="middle" x="720.72" y="-284.89" font-family="Times New Roman,serif" font-size="14.00">0.04</text>
</g>
<!-- BB22&#45;&gt;BB27 -->
<g id="edge39" class="edge">
<title>BB22&#45;&gt;BB27</title>
<path fill="none" stroke="black" d="M720.72,-358.51C720.72,-350.54 720.72,-341.65 720.72,-333.16"/>
<polygon fill="black" stroke="black" points="724.22,-333.09 720.72,-323.09 717.22,-333.09 724.22,-333.09"/>
</g>
<!-- BB23 -->
<g id="node24" class="node">
<title>BB23</title>
<ellipse fill="none" stroke="black" cx="722.72" cy="-206.35" rx="49.49" ry="26.74"/>
<text text-anchor="middle" x="722.72" y="-210.15" font-family="Times New Roman,serif" font-size="14.00">[1ea..1f7)</text>
<text text-anchor="middle" x="722.72" y="-195.15" font-family="Times New Roman,serif" font-size="14.00">0.09</text>
</g>
<!-- BB24 -->
<g id="node25" class="node">
<title>BB24</title>
<ellipse fill="none" stroke="black" cx="722.72" cy="-116.61" rx="49.49" ry="26.74"/>
<text text-anchor="middle" x="722.72" y="-120.41" font-family="Times New Roman,serif" font-size="14.00">[1f7..1fb)</text>
<text text-anchor="middle" x="722.72" y="-105.41" font-family="Times New Roman,serif" font-size="14.00">0.03</text>
</g>
<!-- BB23&#45;&gt;BB24 -->
<g id="edge41" class="edge">
<title>BB23&#45;&gt;BB24</title>
<path fill="none" stroke="black" d="M722.72,-179.03C722.72,-171.06 722.72,-162.17 722.72,-153.68"/>
<polygon fill="black" stroke="black" points="726.22,-153.61 722.72,-143.61 719.22,-153.61 726.22,-153.61"/>
</g>
<!-- BB25 -->
<g id="node26" class="node">
<title>BB25</title>
<ellipse fill="none" stroke="black" cx="840.72" cy="-116.61" rx="50.82" ry="26.74"/>
<text text-anchor="middle" x="840.72" y="-120.41" font-family="Times New Roman,serif" font-size="14.00">[1fb..208)</text>
<text text-anchor="middle" x="840.72" y="-105.41" font-family="Times New Roman,serif" font-size="14.00">0.06</text>
</g>
<!-- BB23&#45;&gt;BB25 -->
<g id="edge40" class="edge">
<title>BB23&#45;&gt;BB25</title>
<path fill="none" stroke="black" d="M751.28,-184.11C767.11,-172.34 786.96,-157.58 803.94,-144.96"/>
<polygon fill="black" stroke="black" points="806.07,-147.73 812.01,-138.96 801.9,-142.12 806.07,-147.73"/>
</g>
<!-- BB32 -->
<g id="node33" class="node">
<title>BB32</title>
<ellipse fill="none" stroke="black" cx="1003.72" cy="-116.61" rx="52.15" ry="26.74"/>
<text text-anchor="middle" x="1003.72" y="-120.41" font-family="Times New Roman,serif" font-size="14.00">[239..252)</text>
<text text-anchor="middle" x="1003.72" y="-105.41" font-family="Times New Roman,serif" font-size="14.00">0.11</text>
</g>
<!-- BB24&#45;&gt;BB32 -->
<g id="edge42" class="edge">
<title>BB24&#45;&gt;BB32</title>
<path fill="none" stroke="black" d="M749.18,-139.61C760.81,-148.25 775.12,-157.04 789.72,-161.48 833.09,-174.66 847.21,-170.07 891.72,-161.48 913.99,-157.18 937.46,-148.5 957.13,-139.9"/>
<polygon fill="black" stroke="black" points="958.77,-143 966.46,-135.7 955.9,-136.61 958.77,-143"/>
</g>
<!-- BB26 -->
<g id="node27" class="node">
<title>BB26</title>
<ellipse fill="none" stroke="black" cx="742.72" cy="-26.87" rx="52.15" ry="26.74"/>
<text text-anchor="middle" x="742.72" y="-30.67" font-family="Times New Roman,serif" font-size="14.00">[208..20c)</text>
<text text-anchor="middle" x="742.72" y="-15.67" font-family="Times New Roman,serif" font-size="14.00">0.00</text>
</g>
<!-- BB25&#45;&gt;BB26 -->
<g id="edge44" class="edge">
<title>BB25&#45;&gt;BB26</title>
<path fill="none" stroke="black" d="M815.48,-93.01C803.46,-82.25 788.92,-69.23 776,-57.67"/>
<polygon fill="black" stroke="black" points="778,-54.76 768.21,-50.69 773.33,-59.97 778,-54.76"/>
</g>
<!-- BB25&#45;&gt;BB28 -->
<g id="edge43" class="edge">
<title>BB25&#45;&gt;BB28</title>
<path fill="none" stroke="black" d="M830,-143.01C825.91,-154.01 821.75,-167.17 819.72,-179.48 809.33,-242.4 808.88,-260.12 819.72,-322.96 821.27,-331.94 823.99,-341.34 827.01,-350.03"/>
<polygon fill="black" stroke="black" points="823.75,-351.3 830.49,-359.47 830.32,-348.88 823.75,-351.3"/>
</g>
<!-- BB26&#45;&gt;BB27 -->
<g id="edge45" class="edge">
<title>BB26&#45;&gt;BB27</title>
<path fill="none" stroke="black" d="M706.49,-46.68C690.57,-57.04 673.52,-71.53 664.72,-89.74 636.98,-147.16 641.79,-173.72 664.72,-233.22 669.36,-245.27 677.57,-256.44 686.29,-265.87"/>
<polygon fill="black" stroke="black" points="683.83,-268.36 693.33,-273.04 688.82,-263.45 683.83,-268.36"/>
</g>
<!-- BB27&#45;&gt;BB23 -->
<g id="edge46" class="edge">
<title>BB27&#45;&gt;BB23</title>
<path fill="none" stroke="black" d="M721.32,-268.77C721.5,-260.8 721.7,-251.91 721.9,-243.42"/>
<polygon fill="black" stroke="black" points="725.4,-243.43 722.13,-233.35 718.4,-243.27 725.4,-243.43"/>
</g>
<!-- BB27&#45;&gt;BB28 -->
<g id="edge47" class="edge">
<title>BB27&#45;&gt;BB28</title>
<path fill="none" stroke="black" d="M750.43,-318.64C766.57,-330.33 786.68,-344.92 803.92,-357.42"/>
<polygon fill="black" stroke="black" points="801.97,-360.33 812.12,-363.37 806.08,-354.66 801.97,-360.33"/>
</g>
<!-- BB30 -->
<g id="node31" class="node">
<title>BB30</title>
<ellipse fill="none" stroke="black" cx="880.72" cy="-296.09" rx="52.15" ry="26.74"/>
<text text-anchor="middle" x="880.72" y="-299.89" font-family="Times New Roman,serif" font-size="14.00">[233..237)</text>
<text text-anchor="middle" x="880.72" y="-284.89" font-family="Times New Roman,serif" font-size="14.00">0.03</text>
</g>
<!-- BB28&#45;&gt;BB30 -->
<g id="edge48" class="edge">
<title>BB28&#45;&gt;BB30</title>
<path fill="none" stroke="black" d="M853,-359.45C856.84,-350.81 861.2,-341 865.31,-331.76"/>
<polygon fill="black" stroke="black" points="868.6,-332.97 869.46,-322.41 862.2,-330.13 868.6,-332.97"/>
</g>
<!-- BB29 -->
<g id="node30" class="node">
<title>BB29</title>
<ellipse fill="none" stroke="black" cx="880.72" cy="-206.35" rx="52.15" ry="26.74"/>
<text text-anchor="middle" x="880.72" y="-210.15" font-family="Times New Roman,serif" font-size="14.00">[216..233)</text>
<text text-anchor="middle" x="880.72" y="-195.15" font-family="Times New Roman,serif" font-size="14.00">0.20</text>
</g>
<!-- BB29&#45;&gt;BB30 -->
<g id="edge49" class="edge">
<title>BB29&#45;&gt;BB30</title>
<path fill="none" stroke="black" d="M886.94,-233.32C887.44,-241.38 887.59,-250.41 887.37,-259.03"/>
<polygon fill="black" stroke="black" points="883.87,-259.1 886.94,-269.24 890.86,-259.4 883.87,-259.1"/>
</g>
<!-- BB30&#45;&gt;BB29 -->
<g id="edge50" class="edge">
<title>BB30&#45;&gt;BB29</title>
<path fill="none" stroke="black" d="M874.5,-269.24C874,-261.19 873.85,-252.16 874.06,-243.54"/>
<polygon fill="black" stroke="black" points="877.57,-243.46 874.5,-233.32 870.57,-243.16 877.57,-243.46"/>
</g>
<!-- BB31 -->
<g id="node32" class="node">
<title>BB31</title>
<ellipse fill="none" stroke="black" cx="1003.72" cy="-206.35" rx="52.15" ry="26.74"/>
<text text-anchor="middle" x="1003.72" y="-210.15" font-family="Times New Roman,serif" font-size="14.00">[237..239)</text>
<text text-anchor="middle" x="1003.72" y="-195.15" font-family="Times New Roman,serif" font-size="14.00">0.02</text>
</g>
<!-- BB30&#45;&gt;BB31 -->
<g id="edge51" class="edge">
<title>BB30&#45;&gt;BB31</title>
<path fill="none" stroke="black" d="M910.49,-273.85C926.99,-262.08 947.68,-247.32 965.38,-234.7"/>
<polygon fill="black" stroke="black" points="967.68,-237.35 973.79,-228.7 963.62,-231.66 967.68,-237.35"/>
</g>
<!-- BB31&#45;&gt;BB32 -->
<g id="edge52" class="edge">
<title>BB31&#45;&gt;BB32</title>
<path fill="none" stroke="black" d="M1003.72,-179.03C1003.72,-171.06 1003.72,-162.17 1003.72,-153.68"/>
<polygon fill="black" stroke="black" points="1007.22,-153.61 1003.72,-143.61 1000.22,-153.61 1007.22,-153.61"/>
</g>
<!-- BB32&#45;&gt;BB33 -->
<g id="edge53" class="edge">
<title>BB32&#45;&gt;BB33</title>
<path fill="none" stroke="black" d="M1032.01,-139.45C1043.97,-150.21 1056.92,-164.15 1064.72,-179.48 1088.33,-225.89 1083.72,-243.02 1083.72,-295.09 1083.72,-386.83 1083.72,-386.83 1083.72,-386.83 1083.72,-476.68 973.11,-526.69 903.34,-549.29"/>
<polygon fill="black" stroke="black" points="902.27,-545.96 893.78,-552.3 904.37,-552.64 902.27,-545.96"/>
</g>
<!-- BB33&#45;&gt;BB21 -->
<g id="edge54" class="edge">
<title>BB33&#45;&gt;BB21</title>
<path fill="none" stroke="black" d="M845.92,-537.99C845.37,-530.02 844.77,-521.13 844.19,-512.64"/>
<polygon fill="black" stroke="black" points="847.67,-512.31 843.5,-502.57 840.69,-512.79 847.67,-512.31"/>
</g>
<!-- BB34 -->
<g id="node35" class="node">
<title>BB34</title>
<ellipse fill="none" stroke="black" cx="668.72" cy="-475.57" rx="52.15" ry="26.74"/>
<text text-anchor="middle" x="668.72" y="-479.37" font-family="Times New Roman,serif" font-size="14.00">[265..267)</text>
<text text-anchor="middle" x="668.72" y="-464.37" font-family="Times New Roman,serif" font-size="14.00">0.00</text>
</g>
<!-- BB33&#45;&gt;BB34 -->
<g id="edge55" class="edge">
<title>BB33&#45;&gt;BB34</title>
<path fill="none" stroke="black" d="M810.63,-546.13C782.91,-532.54 744.83,-513.88 715.1,-499.3"/>
<polygon fill="black" stroke="black" points="716.28,-495.99 705.76,-494.73 713.2,-502.27 716.28,-495.99"/>
</g>
<!-- BB34&#45;&gt;BB36 -->
<g id="edge56" class="edge">
<title>BB34&#45;&gt;BB36</title>
<path fill="none" stroke="black" d="M645.51,-499.81C616.25,-531.7 569.72,-592.13 569.72,-654.05 569.72,-745.79 569.72,-745.79 569.72,-745.79 569.72,-797.86 572.33,-811.97 588.72,-861.4 591.85,-870.86 596.29,-880.64 600.85,-889.55"/>
<polygon fill="black" stroke="black" points="597.82,-891.3 605.62,-898.47 604,-888 597.82,-891.3"/>
</g>
<!-- BB35&#45;&gt;BB36 -->
<g id="edge57" class="edge">
<title>BB35&#45;&gt;BB36</title>
<path fill="none" stroke="black" d="M532.64,-991.32C547.97,-979.83 566.97,-965.58 583.4,-953.26"/>
<polygon fill="black" stroke="black" points="585.82,-955.81 591.73,-947.01 581.62,-950.21 585.82,-955.81"/>
</g>
</g>
</svg>
