<?xml version="1.0" encoding="UTF-8" standalone="no"?>
<!DOCTYPE svg PUBLIC "-//W3C//DTD SVG 1.1//EN"
 "http://www.w3.org/Graphics/SVG/1.1/DTD/svg11.dtd">
<!-- Generated by graphviz version 2.47.0 (20210316.0004)
 -->
<!-- Title: G Pages: 1 -->
<svg width="1212pt" height="897pt"
 viewBox="0.00 0.00 1212.14 897.17" xmlns="http://www.w3.org/2000/svg" xmlns:xlink="http://www.w3.org/1999/xlink">
<g id="graph0" class="graph" transform="scale(1 1) rotate(0) translate(4 893.17)">
<title>G</title>
<polygon fill="white" stroke="transparent" points="-4,4 -4,-893.17 1208.14,-893.17 1208.14,4 -4,4"/>
<!-- BB0 -->
<g id="node1" class="node">
<title>BB0</title>
<ellipse fill="none" stroke="black" cx="251.95" cy="-841.08" rx="103.48" ry="48.17"/>
<text text-anchor="middle" x="251.95" y="-859.88" font-family="Times New Roman,serif" font-size="14.00">[0..1e)</text>
<text text-anchor="middle" x="251.95" y="-844.88" font-family="Times New Roman,serif" font-size="14.00">Count: 2</text>
<text text-anchor="middle" x="251.95" y="-829.88" font-family="Times New Roman,serif" font-size="14.00">Normalized count: 1.00</text>
<text text-anchor="middle" x="251.95" y="-814.88" font-family="Times New Roman,serif" font-size="14.00">Samples weight: 0.00</text>
</g>
<!-- BB10 -->
<g id="node11" class="node">
<title>BB10</title>
<ellipse fill="none" stroke="black" cx="251.95" cy="-708.92" rx="103.48" ry="48.17"/>
<text text-anchor="middle" x="251.95" y="-727.72" font-family="Times New Roman,serif" font-size="14.00">[bf..cc)</text>
<text text-anchor="middle" x="251.95" y="-712.72" font-family="Times New Roman,serif" font-size="14.00">Count: 3</text>
<text text-anchor="middle" x="251.95" y="-697.72" font-family="Times New Roman,serif" font-size="14.00">Normalized count: 1.50</text>
<text text-anchor="middle" x="251.95" y="-682.72" font-family="Times New Roman,serif" font-size="14.00">Samples weight: 0.00</text>
</g>
<!-- BB0&#45;&gt;BB10 -->
<g id="edge1" class="edge">
<title>BB0&#45;&gt;BB10</title>
<path fill="none" stroke="black" d="M251.95,-792.72C251.95,-784.45 251.95,-775.77 251.95,-767.27"/>
<polygon fill="black" stroke="black" points="255.45,-767.02 251.95,-757.02 248.45,-767.02 255.45,-767.02"/>
</g>
<!-- BB1 -->
<g id="node2" class="node">
<title>BB1</title>
<ellipse fill="none" stroke="black" cx="251.95" cy="-576.75" rx="103.48" ry="48.17"/>
<text text-anchor="middle" x="251.95" y="-595.55" font-family="Times New Roman,serif" font-size="14.00">[1e..25)</text>
<text text-anchor="middle" x="251.95" y="-580.55" font-family="Times New Roman,serif" font-size="14.00">Count: 1</text>
<text text-anchor="middle" x="251.95" y="-565.55" font-family="Times New Roman,serif" font-size="14.00">Normalized count: 0.50</text>
<text text-anchor="middle" x="251.95" y="-550.55" font-family="Times New Roman,serif" font-size="14.00">Samples weight: 0.00</text>
</g>
<!-- BB9 -->
<g id="node10" class="node">
<title>BB9</title>
<ellipse fill="none" stroke="black" cx="185.95" cy="-444.58" rx="113.27" ry="48.17"/>
<text text-anchor="middle" x="185.95" y="-463.38" font-family="Times New Roman,serif" font-size="14.00">[b8..bf)</text>
<text text-anchor="middle" x="185.95" y="-448.38" font-family="Times New Roman,serif" font-size="14.00">Count: 946</text>
<text text-anchor="middle" x="185.95" y="-433.38" font-family="Times New Roman,serif" font-size="14.00">Normalized count: 473.00</text>
<text text-anchor="middle" x="185.95" y="-418.38" font-family="Times New Roman,serif" font-size="14.00">Samples weight: 0.25</text>
</g>
<!-- BB1&#45;&gt;BB9 -->
<g id="edge2" class="edge">
<title>BB1&#45;&gt;BB9</title>
<path fill="none" stroke="black" d="M228.69,-529.86C223.96,-520.54 218.94,-510.64 214.07,-501.04"/>
<polygon fill="black" stroke="black" points="217.1,-499.27 209.46,-491.94 210.86,-502.44 217.1,-499.27"/>
</g>
<!-- BB2 -->
<g id="node3" class="node">
<title>BB2</title>
<ellipse fill="none" stroke="black" cx="490.95" cy="-312.42" rx="113.27" ry="48.17"/>
<text text-anchor="middle" x="490.95" y="-331.22" font-family="Times New Roman,serif" font-size="14.00">[25..42)</text>
<text text-anchor="middle" x="490.95" y="-316.22" font-family="Times New Roman,serif" font-size="14.00">Count: 945</text>
<text text-anchor="middle" x="490.95" y="-301.22" font-family="Times New Roman,serif" font-size="14.00">Normalized count: 472.50</text>
<text text-anchor="middle" x="490.95" y="-286.22" font-family="Times New Roman,serif" font-size="14.00">Samples weight: 0.25</text>
</g>
<!-- BB3 -->
<g id="node4" class="node">
<title>BB3</title>
<ellipse fill="none" stroke="black" cx="134.95" cy="-180.25" rx="103.48" ry="48.17"/>
<text text-anchor="middle" x="134.95" y="-199.05" font-family="Times New Roman,serif" font-size="14.00">[42..44)</text>
<text text-anchor="middle" x="134.95" y="-184.05" font-family="Times New Roman,serif" font-size="14.00">Count: 0</text>
<text text-anchor="middle" x="134.95" y="-169.05" font-family="Times New Roman,serif" font-size="14.00">Normalized count: 0.00</text>
<text text-anchor="middle" x="134.95" y="-154.05" font-family="Times New Roman,serif" font-size="14.00">Samples weight: 0.00</text>
</g>
<!-- BB2&#45;&gt;BB3 -->
<g id="edge3" class="edge">
<title>BB2&#45;&gt;BB3</title>
<path fill="none" stroke="black" d="M401.76,-282.7C355.32,-267.34 297.78,-247.64 246.95,-228.33 237.86,-224.88 228.41,-221.14 219.02,-217.33"/>
<polygon fill="black" stroke="black" points="220.25,-214.05 209.67,-213.51 217.6,-220.53 220.25,-214.05"/>
</g>
<!-- BB4 -->
<g id="node5" class="node">
<title>BB4</title>
<ellipse fill="none" stroke="black" cx="368.95" cy="-180.25" rx="113.27" ry="48.17"/>
<text text-anchor="middle" x="368.95" y="-199.05" font-family="Times New Roman,serif" font-size="14.00">[44..61)</text>
<text text-anchor="middle" x="368.95" y="-184.05" font-family="Times New Roman,serif" font-size="14.00">Count: 265</text>
<text text-anchor="middle" x="368.95" y="-169.05" font-family="Times New Roman,serif" font-size="14.00">Normalized count: 132.50</text>
<text text-anchor="middle" x="368.95" y="-154.05" font-family="Times New Roman,serif" font-size="14.00">Samples weight: 0.07</text>
</g>
<!-- BB2&#45;&gt;BB4 -->
<g id="edge4" class="edge">
<title>BB2&#45;&gt;BB4</title>
<path fill="none" stroke="black" d="M449.65,-267.35C439.22,-256.22 427.92,-244.16 417.18,-232.7"/>
<polygon fill="black" stroke="black" points="419.61,-230.18 410.22,-225.27 414.5,-234.96 419.61,-230.18"/>
</g>
<!-- BB5 -->
<g id="node6" class="node">
<title>BB5</title>
<ellipse fill="none" stroke="black" cx="612.95" cy="-180.25" rx="113.27" ry="48.17"/>
<text text-anchor="middle" x="612.95" y="-199.05" font-family="Times New Roman,serif" font-size="14.00">[61..7e)</text>
<text text-anchor="middle" x="612.95" y="-184.05" font-family="Times New Roman,serif" font-size="14.00">Count: 297</text>
<text text-anchor="middle" x="612.95" y="-169.05" font-family="Times New Roman,serif" font-size="14.00">Normalized count: 148.50</text>
<text text-anchor="middle" x="612.95" y="-154.05" font-family="Times New Roman,serif" font-size="14.00">Samples weight: 0.08</text>
</g>
<!-- BB2&#45;&gt;BB5 -->
<g id="edge5" class="edge">
<title>BB2&#45;&gt;BB5</title>
<path fill="none" stroke="black" d="M532.26,-267.35C542.69,-256.22 553.99,-244.16 564.73,-232.7"/>
<polygon fill="black" stroke="black" points="567.41,-234.96 571.69,-225.27 562.3,-230.18 567.41,-234.96"/>
</g>
<!-- BB6 -->
<g id="node7" class="node">
<title>BB6</title>
<ellipse fill="none" stroke="black" cx="856.95" cy="-180.25" rx="113.27" ry="48.17"/>
<text text-anchor="middle" x="856.95" y="-199.05" font-family="Times New Roman,serif" font-size="14.00">[7e..9a)</text>
<text text-anchor="middle" x="856.95" y="-184.05" font-family="Times New Roman,serif" font-size="14.00">Count: 314</text>
<text text-anchor="middle" x="856.95" y="-169.05" font-family="Times New Roman,serif" font-size="14.00">Normalized count: 157.00</text>
<text text-anchor="middle" x="856.95" y="-154.05" font-family="Times New Roman,serif" font-size="14.00">Samples weight: 0.08</text>
</g>
<!-- BB2&#45;&gt;BB6 -->
<g id="edge6" class="edge">
<title>BB2&#45;&gt;BB6</title>
<path fill="none" stroke="black" d="M579.35,-282.27C625.82,-266.71 683.64,-246.96 734.95,-228.33 744.84,-224.74 755.14,-220.91 765.39,-217.04"/>
<polygon fill="black" stroke="black" points="766.66,-220.31 774.76,-213.49 764.17,-213.76 766.66,-220.31"/>
</g>
<!-- BB7 -->
<g id="node8" class="node">
<title>BB7</title>
<ellipse fill="none" stroke="black" cx="1095.95" cy="-180.25" rx="108.38" ry="48.17"/>
<text text-anchor="middle" x="1095.95" y="-199.05" font-family="Times New Roman,serif" font-size="14.00">[9a..b4)</text>
<text text-anchor="middle" x="1095.95" y="-184.05" font-family="Times New Roman,serif" font-size="14.00">Count: 69</text>
<text text-anchor="middle" x="1095.95" y="-169.05" font-family="Times New Roman,serif" font-size="14.00">Normalized count: 34.50</text>
<text text-anchor="middle" x="1095.95" y="-154.05" font-family="Times New Roman,serif" font-size="14.00">Samples weight: 0.02</text>
</g>
<!-- BB2&#45;&gt;BB7 -->
<g id="edge7" class="edge">
<title>BB2&#45;&gt;BB7</title>
<path fill="none" stroke="black" d="M600.49,-299.57C700.38,-287.17 851.39,-264.41 978.95,-228.33 989.28,-225.41 999.94,-221.89 1010.42,-218.09"/>
<polygon fill="black" stroke="black" points="1011.83,-221.3 1019.99,-214.54 1009.4,-214.74 1011.83,-221.3"/>
</g>
<!-- BB8 -->
<g id="node9" class="node">
<title>BB8</title>
<ellipse fill="none" stroke="black" cx="490.95" cy="-48.08" rx="113.27" ry="48.17"/>
<text text-anchor="middle" x="490.95" y="-66.88" font-family="Times New Roman,serif" font-size="14.00">[b4..b8)</text>
<text text-anchor="middle" x="490.95" y="-51.88" font-family="Times New Roman,serif" font-size="14.00">Count: 945</text>
<text text-anchor="middle" x="490.95" y="-36.88" font-family="Times New Roman,serif" font-size="14.00">Normalized count: 472.50</text>
<text text-anchor="middle" x="490.95" y="-21.88" font-family="Times New Roman,serif" font-size="14.00">Samples weight: 0.25</text>
</g>
<!-- BB3&#45;&gt;BB8 -->
<g id="edge8" class="edge">
<title>BB3&#45;&gt;BB8</title>
<path fill="none" stroke="black" d="M209.67,-146.99C222.06,-141.88 234.83,-136.77 246.95,-132.17 294.31,-114.18 347.49,-95.85 392.09,-81.01"/>
<polygon fill="black" stroke="black" points="393.37,-84.27 401.76,-77.8 391.17,-77.62 393.37,-84.27"/>
</g>
<!-- BB4&#45;&gt;BB8 -->
<g id="edge9" class="edge">
<title>BB4&#45;&gt;BB8</title>
<path fill="none" stroke="black" d="M410.26,-135.18C420.69,-124.05 431.99,-112 442.73,-100.54"/>
<polygon fill="black" stroke="black" points="445.41,-102.8 449.69,-93.11 440.3,-98.01 445.41,-102.8"/>
</g>
<!-- BB5&#45;&gt;BB8 -->
<g id="edge10" class="edge">
<title>BB5&#45;&gt;BB8</title>
<path fill="none" stroke="black" d="M571.65,-135.18C561.22,-124.05 549.92,-112 539.18,-100.54"/>
<polygon fill="black" stroke="black" points="541.61,-98.01 532.22,-93.11 536.5,-102.8 541.61,-98.01"/>
</g>
<!-- BB6&#45;&gt;BB8 -->
<g id="edge11" class="edge">
<title>BB6&#45;&gt;BB8</title>
<path fill="none" stroke="black" d="M774.76,-147.01C761.49,-141.96 747.87,-136.85 734.95,-132.17 687.15,-114.81 633.69,-96.49 589.03,-81.48"/>
<polygon fill="black" stroke="black" points="589.94,-78.09 579.35,-78.23 587.71,-84.73 589.94,-78.09"/>
</g>
<!-- BB7&#45;&gt;BB8 -->
<g id="edge12" class="edge">
<title>BB7&#45;&gt;BB8</title>
<path fill="none" stroke="black" d="M1019.99,-145.96C1006.49,-140.83 992.44,-135.98 978.95,-132.17 855.63,-97.29 710.39,-74.85 610.61,-62.2"/>
<polygon fill="black" stroke="black" points="610.85,-58.7 600.49,-60.93 609.98,-65.65 610.85,-58.7"/>
</g>
<!-- BB8&#45;&gt;BB9 -->
<g id="edge13" class="edge">
<title>BB8&#45;&gt;BB9</title>
<path fill="none" stroke="black" d="M378.3,-52.98C254.56,-59.92 67.41,-79.12 22.95,-132.17 -45.78,-214.18 56.13,-329.96 127.16,-394.76"/>
<polygon fill="black" stroke="black" points="125.02,-397.55 134.79,-401.64 129.71,-392.35 125.02,-397.55"/>
</g>
<!-- BB9&#45;&gt;BB2 -->
<g id="edge14" class="edge">
<title>BB9&#45;&gt;BB2</title>
<path fill="none" stroke="black" d="M264.9,-409.89C307.07,-391.89 359.12,-369.68 402.64,-351.1"/>
<polygon fill="black" stroke="black" points="404.26,-354.22 412.08,-347.08 401.51,-347.78 404.26,-354.22"/>
</g>
<!-- BB9&#45;&gt;BB10 -->
<g id="edge15" class="edge">
<title>BB9&#45;&gt;BB10</title>
<path fill="none" stroke="black" d="M155.3,-491.29C148.98,-502.99 143.25,-515.9 139.95,-528.67 129.26,-570.05 120.74,-586.65 139.95,-624.83 148.17,-641.16 161.29,-655.09 175.7,-666.61"/>
<polygon fill="black" stroke="black" points="173.73,-669.51 183.81,-672.76 177.96,-663.93 173.73,-669.51"/>
</g>
<!-- BB10&#45;&gt;BB1 -->
<g id="edge16" class="edge">
<title>BB10&#45;&gt;BB1</title>
<path fill="none" stroke="black" d="M251.95,-660.55C251.95,-652.29 251.95,-643.6 251.95,-635.1"/>
<polygon fill="black" stroke="black" points="255.45,-634.86 251.95,-624.86 248.45,-634.86 255.45,-634.86"/>
</g>
<!-- BB11 -->
<g id="node12" class="node">
<title>BB11</title>
<ellipse fill="none" stroke="black" cx="475.95" cy="-576.75" rx="103.48" ry="48.17"/>
<text text-anchor="middle" x="475.95" y="-595.55" font-family="Times New Roman,serif" font-size="14.00">[cc..d3)</text>
<text text-anchor="middle" x="475.95" y="-580.55" font-family="Times New Roman,serif" font-size="14.00">Count: 2</text>
<text text-anchor="middle" x="475.95" y="-565.55" font-family="Times New Roman,serif" font-size="14.00">Normalized count: 1.00</text>
<text text-anchor="middle" x="475.95" y="-550.55" font-family="Times New Roman,serif" font-size="14.00">Samples weight: 0.00</text>
</g>
<!-- BB10&#45;&gt;BB11 -->
<g id="edge17" class="edge">
<title>BB10&#45;&gt;BB11</title>
<path fill="none" stroke="black" d="M315.54,-670.96C342.97,-655.02 375.2,-636.3 403.54,-619.83"/>
<polygon fill="black" stroke="black" points="405.32,-622.84 412.2,-614.79 401.8,-616.79 405.32,-622.84"/>
</g>
</g>
</svg>
