<?xml version="1.0" encoding="UTF-8" standalone="no"?>
<!DOCTYPE svg PUBLIC "-//W3C//DTD SVG 1.1//EN"
 "http://www.w3.org/Graphics/SVG/1.1/DTD/svg11.dtd">
<!-- Generated by graphviz version 2.47.0 (20210316.0004)
 -->
<!-- Title: G Pages: 1 -->
<svg width="2361pt" height="1426pt"
 viewBox="0.00 0.00 2361.48 1425.83" xmlns="http://www.w3.org/2000/svg" xmlns:xlink="http://www.w3.org/1999/xlink">
<g id="graph0" class="graph" transform="scale(1 1) rotate(0) translate(4 1421.83)">
<title>G</title>
<polygon fill="white" stroke="transparent" points="-4,4 -4,-1421.83 2357.48,-1421.83 2357.48,4 -4,4"/>
<!-- BB0 -->
<g id="node1" class="node">
<title>BB0</title>
<ellipse fill="none" stroke="black" cx="1466.24" cy="-1369.75" rx="103.48" ry="48.17"/>
<text text-anchor="middle" x="1466.24" y="-1388.55" font-family="Times New Roman,serif" font-size="14.00">[0..80)</text>
<text text-anchor="middle" x="1466.24" y="-1373.55" font-family="Times New Roman,serif" font-size="14.00">Count: 29</text>
<text text-anchor="middle" x="1466.24" y="-1358.55" font-family="Times New Roman,serif" font-size="14.00">Normalized count: 1.00</text>
<text text-anchor="middle" x="1466.24" y="-1343.55" font-family="Times New Roman,serif" font-size="14.00">Samples weight: 0.02</text>
</g>
<!-- BB1 -->
<g id="node2" class="node">
<title>BB1</title>
<ellipse fill="none" stroke="black" cx="2026.24" cy="-1237.58" rx="103.48" ry="48.17"/>
<text text-anchor="middle" x="2026.24" y="-1256.38" font-family="Times New Roman,serif" font-size="14.00">[80..85)</text>
<text text-anchor="middle" x="2026.24" y="-1241.38" font-family="Times New Roman,serif" font-size="14.00">Count: 0</text>
<text text-anchor="middle" x="2026.24" y="-1226.38" font-family="Times New Roman,serif" font-size="14.00">Normalized count: 0.00</text>
<text text-anchor="middle" x="2026.24" y="-1211.38" font-family="Times New Roman,serif" font-size="14.00">Samples weight: 0.00</text>
</g>
<!-- BB0&#45;&gt;BB1 -->
<g id="edge1" class="edge">
<title>BB0&#45;&gt;BB1</title>
<path fill="none" stroke="black" d="M1565.56,-1356.56C1657.31,-1343.85 1796.77,-1320.8 1914.24,-1285.67 1924.04,-1282.73 1934.15,-1279.22 1944.09,-1275.46"/>
<polygon fill="black" stroke="black" points="1945.51,-1278.66 1953.56,-1271.78 1942.97,-1272.14 1945.51,-1278.66"/>
</g>
<!-- BB2 -->
<g id="node3" class="node">
<title>BB2</title>
<ellipse fill="none" stroke="black" cx="906.24" cy="-1237.58" rx="103.48" ry="48.17"/>
<text text-anchor="middle" x="906.24" y="-1256.38" font-family="Times New Roman,serif" font-size="14.00">[85..a0)</text>
<text text-anchor="middle" x="906.24" y="-1241.38" font-family="Times New Roman,serif" font-size="14.00">Count: 0</text>
<text text-anchor="middle" x="906.24" y="-1226.38" font-family="Times New Roman,serif" font-size="14.00">Normalized count: 0.00</text>
<text text-anchor="middle" x="906.24" y="-1211.38" font-family="Times New Roman,serif" font-size="14.00">Samples weight: 0.00</text>
</g>
<!-- BB0&#45;&gt;BB2 -->
<g id="edge2" class="edge">
<title>BB0&#45;&gt;BB2</title>
<path fill="none" stroke="black" d="M1366.91,-1356.56C1275.16,-1343.85 1135.71,-1320.8 1018.24,-1285.67 1008.44,-1282.73 998.33,-1279.22 988.38,-1275.46"/>
<polygon fill="black" stroke="black" points="989.5,-1272.14 978.91,-1271.78 986.97,-1278.66 989.5,-1272.14"/>
</g>
<!-- BB4 -->
<g id="node5" class="node">
<title>BB4</title>
<ellipse fill="none" stroke="black" cx="2250.24" cy="-1237.58" rx="103.48" ry="48.17"/>
<text text-anchor="middle" x="2250.24" y="-1256.38" font-family="Times New Roman,serif" font-size="14.00">[ac..b8)</text>
<text text-anchor="middle" x="2250.24" y="-1241.38" font-family="Times New Roman,serif" font-size="14.00">Count: 0</text>
<text text-anchor="middle" x="2250.24" y="-1226.38" font-family="Times New Roman,serif" font-size="14.00">Normalized count: 0.00</text>
<text text-anchor="middle" x="2250.24" y="-1211.38" font-family="Times New Roman,serif" font-size="14.00">Samples weight: 0.00</text>
</g>
<!-- BB0&#45;&gt;BB4 -->
<g id="edge5" class="edge">
<title>BB0&#45;&gt;BB4</title>
<path fill="none" stroke="black" d="M1568.94,-1364.81C1702.21,-1357.71 1941.02,-1338.23 2138.24,-1285.67 2148.28,-1282.99 2158.6,-1279.6 2168.72,-1275.87"/>
<polygon fill="black" stroke="black" points="2170.26,-1279.03 2178.36,-1272.2 2167.76,-1272.49 2170.26,-1279.03"/>
</g>
<!-- BB5 -->
<g id="node6" class="node">
<title>BB5</title>
<ellipse fill="none" stroke="black" cx="1130.24" cy="-1237.58" rx="103.48" ry="48.17"/>
<text text-anchor="middle" x="1130.24" y="-1256.38" font-family="Times New Roman,serif" font-size="14.00">[b8..c4)</text>
<text text-anchor="middle" x="1130.24" y="-1241.38" font-family="Times New Roman,serif" font-size="14.00">Count: 0</text>
<text text-anchor="middle" x="1130.24" y="-1226.38" font-family="Times New Roman,serif" font-size="14.00">Normalized count: 0.00</text>
<text text-anchor="middle" x="1130.24" y="-1211.38" font-family="Times New Roman,serif" font-size="14.00">Samples weight: 0.00</text>
</g>
<!-- BB0&#45;&gt;BB5 -->
<g id="edge4" class="edge">
<title>BB0&#45;&gt;BB5</title>
<path fill="none" stroke="black" d="M1385.31,-1339.68C1342.59,-1324.1 1289.39,-1304.31 1242.24,-1285.67 1233.26,-1282.12 1223.92,-1278.33 1214.63,-1274.51"/>
<polygon fill="black" stroke="black" points="1215.94,-1271.27 1205.36,-1270.68 1213.27,-1277.74 1215.94,-1271.27"/>
</g>
<!-- BB6 -->
<g id="node7" class="node">
<title>BB6</title>
<ellipse fill="none" stroke="black" cx="1354.24" cy="-1237.58" rx="103.48" ry="48.17"/>
<text text-anchor="middle" x="1354.24" y="-1256.38" font-family="Times New Roman,serif" font-size="14.00">[c4..df)</text>
<text text-anchor="middle" x="1354.24" y="-1241.38" font-family="Times New Roman,serif" font-size="14.00">Count: 0</text>
<text text-anchor="middle" x="1354.24" y="-1226.38" font-family="Times New Roman,serif" font-size="14.00">Normalized count: 0.00</text>
<text text-anchor="middle" x="1354.24" y="-1211.38" font-family="Times New Roman,serif" font-size="14.00">Samples weight: 0.00</text>
</g>
<!-- BB0&#45;&gt;BB6 -->
<g id="edge3" class="edge">
<title>BB0&#45;&gt;BB6</title>
<path fill="none" stroke="black" d="M1428.32,-1324.68C1418.83,-1313.65 1408.57,-1301.73 1398.79,-1290.36"/>
<polygon fill="black" stroke="black" points="1401.29,-1287.9 1392.12,-1282.61 1395.99,-1292.47 1401.29,-1287.9"/>
</g>
<!-- BB7 -->
<g id="node8" class="node">
<title>BB7</title>
<ellipse fill="none" stroke="black" cx="652.24" cy="-1237.58" rx="108.38" ry="48.17"/>
<text text-anchor="middle" x="652.24" y="-1256.38" font-family="Times New Roman,serif" font-size="14.00">[df..110)</text>
<text text-anchor="middle" x="652.24" y="-1241.38" font-family="Times New Roman,serif" font-size="14.00">Count: 398</text>
<text text-anchor="middle" x="652.24" y="-1226.38" font-family="Times New Roman,serif" font-size="14.00">Normalized count: 13.72</text>
<text text-anchor="middle" x="652.24" y="-1211.38" font-family="Times New Roman,serif" font-size="14.00">Samples weight: 0.21</text>
</g>
<!-- BB0&#45;&gt;BB7 -->
<g id="edge6" class="edge">
<title>BB0&#45;&gt;BB7</title>
<path fill="none" stroke="black" d="M1364.13,-1362.41C1231.49,-1352.75 993.35,-1330.52 794.24,-1285.67 777.82,-1281.97 760.62,-1277.13 744.08,-1271.96"/>
<polygon fill="black" stroke="black" points="745.02,-1268.58 734.43,-1268.88 742.9,-1275.25 745.02,-1268.58"/>
</g>
<!-- BB36 -->
<g id="node37" class="node">
<title>BB36</title>
<ellipse fill="none" stroke="black" cx="1578.24" cy="-1237.58" rx="103.48" ry="48.17"/>
<text text-anchor="middle" x="1578.24" y="-1256.38" font-family="Times New Roman,serif" font-size="14.00">[30c..314)</text>
<text text-anchor="middle" x="1578.24" y="-1241.38" font-family="Times New Roman,serif" font-size="14.00">Count: 0</text>
<text text-anchor="middle" x="1578.24" y="-1226.38" font-family="Times New Roman,serif" font-size="14.00">Normalized count: 0.00</text>
<text text-anchor="middle" x="1578.24" y="-1211.38" font-family="Times New Roman,serif" font-size="14.00">Samples weight: 0.00</text>
</g>
<!-- BB0&#45;&gt;BB36 -->
<g id="edge7" class="edge">
<title>BB0&#45;&gt;BB36</title>
<path fill="none" stroke="black" d="M1504.16,-1324.68C1513.64,-1313.65 1523.91,-1301.73 1533.68,-1290.36"/>
<polygon fill="black" stroke="black" points="1536.49,-1292.47 1540.36,-1282.61 1531.18,-1287.9 1536.49,-1292.47"/>
</g>
<!-- BB37 -->
<g id="node38" class="node">
<title>BB37</title>
<ellipse fill="none" stroke="black" cx="1802.24" cy="-1237.58" rx="103.48" ry="48.17"/>
<text text-anchor="middle" x="1802.24" y="-1256.38" font-family="Times New Roman,serif" font-size="14.00">[314..31d)</text>
<text text-anchor="middle" x="1802.24" y="-1241.38" font-family="Times New Roman,serif" font-size="14.00">Count: 0</text>
<text text-anchor="middle" x="1802.24" y="-1226.38" font-family="Times New Roman,serif" font-size="14.00">Normalized count: 0.00</text>
<text text-anchor="middle" x="1802.24" y="-1211.38" font-family="Times New Roman,serif" font-size="14.00">Samples weight: 0.00</text>
</g>
<!-- BB0&#45;&gt;BB37 -->
<g id="edge8" class="edge">
<title>BB0&#45;&gt;BB37</title>
<path fill="none" stroke="black" d="M1547.17,-1339.68C1589.88,-1324.1 1643.08,-1304.31 1690.24,-1285.67 1699.21,-1282.12 1708.55,-1278.33 1717.85,-1274.51"/>
<polygon fill="black" stroke="black" points="1719.21,-1277.74 1727.11,-1270.68 1716.53,-1271.27 1719.21,-1277.74"/>
</g>
<!-- BB38 -->
<g id="node39" class="node">
<title>BB38</title>
<ellipse fill="none" stroke="black" cx="1578.24" cy="-1105.42" rx="103.48" ry="48.17"/>
<text text-anchor="middle" x="1578.24" y="-1124.22" font-family="Times New Roman,serif" font-size="14.00">[31d..324)</text>
<text text-anchor="middle" x="1578.24" y="-1109.22" font-family="Times New Roman,serif" font-size="14.00">Count: 109</text>
<text text-anchor="middle" x="1578.24" y="-1094.22" font-family="Times New Roman,serif" font-size="14.00">Normalized count: 3.76</text>
<text text-anchor="middle" x="1578.24" y="-1079.22" font-family="Times New Roman,serif" font-size="14.00">Samples weight: 0.06</text>
</g>
<!-- BB1&#45;&gt;BB38 -->
<g id="edge9" class="edge">
<title>BB1&#45;&gt;BB38</title>
<path fill="none" stroke="black" d="M1952.75,-1203.78C1940.04,-1198.66 1926.85,-1193.68 1914.24,-1189.5 1837.74,-1164.13 1749.18,-1142.54 1682.19,-1127.73"/>
<polygon fill="black" stroke="black" points="1682.56,-1124.23 1672.05,-1125.51 1681.06,-1131.07 1682.56,-1124.23"/>
</g>
<!-- BB3 -->
<g id="node4" class="node">
<title>BB3</title>
<ellipse fill="none" stroke="black" cx="1130.24" cy="-1105.42" rx="103.48" ry="48.17"/>
<text text-anchor="middle" x="1130.24" y="-1124.22" font-family="Times New Roman,serif" font-size="14.00">[a0..ac)</text>
<text text-anchor="middle" x="1130.24" y="-1109.22" font-family="Times New Roman,serif" font-size="14.00">Count: 0</text>
<text text-anchor="middle" x="1130.24" y="-1094.22" font-family="Times New Roman,serif" font-size="14.00">Normalized count: 0.00</text>
<text text-anchor="middle" x="1130.24" y="-1079.22" font-family="Times New Roman,serif" font-size="14.00">Samples weight: 0.00</text>
</g>
<!-- BB2&#45;&gt;BB3 -->
<g id="edge11" class="edge">
<title>BB2&#45;&gt;BB3</title>
<path fill="none" stroke="black" d="M969.83,-1199.63C997.26,-1183.69 1029.48,-1164.96 1057.83,-1148.49"/>
<polygon fill="black" stroke="black" points="1059.6,-1151.51 1066.49,-1143.46 1056.08,-1145.46 1059.6,-1151.51"/>
</g>
<!-- BB2&#45;&gt;BB38 -->
<g id="edge10" class="edge">
<title>BB2&#45;&gt;BB38</title>
<path fill="none" stroke="black" d="M978.5,-1203.11C991.53,-1197.97 1005.14,-1193.16 1018.24,-1189.5 1039.74,-1183.49 1313,-1144.13 1469.69,-1121.81"/>
<polygon fill="black" stroke="black" points="1470.43,-1125.24 1479.84,-1120.36 1469.44,-1118.31 1470.43,-1125.24"/>
</g>
<!-- BB3&#45;&gt;BB38 -->
<g id="edge12" class="edge">
<title>BB3&#45;&gt;BB38</title>
<path fill="none" stroke="black" d="M1233.49,-1105.42C1310.49,-1105.42 1387.5,-1105.42 1464.51,-1105.42"/>
<polygon fill="black" stroke="black" points="1464.88,-1108.92 1474.88,-1105.42 1464.88,-1101.92 1464.88,-1108.92"/>
</g>
<!-- BB4&#45;&gt;BB38 -->
<g id="edge13" class="edge">
<title>BB4&#45;&gt;BB38</title>
<path fill="none" stroke="black" d="M2177.98,-1203.11C2164.95,-1197.97 2151.34,-1193.16 2138.24,-1189.5 1986.17,-1146.98 1804.43,-1125.11 1690.14,-1114.71"/>
<polygon fill="black" stroke="black" points="1690.25,-1111.21 1679.98,-1113.8 1689.63,-1118.18 1690.25,-1111.21"/>
</g>
<!-- BB5&#45;&gt;BB38 -->
<g id="edge14" class="edge">
<title>BB5&#45;&gt;BB38</title>
<path fill="none" stroke="black" d="M1203.72,-1203.78C1216.44,-1198.66 1229.62,-1193.68 1242.24,-1189.5 1318.73,-1164.13 1407.3,-1142.54 1474.29,-1127.73"/>
<polygon fill="black" stroke="black" points="1475.41,-1131.07 1484.43,-1125.51 1473.91,-1124.23 1475.41,-1131.07"/>
</g>
<!-- BB6&#45;&gt;BB38 -->
<g id="edge15" class="edge">
<title>BB6&#45;&gt;BB38</title>
<path fill="none" stroke="black" d="M1417.83,-1199.63C1445.26,-1183.69 1477.48,-1164.96 1505.83,-1148.49"/>
<polygon fill="black" stroke="black" points="1507.6,-1151.51 1514.49,-1143.46 1504.08,-1145.46 1507.6,-1151.51"/>
</g>
<!-- BB8 -->
<g id="node9" class="node">
<title>BB8</title>
<ellipse fill="none" stroke="black" cx="327.24" cy="-1105.42" rx="103.48" ry="48.17"/>
<text text-anchor="middle" x="327.24" y="-1124.22" font-family="Times New Roman,serif" font-size="14.00">[110..11a)</text>
<text text-anchor="middle" x="327.24" y="-1109.22" font-family="Times New Roman,serif" font-size="14.00">Count: 15</text>
<text text-anchor="middle" x="327.24" y="-1094.22" font-family="Times New Roman,serif" font-size="14.00">Normalized count: 0.52</text>
<text text-anchor="middle" x="327.24" y="-1079.22" font-family="Times New Roman,serif" font-size="14.00">Samples weight: 0.01</text>
</g>
<!-- BB7&#45;&gt;BB8 -->
<g id="edge17" class="edge">
<title>BB7&#45;&gt;BB8</title>
<path fill="none" stroke="black" d="M572.73,-1204.74C524.63,-1185.47 463.25,-1160.89 413.9,-1141.13"/>
<polygon fill="black" stroke="black" points="415.1,-1137.84 404.52,-1137.37 412.5,-1144.34 415.1,-1137.84"/>
</g>
<!-- BB13 -->
<g id="node14" class="node">
<title>BB13</title>
<ellipse fill="none" stroke="black" cx="652.24" cy="-1105.42" rx="103.48" ry="48.17"/>
<text text-anchor="middle" x="652.24" y="-1124.22" font-family="Times New Roman,serif" font-size="14.00">[150..154)</text>
<text text-anchor="middle" x="652.24" y="-1109.22" font-family="Times New Roman,serif" font-size="14.00">Count: 48</text>
<text text-anchor="middle" x="652.24" y="-1094.22" font-family="Times New Roman,serif" font-size="14.00">Normalized count: 1.66</text>
<text text-anchor="middle" x="652.24" y="-1079.22" font-family="Times New Roman,serif" font-size="14.00">Samples weight: 0.03</text>
</g>
<!-- BB7&#45;&gt;BB13 -->
<g id="edge16" class="edge">
<title>BB7&#45;&gt;BB13</title>
<path fill="none" stroke="black" d="M652.24,-1189.22C652.24,-1180.95 652.24,-1172.27 652.24,-1163.77"/>
<polygon fill="black" stroke="black" points="655.74,-1163.52 652.24,-1153.52 648.74,-1163.52 655.74,-1163.52"/>
</g>
<!-- BB9 -->
<g id="node10" class="node">
<title>BB9</title>
<ellipse fill="none" stroke="black" cx="103.24" cy="-973.25" rx="103.48" ry="48.17"/>
<text text-anchor="middle" x="103.24" y="-992.05" font-family="Times New Roman,serif" font-size="14.00">[11a..124)</text>
<text text-anchor="middle" x="103.24" y="-977.05" font-family="Times New Roman,serif" font-size="14.00">Count: 15</text>
<text text-anchor="middle" x="103.24" y="-962.05" font-family="Times New Roman,serif" font-size="14.00">Normalized count: 0.52</text>
<text text-anchor="middle" x="103.24" y="-947.05" font-family="Times New Roman,serif" font-size="14.00">Samples weight: 0.01</text>
</g>
<!-- BB8&#45;&gt;BB9 -->
<g id="edge19" class="edge">
<title>BB8&#45;&gt;BB9</title>
<path fill="none" stroke="black" d="M263.65,-1067.46C236.22,-1051.52 203.99,-1032.8 175.65,-1016.33"/>
<polygon fill="black" stroke="black" points="177.39,-1013.29 166.99,-1011.29 173.87,-1019.34 177.39,-1013.29"/>
</g>
<!-- BB10 -->
<g id="node11" class="node">
<title>BB10</title>
<ellipse fill="none" stroke="black" cx="327.24" cy="-973.25" rx="103.48" ry="48.17"/>
<text text-anchor="middle" x="327.24" y="-992.05" font-family="Times New Roman,serif" font-size="14.00">[124..12d)</text>
<text text-anchor="middle" x="327.24" y="-977.05" font-family="Times New Roman,serif" font-size="14.00">Count: 0</text>
<text text-anchor="middle" x="327.24" y="-962.05" font-family="Times New Roman,serif" font-size="14.00">Normalized count: 0.00</text>
<text text-anchor="middle" x="327.24" y="-947.05" font-family="Times New Roman,serif" font-size="14.00">Samples weight: 0.00</text>
</g>
<!-- BB8&#45;&gt;BB10 -->
<g id="edge18" class="edge">
<title>BB8&#45;&gt;BB10</title>
<path fill="none" stroke="black" d="M327.24,-1057.05C327.24,-1048.79 327.24,-1040.1 327.24,-1031.6"/>
<polygon fill="black" stroke="black" points="330.74,-1031.36 327.24,-1021.36 323.74,-1031.36 330.74,-1031.36"/>
</g>
<!-- BB9&#45;&gt;BB10 -->
<g id="edge21" class="edge">
<title>BB9&#45;&gt;BB10</title>
<path fill="none" stroke="black" d="M206.49,-973.25C208.94,-973.25 211.4,-973.25 213.85,-973.25"/>
<polygon fill="black" stroke="black" points="213.94,-976.75 223.94,-973.25 213.94,-969.75 213.94,-976.75"/>
</g>
<!-- BB11 -->
<g id="node12" class="node">
<title>BB11</title>
<ellipse fill="none" stroke="black" cx="103.24" cy="-841.08" rx="103.48" ry="48.17"/>
<text text-anchor="middle" x="103.24" y="-859.88" font-family="Times New Roman,serif" font-size="14.00">[12d..134)</text>
<text text-anchor="middle" x="103.24" y="-844.88" font-family="Times New Roman,serif" font-size="14.00">Count: 16</text>
<text text-anchor="middle" x="103.24" y="-829.88" font-family="Times New Roman,serif" font-size="14.00">Normalized count: 0.55</text>
<text text-anchor="middle" x="103.24" y="-814.88" font-family="Times New Roman,serif" font-size="14.00">Samples weight: 0.01</text>
</g>
<!-- BB9&#45;&gt;BB11 -->
<g id="edge20" class="edge">
<title>BB9&#45;&gt;BB11</title>
<path fill="none" stroke="black" d="M103.24,-924.89C103.24,-916.62 103.24,-907.94 103.24,-899.43"/>
<polygon fill="black" stroke="black" points="106.74,-899.19 103.24,-889.19 99.74,-899.19 106.74,-899.19"/>
</g>
<!-- BB12 -->
<g id="node13" class="node">
<title>BB12</title>
<ellipse fill="none" stroke="black" cx="327.24" cy="-841.08" rx="103.48" ry="48.17"/>
<text text-anchor="middle" x="327.24" y="-859.88" font-family="Times New Roman,serif" font-size="14.00">[134..150)</text>
<text text-anchor="middle" x="327.24" y="-844.88" font-family="Times New Roman,serif" font-size="14.00">Count: 16</text>
<text text-anchor="middle" x="327.24" y="-829.88" font-family="Times New Roman,serif" font-size="14.00">Normalized count: 0.55</text>
<text text-anchor="middle" x="327.24" y="-814.88" font-family="Times New Roman,serif" font-size="14.00">Samples weight: 0.01</text>
</g>
<!-- BB10&#45;&gt;BB12 -->
<g id="edge22" class="edge">
<title>BB10&#45;&gt;BB12</title>
<path fill="none" stroke="black" d="M327.24,-924.89C327.24,-916.62 327.24,-907.94 327.24,-899.43"/>
<polygon fill="black" stroke="black" points="330.74,-899.19 327.24,-889.19 323.74,-899.19 330.74,-899.19"/>
</g>
<!-- BB11&#45;&gt;BB12 -->
<g id="edge23" class="edge">
<title>BB11&#45;&gt;BB12</title>
<path fill="none" stroke="black" d="M206.49,-841.08C208.94,-841.08 211.4,-841.08 213.85,-841.08"/>
<polygon fill="black" stroke="black" points="213.94,-844.58 223.94,-841.08 213.94,-837.58 213.94,-844.58"/>
</g>
<!-- BB16 -->
<g id="node17" class="node">
<title>BB16</title>
<ellipse fill="none" stroke="black" cx="551.24" cy="-841.08" rx="103.48" ry="48.17"/>
<text text-anchor="middle" x="551.24" y="-859.88" font-family="Times New Roman,serif" font-size="14.00">[1b8..1ce)</text>
<text text-anchor="middle" x="551.24" y="-844.88" font-family="Times New Roman,serif" font-size="14.00">Count: 66</text>
<text text-anchor="middle" x="551.24" y="-829.88" font-family="Times New Roman,serif" font-size="14.00">Normalized count: 2.28</text>
<text text-anchor="middle" x="551.24" y="-814.88" font-family="Times New Roman,serif" font-size="14.00">Samples weight: 0.03</text>
</g>
<!-- BB12&#45;&gt;BB16 -->
<g id="edge24" class="edge">
<title>BB12&#45;&gt;BB16</title>
<path fill="none" stroke="black" d="M430.49,-841.08C432.94,-841.08 435.4,-841.08 437.85,-841.08"/>
<polygon fill="black" stroke="black" points="437.94,-844.58 447.94,-841.08 437.94,-837.58 437.94,-844.58"/>
</g>
<!-- BB14 -->
<g id="node15" class="node">
<title>BB14</title>
<ellipse fill="none" stroke="black" cx="551.24" cy="-973.25" rx="103.48" ry="48.17"/>
<text text-anchor="middle" x="551.24" y="-992.05" font-family="Times New Roman,serif" font-size="14.00">[154..185)</text>
<text text-anchor="middle" x="551.24" y="-977.05" font-family="Times New Roman,serif" font-size="14.00">Count: 49</text>
<text text-anchor="middle" x="551.24" y="-962.05" font-family="Times New Roman,serif" font-size="14.00">Normalized count: 1.69</text>
<text text-anchor="middle" x="551.24" y="-947.05" font-family="Times New Roman,serif" font-size="14.00">Samples weight: 0.03</text>
</g>
<!-- BB13&#45;&gt;BB14 -->
<g id="edge26" class="edge">
<title>BB13&#45;&gt;BB14</title>
<path fill="none" stroke="black" d="M617.76,-1059.98C609.48,-1049.32 600.57,-1037.82 592.03,-1026.82"/>
<polygon fill="black" stroke="black" points="594.8,-1024.68 585.9,-1018.92 589.27,-1028.97 594.8,-1024.68"/>
</g>
<!-- BB15 -->
<g id="node16" class="node">
<title>BB15</title>
<ellipse fill="none" stroke="black" cx="775.24" cy="-973.25" rx="103.48" ry="48.17"/>
<text text-anchor="middle" x="775.24" y="-992.05" font-family="Times New Roman,serif" font-size="14.00">[185..1b8)</text>
<text text-anchor="middle" x="775.24" y="-977.05" font-family="Times New Roman,serif" font-size="14.00">Count: 46</text>
<text text-anchor="middle" x="775.24" y="-962.05" font-family="Times New Roman,serif" font-size="14.00">Normalized count: 1.59</text>
<text text-anchor="middle" x="775.24" y="-947.05" font-family="Times New Roman,serif" font-size="14.00">Samples weight: 0.02</text>
</g>
<!-- BB13&#45;&gt;BB15 -->
<g id="edge25" class="edge">
<title>BB13&#45;&gt;BB15</title>
<path fill="none" stroke="black" d="M693.19,-1061.07C704.07,-1049.56 715.92,-1037.02 727.15,-1025.14"/>
<polygon fill="black" stroke="black" points="729.72,-1027.52 734.04,-1017.85 724.63,-1022.71 729.72,-1027.52"/>
</g>
<!-- BB14&#45;&gt;BB16 -->
<g id="edge27" class="edge">
<title>BB14&#45;&gt;BB16</title>
<path fill="none" stroke="black" d="M551.24,-924.89C551.24,-916.62 551.24,-907.94 551.24,-899.43"/>
<polygon fill="black" stroke="black" points="554.74,-899.19 551.24,-889.19 547.74,-899.19 554.74,-899.19"/>
</g>
<!-- BB15&#45;&gt;BB16 -->
<g id="edge28" class="edge">
<title>BB15&#45;&gt;BB16</title>
<path fill="none" stroke="black" d="M711.65,-935.3C684.22,-919.36 651.99,-900.63 623.65,-884.16"/>
<polygon fill="black" stroke="black" points="625.39,-881.13 614.99,-879.13 621.87,-887.18 625.39,-881.13"/>
</g>
<!-- BB17 -->
<g id="node18" class="node">
<title>BB17</title>
<ellipse fill="none" stroke="black" cx="775.24" cy="-708.92" rx="103.48" ry="48.17"/>
<text text-anchor="middle" x="775.24" y="-727.72" font-family="Times New Roman,serif" font-size="14.00">[1ce..1d4)</text>
<text text-anchor="middle" x="775.24" y="-712.72" font-family="Times New Roman,serif" font-size="14.00">Count: 33</text>
<text text-anchor="middle" x="775.24" y="-697.72" font-family="Times New Roman,serif" font-size="14.00">Normalized count: 1.14</text>
<text text-anchor="middle" x="775.24" y="-682.72" font-family="Times New Roman,serif" font-size="14.00">Samples weight: 0.02</text>
</g>
<!-- BB16&#45;&gt;BB17 -->
<g id="edge30" class="edge">
<title>BB16&#45;&gt;BB17</title>
<path fill="none" stroke="black" d="M614.83,-803.13C642.26,-787.19 674.48,-768.46 702.83,-751.99"/>
<polygon fill="black" stroke="black" points="704.6,-755.01 711.49,-746.96 701.08,-748.96 704.6,-755.01"/>
</g>
<!-- BB29 -->
<g id="node30" class="node">
<title>BB29</title>
<ellipse fill="none" stroke="black" cx="551.24" cy="-708.92" rx="103.48" ry="48.17"/>
<text text-anchor="middle" x="551.24" y="-727.72" font-family="Times New Roman,serif" font-size="14.00">[280..286)</text>
<text text-anchor="middle" x="551.24" y="-712.72" font-family="Times New Roman,serif" font-size="14.00">Count: 34</text>
<text text-anchor="middle" x="551.24" y="-697.72" font-family="Times New Roman,serif" font-size="14.00">Normalized count: 1.17</text>
<text text-anchor="middle" x="551.24" y="-682.72" font-family="Times New Roman,serif" font-size="14.00">Samples weight: 0.02</text>
</g>
<!-- BB16&#45;&gt;BB29 -->
<g id="edge29" class="edge">
<title>BB16&#45;&gt;BB29</title>
<path fill="none" stroke="black" d="M551.24,-792.72C551.24,-784.45 551.24,-775.77 551.24,-767.27"/>
<polygon fill="black" stroke="black" points="554.74,-767.02 551.24,-757.02 547.74,-767.02 554.74,-767.02"/>
</g>
<!-- BB19 -->
<g id="node20" class="node">
<title>BB19</title>
<ellipse fill="none" stroke="black" cx="1197.24" cy="-576.75" rx="103.48" ry="48.17"/>
<text text-anchor="middle" x="1197.24" y="-595.55" font-family="Times New Roman,serif" font-size="14.00">[1fd..201)</text>
<text text-anchor="middle" x="1197.24" y="-580.55" font-family="Times New Roman,serif" font-size="14.00">Count: 135</text>
<text text-anchor="middle" x="1197.24" y="-565.55" font-family="Times New Roman,serif" font-size="14.00">Normalized count: 4.66</text>
<text text-anchor="middle" x="1197.24" y="-550.55" font-family="Times New Roman,serif" font-size="14.00">Samples weight: 0.07</text>
</g>
<!-- BB17&#45;&gt;BB19 -->
<g id="edge31" class="edge">
<title>BB17&#45;&gt;BB19</title>
<path fill="none" stroke="black" d="M860.38,-681.65C930.43,-660.05 1029.64,-629.45 1102.25,-607.05"/>
<polygon fill="black" stroke="black" points="1103.34,-610.38 1111.86,-604.08 1101.28,-603.69 1103.34,-610.38"/>
</g>
<!-- BB18 -->
<g id="node19" class="node">
<title>BB18</title>
<ellipse fill="none" stroke="black" cx="1409.24" cy="-444.58" rx="103.48" ry="48.17"/>
<text text-anchor="middle" x="1409.24" y="-463.38" font-family="Times New Roman,serif" font-size="14.00">[1d4..1fd)</text>
<text text-anchor="middle" x="1409.24" y="-448.38" font-family="Times New Roman,serif" font-size="14.00">Count: 218</text>
<text text-anchor="middle" x="1409.24" y="-433.38" font-family="Times New Roman,serif" font-size="14.00">Normalized count: 7.52</text>
<text text-anchor="middle" x="1409.24" y="-418.38" font-family="Times New Roman,serif" font-size="14.00">Samples weight: 0.11</text>
</g>
<!-- BB18&#45;&gt;BB19 -->
<g id="edge32" class="edge">
<title>BB18&#45;&gt;BB19</title>
<path fill="none" stroke="black" d="M1351.71,-484.74C1326.99,-500.31 1297.82,-518.24 1271.51,-534.04"/>
<polygon fill="black" stroke="black" points="1269.49,-531.18 1262.7,-539.32 1273.08,-537.18 1269.49,-531.18"/>
</g>
<!-- BB19&#45;&gt;BB18 -->
<g id="edge33" class="edge">
<title>BB19&#45;&gt;BB18</title>
<path fill="none" stroke="black" d="M1254.6,-536.7C1279.38,-521.09 1308.67,-503.09 1335.07,-487.23"/>
<polygon fill="black" stroke="black" points="1337.12,-490.08 1343.9,-481.94 1333.52,-484.07 1337.12,-490.08"/>
</g>
<!-- BB20 -->
<g id="node21" class="node">
<title>BB20</title>
<ellipse fill="none" stroke="black" cx="961.24" cy="-444.58" rx="103.48" ry="48.17"/>
<text text-anchor="middle" x="961.24" y="-463.38" font-family="Times New Roman,serif" font-size="14.00">[201..204)</text>
<text text-anchor="middle" x="961.24" y="-448.38" font-family="Times New Roman,serif" font-size="14.00">Count: 17</text>
<text text-anchor="middle" x="961.24" y="-433.38" font-family="Times New Roman,serif" font-size="14.00">Normalized count: 0.59</text>
<text text-anchor="middle" x="961.24" y="-418.38" font-family="Times New Roman,serif" font-size="14.00">Samples weight: 0.01</text>
</g>
<!-- BB19&#45;&gt;BB20 -->
<g id="edge34" class="edge">
<title>BB19&#45;&gt;BB20</title>
<path fill="none" stroke="black" d="M1131.5,-539.49C1101.83,-523.13 1066.64,-503.72 1035.97,-486.8"/>
<polygon fill="black" stroke="black" points="1037.48,-483.64 1027.03,-481.87 1034.1,-489.77 1037.48,-483.64"/>
</g>
<!-- BB21 -->
<g id="node22" class="node">
<title>BB21</title>
<ellipse fill="none" stroke="black" cx="961.24" cy="-312.42" rx="103.48" ry="48.17"/>
<text text-anchor="middle" x="961.24" y="-331.22" font-family="Times New Roman,serif" font-size="14.00">[204..21a)</text>
<text text-anchor="middle" x="961.24" y="-316.22" font-family="Times New Roman,serif" font-size="14.00">Count: 12</text>
<text text-anchor="middle" x="961.24" y="-301.22" font-family="Times New Roman,serif" font-size="14.00">Normalized count: 0.41</text>
<text text-anchor="middle" x="961.24" y="-286.22" font-family="Times New Roman,serif" font-size="14.00">Samples weight: 0.01</text>
</g>
<!-- BB20&#45;&gt;BB21 -->
<g id="edge36" class="edge">
<title>BB20&#45;&gt;BB21</title>
<path fill="none" stroke="black" d="M961.24,-396.22C961.24,-387.95 961.24,-379.27 961.24,-370.77"/>
<polygon fill="black" stroke="black" points="964.74,-370.52 961.24,-360.52 957.74,-370.52 964.74,-370.52"/>
</g>
<!-- BB24 -->
<g id="node25" class="node">
<title>BB24</title>
<ellipse fill="none" stroke="black" cx="1185.24" cy="-312.42" rx="103.48" ry="48.17"/>
<text text-anchor="middle" x="1185.24" y="-331.22" font-family="Times New Roman,serif" font-size="14.00">[23e..24b)</text>
<text text-anchor="middle" x="1185.24" y="-316.22" font-family="Times New Roman,serif" font-size="14.00">Count: 35</text>
<text text-anchor="middle" x="1185.24" y="-301.22" font-family="Times New Roman,serif" font-size="14.00">Normalized count: 1.21</text>
<text text-anchor="middle" x="1185.24" y="-286.22" font-family="Times New Roman,serif" font-size="14.00">Samples weight: 0.02</text>
</g>
<!-- BB20&#45;&gt;BB24 -->
<g id="edge35" class="edge">
<title>BB20&#45;&gt;BB24</title>
<path fill="none" stroke="black" d="M1024.83,-406.63C1052.26,-390.69 1084.48,-371.97 1112.83,-355.49"/>
<polygon fill="black" stroke="black" points="1114.6,-358.51 1121.49,-350.46 1111.08,-352.46 1114.6,-358.51"/>
</g>
<!-- BB23 -->
<g id="node24" class="node">
<title>BB23</title>
<ellipse fill="none" stroke="black" cx="699.24" cy="-180.25" rx="103.48" ry="48.17"/>
<text text-anchor="middle" x="699.24" y="-199.05" font-family="Times New Roman,serif" font-size="14.00">[23a..23e)</text>
<text text-anchor="middle" x="699.24" y="-184.05" font-family="Times New Roman,serif" font-size="14.00">Count: 34</text>
<text text-anchor="middle" x="699.24" y="-169.05" font-family="Times New Roman,serif" font-size="14.00">Normalized count: 1.17</text>
<text text-anchor="middle" x="699.24" y="-154.05" font-family="Times New Roman,serif" font-size="14.00">Samples weight: 0.02</text>
</g>
<!-- BB21&#45;&gt;BB23 -->
<g id="edge37" class="edge">
<title>BB21&#45;&gt;BB23</title>
<path fill="none" stroke="black" d="M891.37,-276.71C856.43,-259.35 814.02,-238.28 777.94,-220.35"/>
<polygon fill="black" stroke="black" points="779.42,-217.18 768.91,-215.86 776.31,-223.45 779.42,-217.18"/>
</g>
<!-- BB22 -->
<g id="node23" class="node">
<title>BB22</title>
<ellipse fill="none" stroke="black" cx="699.24" cy="-48.08" rx="103.48" ry="48.17"/>
<text text-anchor="middle" x="699.24" y="-66.88" font-family="Times New Roman,serif" font-size="14.00">[21a..23a)</text>
<text text-anchor="middle" x="699.24" y="-51.88" font-family="Times New Roman,serif" font-size="14.00">Count: 49</text>
<text text-anchor="middle" x="699.24" y="-36.88" font-family="Times New Roman,serif" font-size="14.00">Normalized count: 1.69</text>
<text text-anchor="middle" x="699.24" y="-21.88" font-family="Times New Roman,serif" font-size="14.00">Samples weight: 0.03</text>
</g>
<!-- BB22&#45;&gt;BB23 -->
<g id="edge38" class="edge">
<title>BB22&#45;&gt;BB23</title>
<path fill="none" stroke="black" d="M705.76,-96.44C705.98,-104.74 706.04,-113.45 705.94,-121.98"/>
<polygon fill="black" stroke="black" points="702.44,-122.19 705.75,-132.26 709.44,-122.32 702.44,-122.19"/>
</g>
<!-- BB23&#45;&gt;BB22 -->
<g id="edge39" class="edge">
<title>BB23&#45;&gt;BB22</title>
<path fill="none" stroke="black" d="M692.72,-132.26C692.5,-123.88 692.43,-115.07 692.53,-106.45"/>
<polygon fill="black" stroke="black" points="696.03,-106.51 692.72,-96.44 689.03,-106.38 696.03,-106.51"/>
</g>
<!-- BB23&#45;&gt;BB24 -->
<g id="edge40" class="edge">
<title>BB23&#45;&gt;BB24</title>
<path fill="none" stroke="black" d="M795.8,-197.77C872.07,-211.99 980.71,-234.87 1073.24,-264.33 1082.83,-267.39 1092.74,-270.94 1102.52,-274.7"/>
<polygon fill="black" stroke="black" points="1101.25,-277.96 1111.84,-278.36 1103.81,-271.45 1101.25,-277.96"/>
</g>
<!-- BB25 -->
<g id="node26" class="node">
<title>BB25</title>
<ellipse fill="none" stroke="black" cx="1438.24" cy="-180.25" rx="103.48" ry="48.17"/>
<text text-anchor="middle" x="1438.24" y="-199.05" font-family="Times New Roman,serif" font-size="14.00">[24b..25e)</text>
<text text-anchor="middle" x="1438.24" y="-184.05" font-family="Times New Roman,serif" font-size="14.00">Count: 0</text>
<text text-anchor="middle" x="1438.24" y="-169.05" font-family="Times New Roman,serif" font-size="14.00">Normalized count: 0.00</text>
<text text-anchor="middle" x="1438.24" y="-154.05" font-family="Times New Roman,serif" font-size="14.00">Samples weight: 0.00</text>
</g>
<!-- BB24&#45;&gt;BB25 -->
<g id="edge42" class="edge">
<title>BB24&#45;&gt;BB25</title>
<path fill="none" stroke="black" d="M1253.7,-276.19C1286.75,-259.19 1326.54,-238.72 1360.7,-221.14"/>
<polygon fill="black" stroke="black" points="1362.43,-224.19 1369.72,-216.5 1359.22,-217.97 1362.43,-224.19"/>
</g>
<!-- BB26 -->
<g id="node27" class="node">
<title>BB26</title>
<ellipse fill="none" stroke="black" cx="1185.24" cy="-180.25" rx="103.48" ry="48.17"/>
<text text-anchor="middle" x="1185.24" y="-199.05" font-family="Times New Roman,serif" font-size="14.00">[25e..268)</text>
<text text-anchor="middle" x="1185.24" y="-184.05" font-family="Times New Roman,serif" font-size="14.00">Count: 25</text>
<text text-anchor="middle" x="1185.24" y="-169.05" font-family="Times New Roman,serif" font-size="14.00">Normalized count: 0.86</text>
<text text-anchor="middle" x="1185.24" y="-154.05" font-family="Times New Roman,serif" font-size="14.00">Samples weight: 0.01</text>
</g>
<!-- BB24&#45;&gt;BB26 -->
<g id="edge41" class="edge">
<title>BB24&#45;&gt;BB26</title>
<path fill="none" stroke="black" d="M1185.24,-264.05C1185.24,-255.79 1185.24,-247.1 1185.24,-238.6"/>
<polygon fill="black" stroke="black" points="1188.74,-238.36 1185.24,-228.36 1181.74,-238.36 1188.74,-238.36"/>
</g>
<!-- BB25&#45;&gt;BB38 -->
<g id="edge43" class="edge">
<title>BB25&#45;&gt;BB38</title>
<path fill="none" stroke="black" d="M1488.95,-222.46C1501.2,-234.74 1513.09,-249.04 1521.24,-264.33 1554.32,-326.42 1578.24,-505.4 1578.24,-575.75 1578.24,-842.08 1578.24,-842.08 1578.24,-842.08 1578.24,-912.53 1578.24,-993.63 1578.24,-1046.78"/>
<polygon fill="black" stroke="black" points="1574.74,-1047.02 1578.24,-1057.02 1581.74,-1047.02 1574.74,-1047.02"/>
</g>
<!-- BB27 -->
<g id="node28" class="node">
<title>BB27</title>
<ellipse fill="none" stroke="black" cx="1073.24" cy="-48.08" rx="103.48" ry="48.17"/>
<text text-anchor="middle" x="1073.24" y="-66.88" font-family="Times New Roman,serif" font-size="14.00">[268..275)</text>
<text text-anchor="middle" x="1073.24" y="-51.88" font-family="Times New Roman,serif" font-size="14.00">Count: 0</text>
<text text-anchor="middle" x="1073.24" y="-36.88" font-family="Times New Roman,serif" font-size="14.00">Normalized count: 0.00</text>
<text text-anchor="middle" x="1073.24" y="-21.88" font-family="Times New Roman,serif" font-size="14.00">Samples weight: 0.00</text>
</g>
<!-- BB26&#45;&gt;BB27 -->
<g id="edge45" class="edge">
<title>BB26&#45;&gt;BB27</title>
<path fill="none" stroke="black" d="M1147.32,-135.18C1137.83,-124.16 1127.57,-112.23 1117.79,-100.86"/>
<polygon fill="black" stroke="black" points="1120.29,-98.4 1111.12,-93.11 1114.99,-102.97 1120.29,-98.4"/>
</g>
<!-- BB28 -->
<g id="node29" class="node">
<title>BB28</title>
<ellipse fill="none" stroke="black" cx="1297.24" cy="-48.08" rx="103.48" ry="48.17"/>
<text text-anchor="middle" x="1297.24" y="-66.88" font-family="Times New Roman,serif" font-size="14.00">[275..280)</text>
<text text-anchor="middle" x="1297.24" y="-51.88" font-family="Times New Roman,serif" font-size="14.00">Count: 43</text>
<text text-anchor="middle" x="1297.24" y="-36.88" font-family="Times New Roman,serif" font-size="14.00">Normalized count: 1.48</text>
<text text-anchor="middle" x="1297.24" y="-21.88" font-family="Times New Roman,serif" font-size="14.00">Samples weight: 0.02</text>
</g>
<!-- BB26&#45;&gt;BB28 -->
<g id="edge44" class="edge">
<title>BB26&#45;&gt;BB28</title>
<path fill="none" stroke="black" d="M1223.16,-135.18C1232.64,-124.16 1242.91,-112.23 1252.68,-100.86"/>
<polygon fill="black" stroke="black" points="1255.49,-102.97 1259.36,-93.11 1250.18,-98.4 1255.49,-102.97"/>
</g>
<!-- BB27&#45;&gt;BB28 -->
<g id="edge47" class="edge">
<title>BB27&#45;&gt;BB28</title>
<path fill="none" stroke="black" d="M1176.49,-48.08C1178.94,-48.08 1181.4,-48.08 1183.85,-48.08"/>
<polygon fill="black" stroke="black" points="1183.94,-51.58 1193.94,-48.08 1183.94,-44.58 1183.94,-51.58"/>
</g>
<!-- BB27&#45;&gt;BB38 -->
<g id="edge46" class="edge">
<title>BB27&#45;&gt;BB38</title>
<path fill="none" stroke="black" d="M1011.97,-86.88C957.69,-124.33 882.1,-187.17 849.24,-264.33 809.47,-357.7 806.35,-400.69 849.24,-492.67 985.3,-784.47 1336.63,-986.49 1496.66,-1066.34"/>
<polygon fill="black" stroke="black" points="1495.48,-1069.66 1505.99,-1070.97 1498.58,-1063.39 1495.48,-1069.66"/>
</g>
<!-- BB28&#45;&gt;BB38 -->
<g id="edge48" class="edge">
<title>BB28&#45;&gt;BB38</title>
<path fill="none" stroke="black" d="M1400.03,-52.64C1530.67,-59.36 1746.02,-78.47 1802.24,-132.17 1861.13,-188.42 1840.24,-229.98 1840.24,-311.42 1840.24,-842.08 1840.24,-842.08 1840.24,-842.08 1840.24,-930.25 1817.71,-959.11 1755.24,-1021.33 1732.34,-1044.14 1702,-1061.47 1672.91,-1074.25"/>
<polygon fill="black" stroke="black" points="1671.36,-1071.11 1663.52,-1078.24 1674.1,-1077.55 1671.36,-1071.11"/>
</g>
<!-- BB31 -->
<g id="node32" class="node">
<title>BB31</title>
<ellipse fill="none" stroke="black" cx="674.24" cy="-576.75" rx="103.48" ry="48.17"/>
<text text-anchor="middle" x="674.24" y="-595.55" font-family="Times New Roman,serif" font-size="14.00">[2af..2b3)</text>
<text text-anchor="middle" x="674.24" y="-580.55" font-family="Times New Roman,serif" font-size="14.00">Count: 149</text>
<text text-anchor="middle" x="674.24" y="-565.55" font-family="Times New Roman,serif" font-size="14.00">Normalized count: 5.14</text>
<text text-anchor="middle" x="674.24" y="-550.55" font-family="Times New Roman,serif" font-size="14.00">Samples weight: 0.08</text>
</g>
<!-- BB29&#45;&gt;BB31 -->
<g id="edge49" class="edge">
<title>BB29&#45;&gt;BB31</title>
<path fill="none" stroke="black" d="M592.19,-664.57C603.07,-653.06 614.92,-640.52 626.15,-628.64"/>
<polygon fill="black" stroke="black" points="628.72,-631.02 633.04,-621.35 623.63,-626.21 628.72,-631.02"/>
</g>
<!-- BB30 -->
<g id="node31" class="node">
<title>BB30</title>
<ellipse fill="none" stroke="black" cx="674.24" cy="-444.58" rx="103.48" ry="48.17"/>
<text text-anchor="middle" x="674.24" y="-463.38" font-family="Times New Roman,serif" font-size="14.00">[286..2af)</text>
<text text-anchor="middle" x="674.24" y="-448.38" font-family="Times New Roman,serif" font-size="14.00">Count: 241</text>
<text text-anchor="middle" x="674.24" y="-433.38" font-family="Times New Roman,serif" font-size="14.00">Normalized count: 8.31</text>
<text text-anchor="middle" x="674.24" y="-418.38" font-family="Times New Roman,serif" font-size="14.00">Samples weight: 0.13</text>
</g>
<!-- BB30&#45;&gt;BB31 -->
<g id="edge50" class="edge">
<title>BB30&#45;&gt;BB31</title>
<path fill="none" stroke="black" d="M680.76,-492.94C680.98,-501.24 681.04,-509.95 680.94,-518.48"/>
<polygon fill="black" stroke="black" points="677.44,-518.69 680.75,-528.76 684.44,-518.82 677.44,-518.69"/>
</g>
<!-- BB31&#45;&gt;BB30 -->
<g id="edge51" class="edge">
<title>BB31&#45;&gt;BB30</title>
<path fill="none" stroke="black" d="M667.72,-528.76C667.5,-520.38 667.43,-511.57 667.53,-502.95"/>
<polygon fill="black" stroke="black" points="671.03,-503.01 667.72,-492.94 664.03,-502.88 671.03,-503.01"/>
</g>
<!-- BB32 -->
<g id="node33" class="node">
<title>BB32</title>
<ellipse fill="none" stroke="black" cx="1185.24" cy="-444.58" rx="103.48" ry="48.17"/>
<text text-anchor="middle" x="1185.24" y="-463.38" font-family="Times New Roman,serif" font-size="14.00">[2b3..2b6)</text>
<text text-anchor="middle" x="1185.24" y="-448.38" font-family="Times New Roman,serif" font-size="14.00">Count: 25</text>
<text text-anchor="middle" x="1185.24" y="-433.38" font-family="Times New Roman,serif" font-size="14.00">Normalized count: 0.86</text>
<text text-anchor="middle" x="1185.24" y="-418.38" font-family="Times New Roman,serif" font-size="14.00">Samples weight: 0.01</text>
</g>
<!-- BB31&#45;&gt;BB32 -->
<g id="edge52" class="edge">
<title>BB31&#45;&gt;BB32</title>
<path fill="none" stroke="black" d="M771.91,-560.82C853.52,-547.07 972.4,-524.04 1073.24,-492.67 1082.93,-489.65 1092.94,-486.11 1102.79,-482.34"/>
<polygon fill="black" stroke="black" points="1104.15,-485.56 1112.19,-478.66 1101.6,-479.05 1104.15,-485.56"/>
</g>
<!-- BB33 -->
<g id="node34" class="node">
<title>BB33</title>
<ellipse fill="none" stroke="black" cx="1409.24" cy="-312.42" rx="103.48" ry="48.17"/>
<text text-anchor="middle" x="1409.24" y="-331.22" font-family="Times New Roman,serif" font-size="14.00">[2b6..2f3)</text>
<text text-anchor="middle" x="1409.24" y="-316.22" font-family="Times New Roman,serif" font-size="14.00">Count: 21</text>
<text text-anchor="middle" x="1409.24" y="-301.22" font-family="Times New Roman,serif" font-size="14.00">Normalized count: 0.72</text>
<text text-anchor="middle" x="1409.24" y="-286.22" font-family="Times New Roman,serif" font-size="14.00">Samples weight: 0.01</text>
</g>
<!-- BB32&#45;&gt;BB33 -->
<g id="edge54" class="edge">
<title>BB32&#45;&gt;BB33</title>
<path fill="none" stroke="black" d="M1248.83,-406.63C1276.26,-390.69 1308.48,-371.97 1336.83,-355.49"/>
<polygon fill="black" stroke="black" points="1338.6,-358.51 1345.49,-350.46 1335.08,-352.46 1338.6,-358.51"/>
</g>
<!-- BB34 -->
<g id="node35" class="node">
<title>BB34</title>
<ellipse fill="none" stroke="black" cx="1671.24" cy="-312.42" rx="103.48" ry="48.17"/>
<text text-anchor="middle" x="1671.24" y="-331.22" font-family="Times New Roman,serif" font-size="14.00">[2f3..303)</text>
<text text-anchor="middle" x="1671.24" y="-316.22" font-family="Times New Roman,serif" font-size="14.00">Count: 15</text>
<text text-anchor="middle" x="1671.24" y="-301.22" font-family="Times New Roman,serif" font-size="14.00">Normalized count: 0.52</text>
<text text-anchor="middle" x="1671.24" y="-286.22" font-family="Times New Roman,serif" font-size="14.00">Samples weight: 0.01</text>
</g>
<!-- BB32&#45;&gt;BB34 -->
<g id="edge53" class="edge">
<title>BB32&#45;&gt;BB34</title>
<path fill="none" stroke="black" d="M1257.53,-410.24C1270.56,-405.09 1284.16,-400.24 1297.24,-396.5 1394.18,-368.76 1423.1,-383.66 1521.24,-360.5 1540.21,-356.02 1560.28,-350.38 1579.35,-344.56"/>
<polygon fill="black" stroke="black" points="1580.39,-347.9 1588.92,-341.61 1578.33,-341.22 1580.39,-347.9"/>
</g>
<!-- BB33&#45;&gt;BB38 -->
<g id="edge55" class="edge">
<title>BB33&#45;&gt;BB38</title>
<path fill="none" stroke="black" d="M1476.1,-349.26C1493.57,-361.87 1510.49,-377.69 1521.24,-396.5 1560.98,-466.06 1540.24,-495.64 1540.24,-575.75 1540.24,-842.08 1540.24,-842.08 1540.24,-842.08 1540.24,-913.42 1554.17,-994.55 1565.16,-1047.45"/>
<polygon fill="black" stroke="black" points="1561.76,-1048.26 1567.25,-1057.32 1568.6,-1046.81 1561.76,-1048.26"/>
</g>
<!-- BB35 -->
<g id="node36" class="node">
<title>BB35</title>
<ellipse fill="none" stroke="black" cx="1690.24" cy="-180.25" rx="103.48" ry="48.17"/>
<text text-anchor="middle" x="1690.24" y="-199.05" font-family="Times New Roman,serif" font-size="14.00">[303..30c)</text>
<text text-anchor="middle" x="1690.24" y="-184.05" font-family="Times New Roman,serif" font-size="14.00">Count: 15</text>
<text text-anchor="middle" x="1690.24" y="-169.05" font-family="Times New Roman,serif" font-size="14.00">Normalized count: 0.52</text>
<text text-anchor="middle" x="1690.24" y="-154.05" font-family="Times New Roman,serif" font-size="14.00">Samples weight: 0.01</text>
</g>
<!-- BB34&#45;&gt;BB35 -->
<g id="edge57" class="edge">
<title>BB34&#45;&gt;BB35</title>
<path fill="none" stroke="black" d="M1678.1,-264.42C1679.32,-256.05 1680.61,-247.24 1681.86,-238.62"/>
<polygon fill="black" stroke="black" points="1685.34,-239.01 1683.32,-228.61 1678.42,-238 1685.34,-239.01"/>
</g>
<!-- BB34&#45;&gt;BB38 -->
<g id="edge56" class="edge">
<title>BB34&#45;&gt;BB38</title>
<path fill="none" stroke="black" d="M1663.14,-360.65C1654.87,-413.04 1643.24,-500.18 1643.24,-575.75 1643.24,-842.08 1643.24,-842.08 1643.24,-842.08 1643.24,-914.97 1619.31,-995.98 1600.49,-1048.43"/>
<polygon fill="black" stroke="black" points="1597.18,-1047.29 1597.04,-1057.89 1603.75,-1049.69 1597.18,-1047.29"/>
</g>
<!-- BB35&#45;&gt;BB38 -->
<g id="edge58" class="edge">
<title>BB35&#45;&gt;BB38</title>
<path fill="none" stroke="black" d="M1747.57,-220.58C1761.46,-232.95 1774.74,-247.76 1783.24,-264.33 1819.78,-335.63 1802.24,-363.47 1802.24,-443.58 1802.24,-842.08 1802.24,-842.08 1802.24,-842.08 1802.24,-937.71 1715.1,-1016.1 1649.52,-1061.56"/>
<polygon fill="black" stroke="black" points="1647.52,-1058.68 1641.23,-1067.21 1651.46,-1064.46 1647.52,-1058.68"/>
</g>
<!-- BB36&#45;&gt;BB38 -->
<g id="edge59" class="edge">
<title>BB36&#45;&gt;BB38</title>
<path fill="none" stroke="black" d="M1578.24,-1189.22C1578.24,-1180.95 1578.24,-1172.27 1578.24,-1163.77"/>
<polygon fill="black" stroke="black" points="1581.74,-1163.52 1578.24,-1153.52 1574.74,-1163.52 1581.74,-1163.52"/>
</g>
<!-- BB37&#45;&gt;BB38 -->
<g id="edge60" class="edge">
<title>BB37&#45;&gt;BB38</title>
<path fill="none" stroke="black" d="M1738.65,-1199.63C1711.22,-1183.69 1678.99,-1164.96 1650.65,-1148.49"/>
<polygon fill="black" stroke="black" points="1652.39,-1145.46 1641.99,-1143.46 1648.87,-1151.51 1652.39,-1145.46"/>
</g>
</g>
</svg>
