<?xml version="1.0" encoding="UTF-8" standalone="no"?>
<!DOCTYPE svg PUBLIC "-//W3C//DTD SVG 1.1//EN"
 "http://www.w3.org/Graphics/SVG/1.1/DTD/svg11.dtd">
<!-- Generated by graphviz version 2.47.0 (20210316.0004)
 -->
<!-- Title: G Pages: 1 -->
<svg width="586pt" height="416pt"
 viewBox="0.00 0.00 585.72 415.81" xmlns="http://www.w3.org/2000/svg" xmlns:xlink="http://www.w3.org/1999/xlink">
<g id="graph0" class="graph" transform="scale(1 1) rotate(0) translate(4 411.81)">
<title>G</title>
<polygon fill="white" stroke="transparent" points="-4,4 -4,-411.81 581.72,-411.81 581.72,4 -4,4"/>
<!-- BB0 -->
<g id="node1" class="node">
<title>BB0</title>
<ellipse fill="none" stroke="black" cx="339.36" cy="-370.34" rx="105.22" ry="37.45"/>
<text text-anchor="middle" x="339.36" y="-381.64" font-family="Times New Roman,serif" font-size="14.00">[0..4)</text>
<text text-anchor="middle" x="339.36" y="-366.64" font-family="Times New Roman,serif" font-size="14.00">Normalized Count: 1.00</text>
<text text-anchor="middle" x="339.36" y="-351.64" font-family="Times New Roman,serif" font-size="14.00">Samples weight: 0.03</text>
</g>
<!-- BB4 -->
<g id="node5" class="node">
<title>BB4</title>
<ellipse fill="none" stroke="black" cx="339.36" cy="-259.38" rx="105.22" ry="37.45"/>
<text text-anchor="middle" x="339.36" y="-270.68" font-family="Times New Roman,serif" font-size="14.00">[2a..2e)</text>
<text text-anchor="middle" x="339.36" y="-255.68" font-family="Times New Roman,serif" font-size="14.00">Normalized Count: 1.37</text>
<text text-anchor="middle" x="339.36" y="-240.68" font-family="Times New Roman,serif" font-size="14.00">Samples weight: 0.05</text>
</g>
<!-- BB0&#45;&gt;BB4 -->
<g id="edge1" class="edge">
<title>BB0&#45;&gt;BB4</title>
<path fill="none" stroke="black" d="M339.36,-332.75C339.36,-324.58 339.36,-315.8 339.36,-307.27"/>
<polygon fill="black" stroke="black" points="342.86,-307.06 339.36,-297.06 335.86,-307.06 342.86,-307.06"/>
</g>
<!-- BB1 -->
<g id="node2" class="node">
<title>BB1</title>
<ellipse fill="none" stroke="black" cx="201.36" cy="-148.43" rx="110.12" ry="37.45"/>
<text text-anchor="middle" x="201.36" y="-159.73" font-family="Times New Roman,serif" font-size="14.00">[4..19)</text>
<text text-anchor="middle" x="201.36" y="-144.73" font-family="Times New Roman,serif" font-size="14.00">Normalized Count: 13.52</text>
<text text-anchor="middle" x="201.36" y="-129.73" font-family="Times New Roman,serif" font-size="14.00">Samples weight: 0.46</text>
</g>
<!-- BB2 -->
<g id="node3" class="node">
<title>BB2</title>
<ellipse fill="none" stroke="black" cx="105.36" cy="-37.48" rx="105.22" ry="37.45"/>
<text text-anchor="middle" x="105.36" y="-48.78" font-family="Times New Roman,serif" font-size="14.00">[19..1e)</text>
<text text-anchor="middle" x="105.36" y="-33.78" font-family="Times New Roman,serif" font-size="14.00">Normalized Count: 2.85</text>
<text text-anchor="middle" x="105.36" y="-18.78" font-family="Times New Roman,serif" font-size="14.00">Samples weight: 0.10</text>
</g>
<!-- BB1&#45;&gt;BB2 -->
<g id="edge3" class="edge">
<title>BB1&#45;&gt;BB2</title>
<path fill="none" stroke="black" d="M170.46,-112.36C161.72,-102.44 152.12,-91.54 143.03,-81.23"/>
<polygon fill="black" stroke="black" points="145.44,-78.67 136.2,-73.48 140.19,-83.3 145.44,-78.67"/>
</g>
<!-- BB3 -->
<g id="node4" class="node">
<title>BB3</title>
<ellipse fill="none" stroke="black" cx="339.36" cy="-37.48" rx="110.12" ry="37.45"/>
<text text-anchor="middle" x="339.36" y="-48.78" font-family="Times New Roman,serif" font-size="14.00">[1e..2a)</text>
<text text-anchor="middle" x="339.36" y="-33.78" font-family="Times New Roman,serif" font-size="14.00">Normalized Count: 10.95</text>
<text text-anchor="middle" x="339.36" y="-18.78" font-family="Times New Roman,serif" font-size="14.00">Samples weight: 0.37</text>
</g>
<!-- BB1&#45;&gt;BB3 -->
<g id="edge2" class="edge">
<title>BB1&#45;&gt;BB3</title>
<path fill="none" stroke="black" d="M244.27,-113.55C258.29,-102.49 273.99,-90.09 288.54,-78.6"/>
<polygon fill="black" stroke="black" points="290.8,-81.28 296.48,-72.33 286.46,-75.78 290.8,-81.28"/>
</g>
<!-- BB2&#45;&gt;BB3 -->
<g id="edge4" class="edge">
<title>BB2&#45;&gt;BB3</title>
<path fill="none" stroke="black" d="M210.93,-37.48C213.57,-37.48 216.2,-37.48 218.83,-37.48"/>
<polygon fill="black" stroke="black" points="218.99,-40.98 228.99,-37.48 218.99,-33.98 218.99,-40.98"/>
</g>
<!-- BB3&#45;&gt;BB4 -->
<g id="edge5" class="edge">
<title>BB3&#45;&gt;BB4</title>
<path fill="none" stroke="black" d="M339.36,-75.04C339.36,-112.4 339.36,-170.57 339.36,-211.35"/>
<polygon fill="black" stroke="black" points="335.86,-211.58 339.36,-221.58 342.86,-211.58 335.86,-211.58"/>
</g>
<!-- BB4&#45;&gt;BB1 -->
<g id="edge6" class="edge">
<title>BB4&#45;&gt;BB1</title>
<path fill="none" stroke="black" d="M296.83,-224.8C282.66,-213.62 266.74,-201.05 252.02,-189.43"/>
<polygon fill="black" stroke="black" points="254,-186.53 243.99,-183.09 249.67,-192.03 254,-186.53"/>
</g>
<!-- BB5 -->
<g id="node6" class="node">
<title>BB5</title>
<ellipse fill="none" stroke="black" cx="472.36" cy="-148.43" rx="105.22" ry="37.45"/>
<text text-anchor="middle" x="472.36" y="-159.73" font-family="Times New Roman,serif" font-size="14.00">[2e..2f)</text>
<text text-anchor="middle" x="472.36" y="-144.73" font-family="Times New Roman,serif" font-size="14.00">Normalized Count: 0.00</text>
<text text-anchor="middle" x="472.36" y="-129.73" font-family="Times New Roman,serif" font-size="14.00">Samples weight: 0.00</text>
</g>
<!-- BB4&#45;&gt;BB5 -->
<g id="edge7" class="edge">
<title>BB4&#45;&gt;BB5</title>
<path fill="none" stroke="black" d="M380.35,-224.8C394,-213.62 409.34,-201.05 423.53,-189.43"/>
<polygon fill="black" stroke="black" points="425.76,-192.13 431.28,-183.09 421.32,-186.71 425.76,-192.13"/>
</g>
</g>
</svg>
