<?xml version="1.0" encoding="UTF-8" standalone="no"?>
<!DOCTYPE svg PUBLIC "-//W3C//DTD SVG 1.1//EN"
 "http://www.w3.org/Graphics/SVG/1.1/DTD/svg11.dtd">
<!-- Generated by graphviz version 2.47.0 (20210316.0004)
 -->
<!-- Title: G Pages: 1 -->
<svg width="569pt" height="501pt"
 viewBox="0.00 0.00 569.48 500.67" xmlns="http://www.w3.org/2000/svg" xmlns:xlink="http://www.w3.org/1999/xlink">
<g id="graph0" class="graph" transform="scale(1 1) rotate(0) translate(4 496.67)">
<title>G</title>
<polygon fill="white" stroke="transparent" points="-4,4 -4,-496.67 565.48,-496.67 565.48,4 -4,4"/>
<!-- BB0 -->
<g id="node1" class="node">
<title>BB0</title>
<ellipse fill="none" stroke="black" cx="327.24" cy="-444.58" rx="103.48" ry="48.17"/>
<text text-anchor="middle" x="327.24" y="-463.38" font-family="Times New Roman,serif" font-size="14.00">[0..4)</text>
<text text-anchor="middle" x="327.24" y="-448.38" font-family="Times New Roman,serif" font-size="14.00">Count: 63394</text>
<text text-anchor="middle" x="327.24" y="-433.38" font-family="Times New Roman,serif" font-size="14.00">Normalized count: 1.00</text>
<text text-anchor="middle" x="327.24" y="-418.38" font-family="Times New Roman,serif" font-size="14.00">Samples weight: 0.07</text>
</g>
<!-- BB4 -->
<g id="node5" class="node">
<title>BB4</title>
<ellipse fill="none" stroke="black" cx="327.24" cy="-312.42" rx="103.48" ry="48.17"/>
<text text-anchor="middle" x="327.24" y="-331.22" font-family="Times New Roman,serif" font-size="14.00">[2a..2e)</text>
<text text-anchor="middle" x="327.24" y="-316.22" font-family="Times New Roman,serif" font-size="14.00">Count: 294330</text>
<text text-anchor="middle" x="327.24" y="-301.22" font-family="Times New Roman,serif" font-size="14.00">Normalized count: 4.64</text>
<text text-anchor="middle" x="327.24" y="-286.22" font-family="Times New Roman,serif" font-size="14.00">Samples weight: 0.32</text>
</g>
<!-- BB0&#45;&gt;BB4 -->
<g id="edge1" class="edge">
<title>BB0&#45;&gt;BB4</title>
<path fill="none" stroke="black" d="M327.24,-396.22C327.24,-387.95 327.24,-379.27 327.24,-370.77"/>
<polygon fill="black" stroke="black" points="330.74,-370.52 327.24,-360.52 323.74,-370.52 330.74,-370.52"/>
</g>
<!-- BB1 -->
<g id="node2" class="node">
<title>BB1</title>
<ellipse fill="none" stroke="black" cx="196.24" cy="-180.25" rx="103.48" ry="48.17"/>
<text text-anchor="middle" x="196.24" y="-199.05" font-family="Times New Roman,serif" font-size="14.00">[4..19)</text>
<text text-anchor="middle" x="196.24" y="-184.05" font-family="Times New Roman,serif" font-size="14.00">Count: 230936</text>
<text text-anchor="middle" x="196.24" y="-169.05" font-family="Times New Roman,serif" font-size="14.00">Normalized count: 3.64</text>
<text text-anchor="middle" x="196.24" y="-154.05" font-family="Times New Roman,serif" font-size="14.00">Samples weight: 0.25</text>
</g>
<!-- BB2 -->
<g id="node3" class="node">
<title>BB2</title>
<ellipse fill="none" stroke="black" cx="103.24" cy="-48.08" rx="103.48" ry="48.17"/>
<text text-anchor="middle" x="103.24" y="-66.88" font-family="Times New Roman,serif" font-size="14.00">[19..1e)</text>
<text text-anchor="middle" x="103.24" y="-51.88" font-family="Times New Roman,serif" font-size="14.00">Count: 37764</text>
<text text-anchor="middle" x="103.24" y="-36.88" font-family="Times New Roman,serif" font-size="14.00">Normalized count: 0.60</text>
<text text-anchor="middle" x="103.24" y="-21.88" font-family="Times New Roman,serif" font-size="14.00">Samples weight: 0.04</text>
</g>
<!-- BB1&#45;&gt;BB2 -->
<g id="edge3" class="edge">
<title>BB1&#45;&gt;BB2</title>
<path fill="none" stroke="black" d="M164.23,-134.45C156.85,-124.12 148.93,-113.04 141.32,-102.39"/>
<polygon fill="black" stroke="black" points="143.96,-100.06 135.3,-93.96 138.27,-104.13 143.96,-100.06"/>
</g>
<!-- BB3 -->
<g id="node4" class="node">
<title>BB3</title>
<ellipse fill="none" stroke="black" cx="327.24" cy="-48.08" rx="103.48" ry="48.17"/>
<text text-anchor="middle" x="327.24" y="-66.88" font-family="Times New Roman,serif" font-size="14.00">[1e..2a)</text>
<text text-anchor="middle" x="327.24" y="-51.88" font-family="Times New Roman,serif" font-size="14.00">Count: 230936</text>
<text text-anchor="middle" x="327.24" y="-36.88" font-family="Times New Roman,serif" font-size="14.00">Normalized count: 3.64</text>
<text text-anchor="middle" x="327.24" y="-21.88" font-family="Times New Roman,serif" font-size="14.00">Samples weight: 0.25</text>
</g>
<!-- BB1&#45;&gt;BB3 -->
<g id="edge2" class="edge">
<title>BB1&#45;&gt;BB3</title>
<path fill="none" stroke="black" d="M239.49,-136.27C251.46,-124.38 264.54,-111.38 276.87,-99.13"/>
<polygon fill="black" stroke="black" points="279.4,-101.55 284.03,-92.02 274.47,-96.59 279.4,-101.55"/>
</g>
<!-- BB2&#45;&gt;BB3 -->
<g id="edge4" class="edge">
<title>BB2&#45;&gt;BB3</title>
<path fill="none" stroke="black" d="M206.49,-48.08C208.94,-48.08 211.4,-48.08 213.85,-48.08"/>
<polygon fill="black" stroke="black" points="213.94,-51.58 223.94,-48.08 213.94,-44.58 213.94,-51.58"/>
</g>
<!-- BB3&#45;&gt;BB4 -->
<g id="edge5" class="edge">
<title>BB3&#45;&gt;BB4</title>
<path fill="none" stroke="black" d="M327.24,-96.35C327.24,-140.62 327.24,-206.87 327.24,-254.13"/>
<polygon fill="black" stroke="black" points="323.74,-254.21 327.24,-264.21 330.74,-254.21 323.74,-254.21"/>
</g>
<!-- BB4&#45;&gt;BB1 -->
<g id="edge6" class="edge">
<title>BB4&#45;&gt;BB1</title>
<path fill="none" stroke="black" d="M283.98,-268.43C272.02,-256.55 258.93,-243.55 246.61,-231.3"/>
<polygon fill="black" stroke="black" points="249.01,-228.75 239.45,-224.19 244.08,-233.72 249.01,-228.75"/>
</g>
<!-- BB5 -->
<g id="node6" class="node">
<title>BB5</title>
<ellipse fill="none" stroke="black" cx="458.24" cy="-180.25" rx="103.48" ry="48.17"/>
<text text-anchor="middle" x="458.24" y="-199.05" font-family="Times New Roman,serif" font-size="14.00">[2e..2f)</text>
<text text-anchor="middle" x="458.24" y="-184.05" font-family="Times New Roman,serif" font-size="14.00">Count: 63394</text>
<text text-anchor="middle" x="458.24" y="-169.05" font-family="Times New Roman,serif" font-size="14.00">Normalized count: 1.00</text>
<text text-anchor="middle" x="458.24" y="-154.05" font-family="Times New Roman,serif" font-size="14.00">Samples weight: 0.07</text>
</g>
<!-- BB4&#45;&gt;BB5 -->
<g id="edge7" class="edge">
<title>BB4&#45;&gt;BB5</title>
<path fill="none" stroke="black" d="M370.49,-268.43C382.46,-256.55 395.54,-243.55 407.87,-231.3"/>
<polygon fill="black" stroke="black" points="410.4,-233.72 415.03,-224.19 405.47,-228.75 410.4,-233.72"/>
</g>
</g>
</svg>
