<?xml version="1.0" encoding="UTF-8" standalone="no"?>
<!DOCTYPE svg PUBLIC "-//W3C//DTD SVG 1.1//EN"
 "http://www.w3.org/Graphics/SVG/1.1/DTD/svg11.dtd">
<!-- Generated by graphviz version 2.47.0 (20210316.0004)
 -->
<!-- Title: G Pages: 1 -->
<svg width="1182pt" height="897pt"
 viewBox="0.00 0.00 1182.11 897.17" xmlns="http://www.w3.org/2000/svg" xmlns:xlink="http://www.w3.org/1999/xlink">
<g id="graph0" class="graph" transform="scale(1 1) rotate(0) translate(4 893.17)">
<title>G</title>
<polygon fill="white" stroke="transparent" points="-4,4 -4,-893.17 1178.11,-893.17 1178.11,4 -4,4"/>
<!-- BB0 -->
<g id="node1" class="node">
<title>BB0</title>
<ellipse fill="none" stroke="black" cx="249.92" cy="-841.08" rx="103.48" ry="48.17"/>
<text text-anchor="middle" x="249.92" y="-859.88" font-family="Times New Roman,serif" font-size="14.00">[0..1b)</text>
<text text-anchor="middle" x="249.92" y="-844.88" font-family="Times New Roman,serif" font-size="14.00">Count: 2</text>
<text text-anchor="middle" x="249.92" y="-829.88" font-family="Times New Roman,serif" font-size="14.00">Normalized count: 1.00</text>
<text text-anchor="middle" x="249.92" y="-814.88" font-family="Times New Roman,serif" font-size="14.00">Samples weight: 0.00</text>
</g>
<!-- BB10 -->
<g id="node11" class="node">
<title>BB10</title>
<ellipse fill="none" stroke="black" cx="249.92" cy="-708.92" rx="103.48" ry="48.17"/>
<text text-anchor="middle" x="249.92" y="-727.72" font-family="Times New Roman,serif" font-size="14.00">[86..90)</text>
<text text-anchor="middle" x="249.92" y="-712.72" font-family="Times New Roman,serif" font-size="14.00">Count: 3</text>
<text text-anchor="middle" x="249.92" y="-697.72" font-family="Times New Roman,serif" font-size="14.00">Normalized count: 1.50</text>
<text text-anchor="middle" x="249.92" y="-682.72" font-family="Times New Roman,serif" font-size="14.00">Samples weight: 0.00</text>
</g>
<!-- BB0&#45;&gt;BB10 -->
<g id="edge1" class="edge">
<title>BB0&#45;&gt;BB10</title>
<path fill="none" stroke="black" d="M249.92,-792.72C249.92,-784.45 249.92,-775.77 249.92,-767.27"/>
<polygon fill="black" stroke="black" points="253.42,-767.02 249.92,-757.02 246.42,-767.02 253.42,-767.02"/>
</g>
<!-- BB1 -->
<g id="node2" class="node">
<title>BB1</title>
<ellipse fill="none" stroke="black" cx="249.92" cy="-576.75" rx="103.48" ry="48.17"/>
<text text-anchor="middle" x="249.92" y="-595.55" font-family="Times New Roman,serif" font-size="14.00">[1b..1f)</text>
<text text-anchor="middle" x="249.92" y="-580.55" font-family="Times New Roman,serif" font-size="14.00">Count: 1</text>
<text text-anchor="middle" x="249.92" y="-565.55" font-family="Times New Roman,serif" font-size="14.00">Normalized count: 0.50</text>
<text text-anchor="middle" x="249.92" y="-550.55" font-family="Times New Roman,serif" font-size="14.00">Samples weight: 0.00</text>
</g>
<!-- BB9 -->
<g id="node10" class="node">
<title>BB9</title>
<ellipse fill="none" stroke="black" cx="183.92" cy="-444.58" rx="113.27" ry="48.17"/>
<text text-anchor="middle" x="183.92" y="-463.38" font-family="Times New Roman,serif" font-size="14.00">[82..86)</text>
<text text-anchor="middle" x="183.92" y="-448.38" font-family="Times New Roman,serif" font-size="14.00">Count: 217</text>
<text text-anchor="middle" x="183.92" y="-433.38" font-family="Times New Roman,serif" font-size="14.00">Normalized count: 108.50</text>
<text text-anchor="middle" x="183.92" y="-418.38" font-family="Times New Roman,serif" font-size="14.00">Samples weight: 0.25</text>
</g>
<!-- BB1&#45;&gt;BB9 -->
<g id="edge2" class="edge">
<title>BB1&#45;&gt;BB9</title>
<path fill="none" stroke="black" d="M226.65,-529.86C221.93,-520.54 216.91,-510.64 212.04,-501.04"/>
<polygon fill="black" stroke="black" points="215.07,-499.27 207.42,-491.94 208.83,-502.44 215.07,-499.27"/>
</g>
<!-- BB2 -->
<g id="node3" class="node">
<title>BB2</title>
<ellipse fill="none" stroke="black" cx="480.92" cy="-312.42" rx="113.27" ry="48.17"/>
<text text-anchor="middle" x="480.92" y="-331.22" font-family="Times New Roman,serif" font-size="14.00">[1f..3c)</text>
<text text-anchor="middle" x="480.92" y="-316.22" font-family="Times New Roman,serif" font-size="14.00">Count: 216</text>
<text text-anchor="middle" x="480.92" y="-301.22" font-family="Times New Roman,serif" font-size="14.00">Normalized count: 108.00</text>
<text text-anchor="middle" x="480.92" y="-286.22" font-family="Times New Roman,serif" font-size="14.00">Samples weight: 0.25</text>
</g>
<!-- BB3 -->
<g id="node4" class="node">
<title>BB3</title>
<ellipse fill="none" stroke="black" cx="134.92" cy="-180.25" rx="103.48" ry="48.17"/>
<text text-anchor="middle" x="134.92" y="-199.05" font-family="Times New Roman,serif" font-size="14.00">[3c..3e)</text>
<text text-anchor="middle" x="134.92" y="-184.05" font-family="Times New Roman,serif" font-size="14.00">Count: 0</text>
<text text-anchor="middle" x="134.92" y="-169.05" font-family="Times New Roman,serif" font-size="14.00">Normalized count: 0.00</text>
<text text-anchor="middle" x="134.92" y="-154.05" font-family="Times New Roman,serif" font-size="14.00">Samples weight: 0.00</text>
</g>
<!-- BB2&#45;&gt;BB3 -->
<g id="edge3" class="edge">
<title>BB2&#45;&gt;BB3</title>
<path fill="none" stroke="black" d="M393.53,-281.71C349.36,-266.36 295.06,-246.98 246.92,-228.33 237.92,-224.85 228.56,-221.1 219.26,-217.31"/>
<polygon fill="black" stroke="black" points="220.57,-214.06 209.99,-213.5 217.91,-220.54 220.57,-214.06"/>
</g>
<!-- BB4 -->
<g id="node5" class="node">
<title>BB4</title>
<ellipse fill="none" stroke="black" cx="363.92" cy="-180.25" rx="108.38" ry="48.17"/>
<text text-anchor="middle" x="363.92" y="-199.05" font-family="Times New Roman,serif" font-size="14.00">[3e..4f)</text>
<text text-anchor="middle" x="363.92" y="-184.05" font-family="Times New Roman,serif" font-size="14.00">Count: 48</text>
<text text-anchor="middle" x="363.92" y="-169.05" font-family="Times New Roman,serif" font-size="14.00">Normalized count: 24.00</text>
<text text-anchor="middle" x="363.92" y="-154.05" font-family="Times New Roman,serif" font-size="14.00">Samples weight: 0.05</text>
</g>
<!-- BB2&#45;&gt;BB4 -->
<g id="edge4" class="edge">
<title>BB2&#45;&gt;BB4</title>
<path fill="none" stroke="black" d="M441.31,-267.35C431.4,-256.32 420.68,-244.39 410.46,-233.03"/>
<polygon fill="black" stroke="black" points="412.78,-230.37 403.49,-225.27 407.57,-235.05 412.78,-230.37"/>
</g>
<!-- BB5 -->
<g id="node6" class="node">
<title>BB5</title>
<ellipse fill="none" stroke="black" cx="597.92" cy="-180.25" rx="108.38" ry="48.17"/>
<text text-anchor="middle" x="597.92" y="-199.05" font-family="Times New Roman,serif" font-size="14.00">[4f..60)</text>
<text text-anchor="middle" x="597.92" y="-184.05" font-family="Times New Roman,serif" font-size="14.00">Count: 50</text>
<text text-anchor="middle" x="597.92" y="-169.05" font-family="Times New Roman,serif" font-size="14.00">Normalized count: 25.00</text>
<text text-anchor="middle" x="597.92" y="-154.05" font-family="Times New Roman,serif" font-size="14.00">Samples weight: 0.06</text>
</g>
<!-- BB2&#45;&gt;BB5 -->
<g id="edge5" class="edge">
<title>BB2&#45;&gt;BB5</title>
<path fill="none" stroke="black" d="M520.53,-267.35C530.44,-256.32 541.16,-244.39 551.38,-233.03"/>
<polygon fill="black" stroke="black" points="554.27,-235.05 558.35,-225.27 549.06,-230.37 554.27,-235.05"/>
</g>
<!-- BB6 -->
<g id="node7" class="node">
<title>BB6</title>
<ellipse fill="none" stroke="black" cx="831.92" cy="-180.25" rx="108.38" ry="48.17"/>
<text text-anchor="middle" x="831.92" y="-199.05" font-family="Times New Roman,serif" font-size="14.00">[60..70)</text>
<text text-anchor="middle" x="831.92" y="-184.05" font-family="Times New Roman,serif" font-size="14.00">Count: 95</text>
<text text-anchor="middle" x="831.92" y="-169.05" font-family="Times New Roman,serif" font-size="14.00">Normalized count: 47.50</text>
<text text-anchor="middle" x="831.92" y="-154.05" font-family="Times New Roman,serif" font-size="14.00">Samples weight: 0.11</text>
</g>
<!-- BB2&#45;&gt;BB6 -->
<g id="edge6" class="edge">
<title>BB2&#45;&gt;BB6</title>
<path fill="none" stroke="black" d="M567.91,-281.49C612.1,-266.05 666.54,-246.65 714.92,-228.33 724.39,-224.75 734.25,-220.93 744.06,-217.06"/>
<polygon fill="black" stroke="black" points="745.42,-220.29 753.43,-213.36 742.84,-213.78 745.42,-220.29"/>
</g>
<!-- BB7 -->
<g id="node8" class="node">
<title>BB7</title>
<ellipse fill="none" stroke="black" cx="1065.92" cy="-180.25" rx="108.38" ry="48.17"/>
<text text-anchor="middle" x="1065.92" y="-199.05" font-family="Times New Roman,serif" font-size="14.00">[70..7e)</text>
<text text-anchor="middle" x="1065.92" y="-184.05" font-family="Times New Roman,serif" font-size="14.00">Count: 23</text>
<text text-anchor="middle" x="1065.92" y="-169.05" font-family="Times New Roman,serif" font-size="14.00">Normalized count: 11.50</text>
<text text-anchor="middle" x="1065.92" y="-154.05" font-family="Times New Roman,serif" font-size="14.00">Samples weight: 0.03</text>
</g>
<!-- BB2&#45;&gt;BB7 -->
<g id="edge7" class="edge">
<title>BB2&#45;&gt;BB7</title>
<path fill="none" stroke="black" d="M589.71,-298.6C685.5,-285.78 828.15,-262.95 948.92,-228.33 959.15,-225.4 969.72,-221.88 980.12,-218.11"/>
<polygon fill="black" stroke="black" points="981.46,-221.35 989.62,-214.58 979.02,-214.78 981.46,-221.35"/>
</g>
<!-- BB8 -->
<g id="node9" class="node">
<title>BB8</title>
<ellipse fill="none" stroke="black" cx="480.92" cy="-48.08" rx="113.27" ry="48.17"/>
<text text-anchor="middle" x="480.92" y="-66.88" font-family="Times New Roman,serif" font-size="14.00">[7e..82)</text>
<text text-anchor="middle" x="480.92" y="-51.88" font-family="Times New Roman,serif" font-size="14.00">Count: 216</text>
<text text-anchor="middle" x="480.92" y="-36.88" font-family="Times New Roman,serif" font-size="14.00">Normalized count: 108.00</text>
<text text-anchor="middle" x="480.92" y="-21.88" font-family="Times New Roman,serif" font-size="14.00">Samples weight: 0.25</text>
</g>
<!-- BB3&#45;&gt;BB8 -->
<g id="edge8" class="edge">
<title>BB3&#45;&gt;BB8</title>
<path fill="none" stroke="black" d="M209.99,-147C222.28,-141.92 234.92,-136.81 246.92,-132.17 291.67,-114.83 341.76,-96.86 384.07,-82.09"/>
<polygon fill="black" stroke="black" points="385.24,-85.38 393.53,-78.79 382.94,-78.77 385.24,-85.38"/>
</g>
<!-- BB4&#45;&gt;BB8 -->
<g id="edge9" class="edge">
<title>BB4&#45;&gt;BB8</title>
<path fill="none" stroke="black" d="M403.53,-135.18C413.33,-124.27 423.93,-112.49 434.04,-101.24"/>
<polygon fill="black" stroke="black" points="436.87,-103.33 440.95,-93.55 431.66,-98.65 436.87,-103.33"/>
</g>
<!-- BB5&#45;&gt;BB8 -->
<g id="edge10" class="edge">
<title>BB5&#45;&gt;BB8</title>
<path fill="none" stroke="black" d="M558.31,-135.18C548.51,-124.27 537.91,-112.49 527.8,-101.24"/>
<polygon fill="black" stroke="black" points="530.18,-98.65 520.89,-93.55 524.97,-103.33 530.18,-98.65"/>
</g>
<!-- BB6&#45;&gt;BB8 -->
<g id="edge11" class="edge">
<title>BB6&#45;&gt;BB8</title>
<path fill="none" stroke="black" d="M753.43,-147.14C740.59,-142.04 727.41,-136.9 714.92,-132.17 669.94,-115.14 619.73,-97.17 577.38,-82.32"/>
<polygon fill="black" stroke="black" points="578.51,-79.01 567.91,-79.01 576.19,-85.62 578.51,-79.01"/>
</g>
<!-- BB7&#45;&gt;BB8 -->
<g id="edge12" class="edge">
<title>BB7&#45;&gt;BB8</title>
<path fill="none" stroke="black" d="M989.62,-145.92C976.22,-140.82 962.29,-136 948.92,-132.17 832.27,-98.73 695.22,-76.3 599.69,-63.25"/>
<polygon fill="black" stroke="black" points="600.09,-59.77 589.71,-61.9 599.15,-66.71 600.09,-59.77"/>
</g>
<!-- BB8&#45;&gt;BB9 -->
<g id="edge13" class="edge">
<title>BB8&#45;&gt;BB9</title>
<path fill="none" stroke="black" d="M368.48,-53.48C247.35,-60.85 66.1,-80.45 22.92,-132.17 -45.39,-213.98 55.09,-329.59 125.41,-394.47"/>
<polygon fill="black" stroke="black" points="123.21,-397.21 132.96,-401.36 127.93,-392.03 123.21,-397.21"/>
</g>
<!-- BB9&#45;&gt;BB2 -->
<g id="edge14" class="edge">
<title>BB9&#45;&gt;BB2</title>
<path fill="none" stroke="black" d="M261.57,-409.55C302.15,-391.77 351.96,-369.94 393.85,-351.58"/>
<polygon fill="black" stroke="black" points="395.46,-354.69 403.21,-347.47 392.65,-348.28 395.46,-354.69"/>
</g>
<!-- BB9&#45;&gt;BB10 -->
<g id="edge15" class="edge">
<title>BB9&#45;&gt;BB10</title>
<path fill="none" stroke="black" d="M153.27,-491.29C146.95,-502.99 141.22,-515.9 137.92,-528.67 127.23,-570.05 118.71,-586.65 137.92,-624.83 146.14,-641.16 159.26,-655.09 173.66,-666.61"/>
<polygon fill="black" stroke="black" points="171.7,-669.51 181.78,-672.76 175.92,-663.93 171.7,-669.51"/>
</g>
<!-- BB10&#45;&gt;BB1 -->
<g id="edge16" class="edge">
<title>BB10&#45;&gt;BB1</title>
<path fill="none" stroke="black" d="M249.92,-660.55C249.92,-652.29 249.92,-643.6 249.92,-635.1"/>
<polygon fill="black" stroke="black" points="253.42,-634.86 249.92,-624.86 246.42,-634.86 253.42,-634.86"/>
</g>
<!-- BB11 -->
<g id="node12" class="node">
<title>BB11</title>
<ellipse fill="none" stroke="black" cx="473.92" cy="-576.75" rx="103.48" ry="48.17"/>
<text text-anchor="middle" x="473.92" y="-595.55" font-family="Times New Roman,serif" font-size="14.00">[90..97)</text>
<text text-anchor="middle" x="473.92" y="-580.55" font-family="Times New Roman,serif" font-size="14.00">Count: 2</text>
<text text-anchor="middle" x="473.92" y="-565.55" font-family="Times New Roman,serif" font-size="14.00">Normalized count: 1.00</text>
<text text-anchor="middle" x="473.92" y="-550.55" font-family="Times New Roman,serif" font-size="14.00">Samples weight: 0.00</text>
</g>
<!-- BB10&#45;&gt;BB11 -->
<g id="edge17" class="edge">
<title>BB10&#45;&gt;BB11</title>
<path fill="none" stroke="black" d="M313.51,-670.96C340.94,-655.02 373.17,-636.3 401.51,-619.83"/>
<polygon fill="black" stroke="black" points="403.28,-622.84 410.17,-614.79 399.77,-616.79 403.28,-622.84"/>
</g>
</g>
</svg>
