<?xml version="1.0" encoding="UTF-8" standalone="no"?>
<!DOCTYPE svg PUBLIC "-//W3C//DTD SVG 1.1//EN"
 "http://www.w3.org/Graphics/SVG/1.1/DTD/svg11.dtd">
<!-- Generated by graphviz version 2.47.0 (20210316.0004)
 -->
<!-- Title: G Pages: 1 -->
<svg width="934pt" height="1029pt"
 viewBox="0.00 0.00 934.42 1029.33" xmlns="http://www.w3.org/2000/svg" xmlns:xlink="http://www.w3.org/1999/xlink">
<g id="graph0" class="graph" transform="scale(1 1) rotate(0) translate(4 1025.33)">
<title>G</title>
<polygon fill="white" stroke="transparent" points="-4,4 -4,-1025.33 930.42,-1025.33 930.42,4 -4,4"/>
<!-- BB0 -->
<g id="node1" class="node">
<title>BB0</title>
<ellipse fill="none" stroke="black" cx="108.19" cy="-973.25" rx="103.48" ry="48.17"/>
<text text-anchor="middle" x="108.19" y="-992.05" font-family="Times New Roman,serif" font-size="14.00">[0..29)</text>
<text text-anchor="middle" x="108.19" y="-977.05" font-family="Times New Roman,serif" font-size="14.00">Count: 2</text>
<text text-anchor="middle" x="108.19" y="-962.05" font-family="Times New Roman,serif" font-size="14.00">Normalized count: 1.00</text>
<text text-anchor="middle" x="108.19" y="-947.05" font-family="Times New Roman,serif" font-size="14.00">Samples weight: 0.02</text>
</g>
<!-- BB2 -->
<g id="node3" class="node">
<title>BB2</title>
<ellipse fill="none" stroke="black" cx="108.19" cy="-841.08" rx="108.38" ry="48.17"/>
<text text-anchor="middle" x="108.19" y="-859.88" font-family="Times New Roman,serif" font-size="14.00">[59..63)</text>
<text text-anchor="middle" x="108.19" y="-844.88" font-family="Times New Roman,serif" font-size="14.00">Count: 52</text>
<text text-anchor="middle" x="108.19" y="-829.88" font-family="Times New Roman,serif" font-size="14.00">Normalized count: 26.00</text>
<text text-anchor="middle" x="108.19" y="-814.88" font-family="Times New Roman,serif" font-size="14.00">Samples weight: 0.45</text>
</g>
<!-- BB0&#45;&gt;BB2 -->
<g id="edge1" class="edge">
<title>BB0&#45;&gt;BB2</title>
<path fill="none" stroke="black" d="M108.19,-924.89C108.19,-916.62 108.19,-907.94 108.19,-899.43"/>
<polygon fill="black" stroke="black" points="111.69,-899.19 108.19,-889.19 104.69,-899.19 111.69,-899.19"/>
</g>
<!-- BB1 -->
<g id="node2" class="node">
<title>BB1</title>
<ellipse fill="none" stroke="black" cx="108.19" cy="-708.92" rx="108.38" ry="48.17"/>
<text text-anchor="middle" x="108.19" y="-727.72" font-family="Times New Roman,serif" font-size="14.00">[29..59)</text>
<text text-anchor="middle" x="108.19" y="-712.72" font-family="Times New Roman,serif" font-size="14.00">Count: 50</text>
<text text-anchor="middle" x="108.19" y="-697.72" font-family="Times New Roman,serif" font-size="14.00">Normalized count: 25.00</text>
<text text-anchor="middle" x="108.19" y="-682.72" font-family="Times New Roman,serif" font-size="14.00">Samples weight: 0.43</text>
</g>
<!-- BB1&#45;&gt;BB2 -->
<g id="edge2" class="edge">
<title>BB1&#45;&gt;BB2</title>
<path fill="none" stroke="black" d="M114.7,-757.02C114.92,-765.28 114.99,-773.96 114.9,-782.47"/>
<polygon fill="black" stroke="black" points="111.39,-782.66 114.71,-792.72 118.39,-782.79 111.39,-782.66"/>
</g>
<!-- BB2&#45;&gt;BB1 -->
<g id="edge3" class="edge">
<title>BB2&#45;&gt;BB1</title>
<path fill="none" stroke="black" d="M101.66,-792.72C101.45,-784.45 101.39,-775.77 101.48,-767.27"/>
<polygon fill="black" stroke="black" points="104.98,-767.09 101.67,-757.02 97.98,-766.96 104.98,-767.09"/>
</g>
<!-- BB3 -->
<g id="node4" class="node">
<title>BB3</title>
<ellipse fill="none" stroke="black" cx="337.19" cy="-708.92" rx="103.48" ry="48.17"/>
<text text-anchor="middle" x="337.19" y="-727.72" font-family="Times New Roman,serif" font-size="14.00">[63..79)</text>
<text text-anchor="middle" x="337.19" y="-712.72" font-family="Times New Roman,serif" font-size="14.00">Count: 2</text>
<text text-anchor="middle" x="337.19" y="-697.72" font-family="Times New Roman,serif" font-size="14.00">Normalized count: 1.00</text>
<text text-anchor="middle" x="337.19" y="-682.72" font-family="Times New Roman,serif" font-size="14.00">Samples weight: 0.02</text>
</g>
<!-- BB2&#45;&gt;BB3 -->
<g id="edge4" class="edge">
<title>BB2&#45;&gt;BB3</title>
<path fill="none" stroke="black" d="M173.81,-802.78C201.96,-786.78 234.96,-768.03 263.9,-751.57"/>
<polygon fill="black" stroke="black" points="265.78,-754.53 272.74,-746.55 262.32,-748.45 265.78,-754.53"/>
</g>
<!-- BB4 -->
<g id="node5" class="node">
<title>BB4</title>
<ellipse fill="none" stroke="black" cx="225.19" cy="-576.75" rx="103.48" ry="48.17"/>
<text text-anchor="middle" x="225.19" y="-595.55" font-family="Times New Roman,serif" font-size="14.00">[79..85)</text>
<text text-anchor="middle" x="225.19" y="-580.55" font-family="Times New Roman,serif" font-size="14.00">Count: 0</text>
<text text-anchor="middle" x="225.19" y="-565.55" font-family="Times New Roman,serif" font-size="14.00">Normalized count: 0.00</text>
<text text-anchor="middle" x="225.19" y="-550.55" font-family="Times New Roman,serif" font-size="14.00">Samples weight: 0.00</text>
</g>
<!-- BB3&#45;&gt;BB4 -->
<g id="edge6" class="edge">
<title>BB3&#45;&gt;BB4</title>
<path fill="none" stroke="black" d="M299.27,-663.85C289.78,-652.82 279.52,-640.89 269.74,-629.53"/>
<polygon fill="black" stroke="black" points="272.24,-627.07 263.07,-621.77 266.94,-631.64 272.24,-627.07"/>
</g>
<!-- BB9 -->
<g id="node10" class="node">
<title>BB9</title>
<ellipse fill="none" stroke="black" cx="449.19" cy="-576.75" rx="103.48" ry="48.17"/>
<text text-anchor="middle" x="449.19" y="-595.55" font-family="Times New Roman,serif" font-size="14.00">[b6..be)</text>
<text text-anchor="middle" x="449.19" y="-580.55" font-family="Times New Roman,serif" font-size="14.00">Count: 2</text>
<text text-anchor="middle" x="449.19" y="-565.55" font-family="Times New Roman,serif" font-size="14.00">Normalized count: 1.00</text>
<text text-anchor="middle" x="449.19" y="-550.55" font-family="Times New Roman,serif" font-size="14.00">Samples weight: 0.02</text>
</g>
<!-- BB3&#45;&gt;BB9 -->
<g id="edge5" class="edge">
<title>BB3&#45;&gt;BB9</title>
<path fill="none" stroke="black" d="M375.11,-663.85C384.59,-652.82 394.86,-640.89 404.63,-629.53"/>
<polygon fill="black" stroke="black" points="407.44,-631.64 411.31,-621.77 402.13,-627.07 407.44,-631.64"/>
</g>
<!-- BB8 -->
<g id="node9" class="node">
<title>BB8</title>
<ellipse fill="none" stroke="black" cx="225.19" cy="-444.58" rx="103.48" ry="48.17"/>
<text text-anchor="middle" x="225.19" y="-463.38" font-family="Times New Roman,serif" font-size="14.00">[ad..b6)</text>
<text text-anchor="middle" x="225.19" y="-448.38" font-family="Times New Roman,serif" font-size="14.00">Count: 0</text>
<text text-anchor="middle" x="225.19" y="-433.38" font-family="Times New Roman,serif" font-size="14.00">Normalized count: 0.00</text>
<text text-anchor="middle" x="225.19" y="-418.38" font-family="Times New Roman,serif" font-size="14.00">Samples weight: 0.00</text>
</g>
<!-- BB4&#45;&gt;BB8 -->
<g id="edge7" class="edge">
<title>BB4&#45;&gt;BB8</title>
<path fill="none" stroke="black" d="M225.19,-528.39C225.19,-520.12 225.19,-511.44 225.19,-502.93"/>
<polygon fill="black" stroke="black" points="228.69,-502.69 225.19,-492.69 221.69,-502.69 228.69,-502.69"/>
</g>
<!-- BB5 -->
<g id="node6" class="node">
<title>BB5</title>
<ellipse fill="none" stroke="black" cx="225.19" cy="-312.42" rx="103.48" ry="48.17"/>
<text text-anchor="middle" x="225.19" y="-331.22" font-family="Times New Roman,serif" font-size="14.00">[85..9c)</text>
<text text-anchor="middle" x="225.19" y="-316.22" font-family="Times New Roman,serif" font-size="14.00">Count: 0</text>
<text text-anchor="middle" x="225.19" y="-301.22" font-family="Times New Roman,serif" font-size="14.00">Normalized count: 0.00</text>
<text text-anchor="middle" x="225.19" y="-286.22" font-family="Times New Roman,serif" font-size="14.00">Samples weight: 0.00</text>
</g>
<!-- BB6 -->
<g id="node7" class="node">
<title>BB6</title>
<ellipse fill="none" stroke="black" cx="337.19" cy="-180.25" rx="103.48" ry="48.17"/>
<text text-anchor="middle" x="337.19" y="-199.05" font-family="Times New Roman,serif" font-size="14.00">[9c..a6)</text>
<text text-anchor="middle" x="337.19" y="-184.05" font-family="Times New Roman,serif" font-size="14.00">Count: 0</text>
<text text-anchor="middle" x="337.19" y="-169.05" font-family="Times New Roman,serif" font-size="14.00">Normalized count: 0.00</text>
<text text-anchor="middle" x="337.19" y="-154.05" font-family="Times New Roman,serif" font-size="14.00">Samples weight: 0.00</text>
</g>
<!-- BB5&#45;&gt;BB6 -->
<g id="edge9" class="edge">
<title>BB5&#45;&gt;BB6</title>
<path fill="none" stroke="black" d="M263.11,-267.35C272.59,-256.32 282.86,-244.39 292.63,-233.03"/>
<polygon fill="black" stroke="black" points="295.44,-235.14 299.31,-225.27 290.13,-230.57 295.44,-235.14"/>
</g>
<!-- BB7 -->
<g id="node8" class="node">
<title>BB7</title>
<ellipse fill="none" stroke="black" cx="104.19" cy="-180.25" rx="103.48" ry="48.17"/>
<text text-anchor="middle" x="104.19" y="-199.05" font-family="Times New Roman,serif" font-size="14.00">[a6..ad)</text>
<text text-anchor="middle" x="104.19" y="-184.05" font-family="Times New Roman,serif" font-size="14.00">Count: 0</text>
<text text-anchor="middle" x="104.19" y="-169.05" font-family="Times New Roman,serif" font-size="14.00">Normalized count: 0.00</text>
<text text-anchor="middle" x="104.19" y="-154.05" font-family="Times New Roman,serif" font-size="14.00">Samples weight: 0.00</text>
</g>
<!-- BB5&#45;&gt;BB7 -->
<g id="edge8" class="edge">
<title>BB5&#45;&gt;BB7</title>
<path fill="none" stroke="black" d="M184.9,-268.07C174.29,-256.67 162.76,-244.26 151.81,-232.48"/>
<polygon fill="black" stroke="black" points="154.09,-229.79 144.72,-224.85 148.96,-234.56 154.09,-229.79"/>
</g>
<!-- BB6&#45;&gt;BB9 -->
<g id="edge10" class="edge">
<title>BB6&#45;&gt;BB9</title>
<path fill="none" stroke="black" d="M339.51,-228.62C343.77,-303.8 354.38,-446.63 375.19,-492.67 380.51,-504.45 388.11,-515.75 396.43,-526.01"/>
<polygon fill="black" stroke="black" points="393.77,-528.29 402.91,-533.65 399.11,-523.76 393.77,-528.29"/>
</g>
<!-- BB7&#45;&gt;BB8 -->
<g id="edge11" class="edge">
<title>BB7&#45;&gt;BB8</title>
<path fill="none" stroke="black" d="M96.02,-228.33C91.82,-266.28 91.43,-319.84 113.19,-360.5 121.81,-376.62 135.1,-390.46 149.54,-401.96"/>
<polygon fill="black" stroke="black" points="147.57,-404.86 157.66,-408.11 151.8,-399.28 147.57,-404.86"/>
</g>
<!-- BB8&#45;&gt;BB5 -->
<g id="edge12" class="edge">
<title>BB8&#45;&gt;BB5</title>
<path fill="none" stroke="black" d="M225.19,-396.22C225.19,-387.95 225.19,-379.27 225.19,-370.77"/>
<polygon fill="black" stroke="black" points="228.69,-370.52 225.19,-360.52 221.69,-370.52 228.69,-370.52"/>
</g>
<!-- BB8&#45;&gt;BB9 -->
<g id="edge13" class="edge">
<title>BB8&#45;&gt;BB9</title>
<path fill="none" stroke="black" d="M288.94,-482.63C316.38,-498.58 348.61,-517.3 376.94,-533.77"/>
<polygon fill="black" stroke="black" points="375.19,-536.8 385.6,-538.8 378.71,-530.75 375.19,-536.8"/>
</g>
<!-- BB10 -->
<g id="node11" class="node">
<title>BB10</title>
<ellipse fill="none" stroke="black" cx="487.19" cy="-444.58" rx="103.48" ry="48.17"/>
<text text-anchor="middle" x="487.19" y="-463.38" font-family="Times New Roman,serif" font-size="14.00">[be..c9)</text>
<text text-anchor="middle" x="487.19" y="-448.38" font-family="Times New Roman,serif" font-size="14.00">Count: 0</text>
<text text-anchor="middle" x="487.19" y="-433.38" font-family="Times New Roman,serif" font-size="14.00">Normalized count: 0.00</text>
<text text-anchor="middle" x="487.19" y="-418.38" font-family="Times New Roman,serif" font-size="14.00">Samples weight: 0.00</text>
</g>
<!-- BB9&#45;&gt;BB10 -->
<g id="edge15" class="edge">
<title>BB9&#45;&gt;BB10</title>
<path fill="none" stroke="black" d="M462.91,-528.76C465.41,-520.18 468.04,-511.16 470.62,-502.34"/>
<polygon fill="black" stroke="black" points="474.05,-503.09 473.49,-492.51 467.33,-501.13 474.05,-503.09"/>
</g>
<!-- BB11 -->
<g id="node12" class="node">
<title>BB11</title>
<ellipse fill="none" stroke="black" cx="711.19" cy="-444.58" rx="103.48" ry="48.17"/>
<text text-anchor="middle" x="711.19" y="-463.38" font-family="Times New Roman,serif" font-size="14.00">[c9..d7)</text>
<text text-anchor="middle" x="711.19" y="-448.38" font-family="Times New Roman,serif" font-size="14.00">Count: 2</text>
<text text-anchor="middle" x="711.19" y="-433.38" font-family="Times New Roman,serif" font-size="14.00">Normalized count: 1.00</text>
<text text-anchor="middle" x="711.19" y="-418.38" font-family="Times New Roman,serif" font-size="14.00">Samples weight: 0.02</text>
</g>
<!-- BB9&#45;&gt;BB11 -->
<g id="edge14" class="edge">
<title>BB9&#45;&gt;BB11</title>
<path fill="none" stroke="black" d="M519.05,-541.04C553.99,-523.68 596.41,-502.61 632.49,-484.68"/>
<polygon fill="black" stroke="black" points="634.12,-487.78 641.52,-480.2 631,-481.51 634.12,-487.78"/>
</g>
<!-- BB10&#45;&gt;BB11 -->
<g id="edge16" class="edge">
<title>BB10&#45;&gt;BB11</title>
<path fill="none" stroke="black" d="M590.44,-444.58C592.89,-444.58 595.35,-444.58 597.8,-444.58"/>
<polygon fill="black" stroke="black" points="597.89,-448.08 607.89,-444.58 597.89,-441.08 597.89,-448.08"/>
</g>
<!-- BB12 -->
<g id="node13" class="node">
<title>BB12</title>
<ellipse fill="none" stroke="black" cx="711.19" cy="-312.42" rx="103.48" ry="48.17"/>
<text text-anchor="middle" x="711.19" y="-331.22" font-family="Times New Roman,serif" font-size="14.00">[d7..10a)</text>
<text text-anchor="middle" x="711.19" y="-316.22" font-family="Times New Roman,serif" font-size="14.00">Count: 2</text>
<text text-anchor="middle" x="711.19" y="-301.22" font-family="Times New Roman,serif" font-size="14.00">Normalized count: 1.00</text>
<text text-anchor="middle" x="711.19" y="-286.22" font-family="Times New Roman,serif" font-size="14.00">Samples weight: 0.02</text>
</g>
<!-- BB11&#45;&gt;BB12 -->
<g id="edge17" class="edge">
<title>BB11&#45;&gt;BB12</title>
<path fill="none" stroke="black" d="M711.19,-396.22C711.19,-387.95 711.19,-379.27 711.19,-370.77"/>
<polygon fill="black" stroke="black" points="714.69,-370.52 711.19,-360.52 707.69,-370.52 714.69,-370.52"/>
</g>
<!-- BB12&#45;&gt;BB12 -->
<g id="edge18" class="edge">
<title>BB12&#45;&gt;BB12</title>
<path fill="none" stroke="black" d="M801.07,-336.22C819.34,-333.63 832.42,-325.69 832.42,-312.42 832.42,-301.73 823.95,-294.51 811.12,-290.74"/>
<polygon fill="black" stroke="black" points="811.58,-287.26 801.07,-288.61 810.13,-294.11 811.58,-287.26"/>
</g>
<!-- BB13 -->
<g id="node14" class="node">
<title>BB13</title>
<ellipse fill="none" stroke="black" cx="711.19" cy="-180.25" rx="103.48" ry="48.17"/>
<text text-anchor="middle" x="711.19" y="-199.05" font-family="Times New Roman,serif" font-size="14.00">[10a..112)</text>
<text text-anchor="middle" x="711.19" y="-184.05" font-family="Times New Roman,serif" font-size="14.00">Count: 2</text>
<text text-anchor="middle" x="711.19" y="-169.05" font-family="Times New Roman,serif" font-size="14.00">Normalized count: 1.00</text>
<text text-anchor="middle" x="711.19" y="-154.05" font-family="Times New Roman,serif" font-size="14.00">Samples weight: 0.02</text>
</g>
<!-- BB12&#45;&gt;BB13 -->
<g id="edge19" class="edge">
<title>BB12&#45;&gt;BB13</title>
<path fill="none" stroke="black" d="M711.19,-264.05C711.19,-255.79 711.19,-247.1 711.19,-238.6"/>
<polygon fill="black" stroke="black" points="714.69,-238.36 711.19,-228.36 707.69,-238.36 714.69,-238.36"/>
</g>
<!-- BB14 -->
<g id="node15" class="node">
<title>BB14</title>
<ellipse fill="none" stroke="black" cx="599.19" cy="-48.08" rx="103.48" ry="48.17"/>
<text text-anchor="middle" x="599.19" y="-66.88" font-family="Times New Roman,serif" font-size="14.00">[112..119)</text>
<text text-anchor="middle" x="599.19" y="-51.88" font-family="Times New Roman,serif" font-size="14.00">Count: 0</text>
<text text-anchor="middle" x="599.19" y="-36.88" font-family="Times New Roman,serif" font-size="14.00">Normalized count: 0.00</text>
<text text-anchor="middle" x="599.19" y="-21.88" font-family="Times New Roman,serif" font-size="14.00">Samples weight: 0.00</text>
</g>
<!-- BB13&#45;&gt;BB14 -->
<g id="edge21" class="edge">
<title>BB13&#45;&gt;BB14</title>
<path fill="none" stroke="black" d="M673.27,-135.18C663.78,-124.16 653.52,-112.23 643.74,-100.86"/>
<polygon fill="black" stroke="black" points="646.24,-98.4 637.07,-93.11 640.94,-102.97 646.24,-98.4"/>
</g>
<!-- BB15 -->
<g id="node16" class="node">
<title>BB15</title>
<ellipse fill="none" stroke="black" cx="823.19" cy="-48.08" rx="103.48" ry="48.17"/>
<text text-anchor="middle" x="823.19" y="-66.88" font-family="Times New Roman,serif" font-size="14.00">[119..12c)</text>
<text text-anchor="middle" x="823.19" y="-51.88" font-family="Times New Roman,serif" font-size="14.00">Count: 2</text>
<text text-anchor="middle" x="823.19" y="-36.88" font-family="Times New Roman,serif" font-size="14.00">Normalized count: 1.00</text>
<text text-anchor="middle" x="823.19" y="-21.88" font-family="Times New Roman,serif" font-size="14.00">Samples weight: 0.02</text>
</g>
<!-- BB13&#45;&gt;BB15 -->
<g id="edge20" class="edge">
<title>BB13&#45;&gt;BB15</title>
<path fill="none" stroke="black" d="M749.11,-135.18C758.59,-124.16 768.86,-112.23 778.63,-100.86"/>
<polygon fill="black" stroke="black" points="781.44,-102.97 785.31,-93.11 776.13,-98.4 781.44,-102.97"/>
</g>
<!-- BB14&#45;&gt;BB15 -->
<g id="edge22" class="edge">
<title>BB14&#45;&gt;BB15</title>
<path fill="none" stroke="black" d="M702.44,-48.08C704.89,-48.08 707.35,-48.08 709.8,-48.08"/>
<polygon fill="black" stroke="black" points="709.89,-51.58 719.89,-48.08 709.89,-44.58 709.89,-51.58"/>
</g>
</g>
</svg>
