<?xml version="1.0" encoding="UTF-8" standalone="no"?>
<!DOCTYPE svg PUBLIC "-//W3C//DTD SVG 1.1//EN"
 "http://www.w3.org/Graphics/SVG/1.1/DTD/svg11.dtd">
<!-- Generated by graphviz version 2.47.0 (20210316.0004)
 -->
<!-- Title: G Pages: 1 -->
<svg width="1233pt" height="897pt"
 viewBox="0.00 0.00 1232.79 897.17" xmlns="http://www.w3.org/2000/svg" xmlns:xlink="http://www.w3.org/1999/xlink">
<g id="graph0" class="graph" transform="scale(1 1) rotate(0) translate(4 893.17)">
<title>G</title>
<polygon fill="white" stroke="transparent" points="-4,4 -4,-893.17 1228.79,-893.17 1228.79,4 -4,4"/>
<!-- BB0 -->
<g id="node1" class="node">
<title>BB0</title>
<ellipse fill="none" stroke="black" cx="254.95" cy="-841.08" rx="104.8" ry="48.17"/>
<text text-anchor="middle" x="254.95" y="-859.88" font-family="Times New Roman,serif" font-size="14.00">[0..1e)</text>
<text text-anchor="middle" x="254.95" y="-844.88" font-family="Times New Roman,serif" font-size="14.00">Count: 0</text>
<text text-anchor="middle" x="254.95" y="-829.88" font-family="Times New Roman,serif" font-size="14.00">Normalized count: NaN</text>
<text text-anchor="middle" x="254.95" y="-814.88" font-family="Times New Roman,serif" font-size="14.00">Samples weight: 0.00</text>
</g>
<!-- BB10 -->
<g id="node11" class="node">
<title>BB10</title>
<ellipse fill="none" stroke="black" cx="254.95" cy="-708.92" rx="104.8" ry="48.17"/>
<text text-anchor="middle" x="254.95" y="-727.72" font-family="Times New Roman,serif" font-size="14.00">[bf..cc)</text>
<text text-anchor="middle" x="254.95" y="-712.72" font-family="Times New Roman,serif" font-size="14.00">Count: 0</text>
<text text-anchor="middle" x="254.95" y="-697.72" font-family="Times New Roman,serif" font-size="14.00">Normalized count: NaN</text>
<text text-anchor="middle" x="254.95" y="-682.72" font-family="Times New Roman,serif" font-size="14.00">Samples weight: 0.00</text>
</g>
<!-- BB0&#45;&gt;BB10 -->
<g id="edge1" class="edge">
<title>BB0&#45;&gt;BB10</title>
<path fill="none" stroke="black" d="M254.95,-792.72C254.95,-784.45 254.95,-775.77 254.95,-767.27"/>
<polygon fill="black" stroke="black" points="258.45,-767.02 254.95,-757.02 251.45,-767.02 258.45,-767.02"/>
</g>
<!-- BB1 -->
<g id="node2" class="node">
<title>BB1</title>
<ellipse fill="none" stroke="black" cx="254.95" cy="-576.75" rx="104.8" ry="48.17"/>
<text text-anchor="middle" x="254.95" y="-595.55" font-family="Times New Roman,serif" font-size="14.00">[1e..25)</text>
<text text-anchor="middle" x="254.95" y="-580.55" font-family="Times New Roman,serif" font-size="14.00">Count: 0</text>
<text text-anchor="middle" x="254.95" y="-565.55" font-family="Times New Roman,serif" font-size="14.00">Normalized count: NaN</text>
<text text-anchor="middle" x="254.95" y="-550.55" font-family="Times New Roman,serif" font-size="14.00">Samples weight: 0.00</text>
</g>
<!-- BB9 -->
<g id="node10" class="node">
<title>BB9</title>
<ellipse fill="none" stroke="black" cx="187.95" cy="-444.58" rx="113.69" ry="48.17"/>
<text text-anchor="middle" x="187.95" y="-463.38" font-family="Times New Roman,serif" font-size="14.00">[b8..bf)</text>
<text text-anchor="middle" x="187.95" y="-448.38" font-family="Times New Roman,serif" font-size="14.00">Count: 594</text>
<text text-anchor="middle" x="187.95" y="-433.38" font-family="Times New Roman,serif" font-size="14.00">Normalized count: Infinity</text>
<text text-anchor="middle" x="187.95" y="-418.38" font-family="Times New Roman,serif" font-size="14.00">Samples weight: 0.24</text>
</g>
<!-- BB1&#45;&gt;BB9 -->
<g id="edge2" class="edge">
<title>BB1&#45;&gt;BB9</title>
<path fill="none" stroke="black" d="M231.33,-529.86C226.53,-520.54 221.44,-510.64 216.49,-501.04"/>
<polygon fill="black" stroke="black" points="219.5,-499.23 211.81,-491.94 213.27,-502.43 219.5,-499.23"/>
</g>
<!-- BB2 -->
<g id="node3" class="node">
<title>BB2</title>
<ellipse fill="none" stroke="black" cx="495.95" cy="-312.42" rx="113.69" ry="48.17"/>
<text text-anchor="middle" x="495.95" y="-331.22" font-family="Times New Roman,serif" font-size="14.00">[25..42)</text>
<text text-anchor="middle" x="495.95" y="-316.22" font-family="Times New Roman,serif" font-size="14.00">Count: 383</text>
<text text-anchor="middle" x="495.95" y="-301.22" font-family="Times New Roman,serif" font-size="14.00">Normalized count: Infinity</text>
<text text-anchor="middle" x="495.95" y="-286.22" font-family="Times New Roman,serif" font-size="14.00">Samples weight: 0.15</text>
</g>
<!-- BB3 -->
<g id="node4" class="node">
<title>BB3</title>
<ellipse fill="none" stroke="black" cx="136.95" cy="-180.25" rx="104.8" ry="48.17"/>
<text text-anchor="middle" x="136.95" y="-199.05" font-family="Times New Roman,serif" font-size="14.00">[42..44)</text>
<text text-anchor="middle" x="136.95" y="-184.05" font-family="Times New Roman,serif" font-size="14.00">Count: 0</text>
<text text-anchor="middle" x="136.95" y="-169.05" font-family="Times New Roman,serif" font-size="14.00">Normalized count: NaN</text>
<text text-anchor="middle" x="136.95" y="-154.05" font-family="Times New Roman,serif" font-size="14.00">Samples weight: 0.00</text>
</g>
<!-- BB2&#45;&gt;BB3 -->
<g id="edge3" class="edge">
<title>BB2&#45;&gt;BB3</title>
<path fill="none" stroke="black" d="M406.03,-282.7C359.22,-267.34 301.2,-247.64 249.95,-228.33 240.85,-224.91 231.39,-221.2 222,-217.42"/>
<polygon fill="black" stroke="black" points="223.22,-214.14 212.64,-213.63 220.59,-220.63 223.22,-214.14"/>
</g>
<!-- BB4 -->
<g id="node5" class="node">
<title>BB4</title>
<ellipse fill="none" stroke="black" cx="372.95" cy="-180.25" rx="113.69" ry="48.17"/>
<text text-anchor="middle" x="372.95" y="-199.05" font-family="Times New Roman,serif" font-size="14.00">[44..61)</text>
<text text-anchor="middle" x="372.95" y="-184.05" font-family="Times New Roman,serif" font-size="14.00">Count: 265</text>
<text text-anchor="middle" x="372.95" y="-169.05" font-family="Times New Roman,serif" font-size="14.00">Normalized count: Infinity</text>
<text text-anchor="middle" x="372.95" y="-154.05" font-family="Times New Roman,serif" font-size="14.00">Samples weight: 0.11</text>
</g>
<!-- BB2&#45;&gt;BB4 -->
<g id="edge4" class="edge">
<title>BB2&#45;&gt;BB4</title>
<path fill="none" stroke="black" d="M454.31,-267.35C443.79,-256.22 432.4,-244.16 421.57,-232.7"/>
<polygon fill="black" stroke="black" points="423.96,-230.14 414.55,-225.27 418.87,-234.95 423.96,-230.14"/>
</g>
<!-- BB5 -->
<g id="node6" class="node">
<title>BB5</title>
<ellipse fill="none" stroke="black" cx="618.95" cy="-180.25" rx="113.69" ry="48.17"/>
<text text-anchor="middle" x="618.95" y="-199.05" font-family="Times New Roman,serif" font-size="14.00">[61..7e)</text>
<text text-anchor="middle" x="618.95" y="-184.05" font-family="Times New Roman,serif" font-size="14.00">Count: 297</text>
<text text-anchor="middle" x="618.95" y="-169.05" font-family="Times New Roman,serif" font-size="14.00">Normalized count: Infinity</text>
<text text-anchor="middle" x="618.95" y="-154.05" font-family="Times New Roman,serif" font-size="14.00">Samples weight: 0.12</text>
</g>
<!-- BB2&#45;&gt;BB5 -->
<g id="edge5" class="edge">
<title>BB2&#45;&gt;BB5</title>
<path fill="none" stroke="black" d="M537.59,-267.35C548.11,-256.22 559.5,-244.16 570.33,-232.7"/>
<polygon fill="black" stroke="black" points="573.02,-234.95 577.35,-225.27 567.94,-230.14 573.02,-234.95"/>
</g>
<!-- BB6 -->
<g id="node7" class="node">
<title>BB6</title>
<ellipse fill="none" stroke="black" cx="864.95" cy="-180.25" rx="113.69" ry="48.17"/>
<text text-anchor="middle" x="864.95" y="-199.05" font-family="Times New Roman,serif" font-size="14.00">[7e..9a)</text>
<text text-anchor="middle" x="864.95" y="-184.05" font-family="Times New Roman,serif" font-size="14.00">Count: 314</text>
<text text-anchor="middle" x="864.95" y="-169.05" font-family="Times New Roman,serif" font-size="14.00">Normalized count: Infinity</text>
<text text-anchor="middle" x="864.95" y="-154.05" font-family="Times New Roman,serif" font-size="14.00">Samples weight: 0.12</text>
</g>
<!-- BB2&#45;&gt;BB6 -->
<g id="edge6" class="edge">
<title>BB2&#45;&gt;BB6</title>
<path fill="none" stroke="black" d="M585.06,-282.27C631.91,-266.71 690.21,-246.97 741.95,-228.33 751.91,-224.74 762.3,-220.91 772.63,-217.04"/>
<polygon fill="black" stroke="black" points="773.96,-220.28 782.08,-213.49 771.49,-213.73 773.96,-220.28"/>
</g>
<!-- BB7 -->
<g id="node8" class="node">
<title>BB7</title>
<ellipse fill="none" stroke="black" cx="1110.95" cy="-180.25" rx="113.69" ry="48.17"/>
<text text-anchor="middle" x="1110.95" y="-199.05" font-family="Times New Roman,serif" font-size="14.00">[9a..b4)</text>
<text text-anchor="middle" x="1110.95" y="-184.05" font-family="Times New Roman,serif" font-size="14.00">Count: 69</text>
<text text-anchor="middle" x="1110.95" y="-169.05" font-family="Times New Roman,serif" font-size="14.00">Normalized count: Infinity</text>
<text text-anchor="middle" x="1110.95" y="-154.05" font-family="Times New Roman,serif" font-size="14.00">Samples weight: 0.03</text>
</g>
<!-- BB2&#45;&gt;BB7 -->
<g id="edge7" class="edge">
<title>BB2&#45;&gt;BB7</title>
<path fill="none" stroke="black" d="M605.76,-299.21C706.36,-286.54 858.83,-263.57 987.95,-228.33 998.78,-225.38 1009.99,-221.82 1021.02,-218.01"/>
<polygon fill="black" stroke="black" points="1022.4,-221.23 1030.66,-214.59 1020.06,-214.63 1022.4,-221.23"/>
</g>
<!-- BB8 -->
<g id="node9" class="node">
<title>BB8</title>
<ellipse fill="none" stroke="black" cx="495.95" cy="-48.08" rx="113.69" ry="48.17"/>
<text text-anchor="middle" x="495.95" y="-66.88" font-family="Times New Roman,serif" font-size="14.00">[b4..b8)</text>
<text text-anchor="middle" x="495.95" y="-51.88" font-family="Times New Roman,serif" font-size="14.00">Count: 594</text>
<text text-anchor="middle" x="495.95" y="-36.88" font-family="Times New Roman,serif" font-size="14.00">Normalized count: Infinity</text>
<text text-anchor="middle" x="495.95" y="-21.88" font-family="Times New Roman,serif" font-size="14.00">Samples weight: 0.24</text>
</g>
<!-- BB3&#45;&gt;BB8 -->
<g id="edge8" class="edge">
<title>BB3&#45;&gt;BB8</title>
<path fill="none" stroke="black" d="M212.64,-146.87C225.05,-141.8 237.82,-136.74 249.95,-132.17 297.7,-114.18 351.32,-95.86 396.28,-81.01"/>
<polygon fill="black" stroke="black" points="397.63,-84.25 406.03,-77.8 395.44,-77.6 397.63,-84.25"/>
</g>
<!-- BB4&#45;&gt;BB8 -->
<g id="edge9" class="edge">
<title>BB4&#45;&gt;BB8</title>
<path fill="none" stroke="black" d="M414.59,-135.18C425.11,-124.05 436.5,-112 447.33,-100.54"/>
<polygon fill="black" stroke="black" points="450.02,-102.78 454.35,-93.11 444.94,-97.97 450.02,-102.78"/>
</g>
<!-- BB5&#45;&gt;BB8 -->
<g id="edge10" class="edge">
<title>BB5&#45;&gt;BB8</title>
<path fill="none" stroke="black" d="M577.31,-135.18C566.79,-124.05 555.4,-112 544.57,-100.54"/>
<polygon fill="black" stroke="black" points="546.96,-97.97 537.55,-93.11 541.87,-102.78 546.96,-97.97"/>
</g>
<!-- BB6&#45;&gt;BB8 -->
<g id="edge11" class="edge">
<title>BB6&#45;&gt;BB8</title>
<path fill="none" stroke="black" d="M782.08,-147.01C768.7,-141.95 754.96,-136.85 741.95,-132.17 693.74,-114.81 639.85,-96.49 594.82,-81.48"/>
<polygon fill="black" stroke="black" points="595.65,-78.06 585.06,-78.23 593.44,-84.71 595.65,-78.06"/>
</g>
<!-- BB7&#45;&gt;BB8 -->
<g id="edge12" class="edge">
<title>BB7&#45;&gt;BB8</title>
<path fill="none" stroke="black" d="M1030.66,-145.9C1016.58,-140.81 1001.96,-135.99 987.95,-132.17 863.12,-98.1 716.46,-75.5 615.95,-62.59"/>
<polygon fill="black" stroke="black" points="616.12,-59.08 605.76,-61.29 615.23,-66.02 616.12,-59.08"/>
</g>
<!-- BB8&#45;&gt;BB9 -->
<g id="edge13" class="edge">
<title>BB8&#45;&gt;BB9</title>
<path fill="none" stroke="black" d="M382.38,-52.79C257.33,-59.54 67.95,-78.57 22.95,-132.17 -46.05,-214.34 56.9,-330.06 128.61,-394.81"/>
<polygon fill="black" stroke="black" points="126.52,-397.64 136.31,-401.68 131.18,-392.41 126.52,-397.64"/>
</g>
<!-- BB9&#45;&gt;BB2 -->
<g id="edge14" class="edge">
<title>BB9&#45;&gt;BB2</title>
<path fill="none" stroke="black" d="M267.27,-410.06C310.11,-391.95 363.14,-369.54 407.34,-350.86"/>
<polygon fill="black" stroke="black" points="408.78,-354.05 416.63,-346.94 406.06,-347.61 408.78,-354.05"/>
</g>
<!-- BB9&#45;&gt;BB10 -->
<g id="edge15" class="edge">
<title>BB9&#45;&gt;BB10</title>
<path fill="none" stroke="black" d="M156.64,-491.22C150.18,-502.92 144.32,-515.85 140.95,-528.67 130.07,-570 121.57,-586.74 140.95,-624.83 149.29,-641.22 162.54,-655.15 177.11,-666.64"/>
<polygon fill="black" stroke="black" points="175.21,-669.59 185.32,-672.78 179.4,-663.99 175.21,-669.59"/>
</g>
<!-- BB10&#45;&gt;BB1 -->
<g id="edge16" class="edge">
<title>BB10&#45;&gt;BB1</title>
<path fill="none" stroke="black" d="M254.95,-660.55C254.95,-652.29 254.95,-643.6 254.95,-635.1"/>
<polygon fill="black" stroke="black" points="258.45,-634.86 254.95,-624.86 251.45,-634.86 258.45,-634.86"/>
</g>
<!-- BB11 -->
<g id="node12" class="node">
<title>BB11</title>
<ellipse fill="none" stroke="black" cx="481.95" cy="-576.75" rx="104.8" ry="48.17"/>
<text text-anchor="middle" x="481.95" y="-595.55" font-family="Times New Roman,serif" font-size="14.00">[cc..d3)</text>
<text text-anchor="middle" x="481.95" y="-580.55" font-family="Times New Roman,serif" font-size="14.00">Count: 0</text>
<text text-anchor="middle" x="481.95" y="-565.55" font-family="Times New Roman,serif" font-size="14.00">Normalized count: NaN</text>
<text text-anchor="middle" x="481.95" y="-550.55" font-family="Times New Roman,serif" font-size="14.00">Samples weight: 0.00</text>
</g>
<!-- BB10&#45;&gt;BB11 -->
<g id="edge17" class="edge">
<title>BB10&#45;&gt;BB11</title>
<path fill="none" stroke="black" d="M319.39,-670.96C347.19,-655.02 379.84,-636.3 408.57,-619.83"/>
<polygon fill="black" stroke="black" points="410.41,-622.8 417.35,-614.79 406.93,-616.73 410.41,-622.8"/>
</g>
</g>
</svg>
