<?xml version="1.0" encoding="UTF-8" standalone="no"?>
<!DOCTYPE svg PUBLIC "-//W3C//DTD SVG 1.1//EN"
 "http://www.w3.org/Graphics/SVG/1.1/DTD/svg11.dtd">
<!-- Generated by graphviz version 2.47.0 (20210316.0004)
 -->
<!-- Title: G Pages: 1 -->
<svg width="954pt" height="1029pt"
 viewBox="0.00 0.00 954.50 1029.33" xmlns="http://www.w3.org/2000/svg" xmlns:xlink="http://www.w3.org/1999/xlink">
<g id="graph0" class="graph" transform="scale(1 1) rotate(0) translate(4 1025.33)">
<title>G</title>
<polygon fill="white" stroke="transparent" points="-4,4 -4,-1025.33 950.5,-1025.33 950.5,4 -4,4"/>
<!-- BB0 -->
<g id="node1" class="node">
<title>BB0</title>
<ellipse fill="none" stroke="black" cx="113.84" cy="-973.25" rx="104.8" ry="48.17"/>
<text text-anchor="middle" x="113.84" y="-992.05" font-family="Times New Roman,serif" font-size="14.00">[0..29)</text>
<text text-anchor="middle" x="113.84" y="-977.05" font-family="Times New Roman,serif" font-size="14.00">Count: 0</text>
<text text-anchor="middle" x="113.84" y="-962.05" font-family="Times New Roman,serif" font-size="14.00">Normalized count: NaN</text>
<text text-anchor="middle" x="113.84" y="-947.05" font-family="Times New Roman,serif" font-size="14.00">Samples weight: 0.00</text>
</g>
<!-- BB2 -->
<g id="node3" class="node">
<title>BB2</title>
<ellipse fill="none" stroke="black" cx="113.84" cy="-841.08" rx="113.69" ry="48.17"/>
<text text-anchor="middle" x="113.84" y="-859.88" font-family="Times New Roman,serif" font-size="14.00">[59..63)</text>
<text text-anchor="middle" x="113.84" y="-844.88" font-family="Times New Roman,serif" font-size="14.00">Count: 12</text>
<text text-anchor="middle" x="113.84" y="-829.88" font-family="Times New Roman,serif" font-size="14.00">Normalized count: Infinity</text>
<text text-anchor="middle" x="113.84" y="-814.88" font-family="Times New Roman,serif" font-size="14.00">Samples weight: 0.11</text>
</g>
<!-- BB0&#45;&gt;BB2 -->
<g id="edge1" class="edge">
<title>BB0&#45;&gt;BB2</title>
<path fill="none" stroke="black" d="M113.84,-924.89C113.84,-916.62 113.84,-907.94 113.84,-899.43"/>
<polygon fill="black" stroke="black" points="117.34,-899.19 113.84,-889.19 110.34,-899.19 117.34,-899.19"/>
</g>
<!-- BB1 -->
<g id="node2" class="node">
<title>BB1</title>
<ellipse fill="none" stroke="black" cx="113.84" cy="-708.92" rx="113.69" ry="48.17"/>
<text text-anchor="middle" x="113.84" y="-727.72" font-family="Times New Roman,serif" font-size="14.00">[29..59)</text>
<text text-anchor="middle" x="113.84" y="-712.72" font-family="Times New Roman,serif" font-size="14.00">Count: 95</text>
<text text-anchor="middle" x="113.84" y="-697.72" font-family="Times New Roman,serif" font-size="14.00">Normalized count: Infinity</text>
<text text-anchor="middle" x="113.84" y="-682.72" font-family="Times New Roman,serif" font-size="14.00">Samples weight: 0.89</text>
</g>
<!-- BB1&#45;&gt;BB2 -->
<g id="edge2" class="edge">
<title>BB1&#45;&gt;BB2</title>
<path fill="none" stroke="black" d="M120.36,-757.02C120.58,-765.28 120.65,-773.96 120.55,-782.47"/>
<polygon fill="black" stroke="black" points="117.05,-782.66 120.37,-792.72 124.05,-782.79 117.05,-782.66"/>
</g>
<!-- BB2&#45;&gt;BB1 -->
<g id="edge3" class="edge">
<title>BB2&#45;&gt;BB1</title>
<path fill="none" stroke="black" d="M107.32,-792.72C107.1,-784.45 107.04,-775.77 107.14,-767.27"/>
<polygon fill="black" stroke="black" points="110.64,-767.09 107.33,-757.02 103.64,-766.96 110.64,-767.09"/>
</g>
<!-- BB3 -->
<g id="node4" class="node">
<title>BB3</title>
<ellipse fill="none" stroke="black" cx="349.84" cy="-708.92" rx="104.8" ry="48.17"/>
<text text-anchor="middle" x="349.84" y="-727.72" font-family="Times New Roman,serif" font-size="14.00">[63..79)</text>
<text text-anchor="middle" x="349.84" y="-712.72" font-family="Times New Roman,serif" font-size="14.00">Count: 0</text>
<text text-anchor="middle" x="349.84" y="-697.72" font-family="Times New Roman,serif" font-size="14.00">Normalized count: NaN</text>
<text text-anchor="middle" x="349.84" y="-682.72" font-family="Times New Roman,serif" font-size="14.00">Samples weight: 0.00</text>
</g>
<!-- BB2&#45;&gt;BB3 -->
<g id="edge4" class="edge">
<title>BB2&#45;&gt;BB3</title>
<path fill="none" stroke="black" d="M182.11,-802.43C211.1,-786.44 244.99,-767.75 274.7,-751.36"/>
<polygon fill="black" stroke="black" points="276.7,-754.25 283.77,-746.36 273.32,-748.12 276.7,-754.25"/>
</g>
<!-- BB4 -->
<g id="node5" class="node">
<title>BB4</title>
<ellipse fill="none" stroke="black" cx="235.84" cy="-576.75" rx="104.8" ry="48.17"/>
<text text-anchor="middle" x="235.84" y="-595.55" font-family="Times New Roman,serif" font-size="14.00">[79..85)</text>
<text text-anchor="middle" x="235.84" y="-580.55" font-family="Times New Roman,serif" font-size="14.00">Count: 0</text>
<text text-anchor="middle" x="235.84" y="-565.55" font-family="Times New Roman,serif" font-size="14.00">Normalized count: NaN</text>
<text text-anchor="middle" x="235.84" y="-550.55" font-family="Times New Roman,serif" font-size="14.00">Samples weight: 0.00</text>
</g>
<!-- BB3&#45;&gt;BB4 -->
<g id="edge6" class="edge">
<title>BB3&#45;&gt;BB4</title>
<path fill="none" stroke="black" d="M311.25,-663.85C301.59,-652.82 291.15,-640.89 281.19,-629.53"/>
<polygon fill="black" stroke="black" points="283.62,-626.99 274.4,-621.77 278.36,-631.6 283.62,-626.99"/>
</g>
<!-- BB9 -->
<g id="node10" class="node">
<title>BB9</title>
<ellipse fill="none" stroke="black" cx="462.84" cy="-576.75" rx="104.8" ry="48.17"/>
<text text-anchor="middle" x="462.84" y="-595.55" font-family="Times New Roman,serif" font-size="14.00">[b6..be)</text>
<text text-anchor="middle" x="462.84" y="-580.55" font-family="Times New Roman,serif" font-size="14.00">Count: 0</text>
<text text-anchor="middle" x="462.84" y="-565.55" font-family="Times New Roman,serif" font-size="14.00">Normalized count: NaN</text>
<text text-anchor="middle" x="462.84" y="-550.55" font-family="Times New Roman,serif" font-size="14.00">Samples weight: 0.00</text>
</g>
<!-- BB3&#45;&gt;BB9 -->
<g id="edge5" class="edge">
<title>BB3&#45;&gt;BB9</title>
<path fill="none" stroke="black" d="M388.1,-663.85C397.67,-652.82 408.03,-640.89 417.89,-629.53"/>
<polygon fill="black" stroke="black" points="420.71,-631.62 424.63,-621.77 415.43,-627.03 420.71,-631.62"/>
</g>
<!-- BB8 -->
<g id="node9" class="node">
<title>BB8</title>
<ellipse fill="none" stroke="black" cx="235.84" cy="-444.58" rx="104.8" ry="48.17"/>
<text text-anchor="middle" x="235.84" y="-463.38" font-family="Times New Roman,serif" font-size="14.00">[ad..b6)</text>
<text text-anchor="middle" x="235.84" y="-448.38" font-family="Times New Roman,serif" font-size="14.00">Count: 0</text>
<text text-anchor="middle" x="235.84" y="-433.38" font-family="Times New Roman,serif" font-size="14.00">Normalized count: NaN</text>
<text text-anchor="middle" x="235.84" y="-418.38" font-family="Times New Roman,serif" font-size="14.00">Samples weight: 0.00</text>
</g>
<!-- BB4&#45;&gt;BB8 -->
<g id="edge7" class="edge">
<title>BB4&#45;&gt;BB8</title>
<path fill="none" stroke="black" d="M235.84,-528.39C235.84,-520.12 235.84,-511.44 235.84,-502.93"/>
<polygon fill="black" stroke="black" points="239.34,-502.69 235.84,-492.69 232.34,-502.69 239.34,-502.69"/>
</g>
<!-- BB5 -->
<g id="node6" class="node">
<title>BB5</title>
<ellipse fill="none" stroke="black" cx="235.84" cy="-312.42" rx="104.8" ry="48.17"/>
<text text-anchor="middle" x="235.84" y="-331.22" font-family="Times New Roman,serif" font-size="14.00">[85..9c)</text>
<text text-anchor="middle" x="235.84" y="-316.22" font-family="Times New Roman,serif" font-size="14.00">Count: 0</text>
<text text-anchor="middle" x="235.84" y="-301.22" font-family="Times New Roman,serif" font-size="14.00">Normalized count: NaN</text>
<text text-anchor="middle" x="235.84" y="-286.22" font-family="Times New Roman,serif" font-size="14.00">Samples weight: 0.00</text>
</g>
<!-- BB6 -->
<g id="node7" class="node">
<title>BB6</title>
<ellipse fill="none" stroke="black" cx="349.84" cy="-180.25" rx="104.8" ry="48.17"/>
<text text-anchor="middle" x="349.84" y="-199.05" font-family="Times New Roman,serif" font-size="14.00">[9c..a6)</text>
<text text-anchor="middle" x="349.84" y="-184.05" font-family="Times New Roman,serif" font-size="14.00">Count: 0</text>
<text text-anchor="middle" x="349.84" y="-169.05" font-family="Times New Roman,serif" font-size="14.00">Normalized count: NaN</text>
<text text-anchor="middle" x="349.84" y="-154.05" font-family="Times New Roman,serif" font-size="14.00">Samples weight: 0.00</text>
</g>
<!-- BB5&#45;&gt;BB6 -->
<g id="edge9" class="edge">
<title>BB5&#45;&gt;BB6</title>
<path fill="none" stroke="black" d="M274.44,-267.35C284.1,-256.32 294.54,-244.39 304.49,-233.03"/>
<polygon fill="black" stroke="black" points="307.33,-235.1 311.29,-225.27 302.07,-230.49 307.33,-235.1"/>
</g>
<!-- BB7 -->
<g id="node8" class="node">
<title>BB7</title>
<ellipse fill="none" stroke="black" cx="112.84" cy="-180.25" rx="104.8" ry="48.17"/>
<text text-anchor="middle" x="112.84" y="-199.05" font-family="Times New Roman,serif" font-size="14.00">[a6..ad)</text>
<text text-anchor="middle" x="112.84" y="-184.05" font-family="Times New Roman,serif" font-size="14.00">Count: 0</text>
<text text-anchor="middle" x="112.84" y="-169.05" font-family="Times New Roman,serif" font-size="14.00">Normalized count: NaN</text>
<text text-anchor="middle" x="112.84" y="-154.05" font-family="Times New Roman,serif" font-size="14.00">Samples weight: 0.00</text>
</g>
<!-- BB5&#45;&gt;BB7 -->
<g id="edge8" class="edge">
<title>BB5&#45;&gt;BB7</title>
<path fill="none" stroke="black" d="M194.89,-268.07C184.01,-256.56 172.16,-244.02 160.93,-232.14"/>
<polygon fill="black" stroke="black" points="163.45,-229.71 154.04,-224.85 158.37,-234.52 163.45,-229.71"/>
</g>
<!-- BB6&#45;&gt;BB9 -->
<g id="edge10" class="edge">
<title>BB6&#45;&gt;BB9</title>
<path fill="none" stroke="black" d="M352.12,-228.33C356.32,-303.45 366.85,-446.64 387.84,-492.67 393.24,-504.5 400.94,-515.83 409.38,-526.1"/>
<polygon fill="black" stroke="black" points="406.77,-528.44 415.94,-533.74 412.08,-523.88 406.77,-528.44"/>
</g>
<!-- BB7&#45;&gt;BB8 -->
<g id="edge11" class="edge">
<title>BB7&#45;&gt;BB8</title>
<path fill="none" stroke="black" d="M104.59,-228.38C100.33,-266.36 99.91,-319.93 121.84,-360.5 130.59,-376.68 144.01,-390.51 158.62,-401.99"/>
<polygon fill="black" stroke="black" points="156.73,-404.94 166.83,-408.12 160.91,-399.33 156.73,-404.94"/>
</g>
<!-- BB8&#45;&gt;BB5 -->
<g id="edge12" class="edge">
<title>BB8&#45;&gt;BB5</title>
<path fill="none" stroke="black" d="M235.84,-396.22C235.84,-387.95 235.84,-379.27 235.84,-370.77"/>
<polygon fill="black" stroke="black" points="239.34,-370.52 235.84,-360.52 232.34,-370.52 239.34,-370.52"/>
</g>
<!-- BB8&#45;&gt;BB9 -->
<g id="edge13" class="edge">
<title>BB8&#45;&gt;BB9</title>
<path fill="none" stroke="black" d="M300.45,-482.63C328.26,-498.58 360.92,-517.3 389.63,-533.77"/>
<polygon fill="black" stroke="black" points="387.99,-536.86 398.4,-538.8 391.47,-530.79 387.99,-536.86"/>
</g>
<!-- BB10 -->
<g id="node11" class="node">
<title>BB10</title>
<ellipse fill="none" stroke="black" cx="501.84" cy="-444.58" rx="104.8" ry="48.17"/>
<text text-anchor="middle" x="501.84" y="-463.38" font-family="Times New Roman,serif" font-size="14.00">[be..c9)</text>
<text text-anchor="middle" x="501.84" y="-448.38" font-family="Times New Roman,serif" font-size="14.00">Count: 0</text>
<text text-anchor="middle" x="501.84" y="-433.38" font-family="Times New Roman,serif" font-size="14.00">Normalized count: NaN</text>
<text text-anchor="middle" x="501.84" y="-418.38" font-family="Times New Roman,serif" font-size="14.00">Samples weight: 0.00</text>
</g>
<!-- BB9&#45;&gt;BB10 -->
<g id="edge15" class="edge">
<title>BB9&#45;&gt;BB10</title>
<path fill="none" stroke="black" d="M476.92,-528.76C479.49,-520.18 482.2,-511.16 484.84,-502.34"/>
<polygon fill="black" stroke="black" points="488.27,-503.09 487.78,-492.51 481.56,-501.08 488.27,-503.09"/>
</g>
<!-- BB11 -->
<g id="node12" class="node">
<title>BB11</title>
<ellipse fill="none" stroke="black" cx="728.84" cy="-444.58" rx="104.8" ry="48.17"/>
<text text-anchor="middle" x="728.84" y="-463.38" font-family="Times New Roman,serif" font-size="14.00">[c9..d7)</text>
<text text-anchor="middle" x="728.84" y="-448.38" font-family="Times New Roman,serif" font-size="14.00">Count: 0</text>
<text text-anchor="middle" x="728.84" y="-433.38" font-family="Times New Roman,serif" font-size="14.00">Normalized count: NaN</text>
<text text-anchor="middle" x="728.84" y="-418.38" font-family="Times New Roman,serif" font-size="14.00">Samples weight: 0.00</text>
</g>
<!-- BB9&#45;&gt;BB11 -->
<g id="edge14" class="edge">
<title>BB9&#45;&gt;BB11</title>
<path fill="none" stroke="black" d="M533.43,-541.21C568.9,-523.85 612.03,-502.74 648.74,-484.78"/>
<polygon fill="black" stroke="black" points="650.49,-487.82 657.93,-480.28 647.41,-481.54 650.49,-487.82"/>
</g>
<!-- BB10&#45;&gt;BB11 -->
<g id="edge16" class="edge">
<title>BB10&#45;&gt;BB11</title>
<path fill="none" stroke="black" d="M606.92,-444.58C609.24,-444.58 611.56,-444.58 613.89,-444.58"/>
<polygon fill="black" stroke="black" points="614.07,-448.08 624.07,-444.58 614.07,-441.08 614.07,-448.08"/>
</g>
<!-- BB12 -->
<g id="node13" class="node">
<title>BB12</title>
<ellipse fill="none" stroke="black" cx="728.84" cy="-312.42" rx="104.8" ry="48.17"/>
<text text-anchor="middle" x="728.84" y="-331.22" font-family="Times New Roman,serif" font-size="14.00">[d7..10a)</text>
<text text-anchor="middle" x="728.84" y="-316.22" font-family="Times New Roman,serif" font-size="14.00">Count: 0</text>
<text text-anchor="middle" x="728.84" y="-301.22" font-family="Times New Roman,serif" font-size="14.00">Normalized count: NaN</text>
<text text-anchor="middle" x="728.84" y="-286.22" font-family="Times New Roman,serif" font-size="14.00">Samples weight: 0.00</text>
</g>
<!-- BB11&#45;&gt;BB12 -->
<g id="edge17" class="edge">
<title>BB11&#45;&gt;BB12</title>
<path fill="none" stroke="black" d="M728.84,-396.22C728.84,-387.95 728.84,-379.27 728.84,-370.77"/>
<polygon fill="black" stroke="black" points="732.34,-370.52 728.84,-360.52 725.34,-370.52 732.34,-370.52"/>
</g>
<!-- BB12&#45;&gt;BB12 -->
<g id="edge18" class="edge">
<title>BB12&#45;&gt;BB12</title>
<path fill="none" stroke="black" d="M819.77,-336.22C838.26,-333.63 851.5,-325.69 851.5,-312.42 851.5,-301.73 842.92,-294.51 829.95,-290.74"/>
<polygon fill="black" stroke="black" points="830.28,-287.24 819.77,-288.61 828.84,-294.09 830.28,-287.24"/>
</g>
<!-- BB13 -->
<g id="node14" class="node">
<title>BB13</title>
<ellipse fill="none" stroke="black" cx="728.84" cy="-180.25" rx="104.8" ry="48.17"/>
<text text-anchor="middle" x="728.84" y="-199.05" font-family="Times New Roman,serif" font-size="14.00">[10a..112)</text>
<text text-anchor="middle" x="728.84" y="-184.05" font-family="Times New Roman,serif" font-size="14.00">Count: 0</text>
<text text-anchor="middle" x="728.84" y="-169.05" font-family="Times New Roman,serif" font-size="14.00">Normalized count: NaN</text>
<text text-anchor="middle" x="728.84" y="-154.05" font-family="Times New Roman,serif" font-size="14.00">Samples weight: 0.00</text>
</g>
<!-- BB12&#45;&gt;BB13 -->
<g id="edge19" class="edge">
<title>BB12&#45;&gt;BB13</title>
<path fill="none" stroke="black" d="M728.84,-264.05C728.84,-255.79 728.84,-247.1 728.84,-238.6"/>
<polygon fill="black" stroke="black" points="732.34,-238.36 728.84,-228.36 725.34,-238.36 732.34,-238.36"/>
</g>
<!-- BB14 -->
<g id="node15" class="node">
<title>BB14</title>
<ellipse fill="none" stroke="black" cx="614.84" cy="-48.08" rx="104.8" ry="48.17"/>
<text text-anchor="middle" x="614.84" y="-66.88" font-family="Times New Roman,serif" font-size="14.00">[112..119)</text>
<text text-anchor="middle" x="614.84" y="-51.88" font-family="Times New Roman,serif" font-size="14.00">Count: 0</text>
<text text-anchor="middle" x="614.84" y="-36.88" font-family="Times New Roman,serif" font-size="14.00">Normalized count: NaN</text>
<text text-anchor="middle" x="614.84" y="-21.88" font-family="Times New Roman,serif" font-size="14.00">Samples weight: 0.00</text>
</g>
<!-- BB13&#45;&gt;BB14 -->
<g id="edge21" class="edge">
<title>BB13&#45;&gt;BB14</title>
<path fill="none" stroke="black" d="M690.25,-135.18C680.59,-124.16 670.15,-112.23 660.19,-100.86"/>
<polygon fill="black" stroke="black" points="662.62,-98.32 653.4,-93.11 657.36,-102.94 662.62,-98.32"/>
</g>
<!-- BB15 -->
<g id="node16" class="node">
<title>BB15</title>
<ellipse fill="none" stroke="black" cx="841.84" cy="-48.08" rx="104.8" ry="48.17"/>
<text text-anchor="middle" x="841.84" y="-66.88" font-family="Times New Roman,serif" font-size="14.00">[119..12c)</text>
<text text-anchor="middle" x="841.84" y="-51.88" font-family="Times New Roman,serif" font-size="14.00">Count: 0</text>
<text text-anchor="middle" x="841.84" y="-36.88" font-family="Times New Roman,serif" font-size="14.00">Normalized count: NaN</text>
<text text-anchor="middle" x="841.84" y="-21.88" font-family="Times New Roman,serif" font-size="14.00">Samples weight: 0.00</text>
</g>
<!-- BB13&#45;&gt;BB15 -->
<g id="edge20" class="edge">
<title>BB13&#45;&gt;BB15</title>
<path fill="none" stroke="black" d="M767.1,-135.18C776.67,-124.16 787.03,-112.23 796.89,-100.86"/>
<polygon fill="black" stroke="black" points="799.71,-102.95 803.63,-93.11 794.43,-98.36 799.71,-102.95"/>
</g>
<!-- BB14&#45;&gt;BB15 -->
<g id="edge22" class="edge">
<title>BB14&#45;&gt;BB15</title>
<path fill="none" stroke="black" d="M719.92,-48.08C722.24,-48.08 724.56,-48.08 726.89,-48.08"/>
<polygon fill="black" stroke="black" points="727.07,-51.58 737.07,-48.08 727.07,-44.58 727.07,-51.58"/>
</g>
</g>
</svg>
