<?xml version="1.0" encoding="UTF-8" standalone="no"?>
<!DOCTYPE svg PUBLIC "-//W3C//DTD SVG 1.1//EN"
 "http://www.w3.org/Graphics/SVG/1.1/DTD/svg11.dtd">
<!-- Generated by graphviz version 2.47.0 (20210316.0004)
 -->
<!-- Title: G Pages: 1 -->
<svg width="662pt" height="765pt"
 viewBox="0.00 0.00 662.48 765.00" xmlns="http://www.w3.org/2000/svg" xmlns:xlink="http://www.w3.org/1999/xlink">
<g id="graph0" class="graph" transform="scale(1 1) rotate(0) translate(4 761)">
<title>G</title>
<polygon fill="white" stroke="transparent" points="-4,4 -4,-761 658.48,-761 658.48,4 -4,4"/>
<!-- BB0 -->
<g id="node1" class="node">
<title>BB0</title>
<ellipse fill="none" stroke="black" cx="215.24" cy="-708.92" rx="103.48" ry="48.17"/>
<text text-anchor="middle" x="215.24" y="-727.72" font-family="Times New Roman,serif" font-size="14.00">[0..4)</text>
<text text-anchor="middle" x="215.24" y="-712.72" font-family="Times New Roman,serif" font-size="14.00">Count: 8</text>
<text text-anchor="middle" x="215.24" y="-697.72" font-family="Times New Roman,serif" font-size="14.00">Normalized count: 1.00</text>
<text text-anchor="middle" x="215.24" y="-682.72" font-family="Times New Roman,serif" font-size="14.00">Samples weight: 0.07</text>
</g>
<!-- BB1 -->
<g id="node2" class="node">
<title>BB1</title>
<ellipse fill="none" stroke="black" cx="103.24" cy="-576.75" rx="103.48" ry="48.17"/>
<text text-anchor="middle" x="103.24" y="-595.55" font-family="Times New Roman,serif" font-size="14.00">[4..12)</text>
<text text-anchor="middle" x="103.24" y="-580.55" font-family="Times New Roman,serif" font-size="14.00">Count: 4</text>
<text text-anchor="middle" x="103.24" y="-565.55" font-family="Times New Roman,serif" font-size="14.00">Normalized count: 0.50</text>
<text text-anchor="middle" x="103.24" y="-550.55" font-family="Times New Roman,serif" font-size="14.00">Samples weight: 0.04</text>
</g>
<!-- BB0&#45;&gt;BB1 -->
<g id="edge2" class="edge">
<title>BB0&#45;&gt;BB1</title>
<path fill="none" stroke="black" d="M177.32,-663.85C167.83,-652.82 157.57,-640.89 147.79,-629.53"/>
<polygon fill="black" stroke="black" points="150.29,-627.07 141.12,-621.77 144.99,-631.64 150.29,-627.07"/>
</g>
<!-- BB2 -->
<g id="node3" class="node">
<title>BB2</title>
<ellipse fill="none" stroke="black" cx="327.24" cy="-576.75" rx="103.48" ry="48.17"/>
<text text-anchor="middle" x="327.24" y="-595.55" font-family="Times New Roman,serif" font-size="14.00">[12..19)</text>
<text text-anchor="middle" x="327.24" y="-580.55" font-family="Times New Roman,serif" font-size="14.00">Count: 4</text>
<text text-anchor="middle" x="327.24" y="-565.55" font-family="Times New Roman,serif" font-size="14.00">Normalized count: 0.50</text>
<text text-anchor="middle" x="327.24" y="-550.55" font-family="Times New Roman,serif" font-size="14.00">Samples weight: 0.04</text>
</g>
<!-- BB0&#45;&gt;BB2 -->
<g id="edge1" class="edge">
<title>BB0&#45;&gt;BB2</title>
<path fill="none" stroke="black" d="M253.16,-663.85C262.64,-652.82 272.91,-640.89 282.68,-629.53"/>
<polygon fill="black" stroke="black" points="285.49,-631.64 289.36,-621.77 280.18,-627.07 285.49,-631.64"/>
</g>
<!-- BB3 -->
<g id="node4" class="node">
<title>BB3</title>
<ellipse fill="none" stroke="black" cx="215.24" cy="-444.58" rx="103.48" ry="48.17"/>
<text text-anchor="middle" x="215.24" y="-463.38" font-family="Times New Roman,serif" font-size="14.00">[19..24)</text>
<text text-anchor="middle" x="215.24" y="-448.38" font-family="Times New Roman,serif" font-size="14.00">Count: 8</text>
<text text-anchor="middle" x="215.24" y="-433.38" font-family="Times New Roman,serif" font-size="14.00">Normalized count: 1.00</text>
<text text-anchor="middle" x="215.24" y="-418.38" font-family="Times New Roman,serif" font-size="14.00">Samples weight: 0.07</text>
</g>
<!-- BB1&#45;&gt;BB3 -->
<g id="edge3" class="edge">
<title>BB1&#45;&gt;BB3</title>
<path fill="none" stroke="black" d="M141.16,-531.68C150.64,-520.65 160.91,-508.73 170.68,-497.36"/>
<polygon fill="black" stroke="black" points="173.49,-499.47 177.36,-489.61 168.18,-494.9 173.49,-499.47"/>
</g>
<!-- BB2&#45;&gt;BB3 -->
<g id="edge4" class="edge">
<title>BB2&#45;&gt;BB3</title>
<path fill="none" stroke="black" d="M289.32,-531.68C279.83,-520.65 269.57,-508.73 259.79,-497.36"/>
<polygon fill="black" stroke="black" points="262.29,-494.9 253.12,-489.61 256.99,-499.47 262.29,-494.9"/>
</g>
<!-- BB5 -->
<g id="node6" class="node">
<title>BB5</title>
<ellipse fill="none" stroke="black" cx="215.24" cy="-312.42" rx="103.48" ry="48.17"/>
<text text-anchor="middle" x="215.24" y="-331.22" font-family="Times New Roman,serif" font-size="14.00">[31..35)</text>
<text text-anchor="middle" x="215.24" y="-316.22" font-family="Times New Roman,serif" font-size="14.00">Count: 38</text>
<text text-anchor="middle" x="215.24" y="-301.22" font-family="Times New Roman,serif" font-size="14.00">Normalized count: 4.75</text>
<text text-anchor="middle" x="215.24" y="-286.22" font-family="Times New Roman,serif" font-size="14.00">Samples weight: 0.34</text>
</g>
<!-- BB3&#45;&gt;BB5 -->
<g id="edge5" class="edge">
<title>BB3&#45;&gt;BB5</title>
<path fill="none" stroke="black" d="M215.24,-396.22C215.24,-387.95 215.24,-379.27 215.24,-370.77"/>
<polygon fill="black" stroke="black" points="218.74,-370.52 215.24,-360.52 211.74,-370.52 218.74,-370.52"/>
</g>
<!-- BB4 -->
<g id="node5" class="node">
<title>BB4</title>
<ellipse fill="none" stroke="black" cx="215.24" cy="-180.25" rx="103.48" ry="48.17"/>
<text text-anchor="middle" x="215.24" y="-199.05" font-family="Times New Roman,serif" font-size="14.00">[24..31)</text>
<text text-anchor="middle" x="215.24" y="-184.05" font-family="Times New Roman,serif" font-size="14.00">Count: 30</text>
<text text-anchor="middle" x="215.24" y="-169.05" font-family="Times New Roman,serif" font-size="14.00">Normalized count: 3.75</text>
<text text-anchor="middle" x="215.24" y="-154.05" font-family="Times New Roman,serif" font-size="14.00">Samples weight: 0.27</text>
</g>
<!-- BB4&#45;&gt;BB5 -->
<g id="edge6" class="edge">
<title>BB4&#45;&gt;BB5</title>
<path fill="none" stroke="black" d="M221.76,-228.61C221.98,-236.91 222.04,-245.62 221.94,-254.15"/>
<polygon fill="black" stroke="black" points="218.44,-254.36 221.75,-264.42 225.44,-254.49 218.44,-254.36"/>
</g>
<!-- BB5&#45;&gt;BB4 -->
<g id="edge7" class="edge">
<title>BB5&#45;&gt;BB4</title>
<path fill="none" stroke="black" d="M208.72,-264.42C208.5,-256.05 208.43,-247.24 208.53,-238.62"/>
<polygon fill="black" stroke="black" points="212.03,-238.67 208.72,-228.61 205.03,-238.54 212.03,-238.67"/>
</g>
<!-- BB6 -->
<g id="node7" class="node">
<title>BB6</title>
<ellipse fill="none" stroke="black" cx="439.24" cy="-180.25" rx="103.48" ry="48.17"/>
<text text-anchor="middle" x="439.24" y="-199.05" font-family="Times New Roman,serif" font-size="14.00">[35..38)</text>
<text text-anchor="middle" x="439.24" y="-184.05" font-family="Times New Roman,serif" font-size="14.00">Count: 8</text>
<text text-anchor="middle" x="439.24" y="-169.05" font-family="Times New Roman,serif" font-size="14.00">Normalized count: 1.00</text>
<text text-anchor="middle" x="439.24" y="-154.05" font-family="Times New Roman,serif" font-size="14.00">Samples weight: 0.07</text>
</g>
<!-- BB5&#45;&gt;BB6 -->
<g id="edge8" class="edge">
<title>BB5&#45;&gt;BB6</title>
<path fill="none" stroke="black" d="M278.83,-274.46C306.26,-258.52 338.48,-239.8 366.83,-223.33"/>
<polygon fill="black" stroke="black" points="368.6,-226.35 375.49,-218.29 365.08,-220.29 368.6,-226.35"/>
</g>
<!-- BB7 -->
<g id="node8" class="node">
<title>BB7</title>
<ellipse fill="none" stroke="black" cx="327.24" cy="-48.08" rx="103.48" ry="48.17"/>
<text text-anchor="middle" x="327.24" y="-66.88" font-family="Times New Roman,serif" font-size="14.00">[38..47)</text>
<text text-anchor="middle" x="327.24" y="-51.88" font-family="Times New Roman,serif" font-size="14.00">Count: 0</text>
<text text-anchor="middle" x="327.24" y="-36.88" font-family="Times New Roman,serif" font-size="14.00">Normalized count: 0.00</text>
<text text-anchor="middle" x="327.24" y="-21.88" font-family="Times New Roman,serif" font-size="14.00">Samples weight: 0.00</text>
</g>
<!-- BB6&#45;&gt;BB7 -->
<g id="edge10" class="edge">
<title>BB6&#45;&gt;BB7</title>
<path fill="none" stroke="black" d="M401.32,-135.18C391.83,-124.16 381.57,-112.23 371.79,-100.86"/>
<polygon fill="black" stroke="black" points="374.29,-98.4 365.12,-93.11 368.99,-102.97 374.29,-98.4"/>
</g>
<!-- BB8 -->
<g id="node9" class="node">
<title>BB8</title>
<ellipse fill="none" stroke="black" cx="551.24" cy="-48.08" rx="103.48" ry="48.17"/>
<text text-anchor="middle" x="551.24" y="-66.88" font-family="Times New Roman,serif" font-size="14.00">[47..81)</text>
<text text-anchor="middle" x="551.24" y="-51.88" font-family="Times New Roman,serif" font-size="14.00">Count: 13</text>
<text text-anchor="middle" x="551.24" y="-36.88" font-family="Times New Roman,serif" font-size="14.00">Normalized count: 1.62</text>
<text text-anchor="middle" x="551.24" y="-21.88" font-family="Times New Roman,serif" font-size="14.00">Samples weight: 0.12</text>
</g>
<!-- BB6&#45;&gt;BB8 -->
<g id="edge9" class="edge">
<title>BB6&#45;&gt;BB8</title>
<path fill="none" stroke="black" d="M477.16,-135.18C486.64,-124.16 496.91,-112.23 506.68,-100.86"/>
<polygon fill="black" stroke="black" points="509.49,-102.97 513.36,-93.11 504.18,-98.4 509.49,-102.97"/>
</g>
</g>
</svg>
