<?xml version="1.0" encoding="UTF-8" standalone="no"?>
<!DOCTYPE svg PUBLIC "-//W3C//DTD SVG 1.1//EN"
 "http://www.w3.org/Graphics/SVG/1.1/DTD/svg11.dtd">
<!-- Generated by graphviz version 2.47.0 (20210316.0004)
 -->
<!-- Title: G Pages: 1 -->
<svg width="196pt" height="241pt"
 viewBox="0.00 0.00 195.85 241.22" xmlns="http://www.w3.org/2000/svg" xmlns:xlink="http://www.w3.org/1999/xlink">
<g id="graph0" class="graph" transform="scale(1 1) rotate(0) translate(4 237.22)">
<title>G</title>
<polygon fill="white" stroke="transparent" points="-4,4 -4,-237.22 191.85,-237.22 191.85,4 -4,4"/>
<!-- BB0 -->
<g id="node1" class="node">
<title>BB0</title>
<ellipse fill="none" stroke="black" cx="93.43" cy="-206.35" rx="37.45" ry="26.74"/>
<text text-anchor="middle" x="93.43" y="-210.15" font-family="Times New Roman,serif" font-size="14.00">[0..15)</text>
<text text-anchor="middle" x="93.43" y="-195.15" font-family="Times New Roman,serif" font-size="14.00">0.33</text>
</g>
<!-- BB1 -->
<g id="node2" class="node">
<title>BB1</title>
<ellipse fill="none" stroke="black" cx="42.43" cy="-116.61" rx="42.35" ry="26.74"/>
<text text-anchor="middle" x="42.43" y="-120.41" font-family="Times New Roman,serif" font-size="14.00">[15..18)</text>
<text text-anchor="middle" x="42.43" y="-105.41" font-family="Times New Roman,serif" font-size="14.00">0.23</text>
</g>
<!-- BB0&#45;&gt;BB1 -->
<g id="edge2" class="edge">
<title>BB0&#45;&gt;BB1</title>
<path fill="none" stroke="black" d="M79.49,-181.37C74.02,-171.96 67.64,-160.99 61.73,-150.83"/>
<polygon fill="black" stroke="black" points="64.75,-149.05 56.7,-142.17 58.7,-152.57 64.75,-149.05"/>
</g>
<!-- BB2 -->
<g id="node3" class="node">
<title>BB2</title>
<ellipse fill="none" stroke="black" cx="145.43" cy="-116.61" rx="42.35" ry="26.74"/>
<text text-anchor="middle" x="145.43" y="-120.41" font-family="Times New Roman,serif" font-size="14.00">[18..19)</text>
<text text-anchor="middle" x="145.43" y="-105.41" font-family="Times New Roman,serif" font-size="14.00">0.10</text>
</g>
<!-- BB0&#45;&gt;BB2 -->
<g id="edge1" class="edge">
<title>BB0&#45;&gt;BB2</title>
<path fill="none" stroke="black" d="M107.64,-181.37C113.22,-171.96 119.72,-160.99 125.74,-150.83"/>
<polygon fill="black" stroke="black" points="128.78,-152.55 130.87,-142.17 122.76,-148.99 128.78,-152.55"/>
</g>
<!-- BB3 -->
<g id="node4" class="node">
<title>BB3</title>
<ellipse fill="none" stroke="black" cx="93.43" cy="-26.87" rx="42.35" ry="26.74"/>
<text text-anchor="middle" x="93.43" y="-30.67" font-family="Times New Roman,serif" font-size="14.00">[19..26)</text>
<text text-anchor="middle" x="93.43" y="-15.67" font-family="Times New Roman,serif" font-size="14.00">0.33</text>
</g>
<!-- BB1&#45;&gt;BB3 -->
<g id="edge3" class="edge">
<title>BB1&#45;&gt;BB3</title>
<path fill="none" stroke="black" d="M56.63,-91.17C62,-81.93 68.21,-71.25 73.98,-61.32"/>
<polygon fill="black" stroke="black" points="77.12,-62.89 79.12,-52.48 71.07,-59.37 77.12,-62.89"/>
</g>
<!-- BB2&#45;&gt;BB3 -->
<g id="edge4" class="edge">
<title>BB2&#45;&gt;BB3</title>
<path fill="none" stroke="black" d="M130.94,-91.17C125.42,-81.85 119.03,-71.07 113.1,-61.07"/>
<polygon fill="black" stroke="black" points="115.94,-59 107.83,-52.18 109.92,-62.57 115.94,-59"/>
</g>
</g>
</svg>
