<?xml version="1.0" encoding="UTF-8" standalone="no"?>
<!DOCTYPE svg PUBLIC "-//W3C//DTD SVG 1.1//EN"
 "http://www.w3.org/Graphics/SVG/1.1/DTD/svg11.dtd">
<!-- Generated by graphviz version 2.47.0 (20210316.0004)
 -->
<!-- Title: G Pages: 1 -->
<svg width="1864pt" height="1414pt"
 viewBox="0.00 0.00 1863.67 1414.39" xmlns="http://www.w3.org/2000/svg" xmlns:xlink="http://www.w3.org/1999/xlink">
<g id="graph0" class="graph" transform="scale(1 1) rotate(0) translate(4 1410.39)">
<title>G</title>
<polygon fill="white" stroke="transparent" points="-4,4 -4,-1410.39 1859.67,-1410.39 1859.67,4 -4,4"/>
<!-- BB0 -->
<g id="node1" class="node">
<title>BB0</title>
<ellipse fill="none" stroke="black" cx="906.36" cy="-1368.92" rx="105.22" ry="37.45"/>
<text text-anchor="middle" x="906.36" y="-1380.22" font-family="Times New Roman,serif" font-size="14.00">[0..87)</text>
<text text-anchor="middle" x="906.36" y="-1365.22" font-family="Times New Roman,serif" font-size="14.00">Normalized Count: 1.00</text>
<text text-anchor="middle" x="906.36" y="-1350.22" font-family="Times New Roman,serif" font-size="14.00">Samples weight: 0.01</text>
</g>
<!-- BB1 -->
<g id="node2" class="node">
<title>BB1</title>
<ellipse fill="none" stroke="black" cx="105.36" cy="-1257.96" rx="105.22" ry="37.45"/>
<text text-anchor="middle" x="105.36" y="-1269.26" font-family="Times New Roman,serif" font-size="14.00">[87..8c)</text>
<text text-anchor="middle" x="105.36" y="-1254.26" font-family="Times New Roman,serif" font-size="14.00">Normalized Count: 0.50</text>
<text text-anchor="middle" x="105.36" y="-1239.26" font-family="Times New Roman,serif" font-size="14.00">Samples weight: 0.01</text>
</g>
<!-- BB0&#45;&gt;BB1 -->
<g id="edge1" class="edge">
<title>BB0&#45;&gt;BB1</title>
<path fill="none" stroke="black" d="M801.91,-1363.44C666.54,-1356.15 423.74,-1337.98 220.36,-1295.44 210.18,-1293.31 199.63,-1290.64 189.23,-1287.71"/>
<polygon fill="black" stroke="black" points="189.9,-1284.26 179.32,-1284.83 187.95,-1290.98 189.9,-1284.26"/>
</g>
<!-- BB2 -->
<g id="node3" class="node">
<title>BB2</title>
<ellipse fill="none" stroke="black" cx="334.36" cy="-1257.96" rx="105.22" ry="37.45"/>
<text text-anchor="middle" x="334.36" y="-1269.26" font-family="Times New Roman,serif" font-size="14.00">[8c..ac)</text>
<text text-anchor="middle" x="334.36" y="-1254.26" font-family="Times New Roman,serif" font-size="14.00">Normalized Count: 0.00</text>
<text text-anchor="middle" x="334.36" y="-1239.26" font-family="Times New Roman,serif" font-size="14.00">Samples weight: 0.00</text>
</g>
<!-- BB0&#45;&gt;BB2 -->
<g id="edge2" class="edge">
<title>BB0&#45;&gt;BB2</title>
<path fill="none" stroke="black" d="M806.57,-1356.47C713.42,-1344.75 570.92,-1324.19 449.36,-1295.44 439.4,-1293.08 429.04,-1290.3 418.82,-1287.33"/>
<polygon fill="black" stroke="black" points="419.65,-1283.93 409.07,-1284.44 417.66,-1290.64 419.65,-1283.93"/>
</g>
<!-- BB3 -->
<g id="node4" class="node">
<title>BB3</title>
<ellipse fill="none" stroke="black" cx="563.36" cy="-1257.96" rx="105.22" ry="37.45"/>
<text text-anchor="middle" x="563.36" y="-1269.26" font-family="Times New Roman,serif" font-size="14.00">[ac..cc)</text>
<text text-anchor="middle" x="563.36" y="-1254.26" font-family="Times New Roman,serif" font-size="14.00">Normalized Count: 0.00</text>
<text text-anchor="middle" x="563.36" y="-1239.26" font-family="Times New Roman,serif" font-size="14.00">Samples weight: 0.00</text>
</g>
<!-- BB0&#45;&gt;BB3 -->
<g id="edge5" class="edge">
<title>BB0&#45;&gt;BB3</title>
<path fill="none" stroke="black" d="M828.96,-1343.33C775.93,-1326.48 705.51,-1304.12 650.51,-1286.65"/>
<polygon fill="black" stroke="black" points="651.37,-1283.25 640.78,-1283.55 649.25,-1289.92 651.37,-1283.25"/>
</g>
<!-- BB4 -->
<g id="node5" class="node">
<title>BB4</title>
<ellipse fill="none" stroke="black" cx="792.36" cy="-1257.96" rx="105.22" ry="37.45"/>
<text text-anchor="middle" x="792.36" y="-1269.26" font-family="Times New Roman,serif" font-size="14.00">[cc..d7)</text>
<text text-anchor="middle" x="792.36" y="-1254.26" font-family="Times New Roman,serif" font-size="14.00">Normalized Count: 0.00</text>
<text text-anchor="middle" x="792.36" y="-1239.26" font-family="Times New Roman,serif" font-size="14.00">Samples weight: 0.00</text>
</g>
<!-- BB0&#45;&gt;BB4 -->
<g id="edge3" class="edge">
<title>BB0&#45;&gt;BB4</title>
<path fill="none" stroke="black" d="M870.29,-1333.44C859.27,-1322.91 847.03,-1311.21 835.58,-1300.27"/>
<polygon fill="black" stroke="black" points="837.84,-1297.59 828.19,-1293.21 833.01,-1302.65 837.84,-1297.59"/>
</g>
<!-- BB5 -->
<g id="node6" class="node">
<title>BB5</title>
<ellipse fill="none" stroke="black" cx="1021.36" cy="-1257.96" rx="105.22" ry="37.45"/>
<text text-anchor="middle" x="1021.36" y="-1269.26" font-family="Times New Roman,serif" font-size="14.00">[d7..e3)</text>
<text text-anchor="middle" x="1021.36" y="-1254.26" font-family="Times New Roman,serif" font-size="14.00">Normalized Count: 0.00</text>
<text text-anchor="middle" x="1021.36" y="-1239.26" font-family="Times New Roman,serif" font-size="14.00">Samples weight: 0.00</text>
</g>
<!-- BB0&#45;&gt;BB5 -->
<g id="edge7" class="edge">
<title>BB0&#45;&gt;BB5</title>
<path fill="none" stroke="black" d="M942.75,-1333.44C953.87,-1322.91 966.21,-1311.21 977.76,-1300.27"/>
<polygon fill="black" stroke="black" points="980.36,-1302.63 985.21,-1293.21 975.54,-1297.55 980.36,-1302.63"/>
</g>
<!-- BB6 -->
<g id="node7" class="node">
<title>BB6</title>
<ellipse fill="none" stroke="black" cx="1250.36" cy="-1257.96" rx="105.22" ry="37.45"/>
<text text-anchor="middle" x="1250.36" y="-1269.26" font-family="Times New Roman,serif" font-size="14.00">[e3..ef)</text>
<text text-anchor="middle" x="1250.36" y="-1254.26" font-family="Times New Roman,serif" font-size="14.00">Normalized Count: 0.00</text>
<text text-anchor="middle" x="1250.36" y="-1239.26" font-family="Times New Roman,serif" font-size="14.00">Samples weight: 0.00</text>
</g>
<!-- BB0&#45;&gt;BB6 -->
<g id="edge4" class="edge">
<title>BB0&#45;&gt;BB6</title>
<path fill="none" stroke="black" d="M983.74,-1343.44C1028.12,-1329.4 1084.87,-1311.44 1135.36,-1295.44 1144.4,-1292.58 1153.84,-1289.58 1163.25,-1286.6"/>
<polygon fill="black" stroke="black" points="1164.56,-1289.86 1173.04,-1283.5 1162.45,-1283.18 1164.56,-1289.86"/>
</g>
<!-- BB7 -->
<g id="node8" class="node">
<title>BB7</title>
<ellipse fill="none" stroke="black" cx="1708.36" cy="-1257.96" rx="105.22" ry="37.45"/>
<text text-anchor="middle" x="1708.36" y="-1269.26" font-family="Times New Roman,serif" font-size="14.00">[ef..10b)</text>
<text text-anchor="middle" x="1708.36" y="-1254.26" font-family="Times New Roman,serif" font-size="14.00">Normalized Count: 0.50</text>
<text text-anchor="middle" x="1708.36" y="-1239.26" font-family="Times New Roman,serif" font-size="14.00">Samples weight: 0.01</text>
</g>
<!-- BB0&#45;&gt;BB7 -->
<g id="edge6" class="edge">
<title>BB0&#45;&gt;BB7</title>
<path fill="none" stroke="black" d="M1010.67,-1363.47C1146.18,-1356.21 1389.53,-1338.06 1593.36,-1295.44 1603.54,-1293.31 1614.09,-1290.64 1624.49,-1287.71"/>
<polygon fill="black" stroke="black" points="1625.77,-1290.98 1634.4,-1284.83 1623.82,-1284.26 1625.77,-1290.98"/>
</g>
<!-- BB31 -->
<g id="node32" class="node">
<title>BB31</title>
<ellipse fill="none" stroke="black" cx="1479.36" cy="-1257.96" rx="105.22" ry="37.45"/>
<text text-anchor="middle" x="1479.36" y="-1269.26" font-family="Times New Roman,serif" font-size="14.00">[240..249)</text>
<text text-anchor="middle" x="1479.36" y="-1254.26" font-family="Times New Roman,serif" font-size="14.00">Normalized Count: 0.00</text>
<text text-anchor="middle" x="1479.36" y="-1239.26" font-family="Times New Roman,serif" font-size="14.00">Samples weight: 0.00</text>
</g>
<!-- BB0&#45;&gt;BB31 -->
<g id="edge8" class="edge">
<title>BB0&#45;&gt;BB31</title>
<path fill="none" stroke="black" d="M1005.92,-1356.54C1099.26,-1344.85 1242.34,-1324.27 1364.36,-1295.44 1374.32,-1293.09 1384.67,-1290.3 1394.9,-1287.33"/>
<polygon fill="black" stroke="black" points="1396.06,-1290.64 1404.65,-1284.44 1394.07,-1283.93 1396.06,-1290.64"/>
</g>
<!-- BB32 -->
<g id="node33" class="node">
<title>BB32</title>
<ellipse fill="none" stroke="black" cx="888.36" cy="-1147.01" rx="105.22" ry="37.45"/>
<text text-anchor="middle" x="888.36" y="-1158.31" font-family="Times New Roman,serif" font-size="14.00">[249..250)</text>
<text text-anchor="middle" x="888.36" y="-1143.31" font-family="Times New Roman,serif" font-size="14.00">Normalized Count: 1.00</text>
<text text-anchor="middle" x="888.36" y="-1128.31" font-family="Times New Roman,serif" font-size="14.00">Samples weight: 0.01</text>
</g>
<!-- BB1&#45;&gt;BB32 -->
<g id="edge9" class="edge">
<title>BB1&#45;&gt;BB32</title>
<path fill="none" stroke="black" d="M179.32,-1231.13C192.85,-1227.08 206.93,-1223.31 220.36,-1220.49 412.13,-1180.09 639.88,-1161.5 773.8,-1153.49"/>
<polygon fill="black" stroke="black" points="774.3,-1156.97 784.07,-1152.89 773.89,-1149.98 774.3,-1156.97"/>
</g>
<!-- BB2&#45;&gt;BB32 -->
<g id="edge10" class="edge">
<title>BB2&#45;&gt;BB32</title>
<path fill="none" stroke="black" d="M409.39,-1231.46C422.62,-1227.46 436.32,-1223.61 449.36,-1220.49 560.57,-1193.82 689.97,-1173.75 779.33,-1161.58"/>
<polygon fill="black" stroke="black" points="780.03,-1165.01 789.48,-1160.2 779.1,-1158.08 780.03,-1165.01"/>
</g>
<!-- BB3&#45;&gt;BB32 -->
<g id="edge11" class="edge">
<title>BB3&#45;&gt;BB32</title>
<path fill="none" stroke="black" d="M638.74,-1231.69C687.89,-1215.22 752.13,-1193.68 803.14,-1176.58"/>
<polygon fill="black" stroke="black" points="804.46,-1179.83 812.83,-1173.33 802.23,-1173.19 804.46,-1179.83"/>
</g>
<!-- BB4&#45;&gt;BB32 -->
<g id="edge12" class="edge">
<title>BB4&#45;&gt;BB32</title>
<path fill="none" stroke="black" d="M823.26,-1221.89C832,-1211.98 841.6,-1201.07 850.69,-1190.76"/>
<polygon fill="black" stroke="black" points="853.53,-1192.83 857.51,-1183.02 848.28,-1188.21 853.53,-1192.83"/>
</g>
<!-- BB5&#45;&gt;BB32 -->
<g id="edge13" class="edge">
<title>BB5&#45;&gt;BB32</title>
<path fill="none" stroke="black" d="M980.37,-1223.38C966.72,-1212.2 951.37,-1199.63 937.19,-1188.01"/>
<polygon fill="black" stroke="black" points="939.4,-1185.29 929.44,-1181.67 934.96,-1190.71 939.4,-1185.29"/>
</g>
<!-- BB6&#45;&gt;BB32 -->
<g id="edge14" class="edge">
<title>BB6&#45;&gt;BB32</title>
<path fill="none" stroke="black" d="M1173.42,-1232.3C1160.72,-1228.31 1147.68,-1224.25 1135.36,-1220.49 1083.68,-1204.71 1025.73,-1187.67 978.95,-1174.08"/>
<polygon fill="black" stroke="black" points="979.72,-1170.66 969.14,-1171.23 977.77,-1177.38 979.72,-1170.66"/>
</g>
<!-- BB8 -->
<g id="node9" class="node">
<title>BB8</title>
<ellipse fill="none" stroke="black" cx="1479.36" cy="-1147.01" rx="105.22" ry="37.45"/>
<text text-anchor="middle" x="1479.36" y="-1158.31" font-family="Times New Roman,serif" font-size="14.00">[10b..118)</text>
<text text-anchor="middle" x="1479.36" y="-1143.31" font-family="Times New Roman,serif" font-size="14.00">Normalized Count: 0.00</text>
<text text-anchor="middle" x="1479.36" y="-1128.31" font-family="Times New Roman,serif" font-size="14.00">Samples weight: 0.00</text>
</g>
<!-- BB7&#45;&gt;BB8 -->
<g id="edge16" class="edge">
<title>BB7&#45;&gt;BB8</title>
<path fill="none" stroke="black" d="M1646.39,-1227.48C1616.86,-1213.43 1581.38,-1196.55 1550.72,-1181.96"/>
<polygon fill="black" stroke="black" points="1551.91,-1178.65 1541.38,-1177.52 1548.91,-1184.97 1551.91,-1178.65"/>
</g>
<!-- BB9 -->
<g id="node10" class="node">
<title>BB9</title>
<ellipse fill="none" stroke="black" cx="1708.36" cy="-1147.01" rx="105.22" ry="37.45"/>
<text text-anchor="middle" x="1708.36" y="-1158.31" font-family="Times New Roman,serif" font-size="14.00">[118..11f)</text>
<text text-anchor="middle" x="1708.36" y="-1143.31" font-family="Times New Roman,serif" font-size="14.00">Normalized Count: 0.50</text>
<text text-anchor="middle" x="1708.36" y="-1128.31" font-family="Times New Roman,serif" font-size="14.00">Samples weight: 0.01</text>
</g>
<!-- BB7&#45;&gt;BB9 -->
<g id="edge15" class="edge">
<title>BB7&#45;&gt;BB9</title>
<path fill="none" stroke="black" d="M1708.36,-1220.38C1708.36,-1212.21 1708.36,-1203.43 1708.36,-1194.9"/>
<polygon fill="black" stroke="black" points="1711.86,-1194.68 1708.36,-1184.68 1704.86,-1194.68 1711.86,-1194.68"/>
</g>
<!-- BB8&#45;&gt;BB9 -->
<g id="edge18" class="edge">
<title>BB8&#45;&gt;BB9</title>
<path fill="none" stroke="black" d="M1584.91,-1147.01C1587.52,-1147.01 1590.12,-1147.01 1592.72,-1147.01"/>
<polygon fill="black" stroke="black" points="1592.76,-1150.51 1602.76,-1147.01 1592.76,-1143.51 1592.76,-1150.51"/>
</g>
<!-- BB10 -->
<g id="node11" class="node">
<title>BB10</title>
<ellipse fill="none" stroke="black" cx="1479.36" cy="-1036.06" rx="105.22" ry="37.45"/>
<text text-anchor="middle" x="1479.36" y="-1047.36" font-family="Times New Roman,serif" font-size="14.00">[11f..128)</text>
<text text-anchor="middle" x="1479.36" y="-1032.36" font-family="Times New Roman,serif" font-size="14.00">Normalized Count: 0.50</text>
<text text-anchor="middle" x="1479.36" y="-1017.36" font-family="Times New Roman,serif" font-size="14.00">Samples weight: 0.01</text>
</g>
<!-- BB8&#45;&gt;BB10 -->
<g id="edge17" class="edge">
<title>BB8&#45;&gt;BB10</title>
<path fill="none" stroke="black" d="M1479.36,-1109.43C1479.36,-1101.25 1479.36,-1092.47 1479.36,-1083.95"/>
<polygon fill="black" stroke="black" points="1482.86,-1083.73 1479.36,-1073.73 1475.86,-1083.73 1482.86,-1083.73"/>
</g>
<!-- BB9&#45;&gt;BB10 -->
<g id="edge19" class="edge">
<title>BB9&#45;&gt;BB10</title>
<path fill="none" stroke="black" d="M1646.39,-1116.53C1616.86,-1102.48 1581.38,-1085.59 1550.72,-1071.01"/>
<polygon fill="black" stroke="black" points="1551.91,-1067.7 1541.38,-1066.56 1548.91,-1074.02 1551.91,-1067.7"/>
</g>
<!-- BB11 -->
<g id="node12" class="node">
<title>BB11</title>
<ellipse fill="none" stroke="black" cx="1250.36" cy="-925.1" rx="105.22" ry="37.45"/>
<text text-anchor="middle" x="1250.36" y="-936.4" font-family="Times New Roman,serif" font-size="14.00">[128..131)</text>
<text text-anchor="middle" x="1250.36" y="-921.4" font-family="Times New Roman,serif" font-size="14.00">Normalized Count: 0.00</text>
<text text-anchor="middle" x="1250.36" y="-906.4" font-family="Times New Roman,serif" font-size="14.00">Samples weight: 0.00</text>
</g>
<!-- BB10&#45;&gt;BB11 -->
<g id="edge21" class="edge">
<title>BB10&#45;&gt;BB11</title>
<path fill="none" stroke="black" d="M1417.39,-1005.57C1387.86,-991.52 1352.38,-974.64 1321.72,-960.06"/>
<polygon fill="black" stroke="black" points="1322.91,-956.75 1312.38,-955.61 1319.91,-963.07 1322.91,-956.75"/>
</g>
<!-- BB12 -->
<g id="node13" class="node">
<title>BB12</title>
<ellipse fill="none" stroke="black" cx="1479.36" cy="-925.1" rx="105.22" ry="37.45"/>
<text text-anchor="middle" x="1479.36" y="-936.4" font-family="Times New Roman,serif" font-size="14.00">[131..13a)</text>
<text text-anchor="middle" x="1479.36" y="-921.4" font-family="Times New Roman,serif" font-size="14.00">Normalized Count: 0.50</text>
<text text-anchor="middle" x="1479.36" y="-906.4" font-family="Times New Roman,serif" font-size="14.00">Samples weight: 0.01</text>
</g>
<!-- BB10&#45;&gt;BB12 -->
<g id="edge20" class="edge">
<title>BB10&#45;&gt;BB12</title>
<path fill="none" stroke="black" d="M1479.36,-998.47C1479.36,-990.3 1479.36,-981.52 1479.36,-972.99"/>
<polygon fill="black" stroke="black" points="1482.86,-972.78 1479.36,-962.78 1475.86,-972.78 1482.86,-972.78"/>
</g>
<!-- BB11&#45;&gt;BB12 -->
<g id="edge23" class="edge">
<title>BB11&#45;&gt;BB12</title>
<path fill="none" stroke="black" d="M1355.91,-925.1C1358.52,-925.1 1361.12,-925.1 1363.72,-925.1"/>
<polygon fill="black" stroke="black" points="1363.76,-928.6 1373.76,-925.1 1363.76,-921.6 1363.76,-928.6"/>
</g>
<!-- BB13 -->
<g id="node14" class="node">
<title>BB13</title>
<ellipse fill="none" stroke="black" cx="1250.36" cy="-814.15" rx="105.22" ry="37.45"/>
<text text-anchor="middle" x="1250.36" y="-825.45" font-family="Times New Roman,serif" font-size="14.00">[13a..141)</text>
<text text-anchor="middle" x="1250.36" y="-810.45" font-family="Times New Roman,serif" font-size="14.00">Normalized Count: 0.00</text>
<text text-anchor="middle" x="1250.36" y="-795.45" font-family="Times New Roman,serif" font-size="14.00">Samples weight: 0.00</text>
</g>
<!-- BB11&#45;&gt;BB13 -->
<g id="edge22" class="edge">
<title>BB11&#45;&gt;BB13</title>
<path fill="none" stroke="black" d="M1250.36,-887.52C1250.36,-879.35 1250.36,-870.57 1250.36,-862.04"/>
<polygon fill="black" stroke="black" points="1253.86,-861.82 1250.36,-851.82 1246.86,-861.82 1253.86,-861.82"/>
</g>
<!-- BB14 -->
<g id="node15" class="node">
<title>BB14</title>
<ellipse fill="none" stroke="black" cx="1479.36" cy="-814.15" rx="105.22" ry="37.45"/>
<text text-anchor="middle" x="1479.36" y="-825.45" font-family="Times New Roman,serif" font-size="14.00">[141..16d)</text>
<text text-anchor="middle" x="1479.36" y="-810.45" font-family="Times New Roman,serif" font-size="14.00">Normalized Count: 0.50</text>
<text text-anchor="middle" x="1479.36" y="-795.45" font-family="Times New Roman,serif" font-size="14.00">Samples weight: 0.01</text>
</g>
<!-- BB12&#45;&gt;BB14 -->
<g id="edge24" class="edge">
<title>BB12&#45;&gt;BB14</title>
<path fill="none" stroke="black" d="M1479.36,-887.52C1479.36,-879.35 1479.36,-870.57 1479.36,-862.04"/>
<polygon fill="black" stroke="black" points="1482.86,-861.82 1479.36,-851.82 1475.86,-861.82 1482.86,-861.82"/>
</g>
<!-- BB13&#45;&gt;BB14 -->
<g id="edge25" class="edge">
<title>BB13&#45;&gt;BB14</title>
<path fill="none" stroke="black" d="M1355.91,-814.15C1358.52,-814.15 1361.12,-814.15 1363.72,-814.15"/>
<polygon fill="black" stroke="black" points="1363.76,-817.65 1373.76,-814.15 1363.76,-810.65 1363.76,-817.65"/>
</g>
<!-- BB16 -->
<g id="node17" class="node">
<title>BB16</title>
<ellipse fill="none" stroke="black" cx="1268.36" cy="-703.2" rx="105.22" ry="37.45"/>
<text text-anchor="middle" x="1268.36" y="-714.5" font-family="Times New Roman,serif" font-size="14.00">[17e..182)</text>
<text text-anchor="middle" x="1268.36" y="-699.5" font-family="Times New Roman,serif" font-size="14.00">Normalized Count: 1.00</text>
<text text-anchor="middle" x="1268.36" y="-684.5" font-family="Times New Roman,serif" font-size="14.00">Samples weight: 0.01</text>
</g>
<!-- BB14&#45;&gt;BB16 -->
<g id="edge26" class="edge">
<title>BB14&#45;&gt;BB16</title>
<path fill="none" stroke="black" d="M1420.86,-782.95C1394.57,-769.37 1363.37,-753.26 1336.07,-739.16"/>
<polygon fill="black" stroke="black" points="1337.46,-735.94 1326.97,-734.46 1334.25,-742.16 1337.46,-735.94"/>
</g>
<!-- BB15 -->
<g id="node16" class="node">
<title>BB15</title>
<ellipse fill="none" stroke="black" cx="1154.36" cy="-592.24" rx="105.22" ry="37.45"/>
<text text-anchor="middle" x="1154.36" y="-603.54" font-family="Times New Roman,serif" font-size="14.00">[16d..17e)</text>
<text text-anchor="middle" x="1154.36" y="-588.54" font-family="Times New Roman,serif" font-size="14.00">Normalized Count: 0.50</text>
<text text-anchor="middle" x="1154.36" y="-573.54" font-family="Times New Roman,serif" font-size="14.00">Samples weight: 0.01</text>
</g>
<!-- BB15&#45;&gt;BB16 -->
<g id="edge27" class="edge">
<title>BB15&#45;&gt;BB16</title>
<path fill="none" stroke="black" d="M1195.72,-626.77C1207.19,-637.27 1219.56,-648.99 1230.81,-660.01"/>
<polygon fill="black" stroke="black" points="1228.44,-662.59 1238.02,-667.12 1233.36,-657.61 1228.44,-662.59"/>
</g>
<!-- BB16&#45;&gt;BB15 -->
<g id="edge28" class="edge">
<title>BB16&#45;&gt;BB15</title>
<path fill="none" stroke="black" d="M1226.94,-668.62C1215.5,-658.15 1203.18,-646.48 1191.98,-635.5"/>
<polygon fill="black" stroke="black" points="1194.37,-632.94 1184.79,-628.41 1189.45,-637.92 1194.37,-632.94"/>
</g>
<!-- BB17 -->
<g id="node18" class="node">
<title>BB17</title>
<ellipse fill="none" stroke="black" cx="1383.36" cy="-592.24" rx="105.22" ry="37.45"/>
<text text-anchor="middle" x="1383.36" y="-603.54" font-family="Times New Roman,serif" font-size="14.00">[182..186)</text>
<text text-anchor="middle" x="1383.36" y="-588.54" font-family="Times New Roman,serif" font-size="14.00">Normalized Count: 0.50</text>
<text text-anchor="middle" x="1383.36" y="-573.54" font-family="Times New Roman,serif" font-size="14.00">Samples weight: 0.01</text>
</g>
<!-- BB16&#45;&gt;BB17 -->
<g id="edge29" class="edge">
<title>BB16&#45;&gt;BB17</title>
<path fill="none" stroke="black" d="M1304.75,-667.72C1315.87,-657.19 1328.21,-645.49 1339.76,-634.55"/>
<polygon fill="black" stroke="black" points="1342.36,-636.91 1347.21,-627.49 1337.54,-631.83 1342.36,-636.91"/>
</g>
<!-- BB25 -->
<g id="node26" class="node">
<title>BB25</title>
<ellipse fill="none" stroke="black" cx="1383.36" cy="-481.29" rx="105.22" ry="37.45"/>
<text text-anchor="middle" x="1383.36" y="-492.59" font-family="Times New Roman,serif" font-size="14.00">[1e7..1ec)</text>
<text text-anchor="middle" x="1383.36" y="-477.59" font-family="Times New Roman,serif" font-size="14.00">Normalized Count: 8.50</text>
<text text-anchor="middle" x="1383.36" y="-462.59" font-family="Times New Roman,serif" font-size="14.00">Samples weight: 0.11</text>
</g>
<!-- BB17&#45;&gt;BB25 -->
<g id="edge30" class="edge">
<title>BB17&#45;&gt;BB25</title>
<path fill="none" stroke="black" d="M1383.36,-554.66C1383.36,-546.49 1383.36,-537.71 1383.36,-529.18"/>
<polygon fill="black" stroke="black" points="1386.86,-528.96 1383.36,-518.96 1379.86,-528.96 1386.86,-528.96"/>
</g>
<!-- BB18 -->
<g id="node19" class="node">
<title>BB18</title>
<ellipse fill="none" stroke="black" cx="1516.36" cy="-370.34" rx="105.22" ry="37.45"/>
<text text-anchor="middle" x="1516.36" y="-381.64" font-family="Times New Roman,serif" font-size="14.00">[186..199)</text>
<text text-anchor="middle" x="1516.36" y="-366.64" font-family="Times New Roman,serif" font-size="14.00">Normalized Count: 8.00</text>
<text text-anchor="middle" x="1516.36" y="-351.64" font-family="Times New Roman,serif" font-size="14.00">Samples weight: 0.10</text>
</g>
<!-- BB19 -->
<g id="node20" class="node">
<title>BB19</title>
<ellipse fill="none" stroke="black" cx="1745.36" cy="-259.38" rx="105.22" ry="37.45"/>
<text text-anchor="middle" x="1745.36" y="-270.68" font-family="Times New Roman,serif" font-size="14.00">[199..19f)</text>
<text text-anchor="middle" x="1745.36" y="-255.68" font-family="Times New Roman,serif" font-size="14.00">Normalized Count: 2.50</text>
<text text-anchor="middle" x="1745.36" y="-240.68" font-family="Times New Roman,serif" font-size="14.00">Samples weight: 0.03</text>
</g>
<!-- BB18&#45;&gt;BB19 -->
<g id="edge32" class="edge">
<title>BB18&#45;&gt;BB19</title>
<path fill="none" stroke="black" d="M1578.33,-339.85C1607.86,-325.8 1643.34,-308.92 1673.99,-294.34"/>
<polygon fill="black" stroke="black" points="1675.81,-297.35 1683.34,-289.89 1672.8,-291.03 1675.81,-297.35"/>
</g>
<!-- BB23 -->
<g id="node24" class="node">
<title>BB23</title>
<ellipse fill="none" stroke="black" cx="1516.36" cy="-259.38" rx="105.22" ry="37.45"/>
<text text-anchor="middle" x="1516.36" y="-270.68" font-family="Times New Roman,serif" font-size="14.00">[1cc..1ce)</text>
<text text-anchor="middle" x="1516.36" y="-255.68" font-family="Times New Roman,serif" font-size="14.00">Normalized Count: 5.50</text>
<text text-anchor="middle" x="1516.36" y="-240.68" font-family="Times New Roman,serif" font-size="14.00">Samples weight: 0.07</text>
</g>
<!-- BB18&#45;&gt;BB23 -->
<g id="edge31" class="edge">
<title>BB18&#45;&gt;BB23</title>
<path fill="none" stroke="black" d="M1516.36,-332.75C1516.36,-324.58 1516.36,-315.8 1516.36,-307.27"/>
<polygon fill="black" stroke="black" points="1519.86,-307.06 1516.36,-297.06 1512.86,-307.06 1519.86,-307.06"/>
</g>
<!-- BB21 -->
<g id="node22" class="node">
<title>BB21</title>
<ellipse fill="none" stroke="black" cx="1745.36" cy="-148.43" rx="110.12" ry="37.45"/>
<text text-anchor="middle" x="1745.36" y="-159.73" font-family="Times New Roman,serif" font-size="14.00">[1c6..1ca)</text>
<text text-anchor="middle" x="1745.36" y="-144.73" font-family="Times New Roman,serif" font-size="14.00">Normalized Count: 19.00</text>
<text text-anchor="middle" x="1745.36" y="-129.73" font-family="Times New Roman,serif" font-size="14.00">Samples weight: 0.24</text>
</g>
<!-- BB19&#45;&gt;BB21 -->
<g id="edge33" class="edge">
<title>BB19&#45;&gt;BB21</title>
<path fill="none" stroke="black" d="M1745.36,-221.8C1745.36,-213.63 1745.36,-204.85 1745.36,-196.32"/>
<polygon fill="black" stroke="black" points="1748.86,-196.1 1745.36,-186.1 1741.86,-196.1 1748.86,-196.1"/>
</g>
<!-- BB20 -->
<g id="node21" class="node">
<title>BB20</title>
<ellipse fill="none" stroke="black" cx="1745.36" cy="-37.48" rx="110.12" ry="37.45"/>
<text text-anchor="middle" x="1745.36" y="-48.78" font-family="Times New Roman,serif" font-size="14.00">[19f..1c6)</text>
<text text-anchor="middle" x="1745.36" y="-33.78" font-family="Times New Roman,serif" font-size="14.00">Normalized Count: 16.50</text>
<text text-anchor="middle" x="1745.36" y="-18.78" font-family="Times New Roman,serif" font-size="14.00">Samples weight: 0.21</text>
</g>
<!-- BB20&#45;&gt;BB21 -->
<g id="edge34" class="edge">
<title>BB20&#45;&gt;BB21</title>
<path fill="none" stroke="black" d="M1751.78,-75.15C1752.09,-83.33 1752.18,-92.11 1752.05,-100.63"/>
<polygon fill="black" stroke="black" points="1748.54,-100.76 1751.77,-110.85 1755.54,-100.94 1748.54,-100.76"/>
</g>
<!-- BB21&#45;&gt;BB20 -->
<g id="edge35" class="edge">
<title>BB21&#45;&gt;BB20</title>
<path fill="none" stroke="black" d="M1738.94,-110.85C1738.63,-102.67 1738.54,-93.89 1738.67,-85.37"/>
<polygon fill="black" stroke="black" points="1742.17,-85.24 1738.94,-75.15 1735.17,-85.05 1742.17,-85.24"/>
</g>
<!-- BB22 -->
<g id="node23" class="node">
<title>BB22</title>
<ellipse fill="none" stroke="black" cx="1511.36" cy="-37.48" rx="105.22" ry="37.45"/>
<text text-anchor="middle" x="1511.36" y="-48.78" font-family="Times New Roman,serif" font-size="14.00">[1ca..1cc)</text>
<text text-anchor="middle" x="1511.36" y="-33.78" font-family="Times New Roman,serif" font-size="14.00">Normalized Count: 2.50</text>
<text text-anchor="middle" x="1511.36" y="-18.78" font-family="Times New Roman,serif" font-size="14.00">Samples weight: 0.03</text>
</g>
<!-- BB21&#45;&gt;BB22 -->
<g id="edge36" class="edge">
<title>BB21&#45;&gt;BB22</title>
<path fill="none" stroke="black" d="M1681.73,-117.8C1651.3,-103.64 1614.75,-86.62 1583.32,-71.98"/>
<polygon fill="black" stroke="black" points="1584.71,-68.77 1574.17,-67.72 1581.76,-75.12 1584.71,-68.77"/>
</g>
<!-- BB24 -->
<g id="node25" class="node">
<title>BB24</title>
<ellipse fill="none" stroke="black" cx="1511.36" cy="-148.43" rx="105.22" ry="37.45"/>
<text text-anchor="middle" x="1511.36" y="-159.73" font-family="Times New Roman,serif" font-size="14.00">[1ce..1e7)</text>
<text text-anchor="middle" x="1511.36" y="-144.73" font-family="Times New Roman,serif" font-size="14.00">Normalized Count: 8.00</text>
<text text-anchor="middle" x="1511.36" y="-129.73" font-family="Times New Roman,serif" font-size="14.00">Samples weight: 0.10</text>
</g>
<!-- BB22&#45;&gt;BB24 -->
<g id="edge37" class="edge">
<title>BB22&#45;&gt;BB24</title>
<path fill="none" stroke="black" d="M1511.36,-75.15C1511.36,-83.33 1511.36,-92.11 1511.36,-100.63"/>
<polygon fill="black" stroke="black" points="1507.86,-100.85 1511.36,-110.85 1514.86,-100.85 1507.86,-100.85"/>
</g>
<!-- BB23&#45;&gt;BB24 -->
<g id="edge38" class="edge">
<title>BB23&#45;&gt;BB24</title>
<path fill="none" stroke="black" d="M1514.68,-221.8C1514.3,-213.63 1513.9,-204.85 1513.51,-196.32"/>
<polygon fill="black" stroke="black" points="1517,-195.93 1513.04,-186.1 1510,-196.25 1517,-195.93"/>
</g>
<!-- BB24&#45;&gt;BB25 -->
<g id="edge39" class="edge">
<title>BB24&#45;&gt;BB25</title>
<path fill="none" stroke="black" d="M1447.46,-178.33C1429.95,-189.42 1412.9,-203.85 1402.36,-221.91 1364.1,-287.4 1368,-378.72 1375.12,-433.43"/>
<polygon fill="black" stroke="black" points="1371.68,-434.11 1376.52,-443.54 1378.61,-433.15 1371.68,-434.11"/>
</g>
<!-- BB25&#45;&gt;BB18 -->
<g id="edge40" class="edge">
<title>BB25&#45;&gt;BB18</title>
<path fill="none" stroke="black" d="M1424.35,-446.71C1438,-435.53 1453.34,-422.96 1467.53,-411.34"/>
<polygon fill="black" stroke="black" points="1469.76,-414.04 1475.28,-404.99 1465.32,-408.62 1469.76,-414.04"/>
</g>
<!-- BB26 -->
<g id="node27" class="node">
<title>BB26</title>
<ellipse fill="none" stroke="black" cx="1250.36" cy="-370.34" rx="105.22" ry="37.45"/>
<text text-anchor="middle" x="1250.36" y="-381.64" font-family="Times New Roman,serif" font-size="14.00">[1ec..1ee)</text>
<text text-anchor="middle" x="1250.36" y="-366.64" font-family="Times New Roman,serif" font-size="14.00">Normalized Count: 0.50</text>
<text text-anchor="middle" x="1250.36" y="-351.64" font-family="Times New Roman,serif" font-size="14.00">Samples weight: 0.01</text>
</g>
<!-- BB25&#45;&gt;BB26 -->
<g id="edge41" class="edge">
<title>BB25&#45;&gt;BB26</title>
<path fill="none" stroke="black" d="M1342.37,-446.71C1328.72,-435.53 1313.37,-422.96 1299.19,-411.34"/>
<polygon fill="black" stroke="black" points="1301.4,-408.62 1291.44,-404.99 1296.96,-414.04 1301.4,-408.62"/>
</g>
<!-- BB28 -->
<g id="node29" class="node">
<title>BB28</title>
<ellipse fill="none" stroke="black" cx="1250.36" cy="-259.38" rx="105.22" ry="37.45"/>
<text text-anchor="middle" x="1250.36" y="-270.68" font-family="Times New Roman,serif" font-size="14.00">[214..224)</text>
<text text-anchor="middle" x="1250.36" y="-255.68" font-family="Times New Roman,serif" font-size="14.00">Normalized Count: 1.00</text>
<text text-anchor="middle" x="1250.36" y="-240.68" font-family="Times New Roman,serif" font-size="14.00">Samples weight: 0.01</text>
</g>
<!-- BB26&#45;&gt;BB28 -->
<g id="edge42" class="edge">
<title>BB26&#45;&gt;BB28</title>
<path fill="none" stroke="black" d="M1250.36,-332.75C1250.36,-324.58 1250.36,-315.8 1250.36,-307.27"/>
<polygon fill="black" stroke="black" points="1253.86,-307.06 1250.36,-297.06 1246.86,-307.06 1253.86,-307.06"/>
</g>
<!-- BB27 -->
<g id="node28" class="node">
<title>BB27</title>
<ellipse fill="none" stroke="black" cx="1250.36" cy="-148.43" rx="105.22" ry="37.45"/>
<text text-anchor="middle" x="1250.36" y="-159.73" font-family="Times New Roman,serif" font-size="14.00">[1ee..214)</text>
<text text-anchor="middle" x="1250.36" y="-144.73" font-family="Times New Roman,serif" font-size="14.00">Normalized Count: 0.50</text>
<text text-anchor="middle" x="1250.36" y="-129.73" font-family="Times New Roman,serif" font-size="14.00">Samples weight: 0.01</text>
</g>
<!-- BB27&#45;&gt;BB28 -->
<g id="edge43" class="edge">
<title>BB27&#45;&gt;BB28</title>
<path fill="none" stroke="black" d="M1256.78,-186.1C1257.09,-194.28 1257.18,-203.06 1257.05,-211.59"/>
<polygon fill="black" stroke="black" points="1253.54,-211.71 1256.77,-221.8 1260.54,-211.9 1253.54,-211.71"/>
</g>
<!-- BB28&#45;&gt;BB27 -->
<g id="edge44" class="edge">
<title>BB28&#45;&gt;BB27</title>
<path fill="none" stroke="black" d="M1243.94,-221.8C1243.63,-213.63 1243.54,-204.85 1243.67,-196.32"/>
<polygon fill="black" stroke="black" points="1247.17,-196.19 1243.94,-186.1 1240.17,-196 1247.17,-196.19"/>
</g>
<!-- BB29 -->
<g id="node30" class="node">
<title>BB29</title>
<ellipse fill="none" stroke="black" cx="1021.36" cy="-148.43" rx="105.22" ry="37.45"/>
<text text-anchor="middle" x="1021.36" y="-159.73" font-family="Times New Roman,serif" font-size="14.00">[224..22c)</text>
<text text-anchor="middle" x="1021.36" y="-144.73" font-family="Times New Roman,serif" font-size="14.00">Normalized Count: 0.50</text>
<text text-anchor="middle" x="1021.36" y="-129.73" font-family="Times New Roman,serif" font-size="14.00">Samples weight: 0.01</text>
</g>
<!-- BB28&#45;&gt;BB29 -->
<g id="edge45" class="edge">
<title>BB28&#45;&gt;BB29</title>
<path fill="none" stroke="black" d="M1188.39,-228.9C1158.86,-214.85 1123.38,-197.97 1092.72,-183.38"/>
<polygon fill="black" stroke="black" points="1093.91,-180.07 1083.38,-178.94 1090.91,-186.39 1093.91,-180.07"/>
</g>
<!-- BB30 -->
<g id="node31" class="node">
<title>BB30</title>
<ellipse fill="none" stroke="black" cx="955.36" cy="-37.48" rx="105.22" ry="37.45"/>
<text text-anchor="middle" x="955.36" y="-48.78" font-family="Times New Roman,serif" font-size="14.00">[22c..240)</text>
<text text-anchor="middle" x="955.36" y="-33.78" font-family="Times New Roman,serif" font-size="14.00">Normalized Count: 0.00</text>
<text text-anchor="middle" x="955.36" y="-18.78" font-family="Times New Roman,serif" font-size="14.00">Samples weight: 0.00</text>
</g>
<!-- BB29&#45;&gt;BB30 -->
<g id="edge47" class="edge">
<title>BB29&#45;&gt;BB30</title>
<path fill="none" stroke="black" d="M999.57,-111.45C994.1,-102.43 988.17,-92.65 982.49,-83.26"/>
<polygon fill="black" stroke="black" points="985.3,-81.16 977.13,-74.42 979.32,-84.78 985.3,-81.16"/>
</g>
<!-- BB29&#45;&gt;BB32 -->
<g id="edge46" class="edge">
<title>BB29&#45;&gt;BB32</title>
<path fill="none" stroke="black" d="M1021.36,-186.01C1021.36,-229.65 1021.36,-304.82 1021.36,-369.34 1021.36,-926.1 1021.36,-926.1 1021.36,-926.1 1021.36,-996.25 971.2,-1063.18 932.49,-1104.38"/>
<polygon fill="black" stroke="black" points="929.8,-1102.13 925.41,-1111.77 934.85,-1106.97 929.8,-1102.13"/>
</g>
<!-- BB30&#45;&gt;BB32 -->
<g id="edge48" class="edge">
<title>BB30&#45;&gt;BB32</title>
<path fill="none" stroke="black" d="M927.22,-73.95C919.6,-85.21 912.15,-98.08 907.36,-110.95 884.3,-172.86 888.36,-192.32 888.36,-258.38 888.36,-926.1 888.36,-926.1 888.36,-926.1 888.36,-985.84 888.36,-1054.69 888.36,-1099.21"/>
<polygon fill="black" stroke="black" points="884.86,-1099.43 888.36,-1109.43 891.86,-1099.43 884.86,-1099.43"/>
</g>
<!-- BB31&#45;&gt;BB32 -->
<g id="edge49" class="edge">
<title>BB31&#45;&gt;BB32</title>
<path fill="none" stroke="black" d="M1404.67,-1231.42C1391.34,-1227.39 1377.52,-1223.55 1364.36,-1220.49 1240.53,-1191.61 1095.79,-1171.46 998.72,-1159.86"/>
<polygon fill="black" stroke="black" points="998.94,-1156.36 988.59,-1158.66 998.11,-1163.31 998.94,-1156.36"/>
</g>
</g>
</svg>
