<?xml version="1.0" encoding="UTF-8" standalone="no"?>
<!DOCTYPE svg PUBLIC "-//W3C//DTD SVG 1.1//EN"
 "http://www.w3.org/Graphics/SVG/1.1/DTD/svg11.dtd">
<!-- Generated by graphviz version 2.47.0 (20210316.0004)
 -->
<!-- Title: G Pages: 1 -->
<svg width="1901pt" height="1690pt"
 viewBox="0.00 0.00 1901.50 1690.16" xmlns="http://www.w3.org/2000/svg" xmlns:xlink="http://www.w3.org/1999/xlink">
<g id="graph0" class="graph" transform="scale(1 1) rotate(0) translate(4 1686.16)">
<title>G</title>
<polygon fill="white" stroke="transparent" points="-4,4 -4,-1686.16 1897.5,-1686.16 1897.5,4 -4,4"/>
<!-- BB0 -->
<g id="node1" class="node">
<title>BB0</title>
<ellipse fill="none" stroke="black" cx="898.65" cy="-1634.08" rx="104.8" ry="48.17"/>
<text text-anchor="middle" x="898.65" y="-1652.88" font-family="Times New Roman,serif" font-size="14.00">[0..87)</text>
<text text-anchor="middle" x="898.65" y="-1637.88" font-family="Times New Roman,serif" font-size="14.00">Count: 0</text>
<text text-anchor="middle" x="898.65" y="-1622.88" font-family="Times New Roman,serif" font-size="14.00">Normalized count: NaN</text>
<text text-anchor="middle" x="898.65" y="-1607.88" font-family="Times New Roman,serif" font-size="14.00">Samples weight: 0.00</text>
</g>
<!-- BB1 -->
<g id="node2" class="node">
<title>BB1</title>
<ellipse fill="none" stroke="black" cx="104.65" cy="-1501.92" rx="104.8" ry="48.17"/>
<text text-anchor="middle" x="104.65" y="-1520.72" font-family="Times New Roman,serif" font-size="14.00">[87..8c)</text>
<text text-anchor="middle" x="104.65" y="-1505.72" font-family="Times New Roman,serif" font-size="14.00">Count: 0</text>
<text text-anchor="middle" x="104.65" y="-1490.72" font-family="Times New Roman,serif" font-size="14.00">Normalized count: NaN</text>
<text text-anchor="middle" x="104.65" y="-1475.72" font-family="Times New Roman,serif" font-size="14.00">Samples weight: 0.00</text>
</g>
<!-- BB0&#45;&gt;BB1 -->
<g id="edge1" class="edge">
<title>BB0&#45;&gt;BB1</title>
<path fill="none" stroke="black" d="M794.31,-1629.19C659.23,-1622.16 417.46,-1602.74 217.65,-1550 207.61,-1547.35 197.28,-1543.99 187.14,-1540.3"/>
<polygon fill="black" stroke="black" points="188.09,-1536.91 177.5,-1536.66 185.62,-1543.46 188.09,-1536.91"/>
</g>
<!-- BB2 -->
<g id="node3" class="node">
<title>BB2</title>
<ellipse fill="none" stroke="black" cx="331.65" cy="-1501.92" rx="104.8" ry="48.17"/>
<text text-anchor="middle" x="331.65" y="-1520.72" font-family="Times New Roman,serif" font-size="14.00">[8c..ac)</text>
<text text-anchor="middle" x="331.65" y="-1505.72" font-family="Times New Roman,serif" font-size="14.00">Count: 0</text>
<text text-anchor="middle" x="331.65" y="-1490.72" font-family="Times New Roman,serif" font-size="14.00">Normalized count: NaN</text>
<text text-anchor="middle" x="331.65" y="-1475.72" font-family="Times New Roman,serif" font-size="14.00">Samples weight: 0.00</text>
</g>
<!-- BB0&#45;&gt;BB2 -->
<g id="edge2" class="edge">
<title>BB0&#45;&gt;BB2</title>
<path fill="none" stroke="black" d="M797.57,-1620.89C704.6,-1608.21 563.55,-1585.21 444.65,-1550 434.85,-1547.09 424.73,-1543.62 414.78,-1539.89"/>
<polygon fill="black" stroke="black" points="415.88,-1536.56 405.29,-1536.24 413.37,-1543.1 415.88,-1536.56"/>
</g>
<!-- BB3 -->
<g id="node4" class="node">
<title>BB3</title>
<ellipse fill="none" stroke="black" cx="558.65" cy="-1501.92" rx="104.8" ry="48.17"/>
<text text-anchor="middle" x="558.65" y="-1520.72" font-family="Times New Roman,serif" font-size="14.00">[ac..cc)</text>
<text text-anchor="middle" x="558.65" y="-1505.72" font-family="Times New Roman,serif" font-size="14.00">Count: 0</text>
<text text-anchor="middle" x="558.65" y="-1490.72" font-family="Times New Roman,serif" font-size="14.00">Normalized count: NaN</text>
<text text-anchor="middle" x="558.65" y="-1475.72" font-family="Times New Roman,serif" font-size="14.00">Samples weight: 0.00</text>
</g>
<!-- BB0&#45;&gt;BB3 -->
<g id="edge5" class="edge">
<title>BB0&#45;&gt;BB3</title>
<path fill="none" stroke="black" d="M816.64,-1604.05C773.34,-1588.47 719.43,-1568.69 671.65,-1550 662.67,-1546.49 653.32,-1542.74 644.02,-1538.95"/>
<polygon fill="black" stroke="black" points="645.33,-1535.71 634.75,-1535.16 642.68,-1542.18 645.33,-1535.71"/>
</g>
<!-- BB4 -->
<g id="node5" class="node">
<title>BB4</title>
<ellipse fill="none" stroke="black" cx="785.65" cy="-1501.92" rx="104.8" ry="48.17"/>
<text text-anchor="middle" x="785.65" y="-1520.72" font-family="Times New Roman,serif" font-size="14.00">[cc..d7)</text>
<text text-anchor="middle" x="785.65" y="-1505.72" font-family="Times New Roman,serif" font-size="14.00">Count: 0</text>
<text text-anchor="middle" x="785.65" y="-1490.72" font-family="Times New Roman,serif" font-size="14.00">Normalized count: NaN</text>
<text text-anchor="middle" x="785.65" y="-1475.72" font-family="Times New Roman,serif" font-size="14.00">Samples weight: 0.00</text>
</g>
<!-- BB0&#45;&gt;BB4 -->
<g id="edge3" class="edge">
<title>BB0&#45;&gt;BB4</title>
<path fill="none" stroke="black" d="M860.4,-1589.01C850.82,-1577.99 840.47,-1566.06 830.6,-1554.7"/>
<polygon fill="black" stroke="black" points="833.07,-1552.2 823.87,-1546.94 827.78,-1556.78 833.07,-1552.2"/>
</g>
<!-- BB5 -->
<g id="node6" class="node">
<title>BB5</title>
<ellipse fill="none" stroke="black" cx="1012.65" cy="-1501.92" rx="104.8" ry="48.17"/>
<text text-anchor="middle" x="1012.65" y="-1520.72" font-family="Times New Roman,serif" font-size="14.00">[d7..e3)</text>
<text text-anchor="middle" x="1012.65" y="-1505.72" font-family="Times New Roman,serif" font-size="14.00">Count: 0</text>
<text text-anchor="middle" x="1012.65" y="-1490.72" font-family="Times New Roman,serif" font-size="14.00">Normalized count: NaN</text>
<text text-anchor="middle" x="1012.65" y="-1475.72" font-family="Times New Roman,serif" font-size="14.00">Samples weight: 0.00</text>
</g>
<!-- BB0&#45;&gt;BB5 -->
<g id="edge7" class="edge">
<title>BB0&#45;&gt;BB5</title>
<path fill="none" stroke="black" d="M937.25,-1589.01C946.9,-1577.99 957.35,-1566.06 967.3,-1554.7"/>
<polygon fill="black" stroke="black" points="970.14,-1556.77 974.1,-1546.94 964.87,-1552.15 970.14,-1556.77"/>
</g>
<!-- BB6 -->
<g id="node7" class="node">
<title>BB6</title>
<ellipse fill="none" stroke="black" cx="1239.65" cy="-1501.92" rx="104.8" ry="48.17"/>
<text text-anchor="middle" x="1239.65" y="-1520.72" font-family="Times New Roman,serif" font-size="14.00">[e3..ef)</text>
<text text-anchor="middle" x="1239.65" y="-1505.72" font-family="Times New Roman,serif" font-size="14.00">Count: 0</text>
<text text-anchor="middle" x="1239.65" y="-1490.72" font-family="Times New Roman,serif" font-size="14.00">Normalized count: NaN</text>
<text text-anchor="middle" x="1239.65" y="-1475.72" font-family="Times New Roman,serif" font-size="14.00">Samples weight: 0.00</text>
</g>
<!-- BB0&#45;&gt;BB6 -->
<g id="edge4" class="edge">
<title>BB0&#45;&gt;BB6</title>
<path fill="none" stroke="black" d="M980.77,-1604.17C1024.3,-1588.59 1078.58,-1568.76 1126.65,-1550 1135.64,-1546.49 1144.98,-1542.75 1154.29,-1538.96"/>
<polygon fill="black" stroke="black" points="1155.63,-1542.2 1163.56,-1535.17 1152.98,-1535.72 1155.63,-1542.2"/>
</g>
<!-- BB7 -->
<g id="node8" class="node">
<title>BB7</title>
<ellipse fill="none" stroke="black" cx="1702.65" cy="-1501.92" rx="113.69" ry="48.17"/>
<text text-anchor="middle" x="1702.65" y="-1520.72" font-family="Times New Roman,serif" font-size="14.00">[ef..10b)</text>
<text text-anchor="middle" x="1702.65" y="-1505.72" font-family="Times New Roman,serif" font-size="14.00">Count: 1</text>
<text text-anchor="middle" x="1702.65" y="-1490.72" font-family="Times New Roman,serif" font-size="14.00">Normalized count: Infinity</text>
<text text-anchor="middle" x="1702.65" y="-1475.72" font-family="Times New Roman,serif" font-size="14.00">Samples weight: 0.01</text>
</g>
<!-- BB0&#45;&gt;BB7 -->
<g id="edge6" class="edge">
<title>BB0&#45;&gt;BB7</title>
<path fill="none" stroke="black" d="M1002.64,-1628.4C1137.64,-1620.51 1379.73,-1600.18 1580.65,-1550 1591.55,-1547.27 1602.8,-1543.84 1613.85,-1540.08"/>
<polygon fill="black" stroke="black" points="1615.22,-1543.31 1623.5,-1536.7 1612.91,-1536.71 1615.22,-1543.31"/>
</g>
<!-- BB31 -->
<g id="node32" class="node">
<title>BB31</title>
<ellipse fill="none" stroke="black" cx="1466.65" cy="-1501.92" rx="104.8" ry="48.17"/>
<text text-anchor="middle" x="1466.65" y="-1520.72" font-family="Times New Roman,serif" font-size="14.00">[240..249)</text>
<text text-anchor="middle" x="1466.65" y="-1505.72" font-family="Times New Roman,serif" font-size="14.00">Count: 0</text>
<text text-anchor="middle" x="1466.65" y="-1490.72" font-family="Times New Roman,serif" font-size="14.00">Normalized count: NaN</text>
<text text-anchor="middle" x="1466.65" y="-1475.72" font-family="Times New Roman,serif" font-size="14.00">Samples weight: 0.00</text>
</g>
<!-- BB0&#45;&gt;BB31 -->
<g id="edge8" class="edge">
<title>BB0&#45;&gt;BB31</title>
<path fill="none" stroke="black" d="M999.51,-1620.98C1092.68,-1608.32 1234.3,-1585.31 1353.65,-1550 1363.46,-1547.1 1373.57,-1543.62 1383.53,-1539.89"/>
<polygon fill="black" stroke="black" points="1384.93,-1543.1 1393.01,-1536.25 1382.42,-1536.57 1384.93,-1543.1"/>
</g>
<!-- BB32 -->
<g id="node33" class="node">
<title>BB32</title>
<ellipse fill="none" stroke="black" cx="883.65" cy="-1369.75" rx="104.8" ry="48.17"/>
<text text-anchor="middle" x="883.65" y="-1388.55" font-family="Times New Roman,serif" font-size="14.00">[249..250)</text>
<text text-anchor="middle" x="883.65" y="-1373.55" font-family="Times New Roman,serif" font-size="14.00">Count: 0</text>
<text text-anchor="middle" x="883.65" y="-1358.55" font-family="Times New Roman,serif" font-size="14.00">Normalized count: NaN</text>
<text text-anchor="middle" x="883.65" y="-1343.55" font-family="Times New Roman,serif" font-size="14.00">Samples weight: 0.00</text>
</g>
<!-- BB1&#45;&gt;BB32 -->
<g id="edge9" class="edge">
<title>BB1&#45;&gt;BB32</title>
<path fill="none" stroke="black" d="M177.5,-1467.2C190.66,-1462.08 204.4,-1457.35 217.65,-1453.83 407.13,-1403.54 635.21,-1383.47 769.31,-1375.61"/>
<polygon fill="black" stroke="black" points="769.82,-1379.09 779.6,-1375.03 769.42,-1372.1 769.82,-1379.09"/>
</g>
<!-- BB2&#45;&gt;BB32 -->
<g id="edge10" class="edge">
<title>BB2&#45;&gt;BB32</title>
<path fill="none" stroke="black" d="M405.31,-1467.65C418.26,-1462.55 431.72,-1457.7 444.65,-1453.83 554.42,-1420.97 683.67,-1398.37 773.38,-1385.13"/>
<polygon fill="black" stroke="black" points="773.91,-1388.59 783.29,-1383.68 772.89,-1381.66 773.91,-1388.59"/>
</g>
<!-- BB3&#45;&gt;BB32 -->
<g id="edge11" class="edge">
<title>BB3&#45;&gt;BB32</title>
<path fill="none" stroke="black" d="M634.84,-1468.91C647.13,-1463.82 659.73,-1458.65 671.65,-1453.83 712.03,-1437.51 756.91,-1419.85 794.95,-1405.03"/>
<polygon fill="black" stroke="black" points="796.42,-1408.21 804.46,-1401.32 793.88,-1401.69 796.42,-1408.21"/>
</g>
<!-- BB4&#45;&gt;BB32 -->
<g id="edge12" class="edge">
<title>BB4&#45;&gt;BB32</title>
<path fill="none" stroke="black" d="M819.38,-1456.12C827.23,-1445.69 835.67,-1434.48 843.76,-1423.74"/>
<polygon fill="black" stroke="black" points="846.64,-1425.72 849.86,-1415.63 841.05,-1421.51 846.64,-1425.72"/>
</g>
<!-- BB5&#45;&gt;BB32 -->
<g id="edge13" class="edge">
<title>BB5&#45;&gt;BB32</title>
<path fill="none" stroke="black" d="M970.05,-1457.93C958.28,-1446.05 945.39,-1433.05 933.25,-1420.8"/>
<polygon fill="black" stroke="black" points="935.73,-1418.32 926.2,-1413.69 930.76,-1423.25 935.73,-1418.32"/>
</g>
<!-- BB6&#45;&gt;BB32 -->
<g id="edge14" class="edge">
<title>BB6&#45;&gt;BB32</title>
<path fill="none" stroke="black" d="M1163.94,-1468.57C1151.54,-1463.5 1138.78,-1458.42 1126.65,-1453.83 1077.9,-1435.36 1022.98,-1416.43 977.71,-1401.31"/>
<polygon fill="black" stroke="black" points="978.79,-1397.99 968.2,-1398.15 976.58,-1404.63 978.79,-1397.99"/>
</g>
<!-- BB8 -->
<g id="node9" class="node">
<title>BB8</title>
<ellipse fill="none" stroke="black" cx="1475.65" cy="-1369.75" rx="104.8" ry="48.17"/>
<text text-anchor="middle" x="1475.65" y="-1388.55" font-family="Times New Roman,serif" font-size="14.00">[10b..118)</text>
<text text-anchor="middle" x="1475.65" y="-1373.55" font-family="Times New Roman,serif" font-size="14.00">Count: 0</text>
<text text-anchor="middle" x="1475.65" y="-1358.55" font-family="Times New Roman,serif" font-size="14.00">Normalized count: NaN</text>
<text text-anchor="middle" x="1475.65" y="-1343.55" font-family="Times New Roman,serif" font-size="14.00">Samples weight: 0.00</text>
</g>
<!-- BB7&#45;&gt;BB8 -->
<g id="edge16" class="edge">
<title>BB7&#45;&gt;BB8</title>
<path fill="none" stroke="black" d="M1636.08,-1462.74C1608.81,-1447.1 1577.15,-1428.95 1549.2,-1412.92"/>
<polygon fill="black" stroke="black" points="1550.69,-1409.74 1540.27,-1407.8 1547.2,-1415.81 1550.69,-1409.74"/>
</g>
<!-- BB9 -->
<g id="node10" class="node">
<title>BB9</title>
<ellipse fill="none" stroke="black" cx="1702.65" cy="-1369.75" rx="104.8" ry="48.17"/>
<text text-anchor="middle" x="1702.65" y="-1388.55" font-family="Times New Roman,serif" font-size="14.00">[118..11f)</text>
<text text-anchor="middle" x="1702.65" y="-1373.55" font-family="Times New Roman,serif" font-size="14.00">Count: 0</text>
<text text-anchor="middle" x="1702.65" y="-1358.55" font-family="Times New Roman,serif" font-size="14.00">Normalized count: NaN</text>
<text text-anchor="middle" x="1702.65" y="-1343.55" font-family="Times New Roman,serif" font-size="14.00">Samples weight: 0.00</text>
</g>
<!-- BB7&#45;&gt;BB9 -->
<g id="edge15" class="edge">
<title>BB7&#45;&gt;BB9</title>
<path fill="none" stroke="black" d="M1702.65,-1453.55C1702.65,-1445.29 1702.65,-1436.6 1702.65,-1428.1"/>
<polygon fill="black" stroke="black" points="1706.15,-1427.86 1702.65,-1417.86 1699.15,-1427.86 1706.15,-1427.86"/>
</g>
<!-- BB8&#45;&gt;BB9 -->
<g id="edge18" class="edge">
<title>BB8&#45;&gt;BB9</title>
<path fill="none" stroke="black" d="M1580.73,-1369.75C1583.05,-1369.75 1585.37,-1369.75 1587.69,-1369.75"/>
<polygon fill="black" stroke="black" points="1587.87,-1373.25 1597.87,-1369.75 1587.87,-1366.25 1587.87,-1373.25"/>
</g>
<!-- BB10 -->
<g id="node11" class="node">
<title>BB10</title>
<ellipse fill="none" stroke="black" cx="1475.65" cy="-1237.58" rx="104.8" ry="48.17"/>
<text text-anchor="middle" x="1475.65" y="-1256.38" font-family="Times New Roman,serif" font-size="14.00">[11f..128)</text>
<text text-anchor="middle" x="1475.65" y="-1241.38" font-family="Times New Roman,serif" font-size="14.00">Count: 0</text>
<text text-anchor="middle" x="1475.65" y="-1226.38" font-family="Times New Roman,serif" font-size="14.00">Normalized count: NaN</text>
<text text-anchor="middle" x="1475.65" y="-1211.38" font-family="Times New Roman,serif" font-size="14.00">Samples weight: 0.00</text>
</g>
<!-- BB8&#45;&gt;BB10 -->
<g id="edge17" class="edge">
<title>BB8&#45;&gt;BB10</title>
<path fill="none" stroke="black" d="M1475.65,-1321.39C1475.65,-1313.12 1475.65,-1304.44 1475.65,-1295.93"/>
<polygon fill="black" stroke="black" points="1479.15,-1295.69 1475.65,-1285.69 1472.15,-1295.69 1479.15,-1295.69"/>
</g>
<!-- BB9&#45;&gt;BB10 -->
<g id="edge19" class="edge">
<title>BB9&#45;&gt;BB10</title>
<path fill="none" stroke="black" d="M1638.21,-1331.8C1610.41,-1315.86 1577.76,-1297.13 1549.03,-1280.66"/>
<polygon fill="black" stroke="black" points="1550.67,-1277.56 1540.25,-1275.63 1547.19,-1283.64 1550.67,-1277.56"/>
</g>
<!-- BB11 -->
<g id="node12" class="node">
<title>BB11</title>
<ellipse fill="none" stroke="black" cx="1248.65" cy="-1105.42" rx="104.8" ry="48.17"/>
<text text-anchor="middle" x="1248.65" y="-1124.22" font-family="Times New Roman,serif" font-size="14.00">[128..131)</text>
<text text-anchor="middle" x="1248.65" y="-1109.22" font-family="Times New Roman,serif" font-size="14.00">Count: 0</text>
<text text-anchor="middle" x="1248.65" y="-1094.22" font-family="Times New Roman,serif" font-size="14.00">Normalized count: NaN</text>
<text text-anchor="middle" x="1248.65" y="-1079.22" font-family="Times New Roman,serif" font-size="14.00">Samples weight: 0.00</text>
</g>
<!-- BB10&#45;&gt;BB11 -->
<g id="edge21" class="edge">
<title>BB10&#45;&gt;BB11</title>
<path fill="none" stroke="black" d="M1411.21,-1199.63C1383.41,-1183.69 1350.76,-1164.96 1322.03,-1148.49"/>
<polygon fill="black" stroke="black" points="1323.67,-1145.4 1313.25,-1143.46 1320.19,-1151.47 1323.67,-1145.4"/>
</g>
<!-- BB12 -->
<g id="node13" class="node">
<title>BB12</title>
<ellipse fill="none" stroke="black" cx="1475.65" cy="-1105.42" rx="104.8" ry="48.17"/>
<text text-anchor="middle" x="1475.65" y="-1124.22" font-family="Times New Roman,serif" font-size="14.00">[131..13a)</text>
<text text-anchor="middle" x="1475.65" y="-1109.22" font-family="Times New Roman,serif" font-size="14.00">Count: 0</text>
<text text-anchor="middle" x="1475.65" y="-1094.22" font-family="Times New Roman,serif" font-size="14.00">Normalized count: NaN</text>
<text text-anchor="middle" x="1475.65" y="-1079.22" font-family="Times New Roman,serif" font-size="14.00">Samples weight: 0.00</text>
</g>
<!-- BB10&#45;&gt;BB12 -->
<g id="edge20" class="edge">
<title>BB10&#45;&gt;BB12</title>
<path fill="none" stroke="black" d="M1475.65,-1189.22C1475.65,-1180.95 1475.65,-1172.27 1475.65,-1163.77"/>
<polygon fill="black" stroke="black" points="1479.15,-1163.52 1475.65,-1153.52 1472.15,-1163.52 1479.15,-1163.52"/>
</g>
<!-- BB11&#45;&gt;BB12 -->
<g id="edge23" class="edge">
<title>BB11&#45;&gt;BB12</title>
<path fill="none" stroke="black" d="M1353.73,-1105.42C1356.05,-1105.42 1358.37,-1105.42 1360.69,-1105.42"/>
<polygon fill="black" stroke="black" points="1360.87,-1108.92 1370.87,-1105.42 1360.87,-1101.92 1360.87,-1108.92"/>
</g>
<!-- BB13 -->
<g id="node14" class="node">
<title>BB13</title>
<ellipse fill="none" stroke="black" cx="1248.65" cy="-973.25" rx="104.8" ry="48.17"/>
<text text-anchor="middle" x="1248.65" y="-992.05" font-family="Times New Roman,serif" font-size="14.00">[13a..141)</text>
<text text-anchor="middle" x="1248.65" y="-977.05" font-family="Times New Roman,serif" font-size="14.00">Count: 0</text>
<text text-anchor="middle" x="1248.65" y="-962.05" font-family="Times New Roman,serif" font-size="14.00">Normalized count: NaN</text>
<text text-anchor="middle" x="1248.65" y="-947.05" font-family="Times New Roman,serif" font-size="14.00">Samples weight: 0.00</text>
</g>
<!-- BB11&#45;&gt;BB13 -->
<g id="edge22" class="edge">
<title>BB11&#45;&gt;BB13</title>
<path fill="none" stroke="black" d="M1248.65,-1057.05C1248.65,-1048.79 1248.65,-1040.1 1248.65,-1031.6"/>
<polygon fill="black" stroke="black" points="1252.15,-1031.36 1248.65,-1021.36 1245.15,-1031.36 1252.15,-1031.36"/>
</g>
<!-- BB14 -->
<g id="node15" class="node">
<title>BB14</title>
<ellipse fill="none" stroke="black" cx="1475.65" cy="-973.25" rx="104.8" ry="48.17"/>
<text text-anchor="middle" x="1475.65" y="-992.05" font-family="Times New Roman,serif" font-size="14.00">[141..16d)</text>
<text text-anchor="middle" x="1475.65" y="-977.05" font-family="Times New Roman,serif" font-size="14.00">Count: 0</text>
<text text-anchor="middle" x="1475.65" y="-962.05" font-family="Times New Roman,serif" font-size="14.00">Normalized count: NaN</text>
<text text-anchor="middle" x="1475.65" y="-947.05" font-family="Times New Roman,serif" font-size="14.00">Samples weight: 0.00</text>
</g>
<!-- BB12&#45;&gt;BB14 -->
<g id="edge24" class="edge">
<title>BB12&#45;&gt;BB14</title>
<path fill="none" stroke="black" d="M1475.65,-1057.05C1475.65,-1048.79 1475.65,-1040.1 1475.65,-1031.6"/>
<polygon fill="black" stroke="black" points="1479.15,-1031.36 1475.65,-1021.36 1472.15,-1031.36 1479.15,-1031.36"/>
</g>
<!-- BB13&#45;&gt;BB14 -->
<g id="edge25" class="edge">
<title>BB13&#45;&gt;BB14</title>
<path fill="none" stroke="black" d="M1353.73,-973.25C1356.05,-973.25 1358.37,-973.25 1360.69,-973.25"/>
<polygon fill="black" stroke="black" points="1360.87,-976.75 1370.87,-973.25 1360.87,-969.75 1360.87,-976.75"/>
</g>
<!-- BB16 -->
<g id="node17" class="node">
<title>BB16</title>
<ellipse fill="none" stroke="black" cx="1396.65" cy="-841.08" rx="104.8" ry="48.17"/>
<text text-anchor="middle" x="1396.65" y="-859.88" font-family="Times New Roman,serif" font-size="14.00">[17e..182)</text>
<text text-anchor="middle" x="1396.65" y="-844.88" font-family="Times New Roman,serif" font-size="14.00">Count: 0</text>
<text text-anchor="middle" x="1396.65" y="-829.88" font-family="Times New Roman,serif" font-size="14.00">Normalized count: NaN</text>
<text text-anchor="middle" x="1396.65" y="-814.88" font-family="Times New Roman,serif" font-size="14.00">Samples weight: 0.00</text>
</g>
<!-- BB14&#45;&gt;BB16 -->
<g id="edge26" class="edge">
<title>BB14&#45;&gt;BB16</title>
<path fill="none" stroke="black" d="M1448.02,-926.72C1442.1,-916.97 1435.79,-906.57 1429.69,-896.52"/>
<polygon fill="black" stroke="black" points="1432.58,-894.54 1424.4,-887.8 1426.6,-898.17 1432.58,-894.54"/>
</g>
<!-- BB15 -->
<g id="node16" class="node">
<title>BB15</title>
<ellipse fill="none" stroke="black" cx="1318.65" cy="-708.92" rx="113.69" ry="48.17"/>
<text text-anchor="middle" x="1318.65" y="-727.72" font-family="Times New Roman,serif" font-size="14.00">[16d..17e)</text>
<text text-anchor="middle" x="1318.65" y="-712.72" font-family="Times New Roman,serif" font-size="14.00">Count: 1</text>
<text text-anchor="middle" x="1318.65" y="-697.72" font-family="Times New Roman,serif" font-size="14.00">Normalized count: Infinity</text>
<text text-anchor="middle" x="1318.65" y="-682.72" font-family="Times New Roman,serif" font-size="14.00">Samples weight: 0.01</text>
</g>
<!-- BB15&#45;&gt;BB16 -->
<g id="edge27" class="edge">
<title>BB15&#45;&gt;BB16</title>
<path fill="none" stroke="black" d="M1352.22,-755.15C1358.31,-764.83 1364.57,-775.15 1370.41,-785.15"/>
<polygon fill="black" stroke="black" points="1367.39,-786.92 1375.42,-793.82 1373.45,-783.41 1367.39,-786.92"/>
</g>
<!-- BB16&#45;&gt;BB15 -->
<g id="edge28" class="edge">
<title>BB16&#45;&gt;BB15</title>
<path fill="none" stroke="black" d="M1363.36,-795.29C1357.27,-785.62 1351,-775.28 1345.14,-765.27"/>
<polygon fill="black" stroke="black" points="1348.14,-763.47 1340.1,-756.57 1342.08,-766.98 1348.14,-763.47"/>
</g>
<!-- BB17 -->
<g id="node18" class="node">
<title>BB17</title>
<ellipse fill="none" stroke="black" cx="1554.65" cy="-708.92" rx="104.8" ry="48.17"/>
<text text-anchor="middle" x="1554.65" y="-727.72" font-family="Times New Roman,serif" font-size="14.00">[182..186)</text>
<text text-anchor="middle" x="1554.65" y="-712.72" font-family="Times New Roman,serif" font-size="14.00">Count: 0</text>
<text text-anchor="middle" x="1554.65" y="-697.72" font-family="Times New Roman,serif" font-size="14.00">Normalized count: NaN</text>
<text text-anchor="middle" x="1554.65" y="-682.72" font-family="Times New Roman,serif" font-size="14.00">Samples weight: 0.00</text>
</g>
<!-- BB16&#45;&gt;BB17 -->
<g id="edge29" class="edge">
<title>BB16&#45;&gt;BB17</title>
<path fill="none" stroke="black" d="M1447.08,-798.54C1462.83,-785.56 1480.34,-771.14 1496.58,-757.76"/>
<polygon fill="black" stroke="black" points="1498.94,-760.35 1504.43,-751.29 1494.49,-754.95 1498.94,-760.35"/>
</g>
<!-- BB25 -->
<g id="node26" class="node">
<title>BB25</title>
<ellipse fill="none" stroke="black" cx="1462.65" cy="-576.75" rx="113.69" ry="48.17"/>
<text text-anchor="middle" x="1462.65" y="-595.55" font-family="Times New Roman,serif" font-size="14.00">[1e7..1ec)</text>
<text text-anchor="middle" x="1462.65" y="-580.55" font-family="Times New Roman,serif" font-size="14.00">Count: 4</text>
<text text-anchor="middle" x="1462.65" y="-565.55" font-family="Times New Roman,serif" font-size="14.00">Normalized count: Infinity</text>
<text text-anchor="middle" x="1462.65" y="-550.55" font-family="Times New Roman,serif" font-size="14.00">Samples weight: 0.04</text>
</g>
<!-- BB17&#45;&gt;BB25 -->
<g id="edge30" class="edge">
<title>BB17&#45;&gt;BB25</title>
<path fill="none" stroke="black" d="M1522.73,-662.76C1515.61,-652.67 1507.98,-641.89 1500.64,-631.5"/>
<polygon fill="black" stroke="black" points="1503.46,-629.42 1494.83,-623.27 1497.74,-633.46 1503.46,-629.42"/>
</g>
<!-- BB18 -->
<g id="node19" class="node">
<title>BB18</title>
<ellipse fill="none" stroke="black" cx="1533.65" cy="-444.58" rx="113.69" ry="48.17"/>
<text text-anchor="middle" x="1533.65" y="-463.38" font-family="Times New Roman,serif" font-size="14.00">[186..199)</text>
<text text-anchor="middle" x="1533.65" y="-448.38" font-family="Times New Roman,serif" font-size="14.00">Count: 18</text>
<text text-anchor="middle" x="1533.65" y="-433.38" font-family="Times New Roman,serif" font-size="14.00">Normalized count: Infinity</text>
<text text-anchor="middle" x="1533.65" y="-418.38" font-family="Times New Roman,serif" font-size="14.00">Samples weight: 0.17</text>
</g>
<!-- BB19 -->
<g id="node20" class="node">
<title>BB19</title>
<ellipse fill="none" stroke="black" cx="1779.65" cy="-312.42" rx="113.69" ry="48.17"/>
<text text-anchor="middle" x="1779.65" y="-331.22" font-family="Times New Roman,serif" font-size="14.00">[199..19f)</text>
<text text-anchor="middle" x="1779.65" y="-316.22" font-family="Times New Roman,serif" font-size="14.00">Count: 8</text>
<text text-anchor="middle" x="1779.65" y="-301.22" font-family="Times New Roman,serif" font-size="14.00">Normalized count: Infinity</text>
<text text-anchor="middle" x="1779.65" y="-286.22" font-family="Times New Roman,serif" font-size="14.00">Samples weight: 0.07</text>
</g>
<!-- BB18&#45;&gt;BB19 -->
<g id="edge32" class="edge">
<title>BB18&#45;&gt;BB19</title>
<path fill="none" stroke="black" d="M1603.82,-406.46C1633.93,-390.52 1669.27,-371.82 1700.33,-355.39"/>
<polygon fill="black" stroke="black" points="1702.19,-358.36 1709.39,-350.59 1698.92,-352.18 1702.19,-358.36"/>
</g>
<!-- BB23 -->
<g id="node24" class="node">
<title>BB23</title>
<ellipse fill="none" stroke="black" cx="1533.65" cy="-312.42" rx="113.69" ry="48.17"/>
<text text-anchor="middle" x="1533.65" y="-331.22" font-family="Times New Roman,serif" font-size="14.00">[1cc..1ce)</text>
<text text-anchor="middle" x="1533.65" y="-316.22" font-family="Times New Roman,serif" font-size="14.00">Count: 6</text>
<text text-anchor="middle" x="1533.65" y="-301.22" font-family="Times New Roman,serif" font-size="14.00">Normalized count: Infinity</text>
<text text-anchor="middle" x="1533.65" y="-286.22" font-family="Times New Roman,serif" font-size="14.00">Samples weight: 0.06</text>
</g>
<!-- BB18&#45;&gt;BB23 -->
<g id="edge31" class="edge">
<title>BB18&#45;&gt;BB23</title>
<path fill="none" stroke="black" d="M1533.65,-396.22C1533.65,-387.95 1533.65,-379.27 1533.65,-370.77"/>
<polygon fill="black" stroke="black" points="1537.15,-370.52 1533.65,-360.52 1530.15,-370.52 1537.15,-370.52"/>
</g>
<!-- BB21 -->
<g id="node22" class="node">
<title>BB21</title>
<ellipse fill="none" stroke="black" cx="1779.65" cy="-180.25" rx="113.69" ry="48.17"/>
<text text-anchor="middle" x="1779.65" y="-199.05" font-family="Times New Roman,serif" font-size="14.00">[1c6..1ca)</text>
<text text-anchor="middle" x="1779.65" y="-184.05" font-family="Times New Roman,serif" font-size="14.00">Count: 10</text>
<text text-anchor="middle" x="1779.65" y="-169.05" font-family="Times New Roman,serif" font-size="14.00">Normalized count: Infinity</text>
<text text-anchor="middle" x="1779.65" y="-154.05" font-family="Times New Roman,serif" font-size="14.00">Samples weight: 0.09</text>
</g>
<!-- BB19&#45;&gt;BB21 -->
<g id="edge33" class="edge">
<title>BB19&#45;&gt;BB21</title>
<path fill="none" stroke="black" d="M1779.65,-264.05C1779.65,-255.79 1779.65,-247.1 1779.65,-238.6"/>
<polygon fill="black" stroke="black" points="1783.15,-238.36 1779.65,-228.36 1776.15,-238.36 1783.15,-238.36"/>
</g>
<!-- BB20 -->
<g id="node21" class="node">
<title>BB20</title>
<ellipse fill="none" stroke="black" cx="1779.65" cy="-48.08" rx="113.69" ry="48.17"/>
<text text-anchor="middle" x="1779.65" y="-66.88" font-family="Times New Roman,serif" font-size="14.00">[19f..1c6)</text>
<text text-anchor="middle" x="1779.65" y="-51.88" font-family="Times New Roman,serif" font-size="14.00">Count: 47</text>
<text text-anchor="middle" x="1779.65" y="-36.88" font-family="Times New Roman,serif" font-size="14.00">Normalized count: Infinity</text>
<text text-anchor="middle" x="1779.65" y="-21.88" font-family="Times New Roman,serif" font-size="14.00">Samples weight: 0.44</text>
</g>
<!-- BB20&#45;&gt;BB21 -->
<g id="edge34" class="edge">
<title>BB20&#45;&gt;BB21</title>
<path fill="none" stroke="black" d="M1786.17,-96.19C1786.39,-104.45 1786.45,-113.13 1786.36,-121.64"/>
<polygon fill="black" stroke="black" points="1782.86,-121.83 1786.17,-131.89 1789.86,-121.95 1782.86,-121.83"/>
</g>
<!-- BB21&#45;&gt;BB20 -->
<g id="edge35" class="edge">
<title>BB21&#45;&gt;BB20</title>
<path fill="none" stroke="black" d="M1773.13,-131.89C1772.91,-123.62 1772.85,-114.94 1772.94,-106.43"/>
<polygon fill="black" stroke="black" points="1776.45,-106.26 1773.14,-96.19 1769.45,-106.12 1776.45,-106.26"/>
</g>
<!-- BB22 -->
<g id="node23" class="node">
<title>BB22</title>
<ellipse fill="none" stroke="black" cx="1533.65" cy="-48.08" rx="113.69" ry="48.17"/>
<text text-anchor="middle" x="1533.65" y="-66.88" font-family="Times New Roman,serif" font-size="14.00">[1ca..1cc)</text>
<text text-anchor="middle" x="1533.65" y="-51.88" font-family="Times New Roman,serif" font-size="14.00">Count: 1</text>
<text text-anchor="middle" x="1533.65" y="-36.88" font-family="Times New Roman,serif" font-size="14.00">Normalized count: Infinity</text>
<text text-anchor="middle" x="1533.65" y="-21.88" font-family="Times New Roman,serif" font-size="14.00">Samples weight: 0.01</text>
</g>
<!-- BB21&#45;&gt;BB22 -->
<g id="edge36" class="edge">
<title>BB21&#45;&gt;BB22</title>
<path fill="none" stroke="black" d="M1709.49,-142.12C1679.37,-126.19 1644.04,-107.49 1612.97,-91.06"/>
<polygon fill="black" stroke="black" points="1614.39,-87.84 1603.91,-86.26 1611.11,-94.03 1614.39,-87.84"/>
</g>
<!-- BB24 -->
<g id="node25" class="node">
<title>BB24</title>
<ellipse fill="none" stroke="black" cx="1533.65" cy="-180.25" rx="113.69" ry="48.17"/>
<text text-anchor="middle" x="1533.65" y="-199.05" font-family="Times New Roman,serif" font-size="14.00">[1ce..1e7)</text>
<text text-anchor="middle" x="1533.65" y="-184.05" font-family="Times New Roman,serif" font-size="14.00">Count: 11</text>
<text text-anchor="middle" x="1533.65" y="-169.05" font-family="Times New Roman,serif" font-size="14.00">Normalized count: Infinity</text>
<text text-anchor="middle" x="1533.65" y="-154.05" font-family="Times New Roman,serif" font-size="14.00">Samples weight: 0.10</text>
</g>
<!-- BB22&#45;&gt;BB24 -->
<g id="edge37" class="edge">
<title>BB22&#45;&gt;BB24</title>
<path fill="none" stroke="black" d="M1533.65,-96.19C1533.65,-104.45 1533.65,-113.13 1533.65,-121.64"/>
<polygon fill="black" stroke="black" points="1530.15,-121.89 1533.65,-131.89 1537.15,-121.89 1530.15,-121.89"/>
</g>
<!-- BB23&#45;&gt;BB24 -->
<g id="edge38" class="edge">
<title>BB23&#45;&gt;BB24</title>
<path fill="none" stroke="black" d="M1533.65,-264.05C1533.65,-255.79 1533.65,-247.1 1533.65,-238.6"/>
<polygon fill="black" stroke="black" points="1537.15,-238.36 1533.65,-228.36 1530.15,-238.36 1537.15,-238.36"/>
</g>
<!-- BB24&#45;&gt;BB25 -->
<g id="edge39" class="edge">
<title>BB24&#45;&gt;BB25</title>
<path fill="none" stroke="black" d="M1457.37,-216.18C1438.75,-228.6 1421.17,-244.53 1410.65,-264.33 1363.04,-353.95 1382.64,-395.13 1410.65,-492.67 1413.5,-502.58 1417.91,-512.46 1422.99,-521.76"/>
<polygon fill="black" stroke="black" points="1420,-523.58 1428.04,-530.49 1426.06,-520.08 1420,-523.58"/>
</g>
<!-- BB25&#45;&gt;BB18 -->
<g id="edge40" class="edge">
<title>BB25&#45;&gt;BB18</title>
<path fill="none" stroke="black" d="M1487.88,-529.49C1492.96,-520.19 1498.34,-510.32 1503.56,-500.75"/>
<polygon fill="black" stroke="black" points="1506.79,-502.15 1508.5,-491.69 1500.64,-498.8 1506.79,-502.15"/>
</g>
<!-- BB26 -->
<g id="node27" class="node">
<title>BB26</title>
<ellipse fill="none" stroke="black" cx="1252.65" cy="-444.58" rx="104.8" ry="48.17"/>
<text text-anchor="middle" x="1252.65" y="-463.38" font-family="Times New Roman,serif" font-size="14.00">[1ec..1ee)</text>
<text text-anchor="middle" x="1252.65" y="-448.38" font-family="Times New Roman,serif" font-size="14.00">Count: 0</text>
<text text-anchor="middle" x="1252.65" y="-433.38" font-family="Times New Roman,serif" font-size="14.00">Normalized count: NaN</text>
<text text-anchor="middle" x="1252.65" y="-418.38" font-family="Times New Roman,serif" font-size="14.00">Samples weight: 0.00</text>
</g>
<!-- BB25&#45;&gt;BB26 -->
<g id="edge41" class="edge">
<title>BB25&#45;&gt;BB26</title>
<path fill="none" stroke="black" d="M1399.64,-536.7C1375.44,-521.69 1347.66,-504.47 1322.82,-489.08"/>
<polygon fill="black" stroke="black" points="1324.51,-486.01 1314.17,-483.71 1320.82,-491.96 1324.51,-486.01"/>
</g>
<!-- BB28 -->
<g id="node29" class="node">
<title>BB28</title>
<ellipse fill="none" stroke="black" cx="1247.65" cy="-312.42" rx="113.69" ry="48.17"/>
<text text-anchor="middle" x="1247.65" y="-331.22" font-family="Times New Roman,serif" font-size="14.00">[214..224)</text>
<text text-anchor="middle" x="1247.65" y="-316.22" font-family="Times New Roman,serif" font-size="14.00">Count: 1</text>
<text text-anchor="middle" x="1247.65" y="-301.22" font-family="Times New Roman,serif" font-size="14.00">Normalized count: Infinity</text>
<text text-anchor="middle" x="1247.65" y="-286.22" font-family="Times New Roman,serif" font-size="14.00">Samples weight: 0.01</text>
</g>
<!-- BB26&#45;&gt;BB28 -->
<g id="edge42" class="edge">
<title>BB26&#45;&gt;BB28</title>
<path fill="none" stroke="black" d="M1250.83,-396.22C1250.51,-387.95 1250.18,-379.27 1249.85,-370.77"/>
<polygon fill="black" stroke="black" points="1253.34,-370.38 1249.46,-360.52 1246.35,-370.65 1253.34,-370.38"/>
</g>
<!-- BB27 -->
<g id="node28" class="node">
<title>BB27</title>
<ellipse fill="none" stroke="black" cx="1247.65" cy="-180.25" rx="104.8" ry="48.17"/>
<text text-anchor="middle" x="1247.65" y="-199.05" font-family="Times New Roman,serif" font-size="14.00">[1ee..214)</text>
<text text-anchor="middle" x="1247.65" y="-184.05" font-family="Times New Roman,serif" font-size="14.00">Count: 0</text>
<text text-anchor="middle" x="1247.65" y="-169.05" font-family="Times New Roman,serif" font-size="14.00">Normalized count: NaN</text>
<text text-anchor="middle" x="1247.65" y="-154.05" font-family="Times New Roman,serif" font-size="14.00">Samples weight: 0.00</text>
</g>
<!-- BB27&#45;&gt;BB28 -->
<g id="edge43" class="edge">
<title>BB27&#45;&gt;BB28</title>
<path fill="none" stroke="black" d="M1254.17,-228.36C1254.39,-236.62 1254.45,-245.3 1254.36,-253.8"/>
<polygon fill="black" stroke="black" points="1250.86,-253.99 1254.17,-264.05 1257.86,-254.12 1250.86,-253.99"/>
</g>
<!-- BB28&#45;&gt;BB27 -->
<g id="edge44" class="edge">
<title>BB28&#45;&gt;BB27</title>
<path fill="none" stroke="black" d="M1241.13,-264.05C1240.91,-255.79 1240.85,-247.1 1240.94,-238.6"/>
<polygon fill="black" stroke="black" points="1244.45,-238.42 1241.14,-228.36 1237.45,-238.29 1244.45,-238.42"/>
</g>
<!-- BB29 -->
<g id="node30" class="node">
<title>BB29</title>
<ellipse fill="none" stroke="black" cx="1016.65" cy="-180.25" rx="104.8" ry="48.17"/>
<text text-anchor="middle" x="1016.65" y="-199.05" font-family="Times New Roman,serif" font-size="14.00">[224..22c)</text>
<text text-anchor="middle" x="1016.65" y="-184.05" font-family="Times New Roman,serif" font-size="14.00">Count: 0</text>
<text text-anchor="middle" x="1016.65" y="-169.05" font-family="Times New Roman,serif" font-size="14.00">Normalized count: NaN</text>
<text text-anchor="middle" x="1016.65" y="-154.05" font-family="Times New Roman,serif" font-size="14.00">Samples weight: 0.00</text>
</g>
<!-- BB28&#45;&gt;BB29 -->
<g id="edge45" class="edge">
<title>BB28&#45;&gt;BB29</title>
<path fill="none" stroke="black" d="M1180.22,-273.42C1152.1,-257.57 1119.35,-239.12 1090.58,-222.91"/>
<polygon fill="black" stroke="black" points="1092.22,-219.81 1081.78,-217.95 1088.78,-225.91 1092.22,-219.81"/>
</g>
<!-- BB30 -->
<g id="node31" class="node">
<title>BB30</title>
<ellipse fill="none" stroke="black" cx="950.65" cy="-48.08" rx="104.8" ry="48.17"/>
<text text-anchor="middle" x="950.65" y="-66.88" font-family="Times New Roman,serif" font-size="14.00">[22c..240)</text>
<text text-anchor="middle" x="950.65" y="-51.88" font-family="Times New Roman,serif" font-size="14.00">Count: 0</text>
<text text-anchor="middle" x="950.65" y="-36.88" font-family="Times New Roman,serif" font-size="14.00">Normalized count: NaN</text>
<text text-anchor="middle" x="950.65" y="-21.88" font-family="Times New Roman,serif" font-size="14.00">Samples weight: 0.00</text>
</g>
<!-- BB29&#45;&gt;BB30 -->
<g id="edge47" class="edge">
<title>BB29&#45;&gt;BB30</title>
<path fill="none" stroke="black" d="M993.38,-133.36C988.6,-123.93 983.52,-113.91 978.59,-104.19"/>
<polygon fill="black" stroke="black" points="981.58,-102.34 973.93,-95 975.33,-105.5 981.58,-102.34"/>
</g>
<!-- BB29&#45;&gt;BB32 -->
<g id="edge46" class="edge">
<title>BB29&#45;&gt;BB32</title>
<path fill="none" stroke="black" d="M1003.06,-228.19C989.18,-280.33 969.65,-367.24 969.65,-443.58 969.65,-1106.42 969.65,-1106.42 969.65,-1106.42 969.65,-1181.02 937.86,-1261.88 912.93,-1313.82"/>
<polygon fill="black" stroke="black" points="909.77,-1312.33 908.53,-1322.85 916.06,-1315.4 909.77,-1312.33"/>
</g>
<!-- BB30&#45;&gt;BB32 -->
<g id="edge48" class="edge">
<title>BB30&#45;&gt;BB32</title>
<path fill="none" stroke="black" d="M919.88,-94.49C913.17,-106.31 906.83,-119.34 902.65,-132.17 877.85,-208.34 883.65,-231.3 883.65,-311.42 883.65,-1106.42 883.65,-1106.42 883.65,-1106.42 883.65,-1176.87 883.65,-1257.96 883.65,-1311.11"/>
<polygon fill="black" stroke="black" points="880.15,-1311.36 883.65,-1321.36 887.15,-1311.36 880.15,-1311.36"/>
</g>
<!-- BB31&#45;&gt;BB32 -->
<g id="edge49" class="edge">
<title>BB31&#45;&gt;BB32</title>
<path fill="none" stroke="black" d="M1393.03,-1467.52C1380.08,-1462.43 1366.6,-1457.62 1353.65,-1453.83 1233.45,-1418.63 1091.35,-1396.03 995.1,-1383.43"/>
<polygon fill="black" stroke="black" points="995.43,-1379.94 985.06,-1382.13 994.53,-1386.88 995.43,-1379.94"/>
</g>
</g>
</svg>
