<?xml version="1.0" encoding="UTF-8" standalone="no"?>
<!DOCTYPE svg PUBLIC "-//W3C//DTD SVG 1.1//EN"
 "http://www.w3.org/Graphics/SVG/1.1/DTD/svg11.dtd">
<!-- Generated by graphviz version 2.47.0 (20210316.0004)
 -->
<!-- Title: G Pages: 1 -->
<svg width="2230pt" height="1690pt"
 viewBox="0.00 0.00 2230.48 1690.16" xmlns="http://www.w3.org/2000/svg" xmlns:xlink="http://www.w3.org/1999/xlink">
<g id="graph0" class="graph" transform="scale(1 1) rotate(0) translate(4 1686.16)">
<title>G</title>
<polygon fill="white" stroke="transparent" points="-4,4 -4,-1686.16 2226.48,-1686.16 2226.48,4 -4,4"/>
<!-- BB0 -->
<g id="node1" class="node">
<title>BB0</title>
<ellipse fill="none" stroke="black" cx="1111.24" cy="-1634.08" rx="103.48" ry="48.17"/>
<text text-anchor="middle" x="1111.24" y="-1652.88" font-family="Times New Roman,serif" font-size="14.00">[0..87)</text>
<text text-anchor="middle" x="1111.24" y="-1637.88" font-family="Times New Roman,serif" font-size="14.00">Count: 18</text>
<text text-anchor="middle" x="1111.24" y="-1622.88" font-family="Times New Roman,serif" font-size="14.00">Normalized count: 1.00</text>
<text text-anchor="middle" x="1111.24" y="-1607.88" font-family="Times New Roman,serif" font-size="14.00">Samples weight: 0.00</text>
</g>
<!-- BB1 -->
<g id="node2" class="node">
<title>BB1</title>
<ellipse fill="none" stroke="black" cx="1671.24" cy="-1501.92" rx="103.48" ry="48.17"/>
<text text-anchor="middle" x="1671.24" y="-1520.72" font-family="Times New Roman,serif" font-size="14.00">[87..8c)</text>
<text text-anchor="middle" x="1671.24" y="-1505.72" font-family="Times New Roman,serif" font-size="14.00">Count: 0</text>
<text text-anchor="middle" x="1671.24" y="-1490.72" font-family="Times New Roman,serif" font-size="14.00">Normalized count: 0.00</text>
<text text-anchor="middle" x="1671.24" y="-1475.72" font-family="Times New Roman,serif" font-size="14.00">Samples weight: 0.00</text>
</g>
<!-- BB0&#45;&gt;BB1 -->
<g id="edge1" class="edge">
<title>BB0&#45;&gt;BB1</title>
<path fill="none" stroke="black" d="M1210.56,-1620.9C1302.31,-1608.18 1441.77,-1585.14 1559.24,-1550 1569.04,-1547.07 1579.15,-1543.56 1589.09,-1539.79"/>
<polygon fill="black" stroke="black" points="1590.51,-1543 1598.56,-1536.11 1587.97,-1536.47 1590.51,-1543"/>
</g>
<!-- BB2 -->
<g id="node3" class="node">
<title>BB2</title>
<ellipse fill="none" stroke="black" cx="1895.24" cy="-1501.92" rx="103.48" ry="48.17"/>
<text text-anchor="middle" x="1895.24" y="-1520.72" font-family="Times New Roman,serif" font-size="14.00">[8c..97)</text>
<text text-anchor="middle" x="1895.24" y="-1505.72" font-family="Times New Roman,serif" font-size="14.00">Count: 0</text>
<text text-anchor="middle" x="1895.24" y="-1490.72" font-family="Times New Roman,serif" font-size="14.00">Normalized count: 0.00</text>
<text text-anchor="middle" x="1895.24" y="-1475.72" font-family="Times New Roman,serif" font-size="14.00">Samples weight: 0.00</text>
</g>
<!-- BB0&#45;&gt;BB2 -->
<g id="edge2" class="edge">
<title>BB0&#45;&gt;BB2</title>
<path fill="none" stroke="black" d="M1213.94,-1629.14C1347.21,-1622.05 1586.02,-1602.57 1783.24,-1550 1793.28,-1547.32 1803.6,-1543.93 1813.72,-1540.2"/>
<polygon fill="black" stroke="black" points="1815.26,-1543.37 1823.36,-1536.54 1812.76,-1536.82 1815.26,-1543.37"/>
</g>
<!-- BB3 -->
<g id="node4" class="node">
<title>BB3</title>
<ellipse fill="none" stroke="black" cx="103.24" cy="-1501.92" rx="103.48" ry="48.17"/>
<text text-anchor="middle" x="103.24" y="-1520.72" font-family="Times New Roman,serif" font-size="14.00">[97..a4)</text>
<text text-anchor="middle" x="103.24" y="-1505.72" font-family="Times New Roman,serif" font-size="14.00">Count: 0</text>
<text text-anchor="middle" x="103.24" y="-1490.72" font-family="Times New Roman,serif" font-size="14.00">Normalized count: 0.00</text>
<text text-anchor="middle" x="103.24" y="-1475.72" font-family="Times New Roman,serif" font-size="14.00">Samples weight: 0.00</text>
</g>
<!-- BB0&#45;&gt;BB3 -->
<g id="edge3" class="edge">
<title>BB0&#45;&gt;BB3</title>
<path fill="none" stroke="black" d="M1007.75,-1633.65C839.14,-1632.32 495.79,-1620.21 215.24,-1550 204.98,-1547.43 194.44,-1544.06 184.12,-1540.3"/>
<polygon fill="black" stroke="black" points="185.32,-1537.02 174.73,-1536.76 182.85,-1543.56 185.32,-1537.02"/>
</g>
<!-- BB5 -->
<g id="node6" class="node">
<title>BB5</title>
<ellipse fill="none" stroke="black" cx="1447.24" cy="-1501.92" rx="103.48" ry="48.17"/>
<text text-anchor="middle" x="1447.24" y="-1520.72" font-family="Times New Roman,serif" font-size="14.00">[af..c8)</text>
<text text-anchor="middle" x="1447.24" y="-1505.72" font-family="Times New Roman,serif" font-size="14.00">Count: 0</text>
<text text-anchor="middle" x="1447.24" y="-1490.72" font-family="Times New Roman,serif" font-size="14.00">Normalized count: 0.00</text>
<text text-anchor="middle" x="1447.24" y="-1475.72" font-family="Times New Roman,serif" font-size="14.00">Samples weight: 0.00</text>
</g>
<!-- BB0&#45;&gt;BB5 -->
<g id="edge4" class="edge">
<title>BB0&#45;&gt;BB5</title>
<path fill="none" stroke="black" d="M1192.17,-1604.01C1234.88,-1588.43 1288.08,-1568.64 1335.24,-1550 1344.21,-1546.45 1353.55,-1542.67 1362.85,-1538.84"/>
<polygon fill="black" stroke="black" points="1364.21,-1542.07 1372.11,-1535.02 1361.53,-1535.6 1364.21,-1542.07"/>
</g>
<!-- BB6 -->
<g id="node7" class="node">
<title>BB6</title>
<ellipse fill="none" stroke="black" cx="327.24" cy="-1501.92" rx="103.48" ry="48.17"/>
<text text-anchor="middle" x="327.24" y="-1520.72" font-family="Times New Roman,serif" font-size="14.00">[c8..d5)</text>
<text text-anchor="middle" x="327.24" y="-1505.72" font-family="Times New Roman,serif" font-size="14.00">Count: 0</text>
<text text-anchor="middle" x="327.24" y="-1490.72" font-family="Times New Roman,serif" font-size="14.00">Normalized count: 0.00</text>
<text text-anchor="middle" x="327.24" y="-1475.72" font-family="Times New Roman,serif" font-size="14.00">Samples weight: 0.00</text>
</g>
<!-- BB0&#45;&gt;BB6 -->
<g id="edge6" class="edge">
<title>BB0&#45;&gt;BB6</title>
<path fill="none" stroke="black" d="M1008.54,-1629.14C875.27,-1622.05 636.46,-1602.57 439.24,-1550 429.2,-1547.32 418.88,-1543.93 408.75,-1540.2"/>
<polygon fill="black" stroke="black" points="409.71,-1536.82 399.12,-1536.54 407.22,-1543.37 409.71,-1536.82"/>
</g>
<!-- BB8 -->
<g id="node9" class="node">
<title>BB8</title>
<ellipse fill="none" stroke="black" cx="1223.24" cy="-1501.92" rx="103.48" ry="48.17"/>
<text text-anchor="middle" x="1223.24" y="-1520.72" font-family="Times New Roman,serif" font-size="14.00">[e0..100)</text>
<text text-anchor="middle" x="1223.24" y="-1505.72" font-family="Times New Roman,serif" font-size="14.00">Count: 0</text>
<text text-anchor="middle" x="1223.24" y="-1490.72" font-family="Times New Roman,serif" font-size="14.00">Normalized count: 0.00</text>
<text text-anchor="middle" x="1223.24" y="-1475.72" font-family="Times New Roman,serif" font-size="14.00">Samples weight: 0.00</text>
</g>
<!-- BB0&#45;&gt;BB8 -->
<g id="edge8" class="edge">
<title>BB0&#45;&gt;BB8</title>
<path fill="none" stroke="black" d="M1149.16,-1589.01C1158.64,-1577.99 1168.91,-1566.06 1178.68,-1554.7"/>
<polygon fill="black" stroke="black" points="1181.49,-1556.8 1185.36,-1546.94 1176.18,-1552.24 1181.49,-1556.8"/>
</g>
<!-- BB9 -->
<g id="node10" class="node">
<title>BB9</title>
<ellipse fill="none" stroke="black" cx="551.24" cy="-1501.92" rx="103.48" ry="48.17"/>
<text text-anchor="middle" x="551.24" y="-1520.72" font-family="Times New Roman,serif" font-size="14.00">[100..10c)</text>
<text text-anchor="middle" x="551.24" y="-1505.72" font-family="Times New Roman,serif" font-size="14.00">Count: 0</text>
<text text-anchor="middle" x="551.24" y="-1490.72" font-family="Times New Roman,serif" font-size="14.00">Normalized count: 0.00</text>
<text text-anchor="middle" x="551.24" y="-1475.72" font-family="Times New Roman,serif" font-size="14.00">Samples weight: 0.00</text>
</g>
<!-- BB0&#45;&gt;BB9 -->
<g id="edge9" class="edge">
<title>BB0&#45;&gt;BB9</title>
<path fill="none" stroke="black" d="M1011.91,-1620.9C920.16,-1608.18 780.71,-1585.14 663.24,-1550 653.44,-1547.07 643.33,-1543.56 633.38,-1539.79"/>
<polygon fill="black" stroke="black" points="634.5,-1536.47 623.91,-1536.11 631.97,-1543 634.5,-1536.47"/>
</g>
<!-- BB10 -->
<g id="node11" class="node">
<title>BB10</title>
<ellipse fill="none" stroke="black" cx="775.24" cy="-1501.92" rx="103.48" ry="48.17"/>
<text text-anchor="middle" x="775.24" y="-1520.72" font-family="Times New Roman,serif" font-size="14.00">[10c..118)</text>
<text text-anchor="middle" x="775.24" y="-1505.72" font-family="Times New Roman,serif" font-size="14.00">Count: 0</text>
<text text-anchor="middle" x="775.24" y="-1490.72" font-family="Times New Roman,serif" font-size="14.00">Normalized count: 0.00</text>
<text text-anchor="middle" x="775.24" y="-1475.72" font-family="Times New Roman,serif" font-size="14.00">Samples weight: 0.00</text>
</g>
<!-- BB0&#45;&gt;BB10 -->
<g id="edge5" class="edge">
<title>BB0&#45;&gt;BB10</title>
<path fill="none" stroke="black" d="M1030.31,-1604.01C987.59,-1588.43 934.39,-1568.64 887.24,-1550 878.26,-1546.45 868.92,-1542.67 859.63,-1538.84"/>
<polygon fill="black" stroke="black" points="860.94,-1535.6 850.36,-1535.02 858.27,-1542.07 860.94,-1535.6"/>
</g>
<!-- BB11 -->
<g id="node12" class="node">
<title>BB11</title>
<ellipse fill="none" stroke="black" cx="2119.24" cy="-1501.92" rx="103.48" ry="48.17"/>
<text text-anchor="middle" x="2119.24" y="-1520.72" font-family="Times New Roman,serif" font-size="14.00">[118..135)</text>
<text text-anchor="middle" x="2119.24" y="-1505.72" font-family="Times New Roman,serif" font-size="14.00">Count: 58</text>
<text text-anchor="middle" x="2119.24" y="-1490.72" font-family="Times New Roman,serif" font-size="14.00">Normalized count: 3.22</text>
<text text-anchor="middle" x="2119.24" y="-1475.72" font-family="Times New Roman,serif" font-size="14.00">Samples weight: 0.00</text>
</g>
<!-- BB0&#45;&gt;BB11 -->
<g id="edge7" class="edge">
<title>BB0&#45;&gt;BB11</title>
<path fill="none" stroke="black" d="M1214.73,-1633.65C1383.34,-1632.32 1726.68,-1620.21 2007.24,-1550 2017.5,-1547.43 2028.04,-1544.06 2038.35,-1540.3"/>
<polygon fill="black" stroke="black" points="2039.63,-1543.56 2047.75,-1536.76 2037.15,-1537.02 2039.63,-1543.56"/>
</g>
<!-- BB35 -->
<g id="node36" class="node">
<title>BB35</title>
<ellipse fill="none" stroke="black" cx="999.24" cy="-1501.92" rx="103.48" ry="48.17"/>
<text text-anchor="middle" x="999.24" y="-1520.72" font-family="Times New Roman,serif" font-size="14.00">[269..272)</text>
<text text-anchor="middle" x="999.24" y="-1505.72" font-family="Times New Roman,serif" font-size="14.00">Count: 0</text>
<text text-anchor="middle" x="999.24" y="-1490.72" font-family="Times New Roman,serif" font-size="14.00">Normalized count: 0.00</text>
<text text-anchor="middle" x="999.24" y="-1475.72" font-family="Times New Roman,serif" font-size="14.00">Samples weight: 0.00</text>
</g>
<!-- BB0&#45;&gt;BB35 -->
<g id="edge10" class="edge">
<title>BB0&#45;&gt;BB35</title>
<path fill="none" stroke="black" d="M1073.32,-1589.01C1063.83,-1577.99 1053.57,-1566.06 1043.79,-1554.7"/>
<polygon fill="black" stroke="black" points="1046.29,-1552.24 1037.12,-1546.94 1040.99,-1556.8 1046.29,-1552.24"/>
</g>
<!-- BB36 -->
<g id="node37" class="node">
<title>BB36</title>
<ellipse fill="none" stroke="black" cx="1223.24" cy="-1369.75" rx="103.48" ry="48.17"/>
<text text-anchor="middle" x="1223.24" y="-1388.55" font-family="Times New Roman,serif" font-size="14.00">[272..279)</text>
<text text-anchor="middle" x="1223.24" y="-1373.55" font-family="Times New Roman,serif" font-size="14.00">Count: 59</text>
<text text-anchor="middle" x="1223.24" y="-1358.55" font-family="Times New Roman,serif" font-size="14.00">Normalized count: 3.28</text>
<text text-anchor="middle" x="1223.24" y="-1343.55" font-family="Times New Roman,serif" font-size="14.00">Samples weight: 0.00</text>
</g>
<!-- BB1&#45;&gt;BB36 -->
<g id="edge11" class="edge">
<title>BB1&#45;&gt;BB36</title>
<path fill="none" stroke="black" d="M1597.82,-1467.9C1585.1,-1462.8 1571.89,-1457.89 1559.24,-1453.83 1490.24,-1431.71 1470.59,-1435.15 1400.24,-1417.83 1374.5,-1411.5 1346.76,-1404.3 1321.05,-1397.47"/>
<polygon fill="black" stroke="black" points="1321.87,-1394.06 1311.3,-1394.87 1320.06,-1400.82 1321.87,-1394.06"/>
</g>
<!-- BB2&#45;&gt;BB36 -->
<g id="edge12" class="edge">
<title>BB2&#45;&gt;BB36</title>
<path fill="none" stroke="black" d="M1823.74,-1467.09C1810.51,-1461.92 1796.64,-1457.19 1783.24,-1453.83 1617.41,-1412.22 1568.54,-1447.91 1400.24,-1417.83 1373.59,-1413.07 1345.1,-1406.27 1318.93,-1399.31"/>
<polygon fill="black" stroke="black" points="1319.59,-1395.86 1309.02,-1396.64 1317.76,-1402.62 1319.59,-1395.86"/>
</g>
<!-- BB4 -->
<g id="node5" class="node">
<title>BB4</title>
<ellipse fill="none" stroke="black" cx="271.24" cy="-1369.75" rx="103.48" ry="48.17"/>
<text text-anchor="middle" x="271.24" y="-1388.55" font-family="Times New Roman,serif" font-size="14.00">[a4..af)</text>
<text text-anchor="middle" x="271.24" y="-1373.55" font-family="Times New Roman,serif" font-size="14.00">Count: 0</text>
<text text-anchor="middle" x="271.24" y="-1358.55" font-family="Times New Roman,serif" font-size="14.00">Normalized count: 0.00</text>
<text text-anchor="middle" x="271.24" y="-1343.55" font-family="Times New Roman,serif" font-size="14.00">Samples weight: 0.00</text>
</g>
<!-- BB3&#45;&gt;BB4 -->
<g id="edge14" class="edge">
<title>BB3&#45;&gt;BB4</title>
<path fill="none" stroke="black" d="M155.93,-1460.09C173.29,-1446.64 192.73,-1431.58 210.63,-1417.71"/>
<polygon fill="black" stroke="black" points="212.97,-1420.32 218.73,-1411.43 208.68,-1414.79 212.97,-1420.32"/>
</g>
<!-- BB3&#45;&gt;BB5 -->
<g id="edge13" class="edge">
<title>BB3&#45;&gt;BB5</title>
<path fill="none" stroke="black" d="M162.01,-1541.65C181.04,-1552.38 202.79,-1562.52 224.24,-1568 283.56,-1583.14 1266.92,-1583.14 1326.24,-1568 1344.34,-1563.38 1362.65,-1555.43 1379.36,-1546.62"/>
<polygon fill="black" stroke="black" points="1381.36,-1549.51 1388.47,-1541.65 1378.01,-1543.37 1381.36,-1549.51"/>
</g>
<!-- BB4&#45;&gt;BB36 -->
<g id="edge15" class="edge">
<title>BB4&#45;&gt;BB36</title>
<path fill="none" stroke="black" d="M363.56,-1391.3C491.73,-1418.41 730.79,-1458.8 934.24,-1435.83 998.89,-1428.53 1070.16,-1412.33 1125.75,-1397.8"/>
<polygon fill="black" stroke="black" points="1126.81,-1401.14 1135.58,-1395.2 1125.02,-1394.37 1126.81,-1401.14"/>
</g>
<!-- BB5&#45;&gt;BB36 -->
<g id="edge16" class="edge">
<title>BB5&#45;&gt;BB36</title>
<path fill="none" stroke="black" d="M1383.65,-1463.96C1356.22,-1448.02 1323.99,-1429.3 1295.65,-1412.83"/>
<polygon fill="black" stroke="black" points="1297.39,-1409.79 1286.99,-1407.79 1293.87,-1415.84 1297.39,-1409.79"/>
</g>
<!-- BB7 -->
<g id="node8" class="node">
<title>BB7</title>
<ellipse fill="none" stroke="black" cx="831.24" cy="-1369.75" rx="103.48" ry="48.17"/>
<text text-anchor="middle" x="831.24" y="-1388.55" font-family="Times New Roman,serif" font-size="14.00">[d5..e0)</text>
<text text-anchor="middle" x="831.24" y="-1373.55" font-family="Times New Roman,serif" font-size="14.00">Count: 0</text>
<text text-anchor="middle" x="831.24" y="-1358.55" font-family="Times New Roman,serif" font-size="14.00">Normalized count: 0.00</text>
<text text-anchor="middle" x="831.24" y="-1343.55" font-family="Times New Roman,serif" font-size="14.00">Samples weight: 0.00</text>
</g>
<!-- BB6&#45;&gt;BB7 -->
<g id="edge18" class="edge">
<title>BB6&#45;&gt;BB7</title>
<path fill="none" stroke="black" d="M400.3,-1467.87C413.12,-1462.75 426.46,-1457.83 439.24,-1453.83 533.78,-1424.23 644.45,-1401.85 724.04,-1387.82"/>
<polygon fill="black" stroke="black" points="724.83,-1391.24 734.07,-1386.07 723.62,-1384.34 724.83,-1391.24"/>
</g>
<!-- BB6&#45;&gt;BB8 -->
<g id="edge17" class="edge">
<title>BB6&#45;&gt;BB8</title>
<path fill="none" stroke="black" d="M386.01,-1541.65C405.04,-1552.38 426.79,-1562.52 448.24,-1568 518.65,-1585.97 1031.83,-1585.97 1102.24,-1568 1120.34,-1563.38 1138.65,-1555.43 1155.36,-1546.62"/>
<polygon fill="black" stroke="black" points="1157.36,-1549.51 1164.47,-1541.65 1154.01,-1543.37 1157.36,-1549.51"/>
</g>
<!-- BB7&#45;&gt;BB36 -->
<g id="edge19" class="edge">
<title>BB7&#45;&gt;BB36</title>
<path fill="none" stroke="black" d="M934.6,-1369.75C992.95,-1369.75 1051.31,-1369.75 1109.66,-1369.75"/>
<polygon fill="black" stroke="black" points="1109.79,-1373.25 1119.79,-1369.75 1109.79,-1366.25 1109.79,-1373.25"/>
</g>
<!-- BB8&#45;&gt;BB36 -->
<g id="edge20" class="edge">
<title>BB8&#45;&gt;BB36</title>
<path fill="none" stroke="black" d="M1223.24,-1453.55C1223.24,-1445.29 1223.24,-1436.6 1223.24,-1428.1"/>
<polygon fill="black" stroke="black" points="1226.74,-1427.86 1223.24,-1417.86 1219.74,-1427.86 1226.74,-1427.86"/>
</g>
<!-- BB9&#45;&gt;BB36 -->
<g id="edge21" class="edge">
<title>BB9&#45;&gt;BB36</title>
<path fill="none" stroke="black" d="M623.13,-1467.35C636.26,-1462.18 650,-1457.39 663.24,-1453.83 784.39,-1421.22 819.13,-1436.24 943.24,-1417.83 1000.96,-1409.27 1065.16,-1398.56 1117.52,-1389.52"/>
<polygon fill="black" stroke="black" points="1118.23,-1392.95 1127.49,-1387.79 1117.04,-1386.05 1118.23,-1392.95"/>
</g>
<!-- BB10&#45;&gt;BB36 -->
<g id="edge22" class="edge">
<title>BB10&#45;&gt;BB36</title>
<path fill="none" stroke="black" d="M848.72,-1468.11C861.44,-1462.99 874.62,-1458.01 887.24,-1453.83 963.73,-1428.47 1052.3,-1406.88 1119.29,-1392.07"/>
<polygon fill="black" stroke="black" points="1120.41,-1395.4 1129.43,-1389.84 1118.91,-1388.57 1120.41,-1395.4"/>
</g>
<!-- BB12 -->
<g id="node13" class="node">
<title>BB12</title>
<ellipse fill="none" stroke="black" cx="1512.24" cy="-1369.75" rx="103.48" ry="48.17"/>
<text text-anchor="middle" x="1512.24" y="-1388.55" font-family="Times New Roman,serif" font-size="14.00">[135..142)</text>
<text text-anchor="middle" x="1512.24" y="-1373.55" font-family="Times New Roman,serif" font-size="14.00">Count: 0</text>
<text text-anchor="middle" x="1512.24" y="-1358.55" font-family="Times New Roman,serif" font-size="14.00">Normalized count: 0.00</text>
<text text-anchor="middle" x="1512.24" y="-1343.55" font-family="Times New Roman,serif" font-size="14.00">Samples weight: 0.00</text>
</g>
<!-- BB11&#45;&gt;BB12 -->
<g id="edge24" class="edge">
<title>BB11&#45;&gt;BB12</title>
<path fill="none" stroke="black" d="M2046.62,-1467.53C2033.69,-1462.41 2020.2,-1457.59 2007.24,-1453.83 1936.62,-1433.36 1744,-1403.78 1620.92,-1385.99"/>
<polygon fill="black" stroke="black" points="1621.1,-1382.48 1610.71,-1384.52 1620.11,-1389.41 1621.1,-1382.48"/>
</g>
<!-- BB15 -->
<g id="node16" class="node">
<title>BB15</title>
<ellipse fill="none" stroke="black" cx="1960.24" cy="-1369.75" rx="103.48" ry="48.17"/>
<text text-anchor="middle" x="1960.24" y="-1388.55" font-family="Times New Roman,serif" font-size="14.00">[159..166)</text>
<text text-anchor="middle" x="1960.24" y="-1373.55" font-family="Times New Roman,serif" font-size="14.00">Count: 49</text>
<text text-anchor="middle" x="1960.24" y="-1358.55" font-family="Times New Roman,serif" font-size="14.00">Normalized count: 2.72</text>
<text text-anchor="middle" x="1960.24" y="-1343.55" font-family="Times New Roman,serif" font-size="14.00">Samples weight: 0.00</text>
</g>
<!-- BB11&#45;&gt;BB15 -->
<g id="edge23" class="edge">
<title>BB11&#45;&gt;BB15</title>
<path fill="none" stroke="black" d="M2068.93,-1459.73C2052.9,-1446.61 2035.03,-1431.98 2018.49,-1418.44"/>
<polygon fill="black" stroke="black" points="2020.45,-1415.52 2010.49,-1411.89 2016.01,-1420.93 2020.45,-1415.52"/>
</g>
<!-- BB13 -->
<g id="node14" class="node">
<title>BB13</title>
<ellipse fill="none" stroke="black" cx="1288.24" cy="-1237.58" rx="103.48" ry="48.17"/>
<text text-anchor="middle" x="1288.24" y="-1256.38" font-family="Times New Roman,serif" font-size="14.00">[142..14d)</text>
<text text-anchor="middle" x="1288.24" y="-1241.38" font-family="Times New Roman,serif" font-size="14.00">Count: 0</text>
<text text-anchor="middle" x="1288.24" y="-1226.38" font-family="Times New Roman,serif" font-size="14.00">Normalized count: 0.00</text>
<text text-anchor="middle" x="1288.24" y="-1211.38" font-family="Times New Roman,serif" font-size="14.00">Samples weight: 0.00</text>
</g>
<!-- BB12&#45;&gt;BB13 -->
<g id="edge26" class="edge">
<title>BB12&#45;&gt;BB13</title>
<path fill="none" stroke="black" d="M1448.65,-1331.8C1421.22,-1315.86 1388.99,-1297.13 1360.65,-1280.66"/>
<polygon fill="black" stroke="black" points="1362.39,-1277.62 1351.99,-1275.63 1358.87,-1283.68 1362.39,-1277.62"/>
</g>
<!-- BB14 -->
<g id="node15" class="node">
<title>BB14</title>
<ellipse fill="none" stroke="black" cx="1512.24" cy="-1237.58" rx="103.48" ry="48.17"/>
<text text-anchor="middle" x="1512.24" y="-1256.38" font-family="Times New Roman,serif" font-size="14.00">[14d..159)</text>
<text text-anchor="middle" x="1512.24" y="-1241.38" font-family="Times New Roman,serif" font-size="14.00">Count: 0</text>
<text text-anchor="middle" x="1512.24" y="-1226.38" font-family="Times New Roman,serif" font-size="14.00">Normalized count: 0.00</text>
<text text-anchor="middle" x="1512.24" y="-1211.38" font-family="Times New Roman,serif" font-size="14.00">Samples weight: 0.00</text>
</g>
<!-- BB12&#45;&gt;BB14 -->
<g id="edge25" class="edge">
<title>BB12&#45;&gt;BB14</title>
<path fill="none" stroke="black" d="M1512.24,-1321.39C1512.24,-1313.12 1512.24,-1304.44 1512.24,-1295.93"/>
<polygon fill="black" stroke="black" points="1515.74,-1295.69 1512.24,-1285.69 1508.74,-1295.69 1515.74,-1295.69"/>
</g>
<!-- BB13&#45;&gt;BB36 -->
<g id="edge27" class="edge">
<title>BB13&#45;&gt;BB36</title>
<path fill="none" stroke="black" d="M1265.31,-1284.5C1260.6,-1293.93 1255.6,-1303.95 1250.74,-1313.66"/>
<polygon fill="black" stroke="black" points="1247.49,-1312.35 1246.15,-1322.86 1253.75,-1315.47 1247.49,-1312.35"/>
</g>
<!-- BB14&#45;&gt;BB36 -->
<g id="edge28" class="edge">
<title>BB14&#45;&gt;BB36</title>
<path fill="none" stroke="black" d="M1439.02,-1271.56C1398.45,-1289.83 1347.89,-1312.61 1305.91,-1331.51"/>
<polygon fill="black" stroke="black" points="1304.22,-1328.44 1296.54,-1335.73 1307.09,-1334.82 1304.22,-1328.44"/>
</g>
<!-- BB16 -->
<g id="node17" class="node">
<title>BB16</title>
<ellipse fill="none" stroke="black" cx="1736.24" cy="-1237.58" rx="103.48" ry="48.17"/>
<text text-anchor="middle" x="1736.24" y="-1256.38" font-family="Times New Roman,serif" font-size="14.00">[166..172)</text>
<text text-anchor="middle" x="1736.24" y="-1241.38" font-family="Times New Roman,serif" font-size="14.00">Count: 0</text>
<text text-anchor="middle" x="1736.24" y="-1226.38" font-family="Times New Roman,serif" font-size="14.00">Normalized count: 0.00</text>
<text text-anchor="middle" x="1736.24" y="-1211.38" font-family="Times New Roman,serif" font-size="14.00">Samples weight: 0.00</text>
</g>
<!-- BB15&#45;&gt;BB16 -->
<g id="edge30" class="edge">
<title>BB15&#45;&gt;BB16</title>
<path fill="none" stroke="black" d="M1896.65,-1331.8C1869.22,-1315.86 1836.99,-1297.13 1808.65,-1280.66"/>
<polygon fill="black" stroke="black" points="1810.39,-1277.62 1799.99,-1275.63 1806.87,-1283.68 1810.39,-1277.62"/>
</g>
<!-- BB17 -->
<g id="node18" class="node">
<title>BB17</title>
<ellipse fill="none" stroke="black" cx="1960.24" cy="-1237.58" rx="103.48" ry="48.17"/>
<text text-anchor="middle" x="1960.24" y="-1256.38" font-family="Times New Roman,serif" font-size="14.00">[172..1b0)</text>
<text text-anchor="middle" x="1960.24" y="-1241.38" font-family="Times New Roman,serif" font-size="14.00">Count: 33</text>
<text text-anchor="middle" x="1960.24" y="-1226.38" font-family="Times New Roman,serif" font-size="14.00">Normalized count: 1.83</text>
<text text-anchor="middle" x="1960.24" y="-1211.38" font-family="Times New Roman,serif" font-size="14.00">Samples weight: 0.00</text>
</g>
<!-- BB15&#45;&gt;BB17 -->
<g id="edge29" class="edge">
<title>BB15&#45;&gt;BB17</title>
<path fill="none" stroke="black" d="M1960.24,-1321.39C1960.24,-1313.12 1960.24,-1304.44 1960.24,-1295.93"/>
<polygon fill="black" stroke="black" points="1963.74,-1295.69 1960.24,-1285.69 1956.74,-1295.69 1963.74,-1295.69"/>
</g>
<!-- BB16&#45;&gt;BB36 -->
<g id="edge31" class="edge">
<title>BB16&#45;&gt;BB36</title>
<path fill="none" stroke="black" d="M1663.94,-1271.92C1650.92,-1277.08 1637.32,-1281.92 1624.24,-1285.67 1527.29,-1313.4 1498.86,-1300.68 1400.24,-1321.67 1374.04,-1327.24 1345.92,-1334.24 1319.97,-1341.13"/>
<polygon fill="black" stroke="black" points="1318.9,-1337.8 1310.15,-1343.76 1320.71,-1344.56 1318.9,-1337.8"/>
</g>
<!-- BB19 -->
<g id="node20" class="node">
<title>BB19</title>
<ellipse fill="none" stroke="black" cx="1949.24" cy="-1105.42" rx="103.48" ry="48.17"/>
<text text-anchor="middle" x="1949.24" y="-1124.22" font-family="Times New Roman,serif" font-size="14.00">[1c1..1c5)</text>
<text text-anchor="middle" x="1949.24" y="-1109.22" font-family="Times New Roman,serif" font-size="14.00">Count: 174</text>
<text text-anchor="middle" x="1949.24" y="-1094.22" font-family="Times New Roman,serif" font-size="14.00">Normalized count: 9.67</text>
<text text-anchor="middle" x="1949.24" y="-1079.22" font-family="Times New Roman,serif" font-size="14.00">Samples weight: 0.00</text>
</g>
<!-- BB17&#45;&gt;BB19 -->
<g id="edge32" class="edge">
<title>BB17&#45;&gt;BB19</title>
<path fill="none" stroke="black" d="M1956.24,-1189.22C1955.54,-1180.95 1954.8,-1172.27 1954.08,-1163.77"/>
<polygon fill="black" stroke="black" points="1957.55,-1163.19 1953.22,-1153.52 1950.57,-1163.78 1957.55,-1163.19"/>
</g>
<!-- BB18 -->
<g id="node19" class="node">
<title>BB18</title>
<ellipse fill="none" stroke="black" cx="1949.24" cy="-973.25" rx="103.48" ry="48.17"/>
<text text-anchor="middle" x="1949.24" y="-992.05" font-family="Times New Roman,serif" font-size="14.00">[1b0..1c1)</text>
<text text-anchor="middle" x="1949.24" y="-977.05" font-family="Times New Roman,serif" font-size="14.00">Count: 139</text>
<text text-anchor="middle" x="1949.24" y="-962.05" font-family="Times New Roman,serif" font-size="14.00">Normalized count: 7.72</text>
<text text-anchor="middle" x="1949.24" y="-947.05" font-family="Times New Roman,serif" font-size="14.00">Samples weight: 0.00</text>
</g>
<!-- BB18&#45;&gt;BB19 -->
<g id="edge33" class="edge">
<title>BB18&#45;&gt;BB19</title>
<path fill="none" stroke="black" d="M1955.76,-1021.61C1955.98,-1029.91 1956.04,-1038.62 1955.94,-1047.15"/>
<polygon fill="black" stroke="black" points="1952.44,-1047.36 1955.75,-1057.42 1959.44,-1047.49 1952.44,-1047.36"/>
</g>
<!-- BB19&#45;&gt;BB18 -->
<g id="edge34" class="edge">
<title>BB19&#45;&gt;BB18</title>
<path fill="none" stroke="black" d="M1942.72,-1057.42C1942.5,-1049.05 1942.43,-1040.24 1942.53,-1031.61"/>
<polygon fill="black" stroke="black" points="1946.03,-1031.67 1942.72,-1021.61 1939.03,-1031.54 1946.03,-1031.67"/>
</g>
<!-- BB20 -->
<g id="node21" class="node">
<title>BB20</title>
<ellipse fill="none" stroke="black" cx="1714.24" cy="-973.25" rx="103.48" ry="48.17"/>
<text text-anchor="middle" x="1714.24" y="-992.05" font-family="Times New Roman,serif" font-size="14.00">[1c5..1ca)</text>
<text text-anchor="middle" x="1714.24" y="-977.05" font-family="Times New Roman,serif" font-size="14.00">Count: 0</text>
<text text-anchor="middle" x="1714.24" y="-962.05" font-family="Times New Roman,serif" font-size="14.00">Normalized count: 0.00</text>
<text text-anchor="middle" x="1714.24" y="-947.05" font-family="Times New Roman,serif" font-size="14.00">Samples weight: 0.00</text>
</g>
<!-- BB19&#45;&gt;BB20 -->
<g id="edge35" class="edge">
<title>BB19&#45;&gt;BB20</title>
<path fill="none" stroke="black" d="M1883.78,-1068.16C1854.23,-1051.79 1819.19,-1032.38 1788.66,-1015.47"/>
<polygon fill="black" stroke="black" points="1790.2,-1012.32 1779.75,-1010.54 1786.81,-1018.45 1790.2,-1012.32"/>
</g>
<!-- BB33 -->
<g id="node34" class="node">
<title>BB33</title>
<ellipse fill="none" stroke="black" cx="1692.24" cy="-841.08" rx="113.27" ry="48.17"/>
<text text-anchor="middle" x="1692.24" y="-859.88" font-family="Times New Roman,serif" font-size="14.00">[254..267)</text>
<text text-anchor="middle" x="1692.24" y="-844.88" font-family="Times New Roman,serif" font-size="14.00">Count: 3126</text>
<text text-anchor="middle" x="1692.24" y="-829.88" font-family="Times New Roman,serif" font-size="14.00">Normalized count: 173.67</text>
<text text-anchor="middle" x="1692.24" y="-814.88" font-family="Times New Roman,serif" font-size="14.00">Samples weight: 0.08</text>
</g>
<!-- BB20&#45;&gt;BB33 -->
<g id="edge36" class="edge">
<title>BB20&#45;&gt;BB33</title>
<path fill="none" stroke="black" d="M1706.3,-925.26C1704.88,-916.88 1703.39,-908.07 1701.93,-899.45"/>
<polygon fill="black" stroke="black" points="1705.36,-898.72 1700.24,-889.44 1698.46,-899.89 1705.36,-898.72"/>
</g>
<!-- BB21 -->
<g id="node22" class="node">
<title>BB21</title>
<ellipse fill="none" stroke="black" cx="1649.24" cy="-708.92" rx="113.27" ry="48.17"/>
<text text-anchor="middle" x="1649.24" y="-727.72" font-family="Times New Roman,serif" font-size="14.00">[1ca..1e5)</text>
<text text-anchor="middle" x="1649.24" y="-712.72" font-family="Times New Roman,serif" font-size="14.00">Count: 9479</text>
<text text-anchor="middle" x="1649.24" y="-697.72" font-family="Times New Roman,serif" font-size="14.00">Normalized count: 526.61</text>
<text text-anchor="middle" x="1649.24" y="-682.72" font-family="Times New Roman,serif" font-size="14.00">Samples weight: 0.23</text>
</g>
<!-- BB22 -->
<g id="node23" class="node">
<title>BB22</title>
<ellipse fill="none" stroke="black" cx="1410.24" cy="-576.75" rx="113.27" ry="48.17"/>
<text text-anchor="middle" x="1410.24" y="-595.55" font-family="Times New Roman,serif" font-size="14.00">[1e5..1e9)</text>
<text text-anchor="middle" x="1410.24" y="-580.55" font-family="Times New Roman,serif" font-size="14.00">Count: 2819</text>
<text text-anchor="middle" x="1410.24" y="-565.55" font-family="Times New Roman,serif" font-size="14.00">Normalized count: 156.61</text>
<text text-anchor="middle" x="1410.24" y="-550.55" font-family="Times New Roman,serif" font-size="14.00">Samples weight: 0.07</text>
</g>
<!-- BB21&#45;&gt;BB22 -->
<g id="edge38" class="edge">
<title>BB21&#45;&gt;BB22</title>
<path fill="none" stroke="black" d="M1580.75,-670.62C1551.75,-654.82 1517.81,-636.34 1487.88,-620.04"/>
<polygon fill="black" stroke="black" points="1489.19,-616.76 1478.74,-615.06 1485.84,-622.91 1489.19,-616.76"/>
</g>
<!-- BB28 -->
<g id="node29" class="node">
<title>BB28</title>
<ellipse fill="none" stroke="black" cx="1649.24" cy="-576.75" rx="108.38" ry="48.17"/>
<text text-anchor="middle" x="1649.24" y="-595.55" font-family="Times New Roman,serif" font-size="14.00">[20f..215)</text>
<text text-anchor="middle" x="1649.24" y="-580.55" font-family="Times New Roman,serif" font-size="14.00">Count: 836</text>
<text text-anchor="middle" x="1649.24" y="-565.55" font-family="Times New Roman,serif" font-size="14.00">Normalized count: 46.44</text>
<text text-anchor="middle" x="1649.24" y="-550.55" font-family="Times New Roman,serif" font-size="14.00">Samples weight: 0.02</text>
</g>
<!-- BB21&#45;&gt;BB28 -->
<g id="edge37" class="edge">
<title>BB21&#45;&gt;BB28</title>
<path fill="none" stroke="black" d="M1649.24,-660.55C1649.24,-652.29 1649.24,-643.6 1649.24,-635.1"/>
<polygon fill="black" stroke="black" points="1652.74,-634.86 1649.24,-624.86 1645.74,-634.86 1652.74,-634.86"/>
</g>
<!-- BB27 -->
<g id="node28" class="node">
<title>BB27</title>
<ellipse fill="none" stroke="black" cx="1410.24" cy="-444.58" rx="113.27" ry="48.17"/>
<text text-anchor="middle" x="1410.24" y="-463.38" font-family="Times New Roman,serif" font-size="14.00">[20b..20f)</text>
<text text-anchor="middle" x="1410.24" y="-448.38" font-family="Times New Roman,serif" font-size="14.00">Count: 2845</text>
<text text-anchor="middle" x="1410.24" y="-433.38" font-family="Times New Roman,serif" font-size="14.00">Normalized count: 158.06</text>
<text text-anchor="middle" x="1410.24" y="-418.38" font-family="Times New Roman,serif" font-size="14.00">Samples weight: 0.07</text>
</g>
<!-- BB22&#45;&gt;BB27 -->
<g id="edge39" class="edge">
<title>BB22&#45;&gt;BB27</title>
<path fill="none" stroke="black" d="M1410.24,-528.39C1410.24,-520.12 1410.24,-511.44 1410.24,-502.93"/>
<polygon fill="black" stroke="black" points="1413.74,-502.69 1410.24,-492.69 1406.74,-502.69 1413.74,-502.69"/>
</g>
<!-- BB23 -->
<g id="node24" class="node">
<title>BB23</title>
<ellipse fill="none" stroke="black" cx="1410.24" cy="-312.42" rx="113.27" ry="48.17"/>
<text text-anchor="middle" x="1410.24" y="-331.22" font-family="Times New Roman,serif" font-size="14.00">[1e9..1f6)</text>
<text text-anchor="middle" x="1410.24" y="-316.22" font-family="Times New Roman,serif" font-size="14.00">Count: 2844</text>
<text text-anchor="middle" x="1410.24" y="-301.22" font-family="Times New Roman,serif" font-size="14.00">Normalized count: 158.00</text>
<text text-anchor="middle" x="1410.24" y="-286.22" font-family="Times New Roman,serif" font-size="14.00">Samples weight: 0.07</text>
</g>
<!-- BB24 -->
<g id="node25" class="node">
<title>BB24</title>
<ellipse fill="none" stroke="black" cx="1410.24" cy="-180.25" rx="113.27" ry="48.17"/>
<text text-anchor="middle" x="1410.24" y="-199.05" font-family="Times New Roman,serif" font-size="14.00">[1f6..1fa)</text>
<text text-anchor="middle" x="1410.24" y="-184.05" font-family="Times New Roman,serif" font-size="14.00">Count: 2490</text>
<text text-anchor="middle" x="1410.24" y="-169.05" font-family="Times New Roman,serif" font-size="14.00">Normalized count: 138.33</text>
<text text-anchor="middle" x="1410.24" y="-154.05" font-family="Times New Roman,serif" font-size="14.00">Samples weight: 0.06</text>
</g>
<!-- BB23&#45;&gt;BB24 -->
<g id="edge41" class="edge">
<title>BB23&#45;&gt;BB24</title>
<path fill="none" stroke="black" d="M1410.24,-264.05C1410.24,-255.79 1410.24,-247.1 1410.24,-238.6"/>
<polygon fill="black" stroke="black" points="1413.74,-238.36 1410.24,-228.36 1406.74,-238.36 1413.74,-238.36"/>
</g>
<!-- BB25 -->
<g id="node26" class="node">
<title>BB25</title>
<ellipse fill="none" stroke="black" cx="1649.24" cy="-180.25" rx="108.38" ry="48.17"/>
<text text-anchor="middle" x="1649.24" y="-199.05" font-family="Times New Roman,serif" font-size="14.00">[1fa..207)</text>
<text text-anchor="middle" x="1649.24" y="-184.05" font-family="Times New Roman,serif" font-size="14.00">Count: 380</text>
<text text-anchor="middle" x="1649.24" y="-169.05" font-family="Times New Roman,serif" font-size="14.00">Normalized count: 21.11</text>
<text text-anchor="middle" x="1649.24" y="-154.05" font-family="Times New Roman,serif" font-size="14.00">Samples weight: 0.01</text>
</g>
<!-- BB23&#45;&gt;BB25 -->
<g id="edge40" class="edge">
<title>BB23&#45;&gt;BB25</title>
<path fill="none" stroke="black" d="M1478.73,-274.12C1508.1,-258.12 1542.54,-239.36 1572.75,-222.91"/>
<polygon fill="black" stroke="black" points="1574.46,-225.96 1581.57,-218.11 1571.11,-219.81 1574.46,-225.96"/>
</g>
<!-- BB32 -->
<g id="node33" class="node">
<title>BB32</title>
<ellipse fill="none" stroke="black" cx="1931.24" cy="-180.25" rx="113.27" ry="48.17"/>
<text text-anchor="middle" x="1931.24" y="-199.05" font-family="Times New Roman,serif" font-size="14.00">[238..254)</text>
<text text-anchor="middle" x="1931.24" y="-184.05" font-family="Times New Roman,serif" font-size="14.00">Count: 6225</text>
<text text-anchor="middle" x="1931.24" y="-169.05" font-family="Times New Roman,serif" font-size="14.00">Normalized count: 345.83</text>
<text text-anchor="middle" x="1931.24" y="-154.05" font-family="Times New Roman,serif" font-size="14.00">Samples weight: 0.15</text>
</g>
<!-- BB24&#45;&gt;BB32 -->
<g id="edge42" class="edge">
<title>BB24&#45;&gt;BB32</title>
<path fill="none" stroke="black" d="M1474.24,-220.01C1494.85,-230.74 1518.32,-240.88 1541.24,-246.33 1634.63,-268.56 1662.81,-263.66 1757.24,-246.33 1786.81,-240.91 1817.86,-230.7 1845.42,-219.9"/>
<polygon fill="black" stroke="black" points="1847.03,-223.02 1855.01,-216.06 1844.43,-216.53 1847.03,-223.02"/>
</g>
<!-- BB26 -->
<g id="node27" class="node">
<title>BB26</title>
<ellipse fill="none" stroke="black" cx="1459.24" cy="-48.08" rx="103.48" ry="48.17"/>
<text text-anchor="middle" x="1459.24" y="-66.88" font-family="Times New Roman,serif" font-size="14.00">[207..20b)</text>
<text text-anchor="middle" x="1459.24" y="-51.88" font-family="Times New Roman,serif" font-size="14.00">Count: 0</text>
<text text-anchor="middle" x="1459.24" y="-36.88" font-family="Times New Roman,serif" font-size="14.00">Normalized count: 0.00</text>
<text text-anchor="middle" x="1459.24" y="-21.88" font-family="Times New Roman,serif" font-size="14.00">Samples weight: 0.00</text>
</g>
<!-- BB25&#45;&gt;BB26 -->
<g id="edge44" class="edge">
<title>BB25&#45;&gt;BB26</title>
<path fill="none" stroke="black" d="M1591.2,-139.49C1570.29,-125.17 1546.56,-108.9 1525.04,-94.16"/>
<polygon fill="black" stroke="black" points="1526.82,-91.14 1516.59,-88.38 1522.87,-96.92 1526.82,-91.14"/>
</g>
<!-- BB25&#45;&gt;BB28 -->
<g id="edge43" class="edge">
<title>BB25&#45;&gt;BB28</title>
<path fill="none" stroke="black" d="M1598.16,-222.78C1586.83,-234.87 1576.37,-248.99 1570.24,-264.33 1532.59,-358.57 1532.59,-398.43 1570.24,-492.67 1575.12,-504.89 1582.76,-516.34 1591.39,-526.61"/>
<polygon fill="black" stroke="black" points="1588.9,-529.08 1598.16,-534.22 1594.13,-524.42 1588.9,-529.08"/>
</g>
<!-- BB26&#45;&gt;BB27 -->
<g id="edge45" class="edge">
<title>BB26&#45;&gt;BB27</title>
<path fill="none" stroke="black" d="M1368.78,-71.58C1337.78,-84.09 1306.36,-103.21 1288.24,-132.17 1234.4,-218.19 1240.79,-270.79 1288.24,-360.5 1297.03,-377.13 1310.81,-391.05 1326,-402.45"/>
<polygon fill="black" stroke="black" points="1324.38,-405.6 1334.56,-408.53 1328.43,-399.89 1324.38,-405.6"/>
</g>
<!-- BB27&#45;&gt;BB23 -->
<g id="edge46" class="edge">
<title>BB27&#45;&gt;BB23</title>
<path fill="none" stroke="black" d="M1410.24,-396.22C1410.24,-387.95 1410.24,-379.27 1410.24,-370.77"/>
<polygon fill="black" stroke="black" points="1413.74,-370.52 1410.24,-360.52 1406.74,-370.52 1413.74,-370.52"/>
</g>
<!-- BB27&#45;&gt;BB28 -->
<g id="edge47" class="edge">
<title>BB27&#45;&gt;BB28</title>
<path fill="none" stroke="black" d="M1478.84,-482.95C1508.24,-498.96 1542.69,-517.72 1572.9,-534.17"/>
<polygon fill="black" stroke="black" points="1571.25,-537.26 1581.71,-538.97 1574.6,-531.11 1571.25,-537.26"/>
</g>
<!-- BB30 -->
<g id="node31" class="node">
<title>BB30</title>
<ellipse fill="none" stroke="black" cx="1692.24" cy="-444.58" rx="113.27" ry="48.17"/>
<text text-anchor="middle" x="1692.24" y="-463.38" font-family="Times New Roman,serif" font-size="14.00">[232..236)</text>
<text text-anchor="middle" x="1692.24" y="-448.38" font-family="Times New Roman,serif" font-size="14.00">Count: 4527</text>
<text text-anchor="middle" x="1692.24" y="-433.38" font-family="Times New Roman,serif" font-size="14.00">Normalized count: 251.50</text>
<text text-anchor="middle" x="1692.24" y="-418.38" font-family="Times New Roman,serif" font-size="14.00">Samples weight: 0.11</text>
</g>
<!-- BB28&#45;&gt;BB30 -->
<g id="edge48" class="edge">
<title>BB28&#45;&gt;BB30</title>
<path fill="none" stroke="black" d="M1664.64,-529.12C1667.54,-520.34 1670.61,-511.06 1673.6,-502.02"/>
<polygon fill="black" stroke="black" points="1676.98,-502.91 1676.8,-492.32 1670.34,-500.72 1676.98,-502.91"/>
</g>
<!-- BB29 -->
<g id="node30" class="node">
<title>BB29</title>
<ellipse fill="none" stroke="black" cx="1692.24" cy="-312.42" rx="113.27" ry="48.17"/>
<text text-anchor="middle" x="1692.24" y="-331.22" font-family="Times New Roman,serif" font-size="14.00">[215..232)</text>
<text text-anchor="middle" x="1692.24" y="-316.22" font-family="Times New Roman,serif" font-size="14.00">Count: 4666</text>
<text text-anchor="middle" x="1692.24" y="-301.22" font-family="Times New Roman,serif" font-size="14.00">Normalized count: 259.22</text>
<text text-anchor="middle" x="1692.24" y="-286.22" font-family="Times New Roman,serif" font-size="14.00">Samples weight: 0.11</text>
</g>
<!-- BB29&#45;&gt;BB30 -->
<g id="edge49" class="edge">
<title>BB29&#45;&gt;BB30</title>
<path fill="none" stroke="black" d="M1698.75,-360.52C1698.97,-368.78 1699.04,-377.46 1698.95,-385.97"/>
<polygon fill="black" stroke="black" points="1695.44,-386.16 1698.76,-396.22 1702.44,-386.29 1695.44,-386.16"/>
</g>
<!-- BB30&#45;&gt;BB29 -->
<g id="edge50" class="edge">
<title>BB30&#45;&gt;BB29</title>
<path fill="none" stroke="black" d="M1685.72,-396.22C1685.5,-387.95 1685.44,-379.27 1685.53,-370.77"/>
<polygon fill="black" stroke="black" points="1689.03,-370.59 1685.72,-360.52 1682.04,-370.46 1689.03,-370.59"/>
</g>
<!-- BB31 -->
<g id="node32" class="node">
<title>BB31</title>
<ellipse fill="none" stroke="black" cx="1931.24" cy="-312.42" rx="108.38" ry="48.17"/>
<text text-anchor="middle" x="1931.24" y="-331.22" font-family="Times New Roman,serif" font-size="14.00">[236..238)</text>
<text text-anchor="middle" x="1931.24" y="-316.22" font-family="Times New Roman,serif" font-size="14.00">Count: 880</text>
<text text-anchor="middle" x="1931.24" y="-301.22" font-family="Times New Roman,serif" font-size="14.00">Normalized count: 48.89</text>
<text text-anchor="middle" x="1931.24" y="-286.22" font-family="Times New Roman,serif" font-size="14.00">Samples weight: 0.02</text>
</g>
<!-- BB30&#45;&gt;BB31 -->
<g id="edge51" class="edge">
<title>BB30&#45;&gt;BB31</title>
<path fill="none" stroke="black" d="M1760.73,-406.28C1790.1,-390.28 1824.54,-371.52 1854.75,-355.07"/>
<polygon fill="black" stroke="black" points="1856.46,-358.13 1863.57,-350.27 1853.11,-351.98 1856.46,-358.13"/>
</g>
<!-- BB31&#45;&gt;BB32 -->
<g id="edge52" class="edge">
<title>BB31&#45;&gt;BB32</title>
<path fill="none" stroke="black" d="M1931.24,-264.05C1931.24,-255.79 1931.24,-247.1 1931.24,-238.6"/>
<polygon fill="black" stroke="black" points="1934.74,-238.36 1931.24,-228.36 1927.74,-238.36 1934.74,-238.36"/>
</g>
<!-- BB32&#45;&gt;BB33 -->
<g id="edge53" class="edge">
<title>BB32&#45;&gt;BB33</title>
<path fill="none" stroke="black" d="M2002.57,-217.61C2020.27,-230.04 2037.29,-245.63 2048.24,-264.33 2088.7,-333.48 2067.24,-363.47 2067.24,-443.58 2067.24,-577.75 2067.24,-577.75 2067.24,-577.75 2067.24,-709.06 1910.96,-780.16 1800.18,-814.06"/>
<polygon fill="black" stroke="black" points="1798.85,-810.81 1790.27,-817.03 1800.86,-817.51 1798.85,-810.81"/>
</g>
<!-- BB33&#45;&gt;BB21 -->
<g id="edge54" class="edge">
<title>BB33&#45;&gt;BB21</title>
<path fill="none" stroke="black" d="M1676.71,-793.09C1673.85,-784.43 1670.84,-775.3 1667.89,-766.39"/>
<polygon fill="black" stroke="black" points="1671.2,-765.24 1664.74,-756.84 1664.55,-767.43 1671.2,-765.24"/>
</g>
<!-- BB34 -->
<g id="node35" class="node">
<title>BB34</title>
<ellipse fill="none" stroke="black" cx="1329.24" cy="-708.92" rx="103.48" ry="48.17"/>
<text text-anchor="middle" x="1329.24" y="-727.72" font-family="Times New Roman,serif" font-size="14.00">[267..269)</text>
<text text-anchor="middle" x="1329.24" y="-712.72" font-family="Times New Roman,serif" font-size="14.00">Count: 0</text>
<text text-anchor="middle" x="1329.24" y="-697.72" font-family="Times New Roman,serif" font-size="14.00">Normalized count: 0.00</text>
<text text-anchor="middle" x="1329.24" y="-682.72" font-family="Times New Roman,serif" font-size="14.00">Samples weight: 0.00</text>
</g>
<!-- BB33&#45;&gt;BB34 -->
<g id="edge55" class="edge">
<title>BB33&#45;&gt;BB34</title>
<path fill="none" stroke="black" d="M1606.67,-809.4C1550.5,-789.26 1477.12,-762.94 1419.94,-742.44"/>
<polygon fill="black" stroke="black" points="1420.78,-739.02 1410.18,-738.94 1418.41,-745.61 1420.78,-739.02"/>
</g>
<!-- BB34&#45;&gt;BB36 -->
<g id="edge56" class="edge">
<title>BB34&#45;&gt;BB36</title>
<path fill="none" stroke="black" d="M1279.95,-751.3C1229.12,-798.88 1157.24,-882.12 1157.24,-972.25 1157.24,-1106.42 1157.24,-1106.42 1157.24,-1106.42 1157.24,-1186.53 1151.78,-1209.38 1176.24,-1285.67 1179.38,-1295.47 1183.77,-1305.41 1188.61,-1314.85"/>
<polygon fill="black" stroke="black" points="1185.55,-1316.55 1193.36,-1323.71 1191.72,-1313.25 1185.55,-1316.55"/>
</g>
<!-- BB35&#45;&gt;BB36 -->
<g id="edge57" class="edge">
<title>BB35&#45;&gt;BB36</title>
<path fill="none" stroke="black" d="M1062.83,-1463.96C1090.26,-1448.02 1122.48,-1429.3 1150.83,-1412.83"/>
<polygon fill="black" stroke="black" points="1152.6,-1415.84 1159.49,-1407.79 1149.08,-1409.79 1152.6,-1415.84"/>
</g>
</g>
</svg>
