<?xml version="1.0" encoding="UTF-8" standalone="no"?>
<!DOCTYPE svg PUBLIC "-//W3C//DTD SVG 1.1//EN"
 "http://www.w3.org/Graphics/SVG/1.1/DTD/svg11.dtd">
<!-- Generated by graphviz version 2.47.0 (20210316.0004)
 -->
<!-- Title: G Pages: 1 -->
<svg width="2310pt" height="1414pt"
 viewBox="0.00 0.00 2309.55 1414.39" xmlns="http://www.w3.org/2000/svg" xmlns:xlink="http://www.w3.org/1999/xlink">
<g id="graph0" class="graph" transform="scale(1 1) rotate(0) translate(4 1410.39)">
<title>G</title>
<polygon fill="white" stroke="transparent" points="-4,4 -4,-1410.39 2305.55,-1410.39 2305.55,4 -4,4"/>
<!-- BB0 -->
<g id="node1" class="node">
<title>BB0</title>
<ellipse fill="none" stroke="black" cx="1150.77" cy="-1368.92" rx="106.55" ry="37.45"/>
<text text-anchor="middle" x="1150.77" y="-1380.22" font-family="Times New Roman,serif" font-size="14.00">[0..87)</text>
<text text-anchor="middle" x="1150.77" y="-1365.22" font-family="Times New Roman,serif" font-size="14.00">Normalized Count: NaN</text>
<text text-anchor="middle" x="1150.77" y="-1350.22" font-family="Times New Roman,serif" font-size="14.00">Samples weight: 0.00</text>
</g>
<!-- BB1 -->
<g id="node2" class="node">
<title>BB1</title>
<ellipse fill="none" stroke="black" cx="1730.77" cy="-1257.96" rx="106.55" ry="37.45"/>
<text text-anchor="middle" x="1730.77" y="-1269.26" font-family="Times New Roman,serif" font-size="14.00">[87..8c)</text>
<text text-anchor="middle" x="1730.77" y="-1254.26" font-family="Times New Roman,serif" font-size="14.00">Normalized Count: NaN</text>
<text text-anchor="middle" x="1730.77" y="-1239.26" font-family="Times New Roman,serif" font-size="14.00">Samples weight: 0.00</text>
</g>
<!-- BB0&#45;&gt;BB1 -->
<g id="edge1" class="edge">
<title>BB0&#45;&gt;BB1</title>
<path fill="none" stroke="black" d="M1251.62,-1356.59C1346.18,-1344.92 1491.12,-1324.37 1614.77,-1295.44 1624.74,-1293.11 1635.1,-1290.35 1645.34,-1287.41"/>
<polygon fill="black" stroke="black" points="1646.49,-1290.72 1655.1,-1284.55 1644.52,-1284 1646.49,-1290.72"/>
</g>
<!-- BB2 -->
<g id="node3" class="node">
<title>BB2</title>
<ellipse fill="none" stroke="black" cx="1962.77" cy="-1257.96" rx="106.55" ry="37.45"/>
<text text-anchor="middle" x="1962.77" y="-1269.26" font-family="Times New Roman,serif" font-size="14.00">[8c..97)</text>
<text text-anchor="middle" x="1962.77" y="-1254.26" font-family="Times New Roman,serif" font-size="14.00">Normalized Count: NaN</text>
<text text-anchor="middle" x="1962.77" y="-1239.26" font-family="Times New Roman,serif" font-size="14.00">Samples weight: 0.00</text>
</g>
<!-- BB0&#45;&gt;BB2 -->
<g id="edge2" class="edge">
<title>BB0&#45;&gt;BB2</title>
<path fill="none" stroke="black" d="M1256.73,-1363.5C1394.05,-1356.28 1640.37,-1338.18 1846.77,-1295.44 1857.14,-1293.29 1867.9,-1290.59 1878.49,-1287.62"/>
<polygon fill="black" stroke="black" points="1879.52,-1290.97 1888.16,-1284.84 1877.58,-1284.24 1879.52,-1290.97"/>
</g>
<!-- BB3 -->
<g id="node4" class="node">
<title>BB3</title>
<ellipse fill="none" stroke="black" cx="106.77" cy="-1257.96" rx="106.55" ry="37.45"/>
<text text-anchor="middle" x="106.77" y="-1269.26" font-family="Times New Roman,serif" font-size="14.00">[97..a4)</text>
<text text-anchor="middle" x="106.77" y="-1254.26" font-family="Times New Roman,serif" font-size="14.00">Normalized Count: NaN</text>
<text text-anchor="middle" x="106.77" y="-1239.26" font-family="Times New Roman,serif" font-size="14.00">Samples weight: 0.00</text>
</g>
<!-- BB0&#45;&gt;BB3 -->
<g id="edge3" class="edge">
<title>BB0&#45;&gt;BB3</title>
<path fill="none" stroke="black" d="M1043.95,-1367.4C870.21,-1364.82 516.28,-1352.28 222.77,-1295.44 212.3,-1293.41 201.44,-1290.76 190.76,-1287.82"/>
<polygon fill="black" stroke="black" points="191.59,-1284.41 181.01,-1285.04 189.67,-1291.15 191.59,-1284.41"/>
</g>
<!-- BB5 -->
<g id="node6" class="node">
<title>BB5</title>
<ellipse fill="none" stroke="black" cx="1498.77" cy="-1257.96" rx="106.55" ry="37.45"/>
<text text-anchor="middle" x="1498.77" y="-1269.26" font-family="Times New Roman,serif" font-size="14.00">[af..c8)</text>
<text text-anchor="middle" x="1498.77" y="-1254.26" font-family="Times New Roman,serif" font-size="14.00">Normalized Count: NaN</text>
<text text-anchor="middle" x="1498.77" y="-1239.26" font-family="Times New Roman,serif" font-size="14.00">Samples weight: 0.00</text>
</g>
<!-- BB0&#45;&gt;BB5 -->
<g id="edge4" class="edge">
<title>BB0&#45;&gt;BB5</title>
<path fill="none" stroke="black" d="M1229.18,-1343.46C1274.14,-1329.43 1331.64,-1311.47 1382.77,-1295.44 1391.82,-1292.6 1401.26,-1289.64 1410.68,-1286.68"/>
<polygon fill="black" stroke="black" points="1411.98,-1289.94 1420.47,-1283.61 1409.88,-1283.27 1411.98,-1289.94"/>
</g>
<!-- BB6 -->
<g id="node7" class="node">
<title>BB6</title>
<ellipse fill="none" stroke="black" cx="338.77" cy="-1257.96" rx="106.55" ry="37.45"/>
<text text-anchor="middle" x="338.77" y="-1269.26" font-family="Times New Roman,serif" font-size="14.00">[c8..d5)</text>
<text text-anchor="middle" x="338.77" y="-1254.26" font-family="Times New Roman,serif" font-size="14.00">Normalized Count: NaN</text>
<text text-anchor="middle" x="338.77" y="-1239.26" font-family="Times New Roman,serif" font-size="14.00">Samples weight: 0.00</text>
</g>
<!-- BB0&#45;&gt;BB6 -->
<g id="edge6" class="edge">
<title>BB0&#45;&gt;BB6</title>
<path fill="none" stroke="black" d="M1044.82,-1363.5C907.49,-1356.28 661.17,-1338.18 454.77,-1295.44 444.41,-1293.29 433.65,-1290.59 423.05,-1287.62"/>
<polygon fill="black" stroke="black" points="423.96,-1284.24 413.38,-1284.84 422.02,-1290.97 423.96,-1284.24"/>
</g>
<!-- BB8 -->
<g id="node9" class="node">
<title>BB8</title>
<ellipse fill="none" stroke="black" cx="1266.77" cy="-1257.96" rx="106.55" ry="37.45"/>
<text text-anchor="middle" x="1266.77" y="-1269.26" font-family="Times New Roman,serif" font-size="14.00">[e0..100)</text>
<text text-anchor="middle" x="1266.77" y="-1254.26" font-family="Times New Roman,serif" font-size="14.00">Normalized Count: NaN</text>
<text text-anchor="middle" x="1266.77" y="-1239.26" font-family="Times New Roman,serif" font-size="14.00">Samples weight: 0.00</text>
</g>
<!-- BB0&#45;&gt;BB8 -->
<g id="edge8" class="edge">
<title>BB0&#45;&gt;BB8</title>
<path fill="none" stroke="black" d="M1187.48,-1333.44C1198.69,-1322.91 1211.14,-1311.21 1222.79,-1300.27"/>
<polygon fill="black" stroke="black" points="1225.42,-1302.61 1230.31,-1293.21 1220.62,-1297.51 1225.42,-1302.61"/>
</g>
<!-- BB9 -->
<g id="node10" class="node">
<title>BB9</title>
<ellipse fill="none" stroke="black" cx="570.77" cy="-1257.96" rx="106.55" ry="37.45"/>
<text text-anchor="middle" x="570.77" y="-1269.26" font-family="Times New Roman,serif" font-size="14.00">[100..10c)</text>
<text text-anchor="middle" x="570.77" y="-1254.26" font-family="Times New Roman,serif" font-size="14.00">Normalized Count: NaN</text>
<text text-anchor="middle" x="570.77" y="-1239.26" font-family="Times New Roman,serif" font-size="14.00">Samples weight: 0.00</text>
</g>
<!-- BB0&#45;&gt;BB9 -->
<g id="edge9" class="edge">
<title>BB0&#45;&gt;BB9</title>
<path fill="none" stroke="black" d="M1049.92,-1356.59C955.36,-1344.92 810.42,-1324.37 686.77,-1295.44 676.8,-1293.11 666.45,-1290.35 656.21,-1287.41"/>
<polygon fill="black" stroke="black" points="657.03,-1284 646.45,-1284.55 655.06,-1290.72 657.03,-1284"/>
</g>
<!-- BB10 -->
<g id="node11" class="node">
<title>BB10</title>
<ellipse fill="none" stroke="black" cx="802.77" cy="-1257.96" rx="106.55" ry="37.45"/>
<text text-anchor="middle" x="802.77" y="-1269.26" font-family="Times New Roman,serif" font-size="14.00">[10c..118)</text>
<text text-anchor="middle" x="802.77" y="-1254.26" font-family="Times New Roman,serif" font-size="14.00">Normalized Count: NaN</text>
<text text-anchor="middle" x="802.77" y="-1239.26" font-family="Times New Roman,serif" font-size="14.00">Samples weight: 0.00</text>
</g>
<!-- BB0&#45;&gt;BB10 -->
<g id="edge5" class="edge">
<title>BB0&#45;&gt;BB10</title>
<path fill="none" stroke="black" d="M1072.37,-1343.46C1027.41,-1329.43 969.91,-1311.47 918.77,-1295.44 909.73,-1292.6 900.29,-1289.64 890.87,-1286.68"/>
<polygon fill="black" stroke="black" points="891.67,-1283.27 881.08,-1283.61 889.57,-1289.94 891.67,-1283.27"/>
</g>
<!-- BB11 -->
<g id="node12" class="node">
<title>BB11</title>
<ellipse fill="none" stroke="black" cx="2194.77" cy="-1257.96" rx="106.55" ry="37.45"/>
<text text-anchor="middle" x="2194.77" y="-1269.26" font-family="Times New Roman,serif" font-size="14.00">[118..135)</text>
<text text-anchor="middle" x="2194.77" y="-1254.26" font-family="Times New Roman,serif" font-size="14.00">Normalized Count: NaN</text>
<text text-anchor="middle" x="2194.77" y="-1239.26" font-family="Times New Roman,serif" font-size="14.00">Samples weight: 0.00</text>
</g>
<!-- BB0&#45;&gt;BB11 -->
<g id="edge7" class="edge">
<title>BB0&#45;&gt;BB11</title>
<path fill="none" stroke="black" d="M1257.59,-1367.4C1431.34,-1364.82 1785.26,-1352.28 2078.77,-1295.44 2089.25,-1293.41 2100.1,-1290.76 2110.79,-1287.82"/>
<polygon fill="black" stroke="black" points="2111.88,-1291.15 2120.53,-1285.04 2109.96,-1284.41 2111.88,-1291.15"/>
</g>
<!-- BB35 -->
<g id="node36" class="node">
<title>BB35</title>
<ellipse fill="none" stroke="black" cx="1034.77" cy="-1257.96" rx="106.55" ry="37.45"/>
<text text-anchor="middle" x="1034.77" y="-1269.26" font-family="Times New Roman,serif" font-size="14.00">[269..272)</text>
<text text-anchor="middle" x="1034.77" y="-1254.26" font-family="Times New Roman,serif" font-size="14.00">Normalized Count: NaN</text>
<text text-anchor="middle" x="1034.77" y="-1239.26" font-family="Times New Roman,serif" font-size="14.00">Samples weight: 0.00</text>
</g>
<!-- BB0&#45;&gt;BB35 -->
<g id="edge10" class="edge">
<title>BB0&#45;&gt;BB35</title>
<path fill="none" stroke="black" d="M1114.07,-1333.44C1102.85,-1322.91 1090.4,-1311.21 1078.76,-1300.27"/>
<polygon fill="black" stroke="black" points="1080.92,-1297.51 1071.24,-1293.21 1076.13,-1302.61 1080.92,-1297.51"/>
</g>
<!-- BB36 -->
<g id="node37" class="node">
<title>BB36</title>
<ellipse fill="none" stroke="black" cx="1266.77" cy="-1147.01" rx="106.55" ry="37.45"/>
<text text-anchor="middle" x="1266.77" y="-1158.31" font-family="Times New Roman,serif" font-size="14.00">[272..279)</text>
<text text-anchor="middle" x="1266.77" y="-1143.31" font-family="Times New Roman,serif" font-size="14.00">Normalized Count: NaN</text>
<text text-anchor="middle" x="1266.77" y="-1128.31" font-family="Times New Roman,serif" font-size="14.00">Samples weight: 0.00</text>
</g>
<!-- BB1&#45;&gt;BB36 -->
<g id="edge11" class="edge">
<title>BB1&#45;&gt;BB36</title>
<path fill="none" stroke="black" d="M1654.34,-1231.75C1641.2,-1227.75 1627.64,-1223.84 1614.77,-1220.49 1590.98,-1214.28 1461.96,-1187.72 1367.94,-1168.55"/>
<polygon fill="black" stroke="black" points="1368.59,-1165.11 1358.09,-1166.54 1367.19,-1171.97 1368.59,-1165.11"/>
</g>
<!-- BB2&#45;&gt;BB36 -->
<g id="edge12" class="edge">
<title>BB2&#45;&gt;BB36</title>
<path fill="none" stroke="black" d="M1888.51,-1231.03C1874.76,-1226.97 1860.44,-1223.22 1846.77,-1220.49 1673.05,-1185.71 1625.12,-1209.84 1449.77,-1184.49 1422.36,-1180.52 1392.84,-1175.14 1365.69,-1169.72"/>
<polygon fill="black" stroke="black" points="1366.3,-1166.28 1355.8,-1167.73 1364.91,-1173.14 1366.3,-1166.28"/>
</g>
<!-- BB4 -->
<g id="node5" class="node">
<title>BB4</title>
<ellipse fill="none" stroke="black" cx="280.77" cy="-1147.01" rx="106.55" ry="37.45"/>
<text text-anchor="middle" x="280.77" y="-1158.31" font-family="Times New Roman,serif" font-size="14.00">[a4..af)</text>
<text text-anchor="middle" x="280.77" y="-1143.31" font-family="Times New Roman,serif" font-size="14.00">Normalized Count: NaN</text>
<text text-anchor="middle" x="280.77" y="-1128.31" font-family="Times New Roman,serif" font-size="14.00">Samples weight: 0.00</text>
</g>
<!-- BB3&#45;&gt;BB4 -->
<g id="edge14" class="edge">
<title>BB3&#45;&gt;BB4</title>
<path fill="none" stroke="black" d="M158.04,-1224.86C177.77,-1212.5 200.48,-1198.29 220.95,-1185.47"/>
<polygon fill="black" stroke="black" points="222.96,-1188.34 229.57,-1180.07 219.24,-1182.41 222.96,-1188.34"/>
</g>
<!-- BB3&#45;&gt;BB5 -->
<g id="edge13" class="edge">
<title>BB3&#45;&gt;BB5</title>
<path fill="none" stroke="black" d="M164.52,-1289.61C185.12,-1299.26 208.89,-1308.59 231.77,-1313.44 293.84,-1326.59 1311.71,-1326.59 1373.77,-1313.44 1393.34,-1309.29 1413.58,-1301.86 1431.91,-1293.76"/>
<polygon fill="black" stroke="black" points="1433.38,-1296.94 1441.03,-1289.61 1430.48,-1290.57 1433.38,-1296.94"/>
</g>
<!-- BB4&#45;&gt;BB36 -->
<g id="edge15" class="edge">
<title>BB4&#45;&gt;BB36</title>
<path fill="none" stroke="black" d="M374.73,-1164.85C507.09,-1187.65 755.97,-1221.97 967.77,-1202.49 1035.24,-1196.28 1110.2,-1182.36 1168.19,-1170.01"/>
<polygon fill="black" stroke="black" points="1169.03,-1173.41 1178.08,-1167.89 1167.56,-1166.57 1169.03,-1173.41"/>
</g>
<!-- BB5&#45;&gt;BB36 -->
<g id="edge16" class="edge">
<title>BB5&#45;&gt;BB36</title>
<path fill="none" stroke="black" d="M1435.99,-1227.48C1405.94,-1213.37 1369.82,-1196.4 1338.67,-1181.78"/>
<polygon fill="black" stroke="black" points="1340.15,-1178.6 1329.61,-1177.52 1337.17,-1184.94 1340.15,-1178.6"/>
</g>
<!-- BB7 -->
<g id="node8" class="node">
<title>BB7</title>
<ellipse fill="none" stroke="black" cx="860.77" cy="-1147.01" rx="106.55" ry="37.45"/>
<text text-anchor="middle" x="860.77" y="-1158.31" font-family="Times New Roman,serif" font-size="14.00">[d5..e0)</text>
<text text-anchor="middle" x="860.77" y="-1143.31" font-family="Times New Roman,serif" font-size="14.00">Normalized Count: NaN</text>
<text text-anchor="middle" x="860.77" y="-1128.31" font-family="Times New Roman,serif" font-size="14.00">Samples weight: 0.00</text>
</g>
<!-- BB6&#45;&gt;BB7 -->
<g id="edge18" class="edge">
<title>BB6&#45;&gt;BB7</title>
<path fill="none" stroke="black" d="M414.82,-1231.53C428.06,-1227.54 441.75,-1223.68 454.77,-1220.49 554.57,-1196 670.07,-1176.19 752.3,-1163.51"/>
<polygon fill="black" stroke="black" points="753.06,-1166.93 762.41,-1161.96 752,-1160.01 753.06,-1166.93"/>
</g>
<!-- BB6&#45;&gt;BB8 -->
<g id="edge17" class="edge">
<title>BB6&#45;&gt;BB8</title>
<path fill="none" stroke="black" d="M396.52,-1289.61C417.12,-1299.26 440.89,-1308.59 463.77,-1313.44 537.47,-1329.06 1068.08,-1329.06 1141.77,-1313.44 1161.34,-1309.29 1181.58,-1301.86 1199.91,-1293.76"/>
<polygon fill="black" stroke="black" points="1201.38,-1296.94 1209.03,-1289.61 1198.48,-1290.57 1201.38,-1296.94"/>
</g>
<!-- BB7&#45;&gt;BB36 -->
<g id="edge19" class="edge">
<title>BB7&#45;&gt;BB36</title>
<path fill="none" stroke="black" d="M967.82,-1147.01C1028.48,-1147.01 1089.14,-1147.01 1149.79,-1147.01"/>
<polygon fill="black" stroke="black" points="1149.92,-1150.51 1159.92,-1147.01 1149.92,-1143.51 1149.92,-1150.51"/>
</g>
<!-- BB8&#45;&gt;BB36 -->
<g id="edge20" class="edge">
<title>BB8&#45;&gt;BB36</title>
<path fill="none" stroke="black" d="M1266.77,-1220.38C1266.77,-1212.21 1266.77,-1203.43 1266.77,-1194.9"/>
<polygon fill="black" stroke="black" points="1270.27,-1194.68 1266.77,-1184.68 1263.27,-1194.68 1270.27,-1194.68"/>
</g>
<!-- BB9&#45;&gt;BB36 -->
<g id="edge21" class="edge">
<title>BB9&#45;&gt;BB36</title>
<path fill="none" stroke="black" d="M645.74,-1231.22C659.29,-1227.19 673.36,-1223.4 686.77,-1220.49 813.69,-1192.89 847.9,-1200.59 976.77,-1184.49 1036.38,-1177.04 1102.87,-1168.68 1157.14,-1161.84"/>
<polygon fill="black" stroke="black" points="1157.64,-1165.31 1167.12,-1160.58 1156.76,-1158.36 1157.64,-1165.31"/>
</g>
<!-- BB10&#45;&gt;BB36 -->
<g id="edge22" class="edge">
<title>BB10&#45;&gt;BB36</title>
<path fill="none" stroke="black" d="M879.21,-1231.75C892.34,-1227.75 905.9,-1223.84 918.77,-1220.49 1000.02,-1199.31 1093.21,-1180.17 1162.69,-1166.88"/>
<polygon fill="black" stroke="black" points="1163.6,-1170.27 1172.77,-1164.97 1162.29,-1163.4 1163.6,-1170.27"/>
</g>
<!-- BB12 -->
<g id="node13" class="node">
<title>BB12</title>
<ellipse fill="none" stroke="black" cx="1565.77" cy="-1147.01" rx="106.55" ry="37.45"/>
<text text-anchor="middle" x="1565.77" y="-1158.31" font-family="Times New Roman,serif" font-size="14.00">[135..142)</text>
<text text-anchor="middle" x="1565.77" y="-1143.31" font-family="Times New Roman,serif" font-size="14.00">Normalized Count: NaN</text>
<text text-anchor="middle" x="1565.77" y="-1128.31" font-family="Times New Roman,serif" font-size="14.00">Samples weight: 0.00</text>
</g>
<!-- BB11&#45;&gt;BB12 -->
<g id="edge24" class="edge">
<title>BB11&#45;&gt;BB12</title>
<path fill="none" stroke="black" d="M2119.45,-1231.31C2106.01,-1227.3 2092.05,-1223.49 2078.77,-1220.49 1942.58,-1189.67 1782.92,-1169.58 1678.33,-1158.53"/>
<polygon fill="black" stroke="black" points="1678.69,-1155.05 1668.38,-1157.49 1677.97,-1162.01 1678.69,-1155.05"/>
</g>
<!-- BB15 -->
<g id="node16" class="node">
<title>BB15</title>
<ellipse fill="none" stroke="black" cx="2029.77" cy="-1147.01" rx="106.55" ry="37.45"/>
<text text-anchor="middle" x="2029.77" y="-1158.31" font-family="Times New Roman,serif" font-size="14.00">[159..166)</text>
<text text-anchor="middle" x="2029.77" y="-1143.31" font-family="Times New Roman,serif" font-size="14.00">Normalized Count: NaN</text>
<text text-anchor="middle" x="2029.77" y="-1128.31" font-family="Times New Roman,serif" font-size="14.00">Samples weight: 0.00</text>
</g>
<!-- BB11&#45;&gt;BB15 -->
<g id="edge23" class="edge">
<title>BB11&#45;&gt;BB15</title>
<path fill="none" stroke="black" d="M2145.71,-1224.57C2127.43,-1212.49 2106.5,-1198.67 2087.5,-1186.13"/>
<polygon fill="black" stroke="black" points="2089.2,-1183.06 2078.93,-1180.47 2085.34,-1188.9 2089.2,-1183.06"/>
</g>
<!-- BB13 -->
<g id="node14" class="node">
<title>BB13</title>
<ellipse fill="none" stroke="black" cx="1333.77" cy="-1036.06" rx="106.55" ry="37.45"/>
<text text-anchor="middle" x="1333.77" y="-1047.36" font-family="Times New Roman,serif" font-size="14.00">[142..14d)</text>
<text text-anchor="middle" x="1333.77" y="-1032.36" font-family="Times New Roman,serif" font-size="14.00">Normalized Count: NaN</text>
<text text-anchor="middle" x="1333.77" y="-1017.36" font-family="Times New Roman,serif" font-size="14.00">Samples weight: 0.00</text>
</g>
<!-- BB12&#45;&gt;BB13 -->
<g id="edge26" class="edge">
<title>BB12&#45;&gt;BB13</title>
<path fill="none" stroke="black" d="M1502.99,-1116.53C1472.94,-1102.42 1436.82,-1085.45 1405.67,-1070.82"/>
<polygon fill="black" stroke="black" points="1407.15,-1067.65 1396.61,-1066.56 1404.17,-1073.98 1407.15,-1067.65"/>
</g>
<!-- BB14 -->
<g id="node15" class="node">
<title>BB14</title>
<ellipse fill="none" stroke="black" cx="1565.77" cy="-1036.06" rx="106.55" ry="37.45"/>
<text text-anchor="middle" x="1565.77" y="-1047.36" font-family="Times New Roman,serif" font-size="14.00">[14d..159)</text>
<text text-anchor="middle" x="1565.77" y="-1032.36" font-family="Times New Roman,serif" font-size="14.00">Normalized Count: NaN</text>
<text text-anchor="middle" x="1565.77" y="-1017.36" font-family="Times New Roman,serif" font-size="14.00">Samples weight: 0.00</text>
</g>
<!-- BB12&#45;&gt;BB14 -->
<g id="edge25" class="edge">
<title>BB12&#45;&gt;BB14</title>
<path fill="none" stroke="black" d="M1565.77,-1109.43C1565.77,-1101.25 1565.77,-1092.47 1565.77,-1083.95"/>
<polygon fill="black" stroke="black" points="1569.27,-1083.73 1565.77,-1073.73 1562.27,-1083.73 1569.27,-1083.73"/>
</g>
<!-- BB13&#45;&gt;BB36 -->
<g id="edge27" class="edge">
<title>BB13&#45;&gt;BB36</title>
<path fill="none" stroke="black" d="M1311.67,-1073C1306.07,-1082.11 1299.99,-1092 1294.16,-1101.48"/>
<polygon fill="black" stroke="black" points="1291.15,-1099.68 1288.9,-1110.03 1297.12,-1103.35 1291.15,-1099.68"/>
</g>
<!-- BB14&#45;&gt;BB36 -->
<g id="edge28" class="edge">
<title>BB14&#45;&gt;BB36</title>
<path fill="none" stroke="black" d="M1492.95,-1063.59C1449.44,-1079.45 1394.06,-1099.63 1348.99,-1116.05"/>
<polygon fill="black" stroke="black" points="1347.73,-1112.78 1339.53,-1119.5 1350.13,-1119.36 1347.73,-1112.78"/>
</g>
<!-- BB16 -->
<g id="node17" class="node">
<title>BB16</title>
<ellipse fill="none" stroke="black" cx="1797.77" cy="-1036.06" rx="106.55" ry="37.45"/>
<text text-anchor="middle" x="1797.77" y="-1047.36" font-family="Times New Roman,serif" font-size="14.00">[166..172)</text>
<text text-anchor="middle" x="1797.77" y="-1032.36" font-family="Times New Roman,serif" font-size="14.00">Normalized Count: NaN</text>
<text text-anchor="middle" x="1797.77" y="-1017.36" font-family="Times New Roman,serif" font-size="14.00">Samples weight: 0.00</text>
</g>
<!-- BB15&#45;&gt;BB16 -->
<g id="edge30" class="edge">
<title>BB15&#45;&gt;BB16</title>
<path fill="none" stroke="black" d="M1966.99,-1116.53C1936.94,-1102.42 1900.82,-1085.45 1869.67,-1070.82"/>
<polygon fill="black" stroke="black" points="1871.15,-1067.65 1860.61,-1066.56 1868.17,-1073.98 1871.15,-1067.65"/>
</g>
<!-- BB17 -->
<g id="node18" class="node">
<title>BB17</title>
<ellipse fill="none" stroke="black" cx="2029.77" cy="-1036.06" rx="106.55" ry="37.45"/>
<text text-anchor="middle" x="2029.77" y="-1047.36" font-family="Times New Roman,serif" font-size="14.00">[172..1b0)</text>
<text text-anchor="middle" x="2029.77" y="-1032.36" font-family="Times New Roman,serif" font-size="14.00">Normalized Count: NaN</text>
<text text-anchor="middle" x="2029.77" y="-1017.36" font-family="Times New Roman,serif" font-size="14.00">Samples weight: 0.00</text>
</g>
<!-- BB15&#45;&gt;BB17 -->
<g id="edge29" class="edge">
<title>BB15&#45;&gt;BB17</title>
<path fill="none" stroke="black" d="M2029.77,-1109.43C2029.77,-1101.25 2029.77,-1092.47 2029.77,-1083.95"/>
<polygon fill="black" stroke="black" points="2033.27,-1083.73 2029.77,-1073.73 2026.27,-1083.73 2033.27,-1083.73"/>
</g>
<!-- BB16&#45;&gt;BB36 -->
<g id="edge31" class="edge">
<title>BB16&#45;&gt;BB36</title>
<path fill="none" stroke="black" d="M1722.1,-1062.65C1708.76,-1066.65 1694.93,-1070.46 1681.77,-1073.53 1580.16,-1097.25 1552.52,-1091.33 1449.77,-1109.53 1423.04,-1114.27 1394.21,-1119.81 1367.5,-1125.13"/>
<polygon fill="black" stroke="black" points="1366.5,-1121.76 1357.38,-1127.15 1367.87,-1128.62 1366.5,-1121.76"/>
</g>
<!-- BB19 -->
<g id="node20" class="node">
<title>BB19</title>
<ellipse fill="none" stroke="black" cx="2018.77" cy="-925.1" rx="106.55" ry="37.45"/>
<text text-anchor="middle" x="2018.77" y="-936.4" font-family="Times New Roman,serif" font-size="14.00">[1c1..1c5)</text>
<text text-anchor="middle" x="2018.77" y="-921.4" font-family="Times New Roman,serif" font-size="14.00">Normalized Count: NaN</text>
<text text-anchor="middle" x="2018.77" y="-906.4" font-family="Times New Roman,serif" font-size="14.00">Samples weight: 0.00</text>
</g>
<!-- BB17&#45;&gt;BB19 -->
<g id="edge32" class="edge">
<title>BB17&#45;&gt;BB19</title>
<path fill="none" stroke="black" d="M2026.08,-998.47C2025.25,-990.3 2024.37,-981.52 2023.51,-972.99"/>
<polygon fill="black" stroke="black" points="2026.96,-972.37 2022.48,-962.78 2020,-973.08 2026.96,-972.37"/>
</g>
<!-- BB18 -->
<g id="node19" class="node">
<title>BB18</title>
<ellipse fill="none" stroke="black" cx="2018.77" cy="-814.15" rx="106.55" ry="37.45"/>
<text text-anchor="middle" x="2018.77" y="-825.45" font-family="Times New Roman,serif" font-size="14.00">[1b0..1c1)</text>
<text text-anchor="middle" x="2018.77" y="-810.45" font-family="Times New Roman,serif" font-size="14.00">Normalized Count: NaN</text>
<text text-anchor="middle" x="2018.77" y="-795.45" font-family="Times New Roman,serif" font-size="14.00">Samples weight: 0.00</text>
</g>
<!-- BB18&#45;&gt;BB19 -->
<g id="edge33" class="edge">
<title>BB18&#45;&gt;BB19</title>
<path fill="none" stroke="black" d="M2025.19,-851.82C2025.51,-860 2025.6,-868.78 2025.46,-877.31"/>
<polygon fill="black" stroke="black" points="2021.96,-877.43 2025.19,-887.52 2028.96,-877.62 2021.96,-877.43"/>
</g>
<!-- BB19&#45;&gt;BB18 -->
<g id="edge34" class="edge">
<title>BB19&#45;&gt;BB18</title>
<path fill="none" stroke="black" d="M2012.36,-887.52C2012.04,-879.35 2011.95,-870.57 2012.08,-862.04"/>
<polygon fill="black" stroke="black" points="2015.59,-861.91 2012.35,-851.82 2008.59,-861.72 2015.59,-861.91"/>
</g>
<!-- BB20 -->
<g id="node21" class="node">
<title>BB20</title>
<ellipse fill="none" stroke="black" cx="1735.77" cy="-814.15" rx="115.93" ry="37.45"/>
<text text-anchor="middle" x="1735.77" y="-825.45" font-family="Times New Roman,serif" font-size="14.00">[1c5..1ca)</text>
<text text-anchor="middle" x="1735.77" y="-810.45" font-family="Times New Roman,serif" font-size="14.00">Normalized Count: Infinity</text>
<text text-anchor="middle" x="1735.77" y="-795.45" font-family="Times New Roman,serif" font-size="14.00">Samples weight: 0.02</text>
</g>
<!-- BB19&#45;&gt;BB20 -->
<g id="edge35" class="edge">
<title>BB19&#45;&gt;BB20</title>
<path fill="none" stroke="black" d="M1948.09,-896.89C1908.75,-881.75 1859.58,-862.81 1818.46,-846.98"/>
<polygon fill="black" stroke="black" points="1819.59,-843.67 1809,-843.34 1817.08,-850.2 1819.59,-843.67"/>
</g>
<!-- BB33 -->
<g id="node34" class="node">
<title>BB33</title>
<ellipse fill="none" stroke="black" cx="1714.77" cy="-703.2" rx="115.93" ry="37.45"/>
<text text-anchor="middle" x="1714.77" y="-714.5" font-family="Times New Roman,serif" font-size="14.00">[254..267)</text>
<text text-anchor="middle" x="1714.77" y="-699.5" font-family="Times New Roman,serif" font-size="14.00">Normalized Count: Infinity</text>
<text text-anchor="middle" x="1714.77" y="-684.5" font-family="Times New Roman,serif" font-size="14.00">Samples weight: 0.13</text>
</g>
<!-- BB20&#45;&gt;BB33 -->
<g id="edge36" class="edge">
<title>BB20&#45;&gt;BB33</title>
<path fill="none" stroke="black" d="M1728.72,-776.57C1727.13,-768.3 1725.42,-759.42 1723.76,-750.8"/>
<polygon fill="black" stroke="black" points="1727.17,-750.03 1721.84,-740.87 1720.3,-751.35 1727.17,-750.03"/>
</g>
<!-- BB21 -->
<g id="node22" class="node">
<title>BB21</title>
<ellipse fill="none" stroke="black" cx="1703.77" cy="-592.24" rx="115.93" ry="37.45"/>
<text text-anchor="middle" x="1703.77" y="-603.54" font-family="Times New Roman,serif" font-size="14.00">[1ca..1e5)</text>
<text text-anchor="middle" x="1703.77" y="-588.54" font-family="Times New Roman,serif" font-size="14.00">Normalized Count: Infinity</text>
<text text-anchor="middle" x="1703.77" y="-573.54" font-family="Times New Roman,serif" font-size="14.00">Samples weight: 0.27</text>
</g>
<!-- BB22 -->
<g id="node23" class="node">
<title>BB22</title>
<ellipse fill="none" stroke="black" cx="1453.77" cy="-481.29" rx="115.93" ry="37.45"/>
<text text-anchor="middle" x="1453.77" y="-492.59" font-family="Times New Roman,serif" font-size="14.00">[1e5..1e9)</text>
<text text-anchor="middle" x="1453.77" y="-477.59" font-family="Times New Roman,serif" font-size="14.00">Normalized Count: Infinity</text>
<text text-anchor="middle" x="1453.77" y="-462.59" font-family="Times New Roman,serif" font-size="14.00">Samples weight: 0.01</text>
</g>
<!-- BB21&#45;&gt;BB22 -->
<g id="edge38" class="edge">
<title>BB21&#45;&gt;BB22</title>
<path fill="none" stroke="black" d="M1636.12,-561.76C1603.6,-547.59 1564.48,-530.54 1530.82,-515.87"/>
<polygon fill="black" stroke="black" points="1532.05,-512.58 1521.48,-511.8 1529.25,-519 1532.05,-512.58"/>
</g>
<!-- BB28 -->
<g id="node29" class="node">
<title>BB28</title>
<ellipse fill="none" stroke="black" cx="1703.77" cy="-481.29" rx="115.93" ry="37.45"/>
<text text-anchor="middle" x="1703.77" y="-492.59" font-family="Times New Roman,serif" font-size="14.00">[20f..215)</text>
<text text-anchor="middle" x="1703.77" y="-477.59" font-family="Times New Roman,serif" font-size="14.00">Normalized Count: Infinity</text>
<text text-anchor="middle" x="1703.77" y="-462.59" font-family="Times New Roman,serif" font-size="14.00">Samples weight: 0.07</text>
</g>
<!-- BB21&#45;&gt;BB28 -->
<g id="edge37" class="edge">
<title>BB21&#45;&gt;BB28</title>
<path fill="none" stroke="black" d="M1703.77,-554.66C1703.77,-546.49 1703.77,-537.71 1703.77,-529.18"/>
<polygon fill="black" stroke="black" points="1707.27,-528.96 1703.77,-518.96 1700.27,-528.96 1707.27,-528.96"/>
</g>
<!-- BB27 -->
<g id="node28" class="node">
<title>BB27</title>
<ellipse fill="none" stroke="black" cx="1453.77" cy="-370.34" rx="115.93" ry="37.45"/>
<text text-anchor="middle" x="1453.77" y="-381.64" font-family="Times New Roman,serif" font-size="14.00">[20b..20f)</text>
<text text-anchor="middle" x="1453.77" y="-366.64" font-family="Times New Roman,serif" font-size="14.00">Normalized Count: Infinity</text>
<text text-anchor="middle" x="1453.77" y="-351.64" font-family="Times New Roman,serif" font-size="14.00">Samples weight: 0.03</text>
</g>
<!-- BB22&#45;&gt;BB27 -->
<g id="edge39" class="edge">
<title>BB22&#45;&gt;BB27</title>
<path fill="none" stroke="black" d="M1453.77,-443.71C1453.77,-435.53 1453.77,-426.75 1453.77,-418.23"/>
<polygon fill="black" stroke="black" points="1457.27,-418.01 1453.77,-408.01 1450.27,-418.01 1457.27,-418.01"/>
</g>
<!-- BB23 -->
<g id="node24" class="node">
<title>BB23</title>
<ellipse fill="none" stroke="black" cx="1453.77" cy="-259.38" rx="115.93" ry="37.45"/>
<text text-anchor="middle" x="1453.77" y="-270.68" font-family="Times New Roman,serif" font-size="14.00">[1e9..1f6)</text>
<text text-anchor="middle" x="1453.77" y="-255.68" font-family="Times New Roman,serif" font-size="14.00">Normalized Count: Infinity</text>
<text text-anchor="middle" x="1453.77" y="-240.68" font-family="Times New Roman,serif" font-size="14.00">Samples weight: 0.07</text>
</g>
<!-- BB24 -->
<g id="node25" class="node">
<title>BB24</title>
<ellipse fill="none" stroke="black" cx="1453.77" cy="-148.43" rx="115.93" ry="37.45"/>
<text text-anchor="middle" x="1453.77" y="-159.73" font-family="Times New Roman,serif" font-size="14.00">[1f6..1fa)</text>
<text text-anchor="middle" x="1453.77" y="-144.73" font-family="Times New Roman,serif" font-size="14.00">Normalized Count: Infinity</text>
<text text-anchor="middle" x="1453.77" y="-129.73" font-family="Times New Roman,serif" font-size="14.00">Samples weight: 0.02</text>
</g>
<!-- BB23&#45;&gt;BB24 -->
<g id="edge41" class="edge">
<title>BB23&#45;&gt;BB24</title>
<path fill="none" stroke="black" d="M1453.77,-221.8C1453.77,-213.63 1453.77,-204.85 1453.77,-196.32"/>
<polygon fill="black" stroke="black" points="1457.27,-196.1 1453.77,-186.1 1450.27,-196.1 1457.27,-196.1"/>
</g>
<!-- BB25 -->
<g id="node26" class="node">
<title>BB25</title>
<ellipse fill="none" stroke="black" cx="1703.77" cy="-148.43" rx="115.93" ry="37.45"/>
<text text-anchor="middle" x="1703.77" y="-159.73" font-family="Times New Roman,serif" font-size="14.00">[1fa..207)</text>
<text text-anchor="middle" x="1703.77" y="-144.73" font-family="Times New Roman,serif" font-size="14.00">Normalized Count: Infinity</text>
<text text-anchor="middle" x="1703.77" y="-129.73" font-family="Times New Roman,serif" font-size="14.00">Samples weight: 0.02</text>
</g>
<!-- BB23&#45;&gt;BB25 -->
<g id="edge40" class="edge">
<title>BB23&#45;&gt;BB25</title>
<path fill="none" stroke="black" d="M1521.43,-228.9C1553.94,-214.73 1593.07,-197.68 1626.73,-183.01"/>
<polygon fill="black" stroke="black" points="1628.3,-186.14 1636.07,-178.94 1625.5,-179.72 1628.3,-186.14"/>
</g>
<!-- BB32 -->
<g id="node33" class="node">
<title>BB32</title>
<ellipse fill="none" stroke="black" cx="1991.77" cy="-148.43" rx="115.93" ry="37.45"/>
<text text-anchor="middle" x="1991.77" y="-159.73" font-family="Times New Roman,serif" font-size="14.00">[238..254)</text>
<text text-anchor="middle" x="1991.77" y="-144.73" font-family="Times New Roman,serif" font-size="14.00">Normalized Count: Infinity</text>
<text text-anchor="middle" x="1991.77" y="-129.73" font-family="Times New Roman,serif" font-size="14.00">Samples weight: 0.05</text>
</g>
<!-- BB24&#45;&gt;BB32 -->
<g id="edge42" class="edge">
<title>BB24&#45;&gt;BB32</title>
<path fill="none" stroke="black" d="M1515.9,-180.1C1538,-189.74 1563.45,-199.07 1587.77,-203.91 1688.9,-224.01 1717.91,-219.93 1819.77,-203.91 1849.44,-199.24 1880.97,-190.31 1908.82,-180.95"/>
<polygon fill="black" stroke="black" points="1910.18,-184.19 1918.5,-177.63 1907.91,-177.56 1910.18,-184.19"/>
</g>
<!-- BB26 -->
<g id="node27" class="node">
<title>BB26</title>
<ellipse fill="none" stroke="black" cx="1506.77" cy="-37.48" rx="106.55" ry="37.45"/>
<text text-anchor="middle" x="1506.77" y="-48.78" font-family="Times New Roman,serif" font-size="14.00">[207..20b)</text>
<text text-anchor="middle" x="1506.77" y="-33.78" font-family="Times New Roman,serif" font-size="14.00">Normalized Count: NaN</text>
<text text-anchor="middle" x="1506.77" y="-18.78" font-family="Times New Roman,serif" font-size="14.00">Samples weight: 0.00</text>
</g>
<!-- BB25&#45;&gt;BB26 -->
<g id="edge44" class="edge">
<title>BB25&#45;&gt;BB26</title>
<path fill="none" stroke="black" d="M1646.53,-115.77C1623.05,-102.79 1595.77,-87.7 1571.57,-74.31"/>
<polygon fill="black" stroke="black" points="1573.25,-71.24 1562.8,-69.46 1569.86,-77.37 1573.25,-71.24"/>
</g>
<!-- BB25&#45;&gt;BB28 -->
<g id="edge43" class="edge">
<title>BB25&#45;&gt;BB28</title>
<path fill="none" stroke="black" d="M1650.03,-181.86C1636.69,-192.78 1624.11,-206.24 1616.77,-221.91 1581.72,-296.73 1581.72,-332.99 1616.77,-407.81 1622.68,-420.42 1631.97,-431.6 1642.33,-441.17"/>
<polygon fill="black" stroke="black" points="1640.18,-443.94 1650.03,-447.86 1644.77,-438.66 1640.18,-443.94"/>
</g>
<!-- BB26&#45;&gt;BB27 -->
<g id="edge45" class="edge">
<title>BB26&#45;&gt;BB27</title>
<path fill="none" stroke="black" d="M1411.65,-54.95C1379.88,-65.47 1347.77,-82.71 1328.77,-110.95 1282.66,-179.52 1287.53,-225.27 1328.77,-296.86 1338.18,-313.18 1352.82,-326.17 1368.82,-336.36"/>
<polygon fill="black" stroke="black" points="1367.44,-339.62 1377.82,-341.75 1371.03,-333.61 1367.44,-339.62"/>
</g>
<!-- BB27&#45;&gt;BB23 -->
<g id="edge46" class="edge">
<title>BB27&#45;&gt;BB23</title>
<path fill="none" stroke="black" d="M1453.77,-332.75C1453.77,-324.58 1453.77,-315.8 1453.77,-307.27"/>
<polygon fill="black" stroke="black" points="1457.27,-307.06 1453.77,-297.06 1450.27,-307.06 1457.27,-307.06"/>
</g>
<!-- BB27&#45;&gt;BB28 -->
<g id="edge47" class="edge">
<title>BB27&#45;&gt;BB28</title>
<path fill="none" stroke="black" d="M1521.48,-400.84C1554,-415.02 1593.13,-432.07 1626.78,-446.74"/>
<polygon fill="black" stroke="black" points="1625.55,-450.02 1636.12,-450.81 1628.35,-443.6 1625.55,-450.02"/>
</g>
<!-- BB30 -->
<g id="node31" class="node">
<title>BB30</title>
<ellipse fill="none" stroke="black" cx="1741.77" cy="-370.34" rx="115.93" ry="37.45"/>
<text text-anchor="middle" x="1741.77" y="-381.64" font-family="Times New Roman,serif" font-size="14.00">[232..236)</text>
<text text-anchor="middle" x="1741.77" y="-366.64" font-family="Times New Roman,serif" font-size="14.00">Normalized Count: Infinity</text>
<text text-anchor="middle" x="1741.77" y="-351.64" font-family="Times New Roman,serif" font-size="14.00">Samples weight: 0.06</text>
</g>
<!-- BB28&#45;&gt;BB30 -->
<g id="edge48" class="edge">
<title>BB28&#45;&gt;BB30</title>
<path fill="none" stroke="black" d="M1716.43,-444.01C1719.41,-435.46 1722.62,-426.24 1725.73,-417.33"/>
<polygon fill="black" stroke="black" points="1729.06,-418.42 1729.05,-407.83 1722.45,-416.12 1729.06,-418.42"/>
</g>
<!-- BB29 -->
<g id="node30" class="node">
<title>BB29</title>
<ellipse fill="none" stroke="black" cx="1741.77" cy="-259.38" rx="115.93" ry="37.45"/>
<text text-anchor="middle" x="1741.77" y="-270.68" font-family="Times New Roman,serif" font-size="14.00">[215..232)</text>
<text text-anchor="middle" x="1741.77" y="-255.68" font-family="Times New Roman,serif" font-size="14.00">Normalized Count: Infinity</text>
<text text-anchor="middle" x="1741.77" y="-240.68" font-family="Times New Roman,serif" font-size="14.00">Samples weight: 0.23</text>
</g>
<!-- BB29&#45;&gt;BB30 -->
<g id="edge49" class="edge">
<title>BB29&#45;&gt;BB30</title>
<path fill="none" stroke="black" d="M1748.19,-297.06C1748.51,-305.23 1748.6,-314.02 1748.46,-322.54"/>
<polygon fill="black" stroke="black" points="1744.96,-322.66 1748.19,-332.75 1751.96,-322.85 1744.96,-322.66"/>
</g>
<!-- BB30&#45;&gt;BB29 -->
<g id="edge50" class="edge">
<title>BB30&#45;&gt;BB29</title>
<path fill="none" stroke="black" d="M1735.36,-332.75C1735.04,-324.58 1734.95,-315.8 1735.08,-307.27"/>
<polygon fill="black" stroke="black" points="1738.59,-307.15 1735.35,-297.06 1731.59,-306.96 1738.59,-307.15"/>
</g>
<!-- BB31 -->
<g id="node32" class="node">
<title>BB31</title>
<ellipse fill="none" stroke="black" cx="1991.77" cy="-259.38" rx="115.93" ry="37.45"/>
<text text-anchor="middle" x="1991.77" y="-270.68" font-family="Times New Roman,serif" font-size="14.00">[236..238)</text>
<text text-anchor="middle" x="1991.77" y="-255.68" font-family="Times New Roman,serif" font-size="14.00">Normalized Count: Infinity</text>
<text text-anchor="middle" x="1991.77" y="-240.68" font-family="Times New Roman,serif" font-size="14.00">Samples weight: 0.01</text>
</g>
<!-- BB30&#45;&gt;BB31 -->
<g id="edge51" class="edge">
<title>BB30&#45;&gt;BB31</title>
<path fill="none" stroke="black" d="M1809.43,-339.85C1841.94,-325.68 1881.07,-308.63 1914.73,-293.96"/>
<polygon fill="black" stroke="black" points="1916.3,-297.1 1924.07,-289.89 1913.5,-290.68 1916.3,-297.1"/>
</g>
<!-- BB31&#45;&gt;BB32 -->
<g id="edge52" class="edge">
<title>BB31&#45;&gt;BB32</title>
<path fill="none" stroke="black" d="M1991.77,-221.8C1991.77,-213.63 1991.77,-204.85 1991.77,-196.32"/>
<polygon fill="black" stroke="black" points="1995.27,-196.1 1991.77,-186.1 1988.27,-196.1 1995.27,-196.1"/>
</g>
<!-- BB32&#45;&gt;BB33 -->
<g id="edge53" class="edge">
<title>BB32&#45;&gt;BB33</title>
<path fill="none" stroke="black" d="M2065.52,-177.62C2085.11,-188.57 2104.27,-203.11 2116.77,-221.91 2153.35,-276.92 2135.77,-303.27 2135.77,-369.34 2135.77,-482.29 2135.77,-482.29 2135.77,-482.29 2135.77,-618.78 1959.78,-670.7 1835.38,-690.35"/>
<polygon fill="black" stroke="black" points="1834.74,-686.91 1825.39,-691.88 1835.8,-693.83 1834.74,-686.91"/>
</g>
<!-- BB33&#45;&gt;BB21 -->
<g id="edge54" class="edge">
<title>BB33&#45;&gt;BB21</title>
<path fill="none" stroke="black" d="M1711.08,-665.61C1710.25,-657.44 1709.37,-648.66 1708.51,-640.13"/>
<polygon fill="black" stroke="black" points="1711.96,-639.51 1707.48,-629.92 1705,-640.22 1711.96,-639.51"/>
</g>
<!-- BB34 -->
<g id="node35" class="node">
<title>BB34</title>
<ellipse fill="none" stroke="black" cx="1368.77" cy="-592.24" rx="115.93" ry="37.45"/>
<text text-anchor="middle" x="1368.77" y="-603.54" font-family="Times New Roman,serif" font-size="14.00">[267..269)</text>
<text text-anchor="middle" x="1368.77" y="-588.54" font-family="Times New Roman,serif" font-size="14.00">Normalized Count: Infinity</text>
<text text-anchor="middle" x="1368.77" y="-573.54" font-family="Times New Roman,serif" font-size="14.00">Samples weight: 0.01</text>
</g>
<!-- BB33&#45;&gt;BB34 -->
<g id="edge55" class="edge">
<title>BB33&#45;&gt;BB34</title>
<path fill="none" stroke="black" d="M1633.21,-676.51C1581.3,-660.17 1513.98,-638.97 1460.25,-622.05"/>
<polygon fill="black" stroke="black" points="1460.97,-618.61 1450.38,-618.94 1458.87,-625.28 1460.97,-618.61"/>
</g>
<!-- BB34&#45;&gt;BB36 -->
<g id="edge56" class="edge">
<title>BB34&#45;&gt;BB36</title>
<path fill="none" stroke="black" d="M1320.06,-626.32C1269.82,-664.78 1198.77,-733.29 1198.77,-813.15 1198.77,-926.1 1198.77,-926.1 1198.77,-926.1 1198.77,-992.17 1194.42,-1011.73 1217.77,-1073.53 1221.48,-1083.33 1226.74,-1093.11 1232.45,-1102.17"/>
<polygon fill="black" stroke="black" points="1229.6,-1104.2 1238.04,-1110.61 1235.44,-1100.34 1229.6,-1104.2"/>
</g>
<!-- BB35&#45;&gt;BB36 -->
<g id="edge57" class="edge">
<title>BB35&#45;&gt;BB36</title>
<path fill="none" stroke="black" d="M1097.56,-1227.48C1127.6,-1213.37 1163.73,-1196.4 1194.87,-1181.78"/>
<polygon fill="black" stroke="black" points="1196.38,-1184.94 1203.94,-1177.52 1193.4,-1178.6 1196.38,-1184.94"/>
</g>
</g>
</svg>
