<?xml version="1.0" encoding="UTF-8" standalone="no"?>
<!DOCTYPE svg PUBLIC "-//W3C//DTD SVG 1.1//EN"
 "http://www.w3.org/Graphics/SVG/1.1/DTD/svg11.dtd">
<!-- Generated by graphviz version 2.47.0 (20210316.0004)
 -->
<!-- Title: G Pages: 1 -->
<svg width="2064pt" height="1414pt"
 viewBox="0.00 0.00 2063.62 1414.39" xmlns="http://www.w3.org/2000/svg" xmlns:xlink="http://www.w3.org/1999/xlink">
<g id="graph0" class="graph" transform="scale(1 1) rotate(0) translate(4 1410.39)">
<title>G</title>
<polygon fill="white" stroke="transparent" points="-4,4 -4,-1410.39 2059.62,-1410.39 2059.62,4 -4,4"/>
<!-- BB0 -->
<g id="node1" class="node">
<title>BB0</title>
<ellipse fill="none" stroke="black" cx="906.36" cy="-1368.92" rx="105.22" ry="37.45"/>
<text text-anchor="middle" x="906.36" y="-1380.22" font-family="Times New Roman,serif" font-size="14.00">[0..87)</text>
<text text-anchor="middle" x="906.36" y="-1365.22" font-family="Times New Roman,serif" font-size="14.00">Normalized Count: 1.00</text>
<text text-anchor="middle" x="906.36" y="-1350.22" font-family="Times New Roman,serif" font-size="14.00">Samples weight: 0.00</text>
</g>
<!-- BB1 -->
<g id="node2" class="node">
<title>BB1</title>
<ellipse fill="none" stroke="black" cx="105.36" cy="-1257.96" rx="105.22" ry="37.45"/>
<text text-anchor="middle" x="105.36" y="-1269.26" font-family="Times New Roman,serif" font-size="14.00">[87..8c)</text>
<text text-anchor="middle" x="105.36" y="-1254.26" font-family="Times New Roman,serif" font-size="14.00">Normalized Count: 0.00</text>
<text text-anchor="middle" x="105.36" y="-1239.26" font-family="Times New Roman,serif" font-size="14.00">Samples weight: 0.00</text>
</g>
<!-- BB0&#45;&gt;BB1 -->
<g id="edge1" class="edge">
<title>BB0&#45;&gt;BB1</title>
<path fill="none" stroke="black" d="M801.91,-1363.44C666.54,-1356.15 423.74,-1337.98 220.36,-1295.44 210.18,-1293.31 199.63,-1290.64 189.23,-1287.71"/>
<polygon fill="black" stroke="black" points="189.9,-1284.26 179.32,-1284.83 187.95,-1290.98 189.9,-1284.26"/>
</g>
<!-- BB2 -->
<g id="node3" class="node">
<title>BB2</title>
<ellipse fill="none" stroke="black" cx="334.36" cy="-1257.96" rx="105.22" ry="37.45"/>
<text text-anchor="middle" x="334.36" y="-1269.26" font-family="Times New Roman,serif" font-size="14.00">[8c..ac)</text>
<text text-anchor="middle" x="334.36" y="-1254.26" font-family="Times New Roman,serif" font-size="14.00">Normalized Count: 0.00</text>
<text text-anchor="middle" x="334.36" y="-1239.26" font-family="Times New Roman,serif" font-size="14.00">Samples weight: 0.00</text>
</g>
<!-- BB0&#45;&gt;BB2 -->
<g id="edge2" class="edge">
<title>BB0&#45;&gt;BB2</title>
<path fill="none" stroke="black" d="M806.57,-1356.47C713.42,-1344.75 570.92,-1324.19 449.36,-1295.44 439.4,-1293.08 429.04,-1290.3 418.82,-1287.33"/>
<polygon fill="black" stroke="black" points="419.65,-1283.93 409.07,-1284.44 417.66,-1290.64 419.65,-1283.93"/>
</g>
<!-- BB3 -->
<g id="node4" class="node">
<title>BB3</title>
<ellipse fill="none" stroke="black" cx="563.36" cy="-1257.96" rx="105.22" ry="37.45"/>
<text text-anchor="middle" x="563.36" y="-1269.26" font-family="Times New Roman,serif" font-size="14.00">[ac..cc)</text>
<text text-anchor="middle" x="563.36" y="-1254.26" font-family="Times New Roman,serif" font-size="14.00">Normalized Count: 0.00</text>
<text text-anchor="middle" x="563.36" y="-1239.26" font-family="Times New Roman,serif" font-size="14.00">Samples weight: 0.00</text>
</g>
<!-- BB0&#45;&gt;BB3 -->
<g id="edge5" class="edge">
<title>BB0&#45;&gt;BB3</title>
<path fill="none" stroke="black" d="M828.96,-1343.33C775.93,-1326.48 705.51,-1304.12 650.51,-1286.65"/>
<polygon fill="black" stroke="black" points="651.37,-1283.25 640.78,-1283.55 649.25,-1289.92 651.37,-1283.25"/>
</g>
<!-- BB4 -->
<g id="node5" class="node">
<title>BB4</title>
<ellipse fill="none" stroke="black" cx="792.36" cy="-1257.96" rx="105.22" ry="37.45"/>
<text text-anchor="middle" x="792.36" y="-1269.26" font-family="Times New Roman,serif" font-size="14.00">[cc..d7)</text>
<text text-anchor="middle" x="792.36" y="-1254.26" font-family="Times New Roman,serif" font-size="14.00">Normalized Count: 0.00</text>
<text text-anchor="middle" x="792.36" y="-1239.26" font-family="Times New Roman,serif" font-size="14.00">Samples weight: 0.00</text>
</g>
<!-- BB0&#45;&gt;BB4 -->
<g id="edge3" class="edge">
<title>BB0&#45;&gt;BB4</title>
<path fill="none" stroke="black" d="M870.29,-1333.44C859.27,-1322.91 847.03,-1311.21 835.58,-1300.27"/>
<polygon fill="black" stroke="black" points="837.84,-1297.59 828.19,-1293.21 833.01,-1302.65 837.84,-1297.59"/>
</g>
<!-- BB5 -->
<g id="node6" class="node">
<title>BB5</title>
<ellipse fill="none" stroke="black" cx="1021.36" cy="-1257.96" rx="105.22" ry="37.45"/>
<text text-anchor="middle" x="1021.36" y="-1269.26" font-family="Times New Roman,serif" font-size="14.00">[d7..e3)</text>
<text text-anchor="middle" x="1021.36" y="-1254.26" font-family="Times New Roman,serif" font-size="14.00">Normalized Count: 0.00</text>
<text text-anchor="middle" x="1021.36" y="-1239.26" font-family="Times New Roman,serif" font-size="14.00">Samples weight: 0.00</text>
</g>
<!-- BB0&#45;&gt;BB5 -->
<g id="edge7" class="edge">
<title>BB0&#45;&gt;BB5</title>
<path fill="none" stroke="black" d="M942.75,-1333.44C953.87,-1322.91 966.21,-1311.21 977.76,-1300.27"/>
<polygon fill="black" stroke="black" points="980.36,-1302.63 985.21,-1293.21 975.54,-1297.55 980.36,-1302.63"/>
</g>
<!-- BB6 -->
<g id="node7" class="node">
<title>BB6</title>
<ellipse fill="none" stroke="black" cx="1250.36" cy="-1257.96" rx="105.22" ry="37.45"/>
<text text-anchor="middle" x="1250.36" y="-1269.26" font-family="Times New Roman,serif" font-size="14.00">[e3..ef)</text>
<text text-anchor="middle" x="1250.36" y="-1254.26" font-family="Times New Roman,serif" font-size="14.00">Normalized Count: 0.00</text>
<text text-anchor="middle" x="1250.36" y="-1239.26" font-family="Times New Roman,serif" font-size="14.00">Samples weight: 0.00</text>
</g>
<!-- BB0&#45;&gt;BB6 -->
<g id="edge4" class="edge">
<title>BB0&#45;&gt;BB6</title>
<path fill="none" stroke="black" d="M983.74,-1343.44C1028.12,-1329.4 1084.87,-1311.44 1135.36,-1295.44 1144.4,-1292.58 1153.84,-1289.58 1163.25,-1286.6"/>
<polygon fill="black" stroke="black" points="1164.56,-1289.86 1173.04,-1283.5 1162.45,-1283.18 1164.56,-1289.86"/>
</g>
<!-- BB7 -->
<g id="node8" class="node">
<title>BB7</title>
<ellipse fill="none" stroke="black" cx="1708.36" cy="-1257.96" rx="105.22" ry="37.45"/>
<text text-anchor="middle" x="1708.36" y="-1269.26" font-family="Times New Roman,serif" font-size="14.00">[ef..10b)</text>
<text text-anchor="middle" x="1708.36" y="-1254.26" font-family="Times New Roman,serif" font-size="14.00">Normalized Count: 1.00</text>
<text text-anchor="middle" x="1708.36" y="-1239.26" font-family="Times New Roman,serif" font-size="14.00">Samples weight: 0.00</text>
</g>
<!-- BB0&#45;&gt;BB7 -->
<g id="edge6" class="edge">
<title>BB0&#45;&gt;BB7</title>
<path fill="none" stroke="black" d="M1010.67,-1363.47C1146.18,-1356.21 1389.53,-1338.06 1593.36,-1295.44 1603.54,-1293.31 1614.09,-1290.64 1624.49,-1287.71"/>
<polygon fill="black" stroke="black" points="1625.77,-1290.98 1634.4,-1284.83 1623.82,-1284.26 1625.77,-1290.98"/>
</g>
<!-- BB31 -->
<g id="node32" class="node">
<title>BB31</title>
<ellipse fill="none" stroke="black" cx="1479.36" cy="-1257.96" rx="105.22" ry="37.45"/>
<text text-anchor="middle" x="1479.36" y="-1269.26" font-family="Times New Roman,serif" font-size="14.00">[240..249)</text>
<text text-anchor="middle" x="1479.36" y="-1254.26" font-family="Times New Roman,serif" font-size="14.00">Normalized Count: 0.00</text>
<text text-anchor="middle" x="1479.36" y="-1239.26" font-family="Times New Roman,serif" font-size="14.00">Samples weight: 0.00</text>
</g>
<!-- BB0&#45;&gt;BB31 -->
<g id="edge8" class="edge">
<title>BB0&#45;&gt;BB31</title>
<path fill="none" stroke="black" d="M1005.92,-1356.54C1099.26,-1344.85 1242.34,-1324.27 1364.36,-1295.44 1374.32,-1293.09 1384.67,-1290.3 1394.9,-1287.33"/>
<polygon fill="black" stroke="black" points="1396.06,-1290.64 1404.65,-1284.44 1394.07,-1283.93 1396.06,-1290.64"/>
</g>
<!-- BB32 -->
<g id="node33" class="node">
<title>BB32</title>
<ellipse fill="none" stroke="black" cx="805.36" cy="-1147.01" rx="105.22" ry="37.45"/>
<text text-anchor="middle" x="805.36" y="-1158.31" font-family="Times New Roman,serif" font-size="14.00">[249..250)</text>
<text text-anchor="middle" x="805.36" y="-1143.31" font-family="Times New Roman,serif" font-size="14.00">Normalized Count: 1.00</text>
<text text-anchor="middle" x="805.36" y="-1128.31" font-family="Times New Roman,serif" font-size="14.00">Samples weight: 0.00</text>
</g>
<!-- BB1&#45;&gt;BB32 -->
<g id="edge9" class="edge">
<title>BB1&#45;&gt;BB32</title>
<path fill="none" stroke="black" d="M179.67,-1231.2C193.1,-1227.18 207.06,-1223.39 220.36,-1220.49 382.35,-1185.08 573.63,-1165.46 692.23,-1155.82"/>
<polygon fill="black" stroke="black" points="692.73,-1159.3 702.42,-1155.01 692.17,-1152.32 692.73,-1159.3"/>
</g>
<!-- BB2&#45;&gt;BB32 -->
<g id="edge10" class="edge">
<title>BB2&#45;&gt;BB32</title>
<path fill="none" stroke="black" d="M409.8,-1231.78C422.92,-1227.76 436.49,-1223.83 449.36,-1220.49 533.61,-1198.61 630.49,-1179.26 701.89,-1166.07"/>
<polygon fill="black" stroke="black" points="702.59,-1169.5 711.79,-1164.25 701.32,-1162.61 702.59,-1169.5"/>
</g>
<!-- BB3&#45;&gt;BB32 -->
<g id="edge11" class="edge">
<title>BB3&#45;&gt;BB32</title>
<path fill="none" stroke="black" d="M627.58,-1228.05C659.7,-1213.59 698.73,-1196.01 732.03,-1181.02"/>
<polygon fill="black" stroke="black" points="733.58,-1184.16 741.26,-1176.87 730.71,-1177.78 733.58,-1184.16"/>
</g>
<!-- BB4&#45;&gt;BB32 -->
<g id="edge12" class="edge">
<title>BB4&#45;&gt;BB32</title>
<path fill="none" stroke="black" d="M796.72,-1220.38C797.71,-1212.12 798.77,-1203.23 799.8,-1194.62"/>
<polygon fill="black" stroke="black" points="803.27,-1195.03 800.98,-1184.68 796.32,-1194.2 803.27,-1195.03"/>
</g>
<!-- BB5&#45;&gt;BB32 -->
<g id="edge13" class="edge">
<title>BB5&#45;&gt;BB32</title>
<path fill="none" stroke="black" d="M961.76,-1226.9C934.5,-1213.15 902.04,-1196.78 873.78,-1182.52"/>
<polygon fill="black" stroke="black" points="875.26,-1179.35 864.76,-1177.97 872.11,-1185.6 875.26,-1179.35"/>
</g>
<!-- BB6&#45;&gt;BB32 -->
<g id="edge14" class="edge">
<title>BB6&#45;&gt;BB32</title>
<path fill="none" stroke="black" d="M1174.56,-1231.85C1161.54,-1227.84 1148.11,-1223.9 1135.36,-1220.49 1059.37,-1200.14 972.43,-1181.22 906.87,-1167.81"/>
<polygon fill="black" stroke="black" points="907.44,-1164.36 896.94,-1165.79 906.04,-1171.22 907.44,-1164.36"/>
</g>
<!-- BB8 -->
<g id="node9" class="node">
<title>BB8</title>
<ellipse fill="none" stroke="black" cx="1479.36" cy="-1147.01" rx="105.22" ry="37.45"/>
<text text-anchor="middle" x="1479.36" y="-1158.31" font-family="Times New Roman,serif" font-size="14.00">[10b..118)</text>
<text text-anchor="middle" x="1479.36" y="-1143.31" font-family="Times New Roman,serif" font-size="14.00">Normalized Count: 1.00</text>
<text text-anchor="middle" x="1479.36" y="-1128.31" font-family="Times New Roman,serif" font-size="14.00">Samples weight: 0.00</text>
</g>
<!-- BB7&#45;&gt;BB8 -->
<g id="edge16" class="edge">
<title>BB7&#45;&gt;BB8</title>
<path fill="none" stroke="black" d="M1646.39,-1227.48C1616.86,-1213.43 1581.38,-1196.55 1550.72,-1181.96"/>
<polygon fill="black" stroke="black" points="1551.91,-1178.65 1541.38,-1177.52 1548.91,-1184.97 1551.91,-1178.65"/>
</g>
<!-- BB9 -->
<g id="node10" class="node">
<title>BB9</title>
<ellipse fill="none" stroke="black" cx="1708.36" cy="-1147.01" rx="105.22" ry="37.45"/>
<text text-anchor="middle" x="1708.36" y="-1158.31" font-family="Times New Roman,serif" font-size="14.00">[118..11f)</text>
<text text-anchor="middle" x="1708.36" y="-1143.31" font-family="Times New Roman,serif" font-size="14.00">Normalized Count: 0.00</text>
<text text-anchor="middle" x="1708.36" y="-1128.31" font-family="Times New Roman,serif" font-size="14.00">Samples weight: 0.00</text>
</g>
<!-- BB7&#45;&gt;BB9 -->
<g id="edge15" class="edge">
<title>BB7&#45;&gt;BB9</title>
<path fill="none" stroke="black" d="M1708.36,-1220.38C1708.36,-1212.21 1708.36,-1203.43 1708.36,-1194.9"/>
<polygon fill="black" stroke="black" points="1711.86,-1194.68 1708.36,-1184.68 1704.86,-1194.68 1711.86,-1194.68"/>
</g>
<!-- BB8&#45;&gt;BB9 -->
<g id="edge18" class="edge">
<title>BB8&#45;&gt;BB9</title>
<path fill="none" stroke="black" d="M1584.91,-1147.01C1587.52,-1147.01 1590.12,-1147.01 1592.72,-1147.01"/>
<polygon fill="black" stroke="black" points="1592.76,-1150.51 1602.76,-1147.01 1592.76,-1143.51 1592.76,-1150.51"/>
</g>
<!-- BB10 -->
<g id="node11" class="node">
<title>BB10</title>
<ellipse fill="none" stroke="black" cx="1479.36" cy="-1036.06" rx="105.22" ry="37.45"/>
<text text-anchor="middle" x="1479.36" y="-1047.36" font-family="Times New Roman,serif" font-size="14.00">[11f..128)</text>
<text text-anchor="middle" x="1479.36" y="-1032.36" font-family="Times New Roman,serif" font-size="14.00">Normalized Count: 1.00</text>
<text text-anchor="middle" x="1479.36" y="-1017.36" font-family="Times New Roman,serif" font-size="14.00">Samples weight: 0.00</text>
</g>
<!-- BB8&#45;&gt;BB10 -->
<g id="edge17" class="edge">
<title>BB8&#45;&gt;BB10</title>
<path fill="none" stroke="black" d="M1479.36,-1109.43C1479.36,-1101.25 1479.36,-1092.47 1479.36,-1083.95"/>
<polygon fill="black" stroke="black" points="1482.86,-1083.73 1479.36,-1073.73 1475.86,-1083.73 1482.86,-1083.73"/>
</g>
<!-- BB9&#45;&gt;BB10 -->
<g id="edge19" class="edge">
<title>BB9&#45;&gt;BB10</title>
<path fill="none" stroke="black" d="M1646.39,-1116.53C1616.86,-1102.48 1581.38,-1085.59 1550.72,-1071.01"/>
<polygon fill="black" stroke="black" points="1551.91,-1067.7 1541.38,-1066.56 1548.91,-1074.02 1551.91,-1067.7"/>
</g>
<!-- BB11 -->
<g id="node12" class="node">
<title>BB11</title>
<ellipse fill="none" stroke="black" cx="1250.36" cy="-925.1" rx="105.22" ry="37.45"/>
<text text-anchor="middle" x="1250.36" y="-936.4" font-family="Times New Roman,serif" font-size="14.00">[128..131)</text>
<text text-anchor="middle" x="1250.36" y="-921.4" font-family="Times New Roman,serif" font-size="14.00">Normalized Count: 1.00</text>
<text text-anchor="middle" x="1250.36" y="-906.4" font-family="Times New Roman,serif" font-size="14.00">Samples weight: 0.00</text>
</g>
<!-- BB10&#45;&gt;BB11 -->
<g id="edge21" class="edge">
<title>BB10&#45;&gt;BB11</title>
<path fill="none" stroke="black" d="M1417.39,-1005.57C1387.86,-991.52 1352.38,-974.64 1321.72,-960.06"/>
<polygon fill="black" stroke="black" points="1322.91,-956.75 1312.38,-955.61 1319.91,-963.07 1322.91,-956.75"/>
</g>
<!-- BB12 -->
<g id="node13" class="node">
<title>BB12</title>
<ellipse fill="none" stroke="black" cx="1479.36" cy="-925.1" rx="105.22" ry="37.45"/>
<text text-anchor="middle" x="1479.36" y="-936.4" font-family="Times New Roman,serif" font-size="14.00">[131..13a)</text>
<text text-anchor="middle" x="1479.36" y="-921.4" font-family="Times New Roman,serif" font-size="14.00">Normalized Count: 0.00</text>
<text text-anchor="middle" x="1479.36" y="-906.4" font-family="Times New Roman,serif" font-size="14.00">Samples weight: 0.00</text>
</g>
<!-- BB10&#45;&gt;BB12 -->
<g id="edge20" class="edge">
<title>BB10&#45;&gt;BB12</title>
<path fill="none" stroke="black" d="M1479.36,-998.47C1479.36,-990.3 1479.36,-981.52 1479.36,-972.99"/>
<polygon fill="black" stroke="black" points="1482.86,-972.78 1479.36,-962.78 1475.86,-972.78 1482.86,-972.78"/>
</g>
<!-- BB11&#45;&gt;BB12 -->
<g id="edge23" class="edge">
<title>BB11&#45;&gt;BB12</title>
<path fill="none" stroke="black" d="M1355.91,-925.1C1358.52,-925.1 1361.12,-925.1 1363.72,-925.1"/>
<polygon fill="black" stroke="black" points="1363.76,-928.6 1373.76,-925.1 1363.76,-921.6 1363.76,-928.6"/>
</g>
<!-- BB13 -->
<g id="node14" class="node">
<title>BB13</title>
<ellipse fill="none" stroke="black" cx="1250.36" cy="-814.15" rx="105.22" ry="37.45"/>
<text text-anchor="middle" x="1250.36" y="-825.45" font-family="Times New Roman,serif" font-size="14.00">[13a..141)</text>
<text text-anchor="middle" x="1250.36" y="-810.45" font-family="Times New Roman,serif" font-size="14.00">Normalized Count: 1.00</text>
<text text-anchor="middle" x="1250.36" y="-795.45" font-family="Times New Roman,serif" font-size="14.00">Samples weight: 0.00</text>
</g>
<!-- BB11&#45;&gt;BB13 -->
<g id="edge22" class="edge">
<title>BB11&#45;&gt;BB13</title>
<path fill="none" stroke="black" d="M1250.36,-887.52C1250.36,-879.35 1250.36,-870.57 1250.36,-862.04"/>
<polygon fill="black" stroke="black" points="1253.86,-861.82 1250.36,-851.82 1246.86,-861.82 1253.86,-861.82"/>
</g>
<!-- BB14 -->
<g id="node15" class="node">
<title>BB14</title>
<ellipse fill="none" stroke="black" cx="1479.36" cy="-814.15" rx="105.22" ry="37.45"/>
<text text-anchor="middle" x="1479.36" y="-825.45" font-family="Times New Roman,serif" font-size="14.00">[141..16d)</text>
<text text-anchor="middle" x="1479.36" y="-810.45" font-family="Times New Roman,serif" font-size="14.00">Normalized Count: 1.00</text>
<text text-anchor="middle" x="1479.36" y="-795.45" font-family="Times New Roman,serif" font-size="14.00">Samples weight: 0.00</text>
</g>
<!-- BB12&#45;&gt;BB14 -->
<g id="edge24" class="edge">
<title>BB12&#45;&gt;BB14</title>
<path fill="none" stroke="black" d="M1479.36,-887.52C1479.36,-879.35 1479.36,-870.57 1479.36,-862.04"/>
<polygon fill="black" stroke="black" points="1482.86,-861.82 1479.36,-851.82 1475.86,-861.82 1482.86,-861.82"/>
</g>
<!-- BB13&#45;&gt;BB14 -->
<g id="edge25" class="edge">
<title>BB13&#45;&gt;BB14</title>
<path fill="none" stroke="black" d="M1355.91,-814.15C1358.52,-814.15 1361.12,-814.15 1363.72,-814.15"/>
<polygon fill="black" stroke="black" points="1363.76,-817.65 1373.76,-814.15 1363.76,-810.65 1363.76,-817.65"/>
</g>
<!-- BB16 -->
<g id="node17" class="node">
<title>BB16</title>
<ellipse fill="none" stroke="black" cx="1472.36" cy="-703.2" rx="105.22" ry="37.45"/>
<text text-anchor="middle" x="1472.36" y="-714.5" font-family="Times New Roman,serif" font-size="14.00">[17e..182)</text>
<text text-anchor="middle" x="1472.36" y="-699.5" font-family="Times New Roman,serif" font-size="14.00">Normalized Count: 5.00</text>
<text text-anchor="middle" x="1472.36" y="-684.5" font-family="Times New Roman,serif" font-size="14.00">Samples weight: 0.01</text>
</g>
<!-- BB14&#45;&gt;BB16 -->
<g id="edge26" class="edge">
<title>BB14&#45;&gt;BB16</title>
<path fill="none" stroke="black" d="M1477.01,-776.57C1476.48,-768.39 1475.92,-759.61 1475.37,-751.09"/>
<polygon fill="black" stroke="black" points="1478.85,-750.62 1474.71,-740.87 1471.86,-751.07 1478.85,-750.62"/>
</g>
<!-- BB15 -->
<g id="node16" class="node">
<title>BB15</title>
<ellipse fill="none" stroke="black" cx="1446.36" cy="-592.24" rx="105.22" ry="37.45"/>
<text text-anchor="middle" x="1446.36" y="-603.54" font-family="Times New Roman,serif" font-size="14.00">[16d..17e)</text>
<text text-anchor="middle" x="1446.36" y="-588.54" font-family="Times New Roman,serif" font-size="14.00">Normalized Count: 4.00</text>
<text text-anchor="middle" x="1446.36" y="-573.54" font-family="Times New Roman,serif" font-size="14.00">Samples weight: 0.01</text>
</g>
<!-- BB15&#45;&gt;BB16 -->
<g id="edge27" class="edge">
<title>BB15&#45;&gt;BB16</title>
<path fill="none" stroke="black" d="M1461.43,-629.54C1463.74,-637.88 1465.98,-646.86 1467.92,-655.57"/>
<polygon fill="black" stroke="black" points="1464.55,-656.55 1470.04,-665.61 1471.4,-655.11 1464.55,-656.55"/>
</g>
<!-- BB16&#45;&gt;BB15 -->
<g id="edge28" class="edge">
<title>BB16&#45;&gt;BB15</title>
<path fill="none" stroke="black" d="M1457.3,-665.92C1454.95,-657.46 1452.68,-648.34 1450.72,-639.52"/>
<polygon fill="black" stroke="black" points="1454.15,-638.8 1448.66,-629.74 1447.3,-640.24 1454.15,-638.8"/>
</g>
<!-- BB17 -->
<g id="node18" class="node">
<title>BB17</title>
<ellipse fill="none" stroke="black" cx="1675.36" cy="-592.24" rx="105.22" ry="37.45"/>
<text text-anchor="middle" x="1675.36" y="-603.54" font-family="Times New Roman,serif" font-size="14.00">[182..186)</text>
<text text-anchor="middle" x="1675.36" y="-588.54" font-family="Times New Roman,serif" font-size="14.00">Normalized Count: 1.00</text>
<text text-anchor="middle" x="1675.36" y="-573.54" font-family="Times New Roman,serif" font-size="14.00">Samples weight: 0.00</text>
</g>
<!-- BB16&#45;&gt;BB17 -->
<g id="edge29" class="edge">
<title>BB16&#45;&gt;BB17</title>
<path fill="none" stroke="black" d="M1529.45,-671.56C1554.31,-658.21 1583.6,-642.49 1609.39,-628.65"/>
<polygon fill="black" stroke="black" points="1611.19,-631.65 1618.35,-623.84 1607.88,-625.49 1611.19,-631.65"/>
</g>
<!-- BB25 -->
<g id="node26" class="node">
<title>BB25</title>
<ellipse fill="none" stroke="black" cx="1570.36" cy="-481.29" rx="110.12" ry="37.45"/>
<text text-anchor="middle" x="1570.36" y="-492.59" font-family="Times New Roman,serif" font-size="14.00">[1e7..1ec)</text>
<text text-anchor="middle" x="1570.36" y="-477.59" font-family="Times New Roman,serif" font-size="14.00">Normalized Count: 65.00</text>
<text text-anchor="middle" x="1570.36" y="-462.59" font-family="Times New Roman,serif" font-size="14.00">Samples weight: 0.11</text>
</g>
<!-- BB17&#45;&gt;BB25 -->
<g id="edge30" class="edge">
<title>BB17&#45;&gt;BB25</title>
<path fill="none" stroke="black" d="M1641.85,-556.47C1632,-546.25 1621.12,-534.96 1610.88,-524.33"/>
<polygon fill="black" stroke="black" points="1613.37,-521.88 1603.91,-517.11 1608.33,-526.74 1613.37,-521.88"/>
</g>
<!-- BB18 -->
<g id="node19" class="node">
<title>BB18</title>
<ellipse fill="none" stroke="black" cx="1701.36" cy="-370.34" rx="110.12" ry="37.45"/>
<text text-anchor="middle" x="1701.36" y="-381.64" font-family="Times New Roman,serif" font-size="14.00">[186..199)</text>
<text text-anchor="middle" x="1701.36" y="-366.64" font-family="Times New Roman,serif" font-size="14.00">Normalized Count: 64.00</text>
<text text-anchor="middle" x="1701.36" y="-351.64" font-family="Times New Roman,serif" font-size="14.00">Samples weight: 0.11</text>
</g>
<!-- BB19 -->
<g id="node20" class="node">
<title>BB19</title>
<ellipse fill="none" stroke="black" cx="1940.36" cy="-259.38" rx="110.12" ry="37.45"/>
<text text-anchor="middle" x="1940.36" y="-270.68" font-family="Times New Roman,serif" font-size="14.00">[199..19f)</text>
<text text-anchor="middle" x="1940.36" y="-255.68" font-family="Times New Roman,serif" font-size="14.00">Normalized Count: 30.95</text>
<text text-anchor="middle" x="1940.36" y="-240.68" font-family="Times New Roman,serif" font-size="14.00">Samples weight: 0.05</text>
</g>
<!-- BB18&#45;&gt;BB19 -->
<g id="edge32" class="edge">
<title>BB18&#45;&gt;BB19</title>
<path fill="none" stroke="black" d="M1766.04,-339.85C1796.99,-325.74 1834.21,-308.78 1866.29,-294.15"/>
<polygon fill="black" stroke="black" points="1867.98,-297.22 1875.63,-289.89 1865.08,-290.85 1867.98,-297.22"/>
</g>
<!-- BB23 -->
<g id="node24" class="node">
<title>BB23</title>
<ellipse fill="none" stroke="black" cx="1701.36" cy="-259.38" rx="110.12" ry="37.45"/>
<text text-anchor="middle" x="1701.36" y="-270.68" font-family="Times New Roman,serif" font-size="14.00">[1cc..1ce)</text>
<text text-anchor="middle" x="1701.36" y="-255.68" font-family="Times New Roman,serif" font-size="14.00">Normalized Count: 33.05</text>
<text text-anchor="middle" x="1701.36" y="-240.68" font-family="Times New Roman,serif" font-size="14.00">Samples weight: 0.06</text>
</g>
<!-- BB18&#45;&gt;BB23 -->
<g id="edge31" class="edge">
<title>BB18&#45;&gt;BB23</title>
<path fill="none" stroke="black" d="M1701.36,-332.75C1701.36,-324.58 1701.36,-315.8 1701.36,-307.27"/>
<polygon fill="black" stroke="black" points="1704.86,-307.06 1701.36,-297.06 1697.86,-307.06 1704.86,-307.06"/>
</g>
<!-- BB21 -->
<g id="node22" class="node">
<title>BB21</title>
<ellipse fill="none" stroke="black" cx="1940.36" cy="-148.43" rx="115.02" ry="37.45"/>
<text text-anchor="middle" x="1940.36" y="-159.73" font-family="Times New Roman,serif" font-size="14.00">[1c6..1ca)</text>
<text text-anchor="middle" x="1940.36" y="-144.73" font-family="Times New Roman,serif" font-size="14.00">Normalized Count: 154.73</text>
<text text-anchor="middle" x="1940.36" y="-129.73" font-family="Times New Roman,serif" font-size="14.00">Samples weight: 0.26</text>
</g>
<!-- BB19&#45;&gt;BB21 -->
<g id="edge33" class="edge">
<title>BB19&#45;&gt;BB21</title>
<path fill="none" stroke="black" d="M1940.36,-221.8C1940.36,-213.63 1940.36,-204.85 1940.36,-196.32"/>
<polygon fill="black" stroke="black" points="1943.86,-196.1 1940.36,-186.1 1936.86,-196.1 1943.86,-196.1"/>
</g>
<!-- BB20 -->
<g id="node21" class="node">
<title>BB20</title>
<ellipse fill="none" stroke="black" cx="1940.36" cy="-37.48" rx="115.02" ry="37.45"/>
<text text-anchor="middle" x="1940.36" y="-48.78" font-family="Times New Roman,serif" font-size="14.00">[19f..1c6)</text>
<text text-anchor="middle" x="1940.36" y="-33.78" font-family="Times New Roman,serif" font-size="14.00">Normalized Count: 123.78</text>
<text text-anchor="middle" x="1940.36" y="-18.78" font-family="Times New Roman,serif" font-size="14.00">Samples weight: 0.21</text>
</g>
<!-- BB20&#45;&gt;BB21 -->
<g id="edge34" class="edge">
<title>BB20&#45;&gt;BB21</title>
<path fill="none" stroke="black" d="M1946.78,-75.15C1947.09,-83.33 1947.18,-92.11 1947.05,-100.63"/>
<polygon fill="black" stroke="black" points="1943.54,-100.76 1946.77,-110.85 1950.54,-100.94 1943.54,-100.76"/>
</g>
<!-- BB21&#45;&gt;BB20 -->
<g id="edge35" class="edge">
<title>BB21&#45;&gt;BB20</title>
<path fill="none" stroke="black" d="M1933.94,-110.85C1933.63,-102.67 1933.54,-93.89 1933.67,-85.37"/>
<polygon fill="black" stroke="black" points="1937.17,-85.24 1933.94,-75.15 1930.17,-85.05 1937.17,-85.24"/>
</g>
<!-- BB22 -->
<g id="node23" class="node">
<title>BB22</title>
<ellipse fill="none" stroke="black" cx="1696.36" cy="-37.48" rx="110.12" ry="37.45"/>
<text text-anchor="middle" x="1696.36" y="-48.78" font-family="Times New Roman,serif" font-size="14.00">[1ca..1cc)</text>
<text text-anchor="middle" x="1696.36" y="-33.78" font-family="Times New Roman,serif" font-size="14.00">Normalized Count: 30.95</text>
<text text-anchor="middle" x="1696.36" y="-18.78" font-family="Times New Roman,serif" font-size="14.00">Samples weight: 0.05</text>
</g>
<!-- BB21&#45;&gt;BB22 -->
<g id="edge36" class="edge">
<title>BB21&#45;&gt;BB22</title>
<path fill="none" stroke="black" d="M1873.68,-117.66C1842.09,-103.55 1804.22,-86.64 1771.6,-72.08"/>
<polygon fill="black" stroke="black" points="1772.67,-68.72 1762.11,-67.84 1769.81,-75.11 1772.67,-68.72"/>
</g>
<!-- BB24 -->
<g id="node25" class="node">
<title>BB24</title>
<ellipse fill="none" stroke="black" cx="1696.36" cy="-148.43" rx="110.12" ry="37.45"/>
<text text-anchor="middle" x="1696.36" y="-159.73" font-family="Times New Roman,serif" font-size="14.00">[1ce..1e7)</text>
<text text-anchor="middle" x="1696.36" y="-144.73" font-family="Times New Roman,serif" font-size="14.00">Normalized Count: 64.00</text>
<text text-anchor="middle" x="1696.36" y="-129.73" font-family="Times New Roman,serif" font-size="14.00">Samples weight: 0.11</text>
</g>
<!-- BB22&#45;&gt;BB24 -->
<g id="edge37" class="edge">
<title>BB22&#45;&gt;BB24</title>
<path fill="none" stroke="black" d="M1696.36,-75.15C1696.36,-83.33 1696.36,-92.11 1696.36,-100.63"/>
<polygon fill="black" stroke="black" points="1692.86,-100.85 1696.36,-110.85 1699.86,-100.85 1692.86,-100.85"/>
</g>
<!-- BB23&#45;&gt;BB24 -->
<g id="edge38" class="edge">
<title>BB23&#45;&gt;BB24</title>
<path fill="none" stroke="black" d="M1699.68,-221.8C1699.3,-213.63 1698.9,-204.85 1698.51,-196.32"/>
<polygon fill="black" stroke="black" points="1702,-195.93 1698.04,-186.1 1695,-196.25 1702,-195.93"/>
</g>
<!-- BB24&#45;&gt;BB25 -->
<g id="edge39" class="edge">
<title>BB24&#45;&gt;BB25</title>
<path fill="none" stroke="black" d="M1628.38,-178.12C1610.37,-189.11 1593.01,-203.55 1582.36,-221.91 1544.37,-287.42 1551.22,-378.74 1560.33,-433.44"/>
<polygon fill="black" stroke="black" points="1556.92,-434.3 1562.1,-443.54 1563.82,-433.09 1556.92,-434.3"/>
</g>
<!-- BB25&#45;&gt;BB18 -->
<g id="edge40" class="edge">
<title>BB25&#45;&gt;BB18</title>
<path fill="none" stroke="black" d="M1611.09,-446.41C1624.28,-435.45 1639.03,-423.18 1652.73,-411.78"/>
<polygon fill="black" stroke="black" points="1655.2,-414.28 1660.65,-405.19 1650.73,-408.9 1655.2,-414.28"/>
</g>
<!-- BB26 -->
<g id="node27" class="node">
<title>BB26</title>
<ellipse fill="none" stroke="black" cx="1404.36" cy="-370.34" rx="105.22" ry="37.45"/>
<text text-anchor="middle" x="1404.36" y="-381.64" font-family="Times New Roman,serif" font-size="14.00">[1ec..1ee)</text>
<text text-anchor="middle" x="1404.36" y="-366.64" font-family="Times New Roman,serif" font-size="14.00">Normalized Count: 1.00</text>
<text text-anchor="middle" x="1404.36" y="-351.64" font-family="Times New Roman,serif" font-size="14.00">Samples weight: 0.00</text>
</g>
<!-- BB25&#45;&gt;BB26 -->
<g id="edge41" class="edge">
<title>BB25&#45;&gt;BB26</title>
<path fill="none" stroke="black" d="M1520.55,-447.6C1502.17,-435.53 1481.18,-421.76 1462.15,-409.27"/>
<polygon fill="black" stroke="black" points="1463.84,-406.19 1453.56,-403.63 1460,-412.04 1463.84,-406.19"/>
</g>
<!-- BB28 -->
<g id="node29" class="node">
<title>BB28</title>
<ellipse fill="none" stroke="black" cx="1377.36" cy="-259.38" rx="105.22" ry="37.45"/>
<text text-anchor="middle" x="1377.36" y="-270.68" font-family="Times New Roman,serif" font-size="14.00">[214..224)</text>
<text text-anchor="middle" x="1377.36" y="-255.68" font-family="Times New Roman,serif" font-size="14.00">Normalized Count: 1.53</text>
<text text-anchor="middle" x="1377.36" y="-240.68" font-family="Times New Roman,serif" font-size="14.00">Samples weight: 0.00</text>
</g>
<!-- BB26&#45;&gt;BB28 -->
<g id="edge42" class="edge">
<title>BB26&#45;&gt;BB28</title>
<path fill="none" stroke="black" d="M1395.29,-332.75C1393.25,-324.49 1391.04,-315.61 1388.91,-306.99"/>
<polygon fill="black" stroke="black" points="1392.25,-305.92 1386.45,-297.06 1385.45,-307.6 1392.25,-305.92"/>
</g>
<!-- BB27 -->
<g id="node28" class="node">
<title>BB27</title>
<ellipse fill="none" stroke="black" cx="1377.36" cy="-148.43" rx="105.22" ry="37.45"/>
<text text-anchor="middle" x="1377.36" y="-159.73" font-family="Times New Roman,serif" font-size="14.00">[1ee..214)</text>
<text text-anchor="middle" x="1377.36" y="-144.73" font-family="Times New Roman,serif" font-size="14.00">Normalized Count: 0.53</text>
<text text-anchor="middle" x="1377.36" y="-129.73" font-family="Times New Roman,serif" font-size="14.00">Samples weight: 0.00</text>
</g>
<!-- BB27&#45;&gt;BB28 -->
<g id="edge43" class="edge">
<title>BB27&#45;&gt;BB28</title>
<path fill="none" stroke="black" d="M1383.78,-186.1C1384.09,-194.28 1384.18,-203.06 1384.05,-211.59"/>
<polygon fill="black" stroke="black" points="1380.54,-211.71 1383.77,-221.8 1387.54,-211.9 1380.54,-211.71"/>
</g>
<!-- BB28&#45;&gt;BB27 -->
<g id="edge44" class="edge">
<title>BB28&#45;&gt;BB27</title>
<path fill="none" stroke="black" d="M1370.94,-221.8C1370.63,-213.63 1370.54,-204.85 1370.67,-196.32"/>
<polygon fill="black" stroke="black" points="1374.17,-196.19 1370.94,-186.1 1367.17,-196 1374.17,-196.19"/>
</g>
<!-- BB29 -->
<g id="node30" class="node">
<title>BB29</title>
<ellipse fill="none" stroke="black" cx="938.36" cy="-148.43" rx="105.22" ry="37.45"/>
<text text-anchor="middle" x="938.36" y="-159.73" font-family="Times New Roman,serif" font-size="14.00">[224..22c)</text>
<text text-anchor="middle" x="938.36" y="-144.73" font-family="Times New Roman,serif" font-size="14.00">Normalized Count: 1.00</text>
<text text-anchor="middle" x="938.36" y="-129.73" font-family="Times New Roman,serif" font-size="14.00">Samples weight: 0.00</text>
</g>
<!-- BB28&#45;&gt;BB29 -->
<g id="edge45" class="edge">
<title>BB28&#45;&gt;BB29</title>
<path fill="none" stroke="black" d="M1292.19,-237.25C1217.95,-218.82 1110.39,-192.12 1033.37,-173.01"/>
<polygon fill="black" stroke="black" points="1034.21,-169.61 1023.66,-170.6 1032.52,-176.41 1034.21,-169.61"/>
</g>
<!-- BB30 -->
<g id="node31" class="node">
<title>BB30</title>
<ellipse fill="none" stroke="black" cx="872.36" cy="-37.48" rx="105.22" ry="37.45"/>
<text text-anchor="middle" x="872.36" y="-48.78" font-family="Times New Roman,serif" font-size="14.00">[22c..240)</text>
<text text-anchor="middle" x="872.36" y="-33.78" font-family="Times New Roman,serif" font-size="14.00">Normalized Count: 0.00</text>
<text text-anchor="middle" x="872.36" y="-18.78" font-family="Times New Roman,serif" font-size="14.00">Samples weight: 0.00</text>
</g>
<!-- BB29&#45;&gt;BB30 -->
<g id="edge47" class="edge">
<title>BB29&#45;&gt;BB30</title>
<path fill="none" stroke="black" d="M916.57,-111.45C911.1,-102.43 905.17,-92.65 899.49,-83.26"/>
<polygon fill="black" stroke="black" points="902.3,-81.16 894.13,-74.42 896.32,-84.78 902.3,-81.16"/>
</g>
<!-- BB29&#45;&gt;BB32 -->
<g id="edge46" class="edge">
<title>BB29&#45;&gt;BB32</title>
<path fill="none" stroke="black" d="M925.64,-185.88C911.72,-229.1 891.36,-303.55 891.36,-369.34 891.36,-926.1 891.36,-926.1 891.36,-926.1 891.36,-990.4 859.08,-1058.46 834.07,-1101.53"/>
<polygon fill="black" stroke="black" points="830.94,-1099.95 828.86,-1110.33 836.97,-1103.51 830.94,-1099.95"/>
</g>
<!-- BB30&#45;&gt;BB32 -->
<g id="edge48" class="edge">
<title>BB30&#45;&gt;BB32</title>
<path fill="none" stroke="black" d="M844.22,-73.95C836.6,-85.21 829.15,-98.08 824.36,-110.95 801.3,-172.86 805.36,-192.32 805.36,-258.38 805.36,-926.1 805.36,-926.1 805.36,-926.1 805.36,-985.84 805.36,-1054.69 805.36,-1099.21"/>
<polygon fill="black" stroke="black" points="801.86,-1099.43 805.36,-1109.43 808.86,-1099.43 801.86,-1099.43"/>
</g>
<!-- BB31&#45;&gt;BB32 -->
<g id="edge49" class="edge">
<title>BB31&#45;&gt;BB32</title>
<path fill="none" stroke="black" d="M1405.03,-1231.27C1391.61,-1227.23 1377.65,-1223.43 1364.36,-1220.49 1211.56,-1186.63 1031.52,-1166.79 917.9,-1156.67"/>
<polygon fill="black" stroke="black" points="918.07,-1153.17 907.8,-1155.78 917.45,-1160.14 918.07,-1153.17"/>
</g>
</g>
</svg>
