<?xml version="1.0" encoding="UTF-8" standalone="no"?>
<!DOCTYPE svg PUBLIC "-//W3C//DTD SVG 1.1//EN"
 "http://www.w3.org/Graphics/SVG/1.1/DTD/svg11.dtd">
<!-- Generated by graphviz version 2.47.0 (20210316.0004)
 -->
<!-- Title: G Pages: 1 -->
<svg width="886pt" height="368pt"
 viewBox="0.00 0.00 886.48 368.50" xmlns="http://www.w3.org/2000/svg" xmlns:xlink="http://www.w3.org/1999/xlink">
<g id="graph0" class="graph" transform="scale(1 1) rotate(0) translate(4 364.5)">
<title>G</title>
<polygon fill="white" stroke="transparent" points="-4,4 -4,-364.5 882.48,-364.5 882.48,4 -4,4"/>
<!-- BB0 -->
<g id="node1" class="node">
<title>BB0</title>
<ellipse fill="none" stroke="black" cx="439.24" cy="-312.42" rx="103.48" ry="48.17"/>
<text text-anchor="middle" x="439.24" y="-331.22" font-family="Times New Roman,serif" font-size="14.00">[0..12)</text>
<text text-anchor="middle" x="439.24" y="-316.22" font-family="Times New Roman,serif" font-size="14.00">Count: 3422</text>
<text text-anchor="middle" x="439.24" y="-301.22" font-family="Times New Roman,serif" font-size="14.00">Normalized count: 1.00</text>
<text text-anchor="middle" x="439.24" y="-286.22" font-family="Times New Roman,serif" font-size="14.00">Samples weight: 0.24</text>
</g>
<!-- BB1 -->
<g id="node2" class="node">
<title>BB1</title>
<ellipse fill="none" stroke="black" cx="103.24" cy="-180.25" rx="103.48" ry="48.17"/>
<text text-anchor="middle" x="103.24" y="-199.05" font-family="Times New Roman,serif" font-size="14.00">[12..14)</text>
<text text-anchor="middle" x="103.24" y="-184.05" font-family="Times New Roman,serif" font-size="14.00">Count: 0</text>
<text text-anchor="middle" x="103.24" y="-169.05" font-family="Times New Roman,serif" font-size="14.00">Normalized count: 0.00</text>
<text text-anchor="middle" x="103.24" y="-154.05" font-family="Times New Roman,serif" font-size="14.00">Samples weight: 0.00</text>
</g>
<!-- BB0&#45;&gt;BB1 -->
<g id="edge1" class="edge">
<title>BB0&#45;&gt;BB1</title>
<path fill="none" stroke="black" d="M358.31,-282.35C315.59,-266.76 262.39,-246.98 215.24,-228.33 206.26,-224.78 196.92,-221 187.63,-217.18"/>
<polygon fill="black" stroke="black" points="188.94,-213.94 178.36,-213.35 186.27,-220.41 188.94,-213.94"/>
</g>
<!-- BB2 -->
<g id="node3" class="node">
<title>BB2</title>
<ellipse fill="none" stroke="black" cx="327.24" cy="-180.25" rx="103.48" ry="48.17"/>
<text text-anchor="middle" x="327.24" y="-199.05" font-family="Times New Roman,serif" font-size="14.00">[14..26)</text>
<text text-anchor="middle" x="327.24" y="-184.05" font-family="Times New Roman,serif" font-size="14.00">Count: 43</text>
<text text-anchor="middle" x="327.24" y="-169.05" font-family="Times New Roman,serif" font-size="14.00">Normalized count: 0.01</text>
<text text-anchor="middle" x="327.24" y="-154.05" font-family="Times New Roman,serif" font-size="14.00">Samples weight: 0.00</text>
</g>
<!-- BB0&#45;&gt;BB2 -->
<g id="edge2" class="edge">
<title>BB0&#45;&gt;BB2</title>
<path fill="none" stroke="black" d="M401.32,-267.35C391.83,-256.32 381.57,-244.39 371.79,-233.03"/>
<polygon fill="black" stroke="black" points="374.29,-230.57 365.12,-225.27 368.99,-235.14 374.29,-230.57"/>
</g>
<!-- BB3 -->
<g id="node4" class="node">
<title>BB3</title>
<ellipse fill="none" stroke="black" cx="551.24" cy="-180.25" rx="103.48" ry="48.17"/>
<text text-anchor="middle" x="551.24" y="-199.05" font-family="Times New Roman,serif" font-size="14.00">[26..41)</text>
<text text-anchor="middle" x="551.24" y="-184.05" font-family="Times New Roman,serif" font-size="14.00">Count: 5491</text>
<text text-anchor="middle" x="551.24" y="-169.05" font-family="Times New Roman,serif" font-size="14.00">Normalized count: 1.60</text>
<text text-anchor="middle" x="551.24" y="-154.05" font-family="Times New Roman,serif" font-size="14.00">Samples weight: 0.38</text>
</g>
<!-- BB0&#45;&gt;BB3 -->
<g id="edge3" class="edge">
<title>BB0&#45;&gt;BB3</title>
<path fill="none" stroke="black" d="M477.16,-267.35C486.64,-256.32 496.91,-244.39 506.68,-233.03"/>
<polygon fill="black" stroke="black" points="509.49,-235.14 513.36,-225.27 504.18,-230.57 509.49,-235.14"/>
</g>
<!-- BB4 -->
<g id="node5" class="node">
<title>BB4</title>
<ellipse fill="none" stroke="black" cx="775.24" cy="-180.25" rx="103.48" ry="48.17"/>
<text text-anchor="middle" x="775.24" y="-199.05" font-family="Times New Roman,serif" font-size="14.00">[41..5c)</text>
<text text-anchor="middle" x="775.24" y="-184.05" font-family="Times New Roman,serif" font-size="14.00">Count: 5399</text>
<text text-anchor="middle" x="775.24" y="-169.05" font-family="Times New Roman,serif" font-size="14.00">Normalized count: 1.58</text>
<text text-anchor="middle" x="775.24" y="-154.05" font-family="Times New Roman,serif" font-size="14.00">Samples weight: 0.38</text>
</g>
<!-- BB0&#45;&gt;BB4 -->
<g id="edge4" class="edge">
<title>BB0&#45;&gt;BB4</title>
<path fill="none" stroke="black" d="M520.17,-282.35C562.88,-266.76 616.08,-246.98 663.24,-228.33 672.21,-224.78 681.55,-221 690.85,-217.18"/>
<polygon fill="black" stroke="black" points="692.21,-220.41 700.11,-213.35 689.53,-213.94 692.21,-220.41"/>
</g>
<!-- BB5 -->
<g id="node6" class="node">
<title>BB5</title>
<ellipse fill="none" stroke="black" cx="103.24" cy="-48.08" rx="103.48" ry="48.17"/>
<text text-anchor="middle" x="103.24" y="-66.88" font-family="Times New Roman,serif" font-size="14.00">[5c..66)</text>
<text text-anchor="middle" x="103.24" y="-51.88" font-family="Times New Roman,serif" font-size="14.00">Count: 0</text>
<text text-anchor="middle" x="103.24" y="-36.88" font-family="Times New Roman,serif" font-size="14.00">Normalized count: 0.00</text>
<text text-anchor="middle" x="103.24" y="-21.88" font-family="Times New Roman,serif" font-size="14.00">Samples weight: 0.00</text>
</g>
<!-- BB1&#45;&gt;BB5 -->
<g id="edge5" class="edge">
<title>BB1&#45;&gt;BB5</title>
<path fill="none" stroke="black" d="M103.24,-131.89C103.24,-123.62 103.24,-114.94 103.24,-106.43"/>
<polygon fill="black" stroke="black" points="106.74,-106.19 103.24,-96.19 99.74,-106.19 106.74,-106.19"/>
</g>
</g>
</svg>
