<?xml version="1.0" encoding="UTF-8" standalone="no"?>
<!DOCTYPE svg PUBLIC "-//W3C//DTD SVG 1.1//EN"
 "http://www.w3.org/Graphics/SVG/1.1/DTD/svg11.dtd">
<!-- Generated by graphviz version 2.47.0 (20210316.0004)
 -->
<!-- Title: G Pages: 1 -->
<svg width="664pt" height="633pt"
 viewBox="0.00 0.00 664.48 632.83" xmlns="http://www.w3.org/2000/svg" xmlns:xlink="http://www.w3.org/1999/xlink">
<g id="graph0" class="graph" transform="scale(1 1) rotate(0) translate(4 628.83)">
<title>G</title>
<polygon fill="white" stroke="transparent" points="-4,4 -4,-628.83 660.48,-628.83 660.48,4 -4,4"/>
<!-- BB0 -->
<g id="node1" class="node">
<title>BB0</title>
<ellipse fill="none" stroke="black" cx="441.24" cy="-576.75" rx="103.48" ry="48.17"/>
<text text-anchor="middle" x="441.24" y="-595.55" font-family="Times New Roman,serif" font-size="14.00">[0..3)</text>
<text text-anchor="middle" x="441.24" y="-580.55" font-family="Times New Roman,serif" font-size="14.00">Count: 95</text>
<text text-anchor="middle" x="441.24" y="-565.55" font-family="Times New Roman,serif" font-size="14.00">Normalized count: 1.00</text>
<text text-anchor="middle" x="441.24" y="-550.55" font-family="Times New Roman,serif" font-size="14.00">Samples weight: 0.05</text>
</g>
<!-- BB1 -->
<g id="node2" class="node">
<title>BB1</title>
<ellipse fill="none" stroke="black" cx="329.24" cy="-444.58" rx="103.48" ry="48.17"/>
<text text-anchor="middle" x="329.24" y="-463.38" font-family="Times New Roman,serif" font-size="14.00">[3..6)</text>
<text text-anchor="middle" x="329.24" y="-448.38" font-family="Times New Roman,serif" font-size="14.00">Count: 34</text>
<text text-anchor="middle" x="329.24" y="-433.38" font-family="Times New Roman,serif" font-size="14.00">Normalized count: 0.36</text>
<text text-anchor="middle" x="329.24" y="-418.38" font-family="Times New Roman,serif" font-size="14.00">Samples weight: 0.02</text>
</g>
<!-- BB0&#45;&gt;BB1 -->
<g id="edge2" class="edge">
<title>BB0&#45;&gt;BB1</title>
<path fill="none" stroke="black" d="M403.32,-531.68C393.83,-520.65 383.57,-508.73 373.79,-497.36"/>
<polygon fill="black" stroke="black" points="376.29,-494.9 367.12,-489.61 370.99,-499.47 376.29,-494.9"/>
</g>
<!-- BB7 -->
<g id="node8" class="node">
<title>BB7</title>
<ellipse fill="none" stroke="black" cx="553.24" cy="-444.58" rx="103.48" ry="48.17"/>
<text text-anchor="middle" x="553.24" y="-463.38" font-family="Times New Roman,serif" font-size="14.00">[2a..2f)</text>
<text text-anchor="middle" x="553.24" y="-448.38" font-family="Times New Roman,serif" font-size="14.00">Count: 0</text>
<text text-anchor="middle" x="553.24" y="-433.38" font-family="Times New Roman,serif" font-size="14.00">Normalized count: 0.00</text>
<text text-anchor="middle" x="553.24" y="-418.38" font-family="Times New Roman,serif" font-size="14.00">Samples weight: 0.00</text>
</g>
<!-- BB0&#45;&gt;BB7 -->
<g id="edge1" class="edge">
<title>BB0&#45;&gt;BB7</title>
<path fill="none" stroke="black" d="M479.16,-531.68C488.64,-520.65 498.91,-508.73 508.68,-497.36"/>
<polygon fill="black" stroke="black" points="511.49,-499.47 515.36,-489.61 506.18,-494.9 511.49,-499.47"/>
</g>
<!-- BB2 -->
<g id="node3" class="node">
<title>BB2</title>
<ellipse fill="none" stroke="black" cx="215.24" cy="-312.42" rx="108.38" ry="48.17"/>
<text text-anchor="middle" x="215.24" y="-331.22" font-family="Times New Roman,serif" font-size="14.00">[6..1e)</text>
<text text-anchor="middle" x="215.24" y="-316.22" font-family="Times New Roman,serif" font-size="14.00">Count: 1347</text>
<text text-anchor="middle" x="215.24" y="-301.22" font-family="Times New Roman,serif" font-size="14.00">Normalized count: 14.18</text>
<text text-anchor="middle" x="215.24" y="-286.22" font-family="Times New Roman,serif" font-size="14.00">Samples weight: 0.67</text>
</g>
<!-- BB1&#45;&gt;BB2 -->
<g id="edge4" class="edge">
<title>BB1&#45;&gt;BB2</title>
<path fill="none" stroke="black" d="M290.96,-399.88C281.29,-388.84 270.81,-376.87 260.82,-365.46"/>
<polygon fill="black" stroke="black" points="263.22,-362.89 254,-357.67 257.95,-367.5 263.22,-362.89"/>
</g>
<!-- BB6 -->
<g id="node7" class="node">
<title>BB6</title>
<ellipse fill="none" stroke="black" cx="444.24" cy="-312.42" rx="103.48" ry="48.17"/>
<text text-anchor="middle" x="444.24" y="-331.22" font-family="Times New Roman,serif" font-size="14.00">[25..2a)</text>
<text text-anchor="middle" x="444.24" y="-316.22" font-family="Times New Roman,serif" font-size="14.00">Count: 0</text>
<text text-anchor="middle" x="444.24" y="-301.22" font-family="Times New Roman,serif" font-size="14.00">Normalized count: 0.00</text>
<text text-anchor="middle" x="444.24" y="-286.22" font-family="Times New Roman,serif" font-size="14.00">Samples weight: 0.00</text>
</g>
<!-- BB1&#45;&gt;BB6 -->
<g id="edge3" class="edge">
<title>BB1&#45;&gt;BB6</title>
<path fill="none" stroke="black" d="M367.85,-399.88C377.81,-388.61 388.61,-376.38 398.88,-364.76"/>
<polygon fill="black" stroke="black" points="401.53,-367.04 405.53,-357.23 396.29,-362.41 401.53,-367.04"/>
</g>
<!-- BB3 -->
<g id="node4" class="node">
<title>BB3</title>
<ellipse fill="none" stroke="black" cx="103.24" cy="-180.25" rx="103.48" ry="48.17"/>
<text text-anchor="middle" x="103.24" y="-199.05" font-family="Times New Roman,serif" font-size="14.00">[1e..21)</text>
<text text-anchor="middle" x="103.24" y="-184.05" font-family="Times New Roman,serif" font-size="14.00">Count: 236</text>
<text text-anchor="middle" x="103.24" y="-169.05" font-family="Times New Roman,serif" font-size="14.00">Normalized count: 2.48</text>
<text text-anchor="middle" x="103.24" y="-154.05" font-family="Times New Roman,serif" font-size="14.00">Samples weight: 0.12</text>
</g>
<!-- BB2&#45;&gt;BB3 -->
<g id="edge6" class="edge">
<title>BB2&#45;&gt;BB3</title>
<path fill="none" stroke="black" d="M177.32,-267.35C167.83,-256.32 157.57,-244.39 147.79,-233.03"/>
<polygon fill="black" stroke="black" points="150.29,-230.57 141.12,-225.27 144.99,-235.14 150.29,-230.57"/>
</g>
<!-- BB4 -->
<g id="node5" class="node">
<title>BB4</title>
<ellipse fill="none" stroke="black" cx="327.24" cy="-180.25" rx="103.48" ry="48.17"/>
<text text-anchor="middle" x="327.24" y="-199.05" font-family="Times New Roman,serif" font-size="14.00">[21..22)</text>
<text text-anchor="middle" x="327.24" y="-184.05" font-family="Times New Roman,serif" font-size="14.00">Count: 3</text>
<text text-anchor="middle" x="327.24" y="-169.05" font-family="Times New Roman,serif" font-size="14.00">Normalized count: 0.03</text>
<text text-anchor="middle" x="327.24" y="-154.05" font-family="Times New Roman,serif" font-size="14.00">Samples weight: 0.00</text>
</g>
<!-- BB2&#45;&gt;BB4 -->
<g id="edge5" class="edge">
<title>BB2&#45;&gt;BB4</title>
<path fill="none" stroke="black" d="M253.16,-267.35C262.64,-256.32 272.91,-244.39 282.68,-233.03"/>
<polygon fill="black" stroke="black" points="285.49,-235.14 289.36,-225.27 280.18,-230.57 285.49,-235.14"/>
</g>
<!-- BB5 -->
<g id="node6" class="node">
<title>BB5</title>
<ellipse fill="none" stroke="black" cx="215.24" cy="-48.08" rx="103.48" ry="48.17"/>
<text text-anchor="middle" x="215.24" y="-66.88" font-family="Times New Roman,serif" font-size="14.00">[22..25)</text>
<text text-anchor="middle" x="215.24" y="-51.88" font-family="Times New Roman,serif" font-size="14.00">Count: 306</text>
<text text-anchor="middle" x="215.24" y="-36.88" font-family="Times New Roman,serif" font-size="14.00">Normalized count: 3.22</text>
<text text-anchor="middle" x="215.24" y="-21.88" font-family="Times New Roman,serif" font-size="14.00">Samples weight: 0.15</text>
</g>
<!-- BB3&#45;&gt;BB5 -->
<g id="edge7" class="edge">
<title>BB3&#45;&gt;BB5</title>
<path fill="none" stroke="black" d="M141.16,-135.18C150.64,-124.16 160.91,-112.23 170.68,-100.86"/>
<polygon fill="black" stroke="black" points="173.49,-102.97 177.36,-93.11 168.18,-98.4 173.49,-102.97"/>
</g>
<!-- BB4&#45;&gt;BB5 -->
<g id="edge8" class="edge">
<title>BB4&#45;&gt;BB5</title>
<path fill="none" stroke="black" d="M289.32,-135.18C279.83,-124.16 269.57,-112.23 259.79,-100.86"/>
<polygon fill="black" stroke="black" points="262.29,-98.4 253.12,-93.11 256.99,-102.97 262.29,-98.4"/>
</g>
</g>
</svg>
