<?xml version="1.0" encoding="UTF-8" standalone="no"?>
<!DOCTYPE svg PUBLIC "-//W3C//DTD SVG 1.1//EN"
 "http://www.w3.org/Graphics/SVG/1.1/DTD/svg11.dtd">
<!-- Generated by graphviz version 2.47.0 (20210316.0004)
 -->
<!-- Title: G Pages: 1 -->
<svg width="1120pt" height="897pt"
 viewBox="0.00 0.00 1120.50 897.17" xmlns="http://www.w3.org/2000/svg" xmlns:xlink="http://www.w3.org/1999/xlink">
<g id="graph0" class="graph" transform="scale(1 1) rotate(0) translate(4 893.17)">
<title>G</title>
<polygon fill="white" stroke="transparent" points="-4,4 -4,-893.17 1116.5,-893.17 1116.5,4 -4,4"/>
<!-- BB0 -->
<g id="node1" class="node">
<title>BB0</title>
<ellipse fill="none" stroke="black" cx="240.84" cy="-841.08" rx="104.8" ry="48.17"/>
<text text-anchor="middle" x="240.84" y="-859.88" font-family="Times New Roman,serif" font-size="14.00">[0..a)</text>
<text text-anchor="middle" x="240.84" y="-844.88" font-family="Times New Roman,serif" font-size="14.00">Count: 0</text>
<text text-anchor="middle" x="240.84" y="-829.88" font-family="Times New Roman,serif" font-size="14.00">Normalized count: NaN</text>
<text text-anchor="middle" x="240.84" y="-814.88" font-family="Times New Roman,serif" font-size="14.00">Samples weight: 0.00</text>
</g>
<!-- BB8 -->
<g id="node9" class="node">
<title>BB8</title>
<ellipse fill="none" stroke="black" cx="240.84" cy="-708.92" rx="113.69" ry="48.17"/>
<text text-anchor="middle" x="240.84" y="-727.72" font-family="Times New Roman,serif" font-size="14.00">[3a..3f)</text>
<text text-anchor="middle" x="240.84" y="-712.72" font-family="Times New Roman,serif" font-size="14.00">Count: 3</text>
<text text-anchor="middle" x="240.84" y="-697.72" font-family="Times New Roman,serif" font-size="14.00">Normalized count: Infinity</text>
<text text-anchor="middle" x="240.84" y="-682.72" font-family="Times New Roman,serif" font-size="14.00">Samples weight: 0.00</text>
</g>
<!-- BB0&#45;&gt;BB8 -->
<g id="edge1" class="edge">
<title>BB0&#45;&gt;BB8</title>
<path fill="none" stroke="black" d="M240.84,-792.72C240.84,-784.45 240.84,-775.77 240.84,-767.27"/>
<polygon fill="black" stroke="black" points="244.34,-767.02 240.84,-757.02 237.34,-767.02 244.34,-767.02"/>
</g>
<!-- BB1 -->
<g id="node2" class="node">
<title>BB1</title>
<ellipse fill="none" stroke="black" cx="240.84" cy="-576.75" rx="113.69" ry="48.17"/>
<text text-anchor="middle" x="240.84" y="-595.55" font-family="Times New Roman,serif" font-size="14.00">[a..e)</text>
<text text-anchor="middle" x="240.84" y="-580.55" font-family="Times New Roman,serif" font-size="14.00">Count: 3</text>
<text text-anchor="middle" x="240.84" y="-565.55" font-family="Times New Roman,serif" font-size="14.00">Normalized count: Infinity</text>
<text text-anchor="middle" x="240.84" y="-550.55" font-family="Times New Roman,serif" font-size="14.00">Samples weight: 0.00</text>
</g>
<!-- BB3 -->
<g id="node4" class="node">
<title>BB3</title>
<ellipse fill="none" stroke="black" cx="240.84" cy="-444.58" rx="113.69" ry="48.17"/>
<text text-anchor="middle" x="240.84" y="-463.38" font-family="Times New Roman,serif" font-size="14.00">[1c..20)</text>
<text text-anchor="middle" x="240.84" y="-448.38" font-family="Times New Roman,serif" font-size="14.00">Count: 1006</text>
<text text-anchor="middle" x="240.84" y="-433.38" font-family="Times New Roman,serif" font-size="14.00">Normalized count: Infinity</text>
<text text-anchor="middle" x="240.84" y="-418.38" font-family="Times New Roman,serif" font-size="14.00">Samples weight: 0.15</text>
</g>
<!-- BB1&#45;&gt;BB3 -->
<g id="edge2" class="edge">
<title>BB1&#45;&gt;BB3</title>
<path fill="none" stroke="black" d="M240.84,-528.39C240.84,-520.12 240.84,-511.44 240.84,-502.93"/>
<polygon fill="black" stroke="black" points="244.34,-502.69 240.84,-492.69 237.34,-502.69 244.34,-502.69"/>
</g>
<!-- BB2 -->
<g id="node3" class="node">
<title>BB2</title>
<ellipse fill="none" stroke="black" cx="240.84" cy="-312.42" rx="113.69" ry="48.17"/>
<text text-anchor="middle" x="240.84" y="-331.22" font-family="Times New Roman,serif" font-size="14.00">[e..1c)</text>
<text text-anchor="middle" x="240.84" y="-316.22" font-family="Times New Roman,serif" font-size="14.00">Count: 2121</text>
<text text-anchor="middle" x="240.84" y="-301.22" font-family="Times New Roman,serif" font-size="14.00">Normalized count: Infinity</text>
<text text-anchor="middle" x="240.84" y="-286.22" font-family="Times New Roman,serif" font-size="14.00">Samples weight: 0.32</text>
</g>
<!-- BB2&#45;&gt;BB3 -->
<g id="edge3" class="edge">
<title>BB2&#45;&gt;BB3</title>
<path fill="none" stroke="black" d="M247.36,-360.52C247.58,-368.78 247.65,-377.46 247.55,-385.97"/>
<polygon fill="black" stroke="black" points="244.05,-386.16 247.37,-396.22 251.05,-386.29 244.05,-386.16"/>
</g>
<!-- BB3&#45;&gt;BB2 -->
<g id="edge4" class="edge">
<title>BB3&#45;&gt;BB2</title>
<path fill="none" stroke="black" d="M234.32,-396.22C234.1,-387.95 234.04,-379.27 234.14,-370.77"/>
<polygon fill="black" stroke="black" points="237.64,-370.59 234.33,-360.52 230.64,-370.46 237.64,-370.59"/>
</g>
<!-- BB4 -->
<g id="node5" class="node">
<title>BB4</title>
<ellipse fill="none" stroke="black" cx="486.84" cy="-312.42" rx="113.69" ry="48.17"/>
<text text-anchor="middle" x="486.84" y="-331.22" font-family="Times New Roman,serif" font-size="14.00">[20..24)</text>
<text text-anchor="middle" x="486.84" y="-316.22" font-family="Times New Roman,serif" font-size="14.00">Count: 4</text>
<text text-anchor="middle" x="486.84" y="-301.22" font-family="Times New Roman,serif" font-size="14.00">Normalized count: Infinity</text>
<text text-anchor="middle" x="486.84" y="-286.22" font-family="Times New Roman,serif" font-size="14.00">Samples weight: 0.00</text>
</g>
<!-- BB3&#45;&gt;BB4 -->
<g id="edge5" class="edge">
<title>BB3&#45;&gt;BB4</title>
<path fill="none" stroke="black" d="M311.01,-406.46C341.12,-390.52 376.46,-371.82 407.52,-355.39"/>
<polygon fill="black" stroke="black" points="409.38,-358.36 416.59,-350.59 406.11,-352.18 409.38,-358.36"/>
</g>
<!-- BB6 -->
<g id="node7" class="node">
<title>BB6</title>
<ellipse fill="none" stroke="black" cx="373.84" cy="-180.25" rx="113.69" ry="48.17"/>
<text text-anchor="middle" x="373.84" y="-199.05" font-family="Times New Roman,serif" font-size="14.00">[32..36)</text>
<text text-anchor="middle" x="373.84" y="-184.05" font-family="Times New Roman,serif" font-size="14.00">Count: 1074</text>
<text text-anchor="middle" x="373.84" y="-169.05" font-family="Times New Roman,serif" font-size="14.00">Normalized count: Infinity</text>
<text text-anchor="middle" x="373.84" y="-154.05" font-family="Times New Roman,serif" font-size="14.00">Samples weight: 0.16</text>
</g>
<!-- BB4&#45;&gt;BB6 -->
<g id="edge6" class="edge">
<title>BB4&#45;&gt;BB6</title>
<path fill="none" stroke="black" d="M448.27,-266.98C438.92,-256.21 428.84,-244.6 419.21,-233.51"/>
<polygon fill="black" stroke="black" points="421.82,-231.18 412.63,-225.92 416.54,-235.77 421.82,-231.18"/>
</g>
<!-- BB5 -->
<g id="node6" class="node">
<title>BB5</title>
<ellipse fill="none" stroke="black" cx="373.84" cy="-48.08" rx="113.69" ry="48.17"/>
<text text-anchor="middle" x="373.84" y="-66.88" font-family="Times New Roman,serif" font-size="14.00">[24..32)</text>
<text text-anchor="middle" x="373.84" y="-51.88" font-family="Times New Roman,serif" font-size="14.00">Count: 2225</text>
<text text-anchor="middle" x="373.84" y="-36.88" font-family="Times New Roman,serif" font-size="14.00">Normalized count: Infinity</text>
<text text-anchor="middle" x="373.84" y="-21.88" font-family="Times New Roman,serif" font-size="14.00">Samples weight: 0.33</text>
</g>
<!-- BB5&#45;&gt;BB6 -->
<g id="edge7" class="edge">
<title>BB5&#45;&gt;BB6</title>
<path fill="none" stroke="black" d="M380.36,-96.19C380.58,-104.45 380.65,-113.13 380.55,-121.64"/>
<polygon fill="black" stroke="black" points="377.05,-121.83 380.37,-131.89 384.05,-121.95 377.05,-121.83"/>
</g>
<!-- BB6&#45;&gt;BB5 -->
<g id="edge8" class="edge">
<title>BB6&#45;&gt;BB5</title>
<path fill="none" stroke="black" d="M367.32,-131.89C367.1,-123.62 367.04,-114.94 367.14,-106.43"/>
<polygon fill="black" stroke="black" points="370.64,-106.26 367.33,-96.19 363.64,-106.12 370.64,-106.26"/>
</g>
<!-- BB7 -->
<g id="node8" class="node">
<title>BB7</title>
<ellipse fill="none" stroke="black" cx="113.84" cy="-48.08" rx="113.69" ry="48.17"/>
<text text-anchor="middle" x="113.84" y="-66.88" font-family="Times New Roman,serif" font-size="14.00">[36..3a)</text>
<text text-anchor="middle" x="113.84" y="-51.88" font-family="Times New Roman,serif" font-size="14.00">Count: 3</text>
<text text-anchor="middle" x="113.84" y="-36.88" font-family="Times New Roman,serif" font-size="14.00">Normalized count: Infinity</text>
<text text-anchor="middle" x="113.84" y="-21.88" font-family="Times New Roman,serif" font-size="14.00">Samples weight: 0.00</text>
</g>
<!-- BB6&#45;&gt;BB7 -->
<g id="edge9" class="edge">
<title>BB6&#45;&gt;BB7</title>
<path fill="none" stroke="black" d="M301.42,-142.99C268.45,-126.49 229.3,-106.88 195.31,-89.87"/>
<polygon fill="black" stroke="black" points="196.84,-86.72 186.33,-85.37 193.71,-92.98 196.84,-86.72"/>
</g>
<!-- BB7&#45;&gt;BB8 -->
<g id="edge10" class="edge">
<title>BB7&#45;&gt;BB8</title>
<path fill="none" stroke="black" d="M109.51,-96.43C105.08,-148.93 98.84,-236.15 98.84,-311.42 98.84,-445.58 98.84,-445.58 98.84,-445.58 98.84,-525.7 76.58,-556.17 117.84,-624.83 127.74,-641.29 142.29,-655.21 157.95,-666.67"/>
<polygon fill="black" stroke="black" points="156.02,-669.59 166.23,-672.43 160.03,-663.84 156.02,-669.59"/>
</g>
<!-- BB8&#45;&gt;BB1 -->
<g id="edge11" class="edge">
<title>BB8&#45;&gt;BB1</title>
<path fill="none" stroke="black" d="M240.84,-660.55C240.84,-652.29 240.84,-643.6 240.84,-635.1"/>
<polygon fill="black" stroke="black" points="244.34,-634.86 240.84,-624.86 237.34,-634.86 244.34,-634.86"/>
</g>
<!-- BB9 -->
<g id="node10" class="node">
<title>BB9</title>
<ellipse fill="none" stroke="black" cx="604.84" cy="-576.75" rx="104.8" ry="48.17"/>
<text text-anchor="middle" x="604.84" y="-595.55" font-family="Times New Roman,serif" font-size="14.00">[3f..43)</text>
<text text-anchor="middle" x="604.84" y="-580.55" font-family="Times New Roman,serif" font-size="14.00">Count: 0</text>
<text text-anchor="middle" x="604.84" y="-565.55" font-family="Times New Roman,serif" font-size="14.00">Normalized count: NaN</text>
<text text-anchor="middle" x="604.84" y="-550.55" font-family="Times New Roman,serif" font-size="14.00">Samples weight: 0.00</text>
</g>
<!-- BB8&#45;&gt;BB9 -->
<g id="edge12" class="edge">
<title>BB8&#45;&gt;BB9</title>
<path fill="none" stroke="black" d="M326.65,-677.23C382.78,-657.16 456.04,-630.96 513.29,-610.49"/>
<polygon fill="black" stroke="black" points="514.82,-613.66 523.06,-607 512.46,-607.07 514.82,-613.66"/>
</g>
<!-- BB13 -->
<g id="node14" class="node">
<title>BB13</title>
<ellipse fill="none" stroke="black" cx="803.84" cy="-444.58" rx="113.69" ry="48.17"/>
<text text-anchor="middle" x="803.84" y="-463.38" font-family="Times New Roman,serif" font-size="14.00">[75..79)</text>
<text text-anchor="middle" x="803.84" y="-448.38" font-family="Times New Roman,serif" font-size="14.00">Count: 71</text>
<text text-anchor="middle" x="803.84" y="-433.38" font-family="Times New Roman,serif" font-size="14.00">Normalized count: Infinity</text>
<text text-anchor="middle" x="803.84" y="-418.38" font-family="Times New Roman,serif" font-size="14.00">Samples weight: 0.01</text>
</g>
<!-- BB9&#45;&gt;BB13 -->
<g id="edge13" class="edge">
<title>BB9&#45;&gt;BB13</title>
<path fill="none" stroke="black" d="M664.01,-537.05C686.06,-522.63 711.28,-506.13 734.18,-491.15"/>
<polygon fill="black" stroke="black" points="736.38,-493.89 742.84,-485.49 732.55,-488.03 736.38,-493.89"/>
</g>
<!-- BB10 -->
<g id="node11" class="node">
<title>BB10</title>
<ellipse fill="none" stroke="black" cx="732.84" cy="-312.42" rx="113.69" ry="48.17"/>
<text text-anchor="middle" x="732.84" y="-331.22" font-family="Times New Roman,serif" font-size="14.00">[43..4b)</text>
<text text-anchor="middle" x="732.84" y="-316.22" font-family="Times New Roman,serif" font-size="14.00">Count: 64</text>
<text text-anchor="middle" x="732.84" y="-301.22" font-family="Times New Roman,serif" font-size="14.00">Normalized count: Infinity</text>
<text text-anchor="middle" x="732.84" y="-286.22" font-family="Times New Roman,serif" font-size="14.00">Samples weight: 0.01</text>
</g>
<!-- BB11 -->
<g id="node12" class="node">
<title>BB11</title>
<ellipse fill="none" stroke="black" cx="638.84" cy="-180.25" rx="104.8" ry="48.17"/>
<text text-anchor="middle" x="638.84" y="-199.05" font-family="Times New Roman,serif" font-size="14.00">[4b..71)</text>
<text text-anchor="middle" x="638.84" y="-184.05" font-family="Times New Roman,serif" font-size="14.00">Count: 0</text>
<text text-anchor="middle" x="638.84" y="-169.05" font-family="Times New Roman,serif" font-size="14.00">Normalized count: NaN</text>
<text text-anchor="middle" x="638.84" y="-154.05" font-family="Times New Roman,serif" font-size="14.00">Samples weight: 0.00</text>
</g>
<!-- BB10&#45;&gt;BB11 -->
<g id="edge15" class="edge">
<title>BB10&#45;&gt;BB11</title>
<path fill="none" stroke="black" d="M700.23,-266.26C692.87,-256.06 684.98,-245.14 677.4,-234.64"/>
<polygon fill="black" stroke="black" points="680.09,-232.39 671.4,-226.33 674.42,-236.49 680.09,-232.39"/>
</g>
<!-- BB12 -->
<g id="node13" class="node">
<title>BB12</title>
<ellipse fill="none" stroke="black" cx="874.84" cy="-180.25" rx="113.69" ry="48.17"/>
<text text-anchor="middle" x="874.84" y="-199.05" font-family="Times New Roman,serif" font-size="14.00">[71..75)</text>
<text text-anchor="middle" x="874.84" y="-184.05" font-family="Times New Roman,serif" font-size="14.00">Count: 71</text>
<text text-anchor="middle" x="874.84" y="-169.05" font-family="Times New Roman,serif" font-size="14.00">Normalized count: Infinity</text>
<text text-anchor="middle" x="874.84" y="-154.05" font-family="Times New Roman,serif" font-size="14.00">Samples weight: 0.01</text>
</g>
<!-- BB10&#45;&gt;BB12 -->
<g id="edge14" class="edge">
<title>BB10&#45;&gt;BB12</title>
<path fill="none" stroke="black" d="M779.73,-268.43C792.82,-256.44 807.15,-243.3 820.62,-230.95"/>
<polygon fill="black" stroke="black" points="823,-233.52 828,-224.19 818.27,-228.36 823,-233.52"/>
</g>
<!-- BB11&#45;&gt;BB12 -->
<g id="edge16" class="edge">
<title>BB11&#45;&gt;BB12</title>
<path fill="none" stroke="black" d="M743.94,-180.25C746.22,-180.25 748.51,-180.25 750.79,-180.25"/>
<polygon fill="black" stroke="black" points="750.81,-183.75 760.81,-180.25 750.81,-176.75 750.81,-183.75"/>
</g>
<!-- BB12&#45;&gt;BB13 -->
<g id="edge17" class="edge">
<title>BB12&#45;&gt;BB13</title>
<path fill="none" stroke="black" d="M875.59,-228.55C874.81,-265.44 870.7,-317.46 855.84,-360.5 852.44,-370.37 847.67,-380.29 842.4,-389.66"/>
<polygon fill="black" stroke="black" points="839.28,-388.06 837.22,-398.45 845.31,-391.62 839.28,-388.06"/>
</g>
<!-- BB13&#45;&gt;BB10 -->
<g id="edge18" class="edge">
<title>BB13&#45;&gt;BB10</title>
<path fill="none" stroke="black" d="M778.61,-397.32C773.54,-388.02 768.16,-378.16 762.94,-368.58"/>
<polygon fill="black" stroke="black" points="765.86,-366.63 757.99,-359.53 759.71,-369.98 765.86,-366.63"/>
</g>
<!-- BB14 -->
<g id="node15" class="node">
<title>BB14</title>
<ellipse fill="none" stroke="black" cx="1007.84" cy="-312.42" rx="104.8" ry="48.17"/>
<text text-anchor="middle" x="1007.84" y="-331.22" font-family="Times New Roman,serif" font-size="14.00">[79..80)</text>
<text text-anchor="middle" x="1007.84" y="-316.22" font-family="Times New Roman,serif" font-size="14.00">Count: 0</text>
<text text-anchor="middle" x="1007.84" y="-301.22" font-family="Times New Roman,serif" font-size="14.00">Normalized count: NaN</text>
<text text-anchor="middle" x="1007.84" y="-286.22" font-family="Times New Roman,serif" font-size="14.00">Samples weight: 0.00</text>
</g>
<!-- BB13&#45;&gt;BB14 -->
<g id="edge19" class="edge">
<title>BB13&#45;&gt;BB14</title>
<path fill="none" stroke="black" d="M865.6,-404.18C888.79,-389.38 915.28,-372.48 939.07,-357.3"/>
<polygon fill="black" stroke="black" points="941.15,-360.12 947.7,-351.8 937.38,-354.22 941.15,-360.12"/>
</g>
</g>
</svg>
