<?xml version="1.0" encoding="UTF-8" standalone="no"?>
<!DOCTYPE svg PUBLIC "-//W3C//DTD SVG 1.1//EN"
 "http://www.w3.org/Graphics/SVG/1.1/DTD/svg11.dtd">
<!-- Generated by graphviz version 2.47.0 (20210316.0004)
 -->
<!-- Title: G Pages: 1 -->
<svg width="263pt" height="421pt"
 viewBox="0.00 0.00 263.44 420.70" xmlns="http://www.w3.org/2000/svg" xmlns:xlink="http://www.w3.org/1999/xlink">
<g id="graph0" class="graph" transform="scale(1 1) rotate(0) translate(4 416.7)">
<title>G</title>
<polygon fill="white" stroke="transparent" points="-4,4 -4,-416.7 259.44,-416.7 259.44,4 -4,4"/>
<!-- BB0 -->
<g id="node1" class="node">
<title>BB0</title>
<ellipse fill="none" stroke="black" cx="167.72" cy="-385.83" rx="33.47" ry="26.74"/>
<text text-anchor="middle" x="167.72" y="-389.63" font-family="Times New Roman,serif" font-size="14.00">[0..3)</text>
<text text-anchor="middle" x="167.72" y="-374.63" font-family="Times New Roman,serif" font-size="14.00">0.05</text>
</g>
<!-- BB1 -->
<g id="node2" class="node">
<title>BB1</title>
<ellipse fill="none" stroke="black" cx="121.72" cy="-296.09" rx="33.47" ry="26.74"/>
<text text-anchor="middle" x="121.72" y="-299.89" font-family="Times New Roman,serif" font-size="14.00">[3..6)</text>
<text text-anchor="middle" x="121.72" y="-284.89" font-family="Times New Roman,serif" font-size="14.00">0.02</text>
</g>
<!-- BB0&#45;&gt;BB1 -->
<g id="edge2" class="edge">
<title>BB0&#45;&gt;BB1</title>
<path fill="none" stroke="black" d="M155.15,-360.86C150.18,-351.38 144.39,-340.33 139.03,-330.11"/>
<polygon fill="black" stroke="black" points="142.02,-328.27 134.27,-321.04 135.82,-331.52 142.02,-328.27"/>
</g>
<!-- BB7 -->
<g id="node8" class="node">
<title>BB7</title>
<ellipse fill="none" stroke="black" cx="213.72" cy="-296.09" rx="40.11" ry="26.74"/>
<text text-anchor="middle" x="213.72" y="-299.89" font-family="Times New Roman,serif" font-size="14.00">[2a..2f)</text>
<text text-anchor="middle" x="213.72" y="-284.89" font-family="Times New Roman,serif" font-size="14.00">0.00</text>
</g>
<!-- BB0&#45;&gt;BB7 -->
<g id="edge1" class="edge">
<title>BB0&#45;&gt;BB7</title>
<path fill="none" stroke="black" d="M180.29,-360.86C185.18,-351.53 190.86,-340.69 196.14,-330.62"/>
<polygon fill="black" stroke="black" points="199.3,-332.13 200.84,-321.65 193.1,-328.88 199.3,-332.13"/>
</g>
<!-- BB2 -->
<g id="node3" class="node">
<title>BB2</title>
<ellipse fill="none" stroke="black" cx="116.72" cy="-206.35" rx="37.45" ry="26.74"/>
<text text-anchor="middle" x="116.72" y="-210.15" font-family="Times New Roman,serif" font-size="14.00">[6..1e)</text>
<text text-anchor="middle" x="116.72" y="-195.15" font-family="Times New Roman,serif" font-size="14.00">0.71</text>
</g>
<!-- BB1&#45;&gt;BB2 -->
<g id="edge4" class="edge">
<title>BB1&#45;&gt;BB2</title>
<path fill="none" stroke="black" d="M120.25,-269.24C119.79,-261.19 119.27,-252.16 118.78,-243.54"/>
<polygon fill="black" stroke="black" points="122.26,-243.1 118.2,-233.32 115.27,-243.5 122.26,-243.1"/>
</g>
<!-- BB6 -->
<g id="node7" class="node">
<title>BB6</title>
<ellipse fill="none" stroke="black" cx="213.72" cy="-206.35" rx="41.94" ry="26.74"/>
<text text-anchor="middle" x="213.72" y="-210.15" font-family="Times New Roman,serif" font-size="14.00">[25..2a)</text>
<text text-anchor="middle" x="213.72" y="-195.15" font-family="Times New Roman,serif" font-size="14.00">0.00</text>
</g>
<!-- BB1&#45;&gt;BB6 -->
<g id="edge3" class="edge">
<title>BB1&#45;&gt;BB6</title>
<path fill="none" stroke="black" d="M142.6,-275.18C154.65,-263.68 170.02,-249.02 183.39,-236.27"/>
<polygon fill="black" stroke="black" points="186.17,-238.46 190.99,-229.02 181.34,-233.39 186.17,-238.46"/>
</g>
<!-- BB3 -->
<g id="node4" class="node">
<title>BB3</title>
<ellipse fill="none" stroke="black" cx="41.72" cy="-116.61" rx="41.94" ry="26.74"/>
<text text-anchor="middle" x="41.72" y="-120.41" font-family="Times New Roman,serif" font-size="14.00">[1e..21)</text>
<text text-anchor="middle" x="41.72" y="-105.41" font-family="Times New Roman,serif" font-size="14.00">0.07</text>
</g>
<!-- BB2&#45;&gt;BB3 -->
<g id="edge6" class="edge">
<title>BB2&#45;&gt;BB3</title>
<path fill="none" stroke="black" d="M97.4,-182.76C88.38,-172.19 77.49,-159.46 67.75,-148.07"/>
<polygon fill="black" stroke="black" points="70.39,-145.76 61.23,-140.43 65.07,-150.31 70.39,-145.76"/>
</g>
<!-- BB4 -->
<g id="node5" class="node">
<title>BB4</title>
<ellipse fill="none" stroke="black" cx="143.72" cy="-116.61" rx="42.35" ry="26.74"/>
<text text-anchor="middle" x="143.72" y="-120.41" font-family="Times New Roman,serif" font-size="14.00">[21..22)</text>
<text text-anchor="middle" x="143.72" y="-105.41" font-family="Times New Roman,serif" font-size="14.00">0.09</text>
</g>
<!-- BB2&#45;&gt;BB4 -->
<g id="edge5" class="edge">
<title>BB2&#45;&gt;BB4</title>
<path fill="none" stroke="black" d="M124.53,-179.97C127.14,-171.5 130.09,-161.9 132.89,-152.81"/>
<polygon fill="black" stroke="black" points="136.24,-153.82 135.83,-143.24 129.55,-151.76 136.24,-153.82"/>
</g>
<!-- BB5 -->
<g id="node6" class="node">
<title>BB5</title>
<ellipse fill="none" stroke="black" cx="143.72" cy="-26.87" rx="42.35" ry="26.74"/>
<text text-anchor="middle" x="143.72" y="-30.67" font-family="Times New Roman,serif" font-size="14.00">[22..25)</text>
<text text-anchor="middle" x="143.72" y="-15.67" font-family="Times New Roman,serif" font-size="14.00">0.07</text>
</g>
<!-- BB3&#45;&gt;BB5 -->
<g id="edge7" class="edge">
<title>BB3&#45;&gt;BB5</title>
<path fill="none" stroke="black" d="M66.15,-94.59C79.68,-82.96 96.66,-68.35 111.29,-55.77"/>
<polygon fill="black" stroke="black" points="113.83,-58.19 119.13,-49.02 109.27,-52.89 113.83,-58.19"/>
</g>
<!-- BB4&#45;&gt;BB5 -->
<g id="edge8" class="edge">
<title>BB4&#45;&gt;BB5</title>
<path fill="none" stroke="black" d="M143.72,-89.29C143.72,-81.32 143.72,-72.43 143.72,-63.94"/>
<polygon fill="black" stroke="black" points="147.22,-63.87 143.72,-53.87 140.22,-63.87 147.22,-63.87"/>
</g>
<!-- BB5&#45;&gt;BB6 -->
<g id="edge9" class="edge">
<title>BB5&#45;&gt;BB6</title>
<path fill="none" stroke="black" d="M166.54,-49.67C176.76,-60.71 187.99,-74.91 194.72,-89.74 206.09,-114.8 210.75,-145.66 212.62,-169.19"/>
<polygon fill="black" stroke="black" points="209.14,-169.69 213.29,-179.44 216.13,-169.23 209.14,-169.69"/>
</g>
<!-- BB6&#45;&gt;BB7 -->
<g id="edge10" class="edge">
<title>BB6&#45;&gt;BB7</title>
<path fill="none" stroke="black" d="M213.72,-233.35C213.72,-241.3 213.72,-250.18 213.72,-258.68"/>
<polygon fill="black" stroke="black" points="210.22,-258.77 213.72,-268.77 217.22,-258.77 210.22,-258.77"/>
</g>
</g>
</svg>
