<?xml version="1.0" encoding="UTF-8" standalone="no"?>
<!DOCTYPE svg PUBLIC "-//W3C//DTD SVG 1.1//EN"
 "http://www.w3.org/Graphics/SVG/1.1/DTD/svg11.dtd">
<!-- Generated by graphviz version 2.47.0 (20210316.0004)
 -->
<!-- Title: G Pages: 1 -->
<svg width="1340pt" height="1426pt"
 viewBox="0.00 0.00 1340.48 1425.83" xmlns="http://www.w3.org/2000/svg" xmlns:xlink="http://www.w3.org/1999/xlink">
<g id="graph0" class="graph" transform="scale(1 1) rotate(0) translate(4 1421.83)">
<title>G</title>
<polygon fill="white" stroke="transparent" points="-4,4 -4,-1421.83 1336.48,-1421.83 1336.48,4 -4,4"/>
<!-- BB0 -->
<g id="node1" class="node">
<title>BB0</title>
<ellipse fill="none" stroke="black" cx="103.24" cy="-1369.75" rx="103.48" ry="48.17"/>
<text text-anchor="middle" x="103.24" y="-1388.55" font-family="Times New Roman,serif" font-size="14.00">[0..22)</text>
<text text-anchor="middle" x="103.24" y="-1373.55" font-family="Times New Roman,serif" font-size="14.00">Count: 50</text>
<text text-anchor="middle" x="103.24" y="-1358.55" font-family="Times New Roman,serif" font-size="14.00">Normalized count: 1.00</text>
<text text-anchor="middle" x="103.24" y="-1343.55" font-family="Times New Roman,serif" font-size="14.00">Samples weight: 0.00</text>
</g>
<!-- BB2 -->
<g id="node3" class="node">
<title>BB2</title>
<ellipse fill="none" stroke="black" cx="103.24" cy="-1237.58" rx="103.48" ry="48.17"/>
<text text-anchor="middle" x="103.24" y="-1256.38" font-family="Times New Roman,serif" font-size="14.00">[3a..3e)</text>
<text text-anchor="middle" x="103.24" y="-1241.38" font-family="Times New Roman,serif" font-size="14.00">Count: 450</text>
<text text-anchor="middle" x="103.24" y="-1226.38" font-family="Times New Roman,serif" font-size="14.00">Normalized count: 9.00</text>
<text text-anchor="middle" x="103.24" y="-1211.38" font-family="Times New Roman,serif" font-size="14.00">Samples weight: 0.00</text>
</g>
<!-- BB0&#45;&gt;BB2 -->
<g id="edge1" class="edge">
<title>BB0&#45;&gt;BB2</title>
<path fill="none" stroke="black" d="M103.24,-1321.39C103.24,-1313.12 103.24,-1304.44 103.24,-1295.93"/>
<polygon fill="black" stroke="black" points="106.74,-1295.69 103.24,-1285.69 99.74,-1295.69 106.74,-1295.69"/>
</g>
<!-- BB1 -->
<g id="node2" class="node">
<title>BB1</title>
<ellipse fill="none" stroke="black" cx="103.24" cy="-1105.42" rx="103.48" ry="48.17"/>
<text text-anchor="middle" x="103.24" y="-1124.22" font-family="Times New Roman,serif" font-size="14.00">[22..3a)</text>
<text text-anchor="middle" x="103.24" y="-1109.22" font-family="Times New Roman,serif" font-size="14.00">Count: 400</text>
<text text-anchor="middle" x="103.24" y="-1094.22" font-family="Times New Roman,serif" font-size="14.00">Normalized count: 8.00</text>
<text text-anchor="middle" x="103.24" y="-1079.22" font-family="Times New Roman,serif" font-size="14.00">Samples weight: 0.00</text>
</g>
<!-- BB1&#45;&gt;BB2 -->
<g id="edge2" class="edge">
<title>BB1&#45;&gt;BB2</title>
<path fill="none" stroke="black" d="M109.76,-1153.78C109.98,-1162.07 110.04,-1170.78 109.94,-1179.31"/>
<polygon fill="black" stroke="black" points="106.44,-1179.52 109.75,-1189.59 113.44,-1179.66 106.44,-1179.52"/>
</g>
<!-- BB2&#45;&gt;BB1 -->
<g id="edge3" class="edge">
<title>BB2&#45;&gt;BB1</title>
<path fill="none" stroke="black" d="M96.72,-1189.59C96.5,-1181.21 96.43,-1172.41 96.53,-1163.78"/>
<polygon fill="black" stroke="black" points="100.03,-1163.84 96.72,-1153.78 93.03,-1163.71 100.03,-1163.84"/>
</g>
<!-- BB3 -->
<g id="node4" class="node">
<title>BB3</title>
<ellipse fill="none" stroke="black" cx="327.24" cy="-1105.42" rx="103.48" ry="48.17"/>
<text text-anchor="middle" x="327.24" y="-1124.22" font-family="Times New Roman,serif" font-size="14.00">[3e..42)</text>
<text text-anchor="middle" x="327.24" y="-1109.22" font-family="Times New Roman,serif" font-size="14.00">Count: 50</text>
<text text-anchor="middle" x="327.24" y="-1094.22" font-family="Times New Roman,serif" font-size="14.00">Normalized count: 1.00</text>
<text text-anchor="middle" x="327.24" y="-1079.22" font-family="Times New Roman,serif" font-size="14.00">Samples weight: 0.00</text>
</g>
<!-- BB2&#45;&gt;BB3 -->
<g id="edge4" class="edge">
<title>BB2&#45;&gt;BB3</title>
<path fill="none" stroke="black" d="M166.83,-1199.63C194.26,-1183.69 226.48,-1164.96 254.83,-1148.49"/>
<polygon fill="black" stroke="black" points="256.6,-1151.51 263.49,-1143.46 253.08,-1145.46 256.6,-1151.51"/>
</g>
<!-- BB5 -->
<g id="node6" class="node">
<title>BB5</title>
<ellipse fill="none" stroke="black" cx="327.24" cy="-973.25" rx="108.38" ry="48.17"/>
<text text-anchor="middle" x="327.24" y="-992.05" font-family="Times New Roman,serif" font-size="14.00">[4a..4f)</text>
<text text-anchor="middle" x="327.24" y="-977.05" font-family="Times New Roman,serif" font-size="14.00">Count: 2650</text>
<text text-anchor="middle" x="327.24" y="-962.05" font-family="Times New Roman,serif" font-size="14.00">Normalized count: 53.00</text>
<text text-anchor="middle" x="327.24" y="-947.05" font-family="Times New Roman,serif" font-size="14.00">Samples weight: 0.01</text>
</g>
<!-- BB3&#45;&gt;BB5 -->
<g id="edge5" class="edge">
<title>BB3&#45;&gt;BB5</title>
<path fill="none" stroke="black" d="M327.24,-1057.05C327.24,-1048.79 327.24,-1040.1 327.24,-1031.6"/>
<polygon fill="black" stroke="black" points="330.74,-1031.36 327.24,-1021.36 323.74,-1031.36 330.74,-1031.36"/>
</g>
<!-- BB4 -->
<g id="node5" class="node">
<title>BB4</title>
<ellipse fill="none" stroke="black" cx="327.24" cy="-841.08" rx="108.38" ry="48.17"/>
<text text-anchor="middle" x="327.24" y="-859.88" font-family="Times New Roman,serif" font-size="14.00">[42..4a)</text>
<text text-anchor="middle" x="327.24" y="-844.88" font-family="Times New Roman,serif" font-size="14.00">Count: 2600</text>
<text text-anchor="middle" x="327.24" y="-829.88" font-family="Times New Roman,serif" font-size="14.00">Normalized count: 52.00</text>
<text text-anchor="middle" x="327.24" y="-814.88" font-family="Times New Roman,serif" font-size="14.00">Samples weight: 0.01</text>
</g>
<!-- BB4&#45;&gt;BB5 -->
<g id="edge6" class="edge">
<title>BB4&#45;&gt;BB5</title>
<path fill="none" stroke="black" d="M333.75,-889.19C333.97,-897.45 334.04,-906.13 333.95,-914.64"/>
<polygon fill="black" stroke="black" points="330.44,-914.83 333.76,-924.89 337.44,-914.95 330.44,-914.83"/>
</g>
<!-- BB5&#45;&gt;BB4 -->
<g id="edge7" class="edge">
<title>BB5&#45;&gt;BB4</title>
<path fill="none" stroke="black" d="M320.72,-924.89C320.5,-916.62 320.44,-907.94 320.53,-899.43"/>
<polygon fill="black" stroke="black" points="324.03,-899.25 320.72,-889.19 317.04,-899.12 324.03,-899.25"/>
</g>
<!-- BB6 -->
<g id="node7" class="node">
<title>BB6</title>
<ellipse fill="none" stroke="black" cx="556.24" cy="-841.08" rx="103.48" ry="48.17"/>
<text text-anchor="middle" x="556.24" y="-859.88" font-family="Times New Roman,serif" font-size="14.00">[4f..88)</text>
<text text-anchor="middle" x="556.24" y="-844.88" font-family="Times New Roman,serif" font-size="14.00">Count: 50</text>
<text text-anchor="middle" x="556.24" y="-829.88" font-family="Times New Roman,serif" font-size="14.00">Normalized count: 1.00</text>
<text text-anchor="middle" x="556.24" y="-814.88" font-family="Times New Roman,serif" font-size="14.00">Samples weight: 0.00</text>
</g>
<!-- BB5&#45;&gt;BB6 -->
<g id="edge8" class="edge">
<title>BB5&#45;&gt;BB6</title>
<path fill="none" stroke="black" d="M392.86,-934.95C421.01,-918.95 454.01,-900.19 482.95,-883.74"/>
<polygon fill="black" stroke="black" points="484.83,-886.7 491.79,-878.71 481.37,-880.61 484.83,-886.7"/>
</g>
<!-- BB8 -->
<g id="node9" class="node">
<title>BB8</title>
<ellipse fill="none" stroke="black" cx="556.24" cy="-708.92" rx="118.17" ry="48.17"/>
<text text-anchor="middle" x="556.24" y="-727.72" font-family="Times New Roman,serif" font-size="14.00">[a1..aa)</text>
<text text-anchor="middle" x="556.24" y="-712.72" font-family="Times New Roman,serif" font-size="14.00">Count: 200050</text>
<text text-anchor="middle" x="556.24" y="-697.72" font-family="Times New Roman,serif" font-size="14.00">Normalized count: 4001.00</text>
<text text-anchor="middle" x="556.24" y="-682.72" font-family="Times New Roman,serif" font-size="14.00">Samples weight: 0.49</text>
</g>
<!-- BB6&#45;&gt;BB8 -->
<g id="edge9" class="edge">
<title>BB6&#45;&gt;BB8</title>
<path fill="none" stroke="black" d="M556.24,-792.72C556.24,-784.45 556.24,-775.77 556.24,-767.27"/>
<polygon fill="black" stroke="black" points="559.74,-767.02 556.24,-757.02 552.74,-767.02 559.74,-767.02"/>
</g>
<!-- BB7 -->
<g id="node8" class="node">
<title>BB7</title>
<ellipse fill="none" stroke="black" cx="556.24" cy="-576.75" rx="118.17" ry="48.17"/>
<text text-anchor="middle" x="556.24" y="-595.55" font-family="Times New Roman,serif" font-size="14.00">[88..a1)</text>
<text text-anchor="middle" x="556.24" y="-580.55" font-family="Times New Roman,serif" font-size="14.00">Count: 200000</text>
<text text-anchor="middle" x="556.24" y="-565.55" font-family="Times New Roman,serif" font-size="14.00">Normalized count: 4000.00</text>
<text text-anchor="middle" x="556.24" y="-550.55" font-family="Times New Roman,serif" font-size="14.00">Samples weight: 0.49</text>
</g>
<!-- BB7&#45;&gt;BB8 -->
<g id="edge10" class="edge">
<title>BB7&#45;&gt;BB8</title>
<path fill="none" stroke="black" d="M562.75,-624.86C562.97,-633.12 563.04,-641.8 562.95,-650.3"/>
<polygon fill="black" stroke="black" points="559.44,-650.49 562.76,-660.55 566.44,-650.62 559.44,-650.49"/>
</g>
<!-- BB8&#45;&gt;BB7 -->
<g id="edge11" class="edge">
<title>BB8&#45;&gt;BB7</title>
<path fill="none" stroke="black" d="M549.72,-660.55C549.5,-652.29 549.44,-643.6 549.53,-635.1"/>
<polygon fill="black" stroke="black" points="553.03,-634.92 549.72,-624.86 546.04,-634.79 553.03,-634.92"/>
</g>
<!-- BB9 -->
<g id="node10" class="node">
<title>BB9</title>
<ellipse fill="none" stroke="black" cx="795.24" cy="-576.75" rx="103.48" ry="48.17"/>
<text text-anchor="middle" x="795.24" y="-595.55" font-family="Times New Roman,serif" font-size="14.00">[aa..b2)</text>
<text text-anchor="middle" x="795.24" y="-580.55" font-family="Times New Roman,serif" font-size="14.00">Count: 50</text>
<text text-anchor="middle" x="795.24" y="-565.55" font-family="Times New Roman,serif" font-size="14.00">Normalized count: 1.00</text>
<text text-anchor="middle" x="795.24" y="-550.55" font-family="Times New Roman,serif" font-size="14.00">Samples weight: 0.00</text>
</g>
<!-- BB8&#45;&gt;BB9 -->
<g id="edge12" class="edge">
<title>BB8&#45;&gt;BB9</title>
<path fill="none" stroke="black" d="M626.01,-669.92C655.6,-653.8 690.15,-634.98 720.29,-618.57"/>
<polygon fill="black" stroke="black" points="721.97,-621.64 729.07,-613.78 718.62,-615.49 721.97,-621.64"/>
</g>
<!-- BB10 -->
<g id="node11" class="node">
<title>BB10</title>
<ellipse fill="none" stroke="black" cx="683.24" cy="-444.58" rx="103.48" ry="48.17"/>
<text text-anchor="middle" x="683.24" y="-463.38" font-family="Times New Roman,serif" font-size="14.00">[b2..bc)</text>
<text text-anchor="middle" x="683.24" y="-448.38" font-family="Times New Roman,serif" font-size="14.00">Count: 0</text>
<text text-anchor="middle" x="683.24" y="-433.38" font-family="Times New Roman,serif" font-size="14.00">Normalized count: 0.00</text>
<text text-anchor="middle" x="683.24" y="-418.38" font-family="Times New Roman,serif" font-size="14.00">Samples weight: 0.00</text>
</g>
<!-- BB9&#45;&gt;BB10 -->
<g id="edge14" class="edge">
<title>BB9&#45;&gt;BB10</title>
<path fill="none" stroke="black" d="M757.32,-531.68C747.83,-520.65 737.57,-508.73 727.79,-497.36"/>
<polygon fill="black" stroke="black" points="730.29,-494.9 721.12,-489.61 724.99,-499.47 730.29,-494.9"/>
</g>
<!-- BB14 -->
<g id="node15" class="node">
<title>BB14</title>
<ellipse fill="none" stroke="black" cx="907.24" cy="-444.58" rx="103.48" ry="48.17"/>
<text text-anchor="middle" x="907.24" y="-463.38" font-family="Times New Roman,serif" font-size="14.00">[f8..107)</text>
<text text-anchor="middle" x="907.24" y="-448.38" font-family="Times New Roman,serif" font-size="14.00">Count: 50</text>
<text text-anchor="middle" x="907.24" y="-433.38" font-family="Times New Roman,serif" font-size="14.00">Normalized count: 1.00</text>
<text text-anchor="middle" x="907.24" y="-418.38" font-family="Times New Roman,serif" font-size="14.00">Samples weight: 0.00</text>
</g>
<!-- BB9&#45;&gt;BB14 -->
<g id="edge13" class="edge">
<title>BB9&#45;&gt;BB14</title>
<path fill="none" stroke="black" d="M833.16,-531.68C842.64,-520.65 852.91,-508.73 862.68,-497.36"/>
<polygon fill="black" stroke="black" points="865.49,-499.47 869.36,-489.61 860.18,-494.9 865.49,-499.47"/>
</g>
<!-- BB13 -->
<g id="node14" class="node">
<title>BB13</title>
<ellipse fill="none" stroke="black" cx="729.24" cy="-312.42" rx="103.48" ry="48.17"/>
<text text-anchor="middle" x="729.24" y="-331.22" font-family="Times New Roman,serif" font-size="14.00">[eb..f8)</text>
<text text-anchor="middle" x="729.24" y="-316.22" font-family="Times New Roman,serif" font-size="14.00">Count: 0</text>
<text text-anchor="middle" x="729.24" y="-301.22" font-family="Times New Roman,serif" font-size="14.00">Normalized count: 0.00</text>
<text text-anchor="middle" x="729.24" y="-286.22" font-family="Times New Roman,serif" font-size="14.00">Samples weight: 0.00</text>
</g>
<!-- BB10&#45;&gt;BB13 -->
<g id="edge15" class="edge">
<title>BB10&#45;&gt;BB13</title>
<path fill="none" stroke="black" d="M699.71,-396.96C702.82,-388.17 706.1,-378.9 709.29,-369.85"/>
<polygon fill="black" stroke="black" points="712.69,-370.75 712.72,-360.15 706.09,-368.42 712.69,-370.75"/>
</g>
<!-- BB11 -->
<g id="node12" class="node">
<title>BB11</title>
<ellipse fill="none" stroke="black" cx="814.24" cy="-180.25" rx="103.48" ry="48.17"/>
<text text-anchor="middle" x="814.24" y="-199.05" font-family="Times New Roman,serif" font-size="14.00">[bc..dc)</text>
<text text-anchor="middle" x="814.24" y="-184.05" font-family="Times New Roman,serif" font-size="14.00">Count: 0</text>
<text text-anchor="middle" x="814.24" y="-169.05" font-family="Times New Roman,serif" font-size="14.00">Normalized count: 0.00</text>
<text text-anchor="middle" x="814.24" y="-154.05" font-family="Times New Roman,serif" font-size="14.00">Samples weight: 0.00</text>
</g>
<!-- BB12 -->
<g id="node13" class="node">
<title>BB12</title>
<ellipse fill="none" stroke="black" cx="748.24" cy="-48.08" rx="103.48" ry="48.17"/>
<text text-anchor="middle" x="748.24" y="-66.88" font-family="Times New Roman,serif" font-size="14.00">[dc..eb)</text>
<text text-anchor="middle" x="748.24" y="-51.88" font-family="Times New Roman,serif" font-size="14.00">Count: 0</text>
<text text-anchor="middle" x="748.24" y="-36.88" font-family="Times New Roman,serif" font-size="14.00">Normalized count: 0.00</text>
<text text-anchor="middle" x="748.24" y="-21.88" font-family="Times New Roman,serif" font-size="14.00">Samples weight: 0.00</text>
</g>
<!-- BB11&#45;&gt;BB12 -->
<g id="edge17" class="edge">
<title>BB11&#45;&gt;BB12</title>
<path fill="none" stroke="black" d="M790.97,-133.36C786.19,-123.93 781.11,-113.91 776.18,-104.19"/>
<polygon fill="black" stroke="black" points="779.16,-102.34 771.52,-95 772.92,-105.5 779.16,-102.34"/>
</g>
<!-- BB11&#45;&gt;BB14 -->
<g id="edge16" class="edge">
<title>BB11&#45;&gt;BB14</title>
<path fill="none" stroke="black" d="M830.76,-227.85C846.58,-272.49 870.48,-339.89 887.34,-387.45"/>
<polygon fill="black" stroke="black" points="884.08,-388.73 890.72,-396.99 890.68,-386.39 884.08,-388.73"/>
</g>
<!-- BB12&#45;&gt;BB13 -->
<g id="edge18" class="edge">
<title>BB12&#45;&gt;BB13</title>
<path fill="none" stroke="black" d="M717.82,-94.35C711.41,-106.17 705.58,-119.24 702.24,-132.17 691.55,-173.55 695.55,-186.12 702.24,-228.33 703.65,-237.24 705.86,-246.5 708.43,-255.46"/>
<polygon fill="black" stroke="black" points="705.08,-256.48 711.33,-265.03 711.78,-254.45 705.08,-256.48"/>
</g>
<!-- BB13&#45;&gt;BB11 -->
<g id="edge19" class="edge">
<title>BB13&#45;&gt;BB11</title>
<path fill="none" stroke="black" d="M758.73,-266.26C765.25,-256.27 772.22,-245.6 778.94,-235.31"/>
<polygon fill="black" stroke="black" points="781.97,-237.06 784.51,-226.77 776.11,-233.23 781.97,-237.06"/>
</g>
<!-- BB13&#45;&gt;BB14 -->
<g id="edge20" class="edge">
<title>BB13&#45;&gt;BB14</title>
<path fill="none" stroke="black" d="M783.91,-353.4C802.94,-367.31 824.43,-383.03 844.08,-397.4"/>
<polygon fill="black" stroke="black" points="842.24,-400.39 852.38,-403.47 846.37,-394.74 842.24,-400.39"/>
</g>
<!-- BB15 -->
<g id="node16" class="node">
<title>BB15</title>
<ellipse fill="none" stroke="black" cx="1014.24" cy="-312.42" rx="103.48" ry="48.17"/>
<text text-anchor="middle" x="1014.24" y="-331.22" font-family="Times New Roman,serif" font-size="14.00">[107..140)</text>
<text text-anchor="middle" x="1014.24" y="-316.22" font-family="Times New Roman,serif" font-size="14.00">Count: 50</text>
<text text-anchor="middle" x="1014.24" y="-301.22" font-family="Times New Roman,serif" font-size="14.00">Normalized count: 1.00</text>
<text text-anchor="middle" x="1014.24" y="-286.22" font-family="Times New Roman,serif" font-size="14.00">Samples weight: 0.00</text>
</g>
<!-- BB14&#45;&gt;BB15 -->
<g id="edge21" class="edge">
<title>BB14&#45;&gt;BB15</title>
<path fill="none" stroke="black" d="M943.46,-399.51C952.34,-388.71 961.93,-377.05 971.1,-365.89"/>
<polygon fill="black" stroke="black" points="974.04,-367.83 977.69,-357.88 968.63,-363.38 974.04,-367.83"/>
</g>
<!-- BB15&#45;&gt;BB15 -->
<g id="edge22" class="edge">
<title>BB15&#45;&gt;BB15</title>
<path fill="none" stroke="black" d="M1104.12,-336.22C1122.39,-333.63 1135.48,-325.69 1135.48,-312.42 1135.48,-301.73 1127,-294.51 1114.17,-290.74"/>
<polygon fill="black" stroke="black" points="1114.63,-287.26 1104.12,-288.61 1113.18,-294.11 1114.63,-287.26"/>
</g>
<!-- BB16 -->
<g id="node17" class="node">
<title>BB16</title>
<ellipse fill="none" stroke="black" cx="1038.24" cy="-180.25" rx="103.48" ry="48.17"/>
<text text-anchor="middle" x="1038.24" y="-199.05" font-family="Times New Roman,serif" font-size="14.00">[140..148)</text>
<text text-anchor="middle" x="1038.24" y="-184.05" font-family="Times New Roman,serif" font-size="14.00">Count: 50</text>
<text text-anchor="middle" x="1038.24" y="-169.05" font-family="Times New Roman,serif" font-size="14.00">Normalized count: 1.00</text>
<text text-anchor="middle" x="1038.24" y="-154.05" font-family="Times New Roman,serif" font-size="14.00">Samples weight: 0.00</text>
</g>
<!-- BB15&#45;&gt;BB16 -->
<g id="edge23" class="edge">
<title>BB15&#45;&gt;BB16</title>
<path fill="none" stroke="black" d="M1022.9,-264.42C1024.47,-255.94 1026.11,-247.02 1027.72,-238.29"/>
<polygon fill="black" stroke="black" points="1031.21,-238.64 1029.59,-228.17 1024.33,-237.37 1031.21,-238.64"/>
</g>
<!-- BB17 -->
<g id="node18" class="node">
<title>BB17</title>
<ellipse fill="none" stroke="black" cx="1005.24" cy="-48.08" rx="103.48" ry="48.17"/>
<text text-anchor="middle" x="1005.24" y="-66.88" font-family="Times New Roman,serif" font-size="14.00">[148..14f)</text>
<text text-anchor="middle" x="1005.24" y="-51.88" font-family="Times New Roman,serif" font-size="14.00">Count: 0</text>
<text text-anchor="middle" x="1005.24" y="-36.88" font-family="Times New Roman,serif" font-size="14.00">Normalized count: 0.00</text>
<text text-anchor="middle" x="1005.24" y="-21.88" font-family="Times New Roman,serif" font-size="14.00">Samples weight: 0.00</text>
</g>
<!-- BB16&#45;&gt;BB17 -->
<g id="edge25" class="edge">
<title>BB16&#45;&gt;BB17</title>
<path fill="none" stroke="black" d="M1026.32,-132.26C1024.15,-123.69 1021.86,-114.66 1019.63,-105.84"/>
<polygon fill="black" stroke="black" points="1022.98,-104.84 1017.13,-96.01 1016.2,-106.56 1022.98,-104.84"/>
</g>
<!-- BB18 -->
<g id="node19" class="node">
<title>BB18</title>
<ellipse fill="none" stroke="black" cx="1229.24" cy="-48.08" rx="103.48" ry="48.17"/>
<text text-anchor="middle" x="1229.24" y="-66.88" font-family="Times New Roman,serif" font-size="14.00">[14f..15a)</text>
<text text-anchor="middle" x="1229.24" y="-51.88" font-family="Times New Roman,serif" font-size="14.00">Count: 50</text>
<text text-anchor="middle" x="1229.24" y="-36.88" font-family="Times New Roman,serif" font-size="14.00">Normalized count: 1.00</text>
<text text-anchor="middle" x="1229.24" y="-21.88" font-family="Times New Roman,serif" font-size="14.00">Samples weight: 0.00</text>
</g>
<!-- BB16&#45;&gt;BB18 -->
<g id="edge24" class="edge">
<title>BB16&#45;&gt;BB18</title>
<path fill="none" stroke="black" d="M1095.54,-140.2C1116.98,-125.59 1141.49,-108.88 1163.62,-93.8"/>
<polygon fill="black" stroke="black" points="1165.68,-96.63 1171.97,-88.11 1161.74,-90.85 1165.68,-96.63"/>
</g>
<!-- BB17&#45;&gt;BB18 -->
<g id="edge26" class="edge">
<title>BB17&#45;&gt;BB18</title>
<path fill="none" stroke="black" d="M1108.49,-48.08C1110.94,-48.08 1113.4,-48.08 1115.85,-48.08"/>
<polygon fill="black" stroke="black" points="1115.94,-51.58 1125.94,-48.08 1115.94,-44.58 1115.94,-51.58"/>
</g>
</g>
</svg>
