<?xml version="1.0" encoding="UTF-8" standalone="no"?>
<!DOCTYPE svg PUBLIC "-//W3C//DTD SVG 1.1//EN"
 "http://www.w3.org/Graphics/SVG/1.1/DTD/svg11.dtd">
<!-- Generated by graphviz version 2.47.0 (20210316.0004)
 -->
<!-- Title: G Pages: 1 -->
<svg width="1335pt" height="1426pt"
 viewBox="0.00 0.00 1335.48 1425.83" xmlns="http://www.w3.org/2000/svg" xmlns:xlink="http://www.w3.org/1999/xlink">
<g id="graph0" class="graph" transform="scale(1 1) rotate(0) translate(4 1421.83)">
<title>G</title>
<polygon fill="white" stroke="transparent" points="-4,4 -4,-1421.83 1331.48,-1421.83 1331.48,4 -4,4"/>
<!-- BB0 -->
<g id="node1" class="node">
<title>BB0</title>
<ellipse fill="none" stroke="black" cx="103.24" cy="-1369.75" rx="103.48" ry="48.17"/>
<text text-anchor="middle" x="103.24" y="-1388.55" font-family="Times New Roman,serif" font-size="14.00">[0..22)</text>
<text text-anchor="middle" x="103.24" y="-1373.55" font-family="Times New Roman,serif" font-size="14.00">Count: 1</text>
<text text-anchor="middle" x="103.24" y="-1358.55" font-family="Times New Roman,serif" font-size="14.00">Normalized count: 1.00</text>
<text text-anchor="middle" x="103.24" y="-1343.55" font-family="Times New Roman,serif" font-size="14.00">Samples weight: 0.00</text>
</g>
<!-- BB2 -->
<g id="node3" class="node">
<title>BB2</title>
<ellipse fill="none" stroke="black" cx="103.24" cy="-1237.58" rx="103.48" ry="48.17"/>
<text text-anchor="middle" x="103.24" y="-1256.38" font-family="Times New Roman,serif" font-size="14.00">[3a..3e)</text>
<text text-anchor="middle" x="103.24" y="-1241.38" font-family="Times New Roman,serif" font-size="14.00">Count: 1</text>
<text text-anchor="middle" x="103.24" y="-1226.38" font-family="Times New Roman,serif" font-size="14.00">Normalized count: 1.00</text>
<text text-anchor="middle" x="103.24" y="-1211.38" font-family="Times New Roman,serif" font-size="14.00">Samples weight: 0.00</text>
</g>
<!-- BB0&#45;&gt;BB2 -->
<g id="edge1" class="edge">
<title>BB0&#45;&gt;BB2</title>
<path fill="none" stroke="black" d="M103.24,-1321.39C103.24,-1313.12 103.24,-1304.44 103.24,-1295.93"/>
<polygon fill="black" stroke="black" points="106.74,-1295.69 103.24,-1285.69 99.74,-1295.69 106.74,-1295.69"/>
</g>
<!-- BB1 -->
<g id="node2" class="node">
<title>BB1</title>
<ellipse fill="none" stroke="black" cx="103.24" cy="-1105.42" rx="103.48" ry="48.17"/>
<text text-anchor="middle" x="103.24" y="-1124.22" font-family="Times New Roman,serif" font-size="14.00">[22..3a)</text>
<text text-anchor="middle" x="103.24" y="-1109.22" font-family="Times New Roman,serif" font-size="14.00">Count: 0</text>
<text text-anchor="middle" x="103.24" y="-1094.22" font-family="Times New Roman,serif" font-size="14.00">Normalized count: 0.00</text>
<text text-anchor="middle" x="103.24" y="-1079.22" font-family="Times New Roman,serif" font-size="14.00">Samples weight: 0.00</text>
</g>
<!-- BB1&#45;&gt;BB2 -->
<g id="edge2" class="edge">
<title>BB1&#45;&gt;BB2</title>
<path fill="none" stroke="black" d="M109.76,-1153.78C109.98,-1162.07 110.04,-1170.78 109.94,-1179.31"/>
<polygon fill="black" stroke="black" points="106.44,-1179.52 109.75,-1189.59 113.44,-1179.66 106.44,-1179.52"/>
</g>
<!-- BB2&#45;&gt;BB1 -->
<g id="edge3" class="edge">
<title>BB2&#45;&gt;BB1</title>
<path fill="none" stroke="black" d="M96.72,-1189.59C96.5,-1181.21 96.43,-1172.41 96.53,-1163.78"/>
<polygon fill="black" stroke="black" points="100.03,-1163.84 96.72,-1153.78 93.03,-1163.71 100.03,-1163.84"/>
</g>
<!-- BB3 -->
<g id="node4" class="node">
<title>BB3</title>
<ellipse fill="none" stroke="black" cx="327.24" cy="-1105.42" rx="103.48" ry="48.17"/>
<text text-anchor="middle" x="327.24" y="-1124.22" font-family="Times New Roman,serif" font-size="14.00">[3e..42)</text>
<text text-anchor="middle" x="327.24" y="-1109.22" font-family="Times New Roman,serif" font-size="14.00">Count: 1</text>
<text text-anchor="middle" x="327.24" y="-1094.22" font-family="Times New Roman,serif" font-size="14.00">Normalized count: 1.00</text>
<text text-anchor="middle" x="327.24" y="-1079.22" font-family="Times New Roman,serif" font-size="14.00">Samples weight: 0.00</text>
</g>
<!-- BB2&#45;&gt;BB3 -->
<g id="edge4" class="edge">
<title>BB2&#45;&gt;BB3</title>
<path fill="none" stroke="black" d="M166.83,-1199.63C194.26,-1183.69 226.48,-1164.96 254.83,-1148.49"/>
<polygon fill="black" stroke="black" points="256.6,-1151.51 263.49,-1143.46 253.08,-1145.46 256.6,-1151.51"/>
</g>
<!-- BB5 -->
<g id="node6" class="node">
<title>BB5</title>
<ellipse fill="none" stroke="black" cx="327.24" cy="-973.25" rx="108.38" ry="48.17"/>
<text text-anchor="middle" x="327.24" y="-992.05" font-family="Times New Roman,serif" font-size="14.00">[4a..4f)</text>
<text text-anchor="middle" x="327.24" y="-977.05" font-family="Times New Roman,serif" font-size="14.00">Count: 28</text>
<text text-anchor="middle" x="327.24" y="-962.05" font-family="Times New Roman,serif" font-size="14.00">Normalized count: 28.00</text>
<text text-anchor="middle" x="327.24" y="-947.05" font-family="Times New Roman,serif" font-size="14.00">Samples weight: 0.10</text>
</g>
<!-- BB3&#45;&gt;BB5 -->
<g id="edge5" class="edge">
<title>BB3&#45;&gt;BB5</title>
<path fill="none" stroke="black" d="M327.24,-1057.05C327.24,-1048.79 327.24,-1040.1 327.24,-1031.6"/>
<polygon fill="black" stroke="black" points="330.74,-1031.36 327.24,-1021.36 323.74,-1031.36 330.74,-1031.36"/>
</g>
<!-- BB4 -->
<g id="node5" class="node">
<title>BB4</title>
<ellipse fill="none" stroke="black" cx="327.24" cy="-841.08" rx="108.38" ry="48.17"/>
<text text-anchor="middle" x="327.24" y="-859.88" font-family="Times New Roman,serif" font-size="14.00">[42..4a)</text>
<text text-anchor="middle" x="327.24" y="-844.88" font-family="Times New Roman,serif" font-size="14.00">Count: 27</text>
<text text-anchor="middle" x="327.24" y="-829.88" font-family="Times New Roman,serif" font-size="14.00">Normalized count: 27.00</text>
<text text-anchor="middle" x="327.24" y="-814.88" font-family="Times New Roman,serif" font-size="14.00">Samples weight: 0.10</text>
</g>
<!-- BB4&#45;&gt;BB5 -->
<g id="edge6" class="edge">
<title>BB4&#45;&gt;BB5</title>
<path fill="none" stroke="black" d="M333.75,-889.19C333.97,-897.45 334.04,-906.13 333.95,-914.64"/>
<polygon fill="black" stroke="black" points="330.44,-914.83 333.76,-924.89 337.44,-914.95 330.44,-914.83"/>
</g>
<!-- BB5&#45;&gt;BB4 -->
<g id="edge7" class="edge">
<title>BB5&#45;&gt;BB4</title>
<path fill="none" stroke="black" d="M320.72,-924.89C320.5,-916.62 320.44,-907.94 320.53,-899.43"/>
<polygon fill="black" stroke="black" points="324.03,-899.25 320.72,-889.19 317.04,-899.12 324.03,-899.25"/>
</g>
<!-- BB6 -->
<g id="node7" class="node">
<title>BB6</title>
<ellipse fill="none" stroke="black" cx="556.24" cy="-841.08" rx="103.48" ry="48.17"/>
<text text-anchor="middle" x="556.24" y="-859.88" font-family="Times New Roman,serif" font-size="14.00">[4f..88)</text>
<text text-anchor="middle" x="556.24" y="-844.88" font-family="Times New Roman,serif" font-size="14.00">Count: 1</text>
<text text-anchor="middle" x="556.24" y="-829.88" font-family="Times New Roman,serif" font-size="14.00">Normalized count: 1.00</text>
<text text-anchor="middle" x="556.24" y="-814.88" font-family="Times New Roman,serif" font-size="14.00">Samples weight: 0.00</text>
</g>
<!-- BB5&#45;&gt;BB6 -->
<g id="edge8" class="edge">
<title>BB5&#45;&gt;BB6</title>
<path fill="none" stroke="black" d="M392.86,-934.95C421.01,-918.95 454.01,-900.19 482.95,-883.74"/>
<polygon fill="black" stroke="black" points="484.83,-886.7 491.79,-878.71 481.37,-880.61 484.83,-886.7"/>
</g>
<!-- BB8 -->
<g id="node9" class="node">
<title>BB8</title>
<ellipse fill="none" stroke="black" cx="556.24" cy="-708.92" rx="113.27" ry="48.17"/>
<text text-anchor="middle" x="556.24" y="-727.72" font-family="Times New Roman,serif" font-size="14.00">[a1..aa)</text>
<text text-anchor="middle" x="556.24" y="-712.72" font-family="Times New Roman,serif" font-size="14.00">Count: 110</text>
<text text-anchor="middle" x="556.24" y="-697.72" font-family="Times New Roman,serif" font-size="14.00">Normalized count: 110.00</text>
<text text-anchor="middle" x="556.24" y="-682.72" font-family="Times New Roman,serif" font-size="14.00">Samples weight: 0.39</text>
</g>
<!-- BB6&#45;&gt;BB8 -->
<g id="edge9" class="edge">
<title>BB6&#45;&gt;BB8</title>
<path fill="none" stroke="black" d="M556.24,-792.72C556.24,-784.45 556.24,-775.77 556.24,-767.27"/>
<polygon fill="black" stroke="black" points="559.74,-767.02 556.24,-757.02 552.74,-767.02 559.74,-767.02"/>
</g>
<!-- BB7 -->
<g id="node8" class="node">
<title>BB7</title>
<ellipse fill="none" stroke="black" cx="556.24" cy="-576.75" rx="113.27" ry="48.17"/>
<text text-anchor="middle" x="556.24" y="-595.55" font-family="Times New Roman,serif" font-size="14.00">[88..a1)</text>
<text text-anchor="middle" x="556.24" y="-580.55" font-family="Times New Roman,serif" font-size="14.00">Count: 109</text>
<text text-anchor="middle" x="556.24" y="-565.55" font-family="Times New Roman,serif" font-size="14.00">Normalized count: 109.00</text>
<text text-anchor="middle" x="556.24" y="-550.55" font-family="Times New Roman,serif" font-size="14.00">Samples weight: 0.39</text>
</g>
<!-- BB7&#45;&gt;BB8 -->
<g id="edge10" class="edge">
<title>BB7&#45;&gt;BB8</title>
<path fill="none" stroke="black" d="M562.75,-624.86C562.97,-633.12 563.04,-641.8 562.95,-650.3"/>
<polygon fill="black" stroke="black" points="559.44,-650.49 562.76,-660.55 566.44,-650.62 559.44,-650.49"/>
</g>
<!-- BB8&#45;&gt;BB7 -->
<g id="edge11" class="edge">
<title>BB8&#45;&gt;BB7</title>
<path fill="none" stroke="black" d="M549.72,-660.55C549.5,-652.29 549.44,-643.6 549.53,-635.1"/>
<polygon fill="black" stroke="black" points="553.03,-634.92 549.72,-624.86 546.04,-634.79 553.03,-634.92"/>
</g>
<!-- BB9 -->
<g id="node10" class="node">
<title>BB9</title>
<ellipse fill="none" stroke="black" cx="790.24" cy="-576.75" rx="103.48" ry="48.17"/>
<text text-anchor="middle" x="790.24" y="-595.55" font-family="Times New Roman,serif" font-size="14.00">[aa..b2)</text>
<text text-anchor="middle" x="790.24" y="-580.55" font-family="Times New Roman,serif" font-size="14.00">Count: 1</text>
<text text-anchor="middle" x="790.24" y="-565.55" font-family="Times New Roman,serif" font-size="14.00">Normalized count: 1.00</text>
<text text-anchor="middle" x="790.24" y="-550.55" font-family="Times New Roman,serif" font-size="14.00">Samples weight: 0.00</text>
</g>
<!-- BB8&#45;&gt;BB9 -->
<g id="edge12" class="edge">
<title>BB8&#45;&gt;BB9</title>
<path fill="none" stroke="black" d="M623.92,-670.27C652.67,-654.28 686.27,-635.58 715.73,-619.2"/>
<polygon fill="black" stroke="black" points="717.68,-622.11 724.72,-614.19 714.28,-616 717.68,-622.11"/>
</g>
<!-- BB10 -->
<g id="node11" class="node">
<title>BB10</title>
<ellipse fill="none" stroke="black" cx="678.24" cy="-444.58" rx="103.48" ry="48.17"/>
<text text-anchor="middle" x="678.24" y="-463.38" font-family="Times New Roman,serif" font-size="14.00">[b2..bc)</text>
<text text-anchor="middle" x="678.24" y="-448.38" font-family="Times New Roman,serif" font-size="14.00">Count: 0</text>
<text text-anchor="middle" x="678.24" y="-433.38" font-family="Times New Roman,serif" font-size="14.00">Normalized count: 0.00</text>
<text text-anchor="middle" x="678.24" y="-418.38" font-family="Times New Roman,serif" font-size="14.00">Samples weight: 0.00</text>
</g>
<!-- BB9&#45;&gt;BB10 -->
<g id="edge14" class="edge">
<title>BB9&#45;&gt;BB10</title>
<path fill="none" stroke="black" d="M752.32,-531.68C742.83,-520.65 732.57,-508.73 722.79,-497.36"/>
<polygon fill="black" stroke="black" points="725.29,-494.9 716.12,-489.61 719.99,-499.47 725.29,-494.9"/>
</g>
<!-- BB14 -->
<g id="node15" class="node">
<title>BB14</title>
<ellipse fill="none" stroke="black" cx="902.24" cy="-444.58" rx="103.48" ry="48.17"/>
<text text-anchor="middle" x="902.24" y="-463.38" font-family="Times New Roman,serif" font-size="14.00">[f8..107)</text>
<text text-anchor="middle" x="902.24" y="-448.38" font-family="Times New Roman,serif" font-size="14.00">Count: 1</text>
<text text-anchor="middle" x="902.24" y="-433.38" font-family="Times New Roman,serif" font-size="14.00">Normalized count: 1.00</text>
<text text-anchor="middle" x="902.24" y="-418.38" font-family="Times New Roman,serif" font-size="14.00">Samples weight: 0.00</text>
</g>
<!-- BB9&#45;&gt;BB14 -->
<g id="edge13" class="edge">
<title>BB9&#45;&gt;BB14</title>
<path fill="none" stroke="black" d="M828.16,-531.68C837.64,-520.65 847.91,-508.73 857.68,-497.36"/>
<polygon fill="black" stroke="black" points="860.49,-499.47 864.36,-489.61 855.18,-494.9 860.49,-499.47"/>
</g>
<!-- BB13 -->
<g id="node14" class="node">
<title>BB13</title>
<ellipse fill="none" stroke="black" cx="724.24" cy="-312.42" rx="103.48" ry="48.17"/>
<text text-anchor="middle" x="724.24" y="-331.22" font-family="Times New Roman,serif" font-size="14.00">[eb..f8)</text>
<text text-anchor="middle" x="724.24" y="-316.22" font-family="Times New Roman,serif" font-size="14.00">Count: 0</text>
<text text-anchor="middle" x="724.24" y="-301.22" font-family="Times New Roman,serif" font-size="14.00">Normalized count: 0.00</text>
<text text-anchor="middle" x="724.24" y="-286.22" font-family="Times New Roman,serif" font-size="14.00">Samples weight: 0.00</text>
</g>
<!-- BB10&#45;&gt;BB13 -->
<g id="edge15" class="edge">
<title>BB10&#45;&gt;BB13</title>
<path fill="none" stroke="black" d="M694.71,-396.96C697.82,-388.17 701.1,-378.9 704.29,-369.85"/>
<polygon fill="black" stroke="black" points="707.69,-370.75 707.72,-360.15 701.09,-368.42 707.69,-370.75"/>
</g>
<!-- BB11 -->
<g id="node12" class="node">
<title>BB11</title>
<ellipse fill="none" stroke="black" cx="809.24" cy="-180.25" rx="103.48" ry="48.17"/>
<text text-anchor="middle" x="809.24" y="-199.05" font-family="Times New Roman,serif" font-size="14.00">[bc..dc)</text>
<text text-anchor="middle" x="809.24" y="-184.05" font-family="Times New Roman,serif" font-size="14.00">Count: 0</text>
<text text-anchor="middle" x="809.24" y="-169.05" font-family="Times New Roman,serif" font-size="14.00">Normalized count: 0.00</text>
<text text-anchor="middle" x="809.24" y="-154.05" font-family="Times New Roman,serif" font-size="14.00">Samples weight: 0.00</text>
</g>
<!-- BB12 -->
<g id="node13" class="node">
<title>BB12</title>
<ellipse fill="none" stroke="black" cx="743.24" cy="-48.08" rx="103.48" ry="48.17"/>
<text text-anchor="middle" x="743.24" y="-66.88" font-family="Times New Roman,serif" font-size="14.00">[dc..eb)</text>
<text text-anchor="middle" x="743.24" y="-51.88" font-family="Times New Roman,serif" font-size="14.00">Count: 0</text>
<text text-anchor="middle" x="743.24" y="-36.88" font-family="Times New Roman,serif" font-size="14.00">Normalized count: 0.00</text>
<text text-anchor="middle" x="743.24" y="-21.88" font-family="Times New Roman,serif" font-size="14.00">Samples weight: 0.00</text>
</g>
<!-- BB11&#45;&gt;BB12 -->
<g id="edge17" class="edge">
<title>BB11&#45;&gt;BB12</title>
<path fill="none" stroke="black" d="M785.97,-133.36C781.19,-123.93 776.11,-113.91 771.18,-104.19"/>
<polygon fill="black" stroke="black" points="774.16,-102.34 766.52,-95 767.92,-105.5 774.16,-102.34"/>
</g>
<!-- BB11&#45;&gt;BB14 -->
<g id="edge16" class="edge">
<title>BB11&#45;&gt;BB14</title>
<path fill="none" stroke="black" d="M825.76,-227.85C841.58,-272.49 865.48,-339.89 882.34,-387.45"/>
<polygon fill="black" stroke="black" points="879.08,-388.73 885.72,-396.99 885.68,-386.39 879.08,-388.73"/>
</g>
<!-- BB12&#45;&gt;BB13 -->
<g id="edge18" class="edge">
<title>BB12&#45;&gt;BB13</title>
<path fill="none" stroke="black" d="M712.82,-94.35C706.41,-106.17 700.58,-119.24 697.24,-132.17 686.55,-173.55 690.55,-186.12 697.24,-228.33 698.65,-237.24 700.86,-246.5 703.43,-255.46"/>
<polygon fill="black" stroke="black" points="700.08,-256.48 706.33,-265.03 706.78,-254.45 700.08,-256.48"/>
</g>
<!-- BB13&#45;&gt;BB11 -->
<g id="edge19" class="edge">
<title>BB13&#45;&gt;BB11</title>
<path fill="none" stroke="black" d="M753.73,-266.26C760.25,-256.27 767.22,-245.6 773.94,-235.31"/>
<polygon fill="black" stroke="black" points="776.97,-237.06 779.51,-226.77 771.11,-233.23 776.97,-237.06"/>
</g>
<!-- BB13&#45;&gt;BB14 -->
<g id="edge20" class="edge">
<title>BB13&#45;&gt;BB14</title>
<path fill="none" stroke="black" d="M778.91,-353.4C797.94,-367.31 819.43,-383.03 839.08,-397.4"/>
<polygon fill="black" stroke="black" points="837.24,-400.39 847.38,-403.47 841.37,-394.74 837.24,-400.39"/>
</g>
<!-- BB15 -->
<g id="node16" class="node">
<title>BB15</title>
<ellipse fill="none" stroke="black" cx="1009.24" cy="-312.42" rx="103.48" ry="48.17"/>
<text text-anchor="middle" x="1009.24" y="-331.22" font-family="Times New Roman,serif" font-size="14.00">[107..140)</text>
<text text-anchor="middle" x="1009.24" y="-316.22" font-family="Times New Roman,serif" font-size="14.00">Count: 1</text>
<text text-anchor="middle" x="1009.24" y="-301.22" font-family="Times New Roman,serif" font-size="14.00">Normalized count: 1.00</text>
<text text-anchor="middle" x="1009.24" y="-286.22" font-family="Times New Roman,serif" font-size="14.00">Samples weight: 0.00</text>
</g>
<!-- BB14&#45;&gt;BB15 -->
<g id="edge21" class="edge">
<title>BB14&#45;&gt;BB15</title>
<path fill="none" stroke="black" d="M938.46,-399.51C947.34,-388.71 956.93,-377.05 966.1,-365.89"/>
<polygon fill="black" stroke="black" points="969.04,-367.83 972.69,-357.88 963.63,-363.38 969.04,-367.83"/>
</g>
<!-- BB15&#45;&gt;BB15 -->
<g id="edge22" class="edge">
<title>BB15&#45;&gt;BB15</title>
<path fill="none" stroke="black" d="M1099.12,-336.22C1117.39,-333.63 1130.48,-325.69 1130.48,-312.42 1130.48,-301.73 1122,-294.51 1109.17,-290.74"/>
<polygon fill="black" stroke="black" points="1109.63,-287.26 1099.12,-288.61 1108.18,-294.11 1109.63,-287.26"/>
</g>
<!-- BB16 -->
<g id="node17" class="node">
<title>BB16</title>
<ellipse fill="none" stroke="black" cx="1033.24" cy="-180.25" rx="103.48" ry="48.17"/>
<text text-anchor="middle" x="1033.24" y="-199.05" font-family="Times New Roman,serif" font-size="14.00">[140..148)</text>
<text text-anchor="middle" x="1033.24" y="-184.05" font-family="Times New Roman,serif" font-size="14.00">Count: 1</text>
<text text-anchor="middle" x="1033.24" y="-169.05" font-family="Times New Roman,serif" font-size="14.00">Normalized count: 1.00</text>
<text text-anchor="middle" x="1033.24" y="-154.05" font-family="Times New Roman,serif" font-size="14.00">Samples weight: 0.00</text>
</g>
<!-- BB15&#45;&gt;BB16 -->
<g id="edge23" class="edge">
<title>BB15&#45;&gt;BB16</title>
<path fill="none" stroke="black" d="M1017.9,-264.42C1019.47,-255.94 1021.11,-247.02 1022.72,-238.29"/>
<polygon fill="black" stroke="black" points="1026.21,-238.64 1024.59,-228.17 1019.33,-237.37 1026.21,-238.64"/>
</g>
<!-- BB17 -->
<g id="node18" class="node">
<title>BB17</title>
<ellipse fill="none" stroke="black" cx="1000.24" cy="-48.08" rx="103.48" ry="48.17"/>
<text text-anchor="middle" x="1000.24" y="-66.88" font-family="Times New Roman,serif" font-size="14.00">[148..14f)</text>
<text text-anchor="middle" x="1000.24" y="-51.88" font-family="Times New Roman,serif" font-size="14.00">Count: 0</text>
<text text-anchor="middle" x="1000.24" y="-36.88" font-family="Times New Roman,serif" font-size="14.00">Normalized count: 0.00</text>
<text text-anchor="middle" x="1000.24" y="-21.88" font-family="Times New Roman,serif" font-size="14.00">Samples weight: 0.00</text>
</g>
<!-- BB16&#45;&gt;BB17 -->
<g id="edge25" class="edge">
<title>BB16&#45;&gt;BB17</title>
<path fill="none" stroke="black" d="M1021.32,-132.26C1019.15,-123.69 1016.86,-114.66 1014.63,-105.84"/>
<polygon fill="black" stroke="black" points="1017.98,-104.84 1012.13,-96.01 1011.2,-106.56 1017.98,-104.84"/>
</g>
<!-- BB18 -->
<g id="node19" class="node">
<title>BB18</title>
<ellipse fill="none" stroke="black" cx="1224.24" cy="-48.08" rx="103.48" ry="48.17"/>
<text text-anchor="middle" x="1224.24" y="-66.88" font-family="Times New Roman,serif" font-size="14.00">[14f..15a)</text>
<text text-anchor="middle" x="1224.24" y="-51.88" font-family="Times New Roman,serif" font-size="14.00">Count: 1</text>
<text text-anchor="middle" x="1224.24" y="-36.88" font-family="Times New Roman,serif" font-size="14.00">Normalized count: 1.00</text>
<text text-anchor="middle" x="1224.24" y="-21.88" font-family="Times New Roman,serif" font-size="14.00">Samples weight: 0.00</text>
</g>
<!-- BB16&#45;&gt;BB18 -->
<g id="edge24" class="edge">
<title>BB16&#45;&gt;BB18</title>
<path fill="none" stroke="black" d="M1090.54,-140.2C1111.98,-125.59 1136.49,-108.88 1158.62,-93.8"/>
<polygon fill="black" stroke="black" points="1160.68,-96.63 1166.97,-88.11 1156.74,-90.85 1160.68,-96.63"/>
</g>
<!-- BB17&#45;&gt;BB18 -->
<g id="edge26" class="edge">
<title>BB17&#45;&gt;BB18</title>
<path fill="none" stroke="black" d="M1103.49,-48.08C1105.94,-48.08 1108.4,-48.08 1110.85,-48.08"/>
<polygon fill="black" stroke="black" points="1110.94,-51.58 1120.94,-48.08 1110.94,-44.58 1110.94,-51.58"/>
</g>
</g>
</svg>
