<?xml version="1.0" encoding="UTF-8" standalone="no"?>
<!DOCTYPE svg PUBLIC "-//W3C//DTD SVG 1.1//EN"
 "http://www.w3.org/Graphics/SVG/1.1/DTD/svg11.dtd">
<!-- Generated by graphviz version 2.47.0 (20210316.0004)
 -->
<!-- Title: G Pages: 1 -->
<svg width="117pt" height="241pt"
 viewBox="0.00 0.00 117.22 241.22" xmlns="http://www.w3.org/2000/svg" xmlns:xlink="http://www.w3.org/1999/xlink">
<g id="graph0" class="graph" transform="scale(1 1) rotate(0) translate(4 237.22)">
<title>G</title>
<polygon fill="white" stroke="transparent" points="-4,4 -4,-237.22 113.22,-237.22 113.22,4 -4,4"/>
<!-- BB0 -->
<g id="node1" class="node">
<title>BB0</title>
<ellipse fill="none" stroke="black" cx="48.08" cy="-206.35" rx="37.45" ry="26.74"/>
<text text-anchor="middle" x="48.08" y="-210.15" font-family="Times New Roman,serif" font-size="14.00">[0..43)</text>
<text text-anchor="middle" x="48.08" y="-195.15" font-family="Times New Roman,serif" font-size="14.00">0.03</text>
</g>
<!-- BB1 -->
<g id="node2" class="node">
<title>BB1</title>
<ellipse fill="none" stroke="black" cx="48.08" cy="-116.61" rx="43.27" ry="26.74"/>
<text text-anchor="middle" x="48.08" y="-120.41" font-family="Times New Roman,serif" font-size="14.00">[43..dc)</text>
<text text-anchor="middle" x="48.08" y="-105.41" font-family="Times New Roman,serif" font-size="14.00">0.88</text>
</g>
<!-- BB0&#45;&gt;BB1 -->
<g id="edge1" class="edge">
<title>BB0&#45;&gt;BB1</title>
<path fill="none" stroke="black" d="M48.08,-179.03C48.08,-171.06 48.08,-162.17 48.08,-153.68"/>
<polygon fill="black" stroke="black" points="51.58,-153.61 48.08,-143.61 44.58,-153.61 51.58,-153.61"/>
</g>
<!-- BB1&#45;&gt;BB1 -->
<g id="edge2" class="edge">
<title>BB1&#45;&gt;BB1</title>
<path fill="none" stroke="black" d="M82.34,-132.94C96.85,-134.17 109.22,-128.73 109.22,-116.61 109.22,-107.43 102.12,-102.08 92.36,-100.56"/>
<polygon fill="black" stroke="black" points="92.43,-97.06 82.34,-100.28 92.24,-104.06 92.43,-97.06"/>
</g>
<!-- BB2 -->
<g id="node3" class="node">
<title>BB2</title>
<ellipse fill="none" stroke="black" cx="48.08" cy="-26.87" rx="48.17" ry="26.74"/>
<text text-anchor="middle" x="48.08" y="-30.67" font-family="Times New Roman,serif" font-size="14.00">[dc..18c)</text>
<text text-anchor="middle" x="48.08" y="-15.67" font-family="Times New Roman,serif" font-size="14.00">0.09</text>
</g>
<!-- BB1&#45;&gt;BB2 -->
<g id="edge3" class="edge">
<title>BB1&#45;&gt;BB2</title>
<path fill="none" stroke="black" d="M48.08,-89.29C48.08,-81.32 48.08,-72.43 48.08,-63.94"/>
<polygon fill="black" stroke="black" points="51.58,-63.87 48.08,-53.87 44.58,-63.87 51.58,-63.87"/>
</g>
</g>
</svg>
