<?xml version="1.0" encoding="UTF-8" standalone="no"?>
<!DOCTYPE svg PUBLIC "-//W3C//DTD SVG 1.1//EN"
 "http://www.w3.org/Graphics/SVG/1.1/DTD/svg11.dtd">
<!-- Generated by graphviz version 2.47.0 (20210316.0004)
 -->
<!-- Title: G Pages: 1 -->
<svg width="1069pt" height="897pt"
 viewBox="0.00 0.00 1069.48 897.17" xmlns="http://www.w3.org/2000/svg" xmlns:xlink="http://www.w3.org/1999/xlink">
<g id="graph0" class="graph" transform="scale(1 1) rotate(0) translate(4 893.17)">
<title>G</title>
<polygon fill="white" stroke="transparent" points="-4,4 -4,-893.17 1065.48,-893.17 1065.48,4 -4,4"/>
<!-- BB0 -->
<g id="node1" class="node">
<title>BB0</title>
<ellipse fill="none" stroke="black" cx="228.24" cy="-841.08" rx="103.48" ry="48.17"/>
<text text-anchor="middle" x="228.24" y="-859.88" font-family="Times New Roman,serif" font-size="14.00">[0..a)</text>
<text text-anchor="middle" x="228.24" y="-844.88" font-family="Times New Roman,serif" font-size="14.00">Count: 3</text>
<text text-anchor="middle" x="228.24" y="-829.88" font-family="Times New Roman,serif" font-size="14.00">Normalized count: 1.00</text>
<text text-anchor="middle" x="228.24" y="-814.88" font-family="Times New Roman,serif" font-size="14.00">Samples weight: 0.00</text>
</g>
<!-- BB8 -->
<g id="node9" class="node">
<title>BB8</title>
<ellipse fill="none" stroke="black" cx="228.24" cy="-708.92" rx="103.48" ry="48.17"/>
<text text-anchor="middle" x="228.24" y="-727.72" font-family="Times New Roman,serif" font-size="14.00">[3a..3f)</text>
<text text-anchor="middle" x="228.24" y="-712.72" font-family="Times New Roman,serif" font-size="14.00">Count: 9</text>
<text text-anchor="middle" x="228.24" y="-697.72" font-family="Times New Roman,serif" font-size="14.00">Normalized count: 3.00</text>
<text text-anchor="middle" x="228.24" y="-682.72" font-family="Times New Roman,serif" font-size="14.00">Samples weight: 0.00</text>
</g>
<!-- BB0&#45;&gt;BB8 -->
<g id="edge1" class="edge">
<title>BB0&#45;&gt;BB8</title>
<path fill="none" stroke="black" d="M228.24,-792.72C228.24,-784.45 228.24,-775.77 228.24,-767.27"/>
<polygon fill="black" stroke="black" points="231.74,-767.02 228.24,-757.02 224.74,-767.02 231.74,-767.02"/>
</g>
<!-- BB1 -->
<g id="node2" class="node">
<title>BB1</title>
<ellipse fill="none" stroke="black" cx="228.24" cy="-576.75" rx="103.48" ry="48.17"/>
<text text-anchor="middle" x="228.24" y="-595.55" font-family="Times New Roman,serif" font-size="14.00">[a..e)</text>
<text text-anchor="middle" x="228.24" y="-580.55" font-family="Times New Roman,serif" font-size="14.00">Count: 6</text>
<text text-anchor="middle" x="228.24" y="-565.55" font-family="Times New Roman,serif" font-size="14.00">Normalized count: 2.00</text>
<text text-anchor="middle" x="228.24" y="-550.55" font-family="Times New Roman,serif" font-size="14.00">Samples weight: 0.00</text>
</g>
<!-- BB3 -->
<g id="node4" class="node">
<title>BB3</title>
<ellipse fill="none" stroke="black" cx="228.24" cy="-444.58" rx="113.27" ry="48.17"/>
<text text-anchor="middle" x="228.24" y="-463.38" font-family="Times New Roman,serif" font-size="14.00">[1c..20)</text>
<text text-anchor="middle" x="228.24" y="-448.38" font-family="Times New Roman,serif" font-size="14.00">Count: 2110</text>
<text text-anchor="middle" x="228.24" y="-433.38" font-family="Times New Roman,serif" font-size="14.00">Normalized count: 703.33</text>
<text text-anchor="middle" x="228.24" y="-418.38" font-family="Times New Roman,serif" font-size="14.00">Samples weight: 0.24</text>
</g>
<!-- BB1&#45;&gt;BB3 -->
<g id="edge2" class="edge">
<title>BB1&#45;&gt;BB3</title>
<path fill="none" stroke="black" d="M228.24,-528.39C228.24,-520.12 228.24,-511.44 228.24,-502.93"/>
<polygon fill="black" stroke="black" points="231.74,-502.69 228.24,-492.69 224.74,-502.69 231.74,-502.69"/>
</g>
<!-- BB2 -->
<g id="node3" class="node">
<title>BB2</title>
<ellipse fill="none" stroke="black" cx="228.24" cy="-312.42" rx="113.27" ry="48.17"/>
<text text-anchor="middle" x="228.24" y="-331.22" font-family="Times New Roman,serif" font-size="14.00">[e..1c)</text>
<text text-anchor="middle" x="228.24" y="-316.22" font-family="Times New Roman,serif" font-size="14.00">Count: 2104</text>
<text text-anchor="middle" x="228.24" y="-301.22" font-family="Times New Roman,serif" font-size="14.00">Normalized count: 701.33</text>
<text text-anchor="middle" x="228.24" y="-286.22" font-family="Times New Roman,serif" font-size="14.00">Samples weight: 0.24</text>
</g>
<!-- BB2&#45;&gt;BB3 -->
<g id="edge3" class="edge">
<title>BB2&#45;&gt;BB3</title>
<path fill="none" stroke="black" d="M234.75,-360.52C234.97,-368.78 235.04,-377.46 234.95,-385.97"/>
<polygon fill="black" stroke="black" points="231.44,-386.16 234.76,-396.22 238.44,-386.29 231.44,-386.16"/>
</g>
<!-- BB3&#45;&gt;BB2 -->
<g id="edge4" class="edge">
<title>BB3&#45;&gt;BB2</title>
<path fill="none" stroke="black" d="M221.72,-396.22C221.5,-387.95 221.44,-379.27 221.53,-370.77"/>
<polygon fill="black" stroke="black" points="225.03,-370.59 221.72,-360.52 218.04,-370.46 225.03,-370.59"/>
</g>
<!-- BB4 -->
<g id="node5" class="node">
<title>BB4</title>
<ellipse fill="none" stroke="black" cx="462.24" cy="-312.42" rx="103.48" ry="48.17"/>
<text text-anchor="middle" x="462.24" y="-331.22" font-family="Times New Roman,serif" font-size="14.00">[20..24)</text>
<text text-anchor="middle" x="462.24" y="-316.22" font-family="Times New Roman,serif" font-size="14.00">Count: 6</text>
<text text-anchor="middle" x="462.24" y="-301.22" font-family="Times New Roman,serif" font-size="14.00">Normalized count: 2.00</text>
<text text-anchor="middle" x="462.24" y="-286.22" font-family="Times New Roman,serif" font-size="14.00">Samples weight: 0.00</text>
</g>
<!-- BB3&#45;&gt;BB4 -->
<g id="edge5" class="edge">
<title>BB3&#45;&gt;BB4</title>
<path fill="none" stroke="black" d="M295.92,-405.93C324.67,-389.94 358.27,-371.25 387.73,-354.86"/>
<polygon fill="black" stroke="black" points="389.68,-357.78 396.72,-349.86 386.28,-351.66 389.68,-357.78"/>
</g>
<!-- BB6 -->
<g id="node7" class="node">
<title>BB6</title>
<ellipse fill="none" stroke="black" cx="345.24" cy="-180.25" rx="113.27" ry="48.17"/>
<text text-anchor="middle" x="345.24" y="-199.05" font-family="Times New Roman,serif" font-size="14.00">[32..36)</text>
<text text-anchor="middle" x="345.24" y="-184.05" font-family="Times New Roman,serif" font-size="14.00">Count: 2056</text>
<text text-anchor="middle" x="345.24" y="-169.05" font-family="Times New Roman,serif" font-size="14.00">Normalized count: 685.33</text>
<text text-anchor="middle" x="345.24" y="-154.05" font-family="Times New Roman,serif" font-size="14.00">Samples weight: 0.24</text>
</g>
<!-- BB4&#45;&gt;BB6 -->
<g id="edge6" class="edge">
<title>BB4&#45;&gt;BB6</title>
<path fill="none" stroke="black" d="M422.95,-267.71C412.93,-256.56 402.07,-244.47 391.72,-232.97"/>
<polygon fill="black" stroke="black" points="394.3,-230.6 385.02,-225.51 389.1,-235.28 394.3,-230.6"/>
</g>
<!-- BB5 -->
<g id="node6" class="node">
<title>BB5</title>
<ellipse fill="none" stroke="black" cx="345.24" cy="-48.08" rx="113.27" ry="48.17"/>
<text text-anchor="middle" x="345.24" y="-66.88" font-family="Times New Roman,serif" font-size="14.00">[24..32)</text>
<text text-anchor="middle" x="345.24" y="-51.88" font-family="Times New Roman,serif" font-size="14.00">Count: 2050</text>
<text text-anchor="middle" x="345.24" y="-36.88" font-family="Times New Roman,serif" font-size="14.00">Normalized count: 683.33</text>
<text text-anchor="middle" x="345.24" y="-21.88" font-family="Times New Roman,serif" font-size="14.00">Samples weight: 0.23</text>
</g>
<!-- BB5&#45;&gt;BB6 -->
<g id="edge7" class="edge">
<title>BB5&#45;&gt;BB6</title>
<path fill="none" stroke="black" d="M351.75,-96.19C351.97,-104.45 352.04,-113.13 351.95,-121.64"/>
<polygon fill="black" stroke="black" points="348.44,-121.83 351.76,-131.89 355.44,-121.95 348.44,-121.83"/>
</g>
<!-- BB6&#45;&gt;BB5 -->
<g id="edge8" class="edge">
<title>BB6&#45;&gt;BB5</title>
<path fill="none" stroke="black" d="M338.72,-131.89C338.5,-123.62 338.44,-114.94 338.53,-106.43"/>
<polygon fill="black" stroke="black" points="342.03,-106.26 338.72,-96.19 335.04,-106.12 342.03,-106.26"/>
</g>
<!-- BB7 -->
<g id="node8" class="node">
<title>BB7</title>
<ellipse fill="none" stroke="black" cx="103.24" cy="-48.08" rx="103.48" ry="48.17"/>
<text text-anchor="middle" x="103.24" y="-66.88" font-family="Times New Roman,serif" font-size="14.00">[36..3a)</text>
<text text-anchor="middle" x="103.24" y="-51.88" font-family="Times New Roman,serif" font-size="14.00">Count: 6</text>
<text text-anchor="middle" x="103.24" y="-36.88" font-family="Times New Roman,serif" font-size="14.00">Normalized count: 2.00</text>
<text text-anchor="middle" x="103.24" y="-21.88" font-family="Times New Roman,serif" font-size="14.00">Samples weight: 0.00</text>
</g>
<!-- BB6&#45;&gt;BB7 -->
<g id="edge9" class="edge">
<title>BB6&#45;&gt;BB7</title>
<path fill="none" stroke="black" d="M276.21,-142.12C245.82,-125.78 210.03,-106.53 178.92,-89.79"/>
<polygon fill="black" stroke="black" points="180.31,-86.57 169.85,-84.91 177,-92.73 180.31,-86.57"/>
</g>
<!-- BB7&#45;&gt;BB8 -->
<g id="edge10" class="edge">
<title>BB7&#45;&gt;BB8</title>
<path fill="none" stroke="black" d="M98.61,-96.42C93.88,-148.91 87.24,-236.13 87.24,-311.42 87.24,-445.58 87.24,-445.58 87.24,-445.58 87.24,-526.29 74.3,-555.88 116.24,-624.83 125.79,-640.54 139.53,-654.24 154.14,-665.74"/>
<polygon fill="black" stroke="black" points="152.22,-668.68 162.32,-671.9 156.43,-663.09 152.22,-668.68"/>
</g>
<!-- BB8&#45;&gt;BB1 -->
<g id="edge11" class="edge">
<title>BB8&#45;&gt;BB1</title>
<path fill="none" stroke="black" d="M228.24,-660.55C228.24,-652.29 228.24,-643.6 228.24,-635.1"/>
<polygon fill="black" stroke="black" points="231.74,-634.86 228.24,-624.86 224.74,-634.86 231.74,-634.86"/>
</g>
<!-- BB9 -->
<g id="node10" class="node">
<title>BB9</title>
<ellipse fill="none" stroke="black" cx="522.24" cy="-576.75" rx="103.48" ry="48.17"/>
<text text-anchor="middle" x="522.24" y="-595.55" font-family="Times New Roman,serif" font-size="14.00">[3f..43)</text>
<text text-anchor="middle" x="522.24" y="-580.55" font-family="Times New Roman,serif" font-size="14.00">Count: 3</text>
<text text-anchor="middle" x="522.24" y="-565.55" font-family="Times New Roman,serif" font-size="14.00">Normalized count: 1.00</text>
<text text-anchor="middle" x="522.24" y="-550.55" font-family="Times New Roman,serif" font-size="14.00">Samples weight: 0.00</text>
</g>
<!-- BB8&#45;&gt;BB9 -->
<g id="edge12" class="edge">
<title>BB8&#45;&gt;BB9</title>
<path fill="none" stroke="black" d="M302.05,-675.24C343.72,-656.79 395.94,-633.67 439.06,-614.58"/>
<polygon fill="black" stroke="black" points="440.67,-617.69 448.4,-610.44 437.84,-611.29 440.67,-617.69"/>
</g>
<!-- BB13 -->
<g id="node14" class="node">
<title>BB13</title>
<ellipse fill="none" stroke="black" cx="661.24" cy="-444.58" rx="108.38" ry="48.17"/>
<text text-anchor="middle" x="661.24" y="-463.38" font-family="Times New Roman,serif" font-size="14.00">[75..79)</text>
<text text-anchor="middle" x="661.24" y="-448.38" font-family="Times New Roman,serif" font-size="14.00">Count: 129</text>
<text text-anchor="middle" x="661.24" y="-433.38" font-family="Times New Roman,serif" font-size="14.00">Normalized count: 43.00</text>
<text text-anchor="middle" x="661.24" y="-418.38" font-family="Times New Roman,serif" font-size="14.00">Samples weight: 0.01</text>
</g>
<!-- BB9&#45;&gt;BB13 -->
<g id="edge13" class="edge">
<title>BB9&#45;&gt;BB13</title>
<path fill="none" stroke="black" d="M567.37,-533.49C580.34,-521.34 594.62,-507.97 608.03,-495.41"/>
<polygon fill="black" stroke="black" points="610.48,-497.91 615.38,-488.52 605.69,-492.8 610.48,-497.91"/>
</g>
<!-- BB10 -->
<g id="node11" class="node">
<title>BB10</title>
<ellipse fill="none" stroke="black" cx="729.24" cy="-312.42" rx="108.38" ry="48.17"/>
<text text-anchor="middle" x="729.24" y="-331.22" font-family="Times New Roman,serif" font-size="14.00">[43..4b)</text>
<text text-anchor="middle" x="729.24" y="-316.22" font-family="Times New Roman,serif" font-size="14.00">Count: 129</text>
<text text-anchor="middle" x="729.24" y="-301.22" font-family="Times New Roman,serif" font-size="14.00">Normalized count: 43.00</text>
<text text-anchor="middle" x="729.24" y="-286.22" font-family="Times New Roman,serif" font-size="14.00">Samples weight: 0.01</text>
</g>
<!-- BB11 -->
<g id="node12" class="node">
<title>BB11</title>
<ellipse fill="none" stroke="black" cx="822.24" cy="-180.25" rx="103.48" ry="48.17"/>
<text text-anchor="middle" x="822.24" y="-199.05" font-family="Times New Roman,serif" font-size="14.00">[4b..71)</text>
<text text-anchor="middle" x="822.24" y="-184.05" font-family="Times New Roman,serif" font-size="14.00">Count: 3</text>
<text text-anchor="middle" x="822.24" y="-169.05" font-family="Times New Roman,serif" font-size="14.00">Normalized count: 1.00</text>
<text text-anchor="middle" x="822.24" y="-154.05" font-family="Times New Roman,serif" font-size="14.00">Samples weight: 0.00</text>
</g>
<!-- BB10&#45;&gt;BB11 -->
<g id="edge15" class="edge">
<title>BB10&#45;&gt;BB11</title>
<path fill="none" stroke="black" d="M761.5,-266.26C768.79,-256.06 776.59,-245.14 784.09,-234.64"/>
<polygon fill="black" stroke="black" points="787.06,-236.5 790.03,-226.33 781.37,-232.43 787.06,-236.5"/>
</g>
<!-- BB12 -->
<g id="node13" class="node">
<title>BB12</title>
<ellipse fill="none" stroke="black" cx="593.24" cy="-180.25" rx="108.38" ry="48.17"/>
<text text-anchor="middle" x="593.24" y="-199.05" font-family="Times New Roman,serif" font-size="14.00">[71..75)</text>
<text text-anchor="middle" x="593.24" y="-184.05" font-family="Times New Roman,serif" font-size="14.00">Count: 126</text>
<text text-anchor="middle" x="593.24" y="-169.05" font-family="Times New Roman,serif" font-size="14.00">Normalized count: 42.00</text>
<text text-anchor="middle" x="593.24" y="-154.05" font-family="Times New Roman,serif" font-size="14.00">Samples weight: 0.01</text>
</g>
<!-- BB10&#45;&gt;BB12 -->
<g id="edge14" class="edge">
<title>BB10&#45;&gt;BB12</title>
<path fill="none" stroke="black" d="M684.33,-268.43C671.91,-256.55 658.33,-243.55 645.53,-231.3"/>
<polygon fill="black" stroke="black" points="647.74,-228.57 638.1,-224.19 642.9,-233.63 647.74,-228.57"/>
</g>
<!-- BB12&#45;&gt;BB13 -->
<g id="edge16" class="edge">
<title>BB12&#45;&gt;BB13</title>
<path fill="none" stroke="black" d="M592.81,-228.44C593.76,-265.27 597.95,-317.27 612.24,-360.5 615.46,-370.26 619.96,-380.12 624.93,-389.46"/>
<polygon fill="black" stroke="black" points="621.9,-391.21 629.82,-398.24 628.01,-387.8 621.9,-391.21"/>
</g>
<!-- BB13&#45;&gt;BB10 -->
<g id="edge17" class="edge">
<title>BB13&#45;&gt;BB10</title>
<path fill="none" stroke="black" d="M685.21,-397.69C690.19,-388.16 695.48,-378.03 700.61,-368.23"/>
<polygon fill="black" stroke="black" points="703.72,-369.82 705.25,-359.33 697.52,-366.58 703.72,-369.82"/>
</g>
<!-- BB14 -->
<g id="node15" class="node">
<title>BB14</title>
<ellipse fill="none" stroke="black" cx="958.24" cy="-312.42" rx="103.48" ry="48.17"/>
<text text-anchor="middle" x="958.24" y="-331.22" font-family="Times New Roman,serif" font-size="14.00">[79..80)</text>
<text text-anchor="middle" x="958.24" y="-316.22" font-family="Times New Roman,serif" font-size="14.00">Count: 0</text>
<text text-anchor="middle" x="958.24" y="-301.22" font-family="Times New Roman,serif" font-size="14.00">Normalized count: 0.00</text>
<text text-anchor="middle" x="958.24" y="-286.22" font-family="Times New Roman,serif" font-size="14.00">Samples weight: 0.00</text>
</g>
<!-- BB13&#45;&gt;BB14 -->
<g id="edge18" class="edge">
<title>BB13&#45;&gt;BB14</title>
<path fill="none" stroke="black" d="M737.34,-410.23C779.37,-391.81 831.65,-368.9 874.79,-349.99"/>
<polygon fill="black" stroke="black" points="876.38,-353.11 884.13,-345.89 873.57,-346.7 876.38,-353.11"/>
</g>
</g>
</svg>
