<?xml version="1.0" encoding="UTF-8" standalone="no"?>
<!DOCTYPE svg PUBLIC "-//W3C//DTD SVG 1.1//EN"
 "http://www.w3.org/Graphics/SVG/1.1/DTD/svg11.dtd">
<!-- Generated by graphviz version 2.47.0 (20210316.0004)
 -->
<!-- Title: G Pages: 1 -->
<svg width="1124pt" height="897pt"
 viewBox="0.00 0.00 1124.50 897.17" xmlns="http://www.w3.org/2000/svg" xmlns:xlink="http://www.w3.org/1999/xlink">
<g id="graph0" class="graph" transform="scale(1 1) rotate(0) translate(4 893.17)">
<title>G</title>
<polygon fill="white" stroke="transparent" points="-4,4 -4,-893.17 1120.5,-893.17 1120.5,4 -4,4"/>
<!-- BB0 -->
<g id="node1" class="node">
<title>BB0</title>
<ellipse fill="none" stroke="black" cx="245.84" cy="-841.08" rx="104.8" ry="48.17"/>
<text text-anchor="middle" x="245.84" y="-859.88" font-family="Times New Roman,serif" font-size="14.00">[0..a)</text>
<text text-anchor="middle" x="245.84" y="-844.88" font-family="Times New Roman,serif" font-size="14.00">Count: 0</text>
<text text-anchor="middle" x="245.84" y="-829.88" font-family="Times New Roman,serif" font-size="14.00">Normalized count: NaN</text>
<text text-anchor="middle" x="245.84" y="-814.88" font-family="Times New Roman,serif" font-size="14.00">Samples weight: 0.00</text>
</g>
<!-- BB8 -->
<g id="node9" class="node">
<title>BB8</title>
<ellipse fill="none" stroke="black" cx="245.84" cy="-708.92" rx="113.69" ry="48.17"/>
<text text-anchor="middle" x="245.84" y="-727.72" font-family="Times New Roman,serif" font-size="14.00">[3a..3f)</text>
<text text-anchor="middle" x="245.84" y="-712.72" font-family="Times New Roman,serif" font-size="14.00">Count: 6</text>
<text text-anchor="middle" x="245.84" y="-697.72" font-family="Times New Roman,serif" font-size="14.00">Normalized count: Infinity</text>
<text text-anchor="middle" x="245.84" y="-682.72" font-family="Times New Roman,serif" font-size="14.00">Samples weight: 0.00</text>
</g>
<!-- BB0&#45;&gt;BB8 -->
<g id="edge1" class="edge">
<title>BB0&#45;&gt;BB8</title>
<path fill="none" stroke="black" d="M245.84,-792.72C245.84,-784.45 245.84,-775.77 245.84,-767.27"/>
<polygon fill="black" stroke="black" points="249.34,-767.02 245.84,-757.02 242.34,-767.02 249.34,-767.02"/>
</g>
<!-- BB1 -->
<g id="node2" class="node">
<title>BB1</title>
<ellipse fill="none" stroke="black" cx="245.84" cy="-576.75" rx="113.69" ry="48.17"/>
<text text-anchor="middle" x="245.84" y="-595.55" font-family="Times New Roman,serif" font-size="14.00">[a..e)</text>
<text text-anchor="middle" x="245.84" y="-580.55" font-family="Times New Roman,serif" font-size="14.00">Count: 6</text>
<text text-anchor="middle" x="245.84" y="-565.55" font-family="Times New Roman,serif" font-size="14.00">Normalized count: Infinity</text>
<text text-anchor="middle" x="245.84" y="-550.55" font-family="Times New Roman,serif" font-size="14.00">Samples weight: 0.00</text>
</g>
<!-- BB3 -->
<g id="node4" class="node">
<title>BB3</title>
<ellipse fill="none" stroke="black" cx="245.84" cy="-444.58" rx="113.69" ry="48.17"/>
<text text-anchor="middle" x="245.84" y="-463.38" font-family="Times New Roman,serif" font-size="14.00">[1c..20)</text>
<text text-anchor="middle" x="245.84" y="-448.38" font-family="Times New Roman,serif" font-size="14.00">Count: 995</text>
<text text-anchor="middle" x="245.84" y="-433.38" font-family="Times New Roman,serif" font-size="14.00">Normalized count: Infinity</text>
<text text-anchor="middle" x="245.84" y="-418.38" font-family="Times New Roman,serif" font-size="14.00">Samples weight: 0.15</text>
</g>
<!-- BB1&#45;&gt;BB3 -->
<g id="edge2" class="edge">
<title>BB1&#45;&gt;BB3</title>
<path fill="none" stroke="black" d="M245.84,-528.39C245.84,-520.12 245.84,-511.44 245.84,-502.93"/>
<polygon fill="black" stroke="black" points="249.34,-502.69 245.84,-492.69 242.34,-502.69 249.34,-502.69"/>
</g>
<!-- BB2 -->
<g id="node3" class="node">
<title>BB2</title>
<ellipse fill="none" stroke="black" cx="245.84" cy="-312.42" rx="113.69" ry="48.17"/>
<text text-anchor="middle" x="245.84" y="-331.22" font-family="Times New Roman,serif" font-size="14.00">[e..1c)</text>
<text text-anchor="middle" x="245.84" y="-316.22" font-family="Times New Roman,serif" font-size="14.00">Count: 2104</text>
<text text-anchor="middle" x="245.84" y="-301.22" font-family="Times New Roman,serif" font-size="14.00">Normalized count: Infinity</text>
<text text-anchor="middle" x="245.84" y="-286.22" font-family="Times New Roman,serif" font-size="14.00">Samples weight: 0.32</text>
</g>
<!-- BB2&#45;&gt;BB3 -->
<g id="edge3" class="edge">
<title>BB2&#45;&gt;BB3</title>
<path fill="none" stroke="black" d="M252.36,-360.52C252.58,-368.78 252.65,-377.46 252.55,-385.97"/>
<polygon fill="black" stroke="black" points="249.05,-386.16 252.37,-396.22 256.05,-386.29 249.05,-386.16"/>
</g>
<!-- BB3&#45;&gt;BB2 -->
<g id="edge4" class="edge">
<title>BB3&#45;&gt;BB2</title>
<path fill="none" stroke="black" d="M239.32,-396.22C239.1,-387.95 239.04,-379.27 239.14,-370.77"/>
<polygon fill="black" stroke="black" points="242.64,-370.59 239.33,-360.52 235.64,-370.46 242.64,-370.59"/>
</g>
<!-- BB4 -->
<g id="node5" class="node">
<title>BB4</title>
<ellipse fill="none" stroke="black" cx="491.84" cy="-312.42" rx="113.69" ry="48.17"/>
<text text-anchor="middle" x="491.84" y="-331.22" font-family="Times New Roman,serif" font-size="14.00">[20..24)</text>
<text text-anchor="middle" x="491.84" y="-316.22" font-family="Times New Roman,serif" font-size="14.00">Count: 1</text>
<text text-anchor="middle" x="491.84" y="-301.22" font-family="Times New Roman,serif" font-size="14.00">Normalized count: Infinity</text>
<text text-anchor="middle" x="491.84" y="-286.22" font-family="Times New Roman,serif" font-size="14.00">Samples weight: 0.00</text>
</g>
<!-- BB3&#45;&gt;BB4 -->
<g id="edge5" class="edge">
<title>BB3&#45;&gt;BB4</title>
<path fill="none" stroke="black" d="M316.01,-406.46C346.12,-390.52 381.46,-371.82 412.52,-355.39"/>
<polygon fill="black" stroke="black" points="414.38,-358.36 421.59,-350.59 411.11,-352.18 414.38,-358.36"/>
</g>
<!-- BB6 -->
<g id="node7" class="node">
<title>BB6</title>
<ellipse fill="none" stroke="black" cx="368.84" cy="-180.25" rx="113.69" ry="48.17"/>
<text text-anchor="middle" x="368.84" y="-199.05" font-family="Times New Roman,serif" font-size="14.00">[32..36)</text>
<text text-anchor="middle" x="368.84" y="-184.05" font-family="Times New Roman,serif" font-size="14.00">Count: 988</text>
<text text-anchor="middle" x="368.84" y="-169.05" font-family="Times New Roman,serif" font-size="14.00">Normalized count: Infinity</text>
<text text-anchor="middle" x="368.84" y="-154.05" font-family="Times New Roman,serif" font-size="14.00">Samples weight: 0.15</text>
</g>
<!-- BB4&#45;&gt;BB6 -->
<g id="edge6" class="edge">
<title>BB4&#45;&gt;BB6</title>
<path fill="none" stroke="black" d="M450.2,-267.35C439.68,-256.22 428.29,-244.16 417.46,-232.7"/>
<polygon fill="black" stroke="black" points="419.86,-230.14 410.44,-225.27 414.77,-234.95 419.86,-230.14"/>
</g>
<!-- BB5 -->
<g id="node6" class="node">
<title>BB5</title>
<ellipse fill="none" stroke="black" cx="368.84" cy="-48.08" rx="113.69" ry="48.17"/>
<text text-anchor="middle" x="368.84" y="-66.88" font-family="Times New Roman,serif" font-size="14.00">[24..32)</text>
<text text-anchor="middle" x="368.84" y="-51.88" font-family="Times New Roman,serif" font-size="14.00">Count: 2050</text>
<text text-anchor="middle" x="368.84" y="-36.88" font-family="Times New Roman,serif" font-size="14.00">Normalized count: Infinity</text>
<text text-anchor="middle" x="368.84" y="-21.88" font-family="Times New Roman,serif" font-size="14.00">Samples weight: 0.31</text>
</g>
<!-- BB5&#45;&gt;BB6 -->
<g id="edge7" class="edge">
<title>BB5&#45;&gt;BB6</title>
<path fill="none" stroke="black" d="M375.36,-96.19C375.58,-104.45 375.65,-113.13 375.55,-121.64"/>
<polygon fill="black" stroke="black" points="372.05,-121.83 375.37,-131.89 379.05,-121.95 372.05,-121.83"/>
</g>
<!-- BB6&#45;&gt;BB5 -->
<g id="edge8" class="edge">
<title>BB6&#45;&gt;BB5</title>
<path fill="none" stroke="black" d="M362.32,-131.89C362.1,-123.62 362.04,-114.94 362.14,-106.43"/>
<polygon fill="black" stroke="black" points="365.64,-106.26 362.33,-96.19 358.64,-106.12 365.64,-106.26"/>
</g>
<!-- BB7 -->
<g id="node8" class="node">
<title>BB7</title>
<ellipse fill="none" stroke="black" cx="113.84" cy="-48.08" rx="113.69" ry="48.17"/>
<text text-anchor="middle" x="113.84" y="-66.88" font-family="Times New Roman,serif" font-size="14.00">[36..3a)</text>
<text text-anchor="middle" x="113.84" y="-51.88" font-family="Times New Roman,serif" font-size="14.00">Count: 6</text>
<text text-anchor="middle" x="113.84" y="-36.88" font-family="Times New Roman,serif" font-size="14.00">Normalized count: Infinity</text>
<text text-anchor="middle" x="113.84" y="-21.88" font-family="Times New Roman,serif" font-size="14.00">Samples weight: 0.00</text>
</g>
<!-- BB6&#45;&gt;BB7 -->
<g id="edge9" class="edge">
<title>BB6&#45;&gt;BB7</title>
<path fill="none" stroke="black" d="M297.13,-142.64C265.22,-126.35 227.5,-107.1 194.6,-90.31"/>
<polygon fill="black" stroke="black" points="195.96,-87.07 185.46,-85.64 192.77,-93.3 195.96,-87.07"/>
</g>
<!-- BB7&#45;&gt;BB8 -->
<g id="edge10" class="edge">
<title>BB7&#45;&gt;BB8</title>
<path fill="none" stroke="black" d="M110.95,-96.45C108,-148.97 103.84,-236.21 103.84,-311.42 103.84,-445.58 103.84,-445.58 103.84,-445.58 103.84,-525.7 81.58,-556.17 122.84,-624.83 132.74,-641.29 147.29,-655.21 162.95,-666.67"/>
<polygon fill="black" stroke="black" points="161.02,-669.59 171.23,-672.43 165.03,-663.84 161.02,-669.59"/>
</g>
<!-- BB8&#45;&gt;BB1 -->
<g id="edge11" class="edge">
<title>BB8&#45;&gt;BB1</title>
<path fill="none" stroke="black" d="M245.84,-660.55C245.84,-652.29 245.84,-643.6 245.84,-635.1"/>
<polygon fill="black" stroke="black" points="249.34,-634.86 245.84,-624.86 242.34,-634.86 249.34,-634.86"/>
</g>
<!-- BB9 -->
<g id="node10" class="node">
<title>BB9</title>
<ellipse fill="none" stroke="black" cx="557.84" cy="-576.75" rx="104.8" ry="48.17"/>
<text text-anchor="middle" x="557.84" y="-595.55" font-family="Times New Roman,serif" font-size="14.00">[3f..43)</text>
<text text-anchor="middle" x="557.84" y="-580.55" font-family="Times New Roman,serif" font-size="14.00">Count: 0</text>
<text text-anchor="middle" x="557.84" y="-565.55" font-family="Times New Roman,serif" font-size="14.00">Normalized count: NaN</text>
<text text-anchor="middle" x="557.84" y="-550.55" font-family="Times New Roman,serif" font-size="14.00">Samples weight: 0.00</text>
</g>
<!-- BB8&#45;&gt;BB9 -->
<g id="edge12" class="edge">
<title>BB8&#45;&gt;BB9</title>
<path fill="none" stroke="black" d="M325.79,-674.56C370.55,-655.89 426.37,-632.6 472.05,-613.54"/>
<polygon fill="black" stroke="black" points="473.46,-616.75 481.34,-609.67 470.76,-610.29 473.46,-616.75"/>
</g>
<!-- BB13 -->
<g id="node14" class="node">
<title>BB13</title>
<ellipse fill="none" stroke="black" cx="704.84" cy="-444.58" rx="113.69" ry="48.17"/>
<text text-anchor="middle" x="704.84" y="-463.38" font-family="Times New Roman,serif" font-size="14.00">[75..79)</text>
<text text-anchor="middle" x="704.84" y="-448.38" font-family="Times New Roman,serif" font-size="14.00">Count: 126</text>
<text text-anchor="middle" x="704.84" y="-433.38" font-family="Times New Roman,serif" font-size="14.00">Normalized count: Infinity</text>
<text text-anchor="middle" x="704.84" y="-418.38" font-family="Times New Roman,serif" font-size="14.00">Samples weight: 0.02</text>
</g>
<!-- BB9&#45;&gt;BB13 -->
<g id="edge13" class="edge">
<title>BB9&#45;&gt;BB13</title>
<path fill="none" stroke="black" d="M605.17,-533.85C619.05,-521.56 634.36,-508 648.73,-495.27"/>
<polygon fill="black" stroke="black" points="651.44,-497.55 656.6,-488.3 646.8,-492.31 651.44,-497.55"/>
</g>
<!-- BB10 -->
<g id="node11" class="node">
<title>BB10</title>
<ellipse fill="none" stroke="black" cx="775.84" cy="-312.42" rx="113.69" ry="48.17"/>
<text text-anchor="middle" x="775.84" y="-331.22" font-family="Times New Roman,serif" font-size="14.00">[43..4b)</text>
<text text-anchor="middle" x="775.84" y="-316.22" font-family="Times New Roman,serif" font-size="14.00">Count: 114</text>
<text text-anchor="middle" x="775.84" y="-301.22" font-family="Times New Roman,serif" font-size="14.00">Normalized count: Infinity</text>
<text text-anchor="middle" x="775.84" y="-286.22" font-family="Times New Roman,serif" font-size="14.00">Samples weight: 0.02</text>
</g>
<!-- BB11 -->
<g id="node12" class="node">
<title>BB11</title>
<ellipse fill="none" stroke="black" cx="869.84" cy="-180.25" rx="104.8" ry="48.17"/>
<text text-anchor="middle" x="869.84" y="-199.05" font-family="Times New Roman,serif" font-size="14.00">[4b..71)</text>
<text text-anchor="middle" x="869.84" y="-184.05" font-family="Times New Roman,serif" font-size="14.00">Count: 0</text>
<text text-anchor="middle" x="869.84" y="-169.05" font-family="Times New Roman,serif" font-size="14.00">Normalized count: NaN</text>
<text text-anchor="middle" x="869.84" y="-154.05" font-family="Times New Roman,serif" font-size="14.00">Samples weight: 0.00</text>
</g>
<!-- BB10&#45;&gt;BB11 -->
<g id="edge15" class="edge">
<title>BB10&#45;&gt;BB11</title>
<path fill="none" stroke="black" d="M808.46,-266.26C815.82,-256.06 823.71,-245.14 831.29,-234.64"/>
<polygon fill="black" stroke="black" points="834.27,-236.49 837.29,-226.33 828.6,-232.39 834.27,-236.49"/>
</g>
<!-- BB12 -->
<g id="node13" class="node">
<title>BB12</title>
<ellipse fill="none" stroke="black" cx="633.84" cy="-180.25" rx="113.69" ry="48.17"/>
<text text-anchor="middle" x="633.84" y="-199.05" font-family="Times New Roman,serif" font-size="14.00">[71..75)</text>
<text text-anchor="middle" x="633.84" y="-184.05" font-family="Times New Roman,serif" font-size="14.00">Count: 126</text>
<text text-anchor="middle" x="633.84" y="-169.05" font-family="Times New Roman,serif" font-size="14.00">Normalized count: Infinity</text>
<text text-anchor="middle" x="633.84" y="-154.05" font-family="Times New Roman,serif" font-size="14.00">Samples weight: 0.02</text>
</g>
<!-- BB10&#45;&gt;BB12 -->
<g id="edge14" class="edge">
<title>BB10&#45;&gt;BB12</title>
<path fill="none" stroke="black" d="M728.95,-268.43C715.87,-256.44 701.54,-243.3 688.07,-230.95"/>
<polygon fill="black" stroke="black" points="690.42,-228.36 680.68,-224.19 685.69,-233.52 690.42,-228.36"/>
</g>
<!-- BB12&#45;&gt;BB13 -->
<g id="edge16" class="edge">
<title>BB12&#45;&gt;BB13</title>
<path fill="none" stroke="black" d="M633.1,-228.55C633.88,-265.44 637.99,-317.46 652.84,-360.5 656.25,-370.37 661.02,-380.29 666.29,-389.66"/>
<polygon fill="black" stroke="black" points="663.38,-391.62 671.47,-398.45 669.41,-388.06 663.38,-391.62"/>
</g>
<!-- BB13&#45;&gt;BB10 -->
<g id="edge17" class="edge">
<title>BB13&#45;&gt;BB10</title>
<path fill="none" stroke="black" d="M730.08,-397.32C735.15,-388.02 740.53,-378.16 745.75,-368.58"/>
<polygon fill="black" stroke="black" points="748.98,-369.98 750.69,-359.53 742.83,-366.63 748.98,-369.98"/>
</g>
<!-- BB14 -->
<g id="node15" class="node">
<title>BB14</title>
<ellipse fill="none" stroke="black" cx="1011.84" cy="-312.42" rx="104.8" ry="48.17"/>
<text text-anchor="middle" x="1011.84" y="-331.22" font-family="Times New Roman,serif" font-size="14.00">[79..80)</text>
<text text-anchor="middle" x="1011.84" y="-316.22" font-family="Times New Roman,serif" font-size="14.00">Count: 0</text>
<text text-anchor="middle" x="1011.84" y="-301.22" font-family="Times New Roman,serif" font-size="14.00">Normalized count: NaN</text>
<text text-anchor="middle" x="1011.84" y="-286.22" font-family="Times New Roman,serif" font-size="14.00">Samples weight: 0.00</text>
</g>
<!-- BB13&#45;&gt;BB14 -->
<g id="edge18" class="edge">
<title>BB13&#45;&gt;BB14</title>
<path fill="none" stroke="black" d="M784.3,-409.89C827.93,-391.4 882.04,-368.45 926.55,-349.58"/>
<polygon fill="black" stroke="black" points="928.05,-352.75 935.89,-345.62 925.32,-346.3 928.05,-352.75"/>
</g>
</g>
</svg>
