<?xml version="1.0" encoding="UTF-8" standalone="no"?>
<!DOCTYPE svg PUBLIC "-//W3C//DTD SVG 1.1//EN"
 "http://www.w3.org/Graphics/SVG/1.1/DTD/svg11.dtd">
<!-- Generated by graphviz version 2.47.0 (20210316.0004)
 -->
<!-- Title: G Pages: 1 -->
<svg width="1137pt" height="897pt"
 viewBox="0.00 0.00 1137.37 897.17" xmlns="http://www.w3.org/2000/svg" xmlns:xlink="http://www.w3.org/1999/xlink">
<g id="graph0" class="graph" transform="scale(1 1) rotate(0) translate(4 893.17)">
<title>G</title>
<polygon fill="white" stroke="transparent" points="-4,4 -4,-893.17 1133.37,-893.17 1133.37,4 -4,4"/>
<!-- BB0 -->
<g id="node1" class="node">
<title>BB0</title>
<ellipse fill="none" stroke="black" cx="247.14" cy="-841.08" rx="103.48" ry="48.17"/>
<text text-anchor="middle" x="247.14" y="-859.88" font-family="Times New Roman,serif" font-size="14.00">[0..a)</text>
<text text-anchor="middle" x="247.14" y="-844.88" font-family="Times New Roman,serif" font-size="14.00">Count: 50</text>
<text text-anchor="middle" x="247.14" y="-829.88" font-family="Times New Roman,serif" font-size="14.00">Normalized count: 1.00</text>
<text text-anchor="middle" x="247.14" y="-814.88" font-family="Times New Roman,serif" font-size="14.00">Samples weight: 0.00</text>
</g>
<!-- BB8 -->
<g id="node9" class="node">
<title>BB8</title>
<ellipse fill="none" stroke="black" cx="247.14" cy="-708.92" rx="113.27" ry="48.17"/>
<text text-anchor="middle" x="247.14" y="-727.72" font-family="Times New Roman,serif" font-size="14.00">[3a..3f)</text>
<text text-anchor="middle" x="247.14" y="-712.72" font-family="Times New Roman,serif" font-size="14.00">Count: 5050</text>
<text text-anchor="middle" x="247.14" y="-697.72" font-family="Times New Roman,serif" font-size="14.00">Normalized count: 101.00</text>
<text text-anchor="middle" x="247.14" y="-682.72" font-family="Times New Roman,serif" font-size="14.00">Samples weight: 0.00</text>
</g>
<!-- BB0&#45;&gt;BB8 -->
<g id="edge1" class="edge">
<title>BB0&#45;&gt;BB8</title>
<path fill="none" stroke="black" d="M247.14,-792.72C247.14,-784.45 247.14,-775.77 247.14,-767.27"/>
<polygon fill="black" stroke="black" points="250.64,-767.02 247.14,-757.02 243.64,-767.02 250.64,-767.02"/>
</g>
<!-- BB1 -->
<g id="node2" class="node">
<title>BB1</title>
<ellipse fill="none" stroke="black" cx="247.14" cy="-576.75" rx="113.27" ry="48.17"/>
<text text-anchor="middle" x="247.14" y="-595.55" font-family="Times New Roman,serif" font-size="14.00">[a..e)</text>
<text text-anchor="middle" x="247.14" y="-580.55" font-family="Times New Roman,serif" font-size="14.00">Count: 5000</text>
<text text-anchor="middle" x="247.14" y="-565.55" font-family="Times New Roman,serif" font-size="14.00">Normalized count: 100.00</text>
<text text-anchor="middle" x="247.14" y="-550.55" font-family="Times New Roman,serif" font-size="14.00">Samples weight: 0.00</text>
</g>
<!-- BB3 -->
<g id="node4" class="node">
<title>BB3</title>
<ellipse fill="none" stroke="black" cx="247.14" cy="-444.58" rx="122.16" ry="48.17"/>
<text text-anchor="middle" x="247.14" y="-463.38" font-family="Times New Roman,serif" font-size="14.00">[1c..20)</text>
<text text-anchor="middle" x="247.14" y="-448.38" font-family="Times New Roman,serif" font-size="14.00">Count: 2505000</text>
<text text-anchor="middle" x="247.14" y="-433.38" font-family="Times New Roman,serif" font-size="14.00">Normalized count: 50100.00</text>
<text text-anchor="middle" x="247.14" y="-418.38" font-family="Times New Roman,serif" font-size="14.00">Samples weight: 0.24</text>
</g>
<!-- BB1&#45;&gt;BB3 -->
<g id="edge2" class="edge">
<title>BB1&#45;&gt;BB3</title>
<path fill="none" stroke="black" d="M247.14,-528.39C247.14,-520.12 247.14,-511.44 247.14,-502.93"/>
<polygon fill="black" stroke="black" points="250.64,-502.69 247.14,-492.69 243.64,-502.69 250.64,-502.69"/>
</g>
<!-- BB2 -->
<g id="node3" class="node">
<title>BB2</title>
<ellipse fill="none" stroke="black" cx="247.14" cy="-312.42" rx="122.16" ry="48.17"/>
<text text-anchor="middle" x="247.14" y="-331.22" font-family="Times New Roman,serif" font-size="14.00">[e..1c)</text>
<text text-anchor="middle" x="247.14" y="-316.22" font-family="Times New Roman,serif" font-size="14.00">Count: 2500000</text>
<text text-anchor="middle" x="247.14" y="-301.22" font-family="Times New Roman,serif" font-size="14.00">Normalized count: 50000.00</text>
<text text-anchor="middle" x="247.14" y="-286.22" font-family="Times New Roman,serif" font-size="14.00">Samples weight: 0.24</text>
</g>
<!-- BB2&#45;&gt;BB3 -->
<g id="edge3" class="edge">
<title>BB2&#45;&gt;BB3</title>
<path fill="none" stroke="black" d="M253.65,-360.52C253.87,-368.78 253.94,-377.46 253.85,-385.97"/>
<polygon fill="black" stroke="black" points="250.34,-386.16 253.66,-396.22 257.34,-386.29 250.34,-386.16"/>
</g>
<!-- BB3&#45;&gt;BB2 -->
<g id="edge4" class="edge">
<title>BB3&#45;&gt;BB2</title>
<path fill="none" stroke="black" d="M240.61,-396.22C240.4,-387.95 240.34,-379.27 240.43,-370.77"/>
<polygon fill="black" stroke="black" points="243.93,-370.59 240.62,-360.52 236.93,-370.46 243.93,-370.59"/>
</g>
<!-- BB4 -->
<g id="node5" class="node">
<title>BB4</title>
<ellipse fill="none" stroke="black" cx="500.14" cy="-312.42" rx="113.27" ry="48.17"/>
<text text-anchor="middle" x="500.14" y="-331.22" font-family="Times New Roman,serif" font-size="14.00">[20..24)</text>
<text text-anchor="middle" x="500.14" y="-316.22" font-family="Times New Roman,serif" font-size="14.00">Count: 5000</text>
<text text-anchor="middle" x="500.14" y="-301.22" font-family="Times New Roman,serif" font-size="14.00">Normalized count: 100.00</text>
<text text-anchor="middle" x="500.14" y="-286.22" font-family="Times New Roman,serif" font-size="14.00">Samples weight: 0.00</text>
</g>
<!-- BB3&#45;&gt;BB4 -->
<g id="edge5" class="edge">
<title>BB3&#45;&gt;BB4</title>
<path fill="none" stroke="black" d="M320.32,-405.93C351.4,-389.94 387.73,-371.25 419.58,-354.86"/>
<polygon fill="black" stroke="black" points="421.58,-357.77 428.87,-350.08 418.37,-351.55 421.58,-357.77"/>
</g>
<!-- BB6 -->
<g id="node7" class="node">
<title>BB6</title>
<ellipse fill="none" stroke="black" cx="374.14" cy="-180.25" rx="122.16" ry="48.17"/>
<text text-anchor="middle" x="374.14" y="-199.05" font-family="Times New Roman,serif" font-size="14.00">[32..36)</text>
<text text-anchor="middle" x="374.14" y="-184.05" font-family="Times New Roman,serif" font-size="14.00">Count: 2505000</text>
<text text-anchor="middle" x="374.14" y="-169.05" font-family="Times New Roman,serif" font-size="14.00">Normalized count: 50100.00</text>
<text text-anchor="middle" x="374.14" y="-154.05" font-family="Times New Roman,serif" font-size="14.00">Samples weight: 0.24</text>
</g>
<!-- BB4&#45;&gt;BB6 -->
<g id="edge6" class="edge">
<title>BB4&#45;&gt;BB6</title>
<path fill="none" stroke="black" d="M457.83,-267.71C447.04,-256.56 435.34,-244.47 424.2,-232.97"/>
<polygon fill="black" stroke="black" points="426.45,-230.26 416.98,-225.51 421.42,-235.13 426.45,-230.26"/>
</g>
<!-- BB5 -->
<g id="node6" class="node">
<title>BB5</title>
<ellipse fill="none" stroke="black" cx="374.14" cy="-48.08" rx="122.16" ry="48.17"/>
<text text-anchor="middle" x="374.14" y="-66.88" font-family="Times New Roman,serif" font-size="14.00">[24..32)</text>
<text text-anchor="middle" x="374.14" y="-51.88" font-family="Times New Roman,serif" font-size="14.00">Count: 2500000</text>
<text text-anchor="middle" x="374.14" y="-36.88" font-family="Times New Roman,serif" font-size="14.00">Normalized count: 50000.00</text>
<text text-anchor="middle" x="374.14" y="-21.88" font-family="Times New Roman,serif" font-size="14.00">Samples weight: 0.24</text>
</g>
<!-- BB5&#45;&gt;BB6 -->
<g id="edge7" class="edge">
<title>BB5&#45;&gt;BB6</title>
<path fill="none" stroke="black" d="M380.65,-96.19C380.87,-104.45 380.94,-113.13 380.85,-121.64"/>
<polygon fill="black" stroke="black" points="377.34,-121.83 380.66,-131.89 384.34,-121.95 377.34,-121.83"/>
</g>
<!-- BB6&#45;&gt;BB5 -->
<g id="edge8" class="edge">
<title>BB6&#45;&gt;BB5</title>
<path fill="none" stroke="black" d="M367.61,-131.89C367.4,-123.62 367.34,-114.94 367.43,-106.43"/>
<polygon fill="black" stroke="black" points="370.93,-106.26 367.62,-96.19 363.93,-106.12 370.93,-106.26"/>
</g>
<!-- BB7 -->
<g id="node8" class="node">
<title>BB7</title>
<ellipse fill="none" stroke="black" cx="113.14" cy="-48.08" rx="113.27" ry="48.17"/>
<text text-anchor="middle" x="113.14" y="-66.88" font-family="Times New Roman,serif" font-size="14.00">[36..3a)</text>
<text text-anchor="middle" x="113.14" y="-51.88" font-family="Times New Roman,serif" font-size="14.00">Count: 5000</text>
<text text-anchor="middle" x="113.14" y="-36.88" font-family="Times New Roman,serif" font-size="14.00">Normalized count: 100.00</text>
<text text-anchor="middle" x="113.14" y="-21.88" font-family="Times New Roman,serif" font-size="14.00">Samples weight: 0.00</text>
</g>
<!-- BB6&#45;&gt;BB7 -->
<g id="edge9" class="edge">
<title>BB6&#45;&gt;BB7</title>
<path fill="none" stroke="black" d="M299.34,-141.95C266.71,-125.67 228.36,-106.55 194.97,-89.89"/>
<polygon fill="black" stroke="black" points="196.2,-86.6 185.69,-85.27 193.08,-92.86 196.2,-86.6"/>
</g>
<!-- BB7&#45;&gt;BB8 -->
<g id="edge10" class="edge">
<title>BB7&#45;&gt;BB8</title>
<path fill="none" stroke="black" d="M108.51,-96.42C103.78,-148.91 97.14,-236.13 97.14,-311.42 97.14,-445.58 97.14,-445.58 97.14,-445.58 97.14,-526.22 82.04,-556.69 125.14,-624.83 135.4,-641.06 150.11,-654.91 165.78,-666.38"/>
<polygon fill="black" stroke="black" points="163.85,-669.3 174.05,-672.16 167.86,-663.56 163.85,-669.3"/>
</g>
<!-- BB8&#45;&gt;BB1 -->
<g id="edge11" class="edge">
<title>BB8&#45;&gt;BB1</title>
<path fill="none" stroke="black" d="M247.14,-660.55C247.14,-652.29 247.14,-643.6 247.14,-635.1"/>
<polygon fill="black" stroke="black" points="250.64,-634.86 247.14,-624.86 243.64,-634.86 250.64,-634.86"/>
</g>
<!-- BB9 -->
<g id="node10" class="node">
<title>BB9</title>
<ellipse fill="none" stroke="black" cx="561.14" cy="-576.75" rx="103.48" ry="48.17"/>
<text text-anchor="middle" x="561.14" y="-595.55" font-family="Times New Roman,serif" font-size="14.00">[3f..43)</text>
<text text-anchor="middle" x="561.14" y="-580.55" font-family="Times New Roman,serif" font-size="14.00">Count: 50</text>
<text text-anchor="middle" x="561.14" y="-565.55" font-family="Times New Roman,serif" font-size="14.00">Normalized count: 1.00</text>
<text text-anchor="middle" x="561.14" y="-550.55" font-family="Times New Roman,serif" font-size="14.00">Samples weight: 0.00</text>
</g>
<!-- BB8&#45;&gt;BB9 -->
<g id="edge12" class="edge">
<title>BB8&#45;&gt;BB9</title>
<path fill="none" stroke="black" d="M327.18,-674.73C372.57,-655.92 429.36,-632.38 475.62,-613.2"/>
<polygon fill="black" stroke="black" points="477.12,-616.37 485.02,-609.3 474.44,-609.9 477.12,-616.37"/>
</g>
<!-- BB13 -->
<g id="node14" class="node">
<title>BB13</title>
<ellipse fill="none" stroke="black" cx="714.14" cy="-444.58" rx="118.17" ry="48.17"/>
<text text-anchor="middle" x="714.14" y="-463.38" font-family="Times New Roman,serif" font-size="14.00">[75..79)</text>
<text text-anchor="middle" x="714.14" y="-448.38" font-family="Times New Roman,serif" font-size="14.00">Count: 200050</text>
<text text-anchor="middle" x="714.14" y="-433.38" font-family="Times New Roman,serif" font-size="14.00">Normalized count: 4001.00</text>
<text text-anchor="middle" x="714.14" y="-418.38" font-family="Times New Roman,serif" font-size="14.00">Samples weight: 0.02</text>
</g>
<!-- BB9&#45;&gt;BB13 -->
<g id="edge13" class="edge">
<title>BB9&#45;&gt;BB13</title>
<path fill="none" stroke="black" d="M609.97,-534.21C624.64,-521.72 640.88,-507.91 656.09,-494.97"/>
<polygon fill="black" stroke="black" points="658.58,-497.44 663.93,-488.3 654.04,-492.11 658.58,-497.44"/>
</g>
<!-- BB10 -->
<g id="node11" class="node">
<title>BB10</title>
<ellipse fill="none" stroke="black" cx="787.14" cy="-312.42" rx="118.17" ry="48.17"/>
<text text-anchor="middle" x="787.14" y="-331.22" font-family="Times New Roman,serif" font-size="14.00">[43..4b)</text>
<text text-anchor="middle" x="787.14" y="-316.22" font-family="Times New Roman,serif" font-size="14.00">Count: 200000</text>
<text text-anchor="middle" x="787.14" y="-301.22" font-family="Times New Roman,serif" font-size="14.00">Normalized count: 4000.00</text>
<text text-anchor="middle" x="787.14" y="-286.22" font-family="Times New Roman,serif" font-size="14.00">Samples weight: 0.02</text>
</g>
<!-- BB11 -->
<g id="node12" class="node">
<title>BB11</title>
<ellipse fill="none" stroke="black" cx="880.14" cy="-180.25" rx="103.48" ry="48.17"/>
<text text-anchor="middle" x="880.14" y="-199.05" font-family="Times New Roman,serif" font-size="14.00">[4b..71)</text>
<text text-anchor="middle" x="880.14" y="-184.05" font-family="Times New Roman,serif" font-size="14.00">Count: 0</text>
<text text-anchor="middle" x="880.14" y="-169.05" font-family="Times New Roman,serif" font-size="14.00">Normalized count: 0.00</text>
<text text-anchor="middle" x="880.14" y="-154.05" font-family="Times New Roman,serif" font-size="14.00">Samples weight: 0.00</text>
</g>
<!-- BB10&#45;&gt;BB11 -->
<g id="edge15" class="edge">
<title>BB10&#45;&gt;BB11</title>
<path fill="none" stroke="black" d="M819.66,-265.89C826.94,-255.71 834.72,-244.82 842.19,-234.37"/>
<polygon fill="black" stroke="black" points="845.13,-236.26 848.1,-226.09 839.44,-232.19 845.13,-236.26"/>
</g>
<!-- BB12 -->
<g id="node13" class="node">
<title>BB12</title>
<ellipse fill="none" stroke="black" cx="641.14" cy="-180.25" rx="118.17" ry="48.17"/>
<text text-anchor="middle" x="641.14" y="-199.05" font-family="Times New Roman,serif" font-size="14.00">[71..75)</text>
<text text-anchor="middle" x="641.14" y="-184.05" font-family="Times New Roman,serif" font-size="14.00">Count: 200000</text>
<text text-anchor="middle" x="641.14" y="-169.05" font-family="Times New Roman,serif" font-size="14.00">Normalized count: 4000.00</text>
<text text-anchor="middle" x="641.14" y="-154.05" font-family="Times New Roman,serif" font-size="14.00">Samples weight: 0.02</text>
</g>
<!-- BB10&#45;&gt;BB12 -->
<g id="edge14" class="edge">
<title>BB10&#45;&gt;BB12</title>
<path fill="none" stroke="black" d="M738.93,-268.43C725.47,-256.44 710.74,-243.3 696.89,-230.95"/>
<polygon fill="black" stroke="black" points="699.09,-228.23 689.3,-224.19 694.43,-233.45 699.09,-228.23"/>
</g>
<!-- BB12&#45;&gt;BB13 -->
<g id="edge16" class="edge">
<title>BB12&#45;&gt;BB13</title>
<path fill="none" stroke="black" d="M640.19,-228.62C640.85,-265.55 644.91,-317.59 660.14,-360.5 663.67,-370.45 668.61,-380.41 674.08,-389.79"/>
<polygon fill="black" stroke="black" points="671.27,-391.89 679.47,-398.6 677.24,-388.24 671.27,-391.89"/>
</g>
<!-- BB13&#45;&gt;BB10 -->
<g id="edge17" class="edge">
<title>BB13&#45;&gt;BB10</title>
<path fill="none" stroke="black" d="M740.08,-397.32C745.35,-387.93 750.94,-377.95 756.36,-368.29"/>
<polygon fill="black" stroke="black" points="759.44,-369.96 761.28,-359.53 753.33,-366.54 759.44,-369.96"/>
</g>
<!-- BB14 -->
<g id="node15" class="node">
<title>BB14</title>
<ellipse fill="none" stroke="black" cx="1026.14" cy="-312.42" rx="103.48" ry="48.17"/>
<text text-anchor="middle" x="1026.14" y="-331.22" font-family="Times New Roman,serif" font-size="14.00">[79..80)</text>
<text text-anchor="middle" x="1026.14" y="-316.22" font-family="Times New Roman,serif" font-size="14.00">Count: 50</text>
<text text-anchor="middle" x="1026.14" y="-301.22" font-family="Times New Roman,serif" font-size="14.00">Normalized count: 1.00</text>
<text text-anchor="middle" x="1026.14" y="-286.22" font-family="Times New Roman,serif" font-size="14.00">Samples weight: 0.00</text>
</g>
<!-- BB13&#45;&gt;BB14 -->
<g id="edge18" class="edge">
<title>BB13&#45;&gt;BB14</title>
<path fill="none" stroke="black" d="M795.91,-409.71C832.14,-394.67 875.28,-376.74 914.14,-360.5 922.88,-356.85 931.99,-353.03 941.09,-349.21"/>
<polygon fill="black" stroke="black" points="942.68,-352.34 950.55,-345.24 939.97,-345.89 942.68,-352.34"/>
</g>
</g>
</svg>
