<?xml version="1.0" encoding="UTF-8" standalone="no"?>
<!DOCTYPE svg PUBLIC "-//W3C//DTD SVG 1.1//EN"
 "http://www.w3.org/Graphics/SVG/1.1/DTD/svg11.dtd">
<!-- Generated by graphviz version 2.47.0 (20210316.0004)
 -->
<!-- Title: G Pages: 1 -->
<svg width="1325pt" height="1426pt"
 viewBox="0.00 0.00 1325.48 1425.83" xmlns="http://www.w3.org/2000/svg" xmlns:xlink="http://www.w3.org/1999/xlink">
<g id="graph0" class="graph" transform="scale(1 1) rotate(0) translate(4 1421.83)">
<title>G</title>
<polygon fill="white" stroke="transparent" points="-4,4 -4,-1421.83 1321.48,-1421.83 1321.48,4 -4,4"/>
<!-- BB0 -->
<g id="node1" class="node">
<title>BB0</title>
<ellipse fill="none" stroke="black" cx="103.24" cy="-1369.75" rx="103.48" ry="48.17"/>
<text text-anchor="middle" x="103.24" y="-1388.55" font-family="Times New Roman,serif" font-size="14.00">[0..22)</text>
<text text-anchor="middle" x="103.24" y="-1373.55" font-family="Times New Roman,serif" font-size="14.00">Count: 2</text>
<text text-anchor="middle" x="103.24" y="-1358.55" font-family="Times New Roman,serif" font-size="14.00">Normalized count: 1.00</text>
<text text-anchor="middle" x="103.24" y="-1343.55" font-family="Times New Roman,serif" font-size="14.00">Samples weight: 0.01</text>
</g>
<!-- BB2 -->
<g id="node3" class="node">
<title>BB2</title>
<ellipse fill="none" stroke="black" cx="103.24" cy="-1237.58" rx="103.48" ry="48.17"/>
<text text-anchor="middle" x="103.24" y="-1256.38" font-family="Times New Roman,serif" font-size="14.00">[3a..3e)</text>
<text text-anchor="middle" x="103.24" y="-1241.38" font-family="Times New Roman,serif" font-size="14.00">Count: 3</text>
<text text-anchor="middle" x="103.24" y="-1226.38" font-family="Times New Roman,serif" font-size="14.00">Normalized count: 1.50</text>
<text text-anchor="middle" x="103.24" y="-1211.38" font-family="Times New Roman,serif" font-size="14.00">Samples weight: 0.01</text>
</g>
<!-- BB0&#45;&gt;BB2 -->
<g id="edge1" class="edge">
<title>BB0&#45;&gt;BB2</title>
<path fill="none" stroke="black" d="M103.24,-1321.39C103.24,-1313.12 103.24,-1304.44 103.24,-1295.93"/>
<polygon fill="black" stroke="black" points="106.74,-1295.69 103.24,-1285.69 99.74,-1295.69 106.74,-1295.69"/>
</g>
<!-- BB1 -->
<g id="node2" class="node">
<title>BB1</title>
<ellipse fill="none" stroke="black" cx="103.24" cy="-1105.42" rx="103.48" ry="48.17"/>
<text text-anchor="middle" x="103.24" y="-1124.22" font-family="Times New Roman,serif" font-size="14.00">[22..3a)</text>
<text text-anchor="middle" x="103.24" y="-1109.22" font-family="Times New Roman,serif" font-size="14.00">Count: 1</text>
<text text-anchor="middle" x="103.24" y="-1094.22" font-family="Times New Roman,serif" font-size="14.00">Normalized count: 0.50</text>
<text text-anchor="middle" x="103.24" y="-1079.22" font-family="Times New Roman,serif" font-size="14.00">Samples weight: 0.00</text>
</g>
<!-- BB1&#45;&gt;BB2 -->
<g id="edge2" class="edge">
<title>BB1&#45;&gt;BB2</title>
<path fill="none" stroke="black" d="M109.76,-1153.78C109.98,-1162.07 110.04,-1170.78 109.94,-1179.31"/>
<polygon fill="black" stroke="black" points="106.44,-1179.52 109.75,-1189.59 113.44,-1179.66 106.44,-1179.52"/>
</g>
<!-- BB2&#45;&gt;BB1 -->
<g id="edge3" class="edge">
<title>BB2&#45;&gt;BB1</title>
<path fill="none" stroke="black" d="M96.72,-1189.59C96.5,-1181.21 96.43,-1172.41 96.53,-1163.78"/>
<polygon fill="black" stroke="black" points="100.03,-1163.84 96.72,-1153.78 93.03,-1163.71 100.03,-1163.84"/>
</g>
<!-- BB3 -->
<g id="node4" class="node">
<title>BB3</title>
<ellipse fill="none" stroke="black" cx="327.24" cy="-1105.42" rx="103.48" ry="48.17"/>
<text text-anchor="middle" x="327.24" y="-1124.22" font-family="Times New Roman,serif" font-size="14.00">[3e..42)</text>
<text text-anchor="middle" x="327.24" y="-1109.22" font-family="Times New Roman,serif" font-size="14.00">Count: 2</text>
<text text-anchor="middle" x="327.24" y="-1094.22" font-family="Times New Roman,serif" font-size="14.00">Normalized count: 1.00</text>
<text text-anchor="middle" x="327.24" y="-1079.22" font-family="Times New Roman,serif" font-size="14.00">Samples weight: 0.01</text>
</g>
<!-- BB2&#45;&gt;BB3 -->
<g id="edge4" class="edge">
<title>BB2&#45;&gt;BB3</title>
<path fill="none" stroke="black" d="M166.83,-1199.63C194.26,-1183.69 226.48,-1164.96 254.83,-1148.49"/>
<polygon fill="black" stroke="black" points="256.6,-1151.51 263.49,-1143.46 253.08,-1145.46 256.6,-1151.51"/>
</g>
<!-- BB5 -->
<g id="node6" class="node">
<title>BB5</title>
<ellipse fill="none" stroke="black" cx="327.24" cy="-973.25" rx="103.48" ry="48.17"/>
<text text-anchor="middle" x="327.24" y="-992.05" font-family="Times New Roman,serif" font-size="14.00">[4a..4f)</text>
<text text-anchor="middle" x="327.24" y="-977.05" font-family="Times New Roman,serif" font-size="14.00">Count: 13</text>
<text text-anchor="middle" x="327.24" y="-962.05" font-family="Times New Roman,serif" font-size="14.00">Normalized count: 6.50</text>
<text text-anchor="middle" x="327.24" y="-947.05" font-family="Times New Roman,serif" font-size="14.00">Samples weight: 0.05</text>
</g>
<!-- BB3&#45;&gt;BB5 -->
<g id="edge5" class="edge">
<title>BB3&#45;&gt;BB5</title>
<path fill="none" stroke="black" d="M327.24,-1057.05C327.24,-1048.79 327.24,-1040.1 327.24,-1031.6"/>
<polygon fill="black" stroke="black" points="330.74,-1031.36 327.24,-1021.36 323.74,-1031.36 330.74,-1031.36"/>
</g>
<!-- BB4 -->
<g id="node5" class="node">
<title>BB4</title>
<ellipse fill="none" stroke="black" cx="327.24" cy="-841.08" rx="103.48" ry="48.17"/>
<text text-anchor="middle" x="327.24" y="-859.88" font-family="Times New Roman,serif" font-size="14.00">[42..4a)</text>
<text text-anchor="middle" x="327.24" y="-844.88" font-family="Times New Roman,serif" font-size="14.00">Count: 11</text>
<text text-anchor="middle" x="327.24" y="-829.88" font-family="Times New Roman,serif" font-size="14.00">Normalized count: 5.50</text>
<text text-anchor="middle" x="327.24" y="-814.88" font-family="Times New Roman,serif" font-size="14.00">Samples weight: 0.04</text>
</g>
<!-- BB4&#45;&gt;BB5 -->
<g id="edge6" class="edge">
<title>BB4&#45;&gt;BB5</title>
<path fill="none" stroke="black" d="M333.76,-889.44C333.98,-897.74 334.04,-906.45 333.94,-914.98"/>
<polygon fill="black" stroke="black" points="330.44,-915.19 333.75,-925.26 337.44,-915.32 330.44,-915.19"/>
</g>
<!-- BB5&#45;&gt;BB4 -->
<g id="edge7" class="edge">
<title>BB5&#45;&gt;BB4</title>
<path fill="none" stroke="black" d="M320.72,-925.26C320.5,-916.88 320.43,-908.07 320.53,-899.45"/>
<polygon fill="black" stroke="black" points="324.03,-899.51 320.72,-889.44 317.03,-899.38 324.03,-899.51"/>
</g>
<!-- BB6 -->
<g id="node7" class="node">
<title>BB6</title>
<ellipse fill="none" stroke="black" cx="551.24" cy="-841.08" rx="103.48" ry="48.17"/>
<text text-anchor="middle" x="551.24" y="-859.88" font-family="Times New Roman,serif" font-size="14.00">[4f..88)</text>
<text text-anchor="middle" x="551.24" y="-844.88" font-family="Times New Roman,serif" font-size="14.00">Count: 2</text>
<text text-anchor="middle" x="551.24" y="-829.88" font-family="Times New Roman,serif" font-size="14.00">Normalized count: 1.00</text>
<text text-anchor="middle" x="551.24" y="-814.88" font-family="Times New Roman,serif" font-size="14.00">Samples weight: 0.01</text>
</g>
<!-- BB5&#45;&gt;BB6 -->
<g id="edge8" class="edge">
<title>BB5&#45;&gt;BB6</title>
<path fill="none" stroke="black" d="M390.83,-935.3C418.26,-919.36 450.48,-900.63 478.83,-884.16"/>
<polygon fill="black" stroke="black" points="480.6,-887.18 487.49,-879.13 477.08,-881.13 480.6,-887.18"/>
</g>
<!-- BB8 -->
<g id="node9" class="node">
<title>BB8</title>
<ellipse fill="none" stroke="black" cx="551.24" cy="-708.92" rx="108.38" ry="48.17"/>
<text text-anchor="middle" x="551.24" y="-727.72" font-family="Times New Roman,serif" font-size="14.00">[a1..aa)</text>
<text text-anchor="middle" x="551.24" y="-712.72" font-family="Times New Roman,serif" font-size="14.00">Count: 113</text>
<text text-anchor="middle" x="551.24" y="-697.72" font-family="Times New Roman,serif" font-size="14.00">Normalized count: 56.50</text>
<text text-anchor="middle" x="551.24" y="-682.72" font-family="Times New Roman,serif" font-size="14.00">Samples weight: 0.42</text>
</g>
<!-- BB6&#45;&gt;BB8 -->
<g id="edge9" class="edge">
<title>BB6&#45;&gt;BB8</title>
<path fill="none" stroke="black" d="M551.24,-792.72C551.24,-784.45 551.24,-775.77 551.24,-767.27"/>
<polygon fill="black" stroke="black" points="554.74,-767.02 551.24,-757.02 547.74,-767.02 554.74,-767.02"/>
</g>
<!-- BB7 -->
<g id="node8" class="node">
<title>BB7</title>
<ellipse fill="none" stroke="black" cx="551.24" cy="-576.75" rx="108.38" ry="48.17"/>
<text text-anchor="middle" x="551.24" y="-595.55" font-family="Times New Roman,serif" font-size="14.00">[88..a1)</text>
<text text-anchor="middle" x="551.24" y="-580.55" font-family="Times New Roman,serif" font-size="14.00">Count: 111</text>
<text text-anchor="middle" x="551.24" y="-565.55" font-family="Times New Roman,serif" font-size="14.00">Normalized count: 55.50</text>
<text text-anchor="middle" x="551.24" y="-550.55" font-family="Times New Roman,serif" font-size="14.00">Samples weight: 0.41</text>
</g>
<!-- BB7&#45;&gt;BB8 -->
<g id="edge10" class="edge">
<title>BB7&#45;&gt;BB8</title>
<path fill="none" stroke="black" d="M557.75,-624.86C557.97,-633.12 558.04,-641.8 557.95,-650.3"/>
<polygon fill="black" stroke="black" points="554.44,-650.49 557.76,-660.55 561.44,-650.62 554.44,-650.49"/>
</g>
<!-- BB8&#45;&gt;BB7 -->
<g id="edge11" class="edge">
<title>BB8&#45;&gt;BB7</title>
<path fill="none" stroke="black" d="M544.72,-660.55C544.5,-652.29 544.44,-643.6 544.53,-635.1"/>
<polygon fill="black" stroke="black" points="548.03,-634.92 544.72,-624.86 541.04,-634.79 548.03,-634.92"/>
</g>
<!-- BB9 -->
<g id="node10" class="node">
<title>BB9</title>
<ellipse fill="none" stroke="black" cx="780.24" cy="-576.75" rx="103.48" ry="48.17"/>
<text text-anchor="middle" x="780.24" y="-595.55" font-family="Times New Roman,serif" font-size="14.00">[aa..b2)</text>
<text text-anchor="middle" x="780.24" y="-580.55" font-family="Times New Roman,serif" font-size="14.00">Count: 2</text>
<text text-anchor="middle" x="780.24" y="-565.55" font-family="Times New Roman,serif" font-size="14.00">Normalized count: 1.00</text>
<text text-anchor="middle" x="780.24" y="-550.55" font-family="Times New Roman,serif" font-size="14.00">Samples weight: 0.01</text>
</g>
<!-- BB8&#45;&gt;BB9 -->
<g id="edge12" class="edge">
<title>BB8&#45;&gt;BB9</title>
<path fill="none" stroke="black" d="M616.86,-670.62C645.01,-654.62 678.01,-635.86 706.95,-619.41"/>
<polygon fill="black" stroke="black" points="708.83,-622.37 715.79,-614.38 705.37,-616.28 708.83,-622.37"/>
</g>
<!-- BB10 -->
<g id="node11" class="node">
<title>BB10</title>
<ellipse fill="none" stroke="black" cx="668.24" cy="-444.58" rx="103.48" ry="48.17"/>
<text text-anchor="middle" x="668.24" y="-463.38" font-family="Times New Roman,serif" font-size="14.00">[b2..bc)</text>
<text text-anchor="middle" x="668.24" y="-448.38" font-family="Times New Roman,serif" font-size="14.00">Count: 0</text>
<text text-anchor="middle" x="668.24" y="-433.38" font-family="Times New Roman,serif" font-size="14.00">Normalized count: 0.00</text>
<text text-anchor="middle" x="668.24" y="-418.38" font-family="Times New Roman,serif" font-size="14.00">Samples weight: 0.00</text>
</g>
<!-- BB9&#45;&gt;BB10 -->
<g id="edge14" class="edge">
<title>BB9&#45;&gt;BB10</title>
<path fill="none" stroke="black" d="M742.32,-531.68C732.83,-520.65 722.57,-508.73 712.79,-497.36"/>
<polygon fill="black" stroke="black" points="715.29,-494.9 706.12,-489.61 709.99,-499.47 715.29,-494.9"/>
</g>
<!-- BB14 -->
<g id="node15" class="node">
<title>BB14</title>
<ellipse fill="none" stroke="black" cx="892.24" cy="-444.58" rx="103.48" ry="48.17"/>
<text text-anchor="middle" x="892.24" y="-463.38" font-family="Times New Roman,serif" font-size="14.00">[f8..107)</text>
<text text-anchor="middle" x="892.24" y="-448.38" font-family="Times New Roman,serif" font-size="14.00">Count: 2</text>
<text text-anchor="middle" x="892.24" y="-433.38" font-family="Times New Roman,serif" font-size="14.00">Normalized count: 1.00</text>
<text text-anchor="middle" x="892.24" y="-418.38" font-family="Times New Roman,serif" font-size="14.00">Samples weight: 0.01</text>
</g>
<!-- BB9&#45;&gt;BB14 -->
<g id="edge13" class="edge">
<title>BB9&#45;&gt;BB14</title>
<path fill="none" stroke="black" d="M818.16,-531.68C827.64,-520.65 837.91,-508.73 847.68,-497.36"/>
<polygon fill="black" stroke="black" points="850.49,-499.47 854.36,-489.61 845.18,-494.9 850.49,-499.47"/>
</g>
<!-- BB13 -->
<g id="node14" class="node">
<title>BB13</title>
<ellipse fill="none" stroke="black" cx="714.24" cy="-312.42" rx="103.48" ry="48.17"/>
<text text-anchor="middle" x="714.24" y="-331.22" font-family="Times New Roman,serif" font-size="14.00">[eb..f8)</text>
<text text-anchor="middle" x="714.24" y="-316.22" font-family="Times New Roman,serif" font-size="14.00">Count: 0</text>
<text text-anchor="middle" x="714.24" y="-301.22" font-family="Times New Roman,serif" font-size="14.00">Normalized count: 0.00</text>
<text text-anchor="middle" x="714.24" y="-286.22" font-family="Times New Roman,serif" font-size="14.00">Samples weight: 0.00</text>
</g>
<!-- BB10&#45;&gt;BB13 -->
<g id="edge15" class="edge">
<title>BB10&#45;&gt;BB13</title>
<path fill="none" stroke="black" d="M684.71,-396.96C687.82,-388.17 691.1,-378.9 694.29,-369.85"/>
<polygon fill="black" stroke="black" points="697.69,-370.75 697.72,-360.15 691.09,-368.42 697.69,-370.75"/>
</g>
<!-- BB11 -->
<g id="node12" class="node">
<title>BB11</title>
<ellipse fill="none" stroke="black" cx="799.24" cy="-180.25" rx="103.48" ry="48.17"/>
<text text-anchor="middle" x="799.24" y="-199.05" font-family="Times New Roman,serif" font-size="14.00">[bc..dc)</text>
<text text-anchor="middle" x="799.24" y="-184.05" font-family="Times New Roman,serif" font-size="14.00">Count: 0</text>
<text text-anchor="middle" x="799.24" y="-169.05" font-family="Times New Roman,serif" font-size="14.00">Normalized count: 0.00</text>
<text text-anchor="middle" x="799.24" y="-154.05" font-family="Times New Roman,serif" font-size="14.00">Samples weight: 0.00</text>
</g>
<!-- BB12 -->
<g id="node13" class="node">
<title>BB12</title>
<ellipse fill="none" stroke="black" cx="733.24" cy="-48.08" rx="103.48" ry="48.17"/>
<text text-anchor="middle" x="733.24" y="-66.88" font-family="Times New Roman,serif" font-size="14.00">[dc..eb)</text>
<text text-anchor="middle" x="733.24" y="-51.88" font-family="Times New Roman,serif" font-size="14.00">Count: 0</text>
<text text-anchor="middle" x="733.24" y="-36.88" font-family="Times New Roman,serif" font-size="14.00">Normalized count: 0.00</text>
<text text-anchor="middle" x="733.24" y="-21.88" font-family="Times New Roman,serif" font-size="14.00">Samples weight: 0.00</text>
</g>
<!-- BB11&#45;&gt;BB12 -->
<g id="edge17" class="edge">
<title>BB11&#45;&gt;BB12</title>
<path fill="none" stroke="black" d="M775.97,-133.36C771.19,-123.93 766.11,-113.91 761.18,-104.19"/>
<polygon fill="black" stroke="black" points="764.16,-102.34 756.52,-95 757.92,-105.5 764.16,-102.34"/>
</g>
<!-- BB11&#45;&gt;BB14 -->
<g id="edge16" class="edge">
<title>BB11&#45;&gt;BB14</title>
<path fill="none" stroke="black" d="M815.76,-227.85C831.58,-272.49 855.48,-339.89 872.34,-387.45"/>
<polygon fill="black" stroke="black" points="869.08,-388.73 875.72,-396.99 875.68,-386.39 869.08,-388.73"/>
</g>
<!-- BB12&#45;&gt;BB13 -->
<g id="edge18" class="edge">
<title>BB12&#45;&gt;BB13</title>
<path fill="none" stroke="black" d="M702.82,-94.35C696.41,-106.17 690.58,-119.24 687.24,-132.17 676.55,-173.55 680.55,-186.12 687.24,-228.33 688.65,-237.24 690.86,-246.5 693.43,-255.46"/>
<polygon fill="black" stroke="black" points="690.08,-256.48 696.33,-265.03 696.78,-254.45 690.08,-256.48"/>
</g>
<!-- BB13&#45;&gt;BB11 -->
<g id="edge19" class="edge">
<title>BB13&#45;&gt;BB11</title>
<path fill="none" stroke="black" d="M743.73,-266.26C750.25,-256.27 757.22,-245.6 763.94,-235.31"/>
<polygon fill="black" stroke="black" points="766.97,-237.06 769.51,-226.77 761.11,-233.23 766.97,-237.06"/>
</g>
<!-- BB13&#45;&gt;BB14 -->
<g id="edge20" class="edge">
<title>BB13&#45;&gt;BB14</title>
<path fill="none" stroke="black" d="M768.91,-353.4C787.94,-367.31 809.43,-383.03 829.08,-397.4"/>
<polygon fill="black" stroke="black" points="827.24,-400.39 837.38,-403.47 831.37,-394.74 827.24,-400.39"/>
</g>
<!-- BB15 -->
<g id="node16" class="node">
<title>BB15</title>
<ellipse fill="none" stroke="black" cx="999.24" cy="-312.42" rx="103.48" ry="48.17"/>
<text text-anchor="middle" x="999.24" y="-331.22" font-family="Times New Roman,serif" font-size="14.00">[107..140)</text>
<text text-anchor="middle" x="999.24" y="-316.22" font-family="Times New Roman,serif" font-size="14.00">Count: 2</text>
<text text-anchor="middle" x="999.24" y="-301.22" font-family="Times New Roman,serif" font-size="14.00">Normalized count: 1.00</text>
<text text-anchor="middle" x="999.24" y="-286.22" font-family="Times New Roman,serif" font-size="14.00">Samples weight: 0.01</text>
</g>
<!-- BB14&#45;&gt;BB15 -->
<g id="edge21" class="edge">
<title>BB14&#45;&gt;BB15</title>
<path fill="none" stroke="black" d="M928.46,-399.51C937.34,-388.71 946.93,-377.05 956.1,-365.89"/>
<polygon fill="black" stroke="black" points="959.04,-367.83 962.69,-357.88 953.63,-363.38 959.04,-367.83"/>
</g>
<!-- BB15&#45;&gt;BB15 -->
<g id="edge22" class="edge">
<title>BB15&#45;&gt;BB15</title>
<path fill="none" stroke="black" d="M1089.12,-336.22C1107.39,-333.63 1120.48,-325.69 1120.48,-312.42 1120.48,-301.73 1112,-294.51 1099.17,-290.74"/>
<polygon fill="black" stroke="black" points="1099.63,-287.26 1089.12,-288.61 1098.18,-294.11 1099.63,-287.26"/>
</g>
<!-- BB16 -->
<g id="node17" class="node">
<title>BB16</title>
<ellipse fill="none" stroke="black" cx="1023.24" cy="-180.25" rx="103.48" ry="48.17"/>
<text text-anchor="middle" x="1023.24" y="-199.05" font-family="Times New Roman,serif" font-size="14.00">[140..148)</text>
<text text-anchor="middle" x="1023.24" y="-184.05" font-family="Times New Roman,serif" font-size="14.00">Count: 2</text>
<text text-anchor="middle" x="1023.24" y="-169.05" font-family="Times New Roman,serif" font-size="14.00">Normalized count: 1.00</text>
<text text-anchor="middle" x="1023.24" y="-154.05" font-family="Times New Roman,serif" font-size="14.00">Samples weight: 0.01</text>
</g>
<!-- BB15&#45;&gt;BB16 -->
<g id="edge23" class="edge">
<title>BB15&#45;&gt;BB16</title>
<path fill="none" stroke="black" d="M1007.9,-264.42C1009.47,-255.94 1011.11,-247.02 1012.72,-238.29"/>
<polygon fill="black" stroke="black" points="1016.21,-238.64 1014.59,-228.17 1009.33,-237.37 1016.21,-238.64"/>
</g>
<!-- BB17 -->
<g id="node18" class="node">
<title>BB17</title>
<ellipse fill="none" stroke="black" cx="990.24" cy="-48.08" rx="103.48" ry="48.17"/>
<text text-anchor="middle" x="990.24" y="-66.88" font-family="Times New Roman,serif" font-size="14.00">[148..14f)</text>
<text text-anchor="middle" x="990.24" y="-51.88" font-family="Times New Roman,serif" font-size="14.00">Count: 0</text>
<text text-anchor="middle" x="990.24" y="-36.88" font-family="Times New Roman,serif" font-size="14.00">Normalized count: 0.00</text>
<text text-anchor="middle" x="990.24" y="-21.88" font-family="Times New Roman,serif" font-size="14.00">Samples weight: 0.00</text>
</g>
<!-- BB16&#45;&gt;BB17 -->
<g id="edge25" class="edge">
<title>BB16&#45;&gt;BB17</title>
<path fill="none" stroke="black" d="M1011.32,-132.26C1009.15,-123.69 1006.86,-114.66 1004.63,-105.84"/>
<polygon fill="black" stroke="black" points="1007.98,-104.84 1002.13,-96.01 1001.2,-106.56 1007.98,-104.84"/>
</g>
<!-- BB18 -->
<g id="node19" class="node">
<title>BB18</title>
<ellipse fill="none" stroke="black" cx="1214.24" cy="-48.08" rx="103.48" ry="48.17"/>
<text text-anchor="middle" x="1214.24" y="-66.88" font-family="Times New Roman,serif" font-size="14.00">[14f..15a)</text>
<text text-anchor="middle" x="1214.24" y="-51.88" font-family="Times New Roman,serif" font-size="14.00">Count: 2</text>
<text text-anchor="middle" x="1214.24" y="-36.88" font-family="Times New Roman,serif" font-size="14.00">Normalized count: 1.00</text>
<text text-anchor="middle" x="1214.24" y="-21.88" font-family="Times New Roman,serif" font-size="14.00">Samples weight: 0.01</text>
</g>
<!-- BB16&#45;&gt;BB18 -->
<g id="edge24" class="edge">
<title>BB16&#45;&gt;BB18</title>
<path fill="none" stroke="black" d="M1080.54,-140.2C1101.98,-125.59 1126.49,-108.88 1148.62,-93.8"/>
<polygon fill="black" stroke="black" points="1150.68,-96.63 1156.97,-88.11 1146.74,-90.85 1150.68,-96.63"/>
</g>
<!-- BB17&#45;&gt;BB18 -->
<g id="edge26" class="edge">
<title>BB17&#45;&gt;BB18</title>
<path fill="none" stroke="black" d="M1093.49,-48.08C1095.94,-48.08 1098.4,-48.08 1100.85,-48.08"/>
<polygon fill="black" stroke="black" points="1100.94,-51.58 1110.94,-48.08 1100.94,-44.58 1100.94,-51.58"/>
</g>
</g>
</svg>
