<?xml version="1.0" encoding="UTF-8" standalone="no"?>
<!DOCTYPE svg PUBLIC "-//W3C//DTD SVG 1.1//EN"
 "http://www.w3.org/Graphics/SVG/1.1/DTD/svg11.dtd">
<!-- Generated by graphviz version 2.47.0 (20210316.0004)
 -->
<!-- Title: G Pages: 1 -->
<svg width="676pt" height="527pt"
 viewBox="0.00 0.00 675.72 526.77" xmlns="http://www.w3.org/2000/svg" xmlns:xlink="http://www.w3.org/1999/xlink">
<g id="graph0" class="graph" transform="scale(1 1) rotate(0) translate(4 522.77)">
<title>G</title>
<polygon fill="white" stroke="transparent" points="-4,4 -4,-522.77 671.72,-522.77 671.72,4 -4,4"/>
<!-- BB0 -->
<g id="node1" class="node">
<title>BB0</title>
<ellipse fill="none" stroke="black" cx="447.36" cy="-481.29" rx="105.22" ry="37.45"/>
<text text-anchor="middle" x="447.36" y="-492.59" font-family="Times New Roman,serif" font-size="14.00">[0..3)</text>
<text text-anchor="middle" x="447.36" y="-477.59" font-family="Times New Roman,serif" font-size="14.00">Normalized Count: 1.00</text>
<text text-anchor="middle" x="447.36" y="-462.59" font-family="Times New Roman,serif" font-size="14.00">Samples weight: 0.20</text>
</g>
<!-- BB1 -->
<g id="node2" class="node">
<title>BB1</title>
<ellipse fill="none" stroke="black" cx="333.36" cy="-370.34" rx="105.22" ry="37.45"/>
<text text-anchor="middle" x="333.36" y="-381.64" font-family="Times New Roman,serif" font-size="14.00">[3..6)</text>
<text text-anchor="middle" x="333.36" y="-366.64" font-family="Times New Roman,serif" font-size="14.00">Normalized Count: 1.00</text>
<text text-anchor="middle" x="333.36" y="-351.64" font-family="Times New Roman,serif" font-size="14.00">Samples weight: 0.20</text>
</g>
<!-- BB0&#45;&gt;BB1 -->
<g id="edge2" class="edge">
<title>BB0&#45;&gt;BB1</title>
<path fill="none" stroke="black" d="M411.29,-445.82C400.27,-435.28 388.03,-423.59 376.58,-412.65"/>
<polygon fill="black" stroke="black" points="378.84,-409.96 369.19,-405.59 374.01,-415.03 378.84,-409.96"/>
</g>
<!-- BB7 -->
<g id="node8" class="node">
<title>BB7</title>
<ellipse fill="none" stroke="black" cx="562.36" cy="-370.34" rx="105.22" ry="37.45"/>
<text text-anchor="middle" x="562.36" y="-381.64" font-family="Times New Roman,serif" font-size="14.00">[2a..2f)</text>
<text text-anchor="middle" x="562.36" y="-366.64" font-family="Times New Roman,serif" font-size="14.00">Normalized Count: 0.00</text>
<text text-anchor="middle" x="562.36" y="-351.64" font-family="Times New Roman,serif" font-size="14.00">Samples weight: 0.00</text>
</g>
<!-- BB0&#45;&gt;BB7 -->
<g id="edge1" class="edge">
<title>BB0&#45;&gt;BB7</title>
<path fill="none" stroke="black" d="M483.75,-445.82C494.87,-435.28 507.21,-423.59 518.76,-412.65"/>
<polygon fill="black" stroke="black" points="521.36,-415 526.21,-405.59 516.54,-409.92 521.36,-415"/>
</g>
<!-- BB2 -->
<g id="node3" class="node">
<title>BB2</title>
<ellipse fill="none" stroke="black" cx="219.36" cy="-259.38" rx="105.22" ry="37.45"/>
<text text-anchor="middle" x="219.36" y="-270.68" font-family="Times New Roman,serif" font-size="14.00">[6..1e)</text>
<text text-anchor="middle" x="219.36" y="-255.68" font-family="Times New Roman,serif" font-size="14.00">Normalized Count: 1.00</text>
<text text-anchor="middle" x="219.36" y="-240.68" font-family="Times New Roman,serif" font-size="14.00">Samples weight: 0.20</text>
</g>
<!-- BB1&#45;&gt;BB2 -->
<g id="edge4" class="edge">
<title>BB1&#45;&gt;BB2</title>
<path fill="none" stroke="black" d="M297.29,-334.86C286.27,-324.33 274.03,-312.63 262.58,-301.69"/>
<polygon fill="black" stroke="black" points="264.84,-299.01 255.19,-294.63 260.01,-304.07 264.84,-299.01"/>
</g>
<!-- BB6 -->
<g id="node7" class="node">
<title>BB6</title>
<ellipse fill="none" stroke="black" cx="448.36" cy="-259.38" rx="105.22" ry="37.45"/>
<text text-anchor="middle" x="448.36" y="-270.68" font-family="Times New Roman,serif" font-size="14.00">[25..2a)</text>
<text text-anchor="middle" x="448.36" y="-255.68" font-family="Times New Roman,serif" font-size="14.00">Normalized Count: 0.00</text>
<text text-anchor="middle" x="448.36" y="-240.68" font-family="Times New Roman,serif" font-size="14.00">Samples weight: 0.00</text>
</g>
<!-- BB1&#45;&gt;BB6 -->
<g id="edge3" class="edge">
<title>BB1&#45;&gt;BB6</title>
<path fill="none" stroke="black" d="M369.75,-334.86C380.87,-324.33 393.21,-312.63 404.76,-301.69"/>
<polygon fill="black" stroke="black" points="407.36,-304.05 412.21,-294.63 402.54,-298.97 407.36,-304.05"/>
</g>
<!-- BB3 -->
<g id="node4" class="node">
<title>BB3</title>
<ellipse fill="none" stroke="black" cx="105.36" cy="-148.43" rx="105.22" ry="37.45"/>
<text text-anchor="middle" x="105.36" y="-159.73" font-family="Times New Roman,serif" font-size="14.00">[1e..21)</text>
<text text-anchor="middle" x="105.36" y="-144.73" font-family="Times New Roman,serif" font-size="14.00">Normalized Count: 0.75</text>
<text text-anchor="middle" x="105.36" y="-129.73" font-family="Times New Roman,serif" font-size="14.00">Samples weight: 0.15</text>
</g>
<!-- BB2&#45;&gt;BB3 -->
<g id="edge6" class="edge">
<title>BB2&#45;&gt;BB3</title>
<path fill="none" stroke="black" d="M183.29,-223.91C172.27,-213.37 160.03,-201.68 148.58,-190.74"/>
<polygon fill="black" stroke="black" points="150.84,-188.06 141.19,-183.68 146.01,-193.12 150.84,-188.06"/>
</g>
<!-- BB4 -->
<g id="node5" class="node">
<title>BB4</title>
<ellipse fill="none" stroke="black" cx="334.36" cy="-148.43" rx="105.22" ry="37.45"/>
<text text-anchor="middle" x="334.36" y="-159.73" font-family="Times New Roman,serif" font-size="14.00">[21..22)</text>
<text text-anchor="middle" x="334.36" y="-144.73" font-family="Times New Roman,serif" font-size="14.00">Normalized Count: 0.25</text>
<text text-anchor="middle" x="334.36" y="-129.73" font-family="Times New Roman,serif" font-size="14.00">Samples weight: 0.05</text>
</g>
<!-- BB2&#45;&gt;BB4 -->
<g id="edge5" class="edge">
<title>BB2&#45;&gt;BB4</title>
<path fill="none" stroke="black" d="M255.75,-223.91C266.87,-213.37 279.21,-201.68 290.76,-190.74"/>
<polygon fill="black" stroke="black" points="293.36,-193.1 298.21,-183.68 288.54,-188.02 293.36,-193.1"/>
</g>
<!-- BB5 -->
<g id="node6" class="node">
<title>BB5</title>
<ellipse fill="none" stroke="black" cx="219.36" cy="-37.48" rx="105.22" ry="37.45"/>
<text text-anchor="middle" x="219.36" y="-48.78" font-family="Times New Roman,serif" font-size="14.00">[22..25)</text>
<text text-anchor="middle" x="219.36" y="-33.78" font-family="Times New Roman,serif" font-size="14.00">Normalized Count: 1.00</text>
<text text-anchor="middle" x="219.36" y="-18.78" font-family="Times New Roman,serif" font-size="14.00">Samples weight: 0.20</text>
</g>
<!-- BB3&#45;&gt;BB5 -->
<g id="edge7" class="edge">
<title>BB3&#45;&gt;BB5</title>
<path fill="none" stroke="black" d="M141.43,-112.96C152.45,-102.42 164.69,-90.73 176.14,-79.79"/>
<polygon fill="black" stroke="black" points="178.71,-82.17 183.52,-72.73 173.88,-77.1 178.71,-82.17"/>
</g>
<!-- BB4&#45;&gt;BB5 -->
<g id="edge8" class="edge">
<title>BB4&#45;&gt;BB5</title>
<path fill="none" stroke="black" d="M297.97,-112.96C286.85,-102.42 274.51,-90.73 262.96,-79.79"/>
<polygon fill="black" stroke="black" points="265.18,-77.06 255.51,-72.73 260.36,-82.14 265.18,-77.06"/>
</g>
</g>
</svg>
