<?xml version="1.0" encoding="UTF-8" standalone="no"?>
<!DOCTYPE svg PUBLIC "-//W3C//DTD SVG 1.1//EN"
 "http://www.w3.org/Graphics/SVG/1.1/DTD/svg11.dtd">
<!-- Generated by graphviz version 2.47.0 (20210316.0004)
 -->
<!-- Title: G Pages: 1 -->
<svg width="1084pt" height="897pt"
 viewBox="0.00 0.00 1084.48 897.17" xmlns="http://www.w3.org/2000/svg" xmlns:xlink="http://www.w3.org/1999/xlink">
<g id="graph0" class="graph" transform="scale(1 1) rotate(0) translate(4 893.17)">
<title>G</title>
<polygon fill="white" stroke="transparent" points="-4,4 -4,-893.17 1080.48,-893.17 1080.48,4 -4,4"/>
<!-- BB0 -->
<g id="node1" class="node">
<title>BB0</title>
<ellipse fill="none" stroke="black" cx="238.24" cy="-841.08" rx="103.48" ry="48.17"/>
<text text-anchor="middle" x="238.24" y="-859.88" font-family="Times New Roman,serif" font-size="14.00">[0..a)</text>
<text text-anchor="middle" x="238.24" y="-844.88" font-family="Times New Roman,serif" font-size="14.00">Count: 2</text>
<text text-anchor="middle" x="238.24" y="-829.88" font-family="Times New Roman,serif" font-size="14.00">Normalized count: 1.00</text>
<text text-anchor="middle" x="238.24" y="-814.88" font-family="Times New Roman,serif" font-size="14.00">Samples weight: 0.00</text>
</g>
<!-- BB8 -->
<g id="node9" class="node">
<title>BB8</title>
<ellipse fill="none" stroke="black" cx="238.24" cy="-708.92" rx="103.48" ry="48.17"/>
<text text-anchor="middle" x="238.24" y="-727.72" font-family="Times New Roman,serif" font-size="14.00">[3a..3f)</text>
<text text-anchor="middle" x="238.24" y="-712.72" font-family="Times New Roman,serif" font-size="14.00">Count: 4</text>
<text text-anchor="middle" x="238.24" y="-697.72" font-family="Times New Roman,serif" font-size="14.00">Normalized count: 2.00</text>
<text text-anchor="middle" x="238.24" y="-682.72" font-family="Times New Roman,serif" font-size="14.00">Samples weight: 0.00</text>
</g>
<!-- BB0&#45;&gt;BB8 -->
<g id="edge1" class="edge">
<title>BB0&#45;&gt;BB8</title>
<path fill="none" stroke="black" d="M238.24,-792.72C238.24,-784.45 238.24,-775.77 238.24,-767.27"/>
<polygon fill="black" stroke="black" points="241.74,-767.02 238.24,-757.02 234.74,-767.02 241.74,-767.02"/>
</g>
<!-- BB1 -->
<g id="node2" class="node">
<title>BB1</title>
<ellipse fill="none" stroke="black" cx="238.24" cy="-576.75" rx="103.48" ry="48.17"/>
<text text-anchor="middle" x="238.24" y="-595.55" font-family="Times New Roman,serif" font-size="14.00">[a..e)</text>
<text text-anchor="middle" x="238.24" y="-580.55" font-family="Times New Roman,serif" font-size="14.00">Count: 2</text>
<text text-anchor="middle" x="238.24" y="-565.55" font-family="Times New Roman,serif" font-size="14.00">Normalized count: 1.00</text>
<text text-anchor="middle" x="238.24" y="-550.55" font-family="Times New Roman,serif" font-size="14.00">Samples weight: 0.00</text>
</g>
<!-- BB3 -->
<g id="node4" class="node">
<title>BB3</title>
<ellipse fill="none" stroke="black" cx="238.24" cy="-444.58" rx="118.17" ry="48.17"/>
<text text-anchor="middle" x="238.24" y="-463.38" font-family="Times New Roman,serif" font-size="14.00">[1c..20)</text>
<text text-anchor="middle" x="238.24" y="-448.38" font-family="Times New Roman,serif" font-size="14.00">Count: 2107</text>
<text text-anchor="middle" x="238.24" y="-433.38" font-family="Times New Roman,serif" font-size="14.00">Normalized count: 1053.50</text>
<text text-anchor="middle" x="238.24" y="-418.38" font-family="Times New Roman,serif" font-size="14.00">Samples weight: 0.24</text>
</g>
<!-- BB1&#45;&gt;BB3 -->
<g id="edge2" class="edge">
<title>BB1&#45;&gt;BB3</title>
<path fill="none" stroke="black" d="M238.24,-528.39C238.24,-520.12 238.24,-511.44 238.24,-502.93"/>
<polygon fill="black" stroke="black" points="241.74,-502.69 238.24,-492.69 234.74,-502.69 241.74,-502.69"/>
</g>
<!-- BB2 -->
<g id="node3" class="node">
<title>BB2</title>
<ellipse fill="none" stroke="black" cx="238.24" cy="-312.42" rx="118.17" ry="48.17"/>
<text text-anchor="middle" x="238.24" y="-331.22" font-family="Times New Roman,serif" font-size="14.00">[e..1c)</text>
<text text-anchor="middle" x="238.24" y="-316.22" font-family="Times New Roman,serif" font-size="14.00">Count: 2105</text>
<text text-anchor="middle" x="238.24" y="-301.22" font-family="Times New Roman,serif" font-size="14.00">Normalized count: 1052.50</text>
<text text-anchor="middle" x="238.24" y="-286.22" font-family="Times New Roman,serif" font-size="14.00">Samples weight: 0.24</text>
</g>
<!-- BB2&#45;&gt;BB3 -->
<g id="edge3" class="edge">
<title>BB2&#45;&gt;BB3</title>
<path fill="none" stroke="black" d="M244.75,-360.52C244.97,-368.78 245.04,-377.46 244.95,-385.97"/>
<polygon fill="black" stroke="black" points="241.44,-386.16 244.76,-396.22 248.44,-386.29 241.44,-386.16"/>
</g>
<!-- BB3&#45;&gt;BB2 -->
<g id="edge4" class="edge">
<title>BB3&#45;&gt;BB2</title>
<path fill="none" stroke="black" d="M231.72,-396.22C231.5,-387.95 231.44,-379.27 231.53,-370.77"/>
<polygon fill="black" stroke="black" points="235.03,-370.59 231.72,-360.52 228.04,-370.46 235.03,-370.59"/>
</g>
<!-- BB4 -->
<g id="node5" class="node">
<title>BB4</title>
<ellipse fill="none" stroke="black" cx="477.24" cy="-312.42" rx="103.48" ry="48.17"/>
<text text-anchor="middle" x="477.24" y="-331.22" font-family="Times New Roman,serif" font-size="14.00">[20..24)</text>
<text text-anchor="middle" x="477.24" y="-316.22" font-family="Times New Roman,serif" font-size="14.00">Count: 2</text>
<text text-anchor="middle" x="477.24" y="-301.22" font-family="Times New Roman,serif" font-size="14.00">Normalized count: 1.00</text>
<text text-anchor="middle" x="477.24" y="-286.22" font-family="Times New Roman,serif" font-size="14.00">Samples weight: 0.00</text>
</g>
<!-- BB3&#45;&gt;BB4 -->
<g id="edge5" class="edge">
<title>BB3&#45;&gt;BB4</title>
<path fill="none" stroke="black" d="M308.01,-405.58C337.6,-389.47 372.15,-370.65 402.29,-354.24"/>
<polygon fill="black" stroke="black" points="403.97,-357.31 411.07,-349.45 400.62,-351.16 403.97,-357.31"/>
</g>
<!-- BB6 -->
<g id="node7" class="node">
<title>BB6</title>
<ellipse fill="none" stroke="black" cx="363.24" cy="-180.25" rx="118.17" ry="48.17"/>
<text text-anchor="middle" x="363.24" y="-199.05" font-family="Times New Roman,serif" font-size="14.00">[32..36)</text>
<text text-anchor="middle" x="363.24" y="-184.05" font-family="Times New Roman,serif" font-size="14.00">Count: 2109</text>
<text text-anchor="middle" x="363.24" y="-169.05" font-family="Times New Roman,serif" font-size="14.00">Normalized count: 1054.50</text>
<text text-anchor="middle" x="363.24" y="-154.05" font-family="Times New Roman,serif" font-size="14.00">Samples weight: 0.24</text>
</g>
<!-- BB4&#45;&gt;BB6 -->
<g id="edge6" class="edge">
<title>BB4&#45;&gt;BB6</title>
<path fill="none" stroke="black" d="M438.96,-267.71C429.39,-256.79 419.04,-244.96 409.15,-233.67"/>
<polygon fill="black" stroke="black" points="411.61,-231.17 402.39,-225.95 406.34,-235.78 411.61,-231.17"/>
</g>
<!-- BB5 -->
<g id="node6" class="node">
<title>BB5</title>
<ellipse fill="none" stroke="black" cx="363.24" cy="-48.08" rx="118.17" ry="48.17"/>
<text text-anchor="middle" x="363.24" y="-66.88" font-family="Times New Roman,serif" font-size="14.00">[24..32)</text>
<text text-anchor="middle" x="363.24" y="-51.88" font-family="Times New Roman,serif" font-size="14.00">Count: 2107</text>
<text text-anchor="middle" x="363.24" y="-36.88" font-family="Times New Roman,serif" font-size="14.00">Normalized count: 1053.50</text>
<text text-anchor="middle" x="363.24" y="-21.88" font-family="Times New Roman,serif" font-size="14.00">Samples weight: 0.24</text>
</g>
<!-- BB5&#45;&gt;BB6 -->
<g id="edge7" class="edge">
<title>BB5&#45;&gt;BB6</title>
<path fill="none" stroke="black" d="M369.75,-96.19C369.97,-104.45 370.04,-113.13 369.95,-121.64"/>
<polygon fill="black" stroke="black" points="366.44,-121.83 369.76,-131.89 373.44,-121.95 366.44,-121.83"/>
</g>
<!-- BB6&#45;&gt;BB5 -->
<g id="edge8" class="edge">
<title>BB6&#45;&gt;BB5</title>
<path fill="none" stroke="black" d="M356.72,-131.89C356.5,-123.62 356.44,-114.94 356.53,-106.43"/>
<polygon fill="black" stroke="black" points="360.03,-106.26 356.72,-96.19 353.04,-106.12 360.03,-106.26"/>
</g>
<!-- BB7 -->
<g id="node8" class="node">
<title>BB7</title>
<ellipse fill="none" stroke="black" cx="103.24" cy="-48.08" rx="103.48" ry="48.17"/>
<text text-anchor="middle" x="103.24" y="-66.88" font-family="Times New Roman,serif" font-size="14.00">[36..3a)</text>
<text text-anchor="middle" x="103.24" y="-51.88" font-family="Times New Roman,serif" font-size="14.00">Count: 2</text>
<text text-anchor="middle" x="103.24" y="-36.88" font-family="Times New Roman,serif" font-size="14.00">Normalized count: 1.00</text>
<text text-anchor="middle" x="103.24" y="-21.88" font-family="Times New Roman,serif" font-size="14.00">Samples weight: 0.00</text>
</g>
<!-- BB6&#45;&gt;BB7 -->
<g id="edge9" class="edge">
<title>BB6&#45;&gt;BB7</title>
<path fill="none" stroke="black" d="M289.77,-142.47C256,-125.56 215.91,-105.49 181.56,-88.29"/>
<polygon fill="black" stroke="black" points="183.01,-85.11 172.5,-83.76 179.87,-91.36 183.01,-85.11"/>
</g>
<!-- BB7&#45;&gt;BB8 -->
<g id="edge10" class="edge">
<title>BB7&#45;&gt;BB8</title>
<path fill="none" stroke="black" d="M100.06,-96.45C96.81,-148.97 92.24,-236.2 92.24,-311.42 92.24,-445.58 92.24,-445.58 92.24,-445.58 92.24,-526.67 83.17,-556.13 126.24,-624.83 136,-640.41 149.83,-654.06 164.45,-665.55"/>
<polygon fill="black" stroke="black" points="162.54,-668.49 172.63,-671.71 166.75,-662.9 162.54,-668.49"/>
</g>
<!-- BB8&#45;&gt;BB1 -->
<g id="edge11" class="edge">
<title>BB8&#45;&gt;BB1</title>
<path fill="none" stroke="black" d="M238.24,-660.55C238.24,-652.29 238.24,-643.6 238.24,-635.1"/>
<polygon fill="black" stroke="black" points="241.74,-634.86 238.24,-624.86 234.74,-634.86 241.74,-634.86"/>
</g>
<!-- BB9 -->
<g id="node10" class="node">
<title>BB9</title>
<ellipse fill="none" stroke="black" cx="584.24" cy="-576.75" rx="103.48" ry="48.17"/>
<text text-anchor="middle" x="584.24" y="-595.55" font-family="Times New Roman,serif" font-size="14.00">[3f..43)</text>
<text text-anchor="middle" x="584.24" y="-580.55" font-family="Times New Roman,serif" font-size="14.00">Count: 2</text>
<text text-anchor="middle" x="584.24" y="-565.55" font-family="Times New Roman,serif" font-size="14.00">Normalized count: 1.00</text>
<text text-anchor="middle" x="584.24" y="-550.55" font-family="Times New Roman,serif" font-size="14.00">Samples weight: 0.00</text>
</g>
<!-- BB8&#45;&gt;BB9 -->
<g id="edge12" class="edge">
<title>BB8&#45;&gt;BB9</title>
<path fill="none" stroke="black" d="M317.62,-678.05C370.71,-658.08 440.63,-631.77 495.55,-611.11"/>
<polygon fill="black" stroke="black" points="496.8,-614.38 504.93,-607.59 494.34,-607.83 496.8,-614.38"/>
</g>
<!-- BB13 -->
<g id="node14" class="node">
<title>BB13</title>
<ellipse fill="none" stroke="black" cx="774.24" cy="-444.58" rx="108.38" ry="48.17"/>
<text text-anchor="middle" x="774.24" y="-463.38" font-family="Times New Roman,serif" font-size="14.00">[75..79)</text>
<text text-anchor="middle" x="774.24" y="-448.38" font-family="Times New Roman,serif" font-size="14.00">Count: 58</text>
<text text-anchor="middle" x="774.24" y="-433.38" font-family="Times New Roman,serif" font-size="14.00">Normalized count: 29.00</text>
<text text-anchor="middle" x="774.24" y="-418.38" font-family="Times New Roman,serif" font-size="14.00">Samples weight: 0.01</text>
</g>
<!-- BB9&#45;&gt;BB13 -->
<g id="edge13" class="edge">
<title>BB9&#45;&gt;BB13</title>
<path fill="none" stroke="black" d="M641.5,-536.52C662.34,-522.24 686.06,-505.99 707.64,-491.21"/>
<polygon fill="black" stroke="black" points="709.83,-493.95 716.11,-485.41 705.88,-488.17 709.83,-493.95"/>
</g>
<!-- BB10 -->
<g id="node11" class="node">
<title>BB10</title>
<ellipse fill="none" stroke="black" cx="706.24" cy="-312.42" rx="108.38" ry="48.17"/>
<text text-anchor="middle" x="706.24" y="-331.22" font-family="Times New Roman,serif" font-size="14.00">[43..4b)</text>
<text text-anchor="middle" x="706.24" y="-316.22" font-family="Times New Roman,serif" font-size="14.00">Count: 56</text>
<text text-anchor="middle" x="706.24" y="-301.22" font-family="Times New Roman,serif" font-size="14.00">Normalized count: 28.00</text>
<text text-anchor="middle" x="706.24" y="-286.22" font-family="Times New Roman,serif" font-size="14.00">Samples weight: 0.01</text>
</g>
<!-- BB11 -->
<g id="node12" class="node">
<title>BB11</title>
<ellipse fill="none" stroke="black" cx="613.24" cy="-180.25" rx="103.48" ry="48.17"/>
<text text-anchor="middle" x="613.24" y="-199.05" font-family="Times New Roman,serif" font-size="14.00">[4b..71)</text>
<text text-anchor="middle" x="613.24" y="-184.05" font-family="Times New Roman,serif" font-size="14.00">Count: 0</text>
<text text-anchor="middle" x="613.24" y="-169.05" font-family="Times New Roman,serif" font-size="14.00">Normalized count: 0.00</text>
<text text-anchor="middle" x="613.24" y="-154.05" font-family="Times New Roman,serif" font-size="14.00">Samples weight: 0.00</text>
</g>
<!-- BB10&#45;&gt;BB11 -->
<g id="edge15" class="edge">
<title>BB10&#45;&gt;BB11</title>
<path fill="none" stroke="black" d="M673.97,-266.26C666.69,-256.06 658.88,-245.14 651.38,-234.64"/>
<polygon fill="black" stroke="black" points="654.11,-232.43 645.45,-226.33 648.41,-236.5 654.11,-232.43"/>
</g>
<!-- BB12 -->
<g id="node13" class="node">
<title>BB12</title>
<ellipse fill="none" stroke="black" cx="842.24" cy="-180.25" rx="108.38" ry="48.17"/>
<text text-anchor="middle" x="842.24" y="-199.05" font-family="Times New Roman,serif" font-size="14.00">[71..75)</text>
<text text-anchor="middle" x="842.24" y="-184.05" font-family="Times New Roman,serif" font-size="14.00">Count: 56</text>
<text text-anchor="middle" x="842.24" y="-169.05" font-family="Times New Roman,serif" font-size="14.00">Normalized count: 28.00</text>
<text text-anchor="middle" x="842.24" y="-154.05" font-family="Times New Roman,serif" font-size="14.00">Samples weight: 0.01</text>
</g>
<!-- BB10&#45;&gt;BB12 -->
<g id="edge14" class="edge">
<title>BB10&#45;&gt;BB12</title>
<path fill="none" stroke="black" d="M751.15,-268.43C763.56,-256.55 777.15,-243.55 789.95,-231.3"/>
<polygon fill="black" stroke="black" points="792.57,-233.63 797.38,-224.19 787.73,-228.57 792.57,-233.63"/>
</g>
<!-- BB11&#45;&gt;BB12 -->
<g id="edge16" class="edge">
<title>BB11&#45;&gt;BB12</title>
<path fill="none" stroke="black" d="M716.56,-180.25C718.88,-180.25 721.21,-180.25 723.54,-180.25"/>
<polygon fill="black" stroke="black" points="723.74,-183.75 733.74,-180.25 723.74,-176.75 723.74,-183.75"/>
</g>
<!-- BB12&#45;&gt;BB13 -->
<g id="edge17" class="edge">
<title>BB12&#45;&gt;BB13</title>
<path fill="none" stroke="black" d="M842.66,-228.44C841.71,-265.27 837.53,-317.27 823.24,-360.5 820.01,-370.26 815.52,-380.12 810.54,-389.46"/>
<polygon fill="black" stroke="black" points="807.46,-387.8 805.66,-398.24 813.58,-391.21 807.46,-387.8"/>
</g>
<!-- BB13&#45;&gt;BB10 -->
<g id="edge18" class="edge">
<title>BB13&#45;&gt;BB10</title>
<path fill="none" stroke="black" d="M750.26,-397.69C745.29,-388.16 739.99,-378.03 734.87,-368.23"/>
<polygon fill="black" stroke="black" points="737.96,-366.58 730.22,-359.33 731.75,-369.82 737.96,-366.58"/>
</g>
<!-- BB14 -->
<g id="node15" class="node">
<title>BB14</title>
<ellipse fill="none" stroke="black" cx="973.24" cy="-312.42" rx="103.48" ry="48.17"/>
<text text-anchor="middle" x="973.24" y="-331.22" font-family="Times New Roman,serif" font-size="14.00">[79..80)</text>
<text text-anchor="middle" x="973.24" y="-316.22" font-family="Times New Roman,serif" font-size="14.00">Count: 2</text>
<text text-anchor="middle" x="973.24" y="-301.22" font-family="Times New Roman,serif" font-size="14.00">Normalized count: 1.00</text>
<text text-anchor="middle" x="973.24" y="-286.22" font-family="Times New Roman,serif" font-size="14.00">Samples weight: 0.00</text>
</g>
<!-- BB13&#45;&gt;BB14 -->
<g id="edge19" class="edge">
<title>BB13&#45;&gt;BB14</title>
<path fill="none" stroke="black" d="M834.21,-404.35C856.74,-389.62 882.49,-372.77 905.66,-357.62"/>
<polygon fill="black" stroke="black" points="907.62,-360.52 914.07,-352.12 903.78,-354.66 907.62,-360.52"/>
</g>
</g>
</svg>
