<?xml version="1.0" encoding="UTF-8" standalone="no"?>
<!DOCTYPE svg PUBLIC "-//W3C//DTD SVG 1.1//EN"
 "http://www.w3.org/Graphics/SVG/1.1/DTD/svg11.dtd">
<!-- Generated by graphviz version 2.47.0 (20210316.0004)
 -->
<!-- Title: G Pages: 1 -->
<svg width="1230pt" height="749pt"
 viewBox="0.00 0.00 1229.67 748.67" xmlns="http://www.w3.org/2000/svg" xmlns:xlink="http://www.w3.org/1999/xlink">
<g id="graph0" class="graph" transform="scale(1 1) rotate(0) translate(4 744.67)">
<title>G</title>
<polygon fill="white" stroke="transparent" points="-4,4 -4,-744.67 1225.67,-744.67 1225.67,4 -4,4"/>
<!-- BB0 -->
<g id="node1" class="node">
<title>BB0</title>
<ellipse fill="none" stroke="black" cx="754.31" cy="-703.2" rx="105.22" ry="37.45"/>
<text text-anchor="middle" x="754.31" y="-714.5" font-family="Times New Roman,serif" font-size="14.00">[0..5)</text>
<text text-anchor="middle" x="754.31" y="-699.5" font-family="Times New Roman,serif" font-size="14.00">Normalized Count: 1.00</text>
<text text-anchor="middle" x="754.31" y="-684.5" font-family="Times New Roman,serif" font-size="14.00">Samples weight: 0.01</text>
</g>
<!-- BB11 -->
<g id="node12" class="node">
<title>BB11</title>
<ellipse fill="none" stroke="black" cx="754.31" cy="-592.24" rx="105.22" ry="37.45"/>
<text text-anchor="middle" x="754.31" y="-603.54" font-family="Times New Roman,serif" font-size="14.00">[58..5e)</text>
<text text-anchor="middle" x="754.31" y="-588.54" font-family="Times New Roman,serif" font-size="14.00">Normalized Count: 1.50</text>
<text text-anchor="middle" x="754.31" y="-573.54" font-family="Times New Roman,serif" font-size="14.00">Samples weight: 0.02</text>
</g>
<!-- BB0&#45;&gt;BB11 -->
<g id="edge1" class="edge">
<title>BB0&#45;&gt;BB11</title>
<path fill="none" stroke="black" d="M754.31,-665.61C754.31,-657.44 754.31,-648.66 754.31,-640.13"/>
<polygon fill="black" stroke="black" points="757.81,-639.92 754.31,-629.92 750.81,-639.92 757.81,-639.92"/>
</g>
<!-- BB1 -->
<g id="node2" class="node">
<title>BB1</title>
<ellipse fill="none" stroke="black" cx="621.31" cy="-481.29" rx="105.22" ry="37.45"/>
<text text-anchor="middle" x="621.31" y="-492.59" font-family="Times New Roman,serif" font-size="14.00">[5..14)</text>
<text text-anchor="middle" x="621.31" y="-477.59" font-family="Times New Roman,serif" font-size="14.00">Normalized Count: 0.50</text>
<text text-anchor="middle" x="621.31" y="-462.59" font-family="Times New Roman,serif" font-size="14.00">Samples weight: 0.01</text>
</g>
<!-- BB6 -->
<g id="node7" class="node">
<title>BB6</title>
<ellipse fill="none" stroke="black" cx="411.31" cy="-370.34" rx="105.22" ry="37.45"/>
<text text-anchor="middle" x="411.31" y="-381.64" font-family="Times New Roman,serif" font-size="14.00">[33..39)</text>
<text text-anchor="middle" x="411.31" y="-366.64" font-family="Times New Roman,serif" font-size="14.00">Normalized Count: 1.50</text>
<text text-anchor="middle" x="411.31" y="-351.64" font-family="Times New Roman,serif" font-size="14.00">Samples weight: 0.02</text>
</g>
<!-- BB1&#45;&gt;BB6 -->
<g id="edge2" class="edge">
<title>BB1&#45;&gt;BB6</title>
<path fill="none" stroke="black" d="M562.81,-449.94C536.75,-436.42 505.9,-420.41 478.87,-406.39"/>
<polygon fill="black" stroke="black" points="480.34,-403.21 469.86,-401.71 477.12,-409.42 480.34,-403.21"/>
</g>
<!-- BB2 -->
<g id="node3" class="node">
<title>BB2</title>
<ellipse fill="none" stroke="black" cx="209.31" cy="-259.38" rx="105.22" ry="37.45"/>
<text text-anchor="middle" x="209.31" y="-270.68" font-family="Times New Roman,serif" font-size="14.00">[14..18)</text>
<text text-anchor="middle" x="209.31" y="-255.68" font-family="Times New Roman,serif" font-size="14.00">Normalized Count: 1.00</text>
<text text-anchor="middle" x="209.31" y="-240.68" font-family="Times New Roman,serif" font-size="14.00">Samples weight: 0.01</text>
</g>
<!-- BB4 -->
<g id="node5" class="node">
<title>BB4</title>
<ellipse fill="none" stroke="black" cx="182.31" cy="-148.43" rx="110.12" ry="37.45"/>
<text text-anchor="middle" x="182.31" y="-159.73" font-family="Times New Roman,serif" font-size="14.00">[28..2d)</text>
<text text-anchor="middle" x="182.31" y="-144.73" font-family="Times New Roman,serif" font-size="14.00">Normalized Count: 36.50</text>
<text text-anchor="middle" x="182.31" y="-129.73" font-family="Times New Roman,serif" font-size="14.00">Samples weight: 0.43</text>
</g>
<!-- BB2&#45;&gt;BB4 -->
<g id="edge3" class="edge">
<title>BB2&#45;&gt;BB4</title>
<path fill="none" stroke="black" d="M200.24,-221.8C198.19,-213.54 195.99,-204.65 193.86,-196.04"/>
<polygon fill="black" stroke="black" points="197.2,-194.97 191.4,-186.1 190.4,-196.65 197.2,-194.97"/>
</g>
<!-- BB3 -->
<g id="node4" class="node">
<title>BB3</title>
<ellipse fill="none" stroke="black" cx="110.31" cy="-37.48" rx="110.12" ry="37.45"/>
<text text-anchor="middle" x="110.31" y="-48.78" font-family="Times New Roman,serif" font-size="14.00">[18..28)</text>
<text text-anchor="middle" x="110.31" y="-33.78" font-family="Times New Roman,serif" font-size="14.00">Normalized Count: 35.50</text>
<text text-anchor="middle" x="110.31" y="-18.78" font-family="Times New Roman,serif" font-size="14.00">Samples weight: 0.42</text>
</g>
<!-- BB3&#45;&gt;BB4 -->
<g id="edge4" class="edge">
<title>BB3&#45;&gt;BB4</title>
<path fill="none" stroke="black" d="M140.06,-73.86C146.48,-83 153.16,-92.96 159.29,-102.52"/>
<polygon fill="black" stroke="black" points="156.44,-104.56 164.74,-111.15 162.36,-100.83 156.44,-104.56"/>
</g>
<!-- BB4&#45;&gt;BB3 -->
<g id="edge5" class="edge">
<title>BB4&#45;&gt;BB3</title>
<path fill="none" stroke="black" d="M152.57,-112.06C146.15,-102.92 139.47,-92.97 133.35,-83.42"/>
<polygon fill="black" stroke="black" points="136.2,-81.38 127.9,-74.79 130.28,-85.12 136.2,-81.38"/>
</g>
<!-- BB5 -->
<g id="node6" class="node">
<title>BB5</title>
<ellipse fill="none" stroke="black" cx="344.31" cy="-37.48" rx="105.22" ry="37.45"/>
<text text-anchor="middle" x="344.31" y="-48.78" font-family="Times New Roman,serif" font-size="14.00">[2d..33)</text>
<text text-anchor="middle" x="344.31" y="-33.78" font-family="Times New Roman,serif" font-size="14.00">Normalized Count: 1.00</text>
<text text-anchor="middle" x="344.31" y="-18.78" font-family="Times New Roman,serif" font-size="14.00">Samples weight: 0.01</text>
</g>
<!-- BB4&#45;&gt;BB5 -->
<g id="edge6" class="edge">
<title>BB4&#45;&gt;BB5</title>
<path fill="none" stroke="black" d="M230.91,-114.74C248.78,-102.73 269.15,-89.02 287.66,-76.58"/>
<polygon fill="black" stroke="black" points="289.67,-79.44 296.02,-70.96 285.77,-73.63 289.67,-79.44"/>
</g>
<!-- BB5&#45;&gt;BB6 -->
<g id="edge7" class="edge">
<title>BB5&#45;&gt;BB6</title>
<path fill="none" stroke="black" d="M351.72,-75.06C363.95,-135.45 388.34,-255.92 401.82,-322.47"/>
<polygon fill="black" stroke="black" points="398.47,-323.56 403.88,-332.66 405.33,-322.17 398.47,-323.56"/>
</g>
<!-- BB6&#45;&gt;BB2 -->
<g id="edge8" class="edge">
<title>BB6&#45;&gt;BB2</title>
<path fill="none" stroke="black" d="M354.5,-338.7C329.76,-325.35 300.62,-309.63 274.96,-295.79"/>
<polygon fill="black" stroke="black" points="276.5,-292.65 266.04,-290.98 273.18,-298.81 276.5,-292.65"/>
</g>
<!-- BB7 -->
<g id="node8" class="node">
<title>BB7</title>
<ellipse fill="none" stroke="black" cx="525.31" cy="-259.38" rx="105.22" ry="37.45"/>
<text text-anchor="middle" x="525.31" y="-270.68" font-family="Times New Roman,serif" font-size="14.00">[39..3e)</text>
<text text-anchor="middle" x="525.31" y="-255.68" font-family="Times New Roman,serif" font-size="14.00">Normalized Count: 0.50</text>
<text text-anchor="middle" x="525.31" y="-240.68" font-family="Times New Roman,serif" font-size="14.00">Samples weight: 0.01</text>
</g>
<!-- BB6&#45;&gt;BB7 -->
<g id="edge9" class="edge">
<title>BB6&#45;&gt;BB7</title>
<path fill="none" stroke="black" d="M447.38,-334.86C458.4,-324.33 470.64,-312.63 482.09,-301.69"/>
<polygon fill="black" stroke="black" points="484.66,-304.07 489.47,-294.63 479.83,-299.01 484.66,-304.07"/>
</g>
<!-- BB9 -->
<g id="node10" class="node">
<title>BB9</title>
<ellipse fill="none" stroke="black" cx="573.31" cy="-148.43" rx="105.22" ry="37.45"/>
<text text-anchor="middle" x="573.31" y="-159.73" font-family="Times New Roman,serif" font-size="14.00">[4c..52)</text>
<text text-anchor="middle" x="573.31" y="-144.73" font-family="Times New Roman,serif" font-size="14.00">Normalized Count: 1.00</text>
<text text-anchor="middle" x="573.31" y="-129.73" font-family="Times New Roman,serif" font-size="14.00">Samples weight: 0.01</text>
</g>
<!-- BB7&#45;&gt;BB9 -->
<g id="edge10" class="edge">
<title>BB7&#45;&gt;BB9</title>
<path fill="none" stroke="black" d="M541.29,-222.1C545.14,-213.37 549.29,-203.94 553.3,-194.85"/>
<polygon fill="black" stroke="black" points="556.57,-196.11 557.4,-185.55 550.16,-193.29 556.57,-196.11"/>
</g>
<!-- BB8 -->
<g id="node9" class="node">
<title>BB8</title>
<ellipse fill="none" stroke="black" cx="573.31" cy="-37.48" rx="105.22" ry="37.45"/>
<text text-anchor="middle" x="573.31" y="-48.78" font-family="Times New Roman,serif" font-size="14.00">[3e..4c)</text>
<text text-anchor="middle" x="573.31" y="-33.78" font-family="Times New Roman,serif" font-size="14.00">Normalized Count: 0.50</text>
<text text-anchor="middle" x="573.31" y="-18.78" font-family="Times New Roman,serif" font-size="14.00">Samples weight: 0.01</text>
</g>
<!-- BB8&#45;&gt;BB9 -->
<g id="edge11" class="edge">
<title>BB8&#45;&gt;BB9</title>
<path fill="none" stroke="black" d="M579.73,-75.15C580.04,-83.33 580.13,-92.11 580,-100.63"/>
<polygon fill="black" stroke="black" points="576.49,-100.76 579.72,-110.85 583.49,-100.94 576.49,-100.76"/>
</g>
<!-- BB9&#45;&gt;BB8 -->
<g id="edge12" class="edge">
<title>BB9&#45;&gt;BB8</title>
<path fill="none" stroke="black" d="M566.89,-110.85C566.58,-102.67 566.48,-93.89 566.62,-85.37"/>
<polygon fill="black" stroke="black" points="570.12,-85.24 566.89,-75.15 563.12,-85.05 570.12,-85.24"/>
</g>
<!-- BB10 -->
<g id="node11" class="node">
<title>BB10</title>
<ellipse fill="none" stroke="black" cx="802.31" cy="-37.48" rx="105.22" ry="37.45"/>
<text text-anchor="middle" x="802.31" y="-48.78" font-family="Times New Roman,serif" font-size="14.00">[52..58)</text>
<text text-anchor="middle" x="802.31" y="-33.78" font-family="Times New Roman,serif" font-size="14.00">Normalized Count: 0.50</text>
<text text-anchor="middle" x="802.31" y="-18.78" font-family="Times New Roman,serif" font-size="14.00">Samples weight: 0.01</text>
</g>
<!-- BB9&#45;&gt;BB10 -->
<g id="edge13" class="edge">
<title>BB9&#45;&gt;BB10</title>
<path fill="none" stroke="black" d="M635.28,-117.95C664.81,-103.9 700.29,-87.01 730.94,-72.43"/>
<polygon fill="black" stroke="black" points="732.76,-75.44 740.29,-67.98 729.75,-69.12 732.76,-75.44"/>
</g>
<!-- BB10&#45;&gt;BB11 -->
<g id="edge14" class="edge">
<title>BB10&#45;&gt;BB11</title>
<path fill="none" stroke="black" d="M789.32,-74.91C775.1,-118.1 754.31,-192.54 754.31,-258.38 754.31,-371.34 754.31,-371.34 754.31,-371.34 754.31,-431.07 754.31,-499.93 754.31,-544.45"/>
<polygon fill="black" stroke="black" points="750.81,-544.67 754.31,-554.67 757.81,-544.67 750.81,-544.67"/>
</g>
<!-- BB11&#45;&gt;BB1 -->
<g id="edge15" class="edge">
<title>BB11&#45;&gt;BB1</title>
<path fill="none" stroke="black" d="M713.32,-557.66C699.67,-546.48 684.32,-533.91 670.14,-522.29"/>
<polygon fill="black" stroke="black" points="672.35,-519.57 662.39,-515.95 667.91,-524.99 672.35,-519.57"/>
</g>
<!-- BB12 -->
<g id="node13" class="node">
<title>BB12</title>
<ellipse fill="none" stroke="black" cx="887.31" cy="-481.29" rx="105.22" ry="37.45"/>
<text text-anchor="middle" x="887.31" y="-492.59" font-family="Times New Roman,serif" font-size="14.00">[5e..69)</text>
<text text-anchor="middle" x="887.31" y="-477.59" font-family="Times New Roman,serif" font-size="14.00">Normalized Count: 1.00</text>
<text text-anchor="middle" x="887.31" y="-462.59" font-family="Times New Roman,serif" font-size="14.00">Samples weight: 0.01</text>
</g>
<!-- BB11&#45;&gt;BB12 -->
<g id="edge16" class="edge">
<title>BB11&#45;&gt;BB12</title>
<path fill="none" stroke="black" d="M795.3,-557.66C808.95,-546.48 824.29,-533.91 838.48,-522.29"/>
<polygon fill="black" stroke="black" points="840.71,-524.99 846.23,-515.95 836.27,-519.57 840.71,-524.99"/>
</g>
<!-- BB14 -->
<g id="node15" class="node">
<title>BB14</title>
<ellipse fill="none" stroke="black" cx="887.31" cy="-370.34" rx="105.22" ry="37.45"/>
<text text-anchor="middle" x="887.31" y="-381.64" font-family="Times New Roman,serif" font-size="14.00">[83..89)</text>
<text text-anchor="middle" x="887.31" y="-366.64" font-family="Times New Roman,serif" font-size="14.00">Normalized Count: 1.50</text>
<text text-anchor="middle" x="887.31" y="-351.64" font-family="Times New Roman,serif" font-size="14.00">Samples weight: 0.02</text>
</g>
<!-- BB12&#45;&gt;BB14 -->
<g id="edge17" class="edge">
<title>BB12&#45;&gt;BB14</title>
<path fill="none" stroke="black" d="M887.31,-443.71C887.31,-435.53 887.31,-426.75 887.31,-418.23"/>
<polygon fill="black" stroke="black" points="890.81,-418.01 887.31,-408.01 883.81,-418.01 890.81,-418.01"/>
</g>
<!-- BB13 -->
<g id="node14" class="node">
<title>BB13</title>
<ellipse fill="none" stroke="black" cx="887.31" cy="-259.38" rx="105.22" ry="37.45"/>
<text text-anchor="middle" x="887.31" y="-270.68" font-family="Times New Roman,serif" font-size="14.00">[69..83)</text>
<text text-anchor="middle" x="887.31" y="-255.68" font-family="Times New Roman,serif" font-size="14.00">Normalized Count: 0.50</text>
<text text-anchor="middle" x="887.31" y="-240.68" font-family="Times New Roman,serif" font-size="14.00">Samples weight: 0.01</text>
</g>
<!-- BB13&#45;&gt;BB14 -->
<g id="edge18" class="edge">
<title>BB13&#45;&gt;BB14</title>
<path fill="none" stroke="black" d="M893.73,-297.06C894.04,-305.23 894.13,-314.02 894,-322.54"/>
<polygon fill="black" stroke="black" points="890.49,-322.66 893.72,-332.75 897.49,-322.85 890.49,-322.66"/>
</g>
<!-- BB14&#45;&gt;BB13 -->
<g id="edge19" class="edge">
<title>BB14&#45;&gt;BB13</title>
<path fill="none" stroke="black" d="M880.89,-332.75C880.58,-324.58 880.48,-315.8 880.62,-307.27"/>
<polygon fill="black" stroke="black" points="884.12,-307.15 880.89,-297.06 877.12,-306.96 884.12,-307.15"/>
</g>
<!-- BB15 -->
<g id="node16" class="node">
<title>BB15</title>
<ellipse fill="none" stroke="black" cx="1116.31" cy="-259.38" rx="105.22" ry="37.45"/>
<text text-anchor="middle" x="1116.31" y="-270.68" font-family="Times New Roman,serif" font-size="14.00">[89..90)</text>
<text text-anchor="middle" x="1116.31" y="-255.68" font-family="Times New Roman,serif" font-size="14.00">Normalized Count: 1.00</text>
<text text-anchor="middle" x="1116.31" y="-240.68" font-family="Times New Roman,serif" font-size="14.00">Samples weight: 0.01</text>
</g>
<!-- BB14&#45;&gt;BB15 -->
<g id="edge20" class="edge">
<title>BB14&#45;&gt;BB15</title>
<path fill="none" stroke="black" d="M949.28,-339.85C978.81,-325.8 1014.29,-308.92 1044.94,-294.34"/>
<polygon fill="black" stroke="black" points="1046.76,-297.35 1054.29,-289.89 1043.75,-291.03 1046.76,-297.35"/>
</g>
</g>
</svg>
