<?xml version="1.0" encoding="UTF-8" standalone="no"?>
<!DOCTYPE svg PUBLIC "-//W3C//DTD SVG 1.1//EN"
 "http://www.w3.org/Graphics/SVG/1.1/DTD/svg11.dtd">
<!-- Generated by graphviz version 2.47.0 (20210316.0004)
 -->
<!-- Title: G Pages: 1 -->
<svg width="1228pt" height="1029pt"
 viewBox="0.00 0.00 1227.57 1029.33" xmlns="http://www.w3.org/2000/svg" xmlns:xlink="http://www.w3.org/1999/xlink">
<g id="graph0" class="graph" transform="scale(1 1) rotate(0) translate(4 1025.33)">
<title>G</title>
<polygon fill="white" stroke="transparent" points="-4,4 -4,-1025.33 1223.57,-1025.33 1223.57,4 -4,4"/>
<!-- BB0 -->
<g id="node1" class="node">
<title>BB0</title>
<ellipse fill="none" stroke="black" cx="600.33" cy="-973.25" rx="103.48" ry="48.17"/>
<text text-anchor="middle" x="600.33" y="-992.05" font-family="Times New Roman,serif" font-size="14.00">[0..6)</text>
<text text-anchor="middle" x="600.33" y="-977.05" font-family="Times New Roman,serif" font-size="14.00">Count: 1</text>
<text text-anchor="middle" x="600.33" y="-962.05" font-family="Times New Roman,serif" font-size="14.00">Normalized count: 1.00</text>
<text text-anchor="middle" x="600.33" y="-947.05" font-family="Times New Roman,serif" font-size="14.00">Samples weight: 0.00</text>
</g>
<!-- BB9 -->
<g id="node10" class="node">
<title>BB9</title>
<ellipse fill="none" stroke="black" cx="600.33" cy="-841.08" rx="113.27" ry="48.17"/>
<text text-anchor="middle" x="600.33" y="-859.88" font-family="Times New Roman,serif" font-size="14.00">[4d..51)</text>
<text text-anchor="middle" x="600.33" y="-844.88" font-family="Times New Roman,serif" font-size="14.00">Count: 239</text>
<text text-anchor="middle" x="600.33" y="-829.88" font-family="Times New Roman,serif" font-size="14.00">Normalized count: 239.00</text>
<text text-anchor="middle" x="600.33" y="-814.88" font-family="Times New Roman,serif" font-size="14.00">Samples weight: 0.00</text>
</g>
<!-- BB0&#45;&gt;BB9 -->
<g id="edge1" class="edge">
<title>BB0&#45;&gt;BB9</title>
<path fill="none" stroke="black" d="M600.33,-924.89C600.33,-916.62 600.33,-907.94 600.33,-899.43"/>
<polygon fill="black" stroke="black" points="603.83,-899.19 600.33,-889.19 596.83,-899.19 603.83,-899.19"/>
</g>
<!-- BB1 -->
<g id="node2" class="node">
<title>BB1</title>
<ellipse fill="none" stroke="black" cx="433.33" cy="-708.92" rx="113.27" ry="48.17"/>
<text text-anchor="middle" x="433.33" y="-727.72" font-family="Times New Roman,serif" font-size="14.00">[6..19)</text>
<text text-anchor="middle" x="433.33" y="-712.72" font-family="Times New Roman,serif" font-size="14.00">Count: 236</text>
<text text-anchor="middle" x="433.33" y="-697.72" font-family="Times New Roman,serif" font-size="14.00">Normalized count: 236.00</text>
<text text-anchor="middle" x="433.33" y="-682.72" font-family="Times New Roman,serif" font-size="14.00">Samples weight: 0.00</text>
</g>
<!-- BB2 -->
<g id="node3" class="node">
<title>BB2</title>
<ellipse fill="none" stroke="black" cx="148.33" cy="-576.75" rx="113.27" ry="48.17"/>
<text text-anchor="middle" x="148.33" y="-595.55" font-family="Times New Roman,serif" font-size="14.00">[19..1d)</text>
<text text-anchor="middle" x="148.33" y="-580.55" font-family="Times New Roman,serif" font-size="14.00">Count: 236</text>
<text text-anchor="middle" x="148.33" y="-565.55" font-family="Times New Roman,serif" font-size="14.00">Normalized count: 236.00</text>
<text text-anchor="middle" x="148.33" y="-550.55" font-family="Times New Roman,serif" font-size="14.00">Samples weight: 0.00</text>
</g>
<!-- BB1&#45;&gt;BB2 -->
<g id="edge3" class="edge">
<title>BB1&#45;&gt;BB2</title>
<path fill="none" stroke="black" d="M357.33,-673.2C319.32,-655.84 273.17,-634.77 233.91,-616.84"/>
<polygon fill="black" stroke="black" points="235.16,-613.56 224.61,-612.59 232.25,-619.93 235.16,-613.56"/>
</g>
<!-- BB6 -->
<g id="node7" class="node">
<title>BB6</title>
<ellipse fill="none" stroke="black" cx="433.33" cy="-576.75" rx="103.48" ry="48.17"/>
<text text-anchor="middle" x="433.33" y="-595.55" font-family="Times New Roman,serif" font-size="14.00">[35..42)</text>
<text text-anchor="middle" x="433.33" y="-580.55" font-family="Times New Roman,serif" font-size="14.00">Count: 0</text>
<text text-anchor="middle" x="433.33" y="-565.55" font-family="Times New Roman,serif" font-size="14.00">Normalized count: 0.00</text>
<text text-anchor="middle" x="433.33" y="-550.55" font-family="Times New Roman,serif" font-size="14.00">Samples weight: 0.00</text>
</g>
<!-- BB1&#45;&gt;BB6 -->
<g id="edge2" class="edge">
<title>BB1&#45;&gt;BB6</title>
<path fill="none" stroke="black" d="M433.33,-660.55C433.33,-652.29 433.33,-643.6 433.33,-635.1"/>
<polygon fill="black" stroke="black" points="436.83,-634.86 433.33,-624.86 429.83,-634.86 436.83,-634.86"/>
</g>
<!-- BB4 -->
<g id="node5" class="node">
<title>BB4</title>
<ellipse fill="none" stroke="black" cx="122.33" cy="-444.58" rx="122.16" ry="48.17"/>
<text text-anchor="middle" x="122.33" y="-463.38" font-family="Times New Roman,serif" font-size="14.00">[2f..33)</text>
<text text-anchor="middle" x="122.33" y="-448.38" font-family="Times New Roman,serif" font-size="14.00">Count: 11938</text>
<text text-anchor="middle" x="122.33" y="-433.38" font-family="Times New Roman,serif" font-size="14.00">Normalized count: 11938.00</text>
<text text-anchor="middle" x="122.33" y="-418.38" font-family="Times New Roman,serif" font-size="14.00">Samples weight: 0.24</text>
</g>
<!-- BB2&#45;&gt;BB4 -->
<g id="edge4" class="edge">
<title>BB2&#45;&gt;BB4</title>
<path fill="none" stroke="black" d="M138.94,-528.76C137.27,-520.38 135.51,-511.57 133.79,-502.95"/>
<polygon fill="black" stroke="black" points="137.18,-502.06 131.79,-492.94 130.32,-503.44 137.18,-502.06"/>
</g>
<!-- BB3 -->
<g id="node4" class="node">
<title>BB3</title>
<ellipse fill="none" stroke="black" cx="122.33" cy="-312.42" rx="122.16" ry="48.17"/>
<text text-anchor="middle" x="122.33" y="-331.22" font-family="Times New Roman,serif" font-size="14.00">[1d..2f)</text>
<text text-anchor="middle" x="122.33" y="-316.22" font-family="Times New Roman,serif" font-size="14.00">Count: 11684</text>
<text text-anchor="middle" x="122.33" y="-301.22" font-family="Times New Roman,serif" font-size="14.00">Normalized count: 11684.00</text>
<text text-anchor="middle" x="122.33" y="-286.22" font-family="Times New Roman,serif" font-size="14.00">Samples weight: 0.24</text>
</g>
<!-- BB3&#45;&gt;BB4 -->
<g id="edge5" class="edge">
<title>BB3&#45;&gt;BB4</title>
<path fill="none" stroke="black" d="M128.85,-360.52C129.07,-368.78 129.13,-377.46 129.04,-385.97"/>
<polygon fill="black" stroke="black" points="125.54,-386.16 128.85,-396.22 132.53,-386.29 125.54,-386.16"/>
</g>
<!-- BB4&#45;&gt;BB3 -->
<g id="edge6" class="edge">
<title>BB4&#45;&gt;BB3</title>
<path fill="none" stroke="black" d="M115.81,-396.22C115.59,-387.95 115.53,-379.27 115.62,-370.77"/>
<polygon fill="black" stroke="black" points="119.13,-370.59 115.81,-360.52 112.13,-370.46 119.13,-370.59"/>
</g>
<!-- BB5 -->
<g id="node6" class="node">
<title>BB5</title>
<ellipse fill="none" stroke="black" cx="437.33" cy="-312.42" rx="103.48" ry="48.17"/>
<text text-anchor="middle" x="437.33" y="-331.22" font-family="Times New Roman,serif" font-size="14.00">[33..35)</text>
<text text-anchor="middle" x="437.33" y="-316.22" font-family="Times New Roman,serif" font-size="14.00">Count: 0</text>
<text text-anchor="middle" x="437.33" y="-301.22" font-family="Times New Roman,serif" font-size="14.00">Normalized count: 0.00</text>
<text text-anchor="middle" x="437.33" y="-286.22" font-family="Times New Roman,serif" font-size="14.00">Samples weight: 0.00</text>
</g>
<!-- BB4&#45;&gt;BB5 -->
<g id="edge7" class="edge">
<title>BB4&#45;&gt;BB5</title>
<path fill="none" stroke="black" d="M205.5,-409.21C250.61,-390.57 306.27,-367.58 351.74,-348.78"/>
<polygon fill="black" stroke="black" points="353.08,-352.02 360.99,-344.96 350.41,-345.55 353.08,-352.02"/>
</g>
<!-- BB8 -->
<g id="node9" class="node">
<title>BB8</title>
<ellipse fill="none" stroke="black" cx="600.33" cy="-444.58" rx="113.27" ry="48.17"/>
<text text-anchor="middle" x="600.33" y="-463.38" font-family="Times New Roman,serif" font-size="14.00">[44..4d)</text>
<text text-anchor="middle" x="600.33" y="-448.38" font-family="Times New Roman,serif" font-size="14.00">Count: 238</text>
<text text-anchor="middle" x="600.33" y="-433.38" font-family="Times New Roman,serif" font-size="14.00">Normalized count: 238.00</text>
<text text-anchor="middle" x="600.33" y="-418.38" font-family="Times New Roman,serif" font-size="14.00">Samples weight: 0.00</text>
</g>
<!-- BB5&#45;&gt;BB8 -->
<g id="edge8" class="edge">
<title>BB5&#45;&gt;BB8</title>
<path fill="none" stroke="black" d="M488.59,-354.35C504.81,-367.31 522.9,-381.75 539.72,-395.18"/>
<polygon fill="black" stroke="black" points="537.86,-398.18 547.86,-401.68 542.23,-392.71 537.86,-398.18"/>
</g>
<!-- BB7 -->
<g id="node8" class="node">
<title>BB7</title>
<ellipse fill="none" stroke="black" cx="366.33" cy="-444.58" rx="103.48" ry="48.17"/>
<text text-anchor="middle" x="366.33" y="-463.38" font-family="Times New Roman,serif" font-size="14.00">[42..44)</text>
<text text-anchor="middle" x="366.33" y="-448.38" font-family="Times New Roman,serif" font-size="14.00">Count: 0</text>
<text text-anchor="middle" x="366.33" y="-433.38" font-family="Times New Roman,serif" font-size="14.00">Normalized count: 0.00</text>
<text text-anchor="middle" x="366.33" y="-418.38" font-family="Times New Roman,serif" font-size="14.00">Samples weight: 0.00</text>
</g>
<!-- BB6&#45;&gt;BB7 -->
<g id="edge10" class="edge">
<title>BB6&#45;&gt;BB7</title>
<path fill="none" stroke="black" d="M409.71,-529.86C404.8,-520.33 399.59,-510.2 394.54,-500.39"/>
<polygon fill="black" stroke="black" points="397.65,-498.79 389.96,-491.5 391.43,-501.99 397.65,-498.79"/>
</g>
<!-- BB6&#45;&gt;BB8 -->
<g id="edge9" class="edge">
<title>BB6&#45;&gt;BB8</title>
<path fill="none" stroke="black" d="M485.71,-534.92C502.63,-521.73 521.55,-506.99 539.05,-493.35"/>
<polygon fill="black" stroke="black" points="541.25,-496.07 546.98,-487.16 536.94,-490.55 541.25,-496.07"/>
</g>
<!-- BB7&#45;&gt;BB8 -->
<g id="edge11" class="edge">
<title>BB7&#45;&gt;BB8</title>
<path fill="none" stroke="black" d="M469.62,-444.58C472.06,-444.58 474.5,-444.58 476.94,-444.58"/>
<polygon fill="black" stroke="black" points="476.98,-448.08 486.98,-444.58 476.98,-441.08 476.98,-448.08"/>
</g>
<!-- BB8&#45;&gt;BB9 -->
<g id="edge12" class="edge">
<title>BB8&#45;&gt;BB9</title>
<path fill="none" stroke="black" d="M600.33,-492.83C600.33,-565.48 600.33,-704.4 600.33,-782.72"/>
<polygon fill="black" stroke="black" points="596.83,-782.89 600.33,-792.89 603.83,-782.89 596.83,-782.89"/>
</g>
<!-- BB9&#45;&gt;BB1 -->
<g id="edge13" class="edge">
<title>BB9&#45;&gt;BB1</title>
<path fill="none" stroke="black" d="M547.03,-798.54C530.46,-785.62 512.06,-771.28 494.97,-757.96"/>
<polygon fill="black" stroke="black" points="496.73,-754.9 486.69,-751.51 492.43,-760.42 496.73,-754.9"/>
</g>
<!-- BB10 -->
<g id="node11" class="node">
<title>BB10</title>
<ellipse fill="none" stroke="black" cx="771.33" cy="-708.92" rx="103.48" ry="48.17"/>
<text text-anchor="middle" x="771.33" y="-727.72" font-family="Times New Roman,serif" font-size="14.00">[51..57)</text>
<text text-anchor="middle" x="771.33" y="-712.72" font-family="Times New Roman,serif" font-size="14.00">Count: 2</text>
<text text-anchor="middle" x="771.33" y="-697.72" font-family="Times New Roman,serif" font-size="14.00">Normalized count: 2.00</text>
<text text-anchor="middle" x="771.33" y="-682.72" font-family="Times New Roman,serif" font-size="14.00">Samples weight: 0.00</text>
</g>
<!-- BB9&#45;&gt;BB10 -->
<g id="edge14" class="edge">
<title>BB9&#45;&gt;BB10</title>
<path fill="none" stroke="black" d="M654.91,-798.54C672.45,-785.18 692,-770.3 710,-756.6"/>
<polygon fill="black" stroke="black" points="712.31,-759.24 718.15,-750.4 708.07,-753.67 712.31,-759.24"/>
</g>
<!-- BB16 -->
<g id="node17" class="node">
<title>BB16</title>
<ellipse fill="none" stroke="black" cx="811.33" cy="-576.75" rx="113.27" ry="48.17"/>
<text text-anchor="middle" x="811.33" y="-595.55" font-family="Times New Roman,serif" font-size="14.00">[8d..91)</text>
<text text-anchor="middle" x="811.33" y="-580.55" font-family="Times New Roman,serif" font-size="14.00">Count: 210</text>
<text text-anchor="middle" x="811.33" y="-565.55" font-family="Times New Roman,serif" font-size="14.00">Normalized count: 210.00</text>
<text text-anchor="middle" x="811.33" y="-550.55" font-family="Times New Roman,serif" font-size="14.00">Samples weight: 0.00</text>
</g>
<!-- BB10&#45;&gt;BB16 -->
<g id="edge15" class="edge">
<title>BB10&#45;&gt;BB16</title>
<path fill="none" stroke="black" d="M785.66,-661.29C788.36,-652.5 791.21,-643.23 793.99,-634.18"/>
<polygon fill="black" stroke="black" points="797.38,-635.07 796.97,-624.49 790.68,-633.02 797.38,-635.07"/>
</g>
<!-- BB11 -->
<g id="node12" class="node">
<title>BB11</title>
<ellipse fill="none" stroke="black" cx="882.33" cy="-444.58" rx="113.27" ry="48.17"/>
<text text-anchor="middle" x="882.33" y="-463.38" font-family="Times New Roman,serif" font-size="14.00">[57..62)</text>
<text text-anchor="middle" x="882.33" y="-448.38" font-family="Times New Roman,serif" font-size="14.00">Count: 224</text>
<text text-anchor="middle" x="882.33" y="-433.38" font-family="Times New Roman,serif" font-size="14.00">Normalized count: 224.00</text>
<text text-anchor="middle" x="882.33" y="-418.38" font-family="Times New Roman,serif" font-size="14.00">Samples weight: 0.00</text>
</g>
<!-- BB12 -->
<g id="node13" class="node">
<title>BB12</title>
<ellipse fill="none" stroke="black" cx="985.33" cy="-312.42" rx="113.27" ry="48.17"/>
<text text-anchor="middle" x="985.33" y="-331.22" font-family="Times New Roman,serif" font-size="14.00">[62..68)</text>
<text text-anchor="middle" x="985.33" y="-316.22" font-family="Times New Roman,serif" font-size="14.00">Count: 222</text>
<text text-anchor="middle" x="985.33" y="-301.22" font-family="Times New Roman,serif" font-size="14.00">Normalized count: 222.00</text>
<text text-anchor="middle" x="985.33" y="-286.22" font-family="Times New Roman,serif" font-size="14.00">Samples weight: 0.00</text>
</g>
<!-- BB11&#45;&gt;BB12 -->
<g id="edge17" class="edge">
<title>BB11&#45;&gt;BB12</title>
<path fill="none" stroke="black" d="M917.78,-398.79C926.03,-388.36 934.9,-377.15 943.4,-366.4"/>
<polygon fill="black" stroke="black" points="946.36,-368.31 949.82,-358.29 940.87,-363.96 946.36,-368.31"/>
</g>
<!-- BB15 -->
<g id="node16" class="node">
<title>BB15</title>
<ellipse fill="none" stroke="black" cx="741.33" cy="-312.42" rx="113.27" ry="48.17"/>
<text text-anchor="middle" x="741.33" y="-331.22" font-family="Times New Roman,serif" font-size="14.00">[7e..8d)</text>
<text text-anchor="middle" x="741.33" y="-316.22" font-family="Times New Roman,serif" font-size="14.00">Count: 208</text>
<text text-anchor="middle" x="741.33" y="-301.22" font-family="Times New Roman,serif" font-size="14.00">Normalized count: 208.00</text>
<text text-anchor="middle" x="741.33" y="-286.22" font-family="Times New Roman,serif" font-size="14.00">Samples weight: 0.00</text>
</g>
<!-- BB11&#45;&gt;BB15 -->
<g id="edge16" class="edge">
<title>BB11&#45;&gt;BB15</title>
<path fill="none" stroke="black" d="M835.77,-400.6C822.9,-388.72 808.81,-375.71 795.54,-363.46"/>
<polygon fill="black" stroke="black" points="797.56,-360.56 787.84,-356.35 792.81,-365.71 797.56,-360.56"/>
</g>
<!-- BB14 -->
<g id="node15" class="node">
<title>BB14</title>
<ellipse fill="none" stroke="black" cx="863.33" cy="-180.25" rx="122.16" ry="48.17"/>
<text text-anchor="middle" x="863.33" y="-199.05" font-family="Times New Roman,serif" font-size="14.00">[7a..7e)</text>
<text text-anchor="middle" x="863.33" y="-184.05" font-family="Times New Roman,serif" font-size="14.00">Count: 11928</text>
<text text-anchor="middle" x="863.33" y="-169.05" font-family="Times New Roman,serif" font-size="14.00">Normalized count: 11928.00</text>
<text text-anchor="middle" x="863.33" y="-154.05" font-family="Times New Roman,serif" font-size="14.00">Samples weight: 0.24</text>
</g>
<!-- BB12&#45;&gt;BB14 -->
<g id="edge18" class="edge">
<title>BB12&#45;&gt;BB14</title>
<path fill="none" stroke="black" d="M944.03,-267.35C933.71,-256.34 922.54,-244.43 911.91,-233.08"/>
<polygon fill="black" stroke="black" points="914.4,-230.62 905.01,-225.72 909.29,-235.41 914.4,-230.62"/>
</g>
<!-- BB13 -->
<g id="node14" class="node">
<title>BB13</title>
<ellipse fill="none" stroke="black" cx="863.33" cy="-48.08" rx="122.16" ry="48.17"/>
<text text-anchor="middle" x="863.33" y="-66.88" font-family="Times New Roman,serif" font-size="14.00">[68..7a)</text>
<text text-anchor="middle" x="863.33" y="-51.88" font-family="Times New Roman,serif" font-size="14.00">Count: 11690</text>
<text text-anchor="middle" x="863.33" y="-36.88" font-family="Times New Roman,serif" font-size="14.00">Normalized count: 11690.00</text>
<text text-anchor="middle" x="863.33" y="-21.88" font-family="Times New Roman,serif" font-size="14.00">Samples weight: 0.24</text>
</g>
<!-- BB13&#45;&gt;BB14 -->
<g id="edge19" class="edge">
<title>BB13&#45;&gt;BB14</title>
<path fill="none" stroke="black" d="M869.85,-96.19C870.07,-104.45 870.13,-113.13 870.04,-121.64"/>
<polygon fill="black" stroke="black" points="866.54,-121.83 869.85,-131.89 873.53,-121.95 866.54,-121.83"/>
</g>
<!-- BB14&#45;&gt;BB13 -->
<g id="edge20" class="edge">
<title>BB14&#45;&gt;BB13</title>
<path fill="none" stroke="black" d="M856.81,-131.89C856.59,-123.62 856.53,-114.94 856.62,-106.43"/>
<polygon fill="black" stroke="black" points="860.13,-106.26 856.81,-96.19 853.13,-106.12 860.13,-106.26"/>
</g>
<!-- BB14&#45;&gt;BB15 -->
<g id="edge21" class="edge">
<title>BB14&#45;&gt;BB15</title>
<path fill="none" stroke="black" d="M821.65,-225.72C811.31,-236.75 800.15,-248.66 789.52,-260"/>
<polygon fill="black" stroke="black" points="786.92,-257.66 782.63,-267.35 792.03,-262.45 786.92,-257.66"/>
</g>
<!-- BB15&#45;&gt;BB16 -->
<g id="edge22" class="edge">
<title>BB15&#45;&gt;BB16</title>
<path fill="none" stroke="black" d="M740.69,-360.68C741.53,-397.55 745.66,-449.56 760.33,-492.67 763.68,-502.5 768.35,-512.4 773.52,-521.76"/>
<polygon fill="black" stroke="black" points="770.57,-523.65 778.61,-530.55 776.63,-520.14 770.57,-523.65"/>
</g>
<!-- BB16&#45;&gt;BB11 -->
<g id="edge23" class="edge">
<title>BB16&#45;&gt;BB11</title>
<path fill="none" stroke="black" d="M836.36,-529.86C841.56,-520.33 847.08,-510.2 852.43,-500.39"/>
<polygon fill="black" stroke="black" points="855.57,-501.95 857.28,-491.5 849.42,-498.6 855.57,-501.95"/>
</g>
<!-- BB17 -->
<g id="node18" class="node">
<title>BB17</title>
<ellipse fill="none" stroke="black" cx="1116.33" cy="-444.58" rx="103.48" ry="48.17"/>
<text text-anchor="middle" x="1116.33" y="-463.38" font-family="Times New Roman,serif" font-size="14.00">[91..92)</text>
<text text-anchor="middle" x="1116.33" y="-448.38" font-family="Times New Roman,serif" font-size="14.00">Count: 1</text>
<text text-anchor="middle" x="1116.33" y="-433.38" font-family="Times New Roman,serif" font-size="14.00">Normalized count: 1.00</text>
<text text-anchor="middle" x="1116.33" y="-418.38" font-family="Times New Roman,serif" font-size="14.00">Samples weight: 0.00</text>
</g>
<!-- BB16&#45;&gt;BB17 -->
<g id="edge24" class="edge">
<title>BB16&#45;&gt;BB17</title>
<path fill="none" stroke="black" d="M890.27,-542.06C933.69,-523.53 987.57,-500.53 1031.84,-481.64"/>
<polygon fill="black" stroke="black" points="1033.31,-484.82 1041.13,-477.67 1030.56,-478.38 1033.31,-484.82"/>
</g>
</g>
</svg>
