<?xml version="1.0" encoding="UTF-8" standalone="no"?>
<!DOCTYPE svg PUBLIC "-//W3C//DTD SVG 1.1//EN"
 "http://www.w3.org/Graphics/SVG/1.1/DTD/svg11.dtd">
<!-- Generated by graphviz version 2.47.0 (20210316.0004)
 -->
<!-- Title: G Pages: 1 -->
<svg width="2830pt" height="1690pt"
 viewBox="0.00 0.00 2829.69 1690.16" xmlns="http://www.w3.org/2000/svg" xmlns:xlink="http://www.w3.org/1999/xlink">
<g id="graph0" class="graph" transform="scale(1 1) rotate(0) translate(4 1686.16)">
<title>G</title>
<polygon fill="white" stroke="transparent" points="-4,4 -4,-1686.16 2825.69,-1686.16 2825.69,4 -4,4"/>
<!-- BB0 -->
<g id="node1" class="node">
<title>BB0</title>
<ellipse fill="none" stroke="black" cx="611.84" cy="-1634.08" rx="104.8" ry="48.17"/>
<text text-anchor="middle" x="611.84" y="-1652.88" font-family="Times New Roman,serif" font-size="14.00">[0..15)</text>
<text text-anchor="middle" x="611.84" y="-1637.88" font-family="Times New Roman,serif" font-size="14.00">Count: 0</text>
<text text-anchor="middle" x="611.84" y="-1622.88" font-family="Times New Roman,serif" font-size="14.00">Normalized count: NaN</text>
<text text-anchor="middle" x="611.84" y="-1607.88" font-family="Times New Roman,serif" font-size="14.00">Samples weight: 0.00</text>
</g>
<!-- BB9 -->
<g id="node10" class="node">
<title>BB9</title>
<ellipse fill="none" stroke="black" cx="611.84" cy="-1501.92" rx="104.8" ry="48.17"/>
<text text-anchor="middle" x="611.84" y="-1520.72" font-family="Times New Roman,serif" font-size="14.00">[6d..71)</text>
<text text-anchor="middle" x="611.84" y="-1505.72" font-family="Times New Roman,serif" font-size="14.00">Count: 0</text>
<text text-anchor="middle" x="611.84" y="-1490.72" font-family="Times New Roman,serif" font-size="14.00">Normalized count: NaN</text>
<text text-anchor="middle" x="611.84" y="-1475.72" font-family="Times New Roman,serif" font-size="14.00">Samples weight: 0.00</text>
</g>
<!-- BB0&#45;&gt;BB9 -->
<g id="edge1" class="edge">
<title>BB0&#45;&gt;BB9</title>
<path fill="none" stroke="black" d="M611.84,-1585.72C611.84,-1577.45 611.84,-1568.77 611.84,-1560.27"/>
<polygon fill="black" stroke="black" points="615.34,-1560.02 611.84,-1550.02 608.34,-1560.02 615.34,-1560.02"/>
</g>
<!-- BB1 -->
<g id="node2" class="node">
<title>BB1</title>
<ellipse fill="none" stroke="black" cx="611.84" cy="-1369.75" rx="104.8" ry="48.17"/>
<text text-anchor="middle" x="611.84" y="-1388.55" font-family="Times New Roman,serif" font-size="14.00">[15..24)</text>
<text text-anchor="middle" x="611.84" y="-1373.55" font-family="Times New Roman,serif" font-size="14.00">Count: 0</text>
<text text-anchor="middle" x="611.84" y="-1358.55" font-family="Times New Roman,serif" font-size="14.00">Normalized count: NaN</text>
<text text-anchor="middle" x="611.84" y="-1343.55" font-family="Times New Roman,serif" font-size="14.00">Samples weight: 0.00</text>
</g>
<!-- BB5 -->
<g id="node6" class="node">
<title>BB5</title>
<ellipse fill="none" stroke="black" cx="611.84" cy="-1237.58" rx="113.69" ry="48.17"/>
<text text-anchor="middle" x="611.84" y="-1256.38" font-family="Times New Roman,serif" font-size="14.00">[44..49)</text>
<text text-anchor="middle" x="611.84" y="-1241.38" font-family="Times New Roman,serif" font-size="14.00">Count: 7</text>
<text text-anchor="middle" x="611.84" y="-1226.38" font-family="Times New Roman,serif" font-size="14.00">Normalized count: Infinity</text>
<text text-anchor="middle" x="611.84" y="-1211.38" font-family="Times New Roman,serif" font-size="14.00">Samples weight: 0.00</text>
</g>
<!-- BB1&#45;&gt;BB5 -->
<g id="edge2" class="edge">
<title>BB1&#45;&gt;BB5</title>
<path fill="none" stroke="black" d="M611.84,-1321.39C611.84,-1313.12 611.84,-1304.44 611.84,-1295.93"/>
<polygon fill="black" stroke="black" points="615.34,-1295.69 611.84,-1285.69 608.34,-1295.69 615.34,-1295.69"/>
</g>
<!-- BB2 -->
<g id="node3" class="node">
<title>BB2</title>
<ellipse fill="none" stroke="black" cx="611.84" cy="-1105.42" rx="113.69" ry="48.17"/>
<text text-anchor="middle" x="611.84" y="-1124.22" font-family="Times New Roman,serif" font-size="14.00">[24..32)</text>
<text text-anchor="middle" x="611.84" y="-1109.22" font-family="Times New Roman,serif" font-size="14.00">Count: 43</text>
<text text-anchor="middle" x="611.84" y="-1094.22" font-family="Times New Roman,serif" font-size="14.00">Normalized count: Infinity</text>
<text text-anchor="middle" x="611.84" y="-1079.22" font-family="Times New Roman,serif" font-size="14.00">Samples weight: 0.01</text>
</g>
<!-- BB3 -->
<g id="node4" class="node">
<title>BB3</title>
<ellipse fill="none" stroke="black" cx="585.84" cy="-973.25" rx="113.69" ry="48.17"/>
<text text-anchor="middle" x="585.84" y="-992.05" font-family="Times New Roman,serif" font-size="14.00">[32..3e)</text>
<text text-anchor="middle" x="585.84" y="-977.05" font-family="Times New Roman,serif" font-size="14.00">Count: 18</text>
<text text-anchor="middle" x="585.84" y="-962.05" font-family="Times New Roman,serif" font-size="14.00">Normalized count: Infinity</text>
<text text-anchor="middle" x="585.84" y="-947.05" font-family="Times New Roman,serif" font-size="14.00">Samples weight: 0.01</text>
</g>
<!-- BB2&#45;&gt;BB3 -->
<g id="edge4" class="edge">
<title>BB2&#45;&gt;BB3</title>
<path fill="none" stroke="black" d="M602.46,-1057.42C600.75,-1048.85 598.94,-1039.82 597.18,-1031.01"/>
<polygon fill="black" stroke="black" points="600.61,-1030.29 595.22,-1021.17 593.74,-1031.66 600.61,-1030.29"/>
</g>
<!-- BB4 -->
<g id="node5" class="node">
<title>BB4</title>
<ellipse fill="none" stroke="black" cx="831.84" cy="-973.25" rx="113.69" ry="48.17"/>
<text text-anchor="middle" x="831.84" y="-992.05" font-family="Times New Roman,serif" font-size="14.00">[3e..44)</text>
<text text-anchor="middle" x="831.84" y="-977.05" font-family="Times New Roman,serif" font-size="14.00">Count: 1</text>
<text text-anchor="middle" x="831.84" y="-962.05" font-family="Times New Roman,serif" font-size="14.00">Normalized count: Infinity</text>
<text text-anchor="middle" x="831.84" y="-947.05" font-family="Times New Roman,serif" font-size="14.00">Samples weight: 0.00</text>
</g>
<!-- BB2&#45;&gt;BB4 -->
<g id="edge3" class="edge">
<title>BB2&#45;&gt;BB4</title>
<path fill="none" stroke="black" d="M676.96,-1065.89C702.34,-1050.87 731.58,-1033.57 757.76,-1018.08"/>
<polygon fill="black" stroke="black" points="759.69,-1021.01 766.52,-1012.9 756.13,-1014.98 759.69,-1021.01"/>
</g>
<!-- BB3&#45;&gt;BB4 -->
<g id="edge5" class="edge">
<title>BB3&#45;&gt;BB4</title>
<path fill="none" stroke="black" d="M699.72,-973.25C702.35,-973.25 704.98,-973.25 707.62,-973.25"/>
<polygon fill="black" stroke="black" points="707.78,-976.75 717.78,-973.25 707.78,-969.75 707.78,-976.75"/>
</g>
<!-- BB4&#45;&gt;BB5 -->
<g id="edge6" class="edge">
<title>BB4&#45;&gt;BB5</title>
<path fill="none" stroke="black" d="M814.06,-1020.77C797.67,-1059.39 770.49,-1114.17 734.84,-1153.5 721.51,-1168.21 705.05,-1181.6 688.57,-1193.12"/>
<polygon fill="black" stroke="black" points="686.26,-1190.45 679.96,-1198.97 690.2,-1196.24 686.26,-1190.45"/>
</g>
<!-- BB5&#45;&gt;BB2 -->
<g id="edge7" class="edge">
<title>BB5&#45;&gt;BB2</title>
<path fill="none" stroke="black" d="M611.84,-1189.22C611.84,-1180.95 611.84,-1172.27 611.84,-1163.77"/>
<polygon fill="black" stroke="black" points="615.34,-1163.52 611.84,-1153.52 608.34,-1163.52 615.34,-1163.52"/>
</g>
<!-- BB6 -->
<g id="node7" class="node">
<title>BB6</title>
<ellipse fill="none" stroke="black" cx="349.84" cy="-1105.42" rx="104.8" ry="48.17"/>
<text text-anchor="middle" x="349.84" y="-1124.22" font-family="Times New Roman,serif" font-size="14.00">[49..55)</text>
<text text-anchor="middle" x="349.84" y="-1109.22" font-family="Times New Roman,serif" font-size="14.00">Count: 0</text>
<text text-anchor="middle" x="349.84" y="-1094.22" font-family="Times New Roman,serif" font-size="14.00">Normalized count: NaN</text>
<text text-anchor="middle" x="349.84" y="-1079.22" font-family="Times New Roman,serif" font-size="14.00">Samples weight: 0.00</text>
</g>
<!-- BB5&#45;&gt;BB6 -->
<g id="edge8" class="edge">
<title>BB5&#45;&gt;BB6</title>
<path fill="none" stroke="black" d="M539.21,-1200.5C505.01,-1183.51 464.14,-1163.2 429.14,-1145.81"/>
<polygon fill="black" stroke="black" points="430.42,-1142.54 419.91,-1141.22 427.3,-1148.81 430.42,-1142.54"/>
</g>
<!-- BB7 -->
<g id="node8" class="node">
<title>BB7</title>
<ellipse fill="none" stroke="black" cx="349.84" cy="-973.25" rx="104.8" ry="48.17"/>
<text text-anchor="middle" x="349.84" y="-992.05" font-family="Times New Roman,serif" font-size="14.00">[55..57)</text>
<text text-anchor="middle" x="349.84" y="-977.05" font-family="Times New Roman,serif" font-size="14.00">Count: 0</text>
<text text-anchor="middle" x="349.84" y="-962.05" font-family="Times New Roman,serif" font-size="14.00">Normalized count: NaN</text>
<text text-anchor="middle" x="349.84" y="-947.05" font-family="Times New Roman,serif" font-size="14.00">Samples weight: 0.00</text>
</g>
<!-- BB6&#45;&gt;BB7 -->
<g id="edge10" class="edge">
<title>BB6&#45;&gt;BB7</title>
<path fill="none" stroke="black" d="M349.84,-1057.05C349.84,-1048.79 349.84,-1040.1 349.84,-1031.6"/>
<polygon fill="black" stroke="black" points="353.34,-1031.36 349.84,-1021.36 346.34,-1031.36 353.34,-1031.36"/>
</g>
<!-- BB8 -->
<g id="node9" class="node">
<title>BB8</title>
<ellipse fill="none" stroke="black" cx="113.84" cy="-973.25" rx="113.69" ry="48.17"/>
<text text-anchor="middle" x="113.84" y="-992.05" font-family="Times New Roman,serif" font-size="14.00">[57..6d)</text>
<text text-anchor="middle" x="113.84" y="-977.05" font-family="Times New Roman,serif" font-size="14.00">Count: 1</text>
<text text-anchor="middle" x="113.84" y="-962.05" font-family="Times New Roman,serif" font-size="14.00">Normalized count: Infinity</text>
<text text-anchor="middle" x="113.84" y="-947.05" font-family="Times New Roman,serif" font-size="14.00">Samples weight: 0.00</text>
</g>
<!-- BB6&#45;&gt;BB8 -->
<g id="edge9" class="edge">
<title>BB6&#45;&gt;BB8</title>
<path fill="none" stroke="black" d="M283.79,-1067.98C254.87,-1052.03 220.76,-1033.22 190.71,-1016.64"/>
<polygon fill="black" stroke="black" points="192.38,-1013.57 181.94,-1011.8 189,-1019.7 192.38,-1013.57"/>
</g>
<!-- BB8&#45;&gt;BB9 -->
<g id="edge11" class="edge">
<title>BB8&#45;&gt;BB9</title>
<path fill="none" stroke="black" d="M141.75,-1020.08C165.17,-1057.31 200.41,-1110.5 235.84,-1153.5 341.04,-1281.15 372.38,-1310.03 497.84,-1417.83 512.87,-1430.74 529.79,-1443.79 545.89,-1455.6"/>
<polygon fill="black" stroke="black" points="544.08,-1458.61 554.23,-1461.66 548.19,-1452.95 544.08,-1458.61"/>
</g>
<!-- BB9&#45;&gt;BB1 -->
<g id="edge12" class="edge">
<title>BB9&#45;&gt;BB1</title>
<path fill="none" stroke="black" d="M611.84,-1453.55C611.84,-1445.29 611.84,-1436.6 611.84,-1428.1"/>
<polygon fill="black" stroke="black" points="615.34,-1427.86 611.84,-1417.86 608.34,-1427.86 615.34,-1427.86"/>
</g>
<!-- BB10 -->
<g id="node11" class="node">
<title>BB10</title>
<ellipse fill="none" stroke="black" cx="866.84" cy="-1369.75" rx="104.8" ry="48.17"/>
<text text-anchor="middle" x="866.84" y="-1388.55" font-family="Times New Roman,serif" font-size="14.00">[71..79)</text>
<text text-anchor="middle" x="866.84" y="-1373.55" font-family="Times New Roman,serif" font-size="14.00">Count: 0</text>
<text text-anchor="middle" x="866.84" y="-1358.55" font-family="Times New Roman,serif" font-size="14.00">Normalized count: NaN</text>
<text text-anchor="middle" x="866.84" y="-1343.55" font-family="Times New Roman,serif" font-size="14.00">Samples weight: 0.00</text>
</g>
<!-- BB9&#45;&gt;BB10 -->
<g id="edge13" class="edge">
<title>BB9&#45;&gt;BB10</title>
<path fill="none" stroke="black" d="M680.85,-1465.69C714.16,-1448.69 754.27,-1428.21 788.7,-1410.64"/>
<polygon fill="black" stroke="black" points="790.47,-1413.67 797.78,-1406 787.28,-1407.43 790.47,-1413.67"/>
</g>
<!-- BB40 -->
<g id="node41" class="node">
<title>BB40</title>
<ellipse fill="none" stroke="black" cx="1039.84" cy="-1237.58" rx="104.8" ry="48.17"/>
<text text-anchor="middle" x="1039.84" y="-1256.38" font-family="Times New Roman,serif" font-size="14.00">[1d7..1df)</text>
<text text-anchor="middle" x="1039.84" y="-1241.38" font-family="Times New Roman,serif" font-size="14.00">Count: 0</text>
<text text-anchor="middle" x="1039.84" y="-1226.38" font-family="Times New Roman,serif" font-size="14.00">Normalized count: NaN</text>
<text text-anchor="middle" x="1039.84" y="-1211.38" font-family="Times New Roman,serif" font-size="14.00">Samples weight: 0.00</text>
</g>
<!-- BB10&#45;&gt;BB40 -->
<g id="edge14" class="edge">
<title>BB10&#45;&gt;BB40</title>
<path fill="none" stroke="black" d="M920.63,-1328.28C938.78,-1314.62 959.18,-1299.28 977.9,-1285.19"/>
<polygon fill="black" stroke="black" points="980.2,-1287.84 986.09,-1279.03 975.99,-1282.24 980.2,-1287.84"/>
</g>
<!-- BB11 -->
<g id="node12" class="node">
<title>BB11</title>
<ellipse fill="none" stroke="black" cx="2195.84" cy="-1105.42" rx="104.8" ry="48.17"/>
<text text-anchor="middle" x="2195.84" y="-1124.22" font-family="Times New Roman,serif" font-size="14.00">[79..7d)</text>
<text text-anchor="middle" x="2195.84" y="-1109.22" font-family="Times New Roman,serif" font-size="14.00">Count: 0</text>
<text text-anchor="middle" x="2195.84" y="-1094.22" font-family="Times New Roman,serif" font-size="14.00">Normalized count: NaN</text>
<text text-anchor="middle" x="2195.84" y="-1079.22" font-family="Times New Roman,serif" font-size="14.00">Samples weight: 0.00</text>
</g>
<!-- BB12 -->
<g id="node13" class="node">
<title>BB12</title>
<ellipse fill="none" stroke="black" cx="2441.84" cy="-973.25" rx="104.8" ry="48.17"/>
<text text-anchor="middle" x="2441.84" y="-992.05" font-family="Times New Roman,serif" font-size="14.00">[7d..81)</text>
<text text-anchor="middle" x="2441.84" y="-977.05" font-family="Times New Roman,serif" font-size="14.00">Count: 0</text>
<text text-anchor="middle" x="2441.84" y="-962.05" font-family="Times New Roman,serif" font-size="14.00">Normalized count: NaN</text>
<text text-anchor="middle" x="2441.84" y="-947.05" font-family="Times New Roman,serif" font-size="14.00">Samples weight: 0.00</text>
</g>
<!-- BB11&#45;&gt;BB12 -->
<g id="edge16" class="edge">
<title>BB11&#45;&gt;BB12</title>
<path fill="none" stroke="black" d="M2263.39,-1068.67C2294.85,-1052.03 2332.44,-1032.14 2364.99,-1014.92"/>
<polygon fill="black" stroke="black" points="2366.82,-1017.91 2374.02,-1010.14 2363.55,-1011.72 2366.82,-1017.91"/>
</g>
<!-- BB19 -->
<g id="node20" class="node">
<title>BB19</title>
<ellipse fill="none" stroke="black" cx="2195.84" cy="-973.25" rx="104.8" ry="48.17"/>
<text text-anchor="middle" x="2195.84" y="-992.05" font-family="Times New Roman,serif" font-size="14.00">[bc..cb)</text>
<text text-anchor="middle" x="2195.84" y="-977.05" font-family="Times New Roman,serif" font-size="14.00">Count: 0</text>
<text text-anchor="middle" x="2195.84" y="-962.05" font-family="Times New Roman,serif" font-size="14.00">Normalized count: NaN</text>
<text text-anchor="middle" x="2195.84" y="-947.05" font-family="Times New Roman,serif" font-size="14.00">Samples weight: 0.00</text>
</g>
<!-- BB11&#45;&gt;BB19 -->
<g id="edge15" class="edge">
<title>BB11&#45;&gt;BB19</title>
<path fill="none" stroke="black" d="M2195.84,-1057.05C2195.84,-1048.79 2195.84,-1040.1 2195.84,-1031.6"/>
<polygon fill="black" stroke="black" points="2199.34,-1031.36 2195.84,-1021.36 2192.34,-1031.36 2199.34,-1031.36"/>
</g>
<!-- BB18 -->
<g id="node19" class="node">
<title>BB18</title>
<ellipse fill="none" stroke="black" cx="2451.84" cy="-841.08" rx="113.69" ry="48.17"/>
<text text-anchor="middle" x="2451.84" y="-859.88" font-family="Times New Roman,serif" font-size="14.00">[b7..bc)</text>
<text text-anchor="middle" x="2451.84" y="-844.88" font-family="Times New Roman,serif" font-size="14.00">Count: 4</text>
<text text-anchor="middle" x="2451.84" y="-829.88" font-family="Times New Roman,serif" font-size="14.00">Normalized count: Infinity</text>
<text text-anchor="middle" x="2451.84" y="-814.88" font-family="Times New Roman,serif" font-size="14.00">Samples weight: 0.00</text>
</g>
<!-- BB12&#45;&gt;BB18 -->
<g id="edge17" class="edge">
<title>BB12&#45;&gt;BB18</title>
<path fill="none" stroke="black" d="M2445.48,-924.89C2446.12,-916.62 2446.78,-907.94 2447.44,-899.43"/>
<polygon fill="black" stroke="black" points="2450.95,-899.43 2448.23,-889.19 2443.97,-898.89 2450.95,-899.43"/>
</g>
<!-- BB13 -->
<g id="node14" class="node">
<title>BB13</title>
<ellipse fill="none" stroke="black" cx="2461.84" cy="-708.92" rx="113.69" ry="48.17"/>
<text text-anchor="middle" x="2461.84" y="-727.72" font-family="Times New Roman,serif" font-size="14.00">[81..8b)</text>
<text text-anchor="middle" x="2461.84" y="-712.72" font-family="Times New Roman,serif" font-size="14.00">Count: 36</text>
<text text-anchor="middle" x="2461.84" y="-697.72" font-family="Times New Roman,serif" font-size="14.00">Normalized count: Infinity</text>
<text text-anchor="middle" x="2461.84" y="-682.72" font-family="Times New Roman,serif" font-size="14.00">Samples weight: 0.01</text>
</g>
<!-- BB14 -->
<g id="node15" class="node">
<title>BB14</title>
<ellipse fill="none" stroke="black" cx="2461.84" cy="-576.75" rx="113.69" ry="48.17"/>
<text text-anchor="middle" x="2461.84" y="-595.55" font-family="Times New Roman,serif" font-size="14.00">[8b..90)</text>
<text text-anchor="middle" x="2461.84" y="-580.55" font-family="Times New Roman,serif" font-size="14.00">Count: 2</text>
<text text-anchor="middle" x="2461.84" y="-565.55" font-family="Times New Roman,serif" font-size="14.00">Normalized count: Infinity</text>
<text text-anchor="middle" x="2461.84" y="-550.55" font-family="Times New Roman,serif" font-size="14.00">Samples weight: 0.00</text>
</g>
<!-- BB13&#45;&gt;BB14 -->
<g id="edge19" class="edge">
<title>BB13&#45;&gt;BB14</title>
<path fill="none" stroke="black" d="M2461.84,-660.55C2461.84,-652.29 2461.84,-643.6 2461.84,-635.1"/>
<polygon fill="black" stroke="black" points="2465.34,-634.86 2461.84,-624.86 2458.34,-634.86 2465.34,-634.86"/>
</g>
<!-- BB17 -->
<g id="node18" class="node">
<title>BB17</title>
<ellipse fill="none" stroke="black" cx="2707.84" cy="-576.75" rx="113.69" ry="48.17"/>
<text text-anchor="middle" x="2707.84" y="-595.55" font-family="Times New Roman,serif" font-size="14.00">[ac..b7)</text>
<text text-anchor="middle" x="2707.84" y="-580.55" font-family="Times New Roman,serif" font-size="14.00">Count: 41</text>
<text text-anchor="middle" x="2707.84" y="-565.55" font-family="Times New Roman,serif" font-size="14.00">Normalized count: Infinity</text>
<text text-anchor="middle" x="2707.84" y="-550.55" font-family="Times New Roman,serif" font-size="14.00">Samples weight: 0.01</text>
</g>
<!-- BB13&#45;&gt;BB17 -->
<g id="edge18" class="edge">
<title>BB13&#45;&gt;BB17</title>
<path fill="none" stroke="black" d="M2532.01,-670.79C2562.12,-654.85 2597.46,-636.16 2628.52,-619.72"/>
<polygon fill="black" stroke="black" points="2630.38,-622.7 2637.59,-614.92 2627.11,-616.51 2630.38,-622.7"/>
</g>
<!-- BB16 -->
<g id="node17" class="node">
<title>BB16</title>
<ellipse fill="none" stroke="black" cx="2688.84" cy="-444.58" rx="113.69" ry="48.17"/>
<text text-anchor="middle" x="2688.84" y="-463.38" font-family="Times New Roman,serif" font-size="14.00">[a7..ac)</text>
<text text-anchor="middle" x="2688.84" y="-448.38" font-family="Times New Roman,serif" font-size="14.00">Count: 111</text>
<text text-anchor="middle" x="2688.84" y="-433.38" font-family="Times New Roman,serif" font-size="14.00">Normalized count: Infinity</text>
<text text-anchor="middle" x="2688.84" y="-418.38" font-family="Times New Roman,serif" font-size="14.00">Samples weight: 0.04</text>
</g>
<!-- BB14&#45;&gt;BB16 -->
<g id="edge20" class="edge">
<title>BB14&#45;&gt;BB16</title>
<path fill="none" stroke="black" d="M2528.42,-537.57C2555.1,-522.28 2585.97,-504.57 2613.47,-488.8"/>
<polygon fill="black" stroke="black" points="2615.34,-491.77 2622.27,-483.76 2611.86,-485.7 2615.34,-491.77"/>
</g>
<!-- BB15 -->
<g id="node16" class="node">
<title>BB15</title>
<ellipse fill="none" stroke="black" cx="2688.84" cy="-312.42" rx="113.69" ry="48.17"/>
<text text-anchor="middle" x="2688.84" y="-331.22" font-family="Times New Roman,serif" font-size="14.00">[90..a7)</text>
<text text-anchor="middle" x="2688.84" y="-316.22" font-family="Times New Roman,serif" font-size="14.00">Count: 1176</text>
<text text-anchor="middle" x="2688.84" y="-301.22" font-family="Times New Roman,serif" font-size="14.00">Normalized count: Infinity</text>
<text text-anchor="middle" x="2688.84" y="-286.22" font-family="Times New Roman,serif" font-size="14.00">Samples weight: 0.38</text>
</g>
<!-- BB15&#45;&gt;BB16 -->
<g id="edge21" class="edge">
<title>BB15&#45;&gt;BB16</title>
<path fill="none" stroke="black" d="M2695.36,-360.52C2695.58,-368.78 2695.65,-377.46 2695.55,-385.97"/>
<polygon fill="black" stroke="black" points="2692.05,-386.16 2695.37,-396.22 2699.05,-386.29 2692.05,-386.16"/>
</g>
<!-- BB16&#45;&gt;BB15 -->
<g id="edge22" class="edge">
<title>BB16&#45;&gt;BB15</title>
<path fill="none" stroke="black" d="M2682.32,-396.22C2682.1,-387.95 2682.04,-379.27 2682.14,-370.77"/>
<polygon fill="black" stroke="black" points="2685.64,-370.59 2682.33,-360.52 2678.64,-370.46 2685.64,-370.59"/>
</g>
<!-- BB16&#45;&gt;BB17 -->
<g id="edge23" class="edge">
<title>BB16&#45;&gt;BB17</title>
<path fill="none" stroke="black" d="M2695.72,-492.69C2696.94,-501.04 2698.22,-509.82 2699.48,-518.42"/>
<polygon fill="black" stroke="black" points="2696.02,-519 2700.93,-528.39 2702.95,-517.99 2696.02,-519"/>
</g>
<!-- BB17&#45;&gt;BB18 -->
<g id="edge24" class="edge">
<title>BB17&#45;&gt;BB18</title>
<path fill="none" stroke="black" d="M2683.29,-623.97C2661.16,-662.66 2625.86,-717.71 2584.84,-757 2568.99,-772.19 2549.92,-786.05 2531.24,-797.92"/>
<polygon fill="black" stroke="black" points="2529.35,-794.98 2522.7,-803.23 2533.04,-800.92 2529.35,-794.98"/>
</g>
<!-- BB18&#45;&gt;BB13 -->
<g id="edge25" class="edge">
<title>BB18&#45;&gt;BB13</title>
<path fill="none" stroke="black" d="M2455.48,-792.72C2456.12,-784.45 2456.78,-775.77 2457.44,-767.27"/>
<polygon fill="black" stroke="black" points="2460.95,-767.26 2458.23,-757.02 2453.97,-766.73 2460.95,-767.26"/>
</g>
<!-- BB18&#45;&gt;BB19 -->
<g id="edge26" class="edge">
<title>BB18&#45;&gt;BB19</title>
<path fill="none" stroke="black" d="M2379.83,-878.7C2347,-895.39 2308.04,-915.2 2274.45,-932.28"/>
<polygon fill="black" stroke="black" points="2272.45,-929.37 2265.12,-937.02 2275.62,-935.61 2272.45,-929.37"/>
</g>
<!-- BB27 -->
<g id="node28" class="node">
<title>BB27</title>
<ellipse fill="none" stroke="black" cx="2186.84" cy="-841.08" rx="113.69" ry="48.17"/>
<text text-anchor="middle" x="2186.84" y="-859.88" font-family="Times New Roman,serif" font-size="14.00">[11b..11f)</text>
<text text-anchor="middle" x="2186.84" y="-844.88" font-family="Times New Roman,serif" font-size="14.00">Count: 4</text>
<text text-anchor="middle" x="2186.84" y="-829.88" font-family="Times New Roman,serif" font-size="14.00">Normalized count: Infinity</text>
<text text-anchor="middle" x="2186.84" y="-814.88" font-family="Times New Roman,serif" font-size="14.00">Samples weight: 0.00</text>
</g>
<!-- BB19&#45;&gt;BB27 -->
<g id="edge27" class="edge">
<title>BB19&#45;&gt;BB27</title>
<path fill="none" stroke="black" d="M2192.57,-924.89C2192,-916.62 2191.4,-907.94 2190.81,-899.43"/>
<polygon fill="black" stroke="black" points="2194.28,-898.93 2190.1,-889.19 2187.3,-899.41 2194.28,-898.93"/>
</g>
<!-- BB20 -->
<g id="node21" class="node">
<title>BB20</title>
<ellipse fill="none" stroke="black" cx="2177.84" cy="-708.92" rx="113.69" ry="48.17"/>
<text text-anchor="middle" x="2177.84" y="-727.72" font-family="Times New Roman,serif" font-size="14.00">[cb..d6)</text>
<text text-anchor="middle" x="2177.84" y="-712.72" font-family="Times New Roman,serif" font-size="14.00">Count: 53</text>
<text text-anchor="middle" x="2177.84" y="-697.72" font-family="Times New Roman,serif" font-size="14.00">Normalized count: Infinity</text>
<text text-anchor="middle" x="2177.84" y="-682.72" font-family="Times New Roman,serif" font-size="14.00">Samples weight: 0.02</text>
</g>
<!-- BB21 -->
<g id="node22" class="node">
<title>BB21</title>
<ellipse fill="none" stroke="black" cx="1931.84" cy="-576.75" rx="113.69" ry="48.17"/>
<text text-anchor="middle" x="1931.84" y="-595.55" font-family="Times New Roman,serif" font-size="14.00">[d6..db)</text>
<text text-anchor="middle" x="1931.84" y="-580.55" font-family="Times New Roman,serif" font-size="14.00">Count: 5</text>
<text text-anchor="middle" x="1931.84" y="-565.55" font-family="Times New Roman,serif" font-size="14.00">Normalized count: Infinity</text>
<text text-anchor="middle" x="1931.84" y="-550.55" font-family="Times New Roman,serif" font-size="14.00">Samples weight: 0.00</text>
</g>
<!-- BB20&#45;&gt;BB21 -->
<g id="edge29" class="edge">
<title>BB20&#45;&gt;BB21</title>
<path fill="none" stroke="black" d="M2107.68,-670.79C2077.56,-654.85 2042.23,-636.16 2011.17,-619.72"/>
<polygon fill="black" stroke="black" points="2012.58,-616.51 2002.1,-614.92 2009.3,-622.7 2012.58,-616.51"/>
</g>
<!-- BB24 -->
<g id="node25" class="node">
<title>BB24</title>
<ellipse fill="none" stroke="black" cx="2177.84" cy="-576.75" rx="113.69" ry="48.17"/>
<text text-anchor="middle" x="2177.84" y="-595.55" font-family="Times New Roman,serif" font-size="14.00">[f8..112)</text>
<text text-anchor="middle" x="2177.84" y="-580.55" font-family="Times New Roman,serif" font-size="14.00">Count: 68</text>
<text text-anchor="middle" x="2177.84" y="-565.55" font-family="Times New Roman,serif" font-size="14.00">Normalized count: Infinity</text>
<text text-anchor="middle" x="2177.84" y="-550.55" font-family="Times New Roman,serif" font-size="14.00">Samples weight: 0.02</text>
</g>
<!-- BB20&#45;&gt;BB24 -->
<g id="edge28" class="edge">
<title>BB20&#45;&gt;BB24</title>
<path fill="none" stroke="black" d="M2177.84,-660.55C2177.84,-652.29 2177.84,-643.6 2177.84,-635.1"/>
<polygon fill="black" stroke="black" points="2181.34,-634.86 2177.84,-624.86 2174.34,-634.86 2181.34,-634.86"/>
</g>
<!-- BB23 -->
<g id="node24" class="node">
<title>BB23</title>
<ellipse fill="none" stroke="black" cx="1931.84" cy="-444.58" rx="113.69" ry="48.17"/>
<text text-anchor="middle" x="1931.84" y="-463.38" font-family="Times New Roman,serif" font-size="14.00">[f2..f8)</text>
<text text-anchor="middle" x="1931.84" y="-448.38" font-family="Times New Roman,serif" font-size="14.00">Count: 96</text>
<text text-anchor="middle" x="1931.84" y="-433.38" font-family="Times New Roman,serif" font-size="14.00">Normalized count: Infinity</text>
<text text-anchor="middle" x="1931.84" y="-418.38" font-family="Times New Roman,serif" font-size="14.00">Samples weight: 0.03</text>
</g>
<!-- BB21&#45;&gt;BB23 -->
<g id="edge30" class="edge">
<title>BB21&#45;&gt;BB23</title>
<path fill="none" stroke="black" d="M1931.84,-528.39C1931.84,-520.12 1931.84,-511.44 1931.84,-502.93"/>
<polygon fill="black" stroke="black" points="1935.34,-502.69 1931.84,-492.69 1928.34,-502.69 1935.34,-502.69"/>
</g>
<!-- BB22 -->
<g id="node23" class="node">
<title>BB22</title>
<ellipse fill="none" stroke="black" cx="1931.84" cy="-312.42" rx="113.69" ry="48.17"/>
<text text-anchor="middle" x="1931.84" y="-331.22" font-family="Times New Roman,serif" font-size="14.00">[db..f2)</text>
<text text-anchor="middle" x="1931.84" y="-316.22" font-family="Times New Roman,serif" font-size="14.00">Count: 1200</text>
<text text-anchor="middle" x="1931.84" y="-301.22" font-family="Times New Roman,serif" font-size="14.00">Normalized count: Infinity</text>
<text text-anchor="middle" x="1931.84" y="-286.22" font-family="Times New Roman,serif" font-size="14.00">Samples weight: 0.39</text>
</g>
<!-- BB22&#45;&gt;BB23 -->
<g id="edge31" class="edge">
<title>BB22&#45;&gt;BB23</title>
<path fill="none" stroke="black" d="M1938.36,-360.52C1938.58,-368.78 1938.65,-377.46 1938.55,-385.97"/>
<polygon fill="black" stroke="black" points="1935.05,-386.16 1938.37,-396.22 1942.05,-386.29 1935.05,-386.16"/>
</g>
<!-- BB23&#45;&gt;BB22 -->
<g id="edge32" class="edge">
<title>BB23&#45;&gt;BB22</title>
<path fill="none" stroke="black" d="M1925.32,-396.22C1925.1,-387.95 1925.04,-379.27 1925.14,-370.77"/>
<polygon fill="black" stroke="black" points="1928.64,-370.59 1925.33,-360.52 1921.64,-370.46 1928.64,-370.59"/>
</g>
<!-- BB23&#45;&gt;BB24 -->
<g id="edge33" class="edge">
<title>BB23&#45;&gt;BB24</title>
<path fill="none" stroke="black" d="M2002.1,-482.76C2032.23,-498.7 2067.56,-517.4 2098.62,-533.83"/>
<polygon fill="black" stroke="black" points="2097.2,-537.04 2107.68,-538.62 2100.48,-530.85 2097.2,-537.04"/>
</g>
<!-- BB25 -->
<g id="node26" class="node">
<title>BB25</title>
<ellipse fill="none" stroke="black" cx="2177.84" cy="-444.58" rx="113.69" ry="48.17"/>
<text text-anchor="middle" x="2177.84" y="-463.38" font-family="Times New Roman,serif" font-size="14.00">[112..117)</text>
<text text-anchor="middle" x="2177.84" y="-448.38" font-family="Times New Roman,serif" font-size="14.00">Count: 7</text>
<text text-anchor="middle" x="2177.84" y="-433.38" font-family="Times New Roman,serif" font-size="14.00">Normalized count: Infinity</text>
<text text-anchor="middle" x="2177.84" y="-418.38" font-family="Times New Roman,serif" font-size="14.00">Samples weight: 0.00</text>
</g>
<!-- BB24&#45;&gt;BB25 -->
<g id="edge35" class="edge">
<title>BB24&#45;&gt;BB25</title>
<path fill="none" stroke="black" d="M2177.84,-528.39C2177.84,-520.12 2177.84,-511.44 2177.84,-502.93"/>
<polygon fill="black" stroke="black" points="2181.34,-502.69 2177.84,-492.69 2174.34,-502.69 2181.34,-502.69"/>
</g>
<!-- BB26 -->
<g id="node27" class="node">
<title>BB26</title>
<ellipse fill="none" stroke="black" cx="2423.84" cy="-444.58" rx="113.69" ry="48.17"/>
<text text-anchor="middle" x="2423.84" y="-463.38" font-family="Times New Roman,serif" font-size="14.00">[117..11b)</text>
<text text-anchor="middle" x="2423.84" y="-448.38" font-family="Times New Roman,serif" font-size="14.00">Count: 2</text>
<text text-anchor="middle" x="2423.84" y="-433.38" font-family="Times New Roman,serif" font-size="14.00">Normalized count: Infinity</text>
<text text-anchor="middle" x="2423.84" y="-418.38" font-family="Times New Roman,serif" font-size="14.00">Samples weight: 0.00</text>
</g>
<!-- BB24&#45;&gt;BB26 -->
<g id="edge34" class="edge">
<title>BB24&#45;&gt;BB26</title>
<path fill="none" stroke="black" d="M2248.01,-538.62C2278.12,-522.69 2313.46,-503.99 2344.52,-487.55"/>
<polygon fill="black" stroke="black" points="2346.38,-490.53 2353.59,-482.76 2343.11,-484.34 2346.38,-490.53"/>
</g>
<!-- BB25&#45;&gt;BB26 -->
<g id="edge36" class="edge">
<title>BB25&#45;&gt;BB26</title>
<path fill="none" stroke="black" d="M2291.72,-444.58C2294.35,-444.58 2296.98,-444.58 2299.62,-444.58"/>
<polygon fill="black" stroke="black" points="2299.78,-448.08 2309.78,-444.58 2299.78,-441.08 2299.78,-448.08"/>
</g>
<!-- BB26&#45;&gt;BB27 -->
<g id="edge37" class="edge">
<title>BB26&#45;&gt;BB27</title>
<path fill="none" stroke="black" d="M2370.71,-487.32C2358.49,-499.41 2346.77,-513.48 2338.84,-528.67 2291.26,-619.88 2354.88,-669.45 2300.84,-757 2291.54,-772.07 2278.4,-785.25 2264.33,-796.42"/>
<polygon fill="black" stroke="black" points="2261.82,-793.93 2255.96,-802.75 2266.05,-799.51 2261.82,-793.93"/>
</g>
<!-- BB27&#45;&gt;BB20 -->
<g id="edge38" class="edge">
<title>BB27&#45;&gt;BB20</title>
<path fill="none" stroke="black" d="M2183.57,-792.72C2183,-784.45 2182.4,-775.77 2181.81,-767.27"/>
<polygon fill="black" stroke="black" points="2185.28,-766.76 2181.1,-757.02 2178.3,-767.24 2185.28,-766.76"/>
</g>
<!-- BB28 -->
<g id="node29" class="node">
<title>BB28</title>
<ellipse fill="none" stroke="black" cx="1685.84" cy="-708.92" rx="104.8" ry="48.17"/>
<text text-anchor="middle" x="1685.84" y="-727.72" font-family="Times New Roman,serif" font-size="14.00">[11f..125)</text>
<text text-anchor="middle" x="1685.84" y="-712.72" font-family="Times New Roman,serif" font-size="14.00">Count: 0</text>
<text text-anchor="middle" x="1685.84" y="-697.72" font-family="Times New Roman,serif" font-size="14.00">Normalized count: NaN</text>
<text text-anchor="middle" x="1685.84" y="-682.72" font-family="Times New Roman,serif" font-size="14.00">Samples weight: 0.00</text>
</g>
<!-- BB27&#45;&gt;BB28 -->
<g id="edge39" class="edge">
<title>BB27&#45;&gt;BB28</title>
<path fill="none" stroke="black" d="M2090.84,-815.14C2003.34,-792.41 1874.58,-758.95 1785.85,-735.9"/>
<polygon fill="black" stroke="black" points="1786.61,-732.48 1776.05,-733.35 1784.84,-739.25 1786.61,-732.48"/>
</g>
<!-- BB29 -->
<g id="node30" class="node">
<title>BB29</title>
<ellipse fill="none" stroke="black" cx="1685.84" cy="-576.75" rx="104.8" ry="48.17"/>
<text text-anchor="middle" x="1685.84" y="-595.55" font-family="Times New Roman,serif" font-size="14.00">[125..12a)</text>
<text text-anchor="middle" x="1685.84" y="-580.55" font-family="Times New Roman,serif" font-size="14.00">Count: 0</text>
<text text-anchor="middle" x="1685.84" y="-565.55" font-family="Times New Roman,serif" font-size="14.00">Normalized count: NaN</text>
<text text-anchor="middle" x="1685.84" y="-550.55" font-family="Times New Roman,serif" font-size="14.00">Samples weight: 0.00</text>
</g>
<!-- BB28&#45;&gt;BB29 -->
<g id="edge41" class="edge">
<title>BB28&#45;&gt;BB29</title>
<path fill="none" stroke="black" d="M1685.84,-660.55C1685.84,-652.29 1685.84,-643.6 1685.84,-635.1"/>
<polygon fill="black" stroke="black" points="1689.34,-634.86 1685.84,-624.86 1682.34,-634.86 1689.34,-634.86"/>
</g>
<!-- BB33 -->
<g id="node34" class="node">
<title>BB33</title>
<ellipse fill="none" stroke="black" cx="1416.84" cy="-576.75" rx="113.69" ry="48.17"/>
<text text-anchor="middle" x="1416.84" y="-595.55" font-family="Times New Roman,serif" font-size="14.00">[17a..192)</text>
<text text-anchor="middle" x="1416.84" y="-580.55" font-family="Times New Roman,serif" font-size="14.00">Count: 2</text>
<text text-anchor="middle" x="1416.84" y="-565.55" font-family="Times New Roman,serif" font-size="14.00">Normalized count: Infinity</text>
<text text-anchor="middle" x="1416.84" y="-550.55" font-family="Times New Roman,serif" font-size="14.00">Samples weight: 0.00</text>
</g>
<!-- BB28&#45;&gt;BB33 -->
<g id="edge40" class="edge">
<title>BB28&#45;&gt;BB33</title>
<path fill="none" stroke="black" d="M1614.82,-673.55C1579.52,-656.46 1536.65,-635.72 1499.84,-617.91"/>
<polygon fill="black" stroke="black" points="1501.15,-614.65 1490.62,-613.45 1498.1,-620.96 1501.15,-614.65"/>
</g>
<!-- BB31 -->
<g id="node32" class="node">
<title>BB31</title>
<ellipse fill="none" stroke="black" cx="1685.84" cy="-444.58" rx="113.69" ry="48.17"/>
<text text-anchor="middle" x="1685.84" y="-463.38" font-family="Times New Roman,serif" font-size="14.00">[14e..153)</text>
<text text-anchor="middle" x="1685.84" y="-448.38" font-family="Times New Roman,serif" font-size="14.00">Count: 2</text>
<text text-anchor="middle" x="1685.84" y="-433.38" font-family="Times New Roman,serif" font-size="14.00">Normalized count: Infinity</text>
<text text-anchor="middle" x="1685.84" y="-418.38" font-family="Times New Roman,serif" font-size="14.00">Samples weight: 0.00</text>
</g>
<!-- BB29&#45;&gt;BB31 -->
<g id="edge42" class="edge">
<title>BB29&#45;&gt;BB31</title>
<path fill="none" stroke="black" d="M1685.84,-528.39C1685.84,-520.12 1685.84,-511.44 1685.84,-502.93"/>
<polygon fill="black" stroke="black" points="1689.34,-502.69 1685.84,-492.69 1682.34,-502.69 1689.34,-502.69"/>
</g>
<!-- BB30 -->
<g id="node31" class="node">
<title>BB30</title>
<ellipse fill="none" stroke="black" cx="1685.84" cy="-312.42" rx="113.69" ry="48.17"/>
<text text-anchor="middle" x="1685.84" y="-331.22" font-family="Times New Roman,serif" font-size="14.00">[12a..14e)</text>
<text text-anchor="middle" x="1685.84" y="-316.22" font-family="Times New Roman,serif" font-size="14.00">Count: 150</text>
<text text-anchor="middle" x="1685.84" y="-301.22" font-family="Times New Roman,serif" font-size="14.00">Normalized count: Infinity</text>
<text text-anchor="middle" x="1685.84" y="-286.22" font-family="Times New Roman,serif" font-size="14.00">Samples weight: 0.05</text>
</g>
<!-- BB30&#45;&gt;BB31 -->
<g id="edge43" class="edge">
<title>BB30&#45;&gt;BB31</title>
<path fill="none" stroke="black" d="M1692.36,-360.52C1692.58,-368.78 1692.65,-377.46 1692.55,-385.97"/>
<polygon fill="black" stroke="black" points="1689.05,-386.16 1692.37,-396.22 1696.05,-386.29 1689.05,-386.16"/>
</g>
<!-- BB31&#45;&gt;BB30 -->
<g id="edge44" class="edge">
<title>BB31&#45;&gt;BB30</title>
<path fill="none" stroke="black" d="M1679.32,-396.22C1679.1,-387.95 1679.04,-379.27 1679.14,-370.77"/>
<polygon fill="black" stroke="black" points="1682.64,-370.59 1679.33,-360.52 1675.64,-370.46 1682.64,-370.59"/>
</g>
<!-- BB32 -->
<g id="node33" class="node">
<title>BB32</title>
<ellipse fill="none" stroke="black" cx="1439.84" cy="-312.42" rx="113.69" ry="48.17"/>
<text text-anchor="middle" x="1439.84" y="-331.22" font-family="Times New Roman,serif" font-size="14.00">[153..17a)</text>
<text text-anchor="middle" x="1439.84" y="-316.22" font-family="Times New Roman,serif" font-size="14.00">Count: 3</text>
<text text-anchor="middle" x="1439.84" y="-301.22" font-family="Times New Roman,serif" font-size="14.00">Normalized count: Infinity</text>
<text text-anchor="middle" x="1439.84" y="-286.22" font-family="Times New Roman,serif" font-size="14.00">Samples weight: 0.00</text>
</g>
<!-- BB31&#45;&gt;BB32 -->
<g id="edge45" class="edge">
<title>BB31&#45;&gt;BB32</title>
<path fill="none" stroke="black" d="M1615.68,-406.46C1585.56,-390.52 1550.23,-371.82 1519.17,-355.39"/>
<polygon fill="black" stroke="black" points="1520.58,-352.18 1510.1,-350.59 1517.3,-358.36 1520.58,-352.18"/>
</g>
<!-- BB32&#45;&gt;BB33 -->
<g id="edge46" class="edge">
<title>BB32&#45;&gt;BB33</title>
<path fill="none" stroke="black" d="M1478.76,-357.67C1486.98,-369.52 1494.49,-382.85 1498.84,-396.5 1511.83,-437.22 1515.07,-453.13 1498.84,-492.67 1493.82,-504.92 1486.01,-516.33 1477.18,-526.53"/>
<polygon fill="black" stroke="black" points="1474.43,-524.35 1470.25,-534.09 1479.59,-529.08 1474.43,-524.35"/>
</g>
<!-- BB34 -->
<g id="node35" class="node">
<title>BB34</title>
<ellipse fill="none" stroke="black" cx="1384.84" cy="-444.58" rx="104.8" ry="48.17"/>
<text text-anchor="middle" x="1384.84" y="-463.38" font-family="Times New Roman,serif" font-size="14.00">[192..19b)</text>
<text text-anchor="middle" x="1384.84" y="-448.38" font-family="Times New Roman,serif" font-size="14.00">Count: 0</text>
<text text-anchor="middle" x="1384.84" y="-433.38" font-family="Times New Roman,serif" font-size="14.00">Normalized count: NaN</text>
<text text-anchor="middle" x="1384.84" y="-418.38" font-family="Times New Roman,serif" font-size="14.00">Samples weight: 0.00</text>
</g>
<!-- BB33&#45;&gt;BB34 -->
<g id="edge48" class="edge">
<title>BB33&#45;&gt;BB34</title>
<path fill="none" stroke="black" d="M1405.29,-528.76C1403.18,-520.18 1400.97,-511.16 1398.8,-502.34"/>
<polygon fill="black" stroke="black" points="1402.17,-501.38 1396.38,-492.51 1395.37,-503.05 1402.17,-501.38"/>
</g>
<!-- BB35 -->
<g id="node36" class="node">
<title>BB35</title>
<ellipse fill="none" stroke="black" cx="1157.84" cy="-444.58" rx="104.8" ry="48.17"/>
<text text-anchor="middle" x="1157.84" y="-463.38" font-family="Times New Roman,serif" font-size="14.00">[19b..1a2)</text>
<text text-anchor="middle" x="1157.84" y="-448.38" font-family="Times New Roman,serif" font-size="14.00">Count: 0</text>
<text text-anchor="middle" x="1157.84" y="-433.38" font-family="Times New Roman,serif" font-size="14.00">Normalized count: NaN</text>
<text text-anchor="middle" x="1157.84" y="-418.38" font-family="Times New Roman,serif" font-size="14.00">Samples weight: 0.00</text>
</g>
<!-- BB33&#45;&gt;BB35 -->
<g id="edge47" class="edge">
<title>BB33&#45;&gt;BB35</title>
<path fill="none" stroke="black" d="M1344.7,-539.49C1311.03,-522.57 1270.89,-502.4 1236.46,-485.09"/>
<polygon fill="black" stroke="black" points="1237.88,-481.89 1227.37,-480.53 1234.73,-488.14 1237.88,-481.89"/>
</g>
<!-- BB34&#45;&gt;BB35 -->
<g id="edge49" class="edge">
<title>BB34&#45;&gt;BB35</title>
<path fill="none" stroke="black" d="M1280.07,-444.58C1277.74,-444.58 1275.42,-444.58 1273.1,-444.58"/>
<polygon fill="black" stroke="black" points="1272.92,-441.08 1262.92,-444.58 1272.92,-448.08 1272.92,-441.08"/>
</g>
<!-- BB36 -->
<g id="node37" class="node">
<title>BB36</title>
<ellipse fill="none" stroke="black" cx="1193.84" cy="-312.42" rx="113.69" ry="48.17"/>
<text text-anchor="middle" x="1193.84" y="-331.22" font-family="Times New Roman,serif" font-size="14.00">[1a2..1bb)</text>
<text text-anchor="middle" x="1193.84" y="-316.22" font-family="Times New Roman,serif" font-size="14.00">Count: 2</text>
<text text-anchor="middle" x="1193.84" y="-301.22" font-family="Times New Roman,serif" font-size="14.00">Normalized count: Infinity</text>
<text text-anchor="middle" x="1193.84" y="-286.22" font-family="Times New Roman,serif" font-size="14.00">Samples weight: 0.00</text>
</g>
<!-- BB35&#45;&gt;BB36 -->
<g id="edge51" class="edge">
<title>BB35&#45;&gt;BB36</title>
<path fill="none" stroke="black" d="M1170.84,-396.59C1173.21,-388.02 1175.71,-378.99 1178.15,-370.17"/>
<polygon fill="black" stroke="black" points="1181.57,-370.91 1180.87,-360.34 1174.83,-369.05 1181.57,-370.91"/>
</g>
<!-- BB39 -->
<g id="node40" class="node">
<title>BB39</title>
<ellipse fill="none" stroke="black" cx="947.84" cy="-312.42" rx="113.69" ry="48.17"/>
<text text-anchor="middle" x="947.84" y="-331.22" font-family="Times New Roman,serif" font-size="14.00">[1d1..1d7)</text>
<text text-anchor="middle" x="947.84" y="-316.22" font-family="Times New Roman,serif" font-size="14.00">Count: 2</text>
<text text-anchor="middle" x="947.84" y="-301.22" font-family="Times New Roman,serif" font-size="14.00">Normalized count: Infinity</text>
<text text-anchor="middle" x="947.84" y="-286.22" font-family="Times New Roman,serif" font-size="14.00">Samples weight: 0.00</text>
</g>
<!-- BB35&#45;&gt;BB39 -->
<g id="edge50" class="edge">
<title>BB35&#45;&gt;BB39</title>
<path fill="none" stroke="black" d="M1096.54,-405.58C1072.5,-390.68 1044.74,-373.47 1019.76,-357.99"/>
<polygon fill="black" stroke="black" points="1021.39,-354.89 1011.05,-352.59 1017.7,-360.84 1021.39,-354.89"/>
</g>
<!-- BB38 -->
<g id="node39" class="node">
<title>BB38</title>
<ellipse fill="none" stroke="black" cx="1070.84" cy="-180.25" rx="113.69" ry="48.17"/>
<text text-anchor="middle" x="1070.84" y="-199.05" font-family="Times New Roman,serif" font-size="14.00">[1cd..1d1)</text>
<text text-anchor="middle" x="1070.84" y="-184.05" font-family="Times New Roman,serif" font-size="14.00">Count: 2</text>
<text text-anchor="middle" x="1070.84" y="-169.05" font-family="Times New Roman,serif" font-size="14.00">Normalized count: Infinity</text>
<text text-anchor="middle" x="1070.84" y="-154.05" font-family="Times New Roman,serif" font-size="14.00">Samples weight: 0.00</text>
</g>
<!-- BB36&#45;&gt;BB38 -->
<g id="edge52" class="edge">
<title>BB36&#45;&gt;BB38</title>
<path fill="none" stroke="black" d="M1152.2,-267.35C1141.68,-256.22 1130.29,-244.16 1119.46,-232.7"/>
<polygon fill="black" stroke="black" points="1121.86,-230.14 1112.44,-225.27 1116.77,-234.95 1121.86,-230.14"/>
</g>
<!-- BB37 -->
<g id="node38" class="node">
<title>BB37</title>
<ellipse fill="none" stroke="black" cx="1070.84" cy="-48.08" rx="113.69" ry="48.17"/>
<text text-anchor="middle" x="1070.84" y="-66.88" font-family="Times New Roman,serif" font-size="14.00">[1bb..1cd)</text>
<text text-anchor="middle" x="1070.84" y="-51.88" font-family="Times New Roman,serif" font-size="14.00">Count: 49</text>
<text text-anchor="middle" x="1070.84" y="-36.88" font-family="Times New Roman,serif" font-size="14.00">Normalized count: Infinity</text>
<text text-anchor="middle" x="1070.84" y="-21.88" font-family="Times New Roman,serif" font-size="14.00">Samples weight: 0.02</text>
</g>
<!-- BB37&#45;&gt;BB38 -->
<g id="edge53" class="edge">
<title>BB37&#45;&gt;BB38</title>
<path fill="none" stroke="black" d="M1077.36,-96.19C1077.58,-104.45 1077.65,-113.13 1077.55,-121.64"/>
<polygon fill="black" stroke="black" points="1074.05,-121.83 1077.37,-131.89 1081.05,-121.95 1074.05,-121.83"/>
</g>
<!-- BB38&#45;&gt;BB37 -->
<g id="edge54" class="edge">
<title>BB38&#45;&gt;BB37</title>
<path fill="none" stroke="black" d="M1064.32,-131.89C1064.1,-123.62 1064.04,-114.94 1064.14,-106.43"/>
<polygon fill="black" stroke="black" points="1067.64,-106.26 1064.33,-96.19 1060.64,-106.12 1067.64,-106.26"/>
</g>
<!-- BB38&#45;&gt;BB39 -->
<g id="edge55" class="edge">
<title>BB38&#45;&gt;BB39</title>
<path fill="none" stroke="black" d="M1029.24,-225.27C1018.73,-236.4 1007.34,-248.45 996.51,-259.92"/>
<polygon fill="black" stroke="black" points="993.81,-257.68 989.49,-267.35 998.9,-262.48 993.81,-257.68"/>
</g>
<!-- BB39&#45;&gt;BB40 -->
<g id="edge56" class="edge">
<title>BB39&#45;&gt;BB40</title>
<path fill="none" stroke="black" d="M955.36,-360.67C963.04,-413.08 973.84,-500.23 973.84,-575.75 973.84,-974.25 973.84,-974.25 973.84,-974.25 973.84,-1054.36 968.39,-1077.21 992.84,-1153.5 995.92,-1163.09 1000.18,-1172.8 1004.89,-1182.04"/>
<polygon fill="black" stroke="black" points="1001.93,-1183.93 1009.73,-1191.11 1008.11,-1180.64 1001.93,-1183.93"/>
</g>
<!-- BB40&#45;&gt;BB11 -->
<g id="edge57" class="edge">
<title>BB40&#45;&gt;BB11</title>
<path fill="none" stroke="black" d="M1141.17,-1225.17C1356.83,-1200.89 1859.87,-1144.25 2084.3,-1118.98"/>
<polygon fill="black" stroke="black" points="2084.9,-1122.43 2094.44,-1117.83 2084.12,-1115.47 2084.9,-1122.43"/>
</g>
<!-- BB41 -->
<g id="node42" class="node">
<title>BB41</title>
<ellipse fill="none" stroke="black" cx="1106.84" cy="-1105.42" rx="104.8" ry="48.17"/>
<text text-anchor="middle" x="1106.84" y="-1124.22" font-family="Times New Roman,serif" font-size="14.00">[1df..1e1)</text>
<text text-anchor="middle" x="1106.84" y="-1109.22" font-family="Times New Roman,serif" font-size="14.00">Count: 0</text>
<text text-anchor="middle" x="1106.84" y="-1094.22" font-family="Times New Roman,serif" font-size="14.00">Normalized count: NaN</text>
<text text-anchor="middle" x="1106.84" y="-1079.22" font-family="Times New Roman,serif" font-size="14.00">Samples weight: 0.00</text>
</g>
<!-- BB40&#45;&gt;BB41 -->
<g id="edge58" class="edge">
<title>BB40&#45;&gt;BB41</title>
<path fill="none" stroke="black" d="M1063.47,-1190.69C1068.37,-1181.16 1073.58,-1171.03 1078.63,-1161.22"/>
<polygon fill="black" stroke="black" points="1081.75,-1162.82 1083.21,-1152.33 1075.52,-1159.62 1081.75,-1162.82"/>
</g>
</g>
</svg>
