<?xml version="1.0" encoding="UTF-8" standalone="no"?>
<!DOCTYPE svg PUBLIC "-//W3C//DTD SVG 1.1//EN"
 "http://www.w3.org/Graphics/SVG/1.1/DTD/svg11.dtd">
<!-- Generated by graphviz version 2.47.0 (20210316.0004)
 -->
<!-- Title: G Pages: 1 -->
<svg width="2905pt" height="1690pt"
 viewBox="0.00 0.00 2904.52 1690.16" xmlns="http://www.w3.org/2000/svg" xmlns:xlink="http://www.w3.org/1999/xlink">
<g id="graph0" class="graph" transform="scale(1 1) rotate(0) translate(4 1686.16)">
<title>G</title>
<polygon fill="white" stroke="transparent" points="-4,4 -4,-1686.16 2900.52,-1686.16 2900.52,4 -4,4"/>
<!-- BB0 -->
<g id="node1" class="node">
<title>BB0</title>
<ellipse fill="none" stroke="black" cx="607.19" cy="-1634.08" rx="103.48" ry="48.17"/>
<text text-anchor="middle" x="607.19" y="-1652.88" font-family="Times New Roman,serif" font-size="14.00">[0..15)</text>
<text text-anchor="middle" x="607.19" y="-1637.88" font-family="Times New Roman,serif" font-size="14.00">Count: 1</text>
<text text-anchor="middle" x="607.19" y="-1622.88" font-family="Times New Roman,serif" font-size="14.00">Normalized count: 1.00</text>
<text text-anchor="middle" x="607.19" y="-1607.88" font-family="Times New Roman,serif" font-size="14.00">Samples weight: 0.00</text>
</g>
<!-- BB9 -->
<g id="node10" class="node">
<title>BB9</title>
<ellipse fill="none" stroke="black" cx="607.19" cy="-1501.92" rx="108.38" ry="48.17"/>
<text text-anchor="middle" x="607.19" y="-1520.72" font-family="Times New Roman,serif" font-size="14.00">[6d..71)</text>
<text text-anchor="middle" x="607.19" y="-1505.72" font-family="Times New Roman,serif" font-size="14.00">Count: 87</text>
<text text-anchor="middle" x="607.19" y="-1490.72" font-family="Times New Roman,serif" font-size="14.00">Normalized count: 87.00</text>
<text text-anchor="middle" x="607.19" y="-1475.72" font-family="Times New Roman,serif" font-size="14.00">Samples weight: 0.00</text>
</g>
<!-- BB0&#45;&gt;BB9 -->
<g id="edge1" class="edge">
<title>BB0&#45;&gt;BB9</title>
<path fill="none" stroke="black" d="M607.19,-1585.72C607.19,-1577.45 607.19,-1568.77 607.19,-1560.27"/>
<polygon fill="black" stroke="black" points="610.69,-1560.02 607.19,-1550.02 603.69,-1560.02 610.69,-1560.02"/>
</g>
<!-- BB1 -->
<g id="node2" class="node">
<title>BB1</title>
<ellipse fill="none" stroke="black" cx="607.19" cy="-1369.75" rx="108.38" ry="48.17"/>
<text text-anchor="middle" x="607.19" y="-1388.55" font-family="Times New Roman,serif" font-size="14.00">[15..24)</text>
<text text-anchor="middle" x="607.19" y="-1373.55" font-family="Times New Roman,serif" font-size="14.00">Count: 88</text>
<text text-anchor="middle" x="607.19" y="-1358.55" font-family="Times New Roman,serif" font-size="14.00">Normalized count: 88.00</text>
<text text-anchor="middle" x="607.19" y="-1343.55" font-family="Times New Roman,serif" font-size="14.00">Samples weight: 0.00</text>
</g>
<!-- BB5 -->
<g id="node6" class="node">
<title>BB5</title>
<ellipse fill="none" stroke="black" cx="607.19" cy="-1237.58" rx="118.17" ry="48.17"/>
<text text-anchor="middle" x="607.19" y="-1256.38" font-family="Times New Roman,serif" font-size="14.00">[44..49)</text>
<text text-anchor="middle" x="607.19" y="-1241.38" font-family="Times New Roman,serif" font-size="14.00">Count: 9353</text>
<text text-anchor="middle" x="607.19" y="-1226.38" font-family="Times New Roman,serif" font-size="14.00">Normalized count: 9353.00</text>
<text text-anchor="middle" x="607.19" y="-1211.38" font-family="Times New Roman,serif" font-size="14.00">Samples weight: 0.00</text>
</g>
<!-- BB1&#45;&gt;BB5 -->
<g id="edge2" class="edge">
<title>BB1&#45;&gt;BB5</title>
<path fill="none" stroke="black" d="M607.19,-1321.39C607.19,-1313.12 607.19,-1304.44 607.19,-1295.93"/>
<polygon fill="black" stroke="black" points="610.69,-1295.69 607.19,-1285.69 603.69,-1295.69 610.69,-1295.69"/>
</g>
<!-- BB2 -->
<g id="node3" class="node">
<title>BB2</title>
<ellipse fill="none" stroke="black" cx="607.19" cy="-1105.42" rx="122.16" ry="48.17"/>
<text text-anchor="middle" x="607.19" y="-1124.22" font-family="Times New Roman,serif" font-size="14.00">[24..32)</text>
<text text-anchor="middle" x="607.19" y="-1109.22" font-family="Times New Roman,serif" font-size="14.00">Count: 17868</text>
<text text-anchor="middle" x="607.19" y="-1094.22" font-family="Times New Roman,serif" font-size="14.00">Normalized count: 17868.00</text>
<text text-anchor="middle" x="607.19" y="-1079.22" font-family="Times New Roman,serif" font-size="14.00">Samples weight: 0.01</text>
</g>
<!-- BB3 -->
<g id="node4" class="node">
<title>BB3</title>
<ellipse fill="none" stroke="black" cx="571.19" cy="-973.25" rx="113.27" ry="48.17"/>
<text text-anchor="middle" x="571.19" y="-992.05" font-family="Times New Roman,serif" font-size="14.00">[32..3e)</text>
<text text-anchor="middle" x="571.19" y="-977.05" font-family="Times New Roman,serif" font-size="14.00">Count: 932</text>
<text text-anchor="middle" x="571.19" y="-962.05" font-family="Times New Roman,serif" font-size="14.00">Normalized count: 932.00</text>
<text text-anchor="middle" x="571.19" y="-947.05" font-family="Times New Roman,serif" font-size="14.00">Samples weight: 0.00</text>
</g>
<!-- BB2&#45;&gt;BB3 -->
<g id="edge4" class="edge">
<title>BB2&#45;&gt;BB3</title>
<path fill="none" stroke="black" d="M594.19,-1057.42C591.82,-1048.85 589.32,-1039.82 586.88,-1031.01"/>
<polygon fill="black" stroke="black" points="590.2,-1029.88 584.17,-1021.17 583.46,-1031.74 590.2,-1029.88"/>
</g>
<!-- BB4 -->
<g id="node5" class="node">
<title>BB4</title>
<ellipse fill="none" stroke="black" cx="820.19" cy="-973.25" rx="118.17" ry="48.17"/>
<text text-anchor="middle" x="820.19" y="-992.05" font-family="Times New Roman,serif" font-size="14.00">[3e..44)</text>
<text text-anchor="middle" x="820.19" y="-977.05" font-family="Times New Roman,serif" font-size="14.00">Count: 9260</text>
<text text-anchor="middle" x="820.19" y="-962.05" font-family="Times New Roman,serif" font-size="14.00">Normalized count: 9260.00</text>
<text text-anchor="middle" x="820.19" y="-947.05" font-family="Times New Roman,serif" font-size="14.00">Samples weight: 0.00</text>
</g>
<!-- BB2&#45;&gt;BB4 -->
<g id="edge3" class="edge">
<title>BB2&#45;&gt;BB4</title>
<path fill="none" stroke="black" d="M672.25,-1064.65C695.79,-1050.27 722.52,-1033.93 746.73,-1019.14"/>
<polygon fill="black" stroke="black" points="748.81,-1021.97 755.52,-1013.77 745.16,-1016 748.81,-1021.97"/>
</g>
<!-- BB3&#45;&gt;BB4 -->
<g id="edge5" class="edge">
<title>BB3&#45;&gt;BB4</title>
<path fill="none" stroke="black" d="M684.5,-973.25C686.96,-973.25 689.42,-973.25 691.88,-973.25"/>
<polygon fill="black" stroke="black" points="691.99,-976.75 701.99,-973.25 691.99,-969.75 691.99,-976.75"/>
</g>
<!-- BB4&#45;&gt;BB5 -->
<g id="edge6" class="edge">
<title>BB4&#45;&gt;BB5</title>
<path fill="none" stroke="black" d="M807.01,-1021.1C794.28,-1059.92 771.93,-1114.82 738.19,-1153.5 724.57,-1169.11 707.31,-1182.84 689.83,-1194.41"/>
<polygon fill="black" stroke="black" points="687.77,-1191.57 681.24,-1199.91 691.55,-1197.46 687.77,-1191.57"/>
</g>
<!-- BB5&#45;&gt;BB2 -->
<g id="edge7" class="edge">
<title>BB5&#45;&gt;BB2</title>
<path fill="none" stroke="black" d="M607.19,-1189.22C607.19,-1180.95 607.19,-1172.27 607.19,-1163.77"/>
<polygon fill="black" stroke="black" points="610.69,-1163.52 607.19,-1153.52 603.69,-1163.52 610.69,-1163.52"/>
</g>
<!-- BB6 -->
<g id="node7" class="node">
<title>BB6</title>
<ellipse fill="none" stroke="black" cx="337.19" cy="-1105.42" rx="108.38" ry="48.17"/>
<text text-anchor="middle" x="337.19" y="-1124.22" font-family="Times New Roman,serif" font-size="14.00">[49..55)</text>
<text text-anchor="middle" x="337.19" y="-1109.22" font-family="Times New Roman,serif" font-size="14.00">Count: 94</text>
<text text-anchor="middle" x="337.19" y="-1094.22" font-family="Times New Roman,serif" font-size="14.00">Normalized count: 94.00</text>
<text text-anchor="middle" x="337.19" y="-1079.22" font-family="Times New Roman,serif" font-size="14.00">Samples weight: 0.00</text>
</g>
<!-- BB5&#45;&gt;BB6 -->
<g id="edge8" class="edge">
<title>BB5&#45;&gt;BB6</title>
<path fill="none" stroke="black" d="M531.98,-1200.32C496.73,-1183.33 454.68,-1163.06 418.68,-1145.7"/>
<polygon fill="black" stroke="black" points="420.19,-1142.55 409.67,-1141.36 417.16,-1148.85 420.19,-1142.55"/>
</g>
<!-- BB7 -->
<g id="node8" class="node">
<title>BB7</title>
<ellipse fill="none" stroke="black" cx="337.19" cy="-973.25" rx="103.48" ry="48.17"/>
<text text-anchor="middle" x="337.19" y="-992.05" font-family="Times New Roman,serif" font-size="14.00">[55..57)</text>
<text text-anchor="middle" x="337.19" y="-977.05" font-family="Times New Roman,serif" font-size="14.00">Count: 0</text>
<text text-anchor="middle" x="337.19" y="-962.05" font-family="Times New Roman,serif" font-size="14.00">Normalized count: 0.00</text>
<text text-anchor="middle" x="337.19" y="-947.05" font-family="Times New Roman,serif" font-size="14.00">Samples weight: 0.00</text>
</g>
<!-- BB6&#45;&gt;BB7 -->
<g id="edge10" class="edge">
<title>BB6&#45;&gt;BB7</title>
<path fill="none" stroke="black" d="M337.19,-1057.05C337.19,-1048.79 337.19,-1040.1 337.19,-1031.6"/>
<polygon fill="black" stroke="black" points="340.69,-1031.36 337.19,-1021.36 333.69,-1031.36 340.69,-1031.36"/>
</g>
<!-- BB8 -->
<g id="node9" class="node">
<title>BB8</title>
<ellipse fill="none" stroke="black" cx="108.19" cy="-973.25" rx="108.38" ry="48.17"/>
<text text-anchor="middle" x="108.19" y="-992.05" font-family="Times New Roman,serif" font-size="14.00">[57..6d)</text>
<text text-anchor="middle" x="108.19" y="-977.05" font-family="Times New Roman,serif" font-size="14.00">Count: 86</text>
<text text-anchor="middle" x="108.19" y="-962.05" font-family="Times New Roman,serif" font-size="14.00">Normalized count: 86.00</text>
<text text-anchor="middle" x="108.19" y="-947.05" font-family="Times New Roman,serif" font-size="14.00">Samples weight: 0.00</text>
</g>
<!-- BB6&#45;&gt;BB8 -->
<g id="edge9" class="edge">
<title>BB6&#45;&gt;BB8</title>
<path fill="none" stroke="black" d="M271.57,-1067.11C243.78,-1051.32 211.26,-1032.84 182.59,-1016.54"/>
<polygon fill="black" stroke="black" points="184.24,-1013.45 173.82,-1011.55 180.78,-1019.54 184.24,-1013.45"/>
</g>
<!-- BB8&#45;&gt;BB9 -->
<g id="edge11" class="edge">
<title>BB8&#45;&gt;BB9</title>
<path fill="none" stroke="black" d="M133,-1020.44C154.04,-1057.88 186.16,-1111.18 220.19,-1153.5 325.42,-1284.37 361.33,-1310.14 490.19,-1417.83 505.57,-1430.69 522.84,-1443.67 539.3,-1455.43"/>
<polygon fill="black" stroke="black" points="537.63,-1458.54 547.81,-1461.46 541.68,-1452.83 537.63,-1458.54"/>
</g>
<!-- BB9&#45;&gt;BB1 -->
<g id="edge12" class="edge">
<title>BB9&#45;&gt;BB1</title>
<path fill="none" stroke="black" d="M607.19,-1453.55C607.19,-1445.29 607.19,-1436.6 607.19,-1428.1"/>
<polygon fill="black" stroke="black" points="610.69,-1427.86 607.19,-1417.86 603.69,-1427.86 610.69,-1427.86"/>
</g>
<!-- BB10 -->
<g id="node11" class="node">
<title>BB10</title>
<ellipse fill="none" stroke="black" cx="869.19" cy="-1369.75" rx="103.48" ry="48.17"/>
<text text-anchor="middle" x="869.19" y="-1388.55" font-family="Times New Roman,serif" font-size="14.00">[71..79)</text>
<text text-anchor="middle" x="869.19" y="-1373.55" font-family="Times New Roman,serif" font-size="14.00">Count: 0</text>
<text text-anchor="middle" x="869.19" y="-1358.55" font-family="Times New Roman,serif" font-size="14.00">Normalized count: 0.00</text>
<text text-anchor="middle" x="869.19" y="-1343.55" font-family="Times New Roman,serif" font-size="14.00">Samples weight: 0.00</text>
</g>
<!-- BB9&#45;&gt;BB10 -->
<g id="edge13" class="edge">
<title>BB9&#45;&gt;BB10</title>
<path fill="none" stroke="black" d="M678.43,-1465.52C712.93,-1448.38 754.46,-1427.75 789.95,-1410.11"/>
<polygon fill="black" stroke="black" points="791.92,-1413.05 799.31,-1405.46 788.8,-1406.78 791.92,-1413.05"/>
</g>
<!-- BB40 -->
<g id="node41" class="node">
<title>BB40</title>
<ellipse fill="none" stroke="black" cx="1031.19" cy="-1237.58" rx="113.27" ry="48.17"/>
<text text-anchor="middle" x="1031.19" y="-1256.38" font-family="Times New Roman,serif" font-size="14.00">[1d7..1df)</text>
<text text-anchor="middle" x="1031.19" y="-1241.38" font-family="Times New Roman,serif" font-size="14.00">Count: 224</text>
<text text-anchor="middle" x="1031.19" y="-1226.38" font-family="Times New Roman,serif" font-size="14.00">Normalized count: 224.00</text>
<text text-anchor="middle" x="1031.19" y="-1211.38" font-family="Times New Roman,serif" font-size="14.00">Samples weight: 0.00</text>
</g>
<!-- BB10&#45;&gt;BB40 -->
<g id="edge14" class="edge">
<title>BB10&#45;&gt;BB40</title>
<path fill="none" stroke="black" d="M920.45,-1327.56C936.54,-1314.63 954.45,-1300.24 971.09,-1286.87"/>
<polygon fill="black" stroke="black" points="973.55,-1289.39 979.15,-1280.39 969.16,-1283.93 973.55,-1289.39"/>
</g>
<!-- BB11 -->
<g id="node12" class="node">
<title>BB11</title>
<ellipse fill="none" stroke="black" cx="2229.19" cy="-1105.42" rx="113.27" ry="48.17"/>
<text text-anchor="middle" x="2229.19" y="-1124.22" font-family="Times New Roman,serif" font-size="14.00">[79..7d)</text>
<text text-anchor="middle" x="2229.19" y="-1109.22" font-family="Times New Roman,serif" font-size="14.00">Count: 243</text>
<text text-anchor="middle" x="2229.19" y="-1094.22" font-family="Times New Roman,serif" font-size="14.00">Normalized count: 243.00</text>
<text text-anchor="middle" x="2229.19" y="-1079.22" font-family="Times New Roman,serif" font-size="14.00">Samples weight: 0.00</text>
</g>
<!-- BB12 -->
<g id="node13" class="node">
<title>BB12</title>
<ellipse fill="none" stroke="black" cx="2491.19" cy="-973.25" rx="113.27" ry="48.17"/>
<text text-anchor="middle" x="2491.19" y="-992.05" font-family="Times New Roman,serif" font-size="14.00">[7d..81)</text>
<text text-anchor="middle" x="2491.19" y="-977.05" font-family="Times New Roman,serif" font-size="14.00">Count: 243</text>
<text text-anchor="middle" x="2491.19" y="-962.05" font-family="Times New Roman,serif" font-size="14.00">Normalized count: 243.00</text>
<text text-anchor="middle" x="2491.19" y="-947.05" font-family="Times New Roman,serif" font-size="14.00">Samples weight: 0.00</text>
</g>
<!-- BB11&#45;&gt;BB12 -->
<g id="edge16" class="edge">
<title>BB11&#45;&gt;BB12</title>
<path fill="none" stroke="black" d="M2301.82,-1068.33C2335.19,-1051.75 2374.9,-1032.02 2409.32,-1014.92"/>
<polygon fill="black" stroke="black" points="2411.01,-1017.99 2418.41,-1010.4 2407.9,-1011.72 2411.01,-1017.99"/>
</g>
<!-- BB19 -->
<g id="node20" class="node">
<title>BB19</title>
<ellipse fill="none" stroke="black" cx="2229.19" cy="-973.25" rx="113.27" ry="48.17"/>
<text text-anchor="middle" x="2229.19" y="-992.05" font-family="Times New Roman,serif" font-size="14.00">[bc..cb)</text>
<text text-anchor="middle" x="2229.19" y="-977.05" font-family="Times New Roman,serif" font-size="14.00">Count: 249</text>
<text text-anchor="middle" x="2229.19" y="-962.05" font-family="Times New Roman,serif" font-size="14.00">Normalized count: 249.00</text>
<text text-anchor="middle" x="2229.19" y="-947.05" font-family="Times New Roman,serif" font-size="14.00">Samples weight: 0.00</text>
</g>
<!-- BB11&#45;&gt;BB19 -->
<g id="edge15" class="edge">
<title>BB11&#45;&gt;BB19</title>
<path fill="none" stroke="black" d="M2229.19,-1057.05C2229.19,-1048.79 2229.19,-1040.1 2229.19,-1031.6"/>
<polygon fill="black" stroke="black" points="2232.69,-1031.36 2229.19,-1021.36 2225.69,-1031.36 2232.69,-1031.36"/>
</g>
<!-- BB18 -->
<g id="node19" class="node">
<title>BB18</title>
<ellipse fill="none" stroke="black" cx="2501.19" cy="-841.08" rx="122.16" ry="48.17"/>
<text text-anchor="middle" x="2501.19" y="-859.88" font-family="Times New Roman,serif" font-size="14.00">[b7..bc)</text>
<text text-anchor="middle" x="2501.19" y="-844.88" font-family="Times New Roman,serif" font-size="14.00">Count: 13444</text>
<text text-anchor="middle" x="2501.19" y="-829.88" font-family="Times New Roman,serif" font-size="14.00">Normalized count: 13444.00</text>
<text text-anchor="middle" x="2501.19" y="-814.88" font-family="Times New Roman,serif" font-size="14.00">Samples weight: 0.01</text>
</g>
<!-- BB12&#45;&gt;BB18 -->
<g id="edge17" class="edge">
<title>BB12&#45;&gt;BB18</title>
<path fill="none" stroke="black" d="M2494.83,-924.89C2495.46,-916.62 2496.13,-907.94 2496.78,-899.43"/>
<polygon fill="black" stroke="black" points="2500.29,-899.43 2497.57,-889.19 2493.31,-898.89 2500.29,-899.43"/>
</g>
<!-- BB13 -->
<g id="node14" class="node">
<title>BB13</title>
<ellipse fill="none" stroke="black" cx="2511.19" cy="-708.92" rx="122.16" ry="48.17"/>
<text text-anchor="middle" x="2511.19" y="-727.72" font-family="Times New Roman,serif" font-size="14.00">[81..8b)</text>
<text text-anchor="middle" x="2511.19" y="-712.72" font-family="Times New Roman,serif" font-size="14.00">Count: 13741</text>
<text text-anchor="middle" x="2511.19" y="-697.72" font-family="Times New Roman,serif" font-size="14.00">Normalized count: 13741.00</text>
<text text-anchor="middle" x="2511.19" y="-682.72" font-family="Times New Roman,serif" font-size="14.00">Samples weight: 0.01</text>
</g>
<!-- BB14 -->
<g id="node15" class="node">
<title>BB14</title>
<ellipse fill="none" stroke="black" cx="2511.19" cy="-576.75" rx="122.16" ry="48.17"/>
<text text-anchor="middle" x="2511.19" y="-595.55" font-family="Times New Roman,serif" font-size="14.00">[8b..90)</text>
<text text-anchor="middle" x="2511.19" y="-580.55" font-family="Times New Roman,serif" font-size="14.00">Count: 13503</text>
<text text-anchor="middle" x="2511.19" y="-565.55" font-family="Times New Roman,serif" font-size="14.00">Normalized count: 13503.00</text>
<text text-anchor="middle" x="2511.19" y="-550.55" font-family="Times New Roman,serif" font-size="14.00">Samples weight: 0.01</text>
</g>
<!-- BB13&#45;&gt;BB14 -->
<g id="edge19" class="edge">
<title>BB13&#45;&gt;BB14</title>
<path fill="none" stroke="black" d="M2511.19,-660.55C2511.19,-652.29 2511.19,-643.6 2511.19,-635.1"/>
<polygon fill="black" stroke="black" points="2514.69,-634.86 2511.19,-624.86 2507.69,-634.86 2514.69,-634.86"/>
</g>
<!-- BB17 -->
<g id="node18" class="node">
<title>BB17</title>
<ellipse fill="none" stroke="black" cx="2774.19" cy="-576.75" rx="122.16" ry="48.17"/>
<text text-anchor="middle" x="2774.19" y="-595.55" font-family="Times New Roman,serif" font-size="14.00">[ac..b7)</text>
<text text-anchor="middle" x="2774.19" y="-580.55" font-family="Times New Roman,serif" font-size="14.00">Count: 13190</text>
<text text-anchor="middle" x="2774.19" y="-565.55" font-family="Times New Roman,serif" font-size="14.00">Normalized count: 13190.00</text>
<text text-anchor="middle" x="2774.19" y="-550.55" font-family="Times New Roman,serif" font-size="14.00">Samples weight: 0.01</text>
</g>
<!-- BB13&#45;&gt;BB17 -->
<g id="edge18" class="edge">
<title>BB13&#45;&gt;BB17</title>
<path fill="none" stroke="black" d="M2586.2,-670.79C2618.54,-654.79 2656.5,-636 2689.81,-619.51"/>
<polygon fill="black" stroke="black" points="2691.66,-622.5 2699.07,-614.92 2688.56,-616.22 2691.66,-622.5"/>
</g>
<!-- BB16 -->
<g id="node17" class="node">
<title>BB16</title>
<ellipse fill="none" stroke="black" cx="2753.19" cy="-444.58" rx="127.06" ry="48.17"/>
<text text-anchor="middle" x="2753.19" y="-463.38" font-family="Times New Roman,serif" font-size="14.00">[a7..ac)</text>
<text text-anchor="middle" x="2753.19" y="-448.38" font-family="Times New Roman,serif" font-size="14.00">Count: 487715</text>
<text text-anchor="middle" x="2753.19" y="-433.38" font-family="Times New Roman,serif" font-size="14.00">Normalized count: 487715.00</text>
<text text-anchor="middle" x="2753.19" y="-418.38" font-family="Times New Roman,serif" font-size="14.00">Samples weight: 0.23</text>
</g>
<!-- BB14&#45;&gt;BB16 -->
<g id="edge20" class="edge">
<title>BB14&#45;&gt;BB16</title>
<path fill="none" stroke="black" d="M2582.16,-537.57C2610.35,-522.41 2642.93,-504.89 2672.04,-489.23"/>
<polygon fill="black" stroke="black" points="2673.81,-492.25 2680.96,-484.43 2670.49,-486.09 2673.81,-492.25"/>
</g>
<!-- BB15 -->
<g id="node16" class="node">
<title>BB15</title>
<ellipse fill="none" stroke="black" cx="2753.19" cy="-312.42" rx="127.06" ry="48.17"/>
<text text-anchor="middle" x="2753.19" y="-331.22" font-family="Times New Roman,serif" font-size="14.00">[90..a7)</text>
<text text-anchor="middle" x="2753.19" y="-316.22" font-family="Times New Roman,serif" font-size="14.00">Count: 473388</text>
<text text-anchor="middle" x="2753.19" y="-301.22" font-family="Times New Roman,serif" font-size="14.00">Normalized count: 473388.00</text>
<text text-anchor="middle" x="2753.19" y="-286.22" font-family="Times New Roman,serif" font-size="14.00">Samples weight: 0.23</text>
</g>
<!-- BB15&#45;&gt;BB16 -->
<g id="edge21" class="edge">
<title>BB15&#45;&gt;BB16</title>
<path fill="none" stroke="black" d="M2759.7,-360.52C2759.92,-368.78 2759.99,-377.46 2759.9,-385.97"/>
<polygon fill="black" stroke="black" points="2756.39,-386.16 2759.71,-396.22 2763.39,-386.29 2756.39,-386.16"/>
</g>
<!-- BB16&#45;&gt;BB15 -->
<g id="edge22" class="edge">
<title>BB16&#45;&gt;BB15</title>
<path fill="none" stroke="black" d="M2746.66,-396.22C2746.45,-387.95 2746.39,-379.27 2746.48,-370.77"/>
<polygon fill="black" stroke="black" points="2749.98,-370.59 2746.67,-360.52 2742.98,-370.46 2749.98,-370.59"/>
</g>
<!-- BB16&#45;&gt;BB17 -->
<g id="edge23" class="edge">
<title>BB16&#45;&gt;BB17</title>
<path fill="none" stroke="black" d="M2760.83,-492.94C2762.18,-501.33 2763.6,-510.14 2764.99,-518.76"/>
<polygon fill="black" stroke="black" points="2761.56,-519.44 2766.61,-528.76 2768.47,-518.33 2761.56,-519.44"/>
</g>
<!-- BB17&#45;&gt;BB18 -->
<g id="edge24" class="edge">
<title>BB17&#45;&gt;BB18</title>
<path fill="none" stroke="black" d="M2747.65,-623.74C2723.65,-662.56 2685.51,-717.9 2642.19,-757 2625.28,-772.26 2605.15,-786.1 2585.46,-797.93"/>
<polygon fill="black" stroke="black" points="2583.6,-794.96 2576.75,-803.04 2587.15,-800.99 2583.6,-794.96"/>
</g>
<!-- BB18&#45;&gt;BB13 -->
<g id="edge25" class="edge">
<title>BB18&#45;&gt;BB13</title>
<path fill="none" stroke="black" d="M2504.83,-792.72C2505.46,-784.45 2506.13,-775.77 2506.78,-767.27"/>
<polygon fill="black" stroke="black" points="2510.29,-767.26 2507.57,-757.02 2503.31,-766.73 2510.29,-767.26"/>
</g>
<!-- BB18&#45;&gt;BB19 -->
<g id="edge26" class="edge">
<title>BB18&#45;&gt;BB19</title>
<path fill="none" stroke="black" d="M2424.39,-878.83C2389.52,-895.52 2348.19,-915.3 2312.56,-932.35"/>
<polygon fill="black" stroke="black" points="2310.66,-929.38 2303.15,-936.85 2313.68,-935.69 2310.66,-929.38"/>
</g>
<!-- BB27 -->
<g id="node28" class="node">
<title>BB27</title>
<ellipse fill="none" stroke="black" cx="2220.19" cy="-841.08" rx="122.16" ry="48.17"/>
<text text-anchor="middle" x="2220.19" y="-859.88" font-family="Times New Roman,serif" font-size="14.00">[11b..11f)</text>
<text text-anchor="middle" x="2220.19" y="-844.88" font-family="Times New Roman,serif" font-size="14.00">Count: 13135</text>
<text text-anchor="middle" x="2220.19" y="-829.88" font-family="Times New Roman,serif" font-size="14.00">Normalized count: 13135.00</text>
<text text-anchor="middle" x="2220.19" y="-814.88" font-family="Times New Roman,serif" font-size="14.00">Samples weight: 0.01</text>
</g>
<!-- BB19&#45;&gt;BB27 -->
<g id="edge27" class="edge">
<title>BB19&#45;&gt;BB27</title>
<path fill="none" stroke="black" d="M2225.91,-924.89C2225.34,-916.62 2224.74,-907.94 2224.15,-899.43"/>
<polygon fill="black" stroke="black" points="2227.63,-898.93 2223.44,-889.19 2220.64,-899.41 2227.63,-898.93"/>
</g>
<!-- BB20 -->
<g id="node21" class="node">
<title>BB20</title>
<ellipse fill="none" stroke="black" cx="2211.19" cy="-708.92" rx="122.16" ry="48.17"/>
<text text-anchor="middle" x="2211.19" y="-727.72" font-family="Times New Roman,serif" font-size="14.00">[cb..d6)</text>
<text text-anchor="middle" x="2211.19" y="-712.72" font-family="Times New Roman,serif" font-size="14.00">Count: 12509</text>
<text text-anchor="middle" x="2211.19" y="-697.72" font-family="Times New Roman,serif" font-size="14.00">Normalized count: 12509.00</text>
<text text-anchor="middle" x="2211.19" y="-682.72" font-family="Times New Roman,serif" font-size="14.00">Samples weight: 0.01</text>
</g>
<!-- BB21 -->
<g id="node22" class="node">
<title>BB21</title>
<ellipse fill="none" stroke="black" cx="1948.19" cy="-576.75" rx="122.16" ry="48.17"/>
<text text-anchor="middle" x="1948.19" y="-595.55" font-family="Times New Roman,serif" font-size="14.00">[d6..db)</text>
<text text-anchor="middle" x="1948.19" y="-580.55" font-family="Times New Roman,serif" font-size="14.00">Count: 12433</text>
<text text-anchor="middle" x="1948.19" y="-565.55" font-family="Times New Roman,serif" font-size="14.00">Normalized count: 12433.00</text>
<text text-anchor="middle" x="1948.19" y="-550.55" font-family="Times New Roman,serif" font-size="14.00">Samples weight: 0.01</text>
</g>
<!-- BB20&#45;&gt;BB21 -->
<g id="edge29" class="edge">
<title>BB20&#45;&gt;BB21</title>
<path fill="none" stroke="black" d="M2136.17,-670.79C2103.84,-654.79 2065.88,-636 2032.56,-619.51"/>
<polygon fill="black" stroke="black" points="2033.82,-616.22 2023.3,-614.92 2030.71,-622.5 2033.82,-616.22"/>
</g>
<!-- BB24 -->
<g id="node25" class="node">
<title>BB24</title>
<ellipse fill="none" stroke="black" cx="2211.19" cy="-576.75" rx="122.16" ry="48.17"/>
<text text-anchor="middle" x="2211.19" y="-595.55" font-family="Times New Roman,serif" font-size="14.00">[f8..112)</text>
<text text-anchor="middle" x="2211.19" y="-580.55" font-family="Times New Roman,serif" font-size="14.00">Count: 15844</text>
<text text-anchor="middle" x="2211.19" y="-565.55" font-family="Times New Roman,serif" font-size="14.00">Normalized count: 15844.00</text>
<text text-anchor="middle" x="2211.19" y="-550.55" font-family="Times New Roman,serif" font-size="14.00">Samples weight: 0.01</text>
</g>
<!-- BB20&#45;&gt;BB24 -->
<g id="edge28" class="edge">
<title>BB20&#45;&gt;BB24</title>
<path fill="none" stroke="black" d="M2211.19,-660.55C2211.19,-652.29 2211.19,-643.6 2211.19,-635.1"/>
<polygon fill="black" stroke="black" points="2214.69,-634.86 2211.19,-624.86 2207.69,-634.86 2214.69,-634.86"/>
</g>
<!-- BB23 -->
<g id="node24" class="node">
<title>BB23</title>
<ellipse fill="none" stroke="black" cx="1953.19" cy="-444.58" rx="127.06" ry="48.17"/>
<text text-anchor="middle" x="1953.19" y="-463.38" font-family="Times New Roman,serif" font-size="14.00">[f2..f8)</text>
<text text-anchor="middle" x="1953.19" y="-448.38" font-family="Times New Roman,serif" font-size="14.00">Count: 431138</text>
<text text-anchor="middle" x="1953.19" y="-433.38" font-family="Times New Roman,serif" font-size="14.00">Normalized count: 431138.00</text>
<text text-anchor="middle" x="1953.19" y="-418.38" font-family="Times New Roman,serif" font-size="14.00">Samples weight: 0.21</text>
</g>
<!-- BB21&#45;&gt;BB23 -->
<g id="edge30" class="edge">
<title>BB21&#45;&gt;BB23</title>
<path fill="none" stroke="black" d="M1950.01,-528.39C1950.32,-520.12 1950.66,-511.44 1950.98,-502.93"/>
<polygon fill="black" stroke="black" points="1954.49,-502.82 1951.38,-492.69 1947.5,-502.55 1954.49,-502.82"/>
</g>
<!-- BB22 -->
<g id="node23" class="node">
<title>BB22</title>
<ellipse fill="none" stroke="black" cx="1953.19" cy="-312.42" rx="127.06" ry="48.17"/>
<text text-anchor="middle" x="1953.19" y="-331.22" font-family="Times New Roman,serif" font-size="14.00">[db..f2)</text>
<text text-anchor="middle" x="1953.19" y="-316.22" font-family="Times New Roman,serif" font-size="14.00">Count: 417876</text>
<text text-anchor="middle" x="1953.19" y="-301.22" font-family="Times New Roman,serif" font-size="14.00">Normalized count: 417876.00</text>
<text text-anchor="middle" x="1953.19" y="-286.22" font-family="Times New Roman,serif" font-size="14.00">Samples weight: 0.20</text>
</g>
<!-- BB22&#45;&gt;BB23 -->
<g id="edge31" class="edge">
<title>BB22&#45;&gt;BB23</title>
<path fill="none" stroke="black" d="M1959.7,-360.52C1959.92,-368.78 1959.99,-377.46 1959.9,-385.97"/>
<polygon fill="black" stroke="black" points="1956.39,-386.16 1959.71,-396.22 1963.39,-386.29 1956.39,-386.16"/>
</g>
<!-- BB23&#45;&gt;BB22 -->
<g id="edge32" class="edge">
<title>BB23&#45;&gt;BB22</title>
<path fill="none" stroke="black" d="M1946.66,-396.22C1946.45,-387.95 1946.39,-379.27 1946.48,-370.77"/>
<polygon fill="black" stroke="black" points="1949.98,-370.59 1946.67,-360.52 1942.98,-370.46 1949.98,-370.59"/>
</g>
<!-- BB23&#45;&gt;BB24 -->
<g id="edge33" class="edge">
<title>BB23&#45;&gt;BB24</title>
<path fill="none" stroke="black" d="M2028.28,-483.47C2059.4,-499.17 2095.62,-517.44 2127.58,-533.57"/>
<polygon fill="black" stroke="black" points="2126.4,-536.89 2136.91,-538.27 2129.56,-530.65 2126.4,-536.89"/>
</g>
<!-- BB25 -->
<g id="node26" class="node">
<title>BB25</title>
<ellipse fill="none" stroke="black" cx="2211.19" cy="-444.58" rx="113.27" ry="48.17"/>
<text text-anchor="middle" x="2211.19" y="-463.38" font-family="Times New Roman,serif" font-size="14.00">[112..117)</text>
<text text-anchor="middle" x="2211.19" y="-448.38" font-family="Times New Roman,serif" font-size="14.00">Count: 940</text>
<text text-anchor="middle" x="2211.19" y="-433.38" font-family="Times New Roman,serif" font-size="14.00">Normalized count: 940.00</text>
<text text-anchor="middle" x="2211.19" y="-418.38" font-family="Times New Roman,serif" font-size="14.00">Samples weight: 0.00</text>
</g>
<!-- BB24&#45;&gt;BB25 -->
<g id="edge35" class="edge">
<title>BB24&#45;&gt;BB25</title>
<path fill="none" stroke="black" d="M2211.19,-528.39C2211.19,-520.12 2211.19,-511.44 2211.19,-502.93"/>
<polygon fill="black" stroke="black" points="2214.69,-502.69 2211.19,-492.69 2207.69,-502.69 2214.69,-502.69"/>
</g>
<!-- BB26 -->
<g id="node27" class="node">
<title>BB26</title>
<ellipse fill="none" stroke="black" cx="2464.19" cy="-444.58" rx="122.16" ry="48.17"/>
<text text-anchor="middle" x="2464.19" y="-463.38" font-family="Times New Roman,serif" font-size="14.00">[117..11b)</text>
<text text-anchor="middle" x="2464.19" y="-448.38" font-family="Times New Roman,serif" font-size="14.00">Count: 12870</text>
<text text-anchor="middle" x="2464.19" y="-433.38" font-family="Times New Roman,serif" font-size="14.00">Normalized count: 12870.00</text>
<text text-anchor="middle" x="2464.19" y="-418.38" font-family="Times New Roman,serif" font-size="14.00">Samples weight: 0.01</text>
</g>
<!-- BB24&#45;&gt;BB26 -->
<g id="edge34" class="edge">
<title>BB24&#45;&gt;BB26</title>
<path fill="none" stroke="black" d="M2284.37,-538.1C2314.78,-522.45 2350.23,-504.21 2381.58,-488.08"/>
<polygon fill="black" stroke="black" points="2383.44,-491.06 2390.74,-483.37 2380.24,-484.84 2383.44,-491.06"/>
</g>
<!-- BB25&#45;&gt;BB26 -->
<g id="edge36" class="edge">
<title>BB25&#45;&gt;BB26</title>
<path fill="none" stroke="black" d="M2324.35,-444.58C2326.8,-444.58 2329.26,-444.58 2331.72,-444.58"/>
<polygon fill="black" stroke="black" points="2331.83,-448.08 2341.83,-444.58 2331.83,-441.08 2331.83,-448.08"/>
</g>
<!-- BB26&#45;&gt;BB27 -->
<g id="edge37" class="edge">
<title>BB26&#45;&gt;BB27</title>
<path fill="none" stroke="black" d="M2410.81,-488.29C2399.04,-500.18 2387.83,-513.91 2380.19,-528.67 2332.87,-620.02 2397.61,-670.33 2342.19,-757 2332.29,-772.48 2318.36,-785.81 2303.44,-796.98"/>
<polygon fill="black" stroke="black" points="2301.17,-794.3 2295.06,-802.96 2305.23,-799.99 2301.17,-794.3"/>
</g>
<!-- BB27&#45;&gt;BB20 -->
<g id="edge38" class="edge">
<title>BB27&#45;&gt;BB20</title>
<path fill="none" stroke="black" d="M2216.91,-792.72C2216.34,-784.45 2215.74,-775.77 2215.15,-767.27"/>
<polygon fill="black" stroke="black" points="2218.63,-766.76 2214.44,-757.02 2211.64,-767.24 2218.63,-766.76"/>
</g>
<!-- BB28 -->
<g id="node29" class="node">
<title>BB28</title>
<ellipse fill="none" stroke="black" cx="1685.19" cy="-708.92" rx="113.27" ry="48.17"/>
<text text-anchor="middle" x="1685.19" y="-727.72" font-family="Times New Roman,serif" font-size="14.00">[11f..125)</text>
<text text-anchor="middle" x="1685.19" y="-712.72" font-family="Times New Roman,serif" font-size="14.00">Count: 483</text>
<text text-anchor="middle" x="1685.19" y="-697.72" font-family="Times New Roman,serif" font-size="14.00">Normalized count: 483.00</text>
<text text-anchor="middle" x="1685.19" y="-682.72" font-family="Times New Roman,serif" font-size="14.00">Samples weight: 0.00</text>
</g>
<!-- BB27&#45;&gt;BB28 -->
<g id="edge39" class="edge">
<title>BB27&#45;&gt;BB28</title>
<path fill="none" stroke="black" d="M2117.03,-814.98C2023.78,-792.3 1887.01,-759.02 1792.49,-736.02"/>
<polygon fill="black" stroke="black" points="1793.16,-732.58 1782.61,-733.62 1791.5,-739.39 1793.16,-732.58"/>
</g>
<!-- BB29 -->
<g id="node30" class="node">
<title>BB29</title>
<ellipse fill="none" stroke="black" cx="1685.19" cy="-576.75" rx="113.27" ry="48.17"/>
<text text-anchor="middle" x="1685.19" y="-595.55" font-family="Times New Roman,serif" font-size="14.00">[125..12a)</text>
<text text-anchor="middle" x="1685.19" y="-580.55" font-family="Times New Roman,serif" font-size="14.00">Count: 474</text>
<text text-anchor="middle" x="1685.19" y="-565.55" font-family="Times New Roman,serif" font-size="14.00">Normalized count: 474.00</text>
<text text-anchor="middle" x="1685.19" y="-550.55" font-family="Times New Roman,serif" font-size="14.00">Samples weight: 0.00</text>
</g>
<!-- BB28&#45;&gt;BB29 -->
<g id="edge41" class="edge">
<title>BB28&#45;&gt;BB29</title>
<path fill="none" stroke="black" d="M1685.19,-660.55C1685.19,-652.29 1685.19,-643.6 1685.19,-635.1"/>
<polygon fill="black" stroke="black" points="1688.69,-634.86 1685.19,-624.86 1681.69,-634.86 1688.69,-634.86"/>
</g>
<!-- BB33 -->
<g id="node34" class="node">
<title>BB33</title>
<ellipse fill="none" stroke="black" cx="1412.19" cy="-576.75" rx="113.27" ry="48.17"/>
<text text-anchor="middle" x="1412.19" y="-595.55" font-family="Times New Roman,serif" font-size="14.00">[17a..192)</text>
<text text-anchor="middle" x="1412.19" y="-580.55" font-family="Times New Roman,serif" font-size="14.00">Count: 261</text>
<text text-anchor="middle" x="1412.19" y="-565.55" font-family="Times New Roman,serif" font-size="14.00">Normalized count: 261.00</text>
<text text-anchor="middle" x="1412.19" y="-550.55" font-family="Times New Roman,serif" font-size="14.00">Samples weight: 0.00</text>
</g>
<!-- BB28&#45;&gt;BB33 -->
<g id="edge40" class="edge">
<title>BB28&#45;&gt;BB33</title>
<path fill="none" stroke="black" d="M1610.95,-672.52C1575.29,-655.52 1532.41,-635.07 1495.62,-617.53"/>
<polygon fill="black" stroke="black" points="1496.94,-614.28 1486.41,-613.14 1493.93,-620.6 1496.94,-614.28"/>
</g>
<!-- BB31 -->
<g id="node32" class="node">
<title>BB31</title>
<ellipse fill="none" stroke="black" cx="1685.19" cy="-444.58" rx="122.16" ry="48.17"/>
<text text-anchor="middle" x="1685.19" y="-463.38" font-family="Times New Roman,serif" font-size="14.00">[14e..153)</text>
<text text-anchor="middle" x="1685.19" y="-448.38" font-family="Times New Roman,serif" font-size="14.00">Count: 47085</text>
<text text-anchor="middle" x="1685.19" y="-433.38" font-family="Times New Roman,serif" font-size="14.00">Normalized count: 47085.00</text>
<text text-anchor="middle" x="1685.19" y="-418.38" font-family="Times New Roman,serif" font-size="14.00">Samples weight: 0.02</text>
</g>
<!-- BB29&#45;&gt;BB31 -->
<g id="edge42" class="edge">
<title>BB29&#45;&gt;BB31</title>
<path fill="none" stroke="black" d="M1685.19,-528.39C1685.19,-520.12 1685.19,-511.44 1685.19,-502.93"/>
<polygon fill="black" stroke="black" points="1688.69,-502.69 1685.19,-492.69 1681.69,-502.69 1688.69,-502.69"/>
</g>
<!-- BB30 -->
<g id="node31" class="node">
<title>BB30</title>
<ellipse fill="none" stroke="black" cx="1685.19" cy="-312.42" rx="122.16" ry="48.17"/>
<text text-anchor="middle" x="1685.19" y="-331.22" font-family="Times New Roman,serif" font-size="14.00">[12a..14e)</text>
<text text-anchor="middle" x="1685.19" y="-316.22" font-family="Times New Roman,serif" font-size="14.00">Count: 46583</text>
<text text-anchor="middle" x="1685.19" y="-301.22" font-family="Times New Roman,serif" font-size="14.00">Normalized count: 46583.00</text>
<text text-anchor="middle" x="1685.19" y="-286.22" font-family="Times New Roman,serif" font-size="14.00">Samples weight: 0.02</text>
</g>
<!-- BB30&#45;&gt;BB31 -->
<g id="edge43" class="edge">
<title>BB30&#45;&gt;BB31</title>
<path fill="none" stroke="black" d="M1691.7,-360.52C1691.92,-368.78 1691.99,-377.46 1691.9,-385.97"/>
<polygon fill="black" stroke="black" points="1688.39,-386.16 1691.71,-396.22 1695.39,-386.29 1688.39,-386.16"/>
</g>
<!-- BB31&#45;&gt;BB30 -->
<g id="edge44" class="edge">
<title>BB31&#45;&gt;BB30</title>
<path fill="none" stroke="black" d="M1678.66,-396.22C1678.45,-387.95 1678.39,-379.27 1678.48,-370.77"/>
<polygon fill="black" stroke="black" points="1681.98,-370.59 1678.67,-360.52 1674.98,-370.46 1681.98,-370.59"/>
</g>
<!-- BB32 -->
<g id="node33" class="node">
<title>BB32</title>
<ellipse fill="none" stroke="black" cx="1432.19" cy="-312.42" rx="113.27" ry="48.17"/>
<text text-anchor="middle" x="1432.19" y="-331.22" font-family="Times New Roman,serif" font-size="14.00">[153..17a)</text>
<text text-anchor="middle" x="1432.19" y="-316.22" font-family="Times New Roman,serif" font-size="14.00">Count: 252</text>
<text text-anchor="middle" x="1432.19" y="-301.22" font-family="Times New Roman,serif" font-size="14.00">Normalized count: 252.00</text>
<text text-anchor="middle" x="1432.19" y="-286.22" font-family="Times New Roman,serif" font-size="14.00">Samples weight: 0.00</text>
</g>
<!-- BB31&#45;&gt;BB32 -->
<g id="edge45" class="edge">
<title>BB31&#45;&gt;BB32</title>
<path fill="none" stroke="black" d="M1612.01,-405.93C1580.93,-389.94 1544.59,-371.25 1512.75,-354.86"/>
<polygon fill="black" stroke="black" points="1513.95,-351.55 1503.46,-350.08 1510.75,-357.77 1513.95,-351.55"/>
</g>
<!-- BB32&#45;&gt;BB33 -->
<g id="edge46" class="edge">
<title>BB32&#45;&gt;BB33</title>
<path fill="none" stroke="black" d="M1473.71,-357.33C1482.49,-369.18 1490.51,-382.6 1495.19,-396.5 1508.81,-437.01 1511.53,-453.17 1495.19,-492.67 1490.09,-504.98 1482.19,-516.41 1473.25,-526.63"/>
<polygon fill="black" stroke="black" points="1470.47,-524.48 1466.23,-534.19 1475.6,-529.23 1470.47,-524.48"/>
</g>
<!-- BB34 -->
<g id="node35" class="node">
<title>BB34</title>
<ellipse fill="none" stroke="black" cx="1383.19" cy="-444.58" rx="103.48" ry="48.17"/>
<text text-anchor="middle" x="1383.19" y="-463.38" font-family="Times New Roman,serif" font-size="14.00">[192..19b)</text>
<text text-anchor="middle" x="1383.19" y="-448.38" font-family="Times New Roman,serif" font-size="14.00">Count: 0</text>
<text text-anchor="middle" x="1383.19" y="-433.38" font-family="Times New Roman,serif" font-size="14.00">Normalized count: 0.00</text>
<text text-anchor="middle" x="1383.19" y="-418.38" font-family="Times New Roman,serif" font-size="14.00">Samples weight: 0.00</text>
</g>
<!-- BB33&#45;&gt;BB34 -->
<g id="edge48" class="edge">
<title>BB33&#45;&gt;BB34</title>
<path fill="none" stroke="black" d="M1401.72,-528.76C1399.81,-520.18 1397.8,-511.16 1395.83,-502.34"/>
<polygon fill="black" stroke="black" points="1399.23,-501.51 1393.64,-492.51 1392.4,-503.03 1399.23,-501.51"/>
</g>
<!-- BB35 -->
<g id="node36" class="node">
<title>BB35</title>
<ellipse fill="none" stroke="black" cx="1149.19" cy="-444.58" rx="113.27" ry="48.17"/>
<text text-anchor="middle" x="1149.19" y="-463.38" font-family="Times New Roman,serif" font-size="14.00">[19b..1a2)</text>
<text text-anchor="middle" x="1149.19" y="-448.38" font-family="Times New Roman,serif" font-size="14.00">Count: 261</text>
<text text-anchor="middle" x="1149.19" y="-433.38" font-family="Times New Roman,serif" font-size="14.00">Normalized count: 261.00</text>
<text text-anchor="middle" x="1149.19" y="-418.38" font-family="Times New Roman,serif" font-size="14.00">Samples weight: 0.00</text>
</g>
<!-- BB33&#45;&gt;BB35 -->
<g id="edge47" class="edge">
<title>BB33&#45;&gt;BB35</title>
<path fill="none" stroke="black" d="M1339.63,-539.84C1305.99,-523.19 1265.86,-503.33 1231.14,-486.14"/>
<polygon fill="black" stroke="black" points="1232.48,-482.9 1221.97,-481.6 1229.38,-489.18 1232.48,-482.9"/>
</g>
<!-- BB34&#45;&gt;BB35 -->
<g id="edge49" class="edge">
<title>BB34&#45;&gt;BB35</title>
<path fill="none" stroke="black" d="M1279.5,-444.58C1277.2,-444.58 1274.9,-444.58 1272.61,-444.58"/>
<polygon fill="black" stroke="black" points="1272.53,-441.08 1262.53,-444.58 1272.53,-448.08 1272.53,-441.08"/>
</g>
<!-- BB36 -->
<g id="node37" class="node">
<title>BB36</title>
<ellipse fill="none" stroke="black" cx="1188.19" cy="-312.42" rx="113.27" ry="48.17"/>
<text text-anchor="middle" x="1188.19" y="-331.22" font-family="Times New Roman,serif" font-size="14.00">[1a2..1bb)</text>
<text text-anchor="middle" x="1188.19" y="-316.22" font-family="Times New Roman,serif" font-size="14.00">Count: 259</text>
<text text-anchor="middle" x="1188.19" y="-301.22" font-family="Times New Roman,serif" font-size="14.00">Normalized count: 259.00</text>
<text text-anchor="middle" x="1188.19" y="-286.22" font-family="Times New Roman,serif" font-size="14.00">Samples weight: 0.00</text>
</g>
<!-- BB35&#45;&gt;BB36 -->
<g id="edge51" class="edge">
<title>BB35&#45;&gt;BB36</title>
<path fill="none" stroke="black" d="M1163.27,-396.59C1165.84,-388.02 1168.54,-378.99 1171.18,-370.17"/>
<polygon fill="black" stroke="black" points="1174.61,-370.92 1174.13,-360.34 1167.91,-368.92 1174.61,-370.92"/>
</g>
<!-- BB39 -->
<g id="node40" class="node">
<title>BB39</title>
<ellipse fill="none" stroke="black" cx="944.19" cy="-312.42" rx="113.27" ry="48.17"/>
<text text-anchor="middle" x="944.19" y="-331.22" font-family="Times New Roman,serif" font-size="14.00">[1d1..1d7)</text>
<text text-anchor="middle" x="944.19" y="-316.22" font-family="Times New Roman,serif" font-size="14.00">Count: 224</text>
<text text-anchor="middle" x="944.19" y="-301.22" font-family="Times New Roman,serif" font-size="14.00">Normalized count: 224.00</text>
<text text-anchor="middle" x="944.19" y="-286.22" font-family="Times New Roman,serif" font-size="14.00">Samples weight: 0.00</text>
</g>
<!-- BB35&#45;&gt;BB39 -->
<g id="edge50" class="edge">
<title>BB35&#45;&gt;BB39</title>
<path fill="none" stroke="black" d="M1087.12,-404.18C1064.24,-389.65 1038.16,-373.09 1014.6,-358.12"/>
<polygon fill="black" stroke="black" points="1016.36,-355.1 1006.04,-352.69 1012.61,-361 1016.36,-355.1"/>
</g>
<!-- BB38 -->
<g id="node39" class="node">
<title>BB38</title>
<ellipse fill="none" stroke="black" cx="1066.19" cy="-180.25" rx="122.16" ry="48.17"/>
<text text-anchor="middle" x="1066.19" y="-199.05" font-family="Times New Roman,serif" font-size="14.00">[1cd..1d1)</text>
<text text-anchor="middle" x="1066.19" y="-184.05" font-family="Times New Roman,serif" font-size="14.00">Count: 14234</text>
<text text-anchor="middle" x="1066.19" y="-169.05" font-family="Times New Roman,serif" font-size="14.00">Normalized count: 14234.00</text>
<text text-anchor="middle" x="1066.19" y="-154.05" font-family="Times New Roman,serif" font-size="14.00">Samples weight: 0.01</text>
</g>
<!-- BB36&#45;&gt;BB38 -->
<g id="edge52" class="edge">
<title>BB36&#45;&gt;BB38</title>
<path fill="none" stroke="black" d="M1146.88,-267.35C1136.56,-256.34 1125.4,-244.43 1114.76,-233.08"/>
<polygon fill="black" stroke="black" points="1117.26,-230.62 1107.86,-225.72 1112.15,-235.41 1117.26,-230.62"/>
</g>
<!-- BB37 -->
<g id="node38" class="node">
<title>BB37</title>
<ellipse fill="none" stroke="black" cx="1066.19" cy="-48.08" rx="122.16" ry="48.17"/>
<text text-anchor="middle" x="1066.19" y="-66.88" font-family="Times New Roman,serif" font-size="14.00">[1bb..1cd)</text>
<text text-anchor="middle" x="1066.19" y="-51.88" font-family="Times New Roman,serif" font-size="14.00">Count: 13957</text>
<text text-anchor="middle" x="1066.19" y="-36.88" font-family="Times New Roman,serif" font-size="14.00">Normalized count: 13957.00</text>
<text text-anchor="middle" x="1066.19" y="-21.88" font-family="Times New Roman,serif" font-size="14.00">Samples weight: 0.01</text>
</g>
<!-- BB37&#45;&gt;BB38 -->
<g id="edge53" class="edge">
<title>BB37&#45;&gt;BB38</title>
<path fill="none" stroke="black" d="M1072.7,-96.19C1072.92,-104.45 1072.99,-113.13 1072.9,-121.64"/>
<polygon fill="black" stroke="black" points="1069.39,-121.83 1072.71,-131.89 1076.39,-121.95 1069.39,-121.83"/>
</g>
<!-- BB38&#45;&gt;BB37 -->
<g id="edge54" class="edge">
<title>BB38&#45;&gt;BB37</title>
<path fill="none" stroke="black" d="M1059.66,-131.89C1059.45,-123.62 1059.39,-114.94 1059.48,-106.43"/>
<polygon fill="black" stroke="black" points="1062.98,-106.26 1059.67,-96.19 1055.98,-106.12 1062.98,-106.26"/>
</g>
<!-- BB38&#45;&gt;BB39 -->
<g id="edge55" class="edge">
<title>BB38&#45;&gt;BB39</title>
<path fill="none" stroke="black" d="M1024.51,-225.72C1014.17,-236.75 1003,-248.66 992.38,-260"/>
<polygon fill="black" stroke="black" points="989.78,-257.66 985.49,-267.35 994.88,-262.45 989.78,-257.66"/>
</g>
<!-- BB39&#45;&gt;BB40 -->
<g id="edge56" class="edge">
<title>BB39&#45;&gt;BB40</title>
<path fill="none" stroke="black" d="M950.55,-360.71C957.05,-413.16 966.19,-500.34 966.19,-575.75 966.19,-974.25 966.19,-974.25 966.19,-974.25 966.19,-1054.36 961.08,-1077.1 985.19,-1153.5 988.2,-1163.05 992.37,-1172.75 996.99,-1181.98"/>
<polygon fill="black" stroke="black" points="993.99,-1183.8 1001.72,-1191.04 1000.19,-1180.56 993.99,-1183.8"/>
</g>
<!-- BB40&#45;&gt;BB11 -->
<g id="edge57" class="edge">
<title>BB40&#45;&gt;BB11</title>
<path fill="none" stroke="black" d="M1140.41,-1224.71C1364.93,-1200.32 1876.7,-1144.71 2109.69,-1119.4"/>
<polygon fill="black" stroke="black" points="2110.33,-1122.85 2119.89,-1118.29 2109.57,-1115.89 2110.33,-1122.85"/>
</g>
<!-- BB41 -->
<g id="node42" class="node">
<title>BB41</title>
<ellipse fill="none" stroke="black" cx="1097.19" cy="-1105.42" rx="103.48" ry="48.17"/>
<text text-anchor="middle" x="1097.19" y="-1124.22" font-family="Times New Roman,serif" font-size="14.00">[1df..1e1)</text>
<text text-anchor="middle" x="1097.19" y="-1109.22" font-family="Times New Roman,serif" font-size="14.00">Count: 2</text>
<text text-anchor="middle" x="1097.19" y="-1094.22" font-family="Times New Roman,serif" font-size="14.00">Normalized count: 2.00</text>
<text text-anchor="middle" x="1097.19" y="-1079.22" font-family="Times New Roman,serif" font-size="14.00">Samples weight: 0.00</text>
</g>
<!-- BB40&#45;&gt;BB41 -->
<g id="edge58" class="edge">
<title>BB40&#45;&gt;BB41</title>
<path fill="none" stroke="black" d="M1054.64,-1190.32C1059.36,-1181.02 1064.36,-1171.16 1069.21,-1161.58"/>
<polygon fill="black" stroke="black" points="1072.41,-1163.03 1073.81,-1152.52 1066.16,-1159.86 1072.41,-1163.03"/>
</g>
</g>
</svg>
