<?xml version="1.0" encoding="UTF-8" standalone="no"?>
<!DOCTYPE svg PUBLIC "-//W3C//DTD SVG 1.1//EN"
 "http://www.w3.org/Graphics/SVG/1.1/DTD/svg11.dtd">
<!-- Generated by graphviz version 2.47.0 (20210316.0004)
 -->
<!-- Title: G Pages: 1 -->
<svg width="559pt" height="600pt"
 viewBox="0.00 0.00 558.85 600.18" xmlns="http://www.w3.org/2000/svg" xmlns:xlink="http://www.w3.org/1999/xlink">
<g id="graph0" class="graph" transform="scale(1 1) rotate(0) translate(4 596.18)">
<title>G</title>
<polygon fill="white" stroke="transparent" points="-4,4 -4,-596.18 554.85,-596.18 554.85,4 -4,4"/>
<!-- BB0 -->
<g id="node1" class="node">
<title>BB0</title>
<ellipse fill="none" stroke="black" cx="335.43" cy="-565.31" rx="33.47" ry="26.74"/>
<text text-anchor="middle" x="335.43" y="-569.11" font-family="Times New Roman,serif" font-size="14.00">[0..5)</text>
<text text-anchor="middle" x="335.43" y="-554.11" font-family="Times New Roman,serif" font-size="14.00">0.01</text>
</g>
<!-- BB11 -->
<g id="node12" class="node">
<title>BB11</title>
<ellipse fill="none" stroke="black" cx="335.43" cy="-475.57" rx="41.94" ry="26.74"/>
<text text-anchor="middle" x="335.43" y="-479.37" font-family="Times New Roman,serif" font-size="14.00">[58..5e)</text>
<text text-anchor="middle" x="335.43" y="-464.37" font-family="Times New Roman,serif" font-size="14.00">0.02</text>
</g>
<!-- BB0&#45;&gt;BB11 -->
<g id="edge1" class="edge">
<title>BB0&#45;&gt;BB11</title>
<path fill="none" stroke="black" d="M335.43,-537.99C335.43,-530.02 335.43,-521.13 335.43,-512.64"/>
<polygon fill="black" stroke="black" points="338.93,-512.57 335.43,-502.57 331.93,-512.57 338.93,-512.57"/>
</g>
<!-- BB1 -->
<g id="node2" class="node">
<title>BB1</title>
<ellipse fill="none" stroke="black" cx="268.43" cy="-385.83" rx="37.45" ry="26.74"/>
<text text-anchor="middle" x="268.43" y="-389.63" font-family="Times New Roman,serif" font-size="14.00">[5..14)</text>
<text text-anchor="middle" x="268.43" y="-374.63" font-family="Times New Roman,serif" font-size="14.00">0.01</text>
</g>
<!-- BB6 -->
<g id="node7" class="node">
<title>BB6</title>
<ellipse fill="none" stroke="black" cx="182.43" cy="-296.09" rx="42.35" ry="26.74"/>
<text text-anchor="middle" x="182.43" y="-299.89" font-family="Times New Roman,serif" font-size="14.00">[33..39)</text>
<text text-anchor="middle" x="182.43" y="-284.89" font-family="Times New Roman,serif" font-size="14.00">0.02</text>
</g>
<!-- BB1&#45;&gt;BB6 -->
<g id="edge2" class="edge">
<title>BB1&#45;&gt;BB6</title>
<path fill="none" stroke="black" d="M247.17,-363.14C236.38,-352.13 223.1,-338.59 211.39,-326.64"/>
<polygon fill="black" stroke="black" points="213.84,-324.14 204.34,-319.45 208.84,-329.04 213.84,-324.14"/>
</g>
<!-- BB2 -->
<g id="node3" class="node">
<title>BB2</title>
<ellipse fill="none" stroke="black" cx="76.43" cy="-206.35" rx="42.35" ry="26.74"/>
<text text-anchor="middle" x="76.43" y="-210.15" font-family="Times New Roman,serif" font-size="14.00">[14..18)</text>
<text text-anchor="middle" x="76.43" y="-195.15" font-family="Times New Roman,serif" font-size="14.00">0.01</text>
</g>
<!-- BB4 -->
<g id="node5" class="node">
<title>BB4</title>
<ellipse fill="none" stroke="black" cx="67.43" cy="-116.61" rx="43.27" ry="26.74"/>
<text text-anchor="middle" x="67.43" y="-120.41" font-family="Times New Roman,serif" font-size="14.00">[28..2d)</text>
<text text-anchor="middle" x="67.43" y="-105.41" font-family="Times New Roman,serif" font-size="14.00">0.43</text>
</g>
<!-- BB2&#45;&gt;BB4 -->
<g id="edge3" class="edge">
<title>BB2&#45;&gt;BB4</title>
<path fill="none" stroke="black" d="M73.77,-179.5C72.95,-171.45 72.02,-162.42 71.14,-153.8"/>
<polygon fill="black" stroke="black" points="74.59,-153.17 70.09,-143.58 67.63,-153.88 74.59,-153.17"/>
</g>
<!-- BB3 -->
<g id="node4" class="node">
<title>BB3</title>
<ellipse fill="none" stroke="black" cx="42.43" cy="-26.87" rx="42.35" ry="26.74"/>
<text text-anchor="middle" x="42.43" y="-30.67" font-family="Times New Roman,serif" font-size="14.00">[18..28)</text>
<text text-anchor="middle" x="42.43" y="-15.67" font-family="Times New Roman,serif" font-size="14.00">0.42</text>
</g>
<!-- BB3&#45;&gt;BB4 -->
<g id="edge4" class="edge">
<title>BB3&#45;&gt;BB4</title>
<path fill="none" stroke="black" d="M55.64,-52.67C58.57,-60.98 61.42,-70.41 63.77,-79.41"/>
<polygon fill="black" stroke="black" points="60.41,-80.4 66.17,-89.29 67.21,-78.74 60.41,-80.4"/>
</g>
<!-- BB4&#45;&gt;BB3 -->
<g id="edge5" class="edge">
<title>BB4&#45;&gt;BB3</title>
<path fill="none" stroke="black" d="M54.17,-90.7C51.22,-82.31 48.34,-72.77 45.99,-63.7"/>
<polygon fill="black" stroke="black" points="49.34,-62.66 43.58,-53.76 42.53,-64.3 49.34,-62.66"/>
</g>
<!-- BB5 -->
<g id="node6" class="node">
<title>BB5</title>
<ellipse fill="none" stroke="black" cx="146.43" cy="-26.87" rx="43.27" ry="26.74"/>
<text text-anchor="middle" x="146.43" y="-30.67" font-family="Times New Roman,serif" font-size="14.00">[2d..33)</text>
<text text-anchor="middle" x="146.43" y="-15.67" font-family="Times New Roman,serif" font-size="14.00">0.01</text>
</g>
<!-- BB4&#45;&gt;BB5 -->
<g id="edge6" class="edge">
<title>BB4&#45;&gt;BB5</title>
<path fill="none" stroke="black" d="M88.18,-92.56C97.62,-82.08 108.91,-69.54 119.03,-58.3"/>
<polygon fill="black" stroke="black" points="121.72,-60.54 125.81,-50.77 116.52,-55.86 121.72,-60.54"/>
</g>
<!-- BB5&#45;&gt;BB6 -->
<g id="edge7" class="edge">
<title>BB5&#45;&gt;BB6</title>
<path fill="none" stroke="black" d="M149.91,-53.69C156.36,-101.59 170.19,-204.3 177.57,-259.03"/>
<polygon fill="black" stroke="black" points="174.11,-259.54 178.91,-268.98 181.04,-258.6 174.11,-259.54"/>
</g>
<!-- BB6&#45;&gt;BB2 -->
<g id="edge8" class="edge">
<title>BB6&#45;&gt;BB2</title>
<path fill="none" stroke="black" d="M157.31,-274.3C143.02,-262.47 124.96,-247.52 109.53,-234.75"/>
<polygon fill="black" stroke="black" points="111.67,-231.98 101.73,-228.3 107.21,-237.37 111.67,-231.98"/>
</g>
<!-- BB7 -->
<g id="node8" class="node">
<title>BB7</title>
<ellipse fill="none" stroke="black" cx="233.43" cy="-206.35" rx="41.94" ry="26.74"/>
<text text-anchor="middle" x="233.43" y="-210.15" font-family="Times New Roman,serif" font-size="14.00">[39..3e)</text>
<text text-anchor="middle" x="233.43" y="-195.15" font-family="Times New Roman,serif" font-size="14.00">0.01</text>
</g>
<!-- BB6&#45;&gt;BB7 -->
<g id="edge9" class="edge">
<title>BB6&#45;&gt;BB7</title>
<path fill="none" stroke="black" d="M196.63,-270.65C202.05,-261.33 208.32,-250.55 214.13,-240.55"/>
<polygon fill="black" stroke="black" points="217.3,-242.06 219.3,-231.66 211.24,-238.55 217.3,-242.06"/>
</g>
<!-- BB9 -->
<g id="node10" class="node">
<title>BB9</title>
<ellipse fill="none" stroke="black" cx="249.43" cy="-116.61" rx="42.35" ry="26.74"/>
<text text-anchor="middle" x="249.43" y="-120.41" font-family="Times New Roman,serif" font-size="14.00">[4c..52)</text>
<text text-anchor="middle" x="249.43" y="-105.41" font-family="Times New Roman,serif" font-size="14.00">0.01</text>
</g>
<!-- BB7&#45;&gt;BB9 -->
<g id="edge10" class="edge">
<title>BB7&#45;&gt;BB9</title>
<path fill="none" stroke="black" d="M238.14,-179.5C239.62,-171.36 241.29,-162.22 242.88,-153.51"/>
<polygon fill="black" stroke="black" points="246.34,-154.04 244.69,-143.58 239.45,-152.79 246.34,-154.04"/>
</g>
<!-- BB8 -->
<g id="node9" class="node">
<title>BB8</title>
<ellipse fill="none" stroke="black" cx="249.43" cy="-26.87" rx="41.94" ry="26.74"/>
<text text-anchor="middle" x="249.43" y="-30.67" font-family="Times New Roman,serif" font-size="14.00">[3e..4c)</text>
<text text-anchor="middle" x="249.43" y="-15.67" font-family="Times New Roman,serif" font-size="14.00">0.01</text>
</g>
<!-- BB8&#45;&gt;BB9 -->
<g id="edge11" class="edge">
<title>BB8&#45;&gt;BB9</title>
<path fill="none" stroke="black" d="M255.63,-53.54C256.15,-61.73 256.3,-70.96 256.08,-79.74"/>
<polygon fill="black" stroke="black" points="252.58,-79.62 255.64,-89.76 259.57,-79.92 252.58,-79.62"/>
</g>
<!-- BB9&#45;&gt;BB8 -->
<g id="edge12" class="edge">
<title>BB9&#45;&gt;BB8</title>
<path fill="none" stroke="black" d="M243.21,-89.76C242.7,-81.55 242.55,-72.32 242.78,-63.54"/>
<polygon fill="black" stroke="black" points="246.28,-63.68 243.22,-53.54 239.29,-63.37 246.28,-63.68"/>
</g>
<!-- BB10 -->
<g id="node11" class="node">
<title>BB10</title>
<ellipse fill="none" stroke="black" cx="351.43" cy="-26.87" rx="42.35" ry="26.74"/>
<text text-anchor="middle" x="351.43" y="-30.67" font-family="Times New Roman,serif" font-size="14.00">[52..58)</text>
<text text-anchor="middle" x="351.43" y="-15.67" font-family="Times New Roman,serif" font-size="14.00">0.01</text>
</g>
<!-- BB9&#45;&gt;BB10 -->
<g id="edge13" class="edge">
<title>BB9&#45;&gt;BB10</title>
<path fill="none" stroke="black" d="M273.86,-94.59C287.38,-82.96 304.37,-68.35 319,-55.77"/>
<polygon fill="black" stroke="black" points="321.54,-58.19 326.84,-49.02 316.98,-52.89 321.54,-58.19"/>
</g>
<!-- BB10&#45;&gt;BB11 -->
<g id="edge14" class="edge">
<title>BB10&#45;&gt;BB11</title>
<path fill="none" stroke="black" d="M347.63,-53.67C342.9,-88.15 335.43,-151.21 335.43,-205.35 335.43,-297.09 335.43,-297.09 335.43,-297.09 335.43,-345.82 335.43,-402.07 335.43,-437.96"/>
<polygon fill="black" stroke="black" points="331.93,-438.41 335.43,-448.41 338.93,-438.41 331.93,-438.41"/>
</g>
<!-- BB11&#45;&gt;BB1 -->
<g id="edge15" class="edge">
<title>BB11&#45;&gt;BB1</title>
<path fill="none" stroke="black" d="M317.47,-451.06C309.69,-440.86 300.47,-428.79 292.13,-417.87"/>
<polygon fill="black" stroke="black" points="294.82,-415.62 285.97,-409.8 289.25,-419.87 294.82,-415.62"/>
</g>
<!-- BB12 -->
<g id="node13" class="node">
<title>BB12</title>
<ellipse fill="none" stroke="black" cx="405.43" cy="-385.83" rx="41.94" ry="26.74"/>
<text text-anchor="middle" x="405.43" y="-389.63" font-family="Times New Roman,serif" font-size="14.00">[5e..69)</text>
<text text-anchor="middle" x="405.43" y="-374.63" font-family="Times New Roman,serif" font-size="14.00">0.01</text>
</g>
<!-- BB11&#45;&gt;BB12 -->
<g id="edge16" class="edge">
<title>BB11&#45;&gt;BB12</title>
<path fill="none" stroke="black" d="M354.19,-451.06C362.25,-440.95 371.8,-428.98 380.45,-418.13"/>
<polygon fill="black" stroke="black" points="383.36,-420.1 386.86,-410.1 377.89,-415.74 383.36,-420.1"/>
</g>
<!-- BB14 -->
<g id="node15" class="node">
<title>BB14</title>
<ellipse fill="none" stroke="black" cx="405.43" cy="-296.09" rx="42.35" ry="26.74"/>
<text text-anchor="middle" x="405.43" y="-299.89" font-family="Times New Roman,serif" font-size="14.00">[83..89)</text>
<text text-anchor="middle" x="405.43" y="-284.89" font-family="Times New Roman,serif" font-size="14.00">0.02</text>
</g>
<!-- BB12&#45;&gt;BB14 -->
<g id="edge17" class="edge">
<title>BB12&#45;&gt;BB14</title>
<path fill="none" stroke="black" d="M405.43,-358.51C405.43,-350.54 405.43,-341.65 405.43,-333.16"/>
<polygon fill="black" stroke="black" points="408.93,-333.09 405.43,-323.09 401.93,-333.09 408.93,-333.09"/>
</g>
<!-- BB13 -->
<g id="node14" class="node">
<title>BB13</title>
<ellipse fill="none" stroke="black" cx="405.43" cy="-206.35" rx="42.35" ry="26.74"/>
<text text-anchor="middle" x="405.43" y="-210.15" font-family="Times New Roman,serif" font-size="14.00">[69..83)</text>
<text text-anchor="middle" x="405.43" y="-195.15" font-family="Times New Roman,serif" font-size="14.00">0.01</text>
</g>
<!-- BB13&#45;&gt;BB14 -->
<g id="edge18" class="edge">
<title>BB13&#45;&gt;BB14</title>
<path fill="none" stroke="black" d="M411.63,-233.02C412.15,-241.21 412.3,-250.44 412.08,-259.22"/>
<polygon fill="black" stroke="black" points="408.58,-259.1 411.64,-269.24 415.57,-259.4 408.58,-259.1"/>
</g>
<!-- BB14&#45;&gt;BB13 -->
<g id="edge19" class="edge">
<title>BB14&#45;&gt;BB13</title>
<path fill="none" stroke="black" d="M399.21,-269.24C398.7,-261.03 398.55,-251.8 398.78,-243.02"/>
<polygon fill="black" stroke="black" points="402.28,-243.16 399.22,-233.02 395.29,-242.85 402.28,-243.16"/>
</g>
<!-- BB15 -->
<g id="node16" class="node">
<title>BB15</title>
<ellipse fill="none" stroke="black" cx="508.43" cy="-206.35" rx="42.35" ry="26.74"/>
<text text-anchor="middle" x="508.43" y="-210.15" font-family="Times New Roman,serif" font-size="14.00">[89..90)</text>
<text text-anchor="middle" x="508.43" y="-195.15" font-family="Times New Roman,serif" font-size="14.00">0.01</text>
</g>
<!-- BB14&#45;&gt;BB15 -->
<g id="edge20" class="edge">
<title>BB14&#45;&gt;BB15</title>
<path fill="none" stroke="black" d="M430.1,-274.07C443.76,-262.44 460.91,-247.83 475.68,-235.25"/>
<polygon fill="black" stroke="black" points="478.26,-237.65 483.6,-228.5 473.72,-232.32 478.26,-237.65"/>
</g>
</g>
</svg>
