<?xml version="1.0" encoding="UTF-8" standalone="no"?>
<!DOCTYPE svg PUBLIC "-//W3C//DTD SVG 1.1//EN"
 "http://www.w3.org/Graphics/SVG/1.1/DTD/svg11.dtd">
<!-- Generated by graphviz version 2.47.0 (20210316.0004)
 -->
<!-- Title: G Pages: 1 -->
<svg width="2109pt" height="1426pt"
 viewBox="0.00 0.00 2108.75 1425.83" xmlns="http://www.w3.org/2000/svg" xmlns:xlink="http://www.w3.org/1999/xlink">
<g id="graph0" class="graph" transform="scale(1 1) rotate(0) translate(4 1421.83)">
<title>G</title>
<polygon fill="white" stroke="transparent" points="-4,4 -4,-1421.83 2104.75,-1421.83 2104.75,4 -4,4"/>
<!-- BB0 -->
<g id="node1" class="node">
<title>BB0</title>
<ellipse fill="none" stroke="black" cx="1100.57" cy="-1369.75" rx="103.48" ry="48.17"/>
<text text-anchor="middle" x="1100.57" y="-1388.55" font-family="Times New Roman,serif" font-size="14.00">[0..11)</text>
<text text-anchor="middle" x="1100.57" y="-1373.55" font-family="Times New Roman,serif" font-size="14.00">Count: 2</text>
<text text-anchor="middle" x="1100.57" y="-1358.55" font-family="Times New Roman,serif" font-size="14.00">Normalized count: 1.00</text>
<text text-anchor="middle" x="1100.57" y="-1343.55" font-family="Times New Roman,serif" font-size="14.00">Samples weight: 0.01</text>
</g>
<!-- BB2 -->
<g id="node3" class="node">
<title>BB2</title>
<ellipse fill="none" stroke="black" cx="1100.57" cy="-1237.58" rx="103.48" ry="48.17"/>
<text text-anchor="middle" x="1100.57" y="-1256.38" font-family="Times New Roman,serif" font-size="14.00">[22..28)</text>
<text text-anchor="middle" x="1100.57" y="-1241.38" font-family="Times New Roman,serif" font-size="14.00">Count: 2</text>
<text text-anchor="middle" x="1100.57" y="-1226.38" font-family="Times New Roman,serif" font-size="14.00">Normalized count: 1.00</text>
<text text-anchor="middle" x="1100.57" y="-1211.38" font-family="Times New Roman,serif" font-size="14.00">Samples weight: 0.01</text>
</g>
<!-- BB0&#45;&gt;BB2 -->
<g id="edge1" class="edge">
<title>BB0&#45;&gt;BB2</title>
<path fill="none" stroke="black" d="M1100.57,-1321.39C1100.57,-1313.12 1100.57,-1304.44 1100.57,-1295.93"/>
<polygon fill="black" stroke="black" points="1104.07,-1295.69 1100.57,-1285.69 1097.07,-1295.69 1104.07,-1295.69"/>
</g>
<!-- BB1 -->
<g id="node2" class="node">
<title>BB1</title>
<ellipse fill="none" stroke="black" cx="1100.57" cy="-1105.42" rx="103.48" ry="48.17"/>
<text text-anchor="middle" x="1100.57" y="-1124.22" font-family="Times New Roman,serif" font-size="14.00">[11..22)</text>
<text text-anchor="middle" x="1100.57" y="-1109.22" font-family="Times New Roman,serif" font-size="14.00">Count: 0</text>
<text text-anchor="middle" x="1100.57" y="-1094.22" font-family="Times New Roman,serif" font-size="14.00">Normalized count: 0.00</text>
<text text-anchor="middle" x="1100.57" y="-1079.22" font-family="Times New Roman,serif" font-size="14.00">Samples weight: 0.00</text>
</g>
<!-- BB1&#45;&gt;BB2 -->
<g id="edge2" class="edge">
<title>BB1&#45;&gt;BB2</title>
<path fill="none" stroke="black" d="M1107.09,-1153.78C1107.31,-1162.07 1107.37,-1170.78 1107.27,-1179.31"/>
<polygon fill="black" stroke="black" points="1103.77,-1179.52 1107.08,-1189.59 1110.77,-1179.66 1103.77,-1179.52"/>
</g>
<!-- BB2&#45;&gt;BB1 -->
<g id="edge3" class="edge">
<title>BB2&#45;&gt;BB1</title>
<path fill="none" stroke="black" d="M1094.05,-1189.59C1093.83,-1181.21 1093.76,-1172.41 1093.86,-1163.78"/>
<polygon fill="black" stroke="black" points="1097.36,-1163.84 1094.04,-1153.78 1090.36,-1163.71 1097.36,-1163.84"/>
</g>
<!-- BB3 -->
<g id="node4" class="node">
<title>BB3</title>
<ellipse fill="none" stroke="black" cx="1324.57" cy="-1105.42" rx="103.48" ry="48.17"/>
<text text-anchor="middle" x="1324.57" y="-1124.22" font-family="Times New Roman,serif" font-size="14.00">[28..54)</text>
<text text-anchor="middle" x="1324.57" y="-1109.22" font-family="Times New Roman,serif" font-size="14.00">Count: 2</text>
<text text-anchor="middle" x="1324.57" y="-1094.22" font-family="Times New Roman,serif" font-size="14.00">Normalized count: 1.00</text>
<text text-anchor="middle" x="1324.57" y="-1079.22" font-family="Times New Roman,serif" font-size="14.00">Samples weight: 0.01</text>
</g>
<!-- BB2&#45;&gt;BB3 -->
<g id="edge4" class="edge">
<title>BB2&#45;&gt;BB3</title>
<path fill="none" stroke="black" d="M1164.16,-1199.63C1191.59,-1183.69 1223.81,-1164.96 1252.16,-1148.49"/>
<polygon fill="black" stroke="black" points="1253.93,-1151.51 1260.82,-1143.46 1250.41,-1145.46 1253.93,-1151.51"/>
</g>
<!-- BB4 -->
<g id="node5" class="node">
<title>BB4</title>
<ellipse fill="none" stroke="black" cx="1156.57" cy="-973.25" rx="103.48" ry="48.17"/>
<text text-anchor="middle" x="1156.57" y="-992.05" font-family="Times New Roman,serif" font-size="14.00">[54..5c)</text>
<text text-anchor="middle" x="1156.57" y="-977.05" font-family="Times New Roman,serif" font-size="14.00">Count: 0</text>
<text text-anchor="middle" x="1156.57" y="-962.05" font-family="Times New Roman,serif" font-size="14.00">Normalized count: 0.00</text>
<text text-anchor="middle" x="1156.57" y="-947.05" font-family="Times New Roman,serif" font-size="14.00">Samples weight: 0.00</text>
</g>
<!-- BB3&#45;&gt;BB4 -->
<g id="edge6" class="edge">
<title>BB3&#45;&gt;BB4</title>
<path fill="none" stroke="black" d="M1271.87,-1063.59C1254.51,-1050.14 1235.08,-1035.08 1217.18,-1021.21"/>
<polygon fill="black" stroke="black" points="1219.12,-1018.29 1209.08,-1014.93 1214.84,-1023.82 1219.12,-1018.29"/>
</g>
<!-- BB20 -->
<g id="node21" class="node">
<title>BB20</title>
<ellipse fill="none" stroke="black" cx="1492.57" cy="-973.25" rx="103.48" ry="48.17"/>
<text text-anchor="middle" x="1492.57" y="-992.05" font-family="Times New Roman,serif" font-size="14.00">[10f..120)</text>
<text text-anchor="middle" x="1492.57" y="-977.05" font-family="Times New Roman,serif" font-size="14.00">Count: 2</text>
<text text-anchor="middle" x="1492.57" y="-962.05" font-family="Times New Roman,serif" font-size="14.00">Normalized count: 1.00</text>
<text text-anchor="middle" x="1492.57" y="-947.05" font-family="Times New Roman,serif" font-size="14.00">Samples weight: 0.01</text>
</g>
<!-- BB3&#45;&gt;BB20 -->
<g id="edge5" class="edge">
<title>BB3&#45;&gt;BB20</title>
<path fill="none" stroke="black" d="M1377.26,-1063.59C1394.62,-1050.14 1414.06,-1035.08 1431.96,-1021.21"/>
<polygon fill="black" stroke="black" points="1434.3,-1023.82 1440.06,-1014.93 1430.01,-1018.29 1434.3,-1023.82"/>
</g>
<!-- BB17 -->
<g id="node18" class="node">
<title>BB17</title>
<ellipse fill="none" stroke="black" cx="836.57" cy="-841.08" rx="103.48" ry="48.17"/>
<text text-anchor="middle" x="836.57" y="-859.88" font-family="Times New Roman,serif" font-size="14.00">[ed..f9)</text>
<text text-anchor="middle" x="836.57" y="-844.88" font-family="Times New Roman,serif" font-size="14.00">Count: 0</text>
<text text-anchor="middle" x="836.57" y="-829.88" font-family="Times New Roman,serif" font-size="14.00">Normalized count: 0.00</text>
<text text-anchor="middle" x="836.57" y="-814.88" font-family="Times New Roman,serif" font-size="14.00">Samples weight: 0.00</text>
</g>
<!-- BB4&#45;&gt;BB17 -->
<g id="edge7" class="edge">
<title>BB4&#45;&gt;BB17</title>
<path fill="none" stroke="black" d="M1079.51,-940.91C1032.25,-921.68 971.65,-897.03 922.8,-877.16"/>
<polygon fill="black" stroke="black" points="924.09,-873.91 913.51,-873.38 921.45,-880.39 924.09,-873.91"/>
</g>
<!-- BB5 -->
<g id="node6" class="node">
<title>BB5</title>
<ellipse fill="none" stroke="black" cx="724.57" cy="-708.92" rx="103.48" ry="48.17"/>
<text text-anchor="middle" x="724.57" y="-727.72" font-family="Times New Roman,serif" font-size="14.00">[5c..6b)</text>
<text text-anchor="middle" x="724.57" y="-712.72" font-family="Times New Roman,serif" font-size="14.00">Count: 0</text>
<text text-anchor="middle" x="724.57" y="-697.72" font-family="Times New Roman,serif" font-size="14.00">Normalized count: 0.00</text>
<text text-anchor="middle" x="724.57" y="-682.72" font-family="Times New Roman,serif" font-size="14.00">Samples weight: 0.00</text>
</g>
<!-- BB10 -->
<g id="node11" class="node">
<title>BB10</title>
<ellipse fill="none" stroke="black" cx="682.57" cy="-576.75" rx="103.48" ry="48.17"/>
<text text-anchor="middle" x="682.57" y="-595.55" font-family="Times New Roman,serif" font-size="14.00">[9b..a3)</text>
<text text-anchor="middle" x="682.57" y="-580.55" font-family="Times New Roman,serif" font-size="14.00">Count: 0</text>
<text text-anchor="middle" x="682.57" y="-565.55" font-family="Times New Roman,serif" font-size="14.00">Normalized count: 0.00</text>
<text text-anchor="middle" x="682.57" y="-550.55" font-family="Times New Roman,serif" font-size="14.00">Samples weight: 0.00</text>
</g>
<!-- BB5&#45;&gt;BB10 -->
<g id="edge8" class="edge">
<title>BB5&#45;&gt;BB10</title>
<path fill="none" stroke="black" d="M709.52,-661.29C706.69,-652.5 703.69,-643.23 700.78,-634.18"/>
<polygon fill="black" stroke="black" points="704.05,-632.93 697.65,-624.49 697.39,-635.08 704.05,-632.93"/>
</g>
<!-- BB6 -->
<g id="node7" class="node">
<title>BB6</title>
<ellipse fill="none" stroke="black" cx="753.57" cy="-444.58" rx="103.48" ry="48.17"/>
<text text-anchor="middle" x="753.57" y="-463.38" font-family="Times New Roman,serif" font-size="14.00">[6b..7b)</text>
<text text-anchor="middle" x="753.57" y="-448.38" font-family="Times New Roman,serif" font-size="14.00">Count: 0</text>
<text text-anchor="middle" x="753.57" y="-433.38" font-family="Times New Roman,serif" font-size="14.00">Normalized count: 0.00</text>
<text text-anchor="middle" x="753.57" y="-418.38" font-family="Times New Roman,serif" font-size="14.00">Samples weight: 0.00</text>
</g>
<!-- BB8 -->
<g id="node9" class="node">
<title>BB8</title>
<ellipse fill="none" stroke="black" cx="765.57" cy="-312.42" rx="103.48" ry="48.17"/>
<text text-anchor="middle" x="765.57" y="-331.22" font-family="Times New Roman,serif" font-size="14.00">[8f..95)</text>
<text text-anchor="middle" x="765.57" y="-316.22" font-family="Times New Roman,serif" font-size="14.00">Count: 0</text>
<text text-anchor="middle" x="765.57" y="-301.22" font-family="Times New Roman,serif" font-size="14.00">Normalized count: 0.00</text>
<text text-anchor="middle" x="765.57" y="-286.22" font-family="Times New Roman,serif" font-size="14.00">Samples weight: 0.00</text>
</g>
<!-- BB6&#45;&gt;BB8 -->
<g id="edge9" class="edge">
<title>BB6&#45;&gt;BB8</title>
<path fill="none" stroke="black" d="M757.93,-396.22C758.7,-387.86 759.51,-379.08 760.31,-370.49"/>
<polygon fill="black" stroke="black" points="763.79,-370.8 761.22,-360.52 756.82,-370.16 763.79,-370.8"/>
</g>
<!-- BB7 -->
<g id="node8" class="node">
<title>BB7</title>
<ellipse fill="none" stroke="black" cx="811.57" cy="-180.25" rx="103.48" ry="48.17"/>
<text text-anchor="middle" x="811.57" y="-199.05" font-family="Times New Roman,serif" font-size="14.00">[7b..8f)</text>
<text text-anchor="middle" x="811.57" y="-184.05" font-family="Times New Roman,serif" font-size="14.00">Count: 0</text>
<text text-anchor="middle" x="811.57" y="-169.05" font-family="Times New Roman,serif" font-size="14.00">Normalized count: 0.00</text>
<text text-anchor="middle" x="811.57" y="-154.05" font-family="Times New Roman,serif" font-size="14.00">Samples weight: 0.00</text>
</g>
<!-- BB7&#45;&gt;BB8 -->
<g id="edge10" class="edge">
<title>BB7&#45;&gt;BB8</title>
<path fill="none" stroke="black" d="M801.47,-228.24C798.56,-237.16 795.29,-246.57 791.93,-255.73"/>
<polygon fill="black" stroke="black" points="788.63,-254.57 788.41,-265.16 795.19,-257.02 788.63,-254.57"/>
</g>
<!-- BB8&#45;&gt;BB7 -->
<g id="edge11" class="edge">
<title>BB8&#45;&gt;BB7</title>
<path fill="none" stroke="black" d="M775.66,-264.42C778.59,-255.45 781.88,-245.98 785.26,-236.77"/>
<polygon fill="black" stroke="black" points="788.58,-237.89 788.81,-227.3 782.02,-235.44 788.58,-237.89"/>
</g>
<!-- BB9 -->
<g id="node10" class="node">
<title>BB9</title>
<ellipse fill="none" stroke="black" cx="587.57" cy="-180.25" rx="103.48" ry="48.17"/>
<text text-anchor="middle" x="587.57" y="-199.05" font-family="Times New Roman,serif" font-size="14.00">[95..9b)</text>
<text text-anchor="middle" x="587.57" y="-184.05" font-family="Times New Roman,serif" font-size="14.00">Count: 0</text>
<text text-anchor="middle" x="587.57" y="-169.05" font-family="Times New Roman,serif" font-size="14.00">Normalized count: 0.00</text>
<text text-anchor="middle" x="587.57" y="-154.05" font-family="Times New Roman,serif" font-size="14.00">Samples weight: 0.00</text>
</g>
<!-- BB8&#45;&gt;BB9 -->
<g id="edge12" class="edge">
<title>BB8&#45;&gt;BB9</title>
<path fill="none" stroke="black" d="M710.71,-271.3C691.67,-257.38 670.18,-241.66 650.54,-227.3"/>
<polygon fill="black" stroke="black" points="652.38,-224.31 642.24,-221.23 648.25,-229.96 652.38,-224.31"/>
</g>
<!-- BB9&#45;&gt;BB10 -->
<g id="edge13" class="edge">
<title>BB9&#45;&gt;BB10</title>
<path fill="none" stroke="black" d="M591.51,-228.43C597.63,-290.33 611.94,-401.76 641.57,-492.67 644.56,-501.86 648.41,-511.32 652.55,-520.41"/>
<polygon fill="black" stroke="black" points="649.51,-522.17 656.94,-529.72 655.84,-519.18 649.51,-522.17"/>
</g>
<!-- BB10&#45;&gt;BB6 -->
<g id="edge14" class="edge">
<title>BB10&#45;&gt;BB6</title>
<path fill="none" stroke="black" d="M707.6,-529.86C712.8,-520.33 718.32,-510.2 723.67,-500.39"/>
<polygon fill="black" stroke="black" points="726.81,-501.95 728.52,-491.5 720.66,-498.6 726.81,-501.95"/>
</g>
<!-- BB11 -->
<g id="node12" class="node">
<title>BB11</title>
<ellipse fill="none" stroke="black" cx="433.57" cy="-444.58" rx="103.48" ry="48.17"/>
<text text-anchor="middle" x="433.57" y="-463.38" font-family="Times New Roman,serif" font-size="14.00">[a3..b2)</text>
<text text-anchor="middle" x="433.57" y="-448.38" font-family="Times New Roman,serif" font-size="14.00">Count: 0</text>
<text text-anchor="middle" x="433.57" y="-433.38" font-family="Times New Roman,serif" font-size="14.00">Normalized count: 0.00</text>
<text text-anchor="middle" x="433.57" y="-418.38" font-family="Times New Roman,serif" font-size="14.00">Samples weight: 0.00</text>
</g>
<!-- BB10&#45;&gt;BB11 -->
<g id="edge15" class="edge">
<title>BB10&#45;&gt;BB11</title>
<path fill="none" stroke="black" d="M614.86,-540.35C582.6,-523.49 543.88,-503.25 510.52,-485.81"/>
<polygon fill="black" stroke="black" points="511.75,-482.5 501.26,-480.97 508.51,-488.71 511.75,-482.5"/>
</g>
<!-- BB13 -->
<g id="node14" class="node">
<title>BB13</title>
<ellipse fill="none" stroke="black" cx="251.57" cy="-312.42" rx="103.48" ry="48.17"/>
<text text-anchor="middle" x="251.57" y="-331.22" font-family="Times New Roman,serif" font-size="14.00">[c3..cb)</text>
<text text-anchor="middle" x="251.57" y="-316.22" font-family="Times New Roman,serif" font-size="14.00">Count: 0</text>
<text text-anchor="middle" x="251.57" y="-301.22" font-family="Times New Roman,serif" font-size="14.00">Normalized count: 0.00</text>
<text text-anchor="middle" x="251.57" y="-286.22" font-family="Times New Roman,serif" font-size="14.00">Samples weight: 0.00</text>
</g>
<!-- BB11&#45;&gt;BB13 -->
<g id="edge16" class="edge">
<title>BB11&#45;&gt;BB13</title>
<path fill="none" stroke="black" d="M377.97,-403.82C358.22,-389.69 335.83,-373.68 315.44,-359.1"/>
<polygon fill="black" stroke="black" points="317.3,-356.13 307.13,-353.16 313.23,-361.82 317.3,-356.13"/>
</g>
<!-- BB12 -->
<g id="node13" class="node">
<title>BB12</title>
<ellipse fill="none" stroke="black" cx="139.57" cy="-180.25" rx="103.48" ry="48.17"/>
<text text-anchor="middle" x="139.57" y="-199.05" font-family="Times New Roman,serif" font-size="14.00">[b2..c3)</text>
<text text-anchor="middle" x="139.57" y="-184.05" font-family="Times New Roman,serif" font-size="14.00">Count: 0</text>
<text text-anchor="middle" x="139.57" y="-169.05" font-family="Times New Roman,serif" font-size="14.00">Normalized count: 0.00</text>
<text text-anchor="middle" x="139.57" y="-154.05" font-family="Times New Roman,serif" font-size="14.00">Samples weight: 0.00</text>
</g>
<!-- BB12&#45;&gt;BB13 -->
<g id="edge17" class="edge">
<title>BB12&#45;&gt;BB13</title>
<path fill="none" stroke="black" d="M183.07,-224.37C192.92,-235.39 203.3,-247.37 212.94,-258.8"/>
<polygon fill="black" stroke="black" points="210.37,-261.19 219.47,-266.62 215.74,-256.7 210.37,-261.19"/>
</g>
<!-- BB13&#45;&gt;BB12 -->
<g id="edge18" class="edge">
<title>BB13&#45;&gt;BB12</title>
<path fill="none" stroke="black" d="M208.19,-268.43C198.29,-257.36 187.85,-245.32 178.17,-233.83"/>
<polygon fill="black" stroke="black" points="180.7,-231.4 171.6,-225.97 175.33,-235.89 180.7,-231.4"/>
</g>
<!-- BB14 -->
<g id="node15" class="node">
<title>BB14</title>
<ellipse fill="none" stroke="black" cx="363.57" cy="-180.25" rx="103.48" ry="48.17"/>
<text text-anchor="middle" x="363.57" y="-199.05" font-family="Times New Roman,serif" font-size="14.00">[cb..dd)</text>
<text text-anchor="middle" x="363.57" y="-184.05" font-family="Times New Roman,serif" font-size="14.00">Count: 0</text>
<text text-anchor="middle" x="363.57" y="-169.05" font-family="Times New Roman,serif" font-size="14.00">Normalized count: 0.00</text>
<text text-anchor="middle" x="363.57" y="-154.05" font-family="Times New Roman,serif" font-size="14.00">Samples weight: 0.00</text>
</g>
<!-- BB13&#45;&gt;BB14 -->
<g id="edge19" class="edge">
<title>BB13&#45;&gt;BB14</title>
<path fill="none" stroke="black" d="M289.48,-267.35C298.97,-256.32 309.24,-244.39 319.01,-233.03"/>
<polygon fill="black" stroke="black" points="321.82,-235.14 325.69,-225.27 316.51,-230.57 321.82,-235.14"/>
</g>
<!-- BB15 -->
<g id="node16" class="node">
<title>BB15</title>
<ellipse fill="none" stroke="black" cx="507.57" cy="-48.08" rx="103.48" ry="48.17"/>
<text text-anchor="middle" x="507.57" y="-66.88" font-family="Times New Roman,serif" font-size="14.00">[dd..e7)</text>
<text text-anchor="middle" x="507.57" y="-51.88" font-family="Times New Roman,serif" font-size="14.00">Count: 0</text>
<text text-anchor="middle" x="507.57" y="-36.88" font-family="Times New Roman,serif" font-size="14.00">Normalized count: 0.00</text>
<text text-anchor="middle" x="507.57" y="-21.88" font-family="Times New Roman,serif" font-size="14.00">Samples weight: 0.00</text>
</g>
<!-- BB14&#45;&gt;BB15 -->
<g id="edge21" class="edge">
<title>BB14&#45;&gt;BB15</title>
<path fill="none" stroke="black" d="M410.32,-136.99C424.04,-124.59 439.16,-110.92 453.31,-98.13"/>
<polygon fill="black" stroke="black" points="455.98,-100.43 461.05,-91.13 451.28,-95.24 455.98,-100.43"/>
</g>
<!-- BB16 -->
<g id="node17" class="node">
<title>BB16</title>
<ellipse fill="none" stroke="black" cx="218.57" cy="-48.08" rx="103.48" ry="48.17"/>
<text text-anchor="middle" x="218.57" y="-66.88" font-family="Times New Roman,serif" font-size="14.00">[e7..ed)</text>
<text text-anchor="middle" x="218.57" y="-51.88" font-family="Times New Roman,serif" font-size="14.00">Count: 0</text>
<text text-anchor="middle" x="218.57" y="-36.88" font-family="Times New Roman,serif" font-size="14.00">Normalized count: 0.00</text>
<text text-anchor="middle" x="218.57" y="-21.88" font-family="Times New Roman,serif" font-size="14.00">Samples weight: 0.00</text>
</g>
<!-- BB14&#45;&gt;BB16 -->
<g id="edge20" class="edge">
<title>BB14&#45;&gt;BB16</title>
<path fill="none" stroke="black" d="M316.89,-137.35C303.06,-124.93 287.79,-111.22 273.48,-98.38"/>
<polygon fill="black" stroke="black" points="275.43,-95.43 265.65,-91.35 270.76,-100.64 275.43,-95.43"/>
</g>
<!-- BB18 -->
<g id="node19" class="node">
<title>BB18</title>
<ellipse fill="none" stroke="black" cx="1031.57" cy="-708.92" rx="103.48" ry="48.17"/>
<text text-anchor="middle" x="1031.57" y="-727.72" font-family="Times New Roman,serif" font-size="14.00">[f9..104)</text>
<text text-anchor="middle" x="1031.57" y="-712.72" font-family="Times New Roman,serif" font-size="14.00">Count: 0</text>
<text text-anchor="middle" x="1031.57" y="-697.72" font-family="Times New Roman,serif" font-size="14.00">Normalized count: 0.00</text>
<text text-anchor="middle" x="1031.57" y="-682.72" font-family="Times New Roman,serif" font-size="14.00">Samples weight: 0.00</text>
</g>
<!-- BB15&#45;&gt;BB18 -->
<g id="edge22" class="edge">
<title>BB15&#45;&gt;BB18</title>
<path fill="none" stroke="black" d="M609.89,-55.88C719.19,-65.42 882.3,-86.94 923.57,-132.17 977.56,-191.35 942.57,-231.3 942.57,-311.42 942.57,-445.58 942.57,-445.58 942.57,-445.58 942.57,-525.7 930.16,-551.13 961.57,-624.83 966.41,-636.2 973.36,-647.18 981.01,-657.24"/>
<polygon fill="black" stroke="black" points="978.31,-659.46 987.28,-665.1 983.78,-655.1 978.31,-659.46"/>
</g>
<!-- BB16&#45;&gt;BB17 -->
<g id="edge23" class="edge">
<title>BB16&#45;&gt;BB17</title>
<path fill="none" stroke="black" d="M124.53,-68.54C88.62,-80.79 50.78,-100.53 27.57,-132.17 -19.83,-196.76 8.57,-231.3 8.57,-311.42 8.57,-577.75 8.57,-577.75 8.57,-577.75 8.57,-726.44 499.98,-801.73 725.65,-828.46"/>
<polygon fill="black" stroke="black" points="725.53,-831.97 735.87,-829.66 726.34,-825.02 725.53,-831.97"/>
</g>
<!-- BB17&#45;&gt;BB5 -->
<g id="edge24" class="edge">
<title>BB17&#45;&gt;BB5</title>
<path fill="none" stroke="black" d="M798.65,-796.01C789.16,-784.99 778.9,-773.06 769.12,-761.7"/>
<polygon fill="black" stroke="black" points="771.62,-759.24 762.45,-753.94 766.32,-763.8 771.62,-759.24"/>
</g>
<!-- BB17&#45;&gt;BB18 -->
<g id="edge25" class="edge">
<title>BB17&#45;&gt;BB18</title>
<path fill="none" stroke="black" d="M894.81,-801.2C916.8,-786.52 941.99,-769.71 964.71,-754.54"/>
<polygon fill="black" stroke="black" points="966.91,-757.28 973.29,-748.82 963.03,-751.46 966.91,-757.28"/>
</g>
<!-- BB19 -->
<g id="node20" class="node">
<title>BB19</title>
<ellipse fill="none" stroke="black" cx="1073.57" cy="-576.75" rx="103.48" ry="48.17"/>
<text text-anchor="middle" x="1073.57" y="-595.55" font-family="Times New Roman,serif" font-size="14.00">[104..10f)</text>
<text text-anchor="middle" x="1073.57" y="-580.55" font-family="Times New Roman,serif" font-size="14.00">Count: 0</text>
<text text-anchor="middle" x="1073.57" y="-565.55" font-family="Times New Roman,serif" font-size="14.00">Normalized count: 0.00</text>
<text text-anchor="middle" x="1073.57" y="-550.55" font-family="Times New Roman,serif" font-size="14.00">Samples weight: 0.00</text>
</g>
<!-- BB18&#45;&gt;BB19 -->
<g id="edge27" class="edge">
<title>BB18&#45;&gt;BB19</title>
<path fill="none" stroke="black" d="M1046.61,-661.29C1049.45,-652.5 1052.44,-643.23 1055.36,-634.18"/>
<polygon fill="black" stroke="black" points="1058.75,-635.08 1058.49,-624.49 1052.08,-632.93 1058.75,-635.08"/>
</g>
<!-- BB29 -->
<g id="node30" class="node">
<title>BB29</title>
<ellipse fill="none" stroke="black" cx="1521.57" cy="-576.75" rx="103.48" ry="48.17"/>
<text text-anchor="middle" x="1521.57" y="-595.55" font-family="Times New Roman,serif" font-size="14.00">[186..195)</text>
<text text-anchor="middle" x="1521.57" y="-580.55" font-family="Times New Roman,serif" font-size="14.00">Count: 2</text>
<text text-anchor="middle" x="1521.57" y="-565.55" font-family="Times New Roman,serif" font-size="14.00">Normalized count: 1.00</text>
<text text-anchor="middle" x="1521.57" y="-550.55" font-family="Times New Roman,serif" font-size="14.00">Samples weight: 0.01</text>
</g>
<!-- BB18&#45;&gt;BB29 -->
<g id="edge26" class="edge">
<title>BB18&#45;&gt;BB29</title>
<path fill="none" stroke="black" d="M1125.32,-688.24C1228.28,-666.48 1382.67,-633.37 1409.57,-624.83 1419.24,-621.76 1429.24,-618.18 1439.09,-614.4"/>
<polygon fill="black" stroke="black" points="1440.45,-617.62 1448.48,-610.71 1437.89,-611.11 1440.45,-617.62"/>
</g>
<!-- BB25 -->
<g id="node26" class="node">
<title>BB25</title>
<ellipse fill="none" stroke="black" cx="1548.57" cy="-841.08" rx="103.48" ry="48.17"/>
<text text-anchor="middle" x="1548.57" y="-859.88" font-family="Times New Roman,serif" font-size="14.00">[150..15a)</text>
<text text-anchor="middle" x="1548.57" y="-844.88" font-family="Times New Roman,serif" font-size="14.00">Count: 3</text>
<text text-anchor="middle" x="1548.57" y="-829.88" font-family="Times New Roman,serif" font-size="14.00">Normalized count: 1.50</text>
<text text-anchor="middle" x="1548.57" y="-814.88" font-family="Times New Roman,serif" font-size="14.00">Samples weight: 0.01</text>
</g>
<!-- BB20&#45;&gt;BB25 -->
<g id="edge28" class="edge">
<title>BB20&#45;&gt;BB25</title>
<path fill="none" stroke="black" d="M1512.47,-925.99C1516.38,-916.89 1520.53,-907.26 1524.56,-897.89"/>
<polygon fill="black" stroke="black" points="1527.8,-899.2 1528.54,-888.63 1521.37,-896.43 1527.8,-899.2"/>
</g>
<!-- BB21 -->
<g id="node22" class="node">
<title>BB21</title>
<ellipse fill="none" stroke="black" cx="1877.57" cy="-708.92" rx="103.48" ry="48.17"/>
<text text-anchor="middle" x="1877.57" y="-727.72" font-family="Times New Roman,serif" font-size="14.00">[120..130)</text>
<text text-anchor="middle" x="1877.57" y="-712.72" font-family="Times New Roman,serif" font-size="14.00">Count: 1</text>
<text text-anchor="middle" x="1877.57" y="-697.72" font-family="Times New Roman,serif" font-size="14.00">Normalized count: 0.50</text>
<text text-anchor="middle" x="1877.57" y="-682.72" font-family="Times New Roman,serif" font-size="14.00">Samples weight: 0.00</text>
</g>
<!-- BB23 -->
<g id="node24" class="node">
<title>BB23</title>
<ellipse fill="none" stroke="black" cx="1917.57" cy="-576.75" rx="108.38" ry="48.17"/>
<text text-anchor="middle" x="1917.57" y="-595.55" font-family="Times New Roman,serif" font-size="14.00">[144..14a)</text>
<text text-anchor="middle" x="1917.57" y="-580.55" font-family="Times New Roman,serif" font-size="14.00">Count: 170</text>
<text text-anchor="middle" x="1917.57" y="-565.55" font-family="Times New Roman,serif" font-size="14.00">Normalized count: 85.00</text>
<text text-anchor="middle" x="1917.57" y="-550.55" font-family="Times New Roman,serif" font-size="14.00">Samples weight: 0.46</text>
</g>
<!-- BB21&#45;&gt;BB23 -->
<g id="edge29" class="edge">
<title>BB21&#45;&gt;BB23</title>
<path fill="none" stroke="black" d="M1891.89,-661.29C1894.59,-652.5 1897.44,-643.23 1900.23,-634.18"/>
<polygon fill="black" stroke="black" points="1903.61,-635.07 1903.2,-624.49 1896.92,-633.02 1903.61,-635.07"/>
</g>
<!-- BB22 -->
<g id="node23" class="node">
<title>BB22</title>
<ellipse fill="none" stroke="black" cx="1992.57" cy="-444.58" rx="108.38" ry="48.17"/>
<text text-anchor="middle" x="1992.57" y="-463.38" font-family="Times New Roman,serif" font-size="14.00">[130..144)</text>
<text text-anchor="middle" x="1992.57" y="-448.38" font-family="Times New Roman,serif" font-size="14.00">Count: 169</text>
<text text-anchor="middle" x="1992.57" y="-433.38" font-family="Times New Roman,serif" font-size="14.00">Normalized count: 84.50</text>
<text text-anchor="middle" x="1992.57" y="-418.38" font-family="Times New Roman,serif" font-size="14.00">Samples weight: 0.46</text>
</g>
<!-- BB22&#45;&gt;BB23 -->
<g id="edge30" class="edge">
<title>BB22&#45;&gt;BB23</title>
<path fill="none" stroke="black" d="M1972.33,-491.99C1967,-501.7 1961.11,-512.01 1955.22,-521.96"/>
<polygon fill="black" stroke="black" points="1952.19,-520.21 1950.05,-530.59 1958.19,-523.81 1952.19,-520.21"/>
</g>
<!-- BB23&#45;&gt;BB22 -->
<g id="edge31" class="edge">
<title>BB23&#45;&gt;BB22</title>
<path fill="none" stroke="black" d="M1937.73,-529.49C1943.06,-519.77 1948.95,-509.44 1954.86,-499.46"/>
<polygon fill="black" stroke="black" points="1957.9,-501.19 1960.04,-490.82 1951.9,-497.6 1957.9,-501.19"/>
</g>
<!-- BB24 -->
<g id="node25" class="node">
<title>BB24</title>
<ellipse fill="none" stroke="black" cx="1763.57" cy="-444.58" rx="103.48" ry="48.17"/>
<text text-anchor="middle" x="1763.57" y="-463.38" font-family="Times New Roman,serif" font-size="14.00">[14a..150)</text>
<text text-anchor="middle" x="1763.57" y="-448.38" font-family="Times New Roman,serif" font-size="14.00">Count: 1</text>
<text text-anchor="middle" x="1763.57" y="-433.38" font-family="Times New Roman,serif" font-size="14.00">Normalized count: 0.50</text>
<text text-anchor="middle" x="1763.57" y="-418.38" font-family="Times New Roman,serif" font-size="14.00">Samples weight: 0.00</text>
</g>
<!-- BB23&#45;&gt;BB24 -->
<g id="edge32" class="edge">
<title>BB23&#45;&gt;BB24</title>
<path fill="none" stroke="black" d="M1867.99,-533.85C1852.87,-521.06 1836.12,-506.91 1820.54,-493.74"/>
<polygon fill="black" stroke="black" points="1822.42,-490.74 1812.52,-486.96 1817.9,-496.09 1822.42,-490.74"/>
</g>
<!-- BB24&#45;&gt;BB25 -->
<g id="edge33" class="edge">
<title>BB24&#45;&gt;BB25</title>
<path fill="none" stroke="black" d="M1738.64,-491.32C1698.93,-564.18 1621.44,-706.37 1578.69,-784.81"/>
<polygon fill="black" stroke="black" points="1575.36,-783.6 1573.65,-794.06 1581.51,-786.95 1575.36,-783.6"/>
</g>
<!-- BB25&#45;&gt;BB21 -->
<g id="edge34" class="edge">
<title>BB25&#45;&gt;BB21</title>
<path fill="none" stroke="black" d="M1626.54,-809.23C1675.82,-789.74 1739.59,-764.51 1790.52,-744.36"/>
<polygon fill="black" stroke="black" points="1791.86,-747.59 1799.87,-740.65 1789.29,-741.08 1791.86,-747.59"/>
</g>
<!-- BB26 -->
<g id="node27" class="node">
<title>BB26</title>
<ellipse fill="none" stroke="black" cx="1371.57" cy="-708.92" rx="103.48" ry="48.17"/>
<text text-anchor="middle" x="1371.57" y="-727.72" font-family="Times New Roman,serif" font-size="14.00">[15a..16b)</text>
<text text-anchor="middle" x="1371.57" y="-712.72" font-family="Times New Roman,serif" font-size="14.00">Count: 2</text>
<text text-anchor="middle" x="1371.57" y="-697.72" font-family="Times New Roman,serif" font-size="14.00">Normalized count: 1.00</text>
<text text-anchor="middle" x="1371.57" y="-682.72" font-family="Times New Roman,serif" font-size="14.00">Samples weight: 0.01</text>
</g>
<!-- BB25&#45;&gt;BB26 -->
<g id="edge35" class="edge">
<title>BB25&#45;&gt;BB26</title>
<path fill="none" stroke="black" d="M1494.02,-799.97C1475.09,-786.04 1453.71,-770.33 1434.18,-755.96"/>
<polygon fill="black" stroke="black" points="1436.07,-753 1425.94,-749.9 1431.92,-758.64 1436.07,-753"/>
</g>
<!-- BB28 -->
<g id="node29" class="node">
<title>BB28</title>
<ellipse fill="none" stroke="black" cx="1297.57" cy="-576.75" rx="103.48" ry="48.17"/>
<text text-anchor="middle" x="1297.57" y="-595.55" font-family="Times New Roman,serif" font-size="14.00">[17c..186)</text>
<text text-anchor="middle" x="1297.57" y="-580.55" font-family="Times New Roman,serif" font-size="14.00">Count: 5</text>
<text text-anchor="middle" x="1297.57" y="-565.55" font-family="Times New Roman,serif" font-size="14.00">Normalized count: 2.50</text>
<text text-anchor="middle" x="1297.57" y="-550.55" font-family="Times New Roman,serif" font-size="14.00">Samples weight: 0.01</text>
</g>
<!-- BB26&#45;&gt;BB28 -->
<g id="edge36" class="edge">
<title>BB26&#45;&gt;BB28</title>
<path fill="none" stroke="black" d="M1345.48,-662.02C1340.06,-652.5 1334.3,-642.37 1328.73,-632.56"/>
<polygon fill="black" stroke="black" points="1331.66,-630.63 1323.67,-623.67 1325.57,-634.09 1331.66,-630.63"/>
</g>
<!-- BB27 -->
<g id="node28" class="node">
<title>BB27</title>
<ellipse fill="none" stroke="black" cx="1297.57" cy="-444.58" rx="103.48" ry="48.17"/>
<text text-anchor="middle" x="1297.57" y="-463.38" font-family="Times New Roman,serif" font-size="14.00">[16b..17c)</text>
<text text-anchor="middle" x="1297.57" y="-448.38" font-family="Times New Roman,serif" font-size="14.00">Count: 3</text>
<text text-anchor="middle" x="1297.57" y="-433.38" font-family="Times New Roman,serif" font-size="14.00">Normalized count: 1.50</text>
<text text-anchor="middle" x="1297.57" y="-418.38" font-family="Times New Roman,serif" font-size="14.00">Samples weight: 0.01</text>
</g>
<!-- BB27&#45;&gt;BB28 -->
<g id="edge37" class="edge">
<title>BB27&#45;&gt;BB28</title>
<path fill="none" stroke="black" d="M1304.09,-492.94C1304.31,-501.24 1304.37,-509.95 1304.27,-518.48"/>
<polygon fill="black" stroke="black" points="1300.77,-518.69 1304.08,-528.76 1307.77,-518.82 1300.77,-518.69"/>
</g>
<!-- BB28&#45;&gt;BB27 -->
<g id="edge38" class="edge">
<title>BB28&#45;&gt;BB27</title>
<path fill="none" stroke="black" d="M1291.05,-528.76C1290.83,-520.38 1290.76,-511.57 1290.86,-502.95"/>
<polygon fill="black" stroke="black" points="1294.36,-503.01 1291.04,-492.94 1287.36,-502.88 1294.36,-503.01"/>
</g>
<!-- BB28&#45;&gt;BB29 -->
<g id="edge39" class="edge">
<title>BB28&#45;&gt;BB29</title>
<path fill="none" stroke="black" d="M1400.82,-576.75C1403.27,-576.75 1405.73,-576.75 1408.18,-576.75"/>
<polygon fill="black" stroke="black" points="1408.27,-580.25 1418.27,-576.75 1408.27,-573.25 1408.27,-580.25"/>
</g>
<!-- BB30 -->
<g id="node31" class="node">
<title>BB30</title>
<ellipse fill="none" stroke="black" cx="1521.57" cy="-444.58" rx="103.48" ry="48.17"/>
<text text-anchor="middle" x="1521.57" y="-463.38" font-family="Times New Roman,serif" font-size="14.00">[195..1c4)</text>
<text text-anchor="middle" x="1521.57" y="-448.38" font-family="Times New Roman,serif" font-size="14.00">Count: 2</text>
<text text-anchor="middle" x="1521.57" y="-433.38" font-family="Times New Roman,serif" font-size="14.00">Normalized count: 1.00</text>
<text text-anchor="middle" x="1521.57" y="-418.38" font-family="Times New Roman,serif" font-size="14.00">Samples weight: 0.01</text>
</g>
<!-- BB29&#45;&gt;BB30 -->
<g id="edge40" class="edge">
<title>BB29&#45;&gt;BB30</title>
<path fill="none" stroke="black" d="M1521.57,-528.39C1521.57,-520.12 1521.57,-511.44 1521.57,-502.93"/>
<polygon fill="black" stroke="black" points="1525.07,-502.69 1521.57,-492.69 1518.07,-502.69 1525.07,-502.69"/>
</g>
<!-- BB30&#45;&gt;BB30 -->
<g id="edge41" class="edge">
<title>BB30&#45;&gt;BB30</title>
<path fill="none" stroke="black" d="M1611.45,-468.39C1629.72,-465.8 1642.8,-457.86 1642.8,-444.58 1642.8,-433.9 1634.33,-426.67 1621.5,-422.91"/>
<polygon fill="black" stroke="black" points="1621.96,-419.43 1611.45,-420.78 1620.51,-426.27 1621.96,-419.43"/>
</g>
<!-- BB31 -->
<g id="node32" class="node">
<title>BB31</title>
<ellipse fill="none" stroke="black" cx="1521.57" cy="-312.42" rx="103.48" ry="48.17"/>
<text text-anchor="middle" x="1521.57" y="-331.22" font-family="Times New Roman,serif" font-size="14.00">[1c4..1cc)</text>
<text text-anchor="middle" x="1521.57" y="-316.22" font-family="Times New Roman,serif" font-size="14.00">Count: 2</text>
<text text-anchor="middle" x="1521.57" y="-301.22" font-family="Times New Roman,serif" font-size="14.00">Normalized count: 1.00</text>
<text text-anchor="middle" x="1521.57" y="-286.22" font-family="Times New Roman,serif" font-size="14.00">Samples weight: 0.01</text>
</g>
<!-- BB30&#45;&gt;BB31 -->
<g id="edge42" class="edge">
<title>BB30&#45;&gt;BB31</title>
<path fill="none" stroke="black" d="M1521.57,-396.22C1521.57,-387.95 1521.57,-379.27 1521.57,-370.77"/>
<polygon fill="black" stroke="black" points="1525.07,-370.52 1521.57,-360.52 1518.07,-370.52 1525.07,-370.52"/>
</g>
<!-- BB32 -->
<g id="node33" class="node">
<title>BB32</title>
<ellipse fill="none" stroke="black" cx="1409.57" cy="-180.25" rx="103.48" ry="48.17"/>
<text text-anchor="middle" x="1409.57" y="-199.05" font-family="Times New Roman,serif" font-size="14.00">[1cc..1d3)</text>
<text text-anchor="middle" x="1409.57" y="-184.05" font-family="Times New Roman,serif" font-size="14.00">Count: 0</text>
<text text-anchor="middle" x="1409.57" y="-169.05" font-family="Times New Roman,serif" font-size="14.00">Normalized count: 0.00</text>
<text text-anchor="middle" x="1409.57" y="-154.05" font-family="Times New Roman,serif" font-size="14.00">Samples weight: 0.00</text>
</g>
<!-- BB31&#45;&gt;BB32 -->
<g id="edge44" class="edge">
<title>BB31&#45;&gt;BB32</title>
<path fill="none" stroke="black" d="M1483.65,-267.35C1474.16,-256.32 1463.9,-244.39 1454.12,-233.03"/>
<polygon fill="black" stroke="black" points="1456.62,-230.57 1447.45,-225.27 1451.32,-235.14 1456.62,-230.57"/>
</g>
<!-- BB33 -->
<g id="node34" class="node">
<title>BB33</title>
<ellipse fill="none" stroke="black" cx="1633.57" cy="-180.25" rx="103.48" ry="48.17"/>
<text text-anchor="middle" x="1633.57" y="-199.05" font-family="Times New Roman,serif" font-size="14.00">[1d3..1de)</text>
<text text-anchor="middle" x="1633.57" y="-184.05" font-family="Times New Roman,serif" font-size="14.00">Count: 2</text>
<text text-anchor="middle" x="1633.57" y="-169.05" font-family="Times New Roman,serif" font-size="14.00">Normalized count: 1.00</text>
<text text-anchor="middle" x="1633.57" y="-154.05" font-family="Times New Roman,serif" font-size="14.00">Samples weight: 0.01</text>
</g>
<!-- BB31&#45;&gt;BB33 -->
<g id="edge43" class="edge">
<title>BB31&#45;&gt;BB33</title>
<path fill="none" stroke="black" d="M1559.48,-267.35C1568.97,-256.32 1579.24,-244.39 1589.01,-233.03"/>
<polygon fill="black" stroke="black" points="1591.82,-235.14 1595.69,-225.27 1586.51,-230.57 1591.82,-235.14"/>
</g>
<!-- BB32&#45;&gt;BB33 -->
<g id="edge45" class="edge">
<title>BB32&#45;&gt;BB33</title>
<path fill="none" stroke="black" d="M1512.82,-180.25C1515.27,-180.25 1517.73,-180.25 1520.18,-180.25"/>
<polygon fill="black" stroke="black" points="1520.27,-183.75 1530.27,-180.25 1520.27,-176.75 1520.27,-183.75"/>
</g>
</g>
</svg>
