<?xml version="1.0" encoding="UTF-8" standalone="no"?>
<!DOCTYPE svg PUBLIC "-//W3C//DTD SVG 1.1//EN"
 "http://www.w3.org/Graphics/SVG/1.1/DTD/svg11.dtd">
<!-- Generated by graphviz version 2.47.0 (20210316.0004)
 -->
<!-- Title: G Pages: 1 -->
<svg width="1326pt" height="749pt"
 viewBox="0.00 0.00 1325.71 748.67" xmlns="http://www.w3.org/2000/svg" xmlns:xlink="http://www.w3.org/1999/xlink">
<g id="graph0" class="graph" transform="scale(1 1) rotate(0) translate(4 744.67)">
<title>G</title>
<polygon fill="white" stroke="transparent" points="-4,4 -4,-744.67 1321.71,-744.67 1321.71,4 -4,4"/>
<!-- BB0 -->
<g id="node1" class="node">
<title>BB0</title>
<ellipse fill="none" stroke="black" cx="830.35" cy="-703.2" rx="105.22" ry="37.45"/>
<text text-anchor="middle" x="830.35" y="-714.5" font-family="Times New Roman,serif" font-size="14.00">[0..5)</text>
<text text-anchor="middle" x="830.35" y="-699.5" font-family="Times New Roman,serif" font-size="14.00">Normalized Count: 1.00</text>
<text text-anchor="middle" x="830.35" y="-684.5" font-family="Times New Roman,serif" font-size="14.00">Samples weight: 0.00</text>
</g>
<!-- BB11 -->
<g id="node12" class="node">
<title>BB11</title>
<ellipse fill="none" stroke="black" cx="830.35" cy="-592.24" rx="115.02" ry="37.45"/>
<text text-anchor="middle" x="830.35" y="-603.54" font-family="Times New Roman,serif" font-size="14.00">[58..5e)</text>
<text text-anchor="middle" x="830.35" y="-588.54" font-family="Times New Roman,serif" font-size="14.00">Normalized Count: 251.00</text>
<text text-anchor="middle" x="830.35" y="-573.54" font-family="Times New Roman,serif" font-size="14.00">Samples weight: 0.00</text>
</g>
<!-- BB0&#45;&gt;BB11 -->
<g id="edge1" class="edge">
<title>BB0&#45;&gt;BB11</title>
<path fill="none" stroke="black" d="M830.35,-665.61C830.35,-657.44 830.35,-648.66 830.35,-640.13"/>
<polygon fill="black" stroke="black" points="833.85,-639.92 830.35,-629.92 826.85,-639.92 833.85,-639.92"/>
</g>
<!-- BB1 -->
<g id="node2" class="node">
<title>BB1</title>
<ellipse fill="none" stroke="black" cx="683.35" cy="-481.29" rx="115.02" ry="37.45"/>
<text text-anchor="middle" x="683.35" y="-492.59" font-family="Times New Roman,serif" font-size="14.00">[5..14)</text>
<text text-anchor="middle" x="683.35" y="-477.59" font-family="Times New Roman,serif" font-size="14.00">Normalized Count: 250.00</text>
<text text-anchor="middle" x="683.35" y="-462.59" font-family="Times New Roman,serif" font-size="14.00">Samples weight: 0.00</text>
</g>
<!-- BB6 -->
<g id="node7" class="node">
<title>BB6</title>
<ellipse fill="none" stroke="black" cx="545.35" cy="-370.34" rx="124.4" ry="37.45"/>
<text text-anchor="middle" x="545.35" y="-381.64" font-family="Times New Roman,serif" font-size="14.00">[33..39)</text>
<text text-anchor="middle" x="545.35" y="-366.64" font-family="Times New Roman,serif" font-size="14.00">Normalized Count: 25500.00</text>
<text text-anchor="middle" x="545.35" y="-351.64" font-family="Times New Roman,serif" font-size="14.00">Samples weight: 0.00</text>
</g>
<!-- BB1&#45;&gt;BB6 -->
<g id="edge2" class="edge">
<title>BB1&#45;&gt;BB6</title>
<path fill="none" stroke="black" d="M640.44,-446.41C626.56,-435.45 611.02,-423.18 596.59,-411.79"/>
<polygon fill="black" stroke="black" points="598.72,-409.02 588.71,-405.57 594.39,-414.51 598.72,-409.02"/>
</g>
<!-- BB2 -->
<g id="node3" class="node">
<title>BB2</title>
<ellipse fill="none" stroke="black" cx="283.35" cy="-259.38" rx="124.4" ry="37.45"/>
<text text-anchor="middle" x="283.35" y="-270.68" font-family="Times New Roman,serif" font-size="14.00">[14..18)</text>
<text text-anchor="middle" x="283.35" y="-255.68" font-family="Times New Roman,serif" font-size="14.00">Normalized Count: 25250.00</text>
<text text-anchor="middle" x="283.35" y="-240.68" font-family="Times New Roman,serif" font-size="14.00">Samples weight: 0.00</text>
</g>
<!-- BB4 -->
<g id="node5" class="node">
<title>BB4</title>
<ellipse fill="none" stroke="black" cx="249.35" cy="-148.43" rx="134.2" ry="37.45"/>
<text text-anchor="middle" x="249.35" y="-159.73" font-family="Times New Roman,serif" font-size="14.00">[28..2d)</text>
<text text-anchor="middle" x="249.35" y="-144.73" font-family="Times New Roman,serif" font-size="14.00">Normalized Count: 2575500.00</text>
<text text-anchor="middle" x="249.35" y="-129.73" font-family="Times New Roman,serif" font-size="14.00">Samples weight: 0.49</text>
</g>
<!-- BB2&#45;&gt;BB4 -->
<g id="edge3" class="edge">
<title>BB2&#45;&gt;BB4</title>
<path fill="none" stroke="black" d="M271.93,-221.8C269.33,-213.45 266.52,-204.46 263.81,-195.76"/>
<polygon fill="black" stroke="black" points="267.11,-194.61 260.79,-186.1 260.43,-196.69 267.11,-194.61"/>
</g>
<!-- BB3 -->
<g id="node4" class="node">
<title>BB3</title>
<ellipse fill="none" stroke="black" cx="134.35" cy="-37.48" rx="134.2" ry="37.45"/>
<text text-anchor="middle" x="134.35" y="-48.78" font-family="Times New Roman,serif" font-size="14.00">[18..28)</text>
<text text-anchor="middle" x="134.35" y="-33.78" font-family="Times New Roman,serif" font-size="14.00">Normalized Count: 2550250.00</text>
<text text-anchor="middle" x="134.35" y="-18.78" font-family="Times New Roman,serif" font-size="14.00">Samples weight: 0.49</text>
</g>
<!-- BB3&#45;&gt;BB4 -->
<g id="edge4" class="edge">
<title>BB3&#45;&gt;BB4</title>
<path fill="none" stroke="black" d="M177.25,-73.12C188.26,-83.13 200.02,-94.19 210.79,-104.64"/>
<polygon fill="black" stroke="black" points="208.48,-107.27 218.07,-111.75 213.37,-102.26 208.48,-107.27"/>
</g>
<!-- BB4&#45;&gt;BB3 -->
<g id="edge5" class="edge">
<title>BB4&#45;&gt;BB3</title>
<path fill="none" stroke="black" d="M206.31,-112.66C195.3,-102.64 183.55,-91.59 172.79,-81.15"/>
<polygon fill="black" stroke="black" points="175.11,-78.53 165.52,-74.04 170.22,-83.54 175.11,-78.53"/>
</g>
<!-- BB5 -->
<g id="node6" class="node">
<title>BB5</title>
<ellipse fill="none" stroke="black" cx="411.35" cy="-37.48" rx="124.4" ry="37.45"/>
<text text-anchor="middle" x="411.35" y="-48.78" font-family="Times New Roman,serif" font-size="14.00">[2d..33)</text>
<text text-anchor="middle" x="411.35" y="-33.78" font-family="Times New Roman,serif" font-size="14.00">Normalized Count: 25250.00</text>
<text text-anchor="middle" x="411.35" y="-18.78" font-family="Times New Roman,serif" font-size="14.00">Samples weight: 0.00</text>
</g>
<!-- BB4&#45;&gt;BB5 -->
<g id="edge6" class="edge">
<title>BB4&#45;&gt;BB5</title>
<path fill="none" stroke="black" d="M299.72,-113.55C316.64,-102.17 335.66,-89.39 353.13,-77.63"/>
<polygon fill="black" stroke="black" points="355.22,-80.44 361.57,-71.96 351.32,-74.63 355.22,-80.44"/>
</g>
<!-- BB5&#45;&gt;BB6 -->
<g id="edge7" class="edge">
<title>BB5&#45;&gt;BB6</title>
<path fill="none" stroke="black" d="M426.1,-74.89C450.67,-135.57 499.95,-257.24 526.83,-323.61"/>
<polygon fill="black" stroke="black" points="523.63,-325.03 530.63,-332.98 530.12,-322.4 523.63,-325.03"/>
</g>
<!-- BB6&#45;&gt;BB2 -->
<g id="edge8" class="edge">
<title>BB6&#45;&gt;BB2</title>
<path fill="none" stroke="black" d="M473.76,-339.56C439.82,-325.45 399.14,-308.53 364.1,-293.96"/>
<polygon fill="black" stroke="black" points="365.43,-290.73 354.86,-290.12 362.75,-297.19 365.43,-290.73"/>
</g>
<!-- BB7 -->
<g id="node8" class="node">
<title>BB7</title>
<ellipse fill="none" stroke="black" cx="678.35" cy="-259.38" rx="115.02" ry="37.45"/>
<text text-anchor="middle" x="678.35" y="-270.68" font-family="Times New Roman,serif" font-size="14.00">[39..3e)</text>
<text text-anchor="middle" x="678.35" y="-255.68" font-family="Times New Roman,serif" font-size="14.00">Normalized Count: 250.00</text>
<text text-anchor="middle" x="678.35" y="-240.68" font-family="Times New Roman,serif" font-size="14.00">Samples weight: 0.00</text>
</g>
<!-- BB6&#45;&gt;BB7 -->
<g id="edge9" class="edge">
<title>BB6&#45;&gt;BB7</title>
<path fill="none" stroke="black" d="M587.43,-334.86C600.54,-324.13 615.11,-312.19 628.68,-301.07"/>
<polygon fill="black" stroke="black" points="631.02,-303.68 636.54,-294.63 626.59,-298.26 631.02,-303.68"/>
</g>
<!-- BB9 -->
<g id="node10" class="node">
<title>BB9</title>
<ellipse fill="none" stroke="black" cx="678.35" cy="-148.43" rx="124.4" ry="37.45"/>
<text text-anchor="middle" x="678.35" y="-159.73" font-family="Times New Roman,serif" font-size="14.00">[4c..52)</text>
<text text-anchor="middle" x="678.35" y="-144.73" font-family="Times New Roman,serif" font-size="14.00">Normalized Count: 25500.00</text>
<text text-anchor="middle" x="678.35" y="-129.73" font-family="Times New Roman,serif" font-size="14.00">Samples weight: 0.00</text>
</g>
<!-- BB7&#45;&gt;BB9 -->
<g id="edge10" class="edge">
<title>BB7&#45;&gt;BB9</title>
<path fill="none" stroke="black" d="M678.35,-221.8C678.35,-213.63 678.35,-204.85 678.35,-196.32"/>
<polygon fill="black" stroke="black" points="681.85,-196.1 678.35,-186.1 674.85,-196.1 681.85,-196.1"/>
</g>
<!-- BB8 -->
<g id="node9" class="node">
<title>BB8</title>
<ellipse fill="none" stroke="black" cx="678.35" cy="-37.48" rx="124.4" ry="37.45"/>
<text text-anchor="middle" x="678.35" y="-48.78" font-family="Times New Roman,serif" font-size="14.00">[3e..4c)</text>
<text text-anchor="middle" x="678.35" y="-33.78" font-family="Times New Roman,serif" font-size="14.00">Normalized Count: 25250.00</text>
<text text-anchor="middle" x="678.35" y="-18.78" font-family="Times New Roman,serif" font-size="14.00">Samples weight: 0.00</text>
</g>
<!-- BB8&#45;&gt;BB9 -->
<g id="edge11" class="edge">
<title>BB8&#45;&gt;BB9</title>
<path fill="none" stroke="black" d="M684.77,-75.15C685.08,-83.33 685.17,-92.11 685.04,-100.63"/>
<polygon fill="black" stroke="black" points="681.54,-100.76 684.77,-110.85 688.53,-100.94 681.54,-100.76"/>
</g>
<!-- BB9&#45;&gt;BB8 -->
<g id="edge12" class="edge">
<title>BB9&#45;&gt;BB8</title>
<path fill="none" stroke="black" d="M671.93,-110.85C671.62,-102.67 671.53,-93.89 671.66,-85.37"/>
<polygon fill="black" stroke="black" points="675.16,-85.24 671.93,-75.15 668.17,-85.05 675.16,-85.24"/>
</g>
<!-- BB10 -->
<g id="node11" class="node">
<title>BB10</title>
<ellipse fill="none" stroke="black" cx="936.35" cy="-37.48" rx="115.02" ry="37.45"/>
<text text-anchor="middle" x="936.35" y="-48.78" font-family="Times New Roman,serif" font-size="14.00">[52..58)</text>
<text text-anchor="middle" x="936.35" y="-33.78" font-family="Times New Roman,serif" font-size="14.00">Normalized Count: 250.00</text>
<text text-anchor="middle" x="936.35" y="-18.78" font-family="Times New Roman,serif" font-size="14.00">Samples weight: 0.00</text>
</g>
<!-- BB9&#45;&gt;BB10 -->
<g id="edge13" class="edge">
<title>BB9&#45;&gt;BB10</title>
<path fill="none" stroke="black" d="M749.19,-117.51C782.87,-103.29 823.24,-86.24 857.85,-71.63"/>
<polygon fill="black" stroke="black" points="859.6,-74.69 867.45,-67.57 856.88,-68.24 859.6,-74.69"/>
</g>
<!-- BB10&#45;&gt;BB11 -->
<g id="edge14" class="edge">
<title>BB10&#45;&gt;BB11</title>
<path fill="none" stroke="black" d="M906.82,-74.07C875.46,-115.59 830.35,-187.61 830.35,-258.38 830.35,-371.34 830.35,-371.34 830.35,-371.34 830.35,-431.07 830.35,-499.93 830.35,-544.45"/>
<polygon fill="black" stroke="black" points="826.85,-544.67 830.35,-554.67 833.85,-544.67 826.85,-544.67"/>
</g>
<!-- BB11&#45;&gt;BB1 -->
<g id="edge15" class="edge">
<title>BB11&#45;&gt;BB1</title>
<path fill="none" stroke="black" d="M785.05,-557.66C769.82,-546.38 752.68,-533.68 736.88,-521.97"/>
<polygon fill="black" stroke="black" points="738.88,-519.09 728.76,-515.95 734.71,-524.71 738.88,-519.09"/>
</g>
<!-- BB12 -->
<g id="node13" class="node">
<title>BB12</title>
<ellipse fill="none" stroke="black" cx="968.35" cy="-481.29" rx="105.22" ry="37.45"/>
<text text-anchor="middle" x="968.35" y="-492.59" font-family="Times New Roman,serif" font-size="14.00">[5e..69)</text>
<text text-anchor="middle" x="968.35" y="-477.59" font-family="Times New Roman,serif" font-size="14.00">Normalized Count: 1.00</text>
<text text-anchor="middle" x="968.35" y="-462.59" font-family="Times New Roman,serif" font-size="14.00">Samples weight: 0.00</text>
</g>
<!-- BB11&#45;&gt;BB12 -->
<g id="edge16" class="edge">
<title>BB11&#45;&gt;BB12</title>
<path fill="none" stroke="black" d="M873.26,-557.37C887.41,-546.19 903.28,-533.66 917.94,-522.09"/>
<polygon fill="black" stroke="black" points="920.26,-524.71 925.94,-515.77 915.93,-519.22 920.26,-524.71"/>
</g>
<!-- BB14 -->
<g id="node15" class="node">
<title>BB14</title>
<ellipse fill="none" stroke="black" cx="973.35" cy="-370.34" rx="115.02" ry="37.45"/>
<text text-anchor="middle" x="973.35" y="-381.64" font-family="Times New Roman,serif" font-size="14.00">[83..89)</text>
<text text-anchor="middle" x="973.35" y="-366.64" font-family="Times New Roman,serif" font-size="14.00">Normalized Count: 251.00</text>
<text text-anchor="middle" x="973.35" y="-351.64" font-family="Times New Roman,serif" font-size="14.00">Samples weight: 0.00</text>
</g>
<!-- BB12&#45;&gt;BB14 -->
<g id="edge17" class="edge">
<title>BB12&#45;&gt;BB14</title>
<path fill="none" stroke="black" d="M970.03,-443.71C970.4,-435.53 970.81,-426.75 971.2,-418.23"/>
<polygon fill="black" stroke="black" points="974.71,-418.16 971.67,-408.01 967.71,-417.84 974.71,-418.16"/>
</g>
<!-- BB13 -->
<g id="node14" class="node">
<title>BB13</title>
<ellipse fill="none" stroke="black" cx="973.35" cy="-259.38" rx="115.02" ry="37.45"/>
<text text-anchor="middle" x="973.35" y="-270.68" font-family="Times New Roman,serif" font-size="14.00">[69..83)</text>
<text text-anchor="middle" x="973.35" y="-255.68" font-family="Times New Roman,serif" font-size="14.00">Normalized Count: 250.00</text>
<text text-anchor="middle" x="973.35" y="-240.68" font-family="Times New Roman,serif" font-size="14.00">Samples weight: 0.00</text>
</g>
<!-- BB13&#45;&gt;BB14 -->
<g id="edge18" class="edge">
<title>BB13&#45;&gt;BB14</title>
<path fill="none" stroke="black" d="M979.77,-297.06C980.08,-305.23 980.17,-314.02 980.04,-322.54"/>
<polygon fill="black" stroke="black" points="976.54,-322.66 979.77,-332.75 983.53,-322.85 976.54,-322.66"/>
</g>
<!-- BB14&#45;&gt;BB13 -->
<g id="edge19" class="edge">
<title>BB14&#45;&gt;BB13</title>
<path fill="none" stroke="black" d="M966.93,-332.75C966.62,-324.58 966.53,-315.8 966.66,-307.27"/>
<polygon fill="black" stroke="black" points="970.16,-307.15 966.93,-297.06 963.17,-306.96 970.16,-307.15"/>
</g>
<!-- BB15 -->
<g id="node16" class="node">
<title>BB15</title>
<ellipse fill="none" stroke="black" cx="1212.35" cy="-259.38" rx="105.22" ry="37.45"/>
<text text-anchor="middle" x="1212.35" y="-270.68" font-family="Times New Roman,serif" font-size="14.00">[89..90)</text>
<text text-anchor="middle" x="1212.35" y="-255.68" font-family="Times New Roman,serif" font-size="14.00">Normalized Count: 1.00</text>
<text text-anchor="middle" x="1212.35" y="-240.68" font-family="Times New Roman,serif" font-size="14.00">Samples weight: 0.00</text>
</g>
<!-- BB14&#45;&gt;BB15 -->
<g id="edge20" class="edge">
<title>BB14&#45;&gt;BB15</title>
<path fill="none" stroke="black" d="M1038.97,-339.42C1070.04,-325.26 1107.25,-308.3 1139.22,-293.72"/>
<polygon fill="black" stroke="black" points="1140.88,-296.81 1148.52,-289.48 1137.97,-290.44 1140.88,-296.81"/>
</g>
</g>
</svg>
