<?xml version="1.0" encoding="UTF-8" standalone="no"?>
<!DOCTYPE svg PUBLIC "-//W3C//DTD SVG 1.1//EN"
 "http://www.w3.org/Graphics/SVG/1.1/DTD/svg11.dtd">
<!-- Generated by graphviz version 2.47.0 (20210316.0004)
 -->
<!-- Title: G Pages: 1 -->
<svg width="1224pt" height="860pt"
 viewBox="0.00 0.00 1223.74 859.63" xmlns="http://www.w3.org/2000/svg" xmlns:xlink="http://www.w3.org/1999/xlink">
<g id="graph0" class="graph" transform="scale(1 1) rotate(0) translate(4 855.63)">
<title>G</title>
<polygon fill="white" stroke="transparent" points="-4,4 -4,-855.63 1219.74,-855.63 1219.74,4 -4,4"/>
<!-- BB0 -->
<g id="node1" class="node">
<title>BB0</title>
<ellipse fill="none" stroke="black" cx="597.97" cy="-814.15" rx="106.55" ry="37.45"/>
<text text-anchor="middle" x="597.97" y="-825.45" font-family="Times New Roman,serif" font-size="14.00">[0..6)</text>
<text text-anchor="middle" x="597.97" y="-810.45" font-family="Times New Roman,serif" font-size="14.00">Normalized Count: NaN</text>
<text text-anchor="middle" x="597.97" y="-795.45" font-family="Times New Roman,serif" font-size="14.00">Samples weight: 0.00</text>
</g>
<!-- BB9 -->
<g id="node10" class="node">
<title>BB9</title>
<ellipse fill="none" stroke="black" cx="597.97" cy="-703.2" rx="106.55" ry="37.45"/>
<text text-anchor="middle" x="597.97" y="-714.5" font-family="Times New Roman,serif" font-size="14.00">[4d..51)</text>
<text text-anchor="middle" x="597.97" y="-699.5" font-family="Times New Roman,serif" font-size="14.00">Normalized Count: NaN</text>
<text text-anchor="middle" x="597.97" y="-684.5" font-family="Times New Roman,serif" font-size="14.00">Samples weight: 0.00</text>
</g>
<!-- BB0&#45;&gt;BB9 -->
<g id="edge1" class="edge">
<title>BB0&#45;&gt;BB9</title>
<path fill="none" stroke="black" d="M597.97,-776.57C597.97,-768.39 597.97,-759.61 597.97,-751.09"/>
<polygon fill="black" stroke="black" points="601.47,-750.87 597.97,-740.87 594.47,-750.87 601.47,-750.87"/>
</g>
<!-- BB1 -->
<g id="node2" class="node">
<title>BB1</title>
<ellipse fill="none" stroke="black" cx="427.97" cy="-592.24" rx="115.93" ry="37.45"/>
<text text-anchor="middle" x="427.97" y="-603.54" font-family="Times New Roman,serif" font-size="14.00">[6..19)</text>
<text text-anchor="middle" x="427.97" y="-588.54" font-family="Times New Roman,serif" font-size="14.00">Normalized Count: Infinity</text>
<text text-anchor="middle" x="427.97" y="-573.54" font-family="Times New Roman,serif" font-size="14.00">Samples weight: 0.01</text>
</g>
<!-- BB2 -->
<g id="node3" class="node">
<title>BB2</title>
<ellipse fill="none" stroke="black" cx="142.97" cy="-481.29" rx="106.55" ry="37.45"/>
<text text-anchor="middle" x="142.97" y="-492.59" font-family="Times New Roman,serif" font-size="14.00">[19..1d)</text>
<text text-anchor="middle" x="142.97" y="-477.59" font-family="Times New Roman,serif" font-size="14.00">Normalized Count: NaN</text>
<text text-anchor="middle" x="142.97" y="-462.59" font-family="Times New Roman,serif" font-size="14.00">Samples weight: 0.00</text>
</g>
<!-- BB1&#45;&gt;BB2 -->
<g id="edge3" class="edge">
<title>BB1&#45;&gt;BB2</title>
<path fill="none" stroke="black" d="M354.57,-563.19C314.48,-547.86 264.77,-528.85 223.6,-513.12"/>
<polygon fill="black" stroke="black" points="224.73,-509.8 214.14,-509.5 222.23,-516.34 224.73,-509.8"/>
</g>
<!-- BB6 -->
<g id="node7" class="node">
<title>BB6</title>
<ellipse fill="none" stroke="black" cx="427.97" cy="-481.29" rx="106.55" ry="37.45"/>
<text text-anchor="middle" x="427.97" y="-492.59" font-family="Times New Roman,serif" font-size="14.00">[35..42)</text>
<text text-anchor="middle" x="427.97" y="-477.59" font-family="Times New Roman,serif" font-size="14.00">Normalized Count: NaN</text>
<text text-anchor="middle" x="427.97" y="-462.59" font-family="Times New Roman,serif" font-size="14.00">Samples weight: 0.00</text>
</g>
<!-- BB1&#45;&gt;BB6 -->
<g id="edge2" class="edge">
<title>BB1&#45;&gt;BB6</title>
<path fill="none" stroke="black" d="M427.97,-554.66C427.97,-546.49 427.97,-537.71 427.97,-529.18"/>
<polygon fill="black" stroke="black" points="431.47,-528.96 427.97,-518.96 424.47,-528.96 431.47,-528.96"/>
</g>
<!-- BB4 -->
<g id="node5" class="node">
<title>BB4</title>
<ellipse fill="none" stroke="black" cx="115.97" cy="-370.34" rx="115.93" ry="37.45"/>
<text text-anchor="middle" x="115.97" y="-381.64" font-family="Times New Roman,serif" font-size="14.00">[2f..33)</text>
<text text-anchor="middle" x="115.97" y="-366.64" font-family="Times New Roman,serif" font-size="14.00">Normalized Count: Infinity</text>
<text text-anchor="middle" x="115.97" y="-351.64" font-family="Times New Roman,serif" font-size="14.00">Samples weight: 0.04</text>
</g>
<!-- BB2&#45;&gt;BB4 -->
<g id="edge4" class="edge">
<title>BB2&#45;&gt;BB4</title>
<path fill="none" stroke="black" d="M133.9,-443.71C131.85,-435.44 129.65,-426.56 127.52,-417.95"/>
<polygon fill="black" stroke="black" points="130.86,-416.87 125.05,-408.01 124.06,-418.56 130.86,-416.87"/>
</g>
<!-- BB3 -->
<g id="node4" class="node">
<title>BB3</title>
<ellipse fill="none" stroke="black" cx="115.97" cy="-259.38" rx="115.93" ry="37.45"/>
<text text-anchor="middle" x="115.97" y="-270.68" font-family="Times New Roman,serif" font-size="14.00">[1d..2f)</text>
<text text-anchor="middle" x="115.97" y="-255.68" font-family="Times New Roman,serif" font-size="14.00">Normalized Count: Infinity</text>
<text text-anchor="middle" x="115.97" y="-240.68" font-family="Times New Roman,serif" font-size="14.00">Samples weight: 0.50</text>
</g>
<!-- BB3&#45;&gt;BB4 -->
<g id="edge5" class="edge">
<title>BB3&#45;&gt;BB4</title>
<path fill="none" stroke="black" d="M122.38,-297.06C122.7,-305.23 122.79,-314.02 122.66,-322.54"/>
<polygon fill="black" stroke="black" points="119.15,-322.66 122.38,-332.75 126.15,-322.85 119.15,-322.66"/>
</g>
<!-- BB4&#45;&gt;BB3 -->
<g id="edge6" class="edge">
<title>BB4&#45;&gt;BB3</title>
<path fill="none" stroke="black" d="M109.55,-332.75C109.23,-324.58 109.14,-315.8 109.27,-307.27"/>
<polygon fill="black" stroke="black" points="112.78,-307.15 109.55,-297.06 105.78,-306.96 112.78,-307.15"/>
</g>
<!-- BB5 -->
<g id="node6" class="node">
<title>BB5</title>
<ellipse fill="none" stroke="black" cx="428.97" cy="-259.38" rx="106.55" ry="37.45"/>
<text text-anchor="middle" x="428.97" y="-270.68" font-family="Times New Roman,serif" font-size="14.00">[33..35)</text>
<text text-anchor="middle" x="428.97" y="-255.68" font-family="Times New Roman,serif" font-size="14.00">Normalized Count: NaN</text>
<text text-anchor="middle" x="428.97" y="-240.68" font-family="Times New Roman,serif" font-size="14.00">Samples weight: 0.00</text>
</g>
<!-- BB4&#45;&gt;BB5 -->
<g id="edge7" class="edge">
<title>BB4&#45;&gt;BB5</title>
<path fill="none" stroke="black" d="M193.34,-342.4C239.32,-326.4 297.67,-306.09 344.8,-289.68"/>
<polygon fill="black" stroke="black" points="346.08,-292.94 354.37,-286.35 343.78,-286.33 346.08,-292.94"/>
</g>
<!-- BB8 -->
<g id="node9" class="node">
<title>BB8</title>
<ellipse fill="none" stroke="black" cx="597.97" cy="-370.34" rx="115.93" ry="37.45"/>
<text text-anchor="middle" x="597.97" y="-381.64" font-family="Times New Roman,serif" font-size="14.00">[44..4d)</text>
<text text-anchor="middle" x="597.97" y="-366.64" font-family="Times New Roman,serif" font-size="14.00">Normalized Count: Infinity</text>
<text text-anchor="middle" x="597.97" y="-351.64" font-family="Times New Roman,serif" font-size="14.00">Samples weight: 0.01</text>
</g>
<!-- BB5&#45;&gt;BB8 -->
<g id="edge8" class="edge">
<title>BB5&#45;&gt;BB8</title>
<path fill="none" stroke="black" d="M479.08,-292.69C497.69,-304.69 518.97,-318.41 538.34,-330.9"/>
<polygon fill="black" stroke="black" points="536.5,-333.87 546.8,-336.35 540.29,-327.99 536.5,-333.87"/>
</g>
<!-- BB7 -->
<g id="node8" class="node">
<title>BB7</title>
<ellipse fill="none" stroke="black" cx="356.97" cy="-370.34" rx="106.55" ry="37.45"/>
<text text-anchor="middle" x="356.97" y="-381.64" font-family="Times New Roman,serif" font-size="14.00">[42..44)</text>
<text text-anchor="middle" x="356.97" y="-366.64" font-family="Times New Roman,serif" font-size="14.00">Normalized Count: NaN</text>
<text text-anchor="middle" x="356.97" y="-351.64" font-family="Times New Roman,serif" font-size="14.00">Samples weight: 0.00</text>
</g>
<!-- BB6&#45;&gt;BB7 -->
<g id="edge10" class="edge">
<title>BB6&#45;&gt;BB7</title>
<path fill="none" stroke="black" d="M404.72,-444.61C398.71,-435.4 392.17,-425.36 385.91,-415.76"/>
<polygon fill="black" stroke="black" points="388.66,-413.56 380.27,-407.09 382.79,-417.38 388.66,-413.56"/>
</g>
<!-- BB6&#45;&gt;BB8 -->
<g id="edge9" class="edge">
<title>BB6&#45;&gt;BB8</title>
<path fill="none" stroke="black" d="M478.05,-448.19C496.91,-436.11 518.54,-422.24 538.19,-409.65"/>
<polygon fill="black" stroke="black" points="540.23,-412.49 546.77,-404.15 536.46,-406.6 540.23,-412.49"/>
</g>
<!-- BB7&#45;&gt;BB8 -->
<g id="edge11" class="edge">
<title>BB7&#45;&gt;BB8</title>
<path fill="none" stroke="black" d="M463.82,-370.34C466.45,-370.34 469.09,-370.34 471.72,-370.34"/>
<polygon fill="black" stroke="black" points="471.89,-373.84 481.89,-370.34 471.89,-366.84 471.89,-373.84"/>
</g>
<!-- BB8&#45;&gt;BB9 -->
<g id="edge12" class="edge">
<title>BB8&#45;&gt;BB9</title>
<path fill="none" stroke="black" d="M597.97,-407.92C597.97,-468.31 597.97,-588.78 597.97,-655.33"/>
<polygon fill="black" stroke="black" points="594.47,-655.52 597.97,-665.52 601.47,-655.52 594.47,-655.52"/>
</g>
<!-- BB9&#45;&gt;BB1 -->
<g id="edge13" class="edge">
<title>BB9&#45;&gt;BB1</title>
<path fill="none" stroke="black" d="M547.88,-670.1C529.02,-658.01 507.4,-644.15 487.74,-631.56"/>
<polygon fill="black" stroke="black" points="489.47,-628.51 479.17,-626.06 485.7,-634.4 489.47,-628.51"/>
</g>
<!-- BB10 -->
<g id="node11" class="node">
<title>BB10</title>
<ellipse fill="none" stroke="black" cx="736.97" cy="-592.24" rx="106.55" ry="37.45"/>
<text text-anchor="middle" x="736.97" y="-603.54" font-family="Times New Roman,serif" font-size="14.00">[51..57)</text>
<text text-anchor="middle" x="736.97" y="-588.54" font-family="Times New Roman,serif" font-size="14.00">Normalized Count: NaN</text>
<text text-anchor="middle" x="736.97" y="-573.54" font-family="Times New Roman,serif" font-size="14.00">Samples weight: 0.00</text>
</g>
<!-- BB9&#45;&gt;BB10 -->
<g id="edge14" class="edge">
<title>BB9&#45;&gt;BB10</title>
<path fill="none" stroke="black" d="M640.8,-668.62C655.07,-657.43 671.11,-644.86 685.94,-633.24"/>
<polygon fill="black" stroke="black" points="688.32,-635.82 694.03,-626.9 684,-630.31 688.32,-635.82"/>
</g>
<!-- BB16 -->
<g id="node17" class="node">
<title>BB16</title>
<ellipse fill="none" stroke="black" cx="808.97" cy="-481.29" rx="106.55" ry="37.45"/>
<text text-anchor="middle" x="808.97" y="-492.59" font-family="Times New Roman,serif" font-size="14.00">[8d..91)</text>
<text text-anchor="middle" x="808.97" y="-477.59" font-family="Times New Roman,serif" font-size="14.00">Normalized Count: NaN</text>
<text text-anchor="middle" x="808.97" y="-462.59" font-family="Times New Roman,serif" font-size="14.00">Samples weight: 0.00</text>
</g>
<!-- BB10&#45;&gt;BB16 -->
<g id="edge15" class="edge">
<title>BB10&#45;&gt;BB16</title>
<path fill="none" stroke="black" d="M760.54,-555.57C766.69,-546.26 773.4,-536.11 779.81,-526.41"/>
<polygon fill="black" stroke="black" points="782.74,-528.32 785.34,-518.05 776.9,-524.46 782.74,-528.32"/>
</g>
<!-- BB11 -->
<g id="node12" class="node">
<title>BB11</title>
<ellipse fill="none" stroke="black" cx="876.97" cy="-370.34" rx="106.55" ry="37.45"/>
<text text-anchor="middle" x="876.97" y="-381.64" font-family="Times New Roman,serif" font-size="14.00">[57..62)</text>
<text text-anchor="middle" x="876.97" y="-366.64" font-family="Times New Roman,serif" font-size="14.00">Normalized Count: NaN</text>
<text text-anchor="middle" x="876.97" y="-351.64" font-family="Times New Roman,serif" font-size="14.00">Samples weight: 0.00</text>
</g>
<!-- BB12 -->
<g id="node13" class="node">
<title>BB12</title>
<ellipse fill="none" stroke="black" cx="982.97" cy="-259.38" rx="106.55" ry="37.45"/>
<text text-anchor="middle" x="982.97" y="-270.68" font-family="Times New Roman,serif" font-size="14.00">[62..68)</text>
<text text-anchor="middle" x="982.97" y="-255.68" font-family="Times New Roman,serif" font-size="14.00">Normalized Count: NaN</text>
<text text-anchor="middle" x="982.97" y="-240.68" font-family="Times New Roman,serif" font-size="14.00">Samples weight: 0.00</text>
</g>
<!-- BB11&#45;&gt;BB12 -->
<g id="edge17" class="edge">
<title>BB11&#45;&gt;BB12</title>
<path fill="none" stroke="black" d="M910.8,-334.56C920.74,-324.34 931.72,-313.05 942.06,-302.43"/>
<polygon fill="black" stroke="black" points="944.63,-304.81 949.09,-295.2 939.61,-299.93 944.63,-304.81"/>
</g>
<!-- BB15 -->
<g id="node16" class="node">
<title>BB15</title>
<ellipse fill="none" stroke="black" cx="741.97" cy="-259.38" rx="115.93" ry="37.45"/>
<text text-anchor="middle" x="741.97" y="-270.68" font-family="Times New Roman,serif" font-size="14.00">[7e..8d)</text>
<text text-anchor="middle" x="741.97" y="-255.68" font-family="Times New Roman,serif" font-size="14.00">Normalized Count: Infinity</text>
<text text-anchor="middle" x="741.97" y="-240.68" font-family="Times New Roman,serif" font-size="14.00">Samples weight: 0.01</text>
</g>
<!-- BB11&#45;&gt;BB15 -->
<g id="edge16" class="edge">
<title>BB11&#45;&gt;BB15</title>
<path fill="none" stroke="black" d="M835.36,-335.76C821.63,-324.68 806.22,-312.24 791.94,-300.71"/>
<polygon fill="black" stroke="black" points="794.11,-297.97 784.13,-294.41 789.72,-303.42 794.11,-297.97"/>
</g>
<!-- BB14 -->
<g id="node15" class="node">
<title>BB14</title>
<ellipse fill="none" stroke="black" cx="861.97" cy="-148.43" rx="115.93" ry="37.45"/>
<text text-anchor="middle" x="861.97" y="-159.73" font-family="Times New Roman,serif" font-size="14.00">[7a..7e)</text>
<text text-anchor="middle" x="861.97" y="-144.73" font-family="Times New Roman,serif" font-size="14.00">Normalized Count: Infinity</text>
<text text-anchor="middle" x="861.97" y="-129.73" font-family="Times New Roman,serif" font-size="14.00">Samples weight: 0.04</text>
</g>
<!-- BB12&#45;&gt;BB14 -->
<g id="edge18" class="edge">
<title>BB12&#45;&gt;BB14</title>
<path fill="none" stroke="black" d="M945.01,-224.21C933.19,-213.56 920.02,-201.71 907.73,-190.63"/>
<polygon fill="black" stroke="black" points="909.97,-187.95 900.2,-183.86 905.29,-193.15 909.97,-187.95"/>
</g>
<!-- BB13 -->
<g id="node14" class="node">
<title>BB13</title>
<ellipse fill="none" stroke="black" cx="861.97" cy="-37.48" rx="115.93" ry="37.45"/>
<text text-anchor="middle" x="861.97" y="-48.78" font-family="Times New Roman,serif" font-size="14.00">[68..7a)</text>
<text text-anchor="middle" x="861.97" y="-33.78" font-family="Times New Roman,serif" font-size="14.00">Normalized Count: Infinity</text>
<text text-anchor="middle" x="861.97" y="-18.78" font-family="Times New Roman,serif" font-size="14.00">Samples weight: 0.37</text>
</g>
<!-- BB13&#45;&gt;BB14 -->
<g id="edge19" class="edge">
<title>BB13&#45;&gt;BB14</title>
<path fill="none" stroke="black" d="M868.38,-75.15C868.7,-83.33 868.79,-92.11 868.66,-100.63"/>
<polygon fill="black" stroke="black" points="865.15,-100.76 868.38,-110.85 872.15,-100.94 865.15,-100.76"/>
</g>
<!-- BB14&#45;&gt;BB13 -->
<g id="edge20" class="edge">
<title>BB14&#45;&gt;BB13</title>
<path fill="none" stroke="black" d="M855.55,-110.85C855.23,-102.67 855.14,-93.89 855.27,-85.37"/>
<polygon fill="black" stroke="black" points="858.78,-85.24 855.55,-75.15 851.78,-85.05 858.78,-85.24"/>
</g>
<!-- BB14&#45;&gt;BB15 -->
<g id="edge21" class="edge">
<title>BB14&#45;&gt;BB15</title>
<path fill="none" stroke="black" d="M823.83,-184.05C812.33,-194.5 799.58,-206.07 787.64,-216.91"/>
<polygon fill="black" stroke="black" points="784.99,-214.6 779.93,-223.91 789.69,-219.78 784.99,-214.6"/>
</g>
<!-- BB15&#45;&gt;BB16 -->
<g id="edge22" class="edge">
<title>BB15&#45;&gt;BB16</title>
<path fill="none" stroke="black" d="M742.1,-296.93C743.28,-327.45 747.5,-371.66 760.97,-407.81 764.6,-417.57 769.76,-427.32 775.36,-436.38"/>
<polygon fill="black" stroke="black" points="772.45,-438.33 780.82,-444.82 778.32,-434.52 772.45,-438.33"/>
</g>
<!-- BB16&#45;&gt;BB11 -->
<g id="edge23" class="edge">
<title>BB16&#45;&gt;BB11</title>
<path fill="none" stroke="black" d="M831.23,-444.61C836.98,-435.4 843.25,-425.36 849.24,-415.76"/>
<polygon fill="black" stroke="black" points="852.32,-417.43 854.65,-407.09 846.39,-413.72 852.32,-417.43"/>
</g>
<!-- BB17 -->
<g id="node18" class="node">
<title>BB17</title>
<ellipse fill="none" stroke="black" cx="1108.97" cy="-370.34" rx="106.55" ry="37.45"/>
<text text-anchor="middle" x="1108.97" y="-381.64" font-family="Times New Roman,serif" font-size="14.00">[91..92)</text>
<text text-anchor="middle" x="1108.97" y="-366.64" font-family="Times New Roman,serif" font-size="14.00">Normalized Count: NaN</text>
<text text-anchor="middle" x="1108.97" y="-351.64" font-family="Times New Roman,serif" font-size="14.00">Samples weight: 0.00</text>
</g>
<!-- BB16&#45;&gt;BB17 -->
<g id="edge24" class="edge">
<title>BB16&#45;&gt;BB17</title>
<path fill="none" stroke="black" d="M881.97,-453.78C925.69,-437.9 981.38,-417.67 1026.66,-401.23"/>
<polygon fill="black" stroke="black" points="1027.95,-404.48 1036.15,-397.78 1025.56,-397.9 1027.95,-404.48"/>
</g>
</g>
</svg>
