<?xml version="1.0" encoding="UTF-8" standalone="no"?>
<!DOCTYPE svg PUBLIC "-//W3C//DTD SVG 1.1//EN"
 "http://www.w3.org/Graphics/SVG/1.1/DTD/svg11.dtd">
<!-- Generated by graphviz version 2.47.0 (20210316.0004)
 -->
<!-- Title: G Pages: 1 -->
<svg width="2072pt" height="1426pt"
 viewBox="0.00 0.00 2072.29 1425.83" xmlns="http://www.w3.org/2000/svg" xmlns:xlink="http://www.w3.org/1999/xlink">
<g id="graph0" class="graph" transform="scale(1 1) rotate(0) translate(4 1421.83)">
<title>G</title>
<polygon fill="white" stroke="transparent" points="-4,4 -4,-1421.83 2068.29,-1421.83 2068.29,4 -4,4"/>
<!-- BB0 -->
<g id="node1" class="node">
<title>BB0</title>
<ellipse fill="none" stroke="black" cx="704.64" cy="-1369.75" rx="104.8" ry="48.17"/>
<text text-anchor="middle" x="704.64" y="-1388.55" font-family="Times New Roman,serif" font-size="14.00">[0..11)</text>
<text text-anchor="middle" x="704.64" y="-1373.55" font-family="Times New Roman,serif" font-size="14.00">Count: 0</text>
<text text-anchor="middle" x="704.64" y="-1358.55" font-family="Times New Roman,serif" font-size="14.00">Normalized count: NaN</text>
<text text-anchor="middle" x="704.64" y="-1343.55" font-family="Times New Roman,serif" font-size="14.00">Samples weight: 0.00</text>
</g>
<!-- BB2 -->
<g id="node3" class="node">
<title>BB2</title>
<ellipse fill="none" stroke="black" cx="704.64" cy="-1237.58" rx="104.8" ry="48.17"/>
<text text-anchor="middle" x="704.64" y="-1256.38" font-family="Times New Roman,serif" font-size="14.00">[22..28)</text>
<text text-anchor="middle" x="704.64" y="-1241.38" font-family="Times New Roman,serif" font-size="14.00">Count: 0</text>
<text text-anchor="middle" x="704.64" y="-1226.38" font-family="Times New Roman,serif" font-size="14.00">Normalized count: NaN</text>
<text text-anchor="middle" x="704.64" y="-1211.38" font-family="Times New Roman,serif" font-size="14.00">Samples weight: 0.00</text>
</g>
<!-- BB0&#45;&gt;BB2 -->
<g id="edge1" class="edge">
<title>BB0&#45;&gt;BB2</title>
<path fill="none" stroke="black" d="M704.64,-1321.39C704.64,-1313.12 704.64,-1304.44 704.64,-1295.93"/>
<polygon fill="black" stroke="black" points="708.14,-1295.69 704.64,-1285.69 701.14,-1295.69 708.14,-1295.69"/>
</g>
<!-- BB1 -->
<g id="node2" class="node">
<title>BB1</title>
<ellipse fill="none" stroke="black" cx="704.64" cy="-1105.42" rx="104.8" ry="48.17"/>
<text text-anchor="middle" x="704.64" y="-1124.22" font-family="Times New Roman,serif" font-size="14.00">[11..22)</text>
<text text-anchor="middle" x="704.64" y="-1109.22" font-family="Times New Roman,serif" font-size="14.00">Count: 0</text>
<text text-anchor="middle" x="704.64" y="-1094.22" font-family="Times New Roman,serif" font-size="14.00">Normalized count: NaN</text>
<text text-anchor="middle" x="704.64" y="-1079.22" font-family="Times New Roman,serif" font-size="14.00">Samples weight: 0.00</text>
</g>
<!-- BB1&#45;&gt;BB2 -->
<g id="edge2" class="edge">
<title>BB1&#45;&gt;BB2</title>
<path fill="none" stroke="black" d="M711.16,-1153.78C711.38,-1162.07 711.44,-1170.78 711.35,-1179.31"/>
<polygon fill="black" stroke="black" points="707.84,-1179.52 711.15,-1189.59 714.84,-1179.66 707.84,-1179.52"/>
</g>
<!-- BB2&#45;&gt;BB1 -->
<g id="edge3" class="edge">
<title>BB2&#45;&gt;BB1</title>
<path fill="none" stroke="black" d="M698.13,-1189.59C697.9,-1181.21 697.84,-1172.41 697.93,-1163.78"/>
<polygon fill="black" stroke="black" points="701.43,-1163.84 698.12,-1153.78 694.43,-1163.71 701.43,-1163.84"/>
</g>
<!-- BB3 -->
<g id="node4" class="node">
<title>BB3</title>
<ellipse fill="none" stroke="black" cx="931.64" cy="-1105.42" rx="104.8" ry="48.17"/>
<text text-anchor="middle" x="931.64" y="-1124.22" font-family="Times New Roman,serif" font-size="14.00">[28..54)</text>
<text text-anchor="middle" x="931.64" y="-1109.22" font-family="Times New Roman,serif" font-size="14.00">Count: 0</text>
<text text-anchor="middle" x="931.64" y="-1094.22" font-family="Times New Roman,serif" font-size="14.00">Normalized count: NaN</text>
<text text-anchor="middle" x="931.64" y="-1079.22" font-family="Times New Roman,serif" font-size="14.00">Samples weight: 0.00</text>
</g>
<!-- BB2&#45;&gt;BB3 -->
<g id="edge4" class="edge">
<title>BB2&#45;&gt;BB3</title>
<path fill="none" stroke="black" d="M769.08,-1199.63C796.88,-1183.69 829.54,-1164.96 858.26,-1148.49"/>
<polygon fill="black" stroke="black" points="860.1,-1151.47 867.04,-1143.46 856.62,-1145.4 860.1,-1151.47"/>
</g>
<!-- BB4 -->
<g id="node5" class="node">
<title>BB4</title>
<ellipse fill="none" stroke="black" cx="775.64" cy="-973.25" rx="104.8" ry="48.17"/>
<text text-anchor="middle" x="775.64" y="-992.05" font-family="Times New Roman,serif" font-size="14.00">[54..5c)</text>
<text text-anchor="middle" x="775.64" y="-977.05" font-family="Times New Roman,serif" font-size="14.00">Count: 0</text>
<text text-anchor="middle" x="775.64" y="-962.05" font-family="Times New Roman,serif" font-size="14.00">Normalized count: NaN</text>
<text text-anchor="middle" x="775.64" y="-947.05" font-family="Times New Roman,serif" font-size="14.00">Samples weight: 0.00</text>
</g>
<!-- BB3&#45;&gt;BB4 -->
<g id="edge6" class="edge">
<title>BB3&#45;&gt;BB4</title>
<path fill="none" stroke="black" d="M881.85,-1062.87C866.3,-1049.89 849.01,-1035.47 832.98,-1022.09"/>
<polygon fill="black" stroke="black" points="835.14,-1019.34 825.22,-1015.62 830.66,-1024.72 835.14,-1019.34"/>
</g>
<!-- BB20 -->
<g id="node21" class="node">
<title>BB20</title>
<ellipse fill="none" stroke="black" cx="1088.64" cy="-973.25" rx="104.8" ry="48.17"/>
<text text-anchor="middle" x="1088.64" y="-992.05" font-family="Times New Roman,serif" font-size="14.00">[10f..120)</text>
<text text-anchor="middle" x="1088.64" y="-977.05" font-family="Times New Roman,serif" font-size="14.00">Count: 0</text>
<text text-anchor="middle" x="1088.64" y="-962.05" font-family="Times New Roman,serif" font-size="14.00">Normalized count: NaN</text>
<text text-anchor="middle" x="1088.64" y="-947.05" font-family="Times New Roman,serif" font-size="14.00">Samples weight: 0.00</text>
</g>
<!-- BB3&#45;&gt;BB20 -->
<g id="edge5" class="edge">
<title>BB3&#45;&gt;BB20</title>
<path fill="none" stroke="black" d="M981.75,-1062.87C997.4,-1049.89 1014.8,-1035.47 1030.93,-1022.09"/>
<polygon fill="black" stroke="black" points="1033.28,-1024.7 1038.74,-1015.62 1028.81,-1019.31 1033.28,-1024.7"/>
</g>
<!-- BB17 -->
<g id="node18" class="node">
<title>BB17</title>
<ellipse fill="none" stroke="black" cx="749.64" cy="-841.08" rx="104.8" ry="48.17"/>
<text text-anchor="middle" x="749.64" y="-859.88" font-family="Times New Roman,serif" font-size="14.00">[ed..f9)</text>
<text text-anchor="middle" x="749.64" y="-844.88" font-family="Times New Roman,serif" font-size="14.00">Count: 0</text>
<text text-anchor="middle" x="749.64" y="-829.88" font-family="Times New Roman,serif" font-size="14.00">Normalized count: NaN</text>
<text text-anchor="middle" x="749.64" y="-814.88" font-family="Times New Roman,serif" font-size="14.00">Samples weight: 0.00</text>
</g>
<!-- BB4&#45;&gt;BB17 -->
<g id="edge7" class="edge">
<title>BB4&#45;&gt;BB17</title>
<path fill="none" stroke="black" d="M766.25,-925.26C764.54,-916.68 762.74,-907.66 760.98,-898.84"/>
<polygon fill="black" stroke="black" points="764.4,-898.13 759.01,-889.01 757.54,-899.5 764.4,-898.13"/>
</g>
<!-- BB5 -->
<g id="node6" class="node">
<title>BB5</title>
<ellipse fill="none" stroke="black" cx="706.64" cy="-708.92" rx="104.8" ry="48.17"/>
<text text-anchor="middle" x="706.64" y="-727.72" font-family="Times New Roman,serif" font-size="14.00">[5c..6b)</text>
<text text-anchor="middle" x="706.64" y="-712.72" font-family="Times New Roman,serif" font-size="14.00">Count: 0</text>
<text text-anchor="middle" x="706.64" y="-697.72" font-family="Times New Roman,serif" font-size="14.00">Normalized count: NaN</text>
<text text-anchor="middle" x="706.64" y="-682.72" font-family="Times New Roman,serif" font-size="14.00">Samples weight: 0.00</text>
</g>
<!-- BB10 -->
<g id="node11" class="node">
<title>BB10</title>
<ellipse fill="none" stroke="black" cx="663.64" cy="-576.75" rx="104.8" ry="48.17"/>
<text text-anchor="middle" x="663.64" y="-595.55" font-family="Times New Roman,serif" font-size="14.00">[9b..a3)</text>
<text text-anchor="middle" x="663.64" y="-580.55" font-family="Times New Roman,serif" font-size="14.00">Count: 0</text>
<text text-anchor="middle" x="663.64" y="-565.55" font-family="Times New Roman,serif" font-size="14.00">Normalized count: NaN</text>
<text text-anchor="middle" x="663.64" y="-550.55" font-family="Times New Roman,serif" font-size="14.00">Samples weight: 0.00</text>
</g>
<!-- BB5&#45;&gt;BB10 -->
<g id="edge8" class="edge">
<title>BB5&#45;&gt;BB10</title>
<path fill="none" stroke="black" d="M691.24,-661.29C688.34,-652.5 685.27,-643.23 682.28,-634.18"/>
<polygon fill="black" stroke="black" points="685.54,-632.88 679.08,-624.49 678.89,-635.08 685.54,-632.88"/>
</g>
<!-- BB6 -->
<g id="node7" class="node">
<title>BB6</title>
<ellipse fill="none" stroke="black" cx="822.64" cy="-444.58" rx="104.8" ry="48.17"/>
<text text-anchor="middle" x="822.64" y="-463.38" font-family="Times New Roman,serif" font-size="14.00">[6b..7b)</text>
<text text-anchor="middle" x="822.64" y="-448.38" font-family="Times New Roman,serif" font-size="14.00">Count: 0</text>
<text text-anchor="middle" x="822.64" y="-433.38" font-family="Times New Roman,serif" font-size="14.00">Normalized count: NaN</text>
<text text-anchor="middle" x="822.64" y="-418.38" font-family="Times New Roman,serif" font-size="14.00">Samples weight: 0.00</text>
</g>
<!-- BB8 -->
<g id="node9" class="node">
<title>BB8</title>
<ellipse fill="none" stroke="black" cx="822.64" cy="-312.42" rx="104.8" ry="48.17"/>
<text text-anchor="middle" x="822.64" y="-331.22" font-family="Times New Roman,serif" font-size="14.00">[8f..95)</text>
<text text-anchor="middle" x="822.64" y="-316.22" font-family="Times New Roman,serif" font-size="14.00">Count: 0</text>
<text text-anchor="middle" x="822.64" y="-301.22" font-family="Times New Roman,serif" font-size="14.00">Normalized count: NaN</text>
<text text-anchor="middle" x="822.64" y="-286.22" font-family="Times New Roman,serif" font-size="14.00">Samples weight: 0.00</text>
</g>
<!-- BB6&#45;&gt;BB8 -->
<g id="edge9" class="edge">
<title>BB6&#45;&gt;BB8</title>
<path fill="none" stroke="black" d="M822.64,-396.22C822.64,-387.95 822.64,-379.27 822.64,-370.77"/>
<polygon fill="black" stroke="black" points="826.14,-370.52 822.64,-360.52 819.14,-370.52 826.14,-370.52"/>
</g>
<!-- BB7 -->
<g id="node8" class="node">
<title>BB7</title>
<ellipse fill="none" stroke="black" cx="822.64" cy="-180.25" rx="104.8" ry="48.17"/>
<text text-anchor="middle" x="822.64" y="-199.05" font-family="Times New Roman,serif" font-size="14.00">[7b..8f)</text>
<text text-anchor="middle" x="822.64" y="-184.05" font-family="Times New Roman,serif" font-size="14.00">Count: 0</text>
<text text-anchor="middle" x="822.64" y="-169.05" font-family="Times New Roman,serif" font-size="14.00">Normalized count: NaN</text>
<text text-anchor="middle" x="822.64" y="-154.05" font-family="Times New Roman,serif" font-size="14.00">Samples weight: 0.00</text>
</g>
<!-- BB7&#45;&gt;BB8 -->
<g id="edge10" class="edge">
<title>BB7&#45;&gt;BB8</title>
<path fill="none" stroke="black" d="M829.16,-228.61C829.38,-236.91 829.44,-245.62 829.35,-254.15"/>
<polygon fill="black" stroke="black" points="825.84,-254.36 829.15,-264.42 832.84,-254.49 825.84,-254.36"/>
</g>
<!-- BB8&#45;&gt;BB7 -->
<g id="edge11" class="edge">
<title>BB8&#45;&gt;BB7</title>
<path fill="none" stroke="black" d="M816.13,-264.42C815.9,-256.05 815.84,-247.24 815.93,-238.62"/>
<polygon fill="black" stroke="black" points="819.43,-238.67 816.12,-228.61 812.43,-238.54 819.43,-238.67"/>
</g>
<!-- BB9 -->
<g id="node10" class="node">
<title>BB9</title>
<ellipse fill="none" stroke="black" cx="595.64" cy="-180.25" rx="104.8" ry="48.17"/>
<text text-anchor="middle" x="595.64" y="-199.05" font-family="Times New Roman,serif" font-size="14.00">[95..9b)</text>
<text text-anchor="middle" x="595.64" y="-184.05" font-family="Times New Roman,serif" font-size="14.00">Count: 0</text>
<text text-anchor="middle" x="595.64" y="-169.05" font-family="Times New Roman,serif" font-size="14.00">Normalized count: NaN</text>
<text text-anchor="middle" x="595.64" y="-154.05" font-family="Times New Roman,serif" font-size="14.00">Samples weight: 0.00</text>
</g>
<!-- BB8&#45;&gt;BB9 -->
<g id="edge12" class="edge">
<title>BB8&#45;&gt;BB9</title>
<path fill="none" stroke="black" d="M758.2,-274.46C730.4,-258.52 697.75,-239.8 669.02,-223.33"/>
<polygon fill="black" stroke="black" points="670.66,-220.23 660.24,-218.29 667.18,-226.31 670.66,-220.23"/>
</g>
<!-- BB9&#45;&gt;BB10 -->
<g id="edge13" class="edge">
<title>BB9&#45;&gt;BB10</title>
<path fill="none" stroke="black" d="M603.73,-228.19C616.24,-300.75 640.23,-439.94 653.75,-518.37"/>
<polygon fill="black" stroke="black" points="650.36,-519.3 655.51,-528.56 657.26,-518.11 650.36,-519.3"/>
</g>
<!-- BB10&#45;&gt;BB6 -->
<g id="edge14" class="edge">
<title>BB10&#45;&gt;BB6</title>
<path fill="none" stroke="black" d="M713.95,-534.56C729.9,-521.51 747.67,-506.96 764.14,-493.47"/>
<polygon fill="black" stroke="black" points="766.59,-495.99 772.11,-486.95 762.16,-490.57 766.59,-495.99"/>
</g>
<!-- BB11 -->
<g id="node12" class="node">
<title>BB11</title>
<ellipse fill="none" stroke="black" cx="325.64" cy="-444.58" rx="104.8" ry="48.17"/>
<text text-anchor="middle" x="325.64" y="-463.38" font-family="Times New Roman,serif" font-size="14.00">[a3..b2)</text>
<text text-anchor="middle" x="325.64" y="-448.38" font-family="Times New Roman,serif" font-size="14.00">Count: 0</text>
<text text-anchor="middle" x="325.64" y="-433.38" font-family="Times New Roman,serif" font-size="14.00">Normalized count: NaN</text>
<text text-anchor="middle" x="325.64" y="-418.38" font-family="Times New Roman,serif" font-size="14.00">Samples weight: 0.00</text>
</g>
<!-- BB10&#45;&gt;BB11 -->
<g id="edge15" class="edge">
<title>BB10&#45;&gt;BB11</title>
<path fill="none" stroke="black" d="M584.4,-545.23C533.41,-525.6 467.07,-500.05 414.32,-479.73"/>
<polygon fill="black" stroke="black" points="415.57,-476.46 404.98,-476.14 413.05,-483 415.57,-476.46"/>
</g>
<!-- BB13 -->
<g id="node14" class="node">
<title>BB13</title>
<ellipse fill="none" stroke="black" cx="255.64" cy="-312.42" rx="104.8" ry="48.17"/>
<text text-anchor="middle" x="255.64" y="-331.22" font-family="Times New Roman,serif" font-size="14.00">[c3..cb)</text>
<text text-anchor="middle" x="255.64" y="-316.22" font-family="Times New Roman,serif" font-size="14.00">Count: 0</text>
<text text-anchor="middle" x="255.64" y="-301.22" font-family="Times New Roman,serif" font-size="14.00">Normalized count: NaN</text>
<text text-anchor="middle" x="255.64" y="-286.22" font-family="Times New Roman,serif" font-size="14.00">Samples weight: 0.00</text>
</g>
<!-- BB11&#45;&gt;BB13 -->
<g id="edge16" class="edge">
<title>BB11&#45;&gt;BB13</title>
<path fill="none" stroke="black" d="M300.96,-397.69C295.84,-388.16 290.39,-378.03 285.12,-368.23"/>
<polygon fill="black" stroke="black" points="288.15,-366.48 280.33,-359.33 281.99,-369.8 288.15,-366.48"/>
</g>
<!-- BB12 -->
<g id="node13" class="node">
<title>BB12</title>
<ellipse fill="none" stroke="black" cx="141.64" cy="-180.25" rx="104.8" ry="48.17"/>
<text text-anchor="middle" x="141.64" y="-199.05" font-family="Times New Roman,serif" font-size="14.00">[b2..c3)</text>
<text text-anchor="middle" x="141.64" y="-184.05" font-family="Times New Roman,serif" font-size="14.00">Count: 0</text>
<text text-anchor="middle" x="141.64" y="-169.05" font-family="Times New Roman,serif" font-size="14.00">Normalized count: NaN</text>
<text text-anchor="middle" x="141.64" y="-154.05" font-family="Times New Roman,serif" font-size="14.00">Samples weight: 0.00</text>
</g>
<!-- BB12&#45;&gt;BB13 -->
<g id="edge17" class="edge">
<title>BB12&#45;&gt;BB13</title>
<path fill="none" stroke="black" d="M185.4,-223.93C195.52,-235.05 206.21,-247.15 216.13,-258.72"/>
<polygon fill="black" stroke="black" points="213.71,-261.28 222.86,-266.62 219.04,-256.74 213.71,-261.28"/>
</g>
<!-- BB13&#45;&gt;BB12 -->
<g id="edge18" class="edge">
<title>BB13&#45;&gt;BB12</title>
<path fill="none" stroke="black" d="M211.61,-268.43C201.54,-257.36 190.91,-245.32 181.05,-233.83"/>
<polygon fill="black" stroke="black" points="183.51,-231.32 174.36,-225.97 178.18,-235.85 183.51,-231.32"/>
</g>
<!-- BB14 -->
<g id="node15" class="node">
<title>BB14</title>
<ellipse fill="none" stroke="black" cx="368.64" cy="-180.25" rx="104.8" ry="48.17"/>
<text text-anchor="middle" x="368.64" y="-199.05" font-family="Times New Roman,serif" font-size="14.00">[cb..dd)</text>
<text text-anchor="middle" x="368.64" y="-184.05" font-family="Times New Roman,serif" font-size="14.00">Count: 0</text>
<text text-anchor="middle" x="368.64" y="-169.05" font-family="Times New Roman,serif" font-size="14.00">Normalized count: NaN</text>
<text text-anchor="middle" x="368.64" y="-154.05" font-family="Times New Roman,serif" font-size="14.00">Samples weight: 0.00</text>
</g>
<!-- BB13&#45;&gt;BB14 -->
<g id="edge19" class="edge">
<title>BB13&#45;&gt;BB14</title>
<path fill="none" stroke="black" d="M293.9,-267.35C303.47,-256.32 313.82,-244.39 323.69,-233.03"/>
<polygon fill="black" stroke="black" points="326.51,-235.12 330.42,-225.27 321.23,-230.53 326.51,-235.12"/>
</g>
<!-- BB15 -->
<g id="node16" class="node">
<title>BB15</title>
<ellipse fill="none" stroke="black" cx="514.64" cy="-48.08" rx="104.8" ry="48.17"/>
<text text-anchor="middle" x="514.64" y="-66.88" font-family="Times New Roman,serif" font-size="14.00">[dd..e7)</text>
<text text-anchor="middle" x="514.64" y="-51.88" font-family="Times New Roman,serif" font-size="14.00">Count: 0</text>
<text text-anchor="middle" x="514.64" y="-36.88" font-family="Times New Roman,serif" font-size="14.00">Normalized count: NaN</text>
<text text-anchor="middle" x="514.64" y="-21.88" font-family="Times New Roman,serif" font-size="14.00">Samples weight: 0.00</text>
</g>
<!-- BB14&#45;&gt;BB15 -->
<g id="edge21" class="edge">
<title>BB14&#45;&gt;BB15</title>
<path fill="none" stroke="black" d="M416.04,-136.99C429.95,-124.59 445.28,-110.92 459.63,-98.13"/>
<polygon fill="black" stroke="black" points="462.34,-100.4 467.48,-91.13 457.68,-95.17 462.34,-100.4"/>
</g>
<!-- BB16 -->
<g id="node17" class="node">
<title>BB16</title>
<ellipse fill="none" stroke="black" cx="221.64" cy="-48.08" rx="104.8" ry="48.17"/>
<text text-anchor="middle" x="221.64" y="-66.88" font-family="Times New Roman,serif" font-size="14.00">[e7..ed)</text>
<text text-anchor="middle" x="221.64" y="-51.88" font-family="Times New Roman,serif" font-size="14.00">Count: 0</text>
<text text-anchor="middle" x="221.64" y="-36.88" font-family="Times New Roman,serif" font-size="14.00">Normalized count: NaN</text>
<text text-anchor="middle" x="221.64" y="-21.88" font-family="Times New Roman,serif" font-size="14.00">Samples weight: 0.00</text>
</g>
<!-- BB14&#45;&gt;BB16 -->
<g id="edge20" class="edge">
<title>BB14&#45;&gt;BB16</title>
<path fill="none" stroke="black" d="M321.32,-137.35C307.1,-124.75 291.37,-110.83 276.69,-97.83"/>
<polygon fill="black" stroke="black" points="278.93,-95.14 269.13,-91.13 274.29,-100.38 278.93,-95.14"/>
</g>
<!-- BB18 -->
<g id="node19" class="node">
<title>BB18</title>
<ellipse fill="none" stroke="black" cx="955.64" cy="-708.92" rx="104.8" ry="48.17"/>
<text text-anchor="middle" x="955.64" y="-727.72" font-family="Times New Roman,serif" font-size="14.00">[f9..104)</text>
<text text-anchor="middle" x="955.64" y="-712.72" font-family="Times New Roman,serif" font-size="14.00">Count: 0</text>
<text text-anchor="middle" x="955.64" y="-697.72" font-family="Times New Roman,serif" font-size="14.00">Normalized count: NaN</text>
<text text-anchor="middle" x="955.64" y="-682.72" font-family="Times New Roman,serif" font-size="14.00">Samples weight: 0.00</text>
</g>
<!-- BB15&#45;&gt;BB18 -->
<g id="edge22" class="edge">
<title>BB15&#45;&gt;BB18</title>
<path fill="none" stroke="black" d="M618.43,-55.67C729.29,-65.02 894.74,-86.37 936.64,-132.17 990.72,-191.27 955.64,-231.3 955.64,-311.42 955.64,-445.58 955.64,-445.58 955.64,-445.58 955.64,-516.03 955.64,-597.13 955.64,-650.28"/>
<polygon fill="black" stroke="black" points="952.14,-650.52 955.64,-660.52 959.14,-650.52 952.14,-650.52"/>
</g>
<!-- BB16&#45;&gt;BB17 -->
<g id="edge23" class="edge">
<title>BB16&#45;&gt;BB17</title>
<path fill="none" stroke="black" d="M126.41,-68.11C89.87,-80.29 51.3,-100.11 27.64,-132.17 -19.94,-196.62 8.64,-231.3 8.64,-311.42 8.64,-577.75 8.64,-577.75 8.64,-577.75 8.64,-710.09 433.96,-792.48 640.14,-824.64"/>
<polygon fill="black" stroke="black" points="639.67,-828.11 650.09,-826.18 640.74,-821.19 639.67,-828.11"/>
</g>
<!-- BB17&#45;&gt;BB5 -->
<g id="edge24" class="edge">
<title>BB17&#45;&gt;BB5</title>
<path fill="none" stroke="black" d="M734.24,-793.46C731.34,-784.67 728.27,-775.4 725.28,-766.35"/>
<polygon fill="black" stroke="black" points="728.54,-765.05 722.08,-756.65 721.89,-767.25 728.54,-765.05"/>
</g>
<!-- BB17&#45;&gt;BB18 -->
<g id="edge25" class="edge">
<title>BB17&#45;&gt;BB18</title>
<path fill="none" stroke="black" d="M810.33,-801.73C834.22,-786.64 861.78,-769.22 886.44,-753.64"/>
<polygon fill="black" stroke="black" points="888.44,-756.52 895.03,-748.22 884.7,-750.6 888.44,-756.52"/>
</g>
<!-- BB19 -->
<g id="node20" class="node">
<title>BB19</title>
<ellipse fill="none" stroke="black" cx="1088.64" cy="-576.75" rx="104.8" ry="48.17"/>
<text text-anchor="middle" x="1088.64" y="-595.55" font-family="Times New Roman,serif" font-size="14.00">[104..10f)</text>
<text text-anchor="middle" x="1088.64" y="-580.55" font-family="Times New Roman,serif" font-size="14.00">Count: 0</text>
<text text-anchor="middle" x="1088.64" y="-565.55" font-family="Times New Roman,serif" font-size="14.00">Normalized count: NaN</text>
<text text-anchor="middle" x="1088.64" y="-550.55" font-family="Times New Roman,serif" font-size="14.00">Samples weight: 0.00</text>
</g>
<!-- BB18&#45;&gt;BB19 -->
<g id="edge27" class="edge">
<title>BB18&#45;&gt;BB19</title>
<path fill="none" stroke="black" d="M999.56,-664.93C1011.7,-653.05 1024.99,-640.05 1037.5,-627.8"/>
<polygon fill="black" stroke="black" points="1040.07,-630.18 1044.77,-620.69 1035.17,-625.18 1040.07,-630.18"/>
</g>
<!-- BB29 -->
<g id="node30" class="node">
<title>BB29</title>
<ellipse fill="none" stroke="black" cx="1845.64" cy="-576.75" rx="104.8" ry="48.17"/>
<text text-anchor="middle" x="1845.64" y="-595.55" font-family="Times New Roman,serif" font-size="14.00">[186..195)</text>
<text text-anchor="middle" x="1845.64" y="-580.55" font-family="Times New Roman,serif" font-size="14.00">Count: 0</text>
<text text-anchor="middle" x="1845.64" y="-565.55" font-family="Times New Roman,serif" font-size="14.00">Normalized count: NaN</text>
<text text-anchor="middle" x="1845.64" y="-550.55" font-family="Times New Roman,serif" font-size="14.00">Samples weight: 0.00</text>
</g>
<!-- BB18&#45;&gt;BB29 -->
<g id="edge26" class="edge">
<title>BB18&#45;&gt;BB29</title>
<path fill="none" stroke="black" d="M1051.96,-689.77C1107.04,-679.96 1177.52,-668.34 1240.64,-660.83 1458.36,-634.94 1519.36,-675.65 1732.64,-624.83 1743.01,-622.36 1753.65,-619.05 1764.06,-615.33"/>
<polygon fill="black" stroke="black" points="1765.39,-618.57 1773.54,-611.8 1762.95,-612.01 1765.39,-618.57"/>
</g>
<!-- BB19&#45;&gt;BB20 -->
<g id="edge28" class="edge">
<title>BB19&#45;&gt;BB20</title>
<path fill="none" stroke="black" d="M1088.64,-625C1088.64,-697.65 1088.64,-836.57 1088.64,-914.88"/>
<polygon fill="black" stroke="black" points="1085.14,-915.05 1088.64,-925.05 1092.14,-915.05 1085.14,-915.05"/>
</g>
<!-- BB25 -->
<g id="node26" class="node">
<title>BB25</title>
<ellipse fill="none" stroke="black" cx="1296.64" cy="-841.08" rx="113.69" ry="48.17"/>
<text text-anchor="middle" x="1296.64" y="-859.88" font-family="Times New Roman,serif" font-size="14.00">[150..15a)</text>
<text text-anchor="middle" x="1296.64" y="-844.88" font-family="Times New Roman,serif" font-size="14.00">Count: 1</text>
<text text-anchor="middle" x="1296.64" y="-829.88" font-family="Times New Roman,serif" font-size="14.00">Normalized count: Infinity</text>
<text text-anchor="middle" x="1296.64" y="-814.88" font-family="Times New Roman,serif" font-size="14.00">Samples weight: 0.00</text>
</g>
<!-- BB20&#45;&gt;BB25 -->
<g id="edge29" class="edge">
<title>BB20&#45;&gt;BB25</title>
<path fill="none" stroke="black" d="M1149.64,-934.07C1173.34,-919.24 1200.65,-902.15 1225.26,-886.75"/>
<polygon fill="black" stroke="black" points="1227.22,-889.66 1233.84,-881.39 1223.5,-883.72 1227.22,-889.66"/>
</g>
<!-- BB21 -->
<g id="node22" class="node">
<title>BB21</title>
<ellipse fill="none" stroke="black" cx="1363.64" cy="-708.92" rx="113.69" ry="48.17"/>
<text text-anchor="middle" x="1363.64" y="-727.72" font-family="Times New Roman,serif" font-size="14.00">[120..130)</text>
<text text-anchor="middle" x="1363.64" y="-712.72" font-family="Times New Roman,serif" font-size="14.00">Count: 3</text>
<text text-anchor="middle" x="1363.64" y="-697.72" font-family="Times New Roman,serif" font-size="14.00">Normalized count: Infinity</text>
<text text-anchor="middle" x="1363.64" y="-682.72" font-family="Times New Roman,serif" font-size="14.00">Samples weight: 0.01</text>
</g>
<!-- BB23 -->
<g id="node24" class="node">
<title>BB23</title>
<ellipse fill="none" stroke="black" cx="1363.64" cy="-576.75" rx="113.69" ry="48.17"/>
<text text-anchor="middle" x="1363.64" y="-595.55" font-family="Times New Roman,serif" font-size="14.00">[144..14a)</text>
<text text-anchor="middle" x="1363.64" y="-580.55" font-family="Times New Roman,serif" font-size="14.00">Count: 129</text>
<text text-anchor="middle" x="1363.64" y="-565.55" font-family="Times New Roman,serif" font-size="14.00">Normalized count: Infinity</text>
<text text-anchor="middle" x="1363.64" y="-550.55" font-family="Times New Roman,serif" font-size="14.00">Samples weight: 0.27</text>
</g>
<!-- BB21&#45;&gt;BB23 -->
<g id="edge30" class="edge">
<title>BB21&#45;&gt;BB23</title>
<path fill="none" stroke="black" d="M1363.64,-660.55C1363.64,-652.29 1363.64,-643.6 1363.64,-635.1"/>
<polygon fill="black" stroke="black" points="1367.14,-634.86 1363.64,-624.86 1360.14,-634.86 1367.14,-634.86"/>
</g>
<!-- BB22 -->
<g id="node23" class="node">
<title>BB22</title>
<ellipse fill="none" stroke="black" cx="1363.64" cy="-444.58" rx="113.69" ry="48.17"/>
<text text-anchor="middle" x="1363.64" y="-463.38" font-family="Times New Roman,serif" font-size="14.00">[130..144)</text>
<text text-anchor="middle" x="1363.64" y="-448.38" font-family="Times New Roman,serif" font-size="14.00">Count: 335</text>
<text text-anchor="middle" x="1363.64" y="-433.38" font-family="Times New Roman,serif" font-size="14.00">Normalized count: Infinity</text>
<text text-anchor="middle" x="1363.64" y="-418.38" font-family="Times New Roman,serif" font-size="14.00">Samples weight: 0.69</text>
</g>
<!-- BB22&#45;&gt;BB23 -->
<g id="edge31" class="edge">
<title>BB22&#45;&gt;BB23</title>
<path fill="none" stroke="black" d="M1370.16,-492.69C1370.38,-500.95 1370.44,-509.63 1370.35,-518.14"/>
<polygon fill="black" stroke="black" points="1366.85,-518.33 1370.16,-528.39 1373.85,-518.45 1366.85,-518.33"/>
</g>
<!-- BB23&#45;&gt;BB22 -->
<g id="edge32" class="edge">
<title>BB23&#45;&gt;BB22</title>
<path fill="none" stroke="black" d="M1357.12,-528.39C1356.9,-520.12 1356.84,-511.44 1356.93,-502.93"/>
<polygon fill="black" stroke="black" points="1360.44,-502.75 1357.13,-492.69 1353.44,-502.62 1360.44,-502.75"/>
</g>
<!-- BB24 -->
<g id="node25" class="node">
<title>BB24</title>
<ellipse fill="none" stroke="black" cx="1117.64" cy="-444.58" rx="113.69" ry="48.17"/>
<text text-anchor="middle" x="1117.64" y="-463.38" font-family="Times New Roman,serif" font-size="14.00">[14a..150)</text>
<text text-anchor="middle" x="1117.64" y="-448.38" font-family="Times New Roman,serif" font-size="14.00">Count: 1</text>
<text text-anchor="middle" x="1117.64" y="-433.38" font-family="Times New Roman,serif" font-size="14.00">Normalized count: Infinity</text>
<text text-anchor="middle" x="1117.64" y="-418.38" font-family="Times New Roman,serif" font-size="14.00">Samples weight: 0.00</text>
</g>
<!-- BB23&#45;&gt;BB24 -->
<g id="edge33" class="edge">
<title>BB23&#45;&gt;BB24</title>
<path fill="none" stroke="black" d="M1293.48,-538.62C1263.36,-522.69 1228.03,-503.99 1196.96,-487.55"/>
<polygon fill="black" stroke="black" points="1198.37,-484.34 1187.9,-482.76 1195.1,-490.53 1198.37,-484.34"/>
</g>
<!-- BB24&#45;&gt;BB25 -->
<g id="edge34" class="edge">
<title>BB24&#45;&gt;BB25</title>
<path fill="none" stroke="black" d="M1170.78,-487.32C1183,-499.41 1194.72,-513.48 1202.64,-528.67 1250.23,-619.88 1202.58,-661.42 1240.64,-757 1244.63,-767.02 1249.98,-777.06 1255.78,-786.53"/>
<polygon fill="black" stroke="black" points="1252.89,-788.5 1261.22,-795.04 1258.79,-784.73 1252.89,-788.5"/>
</g>
<!-- BB25&#45;&gt;BB21 -->
<g id="edge35" class="edge">
<title>BB25&#45;&gt;BB21</title>
<path fill="none" stroke="black" d="M1320.45,-793.82C1325.24,-784.52 1330.32,-774.66 1335.24,-765.08"/>
<polygon fill="black" stroke="black" points="1338.44,-766.52 1339.91,-756.03 1332.22,-763.31 1338.44,-766.52"/>
</g>
<!-- BB26 -->
<g id="node27" class="node">
<title>BB26</title>
<ellipse fill="none" stroke="black" cx="1604.64" cy="-708.92" rx="104.8" ry="48.17"/>
<text text-anchor="middle" x="1604.64" y="-727.72" font-family="Times New Roman,serif" font-size="14.00">[15a..16b)</text>
<text text-anchor="middle" x="1604.64" y="-712.72" font-family="Times New Roman,serif" font-size="14.00">Count: 0</text>
<text text-anchor="middle" x="1604.64" y="-697.72" font-family="Times New Roman,serif" font-size="14.00">Normalized count: NaN</text>
<text text-anchor="middle" x="1604.64" y="-682.72" font-family="Times New Roman,serif" font-size="14.00">Samples weight: 0.00</text>
</g>
<!-- BB25&#45;&gt;BB26 -->
<g id="edge36" class="edge">
<title>BB25&#45;&gt;BB26</title>
<path fill="none" stroke="black" d="M1375.96,-806.56C1419.81,-788.03 1474.31,-765 1519.11,-746.06"/>
<polygon fill="black" stroke="black" points="1520.67,-749.21 1528.51,-742.09 1517.94,-742.76 1520.67,-749.21"/>
</g>
<!-- BB28 -->
<g id="node29" class="node">
<title>BB28</title>
<ellipse fill="none" stroke="black" cx="1609.64" cy="-576.75" rx="113.69" ry="48.17"/>
<text text-anchor="middle" x="1609.64" y="-595.55" font-family="Times New Roman,serif" font-size="14.00">[17c..186)</text>
<text text-anchor="middle" x="1609.64" y="-580.55" font-family="Times New Roman,serif" font-size="14.00">Count: 4</text>
<text text-anchor="middle" x="1609.64" y="-565.55" font-family="Times New Roman,serif" font-size="14.00">Normalized count: Infinity</text>
<text text-anchor="middle" x="1609.64" y="-550.55" font-family="Times New Roman,serif" font-size="14.00">Samples weight: 0.01</text>
</g>
<!-- BB26&#45;&gt;BB28 -->
<g id="edge37" class="edge">
<title>BB26&#45;&gt;BB28</title>
<path fill="none" stroke="black" d="M1606.46,-660.55C1606.78,-652.29 1607.11,-643.6 1607.44,-635.1"/>
<polygon fill="black" stroke="black" points="1610.95,-634.98 1607.83,-624.86 1603.95,-634.72 1610.95,-634.98"/>
</g>
<!-- BB27 -->
<g id="node28" class="node">
<title>BB27</title>
<ellipse fill="none" stroke="black" cx="1609.64" cy="-444.58" rx="113.69" ry="48.17"/>
<text text-anchor="middle" x="1609.64" y="-463.38" font-family="Times New Roman,serif" font-size="14.00">[16b..17c)</text>
<text text-anchor="middle" x="1609.64" y="-448.38" font-family="Times New Roman,serif" font-size="14.00">Count: 10</text>
<text text-anchor="middle" x="1609.64" y="-433.38" font-family="Times New Roman,serif" font-size="14.00">Normalized count: Infinity</text>
<text text-anchor="middle" x="1609.64" y="-418.38" font-family="Times New Roman,serif" font-size="14.00">Samples weight: 0.02</text>
</g>
<!-- BB27&#45;&gt;BB28 -->
<g id="edge38" class="edge">
<title>BB27&#45;&gt;BB28</title>
<path fill="none" stroke="black" d="M1616.16,-492.69C1616.38,-500.95 1616.44,-509.63 1616.35,-518.14"/>
<polygon fill="black" stroke="black" points="1612.85,-518.33 1616.16,-528.39 1619.85,-518.45 1612.85,-518.33"/>
</g>
<!-- BB28&#45;&gt;BB27 -->
<g id="edge39" class="edge">
<title>BB28&#45;&gt;BB27</title>
<path fill="none" stroke="black" d="M1603.12,-528.39C1602.9,-520.12 1602.84,-511.44 1602.93,-502.93"/>
<polygon fill="black" stroke="black" points="1606.44,-502.75 1603.13,-492.69 1599.44,-502.62 1606.44,-502.75"/>
</g>
<!-- BB28&#45;&gt;BB29 -->
<g id="edge40" class="edge">
<title>BB28&#45;&gt;BB29</title>
<path fill="none" stroke="black" d="M1723.49,-576.75C1725.82,-576.75 1728.14,-576.75 1730.47,-576.75"/>
<polygon fill="black" stroke="black" points="1730.67,-580.25 1740.67,-576.75 1730.67,-573.25 1730.67,-580.25"/>
</g>
<!-- BB30 -->
<g id="node31" class="node">
<title>BB30</title>
<ellipse fill="none" stroke="black" cx="1845.64" cy="-444.58" rx="104.8" ry="48.17"/>
<text text-anchor="middle" x="1845.64" y="-463.38" font-family="Times New Roman,serif" font-size="14.00">[195..1c4)</text>
<text text-anchor="middle" x="1845.64" y="-448.38" font-family="Times New Roman,serif" font-size="14.00">Count: 0</text>
<text text-anchor="middle" x="1845.64" y="-433.38" font-family="Times New Roman,serif" font-size="14.00">Normalized count: NaN</text>
<text text-anchor="middle" x="1845.64" y="-418.38" font-family="Times New Roman,serif" font-size="14.00">Samples weight: 0.00</text>
</g>
<!-- BB29&#45;&gt;BB30 -->
<g id="edge41" class="edge">
<title>BB29&#45;&gt;BB30</title>
<path fill="none" stroke="black" d="M1845.64,-528.39C1845.64,-520.12 1845.64,-511.44 1845.64,-502.93"/>
<polygon fill="black" stroke="black" points="1849.14,-502.69 1845.64,-492.69 1842.14,-502.69 1849.14,-502.69"/>
</g>
<!-- BB30&#45;&gt;BB30 -->
<g id="edge42" class="edge">
<title>BB30&#45;&gt;BB30</title>
<path fill="none" stroke="black" d="M1936.57,-468.39C1955.06,-465.8 1968.29,-457.86 1968.29,-444.58 1968.29,-433.9 1959.72,-426.67 1946.74,-422.91"/>
<polygon fill="black" stroke="black" points="1947.08,-419.4 1936.57,-420.78 1945.64,-426.25 1947.08,-419.4"/>
</g>
<!-- BB31 -->
<g id="node32" class="node">
<title>BB31</title>
<ellipse fill="none" stroke="black" cx="1845.64" cy="-312.42" rx="104.8" ry="48.17"/>
<text text-anchor="middle" x="1845.64" y="-331.22" font-family="Times New Roman,serif" font-size="14.00">[1c4..1cc)</text>
<text text-anchor="middle" x="1845.64" y="-316.22" font-family="Times New Roman,serif" font-size="14.00">Count: 0</text>
<text text-anchor="middle" x="1845.64" y="-301.22" font-family="Times New Roman,serif" font-size="14.00">Normalized count: NaN</text>
<text text-anchor="middle" x="1845.64" y="-286.22" font-family="Times New Roman,serif" font-size="14.00">Samples weight: 0.00</text>
</g>
<!-- BB30&#45;&gt;BB31 -->
<g id="edge43" class="edge">
<title>BB30&#45;&gt;BB31</title>
<path fill="none" stroke="black" d="M1845.64,-396.22C1845.64,-387.95 1845.64,-379.27 1845.64,-370.77"/>
<polygon fill="black" stroke="black" points="1849.14,-370.52 1845.64,-360.52 1842.14,-370.52 1849.14,-370.52"/>
</g>
<!-- BB32 -->
<g id="node33" class="node">
<title>BB32</title>
<ellipse fill="none" stroke="black" cx="1732.64" cy="-180.25" rx="104.8" ry="48.17"/>
<text text-anchor="middle" x="1732.64" y="-199.05" font-family="Times New Roman,serif" font-size="14.00">[1cc..1d3)</text>
<text text-anchor="middle" x="1732.64" y="-184.05" font-family="Times New Roman,serif" font-size="14.00">Count: 0</text>
<text text-anchor="middle" x="1732.64" y="-169.05" font-family="Times New Roman,serif" font-size="14.00">Normalized count: NaN</text>
<text text-anchor="middle" x="1732.64" y="-154.05" font-family="Times New Roman,serif" font-size="14.00">Samples weight: 0.00</text>
</g>
<!-- BB31&#45;&gt;BB32 -->
<g id="edge45" class="edge">
<title>BB31&#45;&gt;BB32</title>
<path fill="none" stroke="black" d="M1807.38,-267.35C1797.81,-256.32 1787.46,-244.39 1777.59,-233.03"/>
<polygon fill="black" stroke="black" points="1780.06,-230.53 1770.86,-225.27 1774.77,-235.12 1780.06,-230.53"/>
</g>
<!-- BB33 -->
<g id="node34" class="node">
<title>BB33</title>
<ellipse fill="none" stroke="black" cx="1959.64" cy="-180.25" rx="104.8" ry="48.17"/>
<text text-anchor="middle" x="1959.64" y="-199.05" font-family="Times New Roman,serif" font-size="14.00">[1d3..1de)</text>
<text text-anchor="middle" x="1959.64" y="-184.05" font-family="Times New Roman,serif" font-size="14.00">Count: 0</text>
<text text-anchor="middle" x="1959.64" y="-169.05" font-family="Times New Roman,serif" font-size="14.00">Normalized count: NaN</text>
<text text-anchor="middle" x="1959.64" y="-154.05" font-family="Times New Roman,serif" font-size="14.00">Samples weight: 0.00</text>
</g>
<!-- BB31&#45;&gt;BB33 -->
<g id="edge44" class="edge">
<title>BB31&#45;&gt;BB33</title>
<path fill="none" stroke="black" d="M1884.24,-267.35C1893.89,-256.32 1904.34,-244.39 1914.29,-233.03"/>
<polygon fill="black" stroke="black" points="1917.13,-235.1 1921.09,-225.27 1911.86,-230.49 1917.13,-235.1"/>
</g>
<!-- BB32&#45;&gt;BB33 -->
<g id="edge46" class="edge">
<title>BB32&#45;&gt;BB33</title>
<path fill="none" stroke="black" d="M1837.72,-180.25C1840.04,-180.25 1842.36,-180.25 1844.68,-180.25"/>
<polygon fill="black" stroke="black" points="1844.86,-183.75 1854.86,-180.25 1844.86,-176.75 1844.86,-183.75"/>
</g>
</g>
</svg>
