<?xml version="1.0" encoding="UTF-8" standalone="no"?>
<!DOCTYPE svg PUBLIC "-//W3C//DTD SVG 1.1//EN"
 "http://www.w3.org/Graphics/SVG/1.1/DTD/svg11.dtd">
<!-- Generated by graphviz version 2.47.0 (20210316.0004)
 -->
<!-- Title: G Pages: 1 -->
<svg width="2650pt" height="1690pt"
 viewBox="0.00 0.00 2650.37 1690.16" xmlns="http://www.w3.org/2000/svg" xmlns:xlink="http://www.w3.org/1999/xlink">
<g id="graph0" class="graph" transform="scale(1 1) rotate(0) translate(4 1686.16)">
<title>G</title>
<polygon fill="white" stroke="transparent" points="-4,4 -4,-1686.16 2646.37,-1686.16 2646.37,4 -4,4"/>
<!-- BB0 -->
<g id="node1" class="node">
<title>BB0</title>
<ellipse fill="none" stroke="black" cx="600.24" cy="-1634.08" rx="103.48" ry="48.17"/>
<text text-anchor="middle" x="600.24" y="-1652.88" font-family="Times New Roman,serif" font-size="14.00">[0..15)</text>
<text text-anchor="middle" x="600.24" y="-1637.88" font-family="Times New Roman,serif" font-size="14.00">Count: 4</text>
<text text-anchor="middle" x="600.24" y="-1622.88" font-family="Times New Roman,serif" font-size="14.00">Normalized count: 1.00</text>
<text text-anchor="middle" x="600.24" y="-1607.88" font-family="Times New Roman,serif" font-size="14.00">Samples weight: 0.00</text>
</g>
<!-- BB9 -->
<g id="node10" class="node">
<title>BB9</title>
<ellipse fill="none" stroke="black" cx="600.24" cy="-1501.92" rx="103.48" ry="48.17"/>
<text text-anchor="middle" x="600.24" y="-1520.72" font-family="Times New Roman,serif" font-size="14.00">[6d..71)</text>
<text text-anchor="middle" x="600.24" y="-1505.72" font-family="Times New Roman,serif" font-size="14.00">Count: 7</text>
<text text-anchor="middle" x="600.24" y="-1490.72" font-family="Times New Roman,serif" font-size="14.00">Normalized count: 1.75</text>
<text text-anchor="middle" x="600.24" y="-1475.72" font-family="Times New Roman,serif" font-size="14.00">Samples weight: 0.00</text>
</g>
<!-- BB0&#45;&gt;BB9 -->
<g id="edge1" class="edge">
<title>BB0&#45;&gt;BB9</title>
<path fill="none" stroke="black" d="M600.24,-1585.72C600.24,-1577.45 600.24,-1568.77 600.24,-1560.27"/>
<polygon fill="black" stroke="black" points="603.74,-1560.02 600.24,-1550.02 596.74,-1560.02 603.74,-1560.02"/>
</g>
<!-- BB1 -->
<g id="node2" class="node">
<title>BB1</title>
<ellipse fill="none" stroke="black" cx="600.24" cy="-1369.75" rx="103.48" ry="48.17"/>
<text text-anchor="middle" x="600.24" y="-1388.55" font-family="Times New Roman,serif" font-size="14.00">[15..24)</text>
<text text-anchor="middle" x="600.24" y="-1373.55" font-family="Times New Roman,serif" font-size="14.00">Count: 5</text>
<text text-anchor="middle" x="600.24" y="-1358.55" font-family="Times New Roman,serif" font-size="14.00">Normalized count: 1.25</text>
<text text-anchor="middle" x="600.24" y="-1343.55" font-family="Times New Roman,serif" font-size="14.00">Samples weight: 0.00</text>
</g>
<!-- BB5 -->
<g id="node6" class="node">
<title>BB5</title>
<ellipse fill="none" stroke="black" cx="600.24" cy="-1237.58" rx="108.38" ry="48.17"/>
<text text-anchor="middle" x="600.24" y="-1256.38" font-family="Times New Roman,serif" font-size="14.00">[44..49)</text>
<text text-anchor="middle" x="600.24" y="-1241.38" font-family="Times New Roman,serif" font-size="14.00">Count: 47</text>
<text text-anchor="middle" x="600.24" y="-1226.38" font-family="Times New Roman,serif" font-size="14.00">Normalized count: 11.75</text>
<text text-anchor="middle" x="600.24" y="-1211.38" font-family="Times New Roman,serif" font-size="14.00">Samples weight: 0.01</text>
</g>
<!-- BB1&#45;&gt;BB5 -->
<g id="edge2" class="edge">
<title>BB1&#45;&gt;BB5</title>
<path fill="none" stroke="black" d="M600.24,-1321.39C600.24,-1313.12 600.24,-1304.44 600.24,-1295.93"/>
<polygon fill="black" stroke="black" points="603.74,-1295.69 600.24,-1285.69 596.74,-1295.69 603.74,-1295.69"/>
</g>
<!-- BB2 -->
<g id="node3" class="node">
<title>BB2</title>
<ellipse fill="none" stroke="black" cx="600.24" cy="-1105.42" rx="108.38" ry="48.17"/>
<text text-anchor="middle" x="600.24" y="-1124.22" font-family="Times New Roman,serif" font-size="14.00">[24..32)</text>
<text text-anchor="middle" x="600.24" y="-1109.22" font-family="Times New Roman,serif" font-size="14.00">Count: 42</text>
<text text-anchor="middle" x="600.24" y="-1094.22" font-family="Times New Roman,serif" font-size="14.00">Normalized count: 10.50</text>
<text text-anchor="middle" x="600.24" y="-1079.22" font-family="Times New Roman,serif" font-size="14.00">Samples weight: 0.01</text>
</g>
<!-- BB3 -->
<g id="node4" class="node">
<title>BB3</title>
<ellipse fill="none" stroke="black" cx="551.24" cy="-973.25" rx="103.48" ry="48.17"/>
<text text-anchor="middle" x="551.24" y="-992.05" font-family="Times New Roman,serif" font-size="14.00">[32..3e)</text>
<text text-anchor="middle" x="551.24" y="-977.05" font-family="Times New Roman,serif" font-size="14.00">Count: 17</text>
<text text-anchor="middle" x="551.24" y="-962.05" font-family="Times New Roman,serif" font-size="14.00">Normalized count: 4.25</text>
<text text-anchor="middle" x="551.24" y="-947.05" font-family="Times New Roman,serif" font-size="14.00">Samples weight: 0.00</text>
</g>
<!-- BB2&#45;&gt;BB3 -->
<g id="edge4" class="edge">
<title>BB2&#45;&gt;BB3</title>
<path fill="none" stroke="black" d="M582.69,-1057.79C579.34,-1048.91 575.81,-1039.53 572.37,-1030.39"/>
<polygon fill="black" stroke="black" points="575.63,-1029.11 568.83,-1020.99 569.08,-1031.58 575.63,-1029.11"/>
</g>
<!-- BB4 -->
<g id="node5" class="node">
<title>BB4</title>
<ellipse fill="none" stroke="black" cx="780.24" cy="-973.25" rx="108.38" ry="48.17"/>
<text text-anchor="middle" x="780.24" y="-992.05" font-family="Times New Roman,serif" font-size="14.00">[3e..44)</text>
<text text-anchor="middle" x="780.24" y="-977.05" font-family="Times New Roman,serif" font-size="14.00">Count: 42</text>
<text text-anchor="middle" x="780.24" y="-962.05" font-family="Times New Roman,serif" font-size="14.00">Normalized count: 10.50</text>
<text text-anchor="middle" x="780.24" y="-947.05" font-family="Times New Roman,serif" font-size="14.00">Samples weight: 0.01</text>
</g>
<!-- BB2&#45;&gt;BB4 -->
<g id="edge3" class="edge">
<title>BB2&#45;&gt;BB4</title>
<path fill="none" stroke="black" d="M656.2,-1063.94C675.17,-1050.23 696.49,-1034.81 716.05,-1020.67"/>
<polygon fill="black" stroke="black" points="718.25,-1023.39 724.31,-1014.7 714.15,-1017.72 718.25,-1023.39"/>
</g>
<!-- BB3&#45;&gt;BB4 -->
<g id="edge5" class="edge">
<title>BB3&#45;&gt;BB4</title>
<path fill="none" stroke="black" d="M654.56,-973.25C656.88,-973.25 659.21,-973.25 661.54,-973.25"/>
<polygon fill="black" stroke="black" points="661.74,-976.75 671.74,-973.25 661.74,-969.75 661.74,-976.75"/>
</g>
<!-- BB4&#45;&gt;BB5 -->
<g id="edge6" class="edge">
<title>BB4&#45;&gt;BB5</title>
<path fill="none" stroke="black" d="M771.92,-1021.44C763.3,-1059.96 746.81,-1114.24 717.24,-1153.5 705.75,-1168.75 690.65,-1182.31 675.14,-1193.84"/>
<polygon fill="black" stroke="black" points="673.09,-1191 667,-1199.67 677.17,-1196.69 673.09,-1191"/>
</g>
<!-- BB5&#45;&gt;BB2 -->
<g id="edge7" class="edge">
<title>BB5&#45;&gt;BB2</title>
<path fill="none" stroke="black" d="M600.24,-1189.22C600.24,-1180.95 600.24,-1172.27 600.24,-1163.77"/>
<polygon fill="black" stroke="black" points="603.74,-1163.52 600.24,-1153.52 596.74,-1163.52 603.74,-1163.52"/>
</g>
<!-- BB6 -->
<g id="node7" class="node">
<title>BB6</title>
<ellipse fill="none" stroke="black" cx="327.24" cy="-1105.42" rx="103.48" ry="48.17"/>
<text text-anchor="middle" x="327.24" y="-1124.22" font-family="Times New Roman,serif" font-size="14.00">[49..55)</text>
<text text-anchor="middle" x="327.24" y="-1109.22" font-family="Times New Roman,serif" font-size="14.00">Count: 5</text>
<text text-anchor="middle" x="327.24" y="-1094.22" font-family="Times New Roman,serif" font-size="14.00">Normalized count: 1.25</text>
<text text-anchor="middle" x="327.24" y="-1079.22" font-family="Times New Roman,serif" font-size="14.00">Samples weight: 0.00</text>
</g>
<!-- BB5&#45;&gt;BB6 -->
<g id="edge8" class="edge">
<title>BB5&#45;&gt;BB6</title>
<path fill="none" stroke="black" d="M527.44,-1201.87C490.6,-1184.31 445.78,-1162.94 407.89,-1144.87"/>
<polygon fill="black" stroke="black" points="408.95,-1141.5 398.42,-1140.35 405.94,-1147.82 408.95,-1141.5"/>
</g>
<!-- BB7 -->
<g id="node8" class="node">
<title>BB7</title>
<ellipse fill="none" stroke="black" cx="327.24" cy="-973.25" rx="103.48" ry="48.17"/>
<text text-anchor="middle" x="327.24" y="-992.05" font-family="Times New Roman,serif" font-size="14.00">[55..57)</text>
<text text-anchor="middle" x="327.24" y="-977.05" font-family="Times New Roman,serif" font-size="14.00">Count: 2</text>
<text text-anchor="middle" x="327.24" y="-962.05" font-family="Times New Roman,serif" font-size="14.00">Normalized count: 0.50</text>
<text text-anchor="middle" x="327.24" y="-947.05" font-family="Times New Roman,serif" font-size="14.00">Samples weight: 0.00</text>
</g>
<!-- BB6&#45;&gt;BB7 -->
<g id="edge10" class="edge">
<title>BB6&#45;&gt;BB7</title>
<path fill="none" stroke="black" d="M327.24,-1057.05C327.24,-1048.79 327.24,-1040.1 327.24,-1031.6"/>
<polygon fill="black" stroke="black" points="330.74,-1031.36 327.24,-1021.36 323.74,-1031.36 330.74,-1031.36"/>
</g>
<!-- BB8 -->
<g id="node9" class="node">
<title>BB8</title>
<ellipse fill="none" stroke="black" cx="103.24" cy="-973.25" rx="103.48" ry="48.17"/>
<text text-anchor="middle" x="103.24" y="-992.05" font-family="Times New Roman,serif" font-size="14.00">[57..6d)</text>
<text text-anchor="middle" x="103.24" y="-977.05" font-family="Times New Roman,serif" font-size="14.00">Count: 3</text>
<text text-anchor="middle" x="103.24" y="-962.05" font-family="Times New Roman,serif" font-size="14.00">Normalized count: 0.75</text>
<text text-anchor="middle" x="103.24" y="-947.05" font-family="Times New Roman,serif" font-size="14.00">Samples weight: 0.00</text>
</g>
<!-- BB6&#45;&gt;BB8 -->
<g id="edge9" class="edge">
<title>BB6&#45;&gt;BB8</title>
<path fill="none" stroke="black" d="M263.65,-1067.46C236.22,-1051.52 203.99,-1032.8 175.65,-1016.33"/>
<polygon fill="black" stroke="black" points="177.39,-1013.29 166.99,-1011.29 173.87,-1019.34 177.39,-1013.29"/>
</g>
<!-- BB8&#45;&gt;BB9 -->
<g id="edge11" class="edge">
<title>BB8&#45;&gt;BB9</title>
<path fill="none" stroke="black" d="M127.77,-1020.11C148.77,-1057.6 180.97,-1111.13 215.24,-1153.5 321.43,-1284.82 359.47,-1308.55 488.24,-1417.83 503.25,-1430.57 520.03,-1443.6 535.93,-1455.45"/>
<polygon fill="black" stroke="black" points="534.03,-1458.4 544.15,-1461.53 538.2,-1452.77 534.03,-1458.4"/>
</g>
<!-- BB9&#45;&gt;BB1 -->
<g id="edge12" class="edge">
<title>BB9&#45;&gt;BB1</title>
<path fill="none" stroke="black" d="M600.24,-1453.55C600.24,-1445.29 600.24,-1436.6 600.24,-1428.1"/>
<polygon fill="black" stroke="black" points="603.74,-1427.86 600.24,-1417.86 596.74,-1427.86 603.74,-1427.86"/>
</g>
<!-- BB10 -->
<g id="node11" class="node">
<title>BB10</title>
<ellipse fill="none" stroke="black" cx="870.24" cy="-1369.75" rx="103.48" ry="48.17"/>
<text text-anchor="middle" x="870.24" y="-1388.55" font-family="Times New Roman,serif" font-size="14.00">[71..79)</text>
<text text-anchor="middle" x="870.24" y="-1373.55" font-family="Times New Roman,serif" font-size="14.00">Count: 2</text>
<text text-anchor="middle" x="870.24" y="-1358.55" font-family="Times New Roman,serif" font-size="14.00">Normalized count: 0.50</text>
<text text-anchor="middle" x="870.24" y="-1343.55" font-family="Times New Roman,serif" font-size="14.00">Samples weight: 0.00</text>
</g>
<!-- BB9&#45;&gt;BB10 -->
<g id="edge13" class="edge">
<title>BB9&#45;&gt;BB10</title>
<path fill="none" stroke="black" d="M671.18,-1466.72C707.62,-1449.15 752.17,-1427.67 789.87,-1409.49"/>
<polygon fill="black" stroke="black" points="791.82,-1412.44 799.3,-1404.95 788.78,-1406.14 791.82,-1412.44"/>
</g>
<!-- BB40 -->
<g id="node41" class="node">
<title>BB40</title>
<ellipse fill="none" stroke="black" cx="981.24" cy="-1237.58" rx="103.48" ry="48.17"/>
<text text-anchor="middle" x="981.24" y="-1256.38" font-family="Times New Roman,serif" font-size="14.00">[1d7..1df)</text>
<text text-anchor="middle" x="981.24" y="-1241.38" font-family="Times New Roman,serif" font-size="14.00">Count: 5</text>
<text text-anchor="middle" x="981.24" y="-1226.38" font-family="Times New Roman,serif" font-size="14.00">Normalized count: 1.25</text>
<text text-anchor="middle" x="981.24" y="-1211.38" font-family="Times New Roman,serif" font-size="14.00">Samples weight: 0.00</text>
</g>
<!-- BB10&#45;&gt;BB40 -->
<g id="edge14" class="edge">
<title>BB10&#45;&gt;BB40</title>
<path fill="none" stroke="black" d="M907.82,-1324.68C917.22,-1313.65 927.39,-1301.73 937.08,-1290.36"/>
<polygon fill="black" stroke="black" points="939.87,-1292.49 943.7,-1282.61 934.54,-1287.94 939.87,-1292.49"/>
</g>
<!-- BB11 -->
<g id="node12" class="node">
<title>BB11</title>
<ellipse fill="none" stroke="black" cx="2077.24" cy="-1105.42" rx="103.48" ry="48.17"/>
<text text-anchor="middle" x="2077.24" y="-1124.22" font-family="Times New Roman,serif" font-size="14.00">[79..7d)</text>
<text text-anchor="middle" x="2077.24" y="-1109.22" font-family="Times New Roman,serif" font-size="14.00">Count: 3</text>
<text text-anchor="middle" x="2077.24" y="-1094.22" font-family="Times New Roman,serif" font-size="14.00">Normalized count: 0.75</text>
<text text-anchor="middle" x="2077.24" y="-1079.22" font-family="Times New Roman,serif" font-size="14.00">Samples weight: 0.00</text>
</g>
<!-- BB12 -->
<g id="node13" class="node">
<title>BB12</title>
<ellipse fill="none" stroke="black" cx="2303.24" cy="-973.25" rx="103.48" ry="48.17"/>
<text text-anchor="middle" x="2303.24" y="-992.05" font-family="Times New Roman,serif" font-size="14.00">[7d..81)</text>
<text text-anchor="middle" x="2303.24" y="-977.05" font-family="Times New Roman,serif" font-size="14.00">Count: 1</text>
<text text-anchor="middle" x="2303.24" y="-962.05" font-family="Times New Roman,serif" font-size="14.00">Normalized count: 0.25</text>
<text text-anchor="middle" x="2303.24" y="-947.05" font-family="Times New Roman,serif" font-size="14.00">Samples weight: 0.00</text>
</g>
<!-- BB11&#45;&gt;BB12 -->
<g id="edge16" class="edge">
<title>BB11&#45;&gt;BB12</title>
<path fill="none" stroke="black" d="M2141.4,-1067.46C2169.19,-1051.46 2201.86,-1032.64 2230.55,-1016.12"/>
<polygon fill="black" stroke="black" points="2232.39,-1019.09 2239.31,-1011.07 2228.9,-1013.03 2232.39,-1019.09"/>
</g>
<!-- BB19 -->
<g id="node20" class="node">
<title>BB19</title>
<ellipse fill="none" stroke="black" cx="2077.24" cy="-973.25" rx="103.48" ry="48.17"/>
<text text-anchor="middle" x="2077.24" y="-992.05" font-family="Times New Roman,serif" font-size="14.00">[bc..cb)</text>
<text text-anchor="middle" x="2077.24" y="-977.05" font-family="Times New Roman,serif" font-size="14.00">Count: 3</text>
<text text-anchor="middle" x="2077.24" y="-962.05" font-family="Times New Roman,serif" font-size="14.00">Normalized count: 0.75</text>
<text text-anchor="middle" x="2077.24" y="-947.05" font-family="Times New Roman,serif" font-size="14.00">Samples weight: 0.00</text>
</g>
<!-- BB11&#45;&gt;BB19 -->
<g id="edge15" class="edge">
<title>BB11&#45;&gt;BB19</title>
<path fill="none" stroke="black" d="M2077.24,-1057.05C2077.24,-1048.79 2077.24,-1040.1 2077.24,-1031.6"/>
<polygon fill="black" stroke="black" points="2080.74,-1031.36 2077.24,-1021.36 2073.74,-1031.36 2080.74,-1031.36"/>
</g>
<!-- BB18 -->
<g id="node19" class="node">
<title>BB18</title>
<ellipse fill="none" stroke="black" cx="2304.24" cy="-841.08" rx="103.48" ry="48.17"/>
<text text-anchor="middle" x="2304.24" y="-859.88" font-family="Times New Roman,serif" font-size="14.00">[b7..bc)</text>
<text text-anchor="middle" x="2304.24" y="-844.88" font-family="Times New Roman,serif" font-size="14.00">Count: 36</text>
<text text-anchor="middle" x="2304.24" y="-829.88" font-family="Times New Roman,serif" font-size="14.00">Normalized count: 9.00</text>
<text text-anchor="middle" x="2304.24" y="-814.88" font-family="Times New Roman,serif" font-size="14.00">Samples weight: 0.01</text>
</g>
<!-- BB12&#45;&gt;BB18 -->
<g id="edge17" class="edge">
<title>BB12&#45;&gt;BB18</title>
<path fill="none" stroke="black" d="M2303.6,-924.89C2303.66,-916.62 2303.73,-907.94 2303.8,-899.43"/>
<polygon fill="black" stroke="black" points="2307.3,-899.22 2303.88,-889.19 2300.3,-899.16 2307.3,-899.22"/>
</g>
<!-- BB13 -->
<g id="node14" class="node">
<title>BB13</title>
<ellipse fill="none" stroke="black" cx="2314.24" cy="-708.92" rx="103.48" ry="48.17"/>
<text text-anchor="middle" x="2314.24" y="-727.72" font-family="Times New Roman,serif" font-size="14.00">[81..8b)</text>
<text text-anchor="middle" x="2314.24" y="-712.72" font-family="Times New Roman,serif" font-size="14.00">Count: 35</text>
<text text-anchor="middle" x="2314.24" y="-697.72" font-family="Times New Roman,serif" font-size="14.00">Normalized count: 8.75</text>
<text text-anchor="middle" x="2314.24" y="-682.72" font-family="Times New Roman,serif" font-size="14.00">Samples weight: 0.01</text>
</g>
<!-- BB14 -->
<g id="node15" class="node">
<title>BB14</title>
<ellipse fill="none" stroke="black" cx="2314.24" cy="-576.75" rx="103.48" ry="48.17"/>
<text text-anchor="middle" x="2314.24" y="-595.55" font-family="Times New Roman,serif" font-size="14.00">[8b..90)</text>
<text text-anchor="middle" x="2314.24" y="-580.55" font-family="Times New Roman,serif" font-size="14.00">Count: 3</text>
<text text-anchor="middle" x="2314.24" y="-565.55" font-family="Times New Roman,serif" font-size="14.00">Normalized count: 0.75</text>
<text text-anchor="middle" x="2314.24" y="-550.55" font-family="Times New Roman,serif" font-size="14.00">Samples weight: 0.00</text>
</g>
<!-- BB13&#45;&gt;BB14 -->
<g id="edge19" class="edge">
<title>BB13&#45;&gt;BB14</title>
<path fill="none" stroke="black" d="M2314.24,-660.55C2314.24,-652.29 2314.24,-643.6 2314.24,-635.1"/>
<polygon fill="black" stroke="black" points="2317.74,-634.86 2314.24,-624.86 2310.74,-634.86 2317.74,-634.86"/>
</g>
<!-- BB17 -->
<g id="node18" class="node">
<title>BB17</title>
<ellipse fill="none" stroke="black" cx="2538.24" cy="-576.75" rx="103.48" ry="48.17"/>
<text text-anchor="middle" x="2538.24" y="-595.55" font-family="Times New Roman,serif" font-size="14.00">[ac..b7)</text>
<text text-anchor="middle" x="2538.24" y="-580.55" font-family="Times New Roman,serif" font-size="14.00">Count: 35</text>
<text text-anchor="middle" x="2538.24" y="-565.55" font-family="Times New Roman,serif" font-size="14.00">Normalized count: 8.75</text>
<text text-anchor="middle" x="2538.24" y="-550.55" font-family="Times New Roman,serif" font-size="14.00">Samples weight: 0.01</text>
</g>
<!-- BB13&#45;&gt;BB17 -->
<g id="edge18" class="edge">
<title>BB13&#45;&gt;BB17</title>
<path fill="none" stroke="black" d="M2377.83,-670.96C2405.26,-655.02 2437.48,-636.3 2465.83,-619.83"/>
<polygon fill="black" stroke="black" points="2467.6,-622.84 2474.49,-614.79 2464.08,-616.79 2467.6,-622.84"/>
</g>
<!-- BB16 -->
<g id="node17" class="node">
<title>BB16</title>
<ellipse fill="none" stroke="black" cx="2529.24" cy="-444.58" rx="113.27" ry="48.17"/>
<text text-anchor="middle" x="2529.24" y="-463.38" font-family="Times New Roman,serif" font-size="14.00">[a7..ac)</text>
<text text-anchor="middle" x="2529.24" y="-448.38" font-family="Times New Roman,serif" font-size="14.00">Count: 1129</text>
<text text-anchor="middle" x="2529.24" y="-433.38" font-family="Times New Roman,serif" font-size="14.00">Normalized count: 282.25</text>
<text text-anchor="middle" x="2529.24" y="-418.38" font-family="Times New Roman,serif" font-size="14.00">Samples weight: 0.21</text>
</g>
<!-- BB14&#45;&gt;BB16 -->
<g id="edge20" class="edge">
<title>BB14&#45;&gt;BB16</title>
<path fill="none" stroke="black" d="M2376.42,-538.1C2401.49,-522.92 2430.59,-505.31 2456.62,-489.55"/>
<polygon fill="black" stroke="black" points="2458.58,-492.45 2465.32,-484.28 2454.96,-486.46 2458.58,-492.45"/>
</g>
<!-- BB15 -->
<g id="node16" class="node">
<title>BB15</title>
<ellipse fill="none" stroke="black" cx="2529.24" cy="-312.42" rx="113.27" ry="48.17"/>
<text text-anchor="middle" x="2529.24" y="-331.22" font-family="Times New Roman,serif" font-size="14.00">[90..a7)</text>
<text text-anchor="middle" x="2529.24" y="-316.22" font-family="Times New Roman,serif" font-size="14.00">Count: 1126</text>
<text text-anchor="middle" x="2529.24" y="-301.22" font-family="Times New Roman,serif" font-size="14.00">Normalized count: 281.50</text>
<text text-anchor="middle" x="2529.24" y="-286.22" font-family="Times New Roman,serif" font-size="14.00">Samples weight: 0.20</text>
</g>
<!-- BB15&#45;&gt;BB16 -->
<g id="edge21" class="edge">
<title>BB15&#45;&gt;BB16</title>
<path fill="none" stroke="black" d="M2535.75,-360.52C2535.97,-368.78 2536.04,-377.46 2535.95,-385.97"/>
<polygon fill="black" stroke="black" points="2532.44,-386.16 2535.76,-396.22 2539.44,-386.29 2532.44,-386.16"/>
</g>
<!-- BB16&#45;&gt;BB15 -->
<g id="edge22" class="edge">
<title>BB16&#45;&gt;BB15</title>
<path fill="none" stroke="black" d="M2522.72,-396.22C2522.5,-387.95 2522.44,-379.27 2522.53,-370.77"/>
<polygon fill="black" stroke="black" points="2526.03,-370.59 2522.72,-360.52 2519.04,-370.46 2526.03,-370.59"/>
</g>
<!-- BB16&#45;&gt;BB17 -->
<g id="edge23" class="edge">
<title>BB16&#45;&gt;BB17</title>
<path fill="none" stroke="black" d="M2532.49,-492.69C2533.07,-500.95 2533.67,-509.63 2534.25,-518.14"/>
<polygon fill="black" stroke="black" points="2530.78,-518.65 2534.96,-528.39 2537.76,-518.17 2530.78,-518.65"/>
</g>
<!-- BB17&#45;&gt;BB18 -->
<g id="edge24" class="edge">
<title>BB17&#45;&gt;BB18</title>
<path fill="none" stroke="black" d="M2516.15,-624.09C2496.28,-662.6 2464.38,-717.32 2426.24,-757 2411.81,-772 2394.27,-785.85 2377.02,-797.76"/>
<polygon fill="black" stroke="black" points="2374.93,-794.95 2368.6,-803.45 2378.85,-800.75 2374.93,-794.95"/>
</g>
<!-- BB18&#45;&gt;BB13 -->
<g id="edge25" class="edge">
<title>BB18&#45;&gt;BB13</title>
<path fill="none" stroke="black" d="M2307.88,-792.72C2308.51,-784.45 2309.18,-775.77 2309.83,-767.27"/>
<polygon fill="black" stroke="black" points="2313.34,-767.26 2310.62,-757.02 2306.36,-766.73 2313.34,-767.26"/>
</g>
<!-- BB18&#45;&gt;BB19 -->
<g id="edge26" class="edge">
<title>BB18&#45;&gt;BB19</title>
<path fill="none" stroke="black" d="M2239.86,-879C2211.91,-895.02 2179.04,-913.87 2150.19,-930.42"/>
<polygon fill="black" stroke="black" points="2148.31,-927.46 2141.38,-935.47 2151.79,-933.53 2148.31,-927.46"/>
</g>
<!-- BB27 -->
<g id="node28" class="node">
<title>BB27</title>
<ellipse fill="none" stroke="black" cx="2056.24" cy="-841.08" rx="108.38" ry="48.17"/>
<text text-anchor="middle" x="2056.24" y="-859.88" font-family="Times New Roman,serif" font-size="14.00">[11b..11f)</text>
<text text-anchor="middle" x="2056.24" y="-844.88" font-family="Times New Roman,serif" font-size="14.00">Count: 68</text>
<text text-anchor="middle" x="2056.24" y="-829.88" font-family="Times New Roman,serif" font-size="14.00">Normalized count: 17.00</text>
<text text-anchor="middle" x="2056.24" y="-814.88" font-family="Times New Roman,serif" font-size="14.00">Samples weight: 0.01</text>
</g>
<!-- BB19&#45;&gt;BB27 -->
<g id="edge27" class="edge">
<title>BB19&#45;&gt;BB27</title>
<path fill="none" stroke="black" d="M2069.66,-925.26C2068.31,-916.88 2066.88,-908.07 2065.49,-899.45"/>
<polygon fill="black" stroke="black" points="2068.93,-898.76 2063.88,-889.44 2062.02,-899.87 2068.93,-898.76"/>
</g>
<!-- BB20 -->
<g id="node21" class="node">
<title>BB20</title>
<ellipse fill="none" stroke="black" cx="2047.24" cy="-708.92" rx="108.38" ry="48.17"/>
<text text-anchor="middle" x="2047.24" y="-727.72" font-family="Times New Roman,serif" font-size="14.00">[cb..d6)</text>
<text text-anchor="middle" x="2047.24" y="-712.72" font-family="Times New Roman,serif" font-size="14.00">Count: 65</text>
<text text-anchor="middle" x="2047.24" y="-697.72" font-family="Times New Roman,serif" font-size="14.00">Normalized count: 16.25</text>
<text text-anchor="middle" x="2047.24" y="-682.72" font-family="Times New Roman,serif" font-size="14.00">Samples weight: 0.01</text>
</g>
<!-- BB21 -->
<g id="node22" class="node">
<title>BB21</title>
<ellipse fill="none" stroke="black" cx="1818.24" cy="-576.75" rx="103.48" ry="48.17"/>
<text text-anchor="middle" x="1818.24" y="-595.55" font-family="Times New Roman,serif" font-size="14.00">[d6..db)</text>
<text text-anchor="middle" x="1818.24" y="-580.55" font-family="Times New Roman,serif" font-size="14.00">Count: 1</text>
<text text-anchor="middle" x="1818.24" y="-565.55" font-family="Times New Roman,serif" font-size="14.00">Normalized count: 0.25</text>
<text text-anchor="middle" x="1818.24" y="-550.55" font-family="Times New Roman,serif" font-size="14.00">Samples weight: 0.00</text>
</g>
<!-- BB20&#45;&gt;BB21 -->
<g id="edge29" class="edge">
<title>BB20&#45;&gt;BB21</title>
<path fill="none" stroke="black" d="M1981.62,-670.62C1953.47,-654.62 1920.47,-635.86 1891.53,-619.41"/>
<polygon fill="black" stroke="black" points="1893.11,-616.28 1882.68,-614.38 1889.65,-622.37 1893.11,-616.28"/>
</g>
<!-- BB24 -->
<g id="node25" class="node">
<title>BB24</title>
<ellipse fill="none" stroke="black" cx="2047.24" cy="-576.75" rx="108.38" ry="48.17"/>
<text text-anchor="middle" x="2047.24" y="-595.55" font-family="Times New Roman,serif" font-size="14.00">[f8..112)</text>
<text text-anchor="middle" x="2047.24" y="-580.55" font-family="Times New Roman,serif" font-size="14.00">Count: 65</text>
<text text-anchor="middle" x="2047.24" y="-565.55" font-family="Times New Roman,serif" font-size="14.00">Normalized count: 16.25</text>
<text text-anchor="middle" x="2047.24" y="-550.55" font-family="Times New Roman,serif" font-size="14.00">Samples weight: 0.01</text>
</g>
<!-- BB20&#45;&gt;BB24 -->
<g id="edge28" class="edge">
<title>BB20&#45;&gt;BB24</title>
<path fill="none" stroke="black" d="M2047.24,-660.55C2047.24,-652.29 2047.24,-643.6 2047.24,-635.1"/>
<polygon fill="black" stroke="black" points="2050.74,-634.86 2047.24,-624.86 2043.74,-634.86 2050.74,-634.86"/>
</g>
<!-- BB23 -->
<g id="node24" class="node">
<title>BB23</title>
<ellipse fill="none" stroke="black" cx="1818.24" cy="-444.58" rx="113.27" ry="48.17"/>
<text text-anchor="middle" x="1818.24" y="-463.38" font-family="Times New Roman,serif" font-size="14.00">[f2..f8)</text>
<text text-anchor="middle" x="1818.24" y="-448.38" font-family="Times New Roman,serif" font-size="14.00">Count: 1167</text>
<text text-anchor="middle" x="1818.24" y="-433.38" font-family="Times New Roman,serif" font-size="14.00">Normalized count: 291.75</text>
<text text-anchor="middle" x="1818.24" y="-418.38" font-family="Times New Roman,serif" font-size="14.00">Samples weight: 0.21</text>
</g>
<!-- BB21&#45;&gt;BB23 -->
<g id="edge30" class="edge">
<title>BB21&#45;&gt;BB23</title>
<path fill="none" stroke="black" d="M1818.24,-528.39C1818.24,-520.12 1818.24,-511.44 1818.24,-502.93"/>
<polygon fill="black" stroke="black" points="1821.74,-502.69 1818.24,-492.69 1814.74,-502.69 1821.74,-502.69"/>
</g>
<!-- BB22 -->
<g id="node23" class="node">
<title>BB22</title>
<ellipse fill="none" stroke="black" cx="1818.24" cy="-312.42" rx="113.27" ry="48.17"/>
<text text-anchor="middle" x="1818.24" y="-331.22" font-family="Times New Roman,serif" font-size="14.00">[db..f2)</text>
<text text-anchor="middle" x="1818.24" y="-316.22" font-family="Times New Roman,serif" font-size="14.00">Count: 1166</text>
<text text-anchor="middle" x="1818.24" y="-301.22" font-family="Times New Roman,serif" font-size="14.00">Normalized count: 291.50</text>
<text text-anchor="middle" x="1818.24" y="-286.22" font-family="Times New Roman,serif" font-size="14.00">Samples weight: 0.21</text>
</g>
<!-- BB22&#45;&gt;BB23 -->
<g id="edge31" class="edge">
<title>BB22&#45;&gt;BB23</title>
<path fill="none" stroke="black" d="M1824.75,-360.52C1824.97,-368.78 1825.04,-377.46 1824.95,-385.97"/>
<polygon fill="black" stroke="black" points="1821.44,-386.16 1824.76,-396.22 1828.44,-386.29 1821.44,-386.16"/>
</g>
<!-- BB23&#45;&gt;BB22 -->
<g id="edge32" class="edge">
<title>BB23&#45;&gt;BB22</title>
<path fill="none" stroke="black" d="M1811.72,-396.22C1811.5,-387.95 1811.44,-379.27 1811.53,-370.77"/>
<polygon fill="black" stroke="black" points="1815.03,-370.59 1811.72,-360.52 1808.04,-370.46 1815.03,-370.59"/>
</g>
<!-- BB23&#45;&gt;BB24 -->
<g id="edge33" class="edge">
<title>BB23&#45;&gt;BB24</title>
<path fill="none" stroke="black" d="M1885.06,-483.57C1912.5,-499.17 1944.39,-517.29 1972.6,-533.32"/>
<polygon fill="black" stroke="black" points="1971.19,-536.55 1981.62,-538.45 1974.65,-530.46 1971.19,-536.55"/>
</g>
<!-- BB25 -->
<g id="node26" class="node">
<title>BB25</title>
<ellipse fill="none" stroke="black" cx="2052.24" cy="-444.58" rx="103.48" ry="48.17"/>
<text text-anchor="middle" x="2052.24" y="-463.38" font-family="Times New Roman,serif" font-size="14.00">[112..117)</text>
<text text-anchor="middle" x="2052.24" y="-448.38" font-family="Times New Roman,serif" font-size="14.00">Count: 5</text>
<text text-anchor="middle" x="2052.24" y="-433.38" font-family="Times New Roman,serif" font-size="14.00">Normalized count: 1.25</text>
<text text-anchor="middle" x="2052.24" y="-418.38" font-family="Times New Roman,serif" font-size="14.00">Samples weight: 0.00</text>
</g>
<!-- BB24&#45;&gt;BB25 -->
<g id="edge35" class="edge">
<title>BB24&#45;&gt;BB25</title>
<path fill="none" stroke="black" d="M2049.06,-528.39C2049.37,-520.12 2049.71,-511.44 2050.03,-502.93"/>
<polygon fill="black" stroke="black" points="2053.54,-502.82 2050.43,-492.69 2046.55,-502.55 2053.54,-502.82"/>
</g>
<!-- BB26 -->
<g id="node27" class="node">
<title>BB26</title>
<ellipse fill="none" stroke="black" cx="2281.24" cy="-444.58" rx="108.38" ry="48.17"/>
<text text-anchor="middle" x="2281.24" y="-463.38" font-family="Times New Roman,serif" font-size="14.00">[117..11b)</text>
<text text-anchor="middle" x="2281.24" y="-448.38" font-family="Times New Roman,serif" font-size="14.00">Count: 65</text>
<text text-anchor="middle" x="2281.24" y="-433.38" font-family="Times New Roman,serif" font-size="14.00">Normalized count: 16.25</text>
<text text-anchor="middle" x="2281.24" y="-418.38" font-family="Times New Roman,serif" font-size="14.00">Samples weight: 0.01</text>
</g>
<!-- BB24&#45;&gt;BB26 -->
<g id="edge34" class="edge">
<title>BB24&#45;&gt;BB26</title>
<path fill="none" stroke="black" d="M2113.67,-538.8C2142.32,-522.86 2175.98,-504.13 2205.59,-487.66"/>
<polygon fill="black" stroke="black" points="2207.6,-490.55 2214.64,-482.63 2204.2,-484.43 2207.6,-490.55"/>
</g>
<!-- BB25&#45;&gt;BB26 -->
<g id="edge36" class="edge">
<title>BB25&#45;&gt;BB26</title>
<path fill="none" stroke="black" d="M2155.56,-444.58C2157.88,-444.58 2160.21,-444.58 2162.54,-444.58"/>
<polygon fill="black" stroke="black" points="2162.74,-448.08 2172.74,-444.58 2162.74,-441.08 2162.74,-448.08"/>
</g>
<!-- BB26&#45;&gt;BB27 -->
<g id="edge37" class="edge">
<title>BB26&#45;&gt;BB27</title>
<path fill="none" stroke="black" d="M2231.87,-487.87C2220.51,-499.95 2209.61,-513.88 2202.24,-528.67 2156.33,-620.73 2217.13,-668.76 2164.24,-757 2155.34,-771.84 2142.71,-784.98 2129.21,-796.19"/>
<polygon fill="black" stroke="black" points="2126.84,-793.6 2121.18,-802.56 2131.19,-799.08 2126.84,-793.6"/>
</g>
<!-- BB27&#45;&gt;BB20 -->
<g id="edge38" class="edge">
<title>BB27&#45;&gt;BB20</title>
<path fill="none" stroke="black" d="M2052.96,-792.72C2052.39,-784.45 2051.79,-775.77 2051.2,-767.27"/>
<polygon fill="black" stroke="black" points="2054.68,-766.76 2050.49,-757.02 2047.69,-767.24 2054.68,-766.76"/>
</g>
<!-- BB28 -->
<g id="node29" class="node">
<title>BB28</title>
<ellipse fill="none" stroke="black" cx="1579.24" cy="-708.92" rx="103.48" ry="48.17"/>
<text text-anchor="middle" x="1579.24" y="-727.72" font-family="Times New Roman,serif" font-size="14.00">[11f..125)</text>
<text text-anchor="middle" x="1579.24" y="-712.72" font-family="Times New Roman,serif" font-size="14.00">Count: 3</text>
<text text-anchor="middle" x="1579.24" y="-697.72" font-family="Times New Roman,serif" font-size="14.00">Normalized count: 0.75</text>
<text text-anchor="middle" x="1579.24" y="-682.72" font-family="Times New Roman,serif" font-size="14.00">Samples weight: 0.00</text>
</g>
<!-- BB27&#45;&gt;BB28 -->
<g id="edge39" class="edge">
<title>BB27&#45;&gt;BB28</title>
<path fill="none" stroke="black" d="M1964.83,-815.14C1882.47,-792.66 1761.72,-759.71 1677.36,-736.69"/>
<polygon fill="black" stroke="black" points="1678.08,-733.26 1667.51,-734 1676.24,-740.01 1678.08,-733.26"/>
</g>
<!-- BB29 -->
<g id="node30" class="node">
<title>BB29</title>
<ellipse fill="none" stroke="black" cx="1579.24" cy="-576.75" rx="103.48" ry="48.17"/>
<text text-anchor="middle" x="1579.24" y="-595.55" font-family="Times New Roman,serif" font-size="14.00">[125..12a)</text>
<text text-anchor="middle" x="1579.24" y="-580.55" font-family="Times New Roman,serif" font-size="14.00">Count: 3</text>
<text text-anchor="middle" x="1579.24" y="-565.55" font-family="Times New Roman,serif" font-size="14.00">Normalized count: 0.75</text>
<text text-anchor="middle" x="1579.24" y="-550.55" font-family="Times New Roman,serif" font-size="14.00">Samples weight: 0.00</text>
</g>
<!-- BB28&#45;&gt;BB29 -->
<g id="edge41" class="edge">
<title>BB28&#45;&gt;BB29</title>
<path fill="none" stroke="black" d="M1579.24,-660.55C1579.24,-652.29 1579.24,-643.6 1579.24,-635.1"/>
<polygon fill="black" stroke="black" points="1582.74,-634.86 1579.24,-624.86 1575.74,-634.86 1582.74,-634.86"/>
</g>
<!-- BB33 -->
<g id="node34" class="node">
<title>BB33</title>
<ellipse fill="none" stroke="black" cx="1334.24" cy="-576.75" rx="103.48" ry="48.17"/>
<text text-anchor="middle" x="1334.24" y="-595.55" font-family="Times New Roman,serif" font-size="14.00">[17a..192)</text>
<text text-anchor="middle" x="1334.24" y="-580.55" font-family="Times New Roman,serif" font-size="14.00">Count: 3</text>
<text text-anchor="middle" x="1334.24" y="-565.55" font-family="Times New Roman,serif" font-size="14.00">Normalized count: 0.75</text>
<text text-anchor="middle" x="1334.24" y="-550.55" font-family="Times New Roman,serif" font-size="14.00">Samples weight: 0.00</text>
</g>
<!-- BB28&#45;&gt;BB33 -->
<g id="edge40" class="edge">
<title>BB28&#45;&gt;BB33</title>
<path fill="none" stroke="black" d="M1511.97,-672.18C1480.5,-655.46 1442.89,-635.47 1410.38,-618.2"/>
<polygon fill="black" stroke="black" points="1411.83,-615.01 1401.36,-613.41 1408.55,-621.19 1411.83,-615.01"/>
</g>
<!-- BB31 -->
<g id="node32" class="node">
<title>BB31</title>
<ellipse fill="none" stroke="black" cx="1579.24" cy="-444.58" rx="108.38" ry="48.17"/>
<text text-anchor="middle" x="1579.24" y="-463.38" font-family="Times New Roman,serif" font-size="14.00">[14e..153)</text>
<text text-anchor="middle" x="1579.24" y="-448.38" font-family="Times New Roman,serif" font-size="14.00">Count: 111</text>
<text text-anchor="middle" x="1579.24" y="-433.38" font-family="Times New Roman,serif" font-size="14.00">Normalized count: 27.75</text>
<text text-anchor="middle" x="1579.24" y="-418.38" font-family="Times New Roman,serif" font-size="14.00">Samples weight: 0.02</text>
</g>
<!-- BB29&#45;&gt;BB31 -->
<g id="edge42" class="edge">
<title>BB29&#45;&gt;BB31</title>
<path fill="none" stroke="black" d="M1579.24,-528.39C1579.24,-520.12 1579.24,-511.44 1579.24,-502.93"/>
<polygon fill="black" stroke="black" points="1582.74,-502.69 1579.24,-492.69 1575.74,-502.69 1582.74,-502.69"/>
</g>
<!-- BB30 -->
<g id="node31" class="node">
<title>BB30</title>
<ellipse fill="none" stroke="black" cx="1579.24" cy="-312.42" rx="108.38" ry="48.17"/>
<text text-anchor="middle" x="1579.24" y="-331.22" font-family="Times New Roman,serif" font-size="14.00">[12a..14e)</text>
<text text-anchor="middle" x="1579.24" y="-316.22" font-family="Times New Roman,serif" font-size="14.00">Count: 108</text>
<text text-anchor="middle" x="1579.24" y="-301.22" font-family="Times New Roman,serif" font-size="14.00">Normalized count: 27.00</text>
<text text-anchor="middle" x="1579.24" y="-286.22" font-family="Times New Roman,serif" font-size="14.00">Samples weight: 0.02</text>
</g>
<!-- BB30&#45;&gt;BB31 -->
<g id="edge43" class="edge">
<title>BB30&#45;&gt;BB31</title>
<path fill="none" stroke="black" d="M1585.75,-360.52C1585.97,-368.78 1586.04,-377.46 1585.95,-385.97"/>
<polygon fill="black" stroke="black" points="1582.44,-386.16 1585.76,-396.22 1589.44,-386.29 1582.44,-386.16"/>
</g>
<!-- BB31&#45;&gt;BB30 -->
<g id="edge44" class="edge">
<title>BB31&#45;&gt;BB30</title>
<path fill="none" stroke="black" d="M1572.72,-396.22C1572.5,-387.95 1572.44,-379.27 1572.53,-370.77"/>
<polygon fill="black" stroke="black" points="1576.03,-370.59 1572.72,-360.52 1569.04,-370.46 1576.03,-370.59"/>
</g>
<!-- BB32 -->
<g id="node33" class="node">
<title>BB32</title>
<ellipse fill="none" stroke="black" cx="1350.24" cy="-312.42" rx="103.48" ry="48.17"/>
<text text-anchor="middle" x="1350.24" y="-331.22" font-family="Times New Roman,serif" font-size="14.00">[153..17a)</text>
<text text-anchor="middle" x="1350.24" y="-316.22" font-family="Times New Roman,serif" font-size="14.00">Count: 3</text>
<text text-anchor="middle" x="1350.24" y="-301.22" font-family="Times New Roman,serif" font-size="14.00">Normalized count: 0.75</text>
<text text-anchor="middle" x="1350.24" y="-286.22" font-family="Times New Roman,serif" font-size="14.00">Samples weight: 0.00</text>
</g>
<!-- BB31&#45;&gt;BB32 -->
<g id="edge45" class="edge">
<title>BB31&#45;&gt;BB32</title>
<path fill="none" stroke="black" d="M1513.62,-406.28C1485.47,-390.28 1452.47,-371.53 1423.53,-355.07"/>
<polygon fill="black" stroke="black" points="1425.11,-351.95 1414.68,-350.05 1421.65,-358.03 1425.11,-351.95"/>
</g>
<!-- BB32&#45;&gt;BB33 -->
<g id="edge46" class="edge">
<title>BB32&#45;&gt;BB33</title>
<path fill="none" stroke="black" d="M1389.49,-357.15C1397.98,-369.1 1405.75,-382.62 1410.24,-396.5 1423.39,-437.17 1425.71,-452.82 1410.24,-492.67 1405.5,-504.86 1398.04,-516.36 1389.62,-526.7"/>
<polygon fill="black" stroke="black" points="1386.89,-524.5 1383.01,-534.36 1392.19,-529.07 1386.89,-524.5"/>
</g>
<!-- BB34 -->
<g id="node35" class="node">
<title>BB34</title>
<ellipse fill="none" stroke="black" cx="1298.24" cy="-444.58" rx="103.48" ry="48.17"/>
<text text-anchor="middle" x="1298.24" y="-463.38" font-family="Times New Roman,serif" font-size="14.00">[192..19b)</text>
<text text-anchor="middle" x="1298.24" y="-448.38" font-family="Times New Roman,serif" font-size="14.00">Count: 0</text>
<text text-anchor="middle" x="1298.24" y="-433.38" font-family="Times New Roman,serif" font-size="14.00">Normalized count: 0.00</text>
<text text-anchor="middle" x="1298.24" y="-418.38" font-family="Times New Roman,serif" font-size="14.00">Samples weight: 0.00</text>
</g>
<!-- BB33&#45;&gt;BB34 -->
<g id="edge48" class="edge">
<title>BB33&#45;&gt;BB34</title>
<path fill="none" stroke="black" d="M1321.24,-528.76C1318.87,-520.18 1316.37,-511.16 1313.93,-502.34"/>
<polygon fill="black" stroke="black" points="1317.25,-501.21 1311.22,-492.51 1310.51,-503.08 1317.25,-501.21"/>
</g>
<!-- BB35 -->
<g id="node36" class="node">
<title>BB35</title>
<ellipse fill="none" stroke="black" cx="1074.24" cy="-444.58" rx="103.48" ry="48.17"/>
<text text-anchor="middle" x="1074.24" y="-463.38" font-family="Times New Roman,serif" font-size="14.00">[19b..1a2)</text>
<text text-anchor="middle" x="1074.24" y="-448.38" font-family="Times New Roman,serif" font-size="14.00">Count: 3</text>
<text text-anchor="middle" x="1074.24" y="-433.38" font-family="Times New Roman,serif" font-size="14.00">Normalized count: 0.75</text>
<text text-anchor="middle" x="1074.24" y="-418.38" font-family="Times New Roman,serif" font-size="14.00">Samples weight: 0.00</text>
</g>
<!-- BB33&#45;&gt;BB35 -->
<g id="edge47" class="edge">
<title>BB33&#45;&gt;BB35</title>
<path fill="none" stroke="black" d="M1264.9,-541.04C1230.52,-523.82 1188.83,-502.95 1153.22,-485.13"/>
<polygon fill="black" stroke="black" points="1154.34,-481.77 1143.83,-480.42 1151.2,-488.03 1154.34,-481.77"/>
</g>
<!-- BB34&#45;&gt;BB35 -->
<g id="edge49" class="edge">
<title>BB34&#45;&gt;BB35</title>
<path fill="none" stroke="black" d="M1194.94,-444.58C1192.49,-444.58 1190.03,-444.58 1187.58,-444.58"/>
<polygon fill="black" stroke="black" points="1187.49,-441.08 1177.49,-444.58 1187.49,-448.08 1187.49,-441.08"/>
</g>
<!-- BB36 -->
<g id="node37" class="node">
<title>BB36</title>
<ellipse fill="none" stroke="black" cx="1126.24" cy="-312.42" rx="103.48" ry="48.17"/>
<text text-anchor="middle" x="1126.24" y="-331.22" font-family="Times New Roman,serif" font-size="14.00">[1a2..1bb)</text>
<text text-anchor="middle" x="1126.24" y="-316.22" font-family="Times New Roman,serif" font-size="14.00">Count: 2</text>
<text text-anchor="middle" x="1126.24" y="-301.22" font-family="Times New Roman,serif" font-size="14.00">Normalized count: 0.50</text>
<text text-anchor="middle" x="1126.24" y="-286.22" font-family="Times New Roman,serif" font-size="14.00">Samples weight: 0.00</text>
</g>
<!-- BB35&#45;&gt;BB36 -->
<g id="edge51" class="edge">
<title>BB35&#45;&gt;BB36</title>
<path fill="none" stroke="black" d="M1092.86,-396.96C1096.41,-388.08 1100.16,-378.7 1103.81,-369.56"/>
<polygon fill="black" stroke="black" points="1107.11,-370.74 1107.57,-360.15 1100.61,-368.14 1107.11,-370.74"/>
</g>
<!-- BB39 -->
<g id="node40" class="node">
<title>BB39</title>
<ellipse fill="none" stroke="black" cx="902.24" cy="-312.42" rx="103.48" ry="48.17"/>
<text text-anchor="middle" x="902.24" y="-331.22" font-family="Times New Roman,serif" font-size="14.00">[1d1..1d7)</text>
<text text-anchor="middle" x="902.24" y="-316.22" font-family="Times New Roman,serif" font-size="14.00">Count: 3</text>
<text text-anchor="middle" x="902.24" y="-301.22" font-family="Times New Roman,serif" font-size="14.00">Normalized count: 0.75</text>
<text text-anchor="middle" x="902.24" y="-286.22" font-family="Times New Roman,serif" font-size="14.00">Samples weight: 0.00</text>
</g>
<!-- BB35&#45;&gt;BB39 -->
<g id="edge50" class="edge">
<title>BB35&#45;&gt;BB39</title>
<path fill="none" stroke="black" d="M1020.76,-403.11C1002.63,-389.39 982.25,-373.97 963.56,-359.82"/>
<polygon fill="black" stroke="black" points="965.47,-356.88 955.39,-353.64 961.25,-362.47 965.47,-356.88"/>
</g>
<!-- BB38 -->
<g id="node39" class="node">
<title>BB38</title>
<ellipse fill="none" stroke="black" cx="1014.24" cy="-180.25" rx="108.38" ry="48.17"/>
<text text-anchor="middle" x="1014.24" y="-199.05" font-family="Times New Roman,serif" font-size="14.00">[1cd..1d1)</text>
<text text-anchor="middle" x="1014.24" y="-184.05" font-family="Times New Roman,serif" font-size="14.00">Count: 51</text>
<text text-anchor="middle" x="1014.24" y="-169.05" font-family="Times New Roman,serif" font-size="14.00">Normalized count: 12.75</text>
<text text-anchor="middle" x="1014.24" y="-154.05" font-family="Times New Roman,serif" font-size="14.00">Samples weight: 0.01</text>
</g>
<!-- BB36&#45;&gt;BB38 -->
<g id="edge52" class="edge">
<title>BB36&#45;&gt;BB38</title>
<path fill="none" stroke="black" d="M1088.32,-267.35C1078.94,-256.44 1068.79,-244.65 1059.11,-233.4"/>
<polygon fill="black" stroke="black" points="1061.67,-231.01 1052.5,-225.72 1056.37,-235.58 1061.67,-231.01"/>
</g>
<!-- BB37 -->
<g id="node38" class="node">
<title>BB37</title>
<ellipse fill="none" stroke="black" cx="1014.24" cy="-48.08" rx="108.38" ry="48.17"/>
<text text-anchor="middle" x="1014.24" y="-66.88" font-family="Times New Roman,serif" font-size="14.00">[1bb..1cd)</text>
<text text-anchor="middle" x="1014.24" y="-51.88" font-family="Times New Roman,serif" font-size="14.00">Count: 49</text>
<text text-anchor="middle" x="1014.24" y="-36.88" font-family="Times New Roman,serif" font-size="14.00">Normalized count: 12.25</text>
<text text-anchor="middle" x="1014.24" y="-21.88" font-family="Times New Roman,serif" font-size="14.00">Samples weight: 0.01</text>
</g>
<!-- BB37&#45;&gt;BB38 -->
<g id="edge53" class="edge">
<title>BB37&#45;&gt;BB38</title>
<path fill="none" stroke="black" d="M1020.75,-96.19C1020.97,-104.45 1021.04,-113.13 1020.95,-121.64"/>
<polygon fill="black" stroke="black" points="1017.44,-121.83 1020.76,-131.89 1024.44,-121.95 1017.44,-121.83"/>
</g>
<!-- BB38&#45;&gt;BB37 -->
<g id="edge54" class="edge">
<title>BB38&#45;&gt;BB37</title>
<path fill="none" stroke="black" d="M1007.72,-131.89C1007.5,-123.62 1007.44,-114.94 1007.53,-106.43"/>
<polygon fill="black" stroke="black" points="1011.03,-106.26 1007.72,-96.19 1004.04,-106.12 1011.03,-106.26"/>
</g>
<!-- BB38&#45;&gt;BB39 -->
<g id="edge55" class="edge">
<title>BB38&#45;&gt;BB39</title>
<path fill="none" stroke="black" d="M975.98,-225.72C966.57,-236.64 956.43,-248.44 946.76,-259.67"/>
<polygon fill="black" stroke="black" points="944.02,-257.48 940.16,-267.35 949.33,-262.05 944.02,-257.48"/>
</g>
<!-- BB39&#45;&gt;BB40 -->
<g id="edge56" class="edge">
<title>BB39&#45;&gt;BB40</title>
<path fill="none" stroke="black" d="M906.29,-360.77C910.42,-413.27 916.24,-500.49 916.24,-575.75 916.24,-974.25 916.24,-974.25 916.24,-974.25 916.24,-1054.36 911.13,-1077.1 935.24,-1153.5 938.25,-1163.05 942.43,-1172.75 947.04,-1181.98"/>
<polygon fill="black" stroke="black" points="944.04,-1183.8 951.77,-1191.04 950.24,-1180.56 944.04,-1183.8"/>
</g>
<!-- BB40&#45;&gt;BB11 -->
<g id="edge57" class="edge">
<title>BB40&#45;&gt;BB11</title>
<path fill="none" stroke="black" d="M1080.92,-1224.74C1286.1,-1200.38 1754.25,-1144.78 1967.62,-1119.43"/>
<polygon fill="black" stroke="black" points="1968.07,-1122.91 1977.59,-1118.25 1967.24,-1115.95 1968.07,-1122.91"/>
</g>
<!-- BB41 -->
<g id="node42" class="node">
<title>BB41</title>
<ellipse fill="none" stroke="black" cx="1047.24" cy="-1105.42" rx="103.48" ry="48.17"/>
<text text-anchor="middle" x="1047.24" y="-1124.22" font-family="Times New Roman,serif" font-size="14.00">[1df..1e1)</text>
<text text-anchor="middle" x="1047.24" y="-1109.22" font-family="Times New Roman,serif" font-size="14.00">Count: 2</text>
<text text-anchor="middle" x="1047.24" y="-1094.22" font-family="Times New Roman,serif" font-size="14.00">Normalized count: 0.50</text>
<text text-anchor="middle" x="1047.24" y="-1079.22" font-family="Times New Roman,serif" font-size="14.00">Samples weight: 0.00</text>
</g>
<!-- BB40&#45;&gt;BB41 -->
<g id="edge58" class="edge">
<title>BB40&#45;&gt;BB41</title>
<path fill="none" stroke="black" d="M1004.51,-1190.69C1009.29,-1181.26 1014.37,-1171.24 1019.29,-1161.52"/>
<polygon fill="black" stroke="black" points="1022.56,-1162.83 1023.96,-1152.33 1016.31,-1159.67 1022.56,-1162.83"/>
</g>
</g>
</svg>
