<?xml version="1.0" encoding="UTF-8" standalone="no"?>
<!DOCTYPE svg PUBLIC "-//W3C//DTD SVG 1.1//EN"
 "http://www.w3.org/Graphics/SVG/1.1/DTD/svg11.dtd">
<!-- Generated by graphviz version 2.47.0 (20210316.0004)
 -->
<!-- Title: G Pages: 1 -->
<svg width="2027pt" height="1426pt"
 viewBox="0.00 0.00 2026.80 1425.83" xmlns="http://www.w3.org/2000/svg" xmlns:xlink="http://www.w3.org/1999/xlink">
<g id="graph0" class="graph" transform="scale(1 1) rotate(0) translate(4 1421.83)">
<title>G</title>
<polygon fill="white" stroke="transparent" points="-4,4 -4,-1421.83 2022.8,-1421.83 2022.8,4 -4,4"/>
<!-- BB0 -->
<g id="node1" class="node">
<title>BB0</title>
<ellipse fill="none" stroke="black" cx="672.57" cy="-1369.75" rx="103.48" ry="48.17"/>
<text text-anchor="middle" x="672.57" y="-1388.55" font-family="Times New Roman,serif" font-size="14.00">[0..11)</text>
<text text-anchor="middle" x="672.57" y="-1373.55" font-family="Times New Roman,serif" font-size="14.00">Count: 2</text>
<text text-anchor="middle" x="672.57" y="-1358.55" font-family="Times New Roman,serif" font-size="14.00">Normalized count: 1.00</text>
<text text-anchor="middle" x="672.57" y="-1343.55" font-family="Times New Roman,serif" font-size="14.00">Samples weight: 0.00</text>
</g>
<!-- BB2 -->
<g id="node3" class="node">
<title>BB2</title>
<ellipse fill="none" stroke="black" cx="672.57" cy="-1237.58" rx="103.48" ry="48.17"/>
<text text-anchor="middle" x="672.57" y="-1256.38" font-family="Times New Roman,serif" font-size="14.00">[22..28)</text>
<text text-anchor="middle" x="672.57" y="-1241.38" font-family="Times New Roman,serif" font-size="14.00">Count: 3</text>
<text text-anchor="middle" x="672.57" y="-1226.38" font-family="Times New Roman,serif" font-size="14.00">Normalized count: 1.50</text>
<text text-anchor="middle" x="672.57" y="-1211.38" font-family="Times New Roman,serif" font-size="14.00">Samples weight: 0.01</text>
</g>
<!-- BB0&#45;&gt;BB2 -->
<g id="edge1" class="edge">
<title>BB0&#45;&gt;BB2</title>
<path fill="none" stroke="black" d="M672.57,-1321.39C672.57,-1313.12 672.57,-1304.44 672.57,-1295.93"/>
<polygon fill="black" stroke="black" points="676.07,-1295.69 672.57,-1285.69 669.07,-1295.69 676.07,-1295.69"/>
</g>
<!-- BB1 -->
<g id="node2" class="node">
<title>BB1</title>
<ellipse fill="none" stroke="black" cx="672.57" cy="-1105.42" rx="103.48" ry="48.17"/>
<text text-anchor="middle" x="672.57" y="-1124.22" font-family="Times New Roman,serif" font-size="14.00">[11..22)</text>
<text text-anchor="middle" x="672.57" y="-1109.22" font-family="Times New Roman,serif" font-size="14.00">Count: 1</text>
<text text-anchor="middle" x="672.57" y="-1094.22" font-family="Times New Roman,serif" font-size="14.00">Normalized count: 0.50</text>
<text text-anchor="middle" x="672.57" y="-1079.22" font-family="Times New Roman,serif" font-size="14.00">Samples weight: 0.00</text>
</g>
<!-- BB1&#45;&gt;BB2 -->
<g id="edge2" class="edge">
<title>BB1&#45;&gt;BB2</title>
<path fill="none" stroke="black" d="M679.09,-1153.78C679.31,-1162.07 679.37,-1170.78 679.27,-1179.31"/>
<polygon fill="black" stroke="black" points="675.77,-1179.52 679.08,-1189.59 682.77,-1179.66 675.77,-1179.52"/>
</g>
<!-- BB2&#45;&gt;BB1 -->
<g id="edge3" class="edge">
<title>BB2&#45;&gt;BB1</title>
<path fill="none" stroke="black" d="M666.05,-1189.59C665.83,-1181.21 665.76,-1172.41 665.86,-1163.78"/>
<polygon fill="black" stroke="black" points="669.36,-1163.84 666.04,-1153.78 662.36,-1163.71 669.36,-1163.84"/>
</g>
<!-- BB3 -->
<g id="node4" class="node">
<title>BB3</title>
<ellipse fill="none" stroke="black" cx="896.57" cy="-1105.42" rx="103.48" ry="48.17"/>
<text text-anchor="middle" x="896.57" y="-1124.22" font-family="Times New Roman,serif" font-size="14.00">[28..54)</text>
<text text-anchor="middle" x="896.57" y="-1109.22" font-family="Times New Roman,serif" font-size="14.00">Count: 2</text>
<text text-anchor="middle" x="896.57" y="-1094.22" font-family="Times New Roman,serif" font-size="14.00">Normalized count: 1.00</text>
<text text-anchor="middle" x="896.57" y="-1079.22" font-family="Times New Roman,serif" font-size="14.00">Samples weight: 0.00</text>
</g>
<!-- BB2&#45;&gt;BB3 -->
<g id="edge4" class="edge">
<title>BB2&#45;&gt;BB3</title>
<path fill="none" stroke="black" d="M736.16,-1199.63C763.59,-1183.69 795.81,-1164.96 824.16,-1148.49"/>
<polygon fill="black" stroke="black" points="825.93,-1151.51 832.82,-1143.46 822.41,-1145.46 825.93,-1151.51"/>
</g>
<!-- BB4 -->
<g id="node5" class="node">
<title>BB4</title>
<ellipse fill="none" stroke="black" cx="718.57" cy="-973.25" rx="103.48" ry="48.17"/>
<text text-anchor="middle" x="718.57" y="-992.05" font-family="Times New Roman,serif" font-size="14.00">[54..5c)</text>
<text text-anchor="middle" x="718.57" y="-977.05" font-family="Times New Roman,serif" font-size="14.00">Count: 0</text>
<text text-anchor="middle" x="718.57" y="-962.05" font-family="Times New Roman,serif" font-size="14.00">Normalized count: 0.00</text>
<text text-anchor="middle" x="718.57" y="-947.05" font-family="Times New Roman,serif" font-size="14.00">Samples weight: 0.00</text>
</g>
<!-- BB3&#45;&gt;BB4 -->
<g id="edge6" class="edge">
<title>BB3&#45;&gt;BB4</title>
<path fill="none" stroke="black" d="M841.71,-1064.3C822.67,-1050.38 801.18,-1034.66 781.54,-1020.3"/>
<polygon fill="black" stroke="black" points="783.38,-1017.31 773.24,-1014.23 779.25,-1022.96 783.38,-1017.31"/>
</g>
<!-- BB20 -->
<g id="node21" class="node">
<title>BB20</title>
<ellipse fill="none" stroke="black" cx="1073.57" cy="-973.25" rx="103.48" ry="48.17"/>
<text text-anchor="middle" x="1073.57" y="-992.05" font-family="Times New Roman,serif" font-size="14.00">[10f..120)</text>
<text text-anchor="middle" x="1073.57" y="-977.05" font-family="Times New Roman,serif" font-size="14.00">Count: 2</text>
<text text-anchor="middle" x="1073.57" y="-962.05" font-family="Times New Roman,serif" font-size="14.00">Normalized count: 1.00</text>
<text text-anchor="middle" x="1073.57" y="-947.05" font-family="Times New Roman,serif" font-size="14.00">Samples weight: 0.00</text>
</g>
<!-- BB3&#45;&gt;BB20 -->
<g id="edge5" class="edge">
<title>BB3&#45;&gt;BB20</title>
<path fill="none" stroke="black" d="M951.12,-1064.3C970.05,-1050.38 991.42,-1034.66 1010.95,-1020.3"/>
<polygon fill="black" stroke="black" points="1013.21,-1022.98 1019.2,-1014.23 1009.07,-1017.34 1013.21,-1022.98"/>
</g>
<!-- BB17 -->
<g id="node18" class="node">
<title>BB17</title>
<ellipse fill="none" stroke="black" cx="709.57" cy="-841.08" rx="103.48" ry="48.17"/>
<text text-anchor="middle" x="709.57" y="-859.88" font-family="Times New Roman,serif" font-size="14.00">[ed..f9)</text>
<text text-anchor="middle" x="709.57" y="-844.88" font-family="Times New Roman,serif" font-size="14.00">Count: 0</text>
<text text-anchor="middle" x="709.57" y="-829.88" font-family="Times New Roman,serif" font-size="14.00">Normalized count: 0.00</text>
<text text-anchor="middle" x="709.57" y="-814.88" font-family="Times New Roman,serif" font-size="14.00">Samples weight: 0.00</text>
</g>
<!-- BB4&#45;&gt;BB17 -->
<g id="edge7" class="edge">
<title>BB4&#45;&gt;BB17</title>
<path fill="none" stroke="black" d="M715.29,-924.89C714.72,-916.62 714.12,-907.94 713.53,-899.43"/>
<polygon fill="black" stroke="black" points="717.01,-898.93 712.82,-889.19 710.02,-899.41 717.01,-898.93"/>
</g>
<!-- BB5 -->
<g id="node6" class="node">
<title>BB5</title>
<ellipse fill="none" stroke="black" cx="644.57" cy="-708.92" rx="103.48" ry="48.17"/>
<text text-anchor="middle" x="644.57" y="-727.72" font-family="Times New Roman,serif" font-size="14.00">[5c..6b)</text>
<text text-anchor="middle" x="644.57" y="-712.72" font-family="Times New Roman,serif" font-size="14.00">Count: 0</text>
<text text-anchor="middle" x="644.57" y="-697.72" font-family="Times New Roman,serif" font-size="14.00">Normalized count: 0.00</text>
<text text-anchor="middle" x="644.57" y="-682.72" font-family="Times New Roman,serif" font-size="14.00">Samples weight: 0.00</text>
</g>
<!-- BB10 -->
<g id="node11" class="node">
<title>BB10</title>
<ellipse fill="none" stroke="black" cx="628.57" cy="-576.75" rx="103.48" ry="48.17"/>
<text text-anchor="middle" x="628.57" y="-595.55" font-family="Times New Roman,serif" font-size="14.00">[9b..a3)</text>
<text text-anchor="middle" x="628.57" y="-580.55" font-family="Times New Roman,serif" font-size="14.00">Count: 0</text>
<text text-anchor="middle" x="628.57" y="-565.55" font-family="Times New Roman,serif" font-size="14.00">Normalized count: 0.00</text>
<text text-anchor="middle" x="628.57" y="-550.55" font-family="Times New Roman,serif" font-size="14.00">Samples weight: 0.00</text>
</g>
<!-- BB5&#45;&gt;BB10 -->
<g id="edge8" class="edge">
<title>BB5&#45;&gt;BB10</title>
<path fill="none" stroke="black" d="M638.75,-660.55C637.72,-652.2 636.64,-643.41 635.58,-634.82"/>
<polygon fill="black" stroke="black" points="639.05,-634.36 634.36,-624.86 632.1,-635.21 639.05,-634.36"/>
</g>
<!-- BB6 -->
<g id="node7" class="node">
<title>BB6</title>
<ellipse fill="none" stroke="black" cx="746.57" cy="-444.58" rx="103.48" ry="48.17"/>
<text text-anchor="middle" x="746.57" y="-463.38" font-family="Times New Roman,serif" font-size="14.00">[6b..7b)</text>
<text text-anchor="middle" x="746.57" y="-448.38" font-family="Times New Roman,serif" font-size="14.00">Count: 0</text>
<text text-anchor="middle" x="746.57" y="-433.38" font-family="Times New Roman,serif" font-size="14.00">Normalized count: 0.00</text>
<text text-anchor="middle" x="746.57" y="-418.38" font-family="Times New Roman,serif" font-size="14.00">Samples weight: 0.00</text>
</g>
<!-- BB8 -->
<g id="node9" class="node">
<title>BB8</title>
<ellipse fill="none" stroke="black" cx="765.57" cy="-312.42" rx="103.48" ry="48.17"/>
<text text-anchor="middle" x="765.57" y="-331.22" font-family="Times New Roman,serif" font-size="14.00">[8f..95)</text>
<text text-anchor="middle" x="765.57" y="-316.22" font-family="Times New Roman,serif" font-size="14.00">Count: 0</text>
<text text-anchor="middle" x="765.57" y="-301.22" font-family="Times New Roman,serif" font-size="14.00">Normalized count: 0.00</text>
<text text-anchor="middle" x="765.57" y="-286.22" font-family="Times New Roman,serif" font-size="14.00">Samples weight: 0.00</text>
</g>
<!-- BB6&#45;&gt;BB8 -->
<g id="edge9" class="edge">
<title>BB6&#45;&gt;BB8</title>
<path fill="none" stroke="black" d="M753.43,-396.59C754.65,-388.22 755.93,-379.41 757.19,-370.78"/>
<polygon fill="black" stroke="black" points="760.67,-371.18 758.65,-360.78 753.75,-370.17 760.67,-371.18"/>
</g>
<!-- BB7 -->
<g id="node8" class="node">
<title>BB7</title>
<ellipse fill="none" stroke="black" cx="811.57" cy="-180.25" rx="103.48" ry="48.17"/>
<text text-anchor="middle" x="811.57" y="-199.05" font-family="Times New Roman,serif" font-size="14.00">[7b..8f)</text>
<text text-anchor="middle" x="811.57" y="-184.05" font-family="Times New Roman,serif" font-size="14.00">Count: 0</text>
<text text-anchor="middle" x="811.57" y="-169.05" font-family="Times New Roman,serif" font-size="14.00">Normalized count: 0.00</text>
<text text-anchor="middle" x="811.57" y="-154.05" font-family="Times New Roman,serif" font-size="14.00">Samples weight: 0.00</text>
</g>
<!-- BB7&#45;&gt;BB8 -->
<g id="edge10" class="edge">
<title>BB7&#45;&gt;BB8</title>
<path fill="none" stroke="black" d="M801.47,-228.24C798.56,-237.16 795.29,-246.57 791.93,-255.73"/>
<polygon fill="black" stroke="black" points="788.63,-254.57 788.41,-265.16 795.19,-257.02 788.63,-254.57"/>
</g>
<!-- BB8&#45;&gt;BB7 -->
<g id="edge11" class="edge">
<title>BB8&#45;&gt;BB7</title>
<path fill="none" stroke="black" d="M775.66,-264.42C778.59,-255.45 781.88,-245.98 785.26,-236.77"/>
<polygon fill="black" stroke="black" points="788.58,-237.89 788.81,-227.3 782.02,-235.44 788.58,-237.89"/>
</g>
<!-- BB9 -->
<g id="node10" class="node">
<title>BB9</title>
<ellipse fill="none" stroke="black" cx="587.57" cy="-180.25" rx="103.48" ry="48.17"/>
<text text-anchor="middle" x="587.57" y="-199.05" font-family="Times New Roman,serif" font-size="14.00">[95..9b)</text>
<text text-anchor="middle" x="587.57" y="-184.05" font-family="Times New Roman,serif" font-size="14.00">Count: 0</text>
<text text-anchor="middle" x="587.57" y="-169.05" font-family="Times New Roman,serif" font-size="14.00">Normalized count: 0.00</text>
<text text-anchor="middle" x="587.57" y="-154.05" font-family="Times New Roman,serif" font-size="14.00">Samples weight: 0.00</text>
</g>
<!-- BB8&#45;&gt;BB9 -->
<g id="edge12" class="edge">
<title>BB8&#45;&gt;BB9</title>
<path fill="none" stroke="black" d="M710.71,-271.3C691.67,-257.38 670.18,-241.66 650.54,-227.3"/>
<polygon fill="black" stroke="black" points="652.38,-224.31 642.24,-221.23 648.25,-229.96 652.38,-224.31"/>
</g>
<!-- BB9&#45;&gt;BB10 -->
<g id="edge13" class="edge">
<title>BB9&#45;&gt;BB10</title>
<path fill="none" stroke="black" d="M592.48,-228.5C600.03,-301.15 614.47,-440.07 622.6,-518.38"/>
<polygon fill="black" stroke="black" points="619.15,-518.97 623.66,-528.56 626.11,-518.25 619.15,-518.97"/>
</g>
<!-- BB10&#45;&gt;BB6 -->
<g id="edge14" class="edge">
<title>BB10&#45;&gt;BB6</title>
<path fill="none" stroke="black" d="M668.19,-532.04C678.4,-520.77 689.49,-508.54 700.02,-496.93"/>
<polygon fill="black" stroke="black" points="702.73,-499.15 706.85,-489.39 697.54,-494.45 702.73,-499.15"/>
</g>
<!-- BB11 -->
<g id="node12" class="node">
<title>BB11</title>
<ellipse fill="none" stroke="black" cx="418.57" cy="-444.58" rx="103.48" ry="48.17"/>
<text text-anchor="middle" x="418.57" y="-463.38" font-family="Times New Roman,serif" font-size="14.00">[a3..b2)</text>
<text text-anchor="middle" x="418.57" y="-448.38" font-family="Times New Roman,serif" font-size="14.00">Count: 0</text>
<text text-anchor="middle" x="418.57" y="-433.38" font-family="Times New Roman,serif" font-size="14.00">Normalized count: 0.00</text>
<text text-anchor="middle" x="418.57" y="-418.38" font-family="Times New Roman,serif" font-size="14.00">Samples weight: 0.00</text>
</g>
<!-- BB10&#45;&gt;BB11 -->
<g id="edge15" class="edge">
<title>BB10&#45;&gt;BB11</title>
<path fill="none" stroke="black" d="M567.54,-537.92C542.74,-522.55 513.93,-504.7 488.3,-488.81"/>
<polygon fill="black" stroke="black" points="490.09,-485.8 479.74,-483.5 486.4,-491.74 490.09,-485.8"/>
</g>
<!-- BB13 -->
<g id="node14" class="node">
<title>BB13</title>
<ellipse fill="none" stroke="black" cx="251.57" cy="-312.42" rx="103.48" ry="48.17"/>
<text text-anchor="middle" x="251.57" y="-331.22" font-family="Times New Roman,serif" font-size="14.00">[c3..cb)</text>
<text text-anchor="middle" x="251.57" y="-316.22" font-family="Times New Roman,serif" font-size="14.00">Count: 0</text>
<text text-anchor="middle" x="251.57" y="-301.22" font-family="Times New Roman,serif" font-size="14.00">Normalized count: 0.00</text>
<text text-anchor="middle" x="251.57" y="-286.22" font-family="Times New Roman,serif" font-size="14.00">Samples weight: 0.00</text>
</g>
<!-- BB11&#45;&gt;BB13 -->
<g id="edge16" class="edge">
<title>BB11&#45;&gt;BB13</title>
<path fill="none" stroke="black" d="M366.19,-402.75C348.93,-389.31 329.61,-374.25 311.82,-360.38"/>
<polygon fill="black" stroke="black" points="313.8,-357.49 303.76,-354.1 309.5,-363.01 313.8,-357.49"/>
</g>
<!-- BB12 -->
<g id="node13" class="node">
<title>BB12</title>
<ellipse fill="none" stroke="black" cx="139.57" cy="-180.25" rx="103.48" ry="48.17"/>
<text text-anchor="middle" x="139.57" y="-199.05" font-family="Times New Roman,serif" font-size="14.00">[b2..c3)</text>
<text text-anchor="middle" x="139.57" y="-184.05" font-family="Times New Roman,serif" font-size="14.00">Count: 0</text>
<text text-anchor="middle" x="139.57" y="-169.05" font-family="Times New Roman,serif" font-size="14.00">Normalized count: 0.00</text>
<text text-anchor="middle" x="139.57" y="-154.05" font-family="Times New Roman,serif" font-size="14.00">Samples weight: 0.00</text>
</g>
<!-- BB12&#45;&gt;BB13 -->
<g id="edge17" class="edge">
<title>BB12&#45;&gt;BB13</title>
<path fill="none" stroke="black" d="M183.07,-224.37C192.92,-235.39 203.3,-247.37 212.94,-258.8"/>
<polygon fill="black" stroke="black" points="210.37,-261.19 219.47,-266.62 215.74,-256.7 210.37,-261.19"/>
</g>
<!-- BB13&#45;&gt;BB12 -->
<g id="edge18" class="edge">
<title>BB13&#45;&gt;BB12</title>
<path fill="none" stroke="black" d="M208.19,-268.43C198.29,-257.36 187.85,-245.32 178.17,-233.83"/>
<polygon fill="black" stroke="black" points="180.7,-231.4 171.6,-225.97 175.33,-235.89 180.7,-231.4"/>
</g>
<!-- BB14 -->
<g id="node15" class="node">
<title>BB14</title>
<ellipse fill="none" stroke="black" cx="363.57" cy="-180.25" rx="103.48" ry="48.17"/>
<text text-anchor="middle" x="363.57" y="-199.05" font-family="Times New Roman,serif" font-size="14.00">[cb..dd)</text>
<text text-anchor="middle" x="363.57" y="-184.05" font-family="Times New Roman,serif" font-size="14.00">Count: 0</text>
<text text-anchor="middle" x="363.57" y="-169.05" font-family="Times New Roman,serif" font-size="14.00">Normalized count: 0.00</text>
<text text-anchor="middle" x="363.57" y="-154.05" font-family="Times New Roman,serif" font-size="14.00">Samples weight: 0.00</text>
</g>
<!-- BB13&#45;&gt;BB14 -->
<g id="edge19" class="edge">
<title>BB13&#45;&gt;BB14</title>
<path fill="none" stroke="black" d="M289.48,-267.35C298.97,-256.32 309.24,-244.39 319.01,-233.03"/>
<polygon fill="black" stroke="black" points="321.82,-235.14 325.69,-225.27 316.51,-230.57 321.82,-235.14"/>
</g>
<!-- BB15 -->
<g id="node16" class="node">
<title>BB15</title>
<ellipse fill="none" stroke="black" cx="507.57" cy="-48.08" rx="103.48" ry="48.17"/>
<text text-anchor="middle" x="507.57" y="-66.88" font-family="Times New Roman,serif" font-size="14.00">[dd..e7)</text>
<text text-anchor="middle" x="507.57" y="-51.88" font-family="Times New Roman,serif" font-size="14.00">Count: 0</text>
<text text-anchor="middle" x="507.57" y="-36.88" font-family="Times New Roman,serif" font-size="14.00">Normalized count: 0.00</text>
<text text-anchor="middle" x="507.57" y="-21.88" font-family="Times New Roman,serif" font-size="14.00">Samples weight: 0.00</text>
</g>
<!-- BB14&#45;&gt;BB15 -->
<g id="edge21" class="edge">
<title>BB14&#45;&gt;BB15</title>
<path fill="none" stroke="black" d="M410.32,-136.99C424.04,-124.59 439.16,-110.92 453.31,-98.13"/>
<polygon fill="black" stroke="black" points="455.98,-100.43 461.05,-91.13 451.28,-95.24 455.98,-100.43"/>
</g>
<!-- BB16 -->
<g id="node17" class="node">
<title>BB16</title>
<ellipse fill="none" stroke="black" cx="218.57" cy="-48.08" rx="103.48" ry="48.17"/>
<text text-anchor="middle" x="218.57" y="-66.88" font-family="Times New Roman,serif" font-size="14.00">[e7..ed)</text>
<text text-anchor="middle" x="218.57" y="-51.88" font-family="Times New Roman,serif" font-size="14.00">Count: 0</text>
<text text-anchor="middle" x="218.57" y="-36.88" font-family="Times New Roman,serif" font-size="14.00">Normalized count: 0.00</text>
<text text-anchor="middle" x="218.57" y="-21.88" font-family="Times New Roman,serif" font-size="14.00">Samples weight: 0.00</text>
</g>
<!-- BB14&#45;&gt;BB16 -->
<g id="edge20" class="edge">
<title>BB14&#45;&gt;BB16</title>
<path fill="none" stroke="black" d="M316.89,-137.35C303.06,-124.93 287.79,-111.22 273.48,-98.38"/>
<polygon fill="black" stroke="black" points="275.43,-95.43 265.65,-91.35 270.76,-100.64 275.43,-95.43"/>
</g>
<!-- BB18 -->
<g id="node19" class="node">
<title>BB18</title>
<ellipse fill="none" stroke="black" cx="942.57" cy="-708.92" rx="103.48" ry="48.17"/>
<text text-anchor="middle" x="942.57" y="-727.72" font-family="Times New Roman,serif" font-size="14.00">[f9..104)</text>
<text text-anchor="middle" x="942.57" y="-712.72" font-family="Times New Roman,serif" font-size="14.00">Count: 0</text>
<text text-anchor="middle" x="942.57" y="-697.72" font-family="Times New Roman,serif" font-size="14.00">Normalized count: 0.00</text>
<text text-anchor="middle" x="942.57" y="-682.72" font-family="Times New Roman,serif" font-size="14.00">Samples weight: 0.00</text>
</g>
<!-- BB15&#45;&gt;BB18 -->
<g id="edge22" class="edge">
<title>BB15&#45;&gt;BB18</title>
<path fill="none" stroke="black" d="M609.89,-55.88C719.19,-65.42 882.3,-86.94 923.57,-132.17 977.56,-191.35 942.57,-231.3 942.57,-311.42 942.57,-445.58 942.57,-445.58 942.57,-445.58 942.57,-516.03 942.57,-597.13 942.57,-650.28"/>
<polygon fill="black" stroke="black" points="939.07,-650.52 942.57,-660.52 946.07,-650.52 939.07,-650.52"/>
</g>
<!-- BB16&#45;&gt;BB17 -->
<g id="edge23" class="edge">
<title>BB16&#45;&gt;BB17</title>
<path fill="none" stroke="black" d="M124.53,-68.54C88.62,-80.79 50.78,-100.53 27.57,-132.17 -19.83,-196.76 8.57,-231.3 8.57,-311.42 8.57,-577.75 8.57,-577.75 8.57,-577.75 8.57,-703 406.06,-788.37 602.41,-822.9"/>
<polygon fill="black" stroke="black" points="602.01,-826.38 612.46,-824.66 603.21,-819.49 602.01,-826.38"/>
</g>
<!-- BB17&#45;&gt;BB5 -->
<g id="edge24" class="edge">
<title>BB17&#45;&gt;BB5</title>
<path fill="none" stroke="black" d="M686.65,-794.19C681.94,-784.76 676.94,-774.74 672.09,-765.03"/>
<polygon fill="black" stroke="black" points="675.09,-763.21 667.5,-755.83 668.83,-766.34 675.09,-763.21"/>
</g>
<!-- BB17&#45;&gt;BB18 -->
<g id="edge25" class="edge">
<title>BB17&#45;&gt;BB18</title>
<path fill="none" stroke="black" d="M774.78,-803.65C803.94,-787.36 838.46,-768.07 868.59,-751.25"/>
<polygon fill="black" stroke="black" points="870.35,-754.27 877.37,-746.34 866.93,-748.16 870.35,-754.27"/>
</g>
<!-- BB19 -->
<g id="node20" class="node">
<title>BB19</title>
<ellipse fill="none" stroke="black" cx="1073.57" cy="-576.75" rx="103.48" ry="48.17"/>
<text text-anchor="middle" x="1073.57" y="-595.55" font-family="Times New Roman,serif" font-size="14.00">[104..10f)</text>
<text text-anchor="middle" x="1073.57" y="-580.55" font-family="Times New Roman,serif" font-size="14.00">Count: 0</text>
<text text-anchor="middle" x="1073.57" y="-565.55" font-family="Times New Roman,serif" font-size="14.00">Normalized count: 0.00</text>
<text text-anchor="middle" x="1073.57" y="-550.55" font-family="Times New Roman,serif" font-size="14.00">Samples weight: 0.00</text>
</g>
<!-- BB18&#45;&gt;BB19 -->
<g id="edge27" class="edge">
<title>BB18&#45;&gt;BB19</title>
<path fill="none" stroke="black" d="M985.82,-664.93C997.79,-653.05 1010.87,-640.05 1023.2,-627.8"/>
<polygon fill="black" stroke="black" points="1025.73,-630.22 1030.35,-620.69 1020.79,-625.25 1025.73,-630.22"/>
</g>
<!-- BB29 -->
<g id="node30" class="node">
<title>BB29</title>
<ellipse fill="none" stroke="black" cx="1803.57" cy="-576.75" rx="103.48" ry="48.17"/>
<text text-anchor="middle" x="1803.57" y="-595.55" font-family="Times New Roman,serif" font-size="14.00">[186..195)</text>
<text text-anchor="middle" x="1803.57" y="-580.55" font-family="Times New Roman,serif" font-size="14.00">Count: 2</text>
<text text-anchor="middle" x="1803.57" y="-565.55" font-family="Times New Roman,serif" font-size="14.00">Normalized count: 1.00</text>
<text text-anchor="middle" x="1803.57" y="-550.55" font-family="Times New Roman,serif" font-size="14.00">Samples weight: 0.00</text>
</g>
<!-- BB18&#45;&gt;BB29 -->
<g id="edge26" class="edge">
<title>BB18&#45;&gt;BB29</title>
<path fill="none" stroke="black" d="M1037.93,-690.12C1093.4,-680.29 1164.75,-668.55 1228.57,-660.83 1433.47,-636.05 1490.98,-673.45 1691.57,-624.83 1701.93,-622.32 1712.56,-618.97 1722.95,-615.2"/>
<polygon fill="black" stroke="black" points="1724.29,-618.44 1732.42,-611.64 1721.83,-611.89 1724.29,-618.44"/>
</g>
<!-- BB19&#45;&gt;BB20 -->
<g id="edge28" class="edge">
<title>BB19&#45;&gt;BB20</title>
<path fill="none" stroke="black" d="M1073.57,-625C1073.57,-697.65 1073.57,-836.57 1073.57,-914.88"/>
<polygon fill="black" stroke="black" points="1070.07,-915.05 1073.57,-925.05 1077.07,-915.05 1070.07,-915.05"/>
</g>
<!-- BB25 -->
<g id="node26" class="node">
<title>BB25</title>
<ellipse fill="none" stroke="black" cx="1269.57" cy="-841.08" rx="103.48" ry="48.17"/>
<text text-anchor="middle" x="1269.57" y="-859.88" font-family="Times New Roman,serif" font-size="14.00">[150..15a)</text>
<text text-anchor="middle" x="1269.57" y="-844.88" font-family="Times New Roman,serif" font-size="14.00">Count: 6</text>
<text text-anchor="middle" x="1269.57" y="-829.88" font-family="Times New Roman,serif" font-size="14.00">Normalized count: 3.00</text>
<text text-anchor="middle" x="1269.57" y="-814.88" font-family="Times New Roman,serif" font-size="14.00">Samples weight: 0.01</text>
</g>
<!-- BB20&#45;&gt;BB25 -->
<g id="edge29" class="edge">
<title>BB20&#45;&gt;BB25</title>
<path fill="none" stroke="black" d="M1131.84,-933.55C1154.15,-918.73 1179.77,-901.72 1202.81,-886.41"/>
<polygon fill="black" stroke="black" points="1204.78,-889.31 1211.18,-880.86 1200.91,-883.48 1204.78,-889.31"/>
</g>
<!-- BB21 -->
<g id="node22" class="node">
<title>BB21</title>
<ellipse fill="none" stroke="black" cx="1340.57" cy="-708.92" rx="103.48" ry="48.17"/>
<text text-anchor="middle" x="1340.57" y="-727.72" font-family="Times New Roman,serif" font-size="14.00">[120..130)</text>
<text text-anchor="middle" x="1340.57" y="-712.72" font-family="Times New Roman,serif" font-size="14.00">Count: 4</text>
<text text-anchor="middle" x="1340.57" y="-697.72" font-family="Times New Roman,serif" font-size="14.00">Normalized count: 2.00</text>
<text text-anchor="middle" x="1340.57" y="-682.72" font-family="Times New Roman,serif" font-size="14.00">Samples weight: 0.01</text>
</g>
<!-- BB23 -->
<g id="node24" class="node">
<title>BB23</title>
<ellipse fill="none" stroke="black" cx="1345.57" cy="-576.75" rx="113.27" ry="48.17"/>
<text text-anchor="middle" x="1345.57" y="-595.55" font-family="Times New Roman,serif" font-size="14.00">[144..14a)</text>
<text text-anchor="middle" x="1345.57" y="-580.55" font-family="Times New Roman,serif" font-size="14.00">Count: 203</text>
<text text-anchor="middle" x="1345.57" y="-565.55" font-family="Times New Roman,serif" font-size="14.00">Normalized count: 101.50</text>
<text text-anchor="middle" x="1345.57" y="-550.55" font-family="Times New Roman,serif" font-size="14.00">Samples weight: 0.46</text>
</g>
<!-- BB21&#45;&gt;BB23 -->
<g id="edge30" class="edge">
<title>BB21&#45;&gt;BB23</title>
<path fill="none" stroke="black" d="M1342.39,-660.55C1342.7,-652.29 1343.04,-643.6 1343.36,-635.1"/>
<polygon fill="black" stroke="black" points="1346.87,-634.98 1343.76,-624.86 1339.88,-634.72 1346.87,-634.98"/>
</g>
<!-- BB22 -->
<g id="node23" class="node">
<title>BB22</title>
<ellipse fill="none" stroke="black" cx="1348.57" cy="-444.58" rx="108.38" ry="48.17"/>
<text text-anchor="middle" x="1348.57" y="-463.38" font-family="Times New Roman,serif" font-size="14.00">[130..144)</text>
<text text-anchor="middle" x="1348.57" y="-448.38" font-family="Times New Roman,serif" font-size="14.00">Count: 199</text>
<text text-anchor="middle" x="1348.57" y="-433.38" font-family="Times New Roman,serif" font-size="14.00">Normalized count: 99.50</text>
<text text-anchor="middle" x="1348.57" y="-418.38" font-family="Times New Roman,serif" font-size="14.00">Samples weight: 0.45</text>
</g>
<!-- BB22&#45;&gt;BB23 -->
<g id="edge31" class="edge">
<title>BB22&#45;&gt;BB23</title>
<path fill="none" stroke="black" d="M1354,-492.94C1354.02,-501.33 1353.88,-510.14 1353.58,-518.76"/>
<polygon fill="black" stroke="black" points="1350.09,-518.62 1353.16,-528.76 1357.08,-518.91 1350.09,-518.62"/>
</g>
<!-- BB23&#45;&gt;BB22 -->
<g id="edge32" class="edge">
<title>BB23&#45;&gt;BB22</title>
<path fill="none" stroke="black" d="M1340.14,-528.39C1340.11,-520.12 1340.25,-511.44 1340.54,-502.93"/>
<polygon fill="black" stroke="black" points="1344.04,-502.83 1340.97,-492.69 1337.05,-502.54 1344.04,-502.83"/>
</g>
<!-- BB24 -->
<g id="node25" class="node">
<title>BB24</title>
<ellipse fill="none" stroke="black" cx="1119.57" cy="-444.58" rx="103.48" ry="48.17"/>
<text text-anchor="middle" x="1119.57" y="-463.38" font-family="Times New Roman,serif" font-size="14.00">[14a..150)</text>
<text text-anchor="middle" x="1119.57" y="-448.38" font-family="Times New Roman,serif" font-size="14.00">Count: 4</text>
<text text-anchor="middle" x="1119.57" y="-433.38" font-family="Times New Roman,serif" font-size="14.00">Normalized count: 2.00</text>
<text text-anchor="middle" x="1119.57" y="-418.38" font-family="Times New Roman,serif" font-size="14.00">Samples weight: 0.01</text>
</g>
<!-- BB23&#45;&gt;BB24 -->
<g id="edge33" class="edge">
<title>BB23&#45;&gt;BB24</title>
<path fill="none" stroke="black" d="M1279.29,-537.57C1252.02,-521.87 1220.35,-503.63 1192.43,-487.55"/>
<polygon fill="black" stroke="black" points="1193.92,-484.37 1183.51,-482.41 1190.43,-490.44 1193.92,-484.37"/>
</g>
<!-- BB24&#45;&gt;BB25 -->
<g id="edge34" class="edge">
<title>BB24&#45;&gt;BB25</title>
<path fill="none" stroke="black" d="M1160.54,-489.08C1170.04,-501.14 1179.21,-514.76 1185.57,-528.67 1228.5,-622.59 1195.86,-659.05 1228.57,-757 1231.7,-766.38 1235.69,-776.05 1239.95,-785.33"/>
<polygon fill="black" stroke="black" points="1236.83,-786.92 1244.28,-794.45 1243.16,-783.91 1236.83,-786.92"/>
</g>
<!-- BB25&#45;&gt;BB21 -->
<g id="edge35" class="edge">
<title>BB25&#45;&gt;BB21</title>
<path fill="none" stroke="black" d="M1294.6,-794.19C1299.8,-784.66 1305.32,-774.53 1310.67,-764.72"/>
<polygon fill="black" stroke="black" points="1313.81,-766.29 1315.52,-755.83 1307.66,-762.94 1313.81,-766.29"/>
</g>
<!-- BB26 -->
<g id="node27" class="node">
<title>BB26</title>
<ellipse fill="none" stroke="black" cx="1571.57" cy="-708.92" rx="103.48" ry="48.17"/>
<text text-anchor="middle" x="1571.57" y="-727.72" font-family="Times New Roman,serif" font-size="14.00">[15a..16b)</text>
<text text-anchor="middle" x="1571.57" y="-712.72" font-family="Times New Roman,serif" font-size="14.00">Count: 2</text>
<text text-anchor="middle" x="1571.57" y="-697.72" font-family="Times New Roman,serif" font-size="14.00">Normalized count: 1.00</text>
<text text-anchor="middle" x="1571.57" y="-682.72" font-family="Times New Roman,serif" font-size="14.00">Samples weight: 0.00</text>
</g>
<!-- BB25&#45;&gt;BB26 -->
<g id="edge36" class="edge">
<title>BB25&#45;&gt;BB26</title>
<path fill="none" stroke="black" d="M1344.61,-807.74C1387.91,-789.08 1442.48,-765.56 1487.25,-746.26"/>
<polygon fill="black" stroke="black" points="1488.85,-749.38 1496.65,-742.21 1486.08,-742.95 1488.85,-749.38"/>
</g>
<!-- BB28 -->
<g id="node29" class="node">
<title>BB28</title>
<ellipse fill="none" stroke="black" cx="1579.57" cy="-576.75" rx="103.48" ry="48.17"/>
<text text-anchor="middle" x="1579.57" y="-595.55" font-family="Times New Roman,serif" font-size="14.00">[17c..186)</text>
<text text-anchor="middle" x="1579.57" y="-580.55" font-family="Times New Roman,serif" font-size="14.00">Count: 5</text>
<text text-anchor="middle" x="1579.57" y="-565.55" font-family="Times New Roman,serif" font-size="14.00">Normalized count: 2.50</text>
<text text-anchor="middle" x="1579.57" y="-550.55" font-family="Times New Roman,serif" font-size="14.00">Samples weight: 0.01</text>
</g>
<!-- BB26&#45;&gt;BB28 -->
<g id="edge37" class="edge">
<title>BB26&#45;&gt;BB28</title>
<path fill="none" stroke="black" d="M1574.48,-660.55C1574.99,-652.29 1575.52,-643.6 1576.04,-635.1"/>
<polygon fill="black" stroke="black" points="1579.55,-635.05 1576.67,-624.86 1572.56,-634.62 1579.55,-635.05"/>
</g>
<!-- BB27 -->
<g id="node28" class="node">
<title>BB27</title>
<ellipse fill="none" stroke="black" cx="1579.57" cy="-444.58" rx="103.48" ry="48.17"/>
<text text-anchor="middle" x="1579.57" y="-463.38" font-family="Times New Roman,serif" font-size="14.00">[16b..17c)</text>
<text text-anchor="middle" x="1579.57" y="-448.38" font-family="Times New Roman,serif" font-size="14.00">Count: 3</text>
<text text-anchor="middle" x="1579.57" y="-433.38" font-family="Times New Roman,serif" font-size="14.00">Normalized count: 1.50</text>
<text text-anchor="middle" x="1579.57" y="-418.38" font-family="Times New Roman,serif" font-size="14.00">Samples weight: 0.01</text>
</g>
<!-- BB27&#45;&gt;BB28 -->
<g id="edge38" class="edge">
<title>BB27&#45;&gt;BB28</title>
<path fill="none" stroke="black" d="M1586.09,-492.94C1586.31,-501.24 1586.37,-509.95 1586.27,-518.48"/>
<polygon fill="black" stroke="black" points="1582.77,-518.69 1586.08,-528.76 1589.77,-518.82 1582.77,-518.69"/>
</g>
<!-- BB28&#45;&gt;BB27 -->
<g id="edge39" class="edge">
<title>BB28&#45;&gt;BB27</title>
<path fill="none" stroke="black" d="M1573.05,-528.76C1572.83,-520.38 1572.76,-511.57 1572.86,-502.95"/>
<polygon fill="black" stroke="black" points="1576.36,-503.01 1573.04,-492.94 1569.36,-502.88 1576.36,-503.01"/>
</g>
<!-- BB28&#45;&gt;BB29 -->
<g id="edge40" class="edge">
<title>BB28&#45;&gt;BB29</title>
<path fill="none" stroke="black" d="M1682.82,-576.75C1685.27,-576.75 1687.73,-576.75 1690.18,-576.75"/>
<polygon fill="black" stroke="black" points="1690.27,-580.25 1700.27,-576.75 1690.27,-573.25 1690.27,-580.25"/>
</g>
<!-- BB30 -->
<g id="node31" class="node">
<title>BB30</title>
<ellipse fill="none" stroke="black" cx="1803.57" cy="-444.58" rx="103.48" ry="48.17"/>
<text text-anchor="middle" x="1803.57" y="-463.38" font-family="Times New Roman,serif" font-size="14.00">[195..1c4)</text>
<text text-anchor="middle" x="1803.57" y="-448.38" font-family="Times New Roman,serif" font-size="14.00">Count: 2</text>
<text text-anchor="middle" x="1803.57" y="-433.38" font-family="Times New Roman,serif" font-size="14.00">Normalized count: 1.00</text>
<text text-anchor="middle" x="1803.57" y="-418.38" font-family="Times New Roman,serif" font-size="14.00">Samples weight: 0.00</text>
</g>
<!-- BB29&#45;&gt;BB30 -->
<g id="edge41" class="edge">
<title>BB29&#45;&gt;BB30</title>
<path fill="none" stroke="black" d="M1803.57,-528.39C1803.57,-520.12 1803.57,-511.44 1803.57,-502.93"/>
<polygon fill="black" stroke="black" points="1807.07,-502.69 1803.57,-492.69 1800.07,-502.69 1807.07,-502.69"/>
</g>
<!-- BB30&#45;&gt;BB30 -->
<g id="edge42" class="edge">
<title>BB30&#45;&gt;BB30</title>
<path fill="none" stroke="black" d="M1893.45,-468.39C1911.72,-465.8 1924.8,-457.86 1924.8,-444.58 1924.8,-433.9 1916.33,-426.67 1903.5,-422.91"/>
<polygon fill="black" stroke="black" points="1903.96,-419.43 1893.45,-420.78 1902.51,-426.27 1903.96,-419.43"/>
</g>
<!-- BB31 -->
<g id="node32" class="node">
<title>BB31</title>
<ellipse fill="none" stroke="black" cx="1803.57" cy="-312.42" rx="103.48" ry="48.17"/>
<text text-anchor="middle" x="1803.57" y="-331.22" font-family="Times New Roman,serif" font-size="14.00">[1c4..1cc)</text>
<text text-anchor="middle" x="1803.57" y="-316.22" font-family="Times New Roman,serif" font-size="14.00">Count: 2</text>
<text text-anchor="middle" x="1803.57" y="-301.22" font-family="Times New Roman,serif" font-size="14.00">Normalized count: 1.00</text>
<text text-anchor="middle" x="1803.57" y="-286.22" font-family="Times New Roman,serif" font-size="14.00">Samples weight: 0.00</text>
</g>
<!-- BB30&#45;&gt;BB31 -->
<g id="edge43" class="edge">
<title>BB30&#45;&gt;BB31</title>
<path fill="none" stroke="black" d="M1803.57,-396.22C1803.57,-387.95 1803.57,-379.27 1803.57,-370.77"/>
<polygon fill="black" stroke="black" points="1807.07,-370.52 1803.57,-360.52 1800.07,-370.52 1807.07,-370.52"/>
</g>
<!-- BB32 -->
<g id="node33" class="node">
<title>BB32</title>
<ellipse fill="none" stroke="black" cx="1691.57" cy="-180.25" rx="103.48" ry="48.17"/>
<text text-anchor="middle" x="1691.57" y="-199.05" font-family="Times New Roman,serif" font-size="14.00">[1cc..1d3)</text>
<text text-anchor="middle" x="1691.57" y="-184.05" font-family="Times New Roman,serif" font-size="14.00">Count: 0</text>
<text text-anchor="middle" x="1691.57" y="-169.05" font-family="Times New Roman,serif" font-size="14.00">Normalized count: 0.00</text>
<text text-anchor="middle" x="1691.57" y="-154.05" font-family="Times New Roman,serif" font-size="14.00">Samples weight: 0.00</text>
</g>
<!-- BB31&#45;&gt;BB32 -->
<g id="edge45" class="edge">
<title>BB31&#45;&gt;BB32</title>
<path fill="none" stroke="black" d="M1765.65,-267.35C1756.16,-256.32 1745.9,-244.39 1736.12,-233.03"/>
<polygon fill="black" stroke="black" points="1738.62,-230.57 1729.45,-225.27 1733.32,-235.14 1738.62,-230.57"/>
</g>
<!-- BB33 -->
<g id="node34" class="node">
<title>BB33</title>
<ellipse fill="none" stroke="black" cx="1915.57" cy="-180.25" rx="103.48" ry="48.17"/>
<text text-anchor="middle" x="1915.57" y="-199.05" font-family="Times New Roman,serif" font-size="14.00">[1d3..1de)</text>
<text text-anchor="middle" x="1915.57" y="-184.05" font-family="Times New Roman,serif" font-size="14.00">Count: 2</text>
<text text-anchor="middle" x="1915.57" y="-169.05" font-family="Times New Roman,serif" font-size="14.00">Normalized count: 1.00</text>
<text text-anchor="middle" x="1915.57" y="-154.05" font-family="Times New Roman,serif" font-size="14.00">Samples weight: 0.00</text>
</g>
<!-- BB31&#45;&gt;BB33 -->
<g id="edge44" class="edge">
<title>BB31&#45;&gt;BB33</title>
<path fill="none" stroke="black" d="M1841.48,-267.35C1850.97,-256.32 1861.24,-244.39 1871.01,-233.03"/>
<polygon fill="black" stroke="black" points="1873.82,-235.14 1877.69,-225.27 1868.51,-230.57 1873.82,-235.14"/>
</g>
<!-- BB32&#45;&gt;BB33 -->
<g id="edge46" class="edge">
<title>BB32&#45;&gt;BB33</title>
<path fill="none" stroke="black" d="M1794.82,-180.25C1797.27,-180.25 1799.73,-180.25 1802.18,-180.25"/>
<polygon fill="black" stroke="black" points="1802.27,-183.75 1812.27,-180.25 1802.27,-176.75 1802.27,-183.75"/>
</g>
</g>
</svg>
