<?xml version="1.0" encoding="UTF-8" standalone="no"?>
<!DOCTYPE svg PUBLIC "-//W3C//DTD SVG 1.1//EN"
 "http://www.w3.org/Graphics/SVG/1.1/DTD/svg11.dtd">
<!-- Generated by graphviz version 2.47.0 (20210316.0004)
 -->
<!-- Title: G Pages: 1 -->
<svg width="1286pt" height="749pt"
 viewBox="0.00 0.00 1285.74 748.67" xmlns="http://www.w3.org/2000/svg" xmlns:xlink="http://www.w3.org/1999/xlink">
<g id="graph0" class="graph" transform="scale(1 1) rotate(0) translate(4 744.67)">
<title>G</title>
<polygon fill="white" stroke="transparent" points="-4,4 -4,-744.67 1281.74,-744.67 1281.74,4 -4,4"/>
<!-- BB0 -->
<g id="node1" class="node">
<title>BB0</title>
<ellipse fill="none" stroke="black" cx="785.97" cy="-703.2" rx="106.55" ry="37.45"/>
<text text-anchor="middle" x="785.97" y="-714.5" font-family="Times New Roman,serif" font-size="14.00">[0..5)</text>
<text text-anchor="middle" x="785.97" y="-699.5" font-family="Times New Roman,serif" font-size="14.00">Normalized Count: NaN</text>
<text text-anchor="middle" x="785.97" y="-684.5" font-family="Times New Roman,serif" font-size="14.00">Samples weight: 0.00</text>
</g>
<!-- BB11 -->
<g id="node12" class="node">
<title>BB11</title>
<ellipse fill="none" stroke="black" cx="785.97" cy="-592.24" rx="106.55" ry="37.45"/>
<text text-anchor="middle" x="785.97" y="-603.54" font-family="Times New Roman,serif" font-size="14.00">[58..5e)</text>
<text text-anchor="middle" x="785.97" y="-588.54" font-family="Times New Roman,serif" font-size="14.00">Normalized Count: NaN</text>
<text text-anchor="middle" x="785.97" y="-573.54" font-family="Times New Roman,serif" font-size="14.00">Samples weight: 0.00</text>
</g>
<!-- BB0&#45;&gt;BB11 -->
<g id="edge1" class="edge">
<title>BB0&#45;&gt;BB11</title>
<path fill="none" stroke="black" d="M785.97,-665.61C785.97,-657.44 785.97,-648.66 785.97,-640.13"/>
<polygon fill="black" stroke="black" points="789.47,-639.92 785.97,-629.92 782.47,-639.92 789.47,-639.92"/>
</g>
<!-- BB1 -->
<g id="node2" class="node">
<title>BB1</title>
<ellipse fill="none" stroke="black" cx="650.97" cy="-481.29" rx="106.55" ry="37.45"/>
<text text-anchor="middle" x="650.97" y="-492.59" font-family="Times New Roman,serif" font-size="14.00">[5..14)</text>
<text text-anchor="middle" x="650.97" y="-477.59" font-family="Times New Roman,serif" font-size="14.00">Normalized Count: NaN</text>
<text text-anchor="middle" x="650.97" y="-462.59" font-family="Times New Roman,serif" font-size="14.00">Samples weight: 0.00</text>
</g>
<!-- BB6 -->
<g id="node7" class="node">
<title>BB6</title>
<ellipse fill="none" stroke="black" cx="424.97" cy="-370.34" rx="106.55" ry="37.45"/>
<text text-anchor="middle" x="424.97" y="-381.64" font-family="Times New Roman,serif" font-size="14.00">[33..39)</text>
<text text-anchor="middle" x="424.97" y="-366.64" font-family="Times New Roman,serif" font-size="14.00">Normalized Count: NaN</text>
<text text-anchor="middle" x="424.97" y="-351.64" font-family="Times New Roman,serif" font-size="14.00">Samples weight: 0.00</text>
</g>
<!-- BB1&#45;&gt;BB6 -->
<g id="edge2" class="edge">
<title>BB1&#45;&gt;BB6</title>
<path fill="none" stroke="black" d="M589.21,-450.52C560.31,-436.59 525.74,-419.92 495.78,-405.48"/>
<polygon fill="black" stroke="black" points="497.17,-402.26 486.65,-401.07 494.13,-408.57 497.17,-402.26"/>
</g>
<!-- BB2 -->
<g id="node3" class="node">
<title>BB2</title>
<ellipse fill="none" stroke="black" cx="214.97" cy="-259.38" rx="115.93" ry="37.45"/>
<text text-anchor="middle" x="214.97" y="-270.68" font-family="Times New Roman,serif" font-size="14.00">[14..18)</text>
<text text-anchor="middle" x="214.97" y="-255.68" font-family="Times New Roman,serif" font-size="14.00">Normalized Count: Infinity</text>
<text text-anchor="middle" x="214.97" y="-240.68" font-family="Times New Roman,serif" font-size="14.00">Samples weight: 0.03</text>
</g>
<!-- BB4 -->
<g id="node5" class="node">
<title>BB4</title>
<ellipse fill="none" stroke="black" cx="190.97" cy="-148.43" rx="115.93" ry="37.45"/>
<text text-anchor="middle" x="190.97" y="-159.73" font-family="Times New Roman,serif" font-size="14.00">[28..2d)</text>
<text text-anchor="middle" x="190.97" y="-144.73" font-family="Times New Roman,serif" font-size="14.00">Normalized Count: Infinity</text>
<text text-anchor="middle" x="190.97" y="-129.73" font-family="Times New Roman,serif" font-size="14.00">Samples weight: 0.06</text>
</g>
<!-- BB2&#45;&gt;BB4 -->
<g id="edge3" class="edge">
<title>BB2&#45;&gt;BB4</title>
<path fill="none" stroke="black" d="M206.91,-221.8C205.09,-213.54 203.13,-204.65 201.23,-196.04"/>
<polygon fill="black" stroke="black" points="204.61,-195.11 199.04,-186.1 197.78,-196.62 204.61,-195.11"/>
</g>
<!-- BB3 -->
<g id="node4" class="node">
<title>BB3</title>
<ellipse fill="none" stroke="black" cx="115.97" cy="-37.48" rx="115.93" ry="37.45"/>
<text text-anchor="middle" x="115.97" y="-48.78" font-family="Times New Roman,serif" font-size="14.00">[18..28)</text>
<text text-anchor="middle" x="115.97" y="-33.78" font-family="Times New Roman,serif" font-size="14.00">Normalized Count: Infinity</text>
<text text-anchor="middle" x="115.97" y="-18.78" font-family="Times New Roman,serif" font-size="14.00">Samples weight: 0.89</text>
</g>
<!-- BB3&#45;&gt;BB4 -->
<g id="edge4" class="edge">
<title>BB3&#45;&gt;BB4</title>
<path fill="none" stroke="black" d="M146.69,-73.86C153.36,-83 160.32,-92.96 166.71,-102.52"/>
<polygon fill="black" stroke="black" points="163.97,-104.73 172.4,-111.15 169.81,-100.87 163.97,-104.73"/>
</g>
<!-- BB4&#45;&gt;BB3 -->
<g id="edge5" class="edge">
<title>BB4&#45;&gt;BB3</title>
<path fill="none" stroke="black" d="M160.25,-112.06C153.58,-102.92 146.63,-92.97 140.24,-83.42"/>
<polygon fill="black" stroke="black" points="142.99,-81.22 134.56,-74.79 137.14,-85.07 142.99,-81.22"/>
</g>
<!-- BB5 -->
<g id="node6" class="node">
<title>BB5</title>
<ellipse fill="none" stroke="black" cx="356.97" cy="-37.48" rx="106.55" ry="37.45"/>
<text text-anchor="middle" x="356.97" y="-48.78" font-family="Times New Roman,serif" font-size="14.00">[2d..33)</text>
<text text-anchor="middle" x="356.97" y="-33.78" font-family="Times New Roman,serif" font-size="14.00">Normalized Count: NaN</text>
<text text-anchor="middle" x="356.97" y="-18.78" font-family="Times New Roman,serif" font-size="14.00">Samples weight: 0.00</text>
</g>
<!-- BB4&#45;&gt;BB5 -->
<g id="edge6" class="edge">
<title>BB4&#45;&gt;BB5</title>
<path fill="none" stroke="black" d="M241.22,-114.44C259.51,-102.44 280.32,-88.78 299.21,-76.38"/>
<polygon fill="black" stroke="black" points="301.3,-79.2 307.74,-70.79 297.46,-73.35 301.3,-79.2"/>
</g>
<!-- BB5&#45;&gt;BB6 -->
<g id="edge7" class="edge">
<title>BB5&#45;&gt;BB6</title>
<path fill="none" stroke="black" d="M364.48,-75.06C376.9,-135.45 401.66,-255.92 415.33,-322.47"/>
<polygon fill="black" stroke="black" points="411.99,-323.57 417.43,-332.66 418.84,-322.16 411.99,-323.57"/>
</g>
<!-- BB6&#45;&gt;BB2 -->
<g id="edge8" class="edge">
<title>BB6&#45;&gt;BB2</title>
<path fill="none" stroke="black" d="M366.19,-338.84C340.79,-325.66 310.88,-310.15 284.4,-296.41"/>
<polygon fill="black" stroke="black" points="285.68,-293.13 275.19,-291.63 282.45,-299.34 285.68,-293.13"/>
</g>
<!-- BB7 -->
<g id="node8" class="node">
<title>BB7</title>
<ellipse fill="none" stroke="black" cx="544.97" cy="-259.38" rx="106.55" ry="37.45"/>
<text text-anchor="middle" x="544.97" y="-270.68" font-family="Times New Roman,serif" font-size="14.00">[39..3e)</text>
<text text-anchor="middle" x="544.97" y="-255.68" font-family="Times New Roman,serif" font-size="14.00">Normalized Count: NaN</text>
<text text-anchor="middle" x="544.97" y="-240.68" font-family="Times New Roman,serif" font-size="14.00">Samples weight: 0.00</text>
</g>
<!-- BB6&#45;&gt;BB7 -->
<g id="edge9" class="edge">
<title>BB6&#45;&gt;BB7</title>
<path fill="none" stroke="black" d="M462.61,-335.16C474.33,-324.52 487.39,-312.66 499.58,-301.59"/>
<polygon fill="black" stroke="black" points="502,-304.12 507.05,-294.81 497.29,-298.94 502,-304.12"/>
</g>
<!-- BB9 -->
<g id="node10" class="node">
<title>BB9</title>
<ellipse fill="none" stroke="black" cx="597.97" cy="-148.43" rx="106.55" ry="37.45"/>
<text text-anchor="middle" x="597.97" y="-159.73" font-family="Times New Roman,serif" font-size="14.00">[4c..52)</text>
<text text-anchor="middle" x="597.97" y="-144.73" font-family="Times New Roman,serif" font-size="14.00">Normalized Count: NaN</text>
<text text-anchor="middle" x="597.97" y="-129.73" font-family="Times New Roman,serif" font-size="14.00">Samples weight: 0.00</text>
</g>
<!-- BB7&#45;&gt;BB9 -->
<g id="edge10" class="edge">
<title>BB7&#45;&gt;BB9</title>
<path fill="none" stroke="black" d="M562.47,-222.41C566.76,-213.57 571.42,-204 575.9,-194.79"/>
<polygon fill="black" stroke="black" points="579.07,-196.27 580.3,-185.74 572.78,-193.2 579.07,-196.27"/>
</g>
<!-- BB8 -->
<g id="node9" class="node">
<title>BB8</title>
<ellipse fill="none" stroke="black" cx="597.97" cy="-37.48" rx="115.93" ry="37.45"/>
<text text-anchor="middle" x="597.97" y="-48.78" font-family="Times New Roman,serif" font-size="14.00">[3e..4c)</text>
<text text-anchor="middle" x="597.97" y="-33.78" font-family="Times New Roman,serif" font-size="14.00">Normalized Count: Infinity</text>
<text text-anchor="middle" x="597.97" y="-18.78" font-family="Times New Roman,serif" font-size="14.00">Samples weight: 0.01</text>
</g>
<!-- BB8&#45;&gt;BB9 -->
<g id="edge11" class="edge">
<title>BB8&#45;&gt;BB9</title>
<path fill="none" stroke="black" d="M604.38,-75.15C604.7,-83.33 604.79,-92.11 604.66,-100.63"/>
<polygon fill="black" stroke="black" points="601.15,-100.76 604.38,-110.85 608.15,-100.94 601.15,-100.76"/>
</g>
<!-- BB9&#45;&gt;BB8 -->
<g id="edge12" class="edge">
<title>BB9&#45;&gt;BB8</title>
<path fill="none" stroke="black" d="M591.55,-110.85C591.23,-102.67 591.14,-93.89 591.27,-85.37"/>
<polygon fill="black" stroke="black" points="594.78,-85.24 591.55,-75.15 587.78,-85.05 594.78,-85.24"/>
</g>
<!-- BB10 -->
<g id="node11" class="node">
<title>BB10</title>
<ellipse fill="none" stroke="black" cx="838.97" cy="-37.48" rx="106.55" ry="37.45"/>
<text text-anchor="middle" x="838.97" y="-48.78" font-family="Times New Roman,serif" font-size="14.00">[52..58)</text>
<text text-anchor="middle" x="838.97" y="-33.78" font-family="Times New Roman,serif" font-size="14.00">Normalized Count: NaN</text>
<text text-anchor="middle" x="838.97" y="-18.78" font-family="Times New Roman,serif" font-size="14.00">Samples weight: 0.00</text>
</g>
<!-- BB9&#45;&gt;BB10 -->
<g id="edge13" class="edge">
<title>BB9&#45;&gt;BB10</title>
<path fill="none" stroke="black" d="M662.23,-118.38C693.97,-104.03 732.41,-86.65 765.33,-71.77"/>
<polygon fill="black" stroke="black" points="766.79,-74.95 774.46,-67.64 763.91,-68.57 766.79,-74.95"/>
</g>
<!-- BB10&#45;&gt;BB11 -->
<g id="edge14" class="edge">
<title>BB10&#45;&gt;BB11</title>
<path fill="none" stroke="black" d="M824.62,-74.79C808.93,-117.88 785.97,-192.21 785.97,-258.38 785.97,-371.34 785.97,-371.34 785.97,-371.34 785.97,-431.07 785.97,-499.93 785.97,-544.45"/>
<polygon fill="black" stroke="black" points="782.47,-544.67 785.97,-554.67 789.47,-544.67 782.47,-544.67"/>
</g>
<!-- BB11&#45;&gt;BB1 -->
<g id="edge15" class="edge">
<title>BB11&#45;&gt;BB1</title>
<path fill="none" stroke="black" d="M744.36,-557.66C730.5,-546.48 714.93,-533.91 700.53,-522.29"/>
<polygon fill="black" stroke="black" points="702.65,-519.5 692.67,-515.95 698.25,-524.95 702.65,-519.5"/>
</g>
<!-- BB12 -->
<g id="node13" class="node">
<title>BB12</title>
<ellipse fill="none" stroke="black" cx="924.97" cy="-481.29" rx="106.55" ry="37.45"/>
<text text-anchor="middle" x="924.97" y="-492.59" font-family="Times New Roman,serif" font-size="14.00">[5e..69)</text>
<text text-anchor="middle" x="924.97" y="-477.59" font-family="Times New Roman,serif" font-size="14.00">Normalized Count: NaN</text>
<text text-anchor="middle" x="924.97" y="-462.59" font-family="Times New Roman,serif" font-size="14.00">Samples weight: 0.00</text>
</g>
<!-- BB11&#45;&gt;BB12 -->
<g id="edge16" class="edge">
<title>BB11&#45;&gt;BB12</title>
<path fill="none" stroke="black" d="M828.8,-557.66C843.07,-546.48 859.11,-533.91 873.94,-522.29"/>
<polygon fill="black" stroke="black" points="876.32,-524.87 882.03,-515.95 872,-519.36 876.32,-524.87"/>
</g>
<!-- BB14 -->
<g id="node15" class="node">
<title>BB14</title>
<ellipse fill="none" stroke="black" cx="929.97" cy="-370.34" rx="106.55" ry="37.45"/>
<text text-anchor="middle" x="929.97" y="-381.64" font-family="Times New Roman,serif" font-size="14.00">[83..89)</text>
<text text-anchor="middle" x="929.97" y="-366.64" font-family="Times New Roman,serif" font-size="14.00">Normalized Count: NaN</text>
<text text-anchor="middle" x="929.97" y="-351.64" font-family="Times New Roman,serif" font-size="14.00">Samples weight: 0.00</text>
</g>
<!-- BB12&#45;&gt;BB14 -->
<g id="edge17" class="edge">
<title>BB12&#45;&gt;BB14</title>
<path fill="none" stroke="black" d="M926.64,-443.71C927.02,-435.53 927.42,-426.75 927.81,-418.23"/>
<polygon fill="black" stroke="black" points="931.32,-418.16 928.28,-408.01 924.33,-417.84 931.32,-418.16"/>
</g>
<!-- BB13 -->
<g id="node14" class="node">
<title>BB13</title>
<ellipse fill="none" stroke="black" cx="929.97" cy="-259.38" rx="115.93" ry="37.45"/>
<text text-anchor="middle" x="929.97" y="-270.68" font-family="Times New Roman,serif" font-size="14.00">[69..83)</text>
<text text-anchor="middle" x="929.97" y="-255.68" font-family="Times New Roman,serif" font-size="14.00">Normalized Count: Infinity</text>
<text text-anchor="middle" x="929.97" y="-240.68" font-family="Times New Roman,serif" font-size="14.00">Samples weight: 0.01</text>
</g>
<!-- BB13&#45;&gt;BB14 -->
<g id="edge18" class="edge">
<title>BB13&#45;&gt;BB14</title>
<path fill="none" stroke="black" d="M936.38,-297.06C936.7,-305.23 936.79,-314.02 936.66,-322.54"/>
<polygon fill="black" stroke="black" points="933.15,-322.66 936.38,-332.75 940.15,-322.85 933.15,-322.66"/>
</g>
<!-- BB14&#45;&gt;BB13 -->
<g id="edge19" class="edge">
<title>BB14&#45;&gt;BB13</title>
<path fill="none" stroke="black" d="M923.55,-332.75C923.23,-324.58 923.14,-315.8 923.27,-307.27"/>
<polygon fill="black" stroke="black" points="926.78,-307.15 923.55,-297.06 919.78,-306.96 926.78,-307.15"/>
</g>
<!-- BB15 -->
<g id="node16" class="node">
<title>BB15</title>
<ellipse fill="none" stroke="black" cx="1170.97" cy="-259.38" rx="106.55" ry="37.45"/>
<text text-anchor="middle" x="1170.97" y="-270.68" font-family="Times New Roman,serif" font-size="14.00">[89..90)</text>
<text text-anchor="middle" x="1170.97" y="-255.68" font-family="Times New Roman,serif" font-size="14.00">Normalized Count: NaN</text>
<text text-anchor="middle" x="1170.97" y="-240.68" font-family="Times New Roman,serif" font-size="14.00">Samples weight: 0.00</text>
</g>
<!-- BB14&#45;&gt;BB15 -->
<g id="edge20" class="edge">
<title>BB14&#45;&gt;BB15</title>
<path fill="none" stroke="black" d="M994.23,-340.28C1025.97,-325.93 1064.41,-308.55 1097.33,-293.67"/>
<polygon fill="black" stroke="black" points="1098.79,-296.85 1106.46,-289.55 1095.91,-290.48 1098.79,-296.85"/>
</g>
</g>
</svg>
