<?xml version="1.0" encoding="UTF-8" standalone="no"?>
<!DOCTYPE svg PUBLIC "-//W3C//DTD SVG 1.1//EN"
 "http://www.w3.org/Graphics/SVG/1.1/DTD/svg11.dtd">
<!-- Generated by graphviz version 2.47.0 (20210316.0004)
 -->
<!-- Title: G Pages: 1 -->
<svg width="1458pt" height="1294pt"
 viewBox="0.00 0.00 1458.27 1293.67" xmlns="http://www.w3.org/2000/svg" xmlns:xlink="http://www.w3.org/1999/xlink">
<g id="graph0" class="graph" transform="scale(1 1) rotate(0) translate(4 1289.67)">
<title>G</title>
<polygon fill="white" stroke="transparent" points="-4,4 -4,-1289.67 1454.27,-1289.67 1454.27,4 -4,4"/>
<!-- BB0 -->
<g id="node1" class="node">
<title>BB0</title>
<ellipse fill="none" stroke="black" cx="263.14" cy="-1237.58" rx="103.48" ry="48.17"/>
<text text-anchor="middle" x="263.14" y="-1256.38" font-family="Times New Roman,serif" font-size="14.00">[0..c)</text>
<text text-anchor="middle" x="263.14" y="-1241.38" font-family="Times New Roman,serif" font-size="14.00">Count: 10</text>
<text text-anchor="middle" x="263.14" y="-1226.38" font-family="Times New Roman,serif" font-size="14.00">Normalized count: 1.00</text>
<text text-anchor="middle" x="263.14" y="-1211.38" font-family="Times New Roman,serif" font-size="14.00">Samples weight: 0.00</text>
</g>
<!-- BB8 -->
<g id="node9" class="node">
<title>BB8</title>
<ellipse fill="none" stroke="black" cx="263.14" cy="-1105.42" rx="113.27" ry="48.17"/>
<text text-anchor="middle" x="263.14" y="-1124.22" font-family="Times New Roman,serif" font-size="14.00">[4f..53)</text>
<text text-anchor="middle" x="263.14" y="-1109.22" font-family="Times New Roman,serif" font-size="14.00">Count: 1020</text>
<text text-anchor="middle" x="263.14" y="-1094.22" font-family="Times New Roman,serif" font-size="14.00">Normalized count: 102.00</text>
<text text-anchor="middle" x="263.14" y="-1079.22" font-family="Times New Roman,serif" font-size="14.00">Samples weight: 0.00</text>
</g>
<!-- BB0&#45;&gt;BB8 -->
<g id="edge1" class="edge">
<title>BB0&#45;&gt;BB8</title>
<path fill="none" stroke="black" d="M263.14,-1189.22C263.14,-1180.95 263.14,-1172.27 263.14,-1163.77"/>
<polygon fill="black" stroke="black" points="266.64,-1163.52 263.14,-1153.52 259.64,-1163.52 266.64,-1163.52"/>
</g>
<!-- BB1 -->
<g id="node2" class="node">
<title>BB1</title>
<ellipse fill="none" stroke="black" cx="263.14" cy="-973.25" rx="113.27" ry="48.17"/>
<text text-anchor="middle" x="263.14" y="-992.05" font-family="Times New Roman,serif" font-size="14.00">[c..1d)</text>
<text text-anchor="middle" x="263.14" y="-977.05" font-family="Times New Roman,serif" font-size="14.00">Count: 1010</text>
<text text-anchor="middle" x="263.14" y="-962.05" font-family="Times New Roman,serif" font-size="14.00">Normalized count: 101.00</text>
<text text-anchor="middle" x="263.14" y="-947.05" font-family="Times New Roman,serif" font-size="14.00">Samples weight: 0.00</text>
</g>
<!-- BB6 -->
<g id="node7" class="node">
<title>BB6</title>
<ellipse fill="none" stroke="black" cx="263.14" cy="-841.08" rx="122.16" ry="48.17"/>
<text text-anchor="middle" x="263.14" y="-859.88" font-family="Times New Roman,serif" font-size="14.00">[47..4b)</text>
<text text-anchor="middle" x="263.14" y="-844.88" font-family="Times New Roman,serif" font-size="14.00">Count: 103020</text>
<text text-anchor="middle" x="263.14" y="-829.88" font-family="Times New Roman,serif" font-size="14.00">Normalized count: 10302.00</text>
<text text-anchor="middle" x="263.14" y="-814.88" font-family="Times New Roman,serif" font-size="14.00">Samples weight: 0.05</text>
</g>
<!-- BB1&#45;&gt;BB6 -->
<g id="edge2" class="edge">
<title>BB1&#45;&gt;BB6</title>
<path fill="none" stroke="black" d="M263.14,-924.89C263.14,-916.62 263.14,-907.94 263.14,-899.43"/>
<polygon fill="black" stroke="black" points="266.64,-899.19 263.14,-889.19 259.64,-899.19 266.64,-899.19"/>
</g>
<!-- BB2 -->
<g id="node3" class="node">
<title>BB2</title>
<ellipse fill="none" stroke="black" cx="404.14" cy="-708.92" rx="122.16" ry="48.17"/>
<text text-anchor="middle" x="404.14" y="-727.72" font-family="Times New Roman,serif" font-size="14.00">[1d..21)</text>
<text text-anchor="middle" x="404.14" y="-712.72" font-family="Times New Roman,serif" font-size="14.00">Count: 102010</text>
<text text-anchor="middle" x="404.14" y="-697.72" font-family="Times New Roman,serif" font-size="14.00">Normalized count: 10201.00</text>
<text text-anchor="middle" x="404.14" y="-682.72" font-family="Times New Roman,serif" font-size="14.00">Samples weight: 0.05</text>
</g>
<!-- BB3 -->
<g id="node4" class="node">
<title>BB3</title>
<ellipse fill="none" stroke="black" cx="395.14" cy="-576.75" rx="113.27" ry="48.17"/>
<text text-anchor="middle" x="395.14" y="-595.55" font-family="Times New Roman,serif" font-size="14.00">[21..35)</text>
<text text-anchor="middle" x="395.14" y="-580.55" font-family="Times New Roman,serif" font-size="14.00">Count: 1010</text>
<text text-anchor="middle" x="395.14" y="-565.55" font-family="Times New Roman,serif" font-size="14.00">Normalized count: 101.00</text>
<text text-anchor="middle" x="395.14" y="-550.55" font-family="Times New Roman,serif" font-size="14.00">Samples weight: 0.00</text>
</g>
<!-- BB2&#45;&gt;BB3 -->
<g id="edge4" class="edge">
<title>BB2&#45;&gt;BB3</title>
<path fill="none" stroke="black" d="M400.86,-660.55C400.29,-652.29 399.69,-643.6 399.1,-635.1"/>
<polygon fill="black" stroke="black" points="402.58,-634.59 398.39,-624.86 395.59,-635.08 402.58,-634.59"/>
</g>
<!-- BB4 -->
<g id="node5" class="node">
<title>BB4</title>
<ellipse fill="none" stroke="black" cx="648.14" cy="-576.75" rx="122.16" ry="48.17"/>
<text text-anchor="middle" x="648.14" y="-595.55" font-family="Times New Roman,serif" font-size="14.00">[35..43)</text>
<text text-anchor="middle" x="648.14" y="-580.55" font-family="Times New Roman,serif" font-size="14.00">Count: 101000</text>
<text text-anchor="middle" x="648.14" y="-565.55" font-family="Times New Roman,serif" font-size="14.00">Normalized count: 10100.00</text>
<text text-anchor="middle" x="648.14" y="-550.55" font-family="Times New Roman,serif" font-size="14.00">Samples weight: 0.05</text>
</g>
<!-- BB2&#45;&gt;BB4 -->
<g id="edge3" class="edge">
<title>BB2&#45;&gt;BB4</title>
<path fill="none" stroke="black" d="M475.7,-669.74C504.5,-654.38 537.85,-636.58 567.5,-620.76"/>
<polygon fill="black" stroke="black" points="569.4,-623.72 576.58,-615.92 566.11,-617.54 569.4,-623.72"/>
</g>
<!-- BB5 -->
<g id="node6" class="node">
<title>BB5</title>
<ellipse fill="none" stroke="black" cx="395.14" cy="-444.58" rx="122.16" ry="48.17"/>
<text text-anchor="middle" x="395.14" y="-463.38" font-family="Times New Roman,serif" font-size="14.00">[43..47)</text>
<text text-anchor="middle" x="395.14" y="-448.38" font-family="Times New Roman,serif" font-size="14.00">Count: 102010</text>
<text text-anchor="middle" x="395.14" y="-433.38" font-family="Times New Roman,serif" font-size="14.00">Normalized count: 10201.00</text>
<text text-anchor="middle" x="395.14" y="-418.38" font-family="Times New Roman,serif" font-size="14.00">Samples weight: 0.05</text>
</g>
<!-- BB3&#45;&gt;BB5 -->
<g id="edge5" class="edge">
<title>BB3&#45;&gt;BB5</title>
<path fill="none" stroke="black" d="M395.14,-528.39C395.14,-520.12 395.14,-511.44 395.14,-502.93"/>
<polygon fill="black" stroke="black" points="398.64,-502.69 395.14,-492.69 391.64,-502.69 398.64,-502.69"/>
</g>
<!-- BB4&#45;&gt;BB5 -->
<g id="edge6" class="edge">
<title>BB4&#45;&gt;BB5</title>
<path fill="none" stroke="black" d="M574.96,-538.1C544.54,-522.45 509.09,-504.21 477.74,-488.08"/>
<polygon fill="black" stroke="black" points="479.08,-484.84 468.59,-483.37 475.88,-491.06 479.08,-484.84"/>
</g>
<!-- BB5&#45;&gt;BB6 -->
<g id="edge7" class="edge">
<title>BB5&#45;&gt;BB6</title>
<path fill="none" stroke="black" d="M317.96,-482.15C300.2,-494.37 283.5,-509.8 273.14,-528.67 229.43,-608.2 238.71,-717.24 250.31,-782.95"/>
<polygon fill="black" stroke="black" points="246.93,-783.92 252.18,-793.12 253.81,-782.65 246.93,-783.92"/>
</g>
<!-- BB6&#45;&gt;BB2 -->
<g id="edge8" class="edge">
<title>BB6&#45;&gt;BB2</title>
<path fill="none" stroke="black" d="M310.48,-796.38C322.92,-784.89 336.44,-772.41 349.24,-760.59"/>
<polygon fill="black" stroke="black" points="351.71,-763.08 356.68,-753.73 346.96,-757.94 351.71,-763.08"/>
</g>
<!-- BB7 -->
<g id="node8" class="node">
<title>BB7</title>
<ellipse fill="none" stroke="black" cx="113.14" cy="-708.92" rx="113.27" ry="48.17"/>
<text text-anchor="middle" x="113.14" y="-727.72" font-family="Times New Roman,serif" font-size="14.00">[4b..4f)</text>
<text text-anchor="middle" x="113.14" y="-712.72" font-family="Times New Roman,serif" font-size="14.00">Count: 1010</text>
<text text-anchor="middle" x="113.14" y="-697.72" font-family="Times New Roman,serif" font-size="14.00">Normalized count: 101.00</text>
<text text-anchor="middle" x="113.14" y="-682.72" font-family="Times New Roman,serif" font-size="14.00">Samples weight: 0.00</text>
</g>
<!-- BB6&#45;&gt;BB7 -->
<g id="edge9" class="edge">
<title>BB6&#45;&gt;BB7</title>
<path fill="none" stroke="black" d="M213.61,-797.1C199.64,-784.98 184.33,-771.7 169.97,-759.24"/>
<polygon fill="black" stroke="black" points="171.95,-756.32 162.11,-752.41 167.36,-761.61 171.95,-756.32"/>
</g>
<!-- BB7&#45;&gt;BB8 -->
<g id="edge10" class="edge">
<title>BB7&#45;&gt;BB8</title>
<path fill="none" stroke="black" d="M105.58,-756.92C97.71,-821.34 92.46,-938.5 141.14,-1021.33 150.81,-1037.79 165.19,-1051.71 180.71,-1063.17"/>
<polygon fill="black" stroke="black" points="178.72,-1066.05 188.92,-1068.94 182.75,-1060.33 178.72,-1066.05"/>
</g>
<!-- BB8&#45;&gt;BB1 -->
<g id="edge11" class="edge">
<title>BB8&#45;&gt;BB1</title>
<path fill="none" stroke="black" d="M263.14,-1057.05C263.14,-1048.79 263.14,-1040.1 263.14,-1031.6"/>
<polygon fill="black" stroke="black" points="266.64,-1031.36 263.14,-1021.36 259.64,-1031.36 266.64,-1031.36"/>
</g>
<!-- BB9 -->
<g id="node10" class="node">
<title>BB9</title>
<ellipse fill="none" stroke="black" cx="663.14" cy="-973.25" rx="103.48" ry="48.17"/>
<text text-anchor="middle" x="663.14" y="-992.05" font-family="Times New Roman,serif" font-size="14.00">[53..57)</text>
<text text-anchor="middle" x="663.14" y="-977.05" font-family="Times New Roman,serif" font-size="14.00">Count: 10</text>
<text text-anchor="middle" x="663.14" y="-962.05" font-family="Times New Roman,serif" font-size="14.00">Normalized count: 1.00</text>
<text text-anchor="middle" x="663.14" y="-947.05" font-family="Times New Roman,serif" font-size="14.00">Samples weight: 0.00</text>
</g>
<!-- BB8&#45;&gt;BB9 -->
<g id="edge12" class="edge">
<title>BB8&#45;&gt;BB9</title>
<path fill="none" stroke="black" d="M351.91,-1075.53C416.63,-1054.47 504.12,-1025.99 569.86,-1004.6"/>
<polygon fill="black" stroke="black" points="570.97,-1007.92 579.4,-1001.5 568.81,-1001.27 570.97,-1007.92"/>
</g>
<!-- BB19 -->
<g id="node20" class="node">
<title>BB19</title>
<ellipse fill="none" stroke="black" cx="900.14" cy="-841.08" rx="113.27" ry="48.17"/>
<text text-anchor="middle" x="900.14" y="-859.88" font-family="Times New Roman,serif" font-size="14.00">[bb..c1)</text>
<text text-anchor="middle" x="900.14" y="-844.88" font-family="Times New Roman,serif" font-size="14.00">Count: 8090</text>
<text text-anchor="middle" x="900.14" y="-829.88" font-family="Times New Roman,serif" font-size="14.00">Normalized count: 809.00</text>
<text text-anchor="middle" x="900.14" y="-814.88" font-family="Times New Roman,serif" font-size="14.00">Samples weight: 0.00</text>
</g>
<!-- BB9&#45;&gt;BB19 -->
<g id="edge13" class="edge">
<title>BB9&#45;&gt;BB19</title>
<path fill="none" stroke="black" d="M729.15,-935.99C758.33,-919.97 792.81,-901.03 823.15,-884.37"/>
<polygon fill="black" stroke="black" points="824.92,-887.39 832,-879.51 821.55,-881.25 824.92,-887.39"/>
</g>
<!-- BB10 -->
<g id="node11" class="node">
<title>BB10</title>
<ellipse fill="none" stroke="black" cx="971.14" cy="-708.92" rx="113.27" ry="48.17"/>
<text text-anchor="middle" x="971.14" y="-727.72" font-family="Times New Roman,serif" font-size="14.00">[57..69)</text>
<text text-anchor="middle" x="971.14" y="-712.72" font-family="Times New Roman,serif" font-size="14.00">Count: 8080</text>
<text text-anchor="middle" x="971.14" y="-697.72" font-family="Times New Roman,serif" font-size="14.00">Normalized count: 808.00</text>
<text text-anchor="middle" x="971.14" y="-682.72" font-family="Times New Roman,serif" font-size="14.00">Samples weight: 0.00</text>
</g>
<!-- BB11 -->
<g id="node12" class="node">
<title>BB11</title>
<ellipse fill="none" stroke="black" cx="1145.14" cy="-576.75" rx="113.27" ry="48.17"/>
<text text-anchor="middle" x="1145.14" y="-595.55" font-family="Times New Roman,serif" font-size="14.00">[69..6d)</text>
<text text-anchor="middle" x="1145.14" y="-580.55" font-family="Times New Roman,serif" font-size="14.00">Count: 7980</text>
<text text-anchor="middle" x="1145.14" y="-565.55" font-family="Times New Roman,serif" font-size="14.00">Normalized count: 798.00</text>
<text text-anchor="middle" x="1145.14" y="-550.55" font-family="Times New Roman,serif" font-size="14.00">Samples weight: 0.00</text>
</g>
<!-- BB10&#45;&gt;BB11 -->
<g id="edge15" class="edge">
<title>BB10&#45;&gt;BB11</title>
<path fill="none" stroke="black" d="M1026.19,-666.73C1043.89,-653.49 1063.64,-638.72 1081.88,-625.07"/>
<polygon fill="black" stroke="black" points="1084.23,-627.68 1090.14,-618.89 1080.04,-622.08 1084.23,-627.68"/>
</g>
<!-- BB18 -->
<g id="node19" class="node">
<title>BB18</title>
<ellipse fill="none" stroke="black" cx="901.14" cy="-576.75" rx="113.27" ry="48.17"/>
<text text-anchor="middle" x="901.14" y="-595.55" font-family="Times New Roman,serif" font-size="14.00">[b7..bb)</text>
<text text-anchor="middle" x="901.14" y="-580.55" font-family="Times New Roman,serif" font-size="14.00">Count: 8080</text>
<text text-anchor="middle" x="901.14" y="-565.55" font-family="Times New Roman,serif" font-size="14.00">Normalized count: 808.00</text>
<text text-anchor="middle" x="901.14" y="-550.55" font-family="Times New Roman,serif" font-size="14.00">Samples weight: 0.00</text>
</g>
<!-- BB10&#45;&gt;BB18 -->
<g id="edge14" class="edge">
<title>BB10&#45;&gt;BB18</title>
<path fill="none" stroke="black" d="M946.26,-661.66C941.26,-652.35 935.95,-642.49 930.81,-632.92"/>
<polygon fill="black" stroke="black" points="933.75,-631.01 925.93,-623.86 927.59,-634.32 933.75,-631.01"/>
</g>
<!-- BB12 -->
<g id="node13" class="node">
<title>BB12</title>
<ellipse fill="none" stroke="black" cx="1093.14" cy="-444.58" rx="113.27" ry="48.17"/>
<text text-anchor="middle" x="1093.14" y="-463.38" font-family="Times New Roman,serif" font-size="14.00">[6d..7a)</text>
<text text-anchor="middle" x="1093.14" y="-448.38" font-family="Times New Roman,serif" font-size="14.00">Count: 3930</text>
<text text-anchor="middle" x="1093.14" y="-433.38" font-family="Times New Roman,serif" font-size="14.00">Normalized count: 393.00</text>
<text text-anchor="middle" x="1093.14" y="-418.38" font-family="Times New Roman,serif" font-size="14.00">Samples weight: 0.00</text>
</g>
<!-- BB11&#45;&gt;BB12 -->
<g id="edge17" class="edge">
<title>BB11&#45;&gt;BB12</title>
<path fill="none" stroke="black" d="M1126.51,-529.12C1122.96,-520.24 1119.22,-510.87 1115.57,-501.73"/>
<polygon fill="black" stroke="black" points="1118.77,-500.31 1111.81,-492.32 1112.27,-502.91 1118.77,-500.31"/>
</g>
<!-- BB13 -->
<g id="node14" class="node">
<title>BB13</title>
<ellipse fill="none" stroke="black" cx="1337.14" cy="-444.58" rx="113.27" ry="48.17"/>
<text text-anchor="middle" x="1337.14" y="-463.38" font-family="Times New Roman,serif" font-size="14.00">[7a..85)</text>
<text text-anchor="middle" x="1337.14" y="-448.38" font-family="Times New Roman,serif" font-size="14.00">Count: 4050</text>
<text text-anchor="middle" x="1337.14" y="-433.38" font-family="Times New Roman,serif" font-size="14.00">Normalized count: 405.00</text>
<text text-anchor="middle" x="1337.14" y="-418.38" font-family="Times New Roman,serif" font-size="14.00">Samples weight: 0.00</text>
</g>
<!-- BB11&#45;&gt;BB13 -->
<g id="edge16" class="edge">
<title>BB11&#45;&gt;BB13</title>
<path fill="none" stroke="black" d="M1204.31,-535.63C1224.93,-521.65 1248.23,-505.86 1269.48,-491.45"/>
<polygon fill="black" stroke="black" points="1271.52,-494.3 1277.83,-485.79 1267.59,-488.51 1271.52,-494.3"/>
</g>
<!-- BB14 -->
<g id="node15" class="node">
<title>BB14</title>
<ellipse fill="none" stroke="black" cx="1154.14" cy="-312.42" rx="113.27" ry="48.17"/>
<text text-anchor="middle" x="1154.14" y="-331.22" font-family="Times New Roman,serif" font-size="14.00">[85..89)</text>
<text text-anchor="middle" x="1154.14" y="-316.22" font-family="Times New Roman,serif" font-size="14.00">Count: 7980</text>
<text text-anchor="middle" x="1154.14" y="-301.22" font-family="Times New Roman,serif" font-size="14.00">Normalized count: 798.00</text>
<text text-anchor="middle" x="1154.14" y="-286.22" font-family="Times New Roman,serif" font-size="14.00">Samples weight: 0.00</text>
</g>
<!-- BB12&#45;&gt;BB14 -->
<g id="edge18" class="edge">
<title>BB12&#45;&gt;BB14</title>
<path fill="none" stroke="black" d="M1114.82,-397.32C1119.08,-388.23 1123.59,-378.59 1127.99,-369.22"/>
<polygon fill="black" stroke="black" points="1131.25,-370.5 1132.32,-359.96 1124.91,-367.53 1131.25,-370.5"/>
</g>
<!-- BB13&#45;&gt;BB14 -->
<g id="edge19" class="edge">
<title>BB13&#45;&gt;BB14</title>
<path fill="none" stroke="black" d="M1279.99,-402.93C1260.81,-389.29 1239.28,-373.97 1219.52,-359.92"/>
<polygon fill="black" stroke="black" points="1221.35,-356.93 1211.17,-353.98 1217.29,-362.63 1221.35,-356.93"/>
</g>
<!-- BB16 -->
<g id="node17" class="node">
<title>BB16</title>
<ellipse fill="none" stroke="black" cx="1154.14" cy="-180.25" rx="122.16" ry="48.17"/>
<text text-anchor="middle" x="1154.14" y="-199.05" font-family="Times New Roman,serif" font-size="14.00">[a2..a6)</text>
<text text-anchor="middle" x="1154.14" y="-184.05" font-family="Times New Roman,serif" font-size="14.00">Count: 813960</text>
<text text-anchor="middle" x="1154.14" y="-169.05" font-family="Times New Roman,serif" font-size="14.00">Normalized count: 81396.00</text>
<text text-anchor="middle" x="1154.14" y="-154.05" font-family="Times New Roman,serif" font-size="14.00">Samples weight: 0.39</text>
</g>
<!-- BB14&#45;&gt;BB16 -->
<g id="edge20" class="edge">
<title>BB14&#45;&gt;BB16</title>
<path fill="none" stroke="black" d="M1154.14,-264.05C1154.14,-255.79 1154.14,-247.1 1154.14,-238.6"/>
<polygon fill="black" stroke="black" points="1157.64,-238.36 1154.14,-228.36 1150.64,-238.36 1157.64,-238.36"/>
</g>
<!-- BB15 -->
<g id="node16" class="node">
<title>BB15</title>
<ellipse fill="none" stroke="black" cx="1154.14" cy="-48.08" rx="122.16" ry="48.17"/>
<text text-anchor="middle" x="1154.14" y="-66.88" font-family="Times New Roman,serif" font-size="14.00">[89..a2)</text>
<text text-anchor="middle" x="1154.14" y="-51.88" font-family="Times New Roman,serif" font-size="14.00">Count: 805980</text>
<text text-anchor="middle" x="1154.14" y="-36.88" font-family="Times New Roman,serif" font-size="14.00">Normalized count: 80598.00</text>
<text text-anchor="middle" x="1154.14" y="-21.88" font-family="Times New Roman,serif" font-size="14.00">Samples weight: 0.39</text>
</g>
<!-- BB15&#45;&gt;BB16 -->
<g id="edge21" class="edge">
<title>BB15&#45;&gt;BB16</title>
<path fill="none" stroke="black" d="M1160.65,-96.19C1160.87,-104.45 1160.94,-113.13 1160.85,-121.64"/>
<polygon fill="black" stroke="black" points="1157.34,-121.83 1160.66,-131.89 1164.34,-121.95 1157.34,-121.83"/>
</g>
<!-- BB16&#45;&gt;BB15 -->
<g id="edge22" class="edge">
<title>BB16&#45;&gt;BB15</title>
<path fill="none" stroke="black" d="M1147.61,-131.89C1147.4,-123.62 1147.34,-114.94 1147.43,-106.43"/>
<polygon fill="black" stroke="black" points="1150.93,-106.26 1147.62,-96.19 1143.93,-106.12 1150.93,-106.26"/>
</g>
<!-- BB17 -->
<g id="node18" class="node">
<title>BB17</title>
<ellipse fill="none" stroke="black" cx="901.14" cy="-48.08" rx="113.27" ry="48.17"/>
<text text-anchor="middle" x="901.14" y="-66.88" font-family="Times New Roman,serif" font-size="14.00">[a6..b7)</text>
<text text-anchor="middle" x="901.14" y="-51.88" font-family="Times New Roman,serif" font-size="14.00">Count: 7980</text>
<text text-anchor="middle" x="901.14" y="-36.88" font-family="Times New Roman,serif" font-size="14.00">Normalized count: 798.00</text>
<text text-anchor="middle" x="901.14" y="-21.88" font-family="Times New Roman,serif" font-size="14.00">Samples weight: 0.00</text>
</g>
<!-- BB16&#45;&gt;BB17 -->
<g id="edge23" class="edge">
<title>BB16&#45;&gt;BB17</title>
<path fill="none" stroke="black" d="M1080.96,-141.6C1049.88,-125.61 1013.54,-106.91 981.7,-90.53"/>
<polygon fill="black" stroke="black" points="982.9,-87.21 972.41,-85.75 979.7,-93.44 982.9,-87.21"/>
</g>
<!-- BB17&#45;&gt;BB18 -->
<g id="edge24" class="edge">
<title>BB17&#45;&gt;BB18</title>
<path fill="none" stroke="black" d="M901.14,-96.37C901.14,-193.2 901.14,-413.74 901.14,-518.48"/>
<polygon fill="black" stroke="black" points="897.64,-518.55 901.14,-528.55 904.64,-518.55 897.64,-518.55"/>
</g>
<!-- BB18&#45;&gt;BB19 -->
<g id="edge25" class="edge">
<title>BB18&#45;&gt;BB19</title>
<path fill="none" stroke="black" d="M866.79,-622.57C859.54,-634.4 852.94,-647.58 849.14,-660.83 837.34,-701.91 837.52,-715.87 849.14,-757 851.93,-766.87 856.25,-776.73 861.24,-786.02"/>
<polygon fill="black" stroke="black" points="858.21,-787.78 866.18,-794.75 864.29,-784.32 858.21,-787.78"/>
</g>
<!-- BB19&#45;&gt;BB10 -->
<g id="edge26" class="edge">
<title>BB19&#45;&gt;BB10</title>
<path fill="none" stroke="black" d="M925.17,-794.19C930.37,-784.66 935.89,-774.53 941.24,-764.72"/>
<polygon fill="black" stroke="black" points="944.38,-766.29 946.09,-755.83 938.23,-762.94 944.38,-766.29"/>
</g>
<!-- BB20 -->
<g id="node21" class="node">
<title>BB20</title>
<ellipse fill="none" stroke="black" cx="1205.14" cy="-708.92" rx="103.48" ry="48.17"/>
<text text-anchor="middle" x="1205.14" y="-727.72" font-family="Times New Roman,serif" font-size="14.00">[c1..c2)</text>
<text text-anchor="middle" x="1205.14" y="-712.72" font-family="Times New Roman,serif" font-size="14.00">Count: 10</text>
<text text-anchor="middle" x="1205.14" y="-697.72" font-family="Times New Roman,serif" font-size="14.00">Normalized count: 1.00</text>
<text text-anchor="middle" x="1205.14" y="-682.72" font-family="Times New Roman,serif" font-size="14.00">Samples weight: 0.00</text>
</g>
<!-- BB19&#45;&gt;BB20 -->
<g id="edge27" class="edge">
<title>BB19&#45;&gt;BB20</title>
<path fill="none" stroke="black" d="M979.08,-806.39C1022.5,-787.86 1076.38,-764.87 1120.65,-745.97"/>
<polygon fill="black" stroke="black" points="1122.12,-749.15 1129.94,-742.01 1119.37,-742.71 1122.12,-749.15"/>
</g>
</g>
</svg>
