<?xml version="1.0" encoding="UTF-8" standalone="no"?>
<!DOCTYPE svg PUBLIC "-//W3C//DTD SVG 1.1//EN"
 "http://www.w3.org/Graphics/SVG/1.1/DTD/svg11.dtd">
<!-- Generated by graphviz version 2.47.0 (20210316.0004)
 -->
<!-- Title: G Pages: 1 -->
<svg width="541pt" height="690pt"
 viewBox="0.00 0.00 541.15 689.92" xmlns="http://www.w3.org/2000/svg" xmlns:xlink="http://www.w3.org/1999/xlink">
<g id="graph0" class="graph" transform="scale(1 1) rotate(0) translate(4 685.92)">
<title>G</title>
<polygon fill="white" stroke="transparent" points="-4,4 -4,-685.92 537.15,-685.92 537.15,4 -4,4"/>
<!-- BB0 -->
<g id="node1" class="node">
<title>BB0</title>
<ellipse fill="none" stroke="black" cx="246.72" cy="-655.05" rx="33.47" ry="26.74"/>
<text text-anchor="middle" x="246.72" y="-658.85" font-family="Times New Roman,serif" font-size="14.00">[0..6)</text>
<text text-anchor="middle" x="246.72" y="-643.85" font-family="Times New Roman,serif" font-size="14.00">0.03</text>
</g>
<!-- BB9 -->
<g id="node10" class="node">
<title>BB9</title>
<ellipse fill="none" stroke="black" cx="246.72" cy="-565.31" rx="43.27" ry="26.74"/>
<text text-anchor="middle" x="246.72" y="-569.11" font-family="Times New Roman,serif" font-size="14.00">[4d..51)</text>
<text text-anchor="middle" x="246.72" y="-554.11" font-family="Times New Roman,serif" font-size="14.00">0.04</text>
</g>
<!-- BB0&#45;&gt;BB9 -->
<g id="edge1" class="edge">
<title>BB0&#45;&gt;BB9</title>
<path fill="none" stroke="black" d="M246.72,-627.73C246.72,-619.76 246.72,-610.87 246.72,-602.38"/>
<polygon fill="black" stroke="black" points="250.22,-602.31 246.72,-592.31 243.22,-602.31 250.22,-602.31"/>
</g>
<!-- BB1 -->
<g id="node2" class="node">
<title>BB1</title>
<ellipse fill="none" stroke="black" cx="168.72" cy="-475.57" rx="37.45" ry="26.74"/>
<text text-anchor="middle" x="168.72" y="-479.37" font-family="Times New Roman,serif" font-size="14.00">[6..19)</text>
<text text-anchor="middle" x="168.72" y="-464.37" font-family="Times New Roman,serif" font-size="14.00">0.01</text>
</g>
<!-- BB2 -->
<g id="node3" class="node">
<title>BB2</title>
<ellipse fill="none" stroke="black" cx="49.72" cy="-385.83" rx="43.27" ry="26.74"/>
<text text-anchor="middle" x="49.72" y="-389.63" font-family="Times New Roman,serif" font-size="14.00">[19..1d)</text>
<text text-anchor="middle" x="49.72" y="-374.63" font-family="Times New Roman,serif" font-size="14.00">0.01</text>
</g>
<!-- BB1&#45;&gt;BB2 -->
<g id="edge3" class="edge">
<title>BB1&#45;&gt;BB2</title>
<path fill="none" stroke="black" d="M143.19,-455.75C126.25,-443.26 103.79,-426.7 85.13,-412.94"/>
<polygon fill="black" stroke="black" points="86.99,-409.96 76.86,-406.84 82.83,-415.59 86.99,-409.96"/>
</g>
<!-- BB6 -->
<g id="node7" class="node">
<title>BB6</title>
<ellipse fill="none" stroke="black" cx="168.72" cy="-385.83" rx="42.35" ry="26.74"/>
<text text-anchor="middle" x="168.72" y="-389.63" font-family="Times New Roman,serif" font-size="14.00">[35..42)</text>
<text text-anchor="middle" x="168.72" y="-374.63" font-family="Times New Roman,serif" font-size="14.00">0.01</text>
</g>
<!-- BB1&#45;&gt;BB6 -->
<g id="edge2" class="edge">
<title>BB1&#45;&gt;BB6</title>
<path fill="none" stroke="black" d="M168.72,-448.25C168.72,-440.28 168.72,-431.39 168.72,-422.9"/>
<polygon fill="black" stroke="black" points="172.22,-422.83 168.72,-412.83 165.22,-422.83 172.22,-422.83"/>
</g>
<!-- BB4 -->
<g id="node5" class="node">
<title>BB4</title>
<ellipse fill="none" stroke="black" cx="41.72" cy="-296.09" rx="41.02" ry="26.74"/>
<text text-anchor="middle" x="41.72" y="-299.89" font-family="Times New Roman,serif" font-size="14.00">[2f..33)</text>
<text text-anchor="middle" x="41.72" y="-284.89" font-family="Times New Roman,serif" font-size="14.00">0.22</text>
</g>
<!-- BB2&#45;&gt;BB4 -->
<g id="edge4" class="edge">
<title>BB2&#45;&gt;BB4</title>
<path fill="none" stroke="black" d="M47.36,-358.98C46.63,-350.93 45.81,-341.9 45.02,-333.28"/>
<polygon fill="black" stroke="black" points="48.48,-332.7 44.09,-323.06 41.51,-333.34 48.48,-332.7"/>
</g>
<!-- BB3 -->
<g id="node4" class="node">
<title>BB3</title>
<ellipse fill="none" stroke="black" cx="41.72" cy="-206.35" rx="41.94" ry="26.74"/>
<text text-anchor="middle" x="41.72" y="-210.15" font-family="Times New Roman,serif" font-size="14.00">[1d..2f)</text>
<text text-anchor="middle" x="41.72" y="-195.15" font-family="Times New Roman,serif" font-size="14.00">0.22</text>
</g>
<!-- BB3&#45;&gt;BB4 -->
<g id="edge5" class="edge">
<title>BB3&#45;&gt;BB4</title>
<path fill="none" stroke="black" d="M47.92,-233.02C48.44,-241.21 48.59,-250.44 48.37,-259.22"/>
<polygon fill="black" stroke="black" points="44.87,-259.1 47.94,-269.24 51.86,-259.4 44.87,-259.1"/>
</g>
<!-- BB4&#45;&gt;BB3 -->
<g id="edge6" class="edge">
<title>BB4&#45;&gt;BB3</title>
<path fill="none" stroke="black" d="M35.5,-269.24C34.99,-261.03 34.85,-251.8 35.08,-243.02"/>
<polygon fill="black" stroke="black" points="38.57,-243.16 35.51,-233.02 31.58,-242.85 38.57,-243.16"/>
</g>
<!-- BB5 -->
<g id="node6" class="node">
<title>BB5</title>
<ellipse fill="none" stroke="black" cx="179.72" cy="-206.35" rx="42.35" ry="26.74"/>
<text text-anchor="middle" x="179.72" y="-210.15" font-family="Times New Roman,serif" font-size="14.00">[33..35)</text>
<text text-anchor="middle" x="179.72" y="-195.15" font-family="Times New Roman,serif" font-size="14.00">0.01</text>
</g>
<!-- BB4&#45;&gt;BB5 -->
<g id="edge7" class="edge">
<title>BB4&#45;&gt;BB5</title>
<path fill="none" stroke="black" d="M70.65,-276.7C91.3,-263.57 119.28,-245.77 141.73,-231.5"/>
<polygon fill="black" stroke="black" points="143.79,-234.34 150.35,-226.02 140.04,-228.43 143.79,-234.34"/>
</g>
<!-- BB8 -->
<g id="node9" class="node">
<title>BB8</title>
<ellipse fill="none" stroke="black" cx="246.72" cy="-296.09" rx="43.27" ry="26.74"/>
<text text-anchor="middle" x="246.72" y="-299.89" font-family="Times New Roman,serif" font-size="14.00">[44..4d)</text>
<text text-anchor="middle" x="246.72" y="-284.89" font-family="Times New Roman,serif" font-size="14.00">0.01</text>
</g>
<!-- BB5&#45;&gt;BB8 -->
<g id="edge8" class="edge">
<title>BB5&#45;&gt;BB8</title>
<path fill="none" stroke="black" d="M197.72,-230.93C205.39,-240.97 214.45,-252.83 222.67,-263.6"/>
<polygon fill="black" stroke="black" points="219.91,-265.75 228.76,-271.58 225.48,-261.51 219.91,-265.75"/>
</g>
<!-- BB7 -->
<g id="node8" class="node">
<title>BB7</title>
<ellipse fill="none" stroke="black" cx="142.72" cy="-296.09" rx="42.35" ry="26.74"/>
<text text-anchor="middle" x="142.72" y="-299.89" font-family="Times New Roman,serif" font-size="14.00">[42..44)</text>
<text text-anchor="middle" x="142.72" y="-284.89" font-family="Times New Roman,serif" font-size="14.00">0.00</text>
</g>
<!-- BB6&#45;&gt;BB7 -->
<g id="edge10" class="edge">
<title>BB6&#45;&gt;BB7</title>
<path fill="none" stroke="black" d="M161.06,-358.98C158.6,-350.68 155.83,-341.34 153.21,-332.48"/>
<polygon fill="black" stroke="black" points="156.52,-331.35 150.32,-322.76 149.81,-333.34 156.52,-331.35"/>
</g>
<!-- BB6&#45;&gt;BB8 -->
<g id="edge9" class="edge">
<title>BB6&#45;&gt;BB8</title>
<path fill="none" stroke="black" d="M189.21,-361.78C198.53,-351.3 209.68,-338.76 219.67,-327.52"/>
<polygon fill="black" stroke="black" points="222.33,-329.79 226.36,-319.99 217.1,-325.14 222.33,-329.79"/>
</g>
<!-- BB7&#45;&gt;BB8 -->
<g id="edge11" class="edge">
<title>BB7&#45;&gt;BB8</title>
<path fill="none" stroke="black" d="M185.38,-296.09C187.87,-296.09 190.36,-296.09 192.86,-296.09"/>
<polygon fill="black" stroke="black" points="193.11,-299.59 203.11,-296.09 193.11,-292.59 193.11,-299.59"/>
</g>
<!-- BB8&#45;&gt;BB9 -->
<g id="edge12" class="edge">
<title>BB8&#45;&gt;BB9</title>
<path fill="none" stroke="black" d="M246.72,-323.31C246.72,-371.28 246.72,-473.28 246.72,-527.93"/>
<polygon fill="black" stroke="black" points="243.22,-528.2 246.72,-538.2 250.22,-528.2 243.22,-528.2"/>
</g>
<!-- BB9&#45;&gt;BB1 -->
<g id="edge13" class="edge">
<title>BB9&#45;&gt;BB1</title>
<path fill="none" stroke="black" d="M226.23,-541.26C216.69,-530.53 205.23,-517.65 195.06,-506.21"/>
<polygon fill="black" stroke="black" points="197.53,-503.71 188.27,-498.56 192.3,-508.36 197.53,-503.71"/>
</g>
<!-- BB10 -->
<g id="node11" class="node">
<title>BB10</title>
<ellipse fill="none" stroke="black" cx="334.72" cy="-475.57" rx="42.35" ry="26.74"/>
<text text-anchor="middle" x="334.72" y="-479.37" font-family="Times New Roman,serif" font-size="14.00">[51..57)</text>
<text text-anchor="middle" x="334.72" y="-464.37" font-family="Times New Roman,serif" font-size="14.00">0.03</text>
</g>
<!-- BB9&#45;&gt;BB10 -->
<g id="edge14" class="edge">
<title>BB9&#45;&gt;BB10</title>
<path fill="none" stroke="black" d="M268.93,-542.17C279.97,-531.16 293.47,-517.7 305.36,-505.84"/>
<polygon fill="black" stroke="black" points="307.91,-508.24 312.52,-498.7 302.97,-503.29 307.91,-508.24"/>
</g>
<!-- BB16 -->
<g id="node17" class="node">
<title>BB16</title>
<ellipse fill="none" stroke="black" cx="352.72" cy="-385.83" rx="43.27" ry="26.74"/>
<text text-anchor="middle" x="352.72" y="-389.63" font-family="Times New Roman,serif" font-size="14.00">[8d..91)</text>
<text text-anchor="middle" x="352.72" y="-374.63" font-family="Times New Roman,serif" font-size="14.00">0.04</text>
</g>
<!-- BB10&#45;&gt;BB16 -->
<g id="edge15" class="edge">
<title>BB10&#45;&gt;BB16</title>
<path fill="none" stroke="black" d="M340.02,-448.72C341.69,-440.58 343.57,-431.44 345.35,-422.74"/>
<polygon fill="black" stroke="black" points="348.81,-423.3 347.39,-412.8 341.95,-421.89 348.81,-423.3"/>
</g>
<!-- BB11 -->
<g id="node12" class="node">
<title>BB11</title>
<ellipse fill="none" stroke="black" cx="387.72" cy="-296.09" rx="42.35" ry="26.74"/>
<text text-anchor="middle" x="387.72" y="-299.89" font-family="Times New Roman,serif" font-size="14.00">[57..62)</text>
<text text-anchor="middle" x="387.72" y="-284.89" font-family="Times New Roman,serif" font-size="14.00">0.01</text>
</g>
<!-- BB12 -->
<g id="node13" class="node">
<title>BB12</title>
<ellipse fill="none" stroke="black" cx="420.72" cy="-206.35" rx="42.35" ry="26.74"/>
<text text-anchor="middle" x="420.72" y="-210.15" font-family="Times New Roman,serif" font-size="14.00">[62..68)</text>
<text text-anchor="middle" x="420.72" y="-195.15" font-family="Times New Roman,serif" font-size="14.00">0.01</text>
</g>
<!-- BB11&#45;&gt;BB12 -->
<g id="edge17" class="edge">
<title>BB11&#45;&gt;BB12</title>
<path fill="none" stroke="black" d="M397.26,-269.71C400.48,-261.16 404.13,-251.47 407.57,-242.31"/>
<polygon fill="black" stroke="black" points="410.95,-243.26 411.2,-232.67 404.4,-240.8 410.95,-243.26"/>
</g>
<!-- BB15 -->
<g id="node16" class="node">
<title>BB15</title>
<ellipse fill="none" stroke="black" cx="317.72" cy="-206.35" rx="42.35" ry="26.74"/>
<text text-anchor="middle" x="317.72" y="-210.15" font-family="Times New Roman,serif" font-size="14.00">[7e..8d)</text>
<text text-anchor="middle" x="317.72" y="-195.15" font-family="Times New Roman,serif" font-size="14.00">0.01</text>
</g>
<!-- BB11&#45;&gt;BB15 -->
<g id="edge16" class="edge">
<title>BB11&#45;&gt;BB15</title>
<path fill="none" stroke="black" d="M368.96,-271.58C360.89,-261.47 351.35,-249.5 342.69,-238.65"/>
<polygon fill="black" stroke="black" points="345.26,-236.26 336.29,-230.62 339.79,-240.62 345.26,-236.26"/>
</g>
<!-- BB14 -->
<g id="node15" class="node">
<title>BB14</title>
<ellipse fill="none" stroke="black" cx="368.72" cy="-116.61" rx="41.94" ry="26.74"/>
<text text-anchor="middle" x="368.72" y="-120.41" font-family="Times New Roman,serif" font-size="14.00">[7a..7e)</text>
<text text-anchor="middle" x="368.72" y="-105.41" font-family="Times New Roman,serif" font-size="14.00">0.17</text>
</g>
<!-- BB12&#45;&gt;BB14 -->
<g id="edge18" class="edge">
<title>BB12&#45;&gt;BB14</title>
<path fill="none" stroke="black" d="M406.23,-180.91C400.71,-171.59 394.32,-160.81 388.4,-150.81"/>
<polygon fill="black" stroke="black" points="391.24,-148.74 383.13,-141.92 385.21,-152.31 391.24,-148.74"/>
</g>
<!-- BB13 -->
<g id="node14" class="node">
<title>BB13</title>
<ellipse fill="none" stroke="black" cx="368.72" cy="-26.87" rx="41.94" ry="26.74"/>
<text text-anchor="middle" x="368.72" y="-30.67" font-family="Times New Roman,serif" font-size="14.00">[68..7a)</text>
<text text-anchor="middle" x="368.72" y="-15.67" font-family="Times New Roman,serif" font-size="14.00">0.16</text>
</g>
<!-- BB13&#45;&gt;BB14 -->
<g id="edge19" class="edge">
<title>BB13&#45;&gt;BB14</title>
<path fill="none" stroke="black" d="M374.92,-53.54C375.44,-61.73 375.59,-70.96 375.37,-79.74"/>
<polygon fill="black" stroke="black" points="371.87,-79.62 374.94,-89.76 378.86,-79.92 371.87,-79.62"/>
</g>
<!-- BB14&#45;&gt;BB13 -->
<g id="edge20" class="edge">
<title>BB14&#45;&gt;BB13</title>
<path fill="none" stroke="black" d="M362.5,-89.76C361.99,-81.55 361.85,-72.32 362.08,-63.54"/>
<polygon fill="black" stroke="black" points="365.57,-63.68 362.51,-53.54 358.58,-63.37 365.57,-63.68"/>
</g>
<!-- BB14&#45;&gt;BB15 -->
<g id="edge21" class="edge">
<title>BB14&#45;&gt;BB15</title>
<path fill="none" stroke="black" d="M354.59,-141.92C349.18,-151.22 342.92,-162 337.1,-172.01"/>
<polygon fill="black" stroke="black" points="333.93,-170.51 331.93,-180.91 339.98,-174.02 333.93,-170.51"/>
</g>
<!-- BB15&#45;&gt;BB16 -->
<g id="edge22" class="edge">
<title>BB15&#45;&gt;BB16</title>
<path fill="none" stroke="black" d="M321.28,-233.19C324.69,-256.7 330.25,-292.31 336.72,-322.96 338.53,-331.54 340.75,-340.73 342.95,-349.32"/>
<polygon fill="black" stroke="black" points="339.58,-350.28 345.5,-359.06 346.36,-348.5 339.58,-350.28"/>
</g>
<!-- BB16&#45;&gt;BB11 -->
<g id="edge23" class="edge">
<title>BB16&#45;&gt;BB11</title>
<path fill="none" stroke="black" d="M362.84,-359.45C366.29,-350.81 370.2,-341 373.89,-331.76"/>
<polygon fill="black" stroke="black" points="377.16,-333 377.62,-322.41 370.66,-330.4 377.16,-333"/>
</g>
<!-- BB17 -->
<g id="node18" class="node">
<title>BB17</title>
<ellipse fill="none" stroke="black" cx="490.72" cy="-296.09" rx="42.35" ry="26.74"/>
<text text-anchor="middle" x="490.72" y="-299.89" font-family="Times New Roman,serif" font-size="14.00">[91..92)</text>
<text text-anchor="middle" x="490.72" y="-284.89" font-family="Times New Roman,serif" font-size="14.00">0.03</text>
</g>
<!-- BB16&#45;&gt;BB17 -->
<g id="edge24" class="edge">
<title>BB16&#45;&gt;BB17</title>
<path fill="none" stroke="black" d="M382.32,-366.01C402.88,-352.94 430.45,-335.41 452.64,-321.3"/>
<polygon fill="black" stroke="black" points="454.6,-324.2 461.16,-315.88 450.85,-318.29 454.6,-324.2"/>
</g>
</g>
</svg>
