<?xml version="1.0" encoding="UTF-8" standalone="no"?>
<!DOCTYPE svg PUBLIC "-//W3C//DTD SVG 1.1//EN"
 "http://www.w3.org/Graphics/SVG/1.1/DTD/svg11.dtd">
<!-- Generated by graphviz version 2.47.0 (20210316.0004)
 -->
<!-- Title: G Pages: 1 -->
<svg width="2871pt" height="1414pt"
 viewBox="0.00 0.00 2870.93 1414.39" xmlns="http://www.w3.org/2000/svg" xmlns:xlink="http://www.w3.org/1999/xlink">
<g id="graph0" class="graph" transform="scale(1 1) rotate(0) translate(4 1410.39)">
<title>G</title>
<polygon fill="white" stroke="transparent" points="-4,4 -4,-1410.39 2866.93,-1410.39 2866.93,4 -4,4"/>
<!-- BB0 -->
<g id="node1" class="node">
<title>BB0</title>
<ellipse fill="none" stroke="black" cx="644.97" cy="-1368.92" rx="106.55" ry="37.45"/>
<text text-anchor="middle" x="644.97" y="-1380.22" font-family="Times New Roman,serif" font-size="14.00">[0..15)</text>
<text text-anchor="middle" x="644.97" y="-1365.22" font-family="Times New Roman,serif" font-size="14.00">Normalized Count: NaN</text>
<text text-anchor="middle" x="644.97" y="-1350.22" font-family="Times New Roman,serif" font-size="14.00">Samples weight: 0.00</text>
</g>
<!-- BB9 -->
<g id="node10" class="node">
<title>BB9</title>
<ellipse fill="none" stroke="black" cx="644.97" cy="-1257.96" rx="106.55" ry="37.45"/>
<text text-anchor="middle" x="644.97" y="-1269.26" font-family="Times New Roman,serif" font-size="14.00">[6d..71)</text>
<text text-anchor="middle" x="644.97" y="-1254.26" font-family="Times New Roman,serif" font-size="14.00">Normalized Count: NaN</text>
<text text-anchor="middle" x="644.97" y="-1239.26" font-family="Times New Roman,serif" font-size="14.00">Samples weight: 0.00</text>
</g>
<!-- BB0&#45;&gt;BB9 -->
<g id="edge1" class="edge">
<title>BB0&#45;&gt;BB9</title>
<path fill="none" stroke="black" d="M644.97,-1331.33C644.97,-1323.16 644.97,-1314.38 644.97,-1305.85"/>
<polygon fill="black" stroke="black" points="648.47,-1305.64 644.97,-1295.64 641.47,-1305.64 648.47,-1305.64"/>
</g>
<!-- BB1 -->
<g id="node2" class="node">
<title>BB1</title>
<ellipse fill="none" stroke="black" cx="644.97" cy="-1147.01" rx="106.55" ry="37.45"/>
<text text-anchor="middle" x="644.97" y="-1158.31" font-family="Times New Roman,serif" font-size="14.00">[15..24)</text>
<text text-anchor="middle" x="644.97" y="-1143.31" font-family="Times New Roman,serif" font-size="14.00">Normalized Count: NaN</text>
<text text-anchor="middle" x="644.97" y="-1128.31" font-family="Times New Roman,serif" font-size="14.00">Samples weight: 0.00</text>
</g>
<!-- BB5 -->
<g id="node6" class="node">
<title>BB5</title>
<ellipse fill="none" stroke="black" cx="644.97" cy="-1036.06" rx="106.55" ry="37.45"/>
<text text-anchor="middle" x="644.97" y="-1047.36" font-family="Times New Roman,serif" font-size="14.00">[44..49)</text>
<text text-anchor="middle" x="644.97" y="-1032.36" font-family="Times New Roman,serif" font-size="14.00">Normalized Count: NaN</text>
<text text-anchor="middle" x="644.97" y="-1017.36" font-family="Times New Roman,serif" font-size="14.00">Samples weight: 0.00</text>
</g>
<!-- BB1&#45;&gt;BB5 -->
<g id="edge2" class="edge">
<title>BB1&#45;&gt;BB5</title>
<path fill="none" stroke="black" d="M644.97,-1109.43C644.97,-1101.25 644.97,-1092.47 644.97,-1083.95"/>
<polygon fill="black" stroke="black" points="648.47,-1083.73 644.97,-1073.73 641.47,-1083.73 648.47,-1083.73"/>
</g>
<!-- BB2 -->
<g id="node3" class="node">
<title>BB2</title>
<ellipse fill="none" stroke="black" cx="644.97" cy="-925.1" rx="115.93" ry="37.45"/>
<text text-anchor="middle" x="644.97" y="-936.4" font-family="Times New Roman,serif" font-size="14.00">[24..32)</text>
<text text-anchor="middle" x="644.97" y="-921.4" font-family="Times New Roman,serif" font-size="14.00">Normalized Count: Infinity</text>
<text text-anchor="middle" x="644.97" y="-906.4" font-family="Times New Roman,serif" font-size="14.00">Samples weight: 0.03</text>
</g>
<!-- BB3 -->
<g id="node4" class="node">
<title>BB3</title>
<ellipse fill="none" stroke="black" cx="597.97" cy="-814.15" rx="115.93" ry="37.45"/>
<text text-anchor="middle" x="597.97" y="-825.45" font-family="Times New Roman,serif" font-size="14.00">[32..3e)</text>
<text text-anchor="middle" x="597.97" y="-810.45" font-family="Times New Roman,serif" font-size="14.00">Normalized Count: Infinity</text>
<text text-anchor="middle" x="597.97" y="-795.45" font-family="Times New Roman,serif" font-size="14.00">Samples weight: 0.00</text>
</g>
<!-- BB2&#45;&gt;BB3 -->
<g id="edge4" class="edge">
<title>BB2&#45;&gt;BB3</title>
<path fill="none" stroke="black" d="M629.32,-887.82C625.59,-879.19 621.57,-869.86 617.68,-860.86"/>
<polygon fill="black" stroke="black" points="620.88,-859.44 613.71,-851.64 614.46,-862.21 620.88,-859.44"/>
</g>
<!-- BB4 -->
<g id="node5" class="node">
<title>BB4</title>
<ellipse fill="none" stroke="black" cx="847.97" cy="-814.15" rx="115.93" ry="37.45"/>
<text text-anchor="middle" x="847.97" y="-825.45" font-family="Times New Roman,serif" font-size="14.00">[3e..44)</text>
<text text-anchor="middle" x="847.97" y="-810.45" font-family="Times New Roman,serif" font-size="14.00">Normalized Count: Infinity</text>
<text text-anchor="middle" x="847.97" y="-795.45" font-family="Times New Roman,serif" font-size="14.00">Samples weight: 0.00</text>
</g>
<!-- BB2&#45;&gt;BB4 -->
<g id="edge3" class="edge">
<title>BB2&#45;&gt;BB4</title>
<path fill="none" stroke="black" d="M703.68,-892.59C727.67,-879.72 755.56,-864.75 780.39,-851.42"/>
<polygon fill="black" stroke="black" points="782.23,-854.41 789.38,-846.59 778.92,-848.24 782.23,-854.41"/>
</g>
<!-- BB3&#45;&gt;BB4 -->
<g id="edge5" class="edge">
<title>BB3&#45;&gt;BB4</title>
<path fill="none" stroke="black" d="M714.18,-814.15C716.68,-814.15 719.17,-814.15 721.67,-814.15"/>
<polygon fill="black" stroke="black" points="721.95,-817.65 731.95,-814.15 721.95,-810.65 721.95,-817.65"/>
</g>
<!-- BB4&#45;&gt;BB5 -->
<g id="edge6" class="edge">
<title>BB4&#45;&gt;BB5</title>
<path fill="none" stroke="black" d="M835.41,-851.41C822.83,-883.62 800.88,-930.44 769.97,-962.58 755.47,-977.65 737.16,-990.59 719.06,-1001.19"/>
<polygon fill="black" stroke="black" points="717.18,-998.23 710.2,-1006.21 720.63,-1004.32 717.18,-998.23"/>
</g>
<!-- BB5&#45;&gt;BB2 -->
<g id="edge7" class="edge">
<title>BB5&#45;&gt;BB2</title>
<path fill="none" stroke="black" d="M644.97,-998.47C644.97,-990.3 644.97,-981.52 644.97,-972.99"/>
<polygon fill="black" stroke="black" points="648.47,-972.78 644.97,-962.78 641.47,-972.78 648.47,-972.78"/>
</g>
<!-- BB6 -->
<g id="node7" class="node">
<title>BB6</title>
<ellipse fill="none" stroke="black" cx="356.97" cy="-925.1" rx="115.93" ry="37.45"/>
<text text-anchor="middle" x="356.97" y="-936.4" font-family="Times New Roman,serif" font-size="14.00">[49..55)</text>
<text text-anchor="middle" x="356.97" y="-921.4" font-family="Times New Roman,serif" font-size="14.00">Normalized Count: Infinity</text>
<text text-anchor="middle" x="356.97" y="-906.4" font-family="Times New Roman,serif" font-size="14.00">Samples weight: 0.00</text>
</g>
<!-- BB5&#45;&gt;BB6 -->
<g id="edge8" class="edge">
<title>BB5&#45;&gt;BB6</title>
<path fill="none" stroke="black" d="M573.77,-1008.12C533.36,-992.83 482.55,-973.61 440.28,-957.62"/>
<polygon fill="black" stroke="black" points="441.44,-954.32 430.85,-954.05 438.96,-960.87 441.44,-954.32"/>
</g>
<!-- BB7 -->
<g id="node8" class="node">
<title>BB7</title>
<ellipse fill="none" stroke="black" cx="356.97" cy="-814.15" rx="106.55" ry="37.45"/>
<text text-anchor="middle" x="356.97" y="-825.45" font-family="Times New Roman,serif" font-size="14.00">[55..57)</text>
<text text-anchor="middle" x="356.97" y="-810.45" font-family="Times New Roman,serif" font-size="14.00">Normalized Count: NaN</text>
<text text-anchor="middle" x="356.97" y="-795.45" font-family="Times New Roman,serif" font-size="14.00">Samples weight: 0.00</text>
</g>
<!-- BB6&#45;&gt;BB7 -->
<g id="edge10" class="edge">
<title>BB6&#45;&gt;BB7</title>
<path fill="none" stroke="black" d="M356.97,-887.52C356.97,-879.35 356.97,-870.57 356.97,-862.04"/>
<polygon fill="black" stroke="black" points="360.47,-861.82 356.97,-851.82 353.47,-861.82 360.47,-861.82"/>
</g>
<!-- BB8 -->
<g id="node9" class="node">
<title>BB8</title>
<ellipse fill="none" stroke="black" cx="115.97" cy="-814.15" rx="115.93" ry="37.45"/>
<text text-anchor="middle" x="115.97" y="-825.45" font-family="Times New Roman,serif" font-size="14.00">[57..6d)</text>
<text text-anchor="middle" x="115.97" y="-810.45" font-family="Times New Roman,serif" font-size="14.00">Normalized Count: Infinity</text>
<text text-anchor="middle" x="115.97" y="-795.45" font-family="Times New Roman,serif" font-size="14.00">Samples weight: 0.00</text>
</g>
<!-- BB6&#45;&gt;BB8 -->
<g id="edge9" class="edge">
<title>BB6&#45;&gt;BB8</title>
<path fill="none" stroke="black" d="M290.79,-894.19C259.97,-880.25 223.16,-863.61 191.28,-849.2"/>
<polygon fill="black" stroke="black" points="192.54,-845.93 181.99,-845 189.66,-852.31 192.54,-845.93"/>
</g>
<!-- BB8&#45;&gt;BB9 -->
<g id="edge11" class="edge">
<title>BB8&#45;&gt;BB9</title>
<path fill="none" stroke="black" d="M140.08,-850.95C162.05,-882.22 196.41,-927.9 231.97,-962.58 342.92,-1070.8 496.55,-1169.37 581.71,-1220.4"/>
<polygon fill="black" stroke="black" points="580.11,-1223.52 590.49,-1225.64 583.69,-1217.51 580.11,-1223.52"/>
</g>
<!-- BB9&#45;&gt;BB1 -->
<g id="edge12" class="edge">
<title>BB9&#45;&gt;BB1</title>
<path fill="none" stroke="black" d="M644.97,-1220.38C644.97,-1212.21 644.97,-1203.43 644.97,-1194.9"/>
<polygon fill="black" stroke="black" points="648.47,-1194.68 644.97,-1184.68 641.47,-1194.68 648.47,-1194.68"/>
</g>
<!-- BB10 -->
<g id="node11" class="node">
<title>BB10</title>
<ellipse fill="none" stroke="black" cx="952.97" cy="-1147.01" rx="106.55" ry="37.45"/>
<text text-anchor="middle" x="952.97" y="-1158.31" font-family="Times New Roman,serif" font-size="14.00">[71..79)</text>
<text text-anchor="middle" x="952.97" y="-1143.31" font-family="Times New Roman,serif" font-size="14.00">Normalized Count: NaN</text>
<text text-anchor="middle" x="952.97" y="-1128.31" font-family="Times New Roman,serif" font-size="14.00">Samples weight: 0.00</text>
</g>
<!-- BB9&#45;&gt;BB10 -->
<g id="edge13" class="edge">
<title>BB9&#45;&gt;BB10</title>
<path fill="none" stroke="black" d="M718.74,-1230.87C764.11,-1214.82 822.37,-1194.21 869.43,-1177.56"/>
<polygon fill="black" stroke="black" points="870.73,-1180.81 878.99,-1174.18 868.4,-1174.21 870.73,-1180.81"/>
</g>
<!-- BB40 -->
<g id="node41" class="node">
<title>BB40</title>
<ellipse fill="none" stroke="black" cx="1058.97" cy="-1036.06" rx="106.55" ry="37.45"/>
<text text-anchor="middle" x="1058.97" y="-1047.36" font-family="Times New Roman,serif" font-size="14.00">[1d7..1df)</text>
<text text-anchor="middle" x="1058.97" y="-1032.36" font-family="Times New Roman,serif" font-size="14.00">Normalized Count: NaN</text>
<text text-anchor="middle" x="1058.97" y="-1017.36" font-family="Times New Roman,serif" font-size="14.00">Samples weight: 0.00</text>
</g>
<!-- BB10&#45;&gt;BB40 -->
<g id="edge14" class="edge">
<title>BB10&#45;&gt;BB40</title>
<path fill="none" stroke="black" d="M986.8,-1111.24C996.74,-1101.02 1007.72,-1089.72 1018.06,-1079.1"/>
<polygon fill="black" stroke="black" points="1020.63,-1081.48 1025.09,-1071.87 1015.61,-1076.6 1020.63,-1081.48"/>
</g>
<!-- BB11 -->
<g id="node12" class="node">
<title>BB11</title>
<ellipse fill="none" stroke="black" cx="2224.97" cy="-925.1" rx="106.55" ry="37.45"/>
<text text-anchor="middle" x="2224.97" y="-936.4" font-family="Times New Roman,serif" font-size="14.00">[79..7d)</text>
<text text-anchor="middle" x="2224.97" y="-921.4" font-family="Times New Roman,serif" font-size="14.00">Normalized Count: NaN</text>
<text text-anchor="middle" x="2224.97" y="-906.4" font-family="Times New Roman,serif" font-size="14.00">Samples weight: 0.00</text>
</g>
<!-- BB12 -->
<g id="node13" class="node">
<title>BB12</title>
<ellipse fill="none" stroke="black" cx="2479.97" cy="-814.15" rx="106.55" ry="37.45"/>
<text text-anchor="middle" x="2479.97" y="-825.45" font-family="Times New Roman,serif" font-size="14.00">[7d..81)</text>
<text text-anchor="middle" x="2479.97" y="-810.45" font-family="Times New Roman,serif" font-size="14.00">Normalized Count: NaN</text>
<text text-anchor="middle" x="2479.97" y="-795.45" font-family="Times New Roman,serif" font-size="14.00">Samples weight: 0.00</text>
</g>
<!-- BB11&#45;&gt;BB12 -->
<g id="edge16" class="edge">
<title>BB11&#45;&gt;BB12</title>
<path fill="none" stroke="black" d="M2291.63,-895.62C2326.04,-880.92 2368.17,-862.92 2403.85,-847.67"/>
<polygon fill="black" stroke="black" points="2405.43,-850.8 2413.25,-843.66 2402.68,-844.37 2405.43,-850.8"/>
</g>
<!-- BB19 -->
<g id="node20" class="node">
<title>BB19</title>
<ellipse fill="none" stroke="black" cx="2224.97" cy="-814.15" rx="115.93" ry="37.45"/>
<text text-anchor="middle" x="2224.97" y="-825.45" font-family="Times New Roman,serif" font-size="14.00">[bc..cb)</text>
<text text-anchor="middle" x="2224.97" y="-810.45" font-family="Times New Roman,serif" font-size="14.00">Normalized Count: Infinity</text>
<text text-anchor="middle" x="2224.97" y="-795.45" font-family="Times New Roman,serif" font-size="14.00">Samples weight: 0.00</text>
</g>
<!-- BB11&#45;&gt;BB19 -->
<g id="edge15" class="edge">
<title>BB11&#45;&gt;BB19</title>
<path fill="none" stroke="black" d="M2224.97,-887.52C2224.97,-879.35 2224.97,-870.57 2224.97,-862.04"/>
<polygon fill="black" stroke="black" points="2228.47,-861.82 2224.97,-851.82 2221.47,-861.82 2228.47,-861.82"/>
</g>
<!-- BB18 -->
<g id="node19" class="node">
<title>BB18</title>
<ellipse fill="none" stroke="black" cx="2486.97" cy="-703.2" rx="115.93" ry="37.45"/>
<text text-anchor="middle" x="2486.97" y="-714.5" font-family="Times New Roman,serif" font-size="14.00">[b7..bc)</text>
<text text-anchor="middle" x="2486.97" y="-699.5" font-family="Times New Roman,serif" font-size="14.00">Normalized Count: Infinity</text>
<text text-anchor="middle" x="2486.97" y="-684.5" font-family="Times New Roman,serif" font-size="14.00">Samples weight: 0.00</text>
</g>
<!-- BB12&#45;&gt;BB18 -->
<g id="edge17" class="edge">
<title>BB12&#45;&gt;BB18</title>
<path fill="none" stroke="black" d="M2482.32,-776.57C2482.84,-768.39 2483.41,-759.61 2483.95,-751.09"/>
<polygon fill="black" stroke="black" points="2487.46,-751.07 2484.61,-740.87 2480.48,-750.62 2487.46,-751.07"/>
</g>
<!-- BB13 -->
<g id="node14" class="node">
<title>BB13</title>
<ellipse fill="none" stroke="black" cx="2496.97" cy="-592.24" rx="115.93" ry="37.45"/>
<text text-anchor="middle" x="2496.97" y="-603.54" font-family="Times New Roman,serif" font-size="14.00">[81..8b)</text>
<text text-anchor="middle" x="2496.97" y="-588.54" font-family="Times New Roman,serif" font-size="14.00">Normalized Count: Infinity</text>
<text text-anchor="middle" x="2496.97" y="-573.54" font-family="Times New Roman,serif" font-size="14.00">Samples weight: 0.01</text>
</g>
<!-- BB14 -->
<g id="node15" class="node">
<title>BB14</title>
<ellipse fill="none" stroke="black" cx="2496.97" cy="-481.29" rx="115.93" ry="37.45"/>
<text text-anchor="middle" x="2496.97" y="-492.59" font-family="Times New Roman,serif" font-size="14.00">[8b..90)</text>
<text text-anchor="middle" x="2496.97" y="-477.59" font-family="Times New Roman,serif" font-size="14.00">Normalized Count: Infinity</text>
<text text-anchor="middle" x="2496.97" y="-462.59" font-family="Times New Roman,serif" font-size="14.00">Samples weight: 0.00</text>
</g>
<!-- BB13&#45;&gt;BB14 -->
<g id="edge19" class="edge">
<title>BB13&#45;&gt;BB14</title>
<path fill="none" stroke="black" d="M2496.97,-554.66C2496.97,-546.49 2496.97,-537.71 2496.97,-529.18"/>
<polygon fill="black" stroke="black" points="2500.47,-528.96 2496.97,-518.96 2493.47,-528.96 2500.47,-528.96"/>
</g>
<!-- BB17 -->
<g id="node18" class="node">
<title>BB17</title>
<ellipse fill="none" stroke="black" cx="2746.97" cy="-481.29" rx="115.93" ry="37.45"/>
<text text-anchor="middle" x="2746.97" y="-492.59" font-family="Times New Roman,serif" font-size="14.00">[ac..b7)</text>
<text text-anchor="middle" x="2746.97" y="-477.59" font-family="Times New Roman,serif" font-size="14.00">Normalized Count: Infinity</text>
<text text-anchor="middle" x="2746.97" y="-462.59" font-family="Times New Roman,serif" font-size="14.00">Samples weight: 0.01</text>
</g>
<!-- BB13&#45;&gt;BB17 -->
<g id="edge18" class="edge">
<title>BB13&#45;&gt;BB17</title>
<path fill="none" stroke="black" d="M2564.62,-561.76C2597.14,-547.59 2636.26,-530.54 2669.92,-515.87"/>
<polygon fill="black" stroke="black" points="2671.49,-519 2679.26,-511.8 2668.69,-512.58 2671.49,-519"/>
</g>
<!-- BB16 -->
<g id="node17" class="node">
<title>BB16</title>
<ellipse fill="none" stroke="black" cx="2727.97" cy="-370.34" rx="115.93" ry="37.45"/>
<text text-anchor="middle" x="2727.97" y="-381.64" font-family="Times New Roman,serif" font-size="14.00">[a7..ac)</text>
<text text-anchor="middle" x="2727.97" y="-366.64" font-family="Times New Roman,serif" font-size="14.00">Normalized Count: Infinity</text>
<text text-anchor="middle" x="2727.97" y="-351.64" font-family="Times New Roman,serif" font-size="14.00">Samples weight: 0.03</text>
</g>
<!-- BB14&#45;&gt;BB16 -->
<g id="edge20" class="edge">
<title>BB14&#45;&gt;BB16</title>
<path fill="none" stroke="black" d="M2561.31,-449.94C2590.23,-436.3 2624.5,-420.14 2654.43,-406.02"/>
<polygon fill="black" stroke="black" points="2656.01,-409.14 2663.56,-401.71 2653.03,-402.81 2656.01,-409.14"/>
</g>
<!-- BB15 -->
<g id="node16" class="node">
<title>BB15</title>
<ellipse fill="none" stroke="black" cx="2727.97" cy="-259.38" rx="115.93" ry="37.45"/>
<text text-anchor="middle" x="2727.97" y="-270.68" font-family="Times New Roman,serif" font-size="14.00">[90..a7)</text>
<text text-anchor="middle" x="2727.97" y="-255.68" font-family="Times New Roman,serif" font-size="14.00">Normalized Count: Infinity</text>
<text text-anchor="middle" x="2727.97" y="-240.68" font-family="Times New Roman,serif" font-size="14.00">Samples weight: 0.39</text>
</g>
<!-- BB15&#45;&gt;BB16 -->
<g id="edge21" class="edge">
<title>BB15&#45;&gt;BB16</title>
<path fill="none" stroke="black" d="M2734.38,-297.06C2734.7,-305.23 2734.79,-314.02 2734.66,-322.54"/>
<polygon fill="black" stroke="black" points="2731.15,-322.66 2734.38,-332.75 2738.15,-322.85 2731.15,-322.66"/>
</g>
<!-- BB16&#45;&gt;BB15 -->
<g id="edge22" class="edge">
<title>BB16&#45;&gt;BB15</title>
<path fill="none" stroke="black" d="M2721.55,-332.75C2721.23,-324.58 2721.14,-315.8 2721.27,-307.27"/>
<polygon fill="black" stroke="black" points="2724.78,-307.15 2721.55,-297.06 2717.78,-306.96 2724.78,-307.15"/>
</g>
<!-- BB16&#45;&gt;BB17 -->
<g id="edge23" class="edge">
<title>BB16&#45;&gt;BB17</title>
<path fill="none" stroke="black" d="M2734.36,-408.01C2735.8,-416.28 2737.35,-425.16 2738.85,-433.77"/>
<polygon fill="black" stroke="black" points="2735.42,-434.46 2740.59,-443.71 2742.32,-433.25 2735.42,-434.46"/>
</g>
<!-- BB17&#45;&gt;BB18 -->
<g id="edge24" class="edge">
<title>BB17&#45;&gt;BB18</title>
<path fill="none" stroke="black" d="M2722.61,-518.06C2699.46,-550.17 2662.28,-597.11 2621.97,-629.72 2604.13,-644.15 2582.99,-657.08 2562.8,-667.89"/>
<polygon fill="black" stroke="black" points="2561.14,-664.8 2553.91,-672.54 2564.39,-671 2561.14,-664.8"/>
</g>
<!-- BB18&#45;&gt;BB13 -->
<g id="edge25" class="edge">
<title>BB18&#45;&gt;BB13</title>
<path fill="none" stroke="black" d="M2490.32,-665.61C2491.07,-657.44 2491.88,-648.66 2492.66,-640.13"/>
<polygon fill="black" stroke="black" points="2496.17,-640.19 2493.6,-629.92 2489.2,-639.55 2496.17,-640.19"/>
</g>
<!-- BB18&#45;&gt;BB19 -->
<g id="edge26" class="edge">
<title>BB18&#45;&gt;BB19</title>
<path fill="none" stroke="black" d="M2417.29,-733.17C2382.53,-747.63 2340.33,-765.17 2304.33,-780.15"/>
<polygon fill="black" stroke="black" points="2302.72,-777.02 2294.83,-784.1 2305.41,-783.49 2302.72,-777.02"/>
</g>
<!-- BB27 -->
<g id="node28" class="node">
<title>BB27</title>
<ellipse fill="none" stroke="black" cx="2217.97" cy="-703.2" rx="115.93" ry="37.45"/>
<text text-anchor="middle" x="2217.97" y="-714.5" font-family="Times New Roman,serif" font-size="14.00">[11b..11f)</text>
<text text-anchor="middle" x="2217.97" y="-699.5" font-family="Times New Roman,serif" font-size="14.00">Normalized Count: Infinity</text>
<text text-anchor="middle" x="2217.97" y="-684.5" font-family="Times New Roman,serif" font-size="14.00">Samples weight: 0.00</text>
</g>
<!-- BB19&#45;&gt;BB27 -->
<g id="edge27" class="edge">
<title>BB19&#45;&gt;BB27</title>
<path fill="none" stroke="black" d="M2222.62,-776.57C2222.09,-768.39 2221.53,-759.61 2220.98,-751.09"/>
<polygon fill="black" stroke="black" points="2224.46,-750.62 2220.32,-740.87 2217.47,-751.07 2224.46,-750.62"/>
</g>
<!-- BB20 -->
<g id="node21" class="node">
<title>BB20</title>
<ellipse fill="none" stroke="black" cx="2208.97" cy="-592.24" rx="115.93" ry="37.45"/>
<text text-anchor="middle" x="2208.97" y="-603.54" font-family="Times New Roman,serif" font-size="14.00">[cb..d6)</text>
<text text-anchor="middle" x="2208.97" y="-588.54" font-family="Times New Roman,serif" font-size="14.00">Normalized Count: Infinity</text>
<text text-anchor="middle" x="2208.97" y="-573.54" font-family="Times New Roman,serif" font-size="14.00">Samples weight: 0.02</text>
</g>
<!-- BB21 -->
<g id="node22" class="node">
<title>BB21</title>
<ellipse fill="none" stroke="black" cx="1958.97" cy="-481.29" rx="115.93" ry="37.45"/>
<text text-anchor="middle" x="1958.97" y="-492.59" font-family="Times New Roman,serif" font-size="14.00">[d6..db)</text>
<text text-anchor="middle" x="1958.97" y="-477.59" font-family="Times New Roman,serif" font-size="14.00">Normalized Count: Infinity</text>
<text text-anchor="middle" x="1958.97" y="-462.59" font-family="Times New Roman,serif" font-size="14.00">Samples weight: 0.00</text>
</g>
<!-- BB20&#45;&gt;BB21 -->
<g id="edge29" class="edge">
<title>BB20&#45;&gt;BB21</title>
<path fill="none" stroke="black" d="M2141.31,-561.76C2108.8,-547.59 2069.67,-530.54 2036.01,-515.87"/>
<polygon fill="black" stroke="black" points="2037.24,-512.58 2026.67,-511.8 2034.44,-519 2037.24,-512.58"/>
</g>
<!-- BB24 -->
<g id="node25" class="node">
<title>BB24</title>
<ellipse fill="none" stroke="black" cx="2208.97" cy="-481.29" rx="115.93" ry="37.45"/>
<text text-anchor="middle" x="2208.97" y="-492.59" font-family="Times New Roman,serif" font-size="14.00">[f8..112)</text>
<text text-anchor="middle" x="2208.97" y="-477.59" font-family="Times New Roman,serif" font-size="14.00">Normalized Count: Infinity</text>
<text text-anchor="middle" x="2208.97" y="-462.59" font-family="Times New Roman,serif" font-size="14.00">Samples weight: 0.02</text>
</g>
<!-- BB20&#45;&gt;BB24 -->
<g id="edge28" class="edge">
<title>BB20&#45;&gt;BB24</title>
<path fill="none" stroke="black" d="M2208.97,-554.66C2208.97,-546.49 2208.97,-537.71 2208.97,-529.18"/>
<polygon fill="black" stroke="black" points="2212.47,-528.96 2208.97,-518.96 2205.47,-528.96 2212.47,-528.96"/>
</g>
<!-- BB23 -->
<g id="node24" class="node">
<title>BB23</title>
<ellipse fill="none" stroke="black" cx="1958.97" cy="-370.34" rx="115.93" ry="37.45"/>
<text text-anchor="middle" x="1958.97" y="-381.64" font-family="Times New Roman,serif" font-size="14.00">[f2..f8)</text>
<text text-anchor="middle" x="1958.97" y="-366.64" font-family="Times New Roman,serif" font-size="14.00">Normalized Count: Infinity</text>
<text text-anchor="middle" x="1958.97" y="-351.64" font-family="Times New Roman,serif" font-size="14.00">Samples weight: 0.03</text>
</g>
<!-- BB21&#45;&gt;BB23 -->
<g id="edge30" class="edge">
<title>BB21&#45;&gt;BB23</title>
<path fill="none" stroke="black" d="M1958.97,-443.71C1958.97,-435.53 1958.97,-426.75 1958.97,-418.23"/>
<polygon fill="black" stroke="black" points="1962.47,-418.01 1958.97,-408.01 1955.47,-418.01 1962.47,-418.01"/>
</g>
<!-- BB22 -->
<g id="node23" class="node">
<title>BB22</title>
<ellipse fill="none" stroke="black" cx="1958.97" cy="-259.38" rx="115.93" ry="37.45"/>
<text text-anchor="middle" x="1958.97" y="-270.68" font-family="Times New Roman,serif" font-size="14.00">[db..f2)</text>
<text text-anchor="middle" x="1958.97" y="-255.68" font-family="Times New Roman,serif" font-size="14.00">Normalized Count: Infinity</text>
<text text-anchor="middle" x="1958.97" y="-240.68" font-family="Times New Roman,serif" font-size="14.00">Samples weight: 0.38</text>
</g>
<!-- BB22&#45;&gt;BB23 -->
<g id="edge31" class="edge">
<title>BB22&#45;&gt;BB23</title>
<path fill="none" stroke="black" d="M1965.38,-297.06C1965.7,-305.23 1965.79,-314.02 1965.66,-322.54"/>
<polygon fill="black" stroke="black" points="1962.15,-322.66 1965.38,-332.75 1969.15,-322.85 1962.15,-322.66"/>
</g>
<!-- BB23&#45;&gt;BB22 -->
<g id="edge32" class="edge">
<title>BB23&#45;&gt;BB22</title>
<path fill="none" stroke="black" d="M1952.55,-332.75C1952.23,-324.58 1952.14,-315.8 1952.27,-307.27"/>
<polygon fill="black" stroke="black" points="1955.78,-307.15 1952.55,-297.06 1948.78,-306.96 1955.78,-307.15"/>
</g>
<!-- BB23&#45;&gt;BB24 -->
<g id="edge33" class="edge">
<title>BB23&#45;&gt;BB24</title>
<path fill="none" stroke="black" d="M2026.67,-400.84C2059.2,-415.02 2098.32,-432.07 2131.98,-446.74"/>
<polygon fill="black" stroke="black" points="2130.75,-450.02 2141.31,-450.81 2133.54,-443.6 2130.75,-450.02"/>
</g>
<!-- BB25 -->
<g id="node26" class="node">
<title>BB25</title>
<ellipse fill="none" stroke="black" cx="2208.97" cy="-370.34" rx="115.93" ry="37.45"/>
<text text-anchor="middle" x="2208.97" y="-381.64" font-family="Times New Roman,serif" font-size="14.00">[112..117)</text>
<text text-anchor="middle" x="2208.97" y="-366.64" font-family="Times New Roman,serif" font-size="14.00">Normalized Count: Infinity</text>
<text text-anchor="middle" x="2208.97" y="-351.64" font-family="Times New Roman,serif" font-size="14.00">Samples weight: 0.00</text>
</g>
<!-- BB24&#45;&gt;BB25 -->
<g id="edge35" class="edge">
<title>BB24&#45;&gt;BB25</title>
<path fill="none" stroke="black" d="M2208.97,-443.71C2208.97,-435.53 2208.97,-426.75 2208.97,-418.23"/>
<polygon fill="black" stroke="black" points="2212.47,-418.01 2208.97,-408.01 2205.47,-418.01 2212.47,-418.01"/>
</g>
<!-- BB26 -->
<g id="node27" class="node">
<title>BB26</title>
<ellipse fill="none" stroke="black" cx="2458.97" cy="-370.34" rx="115.93" ry="37.45"/>
<text text-anchor="middle" x="2458.97" y="-381.64" font-family="Times New Roman,serif" font-size="14.00">[117..11b)</text>
<text text-anchor="middle" x="2458.97" y="-366.64" font-family="Times New Roman,serif" font-size="14.00">Normalized Count: Infinity</text>
<text text-anchor="middle" x="2458.97" y="-351.64" font-family="Times New Roman,serif" font-size="14.00">Samples weight: 0.00</text>
</g>
<!-- BB24&#45;&gt;BB26 -->
<g id="edge34" class="edge">
<title>BB24&#45;&gt;BB26</title>
<path fill="none" stroke="black" d="M2276.62,-450.81C2309.14,-436.63 2348.26,-419.58 2381.92,-404.91"/>
<polygon fill="black" stroke="black" points="2383.49,-408.05 2391.26,-400.84 2380.69,-401.63 2383.49,-408.05"/>
</g>
<!-- BB25&#45;&gt;BB26 -->
<g id="edge36" class="edge">
<title>BB25&#45;&gt;BB26</title>
<path fill="none" stroke="black" d="M2325.18,-370.34C2327.68,-370.34 2330.17,-370.34 2332.67,-370.34"/>
<polygon fill="black" stroke="black" points="2332.95,-373.84 2342.95,-370.34 2332.95,-366.84 2332.95,-373.84"/>
</g>
<!-- BB26&#45;&gt;BB27 -->
<g id="edge37" class="edge">
<title>BB26&#45;&gt;BB27</title>
<path fill="none" stroke="black" d="M2408.12,-404.08C2394.49,-415.16 2381.05,-428.63 2371.97,-443.81 2328.68,-516.19 2382.07,-560.45 2333.97,-629.72 2323.62,-644.61 2309.13,-657.07 2293.88,-667.22"/>
<polygon fill="black" stroke="black" points="2291.93,-664.31 2285.36,-672.62 2295.68,-670.23 2291.93,-664.31"/>
</g>
<!-- BB27&#45;&gt;BB20 -->
<g id="edge38" class="edge">
<title>BB27&#45;&gt;BB20</title>
<path fill="none" stroke="black" d="M2214.94,-665.61C2214.27,-657.44 2213.54,-648.66 2212.84,-640.13"/>
<polygon fill="black" stroke="black" points="2216.31,-639.59 2211.99,-629.92 2209.33,-640.17 2216.31,-639.59"/>
</g>
<!-- BB28 -->
<g id="node29" class="node">
<title>BB28</title>
<ellipse fill="none" stroke="black" cx="1708.97" cy="-592.24" rx="115.93" ry="37.45"/>
<text text-anchor="middle" x="1708.97" y="-603.54" font-family="Times New Roman,serif" font-size="14.00">[11f..125)</text>
<text text-anchor="middle" x="1708.97" y="-588.54" font-family="Times New Roman,serif" font-size="14.00">Normalized Count: Infinity</text>
<text text-anchor="middle" x="1708.97" y="-573.54" font-family="Times New Roman,serif" font-size="14.00">Samples weight: 0.00</text>
</g>
<!-- BB27&#45;&gt;BB28 -->
<g id="edge39" class="edge">
<title>BB27&#45;&gt;BB28</title>
<path fill="none" stroke="black" d="M2122.53,-681.77C2034.85,-663 1905.13,-635.23 1814.42,-615.82"/>
<polygon fill="black" stroke="black" points="1814.9,-612.34 1804.39,-613.67 1813.44,-619.18 1814.9,-612.34"/>
</g>
<!-- BB29 -->
<g id="node30" class="node">
<title>BB29</title>
<ellipse fill="none" stroke="black" cx="1708.97" cy="-481.29" rx="115.93" ry="37.45"/>
<text text-anchor="middle" x="1708.97" y="-492.59" font-family="Times New Roman,serif" font-size="14.00">[125..12a)</text>
<text text-anchor="middle" x="1708.97" y="-477.59" font-family="Times New Roman,serif" font-size="14.00">Normalized Count: Infinity</text>
<text text-anchor="middle" x="1708.97" y="-462.59" font-family="Times New Roman,serif" font-size="14.00">Samples weight: 0.00</text>
</g>
<!-- BB28&#45;&gt;BB29 -->
<g id="edge41" class="edge">
<title>BB28&#45;&gt;BB29</title>
<path fill="none" stroke="black" d="M1708.97,-554.66C1708.97,-546.49 1708.97,-537.71 1708.97,-529.18"/>
<polygon fill="black" stroke="black" points="1712.47,-528.96 1708.97,-518.96 1705.47,-528.96 1712.47,-528.96"/>
</g>
<!-- BB33 -->
<g id="node34" class="node">
<title>BB33</title>
<ellipse fill="none" stroke="black" cx="1431.97" cy="-481.29" rx="115.93" ry="37.45"/>
<text text-anchor="middle" x="1431.97" y="-492.59" font-family="Times New Roman,serif" font-size="14.00">[17a..192)</text>
<text text-anchor="middle" x="1431.97" y="-477.59" font-family="Times New Roman,serif" font-size="14.00">Normalized Count: Infinity</text>
<text text-anchor="middle" x="1431.97" y="-462.59" font-family="Times New Roman,serif" font-size="14.00">Samples weight: 0.00</text>
</g>
<!-- BB28&#45;&gt;BB33 -->
<g id="edge40" class="edge">
<title>BB28&#45;&gt;BB33</title>
<path fill="none" stroke="black" d="M1636.55,-562.76C1599.01,-548 1553.02,-529.91 1514.16,-514.62"/>
<polygon fill="black" stroke="black" points="1515.03,-511.2 1504.44,-510.8 1512.46,-517.71 1515.03,-511.2"/>
</g>
<!-- BB31 -->
<g id="node32" class="node">
<title>BB31</title>
<ellipse fill="none" stroke="black" cx="1708.97" cy="-370.34" rx="115.93" ry="37.45"/>
<text text-anchor="middle" x="1708.97" y="-381.64" font-family="Times New Roman,serif" font-size="14.00">[14e..153)</text>
<text text-anchor="middle" x="1708.97" y="-366.64" font-family="Times New Roman,serif" font-size="14.00">Normalized Count: Infinity</text>
<text text-anchor="middle" x="1708.97" y="-351.64" font-family="Times New Roman,serif" font-size="14.00">Samples weight: 0.00</text>
</g>
<!-- BB29&#45;&gt;BB31 -->
<g id="edge42" class="edge">
<title>BB29&#45;&gt;BB31</title>
<path fill="none" stroke="black" d="M1708.97,-443.71C1708.97,-435.53 1708.97,-426.75 1708.97,-418.23"/>
<polygon fill="black" stroke="black" points="1712.47,-418.01 1708.97,-408.01 1705.47,-418.01 1712.47,-418.01"/>
</g>
<!-- BB30 -->
<g id="node31" class="node">
<title>BB30</title>
<ellipse fill="none" stroke="black" cx="1708.97" cy="-259.38" rx="115.93" ry="37.45"/>
<text text-anchor="middle" x="1708.97" y="-270.68" font-family="Times New Roman,serif" font-size="14.00">[12a..14e)</text>
<text text-anchor="middle" x="1708.97" y="-255.68" font-family="Times New Roman,serif" font-size="14.00">Normalized Count: Infinity</text>
<text text-anchor="middle" x="1708.97" y="-240.68" font-family="Times New Roman,serif" font-size="14.00">Samples weight: 0.04</text>
</g>
<!-- BB30&#45;&gt;BB31 -->
<g id="edge43" class="edge">
<title>BB30&#45;&gt;BB31</title>
<path fill="none" stroke="black" d="M1715.38,-297.06C1715.7,-305.23 1715.79,-314.02 1715.66,-322.54"/>
<polygon fill="black" stroke="black" points="1712.15,-322.66 1715.38,-332.75 1719.15,-322.85 1712.15,-322.66"/>
</g>
<!-- BB31&#45;&gt;BB30 -->
<g id="edge44" class="edge">
<title>BB31&#45;&gt;BB30</title>
<path fill="none" stroke="black" d="M1702.55,-332.75C1702.23,-324.58 1702.14,-315.8 1702.27,-307.27"/>
<polygon fill="black" stroke="black" points="1705.78,-307.15 1702.55,-297.06 1698.78,-306.96 1705.78,-307.15"/>
</g>
<!-- BB32 -->
<g id="node33" class="node">
<title>BB32</title>
<ellipse fill="none" stroke="black" cx="1458.97" cy="-259.38" rx="115.93" ry="37.45"/>
<text text-anchor="middle" x="1458.97" y="-270.68" font-family="Times New Roman,serif" font-size="14.00">[153..17a)</text>
<text text-anchor="middle" x="1458.97" y="-255.68" font-family="Times New Roman,serif" font-size="14.00">Normalized Count: Infinity</text>
<text text-anchor="middle" x="1458.97" y="-240.68" font-family="Times New Roman,serif" font-size="14.00">Samples weight: 0.00</text>
</g>
<!-- BB31&#45;&gt;BB32 -->
<g id="edge45" class="edge">
<title>BB31&#45;&gt;BB32</title>
<path fill="none" stroke="black" d="M1641.31,-339.85C1608.8,-325.68 1569.67,-308.63 1536.01,-293.96"/>
<polygon fill="black" stroke="black" points="1537.24,-290.68 1526.67,-289.89 1534.44,-297.1 1537.24,-290.68"/>
</g>
<!-- BB32&#45;&gt;BB33 -->
<g id="edge46" class="edge">
<title>BB32&#45;&gt;BB33</title>
<path fill="none" stroke="black" d="M1497.78,-294.93C1507.57,-305.97 1516.77,-318.96 1521.97,-332.86 1533.63,-364.06 1536.35,-377.77 1521.97,-407.81 1515.83,-420.63 1506.21,-431.9 1495.49,-441.5"/>
<polygon fill="black" stroke="black" points="1492.93,-439.08 1487.53,-448.19 1497.43,-444.44 1492.93,-439.08"/>
</g>
<!-- BB34 -->
<g id="node35" class="node">
<title>BB34</title>
<ellipse fill="none" stroke="black" cx="1405.97" cy="-370.34" rx="106.55" ry="37.45"/>
<text text-anchor="middle" x="1405.97" y="-381.64" font-family="Times New Roman,serif" font-size="14.00">[192..19b)</text>
<text text-anchor="middle" x="1405.97" y="-366.64" font-family="Times New Roman,serif" font-size="14.00">Normalized Count: NaN</text>
<text text-anchor="middle" x="1405.97" y="-351.64" font-family="Times New Roman,serif" font-size="14.00">Samples weight: 0.00</text>
</g>
<!-- BB33&#45;&gt;BB34 -->
<g id="edge48" class="edge">
<title>BB33&#45;&gt;BB34</title>
<path fill="none" stroke="black" d="M1423.24,-443.71C1421.26,-435.44 1419.14,-426.56 1417.09,-417.95"/>
<polygon fill="black" stroke="black" points="1420.44,-416.92 1414.72,-408.01 1413.63,-418.55 1420.44,-416.92"/>
</g>
<!-- BB35 -->
<g id="node36" class="node">
<title>BB35</title>
<ellipse fill="none" stroke="black" cx="1173.97" cy="-370.34" rx="106.55" ry="37.45"/>
<text text-anchor="middle" x="1173.97" y="-381.64" font-family="Times New Roman,serif" font-size="14.00">[19b..1a2)</text>
<text text-anchor="middle" x="1173.97" y="-366.64" font-family="Times New Roman,serif" font-size="14.00">Normalized Count: NaN</text>
<text text-anchor="middle" x="1173.97" y="-351.64" font-family="Times New Roman,serif" font-size="14.00">Samples weight: 0.00</text>
</g>
<!-- BB33&#45;&gt;BB35 -->
<g id="edge47" class="edge">
<title>BB33&#45;&gt;BB35</title>
<path fill="none" stroke="black" d="M1362.83,-451.09C1328.16,-436.45 1286.08,-418.68 1250.45,-403.64"/>
<polygon fill="black" stroke="black" points="1251.64,-400.34 1241.07,-399.67 1248.92,-406.79 1251.64,-400.34"/>
</g>
<!-- BB34&#45;&gt;BB35 -->
<g id="edge49" class="edge">
<title>BB34&#45;&gt;BB35</title>
<path fill="none" stroke="black" d="M1298.98,-370.34C1296.34,-370.34 1293.71,-370.34 1291.07,-370.34"/>
<polygon fill="black" stroke="black" points="1290.9,-366.84 1280.9,-370.34 1290.9,-373.84 1290.9,-366.84"/>
</g>
<!-- BB36 -->
<g id="node37" class="node">
<title>BB36</title>
<ellipse fill="none" stroke="black" cx="1208.97" cy="-259.38" rx="115.93" ry="37.45"/>
<text text-anchor="middle" x="1208.97" y="-270.68" font-family="Times New Roman,serif" font-size="14.00">[1a2..1bb)</text>
<text text-anchor="middle" x="1208.97" y="-255.68" font-family="Times New Roman,serif" font-size="14.00">Normalized Count: Infinity</text>
<text text-anchor="middle" x="1208.97" y="-240.68" font-family="Times New Roman,serif" font-size="14.00">Samples weight: 0.00</text>
</g>
<!-- BB35&#45;&gt;BB36 -->
<g id="edge51" class="edge">
<title>BB35&#45;&gt;BB36</title>
<path fill="none" stroke="black" d="M1185.62,-333.06C1188.34,-324.6 1191.26,-315.48 1194.1,-306.66"/>
<polygon fill="black" stroke="black" points="1197.52,-307.47 1197.24,-296.88 1190.85,-305.33 1197.52,-307.47"/>
</g>
<!-- BB39 -->
<g id="node40" class="node">
<title>BB39</title>
<ellipse fill="none" stroke="black" cx="967.97" cy="-259.38" rx="106.55" ry="37.45"/>
<text text-anchor="middle" x="967.97" y="-270.68" font-family="Times New Roman,serif" font-size="14.00">[1d1..1d7)</text>
<text text-anchor="middle" x="967.97" y="-255.68" font-family="Times New Roman,serif" font-size="14.00">Normalized Count: NaN</text>
<text text-anchor="middle" x="967.97" y="-240.68" font-family="Times New Roman,serif" font-size="14.00">Samples weight: 0.00</text>
</g>
<!-- BB35&#45;&gt;BB39 -->
<g id="edge50" class="edge">
<title>BB35&#45;&gt;BB39</title>
<path fill="none" stroke="black" d="M1116.03,-338.7C1090.81,-325.35 1061.08,-309.63 1034.91,-295.79"/>
<polygon fill="black" stroke="black" points="1036.29,-292.56 1025.82,-290.98 1033.02,-298.75 1036.29,-292.56"/>
</g>
<!-- BB38 -->
<g id="node39" class="node">
<title>BB38</title>
<ellipse fill="none" stroke="black" cx="1087.97" cy="-148.43" rx="115.93" ry="37.45"/>
<text text-anchor="middle" x="1087.97" y="-159.73" font-family="Times New Roman,serif" font-size="14.00">[1cd..1d1)</text>
<text text-anchor="middle" x="1087.97" y="-144.73" font-family="Times New Roman,serif" font-size="14.00">Normalized Count: Infinity</text>
<text text-anchor="middle" x="1087.97" y="-129.73" font-family="Times New Roman,serif" font-size="14.00">Samples weight: 0.00</text>
</g>
<!-- BB36&#45;&gt;BB38 -->
<g id="edge52" class="edge">
<title>BB36&#45;&gt;BB38</title>
<path fill="none" stroke="black" d="M1170.68,-223.91C1158.98,-213.38 1146,-201.69 1133.85,-190.75"/>
<polygon fill="black" stroke="black" points="1136.19,-188.14 1126.42,-184.05 1131.51,-193.35 1136.19,-188.14"/>
</g>
<!-- BB37 -->
<g id="node38" class="node">
<title>BB37</title>
<ellipse fill="none" stroke="black" cx="1087.97" cy="-37.48" rx="115.93" ry="37.45"/>
<text text-anchor="middle" x="1087.97" y="-48.78" font-family="Times New Roman,serif" font-size="14.00">[1bb..1cd)</text>
<text text-anchor="middle" x="1087.97" y="-33.78" font-family="Times New Roman,serif" font-size="14.00">Normalized Count: Infinity</text>
<text text-anchor="middle" x="1087.97" y="-18.78" font-family="Times New Roman,serif" font-size="14.00">Samples weight: 0.02</text>
</g>
<!-- BB37&#45;&gt;BB38 -->
<g id="edge53" class="edge">
<title>BB37&#45;&gt;BB38</title>
<path fill="none" stroke="black" d="M1094.38,-75.15C1094.7,-83.33 1094.79,-92.11 1094.66,-100.63"/>
<polygon fill="black" stroke="black" points="1091.15,-100.76 1094.38,-110.85 1098.15,-100.94 1091.15,-100.76"/>
</g>
<!-- BB38&#45;&gt;BB37 -->
<g id="edge54" class="edge">
<title>BB38&#45;&gt;BB37</title>
<path fill="none" stroke="black" d="M1081.55,-110.85C1081.23,-102.67 1081.14,-93.89 1081.27,-85.37"/>
<polygon fill="black" stroke="black" points="1084.78,-85.24 1081.55,-75.15 1077.78,-85.05 1084.78,-85.24"/>
</g>
<!-- BB38&#45;&gt;BB39 -->
<g id="edge55" class="edge">
<title>BB38&#45;&gt;BB39</title>
<path fill="none" stroke="black" d="M1050.05,-183.86C1038.3,-194.52 1025.24,-206.38 1013.06,-217.44"/>
<polygon fill="black" stroke="black" points="1010.66,-214.9 1005.61,-224.21 1015.36,-220.08 1010.66,-214.9"/>
</g>
<!-- BB39&#45;&gt;BB40 -->
<g id="edge56" class="edge">
<title>BB39&#45;&gt;BB40</title>
<path fill="none" stroke="black" d="M974.4,-296.83C981.51,-340.34 991.97,-415.39 991.97,-480.29 991.97,-815.15 991.97,-815.15 991.97,-815.15 991.97,-881.22 987.9,-900.67 1010.97,-962.58 1014.6,-972.33 1019.76,-982.09 1025.36,-991.14"/>
<polygon fill="black" stroke="black" points="1022.45,-993.09 1030.82,-999.58 1028.32,-989.29 1022.45,-993.09"/>
</g>
<!-- BB40&#45;&gt;BB11 -->
<g id="edge57" class="edge">
<title>BB40&#45;&gt;BB11</title>
<path fill="none" stroke="black" d="M1161.42,-1025.48C1378.97,-1005.15 1885.62,-957.81 2112.09,-936.65"/>
<polygon fill="black" stroke="black" points="2112.7,-940.11 2122.33,-935.69 2112.05,-933.14 2112.7,-940.11"/>
</g>
<!-- BB41 -->
<g id="node42" class="node">
<title>BB41</title>
<ellipse fill="none" stroke="black" cx="1126.97" cy="-925.1" rx="106.55" ry="37.45"/>
<text text-anchor="middle" x="1126.97" y="-936.4" font-family="Times New Roman,serif" font-size="14.00">[1df..1e1)</text>
<text text-anchor="middle" x="1126.97" y="-921.4" font-family="Times New Roman,serif" font-size="14.00">Normalized Count: NaN</text>
<text text-anchor="middle" x="1126.97" y="-906.4" font-family="Times New Roman,serif" font-size="14.00">Samples weight: 0.00</text>
</g>
<!-- BB40&#45;&gt;BB41 -->
<g id="edge58" class="edge">
<title>BB40&#45;&gt;BB41</title>
<path fill="none" stroke="black" d="M1081.23,-999.38C1086.98,-990.16 1093.25,-980.13 1099.24,-970.52"/>
<polygon fill="black" stroke="black" points="1102.32,-972.2 1104.65,-961.86 1096.39,-968.49 1102.32,-972.2"/>
</g>
</g>
</svg>
