<?xml version="1.0" encoding="UTF-8" standalone="no"?>
<!DOCTYPE svg PUBLIC "-//W3C//DTD SVG 1.1//EN"
 "http://www.w3.org/Graphics/SVG/1.1/DTD/svg11.dtd">
<!-- Generated by graphviz version 2.47.0 (20210316.0004)
 -->
<!-- Title: G Pages: 1 -->
<svg width="1218pt" height="1029pt"
 viewBox="0.00 0.00 1218.32 1029.33" xmlns="http://www.w3.org/2000/svg" xmlns:xlink="http://www.w3.org/1999/xlink">
<g id="graph0" class="graph" transform="scale(1 1) rotate(0) translate(4 1025.33)">
<title>G</title>
<polygon fill="white" stroke="transparent" points="-4,4 -4,-1025.33 1214.32,-1025.33 1214.32,4 -4,4"/>
<!-- BB0 -->
<g id="node1" class="node">
<title>BB0</title>
<ellipse fill="none" stroke="black" cx="591.09" cy="-973.25" rx="103.48" ry="48.17"/>
<text text-anchor="middle" x="591.09" y="-992.05" font-family="Times New Roman,serif" font-size="14.00">[0..6)</text>
<text text-anchor="middle" x="591.09" y="-977.05" font-family="Times New Roman,serif" font-size="14.00">Count: 2</text>
<text text-anchor="middle" x="591.09" y="-962.05" font-family="Times New Roman,serif" font-size="14.00">Normalized count: 1.00</text>
<text text-anchor="middle" x="591.09" y="-947.05" font-family="Times New Roman,serif" font-size="14.00">Samples weight: 0.00</text>
</g>
<!-- BB9 -->
<g id="node10" class="node">
<title>BB9</title>
<ellipse fill="none" stroke="black" cx="591.09" cy="-841.08" rx="113.27" ry="48.17"/>
<text text-anchor="middle" x="591.09" y="-859.88" font-family="Times New Roman,serif" font-size="14.00">[4d..51)</text>
<text text-anchor="middle" x="591.09" y="-844.88" font-family="Times New Roman,serif" font-size="14.00">Count: 240</text>
<text text-anchor="middle" x="591.09" y="-829.88" font-family="Times New Roman,serif" font-size="14.00">Normalized count: 120.00</text>
<text text-anchor="middle" x="591.09" y="-814.88" font-family="Times New Roman,serif" font-size="14.00">Samples weight: 0.00</text>
</g>
<!-- BB0&#45;&gt;BB9 -->
<g id="edge1" class="edge">
<title>BB0&#45;&gt;BB9</title>
<path fill="none" stroke="black" d="M591.09,-924.89C591.09,-916.62 591.09,-907.94 591.09,-899.43"/>
<polygon fill="black" stroke="black" points="594.59,-899.19 591.09,-889.19 587.59,-899.19 594.59,-899.19"/>
</g>
<!-- BB1 -->
<g id="node2" class="node">
<title>BB1</title>
<ellipse fill="none" stroke="black" cx="404.09" cy="-708.92" rx="113.27" ry="48.17"/>
<text text-anchor="middle" x="404.09" y="-727.72" font-family="Times New Roman,serif" font-size="14.00">[6..19)</text>
<text text-anchor="middle" x="404.09" y="-712.72" font-family="Times New Roman,serif" font-size="14.00">Count: 238</text>
<text text-anchor="middle" x="404.09" y="-697.72" font-family="Times New Roman,serif" font-size="14.00">Normalized count: 119.00</text>
<text text-anchor="middle" x="404.09" y="-682.72" font-family="Times New Roman,serif" font-size="14.00">Samples weight: 0.00</text>
</g>
<!-- BB2 -->
<g id="node3" class="node">
<title>BB2</title>
<ellipse fill="none" stroke="black" cx="144.09" cy="-576.75" rx="113.27" ry="48.17"/>
<text text-anchor="middle" x="144.09" y="-595.55" font-family="Times New Roman,serif" font-size="14.00">[19..1d)</text>
<text text-anchor="middle" x="144.09" y="-580.55" font-family="Times New Roman,serif" font-size="14.00">Count: 238</text>
<text text-anchor="middle" x="144.09" y="-565.55" font-family="Times New Roman,serif" font-size="14.00">Normalized count: 119.00</text>
<text text-anchor="middle" x="144.09" y="-550.55" font-family="Times New Roman,serif" font-size="14.00">Samples weight: 0.00</text>
</g>
<!-- BB1&#45;&gt;BB2 -->
<g id="edge3" class="edge">
<title>BB1&#45;&gt;BB2</title>
<path fill="none" stroke="black" d="M332.01,-671.83C298.9,-655.25 259.49,-635.52 225.33,-618.42"/>
<polygon fill="black" stroke="black" points="226.82,-615.25 216.31,-613.91 223.68,-621.51 226.82,-615.25"/>
</g>
<!-- BB6 -->
<g id="node7" class="node">
<title>BB6</title>
<ellipse fill="none" stroke="black" cx="404.09" cy="-576.75" rx="103.48" ry="48.17"/>
<text text-anchor="middle" x="404.09" y="-595.55" font-family="Times New Roman,serif" font-size="14.00">[35..42)</text>
<text text-anchor="middle" x="404.09" y="-580.55" font-family="Times New Roman,serif" font-size="14.00">Count: 0</text>
<text text-anchor="middle" x="404.09" y="-565.55" font-family="Times New Roman,serif" font-size="14.00">Normalized count: 0.00</text>
<text text-anchor="middle" x="404.09" y="-550.55" font-family="Times New Roman,serif" font-size="14.00">Samples weight: 0.00</text>
</g>
<!-- BB1&#45;&gt;BB6 -->
<g id="edge2" class="edge">
<title>BB1&#45;&gt;BB6</title>
<path fill="none" stroke="black" d="M404.09,-660.55C404.09,-652.29 404.09,-643.6 404.09,-635.1"/>
<polygon fill="black" stroke="black" points="407.59,-634.86 404.09,-624.86 400.59,-634.86 407.59,-634.86"/>
</g>
<!-- BB4 -->
<g id="node5" class="node">
<title>BB4</title>
<ellipse fill="none" stroke="black" cx="118.09" cy="-444.58" rx="118.17" ry="48.17"/>
<text text-anchor="middle" x="118.09" y="-463.38" font-family="Times New Roman,serif" font-size="14.00">[2f..33)</text>
<text text-anchor="middle" x="118.09" y="-448.38" font-family="Times New Roman,serif" font-size="14.00">Count: 11938</text>
<text text-anchor="middle" x="118.09" y="-433.38" font-family="Times New Roman,serif" font-size="14.00">Normalized count: 5969.00</text>
<text text-anchor="middle" x="118.09" y="-418.38" font-family="Times New Roman,serif" font-size="14.00">Samples weight: 0.24</text>
</g>
<!-- BB2&#45;&gt;BB4 -->
<g id="edge4" class="edge">
<title>BB2&#45;&gt;BB4</title>
<path fill="none" stroke="black" d="M134.7,-528.76C133.03,-520.38 131.27,-511.57 129.55,-502.95"/>
<polygon fill="black" stroke="black" points="132.94,-502.06 127.55,-492.94 126.07,-503.44 132.94,-502.06"/>
</g>
<!-- BB3 -->
<g id="node4" class="node">
<title>BB3</title>
<ellipse fill="none" stroke="black" cx="118.09" cy="-312.42" rx="118.17" ry="48.17"/>
<text text-anchor="middle" x="118.09" y="-331.22" font-family="Times New Roman,serif" font-size="14.00">[1d..2f)</text>
<text text-anchor="middle" x="118.09" y="-316.22" font-family="Times New Roman,serif" font-size="14.00">Count: 11700</text>
<text text-anchor="middle" x="118.09" y="-301.22" font-family="Times New Roman,serif" font-size="14.00">Normalized count: 5850.00</text>
<text text-anchor="middle" x="118.09" y="-286.22" font-family="Times New Roman,serif" font-size="14.00">Samples weight: 0.24</text>
</g>
<!-- BB3&#45;&gt;BB4 -->
<g id="edge5" class="edge">
<title>BB3&#45;&gt;BB4</title>
<path fill="none" stroke="black" d="M124.6,-360.52C124.82,-368.78 124.89,-377.46 124.8,-385.97"/>
<polygon fill="black" stroke="black" points="121.29,-386.16 124.61,-396.22 128.29,-386.29 121.29,-386.16"/>
</g>
<!-- BB4&#45;&gt;BB3 -->
<g id="edge6" class="edge">
<title>BB4&#45;&gt;BB3</title>
<path fill="none" stroke="black" d="M111.56,-396.22C111.35,-387.95 111.29,-379.27 111.38,-370.77"/>
<polygon fill="black" stroke="black" points="114.88,-370.59 111.57,-360.52 107.88,-370.46 114.88,-370.59"/>
</g>
<!-- BB5 -->
<g id="node6" class="node">
<title>BB5</title>
<ellipse fill="none" stroke="black" cx="427.09" cy="-312.42" rx="113.27" ry="48.17"/>
<text text-anchor="middle" x="427.09" y="-331.22" font-family="Times New Roman,serif" font-size="14.00">[33..35)</text>
<text text-anchor="middle" x="427.09" y="-316.22" font-family="Times New Roman,serif" font-size="14.00">Count: 238</text>
<text text-anchor="middle" x="427.09" y="-301.22" font-family="Times New Roman,serif" font-size="14.00">Normalized count: 119.00</text>
<text text-anchor="middle" x="427.09" y="-286.22" font-family="Times New Roman,serif" font-size="14.00">Samples weight: 0.00</text>
</g>
<!-- BB4&#45;&gt;BB5 -->
<g id="edge7" class="edge">
<title>BB4&#45;&gt;BB5</title>
<path fill="none" stroke="black" d="M199.27,-409.38C242.09,-391.35 294.69,-369.19 338.56,-350.71"/>
<polygon fill="black" stroke="black" points="339.92,-353.93 347.78,-346.83 337.2,-347.48 339.92,-353.93"/>
</g>
<!-- BB8 -->
<g id="node9" class="node">
<title>BB8</title>
<ellipse fill="none" stroke="black" cx="591.09" cy="-444.58" rx="113.27" ry="48.17"/>
<text text-anchor="middle" x="591.09" y="-463.38" font-family="Times New Roman,serif" font-size="14.00">[44..4d)</text>
<text text-anchor="middle" x="591.09" y="-448.38" font-family="Times New Roman,serif" font-size="14.00">Count: 238</text>
<text text-anchor="middle" x="591.09" y="-433.38" font-family="Times New Roman,serif" font-size="14.00">Normalized count: 119.00</text>
<text text-anchor="middle" x="591.09" y="-418.38" font-family="Times New Roman,serif" font-size="14.00">Samples weight: 0.00</text>
</g>
<!-- BB5&#45;&gt;BB8 -->
<g id="edge8" class="edge">
<title>BB5&#45;&gt;BB8</title>
<path fill="none" stroke="black" d="M479.78,-355.24C495.87,-368.01 513.69,-382.15 530.27,-395.31"/>
<polygon fill="black" stroke="black" points="528.28,-398.21 538.29,-401.68 532.64,-392.72 528.28,-398.21"/>
</g>
<!-- BB7 -->
<g id="node8" class="node">
<title>BB7</title>
<ellipse fill="none" stroke="black" cx="357.09" cy="-444.58" rx="103.48" ry="48.17"/>
<text text-anchor="middle" x="357.09" y="-463.38" font-family="Times New Roman,serif" font-size="14.00">[42..44)</text>
<text text-anchor="middle" x="357.09" y="-448.38" font-family="Times New Roman,serif" font-size="14.00">Count: 0</text>
<text text-anchor="middle" x="357.09" y="-433.38" font-family="Times New Roman,serif" font-size="14.00">Normalized count: 0.00</text>
<text text-anchor="middle" x="357.09" y="-418.38" font-family="Times New Roman,serif" font-size="14.00">Samples weight: 0.00</text>
</g>
<!-- BB6&#45;&gt;BB7 -->
<g id="edge10" class="edge">
<title>BB6&#45;&gt;BB7</title>
<path fill="none" stroke="black" d="M387.25,-529.12C384.05,-520.24 380.66,-510.87 377.36,-501.73"/>
<polygon fill="black" stroke="black" points="380.65,-500.54 373.96,-492.32 374.07,-502.91 380.65,-500.54"/>
</g>
<!-- BB6&#45;&gt;BB8 -->
<g id="edge9" class="edge">
<title>BB6&#45;&gt;BB8</title>
<path fill="none" stroke="black" d="M460.7,-536.34C480.91,-522.27 503.87,-506.29 524.82,-491.71"/>
<polygon fill="black" stroke="black" points="526.84,-494.57 533.05,-485.98 522.84,-488.82 526.84,-494.57"/>
</g>
<!-- BB7&#45;&gt;BB8 -->
<g id="edge11" class="edge">
<title>BB7&#45;&gt;BB8</title>
<path fill="none" stroke="black" d="M460.38,-444.58C462.82,-444.58 465.26,-444.58 467.7,-444.58"/>
<polygon fill="black" stroke="black" points="467.74,-448.08 477.74,-444.58 467.74,-441.08 467.74,-448.08"/>
</g>
<!-- BB8&#45;&gt;BB9 -->
<g id="edge12" class="edge">
<title>BB8&#45;&gt;BB9</title>
<path fill="none" stroke="black" d="M591.09,-492.83C591.09,-565.48 591.09,-704.4 591.09,-782.72"/>
<polygon fill="black" stroke="black" points="587.59,-782.89 591.09,-792.89 594.59,-782.89 587.59,-782.89"/>
</g>
<!-- BB9&#45;&gt;BB1 -->
<g id="edge13" class="edge">
<title>BB9&#45;&gt;BB1</title>
<path fill="none" stroke="black" d="M532.94,-799.61C513.16,-785.84 490.89,-770.34 470.5,-756.15"/>
<polygon fill="black" stroke="black" points="472.4,-753.2 462.19,-750.36 468.4,-758.95 472.4,-753.2"/>
</g>
<!-- BB10 -->
<g id="node11" class="node">
<title>BB10</title>
<ellipse fill="none" stroke="black" cx="727.09" cy="-708.92" rx="103.48" ry="48.17"/>
<text text-anchor="middle" x="727.09" y="-727.72" font-family="Times New Roman,serif" font-size="14.00">[51..57)</text>
<text text-anchor="middle" x="727.09" y="-712.72" font-family="Times New Roman,serif" font-size="14.00">Count: 2</text>
<text text-anchor="middle" x="727.09" y="-697.72" font-family="Times New Roman,serif" font-size="14.00">Normalized count: 1.00</text>
<text text-anchor="middle" x="727.09" y="-682.72" font-family="Times New Roman,serif" font-size="14.00">Samples weight: 0.00</text>
</g>
<!-- BB9&#45;&gt;BB10 -->
<g id="edge14" class="edge">
<title>BB9&#45;&gt;BB10</title>
<path fill="none" stroke="black" d="M636.37,-796.74C648.77,-784.87 662.32,-771.91 675.06,-759.71"/>
<polygon fill="black" stroke="black" points="677.66,-762.07 682.46,-752.63 672.82,-757.01 677.66,-762.07"/>
</g>
<!-- BB16 -->
<g id="node17" class="node">
<title>BB16</title>
<ellipse fill="none" stroke="black" cx="802.09" cy="-576.75" rx="113.27" ry="48.17"/>
<text text-anchor="middle" x="802.09" y="-595.55" font-family="Times New Roman,serif" font-size="14.00">[8d..91)</text>
<text text-anchor="middle" x="802.09" y="-580.55" font-family="Times New Roman,serif" font-size="14.00">Count: 226</text>
<text text-anchor="middle" x="802.09" y="-565.55" font-family="Times New Roman,serif" font-size="14.00">Normalized count: 113.00</text>
<text text-anchor="middle" x="802.09" y="-550.55" font-family="Times New Roman,serif" font-size="14.00">Samples weight: 0.00</text>
</g>
<!-- BB10&#45;&gt;BB16 -->
<g id="edge15" class="edge">
<title>BB10&#45;&gt;BB16</title>
<path fill="none" stroke="black" d="M753.32,-662.39C758.82,-652.85 764.67,-642.69 770.34,-632.84"/>
<polygon fill="black" stroke="black" points="773.53,-634.32 775.49,-623.91 767.46,-630.83 773.53,-634.32"/>
</g>
<!-- BB11 -->
<g id="node12" class="node">
<title>BB11</title>
<ellipse fill="none" stroke="black" cx="873.09" cy="-444.58" rx="113.27" ry="48.17"/>
<text text-anchor="middle" x="873.09" y="-463.38" font-family="Times New Roman,serif" font-size="14.00">[57..62)</text>
<text text-anchor="middle" x="873.09" y="-448.38" font-family="Times New Roman,serif" font-size="14.00">Count: 224</text>
<text text-anchor="middle" x="873.09" y="-433.38" font-family="Times New Roman,serif" font-size="14.00">Normalized count: 112.00</text>
<text text-anchor="middle" x="873.09" y="-418.38" font-family="Times New Roman,serif" font-size="14.00">Samples weight: 0.00</text>
</g>
<!-- BB12 -->
<g id="node13" class="node">
<title>BB12</title>
<ellipse fill="none" stroke="black" cx="976.09" cy="-312.42" rx="113.27" ry="48.17"/>
<text text-anchor="middle" x="976.09" y="-331.22" font-family="Times New Roman,serif" font-size="14.00">[62..68)</text>
<text text-anchor="middle" x="976.09" y="-316.22" font-family="Times New Roman,serif" font-size="14.00">Count: 224</text>
<text text-anchor="middle" x="976.09" y="-301.22" font-family="Times New Roman,serif" font-size="14.00">Normalized count: 112.00</text>
<text text-anchor="middle" x="976.09" y="-286.22" font-family="Times New Roman,serif" font-size="14.00">Samples weight: 0.00</text>
</g>
<!-- BB11&#45;&gt;BB12 -->
<g id="edge17" class="edge">
<title>BB11&#45;&gt;BB12</title>
<path fill="none" stroke="black" d="M908.53,-398.79C916.79,-388.36 925.65,-377.15 934.16,-366.4"/>
<polygon fill="black" stroke="black" points="937.11,-368.31 940.57,-358.29 931.62,-363.96 937.11,-368.31"/>
</g>
<!-- BB15 -->
<g id="node16" class="node">
<title>BB15</title>
<ellipse fill="none" stroke="black" cx="732.09" cy="-312.42" rx="113.27" ry="48.17"/>
<text text-anchor="middle" x="732.09" y="-331.22" font-family="Times New Roman,serif" font-size="14.00">[7e..8d)</text>
<text text-anchor="middle" x="732.09" y="-316.22" font-family="Times New Roman,serif" font-size="14.00">Count: 224</text>
<text text-anchor="middle" x="732.09" y="-301.22" font-family="Times New Roman,serif" font-size="14.00">Normalized count: 112.00</text>
<text text-anchor="middle" x="732.09" y="-286.22" font-family="Times New Roman,serif" font-size="14.00">Samples weight: 0.00</text>
</g>
<!-- BB11&#45;&gt;BB15 -->
<g id="edge16" class="edge">
<title>BB11&#45;&gt;BB15</title>
<path fill="none" stroke="black" d="M826.53,-400.6C813.65,-388.72 799.57,-375.71 786.3,-363.46"/>
<polygon fill="black" stroke="black" points="788.32,-360.56 778.6,-356.35 783.57,-365.71 788.32,-360.56"/>
</g>
<!-- BB14 -->
<g id="node15" class="node">
<title>BB14</title>
<ellipse fill="none" stroke="black" cx="854.09" cy="-180.25" rx="118.17" ry="48.17"/>
<text text-anchor="middle" x="854.09" y="-199.05" font-family="Times New Roman,serif" font-size="14.00">[7a..7e)</text>
<text text-anchor="middle" x="854.09" y="-184.05" font-family="Times New Roman,serif" font-size="14.00">Count: 11928</text>
<text text-anchor="middle" x="854.09" y="-169.05" font-family="Times New Roman,serif" font-size="14.00">Normalized count: 5964.00</text>
<text text-anchor="middle" x="854.09" y="-154.05" font-family="Times New Roman,serif" font-size="14.00">Samples weight: 0.24</text>
</g>
<!-- BB12&#45;&gt;BB14 -->
<g id="edge18" class="edge">
<title>BB12&#45;&gt;BB14</title>
<path fill="none" stroke="black" d="M934.78,-267.35C924.46,-256.34 913.3,-244.43 902.66,-233.08"/>
<polygon fill="black" stroke="black" points="905.16,-230.62 895.76,-225.72 900.05,-235.41 905.16,-230.62"/>
</g>
<!-- BB13 -->
<g id="node14" class="node">
<title>BB13</title>
<ellipse fill="none" stroke="black" cx="854.09" cy="-48.08" rx="118.17" ry="48.17"/>
<text text-anchor="middle" x="854.09" y="-66.88" font-family="Times New Roman,serif" font-size="14.00">[68..7a)</text>
<text text-anchor="middle" x="854.09" y="-51.88" font-family="Times New Roman,serif" font-size="14.00">Count: 11704</text>
<text text-anchor="middle" x="854.09" y="-36.88" font-family="Times New Roman,serif" font-size="14.00">Normalized count: 5852.00</text>
<text text-anchor="middle" x="854.09" y="-21.88" font-family="Times New Roman,serif" font-size="14.00">Samples weight: 0.24</text>
</g>
<!-- BB13&#45;&gt;BB14 -->
<g id="edge19" class="edge">
<title>BB13&#45;&gt;BB14</title>
<path fill="none" stroke="black" d="M860.6,-96.19C860.82,-104.45 860.89,-113.13 860.8,-121.64"/>
<polygon fill="black" stroke="black" points="857.29,-121.83 860.61,-131.89 864.29,-121.95 857.29,-121.83"/>
</g>
<!-- BB14&#45;&gt;BB13 -->
<g id="edge20" class="edge">
<title>BB14&#45;&gt;BB13</title>
<path fill="none" stroke="black" d="M847.56,-131.89C847.35,-123.62 847.29,-114.94 847.38,-106.43"/>
<polygon fill="black" stroke="black" points="850.88,-106.26 847.57,-96.19 843.88,-106.12 850.88,-106.26"/>
</g>
<!-- BB14&#45;&gt;BB15 -->
<g id="edge21" class="edge">
<title>BB14&#45;&gt;BB15</title>
<path fill="none" stroke="black" d="M812.41,-225.72C802.07,-236.75 790.9,-248.66 780.28,-260"/>
<polygon fill="black" stroke="black" points="777.68,-257.66 773.39,-267.35 782.78,-262.45 777.68,-257.66"/>
</g>
<!-- BB15&#45;&gt;BB16 -->
<g id="edge22" class="edge">
<title>BB15&#45;&gt;BB16</title>
<path fill="none" stroke="black" d="M731.45,-360.68C732.28,-397.55 736.42,-449.56 751.09,-492.67 754.43,-502.5 759.11,-512.4 764.28,-521.76"/>
<polygon fill="black" stroke="black" points="761.33,-523.65 769.37,-530.55 767.39,-520.14 761.33,-523.65"/>
</g>
<!-- BB16&#45;&gt;BB11 -->
<g id="edge23" class="edge">
<title>BB16&#45;&gt;BB11</title>
<path fill="none" stroke="black" d="M827.12,-529.86C832.32,-520.33 837.84,-510.2 843.19,-500.39"/>
<polygon fill="black" stroke="black" points="846.33,-501.95 848.04,-491.5 840.18,-498.6 846.33,-501.95"/>
</g>
<!-- BB17 -->
<g id="node18" class="node">
<title>BB17</title>
<ellipse fill="none" stroke="black" cx="1107.09" cy="-444.58" rx="103.48" ry="48.17"/>
<text text-anchor="middle" x="1107.09" y="-463.38" font-family="Times New Roman,serif" font-size="14.00">[91..92)</text>
<text text-anchor="middle" x="1107.09" y="-448.38" font-family="Times New Roman,serif" font-size="14.00">Count: 2</text>
<text text-anchor="middle" x="1107.09" y="-433.38" font-family="Times New Roman,serif" font-size="14.00">Normalized count: 1.00</text>
<text text-anchor="middle" x="1107.09" y="-418.38" font-family="Times New Roman,serif" font-size="14.00">Samples weight: 0.00</text>
</g>
<!-- BB16&#45;&gt;BB17 -->
<g id="edge24" class="edge">
<title>BB16&#45;&gt;BB17</title>
<path fill="none" stroke="black" d="M881.03,-542.06C924.45,-523.53 978.33,-500.53 1022.6,-481.64"/>
<polygon fill="black" stroke="black" points="1024.07,-484.82 1031.89,-477.67 1021.32,-478.38 1024.07,-484.82"/>
</g>
</g>
</svg>
