<?xml version="1.0" encoding="UTF-8" standalone="no"?>
<!DOCTYPE svg PUBLIC "-//W3C//DTD SVG 1.1//EN"
 "http://www.w3.org/Graphics/SVG/1.1/DTD/svg11.dtd">
<!-- Generated by graphviz version 2.47.0 (20210316.0004)
 -->
<!-- Title: G Pages: 1 -->
<svg width="2933pt" height="1414pt"
 viewBox="0.00 0.00 2933.47 1414.39" xmlns="http://www.w3.org/2000/svg" xmlns:xlink="http://www.w3.org/1999/xlink">
<g id="graph0" class="graph" transform="scale(1 1) rotate(0) translate(4 1410.39)">
<title>G</title>
<polygon fill="white" stroke="transparent" points="-4,4 -4,-1410.39 2929.47,-1410.39 2929.47,4 -4,4"/>
<!-- BB0 -->
<g id="node1" class="node">
<title>BB0</title>
<ellipse fill="none" stroke="black" cx="634.26" cy="-1368.92" rx="105.22" ry="37.45"/>
<text text-anchor="middle" x="634.26" y="-1380.22" font-family="Times New Roman,serif" font-size="14.00">[0..15)</text>
<text text-anchor="middle" x="634.26" y="-1365.22" font-family="Times New Roman,serif" font-size="14.00">Normalized Count: 1.00</text>
<text text-anchor="middle" x="634.26" y="-1350.22" font-family="Times New Roman,serif" font-size="14.00">Samples weight: 0.00</text>
</g>
<!-- BB9 -->
<g id="node10" class="node">
<title>BB9</title>
<ellipse fill="none" stroke="black" cx="634.26" cy="-1257.96" rx="115.02" ry="37.45"/>
<text text-anchor="middle" x="634.26" y="-1269.26" font-family="Times New Roman,serif" font-size="14.00">[6d..71)</text>
<text text-anchor="middle" x="634.26" y="-1254.26" font-family="Times New Roman,serif" font-size="14.00">Normalized Count: 102.00</text>
<text text-anchor="middle" x="634.26" y="-1239.26" font-family="Times New Roman,serif" font-size="14.00">Samples weight: 0.00</text>
</g>
<!-- BB0&#45;&gt;BB9 -->
<g id="edge1" class="edge">
<title>BB0&#45;&gt;BB9</title>
<path fill="none" stroke="black" d="M634.26,-1331.33C634.26,-1323.16 634.26,-1314.38 634.26,-1305.85"/>
<polygon fill="black" stroke="black" points="637.76,-1305.64 634.26,-1295.64 630.76,-1305.64 637.76,-1305.64"/>
</g>
<!-- BB1 -->
<g id="node2" class="node">
<title>BB1</title>
<ellipse fill="none" stroke="black" cx="634.26" cy="-1147.01" rx="115.02" ry="37.45"/>
<text text-anchor="middle" x="634.26" y="-1158.31" font-family="Times New Roman,serif" font-size="14.00">[15..24)</text>
<text text-anchor="middle" x="634.26" y="-1143.31" font-family="Times New Roman,serif" font-size="14.00">Normalized Count: 101.00</text>
<text text-anchor="middle" x="634.26" y="-1128.31" font-family="Times New Roman,serif" font-size="14.00">Samples weight: 0.00</text>
</g>
<!-- BB5 -->
<g id="node6" class="node">
<title>BB5</title>
<ellipse fill="none" stroke="black" cx="634.26" cy="-1036.06" rx="124.4" ry="37.45"/>
<text text-anchor="middle" x="634.26" y="-1047.36" font-family="Times New Roman,serif" font-size="14.00">[44..49)</text>
<text text-anchor="middle" x="634.26" y="-1032.36" font-family="Times New Roman,serif" font-size="14.00">Normalized Count: 10302.00</text>
<text text-anchor="middle" x="634.26" y="-1017.36" font-family="Times New Roman,serif" font-size="14.00">Samples weight: 0.01</text>
</g>
<!-- BB1&#45;&gt;BB5 -->
<g id="edge2" class="edge">
<title>BB1&#45;&gt;BB5</title>
<path fill="none" stroke="black" d="M634.26,-1109.43C634.26,-1101.25 634.26,-1092.47 634.26,-1083.95"/>
<polygon fill="black" stroke="black" points="637.76,-1083.73 634.26,-1073.73 630.76,-1083.73 637.76,-1083.73"/>
</g>
<!-- BB2 -->
<g id="node3" class="node">
<title>BB2</title>
<ellipse fill="none" stroke="black" cx="634.26" cy="-925.1" rx="124.4" ry="37.45"/>
<text text-anchor="middle" x="634.26" y="-936.4" font-family="Times New Roman,serif" font-size="14.00">[24..32)</text>
<text text-anchor="middle" x="634.26" y="-921.4" font-family="Times New Roman,serif" font-size="14.00">Normalized Count: 10201.00</text>
<text text-anchor="middle" x="634.26" y="-906.4" font-family="Times New Roman,serif" font-size="14.00">Samples weight: 0.01</text>
</g>
<!-- BB3 -->
<g id="node4" class="node">
<title>BB3</title>
<ellipse fill="none" stroke="black" cx="593.26" cy="-814.15" rx="115.02" ry="37.45"/>
<text text-anchor="middle" x="593.26" y="-825.45" font-family="Times New Roman,serif" font-size="14.00">[32..3e)</text>
<text text-anchor="middle" x="593.26" y="-810.45" font-family="Times New Roman,serif" font-size="14.00">Normalized Count: 532.00</text>
<text text-anchor="middle" x="593.26" y="-795.45" font-family="Times New Roman,serif" font-size="14.00">Samples weight: 0.00</text>
</g>
<!-- BB2&#45;&gt;BB3 -->
<g id="edge4" class="edge">
<title>BB2&#45;&gt;BB3</title>
<path fill="none" stroke="black" d="M620.61,-887.82C617.39,-879.28 613.92,-870.06 610.57,-861.14"/>
<polygon fill="black" stroke="black" points="613.79,-859.77 606.99,-851.64 607.24,-862.23 613.79,-859.77"/>
</g>
<!-- BB4 -->
<g id="node5" class="node">
<title>BB4</title>
<ellipse fill="none" stroke="black" cx="851.26" cy="-814.15" rx="124.4" ry="37.45"/>
<text text-anchor="middle" x="851.26" y="-825.45" font-family="Times New Roman,serif" font-size="14.00">[3e..44)</text>
<text text-anchor="middle" x="851.26" y="-810.45" font-family="Times New Roman,serif" font-size="14.00">Normalized Count: 10201.00</text>
<text text-anchor="middle" x="851.26" y="-795.45" font-family="Times New Roman,serif" font-size="14.00">Samples weight: 0.01</text>
</g>
<!-- BB2&#45;&gt;BB4 -->
<g id="edge3" class="edge">
<title>BB2&#45;&gt;BB4</title>
<path fill="none" stroke="black" d="M697.02,-892.59C722.78,-879.66 752.74,-864.62 779.37,-851.25"/>
<polygon fill="black" stroke="black" points="781.27,-854.21 788.63,-846.59 778.13,-847.95 781.27,-854.21"/>
</g>
<!-- BB3&#45;&gt;BB4 -->
<g id="edge5" class="edge">
<title>BB3&#45;&gt;BB4</title>
<path fill="none" stroke="black" d="M708.65,-814.15C711.29,-814.15 713.93,-814.15 716.57,-814.15"/>
<polygon fill="black" stroke="black" points="716.76,-817.65 726.76,-814.15 716.76,-810.65 716.76,-817.65"/>
</g>
<!-- BB4&#45;&gt;BB5 -->
<g id="edge6" class="edge">
<title>BB4&#45;&gt;BB5</title>
<path fill="none" stroke="black" d="M837.3,-851.58C823.46,-883.91 799.64,-930.81 767.26,-962.58 752.11,-977.45 733.29,-990.14 714.62,-1000.56"/>
<polygon fill="black" stroke="black" points="712.91,-997.5 705.78,-1005.34 716.24,-1003.66 712.91,-997.5"/>
</g>
<!-- BB5&#45;&gt;BB2 -->
<g id="edge7" class="edge">
<title>BB5&#45;&gt;BB2</title>
<path fill="none" stroke="black" d="M634.26,-998.47C634.26,-990.3 634.26,-981.52 634.26,-972.99"/>
<polygon fill="black" stroke="black" points="637.76,-972.78 634.26,-962.78 630.76,-972.78 637.76,-972.78"/>
</g>
<!-- BB6 -->
<g id="node7" class="node">
<title>BB6</title>
<ellipse fill="none" stroke="black" cx="354.26" cy="-925.1" rx="115.02" ry="37.45"/>
<text text-anchor="middle" x="354.26" y="-936.4" font-family="Times New Roman,serif" font-size="14.00">[49..55)</text>
<text text-anchor="middle" x="354.26" y="-921.4" font-family="Times New Roman,serif" font-size="14.00">Normalized Count: 101.00</text>
<text text-anchor="middle" x="354.26" y="-906.4" font-family="Times New Roman,serif" font-size="14.00">Samples weight: 0.00</text>
</g>
<!-- BB5&#45;&gt;BB6 -->
<g id="edge8" class="edge">
<title>BB5&#45;&gt;BB6</title>
<path fill="none" stroke="black" d="M559.59,-1006C521.66,-991.24 475.47,-973.27 436.52,-958.11"/>
<polygon fill="black" stroke="black" points="437.37,-954.69 426.78,-954.32 434.83,-961.21 437.37,-954.69"/>
</g>
<!-- BB7 -->
<g id="node8" class="node">
<title>BB7</title>
<ellipse fill="none" stroke="black" cx="354.26" cy="-814.15" rx="105.22" ry="37.45"/>
<text text-anchor="middle" x="354.26" y="-825.45" font-family="Times New Roman,serif" font-size="14.00">[55..57)</text>
<text text-anchor="middle" x="354.26" y="-810.45" font-family="Times New Roman,serif" font-size="14.00">Normalized Count: 0.00</text>
<text text-anchor="middle" x="354.26" y="-795.45" font-family="Times New Roman,serif" font-size="14.00">Samples weight: 0.00</text>
</g>
<!-- BB6&#45;&gt;BB7 -->
<g id="edge10" class="edge">
<title>BB6&#45;&gt;BB7</title>
<path fill="none" stroke="black" d="M354.26,-887.52C354.26,-879.35 354.26,-870.57 354.26,-862.04"/>
<polygon fill="black" stroke="black" points="357.76,-861.82 354.26,-851.82 350.76,-861.82 357.76,-861.82"/>
</g>
<!-- BB8 -->
<g id="node9" class="node">
<title>BB8</title>
<ellipse fill="none" stroke="black" cx="115.26" cy="-814.15" rx="115.02" ry="37.45"/>
<text text-anchor="middle" x="115.26" y="-825.45" font-family="Times New Roman,serif" font-size="14.00">[57..6d)</text>
<text text-anchor="middle" x="115.26" y="-810.45" font-family="Times New Roman,serif" font-size="14.00">Normalized Count: 101.00</text>
<text text-anchor="middle" x="115.26" y="-795.45" font-family="Times New Roman,serif" font-size="14.00">Samples weight: 0.00</text>
</g>
<!-- BB6&#45;&gt;BB8 -->
<g id="edge9" class="edge">
<title>BB6&#45;&gt;BB8</title>
<path fill="none" stroke="black" d="M288.63,-894.19C258.07,-880.25 221.56,-863.61 189.95,-849.2"/>
<polygon fill="black" stroke="black" points="191.29,-845.96 180.74,-845 188.38,-852.33 191.29,-845.96"/>
</g>
<!-- BB8&#45;&gt;BB9 -->
<g id="edge11" class="edge">
<title>BB8&#45;&gt;BB9</title>
<path fill="none" stroke="black" d="M139.57,-851.03C161.48,-882.15 195.5,-927.56 230.26,-962.58 342.1,-1075.29 379.17,-1094.89 510.26,-1184.49 528.39,-1196.88 548.71,-1209.32 567.58,-1220.31"/>
<polygon fill="black" stroke="black" points="566.01,-1223.44 576.42,-1225.42 569.52,-1217.38 566.01,-1223.44"/>
</g>
<!-- BB9&#45;&gt;BB1 -->
<g id="edge12" class="edge">
<title>BB9&#45;&gt;BB1</title>
<path fill="none" stroke="black" d="M634.26,-1220.38C634.26,-1212.21 634.26,-1203.43 634.26,-1194.9"/>
<polygon fill="black" stroke="black" points="637.76,-1194.68 634.26,-1184.68 630.76,-1194.68 637.76,-1194.68"/>
</g>
<!-- BB10 -->
<g id="node11" class="node">
<title>BB10</title>
<ellipse fill="none" stroke="black" cx="905.26" cy="-1147.01" rx="105.22" ry="37.45"/>
<text text-anchor="middle" x="905.26" y="-1158.31" font-family="Times New Roman,serif" font-size="14.00">[71..79)</text>
<text text-anchor="middle" x="905.26" y="-1143.31" font-family="Times New Roman,serif" font-size="14.00">Normalized Count: 1.00</text>
<text text-anchor="middle" x="905.26" y="-1128.31" font-family="Times New Roman,serif" font-size="14.00">Samples weight: 0.00</text>
</g>
<!-- BB9&#45;&gt;BB10 -->
<g id="edge13" class="edge">
<title>BB9&#45;&gt;BB10</title>
<path fill="none" stroke="black" d="M705.46,-1228.34C742.76,-1213.34 788.52,-1194.94 826.83,-1179.54"/>
<polygon fill="black" stroke="black" points="828.43,-1182.67 836.4,-1175.69 825.82,-1176.18 828.43,-1182.67"/>
</g>
<!-- BB40 -->
<g id="node41" class="node">
<title>BB40</title>
<ellipse fill="none" stroke="black" cx="1069.26" cy="-1036.06" rx="115.02" ry="37.45"/>
<text text-anchor="middle" x="1069.26" y="-1047.36" font-family="Times New Roman,serif" font-size="14.00">[1d7..1df)</text>
<text text-anchor="middle" x="1069.26" y="-1032.36" font-family="Times New Roman,serif" font-size="14.00">Normalized Count: 102.00</text>
<text text-anchor="middle" x="1069.26" y="-1017.36" font-family="Times New Roman,serif" font-size="14.00">Samples weight: 0.00</text>
</g>
<!-- BB10&#45;&gt;BB40 -->
<g id="edge14" class="edge">
<title>BB10&#45;&gt;BB40</title>
<path fill="none" stroke="black" d="M954.02,-1113.62C971.95,-1101.7 992.44,-1088.09 1011.11,-1075.69"/>
<polygon fill="black" stroke="black" points="1013.16,-1078.53 1019.55,-1070.08 1009.28,-1072.7 1013.16,-1078.53"/>
</g>
<!-- BB11 -->
<g id="node12" class="node">
<title>BB11</title>
<ellipse fill="none" stroke="black" cx="2267.26" cy="-925.1" rx="115.02" ry="37.45"/>
<text text-anchor="middle" x="2267.26" y="-936.4" font-family="Times New Roman,serif" font-size="14.00">[79..7d)</text>
<text text-anchor="middle" x="2267.26" y="-921.4" font-family="Times New Roman,serif" font-size="14.00">Normalized Count: 101.00</text>
<text text-anchor="middle" x="2267.26" y="-906.4" font-family="Times New Roman,serif" font-size="14.00">Samples weight: 0.00</text>
</g>
<!-- BB12 -->
<g id="node13" class="node">
<title>BB12</title>
<ellipse fill="none" stroke="black" cx="2530.26" cy="-814.15" rx="115.02" ry="37.45"/>
<text text-anchor="middle" x="2530.26" y="-825.45" font-family="Times New Roman,serif" font-size="14.00">[7d..81)</text>
<text text-anchor="middle" x="2530.26" y="-810.45" font-family="Times New Roman,serif" font-size="14.00">Normalized Count: 100.00</text>
<text text-anchor="middle" x="2530.26" y="-795.45" font-family="Times New Roman,serif" font-size="14.00">Samples weight: 0.00</text>
</g>
<!-- BB11&#45;&gt;BB12 -->
<g id="edge16" class="edge">
<title>BB11&#45;&gt;BB12</title>
<path fill="none" stroke="black" d="M2337.05,-895.19C2371.97,-880.72 2414.4,-863.14 2450.6,-848.15"/>
<polygon fill="black" stroke="black" points="2452.24,-851.26 2460.14,-844.2 2449.57,-844.79 2452.24,-851.26"/>
</g>
<!-- BB19 -->
<g id="node20" class="node">
<title>BB19</title>
<ellipse fill="none" stroke="black" cx="2267.26" cy="-814.15" rx="115.02" ry="37.45"/>
<text text-anchor="middle" x="2267.26" y="-825.45" font-family="Times New Roman,serif" font-size="14.00">[bc..cb)</text>
<text text-anchor="middle" x="2267.26" y="-810.45" font-family="Times New Roman,serif" font-size="14.00">Normalized Count: 101.00</text>
<text text-anchor="middle" x="2267.26" y="-795.45" font-family="Times New Roman,serif" font-size="14.00">Samples weight: 0.00</text>
</g>
<!-- BB11&#45;&gt;BB19 -->
<g id="edge15" class="edge">
<title>BB11&#45;&gt;BB19</title>
<path fill="none" stroke="black" d="M2267.26,-887.52C2267.26,-879.35 2267.26,-870.57 2267.26,-862.04"/>
<polygon fill="black" stroke="black" points="2270.76,-861.82 2267.26,-851.82 2263.76,-861.82 2270.76,-861.82"/>
</g>
<!-- BB18 -->
<g id="node19" class="node">
<title>BB18</title>
<ellipse fill="none" stroke="black" cx="2537.26" cy="-703.2" rx="120.42" ry="37.45"/>
<text text-anchor="middle" x="2537.26" y="-714.5" font-family="Times New Roman,serif" font-size="14.00">[b7..bc)</text>
<text text-anchor="middle" x="2537.26" y="-699.5" font-family="Times New Roman,serif" font-size="14.00">Normalized Count: 5150.00</text>
<text text-anchor="middle" x="2537.26" y="-684.5" font-family="Times New Roman,serif" font-size="14.00">Samples weight: 0.01</text>
</g>
<!-- BB12&#45;&gt;BB18 -->
<g id="edge17" class="edge">
<title>BB12&#45;&gt;BB18</title>
<path fill="none" stroke="black" d="M2532.61,-776.57C2533.13,-768.39 2533.7,-759.61 2534.25,-751.09"/>
<polygon fill="black" stroke="black" points="2537.75,-751.07 2534.9,-740.87 2530.77,-750.62 2537.75,-751.07"/>
</g>
<!-- BB13 -->
<g id="node14" class="node">
<title>BB13</title>
<ellipse fill="none" stroke="black" cx="2547.26" cy="-592.24" rx="120.42" ry="37.45"/>
<text text-anchor="middle" x="2547.26" y="-603.54" font-family="Times New Roman,serif" font-size="14.00">[81..8b)</text>
<text text-anchor="middle" x="2547.26" y="-588.54" font-family="Times New Roman,serif" font-size="14.00">Normalized Count: 5050.00</text>
<text text-anchor="middle" x="2547.26" y="-573.54" font-family="Times New Roman,serif" font-size="14.00">Samples weight: 0.01</text>
</g>
<!-- BB14 -->
<g id="node15" class="node">
<title>BB14</title>
<ellipse fill="none" stroke="black" cx="2547.26" cy="-481.29" rx="120.42" ry="37.45"/>
<text text-anchor="middle" x="2547.26" y="-492.59" font-family="Times New Roman,serif" font-size="14.00">[8b..90)</text>
<text text-anchor="middle" x="2547.26" y="-477.59" font-family="Times New Roman,serif" font-size="14.00">Normalized Count: 4950.00</text>
<text text-anchor="middle" x="2547.26" y="-462.59" font-family="Times New Roman,serif" font-size="14.00">Samples weight: 0.01</text>
</g>
<!-- BB13&#45;&gt;BB14 -->
<g id="edge19" class="edge">
<title>BB13&#45;&gt;BB14</title>
<path fill="none" stroke="black" d="M2547.26,-554.66C2547.26,-546.49 2547.26,-537.71 2547.26,-529.18"/>
<polygon fill="black" stroke="black" points="2550.76,-528.96 2547.26,-518.96 2543.76,-528.96 2550.76,-528.96"/>
</g>
<!-- BB17 -->
<g id="node18" class="node">
<title>BB17</title>
<ellipse fill="none" stroke="black" cx="2805.26" cy="-481.29" rx="120.42" ry="37.45"/>
<text text-anchor="middle" x="2805.26" y="-492.59" font-family="Times New Roman,serif" font-size="14.00">[ac..b7)</text>
<text text-anchor="middle" x="2805.26" y="-477.59" font-family="Times New Roman,serif" font-size="14.00">Normalized Count: 5050.00</text>
<text text-anchor="middle" x="2805.26" y="-462.59" font-family="Times New Roman,serif" font-size="14.00">Samples weight: 0.01</text>
</g>
<!-- BB13&#45;&gt;BB17 -->
<g id="edge18" class="edge">
<title>BB13&#45;&gt;BB17</title>
<path fill="none" stroke="black" d="M2617.42,-561.62C2650.83,-547.5 2690.95,-530.56 2725.52,-515.96"/>
<polygon fill="black" stroke="black" points="2727.26,-519.03 2735.11,-511.91 2724.54,-512.58 2727.26,-519.03"/>
</g>
<!-- BB16 -->
<g id="node17" class="node">
<title>BB16</title>
<ellipse fill="none" stroke="black" cx="2791.26" cy="-370.34" rx="129.3" ry="37.45"/>
<text text-anchor="middle" x="2791.26" y="-381.64" font-family="Times New Roman,serif" font-size="14.00">[a7..ac)</text>
<text text-anchor="middle" x="2791.26" y="-366.64" font-family="Times New Roman,serif" font-size="14.00">Normalized Count: 171600.00</text>
<text text-anchor="middle" x="2791.26" y="-351.64" font-family="Times New Roman,serif" font-size="14.00">Samples weight: 0.22</text>
</g>
<!-- BB14&#45;&gt;BB16 -->
<g id="edge20" class="edge">
<title>BB14&#45;&gt;BB16</title>
<path fill="none" stroke="black" d="M2614.58,-450.23C2645.01,-436.64 2681.16,-420.5 2712.8,-406.37"/>
<polygon fill="black" stroke="black" points="2714.33,-409.52 2722.04,-402.25 2711.48,-403.13 2714.33,-409.52"/>
</g>
<!-- BB15 -->
<g id="node16" class="node">
<title>BB15</title>
<ellipse fill="none" stroke="black" cx="2791.26" cy="-259.38" rx="129.3" ry="37.45"/>
<text text-anchor="middle" x="2791.26" y="-270.68" font-family="Times New Roman,serif" font-size="14.00">[90..a7)</text>
<text text-anchor="middle" x="2791.26" y="-255.68" font-family="Times New Roman,serif" font-size="14.00">Normalized Count: 166650.00</text>
<text text-anchor="middle" x="2791.26" y="-240.68" font-family="Times New Roman,serif" font-size="14.00">Samples weight: 0.21</text>
</g>
<!-- BB15&#45;&gt;BB16 -->
<g id="edge21" class="edge">
<title>BB15&#45;&gt;BB16</title>
<path fill="none" stroke="black" d="M2797.68,-297.06C2797.99,-305.23 2798.08,-314.02 2797.95,-322.54"/>
<polygon fill="black" stroke="black" points="2794.44,-322.66 2797.67,-332.75 2801.44,-322.85 2794.44,-322.66"/>
</g>
<!-- BB16&#45;&gt;BB15 -->
<g id="edge22" class="edge">
<title>BB16&#45;&gt;BB15</title>
<path fill="none" stroke="black" d="M2784.84,-332.75C2784.53,-324.58 2784.43,-315.8 2784.57,-307.27"/>
<polygon fill="black" stroke="black" points="2788.07,-307.15 2784.84,-297.06 2781.07,-306.96 2788.07,-307.15"/>
</g>
<!-- BB16&#45;&gt;BB17 -->
<g id="edge23" class="edge">
<title>BB16&#45;&gt;BB17</title>
<path fill="none" stroke="black" d="M2795.97,-408.01C2797.03,-416.28 2798.17,-425.16 2799.28,-433.77"/>
<polygon fill="black" stroke="black" points="2795.81,-434.23 2800.56,-443.71 2802.75,-433.34 2795.81,-434.23"/>
</g>
<!-- BB17&#45;&gt;BB18 -->
<g id="edge24" class="edge">
<title>BB17&#45;&gt;BB18</title>
<path fill="none" stroke="black" d="M2779.98,-518.12C2756,-550.27 2717.57,-597.24 2676.26,-629.72 2657.9,-644.15 2636.23,-657.05 2615.54,-667.83"/>
<polygon fill="black" stroke="black" points="2613.75,-664.81 2606.43,-672.47 2616.93,-671.05 2613.75,-664.81"/>
</g>
<!-- BB18&#45;&gt;BB13 -->
<g id="edge25" class="edge">
<title>BB18&#45;&gt;BB13</title>
<path fill="none" stroke="black" d="M2540.62,-665.61C2541.37,-657.44 2542.17,-648.66 2542.95,-640.13"/>
<polygon fill="black" stroke="black" points="2546.46,-640.19 2543.89,-629.92 2539.49,-639.55 2546.46,-640.19"/>
</g>
<!-- BB18&#45;&gt;BB19 -->
<g id="edge26" class="edge">
<title>BB18&#45;&gt;BB19</title>
<path fill="none" stroke="black" d="M2464.91,-733.39C2428.7,-748 2384.76,-765.73 2347.51,-780.76"/>
<polygon fill="black" stroke="black" points="2346.16,-777.54 2338.2,-784.52 2348.78,-784.03 2346.16,-777.54"/>
</g>
<!-- BB27 -->
<g id="node28" class="node">
<title>BB27</title>
<ellipse fill="none" stroke="black" cx="2260.26" cy="-703.2" rx="120.42" ry="37.45"/>
<text text-anchor="middle" x="2260.26" y="-714.5" font-family="Times New Roman,serif" font-size="14.00">[11b..11f)</text>
<text text-anchor="middle" x="2260.26" y="-699.5" font-family="Times New Roman,serif" font-size="14.00">Normalized Count: 5252.00</text>
<text text-anchor="middle" x="2260.26" y="-684.5" font-family="Times New Roman,serif" font-size="14.00">Samples weight: 0.01</text>
</g>
<!-- BB19&#45;&gt;BB27 -->
<g id="edge27" class="edge">
<title>BB19&#45;&gt;BB27</title>
<path fill="none" stroke="black" d="M2264.91,-776.57C2264.38,-768.39 2263.82,-759.61 2263.27,-751.09"/>
<polygon fill="black" stroke="black" points="2266.75,-750.62 2262.61,-740.87 2259.76,-751.07 2266.75,-750.62"/>
</g>
<!-- BB20 -->
<g id="node21" class="node">
<title>BB20</title>
<ellipse fill="none" stroke="black" cx="2251.26" cy="-592.24" rx="120.42" ry="37.45"/>
<text text-anchor="middle" x="2251.26" y="-603.54" font-family="Times New Roman,serif" font-size="14.00">[cb..d6)</text>
<text text-anchor="middle" x="2251.26" y="-588.54" font-family="Times New Roman,serif" font-size="14.00">Normalized Count: 5151.00</text>
<text text-anchor="middle" x="2251.26" y="-573.54" font-family="Times New Roman,serif" font-size="14.00">Samples weight: 0.01</text>
</g>
<!-- BB21 -->
<g id="node22" class="node">
<title>BB21</title>
<ellipse fill="none" stroke="black" cx="1993.26" cy="-481.29" rx="120.42" ry="37.45"/>
<text text-anchor="middle" x="1993.26" y="-492.59" font-family="Times New Roman,serif" font-size="14.00">[d6..db)</text>
<text text-anchor="middle" x="1993.26" y="-477.59" font-family="Times New Roman,serif" font-size="14.00">Normalized Count: 5050.00</text>
<text text-anchor="middle" x="1993.26" y="-462.59" font-family="Times New Roman,serif" font-size="14.00">Samples weight: 0.01</text>
</g>
<!-- BB20&#45;&gt;BB21 -->
<g id="edge29" class="edge">
<title>BB20&#45;&gt;BB21</title>
<path fill="none" stroke="black" d="M2181.1,-561.62C2147.68,-547.5 2107.56,-530.56 2073,-515.96"/>
<polygon fill="black" stroke="black" points="2073.98,-512.58 2063.4,-511.91 2071.25,-519.03 2073.98,-512.58"/>
</g>
<!-- BB24 -->
<g id="node25" class="node">
<title>BB24</title>
<ellipse fill="none" stroke="black" cx="2251.26" cy="-481.29" rx="120.42" ry="37.45"/>
<text text-anchor="middle" x="2251.26" y="-492.59" font-family="Times New Roman,serif" font-size="14.00">[f8..112)</text>
<text text-anchor="middle" x="2251.26" y="-477.59" font-family="Times New Roman,serif" font-size="14.00">Normalized Count: 5151.00</text>
<text text-anchor="middle" x="2251.26" y="-462.59" font-family="Times New Roman,serif" font-size="14.00">Samples weight: 0.01</text>
</g>
<!-- BB20&#45;&gt;BB24 -->
<g id="edge28" class="edge">
<title>BB20&#45;&gt;BB24</title>
<path fill="none" stroke="black" d="M2251.26,-554.66C2251.26,-546.49 2251.26,-537.71 2251.26,-529.18"/>
<polygon fill="black" stroke="black" points="2254.76,-528.96 2251.26,-518.96 2247.76,-528.96 2254.76,-528.96"/>
</g>
<!-- BB23 -->
<g id="node24" class="node">
<title>BB23</title>
<ellipse fill="none" stroke="black" cx="1993.26" cy="-370.34" rx="129.3" ry="37.45"/>
<text text-anchor="middle" x="1993.26" y="-381.64" font-family="Times New Roman,serif" font-size="14.00">[f2..f8)</text>
<text text-anchor="middle" x="1993.26" y="-366.64" font-family="Times New Roman,serif" font-size="14.00">Normalized Count: 176750.00</text>
<text text-anchor="middle" x="1993.26" y="-351.64" font-family="Times New Roman,serif" font-size="14.00">Samples weight: 0.22</text>
</g>
<!-- BB21&#45;&gt;BB23 -->
<g id="edge30" class="edge">
<title>BB21&#45;&gt;BB23</title>
<path fill="none" stroke="black" d="M1993.26,-443.71C1993.26,-435.53 1993.26,-426.75 1993.26,-418.23"/>
<polygon fill="black" stroke="black" points="1996.76,-418.01 1993.26,-408.01 1989.76,-418.01 1996.76,-418.01"/>
</g>
<!-- BB22 -->
<g id="node23" class="node">
<title>BB22</title>
<ellipse fill="none" stroke="black" cx="1993.26" cy="-259.38" rx="129.3" ry="37.45"/>
<text text-anchor="middle" x="1993.26" y="-270.68" font-family="Times New Roman,serif" font-size="14.00">[db..f2)</text>
<text text-anchor="middle" x="1993.26" y="-255.68" font-family="Times New Roman,serif" font-size="14.00">Normalized Count: 171700.00</text>
<text text-anchor="middle" x="1993.26" y="-240.68" font-family="Times New Roman,serif" font-size="14.00">Samples weight: 0.22</text>
</g>
<!-- BB22&#45;&gt;BB23 -->
<g id="edge31" class="edge">
<title>BB22&#45;&gt;BB23</title>
<path fill="none" stroke="black" d="M1999.68,-297.06C1999.99,-305.23 2000.08,-314.02 1999.95,-322.54"/>
<polygon fill="black" stroke="black" points="1996.44,-322.66 1999.67,-332.75 2003.44,-322.85 1996.44,-322.66"/>
</g>
<!-- BB23&#45;&gt;BB22 -->
<g id="edge32" class="edge">
<title>BB23&#45;&gt;BB22</title>
<path fill="none" stroke="black" d="M1986.84,-332.75C1986.53,-324.58 1986.43,-315.8 1986.57,-307.27"/>
<polygon fill="black" stroke="black" points="1990.07,-307.15 1986.84,-297.06 1983.07,-306.96 1990.07,-307.15"/>
</g>
<!-- BB23&#45;&gt;BB24 -->
<g id="edge33" class="edge">
<title>BB23&#45;&gt;BB24</title>
<path fill="none" stroke="black" d="M2065.2,-401.72C2098.3,-415.7 2137.68,-432.33 2171.67,-446.68"/>
<polygon fill="black" stroke="black" points="2170.53,-450 2181.1,-450.66 2173.25,-443.55 2170.53,-450"/>
</g>
<!-- BB25 -->
<g id="node26" class="node">
<title>BB25</title>
<ellipse fill="none" stroke="black" cx="2256.26" cy="-370.34" rx="115.02" ry="37.45"/>
<text text-anchor="middle" x="2256.26" y="-381.64" font-family="Times New Roman,serif" font-size="14.00">[112..117)</text>
<text text-anchor="middle" x="2256.26" y="-366.64" font-family="Times New Roman,serif" font-size="14.00">Normalized Count: 405.00</text>
<text text-anchor="middle" x="2256.26" y="-351.64" font-family="Times New Roman,serif" font-size="14.00">Samples weight: 0.00</text>
</g>
<!-- BB24&#45;&gt;BB25 -->
<g id="edge35" class="edge">
<title>BB24&#45;&gt;BB25</title>
<path fill="none" stroke="black" d="M2252.94,-443.71C2253.31,-435.53 2253.72,-426.75 2254.11,-418.23"/>
<polygon fill="black" stroke="black" points="2257.61,-418.16 2254.58,-408.01 2250.62,-417.84 2257.61,-418.16"/>
</g>
<!-- BB26 -->
<g id="node27" class="node">
<title>BB26</title>
<ellipse fill="none" stroke="black" cx="2509.26" cy="-370.34" rx="120.42" ry="37.45"/>
<text text-anchor="middle" x="2509.26" y="-381.64" font-family="Times New Roman,serif" font-size="14.00">[117..11b)</text>
<text text-anchor="middle" x="2509.26" y="-366.64" font-family="Times New Roman,serif" font-size="14.00">Normalized Count: 5151.00</text>
<text text-anchor="middle" x="2509.26" y="-351.64" font-family="Times New Roman,serif" font-size="14.00">Samples weight: 0.01</text>
</g>
<!-- BB24&#45;&gt;BB26 -->
<g id="edge34" class="edge">
<title>BB24&#45;&gt;BB26</title>
<path fill="none" stroke="black" d="M2321.42,-450.66C2354.83,-436.55 2394.95,-419.61 2429.52,-405.01"/>
<polygon fill="black" stroke="black" points="2431.26,-408.07 2439.11,-400.96 2428.54,-401.62 2431.26,-408.07"/>
</g>
<!-- BB25&#45;&gt;BB26 -->
<g id="edge36" class="edge">
<title>BB25&#45;&gt;BB26</title>
<path fill="none" stroke="black" d="M2371.89,-370.34C2374.18,-370.34 2376.47,-370.34 2378.75,-370.34"/>
<polygon fill="black" stroke="black" points="2378.79,-373.84 2388.79,-370.34 2378.79,-366.84 2378.79,-373.84"/>
</g>
<!-- BB26&#45;&gt;BB27 -->
<g id="edge37" class="edge">
<title>BB26&#45;&gt;BB27</title>
<path fill="none" stroke="black" d="M2455.6,-404.06C2441.51,-415.06 2427.65,-428.49 2418.26,-443.81 2374.18,-515.71 2428.88,-560.82 2380.26,-629.72 2369.66,-644.74 2354.87,-657.2 2339.29,-667.31"/>
<polygon fill="black" stroke="black" points="2337.25,-664.46 2330.57,-672.69 2340.92,-670.42 2337.25,-664.46"/>
</g>
<!-- BB27&#45;&gt;BB20 -->
<g id="edge38" class="edge">
<title>BB27&#45;&gt;BB20</title>
<path fill="none" stroke="black" d="M2257.24,-665.61C2256.56,-657.44 2255.84,-648.66 2255.13,-640.13"/>
<polygon fill="black" stroke="black" points="2258.6,-639.59 2254.29,-629.92 2251.62,-640.17 2258.6,-639.59"/>
</g>
<!-- BB28 -->
<g id="node29" class="node">
<title>BB28</title>
<ellipse fill="none" stroke="black" cx="1725.26" cy="-592.24" rx="115.02" ry="37.45"/>
<text text-anchor="middle" x="1725.26" y="-603.54" font-family="Times New Roman,serif" font-size="14.00">[11f..125)</text>
<text text-anchor="middle" x="1725.26" y="-588.54" font-family="Times New Roman,serif" font-size="14.00">Normalized Count: 101.00</text>
<text text-anchor="middle" x="1725.26" y="-573.54" font-family="Times New Roman,serif" font-size="14.00">Samples weight: 0.00</text>
</g>
<!-- BB27&#45;&gt;BB28 -->
<g id="edge39" class="edge">
<title>BB27&#45;&gt;BB28</title>
<path fill="none" stroke="black" d="M2160.88,-681.96C2067.34,-662.91 1927.68,-634.47 1831.85,-614.95"/>
<polygon fill="black" stroke="black" points="1832.35,-611.48 1821.85,-612.91 1830.95,-618.34 1832.35,-611.48"/>
</g>
<!-- BB29 -->
<g id="node30" class="node">
<title>BB29</title>
<ellipse fill="none" stroke="black" cx="1725.26" cy="-481.29" rx="110.12" ry="37.45"/>
<text text-anchor="middle" x="1725.26" y="-492.59" font-family="Times New Roman,serif" font-size="14.00">[125..12a)</text>
<text text-anchor="middle" x="1725.26" y="-477.59" font-family="Times New Roman,serif" font-size="14.00">Normalized Count: 96.00</text>
<text text-anchor="middle" x="1725.26" y="-462.59" font-family="Times New Roman,serif" font-size="14.00">Samples weight: 0.00</text>
</g>
<!-- BB28&#45;&gt;BB29 -->
<g id="edge41" class="edge">
<title>BB28&#45;&gt;BB29</title>
<path fill="none" stroke="black" d="M1725.26,-554.66C1725.26,-546.49 1725.26,-537.71 1725.26,-529.18"/>
<polygon fill="black" stroke="black" points="1728.76,-528.96 1725.26,-518.96 1721.76,-528.96 1728.76,-528.96"/>
</g>
<!-- BB33 -->
<g id="node34" class="node">
<title>BB33</title>
<ellipse fill="none" stroke="black" cx="1452.26" cy="-481.29" rx="115.02" ry="37.45"/>
<text text-anchor="middle" x="1452.26" y="-492.59" font-family="Times New Roman,serif" font-size="14.00">[17a..192)</text>
<text text-anchor="middle" x="1452.26" y="-477.59" font-family="Times New Roman,serif" font-size="14.00">Normalized Count: 101.00</text>
<text text-anchor="middle" x="1452.26" y="-462.59" font-family="Times New Roman,serif" font-size="14.00">Samples weight: 0.00</text>
</g>
<!-- BB28&#45;&gt;BB33 -->
<g id="edge40" class="edge">
<title>BB28&#45;&gt;BB33</title>
<path fill="none" stroke="black" d="M1653.89,-562.76C1616.89,-548 1571.57,-529.91 1533.26,-514.62"/>
<polygon fill="black" stroke="black" points="1534.27,-511.25 1523.69,-510.8 1531.68,-517.75 1534.27,-511.25"/>
</g>
<!-- BB31 -->
<g id="node32" class="node">
<title>BB31</title>
<ellipse fill="none" stroke="black" cx="1725.26" cy="-370.34" rx="120.42" ry="37.45"/>
<text text-anchor="middle" x="1725.26" y="-381.64" font-family="Times New Roman,serif" font-size="14.00">[14e..153)</text>
<text text-anchor="middle" x="1725.26" y="-366.64" font-family="Times New Roman,serif" font-size="14.00">Normalized Count: 9792.00</text>
<text text-anchor="middle" x="1725.26" y="-351.64" font-family="Times New Roman,serif" font-size="14.00">Samples weight: 0.01</text>
</g>
<!-- BB29&#45;&gt;BB31 -->
<g id="edge42" class="edge">
<title>BB29&#45;&gt;BB31</title>
<path fill="none" stroke="black" d="M1725.26,-443.71C1725.26,-435.53 1725.26,-426.75 1725.26,-418.23"/>
<polygon fill="black" stroke="black" points="1728.76,-418.01 1725.26,-408.01 1721.76,-418.01 1728.76,-418.01"/>
</g>
<!-- BB30 -->
<g id="node31" class="node">
<title>BB30</title>
<ellipse fill="none" stroke="black" cx="1725.26" cy="-259.38" rx="120.42" ry="37.45"/>
<text text-anchor="middle" x="1725.26" y="-270.68" font-family="Times New Roman,serif" font-size="14.00">[12a..14e)</text>
<text text-anchor="middle" x="1725.26" y="-255.68" font-family="Times New Roman,serif" font-size="14.00">Normalized Count: 9696.00</text>
<text text-anchor="middle" x="1725.26" y="-240.68" font-family="Times New Roman,serif" font-size="14.00">Samples weight: 0.01</text>
</g>
<!-- BB30&#45;&gt;BB31 -->
<g id="edge43" class="edge">
<title>BB30&#45;&gt;BB31</title>
<path fill="none" stroke="black" d="M1731.68,-297.06C1731.99,-305.23 1732.08,-314.02 1731.95,-322.54"/>
<polygon fill="black" stroke="black" points="1728.44,-322.66 1731.67,-332.75 1735.44,-322.85 1728.44,-322.66"/>
</g>
<!-- BB31&#45;&gt;BB30 -->
<g id="edge44" class="edge">
<title>BB31&#45;&gt;BB30</title>
<path fill="none" stroke="black" d="M1718.84,-332.75C1718.53,-324.58 1718.43,-315.8 1718.57,-307.27"/>
<polygon fill="black" stroke="black" points="1722.07,-307.15 1718.84,-297.06 1715.07,-306.96 1722.07,-307.15"/>
</g>
<!-- BB32 -->
<g id="node33" class="node">
<title>BB32</title>
<ellipse fill="none" stroke="black" cx="1476.26" cy="-259.38" rx="110.12" ry="37.45"/>
<text text-anchor="middle" x="1476.26" y="-270.68" font-family="Times New Roman,serif" font-size="14.00">[153..17a)</text>
<text text-anchor="middle" x="1476.26" y="-255.68" font-family="Times New Roman,serif" font-size="14.00">Normalized Count: 96.00</text>
<text text-anchor="middle" x="1476.26" y="-240.68" font-family="Times New Roman,serif" font-size="14.00">Samples weight: 0.00</text>
</g>
<!-- BB31&#45;&gt;BB32 -->
<g id="edge45" class="edge">
<title>BB31&#45;&gt;BB32</title>
<path fill="none" stroke="black" d="M1656.89,-339.42C1624.38,-325.2 1585.42,-308.15 1552.02,-293.53"/>
<polygon fill="black" stroke="black" points="1553.32,-290.28 1542.76,-289.48 1550.51,-296.7 1553.32,-290.28"/>
</g>
<!-- BB32&#45;&gt;BB33 -->
<g id="edge46" class="edge">
<title>BB32&#45;&gt;BB33</title>
<path fill="none" stroke="black" d="M1514.14,-294.65C1523.9,-305.77 1533.09,-318.88 1538.26,-332.86 1549.8,-364.11 1552.3,-377.61 1538.26,-407.81 1532.43,-420.35 1523.24,-431.5 1513.01,-441.06"/>
<polygon fill="black" stroke="black" points="1510.6,-438.52 1505.4,-447.75 1515.22,-443.78 1510.6,-438.52"/>
</g>
<!-- BB34 -->
<g id="node35" class="node">
<title>BB34</title>
<ellipse fill="none" stroke="black" cx="1424.26" cy="-370.34" rx="105.22" ry="37.45"/>
<text text-anchor="middle" x="1424.26" y="-381.64" font-family="Times New Roman,serif" font-size="14.00">[192..19b)</text>
<text text-anchor="middle" x="1424.26" y="-366.64" font-family="Times New Roman,serif" font-size="14.00">Normalized Count: 0.00</text>
<text text-anchor="middle" x="1424.26" y="-351.64" font-family="Times New Roman,serif" font-size="14.00">Samples weight: 0.00</text>
</g>
<!-- BB33&#45;&gt;BB34 -->
<g id="edge48" class="edge">
<title>BB33&#45;&gt;BB34</title>
<path fill="none" stroke="black" d="M1442.86,-443.71C1440.73,-435.44 1438.45,-426.56 1436.24,-417.95"/>
<polygon fill="black" stroke="black" points="1439.56,-416.82 1433.68,-408.01 1432.78,-418.56 1439.56,-416.82"/>
</g>
<!-- BB35 -->
<g id="node36" class="node">
<title>BB35</title>
<ellipse fill="none" stroke="black" cx="1185.26" cy="-370.34" rx="115.02" ry="37.45"/>
<text text-anchor="middle" x="1185.26" y="-381.64" font-family="Times New Roman,serif" font-size="14.00">[19b..1a2)</text>
<text text-anchor="middle" x="1185.26" y="-366.64" font-family="Times New Roman,serif" font-size="14.00">Normalized Count: 101.00</text>
<text text-anchor="middle" x="1185.26" y="-351.64" font-family="Times New Roman,serif" font-size="14.00">Samples weight: 0.00</text>
</g>
<!-- BB33&#45;&gt;BB35 -->
<g id="edge47" class="edge">
<title>BB33&#45;&gt;BB35</title>
<path fill="none" stroke="black" d="M1381.76,-451.52C1345.87,-436.87 1302.09,-419.01 1264.97,-403.87"/>
<polygon fill="black" stroke="black" points="1266.27,-400.62 1255.69,-400.08 1263.63,-407.1 1266.27,-400.62"/>
</g>
<!-- BB34&#45;&gt;BB35 -->
<g id="edge49" class="edge">
<title>BB34&#45;&gt;BB35</title>
<path fill="none" stroke="black" d="M1318.44,-370.34C1315.83,-370.34 1313.22,-370.34 1310.61,-370.34"/>
<polygon fill="black" stroke="black" points="1310.56,-366.84 1300.56,-370.34 1310.56,-373.84 1310.56,-366.84"/>
</g>
<!-- BB36 -->
<g id="node37" class="node">
<title>BB36</title>
<ellipse fill="none" stroke="black" cx="1232.26" cy="-259.38" rx="115.02" ry="37.45"/>
<text text-anchor="middle" x="1232.26" y="-270.68" font-family="Times New Roman,serif" font-size="14.00">[1a2..1bb)</text>
<text text-anchor="middle" x="1232.26" y="-255.68" font-family="Times New Roman,serif" font-size="14.00">Normalized Count: 100.00</text>
<text text-anchor="middle" x="1232.26" y="-240.68" font-family="Times New Roman,serif" font-size="14.00">Samples weight: 0.00</text>
</g>
<!-- BB35&#45;&gt;BB36 -->
<g id="edge51" class="edge">
<title>BB35&#45;&gt;BB36</title>
<path fill="none" stroke="black" d="M1200.91,-333.06C1204.63,-324.42 1208.66,-315.09 1212.54,-306.09"/>
<polygon fill="black" stroke="black" points="1215.77,-307.44 1216.52,-296.88 1209.34,-304.67 1215.77,-307.44"/>
</g>
<!-- BB39 -->
<g id="node40" class="node">
<title>BB39</title>
<ellipse fill="none" stroke="black" cx="983.26" cy="-259.38" rx="115.02" ry="37.45"/>
<text text-anchor="middle" x="983.26" y="-270.68" font-family="Times New Roman,serif" font-size="14.00">[1d1..1d7)</text>
<text text-anchor="middle" x="983.26" y="-255.68" font-family="Times New Roman,serif" font-size="14.00">Normalized Count: 101.00</text>
<text text-anchor="middle" x="983.26" y="-240.68" font-family="Times New Roman,serif" font-size="14.00">Samples weight: 0.00</text>
</g>
<!-- BB35&#45;&gt;BB39 -->
<g id="edge50" class="edge">
<title>BB35&#45;&gt;BB39</title>
<path fill="none" stroke="black" d="M1127.1,-337.97C1103.23,-325.09 1075.43,-310.1 1050.67,-296.75"/>
<polygon fill="black" stroke="black" points="1052.17,-293.57 1041.7,-291.91 1048.84,-299.73 1052.17,-293.57"/>
</g>
<!-- BB38 -->
<g id="node39" class="node">
<title>BB38</title>
<ellipse fill="none" stroke="black" cx="1107.26" cy="-148.43" rx="120.42" ry="37.45"/>
<text text-anchor="middle" x="1107.26" y="-159.73" font-family="Times New Roman,serif" font-size="14.00">[1cd..1d1)</text>
<text text-anchor="middle" x="1107.26" y="-144.73" font-family="Times New Roman,serif" font-size="14.00">Normalized Count: 5150.00</text>
<text text-anchor="middle" x="1107.26" y="-129.73" font-family="Times New Roman,serif" font-size="14.00">Samples weight: 0.01</text>
</g>
<!-- BB36&#45;&gt;BB38 -->
<g id="edge52" class="edge">
<title>BB36&#45;&gt;BB38</title>
<path fill="none" stroke="black" d="M1192.71,-223.91C1180.62,-213.38 1167.21,-201.69 1154.66,-190.75"/>
<polygon fill="black" stroke="black" points="1156.82,-187.99 1146.98,-184.05 1152.22,-193.26 1156.82,-187.99"/>
</g>
<!-- BB37 -->
<g id="node38" class="node">
<title>BB37</title>
<ellipse fill="none" stroke="black" cx="1107.26" cy="-37.48" rx="120.42" ry="37.45"/>
<text text-anchor="middle" x="1107.26" y="-48.78" font-family="Times New Roman,serif" font-size="14.00">[1bb..1cd)</text>
<text text-anchor="middle" x="1107.26" y="-33.78" font-family="Times New Roman,serif" font-size="14.00">Normalized Count: 5050.00</text>
<text text-anchor="middle" x="1107.26" y="-18.78" font-family="Times New Roman,serif" font-size="14.00">Samples weight: 0.01</text>
</g>
<!-- BB37&#45;&gt;BB38 -->
<g id="edge53" class="edge">
<title>BB37&#45;&gt;BB38</title>
<path fill="none" stroke="black" d="M1113.68,-75.15C1113.99,-83.33 1114.08,-92.11 1113.95,-100.63"/>
<polygon fill="black" stroke="black" points="1110.44,-100.76 1113.67,-110.85 1117.44,-100.94 1110.44,-100.76"/>
</g>
<!-- BB38&#45;&gt;BB37 -->
<g id="edge54" class="edge">
<title>BB38&#45;&gt;BB37</title>
<path fill="none" stroke="black" d="M1100.84,-110.85C1100.53,-102.67 1100.43,-93.89 1100.57,-85.37"/>
<polygon fill="black" stroke="black" points="1104.07,-85.24 1100.84,-75.15 1097.07,-85.05 1104.07,-85.24"/>
</g>
<!-- BB38&#45;&gt;BB39 -->
<g id="edge55" class="edge">
<title>BB38&#45;&gt;BB39</title>
<path fill="none" stroke="black" d="M1067.85,-184.05C1055.85,-194.6 1042.55,-206.29 1030.11,-217.22"/>
<polygon fill="black" stroke="black" points="1027.69,-214.68 1022.49,-223.91 1032.32,-219.94 1027.69,-214.68"/>
</g>
<!-- BB39&#45;&gt;BB40 -->
<g id="edge56" class="edge">
<title>BB39&#45;&gt;BB40</title>
<path fill="none" stroke="black" d="M988.62,-296.87C994.54,-340.42 1003.26,-415.5 1003.26,-480.29 1003.26,-815.15 1003.26,-815.15 1003.26,-815.15 1003.26,-881.22 999.5,-900.56 1022.26,-962.58 1025.78,-972.19 1030.77,-981.83 1036.19,-990.79"/>
<polygon fill="black" stroke="black" points="1033.4,-992.94 1041.71,-999.51 1039.32,-989.19 1033.4,-992.94"/>
</g>
<!-- BB40&#45;&gt;BB11 -->
<g id="edge57" class="edge">
<title>BB40&#45;&gt;BB11</title>
<path fill="none" stroke="black" d="M1179.55,-1025.03C1404.27,-1004.59 1913.58,-958.27 2146.69,-937.07"/>
<polygon fill="black" stroke="black" points="2147.26,-940.53 2156.91,-936.14 2146.63,-933.56 2147.26,-940.53"/>
</g>
<!-- BB41 -->
<g id="node42" class="node">
<title>BB41</title>
<ellipse fill="none" stroke="black" cx="1136.26" cy="-925.1" rx="105.22" ry="37.45"/>
<text text-anchor="middle" x="1136.26" y="-936.4" font-family="Times New Roman,serif" font-size="14.00">[1df..1e1)</text>
<text text-anchor="middle" x="1136.26" y="-921.4" font-family="Times New Roman,serif" font-size="14.00">Normalized Count: 1.00</text>
<text text-anchor="middle" x="1136.26" y="-906.4" font-family="Times New Roman,serif" font-size="14.00">Samples weight: 0.00</text>
</g>
<!-- BB40&#45;&gt;BB41 -->
<g id="edge58" class="edge">
<title>BB40&#45;&gt;BB41</title>
<path fill="none" stroke="black" d="M1091.38,-999.08C1096.99,-989.97 1103.07,-980.07 1108.9,-970.59"/>
<polygon fill="black" stroke="black" points="1111.9,-972.39 1114.16,-962.04 1105.94,-968.73 1111.9,-972.39"/>
</g>
</g>
</svg>
