<?xml version="1.0" encoding="UTF-8" standalone="no"?>
<!DOCTYPE svg PUBLIC "-//W3C//DTD SVG 1.1//EN"
 "http://www.w3.org/Graphics/SVG/1.1/DTD/svg11.dtd">
<!-- Generated by graphviz version 2.47.0 (20210316.0004)
 -->
<!-- Title: G Pages: 1 -->
<svg width="1198pt" height="1029pt"
 viewBox="0.00 0.00 1198.32 1029.33" xmlns="http://www.w3.org/2000/svg" xmlns:xlink="http://www.w3.org/1999/xlink">
<g id="graph0" class="graph" transform="scale(1 1) rotate(0) translate(4 1025.33)">
<title>G</title>
<polygon fill="white" stroke="transparent" points="-4,4 -4,-1025.33 1194.32,-1025.33 1194.32,4 -4,4"/>
<!-- BB0 -->
<g id="node1" class="node">
<title>BB0</title>
<ellipse fill="none" stroke="black" cx="586.09" cy="-973.25" rx="103.48" ry="48.17"/>
<text text-anchor="middle" x="586.09" y="-992.05" font-family="Times New Roman,serif" font-size="14.00">[0..6)</text>
<text text-anchor="middle" x="586.09" y="-977.05" font-family="Times New Roman,serif" font-size="14.00">Count: 3</text>
<text text-anchor="middle" x="586.09" y="-962.05" font-family="Times New Roman,serif" font-size="14.00">Normalized count: 1.00</text>
<text text-anchor="middle" x="586.09" y="-947.05" font-family="Times New Roman,serif" font-size="14.00">Samples weight: 0.00</text>
</g>
<!-- BB9 -->
<g id="node10" class="node">
<title>BB9</title>
<ellipse fill="none" stroke="black" cx="586.09" cy="-841.08" rx="108.38" ry="48.17"/>
<text text-anchor="middle" x="586.09" y="-859.88" font-family="Times New Roman,serif" font-size="14.00">[4d..51)</text>
<text text-anchor="middle" x="586.09" y="-844.88" font-family="Times New Roman,serif" font-size="14.00">Count: 234</text>
<text text-anchor="middle" x="586.09" y="-829.88" font-family="Times New Roman,serif" font-size="14.00">Normalized count: 78.00</text>
<text text-anchor="middle" x="586.09" y="-814.88" font-family="Times New Roman,serif" font-size="14.00">Samples weight: 0.00</text>
</g>
<!-- BB0&#45;&gt;BB9 -->
<g id="edge1" class="edge">
<title>BB0&#45;&gt;BB9</title>
<path fill="none" stroke="black" d="M586.09,-924.89C586.09,-916.62 586.09,-907.94 586.09,-899.43"/>
<polygon fill="black" stroke="black" points="589.59,-899.19 586.09,-889.19 582.59,-899.19 589.59,-899.19"/>
</g>
<!-- BB1 -->
<g id="node2" class="node">
<title>BB1</title>
<ellipse fill="none" stroke="black" cx="404.09" cy="-708.92" rx="108.38" ry="48.17"/>
<text text-anchor="middle" x="404.09" y="-727.72" font-family="Times New Roman,serif" font-size="14.00">[6..19)</text>
<text text-anchor="middle" x="404.09" y="-712.72" font-family="Times New Roman,serif" font-size="14.00">Count: 231</text>
<text text-anchor="middle" x="404.09" y="-697.72" font-family="Times New Roman,serif" font-size="14.00">Normalized count: 77.00</text>
<text text-anchor="middle" x="404.09" y="-682.72" font-family="Times New Roman,serif" font-size="14.00">Samples weight: 0.00</text>
</g>
<!-- BB2 -->
<g id="node3" class="node">
<title>BB2</title>
<ellipse fill="none" stroke="black" cx="147.09" cy="-576.75" rx="108.38" ry="48.17"/>
<text text-anchor="middle" x="147.09" y="-595.55" font-family="Times New Roman,serif" font-size="14.00">[19..1d)</text>
<text text-anchor="middle" x="147.09" y="-580.55" font-family="Times New Roman,serif" font-size="14.00">Count: 231</text>
<text text-anchor="middle" x="147.09" y="-565.55" font-family="Times New Roman,serif" font-size="14.00">Normalized count: 77.00</text>
<text text-anchor="middle" x="147.09" y="-550.55" font-family="Times New Roman,serif" font-size="14.00">Samples weight: 0.00</text>
</g>
<!-- BB1&#45;&gt;BB2 -->
<g id="edge3" class="edge">
<title>BB1&#45;&gt;BB2</title>
<path fill="none" stroke="black" d="M333.52,-672.18C300.37,-655.39 260.72,-635.3 226.52,-617.98"/>
<polygon fill="black" stroke="black" points="228,-614.81 217.5,-613.41 224.84,-621.05 228,-614.81"/>
</g>
<!-- BB6 -->
<g id="node7" class="node">
<title>BB6</title>
<ellipse fill="none" stroke="black" cx="404.09" cy="-576.75" rx="103.48" ry="48.17"/>
<text text-anchor="middle" x="404.09" y="-595.55" font-family="Times New Roman,serif" font-size="14.00">[35..42)</text>
<text text-anchor="middle" x="404.09" y="-580.55" font-family="Times New Roman,serif" font-size="14.00">Count: 0</text>
<text text-anchor="middle" x="404.09" y="-565.55" font-family="Times New Roman,serif" font-size="14.00">Normalized count: 0.00</text>
<text text-anchor="middle" x="404.09" y="-550.55" font-family="Times New Roman,serif" font-size="14.00">Samples weight: 0.00</text>
</g>
<!-- BB1&#45;&gt;BB6 -->
<g id="edge2" class="edge">
<title>BB1&#45;&gt;BB6</title>
<path fill="none" stroke="black" d="M404.09,-660.55C404.09,-652.29 404.09,-643.6 404.09,-635.1"/>
<polygon fill="black" stroke="black" points="407.59,-634.86 404.09,-624.86 400.59,-634.86 407.59,-634.86"/>
</g>
<!-- BB4 -->
<g id="node5" class="node">
<title>BB4</title>
<ellipse fill="none" stroke="black" cx="118.09" cy="-444.58" rx="118.17" ry="48.17"/>
<text text-anchor="middle" x="118.09" y="-463.38" font-family="Times New Roman,serif" font-size="14.00">[2f..33)</text>
<text text-anchor="middle" x="118.09" y="-448.38" font-family="Times New Roman,serif" font-size="14.00">Count: 11560</text>
<text text-anchor="middle" x="118.09" y="-433.38" font-family="Times New Roman,serif" font-size="14.00">Normalized count: 3853.33</text>
<text text-anchor="middle" x="118.09" y="-418.38" font-family="Times New Roman,serif" font-size="14.00">Samples weight: 0.24</text>
</g>
<!-- BB2&#45;&gt;BB4 -->
<g id="edge4" class="edge">
<title>BB2&#45;&gt;BB4</title>
<path fill="none" stroke="black" d="M136.62,-528.76C134.71,-520.18 132.7,-511.16 130.73,-502.34"/>
<polygon fill="black" stroke="black" points="134.13,-501.51 128.54,-492.51 127.3,-503.03 134.13,-501.51"/>
</g>
<!-- BB3 -->
<g id="node4" class="node">
<title>BB3</title>
<ellipse fill="none" stroke="black" cx="118.09" cy="-312.42" rx="118.17" ry="48.17"/>
<text text-anchor="middle" x="118.09" y="-331.22" font-family="Times New Roman,serif" font-size="14.00">[1d..2f)</text>
<text text-anchor="middle" x="118.09" y="-316.22" font-family="Times New Roman,serif" font-size="14.00">Count: 11329</text>
<text text-anchor="middle" x="118.09" y="-301.22" font-family="Times New Roman,serif" font-size="14.00">Normalized count: 3776.33</text>
<text text-anchor="middle" x="118.09" y="-286.22" font-family="Times New Roman,serif" font-size="14.00">Samples weight: 0.23</text>
</g>
<!-- BB3&#45;&gt;BB4 -->
<g id="edge5" class="edge">
<title>BB3&#45;&gt;BB4</title>
<path fill="none" stroke="black" d="M124.6,-360.52C124.82,-368.78 124.89,-377.46 124.8,-385.97"/>
<polygon fill="black" stroke="black" points="121.29,-386.16 124.61,-396.22 128.29,-386.29 121.29,-386.16"/>
</g>
<!-- BB4&#45;&gt;BB3 -->
<g id="edge6" class="edge">
<title>BB4&#45;&gt;BB3</title>
<path fill="none" stroke="black" d="M111.56,-396.22C111.35,-387.95 111.29,-379.27 111.38,-370.77"/>
<polygon fill="black" stroke="black" points="114.88,-370.59 111.57,-360.52 107.88,-370.46 114.88,-370.59"/>
</g>
<!-- BB5 -->
<g id="node6" class="node">
<title>BB5</title>
<ellipse fill="none" stroke="black" cx="425.09" cy="-312.42" rx="108.38" ry="48.17"/>
<text text-anchor="middle" x="425.09" y="-331.22" font-family="Times New Roman,serif" font-size="14.00">[33..35)</text>
<text text-anchor="middle" x="425.09" y="-316.22" font-family="Times New Roman,serif" font-size="14.00">Count: 231</text>
<text text-anchor="middle" x="425.09" y="-301.22" font-family="Times New Roman,serif" font-size="14.00">Normalized count: 77.00</text>
<text text-anchor="middle" x="425.09" y="-286.22" font-family="Times New Roman,serif" font-size="14.00">Samples weight: 0.00</text>
</g>
<!-- BB4&#45;&gt;BB5 -->
<g id="edge7" class="edge">
<title>BB4&#45;&gt;BB5</title>
<path fill="none" stroke="black" d="M198.75,-409.38C241.79,-391.13 294.77,-368.67 338.66,-350.06"/>
<polygon fill="black" stroke="black" points="340.03,-353.28 347.87,-346.15 337.3,-346.84 340.03,-353.28"/>
</g>
<!-- BB8 -->
<g id="node9" class="node">
<title>BB8</title>
<ellipse fill="none" stroke="black" cx="586.09" cy="-444.58" rx="108.38" ry="48.17"/>
<text text-anchor="middle" x="586.09" y="-463.38" font-family="Times New Roman,serif" font-size="14.00">[44..4d)</text>
<text text-anchor="middle" x="586.09" y="-448.38" font-family="Times New Roman,serif" font-size="14.00">Count: 231</text>
<text text-anchor="middle" x="586.09" y="-433.38" font-family="Times New Roman,serif" font-size="14.00">Normalized count: 77.00</text>
<text text-anchor="middle" x="586.09" y="-418.38" font-family="Times New Roman,serif" font-size="14.00">Samples weight: 0.00</text>
</g>
<!-- BB5&#45;&gt;BB8 -->
<g id="edge8" class="edge">
<title>BB5&#45;&gt;BB8</title>
<path fill="none" stroke="black" d="M476.26,-354.79C492.3,-367.76 510.14,-382.18 526.69,-395.56"/>
<polygon fill="black" stroke="black" points="524.73,-398.47 534.7,-402.04 529.13,-393.03 524.73,-398.47"/>
</g>
<!-- BB7 -->
<g id="node8" class="node">
<title>BB7</title>
<ellipse fill="none" stroke="black" cx="357.09" cy="-444.58" rx="103.48" ry="48.17"/>
<text text-anchor="middle" x="357.09" y="-463.38" font-family="Times New Roman,serif" font-size="14.00">[42..44)</text>
<text text-anchor="middle" x="357.09" y="-448.38" font-family="Times New Roman,serif" font-size="14.00">Count: 0</text>
<text text-anchor="middle" x="357.09" y="-433.38" font-family="Times New Roman,serif" font-size="14.00">Normalized count: 0.00</text>
<text text-anchor="middle" x="357.09" y="-418.38" font-family="Times New Roman,serif" font-size="14.00">Samples weight: 0.00</text>
</g>
<!-- BB6&#45;&gt;BB7 -->
<g id="edge10" class="edge">
<title>BB6&#45;&gt;BB7</title>
<path fill="none" stroke="black" d="M387.25,-529.12C384.05,-520.24 380.66,-510.87 377.36,-501.73"/>
<polygon fill="black" stroke="black" points="380.65,-500.54 373.96,-492.32 374.07,-502.91 380.65,-500.54"/>
</g>
<!-- BB6&#45;&gt;BB8 -->
<g id="edge9" class="edge">
<title>BB6&#45;&gt;BB8</title>
<path fill="none" stroke="black" d="M459.68,-535.99C479.25,-521.99 501.41,-506.14 521.65,-491.67"/>
<polygon fill="black" stroke="black" points="523.79,-494.44 529.89,-485.77 519.72,-488.74 523.79,-494.44"/>
</g>
<!-- BB7&#45;&gt;BB8 -->
<g id="edge11" class="edge">
<title>BB7&#45;&gt;BB8</title>
<path fill="none" stroke="black" d="M460.41,-444.58C462.73,-444.58 465.06,-444.58 467.39,-444.58"/>
<polygon fill="black" stroke="black" points="467.59,-448.08 477.59,-444.58 467.59,-441.08 467.59,-448.08"/>
</g>
<!-- BB8&#45;&gt;BB9 -->
<g id="edge12" class="edge">
<title>BB8&#45;&gt;BB9</title>
<path fill="none" stroke="black" d="M586.09,-492.83C586.09,-565.48 586.09,-704.4 586.09,-782.72"/>
<polygon fill="black" stroke="black" points="582.59,-782.89 586.09,-792.89 589.59,-782.89 582.59,-782.89"/>
</g>
<!-- BB9&#45;&gt;BB1 -->
<g id="edge13" class="edge">
<title>BB9&#45;&gt;BB1</title>
<path fill="none" stroke="black" d="M530,-799.97C510.53,-786.05 488.56,-770.33 468.49,-755.97"/>
<polygon fill="black" stroke="black" points="470.48,-753.09 460.31,-750.12 466.4,-758.79 470.48,-753.09"/>
</g>
<!-- BB10 -->
<g id="node11" class="node">
<title>BB10</title>
<ellipse fill="none" stroke="black" cx="719.09" cy="-708.92" rx="103.48" ry="48.17"/>
<text text-anchor="middle" x="719.09" y="-727.72" font-family="Times New Roman,serif" font-size="14.00">[51..57)</text>
<text text-anchor="middle" x="719.09" y="-712.72" font-family="Times New Roman,serif" font-size="14.00">Count: 3</text>
<text text-anchor="middle" x="719.09" y="-697.72" font-family="Times New Roman,serif" font-size="14.00">Normalized count: 1.00</text>
<text text-anchor="middle" x="719.09" y="-682.72" font-family="Times New Roman,serif" font-size="14.00">Samples weight: 0.00</text>
</g>
<!-- BB9&#45;&gt;BB10 -->
<g id="edge14" class="edge">
<title>BB9&#45;&gt;BB10</title>
<path fill="none" stroke="black" d="M630,-797.1C642.15,-785.21 655.43,-772.21 667.95,-759.96"/>
<polygon fill="black" stroke="black" points="670.52,-762.35 675.22,-752.85 665.62,-757.35 670.52,-762.35"/>
</g>
<!-- BB16 -->
<g id="node17" class="node">
<title>BB16</title>
<ellipse fill="none" stroke="black" cx="790.09" cy="-576.75" rx="108.38" ry="48.17"/>
<text text-anchor="middle" x="790.09" y="-595.55" font-family="Times New Roman,serif" font-size="14.00">[8d..91)</text>
<text text-anchor="middle" x="790.09" y="-580.55" font-family="Times New Roman,serif" font-size="14.00">Count: 250</text>
<text text-anchor="middle" x="790.09" y="-565.55" font-family="Times New Roman,serif" font-size="14.00">Normalized count: 83.33</text>
<text text-anchor="middle" x="790.09" y="-550.55" font-family="Times New Roman,serif" font-size="14.00">Samples weight: 0.01</text>
</g>
<!-- BB10&#45;&gt;BB16 -->
<g id="edge15" class="edge">
<title>BB10&#45;&gt;BB16</title>
<path fill="none" stroke="black" d="M744.12,-662.02C749.32,-652.5 754.84,-642.37 760.19,-632.56"/>
<polygon fill="black" stroke="black" points="763.33,-634.12 765.04,-623.67 757.18,-630.77 763.33,-634.12"/>
</g>
<!-- BB11 -->
<g id="node12" class="node">
<title>BB11</title>
<ellipse fill="none" stroke="black" cx="858.09" cy="-444.58" rx="108.38" ry="48.17"/>
<text text-anchor="middle" x="858.09" y="-463.38" font-family="Times New Roman,serif" font-size="14.00">[57..62)</text>
<text text-anchor="middle" x="858.09" y="-448.38" font-family="Times New Roman,serif" font-size="14.00">Count: 247</text>
<text text-anchor="middle" x="858.09" y="-433.38" font-family="Times New Roman,serif" font-size="14.00">Normalized count: 82.33</text>
<text text-anchor="middle" x="858.09" y="-418.38" font-family="Times New Roman,serif" font-size="14.00">Samples weight: 0.01</text>
</g>
<!-- BB12 -->
<g id="node13" class="node">
<title>BB12</title>
<ellipse fill="none" stroke="black" cx="956.09" cy="-312.42" rx="108.38" ry="48.17"/>
<text text-anchor="middle" x="956.09" y="-331.22" font-family="Times New Roman,serif" font-size="14.00">[62..68)</text>
<text text-anchor="middle" x="956.09" y="-316.22" font-family="Times New Roman,serif" font-size="14.00">Count: 247</text>
<text text-anchor="middle" x="956.09" y="-301.22" font-family="Times New Roman,serif" font-size="14.00">Normalized count: 82.33</text>
<text text-anchor="middle" x="956.09" y="-286.22" font-family="Times New Roman,serif" font-size="14.00">Samples weight: 0.01</text>
</g>
<!-- BB11&#45;&gt;BB12 -->
<g id="edge17" class="edge">
<title>BB11&#45;&gt;BB12</title>
<path fill="none" stroke="black" d="M891.81,-398.79C899.67,-388.36 908.1,-377.15 916.19,-366.4"/>
<polygon fill="black" stroke="black" points="919.08,-368.39 922.3,-358.29 913.49,-364.18 919.08,-368.39"/>
</g>
<!-- BB15 -->
<g id="node16" class="node">
<title>BB15</title>
<ellipse fill="none" stroke="black" cx="722.09" cy="-312.42" rx="108.38" ry="48.17"/>
<text text-anchor="middle" x="722.09" y="-331.22" font-family="Times New Roman,serif" font-size="14.00">[7e..8d)</text>
<text text-anchor="middle" x="722.09" y="-316.22" font-family="Times New Roman,serif" font-size="14.00">Count: 247</text>
<text text-anchor="middle" x="722.09" y="-301.22" font-family="Times New Roman,serif" font-size="14.00">Normalized count: 82.33</text>
<text text-anchor="middle" x="722.09" y="-286.22" font-family="Times New Roman,serif" font-size="14.00">Samples weight: 0.01</text>
</g>
<!-- BB11&#45;&gt;BB15 -->
<g id="edge16" class="edge">
<title>BB11&#45;&gt;BB15</title>
<path fill="none" stroke="black" d="M813.18,-400.6C800.76,-388.72 787.18,-375.71 774.38,-363.46"/>
<polygon fill="black" stroke="black" points="776.59,-360.74 766.95,-356.35 771.75,-365.8 776.59,-360.74"/>
</g>
<!-- BB14 -->
<g id="node15" class="node">
<title>BB14</title>
<ellipse fill="none" stroke="black" cx="839.09" cy="-180.25" rx="118.17" ry="48.17"/>
<text text-anchor="middle" x="839.09" y="-199.05" font-family="Times New Roman,serif" font-size="14.00">[7a..7e)</text>
<text text-anchor="middle" x="839.09" y="-184.05" font-family="Times New Roman,serif" font-size="14.00">Count: 11940</text>
<text text-anchor="middle" x="839.09" y="-169.05" font-family="Times New Roman,serif" font-size="14.00">Normalized count: 3980.00</text>
<text text-anchor="middle" x="839.09" y="-154.05" font-family="Times New Roman,serif" font-size="14.00">Samples weight: 0.25</text>
</g>
<!-- BB12&#45;&gt;BB14 -->
<g id="edge18" class="edge">
<title>BB12&#45;&gt;BB14</title>
<path fill="none" stroke="black" d="M916.48,-267.35C906.67,-256.44 896.08,-244.65 885.96,-233.4"/>
<polygon fill="black" stroke="black" points="888.34,-230.81 879.06,-225.72 883.14,-235.49 888.34,-230.81"/>
</g>
<!-- BB13 -->
<g id="node14" class="node">
<title>BB13</title>
<ellipse fill="none" stroke="black" cx="839.09" cy="-48.08" rx="118.17" ry="48.17"/>
<text text-anchor="middle" x="839.09" y="-66.88" font-family="Times New Roman,serif" font-size="14.00">[68..7a)</text>
<text text-anchor="middle" x="839.09" y="-51.88" font-family="Times New Roman,serif" font-size="14.00">Count: 11693</text>
<text text-anchor="middle" x="839.09" y="-36.88" font-family="Times New Roman,serif" font-size="14.00">Normalized count: 3897.67</text>
<text text-anchor="middle" x="839.09" y="-21.88" font-family="Times New Roman,serif" font-size="14.00">Samples weight: 0.24</text>
</g>
<!-- BB13&#45;&gt;BB14 -->
<g id="edge19" class="edge">
<title>BB13&#45;&gt;BB14</title>
<path fill="none" stroke="black" d="M845.6,-96.19C845.82,-104.45 845.89,-113.13 845.8,-121.64"/>
<polygon fill="black" stroke="black" points="842.29,-121.83 845.61,-131.89 849.29,-121.95 842.29,-121.83"/>
</g>
<!-- BB14&#45;&gt;BB13 -->
<g id="edge20" class="edge">
<title>BB14&#45;&gt;BB13</title>
<path fill="none" stroke="black" d="M832.56,-131.89C832.35,-123.62 832.29,-114.94 832.38,-106.43"/>
<polygon fill="black" stroke="black" points="835.88,-106.26 832.57,-96.19 828.88,-106.12 835.88,-106.26"/>
</g>
<!-- BB14&#45;&gt;BB15 -->
<g id="edge21" class="edge">
<title>BB14&#45;&gt;BB15</title>
<path fill="none" stroke="black" d="M799.12,-225.72C789.3,-236.64 778.7,-248.44 768.6,-259.67"/>
<polygon fill="black" stroke="black" points="765.78,-257.57 761.7,-267.35 770.99,-262.25 765.78,-257.57"/>
</g>
<!-- BB15&#45;&gt;BB16 -->
<g id="edge22" class="edge">
<title>BB15&#45;&gt;BB16</title>
<path fill="none" stroke="black" d="M721.66,-360.61C722.61,-397.44 726.8,-449.43 741.09,-492.67 744.31,-502.43 748.81,-512.28 753.78,-521.63"/>
<polygon fill="black" stroke="black" points="750.75,-523.37 758.67,-530.41 756.86,-519.97 750.75,-523.37"/>
</g>
<!-- BB16&#45;&gt;BB11 -->
<g id="edge23" class="edge">
<title>BB16&#45;&gt;BB11</title>
<path fill="none" stroke="black" d="M814.06,-529.86C819.04,-520.33 824.33,-510.2 829.45,-500.39"/>
<polygon fill="black" stroke="black" points="832.57,-501.98 834.1,-491.5 826.37,-498.74 832.57,-501.98"/>
</g>
<!-- BB17 -->
<g id="node18" class="node">
<title>BB17</title>
<ellipse fill="none" stroke="black" cx="1087.09" cy="-444.58" rx="103.48" ry="48.17"/>
<text text-anchor="middle" x="1087.09" y="-463.38" font-family="Times New Roman,serif" font-size="14.00">[91..92)</text>
<text text-anchor="middle" x="1087.09" y="-448.38" font-family="Times New Roman,serif" font-size="14.00">Count: 3</text>
<text text-anchor="middle" x="1087.09" y="-433.38" font-family="Times New Roman,serif" font-size="14.00">Normalized count: 1.00</text>
<text text-anchor="middle" x="1087.09" y="-418.38" font-family="Times New Roman,serif" font-size="14.00">Samples weight: 0.00</text>
</g>
<!-- BB16&#45;&gt;BB17 -->
<g id="edge24" class="edge">
<title>BB16&#45;&gt;BB17</title>
<path fill="none" stroke="black" d="M866.19,-542.4C908.22,-523.98 960.49,-501.06 1003.64,-482.16"/>
<polygon fill="black" stroke="black" points="1005.23,-485.28 1012.98,-478.06 1002.42,-478.87 1005.23,-485.28"/>
</g>
</g>
</svg>
