<?xml version="1.0" encoding="UTF-8" standalone="no"?>
<!DOCTYPE svg PUBLIC "-//W3C//DTD SVG 1.1//EN"
 "http://www.w3.org/Graphics/SVG/1.1/DTD/svg11.dtd">
<!-- Generated by graphviz version 2.47.0 (20210316.0004)
 -->
<!-- Title: G Pages: 1 -->
<svg width="1252pt" height="897pt"
 viewBox="0.00 0.00 1251.57 897.17" xmlns="http://www.w3.org/2000/svg" xmlns:xlink="http://www.w3.org/1999/xlink">
<g id="graph0" class="graph" transform="scale(1 1) rotate(0) translate(4 893.17)">
<title>G</title>
<polygon fill="white" stroke="transparent" points="-4,4 -4,-893.17 1247.57,-893.17 1247.57,4 -4,4"/>
<!-- BB0 -->
<g id="node1" class="node">
<title>BB0</title>
<ellipse fill="none" stroke="black" cx="785.33" cy="-841.08" rx="103.48" ry="48.17"/>
<text text-anchor="middle" x="785.33" y="-859.88" font-family="Times New Roman,serif" font-size="14.00">[0..5)</text>
<text text-anchor="middle" x="785.33" y="-844.88" font-family="Times New Roman,serif" font-size="14.00">Count: 2</text>
<text text-anchor="middle" x="785.33" y="-829.88" font-family="Times New Roman,serif" font-size="14.00">Normalized count: 1.00</text>
<text text-anchor="middle" x="785.33" y="-814.88" font-family="Times New Roman,serif" font-size="14.00">Samples weight: 0.00</text>
</g>
<!-- BB11 -->
<g id="node12" class="node">
<title>BB11</title>
<ellipse fill="none" stroke="black" cx="785.33" cy="-708.92" rx="103.48" ry="48.17"/>
<text text-anchor="middle" x="785.33" y="-727.72" font-family="Times New Roman,serif" font-size="14.00">[58..5e)</text>
<text text-anchor="middle" x="785.33" y="-712.72" font-family="Times New Roman,serif" font-size="14.00">Count: 3</text>
<text text-anchor="middle" x="785.33" y="-697.72" font-family="Times New Roman,serif" font-size="14.00">Normalized count: 1.50</text>
<text text-anchor="middle" x="785.33" y="-682.72" font-family="Times New Roman,serif" font-size="14.00">Samples weight: 0.00</text>
</g>
<!-- BB0&#45;&gt;BB11 -->
<g id="edge1" class="edge">
<title>BB0&#45;&gt;BB11</title>
<path fill="none" stroke="black" d="M785.33,-792.72C785.33,-784.45 785.33,-775.77 785.33,-767.27"/>
<polygon fill="black" stroke="black" points="788.83,-767.02 785.33,-757.02 781.83,-767.02 788.83,-767.02"/>
</g>
<!-- BB1 -->
<g id="node2" class="node">
<title>BB1</title>
<ellipse fill="none" stroke="black" cx="617.33" cy="-576.75" rx="103.48" ry="48.17"/>
<text text-anchor="middle" x="617.33" y="-595.55" font-family="Times New Roman,serif" font-size="14.00">[5..14)</text>
<text text-anchor="middle" x="617.33" y="-580.55" font-family="Times New Roman,serif" font-size="14.00">Count: 1</text>
<text text-anchor="middle" x="617.33" y="-565.55" font-family="Times New Roman,serif" font-size="14.00">Normalized count: 0.50</text>
<text text-anchor="middle" x="617.33" y="-550.55" font-family="Times New Roman,serif" font-size="14.00">Samples weight: 0.00</text>
</g>
<!-- BB6 -->
<g id="node7" class="node">
<title>BB6</title>
<ellipse fill="none" stroke="black" cx="579.33" cy="-444.58" rx="113.27" ry="48.17"/>
<text text-anchor="middle" x="579.33" y="-463.38" font-family="Times New Roman,serif" font-size="14.00">[33..39)</text>
<text text-anchor="middle" x="579.33" y="-448.38" font-family="Times New Roman,serif" font-size="14.00">Count: 269</text>
<text text-anchor="middle" x="579.33" y="-433.38" font-family="Times New Roman,serif" font-size="14.00">Normalized count: 134.50</text>
<text text-anchor="middle" x="579.33" y="-418.38" font-family="Times New Roman,serif" font-size="14.00">Samples weight: 0.00</text>
</g>
<!-- BB1&#45;&gt;BB6 -->
<g id="edge2" class="edge">
<title>BB1&#45;&gt;BB6</title>
<path fill="none" stroke="black" d="M603.61,-528.76C601.11,-520.18 598.47,-511.16 595.9,-502.34"/>
<polygon fill="black" stroke="black" points="599.19,-501.13 593.03,-492.51 592.47,-503.09 599.19,-501.13"/>
</g>
<!-- BB2 -->
<g id="node3" class="node">
<title>BB2</title>
<ellipse fill="none" stroke="black" cx="230.33" cy="-312.42" rx="113.27" ry="48.17"/>
<text text-anchor="middle" x="230.33" y="-331.22" font-family="Times New Roman,serif" font-size="14.00">[14..18)</text>
<text text-anchor="middle" x="230.33" y="-316.22" font-family="Times New Roman,serif" font-size="14.00">Count: 268</text>
<text text-anchor="middle" x="230.33" y="-301.22" font-family="Times New Roman,serif" font-size="14.00">Normalized count: 134.00</text>
<text text-anchor="middle" x="230.33" y="-286.22" font-family="Times New Roman,serif" font-size="14.00">Samples weight: 0.00</text>
</g>
<!-- BB4 -->
<g id="node5" class="node">
<title>BB4</title>
<ellipse fill="none" stroke="black" cx="174.33" cy="-180.25" rx="122.16" ry="48.17"/>
<text text-anchor="middle" x="174.33" y="-199.05" font-family="Times New Roman,serif" font-size="14.00">[28..2d)</text>
<text text-anchor="middle" x="174.33" y="-184.05" font-family="Times New Roman,serif" font-size="14.00">Count: 29126</text>
<text text-anchor="middle" x="174.33" y="-169.05" font-family="Times New Roman,serif" font-size="14.00">Normalized count: 14563.00</text>
<text text-anchor="middle" x="174.33" y="-154.05" font-family="Times New Roman,serif" font-size="14.00">Samples weight: 0.49</text>
</g>
<!-- BB2&#45;&gt;BB4 -->
<g id="edge3" class="edge">
<title>BB2&#45;&gt;BB4</title>
<path fill="none" stroke="black" d="M210.27,-264.79C206.45,-255.91 202.42,-246.53 198.48,-237.39"/>
<polygon fill="black" stroke="black" points="201.6,-235.79 194.44,-227.99 195.17,-238.56 201.6,-235.79"/>
</g>
<!-- BB3 -->
<g id="node4" class="node">
<title>BB3</title>
<ellipse fill="none" stroke="black" cx="122.33" cy="-48.08" rx="122.16" ry="48.17"/>
<text text-anchor="middle" x="122.33" y="-66.88" font-family="Times New Roman,serif" font-size="14.00">[18..28)</text>
<text text-anchor="middle" x="122.33" y="-51.88" font-family="Times New Roman,serif" font-size="14.00">Count: 28858</text>
<text text-anchor="middle" x="122.33" y="-36.88" font-family="Times New Roman,serif" font-size="14.00">Normalized count: 14429.00</text>
<text text-anchor="middle" x="122.33" y="-21.88" font-family="Times New Roman,serif" font-size="14.00">Samples weight: 0.49</text>
</g>
<!-- BB3&#45;&gt;BB4 -->
<g id="edge4" class="edge">
<title>BB3&#45;&gt;BB4</title>
<path fill="none" stroke="black" d="M147.4,-95.57C151.18,-104.42 154.98,-113.76 158.5,-122.87"/>
<polygon fill="black" stroke="black" points="155.25,-124.15 162.07,-132.26 161.79,-121.67 155.25,-124.15"/>
</g>
<!-- BB4&#45;&gt;BB3 -->
<g id="edge5" class="edge">
<title>BB4&#45;&gt;BB3</title>
<path fill="none" stroke="black" d="M149.36,-132.99C145.55,-124.1 141.73,-114.69 138.18,-105.52"/>
<polygon fill="black" stroke="black" points="141.41,-104.18 134.59,-96.07 134.87,-106.66 141.41,-104.18"/>
</g>
<!-- BB5 -->
<g id="node6" class="node">
<title>BB5</title>
<ellipse fill="none" stroke="black" cx="375.33" cy="-48.08" rx="113.27" ry="48.17"/>
<text text-anchor="middle" x="375.33" y="-66.88" font-family="Times New Roman,serif" font-size="14.00">[2d..33)</text>
<text text-anchor="middle" x="375.33" y="-51.88" font-family="Times New Roman,serif" font-size="14.00">Count: 268</text>
<text text-anchor="middle" x="375.33" y="-36.88" font-family="Times New Roman,serif" font-size="14.00">Normalized count: 134.00</text>
<text text-anchor="middle" x="375.33" y="-21.88" font-family="Times New Roman,serif" font-size="14.00">Samples weight: 0.00</text>
</g>
<!-- BB4&#45;&gt;BB5 -->
<g id="edge6" class="edge">
<title>BB4&#45;&gt;BB5</title>
<path fill="none" stroke="black" d="M236.83,-138.78C258.69,-124.62 283.38,-108.63 305.79,-94.12"/>
<polygon fill="black" stroke="black" points="307.76,-97.01 314.25,-88.64 303.95,-91.14 307.76,-97.01"/>
</g>
<!-- BB5&#45;&gt;BB6 -->
<g id="edge7" class="edge">
<title>BB5&#45;&gt;BB6</title>
<path fill="none" stroke="black" d="M384.2,-96.25C397.9,-160.35 428.75,-276.59 485.33,-360.5 493.82,-373.09 504.66,-384.99 515.94,-395.63"/>
<polygon fill="black" stroke="black" points="513.65,-398.28 523.39,-402.44 518.37,-393.11 513.65,-398.28"/>
</g>
<!-- BB6&#45;&gt;BB2 -->
<g id="edge8" class="edge">
<title>BB6&#45;&gt;BB2</title>
<path fill="none" stroke="black" d="M495.29,-412.24C443.54,-392.94 377.11,-368.16 323.71,-348.25"/>
<polygon fill="black" stroke="black" points="324.84,-344.93 314.24,-344.71 322.39,-351.49 324.84,-344.93"/>
</g>
<!-- BB7 -->
<g id="node8" class="node">
<title>BB7</title>
<ellipse fill="none" stroke="black" cx="597.33" cy="-312.42" rx="103.48" ry="48.17"/>
<text text-anchor="middle" x="597.33" y="-331.22" font-family="Times New Roman,serif" font-size="14.00">[39..3e)</text>
<text text-anchor="middle" x="597.33" y="-316.22" font-family="Times New Roman,serif" font-size="14.00">Count: 1</text>
<text text-anchor="middle" x="597.33" y="-301.22" font-family="Times New Roman,serif" font-size="14.00">Normalized count: 0.50</text>
<text text-anchor="middle" x="597.33" y="-286.22" font-family="Times New Roman,serif" font-size="14.00">Samples weight: 0.00</text>
</g>
<!-- BB6&#45;&gt;BB7 -->
<g id="edge9" class="edge">
<title>BB6&#45;&gt;BB7</title>
<path fill="none" stroke="black" d="M585.88,-396.22C587.03,-387.86 588.25,-379.08 589.44,-370.49"/>
<polygon fill="black" stroke="black" points="592.91,-370.91 590.82,-360.52 585.98,-369.95 592.91,-370.91"/>
</g>
<!-- BB9 -->
<g id="node10" class="node">
<title>BB9</title>
<ellipse fill="none" stroke="black" cx="614.33" cy="-180.25" rx="108.38" ry="48.17"/>
<text text-anchor="middle" x="614.33" y="-199.05" font-family="Times New Roman,serif" font-size="14.00">[4c..52)</text>
<text text-anchor="middle" x="614.33" y="-184.05" font-family="Times New Roman,serif" font-size="14.00">Count: 186</text>
<text text-anchor="middle" x="614.33" y="-169.05" font-family="Times New Roman,serif" font-size="14.00">Normalized count: 93.00</text>
<text text-anchor="middle" x="614.33" y="-154.05" font-family="Times New Roman,serif" font-size="14.00">Samples weight: 0.00</text>
</g>
<!-- BB7&#45;&gt;BB9 -->
<g id="edge10" class="edge">
<title>BB7&#45;&gt;BB9</title>
<path fill="none" stroke="black" d="M603.51,-264.05C604.61,-255.7 605.75,-246.91 606.88,-238.32"/>
<polygon fill="black" stroke="black" points="610.35,-238.73 608.18,-228.36 603.41,-237.82 610.35,-238.73"/>
</g>
<!-- BB8 -->
<g id="node9" class="node">
<title>BB8</title>
<ellipse fill="none" stroke="black" cx="614.33" cy="-48.08" rx="108.38" ry="48.17"/>
<text text-anchor="middle" x="614.33" y="-66.88" font-family="Times New Roman,serif" font-size="14.00">[3e..4c)</text>
<text text-anchor="middle" x="614.33" y="-51.88" font-family="Times New Roman,serif" font-size="14.00">Count: 185</text>
<text text-anchor="middle" x="614.33" y="-36.88" font-family="Times New Roman,serif" font-size="14.00">Normalized count: 92.50</text>
<text text-anchor="middle" x="614.33" y="-21.88" font-family="Times New Roman,serif" font-size="14.00">Samples weight: 0.00</text>
</g>
<!-- BB8&#45;&gt;BB9 -->
<g id="edge11" class="edge">
<title>BB8&#45;&gt;BB9</title>
<path fill="none" stroke="black" d="M620.85,-96.19C621.07,-104.45 621.13,-113.13 621.04,-121.64"/>
<polygon fill="black" stroke="black" points="617.54,-121.83 620.85,-131.89 624.53,-121.95 617.54,-121.83"/>
</g>
<!-- BB9&#45;&gt;BB8 -->
<g id="edge12" class="edge">
<title>BB9&#45;&gt;BB8</title>
<path fill="none" stroke="black" d="M607.81,-131.89C607.59,-123.62 607.53,-114.94 607.62,-106.43"/>
<polygon fill="black" stroke="black" points="611.13,-106.26 607.81,-96.19 604.13,-106.12 611.13,-106.26"/>
</g>
<!-- BB10 -->
<g id="node11" class="node">
<title>BB10</title>
<ellipse fill="none" stroke="black" cx="843.33" cy="-48.08" rx="103.48" ry="48.17"/>
<text text-anchor="middle" x="843.33" y="-66.88" font-family="Times New Roman,serif" font-size="14.00">[52..58)</text>
<text text-anchor="middle" x="843.33" y="-51.88" font-family="Times New Roman,serif" font-size="14.00">Count: 1</text>
<text text-anchor="middle" x="843.33" y="-36.88" font-family="Times New Roman,serif" font-size="14.00">Normalized count: 0.50</text>
<text text-anchor="middle" x="843.33" y="-21.88" font-family="Times New Roman,serif" font-size="14.00">Samples weight: 0.00</text>
</g>
<!-- BB9&#45;&gt;BB10 -->
<g id="edge13" class="edge">
<title>BB9&#45;&gt;BB10</title>
<path fill="none" stroke="black" d="M679.95,-141.95C708.1,-125.95 741.1,-107.19 770.04,-90.74"/>
<polygon fill="black" stroke="black" points="771.92,-93.7 778.88,-85.71 768.46,-87.61 771.92,-93.7"/>
</g>
<!-- BB10&#45;&gt;BB11 -->
<g id="edge14" class="edge">
<title>BB10&#45;&gt;BB11</title>
<path fill="none" stroke="black" d="M826.55,-95.79C809.42,-147.72 785.33,-234.45 785.33,-311.42 785.33,-445.58 785.33,-445.58 785.33,-445.58 785.33,-516.03 785.33,-597.13 785.33,-650.28"/>
<polygon fill="black" stroke="black" points="781.83,-650.52 785.33,-660.52 788.83,-650.52 781.83,-650.52"/>
</g>
<!-- BB11&#45;&gt;BB1 -->
<g id="edge15" class="edge">
<title>BB11&#45;&gt;BB1</title>
<path fill="none" stroke="black" d="M732.63,-667.09C715.28,-653.64 695.84,-638.58 677.94,-624.71"/>
<polygon fill="black" stroke="black" points="679.89,-621.79 669.84,-618.43 675.6,-627.32 679.89,-621.79"/>
</g>
<!-- BB12 -->
<g id="node13" class="node">
<title>BB12</title>
<ellipse fill="none" stroke="black" cx="916.33" cy="-576.75" rx="103.48" ry="48.17"/>
<text text-anchor="middle" x="916.33" y="-595.55" font-family="Times New Roman,serif" font-size="14.00">[5e..69)</text>
<text text-anchor="middle" x="916.33" y="-580.55" font-family="Times New Roman,serif" font-size="14.00">Count: 2</text>
<text text-anchor="middle" x="916.33" y="-565.55" font-family="Times New Roman,serif" font-size="14.00">Normalized count: 1.00</text>
<text text-anchor="middle" x="916.33" y="-550.55" font-family="Times New Roman,serif" font-size="14.00">Samples weight: 0.00</text>
</g>
<!-- BB11&#45;&gt;BB12 -->
<g id="edge16" class="edge">
<title>BB11&#45;&gt;BB12</title>
<path fill="none" stroke="black" d="M828.59,-664.93C840.55,-653.05 853.63,-640.05 865.96,-627.8"/>
<polygon fill="black" stroke="black" points="868.49,-630.22 873.12,-620.69 863.56,-625.25 868.49,-630.22"/>
</g>
<!-- BB14 -->
<g id="node15" class="node">
<title>BB14</title>
<ellipse fill="none" stroke="black" cx="916.33" cy="-444.58" rx="103.48" ry="48.17"/>
<text text-anchor="middle" x="916.33" y="-463.38" font-family="Times New Roman,serif" font-size="14.00">[83..89)</text>
<text text-anchor="middle" x="916.33" y="-448.38" font-family="Times New Roman,serif" font-size="14.00">Count: 2</text>
<text text-anchor="middle" x="916.33" y="-433.38" font-family="Times New Roman,serif" font-size="14.00">Normalized count: 1.00</text>
<text text-anchor="middle" x="916.33" y="-418.38" font-family="Times New Roman,serif" font-size="14.00">Samples weight: 0.00</text>
</g>
<!-- BB12&#45;&gt;BB14 -->
<g id="edge17" class="edge">
<title>BB12&#45;&gt;BB14</title>
<path fill="none" stroke="black" d="M916.33,-528.39C916.33,-520.12 916.33,-511.44 916.33,-502.93"/>
<polygon fill="black" stroke="black" points="919.83,-502.69 916.33,-492.69 912.83,-502.69 919.83,-502.69"/>
</g>
<!-- BB13 -->
<g id="node14" class="node">
<title>BB13</title>
<ellipse fill="none" stroke="black" cx="916.33" cy="-312.42" rx="103.48" ry="48.17"/>
<text text-anchor="middle" x="916.33" y="-331.22" font-family="Times New Roman,serif" font-size="14.00">[69..83)</text>
<text text-anchor="middle" x="916.33" y="-316.22" font-family="Times New Roman,serif" font-size="14.00">Count: 0</text>
<text text-anchor="middle" x="916.33" y="-301.22" font-family="Times New Roman,serif" font-size="14.00">Normalized count: 0.00</text>
<text text-anchor="middle" x="916.33" y="-286.22" font-family="Times New Roman,serif" font-size="14.00">Samples weight: 0.00</text>
</g>
<!-- BB13&#45;&gt;BB14 -->
<g id="edge18" class="edge">
<title>BB13&#45;&gt;BB14</title>
<path fill="none" stroke="black" d="M922.85,-360.78C923.07,-369.07 923.13,-377.79 923.04,-386.32"/>
<polygon fill="black" stroke="black" points="919.53,-386.53 922.84,-396.59 926.53,-386.66 919.53,-386.53"/>
</g>
<!-- BB14&#45;&gt;BB13 -->
<g id="edge19" class="edge">
<title>BB14&#45;&gt;BB13</title>
<path fill="none" stroke="black" d="M909.82,-396.59C909.59,-388.22 909.53,-379.41 909.62,-370.78"/>
<polygon fill="black" stroke="black" points="913.12,-370.84 909.81,-360.78 906.12,-370.71 913.12,-370.84"/>
</g>
<!-- BB15 -->
<g id="node16" class="node">
<title>BB15</title>
<ellipse fill="none" stroke="black" cx="1140.33" cy="-312.42" rx="103.48" ry="48.17"/>
<text text-anchor="middle" x="1140.33" y="-331.22" font-family="Times New Roman,serif" font-size="14.00">[89..90)</text>
<text text-anchor="middle" x="1140.33" y="-316.22" font-family="Times New Roman,serif" font-size="14.00">Count: 2</text>
<text text-anchor="middle" x="1140.33" y="-301.22" font-family="Times New Roman,serif" font-size="14.00">Normalized count: 1.00</text>
<text text-anchor="middle" x="1140.33" y="-286.22" font-family="Times New Roman,serif" font-size="14.00">Samples weight: 0.00</text>
</g>
<!-- BB14&#45;&gt;BB15 -->
<g id="edge20" class="edge">
<title>BB14&#45;&gt;BB15</title>
<path fill="none" stroke="black" d="M979.92,-406.63C1007.35,-390.69 1039.57,-371.97 1067.92,-355.49"/>
<polygon fill="black" stroke="black" points="1069.69,-358.51 1076.58,-350.46 1066.18,-352.46 1069.69,-358.51"/>
</g>
</g>
</svg>
