<?xml version="1.0" encoding="UTF-8" standalone="no"?>
<!DOCTYPE svg PUBLIC "-//W3C//DTD SVG 1.1//EN"
 "http://www.w3.org/Graphics/SVG/1.1/DTD/svg11.dtd">
<!-- Generated by graphviz version 2.47.0 (20210316.0004)
 -->
<!-- Title: G Pages: 1 -->
<svg width="1433pt" height="1294pt"
 viewBox="0.00 0.00 1433.50 1293.67" xmlns="http://www.w3.org/2000/svg" xmlns:xlink="http://www.w3.org/1999/xlink">
<g id="graph0" class="graph" transform="scale(1 1) rotate(0) translate(4 1289.67)">
<title>G</title>
<polygon fill="white" stroke="transparent" points="-4,4 -4,-1289.67 1429.5,-1289.67 1429.5,4 -4,4"/>
<!-- BB0 -->
<g id="node1" class="node">
<title>BB0</title>
<ellipse fill="none" stroke="black" cx="246.65" cy="-1237.58" rx="104.8" ry="48.17"/>
<text text-anchor="middle" x="246.65" y="-1256.38" font-family="Times New Roman,serif" font-size="14.00">[0..c)</text>
<text text-anchor="middle" x="246.65" y="-1241.38" font-family="Times New Roman,serif" font-size="14.00">Count: 0</text>
<text text-anchor="middle" x="246.65" y="-1226.38" font-family="Times New Roman,serif" font-size="14.00">Normalized count: NaN</text>
<text text-anchor="middle" x="246.65" y="-1211.38" font-family="Times New Roman,serif" font-size="14.00">Samples weight: 0.00</text>
</g>
<!-- BB8 -->
<g id="node9" class="node">
<title>BB8</title>
<ellipse fill="none" stroke="black" cx="246.65" cy="-1105.42" rx="104.8" ry="48.17"/>
<text text-anchor="middle" x="246.65" y="-1124.22" font-family="Times New Roman,serif" font-size="14.00">[4f..53)</text>
<text text-anchor="middle" x="246.65" y="-1109.22" font-family="Times New Roman,serif" font-size="14.00">Count: 0</text>
<text text-anchor="middle" x="246.65" y="-1094.22" font-family="Times New Roman,serif" font-size="14.00">Normalized count: NaN</text>
<text text-anchor="middle" x="246.65" y="-1079.22" font-family="Times New Roman,serif" font-size="14.00">Samples weight: 0.00</text>
</g>
<!-- BB0&#45;&gt;BB8 -->
<g id="edge1" class="edge">
<title>BB0&#45;&gt;BB8</title>
<path fill="none" stroke="black" d="M246.65,-1189.22C246.65,-1180.95 246.65,-1172.27 246.65,-1163.77"/>
<polygon fill="black" stroke="black" points="250.15,-1163.52 246.65,-1153.52 243.15,-1163.52 250.15,-1163.52"/>
</g>
<!-- BB1 -->
<g id="node2" class="node">
<title>BB1</title>
<ellipse fill="none" stroke="black" cx="246.65" cy="-973.25" rx="113.69" ry="48.17"/>
<text text-anchor="middle" x="246.65" y="-992.05" font-family="Times New Roman,serif" font-size="14.00">[c..1d)</text>
<text text-anchor="middle" x="246.65" y="-977.05" font-family="Times New Roman,serif" font-size="14.00">Count: 1</text>
<text text-anchor="middle" x="246.65" y="-962.05" font-family="Times New Roman,serif" font-size="14.00">Normalized count: Infinity</text>
<text text-anchor="middle" x="246.65" y="-947.05" font-family="Times New Roman,serif" font-size="14.00">Samples weight: 0.00</text>
</g>
<!-- BB6 -->
<g id="node7" class="node">
<title>BB6</title>
<ellipse fill="none" stroke="black" cx="246.65" cy="-841.08" rx="113.69" ry="48.17"/>
<text text-anchor="middle" x="246.65" y="-859.88" font-family="Times New Roman,serif" font-size="14.00">[47..4b)</text>
<text text-anchor="middle" x="246.65" y="-844.88" font-family="Times New Roman,serif" font-size="14.00">Count: 46</text>
<text text-anchor="middle" x="246.65" y="-829.88" font-family="Times New Roman,serif" font-size="14.00">Normalized count: Infinity</text>
<text text-anchor="middle" x="246.65" y="-814.88" font-family="Times New Roman,serif" font-size="14.00">Samples weight: 0.02</text>
</g>
<!-- BB1&#45;&gt;BB6 -->
<g id="edge2" class="edge">
<title>BB1&#45;&gt;BB6</title>
<path fill="none" stroke="black" d="M246.65,-924.89C246.65,-916.62 246.65,-907.94 246.65,-899.43"/>
<polygon fill="black" stroke="black" points="250.15,-899.19 246.65,-889.19 243.15,-899.19 250.15,-899.19"/>
</g>
<!-- BB2 -->
<g id="node3" class="node">
<title>BB2</title>
<ellipse fill="none" stroke="black" cx="379.65" cy="-708.92" rx="113.69" ry="48.17"/>
<text text-anchor="middle" x="379.65" y="-727.72" font-family="Times New Roman,serif" font-size="14.00">[1d..21)</text>
<text text-anchor="middle" x="379.65" y="-712.72" font-family="Times New Roman,serif" font-size="14.00">Count: 52</text>
<text text-anchor="middle" x="379.65" y="-697.72" font-family="Times New Roman,serif" font-size="14.00">Normalized count: Infinity</text>
<text text-anchor="middle" x="379.65" y="-682.72" font-family="Times New Roman,serif" font-size="14.00">Samples weight: 0.03</text>
</g>
<!-- BB3 -->
<g id="node4" class="node">
<title>BB3</title>
<ellipse fill="none" stroke="black" cx="379.65" cy="-576.75" rx="113.69" ry="48.17"/>
<text text-anchor="middle" x="379.65" y="-595.55" font-family="Times New Roman,serif" font-size="14.00">[21..35)</text>
<text text-anchor="middle" x="379.65" y="-580.55" font-family="Times New Roman,serif" font-size="14.00">Count: 1</text>
<text text-anchor="middle" x="379.65" y="-565.55" font-family="Times New Roman,serif" font-size="14.00">Normalized count: Infinity</text>
<text text-anchor="middle" x="379.65" y="-550.55" font-family="Times New Roman,serif" font-size="14.00">Samples weight: 0.00</text>
</g>
<!-- BB2&#45;&gt;BB3 -->
<g id="edge4" class="edge">
<title>BB2&#45;&gt;BB3</title>
<path fill="none" stroke="black" d="M379.65,-660.55C379.65,-652.29 379.65,-643.6 379.65,-635.1"/>
<polygon fill="black" stroke="black" points="383.15,-634.86 379.65,-624.86 376.15,-634.86 383.15,-634.86"/>
</g>
<!-- BB4 -->
<g id="node5" class="node">
<title>BB4</title>
<ellipse fill="none" stroke="black" cx="625.65" cy="-576.75" rx="113.69" ry="48.17"/>
<text text-anchor="middle" x="625.65" y="-595.55" font-family="Times New Roman,serif" font-size="14.00">[35..43)</text>
<text text-anchor="middle" x="625.65" y="-580.55" font-family="Times New Roman,serif" font-size="14.00">Count: 45</text>
<text text-anchor="middle" x="625.65" y="-565.55" font-family="Times New Roman,serif" font-size="14.00">Normalized count: Infinity</text>
<text text-anchor="middle" x="625.65" y="-550.55" font-family="Times New Roman,serif" font-size="14.00">Samples weight: 0.02</text>
</g>
<!-- BB2&#45;&gt;BB4 -->
<g id="edge3" class="edge">
<title>BB2&#45;&gt;BB4</title>
<path fill="none" stroke="black" d="M449.82,-670.79C479.93,-654.85 515.27,-636.16 546.33,-619.72"/>
<polygon fill="black" stroke="black" points="548.19,-622.7 555.39,-614.92 544.92,-616.51 548.19,-622.7"/>
</g>
<!-- BB5 -->
<g id="node6" class="node">
<title>BB5</title>
<ellipse fill="none" stroke="black" cx="379.65" cy="-444.58" rx="113.69" ry="48.17"/>
<text text-anchor="middle" x="379.65" y="-463.38" font-family="Times New Roman,serif" font-size="14.00">[43..47)</text>
<text text-anchor="middle" x="379.65" y="-448.38" font-family="Times New Roman,serif" font-size="14.00">Count: 45</text>
<text text-anchor="middle" x="379.65" y="-433.38" font-family="Times New Roman,serif" font-size="14.00">Normalized count: Infinity</text>
<text text-anchor="middle" x="379.65" y="-418.38" font-family="Times New Roman,serif" font-size="14.00">Samples weight: 0.02</text>
</g>
<!-- BB3&#45;&gt;BB5 -->
<g id="edge5" class="edge">
<title>BB3&#45;&gt;BB5</title>
<path fill="none" stroke="black" d="M379.65,-528.39C379.65,-520.12 379.65,-511.44 379.65,-502.93"/>
<polygon fill="black" stroke="black" points="383.15,-502.69 379.65,-492.69 376.15,-502.69 383.15,-502.69"/>
</g>
<!-- BB4&#45;&gt;BB5 -->
<g id="edge6" class="edge">
<title>BB4&#45;&gt;BB5</title>
<path fill="none" stroke="black" d="M555.49,-538.62C525.37,-522.69 490.04,-503.99 458.97,-487.55"/>
<polygon fill="black" stroke="black" points="460.39,-484.34 449.91,-482.76 457.11,-490.53 460.39,-484.34"/>
</g>
<!-- BB5&#45;&gt;BB6 -->
<g id="edge7" class="edge">
<title>BB5&#45;&gt;BB6</title>
<path fill="none" stroke="black" d="M303.78,-480.74C285.16,-493.16 267.49,-509.04 256.65,-528.67 212.79,-608.12 222.13,-717.19 233.77,-782.92"/>
<polygon fill="black" stroke="black" points="230.39,-783.9 235.65,-793.09 237.27,-782.62 230.39,-783.9"/>
</g>
<!-- BB6&#45;&gt;BB2 -->
<g id="edge8" class="edge">
<title>BB6&#45;&gt;BB2</title>
<path fill="none" stroke="black" d="M290.94,-796.74C302.7,-785.22 315.52,-772.69 327.65,-760.81"/>
<polygon fill="black" stroke="black" points="330.41,-763.01 335.1,-753.51 325.51,-758.01 330.41,-763.01"/>
</g>
<!-- BB7 -->
<g id="node8" class="node">
<title>BB7</title>
<ellipse fill="none" stroke="black" cx="104.65" cy="-708.92" rx="104.8" ry="48.17"/>
<text text-anchor="middle" x="104.65" y="-727.72" font-family="Times New Roman,serif" font-size="14.00">[4b..4f)</text>
<text text-anchor="middle" x="104.65" y="-712.72" font-family="Times New Roman,serif" font-size="14.00">Count: 0</text>
<text text-anchor="middle" x="104.65" y="-697.72" font-family="Times New Roman,serif" font-size="14.00">Normalized count: NaN</text>
<text text-anchor="middle" x="104.65" y="-682.72" font-family="Times New Roman,serif" font-size="14.00">Samples weight: 0.00</text>
</g>
<!-- BB6&#45;&gt;BB7 -->
<g id="edge9" class="edge">
<title>BB6&#45;&gt;BB7</title>
<path fill="none" stroke="black" d="M199.76,-797.1C186.54,-784.98 172.05,-771.7 158.45,-759.24"/>
<polygon fill="black" stroke="black" points="160.74,-756.59 151.01,-752.41 156.01,-761.75 160.74,-756.59"/>
</g>
<!-- BB7&#45;&gt;BB8 -->
<g id="edge10" class="edge">
<title>BB7&#45;&gt;BB8</title>
<path fill="none" stroke="black" d="M95.34,-757.07C85.2,-821.41 76.18,-938.19 123.65,-1021.33 133.55,-1038.67 148.73,-1053.13 165.08,-1064.86"/>
<polygon fill="black" stroke="black" points="163.49,-1068 173.72,-1070.74 167.43,-1062.22 163.49,-1068"/>
</g>
<!-- BB8&#45;&gt;BB1 -->
<g id="edge11" class="edge">
<title>BB8&#45;&gt;BB1</title>
<path fill="none" stroke="black" d="M246.65,-1057.05C246.65,-1048.79 246.65,-1040.1 246.65,-1031.6"/>
<polygon fill="black" stroke="black" points="250.15,-1031.36 246.65,-1021.36 243.15,-1031.36 250.15,-1031.36"/>
</g>
<!-- BB9 -->
<g id="node10" class="node">
<title>BB9</title>
<ellipse fill="none" stroke="black" cx="605.65" cy="-973.25" rx="104.8" ry="48.17"/>
<text text-anchor="middle" x="605.65" y="-992.05" font-family="Times New Roman,serif" font-size="14.00">[53..57)</text>
<text text-anchor="middle" x="605.65" y="-977.05" font-family="Times New Roman,serif" font-size="14.00">Count: 0</text>
<text text-anchor="middle" x="605.65" y="-962.05" font-family="Times New Roman,serif" font-size="14.00">Normalized count: NaN</text>
<text text-anchor="middle" x="605.65" y="-947.05" font-family="Times New Roman,serif" font-size="14.00">Samples weight: 0.00</text>
</g>
<!-- BB8&#45;&gt;BB9 -->
<g id="edge12" class="edge">
<title>BB8&#45;&gt;BB9</title>
<path fill="none" stroke="black" d="M328.11,-1074.88C383.77,-1054.7 457.56,-1027.94 515.07,-1007.09"/>
<polygon fill="black" stroke="black" points="516.3,-1010.37 524.51,-1003.67 513.92,-1003.79 516.3,-1010.37"/>
</g>
<!-- BB19 -->
<g id="node20" class="node">
<title>BB19</title>
<ellipse fill="none" stroke="black" cx="871.65" cy="-841.08" rx="113.69" ry="48.17"/>
<text text-anchor="middle" x="871.65" y="-859.88" font-family="Times New Roman,serif" font-size="14.00">[bb..c1)</text>
<text text-anchor="middle" x="871.65" y="-844.88" font-family="Times New Roman,serif" font-size="14.00">Count: 1</text>
<text text-anchor="middle" x="871.65" y="-829.88" font-family="Times New Roman,serif" font-size="14.00">Normalized count: Infinity</text>
<text text-anchor="middle" x="871.65" y="-814.88" font-family="Times New Roman,serif" font-size="14.00">Samples weight: 0.00</text>
</g>
<!-- BB9&#45;&gt;BB19 -->
<g id="edge13" class="edge">
<title>BB9&#45;&gt;BB19</title>
<path fill="none" stroke="black" d="M676.24,-937.71C711,-920.7 753.12,-900.09 789.34,-882.36"/>
<polygon fill="black" stroke="black" points="790.97,-885.46 798.41,-877.92 787.89,-879.17 790.97,-885.46"/>
</g>
<!-- BB10 -->
<g id="node11" class="node">
<title>BB10</title>
<ellipse fill="none" stroke="black" cx="942.65" cy="-708.92" rx="113.69" ry="48.17"/>
<text text-anchor="middle" x="942.65" y="-727.72" font-family="Times New Roman,serif" font-size="14.00">[57..69)</text>
<text text-anchor="middle" x="942.65" y="-712.72" font-family="Times New Roman,serif" font-size="14.00">Count: 16</text>
<text text-anchor="middle" x="942.65" y="-697.72" font-family="Times New Roman,serif" font-size="14.00">Normalized count: Infinity</text>
<text text-anchor="middle" x="942.65" y="-682.72" font-family="Times New Roman,serif" font-size="14.00">Samples weight: 0.01</text>
</g>
<!-- BB11 -->
<g id="node12" class="node">
<title>BB11</title>
<ellipse fill="none" stroke="black" cx="1117.65" cy="-576.75" rx="113.69" ry="48.17"/>
<text text-anchor="middle" x="1117.65" y="-595.55" font-family="Times New Roman,serif" font-size="14.00">[69..6d)</text>
<text text-anchor="middle" x="1117.65" y="-580.55" font-family="Times New Roman,serif" font-size="14.00">Count: 10</text>
<text text-anchor="middle" x="1117.65" y="-565.55" font-family="Times New Roman,serif" font-size="14.00">Normalized count: Infinity</text>
<text text-anchor="middle" x="1117.65" y="-550.55" font-family="Times New Roman,serif" font-size="14.00">Samples weight: 0.00</text>
</g>
<!-- BB10&#45;&gt;BB11 -->
<g id="edge15" class="edge">
<title>BB10&#45;&gt;BB11</title>
<path fill="none" stroke="black" d="M998.02,-666.73C1015.82,-653.49 1035.69,-638.72 1054.03,-625.07"/>
<polygon fill="black" stroke="black" points="1056.41,-627.67 1062.34,-618.89 1052.23,-622.05 1056.41,-627.67"/>
</g>
<!-- BB18 -->
<g id="node19" class="node">
<title>BB18</title>
<ellipse fill="none" stroke="black" cx="871.65" cy="-576.75" rx="113.69" ry="48.17"/>
<text text-anchor="middle" x="871.65" y="-595.55" font-family="Times New Roman,serif" font-size="14.00">[b7..bb)</text>
<text text-anchor="middle" x="871.65" y="-580.55" font-family="Times New Roman,serif" font-size="14.00">Count: 1</text>
<text text-anchor="middle" x="871.65" y="-565.55" font-family="Times New Roman,serif" font-size="14.00">Normalized count: Infinity</text>
<text text-anchor="middle" x="871.65" y="-550.55" font-family="Times New Roman,serif" font-size="14.00">Samples weight: 0.00</text>
</g>
<!-- BB10&#45;&gt;BB18 -->
<g id="edge14" class="edge">
<title>BB10&#45;&gt;BB18</title>
<path fill="none" stroke="black" d="M917.42,-661.66C912.35,-652.35 906.96,-642.49 901.74,-632.92"/>
<polygon fill="black" stroke="black" points="904.66,-630.96 896.8,-623.86 898.52,-634.31 904.66,-630.96"/>
</g>
<!-- BB12 -->
<g id="node13" class="node">
<title>BB12</title>
<ellipse fill="none" stroke="black" cx="1065.65" cy="-444.58" rx="113.69" ry="48.17"/>
<text text-anchor="middle" x="1065.65" y="-463.38" font-family="Times New Roman,serif" font-size="14.00">[6d..7a)</text>
<text text-anchor="middle" x="1065.65" y="-448.38" font-family="Times New Roman,serif" font-size="14.00">Count: 6</text>
<text text-anchor="middle" x="1065.65" y="-433.38" font-family="Times New Roman,serif" font-size="14.00">Normalized count: Infinity</text>
<text text-anchor="middle" x="1065.65" y="-418.38" font-family="Times New Roman,serif" font-size="14.00">Samples weight: 0.00</text>
</g>
<!-- BB11&#45;&gt;BB12 -->
<g id="edge17" class="edge">
<title>BB11&#45;&gt;BB12</title>
<path fill="none" stroke="black" d="M1099.03,-529.12C1095.48,-520.24 1091.73,-510.87 1088.08,-501.73"/>
<polygon fill="black" stroke="black" points="1091.28,-500.31 1084.32,-492.32 1084.78,-502.91 1091.28,-500.31"/>
</g>
<!-- BB13 -->
<g id="node14" class="node">
<title>BB13</title>
<ellipse fill="none" stroke="black" cx="1311.65" cy="-444.58" rx="113.69" ry="48.17"/>
<text text-anchor="middle" x="1311.65" y="-463.38" font-family="Times New Roman,serif" font-size="14.00">[7a..85)</text>
<text text-anchor="middle" x="1311.65" y="-448.38" font-family="Times New Roman,serif" font-size="14.00">Count: 4</text>
<text text-anchor="middle" x="1311.65" y="-433.38" font-family="Times New Roman,serif" font-size="14.00">Normalized count: Infinity</text>
<text text-anchor="middle" x="1311.65" y="-418.38" font-family="Times New Roman,serif" font-size="14.00">Samples weight: 0.00</text>
</g>
<!-- BB11&#45;&gt;BB13 -->
<g id="edge16" class="edge">
<title>BB11&#45;&gt;BB13</title>
<path fill="none" stroke="black" d="M1177.44,-535.63C1198.38,-521.59 1222.04,-505.71 1243.6,-491.25"/>
<polygon fill="black" stroke="black" points="1245.71,-494.04 1252.06,-485.57 1241.81,-488.23 1245.71,-494.04"/>
</g>
<!-- BB14 -->
<g id="node15" class="node">
<title>BB14</title>
<ellipse fill="none" stroke="black" cx="1117.65" cy="-312.42" rx="113.69" ry="48.17"/>
<text text-anchor="middle" x="1117.65" y="-331.22" font-family="Times New Roman,serif" font-size="14.00">[85..89)</text>
<text text-anchor="middle" x="1117.65" y="-316.22" font-family="Times New Roman,serif" font-size="14.00">Count: 11</text>
<text text-anchor="middle" x="1117.65" y="-301.22" font-family="Times New Roman,serif" font-size="14.00">Normalized count: Infinity</text>
<text text-anchor="middle" x="1117.65" y="-286.22" font-family="Times New Roman,serif" font-size="14.00">Samples weight: 0.01</text>
</g>
<!-- BB12&#45;&gt;BB14 -->
<g id="edge18" class="edge">
<title>BB12&#45;&gt;BB14</title>
<path fill="none" stroke="black" d="M1084.28,-396.96C1087.83,-388.08 1091.57,-378.7 1095.22,-369.56"/>
<polygon fill="black" stroke="black" points="1098.52,-370.74 1098.98,-360.15 1092.02,-368.14 1098.52,-370.74"/>
</g>
<!-- BB13&#45;&gt;BB14 -->
<g id="edge19" class="edge">
<title>BB13&#45;&gt;BB14</title>
<path fill="none" stroke="black" d="M1251.86,-403.47C1230.93,-389.42 1207.27,-373.54 1185.71,-359.08"/>
<polygon fill="black" stroke="black" points="1187.5,-356.07 1177.24,-353.4 1183.6,-361.88 1187.5,-356.07"/>
</g>
<!-- BB16 -->
<g id="node17" class="node">
<title>BB16</title>
<ellipse fill="none" stroke="black" cx="1117.65" cy="-180.25" rx="113.69" ry="48.17"/>
<text text-anchor="middle" x="1117.65" y="-199.05" font-family="Times New Roman,serif" font-size="14.00">[a2..a6)</text>
<text text-anchor="middle" x="1117.65" y="-184.05" font-family="Times New Roman,serif" font-size="14.00">Count: 919</text>
<text text-anchor="middle" x="1117.65" y="-169.05" font-family="Times New Roman,serif" font-size="14.00">Normalized count: Infinity</text>
<text text-anchor="middle" x="1117.65" y="-154.05" font-family="Times New Roman,serif" font-size="14.00">Samples weight: 0.44</text>
</g>
<!-- BB14&#45;&gt;BB16 -->
<g id="edge20" class="edge">
<title>BB14&#45;&gt;BB16</title>
<path fill="none" stroke="black" d="M1117.65,-264.05C1117.65,-255.79 1117.65,-247.1 1117.65,-238.6"/>
<polygon fill="black" stroke="black" points="1121.15,-238.36 1117.65,-228.36 1114.15,-238.36 1121.15,-238.36"/>
</g>
<!-- BB15 -->
<g id="node16" class="node">
<title>BB15</title>
<ellipse fill="none" stroke="black" cx="1117.65" cy="-48.08" rx="113.69" ry="48.17"/>
<text text-anchor="middle" x="1117.65" y="-66.88" font-family="Times New Roman,serif" font-size="14.00">[89..a2)</text>
<text text-anchor="middle" x="1117.65" y="-51.88" font-family="Times New Roman,serif" font-size="14.00">Count: 907</text>
<text text-anchor="middle" x="1117.65" y="-36.88" font-family="Times New Roman,serif" font-size="14.00">Normalized count: Infinity</text>
<text text-anchor="middle" x="1117.65" y="-21.88" font-family="Times New Roman,serif" font-size="14.00">Samples weight: 0.44</text>
</g>
<!-- BB15&#45;&gt;BB16 -->
<g id="edge21" class="edge">
<title>BB15&#45;&gt;BB16</title>
<path fill="none" stroke="black" d="M1124.17,-96.19C1124.39,-104.45 1124.45,-113.13 1124.36,-121.64"/>
<polygon fill="black" stroke="black" points="1120.86,-121.83 1124.17,-131.89 1127.86,-121.95 1120.86,-121.83"/>
</g>
<!-- BB16&#45;&gt;BB15 -->
<g id="edge22" class="edge">
<title>BB16&#45;&gt;BB15</title>
<path fill="none" stroke="black" d="M1111.13,-131.89C1110.91,-123.62 1110.85,-114.94 1110.94,-106.43"/>
<polygon fill="black" stroke="black" points="1114.45,-106.26 1111.14,-96.19 1107.45,-106.12 1114.45,-106.26"/>
</g>
<!-- BB17 -->
<g id="node18" class="node">
<title>BB17</title>
<ellipse fill="none" stroke="black" cx="871.65" cy="-48.08" rx="113.69" ry="48.17"/>
<text text-anchor="middle" x="871.65" y="-66.88" font-family="Times New Roman,serif" font-size="14.00">[a6..b7)</text>
<text text-anchor="middle" x="871.65" y="-51.88" font-family="Times New Roman,serif" font-size="14.00">Count: 1</text>
<text text-anchor="middle" x="871.65" y="-36.88" font-family="Times New Roman,serif" font-size="14.00">Normalized count: Infinity</text>
<text text-anchor="middle" x="871.65" y="-21.88" font-family="Times New Roman,serif" font-size="14.00">Samples weight: 0.00</text>
</g>
<!-- BB16&#45;&gt;BB17 -->
<g id="edge23" class="edge">
<title>BB16&#45;&gt;BB17</title>
<path fill="none" stroke="black" d="M1047.49,-142.12C1017.37,-126.19 982.04,-107.49 950.97,-91.06"/>
<polygon fill="black" stroke="black" points="952.39,-87.84 941.91,-86.26 949.11,-94.03 952.39,-87.84"/>
</g>
<!-- BB17&#45;&gt;BB18 -->
<g id="edge24" class="edge">
<title>BB17&#45;&gt;BB18</title>
<path fill="none" stroke="black" d="M871.65,-96.37C871.65,-193.2 871.65,-413.74 871.65,-518.48"/>
<polygon fill="black" stroke="black" points="868.15,-518.55 871.65,-528.55 875.15,-518.55 868.15,-518.55"/>
</g>
<!-- BB18&#45;&gt;BB19 -->
<g id="edge25" class="edge">
<title>BB18&#45;&gt;BB19</title>
<path fill="none" stroke="black" d="M837.04,-623.01C829.9,-634.73 823.41,-647.75 819.65,-660.83 807.86,-701.91 807.86,-715.92 819.65,-757 822.5,-766.91 826.91,-776.79 831.99,-786.1"/>
<polygon fill="black" stroke="black" points="829,-787.92 837.04,-794.82 835.06,-784.41 829,-787.92"/>
</g>
<!-- BB19&#45;&gt;BB10 -->
<g id="edge26" class="edge">
<title>BB19&#45;&gt;BB10</title>
<path fill="none" stroke="black" d="M896.88,-793.82C901.96,-784.52 907.34,-774.66 912.56,-765.08"/>
<polygon fill="black" stroke="black" points="915.79,-766.48 917.5,-756.03 909.64,-763.13 915.79,-766.48"/>
</g>
<!-- BB20 -->
<g id="node21" class="node">
<title>BB20</title>
<ellipse fill="none" stroke="black" cx="1178.65" cy="-708.92" rx="104.8" ry="48.17"/>
<text text-anchor="middle" x="1178.65" y="-727.72" font-family="Times New Roman,serif" font-size="14.00">[c1..c2)</text>
<text text-anchor="middle" x="1178.65" y="-712.72" font-family="Times New Roman,serif" font-size="14.00">Count: 0</text>
<text text-anchor="middle" x="1178.65" y="-697.72" font-family="Times New Roman,serif" font-size="14.00">Normalized count: NaN</text>
<text text-anchor="middle" x="1178.65" y="-682.72" font-family="Times New Roman,serif" font-size="14.00">Samples weight: 0.00</text>
</g>
<!-- BB19&#45;&gt;BB20 -->
<g id="edge27" class="edge">
<title>BB19&#45;&gt;BB20</title>
<path fill="none" stroke="black" d="M951.11,-806.39C994.73,-787.9 1048.85,-764.95 1093.36,-746.08"/>
<polygon fill="black" stroke="black" points="1094.86,-749.24 1102.7,-742.12 1092.13,-742.8 1094.86,-749.24"/>
</g>
</g>
</svg>
