<?xml version="1.0" encoding="UTF-8" standalone="no"?>
<!DOCTYPE svg PUBLIC "-//W3C//DTD SVG 1.1//EN"
 "http://www.w3.org/Graphics/SVG/1.1/DTD/svg11.dtd">
<!-- Generated by graphviz version 2.47.0 (20210316.0004)
 -->
<!-- Title: G Pages: 1 -->
<svg width="1304pt" height="897pt"
 viewBox="0.00 0.00 1304.47 897.17" xmlns="http://www.w3.org/2000/svg" xmlns:xlink="http://www.w3.org/1999/xlink">
<g id="graph0" class="graph" transform="scale(1 1) rotate(0) translate(4 893.17)">
<title>G</title>
<polygon fill="white" stroke="transparent" points="-4,4 -4,-893.17 1300.47,-893.17 1300.47,4 -4,4"/>
<!-- BB0 -->
<g id="node1" class="node">
<title>BB0</title>
<ellipse fill="none" stroke="black" cx="818.23" cy="-841.08" rx="103.48" ry="48.17"/>
<text text-anchor="middle" x="818.23" y="-859.88" font-family="Times New Roman,serif" font-size="14.00">[0..5)</text>
<text text-anchor="middle" x="818.23" y="-844.88" font-family="Times New Roman,serif" font-size="14.00">Count: 10</text>
<text text-anchor="middle" x="818.23" y="-829.88" font-family="Times New Roman,serif" font-size="14.00">Normalized count: 1.00</text>
<text text-anchor="middle" x="818.23" y="-814.88" font-family="Times New Roman,serif" font-size="14.00">Samples weight: 0.00</text>
</g>
<!-- BB11 -->
<g id="node12" class="node">
<title>BB11</title>
<ellipse fill="none" stroke="black" cx="818.23" cy="-708.92" rx="113.27" ry="48.17"/>
<text text-anchor="middle" x="818.23" y="-727.72" font-family="Times New Roman,serif" font-size="14.00">[58..5e)</text>
<text text-anchor="middle" x="818.23" y="-712.72" font-family="Times New Roman,serif" font-size="14.00">Count: 2510</text>
<text text-anchor="middle" x="818.23" y="-697.72" font-family="Times New Roman,serif" font-size="14.00">Normalized count: 251.00</text>
<text text-anchor="middle" x="818.23" y="-682.72" font-family="Times New Roman,serif" font-size="14.00">Samples weight: 0.00</text>
</g>
<!-- BB0&#45;&gt;BB11 -->
<g id="edge1" class="edge">
<title>BB0&#45;&gt;BB11</title>
<path fill="none" stroke="black" d="M818.23,-792.72C818.23,-784.45 818.23,-775.77 818.23,-767.27"/>
<polygon fill="black" stroke="black" points="821.73,-767.02 818.23,-757.02 814.73,-767.02 821.73,-767.02"/>
</g>
<!-- BB1 -->
<g id="node2" class="node">
<title>BB1</title>
<ellipse fill="none" stroke="black" cx="673.23" cy="-576.75" rx="113.27" ry="48.17"/>
<text text-anchor="middle" x="673.23" y="-595.55" font-family="Times New Roman,serif" font-size="14.00">[5..14)</text>
<text text-anchor="middle" x="673.23" y="-580.55" font-family="Times New Roman,serif" font-size="14.00">Count: 2500</text>
<text text-anchor="middle" x="673.23" y="-565.55" font-family="Times New Roman,serif" font-size="14.00">Normalized count: 250.00</text>
<text text-anchor="middle" x="673.23" y="-550.55" font-family="Times New Roman,serif" font-size="14.00">Samples weight: 0.00</text>
</g>
<!-- BB6 -->
<g id="node7" class="node">
<title>BB6</title>
<ellipse fill="none" stroke="black" cx="537.23" cy="-444.58" rx="122.16" ry="48.17"/>
<text text-anchor="middle" x="537.23" y="-463.38" font-family="Times New Roman,serif" font-size="14.00">[33..39)</text>
<text text-anchor="middle" x="537.23" y="-448.38" font-family="Times New Roman,serif" font-size="14.00">Count: 255000</text>
<text text-anchor="middle" x="537.23" y="-433.38" font-family="Times New Roman,serif" font-size="14.00">Normalized count: 25500.00</text>
<text text-anchor="middle" x="537.23" y="-418.38" font-family="Times New Roman,serif" font-size="14.00">Samples weight: 0.00</text>
</g>
<!-- BB1&#45;&gt;BB6 -->
<g id="edge2" class="edge">
<title>BB1&#45;&gt;BB6</title>
<path fill="none" stroke="black" d="M627.94,-532.41C616.04,-521.01 603.09,-508.62 590.8,-496.85"/>
<polygon fill="black" stroke="black" points="592.89,-494.01 583.25,-489.63 588.05,-499.07 592.89,-494.01"/>
</g>
<!-- BB2 -->
<g id="node3" class="node">
<title>BB2</title>
<ellipse fill="none" stroke="black" cx="278.23" cy="-312.42" rx="122.16" ry="48.17"/>
<text text-anchor="middle" x="278.23" y="-331.22" font-family="Times New Roman,serif" font-size="14.00">[14..18)</text>
<text text-anchor="middle" x="278.23" y="-316.22" font-family="Times New Roman,serif" font-size="14.00">Count: 252500</text>
<text text-anchor="middle" x="278.23" y="-301.22" font-family="Times New Roman,serif" font-size="14.00">Normalized count: 25250.00</text>
<text text-anchor="middle" x="278.23" y="-286.22" font-family="Times New Roman,serif" font-size="14.00">Samples weight: 0.00</text>
</g>
<!-- BB4 -->
<g id="node5" class="node">
<title>BB4</title>
<ellipse fill="none" stroke="black" cx="245.23" cy="-180.25" rx="132.46" ry="48.17"/>
<text text-anchor="middle" x="245.23" y="-199.05" font-family="Times New Roman,serif" font-size="14.00">[28..2d)</text>
<text text-anchor="middle" x="245.23" y="-184.05" font-family="Times New Roman,serif" font-size="14.00">Count: 25755000</text>
<text text-anchor="middle" x="245.23" y="-169.05" font-family="Times New Roman,serif" font-size="14.00">Normalized count: 2575500.00</text>
<text text-anchor="middle" x="245.23" y="-154.05" font-family="Times New Roman,serif" font-size="14.00">Samples weight: 0.49</text>
</g>
<!-- BB2&#45;&gt;BB4 -->
<g id="edge3" class="edge">
<title>BB2&#45;&gt;BB4</title>
<path fill="none" stroke="black" d="M266.32,-264.42C264.14,-255.85 261.85,-246.83 259.62,-238.01"/>
<polygon fill="black" stroke="black" points="262.98,-237.01 257.13,-228.17 256.19,-238.73 262.98,-237.01"/>
</g>
<!-- BB3 -->
<g id="node4" class="node">
<title>BB3</title>
<ellipse fill="none" stroke="black" cx="132.23" cy="-48.08" rx="132.46" ry="48.17"/>
<text text-anchor="middle" x="132.23" y="-66.88" font-family="Times New Roman,serif" font-size="14.00">[18..28)</text>
<text text-anchor="middle" x="132.23" y="-51.88" font-family="Times New Roman,serif" font-size="14.00">Count: 25502500</text>
<text text-anchor="middle" x="132.23" y="-36.88" font-family="Times New Roman,serif" font-size="14.00">Normalized count: 2550250.00</text>
<text text-anchor="middle" x="132.23" y="-21.88" font-family="Times New Roman,serif" font-size="14.00">Samples weight: 0.49</text>
</g>
<!-- BB3&#45;&gt;BB4 -->
<g id="edge4" class="edge">
<title>BB3&#45;&gt;BB4</title>
<path fill="none" stroke="black" d="M177.39,-93.69C186.66,-103.99 196.34,-115.06 205.4,-125.7"/>
<polygon fill="black" stroke="black" points="202.74,-127.98 211.87,-133.36 208.09,-123.46 202.74,-127.98"/>
</g>
<!-- BB4&#45;&gt;BB3 -->
<g id="edge5" class="edge">
<title>BB4&#45;&gt;BB3</title>
<path fill="none" stroke="black" d="M200.22,-134.82C190.84,-124.39 181.03,-113.17 171.86,-102.39"/>
<polygon fill="black" stroke="black" points="174.44,-100.02 165.31,-94.64 169.09,-104.54 174.44,-100.02"/>
</g>
<!-- BB5 -->
<g id="node6" class="node">
<title>BB5</title>
<ellipse fill="none" stroke="black" cx="405.23" cy="-48.08" rx="122.16" ry="48.17"/>
<text text-anchor="middle" x="405.23" y="-66.88" font-family="Times New Roman,serif" font-size="14.00">[2d..33)</text>
<text text-anchor="middle" x="405.23" y="-51.88" font-family="Times New Roman,serif" font-size="14.00">Count: 252500</text>
<text text-anchor="middle" x="405.23" y="-36.88" font-family="Times New Roman,serif" font-size="14.00">Normalized count: 25250.00</text>
<text text-anchor="middle" x="405.23" y="-21.88" font-family="Times New Roman,serif" font-size="14.00">Samples weight: 0.00</text>
</g>
<!-- BB4&#45;&gt;BB5 -->
<g id="edge6" class="edge">
<title>BB4&#45;&gt;BB5</title>
<path fill="none" stroke="black" d="M298.51,-135.91C313.45,-123.75 329.79,-110.45 345.1,-98"/>
<polygon fill="black" stroke="black" points="347.45,-100.6 353,-91.57 343.03,-95.17 347.45,-100.6"/>
</g>
<!-- BB5&#45;&gt;BB6 -->
<g id="edge7" class="edge">
<title>BB5&#45;&gt;BB6</title>
<path fill="none" stroke="black" d="M420.87,-95.83C445.22,-168.6 492.11,-308.74 518.32,-387.08"/>
<polygon fill="black" stroke="black" points="515.08,-388.41 521.57,-396.78 521.71,-386.19 515.08,-388.41"/>
</g>
<!-- BB6&#45;&gt;BB2 -->
<g id="edge8" class="edge">
<title>BB6&#45;&gt;BB2</title>
<path fill="none" stroke="black" d="M463.01,-406.28C431.31,-390.35 394.17,-371.69 361.54,-355.28"/>
<polygon fill="black" stroke="black" points="362.97,-352.09 352.46,-350.72 359.82,-358.34 362.97,-352.09"/>
</g>
<!-- BB7 -->
<g id="node8" class="node">
<title>BB7</title>
<ellipse fill="none" stroke="black" cx="668.23" cy="-312.42" rx="113.27" ry="48.17"/>
<text text-anchor="middle" x="668.23" y="-331.22" font-family="Times New Roman,serif" font-size="14.00">[39..3e)</text>
<text text-anchor="middle" x="668.23" y="-316.22" font-family="Times New Roman,serif" font-size="14.00">Count: 2500</text>
<text text-anchor="middle" x="668.23" y="-301.22" font-family="Times New Roman,serif" font-size="14.00">Normalized count: 250.00</text>
<text text-anchor="middle" x="668.23" y="-286.22" font-family="Times New Roman,serif" font-size="14.00">Samples weight: 0.00</text>
</g>
<!-- BB6&#45;&gt;BB7 -->
<g id="edge9" class="edge">
<title>BB6&#45;&gt;BB7</title>
<path fill="none" stroke="black" d="M581.58,-399.51C593.01,-388.15 605.41,-375.84 617.15,-364.17"/>
<polygon fill="black" stroke="black" points="619.74,-366.53 624.37,-357 614.81,-361.56 619.74,-366.53"/>
</g>
<!-- BB9 -->
<g id="node10" class="node">
<title>BB9</title>
<ellipse fill="none" stroke="black" cx="668.23" cy="-180.25" rx="122.16" ry="48.17"/>
<text text-anchor="middle" x="668.23" y="-199.05" font-family="Times New Roman,serif" font-size="14.00">[4c..52)</text>
<text text-anchor="middle" x="668.23" y="-184.05" font-family="Times New Roman,serif" font-size="14.00">Count: 255000</text>
<text text-anchor="middle" x="668.23" y="-169.05" font-family="Times New Roman,serif" font-size="14.00">Normalized count: 25500.00</text>
<text text-anchor="middle" x="668.23" y="-154.05" font-family="Times New Roman,serif" font-size="14.00">Samples weight: 0.00</text>
</g>
<!-- BB7&#45;&gt;BB9 -->
<g id="edge10" class="edge">
<title>BB7&#45;&gt;BB9</title>
<path fill="none" stroke="black" d="M668.23,-264.05C668.23,-255.79 668.23,-247.1 668.23,-238.6"/>
<polygon fill="black" stroke="black" points="671.73,-238.36 668.23,-228.36 664.73,-238.36 671.73,-238.36"/>
</g>
<!-- BB8 -->
<g id="node9" class="node">
<title>BB8</title>
<ellipse fill="none" stroke="black" cx="668.23" cy="-48.08" rx="122.16" ry="48.17"/>
<text text-anchor="middle" x="668.23" y="-66.88" font-family="Times New Roman,serif" font-size="14.00">[3e..4c)</text>
<text text-anchor="middle" x="668.23" y="-51.88" font-family="Times New Roman,serif" font-size="14.00">Count: 252500</text>
<text text-anchor="middle" x="668.23" y="-36.88" font-family="Times New Roman,serif" font-size="14.00">Normalized count: 25250.00</text>
<text text-anchor="middle" x="668.23" y="-21.88" font-family="Times New Roman,serif" font-size="14.00">Samples weight: 0.00</text>
</g>
<!-- BB8&#45;&gt;BB9 -->
<g id="edge11" class="edge">
<title>BB8&#45;&gt;BB9</title>
<path fill="none" stroke="black" d="M674.74,-96.19C674.97,-104.45 675.03,-113.13 674.94,-121.64"/>
<polygon fill="black" stroke="black" points="671.44,-121.83 674.75,-131.89 678.43,-121.95 671.44,-121.83"/>
</g>
<!-- BB9&#45;&gt;BB8 -->
<g id="edge12" class="edge">
<title>BB9&#45;&gt;BB8</title>
<path fill="none" stroke="black" d="M661.71,-131.89C661.49,-123.62 661.43,-114.94 661.52,-106.43"/>
<polygon fill="black" stroke="black" points="665.03,-106.26 661.71,-96.19 658.03,-106.12 665.03,-106.26"/>
</g>
<!-- BB10 -->
<g id="node11" class="node">
<title>BB10</title>
<ellipse fill="none" stroke="black" cx="921.23" cy="-48.08" rx="113.27" ry="48.17"/>
<text text-anchor="middle" x="921.23" y="-66.88" font-family="Times New Roman,serif" font-size="14.00">[52..58)</text>
<text text-anchor="middle" x="921.23" y="-51.88" font-family="Times New Roman,serif" font-size="14.00">Count: 2500</text>
<text text-anchor="middle" x="921.23" y="-36.88" font-family="Times New Roman,serif" font-size="14.00">Normalized count: 250.00</text>
<text text-anchor="middle" x="921.23" y="-21.88" font-family="Times New Roman,serif" font-size="14.00">Samples weight: 0.00</text>
</g>
<!-- BB9&#45;&gt;BB10 -->
<g id="edge13" class="edge">
<title>BB9&#45;&gt;BB10</title>
<path fill="none" stroke="black" d="M741.41,-141.6C772.49,-125.61 808.83,-106.91 840.67,-90.53"/>
<polygon fill="black" stroke="black" points="842.67,-93.44 849.96,-85.75 839.47,-87.21 842.67,-93.44"/>
</g>
<!-- BB10&#45;&gt;BB11 -->
<g id="edge14" class="edge">
<title>BB10&#45;&gt;BB11</title>
<path fill="none" stroke="black" d="M891.16,-94.82C860.76,-145.56 818.23,-230.93 818.23,-311.42 818.23,-445.58 818.23,-445.58 818.23,-445.58 818.23,-516.03 818.23,-597.13 818.23,-650.28"/>
<polygon fill="black" stroke="black" points="814.73,-650.52 818.23,-660.52 821.73,-650.52 814.73,-650.52"/>
</g>
<!-- BB11&#45;&gt;BB1 -->
<g id="edge15" class="edge">
<title>BB11&#45;&gt;BB1</title>
<path fill="none" stroke="black" d="M770.35,-664.93C756.99,-652.94 742.36,-639.8 728.6,-627.45"/>
<polygon fill="black" stroke="black" points="730.84,-624.76 721.06,-620.69 726.16,-629.97 730.84,-624.76"/>
</g>
<!-- BB12 -->
<g id="node13" class="node">
<title>BB12</title>
<ellipse fill="none" stroke="black" cx="954.23" cy="-576.75" rx="103.48" ry="48.17"/>
<text text-anchor="middle" x="954.23" y="-595.55" font-family="Times New Roman,serif" font-size="14.00">[5e..69)</text>
<text text-anchor="middle" x="954.23" y="-580.55" font-family="Times New Roman,serif" font-size="14.00">Count: 10</text>
<text text-anchor="middle" x="954.23" y="-565.55" font-family="Times New Roman,serif" font-size="14.00">Normalized count: 1.00</text>
<text text-anchor="middle" x="954.23" y="-550.55" font-family="Times New Roman,serif" font-size="14.00">Samples weight: 0.00</text>
</g>
<!-- BB11&#45;&gt;BB12 -->
<g id="edge16" class="edge">
<title>BB11&#45;&gt;BB12</title>
<path fill="none" stroke="black" d="M863.51,-664.57C875.92,-652.7 889.46,-639.74 902.2,-627.54"/>
<polygon fill="black" stroke="black" points="904.8,-629.9 909.6,-620.46 899.96,-624.85 904.8,-629.9"/>
</g>
<!-- BB14 -->
<g id="node15" class="node">
<title>BB14</title>
<ellipse fill="none" stroke="black" cx="959.23" cy="-444.58" rx="113.27" ry="48.17"/>
<text text-anchor="middle" x="959.23" y="-463.38" font-family="Times New Roman,serif" font-size="14.00">[83..89)</text>
<text text-anchor="middle" x="959.23" y="-448.38" font-family="Times New Roman,serif" font-size="14.00">Count: 2510</text>
<text text-anchor="middle" x="959.23" y="-433.38" font-family="Times New Roman,serif" font-size="14.00">Normalized count: 251.00</text>
<text text-anchor="middle" x="959.23" y="-418.38" font-family="Times New Roman,serif" font-size="14.00">Samples weight: 0.00</text>
</g>
<!-- BB12&#45;&gt;BB14 -->
<g id="edge17" class="edge">
<title>BB12&#45;&gt;BB14</title>
<path fill="none" stroke="black" d="M956.05,-528.39C956.37,-520.12 956.7,-511.44 957.03,-502.93"/>
<polygon fill="black" stroke="black" points="960.53,-502.82 957.42,-492.69 953.54,-502.55 960.53,-502.82"/>
</g>
<!-- BB13 -->
<g id="node14" class="node">
<title>BB13</title>
<ellipse fill="none" stroke="black" cx="959.23" cy="-312.42" rx="113.27" ry="48.17"/>
<text text-anchor="middle" x="959.23" y="-331.22" font-family="Times New Roman,serif" font-size="14.00">[69..83)</text>
<text text-anchor="middle" x="959.23" y="-316.22" font-family="Times New Roman,serif" font-size="14.00">Count: 2500</text>
<text text-anchor="middle" x="959.23" y="-301.22" font-family="Times New Roman,serif" font-size="14.00">Normalized count: 250.00</text>
<text text-anchor="middle" x="959.23" y="-286.22" font-family="Times New Roman,serif" font-size="14.00">Samples weight: 0.00</text>
</g>
<!-- BB13&#45;&gt;BB14 -->
<g id="edge18" class="edge">
<title>BB13&#45;&gt;BB14</title>
<path fill="none" stroke="black" d="M965.74,-360.52C965.97,-368.78 966.03,-377.46 965.94,-385.97"/>
<polygon fill="black" stroke="black" points="962.44,-386.16 965.75,-396.22 969.43,-386.29 962.44,-386.16"/>
</g>
<!-- BB14&#45;&gt;BB13 -->
<g id="edge19" class="edge">
<title>BB14&#45;&gt;BB13</title>
<path fill="none" stroke="black" d="M952.71,-396.22C952.49,-387.95 952.43,-379.27 952.52,-370.77"/>
<polygon fill="black" stroke="black" points="956.03,-370.59 952.71,-360.52 949.03,-370.46 956.03,-370.59"/>
</g>
<!-- BB15 -->
<g id="node16" class="node">
<title>BB15</title>
<ellipse fill="none" stroke="black" cx="1193.23" cy="-312.42" rx="103.48" ry="48.17"/>
<text text-anchor="middle" x="1193.23" y="-331.22" font-family="Times New Roman,serif" font-size="14.00">[89..90)</text>
<text text-anchor="middle" x="1193.23" y="-316.22" font-family="Times New Roman,serif" font-size="14.00">Count: 10</text>
<text text-anchor="middle" x="1193.23" y="-301.22" font-family="Times New Roman,serif" font-size="14.00">Normalized count: 1.00</text>
<text text-anchor="middle" x="1193.23" y="-286.22" font-family="Times New Roman,serif" font-size="14.00">Samples weight: 0.00</text>
</g>
<!-- BB14&#45;&gt;BB15 -->
<g id="edge20" class="edge">
<title>BB14&#45;&gt;BB15</title>
<path fill="none" stroke="black" d="M1026.91,-405.93C1055.66,-389.94 1089.27,-371.25 1118.72,-354.86"/>
<polygon fill="black" stroke="black" points="1120.68,-357.78 1127.71,-349.86 1117.27,-351.66 1120.68,-357.78"/>
</g>
</g>
</svg>
