<?xml version="1.0" encoding="UTF-8" standalone="no"?>
<!DOCTYPE svg PUBLIC "-//W3C//DTD SVG 1.1//EN"
 "http://www.w3.org/Graphics/SVG/1.1/DTD/svg11.dtd">
<!-- Generated by graphviz version 2.47.0 (20210316.0004)
 -->
<!-- Title: G Pages: 1 -->
<svg width="2803pt" height="1690pt"
 viewBox="0.00 0.00 2802.69 1690.16" xmlns="http://www.w3.org/2000/svg" xmlns:xlink="http://www.w3.org/1999/xlink">
<g id="graph0" class="graph" transform="scale(1 1) rotate(0) translate(4 1686.16)">
<title>G</title>
<polygon fill="white" stroke="transparent" points="-4,4 -4,-1686.16 2798.69,-1686.16 2798.69,4 -4,4"/>
<!-- BB0 -->
<g id="node1" class="node">
<title>BB0</title>
<ellipse fill="none" stroke="black" cx="633.84" cy="-1634.08" rx="104.8" ry="48.17"/>
<text text-anchor="middle" x="633.84" y="-1652.88" font-family="Times New Roman,serif" font-size="14.00">[0..15)</text>
<text text-anchor="middle" x="633.84" y="-1637.88" font-family="Times New Roman,serif" font-size="14.00">Count: 0</text>
<text text-anchor="middle" x="633.84" y="-1622.88" font-family="Times New Roman,serif" font-size="14.00">Normalized count: NaN</text>
<text text-anchor="middle" x="633.84" y="-1607.88" font-family="Times New Roman,serif" font-size="14.00">Samples weight: 0.00</text>
</g>
<!-- BB9 -->
<g id="node10" class="node">
<title>BB9</title>
<ellipse fill="none" stroke="black" cx="633.84" cy="-1501.92" rx="104.8" ry="48.17"/>
<text text-anchor="middle" x="633.84" y="-1520.72" font-family="Times New Roman,serif" font-size="14.00">[6d..71)</text>
<text text-anchor="middle" x="633.84" y="-1505.72" font-family="Times New Roman,serif" font-size="14.00">Count: 0</text>
<text text-anchor="middle" x="633.84" y="-1490.72" font-family="Times New Roman,serif" font-size="14.00">Normalized count: NaN</text>
<text text-anchor="middle" x="633.84" y="-1475.72" font-family="Times New Roman,serif" font-size="14.00">Samples weight: 0.00</text>
</g>
<!-- BB0&#45;&gt;BB9 -->
<g id="edge1" class="edge">
<title>BB0&#45;&gt;BB9</title>
<path fill="none" stroke="black" d="M633.84,-1585.72C633.84,-1577.45 633.84,-1568.77 633.84,-1560.27"/>
<polygon fill="black" stroke="black" points="637.34,-1560.02 633.84,-1550.02 630.34,-1560.02 637.34,-1560.02"/>
</g>
<!-- BB1 -->
<g id="node2" class="node">
<title>BB1</title>
<ellipse fill="none" stroke="black" cx="633.84" cy="-1369.75" rx="104.8" ry="48.17"/>
<text text-anchor="middle" x="633.84" y="-1388.55" font-family="Times New Roman,serif" font-size="14.00">[15..24)</text>
<text text-anchor="middle" x="633.84" y="-1373.55" font-family="Times New Roman,serif" font-size="14.00">Count: 0</text>
<text text-anchor="middle" x="633.84" y="-1358.55" font-family="Times New Roman,serif" font-size="14.00">Normalized count: NaN</text>
<text text-anchor="middle" x="633.84" y="-1343.55" font-family="Times New Roman,serif" font-size="14.00">Samples weight: 0.00</text>
</g>
<!-- BB5 -->
<g id="node6" class="node">
<title>BB5</title>
<ellipse fill="none" stroke="black" cx="633.84" cy="-1237.58" rx="113.69" ry="48.17"/>
<text text-anchor="middle" x="633.84" y="-1256.38" font-family="Times New Roman,serif" font-size="14.00">[44..49)</text>
<text text-anchor="middle" x="633.84" y="-1241.38" font-family="Times New Roman,serif" font-size="14.00">Count: 10</text>
<text text-anchor="middle" x="633.84" y="-1226.38" font-family="Times New Roman,serif" font-size="14.00">Normalized count: Infinity</text>
<text text-anchor="middle" x="633.84" y="-1211.38" font-family="Times New Roman,serif" font-size="14.00">Samples weight: 0.00</text>
</g>
<!-- BB1&#45;&gt;BB5 -->
<g id="edge2" class="edge">
<title>BB1&#45;&gt;BB5</title>
<path fill="none" stroke="black" d="M633.84,-1321.39C633.84,-1313.12 633.84,-1304.44 633.84,-1295.93"/>
<polygon fill="black" stroke="black" points="637.34,-1295.69 633.84,-1285.69 630.34,-1295.69 637.34,-1295.69"/>
</g>
<!-- BB2 -->
<g id="node3" class="node">
<title>BB2</title>
<ellipse fill="none" stroke="black" cx="633.84" cy="-1105.42" rx="113.69" ry="48.17"/>
<text text-anchor="middle" x="633.84" y="-1124.22" font-family="Times New Roman,serif" font-size="14.00">[24..32)</text>
<text text-anchor="middle" x="633.84" y="-1109.22" font-family="Times New Roman,serif" font-size="14.00">Count: 67</text>
<text text-anchor="middle" x="633.84" y="-1094.22" font-family="Times New Roman,serif" font-size="14.00">Normalized count: Infinity</text>
<text text-anchor="middle" x="633.84" y="-1079.22" font-family="Times New Roman,serif" font-size="14.00">Samples weight: 0.02</text>
</g>
<!-- BB3 -->
<g id="node4" class="node">
<title>BB3</title>
<ellipse fill="none" stroke="black" cx="585.84" cy="-973.25" rx="113.69" ry="48.17"/>
<text text-anchor="middle" x="585.84" y="-992.05" font-family="Times New Roman,serif" font-size="14.00">[32..3e)</text>
<text text-anchor="middle" x="585.84" y="-977.05" font-family="Times New Roman,serif" font-size="14.00">Count: 19</text>
<text text-anchor="middle" x="585.84" y="-962.05" font-family="Times New Roman,serif" font-size="14.00">Normalized count: Infinity</text>
<text text-anchor="middle" x="585.84" y="-947.05" font-family="Times New Roman,serif" font-size="14.00">Samples weight: 0.01</text>
</g>
<!-- BB2&#45;&gt;BB3 -->
<g id="edge4" class="edge">
<title>BB2&#45;&gt;BB3</title>
<path fill="none" stroke="black" d="M616.65,-1057.79C613.38,-1048.91 609.92,-1039.53 606.55,-1030.39"/>
<polygon fill="black" stroke="black" points="609.82,-1029.16 603.08,-1020.99 603.26,-1031.58 609.82,-1029.16"/>
</g>
<!-- BB4 -->
<g id="node5" class="node">
<title>BB4</title>
<ellipse fill="none" stroke="black" cx="831.84" cy="-973.25" rx="113.69" ry="48.17"/>
<text text-anchor="middle" x="831.84" y="-992.05" font-family="Times New Roman,serif" font-size="14.00">[3e..44)</text>
<text text-anchor="middle" x="831.84" y="-977.05" font-family="Times New Roman,serif" font-size="14.00">Count: 2</text>
<text text-anchor="middle" x="831.84" y="-962.05" font-family="Times New Roman,serif" font-size="14.00">Normalized count: Infinity</text>
<text text-anchor="middle" x="831.84" y="-947.05" font-family="Times New Roman,serif" font-size="14.00">Samples weight: 0.00</text>
</g>
<!-- BB2&#45;&gt;BB4 -->
<g id="edge3" class="edge">
<title>BB2&#45;&gt;BB4</title>
<path fill="none" stroke="black" d="M694.33,-1064.65C715.91,-1050.47 740.38,-1034.38 762.64,-1019.75"/>
<polygon fill="black" stroke="black" points="764.62,-1022.63 771.05,-1014.22 760.77,-1016.78 764.62,-1022.63"/>
</g>
<!-- BB3&#45;&gt;BB4 -->
<g id="edge5" class="edge">
<title>BB3&#45;&gt;BB4</title>
<path fill="none" stroke="black" d="M699.72,-973.25C702.35,-973.25 704.98,-973.25 707.62,-973.25"/>
<polygon fill="black" stroke="black" points="707.78,-976.75 717.78,-973.25 707.78,-969.75 707.78,-976.75"/>
</g>
<!-- BB4&#45;&gt;BB5 -->
<g id="edge6" class="edge">
<title>BB4&#45;&gt;BB5</title>
<path fill="none" stroke="black" d="M820.3,-1021.25C809.02,-1059.91 788.81,-1114.49 756.84,-1153.5 744.4,-1168.69 728.46,-1182.2 712.21,-1193.68"/>
<polygon fill="black" stroke="black" points="709.98,-1190.97 703.7,-1199.5 713.93,-1196.74 709.98,-1190.97"/>
</g>
<!-- BB5&#45;&gt;BB2 -->
<g id="edge7" class="edge">
<title>BB5&#45;&gt;BB2</title>
<path fill="none" stroke="black" d="M633.84,-1189.22C633.84,-1180.95 633.84,-1172.27 633.84,-1163.77"/>
<polygon fill="black" stroke="black" points="637.34,-1163.52 633.84,-1153.52 630.34,-1163.52 637.34,-1163.52"/>
</g>
<!-- BB6 -->
<g id="node7" class="node">
<title>BB6</title>
<ellipse fill="none" stroke="black" cx="349.84" cy="-1105.42" rx="113.69" ry="48.17"/>
<text text-anchor="middle" x="349.84" y="-1124.22" font-family="Times New Roman,serif" font-size="14.00">[49..55)</text>
<text text-anchor="middle" x="349.84" y="-1109.22" font-family="Times New Roman,serif" font-size="14.00">Count: 2</text>
<text text-anchor="middle" x="349.84" y="-1094.22" font-family="Times New Roman,serif" font-size="14.00">Normalized count: Infinity</text>
<text text-anchor="middle" x="349.84" y="-1079.22" font-family="Times New Roman,serif" font-size="14.00">Samples weight: 0.00</text>
</g>
<!-- BB5&#45;&gt;BB6 -->
<g id="edge8" class="edge">
<title>BB5&#45;&gt;BB6</title>
<path fill="none" stroke="black" d="M557.74,-1201.7C520.01,-1184.41 474.32,-1163.47 435.39,-1145.62"/>
<polygon fill="black" stroke="black" points="436.71,-1142.38 426.16,-1141.39 433.79,-1148.74 436.71,-1142.38"/>
</g>
<!-- BB7 -->
<g id="node8" class="node">
<title>BB7</title>
<ellipse fill="none" stroke="black" cx="349.84" cy="-973.25" rx="104.8" ry="48.17"/>
<text text-anchor="middle" x="349.84" y="-992.05" font-family="Times New Roman,serif" font-size="14.00">[55..57)</text>
<text text-anchor="middle" x="349.84" y="-977.05" font-family="Times New Roman,serif" font-size="14.00">Count: 0</text>
<text text-anchor="middle" x="349.84" y="-962.05" font-family="Times New Roman,serif" font-size="14.00">Normalized count: NaN</text>
<text text-anchor="middle" x="349.84" y="-947.05" font-family="Times New Roman,serif" font-size="14.00">Samples weight: 0.00</text>
</g>
<!-- BB6&#45;&gt;BB7 -->
<g id="edge10" class="edge">
<title>BB6&#45;&gt;BB7</title>
<path fill="none" stroke="black" d="M349.84,-1057.05C349.84,-1048.79 349.84,-1040.1 349.84,-1031.6"/>
<polygon fill="black" stroke="black" points="353.34,-1031.36 349.84,-1021.36 346.34,-1031.36 353.34,-1031.36"/>
</g>
<!-- BB8 -->
<g id="node9" class="node">
<title>BB8</title>
<ellipse fill="none" stroke="black" cx="113.84" cy="-973.25" rx="113.69" ry="48.17"/>
<text text-anchor="middle" x="113.84" y="-992.05" font-family="Times New Roman,serif" font-size="14.00">[57..6d)</text>
<text text-anchor="middle" x="113.84" y="-977.05" font-family="Times New Roman,serif" font-size="14.00">Count: 1</text>
<text text-anchor="middle" x="113.84" y="-962.05" font-family="Times New Roman,serif" font-size="14.00">Normalized count: Infinity</text>
<text text-anchor="middle" x="113.84" y="-947.05" font-family="Times New Roman,serif" font-size="14.00">Samples weight: 0.00</text>
</g>
<!-- BB6&#45;&gt;BB8 -->
<g id="edge9" class="edge">
<title>BB6&#45;&gt;BB8</title>
<path fill="none" stroke="black" d="M281.58,-1066.77C253.21,-1051.12 220.14,-1032.87 190.89,-1016.75"/>
<polygon fill="black" stroke="black" points="192.4,-1013.58 181.95,-1011.81 189.02,-1019.71 192.4,-1013.58"/>
</g>
<!-- BB8&#45;&gt;BB9 -->
<g id="edge11" class="edge">
<title>BB8&#45;&gt;BB9</title>
<path fill="none" stroke="black" d="M138.28,-1020.42C159.28,-1058.08 191.67,-1111.7 226.84,-1153.5 331.34,-1277.66 482.74,-1394.14 568.37,-1455.61"/>
<polygon fill="black" stroke="black" points="566.53,-1458.59 576.7,-1461.56 570.6,-1452.9 566.53,-1458.59"/>
</g>
<!-- BB9&#45;&gt;BB1 -->
<g id="edge12" class="edge">
<title>BB9&#45;&gt;BB1</title>
<path fill="none" stroke="black" d="M633.84,-1453.55C633.84,-1445.29 633.84,-1436.6 633.84,-1428.1"/>
<polygon fill="black" stroke="black" points="637.34,-1427.86 633.84,-1417.86 630.34,-1427.86 637.34,-1427.86"/>
</g>
<!-- BB10 -->
<g id="node11" class="node">
<title>BB10</title>
<ellipse fill="none" stroke="black" cx="935.84" cy="-1369.75" rx="104.8" ry="48.17"/>
<text text-anchor="middle" x="935.84" y="-1388.55" font-family="Times New Roman,serif" font-size="14.00">[71..79)</text>
<text text-anchor="middle" x="935.84" y="-1373.55" font-family="Times New Roman,serif" font-size="14.00">Count: 0</text>
<text text-anchor="middle" x="935.84" y="-1358.55" font-family="Times New Roman,serif" font-size="14.00">Normalized count: NaN</text>
<text text-anchor="middle" x="935.84" y="-1343.55" font-family="Times New Roman,serif" font-size="14.00">Samples weight: 0.00</text>
</g>
<!-- BB9&#45;&gt;BB10 -->
<g id="edge13" class="edge">
<title>BB9&#45;&gt;BB10</title>
<path fill="none" stroke="black" d="M709.27,-1468.4C752.41,-1449.81 806.64,-1426.44 851.23,-1407.22"/>
<polygon fill="black" stroke="black" points="852.79,-1410.36 860.59,-1403.18 850.02,-1403.93 852.79,-1410.36"/>
</g>
<!-- BB40 -->
<g id="node41" class="node">
<title>BB40</title>
<ellipse fill="none" stroke="black" cx="1039.84" cy="-1237.58" rx="104.8" ry="48.17"/>
<text text-anchor="middle" x="1039.84" y="-1256.38" font-family="Times New Roman,serif" font-size="14.00">[1d7..1df)</text>
<text text-anchor="middle" x="1039.84" y="-1241.38" font-family="Times New Roman,serif" font-size="14.00">Count: 0</text>
<text text-anchor="middle" x="1039.84" y="-1226.38" font-family="Times New Roman,serif" font-size="14.00">Normalized count: NaN</text>
<text text-anchor="middle" x="1039.84" y="-1211.38" font-family="Times New Roman,serif" font-size="14.00">Samples weight: 0.00</text>
</g>
<!-- BB10&#45;&gt;BB40 -->
<g id="edge14" class="edge">
<title>BB10&#45;&gt;BB40</title>
<path fill="none" stroke="black" d="M971.34,-1324.32C979.87,-1313.65 989.05,-1302.16 997.84,-1291.16"/>
<polygon fill="black" stroke="black" points="1000.64,-1293.25 1004.15,-1283.26 995.17,-1288.88 1000.64,-1293.25"/>
</g>
<!-- BB11 -->
<g id="node12" class="node">
<title>BB11</title>
<ellipse fill="none" stroke="black" cx="2185.84" cy="-1105.42" rx="104.8" ry="48.17"/>
<text text-anchor="middle" x="2185.84" y="-1124.22" font-family="Times New Roman,serif" font-size="14.00">[79..7d)</text>
<text text-anchor="middle" x="2185.84" y="-1109.22" font-family="Times New Roman,serif" font-size="14.00">Count: 0</text>
<text text-anchor="middle" x="2185.84" y="-1094.22" font-family="Times New Roman,serif" font-size="14.00">Normalized count: NaN</text>
<text text-anchor="middle" x="2185.84" y="-1079.22" font-family="Times New Roman,serif" font-size="14.00">Samples weight: 0.00</text>
</g>
<!-- BB12 -->
<g id="node13" class="node">
<title>BB12</title>
<ellipse fill="none" stroke="black" cx="2435.84" cy="-973.25" rx="104.8" ry="48.17"/>
<text text-anchor="middle" x="2435.84" y="-992.05" font-family="Times New Roman,serif" font-size="14.00">[7d..81)</text>
<text text-anchor="middle" x="2435.84" y="-977.05" font-family="Times New Roman,serif" font-size="14.00">Count: 0</text>
<text text-anchor="middle" x="2435.84" y="-962.05" font-family="Times New Roman,serif" font-size="14.00">Normalized count: NaN</text>
<text text-anchor="middle" x="2435.84" y="-947.05" font-family="Times New Roman,serif" font-size="14.00">Samples weight: 0.00</text>
</g>
<!-- BB11&#45;&gt;BB12 -->
<g id="edge16" class="edge">
<title>BB11&#45;&gt;BB12</title>
<path fill="none" stroke="black" d="M2254.16,-1068.85C2286.4,-1052.06 2325.03,-1031.95 2358.36,-1014.59"/>
<polygon fill="black" stroke="black" points="2360.36,-1017.5 2367.61,-1009.77 2357.13,-1011.29 2360.36,-1017.5"/>
</g>
<!-- BB19 -->
<g id="node20" class="node">
<title>BB19</title>
<ellipse fill="none" stroke="black" cx="2185.84" cy="-973.25" rx="113.69" ry="48.17"/>
<text text-anchor="middle" x="2185.84" y="-992.05" font-family="Times New Roman,serif" font-size="14.00">[bc..cb)</text>
<text text-anchor="middle" x="2185.84" y="-977.05" font-family="Times New Roman,serif" font-size="14.00">Count: 1</text>
<text text-anchor="middle" x="2185.84" y="-962.05" font-family="Times New Roman,serif" font-size="14.00">Normalized count: Infinity</text>
<text text-anchor="middle" x="2185.84" y="-947.05" font-family="Times New Roman,serif" font-size="14.00">Samples weight: 0.00</text>
</g>
<!-- BB11&#45;&gt;BB19 -->
<g id="edge15" class="edge">
<title>BB11&#45;&gt;BB19</title>
<path fill="none" stroke="black" d="M2185.84,-1057.05C2185.84,-1048.79 2185.84,-1040.1 2185.84,-1031.6"/>
<polygon fill="black" stroke="black" points="2189.34,-1031.36 2185.84,-1021.36 2182.34,-1031.36 2189.34,-1031.36"/>
</g>
<!-- BB18 -->
<g id="node19" class="node">
<title>BB18</title>
<ellipse fill="none" stroke="black" cx="2443.84" cy="-841.08" rx="113.69" ry="48.17"/>
<text text-anchor="middle" x="2443.84" y="-859.88" font-family="Times New Roman,serif" font-size="14.00">[b7..bc)</text>
<text text-anchor="middle" x="2443.84" y="-844.88" font-family="Times New Roman,serif" font-size="14.00">Count: 2</text>
<text text-anchor="middle" x="2443.84" y="-829.88" font-family="Times New Roman,serif" font-size="14.00">Normalized count: Infinity</text>
<text text-anchor="middle" x="2443.84" y="-814.88" font-family="Times New Roman,serif" font-size="14.00">Samples weight: 0.00</text>
</g>
<!-- BB12&#45;&gt;BB18 -->
<g id="edge17" class="edge">
<title>BB12&#45;&gt;BB18</title>
<path fill="none" stroke="black" d="M2438.76,-924.89C2439.26,-916.62 2439.8,-907.94 2440.32,-899.43"/>
<polygon fill="black" stroke="black" points="2443.83,-899.39 2440.95,-889.19 2436.84,-898.96 2443.83,-899.39"/>
</g>
<!-- BB13 -->
<g id="node14" class="node">
<title>BB13</title>
<ellipse fill="none" stroke="black" cx="2453.84" cy="-708.92" rx="113.69" ry="48.17"/>
<text text-anchor="middle" x="2453.84" y="-727.72" font-family="Times New Roman,serif" font-size="14.00">[81..8b)</text>
<text text-anchor="middle" x="2453.84" y="-712.72" font-family="Times New Roman,serif" font-size="14.00">Count: 39</text>
<text text-anchor="middle" x="2453.84" y="-697.72" font-family="Times New Roman,serif" font-size="14.00">Normalized count: Infinity</text>
<text text-anchor="middle" x="2453.84" y="-682.72" font-family="Times New Roman,serif" font-size="14.00">Samples weight: 0.01</text>
</g>
<!-- BB14 -->
<g id="node15" class="node">
<title>BB14</title>
<ellipse fill="none" stroke="black" cx="2444.84" cy="-576.75" rx="104.8" ry="48.17"/>
<text text-anchor="middle" x="2444.84" y="-595.55" font-family="Times New Roman,serif" font-size="14.00">[8b..90)</text>
<text text-anchor="middle" x="2444.84" y="-580.55" font-family="Times New Roman,serif" font-size="14.00">Count: 0</text>
<text text-anchor="middle" x="2444.84" y="-565.55" font-family="Times New Roman,serif" font-size="14.00">Normalized count: NaN</text>
<text text-anchor="middle" x="2444.84" y="-550.55" font-family="Times New Roman,serif" font-size="14.00">Samples weight: 0.00</text>
</g>
<!-- BB13&#45;&gt;BB14 -->
<g id="edge19" class="edge">
<title>BB13&#45;&gt;BB14</title>
<path fill="none" stroke="black" d="M2450.57,-660.55C2450,-652.29 2449.4,-643.6 2448.81,-635.1"/>
<polygon fill="black" stroke="black" points="2452.28,-634.59 2448.1,-624.86 2445.3,-635.08 2452.28,-634.59"/>
</g>
<!-- BB17 -->
<g id="node18" class="node">
<title>BB17</title>
<ellipse fill="none" stroke="black" cx="2680.84" cy="-576.75" rx="113.69" ry="48.17"/>
<text text-anchor="middle" x="2680.84" y="-595.55" font-family="Times New Roman,serif" font-size="14.00">[ac..b7)</text>
<text text-anchor="middle" x="2680.84" y="-580.55" font-family="Times New Roman,serif" font-size="14.00">Count: 46</text>
<text text-anchor="middle" x="2680.84" y="-565.55" font-family="Times New Roman,serif" font-size="14.00">Normalized count: Infinity</text>
<text text-anchor="middle" x="2680.84" y="-550.55" font-family="Times New Roman,serif" font-size="14.00">Samples weight: 0.01</text>
</g>
<!-- BB13&#45;&gt;BB17 -->
<g id="edge18" class="edge">
<title>BB13&#45;&gt;BB17</title>
<path fill="none" stroke="black" d="M2520.42,-669.74C2547.1,-654.44 2577.97,-636.74 2605.47,-620.97"/>
<polygon fill="black" stroke="black" points="2607.34,-623.93 2614.27,-615.92 2603.86,-617.86 2607.34,-623.93"/>
</g>
<!-- BB16 -->
<g id="node17" class="node">
<title>BB16</title>
<ellipse fill="none" stroke="black" cx="2671.84" cy="-444.58" rx="113.69" ry="48.17"/>
<text text-anchor="middle" x="2671.84" y="-463.38" font-family="Times New Roman,serif" font-size="14.00">[a7..ac)</text>
<text text-anchor="middle" x="2671.84" y="-448.38" font-family="Times New Roman,serif" font-size="14.00">Count: 95</text>
<text text-anchor="middle" x="2671.84" y="-433.38" font-family="Times New Roman,serif" font-size="14.00">Normalized count: Infinity</text>
<text text-anchor="middle" x="2671.84" y="-418.38" font-family="Times New Roman,serif" font-size="14.00">Samples weight: 0.03</text>
</g>
<!-- BB14&#45;&gt;BB16 -->
<g id="edge20" class="edge">
<title>BB14&#45;&gt;BB16</title>
<path fill="none" stroke="black" d="M2509.29,-538.8C2536.37,-523.27 2568.07,-505.09 2596.25,-488.93"/>
<polygon fill="black" stroke="black" points="2598.33,-491.77 2605.27,-483.76 2594.85,-485.7 2598.33,-491.77"/>
</g>
<!-- BB15 -->
<g id="node16" class="node">
<title>BB15</title>
<ellipse fill="none" stroke="black" cx="2671.84" cy="-312.42" rx="113.69" ry="48.17"/>
<text text-anchor="middle" x="2671.84" y="-331.22" font-family="Times New Roman,serif" font-size="14.00">[90..a7)</text>
<text text-anchor="middle" x="2671.84" y="-316.22" font-family="Times New Roman,serif" font-size="14.00">Count: 1338</text>
<text text-anchor="middle" x="2671.84" y="-301.22" font-family="Times New Roman,serif" font-size="14.00">Normalized count: Infinity</text>
<text text-anchor="middle" x="2671.84" y="-286.22" font-family="Times New Roman,serif" font-size="14.00">Samples weight: 0.38</text>
</g>
<!-- BB15&#45;&gt;BB16 -->
<g id="edge21" class="edge">
<title>BB15&#45;&gt;BB16</title>
<path fill="none" stroke="black" d="M2678.36,-360.52C2678.58,-368.78 2678.65,-377.46 2678.55,-385.97"/>
<polygon fill="black" stroke="black" points="2675.05,-386.16 2678.37,-396.22 2682.05,-386.29 2675.05,-386.16"/>
</g>
<!-- BB16&#45;&gt;BB15 -->
<g id="edge22" class="edge">
<title>BB16&#45;&gt;BB15</title>
<path fill="none" stroke="black" d="M2665.32,-396.22C2665.1,-387.95 2665.04,-379.27 2665.14,-370.77"/>
<polygon fill="black" stroke="black" points="2668.64,-370.59 2665.33,-360.52 2661.64,-370.46 2668.64,-370.59"/>
</g>
<!-- BB16&#45;&gt;BB17 -->
<g id="edge23" class="edge">
<title>BB16&#45;&gt;BB17</title>
<path fill="none" stroke="black" d="M2675.1,-492.69C2675.67,-500.95 2676.27,-509.63 2676.86,-518.14"/>
<polygon fill="black" stroke="black" points="2673.39,-518.65 2677.57,-528.39 2680.37,-518.17 2673.39,-518.65"/>
</g>
<!-- BB17&#45;&gt;BB18 -->
<g id="edge24" class="edge">
<title>BB17&#45;&gt;BB18</title>
<path fill="none" stroke="black" d="M2661.6,-624.16C2643.83,-662.98 2614.5,-718.09 2576.84,-757 2561.87,-772.47 2543.47,-786.3 2525.17,-798.04"/>
<polygon fill="black" stroke="black" points="2522.84,-795.37 2516.21,-803.64 2526.55,-801.31 2522.84,-795.37"/>
</g>
<!-- BB18&#45;&gt;BB13 -->
<g id="edge25" class="edge">
<title>BB18&#45;&gt;BB13</title>
<path fill="none" stroke="black" d="M2447.48,-792.72C2448.12,-784.45 2448.78,-775.77 2449.44,-767.27"/>
<polygon fill="black" stroke="black" points="2452.95,-767.26 2450.23,-757.02 2445.97,-766.73 2452.95,-767.26"/>
</g>
<!-- BB18&#45;&gt;BB19 -->
<g id="edge26" class="edge">
<title>BB18&#45;&gt;BB19</title>
<path fill="none" stroke="black" d="M2371.65,-878.51C2339.22,-894.87 2300.81,-914.25 2267.35,-931.13"/>
<polygon fill="black" stroke="black" points="2265.41,-928.19 2258.05,-935.82 2268.56,-934.44 2265.41,-928.19"/>
</g>
<!-- BB27 -->
<g id="node28" class="node">
<title>BB27</title>
<ellipse fill="none" stroke="black" cx="2178.84" cy="-841.08" rx="113.69" ry="48.17"/>
<text text-anchor="middle" x="2178.84" y="-859.88" font-family="Times New Roman,serif" font-size="14.00">[11b..11f)</text>
<text text-anchor="middle" x="2178.84" y="-844.88" font-family="Times New Roman,serif" font-size="14.00">Count: 5</text>
<text text-anchor="middle" x="2178.84" y="-829.88" font-family="Times New Roman,serif" font-size="14.00">Normalized count: Infinity</text>
<text text-anchor="middle" x="2178.84" y="-814.88" font-family="Times New Roman,serif" font-size="14.00">Samples weight: 0.00</text>
</g>
<!-- BB19&#45;&gt;BB27 -->
<g id="edge27" class="edge">
<title>BB19&#45;&gt;BB27</title>
<path fill="none" stroke="black" d="M2183.3,-924.89C2182.85,-916.62 2182.39,-907.94 2181.93,-899.43"/>
<polygon fill="black" stroke="black" points="2185.41,-898.99 2181.38,-889.19 2178.42,-899.36 2185.41,-898.99"/>
</g>
<!-- BB20 -->
<g id="node21" class="node">
<title>BB20</title>
<ellipse fill="none" stroke="black" cx="2169.84" cy="-708.92" rx="113.69" ry="48.17"/>
<text text-anchor="middle" x="2169.84" y="-727.72" font-family="Times New Roman,serif" font-size="14.00">[cb..d6)</text>
<text text-anchor="middle" x="2169.84" y="-712.72" font-family="Times New Roman,serif" font-size="14.00">Count: 41</text>
<text text-anchor="middle" x="2169.84" y="-697.72" font-family="Times New Roman,serif" font-size="14.00">Normalized count: Infinity</text>
<text text-anchor="middle" x="2169.84" y="-682.72" font-family="Times New Roman,serif" font-size="14.00">Samples weight: 0.01</text>
</g>
<!-- BB21 -->
<g id="node22" class="node">
<title>BB21</title>
<ellipse fill="none" stroke="black" cx="1923.84" cy="-576.75" rx="113.69" ry="48.17"/>
<text text-anchor="middle" x="1923.84" y="-595.55" font-family="Times New Roman,serif" font-size="14.00">[d6..db)</text>
<text text-anchor="middle" x="1923.84" y="-580.55" font-family="Times New Roman,serif" font-size="14.00">Count: 2</text>
<text text-anchor="middle" x="1923.84" y="-565.55" font-family="Times New Roman,serif" font-size="14.00">Normalized count: Infinity</text>
<text text-anchor="middle" x="1923.84" y="-550.55" font-family="Times New Roman,serif" font-size="14.00">Samples weight: 0.00</text>
</g>
<!-- BB20&#45;&gt;BB21 -->
<g id="edge29" class="edge">
<title>BB20&#45;&gt;BB21</title>
<path fill="none" stroke="black" d="M2099.68,-670.79C2069.56,-654.85 2034.23,-636.16 2003.17,-619.72"/>
<polygon fill="black" stroke="black" points="2004.58,-616.51 1994.1,-614.92 2001.3,-622.7 2004.58,-616.51"/>
</g>
<!-- BB24 -->
<g id="node25" class="node">
<title>BB24</title>
<ellipse fill="none" stroke="black" cx="2169.84" cy="-576.75" rx="113.69" ry="48.17"/>
<text text-anchor="middle" x="2169.84" y="-595.55" font-family="Times New Roman,serif" font-size="14.00">[f8..112)</text>
<text text-anchor="middle" x="2169.84" y="-580.55" font-family="Times New Roman,serif" font-size="14.00">Count: 73</text>
<text text-anchor="middle" x="2169.84" y="-565.55" font-family="Times New Roman,serif" font-size="14.00">Normalized count: Infinity</text>
<text text-anchor="middle" x="2169.84" y="-550.55" font-family="Times New Roman,serif" font-size="14.00">Samples weight: 0.02</text>
</g>
<!-- BB20&#45;&gt;BB24 -->
<g id="edge28" class="edge">
<title>BB20&#45;&gt;BB24</title>
<path fill="none" stroke="black" d="M2169.84,-660.55C2169.84,-652.29 2169.84,-643.6 2169.84,-635.1"/>
<polygon fill="black" stroke="black" points="2173.34,-634.86 2169.84,-624.86 2166.34,-634.86 2173.34,-634.86"/>
</g>
<!-- BB23 -->
<g id="node24" class="node">
<title>BB23</title>
<ellipse fill="none" stroke="black" cx="1923.84" cy="-444.58" rx="113.69" ry="48.17"/>
<text text-anchor="middle" x="1923.84" y="-463.38" font-family="Times New Roman,serif" font-size="14.00">[f2..f8)</text>
<text text-anchor="middle" x="1923.84" y="-448.38" font-family="Times New Roman,serif" font-size="14.00">Count: 97</text>
<text text-anchor="middle" x="1923.84" y="-433.38" font-family="Times New Roman,serif" font-size="14.00">Normalized count: Infinity</text>
<text text-anchor="middle" x="1923.84" y="-418.38" font-family="Times New Roman,serif" font-size="14.00">Samples weight: 0.03</text>
</g>
<!-- BB21&#45;&gt;BB23 -->
<g id="edge30" class="edge">
<title>BB21&#45;&gt;BB23</title>
<path fill="none" stroke="black" d="M1923.84,-528.39C1923.84,-520.12 1923.84,-511.44 1923.84,-502.93"/>
<polygon fill="black" stroke="black" points="1927.34,-502.69 1923.84,-492.69 1920.34,-502.69 1927.34,-502.69"/>
</g>
<!-- BB22 -->
<g id="node23" class="node">
<title>BB22</title>
<ellipse fill="none" stroke="black" cx="1923.84" cy="-312.42" rx="113.69" ry="48.17"/>
<text text-anchor="middle" x="1923.84" y="-331.22" font-family="Times New Roman,serif" font-size="14.00">[db..f2)</text>
<text text-anchor="middle" x="1923.84" y="-316.22" font-family="Times New Roman,serif" font-size="14.00">Count: 1429</text>
<text text-anchor="middle" x="1923.84" y="-301.22" font-family="Times New Roman,serif" font-size="14.00">Normalized count: Infinity</text>
<text text-anchor="middle" x="1923.84" y="-286.22" font-family="Times New Roman,serif" font-size="14.00">Samples weight: 0.41</text>
</g>
<!-- BB22&#45;&gt;BB23 -->
<g id="edge31" class="edge">
<title>BB22&#45;&gt;BB23</title>
<path fill="none" stroke="black" d="M1930.36,-360.52C1930.58,-368.78 1930.65,-377.46 1930.55,-385.97"/>
<polygon fill="black" stroke="black" points="1927.05,-386.16 1930.37,-396.22 1934.05,-386.29 1927.05,-386.16"/>
</g>
<!-- BB23&#45;&gt;BB22 -->
<g id="edge32" class="edge">
<title>BB23&#45;&gt;BB22</title>
<path fill="none" stroke="black" d="M1917.32,-396.22C1917.1,-387.95 1917.04,-379.27 1917.14,-370.77"/>
<polygon fill="black" stroke="black" points="1920.64,-370.59 1917.33,-360.52 1913.64,-370.46 1920.64,-370.59"/>
</g>
<!-- BB23&#45;&gt;BB24 -->
<g id="edge33" class="edge">
<title>BB23&#45;&gt;BB24</title>
<path fill="none" stroke="black" d="M1994.1,-482.76C2024.23,-498.7 2059.56,-517.4 2090.62,-533.83"/>
<polygon fill="black" stroke="black" points="2089.2,-537.04 2099.68,-538.62 2092.48,-530.85 2089.2,-537.04"/>
</g>
<!-- BB25 -->
<g id="node26" class="node">
<title>BB25</title>
<ellipse fill="none" stroke="black" cx="2169.84" cy="-444.58" rx="113.69" ry="48.17"/>
<text text-anchor="middle" x="2169.84" y="-463.38" font-family="Times New Roman,serif" font-size="14.00">[112..117)</text>
<text text-anchor="middle" x="2169.84" y="-448.38" font-family="Times New Roman,serif" font-size="14.00">Count: 6</text>
<text text-anchor="middle" x="2169.84" y="-433.38" font-family="Times New Roman,serif" font-size="14.00">Normalized count: Infinity</text>
<text text-anchor="middle" x="2169.84" y="-418.38" font-family="Times New Roman,serif" font-size="14.00">Samples weight: 0.00</text>
</g>
<!-- BB24&#45;&gt;BB25 -->
<g id="edge35" class="edge">
<title>BB24&#45;&gt;BB25</title>
<path fill="none" stroke="black" d="M2169.84,-528.39C2169.84,-520.12 2169.84,-511.44 2169.84,-502.93"/>
<polygon fill="black" stroke="black" points="2173.34,-502.69 2169.84,-492.69 2166.34,-502.69 2173.34,-502.69"/>
</g>
<!-- BB26 -->
<g id="node27" class="node">
<title>BB26</title>
<ellipse fill="none" stroke="black" cx="2415.84" cy="-444.58" rx="113.69" ry="48.17"/>
<text text-anchor="middle" x="2415.84" y="-463.38" font-family="Times New Roman,serif" font-size="14.00">[117..11b)</text>
<text text-anchor="middle" x="2415.84" y="-448.38" font-family="Times New Roman,serif" font-size="14.00">Count: 8</text>
<text text-anchor="middle" x="2415.84" y="-433.38" font-family="Times New Roman,serif" font-size="14.00">Normalized count: Infinity</text>
<text text-anchor="middle" x="2415.84" y="-418.38" font-family="Times New Roman,serif" font-size="14.00">Samples weight: 0.00</text>
</g>
<!-- BB24&#45;&gt;BB26 -->
<g id="edge34" class="edge">
<title>BB24&#45;&gt;BB26</title>
<path fill="none" stroke="black" d="M2240.01,-538.62C2270.12,-522.69 2305.46,-503.99 2336.52,-487.55"/>
<polygon fill="black" stroke="black" points="2338.38,-490.53 2345.59,-482.76 2335.11,-484.34 2338.38,-490.53"/>
</g>
<!-- BB25&#45;&gt;BB26 -->
<g id="edge36" class="edge">
<title>BB25&#45;&gt;BB26</title>
<path fill="none" stroke="black" d="M2283.72,-444.58C2286.35,-444.58 2288.98,-444.58 2291.62,-444.58"/>
<polygon fill="black" stroke="black" points="2291.78,-448.08 2301.78,-444.58 2291.78,-441.08 2291.78,-448.08"/>
</g>
<!-- BB26&#45;&gt;BB27 -->
<g id="edge37" class="edge">
<title>BB26&#45;&gt;BB27</title>
<path fill="none" stroke="black" d="M2362.71,-487.32C2350.49,-499.41 2338.77,-513.48 2330.84,-528.67 2283.26,-619.88 2346.88,-669.45 2292.84,-757 2283.54,-772.07 2270.4,-785.25 2256.33,-796.42"/>
<polygon fill="black" stroke="black" points="2253.82,-793.93 2247.96,-802.75 2258.05,-799.51 2253.82,-793.93"/>
</g>
<!-- BB27&#45;&gt;BB20 -->
<g id="edge38" class="edge">
<title>BB27&#45;&gt;BB20</title>
<path fill="none" stroke="black" d="M2175.57,-792.72C2175,-784.45 2174.4,-775.77 2173.81,-767.27"/>
<polygon fill="black" stroke="black" points="2177.28,-766.76 2173.1,-757.02 2170.3,-767.24 2177.28,-766.76"/>
</g>
<!-- BB28 -->
<g id="node29" class="node">
<title>BB28</title>
<ellipse fill="none" stroke="black" cx="1677.84" cy="-708.92" rx="113.69" ry="48.17"/>
<text text-anchor="middle" x="1677.84" y="-727.72" font-family="Times New Roman,serif" font-size="14.00">[11f..125)</text>
<text text-anchor="middle" x="1677.84" y="-712.72" font-family="Times New Roman,serif" font-size="14.00">Count: 1</text>
<text text-anchor="middle" x="1677.84" y="-697.72" font-family="Times New Roman,serif" font-size="14.00">Normalized count: Infinity</text>
<text text-anchor="middle" x="1677.84" y="-682.72" font-family="Times New Roman,serif" font-size="14.00">Samples weight: 0.00</text>
</g>
<!-- BB27&#45;&gt;BB28 -->
<g id="edge39" class="edge">
<title>BB27&#45;&gt;BB28</title>
<path fill="none" stroke="black" d="M2082.84,-815.14C1997.26,-792.9 1872.2,-760.41 1783.74,-737.43"/>
<polygon fill="black" stroke="black" points="1784.51,-734.01 1773.95,-734.89 1782.75,-740.79 1784.51,-734.01"/>
</g>
<!-- BB29 -->
<g id="node30" class="node">
<title>BB29</title>
<ellipse fill="none" stroke="black" cx="1677.84" cy="-576.75" rx="104.8" ry="48.17"/>
<text text-anchor="middle" x="1677.84" y="-595.55" font-family="Times New Roman,serif" font-size="14.00">[125..12a)</text>
<text text-anchor="middle" x="1677.84" y="-580.55" font-family="Times New Roman,serif" font-size="14.00">Count: 0</text>
<text text-anchor="middle" x="1677.84" y="-565.55" font-family="Times New Roman,serif" font-size="14.00">Normalized count: NaN</text>
<text text-anchor="middle" x="1677.84" y="-550.55" font-family="Times New Roman,serif" font-size="14.00">Samples weight: 0.00</text>
</g>
<!-- BB28&#45;&gt;BB29 -->
<g id="edge41" class="edge">
<title>BB28&#45;&gt;BB29</title>
<path fill="none" stroke="black" d="M1677.84,-660.55C1677.84,-652.29 1677.84,-643.6 1677.84,-635.1"/>
<polygon fill="black" stroke="black" points="1681.34,-634.86 1677.84,-624.86 1674.34,-634.86 1681.34,-634.86"/>
</g>
<!-- BB33 -->
<g id="node34" class="node">
<title>BB33</title>
<ellipse fill="none" stroke="black" cx="1414.84" cy="-576.75" rx="104.8" ry="48.17"/>
<text text-anchor="middle" x="1414.84" y="-595.55" font-family="Times New Roman,serif" font-size="14.00">[17a..192)</text>
<text text-anchor="middle" x="1414.84" y="-580.55" font-family="Times New Roman,serif" font-size="14.00">Count: 0</text>
<text text-anchor="middle" x="1414.84" y="-565.55" font-family="Times New Roman,serif" font-size="14.00">Normalized count: NaN</text>
<text text-anchor="middle" x="1414.84" y="-550.55" font-family="Times New Roman,serif" font-size="14.00">Samples weight: 0.00</text>
</g>
<!-- BB28&#45;&gt;BB33 -->
<g id="edge40" class="edge">
<title>BB28&#45;&gt;BB33</title>
<path fill="none" stroke="black" d="M1604.93,-671.83C1570.6,-654.84 1529.58,-634.54 1494.44,-617.15"/>
<polygon fill="black" stroke="black" points="1495.69,-613.86 1485.17,-612.56 1492.58,-620.13 1495.69,-613.86"/>
</g>
<!-- BB31 -->
<g id="node32" class="node">
<title>BB31</title>
<ellipse fill="none" stroke="black" cx="1677.84" cy="-444.58" rx="113.69" ry="48.17"/>
<text text-anchor="middle" x="1677.84" y="-463.38" font-family="Times New Roman,serif" font-size="14.00">[14e..153)</text>
<text text-anchor="middle" x="1677.84" y="-448.38" font-family="Times New Roman,serif" font-size="14.00">Count: 8</text>
<text text-anchor="middle" x="1677.84" y="-433.38" font-family="Times New Roman,serif" font-size="14.00">Normalized count: Infinity</text>
<text text-anchor="middle" x="1677.84" y="-418.38" font-family="Times New Roman,serif" font-size="14.00">Samples weight: 0.00</text>
</g>
<!-- BB29&#45;&gt;BB31 -->
<g id="edge42" class="edge">
<title>BB29&#45;&gt;BB31</title>
<path fill="none" stroke="black" d="M1677.84,-528.39C1677.84,-520.12 1677.84,-511.44 1677.84,-502.93"/>
<polygon fill="black" stroke="black" points="1681.34,-502.69 1677.84,-492.69 1674.34,-502.69 1681.34,-502.69"/>
</g>
<!-- BB30 -->
<g id="node31" class="node">
<title>BB30</title>
<ellipse fill="none" stroke="black" cx="1677.84" cy="-312.42" rx="113.69" ry="48.17"/>
<text text-anchor="middle" x="1677.84" y="-331.22" font-family="Times New Roman,serif" font-size="14.00">[12a..14e)</text>
<text text-anchor="middle" x="1677.84" y="-316.22" font-family="Times New Roman,serif" font-size="14.00">Count: 129</text>
<text text-anchor="middle" x="1677.84" y="-301.22" font-family="Times New Roman,serif" font-size="14.00">Normalized count: Infinity</text>
<text text-anchor="middle" x="1677.84" y="-286.22" font-family="Times New Roman,serif" font-size="14.00">Samples weight: 0.04</text>
</g>
<!-- BB30&#45;&gt;BB31 -->
<g id="edge43" class="edge">
<title>BB30&#45;&gt;BB31</title>
<path fill="none" stroke="black" d="M1684.36,-360.52C1684.58,-368.78 1684.65,-377.46 1684.55,-385.97"/>
<polygon fill="black" stroke="black" points="1681.05,-386.16 1684.37,-396.22 1688.05,-386.29 1681.05,-386.16"/>
</g>
<!-- BB31&#45;&gt;BB30 -->
<g id="edge44" class="edge">
<title>BB31&#45;&gt;BB30</title>
<path fill="none" stroke="black" d="M1671.32,-396.22C1671.1,-387.95 1671.04,-379.27 1671.14,-370.77"/>
<polygon fill="black" stroke="black" points="1674.64,-370.59 1671.33,-360.52 1667.64,-370.46 1674.64,-370.59"/>
</g>
<!-- BB32 -->
<g id="node33" class="node">
<title>BB32</title>
<ellipse fill="none" stroke="black" cx="1431.84" cy="-312.42" rx="113.69" ry="48.17"/>
<text text-anchor="middle" x="1431.84" y="-331.22" font-family="Times New Roman,serif" font-size="14.00">[153..17a)</text>
<text text-anchor="middle" x="1431.84" y="-316.22" font-family="Times New Roman,serif" font-size="14.00">Count: 1</text>
<text text-anchor="middle" x="1431.84" y="-301.22" font-family="Times New Roman,serif" font-size="14.00">Normalized count: Infinity</text>
<text text-anchor="middle" x="1431.84" y="-286.22" font-family="Times New Roman,serif" font-size="14.00">Samples weight: 0.00</text>
</g>
<!-- BB31&#45;&gt;BB32 -->
<g id="edge45" class="edge">
<title>BB31&#45;&gt;BB32</title>
<path fill="none" stroke="black" d="M1607.68,-406.46C1577.56,-390.52 1542.23,-371.82 1511.17,-355.39"/>
<polygon fill="black" stroke="black" points="1512.58,-352.18 1502.1,-350.59 1509.3,-358.36 1512.58,-352.18"/>
</g>
<!-- BB32&#45;&gt;BB33 -->
<g id="edge46" class="edge">
<title>BB32&#45;&gt;BB33</title>
<path fill="none" stroke="black" d="M1472.71,-357.41C1481.36,-369.27 1489.25,-382.66 1493.84,-396.5 1507.31,-437.06 1509.7,-452.98 1493.84,-492.67 1488.9,-505.04 1481.14,-516.62 1472.38,-526.98"/>
<polygon fill="black" stroke="black" points="1469.57,-524.87 1465.51,-534.66 1474.78,-529.54 1469.57,-524.87"/>
</g>
<!-- BB34 -->
<g id="node35" class="node">
<title>BB34</title>
<ellipse fill="none" stroke="black" cx="1379.84" cy="-444.58" rx="104.8" ry="48.17"/>
<text text-anchor="middle" x="1379.84" y="-463.38" font-family="Times New Roman,serif" font-size="14.00">[192..19b)</text>
<text text-anchor="middle" x="1379.84" y="-448.38" font-family="Times New Roman,serif" font-size="14.00">Count: 0</text>
<text text-anchor="middle" x="1379.84" y="-433.38" font-family="Times New Roman,serif" font-size="14.00">Normalized count: NaN</text>
<text text-anchor="middle" x="1379.84" y="-418.38" font-family="Times New Roman,serif" font-size="14.00">Samples weight: 0.00</text>
</g>
<!-- BB33&#45;&gt;BB34 -->
<g id="edge48" class="edge">
<title>BB33&#45;&gt;BB34</title>
<path fill="none" stroke="black" d="M1402.21,-528.76C1399.9,-520.18 1397.48,-511.16 1395.11,-502.34"/>
<polygon fill="black" stroke="black" points="1398.44,-501.26 1392.46,-492.51 1391.68,-503.07 1398.44,-501.26"/>
</g>
<!-- BB35 -->
<g id="node36" class="node">
<title>BB35</title>
<ellipse fill="none" stroke="black" cx="1152.84" cy="-444.58" rx="104.8" ry="48.17"/>
<text text-anchor="middle" x="1152.84" y="-463.38" font-family="Times New Roman,serif" font-size="14.00">[19b..1a2)</text>
<text text-anchor="middle" x="1152.84" y="-448.38" font-family="Times New Roman,serif" font-size="14.00">Count: 0</text>
<text text-anchor="middle" x="1152.84" y="-433.38" font-family="Times New Roman,serif" font-size="14.00">Normalized count: NaN</text>
<text text-anchor="middle" x="1152.84" y="-418.38" font-family="Times New Roman,serif" font-size="14.00">Samples weight: 0.00</text>
</g>
<!-- BB33&#45;&gt;BB35 -->
<g id="edge47" class="edge">
<title>BB33&#45;&gt;BB35</title>
<path fill="none" stroke="black" d="M1344.63,-540.87C1309.98,-523.65 1268.03,-502.81 1232.21,-485.02"/>
<polygon fill="black" stroke="black" points="1233.76,-481.88 1223.25,-480.56 1230.65,-488.15 1233.76,-481.88"/>
</g>
<!-- BB34&#45;&gt;BB35 -->
<g id="edge49" class="edge">
<title>BB34&#45;&gt;BB35</title>
<path fill="none" stroke="black" d="M1275.07,-444.58C1272.74,-444.58 1270.42,-444.58 1268.1,-444.58"/>
<polygon fill="black" stroke="black" points="1267.92,-441.08 1257.92,-444.58 1267.92,-448.08 1267.92,-441.08"/>
</g>
<!-- BB36 -->
<g id="node37" class="node">
<title>BB36</title>
<ellipse fill="none" stroke="black" cx="1185.84" cy="-312.42" rx="113.69" ry="48.17"/>
<text text-anchor="middle" x="1185.84" y="-331.22" font-family="Times New Roman,serif" font-size="14.00">[1a2..1bb)</text>
<text text-anchor="middle" x="1185.84" y="-316.22" font-family="Times New Roman,serif" font-size="14.00">Count: 1</text>
<text text-anchor="middle" x="1185.84" y="-301.22" font-family="Times New Roman,serif" font-size="14.00">Normalized count: Infinity</text>
<text text-anchor="middle" x="1185.84" y="-286.22" font-family="Times New Roman,serif" font-size="14.00">Samples weight: 0.00</text>
</g>
<!-- BB35&#45;&gt;BB36 -->
<g id="edge51" class="edge">
<title>BB35&#45;&gt;BB36</title>
<path fill="none" stroke="black" d="M1164.76,-396.59C1166.93,-388.02 1169.22,-378.99 1171.45,-370.17"/>
<polygon fill="black" stroke="black" points="1174.88,-370.89 1173.95,-360.34 1168.1,-369.17 1174.88,-370.89"/>
</g>
<!-- BB39 -->
<g id="node40" class="node">
<title>BB39</title>
<ellipse fill="none" stroke="black" cx="949.84" cy="-312.42" rx="104.8" ry="48.17"/>
<text text-anchor="middle" x="949.84" y="-331.22" font-family="Times New Roman,serif" font-size="14.00">[1d1..1d7)</text>
<text text-anchor="middle" x="949.84" y="-316.22" font-family="Times New Roman,serif" font-size="14.00">Count: 0</text>
<text text-anchor="middle" x="949.84" y="-301.22" font-family="Times New Roman,serif" font-size="14.00">Normalized count: NaN</text>
<text text-anchor="middle" x="949.84" y="-286.22" font-family="Times New Roman,serif" font-size="14.00">Samples weight: 0.00</text>
</g>
<!-- BB35&#45;&gt;BB39 -->
<g id="edge50" class="edge">
<title>BB35&#45;&gt;BB39</title>
<path fill="none" stroke="black" d="M1092.76,-405.06C1069.33,-390.04 1042.36,-372.74 1018.19,-357.24"/>
<polygon fill="black" stroke="black" points="1020.08,-354.29 1009.77,-351.84 1016.3,-360.19 1020.08,-354.29"/>
</g>
<!-- BB38 -->
<g id="node39" class="node">
<title>BB38</title>
<ellipse fill="none" stroke="black" cx="1067.84" cy="-180.25" rx="113.69" ry="48.17"/>
<text text-anchor="middle" x="1067.84" y="-199.05" font-family="Times New Roman,serif" font-size="14.00">[1cd..1d1)</text>
<text text-anchor="middle" x="1067.84" y="-184.05" font-family="Times New Roman,serif" font-size="14.00">Count: 5</text>
<text text-anchor="middle" x="1067.84" y="-169.05" font-family="Times New Roman,serif" font-size="14.00">Normalized count: Infinity</text>
<text text-anchor="middle" x="1067.84" y="-154.05" font-family="Times New Roman,serif" font-size="14.00">Samples weight: 0.00</text>
</g>
<!-- BB36&#45;&gt;BB38 -->
<g id="edge52" class="edge">
<title>BB36&#45;&gt;BB38</title>
<path fill="none" stroke="black" d="M1145.89,-267.35C1136.01,-256.44 1125.32,-244.65 1115.12,-233.4"/>
<polygon fill="black" stroke="black" points="1117.46,-230.77 1108.15,-225.72 1112.28,-235.48 1117.46,-230.77"/>
</g>
<!-- BB37 -->
<g id="node38" class="node">
<title>BB37</title>
<ellipse fill="none" stroke="black" cx="1067.84" cy="-48.08" rx="113.69" ry="48.17"/>
<text text-anchor="middle" x="1067.84" y="-66.88" font-family="Times New Roman,serif" font-size="14.00">[1bb..1cd)</text>
<text text-anchor="middle" x="1067.84" y="-51.88" font-family="Times New Roman,serif" font-size="14.00">Count: 54</text>
<text text-anchor="middle" x="1067.84" y="-36.88" font-family="Times New Roman,serif" font-size="14.00">Normalized count: Infinity</text>
<text text-anchor="middle" x="1067.84" y="-21.88" font-family="Times New Roman,serif" font-size="14.00">Samples weight: 0.02</text>
</g>
<!-- BB37&#45;&gt;BB38 -->
<g id="edge53" class="edge">
<title>BB37&#45;&gt;BB38</title>
<path fill="none" stroke="black" d="M1074.36,-96.19C1074.58,-104.45 1074.65,-113.13 1074.55,-121.64"/>
<polygon fill="black" stroke="black" points="1071.05,-121.83 1074.37,-131.89 1078.05,-121.95 1071.05,-121.83"/>
</g>
<!-- BB38&#45;&gt;BB37 -->
<g id="edge54" class="edge">
<title>BB38&#45;&gt;BB37</title>
<path fill="none" stroke="black" d="M1061.32,-131.89C1061.1,-123.62 1061.04,-114.94 1061.14,-106.43"/>
<polygon fill="black" stroke="black" points="1064.64,-106.26 1061.33,-96.19 1057.64,-106.12 1064.64,-106.26"/>
</g>
<!-- BB38&#45;&gt;BB39 -->
<g id="edge55" class="edge">
<title>BB38&#45;&gt;BB39</title>
<path fill="none" stroke="black" d="M1027.72,-225.51C1017.59,-236.68 1006.63,-248.78 996.21,-260.27"/>
<polygon fill="black" stroke="black" points="993.59,-257.95 989.46,-267.71 998.77,-262.65 993.59,-257.95"/>
</g>
<!-- BB39&#45;&gt;BB40 -->
<g id="edge56" class="edge">
<title>BB39&#45;&gt;BB40</title>
<path fill="none" stroke="black" d="M956.79,-360.69C963.87,-413.12 973.84,-500.29 973.84,-575.75 973.84,-974.25 973.84,-974.25 973.84,-974.25 973.84,-1054.36 968.39,-1077.21 992.84,-1153.5 995.92,-1163.09 1000.18,-1172.8 1004.89,-1182.04"/>
<polygon fill="black" stroke="black" points="1001.93,-1183.93 1009.73,-1191.11 1008.11,-1180.64 1001.93,-1183.93"/>
</g>
<!-- BB40&#45;&gt;BB11 -->
<g id="edge57" class="edge">
<title>BB40&#45;&gt;BB11</title>
<path fill="none" stroke="black" d="M1141.04,-1225.09C1355.04,-1200.78 1852.05,-1144.33 2074.61,-1119.05"/>
<polygon fill="black" stroke="black" points="2075.13,-1122.51 2084.67,-1117.91 2074.34,-1115.56 2075.13,-1122.51"/>
</g>
<!-- BB41 -->
<g id="node42" class="node">
<title>BB41</title>
<ellipse fill="none" stroke="black" cx="1106.84" cy="-1105.42" rx="104.8" ry="48.17"/>
<text text-anchor="middle" x="1106.84" y="-1124.22" font-family="Times New Roman,serif" font-size="14.00">[1df..1e1)</text>
<text text-anchor="middle" x="1106.84" y="-1109.22" font-family="Times New Roman,serif" font-size="14.00">Count: 0</text>
<text text-anchor="middle" x="1106.84" y="-1094.22" font-family="Times New Roman,serif" font-size="14.00">Normalized count: NaN</text>
<text text-anchor="middle" x="1106.84" y="-1079.22" font-family="Times New Roman,serif" font-size="14.00">Samples weight: 0.00</text>
</g>
<!-- BB40&#45;&gt;BB41 -->
<g id="edge58" class="edge">
<title>BB40&#45;&gt;BB41</title>
<path fill="none" stroke="black" d="M1063.47,-1190.69C1068.37,-1181.16 1073.58,-1171.03 1078.63,-1161.22"/>
<polygon fill="black" stroke="black" points="1081.75,-1162.82 1083.21,-1152.33 1075.52,-1159.62 1081.75,-1162.82"/>
</g>
</g>
</svg>
