<?xml version="1.0" encoding="UTF-8" standalone="no"?>
<!DOCTYPE svg PUBLIC "-//W3C//DTD SVG 1.1//EN"
 "http://www.w3.org/Graphics/SVG/1.1/DTD/svg11.dtd">
<!-- Generated by graphviz version 2.47.0 (20210316.0004)
 -->
<!-- Title: G Pages: 1 -->
<svg width="2182pt" height="1426pt"
 viewBox="0.00 0.00 2182.49 1425.83" xmlns="http://www.w3.org/2000/svg" xmlns:xlink="http://www.w3.org/1999/xlink">
<g id="graph0" class="graph" transform="scale(1 1) rotate(0) translate(4 1421.83)">
<title>G</title>
<polygon fill="white" stroke="transparent" points="-4,4 -4,-1421.83 2178.49,-1421.83 2178.49,4 -4,4"/>
<!-- BB0 -->
<g id="node1" class="node">
<title>BB0</title>
<ellipse fill="none" stroke="black" cx="908.64" cy="-1369.75" rx="104.8" ry="48.17"/>
<text text-anchor="middle" x="908.64" y="-1388.55" font-family="Times New Roman,serif" font-size="14.00">[0..11)</text>
<text text-anchor="middle" x="908.64" y="-1373.55" font-family="Times New Roman,serif" font-size="14.00">Count: 0</text>
<text text-anchor="middle" x="908.64" y="-1358.55" font-family="Times New Roman,serif" font-size="14.00">Normalized count: NaN</text>
<text text-anchor="middle" x="908.64" y="-1343.55" font-family="Times New Roman,serif" font-size="14.00">Samples weight: 0.00</text>
</g>
<!-- BB2 -->
<g id="node3" class="node">
<title>BB2</title>
<ellipse fill="none" stroke="black" cx="908.64" cy="-1237.58" rx="104.8" ry="48.17"/>
<text text-anchor="middle" x="908.64" y="-1256.38" font-family="Times New Roman,serif" font-size="14.00">[22..28)</text>
<text text-anchor="middle" x="908.64" y="-1241.38" font-family="Times New Roman,serif" font-size="14.00">Count: 0</text>
<text text-anchor="middle" x="908.64" y="-1226.38" font-family="Times New Roman,serif" font-size="14.00">Normalized count: NaN</text>
<text text-anchor="middle" x="908.64" y="-1211.38" font-family="Times New Roman,serif" font-size="14.00">Samples weight: 0.00</text>
</g>
<!-- BB0&#45;&gt;BB2 -->
<g id="edge1" class="edge">
<title>BB0&#45;&gt;BB2</title>
<path fill="none" stroke="black" d="M908.64,-1321.39C908.64,-1313.12 908.64,-1304.44 908.64,-1295.93"/>
<polygon fill="black" stroke="black" points="912.14,-1295.69 908.64,-1285.69 905.14,-1295.69 912.14,-1295.69"/>
</g>
<!-- BB1 -->
<g id="node2" class="node">
<title>BB1</title>
<ellipse fill="none" stroke="black" cx="908.64" cy="-1105.42" rx="104.8" ry="48.17"/>
<text text-anchor="middle" x="908.64" y="-1124.22" font-family="Times New Roman,serif" font-size="14.00">[11..22)</text>
<text text-anchor="middle" x="908.64" y="-1109.22" font-family="Times New Roman,serif" font-size="14.00">Count: 0</text>
<text text-anchor="middle" x="908.64" y="-1094.22" font-family="Times New Roman,serif" font-size="14.00">Normalized count: NaN</text>
<text text-anchor="middle" x="908.64" y="-1079.22" font-family="Times New Roman,serif" font-size="14.00">Samples weight: 0.00</text>
</g>
<!-- BB1&#45;&gt;BB2 -->
<g id="edge2" class="edge">
<title>BB1&#45;&gt;BB2</title>
<path fill="none" stroke="black" d="M915.16,-1153.78C915.38,-1162.07 915.44,-1170.78 915.35,-1179.31"/>
<polygon fill="black" stroke="black" points="911.84,-1179.52 915.15,-1189.59 918.84,-1179.66 911.84,-1179.52"/>
</g>
<!-- BB2&#45;&gt;BB1 -->
<g id="edge3" class="edge">
<title>BB2&#45;&gt;BB1</title>
<path fill="none" stroke="black" d="M902.13,-1189.59C901.9,-1181.21 901.84,-1172.41 901.93,-1163.78"/>
<polygon fill="black" stroke="black" points="905.43,-1163.84 902.12,-1153.78 898.43,-1163.71 905.43,-1163.84"/>
</g>
<!-- BB3 -->
<g id="node4" class="node">
<title>BB3</title>
<ellipse fill="none" stroke="black" cx="1135.64" cy="-1105.42" rx="104.8" ry="48.17"/>
<text text-anchor="middle" x="1135.64" y="-1124.22" font-family="Times New Roman,serif" font-size="14.00">[28..54)</text>
<text text-anchor="middle" x="1135.64" y="-1109.22" font-family="Times New Roman,serif" font-size="14.00">Count: 0</text>
<text text-anchor="middle" x="1135.64" y="-1094.22" font-family="Times New Roman,serif" font-size="14.00">Normalized count: NaN</text>
<text text-anchor="middle" x="1135.64" y="-1079.22" font-family="Times New Roman,serif" font-size="14.00">Samples weight: 0.00</text>
</g>
<!-- BB2&#45;&gt;BB3 -->
<g id="edge4" class="edge">
<title>BB2&#45;&gt;BB3</title>
<path fill="none" stroke="black" d="M973.08,-1199.63C1000.88,-1183.69 1033.54,-1164.96 1062.26,-1148.49"/>
<polygon fill="black" stroke="black" points="1064.1,-1151.47 1071.04,-1143.46 1060.62,-1145.4 1064.1,-1151.47"/>
</g>
<!-- BB4 -->
<g id="node5" class="node">
<title>BB4</title>
<ellipse fill="none" stroke="black" cx="1021.64" cy="-973.25" rx="104.8" ry="48.17"/>
<text text-anchor="middle" x="1021.64" y="-992.05" font-family="Times New Roman,serif" font-size="14.00">[54..5c)</text>
<text text-anchor="middle" x="1021.64" y="-977.05" font-family="Times New Roman,serif" font-size="14.00">Count: 0</text>
<text text-anchor="middle" x="1021.64" y="-962.05" font-family="Times New Roman,serif" font-size="14.00">Normalized count: NaN</text>
<text text-anchor="middle" x="1021.64" y="-947.05" font-family="Times New Roman,serif" font-size="14.00">Samples weight: 0.00</text>
</g>
<!-- BB3&#45;&gt;BB4 -->
<g id="edge6" class="edge">
<title>BB3&#45;&gt;BB4</title>
<path fill="none" stroke="black" d="M1097.05,-1060.35C1087.39,-1049.32 1076.94,-1037.39 1066.99,-1026.03"/>
<polygon fill="black" stroke="black" points="1069.42,-1023.49 1060.2,-1018.27 1064.15,-1028.1 1069.42,-1023.49"/>
</g>
<!-- BB20 -->
<g id="node21" class="node">
<title>BB20</title>
<ellipse fill="none" stroke="black" cx="1250.64" cy="-973.25" rx="104.8" ry="48.17"/>
<text text-anchor="middle" x="1250.64" y="-992.05" font-family="Times New Roman,serif" font-size="14.00">[10f..120)</text>
<text text-anchor="middle" x="1250.64" y="-977.05" font-family="Times New Roman,serif" font-size="14.00">Count: 0</text>
<text text-anchor="middle" x="1250.64" y="-962.05" font-family="Times New Roman,serif" font-size="14.00">Normalized count: NaN</text>
<text text-anchor="middle" x="1250.64" y="-947.05" font-family="Times New Roman,serif" font-size="14.00">Samples weight: 0.00</text>
</g>
<!-- BB3&#45;&gt;BB20 -->
<g id="edge5" class="edge">
<title>BB3&#45;&gt;BB20</title>
<path fill="none" stroke="black" d="M1174.25,-1060.71C1184.21,-1049.44 1195.02,-1037.21 1205.28,-1025.59"/>
<polygon fill="black" stroke="black" points="1207.94,-1027.87 1211.93,-1018.06 1202.69,-1023.24 1207.94,-1027.87"/>
</g>
<!-- BB17 -->
<g id="node18" class="node">
<title>BB17</title>
<ellipse fill="none" stroke="black" cx="1017.64" cy="-841.08" rx="104.8" ry="48.17"/>
<text text-anchor="middle" x="1017.64" y="-859.88" font-family="Times New Roman,serif" font-size="14.00">[ed..f9)</text>
<text text-anchor="middle" x="1017.64" y="-844.88" font-family="Times New Roman,serif" font-size="14.00">Count: 0</text>
<text text-anchor="middle" x="1017.64" y="-829.88" font-family="Times New Roman,serif" font-size="14.00">Normalized count: NaN</text>
<text text-anchor="middle" x="1017.64" y="-814.88" font-family="Times New Roman,serif" font-size="14.00">Samples weight: 0.00</text>
</g>
<!-- BB4&#45;&gt;BB17 -->
<g id="edge7" class="edge">
<title>BB4&#45;&gt;BB17</title>
<path fill="none" stroke="black" d="M1020.19,-924.89C1019.93,-916.62 1019.66,-907.94 1019.4,-899.43"/>
<polygon fill="black" stroke="black" points="1022.89,-899.08 1019.09,-889.19 1015.9,-899.29 1022.89,-899.08"/>
</g>
<!-- BB5 -->
<g id="node6" class="node">
<title>BB5</title>
<ellipse fill="none" stroke="black" cx="672.64" cy="-708.92" rx="104.8" ry="48.17"/>
<text text-anchor="middle" x="672.64" y="-727.72" font-family="Times New Roman,serif" font-size="14.00">[5c..6b)</text>
<text text-anchor="middle" x="672.64" y="-712.72" font-family="Times New Roman,serif" font-size="14.00">Count: 0</text>
<text text-anchor="middle" x="672.64" y="-697.72" font-family="Times New Roman,serif" font-size="14.00">Normalized count: NaN</text>
<text text-anchor="middle" x="672.64" y="-682.72" font-family="Times New Roman,serif" font-size="14.00">Samples weight: 0.00</text>
</g>
<!-- BB10 -->
<g id="node11" class="node">
<title>BB10</title>
<ellipse fill="none" stroke="black" cx="652.64" cy="-576.75" rx="104.8" ry="48.17"/>
<text text-anchor="middle" x="652.64" y="-595.55" font-family="Times New Roman,serif" font-size="14.00">[9b..a3)</text>
<text text-anchor="middle" x="652.64" y="-580.55" font-family="Times New Roman,serif" font-size="14.00">Count: 0</text>
<text text-anchor="middle" x="652.64" y="-565.55" font-family="Times New Roman,serif" font-size="14.00">Normalized count: NaN</text>
<text text-anchor="middle" x="652.64" y="-550.55" font-family="Times New Roman,serif" font-size="14.00">Samples weight: 0.00</text>
</g>
<!-- BB5&#45;&gt;BB10 -->
<g id="edge8" class="edge">
<title>BB5&#45;&gt;BB10</title>
<path fill="none" stroke="black" d="M665.42,-660.92C664.13,-652.55 662.78,-643.74 661.46,-635.11"/>
<polygon fill="black" stroke="black" points="664.9,-634.46 659.92,-625.11 657.98,-635.53 664.9,-634.46"/>
</g>
<!-- BB6 -->
<g id="node7" class="node">
<title>BB6</title>
<ellipse fill="none" stroke="black" cx="794.64" cy="-444.58" rx="104.8" ry="48.17"/>
<text text-anchor="middle" x="794.64" y="-463.38" font-family="Times New Roman,serif" font-size="14.00">[6b..7b)</text>
<text text-anchor="middle" x="794.64" y="-448.38" font-family="Times New Roman,serif" font-size="14.00">Count: 0</text>
<text text-anchor="middle" x="794.64" y="-433.38" font-family="Times New Roman,serif" font-size="14.00">Normalized count: NaN</text>
<text text-anchor="middle" x="794.64" y="-418.38" font-family="Times New Roman,serif" font-size="14.00">Samples weight: 0.00</text>
</g>
<!-- BB8 -->
<g id="node9" class="node">
<title>BB8</title>
<ellipse fill="none" stroke="black" cx="794.64" cy="-312.42" rx="104.8" ry="48.17"/>
<text text-anchor="middle" x="794.64" y="-331.22" font-family="Times New Roman,serif" font-size="14.00">[8f..95)</text>
<text text-anchor="middle" x="794.64" y="-316.22" font-family="Times New Roman,serif" font-size="14.00">Count: 0</text>
<text text-anchor="middle" x="794.64" y="-301.22" font-family="Times New Roman,serif" font-size="14.00">Normalized count: NaN</text>
<text text-anchor="middle" x="794.64" y="-286.22" font-family="Times New Roman,serif" font-size="14.00">Samples weight: 0.00</text>
</g>
<!-- BB6&#45;&gt;BB8 -->
<g id="edge9" class="edge">
<title>BB6&#45;&gt;BB8</title>
<path fill="none" stroke="black" d="M794.64,-396.22C794.64,-387.95 794.64,-379.27 794.64,-370.77"/>
<polygon fill="black" stroke="black" points="798.14,-370.52 794.64,-360.52 791.14,-370.52 798.14,-370.52"/>
</g>
<!-- BB7 -->
<g id="node8" class="node">
<title>BB7</title>
<ellipse fill="none" stroke="black" cx="822.64" cy="-180.25" rx="104.8" ry="48.17"/>
<text text-anchor="middle" x="822.64" y="-199.05" font-family="Times New Roman,serif" font-size="14.00">[7b..8f)</text>
<text text-anchor="middle" x="822.64" y="-184.05" font-family="Times New Roman,serif" font-size="14.00">Count: 0</text>
<text text-anchor="middle" x="822.64" y="-169.05" font-family="Times New Roman,serif" font-size="14.00">Normalized count: NaN</text>
<text text-anchor="middle" x="822.64" y="-154.05" font-family="Times New Roman,serif" font-size="14.00">Samples weight: 0.00</text>
</g>
<!-- BB7&#45;&gt;BB8 -->
<g id="edge10" class="edge">
<title>BB7&#45;&gt;BB8</title>
<path fill="none" stroke="black" d="M819.01,-228.43C817.39,-237.03 815.5,-246.09 813.49,-254.93"/>
<polygon fill="black" stroke="black" points="810.05,-254.26 811.17,-264.79 816.87,-255.86 810.05,-254.26"/>
</g>
<!-- BB8&#45;&gt;BB7 -->
<g id="edge11" class="edge">
<title>BB8&#45;&gt;BB7</title>
<path fill="none" stroke="black" d="M798.31,-264.05C799.92,-255.5 801.8,-246.5 803.8,-237.72"/>
<polygon fill="black" stroke="black" points="807.22,-238.46 806.1,-227.92 800.4,-236.86 807.22,-238.46"/>
</g>
<!-- BB9 -->
<g id="node10" class="node">
<title>BB9</title>
<ellipse fill="none" stroke="black" cx="595.64" cy="-180.25" rx="104.8" ry="48.17"/>
<text text-anchor="middle" x="595.64" y="-199.05" font-family="Times New Roman,serif" font-size="14.00">[95..9b)</text>
<text text-anchor="middle" x="595.64" y="-184.05" font-family="Times New Roman,serif" font-size="14.00">Count: 0</text>
<text text-anchor="middle" x="595.64" y="-169.05" font-family="Times New Roman,serif" font-size="14.00">Normalized count: NaN</text>
<text text-anchor="middle" x="595.64" y="-154.05" font-family="Times New Roman,serif" font-size="14.00">Samples weight: 0.00</text>
</g>
<!-- BB8&#45;&gt;BB9 -->
<g id="edge12" class="edge">
<title>BB8&#45;&gt;BB9</title>
<path fill="none" stroke="black" d="M735.47,-272.71C712.82,-257.9 686.81,-240.88 663.41,-225.58"/>
<polygon fill="black" stroke="black" points="665.21,-222.57 654.92,-220.03 661.38,-228.43 665.21,-222.57"/>
</g>
<!-- BB9&#45;&gt;BB10 -->
<g id="edge13" class="edge">
<title>BB9&#45;&gt;BB10</title>
<path fill="none" stroke="black" d="M602.47,-228.5C612.96,-301.15 633.04,-440.07 644.35,-518.38"/>
<polygon fill="black" stroke="black" points="640.93,-519.16 645.82,-528.56 647.86,-518.16 640.93,-519.16"/>
</g>
<!-- BB10&#45;&gt;BB6 -->
<g id="edge14" class="edge">
<title>BB10&#45;&gt;BB6</title>
<path fill="none" stroke="black" d="M698.74,-533.49C712.14,-521.21 726.88,-507.69 740.71,-495.02"/>
<polygon fill="black" stroke="black" points="743.28,-497.41 748.28,-488.08 738.55,-492.25 743.28,-497.41"/>
</g>
<!-- BB11 -->
<g id="node12" class="node">
<title>BB11</title>
<ellipse fill="none" stroke="black" cx="302.64" cy="-444.58" rx="104.8" ry="48.17"/>
<text text-anchor="middle" x="302.64" y="-463.38" font-family="Times New Roman,serif" font-size="14.00">[a3..b2)</text>
<text text-anchor="middle" x="302.64" y="-448.38" font-family="Times New Roman,serif" font-size="14.00">Count: 0</text>
<text text-anchor="middle" x="302.64" y="-433.38" font-family="Times New Roman,serif" font-size="14.00">Normalized count: NaN</text>
<text text-anchor="middle" x="302.64" y="-418.38" font-family="Times New Roman,serif" font-size="14.00">Samples weight: 0.00</text>
</g>
<!-- BB10&#45;&gt;BB11 -->
<g id="edge15" class="edge">
<title>BB10&#45;&gt;BB11</title>
<path fill="none" stroke="black" d="M572.34,-545.89C518.73,-525.95 448.16,-499.7 392.65,-479.06"/>
<polygon fill="black" stroke="black" points="393.76,-475.74 383.17,-475.53 391.32,-482.3 393.76,-475.74"/>
</g>
<!-- BB13 -->
<g id="node14" class="node">
<title>BB13</title>
<ellipse fill="none" stroke="black" cx="255.64" cy="-312.42" rx="104.8" ry="48.17"/>
<text text-anchor="middle" x="255.64" y="-331.22" font-family="Times New Roman,serif" font-size="14.00">[c3..cb)</text>
<text text-anchor="middle" x="255.64" y="-316.22" font-family="Times New Roman,serif" font-size="14.00">Count: 0</text>
<text text-anchor="middle" x="255.64" y="-301.22" font-family="Times New Roman,serif" font-size="14.00">Normalized count: NaN</text>
<text text-anchor="middle" x="255.64" y="-286.22" font-family="Times New Roman,serif" font-size="14.00">Samples weight: 0.00</text>
</g>
<!-- BB11&#45;&gt;BB13 -->
<g id="edge16" class="edge">
<title>BB11&#45;&gt;BB13</title>
<path fill="none" stroke="black" d="M285.81,-396.96C282.6,-388.08 279.21,-378.7 275.91,-369.56"/>
<polygon fill="black" stroke="black" points="279.21,-368.37 272.52,-360.15 272.62,-370.75 279.21,-368.37"/>
</g>
<!-- BB12 -->
<g id="node13" class="node">
<title>BB12</title>
<ellipse fill="none" stroke="black" cx="141.64" cy="-180.25" rx="104.8" ry="48.17"/>
<text text-anchor="middle" x="141.64" y="-199.05" font-family="Times New Roman,serif" font-size="14.00">[b2..c3)</text>
<text text-anchor="middle" x="141.64" y="-184.05" font-family="Times New Roman,serif" font-size="14.00">Count: 0</text>
<text text-anchor="middle" x="141.64" y="-169.05" font-family="Times New Roman,serif" font-size="14.00">Normalized count: NaN</text>
<text text-anchor="middle" x="141.64" y="-154.05" font-family="Times New Roman,serif" font-size="14.00">Samples weight: 0.00</text>
</g>
<!-- BB12&#45;&gt;BB13 -->
<g id="edge17" class="edge">
<title>BB12&#45;&gt;BB13</title>
<path fill="none" stroke="black" d="M185.4,-223.93C195.52,-235.05 206.21,-247.15 216.13,-258.72"/>
<polygon fill="black" stroke="black" points="213.71,-261.28 222.86,-266.62 219.04,-256.74 213.71,-261.28"/>
</g>
<!-- BB13&#45;&gt;BB12 -->
<g id="edge18" class="edge">
<title>BB13&#45;&gt;BB12</title>
<path fill="none" stroke="black" d="M211.61,-268.43C201.54,-257.36 190.91,-245.32 181.05,-233.83"/>
<polygon fill="black" stroke="black" points="183.51,-231.32 174.36,-225.97 178.18,-235.85 183.51,-231.32"/>
</g>
<!-- BB14 -->
<g id="node15" class="node">
<title>BB14</title>
<ellipse fill="none" stroke="black" cx="368.64" cy="-180.25" rx="104.8" ry="48.17"/>
<text text-anchor="middle" x="368.64" y="-199.05" font-family="Times New Roman,serif" font-size="14.00">[cb..dd)</text>
<text text-anchor="middle" x="368.64" y="-184.05" font-family="Times New Roman,serif" font-size="14.00">Count: 0</text>
<text text-anchor="middle" x="368.64" y="-169.05" font-family="Times New Roman,serif" font-size="14.00">Normalized count: NaN</text>
<text text-anchor="middle" x="368.64" y="-154.05" font-family="Times New Roman,serif" font-size="14.00">Samples weight: 0.00</text>
</g>
<!-- BB13&#45;&gt;BB14 -->
<g id="edge19" class="edge">
<title>BB13&#45;&gt;BB14</title>
<path fill="none" stroke="black" d="M293.9,-267.35C303.47,-256.32 313.82,-244.39 323.69,-233.03"/>
<polygon fill="black" stroke="black" points="326.51,-235.12 330.42,-225.27 321.23,-230.53 326.51,-235.12"/>
</g>
<!-- BB15 -->
<g id="node16" class="node">
<title>BB15</title>
<ellipse fill="none" stroke="black" cx="514.64" cy="-48.08" rx="104.8" ry="48.17"/>
<text text-anchor="middle" x="514.64" y="-66.88" font-family="Times New Roman,serif" font-size="14.00">[dd..e7)</text>
<text text-anchor="middle" x="514.64" y="-51.88" font-family="Times New Roman,serif" font-size="14.00">Count: 0</text>
<text text-anchor="middle" x="514.64" y="-36.88" font-family="Times New Roman,serif" font-size="14.00">Normalized count: NaN</text>
<text text-anchor="middle" x="514.64" y="-21.88" font-family="Times New Roman,serif" font-size="14.00">Samples weight: 0.00</text>
</g>
<!-- BB14&#45;&gt;BB15 -->
<g id="edge21" class="edge">
<title>BB14&#45;&gt;BB15</title>
<path fill="none" stroke="black" d="M416.04,-136.99C429.95,-124.59 445.28,-110.92 459.63,-98.13"/>
<polygon fill="black" stroke="black" points="462.34,-100.4 467.48,-91.13 457.68,-95.17 462.34,-100.4"/>
</g>
<!-- BB16 -->
<g id="node17" class="node">
<title>BB16</title>
<ellipse fill="none" stroke="black" cx="221.64" cy="-48.08" rx="104.8" ry="48.17"/>
<text text-anchor="middle" x="221.64" y="-66.88" font-family="Times New Roman,serif" font-size="14.00">[e7..ed)</text>
<text text-anchor="middle" x="221.64" y="-51.88" font-family="Times New Roman,serif" font-size="14.00">Count: 0</text>
<text text-anchor="middle" x="221.64" y="-36.88" font-family="Times New Roman,serif" font-size="14.00">Normalized count: NaN</text>
<text text-anchor="middle" x="221.64" y="-21.88" font-family="Times New Roman,serif" font-size="14.00">Samples weight: 0.00</text>
</g>
<!-- BB14&#45;&gt;BB16 -->
<g id="edge20" class="edge">
<title>BB14&#45;&gt;BB16</title>
<path fill="none" stroke="black" d="M321.32,-137.35C307.1,-124.75 291.37,-110.83 276.69,-97.83"/>
<polygon fill="black" stroke="black" points="278.93,-95.14 269.13,-91.13 274.29,-100.38 278.93,-95.14"/>
</g>
<!-- BB18 -->
<g id="node19" class="node">
<title>BB18</title>
<ellipse fill="none" stroke="black" cx="1032.64" cy="-708.92" rx="104.8" ry="48.17"/>
<text text-anchor="middle" x="1032.64" y="-727.72" font-family="Times New Roman,serif" font-size="14.00">[f9..104)</text>
<text text-anchor="middle" x="1032.64" y="-712.72" font-family="Times New Roman,serif" font-size="14.00">Count: 0</text>
<text text-anchor="middle" x="1032.64" y="-697.72" font-family="Times New Roman,serif" font-size="14.00">Normalized count: NaN</text>
<text text-anchor="middle" x="1032.64" y="-682.72" font-family="Times New Roman,serif" font-size="14.00">Samples weight: 0.00</text>
</g>
<!-- BB15&#45;&gt;BB18 -->
<g id="edge22" class="edge">
<title>BB15&#45;&gt;BB18</title>
<path fill="none" stroke="black" d="M618.43,-55.67C729.29,-65.02 894.74,-86.37 936.64,-132.17 990.72,-191.27 955.64,-231.3 955.64,-311.42 955.64,-445.58 955.64,-445.58 955.64,-445.58 955.64,-525.7 946.61,-549.79 974.64,-624.83 978.51,-635.18 983.96,-645.45 990,-655.05"/>
<polygon fill="black" stroke="black" points="987.25,-657.25 995.68,-663.67 993.1,-653.4 987.25,-657.25"/>
</g>
<!-- BB16&#45;&gt;BB17 -->
<g id="edge23" class="edge">
<title>BB16&#45;&gt;BB17</title>
<path fill="none" stroke="black" d="M126.41,-68.11C89.87,-80.29 51.3,-100.11 27.64,-132.17 -19.94,-196.62 8.64,-231.3 8.64,-311.42 8.64,-577.75 8.64,-577.75 8.64,-577.75 8.64,-760.92 639.34,-818.43 903.46,-834.49"/>
<polygon fill="black" stroke="black" points="903.27,-837.98 913.46,-835.09 903.69,-830.99 903.27,-837.98"/>
</g>
<!-- BB17&#45;&gt;BB5 -->
<g id="edge24" class="edge">
<title>BB17&#45;&gt;BB5</title>
<path fill="none" stroke="black" d="M937.62,-809.89C885.14,-790.09 816.44,-764.17 762.14,-743.68"/>
<polygon fill="black" stroke="black" points="763.11,-740.31 752.52,-740.05 760.64,-746.86 763.11,-740.31"/>
</g>
<!-- BB17&#45;&gt;BB18 -->
<g id="edge25" class="edge">
<title>BB17&#45;&gt;BB18</title>
<path fill="none" stroke="black" d="M1023.1,-792.72C1024.06,-784.36 1025.07,-775.58 1026.06,-766.99"/>
<polygon fill="black" stroke="black" points="1029.54,-767.36 1027.21,-757.02 1022.59,-766.56 1029.54,-767.36"/>
</g>
<!-- BB19 -->
<g id="node20" class="node">
<title>BB19</title>
<ellipse fill="none" stroke="black" cx="1088.64" cy="-576.75" rx="104.8" ry="48.17"/>
<text text-anchor="middle" x="1088.64" y="-595.55" font-family="Times New Roman,serif" font-size="14.00">[104..10f)</text>
<text text-anchor="middle" x="1088.64" y="-580.55" font-family="Times New Roman,serif" font-size="14.00">Count: 0</text>
<text text-anchor="middle" x="1088.64" y="-565.55" font-family="Times New Roman,serif" font-size="14.00">Normalized count: NaN</text>
<text text-anchor="middle" x="1088.64" y="-550.55" font-family="Times New Roman,serif" font-size="14.00">Samples weight: 0.00</text>
</g>
<!-- BB18&#45;&gt;BB19 -->
<g id="edge27" class="edge">
<title>BB18&#45;&gt;BB19</title>
<path fill="none" stroke="black" d="M1052.54,-661.66C1056.46,-652.56 1060.6,-642.93 1064.63,-633.55"/>
<polygon fill="black" stroke="black" points="1067.88,-634.87 1068.62,-624.3 1061.45,-632.1 1067.88,-634.87"/>
</g>
<!-- BB29 -->
<g id="node30" class="node">
<title>BB29</title>
<ellipse fill="none" stroke="black" cx="1560.64" cy="-576.75" rx="104.8" ry="48.17"/>
<text text-anchor="middle" x="1560.64" y="-595.55" font-family="Times New Roman,serif" font-size="14.00">[186..195)</text>
<text text-anchor="middle" x="1560.64" y="-580.55" font-family="Times New Roman,serif" font-size="14.00">Count: 0</text>
<text text-anchor="middle" x="1560.64" y="-565.55" font-family="Times New Roman,serif" font-size="14.00">Normalized count: NaN</text>
<text text-anchor="middle" x="1560.64" y="-550.55" font-family="Times New Roman,serif" font-size="14.00">Samples weight: 0.00</text>
</g>
<!-- BB18&#45;&gt;BB29 -->
<g id="edge26" class="edge">
<title>BB18&#45;&gt;BB29</title>
<path fill="none" stroke="black" d="M1124.45,-685.81C1160.02,-677.54 1201.14,-668.34 1238.64,-660.83 1331.06,-642.32 1357.13,-651.12 1447.64,-624.83 1457.54,-621.96 1467.74,-618.48 1477.78,-614.74"/>
<polygon fill="black" stroke="black" points="1479.25,-617.92 1487.34,-611.07 1476.75,-611.38 1479.25,-617.92"/>
</g>
<!-- BB25 -->
<g id="node26" class="node">
<title>BB25</title>
<ellipse fill="none" stroke="black" cx="1366.64" cy="-841.08" rx="113.69" ry="48.17"/>
<text text-anchor="middle" x="1366.64" y="-859.88" font-family="Times New Roman,serif" font-size="14.00">[150..15a)</text>
<text text-anchor="middle" x="1366.64" y="-844.88" font-family="Times New Roman,serif" font-size="14.00">Count: 1</text>
<text text-anchor="middle" x="1366.64" y="-829.88" font-family="Times New Roman,serif" font-size="14.00">Normalized count: Infinity</text>
<text text-anchor="middle" x="1366.64" y="-814.88" font-family="Times New Roman,serif" font-size="14.00">Samples weight: 0.00</text>
</g>
<!-- BB20&#45;&gt;BB25 -->
<g id="edge28" class="edge">
<title>BB20&#45;&gt;BB25</title>
<path fill="none" stroke="black" d="M1289.59,-928.54C1299.43,-917.5 1310.09,-905.54 1320.26,-894.13"/>
<polygon fill="black" stroke="black" points="1323.16,-896.13 1327.2,-886.34 1317.94,-891.48 1323.16,-896.13"/>
</g>
<!-- BB21 -->
<g id="node22" class="node">
<title>BB21</title>
<ellipse fill="none" stroke="black" cx="1919.64" cy="-708.92" rx="113.69" ry="48.17"/>
<text text-anchor="middle" x="1919.64" y="-727.72" font-family="Times New Roman,serif" font-size="14.00">[120..130)</text>
<text text-anchor="middle" x="1919.64" y="-712.72" font-family="Times New Roman,serif" font-size="14.00">Count: 1</text>
<text text-anchor="middle" x="1919.64" y="-697.72" font-family="Times New Roman,serif" font-size="14.00">Normalized count: Infinity</text>
<text text-anchor="middle" x="1919.64" y="-682.72" font-family="Times New Roman,serif" font-size="14.00">Samples weight: 0.00</text>
</g>
<!-- BB23 -->
<g id="node24" class="node">
<title>BB23</title>
<ellipse fill="none" stroke="black" cx="2031.64" cy="-576.75" rx="113.69" ry="48.17"/>
<text text-anchor="middle" x="2031.64" y="-595.55" font-family="Times New Roman,serif" font-size="14.00">[144..14a)</text>
<text text-anchor="middle" x="2031.64" y="-580.55" font-family="Times New Roman,serif" font-size="14.00">Count: 122</text>
<text text-anchor="middle" x="2031.64" y="-565.55" font-family="Times New Roman,serif" font-size="14.00">Normalized count: Infinity</text>
<text text-anchor="middle" x="2031.64" y="-550.55" font-family="Times New Roman,serif" font-size="14.00">Samples weight: 0.41</text>
</g>
<!-- BB21&#45;&gt;BB23 -->
<g id="edge29" class="edge">
<title>BB21&#45;&gt;BB23</title>
<path fill="none" stroke="black" d="M1957.87,-663.48C1967.14,-652.71 1977.13,-641.1 1986.68,-630"/>
<polygon fill="black" stroke="black" points="1989.33,-632.29 1993.2,-622.42 1984.03,-627.72 1989.33,-632.29"/>
</g>
<!-- BB22 -->
<g id="node23" class="node">
<title>BB22</title>
<ellipse fill="none" stroke="black" cx="2060.64" cy="-444.58" rx="113.69" ry="48.17"/>
<text text-anchor="middle" x="2060.64" y="-463.38" font-family="Times New Roman,serif" font-size="14.00">[130..144)</text>
<text text-anchor="middle" x="2060.64" y="-448.38" font-family="Times New Roman,serif" font-size="14.00">Count: 169</text>
<text text-anchor="middle" x="2060.64" y="-433.38" font-family="Times New Roman,serif" font-size="14.00">Normalized count: Infinity</text>
<text text-anchor="middle" x="2060.64" y="-418.38" font-family="Times New Roman,serif" font-size="14.00">Samples weight: 0.57</text>
</g>
<!-- BB22&#45;&gt;BB23 -->
<g id="edge30" class="edge">
<title>BB22&#45;&gt;BB23</title>
<path fill="none" stroke="black" d="M2056.65,-492.76C2054.96,-501.36 2053,-510.42 2050.92,-519.27"/>
<polygon fill="black" stroke="black" points="2047.49,-518.58 2048.53,-529.12 2054.29,-520.23 2047.49,-518.58"/>
</g>
<!-- BB23&#45;&gt;BB22 -->
<g id="edge31" class="edge">
<title>BB23&#45;&gt;BB22</title>
<path fill="none" stroke="black" d="M2035.67,-528.39C2037.35,-519.83 2039.3,-510.83 2041.36,-502.05"/>
<polygon fill="black" stroke="black" points="2044.78,-502.8 2043.74,-492.26 2037.98,-501.15 2044.78,-502.8"/>
</g>
<!-- BB24 -->
<g id="node25" class="node">
<title>BB24</title>
<ellipse fill="none" stroke="black" cx="1814.64" cy="-444.58" rx="113.69" ry="48.17"/>
<text text-anchor="middle" x="1814.64" y="-463.38" font-family="Times New Roman,serif" font-size="14.00">[14a..150)</text>
<text text-anchor="middle" x="1814.64" y="-448.38" font-family="Times New Roman,serif" font-size="14.00">Count: 1</text>
<text text-anchor="middle" x="1814.64" y="-433.38" font-family="Times New Roman,serif" font-size="14.00">Normalized count: Infinity</text>
<text text-anchor="middle" x="1814.64" y="-418.38" font-family="Times New Roman,serif" font-size="14.00">Samples weight: 0.00</text>
</g>
<!-- BB23&#45;&gt;BB24 -->
<g id="edge32" class="edge">
<title>BB23&#45;&gt;BB24</title>
<path fill="none" stroke="black" d="M1967.12,-537.05C1942.2,-522.1 1913.56,-504.92 1887.87,-489.51"/>
<polygon fill="black" stroke="black" points="1889.66,-486.5 1879.29,-484.36 1886.06,-492.51 1889.66,-486.5"/>
</g>
<!-- BB24&#45;&gt;BB25 -->
<g id="edge33" class="edge">
<title>BB24&#45;&gt;BB25</title>
<path fill="none" stroke="black" d="M1784.62,-491.37C1758.3,-529.54 1717.62,-584.08 1674.64,-624.83 1602.38,-693.35 1506.79,-756.69 1441.38,-796.66"/>
<polygon fill="black" stroke="black" points="1439.48,-793.72 1432.76,-801.9 1443.12,-799.7 1439.48,-793.72"/>
</g>
<!-- BB25&#45;&gt;BB21 -->
<g id="edge34" class="edge">
<title>BB25&#45;&gt;BB21</title>
<path fill="none" stroke="black" d="M1467.06,-818.3C1541.36,-801.98 1644.98,-778.8 1735.64,-757 1761.08,-750.88 1788.44,-744.03 1814.07,-737.49"/>
<polygon fill="black" stroke="black" points="1814.98,-740.87 1823.8,-735 1813.24,-734.09 1814.98,-740.87"/>
</g>
<!-- BB26 -->
<g id="node27" class="node">
<title>BB26</title>
<ellipse fill="none" stroke="black" cx="1352.64" cy="-708.92" rx="104.8" ry="48.17"/>
<text text-anchor="middle" x="1352.64" y="-727.72" font-family="Times New Roman,serif" font-size="14.00">[15a..16b)</text>
<text text-anchor="middle" x="1352.64" y="-712.72" font-family="Times New Roman,serif" font-size="14.00">Count: 0</text>
<text text-anchor="middle" x="1352.64" y="-697.72" font-family="Times New Roman,serif" font-size="14.00">Normalized count: NaN</text>
<text text-anchor="middle" x="1352.64" y="-682.72" font-family="Times New Roman,serif" font-size="14.00">Samples weight: 0.00</text>
</g>
<!-- BB25&#45;&gt;BB26 -->
<g id="edge35" class="edge">
<title>BB25&#45;&gt;BB26</title>
<path fill="none" stroke="black" d="M1361.55,-792.72C1360.65,-784.36 1359.7,-775.58 1358.78,-766.99"/>
<polygon fill="black" stroke="black" points="1362.26,-766.59 1357.71,-757.02 1355.3,-767.34 1362.26,-766.59"/>
</g>
<!-- BB28 -->
<g id="node29" class="node">
<title>BB28</title>
<ellipse fill="none" stroke="black" cx="1324.64" cy="-576.75" rx="113.69" ry="48.17"/>
<text text-anchor="middle" x="1324.64" y="-595.55" font-family="Times New Roman,serif" font-size="14.00">[17c..186)</text>
<text text-anchor="middle" x="1324.64" y="-580.55" font-family="Times New Roman,serif" font-size="14.00">Count: 2</text>
<text text-anchor="middle" x="1324.64" y="-565.55" font-family="Times New Roman,serif" font-size="14.00">Normalized count: Infinity</text>
<text text-anchor="middle" x="1324.64" y="-550.55" font-family="Times New Roman,serif" font-size="14.00">Samples weight: 0.01</text>
</g>
<!-- BB26&#45;&gt;BB28 -->
<g id="edge36" class="edge">
<title>BB26&#45;&gt;BB28</title>
<path fill="none" stroke="black" d="M1342.53,-660.92C1340.69,-652.35 1338.75,-643.33 1336.85,-634.51"/>
<polygon fill="black" stroke="black" points="1340.26,-633.71 1334.73,-624.67 1333.42,-635.19 1340.26,-633.71"/>
</g>
<!-- BB27 -->
<g id="node28" class="node">
<title>BB27</title>
<ellipse fill="none" stroke="black" cx="1324.64" cy="-444.58" rx="113.69" ry="48.17"/>
<text text-anchor="middle" x="1324.64" y="-463.38" font-family="Times New Roman,serif" font-size="14.00">[16b..17c)</text>
<text text-anchor="middle" x="1324.64" y="-448.38" font-family="Times New Roman,serif" font-size="14.00">Count: 3</text>
<text text-anchor="middle" x="1324.64" y="-433.38" font-family="Times New Roman,serif" font-size="14.00">Normalized count: Infinity</text>
<text text-anchor="middle" x="1324.64" y="-418.38" font-family="Times New Roman,serif" font-size="14.00">Samples weight: 0.01</text>
</g>
<!-- BB27&#45;&gt;BB28 -->
<g id="edge37" class="edge">
<title>BB27&#45;&gt;BB28</title>
<path fill="none" stroke="black" d="M1331.16,-492.69C1331.38,-500.95 1331.44,-509.63 1331.35,-518.14"/>
<polygon fill="black" stroke="black" points="1327.85,-518.33 1331.16,-528.39 1334.85,-518.45 1327.85,-518.33"/>
</g>
<!-- BB28&#45;&gt;BB27 -->
<g id="edge38" class="edge">
<title>BB28&#45;&gt;BB27</title>
<path fill="none" stroke="black" d="M1318.12,-528.39C1317.9,-520.12 1317.84,-511.44 1317.93,-502.93"/>
<polygon fill="black" stroke="black" points="1321.44,-502.75 1318.13,-492.69 1314.44,-502.62 1321.44,-502.75"/>
</g>
<!-- BB28&#45;&gt;BB29 -->
<g id="edge39" class="edge">
<title>BB28&#45;&gt;BB29</title>
<path fill="none" stroke="black" d="M1438.49,-576.75C1440.82,-576.75 1443.14,-576.75 1445.47,-576.75"/>
<polygon fill="black" stroke="black" points="1445.67,-580.25 1455.67,-576.75 1445.67,-573.25 1445.67,-580.25"/>
</g>
<!-- BB30 -->
<g id="node31" class="node">
<title>BB30</title>
<ellipse fill="none" stroke="black" cx="1560.64" cy="-444.58" rx="104.8" ry="48.17"/>
<text text-anchor="middle" x="1560.64" y="-463.38" font-family="Times New Roman,serif" font-size="14.00">[195..1c4)</text>
<text text-anchor="middle" x="1560.64" y="-448.38" font-family="Times New Roman,serif" font-size="14.00">Count: 0</text>
<text text-anchor="middle" x="1560.64" y="-433.38" font-family="Times New Roman,serif" font-size="14.00">Normalized count: NaN</text>
<text text-anchor="middle" x="1560.64" y="-418.38" font-family="Times New Roman,serif" font-size="14.00">Samples weight: 0.00</text>
</g>
<!-- BB29&#45;&gt;BB30 -->
<g id="edge40" class="edge">
<title>BB29&#45;&gt;BB30</title>
<path fill="none" stroke="black" d="M1560.64,-528.39C1560.64,-520.12 1560.64,-511.44 1560.64,-502.93"/>
<polygon fill="black" stroke="black" points="1564.14,-502.69 1560.64,-492.69 1557.14,-502.69 1564.14,-502.69"/>
</g>
<!-- BB30&#45;&gt;BB30 -->
<g id="edge41" class="edge">
<title>BB30&#45;&gt;BB30</title>
<path fill="none" stroke="black" d="M1651.57,-468.39C1670.06,-465.8 1683.29,-457.86 1683.29,-444.58 1683.29,-433.9 1674.72,-426.67 1661.74,-422.91"/>
<polygon fill="black" stroke="black" points="1662.08,-419.4 1651.57,-420.78 1660.64,-426.25 1662.08,-419.4"/>
</g>
<!-- BB31 -->
<g id="node32" class="node">
<title>BB31</title>
<ellipse fill="none" stroke="black" cx="1560.64" cy="-312.42" rx="104.8" ry="48.17"/>
<text text-anchor="middle" x="1560.64" y="-331.22" font-family="Times New Roman,serif" font-size="14.00">[1c4..1cc)</text>
<text text-anchor="middle" x="1560.64" y="-316.22" font-family="Times New Roman,serif" font-size="14.00">Count: 0</text>
<text text-anchor="middle" x="1560.64" y="-301.22" font-family="Times New Roman,serif" font-size="14.00">Normalized count: NaN</text>
<text text-anchor="middle" x="1560.64" y="-286.22" font-family="Times New Roman,serif" font-size="14.00">Samples weight: 0.00</text>
</g>
<!-- BB30&#45;&gt;BB31 -->
<g id="edge42" class="edge">
<title>BB30&#45;&gt;BB31</title>
<path fill="none" stroke="black" d="M1560.64,-396.22C1560.64,-387.95 1560.64,-379.27 1560.64,-370.77"/>
<polygon fill="black" stroke="black" points="1564.14,-370.52 1560.64,-360.52 1557.14,-370.52 1564.14,-370.52"/>
</g>
<!-- BB32 -->
<g id="node33" class="node">
<title>BB32</title>
<ellipse fill="none" stroke="black" cx="1447.64" cy="-180.25" rx="104.8" ry="48.17"/>
<text text-anchor="middle" x="1447.64" y="-199.05" font-family="Times New Roman,serif" font-size="14.00">[1cc..1d3)</text>
<text text-anchor="middle" x="1447.64" y="-184.05" font-family="Times New Roman,serif" font-size="14.00">Count: 0</text>
<text text-anchor="middle" x="1447.64" y="-169.05" font-family="Times New Roman,serif" font-size="14.00">Normalized count: NaN</text>
<text text-anchor="middle" x="1447.64" y="-154.05" font-family="Times New Roman,serif" font-size="14.00">Samples weight: 0.00</text>
</g>
<!-- BB31&#45;&gt;BB32 -->
<g id="edge44" class="edge">
<title>BB31&#45;&gt;BB32</title>
<path fill="none" stroke="black" d="M1522.38,-267.35C1512.81,-256.32 1502.46,-244.39 1492.59,-233.03"/>
<polygon fill="black" stroke="black" points="1495.06,-230.53 1485.86,-225.27 1489.77,-235.12 1495.06,-230.53"/>
</g>
<!-- BB33 -->
<g id="node34" class="node">
<title>BB33</title>
<ellipse fill="none" stroke="black" cx="1674.64" cy="-180.25" rx="104.8" ry="48.17"/>
<text text-anchor="middle" x="1674.64" y="-199.05" font-family="Times New Roman,serif" font-size="14.00">[1d3..1de)</text>
<text text-anchor="middle" x="1674.64" y="-184.05" font-family="Times New Roman,serif" font-size="14.00">Count: 0</text>
<text text-anchor="middle" x="1674.64" y="-169.05" font-family="Times New Roman,serif" font-size="14.00">Normalized count: NaN</text>
<text text-anchor="middle" x="1674.64" y="-154.05" font-family="Times New Roman,serif" font-size="14.00">Samples weight: 0.00</text>
</g>
<!-- BB31&#45;&gt;BB33 -->
<g id="edge43" class="edge">
<title>BB31&#45;&gt;BB33</title>
<path fill="none" stroke="black" d="M1599.24,-267.35C1608.89,-256.32 1619.34,-244.39 1629.29,-233.03"/>
<polygon fill="black" stroke="black" points="1632.13,-235.1 1636.09,-225.27 1626.86,-230.49 1632.13,-235.1"/>
</g>
<!-- BB32&#45;&gt;BB33 -->
<g id="edge45" class="edge">
<title>BB32&#45;&gt;BB33</title>
<path fill="none" stroke="black" d="M1552.72,-180.25C1555.04,-180.25 1557.36,-180.25 1559.68,-180.25"/>
<polygon fill="black" stroke="black" points="1559.86,-183.75 1569.86,-180.25 1559.86,-176.75 1559.86,-183.75"/>
</g>
</g>
</svg>
