<?xml version="1.0" encoding="UTF-8" standalone="no"?>
<!DOCTYPE svg PUBLIC "-//W3C//DTD SVG 1.1//EN"
 "http://www.w3.org/Graphics/SVG/1.1/DTD/svg11.dtd">
<!-- Generated by graphviz version 2.47.0 (20210316.0004)
 -->
<!-- Title: G Pages: 1 -->
<svg width="2913pt" height="1690pt"
 viewBox="0.00 0.00 2912.52 1690.16" xmlns="http://www.w3.org/2000/svg" xmlns:xlink="http://www.w3.org/1999/xlink">
<g id="graph0" class="graph" transform="scale(1 1) rotate(0) translate(4 1686.16)">
<title>G</title>
<polygon fill="white" stroke="transparent" points="-4,4 -4,-1686.16 2908.52,-1686.16 2908.52,4 -4,4"/>
<!-- BB0 -->
<g id="node1" class="node">
<title>BB0</title>
<ellipse fill="none" stroke="black" cx="608.19" cy="-1634.08" rx="103.48" ry="48.17"/>
<text text-anchor="middle" x="608.19" y="-1652.88" font-family="Times New Roman,serif" font-size="14.00">[0..15)</text>
<text text-anchor="middle" x="608.19" y="-1637.88" font-family="Times New Roman,serif" font-size="14.00">Count: 1</text>
<text text-anchor="middle" x="608.19" y="-1622.88" font-family="Times New Roman,serif" font-size="14.00">Normalized count: 1.00</text>
<text text-anchor="middle" x="608.19" y="-1607.88" font-family="Times New Roman,serif" font-size="14.00">Samples weight: 0.00</text>
</g>
<!-- BB9 -->
<g id="node10" class="node">
<title>BB9</title>
<ellipse fill="none" stroke="black" cx="608.19" cy="-1501.92" rx="108.38" ry="48.17"/>
<text text-anchor="middle" x="608.19" y="-1520.72" font-family="Times New Roman,serif" font-size="14.00">[6d..71)</text>
<text text-anchor="middle" x="608.19" y="-1505.72" font-family="Times New Roman,serif" font-size="14.00">Count: 92</text>
<text text-anchor="middle" x="608.19" y="-1490.72" font-family="Times New Roman,serif" font-size="14.00">Normalized count: 92.00</text>
<text text-anchor="middle" x="608.19" y="-1475.72" font-family="Times New Roman,serif" font-size="14.00">Samples weight: 0.00</text>
</g>
<!-- BB0&#45;&gt;BB9 -->
<g id="edge1" class="edge">
<title>BB0&#45;&gt;BB9</title>
<path fill="none" stroke="black" d="M608.19,-1585.72C608.19,-1577.45 608.19,-1568.77 608.19,-1560.27"/>
<polygon fill="black" stroke="black" points="611.69,-1560.02 608.19,-1550.02 604.69,-1560.02 611.69,-1560.02"/>
</g>
<!-- BB1 -->
<g id="node2" class="node">
<title>BB1</title>
<ellipse fill="none" stroke="black" cx="608.19" cy="-1369.75" rx="108.38" ry="48.17"/>
<text text-anchor="middle" x="608.19" y="-1388.55" font-family="Times New Roman,serif" font-size="14.00">[15..24)</text>
<text text-anchor="middle" x="608.19" y="-1373.55" font-family="Times New Roman,serif" font-size="14.00">Count: 91</text>
<text text-anchor="middle" x="608.19" y="-1358.55" font-family="Times New Roman,serif" font-size="14.00">Normalized count: 91.00</text>
<text text-anchor="middle" x="608.19" y="-1343.55" font-family="Times New Roman,serif" font-size="14.00">Samples weight: 0.00</text>
</g>
<!-- BB5 -->
<g id="node6" class="node">
<title>BB5</title>
<ellipse fill="none" stroke="black" cx="608.19" cy="-1237.58" rx="122.16" ry="48.17"/>
<text text-anchor="middle" x="608.19" y="-1256.38" font-family="Times New Roman,serif" font-size="14.00">[44..49)</text>
<text text-anchor="middle" x="608.19" y="-1241.38" font-family="Times New Roman,serif" font-size="14.00">Count: 18266</text>
<text text-anchor="middle" x="608.19" y="-1226.38" font-family="Times New Roman,serif" font-size="14.00">Normalized count: 18266.00</text>
<text text-anchor="middle" x="608.19" y="-1211.38" font-family="Times New Roman,serif" font-size="14.00">Samples weight: 0.01</text>
</g>
<!-- BB1&#45;&gt;BB5 -->
<g id="edge2" class="edge">
<title>BB1&#45;&gt;BB5</title>
<path fill="none" stroke="black" d="M608.19,-1321.39C608.19,-1313.12 608.19,-1304.44 608.19,-1295.93"/>
<polygon fill="black" stroke="black" points="611.69,-1295.69 608.19,-1285.69 604.69,-1295.69 611.69,-1295.69"/>
</g>
<!-- BB2 -->
<g id="node3" class="node">
<title>BB2</title>
<ellipse fill="none" stroke="black" cx="608.19" cy="-1105.42" rx="122.16" ry="48.17"/>
<text text-anchor="middle" x="608.19" y="-1124.22" font-family="Times New Roman,serif" font-size="14.00">[24..32)</text>
<text text-anchor="middle" x="608.19" y="-1109.22" font-family="Times New Roman,serif" font-size="14.00">Count: 18175</text>
<text text-anchor="middle" x="608.19" y="-1094.22" font-family="Times New Roman,serif" font-size="14.00">Normalized count: 18175.00</text>
<text text-anchor="middle" x="608.19" y="-1079.22" font-family="Times New Roman,serif" font-size="14.00">Samples weight: 0.01</text>
</g>
<!-- BB3 -->
<g id="node4" class="node">
<title>BB3</title>
<ellipse fill="none" stroke="black" cx="571.19" cy="-973.25" rx="113.27" ry="48.17"/>
<text text-anchor="middle" x="571.19" y="-992.05" font-family="Times New Roman,serif" font-size="14.00">[32..3e)</text>
<text text-anchor="middle" x="571.19" y="-977.05" font-family="Times New Roman,serif" font-size="14.00">Count: 925</text>
<text text-anchor="middle" x="571.19" y="-962.05" font-family="Times New Roman,serif" font-size="14.00">Normalized count: 925.00</text>
<text text-anchor="middle" x="571.19" y="-947.05" font-family="Times New Roman,serif" font-size="14.00">Samples weight: 0.00</text>
</g>
<!-- BB2&#45;&gt;BB3 -->
<g id="edge4" class="edge">
<title>BB2&#45;&gt;BB3</title>
<path fill="none" stroke="black" d="M594.83,-1057.42C592.39,-1048.85 589.83,-1039.82 587.32,-1031.01"/>
<polygon fill="black" stroke="black" points="590.63,-1029.83 584.53,-1021.17 583.89,-1031.75 590.63,-1029.83"/>
</g>
<!-- BB4 -->
<g id="node5" class="node">
<title>BB4</title>
<ellipse fill="none" stroke="black" cx="824.19" cy="-973.25" rx="122.16" ry="48.17"/>
<text text-anchor="middle" x="824.19" y="-992.05" font-family="Times New Roman,serif" font-size="14.00">[3e..44)</text>
<text text-anchor="middle" x="824.19" y="-977.05" font-family="Times New Roman,serif" font-size="14.00">Count: 18175</text>
<text text-anchor="middle" x="824.19" y="-962.05" font-family="Times New Roman,serif" font-size="14.00">Normalized count: 18175.00</text>
<text text-anchor="middle" x="824.19" y="-947.05" font-family="Times New Roman,serif" font-size="14.00">Samples weight: 0.01</text>
</g>
<!-- BB2&#45;&gt;BB4 -->
<g id="edge3" class="edge">
<title>BB2&#45;&gt;BB4</title>
<path fill="none" stroke="black" d="M673.87,-1064.83C697.86,-1050.38 725.14,-1033.93 749.83,-1019.06"/>
<polygon fill="black" stroke="black" points="751.68,-1022.03 758.44,-1013.87 748.07,-1016.03 751.68,-1022.03"/>
</g>
<!-- BB3&#45;&gt;BB4 -->
<g id="edge5" class="edge">
<title>BB3&#45;&gt;BB4</title>
<path fill="none" stroke="black" d="M684.35,-973.25C686.8,-973.25 689.26,-973.25 691.72,-973.25"/>
<polygon fill="black" stroke="black" points="691.83,-976.75 701.83,-973.25 691.83,-969.75 691.83,-976.75"/>
</g>
<!-- BB4&#45;&gt;BB5 -->
<g id="edge6" class="edge">
<title>BB4&#45;&gt;BB5</title>
<path fill="none" stroke="black" d="M810.14,-1021.09C796.71,-1059.91 773.42,-1114.8 739.19,-1153.5 725.62,-1168.84 708.55,-1182.4 691.26,-1193.88"/>
<polygon fill="black" stroke="black" points="689.28,-1190.99 682.76,-1199.35 693.07,-1196.88 689.28,-1190.99"/>
</g>
<!-- BB5&#45;&gt;BB2 -->
<g id="edge7" class="edge">
<title>BB5&#45;&gt;BB2</title>
<path fill="none" stroke="black" d="M608.19,-1189.22C608.19,-1180.95 608.19,-1172.27 608.19,-1163.77"/>
<polygon fill="black" stroke="black" points="611.69,-1163.52 608.19,-1153.52 604.69,-1163.52 611.69,-1163.52"/>
</g>
<!-- BB6 -->
<g id="node7" class="node">
<title>BB6</title>
<ellipse fill="none" stroke="black" cx="337.19" cy="-1105.42" rx="108.38" ry="48.17"/>
<text text-anchor="middle" x="337.19" y="-1124.22" font-family="Times New Roman,serif" font-size="14.00">[49..55)</text>
<text text-anchor="middle" x="337.19" y="-1109.22" font-family="Times New Roman,serif" font-size="14.00">Count: 91</text>
<text text-anchor="middle" x="337.19" y="-1094.22" font-family="Times New Roman,serif" font-size="14.00">Normalized count: 91.00</text>
<text text-anchor="middle" x="337.19" y="-1079.22" font-family="Times New Roman,serif" font-size="14.00">Samples weight: 0.00</text>
</g>
<!-- BB5&#45;&gt;BB6 -->
<g id="edge8" class="edge">
<title>BB5&#45;&gt;BB6</title>
<path fill="none" stroke="black" d="M531.62,-1199.8C496.56,-1182.96 454.96,-1162.99 419.26,-1145.84"/>
<polygon fill="black" stroke="black" points="420.37,-1142.49 409.84,-1141.31 417.34,-1148.8 420.37,-1142.49"/>
</g>
<!-- BB7 -->
<g id="node8" class="node">
<title>BB7</title>
<ellipse fill="none" stroke="black" cx="337.19" cy="-973.25" rx="103.48" ry="48.17"/>
<text text-anchor="middle" x="337.19" y="-992.05" font-family="Times New Roman,serif" font-size="14.00">[55..57)</text>
<text text-anchor="middle" x="337.19" y="-977.05" font-family="Times New Roman,serif" font-size="14.00">Count: 0</text>
<text text-anchor="middle" x="337.19" y="-962.05" font-family="Times New Roman,serif" font-size="14.00">Normalized count: 0.00</text>
<text text-anchor="middle" x="337.19" y="-947.05" font-family="Times New Roman,serif" font-size="14.00">Samples weight: 0.00</text>
</g>
<!-- BB6&#45;&gt;BB7 -->
<g id="edge10" class="edge">
<title>BB6&#45;&gt;BB7</title>
<path fill="none" stroke="black" d="M337.19,-1057.05C337.19,-1048.79 337.19,-1040.1 337.19,-1031.6"/>
<polygon fill="black" stroke="black" points="340.69,-1031.36 337.19,-1021.36 333.69,-1031.36 340.69,-1031.36"/>
</g>
<!-- BB8 -->
<g id="node9" class="node">
<title>BB8</title>
<ellipse fill="none" stroke="black" cx="108.19" cy="-973.25" rx="108.38" ry="48.17"/>
<text text-anchor="middle" x="108.19" y="-992.05" font-family="Times New Roman,serif" font-size="14.00">[57..6d)</text>
<text text-anchor="middle" x="108.19" y="-977.05" font-family="Times New Roman,serif" font-size="14.00">Count: 91</text>
<text text-anchor="middle" x="108.19" y="-962.05" font-family="Times New Roman,serif" font-size="14.00">Normalized count: 91.00</text>
<text text-anchor="middle" x="108.19" y="-947.05" font-family="Times New Roman,serif" font-size="14.00">Samples weight: 0.00</text>
</g>
<!-- BB6&#45;&gt;BB8 -->
<g id="edge9" class="edge">
<title>BB6&#45;&gt;BB8</title>
<path fill="none" stroke="black" d="M271.57,-1067.11C243.78,-1051.32 211.26,-1032.84 182.59,-1016.54"/>
<polygon fill="black" stroke="black" points="184.24,-1013.45 173.82,-1011.55 180.78,-1019.54 184.24,-1013.45"/>
</g>
<!-- BB8&#45;&gt;BB9 -->
<g id="edge11" class="edge">
<title>BB8&#45;&gt;BB9</title>
<path fill="none" stroke="black" d="M132.76,-1020.08C153.79,-1057.54 186,-1111.06 220.19,-1153.5 325.74,-1284.52 361.98,-1310.06 491.19,-1417.83 506.58,-1430.67 523.86,-1443.65 540.32,-1455.41"/>
<polygon fill="black" stroke="black" points="538.65,-1458.52 548.83,-1461.44 542.69,-1452.81 538.65,-1458.52"/>
</g>
<!-- BB9&#45;&gt;BB1 -->
<g id="edge12" class="edge">
<title>BB9&#45;&gt;BB1</title>
<path fill="none" stroke="black" d="M608.19,-1453.55C608.19,-1445.29 608.19,-1436.6 608.19,-1428.1"/>
<polygon fill="black" stroke="black" points="611.69,-1427.86 608.19,-1417.86 604.69,-1427.86 611.69,-1427.86"/>
</g>
<!-- BB10 -->
<g id="node11" class="node">
<title>BB10</title>
<ellipse fill="none" stroke="black" cx="872.19" cy="-1369.75" rx="103.48" ry="48.17"/>
<text text-anchor="middle" x="872.19" y="-1388.55" font-family="Times New Roman,serif" font-size="14.00">[71..79)</text>
<text text-anchor="middle" x="872.19" y="-1373.55" font-family="Times New Roman,serif" font-size="14.00">Count: 1</text>
<text text-anchor="middle" x="872.19" y="-1358.55" font-family="Times New Roman,serif" font-size="14.00">Normalized count: 1.00</text>
<text text-anchor="middle" x="872.19" y="-1343.55" font-family="Times New Roman,serif" font-size="14.00">Samples weight: 0.00</text>
</g>
<!-- BB9&#45;&gt;BB10 -->
<g id="edge13" class="edge">
<title>BB9&#45;&gt;BB10</title>
<path fill="none" stroke="black" d="M679.63,-1465.69C714.68,-1448.41 757.01,-1427.54 793.04,-1409.77"/>
<polygon fill="black" stroke="black" points="794.64,-1412.89 802.06,-1405.33 791.54,-1406.61 794.64,-1412.89"/>
</g>
<!-- BB40 -->
<g id="node41" class="node">
<title>BB40</title>
<ellipse fill="none" stroke="black" cx="1039.19" cy="-1237.58" rx="113.27" ry="48.17"/>
<text text-anchor="middle" x="1039.19" y="-1256.38" font-family="Times New Roman,serif" font-size="14.00">[1d7..1df)</text>
<text text-anchor="middle" x="1039.19" y="-1241.38" font-family="Times New Roman,serif" font-size="14.00">Count: 473</text>
<text text-anchor="middle" x="1039.19" y="-1226.38" font-family="Times New Roman,serif" font-size="14.00">Normalized count: 473.00</text>
<text text-anchor="middle" x="1039.19" y="-1211.38" font-family="Times New Roman,serif" font-size="14.00">Samples weight: 0.00</text>
</g>
<!-- BB10&#45;&gt;BB40 -->
<g id="edge14" class="edge">
<title>BB10&#45;&gt;BB40</title>
<path fill="none" stroke="black" d="M924.57,-1327.92C941.49,-1314.73 960.4,-1299.99 977.91,-1286.34"/>
<polygon fill="black" stroke="black" points="980.11,-1289.07 985.84,-1280.16 975.8,-1283.55 980.11,-1289.07"/>
</g>
<!-- BB11 -->
<g id="node12" class="node">
<title>BB11</title>
<ellipse fill="none" stroke="black" cx="2237.19" cy="-1105.42" rx="113.27" ry="48.17"/>
<text text-anchor="middle" x="2237.19" y="-1124.22" font-family="Times New Roman,serif" font-size="14.00">[79..7d)</text>
<text text-anchor="middle" x="2237.19" y="-1109.22" font-family="Times New Roman,serif" font-size="14.00">Count: 472</text>
<text text-anchor="middle" x="2237.19" y="-1094.22" font-family="Times New Roman,serif" font-size="14.00">Normalized count: 472.00</text>
<text text-anchor="middle" x="2237.19" y="-1079.22" font-family="Times New Roman,serif" font-size="14.00">Samples weight: 0.00</text>
</g>
<!-- BB12 -->
<g id="node13" class="node">
<title>BB12</title>
<ellipse fill="none" stroke="black" cx="2499.19" cy="-973.25" rx="113.27" ry="48.17"/>
<text text-anchor="middle" x="2499.19" y="-992.05" font-family="Times New Roman,serif" font-size="14.00">[7d..81)</text>
<text text-anchor="middle" x="2499.19" y="-977.05" font-family="Times New Roman,serif" font-size="14.00">Count: 255</text>
<text text-anchor="middle" x="2499.19" y="-962.05" font-family="Times New Roman,serif" font-size="14.00">Normalized count: 255.00</text>
<text text-anchor="middle" x="2499.19" y="-947.05" font-family="Times New Roman,serif" font-size="14.00">Samples weight: 0.00</text>
</g>
<!-- BB11&#45;&gt;BB12 -->
<g id="edge16" class="edge">
<title>BB11&#45;&gt;BB12</title>
<path fill="none" stroke="black" d="M2309.82,-1068.33C2343.19,-1051.75 2382.9,-1032.02 2417.32,-1014.92"/>
<polygon fill="black" stroke="black" points="2419.01,-1017.99 2426.41,-1010.4 2415.9,-1011.72 2419.01,-1017.99"/>
</g>
<!-- BB19 -->
<g id="node20" class="node">
<title>BB19</title>
<ellipse fill="none" stroke="black" cx="2237.19" cy="-973.25" rx="113.27" ry="48.17"/>
<text text-anchor="middle" x="2237.19" y="-992.05" font-family="Times New Roman,serif" font-size="14.00">[bc..cb)</text>
<text text-anchor="middle" x="2237.19" y="-977.05" font-family="Times New Roman,serif" font-size="14.00">Count: 472</text>
<text text-anchor="middle" x="2237.19" y="-962.05" font-family="Times New Roman,serif" font-size="14.00">Normalized count: 472.00</text>
<text text-anchor="middle" x="2237.19" y="-947.05" font-family="Times New Roman,serif" font-size="14.00">Samples weight: 0.00</text>
</g>
<!-- BB11&#45;&gt;BB19 -->
<g id="edge15" class="edge">
<title>BB11&#45;&gt;BB19</title>
<path fill="none" stroke="black" d="M2237.19,-1057.05C2237.19,-1048.79 2237.19,-1040.1 2237.19,-1031.6"/>
<polygon fill="black" stroke="black" points="2240.69,-1031.36 2237.19,-1021.36 2233.69,-1031.36 2240.69,-1031.36"/>
</g>
<!-- BB18 -->
<g id="node19" class="node">
<title>BB18</title>
<ellipse fill="none" stroke="black" cx="2509.19" cy="-841.08" rx="122.16" ry="48.17"/>
<text text-anchor="middle" x="2509.19" y="-859.88" font-family="Times New Roman,serif" font-size="14.00">[b7..bc)</text>
<text text-anchor="middle" x="2509.19" y="-844.88" font-family="Times New Roman,serif" font-size="14.00">Count: 13837</text>
<text text-anchor="middle" x="2509.19" y="-829.88" font-family="Times New Roman,serif" font-size="14.00">Normalized count: 13837.00</text>
<text text-anchor="middle" x="2509.19" y="-814.88" font-family="Times New Roman,serif" font-size="14.00">Samples weight: 0.01</text>
</g>
<!-- BB12&#45;&gt;BB18 -->
<g id="edge17" class="edge">
<title>BB12&#45;&gt;BB18</title>
<path fill="none" stroke="black" d="M2502.83,-924.89C2503.46,-916.62 2504.13,-907.94 2504.78,-899.43"/>
<polygon fill="black" stroke="black" points="2508.29,-899.43 2505.57,-889.19 2501.31,-898.89 2508.29,-899.43"/>
</g>
<!-- BB13 -->
<g id="node14" class="node">
<title>BB13</title>
<ellipse fill="none" stroke="black" cx="2519.19" cy="-708.92" rx="122.16" ry="48.17"/>
<text text-anchor="middle" x="2519.19" y="-727.72" font-family="Times New Roman,serif" font-size="14.00">[81..8b)</text>
<text text-anchor="middle" x="2519.19" y="-712.72" font-family="Times New Roman,serif" font-size="14.00">Count: 13582</text>
<text text-anchor="middle" x="2519.19" y="-697.72" font-family="Times New Roman,serif" font-size="14.00">Normalized count: 13582.00</text>
<text text-anchor="middle" x="2519.19" y="-682.72" font-family="Times New Roman,serif" font-size="14.00">Samples weight: 0.01</text>
</g>
<!-- BB14 -->
<g id="node15" class="node">
<title>BB14</title>
<ellipse fill="none" stroke="black" cx="2519.19" cy="-576.75" rx="122.16" ry="48.17"/>
<text text-anchor="middle" x="2519.19" y="-595.55" font-family="Times New Roman,serif" font-size="14.00">[8b..90)</text>
<text text-anchor="middle" x="2519.19" y="-580.55" font-family="Times New Roman,serif" font-size="14.00">Count: 13582</text>
<text text-anchor="middle" x="2519.19" y="-565.55" font-family="Times New Roman,serif" font-size="14.00">Normalized count: 13582.00</text>
<text text-anchor="middle" x="2519.19" y="-550.55" font-family="Times New Roman,serif" font-size="14.00">Samples weight: 0.01</text>
</g>
<!-- BB13&#45;&gt;BB14 -->
<g id="edge19" class="edge">
<title>BB13&#45;&gt;BB14</title>
<path fill="none" stroke="black" d="M2519.19,-660.55C2519.19,-652.29 2519.19,-643.6 2519.19,-635.1"/>
<polygon fill="black" stroke="black" points="2522.69,-634.86 2519.19,-624.86 2515.69,-634.86 2522.69,-634.86"/>
</g>
<!-- BB17 -->
<g id="node18" class="node">
<title>BB17</title>
<ellipse fill="none" stroke="black" cx="2782.19" cy="-576.75" rx="122.16" ry="48.17"/>
<text text-anchor="middle" x="2782.19" y="-595.55" font-family="Times New Roman,serif" font-size="14.00">[ac..b7)</text>
<text text-anchor="middle" x="2782.19" y="-580.55" font-family="Times New Roman,serif" font-size="14.00">Count: 13582</text>
<text text-anchor="middle" x="2782.19" y="-565.55" font-family="Times New Roman,serif" font-size="14.00">Normalized count: 13582.00</text>
<text text-anchor="middle" x="2782.19" y="-550.55" font-family="Times New Roman,serif" font-size="14.00">Samples weight: 0.01</text>
</g>
<!-- BB13&#45;&gt;BB17 -->
<g id="edge18" class="edge">
<title>BB13&#45;&gt;BB17</title>
<path fill="none" stroke="black" d="M2594.2,-670.79C2626.54,-654.79 2664.5,-636 2697.81,-619.51"/>
<polygon fill="black" stroke="black" points="2699.66,-622.5 2707.07,-614.92 2696.56,-616.22 2699.66,-622.5"/>
</g>
<!-- BB16 -->
<g id="node17" class="node">
<title>BB16</title>
<ellipse fill="none" stroke="black" cx="2761.19" cy="-444.58" rx="127.06" ry="48.17"/>
<text text-anchor="middle" x="2761.19" y="-463.38" font-family="Times New Roman,serif" font-size="14.00">[a7..ac)</text>
<text text-anchor="middle" x="2761.19" y="-448.38" font-family="Times New Roman,serif" font-size="14.00">Count: 485888</text>
<text text-anchor="middle" x="2761.19" y="-433.38" font-family="Times New Roman,serif" font-size="14.00">Normalized count: 485888.00</text>
<text text-anchor="middle" x="2761.19" y="-418.38" font-family="Times New Roman,serif" font-size="14.00">Samples weight: 0.23</text>
</g>
<!-- BB14&#45;&gt;BB16 -->
<g id="edge20" class="edge">
<title>BB14&#45;&gt;BB16</title>
<path fill="none" stroke="black" d="M2590.16,-537.57C2618.35,-522.41 2650.93,-504.89 2680.04,-489.23"/>
<polygon fill="black" stroke="black" points="2681.81,-492.25 2688.96,-484.43 2678.49,-486.09 2681.81,-492.25"/>
</g>
<!-- BB15 -->
<g id="node16" class="node">
<title>BB15</title>
<ellipse fill="none" stroke="black" cx="2761.19" cy="-312.42" rx="127.06" ry="48.17"/>
<text text-anchor="middle" x="2761.19" y="-331.22" font-family="Times New Roman,serif" font-size="14.00">[90..a7)</text>
<text text-anchor="middle" x="2761.19" y="-316.22" font-family="Times New Roman,serif" font-size="14.00">Count: 472306</text>
<text text-anchor="middle" x="2761.19" y="-301.22" font-family="Times New Roman,serif" font-size="14.00">Normalized count: 472306.00</text>
<text text-anchor="middle" x="2761.19" y="-286.22" font-family="Times New Roman,serif" font-size="14.00">Samples weight: 0.22</text>
</g>
<!-- BB15&#45;&gt;BB16 -->
<g id="edge21" class="edge">
<title>BB15&#45;&gt;BB16</title>
<path fill="none" stroke="black" d="M2767.7,-360.52C2767.92,-368.78 2767.99,-377.46 2767.9,-385.97"/>
<polygon fill="black" stroke="black" points="2764.39,-386.16 2767.71,-396.22 2771.39,-386.29 2764.39,-386.16"/>
</g>
<!-- BB16&#45;&gt;BB15 -->
<g id="edge22" class="edge">
<title>BB16&#45;&gt;BB15</title>
<path fill="none" stroke="black" d="M2754.66,-396.22C2754.45,-387.95 2754.39,-379.27 2754.48,-370.77"/>
<polygon fill="black" stroke="black" points="2757.98,-370.59 2754.67,-360.52 2750.98,-370.46 2757.98,-370.59"/>
</g>
<!-- BB16&#45;&gt;BB17 -->
<g id="edge23" class="edge">
<title>BB16&#45;&gt;BB17</title>
<path fill="none" stroke="black" d="M2768.83,-492.94C2770.18,-501.33 2771.6,-510.14 2772.99,-518.76"/>
<polygon fill="black" stroke="black" points="2769.56,-519.44 2774.61,-528.76 2776.47,-518.33 2769.56,-519.44"/>
</g>
<!-- BB17&#45;&gt;BB18 -->
<g id="edge24" class="edge">
<title>BB17&#45;&gt;BB18</title>
<path fill="none" stroke="black" d="M2755.65,-623.74C2731.65,-662.56 2693.51,-717.9 2650.19,-757 2633.28,-772.26 2613.15,-786.1 2593.46,-797.93"/>
<polygon fill="black" stroke="black" points="2591.6,-794.96 2584.75,-803.04 2595.15,-800.99 2591.6,-794.96"/>
</g>
<!-- BB18&#45;&gt;BB13 -->
<g id="edge25" class="edge">
<title>BB18&#45;&gt;BB13</title>
<path fill="none" stroke="black" d="M2512.83,-792.72C2513.46,-784.45 2514.13,-775.77 2514.78,-767.27"/>
<polygon fill="black" stroke="black" points="2518.29,-767.26 2515.57,-757.02 2511.31,-766.73 2518.29,-767.26"/>
</g>
<!-- BB18&#45;&gt;BB19 -->
<g id="edge26" class="edge">
<title>BB18&#45;&gt;BB19</title>
<path fill="none" stroke="black" d="M2432.39,-878.83C2397.52,-895.52 2356.19,-915.3 2320.56,-932.35"/>
<polygon fill="black" stroke="black" points="2318.66,-929.38 2311.15,-936.85 2321.68,-935.69 2318.66,-929.38"/>
</g>
<!-- BB27 -->
<g id="node28" class="node">
<title>BB27</title>
<ellipse fill="none" stroke="black" cx="2228.19" cy="-841.08" rx="122.16" ry="48.17"/>
<text text-anchor="middle" x="2228.19" y="-859.88" font-family="Times New Roman,serif" font-size="14.00">[11b..11f)</text>
<text text-anchor="middle" x="2228.19" y="-844.88" font-family="Times New Roman,serif" font-size="14.00">Count: 16892</text>
<text text-anchor="middle" x="2228.19" y="-829.88" font-family="Times New Roman,serif" font-size="14.00">Normalized count: 16892.00</text>
<text text-anchor="middle" x="2228.19" y="-814.88" font-family="Times New Roman,serif" font-size="14.00">Samples weight: 0.01</text>
</g>
<!-- BB19&#45;&gt;BB27 -->
<g id="edge27" class="edge">
<title>BB19&#45;&gt;BB27</title>
<path fill="none" stroke="black" d="M2233.91,-924.89C2233.34,-916.62 2232.74,-907.94 2232.15,-899.43"/>
<polygon fill="black" stroke="black" points="2235.63,-898.93 2231.44,-889.19 2228.64,-899.41 2235.63,-898.93"/>
</g>
<!-- BB20 -->
<g id="node21" class="node">
<title>BB20</title>
<ellipse fill="none" stroke="black" cx="2219.19" cy="-708.92" rx="122.16" ry="48.17"/>
<text text-anchor="middle" x="2219.19" y="-727.72" font-family="Times New Roman,serif" font-size="14.00">[cb..d6)</text>
<text text-anchor="middle" x="2219.19" y="-712.72" font-family="Times New Roman,serif" font-size="14.00">Count: 16420</text>
<text text-anchor="middle" x="2219.19" y="-697.72" font-family="Times New Roman,serif" font-size="14.00">Normalized count: 16420.00</text>
<text text-anchor="middle" x="2219.19" y="-682.72" font-family="Times New Roman,serif" font-size="14.00">Samples weight: 0.01</text>
</g>
<!-- BB21 -->
<g id="node22" class="node">
<title>BB21</title>
<ellipse fill="none" stroke="black" cx="1956.19" cy="-576.75" rx="122.16" ry="48.17"/>
<text text-anchor="middle" x="1956.19" y="-595.55" font-family="Times New Roman,serif" font-size="14.00">[d6..db)</text>
<text text-anchor="middle" x="1956.19" y="-580.55" font-family="Times New Roman,serif" font-size="14.00">Count: 13016</text>
<text text-anchor="middle" x="1956.19" y="-565.55" font-family="Times New Roman,serif" font-size="14.00">Normalized count: 13016.00</text>
<text text-anchor="middle" x="1956.19" y="-550.55" font-family="Times New Roman,serif" font-size="14.00">Samples weight: 0.01</text>
</g>
<!-- BB20&#45;&gt;BB21 -->
<g id="edge29" class="edge">
<title>BB20&#45;&gt;BB21</title>
<path fill="none" stroke="black" d="M2144.17,-670.79C2111.84,-654.79 2073.88,-636 2040.56,-619.51"/>
<polygon fill="black" stroke="black" points="2041.82,-616.22 2031.3,-614.92 2038.71,-622.5 2041.82,-616.22"/>
</g>
<!-- BB24 -->
<g id="node25" class="node">
<title>BB24</title>
<ellipse fill="none" stroke="black" cx="2219.19" cy="-576.75" rx="122.16" ry="48.17"/>
<text text-anchor="middle" x="2219.19" y="-595.55" font-family="Times New Roman,serif" font-size="14.00">[f8..112)</text>
<text text-anchor="middle" x="2219.19" y="-580.55" font-family="Times New Roman,serif" font-size="14.00">Count: 16420</text>
<text text-anchor="middle" x="2219.19" y="-565.55" font-family="Times New Roman,serif" font-size="14.00">Normalized count: 16420.00</text>
<text text-anchor="middle" x="2219.19" y="-550.55" font-family="Times New Roman,serif" font-size="14.00">Samples weight: 0.01</text>
</g>
<!-- BB20&#45;&gt;BB24 -->
<g id="edge28" class="edge">
<title>BB20&#45;&gt;BB24</title>
<path fill="none" stroke="black" d="M2219.19,-660.55C2219.19,-652.29 2219.19,-643.6 2219.19,-635.1"/>
<polygon fill="black" stroke="black" points="2222.69,-634.86 2219.19,-624.86 2215.69,-634.86 2222.69,-634.86"/>
</g>
<!-- BB23 -->
<g id="node24" class="node">
<title>BB23</title>
<ellipse fill="none" stroke="black" cx="1961.19" cy="-444.58" rx="127.06" ry="48.17"/>
<text text-anchor="middle" x="1961.19" y="-463.38" font-family="Times New Roman,serif" font-size="14.00">[f2..f8)</text>
<text text-anchor="middle" x="1961.19" y="-448.38" font-family="Times New Roman,serif" font-size="14.00">Count: 431370</text>
<text text-anchor="middle" x="1961.19" y="-433.38" font-family="Times New Roman,serif" font-size="14.00">Normalized count: 431370.00</text>
<text text-anchor="middle" x="1961.19" y="-418.38" font-family="Times New Roman,serif" font-size="14.00">Samples weight: 0.20</text>
</g>
<!-- BB21&#45;&gt;BB23 -->
<g id="edge30" class="edge">
<title>BB21&#45;&gt;BB23</title>
<path fill="none" stroke="black" d="M1958.01,-528.39C1958.32,-520.12 1958.66,-511.44 1958.98,-502.93"/>
<polygon fill="black" stroke="black" points="1962.49,-502.82 1959.38,-492.69 1955.5,-502.55 1962.49,-502.82"/>
</g>
<!-- BB22 -->
<g id="node23" class="node">
<title>BB22</title>
<ellipse fill="none" stroke="black" cx="1961.19" cy="-312.42" rx="127.06" ry="48.17"/>
<text text-anchor="middle" x="1961.19" y="-331.22" font-family="Times New Roman,serif" font-size="14.00">[db..f2)</text>
<text text-anchor="middle" x="1961.19" y="-316.22" font-family="Times New Roman,serif" font-size="14.00">Count: 418354</text>
<text text-anchor="middle" x="1961.19" y="-301.22" font-family="Times New Roman,serif" font-size="14.00">Normalized count: 418354.00</text>
<text text-anchor="middle" x="1961.19" y="-286.22" font-family="Times New Roman,serif" font-size="14.00">Samples weight: 0.20</text>
</g>
<!-- BB22&#45;&gt;BB23 -->
<g id="edge31" class="edge">
<title>BB22&#45;&gt;BB23</title>
<path fill="none" stroke="black" d="M1967.7,-360.52C1967.92,-368.78 1967.99,-377.46 1967.9,-385.97"/>
<polygon fill="black" stroke="black" points="1964.39,-386.16 1967.71,-396.22 1971.39,-386.29 1964.39,-386.16"/>
</g>
<!-- BB23&#45;&gt;BB22 -->
<g id="edge32" class="edge">
<title>BB23&#45;&gt;BB22</title>
<path fill="none" stroke="black" d="M1954.66,-396.22C1954.45,-387.95 1954.39,-379.27 1954.48,-370.77"/>
<polygon fill="black" stroke="black" points="1957.98,-370.59 1954.67,-360.52 1950.98,-370.46 1957.98,-370.59"/>
</g>
<!-- BB23&#45;&gt;BB24 -->
<g id="edge33" class="edge">
<title>BB23&#45;&gt;BB24</title>
<path fill="none" stroke="black" d="M2036.28,-483.47C2067.4,-499.17 2103.62,-517.44 2135.58,-533.57"/>
<polygon fill="black" stroke="black" points="2134.4,-536.89 2144.91,-538.27 2137.56,-530.65 2134.4,-536.89"/>
</g>
<!-- BB25 -->
<g id="node26" class="node">
<title>BB25</title>
<ellipse fill="none" stroke="black" cx="2219.19" cy="-444.58" rx="113.27" ry="48.17"/>
<text text-anchor="middle" x="2219.19" y="-463.38" font-family="Times New Roman,serif" font-size="14.00">[112..117)</text>
<text text-anchor="middle" x="2219.19" y="-448.38" font-family="Times New Roman,serif" font-size="14.00">Count: 972</text>
<text text-anchor="middle" x="2219.19" y="-433.38" font-family="Times New Roman,serif" font-size="14.00">Normalized count: 972.00</text>
<text text-anchor="middle" x="2219.19" y="-418.38" font-family="Times New Roman,serif" font-size="14.00">Samples weight: 0.00</text>
</g>
<!-- BB24&#45;&gt;BB25 -->
<g id="edge35" class="edge">
<title>BB24&#45;&gt;BB25</title>
<path fill="none" stroke="black" d="M2219.19,-528.39C2219.19,-520.12 2219.19,-511.44 2219.19,-502.93"/>
<polygon fill="black" stroke="black" points="2222.69,-502.69 2219.19,-492.69 2215.69,-502.69 2222.69,-502.69"/>
</g>
<!-- BB26 -->
<g id="node27" class="node">
<title>BB26</title>
<ellipse fill="none" stroke="black" cx="2472.19" cy="-444.58" rx="122.16" ry="48.17"/>
<text text-anchor="middle" x="2472.19" y="-463.38" font-family="Times New Roman,serif" font-size="14.00">[117..11b)</text>
<text text-anchor="middle" x="2472.19" y="-448.38" font-family="Times New Roman,serif" font-size="14.00">Count: 16420</text>
<text text-anchor="middle" x="2472.19" y="-433.38" font-family="Times New Roman,serif" font-size="14.00">Normalized count: 16420.00</text>
<text text-anchor="middle" x="2472.19" y="-418.38" font-family="Times New Roman,serif" font-size="14.00">Samples weight: 0.01</text>
</g>
<!-- BB24&#45;&gt;BB26 -->
<g id="edge34" class="edge">
<title>BB24&#45;&gt;BB26</title>
<path fill="none" stroke="black" d="M2292.37,-538.1C2322.78,-522.45 2358.23,-504.21 2389.58,-488.08"/>
<polygon fill="black" stroke="black" points="2391.44,-491.06 2398.74,-483.37 2388.24,-484.84 2391.44,-491.06"/>
</g>
<!-- BB25&#45;&gt;BB26 -->
<g id="edge36" class="edge">
<title>BB25&#45;&gt;BB26</title>
<path fill="none" stroke="black" d="M2332.35,-444.58C2334.8,-444.58 2337.26,-444.58 2339.72,-444.58"/>
<polygon fill="black" stroke="black" points="2339.83,-448.08 2349.83,-444.58 2339.83,-441.08 2339.83,-448.08"/>
</g>
<!-- BB26&#45;&gt;BB27 -->
<g id="edge37" class="edge">
<title>BB26&#45;&gt;BB27</title>
<path fill="none" stroke="black" d="M2418.81,-488.29C2407.04,-500.18 2395.83,-513.91 2388.19,-528.67 2340.87,-620.02 2405.61,-670.33 2350.19,-757 2340.29,-772.48 2326.36,-785.81 2311.44,-796.98"/>
<polygon fill="black" stroke="black" points="2309.17,-794.3 2303.06,-802.96 2313.23,-799.99 2309.17,-794.3"/>
</g>
<!-- BB27&#45;&gt;BB20 -->
<g id="edge38" class="edge">
<title>BB27&#45;&gt;BB20</title>
<path fill="none" stroke="black" d="M2224.91,-792.72C2224.34,-784.45 2223.74,-775.77 2223.15,-767.27"/>
<polygon fill="black" stroke="black" points="2226.63,-766.76 2222.44,-757.02 2219.64,-767.24 2226.63,-766.76"/>
</g>
<!-- BB28 -->
<g id="node29" class="node">
<title>BB28</title>
<ellipse fill="none" stroke="black" cx="1693.19" cy="-708.92" rx="113.27" ry="48.17"/>
<text text-anchor="middle" x="1693.19" y="-727.72" font-family="Times New Roman,serif" font-size="14.00">[11f..125)</text>
<text text-anchor="middle" x="1693.19" y="-712.72" font-family="Times New Roman,serif" font-size="14.00">Count: 472</text>
<text text-anchor="middle" x="1693.19" y="-697.72" font-family="Times New Roman,serif" font-size="14.00">Normalized count: 472.00</text>
<text text-anchor="middle" x="1693.19" y="-682.72" font-family="Times New Roman,serif" font-size="14.00">Samples weight: 0.00</text>
</g>
<!-- BB27&#45;&gt;BB28 -->
<g id="edge39" class="edge">
<title>BB27&#45;&gt;BB28</title>
<path fill="none" stroke="black" d="M2125.03,-814.98C2031.78,-792.3 1895.01,-759.02 1800.49,-736.02"/>
<polygon fill="black" stroke="black" points="1801.16,-732.58 1790.61,-733.62 1799.5,-739.39 1801.16,-732.58"/>
</g>
<!-- BB29 -->
<g id="node30" class="node">
<title>BB29</title>
<ellipse fill="none" stroke="black" cx="1693.19" cy="-576.75" rx="113.27" ry="48.17"/>
<text text-anchor="middle" x="1693.19" y="-595.55" font-family="Times New Roman,serif" font-size="14.00">[125..12a)</text>
<text text-anchor="middle" x="1693.19" y="-580.55" font-family="Times New Roman,serif" font-size="14.00">Count: 461</text>
<text text-anchor="middle" x="1693.19" y="-565.55" font-family="Times New Roman,serif" font-size="14.00">Normalized count: 461.00</text>
<text text-anchor="middle" x="1693.19" y="-550.55" font-family="Times New Roman,serif" font-size="14.00">Samples weight: 0.00</text>
</g>
<!-- BB28&#45;&gt;BB29 -->
<g id="edge41" class="edge">
<title>BB28&#45;&gt;BB29</title>
<path fill="none" stroke="black" d="M1693.19,-660.55C1693.19,-652.29 1693.19,-643.6 1693.19,-635.1"/>
<polygon fill="black" stroke="black" points="1696.69,-634.86 1693.19,-624.86 1689.69,-634.86 1696.69,-634.86"/>
</g>
<!-- BB33 -->
<g id="node34" class="node">
<title>BB33</title>
<ellipse fill="none" stroke="black" cx="1420.19" cy="-576.75" rx="113.27" ry="48.17"/>
<text text-anchor="middle" x="1420.19" y="-595.55" font-family="Times New Roman,serif" font-size="14.00">[17a..192)</text>
<text text-anchor="middle" x="1420.19" y="-580.55" font-family="Times New Roman,serif" font-size="14.00">Count: 472</text>
<text text-anchor="middle" x="1420.19" y="-565.55" font-family="Times New Roman,serif" font-size="14.00">Normalized count: 472.00</text>
<text text-anchor="middle" x="1420.19" y="-550.55" font-family="Times New Roman,serif" font-size="14.00">Samples weight: 0.00</text>
</g>
<!-- BB28&#45;&gt;BB33 -->
<g id="edge40" class="edge">
<title>BB28&#45;&gt;BB33</title>
<path fill="none" stroke="black" d="M1618.95,-672.52C1583.29,-655.52 1540.41,-635.07 1503.62,-617.53"/>
<polygon fill="black" stroke="black" points="1504.94,-614.28 1494.41,-613.14 1501.93,-620.6 1504.94,-614.28"/>
</g>
<!-- BB31 -->
<g id="node32" class="node">
<title>BB31</title>
<ellipse fill="none" stroke="black" cx="1693.19" cy="-444.58" rx="122.16" ry="48.17"/>
<text text-anchor="middle" x="1693.19" y="-463.38" font-family="Times New Roman,serif" font-size="14.00">[14e..153)</text>
<text text-anchor="middle" x="1693.19" y="-448.38" font-family="Times New Roman,serif" font-size="14.00">Count: 49787</text>
<text text-anchor="middle" x="1693.19" y="-433.38" font-family="Times New Roman,serif" font-size="14.00">Normalized count: 49787.00</text>
<text text-anchor="middle" x="1693.19" y="-418.38" font-family="Times New Roman,serif" font-size="14.00">Samples weight: 0.02</text>
</g>
<!-- BB29&#45;&gt;BB31 -->
<g id="edge42" class="edge">
<title>BB29&#45;&gt;BB31</title>
<path fill="none" stroke="black" d="M1693.19,-528.39C1693.19,-520.12 1693.19,-511.44 1693.19,-502.93"/>
<polygon fill="black" stroke="black" points="1696.69,-502.69 1693.19,-492.69 1689.69,-502.69 1696.69,-502.69"/>
</g>
<!-- BB30 -->
<g id="node31" class="node">
<title>BB30</title>
<ellipse fill="none" stroke="black" cx="1693.19" cy="-312.42" rx="122.16" ry="48.17"/>
<text text-anchor="middle" x="1693.19" y="-331.22" font-family="Times New Roman,serif" font-size="14.00">[12a..14e)</text>
<text text-anchor="middle" x="1693.19" y="-316.22" font-family="Times New Roman,serif" font-size="14.00">Count: 49326</text>
<text text-anchor="middle" x="1693.19" y="-301.22" font-family="Times New Roman,serif" font-size="14.00">Normalized count: 49326.00</text>
<text text-anchor="middle" x="1693.19" y="-286.22" font-family="Times New Roman,serif" font-size="14.00">Samples weight: 0.02</text>
</g>
<!-- BB30&#45;&gt;BB31 -->
<g id="edge43" class="edge">
<title>BB30&#45;&gt;BB31</title>
<path fill="none" stroke="black" d="M1699.7,-360.52C1699.92,-368.78 1699.99,-377.46 1699.9,-385.97"/>
<polygon fill="black" stroke="black" points="1696.39,-386.16 1699.71,-396.22 1703.39,-386.29 1696.39,-386.16"/>
</g>
<!-- BB31&#45;&gt;BB30 -->
<g id="edge44" class="edge">
<title>BB31&#45;&gt;BB30</title>
<path fill="none" stroke="black" d="M1686.66,-396.22C1686.45,-387.95 1686.39,-379.27 1686.48,-370.77"/>
<polygon fill="black" stroke="black" points="1689.98,-370.59 1686.67,-360.52 1682.98,-370.46 1689.98,-370.59"/>
</g>
<!-- BB32 -->
<g id="node33" class="node">
<title>BB32</title>
<ellipse fill="none" stroke="black" cx="1440.19" cy="-312.42" rx="113.27" ry="48.17"/>
<text text-anchor="middle" x="1440.19" y="-331.22" font-family="Times New Roman,serif" font-size="14.00">[153..17a)</text>
<text text-anchor="middle" x="1440.19" y="-316.22" font-family="Times New Roman,serif" font-size="14.00">Count: 461</text>
<text text-anchor="middle" x="1440.19" y="-301.22" font-family="Times New Roman,serif" font-size="14.00">Normalized count: 461.00</text>
<text text-anchor="middle" x="1440.19" y="-286.22" font-family="Times New Roman,serif" font-size="14.00">Samples weight: 0.00</text>
</g>
<!-- BB31&#45;&gt;BB32 -->
<g id="edge45" class="edge">
<title>BB31&#45;&gt;BB32</title>
<path fill="none" stroke="black" d="M1620.01,-405.93C1588.93,-389.94 1552.59,-371.25 1520.75,-354.86"/>
<polygon fill="black" stroke="black" points="1521.95,-351.55 1511.46,-350.08 1518.75,-357.77 1521.95,-351.55"/>
</g>
<!-- BB32&#45;&gt;BB33 -->
<g id="edge46" class="edge">
<title>BB32&#45;&gt;BB33</title>
<path fill="none" stroke="black" d="M1481.71,-357.33C1490.49,-369.18 1498.51,-382.6 1503.19,-396.5 1516.81,-437.01 1519.53,-453.17 1503.19,-492.67 1498.09,-504.98 1490.19,-516.41 1481.25,-526.63"/>
<polygon fill="black" stroke="black" points="1478.47,-524.48 1474.23,-534.19 1483.6,-529.23 1478.47,-524.48"/>
</g>
<!-- BB34 -->
<g id="node35" class="node">
<title>BB34</title>
<ellipse fill="none" stroke="black" cx="1391.19" cy="-444.58" rx="103.48" ry="48.17"/>
<text text-anchor="middle" x="1391.19" y="-463.38" font-family="Times New Roman,serif" font-size="14.00">[192..19b)</text>
<text text-anchor="middle" x="1391.19" y="-448.38" font-family="Times New Roman,serif" font-size="14.00">Count: 0</text>
<text text-anchor="middle" x="1391.19" y="-433.38" font-family="Times New Roman,serif" font-size="14.00">Normalized count: 0.00</text>
<text text-anchor="middle" x="1391.19" y="-418.38" font-family="Times New Roman,serif" font-size="14.00">Samples weight: 0.00</text>
</g>
<!-- BB33&#45;&gt;BB34 -->
<g id="edge48" class="edge">
<title>BB33&#45;&gt;BB34</title>
<path fill="none" stroke="black" d="M1409.72,-528.76C1407.81,-520.18 1405.8,-511.16 1403.83,-502.34"/>
<polygon fill="black" stroke="black" points="1407.23,-501.51 1401.64,-492.51 1400.4,-503.03 1407.23,-501.51"/>
</g>
<!-- BB35 -->
<g id="node36" class="node">
<title>BB35</title>
<ellipse fill="none" stroke="black" cx="1157.19" cy="-444.58" rx="113.27" ry="48.17"/>
<text text-anchor="middle" x="1157.19" y="-463.38" font-family="Times New Roman,serif" font-size="14.00">[19b..1a2)</text>
<text text-anchor="middle" x="1157.19" y="-448.38" font-family="Times New Roman,serif" font-size="14.00">Count: 472</text>
<text text-anchor="middle" x="1157.19" y="-433.38" font-family="Times New Roman,serif" font-size="14.00">Normalized count: 472.00</text>
<text text-anchor="middle" x="1157.19" y="-418.38" font-family="Times New Roman,serif" font-size="14.00">Samples weight: 0.00</text>
</g>
<!-- BB33&#45;&gt;BB35 -->
<g id="edge47" class="edge">
<title>BB33&#45;&gt;BB35</title>
<path fill="none" stroke="black" d="M1347.63,-539.84C1313.99,-523.19 1273.86,-503.33 1239.14,-486.14"/>
<polygon fill="black" stroke="black" points="1240.48,-482.9 1229.97,-481.6 1237.38,-489.18 1240.48,-482.9"/>
</g>
<!-- BB34&#45;&gt;BB35 -->
<g id="edge49" class="edge">
<title>BB34&#45;&gt;BB35</title>
<path fill="none" stroke="black" d="M1287.5,-444.58C1285.2,-444.58 1282.9,-444.58 1280.61,-444.58"/>
<polygon fill="black" stroke="black" points="1280.53,-441.08 1270.53,-444.58 1280.53,-448.08 1280.53,-441.08"/>
</g>
<!-- BB36 -->
<g id="node37" class="node">
<title>BB36</title>
<ellipse fill="none" stroke="black" cx="1196.19" cy="-312.42" rx="113.27" ry="48.17"/>
<text text-anchor="middle" x="1196.19" y="-331.22" font-family="Times New Roman,serif" font-size="14.00">[1a2..1bb)</text>
<text text-anchor="middle" x="1196.19" y="-316.22" font-family="Times New Roman,serif" font-size="14.00">Count: 291</text>
<text text-anchor="middle" x="1196.19" y="-301.22" font-family="Times New Roman,serif" font-size="14.00">Normalized count: 291.00</text>
<text text-anchor="middle" x="1196.19" y="-286.22" font-family="Times New Roman,serif" font-size="14.00">Samples weight: 0.00</text>
</g>
<!-- BB35&#45;&gt;BB36 -->
<g id="edge51" class="edge">
<title>BB35&#45;&gt;BB36</title>
<path fill="none" stroke="black" d="M1171.27,-396.59C1173.84,-388.02 1176.54,-378.99 1179.18,-370.17"/>
<polygon fill="black" stroke="black" points="1182.61,-370.92 1182.13,-360.34 1175.91,-368.92 1182.61,-370.92"/>
</g>
<!-- BB39 -->
<g id="node40" class="node">
<title>BB39</title>
<ellipse fill="none" stroke="black" cx="952.19" cy="-312.42" rx="113.27" ry="48.17"/>
<text text-anchor="middle" x="952.19" y="-331.22" font-family="Times New Roman,serif" font-size="14.00">[1d1..1d7)</text>
<text text-anchor="middle" x="952.19" y="-316.22" font-family="Times New Roman,serif" font-size="14.00">Count: 472</text>
<text text-anchor="middle" x="952.19" y="-301.22" font-family="Times New Roman,serif" font-size="14.00">Normalized count: 472.00</text>
<text text-anchor="middle" x="952.19" y="-286.22" font-family="Times New Roman,serif" font-size="14.00">Samples weight: 0.00</text>
</g>
<!-- BB35&#45;&gt;BB39 -->
<g id="edge50" class="edge">
<title>BB35&#45;&gt;BB39</title>
<path fill="none" stroke="black" d="M1095.12,-404.18C1072.24,-389.65 1046.16,-373.09 1022.6,-358.12"/>
<polygon fill="black" stroke="black" points="1024.36,-355.1 1014.04,-352.69 1020.61,-361 1024.36,-355.1"/>
</g>
<!-- BB38 -->
<g id="node39" class="node">
<title>BB38</title>
<ellipse fill="none" stroke="black" cx="1074.19" cy="-180.25" rx="122.16" ry="48.17"/>
<text text-anchor="middle" x="1074.19" y="-199.05" font-family="Times New Roman,serif" font-size="14.00">[1cd..1d1)</text>
<text text-anchor="middle" x="1074.19" y="-184.05" font-family="Times New Roman,serif" font-size="14.00">Count: 14269</text>
<text text-anchor="middle" x="1074.19" y="-169.05" font-family="Times New Roman,serif" font-size="14.00">Normalized count: 14269.00</text>
<text text-anchor="middle" x="1074.19" y="-154.05" font-family="Times New Roman,serif" font-size="14.00">Samples weight: 0.01</text>
</g>
<!-- BB36&#45;&gt;BB38 -->
<g id="edge52" class="edge">
<title>BB36&#45;&gt;BB38</title>
<path fill="none" stroke="black" d="M1154.88,-267.35C1144.56,-256.34 1133.4,-244.43 1122.76,-233.08"/>
<polygon fill="black" stroke="black" points="1125.26,-230.62 1115.86,-225.72 1120.15,-235.41 1125.26,-230.62"/>
</g>
<!-- BB37 -->
<g id="node38" class="node">
<title>BB37</title>
<ellipse fill="none" stroke="black" cx="1074.19" cy="-48.08" rx="122.16" ry="48.17"/>
<text text-anchor="middle" x="1074.19" y="-66.88" font-family="Times New Roman,serif" font-size="14.00">[1bb..1cd)</text>
<text text-anchor="middle" x="1074.19" y="-51.88" font-family="Times New Roman,serif" font-size="14.00">Count: 13978</text>
<text text-anchor="middle" x="1074.19" y="-36.88" font-family="Times New Roman,serif" font-size="14.00">Normalized count: 13978.00</text>
<text text-anchor="middle" x="1074.19" y="-21.88" font-family="Times New Roman,serif" font-size="14.00">Samples weight: 0.01</text>
</g>
<!-- BB37&#45;&gt;BB38 -->
<g id="edge53" class="edge">
<title>BB37&#45;&gt;BB38</title>
<path fill="none" stroke="black" d="M1080.7,-96.19C1080.92,-104.45 1080.99,-113.13 1080.9,-121.64"/>
<polygon fill="black" stroke="black" points="1077.39,-121.83 1080.71,-131.89 1084.39,-121.95 1077.39,-121.83"/>
</g>
<!-- BB38&#45;&gt;BB37 -->
<g id="edge54" class="edge">
<title>BB38&#45;&gt;BB37</title>
<path fill="none" stroke="black" d="M1067.66,-131.89C1067.45,-123.62 1067.39,-114.94 1067.48,-106.43"/>
<polygon fill="black" stroke="black" points="1070.98,-106.26 1067.67,-96.19 1063.98,-106.12 1070.98,-106.26"/>
</g>
<!-- BB38&#45;&gt;BB39 -->
<g id="edge55" class="edge">
<title>BB38&#45;&gt;BB39</title>
<path fill="none" stroke="black" d="M1032.51,-225.72C1022.17,-236.75 1011,-248.66 1000.38,-260"/>
<polygon fill="black" stroke="black" points="997.78,-257.66 993.49,-267.35 1002.88,-262.45 997.78,-257.66"/>
</g>
<!-- BB39&#45;&gt;BB40 -->
<g id="edge56" class="edge">
<title>BB39&#45;&gt;BB40</title>
<path fill="none" stroke="black" d="M958.55,-360.71C965.05,-413.16 974.19,-500.34 974.19,-575.75 974.19,-974.25 974.19,-974.25 974.19,-974.25 974.19,-1054.36 969.08,-1077.1 993.19,-1153.5 996.2,-1163.05 1000.37,-1172.75 1004.99,-1181.98"/>
<polygon fill="black" stroke="black" points="1001.99,-1183.8 1009.72,-1191.04 1008.19,-1180.56 1001.99,-1183.8"/>
</g>
<!-- BB40&#45;&gt;BB11 -->
<g id="edge57" class="edge">
<title>BB40&#45;&gt;BB11</title>
<path fill="none" stroke="black" d="M1148.41,-1224.71C1372.93,-1200.32 1884.7,-1144.71 2117.69,-1119.4"/>
<polygon fill="black" stroke="black" points="2118.33,-1122.85 2127.89,-1118.29 2117.57,-1115.89 2118.33,-1122.85"/>
</g>
<!-- BB41 -->
<g id="node42" class="node">
<title>BB41</title>
<ellipse fill="none" stroke="black" cx="1105.19" cy="-1105.42" rx="103.48" ry="48.17"/>
<text text-anchor="middle" x="1105.19" y="-1124.22" font-family="Times New Roman,serif" font-size="14.00">[1df..1e1)</text>
<text text-anchor="middle" x="1105.19" y="-1109.22" font-family="Times New Roman,serif" font-size="14.00">Count: 1</text>
<text text-anchor="middle" x="1105.19" y="-1094.22" font-family="Times New Roman,serif" font-size="14.00">Normalized count: 1.00</text>
<text text-anchor="middle" x="1105.19" y="-1079.22" font-family="Times New Roman,serif" font-size="14.00">Samples weight: 0.00</text>
</g>
<!-- BB40&#45;&gt;BB41 -->
<g id="edge58" class="edge">
<title>BB40&#45;&gt;BB41</title>
<path fill="none" stroke="black" d="M1062.64,-1190.32C1067.36,-1181.02 1072.36,-1171.16 1077.21,-1161.58"/>
<polygon fill="black" stroke="black" points="1080.41,-1163.03 1081.81,-1152.52 1074.16,-1159.86 1080.41,-1163.03"/>
</g>
</g>
</svg>
