<?xml version="1.0" encoding="UTF-8" standalone="no"?>
<!DOCTYPE svg PUBLIC "-//W3C//DTD SVG 1.1//EN"
 "http://www.w3.org/Graphics/SVG/1.1/DTD/svg11.dtd">
<!-- Generated by graphviz version 2.47.0 (20210316.0004)
 -->
<!-- Title: G Pages: 1 -->
<svg width="1204pt" height="897pt"
 viewBox="0.00 0.00 1204.42 897.17" xmlns="http://www.w3.org/2000/svg" xmlns:xlink="http://www.w3.org/1999/xlink">
<g id="graph0" class="graph" transform="scale(1 1) rotate(0) translate(4 893.17)">
<title>G</title>
<polygon fill="white" stroke="transparent" points="-4,4 -4,-893.17 1200.42,-893.17 1200.42,4 -4,4"/>
<!-- BB0 -->
<g id="node1" class="node">
<title>BB0</title>
<ellipse fill="none" stroke="black" cx="738.19" cy="-841.08" rx="103.48" ry="48.17"/>
<text text-anchor="middle" x="738.19" y="-859.88" font-family="Times New Roman,serif" font-size="14.00">[0..5)</text>
<text text-anchor="middle" x="738.19" y="-844.88" font-family="Times New Roman,serif" font-size="14.00">Count: 2</text>
<text text-anchor="middle" x="738.19" y="-829.88" font-family="Times New Roman,serif" font-size="14.00">Normalized count: 1.00</text>
<text text-anchor="middle" x="738.19" y="-814.88" font-family="Times New Roman,serif" font-size="14.00">Samples weight: 0.01</text>
</g>
<!-- BB11 -->
<g id="node12" class="node">
<title>BB11</title>
<ellipse fill="none" stroke="black" cx="738.19" cy="-708.92" rx="103.48" ry="48.17"/>
<text text-anchor="middle" x="738.19" y="-727.72" font-family="Times New Roman,serif" font-size="14.00">[58..5e)</text>
<text text-anchor="middle" x="738.19" y="-712.72" font-family="Times New Roman,serif" font-size="14.00">Count: 4</text>
<text text-anchor="middle" x="738.19" y="-697.72" font-family="Times New Roman,serif" font-size="14.00">Normalized count: 2.00</text>
<text text-anchor="middle" x="738.19" y="-682.72" font-family="Times New Roman,serif" font-size="14.00">Samples weight: 0.02</text>
</g>
<!-- BB0&#45;&gt;BB11 -->
<g id="edge1" class="edge">
<title>BB0&#45;&gt;BB11</title>
<path fill="none" stroke="black" d="M738.19,-792.72C738.19,-784.45 738.19,-775.77 738.19,-767.27"/>
<polygon fill="black" stroke="black" points="741.69,-767.02 738.19,-757.02 734.69,-767.02 741.69,-767.02"/>
</g>
<!-- BB1 -->
<g id="node2" class="node">
<title>BB1</title>
<ellipse fill="none" stroke="black" cx="540.19" cy="-576.75" rx="103.48" ry="48.17"/>
<text text-anchor="middle" x="540.19" y="-595.55" font-family="Times New Roman,serif" font-size="14.00">[5..14)</text>
<text text-anchor="middle" x="540.19" y="-580.55" font-family="Times New Roman,serif" font-size="14.00">Count: 2</text>
<text text-anchor="middle" x="540.19" y="-565.55" font-family="Times New Roman,serif" font-size="14.00">Normalized count: 1.00</text>
<text text-anchor="middle" x="540.19" y="-550.55" font-family="Times New Roman,serif" font-size="14.00">Samples weight: 0.01</text>
</g>
<!-- BB6 -->
<g id="node7" class="node">
<title>BB6</title>
<ellipse fill="none" stroke="black" cx="473.19" cy="-444.58" rx="103.48" ry="48.17"/>
<text text-anchor="middle" x="473.19" y="-463.38" font-family="Times New Roman,serif" font-size="14.00">[33..39)</text>
<text text-anchor="middle" x="473.19" y="-448.38" font-family="Times New Roman,serif" font-size="14.00">Count: 3</text>
<text text-anchor="middle" x="473.19" y="-433.38" font-family="Times New Roman,serif" font-size="14.00">Normalized count: 1.50</text>
<text text-anchor="middle" x="473.19" y="-418.38" font-family="Times New Roman,serif" font-size="14.00">Samples weight: 0.02</text>
</g>
<!-- BB1&#45;&gt;BB6 -->
<g id="edge2" class="edge">
<title>BB1&#45;&gt;BB6</title>
<path fill="none" stroke="black" d="M516.57,-529.86C511.66,-520.33 506.45,-510.2 501.4,-500.39"/>
<polygon fill="black" stroke="black" points="504.51,-498.79 496.82,-491.5 498.29,-501.99 504.51,-498.79"/>
</g>
<!-- BB2 -->
<g id="node3" class="node">
<title>BB2</title>
<ellipse fill="none" stroke="black" cx="204.19" cy="-312.42" rx="103.48" ry="48.17"/>
<text text-anchor="middle" x="204.19" y="-331.22" font-family="Times New Roman,serif" font-size="14.00">[14..18)</text>
<text text-anchor="middle" x="204.19" y="-316.22" font-family="Times New Roman,serif" font-size="14.00">Count: 1</text>
<text text-anchor="middle" x="204.19" y="-301.22" font-family="Times New Roman,serif" font-size="14.00">Normalized count: 0.50</text>
<text text-anchor="middle" x="204.19" y="-286.22" font-family="Times New Roman,serif" font-size="14.00">Samples weight: 0.01</text>
</g>
<!-- BB4 -->
<g id="node5" class="node">
<title>BB4</title>
<ellipse fill="none" stroke="black" cx="155.19" cy="-180.25" rx="108.38" ry="48.17"/>
<text text-anchor="middle" x="155.19" y="-199.05" font-family="Times New Roman,serif" font-size="14.00">[28..2d)</text>
<text text-anchor="middle" x="155.19" y="-184.05" font-family="Times New Roman,serif" font-size="14.00">Count: 71</text>
<text text-anchor="middle" x="155.19" y="-169.05" font-family="Times New Roman,serif" font-size="14.00">Normalized count: 35.50</text>
<text text-anchor="middle" x="155.19" y="-154.05" font-family="Times New Roman,serif" font-size="14.00">Samples weight: 0.43</text>
</g>
<!-- BB2&#45;&gt;BB4 -->
<g id="edge3" class="edge">
<title>BB2&#45;&gt;BB4</title>
<path fill="none" stroke="black" d="M186.64,-264.79C183.29,-255.91 179.76,-246.53 176.32,-237.39"/>
<polygon fill="black" stroke="black" points="179.58,-236.11 172.78,-227.99 173.03,-238.58 179.58,-236.11"/>
</g>
<!-- BB3 -->
<g id="node4" class="node">
<title>BB3</title>
<ellipse fill="none" stroke="black" cx="108.19" cy="-48.08" rx="108.38" ry="48.17"/>
<text text-anchor="middle" x="108.19" y="-66.88" font-family="Times New Roman,serif" font-size="14.00">[18..28)</text>
<text text-anchor="middle" x="108.19" y="-51.88" font-family="Times New Roman,serif" font-size="14.00">Count: 70</text>
<text text-anchor="middle" x="108.19" y="-36.88" font-family="Times New Roman,serif" font-size="14.00">Normalized count: 35.00</text>
<text text-anchor="middle" x="108.19" y="-21.88" font-family="Times New Roman,serif" font-size="14.00">Samples weight: 0.42</text>
</g>
<!-- BB3&#45;&gt;BB4 -->
<g id="edge4" class="edge">
<title>BB3&#45;&gt;BB4</title>
<path fill="none" stroke="black" d="M131.3,-95.14C134.78,-104.07 138.27,-113.53 141.49,-122.76"/>
<polygon fill="black" stroke="black" points="138.19,-123.93 144.73,-132.26 144.81,-121.66 138.19,-123.93"/>
</g>
<!-- BB4&#45;&gt;BB3 -->
<g id="edge5" class="edge">
<title>BB4&#45;&gt;BB3</title>
<path fill="none" stroke="black" d="M131.99,-132.99C128.57,-124.19 125.14,-114.89 121.97,-105.81"/>
<polygon fill="black" stroke="black" points="125.19,-104.4 118.64,-96.07 118.56,-106.67 125.19,-104.4"/>
</g>
<!-- BB5 -->
<g id="node6" class="node">
<title>BB5</title>
<ellipse fill="none" stroke="black" cx="337.19" cy="-48.08" rx="103.48" ry="48.17"/>
<text text-anchor="middle" x="337.19" y="-66.88" font-family="Times New Roman,serif" font-size="14.00">[2d..33)</text>
<text text-anchor="middle" x="337.19" y="-51.88" font-family="Times New Roman,serif" font-size="14.00">Count: 1</text>
<text text-anchor="middle" x="337.19" y="-36.88" font-family="Times New Roman,serif" font-size="14.00">Normalized count: 0.50</text>
<text text-anchor="middle" x="337.19" y="-21.88" font-family="Times New Roman,serif" font-size="14.00">Samples weight: 0.01</text>
</g>
<!-- BB4&#45;&gt;BB5 -->
<g id="edge6" class="edge">
<title>BB4&#45;&gt;BB5</title>
<path fill="none" stroke="black" d="M211.28,-139.13C230.92,-125.08 253.13,-109.2 273.36,-94.74"/>
<polygon fill="black" stroke="black" points="275.5,-97.51 281.59,-88.84 271.42,-91.81 275.5,-97.51"/>
</g>
<!-- BB5&#45;&gt;BB6 -->
<g id="edge7" class="edge">
<title>BB5&#45;&gt;BB6</title>
<path fill="none" stroke="black" d="M346.98,-96.16C360.7,-158.18 388.29,-269.99 426.19,-360.5 430.17,-370 434.98,-379.78 439.99,-389.15"/>
<polygon fill="black" stroke="black" points="436.96,-390.9 444.84,-397.98 443.1,-387.53 436.96,-390.9"/>
</g>
<!-- BB6&#45;&gt;BB2 -->
<g id="edge8" class="edge">
<title>BB6&#45;&gt;BB2</title>
<path fill="none" stroke="black" d="M402.51,-409.38C366.2,-391.81 321.82,-370.34 284.25,-352.16"/>
<polygon fill="black" stroke="black" points="285.38,-348.82 274.86,-347.61 282.34,-355.12 285.38,-348.82"/>
</g>
<!-- BB7 -->
<g id="node8" class="node">
<title>BB7</title>
<ellipse fill="none" stroke="black" cx="538.19" cy="-312.42" rx="103.48" ry="48.17"/>
<text text-anchor="middle" x="538.19" y="-331.22" font-family="Times New Roman,serif" font-size="14.00">[39..3e)</text>
<text text-anchor="middle" x="538.19" y="-316.22" font-family="Times New Roman,serif" font-size="14.00">Count: 2</text>
<text text-anchor="middle" x="538.19" y="-301.22" font-family="Times New Roman,serif" font-size="14.00">Normalized count: 1.00</text>
<text text-anchor="middle" x="538.19" y="-286.22" font-family="Times New Roman,serif" font-size="14.00">Samples weight: 0.01</text>
</g>
<!-- BB6&#45;&gt;BB7 -->
<g id="edge9" class="edge">
<title>BB6&#45;&gt;BB7</title>
<path fill="none" stroke="black" d="M496.1,-397.69C500.81,-388.26 505.82,-378.24 510.67,-368.53"/>
<polygon fill="black" stroke="black" points="513.92,-369.84 515.26,-359.33 507.66,-366.72 513.92,-369.84"/>
</g>
<!-- BB9 -->
<g id="node10" class="node">
<title>BB9</title>
<ellipse fill="none" stroke="black" cx="561.19" cy="-180.25" rx="103.48" ry="48.17"/>
<text text-anchor="middle" x="561.19" y="-199.05" font-family="Times New Roman,serif" font-size="14.00">[4c..52)</text>
<text text-anchor="middle" x="561.19" y="-184.05" font-family="Times New Roman,serif" font-size="14.00">Count: 2</text>
<text text-anchor="middle" x="561.19" y="-169.05" font-family="Times New Roman,serif" font-size="14.00">Normalized count: 1.00</text>
<text text-anchor="middle" x="561.19" y="-154.05" font-family="Times New Roman,serif" font-size="14.00">Samples weight: 0.01</text>
</g>
<!-- BB7&#45;&gt;BB9 -->
<g id="edge10" class="edge">
<title>BB7&#45;&gt;BB9</title>
<path fill="none" stroke="black" d="M546.49,-264.42C547.97,-256.05 549.53,-247.24 551.05,-238.62"/>
<polygon fill="black" stroke="black" points="554.53,-239.07 552.82,-228.61 547.63,-237.85 554.53,-239.07"/>
</g>
<!-- BB8 -->
<g id="node9" class="node">
<title>BB8</title>
<ellipse fill="none" stroke="black" cx="561.19" cy="-48.08" rx="103.48" ry="48.17"/>
<text text-anchor="middle" x="561.19" y="-66.88" font-family="Times New Roman,serif" font-size="14.00">[3e..4c)</text>
<text text-anchor="middle" x="561.19" y="-51.88" font-family="Times New Roman,serif" font-size="14.00">Count: 0</text>
<text text-anchor="middle" x="561.19" y="-36.88" font-family="Times New Roman,serif" font-size="14.00">Normalized count: 0.00</text>
<text text-anchor="middle" x="561.19" y="-21.88" font-family="Times New Roman,serif" font-size="14.00">Samples weight: 0.00</text>
</g>
<!-- BB8&#45;&gt;BB9 -->
<g id="edge11" class="edge">
<title>BB8&#45;&gt;BB9</title>
<path fill="none" stroke="black" d="M567.71,-96.44C567.93,-104.74 567.99,-113.45 567.89,-121.98"/>
<polygon fill="black" stroke="black" points="564.39,-122.19 567.7,-132.26 571.39,-122.32 564.39,-122.19"/>
</g>
<!-- BB9&#45;&gt;BB8 -->
<g id="edge12" class="edge">
<title>BB9&#45;&gt;BB8</title>
<path fill="none" stroke="black" d="M554.67,-132.26C554.45,-123.88 554.38,-115.07 554.48,-106.45"/>
<polygon fill="black" stroke="black" points="557.98,-106.51 554.66,-96.44 550.98,-106.38 557.98,-106.51"/>
</g>
<!-- BB10 -->
<g id="node11" class="node">
<title>BB10</title>
<ellipse fill="none" stroke="black" cx="785.19" cy="-48.08" rx="103.48" ry="48.17"/>
<text text-anchor="middle" x="785.19" y="-66.88" font-family="Times New Roman,serif" font-size="14.00">[52..58)</text>
<text text-anchor="middle" x="785.19" y="-51.88" font-family="Times New Roman,serif" font-size="14.00">Count: 2</text>
<text text-anchor="middle" x="785.19" y="-36.88" font-family="Times New Roman,serif" font-size="14.00">Normalized count: 1.00</text>
<text text-anchor="middle" x="785.19" y="-21.88" font-family="Times New Roman,serif" font-size="14.00">Samples weight: 0.01</text>
</g>
<!-- BB9&#45;&gt;BB10 -->
<g id="edge13" class="edge">
<title>BB9&#45;&gt;BB10</title>
<path fill="none" stroke="black" d="M624.78,-142.3C652.21,-126.36 684.43,-107.63 712.78,-91.16"/>
<polygon fill="black" stroke="black" points="714.55,-94.18 721.44,-86.13 711.03,-88.13 714.55,-94.18"/>
</g>
<!-- BB10&#45;&gt;BB11 -->
<g id="edge14" class="edge">
<title>BB10&#45;&gt;BB11</title>
<path fill="none" stroke="black" d="M771.59,-96.02C757.71,-148.16 738.19,-235.07 738.19,-311.42 738.19,-445.58 738.19,-445.58 738.19,-445.58 738.19,-516.03 738.19,-597.13 738.19,-650.28"/>
<polygon fill="black" stroke="black" points="734.69,-650.52 738.19,-660.52 741.69,-650.52 734.69,-650.52"/>
</g>
<!-- BB11&#45;&gt;BB1 -->
<g id="edge15" class="edge">
<title>BB11&#45;&gt;BB1</title>
<path fill="none" stroke="black" d="M679.32,-669.21C656.78,-654.4 630.9,-637.38 607.62,-622.08"/>
<polygon fill="black" stroke="black" points="609.45,-619.1 599.17,-616.53 605.61,-624.94 609.45,-619.1"/>
</g>
<!-- BB12 -->
<g id="node13" class="node">
<title>BB12</title>
<ellipse fill="none" stroke="black" cx="869.19" cy="-576.75" rx="103.48" ry="48.17"/>
<text text-anchor="middle" x="869.19" y="-595.55" font-family="Times New Roman,serif" font-size="14.00">[5e..69)</text>
<text text-anchor="middle" x="869.19" y="-580.55" font-family="Times New Roman,serif" font-size="14.00">Count: 2</text>
<text text-anchor="middle" x="869.19" y="-565.55" font-family="Times New Roman,serif" font-size="14.00">Normalized count: 1.00</text>
<text text-anchor="middle" x="869.19" y="-550.55" font-family="Times New Roman,serif" font-size="14.00">Samples weight: 0.01</text>
</g>
<!-- BB11&#45;&gt;BB12 -->
<g id="edge16" class="edge">
<title>BB11&#45;&gt;BB12</title>
<path fill="none" stroke="black" d="M781.44,-664.93C793.41,-653.05 806.49,-640.05 818.82,-627.8"/>
<polygon fill="black" stroke="black" points="821.35,-630.22 825.98,-620.69 816.41,-625.25 821.35,-630.22"/>
</g>
<!-- BB14 -->
<g id="node15" class="node">
<title>BB14</title>
<ellipse fill="none" stroke="black" cx="869.19" cy="-444.58" rx="103.48" ry="48.17"/>
<text text-anchor="middle" x="869.19" y="-463.38" font-family="Times New Roman,serif" font-size="14.00">[83..89)</text>
<text text-anchor="middle" x="869.19" y="-448.38" font-family="Times New Roman,serif" font-size="14.00">Count: 2</text>
<text text-anchor="middle" x="869.19" y="-433.38" font-family="Times New Roman,serif" font-size="14.00">Normalized count: 1.00</text>
<text text-anchor="middle" x="869.19" y="-418.38" font-family="Times New Roman,serif" font-size="14.00">Samples weight: 0.01</text>
</g>
<!-- BB12&#45;&gt;BB14 -->
<g id="edge17" class="edge">
<title>BB12&#45;&gt;BB14</title>
<path fill="none" stroke="black" d="M869.19,-528.39C869.19,-520.12 869.19,-511.44 869.19,-502.93"/>
<polygon fill="black" stroke="black" points="872.69,-502.69 869.19,-492.69 865.69,-502.69 872.69,-502.69"/>
</g>
<!-- BB13 -->
<g id="node14" class="node">
<title>BB13</title>
<ellipse fill="none" stroke="black" cx="869.19" cy="-312.42" rx="103.48" ry="48.17"/>
<text text-anchor="middle" x="869.19" y="-331.22" font-family="Times New Roman,serif" font-size="14.00">[69..83)</text>
<text text-anchor="middle" x="869.19" y="-316.22" font-family="Times New Roman,serif" font-size="14.00">Count: 0</text>
<text text-anchor="middle" x="869.19" y="-301.22" font-family="Times New Roman,serif" font-size="14.00">Normalized count: 0.00</text>
<text text-anchor="middle" x="869.19" y="-286.22" font-family="Times New Roman,serif" font-size="14.00">Samples weight: 0.00</text>
</g>
<!-- BB13&#45;&gt;BB14 -->
<g id="edge18" class="edge">
<title>BB13&#45;&gt;BB14</title>
<path fill="none" stroke="black" d="M875.71,-360.78C875.93,-369.07 875.99,-377.79 875.89,-386.32"/>
<polygon fill="black" stroke="black" points="872.39,-386.53 875.7,-396.59 879.39,-386.66 872.39,-386.53"/>
</g>
<!-- BB14&#45;&gt;BB13 -->
<g id="edge19" class="edge">
<title>BB14&#45;&gt;BB13</title>
<path fill="none" stroke="black" d="M862.67,-396.59C862.45,-388.22 862.38,-379.41 862.48,-370.78"/>
<polygon fill="black" stroke="black" points="865.98,-370.84 862.66,-360.78 858.98,-370.71 865.98,-370.84"/>
</g>
<!-- BB15 -->
<g id="node16" class="node">
<title>BB15</title>
<ellipse fill="none" stroke="black" cx="1093.19" cy="-312.42" rx="103.48" ry="48.17"/>
<text text-anchor="middle" x="1093.19" y="-331.22" font-family="Times New Roman,serif" font-size="14.00">[89..90)</text>
<text text-anchor="middle" x="1093.19" y="-316.22" font-family="Times New Roman,serif" font-size="14.00">Count: 2</text>
<text text-anchor="middle" x="1093.19" y="-301.22" font-family="Times New Roman,serif" font-size="14.00">Normalized count: 1.00</text>
<text text-anchor="middle" x="1093.19" y="-286.22" font-family="Times New Roman,serif" font-size="14.00">Samples weight: 0.01</text>
</g>
<!-- BB14&#45;&gt;BB15 -->
<g id="edge20" class="edge">
<title>BB14&#45;&gt;BB15</title>
<path fill="none" stroke="black" d="M932.78,-406.63C960.21,-390.69 992.43,-371.97 1020.78,-355.49"/>
<polygon fill="black" stroke="black" points="1022.55,-358.51 1029.44,-350.46 1019.03,-352.46 1022.55,-358.51"/>
</g>
</g>
</svg>
