<?xml version="1.0" encoding="UTF-8" standalone="no"?>
<!DOCTYPE svg PUBLIC "-//W3C//DTD SVG 1.1//EN"
 "http://www.w3.org/Graphics/SVG/1.1/DTD/svg11.dtd">
<!-- Generated by graphviz version 2.47.0 (20210316.0004)
 -->
<!-- Title: G Pages: 1 -->
<svg width="2065pt" height="1426pt"
 viewBox="0.00 0.00 2064.80 1425.83" xmlns="http://www.w3.org/2000/svg" xmlns:xlink="http://www.w3.org/1999/xlink">
<g id="graph0" class="graph" transform="scale(1 1) rotate(0) translate(4 1421.83)">
<title>G</title>
<polygon fill="white" stroke="transparent" points="-4,4 -4,-1421.83 2060.8,-1421.83 2060.8,4 -4,4"/>
<!-- BB0 -->
<g id="node1" class="node">
<title>BB0</title>
<ellipse fill="none" stroke="black" cx="685.57" cy="-1369.75" rx="103.48" ry="48.17"/>
<text text-anchor="middle" x="685.57" y="-1388.55" font-family="Times New Roman,serif" font-size="14.00">[0..11)</text>
<text text-anchor="middle" x="685.57" y="-1373.55" font-family="Times New Roman,serif" font-size="14.00">Count: 10</text>
<text text-anchor="middle" x="685.57" y="-1358.55" font-family="Times New Roman,serif" font-size="14.00">Normalized count: 1.00</text>
<text text-anchor="middle" x="685.57" y="-1343.55" font-family="Times New Roman,serif" font-size="14.00">Samples weight: 0.00</text>
</g>
<!-- BB2 -->
<g id="node3" class="node">
<title>BB2</title>
<ellipse fill="none" stroke="black" cx="685.57" cy="-1237.58" rx="113.27" ry="48.17"/>
<text text-anchor="middle" x="685.57" y="-1256.38" font-family="Times New Roman,serif" font-size="14.00">[22..28)</text>
<text text-anchor="middle" x="685.57" y="-1241.38" font-family="Times New Roman,serif" font-size="14.00">Count: 1020</text>
<text text-anchor="middle" x="685.57" y="-1226.38" font-family="Times New Roman,serif" font-size="14.00">Normalized count: 102.00</text>
<text text-anchor="middle" x="685.57" y="-1211.38" font-family="Times New Roman,serif" font-size="14.00">Samples weight: 0.00</text>
</g>
<!-- BB0&#45;&gt;BB2 -->
<g id="edge1" class="edge">
<title>BB0&#45;&gt;BB2</title>
<path fill="none" stroke="black" d="M685.57,-1321.39C685.57,-1313.12 685.57,-1304.44 685.57,-1295.93"/>
<polygon fill="black" stroke="black" points="689.07,-1295.69 685.57,-1285.69 682.07,-1295.69 689.07,-1295.69"/>
</g>
<!-- BB1 -->
<g id="node2" class="node">
<title>BB1</title>
<ellipse fill="none" stroke="black" cx="685.57" cy="-1105.42" rx="113.27" ry="48.17"/>
<text text-anchor="middle" x="685.57" y="-1124.22" font-family="Times New Roman,serif" font-size="14.00">[11..22)</text>
<text text-anchor="middle" x="685.57" y="-1109.22" font-family="Times New Roman,serif" font-size="14.00">Count: 1010</text>
<text text-anchor="middle" x="685.57" y="-1094.22" font-family="Times New Roman,serif" font-size="14.00">Normalized count: 101.00</text>
<text text-anchor="middle" x="685.57" y="-1079.22" font-family="Times New Roman,serif" font-size="14.00">Samples weight: 0.00</text>
</g>
<!-- BB1&#45;&gt;BB2 -->
<g id="edge2" class="edge">
<title>BB1&#45;&gt;BB2</title>
<path fill="none" stroke="black" d="M692.08,-1153.52C692.3,-1161.78 692.37,-1170.46 692.28,-1178.97"/>
<polygon fill="black" stroke="black" points="688.77,-1179.16 692.09,-1189.22 695.77,-1179.29 688.77,-1179.16"/>
</g>
<!-- BB2&#45;&gt;BB1 -->
<g id="edge3" class="edge">
<title>BB2&#45;&gt;BB1</title>
<path fill="none" stroke="black" d="M679.04,-1189.22C678.83,-1180.95 678.77,-1172.27 678.86,-1163.77"/>
<polygon fill="black" stroke="black" points="682.36,-1163.59 679.05,-1153.52 675.36,-1163.46 682.36,-1163.59"/>
</g>
<!-- BB3 -->
<g id="node4" class="node">
<title>BB3</title>
<ellipse fill="none" stroke="black" cx="919.57" cy="-1105.42" rx="103.48" ry="48.17"/>
<text text-anchor="middle" x="919.57" y="-1124.22" font-family="Times New Roman,serif" font-size="14.00">[28..54)</text>
<text text-anchor="middle" x="919.57" y="-1109.22" font-family="Times New Roman,serif" font-size="14.00">Count: 10</text>
<text text-anchor="middle" x="919.57" y="-1094.22" font-family="Times New Roman,serif" font-size="14.00">Normalized count: 1.00</text>
<text text-anchor="middle" x="919.57" y="-1079.22" font-family="Times New Roman,serif" font-size="14.00">Samples weight: 0.00</text>
</g>
<!-- BB2&#45;&gt;BB3 -->
<g id="edge4" class="edge">
<title>BB2&#45;&gt;BB3</title>
<path fill="none" stroke="black" d="M753.25,-1198.93C782,-1182.94 815.6,-1164.25 845.05,-1147.86"/>
<polygon fill="black" stroke="black" points="847.01,-1150.78 854.05,-1142.86 843.61,-1144.66 847.01,-1150.78"/>
</g>
<!-- BB4 -->
<g id="node5" class="node">
<title>BB4</title>
<ellipse fill="none" stroke="black" cx="765.57" cy="-973.25" rx="103.48" ry="48.17"/>
<text text-anchor="middle" x="765.57" y="-992.05" font-family="Times New Roman,serif" font-size="14.00">[54..5c)</text>
<text text-anchor="middle" x="765.57" y="-977.05" font-family="Times New Roman,serif" font-size="14.00">Count: 0</text>
<text text-anchor="middle" x="765.57" y="-962.05" font-family="Times New Roman,serif" font-size="14.00">Normalized count: 0.00</text>
<text text-anchor="middle" x="765.57" y="-947.05" font-family="Times New Roman,serif" font-size="14.00">Samples weight: 0.00</text>
</g>
<!-- BB3&#45;&gt;BB4 -->
<g id="edge6" class="edge">
<title>BB3&#45;&gt;BB4</title>
<path fill="none" stroke="black" d="M870.42,-1062.87C855.06,-1049.89 838,-1035.47 822.17,-1022.09"/>
<polygon fill="black" stroke="black" points="824.41,-1019.4 814.51,-1015.62 819.89,-1024.75 824.41,-1019.4"/>
</g>
<!-- BB20 -->
<g id="node21" class="node">
<title>BB20</title>
<ellipse fill="none" stroke="black" cx="1073.57" cy="-973.25" rx="103.48" ry="48.17"/>
<text text-anchor="middle" x="1073.57" y="-992.05" font-family="Times New Roman,serif" font-size="14.00">[10f..120)</text>
<text text-anchor="middle" x="1073.57" y="-977.05" font-family="Times New Roman,serif" font-size="14.00">Count: 10</text>
<text text-anchor="middle" x="1073.57" y="-962.05" font-family="Times New Roman,serif" font-size="14.00">Normalized count: 1.00</text>
<text text-anchor="middle" x="1073.57" y="-947.05" font-family="Times New Roman,serif" font-size="14.00">Samples weight: 0.00</text>
</g>
<!-- BB3&#45;&gt;BB20 -->
<g id="edge5" class="edge">
<title>BB3&#45;&gt;BB20</title>
<path fill="none" stroke="black" d="M968.72,-1062.87C984.07,-1049.89 1001.14,-1035.47 1016.96,-1022.09"/>
<polygon fill="black" stroke="black" points="1019.24,-1024.75 1024.62,-1015.62 1014.72,-1019.4 1019.24,-1024.75"/>
</g>
<!-- BB17 -->
<g id="node18" class="node">
<title>BB17</title>
<ellipse fill="none" stroke="black" cx="681.57" cy="-841.08" rx="103.48" ry="48.17"/>
<text text-anchor="middle" x="681.57" y="-859.88" font-family="Times New Roman,serif" font-size="14.00">[ed..f9)</text>
<text text-anchor="middle" x="681.57" y="-844.88" font-family="Times New Roman,serif" font-size="14.00">Count: 0</text>
<text text-anchor="middle" x="681.57" y="-829.88" font-family="Times New Roman,serif" font-size="14.00">Normalized count: 0.00</text>
<text text-anchor="middle" x="681.57" y="-814.88" font-family="Times New Roman,serif" font-size="14.00">Samples weight: 0.00</text>
</g>
<!-- BB4&#45;&gt;BB17 -->
<g id="edge7" class="edge">
<title>BB4&#45;&gt;BB17</title>
<path fill="none" stroke="black" d="M736.42,-927.09C729.98,-917.11 723.09,-906.43 716.45,-896.14"/>
<polygon fill="black" stroke="black" points="719.31,-894.11 710.94,-887.6 713.42,-897.9 719.31,-894.11"/>
</g>
<!-- BB5 -->
<g id="node6" class="node">
<title>BB5</title>
<ellipse fill="none" stroke="black" cx="639.57" cy="-708.92" rx="103.48" ry="48.17"/>
<text text-anchor="middle" x="639.57" y="-727.72" font-family="Times New Roman,serif" font-size="14.00">[5c..6b)</text>
<text text-anchor="middle" x="639.57" y="-712.72" font-family="Times New Roman,serif" font-size="14.00">Count: 0</text>
<text text-anchor="middle" x="639.57" y="-697.72" font-family="Times New Roman,serif" font-size="14.00">Normalized count: 0.00</text>
<text text-anchor="middle" x="639.57" y="-682.72" font-family="Times New Roman,serif" font-size="14.00">Samples weight: 0.00</text>
</g>
<!-- BB10 -->
<g id="node11" class="node">
<title>BB10</title>
<ellipse fill="none" stroke="black" cx="630.57" cy="-576.75" rx="103.48" ry="48.17"/>
<text text-anchor="middle" x="630.57" y="-595.55" font-family="Times New Roman,serif" font-size="14.00">[9b..a3)</text>
<text text-anchor="middle" x="630.57" y="-580.55" font-family="Times New Roman,serif" font-size="14.00">Count: 0</text>
<text text-anchor="middle" x="630.57" y="-565.55" font-family="Times New Roman,serif" font-size="14.00">Normalized count: 0.00</text>
<text text-anchor="middle" x="630.57" y="-550.55" font-family="Times New Roman,serif" font-size="14.00">Samples weight: 0.00</text>
</g>
<!-- BB5&#45;&gt;BB10 -->
<g id="edge8" class="edge">
<title>BB5&#45;&gt;BB10</title>
<path fill="none" stroke="black" d="M636.29,-660.55C635.72,-652.29 635.12,-643.6 634.53,-635.1"/>
<polygon fill="black" stroke="black" points="638.01,-634.59 633.82,-624.86 631.02,-635.08 638.01,-634.59"/>
</g>
<!-- BB6 -->
<g id="node7" class="node">
<title>BB6</title>
<ellipse fill="none" stroke="black" cx="754.57" cy="-444.58" rx="103.48" ry="48.17"/>
<text text-anchor="middle" x="754.57" y="-463.38" font-family="Times New Roman,serif" font-size="14.00">[6b..7b)</text>
<text text-anchor="middle" x="754.57" y="-448.38" font-family="Times New Roman,serif" font-size="14.00">Count: 0</text>
<text text-anchor="middle" x="754.57" y="-433.38" font-family="Times New Roman,serif" font-size="14.00">Normalized count: 0.00</text>
<text text-anchor="middle" x="754.57" y="-418.38" font-family="Times New Roman,serif" font-size="14.00">Samples weight: 0.00</text>
</g>
<!-- BB8 -->
<g id="node9" class="node">
<title>BB8</title>
<ellipse fill="none" stroke="black" cx="765.57" cy="-312.42" rx="103.48" ry="48.17"/>
<text text-anchor="middle" x="765.57" y="-331.22" font-family="Times New Roman,serif" font-size="14.00">[8f..95)</text>
<text text-anchor="middle" x="765.57" y="-316.22" font-family="Times New Roman,serif" font-size="14.00">Count: 0</text>
<text text-anchor="middle" x="765.57" y="-301.22" font-family="Times New Roman,serif" font-size="14.00">Normalized count: 0.00</text>
<text text-anchor="middle" x="765.57" y="-286.22" font-family="Times New Roman,serif" font-size="14.00">Samples weight: 0.00</text>
</g>
<!-- BB6&#45;&gt;BB8 -->
<g id="edge9" class="edge">
<title>BB6&#45;&gt;BB8</title>
<path fill="none" stroke="black" d="M758.57,-396.22C759.27,-387.95 760,-379.27 760.72,-370.77"/>
<polygon fill="black" stroke="black" points="764.23,-370.78 761.59,-360.52 757.26,-370.19 764.23,-370.78"/>
</g>
<!-- BB7 -->
<g id="node8" class="node">
<title>BB7</title>
<ellipse fill="none" stroke="black" cx="811.57" cy="-180.25" rx="103.48" ry="48.17"/>
<text text-anchor="middle" x="811.57" y="-199.05" font-family="Times New Roman,serif" font-size="14.00">[7b..8f)</text>
<text text-anchor="middle" x="811.57" y="-184.05" font-family="Times New Roman,serif" font-size="14.00">Count: 0</text>
<text text-anchor="middle" x="811.57" y="-169.05" font-family="Times New Roman,serif" font-size="14.00">Normalized count: 0.00</text>
<text text-anchor="middle" x="811.57" y="-154.05" font-family="Times New Roman,serif" font-size="14.00">Samples weight: 0.00</text>
</g>
<!-- BB7&#45;&gt;BB8 -->
<g id="edge10" class="edge">
<title>BB7&#45;&gt;BB8</title>
<path fill="none" stroke="black" d="M801.47,-228.24C798.56,-237.16 795.29,-246.57 791.93,-255.73"/>
<polygon fill="black" stroke="black" points="788.63,-254.57 788.41,-265.16 795.19,-257.02 788.63,-254.57"/>
</g>
<!-- BB8&#45;&gt;BB7 -->
<g id="edge11" class="edge">
<title>BB8&#45;&gt;BB7</title>
<path fill="none" stroke="black" d="M775.66,-264.42C778.59,-255.45 781.88,-245.98 785.26,-236.77"/>
<polygon fill="black" stroke="black" points="788.58,-237.89 788.81,-227.3 782.02,-235.44 788.58,-237.89"/>
</g>
<!-- BB9 -->
<g id="node10" class="node">
<title>BB9</title>
<ellipse fill="none" stroke="black" cx="587.57" cy="-180.25" rx="103.48" ry="48.17"/>
<text text-anchor="middle" x="587.57" y="-199.05" font-family="Times New Roman,serif" font-size="14.00">[95..9b)</text>
<text text-anchor="middle" x="587.57" y="-184.05" font-family="Times New Roman,serif" font-size="14.00">Count: 0</text>
<text text-anchor="middle" x="587.57" y="-169.05" font-family="Times New Roman,serif" font-size="14.00">Normalized count: 0.00</text>
<text text-anchor="middle" x="587.57" y="-154.05" font-family="Times New Roman,serif" font-size="14.00">Samples weight: 0.00</text>
</g>
<!-- BB8&#45;&gt;BB9 -->
<g id="edge12" class="edge">
<title>BB8&#45;&gt;BB9</title>
<path fill="none" stroke="black" d="M710.71,-271.3C691.67,-257.38 670.18,-241.66 650.54,-227.3"/>
<polygon fill="black" stroke="black" points="652.38,-224.31 642.24,-221.23 648.25,-229.96 652.38,-224.31"/>
</g>
<!-- BB9&#45;&gt;BB10 -->
<g id="edge13" class="edge">
<title>BB9&#45;&gt;BB10</title>
<path fill="none" stroke="black" d="M592.72,-228.5C600.64,-301.15 615.78,-440.07 624.31,-518.38"/>
<polygon fill="black" stroke="black" points="620.86,-518.99 625.42,-528.56 627.82,-518.23 620.86,-518.99"/>
</g>
<!-- BB10&#45;&gt;BB6 -->
<g id="edge14" class="edge">
<title>BB10&#45;&gt;BB6</title>
<path fill="none" stroke="black" d="M671.86,-532.41C682.94,-520.77 695.03,-508.09 706.45,-496.1"/>
<polygon fill="black" stroke="black" points="709.09,-498.39 713.46,-488.74 704.03,-493.56 709.09,-498.39"/>
</g>
<!-- BB11 -->
<g id="node12" class="node">
<title>BB11</title>
<ellipse fill="none" stroke="black" cx="387.57" cy="-444.58" rx="103.48" ry="48.17"/>
<text text-anchor="middle" x="387.57" y="-463.38" font-family="Times New Roman,serif" font-size="14.00">[a3..b2)</text>
<text text-anchor="middle" x="387.57" y="-448.38" font-family="Times New Roman,serif" font-size="14.00">Count: 0</text>
<text text-anchor="middle" x="387.57" y="-433.38" font-family="Times New Roman,serif" font-size="14.00">Normalized count: 0.00</text>
<text text-anchor="middle" x="387.57" y="-418.38" font-family="Times New Roman,serif" font-size="14.00">Samples weight: 0.00</text>
</g>
<!-- BB10&#45;&gt;BB11 -->
<g id="edge15" class="edge">
<title>BB10&#45;&gt;BB11</title>
<path fill="none" stroke="black" d="M563.84,-540.01C532.76,-523.36 495.64,-503.47 463.49,-486.25"/>
<polygon fill="black" stroke="black" points="465.03,-483.11 454.56,-481.47 461.72,-489.28 465.03,-483.11"/>
</g>
<!-- BB13 -->
<g id="node14" class="node">
<title>BB13</title>
<ellipse fill="none" stroke="black" cx="251.57" cy="-312.42" rx="103.48" ry="48.17"/>
<text text-anchor="middle" x="251.57" y="-331.22" font-family="Times New Roman,serif" font-size="14.00">[c3..cb)</text>
<text text-anchor="middle" x="251.57" y="-316.22" font-family="Times New Roman,serif" font-size="14.00">Count: 0</text>
<text text-anchor="middle" x="251.57" y="-301.22" font-family="Times New Roman,serif" font-size="14.00">Normalized count: 0.00</text>
<text text-anchor="middle" x="251.57" y="-286.22" font-family="Times New Roman,serif" font-size="14.00">Samples weight: 0.00</text>
</g>
<!-- BB11&#45;&gt;BB13 -->
<g id="edge16" class="edge">
<title>BB11&#45;&gt;BB13</title>
<path fill="none" stroke="black" d="M343.04,-400.96C330.47,-388.94 316.69,-375.75 303.72,-363.34"/>
<polygon fill="black" stroke="black" points="305.84,-360.52 296.2,-356.13 301,-365.58 305.84,-360.52"/>
</g>
<!-- BB12 -->
<g id="node13" class="node">
<title>BB12</title>
<ellipse fill="none" stroke="black" cx="139.57" cy="-180.25" rx="103.48" ry="48.17"/>
<text text-anchor="middle" x="139.57" y="-199.05" font-family="Times New Roman,serif" font-size="14.00">[b2..c3)</text>
<text text-anchor="middle" x="139.57" y="-184.05" font-family="Times New Roman,serif" font-size="14.00">Count: 0</text>
<text text-anchor="middle" x="139.57" y="-169.05" font-family="Times New Roman,serif" font-size="14.00">Normalized count: 0.00</text>
<text text-anchor="middle" x="139.57" y="-154.05" font-family="Times New Roman,serif" font-size="14.00">Samples weight: 0.00</text>
</g>
<!-- BB12&#45;&gt;BB13 -->
<g id="edge17" class="edge">
<title>BB12&#45;&gt;BB13</title>
<path fill="none" stroke="black" d="M183.07,-224.37C192.92,-235.39 203.3,-247.37 212.94,-258.8"/>
<polygon fill="black" stroke="black" points="210.37,-261.19 219.47,-266.62 215.74,-256.7 210.37,-261.19"/>
</g>
<!-- BB13&#45;&gt;BB12 -->
<g id="edge18" class="edge">
<title>BB13&#45;&gt;BB12</title>
<path fill="none" stroke="black" d="M208.19,-268.43C198.29,-257.36 187.85,-245.32 178.17,-233.83"/>
<polygon fill="black" stroke="black" points="180.7,-231.4 171.6,-225.97 175.33,-235.89 180.7,-231.4"/>
</g>
<!-- BB14 -->
<g id="node15" class="node">
<title>BB14</title>
<ellipse fill="none" stroke="black" cx="363.57" cy="-180.25" rx="103.48" ry="48.17"/>
<text text-anchor="middle" x="363.57" y="-199.05" font-family="Times New Roman,serif" font-size="14.00">[cb..dd)</text>
<text text-anchor="middle" x="363.57" y="-184.05" font-family="Times New Roman,serif" font-size="14.00">Count: 0</text>
<text text-anchor="middle" x="363.57" y="-169.05" font-family="Times New Roman,serif" font-size="14.00">Normalized count: 0.00</text>
<text text-anchor="middle" x="363.57" y="-154.05" font-family="Times New Roman,serif" font-size="14.00">Samples weight: 0.00</text>
</g>
<!-- BB13&#45;&gt;BB14 -->
<g id="edge19" class="edge">
<title>BB13&#45;&gt;BB14</title>
<path fill="none" stroke="black" d="M289.48,-267.35C298.97,-256.32 309.24,-244.39 319.01,-233.03"/>
<polygon fill="black" stroke="black" points="321.82,-235.14 325.69,-225.27 316.51,-230.57 321.82,-235.14"/>
</g>
<!-- BB15 -->
<g id="node16" class="node">
<title>BB15</title>
<ellipse fill="none" stroke="black" cx="507.57" cy="-48.08" rx="103.48" ry="48.17"/>
<text text-anchor="middle" x="507.57" y="-66.88" font-family="Times New Roman,serif" font-size="14.00">[dd..e7)</text>
<text text-anchor="middle" x="507.57" y="-51.88" font-family="Times New Roman,serif" font-size="14.00">Count: 0</text>
<text text-anchor="middle" x="507.57" y="-36.88" font-family="Times New Roman,serif" font-size="14.00">Normalized count: 0.00</text>
<text text-anchor="middle" x="507.57" y="-21.88" font-family="Times New Roman,serif" font-size="14.00">Samples weight: 0.00</text>
</g>
<!-- BB14&#45;&gt;BB15 -->
<g id="edge21" class="edge">
<title>BB14&#45;&gt;BB15</title>
<path fill="none" stroke="black" d="M410.32,-136.99C424.04,-124.59 439.16,-110.92 453.31,-98.13"/>
<polygon fill="black" stroke="black" points="455.98,-100.43 461.05,-91.13 451.28,-95.24 455.98,-100.43"/>
</g>
<!-- BB16 -->
<g id="node17" class="node">
<title>BB16</title>
<ellipse fill="none" stroke="black" cx="218.57" cy="-48.08" rx="103.48" ry="48.17"/>
<text text-anchor="middle" x="218.57" y="-66.88" font-family="Times New Roman,serif" font-size="14.00">[e7..ed)</text>
<text text-anchor="middle" x="218.57" y="-51.88" font-family="Times New Roman,serif" font-size="14.00">Count: 0</text>
<text text-anchor="middle" x="218.57" y="-36.88" font-family="Times New Roman,serif" font-size="14.00">Normalized count: 0.00</text>
<text text-anchor="middle" x="218.57" y="-21.88" font-family="Times New Roman,serif" font-size="14.00">Samples weight: 0.00</text>
</g>
<!-- BB14&#45;&gt;BB16 -->
<g id="edge20" class="edge">
<title>BB14&#45;&gt;BB16</title>
<path fill="none" stroke="black" d="M316.89,-137.35C303.06,-124.93 287.79,-111.22 273.48,-98.38"/>
<polygon fill="black" stroke="black" points="275.43,-95.43 265.65,-91.35 270.76,-100.64 275.43,-95.43"/>
</g>
<!-- BB18 -->
<g id="node19" class="node">
<title>BB18</title>
<ellipse fill="none" stroke="black" cx="942.57" cy="-708.92" rx="103.48" ry="48.17"/>
<text text-anchor="middle" x="942.57" y="-727.72" font-family="Times New Roman,serif" font-size="14.00">[f9..104)</text>
<text text-anchor="middle" x="942.57" y="-712.72" font-family="Times New Roman,serif" font-size="14.00">Count: 0</text>
<text text-anchor="middle" x="942.57" y="-697.72" font-family="Times New Roman,serif" font-size="14.00">Normalized count: 0.00</text>
<text text-anchor="middle" x="942.57" y="-682.72" font-family="Times New Roman,serif" font-size="14.00">Samples weight: 0.00</text>
</g>
<!-- BB15&#45;&gt;BB18 -->
<g id="edge22" class="edge">
<title>BB15&#45;&gt;BB18</title>
<path fill="none" stroke="black" d="M609.89,-55.88C719.19,-65.42 882.3,-86.94 923.57,-132.17 977.56,-191.35 942.57,-231.3 942.57,-311.42 942.57,-445.58 942.57,-445.58 942.57,-445.58 942.57,-516.03 942.57,-597.13 942.57,-650.28"/>
<polygon fill="black" stroke="black" points="939.07,-650.52 942.57,-660.52 946.07,-650.52 939.07,-650.52"/>
</g>
<!-- BB16&#45;&gt;BB17 -->
<g id="edge23" class="edge">
<title>BB16&#45;&gt;BB17</title>
<path fill="none" stroke="black" d="M124.53,-68.54C88.62,-80.79 50.78,-100.53 27.57,-132.17 -19.83,-196.76 8.57,-231.3 8.57,-311.42 8.57,-577.75 8.57,-577.75 8.57,-577.75 8.57,-697.94 385.93,-785.23 575.51,-821.49"/>
<polygon fill="black" stroke="black" points="575.02,-824.96 585.5,-823.39 576.33,-818.09 575.02,-824.96"/>
</g>
<!-- BB17&#45;&gt;BB5 -->
<g id="edge24" class="edge">
<title>BB17&#45;&gt;BB5</title>
<path fill="none" stroke="black" d="M666.52,-793.46C663.69,-784.67 660.69,-775.4 657.78,-766.35"/>
<polygon fill="black" stroke="black" points="661.05,-765.1 654.65,-756.65 654.39,-767.24 661.05,-765.1"/>
</g>
<!-- BB17&#45;&gt;BB18 -->
<g id="edge25" class="edge">
<title>BB17&#45;&gt;BB18</title>
<path fill="none" stroke="black" d="M751.17,-805.37C785.97,-788.01 828.22,-766.94 864.17,-749.02"/>
<polygon fill="black" stroke="black" points="865.77,-752.13 873.16,-744.53 862.65,-745.86 865.77,-752.13"/>
</g>
<!-- BB19 -->
<g id="node20" class="node">
<title>BB19</title>
<ellipse fill="none" stroke="black" cx="1073.57" cy="-576.75" rx="103.48" ry="48.17"/>
<text text-anchor="middle" x="1073.57" y="-595.55" font-family="Times New Roman,serif" font-size="14.00">[104..10f)</text>
<text text-anchor="middle" x="1073.57" y="-580.55" font-family="Times New Roman,serif" font-size="14.00">Count: 0</text>
<text text-anchor="middle" x="1073.57" y="-565.55" font-family="Times New Roman,serif" font-size="14.00">Normalized count: 0.00</text>
<text text-anchor="middle" x="1073.57" y="-550.55" font-family="Times New Roman,serif" font-size="14.00">Samples weight: 0.00</text>
</g>
<!-- BB18&#45;&gt;BB19 -->
<g id="edge27" class="edge">
<title>BB18&#45;&gt;BB19</title>
<path fill="none" stroke="black" d="M985.82,-664.93C997.79,-653.05 1010.87,-640.05 1023.2,-627.8"/>
<polygon fill="black" stroke="black" points="1025.73,-630.22 1030.35,-620.69 1020.79,-625.25 1025.73,-630.22"/>
</g>
<!-- BB29 -->
<g id="node30" class="node">
<title>BB29</title>
<ellipse fill="none" stroke="black" cx="1841.57" cy="-576.75" rx="103.48" ry="48.17"/>
<text text-anchor="middle" x="1841.57" y="-595.55" font-family="Times New Roman,serif" font-size="14.00">[186..195)</text>
<text text-anchor="middle" x="1841.57" y="-580.55" font-family="Times New Roman,serif" font-size="14.00">Count: 10</text>
<text text-anchor="middle" x="1841.57" y="-565.55" font-family="Times New Roman,serif" font-size="14.00">Normalized count: 1.00</text>
<text text-anchor="middle" x="1841.57" y="-550.55" font-family="Times New Roman,serif" font-size="14.00">Samples weight: 0.00</text>
</g>
<!-- BB18&#45;&gt;BB29 -->
<g id="edge26" class="edge">
<title>BB18&#45;&gt;BB29</title>
<path fill="none" stroke="black" d="M1037.58,-689.97C1092.85,-680.09 1163.94,-668.35 1227.57,-660.83 1449.7,-634.58 1512.02,-676.87 1729.57,-624.83 1739.93,-622.35 1750.57,-619.02 1760.97,-615.26"/>
<polygon fill="black" stroke="black" points="1762.3,-618.5 1770.44,-611.71 1759.84,-611.95 1762.3,-618.5"/>
</g>
<!-- BB19&#45;&gt;BB20 -->
<g id="edge28" class="edge">
<title>BB19&#45;&gt;BB20</title>
<path fill="none" stroke="black" d="M1073.57,-625C1073.57,-697.65 1073.57,-836.57 1073.57,-914.88"/>
<polygon fill="black" stroke="black" points="1070.07,-915.05 1073.57,-925.05 1077.07,-915.05 1070.07,-915.05"/>
</g>
<!-- BB25 -->
<g id="node26" class="node">
<title>BB25</title>
<ellipse fill="none" stroke="black" cx="1279.57" cy="-841.08" rx="113.27" ry="48.17"/>
<text text-anchor="middle" x="1279.57" y="-859.88" font-family="Times New Roman,serif" font-size="14.00">[150..15a)</text>
<text text-anchor="middle" x="1279.57" y="-844.88" font-family="Times New Roman,serif" font-size="14.00">Count: 2510</text>
<text text-anchor="middle" x="1279.57" y="-829.88" font-family="Times New Roman,serif" font-size="14.00">Normalized count: 251.00</text>
<text text-anchor="middle" x="1279.57" y="-814.88" font-family="Times New Roman,serif" font-size="14.00">Samples weight: 0.00</text>
</g>
<!-- BB20&#45;&gt;BB25 -->
<g id="edge29" class="edge">
<title>BB20&#45;&gt;BB25</title>
<path fill="none" stroke="black" d="M1133.98,-934.07C1157.45,-919.24 1184.5,-902.15 1208.87,-886.75"/>
<polygon fill="black" stroke="black" points="1210.78,-889.69 1217.37,-881.39 1207.04,-883.77 1210.78,-889.69"/>
</g>
<!-- BB21 -->
<g id="node22" class="node">
<title>BB21</title>
<ellipse fill="none" stroke="black" cx="1349.57" cy="-708.92" rx="113.27" ry="48.17"/>
<text text-anchor="middle" x="1349.57" y="-727.72" font-family="Times New Roman,serif" font-size="14.00">[120..130)</text>
<text text-anchor="middle" x="1349.57" y="-712.72" font-family="Times New Roman,serif" font-size="14.00">Count: 2500</text>
<text text-anchor="middle" x="1349.57" y="-697.72" font-family="Times New Roman,serif" font-size="14.00">Normalized count: 250.00</text>
<text text-anchor="middle" x="1349.57" y="-682.72" font-family="Times New Roman,serif" font-size="14.00">Samples weight: 0.00</text>
</g>
<!-- BB23 -->
<g id="node24" class="node">
<title>BB23</title>
<ellipse fill="none" stroke="black" cx="1354.57" cy="-576.75" rx="122.16" ry="48.17"/>
<text text-anchor="middle" x="1354.57" y="-595.55" font-family="Times New Roman,serif" font-size="14.00">[144..14a)</text>
<text text-anchor="middle" x="1354.57" y="-580.55" font-family="Times New Roman,serif" font-size="14.00">Count: 255000</text>
<text text-anchor="middle" x="1354.57" y="-565.55" font-family="Times New Roman,serif" font-size="14.00">Normalized count: 25500.00</text>
<text text-anchor="middle" x="1354.57" y="-550.55" font-family="Times New Roman,serif" font-size="14.00">Samples weight: 0.49</text>
</g>
<!-- BB21&#45;&gt;BB23 -->
<g id="edge30" class="edge">
<title>BB21&#45;&gt;BB23</title>
<path fill="none" stroke="black" d="M1351.39,-660.55C1351.7,-652.29 1352.04,-643.6 1352.36,-635.1"/>
<polygon fill="black" stroke="black" points="1355.87,-634.98 1352.76,-624.86 1348.88,-634.72 1355.87,-634.98"/>
</g>
<!-- BB22 -->
<g id="node23" class="node">
<title>BB22</title>
<ellipse fill="none" stroke="black" cx="1354.57" cy="-444.58" rx="122.16" ry="48.17"/>
<text text-anchor="middle" x="1354.57" y="-463.38" font-family="Times New Roman,serif" font-size="14.00">[130..144)</text>
<text text-anchor="middle" x="1354.57" y="-448.38" font-family="Times New Roman,serif" font-size="14.00">Count: 252500</text>
<text text-anchor="middle" x="1354.57" y="-433.38" font-family="Times New Roman,serif" font-size="14.00">Normalized count: 25250.00</text>
<text text-anchor="middle" x="1354.57" y="-418.38" font-family="Times New Roman,serif" font-size="14.00">Samples weight: 0.48</text>
</g>
<!-- BB22&#45;&gt;BB23 -->
<g id="edge31" class="edge">
<title>BB22&#45;&gt;BB23</title>
<path fill="none" stroke="black" d="M1361.08,-492.69C1361.3,-500.95 1361.37,-509.63 1361.28,-518.14"/>
<polygon fill="black" stroke="black" points="1357.77,-518.33 1361.09,-528.39 1364.77,-518.45 1357.77,-518.33"/>
</g>
<!-- BB23&#45;&gt;BB22 -->
<g id="edge32" class="edge">
<title>BB23&#45;&gt;BB22</title>
<path fill="none" stroke="black" d="M1348.04,-528.39C1347.83,-520.12 1347.77,-511.44 1347.86,-502.93"/>
<polygon fill="black" stroke="black" points="1351.36,-502.75 1348.05,-492.69 1344.36,-502.62 1351.36,-502.75"/>
</g>
<!-- BB24 -->
<g id="node25" class="node">
<title>BB24</title>
<ellipse fill="none" stroke="black" cx="1101.57" cy="-444.58" rx="113.27" ry="48.17"/>
<text text-anchor="middle" x="1101.57" y="-463.38" font-family="Times New Roman,serif" font-size="14.00">[14a..150)</text>
<text text-anchor="middle" x="1101.57" y="-448.38" font-family="Times New Roman,serif" font-size="14.00">Count: 2500</text>
<text text-anchor="middle" x="1101.57" y="-433.38" font-family="Times New Roman,serif" font-size="14.00">Normalized count: 250.00</text>
<text text-anchor="middle" x="1101.57" y="-418.38" font-family="Times New Roman,serif" font-size="14.00">Samples weight: 0.00</text>
</g>
<!-- BB23&#45;&gt;BB24 -->
<g id="edge33" class="edge">
<title>BB23&#45;&gt;BB24</title>
<path fill="none" stroke="black" d="M1281.39,-538.1C1250.31,-522.11 1213.97,-503.41 1182.13,-487.03"/>
<polygon fill="black" stroke="black" points="1183.33,-483.71 1172.84,-482.25 1180.13,-489.94 1183.33,-483.71"/>
</g>
<!-- BB24&#45;&gt;BB25 -->
<g id="edge34" class="edge">
<title>BB24&#45;&gt;BB25</title>
<path fill="none" stroke="black" d="M1153.9,-487.51C1165.98,-499.59 1177.61,-513.62 1185.57,-528.67 1233.8,-619.88 1190.2,-660.82 1227.57,-757 1231.35,-766.74 1236.31,-776.58 1241.66,-785.92"/>
<polygon fill="black" stroke="black" points="1238.76,-787.9 1246.89,-794.7 1244.78,-784.32 1238.76,-787.9"/>
</g>
<!-- BB25&#45;&gt;BB21 -->
<g id="edge35" class="edge">
<title>BB25&#45;&gt;BB21</title>
<path fill="none" stroke="black" d="M1304.44,-793.82C1309.45,-784.52 1314.75,-774.66 1319.9,-765.08"/>
<polygon fill="black" stroke="black" points="1323.12,-766.49 1324.77,-756.03 1316.95,-763.17 1323.12,-766.49"/>
</g>
<!-- BB26 -->
<g id="node27" class="node">
<title>BB26</title>
<ellipse fill="none" stroke="black" cx="1595.57" cy="-708.92" rx="103.48" ry="48.17"/>
<text text-anchor="middle" x="1595.57" y="-727.72" font-family="Times New Roman,serif" font-size="14.00">[15a..16b)</text>
<text text-anchor="middle" x="1595.57" y="-712.72" font-family="Times New Roman,serif" font-size="14.00">Count: 10</text>
<text text-anchor="middle" x="1595.57" y="-697.72" font-family="Times New Roman,serif" font-size="14.00">Normalized count: 1.00</text>
<text text-anchor="middle" x="1595.57" y="-682.72" font-family="Times New Roman,serif" font-size="14.00">Samples weight: 0.00</text>
</g>
<!-- BB25&#45;&gt;BB26 -->
<g id="edge36" class="edge">
<title>BB25&#45;&gt;BB26</title>
<path fill="none" stroke="black" d="M1359.72,-807.07C1405.47,-788.22 1462.85,-764.58 1509.55,-745.35"/>
<polygon fill="black" stroke="black" points="1511.13,-748.48 1519.04,-741.44 1508.46,-742.01 1511.13,-748.48"/>
</g>
<!-- BB28 -->
<g id="node29" class="node">
<title>BB28</title>
<ellipse fill="none" stroke="black" cx="1607.57" cy="-576.75" rx="113.27" ry="48.17"/>
<text text-anchor="middle" x="1607.57" y="-595.55" font-family="Times New Roman,serif" font-size="14.00">[17c..186)</text>
<text text-anchor="middle" x="1607.57" y="-580.55" font-family="Times New Roman,serif" font-size="14.00">Count: 2510</text>
<text text-anchor="middle" x="1607.57" y="-565.55" font-family="Times New Roman,serif" font-size="14.00">Normalized count: 251.00</text>
<text text-anchor="middle" x="1607.57" y="-550.55" font-family="Times New Roman,serif" font-size="14.00">Samples weight: 0.00</text>
</g>
<!-- BB26&#45;&gt;BB28 -->
<g id="edge37" class="edge">
<title>BB26&#45;&gt;BB28</title>
<path fill="none" stroke="black" d="M1599.93,-660.55C1600.7,-652.2 1601.51,-643.41 1602.31,-634.82"/>
<polygon fill="black" stroke="black" points="1605.79,-635.14 1603.22,-624.86 1598.82,-634.49 1605.79,-635.14"/>
</g>
<!-- BB27 -->
<g id="node28" class="node">
<title>BB27</title>
<ellipse fill="none" stroke="black" cx="1607.57" cy="-444.58" rx="113.27" ry="48.17"/>
<text text-anchor="middle" x="1607.57" y="-463.38" font-family="Times New Roman,serif" font-size="14.00">[16b..17c)</text>
<text text-anchor="middle" x="1607.57" y="-448.38" font-family="Times New Roman,serif" font-size="14.00">Count: 2500</text>
<text text-anchor="middle" x="1607.57" y="-433.38" font-family="Times New Roman,serif" font-size="14.00">Normalized count: 250.00</text>
<text text-anchor="middle" x="1607.57" y="-418.38" font-family="Times New Roman,serif" font-size="14.00">Samples weight: 0.00</text>
</g>
<!-- BB27&#45;&gt;BB28 -->
<g id="edge38" class="edge">
<title>BB27&#45;&gt;BB28</title>
<path fill="none" stroke="black" d="M1614.08,-492.69C1614.3,-500.95 1614.37,-509.63 1614.28,-518.14"/>
<polygon fill="black" stroke="black" points="1610.77,-518.33 1614.09,-528.39 1617.77,-518.45 1610.77,-518.33"/>
</g>
<!-- BB28&#45;&gt;BB27 -->
<g id="edge39" class="edge">
<title>BB28&#45;&gt;BB27</title>
<path fill="none" stroke="black" d="M1601.04,-528.39C1600.83,-520.12 1600.77,-511.44 1600.86,-502.93"/>
<polygon fill="black" stroke="black" points="1604.36,-502.75 1601.05,-492.69 1597.36,-502.62 1604.36,-502.75"/>
</g>
<!-- BB28&#45;&gt;BB29 -->
<g id="edge40" class="edge">
<title>BB28&#45;&gt;BB29</title>
<path fill="none" stroke="black" d="M1720.91,-576.75C1723.21,-576.75 1725.51,-576.75 1727.8,-576.75"/>
<polygon fill="black" stroke="black" points="1727.88,-580.25 1737.88,-576.75 1727.88,-573.25 1727.88,-580.25"/>
</g>
<!-- BB30 -->
<g id="node31" class="node">
<title>BB30</title>
<ellipse fill="none" stroke="black" cx="1841.57" cy="-444.58" rx="103.48" ry="48.17"/>
<text text-anchor="middle" x="1841.57" y="-463.38" font-family="Times New Roman,serif" font-size="14.00">[195..1c4)</text>
<text text-anchor="middle" x="1841.57" y="-448.38" font-family="Times New Roman,serif" font-size="14.00">Count: 10</text>
<text text-anchor="middle" x="1841.57" y="-433.38" font-family="Times New Roman,serif" font-size="14.00">Normalized count: 1.00</text>
<text text-anchor="middle" x="1841.57" y="-418.38" font-family="Times New Roman,serif" font-size="14.00">Samples weight: 0.00</text>
</g>
<!-- BB29&#45;&gt;BB30 -->
<g id="edge41" class="edge">
<title>BB29&#45;&gt;BB30</title>
<path fill="none" stroke="black" d="M1841.57,-528.39C1841.57,-520.12 1841.57,-511.44 1841.57,-502.93"/>
<polygon fill="black" stroke="black" points="1845.07,-502.69 1841.57,-492.69 1838.07,-502.69 1845.07,-502.69"/>
</g>
<!-- BB30&#45;&gt;BB30 -->
<g id="edge42" class="edge">
<title>BB30&#45;&gt;BB30</title>
<path fill="none" stroke="black" d="M1931.45,-468.39C1949.72,-465.8 1962.8,-457.86 1962.8,-444.58 1962.8,-433.9 1954.33,-426.67 1941.5,-422.91"/>
<polygon fill="black" stroke="black" points="1941.96,-419.43 1931.45,-420.78 1940.51,-426.27 1941.96,-419.43"/>
</g>
<!-- BB31 -->
<g id="node32" class="node">
<title>BB31</title>
<ellipse fill="none" stroke="black" cx="1841.57" cy="-312.42" rx="103.48" ry="48.17"/>
<text text-anchor="middle" x="1841.57" y="-331.22" font-family="Times New Roman,serif" font-size="14.00">[1c4..1cc)</text>
<text text-anchor="middle" x="1841.57" y="-316.22" font-family="Times New Roman,serif" font-size="14.00">Count: 10</text>
<text text-anchor="middle" x="1841.57" y="-301.22" font-family="Times New Roman,serif" font-size="14.00">Normalized count: 1.00</text>
<text text-anchor="middle" x="1841.57" y="-286.22" font-family="Times New Roman,serif" font-size="14.00">Samples weight: 0.00</text>
</g>
<!-- BB30&#45;&gt;BB31 -->
<g id="edge43" class="edge">
<title>BB30&#45;&gt;BB31</title>
<path fill="none" stroke="black" d="M1841.57,-396.22C1841.57,-387.95 1841.57,-379.27 1841.57,-370.77"/>
<polygon fill="black" stroke="black" points="1845.07,-370.52 1841.57,-360.52 1838.07,-370.52 1845.07,-370.52"/>
</g>
<!-- BB32 -->
<g id="node33" class="node">
<title>BB32</title>
<ellipse fill="none" stroke="black" cx="1729.57" cy="-180.25" rx="103.48" ry="48.17"/>
<text text-anchor="middle" x="1729.57" y="-199.05" font-family="Times New Roman,serif" font-size="14.00">[1cc..1d3)</text>
<text text-anchor="middle" x="1729.57" y="-184.05" font-family="Times New Roman,serif" font-size="14.00">Count: 0</text>
<text text-anchor="middle" x="1729.57" y="-169.05" font-family="Times New Roman,serif" font-size="14.00">Normalized count: 0.00</text>
<text text-anchor="middle" x="1729.57" y="-154.05" font-family="Times New Roman,serif" font-size="14.00">Samples weight: 0.00</text>
</g>
<!-- BB31&#45;&gt;BB32 -->
<g id="edge45" class="edge">
<title>BB31&#45;&gt;BB32</title>
<path fill="none" stroke="black" d="M1803.65,-267.35C1794.16,-256.32 1783.9,-244.39 1774.12,-233.03"/>
<polygon fill="black" stroke="black" points="1776.62,-230.57 1767.45,-225.27 1771.32,-235.14 1776.62,-230.57"/>
</g>
<!-- BB33 -->
<g id="node34" class="node">
<title>BB33</title>
<ellipse fill="none" stroke="black" cx="1953.57" cy="-180.25" rx="103.48" ry="48.17"/>
<text text-anchor="middle" x="1953.57" y="-199.05" font-family="Times New Roman,serif" font-size="14.00">[1d3..1de)</text>
<text text-anchor="middle" x="1953.57" y="-184.05" font-family="Times New Roman,serif" font-size="14.00">Count: 10</text>
<text text-anchor="middle" x="1953.57" y="-169.05" font-family="Times New Roman,serif" font-size="14.00">Normalized count: 1.00</text>
<text text-anchor="middle" x="1953.57" y="-154.05" font-family="Times New Roman,serif" font-size="14.00">Samples weight: 0.00</text>
</g>
<!-- BB31&#45;&gt;BB33 -->
<g id="edge44" class="edge">
<title>BB31&#45;&gt;BB33</title>
<path fill="none" stroke="black" d="M1879.48,-267.35C1888.97,-256.32 1899.24,-244.39 1909.01,-233.03"/>
<polygon fill="black" stroke="black" points="1911.82,-235.14 1915.69,-225.27 1906.51,-230.57 1911.82,-235.14"/>
</g>
<!-- BB32&#45;&gt;BB33 -->
<g id="edge46" class="edge">
<title>BB32&#45;&gt;BB33</title>
<path fill="none" stroke="black" d="M1832.82,-180.25C1835.27,-180.25 1837.73,-180.25 1840.18,-180.25"/>
<polygon fill="black" stroke="black" points="1840.27,-183.75 1850.27,-180.25 1840.27,-176.75 1840.27,-183.75"/>
</g>
</g>
</svg>
