<?xml version="1.0" encoding="UTF-8" standalone="no"?>
<!DOCTYPE svg PUBLIC "-//W3C//DTD SVG 1.1//EN"
 "http://www.w3.org/Graphics/SVG/1.1/DTD/svg11.dtd">
<!-- Generated by graphviz version 2.47.0 (20210316.0004)
 -->
<!-- Title: G Pages: 1 -->
<svg width="1290pt" height="897pt"
 viewBox="0.00 0.00 1290.50 897.17" xmlns="http://www.w3.org/2000/svg" xmlns:xlink="http://www.w3.org/1999/xlink">
<g id="graph0" class="graph" transform="scale(1 1) rotate(0) translate(4 893.17)">
<title>G</title>
<polygon fill="white" stroke="transparent" points="-4,4 -4,-893.17 1286.5,-893.17 1286.5,4 -4,4"/>
<!-- BB0 -->
<g id="node1" class="node">
<title>BB0</title>
<ellipse fill="none" stroke="black" cx="799.84" cy="-841.08" rx="104.8" ry="48.17"/>
<text text-anchor="middle" x="799.84" y="-859.88" font-family="Times New Roman,serif" font-size="14.00">[0..5)</text>
<text text-anchor="middle" x="799.84" y="-844.88" font-family="Times New Roman,serif" font-size="14.00">Count: 0</text>
<text text-anchor="middle" x="799.84" y="-829.88" font-family="Times New Roman,serif" font-size="14.00">Normalized count: NaN</text>
<text text-anchor="middle" x="799.84" y="-814.88" font-family="Times New Roman,serif" font-size="14.00">Samples weight: 0.00</text>
</g>
<!-- BB11 -->
<g id="node12" class="node">
<title>BB11</title>
<ellipse fill="none" stroke="black" cx="799.84" cy="-708.92" rx="113.69" ry="48.17"/>
<text text-anchor="middle" x="799.84" y="-727.72" font-family="Times New Roman,serif" font-size="14.00">[58..5e)</text>
<text text-anchor="middle" x="799.84" y="-712.72" font-family="Times New Roman,serif" font-size="14.00">Count: 2</text>
<text text-anchor="middle" x="799.84" y="-697.72" font-family="Times New Roman,serif" font-size="14.00">Normalized count: Infinity</text>
<text text-anchor="middle" x="799.84" y="-682.72" font-family="Times New Roman,serif" font-size="14.00">Samples weight: 0.00</text>
</g>
<!-- BB0&#45;&gt;BB11 -->
<g id="edge1" class="edge">
<title>BB0&#45;&gt;BB11</title>
<path fill="none" stroke="black" d="M799.84,-792.72C799.84,-784.45 799.84,-775.77 799.84,-767.27"/>
<polygon fill="black" stroke="black" points="803.34,-767.02 799.84,-757.02 796.34,-767.02 803.34,-767.02"/>
</g>
<!-- BB1 -->
<g id="node2" class="node">
<title>BB1</title>
<ellipse fill="none" stroke="black" cx="657.84" cy="-576.75" rx="113.69" ry="48.17"/>
<text text-anchor="middle" x="657.84" y="-595.55" font-family="Times New Roman,serif" font-size="14.00">[5..14)</text>
<text text-anchor="middle" x="657.84" y="-580.55" font-family="Times New Roman,serif" font-size="14.00">Count: 3</text>
<text text-anchor="middle" x="657.84" y="-565.55" font-family="Times New Roman,serif" font-size="14.00">Normalized count: Infinity</text>
<text text-anchor="middle" x="657.84" y="-550.55" font-family="Times New Roman,serif" font-size="14.00">Samples weight: 0.00</text>
</g>
<!-- BB6 -->
<g id="node7" class="node">
<title>BB6</title>
<ellipse fill="none" stroke="black" cx="430.84" cy="-444.58" rx="113.69" ry="48.17"/>
<text text-anchor="middle" x="430.84" y="-463.38" font-family="Times New Roman,serif" font-size="14.00">[33..39)</text>
<text text-anchor="middle" x="430.84" y="-448.38" font-family="Times New Roman,serif" font-size="14.00">Count: 243</text>
<text text-anchor="middle" x="430.84" y="-433.38" font-family="Times New Roman,serif" font-size="14.00">Normalized count: Infinity</text>
<text text-anchor="middle" x="430.84" y="-418.38" font-family="Times New Roman,serif" font-size="14.00">Samples weight: 0.00</text>
</g>
<!-- BB1&#45;&gt;BB6 -->
<g id="edge2" class="edge">
<title>BB1&#45;&gt;BB6</title>
<path fill="none" stroke="black" d="M591.27,-537.57C564.59,-522.28 533.71,-504.57 506.22,-488.8"/>
<polygon fill="black" stroke="black" points="507.83,-485.7 497.42,-483.76 504.35,-491.77 507.83,-485.7"/>
</g>
<!-- BB2 -->
<g id="node3" class="node">
<title>BB2</title>
<ellipse fill="none" stroke="black" cx="217.84" cy="-312.42" rx="113.69" ry="48.17"/>
<text text-anchor="middle" x="217.84" y="-331.22" font-family="Times New Roman,serif" font-size="14.00">[14..18)</text>
<text text-anchor="middle" x="217.84" y="-316.22" font-family="Times New Roman,serif" font-size="14.00">Count: 257</text>
<text text-anchor="middle" x="217.84" y="-301.22" font-family="Times New Roman,serif" font-size="14.00">Normalized count: Infinity</text>
<text text-anchor="middle" x="217.84" y="-286.22" font-family="Times New Roman,serif" font-size="14.00">Samples weight: 0.00</text>
</g>
<!-- BB4 -->
<g id="node5" class="node">
<title>BB4</title>
<ellipse fill="none" stroke="black" cx="191.84" cy="-180.25" rx="113.69" ry="48.17"/>
<text text-anchor="middle" x="191.84" y="-199.05" font-family="Times New Roman,serif" font-size="14.00">[28..2d)</text>
<text text-anchor="middle" x="191.84" y="-184.05" font-family="Times New Roman,serif" font-size="14.00">Count: 29053</text>
<text text-anchor="middle" x="191.84" y="-169.05" font-family="Times New Roman,serif" font-size="14.00">Normalized count: Infinity</text>
<text text-anchor="middle" x="191.84" y="-154.05" font-family="Times New Roman,serif" font-size="14.00">Samples weight: 0.49</text>
</g>
<!-- BB2&#45;&gt;BB4 -->
<g id="edge3" class="edge">
<title>BB2&#45;&gt;BB4</title>
<path fill="none" stroke="black" d="M208.46,-264.42C206.75,-255.85 204.94,-246.83 203.18,-238.01"/>
<polygon fill="black" stroke="black" points="206.61,-237.29 201.22,-228.17 199.74,-238.67 206.61,-237.29"/>
</g>
<!-- BB3 -->
<g id="node4" class="node">
<title>BB3</title>
<ellipse fill="none" stroke="black" cx="113.84" cy="-48.08" rx="113.69" ry="48.17"/>
<text text-anchor="middle" x="113.84" y="-66.88" font-family="Times New Roman,serif" font-size="14.00">[18..28)</text>
<text text-anchor="middle" x="113.84" y="-51.88" font-family="Times New Roman,serif" font-size="14.00">Count: 28779</text>
<text text-anchor="middle" x="113.84" y="-36.88" font-family="Times New Roman,serif" font-size="14.00">Normalized count: Infinity</text>
<text text-anchor="middle" x="113.84" y="-21.88" font-family="Times New Roman,serif" font-size="14.00">Samples weight: 0.49</text>
</g>
<!-- BB3&#45;&gt;BB4 -->
<g id="edge4" class="edge">
<title>BB3&#45;&gt;BB4</title>
<path fill="none" stroke="black" d="M147.41,-94.32C153.5,-103.99 159.76,-114.32 165.6,-124.32"/>
<polygon fill="black" stroke="black" points="162.58,-126.09 170.62,-132.99 168.64,-122.58 162.58,-126.09"/>
</g>
<!-- BB4&#45;&gt;BB3 -->
<g id="edge5" class="edge">
<title>BB4&#45;&gt;BB3</title>
<path fill="none" stroke="black" d="M158.32,-134.09C152.25,-124.43 146,-114.13 140.16,-104.15"/>
<polygon fill="black" stroke="black" points="143.19,-102.39 135.16,-95.49 137.13,-105.9 143.19,-102.39"/>
</g>
<!-- BB5 -->
<g id="node6" class="node">
<title>BB5</title>
<ellipse fill="none" stroke="black" cx="359.84" cy="-48.08" rx="113.69" ry="48.17"/>
<text text-anchor="middle" x="359.84" y="-66.88" font-family="Times New Roman,serif" font-size="14.00">[2d..33)</text>
<text text-anchor="middle" x="359.84" y="-51.88" font-family="Times New Roman,serif" font-size="14.00">Count: 240</text>
<text text-anchor="middle" x="359.84" y="-36.88" font-family="Times New Roman,serif" font-size="14.00">Normalized count: Infinity</text>
<text text-anchor="middle" x="359.84" y="-21.88" font-family="Times New Roman,serif" font-size="14.00">Samples weight: 0.00</text>
</g>
<!-- BB4&#45;&gt;BB5 -->
<g id="edge6" class="edge">
<title>BB4&#45;&gt;BB5</title>
<path fill="none" stroke="black" d="M245.46,-137.71C262.13,-124.79 280.65,-110.45 297.84,-97.12"/>
<polygon fill="black" stroke="black" points="300.4,-99.57 306.16,-90.68 296.11,-94.04 300.4,-99.57"/>
</g>
<!-- BB5&#45;&gt;BB6 -->
<g id="edge7" class="edge">
<title>BB5&#45;&gt;BB6</title>
<path fill="none" stroke="black" d="M368.35,-96.33C381.42,-168.98 406.43,-307.9 420.52,-386.22"/>
<polygon fill="black" stroke="black" points="417.13,-387.17 422.35,-396.39 424.02,-385.93 417.13,-387.17"/>
</g>
<!-- BB6&#45;&gt;BB2 -->
<g id="edge8" class="edge">
<title>BB6&#45;&gt;BB2</title>
<path fill="none" stroke="black" d="M367.23,-404.7C342.99,-389.9 315.2,-372.91 290.21,-357.64"/>
<polygon fill="black" stroke="black" points="291.86,-354.55 281.5,-352.32 288.21,-360.52 291.86,-354.55"/>
</g>
<!-- BB7 -->
<g id="node8" class="node">
<title>BB7</title>
<ellipse fill="none" stroke="black" cx="553.84" cy="-312.42" rx="113.69" ry="48.17"/>
<text text-anchor="middle" x="553.84" y="-331.22" font-family="Times New Roman,serif" font-size="14.00">[39..3e)</text>
<text text-anchor="middle" x="553.84" y="-316.22" font-family="Times New Roman,serif" font-size="14.00">Count: 2</text>
<text text-anchor="middle" x="553.84" y="-301.22" font-family="Times New Roman,serif" font-size="14.00">Normalized count: Infinity</text>
<text text-anchor="middle" x="553.84" y="-286.22" font-family="Times New Roman,serif" font-size="14.00">Samples weight: 0.00</text>
</g>
<!-- BB6&#45;&gt;BB7 -->
<g id="edge9" class="edge">
<title>BB6&#45;&gt;BB7</title>
<path fill="none" stroke="black" d="M472.49,-399.51C483.01,-388.38 494.39,-376.33 505.22,-364.87"/>
<polygon fill="black" stroke="black" points="507.92,-367.11 512.24,-357.44 502.83,-362.3 507.92,-367.11"/>
</g>
<!-- BB9 -->
<g id="node10" class="node">
<title>BB9</title>
<ellipse fill="none" stroke="black" cx="605.84" cy="-180.25" rx="113.69" ry="48.17"/>
<text text-anchor="middle" x="605.84" y="-199.05" font-family="Times New Roman,serif" font-size="14.00">[4c..52)</text>
<text text-anchor="middle" x="605.84" y="-184.05" font-family="Times New Roman,serif" font-size="14.00">Count: 189</text>
<text text-anchor="middle" x="605.84" y="-169.05" font-family="Times New Roman,serif" font-size="14.00">Normalized count: Infinity</text>
<text text-anchor="middle" x="605.84" y="-154.05" font-family="Times New Roman,serif" font-size="14.00">Samples weight: 0.00</text>
</g>
<!-- BB7&#45;&gt;BB9 -->
<g id="edge10" class="edge">
<title>BB7&#45;&gt;BB9</title>
<path fill="none" stroke="black" d="M572.47,-264.79C576.02,-255.91 579.76,-246.53 583.42,-237.39"/>
<polygon fill="black" stroke="black" points="586.71,-238.57 587.17,-227.99 580.21,-235.98 586.71,-238.57"/>
</g>
<!-- BB8 -->
<g id="node9" class="node">
<title>BB8</title>
<ellipse fill="none" stroke="black" cx="605.84" cy="-48.08" rx="113.69" ry="48.17"/>
<text text-anchor="middle" x="605.84" y="-66.88" font-family="Times New Roman,serif" font-size="14.00">[3e..4c)</text>
<text text-anchor="middle" x="605.84" y="-51.88" font-family="Times New Roman,serif" font-size="14.00">Count: 186</text>
<text text-anchor="middle" x="605.84" y="-36.88" font-family="Times New Roman,serif" font-size="14.00">Normalized count: Infinity</text>
<text text-anchor="middle" x="605.84" y="-21.88" font-family="Times New Roman,serif" font-size="14.00">Samples weight: 0.00</text>
</g>
<!-- BB8&#45;&gt;BB9 -->
<g id="edge11" class="edge">
<title>BB8&#45;&gt;BB9</title>
<path fill="none" stroke="black" d="M612.36,-96.19C612.58,-104.45 612.65,-113.13 612.55,-121.64"/>
<polygon fill="black" stroke="black" points="609.05,-121.83 612.37,-131.89 616.05,-121.95 609.05,-121.83"/>
</g>
<!-- BB9&#45;&gt;BB8 -->
<g id="edge12" class="edge">
<title>BB9&#45;&gt;BB8</title>
<path fill="none" stroke="black" d="M599.32,-131.89C599.1,-123.62 599.04,-114.94 599.14,-106.43"/>
<polygon fill="black" stroke="black" points="602.64,-106.26 599.33,-96.19 595.64,-106.12 602.64,-106.26"/>
</g>
<!-- BB10 -->
<g id="node11" class="node">
<title>BB10</title>
<ellipse fill="none" stroke="black" cx="851.84" cy="-48.08" rx="113.69" ry="48.17"/>
<text text-anchor="middle" x="851.84" y="-66.88" font-family="Times New Roman,serif" font-size="14.00">[52..58)</text>
<text text-anchor="middle" x="851.84" y="-51.88" font-family="Times New Roman,serif" font-size="14.00">Count: 2</text>
<text text-anchor="middle" x="851.84" y="-36.88" font-family="Times New Roman,serif" font-size="14.00">Normalized count: Infinity</text>
<text text-anchor="middle" x="851.84" y="-21.88" font-family="Times New Roman,serif" font-size="14.00">Samples weight: 0.00</text>
</g>
<!-- BB9&#45;&gt;BB10 -->
<g id="edge13" class="edge">
<title>BB9&#45;&gt;BB10</title>
<path fill="none" stroke="black" d="M676.01,-142.12C706.12,-126.19 741.46,-107.49 772.52,-91.06"/>
<polygon fill="black" stroke="black" points="774.38,-94.03 781.59,-86.26 771.11,-87.84 774.38,-94.03"/>
</g>
<!-- BB10&#45;&gt;BB11 -->
<g id="edge14" class="edge">
<title>BB10&#45;&gt;BB11</title>
<path fill="none" stroke="black" d="M836.8,-95.92C821.45,-147.97 799.84,-234.81 799.84,-311.42 799.84,-445.58 799.84,-445.58 799.84,-445.58 799.84,-516.03 799.84,-597.13 799.84,-650.28"/>
<polygon fill="black" stroke="black" points="796.34,-650.52 799.84,-660.52 803.34,-650.52 796.34,-650.52"/>
</g>
<!-- BB11&#45;&gt;BB1 -->
<g id="edge15" class="edge">
<title>BB11&#45;&gt;BB1</title>
<path fill="none" stroke="black" d="M752.95,-664.93C739.87,-652.94 725.54,-639.8 712.07,-627.45"/>
<polygon fill="black" stroke="black" points="714.42,-624.86 704.68,-620.69 709.69,-630.02 714.42,-624.86"/>
</g>
<!-- BB12 -->
<g id="node13" class="node">
<title>BB12</title>
<ellipse fill="none" stroke="black" cx="936.84" cy="-576.75" rx="104.8" ry="48.17"/>
<text text-anchor="middle" x="936.84" y="-595.55" font-family="Times New Roman,serif" font-size="14.00">[5e..69)</text>
<text text-anchor="middle" x="936.84" y="-580.55" font-family="Times New Roman,serif" font-size="14.00">Count: 0</text>
<text text-anchor="middle" x="936.84" y="-565.55" font-family="Times New Roman,serif" font-size="14.00">Normalized count: NaN</text>
<text text-anchor="middle" x="936.84" y="-550.55" font-family="Times New Roman,serif" font-size="14.00">Samples weight: 0.00</text>
</g>
<!-- BB11&#45;&gt;BB12 -->
<g id="edge16" class="edge">
<title>BB11&#45;&gt;BB12</title>
<path fill="none" stroke="black" d="M845.46,-664.57C857.96,-652.7 871.6,-639.74 884.44,-627.54"/>
<polygon fill="black" stroke="black" points="887.05,-629.89 891.89,-620.46 882.23,-624.81 887.05,-629.89"/>
</g>
<!-- BB14 -->
<g id="node15" class="node">
<title>BB14</title>
<ellipse fill="none" stroke="black" cx="941.84" cy="-444.58" rx="113.69" ry="48.17"/>
<text text-anchor="middle" x="941.84" y="-463.38" font-family="Times New Roman,serif" font-size="14.00">[83..89)</text>
<text text-anchor="middle" x="941.84" y="-448.38" font-family="Times New Roman,serif" font-size="14.00">Count: 1</text>
<text text-anchor="middle" x="941.84" y="-433.38" font-family="Times New Roman,serif" font-size="14.00">Normalized count: Infinity</text>
<text text-anchor="middle" x="941.84" y="-418.38" font-family="Times New Roman,serif" font-size="14.00">Samples weight: 0.00</text>
</g>
<!-- BB12&#45;&gt;BB14 -->
<g id="edge17" class="edge">
<title>BB12&#45;&gt;BB14</title>
<path fill="none" stroke="black" d="M938.66,-528.39C938.98,-520.12 939.31,-511.44 939.64,-502.93"/>
<polygon fill="black" stroke="black" points="943.15,-502.82 940.03,-492.69 936.15,-502.55 943.15,-502.82"/>
</g>
<!-- BB13 -->
<g id="node14" class="node">
<title>BB13</title>
<ellipse fill="none" stroke="black" cx="941.84" cy="-312.42" rx="113.69" ry="48.17"/>
<text text-anchor="middle" x="941.84" y="-331.22" font-family="Times New Roman,serif" font-size="14.00">[69..83)</text>
<text text-anchor="middle" x="941.84" y="-316.22" font-family="Times New Roman,serif" font-size="14.00">Count: 1</text>
<text text-anchor="middle" x="941.84" y="-301.22" font-family="Times New Roman,serif" font-size="14.00">Normalized count: Infinity</text>
<text text-anchor="middle" x="941.84" y="-286.22" font-family="Times New Roman,serif" font-size="14.00">Samples weight: 0.00</text>
</g>
<!-- BB13&#45;&gt;BB14 -->
<g id="edge18" class="edge">
<title>BB13&#45;&gt;BB14</title>
<path fill="none" stroke="black" d="M948.36,-360.52C948.58,-368.78 948.65,-377.46 948.55,-385.97"/>
<polygon fill="black" stroke="black" points="945.05,-386.16 948.37,-396.22 952.05,-386.29 945.05,-386.16"/>
</g>
<!-- BB14&#45;&gt;BB13 -->
<g id="edge19" class="edge">
<title>BB14&#45;&gt;BB13</title>
<path fill="none" stroke="black" d="M935.32,-396.22C935.1,-387.95 935.04,-379.27 935.14,-370.77"/>
<polygon fill="black" stroke="black" points="938.64,-370.59 935.33,-360.52 931.64,-370.46 938.64,-370.59"/>
</g>
<!-- BB15 -->
<g id="node16" class="node">
<title>BB15</title>
<ellipse fill="none" stroke="black" cx="1177.84" cy="-312.42" rx="104.8" ry="48.17"/>
<text text-anchor="middle" x="1177.84" y="-331.22" font-family="Times New Roman,serif" font-size="14.00">[89..90)</text>
<text text-anchor="middle" x="1177.84" y="-316.22" font-family="Times New Roman,serif" font-size="14.00">Count: 0</text>
<text text-anchor="middle" x="1177.84" y="-301.22" font-family="Times New Roman,serif" font-size="14.00">Normalized count: NaN</text>
<text text-anchor="middle" x="1177.84" y="-286.22" font-family="Times New Roman,serif" font-size="14.00">Samples weight: 0.00</text>
</g>
<!-- BB14&#45;&gt;BB15 -->
<g id="edge20" class="edge">
<title>BB14&#45;&gt;BB15</title>
<path fill="none" stroke="black" d="M1010.11,-405.93C1039.1,-389.94 1072.99,-371.25 1102.7,-354.86"/>
<polygon fill="black" stroke="black" points="1104.7,-357.75 1111.77,-349.86 1101.32,-351.63 1104.7,-357.75"/>
</g>
</g>
</svg>
