<?xml version="1.0" encoding="UTF-8" standalone="no"?>
<!DOCTYPE svg PUBLIC "-//W3C//DTD SVG 1.1//EN"
 "http://www.w3.org/Graphics/SVG/1.1/DTD/svg11.dtd">
<!-- Generated by graphviz version 2.47.0 (20210316.0004)
 -->
<!-- Title: G Pages: 1 -->
<svg width="2881pt" height="1690pt"
 viewBox="0.00 0.00 2881.22 1690.16" xmlns="http://www.w3.org/2000/svg" xmlns:xlink="http://www.w3.org/1999/xlink">
<g id="graph0" class="graph" transform="scale(1 1) rotate(0) translate(4 1686.16)">
<title>G</title>
<polygon fill="white" stroke="transparent" points="-4,4 -4,-1686.16 2877.22,-1686.16 2877.22,4 -4,4"/>
<!-- BB0 -->
<g id="node1" class="node">
<title>BB0</title>
<ellipse fill="none" stroke="black" cx="621.14" cy="-1634.08" rx="103.48" ry="48.17"/>
<text text-anchor="middle" x="621.14" y="-1652.88" font-family="Times New Roman,serif" font-size="14.00">[0..15)</text>
<text text-anchor="middle" x="621.14" y="-1637.88" font-family="Times New Roman,serif" font-size="14.00">Count: 2500</text>
<text text-anchor="middle" x="621.14" y="-1622.88" font-family="Times New Roman,serif" font-size="14.00">Normalized count: 1.00</text>
<text text-anchor="middle" x="621.14" y="-1607.88" font-family="Times New Roman,serif" font-size="14.00">Samples weight: 0.00</text>
</g>
<!-- BB9 -->
<g id="node10" class="node">
<title>BB9</title>
<ellipse fill="none" stroke="black" cx="621.14" cy="-1501.92" rx="113.27" ry="48.17"/>
<text text-anchor="middle" x="621.14" y="-1520.72" font-family="Times New Roman,serif" font-size="14.00">[6d..71)</text>
<text text-anchor="middle" x="621.14" y="-1505.72" font-family="Times New Roman,serif" font-size="14.00">Count: 255000</text>
<text text-anchor="middle" x="621.14" y="-1490.72" font-family="Times New Roman,serif" font-size="14.00">Normalized count: 102.00</text>
<text text-anchor="middle" x="621.14" y="-1475.72" font-family="Times New Roman,serif" font-size="14.00">Samples weight: 0.00</text>
</g>
<!-- BB0&#45;&gt;BB9 -->
<g id="edge1" class="edge">
<title>BB0&#45;&gt;BB9</title>
<path fill="none" stroke="black" d="M621.14,-1585.72C621.14,-1577.45 621.14,-1568.77 621.14,-1560.27"/>
<polygon fill="black" stroke="black" points="624.64,-1560.02 621.14,-1550.02 617.64,-1560.02 624.64,-1560.02"/>
</g>
<!-- BB1 -->
<g id="node2" class="node">
<title>BB1</title>
<ellipse fill="none" stroke="black" cx="621.14" cy="-1369.75" rx="113.27" ry="48.17"/>
<text text-anchor="middle" x="621.14" y="-1388.55" font-family="Times New Roman,serif" font-size="14.00">[15..24)</text>
<text text-anchor="middle" x="621.14" y="-1373.55" font-family="Times New Roman,serif" font-size="14.00">Count: 252500</text>
<text text-anchor="middle" x="621.14" y="-1358.55" font-family="Times New Roman,serif" font-size="14.00">Normalized count: 101.00</text>
<text text-anchor="middle" x="621.14" y="-1343.55" font-family="Times New Roman,serif" font-size="14.00">Samples weight: 0.00</text>
</g>
<!-- BB5 -->
<g id="node6" class="node">
<title>BB5</title>
<ellipse fill="none" stroke="black" cx="621.14" cy="-1237.58" rx="122.16" ry="48.17"/>
<text text-anchor="middle" x="621.14" y="-1256.38" font-family="Times New Roman,serif" font-size="14.00">[44..49)</text>
<text text-anchor="middle" x="621.14" y="-1241.38" font-family="Times New Roman,serif" font-size="14.00">Count: 25755000</text>
<text text-anchor="middle" x="621.14" y="-1226.38" font-family="Times New Roman,serif" font-size="14.00">Normalized count: 10302.00</text>
<text text-anchor="middle" x="621.14" y="-1211.38" font-family="Times New Roman,serif" font-size="14.00">Samples weight: 0.01</text>
</g>
<!-- BB1&#45;&gt;BB5 -->
<g id="edge2" class="edge">
<title>BB1&#45;&gt;BB5</title>
<path fill="none" stroke="black" d="M621.14,-1321.39C621.14,-1313.12 621.14,-1304.44 621.14,-1295.93"/>
<polygon fill="black" stroke="black" points="624.64,-1295.69 621.14,-1285.69 617.64,-1295.69 624.64,-1295.69"/>
</g>
<!-- BB2 -->
<g id="node3" class="node">
<title>BB2</title>
<ellipse fill="none" stroke="black" cx="621.14" cy="-1105.42" rx="122.16" ry="48.17"/>
<text text-anchor="middle" x="621.14" y="-1124.22" font-family="Times New Roman,serif" font-size="14.00">[24..32)</text>
<text text-anchor="middle" x="621.14" y="-1109.22" font-family="Times New Roman,serif" font-size="14.00">Count: 25502500</text>
<text text-anchor="middle" x="621.14" y="-1094.22" font-family="Times New Roman,serif" font-size="14.00">Normalized count: 10201.00</text>
<text text-anchor="middle" x="621.14" y="-1079.22" font-family="Times New Roman,serif" font-size="14.00">Samples weight: 0.01</text>
</g>
<!-- BB3 -->
<g id="node4" class="node">
<title>BB3</title>
<ellipse fill="none" stroke="black" cx="581.14" cy="-973.25" rx="113.27" ry="48.17"/>
<text text-anchor="middle" x="581.14" y="-992.05" font-family="Times New Roman,serif" font-size="14.00">[32..3e)</text>
<text text-anchor="middle" x="581.14" y="-977.05" font-family="Times New Roman,serif" font-size="14.00">Count: 1330000</text>
<text text-anchor="middle" x="581.14" y="-962.05" font-family="Times New Roman,serif" font-size="14.00">Normalized count: 532.00</text>
<text text-anchor="middle" x="581.14" y="-947.05" font-family="Times New Roman,serif" font-size="14.00">Samples weight: 0.00</text>
</g>
<!-- BB2&#45;&gt;BB3 -->
<g id="edge4" class="edge">
<title>BB2&#45;&gt;BB3</title>
<path fill="none" stroke="black" d="M606.7,-1057.42C604.06,-1048.85 601.29,-1039.82 598.58,-1031.01"/>
<polygon fill="black" stroke="black" points="601.84,-1029.7 595.56,-1021.17 595.15,-1031.76 601.84,-1029.7"/>
</g>
<!-- BB4 -->
<g id="node5" class="node">
<title>BB4</title>
<ellipse fill="none" stroke="black" cx="834.14" cy="-973.25" rx="122.16" ry="48.17"/>
<text text-anchor="middle" x="834.14" y="-992.05" font-family="Times New Roman,serif" font-size="14.00">[3e..44)</text>
<text text-anchor="middle" x="834.14" y="-977.05" font-family="Times New Roman,serif" font-size="14.00">Count: 25502500</text>
<text text-anchor="middle" x="834.14" y="-962.05" font-family="Times New Roman,serif" font-size="14.00">Normalized count: 10201.00</text>
<text text-anchor="middle" x="834.14" y="-947.05" font-family="Times New Roman,serif" font-size="14.00">Samples weight: 0.01</text>
</g>
<!-- BB2&#45;&gt;BB4 -->
<g id="edge3" class="edge">
<title>BB2&#45;&gt;BB4</title>
<path fill="none" stroke="black" d="M686.2,-1064.65C709.63,-1050.34 736.22,-1034.08 760.34,-1019.35"/>
<polygon fill="black" stroke="black" points="762.4,-1022.19 769.1,-1013.99 758.75,-1016.22 762.4,-1022.19"/>
</g>
<!-- BB3&#45;&gt;BB4 -->
<g id="edge5" class="edge">
<title>BB3&#45;&gt;BB4</title>
<path fill="none" stroke="black" d="M694.3,-973.25C696.75,-973.25 699.21,-973.25 701.67,-973.25"/>
<polygon fill="black" stroke="black" points="701.78,-976.75 711.78,-973.25 701.78,-969.75 701.78,-976.75"/>
</g>
<!-- BB4&#45;&gt;BB5 -->
<g id="edge6" class="edge">
<title>BB4&#45;&gt;BB5</title>
<path fill="none" stroke="black" d="M820.96,-1021.1C808.23,-1059.92 785.88,-1114.82 752.14,-1153.5 738.67,-1168.93 721.65,-1182.53 704.36,-1194.02"/>
<polygon fill="black" stroke="black" points="702.38,-1191.13 695.87,-1199.49 706.17,-1197.02 702.38,-1191.13"/>
</g>
<!-- BB5&#45;&gt;BB2 -->
<g id="edge7" class="edge">
<title>BB5&#45;&gt;BB2</title>
<path fill="none" stroke="black" d="M621.14,-1189.22C621.14,-1180.95 621.14,-1172.27 621.14,-1163.77"/>
<polygon fill="black" stroke="black" points="624.64,-1163.52 621.14,-1153.52 617.64,-1163.52 624.64,-1163.52"/>
</g>
<!-- BB6 -->
<g id="node7" class="node">
<title>BB6</title>
<ellipse fill="none" stroke="black" cx="347.14" cy="-1105.42" rx="113.27" ry="48.17"/>
<text text-anchor="middle" x="347.14" y="-1124.22" font-family="Times New Roman,serif" font-size="14.00">[49..55)</text>
<text text-anchor="middle" x="347.14" y="-1109.22" font-family="Times New Roman,serif" font-size="14.00">Count: 252500</text>
<text text-anchor="middle" x="347.14" y="-1094.22" font-family="Times New Roman,serif" font-size="14.00">Normalized count: 101.00</text>
<text text-anchor="middle" x="347.14" y="-1079.22" font-family="Times New Roman,serif" font-size="14.00">Samples weight: 0.00</text>
</g>
<!-- BB5&#45;&gt;BB6 -->
<g id="edge8" class="edge">
<title>BB5&#45;&gt;BB6</title>
<path fill="none" stroke="black" d="M544.08,-1199.98C508.77,-1183.2 466.84,-1163.28 430.76,-1146.14"/>
<polygon fill="black" stroke="black" points="432.26,-1142.98 421.72,-1141.85 429.25,-1149.3 432.26,-1142.98"/>
</g>
<!-- BB7 -->
<g id="node8" class="node">
<title>BB7</title>
<ellipse fill="none" stroke="black" cx="347.14" cy="-973.25" rx="103.48" ry="48.17"/>
<text text-anchor="middle" x="347.14" y="-992.05" font-family="Times New Roman,serif" font-size="14.00">[55..57)</text>
<text text-anchor="middle" x="347.14" y="-977.05" font-family="Times New Roman,serif" font-size="14.00">Count: 0</text>
<text text-anchor="middle" x="347.14" y="-962.05" font-family="Times New Roman,serif" font-size="14.00">Normalized count: 0.00</text>
<text text-anchor="middle" x="347.14" y="-947.05" font-family="Times New Roman,serif" font-size="14.00">Samples weight: 0.00</text>
</g>
<!-- BB6&#45;&gt;BB7 -->
<g id="edge10" class="edge">
<title>BB6&#45;&gt;BB7</title>
<path fill="none" stroke="black" d="M347.14,-1057.05C347.14,-1048.79 347.14,-1040.1 347.14,-1031.6"/>
<polygon fill="black" stroke="black" points="350.64,-1031.36 347.14,-1021.36 343.64,-1031.36 350.64,-1031.36"/>
</g>
<!-- BB8 -->
<g id="node9" class="node">
<title>BB8</title>
<ellipse fill="none" stroke="black" cx="113.14" cy="-973.25" rx="113.27" ry="48.17"/>
<text text-anchor="middle" x="113.14" y="-992.05" font-family="Times New Roman,serif" font-size="14.00">[57..6d)</text>
<text text-anchor="middle" x="113.14" y="-977.05" font-family="Times New Roman,serif" font-size="14.00">Count: 252500</text>
<text text-anchor="middle" x="113.14" y="-962.05" font-family="Times New Roman,serif" font-size="14.00">Normalized count: 101.00</text>
<text text-anchor="middle" x="113.14" y="-947.05" font-family="Times New Roman,serif" font-size="14.00">Samples weight: 0.00</text>
</g>
<!-- BB6&#45;&gt;BB8 -->
<g id="edge9" class="edge">
<title>BB6&#45;&gt;BB8</title>
<path fill="none" stroke="black" d="M279.45,-1066.77C251.44,-1051.18 218.81,-1033.03 189.91,-1016.96"/>
<polygon fill="black" stroke="black" points="191.51,-1013.84 181.07,-1012.04 188.11,-1019.96 191.51,-1013.84"/>
</g>
<!-- BB8&#45;&gt;BB9 -->
<g id="edge11" class="edge">
<title>BB8&#45;&gt;BB9</title>
<path fill="none" stroke="black" d="M137.86,-1020.51C158.86,-1057.98 190.95,-1111.3 225.14,-1153.5 331.65,-1284.97 367.85,-1311.09 499.14,-1417.83 515.28,-1430.96 533.46,-1444.12 550.76,-1455.97"/>
<polygon fill="black" stroke="black" points="548.93,-1458.96 559.17,-1461.68 552.86,-1453.17 548.93,-1458.96"/>
</g>
<!-- BB9&#45;&gt;BB1 -->
<g id="edge12" class="edge">
<title>BB9&#45;&gt;BB1</title>
<path fill="none" stroke="black" d="M621.14,-1453.55C621.14,-1445.29 621.14,-1436.6 621.14,-1428.1"/>
<polygon fill="black" stroke="black" points="624.64,-1427.86 621.14,-1417.86 617.64,-1427.86 624.64,-1427.86"/>
</g>
<!-- BB10 -->
<g id="node11" class="node">
<title>BB10</title>
<ellipse fill="none" stroke="black" cx="888.14" cy="-1369.75" rx="103.48" ry="48.17"/>
<text text-anchor="middle" x="888.14" y="-1388.55" font-family="Times New Roman,serif" font-size="14.00">[71..79)</text>
<text text-anchor="middle" x="888.14" y="-1373.55" font-family="Times New Roman,serif" font-size="14.00">Count: 2500</text>
<text text-anchor="middle" x="888.14" y="-1358.55" font-family="Times New Roman,serif" font-size="14.00">Normalized count: 1.00</text>
<text text-anchor="middle" x="888.14" y="-1343.55" font-family="Times New Roman,serif" font-size="14.00">Samples weight: 0.00</text>
</g>
<!-- BB9&#45;&gt;BB10 -->
<g id="edge13" class="edge">
<title>BB9&#45;&gt;BB10</title>
<path fill="none" stroke="black" d="M694.45,-1465.17C729.89,-1447.9 772.48,-1427.13 808.69,-1409.48"/>
<polygon fill="black" stroke="black" points="810.3,-1412.59 817.75,-1405.06 807.23,-1406.3 810.3,-1412.59"/>
</g>
<!-- BB40 -->
<g id="node41" class="node">
<title>BB40</title>
<ellipse fill="none" stroke="black" cx="1049.14" cy="-1237.58" rx="113.27" ry="48.17"/>
<text text-anchor="middle" x="1049.14" y="-1256.38" font-family="Times New Roman,serif" font-size="14.00">[1d7..1df)</text>
<text text-anchor="middle" x="1049.14" y="-1241.38" font-family="Times New Roman,serif" font-size="14.00">Count: 255000</text>
<text text-anchor="middle" x="1049.14" y="-1226.38" font-family="Times New Roman,serif" font-size="14.00">Normalized count: 102.00</text>
<text text-anchor="middle" x="1049.14" y="-1211.38" font-family="Times New Roman,serif" font-size="14.00">Samples weight: 0.00</text>
</g>
<!-- BB10&#45;&gt;BB40 -->
<g id="edge14" class="edge">
<title>BB10&#45;&gt;BB40</title>
<path fill="none" stroke="black" d="M939.08,-1327.56C955.07,-1314.63 972.87,-1300.24 989.41,-1286.87"/>
<polygon fill="black" stroke="black" points="991.84,-1289.4 997.42,-1280.39 987.44,-1283.96 991.84,-1289.4"/>
</g>
<!-- BB11 -->
<g id="node12" class="node">
<title>BB11</title>
<ellipse fill="none" stroke="black" cx="2225.14" cy="-1105.42" rx="113.27" ry="48.17"/>
<text text-anchor="middle" x="2225.14" y="-1124.22" font-family="Times New Roman,serif" font-size="14.00">[79..7d)</text>
<text text-anchor="middle" x="2225.14" y="-1109.22" font-family="Times New Roman,serif" font-size="14.00">Count: 252500</text>
<text text-anchor="middle" x="2225.14" y="-1094.22" font-family="Times New Roman,serif" font-size="14.00">Normalized count: 101.00</text>
<text text-anchor="middle" x="2225.14" y="-1079.22" font-family="Times New Roman,serif" font-size="14.00">Samples weight: 0.00</text>
</g>
<!-- BB12 -->
<g id="node13" class="node">
<title>BB12</title>
<ellipse fill="none" stroke="black" cx="2483.14" cy="-973.25" rx="113.27" ry="48.17"/>
<text text-anchor="middle" x="2483.14" y="-992.05" font-family="Times New Roman,serif" font-size="14.00">[7d..81)</text>
<text text-anchor="middle" x="2483.14" y="-977.05" font-family="Times New Roman,serif" font-size="14.00">Count: 250000</text>
<text text-anchor="middle" x="2483.14" y="-962.05" font-family="Times New Roman,serif" font-size="14.00">Normalized count: 100.00</text>
<text text-anchor="middle" x="2483.14" y="-947.05" font-family="Times New Roman,serif" font-size="14.00">Samples weight: 0.00</text>
</g>
<!-- BB11&#45;&gt;BB12 -->
<g id="edge16" class="edge">
<title>BB11&#45;&gt;BB12</title>
<path fill="none" stroke="black" d="M2297,-1068.16C2329.58,-1051.72 2368.24,-1032.22 2401.87,-1015.25"/>
<polygon fill="black" stroke="black" points="2403.86,-1018.17 2411.21,-1010.54 2400.7,-1011.92 2403.86,-1018.17"/>
</g>
<!-- BB19 -->
<g id="node20" class="node">
<title>BB19</title>
<ellipse fill="none" stroke="black" cx="2225.14" cy="-973.25" rx="113.27" ry="48.17"/>
<text text-anchor="middle" x="2225.14" y="-992.05" font-family="Times New Roman,serif" font-size="14.00">[bc..cb)</text>
<text text-anchor="middle" x="2225.14" y="-977.05" font-family="Times New Roman,serif" font-size="14.00">Count: 252500</text>
<text text-anchor="middle" x="2225.14" y="-962.05" font-family="Times New Roman,serif" font-size="14.00">Normalized count: 101.00</text>
<text text-anchor="middle" x="2225.14" y="-947.05" font-family="Times New Roman,serif" font-size="14.00">Samples weight: 0.00</text>
</g>
<!-- BB11&#45;&gt;BB19 -->
<g id="edge15" class="edge">
<title>BB11&#45;&gt;BB19</title>
<path fill="none" stroke="black" d="M2225.14,-1057.05C2225.14,-1048.79 2225.14,-1040.1 2225.14,-1031.6"/>
<polygon fill="black" stroke="black" points="2228.64,-1031.36 2225.14,-1021.36 2221.64,-1031.36 2228.64,-1031.36"/>
</g>
<!-- BB18 -->
<g id="node19" class="node">
<title>BB18</title>
<ellipse fill="none" stroke="black" cx="2491.14" cy="-841.08" rx="118.17" ry="48.17"/>
<text text-anchor="middle" x="2491.14" y="-859.88" font-family="Times New Roman,serif" font-size="14.00">[b7..bc)</text>
<text text-anchor="middle" x="2491.14" y="-844.88" font-family="Times New Roman,serif" font-size="14.00">Count: 12875000</text>
<text text-anchor="middle" x="2491.14" y="-829.88" font-family="Times New Roman,serif" font-size="14.00">Normalized count: 5150.00</text>
<text text-anchor="middle" x="2491.14" y="-814.88" font-family="Times New Roman,serif" font-size="14.00">Samples weight: 0.01</text>
</g>
<!-- BB12&#45;&gt;BB18 -->
<g id="edge17" class="edge">
<title>BB12&#45;&gt;BB18</title>
<path fill="none" stroke="black" d="M2486.05,-924.89C2486.56,-916.62 2487.09,-907.94 2487.61,-899.43"/>
<polygon fill="black" stroke="black" points="2491.12,-899.39 2488.24,-889.19 2484.13,-898.96 2491.12,-899.39"/>
</g>
<!-- BB13 -->
<g id="node14" class="node">
<title>BB13</title>
<ellipse fill="none" stroke="black" cx="2501.14" cy="-708.92" rx="118.17" ry="48.17"/>
<text text-anchor="middle" x="2501.14" y="-727.72" font-family="Times New Roman,serif" font-size="14.00">[81..8b)</text>
<text text-anchor="middle" x="2501.14" y="-712.72" font-family="Times New Roman,serif" font-size="14.00">Count: 12625000</text>
<text text-anchor="middle" x="2501.14" y="-697.72" font-family="Times New Roman,serif" font-size="14.00">Normalized count: 5050.00</text>
<text text-anchor="middle" x="2501.14" y="-682.72" font-family="Times New Roman,serif" font-size="14.00">Samples weight: 0.01</text>
</g>
<!-- BB14 -->
<g id="node15" class="node">
<title>BB14</title>
<ellipse fill="none" stroke="black" cx="2501.14" cy="-576.75" rx="118.17" ry="48.17"/>
<text text-anchor="middle" x="2501.14" y="-595.55" font-family="Times New Roman,serif" font-size="14.00">[8b..90)</text>
<text text-anchor="middle" x="2501.14" y="-580.55" font-family="Times New Roman,serif" font-size="14.00">Count: 12375000</text>
<text text-anchor="middle" x="2501.14" y="-565.55" font-family="Times New Roman,serif" font-size="14.00">Normalized count: 4950.00</text>
<text text-anchor="middle" x="2501.14" y="-550.55" font-family="Times New Roman,serif" font-size="14.00">Samples weight: 0.01</text>
</g>
<!-- BB13&#45;&gt;BB14 -->
<g id="edge19" class="edge">
<title>BB13&#45;&gt;BB14</title>
<path fill="none" stroke="black" d="M2501.14,-660.55C2501.14,-652.29 2501.14,-643.6 2501.14,-635.1"/>
<polygon fill="black" stroke="black" points="2504.64,-634.86 2501.14,-624.86 2497.64,-634.86 2504.64,-634.86"/>
</g>
<!-- BB17 -->
<g id="node18" class="node">
<title>BB17</title>
<ellipse fill="none" stroke="black" cx="2755.14" cy="-576.75" rx="118.17" ry="48.17"/>
<text text-anchor="middle" x="2755.14" y="-595.55" font-family="Times New Roman,serif" font-size="14.00">[ac..b7)</text>
<text text-anchor="middle" x="2755.14" y="-580.55" font-family="Times New Roman,serif" font-size="14.00">Count: 12625000</text>
<text text-anchor="middle" x="2755.14" y="-565.55" font-family="Times New Roman,serif" font-size="14.00">Normalized count: 5050.00</text>
<text text-anchor="middle" x="2755.14" y="-550.55" font-family="Times New Roman,serif" font-size="14.00">Samples weight: 0.01</text>
</g>
<!-- BB13&#45;&gt;BB17 -->
<g id="edge18" class="edge">
<title>BB13&#45;&gt;BB17</title>
<path fill="none" stroke="black" d="M2573.58,-670.79C2604.81,-654.79 2641.48,-636 2673.65,-619.51"/>
<polygon fill="black" stroke="black" points="2675.29,-622.6 2682.59,-614.92 2672.1,-616.37 2675.29,-622.6"/>
</g>
<!-- BB16 -->
<g id="node17" class="node">
<title>BB16</title>
<ellipse fill="none" stroke="black" cx="2740.14" cy="-444.58" rx="127.06" ry="48.17"/>
<text text-anchor="middle" x="2740.14" y="-463.38" font-family="Times New Roman,serif" font-size="14.00">[a7..ac)</text>
<text text-anchor="middle" x="2740.14" y="-448.38" font-family="Times New Roman,serif" font-size="14.00">Count: 429000000</text>
<text text-anchor="middle" x="2740.14" y="-433.38" font-family="Times New Roman,serif" font-size="14.00">Normalized count: 171600.00</text>
<text text-anchor="middle" x="2740.14" y="-418.38" font-family="Times New Roman,serif" font-size="14.00">Samples weight: 0.22</text>
</g>
<!-- BB14&#45;&gt;BB16 -->
<g id="edge20" class="edge">
<title>BB14&#45;&gt;BB16</title>
<path fill="none" stroke="black" d="M2570.91,-537.75C2598.75,-522.58 2630.98,-505.03 2659.8,-489.34"/>
<polygon fill="black" stroke="black" points="2661.51,-492.39 2668.62,-484.53 2658.16,-486.24 2661.51,-492.39"/>
</g>
<!-- BB15 -->
<g id="node16" class="node">
<title>BB15</title>
<ellipse fill="none" stroke="black" cx="2740.14" cy="-312.42" rx="127.06" ry="48.17"/>
<text text-anchor="middle" x="2740.14" y="-331.22" font-family="Times New Roman,serif" font-size="14.00">[90..a7)</text>
<text text-anchor="middle" x="2740.14" y="-316.22" font-family="Times New Roman,serif" font-size="14.00">Count: 416625000</text>
<text text-anchor="middle" x="2740.14" y="-301.22" font-family="Times New Roman,serif" font-size="14.00">Normalized count: 166650.00</text>
<text text-anchor="middle" x="2740.14" y="-286.22" font-family="Times New Roman,serif" font-size="14.00">Samples weight: 0.21</text>
</g>
<!-- BB15&#45;&gt;BB16 -->
<g id="edge21" class="edge">
<title>BB15&#45;&gt;BB16</title>
<path fill="none" stroke="black" d="M2746.65,-360.52C2746.87,-368.78 2746.94,-377.46 2746.85,-385.97"/>
<polygon fill="black" stroke="black" points="2743.34,-386.16 2746.66,-396.22 2750.34,-386.29 2743.34,-386.16"/>
</g>
<!-- BB16&#45;&gt;BB15 -->
<g id="edge22" class="edge">
<title>BB16&#45;&gt;BB15</title>
<path fill="none" stroke="black" d="M2733.61,-396.22C2733.4,-387.95 2733.34,-379.27 2733.43,-370.77"/>
<polygon fill="black" stroke="black" points="2736.93,-370.59 2733.62,-360.52 2729.93,-370.46 2736.93,-370.59"/>
</g>
<!-- BB16&#45;&gt;BB17 -->
<g id="edge23" class="edge">
<title>BB16&#45;&gt;BB17</title>
<path fill="none" stroke="black" d="M2745.57,-492.69C2746.53,-501.04 2747.54,-509.82 2748.53,-518.42"/>
<polygon fill="black" stroke="black" points="2745.06,-518.85 2749.68,-528.39 2752.01,-518.05 2745.06,-518.85"/>
</g>
<!-- BB17&#45;&gt;BB18 -->
<g id="edge24" class="edge">
<title>BB17&#45;&gt;BB18</title>
<path fill="none" stroke="black" d="M2729.61,-624.06C2706.65,-662.81 2670.14,-717.88 2628.14,-757 2611.81,-772.2 2592.26,-786.04 2573.12,-797.87"/>
<polygon fill="black" stroke="black" points="2571.11,-794.99 2564.36,-803.16 2574.73,-800.98 2571.11,-794.99"/>
</g>
<!-- BB18&#45;&gt;BB13 -->
<g id="edge25" class="edge">
<title>BB18&#45;&gt;BB13</title>
<path fill="none" stroke="black" d="M2494.78,-792.72C2495.41,-784.45 2496.08,-775.77 2496.73,-767.27"/>
<polygon fill="black" stroke="black" points="2500.24,-767.26 2497.52,-757.02 2493.26,-766.73 2500.24,-767.26"/>
</g>
<!-- BB18&#45;&gt;BB19 -->
<g id="edge26" class="edge">
<title>BB18&#45;&gt;BB19</title>
<path fill="none" stroke="black" d="M2416.41,-878.65C2382.46,-895.27 2342.18,-914.97 2307.37,-932.01"/>
<polygon fill="black" stroke="black" points="2305.62,-928.97 2298.17,-936.51 2308.7,-935.26 2305.62,-928.97"/>
</g>
<!-- BB27 -->
<g id="node28" class="node">
<title>BB27</title>
<ellipse fill="none" stroke="black" cx="2218.14" cy="-841.08" rx="118.17" ry="48.17"/>
<text text-anchor="middle" x="2218.14" y="-859.88" font-family="Times New Roman,serif" font-size="14.00">[11b..11f)</text>
<text text-anchor="middle" x="2218.14" y="-844.88" font-family="Times New Roman,serif" font-size="14.00">Count: 13130000</text>
<text text-anchor="middle" x="2218.14" y="-829.88" font-family="Times New Roman,serif" font-size="14.00">Normalized count: 5252.00</text>
<text text-anchor="middle" x="2218.14" y="-814.88" font-family="Times New Roman,serif" font-size="14.00">Samples weight: 0.01</text>
</g>
<!-- BB19&#45;&gt;BB27 -->
<g id="edge27" class="edge">
<title>BB19&#45;&gt;BB27</title>
<path fill="none" stroke="black" d="M2222.59,-924.89C2222.15,-916.62 2221.68,-907.94 2221.22,-899.43"/>
<polygon fill="black" stroke="black" points="2224.7,-898.99 2220.67,-889.19 2217.71,-899.36 2224.7,-898.99"/>
</g>
<!-- BB20 -->
<g id="node21" class="node">
<title>BB20</title>
<ellipse fill="none" stroke="black" cx="2209.14" cy="-708.92" rx="118.17" ry="48.17"/>
<text text-anchor="middle" x="2209.14" y="-727.72" font-family="Times New Roman,serif" font-size="14.00">[cb..d6)</text>
<text text-anchor="middle" x="2209.14" y="-712.72" font-family="Times New Roman,serif" font-size="14.00">Count: 12877500</text>
<text text-anchor="middle" x="2209.14" y="-697.72" font-family="Times New Roman,serif" font-size="14.00">Normalized count: 5151.00</text>
<text text-anchor="middle" x="2209.14" y="-682.72" font-family="Times New Roman,serif" font-size="14.00">Samples weight: 0.01</text>
</g>
<!-- BB21 -->
<g id="node22" class="node">
<title>BB21</title>
<ellipse fill="none" stroke="black" cx="1955.14" cy="-576.75" rx="118.17" ry="48.17"/>
<text text-anchor="middle" x="1955.14" y="-595.55" font-family="Times New Roman,serif" font-size="14.00">[d6..db)</text>
<text text-anchor="middle" x="1955.14" y="-580.55" font-family="Times New Roman,serif" font-size="14.00">Count: 12625000</text>
<text text-anchor="middle" x="1955.14" y="-565.55" font-family="Times New Roman,serif" font-size="14.00">Normalized count: 5050.00</text>
<text text-anchor="middle" x="1955.14" y="-550.55" font-family="Times New Roman,serif" font-size="14.00">Samples weight: 0.01</text>
</g>
<!-- BB20&#45;&gt;BB21 -->
<g id="edge29" class="edge">
<title>BB20&#45;&gt;BB21</title>
<path fill="none" stroke="black" d="M2136.69,-670.79C2105.46,-654.79 2068.8,-636 2036.63,-619.51"/>
<polygon fill="black" stroke="black" points="2038.18,-616.37 2027.68,-614.92 2034.98,-622.6 2038.18,-616.37"/>
</g>
<!-- BB24 -->
<g id="node25" class="node">
<title>BB24</title>
<ellipse fill="none" stroke="black" cx="2209.14" cy="-576.75" rx="118.17" ry="48.17"/>
<text text-anchor="middle" x="2209.14" y="-595.55" font-family="Times New Roman,serif" font-size="14.00">[f8..112)</text>
<text text-anchor="middle" x="2209.14" y="-580.55" font-family="Times New Roman,serif" font-size="14.00">Count: 12877500</text>
<text text-anchor="middle" x="2209.14" y="-565.55" font-family="Times New Roman,serif" font-size="14.00">Normalized count: 5151.00</text>
<text text-anchor="middle" x="2209.14" y="-550.55" font-family="Times New Roman,serif" font-size="14.00">Samples weight: 0.01</text>
</g>
<!-- BB20&#45;&gt;BB24 -->
<g id="edge28" class="edge">
<title>BB20&#45;&gt;BB24</title>
<path fill="none" stroke="black" d="M2209.14,-660.55C2209.14,-652.29 2209.14,-643.6 2209.14,-635.1"/>
<polygon fill="black" stroke="black" points="2212.64,-634.86 2209.14,-624.86 2205.64,-634.86 2212.64,-634.86"/>
</g>
<!-- BB23 -->
<g id="node24" class="node">
<title>BB23</title>
<ellipse fill="none" stroke="black" cx="1955.14" cy="-444.58" rx="127.06" ry="48.17"/>
<text text-anchor="middle" x="1955.14" y="-463.38" font-family="Times New Roman,serif" font-size="14.00">[f2..f8)</text>
<text text-anchor="middle" x="1955.14" y="-448.38" font-family="Times New Roman,serif" font-size="14.00">Count: 441875000</text>
<text text-anchor="middle" x="1955.14" y="-433.38" font-family="Times New Roman,serif" font-size="14.00">Normalized count: 176750.00</text>
<text text-anchor="middle" x="1955.14" y="-418.38" font-family="Times New Roman,serif" font-size="14.00">Samples weight: 0.22</text>
</g>
<!-- BB21&#45;&gt;BB23 -->
<g id="edge30" class="edge">
<title>BB21&#45;&gt;BB23</title>
<path fill="none" stroke="black" d="M1955.14,-528.39C1955.14,-520.12 1955.14,-511.44 1955.14,-502.93"/>
<polygon fill="black" stroke="black" points="1958.64,-502.69 1955.14,-492.69 1951.64,-502.69 1958.64,-502.69"/>
</g>
<!-- BB22 -->
<g id="node23" class="node">
<title>BB22</title>
<ellipse fill="none" stroke="black" cx="1955.14" cy="-312.42" rx="127.06" ry="48.17"/>
<text text-anchor="middle" x="1955.14" y="-331.22" font-family="Times New Roman,serif" font-size="14.00">[db..f2)</text>
<text text-anchor="middle" x="1955.14" y="-316.22" font-family="Times New Roman,serif" font-size="14.00">Count: 429250000</text>
<text text-anchor="middle" x="1955.14" y="-301.22" font-family="Times New Roman,serif" font-size="14.00">Normalized count: 171700.00</text>
<text text-anchor="middle" x="1955.14" y="-286.22" font-family="Times New Roman,serif" font-size="14.00">Samples weight: 0.22</text>
</g>
<!-- BB22&#45;&gt;BB23 -->
<g id="edge31" class="edge">
<title>BB22&#45;&gt;BB23</title>
<path fill="none" stroke="black" d="M1961.65,-360.52C1961.87,-368.78 1961.94,-377.46 1961.85,-385.97"/>
<polygon fill="black" stroke="black" points="1958.34,-386.16 1961.66,-396.22 1965.34,-386.29 1958.34,-386.16"/>
</g>
<!-- BB23&#45;&gt;BB22 -->
<g id="edge32" class="edge">
<title>BB23&#45;&gt;BB22</title>
<path fill="none" stroke="black" d="M1948.61,-396.22C1948.4,-387.95 1948.34,-379.27 1948.43,-370.77"/>
<polygon fill="black" stroke="black" points="1951.93,-370.59 1948.62,-360.52 1944.93,-370.46 1951.93,-370.59"/>
</g>
<!-- BB23&#45;&gt;BB24 -->
<g id="edge33" class="edge">
<title>BB23&#45;&gt;BB24</title>
<path fill="none" stroke="black" d="M2029.45,-483.66C2060.21,-499.43 2096,-517.77 2127.5,-533.91"/>
<polygon fill="black" stroke="black" points="2126.2,-537.18 2136.69,-538.62 2129.39,-530.95 2126.2,-537.18"/>
</g>
<!-- BB25 -->
<g id="node26" class="node">
<title>BB25</title>
<ellipse fill="none" stroke="black" cx="2213.14" cy="-444.58" rx="113.27" ry="48.17"/>
<text text-anchor="middle" x="2213.14" y="-463.38" font-family="Times New Roman,serif" font-size="14.00">[112..117)</text>
<text text-anchor="middle" x="2213.14" y="-448.38" font-family="Times New Roman,serif" font-size="14.00">Count: 1012500</text>
<text text-anchor="middle" x="2213.14" y="-433.38" font-family="Times New Roman,serif" font-size="14.00">Normalized count: 405.00</text>
<text text-anchor="middle" x="2213.14" y="-418.38" font-family="Times New Roman,serif" font-size="14.00">Samples weight: 0.00</text>
</g>
<!-- BB24&#45;&gt;BB25 -->
<g id="edge35" class="edge">
<title>BB24&#45;&gt;BB25</title>
<path fill="none" stroke="black" d="M2210.59,-528.39C2210.85,-520.12 2211.11,-511.44 2211.37,-502.93"/>
<polygon fill="black" stroke="black" points="2214.88,-502.79 2211.69,-492.69 2207.88,-502.58 2214.88,-502.79"/>
</g>
<!-- BB26 -->
<g id="node27" class="node">
<title>BB26</title>
<ellipse fill="none" stroke="black" cx="2462.14" cy="-444.58" rx="118.17" ry="48.17"/>
<text text-anchor="middle" x="2462.14" y="-463.38" font-family="Times New Roman,serif" font-size="14.00">[117..11b)</text>
<text text-anchor="middle" x="2462.14" y="-448.38" font-family="Times New Roman,serif" font-size="14.00">Count: 12877500</text>
<text text-anchor="middle" x="2462.14" y="-433.38" font-family="Times New Roman,serif" font-size="14.00">Normalized count: 5151.00</text>
<text text-anchor="middle" x="2462.14" y="-418.38" font-family="Times New Roman,serif" font-size="14.00">Samples weight: 0.01</text>
</g>
<!-- BB24&#45;&gt;BB26 -->
<g id="edge34" class="edge">
<title>BB24&#45;&gt;BB26</title>
<path fill="none" stroke="black" d="M2281.3,-538.62C2312.4,-522.62 2348.92,-503.83 2380.97,-487.34"/>
<polygon fill="black" stroke="black" points="2382.59,-490.45 2389.88,-482.76 2379.39,-484.22 2382.59,-490.45"/>
</g>
<!-- BB25&#45;&gt;BB26 -->
<g id="edge36" class="edge">
<title>BB25&#45;&gt;BB26</title>
<path fill="none" stroke="black" d="M2326.45,-444.58C2328.91,-444.58 2331.37,-444.58 2333.83,-444.58"/>
<polygon fill="black" stroke="black" points="2333.94,-448.08 2343.94,-444.58 2333.94,-441.08 2333.94,-448.08"/>
</g>
<!-- BB26&#45;&gt;BB27 -->
<g id="edge37" class="edge">
<title>BB26&#45;&gt;BB27</title>
<path fill="none" stroke="black" d="M2406.67,-487.48C2394.18,-499.47 2382.24,-513.46 2374.14,-528.67 2325.76,-619.46 2390.88,-669.9 2336.14,-757 2326.52,-772.3 2312.95,-785.58 2298.42,-796.75"/>
<polygon fill="black" stroke="black" points="2296.26,-794 2290.27,-802.75 2300.4,-799.64 2296.26,-794"/>
</g>
<!-- BB27&#45;&gt;BB20 -->
<g id="edge38" class="edge">
<title>BB27&#45;&gt;BB20</title>
<path fill="none" stroke="black" d="M2214.86,-792.72C2214.29,-784.45 2213.69,-775.77 2213.1,-767.27"/>
<polygon fill="black" stroke="black" points="2216.58,-766.76 2212.39,-757.02 2209.59,-767.24 2216.58,-766.76"/>
</g>
<!-- BB28 -->
<g id="node29" class="node">
<title>BB28</title>
<ellipse fill="none" stroke="black" cx="1692.14" cy="-708.92" rx="113.27" ry="48.17"/>
<text text-anchor="middle" x="1692.14" y="-727.72" font-family="Times New Roman,serif" font-size="14.00">[11f..125)</text>
<text text-anchor="middle" x="1692.14" y="-712.72" font-family="Times New Roman,serif" font-size="14.00">Count: 252500</text>
<text text-anchor="middle" x="1692.14" y="-697.72" font-family="Times New Roman,serif" font-size="14.00">Normalized count: 101.00</text>
<text text-anchor="middle" x="1692.14" y="-682.72" font-family="Times New Roman,serif" font-size="14.00">Samples weight: 0.00</text>
</g>
<!-- BB27&#45;&gt;BB28 -->
<g id="edge39" class="edge">
<title>BB27&#45;&gt;BB28</title>
<path fill="none" stroke="black" d="M2118.27,-815.37C2026.9,-792.76 1892.12,-759.41 1798.71,-736.29"/>
<polygon fill="black" stroke="black" points="1799.49,-732.88 1788.95,-733.87 1797.81,-739.67 1799.49,-732.88"/>
</g>
<!-- BB29 -->
<g id="node30" class="node">
<title>BB29</title>
<ellipse fill="none" stroke="black" cx="1692.14" cy="-576.75" rx="108.38" ry="48.17"/>
<text text-anchor="middle" x="1692.14" y="-595.55" font-family="Times New Roman,serif" font-size="14.00">[125..12a)</text>
<text text-anchor="middle" x="1692.14" y="-580.55" font-family="Times New Roman,serif" font-size="14.00">Count: 240000</text>
<text text-anchor="middle" x="1692.14" y="-565.55" font-family="Times New Roman,serif" font-size="14.00">Normalized count: 96.00</text>
<text text-anchor="middle" x="1692.14" y="-550.55" font-family="Times New Roman,serif" font-size="14.00">Samples weight: 0.00</text>
</g>
<!-- BB28&#45;&gt;BB29 -->
<g id="edge41" class="edge">
<title>BB28&#45;&gt;BB29</title>
<path fill="none" stroke="black" d="M1692.14,-660.55C1692.14,-652.29 1692.14,-643.6 1692.14,-635.1"/>
<polygon fill="black" stroke="black" points="1695.64,-634.86 1692.14,-624.86 1688.64,-634.86 1695.64,-634.86"/>
</g>
<!-- BB33 -->
<g id="node34" class="node">
<title>BB33</title>
<ellipse fill="none" stroke="black" cx="1424.14" cy="-576.75" rx="113.27" ry="48.17"/>
<text text-anchor="middle" x="1424.14" y="-595.55" font-family="Times New Roman,serif" font-size="14.00">[17a..192)</text>
<text text-anchor="middle" x="1424.14" y="-580.55" font-family="Times New Roman,serif" font-size="14.00">Count: 252500</text>
<text text-anchor="middle" x="1424.14" y="-565.55" font-family="Times New Roman,serif" font-size="14.00">Normalized count: 101.00</text>
<text text-anchor="middle" x="1424.14" y="-550.55" font-family="Times New Roman,serif" font-size="14.00">Samples weight: 0.00</text>
</g>
<!-- BB28&#45;&gt;BB33 -->
<g id="edge40" class="edge">
<title>BB28&#45;&gt;BB33</title>
<path fill="none" stroke="black" d="M1618.55,-672.18C1583.98,-655.39 1542.64,-635.3 1506.97,-617.98"/>
<polygon fill="black" stroke="black" points="1508.08,-614.63 1497.56,-613.41 1505.03,-620.93 1508.08,-614.63"/>
</g>
<!-- BB31 -->
<g id="node32" class="node">
<title>BB31</title>
<ellipse fill="none" stroke="black" cx="1692.14" cy="-444.58" rx="118.17" ry="48.17"/>
<text text-anchor="middle" x="1692.14" y="-463.38" font-family="Times New Roman,serif" font-size="14.00">[14e..153)</text>
<text text-anchor="middle" x="1692.14" y="-448.38" font-family="Times New Roman,serif" font-size="14.00">Count: 24480000</text>
<text text-anchor="middle" x="1692.14" y="-433.38" font-family="Times New Roman,serif" font-size="14.00">Normalized count: 9792.00</text>
<text text-anchor="middle" x="1692.14" y="-418.38" font-family="Times New Roman,serif" font-size="14.00">Samples weight: 0.01</text>
</g>
<!-- BB29&#45;&gt;BB31 -->
<g id="edge42" class="edge">
<title>BB29&#45;&gt;BB31</title>
<path fill="none" stroke="black" d="M1692.14,-528.39C1692.14,-520.12 1692.14,-511.44 1692.14,-502.93"/>
<polygon fill="black" stroke="black" points="1695.64,-502.69 1692.14,-492.69 1688.64,-502.69 1695.64,-502.69"/>
</g>
<!-- BB30 -->
<g id="node31" class="node">
<title>BB30</title>
<ellipse fill="none" stroke="black" cx="1692.14" cy="-312.42" rx="118.17" ry="48.17"/>
<text text-anchor="middle" x="1692.14" y="-331.22" font-family="Times New Roman,serif" font-size="14.00">[12a..14e)</text>
<text text-anchor="middle" x="1692.14" y="-316.22" font-family="Times New Roman,serif" font-size="14.00">Count: 24240000</text>
<text text-anchor="middle" x="1692.14" y="-301.22" font-family="Times New Roman,serif" font-size="14.00">Normalized count: 9696.00</text>
<text text-anchor="middle" x="1692.14" y="-286.22" font-family="Times New Roman,serif" font-size="14.00">Samples weight: 0.01</text>
</g>
<!-- BB30&#45;&gt;BB31 -->
<g id="edge43" class="edge">
<title>BB30&#45;&gt;BB31</title>
<path fill="none" stroke="black" d="M1698.65,-360.52C1698.87,-368.78 1698.94,-377.46 1698.85,-385.97"/>
<polygon fill="black" stroke="black" points="1695.34,-386.16 1698.66,-396.22 1702.34,-386.29 1695.34,-386.16"/>
</g>
<!-- BB31&#45;&gt;BB30 -->
<g id="edge44" class="edge">
<title>BB31&#45;&gt;BB30</title>
<path fill="none" stroke="black" d="M1685.61,-396.22C1685.4,-387.95 1685.34,-379.27 1685.43,-370.77"/>
<polygon fill="black" stroke="black" points="1688.93,-370.59 1685.62,-360.52 1681.93,-370.46 1688.93,-370.59"/>
</g>
<!-- BB32 -->
<g id="node33" class="node">
<title>BB32</title>
<ellipse fill="none" stroke="black" cx="1448.14" cy="-312.42" rx="108.38" ry="48.17"/>
<text text-anchor="middle" x="1448.14" y="-331.22" font-family="Times New Roman,serif" font-size="14.00">[153..17a)</text>
<text text-anchor="middle" x="1448.14" y="-316.22" font-family="Times New Roman,serif" font-size="14.00">Count: 240000</text>
<text text-anchor="middle" x="1448.14" y="-301.22" font-family="Times New Roman,serif" font-size="14.00">Normalized count: 96.00</text>
<text text-anchor="middle" x="1448.14" y="-286.22" font-family="Times New Roman,serif" font-size="14.00">Samples weight: 0.00</text>
</g>
<!-- BB31&#45;&gt;BB32 -->
<g id="edge45" class="edge">
<title>BB31&#45;&gt;BB32</title>
<path fill="none" stroke="black" d="M1621.56,-405.93C1591.46,-389.87 1556.24,-371.09 1525.44,-354.65"/>
<polygon fill="black" stroke="black" points="1526.92,-351.48 1516.45,-349.86 1523.63,-357.66 1526.92,-351.48"/>
</g>
<!-- BB32&#45;&gt;BB33 -->
<g id="edge46" class="edge">
<title>BB32&#45;&gt;BB33</title>
<path fill="none" stroke="black" d="M1487.7,-357.59C1496.07,-369.43 1503.7,-382.79 1508.14,-396.5 1521.29,-437.17 1524.6,-453.22 1508.14,-492.67 1502.97,-505.03 1494.97,-516.5 1485.92,-526.72"/>
<polygon fill="black" stroke="black" points="1483.11,-524.6 1478.82,-534.29 1488.22,-529.39 1483.11,-524.6"/>
</g>
<!-- BB34 -->
<g id="node35" class="node">
<title>BB34</title>
<ellipse fill="none" stroke="black" cx="1396.14" cy="-444.58" rx="103.48" ry="48.17"/>
<text text-anchor="middle" x="1396.14" y="-463.38" font-family="Times New Roman,serif" font-size="14.00">[192..19b)</text>
<text text-anchor="middle" x="1396.14" y="-448.38" font-family="Times New Roman,serif" font-size="14.00">Count: 0</text>
<text text-anchor="middle" x="1396.14" y="-433.38" font-family="Times New Roman,serif" font-size="14.00">Normalized count: 0.00</text>
<text text-anchor="middle" x="1396.14" y="-418.38" font-family="Times New Roman,serif" font-size="14.00">Samples weight: 0.00</text>
</g>
<!-- BB33&#45;&gt;BB34 -->
<g id="edge48" class="edge">
<title>BB33&#45;&gt;BB34</title>
<path fill="none" stroke="black" d="M1414.03,-528.76C1412.18,-520.18 1410.24,-511.16 1408.35,-502.34"/>
<polygon fill="black" stroke="black" points="1411.76,-501.55 1406.23,-492.51 1404.91,-503.02 1411.76,-501.55"/>
</g>
<!-- BB35 -->
<g id="node36" class="node">
<title>BB35</title>
<ellipse fill="none" stroke="black" cx="1162.14" cy="-444.58" rx="113.27" ry="48.17"/>
<text text-anchor="middle" x="1162.14" y="-463.38" font-family="Times New Roman,serif" font-size="14.00">[19b..1a2)</text>
<text text-anchor="middle" x="1162.14" y="-448.38" font-family="Times New Roman,serif" font-size="14.00">Count: 252500</text>
<text text-anchor="middle" x="1162.14" y="-433.38" font-family="Times New Roman,serif" font-size="14.00">Normalized count: 101.00</text>
<text text-anchor="middle" x="1162.14" y="-418.38" font-family="Times New Roman,serif" font-size="14.00">Samples weight: 0.00</text>
</g>
<!-- BB33&#45;&gt;BB35 -->
<g id="edge47" class="edge">
<title>BB33&#45;&gt;BB35</title>
<path fill="none" stroke="black" d="M1351.5,-539.66C1318.14,-523.09 1278.43,-503.36 1244,-486.26"/>
<polygon fill="black" stroke="black" points="1245.42,-483.05 1234.91,-481.74 1242.31,-489.32 1245.42,-483.05"/>
</g>
<!-- BB34&#45;&gt;BB35 -->
<g id="edge49" class="edge">
<title>BB34&#45;&gt;BB35</title>
<path fill="none" stroke="black" d="M1292.45,-444.58C1290.15,-444.58 1287.85,-444.58 1285.56,-444.58"/>
<polygon fill="black" stroke="black" points="1285.48,-441.08 1275.48,-444.58 1285.48,-448.08 1285.48,-441.08"/>
</g>
<!-- BB36 -->
<g id="node37" class="node">
<title>BB36</title>
<ellipse fill="none" stroke="black" cx="1209.14" cy="-312.42" rx="113.27" ry="48.17"/>
<text text-anchor="middle" x="1209.14" y="-331.22" font-family="Times New Roman,serif" font-size="14.00">[1a2..1bb)</text>
<text text-anchor="middle" x="1209.14" y="-316.22" font-family="Times New Roman,serif" font-size="14.00">Count: 250000</text>
<text text-anchor="middle" x="1209.14" y="-301.22" font-family="Times New Roman,serif" font-size="14.00">Normalized count: 100.00</text>
<text text-anchor="middle" x="1209.14" y="-286.22" font-family="Times New Roman,serif" font-size="14.00">Samples weight: 0.00</text>
</g>
<!-- BB35&#45;&gt;BB36 -->
<g id="edge51" class="edge">
<title>BB35&#45;&gt;BB36</title>
<path fill="none" stroke="black" d="M1178.97,-396.96C1182.18,-388.08 1185.57,-378.7 1188.86,-369.56"/>
<polygon fill="black" stroke="black" points="1192.16,-370.75 1192.26,-360.15 1185.57,-368.37 1192.16,-370.75"/>
</g>
<!-- BB39 -->
<g id="node40" class="node">
<title>BB39</title>
<ellipse fill="none" stroke="black" cx="965.14" cy="-312.42" rx="113.27" ry="48.17"/>
<text text-anchor="middle" x="965.14" y="-331.22" font-family="Times New Roman,serif" font-size="14.00">[1d1..1d7)</text>
<text text-anchor="middle" x="965.14" y="-316.22" font-family="Times New Roman,serif" font-size="14.00">Count: 252500</text>
<text text-anchor="middle" x="965.14" y="-301.22" font-family="Times New Roman,serif" font-size="14.00">Normalized count: 101.00</text>
<text text-anchor="middle" x="965.14" y="-286.22" font-family="Times New Roman,serif" font-size="14.00">Samples weight: 0.00</text>
</g>
<!-- BB35&#45;&gt;BB39 -->
<g id="edge50" class="edge">
<title>BB35&#45;&gt;BB39</title>
<path fill="none" stroke="black" d="M1101.96,-403.82C1080.39,-389.57 1055.91,-373.39 1033.68,-358.71"/>
<polygon fill="black" stroke="black" points="1035.56,-355.75 1025.28,-353.16 1031.7,-361.59 1035.56,-355.75"/>
</g>
<!-- BB38 -->
<g id="node39" class="node">
<title>BB38</title>
<ellipse fill="none" stroke="black" cx="1087.14" cy="-180.25" rx="118.17" ry="48.17"/>
<text text-anchor="middle" x="1087.14" y="-199.05" font-family="Times New Roman,serif" font-size="14.00">[1cd..1d1)</text>
<text text-anchor="middle" x="1087.14" y="-184.05" font-family="Times New Roman,serif" font-size="14.00">Count: 12875000</text>
<text text-anchor="middle" x="1087.14" y="-169.05" font-family="Times New Roman,serif" font-size="14.00">Normalized count: 5150.00</text>
<text text-anchor="middle" x="1087.14" y="-154.05" font-family="Times New Roman,serif" font-size="14.00">Samples weight: 0.01</text>
</g>
<!-- BB36&#45;&gt;BB38 -->
<g id="edge52" class="edge">
<title>BB36&#45;&gt;BB38</title>
<path fill="none" stroke="black" d="M1167.83,-267.35C1157.51,-256.34 1146.35,-244.43 1135.71,-233.08"/>
<polygon fill="black" stroke="black" points="1138.21,-230.62 1128.81,-225.72 1133.1,-235.41 1138.21,-230.62"/>
</g>
<!-- BB37 -->
<g id="node38" class="node">
<title>BB37</title>
<ellipse fill="none" stroke="black" cx="1087.14" cy="-48.08" rx="118.17" ry="48.17"/>
<text text-anchor="middle" x="1087.14" y="-66.88" font-family="Times New Roman,serif" font-size="14.00">[1bb..1cd)</text>
<text text-anchor="middle" x="1087.14" y="-51.88" font-family="Times New Roman,serif" font-size="14.00">Count: 12625000</text>
<text text-anchor="middle" x="1087.14" y="-36.88" font-family="Times New Roman,serif" font-size="14.00">Normalized count: 5050.00</text>
<text text-anchor="middle" x="1087.14" y="-21.88" font-family="Times New Roman,serif" font-size="14.00">Samples weight: 0.01</text>
</g>
<!-- BB37&#45;&gt;BB38 -->
<g id="edge53" class="edge">
<title>BB37&#45;&gt;BB38</title>
<path fill="none" stroke="black" d="M1093.65,-96.19C1093.87,-104.45 1093.94,-113.13 1093.85,-121.64"/>
<polygon fill="black" stroke="black" points="1090.34,-121.83 1093.66,-131.89 1097.34,-121.95 1090.34,-121.83"/>
</g>
<!-- BB38&#45;&gt;BB37 -->
<g id="edge54" class="edge">
<title>BB38&#45;&gt;BB37</title>
<path fill="none" stroke="black" d="M1080.61,-131.89C1080.4,-123.62 1080.34,-114.94 1080.43,-106.43"/>
<polygon fill="black" stroke="black" points="1083.93,-106.26 1080.62,-96.19 1076.93,-106.12 1083.93,-106.26"/>
</g>
<!-- BB38&#45;&gt;BB39 -->
<g id="edge55" class="edge">
<title>BB38&#45;&gt;BB39</title>
<path fill="none" stroke="black" d="M1045.46,-225.72C1035.12,-236.75 1023.95,-248.66 1013.33,-260"/>
<polygon fill="black" stroke="black" points="1010.73,-257.66 1006.44,-267.35 1015.83,-262.45 1010.73,-257.66"/>
</g>
<!-- BB39&#45;&gt;BB40 -->
<g id="edge56" class="edge">
<title>BB39&#45;&gt;BB40</title>
<path fill="none" stroke="black" d="M970.63,-360.73C976.24,-413.21 984.14,-500.41 984.14,-575.75 984.14,-974.25 984.14,-974.25 984.14,-974.25 984.14,-1054.36 979.03,-1077.1 1003.14,-1153.5 1006.15,-1163.05 1010.32,-1172.75 1014.94,-1181.98"/>
<polygon fill="black" stroke="black" points="1011.94,-1183.8 1019.67,-1191.04 1018.14,-1180.56 1011.94,-1183.8"/>
</g>
<!-- BB40&#45;&gt;BB11 -->
<g id="edge57" class="edge">
<title>BB40&#45;&gt;BB11</title>
<path fill="none" stroke="black" d="M1158.19,-1224.51C1378.97,-1200.07 1877.25,-1144.92 2106.11,-1119.59"/>
<polygon fill="black" stroke="black" points="2106.59,-1123.06 2116.14,-1118.48 2105.82,-1116.1 2106.59,-1123.06"/>
</g>
<!-- BB41 -->
<g id="node42" class="node">
<title>BB41</title>
<ellipse fill="none" stroke="black" cx="1115.14" cy="-1105.42" rx="103.48" ry="48.17"/>
<text text-anchor="middle" x="1115.14" y="-1124.22" font-family="Times New Roman,serif" font-size="14.00">[1df..1e1)</text>
<text text-anchor="middle" x="1115.14" y="-1109.22" font-family="Times New Roman,serif" font-size="14.00">Count: 2500</text>
<text text-anchor="middle" x="1115.14" y="-1094.22" font-family="Times New Roman,serif" font-size="14.00">Normalized count: 1.00</text>
<text text-anchor="middle" x="1115.14" y="-1079.22" font-family="Times New Roman,serif" font-size="14.00">Samples weight: 0.00</text>
</g>
<!-- BB40&#45;&gt;BB41 -->
<g id="edge58" class="edge">
<title>BB40&#45;&gt;BB41</title>
<path fill="none" stroke="black" d="M1072.59,-1190.32C1077.31,-1181.02 1082.31,-1171.16 1087.16,-1161.58"/>
<polygon fill="black" stroke="black" points="1090.36,-1163.03 1091.76,-1152.52 1084.11,-1159.86 1090.36,-1163.03"/>
</g>
</g>
</svg>
