<?xml version="1.0" encoding="UTF-8" standalone="no"?>
<!DOCTYPE svg PUBLIC "-//W3C//DTD SVG 1.1//EN"
 "http://www.w3.org/Graphics/SVG/1.1/DTD/svg11.dtd">
<!-- Generated by graphviz version 2.47.0 (20210316.0004)
 -->
<!-- Title: G Pages: 1 -->
<svg width="1187pt" height="1558pt"
 viewBox="0.00 0.00 1187.50 1558.00" xmlns="http://www.w3.org/2000/svg" xmlns:xlink="http://www.w3.org/1999/xlink">
<g id="graph0" class="graph" transform="scale(1 1) rotate(0) translate(4 1554)">
<title>G</title>
<polygon fill="white" stroke="transparent" points="-4,4 -4,-1554 1183.5,-1554 1183.5,4 -4,4"/>
<!-- BB0 -->
<g id="node1" class="node">
<title>BB0</title>
<ellipse fill="none" stroke="black" cx="217.65" cy="-1501.92" rx="104.8" ry="48.17"/>
<text text-anchor="middle" x="217.65" y="-1520.72" font-family="Times New Roman,serif" font-size="14.00">[0..69)</text>
<text text-anchor="middle" x="217.65" y="-1505.72" font-family="Times New Roman,serif" font-size="14.00">Count: 0</text>
<text text-anchor="middle" x="217.65" y="-1490.72" font-family="Times New Roman,serif" font-size="14.00">Normalized count: NaN</text>
<text text-anchor="middle" x="217.65" y="-1475.72" font-family="Times New Roman,serif" font-size="14.00">Samples weight: 0.00</text>
</g>
<!-- BB1 -->
<g id="node2" class="node">
<title>BB1</title>
<ellipse fill="none" stroke="black" cx="104.65" cy="-1369.75" rx="104.8" ry="48.17"/>
<text text-anchor="middle" x="104.65" y="-1388.55" font-family="Times New Roman,serif" font-size="14.00">[69..74)</text>
<text text-anchor="middle" x="104.65" y="-1373.55" font-family="Times New Roman,serif" font-size="14.00">Count: 0</text>
<text text-anchor="middle" x="104.65" y="-1358.55" font-family="Times New Roman,serif" font-size="14.00">Normalized count: NaN</text>
<text text-anchor="middle" x="104.65" y="-1343.55" font-family="Times New Roman,serif" font-size="14.00">Samples weight: 0.00</text>
</g>
<!-- BB0&#45;&gt;BB1 -->
<g id="edge2" class="edge">
<title>BB0&#45;&gt;BB1</title>
<path fill="none" stroke="black" d="M179.4,-1456.85C169.82,-1445.82 159.47,-1433.89 149.6,-1422.53"/>
<polygon fill="black" stroke="black" points="152.07,-1420.03 142.87,-1414.77 146.78,-1424.62 152.07,-1420.03"/>
</g>
<!-- BB2 -->
<g id="node3" class="node">
<title>BB2</title>
<ellipse fill="none" stroke="black" cx="331.65" cy="-1369.75" rx="104.8" ry="48.17"/>
<text text-anchor="middle" x="331.65" y="-1388.55" font-family="Times New Roman,serif" font-size="14.00">[74..93)</text>
<text text-anchor="middle" x="331.65" y="-1373.55" font-family="Times New Roman,serif" font-size="14.00">Count: 0</text>
<text text-anchor="middle" x="331.65" y="-1358.55" font-family="Times New Roman,serif" font-size="14.00">Normalized count: NaN</text>
<text text-anchor="middle" x="331.65" y="-1343.55" font-family="Times New Roman,serif" font-size="14.00">Samples weight: 0.00</text>
</g>
<!-- BB0&#45;&gt;BB2 -->
<g id="edge1" class="edge">
<title>BB0&#45;&gt;BB2</title>
<path fill="none" stroke="black" d="M256.25,-1456.85C265.9,-1445.82 276.35,-1433.89 286.3,-1422.53"/>
<polygon fill="black" stroke="black" points="289.14,-1424.6 293.1,-1414.77 283.87,-1419.99 289.14,-1424.6"/>
</g>
<!-- BB1&#45;&gt;BB2 -->
<g id="edge3" class="edge">
<title>BB1&#45;&gt;BB2</title>
<path fill="none" stroke="black" d="M209.73,-1369.75C212.05,-1369.75 214.37,-1369.75 216.69,-1369.75"/>
<polygon fill="black" stroke="black" points="216.87,-1373.25 226.87,-1369.75 216.87,-1366.25 216.87,-1373.25"/>
</g>
<!-- BB3 -->
<g id="node4" class="node">
<title>BB3</title>
<ellipse fill="none" stroke="black" cx="218.65" cy="-1237.58" rx="104.8" ry="48.17"/>
<text text-anchor="middle" x="218.65" y="-1256.38" font-family="Times New Roman,serif" font-size="14.00">[93..9e)</text>
<text text-anchor="middle" x="218.65" y="-1241.38" font-family="Times New Roman,serif" font-size="14.00">Count: 0</text>
<text text-anchor="middle" x="218.65" y="-1226.38" font-family="Times New Roman,serif" font-size="14.00">Normalized count: NaN</text>
<text text-anchor="middle" x="218.65" y="-1211.38" font-family="Times New Roman,serif" font-size="14.00">Samples weight: 0.00</text>
</g>
<!-- BB2&#45;&gt;BB3 -->
<g id="edge5" class="edge">
<title>BB2&#45;&gt;BB3</title>
<path fill="none" stroke="black" d="M293.4,-1324.68C283.82,-1313.65 273.47,-1301.73 263.6,-1290.36"/>
<polygon fill="black" stroke="black" points="266.07,-1287.86 256.87,-1282.61 260.78,-1292.45 266.07,-1287.86"/>
</g>
<!-- BB4 -->
<g id="node5" class="node">
<title>BB4</title>
<ellipse fill="none" stroke="black" cx="445.65" cy="-1237.58" rx="104.8" ry="48.17"/>
<text text-anchor="middle" x="445.65" y="-1256.38" font-family="Times New Roman,serif" font-size="14.00">[9e..aa)</text>
<text text-anchor="middle" x="445.65" y="-1241.38" font-family="Times New Roman,serif" font-size="14.00">Count: 0</text>
<text text-anchor="middle" x="445.65" y="-1226.38" font-family="Times New Roman,serif" font-size="14.00">Normalized count: NaN</text>
<text text-anchor="middle" x="445.65" y="-1211.38" font-family="Times New Roman,serif" font-size="14.00">Samples weight: 0.00</text>
</g>
<!-- BB2&#45;&gt;BB4 -->
<g id="edge4" class="edge">
<title>BB2&#45;&gt;BB4</title>
<path fill="none" stroke="black" d="M370.25,-1324.68C379.9,-1313.65 390.35,-1301.73 400.3,-1290.36"/>
<polygon fill="black" stroke="black" points="403.14,-1292.43 407.1,-1282.61 397.87,-1287.82 403.14,-1292.43"/>
</g>
<!-- BB3&#45;&gt;BB4 -->
<g id="edge6" class="edge">
<title>BB3&#45;&gt;BB4</title>
<path fill="none" stroke="black" d="M323.73,-1237.58C326.05,-1237.58 328.37,-1237.58 330.69,-1237.58"/>
<polygon fill="black" stroke="black" points="330.87,-1241.08 340.87,-1237.58 330.87,-1234.08 330.87,-1241.08"/>
</g>
<!-- BB5 -->
<g id="node6" class="node">
<title>BB5</title>
<ellipse fill="none" stroke="black" cx="327.65" cy="-1105.42" rx="104.8" ry="48.17"/>
<text text-anchor="middle" x="327.65" y="-1124.22" font-family="Times New Roman,serif" font-size="14.00">[aa..b4)</text>
<text text-anchor="middle" x="327.65" y="-1109.22" font-family="Times New Roman,serif" font-size="14.00">Count: 0</text>
<text text-anchor="middle" x="327.65" y="-1094.22" font-family="Times New Roman,serif" font-size="14.00">Normalized count: NaN</text>
<text text-anchor="middle" x="327.65" y="-1079.22" font-family="Times New Roman,serif" font-size="14.00">Samples weight: 0.00</text>
</g>
<!-- BB4&#45;&gt;BB5 -->
<g id="edge8" class="edge">
<title>BB4&#45;&gt;BB5</title>
<path fill="none" stroke="black" d="M406.03,-1192.88C395.82,-1181.61 384.73,-1169.38 374.2,-1157.76"/>
<polygon fill="black" stroke="black" points="376.68,-1155.29 367.37,-1150.23 371.49,-1159.99 376.68,-1155.29"/>
</g>
<!-- BB6 -->
<g id="node7" class="node">
<title>BB6</title>
<ellipse fill="none" stroke="black" cx="563.65" cy="-1105.42" rx="113.69" ry="48.17"/>
<text text-anchor="middle" x="563.65" y="-1124.22" font-family="Times New Roman,serif" font-size="14.00">[b4..bb)</text>
<text text-anchor="middle" x="563.65" y="-1109.22" font-family="Times New Roman,serif" font-size="14.00">Count: 1</text>
<text text-anchor="middle" x="563.65" y="-1094.22" font-family="Times New Roman,serif" font-size="14.00">Normalized count: Infinity</text>
<text text-anchor="middle" x="563.65" y="-1079.22" font-family="Times New Roman,serif" font-size="14.00">Samples weight: 0.02</text>
</g>
<!-- BB4&#45;&gt;BB6 -->
<g id="edge7" class="edge">
<title>BB4&#45;&gt;BB6</title>
<path fill="none" stroke="black" d="M485.27,-1192.88C495.38,-1181.73 506.34,-1169.64 516.77,-1158.13"/>
<polygon fill="black" stroke="black" points="519.41,-1160.43 523.53,-1150.67 514.22,-1155.73 519.41,-1160.43"/>
</g>
<!-- BB5&#45;&gt;BB6 -->
<g id="edge9" class="edge">
<title>BB5&#45;&gt;BB6</title>
<path fill="none" stroke="black" d="M432.75,-1105.42C435.03,-1105.42 437.32,-1105.42 439.6,-1105.42"/>
<polygon fill="black" stroke="black" points="439.62,-1108.92 449.62,-1105.42 439.62,-1101.92 439.62,-1108.92"/>
</g>
<!-- BB20 -->
<g id="node21" class="node">
<title>BB20</title>
<ellipse fill="none" stroke="black" cx="563.65" cy="-973.25" rx="104.8" ry="48.17"/>
<text text-anchor="middle" x="563.65" y="-992.05" font-family="Times New Roman,serif" font-size="14.00">[2cc..2d7)</text>
<text text-anchor="middle" x="563.65" y="-977.05" font-family="Times New Roman,serif" font-size="14.00">Count: 0</text>
<text text-anchor="middle" x="563.65" y="-962.05" font-family="Times New Roman,serif" font-size="14.00">Normalized count: NaN</text>
<text text-anchor="middle" x="563.65" y="-947.05" font-family="Times New Roman,serif" font-size="14.00">Samples weight: 0.00</text>
</g>
<!-- BB6&#45;&gt;BB20 -->
<g id="edge10" class="edge">
<title>BB6&#45;&gt;BB20</title>
<path fill="none" stroke="black" d="M563.65,-1057.05C563.65,-1048.79 563.65,-1040.1 563.65,-1031.6"/>
<polygon fill="black" stroke="black" points="567.15,-1031.36 563.65,-1021.36 560.15,-1031.36 567.15,-1031.36"/>
</g>
<!-- BB7 -->
<g id="node8" class="node">
<title>BB7</title>
<ellipse fill="none" stroke="black" cx="563.65" cy="-841.08" rx="113.69" ry="48.17"/>
<text text-anchor="middle" x="563.65" y="-859.88" font-family="Times New Roman,serif" font-size="14.00">[bb..c5)</text>
<text text-anchor="middle" x="563.65" y="-844.88" font-family="Times New Roman,serif" font-size="14.00">Count: 2</text>
<text text-anchor="middle" x="563.65" y="-829.88" font-family="Times New Roman,serif" font-size="14.00">Normalized count: Infinity</text>
<text text-anchor="middle" x="563.65" y="-814.88" font-family="Times New Roman,serif" font-size="14.00">Samples weight: 0.03</text>
</g>
<!-- BB11 -->
<g id="node12" class="node">
<title>BB11</title>
<ellipse fill="none" stroke="black" cx="677.65" cy="-708.92" rx="113.69" ry="48.17"/>
<text text-anchor="middle" x="677.65" y="-727.72" font-family="Times New Roman,serif" font-size="14.00">[173..17b)</text>
<text text-anchor="middle" x="677.65" y="-712.72" font-family="Times New Roman,serif" font-size="14.00">Count: 1</text>
<text text-anchor="middle" x="677.65" y="-697.72" font-family="Times New Roman,serif" font-size="14.00">Normalized count: Infinity</text>
<text text-anchor="middle" x="677.65" y="-682.72" font-family="Times New Roman,serif" font-size="14.00">Samples weight: 0.02</text>
</g>
<!-- BB7&#45;&gt;BB11 -->
<g id="edge11" class="edge">
<title>BB7&#45;&gt;BB11</title>
<path fill="none" stroke="black" d="M602.57,-795.65C612.1,-784.76 622.4,-773.01 632.21,-761.8"/>
<polygon fill="black" stroke="black" points="634.96,-763.98 638.91,-754.15 629.69,-759.36 634.96,-763.98"/>
</g>
<!-- BB8 -->
<g id="node9" class="node">
<title>BB8</title>
<ellipse fill="none" stroke="black" cx="606.65" cy="-576.75" rx="113.69" ry="48.17"/>
<text text-anchor="middle" x="606.65" y="-595.55" font-family="Times New Roman,serif" font-size="14.00">[c5..10d)</text>
<text text-anchor="middle" x="606.65" y="-580.55" font-family="Times New Roman,serif" font-size="14.00">Count: 6</text>
<text text-anchor="middle" x="606.65" y="-565.55" font-family="Times New Roman,serif" font-size="14.00">Normalized count: Infinity</text>
<text text-anchor="middle" x="606.65" y="-550.55" font-family="Times New Roman,serif" font-size="14.00">Samples weight: 0.09</text>
</g>
<!-- BB9 -->
<g id="node10" class="node">
<title>BB9</title>
<ellipse fill="none" stroke="black" cx="512.65" cy="-444.58" rx="104.8" ry="48.17"/>
<text text-anchor="middle" x="512.65" y="-463.38" font-family="Times New Roman,serif" font-size="14.00">[10d..118)</text>
<text text-anchor="middle" x="512.65" y="-448.38" font-family="Times New Roman,serif" font-size="14.00">Count: 0</text>
<text text-anchor="middle" x="512.65" y="-433.38" font-family="Times New Roman,serif" font-size="14.00">Normalized count: NaN</text>
<text text-anchor="middle" x="512.65" y="-418.38" font-family="Times New Roman,serif" font-size="14.00">Samples weight: 0.00</text>
</g>
<!-- BB8&#45;&gt;BB9 -->
<g id="edge13" class="edge">
<title>BB8&#45;&gt;BB9</title>
<path fill="none" stroke="black" d="M574.04,-530.59C566.67,-520.39 558.79,-509.47 551.21,-498.97"/>
<polygon fill="black" stroke="black" points="553.9,-496.72 545.21,-490.66 548.22,-500.82 553.9,-496.72"/>
</g>
<!-- BB10 -->
<g id="node11" class="node">
<title>BB10</title>
<ellipse fill="none" stroke="black" cx="748.65" cy="-444.58" rx="113.69" ry="48.17"/>
<text text-anchor="middle" x="748.65" y="-463.38" font-family="Times New Roman,serif" font-size="14.00">[118..173)</text>
<text text-anchor="middle" x="748.65" y="-448.38" font-family="Times New Roman,serif" font-size="14.00">Count: 1</text>
<text text-anchor="middle" x="748.65" y="-433.38" font-family="Times New Roman,serif" font-size="14.00">Normalized count: Infinity</text>
<text text-anchor="middle" x="748.65" y="-418.38" font-family="Times New Roman,serif" font-size="14.00">Samples weight: 0.02</text>
</g>
<!-- BB8&#45;&gt;BB10 -->
<g id="edge12" class="edge">
<title>BB8&#45;&gt;BB10</title>
<path fill="none" stroke="black" d="M653.54,-532.77C666.63,-520.77 680.96,-507.64 694.43,-495.29"/>
<polygon fill="black" stroke="black" points="696.8,-497.86 701.81,-488.52 692.07,-492.7 696.8,-497.86"/>
</g>
<!-- BB9&#45;&gt;BB10 -->
<g id="edge14" class="edge">
<title>BB9&#45;&gt;BB10</title>
<path fill="none" stroke="black" d="M617.75,-444.58C620.03,-444.58 622.32,-444.58 624.6,-444.58"/>
<polygon fill="black" stroke="black" points="624.62,-448.08 634.62,-444.58 624.62,-441.08 624.62,-448.08"/>
</g>
<!-- BB10&#45;&gt;BB11 -->
<g id="edge15" class="edge">
<title>BB10&#45;&gt;BB11</title>
<path fill="none" stroke="black" d="M749.39,-492.89C748.62,-529.77 744.51,-581.79 729.65,-624.83 726.24,-634.71 721.48,-644.62 716.21,-653.99"/>
<polygon fill="black" stroke="black" points="713.08,-652.39 711.02,-662.79 719.12,-655.95 713.08,-652.39"/>
</g>
<!-- BB11&#45;&gt;BB8 -->
<g id="edge16" class="edge">
<title>BB11&#45;&gt;BB8</title>
<path fill="none" stroke="black" d="M652.42,-661.66C647.35,-652.35 641.96,-642.49 636.74,-632.92"/>
<polygon fill="black" stroke="black" points="639.66,-630.96 631.8,-623.86 633.52,-634.31 639.66,-630.96"/>
</g>
<!-- BB12 -->
<g id="node13" class="node">
<title>BB12</title>
<ellipse fill="none" stroke="black" cx="942.65" cy="-576.75" rx="113.69" ry="48.17"/>
<text text-anchor="middle" x="942.65" y="-595.55" font-family="Times New Roman,serif" font-size="14.00">[17b..180)</text>
<text text-anchor="middle" x="942.65" y="-580.55" font-family="Times New Roman,serif" font-size="14.00">Count: 8</text>
<text text-anchor="middle" x="942.65" y="-565.55" font-family="Times New Roman,serif" font-size="14.00">Normalized count: Infinity</text>
<text text-anchor="middle" x="942.65" y="-550.55" font-family="Times New Roman,serif" font-size="14.00">Samples weight: 0.12</text>
</g>
<!-- BB11&#45;&gt;BB12 -->
<g id="edge17" class="edge">
<title>BB11&#45;&gt;BB12</title>
<path fill="none" stroke="black" d="M750.77,-672C784.66,-655.35 825.09,-635.5 860.08,-618.31"/>
<polygon fill="black" stroke="black" points="861.88,-621.32 869.32,-613.77 858.8,-615.04 861.88,-621.32"/>
</g>
<!-- BB18 -->
<g id="node19" class="node">
<title>BB18</title>
<ellipse fill="none" stroke="black" cx="994.65" cy="-444.58" rx="113.69" ry="48.17"/>
<text text-anchor="middle" x="994.65" y="-463.38" font-family="Times New Roman,serif" font-size="14.00">[1d6..1df)</text>
<text text-anchor="middle" x="994.65" y="-448.38" font-family="Times New Roman,serif" font-size="14.00">Count: 7</text>
<text text-anchor="middle" x="994.65" y="-433.38" font-family="Times New Roman,serif" font-size="14.00">Normalized count: Infinity</text>
<text text-anchor="middle" x="994.65" y="-418.38" font-family="Times New Roman,serif" font-size="14.00">Samples weight: 0.11</text>
</g>
<!-- BB12&#45;&gt;BB18 -->
<g id="edge18" class="edge">
<title>BB12&#45;&gt;BB18</title>
<path fill="none" stroke="black" d="M961.28,-529.12C964.83,-520.24 968.57,-510.87 972.22,-501.73"/>
<polygon fill="black" stroke="black" points="975.52,-502.91 975.98,-492.32 969.02,-500.31 975.52,-502.91"/>
</g>
<!-- BB13 -->
<g id="node14" class="node">
<title>BB13</title>
<ellipse fill="none" stroke="black" cx="923.65" cy="-312.42" rx="113.69" ry="48.17"/>
<text text-anchor="middle" x="923.65" y="-331.22" font-family="Times New Roman,serif" font-size="14.00">[180..195)</text>
<text text-anchor="middle" x="923.65" y="-316.22" font-family="Times New Roman,serif" font-size="14.00">Count: 8</text>
<text text-anchor="middle" x="923.65" y="-301.22" font-family="Times New Roman,serif" font-size="14.00">Normalized count: Infinity</text>
<text text-anchor="middle" x="923.65" y="-286.22" font-family="Times New Roman,serif" font-size="14.00">Samples weight: 0.12</text>
</g>
<!-- BB14 -->
<g id="node15" class="node">
<title>BB14</title>
<ellipse fill="none" stroke="black" cx="677.65" cy="-180.25" rx="113.69" ry="48.17"/>
<text text-anchor="middle" x="677.65" y="-199.05" font-family="Times New Roman,serif" font-size="14.00">[195..1a8)</text>
<text text-anchor="middle" x="677.65" y="-184.05" font-family="Times New Roman,serif" font-size="14.00">Count: 8</text>
<text text-anchor="middle" x="677.65" y="-169.05" font-family="Times New Roman,serif" font-size="14.00">Normalized count: Infinity</text>
<text text-anchor="middle" x="677.65" y="-154.05" font-family="Times New Roman,serif" font-size="14.00">Samples weight: 0.12</text>
</g>
<!-- BB13&#45;&gt;BB14 -->
<g id="edge20" class="edge">
<title>BB13&#45;&gt;BB14</title>
<path fill="none" stroke="black" d="M853.49,-274.29C823.37,-258.35 788.04,-239.66 756.97,-223.22"/>
<polygon fill="black" stroke="black" points="758.39,-220.01 747.91,-218.43 755.11,-226.2 758.39,-220.01"/>
</g>
<!-- BB15 -->
<g id="node16" class="node">
<title>BB15</title>
<ellipse fill="none" stroke="black" cx="923.65" cy="-180.25" rx="113.69" ry="48.17"/>
<text text-anchor="middle" x="923.65" y="-199.05" font-family="Times New Roman,serif" font-size="14.00">[1a8..1bd)</text>
<text text-anchor="middle" x="923.65" y="-184.05" font-family="Times New Roman,serif" font-size="14.00">Count: 8</text>
<text text-anchor="middle" x="923.65" y="-169.05" font-family="Times New Roman,serif" font-size="14.00">Normalized count: Infinity</text>
<text text-anchor="middle" x="923.65" y="-154.05" font-family="Times New Roman,serif" font-size="14.00">Samples weight: 0.12</text>
</g>
<!-- BB13&#45;&gt;BB15 -->
<g id="edge19" class="edge">
<title>BB13&#45;&gt;BB15</title>
<path fill="none" stroke="black" d="M923.65,-264.05C923.65,-255.79 923.65,-247.1 923.65,-238.6"/>
<polygon fill="black" stroke="black" points="927.15,-238.36 923.65,-228.36 920.15,-238.36 927.15,-238.36"/>
</g>
<!-- BB14&#45;&gt;BB15 -->
<g id="edge21" class="edge">
<title>BB14&#45;&gt;BB15</title>
<path fill="none" stroke="black" d="M791.52,-180.25C794.16,-180.25 796.79,-180.25 799.43,-180.25"/>
<polygon fill="black" stroke="black" points="799.59,-183.75 809.59,-180.25 799.59,-176.75 799.59,-183.75"/>
</g>
<!-- BB16 -->
<g id="node17" class="node">
<title>BB16</title>
<ellipse fill="none" stroke="black" cx="819.65" cy="-48.08" rx="113.69" ry="48.17"/>
<text text-anchor="middle" x="819.65" y="-66.88" font-family="Times New Roman,serif" font-size="14.00">[1bd..1d0)</text>
<text text-anchor="middle" x="819.65" y="-51.88" font-family="Times New Roman,serif" font-size="14.00">Count: 7</text>
<text text-anchor="middle" x="819.65" y="-36.88" font-family="Times New Roman,serif" font-size="14.00">Normalized count: Infinity</text>
<text text-anchor="middle" x="819.65" y="-21.88" font-family="Times New Roman,serif" font-size="14.00">Samples weight: 0.11</text>
</g>
<!-- BB15&#45;&gt;BB16 -->
<g id="edge23" class="edge">
<title>BB15&#45;&gt;BB16</title>
<path fill="none" stroke="black" d="M887.86,-134.45C879.53,-124.02 870.58,-112.82 861.99,-102.07"/>
<polygon fill="black" stroke="black" points="864.49,-99.59 855.51,-93.96 859.02,-103.96 864.49,-99.59"/>
</g>
<!-- BB17 -->
<g id="node18" class="node">
<title>BB17</title>
<ellipse fill="none" stroke="black" cx="1065.65" cy="-48.08" rx="113.69" ry="48.17"/>
<text text-anchor="middle" x="1065.65" y="-66.88" font-family="Times New Roman,serif" font-size="14.00">[1d0..1d6)</text>
<text text-anchor="middle" x="1065.65" y="-51.88" font-family="Times New Roman,serif" font-size="14.00">Count: 7</text>
<text text-anchor="middle" x="1065.65" y="-36.88" font-family="Times New Roman,serif" font-size="14.00">Normalized count: Infinity</text>
<text text-anchor="middle" x="1065.65" y="-21.88" font-family="Times New Roman,serif" font-size="14.00">Samples weight: 0.11</text>
</g>
<!-- BB15&#45;&gt;BB17 -->
<g id="edge22" class="edge">
<title>BB15&#45;&gt;BB17</title>
<path fill="none" stroke="black" d="M970.54,-136.27C983.63,-124.27 997.96,-111.14 1011.43,-98.79"/>
<polygon fill="black" stroke="black" points="1013.8,-101.36 1018.81,-92.02 1009.07,-96.2 1013.8,-101.36"/>
</g>
<!-- BB16&#45;&gt;BB17 -->
<g id="edge24" class="edge">
<title>BB16&#45;&gt;BB17</title>
<path fill="none" stroke="black" d="M933.52,-48.08C936.16,-48.08 938.79,-48.08 941.43,-48.08"/>
<polygon fill="black" stroke="black" points="941.59,-51.58 951.59,-48.08 941.59,-44.58 941.59,-51.58"/>
</g>
<!-- BB17&#45;&gt;BB18 -->
<g id="edge25" class="edge">
<title>BB17&#45;&gt;BB18</title>
<path fill="none" stroke="black" d="M1069.87,-96.31C1073.84,-158.49 1075.49,-270.49 1046.65,-360.5 1043.46,-370.45 1038.82,-380.4 1033.59,-389.79"/>
<polygon fill="black" stroke="black" points="1030.47,-388.19 1028.43,-398.59 1036.51,-391.73 1030.47,-388.19"/>
</g>
<!-- BB18&#45;&gt;BB13 -->
<g id="edge26" class="edge">
<title>BB18&#45;&gt;BB13</title>
<path fill="none" stroke="black" d="M969.42,-397.32C964.35,-388.02 958.96,-378.16 953.74,-368.58"/>
<polygon fill="black" stroke="black" points="956.66,-366.63 948.8,-359.53 950.52,-369.98 956.66,-366.63"/>
</g>
<!-- BB19 -->
<g id="node20" class="node">
<title>BB19</title>
<ellipse fill="none" stroke="black" cx="569.65" cy="-312.42" rx="104.8" ry="48.17"/>
<text text-anchor="middle" x="569.65" y="-331.22" font-family="Times New Roman,serif" font-size="14.00">[1df..2cc)</text>
<text text-anchor="middle" x="569.65" y="-316.22" font-family="Times New Roman,serif" font-size="14.00">Count: 0</text>
<text text-anchor="middle" x="569.65" y="-301.22" font-family="Times New Roman,serif" font-size="14.00">Normalized count: NaN</text>
<text text-anchor="middle" x="569.65" y="-286.22" font-family="Times New Roman,serif" font-size="14.00">Samples weight: 0.00</text>
</g>
<!-- BB18&#45;&gt;BB19 -->
<g id="edge27" class="edge">
<title>BB18&#45;&gt;BB19</title>
<path fill="none" stroke="black" d="M913.01,-411.06C899.28,-405.96 885.12,-400.92 871.65,-396.5 805.33,-374.74 729.6,-353.92 670.56,-338.56"/>
<polygon fill="black" stroke="black" points="671.42,-335.16 660.86,-336.04 669.66,-341.94 671.42,-335.16"/>
</g>
<!-- BB19&#45;&gt;BB20 -->
<g id="edge28" class="edge">
<title>BB19&#45;&gt;BB20</title>
<path fill="none" stroke="black" d="M479.91,-337.34C449.38,-349.97 418.09,-368.81 398.65,-396.5 352.62,-462.07 379.65,-495.64 379.65,-575.75 379.65,-709.92 379.65,-709.92 379.65,-709.92 379.65,-794.07 389.56,-822.29 440.65,-889.17 452.91,-905.21 469.18,-919.21 485.87,-930.92"/>
<polygon fill="black" stroke="black" points="484.37,-934.14 494.61,-936.84 488.29,-928.34 484.37,-934.14"/>
</g>
<!-- BB20&#45;&gt;BB7 -->
<g id="edge29" class="edge">
<title>BB20&#45;&gt;BB7</title>
<path fill="none" stroke="black" d="M563.65,-924.89C563.65,-916.62 563.65,-907.94 563.65,-899.43"/>
<polygon fill="black" stroke="black" points="567.15,-899.19 563.65,-889.19 560.15,-899.19 567.15,-899.19"/>
</g>
<!-- BB21 -->
<g id="node22" class="node">
<title>BB21</title>
<ellipse fill="none" stroke="black" cx="799.65" cy="-841.08" rx="104.8" ry="48.17"/>
<text text-anchor="middle" x="799.65" y="-859.88" font-family="Times New Roman,serif" font-size="14.00">[2d7..2d8)</text>
<text text-anchor="middle" x="799.65" y="-844.88" font-family="Times New Roman,serif" font-size="14.00">Count: 0</text>
<text text-anchor="middle" x="799.65" y="-829.88" font-family="Times New Roman,serif" font-size="14.00">Normalized count: NaN</text>
<text text-anchor="middle" x="799.65" y="-814.88" font-family="Times New Roman,serif" font-size="14.00">Samples weight: 0.00</text>
</g>
<!-- BB20&#45;&gt;BB21 -->
<g id="edge30" class="edge">
<title>BB20&#45;&gt;BB21</title>
<path fill="none" stroke="black" d="M629.7,-935.82C659.24,-919.53 694.21,-900.24 724.72,-883.41"/>
<polygon fill="black" stroke="black" points="726.55,-886.4 733.61,-878.51 723.17,-880.27 726.55,-886.4"/>
</g>
</g>
</svg>
