<?xml version="1.0" encoding="UTF-8" standalone="no"?>
<!DOCTYPE svg PUBLIC "-//W3C//DTD SVG 1.1//EN"
 "http://www.w3.org/Graphics/SVG/1.1/DTD/svg11.dtd">
<!-- Generated by graphviz version 2.47.0 (20210316.0004)
 -->
<!-- Title: G Pages: 1 -->
<svg width="954pt" height="897pt"
 viewBox="0.00 0.00 954.42 897.17" xmlns="http://www.w3.org/2000/svg" xmlns:xlink="http://www.w3.org/1999/xlink">
<g id="graph0" class="graph" transform="scale(1 1) rotate(0) translate(4 893.17)">
<title>G</title>
<polygon fill="white" stroke="transparent" points="-4,4 -4,-893.17 950.42,-893.17 950.42,4 -4,4"/>
<!-- BB0 -->
<g id="node1" class="node">
<title>BB0</title>
<ellipse fill="none" stroke="black" cx="347.19" cy="-841.08" rx="103.48" ry="48.17"/>
<text text-anchor="middle" x="347.19" y="-859.88" font-family="Times New Roman,serif" font-size="14.00">[0..4)</text>
<text text-anchor="middle" x="347.19" y="-844.88" font-family="Times New Roman,serif" font-size="14.00">Count: 276</text>
<text text-anchor="middle" x="347.19" y="-829.88" font-family="Times New Roman,serif" font-size="14.00">Normalized count: 1.00</text>
<text text-anchor="middle" x="347.19" y="-814.88" font-family="Times New Roman,serif" font-size="14.00">Samples weight: 0.00</text>
</g>
<!-- BB5 -->
<g id="node6" class="node">
<title>BB5</title>
<ellipse fill="none" stroke="black" cx="347.19" cy="-708.92" rx="108.38" ry="48.17"/>
<text text-anchor="middle" x="347.19" y="-727.72" font-family="Times New Roman,serif" font-size="14.00">[3c..44)</text>
<text text-anchor="middle" x="347.19" y="-712.72" font-family="Times New Roman,serif" font-size="14.00">Count: 3332</text>
<text text-anchor="middle" x="347.19" y="-697.72" font-family="Times New Roman,serif" font-size="14.00">Normalized count: 12.07</text>
<text text-anchor="middle" x="347.19" y="-682.72" font-family="Times New Roman,serif" font-size="14.00">Samples weight: 0.01</text>
</g>
<!-- BB0&#45;&gt;BB5 -->
<g id="edge1" class="edge">
<title>BB0&#45;&gt;BB5</title>
<path fill="none" stroke="black" d="M347.19,-792.72C347.19,-784.45 347.19,-775.77 347.19,-767.27"/>
<polygon fill="black" stroke="black" points="350.69,-767.02 347.19,-757.02 343.69,-767.02 350.69,-767.02"/>
</g>
<!-- BB1 -->
<g id="node2" class="node">
<title>BB1</title>
<ellipse fill="none" stroke="black" cx="347.19" cy="-576.75" rx="108.38" ry="48.17"/>
<text text-anchor="middle" x="347.19" y="-595.55" font-family="Times New Roman,serif" font-size="14.00">[4..8)</text>
<text text-anchor="middle" x="347.19" y="-580.55" font-family="Times New Roman,serif" font-size="14.00">Count: 3056</text>
<text text-anchor="middle" x="347.19" y="-565.55" font-family="Times New Roman,serif" font-size="14.00">Normalized count: 11.07</text>
<text text-anchor="middle" x="347.19" y="-550.55" font-family="Times New Roman,serif" font-size="14.00">Samples weight: 0.01</text>
</g>
<!-- BB3 -->
<g id="node4" class="node">
<title>BB3</title>
<ellipse fill="none" stroke="black" cx="347.19" cy="-444.58" rx="113.27" ry="48.17"/>
<text text-anchor="middle" x="347.19" y="-463.38" font-family="Times New Roman,serif" font-size="14.00">[30..38)</text>
<text text-anchor="middle" x="347.19" y="-448.38" font-family="Times New Roman,serif" font-size="14.00">Count: 105479</text>
<text text-anchor="middle" x="347.19" y="-433.38" font-family="Times New Roman,serif" font-size="14.00">Normalized count: 382.17</text>
<text text-anchor="middle" x="347.19" y="-418.38" font-family="Times New Roman,serif" font-size="14.00">Samples weight: 0.39</text>
</g>
<!-- BB1&#45;&gt;BB3 -->
<g id="edge2" class="edge">
<title>BB1&#45;&gt;BB3</title>
<path fill="none" stroke="black" d="M347.19,-528.39C347.19,-520.12 347.19,-511.44 347.19,-502.93"/>
<polygon fill="black" stroke="black" points="350.69,-502.69 347.19,-492.69 343.69,-502.69 350.69,-502.69"/>
</g>
<!-- BB2 -->
<g id="node3" class="node">
<title>BB2</title>
<ellipse fill="none" stroke="black" cx="347.19" cy="-312.42" rx="113.27" ry="48.17"/>
<text text-anchor="middle" x="347.19" y="-331.22" font-family="Times New Roman,serif" font-size="14.00">[8..30)</text>
<text text-anchor="middle" x="347.19" y="-316.22" font-family="Times New Roman,serif" font-size="14.00">Count: 102423</text>
<text text-anchor="middle" x="347.19" y="-301.22" font-family="Times New Roman,serif" font-size="14.00">Normalized count: 371.10</text>
<text text-anchor="middle" x="347.19" y="-286.22" font-family="Times New Roman,serif" font-size="14.00">Samples weight: 0.38</text>
</g>
<!-- BB2&#45;&gt;BB3 -->
<g id="edge3" class="edge">
<title>BB2&#45;&gt;BB3</title>
<path fill="none" stroke="black" d="M353.7,-360.52C353.92,-368.78 353.99,-377.46 353.9,-385.97"/>
<polygon fill="black" stroke="black" points="350.39,-386.16 353.71,-396.22 357.39,-386.29 350.39,-386.16"/>
</g>
<!-- BB3&#45;&gt;BB2 -->
<g id="edge4" class="edge">
<title>BB3&#45;&gt;BB2</title>
<path fill="none" stroke="black" d="M340.66,-396.22C340.45,-387.95 340.39,-379.27 340.48,-370.77"/>
<polygon fill="black" stroke="black" points="343.98,-370.59 340.67,-360.52 336.98,-370.46 343.98,-370.59"/>
</g>
<!-- BB4 -->
<g id="node5" class="node">
<title>BB4</title>
<ellipse fill="none" stroke="black" cx="108.19" cy="-312.42" rx="108.38" ry="48.17"/>
<text text-anchor="middle" x="108.19" y="-331.22" font-family="Times New Roman,serif" font-size="14.00">[38..3c)</text>
<text text-anchor="middle" x="108.19" y="-316.22" font-family="Times New Roman,serif" font-size="14.00">Count: 3056</text>
<text text-anchor="middle" x="108.19" y="-301.22" font-family="Times New Roman,serif" font-size="14.00">Normalized count: 11.07</text>
<text text-anchor="middle" x="108.19" y="-286.22" font-family="Times New Roman,serif" font-size="14.00">Samples weight: 0.01</text>
</g>
<!-- BB3&#45;&gt;BB4 -->
<g id="edge5" class="edge">
<title>BB3&#45;&gt;BB4</title>
<path fill="none" stroke="black" d="M278.7,-406.28C249.32,-390.28 214.88,-371.52 184.67,-355.07"/>
<polygon fill="black" stroke="black" points="186.31,-351.98 175.86,-350.27 182.97,-358.13 186.31,-351.98"/>
</g>
<!-- BB4&#45;&gt;BB5 -->
<g id="edge6" class="edge">
<title>BB4&#45;&gt;BB5</title>
<path fill="none" stroke="black" d="M117.66,-360.4C132.61,-425.32 166.72,-543.62 230.19,-624.83 241.94,-639.88 257.15,-653.36 272.68,-664.87"/>
<polygon fill="black" stroke="black" points="270.65,-667.72 280.82,-670.7 274.73,-662.03 270.65,-667.72"/>
</g>
<!-- BB5&#45;&gt;BB1 -->
<g id="edge7" class="edge">
<title>BB5&#45;&gt;BB1</title>
<path fill="none" stroke="black" d="M347.19,-660.55C347.19,-652.29 347.19,-643.6 347.19,-635.1"/>
<polygon fill="black" stroke="black" points="350.69,-634.86 347.19,-624.86 343.69,-634.86 350.69,-634.86"/>
</g>
<!-- BB6 -->
<g id="node7" class="node">
<title>BB6</title>
<ellipse fill="none" stroke="black" cx="589.19" cy="-576.75" rx="103.48" ry="48.17"/>
<text text-anchor="middle" x="589.19" y="-595.55" font-family="Times New Roman,serif" font-size="14.00">[44..48)</text>
<text text-anchor="middle" x="589.19" y="-580.55" font-family="Times New Roman,serif" font-size="14.00">Count: 276</text>
<text text-anchor="middle" x="589.19" y="-565.55" font-family="Times New Roman,serif" font-size="14.00">Normalized count: 1.00</text>
<text text-anchor="middle" x="589.19" y="-550.55" font-family="Times New Roman,serif" font-size="14.00">Samples weight: 0.00</text>
</g>
<!-- BB5&#45;&gt;BB6 -->
<g id="edge8" class="edge">
<title>BB5&#45;&gt;BB6</title>
<path fill="none" stroke="black" d="M415.24,-671.31C445.78,-654.89 481.92,-635.45 513.33,-618.55"/>
<polygon fill="black" stroke="black" points="515.33,-621.45 522.48,-613.63 512.01,-615.28 515.33,-621.45"/>
</g>
<!-- BB11 -->
<g id="node12" class="node">
<title>BB11</title>
<ellipse fill="none" stroke="black" cx="602.19" cy="-444.58" rx="108.38" ry="48.17"/>
<text text-anchor="middle" x="602.19" y="-463.38" font-family="Times New Roman,serif" font-size="14.00">[80..88)</text>
<text text-anchor="middle" x="602.19" y="-448.38" font-family="Times New Roman,serif" font-size="14.00">Count: 2899</text>
<text text-anchor="middle" x="602.19" y="-433.38" font-family="Times New Roman,serif" font-size="14.00">Normalized count: 10.50</text>
<text text-anchor="middle" x="602.19" y="-418.38" font-family="Times New Roman,serif" font-size="14.00">Samples weight: 0.01</text>
</g>
<!-- BB6&#45;&gt;BB11 -->
<g id="edge9" class="edge">
<title>BB6&#45;&gt;BB11</title>
<path fill="none" stroke="black" d="M593.92,-528.39C594.75,-520.03 595.63,-511.25 596.49,-502.65"/>
<polygon fill="black" stroke="black" points="599.97,-502.99 597.48,-492.69 593.01,-502.29 599.97,-502.99"/>
</g>
<!-- BB7 -->
<g id="node8" class="node">
<title>BB7</title>
<ellipse fill="none" stroke="black" cx="619.19" cy="-312.42" rx="103.48" ry="48.17"/>
<text text-anchor="middle" x="619.19" y="-331.22" font-family="Times New Roman,serif" font-size="14.00">[48..4c)</text>
<text text-anchor="middle" x="619.19" y="-316.22" font-family="Times New Roman,serif" font-size="14.00">Count: 2623</text>
<text text-anchor="middle" x="619.19" y="-301.22" font-family="Times New Roman,serif" font-size="14.00">Normalized count: 9.50</text>
<text text-anchor="middle" x="619.19" y="-286.22" font-family="Times New Roman,serif" font-size="14.00">Samples weight: 0.01</text>
</g>
<!-- BB9 -->
<g id="node10" class="node">
<title>BB9</title>
<ellipse fill="none" stroke="black" cx="670.19" cy="-180.25" rx="108.38" ry="48.17"/>
<text text-anchor="middle" x="670.19" y="-199.05" font-family="Times New Roman,serif" font-size="14.00">[74..7c)</text>
<text text-anchor="middle" x="670.19" y="-184.05" font-family="Times New Roman,serif" font-size="14.00">Count: 21710</text>
<text text-anchor="middle" x="670.19" y="-169.05" font-family="Times New Roman,serif" font-size="14.00">Normalized count: 78.66</text>
<text text-anchor="middle" x="670.19" y="-154.05" font-family="Times New Roman,serif" font-size="14.00">Samples weight: 0.08</text>
</g>
<!-- BB7&#45;&gt;BB9 -->
<g id="edge10" class="edge">
<title>BB7&#45;&gt;BB9</title>
<path fill="none" stroke="black" d="M637.46,-264.79C640.93,-255.91 644.61,-246.53 648.19,-237.39"/>
<polygon fill="black" stroke="black" points="651.49,-238.57 651.88,-227.99 644.97,-236.02 651.49,-238.57"/>
</g>
<!-- BB8 -->
<g id="node9" class="node">
<title>BB8</title>
<ellipse fill="none" stroke="black" cx="694.19" cy="-48.08" rx="108.38" ry="48.17"/>
<text text-anchor="middle" x="694.19" y="-66.88" font-family="Times New Roman,serif" font-size="14.00">[4c..74)</text>
<text text-anchor="middle" x="694.19" y="-51.88" font-family="Times New Roman,serif" font-size="14.00">Count: 19087</text>
<text text-anchor="middle" x="694.19" y="-36.88" font-family="Times New Roman,serif" font-size="14.00">Normalized count: 69.16</text>
<text text-anchor="middle" x="694.19" y="-21.88" font-family="Times New Roman,serif" font-size="14.00">Samples weight: 0.07</text>
</g>
<!-- BB8&#45;&gt;BB9 -->
<g id="edge11" class="edge">
<title>BB8&#45;&gt;BB9</title>
<path fill="none" stroke="black" d="M692.01,-96.26C690.65,-104.86 689.04,-113.92 687.3,-122.77"/>
<polygon fill="black" stroke="black" points="683.86,-122.13 685.29,-132.62 690.72,-123.53 683.86,-122.13"/>
</g>
<!-- BB9&#45;&gt;BB8 -->
<g id="edge12" class="edge">
<title>BB9&#45;&gt;BB8</title>
<path fill="none" stroke="black" d="M672.4,-131.89C673.74,-123.42 675.32,-114.53 677.02,-105.83"/>
<polygon fill="black" stroke="black" points="680.51,-106.25 679.08,-95.76 673.65,-104.86 680.51,-106.25"/>
</g>
<!-- BB10 -->
<g id="node11" class="node">
<title>BB10</title>
<ellipse fill="none" stroke="black" cx="465.19" cy="-48.08" rx="103.48" ry="48.17"/>
<text text-anchor="middle" x="465.19" y="-66.88" font-family="Times New Roman,serif" font-size="14.00">[7c..80)</text>
<text text-anchor="middle" x="465.19" y="-51.88" font-family="Times New Roman,serif" font-size="14.00">Count: 2623</text>
<text text-anchor="middle" x="465.19" y="-36.88" font-family="Times New Roman,serif" font-size="14.00">Normalized count: 9.50</text>
<text text-anchor="middle" x="465.19" y="-21.88" font-family="Times New Roman,serif" font-size="14.00">Samples weight: 0.01</text>
</g>
<!-- BB9&#45;&gt;BB10 -->
<g id="edge13" class="edge">
<title>BB9&#45;&gt;BB10</title>
<path fill="none" stroke="black" d="M608.96,-140.37C585.32,-125.36 558.16,-108.12 533.86,-92.69"/>
<polygon fill="black" stroke="black" points="535.71,-89.72 525.4,-87.31 531.96,-95.63 535.71,-89.72"/>
</g>
<!-- BB10&#45;&gt;BB11 -->
<g id="edge14" class="edge">
<title>BB10&#45;&gt;BB11</title>
<path fill="none" stroke="black" d="M461.62,-96.26C458.92,-160.12 461.67,-275.8 507.19,-360.5 514.42,-373.96 524.76,-386.25 535.98,-397.01"/>
<polygon fill="black" stroke="black" points="533.72,-399.68 543.45,-403.85 538.44,-394.52 533.72,-399.68"/>
</g>
<!-- BB11&#45;&gt;BB7 -->
<g id="edge15" class="edge">
<title>BB11&#45;&gt;BB7</title>
<path fill="none" stroke="black" d="M608.37,-396.22C609.46,-387.86 610.61,-379.08 611.73,-370.49"/>
<polygon fill="black" stroke="black" points="615.21,-370.89 613.03,-360.52 608.27,-369.99 615.21,-370.89"/>
</g>
<!-- BB12 -->
<g id="node13" class="node">
<title>BB12</title>
<ellipse fill="none" stroke="black" cx="843.19" cy="-312.42" rx="103.48" ry="48.17"/>
<text text-anchor="middle" x="843.19" y="-331.22" font-family="Times New Roman,serif" font-size="14.00">[88..89)</text>
<text text-anchor="middle" x="843.19" y="-316.22" font-family="Times New Roman,serif" font-size="14.00">Count: 276</text>
<text text-anchor="middle" x="843.19" y="-301.22" font-family="Times New Roman,serif" font-size="14.00">Normalized count: 1.00</text>
<text text-anchor="middle" x="843.19" y="-286.22" font-family="Times New Roman,serif" font-size="14.00">Samples weight: 0.00</text>
</g>
<!-- BB11&#45;&gt;BB12 -->
<g id="edge16" class="edge">
<title>BB11&#45;&gt;BB12</title>
<path fill="none" stroke="black" d="M669.96,-406.98C700.37,-390.55 736.36,-371.11 767.64,-354.22"/>
<polygon fill="black" stroke="black" points="769.62,-357.13 776.75,-349.3 766.29,-350.97 769.62,-357.13"/>
</g>
</g>
</svg>
