<?xml version="1.0" encoding="UTF-8" standalone="no"?>
<!DOCTYPE svg PUBLIC "-//W3C//DTD SVG 1.1//EN"
 "http://www.w3.org/Graphics/SVG/1.1/DTD/svg11.dtd">
<!-- Generated by graphviz version 2.47.0 (20210316.0004)
 -->
<!-- Title: G Pages: 1 -->
<svg width="954pt" height="897pt"
 viewBox="0.00 0.00 954.42 897.17" xmlns="http://www.w3.org/2000/svg" xmlns:xlink="http://www.w3.org/1999/xlink">
<g id="graph0" class="graph" transform="scale(1 1) rotate(0) translate(4 893.17)">
<title>G</title>
<polygon fill="white" stroke="transparent" points="-4,4 -4,-893.17 950.42,-893.17 950.42,4 -4,4"/>
<!-- BB0 -->
<g id="node1" class="node">
<title>BB0</title>
<ellipse fill="none" stroke="black" cx="347.19" cy="-841.08" rx="103.48" ry="48.17"/>
<text text-anchor="middle" x="347.19" y="-859.88" font-family="Times New Roman,serif" font-size="14.00">[0..4)</text>
<text text-anchor="middle" x="347.19" y="-844.88" font-family="Times New Roman,serif" font-size="14.00">Count: 1</text>
<text text-anchor="middle" x="347.19" y="-829.88" font-family="Times New Roman,serif" font-size="14.00">Normalized count: 1.00</text>
<text text-anchor="middle" x="347.19" y="-814.88" font-family="Times New Roman,serif" font-size="14.00">Samples weight: 0.00</text>
</g>
<!-- BB5 -->
<g id="node6" class="node">
<title>BB5</title>
<ellipse fill="none" stroke="black" cx="347.19" cy="-708.92" rx="103.48" ry="48.17"/>
<text text-anchor="middle" x="347.19" y="-727.72" font-family="Times New Roman,serif" font-size="14.00">[3c..44)</text>
<text text-anchor="middle" x="347.19" y="-712.72" font-family="Times New Roman,serif" font-size="14.00">Count: 2</text>
<text text-anchor="middle" x="347.19" y="-697.72" font-family="Times New Roman,serif" font-size="14.00">Normalized count: 2.00</text>
<text text-anchor="middle" x="347.19" y="-682.72" font-family="Times New Roman,serif" font-size="14.00">Samples weight: 0.01</text>
</g>
<!-- BB0&#45;&gt;BB5 -->
<g id="edge1" class="edge">
<title>BB0&#45;&gt;BB5</title>
<path fill="none" stroke="black" d="M347.19,-792.72C347.19,-784.45 347.19,-775.77 347.19,-767.27"/>
<polygon fill="black" stroke="black" points="350.69,-767.02 347.19,-757.02 343.69,-767.02 350.69,-767.02"/>
</g>
<!-- BB1 -->
<g id="node2" class="node">
<title>BB1</title>
<ellipse fill="none" stroke="black" cx="347.19" cy="-576.75" rx="103.48" ry="48.17"/>
<text text-anchor="middle" x="347.19" y="-595.55" font-family="Times New Roman,serif" font-size="14.00">[4..8)</text>
<text text-anchor="middle" x="347.19" y="-580.55" font-family="Times New Roman,serif" font-size="14.00">Count: 1</text>
<text text-anchor="middle" x="347.19" y="-565.55" font-family="Times New Roman,serif" font-size="14.00">Normalized count: 1.00</text>
<text text-anchor="middle" x="347.19" y="-550.55" font-family="Times New Roman,serif" font-size="14.00">Samples weight: 0.00</text>
</g>
<!-- BB3 -->
<g id="node4" class="node">
<title>BB3</title>
<ellipse fill="none" stroke="black" cx="347.19" cy="-444.58" rx="108.38" ry="48.17"/>
<text text-anchor="middle" x="347.19" y="-463.38" font-family="Times New Roman,serif" font-size="14.00">[30..38)</text>
<text text-anchor="middle" x="347.19" y="-448.38" font-family="Times New Roman,serif" font-size="14.00">Count: 10</text>
<text text-anchor="middle" x="347.19" y="-433.38" font-family="Times New Roman,serif" font-size="14.00">Normalized count: 10.00</text>
<text text-anchor="middle" x="347.19" y="-418.38" font-family="Times New Roman,serif" font-size="14.00">Samples weight: 0.03</text>
</g>
<!-- BB1&#45;&gt;BB3 -->
<g id="edge2" class="edge">
<title>BB1&#45;&gt;BB3</title>
<path fill="none" stroke="black" d="M347.19,-528.39C347.19,-520.12 347.19,-511.44 347.19,-502.93"/>
<polygon fill="black" stroke="black" points="350.69,-502.69 347.19,-492.69 343.69,-502.69 350.69,-502.69"/>
</g>
<!-- BB2 -->
<g id="node3" class="node">
<title>BB2</title>
<ellipse fill="none" stroke="black" cx="347.19" cy="-312.42" rx="113.27" ry="48.17"/>
<text text-anchor="middle" x="347.19" y="-331.22" font-family="Times New Roman,serif" font-size="14.00">[8..30)</text>
<text text-anchor="middle" x="347.19" y="-316.22" font-family="Times New Roman,serif" font-size="14.00">Count: 270</text>
<text text-anchor="middle" x="347.19" y="-301.22" font-family="Times New Roman,serif" font-size="14.00">Normalized count: 270.00</text>
<text text-anchor="middle" x="347.19" y="-286.22" font-family="Times New Roman,serif" font-size="14.00">Samples weight: 0.72</text>
</g>
<!-- BB2&#45;&gt;BB3 -->
<g id="edge3" class="edge">
<title>BB2&#45;&gt;BB3</title>
<path fill="none" stroke="black" d="M353.7,-360.52C353.92,-368.78 353.99,-377.46 353.9,-385.97"/>
<polygon fill="black" stroke="black" points="350.39,-386.16 353.71,-396.22 357.39,-386.29 350.39,-386.16"/>
</g>
<!-- BB3&#45;&gt;BB2 -->
<g id="edge4" class="edge">
<title>BB3&#45;&gt;BB2</title>
<path fill="none" stroke="black" d="M340.66,-396.22C340.45,-387.95 340.39,-379.27 340.48,-370.77"/>
<polygon fill="black" stroke="black" points="343.98,-370.59 340.67,-360.52 336.98,-370.46 343.98,-370.59"/>
</g>
<!-- BB4 -->
<g id="node5" class="node">
<title>BB4</title>
<ellipse fill="none" stroke="black" cx="108.19" cy="-312.42" rx="108.38" ry="48.17"/>
<text text-anchor="middle" x="108.19" y="-331.22" font-family="Times New Roman,serif" font-size="14.00">[38..3c)</text>
<text text-anchor="middle" x="108.19" y="-316.22" font-family="Times New Roman,serif" font-size="14.00">Count: 10</text>
<text text-anchor="middle" x="108.19" y="-301.22" font-family="Times New Roman,serif" font-size="14.00">Normalized count: 10.00</text>
<text text-anchor="middle" x="108.19" y="-286.22" font-family="Times New Roman,serif" font-size="14.00">Samples weight: 0.03</text>
</g>
<!-- BB3&#45;&gt;BB4 -->
<g id="edge5" class="edge">
<title>BB3&#45;&gt;BB4</title>
<path fill="none" stroke="black" d="M279.66,-406.8C250.01,-390.66 215.06,-371.62 184.47,-354.96"/>
<polygon fill="black" stroke="black" points="186.01,-351.81 175.55,-350.1 182.66,-357.96 186.01,-351.81"/>
</g>
<!-- BB4&#45;&gt;BB5 -->
<g id="edge6" class="edge">
<title>BB4&#45;&gt;BB5</title>
<path fill="none" stroke="black" d="M118.84,-360.48C135.27,-425.24 171.74,-543.07 235.19,-624.83 246.58,-639.52 261.22,-652.87 276.12,-664.36"/>
<polygon fill="black" stroke="black" points="274.31,-667.38 284.41,-670.56 278.5,-661.77 274.31,-667.38"/>
</g>
<!-- BB5&#45;&gt;BB1 -->
<g id="edge7" class="edge">
<title>BB5&#45;&gt;BB1</title>
<path fill="none" stroke="black" d="M347.19,-660.55C347.19,-652.29 347.19,-643.6 347.19,-635.1"/>
<polygon fill="black" stroke="black" points="350.69,-634.86 347.19,-624.86 343.69,-634.86 350.69,-634.86"/>
</g>
<!-- BB6 -->
<g id="node7" class="node">
<title>BB6</title>
<ellipse fill="none" stroke="black" cx="584.19" cy="-576.75" rx="103.48" ry="48.17"/>
<text text-anchor="middle" x="584.19" y="-595.55" font-family="Times New Roman,serif" font-size="14.00">[44..48)</text>
<text text-anchor="middle" x="584.19" y="-580.55" font-family="Times New Roman,serif" font-size="14.00">Count: 0</text>
<text text-anchor="middle" x="584.19" y="-565.55" font-family="Times New Roman,serif" font-size="14.00">Normalized count: 0.00</text>
<text text-anchor="middle" x="584.19" y="-550.55" font-family="Times New Roman,serif" font-size="14.00">Samples weight: 0.00</text>
</g>
<!-- BB5&#45;&gt;BB6 -->
<g id="edge8" class="edge">
<title>BB5&#45;&gt;BB6</title>
<path fill="none" stroke="black" d="M413.21,-671.66C443,-655.29 478.34,-635.88 509.14,-618.97"/>
<polygon fill="black" stroke="black" points="511.03,-621.92 518.11,-614.04 507.66,-615.79 511.03,-621.92"/>
</g>
<!-- BB11 -->
<g id="node12" class="node">
<title>BB11</title>
<ellipse fill="none" stroke="black" cx="597.19" cy="-444.58" rx="103.48" ry="48.17"/>
<text text-anchor="middle" x="597.19" y="-463.38" font-family="Times New Roman,serif" font-size="14.00">[80..88)</text>
<text text-anchor="middle" x="597.19" y="-448.38" font-family="Times New Roman,serif" font-size="14.00">Count: 0</text>
<text text-anchor="middle" x="597.19" y="-433.38" font-family="Times New Roman,serif" font-size="14.00">Normalized count: 0.00</text>
<text text-anchor="middle" x="597.19" y="-418.38" font-family="Times New Roman,serif" font-size="14.00">Samples weight: 0.00</text>
</g>
<!-- BB6&#45;&gt;BB11 -->
<g id="edge9" class="edge">
<title>BB6&#45;&gt;BB11</title>
<path fill="none" stroke="black" d="M588.92,-528.39C589.75,-520.03 590.63,-511.25 591.49,-502.65"/>
<polygon fill="black" stroke="black" points="594.97,-502.99 592.48,-492.69 588.01,-502.29 594.97,-502.99"/>
</g>
<!-- BB7 -->
<g id="node8" class="node">
<title>BB7</title>
<ellipse fill="none" stroke="black" cx="619.19" cy="-312.42" rx="103.48" ry="48.17"/>
<text text-anchor="middle" x="619.19" y="-331.22" font-family="Times New Roman,serif" font-size="14.00">[48..4c)</text>
<text text-anchor="middle" x="619.19" y="-316.22" font-family="Times New Roman,serif" font-size="14.00">Count: 4</text>
<text text-anchor="middle" x="619.19" y="-301.22" font-family="Times New Roman,serif" font-size="14.00">Normalized count: 4.00</text>
<text text-anchor="middle" x="619.19" y="-286.22" font-family="Times New Roman,serif" font-size="14.00">Samples weight: 0.01</text>
</g>
<!-- BB9 -->
<g id="node10" class="node">
<title>BB9</title>
<ellipse fill="none" stroke="black" cx="668.19" cy="-180.25" rx="103.48" ry="48.17"/>
<text text-anchor="middle" x="668.19" y="-199.05" font-family="Times New Roman,serif" font-size="14.00">[74..7c)</text>
<text text-anchor="middle" x="668.19" y="-184.05" font-family="Times New Roman,serif" font-size="14.00">Count: 6</text>
<text text-anchor="middle" x="668.19" y="-169.05" font-family="Times New Roman,serif" font-size="14.00">Normalized count: 6.00</text>
<text text-anchor="middle" x="668.19" y="-154.05" font-family="Times New Roman,serif" font-size="14.00">Samples weight: 0.02</text>
</g>
<!-- BB7&#45;&gt;BB9 -->
<g id="edge10" class="edge">
<title>BB7&#45;&gt;BB9</title>
<path fill="none" stroke="black" d="M636.74,-264.79C640.08,-255.91 643.61,-246.53 647.05,-237.39"/>
<polygon fill="black" stroke="black" points="650.35,-238.58 650.59,-227.99 643.79,-236.11 650.35,-238.58"/>
</g>
<!-- BB8 -->
<g id="node9" class="node">
<title>BB8</title>
<ellipse fill="none" stroke="black" cx="693.19" cy="-48.08" rx="108.38" ry="48.17"/>
<text text-anchor="middle" x="693.19" y="-66.88" font-family="Times New Roman,serif" font-size="14.00">[4c..74)</text>
<text text-anchor="middle" x="693.19" y="-51.88" font-family="Times New Roman,serif" font-size="14.00">Count: 73</text>
<text text-anchor="middle" x="693.19" y="-36.88" font-family="Times New Roman,serif" font-size="14.00">Normalized count: 73.00</text>
<text text-anchor="middle" x="693.19" y="-21.88" font-family="Times New Roman,serif" font-size="14.00">Samples weight: 0.19</text>
</g>
<!-- BB8&#45;&gt;BB9 -->
<g id="edge11" class="edge">
<title>BB8&#45;&gt;BB9</title>
<path fill="none" stroke="black" d="M690.64,-96.26C689.22,-104.86 687.54,-113.92 685.73,-122.77"/>
<polygon fill="black" stroke="black" points="682.29,-122.12 683.65,-132.62 689.14,-123.57 682.29,-122.12"/>
</g>
<!-- BB9&#45;&gt;BB8 -->
<g id="edge12" class="edge">
<title>BB9&#45;&gt;BB8</title>
<path fill="none" stroke="black" d="M670.76,-131.89C672.18,-123.33 673.85,-114.33 675.65,-105.55"/>
<polygon fill="black" stroke="black" points="679.07,-106.26 677.72,-95.76 672.22,-104.81 679.07,-106.26"/>
</g>
<!-- BB10 -->
<g id="node11" class="node">
<title>BB10</title>
<ellipse fill="none" stroke="black" cx="464.19" cy="-48.08" rx="103.48" ry="48.17"/>
<text text-anchor="middle" x="464.19" y="-66.88" font-family="Times New Roman,serif" font-size="14.00">[7c..80)</text>
<text text-anchor="middle" x="464.19" y="-51.88" font-family="Times New Roman,serif" font-size="14.00">Count: 0</text>
<text text-anchor="middle" x="464.19" y="-36.88" font-family="Times New Roman,serif" font-size="14.00">Normalized count: 0.00</text>
<text text-anchor="middle" x="464.19" y="-21.88" font-family="Times New Roman,serif" font-size="14.00">Samples weight: 0.00</text>
</g>
<!-- BB9&#45;&gt;BB10 -->
<g id="edge13" class="edge">
<title>BB9&#45;&gt;BB10</title>
<path fill="none" stroke="black" d="M608.08,-140.9C584.43,-125.81 557.14,-108.39 532.72,-92.81"/>
<polygon fill="black" stroke="black" points="534.53,-89.81 524.21,-87.38 530.76,-95.71 534.53,-89.81"/>
</g>
<!-- BB10&#45;&gt;BB11 -->
<g id="edge14" class="edge">
<title>BB10&#45;&gt;BB11</title>
<path fill="none" stroke="black" d="M461.13,-96.37C459.07,-160.09 462.72,-275.35 507.19,-360.5 514.07,-373.67 523.89,-385.84 534.55,-396.58"/>
<polygon fill="black" stroke="black" points="532.4,-399.36 542.03,-403.77 537.25,-394.32 532.4,-399.36"/>
</g>
<!-- BB11&#45;&gt;BB7 -->
<g id="edge15" class="edge">
<title>BB11&#45;&gt;BB7</title>
<path fill="none" stroke="black" d="M605.13,-396.59C606.55,-388.22 608.03,-379.41 609.49,-370.78"/>
<polygon fill="black" stroke="black" points="612.97,-371.22 611.18,-360.78 606.06,-370.05 612.97,-371.22"/>
</g>
<!-- BB12 -->
<g id="node13" class="node">
<title>BB12</title>
<ellipse fill="none" stroke="black" cx="843.19" cy="-312.42" rx="103.48" ry="48.17"/>
<text text-anchor="middle" x="843.19" y="-331.22" font-family="Times New Roman,serif" font-size="14.00">[88..89)</text>
<text text-anchor="middle" x="843.19" y="-316.22" font-family="Times New Roman,serif" font-size="14.00">Count: 0</text>
<text text-anchor="middle" x="843.19" y="-301.22" font-family="Times New Roman,serif" font-size="14.00">Normalized count: 0.00</text>
<text text-anchor="middle" x="843.19" y="-286.22" font-family="Times New Roman,serif" font-size="14.00">Samples weight: 0.00</text>
</g>
<!-- BB11&#45;&gt;BB12 -->
<g id="edge16" class="edge">
<title>BB11&#45;&gt;BB12</title>
<path fill="none" stroke="black" d="M664.41,-408.01C696.01,-391.29 733.83,-371.28 766.54,-353.97"/>
<polygon fill="black" stroke="black" points="768.42,-356.94 775.62,-349.17 765.15,-350.75 768.42,-356.94"/>
</g>
</g>
</svg>
