<?xml version="1.0" encoding="UTF-8" standalone="no"?>
<!DOCTYPE svg PUBLIC "-//W3C//DTD SVG 1.1//EN"
 "http://www.w3.org/Graphics/SVG/1.1/DTD/svg11.dtd">
<!-- Generated by graphviz version 2.47.0 (20210316.0004)
 -->
<!-- Title: G Pages: 1 -->
<svg width="632pt" height="633pt"
 viewBox="0.00 0.00 632.42 632.83" xmlns="http://www.w3.org/2000/svg" xmlns:xlink="http://www.w3.org/1999/xlink">
<g id="graph0" class="graph" transform="scale(1 1) rotate(0) translate(4 628.83)">
<title>G</title>
<polygon fill="white" stroke="transparent" points="-4,4 -4,-628.83 628.42,-628.83 628.42,4 -4,4"/>
<!-- BB0 -->
<g id="node1" class="node">
<title>BB0</title>
<ellipse fill="none" stroke="black" cx="292.19" cy="-576.75" rx="103.48" ry="48.17"/>
<text text-anchor="middle" x="292.19" y="-595.55" font-family="Times New Roman,serif" font-size="14.00">[0..4)</text>
<text text-anchor="middle" x="292.19" y="-580.55" font-family="Times New Roman,serif" font-size="14.00">Count: 52</text>
<text text-anchor="middle" x="292.19" y="-565.55" font-family="Times New Roman,serif" font-size="14.00">Normalized count: 1.00</text>
<text text-anchor="middle" x="292.19" y="-550.55" font-family="Times New Roman,serif" font-size="14.00">Samples weight: 0.00</text>
</g>
<!-- BB5 -->
<g id="node6" class="node">
<title>BB5</title>
<ellipse fill="none" stroke="black" cx="292.19" cy="-444.58" rx="108.38" ry="48.17"/>
<text text-anchor="middle" x="292.19" y="-463.38" font-family="Times New Roman,serif" font-size="14.00">[5d..65)</text>
<text text-anchor="middle" x="292.19" y="-448.38" font-family="Times New Roman,serif" font-size="14.00">Count: 835</text>
<text text-anchor="middle" x="292.19" y="-433.38" font-family="Times New Roman,serif" font-size="14.00">Normalized count: 16.06</text>
<text text-anchor="middle" x="292.19" y="-418.38" font-family="Times New Roman,serif" font-size="14.00">Samples weight: 0.07</text>
</g>
<!-- BB0&#45;&gt;BB5 -->
<g id="edge1" class="edge">
<title>BB0&#45;&gt;BB5</title>
<path fill="none" stroke="black" d="M292.19,-528.39C292.19,-520.12 292.19,-511.44 292.19,-502.93"/>
<polygon fill="black" stroke="black" points="295.69,-502.69 292.19,-492.69 288.69,-502.69 295.69,-502.69"/>
</g>
<!-- BB1 -->
<g id="node2" class="node">
<title>BB1</title>
<ellipse fill="none" stroke="black" cx="292.19" cy="-312.42" rx="108.38" ry="48.17"/>
<text text-anchor="middle" x="292.19" y="-331.22" font-family="Times New Roman,serif" font-size="14.00">[4..12)</text>
<text text-anchor="middle" x="292.19" y="-316.22" font-family="Times New Roman,serif" font-size="14.00">Count: 783</text>
<text text-anchor="middle" x="292.19" y="-301.22" font-family="Times New Roman,serif" font-size="14.00">Normalized count: 15.06</text>
<text text-anchor="middle" x="292.19" y="-286.22" font-family="Times New Roman,serif" font-size="14.00">Samples weight: 0.06</text>
</g>
<!-- BB3 -->
<g id="node4" class="node">
<title>BB3</title>
<ellipse fill="none" stroke="black" cx="318.19" cy="-180.25" rx="113.27" ry="48.17"/>
<text text-anchor="middle" x="318.19" y="-199.05" font-family="Times New Roman,serif" font-size="14.00">[2d..35)</text>
<text text-anchor="middle" x="318.19" y="-184.05" font-family="Times New Roman,serif" font-size="14.00">Count: 5281</text>
<text text-anchor="middle" x="318.19" y="-169.05" font-family="Times New Roman,serif" font-size="14.00">Normalized count: 101.56</text>
<text text-anchor="middle" x="318.19" y="-154.05" font-family="Times New Roman,serif" font-size="14.00">Samples weight: 0.43</text>
</g>
<!-- BB1&#45;&gt;BB3 -->
<g id="edge2" class="edge">
<title>BB1&#45;&gt;BB3</title>
<path fill="none" stroke="black" d="M301.57,-264.42C303.29,-255.85 305.09,-246.83 306.85,-238.01"/>
<polygon fill="black" stroke="black" points="310.29,-238.67 308.81,-228.17 303.42,-237.29 310.29,-238.67"/>
</g>
<!-- BB2 -->
<g id="node3" class="node">
<title>BB2</title>
<ellipse fill="none" stroke="black" cx="342.19" cy="-48.08" rx="108.38" ry="48.17"/>
<text text-anchor="middle" x="342.19" y="-66.88" font-family="Times New Roman,serif" font-size="14.00">[12..2d)</text>
<text text-anchor="middle" x="342.19" y="-51.88" font-family="Times New Roman,serif" font-size="14.00">Count: 4498</text>
<text text-anchor="middle" x="342.19" y="-36.88" font-family="Times New Roman,serif" font-size="14.00">Normalized count: 86.50</text>
<text text-anchor="middle" x="342.19" y="-21.88" font-family="Times New Roman,serif" font-size="14.00">Samples weight: 0.37</text>
</g>
<!-- BB2&#45;&gt;BB3 -->
<g id="edge3" class="edge">
<title>BB2&#45;&gt;BB3</title>
<path fill="none" stroke="black" d="M339.98,-96.44C338.65,-104.83 337.09,-113.64 335.4,-122.26"/>
<polygon fill="black" stroke="black" points="331.93,-121.76 333.36,-132.26 338.79,-123.16 331.93,-121.76"/>
</g>
<!-- BB3&#45;&gt;BB2 -->
<g id="edge4" class="edge">
<title>BB3&#45;&gt;BB2</title>
<path fill="none" stroke="black" d="M320.4,-131.89C321.74,-123.42 323.32,-114.53 325.02,-105.83"/>
<polygon fill="black" stroke="black" points="328.51,-106.25 327.08,-95.76 321.65,-104.86 328.51,-106.25"/>
</g>
<!-- BB4 -->
<g id="node5" class="node">
<title>BB4</title>
<ellipse fill="none" stroke="black" cx="108.19" cy="-48.08" rx="108.38" ry="48.17"/>
<text text-anchor="middle" x="108.19" y="-66.88" font-family="Times New Roman,serif" font-size="14.00">[35..5d)</text>
<text text-anchor="middle" x="108.19" y="-51.88" font-family="Times New Roman,serif" font-size="14.00">Count: 783</text>
<text text-anchor="middle" x="108.19" y="-36.88" font-family="Times New Roman,serif" font-size="14.00">Normalized count: 15.06</text>
<text text-anchor="middle" x="108.19" y="-21.88" font-family="Times New Roman,serif" font-size="14.00">Samples weight: 0.06</text>
</g>
<!-- BB3&#45;&gt;BB4 -->
<g id="edge5" class="edge">
<title>BB3&#45;&gt;BB4</title>
<path fill="none" stroke="black" d="M255.18,-140.2C231.19,-125.32 203.69,-108.28 179.02,-92.99"/>
<polygon fill="black" stroke="black" points="180.77,-89.95 170.43,-87.66 177.08,-95.9 180.77,-89.95"/>
</g>
<!-- BB4&#45;&gt;BB5 -->
<g id="edge6" class="edge">
<title>BB4&#45;&gt;BB5</title>
<path fill="none" stroke="black" d="M108,-96.4C109.92,-161.18 121.33,-278.76 175.19,-360.5 185.48,-376.12 199.8,-389.73 214.9,-401.16"/>
<polygon fill="black" stroke="black" points="213.2,-404.24 223.35,-407.28 217.31,-398.58 213.2,-404.24"/>
</g>
<!-- BB5&#45;&gt;BB1 -->
<g id="edge7" class="edge">
<title>BB5&#45;&gt;BB1</title>
<path fill="none" stroke="black" d="M292.19,-396.22C292.19,-387.95 292.19,-379.27 292.19,-370.77"/>
<polygon fill="black" stroke="black" points="295.69,-370.52 292.19,-360.52 288.69,-370.52 295.69,-370.52"/>
</g>
<!-- BB6 -->
<g id="node7" class="node">
<title>BB6</title>
<ellipse fill="none" stroke="black" cx="521.19" cy="-312.42" rx="103.48" ry="48.17"/>
<text text-anchor="middle" x="521.19" y="-331.22" font-family="Times New Roman,serif" font-size="14.00">[65..66)</text>
<text text-anchor="middle" x="521.19" y="-316.22" font-family="Times New Roman,serif" font-size="14.00">Count: 52</text>
<text text-anchor="middle" x="521.19" y="-301.22" font-family="Times New Roman,serif" font-size="14.00">Normalized count: 1.00</text>
<text text-anchor="middle" x="521.19" y="-286.22" font-family="Times New Roman,serif" font-size="14.00">Samples weight: 0.00</text>
</g>
<!-- BB5&#45;&gt;BB6 -->
<g id="edge8" class="edge">
<title>BB5&#45;&gt;BB6</title>
<path fill="none" stroke="black" d="M357.81,-406.28C385.96,-390.28 418.96,-371.53 447.9,-355.07"/>
<polygon fill="black" stroke="black" points="449.78,-358.03 456.74,-350.05 446.32,-351.95 449.78,-358.03"/>
</g>
</g>
</svg>
