<?xml version="1.0" encoding="UTF-8" standalone="no"?>
<!DOCTYPE svg PUBLIC "-//W3C//DTD SVG 1.1//EN"
 "http://www.w3.org/Graphics/SVG/1.1/DTD/svg11.dtd">
<!-- Generated by graphviz version 2.47.0 (20210316.0004)
 -->
<!-- Title: G Pages: 1 -->
<svg width="615pt" height="897pt"
 viewBox="0.00 0.00 615.48 897.17" xmlns="http://www.w3.org/2000/svg" xmlns:xlink="http://www.w3.org/1999/xlink">
<g id="graph0" class="graph" transform="scale(1 1) rotate(0) translate(4 893.17)">
<title>G</title>
<polygon fill="white" stroke="transparent" points="-4,4 -4,-893.17 611.48,-893.17 611.48,4 -4,4"/>
<!-- BB0 -->
<g id="node1" class="node">
<title>BB0</title>
<ellipse fill="none" stroke="black" cx="280.24" cy="-841.08" rx="103.48" ry="48.17"/>
<text text-anchor="middle" x="280.24" y="-859.88" font-family="Times New Roman,serif" font-size="14.00">[0..8)</text>
<text text-anchor="middle" x="280.24" y="-844.88" font-family="Times New Roman,serif" font-size="14.00">Count: 2</text>
<text text-anchor="middle" x="280.24" y="-829.88" font-family="Times New Roman,serif" font-size="14.00">Normalized count: 1.00</text>
<text text-anchor="middle" x="280.24" y="-814.88" font-family="Times New Roman,serif" font-size="14.00">Samples weight: 0.00</text>
</g>
<!-- BB7 -->
<g id="node8" class="node">
<title>BB7</title>
<ellipse fill="none" stroke="black" cx="280.24" cy="-708.92" rx="103.48" ry="48.17"/>
<text text-anchor="middle" x="280.24" y="-727.72" font-family="Times New Roman,serif" font-size="14.00">[87..93)</text>
<text text-anchor="middle" x="280.24" y="-712.72" font-family="Times New Roman,serif" font-size="14.00">Count: 3</text>
<text text-anchor="middle" x="280.24" y="-697.72" font-family="Times New Roman,serif" font-size="14.00">Normalized count: 1.50</text>
<text text-anchor="middle" x="280.24" y="-682.72" font-family="Times New Roman,serif" font-size="14.00">Samples weight: 0.01</text>
</g>
<!-- BB0&#45;&gt;BB7 -->
<g id="edge1" class="edge">
<title>BB0&#45;&gt;BB7</title>
<path fill="none" stroke="black" d="M280.24,-792.72C280.24,-784.45 280.24,-775.77 280.24,-767.27"/>
<polygon fill="black" stroke="black" points="283.74,-767.02 280.24,-757.02 276.74,-767.02 283.74,-767.02"/>
</g>
<!-- BB1 -->
<g id="node2" class="node">
<title>BB1</title>
<ellipse fill="none" stroke="black" cx="280.24" cy="-576.75" rx="103.48" ry="48.17"/>
<text text-anchor="middle" x="280.24" y="-595.55" font-family="Times New Roman,serif" font-size="14.00">[8..2a)</text>
<text text-anchor="middle" x="280.24" y="-580.55" font-family="Times New Roman,serif" font-size="14.00">Count: 1</text>
<text text-anchor="middle" x="280.24" y="-565.55" font-family="Times New Roman,serif" font-size="14.00">Normalized count: 0.50</text>
<text text-anchor="middle" x="280.24" y="-550.55" font-family="Times New Roman,serif" font-size="14.00">Samples weight: 0.00</text>
</g>
<!-- BB6 -->
<g id="node7" class="node">
<title>BB6</title>
<ellipse fill="none" stroke="black" cx="214.24" cy="-444.58" rx="103.48" ry="48.17"/>
<text text-anchor="middle" x="214.24" y="-463.38" font-family="Times New Roman,serif" font-size="14.00">[7b..87)</text>
<text text-anchor="middle" x="214.24" y="-448.38" font-family="Times New Roman,serif" font-size="14.00">Count: 13</text>
<text text-anchor="middle" x="214.24" y="-433.38" font-family="Times New Roman,serif" font-size="14.00">Normalized count: 6.50</text>
<text text-anchor="middle" x="214.24" y="-418.38" font-family="Times New Roman,serif" font-size="14.00">Samples weight: 0.03</text>
</g>
<!-- BB1&#45;&gt;BB6 -->
<g id="edge2" class="edge">
<title>BB1&#45;&gt;BB6</title>
<path fill="none" stroke="black" d="M256.97,-529.86C252.19,-520.43 247.11,-510.41 242.18,-500.69"/>
<polygon fill="black" stroke="black" points="245.16,-498.84 237.52,-491.5 238.92,-502 245.16,-498.84"/>
</g>
<!-- BB2 -->
<g id="node3" class="node">
<title>BB2</title>
<ellipse fill="none" stroke="black" cx="294.24" cy="-312.42" rx="103.48" ry="48.17"/>
<text text-anchor="middle" x="294.24" y="-331.22" font-family="Times New Roman,serif" font-size="14.00">[2a..2e)</text>
<text text-anchor="middle" x="294.24" y="-316.22" font-family="Times New Roman,serif" font-size="14.00">Count: 12</text>
<text text-anchor="middle" x="294.24" y="-301.22" font-family="Times New Roman,serif" font-size="14.00">Normalized count: 6.00</text>
<text text-anchor="middle" x="294.24" y="-286.22" font-family="Times New Roman,serif" font-size="14.00">Samples weight: 0.03</text>
</g>
<!-- BB4 -->
<g id="node5" class="node">
<title>BB4</title>
<ellipse fill="none" stroke="black" cx="308.24" cy="-180.25" rx="108.38" ry="48.17"/>
<text text-anchor="middle" x="308.24" y="-199.05" font-family="Times New Roman,serif" font-size="14.00">[5d..65)</text>
<text text-anchor="middle" x="308.24" y="-184.05" font-family="Times New Roman,serif" font-size="14.00">Count: 190</text>
<text text-anchor="middle" x="308.24" y="-169.05" font-family="Times New Roman,serif" font-size="14.00">Normalized count: 95.00</text>
<text text-anchor="middle" x="308.24" y="-154.05" font-family="Times New Roman,serif" font-size="14.00">Samples weight: 0.46</text>
</g>
<!-- BB2&#45;&gt;BB4 -->
<g id="edge3" class="edge">
<title>BB2&#45;&gt;BB4</title>
<path fill="none" stroke="black" d="M299.33,-264.05C300.23,-255.7 301.18,-246.91 302.1,-238.32"/>
<polygon fill="black" stroke="black" points="305.58,-238.67 303.17,-228.36 298.62,-237.93 305.58,-238.67"/>
</g>
<!-- BB3 -->
<g id="node4" class="node">
<title>BB3</title>
<ellipse fill="none" stroke="black" cx="332.24" cy="-48.08" rx="108.38" ry="48.17"/>
<text text-anchor="middle" x="332.24" y="-66.88" font-family="Times New Roman,serif" font-size="14.00">[2e..5d)</text>
<text text-anchor="middle" x="332.24" y="-51.88" font-family="Times New Roman,serif" font-size="14.00">Count: 178</text>
<text text-anchor="middle" x="332.24" y="-36.88" font-family="Times New Roman,serif" font-size="14.00">Normalized count: 89.00</text>
<text text-anchor="middle" x="332.24" y="-21.88" font-family="Times New Roman,serif" font-size="14.00">Samples weight: 0.43</text>
</g>
<!-- BB3&#45;&gt;BB4 -->
<g id="edge4" class="edge">
<title>BB3&#45;&gt;BB4</title>
<path fill="none" stroke="black" d="M330.06,-96.26C328.7,-104.86 327.09,-113.92 325.35,-122.77"/>
<polygon fill="black" stroke="black" points="321.91,-122.13 323.34,-132.62 328.77,-123.53 321.91,-122.13"/>
</g>
<!-- BB4&#45;&gt;BB3 -->
<g id="edge5" class="edge">
<title>BB4&#45;&gt;BB3</title>
<path fill="none" stroke="black" d="M310.45,-131.89C311.79,-123.42 313.37,-114.53 315.07,-105.83"/>
<polygon fill="black" stroke="black" points="318.56,-106.25 317.13,-95.76 311.7,-104.86 318.56,-106.25"/>
</g>
<!-- BB5 -->
<g id="node6" class="node">
<title>BB5</title>
<ellipse fill="none" stroke="black" cx="103.24" cy="-48.08" rx="103.48" ry="48.17"/>
<text text-anchor="middle" x="103.24" y="-66.88" font-family="Times New Roman,serif" font-size="14.00">[65..7b)</text>
<text text-anchor="middle" x="103.24" y="-51.88" font-family="Times New Roman,serif" font-size="14.00">Count: 12</text>
<text text-anchor="middle" x="103.24" y="-36.88" font-family="Times New Roman,serif" font-size="14.00">Normalized count: 6.00</text>
<text text-anchor="middle" x="103.24" y="-21.88" font-family="Times New Roman,serif" font-size="14.00">Samples weight: 0.03</text>
</g>
<!-- BB4&#45;&gt;BB5 -->
<g id="edge6" class="edge">
<title>BB4&#45;&gt;BB5</title>
<path fill="none" stroke="black" d="M247.01,-140.37C223.37,-125.36 196.21,-108.12 171.91,-92.69"/>
<polygon fill="black" stroke="black" points="173.76,-89.72 163.45,-87.31 170.01,-95.63 173.76,-89.72"/>
</g>
<!-- BB5&#45;&gt;BB6 -->
<g id="edge7" class="edge">
<title>BB5&#45;&gt;BB6</title>
<path fill="none" stroke="black" d="M113.3,-96C126.89,-157.38 152.81,-268.01 182.24,-360.5 185.03,-369.26 188.25,-378.44 191.55,-387.36"/>
<polygon fill="black" stroke="black" points="188.34,-388.79 195.14,-396.92 194.89,-386.32 188.34,-388.79"/>
</g>
<!-- BB6&#45;&gt;BB2 -->
<g id="edge8" class="edge">
<title>BB6&#45;&gt;BB2</title>
<path fill="none" stroke="black" d="M242.22,-398.06C248.21,-388.3 254.6,-377.91 260.78,-367.85"/>
<polygon fill="black" stroke="black" points="263.88,-369.49 266.14,-359.14 257.92,-365.82 263.88,-369.49"/>
</g>
<!-- BB6&#45;&gt;BB7 -->
<g id="edge9" class="edge">
<title>BB6&#45;&gt;BB7</title>
<path fill="none" stroke="black" d="M183.82,-490.85C177.41,-502.67 171.58,-515.74 168.24,-528.67 157.55,-570.05 149.02,-586.65 168.24,-624.83 176.46,-641.16 189.57,-655.09 203.98,-666.61"/>
<polygon fill="black" stroke="black" points="202.01,-669.51 212.1,-672.76 206.24,-663.93 202.01,-669.51"/>
</g>
<!-- BB7&#45;&gt;BB1 -->
<g id="edge10" class="edge">
<title>BB7&#45;&gt;BB1</title>
<path fill="none" stroke="black" d="M280.24,-660.55C280.24,-652.29 280.24,-643.6 280.24,-635.1"/>
<polygon fill="black" stroke="black" points="283.74,-634.86 280.24,-624.86 276.74,-634.86 283.74,-634.86"/>
</g>
<!-- BB8 -->
<g id="node9" class="node">
<title>BB8</title>
<ellipse fill="none" stroke="black" cx="504.24" cy="-576.75" rx="103.48" ry="48.17"/>
<text text-anchor="middle" x="504.24" y="-595.55" font-family="Times New Roman,serif" font-size="14.00">[93..9a)</text>
<text text-anchor="middle" x="504.24" y="-580.55" font-family="Times New Roman,serif" font-size="14.00">Count: 2</text>
<text text-anchor="middle" x="504.24" y="-565.55" font-family="Times New Roman,serif" font-size="14.00">Normalized count: 1.00</text>
<text text-anchor="middle" x="504.24" y="-550.55" font-family="Times New Roman,serif" font-size="14.00">Samples weight: 0.00</text>
</g>
<!-- BB7&#45;&gt;BB8 -->
<g id="edge11" class="edge">
<title>BB7&#45;&gt;BB8</title>
<path fill="none" stroke="black" d="M343.83,-670.96C371.26,-655.02 403.48,-636.3 431.83,-619.83"/>
<polygon fill="black" stroke="black" points="433.6,-622.84 440.49,-614.79 430.08,-616.79 433.6,-622.84"/>
</g>
</g>
</svg>
