<?xml version="1.0" encoding="UTF-8" standalone="no"?>
<!DOCTYPE svg PUBLIC "-//W3C//DTD SVG 1.1//EN"
 "http://www.w3.org/Graphics/SVG/1.1/DTD/svg11.dtd">
<!-- Generated by graphviz version 2.47.0 (20210316.0004)
 -->
<!-- Title: G Pages: 1 -->
<svg width="291pt" height="421pt"
 viewBox="0.00 0.00 290.56 420.70" xmlns="http://www.w3.org/2000/svg" xmlns:xlink="http://www.w3.org/1999/xlink">
<g id="graph0" class="graph" transform="scale(1 1) rotate(0) translate(4 416.7)">
<title>G</title>
<polygon fill="white" stroke="transparent" points="-4,4 -4,-416.7 286.56,-416.7 286.56,4 -4,4"/>
<!-- BB0 -->
<g id="node1" class="node">
<title>BB0</title>
<ellipse fill="none" stroke="black" cx="137.13" cy="-385.83" rx="37.45" ry="26.74"/>
<text text-anchor="middle" x="137.13" y="-389.63" font-family="Times New Roman,serif" font-size="14.00">[0..11)</text>
<text text-anchor="middle" x="137.13" y="-374.63" font-family="Times New Roman,serif" font-size="14.00">0.02</text>
</g>
<!-- BB5 -->
<g id="node6" class="node">
<title>BB5</title>
<ellipse fill="none" stroke="black" cx="137.13" cy="-296.09" rx="43.27" ry="26.74"/>
<text text-anchor="middle" x="137.13" y="-299.89" font-family="Times New Roman,serif" font-size="14.00">[6b..73)</text>
<text text-anchor="middle" x="137.13" y="-284.89" font-family="Times New Roman,serif" font-size="14.00">0.01</text>
</g>
<!-- BB0&#45;&gt;BB5 -->
<g id="edge1" class="edge">
<title>BB0&#45;&gt;BB5</title>
<path fill="none" stroke="black" d="M137.13,-358.51C137.13,-350.54 137.13,-341.65 137.13,-333.16"/>
<polygon fill="black" stroke="black" points="140.63,-333.09 137.13,-323.09 133.63,-333.09 140.63,-333.09"/>
</g>
<!-- BB1 -->
<g id="node2" class="node">
<title>BB1</title>
<ellipse fill="none" stroke="black" cx="137.13" cy="-206.35" rx="42.35" ry="26.74"/>
<text text-anchor="middle" x="137.13" y="-210.15" font-family="Times New Roman,serif" font-size="14.00">[11..15)</text>
<text text-anchor="middle" x="137.13" y="-195.15" font-family="Times New Roman,serif" font-size="14.00">0.01</text>
</g>
<!-- BB3 -->
<g id="node4" class="node">
<title>BB3</title>
<ellipse fill="none" stroke="black" cx="141.13" cy="-116.61" rx="41.02" ry="26.74"/>
<text text-anchor="middle" x="141.13" y="-120.41" font-family="Times New Roman,serif" font-size="14.00">[5f..67)</text>
<text text-anchor="middle" x="141.13" y="-105.41" font-family="Times New Roman,serif" font-size="14.00">0.02</text>
</g>
<!-- BB1&#45;&gt;BB3 -->
<g id="edge2" class="edge">
<title>BB1&#45;&gt;BB3</title>
<path fill="none" stroke="black" d="M138.33,-179.03C138.7,-171.06 139.1,-162.17 139.49,-153.68"/>
<polygon fill="black" stroke="black" points="142.99,-153.76 139.95,-143.61 136,-153.44 142.99,-153.76"/>
</g>
<!-- BB2 -->
<g id="node3" class="node">
<title>BB2</title>
<ellipse fill="none" stroke="black" cx="145.13" cy="-26.87" rx="41.02" ry="26.74"/>
<text text-anchor="middle" x="145.13" y="-30.67" font-family="Times New Roman,serif" font-size="14.00">[15..5f)</text>
<text text-anchor="middle" x="145.13" y="-15.67" font-family="Times New Roman,serif" font-size="14.00">0.90</text>
</g>
<!-- BB2&#45;&gt;BB3 -->
<g id="edge3" class="edge">
<title>BB2&#45;&gt;BB3</title>
<path fill="none" stroke="black" d="M150.17,-53.84C150.31,-61.9 150.04,-70.93 149.43,-79.55"/>
<polygon fill="black" stroke="black" points="145.92,-79.49 148.53,-89.76 152.9,-80.11 145.92,-79.49"/>
</g>
<!-- BB3&#45;&gt;BB2 -->
<g id="edge4" class="edge">
<title>BB3&#45;&gt;BB2</title>
<path fill="none" stroke="black" d="M136.1,-89.76C135.96,-81.55 136.23,-72.32 136.86,-63.54"/>
<polygon fill="black" stroke="black" points="140.35,-63.81 137.76,-53.54 133.38,-63.18 140.35,-63.81"/>
</g>
<!-- BB4 -->
<g id="node5" class="node">
<title>BB4</title>
<ellipse fill="none" stroke="black" cx="43.13" cy="-26.87" rx="43.27" ry="26.74"/>
<text text-anchor="middle" x="43.13" y="-30.67" font-family="Times New Roman,serif" font-size="14.00">[67..6b)</text>
<text text-anchor="middle" x="43.13" y="-15.67" font-family="Times New Roman,serif" font-size="14.00">0.02</text>
</g>
<!-- BB3&#45;&gt;BB4 -->
<g id="edge5" class="edge">
<title>BB3&#45;&gt;BB4</title>
<path fill="none" stroke="black" d="M117.41,-94.37C104.72,-83.01 88.91,-68.86 75.15,-56.53"/>
<polygon fill="black" stroke="black" points="77.1,-53.59 67.32,-49.52 72.43,-58.8 77.1,-53.59"/>
</g>
<!-- BB4&#45;&gt;BB5 -->
<g id="edge6" class="edge">
<title>BB4&#45;&gt;BB5</title>
<path fill="none" stroke="black" d="M44.59,-53.78C47.7,-94.02 57.27,-173.14 86.13,-233.22 91.64,-244.69 99.72,-255.86 107.83,-265.47"/>
<polygon fill="black" stroke="black" points="105.36,-267.96 114.59,-273.16 110.62,-263.34 105.36,-267.96"/>
</g>
<!-- BB5&#45;&gt;BB1 -->
<g id="edge7" class="edge">
<title>BB5&#45;&gt;BB1</title>
<path fill="none" stroke="black" d="M137.13,-268.77C137.13,-260.8 137.13,-251.91 137.13,-243.42"/>
<polygon fill="black" stroke="black" points="140.63,-243.35 137.13,-233.35 133.63,-243.35 140.63,-243.35"/>
</g>
<!-- BB6 -->
<g id="node7" class="node">
<title>BB6</title>
<ellipse fill="none" stroke="black" cx="240.13" cy="-206.35" rx="42.35" ry="26.74"/>
<text text-anchor="middle" x="240.13" y="-210.15" font-family="Times New Roman,serif" font-size="14.00">[73..74)</text>
<text text-anchor="middle" x="240.13" y="-195.15" font-family="Times New Roman,serif" font-size="14.00">0.00</text>
</g>
<!-- BB5&#45;&gt;BB6 -->
<g id="edge8" class="edge">
<title>BB5&#45;&gt;BB6</title>
<path fill="none" stroke="black" d="M162.07,-273.85C175.73,-262.21 192.83,-247.65 207.54,-235.11"/>
<polygon fill="black" stroke="black" points="210.09,-237.54 215.43,-228.39 205.55,-232.21 210.09,-237.54"/>
</g>
</g>
</svg>
