<?xml version="1.0" encoding="UTF-8" standalone="no"?>
<!DOCTYPE svg PUBLIC "-//W3C//DTD SVG 1.1//EN"
 "http://www.w3.org/Graphics/SVG/1.1/DTD/svg11.dtd">
<!-- Generated by graphviz version 2.47.0 (20210316.0004)
 -->
<!-- Title: G Pages: 1 -->
<svg width="620pt" height="633pt"
 viewBox="0.00 0.00 620.48 632.83" xmlns="http://www.w3.org/2000/svg" xmlns:xlink="http://www.w3.org/1999/xlink">
<g id="graph0" class="graph" transform="scale(1 1) rotate(0) translate(4 628.83)">
<title>G</title>
<polygon fill="white" stroke="transparent" points="-4,4 -4,-628.83 616.48,-628.83 616.48,4 -4,4"/>
<!-- BB0 -->
<g id="node1" class="node">
<title>BB0</title>
<ellipse fill="none" stroke="black" cx="285.24" cy="-576.75" rx="103.48" ry="48.17"/>
<text text-anchor="middle" x="285.24" y="-595.55" font-family="Times New Roman,serif" font-size="14.00">[0..10)</text>
<text text-anchor="middle" x="285.24" y="-580.55" font-family="Times New Roman,serif" font-size="14.00">Count: 21114</text>
<text text-anchor="middle" x="285.24" y="-565.55" font-family="Times New Roman,serif" font-size="14.00">Normalized count: 1.00</text>
<text text-anchor="middle" x="285.24" y="-550.55" font-family="Times New Roman,serif" font-size="14.00">Samples weight: 0.00</text>
</g>
<!-- BB5 -->
<g id="node6" class="node">
<title>BB5</title>
<ellipse fill="none" stroke="black" cx="285.24" cy="-444.58" rx="103.48" ry="48.17"/>
<text text-anchor="middle" x="285.24" y="-463.38" font-family="Times New Roman,serif" font-size="14.00">[73..7b)</text>
<text text-anchor="middle" x="285.24" y="-448.38" font-family="Times New Roman,serif" font-size="14.00">Count: 190026</text>
<text text-anchor="middle" x="285.24" y="-433.38" font-family="Times New Roman,serif" font-size="14.00">Normalized count: 9.00</text>
<text text-anchor="middle" x="285.24" y="-418.38" font-family="Times New Roman,serif" font-size="14.00">Samples weight: 0.02</text>
</g>
<!-- BB0&#45;&gt;BB5 -->
<g id="edge1" class="edge">
<title>BB0&#45;&gt;BB5</title>
<path fill="none" stroke="black" d="M285.24,-528.39C285.24,-520.12 285.24,-511.44 285.24,-502.93"/>
<polygon fill="black" stroke="black" points="288.74,-502.69 285.24,-492.69 281.74,-502.69 288.74,-502.69"/>
</g>
<!-- BB1 -->
<g id="node2" class="node">
<title>BB1</title>
<ellipse fill="none" stroke="black" cx="285.24" cy="-312.42" rx="103.48" ry="48.17"/>
<text text-anchor="middle" x="285.24" y="-331.22" font-family="Times New Roman,serif" font-size="14.00">[10..14)</text>
<text text-anchor="middle" x="285.24" y="-316.22" font-family="Times New Roman,serif" font-size="14.00">Count: 168912</text>
<text text-anchor="middle" x="285.24" y="-301.22" font-family="Times New Roman,serif" font-size="14.00">Normalized count: 8.00</text>
<text text-anchor="middle" x="285.24" y="-286.22" font-family="Times New Roman,serif" font-size="14.00">Samples weight: 0.01</text>
</g>
<!-- BB3 -->
<g id="node4" class="node">
<title>BB3</title>
<ellipse fill="none" stroke="black" cx="313.24" cy="-180.25" rx="113.27" ry="48.17"/>
<text text-anchor="middle" x="313.24" y="-199.05" font-family="Times New Roman,serif" font-size="14.00">[67..6f)</text>
<text text-anchor="middle" x="313.24" y="-184.05" font-family="Times New Roman,serif" font-size="14.00">Count: 6080832</text>
<text text-anchor="middle" x="313.24" y="-169.05" font-family="Times New Roman,serif" font-size="14.00">Normalized count: 288.00</text>
<text text-anchor="middle" x="313.24" y="-154.05" font-family="Times New Roman,serif" font-size="14.00">Samples weight: 0.48</text>
</g>
<!-- BB1&#45;&gt;BB3 -->
<g id="edge2" class="edge">
<title>BB1&#45;&gt;BB3</title>
<path fill="none" stroke="black" d="M295.35,-264.42C297.19,-255.85 299.13,-246.83 301.03,-238.01"/>
<polygon fill="black" stroke="black" points="304.46,-238.69 303.14,-228.17 297.62,-237.21 304.46,-238.69"/>
</g>
<!-- BB2 -->
<g id="node3" class="node">
<title>BB2</title>
<ellipse fill="none" stroke="black" cx="337.24" cy="-48.08" rx="113.27" ry="48.17"/>
<text text-anchor="middle" x="337.24" y="-66.88" font-family="Times New Roman,serif" font-size="14.00">[14..67)</text>
<text text-anchor="middle" x="337.24" y="-51.88" font-family="Times New Roman,serif" font-size="14.00">Count: 5911920</text>
<text text-anchor="middle" x="337.24" y="-36.88" font-family="Times New Roman,serif" font-size="14.00">Normalized count: 280.00</text>
<text text-anchor="middle" x="337.24" y="-21.88" font-family="Times New Roman,serif" font-size="14.00">Samples weight: 0.47</text>
</g>
<!-- BB2&#45;&gt;BB3 -->
<g id="edge3" class="edge">
<title>BB2&#45;&gt;BB3</title>
<path fill="none" stroke="black" d="M335.03,-96.44C333.7,-104.83 332.14,-113.64 330.45,-122.26"/>
<polygon fill="black" stroke="black" points="326.98,-121.76 328.41,-132.26 333.84,-123.16 326.98,-121.76"/>
</g>
<!-- BB3&#45;&gt;BB2 -->
<g id="edge4" class="edge">
<title>BB3&#45;&gt;BB2</title>
<path fill="none" stroke="black" d="M315.45,-131.89C316.79,-123.42 318.37,-114.53 320.07,-105.83"/>
<polygon fill="black" stroke="black" points="323.56,-106.25 322.13,-95.76 316.7,-104.86 323.56,-106.25"/>
</g>
<!-- BB4 -->
<g id="node5" class="node">
<title>BB4</title>
<ellipse fill="none" stroke="black" cx="103.24" cy="-48.08" rx="103.48" ry="48.17"/>
<text text-anchor="middle" x="103.24" y="-66.88" font-family="Times New Roman,serif" font-size="14.00">[6f..73)</text>
<text text-anchor="middle" x="103.24" y="-51.88" font-family="Times New Roman,serif" font-size="14.00">Count: 168912</text>
<text text-anchor="middle" x="103.24" y="-36.88" font-family="Times New Roman,serif" font-size="14.00">Normalized count: 8.00</text>
<text text-anchor="middle" x="103.24" y="-21.88" font-family="Times New Roman,serif" font-size="14.00">Samples weight: 0.01</text>
</g>
<!-- BB3&#45;&gt;BB4 -->
<g id="edge5" class="edge">
<title>BB3&#45;&gt;BB4</title>
<path fill="none" stroke="black" d="M250.23,-140.2C225.91,-125.12 198,-107.82 173.08,-92.37"/>
<polygon fill="black" stroke="black" points="174.74,-89.28 164.39,-86.99 171.05,-95.23 174.74,-89.28"/>
</g>
<!-- BB4&#45;&gt;BB5 -->
<g id="edge6" class="edge">
<title>BB4&#45;&gt;BB5</title>
<path fill="none" stroke="black" d="M103.84,-96.26C106.76,-160.89 119.75,-278.29 173.24,-360.5 183.26,-375.91 197.2,-389.49 211.84,-400.97"/>
<polygon fill="black" stroke="black" points="209.93,-403.91 220.02,-407.12 214.14,-398.31 209.93,-403.91"/>
</g>
<!-- BB5&#45;&gt;BB1 -->
<g id="edge7" class="edge">
<title>BB5&#45;&gt;BB1</title>
<path fill="none" stroke="black" d="M285.24,-396.22C285.24,-387.95 285.24,-379.27 285.24,-370.77"/>
<polygon fill="black" stroke="black" points="288.74,-370.52 285.24,-360.52 281.74,-370.52 288.74,-370.52"/>
</g>
<!-- BB6 -->
<g id="node7" class="node">
<title>BB6</title>
<ellipse fill="none" stroke="black" cx="509.24" cy="-312.42" rx="103.48" ry="48.17"/>
<text text-anchor="middle" x="509.24" y="-331.22" font-family="Times New Roman,serif" font-size="14.00">[7b..7c)</text>
<text text-anchor="middle" x="509.24" y="-316.22" font-family="Times New Roman,serif" font-size="14.00">Count: 21114</text>
<text text-anchor="middle" x="509.24" y="-301.22" font-family="Times New Roman,serif" font-size="14.00">Normalized count: 1.00</text>
<text text-anchor="middle" x="509.24" y="-286.22" font-family="Times New Roman,serif" font-size="14.00">Samples weight: 0.00</text>
</g>
<!-- BB5&#45;&gt;BB6 -->
<g id="edge8" class="edge">
<title>BB5&#45;&gt;BB6</title>
<path fill="none" stroke="black" d="M348.83,-406.63C376.26,-390.69 408.48,-371.97 436.83,-355.49"/>
<polygon fill="black" stroke="black" points="438.6,-358.51 445.49,-350.46 435.08,-352.46 438.6,-358.51"/>
</g>
</g>
</svg>
