<?xml version="1.0" encoding="UTF-8" standalone="no"?>
<!DOCTYPE svg PUBLIC "-//W3C//DTD SVG 1.1//EN"
 "http://www.w3.org/Graphics/SVG/1.1/DTD/svg11.dtd">
<!-- Generated by graphviz version 2.47.0 (20210316.0004)
 -->
<!-- Title: G Pages: 1 -->
<svg width="655pt" height="527pt"
 viewBox="0.00 0.00 654.74 526.77" xmlns="http://www.w3.org/2000/svg" xmlns:xlink="http://www.w3.org/1999/xlink">
<g id="graph0" class="graph" transform="scale(1 1) rotate(0) translate(4 522.77)">
<title>G</title>
<polygon fill="white" stroke="transparent" points="-4,4 -4,-522.77 650.74,-522.77 650.74,4 -4,4"/>
<!-- BB0 -->
<g id="node1" class="node">
<title>BB0</title>
<ellipse fill="none" stroke="black" cx="307.97" cy="-481.29" rx="106.55" ry="37.45"/>
<text text-anchor="middle" x="307.97" y="-492.59" font-family="Times New Roman,serif" font-size="14.00">[0..10)</text>
<text text-anchor="middle" x="307.97" y="-477.59" font-family="Times New Roman,serif" font-size="14.00">Normalized Count: NaN</text>
<text text-anchor="middle" x="307.97" y="-462.59" font-family="Times New Roman,serif" font-size="14.00">Samples weight: 0.00</text>
</g>
<!-- BB5 -->
<g id="node6" class="node">
<title>BB5</title>
<ellipse fill="none" stroke="black" cx="307.97" cy="-370.34" rx="115.93" ry="37.45"/>
<text text-anchor="middle" x="307.97" y="-381.64" font-family="Times New Roman,serif" font-size="14.00">[73..7b)</text>
<text text-anchor="middle" x="307.97" y="-366.64" font-family="Times New Roman,serif" font-size="14.00">Normalized Count: Infinity</text>
<text text-anchor="middle" x="307.97" y="-351.64" font-family="Times New Roman,serif" font-size="14.00">Samples weight: 0.01</text>
</g>
<!-- BB0&#45;&gt;BB5 -->
<g id="edge1" class="edge">
<title>BB0&#45;&gt;BB5</title>
<path fill="none" stroke="black" d="M307.97,-443.71C307.97,-435.53 307.97,-426.75 307.97,-418.23"/>
<polygon fill="black" stroke="black" points="311.47,-418.01 307.97,-408.01 304.47,-418.01 311.47,-418.01"/>
</g>
<!-- BB1 -->
<g id="node2" class="node">
<title>BB1</title>
<ellipse fill="none" stroke="black" cx="307.97" cy="-259.38" rx="106.55" ry="37.45"/>
<text text-anchor="middle" x="307.97" y="-270.68" font-family="Times New Roman,serif" font-size="14.00">[10..14)</text>
<text text-anchor="middle" x="307.97" y="-255.68" font-family="Times New Roman,serif" font-size="14.00">Normalized Count: NaN</text>
<text text-anchor="middle" x="307.97" y="-240.68" font-family="Times New Roman,serif" font-size="14.00">Samples weight: 0.00</text>
</g>
<!-- BB3 -->
<g id="node4" class="node">
<title>BB3</title>
<ellipse fill="none" stroke="black" cx="338.97" cy="-148.43" rx="115.93" ry="37.45"/>
<text text-anchor="middle" x="338.97" y="-159.73" font-family="Times New Roman,serif" font-size="14.00">[67..6f)</text>
<text text-anchor="middle" x="338.97" y="-144.73" font-family="Times New Roman,serif" font-size="14.00">Normalized Count: Infinity</text>
<text text-anchor="middle" x="338.97" y="-129.73" font-family="Times New Roman,serif" font-size="14.00">Samples weight: 0.05</text>
</g>
<!-- BB1&#45;&gt;BB3 -->
<g id="edge2" class="edge">
<title>BB1&#45;&gt;BB3</title>
<path fill="none" stroke="black" d="M318.37,-221.8C320.75,-213.45 323.31,-204.46 325.78,-195.76"/>
<polygon fill="black" stroke="black" points="329.16,-196.68 328.53,-186.1 322.43,-194.76 329.16,-196.68"/>
</g>
<!-- BB2 -->
<g id="node3" class="node">
<title>BB2</title>
<ellipse fill="none" stroke="black" cx="365.97" cy="-37.48" rx="115.93" ry="37.45"/>
<text text-anchor="middle" x="365.97" y="-48.78" font-family="Times New Roman,serif" font-size="14.00">[14..67)</text>
<text text-anchor="middle" x="365.97" y="-33.78" font-family="Times New Roman,serif" font-size="14.00">Normalized Count: Infinity</text>
<text text-anchor="middle" x="365.97" y="-18.78" font-family="Times New Roman,serif" font-size="14.00">Samples weight: 0.92</text>
</g>
<!-- BB2&#45;&gt;BB3 -->
<g id="edge3" class="edge">
<title>BB2&#45;&gt;BB3</title>
<path fill="none" stroke="black" d="M363.33,-74.97C361.57,-83.44 359.39,-92.56 357.06,-101.37"/>
<polygon fill="black" stroke="black" points="353.65,-100.58 354.36,-111.15 360.39,-102.44 353.65,-100.58"/>
</g>
<!-- BB3&#45;&gt;BB2 -->
<g id="edge4" class="edge">
<title>BB3&#45;&gt;BB2</title>
<path fill="none" stroke="black" d="M341.62,-110.85C343.38,-102.4 345.55,-93.31 347.88,-84.52"/>
<polygon fill="black" stroke="black" points="351.28,-85.35 350.57,-74.78 344.53,-83.49 351.28,-85.35"/>
</g>
<!-- BB4 -->
<g id="node5" class="node">
<title>BB4</title>
<ellipse fill="none" stroke="black" cx="115.97" cy="-37.48" rx="115.93" ry="37.45"/>
<text text-anchor="middle" x="115.97" y="-48.78" font-family="Times New Roman,serif" font-size="14.00">[6f..73)</text>
<text text-anchor="middle" x="115.97" y="-33.78" font-family="Times New Roman,serif" font-size="14.00">Normalized Count: Infinity</text>
<text text-anchor="middle" x="115.97" y="-18.78" font-family="Times New Roman,serif" font-size="14.00">Samples weight: 0.02</text>
</g>
<!-- BB3&#45;&gt;BB4 -->
<g id="edge5" class="edge">
<title>BB3&#45;&gt;BB4</title>
<path fill="none" stroke="black" d="M276.25,-116.79C248.7,-103.33 216.2,-87.45 187.7,-73.52"/>
<polygon fill="black" stroke="black" points="189.11,-70.32 178.59,-69.07 186.04,-76.61 189.11,-70.32"/>
</g>
<!-- BB4&#45;&gt;BB5 -->
<g id="edge6" class="edge">
<title>BB4&#45;&gt;BB5</title>
<path fill="none" stroke="black" d="M118.58,-75.1C124.09,-128.75 140.94,-229.63 191.97,-296.86 203.05,-311.46 218,-323.85 233.47,-334.03"/>
<polygon fill="black" stroke="black" points="231.77,-337.1 242.1,-339.46 235.5,-331.17 231.77,-337.1"/>
</g>
<!-- BB5&#45;&gt;BB1 -->
<g id="edge7" class="edge">
<title>BB5&#45;&gt;BB1</title>
<path fill="none" stroke="black" d="M307.97,-332.75C307.97,-324.58 307.97,-315.8 307.97,-307.27"/>
<polygon fill="black" stroke="black" points="311.47,-307.06 307.97,-297.06 304.47,-307.06 311.47,-307.06"/>
</g>
<!-- BB6 -->
<g id="node7" class="node">
<title>BB6</title>
<ellipse fill="none" stroke="black" cx="539.97" cy="-259.38" rx="106.55" ry="37.45"/>
<text text-anchor="middle" x="539.97" y="-270.68" font-family="Times New Roman,serif" font-size="14.00">[7b..7c)</text>
<text text-anchor="middle" x="539.97" y="-255.68" font-family="Times New Roman,serif" font-size="14.00">Normalized Count: NaN</text>
<text text-anchor="middle" x="539.97" y="-240.68" font-family="Times New Roman,serif" font-size="14.00">Samples weight: 0.00</text>
</g>
<!-- BB5&#45;&gt;BB6 -->
<g id="edge8" class="edge">
<title>BB5&#45;&gt;BB6</title>
<path fill="none" stroke="black" d="M372.28,-339.13C401.94,-325.21 437.25,-308.62 467.81,-294.27"/>
<polygon fill="black" stroke="black" points="469.56,-297.31 477.13,-289.89 466.59,-290.98 469.56,-297.31"/>
</g>
</g>
</svg>
