<?xml version="1.0" encoding="UTF-8" standalone="no"?>
<!DOCTYPE svg PUBLIC "-//W3C//DTD SVG 1.1//EN"
 "http://www.w3.org/Graphics/SVG/1.1/DTD/svg11.dtd">
<!-- Generated by graphviz version 2.47.0 (20210316.0004)
 -->
<!-- Title: G Pages: 1 -->
<svg width="633pt" height="633pt"
 viewBox="0.00 0.00 633.42 632.83" xmlns="http://www.w3.org/2000/svg" xmlns:xlink="http://www.w3.org/1999/xlink">
<g id="graph0" class="graph" transform="scale(1 1) rotate(0) translate(4 628.83)">
<title>G</title>
<polygon fill="white" stroke="transparent" points="-4,4 -4,-628.83 629.42,-628.83 629.42,4 -4,4"/>
<!-- BB0 -->
<g id="node1" class="node">
<title>BB0</title>
<ellipse fill="none" stroke="black" cx="293.19" cy="-576.75" rx="103.48" ry="48.17"/>
<text text-anchor="middle" x="293.19" y="-595.55" font-family="Times New Roman,serif" font-size="14.00">[0..4)</text>
<text text-anchor="middle" x="293.19" y="-580.55" font-family="Times New Roman,serif" font-size="14.00">Count: 140</text>
<text text-anchor="middle" x="293.19" y="-565.55" font-family="Times New Roman,serif" font-size="14.00">Normalized count: 1.00</text>
<text text-anchor="middle" x="293.19" y="-550.55" font-family="Times New Roman,serif" font-size="14.00">Samples weight: 0.01</text>
</g>
<!-- BB5 -->
<g id="node6" class="node">
<title>BB5</title>
<ellipse fill="none" stroke="black" cx="293.19" cy="-444.58" rx="108.38" ry="48.17"/>
<text text-anchor="middle" x="293.19" y="-463.38" font-family="Times New Roman,serif" font-size="14.00">[5a..62)</text>
<text text-anchor="middle" x="293.19" y="-448.38" font-family="Times New Roman,serif" font-size="14.00">Count: 1750</text>
<text text-anchor="middle" x="293.19" y="-433.38" font-family="Times New Roman,serif" font-size="14.00">Normalized count: 12.50</text>
<text text-anchor="middle" x="293.19" y="-418.38" font-family="Times New Roman,serif" font-size="14.00">Samples weight: 0.09</text>
</g>
<!-- BB0&#45;&gt;BB5 -->
<g id="edge1" class="edge">
<title>BB0&#45;&gt;BB5</title>
<path fill="none" stroke="black" d="M293.19,-528.39C293.19,-520.12 293.19,-511.44 293.19,-502.93"/>
<polygon fill="black" stroke="black" points="296.69,-502.69 293.19,-492.69 289.69,-502.69 296.69,-502.69"/>
</g>
<!-- BB1 -->
<g id="node2" class="node">
<title>BB1</title>
<ellipse fill="none" stroke="black" cx="293.19" cy="-312.42" rx="108.38" ry="48.17"/>
<text text-anchor="middle" x="293.19" y="-331.22" font-family="Times New Roman,serif" font-size="14.00">[4..12)</text>
<text text-anchor="middle" x="293.19" y="-316.22" font-family="Times New Roman,serif" font-size="14.00">Count: 1610</text>
<text text-anchor="middle" x="293.19" y="-301.22" font-family="Times New Roman,serif" font-size="14.00">Normalized count: 11.50</text>
<text text-anchor="middle" x="293.19" y="-286.22" font-family="Times New Roman,serif" font-size="14.00">Samples weight: 0.08</text>
</g>
<!-- BB3 -->
<g id="node4" class="node">
<title>BB3</title>
<ellipse fill="none" stroke="black" cx="317.19" cy="-180.25" rx="108.38" ry="48.17"/>
<text text-anchor="middle" x="317.19" y="-199.05" font-family="Times New Roman,serif" font-size="14.00">[2a..32)</text>
<text text-anchor="middle" x="317.19" y="-184.05" font-family="Times New Roman,serif" font-size="14.00">Count: 8115</text>
<text text-anchor="middle" x="317.19" y="-169.05" font-family="Times New Roman,serif" font-size="14.00">Normalized count: 57.96</text>
<text text-anchor="middle" x="317.19" y="-154.05" font-family="Times New Roman,serif" font-size="14.00">Samples weight: 0.41</text>
</g>
<!-- BB1&#45;&gt;BB3 -->
<g id="edge2" class="edge">
<title>BB1&#45;&gt;BB3</title>
<path fill="none" stroke="black" d="M301.85,-264.42C303.4,-256.05 305.02,-247.24 306.61,-238.62"/>
<polygon fill="black" stroke="black" points="310.08,-239.08 308.45,-228.61 303.2,-237.81 310.08,-239.08"/>
</g>
<!-- BB2 -->
<g id="node3" class="node">
<title>BB2</title>
<ellipse fill="none" stroke="black" cx="342.19" cy="-48.08" rx="108.38" ry="48.17"/>
<text text-anchor="middle" x="342.19" y="-66.88" font-family="Times New Roman,serif" font-size="14.00">[12..2a)</text>
<text text-anchor="middle" x="342.19" y="-51.88" font-family="Times New Roman,serif" font-size="14.00">Count: 6505</text>
<text text-anchor="middle" x="342.19" y="-36.88" font-family="Times New Roman,serif" font-size="14.00">Normalized count: 46.46</text>
<text text-anchor="middle" x="342.19" y="-21.88" font-family="Times New Roman,serif" font-size="14.00">Samples weight: 0.33</text>
</g>
<!-- BB2&#45;&gt;BB3 -->
<g id="edge3" class="edge">
<title>BB2&#45;&gt;BB3</title>
<path fill="none" stroke="black" d="M339.64,-96.26C338.22,-104.86 336.54,-113.92 334.73,-122.77"/>
<polygon fill="black" stroke="black" points="331.29,-122.12 332.65,-132.62 338.14,-123.57 331.29,-122.12"/>
</g>
<!-- BB3&#45;&gt;BB2 -->
<g id="edge4" class="edge">
<title>BB3&#45;&gt;BB2</title>
<path fill="none" stroke="black" d="M319.76,-131.89C321.18,-123.33 322.85,-114.33 324.65,-105.55"/>
<polygon fill="black" stroke="black" points="328.07,-106.26 326.72,-95.76 321.22,-104.81 328.07,-106.26"/>
</g>
<!-- BB4 -->
<g id="node5" class="node">
<title>BB4</title>
<ellipse fill="none" stroke="black" cx="108.19" cy="-48.08" rx="108.38" ry="48.17"/>
<text text-anchor="middle" x="108.19" y="-66.88" font-family="Times New Roman,serif" font-size="14.00">[32..5a)</text>
<text text-anchor="middle" x="108.19" y="-51.88" font-family="Times New Roman,serif" font-size="14.00">Count: 1610</text>
<text text-anchor="middle" x="108.19" y="-36.88" font-family="Times New Roman,serif" font-size="14.00">Normalized count: 11.50</text>
<text text-anchor="middle" x="108.19" y="-21.88" font-family="Times New Roman,serif" font-size="14.00">Samples weight: 0.08</text>
</g>
<!-- BB3&#45;&gt;BB4 -->
<g id="edge5" class="edge">
<title>BB3&#45;&gt;BB4</title>
<path fill="none" stroke="black" d="M255.33,-140.72C231.32,-125.77 203.68,-108.56 178.89,-93.12"/>
<polygon fill="black" stroke="black" points="180.59,-90.05 170.25,-87.74 176.89,-95.99 180.59,-90.05"/>
</g>
<!-- BB4&#45;&gt;BB5 -->
<g id="edge6" class="edge">
<title>BB4&#45;&gt;BB5</title>
<path fill="none" stroke="black" d="M108.18,-96.41C110.34,-161.2 122.17,-278.79 176.19,-360.5 186.5,-376.11 200.84,-389.7 215.94,-401.13"/>
<polygon fill="black" stroke="black" points="214.24,-404.22 224.39,-407.26 218.35,-398.55 214.24,-404.22"/>
</g>
<!-- BB5&#45;&gt;BB1 -->
<g id="edge7" class="edge">
<title>BB5&#45;&gt;BB1</title>
<path fill="none" stroke="black" d="M293.19,-396.22C293.19,-387.95 293.19,-379.27 293.19,-370.77"/>
<polygon fill="black" stroke="black" points="296.69,-370.52 293.19,-360.52 289.69,-370.52 296.69,-370.52"/>
</g>
<!-- BB6 -->
<g id="node7" class="node">
<title>BB6</title>
<ellipse fill="none" stroke="black" cx="522.19" cy="-312.42" rx="103.48" ry="48.17"/>
<text text-anchor="middle" x="522.19" y="-331.22" font-family="Times New Roman,serif" font-size="14.00">[62..63)</text>
<text text-anchor="middle" x="522.19" y="-316.22" font-family="Times New Roman,serif" font-size="14.00">Count: 140</text>
<text text-anchor="middle" x="522.19" y="-301.22" font-family="Times New Roman,serif" font-size="14.00">Normalized count: 1.00</text>
<text text-anchor="middle" x="522.19" y="-286.22" font-family="Times New Roman,serif" font-size="14.00">Samples weight: 0.01</text>
</g>
<!-- BB5&#45;&gt;BB6 -->
<g id="edge8" class="edge">
<title>BB5&#45;&gt;BB6</title>
<path fill="none" stroke="black" d="M358.81,-406.28C386.96,-390.28 419.96,-371.53 448.9,-355.07"/>
<polygon fill="black" stroke="black" points="450.78,-358.03 457.74,-350.05 447.32,-351.95 450.78,-358.03"/>
</g>
</g>
</svg>
