<?xml version="1.0" encoding="UTF-8" standalone="no"?>
<!DOCTYPE svg PUBLIC "-//W3C//DTD SVG 1.1//EN"
 "http://www.w3.org/Graphics/SVG/1.1/DTD/svg11.dtd">
<!-- Generated by graphviz version 2.47.0 (20210316.0004)
 -->
<!-- Title: G Pages: 1 -->
<svg width="1134pt" height="1558pt"
 viewBox="0.00 0.00 1134.48 1558.00" xmlns="http://www.w3.org/2000/svg" xmlns:xlink="http://www.w3.org/1999/xlink">
<g id="graph0" class="graph" transform="scale(1 1) rotate(0) translate(4 1554)">
<title>G</title>
<polygon fill="white" stroke="transparent" points="-4,4 -4,-1554 1130.48,-1554 1130.48,4 -4,4"/>
<!-- BB0 -->
<g id="node1" class="node">
<title>BB0</title>
<ellipse fill="none" stroke="black" cx="215.24" cy="-1501.92" rx="103.48" ry="48.17"/>
<text text-anchor="middle" x="215.24" y="-1520.72" font-family="Times New Roman,serif" font-size="14.00">[0..69)</text>
<text text-anchor="middle" x="215.24" y="-1505.72" font-family="Times New Roman,serif" font-size="14.00">Count: 1</text>
<text text-anchor="middle" x="215.24" y="-1490.72" font-family="Times New Roman,serif" font-size="14.00">Normalized count: 1.00</text>
<text text-anchor="middle" x="215.24" y="-1475.72" font-family="Times New Roman,serif" font-size="14.00">Samples weight: 0.01</text>
</g>
<!-- BB1 -->
<g id="node2" class="node">
<title>BB1</title>
<ellipse fill="none" stroke="black" cx="103.24" cy="-1369.75" rx="103.48" ry="48.17"/>
<text text-anchor="middle" x="103.24" y="-1388.55" font-family="Times New Roman,serif" font-size="14.00">[69..74)</text>
<text text-anchor="middle" x="103.24" y="-1373.55" font-family="Times New Roman,serif" font-size="14.00">Count: 0</text>
<text text-anchor="middle" x="103.24" y="-1358.55" font-family="Times New Roman,serif" font-size="14.00">Normalized count: 0.00</text>
<text text-anchor="middle" x="103.24" y="-1343.55" font-family="Times New Roman,serif" font-size="14.00">Samples weight: 0.00</text>
</g>
<!-- BB0&#45;&gt;BB1 -->
<g id="edge2" class="edge">
<title>BB0&#45;&gt;BB1</title>
<path fill="none" stroke="black" d="M177.32,-1456.85C167.83,-1445.82 157.57,-1433.89 147.79,-1422.53"/>
<polygon fill="black" stroke="black" points="150.29,-1420.07 141.12,-1414.77 144.99,-1424.63 150.29,-1420.07"/>
</g>
<!-- BB2 -->
<g id="node3" class="node">
<title>BB2</title>
<ellipse fill="none" stroke="black" cx="327.24" cy="-1369.75" rx="103.48" ry="48.17"/>
<text text-anchor="middle" x="327.24" y="-1388.55" font-family="Times New Roman,serif" font-size="14.00">[74..93)</text>
<text text-anchor="middle" x="327.24" y="-1373.55" font-family="Times New Roman,serif" font-size="14.00">Count: 1</text>
<text text-anchor="middle" x="327.24" y="-1358.55" font-family="Times New Roman,serif" font-size="14.00">Normalized count: 1.00</text>
<text text-anchor="middle" x="327.24" y="-1343.55" font-family="Times New Roman,serif" font-size="14.00">Samples weight: 0.01</text>
</g>
<!-- BB0&#45;&gt;BB2 -->
<g id="edge1" class="edge">
<title>BB0&#45;&gt;BB2</title>
<path fill="none" stroke="black" d="M253.16,-1456.85C262.64,-1445.82 272.91,-1433.89 282.68,-1422.53"/>
<polygon fill="black" stroke="black" points="285.49,-1424.63 289.36,-1414.77 280.18,-1420.07 285.49,-1424.63"/>
</g>
<!-- BB1&#45;&gt;BB2 -->
<g id="edge3" class="edge">
<title>BB1&#45;&gt;BB2</title>
<path fill="none" stroke="black" d="M206.49,-1369.75C208.94,-1369.75 211.4,-1369.75 213.85,-1369.75"/>
<polygon fill="black" stroke="black" points="213.94,-1373.25 223.94,-1369.75 213.94,-1366.25 213.94,-1373.25"/>
</g>
<!-- BB3 -->
<g id="node4" class="node">
<title>BB3</title>
<ellipse fill="none" stroke="black" cx="215.24" cy="-1237.58" rx="103.48" ry="48.17"/>
<text text-anchor="middle" x="215.24" y="-1256.38" font-family="Times New Roman,serif" font-size="14.00">[93..9e)</text>
<text text-anchor="middle" x="215.24" y="-1241.38" font-family="Times New Roman,serif" font-size="14.00">Count: 0</text>
<text text-anchor="middle" x="215.24" y="-1226.38" font-family="Times New Roman,serif" font-size="14.00">Normalized count: 0.00</text>
<text text-anchor="middle" x="215.24" y="-1211.38" font-family="Times New Roman,serif" font-size="14.00">Samples weight: 0.00</text>
</g>
<!-- BB2&#45;&gt;BB3 -->
<g id="edge5" class="edge">
<title>BB2&#45;&gt;BB3</title>
<path fill="none" stroke="black" d="M289.32,-1324.68C279.83,-1313.65 269.57,-1301.73 259.79,-1290.36"/>
<polygon fill="black" stroke="black" points="262.29,-1287.9 253.12,-1282.61 256.99,-1292.47 262.29,-1287.9"/>
</g>
<!-- BB4 -->
<g id="node5" class="node">
<title>BB4</title>
<ellipse fill="none" stroke="black" cx="439.24" cy="-1237.58" rx="103.48" ry="48.17"/>
<text text-anchor="middle" x="439.24" y="-1256.38" font-family="Times New Roman,serif" font-size="14.00">[9e..aa)</text>
<text text-anchor="middle" x="439.24" y="-1241.38" font-family="Times New Roman,serif" font-size="14.00">Count: 1</text>
<text text-anchor="middle" x="439.24" y="-1226.38" font-family="Times New Roman,serif" font-size="14.00">Normalized count: 1.00</text>
<text text-anchor="middle" x="439.24" y="-1211.38" font-family="Times New Roman,serif" font-size="14.00">Samples weight: 0.01</text>
</g>
<!-- BB2&#45;&gt;BB4 -->
<g id="edge4" class="edge">
<title>BB2&#45;&gt;BB4</title>
<path fill="none" stroke="black" d="M365.16,-1324.68C374.64,-1313.65 384.91,-1301.73 394.68,-1290.36"/>
<polygon fill="black" stroke="black" points="397.49,-1292.47 401.36,-1282.61 392.18,-1287.9 397.49,-1292.47"/>
</g>
<!-- BB3&#45;&gt;BB4 -->
<g id="edge6" class="edge">
<title>BB3&#45;&gt;BB4</title>
<path fill="none" stroke="black" d="M318.49,-1237.58C320.94,-1237.58 323.4,-1237.58 325.85,-1237.58"/>
<polygon fill="black" stroke="black" points="325.94,-1241.08 335.94,-1237.58 325.94,-1234.08 325.94,-1241.08"/>
</g>
<!-- BB5 -->
<g id="node6" class="node">
<title>BB5</title>
<ellipse fill="none" stroke="black" cx="327.24" cy="-1105.42" rx="103.48" ry="48.17"/>
<text text-anchor="middle" x="327.24" y="-1124.22" font-family="Times New Roman,serif" font-size="14.00">[aa..b4)</text>
<text text-anchor="middle" x="327.24" y="-1109.22" font-family="Times New Roman,serif" font-size="14.00">Count: 0</text>
<text text-anchor="middle" x="327.24" y="-1094.22" font-family="Times New Roman,serif" font-size="14.00">Normalized count: 0.00</text>
<text text-anchor="middle" x="327.24" y="-1079.22" font-family="Times New Roman,serif" font-size="14.00">Samples weight: 0.00</text>
</g>
<!-- BB4&#45;&gt;BB5 -->
<g id="edge8" class="edge">
<title>BB4&#45;&gt;BB5</title>
<path fill="none" stroke="black" d="M401.32,-1192.51C391.83,-1181.49 381.57,-1169.56 371.79,-1158.2"/>
<polygon fill="black" stroke="black" points="374.29,-1155.74 365.12,-1150.44 368.99,-1160.3 374.29,-1155.74"/>
</g>
<!-- BB6 -->
<g id="node7" class="node">
<title>BB6</title>
<ellipse fill="none" stroke="black" cx="551.24" cy="-1105.42" rx="103.48" ry="48.17"/>
<text text-anchor="middle" x="551.24" y="-1124.22" font-family="Times New Roman,serif" font-size="14.00">[b4..bb)</text>
<text text-anchor="middle" x="551.24" y="-1109.22" font-family="Times New Roman,serif" font-size="14.00">Count: 1</text>
<text text-anchor="middle" x="551.24" y="-1094.22" font-family="Times New Roman,serif" font-size="14.00">Normalized count: 1.00</text>
<text text-anchor="middle" x="551.24" y="-1079.22" font-family="Times New Roman,serif" font-size="14.00">Samples weight: 0.01</text>
</g>
<!-- BB4&#45;&gt;BB6 -->
<g id="edge7" class="edge">
<title>BB4&#45;&gt;BB6</title>
<path fill="none" stroke="black" d="M477.16,-1192.51C486.64,-1181.49 496.91,-1169.56 506.68,-1158.2"/>
<polygon fill="black" stroke="black" points="509.49,-1160.3 513.36,-1150.44 504.18,-1155.74 509.49,-1160.3"/>
</g>
<!-- BB5&#45;&gt;BB6 -->
<g id="edge9" class="edge">
<title>BB5&#45;&gt;BB6</title>
<path fill="none" stroke="black" d="M430.49,-1105.42C432.94,-1105.42 435.4,-1105.42 437.85,-1105.42"/>
<polygon fill="black" stroke="black" points="437.94,-1108.92 447.94,-1105.42 437.94,-1101.92 437.94,-1108.92"/>
</g>
<!-- BB20 -->
<g id="node21" class="node">
<title>BB20</title>
<ellipse fill="none" stroke="black" cx="551.24" cy="-973.25" rx="103.48" ry="48.17"/>
<text text-anchor="middle" x="551.24" y="-992.05" font-family="Times New Roman,serif" font-size="14.00">[2cc..2d7)</text>
<text text-anchor="middle" x="551.24" y="-977.05" font-family="Times New Roman,serif" font-size="14.00">Count: 3</text>
<text text-anchor="middle" x="551.24" y="-962.05" font-family="Times New Roman,serif" font-size="14.00">Normalized count: 3.00</text>
<text text-anchor="middle" x="551.24" y="-947.05" font-family="Times New Roman,serif" font-size="14.00">Samples weight: 0.04</text>
</g>
<!-- BB6&#45;&gt;BB20 -->
<g id="edge10" class="edge">
<title>BB6&#45;&gt;BB20</title>
<path fill="none" stroke="black" d="M551.24,-1057.05C551.24,-1048.79 551.24,-1040.1 551.24,-1031.6"/>
<polygon fill="black" stroke="black" points="554.74,-1031.36 551.24,-1021.36 547.74,-1031.36 554.74,-1031.36"/>
</g>
<!-- BB7 -->
<g id="node8" class="node">
<title>BB7</title>
<ellipse fill="none" stroke="black" cx="551.24" cy="-841.08" rx="103.48" ry="48.17"/>
<text text-anchor="middle" x="551.24" y="-859.88" font-family="Times New Roman,serif" font-size="14.00">[bb..c5)</text>
<text text-anchor="middle" x="551.24" y="-844.88" font-family="Times New Roman,serif" font-size="14.00">Count: 2</text>
<text text-anchor="middle" x="551.24" y="-829.88" font-family="Times New Roman,serif" font-size="14.00">Normalized count: 2.00</text>
<text text-anchor="middle" x="551.24" y="-814.88" font-family="Times New Roman,serif" font-size="14.00">Samples weight: 0.02</text>
</g>
<!-- BB11 -->
<g id="node12" class="node">
<title>BB11</title>
<ellipse fill="none" stroke="black" cx="663.24" cy="-708.92" rx="103.48" ry="48.17"/>
<text text-anchor="middle" x="663.24" y="-727.72" font-family="Times New Roman,serif" font-size="14.00">[173..17b)</text>
<text text-anchor="middle" x="663.24" y="-712.72" font-family="Times New Roman,serif" font-size="14.00">Count: 8</text>
<text text-anchor="middle" x="663.24" y="-697.72" font-family="Times New Roman,serif" font-size="14.00">Normalized count: 8.00</text>
<text text-anchor="middle" x="663.24" y="-682.72" font-family="Times New Roman,serif" font-size="14.00">Samples weight: 0.10</text>
</g>
<!-- BB7&#45;&gt;BB11 -->
<g id="edge11" class="edge">
<title>BB7&#45;&gt;BB11</title>
<path fill="none" stroke="black" d="M589.16,-796.01C598.64,-784.99 608.91,-773.06 618.68,-761.7"/>
<polygon fill="black" stroke="black" points="621.49,-763.8 625.36,-753.94 616.18,-759.24 621.49,-763.8"/>
</g>
<!-- BB8 -->
<g id="node9" class="node">
<title>BB8</title>
<ellipse fill="none" stroke="black" cx="598.24" cy="-576.75" rx="103.48" ry="48.17"/>
<text text-anchor="middle" x="598.24" y="-595.55" font-family="Times New Roman,serif" font-size="14.00">[c5..10d)</text>
<text text-anchor="middle" x="598.24" y="-580.55" font-family="Times New Roman,serif" font-size="14.00">Count: 6</text>
<text text-anchor="middle" x="598.24" y="-565.55" font-family="Times New Roman,serif" font-size="14.00">Normalized count: 6.00</text>
<text text-anchor="middle" x="598.24" y="-550.55" font-family="Times New Roman,serif" font-size="14.00">Samples weight: 0.07</text>
</g>
<!-- BB9 -->
<g id="node10" class="node">
<title>BB9</title>
<ellipse fill="none" stroke="black" cx="505.24" cy="-444.58" rx="103.48" ry="48.17"/>
<text text-anchor="middle" x="505.24" y="-463.38" font-family="Times New Roman,serif" font-size="14.00">[10d..118)</text>
<text text-anchor="middle" x="505.24" y="-448.38" font-family="Times New Roman,serif" font-size="14.00">Count: 0</text>
<text text-anchor="middle" x="505.24" y="-433.38" font-family="Times New Roman,serif" font-size="14.00">Normalized count: 0.00</text>
<text text-anchor="middle" x="505.24" y="-418.38" font-family="Times New Roman,serif" font-size="14.00">Samples weight: 0.00</text>
</g>
<!-- BB8&#45;&gt;BB9 -->
<g id="edge13" class="edge">
<title>BB8&#45;&gt;BB9</title>
<path fill="none" stroke="black" d="M566.23,-530.95C558.85,-520.62 550.93,-509.54 543.32,-498.89"/>
<polygon fill="black" stroke="black" points="545.96,-496.56 537.3,-490.46 540.27,-500.63 545.96,-496.56"/>
</g>
<!-- BB10 -->
<g id="node11" class="node">
<title>BB10</title>
<ellipse fill="none" stroke="black" cx="729.24" cy="-444.58" rx="103.48" ry="48.17"/>
<text text-anchor="middle" x="729.24" y="-463.38" font-family="Times New Roman,serif" font-size="14.00">[118..173)</text>
<text text-anchor="middle" x="729.24" y="-448.38" font-family="Times New Roman,serif" font-size="14.00">Count: 6</text>
<text text-anchor="middle" x="729.24" y="-433.38" font-family="Times New Roman,serif" font-size="14.00">Normalized count: 6.00</text>
<text text-anchor="middle" x="729.24" y="-418.38" font-family="Times New Roman,serif" font-size="14.00">Samples weight: 0.07</text>
</g>
<!-- BB8&#45;&gt;BB10 -->
<g id="edge12" class="edge">
<title>BB8&#45;&gt;BB10</title>
<path fill="none" stroke="black" d="M641.49,-532.77C653.46,-520.88 666.54,-507.88 678.87,-495.63"/>
<polygon fill="black" stroke="black" points="681.4,-498.05 686.03,-488.52 676.47,-493.09 681.4,-498.05"/>
</g>
<!-- BB9&#45;&gt;BB10 -->
<g id="edge14" class="edge">
<title>BB9&#45;&gt;BB10</title>
<path fill="none" stroke="black" d="M608.49,-444.58C610.94,-444.58 613.4,-444.58 615.85,-444.58"/>
<polygon fill="black" stroke="black" points="615.94,-448.08 625.94,-444.58 615.94,-441.08 615.94,-448.08"/>
</g>
<!-- BB10&#45;&gt;BB11 -->
<g id="edge15" class="edge">
<title>BB10&#45;&gt;BB11</title>
<path fill="none" stroke="black" d="M729.44,-492.71C728.37,-529.5 724.14,-581.47 710.24,-624.83 707.09,-634.64 702.71,-644.58 697.87,-654.01"/>
<polygon fill="black" stroke="black" points="694.75,-652.41 693.11,-662.88 700.92,-655.72 694.75,-652.41"/>
</g>
<!-- BB11&#45;&gt;BB8 -->
<g id="edge16" class="edge">
<title>BB11&#45;&gt;BB8</title>
<path fill="none" stroke="black" d="M640.32,-662.02C635.61,-652.59 630.61,-642.57 625.76,-632.86"/>
<polygon fill="black" stroke="black" points="628.77,-631.05 621.17,-623.67 622.5,-634.18 628.77,-631.05"/>
</g>
<!-- BB12 -->
<g id="node13" class="node">
<title>BB12</title>
<ellipse fill="none" stroke="black" cx="909.24" cy="-576.75" rx="103.48" ry="48.17"/>
<text text-anchor="middle" x="909.24" y="-595.55" font-family="Times New Roman,serif" font-size="14.00">[17b..180)</text>
<text text-anchor="middle" x="909.24" y="-580.55" font-family="Times New Roman,serif" font-size="14.00">Count: 2</text>
<text text-anchor="middle" x="909.24" y="-565.55" font-family="Times New Roman,serif" font-size="14.00">Normalized count: 2.00</text>
<text text-anchor="middle" x="909.24" y="-550.55" font-family="Times New Roman,serif" font-size="14.00">Samples weight: 0.02</text>
</g>
<!-- BB11&#45;&gt;BB12 -->
<g id="edge17" class="edge">
<title>BB11&#45;&gt;BB12</title>
<path fill="none" stroke="black" d="M730.46,-672.35C762.06,-655.63 799.88,-635.61 832.59,-618.31"/>
<polygon fill="black" stroke="black" points="834.47,-621.27 841.67,-613.5 831.2,-615.08 834.47,-621.27"/>
</g>
<!-- BB18 -->
<g id="node19" class="node">
<title>BB18</title>
<ellipse fill="none" stroke="black" cx="958.24" cy="-444.58" rx="108.38" ry="48.17"/>
<text text-anchor="middle" x="958.24" y="-463.38" font-family="Times New Roman,serif" font-size="14.00">[1d6..1df)</text>
<text text-anchor="middle" x="958.24" y="-448.38" font-family="Times New Roman,serif" font-size="14.00">Count: 10</text>
<text text-anchor="middle" x="958.24" y="-433.38" font-family="Times New Roman,serif" font-size="14.00">Normalized count: 10.00</text>
<text text-anchor="middle" x="958.24" y="-418.38" font-family="Times New Roman,serif" font-size="14.00">Samples weight: 0.12</text>
</g>
<!-- BB12&#45;&gt;BB18 -->
<g id="edge18" class="edge">
<title>BB12&#45;&gt;BB18</title>
<path fill="none" stroke="black" d="M926.79,-529.12C930.13,-520.24 933.66,-510.87 937.1,-501.73"/>
<polygon fill="black" stroke="black" points="940.4,-502.91 940.64,-492.32 933.85,-500.45 940.4,-502.91"/>
</g>
<!-- BB13 -->
<g id="node14" class="node">
<title>BB13</title>
<ellipse fill="none" stroke="black" cx="892.24" cy="-312.42" rx="103.48" ry="48.17"/>
<text text-anchor="middle" x="892.24" y="-331.22" font-family="Times New Roman,serif" font-size="14.00">[180..195)</text>
<text text-anchor="middle" x="892.24" y="-316.22" font-family="Times New Roman,serif" font-size="14.00">Count: 8</text>
<text text-anchor="middle" x="892.24" y="-301.22" font-family="Times New Roman,serif" font-size="14.00">Normalized count: 8.00</text>
<text text-anchor="middle" x="892.24" y="-286.22" font-family="Times New Roman,serif" font-size="14.00">Samples weight: 0.10</text>
</g>
<!-- BB14 -->
<g id="node15" class="node">
<title>BB14</title>
<ellipse fill="none" stroke="black" cx="668.24" cy="-180.25" rx="103.48" ry="48.17"/>
<text text-anchor="middle" x="668.24" y="-199.05" font-family="Times New Roman,serif" font-size="14.00">[195..1a8)</text>
<text text-anchor="middle" x="668.24" y="-184.05" font-family="Times New Roman,serif" font-size="14.00">Count: 8</text>
<text text-anchor="middle" x="668.24" y="-169.05" font-family="Times New Roman,serif" font-size="14.00">Normalized count: 8.00</text>
<text text-anchor="middle" x="668.24" y="-154.05" font-family="Times New Roman,serif" font-size="14.00">Samples weight: 0.10</text>
</g>
<!-- BB13&#45;&gt;BB14 -->
<g id="edge20" class="edge">
<title>BB13&#45;&gt;BB14</title>
<path fill="none" stroke="black" d="M828.65,-274.46C801.22,-258.52 768.99,-239.8 740.65,-223.33"/>
<polygon fill="black" stroke="black" points="742.39,-220.29 731.99,-218.29 738.87,-226.35 742.39,-220.29"/>
</g>
<!-- BB15 -->
<g id="node16" class="node">
<title>BB15</title>
<ellipse fill="none" stroke="black" cx="892.24" cy="-180.25" rx="103.48" ry="48.17"/>
<text text-anchor="middle" x="892.24" y="-199.05" font-family="Times New Roman,serif" font-size="14.00">[1a8..1bd)</text>
<text text-anchor="middle" x="892.24" y="-184.05" font-family="Times New Roman,serif" font-size="14.00">Count: 8</text>
<text text-anchor="middle" x="892.24" y="-169.05" font-family="Times New Roman,serif" font-size="14.00">Normalized count: 8.00</text>
<text text-anchor="middle" x="892.24" y="-154.05" font-family="Times New Roman,serif" font-size="14.00">Samples weight: 0.10</text>
</g>
<!-- BB13&#45;&gt;BB15 -->
<g id="edge19" class="edge">
<title>BB13&#45;&gt;BB15</title>
<path fill="none" stroke="black" d="M892.24,-264.05C892.24,-255.79 892.24,-247.1 892.24,-238.6"/>
<polygon fill="black" stroke="black" points="895.74,-238.36 892.24,-228.36 888.74,-238.36 895.74,-238.36"/>
</g>
<!-- BB14&#45;&gt;BB15 -->
<g id="edge21" class="edge">
<title>BB14&#45;&gt;BB15</title>
<path fill="none" stroke="black" d="M771.49,-180.25C773.94,-180.25 776.4,-180.25 778.85,-180.25"/>
<polygon fill="black" stroke="black" points="778.94,-183.75 788.94,-180.25 778.94,-176.75 778.94,-183.75"/>
</g>
<!-- BB16 -->
<g id="node17" class="node">
<title>BB16</title>
<ellipse fill="none" stroke="black" cx="799.24" cy="-48.08" rx="103.48" ry="48.17"/>
<text text-anchor="middle" x="799.24" y="-66.88" font-family="Times New Roman,serif" font-size="14.00">[1bd..1d0)</text>
<text text-anchor="middle" x="799.24" y="-51.88" font-family="Times New Roman,serif" font-size="14.00">Count: 7</text>
<text text-anchor="middle" x="799.24" y="-36.88" font-family="Times New Roman,serif" font-size="14.00">Normalized count: 7.00</text>
<text text-anchor="middle" x="799.24" y="-21.88" font-family="Times New Roman,serif" font-size="14.00">Samples weight: 0.08</text>
</g>
<!-- BB15&#45;&gt;BB16 -->
<g id="edge23" class="edge">
<title>BB15&#45;&gt;BB16</title>
<path fill="none" stroke="black" d="M860.23,-134.45C852.85,-124.12 844.93,-113.04 837.32,-102.39"/>
<polygon fill="black" stroke="black" points="839.96,-100.06 831.3,-93.96 834.27,-104.13 839.96,-100.06"/>
</g>
<!-- BB17 -->
<g id="node18" class="node">
<title>BB17</title>
<ellipse fill="none" stroke="black" cx="1023.24" cy="-48.08" rx="103.48" ry="48.17"/>
<text text-anchor="middle" x="1023.24" y="-66.88" font-family="Times New Roman,serif" font-size="14.00">[1d0..1d6)</text>
<text text-anchor="middle" x="1023.24" y="-51.88" font-family="Times New Roman,serif" font-size="14.00">Count: 8</text>
<text text-anchor="middle" x="1023.24" y="-36.88" font-family="Times New Roman,serif" font-size="14.00">Normalized count: 8.00</text>
<text text-anchor="middle" x="1023.24" y="-21.88" font-family="Times New Roman,serif" font-size="14.00">Samples weight: 0.10</text>
</g>
<!-- BB15&#45;&gt;BB17 -->
<g id="edge22" class="edge">
<title>BB15&#45;&gt;BB17</title>
<path fill="none" stroke="black" d="M935.49,-136.27C947.46,-124.38 960.54,-111.38 972.87,-99.13"/>
<polygon fill="black" stroke="black" points="975.4,-101.55 980.03,-92.02 970.47,-96.59 975.4,-101.55"/>
</g>
<!-- BB16&#45;&gt;BB17 -->
<g id="edge24" class="edge">
<title>BB16&#45;&gt;BB17</title>
<path fill="none" stroke="black" d="M902.49,-48.08C904.94,-48.08 907.4,-48.08 909.85,-48.08"/>
<polygon fill="black" stroke="black" points="909.94,-51.58 919.94,-48.08 909.94,-44.58 909.94,-51.58"/>
</g>
<!-- BB17&#45;&gt;BB18 -->
<g id="edge25" class="edge">
<title>BB17&#45;&gt;BB18</title>
<path fill="none" stroke="black" d="M1026.73,-96.35C1029.89,-158.34 1030.62,-269.88 1004.24,-360.5 1001.44,-370.12 997.38,-379.85 992.81,-389.1"/>
<polygon fill="black" stroke="black" points="989.6,-387.68 988.1,-398.16 995.82,-390.9 989.6,-387.68"/>
</g>
<!-- BB18&#45;&gt;BB13 -->
<g id="edge26" class="edge">
<title>BB18&#45;&gt;BB13</title>
<path fill="none" stroke="black" d="M934.78,-397.32C930.07,-388.02 925.06,-378.16 920.21,-368.58"/>
<polygon fill="black" stroke="black" points="923.26,-366.86 915.62,-359.53 917.02,-370.03 923.26,-366.86"/>
</g>
<!-- BB19 -->
<g id="node20" class="node">
<title>BB19</title>
<ellipse fill="none" stroke="black" cx="554.24" cy="-312.42" rx="103.48" ry="48.17"/>
<text text-anchor="middle" x="554.24" y="-331.22" font-family="Times New Roman,serif" font-size="14.00">[1df..2cc)</text>
<text text-anchor="middle" x="554.24" y="-316.22" font-family="Times New Roman,serif" font-size="14.00">Count: 2</text>
<text text-anchor="middle" x="554.24" y="-301.22" font-family="Times New Roman,serif" font-size="14.00">Normalized count: 2.00</text>
<text text-anchor="middle" x="554.24" y="-286.22" font-family="Times New Roman,serif" font-size="14.00">Samples weight: 0.02</text>
</g>
<!-- BB18&#45;&gt;BB19 -->
<g id="edge27" class="edge">
<title>BB18&#45;&gt;BB19</title>
<path fill="none" stroke="black" d="M880.61,-411.07C867.55,-405.97 854.07,-400.93 841.24,-396.5 779.48,-375.2 709.03,-354.75 653.38,-339.46"/>
<polygon fill="black" stroke="black" points="654.09,-336.03 643.53,-336.77 652.25,-342.78 654.09,-336.03"/>
</g>
<!-- BB19&#45;&gt;BB20 -->
<g id="edge28" class="edge">
<title>BB19&#45;&gt;BB20</title>
<path fill="none" stroke="black" d="M467.95,-339.26C439.73,-352 411.09,-370.41 393.24,-396.5 348,-462.62 374.24,-495.64 374.24,-575.75 374.24,-709.92 374.24,-709.92 374.24,-709.92 374.24,-794.66 388.62,-821.2 439.24,-889.17 450.34,-904.07 464.86,-917.51 479.75,-929.02"/>
<polygon fill="black" stroke="black" points="477.93,-932.03 488.03,-935.22 482.12,-926.43 477.93,-932.03"/>
</g>
<!-- BB20&#45;&gt;BB7 -->
<g id="edge29" class="edge">
<title>BB20&#45;&gt;BB7</title>
<path fill="none" stroke="black" d="M551.24,-924.89C551.24,-916.62 551.24,-907.94 551.24,-899.43"/>
<polygon fill="black" stroke="black" points="554.74,-899.19 551.24,-889.19 547.74,-899.19 554.74,-899.19"/>
</g>
<!-- BB21 -->
<g id="node22" class="node">
<title>BB21</title>
<ellipse fill="none" stroke="black" cx="775.24" cy="-841.08" rx="103.48" ry="48.17"/>
<text text-anchor="middle" x="775.24" y="-859.88" font-family="Times New Roman,serif" font-size="14.00">[2d7..2d8)</text>
<text text-anchor="middle" x="775.24" y="-844.88" font-family="Times New Roman,serif" font-size="14.00">Count: 1</text>
<text text-anchor="middle" x="775.24" y="-829.88" font-family="Times New Roman,serif" font-size="14.00">Normalized count: 1.00</text>
<text text-anchor="middle" x="775.24" y="-814.88" font-family="Times New Roman,serif" font-size="14.00">Samples weight: 0.01</text>
</g>
<!-- BB20&#45;&gt;BB21 -->
<g id="edge30" class="edge">
<title>BB20&#45;&gt;BB21</title>
<path fill="none" stroke="black" d="M614.83,-935.3C642.26,-919.36 674.48,-900.63 702.83,-884.16"/>
<polygon fill="black" stroke="black" points="704.6,-887.18 711.49,-879.13 701.08,-881.13 704.6,-887.18"/>
</g>
</g>
</svg>
