<?xml version="1.0" encoding="UTF-8" standalone="no"?>
<!DOCTYPE svg PUBLIC "-//W3C//DTD SVG 1.1//EN"
 "http://www.w3.org/Graphics/SVG/1.1/DTD/svg11.dtd">
<!-- Generated by graphviz version 2.47.0 (20210316.0004)
 -->
<!-- Title: G Pages: 1 -->
<svg width="615pt" height="897pt"
 viewBox="0.00 0.00 615.48 897.17" xmlns="http://www.w3.org/2000/svg" xmlns:xlink="http://www.w3.org/1999/xlink">
<g id="graph0" class="graph" transform="scale(1 1) rotate(0) translate(4 893.17)">
<title>G</title>
<polygon fill="white" stroke="transparent" points="-4,4 -4,-893.17 611.48,-893.17 611.48,4 -4,4"/>
<!-- BB0 -->
<g id="node1" class="node">
<title>BB0</title>
<ellipse fill="none" stroke="black" cx="280.24" cy="-841.08" rx="103.48" ry="48.17"/>
<text text-anchor="middle" x="280.24" y="-859.88" font-family="Times New Roman,serif" font-size="14.00">[0..8)</text>
<text text-anchor="middle" x="280.24" y="-844.88" font-family="Times New Roman,serif" font-size="14.00">Count: 2</text>
<text text-anchor="middle" x="280.24" y="-829.88" font-family="Times New Roman,serif" font-size="14.00">Normalized count: 1.00</text>
<text text-anchor="middle" x="280.24" y="-814.88" font-family="Times New Roman,serif" font-size="14.00">Samples weight: 0.00</text>
</g>
<!-- BB7 -->
<g id="node8" class="node">
<title>BB7</title>
<ellipse fill="none" stroke="black" cx="280.24" cy="-708.92" rx="103.48" ry="48.17"/>
<text text-anchor="middle" x="280.24" y="-727.72" font-family="Times New Roman,serif" font-size="14.00">[87..93)</text>
<text text-anchor="middle" x="280.24" y="-712.72" font-family="Times New Roman,serif" font-size="14.00">Count: 3</text>
<text text-anchor="middle" x="280.24" y="-697.72" font-family="Times New Roman,serif" font-size="14.00">Normalized count: 1.50</text>
<text text-anchor="middle" x="280.24" y="-682.72" font-family="Times New Roman,serif" font-size="14.00">Samples weight: 0.01</text>
</g>
<!-- BB0&#45;&gt;BB7 -->
<g id="edge1" class="edge">
<title>BB0&#45;&gt;BB7</title>
<path fill="none" stroke="black" d="M280.24,-792.72C280.24,-784.45 280.24,-775.77 280.24,-767.27"/>
<polygon fill="black" stroke="black" points="283.74,-767.02 280.24,-757.02 276.74,-767.02 283.74,-767.02"/>
</g>
<!-- BB1 -->
<g id="node2" class="node">
<title>BB1</title>
<ellipse fill="none" stroke="black" cx="280.24" cy="-576.75" rx="103.48" ry="48.17"/>
<text text-anchor="middle" x="280.24" y="-595.55" font-family="Times New Roman,serif" font-size="14.00">[8..2a)</text>
<text text-anchor="middle" x="280.24" y="-580.55" font-family="Times New Roman,serif" font-size="14.00">Count: 1</text>
<text text-anchor="middle" x="280.24" y="-565.55" font-family="Times New Roman,serif" font-size="14.00">Normalized count: 0.50</text>
<text text-anchor="middle" x="280.24" y="-550.55" font-family="Times New Roman,serif" font-size="14.00">Samples weight: 0.00</text>
</g>
<!-- BB6 -->
<g id="node7" class="node">
<title>BB6</title>
<ellipse fill="none" stroke="black" cx="214.24" cy="-444.58" rx="103.48" ry="48.17"/>
<text text-anchor="middle" x="214.24" y="-463.38" font-family="Times New Roman,serif" font-size="14.00">[7b..87)</text>
<text text-anchor="middle" x="214.24" y="-448.38" font-family="Times New Roman,serif" font-size="14.00">Count: 14</text>
<text text-anchor="middle" x="214.24" y="-433.38" font-family="Times New Roman,serif" font-size="14.00">Normalized count: 7.00</text>
<text text-anchor="middle" x="214.24" y="-418.38" font-family="Times New Roman,serif" font-size="14.00">Samples weight: 0.03</text>
</g>
<!-- BB1&#45;&gt;BB6 -->
<g id="edge2" class="edge">
<title>BB1&#45;&gt;BB6</title>
<path fill="none" stroke="black" d="M256.97,-529.86C252.19,-520.43 247.11,-510.41 242.18,-500.69"/>
<polygon fill="black" stroke="black" points="245.16,-498.84 237.52,-491.5 238.92,-502 245.16,-498.84"/>
</g>
<!-- BB2 -->
<g id="node3" class="node">
<title>BB2</title>
<ellipse fill="none" stroke="black" cx="296.24" cy="-312.42" rx="103.48" ry="48.17"/>
<text text-anchor="middle" x="296.24" y="-331.22" font-family="Times New Roman,serif" font-size="14.00">[2a..2e)</text>
<text text-anchor="middle" x="296.24" y="-316.22" font-family="Times New Roman,serif" font-size="14.00">Count: 13</text>
<text text-anchor="middle" x="296.24" y="-301.22" font-family="Times New Roman,serif" font-size="14.00">Normalized count: 6.50</text>
<text text-anchor="middle" x="296.24" y="-286.22" font-family="Times New Roman,serif" font-size="14.00">Samples weight: 0.02</text>
</g>
<!-- BB4 -->
<g id="node5" class="node">
<title>BB4</title>
<ellipse fill="none" stroke="black" cx="313.24" cy="-180.25" rx="113.27" ry="48.17"/>
<text text-anchor="middle" x="313.24" y="-199.05" font-family="Times New Roman,serif" font-size="14.00">[5d..65)</text>
<text text-anchor="middle" x="313.24" y="-184.05" font-family="Times New Roman,serif" font-size="14.00">Count: 248</text>
<text text-anchor="middle" x="313.24" y="-169.05" font-family="Times New Roman,serif" font-size="14.00">Normalized count: 124.00</text>
<text text-anchor="middle" x="313.24" y="-154.05" font-family="Times New Roman,serif" font-size="14.00">Samples weight: 0.47</text>
</g>
<!-- BB2&#45;&gt;BB4 -->
<g id="edge3" class="edge">
<title>BB2&#45;&gt;BB4</title>
<path fill="none" stroke="black" d="M302.42,-264.05C303.51,-255.7 304.66,-246.91 305.78,-238.32"/>
<polygon fill="black" stroke="black" points="309.26,-238.73 307.09,-228.36 302.32,-237.82 309.26,-238.73"/>
</g>
<!-- BB3 -->
<g id="node4" class="node">
<title>BB3</title>
<ellipse fill="none" stroke="black" cx="337.24" cy="-48.08" rx="113.27" ry="48.17"/>
<text text-anchor="middle" x="337.24" y="-66.88" font-family="Times New Roman,serif" font-size="14.00">[2e..5d)</text>
<text text-anchor="middle" x="337.24" y="-51.88" font-family="Times New Roman,serif" font-size="14.00">Count: 235</text>
<text text-anchor="middle" x="337.24" y="-36.88" font-family="Times New Roman,serif" font-size="14.00">Normalized count: 117.50</text>
<text text-anchor="middle" x="337.24" y="-21.88" font-family="Times New Roman,serif" font-size="14.00">Samples weight: 0.44</text>
</g>
<!-- BB3&#45;&gt;BB4 -->
<g id="edge4" class="edge">
<title>BB3&#45;&gt;BB4</title>
<path fill="none" stroke="black" d="M335.03,-96.44C333.7,-104.83 332.14,-113.64 330.45,-122.26"/>
<polygon fill="black" stroke="black" points="326.98,-121.76 328.41,-132.26 333.84,-123.16 326.98,-121.76"/>
</g>
<!-- BB4&#45;&gt;BB3 -->
<g id="edge5" class="edge">
<title>BB4&#45;&gt;BB3</title>
<path fill="none" stroke="black" d="M315.45,-131.89C316.79,-123.42 318.37,-114.53 320.07,-105.83"/>
<polygon fill="black" stroke="black" points="323.56,-106.25 322.13,-95.76 316.7,-104.86 323.56,-106.25"/>
</g>
<!-- BB5 -->
<g id="node6" class="node">
<title>BB5</title>
<ellipse fill="none" stroke="black" cx="103.24" cy="-48.08" rx="103.48" ry="48.17"/>
<text text-anchor="middle" x="103.24" y="-66.88" font-family="Times New Roman,serif" font-size="14.00">[65..7b)</text>
<text text-anchor="middle" x="103.24" y="-51.88" font-family="Times New Roman,serif" font-size="14.00">Count: 13</text>
<text text-anchor="middle" x="103.24" y="-36.88" font-family="Times New Roman,serif" font-size="14.00">Normalized count: 6.50</text>
<text text-anchor="middle" x="103.24" y="-21.88" font-family="Times New Roman,serif" font-size="14.00">Samples weight: 0.02</text>
</g>
<!-- BB4&#45;&gt;BB5 -->
<g id="edge6" class="edge">
<title>BB4&#45;&gt;BB5</title>
<path fill="none" stroke="black" d="M250.23,-140.2C225.91,-125.12 198,-107.82 173.08,-92.37"/>
<polygon fill="black" stroke="black" points="174.74,-89.28 164.39,-86.99 171.05,-95.23 174.74,-89.28"/>
</g>
<!-- BB5&#45;&gt;BB6 -->
<g id="edge7" class="edge">
<title>BB5&#45;&gt;BB6</title>
<path fill="none" stroke="black" d="M114.05,-96.15C128.46,-157.47 155.51,-267.78 184.24,-360.5 186.94,-369.21 190,-378.36 193.12,-387.28"/>
<polygon fill="black" stroke="black" points="189.86,-388.57 196.5,-396.82 196.46,-386.23 189.86,-388.57"/>
</g>
<!-- BB6&#45;&gt;BB2 -->
<g id="edge8" class="edge">
<title>BB6&#45;&gt;BB2</title>
<path fill="none" stroke="black" d="M242.92,-398.06C249.2,-388.09 255.9,-377.45 262.36,-367.2"/>
<polygon fill="black" stroke="black" points="265.34,-369.02 267.71,-358.7 259.42,-365.29 265.34,-369.02"/>
</g>
<!-- BB6&#45;&gt;BB7 -->
<g id="edge9" class="edge">
<title>BB6&#45;&gt;BB7</title>
<path fill="none" stroke="black" d="M183.82,-490.85C177.41,-502.67 171.58,-515.74 168.24,-528.67 157.55,-570.05 149.02,-586.65 168.24,-624.83 176.46,-641.16 189.57,-655.09 203.98,-666.61"/>
<polygon fill="black" stroke="black" points="202.01,-669.51 212.1,-672.76 206.24,-663.93 202.01,-669.51"/>
</g>
<!-- BB7&#45;&gt;BB1 -->
<g id="edge10" class="edge">
<title>BB7&#45;&gt;BB1</title>
<path fill="none" stroke="black" d="M280.24,-660.55C280.24,-652.29 280.24,-643.6 280.24,-635.1"/>
<polygon fill="black" stroke="black" points="283.74,-634.86 280.24,-624.86 276.74,-634.86 283.74,-634.86"/>
</g>
<!-- BB8 -->
<g id="node9" class="node">
<title>BB8</title>
<ellipse fill="none" stroke="black" cx="504.24" cy="-576.75" rx="103.48" ry="48.17"/>
<text text-anchor="middle" x="504.24" y="-595.55" font-family="Times New Roman,serif" font-size="14.00">[93..9a)</text>
<text text-anchor="middle" x="504.24" y="-580.55" font-family="Times New Roman,serif" font-size="14.00">Count: 2</text>
<text text-anchor="middle" x="504.24" y="-565.55" font-family="Times New Roman,serif" font-size="14.00">Normalized count: 1.00</text>
<text text-anchor="middle" x="504.24" y="-550.55" font-family="Times New Roman,serif" font-size="14.00">Samples weight: 0.00</text>
</g>
<!-- BB7&#45;&gt;BB8 -->
<g id="edge11" class="edge">
<title>BB7&#45;&gt;BB8</title>
<path fill="none" stroke="black" d="M343.83,-670.96C371.26,-655.02 403.48,-636.3 431.83,-619.83"/>
<polygon fill="black" stroke="black" points="433.6,-622.84 440.49,-614.79 430.08,-616.79 433.6,-622.84"/>
</g>
</g>
</svg>
