<?xml version="1.0" encoding="UTF-8" standalone="no"?>
<!DOCTYPE svg PUBLIC "-//W3C//DTD SVG 1.1//EN"
 "http://www.w3.org/Graphics/SVG/1.1/DTD/svg11.dtd">
<!-- Generated by graphviz version 2.47.0 (20210316.0004)
 -->
<!-- Title: G Pages: 1 -->
<svg width="953pt" height="749pt"
 viewBox="0.00 0.00 952.72 748.67" xmlns="http://www.w3.org/2000/svg" xmlns:xlink="http://www.w3.org/1999/xlink">
<g id="graph0" class="graph" transform="scale(1 1) rotate(0) translate(4 744.67)">
<title>G</title>
<polygon fill="white" stroke="transparent" points="-4,4 -4,-744.67 948.72,-744.67 948.72,4 -4,4"/>
<!-- BB0 -->
<g id="node1" class="node">
<title>BB0</title>
<ellipse fill="none" stroke="black" cx="339.36" cy="-703.2" rx="105.22" ry="37.45"/>
<text text-anchor="middle" x="339.36" y="-714.5" font-family="Times New Roman,serif" font-size="14.00">[0..4)</text>
<text text-anchor="middle" x="339.36" y="-699.5" font-family="Times New Roman,serif" font-size="14.00">Normalized Count: 1.00</text>
<text text-anchor="middle" x="339.36" y="-684.5" font-family="Times New Roman,serif" font-size="14.00">Samples weight: 0.00</text>
</g>
<!-- BB5 -->
<g id="node6" class="node">
<title>BB5</title>
<ellipse fill="none" stroke="black" cx="339.36" cy="-592.24" rx="105.22" ry="37.45"/>
<text text-anchor="middle" x="339.36" y="-603.54" font-family="Times New Roman,serif" font-size="14.00">[45..4d)</text>
<text text-anchor="middle" x="339.36" y="-588.54" font-family="Times New Roman,serif" font-size="14.00">Normalized Count: 6.00</text>
<text text-anchor="middle" x="339.36" y="-573.54" font-family="Times New Roman,serif" font-size="14.00">Samples weight: 0.02</text>
</g>
<!-- BB0&#45;&gt;BB5 -->
<g id="edge1" class="edge">
<title>BB0&#45;&gt;BB5</title>
<path fill="none" stroke="black" d="M339.36,-665.61C339.36,-657.44 339.36,-648.66 339.36,-640.13"/>
<polygon fill="black" stroke="black" points="342.86,-639.92 339.36,-629.92 335.86,-639.92 342.86,-639.92"/>
</g>
<!-- BB1 -->
<g id="node2" class="node">
<title>BB1</title>
<ellipse fill="none" stroke="black" cx="339.36" cy="-481.29" rx="105.22" ry="37.45"/>
<text text-anchor="middle" x="339.36" y="-492.59" font-family="Times New Roman,serif" font-size="14.00">[4..8)</text>
<text text-anchor="middle" x="339.36" y="-477.59" font-family="Times New Roman,serif" font-size="14.00">Normalized Count: 5.00</text>
<text text-anchor="middle" x="339.36" y="-462.59" font-family="Times New Roman,serif" font-size="14.00">Samples weight: 0.02</text>
</g>
<!-- BB3 -->
<g id="node4" class="node">
<title>BB3</title>
<ellipse fill="none" stroke="black" cx="339.36" cy="-370.34" rx="110.12" ry="37.45"/>
<text text-anchor="middle" x="339.36" y="-381.64" font-family="Times New Roman,serif" font-size="14.00">[39..41)</text>
<text text-anchor="middle" x="339.36" y="-366.64" font-family="Times New Roman,serif" font-size="14.00">Normalized Count: 98.00</text>
<text text-anchor="middle" x="339.36" y="-351.64" font-family="Times New Roman,serif" font-size="14.00">Samples weight: 0.37</text>
</g>
<!-- BB1&#45;&gt;BB3 -->
<g id="edge2" class="edge">
<title>BB1&#45;&gt;BB3</title>
<path fill="none" stroke="black" d="M339.36,-443.71C339.36,-435.53 339.36,-426.75 339.36,-418.23"/>
<polygon fill="black" stroke="black" points="342.86,-418.01 339.36,-408.01 335.86,-418.01 342.86,-418.01"/>
</g>
<!-- BB2 -->
<g id="node3" class="node">
<title>BB2</title>
<ellipse fill="none" stroke="black" cx="339.36" cy="-259.38" rx="110.12" ry="37.45"/>
<text text-anchor="middle" x="339.36" y="-270.68" font-family="Times New Roman,serif" font-size="14.00">[8..39)</text>
<text text-anchor="middle" x="339.36" y="-255.68" font-family="Times New Roman,serif" font-size="14.00">Normalized Count: 93.00</text>
<text text-anchor="middle" x="339.36" y="-240.68" font-family="Times New Roman,serif" font-size="14.00">Samples weight: 0.35</text>
</g>
<!-- BB2&#45;&gt;BB3 -->
<g id="edge3" class="edge">
<title>BB2&#45;&gt;BB3</title>
<path fill="none" stroke="black" d="M345.78,-297.06C346.09,-305.23 346.18,-314.02 346.05,-322.54"/>
<polygon fill="black" stroke="black" points="342.54,-322.66 345.77,-332.75 349.54,-322.85 342.54,-322.66"/>
</g>
<!-- BB3&#45;&gt;BB2 -->
<g id="edge4" class="edge">
<title>BB3&#45;&gt;BB2</title>
<path fill="none" stroke="black" d="M332.94,-332.75C332.63,-324.58 332.54,-315.8 332.67,-307.27"/>
<polygon fill="black" stroke="black" points="336.17,-307.15 332.94,-297.06 329.17,-306.96 336.17,-307.15"/>
</g>
<!-- BB4 -->
<g id="node5" class="node">
<title>BB4</title>
<ellipse fill="none" stroke="black" cx="105.36" cy="-259.38" rx="105.22" ry="37.45"/>
<text text-anchor="middle" x="105.36" y="-270.68" font-family="Times New Roman,serif" font-size="14.00">[41..45)</text>
<text text-anchor="middle" x="105.36" y="-255.68" font-family="Times New Roman,serif" font-size="14.00">Normalized Count: 5.00</text>
<text text-anchor="middle" x="105.36" y="-240.68" font-family="Times New Roman,serif" font-size="14.00">Samples weight: 0.02</text>
</g>
<!-- BB3&#45;&gt;BB4 -->
<g id="edge5" class="edge">
<title>BB3&#45;&gt;BB4</title>
<path fill="none" stroke="black" d="M275.73,-339.71C245.3,-325.54 208.75,-308.52 177.32,-293.89"/>
<polygon fill="black" stroke="black" points="178.71,-290.68 168.17,-289.63 175.76,-297.02 178.71,-290.68"/>
</g>
<!-- BB4&#45;&gt;BB5 -->
<g id="edge6" class="edge">
<title>BB4&#45;&gt;BB5</title>
<path fill="none" stroke="black" d="M115.16,-297.03C130.99,-350.71 166.52,-451.63 225.36,-518.77 237.88,-533.05 253.89,-545.55 269.93,-555.97"/>
<polygon fill="black" stroke="black" points="268.49,-559.2 278.82,-561.54 272.2,-553.27 268.49,-559.2"/>
</g>
<!-- BB5&#45;&gt;BB1 -->
<g id="edge7" class="edge">
<title>BB5&#45;&gt;BB1</title>
<path fill="none" stroke="black" d="M339.36,-554.66C339.36,-546.49 339.36,-537.71 339.36,-529.18"/>
<polygon fill="black" stroke="black" points="342.86,-528.96 339.36,-518.96 335.86,-528.96 342.86,-528.96"/>
</g>
<!-- BB6 -->
<g id="node7" class="node">
<title>BB6</title>
<ellipse fill="none" stroke="black" cx="570.36" cy="-481.29" rx="105.22" ry="37.45"/>
<text text-anchor="middle" x="570.36" y="-492.59" font-family="Times New Roman,serif" font-size="14.00">[4d..51)</text>
<text text-anchor="middle" x="570.36" y="-477.59" font-family="Times New Roman,serif" font-size="14.00">Normalized Count: 1.00</text>
<text text-anchor="middle" x="570.36" y="-462.59" font-family="Times New Roman,serif" font-size="14.00">Samples weight: 0.00</text>
</g>
<!-- BB5&#45;&gt;BB6 -->
<g id="edge8" class="edge">
<title>BB5&#45;&gt;BB6</title>
<path fill="none" stroke="black" d="M401.57,-561.9C431.61,-547.73 467.81,-530.66 498.97,-515.96"/>
<polygon fill="black" stroke="black" points="500.49,-519.11 508.04,-511.68 497.5,-512.78 500.49,-519.11"/>
</g>
<!-- BB11 -->
<g id="node12" class="node">
<title>BB11</title>
<ellipse fill="none" stroke="black" cx="591.36" cy="-370.34" rx="105.22" ry="37.45"/>
<text text-anchor="middle" x="591.36" y="-381.64" font-family="Times New Roman,serif" font-size="14.00">[92..9a)</text>
<text text-anchor="middle" x="591.36" y="-366.64" font-family="Times New Roman,serif" font-size="14.00">Normalized Count: 2.00</text>
<text text-anchor="middle" x="591.36" y="-351.64" font-family="Times New Roman,serif" font-size="14.00">Samples weight: 0.01</text>
</g>
<!-- BB6&#45;&gt;BB11 -->
<g id="edge9" class="edge">
<title>BB6&#45;&gt;BB11</title>
<path fill="none" stroke="black" d="M577.41,-443.71C579,-435.44 580.72,-426.56 582.38,-417.95"/>
<polygon fill="black" stroke="black" points="585.83,-418.49 584.29,-408.01 578.96,-417.17 585.83,-418.49"/>
</g>
<!-- BB7 -->
<g id="node8" class="node">
<title>BB7</title>
<ellipse fill="none" stroke="black" cx="610.36" cy="-259.38" rx="105.22" ry="37.45"/>
<text text-anchor="middle" x="610.36" y="-270.68" font-family="Times New Roman,serif" font-size="14.00">[51..55)</text>
<text text-anchor="middle" x="610.36" y="-255.68" font-family="Times New Roman,serif" font-size="14.00">Normalized Count: 1.00</text>
<text text-anchor="middle" x="610.36" y="-240.68" font-family="Times New Roman,serif" font-size="14.00">Samples weight: 0.00</text>
</g>
<!-- BB9 -->
<g id="node10" class="node">
<title>BB9</title>
<ellipse fill="none" stroke="black" cx="639.36" cy="-148.43" rx="110.12" ry="37.45"/>
<text text-anchor="middle" x="639.36" y="-159.73" font-family="Times New Roman,serif" font-size="14.00">[86..8e)</text>
<text text-anchor="middle" x="639.36" y="-144.73" font-family="Times New Roman,serif" font-size="14.00">Normalized Count: 27.00</text>
<text text-anchor="middle" x="639.36" y="-129.73" font-family="Times New Roman,serif" font-size="14.00">Samples weight: 0.10</text>
</g>
<!-- BB7&#45;&gt;BB9 -->
<g id="edge10" class="edge">
<title>BB7&#45;&gt;BB9</title>
<path fill="none" stroke="black" d="M620.1,-221.8C622.3,-213.54 624.66,-204.65 626.95,-196.04"/>
<polygon fill="black" stroke="black" points="630.41,-196.67 629.6,-186.1 623.64,-194.87 630.41,-196.67"/>
</g>
<!-- BB8 -->
<g id="node9" class="node">
<title>BB8</title>
<ellipse fill="none" stroke="black" cx="663.36" cy="-37.48" rx="110.12" ry="37.45"/>
<text text-anchor="middle" x="663.36" y="-48.78" font-family="Times New Roman,serif" font-size="14.00">[55..86)</text>
<text text-anchor="middle" x="663.36" y="-33.78" font-family="Times New Roman,serif" font-size="14.00">Normalized Count: 26.00</text>
<text text-anchor="middle" x="663.36" y="-18.78" font-family="Times New Roman,serif" font-size="14.00">Samples weight: 0.10</text>
</g>
<!-- BB8&#45;&gt;BB9 -->
<g id="edge11" class="edge">
<title>BB8&#45;&gt;BB9</title>
<path fill="none" stroke="black" d="M661.73,-74.97C660.2,-83.44 658.28,-92.56 656.18,-101.37"/>
<polygon fill="black" stroke="black" points="652.77,-100.6 653.75,-111.15 659.56,-102.29 652.77,-100.6"/>
</g>
<!-- BB9&#45;&gt;BB8 -->
<g id="edge12" class="edge">
<title>BB9&#45;&gt;BB8</title>
<path fill="none" stroke="black" d="M641,-110.85C642.54,-102.4 644.45,-93.31 646.54,-84.52"/>
<polygon fill="black" stroke="black" points="649.94,-85.33 648.96,-74.78 643.15,-83.64 649.94,-85.33"/>
</g>
<!-- BB10 -->
<g id="node11" class="node">
<title>BB10</title>
<ellipse fill="none" stroke="black" cx="429.36" cy="-37.48" rx="105.22" ry="37.45"/>
<text text-anchor="middle" x="429.36" y="-48.78" font-family="Times New Roman,serif" font-size="14.00">[8e..92)</text>
<text text-anchor="middle" x="429.36" y="-33.78" font-family="Times New Roman,serif" font-size="14.00">Normalized Count: 1.00</text>
<text text-anchor="middle" x="429.36" y="-18.78" font-family="Times New Roman,serif" font-size="14.00">Samples weight: 0.00</text>
</g>
<!-- BB9&#45;&gt;BB10 -->
<g id="edge13" class="edge">
<title>BB9&#45;&gt;BB10</title>
<path fill="none" stroke="black" d="M580.02,-116.65C554.09,-103.19 523.54,-87.34 496.75,-73.44"/>
<polygon fill="black" stroke="black" points="498.31,-70.31 487.82,-68.81 495.09,-76.52 498.31,-70.31"/>
</g>
<!-- BB10&#45;&gt;BB11 -->
<g id="edge14" class="edge">
<title>BB10&#45;&gt;BB11</title>
<path fill="none" stroke="black" d="M431.4,-75.34C435.91,-128.42 450.33,-227.57 496.36,-296.86 505.02,-309.9 516.83,-321.55 529.18,-331.5"/>
<polygon fill="black" stroke="black" points="527.29,-334.46 537.35,-337.79 531.56,-328.91 527.29,-334.46"/>
</g>
<!-- BB11&#45;&gt;BB7 -->
<g id="edge15" class="edge">
<title>BB11&#45;&gt;BB7</title>
<path fill="none" stroke="black" d="M597.74,-332.75C599.18,-324.49 600.73,-315.61 602.23,-306.99"/>
<polygon fill="black" stroke="black" points="605.69,-307.51 603.96,-297.06 598.8,-306.31 605.69,-307.51"/>
</g>
<!-- BB12 -->
<g id="node13" class="node">
<title>BB12</title>
<ellipse fill="none" stroke="black" cx="839.36" cy="-259.38" rx="105.22" ry="37.45"/>
<text text-anchor="middle" x="839.36" y="-270.68" font-family="Times New Roman,serif" font-size="14.00">[9a..9b)</text>
<text text-anchor="middle" x="839.36" y="-255.68" font-family="Times New Roman,serif" font-size="14.00">Normalized Count: 1.00</text>
<text text-anchor="middle" x="839.36" y="-240.68" font-family="Times New Roman,serif" font-size="14.00">Samples weight: 0.00</text>
</g>
<!-- BB11&#45;&gt;BB12 -->
<g id="edge16" class="edge">
<title>BB11&#45;&gt;BB12</title>
<path fill="none" stroke="black" d="M656.52,-340.71C689.71,-326.13 730.22,-308.33 764.66,-293.2"/>
<polygon fill="black" stroke="black" points="766.46,-296.23 774.2,-289.01 763.64,-289.83 766.46,-296.23"/>
</g>
</g>
</svg>
