<?xml version="1.0" encoding="UTF-8" standalone="no"?>
<!DOCTYPE svg PUBLIC "-//W3C//DTD SVG 1.1//EN"
 "http://www.w3.org/Graphics/SVG/1.1/DTD/svg11.dtd">
<!-- Generated by graphviz version 2.47.0 (20210316.0004)
 -->
<!-- Title: G Pages: 1 -->
<svg width="631pt" height="527pt"
 viewBox="0.00 0.00 630.72 526.77" xmlns="http://www.w3.org/2000/svg" xmlns:xlink="http://www.w3.org/1999/xlink">
<g id="graph0" class="graph" transform="scale(1 1) rotate(0) translate(4 522.77)">
<title>G</title>
<polygon fill="white" stroke="transparent" points="-4,4 -4,-522.77 626.72,-522.77 626.72,4 -4,4"/>
<!-- BB0 -->
<g id="node1" class="node">
<title>BB0</title>
<ellipse fill="none" stroke="black" cx="288.36" cy="-481.29" rx="105.22" ry="37.45"/>
<text text-anchor="middle" x="288.36" y="-492.59" font-family="Times New Roman,serif" font-size="14.00">[0..11)</text>
<text text-anchor="middle" x="288.36" y="-477.59" font-family="Times New Roman,serif" font-size="14.00">Normalized Count: 1.00</text>
<text text-anchor="middle" x="288.36" y="-462.59" font-family="Times New Roman,serif" font-size="14.00">Samples weight: 0.01</text>
</g>
<!-- BB5 -->
<g id="node6" class="node">
<title>BB5</title>
<ellipse fill="none" stroke="black" cx="288.36" cy="-370.34" rx="105.22" ry="37.45"/>
<text text-anchor="middle" x="288.36" y="-381.64" font-family="Times New Roman,serif" font-size="14.00">[6b..73)</text>
<text text-anchor="middle" x="288.36" y="-366.64" font-family="Times New Roman,serif" font-size="14.00">Normalized Count: 9.00</text>
<text text-anchor="middle" x="288.36" y="-351.64" font-family="Times New Roman,serif" font-size="14.00">Samples weight: 0.06</text>
</g>
<!-- BB0&#45;&gt;BB5 -->
<g id="edge1" class="edge">
<title>BB0&#45;&gt;BB5</title>
<path fill="none" stroke="black" d="M288.36,-443.71C288.36,-435.53 288.36,-426.75 288.36,-418.23"/>
<polygon fill="black" stroke="black" points="291.86,-418.01 288.36,-408.01 284.86,-418.01 291.86,-418.01"/>
</g>
<!-- BB1 -->
<g id="node2" class="node">
<title>BB1</title>
<ellipse fill="none" stroke="black" cx="288.36" cy="-259.38" rx="105.22" ry="37.45"/>
<text text-anchor="middle" x="288.36" y="-270.68" font-family="Times New Roman,serif" font-size="14.00">[11..15)</text>
<text text-anchor="middle" x="288.36" y="-255.68" font-family="Times New Roman,serif" font-size="14.00">Normalized Count: 8.00</text>
<text text-anchor="middle" x="288.36" y="-240.68" font-family="Times New Roman,serif" font-size="14.00">Samples weight: 0.05</text>
</g>
<!-- BB3 -->
<g id="node4" class="node">
<title>BB3</title>
<ellipse fill="none" stroke="black" cx="315.36" cy="-148.43" rx="110.12" ry="37.45"/>
<text text-anchor="middle" x="315.36" y="-159.73" font-family="Times New Roman,serif" font-size="14.00">[5f..67)</text>
<text text-anchor="middle" x="315.36" y="-144.73" font-family="Times New Roman,serif" font-size="14.00">Normalized Count: 72.00</text>
<text text-anchor="middle" x="315.36" y="-129.73" font-family="Times New Roman,serif" font-size="14.00">Samples weight: 0.44</text>
</g>
<!-- BB1&#45;&gt;BB3 -->
<g id="edge2" class="edge">
<title>BB1&#45;&gt;BB3</title>
<path fill="none" stroke="black" d="M297.42,-221.8C299.47,-213.54 301.67,-204.65 303.81,-196.04"/>
<polygon fill="black" stroke="black" points="307.26,-196.65 306.27,-186.1 300.47,-194.97 307.26,-196.65"/>
</g>
<!-- BB2 -->
<g id="node3" class="node">
<title>BB2</title>
<ellipse fill="none" stroke="black" cx="339.36" cy="-37.48" rx="110.12" ry="37.45"/>
<text text-anchor="middle" x="339.36" y="-48.78" font-family="Times New Roman,serif" font-size="14.00">[15..5f)</text>
<text text-anchor="middle" x="339.36" y="-33.78" font-family="Times New Roman,serif" font-size="14.00">Normalized Count: 64.00</text>
<text text-anchor="middle" x="339.36" y="-18.78" font-family="Times New Roman,serif" font-size="14.00">Samples weight: 0.39</text>
</g>
<!-- BB2&#45;&gt;BB3 -->
<g id="edge3" class="edge">
<title>BB2&#45;&gt;BB3</title>
<path fill="none" stroke="black" d="M337.73,-74.97C336.2,-83.44 334.28,-92.56 332.18,-101.37"/>
<polygon fill="black" stroke="black" points="328.77,-100.6 329.75,-111.15 335.56,-102.29 328.77,-100.6"/>
</g>
<!-- BB3&#45;&gt;BB2 -->
<g id="edge4" class="edge">
<title>BB3&#45;&gt;BB2</title>
<path fill="none" stroke="black" d="M317,-110.85C318.54,-102.4 320.45,-93.31 322.54,-84.52"/>
<polygon fill="black" stroke="black" points="325.94,-85.33 324.96,-74.78 319.15,-83.64 325.94,-85.33"/>
</g>
<!-- BB4 -->
<g id="node5" class="node">
<title>BB4</title>
<ellipse fill="none" stroke="black" cx="105.36" cy="-37.48" rx="105.22" ry="37.45"/>
<text text-anchor="middle" x="105.36" y="-48.78" font-family="Times New Roman,serif" font-size="14.00">[67..6b)</text>
<text text-anchor="middle" x="105.36" y="-33.78" font-family="Times New Roman,serif" font-size="14.00">Normalized Count: 8.00</text>
<text text-anchor="middle" x="105.36" y="-18.78" font-family="Times New Roman,serif" font-size="14.00">Samples weight: 0.05</text>
</g>
<!-- BB3&#45;&gt;BB4 -->
<g id="edge5" class="edge">
<title>BB3&#45;&gt;BB4</title>
<path fill="none" stroke="black" d="M256.02,-116.65C230.09,-103.19 199.54,-87.34 172.75,-73.44"/>
<polygon fill="black" stroke="black" points="174.31,-70.31 163.82,-68.81 171.09,-76.52 174.31,-70.31"/>
</g>
<!-- BB4&#45;&gt;BB5 -->
<g id="edge6" class="edge">
<title>BB4&#45;&gt;BB5</title>
<path fill="none" stroke="black" d="M106.89,-75.01C110.82,-128.55 124.8,-229.28 174.36,-296.86 185.36,-311.86 200.48,-324.52 216.12,-334.86"/>
<polygon fill="black" stroke="black" points="214.52,-337.98 224.84,-340.36 218.25,-332.06 214.52,-337.98"/>
</g>
<!-- BB5&#45;&gt;BB1 -->
<g id="edge7" class="edge">
<title>BB5&#45;&gt;BB1</title>
<path fill="none" stroke="black" d="M288.36,-332.75C288.36,-324.58 288.36,-315.8 288.36,-307.27"/>
<polygon fill="black" stroke="black" points="291.86,-307.06 288.36,-297.06 284.86,-307.06 291.86,-307.06"/>
</g>
<!-- BB6 -->
<g id="node7" class="node">
<title>BB6</title>
<ellipse fill="none" stroke="black" cx="517.36" cy="-259.38" rx="105.22" ry="37.45"/>
<text text-anchor="middle" x="517.36" y="-270.68" font-family="Times New Roman,serif" font-size="14.00">[73..74)</text>
<text text-anchor="middle" x="517.36" y="-255.68" font-family="Times New Roman,serif" font-size="14.00">Normalized Count: 1.00</text>
<text text-anchor="middle" x="517.36" y="-240.68" font-family="Times New Roman,serif" font-size="14.00">Samples weight: 0.01</text>
</g>
<!-- BB5&#45;&gt;BB6 -->
<g id="edge8" class="edge">
<title>BB5&#45;&gt;BB6</title>
<path fill="none" stroke="black" d="M350.33,-339.85C379.86,-325.8 415.34,-308.92 445.99,-294.34"/>
<polygon fill="black" stroke="black" points="447.81,-297.35 455.34,-289.89 444.8,-291.03 447.81,-297.35"/>
</g>
</g>
</svg>
