<?xml version="1.0" encoding="UTF-8" standalone="no"?>
<!DOCTYPE svg PUBLIC "-//W3C//DTD SVG 1.1//EN"
 "http://www.w3.org/Graphics/SVG/1.1/DTD/svg11.dtd">
<!-- Generated by graphviz version 2.47.0 (20210316.0004)
 -->
<!-- Title: G Pages: 1 -->
<svg width="1161pt" height="1558pt"
 viewBox="0.00 0.00 1161.37 1558.00" xmlns="http://www.w3.org/2000/svg" xmlns:xlink="http://www.w3.org/1999/xlink">
<g id="graph0" class="graph" transform="scale(1 1) rotate(0) translate(4 1554)">
<title>G</title>
<polygon fill="white" stroke="transparent" points="-4,4 -4,-1554 1157.37,-1554 1157.37,4 -4,4"/>
<!-- BB0 -->
<g id="node1" class="node">
<title>BB0</title>
<ellipse fill="none" stroke="black" cx="215.24" cy="-1501.92" rx="103.48" ry="48.17"/>
<text text-anchor="middle" x="215.24" y="-1520.72" font-family="Times New Roman,serif" font-size="14.00">[0..69)</text>
<text text-anchor="middle" x="215.24" y="-1505.72" font-family="Times New Roman,serif" font-size="14.00">Count: 10</text>
<text text-anchor="middle" x="215.24" y="-1490.72" font-family="Times New Roman,serif" font-size="14.00">Normalized count: 1.00</text>
<text text-anchor="middle" x="215.24" y="-1475.72" font-family="Times New Roman,serif" font-size="14.00">Samples weight: 0.00</text>
</g>
<!-- BB1 -->
<g id="node2" class="node">
<title>BB1</title>
<ellipse fill="none" stroke="black" cx="103.24" cy="-1369.75" rx="103.48" ry="48.17"/>
<text text-anchor="middle" x="103.24" y="-1388.55" font-family="Times New Roman,serif" font-size="14.00">[69..74)</text>
<text text-anchor="middle" x="103.24" y="-1373.55" font-family="Times New Roman,serif" font-size="14.00">Count: 0</text>
<text text-anchor="middle" x="103.24" y="-1358.55" font-family="Times New Roman,serif" font-size="14.00">Normalized count: 0.00</text>
<text text-anchor="middle" x="103.24" y="-1343.55" font-family="Times New Roman,serif" font-size="14.00">Samples weight: 0.00</text>
</g>
<!-- BB0&#45;&gt;BB1 -->
<g id="edge2" class="edge">
<title>BB0&#45;&gt;BB1</title>
<path fill="none" stroke="black" d="M177.32,-1456.85C167.83,-1445.82 157.57,-1433.89 147.79,-1422.53"/>
<polygon fill="black" stroke="black" points="150.29,-1420.07 141.12,-1414.77 144.99,-1424.63 150.29,-1420.07"/>
</g>
<!-- BB2 -->
<g id="node3" class="node">
<title>BB2</title>
<ellipse fill="none" stroke="black" cx="327.24" cy="-1369.75" rx="103.48" ry="48.17"/>
<text text-anchor="middle" x="327.24" y="-1388.55" font-family="Times New Roman,serif" font-size="14.00">[74..93)</text>
<text text-anchor="middle" x="327.24" y="-1373.55" font-family="Times New Roman,serif" font-size="14.00">Count: 10</text>
<text text-anchor="middle" x="327.24" y="-1358.55" font-family="Times New Roman,serif" font-size="14.00">Normalized count: 1.00</text>
<text text-anchor="middle" x="327.24" y="-1343.55" font-family="Times New Roman,serif" font-size="14.00">Samples weight: 0.00</text>
</g>
<!-- BB0&#45;&gt;BB2 -->
<g id="edge1" class="edge">
<title>BB0&#45;&gt;BB2</title>
<path fill="none" stroke="black" d="M253.16,-1456.85C262.64,-1445.82 272.91,-1433.89 282.68,-1422.53"/>
<polygon fill="black" stroke="black" points="285.49,-1424.63 289.36,-1414.77 280.18,-1420.07 285.49,-1424.63"/>
</g>
<!-- BB1&#45;&gt;BB2 -->
<g id="edge3" class="edge">
<title>BB1&#45;&gt;BB2</title>
<path fill="none" stroke="black" d="M206.49,-1369.75C208.94,-1369.75 211.4,-1369.75 213.85,-1369.75"/>
<polygon fill="black" stroke="black" points="213.94,-1373.25 223.94,-1369.75 213.94,-1366.25 213.94,-1373.25"/>
</g>
<!-- BB3 -->
<g id="node4" class="node">
<title>BB3</title>
<ellipse fill="none" stroke="black" cx="215.24" cy="-1237.58" rx="103.48" ry="48.17"/>
<text text-anchor="middle" x="215.24" y="-1256.38" font-family="Times New Roman,serif" font-size="14.00">[93..9e)</text>
<text text-anchor="middle" x="215.24" y="-1241.38" font-family="Times New Roman,serif" font-size="14.00">Count: 0</text>
<text text-anchor="middle" x="215.24" y="-1226.38" font-family="Times New Roman,serif" font-size="14.00">Normalized count: 0.00</text>
<text text-anchor="middle" x="215.24" y="-1211.38" font-family="Times New Roman,serif" font-size="14.00">Samples weight: 0.00</text>
</g>
<!-- BB2&#45;&gt;BB3 -->
<g id="edge5" class="edge">
<title>BB2&#45;&gt;BB3</title>
<path fill="none" stroke="black" d="M289.32,-1324.68C279.83,-1313.65 269.57,-1301.73 259.79,-1290.36"/>
<polygon fill="black" stroke="black" points="262.29,-1287.9 253.12,-1282.61 256.99,-1292.47 262.29,-1287.9"/>
</g>
<!-- BB4 -->
<g id="node5" class="node">
<title>BB4</title>
<ellipse fill="none" stroke="black" cx="439.24" cy="-1237.58" rx="103.48" ry="48.17"/>
<text text-anchor="middle" x="439.24" y="-1256.38" font-family="Times New Roman,serif" font-size="14.00">[9e..aa)</text>
<text text-anchor="middle" x="439.24" y="-1241.38" font-family="Times New Roman,serif" font-size="14.00">Count: 10</text>
<text text-anchor="middle" x="439.24" y="-1226.38" font-family="Times New Roman,serif" font-size="14.00">Normalized count: 1.00</text>
<text text-anchor="middle" x="439.24" y="-1211.38" font-family="Times New Roman,serif" font-size="14.00">Samples weight: 0.00</text>
</g>
<!-- BB2&#45;&gt;BB4 -->
<g id="edge4" class="edge">
<title>BB2&#45;&gt;BB4</title>
<path fill="none" stroke="black" d="M365.16,-1324.68C374.64,-1313.65 384.91,-1301.73 394.68,-1290.36"/>
<polygon fill="black" stroke="black" points="397.49,-1292.47 401.36,-1282.61 392.18,-1287.9 397.49,-1292.47"/>
</g>
<!-- BB3&#45;&gt;BB4 -->
<g id="edge6" class="edge">
<title>BB3&#45;&gt;BB4</title>
<path fill="none" stroke="black" d="M318.49,-1237.58C320.94,-1237.58 323.4,-1237.58 325.85,-1237.58"/>
<polygon fill="black" stroke="black" points="325.94,-1241.08 335.94,-1237.58 325.94,-1234.08 325.94,-1241.08"/>
</g>
<!-- BB5 -->
<g id="node6" class="node">
<title>BB5</title>
<ellipse fill="none" stroke="black" cx="327.24" cy="-1105.42" rx="103.48" ry="48.17"/>
<text text-anchor="middle" x="327.24" y="-1124.22" font-family="Times New Roman,serif" font-size="14.00">[aa..b4)</text>
<text text-anchor="middle" x="327.24" y="-1109.22" font-family="Times New Roman,serif" font-size="14.00">Count: 10</text>
<text text-anchor="middle" x="327.24" y="-1094.22" font-family="Times New Roman,serif" font-size="14.00">Normalized count: 1.00</text>
<text text-anchor="middle" x="327.24" y="-1079.22" font-family="Times New Roman,serif" font-size="14.00">Samples weight: 0.00</text>
</g>
<!-- BB4&#45;&gt;BB5 -->
<g id="edge8" class="edge">
<title>BB4&#45;&gt;BB5</title>
<path fill="none" stroke="black" d="M401.32,-1192.51C391.83,-1181.49 381.57,-1169.56 371.79,-1158.2"/>
<polygon fill="black" stroke="black" points="374.29,-1155.74 365.12,-1150.44 368.99,-1160.3 374.29,-1155.74"/>
</g>
<!-- BB6 -->
<g id="node7" class="node">
<title>BB6</title>
<ellipse fill="none" stroke="black" cx="551.24" cy="-1105.42" rx="103.48" ry="48.17"/>
<text text-anchor="middle" x="551.24" y="-1124.22" font-family="Times New Roman,serif" font-size="14.00">[b4..bb)</text>
<text text-anchor="middle" x="551.24" y="-1109.22" font-family="Times New Roman,serif" font-size="14.00">Count: 10</text>
<text text-anchor="middle" x="551.24" y="-1094.22" font-family="Times New Roman,serif" font-size="14.00">Normalized count: 1.00</text>
<text text-anchor="middle" x="551.24" y="-1079.22" font-family="Times New Roman,serif" font-size="14.00">Samples weight: 0.00</text>
</g>
<!-- BB4&#45;&gt;BB6 -->
<g id="edge7" class="edge">
<title>BB4&#45;&gt;BB6</title>
<path fill="none" stroke="black" d="M477.16,-1192.51C486.64,-1181.49 496.91,-1169.56 506.68,-1158.2"/>
<polygon fill="black" stroke="black" points="509.49,-1160.3 513.36,-1150.44 504.18,-1155.74 509.49,-1160.3"/>
</g>
<!-- BB5&#45;&gt;BB6 -->
<g id="edge9" class="edge">
<title>BB5&#45;&gt;BB6</title>
<path fill="none" stroke="black" d="M430.49,-1105.42C432.94,-1105.42 435.4,-1105.42 437.85,-1105.42"/>
<polygon fill="black" stroke="black" points="437.94,-1108.92 447.94,-1105.42 437.94,-1101.92 437.94,-1108.92"/>
</g>
<!-- BB20 -->
<g id="node21" class="node">
<title>BB20</title>
<ellipse fill="none" stroke="black" cx="551.24" cy="-973.25" rx="108.38" ry="48.17"/>
<text text-anchor="middle" x="551.24" y="-992.05" font-family="Times New Roman,serif" font-size="14.00">[2cc..2d7)</text>
<text text-anchor="middle" x="551.24" y="-977.05" font-family="Times New Roman,serif" font-size="14.00">Count: 110</text>
<text text-anchor="middle" x="551.24" y="-962.05" font-family="Times New Roman,serif" font-size="14.00">Normalized count: 11.00</text>
<text text-anchor="middle" x="551.24" y="-947.05" font-family="Times New Roman,serif" font-size="14.00">Samples weight: 0.01</text>
</g>
<!-- BB6&#45;&gt;BB20 -->
<g id="edge10" class="edge">
<title>BB6&#45;&gt;BB20</title>
<path fill="none" stroke="black" d="M551.24,-1057.05C551.24,-1048.79 551.24,-1040.1 551.24,-1031.6"/>
<polygon fill="black" stroke="black" points="554.74,-1031.36 551.24,-1021.36 547.74,-1031.36 554.74,-1031.36"/>
</g>
<!-- BB7 -->
<g id="node8" class="node">
<title>BB7</title>
<ellipse fill="none" stroke="black" cx="551.24" cy="-841.08" rx="108.38" ry="48.17"/>
<text text-anchor="middle" x="551.24" y="-859.88" font-family="Times New Roman,serif" font-size="14.00">[bb..c5)</text>
<text text-anchor="middle" x="551.24" y="-844.88" font-family="Times New Roman,serif" font-size="14.00">Count: 100</text>
<text text-anchor="middle" x="551.24" y="-829.88" font-family="Times New Roman,serif" font-size="14.00">Normalized count: 10.00</text>
<text text-anchor="middle" x="551.24" y="-814.88" font-family="Times New Roman,serif" font-size="14.00">Samples weight: 0.00</text>
</g>
<!-- BB11 -->
<g id="node12" class="node">
<title>BB11</title>
<ellipse fill="none" stroke="black" cx="663.24" cy="-708.92" rx="108.38" ry="48.17"/>
<text text-anchor="middle" x="663.24" y="-727.72" font-family="Times New Roman,serif" font-size="14.00">[173..17b)</text>
<text text-anchor="middle" x="663.24" y="-712.72" font-family="Times New Roman,serif" font-size="14.00">Count: 800</text>
<text text-anchor="middle" x="663.24" y="-697.72" font-family="Times New Roman,serif" font-size="14.00">Normalized count: 80.00</text>
<text text-anchor="middle" x="663.24" y="-682.72" font-family="Times New Roman,serif" font-size="14.00">Samples weight: 0.04</text>
</g>
<!-- BB7&#45;&gt;BB11 -->
<g id="edge11" class="edge">
<title>BB7&#45;&gt;BB11</title>
<path fill="none" stroke="black" d="M589.16,-796.01C598.54,-785.11 608.68,-773.32 618.36,-762.07"/>
<polygon fill="black" stroke="black" points="621.11,-764.24 624.98,-754.38 615.8,-759.68 621.11,-764.24"/>
</g>
<!-- BB8 -->
<g id="node9" class="node">
<title>BB8</title>
<ellipse fill="none" stroke="black" cx="595.24" cy="-576.75" rx="108.38" ry="48.17"/>
<text text-anchor="middle" x="595.24" y="-595.55" font-family="Times New Roman,serif" font-size="14.00">[c5..10d)</text>
<text text-anchor="middle" x="595.24" y="-580.55" font-family="Times New Roman,serif" font-size="14.00">Count: 700</text>
<text text-anchor="middle" x="595.24" y="-565.55" font-family="Times New Roman,serif" font-size="14.00">Normalized count: 70.00</text>
<text text-anchor="middle" x="595.24" y="-550.55" font-family="Times New Roman,serif" font-size="14.00">Samples weight: 0.03</text>
</g>
<!-- BB9 -->
<g id="node10" class="node">
<title>BB9</title>
<ellipse fill="none" stroke="black" cx="502.24" cy="-444.58" rx="103.48" ry="48.17"/>
<text text-anchor="middle" x="502.24" y="-463.38" font-family="Times New Roman,serif" font-size="14.00">[10d..118)</text>
<text text-anchor="middle" x="502.24" y="-448.38" font-family="Times New Roman,serif" font-size="14.00">Count: 0</text>
<text text-anchor="middle" x="502.24" y="-433.38" font-family="Times New Roman,serif" font-size="14.00">Normalized count: 0.00</text>
<text text-anchor="middle" x="502.24" y="-418.38" font-family="Times New Roman,serif" font-size="14.00">Samples weight: 0.00</text>
</g>
<!-- BB8&#45;&gt;BB9 -->
<g id="edge13" class="edge">
<title>BB8&#45;&gt;BB9</title>
<path fill="none" stroke="black" d="M562.97,-530.59C555.69,-520.39 547.88,-509.47 540.38,-498.97"/>
<polygon fill="black" stroke="black" points="543.11,-496.77 534.45,-490.66 537.41,-500.83 543.11,-496.77"/>
</g>
<!-- BB10 -->
<g id="node11" class="node">
<title>BB10</title>
<ellipse fill="none" stroke="black" cx="731.24" cy="-444.58" rx="108.38" ry="48.17"/>
<text text-anchor="middle" x="731.24" y="-463.38" font-family="Times New Roman,serif" font-size="14.00">[118..173)</text>
<text text-anchor="middle" x="731.24" y="-448.38" font-family="Times New Roman,serif" font-size="14.00">Count: 700</text>
<text text-anchor="middle" x="731.24" y="-433.38" font-family="Times New Roman,serif" font-size="14.00">Normalized count: 70.00</text>
<text text-anchor="middle" x="731.24" y="-418.38" font-family="Times New Roman,serif" font-size="14.00">Samples weight: 0.03</text>
</g>
<!-- BB8&#45;&gt;BB10 -->
<g id="edge12" class="edge">
<title>BB8&#45;&gt;BB10</title>
<path fill="none" stroke="black" d="M640.15,-532.77C652.56,-520.88 666.15,-507.88 678.95,-495.63"/>
<polygon fill="black" stroke="black" points="681.57,-497.96 686.38,-488.52 676.73,-492.91 681.57,-497.96"/>
</g>
<!-- BB9&#45;&gt;BB10 -->
<g id="edge14" class="edge">
<title>BB9&#45;&gt;BB10</title>
<path fill="none" stroke="black" d="M605.56,-444.58C607.88,-444.58 610.21,-444.58 612.54,-444.58"/>
<polygon fill="black" stroke="black" points="612.74,-448.08 622.74,-444.58 612.74,-441.08 612.74,-448.08"/>
</g>
<!-- BB10&#45;&gt;BB11 -->
<g id="edge15" class="edge">
<title>BB10&#45;&gt;BB11</title>
<path fill="none" stroke="black" d="M731.66,-492.78C730.71,-529.61 726.53,-581.6 712.24,-624.83 709.01,-634.59 704.52,-644.45 699.54,-653.79"/>
<polygon fill="black" stroke="black" points="696.46,-652.14 694.66,-662.58 702.58,-655.54 696.46,-652.14"/>
</g>
<!-- BB11&#45;&gt;BB8 -->
<g id="edge16" class="edge">
<title>BB11&#45;&gt;BB8</title>
<path fill="none" stroke="black" d="M639.26,-662.02C634.29,-652.5 628.99,-642.37 623.87,-632.56"/>
<polygon fill="black" stroke="black" points="626.96,-630.91 619.22,-623.67 620.75,-634.15 626.96,-630.91"/>
</g>
<!-- BB12 -->
<g id="node13" class="node">
<title>BB12</title>
<ellipse fill="none" stroke="black" cx="918.24" cy="-576.75" rx="108.38" ry="48.17"/>
<text text-anchor="middle" x="918.24" y="-595.55" font-family="Times New Roman,serif" font-size="14.00">[17b..180)</text>
<text text-anchor="middle" x="918.24" y="-580.55" font-family="Times New Roman,serif" font-size="14.00">Count: 100</text>
<text text-anchor="middle" x="918.24" y="-565.55" font-family="Times New Roman,serif" font-size="14.00">Normalized count: 10.00</text>
<text text-anchor="middle" x="918.24" y="-550.55" font-family="Times New Roman,serif" font-size="14.00">Samples weight: 0.00</text>
</g>
<!-- BB11&#45;&gt;BB12 -->
<g id="edge17" class="edge">
<title>BB11&#45;&gt;BB12</title>
<path fill="none" stroke="black" d="M733.25,-672.18C766.01,-655.46 805.16,-635.47 839,-618.2"/>
<polygon fill="black" stroke="black" points="840.62,-621.3 847.93,-613.64 837.44,-615.07 840.62,-621.3"/>
</g>
<!-- BB18 -->
<g id="node19" class="node">
<title>BB18</title>
<ellipse fill="none" stroke="black" cx="970.24" cy="-444.58" rx="113.27" ry="48.17"/>
<text text-anchor="middle" x="970.24" y="-463.38" font-family="Times New Roman,serif" font-size="14.00">[1d6..1df)</text>
<text text-anchor="middle" x="970.24" y="-448.38" font-family="Times New Roman,serif" font-size="14.00">Count: 3600</text>
<text text-anchor="middle" x="970.24" y="-433.38" font-family="Times New Roman,serif" font-size="14.00">Normalized count: 360.00</text>
<text text-anchor="middle" x="970.24" y="-418.38" font-family="Times New Roman,serif" font-size="14.00">Samples weight: 0.18</text>
</g>
<!-- BB12&#45;&gt;BB18 -->
<g id="edge18" class="edge">
<title>BB12&#45;&gt;BB18</title>
<path fill="none" stroke="black" d="M936.86,-529.12C940.41,-520.24 944.16,-510.87 947.81,-501.73"/>
<polygon fill="black" stroke="black" points="951.11,-502.91 951.57,-492.32 944.61,-500.31 951.11,-502.91"/>
</g>
<!-- BB13 -->
<g id="node14" class="node">
<title>BB13</title>
<ellipse fill="none" stroke="black" cx="899.24" cy="-312.42" rx="113.27" ry="48.17"/>
<text text-anchor="middle" x="899.24" y="-331.22" font-family="Times New Roman,serif" font-size="14.00">[180..195)</text>
<text text-anchor="middle" x="899.24" y="-316.22" font-family="Times New Roman,serif" font-size="14.00">Count: 3500</text>
<text text-anchor="middle" x="899.24" y="-301.22" font-family="Times New Roman,serif" font-size="14.00">Normalized count: 350.00</text>
<text text-anchor="middle" x="899.24" y="-286.22" font-family="Times New Roman,serif" font-size="14.00">Samples weight: 0.17</text>
</g>
<!-- BB14 -->
<g id="node15" class="node">
<title>BB14</title>
<ellipse fill="none" stroke="black" cx="655.24" cy="-180.25" rx="113.27" ry="48.17"/>
<text text-anchor="middle" x="655.24" y="-199.05" font-family="Times New Roman,serif" font-size="14.00">[195..1a8)</text>
<text text-anchor="middle" x="655.24" y="-184.05" font-family="Times New Roman,serif" font-size="14.00">Count: 1510</text>
<text text-anchor="middle" x="655.24" y="-169.05" font-family="Times New Roman,serif" font-size="14.00">Normalized count: 151.00</text>
<text text-anchor="middle" x="655.24" y="-154.05" font-family="Times New Roman,serif" font-size="14.00">Samples weight: 0.07</text>
</g>
<!-- BB13&#45;&gt;BB14 -->
<g id="edge20" class="edge">
<title>BB13&#45;&gt;BB14</title>
<path fill="none" stroke="black" d="M829.64,-274.29C799.77,-258.35 764.73,-239.66 733.92,-223.22"/>
<polygon fill="black" stroke="black" points="735.39,-220.04 724.92,-218.43 732.1,-226.22 735.39,-220.04"/>
</g>
<!-- BB15 -->
<g id="node16" class="node">
<title>BB15</title>
<ellipse fill="none" stroke="black" cx="899.24" cy="-180.25" rx="113.27" ry="48.17"/>
<text text-anchor="middle" x="899.24" y="-199.05" font-family="Times New Roman,serif" font-size="14.00">[1a8..1bd)</text>
<text text-anchor="middle" x="899.24" y="-184.05" font-family="Times New Roman,serif" font-size="14.00">Count: 3500</text>
<text text-anchor="middle" x="899.24" y="-169.05" font-family="Times New Roman,serif" font-size="14.00">Normalized count: 350.00</text>
<text text-anchor="middle" x="899.24" y="-154.05" font-family="Times New Roman,serif" font-size="14.00">Samples weight: 0.17</text>
</g>
<!-- BB13&#45;&gt;BB15 -->
<g id="edge19" class="edge">
<title>BB13&#45;&gt;BB15</title>
<path fill="none" stroke="black" d="M899.24,-264.05C899.24,-255.79 899.24,-247.1 899.24,-238.6"/>
<polygon fill="black" stroke="black" points="902.74,-238.36 899.24,-228.36 895.74,-238.36 902.74,-238.36"/>
</g>
<!-- BB14&#45;&gt;BB15 -->
<g id="edge21" class="edge">
<title>BB14&#45;&gt;BB15</title>
<path fill="none" stroke="black" d="M768.66,-180.25C771.1,-180.25 773.54,-180.25 775.98,-180.25"/>
<polygon fill="black" stroke="black" points="776,-183.75 786,-180.25 776,-176.75 776,-183.75"/>
</g>
<!-- BB16 -->
<g id="node17" class="node">
<title>BB16</title>
<ellipse fill="none" stroke="black" cx="796.24" cy="-48.08" rx="113.27" ry="48.17"/>
<text text-anchor="middle" x="796.24" y="-66.88" font-family="Times New Roman,serif" font-size="14.00">[1bd..1d0)</text>
<text text-anchor="middle" x="796.24" y="-51.88" font-family="Times New Roman,serif" font-size="14.00">Count: 1990</text>
<text text-anchor="middle" x="796.24" y="-36.88" font-family="Times New Roman,serif" font-size="14.00">Normalized count: 199.00</text>
<text text-anchor="middle" x="796.24" y="-21.88" font-family="Times New Roman,serif" font-size="14.00">Samples weight: 0.10</text>
</g>
<!-- BB15&#45;&gt;BB16 -->
<g id="edge23" class="edge">
<title>BB15&#45;&gt;BB16</title>
<path fill="none" stroke="black" d="M863.79,-134.45C855.54,-124.02 846.67,-112.82 838.17,-102.07"/>
<polygon fill="black" stroke="black" points="840.7,-99.63 831.75,-93.96 835.21,-103.98 840.7,-99.63"/>
</g>
<!-- BB17 -->
<g id="node18" class="node">
<title>BB17</title>
<ellipse fill="none" stroke="black" cx="1040.24" cy="-48.08" rx="113.27" ry="48.17"/>
<text text-anchor="middle" x="1040.24" y="-66.88" font-family="Times New Roman,serif" font-size="14.00">[1d0..1d6)</text>
<text text-anchor="middle" x="1040.24" y="-51.88" font-family="Times New Roman,serif" font-size="14.00">Count: 3500</text>
<text text-anchor="middle" x="1040.24" y="-36.88" font-family="Times New Roman,serif" font-size="14.00">Normalized count: 350.00</text>
<text text-anchor="middle" x="1040.24" y="-21.88" font-family="Times New Roman,serif" font-size="14.00">Samples weight: 0.17</text>
</g>
<!-- BB15&#45;&gt;BB17 -->
<g id="edge22" class="edge">
<title>BB15&#45;&gt;BB17</title>
<path fill="none" stroke="black" d="M945.8,-136.27C958.67,-124.38 972.75,-111.38 986.02,-99.13"/>
<polygon fill="black" stroke="black" points="988.75,-101.38 993.73,-92.02 984.01,-96.23 988.75,-101.38"/>
</g>
<!-- BB16&#45;&gt;BB17 -->
<g id="edge24" class="edge">
<title>BB16&#45;&gt;BB17</title>
<path fill="none" stroke="black" d="M909.66,-48.08C912.1,-48.08 914.54,-48.08 916.98,-48.08"/>
<polygon fill="black" stroke="black" points="917,-51.58 927,-48.08 917,-44.58 917,-51.58"/>
</g>
<!-- BB17&#45;&gt;BB18 -->
<g id="edge25" class="edge">
<title>BB17&#45;&gt;BB18</title>
<path fill="none" stroke="black" d="M1044.34,-96.27C1048.18,-158.41 1049.69,-270.36 1021.24,-360.5 1018.11,-370.41 1013.55,-380.34 1008.43,-389.72"/>
<polygon fill="black" stroke="black" points="1005.32,-388.1 1003.37,-398.52 1011.38,-391.59 1005.32,-388.1"/>
</g>
<!-- BB18&#45;&gt;BB13 -->
<g id="edge26" class="edge">
<title>BB18&#45;&gt;BB13</title>
<path fill="none" stroke="black" d="M945.21,-397.69C940.01,-388.16 934.48,-378.03 929.13,-368.23"/>
<polygon fill="black" stroke="black" points="932.14,-366.44 924.28,-359.33 926,-369.79 932.14,-366.44"/>
</g>
<!-- BB19 -->
<g id="node20" class="node">
<title>BB19</title>
<ellipse fill="none" stroke="black" cx="551.24" cy="-312.42" rx="108.38" ry="48.17"/>
<text text-anchor="middle" x="551.24" y="-331.22" font-family="Times New Roman,serif" font-size="14.00">[1df..2cc)</text>
<text text-anchor="middle" x="551.24" y="-316.22" font-family="Times New Roman,serif" font-size="14.00">Count: 100</text>
<text text-anchor="middle" x="551.24" y="-301.22" font-family="Times New Roman,serif" font-size="14.00">Normalized count: 10.00</text>
<text text-anchor="middle" x="551.24" y="-286.22" font-family="Times New Roman,serif" font-size="14.00">Samples weight: 0.00</text>
</g>
<!-- BB18&#45;&gt;BB19 -->
<g id="edge27" class="edge">
<title>BB18&#45;&gt;BB19</title>
<path fill="none" stroke="black" d="M888.93,-410.96C875.41,-405.9 861.49,-400.9 848.24,-396.5 784.35,-375.29 711.58,-354.87 654.06,-339.59"/>
<polygon fill="black" stroke="black" points="654.8,-336.16 644.24,-336.99 653.01,-342.93 654.8,-336.16"/>
</g>
<!-- BB19&#45;&gt;BB20 -->
<g id="edge28" class="edge">
<title>BB19&#45;&gt;BB20</title>
<path fill="none" stroke="black" d="M462.84,-340.22C435.32,-352.92 407.64,-371.06 390.24,-396.5 345,-462.62 371.24,-495.64 371.24,-575.75 371.24,-709.92 371.24,-709.92 371.24,-709.92 371.24,-794.36 383.43,-821.72 434.24,-889.17 445.73,-904.42 460.82,-917.98 476.34,-929.5"/>
<polygon fill="black" stroke="black" points="474.31,-932.35 484.47,-935.34 478.39,-926.67 474.31,-932.35"/>
</g>
<!-- BB20&#45;&gt;BB7 -->
<g id="edge29" class="edge">
<title>BB20&#45;&gt;BB7</title>
<path fill="none" stroke="black" d="M551.24,-924.89C551.24,-916.62 551.24,-907.94 551.24,-899.43"/>
<polygon fill="black" stroke="black" points="554.74,-899.19 551.24,-889.19 547.74,-899.19 554.74,-899.19"/>
</g>
<!-- BB21 -->
<g id="node22" class="node">
<title>BB21</title>
<ellipse fill="none" stroke="black" cx="780.24" cy="-841.08" rx="103.48" ry="48.17"/>
<text text-anchor="middle" x="780.24" y="-859.88" font-family="Times New Roman,serif" font-size="14.00">[2d7..2d8)</text>
<text text-anchor="middle" x="780.24" y="-844.88" font-family="Times New Roman,serif" font-size="14.00">Count: 10</text>
<text text-anchor="middle" x="780.24" y="-829.88" font-family="Times New Roman,serif" font-size="14.00">Normalized count: 1.00</text>
<text text-anchor="middle" x="780.24" y="-814.88" font-family="Times New Roman,serif" font-size="14.00">Samples weight: 0.00</text>
</g>
<!-- BB20&#45;&gt;BB21 -->
<g id="edge30" class="edge">
<title>BB20&#45;&gt;BB21</title>
<path fill="none" stroke="black" d="M616.86,-934.95C645.01,-918.95 678.01,-900.19 706.95,-883.74"/>
<polygon fill="black" stroke="black" points="708.83,-886.7 715.79,-878.71 705.37,-880.61 708.83,-886.7"/>
</g>
</g>
</svg>
