<?xml version="1.0" encoding="UTF-8" standalone="no"?>
<!DOCTYPE svg PUBLIC "-//W3C//DTD SVG 1.1//EN"
 "http://www.w3.org/Graphics/SVG/1.1/DTD/svg11.dtd">
<!-- Generated by graphviz version 2.47.0 (20210316.0004)
 -->
<!-- Title: G Pages: 1 -->
<svg width="429pt" height="600pt"
 viewBox="0.00 0.00 428.85 600.18" xmlns="http://www.w3.org/2000/svg" xmlns:xlink="http://www.w3.org/1999/xlink">
<g id="graph0" class="graph" transform="scale(1 1) rotate(0) translate(4 596.18)">
<title>G</title>
<polygon fill="white" stroke="transparent" points="-4,4 -4,-596.18 424.85,-596.18 424.85,4 -4,4"/>
<!-- BB0 -->
<g id="node1" class="node">
<title>BB0</title>
<ellipse fill="none" stroke="black" cx="140.43" cy="-565.31" rx="33.47" ry="26.74"/>
<text text-anchor="middle" x="140.43" y="-569.11" font-family="Times New Roman,serif" font-size="14.00">[0..4)</text>
<text text-anchor="middle" x="140.43" y="-554.11" font-family="Times New Roman,serif" font-size="14.00">0.00</text>
</g>
<!-- BB5 -->
<g id="node6" class="node">
<title>BB5</title>
<ellipse fill="none" stroke="black" cx="140.43" cy="-475.57" rx="42.35" ry="26.74"/>
<text text-anchor="middle" x="140.43" y="-479.37" font-family="Times New Roman,serif" font-size="14.00">[3c..44)</text>
<text text-anchor="middle" x="140.43" y="-464.37" font-family="Times New Roman,serif" font-size="14.00">0.01</text>
</g>
<!-- BB0&#45;&gt;BB5 -->
<g id="edge1" class="edge">
<title>BB0&#45;&gt;BB5</title>
<path fill="none" stroke="black" d="M140.43,-537.99C140.43,-530.02 140.43,-521.13 140.43,-512.64"/>
<polygon fill="black" stroke="black" points="143.93,-512.57 140.43,-502.57 136.93,-512.57 143.93,-512.57"/>
</g>
<!-- BB1 -->
<g id="node2" class="node">
<title>BB1</title>
<ellipse fill="none" stroke="black" cx="140.43" cy="-385.83" rx="33.47" ry="26.74"/>
<text text-anchor="middle" x="140.43" y="-389.63" font-family="Times New Roman,serif" font-size="14.00">[4..8)</text>
<text text-anchor="middle" x="140.43" y="-374.63" font-family="Times New Roman,serif" font-size="14.00">0.00</text>
</g>
<!-- BB3 -->
<g id="node4" class="node">
<title>BB3</title>
<ellipse fill="none" stroke="black" cx="140.43" cy="-296.09" rx="42.35" ry="26.74"/>
<text text-anchor="middle" x="140.43" y="-299.89" font-family="Times New Roman,serif" font-size="14.00">[30..38)</text>
<text text-anchor="middle" x="140.43" y="-284.89" font-family="Times New Roman,serif" font-size="14.00">0.03</text>
</g>
<!-- BB1&#45;&gt;BB3 -->
<g id="edge2" class="edge">
<title>BB1&#45;&gt;BB3</title>
<path fill="none" stroke="black" d="M140.43,-358.51C140.43,-350.54 140.43,-341.65 140.43,-333.16"/>
<polygon fill="black" stroke="black" points="143.93,-333.09 140.43,-323.09 136.93,-333.09 143.93,-333.09"/>
</g>
<!-- BB2 -->
<g id="node3" class="node">
<title>BB2</title>
<ellipse fill="none" stroke="black" cx="140.43" cy="-206.35" rx="37.45" ry="26.74"/>
<text text-anchor="middle" x="140.43" y="-210.15" font-family="Times New Roman,serif" font-size="14.00">[8..30)</text>
<text text-anchor="middle" x="140.43" y="-195.15" font-family="Times New Roman,serif" font-size="14.00">0.74</text>
</g>
<!-- BB2&#45;&gt;BB3 -->
<g id="edge3" class="edge">
<title>BB2&#45;&gt;BB3</title>
<path fill="none" stroke="black" d="M146.63,-233.02C147.15,-241.21 147.3,-250.44 147.08,-259.22"/>
<polygon fill="black" stroke="black" points="143.58,-259.1 146.64,-269.24 150.57,-259.4 143.58,-259.1"/>
</g>
<!-- BB3&#45;&gt;BB2 -->
<g id="edge4" class="edge">
<title>BB3&#45;&gt;BB2</title>
<path fill="none" stroke="black" d="M134.21,-269.24C133.7,-261.03 133.55,-251.8 133.78,-243.02"/>
<polygon fill="black" stroke="black" points="137.28,-243.16 134.22,-233.02 130.29,-242.85 137.28,-243.16"/>
</g>
<!-- BB4 -->
<g id="node5" class="node">
<title>BB4</title>
<ellipse fill="none" stroke="black" cx="42.43" cy="-206.35" rx="42.35" ry="26.74"/>
<text text-anchor="middle" x="42.43" y="-210.15" font-family="Times New Roman,serif" font-size="14.00">[38..3c)</text>
<text text-anchor="middle" x="42.43" y="-195.15" font-family="Times New Roman,serif" font-size="14.00">0.01</text>
</g>
<!-- BB3&#45;&gt;BB4 -->
<g id="edge5" class="edge">
<title>BB3&#45;&gt;BB4</title>
<path fill="none" stroke="black" d="M116.45,-273.63C103.76,-262.26 88,-248.15 74.29,-235.88"/>
<polygon fill="black" stroke="black" points="76.28,-232.96 66.49,-228.9 71.61,-238.17 76.28,-232.96"/>
</g>
<!-- BB4&#45;&gt;BB5 -->
<g id="edge6" class="edge">
<title>BB4&#45;&gt;BB5</title>
<path fill="none" stroke="black" d="M46.65,-233.26C53.78,-273.16 70.23,-351.44 98.43,-412.7 103.21,-423.08 109.66,-433.64 116.08,-443.03"/>
<polygon fill="black" stroke="black" points="113.29,-445.14 121.92,-451.28 119,-441.1 113.29,-445.14"/>
</g>
<!-- BB5&#45;&gt;BB1 -->
<g id="edge7" class="edge">
<title>BB5&#45;&gt;BB1</title>
<path fill="none" stroke="black" d="M140.43,-448.25C140.43,-440.28 140.43,-431.39 140.43,-422.9"/>
<polygon fill="black" stroke="black" points="143.93,-422.83 140.43,-412.83 136.93,-422.83 143.93,-422.83"/>
</g>
<!-- BB6 -->
<g id="node7" class="node">
<title>BB6</title>
<ellipse fill="none" stroke="black" cx="238.43" cy="-385.83" rx="42.35" ry="26.74"/>
<text text-anchor="middle" x="238.43" y="-389.63" font-family="Times New Roman,serif" font-size="14.00">[44..48)</text>
<text text-anchor="middle" x="238.43" y="-374.63" font-family="Times New Roman,serif" font-size="14.00">0.00</text>
</g>
<!-- BB5&#45;&gt;BB6 -->
<g id="edge8" class="edge">
<title>BB5&#45;&gt;BB6</title>
<path fill="none" stroke="black" d="M164.4,-453.11C177.09,-441.74 192.85,-427.63 206.56,-415.36"/>
<polygon fill="black" stroke="black" points="209.25,-417.65 214.36,-408.38 204.58,-412.44 209.25,-417.65"/>
</g>
<!-- BB11 -->
<g id="node12" class="node">
<title>BB11</title>
<ellipse fill="none" stroke="black" cx="259.43" cy="-296.09" rx="42.35" ry="26.74"/>
<text text-anchor="middle" x="259.43" y="-299.89" font-family="Times New Roman,serif" font-size="14.00">[80..88)</text>
<text text-anchor="middle" x="259.43" y="-284.89" font-family="Times New Roman,serif" font-size="14.00">0.00</text>
</g>
<!-- BB6&#45;&gt;BB11 -->
<g id="edge9" class="edge">
<title>BB6&#45;&gt;BB11</title>
<path fill="none" stroke="black" d="M244.61,-358.98C246.58,-350.77 248.79,-341.54 250.89,-332.76"/>
<polygon fill="black" stroke="black" points="254.36,-333.3 253.28,-322.76 247.55,-331.67 254.36,-333.3"/>
</g>
<!-- BB7 -->
<g id="node8" class="node">
<title>BB7</title>
<ellipse fill="none" stroke="black" cx="275.43" cy="-206.35" rx="42.35" ry="26.74"/>
<text text-anchor="middle" x="275.43" y="-210.15" font-family="Times New Roman,serif" font-size="14.00">[48..4c)</text>
<text text-anchor="middle" x="275.43" y="-195.15" font-family="Times New Roman,serif" font-size="14.00">0.00</text>
</g>
<!-- BB9 -->
<g id="node10" class="node">
<title>BB9</title>
<ellipse fill="none" stroke="black" cx="283.43" cy="-116.61" rx="42.35" ry="26.74"/>
<text text-anchor="middle" x="283.43" y="-120.41" font-family="Times New Roman,serif" font-size="14.00">[74..7c)</text>
<text text-anchor="middle" x="283.43" y="-105.41" font-family="Times New Roman,serif" font-size="14.00">0.01</text>
</g>
<!-- BB7&#45;&gt;BB9 -->
<g id="edge10" class="edge">
<title>BB7&#45;&gt;BB9</title>
<path fill="none" stroke="black" d="M277.78,-179.5C278.52,-171.45 279.34,-162.42 280.13,-153.8"/>
<polygon fill="black" stroke="black" points="283.64,-153.86 281.06,-143.58 276.66,-153.22 283.64,-153.86"/>
</g>
<!-- BB8 -->
<g id="node9" class="node">
<title>BB8</title>
<ellipse fill="none" stroke="black" cx="292.43" cy="-26.87" rx="42.35" ry="26.74"/>
<text text-anchor="middle" x="292.43" y="-30.67" font-family="Times New Roman,serif" font-size="14.00">[4c..74)</text>
<text text-anchor="middle" x="292.43" y="-15.67" font-family="Times New Roman,serif" font-size="14.00">0.20</text>
</g>
<!-- BB8&#45;&gt;BB9 -->
<g id="edge11" class="edge">
<title>BB8&#45;&gt;BB9</title>
<path fill="none" stroke="black" d="M295.99,-53.8C295.65,-62.07 294.84,-71.36 293.7,-80.18"/>
<polygon fill="black" stroke="black" points="290.21,-79.83 292.22,-90.23 297.14,-80.85 290.21,-79.83"/>
</g>
<!-- BB9&#45;&gt;BB8 -->
<g id="edge12" class="edge">
<title>BB9&#45;&gt;BB8</title>
<path fill="none" stroke="black" d="M279.86,-89.76C280.19,-81.48 281.01,-72.15 282.15,-63.31"/>
<polygon fill="black" stroke="black" points="285.64,-63.64 283.64,-53.23 278.72,-62.62 285.64,-63.64"/>
</g>
<!-- BB10 -->
<g id="node11" class="node">
<title>BB10</title>
<ellipse fill="none" stroke="black" cx="189.43" cy="-26.87" rx="42.35" ry="26.74"/>
<text text-anchor="middle" x="189.43" y="-30.67" font-family="Times New Roman,serif" font-size="14.00">[7c..80)</text>
<text text-anchor="middle" x="189.43" y="-15.67" font-family="Times New Roman,serif" font-size="14.00">0.00</text>
</g>
<!-- BB9&#45;&gt;BB10 -->
<g id="edge13" class="edge">
<title>BB9&#45;&gt;BB10</title>
<path fill="none" stroke="black" d="M260.19,-93.92C248.1,-82.64 233.17,-68.7 220.14,-56.53"/>
<polygon fill="black" stroke="black" points="222.42,-53.88 212.72,-49.61 217.64,-59 222.42,-53.88"/>
</g>
<!-- BB10&#45;&gt;BB11 -->
<g id="edge14" class="edge">
<title>BB10&#45;&gt;BB11</title>
<path fill="none" stroke="black" d="M190.98,-53.88C193.98,-93.58 202.36,-171.21 224.43,-233.22 227.93,-243.07 232.95,-253.18 238.1,-262.3"/>
<polygon fill="black" stroke="black" points="235.15,-264.2 243.24,-271.04 241.19,-260.65 235.15,-264.2"/>
</g>
<!-- BB11&#45;&gt;BB7 -->
<g id="edge15" class="edge">
<title>BB11&#45;&gt;BB7</title>
<path fill="none" stroke="black" d="M264.14,-269.24C265.62,-261.1 267.29,-251.96 268.88,-243.26"/>
<polygon fill="black" stroke="black" points="272.34,-243.78 270.69,-233.32 265.45,-242.53 272.34,-243.78"/>
</g>
<!-- BB12 -->
<g id="node13" class="node">
<title>BB12</title>
<ellipse fill="none" stroke="black" cx="378.43" cy="-206.35" rx="42.35" ry="26.74"/>
<text text-anchor="middle" x="378.43" y="-210.15" font-family="Times New Roman,serif" font-size="14.00">[88..89)</text>
<text text-anchor="middle" x="378.43" y="-195.15" font-family="Times New Roman,serif" font-size="14.00">0.00</text>
</g>
<!-- BB11&#45;&gt;BB12 -->
<g id="edge16" class="edge">
<title>BB11&#45;&gt;BB12</title>
<path fill="none" stroke="black" d="M286.43,-275.18C303.32,-262.73 325.25,-246.56 343.46,-233.13"/>
<polygon fill="black" stroke="black" points="345.56,-235.93 351.53,-227.18 341.4,-230.3 345.56,-235.93"/>
</g>
</g>
</svg>
