<?xml version="1.0" encoding="UTF-8" standalone="no"?>
<!DOCTYPE svg PUBLIC "-//W3C//DTD SVG 1.1//EN"
 "http://www.w3.org/Graphics/SVG/1.1/DTD/svg11.dtd">
<!-- Generated by graphviz version 2.47.0 (20210316.0004)
 -->
<!-- Title: G Pages: 1 -->
<svg width="953pt" height="749pt"
 viewBox="0.00 0.00 952.72 748.67" xmlns="http://www.w3.org/2000/svg" xmlns:xlink="http://www.w3.org/1999/xlink">
<g id="graph0" class="graph" transform="scale(1 1) rotate(0) translate(4 744.67)">
<title>G</title>
<polygon fill="white" stroke="transparent" points="-4,4 -4,-744.67 948.72,-744.67 948.72,4 -4,4"/>
<!-- BB0 -->
<g id="node1" class="node">
<title>BB0</title>
<ellipse fill="none" stroke="black" cx="339.36" cy="-703.2" rx="105.22" ry="37.45"/>
<text text-anchor="middle" x="339.36" y="-714.5" font-family="Times New Roman,serif" font-size="14.00">[0..4)</text>
<text text-anchor="middle" x="339.36" y="-699.5" font-family="Times New Roman,serif" font-size="14.00">Normalized Count: 1.00</text>
<text text-anchor="middle" x="339.36" y="-684.5" font-family="Times New Roman,serif" font-size="14.00">Samples weight: 0.01</text>
</g>
<!-- BB5 -->
<g id="node6" class="node">
<title>BB5</title>
<ellipse fill="none" stroke="black" cx="339.36" cy="-592.24" rx="105.22" ry="37.45"/>
<text text-anchor="middle" x="339.36" y="-603.54" font-family="Times New Roman,serif" font-size="14.00">[45..4d)</text>
<text text-anchor="middle" x="339.36" y="-588.54" font-family="Times New Roman,serif" font-size="14.00">Normalized Count: 6.00</text>
<text text-anchor="middle" x="339.36" y="-573.54" font-family="Times New Roman,serif" font-size="14.00">Samples weight: 0.04</text>
</g>
<!-- BB0&#45;&gt;BB5 -->
<g id="edge1" class="edge">
<title>BB0&#45;&gt;BB5</title>
<path fill="none" stroke="black" d="M339.36,-665.61C339.36,-657.44 339.36,-648.66 339.36,-640.13"/>
<polygon fill="black" stroke="black" points="342.86,-639.92 339.36,-629.92 335.86,-639.92 342.86,-639.92"/>
</g>
<!-- BB1 -->
<g id="node2" class="node">
<title>BB1</title>
<ellipse fill="none" stroke="black" cx="339.36" cy="-481.29" rx="105.22" ry="37.45"/>
<text text-anchor="middle" x="339.36" y="-492.59" font-family="Times New Roman,serif" font-size="14.00">[4..8)</text>
<text text-anchor="middle" x="339.36" y="-477.59" font-family="Times New Roman,serif" font-size="14.00">Normalized Count: 1.00</text>
<text text-anchor="middle" x="339.36" y="-462.59" font-family="Times New Roman,serif" font-size="14.00">Samples weight: 0.01</text>
</g>
<!-- BB3 -->
<g id="node4" class="node">
<title>BB3</title>
<ellipse fill="none" stroke="black" cx="339.36" cy="-370.34" rx="105.22" ry="37.45"/>
<text text-anchor="middle" x="339.36" y="-381.64" font-family="Times New Roman,serif" font-size="14.00">[39..41)</text>
<text text-anchor="middle" x="339.36" y="-366.64" font-family="Times New Roman,serif" font-size="14.00">Normalized Count: 7.00</text>
<text text-anchor="middle" x="339.36" y="-351.64" font-family="Times New Roman,serif" font-size="14.00">Samples weight: 0.05</text>
</g>
<!-- BB1&#45;&gt;BB3 -->
<g id="edge2" class="edge">
<title>BB1&#45;&gt;BB3</title>
<path fill="none" stroke="black" d="M339.36,-443.71C339.36,-435.53 339.36,-426.75 339.36,-418.23"/>
<polygon fill="black" stroke="black" points="342.86,-418.01 339.36,-408.01 335.86,-418.01 342.86,-418.01"/>
</g>
<!-- BB2 -->
<g id="node3" class="node">
<title>BB2</title>
<ellipse fill="none" stroke="black" cx="339.36" cy="-259.38" rx="110.12" ry="37.45"/>
<text text-anchor="middle" x="339.36" y="-270.68" font-family="Times New Roman,serif" font-size="14.00">[8..39)</text>
<text text-anchor="middle" x="339.36" y="-255.68" font-family="Times New Roman,serif" font-size="14.00">Normalized Count: 93.00</text>
<text text-anchor="middle" x="339.36" y="-240.68" font-family="Times New Roman,serif" font-size="14.00">Samples weight: 0.64</text>
</g>
<!-- BB2&#45;&gt;BB3 -->
<g id="edge3" class="edge">
<title>BB2&#45;&gt;BB3</title>
<path fill="none" stroke="black" d="M345.78,-297.06C346.09,-305.23 346.18,-314.02 346.05,-322.54"/>
<polygon fill="black" stroke="black" points="342.54,-322.66 345.77,-332.75 349.54,-322.85 342.54,-322.66"/>
</g>
<!-- BB3&#45;&gt;BB2 -->
<g id="edge4" class="edge">
<title>BB3&#45;&gt;BB2</title>
<path fill="none" stroke="black" d="M332.94,-332.75C332.63,-324.58 332.54,-315.8 332.67,-307.27"/>
<polygon fill="black" stroke="black" points="336.17,-307.15 332.94,-297.06 329.17,-306.96 336.17,-307.15"/>
</g>
<!-- BB4 -->
<g id="node5" class="node">
<title>BB4</title>
<ellipse fill="none" stroke="black" cx="105.36" cy="-259.38" rx="105.22" ry="37.45"/>
<text text-anchor="middle" x="105.36" y="-270.68" font-family="Times New Roman,serif" font-size="14.00">[41..45)</text>
<text text-anchor="middle" x="105.36" y="-255.68" font-family="Times New Roman,serif" font-size="14.00">Normalized Count: 2.00</text>
<text text-anchor="middle" x="105.36" y="-240.68" font-family="Times New Roman,serif" font-size="14.00">Samples weight: 0.01</text>
</g>
<!-- BB3&#45;&gt;BB4 -->
<g id="edge5" class="edge">
<title>BB3&#45;&gt;BB4</title>
<path fill="none" stroke="black" d="M276.65,-340.14C246.09,-325.91 209.19,-308.73 177.47,-293.96"/>
<polygon fill="black" stroke="black" points="178.78,-290.71 168.24,-289.66 175.83,-297.06 178.78,-290.71"/>
</g>
<!-- BB4&#45;&gt;BB5 -->
<g id="edge6" class="edge">
<title>BB4&#45;&gt;BB5</title>
<path fill="none" stroke="black" d="M115.16,-297.03C130.99,-350.71 166.52,-451.63 225.36,-518.77 237.88,-533.05 253.89,-545.55 269.93,-555.97"/>
<polygon fill="black" stroke="black" points="268.49,-559.2 278.82,-561.54 272.2,-553.27 268.49,-559.2"/>
</g>
<!-- BB5&#45;&gt;BB1 -->
<g id="edge7" class="edge">
<title>BB5&#45;&gt;BB1</title>
<path fill="none" stroke="black" d="M339.36,-554.66C339.36,-546.49 339.36,-537.71 339.36,-529.18"/>
<polygon fill="black" stroke="black" points="342.86,-528.96 339.36,-518.96 335.86,-528.96 342.86,-528.96"/>
</g>
<!-- BB6 -->
<g id="node7" class="node">
<title>BB6</title>
<ellipse fill="none" stroke="black" cx="578.36" cy="-481.29" rx="105.22" ry="37.45"/>
<text text-anchor="middle" x="578.36" y="-492.59" font-family="Times New Roman,serif" font-size="14.00">[4d..51)</text>
<text text-anchor="middle" x="578.36" y="-477.59" font-family="Times New Roman,serif" font-size="14.00">Normalized Count: 1.00</text>
<text text-anchor="middle" x="578.36" y="-462.59" font-family="Times New Roman,serif" font-size="14.00">Samples weight: 0.01</text>
</g>
<!-- BB5&#45;&gt;BB6 -->
<g id="edge8" class="edge">
<title>BB5&#45;&gt;BB6</title>
<path fill="none" stroke="black" d="M403.09,-562.19C434.56,-547.85 472.67,-530.47 505.31,-515.59"/>
<polygon fill="black" stroke="black" points="507.16,-518.6 514.8,-511.26 504.25,-512.23 507.16,-518.6"/>
</g>
<!-- BB11 -->
<g id="node12" class="node">
<title>BB11</title>
<ellipse fill="none" stroke="black" cx="599.36" cy="-370.34" rx="105.22" ry="37.45"/>
<text text-anchor="middle" x="599.36" y="-381.64" font-family="Times New Roman,serif" font-size="14.00">[92..9a)</text>
<text text-anchor="middle" x="599.36" y="-366.64" font-family="Times New Roman,serif" font-size="14.00">Normalized Count: 1.00</text>
<text text-anchor="middle" x="599.36" y="-351.64" font-family="Times New Roman,serif" font-size="14.00">Samples weight: 0.01</text>
</g>
<!-- BB6&#45;&gt;BB11 -->
<g id="edge9" class="edge">
<title>BB6&#45;&gt;BB11</title>
<path fill="none" stroke="black" d="M585.41,-443.71C587,-435.44 588.72,-426.56 590.38,-417.95"/>
<polygon fill="black" stroke="black" points="593.83,-418.49 592.29,-408.01 586.96,-417.17 593.83,-418.49"/>
</g>
<!-- BB7 -->
<g id="node8" class="node">
<title>BB7</title>
<ellipse fill="none" stroke="black" cx="610.36" cy="-259.38" rx="105.22" ry="37.45"/>
<text text-anchor="middle" x="610.36" y="-270.68" font-family="Times New Roman,serif" font-size="14.00">[51..55)</text>
<text text-anchor="middle" x="610.36" y="-255.68" font-family="Times New Roman,serif" font-size="14.00">Normalized Count: 1.00</text>
<text text-anchor="middle" x="610.36" y="-240.68" font-family="Times New Roman,serif" font-size="14.00">Samples weight: 0.01</text>
</g>
<!-- BB9 -->
<g id="node10" class="node">
<title>BB9</title>
<ellipse fill="none" stroke="black" cx="635.36" cy="-148.43" rx="105.22" ry="37.45"/>
<text text-anchor="middle" x="635.36" y="-159.73" font-family="Times New Roman,serif" font-size="14.00">[86..8e)</text>
<text text-anchor="middle" x="635.36" y="-144.73" font-family="Times New Roman,serif" font-size="14.00">Normalized Count: 6.00</text>
<text text-anchor="middle" x="635.36" y="-129.73" font-family="Times New Roman,serif" font-size="14.00">Samples weight: 0.04</text>
</g>
<!-- BB7&#45;&gt;BB9 -->
<g id="edge10" class="edge">
<title>BB7&#45;&gt;BB9</title>
<path fill="none" stroke="black" d="M618.75,-221.8C620.65,-213.54 622.69,-204.65 624.66,-196.04"/>
<polygon fill="black" stroke="black" points="628.12,-196.63 626.94,-186.1 621.3,-195.07 628.12,-196.63"/>
</g>
<!-- BB8 -->
<g id="node9" class="node">
<title>BB8</title>
<ellipse fill="none" stroke="black" cx="661.36" cy="-37.48" rx="110.12" ry="37.45"/>
<text text-anchor="middle" x="661.36" y="-48.78" font-family="Times New Roman,serif" font-size="14.00">[55..86)</text>
<text text-anchor="middle" x="661.36" y="-33.78" font-family="Times New Roman,serif" font-size="14.00">Normalized Count: 26.00</text>
<text text-anchor="middle" x="661.36" y="-18.78" font-family="Times New Roman,serif" font-size="14.00">Samples weight: 0.18</text>
</g>
<!-- BB8&#45;&gt;BB9 -->
<g id="edge11" class="edge">
<title>BB8&#45;&gt;BB9</title>
<path fill="none" stroke="black" d="M659.06,-74.97C657.37,-83.44 655.28,-92.56 653.03,-101.37"/>
<polygon fill="black" stroke="black" points="649.62,-100.59 650.42,-111.15 656.38,-102.39 649.62,-100.59"/>
</g>
<!-- BB9&#45;&gt;BB8 -->
<g id="edge12" class="edge">
<title>BB9&#45;&gt;BB8</title>
<path fill="none" stroke="black" d="M637.67,-110.85C639.36,-102.4 641.44,-93.31 643.69,-84.52"/>
<polygon fill="black" stroke="black" points="647.1,-85.34 646.29,-74.78 640.33,-83.54 647.1,-85.34"/>
</g>
<!-- BB10 -->
<g id="node11" class="node">
<title>BB10</title>
<ellipse fill="none" stroke="black" cx="427.36" cy="-37.48" rx="105.22" ry="37.45"/>
<text text-anchor="middle" x="427.36" y="-48.78" font-family="Times New Roman,serif" font-size="14.00">[8e..92)</text>
<text text-anchor="middle" x="427.36" y="-33.78" font-family="Times New Roman,serif" font-size="14.00">Normalized Count: 1.00</text>
<text text-anchor="middle" x="427.36" y="-18.78" font-family="Times New Roman,serif" font-size="14.00">Samples weight: 0.01</text>
</g>
<!-- BB9&#45;&gt;BB10 -->
<g id="edge13" class="edge">
<title>BB9&#45;&gt;BB10</title>
<path fill="none" stroke="black" d="M577.42,-117.08C551.61,-103.56 521.05,-87.55 494.27,-73.53"/>
<polygon fill="black" stroke="black" points="495.83,-70.39 485.35,-68.85 492.58,-76.59 495.83,-70.39"/>
</g>
<!-- BB10&#45;&gt;BB11 -->
<g id="edge14" class="edge">
<title>BB10&#45;&gt;BB11</title>
<path fill="none" stroke="black" d="M429.35,-75.15C433.85,-128.43 448.53,-228.32 496.36,-296.86 506.09,-310.8 519.41,-322.96 533.24,-333.13"/>
<polygon fill="black" stroke="black" points="531.22,-335.99 541.42,-338.89 535.25,-330.27 531.22,-335.99"/>
</g>
<!-- BB11&#45;&gt;BB7 -->
<g id="edge15" class="edge">
<title>BB11&#45;&gt;BB7</title>
<path fill="none" stroke="black" d="M603.05,-332.75C603.88,-324.58 604.76,-315.8 605.62,-307.27"/>
<polygon fill="black" stroke="black" points="609.13,-307.36 606.66,-297.06 602.17,-306.65 609.13,-307.36"/>
</g>
<!-- BB12 -->
<g id="node13" class="node">
<title>BB12</title>
<ellipse fill="none" stroke="black" cx="839.36" cy="-259.38" rx="105.22" ry="37.45"/>
<text text-anchor="middle" x="839.36" y="-270.68" font-family="Times New Roman,serif" font-size="14.00">[9a..9b)</text>
<text text-anchor="middle" x="839.36" y="-255.68" font-family="Times New Roman,serif" font-size="14.00">Normalized Count: 0.00</text>
<text text-anchor="middle" x="839.36" y="-240.68" font-family="Times New Roman,serif" font-size="14.00">Samples weight: 0.00</text>
</g>
<!-- BB11&#45;&gt;BB12 -->
<g id="edge16" class="edge">
<title>BB11&#45;&gt;BB12</title>
<path fill="none" stroke="black" d="M663.04,-340.43C694.78,-326.02 733.31,-308.53 766.24,-293.58"/>
<polygon fill="black" stroke="black" points="767.72,-296.75 775.38,-289.43 764.82,-290.38 767.72,-296.75"/>
</g>
</g>
</svg>
