<?xml version="1.0" encoding="UTF-8" standalone="no"?>
<!DOCTYPE svg PUBLIC "-//W3C//DTD SVG 1.1//EN"
 "http://www.w3.org/Graphics/SVG/1.1/DTD/svg11.dtd">
<!-- Generated by graphviz version 2.47.0 (20210316.0004)
 -->
<!-- Title: G Pages: 1 -->
<svg width="793pt" height="633pt"
 viewBox="0.00 0.00 793.48 632.83" xmlns="http://www.w3.org/2000/svg" xmlns:xlink="http://www.w3.org/1999/xlink">
<g id="graph0" class="graph" transform="scale(1 1) rotate(0) translate(4 628.83)">
<title>G</title>
<polygon fill="white" stroke="transparent" points="-4,4 -4,-628.83 789.48,-628.83 789.48,4 -4,4"/>
<!-- BB0 -->
<g id="node1" class="node">
<title>BB0</title>
<ellipse fill="none" stroke="black" cx="551.24" cy="-576.75" rx="103.48" ry="48.17"/>
<text text-anchor="middle" x="551.24" y="-595.55" font-family="Times New Roman,serif" font-size="14.00">[0..18)</text>
<text text-anchor="middle" x="551.24" y="-580.55" font-family="Times New Roman,serif" font-size="14.00">Count: 194</text>
<text text-anchor="middle" x="551.24" y="-565.55" font-family="Times New Roman,serif" font-size="14.00">Normalized count: 1.00</text>
<text text-anchor="middle" x="551.24" y="-550.55" font-family="Times New Roman,serif" font-size="14.00">Samples weight: 0.03</text>
</g>
<!-- BB7 -->
<g id="node8" class="node">
<title>BB7</title>
<ellipse fill="none" stroke="black" cx="551.24" cy="-444.58" rx="103.48" ry="48.17"/>
<text text-anchor="middle" x="551.24" y="-463.38" font-family="Times New Roman,serif" font-size="14.00">[61..69)</text>
<text text-anchor="middle" x="551.24" y="-448.38" font-family="Times New Roman,serif" font-size="14.00">Count: 1448</text>
<text text-anchor="middle" x="551.24" y="-433.38" font-family="Times New Roman,serif" font-size="14.00">Normalized count: 7.46</text>
<text text-anchor="middle" x="551.24" y="-418.38" font-family="Times New Roman,serif" font-size="14.00">Samples weight: 0.23</text>
</g>
<!-- BB0&#45;&gt;BB7 -->
<g id="edge1" class="edge">
<title>BB0&#45;&gt;BB7</title>
<path fill="none" stroke="black" d="M551.24,-528.39C551.24,-520.12 551.24,-511.44 551.24,-502.93"/>
<polygon fill="black" stroke="black" points="554.74,-502.69 551.24,-492.69 547.74,-502.69 554.74,-502.69"/>
</g>
<!-- BB1 -->
<g id="node2" class="node">
<title>BB1</title>
<ellipse fill="none" stroke="black" cx="420.24" cy="-312.42" rx="103.48" ry="48.17"/>
<text text-anchor="middle" x="420.24" y="-331.22" font-family="Times New Roman,serif" font-size="14.00">[18..44)</text>
<text text-anchor="middle" x="420.24" y="-316.22" font-family="Times New Roman,serif" font-size="14.00">Count: 1254</text>
<text text-anchor="middle" x="420.24" y="-301.22" font-family="Times New Roman,serif" font-size="14.00">Normalized count: 6.46</text>
<text text-anchor="middle" x="420.24" y="-286.22" font-family="Times New Roman,serif" font-size="14.00">Samples weight: 0.20</text>
</g>
<!-- BB2 -->
<g id="node3" class="node">
<title>BB2</title>
<ellipse fill="none" stroke="black" cx="420.24" cy="-180.25" rx="103.48" ry="48.17"/>
<text text-anchor="middle" x="420.24" y="-199.05" font-family="Times New Roman,serif" font-size="14.00">[44..4e)</text>
<text text-anchor="middle" x="420.24" y="-184.05" font-family="Times New Roman,serif" font-size="14.00">Count: 785</text>
<text text-anchor="middle" x="420.24" y="-169.05" font-family="Times New Roman,serif" font-size="14.00">Normalized count: 4.05</text>
<text text-anchor="middle" x="420.24" y="-154.05" font-family="Times New Roman,serif" font-size="14.00">Samples weight: 0.13</text>
</g>
<!-- BB1&#45;&gt;BB2 -->
<g id="edge3" class="edge">
<title>BB1&#45;&gt;BB2</title>
<path fill="none" stroke="black" d="M420.24,-264.05C420.24,-255.79 420.24,-247.1 420.24,-238.6"/>
<polygon fill="black" stroke="black" points="423.74,-238.36 420.24,-228.36 416.74,-238.36 423.74,-238.36"/>
</g>
<!-- BB4 -->
<g id="node5" class="node">
<title>BB4</title>
<ellipse fill="none" stroke="black" cx="196.24" cy="-180.25" rx="103.48" ry="48.17"/>
<text text-anchor="middle" x="196.24" y="-199.05" font-family="Times New Roman,serif" font-size="14.00">[53..5b)</text>
<text text-anchor="middle" x="196.24" y="-184.05" font-family="Times New Roman,serif" font-size="14.00">Count: 469</text>
<text text-anchor="middle" x="196.24" y="-169.05" font-family="Times New Roman,serif" font-size="14.00">Normalized count: 2.42</text>
<text text-anchor="middle" x="196.24" y="-154.05" font-family="Times New Roman,serif" font-size="14.00">Samples weight: 0.08</text>
</g>
<!-- BB1&#45;&gt;BB4 -->
<g id="edge2" class="edge">
<title>BB1&#45;&gt;BB4</title>
<path fill="none" stroke="black" d="M356.65,-274.46C329.22,-258.52 296.99,-239.8 268.65,-223.33"/>
<polygon fill="black" stroke="black" points="270.39,-220.29 259.99,-218.29 266.87,-226.35 270.39,-220.29"/>
</g>
<!-- BB3 -->
<g id="node4" class="node">
<title>BB3</title>
<ellipse fill="none" stroke="black" cx="327.24" cy="-48.08" rx="103.48" ry="48.17"/>
<text text-anchor="middle" x="327.24" y="-66.88" font-family="Times New Roman,serif" font-size="14.00">[4e..53)</text>
<text text-anchor="middle" x="327.24" y="-51.88" font-family="Times New Roman,serif" font-size="14.00">Count: 442</text>
<text text-anchor="middle" x="327.24" y="-36.88" font-family="Times New Roman,serif" font-size="14.00">Normalized count: 2.28</text>
<text text-anchor="middle" x="327.24" y="-21.88" font-family="Times New Roman,serif" font-size="14.00">Samples weight: 0.07</text>
</g>
<!-- BB2&#45;&gt;BB3 -->
<g id="edge5" class="edge">
<title>BB2&#45;&gt;BB3</title>
<path fill="none" stroke="black" d="M388.23,-134.45C380.85,-124.12 372.93,-113.04 365.32,-102.39"/>
<polygon fill="black" stroke="black" points="367.96,-100.06 359.3,-93.96 362.27,-104.13 367.96,-100.06"/>
</g>
<!-- BB6 -->
<g id="node7" class="node">
<title>BB6</title>
<ellipse fill="none" stroke="black" cx="551.24" cy="-48.08" rx="103.48" ry="48.17"/>
<text text-anchor="middle" x="551.24" y="-66.88" font-family="Times New Roman,serif" font-size="14.00">[5d..61)</text>
<text text-anchor="middle" x="551.24" y="-51.88" font-family="Times New Roman,serif" font-size="14.00">Count: 1254</text>
<text text-anchor="middle" x="551.24" y="-36.88" font-family="Times New Roman,serif" font-size="14.00">Normalized count: 6.46</text>
<text text-anchor="middle" x="551.24" y="-21.88" font-family="Times New Roman,serif" font-size="14.00">Samples weight: 0.20</text>
</g>
<!-- BB2&#45;&gt;BB6 -->
<g id="edge4" class="edge">
<title>BB2&#45;&gt;BB6</title>
<path fill="none" stroke="black" d="M463.49,-136.27C475.46,-124.38 488.54,-111.38 500.87,-99.13"/>
<polygon fill="black" stroke="black" points="503.4,-101.55 508.03,-92.02 498.47,-96.59 503.4,-101.55"/>
</g>
<!-- BB3&#45;&gt;BB6 -->
<g id="edge6" class="edge">
<title>BB3&#45;&gt;BB6</title>
<path fill="none" stroke="black" d="M430.49,-48.08C432.94,-48.08 435.4,-48.08 437.85,-48.08"/>
<polygon fill="black" stroke="black" points="437.94,-51.58 447.94,-48.08 437.94,-44.58 437.94,-51.58"/>
</g>
<!-- BB5 -->
<g id="node6" class="node">
<title>BB5</title>
<ellipse fill="none" stroke="black" cx="103.24" cy="-48.08" rx="103.48" ry="48.17"/>
<text text-anchor="middle" x="103.24" y="-66.88" font-family="Times New Roman,serif" font-size="14.00">[5b..5d)</text>
<text text-anchor="middle" x="103.24" y="-51.88" font-family="Times New Roman,serif" font-size="14.00">Count: 139</text>
<text text-anchor="middle" x="103.24" y="-36.88" font-family="Times New Roman,serif" font-size="14.00">Normalized count: 0.72</text>
<text text-anchor="middle" x="103.24" y="-21.88" font-family="Times New Roman,serif" font-size="14.00">Samples weight: 0.02</text>
</g>
<!-- BB4&#45;&gt;BB5 -->
<g id="edge8" class="edge">
<title>BB4&#45;&gt;BB5</title>
<path fill="none" stroke="black" d="M164.23,-134.45C156.85,-124.12 148.93,-113.04 141.32,-102.39"/>
<polygon fill="black" stroke="black" points="143.96,-100.06 135.3,-93.96 138.27,-104.13 143.96,-100.06"/>
</g>
<!-- BB4&#45;&gt;BB6 -->
<g id="edge7" class="edge">
<title>BB4&#45;&gt;BB6</title>
<path fill="none" stroke="black" d="M270.12,-146.6C282.73,-141.49 295.78,-136.48 308.24,-132.17 365.3,-112.43 382.18,-115.91 439.24,-96.17 448.58,-92.93 458.26,-89.31 467.83,-85.54"/>
<polygon fill="black" stroke="black" points="469.37,-88.69 477.36,-81.73 466.77,-82.19 469.37,-88.69"/>
</g>
<!-- BB5&#45;&gt;BB6 -->
<g id="edge9" class="edge">
<title>BB5&#45;&gt;BB6</title>
<path fill="none" stroke="black" d="M162.01,-87.82C181.04,-98.54 202.79,-108.69 224.24,-114.17 312.95,-136.81 341.53,-136.81 430.24,-114.17 448.34,-109.55 466.65,-101.6 483.36,-92.79"/>
<polygon fill="black" stroke="black" points="485.36,-95.68 492.47,-87.82 482.01,-89.54 485.36,-95.68"/>
</g>
<!-- BB6&#45;&gt;BB7 -->
<g id="edge10" class="edge">
<title>BB6&#45;&gt;BB7</title>
<path fill="none" stroke="black" d="M551.24,-96.33C551.24,-168.98 551.24,-307.9 551.24,-386.22"/>
<polygon fill="black" stroke="black" points="547.74,-386.39 551.24,-396.39 554.74,-386.39 547.74,-386.39"/>
</g>
<!-- BB7&#45;&gt;BB1 -->
<g id="edge11" class="edge">
<title>BB7&#45;&gt;BB1</title>
<path fill="none" stroke="black" d="M507.98,-400.6C496.02,-388.72 482.93,-375.71 470.61,-363.46"/>
<polygon fill="black" stroke="black" points="473.01,-360.92 463.45,-356.35 468.08,-365.88 473.01,-360.92"/>
</g>
<!-- BB8 -->
<g id="node9" class="node">
<title>BB8</title>
<ellipse fill="none" stroke="black" cx="682.24" cy="-312.42" rx="103.48" ry="48.17"/>
<text text-anchor="middle" x="682.24" y="-331.22" font-family="Times New Roman,serif" font-size="14.00">[69..81)</text>
<text text-anchor="middle" x="682.24" y="-316.22" font-family="Times New Roman,serif" font-size="14.00">Count: 194</text>
<text text-anchor="middle" x="682.24" y="-301.22" font-family="Times New Roman,serif" font-size="14.00">Normalized count: 1.00</text>
<text text-anchor="middle" x="682.24" y="-286.22" font-family="Times New Roman,serif" font-size="14.00">Samples weight: 0.03</text>
</g>
<!-- BB7&#45;&gt;BB8 -->
<g id="edge12" class="edge">
<title>BB7&#45;&gt;BB8</title>
<path fill="none" stroke="black" d="M594.49,-400.6C606.46,-388.72 619.54,-375.71 631.87,-363.46"/>
<polygon fill="black" stroke="black" points="634.4,-365.88 639.03,-356.35 629.47,-360.92 634.4,-365.88"/>
</g>
</g>
</svg>
