<?xml version="1.0" encoding="UTF-8" standalone="no"?>
<!DOCTYPE svg PUBLIC "-//W3C//DTD SVG 1.1//EN"
 "http://www.w3.org/Graphics/SVG/1.1/DTD/svg11.dtd">
<!-- Generated by graphviz version 2.47.0 (20210316.0004)
 -->
<!-- Title: G Pages: 1 -->
<svg width="964pt" height="897pt"
 viewBox="0.00 0.00 964.48 897.17" xmlns="http://www.w3.org/2000/svg" xmlns:xlink="http://www.w3.org/1999/xlink">
<g id="graph0" class="graph" transform="scale(1 1) rotate(0) translate(4 893.17)">
<title>G</title>
<polygon fill="white" stroke="transparent" points="-4,4 -4,-893.17 960.48,-893.17 960.48,4 -4,4"/>
<!-- BB0 -->
<g id="node1" class="node">
<title>BB0</title>
<ellipse fill="none" stroke="black" cx="342.24" cy="-841.08" rx="103.48" ry="48.17"/>
<text text-anchor="middle" x="342.24" y="-859.88" font-family="Times New Roman,serif" font-size="14.00">[0..4)</text>
<text text-anchor="middle" x="342.24" y="-844.88" font-family="Times New Roman,serif" font-size="14.00">Count: 56</text>
<text text-anchor="middle" x="342.24" y="-829.88" font-family="Times New Roman,serif" font-size="14.00">Normalized count: 1.00</text>
<text text-anchor="middle" x="342.24" y="-814.88" font-family="Times New Roman,serif" font-size="14.00">Samples weight: 0.00</text>
</g>
<!-- BB5 -->
<g id="node6" class="node">
<title>BB5</title>
<ellipse fill="none" stroke="black" cx="342.24" cy="-708.92" rx="103.48" ry="48.17"/>
<text text-anchor="middle" x="342.24" y="-727.72" font-family="Times New Roman,serif" font-size="14.00">[45..4d)</text>
<text text-anchor="middle" x="342.24" y="-712.72" font-family="Times New Roman,serif" font-size="14.00">Count: 386</text>
<text text-anchor="middle" x="342.24" y="-697.72" font-family="Times New Roman,serif" font-size="14.00">Normalized count: 6.89</text>
<text text-anchor="middle" x="342.24" y="-682.72" font-family="Times New Roman,serif" font-size="14.00">Samples weight: 0.00</text>
</g>
<!-- BB0&#45;&gt;BB5 -->
<g id="edge1" class="edge">
<title>BB0&#45;&gt;BB5</title>
<path fill="none" stroke="black" d="M342.24,-792.72C342.24,-784.45 342.24,-775.77 342.24,-767.27"/>
<polygon fill="black" stroke="black" points="345.74,-767.02 342.24,-757.02 338.74,-767.02 345.74,-767.02"/>
</g>
<!-- BB1 -->
<g id="node2" class="node">
<title>BB1</title>
<ellipse fill="none" stroke="black" cx="342.24" cy="-576.75" rx="103.48" ry="48.17"/>
<text text-anchor="middle" x="342.24" y="-595.55" font-family="Times New Roman,serif" font-size="14.00">[4..8)</text>
<text text-anchor="middle" x="342.24" y="-580.55" font-family="Times New Roman,serif" font-size="14.00">Count: 442</text>
<text text-anchor="middle" x="342.24" y="-565.55" font-family="Times New Roman,serif" font-size="14.00">Normalized count: 7.89</text>
<text text-anchor="middle" x="342.24" y="-550.55" font-family="Times New Roman,serif" font-size="14.00">Samples weight: 0.00</text>
</g>
<!-- BB3 -->
<g id="node4" class="node">
<title>BB3</title>
<ellipse fill="none" stroke="black" cx="342.24" cy="-444.58" rx="113.27" ry="48.17"/>
<text text-anchor="middle" x="342.24" y="-463.38" font-family="Times New Roman,serif" font-size="14.00">[39..41)</text>
<text text-anchor="middle" x="342.24" y="-448.38" font-family="Times New Roman,serif" font-size="14.00">Count: 17638</text>
<text text-anchor="middle" x="342.24" y="-433.38" font-family="Times New Roman,serif" font-size="14.00">Normalized count: 314.96</text>
<text text-anchor="middle" x="342.24" y="-418.38" font-family="Times New Roman,serif" font-size="14.00">Samples weight: 0.17</text>
</g>
<!-- BB1&#45;&gt;BB3 -->
<g id="edge2" class="edge">
<title>BB1&#45;&gt;BB3</title>
<path fill="none" stroke="black" d="M342.24,-528.39C342.24,-520.12 342.24,-511.44 342.24,-502.93"/>
<polygon fill="black" stroke="black" points="345.74,-502.69 342.24,-492.69 338.74,-502.69 345.74,-502.69"/>
</g>
<!-- BB2 -->
<g id="node3" class="node">
<title>BB2</title>
<ellipse fill="none" stroke="black" cx="342.24" cy="-312.42" rx="118.17" ry="48.17"/>
<text text-anchor="middle" x="342.24" y="-331.22" font-family="Times New Roman,serif" font-size="14.00">[8..39)</text>
<text text-anchor="middle" x="342.24" y="-316.22" font-family="Times New Roman,serif" font-size="14.00">Count: 64000</text>
<text text-anchor="middle" x="342.24" y="-301.22" font-family="Times New Roman,serif" font-size="14.00">Normalized count: 1142.86</text>
<text text-anchor="middle" x="342.24" y="-286.22" font-family="Times New Roman,serif" font-size="14.00">Samples weight: 0.62</text>
</g>
<!-- BB2&#45;&gt;BB3 -->
<g id="edge3" class="edge">
<title>BB2&#45;&gt;BB3</title>
<path fill="none" stroke="black" d="M348.75,-360.52C348.97,-368.78 349.04,-377.46 348.95,-385.97"/>
<polygon fill="black" stroke="black" points="345.44,-386.16 348.76,-396.22 352.44,-386.29 345.44,-386.16"/>
</g>
<!-- BB3&#45;&gt;BB2 -->
<g id="edge4" class="edge">
<title>BB3&#45;&gt;BB2</title>
<path fill="none" stroke="black" d="M335.72,-396.22C335.5,-387.95 335.44,-379.27 335.53,-370.77"/>
<polygon fill="black" stroke="black" points="339.03,-370.59 335.72,-360.52 332.04,-370.46 339.03,-370.59"/>
</g>
<!-- BB4 -->
<g id="node5" class="node">
<title>BB4</title>
<ellipse fill="none" stroke="black" cx="103.24" cy="-312.42" rx="103.48" ry="48.17"/>
<text text-anchor="middle" x="103.24" y="-331.22" font-family="Times New Roman,serif" font-size="14.00">[41..45)</text>
<text text-anchor="middle" x="103.24" y="-316.22" font-family="Times New Roman,serif" font-size="14.00">Count: 324</text>
<text text-anchor="middle" x="103.24" y="-301.22" font-family="Times New Roman,serif" font-size="14.00">Normalized count: 5.79</text>
<text text-anchor="middle" x="103.24" y="-286.22" font-family="Times New Roman,serif" font-size="14.00">Samples weight: 0.00</text>
</g>
<!-- BB3&#45;&gt;BB4 -->
<g id="edge5" class="edge">
<title>BB3&#45;&gt;BB4</title>
<path fill="none" stroke="black" d="M273.75,-406.28C244,-390.08 209.05,-371.04 178.56,-354.44"/>
<polygon fill="black" stroke="black" points="180.13,-351.31 169.67,-349.6 176.78,-357.46 180.13,-351.31"/>
</g>
<!-- BB4&#45;&gt;BB5 -->
<g id="edge6" class="edge">
<title>BB4&#45;&gt;BB5</title>
<path fill="none" stroke="black" d="M113.89,-360.48C130.32,-425.24 166.79,-543.07 230.24,-624.83 241.63,-639.52 256.27,-652.87 271.17,-664.36"/>
<polygon fill="black" stroke="black" points="269.36,-667.38 279.46,-670.56 273.55,-661.77 269.36,-667.38"/>
</g>
<!-- BB5&#45;&gt;BB1 -->
<g id="edge7" class="edge">
<title>BB5&#45;&gt;BB1</title>
<path fill="none" stroke="black" d="M342.24,-660.55C342.24,-652.29 342.24,-643.6 342.24,-635.1"/>
<polygon fill="black" stroke="black" points="345.74,-634.86 342.24,-624.86 338.74,-634.86 345.74,-634.86"/>
</g>
<!-- BB6 -->
<g id="node7" class="node">
<title>BB6</title>
<ellipse fill="none" stroke="black" cx="584.24" cy="-576.75" rx="103.48" ry="48.17"/>
<text text-anchor="middle" x="584.24" y="-595.55" font-family="Times New Roman,serif" font-size="14.00">[4d..51)</text>
<text text-anchor="middle" x="584.24" y="-580.55" font-family="Times New Roman,serif" font-size="14.00">Count: 33</text>
<text text-anchor="middle" x="584.24" y="-565.55" font-family="Times New Roman,serif" font-size="14.00">Normalized count: 0.59</text>
<text text-anchor="middle" x="584.24" y="-550.55" font-family="Times New Roman,serif" font-size="14.00">Samples weight: 0.00</text>
</g>
<!-- BB5&#45;&gt;BB6 -->
<g id="edge8" class="edge">
<title>BB5&#45;&gt;BB6</title>
<path fill="none" stroke="black" d="M409.01,-672C439.95,-655.36 476.87,-635.5 508.82,-618.32"/>
<polygon fill="black" stroke="black" points="510.54,-621.36 517.69,-613.55 507.22,-615.2 510.54,-621.36"/>
</g>
<!-- BB11 -->
<g id="node12" class="node">
<title>BB11</title>
<ellipse fill="none" stroke="black" cx="602.24" cy="-444.58" rx="108.38" ry="48.17"/>
<text text-anchor="middle" x="602.24" y="-463.38" font-family="Times New Roman,serif" font-size="14.00">[92..9a)</text>
<text text-anchor="middle" x="602.24" y="-448.38" font-family="Times New Roman,serif" font-size="14.00">Count: 560</text>
<text text-anchor="middle" x="602.24" y="-433.38" font-family="Times New Roman,serif" font-size="14.00">Normalized count: 10.00</text>
<text text-anchor="middle" x="602.24" y="-418.38" font-family="Times New Roman,serif" font-size="14.00">Samples weight: 0.01</text>
</g>
<!-- BB6&#45;&gt;BB11 -->
<g id="edge9" class="edge">
<title>BB6&#45;&gt;BB11</title>
<path fill="none" stroke="black" d="M590.74,-528.76C591.89,-520.38 593.11,-511.57 594.3,-502.95"/>
<polygon fill="black" stroke="black" points="597.79,-503.33 595.69,-492.94 590.85,-502.37 597.79,-503.33"/>
</g>
<!-- BB7 -->
<g id="node8" class="node">
<title>BB7</title>
<ellipse fill="none" stroke="black" cx="624.24" cy="-312.42" rx="108.38" ry="48.17"/>
<text text-anchor="middle" x="624.24" y="-331.22" font-family="Times New Roman,serif" font-size="14.00">[51..55)</text>
<text text-anchor="middle" x="624.24" y="-316.22" font-family="Times New Roman,serif" font-size="14.00">Count: 579</text>
<text text-anchor="middle" x="624.24" y="-301.22" font-family="Times New Roman,serif" font-size="14.00">Normalized count: 10.34</text>
<text text-anchor="middle" x="624.24" y="-286.22" font-family="Times New Roman,serif" font-size="14.00">Samples weight: 0.01</text>
</g>
<!-- BB9 -->
<g id="node10" class="node">
<title>BB9</title>
<ellipse fill="none" stroke="black" cx="673.24" cy="-180.25" rx="108.38" ry="48.17"/>
<text text-anchor="middle" x="673.24" y="-199.05" font-family="Times New Roman,serif" font-size="14.00">[86..8e)</text>
<text text-anchor="middle" x="673.24" y="-184.05" font-family="Times New Roman,serif" font-size="14.00">Count: 4433</text>
<text text-anchor="middle" x="673.24" y="-169.05" font-family="Times New Roman,serif" font-size="14.00">Normalized count: 79.16</text>
<text text-anchor="middle" x="673.24" y="-154.05" font-family="Times New Roman,serif" font-size="14.00">Samples weight: 0.04</text>
</g>
<!-- BB7&#45;&gt;BB9 -->
<g id="edge10" class="edge">
<title>BB7&#45;&gt;BB9</title>
<path fill="none" stroke="black" d="M641.79,-264.79C645.13,-255.91 648.66,-246.53 652.1,-237.39"/>
<polygon fill="black" stroke="black" points="655.4,-238.58 655.64,-227.99 648.85,-236.11 655.4,-238.58"/>
</g>
<!-- BB8 -->
<g id="node9" class="node">
<title>BB8</title>
<ellipse fill="none" stroke="black" cx="698.24" cy="-48.08" rx="113.27" ry="48.17"/>
<text text-anchor="middle" x="698.24" y="-66.88" font-family="Times New Roman,serif" font-size="14.00">[55..86)</text>
<text text-anchor="middle" x="698.24" y="-51.88" font-family="Times New Roman,serif" font-size="14.00">Count: 14610</text>
<text text-anchor="middle" x="698.24" y="-36.88" font-family="Times New Roman,serif" font-size="14.00">Normalized count: 260.89</text>
<text text-anchor="middle" x="698.24" y="-21.88" font-family="Times New Roman,serif" font-size="14.00">Samples weight: 0.14</text>
</g>
<!-- BB8&#45;&gt;BB9 -->
<g id="edge11" class="edge">
<title>BB8&#45;&gt;BB9</title>
<path fill="none" stroke="black" d="M695.69,-96.26C694.27,-104.86 692.59,-113.92 690.78,-122.77"/>
<polygon fill="black" stroke="black" points="687.34,-122.12 688.7,-132.62 694.19,-123.57 687.34,-122.12"/>
</g>
<!-- BB9&#45;&gt;BB8 -->
<g id="edge12" class="edge">
<title>BB9&#45;&gt;BB8</title>
<path fill="none" stroke="black" d="M675.81,-131.89C677.23,-123.33 678.9,-114.33 680.7,-105.55"/>
<polygon fill="black" stroke="black" points="684.12,-106.26 682.77,-95.76 677.27,-104.81 684.12,-106.26"/>
</g>
<!-- BB10 -->
<g id="node11" class="node">
<title>BB10</title>
<ellipse fill="none" stroke="black" cx="464.24" cy="-48.08" rx="103.48" ry="48.17"/>
<text text-anchor="middle" x="464.24" y="-66.88" font-family="Times New Roman,serif" font-size="14.00">[8e..92)</text>
<text text-anchor="middle" x="464.24" y="-51.88" font-family="Times New Roman,serif" font-size="14.00">Count: 527</text>
<text text-anchor="middle" x="464.24" y="-36.88" font-family="Times New Roman,serif" font-size="14.00">Normalized count: 9.41</text>
<text text-anchor="middle" x="464.24" y="-21.88" font-family="Times New Roman,serif" font-size="14.00">Samples weight: 0.01</text>
</g>
<!-- BB9&#45;&gt;BB10 -->
<g id="edge13" class="edge">
<title>BB9&#45;&gt;BB10</title>
<path fill="none" stroke="black" d="M611.38,-140.72C587.04,-125.57 558.99,-108.09 533.94,-92.49"/>
<polygon fill="black" stroke="black" points="535.56,-89.38 525.22,-87.06 531.85,-95.32 535.56,-89.38"/>
</g>
<!-- BB10&#45;&gt;BB11 -->
<g id="edge14" class="edge">
<title>BB10&#45;&gt;BB11</title>
<path fill="none" stroke="black" d="M460.86,-96.27C458.4,-160.14 461.57,-275.84 507.24,-360.5 514.49,-373.95 524.84,-386.23 536.06,-396.99"/>
<polygon fill="black" stroke="black" points="533.8,-399.66 543.54,-403.84 538.53,-394.5 533.8,-399.66"/>
</g>
<!-- BB11&#45;&gt;BB7 -->
<g id="edge15" class="edge">
<title>BB11&#45;&gt;BB7</title>
<path fill="none" stroke="black" d="M610.18,-396.59C611.6,-388.22 613.08,-379.41 614.54,-370.78"/>
<polygon fill="black" stroke="black" points="618.02,-371.22 616.23,-360.78 611.12,-370.05 618.02,-371.22"/>
</g>
<!-- BB12 -->
<g id="node13" class="node">
<title>BB12</title>
<ellipse fill="none" stroke="black" cx="853.24" cy="-312.42" rx="103.48" ry="48.17"/>
<text text-anchor="middle" x="853.24" y="-331.22" font-family="Times New Roman,serif" font-size="14.00">[9a..9b)</text>
<text text-anchor="middle" x="853.24" y="-316.22" font-family="Times New Roman,serif" font-size="14.00">Count: 36</text>
<text text-anchor="middle" x="853.24" y="-301.22" font-family="Times New Roman,serif" font-size="14.00">Normalized count: 0.64</text>
<text text-anchor="middle" x="853.24" y="-286.22" font-family="Times New Roman,serif" font-size="14.00">Samples weight: 0.00</text>
</g>
<!-- BB11&#45;&gt;BB12 -->
<g id="edge16" class="edge">
<title>BB11&#45;&gt;BB12</title>
<path fill="none" stroke="black" d="M671.82,-407.5C704.18,-390.72 742.77,-370.7 776.03,-353.46"/>
<polygon fill="black" stroke="black" points="777.99,-356.38 785.25,-348.67 774.77,-350.17 777.99,-356.38"/>
</g>
</g>
</svg>
