<?xml version="1.0" encoding="UTF-8" standalone="no"?>
<!DOCTYPE svg PUBLIC "-//W3C//DTD SVG 1.1//EN"
 "http://www.w3.org/Graphics/SVG/1.1/DTD/svg11.dtd">
<!-- Generated by graphviz version 2.47.0 (20210316.0004)
 -->
<!-- Title: G Pages: 1 -->
<svg width="944pt" height="897pt"
 viewBox="0.00 0.00 944.48 897.17" xmlns="http://www.w3.org/2000/svg" xmlns:xlink="http://www.w3.org/1999/xlink">
<g id="graph0" class="graph" transform="scale(1 1) rotate(0) translate(4 893.17)">
<title>G</title>
<polygon fill="white" stroke="transparent" points="-4,4 -4,-893.17 940.48,-893.17 940.48,4 -4,4"/>
<!-- BB0 -->
<g id="node1" class="node">
<title>BB0</title>
<ellipse fill="none" stroke="black" cx="337.24" cy="-841.08" rx="103.48" ry="48.17"/>
<text text-anchor="middle" x="337.24" y="-859.88" font-family="Times New Roman,serif" font-size="14.00">[0..4)</text>
<text text-anchor="middle" x="337.24" y="-844.88" font-family="Times New Roman,serif" font-size="14.00">Count: 322</text>
<text text-anchor="middle" x="337.24" y="-829.88" font-family="Times New Roman,serif" font-size="14.00">Normalized count: 1.00</text>
<text text-anchor="middle" x="337.24" y="-814.88" font-family="Times New Roman,serif" font-size="14.00">Samples weight: 0.00</text>
</g>
<!-- BB5 -->
<g id="node6" class="node">
<title>BB5</title>
<ellipse fill="none" stroke="black" cx="337.24" cy="-708.92" rx="108.38" ry="48.17"/>
<text text-anchor="middle" x="337.24" y="-727.72" font-family="Times New Roman,serif" font-size="14.00">[3c..44)</text>
<text text-anchor="middle" x="337.24" y="-712.72" font-family="Times New Roman,serif" font-size="14.00">Count: 3407</text>
<text text-anchor="middle" x="337.24" y="-697.72" font-family="Times New Roman,serif" font-size="14.00">Normalized count: 10.58</text>
<text text-anchor="middle" x="337.24" y="-682.72" font-family="Times New Roman,serif" font-size="14.00">Samples weight: 0.01</text>
</g>
<!-- BB0&#45;&gt;BB5 -->
<g id="edge1" class="edge">
<title>BB0&#45;&gt;BB5</title>
<path fill="none" stroke="black" d="M337.24,-792.72C337.24,-784.45 337.24,-775.77 337.24,-767.27"/>
<polygon fill="black" stroke="black" points="340.74,-767.02 337.24,-757.02 333.74,-767.02 340.74,-767.02"/>
</g>
<!-- BB1 -->
<g id="node2" class="node">
<title>BB1</title>
<ellipse fill="none" stroke="black" cx="337.24" cy="-576.75" rx="103.48" ry="48.17"/>
<text text-anchor="middle" x="337.24" y="-595.55" font-family="Times New Roman,serif" font-size="14.00">[4..8)</text>
<text text-anchor="middle" x="337.24" y="-580.55" font-family="Times New Roman,serif" font-size="14.00">Count: 3085</text>
<text text-anchor="middle" x="337.24" y="-565.55" font-family="Times New Roman,serif" font-size="14.00">Normalized count: 9.58</text>
<text text-anchor="middle" x="337.24" y="-550.55" font-family="Times New Roman,serif" font-size="14.00">Samples weight: 0.01</text>
</g>
<!-- BB3 -->
<g id="node4" class="node">
<title>BB3</title>
<ellipse fill="none" stroke="black" cx="337.24" cy="-444.58" rx="113.27" ry="48.17"/>
<text text-anchor="middle" x="337.24" y="-463.38" font-family="Times New Roman,serif" font-size="14.00">[30..38)</text>
<text text-anchor="middle" x="337.24" y="-448.38" font-family="Times New Roman,serif" font-size="14.00">Count: 105068</text>
<text text-anchor="middle" x="337.24" y="-433.38" font-family="Times New Roman,serif" font-size="14.00">Normalized count: 326.30</text>
<text text-anchor="middle" x="337.24" y="-418.38" font-family="Times New Roman,serif" font-size="14.00">Samples weight: 0.39</text>
</g>
<!-- BB1&#45;&gt;BB3 -->
<g id="edge2" class="edge">
<title>BB1&#45;&gt;BB3</title>
<path fill="none" stroke="black" d="M337.24,-528.39C337.24,-520.12 337.24,-511.44 337.24,-502.93"/>
<polygon fill="black" stroke="black" points="340.74,-502.69 337.24,-492.69 333.74,-502.69 340.74,-502.69"/>
</g>
<!-- BB2 -->
<g id="node3" class="node">
<title>BB2</title>
<ellipse fill="none" stroke="black" cx="337.24" cy="-312.42" rx="113.27" ry="48.17"/>
<text text-anchor="middle" x="337.24" y="-331.22" font-family="Times New Roman,serif" font-size="14.00">[8..30)</text>
<text text-anchor="middle" x="337.24" y="-316.22" font-family="Times New Roman,serif" font-size="14.00">Count: 101983</text>
<text text-anchor="middle" x="337.24" y="-301.22" font-family="Times New Roman,serif" font-size="14.00">Normalized count: 316.72</text>
<text text-anchor="middle" x="337.24" y="-286.22" font-family="Times New Roman,serif" font-size="14.00">Samples weight: 0.38</text>
</g>
<!-- BB2&#45;&gt;BB3 -->
<g id="edge3" class="edge">
<title>BB2&#45;&gt;BB3</title>
<path fill="none" stroke="black" d="M343.75,-360.52C343.97,-368.78 344.04,-377.46 343.95,-385.97"/>
<polygon fill="black" stroke="black" points="340.44,-386.16 343.76,-396.22 347.44,-386.29 340.44,-386.16"/>
</g>
<!-- BB3&#45;&gt;BB2 -->
<g id="edge4" class="edge">
<title>BB3&#45;&gt;BB2</title>
<path fill="none" stroke="black" d="M330.72,-396.22C330.5,-387.95 330.44,-379.27 330.53,-370.77"/>
<polygon fill="black" stroke="black" points="334.03,-370.59 330.72,-360.52 327.04,-370.46 334.03,-370.59"/>
</g>
<!-- BB4 -->
<g id="node5" class="node">
<title>BB4</title>
<ellipse fill="none" stroke="black" cx="103.24" cy="-312.42" rx="103.48" ry="48.17"/>
<text text-anchor="middle" x="103.24" y="-331.22" font-family="Times New Roman,serif" font-size="14.00">[38..3c)</text>
<text text-anchor="middle" x="103.24" y="-316.22" font-family="Times New Roman,serif" font-size="14.00">Count: 3085</text>
<text text-anchor="middle" x="103.24" y="-301.22" font-family="Times New Roman,serif" font-size="14.00">Normalized count: 9.58</text>
<text text-anchor="middle" x="103.24" y="-286.22" font-family="Times New Roman,serif" font-size="14.00">Samples weight: 0.01</text>
</g>
<!-- BB3&#45;&gt;BB4 -->
<g id="edge5" class="edge">
<title>BB3&#45;&gt;BB4</title>
<path fill="none" stroke="black" d="M269.56,-405.93C240.81,-389.94 207.2,-371.25 177.75,-354.86"/>
<polygon fill="black" stroke="black" points="179.19,-351.66 168.75,-349.86 175.79,-357.78 179.19,-351.66"/>
</g>
<!-- BB4&#45;&gt;BB5 -->
<g id="edge6" class="edge">
<title>BB4&#45;&gt;BB5</title>
<path fill="none" stroke="black" d="M113.02,-360.49C128.28,-425.25 162.71,-543.08 225.24,-624.83 236.35,-639.35 250.65,-652.54 265.29,-663.91"/>
<polygon fill="black" stroke="black" points="263.34,-666.83 273.44,-670.04 267.55,-661.23 263.34,-666.83"/>
</g>
<!-- BB5&#45;&gt;BB1 -->
<g id="edge7" class="edge">
<title>BB5&#45;&gt;BB1</title>
<path fill="none" stroke="black" d="M337.24,-660.55C337.24,-652.29 337.24,-643.6 337.24,-635.1"/>
<polygon fill="black" stroke="black" points="340.74,-634.86 337.24,-624.86 333.74,-634.86 340.74,-634.86"/>
</g>
<!-- BB6 -->
<g id="node7" class="node">
<title>BB6</title>
<ellipse fill="none" stroke="black" cx="575.24" cy="-576.75" rx="103.48" ry="48.17"/>
<text text-anchor="middle" x="575.24" y="-595.55" font-family="Times New Roman,serif" font-size="14.00">[44..48)</text>
<text text-anchor="middle" x="575.24" y="-580.55" font-family="Times New Roman,serif" font-size="14.00">Count: 322</text>
<text text-anchor="middle" x="575.24" y="-565.55" font-family="Times New Roman,serif" font-size="14.00">Normalized count: 1.00</text>
<text text-anchor="middle" x="575.24" y="-550.55" font-family="Times New Roman,serif" font-size="14.00">Samples weight: 0.00</text>
</g>
<!-- BB5&#45;&gt;BB6 -->
<g id="edge8" class="edge">
<title>BB5&#45;&gt;BB6</title>
<path fill="none" stroke="black" d="M404.48,-671.14C434.26,-654.85 469.41,-635.63 500.05,-618.87"/>
<polygon fill="black" stroke="black" points="501.89,-621.86 508.98,-613.99 498.53,-615.71 501.89,-621.86"/>
</g>
<!-- BB11 -->
<g id="node12" class="node">
<title>BB11</title>
<ellipse fill="none" stroke="black" cx="590.24" cy="-444.58" rx="103.48" ry="48.17"/>
<text text-anchor="middle" x="590.24" y="-463.38" font-family="Times New Roman,serif" font-size="14.00">[80..88)</text>
<text text-anchor="middle" x="590.24" y="-448.38" font-family="Times New Roman,serif" font-size="14.00">Count: 2930</text>
<text text-anchor="middle" x="590.24" y="-433.38" font-family="Times New Roman,serif" font-size="14.00">Normalized count: 9.10</text>
<text text-anchor="middle" x="590.24" y="-418.38" font-family="Times New Roman,serif" font-size="14.00">Samples weight: 0.01</text>
</g>
<!-- BB6&#45;&gt;BB11 -->
<g id="edge9" class="edge">
<title>BB6&#45;&gt;BB11</title>
<path fill="none" stroke="black" d="M580.7,-528.39C581.66,-520.03 582.67,-511.25 583.66,-502.65"/>
<polygon fill="black" stroke="black" points="587.14,-503.03 584.81,-492.69 580.19,-502.22 587.14,-503.03"/>
</g>
<!-- BB7 -->
<g id="node8" class="node">
<title>BB7</title>
<ellipse fill="none" stroke="black" cx="609.24" cy="-312.42" rx="103.48" ry="48.17"/>
<text text-anchor="middle" x="609.24" y="-331.22" font-family="Times New Roman,serif" font-size="14.00">[48..4c)</text>
<text text-anchor="middle" x="609.24" y="-316.22" font-family="Times New Roman,serif" font-size="14.00">Count: 2608</text>
<text text-anchor="middle" x="609.24" y="-301.22" font-family="Times New Roman,serif" font-size="14.00">Normalized count: 8.10</text>
<text text-anchor="middle" x="609.24" y="-286.22" font-family="Times New Roman,serif" font-size="14.00">Samples weight: 0.01</text>
</g>
<!-- BB9 -->
<g id="node10" class="node">
<title>BB9</title>
<ellipse fill="none" stroke="black" cx="660.24" cy="-180.25" rx="108.38" ry="48.17"/>
<text text-anchor="middle" x="660.24" y="-199.05" font-family="Times New Roman,serif" font-size="14.00">[74..7c)</text>
<text text-anchor="middle" x="660.24" y="-184.05" font-family="Times New Roman,serif" font-size="14.00">Count: 21740</text>
<text text-anchor="middle" x="660.24" y="-169.05" font-family="Times New Roman,serif" font-size="14.00">Normalized count: 67.52</text>
<text text-anchor="middle" x="660.24" y="-154.05" font-family="Times New Roman,serif" font-size="14.00">Samples weight: 0.08</text>
</g>
<!-- BB7&#45;&gt;BB9 -->
<g id="edge10" class="edge">
<title>BB7&#45;&gt;BB9</title>
<path fill="none" stroke="black" d="M627.51,-264.79C630.98,-255.91 634.66,-246.53 638.24,-237.39"/>
<polygon fill="black" stroke="black" points="641.54,-238.57 641.93,-227.99 635.02,-236.02 641.54,-238.57"/>
</g>
<!-- BB8 -->
<g id="node9" class="node">
<title>BB8</title>
<ellipse fill="none" stroke="black" cx="684.24" cy="-48.08" rx="108.38" ry="48.17"/>
<text text-anchor="middle" x="684.24" y="-66.88" font-family="Times New Roman,serif" font-size="14.00">[4c..74)</text>
<text text-anchor="middle" x="684.24" y="-51.88" font-family="Times New Roman,serif" font-size="14.00">Count: 19132</text>
<text text-anchor="middle" x="684.24" y="-36.88" font-family="Times New Roman,serif" font-size="14.00">Normalized count: 59.42</text>
<text text-anchor="middle" x="684.24" y="-21.88" font-family="Times New Roman,serif" font-size="14.00">Samples weight: 0.07</text>
</g>
<!-- BB8&#45;&gt;BB9 -->
<g id="edge11" class="edge">
<title>BB8&#45;&gt;BB9</title>
<path fill="none" stroke="black" d="M682.06,-96.26C680.7,-104.86 679.09,-113.92 677.35,-122.77"/>
<polygon fill="black" stroke="black" points="673.91,-122.13 675.34,-132.62 680.77,-123.53 673.91,-122.13"/>
</g>
<!-- BB9&#45;&gt;BB8 -->
<g id="edge12" class="edge">
<title>BB9&#45;&gt;BB8</title>
<path fill="none" stroke="black" d="M662.45,-131.89C663.79,-123.42 665.37,-114.53 667.07,-105.83"/>
<polygon fill="black" stroke="black" points="670.56,-106.25 669.13,-95.76 663.7,-104.86 670.56,-106.25"/>
</g>
<!-- BB10 -->
<g id="node11" class="node">
<title>BB10</title>
<ellipse fill="none" stroke="black" cx="455.24" cy="-48.08" rx="103.48" ry="48.17"/>
<text text-anchor="middle" x="455.24" y="-66.88" font-family="Times New Roman,serif" font-size="14.00">[7c..80)</text>
<text text-anchor="middle" x="455.24" y="-51.88" font-family="Times New Roman,serif" font-size="14.00">Count: 2608</text>
<text text-anchor="middle" x="455.24" y="-36.88" font-family="Times New Roman,serif" font-size="14.00">Normalized count: 8.10</text>
<text text-anchor="middle" x="455.24" y="-21.88" font-family="Times New Roman,serif" font-size="14.00">Samples weight: 0.01</text>
</g>
<!-- BB9&#45;&gt;BB10 -->
<g id="edge13" class="edge">
<title>BB9&#45;&gt;BB10</title>
<path fill="none" stroke="black" d="M599.01,-140.37C575.37,-125.36 548.21,-108.12 523.91,-92.69"/>
<polygon fill="black" stroke="black" points="525.76,-89.72 515.45,-87.31 522.01,-95.63 525.76,-89.72"/>
</g>
<!-- BB10&#45;&gt;BB11 -->
<g id="edge14" class="edge">
<title>BB10&#45;&gt;BB11</title>
<path fill="none" stroke="black" d="M451.8,-96.19C449.25,-159.97 452.17,-275.56 497.24,-360.5 504.4,-373.99 514.67,-386.36 525.8,-397.19"/>
<polygon fill="black" stroke="black" points="523.51,-399.84 533.22,-404.09 528.28,-394.71 523.51,-399.84"/>
</g>
<!-- BB11&#45;&gt;BB7 -->
<g id="edge15" class="edge">
<title>BB11&#45;&gt;BB7</title>
<path fill="none" stroke="black" d="M597.1,-396.59C598.32,-388.22 599.61,-379.41 600.86,-370.78"/>
<polygon fill="black" stroke="black" points="604.34,-371.18 602.32,-360.78 597.42,-370.17 604.34,-371.18"/>
</g>
<!-- BB12 -->
<g id="node13" class="node">
<title>BB12</title>
<ellipse fill="none" stroke="black" cx="833.24" cy="-312.42" rx="103.48" ry="48.17"/>
<text text-anchor="middle" x="833.24" y="-331.22" font-family="Times New Roman,serif" font-size="14.00">[88..89)</text>
<text text-anchor="middle" x="833.24" y="-316.22" font-family="Times New Roman,serif" font-size="14.00">Count: 322</text>
<text text-anchor="middle" x="833.24" y="-301.22" font-family="Times New Roman,serif" font-size="14.00">Normalized count: 1.00</text>
<text text-anchor="middle" x="833.24" y="-286.22" font-family="Times New Roman,serif" font-size="14.00">Samples weight: 0.00</text>
</g>
<!-- BB11&#45;&gt;BB12 -->
<g id="edge16" class="edge">
<title>BB11&#45;&gt;BB12</title>
<path fill="none" stroke="black" d="M656.96,-407.84C688.04,-391.19 725.17,-371.31 757.32,-354.08"/>
<polygon fill="black" stroke="black" points="759.08,-357.11 766.24,-349.3 755.77,-350.94 759.08,-357.11"/>
</g>
</g>
</svg>
