<?xml version="1.0" encoding="UTF-8" standalone="no"?>
<!DOCTYPE svg PUBLIC "-//W3C//DTD SVG 1.1//EN"
 "http://www.w3.org/Graphics/SVG/1.1/DTD/svg11.dtd">
<!-- Generated by graphviz version 2.47.0 (20210316.0004)
 -->
<!-- Title: G Pages: 1 -->
<svg width="618pt" height="633pt"
 viewBox="0.00 0.00 618.48 632.83" xmlns="http://www.w3.org/2000/svg" xmlns:xlink="http://www.w3.org/1999/xlink">
<g id="graph0" class="graph" transform="scale(1 1) rotate(0) translate(4 628.83)">
<title>G</title>
<polygon fill="white" stroke="transparent" points="-4,4 -4,-628.83 614.48,-628.83 614.48,4 -4,4"/>
<!-- BB0 -->
<g id="node1" class="node">
<title>BB0</title>
<ellipse fill="none" stroke="black" cx="283.24" cy="-576.75" rx="103.48" ry="48.17"/>
<text text-anchor="middle" x="283.24" y="-595.55" font-family="Times New Roman,serif" font-size="14.00">[0..11)</text>
<text text-anchor="middle" x="283.24" y="-580.55" font-family="Times New Roman,serif" font-size="14.00">Count: 65</text>
<text text-anchor="middle" x="283.24" y="-565.55" font-family="Times New Roman,serif" font-size="14.00">Normalized count: 1.00</text>
<text text-anchor="middle" x="283.24" y="-550.55" font-family="Times New Roman,serif" font-size="14.00">Samples weight: 0.00</text>
</g>
<!-- BB5 -->
<g id="node6" class="node">
<title>BB5</title>
<ellipse fill="none" stroke="black" cx="283.24" cy="-444.58" rx="103.48" ry="48.17"/>
<text text-anchor="middle" x="283.24" y="-463.38" font-family="Times New Roman,serif" font-size="14.00">[6b..73)</text>
<text text-anchor="middle" x="283.24" y="-448.38" font-family="Times New Roman,serif" font-size="14.00">Count: 593</text>
<text text-anchor="middle" x="283.24" y="-433.38" font-family="Times New Roman,serif" font-size="14.00">Normalized count: 9.12</text>
<text text-anchor="middle" x="283.24" y="-418.38" font-family="Times New Roman,serif" font-size="14.00">Samples weight: 0.04</text>
</g>
<!-- BB0&#45;&gt;BB5 -->
<g id="edge1" class="edge">
<title>BB0&#45;&gt;BB5</title>
<path fill="none" stroke="black" d="M283.24,-528.39C283.24,-520.12 283.24,-511.44 283.24,-502.93"/>
<polygon fill="black" stroke="black" points="286.74,-502.69 283.24,-492.69 279.74,-502.69 286.74,-502.69"/>
</g>
<!-- BB1 -->
<g id="node2" class="node">
<title>BB1</title>
<ellipse fill="none" stroke="black" cx="283.24" cy="-312.42" rx="103.48" ry="48.17"/>
<text text-anchor="middle" x="283.24" y="-331.22" font-family="Times New Roman,serif" font-size="14.00">[11..15)</text>
<text text-anchor="middle" x="283.24" y="-316.22" font-family="Times New Roman,serif" font-size="14.00">Count: 528</text>
<text text-anchor="middle" x="283.24" y="-301.22" font-family="Times New Roman,serif" font-size="14.00">Normalized count: 8.12</text>
<text text-anchor="middle" x="283.24" y="-286.22" font-family="Times New Roman,serif" font-size="14.00">Samples weight: 0.04</text>
</g>
<!-- BB3 -->
<g id="node4" class="node">
<title>BB3</title>
<ellipse fill="none" stroke="black" cx="310.24" cy="-180.25" rx="113.27" ry="48.17"/>
<text text-anchor="middle" x="310.24" y="-199.05" font-family="Times New Roman,serif" font-size="14.00">[5f..67)</text>
<text text-anchor="middle" x="310.24" y="-184.05" font-family="Times New Roman,serif" font-size="14.00">Count: 6673</text>
<text text-anchor="middle" x="310.24" y="-169.05" font-family="Times New Roman,serif" font-size="14.00">Normalized count: 102.66</text>
<text text-anchor="middle" x="310.24" y="-154.05" font-family="Times New Roman,serif" font-size="14.00">Samples weight: 0.46</text>
</g>
<!-- BB1&#45;&gt;BB3 -->
<g id="edge2" class="edge">
<title>BB1&#45;&gt;BB3</title>
<path fill="none" stroke="black" d="M292.99,-264.42C294.76,-255.85 296.64,-246.83 298.46,-238.01"/>
<polygon fill="black" stroke="black" points="301.9,-238.68 300.5,-228.17 295.05,-237.25 301.9,-238.68"/>
</g>
<!-- BB2 -->
<g id="node3" class="node">
<title>BB2</title>
<ellipse fill="none" stroke="black" cx="332.24" cy="-48.08" rx="108.38" ry="48.17"/>
<text text-anchor="middle" x="332.24" y="-66.88" font-family="Times New Roman,serif" font-size="14.00">[15..5f)</text>
<text text-anchor="middle" x="332.24" y="-51.88" font-family="Times New Roman,serif" font-size="14.00">Count: 6145</text>
<text text-anchor="middle" x="332.24" y="-36.88" font-family="Times New Roman,serif" font-size="14.00">Normalized count: 94.54</text>
<text text-anchor="middle" x="332.24" y="-21.88" font-family="Times New Roman,serif" font-size="14.00">Samples weight: 0.42</text>
</g>
<!-- BB2&#45;&gt;BB3 -->
<g id="edge3" class="edge">
<title>BB2&#45;&gt;BB3</title>
<path fill="none" stroke="black" d="M330.76,-96.44C329.56,-104.83 328.13,-113.64 326.57,-122.26"/>
<polygon fill="black" stroke="black" points="323.1,-121.78 324.69,-132.26 329.98,-123.08 323.1,-121.78"/>
</g>
<!-- BB3&#45;&gt;BB2 -->
<g id="edge4" class="edge">
<title>BB3&#45;&gt;BB2</title>
<path fill="none" stroke="black" d="M311.72,-131.89C312.93,-123.42 314.37,-114.53 315.95,-105.83"/>
<polygon fill="black" stroke="black" points="319.43,-106.23 317.85,-95.76 312.55,-104.93 319.43,-106.23"/>
</g>
<!-- BB4 -->
<g id="node5" class="node">
<title>BB4</title>
<ellipse fill="none" stroke="black" cx="103.24" cy="-48.08" rx="103.48" ry="48.17"/>
<text text-anchor="middle" x="103.24" y="-66.88" font-family="Times New Roman,serif" font-size="14.00">[67..6b)</text>
<text text-anchor="middle" x="103.24" y="-51.88" font-family="Times New Roman,serif" font-size="14.00">Count: 528</text>
<text text-anchor="middle" x="103.24" y="-36.88" font-family="Times New Roman,serif" font-size="14.00">Normalized count: 8.12</text>
<text text-anchor="middle" x="103.24" y="-21.88" font-family="Times New Roman,serif" font-size="14.00">Samples weight: 0.04</text>
</g>
<!-- BB3&#45;&gt;BB4 -->
<g id="edge5" class="edge">
<title>BB3&#45;&gt;BB4</title>
<path fill="none" stroke="black" d="M247.85,-140.02C224,-125.02 196.67,-107.83 172.23,-92.47"/>
<polygon fill="black" stroke="black" points="174.05,-89.48 163.72,-87.12 170.32,-95.4 174.05,-89.48"/>
</g>
<!-- BB4&#45;&gt;BB5 -->
<g id="edge6" class="edge">
<title>BB4&#45;&gt;BB5</title>
<path fill="none" stroke="black" d="M103.48,-96.25C105.92,-160.86 118.07,-278.23 171.24,-360.5 181.22,-375.94 195.13,-389.53 209.77,-401.01"/>
<polygon fill="black" stroke="black" points="207.86,-403.95 217.95,-407.17 212.07,-398.36 207.86,-403.95"/>
</g>
<!-- BB5&#45;&gt;BB1 -->
<g id="edge7" class="edge">
<title>BB5&#45;&gt;BB1</title>
<path fill="none" stroke="black" d="M283.24,-396.22C283.24,-387.95 283.24,-379.27 283.24,-370.77"/>
<polygon fill="black" stroke="black" points="286.74,-370.52 283.24,-360.52 279.74,-370.52 286.74,-370.52"/>
</g>
<!-- BB6 -->
<g id="node7" class="node">
<title>BB6</title>
<ellipse fill="none" stroke="black" cx="507.24" cy="-312.42" rx="103.48" ry="48.17"/>
<text text-anchor="middle" x="507.24" y="-331.22" font-family="Times New Roman,serif" font-size="14.00">[73..74)</text>
<text text-anchor="middle" x="507.24" y="-316.22" font-family="Times New Roman,serif" font-size="14.00">Count: 65</text>
<text text-anchor="middle" x="507.24" y="-301.22" font-family="Times New Roman,serif" font-size="14.00">Normalized count: 1.00</text>
<text text-anchor="middle" x="507.24" y="-286.22" font-family="Times New Roman,serif" font-size="14.00">Samples weight: 0.00</text>
</g>
<!-- BB5&#45;&gt;BB6 -->
<g id="edge8" class="edge">
<title>BB5&#45;&gt;BB6</title>
<path fill="none" stroke="black" d="M346.83,-406.63C374.26,-390.69 406.48,-371.97 434.83,-355.49"/>
<polygon fill="black" stroke="black" points="436.6,-358.51 443.49,-350.46 433.08,-352.46 436.6,-358.51"/>
</g>
</g>
</svg>
