<?xml version="1.0" encoding="UTF-8" standalone="no"?>
<!DOCTYPE svg PUBLIC "-//W3C//DTD SVG 1.1//EN"
 "http://www.w3.org/Graphics/SVG/1.1/DTD/svg11.dtd">
<!-- Generated by graphviz version 2.47.0 (20210316.0004)
 -->
<!-- Title: G Pages: 1 -->
<svg width="289pt" height="421pt"
 viewBox="0.00 0.00 289.15 420.70" xmlns="http://www.w3.org/2000/svg" xmlns:xlink="http://www.w3.org/1999/xlink">
<g id="graph0" class="graph" transform="scale(1 1) rotate(0) translate(4 416.7)">
<title>G</title>
<polygon fill="white" stroke="transparent" points="-4,4 -4,-416.7 285.15,-416.7 285.15,4 -4,4"/>
<!-- BB0 -->
<g id="node1" class="node">
<title>BB0</title>
<ellipse fill="none" stroke="black" cx="134.01" cy="-385.83" rx="37.45" ry="26.74"/>
<text text-anchor="middle" x="134.01" y="-389.63" font-family="Times New Roman,serif" font-size="14.00">[0..10)</text>
<text text-anchor="middle" x="134.01" y="-374.63" font-family="Times New Roman,serif" font-size="14.00">0.00</text>
</g>
<!-- BB5 -->
<g id="node6" class="node">
<title>BB5</title>
<ellipse fill="none" stroke="black" cx="134.01" cy="-296.09" rx="43.27" ry="26.74"/>
<text text-anchor="middle" x="134.01" y="-299.89" font-family="Times New Roman,serif" font-size="14.00">[73..7b)</text>
<text text-anchor="middle" x="134.01" y="-284.89" font-family="Times New Roman,serif" font-size="14.00">0.02</text>
</g>
<!-- BB0&#45;&gt;BB5 -->
<g id="edge1" class="edge">
<title>BB0&#45;&gt;BB5</title>
<path fill="none" stroke="black" d="M134.01,-358.51C134.01,-350.54 134.01,-341.65 134.01,-333.16"/>
<polygon fill="black" stroke="black" points="137.51,-333.09 134.01,-323.09 130.51,-333.09 137.51,-333.09"/>
</g>
<!-- BB1 -->
<g id="node2" class="node">
<title>BB1</title>
<ellipse fill="none" stroke="black" cx="134.01" cy="-206.35" rx="42.35" ry="26.74"/>
<text text-anchor="middle" x="134.01" y="-210.15" font-family="Times New Roman,serif" font-size="14.00">[10..14)</text>
<text text-anchor="middle" x="134.01" y="-195.15" font-family="Times New Roman,serif" font-size="14.00">0.01</text>
</g>
<!-- BB3 -->
<g id="node4" class="node">
<title>BB3</title>
<ellipse fill="none" stroke="black" cx="138.01" cy="-116.61" rx="41.02" ry="26.74"/>
<text text-anchor="middle" x="138.01" y="-120.41" font-family="Times New Roman,serif" font-size="14.00">[67..6f)</text>
<text text-anchor="middle" x="138.01" y="-105.41" font-family="Times New Roman,serif" font-size="14.00">0.48</text>
</g>
<!-- BB1&#45;&gt;BB3 -->
<g id="edge2" class="edge">
<title>BB1&#45;&gt;BB3</title>
<path fill="none" stroke="black" d="M135.21,-179.03C135.58,-171.06 135.98,-162.17 136.37,-153.68"/>
<polygon fill="black" stroke="black" points="139.87,-153.76 136.83,-143.61 132.87,-153.44 139.87,-153.76"/>
</g>
<!-- BB2 -->
<g id="node3" class="node">
<title>BB2</title>
<ellipse fill="none" stroke="black" cx="142.01" cy="-26.87" rx="42.35" ry="26.74"/>
<text text-anchor="middle" x="142.01" y="-30.67" font-family="Times New Roman,serif" font-size="14.00">[14..67)</text>
<text text-anchor="middle" x="142.01" y="-15.67" font-family="Times New Roman,serif" font-size="14.00">0.47</text>
</g>
<!-- BB2&#45;&gt;BB3 -->
<g id="edge3" class="edge">
<title>BB2&#45;&gt;BB3</title>
<path fill="none" stroke="black" d="M147.05,-53.84C147.19,-61.9 146.92,-70.93 146.31,-79.55"/>
<polygon fill="black" stroke="black" points="142.8,-79.49 145.41,-89.76 149.77,-80.11 142.8,-79.49"/>
</g>
<!-- BB3&#45;&gt;BB2 -->
<g id="edge4" class="edge">
<title>BB3&#45;&gt;BB2</title>
<path fill="none" stroke="black" d="M132.97,-89.76C132.83,-81.55 133.11,-72.32 133.74,-63.54"/>
<polygon fill="black" stroke="black" points="137.23,-63.81 134.64,-53.54 130.26,-63.18 137.23,-63.81"/>
</g>
<!-- BB4 -->
<g id="node5" class="node">
<title>BB4</title>
<ellipse fill="none" stroke="black" cx="41.01" cy="-26.87" rx="41.02" ry="26.74"/>
<text text-anchor="middle" x="41.01" y="-30.67" font-family="Times New Roman,serif" font-size="14.00">[6f..73)</text>
<text text-anchor="middle" x="41.01" y="-15.67" font-family="Times New Roman,serif" font-size="14.00">0.01</text>
</g>
<!-- BB3&#45;&gt;BB4 -->
<g id="edge5" class="edge">
<title>BB3&#45;&gt;BB4</title>
<path fill="none" stroke="black" d="M114.53,-94.37C101.88,-82.92 86.09,-68.65 72.4,-56.26"/>
<polygon fill="black" stroke="black" points="74.38,-53.33 64.61,-49.22 69.68,-58.52 74.38,-53.33"/>
</g>
<!-- BB4&#45;&gt;BB5 -->
<g id="edge6" class="edge">
<title>BB4&#45;&gt;BB5</title>
<path fill="none" stroke="black" d="M42.31,-53.78C45.18,-94.02 54.31,-173.13 83.01,-233.22 88.5,-244.7 96.57,-255.87 104.68,-265.49"/>
<polygon fill="black" stroke="black" points="102.21,-267.98 111.44,-273.18 107.46,-263.36 102.21,-267.98"/>
</g>
<!-- BB5&#45;&gt;BB1 -->
<g id="edge7" class="edge">
<title>BB5&#45;&gt;BB1</title>
<path fill="none" stroke="black" d="M134.01,-268.77C134.01,-260.8 134.01,-251.91 134.01,-243.42"/>
<polygon fill="black" stroke="black" points="137.51,-243.35 134.01,-233.35 130.51,-243.35 137.51,-243.35"/>
</g>
<!-- BB6 -->
<g id="node7" class="node">
<title>BB6</title>
<ellipse fill="none" stroke="black" cx="238.01" cy="-206.35" rx="43.27" ry="26.74"/>
<text text-anchor="middle" x="238.01" y="-210.15" font-family="Times New Roman,serif" font-size="14.00">[7b..7c)</text>
<text text-anchor="middle" x="238.01" y="-195.15" font-family="Times New Roman,serif" font-size="14.00">0.00</text>
</g>
<!-- BB5&#45;&gt;BB6 -->
<g id="edge8" class="edge">
<title>BB5&#45;&gt;BB6</title>
<path fill="none" stroke="black" d="M158.92,-274.07C172.71,-262.44 190.03,-247.83 204.94,-235.25"/>
<polygon fill="black" stroke="black" points="207.56,-237.62 212.94,-228.5 203.04,-232.27 207.56,-237.62"/>
</g>
</g>
</svg>
