<?xml version="1.0" encoding="UTF-8" standalone="no"?>
<!DOCTYPE svg PUBLIC "-//W3C//DTD SVG 1.1//EN"
 "http://www.w3.org/Graphics/SVG/1.1/DTD/svg11.dtd">
<!-- Generated by graphviz version 2.47.0 (20210316.0004)
 -->
<!-- Title: G Pages: 1 -->
<svg width="628pt" height="633pt"
 viewBox="0.00 0.00 628.30 632.83" xmlns="http://www.w3.org/2000/svg" xmlns:xlink="http://www.w3.org/1999/xlink">
<g id="graph0" class="graph" transform="scale(1 1) rotate(0) translate(4 628.83)">
<title>G</title>
<polygon fill="white" stroke="transparent" points="-4,4 -4,-628.83 624.3,-628.83 624.3,4 -4,4"/>
<!-- BB0 -->
<g id="node1" class="node">
<title>BB0</title>
<ellipse fill="none" stroke="black" cx="288.65" cy="-576.75" rx="104.8" ry="48.17"/>
<text text-anchor="middle" x="288.65" y="-595.55" font-family="Times New Roman,serif" font-size="14.00">[0..11)</text>
<text text-anchor="middle" x="288.65" y="-580.55" font-family="Times New Roman,serif" font-size="14.00">Count: 0</text>
<text text-anchor="middle" x="288.65" y="-565.55" font-family="Times New Roman,serif" font-size="14.00">Normalized count: NaN</text>
<text text-anchor="middle" x="288.65" y="-550.55" font-family="Times New Roman,serif" font-size="14.00">Samples weight: 0.00</text>
</g>
<!-- BB5 -->
<g id="node6" class="node">
<title>BB5</title>
<ellipse fill="none" stroke="black" cx="288.65" cy="-444.58" rx="113.69" ry="48.17"/>
<text text-anchor="middle" x="288.65" y="-463.38" font-family="Times New Roman,serif" font-size="14.00">[6a..72)</text>
<text text-anchor="middle" x="288.65" y="-448.38" font-family="Times New Roman,serif" font-size="14.00">Count: 1</text>
<text text-anchor="middle" x="288.65" y="-433.38" font-family="Times New Roman,serif" font-size="14.00">Normalized count: Infinity</text>
<text text-anchor="middle" x="288.65" y="-418.38" font-family="Times New Roman,serif" font-size="14.00">Samples weight: 0.01</text>
</g>
<!-- BB0&#45;&gt;BB5 -->
<g id="edge1" class="edge">
<title>BB0&#45;&gt;BB5</title>
<path fill="none" stroke="black" d="M288.65,-528.39C288.65,-520.12 288.65,-511.44 288.65,-502.93"/>
<polygon fill="black" stroke="black" points="292.15,-502.69 288.65,-492.69 285.15,-502.69 292.15,-502.69"/>
</g>
<!-- BB1 -->
<g id="node2" class="node">
<title>BB1</title>
<ellipse fill="none" stroke="black" cx="288.65" cy="-312.42" rx="104.8" ry="48.17"/>
<text text-anchor="middle" x="288.65" y="-331.22" font-family="Times New Roman,serif" font-size="14.00">[11..15)</text>
<text text-anchor="middle" x="288.65" y="-316.22" font-family="Times New Roman,serif" font-size="14.00">Count: 0</text>
<text text-anchor="middle" x="288.65" y="-301.22" font-family="Times New Roman,serif" font-size="14.00">Normalized count: NaN</text>
<text text-anchor="middle" x="288.65" y="-286.22" font-family="Times New Roman,serif" font-size="14.00">Samples weight: 0.00</text>
</g>
<!-- BB3 -->
<g id="node4" class="node">
<title>BB3</title>
<ellipse fill="none" stroke="black" cx="316.65" cy="-180.25" rx="113.69" ry="48.17"/>
<text text-anchor="middle" x="316.65" y="-199.05" font-family="Times New Roman,serif" font-size="14.00">[5e..66)</text>
<text text-anchor="middle" x="316.65" y="-184.05" font-family="Times New Roman,serif" font-size="14.00">Count: 4</text>
<text text-anchor="middle" x="316.65" y="-169.05" font-family="Times New Roman,serif" font-size="14.00">Normalized count: Infinity</text>
<text text-anchor="middle" x="316.65" y="-154.05" font-family="Times New Roman,serif" font-size="14.00">Samples weight: 0.03</text>
</g>
<!-- BB1&#45;&gt;BB3 -->
<g id="edge2" class="edge">
<title>BB1&#45;&gt;BB3</title>
<path fill="none" stroke="black" d="M298.76,-264.42C300.6,-255.85 302.55,-246.83 304.44,-238.01"/>
<polygon fill="black" stroke="black" points="307.88,-238.69 306.56,-228.17 301.03,-237.21 307.88,-238.69"/>
</g>
<!-- BB2 -->
<g id="node3" class="node">
<title>BB2</title>
<ellipse fill="none" stroke="black" cx="340.65" cy="-48.08" rx="113.69" ry="48.17"/>
<text text-anchor="middle" x="340.65" y="-66.88" font-family="Times New Roman,serif" font-size="14.00">[15..5e)</text>
<text text-anchor="middle" x="340.65" y="-51.88" font-family="Times New Roman,serif" font-size="14.00">Count: 127</text>
<text text-anchor="middle" x="340.65" y="-36.88" font-family="Times New Roman,serif" font-size="14.00">Normalized count: Infinity</text>
<text text-anchor="middle" x="340.65" y="-21.88" font-family="Times New Roman,serif" font-size="14.00">Samples weight: 0.96</text>
</g>
<!-- BB2&#45;&gt;BB3 -->
<g id="edge3" class="edge">
<title>BB2&#45;&gt;BB3</title>
<path fill="none" stroke="black" d="M338.44,-96.44C337.12,-104.83 335.55,-113.64 333.86,-122.26"/>
<polygon fill="black" stroke="black" points="330.39,-121.76 331.83,-132.26 337.25,-123.16 330.39,-121.76"/>
</g>
<!-- BB3&#45;&gt;BB2 -->
<g id="edge4" class="edge">
<title>BB3&#45;&gt;BB2</title>
<path fill="none" stroke="black" d="M318.86,-131.89C320.2,-123.42 321.78,-114.53 323.49,-105.83"/>
<polygon fill="black" stroke="black" points="326.97,-106.25 325.54,-95.76 320.12,-104.86 326.97,-106.25"/>
</g>
<!-- BB4 -->
<g id="node5" class="node">
<title>BB4</title>
<ellipse fill="none" stroke="black" cx="104.65" cy="-48.08" rx="104.8" ry="48.17"/>
<text text-anchor="middle" x="104.65" y="-66.88" font-family="Times New Roman,serif" font-size="14.00">[66..6a)</text>
<text text-anchor="middle" x="104.65" y="-51.88" font-family="Times New Roman,serif" font-size="14.00">Count: 0</text>
<text text-anchor="middle" x="104.65" y="-36.88" font-family="Times New Roman,serif" font-size="14.00">Normalized count: NaN</text>
<text text-anchor="middle" x="104.65" y="-21.88" font-family="Times New Roman,serif" font-size="14.00">Samples weight: 0.00</text>
</g>
<!-- BB3&#45;&gt;BB4 -->
<g id="edge5" class="edge">
<title>BB3&#45;&gt;BB4</title>
<path fill="none" stroke="black" d="M253.04,-140.2C228.5,-125.12 200.32,-107.82 175.16,-92.37"/>
<polygon fill="black" stroke="black" points="176.74,-89.24 166.39,-86.99 173.08,-95.21 176.74,-89.24"/>
</g>
<!-- BB4&#45;&gt;BB5 -->
<g id="edge6" class="edge">
<title>BB4&#45;&gt;BB5</title>
<path fill="none" stroke="black" d="M105.15,-96.33C107.96,-161.03 120.81,-278.51 174.65,-360.5 184.52,-375.53 198.1,-388.77 212.46,-400.01"/>
<polygon fill="black" stroke="black" points="210.4,-402.84 220.49,-406.05 214.6,-397.24 210.4,-402.84"/>
</g>
<!-- BB5&#45;&gt;BB1 -->
<g id="edge7" class="edge">
<title>BB5&#45;&gt;BB1</title>
<path fill="none" stroke="black" d="M288.65,-396.22C288.65,-387.95 288.65,-379.27 288.65,-370.77"/>
<polygon fill="black" stroke="black" points="292.15,-370.52 288.65,-360.52 285.15,-370.52 292.15,-370.52"/>
</g>
<!-- BB6 -->
<g id="node7" class="node">
<title>BB6</title>
<ellipse fill="none" stroke="black" cx="515.65" cy="-312.42" rx="104.8" ry="48.17"/>
<text text-anchor="middle" x="515.65" y="-331.22" font-family="Times New Roman,serif" font-size="14.00">[72..73)</text>
<text text-anchor="middle" x="515.65" y="-316.22" font-family="Times New Roman,serif" font-size="14.00">Count: 0</text>
<text text-anchor="middle" x="515.65" y="-301.22" font-family="Times New Roman,serif" font-size="14.00">Normalized count: NaN</text>
<text text-anchor="middle" x="515.65" y="-286.22" font-family="Times New Roman,serif" font-size="14.00">Samples weight: 0.00</text>
</g>
<!-- BB5&#45;&gt;BB6 -->
<g id="edge8" class="edge">
<title>BB5&#45;&gt;BB6</title>
<path fill="none" stroke="black" d="M355.23,-405.41C382.49,-389.77 414.15,-371.62 442.1,-355.59"/>
<polygon fill="black" stroke="black" points="444.1,-358.48 451.03,-350.47 440.62,-352.41 444.1,-358.48"/>
</g>
</g>
</svg>
