<?xml version="1.0" encoding="UTF-8" standalone="no"?>
<!DOCTYPE svg PUBLIC "-//W3C//DTD SVG 1.1//EN"
 "http://www.w3.org/Graphics/SVG/1.1/DTD/svg11.dtd">
<!-- Generated by graphviz version 2.47.0 (20210316.0004)
 -->
<!-- Title: G Pages: 1 -->
<svg width="637pt" height="633pt"
 viewBox="0.00 0.00 637.42 632.83" xmlns="http://www.w3.org/2000/svg" xmlns:xlink="http://www.w3.org/1999/xlink">
<g id="graph0" class="graph" transform="scale(1 1) rotate(0) translate(4 628.83)">
<title>G</title>
<polygon fill="white" stroke="transparent" points="-4,4 -4,-628.83 633.42,-628.83 633.42,4 -4,4"/>
<!-- BB0 -->
<g id="node1" class="node">
<title>BB0</title>
<ellipse fill="none" stroke="black" cx="297.19" cy="-576.75" rx="103.48" ry="48.17"/>
<text text-anchor="middle" x="297.19" y="-595.55" font-family="Times New Roman,serif" font-size="14.00">[0..4)</text>
<text text-anchor="middle" x="297.19" y="-580.55" font-family="Times New Roman,serif" font-size="14.00">Count: 32</text>
<text text-anchor="middle" x="297.19" y="-565.55" font-family="Times New Roman,serif" font-size="14.00">Normalized count: 1.00</text>
<text text-anchor="middle" x="297.19" y="-550.55" font-family="Times New Roman,serif" font-size="14.00">Samples weight: 0.00</text>
</g>
<!-- BB5 -->
<g id="node6" class="node">
<title>BB5</title>
<ellipse fill="none" stroke="black" cx="297.19" cy="-444.58" rx="108.38" ry="48.17"/>
<text text-anchor="middle" x="297.19" y="-463.38" font-family="Times New Roman,serif" font-size="14.00">[62..6a)</text>
<text text-anchor="middle" x="297.19" y="-448.38" font-family="Times New Roman,serif" font-size="14.00">Count: 525</text>
<text text-anchor="middle" x="297.19" y="-433.38" font-family="Times New Roman,serif" font-size="14.00">Normalized count: 16.41</text>
<text text-anchor="middle" x="297.19" y="-418.38" font-family="Times New Roman,serif" font-size="14.00">Samples weight: 0.01</text>
</g>
<!-- BB0&#45;&gt;BB5 -->
<g id="edge1" class="edge">
<title>BB0&#45;&gt;BB5</title>
<path fill="none" stroke="black" d="M297.19,-528.39C297.19,-520.12 297.19,-511.44 297.19,-502.93"/>
<polygon fill="black" stroke="black" points="300.69,-502.69 297.19,-492.69 293.69,-502.69 300.69,-502.69"/>
</g>
<!-- BB1 -->
<g id="node2" class="node">
<title>BB1</title>
<ellipse fill="none" stroke="black" cx="297.19" cy="-312.42" rx="108.38" ry="48.17"/>
<text text-anchor="middle" x="297.19" y="-331.22" font-family="Times New Roman,serif" font-size="14.00">[4..12)</text>
<text text-anchor="middle" x="297.19" y="-316.22" font-family="Times New Roman,serif" font-size="14.00">Count: 447</text>
<text text-anchor="middle" x="297.19" y="-301.22" font-family="Times New Roman,serif" font-size="14.00">Normalized count: 13.97</text>
<text text-anchor="middle" x="297.19" y="-286.22" font-family="Times New Roman,serif" font-size="14.00">Samples weight: 0.01</text>
</g>
<!-- BB3 -->
<g id="node4" class="node">
<title>BB3</title>
<ellipse fill="none" stroke="black" cx="326.19" cy="-180.25" rx="113.27" ry="48.17"/>
<text text-anchor="middle" x="326.19" y="-199.05" font-family="Times New Roman,serif" font-size="14.00">[32..3a)</text>
<text text-anchor="middle" x="326.19" y="-184.05" font-family="Times New Roman,serif" font-size="14.00">Count: 16198</text>
<text text-anchor="middle" x="326.19" y="-169.05" font-family="Times New Roman,serif" font-size="14.00">Normalized count: 506.19</text>
<text text-anchor="middle" x="326.19" y="-154.05" font-family="Times New Roman,serif" font-size="14.00">Samples weight: 0.25</text>
</g>
<!-- BB1&#45;&gt;BB3 -->
<g id="edge2" class="edge">
<title>BB1&#45;&gt;BB3</title>
<path fill="none" stroke="black" d="M307.66,-264.42C309.57,-255.85 311.58,-246.83 313.54,-238.01"/>
<polygon fill="black" stroke="black" points="316.97,-238.7 315.73,-228.17 310.14,-237.17 316.97,-238.7"/>
</g>
<!-- BB2 -->
<g id="node3" class="node">
<title>BB2</title>
<ellipse fill="none" stroke="black" cx="352.19" cy="-48.08" rx="118.17" ry="48.17"/>
<text text-anchor="middle" x="352.19" y="-66.88" font-family="Times New Roman,serif" font-size="14.00">[12..32)</text>
<text text-anchor="middle" x="352.19" y="-51.88" font-family="Times New Roman,serif" font-size="14.00">Count: 45952</text>
<text text-anchor="middle" x="352.19" y="-36.88" font-family="Times New Roman,serif" font-size="14.00">Normalized count: 1436.00</text>
<text text-anchor="middle" x="352.19" y="-21.88" font-family="Times New Roman,serif" font-size="14.00">Samples weight: 0.72</text>
</g>
<!-- BB2&#45;&gt;BB3 -->
<g id="edge3" class="edge">
<title>BB2&#45;&gt;BB3</title>
<path fill="none" stroke="black" d="M349.28,-96.26C347.79,-104.86 346.04,-113.92 344.17,-122.77"/>
<polygon fill="black" stroke="black" points="340.73,-122.11 342,-132.62 347.57,-123.61 340.73,-122.11"/>
</g>
<!-- BB3&#45;&gt;BB2 -->
<g id="edge4" class="edge">
<title>BB3&#45;&gt;BB2</title>
<path fill="none" stroke="black" d="M329.13,-131.89C330.61,-123.33 332.35,-114.33 334.21,-105.55"/>
<polygon fill="black" stroke="black" points="337.64,-106.27 336.36,-95.76 330.8,-104.77 337.64,-106.27"/>
</g>
<!-- BB4 -->
<g id="node5" class="node">
<title>BB4</title>
<ellipse fill="none" stroke="black" cx="108.19" cy="-48.08" rx="108.38" ry="48.17"/>
<text text-anchor="middle" x="108.19" y="-66.88" font-family="Times New Roman,serif" font-size="14.00">[3a..62)</text>
<text text-anchor="middle" x="108.19" y="-51.88" font-family="Times New Roman,serif" font-size="14.00">Count: 802</text>
<text text-anchor="middle" x="108.19" y="-36.88" font-family="Times New Roman,serif" font-size="14.00">Normalized count: 25.06</text>
<text text-anchor="middle" x="108.19" y="-21.88" font-family="Times New Roman,serif" font-size="14.00">Samples weight: 0.01</text>
</g>
<!-- BB3&#45;&gt;BB4 -->
<g id="edge5" class="edge">
<title>BB3&#45;&gt;BB4</title>
<path fill="none" stroke="black" d="M261.66,-140.72C236.17,-125.5 206.76,-107.94 180.55,-92.29"/>
<polygon fill="black" stroke="black" points="182.17,-89.18 171.79,-87.06 178.58,-95.19 182.17,-89.18"/>
</g>
<!-- BB4&#45;&gt;BB5 -->
<g id="edge6" class="edge">
<title>BB4&#45;&gt;BB5</title>
<path fill="none" stroke="black" d="M108.91,-96.44C112.03,-161.27 125.52,-278.9 180.19,-360.5 190.6,-376.04 204.97,-389.62 220.08,-401.04"/>
<polygon fill="black" stroke="black" points="218.38,-404.13 228.53,-407.16 222.49,-398.46 218.38,-404.13"/>
</g>
<!-- BB5&#45;&gt;BB1 -->
<g id="edge7" class="edge">
<title>BB5&#45;&gt;BB1</title>
<path fill="none" stroke="black" d="M297.19,-396.22C297.19,-387.95 297.19,-379.27 297.19,-370.77"/>
<polygon fill="black" stroke="black" points="300.69,-370.52 297.19,-360.52 293.69,-370.52 300.69,-370.52"/>
</g>
<!-- BB6 -->
<g id="node7" class="node">
<title>BB6</title>
<ellipse fill="none" stroke="black" cx="526.19" cy="-312.42" rx="103.48" ry="48.17"/>
<text text-anchor="middle" x="526.19" y="-331.22" font-family="Times New Roman,serif" font-size="14.00">[6a..6b)</text>
<text text-anchor="middle" x="526.19" y="-316.22" font-family="Times New Roman,serif" font-size="14.00">Count: 99</text>
<text text-anchor="middle" x="526.19" y="-301.22" font-family="Times New Roman,serif" font-size="14.00">Normalized count: 3.09</text>
<text text-anchor="middle" x="526.19" y="-286.22" font-family="Times New Roman,serif" font-size="14.00">Samples weight: 0.00</text>
</g>
<!-- BB5&#45;&gt;BB6 -->
<g id="edge8" class="edge">
<title>BB5&#45;&gt;BB6</title>
<path fill="none" stroke="black" d="M362.81,-406.28C390.96,-390.28 423.96,-371.53 452.9,-355.07"/>
<polygon fill="black" stroke="black" points="454.78,-358.03 461.74,-350.05 451.32,-351.95 454.78,-358.03"/>
</g>
</g>
</svg>
