<?xml version="1.0" encoding="UTF-8" standalone="no"?>
<!DOCTYPE svg PUBLIC "-//W3C//DTD SVG 1.1//EN"
 "http://www.w3.org/Graphics/SVG/1.1/DTD/svg11.dtd">
<!-- Generated by graphviz version 2.47.0 (20210316.0004)
 -->
<!-- Title: G Pages: 1 -->
<svg width="669pt" height="527pt"
 viewBox="0.00 0.00 668.74 526.77" xmlns="http://www.w3.org/2000/svg" xmlns:xlink="http://www.w3.org/1999/xlink">
<g id="graph0" class="graph" transform="scale(1 1) rotate(0) translate(4 522.77)">
<title>G</title>
<polygon fill="white" stroke="transparent" points="-4,4 -4,-522.77 664.74,-522.77 664.74,4 -4,4"/>
<!-- BB0 -->
<g id="node1" class="node">
<title>BB0</title>
<ellipse fill="none" stroke="black" cx="312.97" cy="-481.29" rx="106.55" ry="37.45"/>
<text text-anchor="middle" x="312.97" y="-492.59" font-family="Times New Roman,serif" font-size="14.00">[0..4)</text>
<text text-anchor="middle" x="312.97" y="-477.59" font-family="Times New Roman,serif" font-size="14.00">Normalized Count: NaN</text>
<text text-anchor="middle" x="312.97" y="-462.59" font-family="Times New Roman,serif" font-size="14.00">Samples weight: 0.00</text>
</g>
<!-- BB5 -->
<g id="node6" class="node">
<title>BB5</title>
<ellipse fill="none" stroke="black" cx="312.97" cy="-370.34" rx="106.55" ry="37.45"/>
<text text-anchor="middle" x="312.97" y="-381.64" font-family="Times New Roman,serif" font-size="14.00">[5c..64)</text>
<text text-anchor="middle" x="312.97" y="-366.64" font-family="Times New Roman,serif" font-size="14.00">Normalized Count: NaN</text>
<text text-anchor="middle" x="312.97" y="-351.64" font-family="Times New Roman,serif" font-size="14.00">Samples weight: 0.00</text>
</g>
<!-- BB0&#45;&gt;BB5 -->
<g id="edge1" class="edge">
<title>BB0&#45;&gt;BB5</title>
<path fill="none" stroke="black" d="M312.97,-443.71C312.97,-435.53 312.97,-426.75 312.97,-418.23"/>
<polygon fill="black" stroke="black" points="316.47,-418.01 312.97,-408.01 309.47,-418.01 316.47,-418.01"/>
</g>
<!-- BB1 -->
<g id="node2" class="node">
<title>BB1</title>
<ellipse fill="none" stroke="black" cx="312.97" cy="-259.38" rx="115.93" ry="37.45"/>
<text text-anchor="middle" x="312.97" y="-270.68" font-family="Times New Roman,serif" font-size="14.00">[4..12)</text>
<text text-anchor="middle" x="312.97" y="-255.68" font-family="Times New Roman,serif" font-size="14.00">Normalized Count: Infinity</text>
<text text-anchor="middle" x="312.97" y="-240.68" font-family="Times New Roman,serif" font-size="14.00">Samples weight: 0.01</text>
</g>
<!-- BB3 -->
<g id="node4" class="node">
<title>BB3</title>
<ellipse fill="none" stroke="black" cx="338.97" cy="-148.43" rx="115.93" ry="37.45"/>
<text text-anchor="middle" x="338.97" y="-159.73" font-family="Times New Roman,serif" font-size="14.00">[2c..34)</text>
<text text-anchor="middle" x="338.97" y="-144.73" font-family="Times New Roman,serif" font-size="14.00">Normalized Count: Infinity</text>
<text text-anchor="middle" x="338.97" y="-129.73" font-family="Times New Roman,serif" font-size="14.00">Samples weight: 0.08</text>
</g>
<!-- BB1&#45;&gt;BB3 -->
<g id="edge2" class="edge">
<title>BB1&#45;&gt;BB3</title>
<path fill="none" stroke="black" d="M321.7,-221.8C323.67,-213.54 325.79,-204.65 327.84,-196.04"/>
<polygon fill="black" stroke="black" points="331.3,-196.64 330.21,-186.1 324.49,-195.02 331.3,-196.64"/>
</g>
<!-- BB2 -->
<g id="node3" class="node">
<title>BB2</title>
<ellipse fill="none" stroke="black" cx="365.97" cy="-37.48" rx="115.93" ry="37.45"/>
<text text-anchor="middle" x="365.97" y="-48.78" font-family="Times New Roman,serif" font-size="14.00">[12..2c)</text>
<text text-anchor="middle" x="365.97" y="-33.78" font-family="Times New Roman,serif" font-size="14.00">Normalized Count: Infinity</text>
<text text-anchor="middle" x="365.97" y="-18.78" font-family="Times New Roman,serif" font-size="14.00">Samples weight: 0.90</text>
</g>
<!-- BB2&#45;&gt;BB3 -->
<g id="edge3" class="edge">
<title>BB2&#45;&gt;BB3</title>
<path fill="none" stroke="black" d="M363.33,-74.97C361.57,-83.44 359.39,-92.56 357.06,-101.37"/>
<polygon fill="black" stroke="black" points="353.65,-100.58 354.36,-111.15 360.39,-102.44 353.65,-100.58"/>
</g>
<!-- BB3&#45;&gt;BB2 -->
<g id="edge4" class="edge">
<title>BB3&#45;&gt;BB2</title>
<path fill="none" stroke="black" d="M341.62,-110.85C343.38,-102.4 345.55,-93.31 347.88,-84.52"/>
<polygon fill="black" stroke="black" points="351.28,-85.35 350.57,-74.78 344.53,-83.49 351.28,-85.35"/>
</g>
<!-- BB4 -->
<g id="node5" class="node">
<title>BB4</title>
<ellipse fill="none" stroke="black" cx="115.97" cy="-37.48" rx="115.93" ry="37.45"/>
<text text-anchor="middle" x="115.97" y="-48.78" font-family="Times New Roman,serif" font-size="14.00">[34..5c)</text>
<text text-anchor="middle" x="115.97" y="-33.78" font-family="Times New Roman,serif" font-size="14.00">Normalized Count: Infinity</text>
<text text-anchor="middle" x="115.97" y="-18.78" font-family="Times New Roman,serif" font-size="14.00">Samples weight: 0.02</text>
</g>
<!-- BB3&#45;&gt;BB4 -->
<g id="edge5" class="edge">
<title>BB3&#45;&gt;BB4</title>
<path fill="none" stroke="black" d="M276.25,-116.79C248.7,-103.33 216.2,-87.45 187.7,-73.52"/>
<polygon fill="black" stroke="black" points="189.11,-70.32 178.59,-69.07 186.04,-76.61 189.11,-70.32"/>
</g>
<!-- BB4&#45;&gt;BB5 -->
<g id="edge6" class="edge">
<title>BB4&#45;&gt;BB5</title>
<path fill="none" stroke="black" d="M117.64,-75.3C121.83,-129.2 136.53,-230.38 187.97,-296.86 200.32,-312.83 217.26,-325.91 234.68,-336.36"/>
<polygon fill="black" stroke="black" points="233.39,-339.66 243.81,-341.58 236.87,-333.58 233.39,-339.66"/>
</g>
<!-- BB5&#45;&gt;BB1 -->
<g id="edge7" class="edge">
<title>BB5&#45;&gt;BB1</title>
<path fill="none" stroke="black" d="M312.97,-332.75C312.97,-324.58 312.97,-315.8 312.97,-307.27"/>
<polygon fill="black" stroke="black" points="316.47,-307.06 312.97,-297.06 309.47,-307.06 316.47,-307.06"/>
</g>
<!-- BB6 -->
<g id="node7" class="node">
<title>BB6</title>
<ellipse fill="none" stroke="black" cx="553.97" cy="-259.38" rx="106.55" ry="37.45"/>
<text text-anchor="middle" x="553.97" y="-270.68" font-family="Times New Roman,serif" font-size="14.00">[64..65)</text>
<text text-anchor="middle" x="553.97" y="-255.68" font-family="Times New Roman,serif" font-size="14.00">Normalized Count: NaN</text>
<text text-anchor="middle" x="553.97" y="-240.68" font-family="Times New Roman,serif" font-size="14.00">Samples weight: 0.00</text>
</g>
<!-- BB5&#45;&gt;BB6 -->
<g id="edge8" class="edge">
<title>BB5&#45;&gt;BB6</title>
<path fill="none" stroke="black" d="M377.23,-340.28C408.97,-325.93 447.41,-308.55 480.33,-293.67"/>
<polygon fill="black" stroke="black" points="481.79,-296.85 489.46,-289.55 478.91,-290.48 481.79,-296.85"/>
</g>
</g>
</svg>
