<?xml version="1.0" encoding="UTF-8" standalone="no"?>
<!DOCTYPE svg PUBLIC "-//W3C//DTD SVG 1.1//EN"
 "http://www.w3.org/Graphics/SVG/1.1/DTD/svg11.dtd">
<!-- Generated by graphviz version 2.47.0 (20210316.0004)
 -->
<!-- Title: G Pages: 1 -->
<svg width="273pt" height="421pt"
 viewBox="0.00 0.00 273.15 420.70" xmlns="http://www.w3.org/2000/svg" xmlns:xlink="http://www.w3.org/1999/xlink">
<g id="graph0" class="graph" transform="scale(1 1) rotate(0) translate(4 416.7)">
<title>G</title>
<polygon fill="white" stroke="transparent" points="-4,4 -4,-416.7 269.15,-416.7 269.15,4 -4,4"/>
<!-- BB0 -->
<g id="node1" class="node">
<title>BB0</title>
<ellipse fill="none" stroke="black" cx="124.72" cy="-385.83" rx="33.47" ry="26.74"/>
<text text-anchor="middle" x="124.72" y="-389.63" font-family="Times New Roman,serif" font-size="14.00">[0..4)</text>
<text text-anchor="middle" x="124.72" y="-374.63" font-family="Times New Roman,serif" font-size="14.00">0.00</text>
</g>
<!-- BB5 -->
<g id="node6" class="node">
<title>BB5</title>
<ellipse fill="none" stroke="black" cx="124.72" cy="-296.09" rx="41.94" ry="26.74"/>
<text text-anchor="middle" x="124.72" y="-299.89" font-family="Times New Roman,serif" font-size="14.00">[62..6a)</text>
<text text-anchor="middle" x="124.72" y="-284.89" font-family="Times New Roman,serif" font-size="14.00">0.00</text>
</g>
<!-- BB0&#45;&gt;BB5 -->
<g id="edge1" class="edge">
<title>BB0&#45;&gt;BB5</title>
<path fill="none" stroke="black" d="M124.72,-358.51C124.72,-350.54 124.72,-341.65 124.72,-333.16"/>
<polygon fill="black" stroke="black" points="128.22,-333.09 124.72,-323.09 121.22,-333.09 128.22,-333.09"/>
</g>
<!-- BB1 -->
<g id="node2" class="node">
<title>BB1</title>
<ellipse fill="none" stroke="black" cx="124.72" cy="-206.35" rx="37.45" ry="26.74"/>
<text text-anchor="middle" x="124.72" y="-210.15" font-family="Times New Roman,serif" font-size="14.00">[4..12)</text>
<text text-anchor="middle" x="124.72" y="-195.15" font-family="Times New Roman,serif" font-size="14.00">0.01</text>
</g>
<!-- BB3 -->
<g id="node4" class="node">
<title>BB3</title>
<ellipse fill="none" stroke="black" cx="135.72" cy="-116.61" rx="41.94" ry="26.74"/>
<text text-anchor="middle" x="135.72" y="-120.41" font-family="Times New Roman,serif" font-size="14.00">[32..3a)</text>
<text text-anchor="middle" x="135.72" y="-105.41" font-family="Times New Roman,serif" font-size="14.00">0.22</text>
</g>
<!-- BB1&#45;&gt;BB3 -->
<g id="edge2" class="edge">
<title>BB1&#45;&gt;BB3</title>
<path fill="none" stroke="black" d="M127.96,-179.5C128.98,-171.36 130.13,-162.22 131.22,-153.51"/>
<polygon fill="black" stroke="black" points="134.69,-153.94 132.46,-143.58 127.75,-153.07 134.69,-153.94"/>
</g>
<!-- BB2 -->
<g id="node3" class="node">
<title>BB2</title>
<ellipse fill="none" stroke="black" cx="143.72" cy="-26.87" rx="42.35" ry="26.74"/>
<text text-anchor="middle" x="143.72" y="-30.67" font-family="Times New Roman,serif" font-size="14.00">[12..32)</text>
<text text-anchor="middle" x="143.72" y="-15.67" font-family="Times New Roman,serif" font-size="14.00">0.70</text>
</g>
<!-- BB2&#45;&gt;BB3 -->
<g id="edge3" class="edge">
<title>BB2&#45;&gt;BB3</title>
<path fill="none" stroke="black" d="M147.58,-53.8C147.34,-62.07 146.63,-71.36 145.59,-80.18"/>
<polygon fill="black" stroke="black" points="142.1,-79.85 144.22,-90.23 149.04,-80.8 142.1,-79.85"/>
</g>
<!-- BB3&#45;&gt;BB2 -->
<g id="edge4" class="edge">
<title>BB3&#45;&gt;BB2</title>
<path fill="none" stroke="black" d="M131.86,-89.76C132.1,-81.48 132.81,-72.15 133.85,-63.31"/>
<polygon fill="black" stroke="black" points="137.34,-63.61 135.22,-53.23 130.4,-62.67 137.34,-63.61"/>
</g>
<!-- BB4 -->
<g id="node5" class="node">
<title>BB4</title>
<ellipse fill="none" stroke="black" cx="41.72" cy="-26.87" rx="41.94" ry="26.74"/>
<text text-anchor="middle" x="41.72" y="-30.67" font-family="Times New Roman,serif" font-size="14.00">[3a..62)</text>
<text text-anchor="middle" x="41.72" y="-15.67" font-family="Times New Roman,serif" font-size="14.00">0.08</text>
</g>
<!-- BB3&#45;&gt;BB4 -->
<g id="edge5" class="edge">
<title>BB3&#45;&gt;BB4</title>
<path fill="none" stroke="black" d="M112.48,-93.92C100.3,-82.55 85.23,-68.49 72.14,-56.26"/>
<polygon fill="black" stroke="black" points="74.39,-53.57 64.69,-49.31 69.61,-58.69 74.39,-53.57"/>
</g>
<!-- BB4&#45;&gt;BB5 -->
<g id="edge6" class="edge">
<title>BB4&#45;&gt;BB5</title>
<path fill="none" stroke="black" d="M42.62,-53.93C44.83,-94.02 52.44,-172.56 78.72,-233.22 83.49,-244.24 90.57,-255.13 97.75,-264.64"/>
<polygon fill="black" stroke="black" points="95.09,-266.92 104.03,-272.6 100.59,-262.58 95.09,-266.92"/>
</g>
<!-- BB5&#45;&gt;BB1 -->
<g id="edge7" class="edge">
<title>BB5&#45;&gt;BB1</title>
<path fill="none" stroke="black" d="M124.72,-268.77C124.72,-260.8 124.72,-251.91 124.72,-243.42"/>
<polygon fill="black" stroke="black" points="128.22,-243.35 124.72,-233.35 121.22,-243.35 128.22,-243.35"/>
</g>
<!-- BB6 -->
<g id="node7" class="node">
<title>BB6</title>
<ellipse fill="none" stroke="black" cx="222.72" cy="-206.35" rx="42.35" ry="26.74"/>
<text text-anchor="middle" x="222.72" y="-210.15" font-family="Times New Roman,serif" font-size="14.00">[6a..6b)</text>
<text text-anchor="middle" x="222.72" y="-195.15" font-family="Times New Roman,serif" font-size="14.00">0.00</text>
</g>
<!-- BB5&#45;&gt;BB6 -->
<g id="edge8" class="edge">
<title>BB5&#45;&gt;BB6</title>
<path fill="none" stroke="black" d="M148.44,-273.85C161.35,-262.3 177.47,-247.86 191.4,-235.39"/>
<polygon fill="black" stroke="black" points="193.76,-237.98 198.88,-228.7 189.09,-232.76 193.76,-237.98"/>
</g>
</g>
</svg>
