<?xml version="1.0" encoding="UTF-8" standalone="no"?>
<!DOCTYPE svg PUBLIC "-//W3C//DTD SVG 1.1//EN"
 "http://www.w3.org/Graphics/SVG/1.1/DTD/svg11.dtd">
<!-- Generated by graphviz version 2.47.0 (20210316.0004)
 -->
<!-- Title: G Pages: 1 -->
<svg width="274pt" height="421pt"
 viewBox="0.00 0.00 273.85 420.70" xmlns="http://www.w3.org/2000/svg" xmlns:xlink="http://www.w3.org/1999/xlink">
<g id="graph0" class="graph" transform="scale(1 1) rotate(0) translate(4 416.7)">
<title>G</title>
<polygon fill="white" stroke="transparent" points="-4,4 -4,-416.7 269.85,-416.7 269.85,4 -4,4"/>
<!-- BB0 -->
<g id="node1" class="node">
<title>BB0</title>
<ellipse fill="none" stroke="black" cx="125.43" cy="-385.83" rx="33.47" ry="26.74"/>
<text text-anchor="middle" x="125.43" y="-389.63" font-family="Times New Roman,serif" font-size="14.00">[0..4)</text>
<text text-anchor="middle" x="125.43" y="-374.63" font-family="Times New Roman,serif" font-size="14.00">0.00</text>
</g>
<!-- BB5 -->
<g id="node6" class="node">
<title>BB5</title>
<ellipse fill="none" stroke="black" cx="125.43" cy="-296.09" rx="42.35" ry="26.74"/>
<text text-anchor="middle" x="125.43" y="-299.89" font-family="Times New Roman,serif" font-size="14.00">[5c..64)</text>
<text text-anchor="middle" x="125.43" y="-284.89" font-family="Times New Roman,serif" font-size="14.00">0.00</text>
</g>
<!-- BB0&#45;&gt;BB5 -->
<g id="edge1" class="edge">
<title>BB0&#45;&gt;BB5</title>
<path fill="none" stroke="black" d="M125.43,-358.51C125.43,-350.54 125.43,-341.65 125.43,-333.16"/>
<polygon fill="black" stroke="black" points="128.93,-333.09 125.43,-323.09 121.93,-333.09 128.93,-333.09"/>
</g>
<!-- BB1 -->
<g id="node2" class="node">
<title>BB1</title>
<ellipse fill="none" stroke="black" cx="125.43" cy="-206.35" rx="37.45" ry="26.74"/>
<text text-anchor="middle" x="125.43" y="-210.15" font-family="Times New Roman,serif" font-size="14.00">[4..12)</text>
<text text-anchor="middle" x="125.43" y="-195.15" font-family="Times New Roman,serif" font-size="14.00">0.01</text>
</g>
<!-- BB3 -->
<g id="node4" class="node">
<title>BB3</title>
<ellipse fill="none" stroke="black" cx="136.43" cy="-116.61" rx="42.35" ry="26.74"/>
<text text-anchor="middle" x="136.43" y="-120.41" font-family="Times New Roman,serif" font-size="14.00">[2c..34)</text>
<text text-anchor="middle" x="136.43" y="-105.41" font-family="Times New Roman,serif" font-size="14.00">0.08</text>
</g>
<!-- BB1&#45;&gt;BB3 -->
<g id="edge2" class="edge">
<title>BB1&#45;&gt;BB3</title>
<path fill="none" stroke="black" d="M128.67,-179.5C129.69,-171.36 130.83,-162.22 131.93,-153.51"/>
<polygon fill="black" stroke="black" points="135.4,-153.94 133.17,-143.58 128.45,-153.07 135.4,-153.94"/>
</g>
<!-- BB2 -->
<g id="node3" class="node">
<title>BB2</title>
<ellipse fill="none" stroke="black" cx="145.43" cy="-26.87" rx="42.35" ry="26.74"/>
<text text-anchor="middle" x="145.43" y="-30.67" font-family="Times New Roman,serif" font-size="14.00">[12..2c)</text>
<text text-anchor="middle" x="145.43" y="-15.67" font-family="Times New Roman,serif" font-size="14.00">0.90</text>
</g>
<!-- BB2&#45;&gt;BB3 -->
<g id="edge3" class="edge">
<title>BB2&#45;&gt;BB3</title>
<path fill="none" stroke="black" d="M148.99,-53.8C148.65,-62.07 147.84,-71.36 146.7,-80.18"/>
<polygon fill="black" stroke="black" points="143.21,-79.83 145.22,-90.23 150.14,-80.85 143.21,-79.83"/>
</g>
<!-- BB3&#45;&gt;BB2 -->
<g id="edge4" class="edge">
<title>BB3&#45;&gt;BB2</title>
<path fill="none" stroke="black" d="M132.86,-89.76C133.19,-81.48 134.01,-72.15 135.15,-63.31"/>
<polygon fill="black" stroke="black" points="138.64,-63.64 136.64,-53.23 131.72,-62.62 138.64,-63.64"/>
</g>
<!-- BB4 -->
<g id="node5" class="node">
<title>BB4</title>
<ellipse fill="none" stroke="black" cx="42.43" cy="-26.87" rx="42.35" ry="26.74"/>
<text text-anchor="middle" x="42.43" y="-30.67" font-family="Times New Roman,serif" font-size="14.00">[34..5c)</text>
<text text-anchor="middle" x="42.43" y="-15.67" font-family="Times New Roman,serif" font-size="14.00">0.02</text>
</g>
<!-- BB3&#45;&gt;BB4 -->
<g id="edge5" class="edge">
<title>BB3&#45;&gt;BB4</title>
<path fill="none" stroke="black" d="M113.19,-93.92C101.1,-82.64 86.17,-68.7 73.14,-56.53"/>
<polygon fill="black" stroke="black" points="75.42,-53.88 65.72,-49.61 70.64,-59 75.42,-53.88"/>
</g>
<!-- BB4&#45;&gt;BB5 -->
<g id="edge6" class="edge">
<title>BB4&#45;&gt;BB5</title>
<path fill="none" stroke="black" d="M43.33,-53.93C45.53,-94.02 53.15,-172.56 79.43,-233.22 84.2,-244.24 91.28,-255.13 98.46,-264.64"/>
<polygon fill="black" stroke="black" points="95.8,-266.92 104.74,-272.6 101.29,-262.58 95.8,-266.92"/>
</g>
<!-- BB5&#45;&gt;BB1 -->
<g id="edge7" class="edge">
<title>BB5&#45;&gt;BB1</title>
<path fill="none" stroke="black" d="M125.43,-268.77C125.43,-260.8 125.43,-251.91 125.43,-243.42"/>
<polygon fill="black" stroke="black" points="128.93,-243.35 125.43,-233.35 121.93,-243.35 128.93,-243.35"/>
</g>
<!-- BB6 -->
<g id="node7" class="node">
<title>BB6</title>
<ellipse fill="none" stroke="black" cx="223.43" cy="-206.35" rx="42.35" ry="26.74"/>
<text text-anchor="middle" x="223.43" y="-210.15" font-family="Times New Roman,serif" font-size="14.00">[64..65)</text>
<text text-anchor="middle" x="223.43" y="-195.15" font-family="Times New Roman,serif" font-size="14.00">0.00</text>
</g>
<!-- BB5&#45;&gt;BB6 -->
<g id="edge8" class="edge">
<title>BB5&#45;&gt;BB6</title>
<path fill="none" stroke="black" d="M149.4,-273.63C162.09,-262.26 177.85,-248.15 191.56,-235.88"/>
<polygon fill="black" stroke="black" points="194.25,-238.17 199.36,-228.9 189.58,-232.96 194.25,-238.17"/>
</g>
</g>
</svg>
