<?xml version="1.0" encoding="UTF-8" standalone="no"?>
<!DOCTYPE svg PUBLIC "-//W3C//DTD SVG 1.1//EN"
 "http://www.w3.org/Graphics/SVG/1.1/DTD/svg11.dtd">
<!-- Generated by graphviz version 2.47.0 (20210316.0004)
 -->
<!-- Title: G Pages: 1 -->
<svg width="635pt" height="897pt"
 viewBox="0.00 0.00 635.37 897.17" xmlns="http://www.w3.org/2000/svg" xmlns:xlink="http://www.w3.org/1999/xlink">
<g id="graph0" class="graph" transform="scale(1 1) rotate(0) translate(4 893.17)">
<title>G</title>
<polygon fill="white" stroke="transparent" points="-4,4 -4,-893.17 631.37,-893.17 631.37,4 -4,4"/>
<!-- BB0 -->
<g id="node1" class="node">
<title>BB0</title>
<ellipse fill="none" stroke="black" cx="300.14" cy="-841.08" rx="103.48" ry="48.17"/>
<text text-anchor="middle" x="300.14" y="-859.88" font-family="Times New Roman,serif" font-size="14.00">[0..8)</text>
<text text-anchor="middle" x="300.14" y="-844.88" font-family="Times New Roman,serif" font-size="14.00">Count: 20</text>
<text text-anchor="middle" x="300.14" y="-829.88" font-family="Times New Roman,serif" font-size="14.00">Normalized count: 1.00</text>
<text text-anchor="middle" x="300.14" y="-814.88" font-family="Times New Roman,serif" font-size="14.00">Samples weight: 0.00</text>
</g>
<!-- BB7 -->
<g id="node8" class="node">
<title>BB7</title>
<ellipse fill="none" stroke="black" cx="300.14" cy="-708.92" rx="103.48" ry="48.17"/>
<text text-anchor="middle" x="300.14" y="-727.72" font-family="Times New Roman,serif" font-size="14.00">[87..93)</text>
<text text-anchor="middle" x="300.14" y="-712.72" font-family="Times New Roman,serif" font-size="14.00">Count: 40</text>
<text text-anchor="middle" x="300.14" y="-697.72" font-family="Times New Roman,serif" font-size="14.00">Normalized count: 2.00</text>
<text text-anchor="middle" x="300.14" y="-682.72" font-family="Times New Roman,serif" font-size="14.00">Samples weight: 0.00</text>
</g>
<!-- BB0&#45;&gt;BB7 -->
<g id="edge1" class="edge">
<title>BB0&#45;&gt;BB7</title>
<path fill="none" stroke="black" d="M300.14,-792.72C300.14,-784.45 300.14,-775.77 300.14,-767.27"/>
<polygon fill="black" stroke="black" points="303.64,-767.02 300.14,-757.02 296.64,-767.02 303.64,-767.02"/>
</g>
<!-- BB1 -->
<g id="node2" class="node">
<title>BB1</title>
<ellipse fill="none" stroke="black" cx="300.14" cy="-576.75" rx="103.48" ry="48.17"/>
<text text-anchor="middle" x="300.14" y="-595.55" font-family="Times New Roman,serif" font-size="14.00">[8..2a)</text>
<text text-anchor="middle" x="300.14" y="-580.55" font-family="Times New Roman,serif" font-size="14.00">Count: 20</text>
<text text-anchor="middle" x="300.14" y="-565.55" font-family="Times New Roman,serif" font-size="14.00">Normalized count: 1.00</text>
<text text-anchor="middle" x="300.14" y="-550.55" font-family="Times New Roman,serif" font-size="14.00">Samples weight: 0.00</text>
</g>
<!-- BB6 -->
<g id="node7" class="node">
<title>BB6</title>
<ellipse fill="none" stroke="black" cx="234.14" cy="-444.58" rx="113.27" ry="48.17"/>
<text text-anchor="middle" x="234.14" y="-463.38" font-family="Times New Roman,serif" font-size="14.00">[7b..87)</text>
<text text-anchor="middle" x="234.14" y="-448.38" font-family="Times New Roman,serif" font-size="14.00">Count: 15620</text>
<text text-anchor="middle" x="234.14" y="-433.38" font-family="Times New Roman,serif" font-size="14.00">Normalized count: 781.00</text>
<text text-anchor="middle" x="234.14" y="-418.38" font-family="Times New Roman,serif" font-size="14.00">Samples weight: 0.04</text>
</g>
<!-- BB1&#45;&gt;BB6 -->
<g id="edge2" class="edge">
<title>BB1&#45;&gt;BB6</title>
<path fill="none" stroke="black" d="M276.87,-529.86C272.14,-520.54 267.13,-510.64 262.25,-501.04"/>
<polygon fill="black" stroke="black" points="265.29,-499.27 257.64,-491.94 259.04,-502.44 265.29,-499.27"/>
</g>
<!-- BB2 -->
<g id="node3" class="node">
<title>BB2</title>
<ellipse fill="none" stroke="black" cx="320.14" cy="-312.42" rx="113.27" ry="48.17"/>
<text text-anchor="middle" x="320.14" y="-331.22" font-family="Times New Roman,serif" font-size="14.00">[2a..2e)</text>
<text text-anchor="middle" x="320.14" y="-316.22" font-family="Times New Roman,serif" font-size="14.00">Count: 15600</text>
<text text-anchor="middle" x="320.14" y="-301.22" font-family="Times New Roman,serif" font-size="14.00">Normalized count: 780.00</text>
<text text-anchor="middle" x="320.14" y="-286.22" font-family="Times New Roman,serif" font-size="14.00">Samples weight: 0.04</text>
</g>
<!-- BB4 -->
<g id="node5" class="node">
<title>BB4</title>
<ellipse fill="none" stroke="black" cx="336.14" cy="-180.25" rx="118.17" ry="48.17"/>
<text text-anchor="middle" x="336.14" y="-199.05" font-family="Times New Roman,serif" font-size="14.00">[5d..65)</text>
<text text-anchor="middle" x="336.14" y="-184.05" font-family="Times New Roman,serif" font-size="14.00">Count: 171600</text>
<text text-anchor="middle" x="336.14" y="-169.05" font-family="Times New Roman,serif" font-size="14.00">Normalized count: 8580.00</text>
<text text-anchor="middle" x="336.14" y="-154.05" font-family="Times New Roman,serif" font-size="14.00">Samples weight: 0.46</text>
</g>
<!-- BB2&#45;&gt;BB4 -->
<g id="edge3" class="edge">
<title>BB2&#45;&gt;BB4</title>
<path fill="none" stroke="black" d="M325.96,-264.05C326.99,-255.7 328.07,-246.91 329.12,-238.32"/>
<polygon fill="black" stroke="black" points="332.6,-238.71 330.35,-228.36 325.65,-237.86 332.6,-238.71"/>
</g>
<!-- BB3 -->
<g id="node4" class="node">
<title>BB3</title>
<ellipse fill="none" stroke="black" cx="362.14" cy="-48.08" rx="118.17" ry="48.17"/>
<text text-anchor="middle" x="362.14" y="-66.88" font-family="Times New Roman,serif" font-size="14.00">[2e..5d)</text>
<text text-anchor="middle" x="362.14" y="-51.88" font-family="Times New Roman,serif" font-size="14.00">Count: 156000</text>
<text text-anchor="middle" x="362.14" y="-36.88" font-family="Times New Roman,serif" font-size="14.00">Normalized count: 7800.00</text>
<text text-anchor="middle" x="362.14" y="-21.88" font-family="Times New Roman,serif" font-size="14.00">Samples weight: 0.42</text>
</g>
<!-- BB3&#45;&gt;BB4 -->
<g id="edge4" class="edge">
<title>BB3&#45;&gt;BB4</title>
<path fill="none" stroke="black" d="M359.2,-96.44C357.74,-104.83 356.04,-113.64 354.22,-122.26"/>
<polygon fill="black" stroke="black" points="350.76,-121.74 352.04,-132.26 357.59,-123.24 350.76,-121.74"/>
</g>
<!-- BB4&#45;&gt;BB3 -->
<g id="edge5" class="edge">
<title>BB4&#45;&gt;BB3</title>
<path fill="none" stroke="black" d="M339.07,-131.89C340.56,-123.33 342.3,-114.33 344.16,-105.55"/>
<polygon fill="black" stroke="black" points="347.59,-106.27 346.31,-95.76 340.75,-104.77 347.59,-106.27"/>
</g>
<!-- BB5 -->
<g id="node6" class="node">
<title>BB5</title>
<ellipse fill="none" stroke="black" cx="113.14" cy="-48.08" rx="113.27" ry="48.17"/>
<text text-anchor="middle" x="113.14" y="-66.88" font-family="Times New Roman,serif" font-size="14.00">[65..7b)</text>
<text text-anchor="middle" x="113.14" y="-51.88" font-family="Times New Roman,serif" font-size="14.00">Count: 15600</text>
<text text-anchor="middle" x="113.14" y="-36.88" font-family="Times New Roman,serif" font-size="14.00">Normalized count: 780.00</text>
<text text-anchor="middle" x="113.14" y="-21.88" font-family="Times New Roman,serif" font-size="14.00">Samples weight: 0.04</text>
</g>
<!-- BB4&#45;&gt;BB5 -->
<g id="edge6" class="edge">
<title>BB4&#45;&gt;BB5</title>
<path fill="none" stroke="black" d="M269.53,-140.37C243.7,-125.3 214.02,-107.97 187.49,-92.49"/>
<polygon fill="black" stroke="black" points="189.03,-89.33 178.63,-87.31 185.5,-95.38 189.03,-89.33"/>
</g>
<!-- BB5&#45;&gt;BB6 -->
<g id="edge7" class="edge">
<title>BB5&#45;&gt;BB6</title>
<path fill="none" stroke="black" d="M123.77,-96.15C138.17,-157.69 165.83,-268.49 198.14,-360.5 201.27,-369.42 204.91,-378.73 208.66,-387.75"/>
<polygon fill="black" stroke="black" points="205.46,-389.18 212.58,-397.03 211.91,-386.46 205.46,-389.18"/>
</g>
<!-- BB6&#45;&gt;BB2 -->
<g id="edge8" class="edge">
<title>BB6&#45;&gt;BB2</title>
<path fill="none" stroke="black" d="M264.22,-398.06C270.72,-388.21 277.67,-377.69 284.37,-367.55"/>
<polygon fill="black" stroke="black" points="287.34,-369.41 289.93,-359.14 281.5,-365.55 287.34,-369.41"/>
</g>
<!-- BB6&#45;&gt;BB7 -->
<g id="edge9" class="edge">
<title>BB6&#45;&gt;BB7</title>
<path fill="none" stroke="black" d="M203.48,-491.29C197.17,-502.99 191.44,-515.9 188.14,-528.67 177.45,-570.05 168.92,-586.65 188.14,-624.83 196.36,-641.16 209.47,-655.09 223.88,-666.61"/>
<polygon fill="black" stroke="black" points="221.91,-669.51 232,-672.76 226.14,-663.93 221.91,-669.51"/>
</g>
<!-- BB7&#45;&gt;BB1 -->
<g id="edge10" class="edge">
<title>BB7&#45;&gt;BB1</title>
<path fill="none" stroke="black" d="M300.14,-660.55C300.14,-652.29 300.14,-643.6 300.14,-635.1"/>
<polygon fill="black" stroke="black" points="303.64,-634.86 300.14,-624.86 296.64,-634.86 303.64,-634.86"/>
</g>
<!-- BB8 -->
<g id="node9" class="node">
<title>BB8</title>
<ellipse fill="none" stroke="black" cx="524.14" cy="-576.75" rx="103.48" ry="48.17"/>
<text text-anchor="middle" x="524.14" y="-595.55" font-family="Times New Roman,serif" font-size="14.00">[93..9a)</text>
<text text-anchor="middle" x="524.14" y="-580.55" font-family="Times New Roman,serif" font-size="14.00">Count: 20</text>
<text text-anchor="middle" x="524.14" y="-565.55" font-family="Times New Roman,serif" font-size="14.00">Normalized count: 1.00</text>
<text text-anchor="middle" x="524.14" y="-550.55" font-family="Times New Roman,serif" font-size="14.00">Samples weight: 0.00</text>
</g>
<!-- BB7&#45;&gt;BB8 -->
<g id="edge11" class="edge">
<title>BB7&#45;&gt;BB8</title>
<path fill="none" stroke="black" d="M363.73,-670.96C391.16,-655.02 423.38,-636.3 451.73,-619.83"/>
<polygon fill="black" stroke="black" points="453.5,-622.84 460.39,-614.79 449.98,-616.79 453.5,-622.84"/>
</g>
</g>
</svg>
