<?xml version="1.0" encoding="UTF-8" standalone="no"?>
<!DOCTYPE svg PUBLIC "-//W3C//DTD SVG 1.1//EN"
 "http://www.w3.org/Graphics/SVG/1.1/DTD/svg11.dtd">
<!-- Generated by graphviz version 2.47.0 (20210316.0004)
 -->
<!-- Title: G Pages: 1 -->
<svg width="798pt" height="633pt"
 viewBox="0.00 0.00 798.48 632.83" xmlns="http://www.w3.org/2000/svg" xmlns:xlink="http://www.w3.org/1999/xlink">
<g id="graph0" class="graph" transform="scale(1 1) rotate(0) translate(4 628.83)">
<title>G</title>
<polygon fill="white" stroke="transparent" points="-4,4 -4,-628.83 794.48,-628.83 794.48,4 -4,4"/>
<!-- BB0 -->
<g id="node1" class="node">
<title>BB0</title>
<ellipse fill="none" stroke="black" cx="556.24" cy="-576.75" rx="103.48" ry="48.17"/>
<text text-anchor="middle" x="556.24" y="-595.55" font-family="Times New Roman,serif" font-size="14.00">[0..18)</text>
<text text-anchor="middle" x="556.24" y="-580.55" font-family="Times New Roman,serif" font-size="14.00">Count: 63</text>
<text text-anchor="middle" x="556.24" y="-565.55" font-family="Times New Roman,serif" font-size="14.00">Normalized count: 1.00</text>
<text text-anchor="middle" x="556.24" y="-550.55" font-family="Times New Roman,serif" font-size="14.00">Samples weight: 0.02</text>
</g>
<!-- BB7 -->
<g id="node8" class="node">
<title>BB7</title>
<ellipse fill="none" stroke="black" cx="556.24" cy="-444.58" rx="108.38" ry="48.17"/>
<text text-anchor="middle" x="556.24" y="-463.38" font-family="Times New Roman,serif" font-size="14.00">[64..6c)</text>
<text text-anchor="middle" x="556.24" y="-448.38" font-family="Times New Roman,serif" font-size="14.00">Count: 765</text>
<text text-anchor="middle" x="556.24" y="-433.38" font-family="Times New Roman,serif" font-size="14.00">Normalized count: 12.14</text>
<text text-anchor="middle" x="556.24" y="-418.38" font-family="Times New Roman,serif" font-size="14.00">Samples weight: 0.24</text>
</g>
<!-- BB0&#45;&gt;BB7 -->
<g id="edge1" class="edge">
<title>BB0&#45;&gt;BB7</title>
<path fill="none" stroke="black" d="M556.24,-528.39C556.24,-520.12 556.24,-511.44 556.24,-502.93"/>
<polygon fill="black" stroke="black" points="559.74,-502.69 556.24,-492.69 552.74,-502.69 559.74,-502.69"/>
</g>
<!-- BB1 -->
<g id="node2" class="node">
<title>BB1</title>
<ellipse fill="none" stroke="black" cx="420.24" cy="-312.42" rx="108.38" ry="48.17"/>
<text text-anchor="middle" x="420.24" y="-331.22" font-family="Times New Roman,serif" font-size="14.00">[18..47)</text>
<text text-anchor="middle" x="420.24" y="-316.22" font-family="Times New Roman,serif" font-size="14.00">Count: 702</text>
<text text-anchor="middle" x="420.24" y="-301.22" font-family="Times New Roman,serif" font-size="14.00">Normalized count: 11.14</text>
<text text-anchor="middle" x="420.24" y="-286.22" font-family="Times New Roman,serif" font-size="14.00">Samples weight: 0.22</text>
</g>
<!-- BB2 -->
<g id="node3" class="node">
<title>BB2</title>
<ellipse fill="none" stroke="black" cx="423.24" cy="-180.25" rx="103.48" ry="48.17"/>
<text text-anchor="middle" x="423.24" y="-199.05" font-family="Times New Roman,serif" font-size="14.00">[47..51)</text>
<text text-anchor="middle" x="423.24" y="-184.05" font-family="Times New Roman,serif" font-size="14.00">Count: 335</text>
<text text-anchor="middle" x="423.24" y="-169.05" font-family="Times New Roman,serif" font-size="14.00">Normalized count: 5.32</text>
<text text-anchor="middle" x="423.24" y="-154.05" font-family="Times New Roman,serif" font-size="14.00">Samples weight: 0.10</text>
</g>
<!-- BB1&#45;&gt;BB2 -->
<g id="edge3" class="edge">
<title>BB1&#45;&gt;BB2</title>
<path fill="none" stroke="black" d="M421.33,-264.05C421.52,-255.79 421.72,-247.1 421.92,-238.6"/>
<polygon fill="black" stroke="black" points="425.42,-238.44 422.15,-228.36 418.42,-238.27 425.42,-238.44"/>
</g>
<!-- BB4 -->
<g id="node5" class="node">
<title>BB4</title>
<ellipse fill="none" stroke="black" cx="199.24" cy="-180.25" rx="103.48" ry="48.17"/>
<text text-anchor="middle" x="199.24" y="-199.05" font-family="Times New Roman,serif" font-size="14.00">[56..5e)</text>
<text text-anchor="middle" x="199.24" y="-184.05" font-family="Times New Roman,serif" font-size="14.00">Count: 367</text>
<text text-anchor="middle" x="199.24" y="-169.05" font-family="Times New Roman,serif" font-size="14.00">Normalized count: 5.83</text>
<text text-anchor="middle" x="199.24" y="-154.05" font-family="Times New Roman,serif" font-size="14.00">Samples weight: 0.11</text>
</g>
<!-- BB1&#45;&gt;BB4 -->
<g id="edge2" class="edge">
<title>BB1&#45;&gt;BB4</title>
<path fill="none" stroke="black" d="M356.02,-273.59C329.45,-257.95 298.53,-239.73 271.21,-223.64"/>
<polygon fill="black" stroke="black" points="272.86,-220.55 262.47,-218.49 269.31,-226.58 272.86,-220.55"/>
</g>
<!-- BB3 -->
<g id="node4" class="node">
<title>BB3</title>
<ellipse fill="none" stroke="black" cx="327.24" cy="-48.08" rx="103.48" ry="48.17"/>
<text text-anchor="middle" x="327.24" y="-66.88" font-family="Times New Roman,serif" font-size="14.00">[51..56)</text>
<text text-anchor="middle" x="327.24" y="-51.88" font-family="Times New Roman,serif" font-size="14.00">Count: 162</text>
<text text-anchor="middle" x="327.24" y="-36.88" font-family="Times New Roman,serif" font-size="14.00">Normalized count: 2.57</text>
<text text-anchor="middle" x="327.24" y="-21.88" font-family="Times New Roman,serif" font-size="14.00">Samples weight: 0.05</text>
</g>
<!-- BB2&#45;&gt;BB3 -->
<g id="edge5" class="edge">
<title>BB2&#45;&gt;BB3</title>
<path fill="none" stroke="black" d="M390.2,-134.45C382.51,-124.02 374.24,-112.82 366.32,-102.07"/>
<polygon fill="black" stroke="black" points="369.09,-99.93 360.34,-93.96 363.45,-104.09 369.09,-99.93"/>
</g>
<!-- BB6 -->
<g id="node7" class="node">
<title>BB6</title>
<ellipse fill="none" stroke="black" cx="556.24" cy="-48.08" rx="108.38" ry="48.17"/>
<text text-anchor="middle" x="556.24" y="-66.88" font-family="Times New Roman,serif" font-size="14.00">[60..64)</text>
<text text-anchor="middle" x="556.24" y="-51.88" font-family="Times New Roman,serif" font-size="14.00">Count: 702</text>
<text text-anchor="middle" x="556.24" y="-36.88" font-family="Times New Roman,serif" font-size="14.00">Normalized count: 11.14</text>
<text text-anchor="middle" x="556.24" y="-21.88" font-family="Times New Roman,serif" font-size="14.00">Samples weight: 0.22</text>
</g>
<!-- BB2&#45;&gt;BB6 -->
<g id="edge4" class="edge">
<title>BB2&#45;&gt;BB6</title>
<path fill="none" stroke="black" d="M466.79,-136.63C478.95,-124.73 492.27,-111.69 504.84,-99.39"/>
<polygon fill="black" stroke="black" points="507.44,-101.74 512.14,-92.25 502.54,-96.74 507.44,-101.74"/>
</g>
<!-- BB3&#45;&gt;BB6 -->
<g id="edge6" class="edge">
<title>BB3&#45;&gt;BB6</title>
<path fill="none" stroke="black" d="M430.56,-48.08C432.88,-48.08 435.21,-48.08 437.54,-48.08"/>
<polygon fill="black" stroke="black" points="437.74,-51.58 447.74,-48.08 437.74,-44.58 437.74,-51.58"/>
</g>
<!-- BB5 -->
<g id="node6" class="node">
<title>BB5</title>
<ellipse fill="none" stroke="black" cx="103.24" cy="-48.08" rx="103.48" ry="48.17"/>
<text text-anchor="middle" x="103.24" y="-66.88" font-family="Times New Roman,serif" font-size="14.00">[5e..60)</text>
<text text-anchor="middle" x="103.24" y="-51.88" font-family="Times New Roman,serif" font-size="14.00">Count: 78</text>
<text text-anchor="middle" x="103.24" y="-36.88" font-family="Times New Roman,serif" font-size="14.00">Normalized count: 1.24</text>
<text text-anchor="middle" x="103.24" y="-21.88" font-family="Times New Roman,serif" font-size="14.00">Samples weight: 0.02</text>
</g>
<!-- BB4&#45;&gt;BB5 -->
<g id="edge8" class="edge">
<title>BB4&#45;&gt;BB5</title>
<path fill="none" stroke="black" d="M166.2,-134.45C158.51,-124.02 150.24,-112.82 142.32,-102.07"/>
<polygon fill="black" stroke="black" points="145.09,-99.93 136.34,-93.96 139.45,-104.09 145.09,-99.93"/>
</g>
<!-- BB4&#45;&gt;BB6 -->
<g id="edge7" class="edge">
<title>BB4&#45;&gt;BB6</title>
<path fill="none" stroke="black" d="M273.14,-146.67C285.75,-141.54 298.79,-136.51 311.24,-132.17 367.03,-112.68 383.3,-115.23 439.24,-96.17 448.98,-92.85 459.08,-89.16 469.09,-85.36"/>
<polygon fill="black" stroke="black" points="470.57,-88.54 478.64,-81.68 468.05,-82.01 470.57,-88.54"/>
</g>
<!-- BB5&#45;&gt;BB6 -->
<g id="edge9" class="edge">
<title>BB5&#45;&gt;BB6</title>
<path fill="none" stroke="black" d="M162.01,-87.82C181.04,-98.54 202.79,-108.69 224.24,-114.17 312.95,-136.81 341.34,-136.06 430.24,-114.17 449.13,-109.51 468.33,-101.47 485.85,-92.56"/>
<polygon fill="black" stroke="black" points="487.62,-95.58 494.85,-87.83 484.37,-89.38 487.62,-95.58"/>
</g>
<!-- BB6&#45;&gt;BB7 -->
<g id="edge10" class="edge">
<title>BB6&#45;&gt;BB7</title>
<path fill="none" stroke="black" d="M556.24,-96.33C556.24,-168.98 556.24,-307.9 556.24,-386.22"/>
<polygon fill="black" stroke="black" points="552.74,-386.39 556.24,-396.39 559.74,-386.39 552.74,-386.39"/>
</g>
<!-- BB7&#45;&gt;BB1 -->
<g id="edge11" class="edge">
<title>BB7&#45;&gt;BB1</title>
<path fill="none" stroke="black" d="M511.33,-400.6C498.91,-388.72 485.33,-375.71 472.53,-363.46"/>
<polygon fill="black" stroke="black" points="474.74,-360.74 465.1,-356.35 469.9,-365.8 474.74,-360.74"/>
</g>
<!-- BB8 -->
<g id="node9" class="node">
<title>BB8</title>
<ellipse fill="none" stroke="black" cx="687.24" cy="-312.42" rx="103.48" ry="48.17"/>
<text text-anchor="middle" x="687.24" y="-331.22" font-family="Times New Roman,serif" font-size="14.00">[6c..84)</text>
<text text-anchor="middle" x="687.24" y="-316.22" font-family="Times New Roman,serif" font-size="14.00">Count: 63</text>
<text text-anchor="middle" x="687.24" y="-301.22" font-family="Times New Roman,serif" font-size="14.00">Normalized count: 1.00</text>
<text text-anchor="middle" x="687.24" y="-286.22" font-family="Times New Roman,serif" font-size="14.00">Samples weight: 0.02</text>
</g>
<!-- BB7&#45;&gt;BB8 -->
<g id="edge12" class="edge">
<title>BB7&#45;&gt;BB8</title>
<path fill="none" stroke="black" d="M599.86,-400.24C611.57,-388.6 624.34,-375.92 636.4,-363.93"/>
<polygon fill="black" stroke="black" points="639.18,-366.1 643.81,-356.57 634.25,-361.14 639.18,-366.1"/>
</g>
</g>
</svg>
