<?xml version="1.0" encoding="UTF-8" standalone="no"?>
<!DOCTYPE svg PUBLIC "-//W3C//DTD SVG 1.1//EN"
 "http://www.w3.org/Graphics/SVG/1.1/DTD/svg11.dtd">
<!-- Generated by graphviz version 2.47.0 (20210316.0004)
 -->
<!-- Title: G Pages: 1 -->
<svg width="626pt" height="897pt"
 viewBox="0.00 0.00 626.42 897.17" xmlns="http://www.w3.org/2000/svg" xmlns:xlink="http://www.w3.org/1999/xlink">
<g id="graph0" class="graph" transform="scale(1 1) rotate(0) translate(4 893.17)">
<title>G</title>
<polygon fill="white" stroke="transparent" points="-4,4 -4,-893.17 622.42,-893.17 622.42,4 -4,4"/>
<!-- BB0 -->
<g id="node1" class="node">
<title>BB0</title>
<ellipse fill="none" stroke="black" cx="291.19" cy="-841.08" rx="103.48" ry="48.17"/>
<text text-anchor="middle" x="291.19" y="-859.88" font-family="Times New Roman,serif" font-size="14.00">[0..8)</text>
<text text-anchor="middle" x="291.19" y="-844.88" font-family="Times New Roman,serif" font-size="14.00">Count: 2</text>
<text text-anchor="middle" x="291.19" y="-829.88" font-family="Times New Roman,serif" font-size="14.00">Normalized count: 1.00</text>
<text text-anchor="middle" x="291.19" y="-814.88" font-family="Times New Roman,serif" font-size="14.00">Samples weight: 0.00</text>
</g>
<!-- BB7 -->
<g id="node8" class="node">
<title>BB7</title>
<ellipse fill="none" stroke="black" cx="291.19" cy="-708.92" rx="103.48" ry="48.17"/>
<text text-anchor="middle" x="291.19" y="-727.72" font-family="Times New Roman,serif" font-size="14.00">[87..93)</text>
<text text-anchor="middle" x="291.19" y="-712.72" font-family="Times New Roman,serif" font-size="14.00">Count: 3</text>
<text text-anchor="middle" x="291.19" y="-697.72" font-family="Times New Roman,serif" font-size="14.00">Normalized count: 1.50</text>
<text text-anchor="middle" x="291.19" y="-682.72" font-family="Times New Roman,serif" font-size="14.00">Samples weight: 0.00</text>
</g>
<!-- BB0&#45;&gt;BB7 -->
<g id="edge1" class="edge">
<title>BB0&#45;&gt;BB7</title>
<path fill="none" stroke="black" d="M291.19,-792.72C291.19,-784.45 291.19,-775.77 291.19,-767.27"/>
<polygon fill="black" stroke="black" points="294.69,-767.02 291.19,-757.02 287.69,-767.02 294.69,-767.02"/>
</g>
<!-- BB1 -->
<g id="node2" class="node">
<title>BB1</title>
<ellipse fill="none" stroke="black" cx="291.19" cy="-576.75" rx="103.48" ry="48.17"/>
<text text-anchor="middle" x="291.19" y="-595.55" font-family="Times New Roman,serif" font-size="14.00">[8..2a)</text>
<text text-anchor="middle" x="291.19" y="-580.55" font-family="Times New Roman,serif" font-size="14.00">Count: 1</text>
<text text-anchor="middle" x="291.19" y="-565.55" font-family="Times New Roman,serif" font-size="14.00">Normalized count: 0.50</text>
<text text-anchor="middle" x="291.19" y="-550.55" font-family="Times New Roman,serif" font-size="14.00">Samples weight: 0.00</text>
</g>
<!-- BB6 -->
<g id="node7" class="node">
<title>BB6</title>
<ellipse fill="none" stroke="black" cx="225.19" cy="-444.58" rx="108.38" ry="48.17"/>
<text text-anchor="middle" x="225.19" y="-463.38" font-family="Times New Roman,serif" font-size="14.00">[7b..87)</text>
<text text-anchor="middle" x="225.19" y="-448.38" font-family="Times New Roman,serif" font-size="14.00">Count: 39</text>
<text text-anchor="middle" x="225.19" y="-433.38" font-family="Times New Roman,serif" font-size="14.00">Normalized count: 19.50</text>
<text text-anchor="middle" x="225.19" y="-418.38" font-family="Times New Roman,serif" font-size="14.00">Samples weight: 0.02</text>
</g>
<!-- BB1&#45;&gt;BB6 -->
<g id="edge2" class="edge">
<title>BB1&#45;&gt;BB6</title>
<path fill="none" stroke="black" d="M267.92,-529.86C263.19,-520.54 258.18,-510.64 253.3,-501.04"/>
<polygon fill="black" stroke="black" points="256.34,-499.27 248.69,-491.94 250.09,-502.44 256.34,-499.27"/>
</g>
<!-- BB2 -->
<g id="node3" class="node">
<title>BB2</title>
<ellipse fill="none" stroke="black" cx="307.19" cy="-312.42" rx="108.38" ry="48.17"/>
<text text-anchor="middle" x="307.19" y="-331.22" font-family="Times New Roman,serif" font-size="14.00">[2a..2e)</text>
<text text-anchor="middle" x="307.19" y="-316.22" font-family="Times New Roman,serif" font-size="14.00">Count: 38</text>
<text text-anchor="middle" x="307.19" y="-301.22" font-family="Times New Roman,serif" font-size="14.00">Normalized count: 19.00</text>
<text text-anchor="middle" x="307.19" y="-286.22" font-family="Times New Roman,serif" font-size="14.00">Samples weight: 0.02</text>
</g>
<!-- BB4 -->
<g id="node5" class="node">
<title>BB4</title>
<ellipse fill="none" stroke="black" cx="322.19" cy="-180.25" rx="113.27" ry="48.17"/>
<text text-anchor="middle" x="322.19" y="-199.05" font-family="Times New Roman,serif" font-size="14.00">[5d..65)</text>
<text text-anchor="middle" x="322.19" y="-184.05" font-family="Times New Roman,serif" font-size="14.00">Count: 812</text>
<text text-anchor="middle" x="322.19" y="-169.05" font-family="Times New Roman,serif" font-size="14.00">Normalized count: 406.00</text>
<text text-anchor="middle" x="322.19" y="-154.05" font-family="Times New Roman,serif" font-size="14.00">Samples weight: 0.48</text>
</g>
<!-- BB2&#45;&gt;BB4 -->
<g id="edge3" class="edge">
<title>BB2&#45;&gt;BB4</title>
<path fill="none" stroke="black" d="M312.65,-264.05C313.61,-255.7 314.62,-246.91 315.61,-238.32"/>
<polygon fill="black" stroke="black" points="319.09,-238.69 316.76,-228.36 312.14,-237.89 319.09,-238.69"/>
</g>
<!-- BB3 -->
<g id="node4" class="node">
<title>BB3</title>
<ellipse fill="none" stroke="black" cx="347.19" cy="-48.08" rx="113.27" ry="48.17"/>
<text text-anchor="middle" x="347.19" y="-66.88" font-family="Times New Roman,serif" font-size="14.00">[2e..5d)</text>
<text text-anchor="middle" x="347.19" y="-51.88" font-family="Times New Roman,serif" font-size="14.00">Count: 774</text>
<text text-anchor="middle" x="347.19" y="-36.88" font-family="Times New Roman,serif" font-size="14.00">Normalized count: 387.00</text>
<text text-anchor="middle" x="347.19" y="-21.88" font-family="Times New Roman,serif" font-size="14.00">Samples weight: 0.45</text>
</g>
<!-- BB3&#45;&gt;BB4 -->
<g id="edge4" class="edge">
<title>BB3&#45;&gt;BB4</title>
<path fill="none" stroke="black" d="M344.61,-96.44C343.22,-104.83 341.59,-113.64 339.84,-122.26"/>
<polygon fill="black" stroke="black" points="336.37,-121.75 337.73,-132.26 343.22,-123.2 336.37,-121.75"/>
</g>
<!-- BB4&#45;&gt;BB3 -->
<g id="edge5" class="edge">
<title>BB4&#45;&gt;BB3</title>
<path fill="none" stroke="black" d="M324.76,-131.89C326.18,-123.33 327.85,-114.33 329.65,-105.55"/>
<polygon fill="black" stroke="black" points="333.07,-106.26 331.72,-95.76 326.22,-104.81 333.07,-106.26"/>
</g>
<!-- BB5 -->
<g id="node6" class="node">
<title>BB5</title>
<ellipse fill="none" stroke="black" cx="108.19" cy="-48.08" rx="108.38" ry="48.17"/>
<text text-anchor="middle" x="108.19" y="-66.88" font-family="Times New Roman,serif" font-size="14.00">[65..7b)</text>
<text text-anchor="middle" x="108.19" y="-51.88" font-family="Times New Roman,serif" font-size="14.00">Count: 38</text>
<text text-anchor="middle" x="108.19" y="-36.88" font-family="Times New Roman,serif" font-size="14.00">Normalized count: 19.00</text>
<text text-anchor="middle" x="108.19" y="-21.88" font-family="Times New Roman,serif" font-size="14.00">Samples weight: 0.02</text>
</g>
<!-- BB4&#45;&gt;BB5 -->
<g id="edge6" class="edge">
<title>BB4&#45;&gt;BB5</title>
<path fill="none" stroke="black" d="M258.27,-140.37C233.59,-125.36 205.24,-108.12 179.88,-92.69"/>
<polygon fill="black" stroke="black" points="181.4,-89.52 171.04,-87.31 177.76,-95.5 181.4,-89.52"/>
</g>
<!-- BB5&#45;&gt;BB6 -->
<g id="edge7" class="edge">
<title>BB5&#45;&gt;BB6</title>
<path fill="none" stroke="black" d="M118.39,-96.12C132.22,-157.64 158.84,-268.41 190.19,-360.5 193.22,-369.41 196.76,-378.71 200.4,-387.74"/>
<polygon fill="black" stroke="black" points="197.17,-389.1 204.21,-397.01 203.64,-386.43 197.17,-389.1"/>
</g>
<!-- BB6&#45;&gt;BB2 -->
<g id="edge8" class="edge">
<title>BB6&#45;&gt;BB2</title>
<path fill="none" stroke="black" d="M253.87,-398.06C260.01,-388.3 266.56,-377.91 272.89,-367.85"/>
<polygon fill="black" stroke="black" points="276.02,-369.46 278.39,-359.14 270.09,-365.73 276.02,-369.46"/>
</g>
<!-- BB6&#45;&gt;BB7 -->
<g id="edge9" class="edge">
<title>BB6&#45;&gt;BB7</title>
<path fill="none" stroke="black" d="M194.77,-490.85C188.36,-502.67 182.53,-515.74 179.19,-528.67 168.5,-570.05 159.97,-586.65 179.19,-624.83 187.41,-641.16 200.52,-655.09 214.93,-666.61"/>
<polygon fill="black" stroke="black" points="212.96,-669.51 223.05,-672.76 217.19,-663.93 212.96,-669.51"/>
</g>
<!-- BB7&#45;&gt;BB1 -->
<g id="edge10" class="edge">
<title>BB7&#45;&gt;BB1</title>
<path fill="none" stroke="black" d="M291.19,-660.55C291.19,-652.29 291.19,-643.6 291.19,-635.1"/>
<polygon fill="black" stroke="black" points="294.69,-634.86 291.19,-624.86 287.69,-634.86 294.69,-634.86"/>
</g>
<!-- BB8 -->
<g id="node9" class="node">
<title>BB8</title>
<ellipse fill="none" stroke="black" cx="515.19" cy="-576.75" rx="103.48" ry="48.17"/>
<text text-anchor="middle" x="515.19" y="-595.55" font-family="Times New Roman,serif" font-size="14.00">[93..9a)</text>
<text text-anchor="middle" x="515.19" y="-580.55" font-family="Times New Roman,serif" font-size="14.00">Count: 2</text>
<text text-anchor="middle" x="515.19" y="-565.55" font-family="Times New Roman,serif" font-size="14.00">Normalized count: 1.00</text>
<text text-anchor="middle" x="515.19" y="-550.55" font-family="Times New Roman,serif" font-size="14.00">Samples weight: 0.00</text>
</g>
<!-- BB7&#45;&gt;BB8 -->
<g id="edge11" class="edge">
<title>BB7&#45;&gt;BB8</title>
<path fill="none" stroke="black" d="M354.78,-670.96C382.21,-655.02 414.43,-636.3 442.78,-619.83"/>
<polygon fill="black" stroke="black" points="444.55,-622.84 451.44,-614.79 441.03,-616.79 444.55,-622.84"/>
</g>
</g>
</svg>
