<?xml version="1.0" encoding="UTF-8" standalone="no"?>
<!DOCTYPE svg PUBLIC "-//W3C//DTD SVG 1.1//EN"
 "http://www.w3.org/Graphics/SVG/1.1/DTD/svg11.dtd">
<!-- Generated by graphviz version 2.47.0 (20210316.0004)
 -->
<!-- Title: G Pages: 1 -->
<svg width="656pt" height="633pt"
 viewBox="0.00 0.00 656.50 632.83" xmlns="http://www.w3.org/2000/svg" xmlns:xlink="http://www.w3.org/1999/xlink">
<g id="graph0" class="graph" transform="scale(1 1) rotate(0) translate(4 628.83)">
<title>G</title>
<polygon fill="white" stroke="transparent" points="-4,4 -4,-628.83 652.5,-628.83 652.5,4 -4,4"/>
<!-- BB0 -->
<g id="node1" class="node">
<title>BB0</title>
<ellipse fill="none" stroke="black" cx="307.84" cy="-576.75" rx="104.8" ry="48.17"/>
<text text-anchor="middle" x="307.84" y="-595.55" font-family="Times New Roman,serif" font-size="14.00">[0..4)</text>
<text text-anchor="middle" x="307.84" y="-580.55" font-family="Times New Roman,serif" font-size="14.00">Count: 0</text>
<text text-anchor="middle" x="307.84" y="-565.55" font-family="Times New Roman,serif" font-size="14.00">Normalized count: NaN</text>
<text text-anchor="middle" x="307.84" y="-550.55" font-family="Times New Roman,serif" font-size="14.00">Samples weight: 0.00</text>
</g>
<!-- BB5 -->
<g id="node6" class="node">
<title>BB5</title>
<ellipse fill="none" stroke="black" cx="307.84" cy="-444.58" rx="113.69" ry="48.17"/>
<text text-anchor="middle" x="307.84" y="-463.38" font-family="Times New Roman,serif" font-size="14.00">[62..6a)</text>
<text text-anchor="middle" x="307.84" y="-448.38" font-family="Times New Roman,serif" font-size="14.00">Count: 1</text>
<text text-anchor="middle" x="307.84" y="-433.38" font-family="Times New Roman,serif" font-size="14.00">Normalized count: Infinity</text>
<text text-anchor="middle" x="307.84" y="-418.38" font-family="Times New Roman,serif" font-size="14.00">Samples weight: 0.01</text>
</g>
<!-- BB0&#45;&gt;BB5 -->
<g id="edge1" class="edge">
<title>BB0&#45;&gt;BB5</title>
<path fill="none" stroke="black" d="M307.84,-528.39C307.84,-520.12 307.84,-511.44 307.84,-502.93"/>
<polygon fill="black" stroke="black" points="311.34,-502.69 307.84,-492.69 304.34,-502.69 311.34,-502.69"/>
</g>
<!-- BB1 -->
<g id="node2" class="node">
<title>BB1</title>
<ellipse fill="none" stroke="black" cx="307.84" cy="-312.42" rx="113.69" ry="48.17"/>
<text text-anchor="middle" x="307.84" y="-331.22" font-family="Times New Roman,serif" font-size="14.00">[4..12)</text>
<text text-anchor="middle" x="307.84" y="-316.22" font-family="Times New Roman,serif" font-size="14.00">Count: 1</text>
<text text-anchor="middle" x="307.84" y="-301.22" font-family="Times New Roman,serif" font-size="14.00">Normalized count: Infinity</text>
<text text-anchor="middle" x="307.84" y="-286.22" font-family="Times New Roman,serif" font-size="14.00">Samples weight: 0.01</text>
</g>
<!-- BB3 -->
<g id="node4" class="node">
<title>BB3</title>
<ellipse fill="none" stroke="black" cx="333.84" cy="-180.25" rx="113.69" ry="48.17"/>
<text text-anchor="middle" x="333.84" y="-199.05" font-family="Times New Roman,serif" font-size="14.00">[32..3a)</text>
<text text-anchor="middle" x="333.84" y="-184.05" font-family="Times New Roman,serif" font-size="14.00">Count: 17</text>
<text text-anchor="middle" x="333.84" y="-169.05" font-family="Times New Roman,serif" font-size="14.00">Normalized count: Infinity</text>
<text text-anchor="middle" x="333.84" y="-154.05" font-family="Times New Roman,serif" font-size="14.00">Samples weight: 0.13</text>
</g>
<!-- BB1&#45;&gt;BB3 -->
<g id="edge2" class="edge">
<title>BB1&#45;&gt;BB3</title>
<path fill="none" stroke="black" d="M317.23,-264.42C318.94,-255.85 320.75,-246.83 322.51,-238.01"/>
<polygon fill="black" stroke="black" points="325.94,-238.67 324.47,-228.17 319.08,-237.29 325.94,-238.67"/>
</g>
<!-- BB2 -->
<g id="node3" class="node">
<title>BB2</title>
<ellipse fill="none" stroke="black" cx="359.84" cy="-48.08" rx="113.69" ry="48.17"/>
<text text-anchor="middle" x="359.84" y="-66.88" font-family="Times New Roman,serif" font-size="14.00">[12..32)</text>
<text text-anchor="middle" x="359.84" y="-51.88" font-family="Times New Roman,serif" font-size="14.00">Count: 103</text>
<text text-anchor="middle" x="359.84" y="-36.88" font-family="Times New Roman,serif" font-size="14.00">Normalized count: Infinity</text>
<text text-anchor="middle" x="359.84" y="-21.88" font-family="Times New Roman,serif" font-size="14.00">Samples weight: 0.78</text>
</g>
<!-- BB2&#45;&gt;BB3 -->
<g id="edge3" class="edge">
<title>BB2&#45;&gt;BB3</title>
<path fill="none" stroke="black" d="M356.94,-96.26C355.45,-104.86 353.7,-113.92 351.82,-122.77"/>
<polygon fill="black" stroke="black" points="348.39,-122.11 349.66,-132.62 355.22,-123.61 348.39,-122.11"/>
</g>
<!-- BB3&#45;&gt;BB2 -->
<g id="edge4" class="edge">
<title>BB3&#45;&gt;BB2</title>
<path fill="none" stroke="black" d="M336.78,-131.89C338.27,-123.33 340.01,-114.33 341.87,-105.55"/>
<polygon fill="black" stroke="black" points="345.29,-106.27 344.02,-95.76 338.46,-104.77 345.29,-106.27"/>
</g>
<!-- BB4 -->
<g id="node5" class="node">
<title>BB4</title>
<ellipse fill="none" stroke="black" cx="113.84" cy="-48.08" rx="113.69" ry="48.17"/>
<text text-anchor="middle" x="113.84" y="-66.88" font-family="Times New Roman,serif" font-size="14.00">[3a..62)</text>
<text text-anchor="middle" x="113.84" y="-51.88" font-family="Times New Roman,serif" font-size="14.00">Count: 10</text>
<text text-anchor="middle" x="113.84" y="-36.88" font-family="Times New Roman,serif" font-size="14.00">Normalized count: Infinity</text>
<text text-anchor="middle" x="113.84" y="-21.88" font-family="Times New Roman,serif" font-size="14.00">Samples weight: 0.08</text>
</g>
<!-- BB3&#45;&gt;BB4 -->
<g id="edge5" class="edge">
<title>BB3&#45;&gt;BB4</title>
<path fill="none" stroke="black" d="M268.73,-140.72C243.34,-125.7 214.11,-108.41 187.92,-92.91"/>
<polygon fill="black" stroke="black" points="189.56,-89.82 179.17,-87.74 186,-95.84 189.56,-89.82"/>
</g>
<!-- BB4&#45;&gt;BB5 -->
<g id="edge6" class="edge">
<title>BB4&#45;&gt;BB5</title>
<path fill="none" stroke="black" d="M114.1,-96.34C116.64,-161.31 129.31,-279.4 184.84,-360.5 195.75,-376.43 210.82,-390.16 226.67,-401.6"/>
<polygon fill="black" stroke="black" points="224.79,-404.56 235.01,-407.38 228.78,-398.81 224.79,-404.56"/>
</g>
<!-- BB5&#45;&gt;BB1 -->
<g id="edge7" class="edge">
<title>BB5&#45;&gt;BB1</title>
<path fill="none" stroke="black" d="M307.84,-396.22C307.84,-387.95 307.84,-379.27 307.84,-370.77"/>
<polygon fill="black" stroke="black" points="311.34,-370.52 307.84,-360.52 304.34,-370.52 311.34,-370.52"/>
</g>
<!-- BB6 -->
<g id="node7" class="node">
<title>BB6</title>
<ellipse fill="none" stroke="black" cx="543.84" cy="-312.42" rx="104.8" ry="48.17"/>
<text text-anchor="middle" x="543.84" y="-331.22" font-family="Times New Roman,serif" font-size="14.00">[6a..6b)</text>
<text text-anchor="middle" x="543.84" y="-316.22" font-family="Times New Roman,serif" font-size="14.00">Count: 0</text>
<text text-anchor="middle" x="543.84" y="-301.22" font-family="Times New Roman,serif" font-size="14.00">Normalized count: NaN</text>
<text text-anchor="middle" x="543.84" y="-286.22" font-family="Times New Roman,serif" font-size="14.00">Samples weight: 0.00</text>
</g>
<!-- BB5&#45;&gt;BB6 -->
<g id="edge8" class="edge">
<title>BB5&#45;&gt;BB6</title>
<path fill="none" stroke="black" d="M376.11,-405.93C405.1,-389.94 438.99,-371.25 468.7,-354.86"/>
<polygon fill="black" stroke="black" points="470.7,-357.75 477.77,-349.86 467.32,-351.63 470.7,-357.75"/>
</g>
</g>
</svg>
