<?xml version="1.0" encoding="UTF-8" standalone="no"?>
<!DOCTYPE svg PUBLIC "-//W3C//DTD SVG 1.1//EN"
 "http://www.w3.org/Graphics/SVG/1.1/DTD/svg11.dtd">
<!-- Generated by graphviz version 2.47.0 (20210316.0004)
 -->
<!-- Title: G Pages: 1 -->
<svg width="623pt" height="633pt"
 viewBox="0.00 0.00 623.48 632.83" xmlns="http://www.w3.org/2000/svg" xmlns:xlink="http://www.w3.org/1999/xlink">
<g id="graph0" class="graph" transform="scale(1 1) rotate(0) translate(4 628.83)">
<title>G</title>
<polygon fill="white" stroke="transparent" points="-4,4 -4,-628.83 619.48,-628.83 619.48,4 -4,4"/>
<!-- BB0 -->
<g id="node1" class="node">
<title>BB0</title>
<ellipse fill="none" stroke="black" cx="288.24" cy="-576.75" rx="103.48" ry="48.17"/>
<text text-anchor="middle" x="288.24" y="-595.55" font-family="Times New Roman,serif" font-size="14.00">[0..10)</text>
<text text-anchor="middle" x="288.24" y="-580.55" font-family="Times New Roman,serif" font-size="14.00">Count: 77</text>
<text text-anchor="middle" x="288.24" y="-565.55" font-family="Times New Roman,serif" font-size="14.00">Normalized count: 1.00</text>
<text text-anchor="middle" x="288.24" y="-550.55" font-family="Times New Roman,serif" font-size="14.00">Samples weight: 0.00</text>
</g>
<!-- BB5 -->
<g id="node6" class="node">
<title>BB5</title>
<ellipse fill="none" stroke="black" cx="288.24" cy="-444.58" rx="103.48" ry="48.17"/>
<text text-anchor="middle" x="288.24" y="-463.38" font-family="Times New Roman,serif" font-size="14.00">[73..7b)</text>
<text text-anchor="middle" x="288.24" y="-448.38" font-family="Times New Roman,serif" font-size="14.00">Count: 454</text>
<text text-anchor="middle" x="288.24" y="-433.38" font-family="Times New Roman,serif" font-size="14.00">Normalized count: 5.90</text>
<text text-anchor="middle" x="288.24" y="-418.38" font-family="Times New Roman,serif" font-size="14.00">Samples weight: 0.00</text>
</g>
<!-- BB0&#45;&gt;BB5 -->
<g id="edge1" class="edge">
<title>BB0&#45;&gt;BB5</title>
<path fill="none" stroke="black" d="M288.24,-528.39C288.24,-520.12 288.24,-511.44 288.24,-502.93"/>
<polygon fill="black" stroke="black" points="291.74,-502.69 288.24,-492.69 284.74,-502.69 291.74,-502.69"/>
</g>
<!-- BB1 -->
<g id="node2" class="node">
<title>BB1</title>
<ellipse fill="none" stroke="black" cx="288.24" cy="-312.42" rx="103.48" ry="48.17"/>
<text text-anchor="middle" x="288.24" y="-331.22" font-family="Times New Roman,serif" font-size="14.00">[10..14)</text>
<text text-anchor="middle" x="288.24" y="-316.22" font-family="Times New Roman,serif" font-size="14.00">Count: 464</text>
<text text-anchor="middle" x="288.24" y="-301.22" font-family="Times New Roman,serif" font-size="14.00">Normalized count: 6.03</text>
<text text-anchor="middle" x="288.24" y="-286.22" font-family="Times New Roman,serif" font-size="14.00">Samples weight: 0.00</text>
</g>
<!-- BB3 -->
<g id="node4" class="node">
<title>BB3</title>
<ellipse fill="none" stroke="black" cx="317.24" cy="-180.25" rx="113.27" ry="48.17"/>
<text text-anchor="middle" x="317.24" y="-199.05" font-family="Times New Roman,serif" font-size="14.00">[67..6f)</text>
<text text-anchor="middle" x="317.24" y="-184.05" font-family="Times New Roman,serif" font-size="14.00">Count: 16411</text>
<text text-anchor="middle" x="317.24" y="-169.05" font-family="Times New Roman,serif" font-size="14.00">Normalized count: 213.13</text>
<text text-anchor="middle" x="317.24" y="-154.05" font-family="Times New Roman,serif" font-size="14.00">Samples weight: 0.16</text>
</g>
<!-- BB1&#45;&gt;BB3 -->
<g id="edge2" class="edge">
<title>BB1&#45;&gt;BB3</title>
<path fill="none" stroke="black" d="M298.71,-264.42C300.62,-255.85 302.63,-246.83 304.59,-238.01"/>
<polygon fill="black" stroke="black" points="308.02,-238.7 306.78,-228.17 301.19,-237.17 308.02,-238.7"/>
</g>
<!-- BB2 -->
<g id="node3" class="node">
<title>BB2</title>
<ellipse fill="none" stroke="black" cx="342.24" cy="-48.08" rx="118.17" ry="48.17"/>
<text text-anchor="middle" x="342.24" y="-66.88" font-family="Times New Roman,serif" font-size="14.00">[14..67)</text>
<text text-anchor="middle" x="342.24" y="-51.88" font-family="Times New Roman,serif" font-size="14.00">Count: 82522</text>
<text text-anchor="middle" x="342.24" y="-36.88" font-family="Times New Roman,serif" font-size="14.00">Normalized count: 1071.71</text>
<text text-anchor="middle" x="342.24" y="-21.88" font-family="Times New Roman,serif" font-size="14.00">Samples weight: 0.82</text>
</g>
<!-- BB2&#45;&gt;BB3 -->
<g id="edge3" class="edge">
<title>BB2&#45;&gt;BB3</title>
<path fill="none" stroke="black" d="M339.66,-96.44C338.27,-104.83 336.64,-113.64 334.89,-122.26"/>
<polygon fill="black" stroke="black" points="331.42,-121.75 332.78,-132.26 338.27,-123.2 331.42,-121.75"/>
</g>
<!-- BB3&#45;&gt;BB2 -->
<g id="edge4" class="edge">
<title>BB3&#45;&gt;BB2</title>
<path fill="none" stroke="black" d="M319.81,-131.89C321.23,-123.33 322.9,-114.33 324.7,-105.55"/>
<polygon fill="black" stroke="black" points="328.12,-106.26 326.77,-95.76 321.27,-104.81 328.12,-106.26"/>
</g>
<!-- BB4 -->
<g id="node5" class="node">
<title>BB4</title>
<ellipse fill="none" stroke="black" cx="103.24" cy="-48.08" rx="103.48" ry="48.17"/>
<text text-anchor="middle" x="103.24" y="-66.88" font-family="Times New Roman,serif" font-size="14.00">[6f..73)</text>
<text text-anchor="middle" x="103.24" y="-51.88" font-family="Times New Roman,serif" font-size="14.00">Count: 377</text>
<text text-anchor="middle" x="103.24" y="-36.88" font-family="Times New Roman,serif" font-size="14.00">Normalized count: 4.90</text>
<text text-anchor="middle" x="103.24" y="-21.88" font-family="Times New Roman,serif" font-size="14.00">Samples weight: 0.00</text>
</g>
<!-- BB3&#45;&gt;BB4 -->
<g id="edge5" class="edge">
<title>BB3&#45;&gt;BB4</title>
<path fill="none" stroke="black" d="M253.32,-140.37C228.2,-125.09 199.28,-107.5 173.57,-91.87"/>
<polygon fill="black" stroke="black" points="175.35,-88.85 164.99,-86.64 171.71,-94.83 175.35,-88.85"/>
</g>
<!-- BB4&#45;&gt;BB5 -->
<g id="edge6" class="edge">
<title>BB4&#45;&gt;BB5</title>
<path fill="none" stroke="black" d="M104.38,-96.28C108.02,-160.93 122.26,-278.36 176.24,-360.5 186.33,-375.86 200.3,-389.42 214.94,-400.9"/>
<polygon fill="black" stroke="black" points="213.03,-403.84 223.13,-407.05 217.24,-398.25 213.03,-403.84"/>
</g>
<!-- BB5&#45;&gt;BB1 -->
<g id="edge7" class="edge">
<title>BB5&#45;&gt;BB1</title>
<path fill="none" stroke="black" d="M288.24,-396.22C288.24,-387.95 288.24,-379.27 288.24,-370.77"/>
<polygon fill="black" stroke="black" points="291.74,-370.52 288.24,-360.52 284.74,-370.52 291.74,-370.52"/>
</g>
<!-- BB6 -->
<g id="node7" class="node">
<title>BB6</title>
<ellipse fill="none" stroke="black" cx="512.24" cy="-312.42" rx="103.48" ry="48.17"/>
<text text-anchor="middle" x="512.24" y="-331.22" font-family="Times New Roman,serif" font-size="14.00">[7b..7c)</text>
<text text-anchor="middle" x="512.24" y="-316.22" font-family="Times New Roman,serif" font-size="14.00">Count: 33</text>
<text text-anchor="middle" x="512.24" y="-301.22" font-family="Times New Roman,serif" font-size="14.00">Normalized count: 0.43</text>
<text text-anchor="middle" x="512.24" y="-286.22" font-family="Times New Roman,serif" font-size="14.00">Samples weight: 0.00</text>
</g>
<!-- BB5&#45;&gt;BB6 -->
<g id="edge8" class="edge">
<title>BB5&#45;&gt;BB6</title>
<path fill="none" stroke="black" d="M351.83,-406.63C379.26,-390.69 411.48,-371.97 439.83,-355.49"/>
<polygon fill="black" stroke="black" points="441.6,-358.51 448.49,-350.46 438.08,-352.46 441.6,-358.51"/>
</g>
</g>
</svg>
