<?xml version="1.0" encoding="UTF-8" standalone="no"?>
<!DOCTYPE svg PUBLIC "-//W3C//DTD SVG 1.1//EN"
 "http://www.w3.org/Graphics/SVG/1.1/DTD/svg11.dtd">
<!-- Generated by graphviz version 2.47.0 (20210316.0004)
 -->
<!-- Title: G Pages: 1 -->
<svg width="635pt" height="633pt"
 viewBox="0.00 0.00 635.42 632.83" xmlns="http://www.w3.org/2000/svg" xmlns:xlink="http://www.w3.org/1999/xlink">
<g id="graph0" class="graph" transform="scale(1 1) rotate(0) translate(4 628.83)">
<title>G</title>
<polygon fill="white" stroke="transparent" points="-4,4 -4,-628.83 631.42,-628.83 631.42,4 -4,4"/>
<!-- BB0 -->
<g id="node1" class="node">
<title>BB0</title>
<ellipse fill="none" stroke="black" cx="295.19" cy="-576.75" rx="103.48" ry="48.17"/>
<text text-anchor="middle" x="295.19" y="-595.55" font-family="Times New Roman,serif" font-size="14.00">[0..11)</text>
<text text-anchor="middle" x="295.19" y="-580.55" font-family="Times New Roman,serif" font-size="14.00">Count: 51</text>
<text text-anchor="middle" x="295.19" y="-565.55" font-family="Times New Roman,serif" font-size="14.00">Normalized count: 1.00</text>
<text text-anchor="middle" x="295.19" y="-550.55" font-family="Times New Roman,serif" font-size="14.00">Samples weight: 0.00</text>
</g>
<!-- BB5 -->
<g id="node6" class="node">
<title>BB5</title>
<ellipse fill="none" stroke="black" cx="295.19" cy="-444.58" rx="108.38" ry="48.17"/>
<text text-anchor="middle" x="295.19" y="-463.38" font-family="Times New Roman,serif" font-size="14.00">[6b..73)</text>
<text text-anchor="middle" x="295.19" y="-448.38" font-family="Times New Roman,serif" font-size="14.00">Count: 607</text>
<text text-anchor="middle" x="295.19" y="-433.38" font-family="Times New Roman,serif" font-size="14.00">Normalized count: 11.90</text>
<text text-anchor="middle" x="295.19" y="-418.38" font-family="Times New Roman,serif" font-size="14.00">Samples weight: 0.03</text>
</g>
<!-- BB0&#45;&gt;BB5 -->
<g id="edge1" class="edge">
<title>BB0&#45;&gt;BB5</title>
<path fill="none" stroke="black" d="M295.19,-528.39C295.19,-520.12 295.19,-511.44 295.19,-502.93"/>
<polygon fill="black" stroke="black" points="298.69,-502.69 295.19,-492.69 291.69,-502.69 298.69,-502.69"/>
</g>
<!-- BB1 -->
<g id="node2" class="node">
<title>BB1</title>
<ellipse fill="none" stroke="black" cx="295.19" cy="-312.42" rx="108.38" ry="48.17"/>
<text text-anchor="middle" x="295.19" y="-331.22" font-family="Times New Roman,serif" font-size="14.00">[11..15)</text>
<text text-anchor="middle" x="295.19" y="-316.22" font-family="Times New Roman,serif" font-size="14.00">Count: 556</text>
<text text-anchor="middle" x="295.19" y="-301.22" font-family="Times New Roman,serif" font-size="14.00">Normalized count: 10.90</text>
<text text-anchor="middle" x="295.19" y="-286.22" font-family="Times New Roman,serif" font-size="14.00">Samples weight: 0.02</text>
</g>
<!-- BB3 -->
<g id="node4" class="node">
<title>BB3</title>
<ellipse fill="none" stroke="black" cx="321.19" cy="-180.25" rx="108.38" ry="48.17"/>
<text text-anchor="middle" x="321.19" y="-199.05" font-family="Times New Roman,serif" font-size="14.00">[5f..67)</text>
<text text-anchor="middle" x="321.19" y="-184.05" font-family="Times New Roman,serif" font-size="14.00">Count: 4518</text>
<text text-anchor="middle" x="321.19" y="-169.05" font-family="Times New Roman,serif" font-size="14.00">Normalized count: 88.59</text>
<text text-anchor="middle" x="321.19" y="-154.05" font-family="Times New Roman,serif" font-size="14.00">Samples weight: 0.20</text>
</g>
<!-- BB1&#45;&gt;BB3 -->
<g id="edge2" class="edge">
<title>BB1&#45;&gt;BB3</title>
<path fill="none" stroke="black" d="M304.57,-264.42C306.29,-255.85 308.09,-246.83 309.85,-238.01"/>
<polygon fill="black" stroke="black" points="313.29,-238.67 311.81,-228.17 306.42,-237.29 313.29,-238.67"/>
</g>
<!-- BB2 -->
<g id="node3" class="node">
<title>BB2</title>
<ellipse fill="none" stroke="black" cx="347.19" cy="-48.08" rx="113.27" ry="48.17"/>
<text text-anchor="middle" x="347.19" y="-66.88" font-family="Times New Roman,serif" font-size="14.00">[15..5f)</text>
<text text-anchor="middle" x="347.19" y="-51.88" font-family="Times New Roman,serif" font-size="14.00">Count: 15958</text>
<text text-anchor="middle" x="347.19" y="-36.88" font-family="Times New Roman,serif" font-size="14.00">Normalized count: 312.90</text>
<text text-anchor="middle" x="347.19" y="-21.88" font-family="Times New Roman,serif" font-size="14.00">Samples weight: 0.72</text>
</g>
<!-- BB2&#45;&gt;BB3 -->
<g id="edge3" class="edge">
<title>BB2&#45;&gt;BB3</title>
<path fill="none" stroke="black" d="M344.28,-96.26C342.79,-104.86 341.04,-113.92 339.17,-122.77"/>
<polygon fill="black" stroke="black" points="335.73,-122.11 337,-132.62 342.57,-123.61 335.73,-122.11"/>
</g>
<!-- BB3&#45;&gt;BB2 -->
<g id="edge4" class="edge">
<title>BB3&#45;&gt;BB2</title>
<path fill="none" stroke="black" d="M324.13,-131.89C325.61,-123.33 327.35,-114.33 329.21,-105.55"/>
<polygon fill="black" stroke="black" points="332.64,-106.27 331.36,-95.76 325.8,-104.77 332.64,-106.27"/>
</g>
<!-- BB4 -->
<g id="node5" class="node">
<title>BB4</title>
<ellipse fill="none" stroke="black" cx="108.19" cy="-48.08" rx="108.38" ry="48.17"/>
<text text-anchor="middle" x="108.19" y="-66.88" font-family="Times New Roman,serif" font-size="14.00">[67..6b)</text>
<text text-anchor="middle" x="108.19" y="-51.88" font-family="Times New Roman,serif" font-size="14.00">Count: 555</text>
<text text-anchor="middle" x="108.19" y="-36.88" font-family="Times New Roman,serif" font-size="14.00">Normalized count: 10.88</text>
<text text-anchor="middle" x="108.19" y="-21.88" font-family="Times New Roman,serif" font-size="14.00">Samples weight: 0.02</text>
</g>
<!-- BB3&#45;&gt;BB4 -->
<g id="edge5" class="edge">
<title>BB3&#45;&gt;BB4</title>
<path fill="none" stroke="black" d="M258.43,-140.9C233.63,-125.74 204.99,-108.24 179.41,-92.61"/>
<polygon fill="black" stroke="black" points="181.22,-89.61 170.86,-87.38 177.57,-95.59 181.22,-89.61"/>
</g>
<!-- BB4&#45;&gt;BB5 -->
<g id="edge6" class="edge">
<title>BB4&#45;&gt;BB5</title>
<path fill="none" stroke="black" d="M108.55,-96.42C111.19,-161.23 123.85,-278.85 178.19,-360.5 188.55,-376.07 202.9,-389.66 218.01,-401.08"/>
<polygon fill="black" stroke="black" points="216.31,-404.17 226.46,-407.21 220.42,-398.51 216.31,-404.17"/>
</g>
<!-- BB5&#45;&gt;BB1 -->
<g id="edge7" class="edge">
<title>BB5&#45;&gt;BB1</title>
<path fill="none" stroke="black" d="M295.19,-396.22C295.19,-387.95 295.19,-379.27 295.19,-370.77"/>
<polygon fill="black" stroke="black" points="298.69,-370.52 295.19,-360.52 291.69,-370.52 298.69,-370.52"/>
</g>
<!-- BB6 -->
<g id="node7" class="node">
<title>BB6</title>
<ellipse fill="none" stroke="black" cx="524.19" cy="-312.42" rx="103.48" ry="48.17"/>
<text text-anchor="middle" x="524.19" y="-331.22" font-family="Times New Roman,serif" font-size="14.00">[73..74)</text>
<text text-anchor="middle" x="524.19" y="-316.22" font-family="Times New Roman,serif" font-size="14.00">Count: 72</text>
<text text-anchor="middle" x="524.19" y="-301.22" font-family="Times New Roman,serif" font-size="14.00">Normalized count: 1.41</text>
<text text-anchor="middle" x="524.19" y="-286.22" font-family="Times New Roman,serif" font-size="14.00">Samples weight: 0.00</text>
</g>
<!-- BB5&#45;&gt;BB6 -->
<g id="edge8" class="edge">
<title>BB5&#45;&gt;BB6</title>
<path fill="none" stroke="black" d="M360.81,-406.28C388.96,-390.28 421.96,-371.53 450.9,-355.07"/>
<polygon fill="black" stroke="black" points="452.78,-358.03 459.74,-350.05 449.32,-351.95 452.78,-358.03"/>
</g>
</g>
</svg>
