<?xml version="1.0" encoding="UTF-8" standalone="no"?>
<!DOCTYPE svg PUBLIC "-//W3C//DTD SVG 1.1//EN"
 "http://www.w3.org/Graphics/SVG/1.1/DTD/svg11.dtd">
<!-- Generated by graphviz version 2.47.0 (20210316.0004)
 -->
<!-- Title: G Pages: 1 -->
<svg width="646pt" height="897pt"
 viewBox="0.00 0.00 646.32 897.17" xmlns="http://www.w3.org/2000/svg" xmlns:xlink="http://www.w3.org/1999/xlink">
<g id="graph0" class="graph" transform="scale(1 1) rotate(0) translate(4 893.17)">
<title>G</title>
<polygon fill="white" stroke="transparent" points="-4,4 -4,-893.17 642.32,-893.17 642.32,4 -4,4"/>
<!-- BB0 -->
<g id="node1" class="node">
<title>BB0</title>
<ellipse fill="none" stroke="black" cx="311.09" cy="-841.08" rx="103.48" ry="48.17"/>
<text text-anchor="middle" x="311.09" y="-859.88" font-family="Times New Roman,serif" font-size="14.00">[0..8)</text>
<text text-anchor="middle" x="311.09" y="-844.88" font-family="Times New Roman,serif" font-size="14.00">Count: 10</text>
<text text-anchor="middle" x="311.09" y="-829.88" font-family="Times New Roman,serif" font-size="14.00">Normalized count: 1.00</text>
<text text-anchor="middle" x="311.09" y="-814.88" font-family="Times New Roman,serif" font-size="14.00">Samples weight: 0.00</text>
</g>
<!-- BB7 -->
<g id="node8" class="node">
<title>BB7</title>
<ellipse fill="none" stroke="black" cx="311.09" cy="-708.92" rx="103.48" ry="48.17"/>
<text text-anchor="middle" x="311.09" y="-727.72" font-family="Times New Roman,serif" font-size="14.00">[87..93)</text>
<text text-anchor="middle" x="311.09" y="-712.72" font-family="Times New Roman,serif" font-size="14.00">Count: 40</text>
<text text-anchor="middle" x="311.09" y="-697.72" font-family="Times New Roman,serif" font-size="14.00">Normalized count: 4.00</text>
<text text-anchor="middle" x="311.09" y="-682.72" font-family="Times New Roman,serif" font-size="14.00">Samples weight: 0.00</text>
</g>
<!-- BB0&#45;&gt;BB7 -->
<g id="edge1" class="edge">
<title>BB0&#45;&gt;BB7</title>
<path fill="none" stroke="black" d="M311.09,-792.72C311.09,-784.45 311.09,-775.77 311.09,-767.27"/>
<polygon fill="black" stroke="black" points="314.59,-767.02 311.09,-757.02 307.59,-767.02 314.59,-767.02"/>
</g>
<!-- BB1 -->
<g id="node2" class="node">
<title>BB1</title>
<ellipse fill="none" stroke="black" cx="311.09" cy="-576.75" rx="103.48" ry="48.17"/>
<text text-anchor="middle" x="311.09" y="-595.55" font-family="Times New Roman,serif" font-size="14.00">[8..2a)</text>
<text text-anchor="middle" x="311.09" y="-580.55" font-family="Times New Roman,serif" font-size="14.00">Count: 30</text>
<text text-anchor="middle" x="311.09" y="-565.55" font-family="Times New Roman,serif" font-size="14.00">Normalized count: 3.00</text>
<text text-anchor="middle" x="311.09" y="-550.55" font-family="Times New Roman,serif" font-size="14.00">Samples weight: 0.00</text>
</g>
<!-- BB6 -->
<g id="node7" class="node">
<title>BB6</title>
<ellipse fill="none" stroke="black" cx="245.09" cy="-444.58" rx="118.17" ry="48.17"/>
<text text-anchor="middle" x="245.09" y="-463.38" font-family="Times New Roman,serif" font-size="14.00">[7b..87)</text>
<text text-anchor="middle" x="245.09" y="-448.38" font-family="Times New Roman,serif" font-size="14.00">Count: 23870</text>
<text text-anchor="middle" x="245.09" y="-433.38" font-family="Times New Roman,serif" font-size="14.00">Normalized count: 2387.00</text>
<text text-anchor="middle" x="245.09" y="-418.38" font-family="Times New Roman,serif" font-size="14.00">Samples weight: 0.04</text>
</g>
<!-- BB1&#45;&gt;BB6 -->
<g id="edge2" class="edge">
<title>BB1&#45;&gt;BB6</title>
<path fill="none" stroke="black" d="M287.82,-529.86C283.09,-520.54 278.08,-510.64 273.2,-501.04"/>
<polygon fill="black" stroke="black" points="276.24,-499.27 268.59,-491.94 269.99,-502.44 276.24,-499.27"/>
</g>
<!-- BB2 -->
<g id="node3" class="node">
<title>BB2</title>
<ellipse fill="none" stroke="black" cx="333.09" cy="-312.42" rx="118.17" ry="48.17"/>
<text text-anchor="middle" x="333.09" y="-331.22" font-family="Times New Roman,serif" font-size="14.00">[2a..2e)</text>
<text text-anchor="middle" x="333.09" y="-316.22" font-family="Times New Roman,serif" font-size="14.00">Count: 23840</text>
<text text-anchor="middle" x="333.09" y="-301.22" font-family="Times New Roman,serif" font-size="14.00">Normalized count: 2384.00</text>
<text text-anchor="middle" x="333.09" y="-286.22" font-family="Times New Roman,serif" font-size="14.00">Samples weight: 0.04</text>
</g>
<!-- BB4 -->
<g id="node5" class="node">
<title>BB4</title>
<ellipse fill="none" stroke="black" cx="349.09" cy="-180.25" rx="122.16" ry="48.17"/>
<text text-anchor="middle" x="349.09" y="-199.05" font-family="Times New Roman,serif" font-size="14.00">[5d..65)</text>
<text text-anchor="middle" x="349.09" y="-184.05" font-family="Times New Roman,serif" font-size="14.00">Count: 262240</text>
<text text-anchor="middle" x="349.09" y="-169.05" font-family="Times New Roman,serif" font-size="14.00">Normalized count: 26224.00</text>
<text text-anchor="middle" x="349.09" y="-154.05" font-family="Times New Roman,serif" font-size="14.00">Samples weight: 0.46</text>
</g>
<!-- BB2&#45;&gt;BB4 -->
<g id="edge3" class="edge">
<title>BB2&#45;&gt;BB4</title>
<path fill="none" stroke="black" d="M338.91,-264.05C339.94,-255.7 341.02,-246.91 342.07,-238.32"/>
<polygon fill="black" stroke="black" points="345.55,-238.71 343.3,-228.36 338.6,-237.86 345.55,-238.71"/>
</g>
<!-- BB3 -->
<g id="node4" class="node">
<title>BB3</title>
<ellipse fill="none" stroke="black" cx="376.09" cy="-48.08" rx="122.16" ry="48.17"/>
<text text-anchor="middle" x="376.09" y="-66.88" font-family="Times New Roman,serif" font-size="14.00">[2e..5d)</text>
<text text-anchor="middle" x="376.09" y="-51.88" font-family="Times New Roman,serif" font-size="14.00">Count: 238400</text>
<text text-anchor="middle" x="376.09" y="-36.88" font-family="Times New Roman,serif" font-size="14.00">Normalized count: 23840.00</text>
<text text-anchor="middle" x="376.09" y="-21.88" font-family="Times New Roman,serif" font-size="14.00">Samples weight: 0.42</text>
</g>
<!-- BB3&#45;&gt;BB4 -->
<g id="edge4" class="edge">
<title>BB3&#45;&gt;BB4</title>
<path fill="none" stroke="black" d="M372.79,-96.44C371.27,-104.83 369.5,-113.64 367.61,-122.26"/>
<polygon fill="black" stroke="black" points="364.14,-121.73 365.35,-132.26 370.97,-123.28 364.14,-121.73"/>
</g>
<!-- BB4&#45;&gt;BB3 -->
<g id="edge5" class="edge">
<title>BB4&#45;&gt;BB3</title>
<path fill="none" stroke="black" d="M352.39,-131.89C353.94,-123.33 355.75,-114.33 357.68,-105.55"/>
<polygon fill="black" stroke="black" points="361.1,-106.28 359.9,-95.76 354.27,-104.73 361.1,-106.28"/>
</g>
<!-- BB5 -->
<g id="node6" class="node">
<title>BB5</title>
<ellipse fill="none" stroke="black" cx="118.09" cy="-48.08" rx="118.17" ry="48.17"/>
<text text-anchor="middle" x="118.09" y="-66.88" font-family="Times New Roman,serif" font-size="14.00">[65..7b)</text>
<text text-anchor="middle" x="118.09" y="-51.88" font-family="Times New Roman,serif" font-size="14.00">Count: 23840</text>
<text text-anchor="middle" x="118.09" y="-36.88" font-family="Times New Roman,serif" font-size="14.00">Normalized count: 2384.00</text>
<text text-anchor="middle" x="118.09" y="-21.88" font-family="Times New Roman,serif" font-size="14.00">Samples weight: 0.04</text>
</g>
<!-- BB4&#45;&gt;BB5 -->
<g id="edge6" class="edge">
<title>BB4&#45;&gt;BB5</title>
<path fill="none" stroke="black" d="M280.09,-140.37C253.34,-125.3 222.59,-107.97 195.12,-92.49"/>
<polygon fill="black" stroke="black" points="196.76,-89.4 186.33,-87.54 193.32,-95.5 196.76,-89.4"/>
</g>
<!-- BB5&#45;&gt;BB6 -->
<g id="edge7" class="edge">
<title>BB5&#45;&gt;BB6</title>
<path fill="none" stroke="black" d="M128.81,-96.01C143.46,-157.64 171.86,-268.78 206.09,-360.5 209.44,-369.47 213.36,-378.82 217.41,-387.86"/>
<polygon fill="black" stroke="black" points="214.31,-389.5 221.65,-397.14 220.68,-386.59 214.31,-389.5"/>
</g>
<!-- BB6&#45;&gt;BB2 -->
<g id="edge8" class="edge">
<title>BB6&#45;&gt;BB2</title>
<path fill="none" stroke="black" d="M275.86,-398.06C282.53,-388.21 289.63,-377.69 296.49,-367.55"/>
<polygon fill="black" stroke="black" points="299.48,-369.38 302.18,-359.14 293.68,-365.46 299.48,-369.38"/>
</g>
<!-- BB6&#45;&gt;BB7 -->
<g id="edge9" class="edge">
<title>BB6&#45;&gt;BB7</title>
<path fill="none" stroke="black" d="M214.43,-491.29C208.12,-502.99 202.39,-515.9 199.09,-528.67 188.4,-570.05 179.87,-586.65 199.09,-624.83 207.31,-641.16 220.42,-655.09 234.83,-666.61"/>
<polygon fill="black" stroke="black" points="232.86,-669.51 242.95,-672.76 237.09,-663.93 232.86,-669.51"/>
</g>
<!-- BB7&#45;&gt;BB1 -->
<g id="edge10" class="edge">
<title>BB7&#45;&gt;BB1</title>
<path fill="none" stroke="black" d="M311.09,-660.55C311.09,-652.29 311.09,-643.6 311.09,-635.1"/>
<polygon fill="black" stroke="black" points="314.59,-634.86 311.09,-624.86 307.59,-634.86 314.59,-634.86"/>
</g>
<!-- BB8 -->
<g id="node9" class="node">
<title>BB8</title>
<ellipse fill="none" stroke="black" cx="535.09" cy="-576.75" rx="103.48" ry="48.17"/>
<text text-anchor="middle" x="535.09" y="-595.55" font-family="Times New Roman,serif" font-size="14.00">[93..9a)</text>
<text text-anchor="middle" x="535.09" y="-580.55" font-family="Times New Roman,serif" font-size="14.00">Count: 10</text>
<text text-anchor="middle" x="535.09" y="-565.55" font-family="Times New Roman,serif" font-size="14.00">Normalized count: 1.00</text>
<text text-anchor="middle" x="535.09" y="-550.55" font-family="Times New Roman,serif" font-size="14.00">Samples weight: 0.00</text>
</g>
<!-- BB7&#45;&gt;BB8 -->
<g id="edge11" class="edge">
<title>BB7&#45;&gt;BB8</title>
<path fill="none" stroke="black" d="M374.68,-670.96C402.11,-655.02 434.33,-636.3 462.68,-619.83"/>
<polygon fill="black" stroke="black" points="464.45,-622.84 471.34,-614.79 460.93,-616.79 464.45,-622.84"/>
</g>
</g>
</svg>
