<?xml version="1.0" encoding="UTF-8" standalone="no"?>
<!DOCTYPE svg PUBLIC "-//W3C//DTD SVG 1.1//EN"
 "http://www.w3.org/Graphics/SVG/1.1/DTD/svg11.dtd">
<!-- Generated by graphviz version 2.47.0 (20210316.0004)
 -->
<!-- Title: G Pages: 1 -->
<svg width="617pt" height="633pt"
 viewBox="0.00 0.00 617.48 632.83" xmlns="http://www.w3.org/2000/svg" xmlns:xlink="http://www.w3.org/1999/xlink">
<g id="graph0" class="graph" transform="scale(1 1) rotate(0) translate(4 628.83)">
<title>G</title>
<polygon fill="white" stroke="transparent" points="-4,4 -4,-628.83 613.48,-628.83 613.48,4 -4,4"/>
<!-- BB0 -->
<g id="node1" class="node">
<title>BB0</title>
<ellipse fill="none" stroke="black" cx="282.24" cy="-576.75" rx="103.48" ry="48.17"/>
<text text-anchor="middle" x="282.24" y="-595.55" font-family="Times New Roman,serif" font-size="14.00">[0..11)</text>
<text text-anchor="middle" x="282.24" y="-580.55" font-family="Times New Roman,serif" font-size="14.00">Count: 351</text>
<text text-anchor="middle" x="282.24" y="-565.55" font-family="Times New Roman,serif" font-size="14.00">Normalized count: 1.00</text>
<text text-anchor="middle" x="282.24" y="-550.55" font-family="Times New Roman,serif" font-size="14.00">Samples weight: 0.01</text>
</g>
<!-- BB5 -->
<g id="node6" class="node">
<title>BB5</title>
<ellipse fill="none" stroke="black" cx="282.24" cy="-444.58" rx="108.38" ry="48.17"/>
<text text-anchor="middle" x="282.24" y="-463.38" font-family="Times New Roman,serif" font-size="14.00">[6a..72)</text>
<text text-anchor="middle" x="282.24" y="-448.38" font-family="Times New Roman,serif" font-size="14.00">Count: 3830</text>
<text text-anchor="middle" x="282.24" y="-433.38" font-family="Times New Roman,serif" font-size="14.00">Normalized count: 10.91</text>
<text text-anchor="middle" x="282.24" y="-418.38" font-family="Times New Roman,serif" font-size="14.00">Samples weight: 0.06</text>
</g>
<!-- BB0&#45;&gt;BB5 -->
<g id="edge1" class="edge">
<title>BB0&#45;&gt;BB5</title>
<path fill="none" stroke="black" d="M282.24,-528.39C282.24,-520.12 282.24,-511.44 282.24,-502.93"/>
<polygon fill="black" stroke="black" points="285.74,-502.69 282.24,-492.69 278.74,-502.69 285.74,-502.69"/>
</g>
<!-- BB1 -->
<g id="node2" class="node">
<title>BB1</title>
<ellipse fill="none" stroke="black" cx="282.24" cy="-312.42" rx="103.48" ry="48.17"/>
<text text-anchor="middle" x="282.24" y="-331.22" font-family="Times New Roman,serif" font-size="14.00">[11..15)</text>
<text text-anchor="middle" x="282.24" y="-316.22" font-family="Times New Roman,serif" font-size="14.00">Count: 3479</text>
<text text-anchor="middle" x="282.24" y="-301.22" font-family="Times New Roman,serif" font-size="14.00">Normalized count: 9.91</text>
<text text-anchor="middle" x="282.24" y="-286.22" font-family="Times New Roman,serif" font-size="14.00">Samples weight: 0.05</text>
</g>
<!-- BB3 -->
<g id="node4" class="node">
<title>BB3</title>
<ellipse fill="none" stroke="black" cx="308.24" cy="-180.25" rx="108.38" ry="48.17"/>
<text text-anchor="middle" x="308.24" y="-199.05" font-family="Times New Roman,serif" font-size="14.00">[5e..66)</text>
<text text-anchor="middle" x="308.24" y="-184.05" font-family="Times New Roman,serif" font-size="14.00">Count: 28916</text>
<text text-anchor="middle" x="308.24" y="-169.05" font-family="Times New Roman,serif" font-size="14.00">Normalized count: 82.38</text>
<text text-anchor="middle" x="308.24" y="-154.05" font-family="Times New Roman,serif" font-size="14.00">Samples weight: 0.44</text>
</g>
<!-- BB1&#45;&gt;BB3 -->
<g id="edge2" class="edge">
<title>BB1&#45;&gt;BB3</title>
<path fill="none" stroke="black" d="M291.62,-264.42C293.34,-255.85 295.14,-246.83 296.9,-238.01"/>
<polygon fill="black" stroke="black" points="300.34,-238.67 298.86,-228.17 293.47,-237.29 300.34,-238.67"/>
</g>
<!-- BB2 -->
<g id="node3" class="node">
<title>BB2</title>
<ellipse fill="none" stroke="black" cx="332.24" cy="-48.08" rx="108.38" ry="48.17"/>
<text text-anchor="middle" x="332.24" y="-66.88" font-family="Times New Roman,serif" font-size="14.00">[15..5e)</text>
<text text-anchor="middle" x="332.24" y="-51.88" font-family="Times New Roman,serif" font-size="14.00">Count: 25437</text>
<text text-anchor="middle" x="332.24" y="-36.88" font-family="Times New Roman,serif" font-size="14.00">Normalized count: 72.47</text>
<text text-anchor="middle" x="332.24" y="-21.88" font-family="Times New Roman,serif" font-size="14.00">Samples weight: 0.39</text>
</g>
<!-- BB2&#45;&gt;BB3 -->
<g id="edge3" class="edge">
<title>BB2&#45;&gt;BB3</title>
<path fill="none" stroke="black" d="M330.06,-96.26C328.7,-104.86 327.09,-113.92 325.35,-122.77"/>
<polygon fill="black" stroke="black" points="321.91,-122.13 323.34,-132.62 328.77,-123.53 321.91,-122.13"/>
</g>
<!-- BB3&#45;&gt;BB2 -->
<g id="edge4" class="edge">
<title>BB3&#45;&gt;BB2</title>
<path fill="none" stroke="black" d="M310.45,-131.89C311.79,-123.42 313.37,-114.53 315.07,-105.83"/>
<polygon fill="black" stroke="black" points="318.56,-106.25 317.13,-95.76 311.7,-104.86 318.56,-106.25"/>
</g>
<!-- BB4 -->
<g id="node5" class="node">
<title>BB4</title>
<ellipse fill="none" stroke="black" cx="103.24" cy="-48.08" rx="103.48" ry="48.17"/>
<text text-anchor="middle" x="103.24" y="-66.88" font-family="Times New Roman,serif" font-size="14.00">[66..6a)</text>
<text text-anchor="middle" x="103.24" y="-51.88" font-family="Times New Roman,serif" font-size="14.00">Count: 3479</text>
<text text-anchor="middle" x="103.24" y="-36.88" font-family="Times New Roman,serif" font-size="14.00">Normalized count: 9.91</text>
<text text-anchor="middle" x="103.24" y="-21.88" font-family="Times New Roman,serif" font-size="14.00">Samples weight: 0.05</text>
</g>
<!-- BB3&#45;&gt;BB4 -->
<g id="edge5" class="edge">
<title>BB3&#45;&gt;BB4</title>
<path fill="none" stroke="black" d="M247.01,-140.37C223.37,-125.36 196.21,-108.12 171.91,-92.69"/>
<polygon fill="black" stroke="black" points="173.76,-89.72 163.45,-87.31 170.01,-95.63 173.76,-89.72"/>
</g>
<!-- BB4&#45;&gt;BB5 -->
<g id="edge6" class="edge">
<title>BB4&#45;&gt;BB5</title>
<path fill="none" stroke="black" d="M103.3,-96.24C105.49,-160.84 117.23,-278.21 170.24,-360.5 179.97,-375.61 193.48,-388.95 207.76,-400.26"/>
<polygon fill="black" stroke="black" points="205.67,-403.07 215.75,-406.34 209.91,-397.5 205.67,-403.07"/>
</g>
<!-- BB5&#45;&gt;BB1 -->
<g id="edge7" class="edge">
<title>BB5&#45;&gt;BB1</title>
<path fill="none" stroke="black" d="M282.24,-396.22C282.24,-387.95 282.24,-379.27 282.24,-370.77"/>
<polygon fill="black" stroke="black" points="285.74,-370.52 282.24,-360.52 278.74,-370.52 285.74,-370.52"/>
</g>
<!-- BB6 -->
<g id="node7" class="node">
<title>BB6</title>
<ellipse fill="none" stroke="black" cx="506.24" cy="-312.42" rx="103.48" ry="48.17"/>
<text text-anchor="middle" x="506.24" y="-331.22" font-family="Times New Roman,serif" font-size="14.00">[72..73)</text>
<text text-anchor="middle" x="506.24" y="-316.22" font-family="Times New Roman,serif" font-size="14.00">Count: 351</text>
<text text-anchor="middle" x="506.24" y="-301.22" font-family="Times New Roman,serif" font-size="14.00">Normalized count: 1.00</text>
<text text-anchor="middle" x="506.24" y="-286.22" font-family="Times New Roman,serif" font-size="14.00">Samples weight: 0.01</text>
</g>
<!-- BB5&#45;&gt;BB6 -->
<g id="edge8" class="edge">
<title>BB5&#45;&gt;BB6</title>
<path fill="none" stroke="black" d="M347.03,-405.93C374.08,-390.21 405.62,-371.88 433.47,-355.7"/>
<polygon fill="black" stroke="black" points="435.48,-358.58 442.37,-350.53 431.96,-352.53 435.48,-358.58"/>
</g>
</g>
</svg>
