<?xml version="1.0" encoding="UTF-8" standalone="no"?>
<!DOCTYPE svg PUBLIC "-//W3C//DTD SVG 1.1//EN"
 "http://www.w3.org/Graphics/SVG/1.1/DTD/svg11.dtd">
<!-- Generated by graphviz version 2.47.0 (20210316.0004)
 -->
<!-- Title: G Pages: 1 -->
<svg width="812pt" height="633pt"
 viewBox="0.00 0.00 812.48 632.83" xmlns="http://www.w3.org/2000/svg" xmlns:xlink="http://www.w3.org/1999/xlink">
<g id="graph0" class="graph" transform="scale(1 1) rotate(0) translate(4 628.83)">
<title>G</title>
<polygon fill="white" stroke="transparent" points="-4,4 -4,-628.83 808.48,-628.83 808.48,4 -4,4"/>
<!-- BB0 -->
<g id="node1" class="node">
<title>BB0</title>
<ellipse fill="none" stroke="black" cx="504.24" cy="-576.75" rx="103.48" ry="48.17"/>
<text text-anchor="middle" x="504.24" y="-595.55" font-family="Times New Roman,serif" font-size="14.00">[0..2)</text>
<text text-anchor="middle" x="504.24" y="-580.55" font-family="Times New Roman,serif" font-size="14.00">Count: 967573</text>
<text text-anchor="middle" x="504.24" y="-565.55" font-family="Times New Roman,serif" font-size="14.00">Normalized count: 1.00</text>
<text text-anchor="middle" x="504.24" y="-550.55" font-family="Times New Roman,serif" font-size="14.00">Samples weight: 0.02</text>
</g>
<!-- BB7 -->
<g id="node8" class="node">
<title>BB7</title>
<ellipse fill="none" stroke="black" cx="504.24" cy="-444.58" rx="103.48" ry="48.17"/>
<text text-anchor="middle" x="504.24" y="-463.38" font-family="Times New Roman,serif" font-size="14.00">[60..66)</text>
<text text-anchor="middle" x="504.24" y="-448.38" font-family="Times New Roman,serif" font-size="14.00">Count: 8979358</text>
<text text-anchor="middle" x="504.24" y="-433.38" font-family="Times New Roman,serif" font-size="14.00">Normalized count: 9.28</text>
<text text-anchor="middle" x="504.24" y="-418.38" font-family="Times New Roman,serif" font-size="14.00">Samples weight: 0.19</text>
</g>
<!-- BB0&#45;&gt;BB7 -->
<g id="edge1" class="edge">
<title>BB0&#45;&gt;BB7</title>
<path fill="none" stroke="black" d="M504.24,-528.39C504.24,-520.12 504.24,-511.44 504.24,-502.93"/>
<polygon fill="black" stroke="black" points="507.74,-502.69 504.24,-492.69 500.74,-502.69 507.74,-502.69"/>
</g>
<!-- BB1 -->
<g id="node2" class="node">
<title>BB1</title>
<ellipse fill="none" stroke="black" cx="439.24" cy="-312.42" rx="103.48" ry="48.17"/>
<text text-anchor="middle" x="439.24" y="-331.22" font-family="Times New Roman,serif" font-size="14.00">[2..a)</text>
<text text-anchor="middle" x="439.24" y="-316.22" font-family="Times New Roman,serif" font-size="14.00">Count: 8011785</text>
<text text-anchor="middle" x="439.24" y="-301.22" font-family="Times New Roman,serif" font-size="14.00">Normalized count: 8.28</text>
<text text-anchor="middle" x="439.24" y="-286.22" font-family="Times New Roman,serif" font-size="14.00">Samples weight: 0.17</text>
</g>
<!-- BB2 -->
<g id="node3" class="node">
<title>BB2</title>
<ellipse fill="none" stroke="black" cx="215.24" cy="-180.25" rx="103.48" ry="48.17"/>
<text text-anchor="middle" x="215.24" y="-199.05" font-family="Times New Roman,serif" font-size="14.00">[a..1e)</text>
<text text-anchor="middle" x="215.24" y="-184.05" font-family="Times New Roman,serif" font-size="14.00">Count: 8010835</text>
<text text-anchor="middle" x="215.24" y="-169.05" font-family="Times New Roman,serif" font-size="14.00">Normalized count: 8.28</text>
<text text-anchor="middle" x="215.24" y="-154.05" font-family="Times New Roman,serif" font-size="14.00">Samples weight: 0.17</text>
</g>
<!-- BB1&#45;&gt;BB2 -->
<g id="edge3" class="edge">
<title>BB1&#45;&gt;BB2</title>
<path fill="none" stroke="black" d="M375.65,-274.46C348.22,-258.52 315.99,-239.8 287.65,-223.33"/>
<polygon fill="black" stroke="black" points="289.39,-220.29 278.99,-218.29 285.87,-226.35 289.39,-220.29"/>
</g>
<!-- BB4 -->
<g id="node5" class="node">
<title>BB4</title>
<ellipse fill="none" stroke="black" cx="439.24" cy="-180.25" rx="103.48" ry="48.17"/>
<text text-anchor="middle" x="439.24" y="-199.05" font-family="Times New Roman,serif" font-size="14.00">[22..34)</text>
<text text-anchor="middle" x="439.24" y="-184.05" font-family="Times New Roman,serif" font-size="14.00">Count: 8011785</text>
<text text-anchor="middle" x="439.24" y="-169.05" font-family="Times New Roman,serif" font-size="14.00">Normalized count: 8.28</text>
<text text-anchor="middle" x="439.24" y="-154.05" font-family="Times New Roman,serif" font-size="14.00">Samples weight: 0.17</text>
</g>
<!-- BB1&#45;&gt;BB4 -->
<g id="edge2" class="edge">
<title>BB1&#45;&gt;BB4</title>
<path fill="none" stroke="black" d="M439.24,-264.05C439.24,-255.79 439.24,-247.1 439.24,-238.6"/>
<polygon fill="black" stroke="black" points="442.74,-238.36 439.24,-228.36 435.74,-238.36 442.74,-238.36"/>
</g>
<!-- BB3 -->
<g id="node4" class="node">
<title>BB3</title>
<ellipse fill="none" stroke="black" cx="336.24" cy="-48.08" rx="103.48" ry="48.17"/>
<text text-anchor="middle" x="336.24" y="-66.88" font-family="Times New Roman,serif" font-size="14.00">[1e..22)</text>
<text text-anchor="middle" x="336.24" y="-51.88" font-family="Times New Roman,serif" font-size="14.00">Count: 4250117</text>
<text text-anchor="middle" x="336.24" y="-36.88" font-family="Times New Roman,serif" font-size="14.00">Normalized count: 4.39</text>
<text text-anchor="middle" x="336.24" y="-21.88" font-family="Times New Roman,serif" font-size="14.00">Samples weight: 0.09</text>
</g>
<!-- BB2&#45;&gt;BB3 -->
<g id="edge5" class="edge">
<title>BB2&#45;&gt;BB3</title>
<path fill="none" stroke="black" d="M255.53,-135.91C266.13,-124.5 277.67,-112.09 288.62,-100.31"/>
<polygon fill="black" stroke="black" points="291.46,-102.39 295.71,-92.68 286.34,-97.62 291.46,-102.39"/>
</g>
<!-- BB2&#45;&gt;BB4 -->
<g id="edge4" class="edge">
<title>BB2&#45;&gt;BB4</title>
<path fill="none" stroke="black" d="M318.49,-180.25C320.94,-180.25 323.4,-180.25 325.85,-180.25"/>
<polygon fill="black" stroke="black" points="325.94,-183.75 335.94,-180.25 325.94,-176.75 325.94,-183.75"/>
</g>
<!-- BB3&#45;&gt;BB4 -->
<g id="edge6" class="edge">
<title>BB3&#45;&gt;BB4</title>
<path fill="none" stroke="black" d="M371.59,-93.76C380.04,-104.44 389.14,-115.93 397.83,-126.92"/>
<polygon fill="black" stroke="black" points="395.13,-129.15 404.08,-134.82 400.62,-124.8 395.13,-129.15"/>
</g>
<!-- BB5 -->
<g id="node6" class="node">
<title>BB5</title>
<ellipse fill="none" stroke="black" cx="103.24" cy="-48.08" rx="103.48" ry="48.17"/>
<text text-anchor="middle" x="103.24" y="-66.88" font-family="Times New Roman,serif" font-size="14.00">[34..5b)</text>
<text text-anchor="middle" x="103.24" y="-51.88" font-family="Times New Roman,serif" font-size="14.00">Count: 7787923</text>
<text text-anchor="middle" x="103.24" y="-36.88" font-family="Times New Roman,serif" font-size="14.00">Normalized count: 8.05</text>
<text text-anchor="middle" x="103.24" y="-21.88" font-family="Times New Roman,serif" font-size="14.00">Samples weight: 0.16</text>
</g>
<!-- BB4&#45;&gt;BB5 -->
<g id="edge8" class="edge">
<title>BB4&#45;&gt;BB5</title>
<path fill="none" stroke="black" d="M364.49,-147.08C352.1,-141.96 339.35,-136.82 327.24,-132.17 281.98,-114.76 269.73,-112.96 224.24,-96.17 213.33,-92.14 201.91,-87.83 190.63,-83.5"/>
<polygon fill="black" stroke="black" points="191.78,-80.2 181.19,-79.88 189.27,-86.73 191.78,-80.2"/>
</g>
<!-- BB6 -->
<g id="node7" class="node">
<title>BB6</title>
<ellipse fill="none" stroke="black" cx="565.24" cy="-48.08" rx="103.48" ry="48.17"/>
<text text-anchor="middle" x="565.24" y="-66.88" font-family="Times New Roman,serif" font-size="14.00">[5b..60)</text>
<text text-anchor="middle" x="565.24" y="-51.88" font-family="Times New Roman,serif" font-size="14.00">Count: 223862</text>
<text text-anchor="middle" x="565.24" y="-36.88" font-family="Times New Roman,serif" font-size="14.00">Normalized count: 0.23</text>
<text text-anchor="middle" x="565.24" y="-21.88" font-family="Times New Roman,serif" font-size="14.00">Samples weight: 0.00</text>
</g>
<!-- BB4&#45;&gt;BB6 -->
<g id="edge7" class="edge">
<title>BB4&#45;&gt;BB6</title>
<path fill="none" stroke="black" d="M481.19,-135.91C492.46,-124.27 504.74,-111.59 516.34,-99.6"/>
<polygon fill="black" stroke="black" points="519.02,-101.86 523.46,-92.24 513.99,-96.99 519.02,-101.86"/>
</g>
<!-- BB5&#45;&gt;BB7 -->
<g id="edge9" class="edge">
<title>BB5&#45;&gt;BB7</title>
<path fill="none" stroke="black" d="M91.11,-96.13C83.99,-134.31 80.32,-188.2 103.24,-228.33 165.36,-337.12 304.36,-393.72 401.17,-421.05"/>
<polygon fill="black" stroke="black" points="400.42,-424.47 410.99,-423.76 402.28,-417.73 400.42,-424.47"/>
</g>
<!-- BB6&#45;&gt;BB7 -->
<g id="edge10" class="edge">
<title>BB6&#45;&gt;BB7</title>
<path fill="none" stroke="black" d="M569.84,-96.34C574.36,-158.33 577.29,-269.86 551.24,-360.5 548.46,-370.18 544.35,-379.94 539.7,-389.2"/>
<polygon fill="black" stroke="black" points="536.48,-387.8 534.9,-398.28 542.67,-391.07 536.48,-387.8"/>
</g>
<!-- BB7&#45;&gt;BB1 -->
<g id="edge11" class="edge">
<title>BB7&#45;&gt;BB1</title>
<path fill="none" stroke="black" d="M481.32,-397.69C476.61,-388.26 471.61,-378.24 466.76,-368.53"/>
<polygon fill="black" stroke="black" points="469.77,-366.72 462.17,-359.33 463.5,-369.84 469.77,-366.72"/>
</g>
<!-- BB8 -->
<g id="node9" class="node">
<title>BB8</title>
<ellipse fill="none" stroke="black" cx="701.24" cy="-312.42" rx="103.48" ry="48.17"/>
<text text-anchor="middle" x="701.24" y="-331.22" font-family="Times New Roman,serif" font-size="14.00">[66..67)</text>
<text text-anchor="middle" x="701.24" y="-316.22" font-family="Times New Roman,serif" font-size="14.00">Count: 967573</text>
<text text-anchor="middle" x="701.24" y="-301.22" font-family="Times New Roman,serif" font-size="14.00">Normalized count: 1.00</text>
<text text-anchor="middle" x="701.24" y="-286.22" font-family="Times New Roman,serif" font-size="14.00">Samples weight: 0.02</text>
</g>
<!-- BB7&#45;&gt;BB8 -->
<g id="edge12" class="edge">
<title>BB7&#45;&gt;BB8</title>
<path fill="none" stroke="black" d="M562.81,-404.88C585.24,-390.06 610.98,-373.05 634.15,-357.75"/>
<polygon fill="black" stroke="black" points="636.14,-360.63 642.55,-352.19 632.28,-354.79 636.14,-360.63"/>
</g>
</g>
</svg>
