<?xml version="1.0" encoding="UTF-8" standalone="no"?>
<!DOCTYPE svg PUBLIC "-//W3C//DTD SVG 1.1//EN"
 "http://www.w3.org/Graphics/SVG/1.1/DTD/svg11.dtd">
<!-- Generated by graphviz version 2.47.0 (20210316.0004)
 -->
<!-- Title: G Pages: 1 -->
<svg width="667pt" height="633pt"
 viewBox="0.00 0.00 667.48 632.83" xmlns="http://www.w3.org/2000/svg" xmlns:xlink="http://www.w3.org/1999/xlink">
<g id="graph0" class="graph" transform="scale(1 1) rotate(0) translate(4 628.83)">
<title>G</title>
<polygon fill="white" stroke="transparent" points="-4,4 -4,-628.83 663.48,-628.83 663.48,4 -4,4"/>
<!-- BB0 -->
<g id="node1" class="node">
<title>BB0</title>
<ellipse fill="none" stroke="black" cx="103.24" cy="-576.75" rx="103.48" ry="48.17"/>
<text text-anchor="middle" x="103.24" y="-595.55" font-family="Times New Roman,serif" font-size="14.00">[0..6)</text>
<text text-anchor="middle" x="103.24" y="-580.55" font-family="Times New Roman,serif" font-size="14.00">Count: 2</text>
<text text-anchor="middle" x="103.24" y="-565.55" font-family="Times New Roman,serif" font-size="14.00">Normalized count: 1.00</text>
<text text-anchor="middle" x="103.24" y="-550.55" font-family="Times New Roman,serif" font-size="14.00">Samples weight: 0.01</text>
</g>
<!-- BB2 -->
<g id="node3" class="node">
<title>BB2</title>
<ellipse fill="none" stroke="black" cx="103.24" cy="-444.58" rx="103.48" ry="48.17"/>
<text text-anchor="middle" x="103.24" y="-463.38" font-family="Times New Roman,serif" font-size="14.00">[12..16)</text>
<text text-anchor="middle" x="103.24" y="-448.38" font-family="Times New Roman,serif" font-size="14.00">Count: 7</text>
<text text-anchor="middle" x="103.24" y="-433.38" font-family="Times New Roman,serif" font-size="14.00">Normalized count: 3.50</text>
<text text-anchor="middle" x="103.24" y="-418.38" font-family="Times New Roman,serif" font-size="14.00">Samples weight: 0.03</text>
</g>
<!-- BB0&#45;&gt;BB2 -->
<g id="edge1" class="edge">
<title>BB0&#45;&gt;BB2</title>
<path fill="none" stroke="black" d="M103.24,-528.39C103.24,-520.12 103.24,-511.44 103.24,-502.93"/>
<polygon fill="black" stroke="black" points="106.74,-502.69 103.24,-492.69 99.74,-502.69 106.74,-502.69"/>
</g>
<!-- BB1 -->
<g id="node2" class="node">
<title>BB1</title>
<ellipse fill="none" stroke="black" cx="103.24" cy="-312.42" rx="103.48" ry="48.17"/>
<text text-anchor="middle" x="103.24" y="-331.22" font-family="Times New Roman,serif" font-size="14.00">[6..12)</text>
<text text-anchor="middle" x="103.24" y="-316.22" font-family="Times New Roman,serif" font-size="14.00">Count: 5</text>
<text text-anchor="middle" x="103.24" y="-301.22" font-family="Times New Roman,serif" font-size="14.00">Normalized count: 2.50</text>
<text text-anchor="middle" x="103.24" y="-286.22" font-family="Times New Roman,serif" font-size="14.00">Samples weight: 0.02</text>
</g>
<!-- BB1&#45;&gt;BB2 -->
<g id="edge2" class="edge">
<title>BB1&#45;&gt;BB2</title>
<path fill="none" stroke="black" d="M109.76,-360.78C109.98,-369.07 110.04,-377.79 109.94,-386.32"/>
<polygon fill="black" stroke="black" points="106.44,-386.53 109.75,-396.59 113.44,-386.66 106.44,-386.53"/>
</g>
<!-- BB2&#45;&gt;BB1 -->
<g id="edge3" class="edge">
<title>BB2&#45;&gt;BB1</title>
<path fill="none" stroke="black" d="M96.72,-396.59C96.5,-388.22 96.43,-379.41 96.53,-370.78"/>
<polygon fill="black" stroke="black" points="100.03,-370.84 96.72,-360.78 93.03,-370.71 100.03,-370.84"/>
</g>
<!-- BB3 -->
<g id="node4" class="node">
<title>BB3</title>
<ellipse fill="none" stroke="black" cx="327.24" cy="-312.42" rx="103.48" ry="48.17"/>
<text text-anchor="middle" x="327.24" y="-331.22" font-family="Times New Roman,serif" font-size="14.00">[16..1a)</text>
<text text-anchor="middle" x="327.24" y="-316.22" font-family="Times New Roman,serif" font-size="14.00">Count: 2</text>
<text text-anchor="middle" x="327.24" y="-301.22" font-family="Times New Roman,serif" font-size="14.00">Normalized count: 1.00</text>
<text text-anchor="middle" x="327.24" y="-286.22" font-family="Times New Roman,serif" font-size="14.00">Samples weight: 0.01</text>
</g>
<!-- BB2&#45;&gt;BB3 -->
<g id="edge4" class="edge">
<title>BB2&#45;&gt;BB3</title>
<path fill="none" stroke="black" d="M166.83,-406.63C194.26,-390.69 226.48,-371.97 254.83,-355.49"/>
<polygon fill="black" stroke="black" points="256.6,-358.51 263.49,-350.46 253.08,-352.46 256.6,-358.51"/>
</g>
<!-- BB5 -->
<g id="node6" class="node">
<title>BB5</title>
<ellipse fill="none" stroke="black" cx="327.24" cy="-180.25" rx="108.38" ry="48.17"/>
<text text-anchor="middle" x="327.24" y="-199.05" font-family="Times New Roman,serif" font-size="14.00">[34..38)</text>
<text text-anchor="middle" x="327.24" y="-184.05" font-family="Times New Roman,serif" font-size="14.00">Count: 126</text>
<text text-anchor="middle" x="327.24" y="-169.05" font-family="Times New Roman,serif" font-size="14.00">Normalized count: 63.00</text>
<text text-anchor="middle" x="327.24" y="-154.05" font-family="Times New Roman,serif" font-size="14.00">Samples weight: 0.47</text>
</g>
<!-- BB3&#45;&gt;BB5 -->
<g id="edge5" class="edge">
<title>BB3&#45;&gt;BB5</title>
<path fill="none" stroke="black" d="M327.24,-264.05C327.24,-255.79 327.24,-247.1 327.24,-238.6"/>
<polygon fill="black" stroke="black" points="330.74,-238.36 327.24,-228.36 323.74,-238.36 330.74,-238.36"/>
</g>
<!-- BB4 -->
<g id="node5" class="node">
<title>BB4</title>
<ellipse fill="none" stroke="black" cx="327.24" cy="-48.08" rx="108.38" ry="48.17"/>
<text text-anchor="middle" x="327.24" y="-66.88" font-family="Times New Roman,serif" font-size="14.00">[1a..34)</text>
<text text-anchor="middle" x="327.24" y="-51.88" font-family="Times New Roman,serif" font-size="14.00">Count: 124</text>
<text text-anchor="middle" x="327.24" y="-36.88" font-family="Times New Roman,serif" font-size="14.00">Normalized count: 62.00</text>
<text text-anchor="middle" x="327.24" y="-21.88" font-family="Times New Roman,serif" font-size="14.00">Samples weight: 0.46</text>
</g>
<!-- BB4&#45;&gt;BB5 -->
<g id="edge6" class="edge">
<title>BB4&#45;&gt;BB5</title>
<path fill="none" stroke="black" d="M333.75,-96.19C333.97,-104.45 334.04,-113.13 333.95,-121.64"/>
<polygon fill="black" stroke="black" points="330.44,-121.83 333.76,-131.89 337.44,-121.95 330.44,-121.83"/>
</g>
<!-- BB5&#45;&gt;BB4 -->
<g id="edge7" class="edge">
<title>BB5&#45;&gt;BB4</title>
<path fill="none" stroke="black" d="M320.72,-131.89C320.5,-123.62 320.44,-114.94 320.53,-106.43"/>
<polygon fill="black" stroke="black" points="324.03,-106.26 320.72,-96.19 317.04,-106.12 324.03,-106.26"/>
</g>
<!-- BB6 -->
<g id="node7" class="node">
<title>BB6</title>
<ellipse fill="none" stroke="black" cx="556.24" cy="-48.08" rx="103.48" ry="48.17"/>
<text text-anchor="middle" x="556.24" y="-66.88" font-family="Times New Roman,serif" font-size="14.00">[38..39)</text>
<text text-anchor="middle" x="556.24" y="-51.88" font-family="Times New Roman,serif" font-size="14.00">Count: 2</text>
<text text-anchor="middle" x="556.24" y="-36.88" font-family="Times New Roman,serif" font-size="14.00">Normalized count: 1.00</text>
<text text-anchor="middle" x="556.24" y="-21.88" font-family="Times New Roman,serif" font-size="14.00">Samples weight: 0.01</text>
</g>
<!-- BB5&#45;&gt;BB6 -->
<g id="edge8" class="edge">
<title>BB5&#45;&gt;BB6</title>
<path fill="none" stroke="black" d="M392.86,-141.95C421.01,-125.95 454.01,-107.19 482.95,-90.74"/>
<polygon fill="black" stroke="black" points="484.83,-93.7 491.79,-85.71 481.37,-87.61 484.83,-93.7"/>
</g>
</g>
</svg>
