<?xml version="1.0" encoding="UTF-8" standalone="no"?>
<!DOCTYPE svg PUBLIC "-//W3C//DTD SVG 1.1//EN"
 "http://www.w3.org/Graphics/SVG/1.1/DTD/svg11.dtd">
<!-- Generated by graphviz version 2.47.0 (20210316.0004)
 -->
<!-- Title: G Pages: 1 -->
<svg width="383pt" height="421pt"
 viewBox="0.00 0.00 382.56 420.70" xmlns="http://www.w3.org/2000/svg" xmlns:xlink="http://www.w3.org/1999/xlink">
<g id="graph0" class="graph" transform="scale(1 1) rotate(0) translate(4 416.7)">
<title>G</title>
<polygon fill="white" stroke="transparent" points="-4,4 -4,-416.7 378.56,-416.7 378.56,4 -4,4"/>
<!-- BB0 -->
<g id="node1" class="node">
<title>BB0</title>
<ellipse fill="none" stroke="black" cx="227.13" cy="-385.83" rx="33.47" ry="26.74"/>
<text text-anchor="middle" x="227.13" y="-389.63" font-family="Times New Roman,serif" font-size="14.00">[0..2)</text>
<text text-anchor="middle" x="227.13" y="-374.63" font-family="Times New Roman,serif" font-size="14.00">0.03</text>
</g>
<!-- BB7 -->
<g id="node8" class="node">
<title>BB7</title>
<ellipse fill="none" stroke="black" cx="227.13" cy="-296.09" rx="42.35" ry="26.74"/>
<text text-anchor="middle" x="227.13" y="-299.89" font-family="Times New Roman,serif" font-size="14.00">[60..66)</text>
<text text-anchor="middle" x="227.13" y="-284.89" font-family="Times New Roman,serif" font-size="14.00">0.06</text>
</g>
<!-- BB0&#45;&gt;BB7 -->
<g id="edge1" class="edge">
<title>BB0&#45;&gt;BB7</title>
<path fill="none" stroke="black" d="M227.13,-358.51C227.13,-350.54 227.13,-341.65 227.13,-333.16"/>
<polygon fill="black" stroke="black" points="230.63,-333.09 227.13,-323.09 223.63,-333.09 230.63,-333.09"/>
</g>
<!-- BB1 -->
<g id="node2" class="node">
<title>BB1</title>
<ellipse fill="none" stroke="black" cx="192.13" cy="-206.35" rx="32.55" ry="26.74"/>
<text text-anchor="middle" x="192.13" y="-210.15" font-family="Times New Roman,serif" font-size="14.00">[2..a)</text>
<text text-anchor="middle" x="192.13" y="-195.15" font-family="Times New Roman,serif" font-size="14.00">0.09</text>
</g>
<!-- BB2 -->
<g id="node3" class="node">
<title>BB2</title>
<ellipse fill="none" stroke="black" cx="95.13" cy="-116.61" rx="36.54" ry="26.74"/>
<text text-anchor="middle" x="95.13" y="-120.41" font-family="Times New Roman,serif" font-size="14.00">[a..1e)</text>
<text text-anchor="middle" x="95.13" y="-105.41" font-family="Times New Roman,serif" font-size="14.00">0.19</text>
</g>
<!-- BB1&#45;&gt;BB2 -->
<g id="edge3" class="edge">
<title>BB1&#45;&gt;BB2</title>
<path fill="none" stroke="black" d="M170.61,-185.88C157.2,-173.75 139.77,-157.99 125.04,-144.66"/>
<polygon fill="black" stroke="black" points="127.38,-142.06 117.61,-137.94 122.68,-147.25 127.38,-142.06"/>
</g>
<!-- BB4 -->
<g id="node5" class="node">
<title>BB4</title>
<ellipse fill="none" stroke="black" cx="192.13" cy="-116.61" rx="42.35" ry="26.74"/>
<text text-anchor="middle" x="192.13" y="-120.41" font-family="Times New Roman,serif" font-size="14.00">[22..34)</text>
<text text-anchor="middle" x="192.13" y="-105.41" font-family="Times New Roman,serif" font-size="14.00">0.16</text>
</g>
<!-- BB1&#45;&gt;BB4 -->
<g id="edge2" class="edge">
<title>BB1&#45;&gt;BB4</title>
<path fill="none" stroke="black" d="M192.13,-179.03C192.13,-171.06 192.13,-162.17 192.13,-153.68"/>
<polygon fill="black" stroke="black" points="195.63,-153.61 192.13,-143.61 188.63,-153.61 195.63,-153.61"/>
</g>
<!-- BB3 -->
<g id="node4" class="node">
<title>BB3</title>
<ellipse fill="none" stroke="black" cx="152.13" cy="-26.87" rx="41.94" ry="26.74"/>
<text text-anchor="middle" x="152.13" y="-30.67" font-family="Times New Roman,serif" font-size="14.00">[1e..22)</text>
<text text-anchor="middle" x="152.13" y="-15.67" font-family="Times New Roman,serif" font-size="14.00">0.17</text>
</g>
<!-- BB2&#45;&gt;BB3 -->
<g id="edge5" class="edge">
<title>BB2&#45;&gt;BB3</title>
<path fill="none" stroke="black" d="M110.41,-92.1C116.69,-82.42 124.08,-71.05 130.88,-60.58"/>
<polygon fill="black" stroke="black" points="133.91,-62.35 136.42,-52.06 128.04,-58.54 133.91,-62.35"/>
</g>
<!-- BB2&#45;&gt;BB4 -->
<g id="edge4" class="edge">
<title>BB2&#45;&gt;BB4</title>
<path fill="none" stroke="black" d="M132.27,-116.61C134.7,-116.61 137.13,-116.61 139.57,-116.61"/>
<polygon fill="black" stroke="black" points="139.57,-120.11 149.57,-116.61 139.57,-113.11 139.57,-120.11"/>
</g>
<!-- BB3&#45;&gt;BB4 -->
<g id="edge6" class="edge">
<title>BB3&#45;&gt;BB4</title>
<path fill="none" stroke="black" d="M163.52,-52.84C167.57,-61.74 172.21,-71.92 176.56,-81.45"/>
<polygon fill="black" stroke="black" points="173.45,-83.05 180.78,-90.7 179.81,-80.15 173.45,-83.05"/>
</g>
<!-- BB5 -->
<g id="node6" class="node">
<title>BB5</title>
<ellipse fill="none" stroke="black" cx="43.13" cy="-26.87" rx="43.27" ry="26.74"/>
<text text-anchor="middle" x="43.13" y="-30.67" font-family="Times New Roman,serif" font-size="14.00">[34..5b)</text>
<text text-anchor="middle" x="43.13" y="-15.67" font-family="Times New Roman,serif" font-size="14.00">0.27</text>
</g>
<!-- BB4&#45;&gt;BB5 -->
<g id="edge8" class="edge">
<title>BB4&#45;&gt;BB5</title>
<path fill="none" stroke="black" d="M161.62,-97.64C138.8,-84.2 107.39,-65.71 82.65,-51.14"/>
<polygon fill="black" stroke="black" points="84.25,-48.02 73.86,-45.96 80.7,-54.05 84.25,-48.02"/>
</g>
<!-- BB6 -->
<g id="node7" class="node">
<title>BB6</title>
<ellipse fill="none" stroke="black" cx="258.13" cy="-26.87" rx="43.27" ry="26.74"/>
<text text-anchor="middle" x="258.13" y="-30.67" font-family="Times New Roman,serif" font-size="14.00">[5b..60)</text>
<text text-anchor="middle" x="258.13" y="-15.67" font-family="Times New Roman,serif" font-size="14.00">0.03</text>
</g>
<!-- BB4&#45;&gt;BB6 -->
<g id="edge7" class="edge">
<title>BB4&#45;&gt;BB6</title>
<path fill="none" stroke="black" d="M209.82,-92.1C217.29,-82.16 226.11,-70.44 234.15,-59.75"/>
<polygon fill="black" stroke="black" points="237.18,-61.54 240.4,-51.45 231.59,-57.34 237.18,-61.54"/>
</g>
<!-- BB5&#45;&gt;BB7 -->
<g id="edge9" class="edge">
<title>BB5&#45;&gt;BB7</title>
<path fill="none" stroke="black" d="M38.95,-54.08C36.29,-78.47 35.55,-115.22 49.13,-143.48 77.95,-203.42 142.79,-248.74 185.74,-273.6"/>
<polygon fill="black" stroke="black" points="184.13,-276.71 194.56,-278.59 187.58,-270.62 184.13,-276.71"/>
</g>
<!-- BB6&#45;&gt;BB7 -->
<g id="edge10" class="edge">
<title>BB6&#45;&gt;BB7</title>
<path fill="none" stroke="black" d="M255.14,-53.69C249.58,-101.59 237.67,-204.3 231.32,-259.03"/>
<polygon fill="black" stroke="black" points="227.84,-258.64 230.16,-268.98 234.79,-259.45 227.84,-258.64"/>
</g>
<!-- BB7&#45;&gt;BB1 -->
<g id="edge11" class="edge">
<title>BB7&#45;&gt;BB1</title>
<path fill="none" stroke="black" d="M217.01,-269.71C213.5,-260.92 209.51,-250.92 205.77,-241.54"/>
<polygon fill="black" stroke="black" points="208.95,-240.06 201.99,-232.07 202.45,-242.65 208.95,-240.06"/>
</g>
<!-- BB8 -->
<g id="node9" class="node">
<title>BB8</title>
<ellipse fill="none" stroke="black" cx="332.13" cy="-206.35" rx="42.35" ry="26.74"/>
<text text-anchor="middle" x="332.13" y="-210.15" font-family="Times New Roman,serif" font-size="14.00">[66..67)</text>
<text text-anchor="middle" x="332.13" y="-195.15" font-family="Times New Roman,serif" font-size="14.00">0.00</text>
</g>
<!-- BB7&#45;&gt;BB8 -->
<g id="edge12" class="edge">
<title>BB7&#45;&gt;BB8</title>
<path fill="none" stroke="black" d="M252.02,-274.3C266.17,-262.47 284.06,-247.52 299.34,-234.75"/>
<polygon fill="black" stroke="black" points="301.64,-237.4 307.06,-228.3 297.15,-232.02 301.64,-237.4"/>
</g>
</g>
</svg>
