<?xml version="1.0" encoding="UTF-8" standalone="no"?>
<!DOCTYPE svg PUBLIC "-//W3C//DTD SVG 1.1//EN"
 "http://www.w3.org/Graphics/SVG/1.1/DTD/svg11.dtd">
<!-- Generated by graphviz version 2.47.0 (20210316.0004)
 -->
<!-- Title: G Pages: 1 -->
<svg width="707pt" height="633pt"
 viewBox="0.00 0.00 707.32 632.83" xmlns="http://www.w3.org/2000/svg" xmlns:xlink="http://www.w3.org/1999/xlink">
<g id="graph0" class="graph" transform="scale(1 1) rotate(0) translate(4 628.83)">
<title>G</title>
<polygon fill="white" stroke="transparent" points="-4,4 -4,-628.83 703.32,-628.83 703.32,4 -4,4"/>
<!-- BB0 -->
<g id="node1" class="node">
<title>BB0</title>
<ellipse fill="none" stroke="black" cx="118.09" cy="-576.75" rx="103.48" ry="48.17"/>
<text text-anchor="middle" x="118.09" y="-595.55" font-family="Times New Roman,serif" font-size="14.00">[0..6)</text>
<text text-anchor="middle" x="118.09" y="-580.55" font-family="Times New Roman,serif" font-size="14.00">Count: 2000</text>
<text text-anchor="middle" x="118.09" y="-565.55" font-family="Times New Roman,serif" font-size="14.00">Normalized count: 1.00</text>
<text text-anchor="middle" x="118.09" y="-550.55" font-family="Times New Roman,serif" font-size="14.00">Samples weight: 0.00</text>
</g>
<!-- BB2 -->
<g id="node3" class="node">
<title>BB2</title>
<ellipse fill="none" stroke="black" cx="118.09" cy="-444.58" rx="118.17" ry="48.17"/>
<text text-anchor="middle" x="118.09" y="-463.38" font-family="Times New Roman,serif" font-size="14.00">[12..16)</text>
<text text-anchor="middle" x="118.09" y="-448.38" font-family="Times New Roman,serif" font-size="14.00">Count: 8112000</text>
<text text-anchor="middle" x="118.09" y="-433.38" font-family="Times New Roman,serif" font-size="14.00">Normalized count: 4056.00</text>
<text text-anchor="middle" x="118.09" y="-418.38" font-family="Times New Roman,serif" font-size="14.00">Samples weight: 0.17</text>
</g>
<!-- BB0&#45;&gt;BB2 -->
<g id="edge1" class="edge">
<title>BB0&#45;&gt;BB2</title>
<path fill="none" stroke="black" d="M118.09,-528.39C118.09,-520.12 118.09,-511.44 118.09,-502.93"/>
<polygon fill="black" stroke="black" points="121.59,-502.69 118.09,-492.69 114.59,-502.69 121.59,-502.69"/>
</g>
<!-- BB1 -->
<g id="node2" class="node">
<title>BB1</title>
<ellipse fill="none" stroke="black" cx="118.09" cy="-312.42" rx="118.17" ry="48.17"/>
<text text-anchor="middle" x="118.09" y="-331.22" font-family="Times New Roman,serif" font-size="14.00">[6..12)</text>
<text text-anchor="middle" x="118.09" y="-316.22" font-family="Times New Roman,serif" font-size="14.00">Count: 8110000</text>
<text text-anchor="middle" x="118.09" y="-301.22" font-family="Times New Roman,serif" font-size="14.00">Normalized count: 4055.00</text>
<text text-anchor="middle" x="118.09" y="-286.22" font-family="Times New Roman,serif" font-size="14.00">Samples weight: 0.17</text>
</g>
<!-- BB1&#45;&gt;BB2 -->
<g id="edge2" class="edge">
<title>BB1&#45;&gt;BB2</title>
<path fill="none" stroke="black" d="M124.6,-360.52C124.82,-368.78 124.89,-377.46 124.8,-385.97"/>
<polygon fill="black" stroke="black" points="121.29,-386.16 124.61,-396.22 128.29,-386.29 121.29,-386.16"/>
</g>
<!-- BB2&#45;&gt;BB1 -->
<g id="edge3" class="edge">
<title>BB2&#45;&gt;BB1</title>
<path fill="none" stroke="black" d="M111.56,-396.22C111.35,-387.95 111.29,-379.27 111.38,-370.77"/>
<polygon fill="black" stroke="black" points="114.88,-370.59 111.57,-360.52 107.88,-370.46 114.88,-370.59"/>
</g>
<!-- BB3 -->
<g id="node4" class="node">
<title>BB3</title>
<ellipse fill="none" stroke="black" cx="357.09" cy="-312.42" rx="103.48" ry="48.17"/>
<text text-anchor="middle" x="357.09" y="-331.22" font-family="Times New Roman,serif" font-size="14.00">[16..1a)</text>
<text text-anchor="middle" x="357.09" y="-316.22" font-family="Times New Roman,serif" font-size="14.00">Count: 2000</text>
<text text-anchor="middle" x="357.09" y="-301.22" font-family="Times New Roman,serif" font-size="14.00">Normalized count: 1.00</text>
<text text-anchor="middle" x="357.09" y="-286.22" font-family="Times New Roman,serif" font-size="14.00">Samples weight: 0.00</text>
</g>
<!-- BB2&#45;&gt;BB3 -->
<g id="edge4" class="edge">
<title>BB2&#45;&gt;BB3</title>
<path fill="none" stroke="black" d="M187.86,-405.58C217.45,-389.47 252,-370.65 282.14,-354.24"/>
<polygon fill="black" stroke="black" points="283.82,-357.31 290.92,-349.45 280.47,-351.16 283.82,-357.31"/>
</g>
<!-- BB5 -->
<g id="node6" class="node">
<title>BB5</title>
<ellipse fill="none" stroke="black" cx="357.09" cy="-180.25" rx="118.17" ry="48.17"/>
<text text-anchor="middle" x="357.09" y="-199.05" font-family="Times New Roman,serif" font-size="14.00">[34..38)</text>
<text text-anchor="middle" x="357.09" y="-184.05" font-family="Times New Roman,serif" font-size="14.00">Count: 16222000</text>
<text text-anchor="middle" x="357.09" y="-169.05" font-family="Times New Roman,serif" font-size="14.00">Normalized count: 8111.00</text>
<text text-anchor="middle" x="357.09" y="-154.05" font-family="Times New Roman,serif" font-size="14.00">Samples weight: 0.33</text>
</g>
<!-- BB3&#45;&gt;BB5 -->
<g id="edge5" class="edge">
<title>BB3&#45;&gt;BB5</title>
<path fill="none" stroke="black" d="M357.09,-264.05C357.09,-255.79 357.09,-247.1 357.09,-238.6"/>
<polygon fill="black" stroke="black" points="360.59,-238.36 357.09,-228.36 353.59,-238.36 360.59,-238.36"/>
</g>
<!-- BB4 -->
<g id="node5" class="node">
<title>BB4</title>
<ellipse fill="none" stroke="black" cx="357.09" cy="-48.08" rx="118.17" ry="48.17"/>
<text text-anchor="middle" x="357.09" y="-66.88" font-family="Times New Roman,serif" font-size="14.00">[1a..34)</text>
<text text-anchor="middle" x="357.09" y="-51.88" font-family="Times New Roman,serif" font-size="14.00">Count: 16220000</text>
<text text-anchor="middle" x="357.09" y="-36.88" font-family="Times New Roman,serif" font-size="14.00">Normalized count: 8110.00</text>
<text text-anchor="middle" x="357.09" y="-21.88" font-family="Times New Roman,serif" font-size="14.00">Samples weight: 0.33</text>
</g>
<!-- BB4&#45;&gt;BB5 -->
<g id="edge6" class="edge">
<title>BB4&#45;&gt;BB5</title>
<path fill="none" stroke="black" d="M363.6,-96.19C363.82,-104.45 363.89,-113.13 363.8,-121.64"/>
<polygon fill="black" stroke="black" points="360.29,-121.83 363.61,-131.89 367.29,-121.95 360.29,-121.83"/>
</g>
<!-- BB5&#45;&gt;BB4 -->
<g id="edge7" class="edge">
<title>BB5&#45;&gt;BB4</title>
<path fill="none" stroke="black" d="M350.56,-131.89C350.35,-123.62 350.29,-114.94 350.38,-106.43"/>
<polygon fill="black" stroke="black" points="353.88,-106.26 350.57,-96.19 346.88,-106.12 353.88,-106.26"/>
</g>
<!-- BB6 -->
<g id="node7" class="node">
<title>BB6</title>
<ellipse fill="none" stroke="black" cx="596.09" cy="-48.08" rx="103.48" ry="48.17"/>
<text text-anchor="middle" x="596.09" y="-66.88" font-family="Times New Roman,serif" font-size="14.00">[38..39)</text>
<text text-anchor="middle" x="596.09" y="-51.88" font-family="Times New Roman,serif" font-size="14.00">Count: 2000</text>
<text text-anchor="middle" x="596.09" y="-36.88" font-family="Times New Roman,serif" font-size="14.00">Normalized count: 1.00</text>
<text text-anchor="middle" x="596.09" y="-21.88" font-family="Times New Roman,serif" font-size="14.00">Samples weight: 0.00</text>
</g>
<!-- BB5&#45;&gt;BB6 -->
<g id="edge8" class="edge">
<title>BB5&#45;&gt;BB6</title>
<path fill="none" stroke="black" d="M426.86,-141.25C456.45,-125.13 491,-106.32 521.14,-89.9"/>
<polygon fill="black" stroke="black" points="522.82,-92.97 529.92,-85.12 519.47,-86.83 522.82,-92.97"/>
</g>
</g>
</svg>
