<?xml version="1.0" encoding="UTF-8" standalone="no"?>
<!DOCTYPE svg PUBLIC "-//W3C//DTD SVG 1.1//EN"
 "http://www.w3.org/Graphics/SVG/1.1/DTD/svg11.dtd">
<!-- Generated by graphviz version 2.47.0 (20210316.0004)
 -->
<!-- Title: G Pages: 1 -->
<svg width="837pt" height="633pt"
 viewBox="0.00 0.00 837.42 632.83" xmlns="http://www.w3.org/2000/svg" xmlns:xlink="http://www.w3.org/1999/xlink">
<g id="graph0" class="graph" transform="scale(1 1) rotate(0) translate(4 628.83)">
<title>G</title>
<polygon fill="white" stroke="transparent" points="-4,4 -4,-628.83 833.42,-628.83 833.42,4 -4,4"/>
<!-- BB0 -->
<g id="node1" class="node">
<title>BB0</title>
<ellipse fill="none" stroke="black" cx="527.19" cy="-576.75" rx="103.48" ry="48.17"/>
<text text-anchor="middle" x="527.19" y="-595.55" font-family="Times New Roman,serif" font-size="14.00">[0..2)</text>
<text text-anchor="middle" x="527.19" y="-580.55" font-family="Times New Roman,serif" font-size="14.00">Count: 13</text>
<text text-anchor="middle" x="527.19" y="-565.55" font-family="Times New Roman,serif" font-size="14.00">Normalized count: 1.00</text>
<text text-anchor="middle" x="527.19" y="-550.55" font-family="Times New Roman,serif" font-size="14.00">Samples weight: 0.00</text>
</g>
<!-- BB7 -->
<g id="node8" class="node">
<title>BB7</title>
<ellipse fill="none" stroke="black" cx="527.19" cy="-444.58" rx="108.38" ry="48.17"/>
<text text-anchor="middle" x="527.19" y="-463.38" font-family="Times New Roman,serif" font-size="14.00">[38..3e)</text>
<text text-anchor="middle" x="527.19" y="-448.38" font-family="Times New Roman,serif" font-size="14.00">Count: 643</text>
<text text-anchor="middle" x="527.19" y="-433.38" font-family="Times New Roman,serif" font-size="14.00">Normalized count: 49.46</text>
<text text-anchor="middle" x="527.19" y="-418.38" font-family="Times New Roman,serif" font-size="14.00">Samples weight: 0.18</text>
</g>
<!-- BB0&#45;&gt;BB7 -->
<g id="edge1" class="edge">
<title>BB0&#45;&gt;BB7</title>
<path fill="none" stroke="black" d="M527.19,-528.39C527.19,-520.12 527.19,-511.44 527.19,-502.93"/>
<polygon fill="black" stroke="black" points="530.69,-502.69 527.19,-492.69 523.69,-502.69 530.69,-502.69"/>
</g>
<!-- BB1 -->
<g id="node2" class="node">
<title>BB1</title>
<ellipse fill="none" stroke="black" cx="459.19" cy="-312.42" rx="108.38" ry="48.17"/>
<text text-anchor="middle" x="459.19" y="-331.22" font-family="Times New Roman,serif" font-size="14.00">[2..a)</text>
<text text-anchor="middle" x="459.19" y="-316.22" font-family="Times New Roman,serif" font-size="14.00">Count: 630</text>
<text text-anchor="middle" x="459.19" y="-301.22" font-family="Times New Roman,serif" font-size="14.00">Normalized count: 48.46</text>
<text text-anchor="middle" x="459.19" y="-286.22" font-family="Times New Roman,serif" font-size="14.00">Samples weight: 0.18</text>
</g>
<!-- BB2 -->
<g id="node3" class="node">
<title>BB2</title>
<ellipse fill="none" stroke="black" cx="225.19" cy="-180.25" rx="108.38" ry="48.17"/>
<text text-anchor="middle" x="225.19" y="-199.05" font-family="Times New Roman,serif" font-size="14.00">[a..14)</text>
<text text-anchor="middle" x="225.19" y="-184.05" font-family="Times New Roman,serif" font-size="14.00">Count: 630</text>
<text text-anchor="middle" x="225.19" y="-169.05" font-family="Times New Roman,serif" font-size="14.00">Normalized count: 48.46</text>
<text text-anchor="middle" x="225.19" y="-154.05" font-family="Times New Roman,serif" font-size="14.00">Samples weight: 0.18</text>
</g>
<!-- BB1&#45;&gt;BB2 -->
<g id="edge3" class="edge">
<title>BB1&#45;&gt;BB2</title>
<path fill="none" stroke="black" d="M392.76,-274.46C364.1,-258.52 330.44,-239.8 300.83,-223.33"/>
<polygon fill="black" stroke="black" points="302.22,-220.1 291.78,-218.29 298.82,-226.21 302.22,-220.1"/>
</g>
<!-- BB4 -->
<g id="node5" class="node">
<title>BB4</title>
<ellipse fill="none" stroke="black" cx="459.19" cy="-180.25" rx="108.38" ry="48.17"/>
<text text-anchor="middle" x="459.19" y="-199.05" font-family="Times New Roman,serif" font-size="14.00">[18..20)</text>
<text text-anchor="middle" x="459.19" y="-184.05" font-family="Times New Roman,serif" font-size="14.00">Count: 630</text>
<text text-anchor="middle" x="459.19" y="-169.05" font-family="Times New Roman,serif" font-size="14.00">Normalized count: 48.46</text>
<text text-anchor="middle" x="459.19" y="-154.05" font-family="Times New Roman,serif" font-size="14.00">Samples weight: 0.18</text>
</g>
<!-- BB1&#45;&gt;BB4 -->
<g id="edge2" class="edge">
<title>BB1&#45;&gt;BB4</title>
<path fill="none" stroke="black" d="M459.19,-264.05C459.19,-255.79 459.19,-247.1 459.19,-238.6"/>
<polygon fill="black" stroke="black" points="462.69,-238.36 459.19,-228.36 455.69,-238.36 462.69,-238.36"/>
</g>
<!-- BB3 -->
<g id="node4" class="node">
<title>BB3</title>
<ellipse fill="none" stroke="black" cx="351.19" cy="-48.08" rx="108.38" ry="48.17"/>
<text text-anchor="middle" x="351.19" y="-66.88" font-family="Times New Roman,serif" font-size="14.00">[14..18)</text>
<text text-anchor="middle" x="351.19" y="-51.88" font-family="Times New Roman,serif" font-size="14.00">Count: 293</text>
<text text-anchor="middle" x="351.19" y="-36.88" font-family="Times New Roman,serif" font-size="14.00">Normalized count: 22.54</text>
<text text-anchor="middle" x="351.19" y="-21.88" font-family="Times New Roman,serif" font-size="14.00">Samples weight: 0.08</text>
</g>
<!-- BB2&#45;&gt;BB3 -->
<g id="edge5" class="edge">
<title>BB2&#45;&gt;BB3</title>
<path fill="none" stroke="black" d="M267.14,-135.91C278.29,-124.39 290.43,-111.85 301.92,-99.98"/>
<polygon fill="black" stroke="black" points="304.54,-102.3 308.98,-92.68 299.51,-97.43 304.54,-102.3"/>
</g>
<!-- BB2&#45;&gt;BB4 -->
<g id="edge4" class="edge">
<title>BB2&#45;&gt;BB4</title>
<path fill="none" stroke="black" d="M333.5,-180.25C335.83,-180.25 338.16,-180.25 340.48,-180.25"/>
<polygon fill="black" stroke="black" points="340.69,-183.75 350.69,-180.25 340.69,-176.75 340.69,-183.75"/>
</g>
<!-- BB3&#45;&gt;BB4 -->
<g id="edge6" class="edge">
<title>BB3&#45;&gt;BB4</title>
<path fill="none" stroke="black" d="M388.25,-93.76C397.11,-104.44 406.65,-115.93 415.77,-126.92"/>
<polygon fill="black" stroke="black" points="413.24,-129.36 422.32,-134.82 418.63,-124.89 413.24,-129.36"/>
</g>
<!-- BB5 -->
<g id="node6" class="node">
<title>BB5</title>
<ellipse fill="none" stroke="black" cx="108.19" cy="-48.08" rx="108.38" ry="48.17"/>
<text text-anchor="middle" x="108.19" y="-66.88" font-family="Times New Roman,serif" font-size="14.00">[20..33)</text>
<text text-anchor="middle" x="108.19" y="-51.88" font-family="Times New Roman,serif" font-size="14.00">Count: 423</text>
<text text-anchor="middle" x="108.19" y="-36.88" font-family="Times New Roman,serif" font-size="14.00">Normalized count: 32.54</text>
<text text-anchor="middle" x="108.19" y="-21.88" font-family="Times New Roman,serif" font-size="14.00">Samples weight: 0.12</text>
</g>
<!-- BB4&#45;&gt;BB5 -->
<g id="edge8" class="edge">
<title>BB4&#45;&gt;BB5</title>
<path fill="none" stroke="black" d="M380.77,-146.93C367.93,-141.86 354.72,-136.77 342.19,-132.17 294.7,-114.71 281.89,-113.02 234.19,-96.17 222.72,-92.11 210.71,-87.76 198.84,-83.4"/>
<polygon fill="black" stroke="black" points="199.96,-80.08 189.37,-79.91 197.54,-86.65 199.96,-80.08"/>
</g>
<!-- BB6 -->
<g id="node7" class="node">
<title>BB6</title>
<ellipse fill="none" stroke="black" cx="590.19" cy="-48.08" rx="108.38" ry="48.17"/>
<text text-anchor="middle" x="590.19" y="-66.88" font-family="Times New Roman,serif" font-size="14.00">[33..38)</text>
<text text-anchor="middle" x="590.19" y="-51.88" font-family="Times New Roman,serif" font-size="14.00">Count: 207</text>
<text text-anchor="middle" x="590.19" y="-36.88" font-family="Times New Roman,serif" font-size="14.00">Normalized count: 15.92</text>
<text text-anchor="middle" x="590.19" y="-21.88" font-family="Times New Roman,serif" font-size="14.00">Samples weight: 0.06</text>
</g>
<!-- BB4&#45;&gt;BB6 -->
<g id="edge7" class="edge">
<title>BB4&#45;&gt;BB6</title>
<path fill="none" stroke="black" d="M502.81,-135.91C514.52,-124.27 527.28,-111.59 539.35,-99.6"/>
<polygon fill="black" stroke="black" points="542.13,-101.77 546.76,-92.24 537.2,-96.8 542.13,-101.77"/>
</g>
<!-- BB5&#45;&gt;BB7 -->
<g id="edge9" class="edge">
<title>BB5&#45;&gt;BB7</title>
<path fill="none" stroke="black" d="M95.94,-95.86C88.65,-134.13 84.81,-188.29 108.19,-228.33 173.32,-339.92 317.64,-395.76 418.61,-422.16"/>
<polygon fill="black" stroke="black" points="417.99,-425.61 428.54,-424.7 419.72,-418.83 417.99,-425.61"/>
</g>
<!-- BB6&#45;&gt;BB7 -->
<g id="edge10" class="edge">
<title>BB6&#45;&gt;BB7</title>
<path fill="none" stroke="black" d="M595.01,-96.15C599.82,-158.17 603.09,-269.97 576.19,-360.5 573.26,-370.35 568.92,-380.26 564.01,-389.62"/>
<polygon fill="black" stroke="black" points="560.92,-387.97 559.16,-398.42 567.05,-391.35 560.92,-387.97"/>
</g>
<!-- BB7&#45;&gt;BB1 -->
<g id="edge11" class="edge">
<title>BB7&#45;&gt;BB1</title>
<path fill="none" stroke="black" d="M503.21,-397.69C498.24,-388.16 492.94,-378.03 487.82,-368.23"/>
<polygon fill="black" stroke="black" points="490.91,-366.58 483.17,-359.33 484.7,-369.82 490.91,-366.58"/>
</g>
<!-- BB8 -->
<g id="node9" class="node">
<title>BB8</title>
<ellipse fill="none" stroke="black" cx="726.19" cy="-312.42" rx="103.48" ry="48.17"/>
<text text-anchor="middle" x="726.19" y="-331.22" font-family="Times New Roman,serif" font-size="14.00">[3e..3f)</text>
<text text-anchor="middle" x="726.19" y="-316.22" font-family="Times New Roman,serif" font-size="14.00">Count: 13</text>
<text text-anchor="middle" x="726.19" y="-301.22" font-family="Times New Roman,serif" font-size="14.00">Normalized count: 1.00</text>
<text text-anchor="middle" x="726.19" y="-286.22" font-family="Times New Roman,serif" font-size="14.00">Samples weight: 0.00</text>
</g>
<!-- BB7&#45;&gt;BB8 -->
<g id="edge12" class="edge">
<title>BB7&#45;&gt;BB8</title>
<path fill="none" stroke="black" d="M587.16,-404.35C609.69,-389.62 635.44,-372.77 658.61,-357.62"/>
<polygon fill="black" stroke="black" points="660.57,-360.52 667.02,-352.12 656.73,-354.66 660.57,-360.52"/>
</g>
</g>
</svg>
