<?xml version="1.0" encoding="UTF-8" standalone="no"?>
<!DOCTYPE svg PUBLIC "-//W3C//DTD SVG 1.1//EN"
 "http://www.w3.org/Graphics/SVG/1.1/DTD/svg11.dtd">
<!-- Generated by graphviz version 2.47.0 (20210316.0004)
 -->
<!-- Title: G Pages: 1 -->
<svg width="817pt" height="633pt"
 viewBox="0.00 0.00 817.48 632.83" xmlns="http://www.w3.org/2000/svg" xmlns:xlink="http://www.w3.org/1999/xlink">
<g id="graph0" class="graph" transform="scale(1 1) rotate(0) translate(4 628.83)">
<title>G</title>
<polygon fill="white" stroke="transparent" points="-4,4 -4,-628.83 813.48,-628.83 813.48,4 -4,4"/>
<!-- BB0 -->
<g id="node1" class="node">
<title>BB0</title>
<ellipse fill="none" stroke="black" cx="507.24" cy="-576.75" rx="103.48" ry="48.17"/>
<text text-anchor="middle" x="507.24" y="-595.55" font-family="Times New Roman,serif" font-size="14.00">[0..2)</text>
<text text-anchor="middle" x="507.24" y="-580.55" font-family="Times New Roman,serif" font-size="14.00">Count: 27</text>
<text text-anchor="middle" x="507.24" y="-565.55" font-family="Times New Roman,serif" font-size="14.00">Normalized count: 1.00</text>
<text text-anchor="middle" x="507.24" y="-550.55" font-family="Times New Roman,serif" font-size="14.00">Samples weight: 0.02</text>
</g>
<!-- BB7 -->
<g id="node8" class="node">
<title>BB7</title>
<ellipse fill="none" stroke="black" cx="507.24" cy="-444.58" rx="108.38" ry="48.17"/>
<text text-anchor="middle" x="507.24" y="-463.38" font-family="Times New Roman,serif" font-size="14.00">[60..66)</text>
<text text-anchor="middle" x="507.24" y="-448.38" font-family="Times New Roman,serif" font-size="14.00">Count: 307</text>
<text text-anchor="middle" x="507.24" y="-433.38" font-family="Times New Roman,serif" font-size="14.00">Normalized count: 11.37</text>
<text text-anchor="middle" x="507.24" y="-418.38" font-family="Times New Roman,serif" font-size="14.00">Samples weight: 0.20</text>
</g>
<!-- BB0&#45;&gt;BB7 -->
<g id="edge1" class="edge">
<title>BB0&#45;&gt;BB7</title>
<path fill="none" stroke="black" d="M507.24,-528.39C507.24,-520.12 507.24,-511.44 507.24,-502.93"/>
<polygon fill="black" stroke="black" points="510.74,-502.69 507.24,-492.69 503.74,-502.69 510.74,-502.69"/>
</g>
<!-- BB1 -->
<g id="node2" class="node">
<title>BB1</title>
<ellipse fill="none" stroke="black" cx="439.24" cy="-312.42" rx="108.38" ry="48.17"/>
<text text-anchor="middle" x="439.24" y="-331.22" font-family="Times New Roman,serif" font-size="14.00">[2..a)</text>
<text text-anchor="middle" x="439.24" y="-316.22" font-family="Times New Roman,serif" font-size="14.00">Count: 280</text>
<text text-anchor="middle" x="439.24" y="-301.22" font-family="Times New Roman,serif" font-size="14.00">Normalized count: 10.37</text>
<text text-anchor="middle" x="439.24" y="-286.22" font-family="Times New Roman,serif" font-size="14.00">Samples weight: 0.18</text>
</g>
<!-- BB2 -->
<g id="node3" class="node">
<title>BB2</title>
<ellipse fill="none" stroke="black" cx="210.24" cy="-180.25" rx="103.48" ry="48.17"/>
<text text-anchor="middle" x="210.24" y="-199.05" font-family="Times New Roman,serif" font-size="14.00">[a..1e)</text>
<text text-anchor="middle" x="210.24" y="-184.05" font-family="Times New Roman,serif" font-size="14.00">Count: 181</text>
<text text-anchor="middle" x="210.24" y="-169.05" font-family="Times New Roman,serif" font-size="14.00">Normalized count: 6.70</text>
<text text-anchor="middle" x="210.24" y="-154.05" font-family="Times New Roman,serif" font-size="14.00">Samples weight: 0.12</text>
</g>
<!-- BB1&#45;&gt;BB2 -->
<g id="edge3" class="edge">
<title>BB1&#45;&gt;BB2</title>
<path fill="none" stroke="black" d="M373.62,-274.12C345.47,-258.12 312.47,-239.36 283.53,-222.91"/>
<polygon fill="black" stroke="black" points="285.11,-219.78 274.68,-217.88 281.65,-225.87 285.11,-219.78"/>
</g>
<!-- BB4 -->
<g id="node5" class="node">
<title>BB4</title>
<ellipse fill="none" stroke="black" cx="439.24" cy="-180.25" rx="108.38" ry="48.17"/>
<text text-anchor="middle" x="439.24" y="-199.05" font-family="Times New Roman,serif" font-size="14.00">[22..34)</text>
<text text-anchor="middle" x="439.24" y="-184.05" font-family="Times New Roman,serif" font-size="14.00">Count: 280</text>
<text text-anchor="middle" x="439.24" y="-169.05" font-family="Times New Roman,serif" font-size="14.00">Normalized count: 10.37</text>
<text text-anchor="middle" x="439.24" y="-154.05" font-family="Times New Roman,serif" font-size="14.00">Samples weight: 0.18</text>
</g>
<!-- BB1&#45;&gt;BB4 -->
<g id="edge2" class="edge">
<title>BB1&#45;&gt;BB4</title>
<path fill="none" stroke="black" d="M439.24,-264.05C439.24,-255.79 439.24,-247.1 439.24,-238.6"/>
<polygon fill="black" stroke="black" points="442.74,-238.36 439.24,-228.36 435.74,-238.36 442.74,-238.36"/>
</g>
<!-- BB3 -->
<g id="node4" class="node">
<title>BB3</title>
<ellipse fill="none" stroke="black" cx="339.24" cy="-48.08" rx="103.48" ry="48.17"/>
<text text-anchor="middle" x="339.24" y="-66.88" font-family="Times New Roman,serif" font-size="14.00">[1e..22)</text>
<text text-anchor="middle" x="339.24" y="-51.88" font-family="Times New Roman,serif" font-size="14.00">Count: 181</text>
<text text-anchor="middle" x="339.24" y="-36.88" font-family="Times New Roman,serif" font-size="14.00">Normalized count: 6.70</text>
<text text-anchor="middle" x="339.24" y="-21.88" font-family="Times New Roman,serif" font-size="14.00">Samples weight: 0.12</text>
</g>
<!-- BB2&#45;&gt;BB3 -->
<g id="edge5" class="edge">
<title>BB2&#45;&gt;BB3</title>
<path fill="none" stroke="black" d="M252.83,-136.27C264.61,-124.38 277.5,-111.38 289.64,-99.13"/>
<polygon fill="black" stroke="black" points="292.13,-101.59 296.69,-92.02 287.16,-96.66 292.13,-101.59"/>
</g>
<!-- BB2&#45;&gt;BB4 -->
<g id="edge4" class="edge">
<title>BB2&#45;&gt;BB4</title>
<path fill="none" stroke="black" d="M313.56,-180.25C315.88,-180.25 318.21,-180.25 320.54,-180.25"/>
<polygon fill="black" stroke="black" points="320.74,-183.75 330.74,-180.25 320.74,-176.75 320.74,-183.75"/>
</g>
<!-- BB3&#45;&gt;BB4 -->
<g id="edge6" class="edge">
<title>BB3&#45;&gt;BB4</title>
<path fill="none" stroke="black" d="M373.38,-93.52C381.47,-104.05 390.17,-115.39 398.52,-126.25"/>
<polygon fill="black" stroke="black" points="395.96,-128.66 404.82,-134.45 401.51,-124.39 395.96,-128.66"/>
</g>
<!-- BB5 -->
<g id="node6" class="node">
<title>BB5</title>
<ellipse fill="none" stroke="black" cx="103.24" cy="-48.08" rx="103.48" ry="48.17"/>
<text text-anchor="middle" x="103.24" y="-66.88" font-family="Times New Roman,serif" font-size="14.00">[34..5b)</text>
<text text-anchor="middle" x="103.24" y="-51.88" font-family="Times New Roman,serif" font-size="14.00">Count: 264</text>
<text text-anchor="middle" x="103.24" y="-36.88" font-family="Times New Roman,serif" font-size="14.00">Normalized count: 9.78</text>
<text text-anchor="middle" x="103.24" y="-21.88" font-family="Times New Roman,serif" font-size="14.00">Samples weight: 0.17</text>
</g>
<!-- BB4&#45;&gt;BB5 -->
<g id="edge8" class="edge">
<title>BB4&#45;&gt;BB5</title>
<path fill="none" stroke="black" d="M360.34,-147.25C347.62,-142.16 334.58,-136.99 322.24,-132.17 280.18,-115.74 269.45,-112.18 227.24,-96.17 215.77,-91.82 203.71,-87.24 191.79,-82.72"/>
<polygon fill="black" stroke="black" points="192.87,-79.38 182.28,-79.11 190.39,-85.93 192.87,-79.38"/>
</g>
<!-- BB6 -->
<g id="node7" class="node">
<title>BB6</title>
<ellipse fill="none" stroke="black" cx="569.24" cy="-48.08" rx="103.48" ry="48.17"/>
<text text-anchor="middle" x="569.24" y="-66.88" font-family="Times New Roman,serif" font-size="14.00">[5b..60)</text>
<text text-anchor="middle" x="569.24" y="-51.88" font-family="Times New Roman,serif" font-size="14.00">Count: 16</text>
<text text-anchor="middle" x="569.24" y="-36.88" font-family="Times New Roman,serif" font-size="14.00">Normalized count: 0.59</text>
<text text-anchor="middle" x="569.24" y="-21.88" font-family="Times New Roman,serif" font-size="14.00">Samples weight: 0.01</text>
</g>
<!-- BB4&#45;&gt;BB6 -->
<g id="edge7" class="edge">
<title>BB4&#45;&gt;BB6</title>
<path fill="none" stroke="black" d="M482.53,-135.91C494.15,-124.27 506.82,-111.59 518.79,-99.6"/>
<polygon fill="black" stroke="black" points="521.55,-101.79 526.14,-92.24 516.6,-96.84 521.55,-101.79"/>
</g>
<!-- BB5&#45;&gt;BB7 -->
<g id="edge9" class="edge">
<title>BB5&#45;&gt;BB7</title>
<path fill="none" stroke="black" d="M89.29,-95.74C80.7,-133.94 75.23,-188.05 98.24,-228.33 160.81,-337.91 300.85,-394.09 399.57,-421.12"/>
<polygon fill="black" stroke="black" points="398.73,-424.52 409.29,-423.73 400.54,-417.76 398.73,-424.52"/>
</g>
<!-- BB6&#45;&gt;BB7 -->
<g id="edge10" class="edge">
<title>BB6&#45;&gt;BB7</title>
<path fill="none" stroke="black" d="M574.26,-96.14C579.31,-158.15 582.99,-269.94 556.24,-360.5 553.32,-370.36 548.99,-380.26 544.09,-389.63"/>
<polygon fill="black" stroke="black" points="541,-387.98 539.24,-398.43 547.13,-391.36 541,-387.98"/>
</g>
<!-- BB7&#45;&gt;BB1 -->
<g id="edge11" class="edge">
<title>BB7&#45;&gt;BB1</title>
<path fill="none" stroke="black" d="M483.26,-397.69C478.29,-388.16 472.99,-378.03 467.87,-368.23"/>
<polygon fill="black" stroke="black" points="470.96,-366.58 463.22,-359.33 464.75,-369.82 470.96,-366.58"/>
</g>
<!-- BB8 -->
<g id="node9" class="node">
<title>BB8</title>
<ellipse fill="none" stroke="black" cx="706.24" cy="-312.42" rx="103.48" ry="48.17"/>
<text text-anchor="middle" x="706.24" y="-331.22" font-family="Times New Roman,serif" font-size="14.00">[66..67)</text>
<text text-anchor="middle" x="706.24" y="-316.22" font-family="Times New Roman,serif" font-size="14.00">Count: 27</text>
<text text-anchor="middle" x="706.24" y="-301.22" font-family="Times New Roman,serif" font-size="14.00">Normalized count: 1.00</text>
<text text-anchor="middle" x="706.24" y="-286.22" font-family="Times New Roman,serif" font-size="14.00">Samples weight: 0.02</text>
</g>
<!-- BB7&#45;&gt;BB8 -->
<g id="edge12" class="edge">
<title>BB7&#45;&gt;BB8</title>
<path fill="none" stroke="black" d="M567.21,-404.35C589.74,-389.62 615.49,-372.77 638.66,-357.62"/>
<polygon fill="black" stroke="black" points="640.62,-360.52 647.07,-352.12 636.78,-354.66 640.62,-360.52"/>
</g>
</g>
</svg>
