<?xml version="1.0" encoding="UTF-8" standalone="no"?>
<!DOCTYPE svg PUBLIC "-//W3C//DTD SVG 1.1//EN"
 "http://www.w3.org/Graphics/SVG/1.1/DTD/svg11.dtd">
<!-- Generated by graphviz version 2.47.0 (20210316.0004)
 -->
<!-- Title: G Pages: 1 -->
<svg width="292pt" height="421pt"
 viewBox="0.00 0.00 291.85 420.70" xmlns="http://www.w3.org/2000/svg" xmlns:xlink="http://www.w3.org/1999/xlink">
<g id="graph0" class="graph" transform="scale(1 1) rotate(0) translate(4 416.7)">
<title>G</title>
<polygon fill="white" stroke="transparent" points="-4,4 -4,-416.7 287.85,-416.7 287.85,4 -4,4"/>
<!-- BB0 -->
<g id="node1" class="node">
<title>BB0</title>
<ellipse fill="none" stroke="black" cx="42.43" cy="-385.83" rx="33.47" ry="26.74"/>
<text text-anchor="middle" x="42.43" y="-389.63" font-family="Times New Roman,serif" font-size="14.00">[0..6)</text>
<text text-anchor="middle" x="42.43" y="-374.63" font-family="Times New Roman,serif" font-size="14.00">0.01</text>
</g>
<!-- BB2 -->
<g id="node3" class="node">
<title>BB2</title>
<ellipse fill="none" stroke="black" cx="42.43" cy="-296.09" rx="42.35" ry="26.74"/>
<text text-anchor="middle" x="42.43" y="-299.89" font-family="Times New Roman,serif" font-size="14.00">[12..16)</text>
<text text-anchor="middle" x="42.43" y="-284.89" font-family="Times New Roman,serif" font-size="14.00">0.02</text>
</g>
<!-- BB0&#45;&gt;BB2 -->
<g id="edge1" class="edge">
<title>BB0&#45;&gt;BB2</title>
<path fill="none" stroke="black" d="M42.43,-358.51C42.43,-350.54 42.43,-341.65 42.43,-333.16"/>
<polygon fill="black" stroke="black" points="45.93,-333.09 42.43,-323.09 38.93,-333.09 45.93,-333.09"/>
</g>
<!-- BB1 -->
<g id="node2" class="node">
<title>BB1</title>
<ellipse fill="none" stroke="black" cx="42.43" cy="-206.35" rx="37.45" ry="26.74"/>
<text text-anchor="middle" x="42.43" y="-210.15" font-family="Times New Roman,serif" font-size="14.00">[6..12)</text>
<text text-anchor="middle" x="42.43" y="-195.15" font-family="Times New Roman,serif" font-size="14.00">0.01</text>
</g>
<!-- BB1&#45;&gt;BB2 -->
<g id="edge2" class="edge">
<title>BB1&#45;&gt;BB2</title>
<path fill="none" stroke="black" d="M48.63,-233.02C49.15,-241.21 49.3,-250.44 49.08,-259.22"/>
<polygon fill="black" stroke="black" points="45.58,-259.1 48.64,-269.24 52.57,-259.4 45.58,-259.1"/>
</g>
<!-- BB2&#45;&gt;BB1 -->
<g id="edge3" class="edge">
<title>BB2&#45;&gt;BB1</title>
<path fill="none" stroke="black" d="M36.21,-269.24C35.7,-261.03 35.55,-251.8 35.78,-243.02"/>
<polygon fill="black" stroke="black" points="39.28,-243.16 36.22,-233.02 32.29,-242.85 39.28,-243.16"/>
</g>
<!-- BB3 -->
<g id="node4" class="node">
<title>BB3</title>
<ellipse fill="none" stroke="black" cx="139.43" cy="-206.35" rx="41.94" ry="26.74"/>
<text text-anchor="middle" x="139.43" y="-210.15" font-family="Times New Roman,serif" font-size="14.00">[16..1a)</text>
<text text-anchor="middle" x="139.43" y="-195.15" font-family="Times New Roman,serif" font-size="14.00">0.01</text>
</g>
<!-- BB2&#45;&gt;BB3 -->
<g id="edge4" class="edge">
<title>BB2&#45;&gt;BB3</title>
<path fill="none" stroke="black" d="M66.4,-273.4C78.97,-262.03 94.52,-247.97 108.04,-235.74"/>
<polygon fill="black" stroke="black" points="110.66,-238.09 115.72,-228.79 105.96,-232.9 110.66,-238.09"/>
</g>
<!-- BB5 -->
<g id="node6" class="node">
<title>BB5</title>
<ellipse fill="none" stroke="black" cx="139.43" cy="-116.61" rx="42.35" ry="26.74"/>
<text text-anchor="middle" x="139.43" y="-120.41" font-family="Times New Roman,serif" font-size="14.00">[34..38)</text>
<text text-anchor="middle" x="139.43" y="-105.41" font-family="Times New Roman,serif" font-size="14.00">0.47</text>
</g>
<!-- BB3&#45;&gt;BB5 -->
<g id="edge5" class="edge">
<title>BB3&#45;&gt;BB5</title>
<path fill="none" stroke="black" d="M139.43,-179.03C139.43,-171.06 139.43,-162.17 139.43,-153.68"/>
<polygon fill="black" stroke="black" points="142.93,-153.61 139.43,-143.61 135.93,-153.61 142.93,-153.61"/>
</g>
<!-- BB4 -->
<g id="node5" class="node">
<title>BB4</title>
<ellipse fill="none" stroke="black" cx="139.43" cy="-26.87" rx="41.94" ry="26.74"/>
<text text-anchor="middle" x="139.43" y="-30.67" font-family="Times New Roman,serif" font-size="14.00">[1a..34)</text>
<text text-anchor="middle" x="139.43" y="-15.67" font-family="Times New Roman,serif" font-size="14.00">0.46</text>
</g>
<!-- BB4&#45;&gt;BB5 -->
<g id="edge6" class="edge">
<title>BB4&#45;&gt;BB5</title>
<path fill="none" stroke="black" d="M145.63,-53.54C146.15,-61.73 146.3,-70.96 146.08,-79.74"/>
<polygon fill="black" stroke="black" points="142.58,-79.62 145.64,-89.76 149.57,-79.92 142.58,-79.62"/>
</g>
<!-- BB5&#45;&gt;BB4 -->
<g id="edge7" class="edge">
<title>BB5&#45;&gt;BB4</title>
<path fill="none" stroke="black" d="M133.21,-89.76C132.7,-81.55 132.55,-72.32 132.78,-63.54"/>
<polygon fill="black" stroke="black" points="136.28,-63.68 133.22,-53.54 129.29,-63.37 136.28,-63.68"/>
</g>
<!-- BB6 -->
<g id="node7" class="node">
<title>BB6</title>
<ellipse fill="none" stroke="black" cx="241.43" cy="-26.87" rx="42.35" ry="26.74"/>
<text text-anchor="middle" x="241.43" y="-30.67" font-family="Times New Roman,serif" font-size="14.00">[38..39)</text>
<text text-anchor="middle" x="241.43" y="-15.67" font-family="Times New Roman,serif" font-size="14.00">0.01</text>
</g>
<!-- BB5&#45;&gt;BB6 -->
<g id="edge8" class="edge">
<title>BB5&#45;&gt;BB6</title>
<path fill="none" stroke="black" d="M163.86,-94.59C177.38,-82.96 194.37,-68.35 209,-55.77"/>
<polygon fill="black" stroke="black" points="211.54,-58.19 216.84,-49.02 206.98,-52.89 211.54,-58.19"/>
</g>
</g>
</svg>
