<?xml version="1.0" encoding="UTF-8" standalone="no"?>
<!DOCTYPE svg PUBLIC "-//W3C//DTD SVG 1.1//EN"
 "http://www.w3.org/Graphics/SVG/1.1/DTD/svg11.dtd">
<!-- Generated by graphviz version 2.47.0 (20210316.0004)
 -->
<!-- Title: G Pages: 1 -->
<svg width="667pt" height="897pt"
 viewBox="0.00 0.00 667.42 897.17" xmlns="http://www.w3.org/2000/svg" xmlns:xlink="http://www.w3.org/1999/xlink">
<g id="graph0" class="graph" transform="scale(1 1) rotate(0) translate(4 893.17)">
<title>G</title>
<polygon fill="white" stroke="transparent" points="-4,4 -4,-893.17 663.42,-893.17 663.42,4 -4,4"/>
<!-- BB0 -->
<g id="node1" class="node">
<title>BB0</title>
<ellipse fill="none" stroke="black" cx="108.19" cy="-841.08" rx="103.48" ry="48.17"/>
<text text-anchor="middle" x="108.19" y="-859.88" font-family="Times New Roman,serif" font-size="14.00">[0..c)</text>
<text text-anchor="middle" x="108.19" y="-844.88" font-family="Times New Roman,serif" font-size="14.00">Count: 3</text>
<text text-anchor="middle" x="108.19" y="-829.88" font-family="Times New Roman,serif" font-size="14.00">Normalized count: 1.00</text>
<text text-anchor="middle" x="108.19" y="-814.88" font-family="Times New Roman,serif" font-size="14.00">Samples weight: 0.00</text>
</g>
<!-- BB2 -->
<g id="node3" class="node">
<title>BB2</title>
<ellipse fill="none" stroke="black" cx="108.19" cy="-708.92" rx="108.38" ry="48.17"/>
<text text-anchor="middle" x="108.19" y="-727.72" font-family="Times New Roman,serif" font-size="14.00">[1e..22)</text>
<text text-anchor="middle" x="108.19" y="-712.72" font-family="Times New Roman,serif" font-size="14.00">Count: 30</text>
<text text-anchor="middle" x="108.19" y="-697.72" font-family="Times New Roman,serif" font-size="14.00">Normalized count: 10.00</text>
<text text-anchor="middle" x="108.19" y="-682.72" font-family="Times New Roman,serif" font-size="14.00">Samples weight: 0.00</text>
</g>
<!-- BB0&#45;&gt;BB2 -->
<g id="edge1" class="edge">
<title>BB0&#45;&gt;BB2</title>
<path fill="none" stroke="black" d="M108.19,-792.72C108.19,-784.45 108.19,-775.77 108.19,-767.27"/>
<polygon fill="black" stroke="black" points="111.69,-767.02 108.19,-757.02 104.69,-767.02 111.69,-767.02"/>
</g>
<!-- BB1 -->
<g id="node2" class="node">
<title>BB1</title>
<ellipse fill="none" stroke="black" cx="108.19" cy="-576.75" rx="103.48" ry="48.17"/>
<text text-anchor="middle" x="108.19" y="-595.55" font-family="Times New Roman,serif" font-size="14.00">[c..1e)</text>
<text text-anchor="middle" x="108.19" y="-580.55" font-family="Times New Roman,serif" font-size="14.00">Count: 27</text>
<text text-anchor="middle" x="108.19" y="-565.55" font-family="Times New Roman,serif" font-size="14.00">Normalized count: 9.00</text>
<text text-anchor="middle" x="108.19" y="-550.55" font-family="Times New Roman,serif" font-size="14.00">Samples weight: 0.00</text>
</g>
<!-- BB1&#45;&gt;BB2 -->
<g id="edge2" class="edge">
<title>BB1&#45;&gt;BB2</title>
<path fill="none" stroke="black" d="M114.7,-624.86C114.92,-633.12 114.99,-641.8 114.9,-650.3"/>
<polygon fill="black" stroke="black" points="111.39,-650.49 114.71,-660.55 118.39,-650.62 111.39,-650.49"/>
</g>
<!-- BB2&#45;&gt;BB1 -->
<g id="edge3" class="edge">
<title>BB2&#45;&gt;BB1</title>
<path fill="none" stroke="black" d="M101.66,-660.55C101.45,-652.29 101.39,-643.6 101.48,-635.1"/>
<polygon fill="black" stroke="black" points="104.98,-634.92 101.67,-624.86 97.98,-634.79 104.98,-634.92"/>
</g>
<!-- BB3 -->
<g id="node4" class="node">
<title>BB3</title>
<ellipse fill="none" stroke="black" cx="332.19" cy="-576.75" rx="103.48" ry="48.17"/>
<text text-anchor="middle" x="332.19" y="-595.55" font-family="Times New Roman,serif" font-size="14.00">[22..24)</text>
<text text-anchor="middle" x="332.19" y="-580.55" font-family="Times New Roman,serif" font-size="14.00">Count: 3</text>
<text text-anchor="middle" x="332.19" y="-565.55" font-family="Times New Roman,serif" font-size="14.00">Normalized count: 1.00</text>
<text text-anchor="middle" x="332.19" y="-550.55" font-family="Times New Roman,serif" font-size="14.00">Samples weight: 0.00</text>
</g>
<!-- BB2&#45;&gt;BB3 -->
<g id="edge4" class="edge">
<title>BB2&#45;&gt;BB3</title>
<path fill="none" stroke="black" d="M172.98,-670.27C200.03,-654.55 231.57,-636.22 259.42,-620.04"/>
<polygon fill="black" stroke="black" points="261.43,-622.92 268.32,-614.86 257.91,-616.86 261.43,-622.92"/>
</g>
<!-- BB7 -->
<g id="node8" class="node">
<title>BB7</title>
<ellipse fill="none" stroke="black" cx="332.19" cy="-444.58" rx="103.48" ry="48.17"/>
<text text-anchor="middle" x="332.19" y="-463.38" font-family="Times New Roman,serif" font-size="14.00">[44..4d)</text>
<text text-anchor="middle" x="332.19" y="-448.38" font-family="Times New Roman,serif" font-size="14.00">Count: 4</text>
<text text-anchor="middle" x="332.19" y="-433.38" font-family="Times New Roman,serif" font-size="14.00">Normalized count: 1.33</text>
<text text-anchor="middle" x="332.19" y="-418.38" font-family="Times New Roman,serif" font-size="14.00">Samples weight: 0.00</text>
</g>
<!-- BB3&#45;&gt;BB7 -->
<g id="edge5" class="edge">
<title>BB3&#45;&gt;BB7</title>
<path fill="none" stroke="black" d="M332.19,-528.39C332.19,-520.12 332.19,-511.44 332.19,-502.93"/>
<polygon fill="black" stroke="black" points="335.69,-502.69 332.19,-492.69 328.69,-502.69 335.69,-502.69"/>
</g>
<!-- BB4 -->
<g id="node5" class="node">
<title>BB4</title>
<ellipse fill="none" stroke="black" cx="332.19" cy="-312.42" rx="103.48" ry="48.17"/>
<text text-anchor="middle" x="332.19" y="-331.22" font-family="Times New Roman,serif" font-size="14.00">[24..28)</text>
<text text-anchor="middle" x="332.19" y="-316.22" font-family="Times New Roman,serif" font-size="14.00">Count: 1</text>
<text text-anchor="middle" x="332.19" y="-301.22" font-family="Times New Roman,serif" font-size="14.00">Normalized count: 0.33</text>
<text text-anchor="middle" x="332.19" y="-286.22" font-family="Times New Roman,serif" font-size="14.00">Samples weight: 0.00</text>
</g>
<!-- BB6 -->
<g id="node7" class="node">
<title>BB6</title>
<ellipse fill="none" stroke="black" cx="266.19" cy="-180.25" rx="118.17" ry="48.17"/>
<text text-anchor="middle" x="266.19" y="-199.05" font-family="Times New Roman,serif" font-size="14.00">[40..44)</text>
<text text-anchor="middle" x="266.19" y="-184.05" font-family="Times New Roman,serif" font-size="14.00">Count: 4095</text>
<text text-anchor="middle" x="266.19" y="-169.05" font-family="Times New Roman,serif" font-size="14.00">Normalized count: 1365.00</text>
<text text-anchor="middle" x="266.19" y="-154.05" font-family="Times New Roman,serif" font-size="14.00">Samples weight: 0.50</text>
</g>
<!-- BB4&#45;&gt;BB6 -->
<g id="edge6" class="edge">
<title>BB4&#45;&gt;BB6</title>
<path fill="none" stroke="black" d="M308.92,-265.52C304.19,-256.21 299.18,-246.31 294.3,-236.7"/>
<polygon fill="black" stroke="black" points="297.34,-234.94 289.69,-227.61 291.09,-238.11 297.34,-234.94"/>
</g>
<!-- BB5 -->
<g id="node6" class="node">
<title>BB5</title>
<ellipse fill="none" stroke="black" cx="266.19" cy="-48.08" rx="118.17" ry="48.17"/>
<text text-anchor="middle" x="266.19" y="-66.88" font-family="Times New Roman,serif" font-size="14.00">[28..40)</text>
<text text-anchor="middle" x="266.19" y="-51.88" font-family="Times New Roman,serif" font-size="14.00">Count: 4094</text>
<text text-anchor="middle" x="266.19" y="-36.88" font-family="Times New Roman,serif" font-size="14.00">Normalized count: 1364.67</text>
<text text-anchor="middle" x="266.19" y="-21.88" font-family="Times New Roman,serif" font-size="14.00">Samples weight: 0.50</text>
</g>
<!-- BB5&#45;&gt;BB6 -->
<g id="edge7" class="edge">
<title>BB5&#45;&gt;BB6</title>
<path fill="none" stroke="black" d="M272.7,-96.19C272.92,-104.45 272.99,-113.13 272.9,-121.64"/>
<polygon fill="black" stroke="black" points="269.39,-121.83 272.71,-131.89 276.39,-121.95 269.39,-121.83"/>
</g>
<!-- BB6&#45;&gt;BB5 -->
<g id="edge8" class="edge">
<title>BB6&#45;&gt;BB5</title>
<path fill="none" stroke="black" d="M259.66,-131.89C259.45,-123.62 259.39,-114.94 259.48,-106.43"/>
<polygon fill="black" stroke="black" points="262.98,-106.26 259.67,-96.19 255.98,-106.12 262.98,-106.26"/>
</g>
<!-- BB6&#45;&gt;BB7 -->
<g id="edge9" class="edge">
<title>BB6&#45;&gt;BB7</title>
<path fill="none" stroke="black" d="M235.53,-226.95C229.22,-238.66 223.49,-251.56 220.19,-264.33 209.5,-305.71 200.97,-322.32 220.19,-360.5 228.41,-376.83 241.52,-390.76 255.93,-402.27"/>
<polygon fill="black" stroke="black" points="253.96,-405.17 264.05,-408.43 258.19,-399.6 253.96,-405.17"/>
</g>
<!-- BB7&#45;&gt;BB4 -->
<g id="edge10" class="edge">
<title>BB7&#45;&gt;BB4</title>
<path fill="none" stroke="black" d="M332.19,-396.22C332.19,-387.95 332.19,-379.27 332.19,-370.77"/>
<polygon fill="black" stroke="black" points="335.69,-370.52 332.19,-360.52 328.69,-370.52 335.69,-370.52"/>
</g>
<!-- BB8 -->
<g id="node9" class="node">
<title>BB8</title>
<ellipse fill="none" stroke="black" cx="556.19" cy="-312.42" rx="103.48" ry="48.17"/>
<text text-anchor="middle" x="556.19" y="-331.22" font-family="Times New Roman,serif" font-size="14.00">[4d..4e)</text>
<text text-anchor="middle" x="556.19" y="-316.22" font-family="Times New Roman,serif" font-size="14.00">Count: 3</text>
<text text-anchor="middle" x="556.19" y="-301.22" font-family="Times New Roman,serif" font-size="14.00">Normalized count: 1.00</text>
<text text-anchor="middle" x="556.19" y="-286.22" font-family="Times New Roman,serif" font-size="14.00">Samples weight: 0.00</text>
</g>
<!-- BB7&#45;&gt;BB8 -->
<g id="edge11" class="edge">
<title>BB7&#45;&gt;BB8</title>
<path fill="none" stroke="black" d="M395.78,-406.63C423.21,-390.69 455.43,-371.97 483.78,-355.49"/>
<polygon fill="black" stroke="black" points="485.55,-358.51 492.44,-350.46 482.03,-352.46 485.55,-358.51"/>
</g>
</g>
</svg>
