<?xml version="1.0" encoding="UTF-8" standalone="no"?>
<!DOCTYPE svg PUBLIC "-//W3C//DTD SVG 1.1//EN"
 "http://www.w3.org/Graphics/SVG/1.1/DTD/svg11.dtd">
<!-- Generated by graphviz version 2.47.0 (20210316.0004)
 -->
<!-- Title: G Pages: 1 -->
<svg width="698pt" height="897pt"
 viewBox="0.00 0.00 698.50 897.17" xmlns="http://www.w3.org/2000/svg" xmlns:xlink="http://www.w3.org/1999/xlink">
<g id="graph0" class="graph" transform="scale(1 1) rotate(0) translate(4 893.17)">
<title>G</title>
<polygon fill="white" stroke="transparent" points="-4,4 -4,-893.17 694.5,-893.17 694.5,4 -4,4"/>
<!-- BB0 -->
<g id="node1" class="node">
<title>BB0</title>
<ellipse fill="none" stroke="black" cx="113.84" cy="-841.08" rx="104.8" ry="48.17"/>
<text text-anchor="middle" x="113.84" y="-859.88" font-family="Times New Roman,serif" font-size="14.00">[0..c)</text>
<text text-anchor="middle" x="113.84" y="-844.88" font-family="Times New Roman,serif" font-size="14.00">Count: 0</text>
<text text-anchor="middle" x="113.84" y="-829.88" font-family="Times New Roman,serif" font-size="14.00">Normalized count: NaN</text>
<text text-anchor="middle" x="113.84" y="-814.88" font-family="Times New Roman,serif" font-size="14.00">Samples weight: 0.00</text>
</g>
<!-- BB2 -->
<g id="node3" class="node">
<title>BB2</title>
<ellipse fill="none" stroke="black" cx="113.84" cy="-708.92" rx="113.69" ry="48.17"/>
<text text-anchor="middle" x="113.84" y="-727.72" font-family="Times New Roman,serif" font-size="14.00">[1b..1f)</text>
<text text-anchor="middle" x="113.84" y="-712.72" font-family="Times New Roman,serif" font-size="14.00">Count: 48</text>
<text text-anchor="middle" x="113.84" y="-697.72" font-family="Times New Roman,serif" font-size="14.00">Normalized count: Infinity</text>
<text text-anchor="middle" x="113.84" y="-682.72" font-family="Times New Roman,serif" font-size="14.00">Samples weight: 0.00</text>
</g>
<!-- BB0&#45;&gt;BB2 -->
<g id="edge1" class="edge">
<title>BB0&#45;&gt;BB2</title>
<path fill="none" stroke="black" d="M113.84,-792.72C113.84,-784.45 113.84,-775.77 113.84,-767.27"/>
<polygon fill="black" stroke="black" points="117.34,-767.02 113.84,-757.02 110.34,-767.02 117.34,-767.02"/>
</g>
<!-- BB1 -->
<g id="node2" class="node">
<title>BB1</title>
<ellipse fill="none" stroke="black" cx="113.84" cy="-576.75" rx="113.69" ry="48.17"/>
<text text-anchor="middle" x="113.84" y="-595.55" font-family="Times New Roman,serif" font-size="14.00">[c..1b)</text>
<text text-anchor="middle" x="113.84" y="-580.55" font-family="Times New Roman,serif" font-size="14.00">Count: 63</text>
<text text-anchor="middle" x="113.84" y="-565.55" font-family="Times New Roman,serif" font-size="14.00">Normalized count: Infinity</text>
<text text-anchor="middle" x="113.84" y="-550.55" font-family="Times New Roman,serif" font-size="14.00">Samples weight: 0.00</text>
</g>
<!-- BB1&#45;&gt;BB2 -->
<g id="edge2" class="edge">
<title>BB1&#45;&gt;BB2</title>
<path fill="none" stroke="black" d="M120.36,-624.86C120.58,-633.12 120.65,-641.8 120.55,-650.3"/>
<polygon fill="black" stroke="black" points="117.05,-650.49 120.37,-660.55 124.05,-650.62 117.05,-650.49"/>
</g>
<!-- BB2&#45;&gt;BB1 -->
<g id="edge3" class="edge">
<title>BB2&#45;&gt;BB1</title>
<path fill="none" stroke="black" d="M107.32,-660.55C107.1,-652.29 107.04,-643.6 107.14,-635.1"/>
<polygon fill="black" stroke="black" points="110.64,-634.92 107.33,-624.86 103.64,-634.79 110.64,-634.92"/>
</g>
<!-- BB3 -->
<g id="node4" class="node">
<title>BB3</title>
<ellipse fill="none" stroke="black" cx="349.84" cy="-576.75" rx="104.8" ry="48.17"/>
<text text-anchor="middle" x="349.84" y="-595.55" font-family="Times New Roman,serif" font-size="14.00">[1f..23)</text>
<text text-anchor="middle" x="349.84" y="-580.55" font-family="Times New Roman,serif" font-size="14.00">Count: 0</text>
<text text-anchor="middle" x="349.84" y="-565.55" font-family="Times New Roman,serif" font-size="14.00">Normalized count: NaN</text>
<text text-anchor="middle" x="349.84" y="-550.55" font-family="Times New Roman,serif" font-size="14.00">Samples weight: 0.00</text>
</g>
<!-- BB2&#45;&gt;BB3 -->
<g id="edge4" class="edge">
<title>BB2&#45;&gt;BB3</title>
<path fill="none" stroke="black" d="M182.11,-670.27C211.1,-654.28 244.99,-635.58 274.7,-619.2"/>
<polygon fill="black" stroke="black" points="276.7,-622.09 283.77,-614.19 273.32,-615.96 276.7,-622.09"/>
</g>
<!-- BB8 -->
<g id="node9" class="node">
<title>BB8</title>
<ellipse fill="none" stroke="black" cx="349.84" cy="-444.58" rx="113.69" ry="48.17"/>
<text text-anchor="middle" x="349.84" y="-463.38" font-family="Times New Roman,serif" font-size="14.00">[3d..41)</text>
<text text-anchor="middle" x="349.84" y="-448.38" font-family="Times New Roman,serif" font-size="14.00">Count: 2</text>
<text text-anchor="middle" x="349.84" y="-433.38" font-family="Times New Roman,serif" font-size="14.00">Normalized count: Infinity</text>
<text text-anchor="middle" x="349.84" y="-418.38" font-family="Times New Roman,serif" font-size="14.00">Samples weight: 0.00</text>
</g>
<!-- BB3&#45;&gt;BB8 -->
<g id="edge5" class="edge">
<title>BB3&#45;&gt;BB8</title>
<path fill="none" stroke="black" d="M349.84,-528.39C349.84,-520.12 349.84,-511.44 349.84,-502.93"/>
<polygon fill="black" stroke="black" points="353.34,-502.69 349.84,-492.69 346.34,-502.69 353.34,-502.69"/>
</g>
<!-- BB4 -->
<g id="node5" class="node">
<title>BB4</title>
<ellipse fill="none" stroke="black" cx="349.84" cy="-312.42" rx="113.69" ry="48.17"/>
<text text-anchor="middle" x="349.84" y="-331.22" font-family="Times New Roman,serif" font-size="14.00">[23..27)</text>
<text text-anchor="middle" x="349.84" y="-316.22" font-family="Times New Roman,serif" font-size="14.00">Count: 2</text>
<text text-anchor="middle" x="349.84" y="-301.22" font-family="Times New Roman,serif" font-size="14.00">Normalized count: Infinity</text>
<text text-anchor="middle" x="349.84" y="-286.22" font-family="Times New Roman,serif" font-size="14.00">Samples weight: 0.00</text>
</g>
<!-- BB6 -->
<g id="node7" class="node">
<title>BB6</title>
<ellipse fill="none" stroke="black" cx="375.84" cy="-180.25" rx="113.69" ry="48.17"/>
<text text-anchor="middle" x="375.84" y="-199.05" font-family="Times New Roman,serif" font-size="14.00">[35..39)</text>
<text text-anchor="middle" x="375.84" y="-184.05" font-family="Times New Roman,serif" font-size="14.00">Count: 18508</text>
<text text-anchor="middle" x="375.84" y="-169.05" font-family="Times New Roman,serif" font-size="14.00">Normalized count: Infinity</text>
<text text-anchor="middle" x="375.84" y="-154.05" font-family="Times New Roman,serif" font-size="14.00">Samples weight: 0.50</text>
</g>
<!-- BB4&#45;&gt;BB6 -->
<g id="edge6" class="edge">
<title>BB4&#45;&gt;BB6</title>
<path fill="none" stroke="black" d="M359.23,-264.42C360.94,-255.85 362.75,-246.83 364.51,-238.01"/>
<polygon fill="black" stroke="black" points="367.94,-238.67 366.47,-228.17 361.08,-237.29 367.94,-238.67"/>
</g>
<!-- BB5 -->
<g id="node6" class="node">
<title>BB5</title>
<ellipse fill="none" stroke="black" cx="401.84" cy="-48.08" rx="113.69" ry="48.17"/>
<text text-anchor="middle" x="401.84" y="-66.88" font-family="Times New Roman,serif" font-size="14.00">[27..35)</text>
<text text-anchor="middle" x="401.84" y="-51.88" font-family="Times New Roman,serif" font-size="14.00">Count: 18506</text>
<text text-anchor="middle" x="401.84" y="-36.88" font-family="Times New Roman,serif" font-size="14.00">Normalized count: Infinity</text>
<text text-anchor="middle" x="401.84" y="-21.88" font-family="Times New Roman,serif" font-size="14.00">Samples weight: 0.50</text>
</g>
<!-- BB5&#45;&gt;BB6 -->
<g id="edge7" class="edge">
<title>BB5&#45;&gt;BB6</title>
<path fill="none" stroke="black" d="M398.94,-96.26C397.45,-104.86 395.7,-113.92 393.82,-122.77"/>
<polygon fill="black" stroke="black" points="390.39,-122.11 391.66,-132.62 397.22,-123.61 390.39,-122.11"/>
</g>
<!-- BB6&#45;&gt;BB5 -->
<g id="edge8" class="edge">
<title>BB6&#45;&gt;BB5</title>
<path fill="none" stroke="black" d="M378.78,-131.89C380.27,-123.33 382.01,-114.33 383.87,-105.55"/>
<polygon fill="black" stroke="black" points="387.29,-106.27 386.02,-95.76 380.46,-104.77 387.29,-106.27"/>
</g>
<!-- BB7 -->
<g id="node8" class="node">
<title>BB7</title>
<ellipse fill="none" stroke="black" cx="155.84" cy="-48.08" rx="113.69" ry="48.17"/>
<text text-anchor="middle" x="155.84" y="-66.88" font-family="Times New Roman,serif" font-size="14.00">[39..3d)</text>
<text text-anchor="middle" x="155.84" y="-51.88" font-family="Times New Roman,serif" font-size="14.00">Count: 2</text>
<text text-anchor="middle" x="155.84" y="-36.88" font-family="Times New Roman,serif" font-size="14.00">Normalized count: Infinity</text>
<text text-anchor="middle" x="155.84" y="-21.88" font-family="Times New Roman,serif" font-size="14.00">Samples weight: 0.00</text>
</g>
<!-- BB6&#45;&gt;BB7 -->
<g id="edge9" class="edge">
<title>BB6&#45;&gt;BB7</title>
<path fill="none" stroke="black" d="M310.73,-140.72C285.34,-125.7 256.11,-108.41 229.92,-92.91"/>
<polygon fill="black" stroke="black" points="231.56,-89.82 221.17,-87.74 228,-95.84 231.56,-89.82"/>
</g>
<!-- BB7&#45;&gt;BB8 -->
<g id="edge10" class="edge">
<title>BB7&#45;&gt;BB8</title>
<path fill="none" stroke="black" d="M156.1,-96.34C158.64,-161.31 171.31,-279.4 226.84,-360.5 237.75,-376.43 252.82,-390.16 268.67,-401.6"/>
<polygon fill="black" stroke="black" points="266.79,-404.56 277.01,-407.38 270.78,-398.81 266.79,-404.56"/>
</g>
<!-- BB8&#45;&gt;BB4 -->
<g id="edge11" class="edge">
<title>BB8&#45;&gt;BB4</title>
<path fill="none" stroke="black" d="M349.84,-396.22C349.84,-387.95 349.84,-379.27 349.84,-370.77"/>
<polygon fill="black" stroke="black" points="353.34,-370.52 349.84,-360.52 346.34,-370.52 353.34,-370.52"/>
</g>
<!-- BB9 -->
<g id="node10" class="node">
<title>BB9</title>
<ellipse fill="none" stroke="black" cx="585.84" cy="-312.42" rx="104.8" ry="48.17"/>
<text text-anchor="middle" x="585.84" y="-331.22" font-family="Times New Roman,serif" font-size="14.00">[41..42)</text>
<text text-anchor="middle" x="585.84" y="-316.22" font-family="Times New Roman,serif" font-size="14.00">Count: 0</text>
<text text-anchor="middle" x="585.84" y="-301.22" font-family="Times New Roman,serif" font-size="14.00">Normalized count: NaN</text>
<text text-anchor="middle" x="585.84" y="-286.22" font-family="Times New Roman,serif" font-size="14.00">Samples weight: 0.00</text>
</g>
<!-- BB8&#45;&gt;BB9 -->
<g id="edge12" class="edge">
<title>BB8&#45;&gt;BB9</title>
<path fill="none" stroke="black" d="M418.11,-405.93C447.1,-389.94 480.99,-371.25 510.7,-354.86"/>
<polygon fill="black" stroke="black" points="512.7,-357.75 519.77,-349.86 509.32,-351.63 512.7,-357.75"/>
</g>
</g>
</svg>
