<?xml version="1.0" encoding="UTF-8" standalone="no"?>
<!DOCTYPE svg PUBLIC "-//W3C//DTD SVG 1.1//EN"
 "http://www.w3.org/Graphics/SVG/1.1/DTD/svg11.dtd">
<!-- Generated by graphviz version 2.47.0 (20210316.0004)
 -->
<!-- Title: G Pages: 1 -->
<svg width="722pt" height="527pt"
 viewBox="0.00 0.00 721.74 526.77" xmlns="http://www.w3.org/2000/svg" xmlns:xlink="http://www.w3.org/1999/xlink">
<g id="graph0" class="graph" transform="scale(1 1) rotate(0) translate(4 522.77)">
<title>G</title>
<polygon fill="white" stroke="transparent" points="-4,4 -4,-522.77 717.74,-522.77 717.74,4 -4,4"/>
<!-- BB0 -->
<g id="node1" class="node">
<title>BB0</title>
<ellipse fill="none" stroke="black" cx="115.97" cy="-481.29" rx="106.55" ry="37.45"/>
<text text-anchor="middle" x="115.97" y="-492.59" font-family="Times New Roman,serif" font-size="14.00">[0..6)</text>
<text text-anchor="middle" x="115.97" y="-477.59" font-family="Times New Roman,serif" font-size="14.00">Normalized Count: NaN</text>
<text text-anchor="middle" x="115.97" y="-462.59" font-family="Times New Roman,serif" font-size="14.00">Samples weight: 0.00</text>
</g>
<!-- BB2 -->
<g id="node3" class="node">
<title>BB2</title>
<ellipse fill="none" stroke="black" cx="115.97" cy="-370.34" rx="115.93" ry="37.45"/>
<text text-anchor="middle" x="115.97" y="-381.64" font-family="Times New Roman,serif" font-size="14.00">[12..16)</text>
<text text-anchor="middle" x="115.97" y="-366.64" font-family="Times New Roman,serif" font-size="14.00">Normalized Count: Infinity</text>
<text text-anchor="middle" x="115.97" y="-351.64" font-family="Times New Roman,serif" font-size="14.00">Samples weight: 0.03</text>
</g>
<!-- BB0&#45;&gt;BB2 -->
<g id="edge1" class="edge">
<title>BB0&#45;&gt;BB2</title>
<path fill="none" stroke="black" d="M115.97,-443.71C115.97,-435.53 115.97,-426.75 115.97,-418.23"/>
<polygon fill="black" stroke="black" points="119.47,-418.01 115.97,-408.01 112.47,-418.01 119.47,-418.01"/>
</g>
<!-- BB1 -->
<g id="node2" class="node">
<title>BB1</title>
<ellipse fill="none" stroke="black" cx="115.97" cy="-259.38" rx="115.93" ry="37.45"/>
<text text-anchor="middle" x="115.97" y="-270.68" font-family="Times New Roman,serif" font-size="14.00">[6..12)</text>
<text text-anchor="middle" x="115.97" y="-255.68" font-family="Times New Roman,serif" font-size="14.00">Normalized Count: Infinity</text>
<text text-anchor="middle" x="115.97" y="-240.68" font-family="Times New Roman,serif" font-size="14.00">Samples weight: 0.02</text>
</g>
<!-- BB1&#45;&gt;BB2 -->
<g id="edge2" class="edge">
<title>BB1&#45;&gt;BB2</title>
<path fill="none" stroke="black" d="M122.38,-297.06C122.7,-305.23 122.79,-314.02 122.66,-322.54"/>
<polygon fill="black" stroke="black" points="119.15,-322.66 122.38,-332.75 126.15,-322.85 119.15,-322.66"/>
</g>
<!-- BB2&#45;&gt;BB1 -->
<g id="edge3" class="edge">
<title>BB2&#45;&gt;BB1</title>
<path fill="none" stroke="black" d="M109.55,-332.75C109.23,-324.58 109.14,-315.8 109.27,-307.27"/>
<polygon fill="black" stroke="black" points="112.78,-307.15 109.55,-297.06 105.78,-306.96 112.78,-307.15"/>
</g>
<!-- BB3 -->
<g id="node4" class="node">
<title>BB3</title>
<ellipse fill="none" stroke="black" cx="365.97" cy="-259.38" rx="115.93" ry="37.45"/>
<text text-anchor="middle" x="365.97" y="-270.68" font-family="Times New Roman,serif" font-size="14.00">[16..1a)</text>
<text text-anchor="middle" x="365.97" y="-255.68" font-family="Times New Roman,serif" font-size="14.00">Normalized Count: Infinity</text>
<text text-anchor="middle" x="365.97" y="-240.68" font-family="Times New Roman,serif" font-size="14.00">Samples weight: 0.03</text>
</g>
<!-- BB2&#45;&gt;BB3 -->
<g id="edge4" class="edge">
<title>BB2&#45;&gt;BB3</title>
<path fill="none" stroke="black" d="M183.62,-339.85C216.14,-325.68 255.26,-308.63 288.92,-293.96"/>
<polygon fill="black" stroke="black" points="290.49,-297.1 298.26,-289.89 287.69,-290.68 290.49,-297.1"/>
</g>
<!-- BB5 -->
<g id="node6" class="node">
<title>BB5</title>
<ellipse fill="none" stroke="black" cx="365.97" cy="-148.43" rx="106.55" ry="37.45"/>
<text text-anchor="middle" x="365.97" y="-159.73" font-family="Times New Roman,serif" font-size="14.00">[34..38)</text>
<text text-anchor="middle" x="365.97" y="-144.73" font-family="Times New Roman,serif" font-size="14.00">Normalized Count: NaN</text>
<text text-anchor="middle" x="365.97" y="-129.73" font-family="Times New Roman,serif" font-size="14.00">Samples weight: 0.00</text>
</g>
<!-- BB3&#45;&gt;BB5 -->
<g id="edge5" class="edge">
<title>BB3&#45;&gt;BB5</title>
<path fill="none" stroke="black" d="M365.97,-221.8C365.97,-213.63 365.97,-204.85 365.97,-196.32"/>
<polygon fill="black" stroke="black" points="369.47,-196.1 365.97,-186.1 362.47,-196.1 369.47,-196.1"/>
</g>
<!-- BB4 -->
<g id="node5" class="node">
<title>BB4</title>
<ellipse fill="none" stroke="black" cx="365.97" cy="-37.48" rx="115.93" ry="37.45"/>
<text text-anchor="middle" x="365.97" y="-48.78" font-family="Times New Roman,serif" font-size="14.00">[1a..34)</text>
<text text-anchor="middle" x="365.97" y="-33.78" font-family="Times New Roman,serif" font-size="14.00">Normalized Count: Infinity</text>
<text text-anchor="middle" x="365.97" y="-18.78" font-family="Times New Roman,serif" font-size="14.00">Samples weight: 0.92</text>
</g>
<!-- BB4&#45;&gt;BB5 -->
<g id="edge6" class="edge">
<title>BB4&#45;&gt;BB5</title>
<path fill="none" stroke="black" d="M372.38,-75.15C372.7,-83.33 372.79,-92.11 372.66,-100.63"/>
<polygon fill="black" stroke="black" points="369.15,-100.76 372.38,-110.85 376.15,-100.94 369.15,-100.76"/>
</g>
<!-- BB5&#45;&gt;BB4 -->
<g id="edge7" class="edge">
<title>BB5&#45;&gt;BB4</title>
<path fill="none" stroke="black" d="M359.55,-110.85C359.23,-102.67 359.14,-93.89 359.27,-85.37"/>
<polygon fill="black" stroke="black" points="362.78,-85.24 359.55,-75.15 355.78,-85.05 362.78,-85.24"/>
</g>
<!-- BB6 -->
<g id="node7" class="node">
<title>BB6</title>
<ellipse fill="none" stroke="black" cx="606.97" cy="-37.48" rx="106.55" ry="37.45"/>
<text text-anchor="middle" x="606.97" y="-48.78" font-family="Times New Roman,serif" font-size="14.00">[38..39)</text>
<text text-anchor="middle" x="606.97" y="-33.78" font-family="Times New Roman,serif" font-size="14.00">Normalized Count: NaN</text>
<text text-anchor="middle" x="606.97" y="-18.78" font-family="Times New Roman,serif" font-size="14.00">Samples weight: 0.00</text>
</g>
<!-- BB5&#45;&gt;BB6 -->
<g id="edge8" class="edge">
<title>BB5&#45;&gt;BB6</title>
<path fill="none" stroke="black" d="M430.23,-118.38C461.97,-104.03 500.41,-86.65 533.33,-71.77"/>
<polygon fill="black" stroke="black" points="534.79,-74.95 542.46,-67.64 531.91,-68.57 534.79,-74.95"/>
</g>
</g>
</svg>
