<?xml version="1.0" encoding="UTF-8" standalone="no"?>
<!DOCTYPE svg PUBLIC "-//W3C//DTD SVG 1.1//EN"
 "http://www.w3.org/Graphics/SVG/1.1/DTD/svg11.dtd">
<!-- Generated by graphviz version 2.47.0 (20210316.0004)
 -->
<!-- Title: G Pages: 1 -->
<svg width="841pt" height="527pt"
 viewBox="0.00 0.00 840.67 526.77" xmlns="http://www.w3.org/2000/svg" xmlns:xlink="http://www.w3.org/1999/xlink">
<g id="graph0" class="graph" transform="scale(1 1) rotate(0) translate(4 522.77)">
<title>G</title>
<polygon fill="white" stroke="transparent" points="-4,4 -4,-522.77 836.67,-522.77 836.67,4 -4,4"/>
<!-- BB0 -->
<g id="node1" class="node">
<title>BB0</title>
<ellipse fill="none" stroke="black" cx="525.31" cy="-481.29" rx="105.22" ry="37.45"/>
<text text-anchor="middle" x="525.31" y="-492.59" font-family="Times New Roman,serif" font-size="14.00">[0..2)</text>
<text text-anchor="middle" x="525.31" y="-477.59" font-family="Times New Roman,serif" font-size="14.00">Normalized Count: 1.00</text>
<text text-anchor="middle" x="525.31" y="-462.59" font-family="Times New Roman,serif" font-size="14.00">Samples weight: 0.02</text>
</g>
<!-- BB7 -->
<g id="node8" class="node">
<title>BB7</title>
<ellipse fill="none" stroke="black" cx="525.31" cy="-370.34" rx="110.12" ry="37.45"/>
<text text-anchor="middle" x="525.31" y="-381.64" font-family="Times New Roman,serif" font-size="14.00">[60..66)</text>
<text text-anchor="middle" x="525.31" y="-366.64" font-family="Times New Roman,serif" font-size="14.00">Normalized Count: 13.18</text>
<text text-anchor="middle" x="525.31" y="-351.64" font-family="Times New Roman,serif" font-size="14.00">Samples weight: 0.20</text>
</g>
<!-- BB0&#45;&gt;BB7 -->
<g id="edge1" class="edge">
<title>BB0&#45;&gt;BB7</title>
<path fill="none" stroke="black" d="M525.31,-443.71C525.31,-435.53 525.31,-426.75 525.31,-418.23"/>
<polygon fill="black" stroke="black" points="528.81,-418.01 525.31,-408.01 521.81,-418.01 528.81,-418.01"/>
</g>
<!-- BB1 -->
<g id="node2" class="node">
<title>BB1</title>
<ellipse fill="none" stroke="black" cx="456.31" cy="-259.38" rx="110.12" ry="37.45"/>
<text text-anchor="middle" x="456.31" y="-270.68" font-family="Times New Roman,serif" font-size="14.00">[2..a)</text>
<text text-anchor="middle" x="456.31" y="-255.68" font-family="Times New Roman,serif" font-size="14.00">Normalized Count: 12.18</text>
<text text-anchor="middle" x="456.31" y="-240.68" font-family="Times New Roman,serif" font-size="14.00">Samples weight: 0.18</text>
</g>
<!-- BB2 -->
<g id="node3" class="node">
<title>BB2</title>
<ellipse fill="none" stroke="black" cx="222.31" cy="-148.43" rx="105.22" ry="37.45"/>
<text text-anchor="middle" x="222.31" y="-159.73" font-family="Times New Roman,serif" font-size="14.00">[a..1e)</text>
<text text-anchor="middle" x="222.31" y="-144.73" font-family="Times New Roman,serif" font-size="14.00">Normalized Count: 7.36</text>
<text text-anchor="middle" x="222.31" y="-129.73" font-family="Times New Roman,serif" font-size="14.00">Samples weight: 0.11</text>
</g>
<!-- BB1&#45;&gt;BB2 -->
<g id="edge3" class="edge">
<title>BB1&#45;&gt;BB2</title>
<path fill="none" stroke="black" d="M392.68,-228.76C362.25,-214.59 325.7,-197.57 294.27,-182.93"/>
<polygon fill="black" stroke="black" points="295.66,-179.72 285.12,-178.67 292.71,-186.07 295.66,-179.72"/>
</g>
<!-- BB4 -->
<g id="node5" class="node">
<title>BB4</title>
<ellipse fill="none" stroke="black" cx="456.31" cy="-148.43" rx="110.12" ry="37.45"/>
<text text-anchor="middle" x="456.31" y="-159.73" font-family="Times New Roman,serif" font-size="14.00">[22..34)</text>
<text text-anchor="middle" x="456.31" y="-144.73" font-family="Times New Roman,serif" font-size="14.00">Normalized Count: 12.18</text>
<text text-anchor="middle" x="456.31" y="-129.73" font-family="Times New Roman,serif" font-size="14.00">Samples weight: 0.18</text>
</g>
<!-- BB1&#45;&gt;BB4 -->
<g id="edge2" class="edge">
<title>BB1&#45;&gt;BB4</title>
<path fill="none" stroke="black" d="M456.31,-221.8C456.31,-213.63 456.31,-204.85 456.31,-196.32"/>
<polygon fill="black" stroke="black" points="459.81,-196.1 456.31,-186.1 452.81,-196.1 459.81,-196.1"/>
</g>
<!-- BB3 -->
<g id="node4" class="node">
<title>BB3</title>
<ellipse fill="none" stroke="black" cx="354.31" cy="-37.48" rx="105.22" ry="37.45"/>
<text text-anchor="middle" x="354.31" y="-48.78" font-family="Times New Roman,serif" font-size="14.00">[1e..22)</text>
<text text-anchor="middle" x="354.31" y="-33.78" font-family="Times New Roman,serif" font-size="14.00">Normalized Count: 6.82</text>
<text text-anchor="middle" x="354.31" y="-18.78" font-family="Times New Roman,serif" font-size="14.00">Samples weight: 0.10</text>
</g>
<!-- BB2&#45;&gt;BB3 -->
<g id="edge5" class="edge">
<title>BB2&#45;&gt;BB3</title>
<path fill="none" stroke="black" d="M262.99,-113.85C276.41,-102.77 291.49,-90.33 305.46,-78.8"/>
<polygon fill="black" stroke="black" points="308.05,-81.2 313.53,-72.13 303.59,-75.8 308.05,-81.2"/>
</g>
<!-- BB2&#45;&gt;BB4 -->
<g id="edge4" class="edge">
<title>BB2&#45;&gt;BB4</title>
<path fill="none" stroke="black" d="M327.88,-148.43C330.52,-148.43 333.15,-148.43 335.78,-148.43"/>
<polygon fill="black" stroke="black" points="335.94,-151.93 345.94,-148.43 335.94,-144.93 335.94,-151.93"/>
</g>
<!-- BB3&#45;&gt;BB4 -->
<g id="edge6" class="edge">
<title>BB3&#45;&gt;BB4</title>
<path fill="none" stroke="black" d="M387.08,-73.48C396.45,-83.49 406.76,-94.51 416.5,-104.91"/>
<polygon fill="black" stroke="black" points="414.08,-107.45 423.47,-112.36 419.19,-102.66 414.08,-107.45"/>
</g>
<!-- BB5 -->
<g id="node6" class="node">
<title>BB5</title>
<ellipse fill="none" stroke="black" cx="110.31" cy="-37.48" rx="110.12" ry="37.45"/>
<text text-anchor="middle" x="110.31" y="-48.78" font-family="Times New Roman,serif" font-size="14.00">[34..5b)</text>
<text text-anchor="middle" x="110.31" y="-33.78" font-family="Times New Roman,serif" font-size="14.00">Normalized Count: 10.86</text>
<text text-anchor="middle" x="110.31" y="-18.78" font-family="Times New Roman,serif" font-size="14.00">Samples weight: 0.16</text>
</g>
<!-- BB4&#45;&gt;BB5 -->
<g id="edge8" class="edge">
<title>BB4&#45;&gt;BB5</title>
<path fill="none" stroke="black" d="M376.49,-122.3C323.68,-105.67 254.36,-83.84 199.7,-66.63"/>
<polygon fill="black" stroke="black" points="200.61,-63.24 190.02,-63.58 198.51,-69.92 200.61,-63.24"/>
</g>
<!-- BB6 -->
<g id="node7" class="node">
<title>BB6</title>
<ellipse fill="none" stroke="black" cx="588.31" cy="-37.48" rx="105.22" ry="37.45"/>
<text text-anchor="middle" x="588.31" y="-48.78" font-family="Times New Roman,serif" font-size="14.00">[5b..60)</text>
<text text-anchor="middle" x="588.31" y="-33.78" font-family="Times New Roman,serif" font-size="14.00">Normalized Count: 1.32</text>
<text text-anchor="middle" x="588.31" y="-18.78" font-family="Times New Roman,serif" font-size="14.00">Samples weight: 0.02</text>
</g>
<!-- BB4&#45;&gt;BB6 -->
<g id="edge7" class="edge">
<title>BB4&#45;&gt;BB6</title>
<path fill="none" stroke="black" d="M497.35,-113.55C510.64,-102.59 525.5,-90.32 539.31,-78.92"/>
<polygon fill="black" stroke="black" points="541.81,-81.4 547.29,-72.33 537.35,-76 541.81,-81.4"/>
</g>
<!-- BB5&#45;&gt;BB7 -->
<g id="edge9" class="edge">
<title>BB5&#45;&gt;BB7</title>
<path fill="none" stroke="black" d="M99.43,-75.07C92.26,-106.84 87.58,-152.83 108.31,-185.91 173.38,-289.74 312.42,-335.08 412.06,-354.69"/>
<polygon fill="black" stroke="black" points="411.71,-358.19 422.19,-356.62 413.02,-351.31 411.71,-358.19"/>
</g>
<!-- BB6&#45;&gt;BB7 -->
<g id="edge10" class="edge">
<title>BB6&#45;&gt;BB7</title>
<path fill="none" stroke="black" d="M592.62,-75.17C597.27,-126.34 600.92,-221.36 575.31,-296.86 571.92,-306.84 566.73,-316.71 560.95,-325.79"/>
<polygon fill="black" stroke="black" points="557.95,-323.99 555.28,-334.24 563.76,-327.89 557.95,-323.99"/>
</g>
<!-- BB7&#45;&gt;BB1 -->
<g id="edge11" class="edge">
<title>BB7&#45;&gt;BB1</title>
<path fill="none" stroke="black" d="M502.52,-333.36C496.75,-324.25 490.49,-314.35 484.49,-304.87"/>
<polygon fill="black" stroke="black" points="487.38,-302.9 479.07,-296.32 481.46,-306.64 487.38,-302.9"/>
</g>
<!-- BB8 -->
<g id="node9" class="node">
<title>BB8</title>
<ellipse fill="none" stroke="black" cx="727.31" cy="-259.38" rx="105.22" ry="37.45"/>
<text text-anchor="middle" x="727.31" y="-270.68" font-family="Times New Roman,serif" font-size="14.00">[66..67)</text>
<text text-anchor="middle" x="727.31" y="-255.68" font-family="Times New Roman,serif" font-size="14.00">Normalized Count: 1.00</text>
<text text-anchor="middle" x="727.31" y="-240.68" font-family="Times New Roman,serif" font-size="14.00">Samples weight: 0.02</text>
</g>
<!-- BB7&#45;&gt;BB8 -->
<g id="edge12" class="edge">
<title>BB7&#45;&gt;BB8</title>
<path fill="none" stroke="black" d="M582.92,-338.26C607.44,-325.04 636.16,-309.55 661.5,-295.88"/>
<polygon fill="black" stroke="black" points="663.18,-298.95 670.32,-291.12 659.85,-292.79 663.18,-298.95"/>
</g>
</g>
</svg>
