<?xml version="1.0" encoding="UTF-8" standalone="no"?>
<!DOCTYPE svg PUBLIC "-//W3C//DTD SVG 1.1//EN"
 "http://www.w3.org/Graphics/SVG/1.1/DTD/svg11.dtd">
<!-- Generated by graphviz version 2.47.0 (20210316.0004)
 -->
<!-- Title: G Pages: 1 -->
<svg width="689pt" height="897pt"
 viewBox="0.00 0.00 689.50 897.17" xmlns="http://www.w3.org/2000/svg" xmlns:xlink="http://www.w3.org/1999/xlink">
<g id="graph0" class="graph" transform="scale(1 1) rotate(0) translate(4 893.17)">
<title>G</title>
<polygon fill="white" stroke="transparent" points="-4,4 -4,-893.17 685.5,-893.17 685.5,4 -4,4"/>
<!-- BB0 -->
<g id="node1" class="node">
<title>BB0</title>
<ellipse fill="none" stroke="black" cx="113.84" cy="-841.08" rx="104.8" ry="48.17"/>
<text text-anchor="middle" x="113.84" y="-859.88" font-family="Times New Roman,serif" font-size="14.00">[0..c)</text>
<text text-anchor="middle" x="113.84" y="-844.88" font-family="Times New Roman,serif" font-size="14.00">Count: 0</text>
<text text-anchor="middle" x="113.84" y="-829.88" font-family="Times New Roman,serif" font-size="14.00">Normalized count: NaN</text>
<text text-anchor="middle" x="113.84" y="-814.88" font-family="Times New Roman,serif" font-size="14.00">Samples weight: 0.00</text>
</g>
<!-- BB2 -->
<g id="node3" class="node">
<title>BB2</title>
<ellipse fill="none" stroke="black" cx="113.84" cy="-708.92" rx="113.69" ry="48.17"/>
<text text-anchor="middle" x="113.84" y="-727.72" font-family="Times New Roman,serif" font-size="14.00">[1e..22)</text>
<text text-anchor="middle" x="113.84" y="-712.72" font-family="Times New Roman,serif" font-size="14.00">Count: 17</text>
<text text-anchor="middle" x="113.84" y="-697.72" font-family="Times New Roman,serif" font-size="14.00">Normalized count: Infinity</text>
<text text-anchor="middle" x="113.84" y="-682.72" font-family="Times New Roman,serif" font-size="14.00">Samples weight: 0.00</text>
</g>
<!-- BB0&#45;&gt;BB2 -->
<g id="edge1" class="edge">
<title>BB0&#45;&gt;BB2</title>
<path fill="none" stroke="black" d="M113.84,-792.72C113.84,-784.45 113.84,-775.77 113.84,-767.27"/>
<polygon fill="black" stroke="black" points="117.34,-767.02 113.84,-757.02 110.34,-767.02 117.34,-767.02"/>
</g>
<!-- BB1 -->
<g id="node2" class="node">
<title>BB1</title>
<ellipse fill="none" stroke="black" cx="113.84" cy="-576.75" rx="113.69" ry="48.17"/>
<text text-anchor="middle" x="113.84" y="-595.55" font-family="Times New Roman,serif" font-size="14.00">[c..1e)</text>
<text text-anchor="middle" x="113.84" y="-580.55" font-family="Times New Roman,serif" font-size="14.00">Count: 27</text>
<text text-anchor="middle" x="113.84" y="-565.55" font-family="Times New Roman,serif" font-size="14.00">Normalized count: Infinity</text>
<text text-anchor="middle" x="113.84" y="-550.55" font-family="Times New Roman,serif" font-size="14.00">Samples weight: 0.00</text>
</g>
<!-- BB1&#45;&gt;BB2 -->
<g id="edge2" class="edge">
<title>BB1&#45;&gt;BB2</title>
<path fill="none" stroke="black" d="M120.36,-624.86C120.58,-633.12 120.65,-641.8 120.55,-650.3"/>
<polygon fill="black" stroke="black" points="117.05,-650.49 120.37,-660.55 124.05,-650.62 117.05,-650.49"/>
</g>
<!-- BB2&#45;&gt;BB1 -->
<g id="edge3" class="edge">
<title>BB2&#45;&gt;BB1</title>
<path fill="none" stroke="black" d="M107.32,-660.55C107.1,-652.29 107.04,-643.6 107.14,-635.1"/>
<polygon fill="black" stroke="black" points="110.64,-634.92 107.33,-624.86 103.64,-634.79 110.64,-634.92"/>
</g>
<!-- BB3 -->
<g id="node4" class="node">
<title>BB3</title>
<ellipse fill="none" stroke="black" cx="349.84" cy="-576.75" rx="104.8" ry="48.17"/>
<text text-anchor="middle" x="349.84" y="-595.55" font-family="Times New Roman,serif" font-size="14.00">[22..24)</text>
<text text-anchor="middle" x="349.84" y="-580.55" font-family="Times New Roman,serif" font-size="14.00">Count: 0</text>
<text text-anchor="middle" x="349.84" y="-565.55" font-family="Times New Roman,serif" font-size="14.00">Normalized count: NaN</text>
<text text-anchor="middle" x="349.84" y="-550.55" font-family="Times New Roman,serif" font-size="14.00">Samples weight: 0.00</text>
</g>
<!-- BB2&#45;&gt;BB3 -->
<g id="edge4" class="edge">
<title>BB2&#45;&gt;BB3</title>
<path fill="none" stroke="black" d="M182.11,-670.27C211.1,-654.28 244.99,-635.58 274.7,-619.2"/>
<polygon fill="black" stroke="black" points="276.7,-622.09 283.77,-614.19 273.32,-615.96 276.7,-622.09"/>
</g>
<!-- BB7 -->
<g id="node8" class="node">
<title>BB7</title>
<ellipse fill="none" stroke="black" cx="349.84" cy="-444.58" rx="104.8" ry="48.17"/>
<text text-anchor="middle" x="349.84" y="-463.38" font-family="Times New Roman,serif" font-size="14.00">[44..4d)</text>
<text text-anchor="middle" x="349.84" y="-448.38" font-family="Times New Roman,serif" font-size="14.00">Count: 0</text>
<text text-anchor="middle" x="349.84" y="-433.38" font-family="Times New Roman,serif" font-size="14.00">Normalized count: NaN</text>
<text text-anchor="middle" x="349.84" y="-418.38" font-family="Times New Roman,serif" font-size="14.00">Samples weight: 0.00</text>
</g>
<!-- BB3&#45;&gt;BB7 -->
<g id="edge5" class="edge">
<title>BB3&#45;&gt;BB7</title>
<path fill="none" stroke="black" d="M349.84,-528.39C349.84,-520.12 349.84,-511.44 349.84,-502.93"/>
<polygon fill="black" stroke="black" points="353.34,-502.69 349.84,-492.69 346.34,-502.69 353.34,-502.69"/>
</g>
<!-- BB4 -->
<g id="node5" class="node">
<title>BB4</title>
<ellipse fill="none" stroke="black" cx="349.84" cy="-312.42" rx="104.8" ry="48.17"/>
<text text-anchor="middle" x="349.84" y="-331.22" font-family="Times New Roman,serif" font-size="14.00">[24..28)</text>
<text text-anchor="middle" x="349.84" y="-316.22" font-family="Times New Roman,serif" font-size="14.00">Count: 0</text>
<text text-anchor="middle" x="349.84" y="-301.22" font-family="Times New Roman,serif" font-size="14.00">Normalized count: NaN</text>
<text text-anchor="middle" x="349.84" y="-286.22" font-family="Times New Roman,serif" font-size="14.00">Samples weight: 0.00</text>
</g>
<!-- BB6 -->
<g id="node7" class="node">
<title>BB6</title>
<ellipse fill="none" stroke="black" cx="282.84" cy="-180.25" rx="113.69" ry="48.17"/>
<text text-anchor="middle" x="282.84" y="-199.05" font-family="Times New Roman,serif" font-size="14.00">[40..44)</text>
<text text-anchor="middle" x="282.84" y="-184.05" font-family="Times New Roman,serif" font-size="14.00">Count: 2794</text>
<text text-anchor="middle" x="282.84" y="-169.05" font-family="Times New Roman,serif" font-size="14.00">Normalized count: Infinity</text>
<text text-anchor="middle" x="282.84" y="-154.05" font-family="Times New Roman,serif" font-size="14.00">Samples weight: 0.40</text>
</g>
<!-- BB4&#45;&gt;BB6 -->
<g id="edge6" class="edge">
<title>BB4&#45;&gt;BB6</title>
<path fill="none" stroke="black" d="M326.22,-265.52C321.43,-256.21 316.33,-246.31 311.39,-236.7"/>
<polygon fill="black" stroke="black" points="314.39,-234.9 306.7,-227.61 308.17,-238.1 314.39,-234.9"/>
</g>
<!-- BB5 -->
<g id="node6" class="node">
<title>BB5</title>
<ellipse fill="none" stroke="black" cx="282.84" cy="-48.08" rx="113.69" ry="48.17"/>
<text text-anchor="middle" x="282.84" y="-66.88" font-family="Times New Roman,serif" font-size="14.00">[28..40)</text>
<text text-anchor="middle" x="282.84" y="-51.88" font-family="Times New Roman,serif" font-size="14.00">Count: 4094</text>
<text text-anchor="middle" x="282.84" y="-36.88" font-family="Times New Roman,serif" font-size="14.00">Normalized count: Infinity</text>
<text text-anchor="middle" x="282.84" y="-21.88" font-family="Times New Roman,serif" font-size="14.00">Samples weight: 0.59</text>
</g>
<!-- BB5&#45;&gt;BB6 -->
<g id="edge7" class="edge">
<title>BB5&#45;&gt;BB6</title>
<path fill="none" stroke="black" d="M289.36,-96.19C289.58,-104.45 289.65,-113.13 289.55,-121.64"/>
<polygon fill="black" stroke="black" points="286.05,-121.83 289.37,-131.89 293.05,-121.95 286.05,-121.83"/>
</g>
<!-- BB6&#45;&gt;BB5 -->
<g id="edge8" class="edge">
<title>BB6&#45;&gt;BB5</title>
<path fill="none" stroke="black" d="M276.32,-131.89C276.1,-123.62 276.04,-114.94 276.14,-106.43"/>
<polygon fill="black" stroke="black" points="279.64,-106.26 276.33,-96.19 272.64,-106.12 279.64,-106.26"/>
</g>
<!-- BB6&#45;&gt;BB7 -->
<g id="edge9" class="edge">
<title>BB6&#45;&gt;BB7</title>
<path fill="none" stroke="black" d="M251.53,-226.88C245.07,-238.59 239.22,-251.51 235.84,-264.33 224.96,-305.67 216.47,-322.4 235.84,-360.5 244.18,-376.89 257.44,-390.82 272.01,-402.31"/>
<polygon fill="black" stroke="black" points="270.11,-405.26 280.21,-408.45 274.3,-399.65 270.11,-405.26"/>
</g>
<!-- BB7&#45;&gt;BB4 -->
<g id="edge10" class="edge">
<title>BB7&#45;&gt;BB4</title>
<path fill="none" stroke="black" d="M349.84,-396.22C349.84,-387.95 349.84,-379.27 349.84,-370.77"/>
<polygon fill="black" stroke="black" points="353.34,-370.52 349.84,-360.52 346.34,-370.52 353.34,-370.52"/>
</g>
<!-- BB8 -->
<g id="node9" class="node">
<title>BB8</title>
<ellipse fill="none" stroke="black" cx="576.84" cy="-312.42" rx="104.8" ry="48.17"/>
<text text-anchor="middle" x="576.84" y="-331.22" font-family="Times New Roman,serif" font-size="14.00">[4d..4e)</text>
<text text-anchor="middle" x="576.84" y="-316.22" font-family="Times New Roman,serif" font-size="14.00">Count: 0</text>
<text text-anchor="middle" x="576.84" y="-301.22" font-family="Times New Roman,serif" font-size="14.00">Normalized count: NaN</text>
<text text-anchor="middle" x="576.84" y="-286.22" font-family="Times New Roman,serif" font-size="14.00">Samples weight: 0.00</text>
</g>
<!-- BB7&#45;&gt;BB8 -->
<g id="edge11" class="edge">
<title>BB7&#45;&gt;BB8</title>
<path fill="none" stroke="black" d="M414.29,-406.63C442.08,-390.69 474.74,-371.97 503.46,-355.49"/>
<polygon fill="black" stroke="black" points="505.31,-358.47 512.24,-350.46 501.83,-352.4 505.31,-358.47"/>
</g>
</g>
</svg>
