<?xml version="1.0" encoding="UTF-8" standalone="no"?>
<!DOCTYPE svg PUBLIC "-//W3C//DTD SVG 1.1//EN"
 "http://www.w3.org/Graphics/SVG/1.1/DTD/svg11.dtd">
<!-- Generated by graphviz version 2.47.0 (20210316.0004)
 -->
<!-- Title: G Pages: 1 -->
<svg width="379pt" height="421pt"
 viewBox="0.00 0.00 378.73 420.70" xmlns="http://www.w3.org/2000/svg" xmlns:xlink="http://www.w3.org/1999/xlink">
<g id="graph0" class="graph" transform="scale(1 1) rotate(0) translate(4 416.7)">
<title>G</title>
<polygon fill="white" stroke="transparent" points="-4,4 -4,-416.7 374.73,-416.7 374.73,4 -4,4"/>
<!-- BB0 -->
<g id="node1" class="node">
<title>BB0</title>
<ellipse fill="none" stroke="black" cx="227.43" cy="-385.83" rx="33.47" ry="26.74"/>
<text text-anchor="middle" x="227.43" y="-389.63" font-family="Times New Roman,serif" font-size="14.00">[0..2)</text>
<text text-anchor="middle" x="227.43" y="-374.63" font-family="Times New Roman,serif" font-size="14.00">0.00</text>
</g>
<!-- BB7 -->
<g id="node8" class="node">
<title>BB7</title>
<ellipse fill="none" stroke="black" cx="227.43" cy="-296.09" rx="41.94" ry="26.74"/>
<text text-anchor="middle" x="227.43" y="-299.89" font-family="Times New Roman,serif" font-size="14.00">[38..3e)</text>
<text text-anchor="middle" x="227.43" y="-284.89" font-family="Times New Roman,serif" font-size="14.00">0.18</text>
</g>
<!-- BB0&#45;&gt;BB7 -->
<g id="edge1" class="edge">
<title>BB0&#45;&gt;BB7</title>
<path fill="none" stroke="black" d="M227.43,-358.51C227.43,-350.54 227.43,-341.65 227.43,-333.16"/>
<polygon fill="black" stroke="black" points="230.93,-333.09 227.43,-323.09 223.93,-333.09 230.93,-333.09"/>
</g>
<!-- BB1 -->
<g id="node2" class="node">
<title>BB1</title>
<ellipse fill="none" stroke="black" cx="192.43" cy="-206.35" rx="32.55" ry="26.74"/>
<text text-anchor="middle" x="192.43" y="-210.15" font-family="Times New Roman,serif" font-size="14.00">[2..a)</text>
<text text-anchor="middle" x="192.43" y="-195.15" font-family="Times New Roman,serif" font-size="14.00">0.18</text>
</g>
<!-- BB2 -->
<g id="node3" class="node">
<title>BB2</title>
<ellipse fill="none" stroke="black" cx="94.43" cy="-116.61" rx="37.45" ry="26.74"/>
<text text-anchor="middle" x="94.43" y="-120.41" font-family="Times New Roman,serif" font-size="14.00">[a..14)</text>
<text text-anchor="middle" x="94.43" y="-105.41" font-family="Times New Roman,serif" font-size="14.00">0.18</text>
</g>
<!-- BB1&#45;&gt;BB2 -->
<g id="edge3" class="edge">
<title>BB1&#45;&gt;BB2</title>
<path fill="none" stroke="black" d="M170.68,-185.88C157.23,-173.84 139.77,-158.21 124.95,-144.94"/>
<polygon fill="black" stroke="black" points="127.27,-142.31 117.48,-138.25 122.6,-147.53 127.27,-142.31"/>
</g>
<!-- BB4 -->
<g id="node5" class="node">
<title>BB4</title>
<ellipse fill="none" stroke="black" cx="192.43" cy="-116.61" rx="42.35" ry="26.74"/>
<text text-anchor="middle" x="192.43" y="-120.41" font-family="Times New Roman,serif" font-size="14.00">[18..20)</text>
<text text-anchor="middle" x="192.43" y="-105.41" font-family="Times New Roman,serif" font-size="14.00">0.18</text>
</g>
<!-- BB1&#45;&gt;BB4 -->
<g id="edge2" class="edge">
<title>BB1&#45;&gt;BB4</title>
<path fill="none" stroke="black" d="M192.43,-179.03C192.43,-171.06 192.43,-162.17 192.43,-153.68"/>
<polygon fill="black" stroke="black" points="195.93,-153.61 192.43,-143.61 188.93,-153.61 195.93,-153.61"/>
</g>
<!-- BB3 -->
<g id="node4" class="node">
<title>BB3</title>
<ellipse fill="none" stroke="black" cx="152.43" cy="-26.87" rx="42.35" ry="26.74"/>
<text text-anchor="middle" x="152.43" y="-30.67" font-family="Times New Roman,serif" font-size="14.00">[14..18)</text>
<text text-anchor="middle" x="152.43" y="-15.67" font-family="Times New Roman,serif" font-size="14.00">0.09</text>
</g>
<!-- BB2&#45;&gt;BB3 -->
<g id="edge5" class="edge">
<title>BB2&#45;&gt;BB3</title>
<path fill="none" stroke="black" d="M109.97,-92.1C116.37,-82.42 123.88,-71.05 130.8,-60.58"/>
<polygon fill="black" stroke="black" points="133.84,-62.33 136.44,-52.06 128,-58.47 133.84,-62.33"/>
</g>
<!-- BB2&#45;&gt;BB4 -->
<g id="edge4" class="edge">
<title>BB2&#45;&gt;BB4</title>
<path fill="none" stroke="black" d="M131.94,-116.61C134.56,-116.61 137.18,-116.61 139.8,-116.61"/>
<polygon fill="black" stroke="black" points="139.9,-120.11 149.9,-116.61 139.9,-113.11 139.9,-120.11"/>
</g>
<!-- BB3&#45;&gt;BB4 -->
<g id="edge6" class="edge">
<title>BB3&#45;&gt;BB4</title>
<path fill="none" stroke="black" d="M163.81,-52.84C167.87,-61.74 172.51,-71.92 176.85,-81.45"/>
<polygon fill="black" stroke="black" points="173.74,-83.05 181.07,-90.7 180.11,-80.15 173.74,-83.05"/>
</g>
<!-- BB5 -->
<g id="node6" class="node">
<title>BB5</title>
<ellipse fill="none" stroke="black" cx="42.43" cy="-26.87" rx="42.35" ry="26.74"/>
<text text-anchor="middle" x="42.43" y="-30.67" font-family="Times New Roman,serif" font-size="14.00">[20..33)</text>
<text text-anchor="middle" x="42.43" y="-15.67" font-family="Times New Roman,serif" font-size="14.00">0.14</text>
</g>
<!-- BB4&#45;&gt;BB5 -->
<g id="edge8" class="edge">
<title>BB4&#45;&gt;BB5</title>
<path fill="none" stroke="black" d="M161.71,-97.64C138.58,-84.11 106.69,-65.46 81.71,-50.85"/>
<polygon fill="black" stroke="black" points="83.24,-47.69 72.85,-45.66 79.71,-53.73 83.24,-47.69"/>
</g>
<!-- BB6 -->
<g id="node7" class="node">
<title>BB6</title>
<ellipse fill="none" stroke="black" cx="258.43" cy="-26.87" rx="42.35" ry="26.74"/>
<text text-anchor="middle" x="258.43" y="-30.67" font-family="Times New Roman,serif" font-size="14.00">[33..38)</text>
<text text-anchor="middle" x="258.43" y="-15.67" font-family="Times New Roman,serif" font-size="14.00">0.04</text>
</g>
<!-- BB4&#45;&gt;BB6 -->
<g id="edge7" class="edge">
<title>BB4&#45;&gt;BB6</title>
<path fill="none" stroke="black" d="M210.11,-92.1C217.59,-82.16 226.4,-70.44 234.45,-59.75"/>
<polygon fill="black" stroke="black" points="237.48,-61.54 240.69,-51.45 231.88,-57.34 237.48,-61.54"/>
</g>
<!-- BB5&#45;&gt;BB7 -->
<g id="edge9" class="edge">
<title>BB5&#45;&gt;BB7</title>
<path fill="none" stroke="black" d="M38.26,-53.62C35.54,-78.03 34.69,-115.07 48.43,-143.48 77.57,-203.72 143.04,-249.09 186.2,-273.86"/>
<polygon fill="black" stroke="black" points="184.62,-276.98 195.05,-278.83 188.05,-270.88 184.62,-276.98"/>
</g>
<!-- BB6&#45;&gt;BB7 -->
<g id="edge10" class="edge">
<title>BB6&#45;&gt;BB7</title>
<path fill="none" stroke="black" d="M255.43,-53.69C249.87,-101.59 237.96,-204.3 231.61,-259.03"/>
<polygon fill="black" stroke="black" points="228.13,-258.64 230.46,-268.98 235.08,-259.45 228.13,-258.64"/>
</g>
<!-- BB7&#45;&gt;BB1 -->
<g id="edge11" class="edge">
<title>BB7&#45;&gt;BB1</title>
<path fill="none" stroke="black" d="M217.3,-269.71C213.8,-260.92 209.81,-250.92 206.06,-241.54"/>
<polygon fill="black" stroke="black" points="209.24,-240.06 202.29,-232.07 202.74,-242.65 209.24,-240.06"/>
</g>
<!-- BB8 -->
<g id="node9" class="node">
<title>BB8</title>
<ellipse fill="none" stroke="black" cx="330.43" cy="-206.35" rx="40.11" ry="26.74"/>
<text text-anchor="middle" x="330.43" y="-210.15" font-family="Times New Roman,serif" font-size="14.00">[3e..3f)</text>
<text text-anchor="middle" x="330.43" y="-195.15" font-family="Times New Roman,serif" font-size="14.00">0.00</text>
</g>
<!-- BB7&#45;&gt;BB8 -->
<g id="edge12" class="edge">
<title>BB7&#45;&gt;BB8</title>
<path fill="none" stroke="black" d="M251.84,-274.3C265.69,-262.5 283.2,-247.58 298.17,-234.82"/>
<polygon fill="black" stroke="black" points="300.85,-237.14 306.19,-227.99 296.31,-231.81 300.85,-237.14"/>
</g>
</g>
</svg>
