<?xml version="1.0" encoding="UTF-8" standalone="no"?>
<!DOCTYPE svg PUBLIC "-//W3C//DTD SVG 1.1//EN"
 "http://www.w3.org/Graphics/SVG/1.1/DTD/svg11.dtd">
<!-- Generated by graphviz version 2.47.0 (20210316.0004)
 -->
<!-- Title: G Pages: 1 -->
<svg width="851pt" height="527pt"
 viewBox="0.00 0.00 850.67 526.77" xmlns="http://www.w3.org/2000/svg" xmlns:xlink="http://www.w3.org/1999/xlink">
<g id="graph0" class="graph" transform="scale(1 1) rotate(0) translate(4 522.77)">
<title>G</title>
<polygon fill="white" stroke="transparent" points="-4,4 -4,-522.77 846.67,-522.77 846.67,4 -4,4"/>
<!-- BB0 -->
<g id="node1" class="node">
<title>BB0</title>
<ellipse fill="none" stroke="black" cx="535.31" cy="-481.29" rx="105.22" ry="37.45"/>
<text text-anchor="middle" x="535.31" y="-492.59" font-family="Times New Roman,serif" font-size="14.00">[0..2)</text>
<text text-anchor="middle" x="535.31" y="-477.59" font-family="Times New Roman,serif" font-size="14.00">Normalized Count: 1.00</text>
<text text-anchor="middle" x="535.31" y="-462.59" font-family="Times New Roman,serif" font-size="14.00">Samples weight: 0.00</text>
</g>
<!-- BB7 -->
<g id="node8" class="node">
<title>BB7</title>
<ellipse fill="none" stroke="black" cx="535.31" cy="-370.34" rx="110.12" ry="37.45"/>
<text text-anchor="middle" x="535.31" y="-381.64" font-family="Times New Roman,serif" font-size="14.00">[38..3e)</text>
<text text-anchor="middle" x="535.31" y="-366.64" font-family="Times New Roman,serif" font-size="14.00">Normalized Count: 13.27</text>
<text text-anchor="middle" x="535.31" y="-351.64" font-family="Times New Roman,serif" font-size="14.00">Samples weight: 0.07</text>
</g>
<!-- BB0&#45;&gt;BB7 -->
<g id="edge1" class="edge">
<title>BB0&#45;&gt;BB7</title>
<path fill="none" stroke="black" d="M535.31,-443.71C535.31,-435.53 535.31,-426.75 535.31,-418.23"/>
<polygon fill="black" stroke="black" points="538.81,-418.01 535.31,-408.01 531.81,-418.01 538.81,-418.01"/>
</g>
<!-- BB1 -->
<g id="node2" class="node">
<title>BB1</title>
<ellipse fill="none" stroke="black" cx="466.31" cy="-259.38" rx="110.12" ry="37.45"/>
<text text-anchor="middle" x="466.31" y="-270.68" font-family="Times New Roman,serif" font-size="14.00">[2..a)</text>
<text text-anchor="middle" x="466.31" y="-255.68" font-family="Times New Roman,serif" font-size="14.00">Normalized Count: 17.73</text>
<text text-anchor="middle" x="466.31" y="-240.68" font-family="Times New Roman,serif" font-size="14.00">Samples weight: 0.09</text>
</g>
<!-- BB2 -->
<g id="node3" class="node">
<title>BB2</title>
<ellipse fill="none" stroke="black" cx="227.31" cy="-148.43" rx="110.12" ry="37.45"/>
<text text-anchor="middle" x="227.31" y="-159.73" font-family="Times New Roman,serif" font-size="14.00">[a..14)</text>
<text text-anchor="middle" x="227.31" y="-144.73" font-family="Times New Roman,serif" font-size="14.00">Normalized Count: 52.18</text>
<text text-anchor="middle" x="227.31" y="-129.73" font-family="Times New Roman,serif" font-size="14.00">Samples weight: 0.26</text>
</g>
<!-- BB1&#45;&gt;BB2 -->
<g id="edge3" class="edge">
<title>BB1&#45;&gt;BB2</title>
<path fill="none" stroke="black" d="M401.63,-228.9C370.68,-214.79 333.46,-197.82 301.38,-183.2"/>
<polygon fill="black" stroke="black" points="302.59,-179.9 292.04,-178.94 299.68,-186.27 302.59,-179.9"/>
</g>
<!-- BB4 -->
<g id="node5" class="node">
<title>BB4</title>
<ellipse fill="none" stroke="black" cx="466.31" cy="-148.43" rx="110.12" ry="37.45"/>
<text text-anchor="middle" x="466.31" y="-159.73" font-family="Times New Roman,serif" font-size="14.00">[18..20)</text>
<text text-anchor="middle" x="466.31" y="-144.73" font-family="Times New Roman,serif" font-size="14.00">Normalized Count: 48.55</text>
<text text-anchor="middle" x="466.31" y="-129.73" font-family="Times New Roman,serif" font-size="14.00">Samples weight: 0.24</text>
</g>
<!-- BB1&#45;&gt;BB4 -->
<g id="edge2" class="edge">
<title>BB1&#45;&gt;BB4</title>
<path fill="none" stroke="black" d="M466.31,-221.8C466.31,-213.63 466.31,-204.85 466.31,-196.32"/>
<polygon fill="black" stroke="black" points="469.81,-196.1 466.31,-186.1 462.81,-196.1 469.81,-196.1"/>
</g>
<!-- BB3 -->
<g id="node4" class="node">
<title>BB3</title>
<ellipse fill="none" stroke="black" cx="359.31" cy="-37.48" rx="110.12" ry="37.45"/>
<text text-anchor="middle" x="359.31" y="-48.78" font-family="Times New Roman,serif" font-size="14.00">[14..18)</text>
<text text-anchor="middle" x="359.31" y="-33.78" font-family="Times New Roman,serif" font-size="14.00">Normalized Count: 27.64</text>
<text text-anchor="middle" x="359.31" y="-18.78" font-family="Times New Roman,serif" font-size="14.00">Samples weight: 0.14</text>
</g>
<!-- BB2&#45;&gt;BB3 -->
<g id="edge5" class="edge">
<title>BB2&#45;&gt;BB3</title>
<path fill="none" stroke="black" d="M268.35,-113.55C281.64,-102.59 296.5,-90.32 310.31,-78.92"/>
<polygon fill="black" stroke="black" points="312.81,-81.4 318.29,-72.33 308.35,-76 312.81,-81.4"/>
</g>
<!-- BB2&#45;&gt;BB4 -->
<g id="edge4" class="edge">
<title>BB2&#45;&gt;BB4</title>
<path fill="none" stroke="black" d="M337.94,-148.43C340.57,-148.43 343.2,-148.43 345.84,-148.43"/>
<polygon fill="black" stroke="black" points="345.99,-151.93 355.99,-148.43 345.99,-144.93 345.99,-151.93"/>
</g>
<!-- BB3&#45;&gt;BB4 -->
<g id="edge6" class="edge">
<title>BB3&#45;&gt;BB4</title>
<path fill="none" stroke="black" d="M393.5,-73.29C403.54,-83.52 414.63,-94.81 425.06,-105.43"/>
<polygon fill="black" stroke="black" points="422.65,-107.97 432.16,-112.66 427.65,-103.07 422.65,-107.97"/>
</g>
<!-- BB5 -->
<g id="node6" class="node">
<title>BB5</title>
<ellipse fill="none" stroke="black" cx="110.31" cy="-37.48" rx="110.12" ry="37.45"/>
<text text-anchor="middle" x="110.31" y="-48.78" font-family="Times New Roman,serif" font-size="14.00">[20..33)</text>
<text text-anchor="middle" x="110.31" y="-33.78" font-family="Times New Roman,serif" font-size="14.00">Normalized Count: 40.09</text>
<text text-anchor="middle" x="110.31" y="-18.78" font-family="Times New Roman,serif" font-size="14.00">Samples weight: 0.20</text>
</g>
<!-- BB4&#45;&gt;BB5 -->
<g id="edge8" class="edge">
<title>BB4&#45;&gt;BB5</title>
<path fill="none" stroke="black" d="M385.53,-122.71C330.55,-105.88 257.72,-83.59 200.79,-66.17"/>
<polygon fill="black" stroke="black" points="201.66,-62.78 191.08,-63.2 199.62,-69.47 201.66,-62.78"/>
</g>
<!-- BB6 -->
<g id="node7" class="node">
<title>BB6</title>
<ellipse fill="none" stroke="black" cx="598.31" cy="-37.48" rx="105.22" ry="37.45"/>
<text text-anchor="middle" x="598.31" y="-48.78" font-family="Times New Roman,serif" font-size="14.00">[33..38)</text>
<text text-anchor="middle" x="598.31" y="-33.78" font-family="Times New Roman,serif" font-size="14.00">Normalized Count: 2.55</text>
<text text-anchor="middle" x="598.31" y="-18.78" font-family="Times New Roman,serif" font-size="14.00">Samples weight: 0.01</text>
</g>
<!-- BB4&#45;&gt;BB6 -->
<g id="edge7" class="edge">
<title>BB4&#45;&gt;BB6</title>
<path fill="none" stroke="black" d="M507.35,-113.55C520.64,-102.59 535.5,-90.32 549.31,-78.92"/>
<polygon fill="black" stroke="black" points="551.81,-81.4 557.29,-72.33 547.35,-76 551.81,-81.4"/>
</g>
<!-- BB5&#45;&gt;BB7 -->
<g id="edge9" class="edge">
<title>BB5&#45;&gt;BB7</title>
<path fill="none" stroke="black" d="M99.36,-74.84C92.07,-106.68 87.24,-152.89 108.31,-185.91 175.94,-291.87 319.43,-336.8 421.37,-355.73"/>
<polygon fill="black" stroke="black" points="420.95,-359.21 431.42,-357.54 422.19,-352.32 420.95,-359.21"/>
</g>
<!-- BB6&#45;&gt;BB7 -->
<g id="edge10" class="edge">
<title>BB6&#45;&gt;BB7</title>
<path fill="none" stroke="black" d="M602.62,-75.17C607.27,-126.34 610.92,-221.36 585.31,-296.86 581.92,-306.84 576.73,-316.71 570.95,-325.79"/>
<polygon fill="black" stroke="black" points="567.95,-323.99 565.28,-334.24 573.76,-327.89 567.95,-323.99"/>
</g>
<!-- BB7&#45;&gt;BB1 -->
<g id="edge11" class="edge">
<title>BB7&#45;&gt;BB1</title>
<path fill="none" stroke="black" d="M512.52,-333.36C506.75,-324.25 500.49,-314.35 494.49,-304.87"/>
<polygon fill="black" stroke="black" points="497.38,-302.9 489.07,-296.32 491.46,-306.64 497.38,-302.9"/>
</g>
<!-- BB8 -->
<g id="node9" class="node">
<title>BB8</title>
<ellipse fill="none" stroke="black" cx="737.31" cy="-259.38" rx="105.22" ry="37.45"/>
<text text-anchor="middle" x="737.31" y="-270.68" font-family="Times New Roman,serif" font-size="14.00">[3e..3f)</text>
<text text-anchor="middle" x="737.31" y="-255.68" font-family="Times New Roman,serif" font-size="14.00">Normalized Count: 0.00</text>
<text text-anchor="middle" x="737.31" y="-240.68" font-family="Times New Roman,serif" font-size="14.00">Samples weight: 0.00</text>
</g>
<!-- BB7&#45;&gt;BB8 -->
<g id="edge12" class="edge">
<title>BB7&#45;&gt;BB8</title>
<path fill="none" stroke="black" d="M592.92,-338.26C617.44,-325.04 646.16,-309.55 671.5,-295.88"/>
<polygon fill="black" stroke="black" points="673.18,-298.95 680.32,-291.12 669.85,-292.79 673.18,-298.95"/>
</g>
</g>
</svg>
