<?xml version="1.0" encoding="UTF-8" standalone="no"?>
<!DOCTYPE svg PUBLIC "-//W3C//DTD SVG 1.1//EN"
 "http://www.w3.org/Graphics/SVG/1.1/DTD/svg11.dtd">
<!-- Generated by graphviz version 2.47.0 (20210316.0004)
 -->
<!-- Title: G Pages: 1 -->
<svg width="702pt" height="897pt"
 viewBox="0.00 0.00 702.32 897.17" xmlns="http://www.w3.org/2000/svg" xmlns:xlink="http://www.w3.org/1999/xlink">
<g id="graph0" class="graph" transform="scale(1 1) rotate(0) translate(4 893.17)">
<title>G</title>
<polygon fill="white" stroke="transparent" points="-4,4 -4,-893.17 698.32,-893.17 698.32,4 -4,4"/>
<!-- BB0 -->
<g id="node1" class="node">
<title>BB0</title>
<ellipse fill="none" stroke="black" cx="118.09" cy="-841.08" rx="103.48" ry="48.17"/>
<text text-anchor="middle" x="118.09" y="-859.88" font-family="Times New Roman,serif" font-size="14.00">[0..c)</text>
<text text-anchor="middle" x="118.09" y="-844.88" font-family="Times New Roman,serif" font-size="14.00">Count: 5</text>
<text text-anchor="middle" x="118.09" y="-829.88" font-family="Times New Roman,serif" font-size="14.00">Normalized count: 1.00</text>
<text text-anchor="middle" x="118.09" y="-814.88" font-family="Times New Roman,serif" font-size="14.00">Samples weight: 0.00</text>
</g>
<!-- BB2 -->
<g id="node3" class="node">
<title>BB2</title>
<ellipse fill="none" stroke="black" cx="118.09" cy="-708.92" rx="118.17" ry="48.17"/>
<text text-anchor="middle" x="118.09" y="-727.72" font-family="Times New Roman,serif" font-size="14.00">[1e..22)</text>
<text text-anchor="middle" x="118.09" y="-712.72" font-family="Times New Roman,serif" font-size="14.00">Count: 40560</text>
<text text-anchor="middle" x="118.09" y="-697.72" font-family="Times New Roman,serif" font-size="14.00">Normalized count: 8112.00</text>
<text text-anchor="middle" x="118.09" y="-682.72" font-family="Times New Roman,serif" font-size="14.00">Samples weight: 0.00</text>
</g>
<!-- BB0&#45;&gt;BB2 -->
<g id="edge1" class="edge">
<title>BB0&#45;&gt;BB2</title>
<path fill="none" stroke="black" d="M118.09,-792.72C118.09,-784.45 118.09,-775.77 118.09,-767.27"/>
<polygon fill="black" stroke="black" points="121.59,-767.02 118.09,-757.02 114.59,-767.02 121.59,-767.02"/>
</g>
<!-- BB1 -->
<g id="node2" class="node">
<title>BB1</title>
<ellipse fill="none" stroke="black" cx="118.09" cy="-576.75" rx="118.17" ry="48.17"/>
<text text-anchor="middle" x="118.09" y="-595.55" font-family="Times New Roman,serif" font-size="14.00">[c..1e)</text>
<text text-anchor="middle" x="118.09" y="-580.55" font-family="Times New Roman,serif" font-size="14.00">Count: 40555</text>
<text text-anchor="middle" x="118.09" y="-565.55" font-family="Times New Roman,serif" font-size="14.00">Normalized count: 8111.00</text>
<text text-anchor="middle" x="118.09" y="-550.55" font-family="Times New Roman,serif" font-size="14.00">Samples weight: 0.00</text>
</g>
<!-- BB1&#45;&gt;BB2 -->
<g id="edge2" class="edge">
<title>BB1&#45;&gt;BB2</title>
<path fill="none" stroke="black" d="M124.6,-624.86C124.82,-633.12 124.89,-641.8 124.8,-650.3"/>
<polygon fill="black" stroke="black" points="121.29,-650.49 124.61,-660.55 128.29,-650.62 121.29,-650.49"/>
</g>
<!-- BB2&#45;&gt;BB1 -->
<g id="edge3" class="edge">
<title>BB2&#45;&gt;BB1</title>
<path fill="none" stroke="black" d="M111.56,-660.55C111.35,-652.29 111.29,-643.6 111.38,-635.1"/>
<polygon fill="black" stroke="black" points="114.88,-634.92 111.57,-624.86 107.88,-634.79 114.88,-634.92"/>
</g>
<!-- BB3 -->
<g id="node4" class="node">
<title>BB3</title>
<ellipse fill="none" stroke="black" cx="357.09" cy="-576.75" rx="103.48" ry="48.17"/>
<text text-anchor="middle" x="357.09" y="-595.55" font-family="Times New Roman,serif" font-size="14.00">[22..24)</text>
<text text-anchor="middle" x="357.09" y="-580.55" font-family="Times New Roman,serif" font-size="14.00">Count: 5</text>
<text text-anchor="middle" x="357.09" y="-565.55" font-family="Times New Roman,serif" font-size="14.00">Normalized count: 1.00</text>
<text text-anchor="middle" x="357.09" y="-550.55" font-family="Times New Roman,serif" font-size="14.00">Samples weight: 0.00</text>
</g>
<!-- BB2&#45;&gt;BB3 -->
<g id="edge4" class="edge">
<title>BB2&#45;&gt;BB3</title>
<path fill="none" stroke="black" d="M187.86,-669.92C217.45,-653.8 252,-634.98 282.14,-618.57"/>
<polygon fill="black" stroke="black" points="283.82,-621.64 290.92,-613.78 280.47,-615.49 283.82,-621.64"/>
</g>
<!-- BB7 -->
<g id="node8" class="node">
<title>BB7</title>
<ellipse fill="none" stroke="black" cx="357.09" cy="-444.58" rx="113.27" ry="48.17"/>
<text text-anchor="middle" x="357.09" y="-463.38" font-family="Times New Roman,serif" font-size="14.00">[44..4d)</text>
<text text-anchor="middle" x="357.09" y="-448.38" font-family="Times New Roman,serif" font-size="14.00">Count: 1000</text>
<text text-anchor="middle" x="357.09" y="-433.38" font-family="Times New Roman,serif" font-size="14.00">Normalized count: 200.00</text>
<text text-anchor="middle" x="357.09" y="-418.38" font-family="Times New Roman,serif" font-size="14.00">Samples weight: 0.00</text>
</g>
<!-- BB3&#45;&gt;BB7 -->
<g id="edge5" class="edge">
<title>BB3&#45;&gt;BB7</title>
<path fill="none" stroke="black" d="M357.09,-528.39C357.09,-520.12 357.09,-511.44 357.09,-502.93"/>
<polygon fill="black" stroke="black" points="360.59,-502.69 357.09,-492.69 353.59,-502.69 360.59,-502.69"/>
</g>
<!-- BB4 -->
<g id="node5" class="node">
<title>BB4</title>
<ellipse fill="none" stroke="black" cx="357.09" cy="-312.42" rx="113.27" ry="48.17"/>
<text text-anchor="middle" x="357.09" y="-331.22" font-family="Times New Roman,serif" font-size="14.00">[24..28)</text>
<text text-anchor="middle" x="357.09" y="-316.22" font-family="Times New Roman,serif" font-size="14.00">Count: 995</text>
<text text-anchor="middle" x="357.09" y="-301.22" font-family="Times New Roman,serif" font-size="14.00">Normalized count: 199.00</text>
<text text-anchor="middle" x="357.09" y="-286.22" font-family="Times New Roman,serif" font-size="14.00">Samples weight: 0.00</text>
</g>
<!-- BB6 -->
<g id="node7" class="node">
<title>BB6</title>
<ellipse fill="none" stroke="black" cx="286.09" cy="-180.25" rx="132.46" ry="48.17"/>
<text text-anchor="middle" x="286.09" y="-199.05" font-family="Times New Roman,serif" font-size="14.00">[40..44)</text>
<text text-anchor="middle" x="286.09" y="-184.05" font-family="Times New Roman,serif" font-size="14.00">Count: 8071440</text>
<text text-anchor="middle" x="286.09" y="-169.05" font-family="Times New Roman,serif" font-size="14.00">Normalized count: 1614288.00</text>
<text text-anchor="middle" x="286.09" y="-154.05" font-family="Times New Roman,serif" font-size="14.00">Samples weight: 0.50</text>
</g>
<!-- BB4&#45;&gt;BB6 -->
<g id="edge6" class="edge">
<title>BB4&#45;&gt;BB6</title>
<path fill="none" stroke="black" d="M332.05,-265.52C326.92,-256.11 321.46,-246.11 316.17,-236.41"/>
<polygon fill="black" stroke="black" points="319.23,-234.71 311.37,-227.61 313.09,-238.06 319.23,-234.71"/>
</g>
<!-- BB5 -->
<g id="node6" class="node">
<title>BB5</title>
<ellipse fill="none" stroke="black" cx="286.09" cy="-48.08" rx="132.46" ry="48.17"/>
<text text-anchor="middle" x="286.09" y="-66.88" font-family="Times New Roman,serif" font-size="14.00">[28..40)</text>
<text text-anchor="middle" x="286.09" y="-51.88" font-family="Times New Roman,serif" font-size="14.00">Count: 8070445</text>
<text text-anchor="middle" x="286.09" y="-36.88" font-family="Times New Roman,serif" font-size="14.00">Normalized count: 1614089.00</text>
<text text-anchor="middle" x="286.09" y="-21.88" font-family="Times New Roman,serif" font-size="14.00">Samples weight: 0.50</text>
</g>
<!-- BB5&#45;&gt;BB6 -->
<g id="edge7" class="edge">
<title>BB5&#45;&gt;BB6</title>
<path fill="none" stroke="black" d="M292.6,-96.19C292.82,-104.45 292.89,-113.13 292.8,-121.64"/>
<polygon fill="black" stroke="black" points="289.29,-121.83 292.61,-131.89 296.29,-121.95 289.29,-121.83"/>
</g>
<!-- BB6&#45;&gt;BB5 -->
<g id="edge8" class="edge">
<title>BB6&#45;&gt;BB5</title>
<path fill="none" stroke="black" d="M279.56,-131.89C279.35,-123.62 279.29,-114.94 279.38,-106.43"/>
<polygon fill="black" stroke="black" points="282.88,-106.26 279.57,-96.19 275.88,-106.12 282.88,-106.26"/>
</g>
<!-- BB6&#45;&gt;BB7 -->
<g id="edge9" class="edge">
<title>BB6&#45;&gt;BB7</title>
<path fill="none" stroke="black" d="M251.87,-227.03C244.97,-238.63 238.72,-251.47 235.09,-264.33 223.47,-305.46 215.11,-322.72 235.09,-360.5 243.88,-377.13 257.66,-391.05 272.85,-402.45"/>
<polygon fill="black" stroke="black" points="271.23,-405.6 281.41,-408.53 275.28,-399.89 271.23,-405.6"/>
</g>
<!-- BB7&#45;&gt;BB4 -->
<g id="edge10" class="edge">
<title>BB7&#45;&gt;BB4</title>
<path fill="none" stroke="black" d="M357.09,-396.22C357.09,-387.95 357.09,-379.27 357.09,-370.77"/>
<polygon fill="black" stroke="black" points="360.59,-370.52 357.09,-360.52 353.59,-370.52 360.59,-370.52"/>
</g>
<!-- BB8 -->
<g id="node9" class="node">
<title>BB8</title>
<ellipse fill="none" stroke="black" cx="591.09" cy="-312.42" rx="103.48" ry="48.17"/>
<text text-anchor="middle" x="591.09" y="-331.22" font-family="Times New Roman,serif" font-size="14.00">[4d..4e)</text>
<text text-anchor="middle" x="591.09" y="-316.22" font-family="Times New Roman,serif" font-size="14.00">Count: 5</text>
<text text-anchor="middle" x="591.09" y="-301.22" font-family="Times New Roman,serif" font-size="14.00">Normalized count: 1.00</text>
<text text-anchor="middle" x="591.09" y="-286.22" font-family="Times New Roman,serif" font-size="14.00">Samples weight: 0.00</text>
</g>
<!-- BB7&#45;&gt;BB8 -->
<g id="edge11" class="edge">
<title>BB7&#45;&gt;BB8</title>
<path fill="none" stroke="black" d="M424.77,-405.93C453.52,-389.94 487.12,-371.25 516.58,-354.86"/>
<polygon fill="black" stroke="black" points="518.53,-357.78 525.57,-349.86 515.13,-351.66 518.53,-357.78"/>
</g>
</g>
</svg>
