<?xml version="1.0" encoding="UTF-8" standalone="no"?>
<!DOCTYPE svg PUBLIC "-//W3C//DTD SVG 1.1//EN"
 "http://www.w3.org/Graphics/SVG/1.1/DTD/svg11.dtd">
<!-- Generated by graphviz version 2.47.0 (20210316.0004)
 -->
<!-- Title: G Pages: 1 -->
<svg width="722pt" height="527pt"
 viewBox="0.00 0.00 721.57 526.77" xmlns="http://www.w3.org/2000/svg" xmlns:xlink="http://www.w3.org/1999/xlink">
<g id="graph0" class="graph" transform="scale(1 1) rotate(0) translate(4 522.77)">
<title>G</title>
<polygon fill="white" stroke="transparent" points="-4,4 -4,-522.77 717.57,-522.77 717.57,4 -4,4"/>
<!-- BB0 -->
<g id="node1" class="node">
<title>BB0</title>
<ellipse fill="none" stroke="black" cx="120.21" cy="-481.29" rx="105.22" ry="37.45"/>
<text text-anchor="middle" x="120.21" y="-492.59" font-family="Times New Roman,serif" font-size="14.00">[0..6)</text>
<text text-anchor="middle" x="120.21" y="-477.59" font-family="Times New Roman,serif" font-size="14.00">Normalized Count: 1.00</text>
<text text-anchor="middle" x="120.21" y="-462.59" font-family="Times New Roman,serif" font-size="14.00">Samples weight: 0.00</text>
</g>
<!-- BB2 -->
<g id="node3" class="node">
<title>BB2</title>
<ellipse fill="none" stroke="black" cx="120.21" cy="-370.34" rx="120.42" ry="37.45"/>
<text text-anchor="middle" x="120.21" y="-381.64" font-family="Times New Roman,serif" font-size="14.00">[12..16)</text>
<text text-anchor="middle" x="120.21" y="-366.64" font-family="Times New Roman,serif" font-size="14.00">Normalized Count: 4056.00</text>
<text text-anchor="middle" x="120.21" y="-351.64" font-family="Times New Roman,serif" font-size="14.00">Samples weight: 0.17</text>
</g>
<!-- BB0&#45;&gt;BB2 -->
<g id="edge1" class="edge">
<title>BB0&#45;&gt;BB2</title>
<path fill="none" stroke="black" d="M120.21,-443.71C120.21,-435.53 120.21,-426.75 120.21,-418.23"/>
<polygon fill="black" stroke="black" points="123.71,-418.01 120.21,-408.01 116.71,-418.01 123.71,-418.01"/>
</g>
<!-- BB1 -->
<g id="node2" class="node">
<title>BB1</title>
<ellipse fill="none" stroke="black" cx="120.21" cy="-259.38" rx="120.42" ry="37.45"/>
<text text-anchor="middle" x="120.21" y="-270.68" font-family="Times New Roman,serif" font-size="14.00">[6..12)</text>
<text text-anchor="middle" x="120.21" y="-255.68" font-family="Times New Roman,serif" font-size="14.00">Normalized Count: 4055.00</text>
<text text-anchor="middle" x="120.21" y="-240.68" font-family="Times New Roman,serif" font-size="14.00">Samples weight: 0.17</text>
</g>
<!-- BB1&#45;&gt;BB2 -->
<g id="edge2" class="edge">
<title>BB1&#45;&gt;BB2</title>
<path fill="none" stroke="black" d="M126.63,-297.06C126.94,-305.23 127.03,-314.02 126.9,-322.54"/>
<polygon fill="black" stroke="black" points="123.39,-322.66 126.62,-332.75 130.39,-322.85 123.39,-322.66"/>
</g>
<!-- BB2&#45;&gt;BB1 -->
<g id="edge3" class="edge">
<title>BB2&#45;&gt;BB1</title>
<path fill="none" stroke="black" d="M113.79,-332.75C113.48,-324.58 113.38,-315.8 113.52,-307.27"/>
<polygon fill="black" stroke="black" points="117.02,-307.15 113.79,-297.06 110.02,-306.96 117.02,-307.15"/>
</g>
<!-- BB3 -->
<g id="node4" class="node">
<title>BB3</title>
<ellipse fill="none" stroke="black" cx="364.21" cy="-259.38" rx="105.22" ry="37.45"/>
<text text-anchor="middle" x="364.21" y="-270.68" font-family="Times New Roman,serif" font-size="14.00">[16..1a)</text>
<text text-anchor="middle" x="364.21" y="-255.68" font-family="Times New Roman,serif" font-size="14.00">Normalized Count: 1.00</text>
<text text-anchor="middle" x="364.21" y="-240.68" font-family="Times New Roman,serif" font-size="14.00">Samples weight: 0.00</text>
</g>
<!-- BB2&#45;&gt;BB3 -->
<g id="edge4" class="edge">
<title>BB2&#45;&gt;BB3</title>
<path fill="none" stroke="black" d="M187.53,-339.28C219.37,-325.06 257.47,-308.04 290.13,-293.46"/>
<polygon fill="black" stroke="black" points="291.93,-296.49 299.63,-289.22 289.07,-290.1 291.93,-296.49"/>
</g>
<!-- BB5 -->
<g id="node6" class="node">
<title>BB5</title>
<ellipse fill="none" stroke="black" cx="364.21" cy="-148.43" rx="120.42" ry="37.45"/>
<text text-anchor="middle" x="364.21" y="-159.73" font-family="Times New Roman,serif" font-size="14.00">[34..38)</text>
<text text-anchor="middle" x="364.21" y="-144.73" font-family="Times New Roman,serif" font-size="14.00">Normalized Count: 8111.00</text>
<text text-anchor="middle" x="364.21" y="-129.73" font-family="Times New Roman,serif" font-size="14.00">Samples weight: 0.33</text>
</g>
<!-- BB3&#45;&gt;BB5 -->
<g id="edge5" class="edge">
<title>BB3&#45;&gt;BB5</title>
<path fill="none" stroke="black" d="M364.21,-221.8C364.21,-213.63 364.21,-204.85 364.21,-196.32"/>
<polygon fill="black" stroke="black" points="367.71,-196.1 364.21,-186.1 360.71,-196.1 367.71,-196.1"/>
</g>
<!-- BB4 -->
<g id="node5" class="node">
<title>BB4</title>
<ellipse fill="none" stroke="black" cx="364.21" cy="-37.48" rx="120.42" ry="37.45"/>
<text text-anchor="middle" x="364.21" y="-48.78" font-family="Times New Roman,serif" font-size="14.00">[1a..34)</text>
<text text-anchor="middle" x="364.21" y="-33.78" font-family="Times New Roman,serif" font-size="14.00">Normalized Count: 8110.00</text>
<text text-anchor="middle" x="364.21" y="-18.78" font-family="Times New Roman,serif" font-size="14.00">Samples weight: 0.33</text>
</g>
<!-- BB4&#45;&gt;BB5 -->
<g id="edge6" class="edge">
<title>BB4&#45;&gt;BB5</title>
<path fill="none" stroke="black" d="M370.63,-75.15C370.94,-83.33 371.03,-92.11 370.9,-100.63"/>
<polygon fill="black" stroke="black" points="367.39,-100.76 370.62,-110.85 374.39,-100.94 367.39,-100.76"/>
</g>
<!-- BB5&#45;&gt;BB4 -->
<g id="edge7" class="edge">
<title>BB5&#45;&gt;BB4</title>
<path fill="none" stroke="black" d="M357.79,-110.85C357.48,-102.67 357.38,-93.89 357.52,-85.37"/>
<polygon fill="black" stroke="black" points="361.02,-85.24 357.79,-75.15 354.02,-85.05 361.02,-85.24"/>
</g>
<!-- BB6 -->
<g id="node7" class="node">
<title>BB6</title>
<ellipse fill="none" stroke="black" cx="608.21" cy="-37.48" rx="105.22" ry="37.45"/>
<text text-anchor="middle" x="608.21" y="-48.78" font-family="Times New Roman,serif" font-size="14.00">[38..39)</text>
<text text-anchor="middle" x="608.21" y="-33.78" font-family="Times New Roman,serif" font-size="14.00">Normalized Count: 1.00</text>
<text text-anchor="middle" x="608.21" y="-18.78" font-family="Times New Roman,serif" font-size="14.00">Samples weight: 0.00</text>
</g>
<!-- BB5&#45;&gt;BB6 -->
<g id="edge8" class="edge">
<title>BB5&#45;&gt;BB6</title>
<path fill="none" stroke="black" d="M431.53,-117.37C463.37,-103.15 501.47,-86.14 534.13,-71.55"/>
<polygon fill="black" stroke="black" points="535.93,-74.59 543.63,-67.31 533.07,-68.19 535.93,-74.59"/>
</g>
</g>
</svg>
