<?xml version="1.0" encoding="UTF-8" standalone="no"?>
<!DOCTYPE svg PUBLIC "-//W3C//DTD SVG 1.1//EN"
 "http://www.w3.org/Graphics/SVG/1.1/DTD/svg11.dtd">
<!-- Generated by graphviz version 2.47.0 (20210316.0004)
 -->
<!-- Title: G Pages: 1 -->
<svg width="698pt" height="897pt"
 viewBox="0.00 0.00 698.50 897.17" xmlns="http://www.w3.org/2000/svg" xmlns:xlink="http://www.w3.org/1999/xlink">
<g id="graph0" class="graph" transform="scale(1 1) rotate(0) translate(4 893.17)">
<title>G</title>
<polygon fill="white" stroke="transparent" points="-4,4 -4,-893.17 694.5,-893.17 694.5,4 -4,4"/>
<!-- BB0 -->
<g id="node1" class="node">
<title>BB0</title>
<ellipse fill="none" stroke="black" cx="113.84" cy="-841.08" rx="104.8" ry="48.17"/>
<text text-anchor="middle" x="113.84" y="-859.88" font-family="Times New Roman,serif" font-size="14.00">[0..c)</text>
<text text-anchor="middle" x="113.84" y="-844.88" font-family="Times New Roman,serif" font-size="14.00">Count: 0</text>
<text text-anchor="middle" x="113.84" y="-829.88" font-family="Times New Roman,serif" font-size="14.00">Normalized count: NaN</text>
<text text-anchor="middle" x="113.84" y="-814.88" font-family="Times New Roman,serif" font-size="14.00">Samples weight: 0.00</text>
</g>
<!-- BB2 -->
<g id="node3" class="node">
<title>BB2</title>
<ellipse fill="none" stroke="black" cx="113.84" cy="-708.92" rx="104.8" ry="48.17"/>
<text text-anchor="middle" x="113.84" y="-727.72" font-family="Times New Roman,serif" font-size="14.00">[1b..1f)</text>
<text text-anchor="middle" x="113.84" y="-712.72" font-family="Times New Roman,serif" font-size="14.00">Count: 0</text>
<text text-anchor="middle" x="113.84" y="-697.72" font-family="Times New Roman,serif" font-size="14.00">Normalized count: NaN</text>
<text text-anchor="middle" x="113.84" y="-682.72" font-family="Times New Roman,serif" font-size="14.00">Samples weight: 0.00</text>
</g>
<!-- BB0&#45;&gt;BB2 -->
<g id="edge1" class="edge">
<title>BB0&#45;&gt;BB2</title>
<path fill="none" stroke="black" d="M113.84,-792.72C113.84,-784.45 113.84,-775.77 113.84,-767.27"/>
<polygon fill="black" stroke="black" points="117.34,-767.02 113.84,-757.02 110.34,-767.02 117.34,-767.02"/>
</g>
<!-- BB1 -->
<g id="node2" class="node">
<title>BB1</title>
<ellipse fill="none" stroke="black" cx="113.84" cy="-576.75" rx="113.69" ry="48.17"/>
<text text-anchor="middle" x="113.84" y="-595.55" font-family="Times New Roman,serif" font-size="14.00">[c..1b)</text>
<text text-anchor="middle" x="113.84" y="-580.55" font-family="Times New Roman,serif" font-size="14.00">Count: 1</text>
<text text-anchor="middle" x="113.84" y="-565.55" font-family="Times New Roman,serif" font-size="14.00">Normalized count: Infinity</text>
<text text-anchor="middle" x="113.84" y="-550.55" font-family="Times New Roman,serif" font-size="14.00">Samples weight: 0.02</text>
</g>
<!-- BB1&#45;&gt;BB2 -->
<g id="edge2" class="edge">
<title>BB1&#45;&gt;BB2</title>
<path fill="none" stroke="black" d="M120.37,-625.11C120.58,-633.41 120.65,-642.12 120.55,-650.65"/>
<polygon fill="black" stroke="black" points="117.05,-650.86 120.36,-660.92 124.05,-650.99 117.05,-650.86"/>
</g>
<!-- BB2&#45;&gt;BB1 -->
<g id="edge3" class="edge">
<title>BB2&#45;&gt;BB1</title>
<path fill="none" stroke="black" d="M107.33,-660.92C107.11,-652.55 107.04,-643.74 107.14,-635.11"/>
<polygon fill="black" stroke="black" points="110.64,-635.17 107.32,-625.11 103.64,-635.04 110.64,-635.17"/>
</g>
<!-- BB3 -->
<g id="node4" class="node">
<title>BB3</title>
<ellipse fill="none" stroke="black" cx="349.84" cy="-576.75" rx="104.8" ry="48.17"/>
<text text-anchor="middle" x="349.84" y="-595.55" font-family="Times New Roman,serif" font-size="14.00">[1f..23)</text>
<text text-anchor="middle" x="349.84" y="-580.55" font-family="Times New Roman,serif" font-size="14.00">Count: 0</text>
<text text-anchor="middle" x="349.84" y="-565.55" font-family="Times New Roman,serif" font-size="14.00">Normalized count: NaN</text>
<text text-anchor="middle" x="349.84" y="-550.55" font-family="Times New Roman,serif" font-size="14.00">Samples weight: 0.00</text>
</g>
<!-- BB2&#45;&gt;BB3 -->
<g id="edge4" class="edge">
<title>BB2&#45;&gt;BB3</title>
<path fill="none" stroke="black" d="M179.9,-671.48C209.44,-655.19 244.4,-635.91 274.91,-619.08"/>
<polygon fill="black" stroke="black" points="276.74,-622.07 283.81,-614.17 273.36,-615.94 276.74,-622.07"/>
</g>
<!-- BB8 -->
<g id="node9" class="node">
<title>BB8</title>
<ellipse fill="none" stroke="black" cx="349.84" cy="-444.58" rx="104.8" ry="48.17"/>
<text text-anchor="middle" x="349.84" y="-463.38" font-family="Times New Roman,serif" font-size="14.00">[3d..41)</text>
<text text-anchor="middle" x="349.84" y="-448.38" font-family="Times New Roman,serif" font-size="14.00">Count: 0</text>
<text text-anchor="middle" x="349.84" y="-433.38" font-family="Times New Roman,serif" font-size="14.00">Normalized count: NaN</text>
<text text-anchor="middle" x="349.84" y="-418.38" font-family="Times New Roman,serif" font-size="14.00">Samples weight: 0.00</text>
</g>
<!-- BB3&#45;&gt;BB8 -->
<g id="edge5" class="edge">
<title>BB3&#45;&gt;BB8</title>
<path fill="none" stroke="black" d="M349.84,-528.39C349.84,-520.12 349.84,-511.44 349.84,-502.93"/>
<polygon fill="black" stroke="black" points="353.34,-502.69 349.84,-492.69 346.34,-502.69 353.34,-502.69"/>
</g>
<!-- BB4 -->
<g id="node5" class="node">
<title>BB4</title>
<ellipse fill="none" stroke="black" cx="349.84" cy="-312.42" rx="113.69" ry="48.17"/>
<text text-anchor="middle" x="349.84" y="-331.22" font-family="Times New Roman,serif" font-size="14.00">[23..27)</text>
<text text-anchor="middle" x="349.84" y="-316.22" font-family="Times New Roman,serif" font-size="14.00">Count: 2</text>
<text text-anchor="middle" x="349.84" y="-301.22" font-family="Times New Roman,serif" font-size="14.00">Normalized count: Infinity</text>
<text text-anchor="middle" x="349.84" y="-286.22" font-family="Times New Roman,serif" font-size="14.00">Samples weight: 0.04</text>
</g>
<!-- BB6 -->
<g id="node7" class="node">
<title>BB6</title>
<ellipse fill="none" stroke="black" cx="372.84" cy="-180.25" rx="113.69" ry="48.17"/>
<text text-anchor="middle" x="372.84" y="-199.05" font-family="Times New Roman,serif" font-size="14.00">[35..39)</text>
<text text-anchor="middle" x="372.84" y="-184.05" font-family="Times New Roman,serif" font-size="14.00">Count: 4</text>
<text text-anchor="middle" x="372.84" y="-169.05" font-family="Times New Roman,serif" font-size="14.00">Normalized count: Infinity</text>
<text text-anchor="middle" x="372.84" y="-154.05" font-family="Times New Roman,serif" font-size="14.00">Samples weight: 0.08</text>
</g>
<!-- BB4&#45;&gt;BB6 -->
<g id="edge6" class="edge">
<title>BB4&#45;&gt;BB6</title>
<path fill="none" stroke="black" d="M358.15,-264.42C359.63,-256.05 361.18,-247.24 362.71,-238.62"/>
<polygon fill="black" stroke="black" points="366.18,-239.07 364.48,-228.61 359.29,-237.85 366.18,-239.07"/>
</g>
<!-- BB5 -->
<g id="node6" class="node">
<title>BB5</title>
<ellipse fill="none" stroke="black" cx="396.84" cy="-48.08" rx="113.69" ry="48.17"/>
<text text-anchor="middle" x="396.84" y="-66.88" font-family="Times New Roman,serif" font-size="14.00">[27..35)</text>
<text text-anchor="middle" x="396.84" y="-51.88" font-family="Times New Roman,serif" font-size="14.00">Count: 43</text>
<text text-anchor="middle" x="396.84" y="-36.88" font-family="Times New Roman,serif" font-size="14.00">Normalized count: Infinity</text>
<text text-anchor="middle" x="396.84" y="-21.88" font-family="Times New Roman,serif" font-size="14.00">Samples weight: 0.86</text>
</g>
<!-- BB5&#45;&gt;BB6 -->
<g id="edge7" class="edge">
<title>BB5&#45;&gt;BB6</title>
<path fill="none" stroke="black" d="M394.63,-96.44C393.31,-104.83 391.74,-113.64 390.05,-122.26"/>
<polygon fill="black" stroke="black" points="386.59,-121.76 388.02,-132.26 393.44,-123.16 386.59,-121.76"/>
</g>
<!-- BB6&#45;&gt;BB5 -->
<g id="edge8" class="edge">
<title>BB6&#45;&gt;BB5</title>
<path fill="none" stroke="black" d="M375.05,-131.89C376.39,-123.42 377.97,-114.53 379.68,-105.83"/>
<polygon fill="black" stroke="black" points="383.17,-106.25 381.73,-95.76 376.31,-104.86 383.17,-106.25"/>
</g>
<!-- BB7 -->
<g id="node8" class="node">
<title>BB7</title>
<ellipse fill="none" stroke="black" cx="160.84" cy="-48.08" rx="104.8" ry="48.17"/>
<text text-anchor="middle" x="160.84" y="-66.88" font-family="Times New Roman,serif" font-size="14.00">[39..3d)</text>
<text text-anchor="middle" x="160.84" y="-51.88" font-family="Times New Roman,serif" font-size="14.00">Count: 0</text>
<text text-anchor="middle" x="160.84" y="-36.88" font-family="Times New Roman,serif" font-size="14.00">Normalized count: NaN</text>
<text text-anchor="middle" x="160.84" y="-21.88" font-family="Times New Roman,serif" font-size="14.00">Samples weight: 0.00</text>
</g>
<!-- BB6&#45;&gt;BB7 -->
<g id="edge9" class="edge">
<title>BB6&#45;&gt;BB7</title>
<path fill="none" stroke="black" d="M309.24,-140.2C284.69,-125.12 256.51,-107.82 231.35,-92.37"/>
<polygon fill="black" stroke="black" points="232.94,-89.24 222.58,-86.99 229.27,-95.21 232.94,-89.24"/>
</g>
<!-- BB7&#45;&gt;BB8 -->
<g id="edge10" class="edge">
<title>BB7&#45;&gt;BB8</title>
<path fill="none" stroke="black" d="M160.2,-96.29C161.53,-161.22 172.12,-279.25 226.84,-360.5 238.06,-377.15 253.85,-391.37 270.38,-403.08"/>
<polygon fill="black" stroke="black" points="268.83,-406.26 279.07,-408.98 272.76,-400.47 268.83,-406.26"/>
</g>
<!-- BB8&#45;&gt;BB4 -->
<g id="edge11" class="edge">
<title>BB8&#45;&gt;BB4</title>
<path fill="none" stroke="black" d="M349.84,-396.22C349.84,-387.95 349.84,-379.27 349.84,-370.77"/>
<polygon fill="black" stroke="black" points="353.34,-370.52 349.84,-360.52 346.34,-370.52 353.34,-370.52"/>
</g>
<!-- BB9 -->
<g id="node10" class="node">
<title>BB9</title>
<ellipse fill="none" stroke="black" cx="585.84" cy="-312.42" rx="104.8" ry="48.17"/>
<text text-anchor="middle" x="585.84" y="-331.22" font-family="Times New Roman,serif" font-size="14.00">[41..42)</text>
<text text-anchor="middle" x="585.84" y="-316.22" font-family="Times New Roman,serif" font-size="14.00">Count: 0</text>
<text text-anchor="middle" x="585.84" y="-301.22" font-family="Times New Roman,serif" font-size="14.00">Normalized count: NaN</text>
<text text-anchor="middle" x="585.84" y="-286.22" font-family="Times New Roman,serif" font-size="14.00">Samples weight: 0.00</text>
</g>
<!-- BB8&#45;&gt;BB9 -->
<g id="edge12" class="edge">
<title>BB8&#45;&gt;BB9</title>
<path fill="none" stroke="black" d="M415.9,-407.15C445.44,-390.86 480.4,-371.57 510.91,-354.75"/>
<polygon fill="black" stroke="black" points="512.74,-357.73 519.81,-349.84 509.36,-351.6 512.74,-357.73"/>
</g>
</g>
</svg>
