<?xml version="1.0" encoding="UTF-8" standalone="no"?>
<!DOCTYPE svg PUBLIC "-//W3C//DTD SVG 1.1//EN"
 "http://www.w3.org/Graphics/SVG/1.1/DTD/svg11.dtd">
<!-- Generated by graphviz version 2.47.0 (20210316.0004)
 -->
<!-- Title: G Pages: 1 -->
<svg width="889pt" height="633pt"
 viewBox="0.00 0.00 888.69 632.83" xmlns="http://www.w3.org/2000/svg" xmlns:xlink="http://www.w3.org/1999/xlink">
<g id="graph0" class="graph" transform="scale(1 1) rotate(0) translate(4 628.83)">
<title>G</title>
<polygon fill="white" stroke="transparent" points="-4,4 -4,-628.83 884.69,-628.83 884.69,4 -4,4"/>
<!-- BB0 -->
<g id="node1" class="node">
<title>BB0</title>
<ellipse fill="none" stroke="black" cx="553.84" cy="-576.75" rx="104.8" ry="48.17"/>
<text text-anchor="middle" x="553.84" y="-595.55" font-family="Times New Roman,serif" font-size="14.00">[0..2)</text>
<text text-anchor="middle" x="553.84" y="-580.55" font-family="Times New Roman,serif" font-size="14.00">Count: 0</text>
<text text-anchor="middle" x="553.84" y="-565.55" font-family="Times New Roman,serif" font-size="14.00">Normalized count: NaN</text>
<text text-anchor="middle" x="553.84" y="-550.55" font-family="Times New Roman,serif" font-size="14.00">Samples weight: 0.00</text>
</g>
<!-- BB7 -->
<g id="node8" class="node">
<title>BB7</title>
<ellipse fill="none" stroke="black" cx="553.84" cy="-444.58" rx="113.69" ry="48.17"/>
<text text-anchor="middle" x="553.84" y="-463.38" font-family="Times New Roman,serif" font-size="14.00">[38..3e)</text>
<text text-anchor="middle" x="553.84" y="-448.38" font-family="Times New Roman,serif" font-size="14.00">Count: 245447</text>
<text text-anchor="middle" x="553.84" y="-433.38" font-family="Times New Roman,serif" font-size="14.00">Normalized count: Infinity</text>
<text text-anchor="middle" x="553.84" y="-418.38" font-family="Times New Roman,serif" font-size="14.00">Samples weight: 0.20</text>
</g>
<!-- BB0&#45;&gt;BB7 -->
<g id="edge1" class="edge">
<title>BB0&#45;&gt;BB7</title>
<path fill="none" stroke="black" d="M553.84,-528.39C553.84,-520.12 553.84,-511.44 553.84,-502.93"/>
<polygon fill="black" stroke="black" points="557.34,-502.69 553.84,-492.69 550.34,-502.69 557.34,-502.69"/>
</g>
<!-- BB1 -->
<g id="node2" class="node">
<title>BB1</title>
<ellipse fill="none" stroke="black" cx="482.84" cy="-312.42" rx="113.69" ry="48.17"/>
<text text-anchor="middle" x="482.84" y="-331.22" font-family="Times New Roman,serif" font-size="14.00">[2..a)</text>
<text text-anchor="middle" x="482.84" y="-316.22" font-family="Times New Roman,serif" font-size="14.00">Count: 210432</text>
<text text-anchor="middle" x="482.84" y="-301.22" font-family="Times New Roman,serif" font-size="14.00">Normalized count: Infinity</text>
<text text-anchor="middle" x="482.84" y="-286.22" font-family="Times New Roman,serif" font-size="14.00">Samples weight: 0.17</text>
</g>
<!-- BB2 -->
<g id="node3" class="node">
<title>BB2</title>
<ellipse fill="none" stroke="black" cx="236.84" cy="-180.25" rx="113.69" ry="48.17"/>
<text text-anchor="middle" x="236.84" y="-199.05" font-family="Times New Roman,serif" font-size="14.00">[a..14)</text>
<text text-anchor="middle" x="236.84" y="-184.05" font-family="Times New Roman,serif" font-size="14.00">Count: 210420</text>
<text text-anchor="middle" x="236.84" y="-169.05" font-family="Times New Roman,serif" font-size="14.00">Normalized count: Infinity</text>
<text text-anchor="middle" x="236.84" y="-154.05" font-family="Times New Roman,serif" font-size="14.00">Samples weight: 0.17</text>
</g>
<!-- BB1&#45;&gt;BB2 -->
<g id="edge3" class="edge">
<title>BB1&#45;&gt;BB2</title>
<path fill="none" stroke="black" d="M412.68,-274.29C382.56,-258.35 347.23,-239.66 316.17,-223.22"/>
<polygon fill="black" stroke="black" points="317.58,-220.01 307.1,-218.43 314.3,-226.2 317.58,-220.01"/>
</g>
<!-- BB4 -->
<g id="node5" class="node">
<title>BB4</title>
<ellipse fill="none" stroke="black" cx="482.84" cy="-180.25" rx="113.69" ry="48.17"/>
<text text-anchor="middle" x="482.84" y="-199.05" font-family="Times New Roman,serif" font-size="14.00">[18..20)</text>
<text text-anchor="middle" x="482.84" y="-184.05" font-family="Times New Roman,serif" font-size="14.00">Count: 209601</text>
<text text-anchor="middle" x="482.84" y="-169.05" font-family="Times New Roman,serif" font-size="14.00">Normalized count: Infinity</text>
<text text-anchor="middle" x="482.84" y="-154.05" font-family="Times New Roman,serif" font-size="14.00">Samples weight: 0.17</text>
</g>
<!-- BB1&#45;&gt;BB4 -->
<g id="edge2" class="edge">
<title>BB1&#45;&gt;BB4</title>
<path fill="none" stroke="black" d="M482.84,-264.05C482.84,-255.79 482.84,-247.1 482.84,-238.6"/>
<polygon fill="black" stroke="black" points="486.34,-238.36 482.84,-228.36 479.34,-238.36 486.34,-238.36"/>
</g>
<!-- BB3 -->
<g id="node4" class="node">
<title>BB3</title>
<ellipse fill="none" stroke="black" cx="368.84" cy="-48.08" rx="113.69" ry="48.17"/>
<text text-anchor="middle" x="368.84" y="-66.88" font-family="Times New Roman,serif" font-size="14.00">[14..18)</text>
<text text-anchor="middle" x="368.84" y="-51.88" font-family="Times New Roman,serif" font-size="14.00">Count: 111964</text>
<text text-anchor="middle" x="368.84" y="-36.88" font-family="Times New Roman,serif" font-size="14.00">Normalized count: Infinity</text>
<text text-anchor="middle" x="368.84" y="-21.88" font-family="Times New Roman,serif" font-size="14.00">Samples weight: 0.09</text>
</g>
<!-- BB2&#45;&gt;BB3 -->
<g id="edge5" class="edge">
<title>BB2&#45;&gt;BB3</title>
<path fill="none" stroke="black" d="M281.17,-135.54C292.83,-124.05 305.5,-111.55 317.5,-99.72"/>
<polygon fill="black" stroke="black" points="320.2,-101.97 324.86,-92.45 315.29,-96.98 320.2,-101.97"/>
</g>
<!-- BB2&#45;&gt;BB4 -->
<g id="edge4" class="edge">
<title>BB2&#45;&gt;BB4</title>
<path fill="none" stroke="black" d="M350.72,-180.25C353.35,-180.25 355.98,-180.25 358.62,-180.25"/>
<polygon fill="black" stroke="black" points="358.78,-183.75 368.78,-180.25 358.78,-176.75 358.78,-183.75"/>
</g>
<!-- BB3&#45;&gt;BB4 -->
<g id="edge6" class="edge">
<title>BB3&#45;&gt;BB4</title>
<path fill="none" stroke="black" d="M407.58,-93.31C417.11,-104.2 427.4,-115.94 437.22,-127.16"/>
<polygon fill="black" stroke="black" points="434.71,-129.6 443.93,-134.82 439.98,-124.99 434.71,-129.6"/>
</g>
<!-- BB5 -->
<g id="node6" class="node">
<title>BB5</title>
<ellipse fill="none" stroke="black" cx="113.84" cy="-48.08" rx="113.69" ry="48.17"/>
<text text-anchor="middle" x="113.84" y="-66.88" font-family="Times New Roman,serif" font-size="14.00">[20..33)</text>
<text text-anchor="middle" x="113.84" y="-51.88" font-family="Times New Roman,serif" font-size="14.00">Count: 205463</text>
<text text-anchor="middle" x="113.84" y="-36.88" font-family="Times New Roman,serif" font-size="14.00">Normalized count: Infinity</text>
<text text-anchor="middle" x="113.84" y="-21.88" font-family="Times New Roman,serif" font-size="14.00">Samples weight: 0.17</text>
</g>
<!-- BB4&#45;&gt;BB5 -->
<g id="edge8" class="edge">
<title>BB4&#45;&gt;BB5</title>
<path fill="none" stroke="black" d="M400.39,-146.91C386.89,-141.84 373.01,-136.76 359.84,-132.17 309.68,-114.66 296.21,-113.09 245.84,-96.17 233.81,-92.12 221.19,-87.77 208.73,-83.4"/>
<polygon fill="black" stroke="black" points="209.84,-80.08 199.25,-80.06 207.52,-86.68 209.84,-80.08"/>
</g>
<!-- BB6 -->
<g id="node7" class="node">
<title>BB6</title>
<ellipse fill="none" stroke="black" cx="619.84" cy="-48.08" rx="113.69" ry="48.17"/>
<text text-anchor="middle" x="619.84" y="-66.88" font-family="Times New Roman,serif" font-size="14.00">[33..38)</text>
<text text-anchor="middle" x="619.84" y="-51.88" font-family="Times New Roman,serif" font-size="14.00">Count: 4103</text>
<text text-anchor="middle" x="619.84" y="-36.88" font-family="Times New Roman,serif" font-size="14.00">Normalized count: Infinity</text>
<text text-anchor="middle" x="619.84" y="-21.88" font-family="Times New Roman,serif" font-size="14.00">Samples weight: 0.00</text>
</g>
<!-- BB4&#45;&gt;BB6 -->
<g id="edge7" class="edge">
<title>BB4&#45;&gt;BB6</title>
<path fill="none" stroke="black" d="M528.46,-135.91C540.83,-124.16 554.31,-111.35 567.04,-99.26"/>
<polygon fill="black" stroke="black" points="569.59,-101.66 574.42,-92.24 564.76,-96.59 569.59,-101.66"/>
</g>
<!-- BB5&#45;&gt;BB7 -->
<g id="edge9" class="edge">
<title>BB5&#45;&gt;BB7</title>
<path fill="none" stroke="black" d="M101.37,-95.99C93.95,-134.34 90.05,-188.54 113.84,-228.33 182.51,-343.17 332.97,-398.16 438.75,-423.48"/>
<polygon fill="black" stroke="black" points="437.99,-426.9 448.53,-425.77 439.59,-420.08 437.99,-426.9"/>
</g>
<!-- BB6&#45;&gt;BB7 -->
<g id="edge10" class="edge">
<title>BB6&#45;&gt;BB7</title>
<path fill="none" stroke="black" d="M625.03,-96.26C630.24,-158.4 633.94,-270.34 605.84,-360.5 602.74,-370.47 598.13,-380.44 592.92,-389.83"/>
<polygon fill="black" stroke="black" points="589.8,-388.24 587.77,-398.64 595.84,-391.77 589.8,-388.24"/>
</g>
<!-- BB7&#45;&gt;BB1 -->
<g id="edge11" class="edge">
<title>BB7&#45;&gt;BB1</title>
<path fill="none" stroke="black" d="M528.61,-397.32C523.54,-388.02 518.16,-378.16 512.94,-368.58"/>
<polygon fill="black" stroke="black" points="515.86,-366.63 507.99,-359.53 509.71,-369.98 515.86,-366.63"/>
</g>
<!-- BB8 -->
<g id="node9" class="node">
<title>BB8</title>
<ellipse fill="none" stroke="black" cx="766.84" cy="-312.42" rx="113.69" ry="48.17"/>
<text text-anchor="middle" x="766.84" y="-331.22" font-family="Times New Roman,serif" font-size="14.00">[3e..3f)</text>
<text text-anchor="middle" x="766.84" y="-316.22" font-family="Times New Roman,serif" font-size="14.00">Count: 19538</text>
<text text-anchor="middle" x="766.84" y="-301.22" font-family="Times New Roman,serif" font-size="14.00">Normalized count: Infinity</text>
<text text-anchor="middle" x="766.84" y="-286.22" font-family="Times New Roman,serif" font-size="14.00">Samples weight: 0.02</text>
</g>
<!-- BB7&#45;&gt;BB8 -->
<g id="edge12" class="edge">
<title>BB7&#45;&gt;BB8</title>
<path fill="none" stroke="black" d="M617.46,-404.7C641.7,-389.9 669.49,-372.91 694.47,-357.64"/>
<polygon fill="black" stroke="black" points="696.48,-360.52 703.19,-352.32 692.83,-354.55 696.48,-360.52"/>
</g>
</g>
</svg>
