<?xml version="1.0" encoding="UTF-8" standalone="no"?>
<!DOCTYPE svg PUBLIC "-//W3C//DTD SVG 1.1//EN"
 "http://www.w3.org/Graphics/SVG/1.1/DTD/svg11.dtd">
<!-- Generated by graphviz version 2.47.0 (20210316.0004)
 -->
<!-- Title: G Pages: 1 -->
<svg width="836pt" height="527pt"
 viewBox="0.00 0.00 835.67 526.77" xmlns="http://www.w3.org/2000/svg" xmlns:xlink="http://www.w3.org/1999/xlink">
<g id="graph0" class="graph" transform="scale(1 1) rotate(0) translate(4 522.77)">
<title>G</title>
<polygon fill="white" stroke="transparent" points="-4,4 -4,-522.77 831.67,-522.77 831.67,4 -4,4"/>
<!-- BB0 -->
<g id="node1" class="node">
<title>BB0</title>
<ellipse fill="none" stroke="black" cx="522.31" cy="-481.29" rx="105.22" ry="37.45"/>
<text text-anchor="middle" x="522.31" y="-492.59" font-family="Times New Roman,serif" font-size="14.00">[0..2)</text>
<text text-anchor="middle" x="522.31" y="-477.59" font-family="Times New Roman,serif" font-size="14.00">Normalized Count: 1.00</text>
<text text-anchor="middle" x="522.31" y="-462.59" font-family="Times New Roman,serif" font-size="14.00">Samples weight: 0.03</text>
</g>
<!-- BB7 -->
<g id="node8" class="node">
<title>BB7</title>
<ellipse fill="none" stroke="black" cx="522.31" cy="-370.34" rx="105.22" ry="37.45"/>
<text text-anchor="middle" x="522.31" y="-381.64" font-family="Times New Roman,serif" font-size="14.00">[60..66)</text>
<text text-anchor="middle" x="522.31" y="-366.64" font-family="Times New Roman,serif" font-size="14.00">Normalized Count: 2.27</text>
<text text-anchor="middle" x="522.31" y="-351.64" font-family="Times New Roman,serif" font-size="14.00">Samples weight: 0.06</text>
</g>
<!-- BB0&#45;&gt;BB7 -->
<g id="edge1" class="edge">
<title>BB0&#45;&gt;BB7</title>
<path fill="none" stroke="black" d="M522.31,-443.71C522.31,-435.53 522.31,-426.75 522.31,-418.23"/>
<polygon fill="black" stroke="black" points="525.81,-418.01 522.31,-408.01 518.81,-418.01 525.81,-418.01"/>
</g>
<!-- BB1 -->
<g id="node2" class="node">
<title>BB1</title>
<ellipse fill="none" stroke="black" cx="456.31" cy="-259.38" rx="105.22" ry="37.45"/>
<text text-anchor="middle" x="456.31" y="-270.68" font-family="Times New Roman,serif" font-size="14.00">[2..a)</text>
<text text-anchor="middle" x="456.31" y="-255.68" font-family="Times New Roman,serif" font-size="14.00">Normalized Count: 3.73</text>
<text text-anchor="middle" x="456.31" y="-240.68" font-family="Times New Roman,serif" font-size="14.00">Samples weight: 0.09</text>
</g>
<!-- BB2 -->
<g id="node3" class="node">
<title>BB2</title>
<ellipse fill="none" stroke="black" cx="227.31" cy="-148.43" rx="105.22" ry="37.45"/>
<text text-anchor="middle" x="227.31" y="-159.73" font-family="Times New Roman,serif" font-size="14.00">[a..1e)</text>
<text text-anchor="middle" x="227.31" y="-144.73" font-family="Times New Roman,serif" font-size="14.00">Normalized Count: 7.36</text>
<text text-anchor="middle" x="227.31" y="-129.73" font-family="Times New Roman,serif" font-size="14.00">Samples weight: 0.19</text>
</g>
<!-- BB1&#45;&gt;BB2 -->
<g id="edge3" class="edge">
<title>BB1&#45;&gt;BB2</title>
<path fill="none" stroke="black" d="M394.34,-228.9C364.81,-214.85 329.33,-197.97 298.67,-183.38"/>
<polygon fill="black" stroke="black" points="299.86,-180.07 289.33,-178.94 296.86,-186.39 299.86,-180.07"/>
</g>
<!-- BB4 -->
<g id="node5" class="node">
<title>BB4</title>
<ellipse fill="none" stroke="black" cx="456.31" cy="-148.43" rx="105.22" ry="37.45"/>
<text text-anchor="middle" x="456.31" y="-159.73" font-family="Times New Roman,serif" font-size="14.00">[22..34)</text>
<text text-anchor="middle" x="456.31" y="-144.73" font-family="Times New Roman,serif" font-size="14.00">Normalized Count: 6.32</text>
<text text-anchor="middle" x="456.31" y="-129.73" font-family="Times New Roman,serif" font-size="14.00">Samples weight: 0.16</text>
</g>
<!-- BB1&#45;&gt;BB4 -->
<g id="edge2" class="edge">
<title>BB1&#45;&gt;BB4</title>
<path fill="none" stroke="black" d="M456.31,-221.8C456.31,-213.63 456.31,-204.85 456.31,-196.32"/>
<polygon fill="black" stroke="black" points="459.81,-196.1 456.31,-186.1 452.81,-196.1 459.81,-196.1"/>
</g>
<!-- BB3 -->
<g id="node4" class="node">
<title>BB3</title>
<ellipse fill="none" stroke="black" cx="352.31" cy="-37.48" rx="105.22" ry="37.45"/>
<text text-anchor="middle" x="352.31" y="-48.78" font-family="Times New Roman,serif" font-size="14.00">[1e..22)</text>
<text text-anchor="middle" x="352.31" y="-33.78" font-family="Times New Roman,serif" font-size="14.00">Normalized Count: 6.82</text>
<text text-anchor="middle" x="352.31" y="-18.78" font-family="Times New Roman,serif" font-size="14.00">Samples weight: 0.17</text>
</g>
<!-- BB2&#45;&gt;BB3 -->
<g id="edge5" class="edge">
<title>BB2&#45;&gt;BB3</title>
<path fill="none" stroke="black" d="M266.17,-113.55C278.76,-102.59 292.83,-90.32 305.91,-78.92"/>
<polygon fill="black" stroke="black" points="308.23,-81.54 313.47,-72.33 303.63,-76.26 308.23,-81.54"/>
</g>
<!-- BB2&#45;&gt;BB4 -->
<g id="edge4" class="edge">
<title>BB2&#45;&gt;BB4</title>
<path fill="none" stroke="black" d="M332.86,-148.43C335.47,-148.43 338.07,-148.43 340.67,-148.43"/>
<polygon fill="black" stroke="black" points="340.71,-151.93 350.71,-148.43 340.71,-144.93 340.71,-151.93"/>
</g>
<!-- BB3&#45;&gt;BB4 -->
<g id="edge6" class="edge">
<title>BB3&#45;&gt;BB4</title>
<path fill="none" stroke="black" d="M385.54,-73.29C395.21,-83.42 405.87,-94.59 415.93,-105.12"/>
<polygon fill="black" stroke="black" points="413.68,-107.84 423.12,-112.66 418.74,-103.01 413.68,-107.84"/>
</g>
<!-- BB5 -->
<g id="node6" class="node">
<title>BB5</title>
<ellipse fill="none" stroke="black" cx="110.31" cy="-37.48" rx="110.12" ry="37.45"/>
<text text-anchor="middle" x="110.31" y="-48.78" font-family="Times New Roman,serif" font-size="14.00">[34..5b)</text>
<text text-anchor="middle" x="110.31" y="-33.78" font-family="Times New Roman,serif" font-size="14.00">Normalized Count: 10.86</text>
<text text-anchor="middle" x="110.31" y="-18.78" font-family="Times New Roman,serif" font-size="14.00">Samples weight: 0.27</text>
</g>
<!-- BB4&#45;&gt;BB5 -->
<g id="edge8" class="edge">
<title>BB4&#45;&gt;BB5</title>
<path fill="none" stroke="black" d="M378.99,-122.87C366.4,-118.88 353.49,-114.8 341.31,-110.95 294.54,-96.2 242.42,-79.84 199.54,-66.4"/>
<polygon fill="black" stroke="black" points="200.56,-63.05 189.97,-63.4 198.47,-69.73 200.56,-63.05"/>
</g>
<!-- BB6 -->
<g id="node7" class="node">
<title>BB6</title>
<ellipse fill="none" stroke="black" cx="585.31" cy="-37.48" rx="105.22" ry="37.45"/>
<text text-anchor="middle" x="585.31" y="-48.78" font-family="Times New Roman,serif" font-size="14.00">[5b..60)</text>
<text text-anchor="middle" x="585.31" y="-33.78" font-family="Times New Roman,serif" font-size="14.00">Normalized Count: 1.32</text>
<text text-anchor="middle" x="585.31" y="-18.78" font-family="Times New Roman,serif" font-size="14.00">Samples weight: 0.03</text>
</g>
<!-- BB4&#45;&gt;BB6 -->
<g id="edge7" class="edge">
<title>BB4&#45;&gt;BB6</title>
<path fill="none" stroke="black" d="M496.42,-113.55C509.4,-102.59 523.93,-90.32 537.42,-78.92"/>
<polygon fill="black" stroke="black" points="539.84,-81.46 545.22,-72.33 535.33,-76.11 539.84,-81.46"/>
</g>
<!-- BB5&#45;&gt;BB7 -->
<g id="edge9" class="edge">
<title>BB5&#45;&gt;BB7</title>
<path fill="none" stroke="black" d="M101.11,-74.86C95.23,-106.71 92.17,-152.93 113.31,-185.91 178.98,-288.36 317.03,-334.09 414.54,-354.17"/>
<polygon fill="black" stroke="black" points="413.94,-357.62 424.44,-356.15 415.32,-350.76 413.94,-357.62"/>
</g>
<!-- BB6&#45;&gt;BB7 -->
<g id="edge10" class="edge">
<title>BB6&#45;&gt;BB7</title>
<path fill="none" stroke="black" d="M589.05,-75.12C592.97,-126.24 595.51,-221.19 570.31,-296.86 567.02,-306.73 562.02,-316.55 556.47,-325.62"/>
<polygon fill="black" stroke="black" points="553.5,-323.76 551.02,-334.06 559.38,-327.56 553.5,-323.76"/>
</g>
<!-- BB7&#45;&gt;BB1 -->
<g id="edge11" class="edge">
<title>BB7&#45;&gt;BB1</title>
<path fill="none" stroke="black" d="M500.51,-333.36C495.05,-324.34 489.12,-314.55 483.44,-305.17"/>
<polygon fill="black" stroke="black" points="486.25,-303.06 478.08,-296.32 480.27,-306.69 486.25,-303.06"/>
</g>
<!-- BB8 -->
<g id="node9" class="node">
<title>BB8</title>
<ellipse fill="none" stroke="black" cx="722.31" cy="-259.38" rx="105.22" ry="37.45"/>
<text text-anchor="middle" x="722.31" y="-270.68" font-family="Times New Roman,serif" font-size="14.00">[66..67)</text>
<text text-anchor="middle" x="722.31" y="-255.68" font-family="Times New Roman,serif" font-size="14.00">Normalized Count: 0.00</text>
<text text-anchor="middle" x="722.31" y="-240.68" font-family="Times New Roman,serif" font-size="14.00">Samples weight: 0.00</text>
</g>
<!-- BB7&#45;&gt;BB8 -->
<g id="edge12" class="edge">
<title>BB7&#45;&gt;BB8</title>
<path fill="none" stroke="black" d="M578.82,-338.55C603.2,-325.27 631.88,-309.65 657.15,-295.88"/>
<polygon fill="black" stroke="black" points="658.83,-298.95 665.94,-291.09 655.48,-292.8 658.83,-298.95"/>
</g>
</g>
</svg>
