<?xml version="1.0" encoding="UTF-8" standalone="no"?>
<!DOCTYPE svg PUBLIC "-//W3C//DTD SVG 1.1//EN"
 "http://www.w3.org/Graphics/SVG/1.1/DTD/svg11.dtd">
<!-- Generated by graphviz version 2.47.0 (20210316.0004)
 -->
<!-- Title: G Pages: 1 -->
<svg width="804pt" height="1426pt"
 viewBox="0.00 0.00 804.42 1425.83" xmlns="http://www.w3.org/2000/svg" xmlns:xlink="http://www.w3.org/1999/xlink">
<g id="graph0" class="graph" transform="scale(1 1) rotate(0) translate(4 1421.83)">
<title>G</title>
<polygon fill="white" stroke="transparent" points="-4,4 -4,-1421.83 800.42,-1421.83 800.42,4 -4,4"/>
<!-- BB0 -->
<g id="node1" class="node">
<title>BB0</title>
<ellipse fill="none" stroke="black" cx="215.24" cy="-1369.75" rx="103.48" ry="48.17"/>
<text text-anchor="middle" x="215.24" y="-1388.55" font-family="Times New Roman,serif" font-size="14.00">[0..4)</text>
<text text-anchor="middle" x="215.24" y="-1373.55" font-family="Times New Roman,serif" font-size="14.00">Count: 68</text>
<text text-anchor="middle" x="215.24" y="-1358.55" font-family="Times New Roman,serif" font-size="14.00">Normalized count: 1.00</text>
<text text-anchor="middle" x="215.24" y="-1343.55" font-family="Times New Roman,serif" font-size="14.00">Samples weight: 0.00</text>
</g>
<!-- BB1 -->
<g id="node2" class="node">
<title>BB1</title>
<ellipse fill="none" stroke="black" cx="103.24" cy="-1237.58" rx="103.48" ry="48.17"/>
<text text-anchor="middle" x="103.24" y="-1256.38" font-family="Times New Roman,serif" font-size="14.00">[4..5)</text>
<text text-anchor="middle" x="103.24" y="-1241.38" font-family="Times New Roman,serif" font-size="14.00">Count: 0</text>
<text text-anchor="middle" x="103.24" y="-1226.38" font-family="Times New Roman,serif" font-size="14.00">Normalized count: 0.00</text>
<text text-anchor="middle" x="103.24" y="-1211.38" font-family="Times New Roman,serif" font-size="14.00">Samples weight: 0.00</text>
</g>
<!-- BB0&#45;&gt;BB1 -->
<g id="edge2" class="edge">
<title>BB0&#45;&gt;BB1</title>
<path fill="none" stroke="black" d="M177.32,-1324.68C167.83,-1313.65 157.57,-1301.73 147.79,-1290.36"/>
<polygon fill="black" stroke="black" points="150.29,-1287.9 141.12,-1282.61 144.99,-1292.47 150.29,-1287.9"/>
</g>
<!-- BB2 -->
<g id="node3" class="node">
<title>BB2</title>
<ellipse fill="none" stroke="black" cx="327.24" cy="-1237.58" rx="103.48" ry="48.17"/>
<text text-anchor="middle" x="327.24" y="-1256.38" font-family="Times New Roman,serif" font-size="14.00">[5..f)</text>
<text text-anchor="middle" x="327.24" y="-1241.38" font-family="Times New Roman,serif" font-size="14.00">Count: 68</text>
<text text-anchor="middle" x="327.24" y="-1226.38" font-family="Times New Roman,serif" font-size="14.00">Normalized count: 1.00</text>
<text text-anchor="middle" x="327.24" y="-1211.38" font-family="Times New Roman,serif" font-size="14.00">Samples weight: 0.00</text>
</g>
<!-- BB0&#45;&gt;BB2 -->
<g id="edge1" class="edge">
<title>BB0&#45;&gt;BB2</title>
<path fill="none" stroke="black" d="M253.16,-1324.68C262.64,-1313.65 272.91,-1301.73 282.68,-1290.36"/>
<polygon fill="black" stroke="black" points="285.49,-1292.47 289.36,-1282.61 280.18,-1287.9 285.49,-1292.47"/>
</g>
<!-- BB3 -->
<g id="node4" class="node">
<title>BB3</title>
<ellipse fill="none" stroke="black" cx="215.24" cy="-1105.42" rx="103.48" ry="48.17"/>
<text text-anchor="middle" x="215.24" y="-1124.22" font-family="Times New Roman,serif" font-size="14.00">[f..10)</text>
<text text-anchor="middle" x="215.24" y="-1109.22" font-family="Times New Roman,serif" font-size="14.00">Count: 0</text>
<text text-anchor="middle" x="215.24" y="-1094.22" font-family="Times New Roman,serif" font-size="14.00">Normalized count: 0.00</text>
<text text-anchor="middle" x="215.24" y="-1079.22" font-family="Times New Roman,serif" font-size="14.00">Samples weight: 0.00</text>
</g>
<!-- BB2&#45;&gt;BB3 -->
<g id="edge4" class="edge">
<title>BB2&#45;&gt;BB3</title>
<path fill="none" stroke="black" d="M289.32,-1192.51C279.83,-1181.49 269.57,-1169.56 259.79,-1158.2"/>
<polygon fill="black" stroke="black" points="262.29,-1155.74 253.12,-1150.44 256.99,-1160.3 262.29,-1155.74"/>
</g>
<!-- BB4 -->
<g id="node5" class="node">
<title>BB4</title>
<ellipse fill="none" stroke="black" cx="439.24" cy="-1105.42" rx="103.48" ry="48.17"/>
<text text-anchor="middle" x="439.24" y="-1124.22" font-family="Times New Roman,serif" font-size="14.00">[10..26)</text>
<text text-anchor="middle" x="439.24" y="-1109.22" font-family="Times New Roman,serif" font-size="14.00">Count: 68</text>
<text text-anchor="middle" x="439.24" y="-1094.22" font-family="Times New Roman,serif" font-size="14.00">Normalized count: 1.00</text>
<text text-anchor="middle" x="439.24" y="-1079.22" font-family="Times New Roman,serif" font-size="14.00">Samples weight: 0.00</text>
</g>
<!-- BB2&#45;&gt;BB4 -->
<g id="edge3" class="edge">
<title>BB2&#45;&gt;BB4</title>
<path fill="none" stroke="black" d="M365.16,-1192.51C374.64,-1181.49 384.91,-1169.56 394.68,-1158.2"/>
<polygon fill="black" stroke="black" points="397.49,-1160.3 401.36,-1150.44 392.18,-1155.74 397.49,-1160.3"/>
</g>
<!-- BB15 -->
<g id="node16" class="node">
<title>BB15</title>
<ellipse fill="none" stroke="black" cx="439.24" cy="-973.25" rx="108.38" ry="48.17"/>
<text text-anchor="middle" x="439.24" y="-992.05" font-family="Times New Roman,serif" font-size="14.00">[1ba..1c1)</text>
<text text-anchor="middle" x="439.24" y="-977.05" font-family="Times New Roman,serif" font-size="14.00">Count: 988</text>
<text text-anchor="middle" x="439.24" y="-962.05" font-family="Times New Roman,serif" font-size="14.00">Normalized count: 14.53</text>
<text text-anchor="middle" x="439.24" y="-947.05" font-family="Times New Roman,serif" font-size="14.00">Samples weight: 0.00</text>
</g>
<!-- BB4&#45;&gt;BB15 -->
<g id="edge5" class="edge">
<title>BB4&#45;&gt;BB15</title>
<path fill="none" stroke="black" d="M439.24,-1057.05C439.24,-1048.79 439.24,-1040.1 439.24,-1031.6"/>
<polygon fill="black" stroke="black" points="442.74,-1031.36 439.24,-1021.36 435.74,-1031.36 442.74,-1031.36"/>
</g>
<!-- BB5 -->
<g id="node6" class="node">
<title>BB5</title>
<ellipse fill="none" stroke="black" cx="439.24" cy="-841.08" rx="108.38" ry="48.17"/>
<text text-anchor="middle" x="439.24" y="-859.88" font-family="Times New Roman,serif" font-size="14.00">[26..8e)</text>
<text text-anchor="middle" x="439.24" y="-844.88" font-family="Times New Roman,serif" font-size="14.00">Count: 920</text>
<text text-anchor="middle" x="439.24" y="-829.88" font-family="Times New Roman,serif" font-size="14.00">Normalized count: 13.53</text>
<text text-anchor="middle" x="439.24" y="-814.88" font-family="Times New Roman,serif" font-size="14.00">Samples weight: 0.00</text>
</g>
<!-- BB7 -->
<g id="node8" class="node">
<title>BB7</title>
<ellipse fill="none" stroke="black" cx="444.24" cy="-708.92" rx="118.17" ry="48.17"/>
<text text-anchor="middle" x="444.24" y="-727.72" font-family="Times New Roman,serif" font-size="14.00">[ea..ef)</text>
<text text-anchor="middle" x="444.24" y="-712.72" font-family="Times New Roman,serif" font-size="14.00">Count: 83420</text>
<text text-anchor="middle" x="444.24" y="-697.72" font-family="Times New Roman,serif" font-size="14.00">Normalized count: 1226.76</text>
<text text-anchor="middle" x="444.24" y="-682.72" font-family="Times New Roman,serif" font-size="14.00">Samples weight: 0.09</text>
</g>
<!-- BB5&#45;&gt;BB7 -->
<g id="edge6" class="edge">
<title>BB5&#45;&gt;BB7</title>
<path fill="none" stroke="black" d="M441.06,-792.72C441.37,-784.45 441.71,-775.77 442.03,-767.27"/>
<polygon fill="black" stroke="black" points="445.54,-767.15 442.43,-757.02 438.55,-766.88 445.54,-767.15"/>
</g>
<!-- BB6 -->
<g id="node7" class="node">
<title>BB6</title>
<ellipse fill="none" stroke="black" cx="444.24" cy="-576.75" rx="118.17" ry="48.17"/>
<text text-anchor="middle" x="444.24" y="-595.55" font-family="Times New Roman,serif" font-size="14.00">[8e..ea)</text>
<text text-anchor="middle" x="444.24" y="-580.55" font-family="Times New Roman,serif" font-size="14.00">Count: 82500</text>
<text text-anchor="middle" x="444.24" y="-565.55" font-family="Times New Roman,serif" font-size="14.00">Normalized count: 1213.24</text>
<text text-anchor="middle" x="444.24" y="-550.55" font-family="Times New Roman,serif" font-size="14.00">Samples weight: 0.09</text>
</g>
<!-- BB6&#45;&gt;BB7 -->
<g id="edge7" class="edge">
<title>BB6&#45;&gt;BB7</title>
<path fill="none" stroke="black" d="M450.75,-624.86C450.97,-633.12 451.04,-641.8 450.95,-650.3"/>
<polygon fill="black" stroke="black" points="447.44,-650.49 450.76,-660.55 454.44,-650.62 447.44,-650.49"/>
</g>
<!-- BB7&#45;&gt;BB6 -->
<g id="edge8" class="edge">
<title>BB7&#45;&gt;BB6</title>
<path fill="none" stroke="black" d="M437.72,-660.55C437.5,-652.29 437.44,-643.6 437.53,-635.1"/>
<polygon fill="black" stroke="black" points="441.03,-634.92 437.72,-624.86 434.04,-634.79 441.03,-634.92"/>
</g>
<!-- BB8 -->
<g id="node9" class="node">
<title>BB8</title>
<ellipse fill="none" stroke="black" cx="688.24" cy="-576.75" rx="108.38" ry="48.17"/>
<text text-anchor="middle" x="688.24" y="-595.55" font-family="Times New Roman,serif" font-size="14.00">[ef..f7)</text>
<text text-anchor="middle" x="688.24" y="-580.55" font-family="Times New Roman,serif" font-size="14.00">Count: 920</text>
<text text-anchor="middle" x="688.24" y="-565.55" font-family="Times New Roman,serif" font-size="14.00">Normalized count: 13.53</text>
<text text-anchor="middle" x="688.24" y="-550.55" font-family="Times New Roman,serif" font-size="14.00">Samples weight: 0.00</text>
</g>
<!-- BB7&#45;&gt;BB8 -->
<g id="edge9" class="edge">
<title>BB7&#45;&gt;BB8</title>
<path fill="none" stroke="black" d="M514.81,-670.27C544.92,-654.21 580.13,-635.42 610.94,-618.99"/>
<polygon fill="black" stroke="black" points="612.75,-621.99 619.92,-614.19 609.45,-615.81 612.75,-621.99"/>
</g>
<!-- BB13 -->
<g id="node14" class="node">
<title>BB13</title>
<ellipse fill="none" stroke="black" cx="511.24" cy="-444.58" rx="113.27" ry="48.17"/>
<text text-anchor="middle" x="511.24" y="-463.38" font-family="Times New Roman,serif" font-size="14.00">[1aa..1b2)</text>
<text text-anchor="middle" x="511.24" y="-448.38" font-family="Times New Roman,serif" font-size="14.00">Count: 50069</text>
<text text-anchor="middle" x="511.24" y="-433.38" font-family="Times New Roman,serif" font-size="14.00">Normalized count: 736.31</text>
<text text-anchor="middle" x="511.24" y="-418.38" font-family="Times New Roman,serif" font-size="14.00">Samples weight: 0.06</text>
</g>
<!-- BB8&#45;&gt;BB13 -->
<g id="edge10" class="edge">
<title>BB8&#45;&gt;BB13</title>
<path fill="none" stroke="black" d="M633.2,-535.28C614.73,-521.69 593.98,-506.43 574.91,-492.41"/>
<polygon fill="black" stroke="black" points="576.98,-489.58 566.85,-486.48 572.83,-495.22 576.98,-489.58"/>
</g>
<!-- BB9 -->
<g id="node10" class="node">
<title>BB9</title>
<ellipse fill="none" stroke="black" cx="632.24" cy="-312.42" rx="113.27" ry="48.17"/>
<text text-anchor="middle" x="632.24" y="-331.22" font-family="Times New Roman,serif" font-size="14.00">[f7..120)</text>
<text text-anchor="middle" x="632.24" y="-316.22" font-family="Times New Roman,serif" font-size="14.00">Count: 49149</text>
<text text-anchor="middle" x="632.24" y="-301.22" font-family="Times New Roman,serif" font-size="14.00">Normalized count: 722.78</text>
<text text-anchor="middle" x="632.24" y="-286.22" font-family="Times New Roman,serif" font-size="14.00">Samples weight: 0.05</text>
</g>
<!-- BB11 -->
<g id="node12" class="node">
<title>BB11</title>
<ellipse fill="none" stroke="black" cx="634.24" cy="-180.25" rx="118.17" ry="48.17"/>
<text text-anchor="middle" x="634.24" y="-199.05" font-family="Times New Roman,serif" font-size="14.00">[19c..1a4)</text>
<text text-anchor="middle" x="634.24" y="-184.05" font-family="Times New Roman,serif" font-size="14.00">Count: 314907</text>
<text text-anchor="middle" x="634.24" y="-169.05" font-family="Times New Roman,serif" font-size="14.00">Normalized count: 4630.99</text>
<text text-anchor="middle" x="634.24" y="-154.05" font-family="Times New Roman,serif" font-size="14.00">Samples weight: 0.35</text>
</g>
<!-- BB9&#45;&gt;BB11 -->
<g id="edge11" class="edge">
<title>BB9&#45;&gt;BB11</title>
<path fill="none" stroke="black" d="M632.97,-264.05C633.09,-255.79 633.23,-247.1 633.36,-238.6"/>
<polygon fill="black" stroke="black" points="636.86,-238.41 633.51,-228.36 629.86,-238.3 636.86,-238.41"/>
</g>
<!-- BB10 -->
<g id="node11" class="node">
<title>BB10</title>
<ellipse fill="none" stroke="black" cx="660.24" cy="-48.08" rx="118.17" ry="48.17"/>
<text text-anchor="middle" x="660.24" y="-66.88" font-family="Times New Roman,serif" font-size="14.00">[120..19c)</text>
<text text-anchor="middle" x="660.24" y="-51.88" font-family="Times New Roman,serif" font-size="14.00">Count: 265758</text>
<text text-anchor="middle" x="660.24" y="-36.88" font-family="Times New Roman,serif" font-size="14.00">Normalized count: 3908.21</text>
<text text-anchor="middle" x="660.24" y="-21.88" font-family="Times New Roman,serif" font-size="14.00">Samples weight: 0.30</text>
</g>
<!-- BB10&#45;&gt;BB11 -->
<g id="edge12" class="edge">
<title>BB10&#45;&gt;BB11</title>
<path fill="none" stroke="black" d="M657.3,-96.44C655.85,-104.83 654.15,-113.64 652.32,-122.26"/>
<polygon fill="black" stroke="black" points="648.86,-121.74 650.14,-132.26 655.69,-123.24 648.86,-121.74"/>
</g>
<!-- BB11&#45;&gt;BB10 -->
<g id="edge13" class="edge">
<title>BB11&#45;&gt;BB10</title>
<path fill="none" stroke="black" d="M637.18,-131.89C638.66,-123.33 640.4,-114.33 642.26,-105.55"/>
<polygon fill="black" stroke="black" points="645.69,-106.27 644.41,-95.76 638.85,-104.77 645.69,-106.27"/>
</g>
<!-- BB12 -->
<g id="node13" class="node">
<title>BB12</title>
<ellipse fill="none" stroke="black" cx="411.24" cy="-48.08" rx="113.27" ry="48.17"/>
<text text-anchor="middle" x="411.24" y="-66.88" font-family="Times New Roman,serif" font-size="14.00">[1a4..1aa)</text>
<text text-anchor="middle" x="411.24" y="-51.88" font-family="Times New Roman,serif" font-size="14.00">Count: 49149</text>
<text text-anchor="middle" x="411.24" y="-36.88" font-family="Times New Roman,serif" font-size="14.00">Normalized count: 722.78</text>
<text text-anchor="middle" x="411.24" y="-21.88" font-family="Times New Roman,serif" font-size="14.00">Samples weight: 0.05</text>
</g>
<!-- BB11&#45;&gt;BB12 -->
<g id="edge14" class="edge">
<title>BB11&#45;&gt;BB12</title>
<path fill="none" stroke="black" d="M567.63,-140.37C541.8,-125.3 512.12,-107.97 485.59,-92.49"/>
<polygon fill="black" stroke="black" points="487.13,-89.33 476.73,-87.31 483.6,-95.38 487.13,-89.33"/>
</g>
<!-- BB12&#45;&gt;BB13 -->
<g id="edge15" class="edge">
<title>BB12&#45;&gt;BB13</title>
<path fill="none" stroke="black" d="M423.14,-96.03C441.57,-168.73 476.96,-308.35 496.81,-386.68"/>
<polygon fill="black" stroke="black" points="493.42,-387.56 499.27,-396.39 500.21,-385.84 493.42,-387.56"/>
</g>
<!-- BB13&#45;&gt;BB9 -->
<g id="edge16" class="edge">
<title>BB13&#45;&gt;BB9</title>
<path fill="none" stroke="black" d="M552.2,-399.51C562.55,-388.38 573.75,-376.33 584.41,-364.87"/>
<polygon fill="black" stroke="black" points="587.07,-367.15 591.31,-357.44 581.94,-362.38 587.07,-367.15"/>
</g>
<!-- BB14 -->
<g id="node15" class="node">
<title>BB14</title>
<ellipse fill="none" stroke="black" cx="300.24" cy="-312.42" rx="108.38" ry="48.17"/>
<text text-anchor="middle" x="300.24" y="-331.22" font-family="Times New Roman,serif" font-size="14.00">[1b2..1ba)</text>
<text text-anchor="middle" x="300.24" y="-316.22" font-family="Times New Roman,serif" font-size="14.00">Count: 920</text>
<text text-anchor="middle" x="300.24" y="-301.22" font-family="Times New Roman,serif" font-size="14.00">Normalized count: 13.53</text>
<text text-anchor="middle" x="300.24" y="-286.22" font-family="Times New Roman,serif" font-size="14.00">Samples weight: 0.00</text>
</g>
<!-- BB13&#45;&gt;BB14 -->
<g id="edge17" class="edge">
<title>BB13&#45;&gt;BB14</title>
<path fill="none" stroke="black" d="M447.93,-404.53C423.72,-389.59 395.95,-372.46 371.08,-357.12"/>
<polygon fill="black" stroke="black" points="372.76,-354.04 362.41,-351.77 369.08,-360 372.76,-354.04"/>
</g>
<!-- BB14&#45;&gt;BB15 -->
<g id="edge18" class="edge">
<title>BB14&#45;&gt;BB15</title>
<path fill="none" stroke="black" d="M299.66,-360.81C299.07,-413.34 298.24,-500.6 298.24,-575.75 298.24,-709.92 298.24,-709.92 298.24,-709.92 298.24,-790.29 280.69,-820.36 322.24,-889.17 331.85,-905.09 345.81,-918.79 360.77,-930.22"/>
<polygon fill="black" stroke="black" points="359.01,-933.27 369.15,-936.33 363.13,-927.61 359.01,-933.27"/>
</g>
<!-- BB15&#45;&gt;BB5 -->
<g id="edge19" class="edge">
<title>BB15&#45;&gt;BB5</title>
<path fill="none" stroke="black" d="M439.24,-924.89C439.24,-916.62 439.24,-907.94 439.24,-899.43"/>
<polygon fill="black" stroke="black" points="442.74,-899.19 439.24,-889.19 435.74,-899.19 442.74,-899.19"/>
</g>
<!-- BB16 -->
<g id="node17" class="node">
<title>BB16</title>
<ellipse fill="none" stroke="black" cx="668.24" cy="-841.08" rx="103.48" ry="48.17"/>
<text text-anchor="middle" x="668.24" y="-859.88" font-family="Times New Roman,serif" font-size="14.00">[1c1..1c2)</text>
<text text-anchor="middle" x="668.24" y="-844.88" font-family="Times New Roman,serif" font-size="14.00">Count: 68</text>
<text text-anchor="middle" x="668.24" y="-829.88" font-family="Times New Roman,serif" font-size="14.00">Normalized count: 1.00</text>
<text text-anchor="middle" x="668.24" y="-814.88" font-family="Times New Roman,serif" font-size="14.00">Samples weight: 0.00</text>
</g>
<!-- BB15&#45;&gt;BB16 -->
<g id="edge20" class="edge">
<title>BB15&#45;&gt;BB16</title>
<path fill="none" stroke="black" d="M504.86,-934.95C533.01,-918.95 566.01,-900.19 594.95,-883.74"/>
<polygon fill="black" stroke="black" points="596.83,-886.7 603.79,-878.71 593.37,-880.61 596.83,-886.7"/>
</g>
</g>
</svg>
