<?xml version="1.0" encoding="UTF-8" standalone="no"?>
<!DOCTYPE svg PUBLIC "-//W3C//DTD SVG 1.1//EN"
 "http://www.w3.org/Graphics/SVG/1.1/DTD/svg11.dtd">
<!-- Generated by graphviz version 2.47.0 (20210316.0004)
 -->
<!-- Title: G Pages: 1 -->
<svg width="562pt" height="1139pt"
 viewBox="0.00 0.00 562.34 1138.62" xmlns="http://www.w3.org/2000/svg" xmlns:xlink="http://www.w3.org/1999/xlink">
<g id="graph0" class="graph" transform="scale(1 1) rotate(0) translate(4 1134.62)">
<title>G</title>
<polygon fill="white" stroke="transparent" points="-4,4 -4,-1134.62 558.34,-1134.62 558.34,4 -4,4"/>
<!-- BB0 -->
<g id="node1" class="node">
<title>BB0</title>
<ellipse fill="none" stroke="black" cx="422.72" cy="-1103.75" rx="37.45" ry="26.74"/>
<text text-anchor="middle" x="422.72" y="-1107.55" font-family="Times New Roman,serif" font-size="14.00">[0..19)</text>
<text text-anchor="middle" x="422.72" y="-1092.55" font-family="Times New Roman,serif" font-size="14.00">0.00</text>
</g>
<!-- BB22 -->
<g id="node23" class="node">
<title>BB22</title>
<ellipse fill="none" stroke="black" cx="422.72" cy="-1014.01" rx="52.15" ry="26.74"/>
<text text-anchor="middle" x="422.72" y="-1017.81" font-family="Times New Roman,serif" font-size="14.00">[111..118)</text>
<text text-anchor="middle" x="422.72" y="-1002.81" font-family="Times New Roman,serif" font-size="14.00">0.00</text>
</g>
<!-- BB0&#45;&gt;BB22 -->
<g id="edge1" class="edge">
<title>BB0&#45;&gt;BB22</title>
<path fill="none" stroke="black" d="M422.72,-1076.43C422.72,-1068.46 422.72,-1059.57 422.72,-1051.08"/>
<polygon fill="black" stroke="black" points="426.22,-1051.02 422.72,-1041.02 419.22,-1051.02 426.22,-1051.02"/>
</g>
<!-- BB1 -->
<g id="node2" class="node">
<title>BB1</title>
<ellipse fill="none" stroke="black" cx="299.72" cy="-924.27" rx="41.02" ry="26.74"/>
<text text-anchor="middle" x="299.72" y="-928.07" font-family="Times New Roman,serif" font-size="14.00">[19..2f)</text>
<text text-anchor="middle" x="299.72" y="-913.07" font-family="Times New Roman,serif" font-size="14.00">0.00</text>
</g>
<!-- BB5 -->
<g id="node6" class="node">
<title>BB5</title>
<ellipse fill="none" stroke="black" cx="228.72" cy="-834.53" rx="42.35" ry="26.74"/>
<text text-anchor="middle" x="228.72" y="-838.33" font-family="Times New Roman,serif" font-size="14.00">[50..55)</text>
<text text-anchor="middle" x="228.72" y="-823.33" font-family="Times New Roman,serif" font-size="14.00">0.01</text>
</g>
<!-- BB1&#45;&gt;BB5 -->
<g id="edge2" class="edge">
<title>BB1&#45;&gt;BB5</title>
<path fill="none" stroke="black" d="M281.06,-900.22C272.73,-889.92 262.79,-877.64 253.82,-866.55"/>
<polygon fill="black" stroke="black" points="256.51,-864.31 247.5,-858.73 251.07,-868.71 256.51,-864.31"/>
</g>
<!-- BB2 -->
<g id="node3" class="node">
<title>BB2</title>
<ellipse fill="none" stroke="black" cx="123.72" cy="-744.79" rx="41.02" ry="26.74"/>
<text text-anchor="middle" x="123.72" y="-748.59" font-family="Times New Roman,serif" font-size="14.00">[2f..42)</text>
<text text-anchor="middle" x="123.72" y="-733.59" font-family="Times New Roman,serif" font-size="14.00">0.01</text>
</g>
<!-- BB3 -->
<g id="node4" class="node">
<title>BB3</title>
<ellipse fill="none" stroke="black" cx="41.72" cy="-655.05" rx="41.94" ry="26.74"/>
<text text-anchor="middle" x="41.72" y="-658.85" font-family="Times New Roman,serif" font-size="14.00">[42..4a)</text>
<text text-anchor="middle" x="41.72" y="-643.85" font-family="Times New Roman,serif" font-size="14.00">0.00</text>
</g>
<!-- BB2&#45;&gt;BB3 -->
<g id="edge4" class="edge">
<title>BB2&#45;&gt;BB3</title>
<path fill="none" stroke="black" d="M102.6,-721.2C92.56,-710.45 80.42,-697.46 69.63,-685.91"/>
<polygon fill="black" stroke="black" points="72.15,-683.49 62.76,-678.57 67.04,-688.27 72.15,-683.49"/>
</g>
<!-- BB4 -->
<g id="node5" class="node">
<title>BB4</title>
<ellipse fill="none" stroke="black" cx="142.72" cy="-655.05" rx="41.94" ry="26.74"/>
<text text-anchor="middle" x="142.72" y="-658.85" font-family="Times New Roman,serif" font-size="14.00">[4a..50)</text>
<text text-anchor="middle" x="142.72" y="-643.85" font-family="Times New Roman,serif" font-size="14.00">0.01</text>
</g>
<!-- BB2&#45;&gt;BB4 -->
<g id="edge3" class="edge">
<title>BB2&#45;&gt;BB4</title>
<path fill="none" stroke="black" d="M129.32,-717.94C131.1,-709.73 133.09,-700.5 134.99,-691.72"/>
<polygon fill="black" stroke="black" points="138.47,-692.23 137.16,-681.72 131.62,-690.75 138.47,-692.23"/>
</g>
<!-- BB3&#45;&gt;BB4 -->
<g id="edge5" class="edge">
<title>BB3&#45;&gt;BB4</title>
<path fill="none" stroke="black" d="M83.54,-655.05C85.86,-655.05 88.17,-655.05 90.49,-655.05"/>
<polygon fill="black" stroke="black" points="90.65,-658.55 100.65,-655.05 90.65,-651.55 90.65,-658.55"/>
</g>
<!-- BB4&#45;&gt;BB5 -->
<g id="edge6" class="edge">
<title>BB4&#45;&gt;BB5</title>
<path fill="none" stroke="black" d="M155.35,-680.98C161.02,-692.24 167.76,-705.72 173.72,-717.92 187.09,-745.31 201.92,-776.52 212.8,-799.61"/>
<polygon fill="black" stroke="black" points="209.64,-801.1 217.06,-808.65 215.97,-798.12 209.64,-801.1"/>
</g>
<!-- BB5&#45;&gt;BB2 -->
<g id="edge7" class="edge">
<title>BB5&#45;&gt;BB2</title>
<path fill="none" stroke="black" d="M203.84,-812.74C189.58,-800.83 171.53,-785.74 156.18,-772.91"/>
<polygon fill="black" stroke="black" points="158.34,-770.16 148.42,-766.43 153.85,-775.53 158.34,-770.16"/>
</g>
<!-- BB6 -->
<g id="node7" class="node">
<title>BB6</title>
<ellipse fill="none" stroke="black" cx="263.72" cy="-744.79" rx="43.27" ry="26.74"/>
<text text-anchor="middle" x="263.72" y="-748.59" font-family="Times New Roman,serif" font-size="14.00">[55..6b)</text>
<text text-anchor="middle" x="263.72" y="-733.59" font-family="Times New Roman,serif" font-size="14.00">0.00</text>
</g>
<!-- BB5&#45;&gt;BB6 -->
<g id="edge8" class="edge">
<title>BB5&#45;&gt;BB6</title>
<path fill="none" stroke="black" d="M238.84,-808.15C242.29,-799.51 246.2,-789.7 249.89,-780.46"/>
<polygon fill="black" stroke="black" points="253.16,-781.7 253.62,-771.11 246.66,-779.1 253.16,-781.7"/>
</g>
<!-- BB7 -->
<g id="node8" class="node">
<title>BB7</title>
<ellipse fill="none" stroke="black" cx="350.72" cy="-655.05" rx="43.68" ry="26.74"/>
<text text-anchor="middle" x="350.72" y="-658.85" font-family="Times New Roman,serif" font-size="14.00">[6b..6d)</text>
<text text-anchor="middle" x="350.72" y="-643.85" font-family="Times New Roman,serif" font-size="14.00">0.00</text>
</g>
<!-- BB6&#45;&gt;BB7 -->
<g id="edge10" class="edge">
<title>BB6&#45;&gt;BB7</title>
<path fill="none" stroke="black" d="M285.67,-721.65C296.51,-710.72 309.74,-697.38 321.43,-685.59"/>
<polygon fill="black" stroke="black" points="323.91,-688.05 328.47,-678.49 318.94,-683.13 323.91,-688.05"/>
</g>
<!-- BB8 -->
<g id="node9" class="node">
<title>BB8</title>
<ellipse fill="none" stroke="black" cx="245.72" cy="-655.05" rx="43.27" ry="26.74"/>
<text text-anchor="middle" x="245.72" y="-658.85" font-family="Times New Roman,serif" font-size="14.00">[6d..72)</text>
<text text-anchor="middle" x="245.72" y="-643.85" font-family="Times New Roman,serif" font-size="14.00">0.00</text>
</g>
<!-- BB6&#45;&gt;BB8 -->
<g id="edge9" class="edge">
<title>BB6&#45;&gt;BB8</title>
<path fill="none" stroke="black" d="M258.42,-717.94C256.75,-709.8 254.87,-700.66 253.09,-691.96"/>
<polygon fill="black" stroke="black" points="256.49,-691.11 251.05,-682.02 249.63,-692.52 256.49,-691.11"/>
</g>
<!-- BB9 -->
<g id="node10" class="node">
<title>BB9</title>
<ellipse fill="none" stroke="black" cx="327.72" cy="-565.31" rx="42.35" ry="26.74"/>
<text text-anchor="middle" x="327.72" y="-569.11" font-family="Times New Roman,serif" font-size="14.00">[72..84)</text>
<text text-anchor="middle" x="327.72" y="-554.11" font-family="Times New Roman,serif" font-size="14.00">0.00</text>
</g>
<!-- BB8&#45;&gt;BB9 -->
<g id="edge12" class="edge">
<title>BB8&#45;&gt;BB9</title>
<path fill="none" stroke="black" d="M266.84,-631.46C276.88,-620.71 289.02,-607.72 299.81,-596.17"/>
<polygon fill="black" stroke="black" points="302.4,-598.53 306.67,-588.83 297.29,-593.75 302.4,-598.53"/>
</g>
<!-- BB10 -->
<g id="node11" class="node">
<title>BB10</title>
<ellipse fill="none" stroke="black" cx="225.72" cy="-565.31" rx="41.94" ry="26.74"/>
<text text-anchor="middle" x="225.72" y="-569.11" font-family="Times New Roman,serif" font-size="14.00">[84..8a)</text>
<text text-anchor="middle" x="225.72" y="-554.11" font-family="Times New Roman,serif" font-size="14.00">0.00</text>
</g>
<!-- BB8&#45;&gt;BB10 -->
<g id="edge11" class="edge">
<title>BB8&#45;&gt;BB10</title>
<path fill="none" stroke="black" d="M239.83,-628.2C237.96,-619.99 235.85,-610.76 233.85,-601.98"/>
<polygon fill="black" stroke="black" points="237.2,-600.95 231.57,-591.98 230.38,-602.5 237.2,-600.95"/>
</g>
<!-- BB9&#45;&gt;BB10 -->
<g id="edge13" class="edge">
<title>BB9&#45;&gt;BB10</title>
<path fill="none" stroke="black" d="M284.95,-565.31C282.5,-565.31 280.06,-565.31 277.61,-565.31"/>
<polygon fill="black" stroke="black" points="277.56,-561.81 267.56,-565.31 277.56,-568.81 277.56,-561.81"/>
</g>
<!-- BB11 -->
<g id="node12" class="node">
<title>BB11</title>
<ellipse fill="none" stroke="black" cx="206.72" cy="-475.57" rx="41.94" ry="26.74"/>
<text text-anchor="middle" x="206.72" y="-479.37" font-family="Times New Roman,serif" font-size="14.00">[8a..a2)</text>
<text text-anchor="middle" x="206.72" y="-464.37" font-family="Times New Roman,serif" font-size="14.00">0.00</text>
</g>
<!-- BB10&#45;&gt;BB11 -->
<g id="edge15" class="edge">
<title>BB10&#45;&gt;BB11</title>
<path fill="none" stroke="black" d="M220.12,-538.46C218.34,-530.25 216.34,-521.02 214.44,-512.24"/>
<polygon fill="black" stroke="black" points="217.81,-511.27 212.28,-502.24 210.97,-512.75 217.81,-511.27"/>
</g>
<!-- BB14 -->
<g id="node15" class="node">
<title>BB14</title>
<ellipse fill="none" stroke="black" cx="310.72" cy="-475.57" rx="43.68" ry="26.74"/>
<text text-anchor="middle" x="310.72" y="-479.37" font-family="Times New Roman,serif" font-size="14.00">[bd..c3)</text>
<text text-anchor="middle" x="310.72" y="-464.37" font-family="Times New Roman,serif" font-size="14.00">0.00</text>
</g>
<!-- BB10&#45;&gt;BB14 -->
<g id="edge14" class="edge">
<title>BB10&#45;&gt;BB14</title>
<path fill="none" stroke="black" d="M247.17,-542.17C257.66,-531.34 270.44,-518.15 281.78,-506.45"/>
<polygon fill="black" stroke="black" points="284.54,-508.63 288.98,-499.01 279.51,-503.76 284.54,-508.63"/>
</g>
<!-- BB13 -->
<g id="node14" class="node">
<title>BB13</title>
<ellipse fill="none" stroke="black" cx="206.72" cy="-385.83" rx="43.68" ry="26.74"/>
<text text-anchor="middle" x="206.72" y="-389.63" font-family="Times New Roman,serif" font-size="14.00">[b8..bd)</text>
<text text-anchor="middle" x="206.72" y="-374.63" font-family="Times New Roman,serif" font-size="14.00">0.01</text>
</g>
<!-- BB11&#45;&gt;BB13 -->
<g id="edge16" class="edge">
<title>BB11&#45;&gt;BB13</title>
<path fill="none" stroke="black" d="M206.72,-448.25C206.72,-440.28 206.72,-431.39 206.72,-422.9"/>
<polygon fill="black" stroke="black" points="210.22,-422.83 206.72,-412.83 203.22,-422.83 210.22,-422.83"/>
</g>
<!-- BB12 -->
<g id="node13" class="node">
<title>BB12</title>
<ellipse fill="none" stroke="black" cx="206.72" cy="-296.09" rx="42.35" ry="26.74"/>
<text text-anchor="middle" x="206.72" y="-299.89" font-family="Times New Roman,serif" font-size="14.00">[a2..b8)</text>
<text text-anchor="middle" x="206.72" y="-284.89" font-family="Times New Roman,serif" font-size="14.00">0.01</text>
</g>
<!-- BB12&#45;&gt;BB13 -->
<g id="edge17" class="edge">
<title>BB12&#45;&gt;BB13</title>
<path fill="none" stroke="black" d="M212.92,-322.76C213.44,-330.95 213.59,-340.18 213.37,-348.96"/>
<polygon fill="black" stroke="black" points="209.87,-348.84 212.94,-358.98 216.86,-349.14 209.87,-348.84"/>
</g>
<!-- BB13&#45;&gt;BB12 -->
<g id="edge18" class="edge">
<title>BB13&#45;&gt;BB12</title>
<path fill="none" stroke="black" d="M200.5,-358.98C199.99,-350.77 199.85,-341.54 200.08,-332.76"/>
<polygon fill="black" stroke="black" points="203.57,-332.9 200.51,-322.76 196.58,-332.59 203.57,-332.9"/>
</g>
<!-- BB13&#45;&gt;BB14 -->
<g id="edge19" class="edge">
<title>BB13&#45;&gt;BB14</title>
<path fill="none" stroke="black" d="M232.02,-408.18C245.74,-419.75 262.86,-434.19 277.62,-446.65"/>
<polygon fill="black" stroke="black" points="275.64,-449.56 285.54,-453.33 280.16,-444.21 275.64,-449.56"/>
</g>
<!-- BB15 -->
<g id="node16" class="node">
<title>BB15</title>
<ellipse fill="none" stroke="black" cx="310.72" cy="-385.83" rx="41.94" ry="26.74"/>
<text text-anchor="middle" x="310.72" y="-389.63" font-family="Times New Roman,serif" font-size="14.00">[c3..ca)</text>
<text text-anchor="middle" x="310.72" y="-374.63" font-family="Times New Roman,serif" font-size="14.00">0.00</text>
</g>
<!-- BB14&#45;&gt;BB15 -->
<g id="edge21" class="edge">
<title>BB14&#45;&gt;BB15</title>
<path fill="none" stroke="black" d="M310.72,-448.25C310.72,-440.28 310.72,-431.39 310.72,-422.9"/>
<polygon fill="black" stroke="black" points="314.22,-422.83 310.72,-412.83 307.22,-422.83 314.22,-422.83"/>
</g>
<!-- BB21 -->
<g id="node22" class="node">
<title>BB21</title>
<ellipse fill="none" stroke="black" cx="422.72" cy="-385.83" rx="52.15" ry="26.74"/>
<text text-anchor="middle" x="422.72" y="-389.63" font-family="Times New Roman,serif" font-size="14.00">[10d..111)</text>
<text text-anchor="middle" x="422.72" y="-374.63" font-family="Times New Roman,serif" font-size="14.00">0.00</text>
</g>
<!-- BB14&#45;&gt;BB21 -->
<g id="edge20" class="edge">
<title>BB14&#45;&gt;BB21</title>
<path fill="none" stroke="black" d="M336.98,-454C351.73,-442.44 370.37,-427.84 386.5,-415.21"/>
<polygon fill="black" stroke="black" points="388.95,-417.73 394.67,-408.81 384.64,-412.22 388.95,-417.73"/>
</g>
<!-- BB20 -->
<g id="node21" class="node">
<title>BB20</title>
<ellipse fill="none" stroke="black" cx="370.72" cy="-296.09" rx="52.15" ry="26.74"/>
<text text-anchor="middle" x="370.72" y="-299.89" font-family="Times New Roman,serif" font-size="14.00">[108..10d)</text>
<text text-anchor="middle" x="370.72" y="-284.89" font-family="Times New Roman,serif" font-size="14.00">0.01</text>
</g>
<!-- BB15&#45;&gt;BB20 -->
<g id="edge22" class="edge">
<title>BB15&#45;&gt;BB20</title>
<path fill="none" stroke="black" d="M327.11,-360.86C333.62,-351.34 341.21,-340.24 348.21,-330"/>
<polygon fill="black" stroke="black" points="351.17,-331.88 353.93,-321.65 345.39,-327.93 351.17,-331.88"/>
</g>
<!-- BB16 -->
<g id="node17" class="node">
<title>BB16</title>
<ellipse fill="none" stroke="black" cx="406.72" cy="-206.35" rx="41.94" ry="26.74"/>
<text text-anchor="middle" x="406.72" y="-210.15" font-family="Times New Roman,serif" font-size="14.00">[ca..e2)</text>
<text text-anchor="middle" x="406.72" y="-195.15" font-family="Times New Roman,serif" font-size="14.00">0.01</text>
</g>
<!-- BB18 -->
<g id="node19" class="node">
<title>BB18</title>
<ellipse fill="none" stroke="black" cx="417.72" cy="-116.61" rx="45.92" ry="26.74"/>
<text text-anchor="middle" x="417.72" y="-120.41" font-family="Times New Roman,serif" font-size="14.00">[fd..102)</text>
<text text-anchor="middle" x="417.72" y="-105.41" font-family="Times New Roman,serif" font-size="14.00">0.47</text>
</g>
<!-- BB16&#45;&gt;BB18 -->
<g id="edge23" class="edge">
<title>BB16&#45;&gt;BB18</title>
<path fill="none" stroke="black" d="M409.96,-179.5C410.98,-171.36 412.13,-162.22 413.22,-153.51"/>
<polygon fill="black" stroke="black" points="416.69,-153.94 414.46,-143.58 409.75,-153.07 416.69,-153.94"/>
</g>
<!-- BB17 -->
<g id="node18" class="node">
<title>BB17</title>
<ellipse fill="none" stroke="black" cx="427.72" cy="-26.87" rx="41.02" ry="26.74"/>
<text text-anchor="middle" x="427.72" y="-30.67" font-family="Times New Roman,serif" font-size="14.00">[e2..fd)</text>
<text text-anchor="middle" x="427.72" y="-15.67" font-family="Times New Roman,serif" font-size="14.00">0.47</text>
</g>
<!-- BB17&#45;&gt;BB18 -->
<g id="edge24" class="edge">
<title>BB17&#45;&gt;BB18</title>
<path fill="none" stroke="black" d="M430.99,-53.8C430.56,-62.07 429.64,-71.36 428.39,-80.18"/>
<polygon fill="black" stroke="black" points="424.91,-79.81 426.8,-90.23 431.82,-80.91 424.91,-79.81"/>
</g>
<!-- BB18&#45;&gt;BB17 -->
<g id="edge25" class="edge">
<title>BB18&#45;&gt;BB17</title>
<path fill="none" stroke="black" d="M414.45,-89.76C414.87,-81.48 415.8,-72.15 417.04,-63.31"/>
<polygon fill="black" stroke="black" points="420.53,-63.66 418.64,-53.23 413.62,-62.56 420.53,-63.66"/>
</g>
<!-- BB19 -->
<g id="node20" class="node">
<title>BB19</title>
<ellipse fill="none" stroke="black" cx="316.72" cy="-26.87" rx="52.15" ry="26.74"/>
<text text-anchor="middle" x="316.72" y="-30.67" font-family="Times New Roman,serif" font-size="14.00">[102..108)</text>
<text text-anchor="middle" x="316.72" y="-15.67" font-family="Times New Roman,serif" font-size="14.00">0.01</text>
</g>
<!-- BB18&#45;&gt;BB19 -->
<g id="edge26" class="edge">
<title>BB18&#45;&gt;BB19</title>
<path fill="none" stroke="black" d="M392.75,-93.92C380.06,-82.89 364.44,-69.32 350.67,-57.36"/>
<polygon fill="black" stroke="black" points="352.65,-54.45 342.81,-50.53 348.06,-59.73 352.65,-54.45"/>
</g>
<!-- BB19&#45;&gt;BB20 -->
<g id="edge27" class="edge">
<title>BB19&#45;&gt;BB20</title>
<path fill="none" stroke="black" d="M321.23,-53.89C328.1,-92.95 341.85,-169.02 355.72,-233.22 357.56,-241.76 359.7,-250.93 361.77,-259.52"/>
<polygon fill="black" stroke="black" points="358.38,-260.38 364.15,-269.27 365.18,-258.72 358.38,-260.38"/>
</g>
<!-- BB20&#45;&gt;BB16 -->
<g id="edge28" class="edge">
<title>BB20&#45;&gt;BB16</title>
<path fill="none" stroke="black" d="M381.13,-269.71C384.68,-261.07 388.7,-251.26 392.49,-242.02"/>
<polygon fill="black" stroke="black" points="395.77,-243.25 396.33,-232.67 389.3,-240.59 395.77,-243.25"/>
</g>
<!-- BB20&#45;&gt;BB21 -->
<g id="edge29" class="edge">
<title>BB20&#45;&gt;BB21</title>
<path fill="none" stroke="black" d="M385.52,-322.06C390.9,-331.14 397.08,-341.56 402.83,-351.27"/>
<polygon fill="black" stroke="black" points="399.85,-353.1 407.96,-359.92 405.87,-349.54 399.85,-353.1"/>
</g>
<!-- BB21&#45;&gt;BB22 -->
<g id="edge30" class="edge">
<title>BB21&#45;&gt;BB22</title>
<path fill="none" stroke="black" d="M422.72,-412.99C422.72,-447.61 422.72,-510.54 422.72,-564.31 422.72,-835.53 422.72,-835.53 422.72,-835.53 422.72,-884.26 422.72,-940.51 422.72,-976.4"/>
<polygon fill="black" stroke="black" points="419.22,-976.85 422.72,-986.85 426.22,-976.85 419.22,-976.85"/>
</g>
<!-- BB22&#45;&gt;BB1 -->
<g id="edge31" class="edge">
<title>BB22&#45;&gt;BB1</title>
<path fill="none" stroke="black" d="M392.94,-991.77C375.59,-979.39 353.6,-963.71 335.33,-950.68"/>
<polygon fill="black" stroke="black" points="336.88,-947.48 326.7,-944.52 332.81,-953.18 336.88,-947.48"/>
</g>
<!-- BB23 -->
<g id="node24" class="node">
<title>BB23</title>
<ellipse fill="none" stroke="black" cx="502.72" cy="-924.27" rx="51.74" ry="26.74"/>
<text text-anchor="middle" x="502.72" y="-928.07" font-family="Times New Roman,serif" font-size="14.00">[118..11a)</text>
<text text-anchor="middle" x="502.72" y="-913.07" font-family="Times New Roman,serif" font-size="14.00">0.00</text>
</g>
<!-- BB22&#45;&gt;BB23 -->
<g id="edge32" class="edge">
<title>BB22&#45;&gt;BB23</title>
<path fill="none" stroke="black" d="M444.16,-989.5C453.39,-979.37 464.33,-967.38 474.23,-956.52"/>
<polygon fill="black" stroke="black" points="477.07,-958.6 481.22,-948.85 471.9,-953.88 477.07,-958.6"/>
</g>
</g>
</svg>
