<?xml version="1.0" encoding="UTF-8" standalone="no"?>
<!DOCTYPE svg PUBLIC "-//W3C//DTD SVG 1.1//EN"
 "http://www.w3.org/Graphics/SVG/1.1/DTD/svg11.dtd">
<!-- Generated by graphviz version 2.47.0 (20210316.0004)
 -->
<!-- Title: G Pages: 1 -->
<svg width="519pt" height="527pt"
 viewBox="0.00 0.00 518.72 526.77" xmlns="http://www.w3.org/2000/svg" xmlns:xlink="http://www.w3.org/1999/xlink">
<g id="graph0" class="graph" transform="scale(1 1) rotate(0) translate(4 522.77)">
<title>G</title>
<polygon fill="white" stroke="transparent" points="-4,4 -4,-522.77 514.72,-522.77 514.72,4 -4,4"/>
<!-- BB0 -->
<g id="node1" class="node">
<title>BB0</title>
<ellipse fill="none" stroke="black" cx="171.36" cy="-481.29" rx="105.22" ry="37.45"/>
<text text-anchor="middle" x="171.36" y="-492.59" font-family="Times New Roman,serif" font-size="14.00">[0..10)</text>
<text text-anchor="middle" x="171.36" y="-477.59" font-family="Times New Roman,serif" font-size="14.00">Normalized Count: 1.00</text>
<text text-anchor="middle" x="171.36" y="-462.59" font-family="Times New Roman,serif" font-size="14.00">Samples weight: 0.01</text>
</g>
<!-- BB6 -->
<g id="node7" class="node">
<title>BB6</title>
<ellipse fill="none" stroke="black" cx="171.36" cy="-370.34" rx="105.22" ry="37.45"/>
<text text-anchor="middle" x="171.36" y="-381.64" font-family="Times New Roman,serif" font-size="14.00">[6e..72)</text>
<text text-anchor="middle" x="171.36" y="-366.64" font-family="Times New Roman,serif" font-size="14.00">Normalized Count: 2.33</text>
<text text-anchor="middle" x="171.36" y="-351.64" font-family="Times New Roman,serif" font-size="14.00">Samples weight: 0.03</text>
</g>
<!-- BB0&#45;&gt;BB6 -->
<g id="edge1" class="edge">
<title>BB0&#45;&gt;BB6</title>
<path fill="none" stroke="black" d="M171.36,-443.71C171.36,-435.53 171.36,-426.75 171.36,-418.23"/>
<polygon fill="black" stroke="black" points="174.86,-418.01 171.36,-408.01 167.86,-418.01 174.86,-418.01"/>
</g>
<!-- BB1 -->
<g id="node2" class="node">
<title>BB1</title>
<ellipse fill="none" stroke="black" cx="171.36" cy="-259.38" rx="110.12" ry="37.45"/>
<text text-anchor="middle" x="171.36" y="-270.68" font-family="Times New Roman,serif" font-size="14.00">[10..23)</text>
<text text-anchor="middle" x="171.36" y="-255.68" font-family="Times New Roman,serif" font-size="14.00">Normalized Count: 11.00</text>
<text text-anchor="middle" x="171.36" y="-240.68" font-family="Times New Roman,serif" font-size="14.00">Samples weight: 0.13</text>
</g>
<!-- BB2 -->
<g id="node3" class="node">
<title>BB2</title>
<ellipse fill="none" stroke="black" cx="171.36" cy="-148.43" rx="110.12" ry="37.45"/>
<text text-anchor="middle" x="171.36" y="-159.73" font-family="Times New Roman,serif" font-size="14.00">[23..55)</text>
<text text-anchor="middle" x="171.36" y="-144.73" font-family="Times New Roman,serif" font-size="14.00">Normalized Count: 52.67</text>
<text text-anchor="middle" x="171.36" y="-129.73" font-family="Times New Roman,serif" font-size="14.00">Samples weight: 0.63</text>
</g>
<!-- BB1&#45;&gt;BB2 -->
<g id="edge3" class="edge">
<title>BB1&#45;&gt;BB2</title>
<path fill="none" stroke="black" d="M171.36,-221.8C171.36,-213.63 171.36,-204.85 171.36,-196.32"/>
<polygon fill="black" stroke="black" points="174.86,-196.1 171.36,-186.1 167.86,-196.1 174.86,-196.1"/>
</g>
<!-- BB4 -->
<g id="node5" class="node">
<title>BB4</title>
<ellipse fill="none" stroke="black" cx="405.36" cy="-148.43" rx="105.22" ry="37.45"/>
<text text-anchor="middle" x="405.36" y="-159.73" font-family="Times New Roman,serif" font-size="14.00">[60..65)</text>
<text text-anchor="middle" x="405.36" y="-144.73" font-family="Times New Roman,serif" font-size="14.00">Normalized Count: 6.67</text>
<text text-anchor="middle" x="405.36" y="-129.73" font-family="Times New Roman,serif" font-size="14.00">Samples weight: 0.08</text>
</g>
<!-- BB1&#45;&gt;BB4 -->
<g id="edge2" class="edge">
<title>BB1&#45;&gt;BB4</title>
<path fill="none" stroke="black" d="M234.99,-228.76C265.42,-214.59 301.97,-197.57 333.4,-182.93"/>
<polygon fill="black" stroke="black" points="334.96,-186.07 342.55,-178.67 332.01,-179.72 334.96,-186.07"/>
</g>
<!-- BB2&#45;&gt;BB4 -->
<g id="edge4" class="edge">
<title>BB2&#45;&gt;BB4</title>
<path fill="none" stroke="black" d="M281.96,-148.43C284.56,-148.43 287.16,-148.43 289.76,-148.43"/>
<polygon fill="black" stroke="black" points="289.8,-151.93 299.8,-148.43 289.8,-144.93 289.8,-151.93"/>
</g>
<!-- BB3 -->
<g id="node4" class="node">
<title>BB3</title>
<ellipse fill="none" stroke="black" cx="405.36" cy="-37.48" rx="105.22" ry="37.45"/>
<text text-anchor="middle" x="405.36" y="-48.78" font-family="Times New Roman,serif" font-size="14.00">[55..60)</text>
<text text-anchor="middle" x="405.36" y="-33.78" font-family="Times New Roman,serif" font-size="14.00">Normalized Count: 5.67</text>
<text text-anchor="middle" x="405.36" y="-18.78" font-family="Times New Roman,serif" font-size="14.00">Samples weight: 0.07</text>
</g>
<!-- BB3&#45;&gt;BB4 -->
<g id="edge5" class="edge">
<title>BB3&#45;&gt;BB4</title>
<path fill="none" stroke="black" d="M411.78,-75.15C412.09,-83.33 412.18,-92.11 412.05,-100.63"/>
<polygon fill="black" stroke="black" points="408.54,-100.76 411.77,-110.85 415.54,-100.94 408.54,-100.76"/>
</g>
<!-- BB4&#45;&gt;BB3 -->
<g id="edge6" class="edge">
<title>BB4&#45;&gt;BB3</title>
<path fill="none" stroke="black" d="M398.94,-110.85C398.63,-102.67 398.54,-93.89 398.67,-85.37"/>
<polygon fill="black" stroke="black" points="402.17,-85.24 398.94,-75.15 395.17,-85.05 402.17,-85.24"/>
</g>
<!-- BB5 -->
<g id="node6" class="node">
<title>BB5</title>
<ellipse fill="none" stroke="black" cx="105.36" cy="-37.48" rx="105.22" ry="37.45"/>
<text text-anchor="middle" x="105.36" y="-48.78" font-family="Times New Roman,serif" font-size="14.00">[65..6e)</text>
<text text-anchor="middle" x="105.36" y="-33.78" font-family="Times New Roman,serif" font-size="14.00">Normalized Count: 4.00</text>
<text text-anchor="middle" x="105.36" y="-18.78" font-family="Times New Roman,serif" font-size="14.00">Samples weight: 0.05</text>
</g>
<!-- BB4&#45;&gt;BB5 -->
<g id="edge7" class="edge">
<title>BB4&#45;&gt;BB5</title>
<path fill="none" stroke="black" d="M332.74,-121.06C288.86,-105.12 232.83,-84.77 187.36,-68.26"/>
<polygon fill="black" stroke="black" points="188.43,-64.92 177.83,-64.8 186.04,-71.5 188.43,-64.92"/>
</g>
<!-- BB5&#45;&gt;BB6 -->
<g id="edge8" class="edge">
<title>BB5&#45;&gt;BB6</title>
<path fill="none" stroke="black" d="M73.18,-73.19C64.73,-84.41 56.76,-97.47 52.36,-110.95 26.71,-189.5 11.89,-224.83 52.36,-296.86 61.61,-313.32 76.28,-326.48 92.2,-336.82"/>
<polygon fill="black" stroke="black" points="90.79,-340.06 101.15,-342.28 94.44,-334.09 90.79,-340.06"/>
</g>
<!-- BB6&#45;&gt;BB1 -->
<g id="edge9" class="edge">
<title>BB6&#45;&gt;BB1</title>
<path fill="none" stroke="black" d="M171.36,-332.75C171.36,-324.58 171.36,-315.8 171.36,-307.27"/>
<polygon fill="black" stroke="black" points="174.86,-307.06 171.36,-297.06 167.86,-307.06 174.86,-307.06"/>
</g>
<!-- BB7 -->
<g id="node8" class="node">
<title>BB7</title>
<ellipse fill="none" stroke="black" cx="405.36" cy="-259.38" rx="105.22" ry="37.45"/>
<text text-anchor="middle" x="405.36" y="-270.68" font-family="Times New Roman,serif" font-size="14.00">[72..73)</text>
<text text-anchor="middle" x="405.36" y="-255.68" font-family="Times New Roman,serif" font-size="14.00">Normalized Count: 0.00</text>
<text text-anchor="middle" x="405.36" y="-240.68" font-family="Times New Roman,serif" font-size="14.00">Samples weight: 0.00</text>
</g>
<!-- BB6&#45;&gt;BB7 -->
<g id="edge10" class="edge">
<title>BB6&#45;&gt;BB7</title>
<path fill="none" stroke="black" d="M234.07,-340.14C264.62,-325.91 301.53,-308.73 333.25,-293.96"/>
<polygon fill="black" stroke="black" points="334.89,-297.06 342.48,-289.66 331.94,-290.71 334.89,-297.06"/>
</g>
</g>
</svg>
