<?xml version="1.0" encoding="UTF-8" standalone="no"?>
<!DOCTYPE svg PUBLIC "-//W3C//DTD SVG 1.1//EN"
 "http://www.w3.org/Graphics/SVG/1.1/DTD/svg11.dtd">
<!-- Generated by graphviz version 2.47.0 (20210316.0004)
 -->
<!-- Title: G Pages: 1 -->
<svg width="575pt" height="527pt"
 viewBox="0.00 0.00 575.42 526.77" xmlns="http://www.w3.org/2000/svg" xmlns:xlink="http://www.w3.org/1999/xlink">
<g id="graph0" class="graph" transform="scale(1 1) rotate(0) translate(4 522.77)">
<title>G</title>
<polygon fill="white" stroke="transparent" points="-4,4 -4,-522.77 571.42,-522.77 571.42,4 -4,4"/>
<!-- BB0 -->
<g id="node1" class="node">
<title>BB0</title>
<ellipse fill="none" stroke="black" cx="199.21" cy="-481.29" rx="105.22" ry="37.45"/>
<text text-anchor="middle" x="199.21" y="-492.59" font-family="Times New Roman,serif" font-size="14.00">[0..10)</text>
<text text-anchor="middle" x="199.21" y="-477.59" font-family="Times New Roman,serif" font-size="14.00">Normalized Count: 1.00</text>
<text text-anchor="middle" x="199.21" y="-462.59" font-family="Times New Roman,serif" font-size="14.00">Samples weight: 0.00</text>
</g>
<!-- BB6 -->
<g id="node7" class="node">
<title>BB6</title>
<ellipse fill="none" stroke="black" cx="199.21" cy="-370.34" rx="120.42" ry="37.45"/>
<text text-anchor="middle" x="199.21" y="-381.64" font-family="Times New Roman,serif" font-size="14.00">[6e..72)</text>
<text text-anchor="middle" x="199.21" y="-366.64" font-family="Times New Roman,serif" font-size="14.00">Normalized Count: 1024.00</text>
<text text-anchor="middle" x="199.21" y="-351.64" font-family="Times New Roman,serif" font-size="14.00">Samples weight: 0.15</text>
</g>
<!-- BB0&#45;&gt;BB6 -->
<g id="edge1" class="edge">
<title>BB0&#45;&gt;BB6</title>
<path fill="none" stroke="black" d="M199.21,-443.71C199.21,-435.53 199.21,-426.75 199.21,-418.23"/>
<polygon fill="black" stroke="black" points="202.71,-418.01 199.21,-408.01 195.71,-418.01 202.71,-418.01"/>
</g>
<!-- BB1 -->
<g id="node2" class="node">
<title>BB1</title>
<ellipse fill="none" stroke="black" cx="199.21" cy="-259.38" rx="120.42" ry="37.45"/>
<text text-anchor="middle" x="199.21" y="-270.68" font-family="Times New Roman,serif" font-size="14.00">[10..23)</text>
<text text-anchor="middle" x="199.21" y="-255.68" font-family="Times New Roman,serif" font-size="14.00">Normalized Count: 1023.00</text>
<text text-anchor="middle" x="199.21" y="-240.68" font-family="Times New Roman,serif" font-size="14.00">Samples weight: 0.15</text>
</g>
<!-- BB2 -->
<g id="node3" class="node">
<title>BB2</title>
<ellipse fill="none" stroke="black" cx="194.21" cy="-148.43" rx="115.02" ry="37.45"/>
<text text-anchor="middle" x="194.21" y="-159.73" font-family="Times New Roman,serif" font-size="14.00">[23..55)</text>
<text text-anchor="middle" x="194.21" y="-144.73" font-family="Times New Roman,serif" font-size="14.00">Normalized Count: 496.00</text>
<text text-anchor="middle" x="194.21" y="-129.73" font-family="Times New Roman,serif" font-size="14.00">Samples weight: 0.07</text>
</g>
<!-- BB1&#45;&gt;BB2 -->
<g id="edge3" class="edge">
<title>BB1&#45;&gt;BB2</title>
<path fill="none" stroke="black" d="M197.53,-221.8C197.15,-213.63 196.75,-204.85 196.36,-196.32"/>
<polygon fill="black" stroke="black" points="199.85,-195.93 195.89,-186.1 192.85,-196.25 199.85,-195.93"/>
</g>
<!-- BB4 -->
<g id="node5" class="node">
<title>BB4</title>
<ellipse fill="none" stroke="black" cx="447.21" cy="-148.43" rx="120.42" ry="37.45"/>
<text text-anchor="middle" x="447.21" y="-159.73" font-family="Times New Roman,serif" font-size="14.00">[60..65)</text>
<text text-anchor="middle" x="447.21" y="-144.73" font-family="Times New Roman,serif" font-size="14.00">Normalized Count: 2036.00</text>
<text text-anchor="middle" x="447.21" y="-129.73" font-family="Times New Roman,serif" font-size="14.00">Samples weight: 0.31</text>
</g>
<!-- BB1&#45;&gt;BB4 -->
<g id="edge2" class="edge">
<title>BB1&#45;&gt;BB4</title>
<path fill="none" stroke="black" d="M267.3,-228.47C298.89,-214.59 336.59,-198.03 369.3,-183.66"/>
<polygon fill="black" stroke="black" points="371.09,-186.7 378.83,-179.47 368.27,-180.29 371.09,-186.7"/>
</g>
<!-- BB2&#45;&gt;BB4 -->
<g id="edge4" class="edge">
<title>BB2&#45;&gt;BB4</title>
<path fill="none" stroke="black" d="M309.84,-148.43C312.13,-148.43 314.41,-148.43 316.7,-148.43"/>
<polygon fill="black" stroke="black" points="316.74,-151.93 326.74,-148.43 316.74,-144.93 316.74,-151.93"/>
</g>
<!-- BB3 -->
<g id="node4" class="node">
<title>BB3</title>
<ellipse fill="none" stroke="black" cx="447.21" cy="-37.48" rx="120.42" ry="37.45"/>
<text text-anchor="middle" x="447.21" y="-48.78" font-family="Times New Roman,serif" font-size="14.00">[55..60)</text>
<text text-anchor="middle" x="447.21" y="-33.78" font-family="Times New Roman,serif" font-size="14.00">Normalized Count: 1013.00</text>
<text text-anchor="middle" x="447.21" y="-18.78" font-family="Times New Roman,serif" font-size="14.00">Samples weight: 0.15</text>
</g>
<!-- BB3&#45;&gt;BB4 -->
<g id="edge5" class="edge">
<title>BB3&#45;&gt;BB4</title>
<path fill="none" stroke="black" d="M453.63,-75.15C453.94,-83.33 454.03,-92.11 453.9,-100.63"/>
<polygon fill="black" stroke="black" points="450.39,-100.76 453.62,-110.85 457.39,-100.94 450.39,-100.76"/>
</g>
<!-- BB4&#45;&gt;BB3 -->
<g id="edge6" class="edge">
<title>BB4&#45;&gt;BB3</title>
<path fill="none" stroke="black" d="M440.79,-110.85C440.48,-102.67 440.38,-93.89 440.52,-85.37"/>
<polygon fill="black" stroke="black" points="444.02,-85.24 440.79,-75.15 437.02,-85.05 444.02,-85.24"/>
</g>
<!-- BB5 -->
<g id="node6" class="node">
<title>BB5</title>
<ellipse fill="none" stroke="black" cx="120.21" cy="-37.48" rx="120.42" ry="37.45"/>
<text text-anchor="middle" x="120.21" y="-48.78" font-family="Times New Roman,serif" font-size="14.00">[65..6e)</text>
<text text-anchor="middle" x="120.21" y="-33.78" font-family="Times New Roman,serif" font-size="14.00">Normalized Count: 1023.00</text>
<text text-anchor="middle" x="120.21" y="-18.78" font-family="Times New Roman,serif" font-size="14.00">Samples weight: 0.15</text>
</g>
<!-- BB4&#45;&gt;BB5 -->
<g id="edge7" class="edge">
<title>BB4&#45;&gt;BB5</title>
<path fill="none" stroke="black" d="M366.38,-120.5C319.12,-104.75 259.37,-84.84 210.57,-68.58"/>
<polygon fill="black" stroke="black" points="211.55,-65.22 200.96,-65.38 209.34,-71.86 211.55,-65.22"/>
</g>
<!-- BB5&#45;&gt;BB6 -->
<g id="edge8" class="edge">
<title>BB5&#45;&gt;BB6</title>
<path fill="none" stroke="black" d="M89.56,-73.81C81.69,-84.96 74.3,-97.82 70.21,-110.95 45.64,-189.84 28.48,-225.55 70.21,-296.86 79.93,-313.47 95.02,-326.57 111.49,-336.79"/>
<polygon fill="black" stroke="black" points="109.81,-339.86 120.21,-341.87 113.33,-333.81 109.81,-339.86"/>
</g>
<!-- BB6&#45;&gt;BB1 -->
<g id="edge9" class="edge">
<title>BB6&#45;&gt;BB1</title>
<path fill="none" stroke="black" d="M199.21,-332.75C199.21,-324.58 199.21,-315.8 199.21,-307.27"/>
<polygon fill="black" stroke="black" points="202.71,-307.06 199.21,-297.06 195.71,-307.06 202.71,-307.06"/>
</g>
<!-- BB7 -->
<g id="node8" class="node">
<title>BB7</title>
<ellipse fill="none" stroke="black" cx="443.21" cy="-259.38" rx="105.22" ry="37.45"/>
<text text-anchor="middle" x="443.21" y="-270.68" font-family="Times New Roman,serif" font-size="14.00">[72..73)</text>
<text text-anchor="middle" x="443.21" y="-255.68" font-family="Times New Roman,serif" font-size="14.00">Normalized Count: 1.00</text>
<text text-anchor="middle" x="443.21" y="-240.68" font-family="Times New Roman,serif" font-size="14.00">Samples weight: 0.00</text>
</g>
<!-- BB6&#45;&gt;BB7 -->
<g id="edge10" class="edge">
<title>BB6&#45;&gt;BB7</title>
<path fill="none" stroke="black" d="M266.53,-339.28C298.37,-325.06 336.47,-308.04 369.13,-293.46"/>
<polygon fill="black" stroke="black" points="370.93,-296.49 378.63,-289.22 368.07,-290.1 370.93,-296.49"/>
</g>
</g>
</svg>
