<?xml version="1.0" encoding="UTF-8" standalone="no"?>
<!DOCTYPE svg PUBLIC "-//W3C//DTD SVG 1.1//EN"
 "http://www.w3.org/Graphics/SVG/1.1/DTD/svg11.dtd">
<!-- Generated by graphviz version 2.47.0 (20210316.0004)
 -->
<!-- Title: G Pages: 1 -->
<svg width="528pt" height="897pt"
 viewBox="0.00 0.00 528.37 897.17" xmlns="http://www.w3.org/2000/svg" xmlns:xlink="http://www.w3.org/1999/xlink">
<g id="graph0" class="graph" transform="scale(1 1) rotate(0) translate(4 893.17)">
<title>G</title>
<polygon fill="white" stroke="transparent" points="-4,4 -4,-893.17 524.37,-893.17 524.37,4 -4,4"/>
<!-- BB0 -->
<g id="node1" class="node">
<title>BB0</title>
<ellipse fill="none" stroke="black" cx="186.19" cy="-841.08" rx="103.48" ry="48.17"/>
<text text-anchor="middle" x="186.19" y="-859.88" font-family="Times New Roman,serif" font-size="14.00">[0..12)</text>
<text text-anchor="middle" x="186.19" y="-844.88" font-family="Times New Roman,serif" font-size="14.00">Count: 5</text>
<text text-anchor="middle" x="186.19" y="-829.88" font-family="Times New Roman,serif" font-size="14.00">Normalized count: 1.00</text>
<text text-anchor="middle" x="186.19" y="-814.88" font-family="Times New Roman,serif" font-size="14.00">Samples weight: 0.00</text>
</g>
<!-- BB8 -->
<g id="node9" class="node">
<title>BB8</title>
<ellipse fill="none" stroke="black" cx="186.19" cy="-708.92" rx="108.38" ry="48.17"/>
<text text-anchor="middle" x="186.19" y="-727.72" font-family="Times New Roman,serif" font-size="14.00">[7e..82)</text>
<text text-anchor="middle" x="186.19" y="-712.72" font-family="Times New Roman,serif" font-size="14.00">Count: 343</text>
<text text-anchor="middle" x="186.19" y="-697.72" font-family="Times New Roman,serif" font-size="14.00">Normalized count: 68.60</text>
<text text-anchor="middle" x="186.19" y="-682.72" font-family="Times New Roman,serif" font-size="14.00">Samples weight: 0.02</text>
</g>
<!-- BB0&#45;&gt;BB8 -->
<g id="edge1" class="edge">
<title>BB0&#45;&gt;BB8</title>
<path fill="none" stroke="black" d="M186.19,-792.72C186.19,-784.45 186.19,-775.77 186.19,-767.27"/>
<polygon fill="black" stroke="black" points="189.69,-767.02 186.19,-757.02 182.69,-767.02 189.69,-767.02"/>
</g>
<!-- BB1 -->
<g id="node2" class="node">
<title>BB1</title>
<ellipse fill="none" stroke="black" cx="186.19" cy="-576.75" rx="108.38" ry="48.17"/>
<text text-anchor="middle" x="186.19" y="-595.55" font-family="Times New Roman,serif" font-size="14.00">[12..21)</text>
<text text-anchor="middle" x="186.19" y="-580.55" font-family="Times New Roman,serif" font-size="14.00">Count: 365</text>
<text text-anchor="middle" x="186.19" y="-565.55" font-family="Times New Roman,serif" font-size="14.00">Normalized count: 73.00</text>
<text text-anchor="middle" x="186.19" y="-550.55" font-family="Times New Roman,serif" font-size="14.00">Samples weight: 0.02</text>
</g>
<!-- BB3 -->
<g id="node4" class="node">
<title>BB3</title>
<ellipse fill="none" stroke="black" cx="186.19" cy="-444.58" rx="108.38" ry="48.17"/>
<text text-anchor="middle" x="186.19" y="-463.38" font-family="Times New Roman,serif" font-size="14.00">[31..36)</text>
<text text-anchor="middle" x="186.19" y="-448.38" font-family="Times New Roman,serif" font-size="14.00">Count: 402</text>
<text text-anchor="middle" x="186.19" y="-433.38" font-family="Times New Roman,serif" font-size="14.00">Normalized count: 80.40</text>
<text text-anchor="middle" x="186.19" y="-418.38" font-family="Times New Roman,serif" font-size="14.00">Samples weight: 0.02</text>
</g>
<!-- BB1&#45;&gt;BB3 -->
<g id="edge2" class="edge">
<title>BB1&#45;&gt;BB3</title>
<path fill="none" stroke="black" d="M186.19,-528.39C186.19,-520.12 186.19,-511.44 186.19,-502.93"/>
<polygon fill="black" stroke="black" points="189.69,-502.69 186.19,-492.69 182.69,-502.69 189.69,-502.69"/>
</g>
<!-- BB2 -->
<g id="node3" class="node">
<title>BB2</title>
<ellipse fill="none" stroke="black" cx="183.19" cy="-312.42" rx="103.48" ry="48.17"/>
<text text-anchor="middle" x="183.19" y="-331.22" font-family="Times New Roman,serif" font-size="14.00">[21..31)</text>
<text text-anchor="middle" x="183.19" y="-316.22" font-family="Times New Roman,serif" font-size="14.00">Count: 0</text>
<text text-anchor="middle" x="183.19" y="-301.22" font-family="Times New Roman,serif" font-size="14.00">Normalized count: 0.00</text>
<text text-anchor="middle" x="183.19" y="-286.22" font-family="Times New Roman,serif" font-size="14.00">Samples weight: 0.00</text>
</g>
<!-- BB2&#45;&gt;BB3 -->
<g id="edge3" class="edge">
<title>BB2&#45;&gt;BB3</title>
<path fill="none" stroke="black" d="M190.79,-360.52C191.2,-368.78 191.46,-377.46 191.57,-385.97"/>
<polygon fill="black" stroke="black" points="188.07,-386.24 191.62,-396.22 195.07,-386.21 188.07,-386.24"/>
</g>
<!-- BB3&#45;&gt;BB2 -->
<g id="edge4" class="edge">
<title>BB3&#45;&gt;BB2</title>
<path fill="none" stroke="black" d="M178.59,-396.59C178.17,-388.22 177.91,-379.41 177.8,-370.78"/>
<polygon fill="black" stroke="black" points="181.3,-370.76 177.76,-360.78 174.3,-370.79 181.3,-370.76"/>
</g>
<!-- BB4 -->
<g id="node5" class="node">
<title>BB4</title>
<ellipse fill="none" stroke="black" cx="412.19" cy="-312.42" rx="108.38" ry="48.17"/>
<text text-anchor="middle" x="412.19" y="-331.22" font-family="Times New Roman,serif" font-size="14.00">[36..3b)</text>
<text text-anchor="middle" x="412.19" y="-316.22" font-family="Times New Roman,serif" font-size="14.00">Count: 402</text>
<text text-anchor="middle" x="412.19" y="-301.22" font-family="Times New Roman,serif" font-size="14.00">Normalized count: 80.40</text>
<text text-anchor="middle" x="412.19" y="-286.22" font-family="Times New Roman,serif" font-size="14.00">Samples weight: 0.02</text>
</g>
<!-- BB3&#45;&gt;BB4 -->
<g id="edge5" class="edge">
<title>BB3&#45;&gt;BB4</title>
<path fill="none" stroke="black" d="M251.25,-406.11C278.32,-390.52 309.88,-372.34 337.85,-356.23"/>
<polygon fill="black" stroke="black" points="339.88,-359.1 346.8,-351.08 336.39,-353.04 339.88,-359.1"/>
</g>
<!-- BB6 -->
<g id="node7" class="node">
<title>BB6</title>
<ellipse fill="none" stroke="black" cx="381.19" cy="-180.25" rx="118.17" ry="48.17"/>
<text text-anchor="middle" x="381.19" y="-199.05" font-family="Times New Roman,serif" font-size="14.00">[75..7a)</text>
<text text-anchor="middle" x="381.19" y="-184.05" font-family="Times New Roman,serif" font-size="14.00">Count: 10052</text>
<text text-anchor="middle" x="381.19" y="-169.05" font-family="Times New Roman,serif" font-size="14.00">Normalized count: 2010.40</text>
<text text-anchor="middle" x="381.19" y="-154.05" font-family="Times New Roman,serif" font-size="14.00">Samples weight: 0.47</text>
</g>
<!-- BB4&#45;&gt;BB6 -->
<g id="edge6" class="edge">
<title>BB4&#45;&gt;BB6</title>
<path fill="none" stroke="black" d="M401,-264.42C398.95,-255.85 396.8,-246.83 394.7,-238.01"/>
<polygon fill="black" stroke="black" points="398.08,-237.09 392.36,-228.17 391.27,-238.71 398.08,-237.09"/>
</g>
<!-- BB5 -->
<g id="node6" class="node">
<title>BB5</title>
<ellipse fill="none" stroke="black" cx="381.19" cy="-48.08" rx="118.17" ry="48.17"/>
<text text-anchor="middle" x="381.19" y="-66.88" font-family="Times New Roman,serif" font-size="14.00">[3b..75)</text>
<text text-anchor="middle" x="381.19" y="-51.88" font-family="Times New Roman,serif" font-size="14.00">Count: 9623</text>
<text text-anchor="middle" x="381.19" y="-36.88" font-family="Times New Roman,serif" font-size="14.00">Normalized count: 1924.60</text>
<text text-anchor="middle" x="381.19" y="-21.88" font-family="Times New Roman,serif" font-size="14.00">Samples weight: 0.45</text>
</g>
<!-- BB5&#45;&gt;BB6 -->
<g id="edge7" class="edge">
<title>BB5&#45;&gt;BB6</title>
<path fill="none" stroke="black" d="M387.7,-96.19C387.92,-104.45 387.99,-113.13 387.9,-121.64"/>
<polygon fill="black" stroke="black" points="384.39,-121.83 387.71,-131.89 391.39,-121.95 384.39,-121.83"/>
</g>
<!-- BB6&#45;&gt;BB5 -->
<g id="edge8" class="edge">
<title>BB6&#45;&gt;BB5</title>
<path fill="none" stroke="black" d="M374.66,-131.89C374.45,-123.62 374.39,-114.94 374.48,-106.43"/>
<polygon fill="black" stroke="black" points="377.98,-106.26 374.67,-96.19 370.98,-106.12 377.98,-106.26"/>
</g>
<!-- BB7 -->
<g id="node8" class="node">
<title>BB7</title>
<ellipse fill="none" stroke="black" cx="108.19" cy="-48.08" rx="108.38" ry="48.17"/>
<text text-anchor="middle" x="108.19" y="-66.88" font-family="Times New Roman,serif" font-size="14.00">[7a..7e)</text>
<text text-anchor="middle" x="108.19" y="-51.88" font-family="Times New Roman,serif" font-size="14.00">Count: 338</text>
<text text-anchor="middle" x="108.19" y="-36.88" font-family="Times New Roman,serif" font-size="14.00">Normalized count: 67.60</text>
<text text-anchor="middle" x="108.19" y="-21.88" font-family="Times New Roman,serif" font-size="14.00">Samples weight: 0.02</text>
</g>
<!-- BB6&#45;&gt;BB7 -->
<g id="edge9" class="edge">
<title>BB6&#45;&gt;BB7</title>
<path fill="none" stroke="black" d="M305.5,-143.16C269.72,-126.1 226.92,-105.7 190.35,-88.26"/>
<polygon fill="black" stroke="black" points="191.72,-85.04 181.19,-83.89 188.71,-91.35 191.72,-85.04"/>
</g>
<!-- BB7&#45;&gt;BB8 -->
<g id="edge10" class="edge">
<title>BB7&#45;&gt;BB8</title>
<path fill="none" stroke="black" d="M91.41,-95.79C74.28,-147.72 50.19,-234.45 50.19,-311.42 50.19,-445.58 50.19,-445.58 50.19,-445.58 50.19,-525.7 28.73,-555.69 69.19,-624.83 78.58,-640.89 92.45,-654.65 107.39,-666.08"/>
<polygon fill="black" stroke="black" points="105.63,-669.13 115.77,-672.19 109.75,-663.47 105.63,-669.13"/>
</g>
<!-- BB8&#45;&gt;BB1 -->
<g id="edge11" class="edge">
<title>BB8&#45;&gt;BB1</title>
<path fill="none" stroke="black" d="M186.19,-660.55C186.19,-652.29 186.19,-643.6 186.19,-635.1"/>
<polygon fill="black" stroke="black" points="189.69,-634.86 186.19,-624.86 182.69,-634.86 189.69,-634.86"/>
</g>
<!-- BB9 -->
<g id="node10" class="node">
<title>BB9</title>
<ellipse fill="none" stroke="black" cx="415.19" cy="-576.75" rx="103.48" ry="48.17"/>
<text text-anchor="middle" x="415.19" y="-595.55" font-family="Times New Roman,serif" font-size="14.00">[82..83)</text>
<text text-anchor="middle" x="415.19" y="-580.55" font-family="Times New Roman,serif" font-size="14.00">Count: 1</text>
<text text-anchor="middle" x="415.19" y="-565.55" font-family="Times New Roman,serif" font-size="14.00">Normalized count: 0.20</text>
<text text-anchor="middle" x="415.19" y="-550.55" font-family="Times New Roman,serif" font-size="14.00">Samples weight: 0.00</text>
</g>
<!-- BB8&#45;&gt;BB9 -->
<g id="edge12" class="edge">
<title>BB8&#45;&gt;BB9</title>
<path fill="none" stroke="black" d="M251.81,-670.62C279.96,-654.62 312.96,-635.86 341.9,-619.41"/>
<polygon fill="black" stroke="black" points="343.78,-622.37 350.74,-614.38 340.32,-616.28 343.78,-622.37"/>
</g>
</g>
</svg>
