<?xml version="1.0" encoding="UTF-8" standalone="no"?>
<!DOCTYPE svg PUBLIC "-//W3C//DTD SVG 1.1//EN"
 "http://www.w3.org/Graphics/SVG/1.1/DTD/svg11.dtd">
<!-- Generated by graphviz version 2.47.0 (20210316.0004)
 -->
<!-- Title: G Pages: 1 -->
<svg width="1240pt" height="1414pt"
 viewBox="0.00 0.00 1239.62 1414.39" xmlns="http://www.w3.org/2000/svg" xmlns:xlink="http://www.w3.org/1999/xlink">
<g id="graph0" class="graph" transform="scale(1 1) rotate(0) translate(4 1410.39)">
<title>G</title>
<polygon fill="white" stroke="transparent" points="-4,4 -4,-1410.39 1235.62,-1410.39 1235.62,4 -4,4"/>
<!-- BB0 -->
<g id="node1" class="node">
<title>BB0</title>
<ellipse fill="none" stroke="black" cx="993.26" cy="-1368.92" rx="105.22" ry="37.45"/>
<text text-anchor="middle" x="993.26" y="-1380.22" font-family="Times New Roman,serif" font-size="14.00">[0..19)</text>
<text text-anchor="middle" x="993.26" y="-1365.22" font-family="Times New Roman,serif" font-size="14.00">Normalized Count: 1.00</text>
<text text-anchor="middle" x="993.26" y="-1350.22" font-family="Times New Roman,serif" font-size="14.00">Samples weight: 0.00</text>
</g>
<!-- BB22 -->
<g id="node23" class="node">
<title>BB22</title>
<ellipse fill="none" stroke="black" cx="993.26" cy="-1257.96" rx="115.02" ry="37.45"/>
<text text-anchor="middle" x="993.26" y="-1269.26" font-family="Times New Roman,serif" font-size="14.00">[111..118)</text>
<text text-anchor="middle" x="993.26" y="-1254.26" font-family="Times New Roman,serif" font-size="14.00">Normalized Count: 101.00</text>
<text text-anchor="middle" x="993.26" y="-1239.26" font-family="Times New Roman,serif" font-size="14.00">Samples weight: 0.00</text>
</g>
<!-- BB0&#45;&gt;BB22 -->
<g id="edge1" class="edge">
<title>BB0&#45;&gt;BB22</title>
<path fill="none" stroke="black" d="M993.26,-1331.33C993.26,-1323.16 993.26,-1314.38 993.26,-1305.85"/>
<polygon fill="black" stroke="black" points="996.76,-1305.64 993.26,-1295.64 989.76,-1305.64 996.76,-1305.64"/>
</g>
<!-- BB1 -->
<g id="node2" class="node">
<title>BB1</title>
<ellipse fill="none" stroke="black" cx="736.26" cy="-1147.01" rx="115.02" ry="37.45"/>
<text text-anchor="middle" x="736.26" y="-1158.31" font-family="Times New Roman,serif" font-size="14.00">[19..2f)</text>
<text text-anchor="middle" x="736.26" y="-1143.31" font-family="Times New Roman,serif" font-size="14.00">Normalized Count: 100.00</text>
<text text-anchor="middle" x="736.26" y="-1128.31" font-family="Times New Roman,serif" font-size="14.00">Samples weight: 0.00</text>
</g>
<!-- BB5 -->
<g id="node6" class="node">
<title>BB5</title>
<ellipse fill="none" stroke="black" cx="569.26" cy="-1036.06" rx="120.42" ry="37.45"/>
<text text-anchor="middle" x="569.26" y="-1047.36" font-family="Times New Roman,serif" font-size="14.00">[50..55)</text>
<text text-anchor="middle" x="569.26" y="-1032.36" font-family="Times New Roman,serif" font-size="14.00">Normalized Count: 5050.00</text>
<text text-anchor="middle" x="569.26" y="-1017.36" font-family="Times New Roman,serif" font-size="14.00">Samples weight: 0.01</text>
</g>
<!-- BB1&#45;&gt;BB5 -->
<g id="edge2" class="edge">
<title>BB1&#45;&gt;BB5</title>
<path fill="none" stroke="black" d="M685.7,-1113.02C667.63,-1101.24 647.12,-1087.85 628.39,-1075.64"/>
<polygon fill="black" stroke="black" points="630.22,-1072.65 619.93,-1070.12 626.4,-1078.51 630.22,-1072.65"/>
</g>
<!-- BB2 -->
<g id="node3" class="node">
<title>BB2</title>
<ellipse fill="none" stroke="black" cx="349.26" cy="-925.1" rx="120.42" ry="37.45"/>
<text text-anchor="middle" x="349.26" y="-936.4" font-family="Times New Roman,serif" font-size="14.00">[2f..42)</text>
<text text-anchor="middle" x="349.26" y="-921.4" font-family="Times New Roman,serif" font-size="14.00">Normalized Count: 4950.00</text>
<text text-anchor="middle" x="349.26" y="-906.4" font-family="Times New Roman,serif" font-size="14.00">Samples weight: 0.01</text>
</g>
<!-- BB3 -->
<g id="node4" class="node">
<title>BB3</title>
<ellipse fill="none" stroke="black" cx="115.26" cy="-814.15" rx="115.02" ry="37.45"/>
<text text-anchor="middle" x="115.26" y="-825.45" font-family="Times New Roman,serif" font-size="14.00">[42..4a)</text>
<text text-anchor="middle" x="115.26" y="-810.45" font-family="Times New Roman,serif" font-size="14.00">Normalized Count: 343.00</text>
<text text-anchor="middle" x="115.26" y="-795.45" font-family="Times New Roman,serif" font-size="14.00">Samples weight: 0.00</text>
</g>
<!-- BB2&#45;&gt;BB3 -->
<g id="edge4" class="edge">
<title>BB2&#45;&gt;BB3</title>
<path fill="none" stroke="black" d="M283.77,-893.61C254.36,-879.92 219.53,-863.7 189.19,-849.57"/>
<polygon fill="black" stroke="black" points="190.47,-846.31 179.93,-845.26 187.51,-852.65 190.47,-846.31"/>
</g>
<!-- BB4 -->
<g id="node5" class="node">
<title>BB4</title>
<ellipse fill="none" stroke="black" cx="368.26" cy="-814.15" rx="120.42" ry="37.45"/>
<text text-anchor="middle" x="368.26" y="-825.45" font-family="Times New Roman,serif" font-size="14.00">[4a..50)</text>
<text text-anchor="middle" x="368.26" y="-810.45" font-family="Times New Roman,serif" font-size="14.00">Normalized Count: 4950.00</text>
<text text-anchor="middle" x="368.26" y="-795.45" font-family="Times New Roman,serif" font-size="14.00">Samples weight: 0.01</text>
</g>
<!-- BB2&#45;&gt;BB4 -->
<g id="edge3" class="edge">
<title>BB2&#45;&gt;BB4</title>
<path fill="none" stroke="black" d="M355.64,-887.52C357.08,-879.26 358.63,-870.37 360.13,-861.76"/>
<polygon fill="black" stroke="black" points="363.59,-862.27 361.86,-851.82 356.7,-861.07 363.59,-862.27"/>
</g>
<!-- BB3&#45;&gt;BB4 -->
<g id="edge5" class="edge">
<title>BB3&#45;&gt;BB4</title>
<path fill="none" stroke="black" d="M230.89,-814.15C233.18,-814.15 235.47,-814.15 237.75,-814.15"/>
<polygon fill="black" stroke="black" points="237.79,-817.65 247.79,-814.15 237.79,-810.65 237.79,-817.65"/>
</g>
<!-- BB4&#45;&gt;BB5 -->
<g id="edge6" class="edge">
<title>BB4&#45;&gt;BB5</title>
<path fill="none" stroke="black" d="M428.31,-846.76C445.9,-858.01 464.17,-871.84 478.26,-887.63 503.13,-915.49 496.73,-930.74 516.26,-962.58 522.06,-972.04 528.74,-981.85 535.35,-991.07"/>
<polygon fill="black" stroke="black" points="532.67,-993.33 541.38,-999.35 538.33,-989.21 532.67,-993.33"/>
</g>
<!-- BB5&#45;&gt;BB2 -->
<g id="edge7" class="edge">
<title>BB5&#45;&gt;BB2</title>
<path fill="none" stroke="black" d="M506.51,-1003.98C479.92,-990.81 448.79,-975.4 421.27,-961.77"/>
<polygon fill="black" stroke="black" points="422.61,-958.52 412.09,-957.22 419.5,-964.79 422.61,-958.52"/>
</g>
<!-- BB6 -->
<g id="node7" class="node">
<title>BB6</title>
<ellipse fill="none" stroke="black" cx="640.26" cy="-925.1" rx="115.02" ry="37.45"/>
<text text-anchor="middle" x="640.26" y="-936.4" font-family="Times New Roman,serif" font-size="14.00">[55..6b)</text>
<text text-anchor="middle" x="640.26" y="-921.4" font-family="Times New Roman,serif" font-size="14.00">Normalized Count: 100.00</text>
<text text-anchor="middle" x="640.26" y="-906.4" font-family="Times New Roman,serif" font-size="14.00">Samples weight: 0.00</text>
</g>
<!-- BB5&#45;&gt;BB6 -->
<g id="edge8" class="edge">
<title>BB5&#45;&gt;BB6</title>
<path fill="none" stroke="black" d="M592.7,-999.08C598.64,-989.97 605.09,-980.07 611.27,-970.59"/>
<polygon fill="black" stroke="black" points="614.31,-972.33 616.84,-962.04 608.45,-968.51 614.31,-972.33"/>
</g>
<!-- BB7 -->
<g id="node8" class="node">
<title>BB7</title>
<ellipse fill="none" stroke="black" cx="860.26" cy="-814.15" rx="105.22" ry="37.45"/>
<text text-anchor="middle" x="860.26" y="-825.45" font-family="Times New Roman,serif" font-size="14.00">[6b..6d)</text>
<text text-anchor="middle" x="860.26" y="-810.45" font-family="Times New Roman,serif" font-size="14.00">Normalized Count: 0.00</text>
<text text-anchor="middle" x="860.26" y="-795.45" font-family="Times New Roman,serif" font-size="14.00">Samples weight: 0.00</text>
</g>
<!-- BB6&#45;&gt;BB7 -->
<g id="edge10" class="edge">
<title>BB6&#45;&gt;BB7</title>
<path fill="none" stroke="black" d="M702.13,-893.46C729.76,-879.78 762.45,-863.59 790.91,-849.49"/>
<polygon fill="black" stroke="black" points="792.59,-852.57 799.99,-845 789.48,-846.3 792.59,-852.57"/>
</g>
<!-- BB8 -->
<g id="node9" class="node">
<title>BB8</title>
<ellipse fill="none" stroke="black" cx="621.26" cy="-814.15" rx="115.02" ry="37.45"/>
<text text-anchor="middle" x="621.26" y="-825.45" font-family="Times New Roman,serif" font-size="14.00">[6d..72)</text>
<text text-anchor="middle" x="621.26" y="-810.45" font-family="Times New Roman,serif" font-size="14.00">Normalized Count: 100.00</text>
<text text-anchor="middle" x="621.26" y="-795.45" font-family="Times New Roman,serif" font-size="14.00">Samples weight: 0.00</text>
</g>
<!-- BB6&#45;&gt;BB8 -->
<g id="edge9" class="edge">
<title>BB6&#45;&gt;BB8</title>
<path fill="none" stroke="black" d="M633.88,-887.52C632.44,-879.26 630.89,-870.37 629.39,-861.76"/>
<polygon fill="black" stroke="black" points="632.82,-861.07 627.65,-851.82 625.92,-862.27 632.82,-861.07"/>
</g>
<!-- BB9 -->
<g id="node10" class="node">
<title>BB9</title>
<ellipse fill="none" stroke="black" cx="801.26" cy="-703.2" rx="110.12" ry="37.45"/>
<text text-anchor="middle" x="801.26" y="-714.5" font-family="Times New Roman,serif" font-size="14.00">[72..84)</text>
<text text-anchor="middle" x="801.26" y="-699.5" font-family="Times New Roman,serif" font-size="14.00">Normalized Count: 93.00</text>
<text text-anchor="middle" x="801.26" y="-684.5" font-family="Times New Roman,serif" font-size="14.00">Samples weight: 0.00</text>
</g>
<!-- BB8&#45;&gt;BB9 -->
<g id="edge12" class="edge">
<title>BB8&#45;&gt;BB9</title>
<path fill="none" stroke="black" d="M674.78,-780.76C695.18,-768.41 718.59,-754.23 739.68,-741.47"/>
<polygon fill="black" stroke="black" points="741.51,-744.45 748.26,-736.28 737.89,-738.46 741.51,-744.45"/>
</g>
<!-- BB10 -->
<g id="node11" class="node">
<title>BB10</title>
<ellipse fill="none" stroke="black" cx="557.26" cy="-703.2" rx="115.02" ry="37.45"/>
<text text-anchor="middle" x="557.26" y="-714.5" font-family="Times New Roman,serif" font-size="14.00">[84..8a)</text>
<text text-anchor="middle" x="557.26" y="-699.5" font-family="Times New Roman,serif" font-size="14.00">Normalized Count: 100.00</text>
<text text-anchor="middle" x="557.26" y="-684.5" font-family="Times New Roman,serif" font-size="14.00">Samples weight: 0.00</text>
</g>
<!-- BB8&#45;&gt;BB10 -->
<g id="edge11" class="edge">
<title>BB8&#45;&gt;BB10</title>
<path fill="none" stroke="black" d="M600.13,-777.17C594.83,-768.15 589.08,-758.37 583.56,-748.98"/>
<polygon fill="black" stroke="black" points="586.45,-746.99 578.37,-740.14 580.42,-750.53 586.45,-746.99"/>
</g>
<!-- BB9&#45;&gt;BB10 -->
<g id="edge13" class="edge">
<title>BB9&#45;&gt;BB10</title>
<path fill="none" stroke="black" d="M690.93,-703.2C688.16,-703.2 685.39,-703.2 682.62,-703.2"/>
<polygon fill="black" stroke="black" points="682.59,-699.7 672.59,-703.2 682.59,-706.7 682.59,-699.7"/>
</g>
<!-- BB11 -->
<g id="node12" class="node">
<title>BB11</title>
<ellipse fill="none" stroke="black" cx="502.26" cy="-592.24" rx="110.12" ry="37.45"/>
<text text-anchor="middle" x="502.26" y="-603.54" font-family="Times New Roman,serif" font-size="14.00">[8a..a2)</text>
<text text-anchor="middle" x="502.26" y="-588.54" font-family="Times New Roman,serif" font-size="14.00">Normalized Count: 99.00</text>
<text text-anchor="middle" x="502.26" y="-573.54" font-family="Times New Roman,serif" font-size="14.00">Samples weight: 0.00</text>
</g>
<!-- BB10&#45;&gt;BB11 -->
<g id="edge15" class="edge">
<title>BB10&#45;&gt;BB11</title>
<path fill="none" stroke="black" d="M538.94,-665.92C534.49,-657.1 529.68,-647.56 525.04,-638.38"/>
<polygon fill="black" stroke="black" points="528.12,-636.71 520.49,-629.36 521.87,-639.87 528.12,-636.71"/>
</g>
<!-- BB14 -->
<g id="node15" class="node">
<title>BB14</title>
<ellipse fill="none" stroke="black" cx="748.26" cy="-592.24" rx="115.02" ry="37.45"/>
<text text-anchor="middle" x="748.26" y="-603.54" font-family="Times New Roman,serif" font-size="14.00">[bd..c3)</text>
<text text-anchor="middle" x="748.26" y="-588.54" font-family="Times New Roman,serif" font-size="14.00">Normalized Count: 100.00</text>
<text text-anchor="middle" x="748.26" y="-573.54" font-family="Times New Roman,serif" font-size="14.00">Samples weight: 0.00</text>
</g>
<!-- BB10&#45;&gt;BB14 -->
<g id="edge14" class="edge">
<title>BB10&#45;&gt;BB14</title>
<path fill="none" stroke="black" d="M613.02,-670.39C635.08,-657.8 660.59,-643.25 683.47,-630.2"/>
<polygon fill="black" stroke="black" points="685.48,-633.08 692.43,-625.09 682.01,-627 685.48,-633.08"/>
</g>
<!-- BB13 -->
<g id="node14" class="node">
<title>BB13</title>
<ellipse fill="none" stroke="black" cx="500.26" cy="-481.29" rx="120.42" ry="37.45"/>
<text text-anchor="middle" x="500.26" y="-492.59" font-family="Times New Roman,serif" font-size="14.00">[b8..bd)</text>
<text text-anchor="middle" x="500.26" y="-477.59" font-family="Times New Roman,serif" font-size="14.00">Normalized Count: 5049.00</text>
<text text-anchor="middle" x="500.26" y="-462.59" font-family="Times New Roman,serif" font-size="14.00">Samples weight: 0.01</text>
</g>
<!-- BB11&#45;&gt;BB13 -->
<g id="edge16" class="edge">
<title>BB11&#45;&gt;BB13</title>
<path fill="none" stroke="black" d="M501.59,-554.66C501.44,-546.49 501.28,-537.71 501.12,-529.18"/>
<polygon fill="black" stroke="black" points="504.61,-528.9 500.93,-518.96 497.62,-529.02 504.61,-528.9"/>
</g>
<!-- BB12 -->
<g id="node13" class="node">
<title>BB12</title>
<ellipse fill="none" stroke="black" cx="500.26" cy="-370.34" rx="120.42" ry="37.45"/>
<text text-anchor="middle" x="500.26" y="-381.64" font-family="Times New Roman,serif" font-size="14.00">[a2..b8)</text>
<text text-anchor="middle" x="500.26" y="-366.64" font-family="Times New Roman,serif" font-size="14.00">Normalized Count: 4950.00</text>
<text text-anchor="middle" x="500.26" y="-351.64" font-family="Times New Roman,serif" font-size="14.00">Samples weight: 0.01</text>
</g>
<!-- BB12&#45;&gt;BB13 -->
<g id="edge17" class="edge">
<title>BB12&#45;&gt;BB13</title>
<path fill="none" stroke="black" d="M506.68,-408.01C506.99,-416.19 507.08,-424.97 506.95,-433.49"/>
<polygon fill="black" stroke="black" points="503.44,-433.62 506.67,-443.71 510.44,-433.8 503.44,-433.62"/>
</g>
<!-- BB13&#45;&gt;BB12 -->
<g id="edge18" class="edge">
<title>BB13&#45;&gt;BB12</title>
<path fill="none" stroke="black" d="M493.84,-443.71C493.53,-435.53 493.43,-426.75 493.57,-418.23"/>
<polygon fill="black" stroke="black" points="497.07,-418.1 493.84,-408.01 490.07,-417.91 497.07,-418.1"/>
</g>
<!-- BB13&#45;&gt;BB14 -->
<g id="edge19" class="edge">
<title>BB13&#45;&gt;BB14</title>
<path fill="none" stroke="black" d="M568.72,-512.37C600.62,-526.38 638.71,-543.11 671.58,-557.55"/>
<polygon fill="black" stroke="black" points="670.58,-560.94 681.15,-561.76 673.4,-554.53 670.58,-560.94"/>
</g>
<!-- BB15 -->
<g id="node16" class="node">
<title>BB15</title>
<ellipse fill="none" stroke="black" cx="749.26" cy="-481.29" rx="110.12" ry="37.45"/>
<text text-anchor="middle" x="749.26" y="-492.59" font-family="Times New Roman,serif" font-size="14.00">[c3..ca)</text>
<text text-anchor="middle" x="749.26" y="-477.59" font-family="Times New Roman,serif" font-size="14.00">Normalized Count: 99.00</text>
<text text-anchor="middle" x="749.26" y="-462.59" font-family="Times New Roman,serif" font-size="14.00">Samples weight: 0.00</text>
</g>
<!-- BB14&#45;&gt;BB15 -->
<g id="edge21" class="edge">
<title>BB14&#45;&gt;BB15</title>
<path fill="none" stroke="black" d="M748.59,-554.66C748.67,-546.49 748.75,-537.71 748.83,-529.18"/>
<polygon fill="black" stroke="black" points="752.33,-528.99 748.92,-518.96 745.33,-528.93 752.33,-528.99"/>
</g>
<!-- BB21 -->
<g id="node22" class="node">
<title>BB21</title>
<ellipse fill="none" stroke="black" cx="993.26" cy="-481.29" rx="115.02" ry="37.45"/>
<text text-anchor="middle" x="993.26" y="-492.59" font-family="Times New Roman,serif" font-size="14.00">[10d..111)</text>
<text text-anchor="middle" x="993.26" y="-477.59" font-family="Times New Roman,serif" font-size="14.00">Normalized Count: 100.00</text>
<text text-anchor="middle" x="993.26" y="-462.59" font-family="Times New Roman,serif" font-size="14.00">Samples weight: 0.00</text>
</g>
<!-- BB14&#45;&gt;BB21 -->
<g id="edge20" class="edge">
<title>BB14&#45;&gt;BB21</title>
<path fill="none" stroke="black" d="M814.88,-561.62C846.48,-547.56 884.39,-530.71 917.12,-516.15"/>
<polygon fill="black" stroke="black" points="918.93,-519.17 926.65,-511.91 916.09,-512.78 918.93,-519.17"/>
</g>
<!-- BB20 -->
<g id="node21" class="node">
<title>BB20</title>
<ellipse fill="none" stroke="black" cx="875.26" cy="-370.34" rx="120.42" ry="37.45"/>
<text text-anchor="middle" x="875.26" y="-381.64" font-family="Times New Roman,serif" font-size="14.00">[108..10d)</text>
<text text-anchor="middle" x="875.26" y="-366.64" font-family="Times New Roman,serif" font-size="14.00">Normalized Count: 5049.00</text>
<text text-anchor="middle" x="875.26" y="-351.64" font-family="Times New Roman,serif" font-size="14.00">Samples weight: 0.01</text>
</g>
<!-- BB15&#45;&gt;BB20 -->
<g id="edge22" class="edge">
<title>BB15&#45;&gt;BB20</title>
<path fill="none" stroke="black" d="M788.78,-446.12C801.09,-435.47 814.8,-423.62 827.61,-412.54"/>
<polygon fill="black" stroke="black" points="830.17,-414.95 835.44,-405.76 825.59,-409.66 830.17,-414.95"/>
</g>
<!-- BB16 -->
<g id="node17" class="node">
<title>BB16</title>
<ellipse fill="none" stroke="black" cx="951.26" cy="-259.38" rx="120.42" ry="37.45"/>
<text text-anchor="middle" x="951.26" y="-270.68" font-family="Times New Roman,serif" font-size="14.00">[ca..e2)</text>
<text text-anchor="middle" x="951.26" y="-255.68" font-family="Times New Roman,serif" font-size="14.00">Normalized Count: 4950.00</text>
<text text-anchor="middle" x="951.26" y="-240.68" font-family="Times New Roman,serif" font-size="14.00">Samples weight: 0.01</text>
</g>
<!-- BB18 -->
<g id="node19" class="node">
<title>BB18</title>
<ellipse fill="none" stroke="black" cx="984.26" cy="-148.43" rx="129.3" ry="37.45"/>
<text text-anchor="middle" x="984.26" y="-159.73" font-family="Times New Roman,serif" font-size="14.00">[fd..102)</text>
<text text-anchor="middle" x="984.26" y="-144.73" font-family="Times New Roman,serif" font-size="14.00">Normalized Count: 333300.00</text>
<text text-anchor="middle" x="984.26" y="-129.73" font-family="Times New Roman,serif" font-size="14.00">Samples weight: 0.47</text>
</g>
<!-- BB16&#45;&gt;BB18 -->
<g id="edge23" class="edge">
<title>BB16&#45;&gt;BB18</title>
<path fill="none" stroke="black" d="M962.34,-221.8C964.87,-213.45 967.59,-204.46 970.23,-195.76"/>
<polygon fill="black" stroke="black" points="973.6,-196.69 973.15,-186.1 966.9,-194.66 973.6,-196.69"/>
</g>
<!-- BB17 -->
<g id="node18" class="node">
<title>BB17</title>
<ellipse fill="none" stroke="black" cx="1012.26" cy="-37.48" rx="129.3" ry="37.45"/>
<text text-anchor="middle" x="1012.26" y="-48.78" font-family="Times New Roman,serif" font-size="14.00">[e2..fd)</text>
<text text-anchor="middle" x="1012.26" y="-33.78" font-family="Times New Roman,serif" font-size="14.00">Normalized Count: 328350.00</text>
<text text-anchor="middle" x="1012.26" y="-18.78" font-family="Times New Roman,serif" font-size="14.00">Samples weight: 0.47</text>
</g>
<!-- BB17&#45;&gt;BB18 -->
<g id="edge24" class="edge">
<title>BB17&#45;&gt;BB18</title>
<path fill="none" stroke="black" d="M1009.29,-74.97C1007.45,-83.44 1005.19,-92.56 1002.77,-101.37"/>
<polygon fill="black" stroke="black" points="999.36,-100.57 999.99,-111.15 1006.09,-102.49 999.36,-100.57"/>
</g>
<!-- BB18&#45;&gt;BB17 -->
<g id="edge25" class="edge">
<title>BB18&#45;&gt;BB17</title>
<path fill="none" stroke="black" d="M987.24,-110.85C989.09,-102.4 991.34,-93.31 993.75,-84.52"/>
<polygon fill="black" stroke="black" points="997.15,-85.35 996.52,-74.78 990.42,-83.44 997.15,-85.35"/>
</g>
<!-- BB19 -->
<g id="node20" class="node">
<title>BB19</title>
<ellipse fill="none" stroke="black" cx="744.26" cy="-37.48" rx="120.42" ry="37.45"/>
<text text-anchor="middle" x="744.26" y="-48.78" font-family="Times New Roman,serif" font-size="14.00">[102..108)</text>
<text text-anchor="middle" x="744.26" y="-33.78" font-family="Times New Roman,serif" font-size="14.00">Normalized Count: 4950.00</text>
<text text-anchor="middle" x="744.26" y="-18.78" font-family="Times New Roman,serif" font-size="14.00">Samples weight: 0.01</text>
</g>
<!-- BB18&#45;&gt;BB19 -->
<g id="edge26" class="edge">
<title>BB18&#45;&gt;BB19</title>
<path fill="none" stroke="black" d="M916.13,-116.5C886.24,-102.93 851.03,-86.95 820.29,-72.99"/>
<polygon fill="black" stroke="black" points="821.46,-69.68 810.9,-68.73 818.56,-76.05 821.46,-69.68"/>
</g>
<!-- BB19&#45;&gt;BB20 -->
<g id="edge27" class="edge">
<title>BB19&#45;&gt;BB20</title>
<path fill="none" stroke="black" d="M751.21,-75.03C761.88,-126.45 785.06,-222.21 822.26,-296.86 827.1,-306.58 833.24,-316.38 839.6,-325.49"/>
<polygon fill="black" stroke="black" points="836.79,-327.58 845.47,-333.65 842.47,-323.49 836.79,-327.58"/>
</g>
<!-- BB20&#45;&gt;BB16 -->
<g id="edge28" class="edge">
<title>BB20&#45;&gt;BB16</title>
<path fill="none" stroke="black" d="M900.14,-333.66C906.64,-324.35 913.72,-314.2 920.48,-304.51"/>
<polygon fill="black" stroke="black" points="923.47,-306.34 926.32,-296.14 917.73,-302.34 923.47,-306.34"/>
</g>
<!-- BB20&#45;&gt;BB21 -->
<g id="edge29" class="edge">
<title>BB20&#45;&gt;BB21</title>
<path fill="none" stroke="black" d="M912.76,-405.96C924.07,-416.4 936.6,-427.97 948.34,-438.82"/>
<polygon fill="black" stroke="black" points="946.2,-441.6 955.92,-445.82 950.95,-436.46 946.2,-441.6"/>
</g>
<!-- BB21&#45;&gt;BB22 -->
<g id="edge30" class="edge">
<title>BB21&#45;&gt;BB22</title>
<path fill="none" stroke="black" d="M993.26,-518.87C993.26,-562.51 993.26,-637.68 993.26,-702.2 993.26,-1037.06 993.26,-1037.06 993.26,-1037.06 993.26,-1096.79 993.26,-1165.65 993.26,-1210.17"/>
<polygon fill="black" stroke="black" points="989.76,-1210.39 993.26,-1220.39 996.76,-1210.39 989.76,-1210.39"/>
</g>
<!-- BB22&#45;&gt;BB1 -->
<g id="edge31" class="edge">
<title>BB22&#45;&gt;BB1</title>
<path fill="none" stroke="black" d="M924.39,-1227.77C890.54,-1213.42 849.6,-1196.06 814.56,-1181.21"/>
<polygon fill="black" stroke="black" points="815.89,-1177.97 805.32,-1177.29 813.16,-1184.41 815.89,-1177.97"/>
</g>
<!-- BB23 -->
<g id="node24" class="node">
<title>BB23</title>
<ellipse fill="none" stroke="black" cx="1126.26" cy="-1147.01" rx="105.22" ry="37.45"/>
<text text-anchor="middle" x="1126.26" y="-1158.31" font-family="Times New Roman,serif" font-size="14.00">[118..11a)</text>
<text text-anchor="middle" x="1126.26" y="-1143.31" font-family="Times New Roman,serif" font-size="14.00">Normalized Count: 1.00</text>
<text text-anchor="middle" x="1126.26" y="-1128.31" font-family="Times New Roman,serif" font-size="14.00">Samples weight: 0.00</text>
</g>
<!-- BB22&#45;&gt;BB23 -->
<g id="edge32" class="edge">
<title>BB22&#45;&gt;BB23</title>
<path fill="none" stroke="black" d="M1034.98,-1222.79C1048.35,-1211.83 1063.28,-1199.6 1077.13,-1188.25"/>
<polygon fill="black" stroke="black" points="1079.63,-1190.73 1085.15,-1181.69 1075.19,-1185.32 1079.63,-1190.73"/>
</g>
</g>
</svg>
