<?xml version="1.0" encoding="UTF-8" standalone="no"?>
<!DOCTYPE svg PUBLIC "-//W3C//DTD SVG 1.1//EN"
 "http://www.w3.org/Graphics/SVG/1.1/DTD/svg11.dtd">
<!-- Generated by graphviz version 2.47.0 (20210316.0004)
 -->
<!-- Title: G Pages: 1 -->
<svg width="581pt" height="749pt"
 viewBox="0.00 0.00 580.72 748.67" xmlns="http://www.w3.org/2000/svg" xmlns:xlink="http://www.w3.org/1999/xlink">
<g id="graph0" class="graph" transform="scale(1 1) rotate(0) translate(4 744.67)">
<title>G</title>
<polygon fill="white" stroke="transparent" points="-4,4 -4,-744.67 576.72,-744.67 576.72,4 -4,4"/>
<!-- BB0 -->
<g id="node1" class="node">
<title>BB0</title>
<ellipse fill="none" stroke="black" cx="238.36" cy="-703.2" rx="105.22" ry="37.45"/>
<text text-anchor="middle" x="238.36" y="-714.5" font-family="Times New Roman,serif" font-size="14.00">[0..a)</text>
<text text-anchor="middle" x="238.36" y="-699.5" font-family="Times New Roman,serif" font-size="14.00">Normalized Count: 1.00</text>
<text text-anchor="middle" x="238.36" y="-684.5" font-family="Times New Roman,serif" font-size="14.00">Samples weight: 0.00</text>
</g>
<!-- BB8 -->
<g id="node9" class="node">
<title>BB8</title>
<ellipse fill="none" stroke="black" cx="238.36" cy="-592.24" rx="105.22" ry="37.45"/>
<text text-anchor="middle" x="238.36" y="-603.54" font-family="Times New Roman,serif" font-size="14.00">[51..56)</text>
<text text-anchor="middle" x="238.36" y="-588.54" font-family="Times New Roman,serif" font-size="14.00">Normalized Count: 1.50</text>
<text text-anchor="middle" x="238.36" y="-573.54" font-family="Times New Roman,serif" font-size="14.00">Samples weight: 0.00</text>
</g>
<!-- BB0&#45;&gt;BB8 -->
<g id="edge1" class="edge">
<title>BB0&#45;&gt;BB8</title>
<path fill="none" stroke="black" d="M238.36,-665.61C238.36,-657.44 238.36,-648.66 238.36,-640.13"/>
<polygon fill="black" stroke="black" points="241.86,-639.92 238.36,-629.92 234.86,-639.92 241.86,-639.92"/>
</g>
<!-- BB1 -->
<g id="node2" class="node">
<title>BB1</title>
<ellipse fill="none" stroke="black" cx="238.36" cy="-481.29" rx="105.22" ry="37.45"/>
<text text-anchor="middle" x="238.36" y="-492.59" font-family="Times New Roman,serif" font-size="14.00">[a..e)</text>
<text text-anchor="middle" x="238.36" y="-477.59" font-family="Times New Roman,serif" font-size="14.00">Normalized Count: 0.50</text>
<text text-anchor="middle" x="238.36" y="-462.59" font-family="Times New Roman,serif" font-size="14.00">Samples weight: 0.00</text>
</g>
<!-- BB6 -->
<g id="node7" class="node">
<title>BB6</title>
<ellipse fill="none" stroke="black" cx="241.36" cy="-370.34" rx="110.12" ry="37.45"/>
<text text-anchor="middle" x="241.36" y="-381.64" font-family="Times New Roman,serif" font-size="14.00">[49..4d)</text>
<text text-anchor="middle" x="241.36" y="-366.64" font-family="Times New Roman,serif" font-size="14.00">Normalized Count: 79.50</text>
<text text-anchor="middle" x="241.36" y="-351.64" font-family="Times New Roman,serif" font-size="14.00">Samples weight: 0.05</text>
</g>
<!-- BB1&#45;&gt;BB6 -->
<g id="edge2" class="edge">
<title>BB1&#45;&gt;BB6</title>
<path fill="none" stroke="black" d="M239.37,-443.71C239.59,-435.53 239.83,-426.75 240.07,-418.23"/>
<polygon fill="black" stroke="black" points="243.57,-418.1 240.35,-408.01 236.58,-417.91 243.57,-418.1"/>
</g>
<!-- BB2 -->
<g id="node3" class="node">
<title>BB2</title>
<ellipse fill="none" stroke="black" cx="392.36" cy="-259.38" rx="110.12" ry="37.45"/>
<text text-anchor="middle" x="392.36" y="-270.68" font-family="Times New Roman,serif" font-size="14.00">[e..26)</text>
<text text-anchor="middle" x="392.36" y="-255.68" font-family="Times New Roman,serif" font-size="14.00">Normalized Count: 79.00</text>
<text text-anchor="middle" x="392.36" y="-240.68" font-family="Times New Roman,serif" font-size="14.00">Samples weight: 0.05</text>
</g>
<!-- BB4 -->
<g id="node5" class="node">
<title>BB4</title>
<ellipse fill="none" stroke="black" cx="407.36" cy="-148.43" rx="115.02" ry="37.45"/>
<text text-anchor="middle" x="407.36" y="-159.73" font-family="Times New Roman,serif" font-size="14.00">[3b..41)</text>
<text text-anchor="middle" x="407.36" y="-144.73" font-family="Times New Roman,serif" font-size="14.00">Normalized Count: 767.50</text>
<text text-anchor="middle" x="407.36" y="-129.73" font-family="Times New Roman,serif" font-size="14.00">Samples weight: 0.45</text>
</g>
<!-- BB2&#45;&gt;BB4 -->
<g id="edge3" class="edge">
<title>BB2&#45;&gt;BB4</title>
<path fill="none" stroke="black" d="M397.4,-221.8C398.53,-213.54 399.76,-204.65 400.94,-196.04"/>
<polygon fill="black" stroke="black" points="404.41,-196.49 402.31,-186.1 397.48,-195.53 404.41,-196.49"/>
</g>
<!-- BB3 -->
<g id="node4" class="node">
<title>BB3</title>
<ellipse fill="none" stroke="black" cx="433.36" cy="-37.48" rx="115.02" ry="37.45"/>
<text text-anchor="middle" x="433.36" y="-48.78" font-family="Times New Roman,serif" font-size="14.00">[26..3b)</text>
<text text-anchor="middle" x="433.36" y="-33.78" font-family="Times New Roman,serif" font-size="14.00">Normalized Count: 688.50</text>
<text text-anchor="middle" x="433.36" y="-18.78" font-family="Times New Roman,serif" font-size="14.00">Samples weight: 0.41</text>
</g>
<!-- BB3&#45;&gt;BB4 -->
<g id="edge4" class="edge">
<title>BB3&#45;&gt;BB4</title>
<path fill="none" stroke="black" d="M431.06,-74.97C429.37,-83.44 427.28,-92.56 425.03,-101.37"/>
<polygon fill="black" stroke="black" points="421.62,-100.59 422.42,-111.15 428.38,-102.39 421.62,-100.59"/>
</g>
<!-- BB4&#45;&gt;BB3 -->
<g id="edge5" class="edge">
<title>BB4&#45;&gt;BB3</title>
<path fill="none" stroke="black" d="M409.67,-110.85C411.36,-102.4 413.44,-93.31 415.69,-84.52"/>
<polygon fill="black" stroke="black" points="419.1,-85.34 418.29,-74.78 412.33,-83.54 419.1,-85.34"/>
</g>
<!-- BB5 -->
<g id="node6" class="node">
<title>BB5</title>
<ellipse fill="none" stroke="black" cx="189.36" cy="-37.48" rx="110.12" ry="37.45"/>
<text text-anchor="middle" x="189.36" y="-48.78" font-family="Times New Roman,serif" font-size="14.00">[41..49)</text>
<text text-anchor="middle" x="189.36" y="-33.78" font-family="Times New Roman,serif" font-size="14.00">Normalized Count: 79.00</text>
<text text-anchor="middle" x="189.36" y="-18.78" font-family="Times New Roman,serif" font-size="14.00">Samples weight: 0.05</text>
</g>
<!-- BB4&#45;&gt;BB5 -->
<g id="edge6" class="edge">
<title>BB4&#45;&gt;BB5</title>
<path fill="none" stroke="black" d="M345.76,-116.65C318.84,-103.19 287.13,-87.34 259.32,-73.44"/>
<polygon fill="black" stroke="black" points="260.56,-70.15 250.05,-68.81 257.43,-76.41 260.56,-70.15"/>
</g>
<!-- BB5&#45;&gt;BB6 -->
<g id="edge7" class="edge">
<title>BB5&#45;&gt;BB6</title>
<path fill="none" stroke="black" d="M195.49,-75C201.66,-112 211.38,-170.9 219.36,-221.91 224.61,-255.49 230.27,-293.43 234.53,-322.41"/>
<polygon fill="black" stroke="black" points="231.12,-323.27 236.03,-332.66 238.04,-322.26 231.12,-323.27"/>
</g>
<!-- BB6&#45;&gt;BB2 -->
<g id="edge8" class="edge">
<title>BB6&#45;&gt;BB2</title>
<path fill="none" stroke="black" d="M287.48,-336.06C303.36,-324.6 321.3,-311.66 337.78,-299.76"/>
<polygon fill="black" stroke="black" points="340.19,-302.34 346.26,-293.65 336.1,-296.66 340.19,-302.34"/>
</g>
<!-- BB7 -->
<g id="node8" class="node">
<title>BB7</title>
<ellipse fill="none" stroke="black" cx="105.36" cy="-259.38" rx="105.22" ry="37.45"/>
<text text-anchor="middle" x="105.36" y="-270.68" font-family="Times New Roman,serif" font-size="14.00">[4d..51)</text>
<text text-anchor="middle" x="105.36" y="-255.68" font-family="Times New Roman,serif" font-size="14.00">Normalized Count: 0.50</text>
<text text-anchor="middle" x="105.36" y="-240.68" font-family="Times New Roman,serif" font-size="14.00">Samples weight: 0.00</text>
</g>
<!-- BB6&#45;&gt;BB7 -->
<g id="edge9" class="edge">
<title>BB6&#45;&gt;BB7</title>
<path fill="none" stroke="black" d="M199.07,-335.46C185.13,-324.29 169.48,-311.76 155.04,-300.18"/>
<polygon fill="black" stroke="black" points="157.14,-297.39 147.15,-293.86 152.77,-302.85 157.14,-297.39"/>
</g>
<!-- BB7&#45;&gt;BB8 -->
<g id="edge10" class="edge">
<title>BB7&#45;&gt;BB8</title>
<path fill="none" stroke="black" d="M98.4,-296.81C90.29,-349.77 82.81,-449.28 124.36,-518.77 133.75,-534.48 148.02,-547.34 163.3,-557.64"/>
<polygon fill="black" stroke="black" points="161.56,-560.68 171.88,-563.1 165.32,-554.78 161.56,-560.68"/>
</g>
<!-- BB8&#45;&gt;BB1 -->
<g id="edge11" class="edge">
<title>BB8&#45;&gt;BB1</title>
<path fill="none" stroke="black" d="M238.36,-554.66C238.36,-546.49 238.36,-537.71 238.36,-529.18"/>
<polygon fill="black" stroke="black" points="241.86,-528.96 238.36,-518.96 234.86,-528.96 241.86,-528.96"/>
</g>
<!-- BB9 -->
<g id="node10" class="node">
<title>BB9</title>
<ellipse fill="none" stroke="black" cx="467.36" cy="-481.29" rx="105.22" ry="37.45"/>
<text text-anchor="middle" x="467.36" y="-492.59" font-family="Times New Roman,serif" font-size="14.00">[56..57)</text>
<text text-anchor="middle" x="467.36" y="-477.59" font-family="Times New Roman,serif" font-size="14.00">Normalized Count: 1.00</text>
<text text-anchor="middle" x="467.36" y="-462.59" font-family="Times New Roman,serif" font-size="14.00">Samples weight: 0.00</text>
</g>
<!-- BB8&#45;&gt;BB9 -->
<g id="edge12" class="edge">
<title>BB8&#45;&gt;BB9</title>
<path fill="none" stroke="black" d="M300.33,-561.76C329.86,-547.71 365.34,-530.83 395.99,-516.24"/>
<polygon fill="black" stroke="black" points="397.81,-519.25 405.34,-511.8 394.8,-512.93 397.81,-519.25"/>
</g>
</g>
</svg>
