<?xml version="1.0" encoding="UTF-8" standalone="no"?>
<!DOCTYPE svg PUBLIC "-//W3C//DTD SVG 1.1//EN"
 "http://www.w3.org/Graphics/SVG/1.1/DTD/svg11.dtd">
<!-- Generated by graphviz version 2.47.0 (20210316.0004)
 -->
<!-- Title: G Pages: 1 -->
<svg width="562pt" height="749pt"
 viewBox="0.00 0.00 561.72 748.67" xmlns="http://www.w3.org/2000/svg" xmlns:xlink="http://www.w3.org/1999/xlink">
<g id="graph0" class="graph" transform="scale(1 1) rotate(0) translate(4 744.67)">
<title>G</title>
<polygon fill="white" stroke="transparent" points="-4,4 -4,-744.67 557.72,-744.67 557.72,4 -4,4"/>
<!-- BB0 -->
<g id="node1" class="node">
<title>BB0</title>
<ellipse fill="none" stroke="black" cx="219.36" cy="-703.2" rx="105.22" ry="37.45"/>
<text text-anchor="middle" x="219.36" y="-714.5" font-family="Times New Roman,serif" font-size="14.00">[0..20)</text>
<text text-anchor="middle" x="219.36" y="-699.5" font-family="Times New Roman,serif" font-size="14.00">Normalized Count: 1.00</text>
<text text-anchor="middle" x="219.36" y="-684.5" font-family="Times New Roman,serif" font-size="14.00">Samples weight: 0.13</text>
</g>
<!-- BB1 -->
<g id="node2" class="node">
<title>BB1</title>
<ellipse fill="none" stroke="black" cx="105.36" cy="-592.24" rx="105.22" ry="37.45"/>
<text text-anchor="middle" x="105.36" y="-603.54" font-family="Times New Roman,serif" font-size="14.00">[20..29)</text>
<text text-anchor="middle" x="105.36" y="-588.54" font-family="Times New Roman,serif" font-size="14.00">Normalized Count: 0.50</text>
<text text-anchor="middle" x="105.36" y="-573.54" font-family="Times New Roman,serif" font-size="14.00">Samples weight: 0.07</text>
</g>
<!-- BB0&#45;&gt;BB1 -->
<g id="edge2" class="edge">
<title>BB0&#45;&gt;BB1</title>
<path fill="none" stroke="black" d="M183.29,-667.72C172.27,-657.19 160.03,-645.49 148.58,-634.55"/>
<polygon fill="black" stroke="black" points="150.84,-631.87 141.19,-627.49 146.01,-636.93 150.84,-631.87"/>
</g>
<!-- BB2 -->
<g id="node3" class="node">
<title>BB2</title>
<ellipse fill="none" stroke="black" cx="334.36" cy="-592.24" rx="105.22" ry="37.45"/>
<text text-anchor="middle" x="334.36" y="-603.54" font-family="Times New Roman,serif" font-size="14.00">[29..3f)</text>
<text text-anchor="middle" x="334.36" y="-588.54" font-family="Times New Roman,serif" font-size="14.00">Normalized Count: 1.00</text>
<text text-anchor="middle" x="334.36" y="-573.54" font-family="Times New Roman,serif" font-size="14.00">Samples weight: 0.13</text>
</g>
<!-- BB0&#45;&gt;BB2 -->
<g id="edge1" class="edge">
<title>BB0&#45;&gt;BB2</title>
<path fill="none" stroke="black" d="M255.75,-667.72C266.87,-657.19 279.21,-645.49 290.76,-634.55"/>
<polygon fill="black" stroke="black" points="293.36,-636.91 298.21,-627.49 288.54,-631.83 293.36,-636.91"/>
</g>
<!-- BB1&#45;&gt;BB2 -->
<g id="edge3" class="edge">
<title>BB1&#45;&gt;BB2</title>
<path fill="none" stroke="black" d="M210.91,-592.24C213.52,-592.24 216.12,-592.24 218.72,-592.24"/>
<polygon fill="black" stroke="black" points="218.76,-595.74 228.76,-592.24 218.76,-588.74 218.76,-595.74"/>
</g>
<!-- BB3 -->
<g id="node4" class="node">
<title>BB3</title>
<ellipse fill="none" stroke="black" cx="219.36" cy="-481.29" rx="105.22" ry="37.45"/>
<text text-anchor="middle" x="219.36" y="-492.59" font-family="Times New Roman,serif" font-size="14.00">[3f..49)</text>
<text text-anchor="middle" x="219.36" y="-477.59" font-family="Times New Roman,serif" font-size="14.00">Normalized Count: 0.06</text>
<text text-anchor="middle" x="219.36" y="-462.59" font-family="Times New Roman,serif" font-size="14.00">Samples weight: 0.01</text>
</g>
<!-- BB2&#45;&gt;BB3 -->
<g id="edge5" class="edge">
<title>BB2&#45;&gt;BB3</title>
<path fill="none" stroke="black" d="M297.97,-556.77C286.85,-546.23 274.51,-534.54 262.96,-523.6"/>
<polygon fill="black" stroke="black" points="265.18,-520.88 255.51,-516.54 260.36,-525.96 265.18,-520.88"/>
</g>
<!-- BB4 -->
<g id="node5" class="node">
<title>BB4</title>
<ellipse fill="none" stroke="black" cx="448.36" cy="-481.29" rx="105.22" ry="37.45"/>
<text text-anchor="middle" x="448.36" y="-492.59" font-family="Times New Roman,serif" font-size="14.00">[49..57)</text>
<text text-anchor="middle" x="448.36" y="-477.59" font-family="Times New Roman,serif" font-size="14.00">Normalized Count: 0.94</text>
<text text-anchor="middle" x="448.36" y="-462.59" font-family="Times New Roman,serif" font-size="14.00">Samples weight: 0.13</text>
</g>
<!-- BB2&#45;&gt;BB4 -->
<g id="edge4" class="edge">
<title>BB2&#45;&gt;BB4</title>
<path fill="none" stroke="black" d="M370.43,-556.77C381.45,-546.23 393.69,-534.54 405.14,-523.6"/>
<polygon fill="black" stroke="black" points="407.71,-525.98 412.52,-516.54 402.88,-520.92 407.71,-525.98"/>
</g>
<!-- BB5 -->
<g id="node6" class="node">
<title>BB5</title>
<ellipse fill="none" stroke="black" cx="333.36" cy="-370.34" rx="105.22" ry="37.45"/>
<text text-anchor="middle" x="333.36" y="-381.64" font-family="Times New Roman,serif" font-size="14.00">[57..5f)</text>
<text text-anchor="middle" x="333.36" y="-366.64" font-family="Times New Roman,serif" font-size="14.00">Normalized Count: 1.00</text>
<text text-anchor="middle" x="333.36" y="-351.64" font-family="Times New Roman,serif" font-size="14.00">Samples weight: 0.13</text>
</g>
<!-- BB3&#45;&gt;BB5 -->
<g id="edge6" class="edge">
<title>BB3&#45;&gt;BB5</title>
<path fill="none" stroke="black" d="M255.43,-445.82C266.45,-435.28 278.69,-423.59 290.14,-412.65"/>
<polygon fill="black" stroke="black" points="292.71,-415.03 297.52,-405.59 287.88,-409.96 292.71,-415.03"/>
</g>
<!-- BB4&#45;&gt;BB5 -->
<g id="edge7" class="edge">
<title>BB4&#45;&gt;BB5</title>
<path fill="none" stroke="black" d="M411.97,-445.82C400.85,-435.28 388.51,-423.59 376.96,-412.65"/>
<polygon fill="black" stroke="black" points="379.18,-409.92 369.51,-405.59 374.36,-415 379.18,-409.92"/>
</g>
<!-- BB6 -->
<g id="node7" class="node">
<title>BB6</title>
<ellipse fill="none" stroke="black" cx="219.36" cy="-259.38" rx="105.22" ry="37.45"/>
<text text-anchor="middle" x="219.36" y="-270.68" font-family="Times New Roman,serif" font-size="14.00">[5f..69)</text>
<text text-anchor="middle" x="219.36" y="-255.68" font-family="Times New Roman,serif" font-size="14.00">Normalized Count: 0.06</text>
<text text-anchor="middle" x="219.36" y="-240.68" font-family="Times New Roman,serif" font-size="14.00">Samples weight: 0.01</text>
</g>
<!-- BB5&#45;&gt;BB6 -->
<g id="edge9" class="edge">
<title>BB5&#45;&gt;BB6</title>
<path fill="none" stroke="black" d="M297.29,-334.86C286.27,-324.33 274.03,-312.63 262.58,-301.69"/>
<polygon fill="black" stroke="black" points="264.84,-299.01 255.19,-294.63 260.01,-304.07 264.84,-299.01"/>
</g>
<!-- BB7 -->
<g id="node8" class="node">
<title>BB7</title>
<ellipse fill="none" stroke="black" cx="448.36" cy="-259.38" rx="105.22" ry="37.45"/>
<text text-anchor="middle" x="448.36" y="-270.68" font-family="Times New Roman,serif" font-size="14.00">[69..77)</text>
<text text-anchor="middle" x="448.36" y="-255.68" font-family="Times New Roman,serif" font-size="14.00">Normalized Count: 0.94</text>
<text text-anchor="middle" x="448.36" y="-240.68" font-family="Times New Roman,serif" font-size="14.00">Samples weight: 0.13</text>
</g>
<!-- BB5&#45;&gt;BB7 -->
<g id="edge8" class="edge">
<title>BB5&#45;&gt;BB7</title>
<path fill="none" stroke="black" d="M369.75,-334.86C380.87,-324.33 393.21,-312.63 404.76,-301.69"/>
<polygon fill="black" stroke="black" points="407.36,-304.05 412.21,-294.63 402.54,-298.97 407.36,-304.05"/>
</g>
<!-- BB8 -->
<g id="node9" class="node">
<title>BB8</title>
<ellipse fill="none" stroke="black" cx="333.36" cy="-148.43" rx="105.22" ry="37.45"/>
<text text-anchor="middle" x="333.36" y="-159.73" font-family="Times New Roman,serif" font-size="14.00">[77..7f)</text>
<text text-anchor="middle" x="333.36" y="-144.73" font-family="Times New Roman,serif" font-size="14.00">Normalized Count: 1.00</text>
<text text-anchor="middle" x="333.36" y="-129.73" font-family="Times New Roman,serif" font-size="14.00">Samples weight: 0.13</text>
</g>
<!-- BB6&#45;&gt;BB8 -->
<g id="edge10" class="edge">
<title>BB6&#45;&gt;BB8</title>
<path fill="none" stroke="black" d="M255.43,-223.91C266.45,-213.37 278.69,-201.68 290.14,-190.74"/>
<polygon fill="black" stroke="black" points="292.71,-193.12 297.52,-183.68 287.88,-188.06 292.71,-193.12"/>
</g>
<!-- BB7&#45;&gt;BB8 -->
<g id="edge11" class="edge">
<title>BB7&#45;&gt;BB8</title>
<path fill="none" stroke="black" d="M411.97,-223.91C400.85,-213.37 388.51,-201.68 376.96,-190.74"/>
<polygon fill="black" stroke="black" points="379.18,-188.02 369.51,-183.68 374.36,-193.1 379.18,-188.02"/>
</g>
<!-- BB9 -->
<g id="node10" class="node">
<title>BB9</title>
<ellipse fill="none" stroke="black" cx="219.36" cy="-37.48" rx="105.22" ry="37.45"/>
<text text-anchor="middle" x="219.36" y="-48.78" font-family="Times New Roman,serif" font-size="14.00">[7f..97)</text>
<text text-anchor="middle" x="219.36" y="-33.78" font-family="Times New Roman,serif" font-size="14.00">Normalized Count: 0.00</text>
<text text-anchor="middle" x="219.36" y="-18.78" font-family="Times New Roman,serif" font-size="14.00">Samples weight: 0.00</text>
</g>
<!-- BB8&#45;&gt;BB9 -->
<g id="edge13" class="edge">
<title>BB8&#45;&gt;BB9</title>
<path fill="none" stroke="black" d="M297.29,-112.96C286.27,-102.42 274.03,-90.73 262.58,-79.79"/>
<polygon fill="black" stroke="black" points="264.84,-77.1 255.19,-72.73 260.01,-82.17 264.84,-77.1"/>
</g>
<!-- BB10 -->
<g id="node11" class="node">
<title>BB10</title>
<ellipse fill="none" stroke="black" cx="448.36" cy="-37.48" rx="105.22" ry="37.45"/>
<text text-anchor="middle" x="448.36" y="-48.78" font-family="Times New Roman,serif" font-size="14.00">[97..a1)</text>
<text text-anchor="middle" x="448.36" y="-33.78" font-family="Times New Roman,serif" font-size="14.00">Normalized Count: 1.00</text>
<text text-anchor="middle" x="448.36" y="-18.78" font-family="Times New Roman,serif" font-size="14.00">Samples weight: 0.13</text>
</g>
<!-- BB8&#45;&gt;BB10 -->
<g id="edge12" class="edge">
<title>BB8&#45;&gt;BB10</title>
<path fill="none" stroke="black" d="M369.75,-112.96C380.87,-102.42 393.21,-90.73 404.76,-79.79"/>
<polygon fill="black" stroke="black" points="407.36,-82.14 412.21,-72.73 402.54,-77.06 407.36,-82.14"/>
</g>
</g>
</svg>
