<?xml version="1.0" encoding="UTF-8" standalone="no"?>
<!DOCTYPE svg PUBLIC "-//W3C//DTD SVG 1.1//EN"
 "http://www.w3.org/Graphics/SVG/1.1/DTD/svg11.dtd">
<!-- Generated by graphviz version 2.47.0 (20210316.0004)
 -->
<!-- Title: G Pages: 1 -->
<svg width="550pt" height="897pt"
 viewBox="0.00 0.00 550.48 897.17" xmlns="http://www.w3.org/2000/svg" xmlns:xlink="http://www.w3.org/1999/xlink">
<g id="graph0" class="graph" transform="scale(1 1) rotate(0) translate(4 893.17)">
<title>G</title>
<polygon fill="white" stroke="transparent" points="-4,4 -4,-893.17 546.48,-893.17 546.48,4 -4,4"/>
<!-- BB0 -->
<g id="node1" class="node">
<title>BB0</title>
<ellipse fill="none" stroke="black" cx="215.24" cy="-841.08" rx="103.48" ry="48.17"/>
<text text-anchor="middle" x="215.24" y="-859.88" font-family="Times New Roman,serif" font-size="14.00">[0..20)</text>
<text text-anchor="middle" x="215.24" y="-844.88" font-family="Times New Roman,serif" font-size="14.00">Count: 352</text>
<text text-anchor="middle" x="215.24" y="-829.88" font-family="Times New Roman,serif" font-size="14.00">Normalized count: 1.00</text>
<text text-anchor="middle" x="215.24" y="-814.88" font-family="Times New Roman,serif" font-size="14.00">Samples weight: 0.34</text>
</g>
<!-- BB1 -->
<g id="node2" class="node">
<title>BB1</title>
<ellipse fill="none" stroke="black" cx="103.24" cy="-708.92" rx="103.48" ry="48.17"/>
<text text-anchor="middle" x="103.24" y="-727.72" font-family="Times New Roman,serif" font-size="14.00">[20..29)</text>
<text text-anchor="middle" x="103.24" y="-712.72" font-family="Times New Roman,serif" font-size="14.00">Count: 130</text>
<text text-anchor="middle" x="103.24" y="-697.72" font-family="Times New Roman,serif" font-size="14.00">Normalized count: 0.37</text>
<text text-anchor="middle" x="103.24" y="-682.72" font-family="Times New Roman,serif" font-size="14.00">Samples weight: 0.13</text>
</g>
<!-- BB0&#45;&gt;BB1 -->
<g id="edge2" class="edge">
<title>BB0&#45;&gt;BB1</title>
<path fill="none" stroke="black" d="M177.32,-796.01C167.83,-784.99 157.57,-773.06 147.79,-761.7"/>
<polygon fill="black" stroke="black" points="150.29,-759.24 141.12,-753.94 144.99,-763.8 150.29,-759.24"/>
</g>
<!-- BB2 -->
<g id="node3" class="node">
<title>BB2</title>
<ellipse fill="none" stroke="black" cx="327.24" cy="-708.92" rx="103.48" ry="48.17"/>
<text text-anchor="middle" x="327.24" y="-727.72" font-family="Times New Roman,serif" font-size="14.00">[29..3f)</text>
<text text-anchor="middle" x="327.24" y="-712.72" font-family="Times New Roman,serif" font-size="14.00">Count: 304</text>
<text text-anchor="middle" x="327.24" y="-697.72" font-family="Times New Roman,serif" font-size="14.00">Normalized count: 0.86</text>
<text text-anchor="middle" x="327.24" y="-682.72" font-family="Times New Roman,serif" font-size="14.00">Samples weight: 0.30</text>
</g>
<!-- BB0&#45;&gt;BB2 -->
<g id="edge1" class="edge">
<title>BB0&#45;&gt;BB2</title>
<path fill="none" stroke="black" d="M253.16,-796.01C262.64,-784.99 272.91,-773.06 282.68,-761.7"/>
<polygon fill="black" stroke="black" points="285.49,-763.8 289.36,-753.94 280.18,-759.24 285.49,-763.8"/>
</g>
<!-- BB1&#45;&gt;BB2 -->
<g id="edge3" class="edge">
<title>BB1&#45;&gt;BB2</title>
<path fill="none" stroke="black" d="M206.49,-708.92C208.94,-708.92 211.4,-708.92 213.85,-708.92"/>
<polygon fill="black" stroke="black" points="213.94,-712.42 223.94,-708.92 213.94,-705.42 213.94,-712.42"/>
</g>
<!-- BB3 -->
<g id="node4" class="node">
<title>BB3</title>
<ellipse fill="none" stroke="black" cx="215.24" cy="-576.75" rx="103.48" ry="48.17"/>
<text text-anchor="middle" x="215.24" y="-595.55" font-family="Times New Roman,serif" font-size="14.00">[3f..49)</text>
<text text-anchor="middle" x="215.24" y="-580.55" font-family="Times New Roman,serif" font-size="14.00">Count: 12</text>
<text text-anchor="middle" x="215.24" y="-565.55" font-family="Times New Roman,serif" font-size="14.00">Normalized count: 0.03</text>
<text text-anchor="middle" x="215.24" y="-550.55" font-family="Times New Roman,serif" font-size="14.00">Samples weight: 0.01</text>
</g>
<!-- BB2&#45;&gt;BB3 -->
<g id="edge5" class="edge">
<title>BB2&#45;&gt;BB3</title>
<path fill="none" stroke="black" d="M289.32,-663.85C279.83,-652.82 269.57,-640.89 259.79,-629.53"/>
<polygon fill="black" stroke="black" points="262.29,-627.07 253.12,-621.77 256.99,-631.64 262.29,-627.07"/>
</g>
<!-- BB4 -->
<g id="node5" class="node">
<title>BB4</title>
<ellipse fill="none" stroke="black" cx="439.24" cy="-576.75" rx="103.48" ry="48.17"/>
<text text-anchor="middle" x="439.24" y="-595.55" font-family="Times New Roman,serif" font-size="14.00">[49..57)</text>
<text text-anchor="middle" x="439.24" y="-580.55" font-family="Times New Roman,serif" font-size="14.00">Count: 20</text>
<text text-anchor="middle" x="439.24" y="-565.55" font-family="Times New Roman,serif" font-size="14.00">Normalized count: 0.06</text>
<text text-anchor="middle" x="439.24" y="-550.55" font-family="Times New Roman,serif" font-size="14.00">Samples weight: 0.02</text>
</g>
<!-- BB2&#45;&gt;BB4 -->
<g id="edge4" class="edge">
<title>BB2&#45;&gt;BB4</title>
<path fill="none" stroke="black" d="M365.16,-663.85C374.64,-652.82 384.91,-640.89 394.68,-629.53"/>
<polygon fill="black" stroke="black" points="397.49,-631.64 401.36,-621.77 392.18,-627.07 397.49,-631.64"/>
</g>
<!-- BB5 -->
<g id="node6" class="node">
<title>BB5</title>
<ellipse fill="none" stroke="black" cx="327.24" cy="-444.58" rx="103.48" ry="48.17"/>
<text text-anchor="middle" x="327.24" y="-463.38" font-family="Times New Roman,serif" font-size="14.00">[57..5f)</text>
<text text-anchor="middle" x="327.24" y="-448.38" font-family="Times New Roman,serif" font-size="14.00">Count: 29</text>
<text text-anchor="middle" x="327.24" y="-433.38" font-family="Times New Roman,serif" font-size="14.00">Normalized count: 0.08</text>
<text text-anchor="middle" x="327.24" y="-418.38" font-family="Times New Roman,serif" font-size="14.00">Samples weight: 0.03</text>
</g>
<!-- BB3&#45;&gt;BB5 -->
<g id="edge6" class="edge">
<title>BB3&#45;&gt;BB5</title>
<path fill="none" stroke="black" d="M253.16,-531.68C262.64,-520.65 272.91,-508.73 282.68,-497.36"/>
<polygon fill="black" stroke="black" points="285.49,-499.47 289.36,-489.61 280.18,-494.9 285.49,-499.47"/>
</g>
<!-- BB4&#45;&gt;BB5 -->
<g id="edge7" class="edge">
<title>BB4&#45;&gt;BB5</title>
<path fill="none" stroke="black" d="M401.32,-531.68C391.83,-520.65 381.57,-508.73 371.79,-497.36"/>
<polygon fill="black" stroke="black" points="374.29,-494.9 365.12,-489.61 368.99,-499.47 374.29,-494.9"/>
</g>
<!-- BB6 -->
<g id="node7" class="node">
<title>BB6</title>
<ellipse fill="none" stroke="black" cx="215.24" cy="-312.42" rx="103.48" ry="48.17"/>
<text text-anchor="middle" x="215.24" y="-331.22" font-family="Times New Roman,serif" font-size="14.00">[5f..69)</text>
<text text-anchor="middle" x="215.24" y="-316.22" font-family="Times New Roman,serif" font-size="14.00">Count: 27</text>
<text text-anchor="middle" x="215.24" y="-301.22" font-family="Times New Roman,serif" font-size="14.00">Normalized count: 0.08</text>
<text text-anchor="middle" x="215.24" y="-286.22" font-family="Times New Roman,serif" font-size="14.00">Samples weight: 0.03</text>
</g>
<!-- BB5&#45;&gt;BB6 -->
<g id="edge9" class="edge">
<title>BB5&#45;&gt;BB6</title>
<path fill="none" stroke="black" d="M289.32,-399.51C279.83,-388.49 269.57,-376.56 259.79,-365.2"/>
<polygon fill="black" stroke="black" points="262.29,-362.74 253.12,-357.44 256.99,-367.3 262.29,-362.74"/>
</g>
<!-- BB7 -->
<g id="node8" class="node">
<title>BB7</title>
<ellipse fill="none" stroke="black" cx="439.24" cy="-312.42" rx="103.48" ry="48.17"/>
<text text-anchor="middle" x="439.24" y="-331.22" font-family="Times New Roman,serif" font-size="14.00">[69..77)</text>
<text text-anchor="middle" x="439.24" y="-316.22" font-family="Times New Roman,serif" font-size="14.00">Count: 16</text>
<text text-anchor="middle" x="439.24" y="-301.22" font-family="Times New Roman,serif" font-size="14.00">Normalized count: 0.05</text>
<text text-anchor="middle" x="439.24" y="-286.22" font-family="Times New Roman,serif" font-size="14.00">Samples weight: 0.02</text>
</g>
<!-- BB5&#45;&gt;BB7 -->
<g id="edge8" class="edge">
<title>BB5&#45;&gt;BB7</title>
<path fill="none" stroke="black" d="M365.16,-399.51C374.64,-388.49 384.91,-376.56 394.68,-365.2"/>
<polygon fill="black" stroke="black" points="397.49,-367.3 401.36,-357.44 392.18,-362.74 397.49,-367.3"/>
</g>
<!-- BB8 -->
<g id="node9" class="node">
<title>BB8</title>
<ellipse fill="none" stroke="black" cx="327.24" cy="-180.25" rx="103.48" ry="48.17"/>
<text text-anchor="middle" x="327.24" y="-199.05" font-family="Times New Roman,serif" font-size="14.00">[77..7f)</text>
<text text-anchor="middle" x="327.24" y="-184.05" font-family="Times New Roman,serif" font-size="14.00">Count: 42</text>
<text text-anchor="middle" x="327.24" y="-169.05" font-family="Times New Roman,serif" font-size="14.00">Normalized count: 0.12</text>
<text text-anchor="middle" x="327.24" y="-154.05" font-family="Times New Roman,serif" font-size="14.00">Samples weight: 0.04</text>
</g>
<!-- BB6&#45;&gt;BB8 -->
<g id="edge10" class="edge">
<title>BB6&#45;&gt;BB8</title>
<path fill="none" stroke="black" d="M253.16,-267.35C262.64,-256.32 272.91,-244.39 282.68,-233.03"/>
<polygon fill="black" stroke="black" points="285.49,-235.14 289.36,-225.27 280.18,-230.57 285.49,-235.14"/>
</g>
<!-- BB7&#45;&gt;BB8 -->
<g id="edge11" class="edge">
<title>BB7&#45;&gt;BB8</title>
<path fill="none" stroke="black" d="M401.32,-267.35C391.83,-256.32 381.57,-244.39 371.79,-233.03"/>
<polygon fill="black" stroke="black" points="374.29,-230.57 365.12,-225.27 368.99,-235.14 374.29,-230.57"/>
</g>
<!-- BB9 -->
<g id="node10" class="node">
<title>BB9</title>
<ellipse fill="none" stroke="black" cx="215.24" cy="-48.08" rx="103.48" ry="48.17"/>
<text text-anchor="middle" x="215.24" y="-66.88" font-family="Times New Roman,serif" font-size="14.00">[7f..97)</text>
<text text-anchor="middle" x="215.24" y="-51.88" font-family="Times New Roman,serif" font-size="14.00">Count: 0</text>
<text text-anchor="middle" x="215.24" y="-36.88" font-family="Times New Roman,serif" font-size="14.00">Normalized count: 0.00</text>
<text text-anchor="middle" x="215.24" y="-21.88" font-family="Times New Roman,serif" font-size="14.00">Samples weight: 0.00</text>
</g>
<!-- BB8&#45;&gt;BB9 -->
<g id="edge13" class="edge">
<title>BB8&#45;&gt;BB9</title>
<path fill="none" stroke="black" d="M289.32,-135.18C279.83,-124.16 269.57,-112.23 259.79,-100.86"/>
<polygon fill="black" stroke="black" points="262.29,-98.4 253.12,-93.11 256.99,-102.97 262.29,-98.4"/>
</g>
<!-- BB10 -->
<g id="node11" class="node">
<title>BB10</title>
<ellipse fill="none" stroke="black" cx="439.24" cy="-48.08" rx="103.48" ry="48.17"/>
<text text-anchor="middle" x="439.24" y="-66.88" font-family="Times New Roman,serif" font-size="14.00">[97..a1)</text>
<text text-anchor="middle" x="439.24" y="-51.88" font-family="Times New Roman,serif" font-size="14.00">Count: 91</text>
<text text-anchor="middle" x="439.24" y="-36.88" font-family="Times New Roman,serif" font-size="14.00">Normalized count: 0.26</text>
<text text-anchor="middle" x="439.24" y="-21.88" font-family="Times New Roman,serif" font-size="14.00">Samples weight: 0.09</text>
</g>
<!-- BB8&#45;&gt;BB10 -->
<g id="edge12" class="edge">
<title>BB8&#45;&gt;BB10</title>
<path fill="none" stroke="black" d="M365.16,-135.18C374.64,-124.16 384.91,-112.23 394.68,-100.86"/>
<polygon fill="black" stroke="black" points="397.49,-102.97 401.36,-93.11 392.18,-98.4 397.49,-102.97"/>
</g>
</g>
</svg>
