<?xml version="1.0" encoding="UTF-8" standalone="no"?>
<!DOCTYPE svg PUBLIC "-//W3C//DTD SVG 1.1//EN"
 "http://www.w3.org/Graphics/SVG/1.1/DTD/svg11.dtd">
<!-- Generated by graphviz version 2.47.0 (20210316.0004)
 -->
<!-- Title: G Pages: 1 -->
<svg width="949pt" height="1426pt"
 viewBox="0.00 0.00 949.50 1425.83" xmlns="http://www.w3.org/2000/svg" xmlns:xlink="http://www.w3.org/1999/xlink">
<g id="graph0" class="graph" transform="scale(1 1) rotate(0) translate(4 1421.83)">
<title>G</title>
<polygon fill="white" stroke="transparent" points="-4,4 -4,-1421.83 945.5,-1421.83 945.5,4 -4,4"/>
<!-- BB0 -->
<g id="node1" class="node">
<title>BB0</title>
<ellipse fill="none" stroke="black" cx="217.65" cy="-1369.75" rx="104.8" ry="48.17"/>
<text text-anchor="middle" x="217.65" y="-1388.55" font-family="Times New Roman,serif" font-size="14.00">[0..4)</text>
<text text-anchor="middle" x="217.65" y="-1373.55" font-family="Times New Roman,serif" font-size="14.00">Count: 0</text>
<text text-anchor="middle" x="217.65" y="-1358.55" font-family="Times New Roman,serif" font-size="14.00">Normalized count: NaN</text>
<text text-anchor="middle" x="217.65" y="-1343.55" font-family="Times New Roman,serif" font-size="14.00">Samples weight: 0.00</text>
</g>
<!-- BB1 -->
<g id="node2" class="node">
<title>BB1</title>
<ellipse fill="none" stroke="black" cx="104.65" cy="-1237.58" rx="104.8" ry="48.17"/>
<text text-anchor="middle" x="104.65" y="-1256.38" font-family="Times New Roman,serif" font-size="14.00">[4..5)</text>
<text text-anchor="middle" x="104.65" y="-1241.38" font-family="Times New Roman,serif" font-size="14.00">Count: 0</text>
<text text-anchor="middle" x="104.65" y="-1226.38" font-family="Times New Roman,serif" font-size="14.00">Normalized count: NaN</text>
<text text-anchor="middle" x="104.65" y="-1211.38" font-family="Times New Roman,serif" font-size="14.00">Samples weight: 0.00</text>
</g>
<!-- BB0&#45;&gt;BB1 -->
<g id="edge2" class="edge">
<title>BB0&#45;&gt;BB1</title>
<path fill="none" stroke="black" d="M179.4,-1324.68C169.82,-1313.65 159.47,-1301.73 149.6,-1290.36"/>
<polygon fill="black" stroke="black" points="152.07,-1287.86 142.87,-1282.61 146.78,-1292.45 152.07,-1287.86"/>
</g>
<!-- BB2 -->
<g id="node3" class="node">
<title>BB2</title>
<ellipse fill="none" stroke="black" cx="331.65" cy="-1237.58" rx="104.8" ry="48.17"/>
<text text-anchor="middle" x="331.65" y="-1256.38" font-family="Times New Roman,serif" font-size="14.00">[5..f)</text>
<text text-anchor="middle" x="331.65" y="-1241.38" font-family="Times New Roman,serif" font-size="14.00">Count: 0</text>
<text text-anchor="middle" x="331.65" y="-1226.38" font-family="Times New Roman,serif" font-size="14.00">Normalized count: NaN</text>
<text text-anchor="middle" x="331.65" y="-1211.38" font-family="Times New Roman,serif" font-size="14.00">Samples weight: 0.00</text>
</g>
<!-- BB0&#45;&gt;BB2 -->
<g id="edge1" class="edge">
<title>BB0&#45;&gt;BB2</title>
<path fill="none" stroke="black" d="M256.25,-1324.68C265.9,-1313.65 276.35,-1301.73 286.3,-1290.36"/>
<polygon fill="black" stroke="black" points="289.14,-1292.43 293.1,-1282.61 283.87,-1287.82 289.14,-1292.43"/>
</g>
<!-- BB3 -->
<g id="node4" class="node">
<title>BB3</title>
<ellipse fill="none" stroke="black" cx="213.65" cy="-1105.42" rx="104.8" ry="48.17"/>
<text text-anchor="middle" x="213.65" y="-1124.22" font-family="Times New Roman,serif" font-size="14.00">[f..10)</text>
<text text-anchor="middle" x="213.65" y="-1109.22" font-family="Times New Roman,serif" font-size="14.00">Count: 0</text>
<text text-anchor="middle" x="213.65" y="-1094.22" font-family="Times New Roman,serif" font-size="14.00">Normalized count: NaN</text>
<text text-anchor="middle" x="213.65" y="-1079.22" font-family="Times New Roman,serif" font-size="14.00">Samples weight: 0.00</text>
</g>
<!-- BB2&#45;&gt;BB3 -->
<g id="edge4" class="edge">
<title>BB2&#45;&gt;BB3</title>
<path fill="none" stroke="black" d="M292.03,-1192.88C281.82,-1181.61 270.73,-1169.38 260.2,-1157.76"/>
<polygon fill="black" stroke="black" points="262.68,-1155.29 253.37,-1150.23 257.49,-1159.99 262.68,-1155.29"/>
</g>
<!-- BB4 -->
<g id="node5" class="node">
<title>BB4</title>
<ellipse fill="none" stroke="black" cx="449.65" cy="-1105.42" rx="113.69" ry="48.17"/>
<text text-anchor="middle" x="449.65" y="-1124.22" font-family="Times New Roman,serif" font-size="14.00">[10..26)</text>
<text text-anchor="middle" x="449.65" y="-1109.22" font-family="Times New Roman,serif" font-size="14.00">Count: 1</text>
<text text-anchor="middle" x="449.65" y="-1094.22" font-family="Times New Roman,serif" font-size="14.00">Normalized count: Infinity</text>
<text text-anchor="middle" x="449.65" y="-1079.22" font-family="Times New Roman,serif" font-size="14.00">Samples weight: 0.00</text>
</g>
<!-- BB2&#45;&gt;BB4 -->
<g id="edge3" class="edge">
<title>BB2&#45;&gt;BB4</title>
<path fill="none" stroke="black" d="M371.27,-1192.88C381.38,-1181.73 392.34,-1169.64 402.77,-1158.13"/>
<polygon fill="black" stroke="black" points="405.41,-1160.43 409.53,-1150.67 400.22,-1155.73 405.41,-1160.43"/>
</g>
<!-- BB15 -->
<g id="node16" class="node">
<title>BB15</title>
<ellipse fill="none" stroke="black" cx="449.65" cy="-973.25" rx="113.69" ry="48.17"/>
<text text-anchor="middle" x="449.65" y="-992.05" font-family="Times New Roman,serif" font-size="14.00">[1ba..1c1)</text>
<text text-anchor="middle" x="449.65" y="-977.05" font-family="Times New Roman,serif" font-size="14.00">Count: 1</text>
<text text-anchor="middle" x="449.65" y="-962.05" font-family="Times New Roman,serif" font-size="14.00">Normalized count: Infinity</text>
<text text-anchor="middle" x="449.65" y="-947.05" font-family="Times New Roman,serif" font-size="14.00">Samples weight: 0.00</text>
</g>
<!-- BB4&#45;&gt;BB15 -->
<g id="edge5" class="edge">
<title>BB4&#45;&gt;BB15</title>
<path fill="none" stroke="black" d="M449.65,-1057.05C449.65,-1048.79 449.65,-1040.1 449.65,-1031.6"/>
<polygon fill="black" stroke="black" points="453.15,-1031.36 449.65,-1021.36 446.15,-1031.36 453.15,-1031.36"/>
</g>
<!-- BB5 -->
<g id="node6" class="node">
<title>BB5</title>
<ellipse fill="none" stroke="black" cx="449.65" cy="-841.08" rx="113.69" ry="48.17"/>
<text text-anchor="middle" x="449.65" y="-859.88" font-family="Times New Roman,serif" font-size="14.00">[26..8e)</text>
<text text-anchor="middle" x="449.65" y="-844.88" font-family="Times New Roman,serif" font-size="14.00">Count: 3</text>
<text text-anchor="middle" x="449.65" y="-829.88" font-family="Times New Roman,serif" font-size="14.00">Normalized count: Infinity</text>
<text text-anchor="middle" x="449.65" y="-814.88" font-family="Times New Roman,serif" font-size="14.00">Samples weight: 0.00</text>
</g>
<!-- BB7 -->
<g id="node8" class="node">
<title>BB7</title>
<ellipse fill="none" stroke="black" cx="449.65" cy="-708.92" rx="113.69" ry="48.17"/>
<text text-anchor="middle" x="449.65" y="-727.72" font-family="Times New Roman,serif" font-size="14.00">[ea..ef)</text>
<text text-anchor="middle" x="449.65" y="-712.72" font-family="Times New Roman,serif" font-size="14.00">Count: 12</text>
<text text-anchor="middle" x="449.65" y="-697.72" font-family="Times New Roman,serif" font-size="14.00">Normalized count: Infinity</text>
<text text-anchor="middle" x="449.65" y="-682.72" font-family="Times New Roman,serif" font-size="14.00">Samples weight: 0.01</text>
</g>
<!-- BB5&#45;&gt;BB7 -->
<g id="edge6" class="edge">
<title>BB5&#45;&gt;BB7</title>
<path fill="none" stroke="black" d="M449.65,-792.72C449.65,-784.45 449.65,-775.77 449.65,-767.27"/>
<polygon fill="black" stroke="black" points="453.15,-767.02 449.65,-757.02 446.15,-767.02 453.15,-767.02"/>
</g>
<!-- BB6 -->
<g id="node7" class="node">
<title>BB6</title>
<ellipse fill="none" stroke="black" cx="449.65" cy="-576.75" rx="113.69" ry="48.17"/>
<text text-anchor="middle" x="449.65" y="-595.55" font-family="Times New Roman,serif" font-size="14.00">[8e..ea)</text>
<text text-anchor="middle" x="449.65" y="-580.55" font-family="Times New Roman,serif" font-size="14.00">Count: 384</text>
<text text-anchor="middle" x="449.65" y="-565.55" font-family="Times New Roman,serif" font-size="14.00">Normalized count: Infinity</text>
<text text-anchor="middle" x="449.65" y="-550.55" font-family="Times New Roman,serif" font-size="14.00">Samples weight: 0.16</text>
</g>
<!-- BB6&#45;&gt;BB7 -->
<g id="edge7" class="edge">
<title>BB6&#45;&gt;BB7</title>
<path fill="none" stroke="black" d="M456.17,-624.86C456.39,-633.12 456.45,-641.8 456.36,-650.3"/>
<polygon fill="black" stroke="black" points="452.86,-650.49 456.17,-660.55 459.86,-650.62 452.86,-650.49"/>
</g>
<!-- BB7&#45;&gt;BB6 -->
<g id="edge8" class="edge">
<title>BB7&#45;&gt;BB6</title>
<path fill="none" stroke="black" d="M443.13,-660.55C442.91,-652.29 442.85,-643.6 442.94,-635.1"/>
<polygon fill="black" stroke="black" points="446.45,-634.92 443.14,-624.86 439.45,-634.79 446.45,-634.92"/>
</g>
<!-- BB8 -->
<g id="node9" class="node">
<title>BB8</title>
<ellipse fill="none" stroke="black" cx="695.65" cy="-576.75" rx="113.69" ry="48.17"/>
<text text-anchor="middle" x="695.65" y="-595.55" font-family="Times New Roman,serif" font-size="14.00">[ef..f7)</text>
<text text-anchor="middle" x="695.65" y="-580.55" font-family="Times New Roman,serif" font-size="14.00">Count: 4</text>
<text text-anchor="middle" x="695.65" y="-565.55" font-family="Times New Roman,serif" font-size="14.00">Normalized count: Infinity</text>
<text text-anchor="middle" x="695.65" y="-550.55" font-family="Times New Roman,serif" font-size="14.00">Samples weight: 0.00</text>
</g>
<!-- BB7&#45;&gt;BB8 -->
<g id="edge9" class="edge">
<title>BB7&#45;&gt;BB8</title>
<path fill="none" stroke="black" d="M519.82,-670.79C549.93,-654.85 585.27,-636.16 616.33,-619.72"/>
<polygon fill="black" stroke="black" points="618.19,-622.7 625.39,-614.92 614.92,-616.51 618.19,-622.7"/>
</g>
<!-- BB13 -->
<g id="node14" class="node">
<title>BB13</title>
<ellipse fill="none" stroke="black" cx="664.65" cy="-444.58" rx="113.69" ry="48.17"/>
<text text-anchor="middle" x="664.65" y="-463.38" font-family="Times New Roman,serif" font-size="14.00">[1aa..1b2)</text>
<text text-anchor="middle" x="664.65" y="-448.38" font-family="Times New Roman,serif" font-size="14.00">Count: 1</text>
<text text-anchor="middle" x="664.65" y="-433.38" font-family="Times New Roman,serif" font-size="14.00">Normalized count: Infinity</text>
<text text-anchor="middle" x="664.65" y="-418.38" font-family="Times New Roman,serif" font-size="14.00">Samples weight: 0.00</text>
</g>
<!-- BB8&#45;&gt;BB13 -->
<g id="edge10" class="edge">
<title>BB8&#45;&gt;BB13</title>
<path fill="none" stroke="black" d="M684.46,-528.76C682.42,-520.18 680.27,-511.16 678.17,-502.34"/>
<polygon fill="black" stroke="black" points="681.55,-501.42 675.83,-492.51 674.74,-503.05 681.55,-501.42"/>
</g>
<!-- BB9 -->
<g id="node10" class="node">
<title>BB9</title>
<ellipse fill="none" stroke="black" cx="788.65" cy="-312.42" rx="113.69" ry="48.17"/>
<text text-anchor="middle" x="788.65" y="-331.22" font-family="Times New Roman,serif" font-size="14.00">[f7..120)</text>
<text text-anchor="middle" x="788.65" y="-316.22" font-family="Times New Roman,serif" font-size="14.00">Count: 64</text>
<text text-anchor="middle" x="788.65" y="-301.22" font-family="Times New Roman,serif" font-size="14.00">Normalized count: Infinity</text>
<text text-anchor="middle" x="788.65" y="-286.22" font-family="Times New Roman,serif" font-size="14.00">Samples weight: 0.03</text>
</g>
<!-- BB11 -->
<g id="node12" class="node">
<title>BB11</title>
<ellipse fill="none" stroke="black" cx="801.65" cy="-180.25" rx="113.69" ry="48.17"/>
<text text-anchor="middle" x="801.65" y="-199.05" font-family="Times New Roman,serif" font-size="14.00">[19c..1a4)</text>
<text text-anchor="middle" x="801.65" y="-184.05" font-family="Times New Roman,serif" font-size="14.00">Count: 39</text>
<text text-anchor="middle" x="801.65" y="-169.05" font-family="Times New Roman,serif" font-size="14.00">Normalized count: Infinity</text>
<text text-anchor="middle" x="801.65" y="-154.05" font-family="Times New Roman,serif" font-size="14.00">Samples weight: 0.02</text>
</g>
<!-- BB9&#45;&gt;BB11 -->
<g id="edge11" class="edge">
<title>BB9&#45;&gt;BB11</title>
<path fill="none" stroke="black" d="M793.38,-264.05C794.22,-255.7 795.09,-246.91 795.95,-238.32"/>
<polygon fill="black" stroke="black" points="799.44,-238.66 796.95,-228.36 792.47,-237.96 799.44,-238.66"/>
</g>
<!-- BB10 -->
<g id="node11" class="node">
<title>BB10</title>
<ellipse fill="none" stroke="black" cx="827.65" cy="-48.08" rx="113.69" ry="48.17"/>
<text text-anchor="middle" x="827.65" y="-66.88" font-family="Times New Roman,serif" font-size="14.00">[120..19c)</text>
<text text-anchor="middle" x="827.65" y="-51.88" font-family="Times New Roman,serif" font-size="14.00">Count: 1863</text>
<text text-anchor="middle" x="827.65" y="-36.88" font-family="Times New Roman,serif" font-size="14.00">Normalized count: Infinity</text>
<text text-anchor="middle" x="827.65" y="-21.88" font-family="Times New Roman,serif" font-size="14.00">Samples weight: 0.78</text>
</g>
<!-- BB10&#45;&gt;BB11 -->
<g id="edge12" class="edge">
<title>BB10&#45;&gt;BB11</title>
<path fill="none" stroke="black" d="M824.75,-96.26C823.26,-104.86 821.51,-113.92 819.63,-122.77"/>
<polygon fill="black" stroke="black" points="816.19,-122.11 817.47,-132.62 823.03,-123.61 816.19,-122.11"/>
</g>
<!-- BB11&#45;&gt;BB10 -->
<g id="edge13" class="edge">
<title>BB11&#45;&gt;BB10</title>
<path fill="none" stroke="black" d="M804.59,-131.89C806.07,-123.33 807.81,-114.33 809.68,-105.55"/>
<polygon fill="black" stroke="black" points="813.1,-106.27 811.83,-95.76 806.26,-104.77 813.1,-106.27"/>
</g>
<!-- BB12 -->
<g id="node13" class="node">
<title>BB12</title>
<ellipse fill="none" stroke="black" cx="581.65" cy="-48.08" rx="113.69" ry="48.17"/>
<text text-anchor="middle" x="581.65" y="-66.88" font-family="Times New Roman,serif" font-size="14.00">[1a4..1aa)</text>
<text text-anchor="middle" x="581.65" y="-51.88" font-family="Times New Roman,serif" font-size="14.00">Count: 15</text>
<text text-anchor="middle" x="581.65" y="-36.88" font-family="Times New Roman,serif" font-size="14.00">Normalized count: Infinity</text>
<text text-anchor="middle" x="581.65" y="-21.88" font-family="Times New Roman,serif" font-size="14.00">Samples weight: 0.01</text>
</g>
<!-- BB11&#45;&gt;BB12 -->
<g id="edge14" class="edge">
<title>BB11&#45;&gt;BB12</title>
<path fill="none" stroke="black" d="M736.54,-140.72C711.15,-125.7 681.92,-108.41 655.73,-92.91"/>
<polygon fill="black" stroke="black" points="657.37,-89.82 646.98,-87.74 653.8,-95.84 657.37,-89.82"/>
</g>
<!-- BB12&#45;&gt;BB13 -->
<g id="edge15" class="edge">
<title>BB12&#45;&gt;BB13</title>
<path fill="none" stroke="black" d="M591.53,-96.03C606.79,-168.58 636.08,-307.78 652.58,-386.2"/>
<polygon fill="black" stroke="black" points="649.24,-387.32 654.72,-396.39 656.09,-385.88 649.24,-387.32"/>
</g>
<!-- BB13&#45;&gt;BB9 -->
<g id="edge16" class="edge">
<title>BB13&#45;&gt;BB9</title>
<path fill="none" stroke="black" d="M706.63,-399.51C717.24,-388.38 728.72,-376.33 739.64,-364.87"/>
<polygon fill="black" stroke="black" points="742.35,-367.09 746.71,-357.44 737.28,-362.27 742.35,-367.09"/>
</g>
<!-- BB14 -->
<g id="node15" class="node">
<title>BB14</title>
<ellipse fill="none" stroke="black" cx="430.65" cy="-312.42" rx="113.69" ry="48.17"/>
<text text-anchor="middle" x="430.65" y="-331.22" font-family="Times New Roman,serif" font-size="14.00">[1b2..1ba)</text>
<text text-anchor="middle" x="430.65" y="-316.22" font-family="Times New Roman,serif" font-size="14.00">Count: 1</text>
<text text-anchor="middle" x="430.65" y="-301.22" font-family="Times New Roman,serif" font-size="14.00">Normalized count: Infinity</text>
<text text-anchor="middle" x="430.65" y="-286.22" font-family="Times New Roman,serif" font-size="14.00">Samples weight: 0.00</text>
</g>
<!-- BB13&#45;&gt;BB14 -->
<g id="edge17" class="edge">
<title>BB13&#45;&gt;BB14</title>
<path fill="none" stroke="black" d="M596.65,-405.76C568.65,-390.18 536.08,-372.06 507.23,-356.02"/>
<polygon fill="black" stroke="black" points="508.85,-352.91 498.41,-351.11 505.45,-359.03 508.85,-352.91"/>
</g>
<!-- BB14&#45;&gt;BB15 -->
<g id="edge18" class="edge">
<title>BB14&#45;&gt;BB15</title>
<path fill="none" stroke="black" d="M394.74,-358.29C358.44,-408.28 307.65,-493 307.65,-575.75 307.65,-709.92 307.65,-709.92 307.65,-709.92 307.65,-790.03 285.38,-820.5 326.65,-889.17 336.54,-905.62 351.1,-919.54 366.76,-931"/>
<polygon fill="black" stroke="black" points="364.83,-933.92 375.03,-936.77 368.83,-928.18 364.83,-933.92"/>
</g>
<!-- BB15&#45;&gt;BB5 -->
<g id="edge19" class="edge">
<title>BB15&#45;&gt;BB5</title>
<path fill="none" stroke="black" d="M449.65,-924.89C449.65,-916.62 449.65,-907.94 449.65,-899.43"/>
<polygon fill="black" stroke="black" points="453.15,-899.19 449.65,-889.19 446.15,-899.19 453.15,-899.19"/>
</g>
<!-- BB16 -->
<g id="node17" class="node">
<title>BB16</title>
<ellipse fill="none" stroke="black" cx="685.65" cy="-841.08" rx="104.8" ry="48.17"/>
<text text-anchor="middle" x="685.65" y="-859.88" font-family="Times New Roman,serif" font-size="14.00">[1c1..1c2)</text>
<text text-anchor="middle" x="685.65" y="-844.88" font-family="Times New Roman,serif" font-size="14.00">Count: 0</text>
<text text-anchor="middle" x="685.65" y="-829.88" font-family="Times New Roman,serif" font-size="14.00">Normalized count: NaN</text>
<text text-anchor="middle" x="685.65" y="-814.88" font-family="Times New Roman,serif" font-size="14.00">Samples weight: 0.00</text>
</g>
<!-- BB15&#45;&gt;BB16 -->
<g id="edge20" class="edge">
<title>BB15&#45;&gt;BB16</title>
<path fill="none" stroke="black" d="M517.91,-934.6C546.9,-918.61 580.8,-899.91 610.5,-883.53"/>
<polygon fill="black" stroke="black" points="612.51,-886.42 619.58,-878.53 609.13,-880.29 612.51,-886.42"/>
</g>
</g>
</svg>
