<?xml version="1.0" encoding="UTF-8" standalone="no"?>
<!DOCTYPE svg PUBLIC "-//W3C//DTD SVG 1.1//EN"
 "http://www.w3.org/Graphics/SVG/1.1/DTD/svg11.dtd">
<!-- Generated by graphviz version 2.47.0 (20210316.0004)
 -->
<!-- Title: G Pages: 1 -->
<svg width="534pt" height="527pt"
 viewBox="0.00 0.00 533.62 526.77" xmlns="http://www.w3.org/2000/svg" xmlns:xlink="http://www.w3.org/1999/xlink">
<g id="graph0" class="graph" transform="scale(1 1) rotate(0) translate(4 522.77)">
<title>G</title>
<polygon fill="white" stroke="transparent" points="-4,4 -4,-522.77 529.62,-522.77 529.62,4 -4,4"/>
<!-- BB0 -->
<g id="node1" class="node">
<title>BB0</title>
<ellipse fill="none" stroke="black" cx="176.31" cy="-481.29" rx="105.22" ry="37.45"/>
<text text-anchor="middle" x="176.31" y="-492.59" font-family="Times New Roman,serif" font-size="14.00">[0..10)</text>
<text text-anchor="middle" x="176.31" y="-477.59" font-family="Times New Roman,serif" font-size="14.00">Normalized Count: 1.00</text>
<text text-anchor="middle" x="176.31" y="-462.59" font-family="Times New Roman,serif" font-size="14.00">Samples weight: 0.00</text>
</g>
<!-- BB6 -->
<g id="node7" class="node">
<title>BB6</title>
<ellipse fill="none" stroke="black" cx="176.31" cy="-370.34" rx="110.12" ry="37.45"/>
<text text-anchor="middle" x="176.31" y="-381.64" font-family="Times New Roman,serif" font-size="14.00">[6e..72)</text>
<text text-anchor="middle" x="176.31" y="-366.64" font-family="Times New Roman,serif" font-size="14.00">Normalized Count: 53.67</text>
<text text-anchor="middle" x="176.31" y="-351.64" font-family="Times New Roman,serif" font-size="14.00">Samples weight: 0.19</text>
</g>
<!-- BB0&#45;&gt;BB6 -->
<g id="edge1" class="edge">
<title>BB0&#45;&gt;BB6</title>
<path fill="none" stroke="black" d="M176.31,-443.71C176.31,-435.53 176.31,-426.75 176.31,-418.23"/>
<polygon fill="black" stroke="black" points="179.81,-418.01 176.31,-408.01 172.81,-418.01 179.81,-418.01"/>
</g>
<!-- BB1 -->
<g id="node2" class="node">
<title>BB1</title>
<ellipse fill="none" stroke="black" cx="176.31" cy="-259.38" rx="110.12" ry="37.45"/>
<text text-anchor="middle" x="176.31" y="-270.68" font-family="Times New Roman,serif" font-size="14.00">[10..23)</text>
<text text-anchor="middle" x="176.31" y="-255.68" font-family="Times New Roman,serif" font-size="14.00">Normalized Count: 52.67</text>
<text text-anchor="middle" x="176.31" y="-240.68" font-family="Times New Roman,serif" font-size="14.00">Samples weight: 0.19</text>
</g>
<!-- BB2 -->
<g id="node3" class="node">
<title>BB2</title>
<ellipse fill="none" stroke="black" cx="176.31" cy="-148.43" rx="110.12" ry="37.45"/>
<text text-anchor="middle" x="176.31" y="-159.73" font-family="Times New Roman,serif" font-size="14.00">[23..55)</text>
<text text-anchor="middle" x="176.31" y="-144.73" font-family="Times New Roman,serif" font-size="14.00">Normalized Count: 52.67</text>
<text text-anchor="middle" x="176.31" y="-129.73" font-family="Times New Roman,serif" font-size="14.00">Samples weight: 0.19</text>
</g>
<!-- BB1&#45;&gt;BB2 -->
<g id="edge3" class="edge">
<title>BB1&#45;&gt;BB2</title>
<path fill="none" stroke="black" d="M176.31,-221.8C176.31,-213.63 176.31,-204.85 176.31,-196.32"/>
<polygon fill="black" stroke="black" points="179.81,-196.1 176.31,-186.1 172.81,-196.1 179.81,-196.1"/>
</g>
<!-- BB4 -->
<g id="node5" class="node">
<title>BB4</title>
<ellipse fill="none" stroke="black" cx="415.31" cy="-148.43" rx="110.12" ry="37.45"/>
<text text-anchor="middle" x="415.31" y="-159.73" font-family="Times New Roman,serif" font-size="14.00">[60..65)</text>
<text text-anchor="middle" x="415.31" y="-144.73" font-family="Times New Roman,serif" font-size="14.00">Normalized Count: 58.33</text>
<text text-anchor="middle" x="415.31" y="-129.73" font-family="Times New Roman,serif" font-size="14.00">Samples weight: 0.21</text>
</g>
<!-- BB1&#45;&gt;BB4 -->
<g id="edge2" class="edge">
<title>BB1&#45;&gt;BB4</title>
<path fill="none" stroke="black" d="M240.99,-228.9C271.94,-214.79 309.16,-197.82 341.24,-183.2"/>
<polygon fill="black" stroke="black" points="342.93,-186.27 350.58,-178.94 340.03,-179.9 342.93,-186.27"/>
</g>
<!-- BB2&#45;&gt;BB4 -->
<g id="edge4" class="edge">
<title>BB2&#45;&gt;BB4</title>
<path fill="none" stroke="black" d="M286.94,-148.43C289.57,-148.43 292.2,-148.43 294.84,-148.43"/>
<polygon fill="black" stroke="black" points="294.99,-151.93 304.99,-148.43 294.99,-144.93 294.99,-151.93"/>
</g>
<!-- BB3 -->
<g id="node4" class="node">
<title>BB3</title>
<ellipse fill="none" stroke="black" cx="415.31" cy="-37.48" rx="105.22" ry="37.45"/>
<text text-anchor="middle" x="415.31" y="-48.78" font-family="Times New Roman,serif" font-size="14.00">[55..60)</text>
<text text-anchor="middle" x="415.31" y="-33.78" font-family="Times New Roman,serif" font-size="14.00">Normalized Count: 5.67</text>
<text text-anchor="middle" x="415.31" y="-18.78" font-family="Times New Roman,serif" font-size="14.00">Samples weight: 0.02</text>
</g>
<!-- BB3&#45;&gt;BB4 -->
<g id="edge5" class="edge">
<title>BB3&#45;&gt;BB4</title>
<path fill="none" stroke="black" d="M421.73,-75.15C422.04,-83.33 422.13,-92.11 422,-100.63"/>
<polygon fill="black" stroke="black" points="418.49,-100.76 421.72,-110.85 425.49,-100.94 418.49,-100.76"/>
</g>
<!-- BB4&#45;&gt;BB3 -->
<g id="edge6" class="edge">
<title>BB4&#45;&gt;BB3</title>
<path fill="none" stroke="black" d="M408.89,-110.85C408.58,-102.67 408.48,-93.89 408.62,-85.37"/>
<polygon fill="black" stroke="black" points="412.12,-85.24 408.89,-75.15 405.12,-85.05 412.12,-85.24"/>
</g>
<!-- BB5 -->
<g id="node6" class="node">
<title>BB5</title>
<ellipse fill="none" stroke="black" cx="110.31" cy="-37.48" rx="110.12" ry="37.45"/>
<text text-anchor="middle" x="110.31" y="-48.78" font-family="Times New Roman,serif" font-size="14.00">[65..6e)</text>
<text text-anchor="middle" x="110.31" y="-33.78" font-family="Times New Roman,serif" font-size="14.00">Normalized Count: 52.67</text>
<text text-anchor="middle" x="110.31" y="-18.78" font-family="Times New Roman,serif" font-size="14.00">Samples weight: 0.19</text>
</g>
<!-- BB4&#45;&gt;BB5 -->
<g id="edge7" class="edge">
<title>BB4&#45;&gt;BB5</title>
<path fill="none" stroke="black" d="M340.7,-120.78C296.49,-104.99 240.35,-84.93 194.55,-68.57"/>
<polygon fill="black" stroke="black" points="195.54,-65.21 184.94,-65.14 193.18,-71.8 195.54,-65.21"/>
</g>
<!-- BB5&#45;&gt;BB6 -->
<g id="edge8" class="edge">
<title>BB5&#45;&gt;BB6</title>
<path fill="none" stroke="black" d="M77.85,-73.56C69.51,-84.7 61.66,-97.62 57.31,-110.95 31.65,-189.5 16.84,-224.83 57.31,-296.86 66.36,-312.96 80.59,-325.91 96.12,-336.15"/>
<polygon fill="black" stroke="black" points="94.51,-339.27 104.85,-341.56 98.2,-333.32 94.51,-339.27"/>
</g>
<!-- BB6&#45;&gt;BB1 -->
<g id="edge9" class="edge">
<title>BB6&#45;&gt;BB1</title>
<path fill="none" stroke="black" d="M176.31,-332.75C176.31,-324.58 176.31,-315.8 176.31,-307.27"/>
<polygon fill="black" stroke="black" points="179.81,-307.06 176.31,-297.06 172.81,-307.06 179.81,-307.06"/>
</g>
<!-- BB7 -->
<g id="node8" class="node">
<title>BB7</title>
<ellipse fill="none" stroke="black" cx="410.31" cy="-259.38" rx="105.22" ry="37.45"/>
<text text-anchor="middle" x="410.31" y="-270.68" font-family="Times New Roman,serif" font-size="14.00">[72..73)</text>
<text text-anchor="middle" x="410.31" y="-255.68" font-family="Times New Roman,serif" font-size="14.00">Normalized Count: 1.00</text>
<text text-anchor="middle" x="410.31" y="-240.68" font-family="Times New Roman,serif" font-size="14.00">Samples weight: 0.00</text>
</g>
<!-- BB6&#45;&gt;BB7 -->
<g id="edge10" class="edge">
<title>BB6&#45;&gt;BB7</title>
<path fill="none" stroke="black" d="M239.94,-339.71C270.37,-325.54 306.92,-308.52 338.35,-293.89"/>
<polygon fill="black" stroke="black" points="339.91,-297.02 347.5,-289.63 336.96,-290.68 339.91,-297.02"/>
</g>
</g>
</svg>
