<?xml version="1.0" encoding="UTF-8" standalone="no"?>
<!DOCTYPE svg PUBLIC "-//W3C//DTD SVG 1.1//EN"
 "http://www.w3.org/Graphics/SVG/1.1/DTD/svg11.dtd">
<!-- Generated by graphviz version 2.47.0 (20210316.0004)
 -->
<!-- Title: G Pages: 1 -->
<svg width="1198pt" height="1690pt"
 viewBox="0.00 0.00 1198.42 1690.16" xmlns="http://www.w3.org/2000/svg" xmlns:xlink="http://www.w3.org/1999/xlink">
<g id="graph0" class="graph" transform="scale(1 1) rotate(0) translate(4 1686.16)">
<title>G</title>
<polygon fill="white" stroke="transparent" points="-4,4 -4,-1686.16 1194.42,-1686.16 1194.42,4 -4,4"/>
<!-- BB0 -->
<g id="node1" class="node">
<title>BB0</title>
<ellipse fill="none" stroke="black" cx="956.19" cy="-1634.08" rx="103.48" ry="48.17"/>
<text text-anchor="middle" x="956.19" y="-1652.88" font-family="Times New Roman,serif" font-size="14.00">[0..19)</text>
<text text-anchor="middle" x="956.19" y="-1637.88" font-family="Times New Roman,serif" font-size="14.00">Count: 2</text>
<text text-anchor="middle" x="956.19" y="-1622.88" font-family="Times New Roman,serif" font-size="14.00">Normalized count: 1.00</text>
<text text-anchor="middle" x="956.19" y="-1607.88" font-family="Times New Roman,serif" font-size="14.00">Samples weight: 0.00</text>
</g>
<!-- BB22 -->
<g id="node23" class="node">
<title>BB22</title>
<ellipse fill="none" stroke="black" cx="956.19" cy="-1501.92" rx="108.38" ry="48.17"/>
<text text-anchor="middle" x="956.19" y="-1520.72" font-family="Times New Roman,serif" font-size="14.00">[111..118)</text>
<text text-anchor="middle" x="956.19" y="-1505.72" font-family="Times New Roman,serif" font-size="14.00">Count: 51</text>
<text text-anchor="middle" x="956.19" y="-1490.72" font-family="Times New Roman,serif" font-size="14.00">Normalized count: 25.50</text>
<text text-anchor="middle" x="956.19" y="-1475.72" font-family="Times New Roman,serif" font-size="14.00">Samples weight: 0.00</text>
</g>
<!-- BB0&#45;&gt;BB22 -->
<g id="edge1" class="edge">
<title>BB0&#45;&gt;BB22</title>
<path fill="none" stroke="black" d="M956.19,-1585.72C956.19,-1577.45 956.19,-1568.77 956.19,-1560.27"/>
<polygon fill="black" stroke="black" points="959.69,-1560.02 956.19,-1550.02 952.69,-1560.02 959.69,-1560.02"/>
</g>
<!-- BB1 -->
<g id="node2" class="node">
<title>BB1</title>
<ellipse fill="none" stroke="black" cx="727.19" cy="-1369.75" rx="108.38" ry="48.17"/>
<text text-anchor="middle" x="727.19" y="-1388.55" font-family="Times New Roman,serif" font-size="14.00">[19..2f)</text>
<text text-anchor="middle" x="727.19" y="-1373.55" font-family="Times New Roman,serif" font-size="14.00">Count: 120</text>
<text text-anchor="middle" x="727.19" y="-1358.55" font-family="Times New Roman,serif" font-size="14.00">Normalized count: 60.00</text>
<text text-anchor="middle" x="727.19" y="-1343.55" font-family="Times New Roman,serif" font-size="14.00">Samples weight: 0.00</text>
</g>
<!-- BB5 -->
<g id="node6" class="node">
<title>BB5</title>
<ellipse fill="none" stroke="black" cx="547.19" cy="-1237.58" rx="118.17" ry="48.17"/>
<text text-anchor="middle" x="547.19" y="-1256.38" font-family="Times New Roman,serif" font-size="14.00">[50..55)</text>
<text text-anchor="middle" x="547.19" y="-1241.38" font-family="Times New Roman,serif" font-size="14.00">Count: 3826</text>
<text text-anchor="middle" x="547.19" y="-1226.38" font-family="Times New Roman,serif" font-size="14.00">Normalized count: 1913.00</text>
<text text-anchor="middle" x="547.19" y="-1211.38" font-family="Times New Roman,serif" font-size="14.00">Samples weight: 0.00</text>
</g>
<!-- BB1&#45;&gt;BB5 -->
<g id="edge2" class="edge">
<title>BB1&#45;&gt;BB5</title>
<path fill="none" stroke="black" d="M671.22,-1328.28C652.62,-1314.82 631.74,-1299.73 612.5,-1285.81"/>
<polygon fill="black" stroke="black" points="614.51,-1282.95 604.36,-1279.93 610.41,-1288.62 614.51,-1282.95"/>
</g>
<!-- BB2 -->
<g id="node3" class="node">
<title>BB2</title>
<ellipse fill="none" stroke="black" cx="333.19" cy="-1105.42" rx="118.17" ry="48.17"/>
<text text-anchor="middle" x="333.19" y="-1124.22" font-family="Times New Roman,serif" font-size="14.00">[2f..42)</text>
<text text-anchor="middle" x="333.19" y="-1109.22" font-family="Times New Roman,serif" font-size="14.00">Count: 6305</text>
<text text-anchor="middle" x="333.19" y="-1094.22" font-family="Times New Roman,serif" font-size="14.00">Normalized count: 3152.50</text>
<text text-anchor="middle" x="333.19" y="-1079.22" font-family="Times New Roman,serif" font-size="14.00">Samples weight: 0.01</text>
</g>
<!-- BB3 -->
<g id="node4" class="node">
<title>BB3</title>
<ellipse fill="none" stroke="black" cx="108.19" cy="-973.25" rx="108.38" ry="48.17"/>
<text text-anchor="middle" x="108.19" y="-992.05" font-family="Times New Roman,serif" font-size="14.00">[42..4a)</text>
<text text-anchor="middle" x="108.19" y="-977.05" font-family="Times New Roman,serif" font-size="14.00">Count: 167</text>
<text text-anchor="middle" x="108.19" y="-962.05" font-family="Times New Roman,serif" font-size="14.00">Normalized count: 83.50</text>
<text text-anchor="middle" x="108.19" y="-947.05" font-family="Times New Roman,serif" font-size="14.00">Samples weight: 0.00</text>
</g>
<!-- BB2&#45;&gt;BB3 -->
<g id="edge4" class="edge">
<title>BB2&#45;&gt;BB3</title>
<path fill="none" stroke="black" d="M266.29,-1065.71C239.76,-1050.36 209.15,-1032.66 181.97,-1016.94"/>
<polygon fill="black" stroke="black" points="183.69,-1013.88 173.28,-1011.91 180.18,-1019.94 183.69,-1013.88"/>
</g>
<!-- BB4 -->
<g id="node5" class="node">
<title>BB4</title>
<ellipse fill="none" stroke="black" cx="352.19" cy="-973.25" rx="118.17" ry="48.17"/>
<text text-anchor="middle" x="352.19" y="-992.05" font-family="Times New Roman,serif" font-size="14.00">[4a..50)</text>
<text text-anchor="middle" x="352.19" y="-977.05" font-family="Times New Roman,serif" font-size="14.00">Count: 3761</text>
<text text-anchor="middle" x="352.19" y="-962.05" font-family="Times New Roman,serif" font-size="14.00">Normalized count: 1880.50</text>
<text text-anchor="middle" x="352.19" y="-947.05" font-family="Times New Roman,serif" font-size="14.00">Samples weight: 0.00</text>
</g>
<!-- BB2&#45;&gt;BB4 -->
<g id="edge3" class="edge">
<title>BB2&#45;&gt;BB4</title>
<path fill="none" stroke="black" d="M340.1,-1057.05C341.32,-1048.69 342.6,-1039.91 343.86,-1031.32"/>
<polygon fill="black" stroke="black" points="347.33,-1031.76 345.31,-1021.36 340.4,-1030.75 347.33,-1031.76"/>
</g>
<!-- BB3&#45;&gt;BB4 -->
<g id="edge5" class="edge">
<title>BB3&#45;&gt;BB4</title>
<path fill="none" stroke="black" d="M216.84,-973.25C219.17,-973.25 221.5,-973.25 223.82,-973.25"/>
<polygon fill="black" stroke="black" points="224.03,-976.75 234.03,-973.25 224.03,-969.75 224.03,-976.75"/>
</g>
<!-- BB4&#45;&gt;BB5 -->
<g id="edge6" class="edge">
<title>BB4&#45;&gt;BB5</title>
<path fill="none" stroke="black" d="M415.62,-1014.01C431.74,-1026.38 447.95,-1041.08 460.19,-1057.33 487.84,-1094.04 478.01,-1112.21 498.19,-1153.5 502.76,-1162.85 507.99,-1172.55 513.31,-1181.89"/>
<polygon fill="black" stroke="black" points="510.37,-1183.8 518.41,-1190.71 516.43,-1180.3 510.37,-1183.8"/>
</g>
<!-- BB5&#45;&gt;BB2 -->
<g id="edge7" class="edge">
<title>BB5&#45;&gt;BB2</title>
<path fill="none" stroke="black" d="M482.4,-1197.17C458.41,-1182.58 431.05,-1165.94 406.36,-1150.93"/>
<polygon fill="black" stroke="black" points="408.12,-1147.9 397.75,-1145.69 404.48,-1153.88 408.12,-1147.9"/>
</g>
<!-- BB6 -->
<g id="node7" class="node">
<title>BB6</title>
<ellipse fill="none" stroke="black" cx="615.19" cy="-1105.42" rx="108.38" ry="48.17"/>
<text text-anchor="middle" x="615.19" y="-1124.22" font-family="Times New Roman,serif" font-size="14.00">[55..6b)</text>
<text text-anchor="middle" x="615.19" y="-1109.22" font-family="Times New Roman,serif" font-size="14.00">Count: 106</text>
<text text-anchor="middle" x="615.19" y="-1094.22" font-family="Times New Roman,serif" font-size="14.00">Normalized count: 53.00</text>
<text text-anchor="middle" x="615.19" y="-1079.22" font-family="Times New Roman,serif" font-size="14.00">Samples weight: 0.00</text>
</g>
<!-- BB5&#45;&gt;BB6 -->
<g id="edge8" class="edge">
<title>BB5&#45;&gt;BB6</title>
<path fill="none" stroke="black" d="M571.35,-1190.32C576.21,-1181.02 581.37,-1171.16 586.37,-1161.58"/>
<polygon fill="black" stroke="black" points="589.57,-1163.01 591.1,-1152.52 583.37,-1159.77 589.57,-1163.01"/>
</g>
<!-- BB7 -->
<g id="node8" class="node">
<title>BB7</title>
<ellipse fill="none" stroke="black" cx="825.19" cy="-973.25" rx="103.48" ry="48.17"/>
<text text-anchor="middle" x="825.19" y="-992.05" font-family="Times New Roman,serif" font-size="14.00">[6b..6d)</text>
<text text-anchor="middle" x="825.19" y="-977.05" font-family="Times New Roman,serif" font-size="14.00">Count: 0</text>
<text text-anchor="middle" x="825.19" y="-962.05" font-family="Times New Roman,serif" font-size="14.00">Normalized count: 0.00</text>
<text text-anchor="middle" x="825.19" y="-947.05" font-family="Times New Roman,serif" font-size="14.00">Samples weight: 0.00</text>
</g>
<!-- BB6&#45;&gt;BB7 -->
<g id="edge10" class="edge">
<title>BB6&#45;&gt;BB7</title>
<path fill="none" stroke="black" d="M677.34,-1065.89C701.79,-1050.73 729.98,-1033.26 755.15,-1017.66"/>
<polygon fill="black" stroke="black" points="757.26,-1020.47 763.92,-1012.23 753.57,-1014.52 757.26,-1020.47"/>
</g>
<!-- BB8 -->
<g id="node9" class="node">
<title>BB8</title>
<ellipse fill="none" stroke="black" cx="596.19" cy="-973.25" rx="108.38" ry="48.17"/>
<text text-anchor="middle" x="596.19" y="-992.05" font-family="Times New Roman,serif" font-size="14.00">[6d..72)</text>
<text text-anchor="middle" x="596.19" y="-977.05" font-family="Times New Roman,serif" font-size="14.00">Count: 117</text>
<text text-anchor="middle" x="596.19" y="-962.05" font-family="Times New Roman,serif" font-size="14.00">Normalized count: 58.50</text>
<text text-anchor="middle" x="596.19" y="-947.05" font-family="Times New Roman,serif" font-size="14.00">Samples weight: 0.00</text>
</g>
<!-- BB6&#45;&gt;BB8 -->
<g id="edge9" class="edge">
<title>BB6&#45;&gt;BB8</title>
<path fill="none" stroke="black" d="M608.33,-1057.42C607.11,-1049.05 605.82,-1040.24 604.56,-1031.61"/>
<polygon fill="black" stroke="black" points="608.01,-1031 603.1,-1021.61 601.08,-1032.01 608.01,-1031"/>
</g>
<!-- BB9 -->
<g id="node10" class="node">
<title>BB9</title>
<ellipse fill="none" stroke="black" cx="771.19" cy="-841.08" rx="113.27" ry="48.17"/>
<text text-anchor="middle" x="771.19" y="-859.88" font-family="Times New Roman,serif" font-size="14.00">[72..84)</text>
<text text-anchor="middle" x="771.19" y="-844.88" font-family="Times New Roman,serif" font-size="14.00">Count: 229</text>
<text text-anchor="middle" x="771.19" y="-829.88" font-family="Times New Roman,serif" font-size="14.00">Normalized count: 114.50</text>
<text text-anchor="middle" x="771.19" y="-814.88" font-family="Times New Roman,serif" font-size="14.00">Samples weight: 0.00</text>
</g>
<!-- BB8&#45;&gt;BB9 -->
<g id="edge12" class="edge">
<title>BB8&#45;&gt;BB9</title>
<path fill="none" stroke="black" d="M651.08,-931.42C669.07,-918.04 689.2,-903.07 707.76,-889.26"/>
<polygon fill="black" stroke="black" points="709.95,-891.99 715.89,-883.21 705.78,-886.37 709.95,-891.99"/>
</g>
<!-- BB10 -->
<g id="node11" class="node">
<title>BB10</title>
<ellipse fill="none" stroke="black" cx="532.19" cy="-841.08" rx="108.38" ry="48.17"/>
<text text-anchor="middle" x="532.19" y="-859.88" font-family="Times New Roman,serif" font-size="14.00">[84..8a)</text>
<text text-anchor="middle" x="532.19" y="-844.88" font-family="Times New Roman,serif" font-size="14.00">Count: 113</text>
<text text-anchor="middle" x="532.19" y="-829.88" font-family="Times New Roman,serif" font-size="14.00">Normalized count: 56.50</text>
<text text-anchor="middle" x="532.19" y="-814.88" font-family="Times New Roman,serif" font-size="14.00">Samples weight: 0.00</text>
</g>
<!-- BB8&#45;&gt;BB10 -->
<g id="edge11" class="edge">
<title>BB8&#45;&gt;BB10</title>
<path fill="none" stroke="black" d="M573.44,-925.99C568.87,-916.69 564.02,-906.82 559.31,-897.25"/>
<polygon fill="black" stroke="black" points="562.41,-895.62 554.86,-888.19 556.13,-898.71 562.41,-895.62"/>
</g>
<!-- BB9&#45;&gt;BB10 -->
<g id="edge13" class="edge">
<title>BB9&#45;&gt;BB10</title>
<path fill="none" stroke="black" d="M657.84,-841.08C655.4,-841.08 652.96,-841.08 650.52,-841.08"/>
<polygon fill="black" stroke="black" points="650.48,-837.58 640.48,-841.08 650.48,-844.58 650.48,-837.58"/>
</g>
<!-- BB11 -->
<g id="node12" class="node">
<title>BB11</title>
<ellipse fill="none" stroke="black" cx="483.19" cy="-708.92" rx="108.38" ry="48.17"/>
<text text-anchor="middle" x="483.19" y="-727.72" font-family="Times New Roman,serif" font-size="14.00">[8a..a2)</text>
<text text-anchor="middle" x="483.19" y="-712.72" font-family="Times New Roman,serif" font-size="14.00">Count: 112</text>
<text text-anchor="middle" x="483.19" y="-697.72" font-family="Times New Roman,serif" font-size="14.00">Normalized count: 56.00</text>
<text text-anchor="middle" x="483.19" y="-682.72" font-family="Times New Roman,serif" font-size="14.00">Samples weight: 0.00</text>
</g>
<!-- BB10&#45;&gt;BB11 -->
<g id="edge15" class="edge">
<title>BB10&#45;&gt;BB11</title>
<path fill="none" stroke="black" d="M514.64,-793.46C511.29,-784.58 507.76,-775.2 504.32,-766.06"/>
<polygon fill="black" stroke="black" points="507.58,-764.78 500.78,-756.65 501.03,-767.25 507.58,-764.78"/>
</g>
<!-- BB14 -->
<g id="node15" class="node">
<title>BB14</title>
<ellipse fill="none" stroke="black" cx="720.19" cy="-708.92" rx="108.38" ry="48.17"/>
<text text-anchor="middle" x="720.19" y="-727.72" font-family="Times New Roman,serif" font-size="14.00">[bd..c3)</text>
<text text-anchor="middle" x="720.19" y="-712.72" font-family="Times New Roman,serif" font-size="14.00">Count: 121</text>
<text text-anchor="middle" x="720.19" y="-697.72" font-family="Times New Roman,serif" font-size="14.00">Normalized count: 60.50</text>
<text text-anchor="middle" x="720.19" y="-682.72" font-family="Times New Roman,serif" font-size="14.00">Samples weight: 0.00</text>
</g>
<!-- BB10&#45;&gt;BB14 -->
<g id="edge14" class="edge">
<title>BB10&#45;&gt;BB14</title>
<path fill="none" stroke="black" d="M589.62,-800.32C610.02,-786.2 633.14,-770.19 654.2,-755.61"/>
<polygon fill="black" stroke="black" points="656.23,-758.45 662.46,-749.88 652.25,-752.7 656.23,-758.45"/>
</g>
<!-- BB13 -->
<g id="node14" class="node">
<title>BB13</title>
<ellipse fill="none" stroke="black" cx="478.19" cy="-576.75" rx="118.17" ry="48.17"/>
<text text-anchor="middle" x="478.19" y="-595.55" font-family="Times New Roman,serif" font-size="14.00">[b8..bd)</text>
<text text-anchor="middle" x="478.19" y="-580.55" font-family="Times New Roman,serif" font-size="14.00">Count: 6529</text>
<text text-anchor="middle" x="478.19" y="-565.55" font-family="Times New Roman,serif" font-size="14.00">Normalized count: 3264.50</text>
<text text-anchor="middle" x="478.19" y="-550.55" font-family="Times New Roman,serif" font-size="14.00">Samples weight: 0.01</text>
</g>
<!-- BB11&#45;&gt;BB13 -->
<g id="edge16" class="edge">
<title>BB11&#45;&gt;BB13</title>
<path fill="none" stroke="black" d="M481.37,-660.55C481.05,-652.29 480.72,-643.6 480.39,-635.1"/>
<polygon fill="black" stroke="black" points="483.88,-634.72 480,-624.86 476.88,-634.98 483.88,-634.72"/>
</g>
<!-- BB12 -->
<g id="node13" class="node">
<title>BB12</title>
<ellipse fill="none" stroke="black" cx="478.19" cy="-444.58" rx="118.17" ry="48.17"/>
<text text-anchor="middle" x="478.19" y="-463.38" font-family="Times New Roman,serif" font-size="14.00">[a2..b8)</text>
<text text-anchor="middle" x="478.19" y="-448.38" font-family="Times New Roman,serif" font-size="14.00">Count: 6407</text>
<text text-anchor="middle" x="478.19" y="-433.38" font-family="Times New Roman,serif" font-size="14.00">Normalized count: 3203.50</text>
<text text-anchor="middle" x="478.19" y="-418.38" font-family="Times New Roman,serif" font-size="14.00">Samples weight: 0.01</text>
</g>
<!-- BB12&#45;&gt;BB13 -->
<g id="edge17" class="edge">
<title>BB12&#45;&gt;BB13</title>
<path fill="none" stroke="black" d="M484.7,-492.69C484.92,-500.95 484.99,-509.63 484.9,-518.14"/>
<polygon fill="black" stroke="black" points="481.39,-518.33 484.71,-528.39 488.39,-518.45 481.39,-518.33"/>
</g>
<!-- BB13&#45;&gt;BB12 -->
<g id="edge18" class="edge">
<title>BB13&#45;&gt;BB12</title>
<path fill="none" stroke="black" d="M471.66,-528.39C471.45,-520.12 471.39,-511.44 471.48,-502.93"/>
<polygon fill="black" stroke="black" points="474.98,-502.75 471.67,-492.69 467.98,-502.62 474.98,-502.75"/>
</g>
<!-- BB13&#45;&gt;BB14 -->
<g id="edge19" class="edge">
<title>BB13&#45;&gt;BB14</title>
<path fill="none" stroke="black" d="M548.68,-615.66C578.35,-631.62 612.96,-650.24 643.29,-666.55"/>
<polygon fill="black" stroke="black" points="641.67,-669.66 652.13,-671.31 644.98,-663.49 641.67,-669.66"/>
</g>
<!-- BB15 -->
<g id="node16" class="node">
<title>BB15</title>
<ellipse fill="none" stroke="black" cx="722.19" cy="-576.75" rx="108.38" ry="48.17"/>
<text text-anchor="middle" x="722.19" y="-595.55" font-family="Times New Roman,serif" font-size="14.00">[c3..ca)</text>
<text text-anchor="middle" x="722.19" y="-580.55" font-family="Times New Roman,serif" font-size="14.00">Count: 118</text>
<text text-anchor="middle" x="722.19" y="-565.55" font-family="Times New Roman,serif" font-size="14.00">Normalized count: 59.00</text>
<text text-anchor="middle" x="722.19" y="-550.55" font-family="Times New Roman,serif" font-size="14.00">Samples weight: 0.00</text>
</g>
<!-- BB14&#45;&gt;BB15 -->
<g id="edge21" class="edge">
<title>BB14&#45;&gt;BB15</title>
<path fill="none" stroke="black" d="M720.92,-660.55C721.04,-652.29 721.18,-643.6 721.31,-635.1"/>
<polygon fill="black" stroke="black" points="724.81,-634.91 721.46,-624.86 717.81,-634.8 724.81,-634.91"/>
</g>
<!-- BB21 -->
<g id="node22" class="node">
<title>BB21</title>
<ellipse fill="none" stroke="black" cx="956.19" cy="-576.75" rx="108.38" ry="48.17"/>
<text text-anchor="middle" x="956.19" y="-595.55" font-family="Times New Roman,serif" font-size="14.00">[10d..111)</text>
<text text-anchor="middle" x="956.19" y="-580.55" font-family="Times New Roman,serif" font-size="14.00">Count: 50</text>
<text text-anchor="middle" x="956.19" y="-565.55" font-family="Times New Roman,serif" font-size="14.00">Normalized count: 25.00</text>
<text text-anchor="middle" x="956.19" y="-550.55" font-family="Times New Roman,serif" font-size="14.00">Samples weight: 0.00</text>
</g>
<!-- BB14&#45;&gt;BB21 -->
<g id="edge20" class="edge">
<title>BB14&#45;&gt;BB21</title>
<path fill="none" stroke="black" d="M787.18,-670.96C816.08,-655.02 850.03,-636.3 879.9,-619.83"/>
<polygon fill="black" stroke="black" points="881.96,-622.69 889.02,-614.79 878.58,-616.56 881.96,-622.69"/>
</g>
<!-- BB20 -->
<g id="node21" class="node">
<title>BB20</title>
<ellipse fill="none" stroke="black" cx="844.19" cy="-444.58" rx="118.17" ry="48.17"/>
<text text-anchor="middle" x="844.19" y="-463.38" font-family="Times New Roman,serif" font-size="14.00">[108..10d)</text>
<text text-anchor="middle" x="844.19" y="-448.38" font-family="Times New Roman,serif" font-size="14.00">Count: 6263</text>
<text text-anchor="middle" x="844.19" y="-433.38" font-family="Times New Roman,serif" font-size="14.00">Normalized count: 3131.50</text>
<text text-anchor="middle" x="844.19" y="-418.38" font-family="Times New Roman,serif" font-size="14.00">Samples weight: 0.01</text>
</g>
<!-- BB15&#45;&gt;BB20 -->
<g id="edge22" class="edge">
<title>BB15&#45;&gt;BB20</title>
<path fill="none" stroke="black" d="M763.15,-532.04C773.6,-520.9 784.93,-508.81 795.71,-497.3"/>
<polygon fill="black" stroke="black" points="798.42,-499.53 802.71,-489.84 793.32,-494.74 798.42,-499.53"/>
</g>
<!-- BB16 -->
<g id="node17" class="node">
<title>BB16</title>
<ellipse fill="none" stroke="black" cx="919.19" cy="-312.42" rx="118.17" ry="48.17"/>
<text text-anchor="middle" x="919.19" y="-331.22" font-family="Times New Roman,serif" font-size="14.00">[ca..e2)</text>
<text text-anchor="middle" x="919.19" y="-316.22" font-family="Times New Roman,serif" font-size="14.00">Count: 6182</text>
<text text-anchor="middle" x="919.19" y="-301.22" font-family="Times New Roman,serif" font-size="14.00">Normalized count: 3091.00</text>
<text text-anchor="middle" x="919.19" y="-286.22" font-family="Times New Roman,serif" font-size="14.00">Samples weight: 0.01</text>
</g>
<!-- BB18 -->
<g id="node19" class="node">
<title>BB18</title>
<ellipse fill="none" stroke="black" cx="951.19" cy="-180.25" rx="127.06" ry="48.17"/>
<text text-anchor="middle" x="951.19" y="-199.05" font-family="Times New Roman,serif" font-size="14.00">[fd..102)</text>
<text text-anchor="middle" x="951.19" y="-184.05" font-family="Times New Roman,serif" font-size="14.00">Count: 456865</text>
<text text-anchor="middle" x="951.19" y="-169.05" font-family="Times New Roman,serif" font-size="14.00">Normalized count: 228432.50</text>
<text text-anchor="middle" x="951.19" y="-154.05" font-family="Times New Roman,serif" font-size="14.00">Samples weight: 0.48</text>
</g>
<!-- BB16&#45;&gt;BB18 -->
<g id="edge23" class="edge">
<title>BB16&#45;&gt;BB18</title>
<path fill="none" stroke="black" d="M930.74,-264.42C932.85,-255.85 935.07,-246.83 937.23,-238.01"/>
<polygon fill="black" stroke="black" points="940.66,-238.72 939.65,-228.17 933.87,-237.05 940.66,-238.72"/>
</g>
<!-- BB17 -->
<g id="node18" class="node">
<title>BB17</title>
<ellipse fill="none" stroke="black" cx="978.19" cy="-48.08" rx="127.06" ry="48.17"/>
<text text-anchor="middle" x="978.19" y="-66.88" font-family="Times New Roman,serif" font-size="14.00">[e2..fd)</text>
<text text-anchor="middle" x="978.19" y="-51.88" font-family="Times New Roman,serif" font-size="14.00">Count: 450256</text>
<text text-anchor="middle" x="978.19" y="-36.88" font-family="Times New Roman,serif" font-size="14.00">Normalized count: 225128.00</text>
<text text-anchor="middle" x="978.19" y="-21.88" font-family="Times New Roman,serif" font-size="14.00">Samples weight: 0.47</text>
</g>
<!-- BB17&#45;&gt;BB18 -->
<g id="edge24" class="edge">
<title>BB17&#45;&gt;BB18</title>
<path fill="none" stroke="black" d="M974.89,-96.44C973.37,-104.83 971.6,-113.64 969.71,-122.26"/>
<polygon fill="black" stroke="black" points="966.24,-121.73 967.45,-132.26 973.07,-123.28 966.24,-121.73"/>
</g>
<!-- BB18&#45;&gt;BB17 -->
<g id="edge25" class="edge">
<title>BB18&#45;&gt;BB17</title>
<path fill="none" stroke="black" d="M954.49,-131.89C956,-123.53 957.76,-114.75 959.64,-106.15"/>
<polygon fill="black" stroke="black" points="963.11,-106.72 961.9,-96.19 956.28,-105.17 963.11,-106.72"/>
</g>
<!-- BB19 -->
<g id="node20" class="node">
<title>BB19</title>
<ellipse fill="none" stroke="black" cx="715.19" cy="-48.08" rx="118.17" ry="48.17"/>
<text text-anchor="middle" x="715.19" y="-66.88" font-family="Times New Roman,serif" font-size="14.00">[102..108)</text>
<text text-anchor="middle" x="715.19" y="-51.88" font-family="Times New Roman,serif" font-size="14.00">Count: 6134</text>
<text text-anchor="middle" x="715.19" y="-36.88" font-family="Times New Roman,serif" font-size="14.00">Normalized count: 3067.00</text>
<text text-anchor="middle" x="715.19" y="-21.88" font-family="Times New Roman,serif" font-size="14.00">Samples weight: 0.01</text>
</g>
<!-- BB18&#45;&gt;BB19 -->
<g id="edge26" class="edge">
<title>BB18&#45;&gt;BB19</title>
<path fill="none" stroke="black" d="M880.38,-140.2C852.94,-125.06 821.42,-107.67 793.32,-92.17"/>
<polygon fill="black" stroke="black" points="794.77,-88.98 784.32,-87.21 791.39,-95.11 794.77,-88.98"/>
</g>
<!-- BB19&#45;&gt;BB20 -->
<g id="edge27" class="edge">
<title>BB19&#45;&gt;BB20</title>
<path fill="none" stroke="black" d="M722.06,-96.2C732.2,-158.51 754.21,-270.89 792.19,-360.5 796.26,-370.12 801.37,-379.9 806.79,-389.21"/>
<polygon fill="black" stroke="black" points="803.9,-391.21 812.05,-397.98 809.9,-387.61 803.9,-391.21"/>
</g>
<!-- BB20&#45;&gt;BB16 -->
<g id="edge28" class="edge">
<title>BB20&#45;&gt;BB16</title>
<path fill="none" stroke="black" d="M870.63,-397.69C876.12,-388.16 881.96,-378.03 887.61,-368.23"/>
<polygon fill="black" stroke="black" points="890.77,-369.74 892.73,-359.33 884.71,-366.25 890.77,-369.74"/>
</g>
<!-- BB20&#45;&gt;BB21 -->
<g id="edge29" class="edge">
<title>BB20&#45;&gt;BB21</title>
<path fill="none" stroke="black" d="M882.83,-490.49C892.15,-501.32 902.18,-512.98 911.74,-524.09"/>
<polygon fill="black" stroke="black" points="909.09,-526.38 918.27,-531.68 914.4,-521.82 909.09,-526.38"/>
</g>
<!-- BB21&#45;&gt;BB22 -->
<g id="edge30" class="edge">
<title>BB21&#45;&gt;BB22</title>
<path fill="none" stroke="black" d="M956.19,-625.14C956.19,-677.68 956.19,-764.93 956.19,-840.08 956.19,-1238.58 956.19,-1238.58 956.19,-1238.58 956.19,-1309.03 956.19,-1390.13 956.19,-1443.28"/>
<polygon fill="black" stroke="black" points="952.69,-1443.52 956.19,-1453.52 959.69,-1443.52 952.69,-1443.52"/>
</g>
<!-- BB22&#45;&gt;BB1 -->
<g id="edge31" class="edge">
<title>BB22&#45;&gt;BB1</title>
<path fill="none" stroke="black" d="M890.57,-1463.61C862.78,-1447.82 830.26,-1429.34 801.59,-1413.04"/>
<polygon fill="black" stroke="black" points="803.24,-1409.95 792.82,-1408.05 799.78,-1416.04 803.24,-1409.95"/>
</g>
<!-- BB23 -->
<g id="node24" class="node">
<title>BB23</title>
<ellipse fill="none" stroke="black" cx="1087.19" cy="-1369.75" rx="103.48" ry="48.17"/>
<text text-anchor="middle" x="1087.19" y="-1388.55" font-family="Times New Roman,serif" font-size="14.00">[118..11a)</text>
<text text-anchor="middle" x="1087.19" y="-1373.55" font-family="Times New Roman,serif" font-size="14.00">Count: 3</text>
<text text-anchor="middle" x="1087.19" y="-1358.55" font-family="Times New Roman,serif" font-size="14.00">Normalized count: 1.50</text>
<text text-anchor="middle" x="1087.19" y="-1343.55" font-family="Times New Roman,serif" font-size="14.00">Samples weight: 0.00</text>
</g>
<!-- BB22&#45;&gt;BB23 -->
<g id="edge32" class="edge">
<title>BB22&#45;&gt;BB23</title>
<path fill="none" stroke="black" d="M999.81,-1457.57C1011.52,-1445.93 1024.28,-1433.25 1036.35,-1421.26"/>
<polygon fill="black" stroke="black" points="1039.13,-1423.43 1043.76,-1413.9 1034.2,-1418.47 1039.13,-1423.43"/>
</g>
</g>
</svg>
