<?xml version="1.0" encoding="UTF-8" standalone="no"?>
<!DOCTYPE svg PUBLIC "-//W3C//DTD SVG 1.1//EN"
 "http://www.w3.org/Graphics/SVG/1.1/DTD/svg11.dtd">
<!-- Generated by graphviz version 2.47.0 (20210316.0004)
 -->
<!-- Title: G Pages: 1 -->
<svg width="472pt" height="305pt"
 viewBox="0.00 0.00 471.74 304.86" xmlns="http://www.w3.org/2000/svg" xmlns:xlink="http://www.w3.org/1999/xlink">
<g id="graph0" class="graph" transform="scale(1 1) rotate(0) translate(4 300.86)">
<title>G</title>
<polygon fill="white" stroke="transparent" points="-4,4 -4,-300.86 467.74,-300.86 467.74,4 -4,4"/>
<!-- BB0 -->
<g id="node1" class="node">
<title>BB0</title>
<ellipse fill="none" stroke="black" cx="115.97" cy="-259.38" rx="106.55" ry="37.45"/>
<text text-anchor="middle" x="115.97" y="-270.68" font-family="Times New Roman,serif" font-size="14.00">[0..20)</text>
<text text-anchor="middle" x="115.97" y="-255.68" font-family="Times New Roman,serif" font-size="14.00">Normalized Count: NaN</text>
<text text-anchor="middle" x="115.97" y="-240.68" font-family="Times New Roman,serif" font-size="14.00">Samples weight: 0.00</text>
</g>
<!-- BB2 -->
<g id="node3" class="node">
<title>BB2</title>
<ellipse fill="none" stroke="black" cx="115.97" cy="-148.43" rx="115.93" ry="37.45"/>
<text text-anchor="middle" x="115.97" y="-159.73" font-family="Times New Roman,serif" font-size="14.00">[30..34)</text>
<text text-anchor="middle" x="115.97" y="-144.73" font-family="Times New Roman,serif" font-size="14.00">Normalized Count: Infinity</text>
<text text-anchor="middle" x="115.97" y="-129.73" font-family="Times New Roman,serif" font-size="14.00">Samples weight: 0.16</text>
</g>
<!-- BB0&#45;&gt;BB2 -->
<g id="edge1" class="edge">
<title>BB0&#45;&gt;BB2</title>
<path fill="none" stroke="black" d="M115.97,-221.8C115.97,-213.63 115.97,-204.85 115.97,-196.32"/>
<polygon fill="black" stroke="black" points="119.47,-196.1 115.97,-186.1 112.47,-196.1 119.47,-196.1"/>
</g>
<!-- BB1 -->
<g id="node2" class="node">
<title>BB1</title>
<ellipse fill="none" stroke="black" cx="115.97" cy="-37.48" rx="115.93" ry="37.45"/>
<text text-anchor="middle" x="115.97" y="-48.78" font-family="Times New Roman,serif" font-size="14.00">[20..30)</text>
<text text-anchor="middle" x="115.97" y="-33.78" font-family="Times New Roman,serif" font-size="14.00">Normalized Count: Infinity</text>
<text text-anchor="middle" x="115.97" y="-18.78" font-family="Times New Roman,serif" font-size="14.00">Samples weight: 0.84</text>
</g>
<!-- BB1&#45;&gt;BB2 -->
<g id="edge2" class="edge">
<title>BB1&#45;&gt;BB2</title>
<path fill="none" stroke="black" d="M122.38,-75.15C122.7,-83.33 122.79,-92.11 122.66,-100.63"/>
<polygon fill="black" stroke="black" points="119.15,-100.76 122.38,-110.85 126.15,-100.94 119.15,-100.76"/>
</g>
<!-- BB2&#45;&gt;BB1 -->
<g id="edge3" class="edge">
<title>BB2&#45;&gt;BB1</title>
<path fill="none" stroke="black" d="M109.55,-110.85C109.23,-102.67 109.14,-93.89 109.27,-85.37"/>
<polygon fill="black" stroke="black" points="112.78,-85.24 109.55,-75.15 105.78,-85.05 112.78,-85.24"/>
</g>
<!-- BB3 -->
<g id="node4" class="node">
<title>BB3</title>
<ellipse fill="none" stroke="black" cx="356.97" cy="-37.48" rx="106.55" ry="37.45"/>
<text text-anchor="middle" x="356.97" y="-48.78" font-family="Times New Roman,serif" font-size="14.00">[34..35)</text>
<text text-anchor="middle" x="356.97" y="-33.78" font-family="Times New Roman,serif" font-size="14.00">Normalized Count: NaN</text>
<text text-anchor="middle" x="356.97" y="-18.78" font-family="Times New Roman,serif" font-size="14.00">Samples weight: 0.00</text>
</g>
<!-- BB2&#45;&gt;BB3 -->
<g id="edge4" class="edge">
<title>BB2&#45;&gt;BB3</title>
<path fill="none" stroke="black" d="M182.14,-117.51C213.46,-103.35 250.99,-86.39 283.22,-71.81"/>
<polygon fill="black" stroke="black" points="284.93,-74.88 292.61,-67.57 282.05,-68.5 284.93,-74.88"/>
</g>
</g>
</svg>
