<?xml version="1.0" encoding="UTF-8" standalone="no"?>
<!DOCTYPE svg PUBLIC "-//W3C//DTD SVG 1.1//EN"
 "http://www.w3.org/Graphics/SVG/1.1/DTD/svg11.dtd">
<!-- Generated by graphviz version 2.47.0 (20210316.0004)
 -->
<!-- Title: G Pages: 1 -->
<svg width="1239pt" height="1690pt"
 viewBox="0.00 0.00 1238.69 1690.16" xmlns="http://www.w3.org/2000/svg" xmlns:xlink="http://www.w3.org/1999/xlink">
<g id="graph0" class="graph" transform="scale(1 1) rotate(0) translate(4 1686.16)">
<title>G</title>
<polygon fill="white" stroke="transparent" points="-4,4 -4,-1686.16 1234.69,-1686.16 1234.69,4 -4,4"/>
<!-- BB0 -->
<g id="node1" class="node">
<title>BB0</title>
<ellipse fill="none" stroke="black" cx="974.84" cy="-1634.08" rx="104.8" ry="48.17"/>
<text text-anchor="middle" x="974.84" y="-1652.88" font-family="Times New Roman,serif" font-size="14.00">[0..19)</text>
<text text-anchor="middle" x="974.84" y="-1637.88" font-family="Times New Roman,serif" font-size="14.00">Count: 0</text>
<text text-anchor="middle" x="974.84" y="-1622.88" font-family="Times New Roman,serif" font-size="14.00">Normalized count: NaN</text>
<text text-anchor="middle" x="974.84" y="-1607.88" font-family="Times New Roman,serif" font-size="14.00">Samples weight: 0.00</text>
</g>
<!-- BB22 -->
<g id="node23" class="node">
<title>BB22</title>
<ellipse fill="none" stroke="black" cx="974.84" cy="-1501.92" rx="113.69" ry="48.17"/>
<text text-anchor="middle" x="974.84" y="-1520.72" font-family="Times New Roman,serif" font-size="14.00">[111..118)</text>
<text text-anchor="middle" x="974.84" y="-1505.72" font-family="Times New Roman,serif" font-size="14.00">Count: 66</text>
<text text-anchor="middle" x="974.84" y="-1490.72" font-family="Times New Roman,serif" font-size="14.00">Normalized count: Infinity</text>
<text text-anchor="middle" x="974.84" y="-1475.72" font-family="Times New Roman,serif" font-size="14.00">Samples weight: 0.00</text>
</g>
<!-- BB0&#45;&gt;BB22 -->
<g id="edge1" class="edge">
<title>BB0&#45;&gt;BB22</title>
<path fill="none" stroke="black" d="M974.84,-1585.72C974.84,-1577.45 974.84,-1568.77 974.84,-1560.27"/>
<polygon fill="black" stroke="black" points="978.34,-1560.02 974.84,-1550.02 971.34,-1560.02 978.34,-1560.02"/>
</g>
<!-- BB1 -->
<g id="node2" class="node">
<title>BB1</title>
<ellipse fill="none" stroke="black" cx="719.84" cy="-1369.75" rx="113.69" ry="48.17"/>
<text text-anchor="middle" x="719.84" y="-1388.55" font-family="Times New Roman,serif" font-size="14.00">[19..2f)</text>
<text text-anchor="middle" x="719.84" y="-1373.55" font-family="Times New Roman,serif" font-size="14.00">Count: 132</text>
<text text-anchor="middle" x="719.84" y="-1358.55" font-family="Times New Roman,serif" font-size="14.00">Normalized count: Infinity</text>
<text text-anchor="middle" x="719.84" y="-1343.55" font-family="Times New Roman,serif" font-size="14.00">Samples weight: 0.00</text>
</g>
<!-- BB5 -->
<g id="node6" class="node">
<title>BB5</title>
<ellipse fill="none" stroke="black" cx="553.84" cy="-1237.58" rx="113.69" ry="48.17"/>
<text text-anchor="middle" x="553.84" y="-1256.38" font-family="Times New Roman,serif" font-size="14.00">[50..55)</text>
<text text-anchor="middle" x="553.84" y="-1241.38" font-family="Times New Roman,serif" font-size="14.00">Count: 3986</text>
<text text-anchor="middle" x="553.84" y="-1226.38" font-family="Times New Roman,serif" font-size="14.00">Normalized count: Infinity</text>
<text text-anchor="middle" x="553.84" y="-1211.38" font-family="Times New Roman,serif" font-size="14.00">Samples weight: 0.00</text>
</g>
<!-- BB1&#45;&gt;BB5 -->
<g id="edge2" class="edge">
<title>BB1&#45;&gt;BB5</title>
<path fill="none" stroke="black" d="M666.41,-1326.85C650.04,-1314.01 631.9,-1299.79 615.05,-1286.58"/>
<polygon fill="black" stroke="black" points="616.93,-1283.6 606.9,-1280.18 612.61,-1289.11 616.93,-1283.6"/>
</g>
<!-- BB2 -->
<g id="node3" class="node">
<title>BB2</title>
<ellipse fill="none" stroke="black" cx="340.84" cy="-1105.42" rx="113.69" ry="48.17"/>
<text text-anchor="middle" x="340.84" y="-1124.22" font-family="Times New Roman,serif" font-size="14.00">[2f..42)</text>
<text text-anchor="middle" x="340.84" y="-1109.22" font-family="Times New Roman,serif" font-size="14.00">Count: 6755</text>
<text text-anchor="middle" x="340.84" y="-1094.22" font-family="Times New Roman,serif" font-size="14.00">Normalized count: Infinity</text>
<text text-anchor="middle" x="340.84" y="-1079.22" font-family="Times New Roman,serif" font-size="14.00">Samples weight: 0.01</text>
</g>
<!-- BB3 -->
<g id="node4" class="node">
<title>BB3</title>
<ellipse fill="none" stroke="black" cx="113.84" cy="-973.25" rx="113.69" ry="48.17"/>
<text text-anchor="middle" x="113.84" y="-992.05" font-family="Times New Roman,serif" font-size="14.00">[42..4a)</text>
<text text-anchor="middle" x="113.84" y="-977.05" font-family="Times New Roman,serif" font-size="14.00">Count: 199</text>
<text text-anchor="middle" x="113.84" y="-962.05" font-family="Times New Roman,serif" font-size="14.00">Normalized count: Infinity</text>
<text text-anchor="middle" x="113.84" y="-947.05" font-family="Times New Roman,serif" font-size="14.00">Samples weight: 0.00</text>
</g>
<!-- BB2&#45;&gt;BB3 -->
<g id="edge4" class="edge">
<title>BB2&#45;&gt;BB3</title>
<path fill="none" stroke="black" d="M274.27,-1066.24C247.59,-1050.94 216.71,-1033.24 189.22,-1017.47"/>
<polygon fill="black" stroke="black" points="190.83,-1014.36 180.42,-1012.42 187.35,-1020.43 190.83,-1014.36"/>
</g>
<!-- BB4 -->
<g id="node5" class="node">
<title>BB4</title>
<ellipse fill="none" stroke="black" cx="359.84" cy="-973.25" rx="113.69" ry="48.17"/>
<text text-anchor="middle" x="359.84" y="-992.05" font-family="Times New Roman,serif" font-size="14.00">[4a..50)</text>
<text text-anchor="middle" x="359.84" y="-977.05" font-family="Times New Roman,serif" font-size="14.00">Count: 3909</text>
<text text-anchor="middle" x="359.84" y="-962.05" font-family="Times New Roman,serif" font-size="14.00">Normalized count: Infinity</text>
<text text-anchor="middle" x="359.84" y="-947.05" font-family="Times New Roman,serif" font-size="14.00">Samples weight: 0.00</text>
</g>
<!-- BB2&#45;&gt;BB4 -->
<g id="edge3" class="edge">
<title>BB2&#45;&gt;BB4</title>
<path fill="none" stroke="black" d="M347.76,-1057.05C348.98,-1048.69 350.26,-1039.91 351.51,-1031.32"/>
<polygon fill="black" stroke="black" points="354.99,-1031.76 352.97,-1021.36 348.06,-1030.75 354.99,-1031.76"/>
</g>
<!-- BB3&#45;&gt;BB4 -->
<g id="edge5" class="edge">
<title>BB3&#45;&gt;BB4</title>
<path fill="none" stroke="black" d="M227.72,-973.25C230.35,-973.25 232.98,-973.25 235.62,-973.25"/>
<polygon fill="black" stroke="black" points="235.78,-976.75 245.78,-973.25 235.78,-969.75 235.78,-976.75"/>
</g>
<!-- BB4&#45;&gt;BB5 -->
<g id="edge6" class="edge">
<title>BB4&#45;&gt;BB5</title>
<path fill="none" stroke="black" d="M420.62,-1014.14C436.24,-1026.56 451.96,-1041.26 463.84,-1057.33 491.16,-1094.29 481.12,-1112.48 501.84,-1153.5 506.66,-1163.03 512.24,-1172.89 517.92,-1182.33"/>
<polygon fill="black" stroke="black" points="514.95,-1184.17 523.15,-1190.87 520.92,-1180.52 514.95,-1184.17"/>
</g>
<!-- BB5&#45;&gt;BB2 -->
<g id="edge7" class="edge">
<title>BB5&#45;&gt;BB2</title>
<path fill="none" stroke="black" d="M490.23,-1197.7C465.99,-1182.89 438.2,-1165.91 413.21,-1150.64"/>
<polygon fill="black" stroke="black" points="414.86,-1147.55 404.5,-1145.32 411.21,-1153.52 414.86,-1147.55"/>
</g>
<!-- BB6 -->
<g id="node7" class="node">
<title>BB6</title>
<ellipse fill="none" stroke="black" cx="624.84" cy="-1105.42" rx="113.69" ry="48.17"/>
<text text-anchor="middle" x="624.84" y="-1124.22" font-family="Times New Roman,serif" font-size="14.00">[55..6b)</text>
<text text-anchor="middle" x="624.84" y="-1109.22" font-family="Times New Roman,serif" font-size="14.00">Count: 150</text>
<text text-anchor="middle" x="624.84" y="-1094.22" font-family="Times New Roman,serif" font-size="14.00">Normalized count: Infinity</text>
<text text-anchor="middle" x="624.84" y="-1079.22" font-family="Times New Roman,serif" font-size="14.00">Samples weight: 0.00</text>
</g>
<!-- BB5&#45;&gt;BB6 -->
<g id="edge8" class="edge">
<title>BB5&#45;&gt;BB6</title>
<path fill="none" stroke="black" d="M579.08,-1190.32C584.15,-1181.02 589.53,-1171.16 594.75,-1161.58"/>
<polygon fill="black" stroke="black" points="597.98,-1162.98 599.69,-1152.52 591.83,-1159.63 597.98,-1162.98"/>
</g>
<!-- BB7 -->
<g id="node8" class="node">
<title>BB7</title>
<ellipse fill="none" stroke="black" cx="841.84" cy="-973.25" rx="104.8" ry="48.17"/>
<text text-anchor="middle" x="841.84" y="-992.05" font-family="Times New Roman,serif" font-size="14.00">[6b..6d)</text>
<text text-anchor="middle" x="841.84" y="-977.05" font-family="Times New Roman,serif" font-size="14.00">Count: 0</text>
<text text-anchor="middle" x="841.84" y="-962.05" font-family="Times New Roman,serif" font-size="14.00">Normalized count: NaN</text>
<text text-anchor="middle" x="841.84" y="-947.05" font-family="Times New Roman,serif" font-size="14.00">Samples weight: 0.00</text>
</g>
<!-- BB6&#45;&gt;BB7 -->
<g id="edge10" class="edge">
<title>BB6&#45;&gt;BB7</title>
<path fill="none" stroke="black" d="M689.36,-1065.71C714.84,-1050.43 744.22,-1032.81 770.34,-1017.14"/>
<polygon fill="black" stroke="black" points="772.29,-1020.05 779.07,-1011.91 768.69,-1014.05 772.29,-1020.05"/>
</g>
<!-- BB8 -->
<g id="node9" class="node">
<title>BB8</title>
<ellipse fill="none" stroke="black" cx="605.84" cy="-973.25" rx="113.69" ry="48.17"/>
<text text-anchor="middle" x="605.84" y="-992.05" font-family="Times New Roman,serif" font-size="14.00">[6d..72)</text>
<text text-anchor="middle" x="605.84" y="-977.05" font-family="Times New Roman,serif" font-size="14.00">Count: 156</text>
<text text-anchor="middle" x="605.84" y="-962.05" font-family="Times New Roman,serif" font-size="14.00">Normalized count: Infinity</text>
<text text-anchor="middle" x="605.84" y="-947.05" font-family="Times New Roman,serif" font-size="14.00">Samples weight: 0.00</text>
</g>
<!-- BB6&#45;&gt;BB8 -->
<g id="edge9" class="edge">
<title>BB6&#45;&gt;BB8</title>
<path fill="none" stroke="black" d="M617.93,-1057.05C616.71,-1048.69 615.43,-1039.91 614.17,-1031.32"/>
<polygon fill="black" stroke="black" points="617.63,-1030.75 612.72,-1021.36 610.7,-1031.76 617.63,-1030.75"/>
</g>
<!-- BB9 -->
<g id="node10" class="node">
<title>BB9</title>
<ellipse fill="none" stroke="black" cx="780.84" cy="-841.08" rx="113.69" ry="48.17"/>
<text text-anchor="middle" x="780.84" y="-859.88" font-family="Times New Roman,serif" font-size="14.00">[72..84)</text>
<text text-anchor="middle" x="780.84" y="-844.88" font-family="Times New Roman,serif" font-size="14.00">Count: 163</text>
<text text-anchor="middle" x="780.84" y="-829.88" font-family="Times New Roman,serif" font-size="14.00">Normalized count: Infinity</text>
<text text-anchor="middle" x="780.84" y="-814.88" font-family="Times New Roman,serif" font-size="14.00">Samples weight: 0.00</text>
</g>
<!-- BB8&#45;&gt;BB9 -->
<g id="edge12" class="edge">
<title>BB8&#45;&gt;BB9</title>
<path fill="none" stroke="black" d="M661.22,-931.06C679.02,-917.82 698.88,-903.05 717.22,-889.4"/>
<polygon fill="black" stroke="black" points="719.6,-892 725.53,-883.22 715.42,-886.38 719.6,-892"/>
</g>
<!-- BB10 -->
<g id="node11" class="node">
<title>BB10</title>
<ellipse fill="none" stroke="black" cx="534.84" cy="-841.08" rx="113.69" ry="48.17"/>
<text text-anchor="middle" x="534.84" y="-859.88" font-family="Times New Roman,serif" font-size="14.00">[84..8a)</text>
<text text-anchor="middle" x="534.84" y="-844.88" font-family="Times New Roman,serif" font-size="14.00">Count: 132</text>
<text text-anchor="middle" x="534.84" y="-829.88" font-family="Times New Roman,serif" font-size="14.00">Normalized count: Infinity</text>
<text text-anchor="middle" x="534.84" y="-814.88" font-family="Times New Roman,serif" font-size="14.00">Samples weight: 0.00</text>
</g>
<!-- BB8&#45;&gt;BB10 -->
<g id="edge11" class="edge">
<title>BB8&#45;&gt;BB10</title>
<path fill="none" stroke="black" d="M580.61,-925.99C575.54,-916.69 570.16,-906.82 564.94,-897.25"/>
<polygon fill="black" stroke="black" points="567.86,-895.29 559.99,-888.19 561.71,-898.65 567.86,-895.29"/>
</g>
<!-- BB9&#45;&gt;BB10 -->
<g id="edge13" class="edge">
<title>BB9&#45;&gt;BB10</title>
<path fill="none" stroke="black" d="M666.78,-841.08C664.15,-841.08 661.51,-841.08 658.88,-841.08"/>
<polygon fill="black" stroke="black" points="658.72,-837.58 648.72,-841.08 658.72,-844.58 658.72,-837.58"/>
</g>
<!-- BB11 -->
<g id="node12" class="node">
<title>BB11</title>
<ellipse fill="none" stroke="black" cx="482.84" cy="-708.92" rx="113.69" ry="48.17"/>
<text text-anchor="middle" x="482.84" y="-727.72" font-family="Times New Roman,serif" font-size="14.00">[8a..a2)</text>
<text text-anchor="middle" x="482.84" y="-712.72" font-family="Times New Roman,serif" font-size="14.00">Count: 127</text>
<text text-anchor="middle" x="482.84" y="-697.72" font-family="Times New Roman,serif" font-size="14.00">Normalized count: Infinity</text>
<text text-anchor="middle" x="482.84" y="-682.72" font-family="Times New Roman,serif" font-size="14.00">Samples weight: 0.00</text>
</g>
<!-- BB10&#45;&gt;BB11 -->
<g id="edge15" class="edge">
<title>BB10&#45;&gt;BB11</title>
<path fill="none" stroke="black" d="M516.22,-793.46C512.67,-784.58 508.92,-775.2 505.27,-766.06"/>
<polygon fill="black" stroke="black" points="508.48,-764.64 501.52,-756.65 501.97,-767.24 508.48,-764.64"/>
</g>
<!-- BB14 -->
<g id="node15" class="node">
<title>BB14</title>
<ellipse fill="none" stroke="black" cx="728.84" cy="-708.92" rx="113.69" ry="48.17"/>
<text text-anchor="middle" x="728.84" y="-727.72" font-family="Times New Roman,serif" font-size="14.00">[bd..c3)</text>
<text text-anchor="middle" x="728.84" y="-712.72" font-family="Times New Roman,serif" font-size="14.00">Count: 134</text>
<text text-anchor="middle" x="728.84" y="-697.72" font-family="Times New Roman,serif" font-size="14.00">Normalized count: Infinity</text>
<text text-anchor="middle" x="728.84" y="-682.72" font-family="Times New Roman,serif" font-size="14.00">Samples weight: 0.00</text>
</g>
<!-- BB10&#45;&gt;BB14 -->
<g id="edge14" class="edge">
<title>BB10&#45;&gt;BB14</title>
<path fill="none" stroke="black" d="M594.63,-799.97C615.57,-785.92 639.23,-770.04 660.79,-755.58"/>
<polygon fill="black" stroke="black" points="662.9,-758.38 669.25,-749.9 659,-752.57 662.9,-758.38"/>
</g>
<!-- BB13 -->
<g id="node14" class="node">
<title>BB13</title>
<ellipse fill="none" stroke="black" cx="482.84" cy="-576.75" rx="113.69" ry="48.17"/>
<text text-anchor="middle" x="482.84" y="-595.55" font-family="Times New Roman,serif" font-size="14.00">[b8..bd)</text>
<text text-anchor="middle" x="482.84" y="-580.55" font-family="Times New Roman,serif" font-size="14.00">Count: 7123</text>
<text text-anchor="middle" x="482.84" y="-565.55" font-family="Times New Roman,serif" font-size="14.00">Normalized count: Infinity</text>
<text text-anchor="middle" x="482.84" y="-550.55" font-family="Times New Roman,serif" font-size="14.00">Samples weight: 0.01</text>
</g>
<!-- BB11&#45;&gt;BB13 -->
<g id="edge16" class="edge">
<title>BB11&#45;&gt;BB13</title>
<path fill="none" stroke="black" d="M482.84,-660.55C482.84,-652.29 482.84,-643.6 482.84,-635.1"/>
<polygon fill="black" stroke="black" points="486.34,-634.86 482.84,-624.86 479.34,-634.86 486.34,-634.86"/>
</g>
<!-- BB12 -->
<g id="node13" class="node">
<title>BB12</title>
<ellipse fill="none" stroke="black" cx="482.84" cy="-444.58" rx="113.69" ry="48.17"/>
<text text-anchor="middle" x="482.84" y="-463.38" font-family="Times New Roman,serif" font-size="14.00">[a2..b8)</text>
<text text-anchor="middle" x="482.84" y="-448.38" font-family="Times New Roman,serif" font-size="14.00">Count: 6985</text>
<text text-anchor="middle" x="482.84" y="-433.38" font-family="Times New Roman,serif" font-size="14.00">Normalized count: Infinity</text>
<text text-anchor="middle" x="482.84" y="-418.38" font-family="Times New Roman,serif" font-size="14.00">Samples weight: 0.01</text>
</g>
<!-- BB12&#45;&gt;BB13 -->
<g id="edge17" class="edge">
<title>BB12&#45;&gt;BB13</title>
<path fill="none" stroke="black" d="M489.36,-492.69C489.58,-500.95 489.65,-509.63 489.55,-518.14"/>
<polygon fill="black" stroke="black" points="486.05,-518.33 489.37,-528.39 493.05,-518.45 486.05,-518.33"/>
</g>
<!-- BB13&#45;&gt;BB12 -->
<g id="edge18" class="edge">
<title>BB13&#45;&gt;BB12</title>
<path fill="none" stroke="black" d="M476.32,-528.39C476.1,-520.12 476.04,-511.44 476.14,-502.93"/>
<polygon fill="black" stroke="black" points="479.64,-502.75 476.33,-492.69 472.64,-502.62 479.64,-502.75"/>
</g>
<!-- BB13&#45;&gt;BB14 -->
<g id="edge19" class="edge">
<title>BB13&#45;&gt;BB14</title>
<path fill="none" stroke="black" d="M553.1,-614.92C583.23,-630.87 618.56,-649.56 649.62,-665.99"/>
<polygon fill="black" stroke="black" points="648.2,-669.21 658.68,-670.79 651.48,-663.02 648.2,-669.21"/>
</g>
<!-- BB15 -->
<g id="node16" class="node">
<title>BB15</title>
<ellipse fill="none" stroke="black" cx="728.84" cy="-576.75" rx="113.69" ry="48.17"/>
<text text-anchor="middle" x="728.84" y="-595.55" font-family="Times New Roman,serif" font-size="14.00">[c3..ca)</text>
<text text-anchor="middle" x="728.84" y="-580.55" font-family="Times New Roman,serif" font-size="14.00">Count: 129</text>
<text text-anchor="middle" x="728.84" y="-565.55" font-family="Times New Roman,serif" font-size="14.00">Normalized count: Infinity</text>
<text text-anchor="middle" x="728.84" y="-550.55" font-family="Times New Roman,serif" font-size="14.00">Samples weight: 0.00</text>
</g>
<!-- BB14&#45;&gt;BB15 -->
<g id="edge21" class="edge">
<title>BB14&#45;&gt;BB15</title>
<path fill="none" stroke="black" d="M728.84,-660.55C728.84,-652.29 728.84,-643.6 728.84,-635.1"/>
<polygon fill="black" stroke="black" points="732.34,-634.86 728.84,-624.86 725.34,-634.86 732.34,-634.86"/>
</g>
<!-- BB21 -->
<g id="node22" class="node">
<title>BB21</title>
<ellipse fill="none" stroke="black" cx="974.84" cy="-576.75" rx="113.69" ry="48.17"/>
<text text-anchor="middle" x="974.84" y="-595.55" font-family="Times New Roman,serif" font-size="14.00">[10d..111)</text>
<text text-anchor="middle" x="974.84" y="-580.55" font-family="Times New Roman,serif" font-size="14.00">Count: 66</text>
<text text-anchor="middle" x="974.84" y="-565.55" font-family="Times New Roman,serif" font-size="14.00">Normalized count: Infinity</text>
<text text-anchor="middle" x="974.84" y="-550.55" font-family="Times New Roman,serif" font-size="14.00">Samples weight: 0.00</text>
</g>
<!-- BB14&#45;&gt;BB21 -->
<g id="edge20" class="edge">
<title>BB14&#45;&gt;BB21</title>
<path fill="none" stroke="black" d="M799.01,-670.79C829.12,-654.85 864.46,-636.16 895.52,-619.72"/>
<polygon fill="black" stroke="black" points="897.38,-622.7 904.59,-614.92 894.11,-616.51 897.38,-622.7"/>
</g>
<!-- BB20 -->
<g id="node21" class="node">
<title>BB20</title>
<ellipse fill="none" stroke="black" cx="851.84" cy="-444.58" rx="113.69" ry="48.17"/>
<text text-anchor="middle" x="851.84" y="-463.38" font-family="Times New Roman,serif" font-size="14.00">[108..10d)</text>
<text text-anchor="middle" x="851.84" y="-448.38" font-family="Times New Roman,serif" font-size="14.00">Count: 6243</text>
<text text-anchor="middle" x="851.84" y="-433.38" font-family="Times New Roman,serif" font-size="14.00">Normalized count: Infinity</text>
<text text-anchor="middle" x="851.84" y="-418.38" font-family="Times New Roman,serif" font-size="14.00">Samples weight: 0.01</text>
</g>
<!-- BB15&#45;&gt;BB20 -->
<g id="edge22" class="edge">
<title>BB15&#45;&gt;BB20</title>
<path fill="none" stroke="black" d="M770.49,-531.68C781.01,-520.55 792.39,-508.5 803.22,-497.04"/>
<polygon fill="black" stroke="black" points="805.92,-499.28 810.24,-489.61 800.83,-494.47 805.92,-499.28"/>
</g>
<!-- BB16 -->
<g id="node17" class="node">
<title>BB16</title>
<ellipse fill="none" stroke="black" cx="922.84" cy="-312.42" rx="113.69" ry="48.17"/>
<text text-anchor="middle" x="922.84" y="-331.22" font-family="Times New Roman,serif" font-size="14.00">[ca..e2)</text>
<text text-anchor="middle" x="922.84" y="-316.22" font-family="Times New Roman,serif" font-size="14.00">Count: 6116</text>
<text text-anchor="middle" x="922.84" y="-301.22" font-family="Times New Roman,serif" font-size="14.00">Normalized count: Infinity</text>
<text text-anchor="middle" x="922.84" y="-286.22" font-family="Times New Roman,serif" font-size="14.00">Samples weight: 0.01</text>
</g>
<!-- BB18 -->
<g id="node19" class="node">
<title>BB18</title>
<ellipse fill="none" stroke="black" cx="948.84" cy="-180.25" rx="113.69" ry="48.17"/>
<text text-anchor="middle" x="948.84" y="-199.05" font-family="Times New Roman,serif" font-size="14.00">[fd..102)</text>
<text text-anchor="middle" x="948.84" y="-184.05" font-family="Times New Roman,serif" font-size="14.00">Count: 458266</text>
<text text-anchor="middle" x="948.84" y="-169.05" font-family="Times New Roman,serif" font-size="14.00">Normalized count: Infinity</text>
<text text-anchor="middle" x="948.84" y="-154.05" font-family="Times New Roman,serif" font-size="14.00">Samples weight: 0.48</text>
</g>
<!-- BB16&#45;&gt;BB18 -->
<g id="edge23" class="edge">
<title>BB16&#45;&gt;BB18</title>
<path fill="none" stroke="black" d="M932.23,-264.42C933.94,-255.85 935.75,-246.83 937.51,-238.01"/>
<polygon fill="black" stroke="black" points="940.94,-238.67 939.47,-228.17 934.08,-237.29 940.94,-238.67"/>
</g>
<!-- BB17 -->
<g id="node18" class="node">
<title>BB17</title>
<ellipse fill="none" stroke="black" cx="974.84" cy="-48.08" rx="113.69" ry="48.17"/>
<text text-anchor="middle" x="974.84" y="-66.88" font-family="Times New Roman,serif" font-size="14.00">[e2..fd)</text>
<text text-anchor="middle" x="974.84" y="-51.88" font-family="Times New Roman,serif" font-size="14.00">Count: 451704</text>
<text text-anchor="middle" x="974.84" y="-36.88" font-family="Times New Roman,serif" font-size="14.00">Normalized count: Infinity</text>
<text text-anchor="middle" x="974.84" y="-21.88" font-family="Times New Roman,serif" font-size="14.00">Samples weight: 0.47</text>
</g>
<!-- BB17&#45;&gt;BB18 -->
<g id="edge24" class="edge">
<title>BB17&#45;&gt;BB18</title>
<path fill="none" stroke="black" d="M971.94,-96.26C970.45,-104.86 968.7,-113.92 966.82,-122.77"/>
<polygon fill="black" stroke="black" points="963.39,-122.11 964.66,-132.62 970.22,-123.61 963.39,-122.11"/>
</g>
<!-- BB18&#45;&gt;BB17 -->
<g id="edge25" class="edge">
<title>BB18&#45;&gt;BB17</title>
<path fill="none" stroke="black" d="M951.78,-131.89C953.27,-123.33 955.01,-114.33 956.87,-105.55"/>
<polygon fill="black" stroke="black" points="960.29,-106.27 959.02,-95.76 953.46,-104.77 960.29,-106.27"/>
</g>
<!-- BB19 -->
<g id="node20" class="node">
<title>BB19</title>
<ellipse fill="none" stroke="black" cx="728.84" cy="-48.08" rx="113.69" ry="48.17"/>
<text text-anchor="middle" x="728.84" y="-66.88" font-family="Times New Roman,serif" font-size="14.00">[102..108)</text>
<text text-anchor="middle" x="728.84" y="-51.88" font-family="Times New Roman,serif" font-size="14.00">Count: 6109</text>
<text text-anchor="middle" x="728.84" y="-36.88" font-family="Times New Roman,serif" font-size="14.00">Normalized count: Infinity</text>
<text text-anchor="middle" x="728.84" y="-21.88" font-family="Times New Roman,serif" font-size="14.00">Samples weight: 0.01</text>
</g>
<!-- BB18&#45;&gt;BB19 -->
<g id="edge26" class="edge">
<title>BB18&#45;&gt;BB19</title>
<path fill="none" stroke="black" d="M883.73,-140.72C858.34,-125.7 829.11,-108.41 802.92,-92.91"/>
<polygon fill="black" stroke="black" points="804.56,-89.82 794.17,-87.74 801,-95.84 804.56,-89.82"/>
</g>
<!-- BB19&#45;&gt;BB20 -->
<g id="edge27" class="edge">
<title>BB19&#45;&gt;BB20</title>
<path fill="none" stroke="black" d="M734.58,-96.21C743.28,-158.54 762.85,-270.94 799.84,-360.5 803.83,-370.15 808.9,-379.95 814.29,-389.28"/>
<polygon fill="black" stroke="black" points="811.4,-391.27 819.54,-398.05 817.41,-387.67 811.4,-391.27"/>
</g>
<!-- BB20&#45;&gt;BB16 -->
<g id="edge28" class="edge">
<title>BB20&#45;&gt;BB16</title>
<path fill="none" stroke="black" d="M877.08,-397.32C882.15,-388.02 887.53,-378.16 892.75,-368.58"/>
<polygon fill="black" stroke="black" points="895.98,-369.98 897.69,-359.53 889.83,-366.63 895.98,-369.98"/>
</g>
<!-- BB20&#45;&gt;BB21 -->
<g id="edge29" class="edge">
<title>BB20&#45;&gt;BB21</title>
<path fill="none" stroke="black" d="M893.44,-489.61C903.96,-500.74 915.35,-512.79 926.18,-524.25"/>
<polygon fill="black" stroke="black" points="923.79,-526.82 933.2,-531.68 928.88,-522.01 923.79,-526.82"/>
</g>
<!-- BB21&#45;&gt;BB22 -->
<g id="edge30" class="edge">
<title>BB21&#45;&gt;BB22</title>
<path fill="none" stroke="black" d="M974.84,-625.14C974.84,-677.68 974.84,-764.93 974.84,-840.08 974.84,-1238.58 974.84,-1238.58 974.84,-1238.58 974.84,-1309.03 974.84,-1390.13 974.84,-1443.28"/>
<polygon fill="black" stroke="black" points="971.34,-1443.52 974.84,-1453.52 978.34,-1443.52 971.34,-1443.52"/>
</g>
<!-- BB22&#45;&gt;BB1 -->
<g id="edge31" class="edge">
<title>BB22&#45;&gt;BB1</title>
<path fill="none" stroke="black" d="M903.13,-1464.31C871.22,-1448.02 833.5,-1428.77 800.6,-1411.97"/>
<polygon fill="black" stroke="black" points="801.96,-1408.73 791.46,-1407.3 798.77,-1414.97 801.96,-1408.73"/>
</g>
<!-- BB23 -->
<g id="node24" class="node">
<title>BB23</title>
<ellipse fill="none" stroke="black" cx="1116.84" cy="-1369.75" rx="113.69" ry="48.17"/>
<text text-anchor="middle" x="1116.84" y="-1388.55" font-family="Times New Roman,serif" font-size="14.00">[118..11a)</text>
<text text-anchor="middle" x="1116.84" y="-1373.55" font-family="Times New Roman,serif" font-size="14.00">Count: 7</text>
<text text-anchor="middle" x="1116.84" y="-1358.55" font-family="Times New Roman,serif" font-size="14.00">Normalized count: Infinity</text>
<text text-anchor="middle" x="1116.84" y="-1343.55" font-family="Times New Roman,serif" font-size="14.00">Samples weight: 0.00</text>
</g>
<!-- BB22&#45;&gt;BB23 -->
<g id="edge32" class="edge">
<title>BB22&#45;&gt;BB23</title>
<path fill="none" stroke="black" d="M1021.73,-1457.93C1034.82,-1445.94 1049.15,-1432.8 1062.62,-1420.45"/>
<polygon fill="black" stroke="black" points="1065,-1423.02 1070,-1413.69 1060.27,-1417.86 1065,-1423.02"/>
</g>
</g>
</svg>
