<?xml version="1.0" encoding="UTF-8" standalone="no"?>
<!DOCTYPE svg PUBLIC "-//W3C//DTD SVG 1.1//EN"
 "http://www.w3.org/Graphics/SVG/1.1/DTD/svg11.dtd">
<!-- Generated by graphviz version 2.47.0 (20210316.0004)
 -->
<!-- Title: G Pages: 1 -->
<svg width="1201pt" height="1690pt"
 viewBox="0.00 0.00 1201.50 1690.16" xmlns="http://www.w3.org/2000/svg" xmlns:xlink="http://www.w3.org/1999/xlink">
<g id="graph0" class="graph" transform="scale(1 1) rotate(0) translate(4 1686.16)">
<title>G</title>
<polygon fill="white" stroke="transparent" points="-4,4 -4,-1686.16 1197.5,-1686.16 1197.5,4 -4,4"/>
<!-- BB0 -->
<g id="node1" class="node">
<title>BB0</title>
<ellipse fill="none" stroke="black" cx="955.84" cy="-1634.08" rx="104.8" ry="48.17"/>
<text text-anchor="middle" x="955.84" y="-1652.88" font-family="Times New Roman,serif" font-size="14.00">[0..19)</text>
<text text-anchor="middle" x="955.84" y="-1637.88" font-family="Times New Roman,serif" font-size="14.00">Count: 0</text>
<text text-anchor="middle" x="955.84" y="-1622.88" font-family="Times New Roman,serif" font-size="14.00">Normalized count: NaN</text>
<text text-anchor="middle" x="955.84" y="-1607.88" font-family="Times New Roman,serif" font-size="14.00">Samples weight: 0.00</text>
</g>
<!-- BB22 -->
<g id="node23" class="node">
<title>BB22</title>
<ellipse fill="none" stroke="black" cx="955.84" cy="-1501.92" rx="104.8" ry="48.17"/>
<text text-anchor="middle" x="955.84" y="-1520.72" font-family="Times New Roman,serif" font-size="14.00">[111..118)</text>
<text text-anchor="middle" x="955.84" y="-1505.72" font-family="Times New Roman,serif" font-size="14.00">Count: 0</text>
<text text-anchor="middle" x="955.84" y="-1490.72" font-family="Times New Roman,serif" font-size="14.00">Normalized count: NaN</text>
<text text-anchor="middle" x="955.84" y="-1475.72" font-family="Times New Roman,serif" font-size="14.00">Samples weight: 0.00</text>
</g>
<!-- BB0&#45;&gt;BB22 -->
<g id="edge1" class="edge">
<title>BB0&#45;&gt;BB22</title>
<path fill="none" stroke="black" d="M955.84,-1585.72C955.84,-1577.45 955.84,-1568.77 955.84,-1560.27"/>
<polygon fill="black" stroke="black" points="959.34,-1560.02 955.84,-1550.02 952.34,-1560.02 959.34,-1560.02"/>
</g>
<!-- BB1 -->
<g id="node2" class="node">
<title>BB1</title>
<ellipse fill="none" stroke="black" cx="704.84" cy="-1369.75" rx="113.69" ry="48.17"/>
<text text-anchor="middle" x="704.84" y="-1388.55" font-family="Times New Roman,serif" font-size="14.00">[19..2f)</text>
<text text-anchor="middle" x="704.84" y="-1373.55" font-family="Times New Roman,serif" font-size="14.00">Count: 4</text>
<text text-anchor="middle" x="704.84" y="-1358.55" font-family="Times New Roman,serif" font-size="14.00">Normalized count: Infinity</text>
<text text-anchor="middle" x="704.84" y="-1343.55" font-family="Times New Roman,serif" font-size="14.00">Samples weight: 0.00</text>
</g>
<!-- BB5 -->
<g id="node6" class="node">
<title>BB5</title>
<ellipse fill="none" stroke="black" cx="548.84" cy="-1237.58" rx="113.69" ry="48.17"/>
<text text-anchor="middle" x="548.84" y="-1256.38" font-family="Times New Roman,serif" font-size="14.00">[50..55)</text>
<text text-anchor="middle" x="548.84" y="-1241.38" font-family="Times New Roman,serif" font-size="14.00">Count: 1</text>
<text text-anchor="middle" x="548.84" y="-1226.38" font-family="Times New Roman,serif" font-size="14.00">Normalized count: Infinity</text>
<text text-anchor="middle" x="548.84" y="-1211.38" font-family="Times New Roman,serif" font-size="14.00">Samples weight: 0.00</text>
</g>
<!-- BB1&#45;&gt;BB5 -->
<g id="edge2" class="edge">
<title>BB1&#45;&gt;BB5</title>
<path fill="none" stroke="black" d="M654.2,-1326.49C639.27,-1314.03 622.82,-1300.3 607.44,-1287.47"/>
<polygon fill="black" stroke="black" points="609.43,-1284.57 599.51,-1280.85 604.94,-1289.95 609.43,-1284.57"/>
</g>
<!-- BB2 -->
<g id="node3" class="node">
<title>BB2</title>
<ellipse fill="none" stroke="black" cx="335.84" cy="-1105.42" rx="113.69" ry="48.17"/>
<text text-anchor="middle" x="335.84" y="-1124.22" font-family="Times New Roman,serif" font-size="14.00">[2f..42)</text>
<text text-anchor="middle" x="335.84" y="-1109.22" font-family="Times New Roman,serif" font-size="14.00">Count: 29</text>
<text text-anchor="middle" x="335.84" y="-1094.22" font-family="Times New Roman,serif" font-size="14.00">Normalized count: Infinity</text>
<text text-anchor="middle" x="335.84" y="-1079.22" font-family="Times New Roman,serif" font-size="14.00">Samples weight: 0.02</text>
</g>
<!-- BB3 -->
<g id="node4" class="node">
<title>BB3</title>
<ellipse fill="none" stroke="black" cx="113.84" cy="-973.25" rx="113.69" ry="48.17"/>
<text text-anchor="middle" x="113.84" y="-992.05" font-family="Times New Roman,serif" font-size="14.00">[42..4a)</text>
<text text-anchor="middle" x="113.84" y="-977.05" font-family="Times New Roman,serif" font-size="14.00">Count: 4</text>
<text text-anchor="middle" x="113.84" y="-962.05" font-family="Times New Roman,serif" font-size="14.00">Normalized count: Infinity</text>
<text text-anchor="middle" x="113.84" y="-947.05" font-family="Times New Roman,serif" font-size="14.00">Samples weight: 0.00</text>
</g>
<!-- BB2&#45;&gt;BB3 -->
<g id="edge4" class="edge">
<title>BB2&#45;&gt;BB3</title>
<path fill="none" stroke="black" d="M270.14,-1065.89C244.41,-1050.8 214.76,-1033.42 188.24,-1017.87"/>
<polygon fill="black" stroke="black" points="189.78,-1014.71 179.38,-1012.68 186.24,-1020.75 189.78,-1014.71"/>
</g>
<!-- BB4 -->
<g id="node5" class="node">
<title>BB4</title>
<ellipse fill="none" stroke="black" cx="359.84" cy="-973.25" rx="113.69" ry="48.17"/>
<text text-anchor="middle" x="359.84" y="-992.05" font-family="Times New Roman,serif" font-size="14.00">[4a..50)</text>
<text text-anchor="middle" x="359.84" y="-977.05" font-family="Times New Roman,serif" font-size="14.00">Count: 3</text>
<text text-anchor="middle" x="359.84" y="-962.05" font-family="Times New Roman,serif" font-size="14.00">Normalized count: Infinity</text>
<text text-anchor="middle" x="359.84" y="-947.05" font-family="Times New Roman,serif" font-size="14.00">Samples weight: 0.00</text>
</g>
<!-- BB2&#45;&gt;BB4 -->
<g id="edge3" class="edge">
<title>BB2&#45;&gt;BB4</title>
<path fill="none" stroke="black" d="M344.51,-1057.42C346.05,-1049.05 347.68,-1040.24 349.27,-1031.61"/>
<polygon fill="black" stroke="black" points="352.74,-1032.08 351.11,-1021.61 345.86,-1030.81 352.74,-1032.08"/>
</g>
<!-- BB3&#45;&gt;BB4 -->
<g id="edge5" class="edge">
<title>BB3&#45;&gt;BB4</title>
<path fill="none" stroke="black" d="M227.72,-973.25C230.35,-973.25 232.98,-973.25 235.62,-973.25"/>
<polygon fill="black" stroke="black" points="235.78,-976.75 245.78,-973.25 235.78,-969.75 235.78,-976.75"/>
</g>
<!-- BB4&#45;&gt;BB5 -->
<g id="edge6" class="edge">
<title>BB4&#45;&gt;BB5</title>
<path fill="none" stroke="black" d="M417.91,-1014.79C432.69,-1027.16 447.56,-1041.68 458.84,-1057.33 485.71,-1094.62 476.12,-1112.48 496.84,-1153.5 501.66,-1163.03 507.24,-1172.89 512.92,-1182.33"/>
<polygon fill="black" stroke="black" points="509.95,-1184.17 518.15,-1190.87 515.92,-1180.52 509.95,-1184.17"/>
</g>
<!-- BB5&#45;&gt;BB2 -->
<g id="edge7" class="edge">
<title>BB5&#45;&gt;BB2</title>
<path fill="none" stroke="black" d="M485.23,-1197.7C460.99,-1182.89 433.2,-1165.91 408.21,-1150.64"/>
<polygon fill="black" stroke="black" points="409.86,-1147.55 399.5,-1145.32 406.21,-1153.52 409.86,-1147.55"/>
</g>
<!-- BB6 -->
<g id="node7" class="node">
<title>BB6</title>
<ellipse fill="none" stroke="black" cx="619.84" cy="-1105.42" rx="113.69" ry="48.17"/>
<text text-anchor="middle" x="619.84" y="-1124.22" font-family="Times New Roman,serif" font-size="14.00">[55..6b)</text>
<text text-anchor="middle" x="619.84" y="-1109.22" font-family="Times New Roman,serif" font-size="14.00">Count: 2</text>
<text text-anchor="middle" x="619.84" y="-1094.22" font-family="Times New Roman,serif" font-size="14.00">Normalized count: Infinity</text>
<text text-anchor="middle" x="619.84" y="-1079.22" font-family="Times New Roman,serif" font-size="14.00">Samples weight: 0.00</text>
</g>
<!-- BB5&#45;&gt;BB6 -->
<g id="edge8" class="edge">
<title>BB5&#45;&gt;BB6</title>
<path fill="none" stroke="black" d="M574.08,-1190.32C579.15,-1181.02 584.53,-1171.16 589.75,-1161.58"/>
<polygon fill="black" stroke="black" points="592.98,-1162.98 594.69,-1152.52 586.83,-1159.63 592.98,-1162.98"/>
</g>
<!-- BB7 -->
<g id="node8" class="node">
<title>BB7</title>
<ellipse fill="none" stroke="black" cx="822.84" cy="-973.25" rx="104.8" ry="48.17"/>
<text text-anchor="middle" x="822.84" y="-992.05" font-family="Times New Roman,serif" font-size="14.00">[6b..6d)</text>
<text text-anchor="middle" x="822.84" y="-977.05" font-family="Times New Roman,serif" font-size="14.00">Count: 0</text>
<text text-anchor="middle" x="822.84" y="-962.05" font-family="Times New Roman,serif" font-size="14.00">Normalized count: NaN</text>
<text text-anchor="middle" x="822.84" y="-947.05" font-family="Times New Roman,serif" font-size="14.00">Samples weight: 0.00</text>
</g>
<!-- BB6&#45;&gt;BB7 -->
<g id="edge10" class="edge">
<title>BB6&#45;&gt;BB7</title>
<path fill="none" stroke="black" d="M681.58,-1064.83C704.54,-1050.11 730.72,-1033.32 754.26,-1018.23"/>
<polygon fill="black" stroke="black" points="756.27,-1021.1 762.8,-1012.75 752.49,-1015.2 756.27,-1021.1"/>
</g>
<!-- BB8 -->
<g id="node9" class="node">
<title>BB8</title>
<ellipse fill="none" stroke="black" cx="595.84" cy="-973.25" rx="104.8" ry="48.17"/>
<text text-anchor="middle" x="595.84" y="-992.05" font-family="Times New Roman,serif" font-size="14.00">[6d..72)</text>
<text text-anchor="middle" x="595.84" y="-977.05" font-family="Times New Roman,serif" font-size="14.00">Count: 0</text>
<text text-anchor="middle" x="595.84" y="-962.05" font-family="Times New Roman,serif" font-size="14.00">Normalized count: NaN</text>
<text text-anchor="middle" x="595.84" y="-947.05" font-family="Times New Roman,serif" font-size="14.00">Samples weight: 0.00</text>
</g>
<!-- BB6&#45;&gt;BB8 -->
<g id="edge9" class="edge">
<title>BB6&#45;&gt;BB8</title>
<path fill="none" stroke="black" d="M611.18,-1057.42C609.62,-1048.94 607.97,-1040.02 606.36,-1031.29"/>
<polygon fill="black" stroke="black" points="609.75,-1030.37 604.5,-1021.17 602.87,-1031.64 609.75,-1030.37"/>
</g>
<!-- BB9 -->
<g id="node10" class="node">
<title>BB9</title>
<ellipse fill="none" stroke="black" cx="770.84" cy="-841.08" rx="104.8" ry="48.17"/>
<text text-anchor="middle" x="770.84" y="-859.88" font-family="Times New Roman,serif" font-size="14.00">[72..84)</text>
<text text-anchor="middle" x="770.84" y="-844.88" font-family="Times New Roman,serif" font-size="14.00">Count: 0</text>
<text text-anchor="middle" x="770.84" y="-829.88" font-family="Times New Roman,serif" font-size="14.00">Normalized count: NaN</text>
<text text-anchor="middle" x="770.84" y="-814.88" font-family="Times New Roman,serif" font-size="14.00">Samples weight: 0.00</text>
</g>
<!-- BB8&#45;&gt;BB9 -->
<g id="edge12" class="edge">
<title>BB8&#45;&gt;BB9</title>
<path fill="none" stroke="black" d="M650.26,-931.78C668.78,-918 689.63,-902.49 708.71,-888.3"/>
<polygon fill="black" stroke="black" points="710.83,-891.08 716.77,-882.31 706.65,-885.47 710.83,-891.08"/>
</g>
<!-- BB10 -->
<g id="node11" class="node">
<title>BB10</title>
<ellipse fill="none" stroke="black" cx="543.84" cy="-841.08" rx="104.8" ry="48.17"/>
<text text-anchor="middle" x="543.84" y="-859.88" font-family="Times New Roman,serif" font-size="14.00">[84..8a)</text>
<text text-anchor="middle" x="543.84" y="-844.88" font-family="Times New Roman,serif" font-size="14.00">Count: 0</text>
<text text-anchor="middle" x="543.84" y="-829.88" font-family="Times New Roman,serif" font-size="14.00">Normalized count: NaN</text>
<text text-anchor="middle" x="543.84" y="-814.88" font-family="Times New Roman,serif" font-size="14.00">Samples weight: 0.00</text>
</g>
<!-- BB8&#45;&gt;BB10 -->
<g id="edge11" class="edge">
<title>BB8&#45;&gt;BB10</title>
<path fill="none" stroke="black" d="M577.22,-925.62C573.67,-916.74 569.92,-907.37 566.27,-898.23"/>
<polygon fill="black" stroke="black" points="569.48,-896.81 562.52,-888.82 562.97,-899.4 569.48,-896.81"/>
</g>
<!-- BB9&#45;&gt;BB10 -->
<g id="edge13" class="edge">
<title>BB9&#45;&gt;BB10</title>
<path fill="none" stroke="black" d="M666.07,-841.08C663.74,-841.08 661.42,-841.08 659.1,-841.08"/>
<polygon fill="black" stroke="black" points="658.92,-837.58 648.92,-841.08 658.92,-844.58 658.92,-837.58"/>
</g>
<!-- BB11 -->
<g id="node12" class="node">
<title>BB11</title>
<ellipse fill="none" stroke="black" cx="492.84" cy="-708.92" rx="113.69" ry="48.17"/>
<text text-anchor="middle" x="492.84" y="-727.72" font-family="Times New Roman,serif" font-size="14.00">[8a..a2)</text>
<text text-anchor="middle" x="492.84" y="-712.72" font-family="Times New Roman,serif" font-size="14.00">Count: 1</text>
<text text-anchor="middle" x="492.84" y="-697.72" font-family="Times New Roman,serif" font-size="14.00">Normalized count: Infinity</text>
<text text-anchor="middle" x="492.84" y="-682.72" font-family="Times New Roman,serif" font-size="14.00">Samples weight: 0.00</text>
</g>
<!-- BB10&#45;&gt;BB11 -->
<g id="edge15" class="edge">
<title>BB10&#45;&gt;BB11</title>
<path fill="none" stroke="black" d="M525.58,-793.46C522.1,-784.58 518.42,-775.2 514.84,-766.06"/>
<polygon fill="black" stroke="black" points="518.06,-764.69 511.16,-756.65 511.55,-767.24 518.06,-764.69"/>
</g>
<!-- BB14 -->
<g id="node15" class="node">
<title>BB14</title>
<ellipse fill="none" stroke="black" cx="728.84" cy="-708.92" rx="104.8" ry="48.17"/>
<text text-anchor="middle" x="728.84" y="-727.72" font-family="Times New Roman,serif" font-size="14.00">[bd..c3)</text>
<text text-anchor="middle" x="728.84" y="-712.72" font-family="Times New Roman,serif" font-size="14.00">Count: 0</text>
<text text-anchor="middle" x="728.84" y="-697.72" font-family="Times New Roman,serif" font-size="14.00">Normalized count: NaN</text>
<text text-anchor="middle" x="728.84" y="-682.72" font-family="Times New Roman,serif" font-size="14.00">Samples weight: 0.00</text>
</g>
<!-- BB10&#45;&gt;BB14 -->
<g id="edge14" class="edge">
<title>BB10&#45;&gt;BB14</title>
<path fill="none" stroke="black" d="M600.1,-800.5C620.37,-786.24 643.4,-770.03 664.32,-755.31"/>
<polygon fill="black" stroke="black" points="666.37,-758.15 672.53,-749.54 662.34,-752.43 666.37,-758.15"/>
</g>
<!-- BB13 -->
<g id="node14" class="node">
<title>BB13</title>
<ellipse fill="none" stroke="black" cx="492.84" cy="-576.75" rx="113.69" ry="48.17"/>
<text text-anchor="middle" x="492.84" y="-595.55" font-family="Times New Roman,serif" font-size="14.00">[b8..bd)</text>
<text text-anchor="middle" x="492.84" y="-580.55" font-family="Times New Roman,serif" font-size="14.00">Count: 4</text>
<text text-anchor="middle" x="492.84" y="-565.55" font-family="Times New Roman,serif" font-size="14.00">Normalized count: Infinity</text>
<text text-anchor="middle" x="492.84" y="-550.55" font-family="Times New Roman,serif" font-size="14.00">Samples weight: 0.00</text>
</g>
<!-- BB11&#45;&gt;BB13 -->
<g id="edge16" class="edge">
<title>BB11&#45;&gt;BB13</title>
<path fill="none" stroke="black" d="M492.84,-660.55C492.84,-652.29 492.84,-643.6 492.84,-635.1"/>
<polygon fill="black" stroke="black" points="496.34,-634.86 492.84,-624.86 489.34,-634.86 496.34,-634.86"/>
</g>
<!-- BB12 -->
<g id="node13" class="node">
<title>BB12</title>
<ellipse fill="none" stroke="black" cx="492.84" cy="-444.58" rx="113.69" ry="48.17"/>
<text text-anchor="middle" x="492.84" y="-463.38" font-family="Times New Roman,serif" font-size="14.00">[a2..b8)</text>
<text text-anchor="middle" x="492.84" y="-448.38" font-family="Times New Roman,serif" font-size="14.00">Count: 23</text>
<text text-anchor="middle" x="492.84" y="-433.38" font-family="Times New Roman,serif" font-size="14.00">Normalized count: Infinity</text>
<text text-anchor="middle" x="492.84" y="-418.38" font-family="Times New Roman,serif" font-size="14.00">Samples weight: 0.01</text>
</g>
<!-- BB12&#45;&gt;BB13 -->
<g id="edge17" class="edge">
<title>BB12&#45;&gt;BB13</title>
<path fill="none" stroke="black" d="M499.36,-492.69C499.58,-500.95 499.65,-509.63 499.55,-518.14"/>
<polygon fill="black" stroke="black" points="496.05,-518.33 499.37,-528.39 503.05,-518.45 496.05,-518.33"/>
</g>
<!-- BB13&#45;&gt;BB12 -->
<g id="edge18" class="edge">
<title>BB13&#45;&gt;BB12</title>
<path fill="none" stroke="black" d="M486.32,-528.39C486.1,-520.12 486.04,-511.44 486.14,-502.93"/>
<polygon fill="black" stroke="black" points="489.64,-502.75 486.33,-492.69 482.64,-502.62 489.64,-502.75"/>
</g>
<!-- BB13&#45;&gt;BB14 -->
<g id="edge19" class="edge">
<title>BB13&#45;&gt;BB14</title>
<path fill="none" stroke="black" d="M560.94,-615.31C589.97,-631.32 623.94,-650.05 653.7,-666.47"/>
<polygon fill="black" stroke="black" points="652.34,-669.72 662.79,-671.48 655.73,-663.59 652.34,-669.72"/>
</g>
<!-- BB15 -->
<g id="node16" class="node">
<title>BB15</title>
<ellipse fill="none" stroke="black" cx="728.84" cy="-576.75" rx="104.8" ry="48.17"/>
<text text-anchor="middle" x="728.84" y="-595.55" font-family="Times New Roman,serif" font-size="14.00">[c3..ca)</text>
<text text-anchor="middle" x="728.84" y="-580.55" font-family="Times New Roman,serif" font-size="14.00">Count: 0</text>
<text text-anchor="middle" x="728.84" y="-565.55" font-family="Times New Roman,serif" font-size="14.00">Normalized count: NaN</text>
<text text-anchor="middle" x="728.84" y="-550.55" font-family="Times New Roman,serif" font-size="14.00">Samples weight: 0.00</text>
</g>
<!-- BB14&#45;&gt;BB15 -->
<g id="edge21" class="edge">
<title>BB14&#45;&gt;BB15</title>
<path fill="none" stroke="black" d="M728.84,-660.55C728.84,-652.29 728.84,-643.6 728.84,-635.1"/>
<polygon fill="black" stroke="black" points="732.34,-634.86 728.84,-624.86 725.34,-634.86 732.34,-634.86"/>
</g>
<!-- BB21 -->
<g id="node22" class="node">
<title>BB21</title>
<ellipse fill="none" stroke="black" cx="955.84" cy="-576.75" rx="104.8" ry="48.17"/>
<text text-anchor="middle" x="955.84" y="-595.55" font-family="Times New Roman,serif" font-size="14.00">[10d..111)</text>
<text text-anchor="middle" x="955.84" y="-580.55" font-family="Times New Roman,serif" font-size="14.00">Count: 0</text>
<text text-anchor="middle" x="955.84" y="-565.55" font-family="Times New Roman,serif" font-size="14.00">Normalized count: NaN</text>
<text text-anchor="middle" x="955.84" y="-550.55" font-family="Times New Roman,serif" font-size="14.00">Samples weight: 0.00</text>
</g>
<!-- BB14&#45;&gt;BB21 -->
<g id="edge20" class="edge">
<title>BB14&#45;&gt;BB21</title>
<path fill="none" stroke="black" d="M793.29,-670.96C821.08,-655.02 853.74,-636.3 882.46,-619.83"/>
<polygon fill="black" stroke="black" points="884.31,-622.8 891.24,-614.79 880.83,-616.73 884.31,-622.8"/>
</g>
<!-- BB20 -->
<g id="node21" class="node">
<title>BB20</title>
<ellipse fill="none" stroke="black" cx="846.84" cy="-444.58" rx="113.69" ry="48.17"/>
<text text-anchor="middle" x="846.84" y="-463.38" font-family="Times New Roman,serif" font-size="14.00">[108..10d)</text>
<text text-anchor="middle" x="846.84" y="-448.38" font-family="Times New Roman,serif" font-size="14.00">Count: 8</text>
<text text-anchor="middle" x="846.84" y="-433.38" font-family="Times New Roman,serif" font-size="14.00">Normalized count: Infinity</text>
<text text-anchor="middle" x="846.84" y="-418.38" font-family="Times New Roman,serif" font-size="14.00">Samples weight: 0.00</text>
</g>
<!-- BB15&#45;&gt;BB20 -->
<g id="edge22" class="edge">
<title>BB15&#45;&gt;BB20</title>
<path fill="none" stroke="black" d="M768.46,-532.04C778.57,-520.9 789.53,-508.81 799.96,-497.3"/>
<polygon fill="black" stroke="black" points="802.6,-499.6 806.72,-489.84 797.42,-494.9 802.6,-499.6"/>
</g>
<!-- BB16 -->
<g id="node17" class="node">
<title>BB16</title>
<ellipse fill="none" stroke="black" cx="917.84" cy="-312.42" rx="113.69" ry="48.17"/>
<text text-anchor="middle" x="917.84" y="-331.22" font-family="Times New Roman,serif" font-size="14.00">[ca..e2)</text>
<text text-anchor="middle" x="917.84" y="-316.22" font-family="Times New Roman,serif" font-size="14.00">Count: 71</text>
<text text-anchor="middle" x="917.84" y="-301.22" font-family="Times New Roman,serif" font-size="14.00">Normalized count: Infinity</text>
<text text-anchor="middle" x="917.84" y="-286.22" font-family="Times New Roman,serif" font-size="14.00">Samples weight: 0.04</text>
</g>
<!-- BB18 -->
<g id="node19" class="node">
<title>BB18</title>
<ellipse fill="none" stroke="black" cx="943.84" cy="-180.25" rx="113.69" ry="48.17"/>
<text text-anchor="middle" x="943.84" y="-199.05" font-family="Times New Roman,serif" font-size="14.00">[fd..102)</text>
<text text-anchor="middle" x="943.84" y="-184.05" font-family="Times New Roman,serif" font-size="14.00">Count: 165</text>
<text text-anchor="middle" x="943.84" y="-169.05" font-family="Times New Roman,serif" font-size="14.00">Normalized count: Infinity</text>
<text text-anchor="middle" x="943.84" y="-154.05" font-family="Times New Roman,serif" font-size="14.00">Samples weight: 0.09</text>
</g>
<!-- BB16&#45;&gt;BB18 -->
<g id="edge23" class="edge">
<title>BB16&#45;&gt;BB18</title>
<path fill="none" stroke="black" d="M927.23,-264.42C928.94,-255.85 930.75,-246.83 932.51,-238.01"/>
<polygon fill="black" stroke="black" points="935.94,-238.67 934.47,-228.17 929.08,-237.29 935.94,-238.67"/>
</g>
<!-- BB17 -->
<g id="node18" class="node">
<title>BB17</title>
<ellipse fill="none" stroke="black" cx="969.84" cy="-48.08" rx="113.69" ry="48.17"/>
<text text-anchor="middle" x="969.84" y="-66.88" font-family="Times New Roman,serif" font-size="14.00">[e2..fd)</text>
<text text-anchor="middle" x="969.84" y="-51.88" font-family="Times New Roman,serif" font-size="14.00">Count: 1519</text>
<text text-anchor="middle" x="969.84" y="-36.88" font-family="Times New Roman,serif" font-size="14.00">Normalized count: Infinity</text>
<text text-anchor="middle" x="969.84" y="-21.88" font-family="Times New Roman,serif" font-size="14.00">Samples weight: 0.82</text>
</g>
<!-- BB17&#45;&gt;BB18 -->
<g id="edge24" class="edge">
<title>BB17&#45;&gt;BB18</title>
<path fill="none" stroke="black" d="M966.94,-96.26C965.45,-104.86 963.7,-113.92 961.82,-122.77"/>
<polygon fill="black" stroke="black" points="958.39,-122.11 959.66,-132.62 965.22,-123.61 958.39,-122.11"/>
</g>
<!-- BB18&#45;&gt;BB17 -->
<g id="edge25" class="edge">
<title>BB18&#45;&gt;BB17</title>
<path fill="none" stroke="black" d="M946.78,-131.89C948.27,-123.33 950.01,-114.33 951.87,-105.55"/>
<polygon fill="black" stroke="black" points="955.29,-106.27 954.02,-95.76 948.46,-104.77 955.29,-106.27"/>
</g>
<!-- BB19 -->
<g id="node20" class="node">
<title>BB19</title>
<ellipse fill="none" stroke="black" cx="723.84" cy="-48.08" rx="113.69" ry="48.17"/>
<text text-anchor="middle" x="723.84" y="-66.88" font-family="Times New Roman,serif" font-size="14.00">[102..108)</text>
<text text-anchor="middle" x="723.84" y="-51.88" font-family="Times New Roman,serif" font-size="14.00">Count: 28</text>
<text text-anchor="middle" x="723.84" y="-36.88" font-family="Times New Roman,serif" font-size="14.00">Normalized count: Infinity</text>
<text text-anchor="middle" x="723.84" y="-21.88" font-family="Times New Roman,serif" font-size="14.00">Samples weight: 0.02</text>
</g>
<!-- BB18&#45;&gt;BB19 -->
<g id="edge26" class="edge">
<title>BB18&#45;&gt;BB19</title>
<path fill="none" stroke="black" d="M878.73,-140.72C853.34,-125.7 824.11,-108.41 797.92,-92.91"/>
<polygon fill="black" stroke="black" points="799.56,-89.82 789.17,-87.74 796,-95.84 799.56,-89.82"/>
</g>
<!-- BB19&#45;&gt;BB20 -->
<g id="edge27" class="edge">
<title>BB19&#45;&gt;BB20</title>
<path fill="none" stroke="black" d="M729.58,-96.21C738.28,-158.54 757.85,-270.94 794.84,-360.5 798.83,-370.15 803.9,-379.95 809.29,-389.28"/>
<polygon fill="black" stroke="black" points="806.4,-391.27 814.54,-398.05 812.41,-387.67 806.4,-391.27"/>
</g>
<!-- BB20&#45;&gt;BB16 -->
<g id="edge28" class="edge">
<title>BB20&#45;&gt;BB16</title>
<path fill="none" stroke="black" d="M872.08,-397.32C877.15,-388.02 882.53,-378.16 887.75,-368.58"/>
<polygon fill="black" stroke="black" points="890.98,-369.98 892.69,-359.53 884.83,-366.63 890.98,-369.98"/>
</g>
<!-- BB20&#45;&gt;BB21 -->
<g id="edge29" class="edge">
<title>BB20&#45;&gt;BB21</title>
<path fill="none" stroke="black" d="M884.08,-490.05C893.23,-500.98 903.11,-512.77 912.52,-524.01"/>
<polygon fill="black" stroke="black" points="909.84,-526.26 918.94,-531.68 915.2,-521.77 909.84,-526.26"/>
</g>
<!-- BB21&#45;&gt;BB22 -->
<g id="edge30" class="edge">
<title>BB21&#45;&gt;BB22</title>
<path fill="none" stroke="black" d="M955.84,-625.14C955.84,-677.68 955.84,-764.93 955.84,-840.08 955.84,-1238.58 955.84,-1238.58 955.84,-1238.58 955.84,-1309.03 955.84,-1390.13 955.84,-1443.28"/>
<polygon fill="black" stroke="black" points="952.34,-1443.52 955.84,-1453.52 959.34,-1443.52 952.34,-1443.52"/>
</g>
<!-- BB22&#45;&gt;BB1 -->
<g id="edge31" class="edge">
<title>BB22&#45;&gt;BB1</title>
<path fill="none" stroke="black" d="M887.26,-1465.35C855.68,-1448.97 818.01,-1429.43 785.11,-1412.38"/>
<polygon fill="black" stroke="black" points="786.46,-1409.13 775.97,-1407.64 783.24,-1415.35 786.46,-1409.13"/>
</g>
<!-- BB23 -->
<g id="node24" class="node">
<title>BB23</title>
<ellipse fill="none" stroke="black" cx="1088.84" cy="-1369.75" rx="104.8" ry="48.17"/>
<text text-anchor="middle" x="1088.84" y="-1388.55" font-family="Times New Roman,serif" font-size="14.00">[118..11a)</text>
<text text-anchor="middle" x="1088.84" y="-1373.55" font-family="Times New Roman,serif" font-size="14.00">Count: 0</text>
<text text-anchor="middle" x="1088.84" y="-1358.55" font-family="Times New Roman,serif" font-size="14.00">Normalized count: NaN</text>
<text text-anchor="middle" x="1088.84" y="-1343.55" font-family="Times New Roman,serif" font-size="14.00">Samples weight: 0.00</text>
</g>
<!-- BB22&#45;&gt;BB23 -->
<g id="edge32" class="edge">
<title>BB22&#45;&gt;BB23</title>
<path fill="none" stroke="black" d="M999.76,-1457.93C1011.91,-1446.05 1025.19,-1433.05 1037.71,-1420.8"/>
<polygon fill="black" stroke="black" points="1040.27,-1423.18 1044.97,-1413.69 1035.38,-1418.18 1040.27,-1423.18"/>
</g>
</g>
</svg>
