<?xml version="1.0" encoding="UTF-8" standalone="no"?>
<!DOCTYPE svg PUBLIC "-//W3C//DTD SVG 1.1//EN"
 "http://www.w3.org/Graphics/SVG/1.1/DTD/svg11.dtd">
<!-- Generated by graphviz version 2.47.0 (20210316.0004)
 -->
<!-- Title: G Pages: 1 -->
<svg width="789pt" height="1426pt"
 viewBox="0.00 0.00 789.48 1425.83" xmlns="http://www.w3.org/2000/svg" xmlns:xlink="http://www.w3.org/1999/xlink">
<g id="graph0" class="graph" transform="scale(1 1) rotate(0) translate(4 1421.83)">
<title>G</title>
<polygon fill="white" stroke="transparent" points="-4,4 -4,-1421.83 785.48,-1421.83 785.48,4 -4,4"/>
<!-- BB0 -->
<g id="node1" class="node">
<title>BB0</title>
<ellipse fill="none" stroke="black" cx="215.24" cy="-1369.75" rx="103.48" ry="48.17"/>
<text text-anchor="middle" x="215.24" y="-1388.55" font-family="Times New Roman,serif" font-size="14.00">[0..4)</text>
<text text-anchor="middle" x="215.24" y="-1373.55" font-family="Times New Roman,serif" font-size="14.00">Count: 1</text>
<text text-anchor="middle" x="215.24" y="-1358.55" font-family="Times New Roman,serif" font-size="14.00">Normalized count: 1.00</text>
<text text-anchor="middle" x="215.24" y="-1343.55" font-family="Times New Roman,serif" font-size="14.00">Samples weight: 0.00</text>
</g>
<!-- BB1 -->
<g id="node2" class="node">
<title>BB1</title>
<ellipse fill="none" stroke="black" cx="103.24" cy="-1237.58" rx="103.48" ry="48.17"/>
<text text-anchor="middle" x="103.24" y="-1256.38" font-family="Times New Roman,serif" font-size="14.00">[4..5)</text>
<text text-anchor="middle" x="103.24" y="-1241.38" font-family="Times New Roman,serif" font-size="14.00">Count: 0</text>
<text text-anchor="middle" x="103.24" y="-1226.38" font-family="Times New Roman,serif" font-size="14.00">Normalized count: 0.00</text>
<text text-anchor="middle" x="103.24" y="-1211.38" font-family="Times New Roman,serif" font-size="14.00">Samples weight: 0.00</text>
</g>
<!-- BB0&#45;&gt;BB1 -->
<g id="edge2" class="edge">
<title>BB0&#45;&gt;BB1</title>
<path fill="none" stroke="black" d="M177.32,-1324.68C167.83,-1313.65 157.57,-1301.73 147.79,-1290.36"/>
<polygon fill="black" stroke="black" points="150.29,-1287.9 141.12,-1282.61 144.99,-1292.47 150.29,-1287.9"/>
</g>
<!-- BB2 -->
<g id="node3" class="node">
<title>BB2</title>
<ellipse fill="none" stroke="black" cx="327.24" cy="-1237.58" rx="103.48" ry="48.17"/>
<text text-anchor="middle" x="327.24" y="-1256.38" font-family="Times New Roman,serif" font-size="14.00">[5..f)</text>
<text text-anchor="middle" x="327.24" y="-1241.38" font-family="Times New Roman,serif" font-size="14.00">Count: 1</text>
<text text-anchor="middle" x="327.24" y="-1226.38" font-family="Times New Roman,serif" font-size="14.00">Normalized count: 1.00</text>
<text text-anchor="middle" x="327.24" y="-1211.38" font-family="Times New Roman,serif" font-size="14.00">Samples weight: 0.00</text>
</g>
<!-- BB0&#45;&gt;BB2 -->
<g id="edge1" class="edge">
<title>BB0&#45;&gt;BB2</title>
<path fill="none" stroke="black" d="M253.16,-1324.68C262.64,-1313.65 272.91,-1301.73 282.68,-1290.36"/>
<polygon fill="black" stroke="black" points="285.49,-1292.47 289.36,-1282.61 280.18,-1287.9 285.49,-1292.47"/>
</g>
<!-- BB3 -->
<g id="node4" class="node">
<title>BB3</title>
<ellipse fill="none" stroke="black" cx="215.24" cy="-1105.42" rx="103.48" ry="48.17"/>
<text text-anchor="middle" x="215.24" y="-1124.22" font-family="Times New Roman,serif" font-size="14.00">[f..10)</text>
<text text-anchor="middle" x="215.24" y="-1109.22" font-family="Times New Roman,serif" font-size="14.00">Count: 0</text>
<text text-anchor="middle" x="215.24" y="-1094.22" font-family="Times New Roman,serif" font-size="14.00">Normalized count: 0.00</text>
<text text-anchor="middle" x="215.24" y="-1079.22" font-family="Times New Roman,serif" font-size="14.00">Samples weight: 0.00</text>
</g>
<!-- BB2&#45;&gt;BB3 -->
<g id="edge4" class="edge">
<title>BB2&#45;&gt;BB3</title>
<path fill="none" stroke="black" d="M289.32,-1192.51C279.83,-1181.49 269.57,-1169.56 259.79,-1158.2"/>
<polygon fill="black" stroke="black" points="262.29,-1155.74 253.12,-1150.44 256.99,-1160.3 262.29,-1155.74"/>
</g>
<!-- BB4 -->
<g id="node5" class="node">
<title>BB4</title>
<ellipse fill="none" stroke="black" cx="439.24" cy="-1105.42" rx="103.48" ry="48.17"/>
<text text-anchor="middle" x="439.24" y="-1124.22" font-family="Times New Roman,serif" font-size="14.00">[10..26)</text>
<text text-anchor="middle" x="439.24" y="-1109.22" font-family="Times New Roman,serif" font-size="14.00">Count: 1</text>
<text text-anchor="middle" x="439.24" y="-1094.22" font-family="Times New Roman,serif" font-size="14.00">Normalized count: 1.00</text>
<text text-anchor="middle" x="439.24" y="-1079.22" font-family="Times New Roman,serif" font-size="14.00">Samples weight: 0.00</text>
</g>
<!-- BB2&#45;&gt;BB4 -->
<g id="edge3" class="edge">
<title>BB2&#45;&gt;BB4</title>
<path fill="none" stroke="black" d="M365.16,-1192.51C374.64,-1181.49 384.91,-1169.56 394.68,-1158.2"/>
<polygon fill="black" stroke="black" points="397.49,-1160.3 401.36,-1150.44 392.18,-1155.74 397.49,-1160.3"/>
</g>
<!-- BB15 -->
<g id="node16" class="node">
<title>BB15</title>
<ellipse fill="none" stroke="black" cx="439.24" cy="-973.25" rx="103.48" ry="48.17"/>
<text text-anchor="middle" x="439.24" y="-992.05" font-family="Times New Roman,serif" font-size="14.00">[1ba..1c1)</text>
<text text-anchor="middle" x="439.24" y="-977.05" font-family="Times New Roman,serif" font-size="14.00">Count: 5</text>
<text text-anchor="middle" x="439.24" y="-962.05" font-family="Times New Roman,serif" font-size="14.00">Normalized count: 5.00</text>
<text text-anchor="middle" x="439.24" y="-947.05" font-family="Times New Roman,serif" font-size="14.00">Samples weight: 0.00</text>
</g>
<!-- BB4&#45;&gt;BB15 -->
<g id="edge5" class="edge">
<title>BB4&#45;&gt;BB15</title>
<path fill="none" stroke="black" d="M439.24,-1057.05C439.24,-1048.79 439.24,-1040.1 439.24,-1031.6"/>
<polygon fill="black" stroke="black" points="442.74,-1031.36 439.24,-1021.36 435.74,-1031.36 442.74,-1031.36"/>
</g>
<!-- BB5 -->
<g id="node6" class="node">
<title>BB5</title>
<ellipse fill="none" stroke="black" cx="439.24" cy="-841.08" rx="103.48" ry="48.17"/>
<text text-anchor="middle" x="439.24" y="-859.88" font-family="Times New Roman,serif" font-size="14.00">[26..8e)</text>
<text text-anchor="middle" x="439.24" y="-844.88" font-family="Times New Roman,serif" font-size="14.00">Count: 4</text>
<text text-anchor="middle" x="439.24" y="-829.88" font-family="Times New Roman,serif" font-size="14.00">Normalized count: 4.00</text>
<text text-anchor="middle" x="439.24" y="-814.88" font-family="Times New Roman,serif" font-size="14.00">Samples weight: 0.00</text>
</g>
<!-- BB7 -->
<g id="node8" class="node">
<title>BB7</title>
<ellipse fill="none" stroke="black" cx="444.24" cy="-708.92" rx="113.27" ry="48.17"/>
<text text-anchor="middle" x="444.24" y="-727.72" font-family="Times New Roman,serif" font-size="14.00">[ea..ef)</text>
<text text-anchor="middle" x="444.24" y="-712.72" font-family="Times New Roman,serif" font-size="14.00">Count: 357</text>
<text text-anchor="middle" x="444.24" y="-697.72" font-family="Times New Roman,serif" font-size="14.00">Normalized count: 357.00</text>
<text text-anchor="middle" x="444.24" y="-682.72" font-family="Times New Roman,serif" font-size="14.00">Samples weight: 0.07</text>
</g>
<!-- BB5&#45;&gt;BB7 -->
<g id="edge6" class="edge">
<title>BB5&#45;&gt;BB7</title>
<path fill="none" stroke="black" d="M441.06,-792.72C441.37,-784.45 441.71,-775.77 442.03,-767.27"/>
<polygon fill="black" stroke="black" points="445.54,-767.15 442.43,-757.02 438.55,-766.88 445.54,-767.15"/>
</g>
<!-- BB6 -->
<g id="node7" class="node">
<title>BB6</title>
<ellipse fill="none" stroke="black" cx="444.24" cy="-576.75" rx="113.27" ry="48.17"/>
<text text-anchor="middle" x="444.24" y="-595.55" font-family="Times New Roman,serif" font-size="14.00">[8e..ea)</text>
<text text-anchor="middle" x="444.24" y="-580.55" font-family="Times New Roman,serif" font-size="14.00">Count: 353</text>
<text text-anchor="middle" x="444.24" y="-565.55" font-family="Times New Roman,serif" font-size="14.00">Normalized count: 353.00</text>
<text text-anchor="middle" x="444.24" y="-550.55" font-family="Times New Roman,serif" font-size="14.00">Samples weight: 0.07</text>
</g>
<!-- BB6&#45;&gt;BB7 -->
<g id="edge7" class="edge">
<title>BB6&#45;&gt;BB7</title>
<path fill="none" stroke="black" d="M450.75,-624.86C450.97,-633.12 451.04,-641.8 450.95,-650.3"/>
<polygon fill="black" stroke="black" points="447.44,-650.49 450.76,-660.55 454.44,-650.62 447.44,-650.49"/>
</g>
<!-- BB7&#45;&gt;BB6 -->
<g id="edge8" class="edge">
<title>BB7&#45;&gt;BB6</title>
<path fill="none" stroke="black" d="M437.72,-660.55C437.5,-652.29 437.44,-643.6 437.53,-635.1"/>
<polygon fill="black" stroke="black" points="441.03,-634.92 437.72,-624.86 434.04,-634.79 441.03,-634.92"/>
</g>
<!-- BB8 -->
<g id="node9" class="node">
<title>BB8</title>
<ellipse fill="none" stroke="black" cx="678.24" cy="-576.75" rx="103.48" ry="48.17"/>
<text text-anchor="middle" x="678.24" y="-595.55" font-family="Times New Roman,serif" font-size="14.00">[ef..f7)</text>
<text text-anchor="middle" x="678.24" y="-580.55" font-family="Times New Roman,serif" font-size="14.00">Count: 4</text>
<text text-anchor="middle" x="678.24" y="-565.55" font-family="Times New Roman,serif" font-size="14.00">Normalized count: 4.00</text>
<text text-anchor="middle" x="678.24" y="-550.55" font-family="Times New Roman,serif" font-size="14.00">Samples weight: 0.00</text>
</g>
<!-- BB7&#45;&gt;BB8 -->
<g id="edge9" class="edge">
<title>BB7&#45;&gt;BB8</title>
<path fill="none" stroke="black" d="M511.92,-670.27C540.67,-654.28 574.27,-635.58 603.73,-619.2"/>
<polygon fill="black" stroke="black" points="605.68,-622.11 612.72,-614.19 602.28,-616 605.68,-622.11"/>
</g>
<!-- BB13 -->
<g id="node14" class="node">
<title>BB13</title>
<ellipse fill="none" stroke="black" cx="511.24" cy="-444.58" rx="108.38" ry="48.17"/>
<text text-anchor="middle" x="511.24" y="-463.38" font-family="Times New Roman,serif" font-size="14.00">[1aa..1b2)</text>
<text text-anchor="middle" x="511.24" y="-448.38" font-family="Times New Roman,serif" font-size="14.00">Count: 86</text>
<text text-anchor="middle" x="511.24" y="-433.38" font-family="Times New Roman,serif" font-size="14.00">Normalized count: 86.00</text>
<text text-anchor="middle" x="511.24" y="-418.38" font-family="Times New Roman,serif" font-size="14.00">Samples weight: 0.02</text>
</g>
<!-- BB8&#45;&gt;BB13 -->
<g id="edge10" class="edge">
<title>BB8&#45;&gt;BB13</title>
<path fill="none" stroke="black" d="M625.86,-534.92C608.77,-521.6 589.65,-506.7 572,-492.94"/>
<polygon fill="black" stroke="black" points="574.05,-490.1 564.01,-486.71 569.74,-495.62 574.05,-490.1"/>
</g>
<!-- BB9 -->
<g id="node10" class="node">
<title>BB9</title>
<ellipse fill="none" stroke="black" cx="627.24" cy="-312.42" rx="108.38" ry="48.17"/>
<text text-anchor="middle" x="627.24" y="-331.22" font-family="Times New Roman,serif" font-size="14.00">[f7..120)</text>
<text text-anchor="middle" x="627.24" y="-316.22" font-family="Times New Roman,serif" font-size="14.00">Count: 82</text>
<text text-anchor="middle" x="627.24" y="-301.22" font-family="Times New Roman,serif" font-size="14.00">Normalized count: 82.00</text>
<text text-anchor="middle" x="627.24" y="-286.22" font-family="Times New Roman,serif" font-size="14.00">Samples weight: 0.02</text>
</g>
<!-- BB11 -->
<g id="node12" class="node">
<title>BB11</title>
<ellipse fill="none" stroke="black" cx="632.24" cy="-180.25" rx="118.17" ry="48.17"/>
<text text-anchor="middle" x="632.24" y="-199.05" font-family="Times New Roman,serif" font-size="14.00">[19c..1a4)</text>
<text text-anchor="middle" x="632.24" y="-184.05" font-family="Times New Roman,serif" font-size="14.00">Count: 1959</text>
<text text-anchor="middle" x="632.24" y="-169.05" font-family="Times New Roman,serif" font-size="14.00">Normalized count: 1959.00</text>
<text text-anchor="middle" x="632.24" y="-154.05" font-family="Times New Roman,serif" font-size="14.00">Samples weight: 0.41</text>
</g>
<!-- BB9&#45;&gt;BB11 -->
<g id="edge11" class="edge">
<title>BB9&#45;&gt;BB11</title>
<path fill="none" stroke="black" d="M629.06,-264.05C629.37,-255.79 629.71,-247.1 630.03,-238.6"/>
<polygon fill="black" stroke="black" points="633.54,-238.48 630.43,-228.36 626.55,-238.22 633.54,-238.48"/>
</g>
<!-- BB10 -->
<g id="node11" class="node">
<title>BB10</title>
<ellipse fill="none" stroke="black" cx="657.24" cy="-48.08" rx="118.17" ry="48.17"/>
<text text-anchor="middle" x="657.24" y="-66.88" font-family="Times New Roman,serif" font-size="14.00">[120..19c)</text>
<text text-anchor="middle" x="657.24" y="-51.88" font-family="Times New Roman,serif" font-size="14.00">Count: 1877</text>
<text text-anchor="middle" x="657.24" y="-36.88" font-family="Times New Roman,serif" font-size="14.00">Normalized count: 1877.00</text>
<text text-anchor="middle" x="657.24" y="-21.88" font-family="Times New Roman,serif" font-size="14.00">Samples weight: 0.39</text>
</g>
<!-- BB10&#45;&gt;BB11 -->
<g id="edge12" class="edge">
<title>BB10&#45;&gt;BB11</title>
<path fill="none" stroke="black" d="M654.66,-96.44C653.27,-104.83 651.64,-113.64 649.89,-122.26"/>
<polygon fill="black" stroke="black" points="646.42,-121.75 647.78,-132.26 653.27,-123.2 646.42,-121.75"/>
</g>
<!-- BB11&#45;&gt;BB10 -->
<g id="edge13" class="edge">
<title>BB11&#45;&gt;BB10</title>
<path fill="none" stroke="black" d="M634.81,-131.89C636.23,-123.33 637.9,-114.33 639.7,-105.55"/>
<polygon fill="black" stroke="black" points="643.12,-106.26 641.77,-95.76 636.27,-104.81 643.12,-106.26"/>
</g>
<!-- BB12 -->
<g id="node13" class="node">
<title>BB12</title>
<ellipse fill="none" stroke="black" cx="413.24" cy="-48.08" rx="108.38" ry="48.17"/>
<text text-anchor="middle" x="413.24" y="-66.88" font-family="Times New Roman,serif" font-size="14.00">[1a4..1aa)</text>
<text text-anchor="middle" x="413.24" y="-51.88" font-family="Times New Roman,serif" font-size="14.00">Count: 82</text>
<text text-anchor="middle" x="413.24" y="-36.88" font-family="Times New Roman,serif" font-size="14.00">Normalized count: 82.00</text>
<text text-anchor="middle" x="413.24" y="-21.88" font-family="Times New Roman,serif" font-size="14.00">Samples weight: 0.02</text>
</g>
<!-- BB11&#45;&gt;BB12 -->
<g id="edge14" class="edge">
<title>BB11&#45;&gt;BB12</title>
<path fill="none" stroke="black" d="M566.53,-140.2C541.06,-125.06 511.81,-107.67 485.73,-92.17"/>
<polygon fill="black" stroke="black" points="487.4,-89.09 477.02,-86.99 483.82,-95.11 487.4,-89.09"/>
</g>
<!-- BB12&#45;&gt;BB13 -->
<g id="edge15" class="edge">
<title>BB12&#45;&gt;BB13</title>
<path fill="none" stroke="black" d="M424.9,-96.03C442.96,-168.73 477.64,-308.35 497.1,-386.68"/>
<polygon fill="black" stroke="black" points="493.71,-387.53 499.51,-396.39 500.5,-385.84 493.71,-387.53"/>
</g>
<!-- BB13&#45;&gt;BB9 -->
<g id="edge16" class="edge">
<title>BB13&#45;&gt;BB9</title>
<path fill="none" stroke="black" d="M550.51,-399.51C560.34,-388.49 570.97,-376.56 581.09,-365.2"/>
<polygon fill="black" stroke="black" points="583.97,-367.23 588.01,-357.44 578.74,-362.58 583.97,-367.23"/>
</g>
<!-- BB14 -->
<g id="node15" class="node">
<title>BB14</title>
<ellipse fill="none" stroke="black" cx="305.24" cy="-312.42" rx="103.48" ry="48.17"/>
<text text-anchor="middle" x="305.24" y="-331.22" font-family="Times New Roman,serif" font-size="14.00">[1b2..1ba)</text>
<text text-anchor="middle" x="305.24" y="-316.22" font-family="Times New Roman,serif" font-size="14.00">Count: 4</text>
<text text-anchor="middle" x="305.24" y="-301.22" font-family="Times New Roman,serif" font-size="14.00">Normalized count: 4.00</text>
<text text-anchor="middle" x="305.24" y="-286.22" font-family="Times New Roman,serif" font-size="14.00">Samples weight: 0.00</text>
</g>
<!-- BB13&#45;&gt;BB14 -->
<g id="edge17" class="edge">
<title>BB13&#45;&gt;BB14</title>
<path fill="none" stroke="black" d="M449.99,-404.88C426.12,-389.8 398.65,-372.44 374.09,-356.92"/>
<polygon fill="black" stroke="black" points="375.86,-353.9 365.54,-351.52 372.12,-359.82 375.86,-353.9"/>
</g>
<!-- BB14&#45;&gt;BB15 -->
<g id="edge18" class="edge">
<title>BB14&#45;&gt;BB15</title>
<path fill="none" stroke="black" d="M304.66,-360.81C304.07,-413.34 303.24,-500.6 303.24,-575.75 303.24,-709.92 303.24,-709.92 303.24,-709.92 303.24,-790.29 286.41,-819.93 327.24,-889.17 336.52,-904.91 350.08,-918.6 364.57,-930.07"/>
<polygon fill="black" stroke="black" points="362.61,-932.98 372.7,-936.22 366.83,-927.39 362.61,-932.98"/>
</g>
<!-- BB15&#45;&gt;BB5 -->
<g id="edge19" class="edge">
<title>BB15&#45;&gt;BB5</title>
<path fill="none" stroke="black" d="M439.24,-924.89C439.24,-916.62 439.24,-907.94 439.24,-899.43"/>
<polygon fill="black" stroke="black" points="442.74,-899.19 439.24,-889.19 435.74,-899.19 442.74,-899.19"/>
</g>
<!-- BB16 -->
<g id="node17" class="node">
<title>BB16</title>
<ellipse fill="none" stroke="black" cx="663.24" cy="-841.08" rx="103.48" ry="48.17"/>
<text text-anchor="middle" x="663.24" y="-859.88" font-family="Times New Roman,serif" font-size="14.00">[1c1..1c2)</text>
<text text-anchor="middle" x="663.24" y="-844.88" font-family="Times New Roman,serif" font-size="14.00">Count: 1</text>
<text text-anchor="middle" x="663.24" y="-829.88" font-family="Times New Roman,serif" font-size="14.00">Normalized count: 1.00</text>
<text text-anchor="middle" x="663.24" y="-814.88" font-family="Times New Roman,serif" font-size="14.00">Samples weight: 0.00</text>
</g>
<!-- BB15&#45;&gt;BB16 -->
<g id="edge20" class="edge">
<title>BB15&#45;&gt;BB16</title>
<path fill="none" stroke="black" d="M502.83,-935.3C530.26,-919.36 562.48,-900.63 590.83,-884.16"/>
<polygon fill="black" stroke="black" points="592.6,-887.18 599.49,-879.13 589.08,-881.13 592.6,-887.18"/>
</g>
</g>
</svg>
