<?xml version="1.0" encoding="UTF-8" standalone="no"?>
<!DOCTYPE svg PUBLIC "-//W3C//DTD SVG 1.1//EN"
 "http://www.w3.org/Graphics/SVG/1.1/DTD/svg11.dtd">
<!-- Generated by graphviz version 2.47.0 (20210316.0004)
 -->
<!-- Title: G Pages: 1 -->
<svg width="526pt" height="633pt"
 viewBox="0.00 0.00 526.37 632.83" xmlns="http://www.w3.org/2000/svg" xmlns:xlink="http://www.w3.org/1999/xlink">
<g id="graph0" class="graph" transform="scale(1 1) rotate(0) translate(4 628.83)">
<title>G</title>
<polygon fill="white" stroke="transparent" points="-4,4 -4,-628.83 522.37,-628.83 522.37,4 -4,4"/>
<!-- BB0 -->
<g id="node1" class="node">
<title>BB0</title>
<ellipse fill="none" stroke="black" cx="176.19" cy="-576.75" rx="103.48" ry="48.17"/>
<text text-anchor="middle" x="176.19" y="-595.55" font-family="Times New Roman,serif" font-size="14.00">[0..10)</text>
<text text-anchor="middle" x="176.19" y="-580.55" font-family="Times New Roman,serif" font-size="14.00">Count: 2</text>
<text text-anchor="middle" x="176.19" y="-565.55" font-family="Times New Roman,serif" font-size="14.00">Normalized count: 1.00</text>
<text text-anchor="middle" x="176.19" y="-550.55" font-family="Times New Roman,serif" font-size="14.00">Samples weight: 0.00</text>
</g>
<!-- BB6 -->
<g id="node7" class="node">
<title>BB6</title>
<ellipse fill="none" stroke="black" cx="176.19" cy="-444.58" rx="108.38" ry="48.17"/>
<text text-anchor="middle" x="176.19" y="-463.38" font-family="Times New Roman,serif" font-size="14.00">[6e..72)</text>
<text text-anchor="middle" x="176.19" y="-448.38" font-family="Times New Roman,serif" font-size="14.00">Count: 144</text>
<text text-anchor="middle" x="176.19" y="-433.38" font-family="Times New Roman,serif" font-size="14.00">Normalized count: 72.00</text>
<text text-anchor="middle" x="176.19" y="-418.38" font-family="Times New Roman,serif" font-size="14.00">Samples weight: 0.18</text>
</g>
<!-- BB0&#45;&gt;BB6 -->
<g id="edge1" class="edge">
<title>BB0&#45;&gt;BB6</title>
<path fill="none" stroke="black" d="M176.19,-528.39C176.19,-520.12 176.19,-511.44 176.19,-502.93"/>
<polygon fill="black" stroke="black" points="179.69,-502.69 176.19,-492.69 172.69,-502.69 179.69,-502.69"/>
</g>
<!-- BB1 -->
<g id="node2" class="node">
<title>BB1</title>
<ellipse fill="none" stroke="black" cx="176.19" cy="-312.42" rx="108.38" ry="48.17"/>
<text text-anchor="middle" x="176.19" y="-331.22" font-family="Times New Roman,serif" font-size="14.00">[10..23)</text>
<text text-anchor="middle" x="176.19" y="-316.22" font-family="Times New Roman,serif" font-size="14.00">Count: 142</text>
<text text-anchor="middle" x="176.19" y="-301.22" font-family="Times New Roman,serif" font-size="14.00">Normalized count: 71.00</text>
<text text-anchor="middle" x="176.19" y="-286.22" font-family="Times New Roman,serif" font-size="14.00">Samples weight: 0.18</text>
</g>
<!-- BB2 -->
<g id="node3" class="node">
<title>BB2</title>
<ellipse fill="none" stroke="black" cx="176.19" cy="-180.25" rx="108.38" ry="48.17"/>
<text text-anchor="middle" x="176.19" y="-199.05" font-family="Times New Roman,serif" font-size="14.00">[23..55)</text>
<text text-anchor="middle" x="176.19" y="-184.05" font-family="Times New Roman,serif" font-size="14.00">Count: 142</text>
<text text-anchor="middle" x="176.19" y="-169.05" font-family="Times New Roman,serif" font-size="14.00">Normalized count: 71.00</text>
<text text-anchor="middle" x="176.19" y="-154.05" font-family="Times New Roman,serif" font-size="14.00">Samples weight: 0.18</text>
</g>
<!-- BB1&#45;&gt;BB2 -->
<g id="edge3" class="edge">
<title>BB1&#45;&gt;BB2</title>
<path fill="none" stroke="black" d="M176.19,-264.05C176.19,-255.79 176.19,-247.1 176.19,-238.6"/>
<polygon fill="black" stroke="black" points="179.69,-238.36 176.19,-228.36 172.69,-238.36 179.69,-238.36"/>
</g>
<!-- BB4 -->
<g id="node5" class="node">
<title>BB4</title>
<ellipse fill="none" stroke="black" cx="410.19" cy="-180.25" rx="108.38" ry="48.17"/>
<text text-anchor="middle" x="410.19" y="-199.05" font-family="Times New Roman,serif" font-size="14.00">[60..65)</text>
<text text-anchor="middle" x="410.19" y="-184.05" font-family="Times New Roman,serif" font-size="14.00">Count: 180</text>
<text text-anchor="middle" x="410.19" y="-169.05" font-family="Times New Roman,serif" font-size="14.00">Normalized count: 90.00</text>
<text text-anchor="middle" x="410.19" y="-154.05" font-family="Times New Roman,serif" font-size="14.00">Samples weight: 0.23</text>
</g>
<!-- BB1&#45;&gt;BB4 -->
<g id="edge2" class="edge">
<title>BB1&#45;&gt;BB4</title>
<path fill="none" stroke="black" d="M242.62,-274.46C271.27,-258.52 304.93,-239.8 334.54,-223.33"/>
<polygon fill="black" stroke="black" points="336.55,-226.21 343.59,-218.29 333.15,-220.1 336.55,-226.21"/>
</g>
<!-- BB2&#45;&gt;BB4 -->
<g id="edge4" class="edge">
<title>BB2&#45;&gt;BB4</title>
<path fill="none" stroke="black" d="M284.5,-180.25C286.83,-180.25 289.16,-180.25 291.48,-180.25"/>
<polygon fill="black" stroke="black" points="291.69,-183.75 301.69,-180.25 291.69,-176.75 291.69,-183.75"/>
</g>
<!-- BB3 -->
<g id="node4" class="node">
<title>BB3</title>
<ellipse fill="none" stroke="black" cx="410.19" cy="-48.08" rx="108.38" ry="48.17"/>
<text text-anchor="middle" x="410.19" y="-66.88" font-family="Times New Roman,serif" font-size="14.00">[55..60)</text>
<text text-anchor="middle" x="410.19" y="-51.88" font-family="Times New Roman,serif" font-size="14.00">Count: 38</text>
<text text-anchor="middle" x="410.19" y="-36.88" font-family="Times New Roman,serif" font-size="14.00">Normalized count: 19.00</text>
<text text-anchor="middle" x="410.19" y="-21.88" font-family="Times New Roman,serif" font-size="14.00">Samples weight: 0.05</text>
</g>
<!-- BB3&#45;&gt;BB4 -->
<g id="edge5" class="edge">
<title>BB3&#45;&gt;BB4</title>
<path fill="none" stroke="black" d="M416.7,-96.19C416.92,-104.45 416.99,-113.13 416.9,-121.64"/>
<polygon fill="black" stroke="black" points="413.39,-121.83 416.71,-131.89 420.39,-121.95 413.39,-121.83"/>
</g>
<!-- BB4&#45;&gt;BB3 -->
<g id="edge6" class="edge">
<title>BB4&#45;&gt;BB3</title>
<path fill="none" stroke="black" d="M403.66,-131.89C403.45,-123.62 403.39,-114.94 403.48,-106.43"/>
<polygon fill="black" stroke="black" points="406.98,-106.26 403.67,-96.19 399.98,-106.12 406.98,-106.26"/>
</g>
<!-- BB5 -->
<g id="node6" class="node">
<title>BB5</title>
<ellipse fill="none" stroke="black" cx="108.19" cy="-48.08" rx="108.38" ry="48.17"/>
<text text-anchor="middle" x="108.19" y="-66.88" font-family="Times New Roman,serif" font-size="14.00">[65..6e)</text>
<text text-anchor="middle" x="108.19" y="-51.88" font-family="Times New Roman,serif" font-size="14.00">Count: 142</text>
<text text-anchor="middle" x="108.19" y="-36.88" font-family="Times New Roman,serif" font-size="14.00">Normalized count: 71.00</text>
<text text-anchor="middle" x="108.19" y="-21.88" font-family="Times New Roman,serif" font-size="14.00">Samples weight: 0.18</text>
</g>
<!-- BB4&#45;&gt;BB5 -->
<g id="edge7" class="edge">
<title>BB4&#45;&gt;BB5</title>
<path fill="none" stroke="black" d="M333.59,-146.24C291.09,-127.92 238.11,-105.08 194.19,-86.15"/>
<polygon fill="black" stroke="black" points="195.53,-82.92 184.97,-82.18 192.76,-89.35 195.53,-82.92"/>
</g>
<!-- BB5&#45;&gt;BB6 -->
<g id="edge8" class="edge">
<title>BB5&#45;&gt;BB6</title>
<path fill="none" stroke="black" d="M75.81,-94.13C68.98,-105.96 62.76,-119.08 59.19,-132.17 32.47,-230.07 12.63,-270.33 59.19,-360.5 67.72,-377.03 81.23,-390.98 96.09,-402.46"/>
<polygon fill="black" stroke="black" points="94.32,-405.5 104.46,-408.58 98.45,-399.85 94.32,-405.5"/>
</g>
<!-- BB6&#45;&gt;BB1 -->
<g id="edge9" class="edge">
<title>BB6&#45;&gt;BB1</title>
<path fill="none" stroke="black" d="M176.19,-396.22C176.19,-387.95 176.19,-379.27 176.19,-370.77"/>
<polygon fill="black" stroke="black" points="179.69,-370.52 176.19,-360.52 172.69,-370.52 179.69,-370.52"/>
</g>
<!-- BB7 -->
<g id="node8" class="node">
<title>BB7</title>
<ellipse fill="none" stroke="black" cx="405.19" cy="-312.42" rx="103.48" ry="48.17"/>
<text text-anchor="middle" x="405.19" y="-331.22" font-family="Times New Roman,serif" font-size="14.00">[72..73)</text>
<text text-anchor="middle" x="405.19" y="-316.22" font-family="Times New Roman,serif" font-size="14.00">Count: 2</text>
<text text-anchor="middle" x="405.19" y="-301.22" font-family="Times New Roman,serif" font-size="14.00">Normalized count: 1.00</text>
<text text-anchor="middle" x="405.19" y="-286.22" font-family="Times New Roman,serif" font-size="14.00">Samples weight: 0.00</text>
</g>
<!-- BB6&#45;&gt;BB7 -->
<g id="edge10" class="edge">
<title>BB6&#45;&gt;BB7</title>
<path fill="none" stroke="black" d="M241.81,-406.28C269.96,-390.28 302.96,-371.53 331.9,-355.07"/>
<polygon fill="black" stroke="black" points="333.78,-358.03 340.74,-350.05 330.32,-351.95 333.78,-358.03"/>
</g>
</g>
</svg>
