<?xml version="1.0" encoding="UTF-8" standalone="no"?>
<!DOCTYPE svg PUBLIC "-//W3C//DTD SVG 1.1//EN"
 "http://www.w3.org/Graphics/SVG/1.1/DTD/svg11.dtd">
<!-- Generated by graphviz version 2.47.0 (20210316.0004)
 -->
<!-- Title: G Pages: 1 -->
<svg width="1188pt" height="1690pt"
 viewBox="0.00 0.00 1188.42 1690.16" xmlns="http://www.w3.org/2000/svg" xmlns:xlink="http://www.w3.org/1999/xlink">
<g id="graph0" class="graph" transform="scale(1 1) rotate(0) translate(4 1686.16)">
<title>G</title>
<polygon fill="white" stroke="transparent" points="-4,4 -4,-1686.16 1184.42,-1686.16 1184.42,4 -4,4"/>
<!-- BB0 -->
<g id="node1" class="node">
<title>BB0</title>
<ellipse fill="none" stroke="black" cx="946.19" cy="-1634.08" rx="103.48" ry="48.17"/>
<text text-anchor="middle" x="946.19" y="-1652.88" font-family="Times New Roman,serif" font-size="14.00">[0..19)</text>
<text text-anchor="middle" x="946.19" y="-1637.88" font-family="Times New Roman,serif" font-size="14.00">Count: 7</text>
<text text-anchor="middle" x="946.19" y="-1622.88" font-family="Times New Roman,serif" font-size="14.00">Normalized count: 1.00</text>
<text text-anchor="middle" x="946.19" y="-1607.88" font-family="Times New Roman,serif" font-size="14.00">Samples weight: 0.00</text>
</g>
<!-- BB22 -->
<g id="node23" class="node">
<title>BB22</title>
<ellipse fill="none" stroke="black" cx="946.19" cy="-1501.92" rx="108.38" ry="48.17"/>
<text text-anchor="middle" x="946.19" y="-1520.72" font-family="Times New Roman,serif" font-size="14.00">[111..118)</text>
<text text-anchor="middle" x="946.19" y="-1505.72" font-family="Times New Roman,serif" font-size="14.00">Count: 170</text>
<text text-anchor="middle" x="946.19" y="-1490.72" font-family="Times New Roman,serif" font-size="14.00">Normalized count: 24.29</text>
<text text-anchor="middle" x="946.19" y="-1475.72" font-family="Times New Roman,serif" font-size="14.00">Samples weight: 0.00</text>
</g>
<!-- BB0&#45;&gt;BB22 -->
<g id="edge1" class="edge">
<title>BB0&#45;&gt;BB22</title>
<path fill="none" stroke="black" d="M946.19,-1585.72C946.19,-1577.45 946.19,-1568.77 946.19,-1560.27"/>
<polygon fill="black" stroke="black" points="949.69,-1560.02 946.19,-1550.02 942.69,-1560.02 949.69,-1560.02"/>
</g>
<!-- BB1 -->
<g id="node2" class="node">
<title>BB1</title>
<ellipse fill="none" stroke="black" cx="717.19" cy="-1369.75" rx="108.38" ry="48.17"/>
<text text-anchor="middle" x="717.19" y="-1388.55" font-family="Times New Roman,serif" font-size="14.00">[19..2f)</text>
<text text-anchor="middle" x="717.19" y="-1373.55" font-family="Times New Roman,serif" font-size="14.00">Count: 163</text>
<text text-anchor="middle" x="717.19" y="-1358.55" font-family="Times New Roman,serif" font-size="14.00">Normalized count: 23.29</text>
<text text-anchor="middle" x="717.19" y="-1343.55" font-family="Times New Roman,serif" font-size="14.00">Samples weight: 0.00</text>
</g>
<!-- BB5 -->
<g id="node6" class="node">
<title>BB5</title>
<ellipse fill="none" stroke="black" cx="537.19" cy="-1237.58" rx="113.27" ry="48.17"/>
<text text-anchor="middle" x="537.19" y="-1256.38" font-family="Times New Roman,serif" font-size="14.00">[50..55)</text>
<text text-anchor="middle" x="537.19" y="-1241.38" font-family="Times New Roman,serif" font-size="14.00">Count: 6918</text>
<text text-anchor="middle" x="537.19" y="-1226.38" font-family="Times New Roman,serif" font-size="14.00">Normalized count: 988.29</text>
<text text-anchor="middle" x="537.19" y="-1211.38" font-family="Times New Roman,serif" font-size="14.00">Samples weight: 0.01</text>
</g>
<!-- BB1&#45;&gt;BB5 -->
<g id="edge2" class="edge">
<title>BB1&#45;&gt;BB5</title>
<path fill="none" stroke="black" d="M661.22,-1328.28C642.44,-1314.69 621.34,-1299.43 601.94,-1285.41"/>
<polygon fill="black" stroke="black" points="603.89,-1282.5 593.74,-1279.48 599.79,-1288.17 603.89,-1282.5"/>
</g>
<!-- BB2 -->
<g id="node3" class="node">
<title>BB2</title>
<ellipse fill="none" stroke="black" cx="328.19" cy="-1105.42" rx="113.27" ry="48.17"/>
<text text-anchor="middle" x="328.19" y="-1124.22" font-family="Times New Roman,serif" font-size="14.00">[2f..42)</text>
<text text-anchor="middle" x="328.19" y="-1109.22" font-family="Times New Roman,serif" font-size="14.00">Count: 6755</text>
<text text-anchor="middle" x="328.19" y="-1094.22" font-family="Times New Roman,serif" font-size="14.00">Normalized count: 965.00</text>
<text text-anchor="middle" x="328.19" y="-1079.22" font-family="Times New Roman,serif" font-size="14.00">Samples weight: 0.01</text>
</g>
<!-- BB3 -->
<g id="node4" class="node">
<title>BB3</title>
<ellipse fill="none" stroke="black" cx="108.19" cy="-973.25" rx="108.38" ry="48.17"/>
<text text-anchor="middle" x="108.19" y="-992.05" font-family="Times New Roman,serif" font-size="14.00">[42..4a)</text>
<text text-anchor="middle" x="108.19" y="-977.05" font-family="Times New Roman,serif" font-size="14.00">Count: 199</text>
<text text-anchor="middle" x="108.19" y="-962.05" font-family="Times New Roman,serif" font-size="14.00">Normalized count: 28.43</text>
<text text-anchor="middle" x="108.19" y="-947.05" font-family="Times New Roman,serif" font-size="14.00">Samples weight: 0.00</text>
</g>
<!-- BB2&#45;&gt;BB3 -->
<g id="edge4" class="edge">
<title>BB2&#45;&gt;BB3</title>
<path fill="none" stroke="black" d="M263.07,-1065.89C237.35,-1050.67 207.67,-1033.11 181.21,-1017.46"/>
<polygon fill="black" stroke="black" points="182.76,-1014.31 172.38,-1012.23 179.2,-1020.33 182.76,-1014.31"/>
</g>
<!-- BB4 -->
<g id="node5" class="node">
<title>BB4</title>
<ellipse fill="none" stroke="black" cx="347.19" cy="-973.25" rx="113.27" ry="48.17"/>
<text text-anchor="middle" x="347.19" y="-992.05" font-family="Times New Roman,serif" font-size="14.00">[4a..50)</text>
<text text-anchor="middle" x="347.19" y="-977.05" font-family="Times New Roman,serif" font-size="14.00">Count: 6755</text>
<text text-anchor="middle" x="347.19" y="-962.05" font-family="Times New Roman,serif" font-size="14.00">Normalized count: 965.00</text>
<text text-anchor="middle" x="347.19" y="-947.05" font-family="Times New Roman,serif" font-size="14.00">Samples weight: 0.01</text>
</g>
<!-- BB2&#45;&gt;BB4 -->
<g id="edge3" class="edge">
<title>BB2&#45;&gt;BB4</title>
<path fill="none" stroke="black" d="M335.1,-1057.05C336.32,-1048.69 337.6,-1039.91 338.86,-1031.32"/>
<polygon fill="black" stroke="black" points="342.33,-1031.76 340.31,-1021.36 335.4,-1030.75 342.33,-1031.76"/>
</g>
<!-- BB3&#45;&gt;BB4 -->
<g id="edge5" class="edge">
<title>BB3&#45;&gt;BB4</title>
<path fill="none" stroke="black" d="M216.48,-973.25C218.93,-973.25 221.37,-973.25 223.81,-973.25"/>
<polygon fill="black" stroke="black" points="223.84,-976.75 233.84,-973.25 223.84,-969.75 223.84,-976.75"/>
</g>
<!-- BB4&#45;&gt;BB5 -->
<g id="edge6" class="edge">
<title>BB4&#45;&gt;BB5</title>
<path fill="none" stroke="black" d="M407.37,-1014.23C422.84,-1026.65 438.41,-1041.32 450.19,-1057.33 477.42,-1094.35 468.01,-1112.21 488.19,-1153.5 492.76,-1162.85 497.99,-1172.55 503.31,-1181.89"/>
<polygon fill="black" stroke="black" points="500.37,-1183.8 508.41,-1190.71 506.43,-1180.3 500.37,-1183.8"/>
</g>
<!-- BB5&#45;&gt;BB2 -->
<g id="edge7" class="edge">
<title>BB5&#45;&gt;BB2</title>
<path fill="none" stroke="black" d="M474.48,-1197.53C451.03,-1182.92 424.21,-1166.22 400,-1151.14"/>
<polygon fill="black" stroke="black" points="401.55,-1147.98 391.21,-1145.67 397.85,-1153.92 401.55,-1147.98"/>
</g>
<!-- BB6 -->
<g id="node7" class="node">
<title>BB6</title>
<ellipse fill="none" stroke="black" cx="605.19" cy="-1105.42" rx="108.38" ry="48.17"/>
<text text-anchor="middle" x="605.19" y="-1124.22" font-family="Times New Roman,serif" font-size="14.00">[55..6b)</text>
<text text-anchor="middle" x="605.19" y="-1109.22" font-family="Times New Roman,serif" font-size="14.00">Count: 163</text>
<text text-anchor="middle" x="605.19" y="-1094.22" font-family="Times New Roman,serif" font-size="14.00">Normalized count: 23.29</text>
<text text-anchor="middle" x="605.19" y="-1079.22" font-family="Times New Roman,serif" font-size="14.00">Samples weight: 0.00</text>
</g>
<!-- BB5&#45;&gt;BB6 -->
<g id="edge8" class="edge">
<title>BB5&#45;&gt;BB6</title>
<path fill="none" stroke="black" d="M561.35,-1190.32C566.21,-1181.02 571.37,-1171.16 576.37,-1161.58"/>
<polygon fill="black" stroke="black" points="579.57,-1163.01 581.1,-1152.52 573.37,-1159.77 579.57,-1163.01"/>
</g>
<!-- BB7 -->
<g id="node8" class="node">
<title>BB7</title>
<ellipse fill="none" stroke="black" cx="815.19" cy="-973.25" rx="103.48" ry="48.17"/>
<text text-anchor="middle" x="815.19" y="-992.05" font-family="Times New Roman,serif" font-size="14.00">[6b..6d)</text>
<text text-anchor="middle" x="815.19" y="-977.05" font-family="Times New Roman,serif" font-size="14.00">Count: 0</text>
<text text-anchor="middle" x="815.19" y="-962.05" font-family="Times New Roman,serif" font-size="14.00">Normalized count: 0.00</text>
<text text-anchor="middle" x="815.19" y="-947.05" font-family="Times New Roman,serif" font-size="14.00">Samples weight: 0.00</text>
</g>
<!-- BB6&#45;&gt;BB7 -->
<g id="edge10" class="edge">
<title>BB6&#45;&gt;BB7</title>
<path fill="none" stroke="black" d="M667.34,-1065.89C691.79,-1050.73 719.98,-1033.26 745.15,-1017.66"/>
<polygon fill="black" stroke="black" points="747.26,-1020.47 753.92,-1012.23 743.57,-1014.52 747.26,-1020.47"/>
</g>
<!-- BB8 -->
<g id="node9" class="node">
<title>BB8</title>
<ellipse fill="none" stroke="black" cx="586.19" cy="-973.25" rx="108.38" ry="48.17"/>
<text text-anchor="middle" x="586.19" y="-992.05" font-family="Times New Roman,serif" font-size="14.00">[6d..72)</text>
<text text-anchor="middle" x="586.19" y="-977.05" font-family="Times New Roman,serif" font-size="14.00">Count: 163</text>
<text text-anchor="middle" x="586.19" y="-962.05" font-family="Times New Roman,serif" font-size="14.00">Normalized count: 23.29</text>
<text text-anchor="middle" x="586.19" y="-947.05" font-family="Times New Roman,serif" font-size="14.00">Samples weight: 0.00</text>
</g>
<!-- BB6&#45;&gt;BB8 -->
<g id="edge9" class="edge">
<title>BB6&#45;&gt;BB8</title>
<path fill="none" stroke="black" d="M598.33,-1057.42C597.11,-1049.05 595.82,-1040.24 594.56,-1031.61"/>
<polygon fill="black" stroke="black" points="598.01,-1031 593.1,-1021.61 591.08,-1032.01 598.01,-1031"/>
</g>
<!-- BB9 -->
<g id="node10" class="node">
<title>BB9</title>
<ellipse fill="none" stroke="black" cx="761.19" cy="-841.08" rx="108.38" ry="48.17"/>
<text text-anchor="middle" x="761.19" y="-859.88" font-family="Times New Roman,serif" font-size="14.00">[72..84)</text>
<text text-anchor="middle" x="761.19" y="-844.88" font-family="Times New Roman,serif" font-size="14.00">Count: 163</text>
<text text-anchor="middle" x="761.19" y="-829.88" font-family="Times New Roman,serif" font-size="14.00">Normalized count: 23.29</text>
<text text-anchor="middle" x="761.19" y="-814.88" font-family="Times New Roman,serif" font-size="14.00">Samples weight: 0.00</text>
</g>
<!-- BB8&#45;&gt;BB9 -->
<g id="edge12" class="edge">
<title>BB8&#45;&gt;BB9</title>
<path fill="none" stroke="black" d="M641.08,-931.42C659.24,-917.91 679.59,-902.78 698.3,-888.86"/>
<polygon fill="black" stroke="black" points="700.56,-891.54 706.49,-882.77 696.38,-885.93 700.56,-891.54"/>
</g>
<!-- BB10 -->
<g id="node11" class="node">
<title>BB10</title>
<ellipse fill="none" stroke="black" cx="527.19" cy="-841.08" rx="108.38" ry="48.17"/>
<text text-anchor="middle" x="527.19" y="-859.88" font-family="Times New Roman,serif" font-size="14.00">[84..8a)</text>
<text text-anchor="middle" x="527.19" y="-844.88" font-family="Times New Roman,serif" font-size="14.00">Count: 163</text>
<text text-anchor="middle" x="527.19" y="-829.88" font-family="Times New Roman,serif" font-size="14.00">Normalized count: 23.29</text>
<text text-anchor="middle" x="527.19" y="-814.88" font-family="Times New Roman,serif" font-size="14.00">Samples weight: 0.00</text>
</g>
<!-- BB8&#45;&gt;BB10 -->
<g id="edge11" class="edge">
<title>BB8&#45;&gt;BB10</title>
<path fill="none" stroke="black" d="M565.22,-925.99C561.1,-916.89 556.73,-907.26 552.48,-897.89"/>
<polygon fill="black" stroke="black" points="555.6,-896.29 548.29,-888.63 549.23,-899.18 555.6,-896.29"/>
</g>
<!-- BB9&#45;&gt;BB10 -->
<g id="edge13" class="edge">
<title>BB9&#45;&gt;BB10</title>
<path fill="none" stroke="black" d="M652.69,-841.08C650.36,-841.08 648.03,-841.08 645.71,-841.08"/>
<polygon fill="black" stroke="black" points="645.5,-837.58 635.5,-841.08 645.5,-844.58 645.5,-837.58"/>
</g>
<!-- BB11 -->
<g id="node12" class="node">
<title>BB11</title>
<ellipse fill="none" stroke="black" cx="473.19" cy="-708.92" rx="108.38" ry="48.17"/>
<text text-anchor="middle" x="473.19" y="-727.72" font-family="Times New Roman,serif" font-size="14.00">[8a..a2)</text>
<text text-anchor="middle" x="473.19" y="-712.72" font-family="Times New Roman,serif" font-size="14.00">Count: 127</text>
<text text-anchor="middle" x="473.19" y="-697.72" font-family="Times New Roman,serif" font-size="14.00">Normalized count: 18.14</text>
<text text-anchor="middle" x="473.19" y="-682.72" font-family="Times New Roman,serif" font-size="14.00">Samples weight: 0.00</text>
</g>
<!-- BB10&#45;&gt;BB11 -->
<g id="edge15" class="edge">
<title>BB10&#45;&gt;BB11</title>
<path fill="none" stroke="black" d="M507.84,-793.46C504.16,-784.58 500.27,-775.2 496.48,-766.06"/>
<polygon fill="black" stroke="black" points="499.64,-764.55 492.58,-756.65 493.18,-767.23 499.64,-764.55"/>
</g>
<!-- BB14 -->
<g id="node15" class="node">
<title>BB14</title>
<ellipse fill="none" stroke="black" cx="710.19" cy="-708.92" rx="108.38" ry="48.17"/>
<text text-anchor="middle" x="710.19" y="-727.72" font-family="Times New Roman,serif" font-size="14.00">[bd..c3)</text>
<text text-anchor="middle" x="710.19" y="-712.72" font-family="Times New Roman,serif" font-size="14.00">Count: 163</text>
<text text-anchor="middle" x="710.19" y="-697.72" font-family="Times New Roman,serif" font-size="14.00">Normalized count: 23.29</text>
<text text-anchor="middle" x="710.19" y="-682.72" font-family="Times New Roman,serif" font-size="14.00">Samples weight: 0.00</text>
</g>
<!-- BB10&#45;&gt;BB14 -->
<g id="edge14" class="edge">
<title>BB10&#45;&gt;BB14</title>
<path fill="none" stroke="black" d="M583.59,-799.97C603.15,-786.05 625.25,-770.33 645.43,-755.97"/>
<polygon fill="black" stroke="black" points="647.54,-758.77 653.66,-750.12 643.48,-753.07 647.54,-758.77"/>
</g>
<!-- BB13 -->
<g id="node14" class="node">
<title>BB13</title>
<ellipse fill="none" stroke="black" cx="468.19" cy="-576.75" rx="118.17" ry="48.17"/>
<text text-anchor="middle" x="468.19" y="-595.55" font-family="Times New Roman,serif" font-size="14.00">[b8..bd)</text>
<text text-anchor="middle" x="468.19" y="-580.55" font-family="Times New Roman,serif" font-size="14.00">Count: 7123</text>
<text text-anchor="middle" x="468.19" y="-565.55" font-family="Times New Roman,serif" font-size="14.00">Normalized count: 1017.57</text>
<text text-anchor="middle" x="468.19" y="-550.55" font-family="Times New Roman,serif" font-size="14.00">Samples weight: 0.01</text>
</g>
<!-- BB11&#45;&gt;BB13 -->
<g id="edge16" class="edge">
<title>BB11&#45;&gt;BB13</title>
<path fill="none" stroke="black" d="M471.37,-660.55C471.05,-652.29 470.72,-643.6 470.39,-635.1"/>
<polygon fill="black" stroke="black" points="473.88,-634.72 470,-624.86 466.88,-634.98 473.88,-634.72"/>
</g>
<!-- BB12 -->
<g id="node13" class="node">
<title>BB12</title>
<ellipse fill="none" stroke="black" cx="468.19" cy="-444.58" rx="113.27" ry="48.17"/>
<text text-anchor="middle" x="468.19" y="-463.38" font-family="Times New Roman,serif" font-size="14.00">[a2..b8)</text>
<text text-anchor="middle" x="468.19" y="-448.38" font-family="Times New Roman,serif" font-size="14.00">Count: 6996</text>
<text text-anchor="middle" x="468.19" y="-433.38" font-family="Times New Roman,serif" font-size="14.00">Normalized count: 999.43</text>
<text text-anchor="middle" x="468.19" y="-418.38" font-family="Times New Roman,serif" font-size="14.00">Samples weight: 0.01</text>
</g>
<!-- BB12&#45;&gt;BB13 -->
<g id="edge17" class="edge">
<title>BB12&#45;&gt;BB13</title>
<path fill="none" stroke="black" d="M474.7,-492.69C474.92,-500.95 474.99,-509.63 474.9,-518.14"/>
<polygon fill="black" stroke="black" points="471.39,-518.33 474.71,-528.39 478.39,-518.45 471.39,-518.33"/>
</g>
<!-- BB13&#45;&gt;BB12 -->
<g id="edge18" class="edge">
<title>BB13&#45;&gt;BB12</title>
<path fill="none" stroke="black" d="M461.66,-528.39C461.45,-520.12 461.39,-511.44 461.48,-502.93"/>
<polygon fill="black" stroke="black" points="464.98,-502.75 461.67,-492.69 457.98,-502.62 464.98,-502.75"/>
</g>
<!-- BB13&#45;&gt;BB14 -->
<g id="edge19" class="edge">
<title>BB13&#45;&gt;BB14</title>
<path fill="none" stroke="black" d="M538.68,-615.66C568.35,-631.62 602.96,-650.24 633.29,-666.55"/>
<polygon fill="black" stroke="black" points="631.67,-669.66 642.13,-671.31 634.98,-663.49 631.67,-669.66"/>
</g>
<!-- BB15 -->
<g id="node16" class="node">
<title>BB15</title>
<ellipse fill="none" stroke="black" cx="712.19" cy="-576.75" rx="108.38" ry="48.17"/>
<text text-anchor="middle" x="712.19" y="-595.55" font-family="Times New Roman,serif" font-size="14.00">[c3..ca)</text>
<text text-anchor="middle" x="712.19" y="-580.55" font-family="Times New Roman,serif" font-size="14.00">Count: 129</text>
<text text-anchor="middle" x="712.19" y="-565.55" font-family="Times New Roman,serif" font-size="14.00">Normalized count: 18.43</text>
<text text-anchor="middle" x="712.19" y="-550.55" font-family="Times New Roman,serif" font-size="14.00">Samples weight: 0.00</text>
</g>
<!-- BB14&#45;&gt;BB15 -->
<g id="edge21" class="edge">
<title>BB14&#45;&gt;BB15</title>
<path fill="none" stroke="black" d="M710.92,-660.55C711.04,-652.29 711.18,-643.6 711.31,-635.1"/>
<polygon fill="black" stroke="black" points="714.81,-634.91 711.46,-624.86 707.81,-634.8 714.81,-634.91"/>
</g>
<!-- BB21 -->
<g id="node22" class="node">
<title>BB21</title>
<ellipse fill="none" stroke="black" cx="946.19" cy="-576.75" rx="108.38" ry="48.17"/>
<text text-anchor="middle" x="946.19" y="-595.55" font-family="Times New Roman,serif" font-size="14.00">[10d..111)</text>
<text text-anchor="middle" x="946.19" y="-580.55" font-family="Times New Roman,serif" font-size="14.00">Count: 163</text>
<text text-anchor="middle" x="946.19" y="-565.55" font-family="Times New Roman,serif" font-size="14.00">Normalized count: 23.29</text>
<text text-anchor="middle" x="946.19" y="-550.55" font-family="Times New Roman,serif" font-size="14.00">Samples weight: 0.00</text>
</g>
<!-- BB14&#45;&gt;BB21 -->
<g id="edge20" class="edge">
<title>BB14&#45;&gt;BB21</title>
<path fill="none" stroke="black" d="M777.18,-670.96C806.08,-655.02 840.03,-636.3 869.9,-619.83"/>
<polygon fill="black" stroke="black" points="871.96,-622.69 879.02,-614.79 868.58,-616.56 871.96,-622.69"/>
</g>
<!-- BB20 -->
<g id="node21" class="node">
<title>BB20</title>
<ellipse fill="none" stroke="black" cx="829.19" cy="-444.58" rx="113.27" ry="48.17"/>
<text text-anchor="middle" x="829.19" y="-463.38" font-family="Times New Roman,serif" font-size="14.00">[108..10d)</text>
<text text-anchor="middle" x="829.19" y="-448.38" font-family="Times New Roman,serif" font-size="14.00">Count: 6245</text>
<text text-anchor="middle" x="829.19" y="-433.38" font-family="Times New Roman,serif" font-size="14.00">Normalized count: 892.14</text>
<text text-anchor="middle" x="829.19" y="-418.38" font-family="Times New Roman,serif" font-size="14.00">Samples weight: 0.01</text>
</g>
<!-- BB15&#45;&gt;BB20 -->
<g id="edge22" class="edge">
<title>BB15&#45;&gt;BB20</title>
<path fill="none" stroke="black" d="M751.8,-531.68C761.6,-520.77 772.2,-508.99 782.31,-497.73"/>
<polygon fill="black" stroke="black" points="785.14,-499.83 789.22,-490.05 779.93,-495.15 785.14,-499.83"/>
</g>
<!-- BB16 -->
<g id="node17" class="node">
<title>BB16</title>
<ellipse fill="none" stroke="black" cx="901.19" cy="-312.42" rx="113.27" ry="48.17"/>
<text text-anchor="middle" x="901.19" y="-331.22" font-family="Times New Roman,serif" font-size="14.00">[ca..e2)</text>
<text text-anchor="middle" x="901.19" y="-316.22" font-family="Times New Roman,serif" font-size="14.00">Count: 6116</text>
<text text-anchor="middle" x="901.19" y="-301.22" font-family="Times New Roman,serif" font-size="14.00">Normalized count: 873.71</text>
<text text-anchor="middle" x="901.19" y="-286.22" font-family="Times New Roman,serif" font-size="14.00">Samples weight: 0.01</text>
</g>
<!-- BB18 -->
<g id="node19" class="node">
<title>BB18</title>
<ellipse fill="none" stroke="black" cx="932.19" cy="-180.25" rx="122.16" ry="48.17"/>
<text text-anchor="middle" x="932.19" y="-199.05" font-family="Times New Roman,serif" font-size="14.00">[fd..102)</text>
<text text-anchor="middle" x="932.19" y="-184.05" font-family="Times New Roman,serif" font-size="14.00">Count: 458266</text>
<text text-anchor="middle" x="932.19" y="-169.05" font-family="Times New Roman,serif" font-size="14.00">Normalized count: 65466.57</text>
<text text-anchor="middle" x="932.19" y="-154.05" font-family="Times New Roman,serif" font-size="14.00">Samples weight: 0.47</text>
</g>
<!-- BB16&#45;&gt;BB18 -->
<g id="edge23" class="edge">
<title>BB16&#45;&gt;BB18</title>
<path fill="none" stroke="black" d="M912.38,-264.42C914.42,-255.85 916.57,-246.83 918.67,-238.01"/>
<polygon fill="black" stroke="black" points="922.1,-238.71 921.01,-228.17 915.29,-237.09 922.1,-238.71"/>
</g>
<!-- BB17 -->
<g id="node18" class="node">
<title>BB17</title>
<ellipse fill="none" stroke="black" cx="958.19" cy="-48.08" rx="122.16" ry="48.17"/>
<text text-anchor="middle" x="958.19" y="-66.88" font-family="Times New Roman,serif" font-size="14.00">[e2..fd)</text>
<text text-anchor="middle" x="958.19" y="-51.88" font-family="Times New Roman,serif" font-size="14.00">Count: 452150</text>
<text text-anchor="middle" x="958.19" y="-36.88" font-family="Times New Roman,serif" font-size="14.00">Normalized count: 64592.86</text>
<text text-anchor="middle" x="958.19" y="-21.88" font-family="Times New Roman,serif" font-size="14.00">Samples weight: 0.47</text>
</g>
<!-- BB17&#45;&gt;BB18 -->
<g id="edge24" class="edge">
<title>BB17&#45;&gt;BB18</title>
<path fill="none" stroke="black" d="M955.25,-96.44C953.79,-104.83 952.09,-113.64 950.27,-122.26"/>
<polygon fill="black" stroke="black" points="946.81,-121.74 948.09,-132.26 953.64,-123.24 946.81,-121.74"/>
</g>
<!-- BB18&#45;&gt;BB17 -->
<g id="edge25" class="edge">
<title>BB18&#45;&gt;BB17</title>
<path fill="none" stroke="black" d="M935.13,-131.89C936.58,-123.53 938.27,-114.75 940.08,-106.15"/>
<polygon fill="black" stroke="black" points="943.54,-106.71 942.26,-96.19 936.71,-105.21 943.54,-106.71"/>
</g>
<!-- BB19 -->
<g id="node20" class="node">
<title>BB19</title>
<ellipse fill="none" stroke="black" cx="705.19" cy="-48.08" rx="113.27" ry="48.17"/>
<text text-anchor="middle" x="705.19" y="-66.88" font-family="Times New Roman,serif" font-size="14.00">[102..108)</text>
<text text-anchor="middle" x="705.19" y="-51.88" font-family="Times New Roman,serif" font-size="14.00">Count: 6116</text>
<text text-anchor="middle" x="705.19" y="-36.88" font-family="Times New Roman,serif" font-size="14.00">Normalized count: 873.71</text>
<text text-anchor="middle" x="705.19" y="-21.88" font-family="Times New Roman,serif" font-size="14.00">Samples weight: 0.01</text>
</g>
<!-- BB18&#45;&gt;BB19 -->
<g id="edge26" class="edge">
<title>BB18&#45;&gt;BB19</title>
<path fill="none" stroke="black" d="M864.08,-140.2C837.8,-125.12 807.63,-107.82 780.69,-92.38"/>
<polygon fill="black" stroke="black" points="782.1,-89.15 771.68,-87.21 778.62,-95.22 782.1,-89.15"/>
</g>
<!-- BB19&#45;&gt;BB20 -->
<g id="edge27" class="edge">
<title>BB19&#45;&gt;BB20</title>
<path fill="none" stroke="black" d="M711.73,-96.11C721.41,-158.32 742.49,-270.59 779.19,-360.5 783.09,-370.07 788,-379.82 793.2,-389.13"/>
<polygon fill="black" stroke="black" points="790.23,-390.98 798.26,-397.89 796.29,-387.48 790.23,-390.98"/>
</g>
<!-- BB20&#45;&gt;BB16 -->
<g id="edge28" class="edge">
<title>BB20&#45;&gt;BB16</title>
<path fill="none" stroke="black" d="M854.57,-397.69C859.84,-388.16 865.44,-378.03 870.87,-368.23"/>
<polygon fill="black" stroke="black" points="874.01,-369.78 875.79,-359.33 867.89,-366.39 874.01,-369.78"/>
</g>
<!-- BB20&#45;&gt;BB21 -->
<g id="edge29" class="edge">
<title>BB20&#45;&gt;BB21</title>
<path fill="none" stroke="black" d="M869.16,-490.05C878.98,-500.98 889.58,-512.77 899.68,-524.01"/>
<polygon fill="black" stroke="black" points="897.29,-526.58 906.58,-531.68 902.49,-521.9 897.29,-526.58"/>
</g>
<!-- BB21&#45;&gt;BB22 -->
<g id="edge30" class="edge">
<title>BB21&#45;&gt;BB22</title>
<path fill="none" stroke="black" d="M946.19,-625.14C946.19,-677.68 946.19,-764.93 946.19,-840.08 946.19,-1238.58 946.19,-1238.58 946.19,-1238.58 946.19,-1309.03 946.19,-1390.13 946.19,-1443.28"/>
<polygon fill="black" stroke="black" points="942.69,-1443.52 946.19,-1453.52 949.69,-1443.52 942.69,-1443.52"/>
</g>
<!-- BB22&#45;&gt;BB1 -->
<g id="edge31" class="edge">
<title>BB22&#45;&gt;BB1</title>
<path fill="none" stroke="black" d="M880.57,-1463.61C852.78,-1447.82 820.26,-1429.34 791.59,-1413.04"/>
<polygon fill="black" stroke="black" points="793.24,-1409.95 782.82,-1408.05 789.78,-1416.04 793.24,-1409.95"/>
</g>
<!-- BB23 -->
<g id="node24" class="node">
<title>BB23</title>
<ellipse fill="none" stroke="black" cx="1077.19" cy="-1369.75" rx="103.48" ry="48.17"/>
<text text-anchor="middle" x="1077.19" y="-1388.55" font-family="Times New Roman,serif" font-size="14.00">[118..11a)</text>
<text text-anchor="middle" x="1077.19" y="-1373.55" font-family="Times New Roman,serif" font-size="14.00">Count: 7</text>
<text text-anchor="middle" x="1077.19" y="-1358.55" font-family="Times New Roman,serif" font-size="14.00">Normalized count: 1.00</text>
<text text-anchor="middle" x="1077.19" y="-1343.55" font-family="Times New Roman,serif" font-size="14.00">Samples weight: 0.00</text>
</g>
<!-- BB22&#45;&gt;BB23 -->
<g id="edge32" class="edge">
<title>BB22&#45;&gt;BB23</title>
<path fill="none" stroke="black" d="M989.81,-1457.57C1001.52,-1445.93 1014.28,-1433.25 1026.35,-1421.26"/>
<polygon fill="black" stroke="black" points="1029.13,-1423.43 1033.76,-1413.9 1024.2,-1418.47 1029.13,-1423.43"/>
</g>
</g>
</svg>
