<?xml version="1.0" encoding="UTF-8" standalone="no"?>
<!DOCTYPE svg PUBLIC "-//W3C//DTD SVG 1.1//EN"
 "http://www.w3.org/Graphics/SVG/1.1/DTD/svg11.dtd">
<!-- Generated by graphviz version 2.47.0 (20210316.0004)
 -->
<!-- Title: G Pages: 1 -->
<svg width="569pt" height="897pt"
 viewBox="0.00 0.00 569.48 897.17" xmlns="http://www.w3.org/2000/svg" xmlns:xlink="http://www.w3.org/1999/xlink">
<g id="graph0" class="graph" transform="scale(1 1) rotate(0) translate(4 893.17)">
<title>G</title>
<polygon fill="white" stroke="transparent" points="-4,4 -4,-893.17 565.48,-893.17 565.48,4 -4,4"/>
<!-- BB0 -->
<g id="node1" class="node">
<title>BB0</title>
<ellipse fill="none" stroke="black" cx="234.24" cy="-841.08" rx="103.48" ry="48.17"/>
<text text-anchor="middle" x="234.24" y="-859.88" font-family="Times New Roman,serif" font-size="14.00">[0..2e)</text>
<text text-anchor="middle" x="234.24" y="-844.88" font-family="Times New Roman,serif" font-size="14.00">Count: 2</text>
<text text-anchor="middle" x="234.24" y="-829.88" font-family="Times New Roman,serif" font-size="14.00">Normalized count: 1.00</text>
<text text-anchor="middle" x="234.24" y="-814.88" font-family="Times New Roman,serif" font-size="14.00">Samples weight: 0.00</text>
</g>
<!-- BB8 -->
<g id="node9" class="node">
<title>BB8</title>
<ellipse fill="none" stroke="black" cx="234.24" cy="-708.92" rx="103.48" ry="48.17"/>
<text text-anchor="middle" x="234.24" y="-727.72" font-family="Times New Roman,serif" font-size="14.00">[95..9a)</text>
<text text-anchor="middle" x="234.24" y="-712.72" font-family="Times New Roman,serif" font-size="14.00">Count: 3</text>
<text text-anchor="middle" x="234.24" y="-697.72" font-family="Times New Roman,serif" font-size="14.00">Normalized count: 1.50</text>
<text text-anchor="middle" x="234.24" y="-682.72" font-family="Times New Roman,serif" font-size="14.00">Samples weight: 0.00</text>
</g>
<!-- BB0&#45;&gt;BB8 -->
<g id="edge1" class="edge">
<title>BB0&#45;&gt;BB8</title>
<path fill="none" stroke="black" d="M234.24,-792.72C234.24,-784.45 234.24,-775.77 234.24,-767.27"/>
<polygon fill="black" stroke="black" points="237.74,-767.02 234.24,-757.02 230.74,-767.02 237.74,-767.02"/>
</g>
<!-- BB1 -->
<g id="node2" class="node">
<title>BB1</title>
<ellipse fill="none" stroke="black" cx="234.24" cy="-576.75" rx="103.48" ry="48.17"/>
<text text-anchor="middle" x="234.24" y="-595.55" font-family="Times New Roman,serif" font-size="14.00">[2e..33)</text>
<text text-anchor="middle" x="234.24" y="-580.55" font-family="Times New Roman,serif" font-size="14.00">Count: 1</text>
<text text-anchor="middle" x="234.24" y="-565.55" font-family="Times New Roman,serif" font-size="14.00">Normalized count: 0.50</text>
<text text-anchor="middle" x="234.24" y="-550.55" font-family="Times New Roman,serif" font-size="14.00">Samples weight: 0.00</text>
</g>
<!-- BB6 -->
<g id="node7" class="node">
<title>BB6</title>
<ellipse fill="none" stroke="black" cx="234.24" cy="-444.58" rx="103.48" ry="48.17"/>
<text text-anchor="middle" x="234.24" y="-463.38" font-family="Times New Roman,serif" font-size="14.00">[8a..8f)</text>
<text text-anchor="middle" x="234.24" y="-448.38" font-family="Times New Roman,serif" font-size="14.00">Count: 7</text>
<text text-anchor="middle" x="234.24" y="-433.38" font-family="Times New Roman,serif" font-size="14.00">Normalized count: 3.50</text>
<text text-anchor="middle" x="234.24" y="-418.38" font-family="Times New Roman,serif" font-size="14.00">Samples weight: 0.00</text>
</g>
<!-- BB1&#45;&gt;BB6 -->
<g id="edge2" class="edge">
<title>BB1&#45;&gt;BB6</title>
<path fill="none" stroke="black" d="M234.24,-528.39C234.24,-520.12 234.24,-511.44 234.24,-502.93"/>
<polygon fill="black" stroke="black" points="237.74,-502.69 234.24,-492.69 230.74,-502.69 237.74,-502.69"/>
</g>
<!-- BB2 -->
<g id="node3" class="node">
<title>BB2</title>
<ellipse fill="none" stroke="black" cx="416.24" cy="-312.42" rx="103.48" ry="48.17"/>
<text text-anchor="middle" x="416.24" y="-331.22" font-family="Times New Roman,serif" font-size="14.00">[33..4e)</text>
<text text-anchor="middle" x="416.24" y="-316.22" font-family="Times New Roman,serif" font-size="14.00">Count: 6</text>
<text text-anchor="middle" x="416.24" y="-301.22" font-family="Times New Roman,serif" font-size="14.00">Normalized count: 3.00</text>
<text text-anchor="middle" x="416.24" y="-286.22" font-family="Times New Roman,serif" font-size="14.00">Samples weight: 0.00</text>
</g>
<!-- BB4 -->
<g id="node5" class="node">
<title>BB4</title>
<ellipse fill="none" stroke="black" cx="421.24" cy="-180.25" rx="113.27" ry="48.17"/>
<text text-anchor="middle" x="421.24" y="-199.05" font-family="Times New Roman,serif" font-size="14.00">[7e..84)</text>
<text text-anchor="middle" x="421.24" y="-184.05" font-family="Times New Roman,serif" font-size="14.00">Count: 1407</text>
<text text-anchor="middle" x="421.24" y="-169.05" font-family="Times New Roman,serif" font-size="14.00">Normalized count: 703.50</text>
<text text-anchor="middle" x="421.24" y="-154.05" font-family="Times New Roman,serif" font-size="14.00">Samples weight: 0.50</text>
</g>
<!-- BB2&#45;&gt;BB4 -->
<g id="edge3" class="edge">
<title>BB2&#45;&gt;BB4</title>
<path fill="none" stroke="black" d="M418.06,-264.05C418.37,-255.79 418.71,-247.1 419.03,-238.6"/>
<polygon fill="black" stroke="black" points="422.54,-238.48 419.43,-228.36 415.55,-238.22 422.54,-238.48"/>
</g>
<!-- BB3 -->
<g id="node4" class="node">
<title>BB3</title>
<ellipse fill="none" stroke="black" cx="445.24" cy="-48.08" rx="113.27" ry="48.17"/>
<text text-anchor="middle" x="445.24" y="-66.88" font-family="Times New Roman,serif" font-size="14.00">[4e..7e)</text>
<text text-anchor="middle" x="445.24" y="-51.88" font-family="Times New Roman,serif" font-size="14.00">Count: 1401</text>
<text text-anchor="middle" x="445.24" y="-36.88" font-family="Times New Roman,serif" font-size="14.00">Normalized count: 700.50</text>
<text text-anchor="middle" x="445.24" y="-21.88" font-family="Times New Roman,serif" font-size="14.00">Samples weight: 0.49</text>
</g>
<!-- BB3&#45;&gt;BB4 -->
<g id="edge4" class="edge">
<title>BB3&#45;&gt;BB4</title>
<path fill="none" stroke="black" d="M443.03,-96.44C441.7,-104.83 440.14,-113.64 438.45,-122.26"/>
<polygon fill="black" stroke="black" points="434.98,-121.76 436.41,-132.26 441.84,-123.16 434.98,-121.76"/>
</g>
<!-- BB4&#45;&gt;BB3 -->
<g id="edge5" class="edge">
<title>BB4&#45;&gt;BB3</title>
<path fill="none" stroke="black" d="M423.45,-131.89C424.79,-123.42 426.37,-114.53 428.07,-105.83"/>
<polygon fill="black" stroke="black" points="431.56,-106.25 430.13,-95.76 424.7,-104.86 431.56,-106.25"/>
</g>
<!-- BB5 -->
<g id="node6" class="node">
<title>BB5</title>
<ellipse fill="none" stroke="black" cx="211.24" cy="-48.08" rx="103.48" ry="48.17"/>
<text text-anchor="middle" x="211.24" y="-66.88" font-family="Times New Roman,serif" font-size="14.00">[84..8a)</text>
<text text-anchor="middle" x="211.24" y="-51.88" font-family="Times New Roman,serif" font-size="14.00">Count: 6</text>
<text text-anchor="middle" x="211.24" y="-36.88" font-family="Times New Roman,serif" font-size="14.00">Normalized count: 3.00</text>
<text text-anchor="middle" x="211.24" y="-21.88" font-family="Times New Roman,serif" font-size="14.00">Samples weight: 0.00</text>
</g>
<!-- BB4&#45;&gt;BB5 -->
<g id="edge6" class="edge">
<title>BB4&#45;&gt;BB5</title>
<path fill="none" stroke="black" d="M358.23,-140.2C333.91,-125.12 306,-107.82 281.08,-92.37"/>
<polygon fill="black" stroke="black" points="282.74,-89.28 272.39,-86.99 279.05,-95.23 282.74,-89.28"/>
</g>
<!-- BB5&#45;&gt;BB6 -->
<g id="edge7" class="edge">
<title>BB5&#45;&gt;BB6</title>
<path fill="none" stroke="black" d="M213.99,-96.33C218.23,-168.98 226.33,-307.9 230.89,-386.22"/>
<polygon fill="black" stroke="black" points="227.41,-386.61 231.49,-396.39 234.4,-386.2 227.41,-386.61"/>
</g>
<!-- BB6&#45;&gt;BB2 -->
<g id="edge8" class="edge">
<title>BB6&#45;&gt;BB2</title>
<path fill="none" stroke="black" d="M289.83,-403.82C309.59,-389.69 331.98,-373.68 352.37,-359.1"/>
<polygon fill="black" stroke="black" points="354.57,-361.82 360.67,-353.16 350.5,-356.13 354.57,-361.82"/>
</g>
<!-- BB7 -->
<g id="node8" class="node">
<title>BB7</title>
<ellipse fill="none" stroke="black" cx="103.24" cy="-312.42" rx="103.48" ry="48.17"/>
<text text-anchor="middle" x="103.24" y="-331.22" font-family="Times New Roman,serif" font-size="14.00">[8f..95)</text>
<text text-anchor="middle" x="103.24" y="-316.22" font-family="Times New Roman,serif" font-size="14.00">Count: 1</text>
<text text-anchor="middle" x="103.24" y="-301.22" font-family="Times New Roman,serif" font-size="14.00">Normalized count: 0.50</text>
<text text-anchor="middle" x="103.24" y="-286.22" font-family="Times New Roman,serif" font-size="14.00">Samples weight: 0.00</text>
</g>
<!-- BB6&#45;&gt;BB7 -->
<g id="edge9" class="edge">
<title>BB6&#45;&gt;BB7</title>
<path fill="none" stroke="black" d="M190.98,-400.6C179.02,-388.72 165.93,-375.71 153.61,-363.46"/>
<polygon fill="black" stroke="black" points="156.01,-360.92 146.45,-356.35 151.08,-365.88 156.01,-360.92"/>
</g>
<!-- BB7&#45;&gt;BB8 -->
<g id="edge10" class="edge">
<title>BB7&#45;&gt;BB8</title>
<path fill="none" stroke="black" d="M94.41,-360.54C84.91,-424.6 76.68,-540.78 122.24,-624.83 130.95,-640.91 144.27,-654.73 158.72,-666.22"/>
<polygon fill="black" stroke="black" points="156.75,-669.13 166.84,-672.37 160.98,-663.54 156.75,-669.13"/>
</g>
<!-- BB8&#45;&gt;BB1 -->
<g id="edge11" class="edge">
<title>BB8&#45;&gt;BB1</title>
<path fill="none" stroke="black" d="M234.24,-660.55C234.24,-652.29 234.24,-643.6 234.24,-635.1"/>
<polygon fill="black" stroke="black" points="237.74,-634.86 234.24,-624.86 230.74,-634.86 237.74,-634.86"/>
</g>
<!-- BB9 -->
<g id="node10" class="node">
<title>BB9</title>
<ellipse fill="none" stroke="black" cx="458.24" cy="-576.75" rx="103.48" ry="48.17"/>
<text text-anchor="middle" x="458.24" y="-595.55" font-family="Times New Roman,serif" font-size="14.00">[9a..9b)</text>
<text text-anchor="middle" x="458.24" y="-580.55" font-family="Times New Roman,serif" font-size="14.00">Count: 2</text>
<text text-anchor="middle" x="458.24" y="-565.55" font-family="Times New Roman,serif" font-size="14.00">Normalized count: 1.00</text>
<text text-anchor="middle" x="458.24" y="-550.55" font-family="Times New Roman,serif" font-size="14.00">Samples weight: 0.00</text>
</g>
<!-- BB8&#45;&gt;BB9 -->
<g id="edge12" class="edge">
<title>BB8&#45;&gt;BB9</title>
<path fill="none" stroke="black" d="M297.83,-670.96C325.26,-655.02 357.48,-636.3 385.83,-619.83"/>
<polygon fill="black" stroke="black" points="387.6,-622.84 394.49,-614.79 384.08,-616.79 387.6,-622.84"/>
</g>
</g>
</svg>
