<?xml version="1.0" encoding="UTF-8" standalone="no"?>
<!DOCTYPE svg PUBLIC "-//W3C//DTD SVG 1.1//EN"
 "http://www.w3.org/Graphics/SVG/1.1/DTD/svg11.dtd">
<!-- Generated by graphviz version 2.47.0 (20210316.0004)
 -->
<!-- Title: G Pages: 1 -->
<svg width="1158pt" height="1690pt"
 viewBox="0.00 0.00 1158.48 1690.16" xmlns="http://www.w3.org/2000/svg" xmlns:xlink="http://www.w3.org/1999/xlink">
<g id="graph0" class="graph" transform="scale(1 1) rotate(0) translate(4 1686.16)">
<title>G</title>
<polygon fill="white" stroke="transparent" points="-4,4 -4,-1686.16 1154.48,-1686.16 1154.48,4 -4,4"/>
<!-- BB0 -->
<g id="node1" class="node">
<title>BB0</title>
<ellipse fill="none" stroke="black" cx="916.24" cy="-1634.08" rx="103.48" ry="48.17"/>
<text text-anchor="middle" x="916.24" y="-1652.88" font-family="Times New Roman,serif" font-size="14.00">[0..19)</text>
<text text-anchor="middle" x="916.24" y="-1637.88" font-family="Times New Roman,serif" font-size="14.00">Count: 2</text>
<text text-anchor="middle" x="916.24" y="-1622.88" font-family="Times New Roman,serif" font-size="14.00">Normalized count: 1.00</text>
<text text-anchor="middle" x="916.24" y="-1607.88" font-family="Times New Roman,serif" font-size="14.00">Samples weight: 0.00</text>
</g>
<!-- BB22 -->
<g id="node23" class="node">
<title>BB22</title>
<ellipse fill="none" stroke="black" cx="916.24" cy="-1501.92" rx="103.48" ry="48.17"/>
<text text-anchor="middle" x="916.24" y="-1520.72" font-family="Times New Roman,serif" font-size="14.00">[111..118)</text>
<text text-anchor="middle" x="916.24" y="-1505.72" font-family="Times New Roman,serif" font-size="14.00">Count: 6</text>
<text text-anchor="middle" x="916.24" y="-1490.72" font-family="Times New Roman,serif" font-size="14.00">Normalized count: 3.00</text>
<text text-anchor="middle" x="916.24" y="-1475.72" font-family="Times New Roman,serif" font-size="14.00">Samples weight: 0.00</text>
</g>
<!-- BB0&#45;&gt;BB22 -->
<g id="edge1" class="edge">
<title>BB0&#45;&gt;BB22</title>
<path fill="none" stroke="black" d="M916.24,-1585.72C916.24,-1577.45 916.24,-1568.77 916.24,-1560.27"/>
<polygon fill="black" stroke="black" points="919.74,-1560.02 916.24,-1550.02 912.74,-1560.02 919.74,-1560.02"/>
</g>
<!-- BB1 -->
<g id="node2" class="node">
<title>BB1</title>
<ellipse fill="none" stroke="black" cx="692.24" cy="-1369.75" rx="103.48" ry="48.17"/>
<text text-anchor="middle" x="692.24" y="-1388.55" font-family="Times New Roman,serif" font-size="14.00">[19..2f)</text>
<text text-anchor="middle" x="692.24" y="-1373.55" font-family="Times New Roman,serif" font-size="14.00">Count: 6</text>
<text text-anchor="middle" x="692.24" y="-1358.55" font-family="Times New Roman,serif" font-size="14.00">Normalized count: 3.00</text>
<text text-anchor="middle" x="692.24" y="-1343.55" font-family="Times New Roman,serif" font-size="14.00">Samples weight: 0.00</text>
</g>
<!-- BB5 -->
<g id="node6" class="node">
<title>BB5</title>
<ellipse fill="none" stroke="black" cx="515.24" cy="-1237.58" rx="108.38" ry="48.17"/>
<text text-anchor="middle" x="515.24" y="-1256.38" font-family="Times New Roman,serif" font-size="14.00">[50..55)</text>
<text text-anchor="middle" x="515.24" y="-1241.38" font-family="Times New Roman,serif" font-size="14.00">Count: 47</text>
<text text-anchor="middle" x="515.24" y="-1226.38" font-family="Times New Roman,serif" font-size="14.00">Normalized count: 23.50</text>
<text text-anchor="middle" x="515.24" y="-1211.38" font-family="Times New Roman,serif" font-size="14.00">Samples weight: 0.01</text>
</g>
<!-- BB1&#45;&gt;BB5 -->
<g id="edge2" class="edge">
<title>BB1&#45;&gt;BB5</title>
<path fill="none" stroke="black" d="M637.69,-1328.63C618.93,-1314.84 597.78,-1299.29 578.4,-1285.03"/>
<polygon fill="black" stroke="black" points="580.35,-1282.12 570.22,-1279.01 576.2,-1287.76 580.35,-1282.12"/>
</g>
<!-- BB2 -->
<g id="node3" class="node">
<title>BB2</title>
<ellipse fill="none" stroke="black" cx="313.24" cy="-1105.42" rx="108.38" ry="48.17"/>
<text text-anchor="middle" x="313.24" y="-1124.22" font-family="Times New Roman,serif" font-size="14.00">[2f..42)</text>
<text text-anchor="middle" x="313.24" y="-1109.22" font-family="Times New Roman,serif" font-size="14.00">Count: 41</text>
<text text-anchor="middle" x="313.24" y="-1094.22" font-family="Times New Roman,serif" font-size="14.00">Normalized count: 20.50</text>
<text text-anchor="middle" x="313.24" y="-1079.22" font-family="Times New Roman,serif" font-size="14.00">Samples weight: 0.01</text>
</g>
<!-- BB3 -->
<g id="node4" class="node">
<title>BB3</title>
<ellipse fill="none" stroke="black" cx="103.24" cy="-973.25" rx="103.48" ry="48.17"/>
<text text-anchor="middle" x="103.24" y="-992.05" font-family="Times New Roman,serif" font-size="14.00">[42..4a)</text>
<text text-anchor="middle" x="103.24" y="-977.05" font-family="Times New Roman,serif" font-size="14.00">Count: 0</text>
<text text-anchor="middle" x="103.24" y="-962.05" font-family="Times New Roman,serif" font-size="14.00">Normalized count: 0.00</text>
<text text-anchor="middle" x="103.24" y="-947.05" font-family="Times New Roman,serif" font-size="14.00">Samples weight: 0.00</text>
</g>
<!-- BB2&#45;&gt;BB3 -->
<g id="edge4" class="edge">
<title>BB2&#45;&gt;BB3</title>
<path fill="none" stroke="black" d="M251.08,-1065.89C226.63,-1050.73 198.44,-1033.26 173.27,-1017.66"/>
<polygon fill="black" stroke="black" points="174.85,-1014.52 164.51,-1012.23 171.16,-1020.47 174.85,-1014.52"/>
</g>
<!-- BB4 -->
<g id="node5" class="node">
<title>BB4</title>
<ellipse fill="none" stroke="black" cx="332.24" cy="-973.25" rx="108.38" ry="48.17"/>
<text text-anchor="middle" x="332.24" y="-992.05" font-family="Times New Roman,serif" font-size="14.00">[4a..50)</text>
<text text-anchor="middle" x="332.24" y="-977.05" font-family="Times New Roman,serif" font-size="14.00">Count: 41</text>
<text text-anchor="middle" x="332.24" y="-962.05" font-family="Times New Roman,serif" font-size="14.00">Normalized count: 20.50</text>
<text text-anchor="middle" x="332.24" y="-947.05" font-family="Times New Roman,serif" font-size="14.00">Samples weight: 0.01</text>
</g>
<!-- BB2&#45;&gt;BB4 -->
<g id="edge3" class="edge">
<title>BB2&#45;&gt;BB4</title>
<path fill="none" stroke="black" d="M320.1,-1057.42C321.32,-1049.05 322.61,-1040.24 323.86,-1031.61"/>
<polygon fill="black" stroke="black" points="327.34,-1032.01 325.32,-1021.61 320.42,-1031 327.34,-1032.01"/>
</g>
<!-- BB3&#45;&gt;BB4 -->
<g id="edge5" class="edge">
<title>BB3&#45;&gt;BB4</title>
<path fill="none" stroke="black" d="M206.56,-973.25C208.88,-973.25 211.21,-973.25 213.54,-973.25"/>
<polygon fill="black" stroke="black" points="213.74,-976.75 223.74,-973.25 213.74,-969.75 213.74,-976.75"/>
</g>
<!-- BB4&#45;&gt;BB5 -->
<g id="edge6" class="edge">
<title>BB4&#45;&gt;BB5</title>
<path fill="none" stroke="black" d="M388.94,-1014.23C403.82,-1026.74 418.87,-1041.47 430.24,-1057.33 457.01,-1094.68 448.43,-1112.03 468.24,-1153.5 472.73,-1162.9 477.85,-1172.7 483.02,-1182.14"/>
<polygon fill="black" stroke="black" points="480.06,-1184 487.98,-1191.04 486.17,-1180.6 480.06,-1184"/>
</g>
<!-- BB5&#45;&gt;BB2 -->
<g id="edge7" class="edge">
<title>BB5&#45;&gt;BB2</title>
<path fill="none" stroke="black" d="M454.63,-1197.53C431.86,-1182.85 405.81,-1166.07 382.33,-1150.94"/>
<polygon fill="black" stroke="black" points="384.1,-1147.92 373.8,-1145.44 380.31,-1153.8 384.1,-1147.92"/>
</g>
<!-- BB6 -->
<g id="node7" class="node">
<title>BB6</title>
<ellipse fill="none" stroke="black" cx="580.24" cy="-1105.42" rx="103.48" ry="48.17"/>
<text text-anchor="middle" x="580.24" y="-1124.22" font-family="Times New Roman,serif" font-size="14.00">[55..6b)</text>
<text text-anchor="middle" x="580.24" y="-1109.22" font-family="Times New Roman,serif" font-size="14.00">Count: 6</text>
<text text-anchor="middle" x="580.24" y="-1094.22" font-family="Times New Roman,serif" font-size="14.00">Normalized count: 3.00</text>
<text text-anchor="middle" x="580.24" y="-1079.22" font-family="Times New Roman,serif" font-size="14.00">Samples weight: 0.00</text>
</g>
<!-- BB5&#45;&gt;BB6 -->
<g id="edge8" class="edge">
<title>BB5&#45;&gt;BB6</title>
<path fill="none" stroke="black" d="M538.34,-1190.32C542.98,-1181.02 547.91,-1171.16 552.69,-1161.58"/>
<polygon fill="black" stroke="black" points="555.88,-1163.04 557.21,-1152.52 549.61,-1159.91 555.88,-1163.04"/>
</g>
<!-- BB7 -->
<g id="node8" class="node">
<title>BB7</title>
<ellipse fill="none" stroke="black" cx="785.24" cy="-973.25" rx="103.48" ry="48.17"/>
<text text-anchor="middle" x="785.24" y="-992.05" font-family="Times New Roman,serif" font-size="14.00">[6b..6d)</text>
<text text-anchor="middle" x="785.24" y="-977.05" font-family="Times New Roman,serif" font-size="14.00">Count: 2</text>
<text text-anchor="middle" x="785.24" y="-962.05" font-family="Times New Roman,serif" font-size="14.00">Normalized count: 1.00</text>
<text text-anchor="middle" x="785.24" y="-947.05" font-family="Times New Roman,serif" font-size="14.00">Samples weight: 0.00</text>
</g>
<!-- BB6&#45;&gt;BB7 -->
<g id="edge10" class="edge">
<title>BB6&#45;&gt;BB7</title>
<path fill="none" stroke="black" d="M640.36,-1066.24C664.24,-1051.08 691.85,-1033.54 716.52,-1017.88"/>
<polygon fill="black" stroke="black" points="718.55,-1020.74 725.12,-1012.42 714.8,-1014.83 718.55,-1020.74"/>
</g>
<!-- BB8 -->
<g id="node9" class="node">
<title>BB8</title>
<ellipse fill="none" stroke="black" cx="561.24" cy="-973.25" rx="103.48" ry="48.17"/>
<text text-anchor="middle" x="561.24" y="-992.05" font-family="Times New Roman,serif" font-size="14.00">[6d..72)</text>
<text text-anchor="middle" x="561.24" y="-977.05" font-family="Times New Roman,serif" font-size="14.00">Count: 4</text>
<text text-anchor="middle" x="561.24" y="-962.05" font-family="Times New Roman,serif" font-size="14.00">Normalized count: 2.00</text>
<text text-anchor="middle" x="561.24" y="-947.05" font-family="Times New Roman,serif" font-size="14.00">Samples weight: 0.00</text>
</g>
<!-- BB6&#45;&gt;BB8 -->
<g id="edge9" class="edge">
<title>BB6&#45;&gt;BB8</title>
<path fill="none" stroke="black" d="M573.38,-1057.42C572.16,-1049.05 570.87,-1040.24 569.61,-1031.61"/>
<polygon fill="black" stroke="black" points="573.06,-1031 568.15,-1021.61 566.13,-1032.01 573.06,-1031"/>
</g>
<!-- BB9 -->
<g id="node10" class="node">
<title>BB9</title>
<ellipse fill="none" stroke="black" cx="738.24" cy="-841.08" rx="103.48" ry="48.17"/>
<text text-anchor="middle" x="738.24" y="-859.88" font-family="Times New Roman,serif" font-size="14.00">[72..84)</text>
<text text-anchor="middle" x="738.24" y="-844.88" font-family="Times New Roman,serif" font-size="14.00">Count: 0</text>
<text text-anchor="middle" x="738.24" y="-829.88" font-family="Times New Roman,serif" font-size="14.00">Normalized count: 0.00</text>
<text text-anchor="middle" x="738.24" y="-814.88" font-family="Times New Roman,serif" font-size="14.00">Samples weight: 0.00</text>
</g>
<!-- BB8&#45;&gt;BB9 -->
<g id="edge12" class="edge">
<title>BB8&#45;&gt;BB9</title>
<path fill="none" stroke="black" d="M615.79,-932.13C634.72,-918.21 656.09,-902.49 675.62,-888.13"/>
<polygon fill="black" stroke="black" points="677.89,-890.81 683.87,-882.07 673.74,-885.17 677.89,-890.81"/>
</g>
<!-- BB10 -->
<g id="node11" class="node">
<title>BB10</title>
<ellipse fill="none" stroke="black" cx="514.24" cy="-841.08" rx="103.48" ry="48.17"/>
<text text-anchor="middle" x="514.24" y="-859.88" font-family="Times New Roman,serif" font-size="14.00">[84..8a)</text>
<text text-anchor="middle" x="514.24" y="-844.88" font-family="Times New Roman,serif" font-size="14.00">Count: 4</text>
<text text-anchor="middle" x="514.24" y="-829.88" font-family="Times New Roman,serif" font-size="14.00">Normalized count: 2.00</text>
<text text-anchor="middle" x="514.24" y="-814.88" font-family="Times New Roman,serif" font-size="14.00">Samples weight: 0.00</text>
</g>
<!-- BB8&#45;&gt;BB10 -->
<g id="edge11" class="edge">
<title>BB8&#45;&gt;BB10</title>
<path fill="none" stroke="black" d="M544.4,-925.62C541.2,-916.74 537.81,-907.37 534.51,-898.23"/>
<polygon fill="black" stroke="black" points="537.8,-897.04 531.11,-888.82 531.22,-899.41 537.8,-897.04"/>
</g>
<!-- BB9&#45;&gt;BB10 -->
<g id="edge13" class="edge">
<title>BB9&#45;&gt;BB10</title>
<path fill="none" stroke="black" d="M634.94,-841.08C632.49,-841.08 630.03,-841.08 627.58,-841.08"/>
<polygon fill="black" stroke="black" points="627.49,-837.58 617.49,-841.08 627.49,-844.58 627.49,-837.58"/>
</g>
<!-- BB11 -->
<g id="node12" class="node">
<title>BB11</title>
<ellipse fill="none" stroke="black" cx="465.24" cy="-708.92" rx="103.48" ry="48.17"/>
<text text-anchor="middle" x="465.24" y="-727.72" font-family="Times New Roman,serif" font-size="14.00">[8a..a2)</text>
<text text-anchor="middle" x="465.24" y="-712.72" font-family="Times New Roman,serif" font-size="14.00">Count: 2</text>
<text text-anchor="middle" x="465.24" y="-697.72" font-family="Times New Roman,serif" font-size="14.00">Normalized count: 1.00</text>
<text text-anchor="middle" x="465.24" y="-682.72" font-family="Times New Roman,serif" font-size="14.00">Samples weight: 0.00</text>
</g>
<!-- BB10&#45;&gt;BB11 -->
<g id="edge15" class="edge">
<title>BB10&#45;&gt;BB11</title>
<path fill="none" stroke="black" d="M496.69,-793.46C493.34,-784.58 489.81,-775.2 486.37,-766.06"/>
<polygon fill="black" stroke="black" points="489.63,-764.78 482.83,-756.65 483.08,-767.25 489.63,-764.78"/>
</g>
<!-- BB14 -->
<g id="node15" class="node">
<title>BB14</title>
<ellipse fill="none" stroke="black" cx="691.24" cy="-708.92" rx="103.48" ry="48.17"/>
<text text-anchor="middle" x="691.24" y="-727.72" font-family="Times New Roman,serif" font-size="14.00">[bd..c3)</text>
<text text-anchor="middle" x="691.24" y="-712.72" font-family="Times New Roman,serif" font-size="14.00">Count: 4</text>
<text text-anchor="middle" x="691.24" y="-697.72" font-family="Times New Roman,serif" font-size="14.00">Normalized count: 2.00</text>
<text text-anchor="middle" x="691.24" y="-682.72" font-family="Times New Roman,serif" font-size="14.00">Samples weight: 0.00</text>
</g>
<!-- BB10&#45;&gt;BB14 -->
<g id="edge14" class="edge">
<title>BB10&#45;&gt;BB14</title>
<path fill="none" stroke="black" d="M568.79,-799.97C587.72,-786.04 609.09,-770.33 628.62,-755.96"/>
<polygon fill="black" stroke="black" points="630.89,-758.64 636.87,-749.9 626.74,-753 630.89,-758.64"/>
</g>
<!-- BB13 -->
<g id="node14" class="node">
<title>BB13</title>
<ellipse fill="none" stroke="black" cx="463.24" cy="-576.75" rx="108.38" ry="48.17"/>
<text text-anchor="middle" x="463.24" y="-595.55" font-family="Times New Roman,serif" font-size="14.00">[b8..bd)</text>
<text text-anchor="middle" x="463.24" y="-580.55" font-family="Times New Roman,serif" font-size="14.00">Count: 35</text>
<text text-anchor="middle" x="463.24" y="-565.55" font-family="Times New Roman,serif" font-size="14.00">Normalized count: 17.50</text>
<text text-anchor="middle" x="463.24" y="-550.55" font-family="Times New Roman,serif" font-size="14.00">Samples weight: 0.01</text>
</g>
<!-- BB11&#45;&gt;BB13 -->
<g id="edge16" class="edge">
<title>BB11&#45;&gt;BB13</title>
<path fill="none" stroke="black" d="M464.51,-660.55C464.38,-652.29 464.25,-643.6 464.12,-635.1"/>
<polygon fill="black" stroke="black" points="467.61,-634.8 463.96,-624.86 460.62,-634.91 467.61,-634.8"/>
</g>
<!-- BB12 -->
<g id="node13" class="node">
<title>BB12</title>
<ellipse fill="none" stroke="black" cx="463.24" cy="-444.58" rx="108.38" ry="48.17"/>
<text text-anchor="middle" x="463.24" y="-463.38" font-family="Times New Roman,serif" font-size="14.00">[a2..b8)</text>
<text text-anchor="middle" x="463.24" y="-448.38" font-family="Times New Roman,serif" font-size="14.00">Count: 33</text>
<text text-anchor="middle" x="463.24" y="-433.38" font-family="Times New Roman,serif" font-size="14.00">Normalized count: 16.50</text>
<text text-anchor="middle" x="463.24" y="-418.38" font-family="Times New Roman,serif" font-size="14.00">Samples weight: 0.01</text>
</g>
<!-- BB12&#45;&gt;BB13 -->
<g id="edge17" class="edge">
<title>BB12&#45;&gt;BB13</title>
<path fill="none" stroke="black" d="M469.75,-492.69C469.97,-500.95 470.04,-509.63 469.95,-518.14"/>
<polygon fill="black" stroke="black" points="466.44,-518.33 469.76,-528.39 473.44,-518.45 466.44,-518.33"/>
</g>
<!-- BB13&#45;&gt;BB12 -->
<g id="edge18" class="edge">
<title>BB13&#45;&gt;BB12</title>
<path fill="none" stroke="black" d="M456.72,-528.39C456.5,-520.12 456.44,-511.44 456.53,-502.93"/>
<polygon fill="black" stroke="black" points="460.03,-502.75 456.72,-492.69 453.04,-502.62 460.03,-502.75"/>
</g>
<!-- BB13&#45;&gt;BB14 -->
<g id="edge19" class="edge">
<title>BB13&#45;&gt;BB14</title>
<path fill="none" stroke="black" d="M528.69,-615.11C556.61,-631.06 589.32,-649.73 618.04,-666.13"/>
<polygon fill="black" stroke="black" points="616.4,-669.22 626.82,-671.14 619.87,-663.14 616.4,-669.22"/>
</g>
<!-- BB15 -->
<g id="node16" class="node">
<title>BB15</title>
<ellipse fill="none" stroke="black" cx="692.24" cy="-576.75" rx="103.48" ry="48.17"/>
<text text-anchor="middle" x="692.24" y="-595.55" font-family="Times New Roman,serif" font-size="14.00">[c3..ca)</text>
<text text-anchor="middle" x="692.24" y="-580.55" font-family="Times New Roman,serif" font-size="14.00">Count: 1</text>
<text text-anchor="middle" x="692.24" y="-565.55" font-family="Times New Roman,serif" font-size="14.00">Normalized count: 0.50</text>
<text text-anchor="middle" x="692.24" y="-550.55" font-family="Times New Roman,serif" font-size="14.00">Samples weight: 0.00</text>
</g>
<!-- BB14&#45;&gt;BB15 -->
<g id="edge21" class="edge">
<title>BB14&#45;&gt;BB15</title>
<path fill="none" stroke="black" d="M691.6,-660.55C691.66,-652.29 691.73,-643.6 691.8,-635.1"/>
<polygon fill="black" stroke="black" points="695.3,-634.88 691.88,-624.86 688.3,-634.83 695.3,-634.88"/>
</g>
<!-- BB21 -->
<g id="node22" class="node">
<title>BB21</title>
<ellipse fill="none" stroke="black" cx="916.24" cy="-576.75" rx="103.48" ry="48.17"/>
<text text-anchor="middle" x="916.24" y="-595.55" font-family="Times New Roman,serif" font-size="14.00">[10d..111)</text>
<text text-anchor="middle" x="916.24" y="-580.55" font-family="Times New Roman,serif" font-size="14.00">Count: 4</text>
<text text-anchor="middle" x="916.24" y="-565.55" font-family="Times New Roman,serif" font-size="14.00">Normalized count: 2.00</text>
<text text-anchor="middle" x="916.24" y="-550.55" font-family="Times New Roman,serif" font-size="14.00">Samples weight: 0.00</text>
</g>
<!-- BB14&#45;&gt;BB21 -->
<g id="edge20" class="edge">
<title>BB14&#45;&gt;BB21</title>
<path fill="none" stroke="black" d="M755.11,-670.96C782.66,-655.02 815.03,-636.3 843.5,-619.83"/>
<polygon fill="black" stroke="black" points="845.3,-622.83 852.2,-614.79 841.8,-616.77 845.3,-622.83"/>
</g>
<!-- BB20 -->
<g id="node21" class="node">
<title>BB20</title>
<ellipse fill="none" stroke="black" cx="806.24" cy="-444.58" rx="108.38" ry="48.17"/>
<text text-anchor="middle" x="806.24" y="-463.38" font-family="Times New Roman,serif" font-size="14.00">[108..10d)</text>
<text text-anchor="middle" x="806.24" y="-448.38" font-family="Times New Roman,serif" font-size="14.00">Count: 83</text>
<text text-anchor="middle" x="806.24" y="-433.38" font-family="Times New Roman,serif" font-size="14.00">Normalized count: 41.50</text>
<text text-anchor="middle" x="806.24" y="-418.38" font-family="Times New Roman,serif" font-size="14.00">Samples weight: 0.02</text>
</g>
<!-- BB15&#45;&gt;BB20 -->
<g id="edge22" class="edge">
<title>BB15&#45;&gt;BB20</title>
<path fill="none" stroke="black" d="M730.52,-532.04C740.19,-521 750.66,-509.04 760.66,-497.63"/>
<polygon fill="black" stroke="black" points="763.52,-499.67 767.48,-489.84 758.26,-495.06 763.52,-499.67"/>
</g>
<!-- BB16 -->
<g id="node17" class="node">
<title>BB16</title>
<ellipse fill="none" stroke="black" cx="875.24" cy="-312.42" rx="108.38" ry="48.17"/>
<text text-anchor="middle" x="875.24" y="-331.22" font-family="Times New Roman,serif" font-size="14.00">[ca..e2)</text>
<text text-anchor="middle" x="875.24" y="-316.22" font-family="Times New Roman,serif" font-size="14.00">Count: 82</text>
<text text-anchor="middle" x="875.24" y="-301.22" font-family="Times New Roman,serif" font-size="14.00">Normalized count: 41.00</text>
<text text-anchor="middle" x="875.24" y="-286.22" font-family="Times New Roman,serif" font-size="14.00">Samples weight: 0.02</text>
</g>
<!-- BB18 -->
<g id="node19" class="node">
<title>BB18</title>
<ellipse fill="none" stroke="black" cx="902.24" cy="-180.25" rx="113.27" ry="48.17"/>
<text text-anchor="middle" x="902.24" y="-199.05" font-family="Times New Roman,serif" font-size="14.00">[fd..102)</text>
<text text-anchor="middle" x="902.24" y="-184.05" font-family="Times New Roman,serif" font-size="14.00">Count: 1608</text>
<text text-anchor="middle" x="902.24" y="-169.05" font-family="Times New Roman,serif" font-size="14.00">Normalized count: 804.00</text>
<text text-anchor="middle" x="902.24" y="-154.05" font-family="Times New Roman,serif" font-size="14.00">Samples weight: 0.44</text>
</g>
<!-- BB16&#45;&gt;BB18 -->
<g id="edge23" class="edge">
<title>BB16&#45;&gt;BB18</title>
<path fill="none" stroke="black" d="M884.99,-264.42C886.76,-255.85 888.64,-246.83 890.46,-238.01"/>
<polygon fill="black" stroke="black" points="893.9,-238.68 892.5,-228.17 887.05,-237.25 893.9,-238.68"/>
</g>
<!-- BB17 -->
<g id="node18" class="node">
<title>BB17</title>
<ellipse fill="none" stroke="black" cx="927.24" cy="-48.08" rx="113.27" ry="48.17"/>
<text text-anchor="middle" x="927.24" y="-66.88" font-family="Times New Roman,serif" font-size="14.00">[e2..fd)</text>
<text text-anchor="middle" x="927.24" y="-51.88" font-family="Times New Roman,serif" font-size="14.00">Count: 1526</text>
<text text-anchor="middle" x="927.24" y="-36.88" font-family="Times New Roman,serif" font-size="14.00">Normalized count: 763.00</text>
<text text-anchor="middle" x="927.24" y="-21.88" font-family="Times New Roman,serif" font-size="14.00">Samples weight: 0.42</text>
</g>
<!-- BB17&#45;&gt;BB18 -->
<g id="edge24" class="edge">
<title>BB17&#45;&gt;BB18</title>
<path fill="none" stroke="black" d="M924.66,-96.44C923.27,-104.83 921.64,-113.64 919.89,-122.26"/>
<polygon fill="black" stroke="black" points="916.42,-121.75 917.78,-132.26 923.27,-123.2 916.42,-121.75"/>
</g>
<!-- BB18&#45;&gt;BB17 -->
<g id="edge25" class="edge">
<title>BB18&#45;&gt;BB17</title>
<path fill="none" stroke="black" d="M904.81,-131.89C906.23,-123.33 907.9,-114.33 909.7,-105.55"/>
<polygon fill="black" stroke="black" points="913.12,-106.26 911.77,-95.76 906.27,-104.81 913.12,-106.26"/>
</g>
<!-- BB19 -->
<g id="node20" class="node">
<title>BB19</title>
<ellipse fill="none" stroke="black" cx="688.24" cy="-48.08" rx="108.38" ry="48.17"/>
<text text-anchor="middle" x="688.24" y="-66.88" font-family="Times New Roman,serif" font-size="14.00">[102..108)</text>
<text text-anchor="middle" x="688.24" y="-51.88" font-family="Times New Roman,serif" font-size="14.00">Count: 82</text>
<text text-anchor="middle" x="688.24" y="-36.88" font-family="Times New Roman,serif" font-size="14.00">Normalized count: 41.00</text>
<text text-anchor="middle" x="688.24" y="-21.88" font-family="Times New Roman,serif" font-size="14.00">Samples weight: 0.02</text>
</g>
<!-- BB18&#45;&gt;BB19 -->
<g id="edge26" class="edge">
<title>BB18&#45;&gt;BB19</title>
<path fill="none" stroke="black" d="M838.32,-140.37C813.64,-125.36 785.29,-108.12 759.93,-92.69"/>
<polygon fill="black" stroke="black" points="761.45,-89.52 751.09,-87.31 757.81,-95.5 761.45,-89.52"/>
</g>
<!-- BB19&#45;&gt;BB20 -->
<g id="edge27" class="edge">
<title>BB19&#45;&gt;BB20</title>
<path fill="none" stroke="black" d="M694.3,-96.29C703.31,-158.46 723.05,-270.43 758.24,-360.5 762,-370.14 766.77,-380 771.83,-389.4"/>
<polygon fill="black" stroke="black" points="768.83,-391.2 776.75,-398.24 774.95,-387.8 768.83,-391.2"/>
</g>
<!-- BB20&#45;&gt;BB16 -->
<g id="edge28" class="edge">
<title>BB20&#45;&gt;BB16</title>
<path fill="none" stroke="black" d="M830.56,-397.69C835.61,-388.16 840.98,-378.03 846.18,-368.23"/>
<polygon fill="black" stroke="black" points="849.31,-369.81 850.9,-359.33 843.12,-366.53 849.31,-369.81"/>
</g>
<!-- BB20&#45;&gt;BB21 -->
<g id="edge29" class="edge">
<title>BB20&#45;&gt;BB21</title>
<path fill="none" stroke="black" d="M843.81,-490.05C853.05,-500.98 863.01,-512.77 872.51,-524.01"/>
<polygon fill="black" stroke="black" points="869.87,-526.3 879,-531.68 875.22,-521.78 869.87,-526.3"/>
</g>
<!-- BB21&#45;&gt;BB22 -->
<g id="edge30" class="edge">
<title>BB21&#45;&gt;BB22</title>
<path fill="none" stroke="black" d="M916.24,-625.14C916.24,-677.68 916.24,-764.93 916.24,-840.08 916.24,-1238.58 916.24,-1238.58 916.24,-1238.58 916.24,-1309.03 916.24,-1390.13 916.24,-1443.28"/>
<polygon fill="black" stroke="black" points="912.74,-1443.52 916.24,-1453.52 919.74,-1443.52 912.74,-1443.52"/>
</g>
<!-- BB22&#45;&gt;BB1 -->
<g id="edge31" class="edge">
<title>BB22&#45;&gt;BB1</title>
<path fill="none" stroke="black" d="M852.65,-1463.96C825.22,-1448.02 792.99,-1429.3 764.65,-1412.83"/>
<polygon fill="black" stroke="black" points="766.39,-1409.79 755.99,-1407.79 762.87,-1415.84 766.39,-1409.79"/>
</g>
<!-- BB23 -->
<g id="node24" class="node">
<title>BB23</title>
<ellipse fill="none" stroke="black" cx="1047.24" cy="-1369.75" rx="103.48" ry="48.17"/>
<text text-anchor="middle" x="1047.24" y="-1388.55" font-family="Times New Roman,serif" font-size="14.00">[118..11a)</text>
<text text-anchor="middle" x="1047.24" y="-1373.55" font-family="Times New Roman,serif" font-size="14.00">Count: 0</text>
<text text-anchor="middle" x="1047.24" y="-1358.55" font-family="Times New Roman,serif" font-size="14.00">Normalized count: 0.00</text>
<text text-anchor="middle" x="1047.24" y="-1343.55" font-family="Times New Roman,serif" font-size="14.00">Samples weight: 0.00</text>
</g>
<!-- BB22&#45;&gt;BB23 -->
<g id="edge32" class="edge">
<title>BB22&#45;&gt;BB23</title>
<path fill="none" stroke="black" d="M959.49,-1457.93C971.46,-1446.05 984.54,-1433.05 996.87,-1420.8"/>
<polygon fill="black" stroke="black" points="999.4,-1423.22 1004.03,-1413.69 994.47,-1418.25 999.4,-1423.22"/>
</g>
</g>
</svg>
