<?xml version="1.0" encoding="UTF-8" standalone="no"?>
<!DOCTYPE svg PUBLIC "-//W3C//DTD SVG 1.1//EN"
 "http://www.w3.org/Graphics/SVG/1.1/DTD/svg11.dtd">
<!-- Generated by graphviz version 2.47.0 (20210316.0004)
 -->
<!-- Title: G Pages: 1 -->
<svg width="590pt" height="897pt"
 viewBox="0.00 0.00 590.50 897.17" xmlns="http://www.w3.org/2000/svg" xmlns:xlink="http://www.w3.org/1999/xlink">
<g id="graph0" class="graph" transform="scale(1 1) rotate(0) translate(4 893.17)">
<title>G</title>
<polygon fill="white" stroke="transparent" points="-4,4 -4,-893.17 586.5,-893.17 586.5,4 -4,4"/>
<!-- BB0 -->
<g id="node1" class="node">
<title>BB0</title>
<ellipse fill="none" stroke="black" cx="250.84" cy="-841.08" rx="104.8" ry="48.17"/>
<text text-anchor="middle" x="250.84" y="-859.88" font-family="Times New Roman,serif" font-size="14.00">[0..a)</text>
<text text-anchor="middle" x="250.84" y="-844.88" font-family="Times New Roman,serif" font-size="14.00">Count: 0</text>
<text text-anchor="middle" x="250.84" y="-829.88" font-family="Times New Roman,serif" font-size="14.00">Normalized count: NaN</text>
<text text-anchor="middle" x="250.84" y="-814.88" font-family="Times New Roman,serif" font-size="14.00">Samples weight: 0.00</text>
</g>
<!-- BB8 -->
<g id="node9" class="node">
<title>BB8</title>
<ellipse fill="none" stroke="black" cx="250.84" cy="-708.92" rx="113.69" ry="48.17"/>
<text text-anchor="middle" x="250.84" y="-727.72" font-family="Times New Roman,serif" font-size="14.00">[51..56)</text>
<text text-anchor="middle" x="250.84" y="-712.72" font-family="Times New Roman,serif" font-size="14.00">Count: 1</text>
<text text-anchor="middle" x="250.84" y="-697.72" font-family="Times New Roman,serif" font-size="14.00">Normalized count: Infinity</text>
<text text-anchor="middle" x="250.84" y="-682.72" font-family="Times New Roman,serif" font-size="14.00">Samples weight: 0.00</text>
</g>
<!-- BB0&#45;&gt;BB8 -->
<g id="edge1" class="edge">
<title>BB0&#45;&gt;BB8</title>
<path fill="none" stroke="black" d="M250.84,-792.72C250.84,-784.45 250.84,-775.77 250.84,-767.27"/>
<polygon fill="black" stroke="black" points="254.34,-767.02 250.84,-757.02 247.34,-767.02 254.34,-767.02"/>
</g>
<!-- BB1 -->
<g id="node2" class="node">
<title>BB1</title>
<ellipse fill="none" stroke="black" cx="250.84" cy="-576.75" rx="104.8" ry="48.17"/>
<text text-anchor="middle" x="250.84" y="-595.55" font-family="Times New Roman,serif" font-size="14.00">[a..e)</text>
<text text-anchor="middle" x="250.84" y="-580.55" font-family="Times New Roman,serif" font-size="14.00">Count: 0</text>
<text text-anchor="middle" x="250.84" y="-565.55" font-family="Times New Roman,serif" font-size="14.00">Normalized count: NaN</text>
<text text-anchor="middle" x="250.84" y="-550.55" font-family="Times New Roman,serif" font-size="14.00">Samples weight: 0.00</text>
</g>
<!-- BB6 -->
<g id="node7" class="node">
<title>BB6</title>
<ellipse fill="none" stroke="black" cx="255.84" cy="-444.58" rx="113.69" ry="48.17"/>
<text text-anchor="middle" x="255.84" y="-463.38" font-family="Times New Roman,serif" font-size="14.00">[49..4d)</text>
<text text-anchor="middle" x="255.84" y="-448.38" font-family="Times New Roman,serif" font-size="14.00">Count: 28</text>
<text text-anchor="middle" x="255.84" y="-433.38" font-family="Times New Roman,serif" font-size="14.00">Normalized count: Infinity</text>
<text text-anchor="middle" x="255.84" y="-418.38" font-family="Times New Roman,serif" font-size="14.00">Samples weight: 0.01</text>
</g>
<!-- BB1&#45;&gt;BB6 -->
<g id="edge2" class="edge">
<title>BB1&#45;&gt;BB6</title>
<path fill="none" stroke="black" d="M252.66,-528.39C252.98,-520.12 253.31,-511.44 253.64,-502.93"/>
<polygon fill="black" stroke="black" points="257.15,-502.82 254.03,-492.69 250.15,-502.55 257.15,-502.82"/>
</g>
<!-- BB2 -->
<g id="node3" class="node">
<title>BB2</title>
<ellipse fill="none" stroke="black" cx="423.84" cy="-312.42" rx="113.69" ry="48.17"/>
<text text-anchor="middle" x="423.84" y="-331.22" font-family="Times New Roman,serif" font-size="14.00">[e..26)</text>
<text text-anchor="middle" x="423.84" y="-316.22" font-family="Times New Roman,serif" font-size="14.00">Count: 140</text>
<text text-anchor="middle" x="423.84" y="-301.22" font-family="Times New Roman,serif" font-size="14.00">Normalized count: Infinity</text>
<text text-anchor="middle" x="423.84" y="-286.22" font-family="Times New Roman,serif" font-size="14.00">Samples weight: 0.07</text>
</g>
<!-- BB4 -->
<g id="node5" class="node">
<title>BB4</title>
<ellipse fill="none" stroke="black" cx="436.84" cy="-180.25" rx="113.69" ry="48.17"/>
<text text-anchor="middle" x="436.84" y="-199.05" font-family="Times New Roman,serif" font-size="14.00">[3b..41)</text>
<text text-anchor="middle" x="436.84" y="-184.05" font-family="Times New Roman,serif" font-size="14.00">Count: 136</text>
<text text-anchor="middle" x="436.84" y="-169.05" font-family="Times New Roman,serif" font-size="14.00">Normalized count: Infinity</text>
<text text-anchor="middle" x="436.84" y="-154.05" font-family="Times New Roman,serif" font-size="14.00">Samples weight: 0.06</text>
</g>
<!-- BB2&#45;&gt;BB4 -->
<g id="edge3" class="edge">
<title>BB2&#45;&gt;BB4</title>
<path fill="none" stroke="black" d="M428.57,-264.05C429.41,-255.7 430.29,-246.91 431.14,-238.32"/>
<polygon fill="black" stroke="black" points="434.63,-238.66 432.14,-228.36 427.66,-237.96 434.63,-238.66"/>
</g>
<!-- BB3 -->
<g id="node4" class="node">
<title>BB3</title>
<ellipse fill="none" stroke="black" cx="449.84" cy="-48.08" rx="113.69" ry="48.17"/>
<text text-anchor="middle" x="449.84" y="-66.88" font-family="Times New Roman,serif" font-size="14.00">[26..3b)</text>
<text text-anchor="middle" x="449.84" y="-51.88" font-family="Times New Roman,serif" font-size="14.00">Count: 1692</text>
<text text-anchor="middle" x="449.84" y="-36.88" font-family="Times New Roman,serif" font-size="14.00">Normalized count: Infinity</text>
<text text-anchor="middle" x="449.84" y="-21.88" font-family="Times New Roman,serif" font-size="14.00">Samples weight: 0.80</text>
</g>
<!-- BB3&#45;&gt;BB4 -->
<g id="edge4" class="edge">
<title>BB3&#45;&gt;BB4</title>
<path fill="none" stroke="black" d="M451.64,-96.44C451.02,-104.83 450.2,-113.64 449.24,-122.26"/>
<polygon fill="black" stroke="black" points="445.76,-121.91 448.05,-132.26 452.71,-122.74 445.76,-121.91"/>
</g>
<!-- BB4&#45;&gt;BB3 -->
<g id="edge5" class="edge">
<title>BB4&#45;&gt;BB3</title>
<path fill="none" stroke="black" d="M435.05,-131.89C435.67,-123.53 436.48,-114.75 437.44,-106.15"/>
<polygon fill="black" stroke="black" points="440.92,-106.53 438.62,-96.19 433.97,-105.71 440.92,-106.53"/>
</g>
<!-- BB5 -->
<g id="node6" class="node">
<title>BB5</title>
<ellipse fill="none" stroke="black" cx="203.84" cy="-48.08" rx="113.69" ry="48.17"/>
<text text-anchor="middle" x="203.84" y="-66.88" font-family="Times New Roman,serif" font-size="14.00">[41..49)</text>
<text text-anchor="middle" x="203.84" y="-51.88" font-family="Times New Roman,serif" font-size="14.00">Count: 119</text>
<text text-anchor="middle" x="203.84" y="-36.88" font-family="Times New Roman,serif" font-size="14.00">Normalized count: Infinity</text>
<text text-anchor="middle" x="203.84" y="-21.88" font-family="Times New Roman,serif" font-size="14.00">Samples weight: 0.06</text>
</g>
<!-- BB4&#45;&gt;BB5 -->
<g id="edge6" class="edge">
<title>BB4&#45;&gt;BB5</title>
<path fill="none" stroke="black" d="M369.14,-141.43C341.38,-125.92 309.1,-107.88 280.48,-91.89"/>
<polygon fill="black" stroke="black" points="282.16,-88.82 271.72,-87 278.74,-94.93 282.16,-88.82"/>
</g>
<!-- BB5&#45;&gt;BB6 -->
<g id="edge7" class="edge">
<title>BB5&#45;&gt;BB6</title>
<path fill="none" stroke="black" d="M211.75,-96.44C218.87,-140 229.34,-206.41 236.84,-264.33 242.11,-305.01 246.97,-351.02 250.45,-386.24"/>
<polygon fill="black" stroke="black" points="246.98,-386.73 251.44,-396.34 253.95,-386.04 246.98,-386.73"/>
</g>
<!-- BB6&#45;&gt;BB2 -->
<g id="edge8" class="edge">
<title>BB6&#45;&gt;BB2</title>
<path fill="none" stroke="black" d="M309.46,-402.04C326.13,-389.12 344.65,-374.78 361.84,-361.46"/>
<polygon fill="black" stroke="black" points="364.4,-363.9 370.16,-355.01 360.11,-358.37 364.4,-363.9"/>
</g>
<!-- BB7 -->
<g id="node8" class="node">
<title>BB7</title>
<ellipse fill="none" stroke="black" cx="113.84" cy="-312.42" rx="113.69" ry="48.17"/>
<text text-anchor="middle" x="113.84" y="-331.22" font-family="Times New Roman,serif" font-size="14.00">[4d..51)</text>
<text text-anchor="middle" x="113.84" y="-316.22" font-family="Times New Roman,serif" font-size="14.00">Count: 1</text>
<text text-anchor="middle" x="113.84" y="-301.22" font-family="Times New Roman,serif" font-size="14.00">Normalized count: Infinity</text>
<text text-anchor="middle" x="113.84" y="-286.22" font-family="Times New Roman,serif" font-size="14.00">Samples weight: 0.00</text>
</g>
<!-- BB6&#45;&gt;BB7 -->
<g id="edge9" class="edge">
<title>BB6&#45;&gt;BB7</title>
<path fill="none" stroke="black" d="M208.95,-400.6C195.87,-388.6 181.54,-375.47 168.07,-363.12"/>
<polygon fill="black" stroke="black" points="170.42,-360.53 160.68,-356.35 165.69,-365.69 170.42,-360.53"/>
</g>
<!-- BB7&#45;&gt;BB8 -->
<g id="edge10" class="edge">
<title>BB7&#45;&gt;BB8</title>
<path fill="none" stroke="black" d="M105.71,-360.39C97.06,-424.53 90.29,-541.08 136.84,-624.83 145.4,-640.22 158.14,-653.52 172.04,-664.69"/>
<polygon fill="black" stroke="black" points="170.26,-667.73 180.33,-671.01 174.51,-662.17 170.26,-667.73"/>
</g>
<!-- BB8&#45;&gt;BB1 -->
<g id="edge11" class="edge">
<title>BB8&#45;&gt;BB1</title>
<path fill="none" stroke="black" d="M250.84,-660.55C250.84,-652.29 250.84,-643.6 250.84,-635.1"/>
<polygon fill="black" stroke="black" points="254.34,-634.86 250.84,-624.86 247.34,-634.86 254.34,-634.86"/>
</g>
<!-- BB9 -->
<g id="node10" class="node">
<title>BB9</title>
<ellipse fill="none" stroke="black" cx="477.84" cy="-576.75" rx="104.8" ry="48.17"/>
<text text-anchor="middle" x="477.84" y="-595.55" font-family="Times New Roman,serif" font-size="14.00">[56..57)</text>
<text text-anchor="middle" x="477.84" y="-580.55" font-family="Times New Roman,serif" font-size="14.00">Count: 0</text>
<text text-anchor="middle" x="477.84" y="-565.55" font-family="Times New Roman,serif" font-size="14.00">Normalized count: NaN</text>
<text text-anchor="middle" x="477.84" y="-550.55" font-family="Times New Roman,serif" font-size="14.00">Samples weight: 0.00</text>
</g>
<!-- BB8&#45;&gt;BB9 -->
<g id="edge12" class="edge">
<title>BB8&#45;&gt;BB9</title>
<path fill="none" stroke="black" d="M317.42,-669.74C344.69,-654.1 376.34,-635.95 404.29,-619.93"/>
<polygon fill="black" stroke="black" points="406.29,-622.81 413.23,-614.8 402.81,-616.74 406.29,-622.81"/>
</g>
</g>
</svg>
