<?xml version="1.0" encoding="UTF-8" standalone="no"?>
<!DOCTYPE svg PUBLIC "-//W3C//DTD SVG 1.1//EN"
 "http://www.w3.org/Graphics/SVG/1.1/DTD/svg11.dtd">
<!-- Generated by graphviz version 2.47.0 (20210316.0004)
 -->
<!-- Title: G Pages: 1 -->
<svg width="263pt" height="600pt"
 viewBox="0.00 0.00 263.44 600.18" xmlns="http://www.w3.org/2000/svg" xmlns:xlink="http://www.w3.org/1999/xlink">
<g id="graph0" class="graph" transform="scale(1 1) rotate(0) translate(4 596.18)">
<title>G</title>
<polygon fill="white" stroke="transparent" points="-4,4 -4,-596.18 259.44,-596.18 259.44,4 -4,4"/>
<!-- BB0 -->
<g id="node1" class="node">
<title>BB0</title>
<ellipse fill="none" stroke="black" cx="111.01" cy="-565.31" rx="37.45" ry="26.74"/>
<text text-anchor="middle" x="111.01" y="-569.11" font-family="Times New Roman,serif" font-size="14.00">[0..2e)</text>
<text text-anchor="middle" x="111.01" y="-554.11" font-family="Times New Roman,serif" font-size="14.00">0.00</text>
</g>
<!-- BB8 -->
<g id="node9" class="node">
<title>BB8</title>
<ellipse fill="none" stroke="black" cx="111.01" cy="-475.57" rx="41.94" ry="26.74"/>
<text text-anchor="middle" x="111.01" y="-479.37" font-family="Times New Roman,serif" font-size="14.00">[95..9a)</text>
<text text-anchor="middle" x="111.01" y="-464.37" font-family="Times New Roman,serif" font-size="14.00">0.00</text>
</g>
<!-- BB0&#45;&gt;BB8 -->
<g id="edge1" class="edge">
<title>BB0&#45;&gt;BB8</title>
<path fill="none" stroke="black" d="M111.01,-537.99C111.01,-530.02 111.01,-521.13 111.01,-512.64"/>
<polygon fill="black" stroke="black" points="114.51,-512.57 111.01,-502.57 107.51,-512.57 114.51,-512.57"/>
</g>
<!-- BB1 -->
<g id="node2" class="node">
<title>BB1</title>
<ellipse fill="none" stroke="black" cx="111.01" cy="-385.83" rx="41.94" ry="26.74"/>
<text text-anchor="middle" x="111.01" y="-389.63" font-family="Times New Roman,serif" font-size="14.00">[2e..33)</text>
<text text-anchor="middle" x="111.01" y="-374.63" font-family="Times New Roman,serif" font-size="14.00">0.00</text>
</g>
<!-- BB6 -->
<g id="node7" class="node">
<title>BB6</title>
<ellipse fill="none" stroke="black" cx="110.01" cy="-296.09" rx="40.11" ry="26.74"/>
<text text-anchor="middle" x="110.01" y="-299.89" font-family="Times New Roman,serif" font-size="14.00">[8a..8f)</text>
<text text-anchor="middle" x="110.01" y="-284.89" font-family="Times New Roman,serif" font-size="14.00">0.01</text>
</g>
<!-- BB1&#45;&gt;BB6 -->
<g id="edge2" class="edge">
<title>BB1&#45;&gt;BB6</title>
<path fill="none" stroke="black" d="M110.71,-358.51C110.62,-350.54 110.52,-341.65 110.42,-333.16"/>
<polygon fill="black" stroke="black" points="113.92,-333.05 110.31,-323.09 106.92,-333.13 113.92,-333.05"/>
</g>
<!-- BB2 -->
<g id="node3" class="node">
<title>BB2</title>
<ellipse fill="none" stroke="black" cx="188.01" cy="-206.35" rx="41.94" ry="26.74"/>
<text text-anchor="middle" x="188.01" y="-210.15" font-family="Times New Roman,serif" font-size="14.00">[33..4e)</text>
<text text-anchor="middle" x="188.01" y="-195.15" font-family="Times New Roman,serif" font-size="14.00">0.00</text>
</g>
<!-- BB4 -->
<g id="node5" class="node">
<title>BB4</title>
<ellipse fill="none" stroke="black" cx="192.01" cy="-116.61" rx="41.94" ry="26.74"/>
<text text-anchor="middle" x="192.01" y="-120.41" font-family="Times New Roman,serif" font-size="14.00">[7e..84)</text>
<text text-anchor="middle" x="192.01" y="-105.41" font-family="Times New Roman,serif" font-size="14.00">0.49</text>
</g>
<!-- BB2&#45;&gt;BB4 -->
<g id="edge3" class="edge">
<title>BB2&#45;&gt;BB4</title>
<path fill="none" stroke="black" d="M189.21,-179.03C189.58,-171.06 189.98,-162.17 190.37,-153.68"/>
<polygon fill="black" stroke="black" points="193.87,-153.76 190.83,-143.61 186.87,-153.44 193.87,-153.76"/>
</g>
<!-- BB3 -->
<g id="node4" class="node">
<title>BB3</title>
<ellipse fill="none" stroke="black" cx="196.01" cy="-26.87" rx="41.94" ry="26.74"/>
<text text-anchor="middle" x="196.01" y="-30.67" font-family="Times New Roman,serif" font-size="14.00">[4e..7e)</text>
<text text-anchor="middle" x="196.01" y="-15.67" font-family="Times New Roman,serif" font-size="14.00">0.49</text>
</g>
<!-- BB3&#45;&gt;BB4 -->
<g id="edge4" class="edge">
<title>BB3&#45;&gt;BB4</title>
<path fill="none" stroke="black" d="M201.05,-53.84C201.19,-61.9 200.92,-70.93 200.31,-79.55"/>
<polygon fill="black" stroke="black" points="196.8,-79.49 199.41,-89.76 203.77,-80.11 196.8,-79.49"/>
</g>
<!-- BB4&#45;&gt;BB3 -->
<g id="edge5" class="edge">
<title>BB4&#45;&gt;BB3</title>
<path fill="none" stroke="black" d="M186.97,-89.76C186.83,-81.55 187.11,-72.32 187.74,-63.54"/>
<polygon fill="black" stroke="black" points="191.23,-63.81 188.64,-53.54 184.26,-63.18 191.23,-63.81"/>
</g>
<!-- BB5 -->
<g id="node6" class="node">
<title>BB5</title>
<ellipse fill="none" stroke="black" cx="95.01" cy="-26.87" rx="41.94" ry="26.74"/>
<text text-anchor="middle" x="95.01" y="-30.67" font-family="Times New Roman,serif" font-size="14.00">[84..8a)</text>
<text text-anchor="middle" x="95.01" y="-15.67" font-family="Times New Roman,serif" font-size="14.00">0.00</text>
</g>
<!-- BB4&#45;&gt;BB5 -->
<g id="edge6" class="edge">
<title>BB4&#45;&gt;BB5</title>
<path fill="none" stroke="black" d="M168.53,-94.37C155.88,-82.92 140.09,-68.65 126.4,-56.26"/>
<polygon fill="black" stroke="black" points="128.38,-53.33 118.61,-49.22 123.68,-58.52 128.38,-53.33"/>
</g>
<!-- BB5&#45;&gt;BB6 -->
<g id="edge7" class="edge">
<title>BB5&#45;&gt;BB6</title>
<path fill="none" stroke="black" d="M96.48,-54.08C99.18,-102.06 104.9,-204.06 107.97,-258.71"/>
<polygon fill="black" stroke="black" points="104.49,-259.19 108.55,-268.98 111.48,-258.8 104.49,-259.19"/>
</g>
<!-- BB6&#45;&gt;BB2 -->
<g id="edge8" class="edge">
<title>BB6&#45;&gt;BB2</title>
<path fill="none" stroke="black" d="M130.1,-272.5C139.49,-261.93 150.81,-249.2 160.94,-237.81"/>
<polygon fill="black" stroke="black" points="163.69,-239.97 167.72,-230.17 158.46,-235.32 163.69,-239.97"/>
</g>
<!-- BB7 -->
<g id="node8" class="node">
<title>BB7</title>
<ellipse fill="none" stroke="black" cx="41.01" cy="-206.35" rx="41.02" ry="26.74"/>
<text text-anchor="middle" x="41.01" y="-210.15" font-family="Times New Roman,serif" font-size="14.00">[8f..95)</text>
<text text-anchor="middle" x="41.01" y="-195.15" font-family="Times New Roman,serif" font-size="14.00">0.00</text>
</g>
<!-- BB6&#45;&gt;BB7 -->
<g id="edge9" class="edge">
<title>BB6&#45;&gt;BB7</title>
<path fill="none" stroke="black" d="M91.88,-272.04C83.87,-261.84 74.31,-249.69 65.66,-238.69"/>
<polygon fill="black" stroke="black" points="68.19,-236.25 59.26,-230.55 62.69,-240.58 68.19,-236.25"/>
</g>
<!-- BB7&#45;&gt;BB8 -->
<g id="edge10" class="edge">
<title>BB7&#45;&gt;BB8</title>
<path fill="none" stroke="black" d="M38.66,-233.47C36.06,-273.65 35.12,-352.29 60.01,-412.7 64.86,-424.47 72.75,-435.72 80.89,-445.32"/>
<polygon fill="black" stroke="black" points="78.45,-447.85 87.72,-452.98 83.67,-443.19 78.45,-447.85"/>
</g>
<!-- BB8&#45;&gt;BB1 -->
<g id="edge11" class="edge">
<title>BB8&#45;&gt;BB1</title>
<path fill="none" stroke="black" d="M111.01,-448.25C111.01,-440.28 111.01,-431.39 111.01,-422.9"/>
<polygon fill="black" stroke="black" points="114.51,-422.83 111.01,-412.83 107.51,-422.83 114.51,-422.83"/>
</g>
<!-- BB9 -->
<g id="node10" class="node">
<title>BB9</title>
<ellipse fill="none" stroke="black" cx="213.01" cy="-385.83" rx="42.35" ry="26.74"/>
<text text-anchor="middle" x="213.01" y="-389.63" font-family="Times New Roman,serif" font-size="14.00">[9a..9b)</text>
<text text-anchor="middle" x="213.01" y="-374.63" font-family="Times New Roman,serif" font-size="14.00">0.00</text>
</g>
<!-- BB8&#45;&gt;BB9 -->
<g id="edge12" class="edge">
<title>BB8&#45;&gt;BB9</title>
<path fill="none" stroke="black" d="M135.44,-453.55C148.97,-441.92 165.96,-427.31 180.58,-414.73"/>
<polygon fill="black" stroke="black" points="183.13,-417.15 188.43,-407.98 178.56,-411.85 183.13,-417.15"/>
</g>
</g>
</svg>
