<?xml version="1.0" encoding="UTF-8" standalone="no"?>
<!DOCTYPE svg PUBLIC "-//W3C//DTD SVG 1.1//EN"
 "http://www.w3.org/Graphics/SVG/1.1/DTD/svg11.dtd">
<!-- Generated by graphviz version 2.47.0 (20210316.0004)
 -->
<!-- Title: G Pages: 1 -->
<svg width="579pt" height="501pt"
 viewBox="0.00 0.00 579.48 500.67" xmlns="http://www.w3.org/2000/svg" xmlns:xlink="http://www.w3.org/1999/xlink">
<g id="graph0" class="graph" transform="scale(1 1) rotate(0) translate(4 496.67)">
<title>G</title>
<polygon fill="white" stroke="transparent" points="-4,4 -4,-496.67 575.48,-496.67 575.48,4 -4,4"/>
<!-- BB0 -->
<g id="node1" class="node">
<title>BB0</title>
<ellipse fill="none" stroke="black" cx="337.24" cy="-444.58" rx="103.48" ry="48.17"/>
<text text-anchor="middle" x="337.24" y="-463.38" font-family="Times New Roman,serif" font-size="14.00">[0..e)</text>
<text text-anchor="middle" x="337.24" y="-448.38" font-family="Times New Roman,serif" font-size="14.00">Count: 2</text>
<text text-anchor="middle" x="337.24" y="-433.38" font-family="Times New Roman,serif" font-size="14.00">Normalized count: 1.00</text>
<text text-anchor="middle" x="337.24" y="-418.38" font-family="Times New Roman,serif" font-size="14.00">Samples weight: 0.00</text>
</g>
<!-- BB4 -->
<g id="node5" class="node">
<title>BB4</title>
<ellipse fill="none" stroke="black" cx="337.24" cy="-312.42" rx="113.27" ry="48.17"/>
<text text-anchor="middle" x="337.24" y="-331.22" font-family="Times New Roman,serif" font-size="14.00">[39..3d)</text>
<text text-anchor="middle" x="337.24" y="-316.22" font-family="Times New Roman,serif" font-size="14.00">Count: 224</text>
<text text-anchor="middle" x="337.24" y="-301.22" font-family="Times New Roman,serif" font-size="14.00">Normalized count: 112.00</text>
<text text-anchor="middle" x="337.24" y="-286.22" font-family="Times New Roman,serif" font-size="14.00">Samples weight: 0.33</text>
</g>
<!-- BB0&#45;&gt;BB4 -->
<g id="edge1" class="edge">
<title>BB0&#45;&gt;BB4</title>
<path fill="none" stroke="black" d="M337.24,-396.22C337.24,-387.95 337.24,-379.27 337.24,-370.77"/>
<polygon fill="black" stroke="black" points="340.74,-370.52 337.24,-360.52 333.74,-370.52 340.74,-370.52"/>
</g>
<!-- BB1 -->
<g id="node2" class="node">
<title>BB1</title>
<ellipse fill="none" stroke="black" cx="196.24" cy="-180.25" rx="113.27" ry="48.17"/>
<text text-anchor="middle" x="196.24" y="-199.05" font-family="Times New Roman,serif" font-size="14.00">[e..31)</text>
<text text-anchor="middle" x="196.24" y="-184.05" font-family="Times New Roman,serif" font-size="14.00">Count: 222</text>
<text text-anchor="middle" x="196.24" y="-169.05" font-family="Times New Roman,serif" font-size="14.00">Normalized count: 111.00</text>
<text text-anchor="middle" x="196.24" y="-154.05" font-family="Times New Roman,serif" font-size="14.00">Samples weight: 0.32</text>
</g>
<!-- BB2 -->
<g id="node3" class="node">
<title>BB2</title>
<ellipse fill="none" stroke="black" cx="103.24" cy="-48.08" rx="103.48" ry="48.17"/>
<text text-anchor="middle" x="103.24" y="-66.88" font-family="Times New Roman,serif" font-size="14.00">[31..35)</text>
<text text-anchor="middle" x="103.24" y="-51.88" font-family="Times New Roman,serif" font-size="14.00">Count: 16</text>
<text text-anchor="middle" x="103.24" y="-36.88" font-family="Times New Roman,serif" font-size="14.00">Normalized count: 8.00</text>
<text text-anchor="middle" x="103.24" y="-21.88" font-family="Times New Roman,serif" font-size="14.00">Samples weight: 0.02</text>
</g>
<!-- BB1&#45;&gt;BB2 -->
<g id="edge3" class="edge">
<title>BB1&#45;&gt;BB2</title>
<path fill="none" stroke="black" d="M163.97,-134.09C156.69,-123.89 148.88,-112.97 141.38,-102.47"/>
<polygon fill="black" stroke="black" points="144.11,-100.27 135.45,-94.16 138.41,-104.34 144.11,-100.27"/>
</g>
<!-- BB3 -->
<g id="node4" class="node">
<title>BB3</title>
<ellipse fill="none" stroke="black" cx="337.24" cy="-48.08" rx="113.27" ry="48.17"/>
<text text-anchor="middle" x="337.24" y="-66.88" font-family="Times New Roman,serif" font-size="14.00">[35..39)</text>
<text text-anchor="middle" x="337.24" y="-51.88" font-family="Times New Roman,serif" font-size="14.00">Count: 222</text>
<text text-anchor="middle" x="337.24" y="-36.88" font-family="Times New Roman,serif" font-size="14.00">Normalized count: 111.00</text>
<text text-anchor="middle" x="337.24" y="-21.88" font-family="Times New Roman,serif" font-size="14.00">Samples weight: 0.32</text>
</g>
<!-- BB1&#45;&gt;BB3 -->
<g id="edge2" class="edge">
<title>BB1&#45;&gt;BB3</title>
<path fill="none" stroke="black" d="M242.8,-136.27C255.67,-124.38 269.75,-111.38 283.02,-99.13"/>
<polygon fill="black" stroke="black" points="285.75,-101.38 290.73,-92.02 281.01,-96.23 285.75,-101.38"/>
</g>
<!-- BB2&#45;&gt;BB3 -->
<g id="edge4" class="edge">
<title>BB2&#45;&gt;BB3</title>
<path fill="none" stroke="black" d="M206.53,-48.08C208.97,-48.08 211.41,-48.08 213.85,-48.08"/>
<polygon fill="black" stroke="black" points="213.89,-51.58 223.89,-48.08 213.89,-44.58 213.89,-51.58"/>
</g>
<!-- BB3&#45;&gt;BB4 -->
<g id="edge5" class="edge">
<title>BB3&#45;&gt;BB4</title>
<path fill="none" stroke="black" d="M337.24,-96.35C337.24,-140.62 337.24,-206.87 337.24,-254.13"/>
<polygon fill="black" stroke="black" points="333.74,-254.21 337.24,-264.21 340.74,-254.21 333.74,-254.21"/>
</g>
<!-- BB4&#45;&gt;BB1 -->
<g id="edge6" class="edge">
<title>BB4&#45;&gt;BB1</title>
<path fill="none" stroke="black" d="M290.68,-268.43C277.8,-256.55 263.72,-243.55 250.45,-231.3"/>
<polygon fill="black" stroke="black" points="252.47,-228.4 242.75,-224.19 247.72,-233.54 252.47,-228.4"/>
</g>
<!-- BB5 -->
<g id="node6" class="node">
<title>BB5</title>
<ellipse fill="none" stroke="black" cx="468.24" cy="-180.25" rx="103.48" ry="48.17"/>
<text text-anchor="middle" x="468.24" y="-199.05" font-family="Times New Roman,serif" font-size="14.00">[3d..4d)</text>
<text text-anchor="middle" x="468.24" y="-184.05" font-family="Times New Roman,serif" font-size="14.00">Count: 2</text>
<text text-anchor="middle" x="468.24" y="-169.05" font-family="Times New Roman,serif" font-size="14.00">Normalized count: 1.00</text>
<text text-anchor="middle" x="468.24" y="-154.05" font-family="Times New Roman,serif" font-size="14.00">Samples weight: 0.00</text>
</g>
<!-- BB4&#45;&gt;BB5 -->
<g id="edge7" class="edge">
<title>BB4&#45;&gt;BB5</title>
<path fill="none" stroke="black" d="M381.22,-267.71C392.92,-256.09 405.64,-243.45 417.66,-231.51"/>
<polygon fill="black" stroke="black" points="420.41,-233.71 425.04,-224.18 415.47,-228.74 420.41,-233.71"/>
</g>
</g>
</svg>
