<?xml version="1.0" encoding="UTF-8" standalone="no"?>
<!DOCTYPE svg PUBLIC "-//W3C//DTD SVG 1.1//EN"
 "http://www.w3.org/Graphics/SVG/1.1/DTD/svg11.dtd">
<!-- Generated by graphviz version 2.47.0 (20210316.0004)
 -->
<!-- Title: G Pages: 1 -->
<svg width="553pt" height="633pt"
 viewBox="0.00 0.00 552.69 632.83" xmlns="http://www.w3.org/2000/svg" xmlns:xlink="http://www.w3.org/1999/xlink">
<g id="graph0" class="graph" transform="scale(1 1) rotate(0) translate(4 628.83)">
<title>G</title>
<polygon fill="white" stroke="transparent" points="-4,4 -4,-628.83 548.69,-628.83 548.69,4 -4,4"/>
<!-- BB0 -->
<g id="node1" class="node">
<title>BB0</title>
<ellipse fill="none" stroke="black" cx="184.84" cy="-576.75" rx="104.8" ry="48.17"/>
<text text-anchor="middle" x="184.84" y="-595.55" font-family="Times New Roman,serif" font-size="14.00">[0..10)</text>
<text text-anchor="middle" x="184.84" y="-580.55" font-family="Times New Roman,serif" font-size="14.00">Count: 0</text>
<text text-anchor="middle" x="184.84" y="-565.55" font-family="Times New Roman,serif" font-size="14.00">Normalized count: NaN</text>
<text text-anchor="middle" x="184.84" y="-550.55" font-family="Times New Roman,serif" font-size="14.00">Samples weight: 0.00</text>
</g>
<!-- BB6 -->
<g id="node7" class="node">
<title>BB6</title>
<ellipse fill="none" stroke="black" cx="184.84" cy="-444.58" rx="113.69" ry="48.17"/>
<text text-anchor="middle" x="184.84" y="-463.38" font-family="Times New Roman,serif" font-size="14.00">[6e..72)</text>
<text text-anchor="middle" x="184.84" y="-448.38" font-family="Times New Roman,serif" font-size="14.00">Count: 6</text>
<text text-anchor="middle" x="184.84" y="-433.38" font-family="Times New Roman,serif" font-size="14.00">Normalized count: Infinity</text>
<text text-anchor="middle" x="184.84" y="-418.38" font-family="Times New Roman,serif" font-size="14.00">Samples weight: 0.02</text>
</g>
<!-- BB0&#45;&gt;BB6 -->
<g id="edge1" class="edge">
<title>BB0&#45;&gt;BB6</title>
<path fill="none" stroke="black" d="M184.84,-528.39C184.84,-520.12 184.84,-511.44 184.84,-502.93"/>
<polygon fill="black" stroke="black" points="188.34,-502.69 184.84,-492.69 181.34,-502.69 188.34,-502.69"/>
</g>
<!-- BB1 -->
<g id="node2" class="node">
<title>BB1</title>
<ellipse fill="none" stroke="black" cx="184.84" cy="-312.42" rx="113.69" ry="48.17"/>
<text text-anchor="middle" x="184.84" y="-331.22" font-family="Times New Roman,serif" font-size="14.00">[10..23)</text>
<text text-anchor="middle" x="184.84" y="-316.22" font-family="Times New Roman,serif" font-size="14.00">Count: 60</text>
<text text-anchor="middle" x="184.84" y="-301.22" font-family="Times New Roman,serif" font-size="14.00">Normalized count: Infinity</text>
<text text-anchor="middle" x="184.84" y="-286.22" font-family="Times New Roman,serif" font-size="14.00">Samples weight: 0.21</text>
</g>
<!-- BB2 -->
<g id="node3" class="node">
<title>BB2</title>
<ellipse fill="none" stroke="black" cx="184.84" cy="-180.25" rx="113.69" ry="48.17"/>
<text text-anchor="middle" x="184.84" y="-199.05" font-family="Times New Roman,serif" font-size="14.00">[23..55)</text>
<text text-anchor="middle" x="184.84" y="-184.05" font-family="Times New Roman,serif" font-size="14.00">Count: 144</text>
<text text-anchor="middle" x="184.84" y="-169.05" font-family="Times New Roman,serif" font-size="14.00">Normalized count: Infinity</text>
<text text-anchor="middle" x="184.84" y="-154.05" font-family="Times New Roman,serif" font-size="14.00">Samples weight: 0.51</text>
</g>
<!-- BB1&#45;&gt;BB2 -->
<g id="edge3" class="edge">
<title>BB1&#45;&gt;BB2</title>
<path fill="none" stroke="black" d="M184.84,-264.05C184.84,-255.79 184.84,-247.1 184.84,-238.6"/>
<polygon fill="black" stroke="black" points="188.34,-238.36 184.84,-228.36 181.34,-238.36 188.34,-238.36"/>
</g>
<!-- BB4 -->
<g id="node5" class="node">
<title>BB4</title>
<ellipse fill="none" stroke="black" cx="430.84" cy="-180.25" rx="113.69" ry="48.17"/>
<text text-anchor="middle" x="430.84" y="-199.05" font-family="Times New Roman,serif" font-size="14.00">[60..65)</text>
<text text-anchor="middle" x="430.84" y="-184.05" font-family="Times New Roman,serif" font-size="14.00">Count: 12</text>
<text text-anchor="middle" x="430.84" y="-169.05" font-family="Times New Roman,serif" font-size="14.00">Normalized count: Infinity</text>
<text text-anchor="middle" x="430.84" y="-154.05" font-family="Times New Roman,serif" font-size="14.00">Samples weight: 0.04</text>
</g>
<!-- BB1&#45;&gt;BB4 -->
<g id="edge2" class="edge">
<title>BB1&#45;&gt;BB4</title>
<path fill="none" stroke="black" d="M255.01,-274.29C285.12,-258.35 320.46,-239.66 351.52,-223.22"/>
<polygon fill="black" stroke="black" points="353.38,-226.2 360.59,-218.43 350.11,-220.01 353.38,-226.2"/>
</g>
<!-- BB2&#45;&gt;BB4 -->
<g id="edge4" class="edge">
<title>BB2&#45;&gt;BB4</title>
<path fill="none" stroke="black" d="M298.72,-180.25C301.35,-180.25 303.98,-180.25 306.62,-180.25"/>
<polygon fill="black" stroke="black" points="306.78,-183.75 316.78,-180.25 306.78,-176.75 306.78,-183.75"/>
</g>
<!-- BB3 -->
<g id="node4" class="node">
<title>BB3</title>
<ellipse fill="none" stroke="black" cx="430.84" cy="-48.08" rx="113.69" ry="48.17"/>
<text text-anchor="middle" x="430.84" y="-66.88" font-family="Times New Roman,serif" font-size="14.00">[55..60)</text>
<text text-anchor="middle" x="430.84" y="-51.88" font-family="Times New Roman,serif" font-size="14.00">Count: 26</text>
<text text-anchor="middle" x="430.84" y="-36.88" font-family="Times New Roman,serif" font-size="14.00">Normalized count: Infinity</text>
<text text-anchor="middle" x="430.84" y="-21.88" font-family="Times New Roman,serif" font-size="14.00">Samples weight: 0.09</text>
</g>
<!-- BB3&#45;&gt;BB4 -->
<g id="edge5" class="edge">
<title>BB3&#45;&gt;BB4</title>
<path fill="none" stroke="black" d="M437.36,-96.19C437.58,-104.45 437.65,-113.13 437.55,-121.64"/>
<polygon fill="black" stroke="black" points="434.05,-121.83 437.37,-131.89 441.05,-121.95 434.05,-121.83"/>
</g>
<!-- BB4&#45;&gt;BB3 -->
<g id="edge6" class="edge">
<title>BB4&#45;&gt;BB3</title>
<path fill="none" stroke="black" d="M424.32,-131.89C424.1,-123.62 424.04,-114.94 424.14,-106.43"/>
<polygon fill="black" stroke="black" points="427.64,-106.26 424.33,-96.19 420.64,-106.12 427.64,-106.26"/>
</g>
<!-- BB5 -->
<g id="node6" class="node">
<title>BB5</title>
<ellipse fill="none" stroke="black" cx="113.84" cy="-48.08" rx="113.69" ry="48.17"/>
<text text-anchor="middle" x="113.84" y="-66.88" font-family="Times New Roman,serif" font-size="14.00">[65..6e)</text>
<text text-anchor="middle" x="113.84" y="-51.88" font-family="Times New Roman,serif" font-size="14.00">Count: 32</text>
<text text-anchor="middle" x="113.84" y="-36.88" font-family="Times New Roman,serif" font-size="14.00">Normalized count: Infinity</text>
<text text-anchor="middle" x="113.84" y="-21.88" font-family="Times New Roman,serif" font-size="14.00">Samples weight: 0.11</text>
</g>
<!-- BB4&#45;&gt;BB5 -->
<g id="edge7" class="edge">
<title>BB4&#45;&gt;BB5</title>
<path fill="none" stroke="black" d="M350.03,-146.07C305.41,-127.74 249.88,-104.94 203.88,-86.05"/>
<polygon fill="black" stroke="black" points="205.09,-82.77 194.51,-82.21 202.43,-89.24 205.09,-82.77"/>
</g>
<!-- BB5&#45;&gt;BB6 -->
<g id="edge8" class="edge">
<title>BB5&#45;&gt;BB6</title>
<path fill="none" stroke="black" d="M79.23,-94.34C72.09,-106.06 65.6,-119.08 61.84,-132.17 33.84,-229.71 14.23,-270.88 61.84,-360.5 70.8,-377.36 84.88,-391.42 100.36,-402.89"/>
<polygon fill="black" stroke="black" points="98.36,-405.77 108.56,-408.65 102.39,-400.04 98.36,-405.77"/>
</g>
<!-- BB6&#45;&gt;BB1 -->
<g id="edge9" class="edge">
<title>BB6&#45;&gt;BB1</title>
<path fill="none" stroke="black" d="M184.84,-396.22C184.84,-387.95 184.84,-379.27 184.84,-370.77"/>
<polygon fill="black" stroke="black" points="188.34,-370.52 184.84,-360.52 181.34,-370.52 188.34,-370.52"/>
</g>
<!-- BB7 -->
<g id="node8" class="node">
<title>BB7</title>
<ellipse fill="none" stroke="black" cx="420.84" cy="-312.42" rx="104.8" ry="48.17"/>
<text text-anchor="middle" x="420.84" y="-331.22" font-family="Times New Roman,serif" font-size="14.00">[72..73)</text>
<text text-anchor="middle" x="420.84" y="-316.22" font-family="Times New Roman,serif" font-size="14.00">Count: 0</text>
<text text-anchor="middle" x="420.84" y="-301.22" font-family="Times New Roman,serif" font-size="14.00">Normalized count: NaN</text>
<text text-anchor="middle" x="420.84" y="-286.22" font-family="Times New Roman,serif" font-size="14.00">Samples weight: 0.00</text>
</g>
<!-- BB6&#45;&gt;BB7 -->
<g id="edge10" class="edge">
<title>BB6&#45;&gt;BB7</title>
<path fill="none" stroke="black" d="M253.11,-405.93C282.1,-389.94 315.99,-371.25 345.7,-354.86"/>
<polygon fill="black" stroke="black" points="347.7,-357.75 354.77,-349.86 344.32,-351.63 347.7,-357.75"/>
</g>
</g>
</svg>
