<?xml version="1.0" encoding="UTF-8" standalone="no"?>
<!DOCTYPE svg PUBLIC "-//W3C//DTD SVG 1.1//EN"
 "http://www.w3.org/Graphics/SVG/1.1/DTD/svg11.dtd">
<!-- Generated by graphviz version 2.47.0 (20210316.0004)
 -->
<!-- Title: G Pages: 1 -->
<svg width="670pt" height="897pt"
 viewBox="0.00 0.00 669.70 897.17" xmlns="http://www.w3.org/2000/svg" xmlns:xlink="http://www.w3.org/1999/xlink">
<g id="graph0" class="graph" transform="scale(1 1) rotate(0) translate(4 893.17)">
<title>G</title>
<polygon fill="white" stroke="transparent" points="-4,4 -4,-893.17 665.7,-893.17 665.7,4 -4,4"/>
<!-- BB0 -->
<g id="node1" class="node">
<title>BB0</title>
<ellipse fill="none" stroke="black" cx="282.28" cy="-841.08" rx="103.48" ry="48.17"/>
<text text-anchor="middle" x="282.28" y="-859.88" font-family="Times New Roman,serif" font-size="14.00">[0..a)</text>
<text text-anchor="middle" x="282.28" y="-844.88" font-family="Times New Roman,serif" font-size="14.00">Count: 1</text>
<text text-anchor="middle" x="282.28" y="-829.88" font-family="Times New Roman,serif" font-size="14.00">Normalized count: 1.00</text>
<text text-anchor="middle" x="282.28" y="-814.88" font-family="Times New Roman,serif" font-size="14.00">Samples weight: 0.00</text>
</g>
<!-- BB8 -->
<g id="node9" class="node">
<title>BB8</title>
<ellipse fill="none" stroke="black" cx="282.28" cy="-708.92" rx="127.06" ry="48.17"/>
<text text-anchor="middle" x="282.28" y="-727.72" font-family="Times New Roman,serif" font-size="14.00">[51..56)</text>
<text text-anchor="middle" x="282.28" y="-712.72" font-family="Times New Roman,serif" font-size="14.00">Count: 100001</text>
<text text-anchor="middle" x="282.28" y="-697.72" font-family="Times New Roman,serif" font-size="14.00">Normalized count: 100001.00</text>
<text text-anchor="middle" x="282.28" y="-682.72" font-family="Times New Roman,serif" font-size="14.00">Samples weight: 0.00</text>
</g>
<!-- BB0&#45;&gt;BB8 -->
<g id="edge1" class="edge">
<title>BB0&#45;&gt;BB8</title>
<path fill="none" stroke="black" d="M282.28,-792.72C282.28,-784.45 282.28,-775.77 282.28,-767.27"/>
<polygon fill="black" stroke="black" points="285.78,-767.02 282.28,-757.02 278.78,-767.02 285.78,-767.02"/>
</g>
<!-- BB1 -->
<g id="node2" class="node">
<title>BB1</title>
<ellipse fill="none" stroke="black" cx="282.28" cy="-576.75" rx="127.06" ry="48.17"/>
<text text-anchor="middle" x="282.28" y="-595.55" font-family="Times New Roman,serif" font-size="14.00">[a..e)</text>
<text text-anchor="middle" x="282.28" y="-580.55" font-family="Times New Roman,serif" font-size="14.00">Count: 100000</text>
<text text-anchor="middle" x="282.28" y="-565.55" font-family="Times New Roman,serif" font-size="14.00">Normalized count: 100000.00</text>
<text text-anchor="middle" x="282.28" y="-550.55" font-family="Times New Roman,serif" font-size="14.00">Samples weight: 0.00</text>
</g>
<!-- BB6 -->
<g id="node7" class="node">
<title>BB6</title>
<ellipse fill="none" stroke="black" cx="289.28" cy="-444.58" rx="141.34" ry="48.17"/>
<text text-anchor="middle" x="289.28" y="-463.38" font-family="Times New Roman,serif" font-size="14.00">[49..4d)</text>
<text text-anchor="middle" x="289.28" y="-448.38" font-family="Times New Roman,serif" font-size="14.00">Count: 100100000</text>
<text text-anchor="middle" x="289.28" y="-433.38" font-family="Times New Roman,serif" font-size="14.00">Normalized count: 100100000.00</text>
<text text-anchor="middle" x="289.28" y="-418.38" font-family="Times New Roman,serif" font-size="14.00">Samples weight: 0.07</text>
</g>
<!-- BB1&#45;&gt;BB6 -->
<g id="edge2" class="edge">
<title>BB1&#45;&gt;BB6</title>
<path fill="none" stroke="black" d="M284.83,-528.39C285.27,-520.12 285.74,-511.44 286.2,-502.93"/>
<polygon fill="black" stroke="black" points="289.7,-502.86 286.75,-492.69 282.71,-502.49 289.7,-502.86"/>
</g>
<!-- BB2 -->
<g id="node3" class="node">
<title>BB2</title>
<ellipse fill="none" stroke="black" cx="487.28" cy="-312.42" rx="141.34" ry="48.17"/>
<text text-anchor="middle" x="487.28" y="-331.22" font-family="Times New Roman,serif" font-size="14.00">[e..26)</text>
<text text-anchor="middle" x="487.28" y="-316.22" font-family="Times New Roman,serif" font-size="14.00">Count: 100000000</text>
<text text-anchor="middle" x="487.28" y="-301.22" font-family="Times New Roman,serif" font-size="14.00">Normalized count: 100000000.00</text>
<text text-anchor="middle" x="487.28" y="-286.22" font-family="Times New Roman,serif" font-size="14.00">Samples weight: 0.07</text>
</g>
<!-- BB4 -->
<g id="node5" class="node">
<title>BB4</title>
<ellipse fill="none" stroke="black" cx="503.28" cy="-180.25" rx="141.34" ry="48.17"/>
<text text-anchor="middle" x="503.28" y="-199.05" font-family="Times New Roman,serif" font-size="14.00">[3b..41)</text>
<text text-anchor="middle" x="503.28" y="-184.05" font-family="Times New Roman,serif" font-size="14.00">Count: 600000000</text>
<text text-anchor="middle" x="503.28" y="-169.05" font-family="Times New Roman,serif" font-size="14.00">Normalized count: 600000000.00</text>
<text text-anchor="middle" x="503.28" y="-154.05" font-family="Times New Roman,serif" font-size="14.00">Samples weight: 0.43</text>
</g>
<!-- BB2&#45;&gt;BB4 -->
<g id="edge3" class="edge">
<title>BB2&#45;&gt;BB4</title>
<path fill="none" stroke="black" d="M493.1,-264.05C494.13,-255.7 495.21,-246.91 496.26,-238.32"/>
<polygon fill="black" stroke="black" points="499.74,-238.71 497.49,-228.36 492.79,-237.86 499.74,-238.71"/>
</g>
<!-- BB3 -->
<g id="node4" class="node">
<title>BB3</title>
<ellipse fill="none" stroke="black" cx="520.28" cy="-48.08" rx="141.34" ry="48.17"/>
<text text-anchor="middle" x="520.28" y="-66.88" font-family="Times New Roman,serif" font-size="14.00">[26..3b)</text>
<text text-anchor="middle" x="520.28" y="-51.88" font-family="Times New Roman,serif" font-size="14.00">Count: 500000000</text>
<text text-anchor="middle" x="520.28" y="-36.88" font-family="Times New Roman,serif" font-size="14.00">Normalized count: 500000000.00</text>
<text text-anchor="middle" x="520.28" y="-21.88" font-family="Times New Roman,serif" font-size="14.00">Samples weight: 0.36</text>
</g>
<!-- BB3&#45;&gt;BB4 -->
<g id="edge4" class="edge">
<title>BB3&#45;&gt;BB4</title>
<path fill="none" stroke="black" d="M520.62,-96.44C519.74,-104.83 518.65,-113.64 517.43,-122.26"/>
<polygon fill="black" stroke="black" points="513.95,-121.85 515.93,-132.26 520.87,-122.88 513.95,-121.85"/>
</g>
<!-- BB4&#45;&gt;BB3 -->
<g id="edge5" class="edge">
<title>BB4&#45;&gt;BB3</title>
<path fill="none" stroke="black" d="M502.94,-131.89C503.81,-123.53 504.9,-114.75 506.12,-106.15"/>
<polygon fill="black" stroke="black" points="509.59,-106.6 507.61,-96.19 502.67,-105.56 509.59,-106.6"/>
</g>
<!-- BB5 -->
<g id="node6" class="node">
<title>BB5</title>
<ellipse fill="none" stroke="black" cx="219.28" cy="-48.08" rx="141.34" ry="48.17"/>
<text text-anchor="middle" x="219.28" y="-66.88" font-family="Times New Roman,serif" font-size="14.00">[41..49)</text>
<text text-anchor="middle" x="219.28" y="-51.88" font-family="Times New Roman,serif" font-size="14.00">Count: 100000000</text>
<text text-anchor="middle" x="219.28" y="-36.88" font-family="Times New Roman,serif" font-size="14.00">Normalized count: 100000000.00</text>
<text text-anchor="middle" x="219.28" y="-21.88" font-family="Times New Roman,serif" font-size="14.00">Samples weight: 0.07</text>
</g>
<!-- BB4&#45;&gt;BB5 -->
<g id="edge6" class="edge">
<title>BB4&#45;&gt;BB5</title>
<path fill="none" stroke="black" d="M420.37,-141.25C386.25,-125.61 346.6,-107.44 311.56,-91.38"/>
<polygon fill="black" stroke="black" points="312.84,-88.11 302.29,-87.13 309.92,-94.48 312.84,-88.11"/>
</g>
<!-- BB5&#45;&gt;BB6 -->
<g id="edge7" class="edge">
<title>BB5&#45;&gt;BB6</title>
<path fill="none" stroke="black" d="M229.77,-96.39C239.22,-139.9 253.14,-206.28 263.28,-264.33 270.37,-304.93 277.01,-350.94 281.81,-386.18"/>
<polygon fill="black" stroke="black" points="278.37,-386.85 283.18,-396.29 285.31,-385.91 278.37,-386.85"/>
</g>
<!-- BB6&#45;&gt;BB2 -->
<g id="edge8" class="edge">
<title>BB6&#45;&gt;BB2</title>
<path fill="none" stroke="black" d="M353.29,-401.5C372.96,-388.57 394.75,-374.24 414.94,-360.97"/>
<polygon fill="black" stroke="black" points="417.05,-363.77 423.49,-355.35 413.21,-357.92 417.05,-363.77"/>
</g>
<!-- BB7 -->
<g id="node8" class="node">
<title>BB7</title>
<ellipse fill="none" stroke="black" cx="127.28" cy="-312.42" rx="127.06" ry="48.17"/>
<text text-anchor="middle" x="127.28" y="-331.22" font-family="Times New Roman,serif" font-size="14.00">[4d..51)</text>
<text text-anchor="middle" x="127.28" y="-316.22" font-family="Times New Roman,serif" font-size="14.00">Count: 100000</text>
<text text-anchor="middle" x="127.28" y="-301.22" font-family="Times New Roman,serif" font-size="14.00">Normalized count: 100000.00</text>
<text text-anchor="middle" x="127.28" y="-286.22" font-family="Times New Roman,serif" font-size="14.00">Samples weight: 0.00</text>
</g>
<!-- BB6&#45;&gt;BB7 -->
<g id="edge9" class="edge">
<title>BB6&#45;&gt;BB7</title>
<path fill="none" stroke="black" d="M234.88,-399.88C219.93,-387.86 203.62,-374.76 188.33,-362.47"/>
<polygon fill="black" stroke="black" points="190.42,-359.66 180.43,-356.12 186.03,-365.11 190.42,-359.66"/>
</g>
<!-- BB7&#45;&gt;BB8 -->
<g id="edge10" class="edge">
<title>BB7&#45;&gt;BB8</title>
<path fill="none" stroke="black" d="M117.47,-360.61C106.69,-425.26 96.85,-542.68 146.28,-624.83 156.54,-641.89 171.78,-655.93 188.39,-667.29"/>
<polygon fill="black" stroke="black" points="186.88,-670.48 197.18,-672.99 190.69,-664.61 186.88,-670.48"/>
</g>
<!-- BB8&#45;&gt;BB1 -->
<g id="edge11" class="edge">
<title>BB8&#45;&gt;BB1</title>
<path fill="none" stroke="black" d="M282.28,-660.55C282.28,-652.29 282.28,-643.6 282.28,-635.1"/>
<polygon fill="black" stroke="black" points="285.78,-634.86 282.28,-624.86 278.78,-634.86 285.78,-634.86"/>
</g>
<!-- BB9 -->
<g id="node10" class="node">
<title>BB9</title>
<ellipse fill="none" stroke="black" cx="531.28" cy="-576.75" rx="103.48" ry="48.17"/>
<text text-anchor="middle" x="531.28" y="-595.55" font-family="Times New Roman,serif" font-size="14.00">[56..57)</text>
<text text-anchor="middle" x="531.28" y="-580.55" font-family="Times New Roman,serif" font-size="14.00">Count: 1</text>
<text text-anchor="middle" x="531.28" y="-565.55" font-family="Times New Roman,serif" font-size="14.00">Normalized count: 1.00</text>
<text text-anchor="middle" x="531.28" y="-550.55" font-family="Times New Roman,serif" font-size="14.00">Samples weight: 0.00</text>
</g>
<!-- BB8&#45;&gt;BB9 -->
<g id="edge12" class="edge">
<title>BB8&#45;&gt;BB9</title>
<path fill="none" stroke="black" d="M355.64,-669.57C386.72,-653.32 422.93,-634.39 454.38,-617.95"/>
<polygon fill="black" stroke="black" points="456.31,-620.89 463.55,-613.16 453.06,-614.69 456.31,-620.89"/>
</g>
</g>
</svg>
