<?xml version="1.0" encoding="UTF-8" standalone="no"?>
<!DOCTYPE svg PUBLIC "-//W3C//DTD SVG 1.1//EN"
 "http://www.w3.org/Graphics/SVG/1.1/DTD/svg11.dtd">
<!-- Generated by graphviz version 2.47.0 (20210316.0004)
 -->
<!-- Title: G Pages: 1 -->
<svg width="196pt" height="241pt"
 viewBox="0.00 0.00 195.85 241.22" xmlns="http://www.w3.org/2000/svg" xmlns:xlink="http://www.w3.org/1999/xlink">
<g id="graph0" class="graph" transform="scale(1 1) rotate(0) translate(4 237.22)">
<title>G</title>
<polygon fill="white" stroke="transparent" points="-4,4 -4,-237.22 191.85,-237.22 191.85,4 -4,4"/>
<!-- BB0 -->
<g id="node1" class="node">
<title>BB0</title>
<ellipse fill="none" stroke="black" cx="42.43" cy="-206.35" rx="37.45" ry="26.74"/>
<text text-anchor="middle" x="42.43" y="-210.15" font-family="Times New Roman,serif" font-size="14.00">[0..20)</text>
<text text-anchor="middle" x="42.43" y="-195.15" font-family="Times New Roman,serif" font-size="14.00">0.00</text>
</g>
<!-- BB2 -->
<g id="node3" class="node">
<title>BB2</title>
<ellipse fill="none" stroke="black" cx="42.43" cy="-116.61" rx="42.35" ry="26.74"/>
<text text-anchor="middle" x="42.43" y="-120.41" font-family="Times New Roman,serif" font-size="14.00">[30..34)</text>
<text text-anchor="middle" x="42.43" y="-105.41" font-family="Times New Roman,serif" font-size="14.00">0.50</text>
</g>
<!-- BB0&#45;&gt;BB2 -->
<g id="edge1" class="edge">
<title>BB0&#45;&gt;BB2</title>
<path fill="none" stroke="black" d="M42.43,-179.03C42.43,-171.06 42.43,-162.17 42.43,-153.68"/>
<polygon fill="black" stroke="black" points="45.93,-153.61 42.43,-143.61 38.93,-153.61 45.93,-153.61"/>
</g>
<!-- BB1 -->
<g id="node2" class="node">
<title>BB1</title>
<ellipse fill="none" stroke="black" cx="42.43" cy="-26.87" rx="42.35" ry="26.74"/>
<text text-anchor="middle" x="42.43" y="-30.67" font-family="Times New Roman,serif" font-size="14.00">[20..30)</text>
<text text-anchor="middle" x="42.43" y="-15.67" font-family="Times New Roman,serif" font-size="14.00">0.50</text>
</g>
<!-- BB1&#45;&gt;BB2 -->
<g id="edge2" class="edge">
<title>BB1&#45;&gt;BB2</title>
<path fill="none" stroke="black" d="M48.63,-53.54C49.15,-61.73 49.3,-70.96 49.08,-79.74"/>
<polygon fill="black" stroke="black" points="45.58,-79.62 48.64,-89.76 52.57,-79.92 45.58,-79.62"/>
</g>
<!-- BB2&#45;&gt;BB1 -->
<g id="edge3" class="edge">
<title>BB2&#45;&gt;BB1</title>
<path fill="none" stroke="black" d="M36.21,-89.76C35.7,-81.55 35.55,-72.32 35.78,-63.54"/>
<polygon fill="black" stroke="black" points="39.28,-63.68 36.22,-53.54 32.29,-63.37 39.28,-63.68"/>
</g>
<!-- BB3 -->
<g id="node4" class="node">
<title>BB3</title>
<ellipse fill="none" stroke="black" cx="145.43" cy="-26.87" rx="42.35" ry="26.74"/>
<text text-anchor="middle" x="145.43" y="-30.67" font-family="Times New Roman,serif" font-size="14.00">[34..35)</text>
<text text-anchor="middle" x="145.43" y="-15.67" font-family="Times New Roman,serif" font-size="14.00">0.00</text>
</g>
<!-- BB2&#45;&gt;BB3 -->
<g id="edge4" class="edge">
<title>BB2&#45;&gt;BB3</title>
<path fill="none" stroke="black" d="M67.1,-94.59C80.76,-82.96 97.91,-68.35 112.68,-55.77"/>
<polygon fill="black" stroke="black" points="115.26,-58.17 120.6,-49.02 110.72,-52.84 115.26,-58.17"/>
</g>
</g>
</svg>
