<?xml version="1.0" encoding="UTF-8" standalone="no"?>
<!DOCTYPE svg PUBLIC "-//W3C//DTD SVG 1.1//EN"
 "http://www.w3.org/Graphics/SVG/1.1/DTD/svg11.dtd">
<!-- Generated by graphviz version 2.47.0 (20210316.0004)
 -->
<!-- Title: G Pages: 1 -->
<svg width="508pt" height="633pt"
 viewBox="0.00 0.00 508.48 632.83" xmlns="http://www.w3.org/2000/svg" xmlns:xlink="http://www.w3.org/1999/xlink">
<g id="graph0" class="graph" transform="scale(1 1) rotate(0) translate(4 628.83)">
<title>G</title>
<polygon fill="white" stroke="transparent" points="-4,4 -4,-628.83 504.48,-628.83 504.48,4 -4,4"/>
<!-- BB0 -->
<g id="node1" class="node">
<title>BB0</title>
<ellipse fill="none" stroke="black" cx="168.24" cy="-576.75" rx="103.48" ry="48.17"/>
<text text-anchor="middle" x="168.24" y="-595.55" font-family="Times New Roman,serif" font-size="14.00">[0..10)</text>
<text text-anchor="middle" x="168.24" y="-580.55" font-family="Times New Roman,serif" font-size="14.00">Count: 5</text>
<text text-anchor="middle" x="168.24" y="-565.55" font-family="Times New Roman,serif" font-size="14.00">Normalized count: 1.00</text>
<text text-anchor="middle" x="168.24" y="-550.55" font-family="Times New Roman,serif" font-size="14.00">Samples weight: 0.02</text>
</g>
<!-- BB6 -->
<g id="node7" class="node">
<title>BB6</title>
<ellipse fill="none" stroke="black" cx="168.24" cy="-444.58" rx="103.48" ry="48.17"/>
<text text-anchor="middle" x="168.24" y="-463.38" font-family="Times New Roman,serif" font-size="14.00">[6e..72)</text>
<text text-anchor="middle" x="168.24" y="-448.38" font-family="Times New Roman,serif" font-size="14.00">Count: 6</text>
<text text-anchor="middle" x="168.24" y="-433.38" font-family="Times New Roman,serif" font-size="14.00">Normalized count: 1.20</text>
<text text-anchor="middle" x="168.24" y="-418.38" font-family="Times New Roman,serif" font-size="14.00">Samples weight: 0.02</text>
</g>
<!-- BB0&#45;&gt;BB6 -->
<g id="edge1" class="edge">
<title>BB0&#45;&gt;BB6</title>
<path fill="none" stroke="black" d="M168.24,-528.39C168.24,-520.12 168.24,-511.44 168.24,-502.93"/>
<polygon fill="black" stroke="black" points="171.74,-502.69 168.24,-492.69 164.74,-502.69 171.74,-502.69"/>
</g>
<!-- BB1 -->
<g id="node2" class="node">
<title>BB1</title>
<ellipse fill="none" stroke="black" cx="168.24" cy="-312.42" rx="103.48" ry="48.17"/>
<text text-anchor="middle" x="168.24" y="-331.22" font-family="Times New Roman,serif" font-size="14.00">[10..23)</text>
<text text-anchor="middle" x="168.24" y="-316.22" font-family="Times New Roman,serif" font-size="14.00">Count: 47</text>
<text text-anchor="middle" x="168.24" y="-301.22" font-family="Times New Roman,serif" font-size="14.00">Normalized count: 9.40</text>
<text text-anchor="middle" x="168.24" y="-286.22" font-family="Times New Roman,serif" font-size="14.00">Samples weight: 0.18</text>
</g>
<!-- BB2 -->
<g id="node3" class="node">
<title>BB2</title>
<ellipse fill="none" stroke="black" cx="168.24" cy="-180.25" rx="108.38" ry="48.17"/>
<text text-anchor="middle" x="168.24" y="-199.05" font-family="Times New Roman,serif" font-size="14.00">[23..55)</text>
<text text-anchor="middle" x="168.24" y="-184.05" font-family="Times New Roman,serif" font-size="14.00">Count: 159</text>
<text text-anchor="middle" x="168.24" y="-169.05" font-family="Times New Roman,serif" font-size="14.00">Normalized count: 31.80</text>
<text text-anchor="middle" x="168.24" y="-154.05" font-family="Times New Roman,serif" font-size="14.00">Samples weight: 0.62</text>
</g>
<!-- BB1&#45;&gt;BB2 -->
<g id="edge3" class="edge">
<title>BB1&#45;&gt;BB2</title>
<path fill="none" stroke="black" d="M168.24,-264.05C168.24,-255.79 168.24,-247.1 168.24,-238.6"/>
<polygon fill="black" stroke="black" points="171.74,-238.36 168.24,-228.36 164.74,-238.36 171.74,-238.36"/>
</g>
<!-- BB4 -->
<g id="node5" class="node">
<title>BB4</title>
<ellipse fill="none" stroke="black" cx="397.24" cy="-180.25" rx="103.48" ry="48.17"/>
<text text-anchor="middle" x="397.24" y="-199.05" font-family="Times New Roman,serif" font-size="14.00">[60..65)</text>
<text text-anchor="middle" x="397.24" y="-184.05" font-family="Times New Roman,serif" font-size="14.00">Count: 13</text>
<text text-anchor="middle" x="397.24" y="-169.05" font-family="Times New Roman,serif" font-size="14.00">Normalized count: 2.60</text>
<text text-anchor="middle" x="397.24" y="-154.05" font-family="Times New Roman,serif" font-size="14.00">Samples weight: 0.05</text>
</g>
<!-- BB1&#45;&gt;BB4 -->
<g id="edge2" class="edge">
<title>BB1&#45;&gt;BB4</title>
<path fill="none" stroke="black" d="M232.64,-274.81C260.93,-258.73 294.31,-239.76 323.58,-223.12"/>
<polygon fill="black" stroke="black" points="325.56,-226.02 332.53,-218.03 322.11,-219.93 325.56,-226.02"/>
</g>
<!-- BB2&#45;&gt;BB4 -->
<g id="edge4" class="edge">
<title>BB2&#45;&gt;BB4</title>
<path fill="none" stroke="black" d="M276.48,-180.25C278.93,-180.25 281.38,-180.25 283.84,-180.25"/>
<polygon fill="black" stroke="black" points="283.93,-183.75 293.93,-180.25 283.93,-176.75 283.93,-183.75"/>
</g>
<!-- BB3 -->
<g id="node4" class="node">
<title>BB3</title>
<ellipse fill="none" stroke="black" cx="397.24" cy="-48.08" rx="103.48" ry="48.17"/>
<text text-anchor="middle" x="397.24" y="-66.88" font-family="Times New Roman,serif" font-size="14.00">[55..60)</text>
<text text-anchor="middle" x="397.24" y="-51.88" font-family="Times New Roman,serif" font-size="14.00">Count: 12</text>
<text text-anchor="middle" x="397.24" y="-36.88" font-family="Times New Roman,serif" font-size="14.00">Normalized count: 2.40</text>
<text text-anchor="middle" x="397.24" y="-21.88" font-family="Times New Roman,serif" font-size="14.00">Samples weight: 0.05</text>
</g>
<!-- BB3&#45;&gt;BB4 -->
<g id="edge5" class="edge">
<title>BB3&#45;&gt;BB4</title>
<path fill="none" stroke="black" d="M403.76,-96.44C403.98,-104.74 404.04,-113.45 403.94,-121.98"/>
<polygon fill="black" stroke="black" points="400.44,-122.19 403.75,-132.26 407.44,-122.32 400.44,-122.19"/>
</g>
<!-- BB4&#45;&gt;BB3 -->
<g id="edge6" class="edge">
<title>BB4&#45;&gt;BB3</title>
<path fill="none" stroke="black" d="M390.72,-132.26C390.5,-123.88 390.43,-115.07 390.53,-106.45"/>
<polygon fill="black" stroke="black" points="394.03,-106.51 390.72,-96.44 387.03,-106.38 394.03,-106.51"/>
</g>
<!-- BB5 -->
<g id="node6" class="node">
<title>BB5</title>
<ellipse fill="none" stroke="black" cx="103.24" cy="-48.08" rx="103.48" ry="48.17"/>
<text text-anchor="middle" x="103.24" y="-66.88" font-family="Times New Roman,serif" font-size="14.00">[65..6e)</text>
<text text-anchor="middle" x="103.24" y="-51.88" font-family="Times New Roman,serif" font-size="14.00">Count: 15</text>
<text text-anchor="middle" x="103.24" y="-36.88" font-family="Times New Roman,serif" font-size="14.00">Normalized count: 3.00</text>
<text text-anchor="middle" x="103.24" y="-21.88" font-family="Times New Roman,serif" font-size="14.00">Samples weight: 0.06</text>
</g>
<!-- BB4&#45;&gt;BB5 -->
<g id="edge7" class="edge">
<title>BB4&#45;&gt;BB5</title>
<path fill="none" stroke="black" d="M323.43,-146.57C281.75,-128.12 229.54,-105 186.41,-85.91"/>
<polygon fill="black" stroke="black" points="187.64,-82.62 177.08,-81.78 184.8,-89.02 187.64,-82.62"/>
</g>
<!-- BB5&#45;&gt;BB6 -->
<g id="edge8" class="edge">
<title>BB5&#45;&gt;BB6</title>
<path fill="none" stroke="black" d="M68.89,-93.9C61.64,-105.74 55.04,-118.92 51.24,-132.17 23.22,-229.73 8.9,-270.71 56.24,-360.5 64.76,-376.67 78.01,-390.53 92.44,-402.04"/>
<polygon fill="black" stroke="black" points="90.47,-404.94 100.56,-408.19 94.7,-399.36 90.47,-404.94"/>
</g>
<!-- BB6&#45;&gt;BB1 -->
<g id="edge9" class="edge">
<title>BB6&#45;&gt;BB1</title>
<path fill="none" stroke="black" d="M168.24,-396.22C168.24,-387.95 168.24,-379.27 168.24,-370.77"/>
<polygon fill="black" stroke="black" points="171.74,-370.52 168.24,-360.52 164.74,-370.52 171.74,-370.52"/>
</g>
<!-- BB7 -->
<g id="node8" class="node">
<title>BB7</title>
<ellipse fill="none" stroke="black" cx="392.24" cy="-312.42" rx="103.48" ry="48.17"/>
<text text-anchor="middle" x="392.24" y="-331.22" font-family="Times New Roman,serif" font-size="14.00">[72..73)</text>
<text text-anchor="middle" x="392.24" y="-316.22" font-family="Times New Roman,serif" font-size="14.00">Count: 0</text>
<text text-anchor="middle" x="392.24" y="-301.22" font-family="Times New Roman,serif" font-size="14.00">Normalized count: 0.00</text>
<text text-anchor="middle" x="392.24" y="-286.22" font-family="Times New Roman,serif" font-size="14.00">Samples weight: 0.00</text>
</g>
<!-- BB6&#45;&gt;BB7 -->
<g id="edge10" class="edge">
<title>BB6&#45;&gt;BB7</title>
<path fill="none" stroke="black" d="M231.83,-406.63C259.26,-390.69 291.48,-371.97 319.83,-355.49"/>
<polygon fill="black" stroke="black" points="321.6,-358.51 328.49,-350.46 318.08,-352.46 321.6,-358.51"/>
</g>
</g>
</svg>
