<?xml version="1.0" encoding="UTF-8" standalone="no"?>
<!DOCTYPE svg PUBLIC "-//W3C//DTD SVG 1.1//EN"
 "http://www.w3.org/Graphics/SVG/1.1/DTD/svg11.dtd">
<!-- Generated by graphviz version 2.47.0 (20210316.0004)
 -->
<!-- Title: G Pages: 1 -->
<svg width="968pt" height="1192pt"
 viewBox="0.00 0.00 967.74 1192.49" xmlns="http://www.w3.org/2000/svg" xmlns:xlink="http://www.w3.org/1999/xlink">
<g id="graph0" class="graph" transform="scale(1 1) rotate(0) translate(4 1188.49)">
<title>G</title>
<polygon fill="white" stroke="transparent" points="-4,4 -4,-1188.49 963.74,-1188.49 963.74,4 -4,4"/>
<!-- BB0 -->
<g id="node1" class="node">
<title>BB0</title>
<ellipse fill="none" stroke="black" cx="222.77" cy="-1147.01" rx="106.55" ry="37.45"/>
<text text-anchor="middle" x="222.77" y="-1158.31" font-family="Times New Roman,serif" font-size="14.00">[0..4)</text>
<text text-anchor="middle" x="222.77" y="-1143.31" font-family="Times New Roman,serif" font-size="14.00">Normalized Count: NaN</text>
<text text-anchor="middle" x="222.77" y="-1128.31" font-family="Times New Roman,serif" font-size="14.00">Samples weight: 0.00</text>
</g>
<!-- BB1 -->
<g id="node2" class="node">
<title>BB1</title>
<ellipse fill="none" stroke="black" cx="106.77" cy="-1036.06" rx="106.55" ry="37.45"/>
<text text-anchor="middle" x="106.77" y="-1047.36" font-family="Times New Roman,serif" font-size="14.00">[4..5)</text>
<text text-anchor="middle" x="106.77" y="-1032.36" font-family="Times New Roman,serif" font-size="14.00">Normalized Count: NaN</text>
<text text-anchor="middle" x="106.77" y="-1017.36" font-family="Times New Roman,serif" font-size="14.00">Samples weight: 0.00</text>
</g>
<!-- BB0&#45;&gt;BB1 -->
<g id="edge2" class="edge">
<title>BB0&#45;&gt;BB1</title>
<path fill="none" stroke="black" d="M186.07,-1111.54C174.85,-1101 162.4,-1089.31 150.76,-1078.37"/>
<polygon fill="black" stroke="black" points="152.92,-1075.6 143.24,-1071.31 148.13,-1080.7 152.92,-1075.6"/>
</g>
<!-- BB2 -->
<g id="node3" class="node">
<title>BB2</title>
<ellipse fill="none" stroke="black" cx="338.77" cy="-1036.06" rx="106.55" ry="37.45"/>
<text text-anchor="middle" x="338.77" y="-1047.36" font-family="Times New Roman,serif" font-size="14.00">[5..f)</text>
<text text-anchor="middle" x="338.77" y="-1032.36" font-family="Times New Roman,serif" font-size="14.00">Normalized Count: NaN</text>
<text text-anchor="middle" x="338.77" y="-1017.36" font-family="Times New Roman,serif" font-size="14.00">Samples weight: 0.00</text>
</g>
<!-- BB0&#45;&gt;BB2 -->
<g id="edge1" class="edge">
<title>BB0&#45;&gt;BB2</title>
<path fill="none" stroke="black" d="M259.48,-1111.54C270.69,-1101 283.14,-1089.31 294.79,-1078.37"/>
<polygon fill="black" stroke="black" points="297.42,-1080.7 302.31,-1071.31 292.62,-1075.6 297.42,-1080.7"/>
</g>
<!-- BB3 -->
<g id="node4" class="node">
<title>BB3</title>
<ellipse fill="none" stroke="black" cx="218.77" cy="-925.1" rx="106.55" ry="37.45"/>
<text text-anchor="middle" x="218.77" y="-936.4" font-family="Times New Roman,serif" font-size="14.00">[f..10)</text>
<text text-anchor="middle" x="218.77" y="-921.4" font-family="Times New Roman,serif" font-size="14.00">Normalized Count: NaN</text>
<text text-anchor="middle" x="218.77" y="-906.4" font-family="Times New Roman,serif" font-size="14.00">Samples weight: 0.00</text>
</g>
<!-- BB2&#45;&gt;BB3 -->
<g id="edge4" class="edge">
<title>BB2&#45;&gt;BB3</title>
<path fill="none" stroke="black" d="M301.13,-1000.88C289.41,-990.24 276.35,-978.38 264.16,-967.31"/>
<polygon fill="black" stroke="black" points="266.45,-964.66 256.69,-960.53 261.74,-969.84 266.45,-964.66"/>
</g>
<!-- BB4 -->
<g id="node5" class="node">
<title>BB4</title>
<ellipse fill="none" stroke="black" cx="459.77" cy="-925.1" rx="115.93" ry="37.45"/>
<text text-anchor="middle" x="459.77" y="-936.4" font-family="Times New Roman,serif" font-size="14.00">[10..26)</text>
<text text-anchor="middle" x="459.77" y="-921.4" font-family="Times New Roman,serif" font-size="14.00">Normalized Count: Infinity</text>
<text text-anchor="middle" x="459.77" y="-906.4" font-family="Times New Roman,serif" font-size="14.00">Samples weight: 0.00</text>
</g>
<!-- BB2&#45;&gt;BB4 -->
<g id="edge3" class="edge">
<title>BB2&#45;&gt;BB4</title>
<path fill="none" stroke="black" d="M376.73,-1000.88C388.55,-990.24 401.71,-978.38 414.01,-967.31"/>
<polygon fill="black" stroke="black" points="416.45,-969.82 421.54,-960.53 411.77,-964.62 416.45,-969.82"/>
</g>
<!-- BB15 -->
<g id="node16" class="node">
<title>BB15</title>
<ellipse fill="none" stroke="black" cx="459.77" cy="-814.15" rx="115.93" ry="37.45"/>
<text text-anchor="middle" x="459.77" y="-825.45" font-family="Times New Roman,serif" font-size="14.00">[1ba..1c1)</text>
<text text-anchor="middle" x="459.77" y="-810.45" font-family="Times New Roman,serif" font-size="14.00">Normalized Count: Infinity</text>
<text text-anchor="middle" x="459.77" y="-795.45" font-family="Times New Roman,serif" font-size="14.00">Samples weight: 0.00</text>
</g>
<!-- BB4&#45;&gt;BB15 -->
<g id="edge5" class="edge">
<title>BB4&#45;&gt;BB15</title>
<path fill="none" stroke="black" d="M459.77,-887.52C459.77,-879.35 459.77,-870.57 459.77,-862.04"/>
<polygon fill="black" stroke="black" points="463.27,-861.82 459.77,-851.82 456.27,-861.82 463.27,-861.82"/>
</g>
<!-- BB5 -->
<g id="node6" class="node">
<title>BB5</title>
<ellipse fill="none" stroke="black" cx="459.77" cy="-703.2" rx="115.93" ry="37.45"/>
<text text-anchor="middle" x="459.77" y="-714.5" font-family="Times New Roman,serif" font-size="14.00">[26..8e)</text>
<text text-anchor="middle" x="459.77" y="-699.5" font-family="Times New Roman,serif" font-size="14.00">Normalized Count: Infinity</text>
<text text-anchor="middle" x="459.77" y="-684.5" font-family="Times New Roman,serif" font-size="14.00">Samples weight: 0.00</text>
</g>
<!-- BB7 -->
<g id="node8" class="node">
<title>BB7</title>
<ellipse fill="none" stroke="black" cx="459.77" cy="-592.24" rx="115.93" ry="37.45"/>
<text text-anchor="middle" x="459.77" y="-603.54" font-family="Times New Roman,serif" font-size="14.00">[ea..ef)</text>
<text text-anchor="middle" x="459.77" y="-588.54" font-family="Times New Roman,serif" font-size="14.00">Normalized Count: Infinity</text>
<text text-anchor="middle" x="459.77" y="-573.54" font-family="Times New Roman,serif" font-size="14.00">Samples weight: 0.00</text>
</g>
<!-- BB5&#45;&gt;BB7 -->
<g id="edge6" class="edge">
<title>BB5&#45;&gt;BB7</title>
<path fill="none" stroke="black" d="M459.77,-665.61C459.77,-657.44 459.77,-648.66 459.77,-640.13"/>
<polygon fill="black" stroke="black" points="463.27,-639.92 459.77,-629.92 456.27,-639.92 463.27,-639.92"/>
</g>
<!-- BB6 -->
<g id="node7" class="node">
<title>BB6</title>
<ellipse fill="none" stroke="black" cx="459.77" cy="-481.29" rx="115.93" ry="37.45"/>
<text text-anchor="middle" x="459.77" y="-492.59" font-family="Times New Roman,serif" font-size="14.00">[8e..ea)</text>
<text text-anchor="middle" x="459.77" y="-477.59" font-family="Times New Roman,serif" font-size="14.00">Normalized Count: Infinity</text>
<text text-anchor="middle" x="459.77" y="-462.59" font-family="Times New Roman,serif" font-size="14.00">Samples weight: 0.16</text>
</g>
<!-- BB6&#45;&gt;BB7 -->
<g id="edge7" class="edge">
<title>BB6&#45;&gt;BB7</title>
<path fill="none" stroke="black" d="M466.19,-518.96C466.51,-527.14 466.6,-535.92 466.46,-544.45"/>
<polygon fill="black" stroke="black" points="462.96,-544.57 466.19,-554.66 469.96,-544.76 462.96,-544.57"/>
</g>
<!-- BB7&#45;&gt;BB6 -->
<g id="edge8" class="edge">
<title>BB7&#45;&gt;BB6</title>
<path fill="none" stroke="black" d="M453.36,-554.66C453.04,-546.49 452.95,-537.71 453.08,-529.18"/>
<polygon fill="black" stroke="black" points="456.59,-529.05 453.35,-518.96 449.59,-528.86 456.59,-529.05"/>
</g>
<!-- BB8 -->
<g id="node9" class="node">
<title>BB8</title>
<ellipse fill="none" stroke="black" cx="709.77" cy="-481.29" rx="115.93" ry="37.45"/>
<text text-anchor="middle" x="709.77" y="-492.59" font-family="Times New Roman,serif" font-size="14.00">[ef..f7)</text>
<text text-anchor="middle" x="709.77" y="-477.59" font-family="Times New Roman,serif" font-size="14.00">Normalized Count: Infinity</text>
<text text-anchor="middle" x="709.77" y="-462.59" font-family="Times New Roman,serif" font-size="14.00">Samples weight: 0.00</text>
</g>
<!-- BB7&#45;&gt;BB8 -->
<g id="edge9" class="edge">
<title>BB7&#45;&gt;BB8</title>
<path fill="none" stroke="black" d="M527.43,-561.76C559.94,-547.59 599.07,-530.54 632.73,-515.87"/>
<polygon fill="black" stroke="black" points="634.3,-519 642.07,-511.8 631.5,-512.58 634.3,-519"/>
</g>
<!-- BB13 -->
<g id="node14" class="node">
<title>BB13</title>
<ellipse fill="none" stroke="black" cx="677.77" cy="-370.34" rx="115.93" ry="37.45"/>
<text text-anchor="middle" x="677.77" y="-381.64" font-family="Times New Roman,serif" font-size="14.00">[1aa..1b2)</text>
<text text-anchor="middle" x="677.77" y="-366.64" font-family="Times New Roman,serif" font-size="14.00">Normalized Count: Infinity</text>
<text text-anchor="middle" x="677.77" y="-351.64" font-family="Times New Roman,serif" font-size="14.00">Samples weight: 0.00</text>
</g>
<!-- BB8&#45;&gt;BB13 -->
<g id="edge10" class="edge">
<title>BB8&#45;&gt;BB13</title>
<path fill="none" stroke="black" d="M699.03,-443.71C696.57,-435.35 693.94,-426.37 691.38,-417.66"/>
<polygon fill="black" stroke="black" points="694.72,-416.62 688.54,-408.01 688,-418.59 694.72,-416.62"/>
</g>
<!-- BB9 -->
<g id="node10" class="node">
<title>BB9</title>
<ellipse fill="none" stroke="black" cx="803.77" cy="-259.38" rx="115.93" ry="37.45"/>
<text text-anchor="middle" x="803.77" y="-270.68" font-family="Times New Roman,serif" font-size="14.00">[f7..120)</text>
<text text-anchor="middle" x="803.77" y="-255.68" font-family="Times New Roman,serif" font-size="14.00">Normalized Count: Infinity</text>
<text text-anchor="middle" x="803.77" y="-240.68" font-family="Times New Roman,serif" font-size="14.00">Samples weight: 0.03</text>
</g>
<!-- BB11 -->
<g id="node12" class="node">
<title>BB11</title>
<ellipse fill="none" stroke="black" cx="816.77" cy="-148.43" rx="115.93" ry="37.45"/>
<text text-anchor="middle" x="816.77" y="-159.73" font-family="Times New Roman,serif" font-size="14.00">[19c..1a4)</text>
<text text-anchor="middle" x="816.77" y="-144.73" font-family="Times New Roman,serif" font-size="14.00">Normalized Count: Infinity</text>
<text text-anchor="middle" x="816.77" y="-129.73" font-family="Times New Roman,serif" font-size="14.00">Samples weight: 0.00</text>
</g>
<!-- BB9&#45;&gt;BB11 -->
<g id="edge11" class="edge">
<title>BB9&#45;&gt;BB11</title>
<path fill="none" stroke="black" d="M808.14,-221.8C809.12,-213.54 810.18,-204.65 811.21,-196.04"/>
<polygon fill="black" stroke="black" points="814.69,-196.45 812.4,-186.1 807.74,-195.62 814.69,-196.45"/>
</g>
<!-- BB10 -->
<g id="node11" class="node">
<title>BB10</title>
<ellipse fill="none" stroke="black" cx="843.77" cy="-37.48" rx="115.93" ry="37.45"/>
<text text-anchor="middle" x="843.77" y="-48.78" font-family="Times New Roman,serif" font-size="14.00">[120..19c)</text>
<text text-anchor="middle" x="843.77" y="-33.78" font-family="Times New Roman,serif" font-size="14.00">Normalized Count: Infinity</text>
<text text-anchor="middle" x="843.77" y="-18.78" font-family="Times New Roman,serif" font-size="14.00">Samples weight: 0.79</text>
</g>
<!-- BB10&#45;&gt;BB11 -->
<g id="edge12" class="edge">
<title>BB10&#45;&gt;BB11</title>
<path fill="none" stroke="black" d="M841.14,-74.97C839.37,-83.44 837.2,-92.56 834.86,-101.37"/>
<polygon fill="black" stroke="black" points="831.45,-100.58 832.17,-111.15 838.2,-102.44 831.45,-100.58"/>
</g>
<!-- BB11&#45;&gt;BB10 -->
<g id="edge13" class="edge">
<title>BB11&#45;&gt;BB10</title>
<path fill="none" stroke="black" d="M819.42,-110.85C821.19,-102.4 823.35,-93.31 825.68,-84.52"/>
<polygon fill="black" stroke="black" points="829.09,-85.35 828.37,-74.78 822.34,-83.49 829.09,-85.35"/>
</g>
<!-- BB12 -->
<g id="node13" class="node">
<title>BB12</title>
<ellipse fill="none" stroke="black" cx="593.77" cy="-37.48" rx="115.93" ry="37.45"/>
<text text-anchor="middle" x="593.77" y="-48.78" font-family="Times New Roman,serif" font-size="14.00">[1a4..1aa)</text>
<text text-anchor="middle" x="593.77" y="-33.78" font-family="Times New Roman,serif" font-size="14.00">Normalized Count: Infinity</text>
<text text-anchor="middle" x="593.77" y="-18.78" font-family="Times New Roman,serif" font-size="14.00">Samples weight: 0.00</text>
</g>
<!-- BB11&#45;&gt;BB12 -->
<g id="edge14" class="edge">
<title>BB11&#45;&gt;BB12</title>
<path fill="none" stroke="black" d="M754.06,-116.79C726.51,-103.33 694.01,-87.45 665.5,-73.52"/>
<polygon fill="black" stroke="black" points="666.92,-70.32 656.4,-69.07 663.85,-76.61 666.92,-70.32"/>
</g>
<!-- BB12&#45;&gt;BB13 -->
<g id="edge15" class="edge">
<title>BB12&#45;&gt;BB13</title>
<path fill="none" stroke="black" d="M603.06,-75.06C618.42,-135.57 649.1,-256.42 665.98,-322.88"/>
<polygon fill="black" stroke="black" points="662.61,-323.83 668.46,-332.66 669.39,-322.11 662.61,-323.83"/>
</g>
<!-- BB13&#45;&gt;BB9 -->
<g id="edge16" class="edge">
<title>BB13&#45;&gt;BB9</title>
<path fill="none" stroke="black" d="M717.64,-334.86C729.94,-324.23 743.61,-312.41 756.36,-301.38"/>
<polygon fill="black" stroke="black" points="758.89,-303.82 764.17,-294.63 754.31,-298.53 758.89,-303.82"/>
</g>
<!-- BB14 -->
<g id="node15" class="node">
<title>BB14</title>
<ellipse fill="none" stroke="black" cx="440.77" cy="-259.38" rx="115.93" ry="37.45"/>
<text text-anchor="middle" x="440.77" y="-270.68" font-family="Times New Roman,serif" font-size="14.00">[1b2..1ba)</text>
<text text-anchor="middle" x="440.77" y="-255.68" font-family="Times New Roman,serif" font-size="14.00">Normalized Count: Infinity</text>
<text text-anchor="middle" x="440.77" y="-240.68" font-family="Times New Roman,serif" font-size="14.00">Samples weight: 0.00</text>
</g>
<!-- BB13&#45;&gt;BB14 -->
<g id="edge17" class="edge">
<title>BB13&#45;&gt;BB14</title>
<path fill="none" stroke="black" d="M612.38,-339.28C582.46,-325.52 546.84,-309.14 515.82,-294.89"/>
<polygon fill="black" stroke="black" points="516.91,-291.53 506.36,-290.53 513.98,-297.89 516.91,-291.53"/>
</g>
<!-- BB14&#45;&gt;BB15 -->
<g id="edge18" class="edge">
<title>BB14&#45;&gt;BB15</title>
<path fill="none" stroke="black" d="M405.62,-295.41C368.65,-336.14 315.77,-407.17 315.77,-480.29 315.77,-593.24 315.77,-593.24 315.77,-593.24 315.77,-659.31 298.19,-685.66 334.77,-740.67 345.42,-756.68 360.89,-769.6 377.35,-779.85"/>
<polygon fill="black" stroke="black" points="375.63,-782.9 386.03,-784.96 379.19,-776.87 375.63,-782.9"/>
</g>
<!-- BB15&#45;&gt;BB5 -->
<g id="edge19" class="edge">
<title>BB15&#45;&gt;BB5</title>
<path fill="none" stroke="black" d="M459.77,-776.57C459.77,-768.39 459.77,-759.61 459.77,-751.09"/>
<polygon fill="black" stroke="black" points="463.27,-750.87 459.77,-740.87 456.27,-750.87 463.27,-750.87"/>
</g>
<!-- BB16 -->
<g id="node17" class="node">
<title>BB16</title>
<ellipse fill="none" stroke="black" cx="700.77" cy="-703.2" rx="106.55" ry="37.45"/>
<text text-anchor="middle" x="700.77" y="-714.5" font-family="Times New Roman,serif" font-size="14.00">[1c1..1c2)</text>
<text text-anchor="middle" x="700.77" y="-699.5" font-family="Times New Roman,serif" font-size="14.00">Normalized Count: NaN</text>
<text text-anchor="middle" x="700.77" y="-684.5" font-family="Times New Roman,serif" font-size="14.00">Samples weight: 0.00</text>
</g>
<!-- BB15&#45;&gt;BB16 -->
<g id="edge20" class="edge">
<title>BB15&#45;&gt;BB16</title>
<path fill="none" stroke="black" d="M525.95,-783.23C557.27,-769.07 594.79,-752.11 627.03,-737.53"/>
<polygon fill="black" stroke="black" points="628.74,-740.6 636.41,-733.29 625.86,-734.22 628.74,-740.6"/>
</g>
</g>
</svg>
