<?xml version="1.0" encoding="UTF-8" standalone="no"?>
<!DOCTYPE svg PUBLIC "-//W3C//DTD SVG 1.1//EN"
 "http://www.w3.org/Graphics/SVG/1.1/DTD/svg11.dtd">
<!-- Generated by graphviz version 2.47.0 (20210316.0004)
 -->
<!-- Title: G Pages: 1 -->
<svg width="1148pt" height="1690pt"
 viewBox="0.00 0.00 1148.48 1690.16" xmlns="http://www.w3.org/2000/svg" xmlns:xlink="http://www.w3.org/1999/xlink">
<g id="graph0" class="graph" transform="scale(1 1) rotate(0) translate(4 1686.16)">
<title>G</title>
<polygon fill="white" stroke="transparent" points="-4,4 -4,-1686.16 1144.48,-1686.16 1144.48,4 -4,4"/>
<!-- BB0 -->
<g id="node1" class="node">
<title>BB0</title>
<ellipse fill="none" stroke="black" cx="906.24" cy="-1634.08" rx="103.48" ry="48.17"/>
<text text-anchor="middle" x="906.24" y="-1652.88" font-family="Times New Roman,serif" font-size="14.00">[0..19)</text>
<text text-anchor="middle" x="906.24" y="-1637.88" font-family="Times New Roman,serif" font-size="14.00">Count: 3</text>
<text text-anchor="middle" x="906.24" y="-1622.88" font-family="Times New Roman,serif" font-size="14.00">Normalized count: 1.00</text>
<text text-anchor="middle" x="906.24" y="-1607.88" font-family="Times New Roman,serif" font-size="14.00">Samples weight: 0.00</text>
</g>
<!-- BB22 -->
<g id="node23" class="node">
<title>BB22</title>
<ellipse fill="none" stroke="black" cx="906.24" cy="-1501.92" rx="103.48" ry="48.17"/>
<text text-anchor="middle" x="906.24" y="-1520.72" font-family="Times New Roman,serif" font-size="14.00">[111..118)</text>
<text text-anchor="middle" x="906.24" y="-1505.72" font-family="Times New Roman,serif" font-size="14.00">Count: 8</text>
<text text-anchor="middle" x="906.24" y="-1490.72" font-family="Times New Roman,serif" font-size="14.00">Normalized count: 2.67</text>
<text text-anchor="middle" x="906.24" y="-1475.72" font-family="Times New Roman,serif" font-size="14.00">Samples weight: 0.00</text>
</g>
<!-- BB0&#45;&gt;BB22 -->
<g id="edge1" class="edge">
<title>BB0&#45;&gt;BB22</title>
<path fill="none" stroke="black" d="M906.24,-1585.72C906.24,-1577.45 906.24,-1568.77 906.24,-1560.27"/>
<polygon fill="black" stroke="black" points="909.74,-1560.02 906.24,-1550.02 902.74,-1560.02 909.74,-1560.02"/>
</g>
<!-- BB1 -->
<g id="node2" class="node">
<title>BB1</title>
<ellipse fill="none" stroke="black" cx="682.24" cy="-1369.75" rx="103.48" ry="48.17"/>
<text text-anchor="middle" x="682.24" y="-1388.55" font-family="Times New Roman,serif" font-size="14.00">[19..2f)</text>
<text text-anchor="middle" x="682.24" y="-1373.55" font-family="Times New Roman,serif" font-size="14.00">Count: 8</text>
<text text-anchor="middle" x="682.24" y="-1358.55" font-family="Times New Roman,serif" font-size="14.00">Normalized count: 2.67</text>
<text text-anchor="middle" x="682.24" y="-1343.55" font-family="Times New Roman,serif" font-size="14.00">Samples weight: 0.00</text>
</g>
<!-- BB5 -->
<g id="node6" class="node">
<title>BB5</title>
<ellipse fill="none" stroke="black" cx="505.24" cy="-1237.58" rx="108.38" ry="48.17"/>
<text text-anchor="middle" x="505.24" y="-1256.38" font-family="Times New Roman,serif" font-size="14.00">[50..55)</text>
<text text-anchor="middle" x="505.24" y="-1241.38" font-family="Times New Roman,serif" font-size="14.00">Count: 37</text>
<text text-anchor="middle" x="505.24" y="-1226.38" font-family="Times New Roman,serif" font-size="14.00">Normalized count: 12.33</text>
<text text-anchor="middle" x="505.24" y="-1211.38" font-family="Times New Roman,serif" font-size="14.00">Samples weight: 0.01</text>
</g>
<!-- BB1&#45;&gt;BB5 -->
<g id="edge2" class="edge">
<title>BB1&#45;&gt;BB5</title>
<path fill="none" stroke="black" d="M627.69,-1328.63C608.93,-1314.84 587.78,-1299.29 568.4,-1285.03"/>
<polygon fill="black" stroke="black" points="570.35,-1282.12 560.22,-1279.01 566.2,-1287.76 570.35,-1282.12"/>
</g>
<!-- BB2 -->
<g id="node3" class="node">
<title>BB2</title>
<ellipse fill="none" stroke="black" cx="308.24" cy="-1105.42" rx="103.48" ry="48.17"/>
<text text-anchor="middle" x="308.24" y="-1124.22" font-family="Times New Roman,serif" font-size="14.00">[2f..42)</text>
<text text-anchor="middle" x="308.24" y="-1109.22" font-family="Times New Roman,serif" font-size="14.00">Count: 29</text>
<text text-anchor="middle" x="308.24" y="-1094.22" font-family="Times New Roman,serif" font-size="14.00">Normalized count: 9.67</text>
<text text-anchor="middle" x="308.24" y="-1079.22" font-family="Times New Roman,serif" font-size="14.00">Samples weight: 0.01</text>
</g>
<!-- BB3 -->
<g id="node4" class="node">
<title>BB3</title>
<ellipse fill="none" stroke="black" cx="103.24" cy="-973.25" rx="103.48" ry="48.17"/>
<text text-anchor="middle" x="103.24" y="-992.05" font-family="Times New Roman,serif" font-size="14.00">[42..4a)</text>
<text text-anchor="middle" x="103.24" y="-977.05" font-family="Times New Roman,serif" font-size="14.00">Count: 4</text>
<text text-anchor="middle" x="103.24" y="-962.05" font-family="Times New Roman,serif" font-size="14.00">Normalized count: 1.33</text>
<text text-anchor="middle" x="103.24" y="-947.05" font-family="Times New Roman,serif" font-size="14.00">Samples weight: 0.00</text>
</g>
<!-- BB2&#45;&gt;BB3 -->
<g id="edge4" class="edge">
<title>BB2&#45;&gt;BB3</title>
<path fill="none" stroke="black" d="M248.12,-1066.24C224.23,-1051.08 196.62,-1033.54 171.95,-1017.88"/>
<polygon fill="black" stroke="black" points="173.68,-1014.83 163.36,-1012.42 169.92,-1020.74 173.68,-1014.83"/>
</g>
<!-- BB4 -->
<g id="node5" class="node">
<title>BB4</title>
<ellipse fill="none" stroke="black" cx="327.24" cy="-973.25" rx="103.48" ry="48.17"/>
<text text-anchor="middle" x="327.24" y="-992.05" font-family="Times New Roman,serif" font-size="14.00">[4a..50)</text>
<text text-anchor="middle" x="327.24" y="-977.05" font-family="Times New Roman,serif" font-size="14.00">Count: 29</text>
<text text-anchor="middle" x="327.24" y="-962.05" font-family="Times New Roman,serif" font-size="14.00">Normalized count: 9.67</text>
<text text-anchor="middle" x="327.24" y="-947.05" font-family="Times New Roman,serif" font-size="14.00">Samples weight: 0.01</text>
</g>
<!-- BB2&#45;&gt;BB4 -->
<g id="edge3" class="edge">
<title>BB2&#45;&gt;BB4</title>
<path fill="none" stroke="black" d="M315.1,-1057.42C316.32,-1049.05 317.61,-1040.24 318.86,-1031.61"/>
<polygon fill="black" stroke="black" points="322.34,-1032.01 320.32,-1021.61 315.42,-1031 322.34,-1032.01"/>
</g>
<!-- BB3&#45;&gt;BB4 -->
<g id="edge5" class="edge">
<title>BB3&#45;&gt;BB4</title>
<path fill="none" stroke="black" d="M206.49,-973.25C208.94,-973.25 211.4,-973.25 213.85,-973.25"/>
<polygon fill="black" stroke="black" points="213.94,-976.75 223.94,-973.25 213.94,-969.75 213.94,-976.75"/>
</g>
<!-- BB4&#45;&gt;BB5 -->
<g id="edge6" class="edge">
<title>BB4&#45;&gt;BB5</title>
<path fill="none" stroke="black" d="M380.74,-1014.44C394.94,-1027 409.34,-1041.7 420.24,-1057.33 446.53,-1095.03 438.43,-1112.03 458.24,-1153.5 462.73,-1162.9 467.85,-1172.7 473.02,-1182.14"/>
<polygon fill="black" stroke="black" points="470.06,-1184 477.98,-1191.04 476.17,-1180.6 470.06,-1184"/>
</g>
<!-- BB5&#45;&gt;BB2 -->
<g id="edge7" class="edge">
<title>BB5&#45;&gt;BB2</title>
<path fill="none" stroke="black" d="M445.86,-1197.35C423.66,-1182.68 398.3,-1165.92 375.44,-1150.82"/>
<polygon fill="black" stroke="black" points="377.08,-1147.71 366.81,-1145.12 373.23,-1153.55 377.08,-1147.71"/>
</g>
<!-- BB6 -->
<g id="node7" class="node">
<title>BB6</title>
<ellipse fill="none" stroke="black" cx="570.24" cy="-1105.42" rx="103.48" ry="48.17"/>
<text text-anchor="middle" x="570.24" y="-1124.22" font-family="Times New Roman,serif" font-size="14.00">[55..6b)</text>
<text text-anchor="middle" x="570.24" y="-1109.22" font-family="Times New Roman,serif" font-size="14.00">Count: 8</text>
<text text-anchor="middle" x="570.24" y="-1094.22" font-family="Times New Roman,serif" font-size="14.00">Normalized count: 2.67</text>
<text text-anchor="middle" x="570.24" y="-1079.22" font-family="Times New Roman,serif" font-size="14.00">Samples weight: 0.00</text>
</g>
<!-- BB5&#45;&gt;BB6 -->
<g id="edge8" class="edge">
<title>BB5&#45;&gt;BB6</title>
<path fill="none" stroke="black" d="M528.34,-1190.32C532.98,-1181.02 537.91,-1171.16 542.69,-1161.58"/>
<polygon fill="black" stroke="black" points="545.88,-1163.04 547.21,-1152.52 539.61,-1159.91 545.88,-1163.04"/>
</g>
<!-- BB7 -->
<g id="node8" class="node">
<title>BB7</title>
<ellipse fill="none" stroke="black" cx="775.24" cy="-973.25" rx="103.48" ry="48.17"/>
<text text-anchor="middle" x="775.24" y="-992.05" font-family="Times New Roman,serif" font-size="14.00">[6b..6d)</text>
<text text-anchor="middle" x="775.24" y="-977.05" font-family="Times New Roman,serif" font-size="14.00">Count: 3</text>
<text text-anchor="middle" x="775.24" y="-962.05" font-family="Times New Roman,serif" font-size="14.00">Normalized count: 1.00</text>
<text text-anchor="middle" x="775.24" y="-947.05" font-family="Times New Roman,serif" font-size="14.00">Samples weight: 0.00</text>
</g>
<!-- BB6&#45;&gt;BB7 -->
<g id="edge10" class="edge">
<title>BB6&#45;&gt;BB7</title>
<path fill="none" stroke="black" d="M630.36,-1066.24C654.24,-1051.08 681.85,-1033.54 706.52,-1017.88"/>
<polygon fill="black" stroke="black" points="708.55,-1020.74 715.12,-1012.42 704.8,-1014.83 708.55,-1020.74"/>
</g>
<!-- BB8 -->
<g id="node9" class="node">
<title>BB8</title>
<ellipse fill="none" stroke="black" cx="551.24" cy="-973.25" rx="103.48" ry="48.17"/>
<text text-anchor="middle" x="551.24" y="-992.05" font-family="Times New Roman,serif" font-size="14.00">[6d..72)</text>
<text text-anchor="middle" x="551.24" y="-977.05" font-family="Times New Roman,serif" font-size="14.00">Count: 5</text>
<text text-anchor="middle" x="551.24" y="-962.05" font-family="Times New Roman,serif" font-size="14.00">Normalized count: 1.67</text>
<text text-anchor="middle" x="551.24" y="-947.05" font-family="Times New Roman,serif" font-size="14.00">Samples weight: 0.00</text>
</g>
<!-- BB6&#45;&gt;BB8 -->
<g id="edge9" class="edge">
<title>BB6&#45;&gt;BB8</title>
<path fill="none" stroke="black" d="M563.38,-1057.42C562.16,-1049.05 560.87,-1040.24 559.61,-1031.61"/>
<polygon fill="black" stroke="black" points="563.06,-1031 558.15,-1021.61 556.13,-1032.01 563.06,-1031"/>
</g>
<!-- BB9 -->
<g id="node10" class="node">
<title>BB9</title>
<ellipse fill="none" stroke="black" cx="728.24" cy="-841.08" rx="103.48" ry="48.17"/>
<text text-anchor="middle" x="728.24" y="-859.88" font-family="Times New Roman,serif" font-size="14.00">[72..84)</text>
<text text-anchor="middle" x="728.24" y="-844.88" font-family="Times New Roman,serif" font-size="14.00">Count: 0</text>
<text text-anchor="middle" x="728.24" y="-829.88" font-family="Times New Roman,serif" font-size="14.00">Normalized count: 0.00</text>
<text text-anchor="middle" x="728.24" y="-814.88" font-family="Times New Roman,serif" font-size="14.00">Samples weight: 0.00</text>
</g>
<!-- BB8&#45;&gt;BB9 -->
<g id="edge12" class="edge">
<title>BB8&#45;&gt;BB9</title>
<path fill="none" stroke="black" d="M605.79,-932.13C624.72,-918.21 646.09,-902.49 665.62,-888.13"/>
<polygon fill="black" stroke="black" points="667.89,-890.81 673.87,-882.07 663.74,-885.17 667.89,-890.81"/>
</g>
<!-- BB10 -->
<g id="node11" class="node">
<title>BB10</title>
<ellipse fill="none" stroke="black" cx="504.24" cy="-841.08" rx="103.48" ry="48.17"/>
<text text-anchor="middle" x="504.24" y="-859.88" font-family="Times New Roman,serif" font-size="14.00">[84..8a)</text>
<text text-anchor="middle" x="504.24" y="-844.88" font-family="Times New Roman,serif" font-size="14.00">Count: 5</text>
<text text-anchor="middle" x="504.24" y="-829.88" font-family="Times New Roman,serif" font-size="14.00">Normalized count: 1.67</text>
<text text-anchor="middle" x="504.24" y="-814.88" font-family="Times New Roman,serif" font-size="14.00">Samples weight: 0.00</text>
</g>
<!-- BB8&#45;&gt;BB10 -->
<g id="edge11" class="edge">
<title>BB8&#45;&gt;BB10</title>
<path fill="none" stroke="black" d="M534.4,-925.62C531.2,-916.74 527.81,-907.37 524.51,-898.23"/>
<polygon fill="black" stroke="black" points="527.8,-897.04 521.11,-888.82 521.22,-899.41 527.8,-897.04"/>
</g>
<!-- BB9&#45;&gt;BB10 -->
<g id="edge13" class="edge">
<title>BB9&#45;&gt;BB10</title>
<path fill="none" stroke="black" d="M624.94,-841.08C622.49,-841.08 620.03,-841.08 617.58,-841.08"/>
<polygon fill="black" stroke="black" points="617.49,-837.58 607.49,-841.08 617.49,-844.58 617.49,-837.58"/>
</g>
<!-- BB11 -->
<g id="node12" class="node">
<title>BB11</title>
<ellipse fill="none" stroke="black" cx="458.24" cy="-708.92" rx="103.48" ry="48.17"/>
<text text-anchor="middle" x="458.24" y="-727.72" font-family="Times New Roman,serif" font-size="14.00">[8a..a2)</text>
<text text-anchor="middle" x="458.24" y="-712.72" font-family="Times New Roman,serif" font-size="14.00">Count: 1</text>
<text text-anchor="middle" x="458.24" y="-697.72" font-family="Times New Roman,serif" font-size="14.00">Normalized count: 0.33</text>
<text text-anchor="middle" x="458.24" y="-682.72" font-family="Times New Roman,serif" font-size="14.00">Samples weight: 0.00</text>
</g>
<!-- BB10&#45;&gt;BB11 -->
<g id="edge15" class="edge">
<title>BB10&#45;&gt;BB11</title>
<path fill="none" stroke="black" d="M487.76,-793.46C484.66,-784.67 481.38,-775.4 478.18,-766.35"/>
<polygon fill="black" stroke="black" points="481.39,-764.92 474.75,-756.65 474.79,-767.25 481.39,-764.92"/>
</g>
<!-- BB14 -->
<g id="node15" class="node">
<title>BB14</title>
<ellipse fill="none" stroke="black" cx="682.24" cy="-708.92" rx="103.48" ry="48.17"/>
<text text-anchor="middle" x="682.24" y="-727.72" font-family="Times New Roman,serif" font-size="14.00">[bd..c3)</text>
<text text-anchor="middle" x="682.24" y="-712.72" font-family="Times New Roman,serif" font-size="14.00">Count: 5</text>
<text text-anchor="middle" x="682.24" y="-697.72" font-family="Times New Roman,serif" font-size="14.00">Normalized count: 1.67</text>
<text text-anchor="middle" x="682.24" y="-682.72" font-family="Times New Roman,serif" font-size="14.00">Samples weight: 0.00</text>
</g>
<!-- BB10&#45;&gt;BB14 -->
<g id="edge14" class="edge">
<title>BB10&#45;&gt;BB14</title>
<path fill="none" stroke="black" d="M559.1,-799.97C578.13,-786.04 599.63,-770.33 619.27,-755.96"/>
<polygon fill="black" stroke="black" points="621.55,-758.63 627.56,-749.9 617.42,-752.98 621.55,-758.63"/>
</g>
<!-- BB13 -->
<g id="node14" class="node">
<title>BB13</title>
<ellipse fill="none" stroke="black" cx="458.24" cy="-576.75" rx="103.48" ry="48.17"/>
<text text-anchor="middle" x="458.24" y="-595.55" font-family="Times New Roman,serif" font-size="14.00">[b8..bd)</text>
<text text-anchor="middle" x="458.24" y="-580.55" font-family="Times New Roman,serif" font-size="14.00">Count: 24</text>
<text text-anchor="middle" x="458.24" y="-565.55" font-family="Times New Roman,serif" font-size="14.00">Normalized count: 8.00</text>
<text text-anchor="middle" x="458.24" y="-550.55" font-family="Times New Roman,serif" font-size="14.00">Samples weight: 0.01</text>
</g>
<!-- BB11&#45;&gt;BB13 -->
<g id="edge16" class="edge">
<title>BB11&#45;&gt;BB13</title>
<path fill="none" stroke="black" d="M458.24,-660.55C458.24,-652.29 458.24,-643.6 458.24,-635.1"/>
<polygon fill="black" stroke="black" points="461.74,-634.86 458.24,-624.86 454.74,-634.86 461.74,-634.86"/>
</g>
<!-- BB12 -->
<g id="node13" class="node">
<title>BB12</title>
<ellipse fill="none" stroke="black" cx="458.24" cy="-444.58" rx="103.48" ry="48.17"/>
<text text-anchor="middle" x="458.24" y="-463.38" font-family="Times New Roman,serif" font-size="14.00">[a2..b8)</text>
<text text-anchor="middle" x="458.24" y="-448.38" font-family="Times New Roman,serif" font-size="14.00">Count: 23</text>
<text text-anchor="middle" x="458.24" y="-433.38" font-family="Times New Roman,serif" font-size="14.00">Normalized count: 7.67</text>
<text text-anchor="middle" x="458.24" y="-418.38" font-family="Times New Roman,serif" font-size="14.00">Samples weight: 0.01</text>
</g>
<!-- BB12&#45;&gt;BB13 -->
<g id="edge17" class="edge">
<title>BB12&#45;&gt;BB13</title>
<path fill="none" stroke="black" d="M464.76,-492.94C464.98,-501.24 465.04,-509.95 464.94,-518.48"/>
<polygon fill="black" stroke="black" points="461.44,-518.69 464.75,-528.76 468.44,-518.82 461.44,-518.69"/>
</g>
<!-- BB13&#45;&gt;BB12 -->
<g id="edge18" class="edge">
<title>BB13&#45;&gt;BB12</title>
<path fill="none" stroke="black" d="M451.72,-528.76C451.5,-520.38 451.43,-511.57 451.53,-502.95"/>
<polygon fill="black" stroke="black" points="455.03,-503.01 451.72,-492.94 448.03,-502.88 455.03,-503.01"/>
</g>
<!-- BB13&#45;&gt;BB14 -->
<g id="edge19" class="edge">
<title>BB13&#45;&gt;BB14</title>
<path fill="none" stroke="black" d="M521.99,-614.79C549.43,-630.74 581.66,-649.47 609.99,-665.93"/>
<polygon fill="black" stroke="black" points="608.24,-668.97 618.65,-670.96 611.76,-662.91 608.24,-668.97"/>
</g>
<!-- BB15 -->
<g id="node16" class="node">
<title>BB15</title>
<ellipse fill="none" stroke="black" cx="682.24" cy="-576.75" rx="103.48" ry="48.17"/>
<text text-anchor="middle" x="682.24" y="-595.55" font-family="Times New Roman,serif" font-size="14.00">[c3..ca)</text>
<text text-anchor="middle" x="682.24" y="-580.55" font-family="Times New Roman,serif" font-size="14.00">Count: 1</text>
<text text-anchor="middle" x="682.24" y="-565.55" font-family="Times New Roman,serif" font-size="14.00">Normalized count: 0.33</text>
<text text-anchor="middle" x="682.24" y="-550.55" font-family="Times New Roman,serif" font-size="14.00">Samples weight: 0.00</text>
</g>
<!-- BB14&#45;&gt;BB15 -->
<g id="edge21" class="edge">
<title>BB14&#45;&gt;BB15</title>
<path fill="none" stroke="black" d="M682.24,-660.55C682.24,-652.29 682.24,-643.6 682.24,-635.1"/>
<polygon fill="black" stroke="black" points="685.74,-634.86 682.24,-624.86 678.74,-634.86 685.74,-634.86"/>
</g>
<!-- BB21 -->
<g id="node22" class="node">
<title>BB21</title>
<ellipse fill="none" stroke="black" cx="906.24" cy="-576.75" rx="103.48" ry="48.17"/>
<text text-anchor="middle" x="906.24" y="-595.55" font-family="Times New Roman,serif" font-size="14.00">[10d..111)</text>
<text text-anchor="middle" x="906.24" y="-580.55" font-family="Times New Roman,serif" font-size="14.00">Count: 5</text>
<text text-anchor="middle" x="906.24" y="-565.55" font-family="Times New Roman,serif" font-size="14.00">Normalized count: 1.67</text>
<text text-anchor="middle" x="906.24" y="-550.55" font-family="Times New Roman,serif" font-size="14.00">Samples weight: 0.00</text>
</g>
<!-- BB14&#45;&gt;BB21 -->
<g id="edge20" class="edge">
<title>BB14&#45;&gt;BB21</title>
<path fill="none" stroke="black" d="M745.83,-670.96C773.26,-655.02 805.48,-636.3 833.83,-619.83"/>
<polygon fill="black" stroke="black" points="835.6,-622.84 842.49,-614.79 832.08,-616.79 835.6,-622.84"/>
</g>
<!-- BB20 -->
<g id="node21" class="node">
<title>BB20</title>
<ellipse fill="none" stroke="black" cx="796.24" cy="-444.58" rx="108.38" ry="48.17"/>
<text text-anchor="middle" x="796.24" y="-463.38" font-family="Times New Roman,serif" font-size="14.00">[108..10d)</text>
<text text-anchor="middle" x="796.24" y="-448.38" font-family="Times New Roman,serif" font-size="14.00">Count: 72</text>
<text text-anchor="middle" x="796.24" y="-433.38" font-family="Times New Roman,serif" font-size="14.00">Normalized count: 24.00</text>
<text text-anchor="middle" x="796.24" y="-418.38" font-family="Times New Roman,serif" font-size="14.00">Samples weight: 0.02</text>
</g>
<!-- BB15&#45;&gt;BB20 -->
<g id="edge22" class="edge">
<title>BB15&#45;&gt;BB20</title>
<path fill="none" stroke="black" d="M720.52,-532.04C730.19,-521 740.66,-509.04 750.66,-497.63"/>
<polygon fill="black" stroke="black" points="753.52,-499.67 757.48,-489.84 748.26,-495.06 753.52,-499.67"/>
</g>
<!-- BB16 -->
<g id="node17" class="node">
<title>BB16</title>
<ellipse fill="none" stroke="black" cx="865.24" cy="-312.42" rx="108.38" ry="48.17"/>
<text text-anchor="middle" x="865.24" y="-331.22" font-family="Times New Roman,serif" font-size="14.00">[ca..e2)</text>
<text text-anchor="middle" x="865.24" y="-316.22" font-family="Times New Roman,serif" font-size="14.00">Count: 71</text>
<text text-anchor="middle" x="865.24" y="-301.22" font-family="Times New Roman,serif" font-size="14.00">Normalized count: 23.67</text>
<text text-anchor="middle" x="865.24" y="-286.22" font-family="Times New Roman,serif" font-size="14.00">Samples weight: 0.02</text>
</g>
<!-- BB18 -->
<g id="node19" class="node">
<title>BB18</title>
<ellipse fill="none" stroke="black" cx="892.24" cy="-180.25" rx="113.27" ry="48.17"/>
<text text-anchor="middle" x="892.24" y="-199.05" font-family="Times New Roman,serif" font-size="14.00">[fd..102)</text>
<text text-anchor="middle" x="892.24" y="-184.05" font-family="Times New Roman,serif" font-size="14.00">Count: 1590</text>
<text text-anchor="middle" x="892.24" y="-169.05" font-family="Times New Roman,serif" font-size="14.00">Normalized count: 530.00</text>
<text text-anchor="middle" x="892.24" y="-154.05" font-family="Times New Roman,serif" font-size="14.00">Samples weight: 0.45</text>
</g>
<!-- BB16&#45;&gt;BB18 -->
<g id="edge23" class="edge">
<title>BB16&#45;&gt;BB18</title>
<path fill="none" stroke="black" d="M874.99,-264.42C876.76,-255.85 878.64,-246.83 880.46,-238.01"/>
<polygon fill="black" stroke="black" points="883.9,-238.68 882.5,-228.17 877.05,-237.25 883.9,-238.68"/>
</g>
<!-- BB17 -->
<g id="node18" class="node">
<title>BB17</title>
<ellipse fill="none" stroke="black" cx="917.24" cy="-48.08" rx="113.27" ry="48.17"/>
<text text-anchor="middle" x="917.24" y="-66.88" font-family="Times New Roman,serif" font-size="14.00">[e2..fd)</text>
<text text-anchor="middle" x="917.24" y="-51.88" font-family="Times New Roman,serif" font-size="14.00">Count: 1519</text>
<text text-anchor="middle" x="917.24" y="-36.88" font-family="Times New Roman,serif" font-size="14.00">Normalized count: 506.33</text>
<text text-anchor="middle" x="917.24" y="-21.88" font-family="Times New Roman,serif" font-size="14.00">Samples weight: 0.43</text>
</g>
<!-- BB17&#45;&gt;BB18 -->
<g id="edge24" class="edge">
<title>BB17&#45;&gt;BB18</title>
<path fill="none" stroke="black" d="M914.66,-96.44C913.27,-104.83 911.64,-113.64 909.89,-122.26"/>
<polygon fill="black" stroke="black" points="906.42,-121.75 907.78,-132.26 913.27,-123.2 906.42,-121.75"/>
</g>
<!-- BB18&#45;&gt;BB17 -->
<g id="edge25" class="edge">
<title>BB18&#45;&gt;BB17</title>
<path fill="none" stroke="black" d="M894.81,-131.89C896.23,-123.33 897.9,-114.33 899.7,-105.55"/>
<polygon fill="black" stroke="black" points="903.12,-106.26 901.77,-95.76 896.27,-104.81 903.12,-106.26"/>
</g>
<!-- BB19 -->
<g id="node20" class="node">
<title>BB19</title>
<ellipse fill="none" stroke="black" cx="678.24" cy="-48.08" rx="108.38" ry="48.17"/>
<text text-anchor="middle" x="678.24" y="-66.88" font-family="Times New Roman,serif" font-size="14.00">[102..108)</text>
<text text-anchor="middle" x="678.24" y="-51.88" font-family="Times New Roman,serif" font-size="14.00">Count: 71</text>
<text text-anchor="middle" x="678.24" y="-36.88" font-family="Times New Roman,serif" font-size="14.00">Normalized count: 23.67</text>
<text text-anchor="middle" x="678.24" y="-21.88" font-family="Times New Roman,serif" font-size="14.00">Samples weight: 0.02</text>
</g>
<!-- BB18&#45;&gt;BB19 -->
<g id="edge26" class="edge">
<title>BB18&#45;&gt;BB19</title>
<path fill="none" stroke="black" d="M828.32,-140.37C803.64,-125.36 775.29,-108.12 749.93,-92.69"/>
<polygon fill="black" stroke="black" points="751.45,-89.52 741.09,-87.31 747.81,-95.5 751.45,-89.52"/>
</g>
<!-- BB19&#45;&gt;BB20 -->
<g id="edge27" class="edge">
<title>BB19&#45;&gt;BB20</title>
<path fill="none" stroke="black" d="M684.3,-96.29C693.31,-158.46 713.05,-270.43 748.24,-360.5 752,-370.14 756.77,-380 761.83,-389.4"/>
<polygon fill="black" stroke="black" points="758.83,-391.2 766.75,-398.24 764.95,-387.8 758.83,-391.2"/>
</g>
<!-- BB20&#45;&gt;BB16 -->
<g id="edge28" class="edge">
<title>BB20&#45;&gt;BB16</title>
<path fill="none" stroke="black" d="M820.56,-397.69C825.61,-388.16 830.98,-378.03 836.18,-368.23"/>
<polygon fill="black" stroke="black" points="839.31,-369.81 840.9,-359.33 833.12,-366.53 839.31,-369.81"/>
</g>
<!-- BB20&#45;&gt;BB21 -->
<g id="edge29" class="edge">
<title>BB20&#45;&gt;BB21</title>
<path fill="none" stroke="black" d="M833.81,-490.05C843.05,-500.98 853.01,-512.77 862.51,-524.01"/>
<polygon fill="black" stroke="black" points="859.87,-526.3 869,-531.68 865.22,-521.78 859.87,-526.3"/>
</g>
<!-- BB21&#45;&gt;BB22 -->
<g id="edge30" class="edge">
<title>BB21&#45;&gt;BB22</title>
<path fill="none" stroke="black" d="M906.24,-625.14C906.24,-677.68 906.24,-764.93 906.24,-840.08 906.24,-1238.58 906.24,-1238.58 906.24,-1238.58 906.24,-1309.03 906.24,-1390.13 906.24,-1443.28"/>
<polygon fill="black" stroke="black" points="902.74,-1443.52 906.24,-1453.52 909.74,-1443.52 902.74,-1443.52"/>
</g>
<!-- BB22&#45;&gt;BB1 -->
<g id="edge31" class="edge">
<title>BB22&#45;&gt;BB1</title>
<path fill="none" stroke="black" d="M842.65,-1463.96C815.22,-1448.02 782.99,-1429.3 754.65,-1412.83"/>
<polygon fill="black" stroke="black" points="756.39,-1409.79 745.99,-1407.79 752.87,-1415.84 756.39,-1409.79"/>
</g>
<!-- BB23 -->
<g id="node24" class="node">
<title>BB23</title>
<ellipse fill="none" stroke="black" cx="1037.24" cy="-1369.75" rx="103.48" ry="48.17"/>
<text text-anchor="middle" x="1037.24" y="-1388.55" font-family="Times New Roman,serif" font-size="14.00">[118..11a)</text>
<text text-anchor="middle" x="1037.24" y="-1373.55" font-family="Times New Roman,serif" font-size="14.00">Count: 0</text>
<text text-anchor="middle" x="1037.24" y="-1358.55" font-family="Times New Roman,serif" font-size="14.00">Normalized count: 0.00</text>
<text text-anchor="middle" x="1037.24" y="-1343.55" font-family="Times New Roman,serif" font-size="14.00">Samples weight: 0.00</text>
</g>
<!-- BB22&#45;&gt;BB23 -->
<g id="edge32" class="edge">
<title>BB22&#45;&gt;BB23</title>
<path fill="none" stroke="black" d="M949.49,-1457.93C961.46,-1446.05 974.54,-1433.05 986.87,-1420.8"/>
<polygon fill="black" stroke="black" points="989.4,-1423.22 994.03,-1413.69 984.47,-1418.25 989.4,-1423.22"/>
</g>
</g>
</svg>
