<?xml version="1.0" encoding="UTF-8" standalone="no"?>
<!DOCTYPE svg PUBLIC "-//W3C//DTD SVG 1.1//EN"
 "http://www.w3.org/Graphics/SVG/1.1/DTD/svg11.dtd">
<!-- Generated by graphviz version 2.47.0 (20210316.0004)
 -->
<!-- Title: G Pages: 1 -->
<svg width="681pt" height="749pt"
 viewBox="0.00 0.00 680.94 748.67" xmlns="http://www.w3.org/2000/svg" xmlns:xlink="http://www.w3.org/1999/xlink">
<g id="graph0" class="graph" transform="scale(1 1) rotate(0) translate(4 744.67)">
<title>G</title>
<polygon fill="white" stroke="transparent" points="-4,4 -4,-744.67 676.94,-744.67 676.94,4 -4,4"/>
<!-- BB0 -->
<g id="node1" class="node">
<title>BB0</title>
<ellipse fill="none" stroke="black" cx="286.4" cy="-703.2" rx="105.22" ry="37.45"/>
<text text-anchor="middle" x="286.4" y="-714.5" font-family="Times New Roman,serif" font-size="14.00">[0..a)</text>
<text text-anchor="middle" x="286.4" y="-699.5" font-family="Times New Roman,serif" font-size="14.00">Normalized Count: 1.00</text>
<text text-anchor="middle" x="286.4" y="-684.5" font-family="Times New Roman,serif" font-size="14.00">Samples weight: 0.00</text>
</g>
<!-- BB8 -->
<g id="node9" class="node">
<title>BB8</title>
<ellipse fill="none" stroke="black" cx="286.4" cy="-592.24" rx="129.3" ry="37.45"/>
<text text-anchor="middle" x="286.4" y="-603.54" font-family="Times New Roman,serif" font-size="14.00">[51..56)</text>
<text text-anchor="middle" x="286.4" y="-588.54" font-family="Times New Roman,serif" font-size="14.00">Normalized Count: 100001.00</text>
<text text-anchor="middle" x="286.4" y="-573.54" font-family="Times New Roman,serif" font-size="14.00">Samples weight: 0.00</text>
</g>
<!-- BB0&#45;&gt;BB8 -->
<g id="edge1" class="edge">
<title>BB0&#45;&gt;BB8</title>
<path fill="none" stroke="black" d="M286.4,-665.61C286.4,-657.44 286.4,-648.66 286.4,-640.13"/>
<polygon fill="black" stroke="black" points="289.9,-639.92 286.4,-629.92 282.9,-639.92 289.9,-639.92"/>
</g>
<!-- BB1 -->
<g id="node2" class="node">
<title>BB1</title>
<ellipse fill="none" stroke="black" cx="286.4" cy="-481.29" rx="129.3" ry="37.45"/>
<text text-anchor="middle" x="286.4" y="-492.59" font-family="Times New Roman,serif" font-size="14.00">[a..e)</text>
<text text-anchor="middle" x="286.4" y="-477.59" font-family="Times New Roman,serif" font-size="14.00">Normalized Count: 100000.00</text>
<text text-anchor="middle" x="286.4" y="-462.59" font-family="Times New Roman,serif" font-size="14.00">Samples weight: 0.00</text>
</g>
<!-- BB6 -->
<g id="node7" class="node">
<title>BB6</title>
<ellipse fill="none" stroke="black" cx="294.4" cy="-370.34" rx="143.59" ry="37.45"/>
<text text-anchor="middle" x="294.4" y="-381.64" font-family="Times New Roman,serif" font-size="14.00">[49..4d)</text>
<text text-anchor="middle" x="294.4" y="-366.64" font-family="Times New Roman,serif" font-size="14.00">Normalized Count: 100100000.00</text>
<text text-anchor="middle" x="294.4" y="-351.64" font-family="Times New Roman,serif" font-size="14.00">Samples weight: 0.07</text>
</g>
<!-- BB1&#45;&gt;BB6 -->
<g id="edge2" class="edge">
<title>BB1&#45;&gt;BB6</title>
<path fill="none" stroke="black" d="M289.09,-443.71C289.69,-435.53 290.33,-426.75 290.96,-418.23"/>
<polygon fill="black" stroke="black" points="294.47,-418.24 291.71,-408.01 287.48,-417.73 294.47,-418.24"/>
</g>
<!-- BB2 -->
<g id="node3" class="node">
<title>BB2</title>
<ellipse fill="none" stroke="black" cx="495.4" cy="-259.38" rx="143.59" ry="37.45"/>
<text text-anchor="middle" x="495.4" y="-270.68" font-family="Times New Roman,serif" font-size="14.00">[e..26)</text>
<text text-anchor="middle" x="495.4" y="-255.68" font-family="Times New Roman,serif" font-size="14.00">Normalized Count: 100000000.00</text>
<text text-anchor="middle" x="495.4" y="-240.68" font-family="Times New Roman,serif" font-size="14.00">Samples weight: 0.07</text>
</g>
<!-- BB4 -->
<g id="node5" class="node">
<title>BB4</title>
<ellipse fill="none" stroke="black" cx="512.4" cy="-148.43" rx="143.59" ry="37.45"/>
<text text-anchor="middle" x="512.4" y="-159.73" font-family="Times New Roman,serif" font-size="14.00">[3b..41)</text>
<text text-anchor="middle" x="512.4" y="-144.73" font-family="Times New Roman,serif" font-size="14.00">Normalized Count: 600000000.00</text>
<text text-anchor="middle" x="512.4" y="-129.73" font-family="Times New Roman,serif" font-size="14.00">Samples weight: 0.43</text>
</g>
<!-- BB2&#45;&gt;BB4 -->
<g id="edge3" class="edge">
<title>BB2&#45;&gt;BB4</title>
<path fill="none" stroke="black" d="M501.11,-221.8C502.4,-213.54 503.78,-204.65 505.13,-196.04"/>
<polygon fill="black" stroke="black" points="508.6,-196.52 506.68,-186.1 501.68,-195.44 508.6,-196.52"/>
</g>
<!-- BB3 -->
<g id="node4" class="node">
<title>BB3</title>
<ellipse fill="none" stroke="black" cx="529.4" cy="-37.48" rx="143.59" ry="37.45"/>
<text text-anchor="middle" x="529.4" y="-48.78" font-family="Times New Roman,serif" font-size="14.00">[26..3b)</text>
<text text-anchor="middle" x="529.4" y="-33.78" font-family="Times New Roman,serif" font-size="14.00">Normalized Count: 500000000.00</text>
<text text-anchor="middle" x="529.4" y="-18.78" font-family="Times New Roman,serif" font-size="14.00">Samples weight: 0.36</text>
</g>
<!-- BB3&#45;&gt;BB4 -->
<g id="edge4" class="edge">
<title>BB3&#45;&gt;BB4</title>
<path fill="none" stroke="black" d="M530.1,-75.15C529.13,-83.42 527.83,-92.3 526.34,-100.91"/>
<polygon fill="black" stroke="black" points="522.88,-100.38 524.52,-110.85 529.77,-101.64 522.88,-100.38"/>
</g>
<!-- BB4&#45;&gt;BB3 -->
<g id="edge5" class="edge">
<title>BB4&#45;&gt;BB3</title>
<path fill="none" stroke="black" d="M511.69,-110.85C512.66,-102.58 513.96,-93.7 515.44,-85.09"/>
<polygon fill="black" stroke="black" points="518.9,-85.62 517.26,-75.15 512.02,-84.35 518.9,-85.62"/>
</g>
<!-- BB5 -->
<g id="node6" class="node">
<title>BB5</title>
<ellipse fill="none" stroke="black" cx="224.4" cy="-37.48" rx="143.59" ry="37.45"/>
<text text-anchor="middle" x="224.4" y="-48.78" font-family="Times New Roman,serif" font-size="14.00">[41..49)</text>
<text text-anchor="middle" x="224.4" y="-33.78" font-family="Times New Roman,serif" font-size="14.00">Normalized Count: 100000000.00</text>
<text text-anchor="middle" x="224.4" y="-18.78" font-family="Times New Roman,serif" font-size="14.00">Samples weight: 0.07</text>
</g>
<!-- BB4&#45;&gt;BB5 -->
<g id="edge6" class="edge">
<title>BB4&#45;&gt;BB5</title>
<path fill="none" stroke="black" d="M432.56,-117.23C395.73,-103.29 351.86,-86.69 313.91,-72.34"/>
<polygon fill="black" stroke="black" points="314.99,-69.01 304.4,-68.74 312.51,-75.55 314.99,-69.01"/>
</g>
<!-- BB5&#45;&gt;BB6 -->
<g id="edge7" class="edge">
<title>BB5&#45;&gt;BB6</title>
<path fill="none" stroke="black" d="M233.5,-74.9C242.59,-111.83 256.71,-170.68 267.4,-221.91 274.44,-255.63 281.42,-293.9 286.52,-323"/>
<polygon fill="black" stroke="black" points="283.07,-323.64 288.24,-332.89 289.97,-322.43 283.07,-323.64"/>
</g>
<!-- BB6&#45;&gt;BB2 -->
<g id="edge8" class="edge">
<title>BB6&#45;&gt;BB2</title>
<path fill="none" stroke="black" d="M355.25,-336.35C377.39,-324.35 402.58,-310.7 425.44,-298.31"/>
<polygon fill="black" stroke="black" points="427.29,-301.29 434.41,-293.44 423.95,-295.13 427.29,-301.29"/>
</g>
<!-- BB7 -->
<g id="node8" class="node">
<title>BB7</title>
<ellipse fill="none" stroke="black" cx="129.4" cy="-259.38" rx="129.3" ry="37.45"/>
<text text-anchor="middle" x="129.4" y="-270.68" font-family="Times New Roman,serif" font-size="14.00">[4d..51)</text>
<text text-anchor="middle" x="129.4" y="-255.68" font-family="Times New Roman,serif" font-size="14.00">Normalized Count: 100000.00</text>
<text text-anchor="middle" x="129.4" y="-240.68" font-family="Times New Roman,serif" font-size="14.00">Samples weight: 0.00</text>
</g>
<!-- BB6&#45;&gt;BB7 -->
<g id="edge9" class="edge">
<title>BB6&#45;&gt;BB7</title>
<path fill="none" stroke="black" d="M242.65,-335.16C225.51,-323.85 206.31,-311.17 188.65,-299.51"/>
<polygon fill="black" stroke="black" points="190.4,-296.47 180.12,-293.88 186.54,-302.31 190.4,-296.47"/>
</g>
<!-- BB7&#45;&gt;BB8 -->
<g id="edge10" class="edge">
<title>BB7&#45;&gt;BB8</title>
<path fill="none" stroke="black" d="M121.77,-296.83C112.7,-350.27 103.89,-450.87 148.4,-518.77 159.33,-535.44 175.39,-548.51 192.73,-558.69"/>
<polygon fill="black" stroke="black" points="191.45,-561.98 201.9,-563.74 194.84,-555.85 191.45,-561.98"/>
</g>
<!-- BB8&#45;&gt;BB1 -->
<g id="edge11" class="edge">
<title>BB8&#45;&gt;BB1</title>
<path fill="none" stroke="black" d="M286.4,-554.66C286.4,-546.49 286.4,-537.71 286.4,-529.18"/>
<polygon fill="black" stroke="black" points="289.9,-528.96 286.4,-518.96 282.9,-528.96 289.9,-528.96"/>
</g>
<!-- BB9 -->
<g id="node10" class="node">
<title>BB9</title>
<ellipse fill="none" stroke="black" cx="539.4" cy="-481.29" rx="105.22" ry="37.45"/>
<text text-anchor="middle" x="539.4" y="-492.59" font-family="Times New Roman,serif" font-size="14.00">[56..57)</text>
<text text-anchor="middle" x="539.4" y="-477.59" font-family="Times New Roman,serif" font-size="14.00">Normalized Count: 1.00</text>
<text text-anchor="middle" x="539.4" y="-462.59" font-family="Times New Roman,serif" font-size="14.00">Samples weight: 0.00</text>
</g>
<!-- BB8&#45;&gt;BB9 -->
<g id="edge12" class="edge">
<title>BB8&#45;&gt;BB9</title>
<path fill="none" stroke="black" d="M357.21,-560.75C390.48,-546.42 430.18,-529.33 464.01,-514.76"/>
<polygon fill="black" stroke="black" points="465.58,-517.89 473.38,-510.72 462.82,-511.46 465.58,-517.89"/>
</g>
</g>
</svg>
