<?xml version="1.0" encoding="UTF-8" standalone="no"?>
<!DOCTYPE svg PUBLIC "-//W3C//DTD SVG 1.1//EN"
 "http://www.w3.org/Graphics/SVG/1.1/DTD/svg11.dtd">
<!-- Generated by graphviz version 2.47.0 (20210316.0004)
 -->
<!-- Title: G Pages: 1 -->
<svg width="594pt" height="897pt"
 viewBox="0.00 0.00 594.47 897.17" xmlns="http://www.w3.org/2000/svg" xmlns:xlink="http://www.w3.org/1999/xlink">
<g id="graph0" class="graph" transform="scale(1 1) rotate(0) translate(4 893.17)">
<title>G</title>
<polygon fill="white" stroke="transparent" points="-4,4 -4,-893.17 590.47,-893.17 590.47,4 -4,4"/>
<!-- BB0 -->
<g id="node1" class="node">
<title>BB0</title>
<ellipse fill="none" stroke="black" cx="244.19" cy="-841.08" rx="103.48" ry="48.17"/>
<text text-anchor="middle" x="244.19" y="-859.88" font-family="Times New Roman,serif" font-size="14.00">[0..a)</text>
<text text-anchor="middle" x="244.19" y="-844.88" font-family="Times New Roman,serif" font-size="14.00">Count: 2</text>
<text text-anchor="middle" x="244.19" y="-829.88" font-family="Times New Roman,serif" font-size="14.00">Normalized count: 1.00</text>
<text text-anchor="middle" x="244.19" y="-814.88" font-family="Times New Roman,serif" font-size="14.00">Samples weight: 0.00</text>
</g>
<!-- BB8 -->
<g id="node9" class="node">
<title>BB8</title>
<ellipse fill="none" stroke="black" cx="244.19" cy="-708.92" rx="108.38" ry="48.17"/>
<text text-anchor="middle" x="244.19" y="-727.72" font-family="Times New Roman,serif" font-size="14.00">[51..56)</text>
<text text-anchor="middle" x="244.19" y="-712.72" font-family="Times New Roman,serif" font-size="14.00">Count: 84</text>
<text text-anchor="middle" x="244.19" y="-697.72" font-family="Times New Roman,serif" font-size="14.00">Normalized count: 42.00</text>
<text text-anchor="middle" x="244.19" y="-682.72" font-family="Times New Roman,serif" font-size="14.00">Samples weight: 0.00</text>
</g>
<!-- BB0&#45;&gt;BB8 -->
<g id="edge1" class="edge">
<title>BB0&#45;&gt;BB8</title>
<path fill="none" stroke="black" d="M244.19,-792.72C244.19,-784.45 244.19,-775.77 244.19,-767.27"/>
<polygon fill="black" stroke="black" points="247.69,-767.02 244.19,-757.02 240.69,-767.02 247.69,-767.02"/>
</g>
<!-- BB1 -->
<g id="node2" class="node">
<title>BB1</title>
<ellipse fill="none" stroke="black" cx="244.19" cy="-576.75" rx="108.38" ry="48.17"/>
<text text-anchor="middle" x="244.19" y="-595.55" font-family="Times New Roman,serif" font-size="14.00">[a..e)</text>
<text text-anchor="middle" x="244.19" y="-580.55" font-family="Times New Roman,serif" font-size="14.00">Count: 82</text>
<text text-anchor="middle" x="244.19" y="-565.55" font-family="Times New Roman,serif" font-size="14.00">Normalized count: 41.00</text>
<text text-anchor="middle" x="244.19" y="-550.55" font-family="Times New Roman,serif" font-size="14.00">Samples weight: 0.00</text>
</g>
<!-- BB6 -->
<g id="node7" class="node">
<title>BB6</title>
<ellipse fill="none" stroke="black" cx="251.19" cy="-444.58" rx="122.16" ry="48.17"/>
<text text-anchor="middle" x="251.19" y="-463.38" font-family="Times New Roman,serif" font-size="14.00">[49..4d)</text>
<text text-anchor="middle" x="251.19" y="-448.38" font-family="Times New Roman,serif" font-size="14.00">Count: 81566</text>
<text text-anchor="middle" x="251.19" y="-433.38" font-family="Times New Roman,serif" font-size="14.00">Normalized count: 40783.00</text>
<text text-anchor="middle" x="251.19" y="-418.38" font-family="Times New Roman,serif" font-size="14.00">Samples weight: 0.07</text>
</g>
<!-- BB1&#45;&gt;BB6 -->
<g id="edge2" class="edge">
<title>BB1&#45;&gt;BB6</title>
<path fill="none" stroke="black" d="M246.73,-528.39C247.18,-520.12 247.65,-511.44 248.1,-502.93"/>
<polygon fill="black" stroke="black" points="251.61,-502.86 248.65,-492.69 244.62,-502.49 251.61,-502.86"/>
</g>
<!-- BB2 -->
<g id="node3" class="node">
<title>BB2</title>
<ellipse fill="none" stroke="black" cx="413.19" cy="-312.42" rx="122.16" ry="48.17"/>
<text text-anchor="middle" x="413.19" y="-331.22" font-family="Times New Roman,serif" font-size="14.00">[e..26)</text>
<text text-anchor="middle" x="413.19" y="-316.22" font-family="Times New Roman,serif" font-size="14.00">Count: 81484</text>
<text text-anchor="middle" x="413.19" y="-301.22" font-family="Times New Roman,serif" font-size="14.00">Normalized count: 40742.00</text>
<text text-anchor="middle" x="413.19" y="-286.22" font-family="Times New Roman,serif" font-size="14.00">Samples weight: 0.07</text>
</g>
<!-- BB4 -->
<g id="node5" class="node">
<title>BB4</title>
<ellipse fill="none" stroke="black" cx="430.19" cy="-180.25" rx="127.06" ry="48.17"/>
<text text-anchor="middle" x="430.19" y="-199.05" font-family="Times New Roman,serif" font-size="14.00">[3b..41)</text>
<text text-anchor="middle" x="430.19" y="-184.05" font-family="Times New Roman,serif" font-size="14.00">Count: 514309</text>
<text text-anchor="middle" x="430.19" y="-169.05" font-family="Times New Roman,serif" font-size="14.00">Normalized count: 257154.50</text>
<text text-anchor="middle" x="430.19" y="-154.05" font-family="Times New Roman,serif" font-size="14.00">Samples weight: 0.43</text>
</g>
<!-- BB2&#45;&gt;BB4 -->
<g id="edge3" class="edge">
<title>BB2&#45;&gt;BB4</title>
<path fill="none" stroke="black" d="M419.37,-264.05C420.46,-255.7 421.61,-246.91 422.73,-238.32"/>
<polygon fill="black" stroke="black" points="426.21,-238.73 424.03,-228.36 419.27,-237.82 426.21,-238.73"/>
</g>
<!-- BB3 -->
<g id="node4" class="node">
<title>BB3</title>
<ellipse fill="none" stroke="black" cx="459.19" cy="-48.08" rx="127.06" ry="48.17"/>
<text text-anchor="middle" x="459.19" y="-66.88" font-family="Times New Roman,serif" font-size="14.00">[26..3b)</text>
<text text-anchor="middle" x="459.19" y="-51.88" font-family="Times New Roman,serif" font-size="14.00">Count: 432825</text>
<text text-anchor="middle" x="459.19" y="-36.88" font-family="Times New Roman,serif" font-size="14.00">Normalized count: 216412.50</text>
<text text-anchor="middle" x="459.19" y="-21.88" font-family="Times New Roman,serif" font-size="14.00">Samples weight: 0.36</text>
</g>
<!-- BB3&#45;&gt;BB4 -->
<g id="edge4" class="edge">
<title>BB3&#45;&gt;BB4</title>
<path fill="none" stroke="black" d="M455.16,-96.44C453.51,-104.83 451.61,-113.64 449.59,-122.26"/>
<polygon fill="black" stroke="black" points="446.12,-121.71 447.17,-132.26 452.92,-123.36 446.12,-121.71"/>
</g>
<!-- BB4&#45;&gt;BB3 -->
<g id="edge5" class="edge">
<title>BB4&#45;&gt;BB3</title>
<path fill="none" stroke="black" d="M434.22,-131.89C435.9,-123.33 437.84,-114.33 439.91,-105.55"/>
<polygon fill="black" stroke="black" points="443.33,-106.3 442.29,-95.76 436.53,-104.65 443.33,-106.3"/>
</g>
<!-- BB5 -->
<g id="node6" class="node">
<title>BB5</title>
<ellipse fill="none" stroke="black" cx="191.19" cy="-48.08" rx="122.16" ry="48.17"/>
<text text-anchor="middle" x="191.19" y="-66.88" font-family="Times New Roman,serif" font-size="14.00">[41..49)</text>
<text text-anchor="middle" x="191.19" y="-51.88" font-family="Times New Roman,serif" font-size="14.00">Count: 81484</text>
<text text-anchor="middle" x="191.19" y="-36.88" font-family="Times New Roman,serif" font-size="14.00">Normalized count: 40742.00</text>
<text text-anchor="middle" x="191.19" y="-21.88" font-family="Times New Roman,serif" font-size="14.00">Samples weight: 0.07</text>
</g>
<!-- BB4&#45;&gt;BB5 -->
<g id="edge6" class="edge">
<title>BB4&#45;&gt;BB5</title>
<path fill="none" stroke="black" d="M358.8,-140.37C331.13,-125.3 299.31,-107.97 270.89,-92.49"/>
<polygon fill="black" stroke="black" points="272.25,-89.25 261.79,-87.54 268.9,-95.39 272.25,-89.25"/>
</g>
<!-- BB5&#45;&gt;BB6 -->
<g id="edge7" class="edge">
<title>BB5&#45;&gt;BB6</title>
<path fill="none" stroke="black" d="M198.79,-96.09C205.79,-139.67 216.4,-206.35 225.19,-264.33 231.36,-305.08 238.03,-351.09 243.06,-386.29"/>
<polygon fill="black" stroke="black" points="239.63,-386.98 244.51,-396.38 246.56,-385.99 239.63,-386.98"/>
</g>
<!-- BB6&#45;&gt;BB2 -->
<g id="edge8" class="edge">
<title>BB6&#45;&gt;BB2</title>
<path fill="none" stroke="black" d="M304.23,-400.96C319.56,-388.65 336.4,-375.11 352.17,-362.45"/>
<polygon fill="black" stroke="black" points="354.7,-364.9 360.3,-355.91 350.31,-359.45 354.7,-364.9"/>
</g>
<!-- BB7 -->
<g id="node8" class="node">
<title>BB7</title>
<ellipse fill="none" stroke="black" cx="108.19" cy="-312.42" rx="108.38" ry="48.17"/>
<text text-anchor="middle" x="108.19" y="-331.22" font-family="Times New Roman,serif" font-size="14.00">[4d..51)</text>
<text text-anchor="middle" x="108.19" y="-316.22" font-family="Times New Roman,serif" font-size="14.00">Count: 82</text>
<text text-anchor="middle" x="108.19" y="-301.22" font-family="Times New Roman,serif" font-size="14.00">Normalized count: 41.00</text>
<text text-anchor="middle" x="108.19" y="-286.22" font-family="Times New Roman,serif" font-size="14.00">Samples weight: 0.00</text>
</g>
<!-- BB6&#45;&gt;BB7 -->
<g id="edge9" class="edge">
<title>BB6&#45;&gt;BB7</title>
<path fill="none" stroke="black" d="M203.57,-400.24C190.41,-388.26 176.03,-375.17 162.51,-362.87"/>
<polygon fill="black" stroke="black" points="164.86,-360.27 155.11,-356.13 160.15,-365.45 164.86,-360.27"/>
</g>
<!-- BB7&#45;&gt;BB8 -->
<g id="edge10" class="edge">
<title>BB7&#45;&gt;BB8</title>
<path fill="none" stroke="black" d="M99.15,-360.41C89.34,-424.57 80.69,-541.14 127.19,-624.83 136.22,-641.09 149.94,-654.94 164.84,-666.39"/>
<polygon fill="black" stroke="black" points="163.08,-669.44 173.22,-672.51 167.21,-663.78 163.08,-669.44"/>
</g>
<!-- BB8&#45;&gt;BB1 -->
<g id="edge11" class="edge">
<title>BB8&#45;&gt;BB1</title>
<path fill="none" stroke="black" d="M244.19,-660.55C244.19,-652.29 244.19,-643.6 244.19,-635.1"/>
<polygon fill="black" stroke="black" points="247.69,-634.86 244.19,-624.86 240.69,-634.86 247.69,-634.86"/>
</g>
<!-- BB9 -->
<g id="node10" class="node">
<title>BB9</title>
<ellipse fill="none" stroke="black" cx="473.19" cy="-576.75" rx="103.48" ry="48.17"/>
<text text-anchor="middle" x="473.19" y="-595.55" font-family="Times New Roman,serif" font-size="14.00">[56..57)</text>
<text text-anchor="middle" x="473.19" y="-580.55" font-family="Times New Roman,serif" font-size="14.00">Count: 2</text>
<text text-anchor="middle" x="473.19" y="-565.55" font-family="Times New Roman,serif" font-size="14.00">Normalized count: 1.00</text>
<text text-anchor="middle" x="473.19" y="-550.55" font-family="Times New Roman,serif" font-size="14.00">Samples weight: 0.00</text>
</g>
<!-- BB8&#45;&gt;BB9 -->
<g id="edge12" class="edge">
<title>BB8&#45;&gt;BB9</title>
<path fill="none" stroke="black" d="M309.81,-670.62C337.96,-654.62 370.96,-635.86 399.9,-619.41"/>
<polygon fill="black" stroke="black" points="401.78,-622.37 408.74,-614.38 398.32,-616.28 401.78,-622.37"/>
</g>
</g>
</svg>
