<?xml version="1.0" encoding="UTF-8" standalone="no"?>
<!DOCTYPE svg PUBLIC "-//W3C//DTD SVG 1.1//EN"
 "http://www.w3.org/Graphics/SVG/1.1/DTD/svg11.dtd">
<!-- Generated by graphviz version 2.47.0 (20210316.0004)
 -->
<!-- Title: G Pages: 1 -->
<svg width="556pt" height="633pt"
 viewBox="0.00 0.00 556.22 632.83" xmlns="http://www.w3.org/2000/svg" xmlns:xlink="http://www.w3.org/1999/xlink">
<g id="graph0" class="graph" transform="scale(1 1) rotate(0) translate(4 628.83)">
<title>G</title>
<polygon fill="white" stroke="transparent" points="-4,4 -4,-628.83 552.22,-628.83 552.22,4 -4,4"/>
<!-- BB0 -->
<g id="node1" class="node">
<title>BB0</title>
<ellipse fill="none" stroke="black" cx="181.14" cy="-576.75" rx="103.48" ry="48.17"/>
<text text-anchor="middle" x="181.14" y="-595.55" font-family="Times New Roman,serif" font-size="14.00">[0..10)</text>
<text text-anchor="middle" x="181.14" y="-580.55" font-family="Times New Roman,serif" font-size="14.00">Count: 37</text>
<text text-anchor="middle" x="181.14" y="-565.55" font-family="Times New Roman,serif" font-size="14.00">Normalized count: 1.00</text>
<text text-anchor="middle" x="181.14" y="-550.55" font-family="Times New Roman,serif" font-size="14.00">Samples weight: 0.00</text>
</g>
<!-- BB6 -->
<g id="node7" class="node">
<title>BB6</title>
<ellipse fill="none" stroke="black" cx="181.14" cy="-444.58" rx="113.27" ry="48.17"/>
<text text-anchor="middle" x="181.14" y="-463.38" font-family="Times New Roman,serif" font-size="14.00">[6e..72)</text>
<text text-anchor="middle" x="181.14" y="-448.38" font-family="Times New Roman,serif" font-size="14.00">Count: 27623</text>
<text text-anchor="middle" x="181.14" y="-433.38" font-family="Times New Roman,serif" font-size="14.00">Normalized count: 746.57</text>
<text text-anchor="middle" x="181.14" y="-418.38" font-family="Times New Roman,serif" font-size="14.00">Samples weight: 0.16</text>
</g>
<!-- BB0&#45;&gt;BB6 -->
<g id="edge1" class="edge">
<title>BB0&#45;&gt;BB6</title>
<path fill="none" stroke="black" d="M181.14,-528.39C181.14,-520.12 181.14,-511.44 181.14,-502.93"/>
<polygon fill="black" stroke="black" points="184.64,-502.69 181.14,-492.69 177.64,-502.69 184.64,-502.69"/>
</g>
<!-- BB1 -->
<g id="node2" class="node">
<title>BB1</title>
<ellipse fill="none" stroke="black" cx="181.14" cy="-312.42" rx="113.27" ry="48.17"/>
<text text-anchor="middle" x="181.14" y="-331.22" font-family="Times New Roman,serif" font-size="14.00">[10..23)</text>
<text text-anchor="middle" x="181.14" y="-316.22" font-family="Times New Roman,serif" font-size="14.00">Count: 27586</text>
<text text-anchor="middle" x="181.14" y="-301.22" font-family="Times New Roman,serif" font-size="14.00">Normalized count: 745.57</text>
<text text-anchor="middle" x="181.14" y="-286.22" font-family="Times New Roman,serif" font-size="14.00">Samples weight: 0.16</text>
</g>
<!-- BB2 -->
<g id="node3" class="node">
<title>BB2</title>
<ellipse fill="none" stroke="black" cx="181.14" cy="-180.25" rx="113.27" ry="48.17"/>
<text text-anchor="middle" x="181.14" y="-199.05" font-family="Times New Roman,serif" font-size="14.00">[23..55)</text>
<text text-anchor="middle" x="181.14" y="-184.05" font-family="Times New Roman,serif" font-size="14.00">Count: 13746</text>
<text text-anchor="middle" x="181.14" y="-169.05" font-family="Times New Roman,serif" font-size="14.00">Normalized count: 371.51</text>
<text text-anchor="middle" x="181.14" y="-154.05" font-family="Times New Roman,serif" font-size="14.00">Samples weight: 0.08</text>
</g>
<!-- BB1&#45;&gt;BB2 -->
<g id="edge3" class="edge">
<title>BB1&#45;&gt;BB2</title>
<path fill="none" stroke="black" d="M181.14,-264.05C181.14,-255.79 181.14,-247.1 181.14,-238.6"/>
<polygon fill="black" stroke="black" points="184.64,-238.36 181.14,-228.36 177.64,-238.36 184.64,-238.36"/>
</g>
<!-- BB4 -->
<g id="node5" class="node">
<title>BB4</title>
<ellipse fill="none" stroke="black" cx="430.14" cy="-180.25" rx="118.17" ry="48.17"/>
<text text-anchor="middle" x="430.14" y="-199.05" font-family="Times New Roman,serif" font-size="14.00">[60..65)</text>
<text text-anchor="middle" x="430.14" y="-184.05" font-family="Times New Roman,serif" font-size="14.00">Count: 53480</text>
<text text-anchor="middle" x="430.14" y="-169.05" font-family="Times New Roman,serif" font-size="14.00">Normalized count: 1445.41</text>
<text text-anchor="middle" x="430.14" y="-154.05" font-family="Times New Roman,serif" font-size="14.00">Samples weight: 0.30</text>
</g>
<!-- BB1&#45;&gt;BB4 -->
<g id="edge2" class="edge">
<title>BB1&#45;&gt;BB4</title>
<path fill="none" stroke="black" d="M251.49,-274.64C281.99,-258.69 317.87,-239.94 349.44,-223.43"/>
<polygon fill="black" stroke="black" points="351.42,-226.35 358.66,-218.62 348.18,-220.15 351.42,-226.35"/>
</g>
<!-- BB2&#45;&gt;BB4 -->
<g id="edge4" class="edge">
<title>BB2&#45;&gt;BB4</title>
<path fill="none" stroke="black" d="M294.45,-180.25C296.91,-180.25 299.37,-180.25 301.83,-180.25"/>
<polygon fill="black" stroke="black" points="301.94,-183.75 311.94,-180.25 301.94,-176.75 301.94,-183.75"/>
</g>
<!-- BB3 -->
<g id="node4" class="node">
<title>BB3</title>
<ellipse fill="none" stroke="black" cx="430.14" cy="-48.08" rx="113.27" ry="48.17"/>
<text text-anchor="middle" x="430.14" y="-66.88" font-family="Times New Roman,serif" font-size="14.00">[55..60)</text>
<text text-anchor="middle" x="430.14" y="-51.88" font-family="Times New Roman,serif" font-size="14.00">Count: 25894</text>
<text text-anchor="middle" x="430.14" y="-36.88" font-family="Times New Roman,serif" font-size="14.00">Normalized count: 699.84</text>
<text text-anchor="middle" x="430.14" y="-21.88" font-family="Times New Roman,serif" font-size="14.00">Samples weight: 0.15</text>
</g>
<!-- BB3&#45;&gt;BB4 -->
<g id="edge5" class="edge">
<title>BB3&#45;&gt;BB4</title>
<path fill="none" stroke="black" d="M436.65,-96.19C436.87,-104.45 436.94,-113.13 436.85,-121.64"/>
<polygon fill="black" stroke="black" points="433.34,-121.83 436.66,-131.89 440.34,-121.95 433.34,-121.83"/>
</g>
<!-- BB4&#45;&gt;BB3 -->
<g id="edge6" class="edge">
<title>BB4&#45;&gt;BB3</title>
<path fill="none" stroke="black" d="M423.61,-131.89C423.4,-123.62 423.34,-114.94 423.43,-106.43"/>
<polygon fill="black" stroke="black" points="426.93,-106.26 423.62,-96.19 419.93,-106.12 426.93,-106.26"/>
</g>
<!-- BB5 -->
<g id="node6" class="node">
<title>BB5</title>
<ellipse fill="none" stroke="black" cx="113.14" cy="-48.08" rx="113.27" ry="48.17"/>
<text text-anchor="middle" x="113.14" y="-66.88" font-family="Times New Roman,serif" font-size="14.00">[65..6e)</text>
<text text-anchor="middle" x="113.14" y="-51.88" font-family="Times New Roman,serif" font-size="14.00">Count: 27586</text>
<text text-anchor="middle" x="113.14" y="-36.88" font-family="Times New Roman,serif" font-size="14.00">Normalized count: 745.57</text>
<text text-anchor="middle" x="113.14" y="-21.88" font-family="Times New Roman,serif" font-size="14.00">Samples weight: 0.16</text>
</g>
<!-- BB4&#45;&gt;BB5 -->
<g id="edge7" class="edge">
<title>BB4&#45;&gt;BB5</title>
<path fill="none" stroke="black" d="M348.09,-145.56C303.55,-127.27 248.43,-104.64 202.77,-85.89"/>
<polygon fill="black" stroke="black" points="204.05,-82.63 193.47,-82.07 201.39,-89.11 204.05,-82.63"/>
</g>
<!-- BB5&#45;&gt;BB6 -->
<g id="edge8" class="edge">
<title>BB5&#45;&gt;BB6</title>
<path fill="none" stroke="black" d="M77.49,-93.75C69.96,-105.58 63.1,-118.81 59.14,-132.17 30.3,-229.46 11.69,-270.79 59.14,-360.5 67.93,-377.13 81.71,-391.05 96.9,-402.45"/>
<polygon fill="black" stroke="black" points="95.28,-405.6 105.46,-408.53 99.33,-399.89 95.28,-405.6"/>
</g>
<!-- BB6&#45;&gt;BB1 -->
<g id="edge9" class="edge">
<title>BB6&#45;&gt;BB1</title>
<path fill="none" stroke="black" d="M181.14,-396.22C181.14,-387.95 181.14,-379.27 181.14,-370.77"/>
<polygon fill="black" stroke="black" points="184.64,-370.52 181.14,-360.52 177.64,-370.52 184.64,-370.52"/>
</g>
<!-- BB7 -->
<g id="node8" class="node">
<title>BB7</title>
<ellipse fill="none" stroke="black" cx="415.14" cy="-312.42" rx="103.48" ry="48.17"/>
<text text-anchor="middle" x="415.14" y="-331.22" font-family="Times New Roman,serif" font-size="14.00">[72..73)</text>
<text text-anchor="middle" x="415.14" y="-316.22" font-family="Times New Roman,serif" font-size="14.00">Count: 37</text>
<text text-anchor="middle" x="415.14" y="-301.22" font-family="Times New Roman,serif" font-size="14.00">Normalized count: 1.00</text>
<text text-anchor="middle" x="415.14" y="-286.22" font-family="Times New Roman,serif" font-size="14.00">Samples weight: 0.00</text>
</g>
<!-- BB6&#45;&gt;BB7 -->
<g id="edge10" class="edge">
<title>BB6&#45;&gt;BB7</title>
<path fill="none" stroke="black" d="M248.82,-405.93C277.57,-389.94 311.17,-371.25 340.63,-354.86"/>
<polygon fill="black" stroke="black" points="342.58,-357.78 349.62,-349.86 339.18,-351.66 342.58,-357.78"/>
</g>
</g>
</svg>
