<?xml version="1.0" encoding="UTF-8" standalone="no"?>
<!DOCTYPE svg PUBLIC "-//W3C//DTD SVG 1.1//EN"
 "http://www.w3.org/Graphics/SVG/1.1/DTD/svg11.dtd">
<!-- Generated by graphviz version 2.47.0 (20210316.0004)
 -->
<!-- Title: G Pages: 1 -->
<svg width="269pt" height="331pt"
 viewBox="0.00 0.00 269.27 330.96" xmlns="http://www.w3.org/2000/svg" xmlns:xlink="http://www.w3.org/1999/xlink">
<g id="graph0" class="graph" transform="scale(1 1) rotate(0) translate(4 326.96)">
<title>G</title>
<polygon fill="white" stroke="transparent" points="-4,4 -4,-326.96 265.27,-326.96 265.27,4 -4,4"/>
<!-- BB0 -->
<g id="node1" class="node">
<title>BB0</title>
<ellipse fill="none" stroke="black" cx="145.43" cy="-296.09" rx="32.55" ry="26.74"/>
<text text-anchor="middle" x="145.43" y="-299.89" font-family="Times New Roman,serif" font-size="14.00">[0..e)</text>
<text text-anchor="middle" x="145.43" y="-284.89" font-family="Times New Roman,serif" font-size="14.00">0.00</text>
</g>
<!-- BB4 -->
<g id="node5" class="node">
<title>BB4</title>
<ellipse fill="none" stroke="black" cx="145.43" cy="-206.35" rx="43.27" ry="26.74"/>
<text text-anchor="middle" x="145.43" y="-210.15" font-family="Times New Roman,serif" font-size="14.00">[39..3d)</text>
<text text-anchor="middle" x="145.43" y="-195.15" font-family="Times New Roman,serif" font-size="14.00">0.26</text>
</g>
<!-- BB0&#45;&gt;BB4 -->
<g id="edge1" class="edge">
<title>BB0&#45;&gt;BB4</title>
<path fill="none" stroke="black" d="M145.43,-268.77C145.43,-260.8 145.43,-251.91 145.43,-243.42"/>
<polygon fill="black" stroke="black" points="148.93,-243.35 145.43,-233.35 141.93,-243.35 148.93,-243.35"/>
</g>
<!-- BB1 -->
<g id="node2" class="node">
<title>BB1</title>
<ellipse fill="none" stroke="black" cx="80.43" cy="-116.61" rx="37.45" ry="26.74"/>
<text text-anchor="middle" x="80.43" y="-120.41" font-family="Times New Roman,serif" font-size="14.00">[e..31)</text>
<text text-anchor="middle" x="80.43" y="-105.41" font-family="Times New Roman,serif" font-size="14.00">0.26</text>
</g>
<!-- BB2 -->
<g id="node3" class="node">
<title>BB2</title>
<ellipse fill="none" stroke="black" cx="42.43" cy="-26.87" rx="42.35" ry="26.74"/>
<text text-anchor="middle" x="42.43" y="-30.67" font-family="Times New Roman,serif" font-size="14.00">[31..35)</text>
<text text-anchor="middle" x="42.43" y="-15.67" font-family="Times New Roman,serif" font-size="14.00">0.21</text>
</g>
<!-- BB1&#45;&gt;BB2 -->
<g id="edge3" class="edge">
<title>BB1&#45;&gt;BB2</title>
<path fill="none" stroke="black" d="M69.64,-90.7C65.82,-81.89 61.46,-71.81 57.35,-62.34"/>
<polygon fill="black" stroke="black" points="60.56,-60.93 53.37,-53.15 54.14,-63.71 60.56,-60.93"/>
</g>
<!-- BB3 -->
<g id="node4" class="node">
<title>BB3</title>
<ellipse fill="none" stroke="black" cx="145.43" cy="-26.87" rx="42.35" ry="26.74"/>
<text text-anchor="middle" x="145.43" y="-30.67" font-family="Times New Roman,serif" font-size="14.00">[35..39)</text>
<text text-anchor="middle" x="145.43" y="-15.67" font-family="Times New Roman,serif" font-size="14.00">0.26</text>
</g>
<!-- BB1&#45;&gt;BB3 -->
<g id="edge2" class="edge">
<title>BB1&#45;&gt;BB3</title>
<path fill="none" stroke="black" d="M97.5,-92.56C105,-82.44 113.92,-70.41 122.01,-59.47"/>
<polygon fill="black" stroke="black" points="124.87,-61.5 128.01,-51.38 119.25,-57.33 124.87,-61.5"/>
</g>
<!-- BB2&#45;&gt;BB3 -->
<g id="edge4" class="edge">
<title>BB2&#45;&gt;BB3</title>
<path fill="none" stroke="black" d="M85.07,-26.87C87.69,-26.87 90.3,-26.87 92.91,-26.87"/>
<polygon fill="black" stroke="black" points="92.99,-30.37 102.99,-26.87 92.99,-23.37 92.99,-30.37"/>
</g>
<!-- BB3&#45;&gt;BB4 -->
<g id="edge5" class="edge">
<title>BB3&#45;&gt;BB4</title>
<path fill="none" stroke="black" d="M145.43,-53.88C145.43,-84.29 145.43,-134.84 145.43,-169.09"/>
<polygon fill="black" stroke="black" points="141.93,-169.16 145.43,-179.16 148.93,-169.16 141.93,-169.16"/>
</g>
<!-- BB4&#45;&gt;BB1 -->
<g id="edge6" class="edge">
<title>BB4&#45;&gt;BB1</title>
<path fill="none" stroke="black" d="M127.66,-181.37C120.25,-171.37 111.54,-159.6 103.63,-148.93"/>
<polygon fill="black" stroke="black" points="106.26,-146.6 97.49,-140.65 100.63,-150.77 106.26,-146.6"/>
</g>
<!-- BB5 -->
<g id="node6" class="node">
<title>BB5</title>
<ellipse fill="none" stroke="black" cx="217.43" cy="-116.61" rx="43.68" ry="26.74"/>
<text text-anchor="middle" x="217.43" y="-120.41" font-family="Times New Roman,serif" font-size="14.00">[3d..4d)</text>
<text text-anchor="middle" x="217.43" y="-105.41" font-family="Times New Roman,serif" font-size="14.00">0.00</text>
</g>
<!-- BB4&#45;&gt;BB5 -->
<g id="edge7" class="edge">
<title>BB4&#45;&gt;BB5</title>
<path fill="none" stroke="black" d="M164.72,-181.84C173.02,-171.72 182.84,-159.76 191.74,-148.91"/>
<polygon fill="black" stroke="black" points="194.69,-150.83 198.33,-140.88 189.28,-146.39 194.69,-150.83"/>
</g>
</g>
</svg>
