<?xml version="1.0" encoding="UTF-8" standalone="no"?>
<!DOCTYPE svg PUBLIC "-//W3C//DTD SVG 1.1//EN"
 "http://www.w3.org/Graphics/SVG/1.1/DTD/svg11.dtd">
<!-- Generated by graphviz version 2.47.0 (20210316.0004)
 -->
<!-- Title: G Pages: 1 -->
<svg width="664pt" height="749pt"
 viewBox="0.00 0.00 663.99 748.67" xmlns="http://www.w3.org/2000/svg" xmlns:xlink="http://www.w3.org/1999/xlink">
<g id="graph0" class="graph" transform="scale(1 1) rotate(0) translate(4 744.67)">
<title>G</title>
<polygon fill="white" stroke="transparent" points="-4,4 -4,-744.67 659.99,-744.67 659.99,4 -4,4"/>
<!-- BB0 -->
<g id="node1" class="node">
<title>BB0</title>
<ellipse fill="none" stroke="black" cx="276.45" cy="-703.2" rx="105.22" ry="37.45"/>
<text text-anchor="middle" x="276.45" y="-714.5" font-family="Times New Roman,serif" font-size="14.00">[0..2e)</text>
<text text-anchor="middle" x="276.45" y="-699.5" font-family="Times New Roman,serif" font-size="14.00">Normalized Count: 1.00</text>
<text text-anchor="middle" x="276.45" y="-684.5" font-family="Times New Roman,serif" font-size="14.00">Samples weight: 0.00</text>
</g>
<!-- BB8 -->
<g id="node9" class="node">
<title>BB8</title>
<ellipse fill="none" stroke="black" cx="276.45" cy="-592.24" rx="124.4" ry="37.45"/>
<text text-anchor="middle" x="276.45" y="-603.54" font-family="Times New Roman,serif" font-size="14.00">[95..9a)</text>
<text text-anchor="middle" x="276.45" y="-588.54" font-family="Times New Roman,serif" font-size="14.00">Normalized Count: 20001.00</text>
<text text-anchor="middle" x="276.45" y="-573.54" font-family="Times New Roman,serif" font-size="14.00">Samples weight: 0.00</text>
</g>
<!-- BB0&#45;&gt;BB8 -->
<g id="edge1" class="edge">
<title>BB0&#45;&gt;BB8</title>
<path fill="none" stroke="black" d="M276.45,-665.61C276.45,-657.44 276.45,-648.66 276.45,-640.13"/>
<polygon fill="black" stroke="black" points="279.95,-639.92 276.45,-629.92 272.95,-639.92 279.95,-639.92"/>
</g>
<!-- BB1 -->
<g id="node2" class="node">
<title>BB1</title>
<ellipse fill="none" stroke="black" cx="276.45" cy="-481.29" rx="124.4" ry="37.45"/>
<text text-anchor="middle" x="276.45" y="-492.59" font-family="Times New Roman,serif" font-size="14.00">[2e..33)</text>
<text text-anchor="middle" x="276.45" y="-477.59" font-family="Times New Roman,serif" font-size="14.00">Normalized Count: 20000.00</text>
<text text-anchor="middle" x="276.45" y="-462.59" font-family="Times New Roman,serif" font-size="14.00">Samples weight: 0.00</text>
</g>
<!-- BB6 -->
<g id="node7" class="node">
<title>BB6</title>
<ellipse fill="none" stroke="black" cx="281.45" cy="-370.34" rx="134.2" ry="37.45"/>
<text text-anchor="middle" x="281.45" y="-381.64" font-family="Times New Roman,serif" font-size="14.00">[8a..8f)</text>
<text text-anchor="middle" x="281.45" y="-366.64" font-family="Times New Roman,serif" font-size="14.00">Normalized Count: 1980000.00</text>
<text text-anchor="middle" x="281.45" y="-351.64" font-family="Times New Roman,serif" font-size="14.00">Samples weight: 0.01</text>
</g>
<!-- BB1&#45;&gt;BB6 -->
<g id="edge2" class="edge">
<title>BB1&#45;&gt;BB6</title>
<path fill="none" stroke="black" d="M278.13,-443.71C278.5,-435.53 278.91,-426.75 279.3,-418.23"/>
<polygon fill="black" stroke="black" points="282.81,-418.16 279.77,-408.01 275.81,-417.84 282.81,-418.16"/>
</g>
<!-- BB2 -->
<g id="node3" class="node">
<title>BB2</title>
<ellipse fill="none" stroke="black" cx="460.45" cy="-259.38" rx="134.2" ry="37.45"/>
<text text-anchor="middle" x="460.45" y="-270.68" font-family="Times New Roman,serif" font-size="14.00">[33..4e)</text>
<text text-anchor="middle" x="460.45" y="-255.68" font-family="Times New Roman,serif" font-size="14.00">Normalized Count: 1960000.00</text>
<text text-anchor="middle" x="460.45" y="-240.68" font-family="Times New Roman,serif" font-size="14.00">Samples weight: 0.00</text>
</g>
<!-- BB4 -->
<g id="node5" class="node">
<title>BB4</title>
<ellipse fill="none" stroke="black" cx="481.45" cy="-148.43" rx="143.59" ry="37.45"/>
<text text-anchor="middle" x="481.45" y="-159.73" font-family="Times New Roman,serif" font-size="14.00">[7e..84)</text>
<text text-anchor="middle" x="481.45" y="-144.73" font-family="Times New Roman,serif" font-size="14.00">Normalized Count: 194040000.00</text>
<text text-anchor="middle" x="481.45" y="-129.73" font-family="Times New Roman,serif" font-size="14.00">Samples weight: 0.49</text>
</g>
<!-- BB2&#45;&gt;BB4 -->
<g id="edge3" class="edge">
<title>BB2&#45;&gt;BB4</title>
<path fill="none" stroke="black" d="M467.5,-221.8C469.09,-213.54 470.81,-204.65 472.47,-196.04"/>
<polygon fill="black" stroke="black" points="475.93,-196.58 474.38,-186.1 469.05,-195.26 475.93,-196.58"/>
</g>
<!-- BB3 -->
<g id="node4" class="node">
<title>BB3</title>
<ellipse fill="none" stroke="black" cx="512.45" cy="-37.48" rx="143.59" ry="37.45"/>
<text text-anchor="middle" x="512.45" y="-48.78" font-family="Times New Roman,serif" font-size="14.00">[4e..7e)</text>
<text text-anchor="middle" x="512.45" y="-33.78" font-family="Times New Roman,serif" font-size="14.00">Normalized Count: 192080000.00</text>
<text text-anchor="middle" x="512.45" y="-18.78" font-family="Times New Roman,serif" font-size="14.00">Samples weight: 0.49</text>
</g>
<!-- BB3&#45;&gt;BB4 -->
<g id="edge4" class="edge">
<title>BB3&#45;&gt;BB4</title>
<path fill="none" stroke="black" d="M508.48,-74.97C506.4,-83.44 503.89,-92.56 501.23,-101.37"/>
<polygon fill="black" stroke="black" points="497.82,-100.56 498.18,-111.15 504.5,-102.65 497.82,-100.56"/>
</g>
<!-- BB4&#45;&gt;BB3 -->
<g id="edge5" class="edge">
<title>BB4&#45;&gt;BB3</title>
<path fill="none" stroke="black" d="M485.44,-110.85C487.52,-102.4 490.02,-93.31 492.67,-84.52"/>
<polygon fill="black" stroke="black" points="496.08,-85.37 495.72,-74.78 489.39,-83.28 496.08,-85.37"/>
</g>
<!-- BB5 -->
<g id="node6" class="node">
<title>BB5</title>
<ellipse fill="none" stroke="black" cx="216.45" cy="-37.48" rx="134.2" ry="37.45"/>
<text text-anchor="middle" x="216.45" y="-48.78" font-family="Times New Roman,serif" font-size="14.00">[84..8a)</text>
<text text-anchor="middle" x="216.45" y="-33.78" font-family="Times New Roman,serif" font-size="14.00">Normalized Count: 1960000.00</text>
<text text-anchor="middle" x="216.45" y="-18.78" font-family="Times New Roman,serif" font-size="14.00">Samples weight: 0.00</text>
</g>
<!-- BB4&#45;&gt;BB5 -->
<g id="edge6" class="edge">
<title>BB4&#45;&gt;BB5</title>
<path fill="none" stroke="black" d="M406.22,-116.5C373.07,-102.87 334,-86.81 299.95,-72.81"/>
<polygon fill="black" stroke="black" points="301.07,-69.48 290.49,-68.92 298.41,-75.96 301.07,-69.48"/>
</g>
<!-- BB5&#45;&gt;BB6 -->
<g id="edge7" class="edge">
<title>BB5&#45;&gt;BB6</title>
<path fill="none" stroke="black" d="M225.25,-74.89C234.02,-111.81 247.56,-170.64 257.45,-221.91 263.96,-255.62 270.15,-293.89 274.62,-322.99"/>
<polygon fill="black" stroke="black" points="271.16,-323.52 276.12,-332.88 278.08,-322.47 271.16,-323.52"/>
</g>
<!-- BB6&#45;&gt;BB2 -->
<g id="edge8" class="edge">
<title>BB6&#45;&gt;BB2</title>
<path fill="none" stroke="black" d="M336.13,-336.06C355.38,-324.33 377.19,-311.06 397.1,-298.94"/>
<polygon fill="black" stroke="black" points="399.08,-301.84 405.8,-293.65 395.44,-295.86 399.08,-301.84"/>
</g>
<!-- BB7 -->
<g id="node8" class="node">
<title>BB7</title>
<ellipse fill="none" stroke="black" cx="124.45" cy="-259.38" rx="124.4" ry="37.45"/>
<text text-anchor="middle" x="124.45" y="-270.68" font-family="Times New Roman,serif" font-size="14.00">[8f..95)</text>
<text text-anchor="middle" x="124.45" y="-255.68" font-family="Times New Roman,serif" font-size="14.00">Normalized Count: 20000.00</text>
<text text-anchor="middle" x="124.45" y="-240.68" font-family="Times New Roman,serif" font-size="14.00">Samples weight: 0.00</text>
</g>
<!-- BB6&#45;&gt;BB7 -->
<g id="edge9" class="edge">
<title>BB6&#45;&gt;BB7</title>
<path fill="none" stroke="black" d="M232.21,-335.16C216.12,-324 198.13,-311.52 181.52,-299.99"/>
<polygon fill="black" stroke="black" points="183.19,-296.89 172.98,-294.06 179.2,-302.64 183.19,-296.89"/>
</g>
<!-- BB7&#45;&gt;BB8 -->
<g id="edge10" class="edge">
<title>BB7&#45;&gt;BB8</title>
<path fill="none" stroke="black" d="M116.88,-297.19C108.01,-350.62 99.58,-450.72 143.45,-518.77 154.07,-535.23 169.77,-548.26 186.7,-558.44"/>
<polygon fill="black" stroke="black" points="185.22,-561.63 195.65,-563.51 188.67,-555.54 185.22,-561.63"/>
</g>
<!-- BB8&#45;&gt;BB1 -->
<g id="edge11" class="edge">
<title>BB8&#45;&gt;BB1</title>
<path fill="none" stroke="black" d="M276.45,-554.66C276.45,-546.49 276.45,-537.71 276.45,-529.18"/>
<polygon fill="black" stroke="black" points="279.95,-528.96 276.45,-518.96 272.95,-528.96 279.95,-528.96"/>
</g>
<!-- BB9 -->
<g id="node10" class="node">
<title>BB9</title>
<ellipse fill="none" stroke="black" cx="524.45" cy="-481.29" rx="105.22" ry="37.45"/>
<text text-anchor="middle" x="524.45" y="-492.59" font-family="Times New Roman,serif" font-size="14.00">[9a..9b)</text>
<text text-anchor="middle" x="524.45" y="-477.59" font-family="Times New Roman,serif" font-size="14.00">Normalized Count: 1.00</text>
<text text-anchor="middle" x="524.45" y="-462.59" font-family="Times New Roman,serif" font-size="14.00">Samples weight: 0.00</text>
</g>
<!-- BB8&#45;&gt;BB9 -->
<g id="edge12" class="edge">
<title>BB8&#45;&gt;BB9</title>
<path fill="none" stroke="black" d="M345.53,-560.89C378.02,-546.62 416.81,-529.58 449.96,-515.02"/>
<polygon fill="black" stroke="black" points="451.4,-518.21 459.15,-510.98 448.59,-511.8 451.4,-518.21"/>
</g>
</g>
</svg>
