<?xml version="1.0" encoding="UTF-8" standalone="no"?>
<!DOCTYPE svg PUBLIC "-//W3C//DTD SVG 1.1//EN"
 "http://www.w3.org/Graphics/SVG/1.1/DTD/svg11.dtd">
<!-- Generated by graphviz version 2.47.0 (20210316.0004)
 -->
<!-- Title: G Pages: 1 -->
<svg width="605pt" height="501pt"
 viewBox="0.00 0.00 605.50 500.67" xmlns="http://www.w3.org/2000/svg" xmlns:xlink="http://www.w3.org/1999/xlink">
<g id="graph0" class="graph" transform="scale(1 1) rotate(0) translate(4 496.67)">
<title>G</title>
<polygon fill="white" stroke="transparent" points="-4,4 -4,-496.67 601.5,-496.67 601.5,4 -4,4"/>
<!-- BB0 -->
<g id="node1" class="node">
<title>BB0</title>
<ellipse fill="none" stroke="black" cx="359.84" cy="-444.58" rx="104.8" ry="48.17"/>
<text text-anchor="middle" x="359.84" y="-463.38" font-family="Times New Roman,serif" font-size="14.00">[0..e)</text>
<text text-anchor="middle" x="359.84" y="-448.38" font-family="Times New Roman,serif" font-size="14.00">Count: 0</text>
<text text-anchor="middle" x="359.84" y="-433.38" font-family="Times New Roman,serif" font-size="14.00">Normalized count: NaN</text>
<text text-anchor="middle" x="359.84" y="-418.38" font-family="Times New Roman,serif" font-size="14.00">Samples weight: 0.00</text>
</g>
<!-- BB4 -->
<g id="node5" class="node">
<title>BB4</title>
<ellipse fill="none" stroke="black" cx="359.84" cy="-312.42" rx="113.69" ry="48.17"/>
<text text-anchor="middle" x="359.84" y="-331.22" font-family="Times New Roman,serif" font-size="14.00">[39..3d)</text>
<text text-anchor="middle" x="359.84" y="-316.22" font-family="Times New Roman,serif" font-size="14.00">Count: 9</text>
<text text-anchor="middle" x="359.84" y="-301.22" font-family="Times New Roman,serif" font-size="14.00">Normalized count: Infinity</text>
<text text-anchor="middle" x="359.84" y="-286.22" font-family="Times New Roman,serif" font-size="14.00">Samples weight: 0.03</text>
</g>
<!-- BB0&#45;&gt;BB4 -->
<g id="edge1" class="edge">
<title>BB0&#45;&gt;BB4</title>
<path fill="none" stroke="black" d="M359.84,-396.22C359.84,-387.95 359.84,-379.27 359.84,-370.77"/>
<polygon fill="black" stroke="black" points="363.34,-370.52 359.84,-360.52 356.34,-370.52 363.34,-370.52"/>
</g>
<!-- BB1 -->
<g id="node2" class="node">
<title>BB1</title>
<ellipse fill="none" stroke="black" cx="217.84" cy="-180.25" rx="113.69" ry="48.17"/>
<text text-anchor="middle" x="217.84" y="-199.05" font-family="Times New Roman,serif" font-size="14.00">[e..31)</text>
<text text-anchor="middle" x="217.84" y="-184.05" font-family="Times New Roman,serif" font-size="14.00">Count: 222</text>
<text text-anchor="middle" x="217.84" y="-169.05" font-family="Times New Roman,serif" font-size="14.00">Normalized count: Infinity</text>
<text text-anchor="middle" x="217.84" y="-154.05" font-family="Times New Roman,serif" font-size="14.00">Samples weight: 0.77</text>
</g>
<!-- BB2 -->
<g id="node3" class="node">
<title>BB2</title>
<ellipse fill="none" stroke="black" cx="113.84" cy="-48.08" rx="113.69" ry="48.17"/>
<text text-anchor="middle" x="113.84" y="-66.88" font-family="Times New Roman,serif" font-size="14.00">[31..35)</text>
<text text-anchor="middle" x="113.84" y="-51.88" font-family="Times New Roman,serif" font-size="14.00">Count: 16</text>
<text text-anchor="middle" x="113.84" y="-36.88" font-family="Times New Roman,serif" font-size="14.00">Normalized count: Infinity</text>
<text text-anchor="middle" x="113.84" y="-21.88" font-family="Times New Roman,serif" font-size="14.00">Samples weight: 0.06</text>
</g>
<!-- BB1&#45;&gt;BB2 -->
<g id="edge3" class="edge">
<title>BB1&#45;&gt;BB2</title>
<path fill="none" stroke="black" d="M182.05,-134.45C173.72,-124.02 164.77,-112.82 156.18,-102.07"/>
<polygon fill="black" stroke="black" points="158.68,-99.59 149.7,-93.96 153.21,-103.96 158.68,-99.59"/>
</g>
<!-- BB3 -->
<g id="node4" class="node">
<title>BB3</title>
<ellipse fill="none" stroke="black" cx="359.84" cy="-48.08" rx="113.69" ry="48.17"/>
<text text-anchor="middle" x="359.84" y="-66.88" font-family="Times New Roman,serif" font-size="14.00">[35..39)</text>
<text text-anchor="middle" x="359.84" y="-51.88" font-family="Times New Roman,serif" font-size="14.00">Count: 41</text>
<text text-anchor="middle" x="359.84" y="-36.88" font-family="Times New Roman,serif" font-size="14.00">Normalized count: Infinity</text>
<text text-anchor="middle" x="359.84" y="-21.88" font-family="Times New Roman,serif" font-size="14.00">Samples weight: 0.14</text>
</g>
<!-- BB1&#45;&gt;BB3 -->
<g id="edge2" class="edge">
<title>BB1&#45;&gt;BB3</title>
<path fill="none" stroke="black" d="M264.73,-136.27C277.82,-124.27 292.15,-111.14 305.62,-98.79"/>
<polygon fill="black" stroke="black" points="308,-101.36 313,-92.02 303.27,-96.2 308,-101.36"/>
</g>
<!-- BB2&#45;&gt;BB3 -->
<g id="edge4" class="edge">
<title>BB2&#45;&gt;BB3</title>
<path fill="none" stroke="black" d="M227.72,-48.08C230.35,-48.08 232.98,-48.08 235.62,-48.08"/>
<polygon fill="black" stroke="black" points="235.78,-51.58 245.78,-48.08 235.78,-44.58 235.78,-51.58"/>
</g>
<!-- BB3&#45;&gt;BB4 -->
<g id="edge5" class="edge">
<title>BB3&#45;&gt;BB4</title>
<path fill="none" stroke="black" d="M359.84,-96.35C359.84,-140.62 359.84,-206.87 359.84,-254.13"/>
<polygon fill="black" stroke="black" points="356.34,-254.21 359.84,-264.21 363.34,-254.21 356.34,-254.21"/>
</g>
<!-- BB4&#45;&gt;BB1 -->
<g id="edge6" class="edge">
<title>BB4&#45;&gt;BB1</title>
<path fill="none" stroke="black" d="M312.95,-268.43C299.87,-256.44 285.54,-243.3 272.07,-230.95"/>
<polygon fill="black" stroke="black" points="274.42,-228.36 264.68,-224.19 269.69,-233.52 274.42,-228.36"/>
</g>
<!-- BB5 -->
<g id="node6" class="node">
<title>BB5</title>
<ellipse fill="none" stroke="black" cx="492.84" cy="-180.25" rx="104.8" ry="48.17"/>
<text text-anchor="middle" x="492.84" y="-199.05" font-family="Times New Roman,serif" font-size="14.00">[3d..4d)</text>
<text text-anchor="middle" x="492.84" y="-184.05" font-family="Times New Roman,serif" font-size="14.00">Count: 0</text>
<text text-anchor="middle" x="492.84" y="-169.05" font-family="Times New Roman,serif" font-size="14.00">Normalized count: NaN</text>
<text text-anchor="middle" x="492.84" y="-154.05" font-family="Times New Roman,serif" font-size="14.00">Samples weight: 0.00</text>
</g>
<!-- BB4&#45;&gt;BB5 -->
<g id="edge7" class="edge">
<title>BB4&#45;&gt;BB5</title>
<path fill="none" stroke="black" d="M404.13,-268.07C416.26,-256.2 429.5,-243.24 441.97,-231.04"/>
<polygon fill="black" stroke="black" points="444.5,-233.46 449.2,-223.96 439.61,-228.45 444.5,-233.46"/>
</g>
</g>
</svg>
