<?xml version="1.0" encoding="UTF-8" standalone="no"?>
<!DOCTYPE svg PUBLIC "-//W3C//DTD SVG 1.1//EN"
 "http://www.w3.org/Graphics/SVG/1.1/DTD/svg11.dtd">
<!-- Generated by graphviz version 2.47.0 (20210316.0004)
 -->
<!-- Title: G Pages: 1 -->
<svg width="1201pt" height="1690pt"
 viewBox="0.00 0.00 1201.50 1690.16" xmlns="http://www.w3.org/2000/svg" xmlns:xlink="http://www.w3.org/1999/xlink">
<g id="graph0" class="graph" transform="scale(1 1) rotate(0) translate(4 1686.16)">
<title>G</title>
<polygon fill="white" stroke="transparent" points="-4,4 -4,-1686.16 1197.5,-1686.16 1197.5,4 -4,4"/>
<!-- BB0 -->
<g id="node1" class="node">
<title>BB0</title>
<ellipse fill="none" stroke="black" cx="955.84" cy="-1634.08" rx="104.8" ry="48.17"/>
<text text-anchor="middle" x="955.84" y="-1652.88" font-family="Times New Roman,serif" font-size="14.00">[0..19)</text>
<text text-anchor="middle" x="955.84" y="-1637.88" font-family="Times New Roman,serif" font-size="14.00">Count: 0</text>
<text text-anchor="middle" x="955.84" y="-1622.88" font-family="Times New Roman,serif" font-size="14.00">Normalized count: NaN</text>
<text text-anchor="middle" x="955.84" y="-1607.88" font-family="Times New Roman,serif" font-size="14.00">Samples weight: 0.00</text>
</g>
<!-- BB22 -->
<g id="node23" class="node">
<title>BB22</title>
<ellipse fill="none" stroke="black" cx="955.84" cy="-1501.92" rx="104.8" ry="48.17"/>
<text text-anchor="middle" x="955.84" y="-1520.72" font-family="Times New Roman,serif" font-size="14.00">[111..118)</text>
<text text-anchor="middle" x="955.84" y="-1505.72" font-family="Times New Roman,serif" font-size="14.00">Count: 0</text>
<text text-anchor="middle" x="955.84" y="-1490.72" font-family="Times New Roman,serif" font-size="14.00">Normalized count: NaN</text>
<text text-anchor="middle" x="955.84" y="-1475.72" font-family="Times New Roman,serif" font-size="14.00">Samples weight: 0.00</text>
</g>
<!-- BB0&#45;&gt;BB22 -->
<g id="edge1" class="edge">
<title>BB0&#45;&gt;BB22</title>
<path fill="none" stroke="black" d="M955.84,-1585.72C955.84,-1577.45 955.84,-1568.77 955.84,-1560.27"/>
<polygon fill="black" stroke="black" points="959.34,-1560.02 955.84,-1550.02 952.34,-1560.02 959.34,-1560.02"/>
</g>
<!-- BB1 -->
<g id="node2" class="node">
<title>BB1</title>
<ellipse fill="none" stroke="black" cx="704.84" cy="-1369.75" rx="113.69" ry="48.17"/>
<text text-anchor="middle" x="704.84" y="-1388.55" font-family="Times New Roman,serif" font-size="14.00">[19..2f)</text>
<text text-anchor="middle" x="704.84" y="-1373.55" font-family="Times New Roman,serif" font-size="14.00">Count: 3</text>
<text text-anchor="middle" x="704.84" y="-1358.55" font-family="Times New Roman,serif" font-size="14.00">Normalized count: Infinity</text>
<text text-anchor="middle" x="704.84" y="-1343.55" font-family="Times New Roman,serif" font-size="14.00">Samples weight: 0.00</text>
</g>
<!-- BB5 -->
<g id="node6" class="node">
<title>BB5</title>
<ellipse fill="none" stroke="black" cx="548.84" cy="-1237.58" rx="113.69" ry="48.17"/>
<text text-anchor="middle" x="548.84" y="-1256.38" font-family="Times New Roman,serif" font-size="14.00">[50..55)</text>
<text text-anchor="middle" x="548.84" y="-1241.38" font-family="Times New Roman,serif" font-size="14.00">Count: 3</text>
<text text-anchor="middle" x="548.84" y="-1226.38" font-family="Times New Roman,serif" font-size="14.00">Normalized count: Infinity</text>
<text text-anchor="middle" x="548.84" y="-1211.38" font-family="Times New Roman,serif" font-size="14.00">Samples weight: 0.00</text>
</g>
<!-- BB1&#45;&gt;BB5 -->
<g id="edge2" class="edge">
<title>BB1&#45;&gt;BB5</title>
<path fill="none" stroke="black" d="M654.2,-1326.49C639.27,-1314.03 622.82,-1300.3 607.44,-1287.47"/>
<polygon fill="black" stroke="black" points="609.43,-1284.57 599.51,-1280.85 604.94,-1289.95 609.43,-1284.57"/>
</g>
<!-- BB2 -->
<g id="node3" class="node">
<title>BB2</title>
<ellipse fill="none" stroke="black" cx="335.84" cy="-1105.42" rx="113.69" ry="48.17"/>
<text text-anchor="middle" x="335.84" y="-1124.22" font-family="Times New Roman,serif" font-size="14.00">[2f..42)</text>
<text text-anchor="middle" x="335.84" y="-1109.22" font-family="Times New Roman,serif" font-size="14.00">Count: 59</text>
<text text-anchor="middle" x="335.84" y="-1094.22" font-family="Times New Roman,serif" font-size="14.00">Normalized count: Infinity</text>
<text text-anchor="middle" x="335.84" y="-1079.22" font-family="Times New Roman,serif" font-size="14.00">Samples weight: 0.03</text>
</g>
<!-- BB3 -->
<g id="node4" class="node">
<title>BB3</title>
<ellipse fill="none" stroke="black" cx="113.84" cy="-973.25" rx="113.69" ry="48.17"/>
<text text-anchor="middle" x="113.84" y="-992.05" font-family="Times New Roman,serif" font-size="14.00">[42..4a)</text>
<text text-anchor="middle" x="113.84" y="-977.05" font-family="Times New Roman,serif" font-size="14.00">Count: 1</text>
<text text-anchor="middle" x="113.84" y="-962.05" font-family="Times New Roman,serif" font-size="14.00">Normalized count: Infinity</text>
<text text-anchor="middle" x="113.84" y="-947.05" font-family="Times New Roman,serif" font-size="14.00">Samples weight: 0.00</text>
</g>
<!-- BB2&#45;&gt;BB3 -->
<g id="edge4" class="edge">
<title>BB2&#45;&gt;BB3</title>
<path fill="none" stroke="black" d="M270.14,-1065.89C244.41,-1050.8 214.76,-1033.42 188.24,-1017.87"/>
<polygon fill="black" stroke="black" points="189.78,-1014.71 179.38,-1012.68 186.24,-1020.75 189.78,-1014.71"/>
</g>
<!-- BB4 -->
<g id="node5" class="node">
<title>BB4</title>
<ellipse fill="none" stroke="black" cx="359.84" cy="-973.25" rx="113.69" ry="48.17"/>
<text text-anchor="middle" x="359.84" y="-992.05" font-family="Times New Roman,serif" font-size="14.00">[4a..50)</text>
<text text-anchor="middle" x="359.84" y="-977.05" font-family="Times New Roman,serif" font-size="14.00">Count: 6</text>
<text text-anchor="middle" x="359.84" y="-962.05" font-family="Times New Roman,serif" font-size="14.00">Normalized count: Infinity</text>
<text text-anchor="middle" x="359.84" y="-947.05" font-family="Times New Roman,serif" font-size="14.00">Samples weight: 0.00</text>
</g>
<!-- BB2&#45;&gt;BB4 -->
<g id="edge3" class="edge">
<title>BB2&#45;&gt;BB4</title>
<path fill="none" stroke="black" d="M344.51,-1057.42C346.05,-1049.05 347.68,-1040.24 349.27,-1031.61"/>
<polygon fill="black" stroke="black" points="352.74,-1032.08 351.11,-1021.61 345.86,-1030.81 352.74,-1032.08"/>
</g>
<!-- BB3&#45;&gt;BB4 -->
<g id="edge5" class="edge">
<title>BB3&#45;&gt;BB4</title>
<path fill="none" stroke="black" d="M227.72,-973.25C230.35,-973.25 232.98,-973.25 235.62,-973.25"/>
<polygon fill="black" stroke="black" points="235.78,-976.75 245.78,-973.25 235.78,-969.75 235.78,-976.75"/>
</g>
<!-- BB4&#45;&gt;BB5 -->
<g id="edge6" class="edge">
<title>BB4&#45;&gt;BB5</title>
<path fill="none" stroke="black" d="M417.91,-1014.79C432.69,-1027.16 447.56,-1041.68 458.84,-1057.33 485.71,-1094.62 476.12,-1112.48 496.84,-1153.5 501.66,-1163.03 507.24,-1172.89 512.92,-1182.33"/>
<polygon fill="black" stroke="black" points="509.95,-1184.17 518.15,-1190.87 515.92,-1180.52 509.95,-1184.17"/>
</g>
<!-- BB5&#45;&gt;BB2 -->
<g id="edge7" class="edge">
<title>BB5&#45;&gt;BB2</title>
<path fill="none" stroke="black" d="M485.23,-1197.7C460.99,-1182.89 433.2,-1165.91 408.21,-1150.64"/>
<polygon fill="black" stroke="black" points="409.86,-1147.55 399.5,-1145.32 406.21,-1153.52 409.86,-1147.55"/>
</g>
<!-- BB6 -->
<g id="node7" class="node">
<title>BB6</title>
<ellipse fill="none" stroke="black" cx="619.84" cy="-1105.42" rx="113.69" ry="48.17"/>
<text text-anchor="middle" x="619.84" y="-1124.22" font-family="Times New Roman,serif" font-size="14.00">[55..6b)</text>
<text text-anchor="middle" x="619.84" y="-1109.22" font-family="Times New Roman,serif" font-size="14.00">Count: 4</text>
<text text-anchor="middle" x="619.84" y="-1094.22" font-family="Times New Roman,serif" font-size="14.00">Normalized count: Infinity</text>
<text text-anchor="middle" x="619.84" y="-1079.22" font-family="Times New Roman,serif" font-size="14.00">Samples weight: 0.00</text>
</g>
<!-- BB5&#45;&gt;BB6 -->
<g id="edge8" class="edge">
<title>BB5&#45;&gt;BB6</title>
<path fill="none" stroke="black" d="M574.08,-1190.32C579.15,-1181.02 584.53,-1171.16 589.75,-1161.58"/>
<polygon fill="black" stroke="black" points="592.98,-1162.98 594.69,-1152.52 586.83,-1159.63 592.98,-1162.98"/>
</g>
<!-- BB7 -->
<g id="node8" class="node">
<title>BB7</title>
<ellipse fill="none" stroke="black" cx="822.84" cy="-973.25" rx="104.8" ry="48.17"/>
<text text-anchor="middle" x="822.84" y="-992.05" font-family="Times New Roman,serif" font-size="14.00">[6b..6d)</text>
<text text-anchor="middle" x="822.84" y="-977.05" font-family="Times New Roman,serif" font-size="14.00">Count: 0</text>
<text text-anchor="middle" x="822.84" y="-962.05" font-family="Times New Roman,serif" font-size="14.00">Normalized count: NaN</text>
<text text-anchor="middle" x="822.84" y="-947.05" font-family="Times New Roman,serif" font-size="14.00">Samples weight: 0.00</text>
</g>
<!-- BB6&#45;&gt;BB7 -->
<g id="edge10" class="edge">
<title>BB6&#45;&gt;BB7</title>
<path fill="none" stroke="black" d="M681.58,-1064.83C704.54,-1050.11 730.72,-1033.32 754.26,-1018.23"/>
<polygon fill="black" stroke="black" points="756.27,-1021.1 762.8,-1012.75 752.49,-1015.2 756.27,-1021.1"/>
</g>
<!-- BB8 -->
<g id="node9" class="node">
<title>BB8</title>
<ellipse fill="none" stroke="black" cx="595.84" cy="-973.25" rx="104.8" ry="48.17"/>
<text text-anchor="middle" x="595.84" y="-992.05" font-family="Times New Roman,serif" font-size="14.00">[6d..72)</text>
<text text-anchor="middle" x="595.84" y="-977.05" font-family="Times New Roman,serif" font-size="14.00">Count: 0</text>
<text text-anchor="middle" x="595.84" y="-962.05" font-family="Times New Roman,serif" font-size="14.00">Normalized count: NaN</text>
<text text-anchor="middle" x="595.84" y="-947.05" font-family="Times New Roman,serif" font-size="14.00">Samples weight: 0.00</text>
</g>
<!-- BB6&#45;&gt;BB8 -->
<g id="edge9" class="edge">
<title>BB6&#45;&gt;BB8</title>
<path fill="none" stroke="black" d="M611.18,-1057.42C609.62,-1048.94 607.97,-1040.02 606.36,-1031.29"/>
<polygon fill="black" stroke="black" points="609.75,-1030.37 604.5,-1021.17 602.87,-1031.64 609.75,-1030.37"/>
</g>
<!-- BB9 -->
<g id="node10" class="node">
<title>BB9</title>
<ellipse fill="none" stroke="black" cx="766.84" cy="-841.08" rx="113.69" ry="48.17"/>
<text text-anchor="middle" x="766.84" y="-859.88" font-family="Times New Roman,serif" font-size="14.00">[72..84)</text>
<text text-anchor="middle" x="766.84" y="-844.88" font-family="Times New Roman,serif" font-size="14.00">Count: 2</text>
<text text-anchor="middle" x="766.84" y="-829.88" font-family="Times New Roman,serif" font-size="14.00">Normalized count: Infinity</text>
<text text-anchor="middle" x="766.84" y="-814.88" font-family="Times New Roman,serif" font-size="14.00">Samples weight: 0.00</text>
</g>
<!-- BB8&#45;&gt;BB9 -->
<g id="edge12" class="edge">
<title>BB8&#45;&gt;BB9</title>
<path fill="none" stroke="black" d="M649.01,-931.78C666.53,-918.44 686.16,-903.5 704.31,-889.68"/>
<polygon fill="black" stroke="black" points="706.69,-892.27 712.53,-883.43 702.45,-886.7 706.69,-892.27"/>
</g>
<!-- BB10 -->
<g id="node11" class="node">
<title>BB10</title>
<ellipse fill="none" stroke="black" cx="530.84" cy="-841.08" rx="104.8" ry="48.17"/>
<text text-anchor="middle" x="530.84" y="-859.88" font-family="Times New Roman,serif" font-size="14.00">[84..8a)</text>
<text text-anchor="middle" x="530.84" y="-844.88" font-family="Times New Roman,serif" font-size="14.00">Count: 0</text>
<text text-anchor="middle" x="530.84" y="-829.88" font-family="Times New Roman,serif" font-size="14.00">Normalized count: NaN</text>
<text text-anchor="middle" x="530.84" y="-814.88" font-family="Times New Roman,serif" font-size="14.00">Samples weight: 0.00</text>
</g>
<!-- BB8&#45;&gt;BB10 -->
<g id="edge11" class="edge">
<title>BB8&#45;&gt;BB10</title>
<path fill="none" stroke="black" d="M572.74,-925.99C568.1,-916.69 563.17,-906.82 558.39,-897.25"/>
<polygon fill="black" stroke="black" points="561.47,-895.57 553.87,-888.19 555.21,-898.7 561.47,-895.57"/>
</g>
<!-- BB9&#45;&gt;BB10 -->
<g id="edge13" class="edge">
<title>BB9&#45;&gt;BB10</title>
<path fill="none" stroke="black" d="M652.81,-841.08C650.53,-841.08 648.24,-841.08 645.96,-841.08"/>
<polygon fill="black" stroke="black" points="645.94,-837.58 635.94,-841.08 645.94,-844.58 645.94,-837.58"/>
</g>
<!-- BB11 -->
<g id="node12" class="node">
<title>BB11</title>
<ellipse fill="none" stroke="black" cx="483.84" cy="-708.92" rx="113.69" ry="48.17"/>
<text text-anchor="middle" x="483.84" y="-727.72" font-family="Times New Roman,serif" font-size="14.00">[8a..a2)</text>
<text text-anchor="middle" x="483.84" y="-712.72" font-family="Times New Roman,serif" font-size="14.00">Count: 2</text>
<text text-anchor="middle" x="483.84" y="-697.72" font-family="Times New Roman,serif" font-size="14.00">Normalized count: Infinity</text>
<text text-anchor="middle" x="483.84" y="-682.72" font-family="Times New Roman,serif" font-size="14.00">Samples weight: 0.00</text>
</g>
<!-- BB10&#45;&gt;BB11 -->
<g id="edge15" class="edge">
<title>BB10&#45;&gt;BB11</title>
<path fill="none" stroke="black" d="M514.01,-793.46C510.8,-784.58 507.42,-775.2 504.12,-766.06"/>
<polygon fill="black" stroke="black" points="507.41,-764.87 500.72,-756.65 500.82,-767.25 507.41,-764.87"/>
</g>
<!-- BB14 -->
<g id="node15" class="node">
<title>BB14</title>
<ellipse fill="none" stroke="black" cx="719.84" cy="-708.92" rx="104.8" ry="48.17"/>
<text text-anchor="middle" x="719.84" y="-727.72" font-family="Times New Roman,serif" font-size="14.00">[bd..c3)</text>
<text text-anchor="middle" x="719.84" y="-712.72" font-family="Times New Roman,serif" font-size="14.00">Count: 0</text>
<text text-anchor="middle" x="719.84" y="-697.72" font-family="Times New Roman,serif" font-size="14.00">Normalized count: NaN</text>
<text text-anchor="middle" x="719.84" y="-682.72" font-family="Times New Roman,serif" font-size="14.00">Samples weight: 0.00</text>
</g>
<!-- BB10&#45;&gt;BB14 -->
<g id="edge14" class="edge">
<title>BB10&#45;&gt;BB14</title>
<path fill="none" stroke="black" d="M588.06,-800.67C608.88,-786.34 632.56,-770.03 654.06,-755.22"/>
<polygon fill="black" stroke="black" points="656.24,-757.97 662.49,-749.41 652.27,-752.2 656.24,-757.97"/>
</g>
<!-- BB13 -->
<g id="node14" class="node">
<title>BB13</title>
<ellipse fill="none" stroke="black" cx="483.84" cy="-576.75" rx="113.69" ry="48.17"/>
<text text-anchor="middle" x="483.84" y="-595.55" font-family="Times New Roman,serif" font-size="14.00">[b8..bd)</text>
<text text-anchor="middle" x="483.84" y="-580.55" font-family="Times New Roman,serif" font-size="14.00">Count: 5</text>
<text text-anchor="middle" x="483.84" y="-565.55" font-family="Times New Roman,serif" font-size="14.00">Normalized count: Infinity</text>
<text text-anchor="middle" x="483.84" y="-550.55" font-family="Times New Roman,serif" font-size="14.00">Samples weight: 0.00</text>
</g>
<!-- BB11&#45;&gt;BB13 -->
<g id="edge16" class="edge">
<title>BB11&#45;&gt;BB13</title>
<path fill="none" stroke="black" d="M483.84,-660.55C483.84,-652.29 483.84,-643.6 483.84,-635.1"/>
<polygon fill="black" stroke="black" points="487.34,-634.86 483.84,-624.86 480.34,-634.86 487.34,-634.86"/>
</g>
<!-- BB12 -->
<g id="node13" class="node">
<title>BB12</title>
<ellipse fill="none" stroke="black" cx="483.84" cy="-444.58" rx="113.69" ry="48.17"/>
<text text-anchor="middle" x="483.84" y="-463.38" font-family="Times New Roman,serif" font-size="14.00">[a2..b8)</text>
<text text-anchor="middle" x="483.84" y="-448.38" font-family="Times New Roman,serif" font-size="14.00">Count: 22</text>
<text text-anchor="middle" x="483.84" y="-433.38" font-family="Times New Roman,serif" font-size="14.00">Normalized count: Infinity</text>
<text text-anchor="middle" x="483.84" y="-418.38" font-family="Times New Roman,serif" font-size="14.00">Samples weight: 0.01</text>
</g>
<!-- BB12&#45;&gt;BB13 -->
<g id="edge17" class="edge">
<title>BB12&#45;&gt;BB13</title>
<path fill="none" stroke="black" d="M490.36,-492.69C490.58,-500.95 490.65,-509.63 490.55,-518.14"/>
<polygon fill="black" stroke="black" points="487.05,-518.33 490.37,-528.39 494.05,-518.45 487.05,-518.33"/>
</g>
<!-- BB13&#45;&gt;BB12 -->
<g id="edge18" class="edge">
<title>BB13&#45;&gt;BB12</title>
<path fill="none" stroke="black" d="M477.32,-528.39C477.1,-520.12 477.04,-511.44 477.14,-502.93"/>
<polygon fill="black" stroke="black" points="480.64,-502.75 477.33,-492.69 473.64,-502.62 480.64,-502.75"/>
</g>
<!-- BB13&#45;&gt;BB14 -->
<g id="edge19" class="edge">
<title>BB13&#45;&gt;BB14</title>
<path fill="none" stroke="black" d="M551.94,-615.31C580.97,-631.32 614.94,-650.05 644.7,-666.47"/>
<polygon fill="black" stroke="black" points="643.34,-669.72 653.79,-671.48 646.73,-663.59 643.34,-669.72"/>
</g>
<!-- BB15 -->
<g id="node16" class="node">
<title>BB15</title>
<ellipse fill="none" stroke="black" cx="719.84" cy="-576.75" rx="104.8" ry="48.17"/>
<text text-anchor="middle" x="719.84" y="-595.55" font-family="Times New Roman,serif" font-size="14.00">[c3..ca)</text>
<text text-anchor="middle" x="719.84" y="-580.55" font-family="Times New Roman,serif" font-size="14.00">Count: 0</text>
<text text-anchor="middle" x="719.84" y="-565.55" font-family="Times New Roman,serif" font-size="14.00">Normalized count: NaN</text>
<text text-anchor="middle" x="719.84" y="-550.55" font-family="Times New Roman,serif" font-size="14.00">Samples weight: 0.00</text>
</g>
<!-- BB14&#45;&gt;BB15 -->
<g id="edge21" class="edge">
<title>BB14&#45;&gt;BB15</title>
<path fill="none" stroke="black" d="M719.84,-660.55C719.84,-652.29 719.84,-643.6 719.84,-635.1"/>
<polygon fill="black" stroke="black" points="723.34,-634.86 719.84,-624.86 716.34,-634.86 723.34,-634.86"/>
</g>
<!-- BB21 -->
<g id="node22" class="node">
<title>BB21</title>
<ellipse fill="none" stroke="black" cx="955.84" cy="-576.75" rx="113.69" ry="48.17"/>
<text text-anchor="middle" x="955.84" y="-595.55" font-family="Times New Roman,serif" font-size="14.00">[10d..111)</text>
<text text-anchor="middle" x="955.84" y="-580.55" font-family="Times New Roman,serif" font-size="14.00">Count: 1</text>
<text text-anchor="middle" x="955.84" y="-565.55" font-family="Times New Roman,serif" font-size="14.00">Normalized count: Infinity</text>
<text text-anchor="middle" x="955.84" y="-550.55" font-family="Times New Roman,serif" font-size="14.00">Samples weight: 0.00</text>
</g>
<!-- BB14&#45;&gt;BB21 -->
<g id="edge20" class="edge">
<title>BB14&#45;&gt;BB21</title>
<path fill="none" stroke="black" d="M785.9,-671.48C814.81,-655.53 848.93,-636.72 878.98,-620.14"/>
<polygon fill="black" stroke="black" points="880.69,-623.2 887.75,-615.31 877.31,-617.07 880.69,-623.2"/>
</g>
<!-- BB20 -->
<g id="node21" class="node">
<title>BB20</title>
<ellipse fill="none" stroke="black" cx="842.84" cy="-444.58" rx="113.69" ry="48.17"/>
<text text-anchor="middle" x="842.84" y="-463.38" font-family="Times New Roman,serif" font-size="14.00">[108..10d)</text>
<text text-anchor="middle" x="842.84" y="-448.38" font-family="Times New Roman,serif" font-size="14.00">Count: 10</text>
<text text-anchor="middle" x="842.84" y="-433.38" font-family="Times New Roman,serif" font-size="14.00">Normalized count: Infinity</text>
<text text-anchor="middle" x="842.84" y="-418.38" font-family="Times New Roman,serif" font-size="14.00">Samples weight: 0.00</text>
</g>
<!-- BB15&#45;&gt;BB20 -->
<g id="edge22" class="edge">
<title>BB15&#45;&gt;BB20</title>
<path fill="none" stroke="black" d="M760.8,-532.41C771.46,-521.12 783.06,-508.85 794.08,-497.19"/>
<polygon fill="black" stroke="black" points="796.9,-499.3 801.23,-489.63 791.81,-494.49 796.9,-499.3"/>
</g>
<!-- BB16 -->
<g id="node17" class="node">
<title>BB16</title>
<ellipse fill="none" stroke="black" cx="913.84" cy="-312.42" rx="113.69" ry="48.17"/>
<text text-anchor="middle" x="913.84" y="-331.22" font-family="Times New Roman,serif" font-size="14.00">[ca..e2)</text>
<text text-anchor="middle" x="913.84" y="-316.22" font-family="Times New Roman,serif" font-size="14.00">Count: 65</text>
<text text-anchor="middle" x="913.84" y="-301.22" font-family="Times New Roman,serif" font-size="14.00">Normalized count: Infinity</text>
<text text-anchor="middle" x="913.84" y="-286.22" font-family="Times New Roman,serif" font-size="14.00">Samples weight: 0.03</text>
</g>
<!-- BB18 -->
<g id="node19" class="node">
<title>BB18</title>
<ellipse fill="none" stroke="black" cx="939.84" cy="-180.25" rx="113.69" ry="48.17"/>
<text text-anchor="middle" x="939.84" y="-199.05" font-family="Times New Roman,serif" font-size="14.00">[fd..102)</text>
<text text-anchor="middle" x="939.84" y="-184.05" font-family="Times New Roman,serif" font-size="14.00">Count: 153</text>
<text text-anchor="middle" x="939.84" y="-169.05" font-family="Times New Roman,serif" font-size="14.00">Normalized count: Infinity</text>
<text text-anchor="middle" x="939.84" y="-154.05" font-family="Times New Roman,serif" font-size="14.00">Samples weight: 0.07</text>
</g>
<!-- BB16&#45;&gt;BB18 -->
<g id="edge23" class="edge">
<title>BB16&#45;&gt;BB18</title>
<path fill="none" stroke="black" d="M923.23,-264.42C924.94,-255.85 926.75,-246.83 928.51,-238.01"/>
<polygon fill="black" stroke="black" points="931.94,-238.67 930.47,-228.17 925.08,-237.29 931.94,-238.67"/>
</g>
<!-- BB17 -->
<g id="node18" class="node">
<title>BB17</title>
<ellipse fill="none" stroke="black" cx="965.84" cy="-48.08" rx="113.69" ry="48.17"/>
<text text-anchor="middle" x="965.84" y="-66.88" font-family="Times New Roman,serif" font-size="14.00">[e2..fd)</text>
<text text-anchor="middle" x="965.84" y="-51.88" font-family="Times New Roman,serif" font-size="14.00">Count: 1882</text>
<text text-anchor="middle" x="965.84" y="-36.88" font-family="Times New Roman,serif" font-size="14.00">Normalized count: Infinity</text>
<text text-anchor="middle" x="965.84" y="-21.88" font-family="Times New Roman,serif" font-size="14.00">Samples weight: 0.84</text>
</g>
<!-- BB17&#45;&gt;BB18 -->
<g id="edge24" class="edge">
<title>BB17&#45;&gt;BB18</title>
<path fill="none" stroke="black" d="M962.94,-96.26C961.45,-104.86 959.7,-113.92 957.82,-122.77"/>
<polygon fill="black" stroke="black" points="954.39,-122.11 955.66,-132.62 961.22,-123.61 954.39,-122.11"/>
</g>
<!-- BB18&#45;&gt;BB17 -->
<g id="edge25" class="edge">
<title>BB18&#45;&gt;BB17</title>
<path fill="none" stroke="black" d="M942.78,-131.89C944.27,-123.33 946.01,-114.33 947.87,-105.55"/>
<polygon fill="black" stroke="black" points="951.29,-106.27 950.02,-95.76 944.46,-104.77 951.29,-106.27"/>
</g>
<!-- BB19 -->
<g id="node20" class="node">
<title>BB19</title>
<ellipse fill="none" stroke="black" cx="719.84" cy="-48.08" rx="113.69" ry="48.17"/>
<text text-anchor="middle" x="719.84" y="-66.88" font-family="Times New Roman,serif" font-size="14.00">[102..108)</text>
<text text-anchor="middle" x="719.84" y="-51.88" font-family="Times New Roman,serif" font-size="14.00">Count: 26</text>
<text text-anchor="middle" x="719.84" y="-36.88" font-family="Times New Roman,serif" font-size="14.00">Normalized count: Infinity</text>
<text text-anchor="middle" x="719.84" y="-21.88" font-family="Times New Roman,serif" font-size="14.00">Samples weight: 0.01</text>
</g>
<!-- BB18&#45;&gt;BB19 -->
<g id="edge26" class="edge">
<title>BB18&#45;&gt;BB19</title>
<path fill="none" stroke="black" d="M874.73,-140.72C849.34,-125.7 820.11,-108.41 793.92,-92.91"/>
<polygon fill="black" stroke="black" points="795.56,-89.82 785.17,-87.74 792,-95.84 795.56,-89.82"/>
</g>
<!-- BB19&#45;&gt;BB20 -->
<g id="edge27" class="edge">
<title>BB19&#45;&gt;BB20</title>
<path fill="none" stroke="black" d="M725.58,-96.21C734.28,-158.54 753.85,-270.94 790.84,-360.5 794.83,-370.15 799.9,-379.95 805.29,-389.28"/>
<polygon fill="black" stroke="black" points="802.4,-391.27 810.54,-398.05 808.41,-387.67 802.4,-391.27"/>
</g>
<!-- BB20&#45;&gt;BB16 -->
<g id="edge28" class="edge">
<title>BB20&#45;&gt;BB16</title>
<path fill="none" stroke="black" d="M868.08,-397.32C873.15,-388.02 878.53,-378.16 883.75,-368.58"/>
<polygon fill="black" stroke="black" points="886.98,-369.98 888.69,-359.53 880.83,-366.63 886.98,-369.98"/>
</g>
<!-- BB20&#45;&gt;BB21 -->
<g id="edge29" class="edge">
<title>BB20&#45;&gt;BB21</title>
<path fill="none" stroke="black" d="M881.63,-490.26C890.99,-501.04 901.07,-512.66 910.7,-523.74"/>
<polygon fill="black" stroke="black" points="908.07,-526.06 917.27,-531.32 913.36,-521.47 908.07,-526.06"/>
</g>
<!-- BB21&#45;&gt;BB22 -->
<g id="edge30" class="edge">
<title>BB21&#45;&gt;BB22</title>
<path fill="none" stroke="black" d="M955.84,-625.14C955.84,-677.68 955.84,-764.93 955.84,-840.08 955.84,-1238.58 955.84,-1238.58 955.84,-1238.58 955.84,-1309.03 955.84,-1390.13 955.84,-1443.28"/>
<polygon fill="black" stroke="black" points="952.34,-1443.52 955.84,-1453.52 959.34,-1443.52 952.34,-1443.52"/>
</g>
<!-- BB22&#45;&gt;BB1 -->
<g id="edge31" class="edge">
<title>BB22&#45;&gt;BB1</title>
<path fill="none" stroke="black" d="M887.26,-1465.35C855.68,-1448.97 818.01,-1429.43 785.11,-1412.38"/>
<polygon fill="black" stroke="black" points="786.46,-1409.13 775.97,-1407.64 783.24,-1415.35 786.46,-1409.13"/>
</g>
<!-- BB23 -->
<g id="node24" class="node">
<title>BB23</title>
<ellipse fill="none" stroke="black" cx="1088.84" cy="-1369.75" rx="104.8" ry="48.17"/>
<text text-anchor="middle" x="1088.84" y="-1388.55" font-family="Times New Roman,serif" font-size="14.00">[118..11a)</text>
<text text-anchor="middle" x="1088.84" y="-1373.55" font-family="Times New Roman,serif" font-size="14.00">Count: 0</text>
<text text-anchor="middle" x="1088.84" y="-1358.55" font-family="Times New Roman,serif" font-size="14.00">Normalized count: NaN</text>
<text text-anchor="middle" x="1088.84" y="-1343.55" font-family="Times New Roman,serif" font-size="14.00">Samples weight: 0.00</text>
</g>
<!-- BB22&#45;&gt;BB23 -->
<g id="edge32" class="edge">
<title>BB22&#45;&gt;BB23</title>
<path fill="none" stroke="black" d="M999.76,-1457.93C1011.91,-1446.05 1025.19,-1433.05 1037.71,-1420.8"/>
<polygon fill="black" stroke="black" points="1040.27,-1423.18 1044.97,-1413.69 1035.38,-1418.18 1040.27,-1423.18"/>
</g>
</g>
</svg>
