<?xml version="1.0" encoding="UTF-8" standalone="no"?>
<!DOCTYPE svg PUBLIC "-//W3C//DTD SVG 1.1//EN"
 "http://www.w3.org/Graphics/SVG/1.1/DTD/svg11.dtd">
<!-- Generated by graphviz version 2.47.0 (20210316.0004)
 -->
<!-- Title: G Pages: 1 -->
<svg width="943pt" height="1426pt"
 viewBox="0.00 0.00 943.50 1425.83" xmlns="http://www.w3.org/2000/svg" xmlns:xlink="http://www.w3.org/1999/xlink">
<g id="graph0" class="graph" transform="scale(1 1) rotate(0) translate(4 1421.83)">
<title>G</title>
<polygon fill="white" stroke="transparent" points="-4,4 -4,-1421.83 939.5,-1421.83 939.5,4 -4,4"/>
<!-- BB0 -->
<g id="node1" class="node">
<title>BB0</title>
<ellipse fill="none" stroke="black" cx="217.65" cy="-1369.75" rx="104.8" ry="48.17"/>
<text text-anchor="middle" x="217.65" y="-1388.55" font-family="Times New Roman,serif" font-size="14.00">[0..4)</text>
<text text-anchor="middle" x="217.65" y="-1373.55" font-family="Times New Roman,serif" font-size="14.00">Count: 0</text>
<text text-anchor="middle" x="217.65" y="-1358.55" font-family="Times New Roman,serif" font-size="14.00">Normalized count: NaN</text>
<text text-anchor="middle" x="217.65" y="-1343.55" font-family="Times New Roman,serif" font-size="14.00">Samples weight: 0.00</text>
</g>
<!-- BB1 -->
<g id="node2" class="node">
<title>BB1</title>
<ellipse fill="none" stroke="black" cx="104.65" cy="-1237.58" rx="104.8" ry="48.17"/>
<text text-anchor="middle" x="104.65" y="-1256.38" font-family="Times New Roman,serif" font-size="14.00">[4..5)</text>
<text text-anchor="middle" x="104.65" y="-1241.38" font-family="Times New Roman,serif" font-size="14.00">Count: 0</text>
<text text-anchor="middle" x="104.65" y="-1226.38" font-family="Times New Roman,serif" font-size="14.00">Normalized count: NaN</text>
<text text-anchor="middle" x="104.65" y="-1211.38" font-family="Times New Roman,serif" font-size="14.00">Samples weight: 0.00</text>
</g>
<!-- BB0&#45;&gt;BB1 -->
<g id="edge2" class="edge">
<title>BB0&#45;&gt;BB1</title>
<path fill="none" stroke="black" d="M179.4,-1324.68C169.82,-1313.65 159.47,-1301.73 149.6,-1290.36"/>
<polygon fill="black" stroke="black" points="152.07,-1287.86 142.87,-1282.61 146.78,-1292.45 152.07,-1287.86"/>
</g>
<!-- BB2 -->
<g id="node3" class="node">
<title>BB2</title>
<ellipse fill="none" stroke="black" cx="331.65" cy="-1237.58" rx="104.8" ry="48.17"/>
<text text-anchor="middle" x="331.65" y="-1256.38" font-family="Times New Roman,serif" font-size="14.00">[5..f)</text>
<text text-anchor="middle" x="331.65" y="-1241.38" font-family="Times New Roman,serif" font-size="14.00">Count: 0</text>
<text text-anchor="middle" x="331.65" y="-1226.38" font-family="Times New Roman,serif" font-size="14.00">Normalized count: NaN</text>
<text text-anchor="middle" x="331.65" y="-1211.38" font-family="Times New Roman,serif" font-size="14.00">Samples weight: 0.00</text>
</g>
<!-- BB0&#45;&gt;BB2 -->
<g id="edge1" class="edge">
<title>BB0&#45;&gt;BB2</title>
<path fill="none" stroke="black" d="M256.25,-1324.68C265.9,-1313.65 276.35,-1301.73 286.3,-1290.36"/>
<polygon fill="black" stroke="black" points="289.14,-1292.43 293.1,-1282.61 283.87,-1287.82 289.14,-1292.43"/>
</g>
<!-- BB3 -->
<g id="node4" class="node">
<title>BB3</title>
<ellipse fill="none" stroke="black" cx="218.65" cy="-1105.42" rx="104.8" ry="48.17"/>
<text text-anchor="middle" x="218.65" y="-1124.22" font-family="Times New Roman,serif" font-size="14.00">[f..10)</text>
<text text-anchor="middle" x="218.65" y="-1109.22" font-family="Times New Roman,serif" font-size="14.00">Count: 0</text>
<text text-anchor="middle" x="218.65" y="-1094.22" font-family="Times New Roman,serif" font-size="14.00">Normalized count: NaN</text>
<text text-anchor="middle" x="218.65" y="-1079.22" font-family="Times New Roman,serif" font-size="14.00">Samples weight: 0.00</text>
</g>
<!-- BB2&#45;&gt;BB3 -->
<g id="edge4" class="edge">
<title>BB2&#45;&gt;BB3</title>
<path fill="none" stroke="black" d="M293.4,-1192.51C283.82,-1181.49 273.47,-1169.56 263.6,-1158.2"/>
<polygon fill="black" stroke="black" points="266.07,-1155.7 256.87,-1150.44 260.78,-1160.28 266.07,-1155.7"/>
</g>
<!-- BB4 -->
<g id="node5" class="node">
<title>BB4</title>
<ellipse fill="none" stroke="black" cx="445.65" cy="-1105.42" rx="104.8" ry="48.17"/>
<text text-anchor="middle" x="445.65" y="-1124.22" font-family="Times New Roman,serif" font-size="14.00">[10..26)</text>
<text text-anchor="middle" x="445.65" y="-1109.22" font-family="Times New Roman,serif" font-size="14.00">Count: 0</text>
<text text-anchor="middle" x="445.65" y="-1094.22" font-family="Times New Roman,serif" font-size="14.00">Normalized count: NaN</text>
<text text-anchor="middle" x="445.65" y="-1079.22" font-family="Times New Roman,serif" font-size="14.00">Samples weight: 0.00</text>
</g>
<!-- BB2&#45;&gt;BB4 -->
<g id="edge3" class="edge">
<title>BB2&#45;&gt;BB4</title>
<path fill="none" stroke="black" d="M370.25,-1192.51C379.9,-1181.49 390.35,-1169.56 400.3,-1158.2"/>
<polygon fill="black" stroke="black" points="403.14,-1160.27 407.1,-1150.44 397.87,-1155.66 403.14,-1160.27"/>
</g>
<!-- BB15 -->
<g id="node16" class="node">
<title>BB15</title>
<ellipse fill="none" stroke="black" cx="445.65" cy="-973.25" rx="113.69" ry="48.17"/>
<text text-anchor="middle" x="445.65" y="-992.05" font-family="Times New Roman,serif" font-size="14.00">[1ba..1c1)</text>
<text text-anchor="middle" x="445.65" y="-977.05" font-family="Times New Roman,serif" font-size="14.00">Count: 1</text>
<text text-anchor="middle" x="445.65" y="-962.05" font-family="Times New Roman,serif" font-size="14.00">Normalized count: Infinity</text>
<text text-anchor="middle" x="445.65" y="-947.05" font-family="Times New Roman,serif" font-size="14.00">Samples weight: 0.00</text>
</g>
<!-- BB4&#45;&gt;BB15 -->
<g id="edge5" class="edge">
<title>BB4&#45;&gt;BB15</title>
<path fill="none" stroke="black" d="M445.65,-1057.05C445.65,-1048.79 445.65,-1040.1 445.65,-1031.6"/>
<polygon fill="black" stroke="black" points="449.15,-1031.36 445.65,-1021.36 442.15,-1031.36 449.15,-1031.36"/>
</g>
<!-- BB5 -->
<g id="node6" class="node">
<title>BB5</title>
<ellipse fill="none" stroke="black" cx="445.65" cy="-841.08" rx="113.69" ry="48.17"/>
<text text-anchor="middle" x="445.65" y="-859.88" font-family="Times New Roman,serif" font-size="14.00">[26..8e)</text>
<text text-anchor="middle" x="445.65" y="-844.88" font-family="Times New Roman,serif" font-size="14.00">Count: 4</text>
<text text-anchor="middle" x="445.65" y="-829.88" font-family="Times New Roman,serif" font-size="14.00">Normalized count: Infinity</text>
<text text-anchor="middle" x="445.65" y="-814.88" font-family="Times New Roman,serif" font-size="14.00">Samples weight: 0.00</text>
</g>
<!-- BB7 -->
<g id="node8" class="node">
<title>BB7</title>
<ellipse fill="none" stroke="black" cx="445.65" cy="-708.92" rx="113.69" ry="48.17"/>
<text text-anchor="middle" x="445.65" y="-727.72" font-family="Times New Roman,serif" font-size="14.00">[ea..ef)</text>
<text text-anchor="middle" x="445.65" y="-712.72" font-family="Times New Roman,serif" font-size="14.00">Count: 11</text>
<text text-anchor="middle" x="445.65" y="-697.72" font-family="Times New Roman,serif" font-size="14.00">Normalized count: Infinity</text>
<text text-anchor="middle" x="445.65" y="-682.72" font-family="Times New Roman,serif" font-size="14.00">Samples weight: 0.00</text>
</g>
<!-- BB5&#45;&gt;BB7 -->
<g id="edge6" class="edge">
<title>BB5&#45;&gt;BB7</title>
<path fill="none" stroke="black" d="M445.65,-792.72C445.65,-784.45 445.65,-775.77 445.65,-767.27"/>
<polygon fill="black" stroke="black" points="449.15,-767.02 445.65,-757.02 442.15,-767.02 449.15,-767.02"/>
</g>
<!-- BB6 -->
<g id="node7" class="node">
<title>BB6</title>
<ellipse fill="none" stroke="black" cx="445.65" cy="-576.75" rx="113.69" ry="48.17"/>
<text text-anchor="middle" x="445.65" y="-595.55" font-family="Times New Roman,serif" font-size="14.00">[8e..ea)</text>
<text text-anchor="middle" x="445.65" y="-580.55" font-family="Times New Roman,serif" font-size="14.00">Count: 353</text>
<text text-anchor="middle" x="445.65" y="-565.55" font-family="Times New Roman,serif" font-size="14.00">Normalized count: Infinity</text>
<text text-anchor="middle" x="445.65" y="-550.55" font-family="Times New Roman,serif" font-size="14.00">Samples weight: 0.15</text>
</g>
<!-- BB6&#45;&gt;BB7 -->
<g id="edge7" class="edge">
<title>BB6&#45;&gt;BB7</title>
<path fill="none" stroke="black" d="M452.17,-624.86C452.39,-633.12 452.45,-641.8 452.36,-650.3"/>
<polygon fill="black" stroke="black" points="448.86,-650.49 452.17,-660.55 455.86,-650.62 448.86,-650.49"/>
</g>
<!-- BB7&#45;&gt;BB6 -->
<g id="edge8" class="edge">
<title>BB7&#45;&gt;BB6</title>
<path fill="none" stroke="black" d="M439.13,-660.55C438.91,-652.29 438.85,-643.6 438.94,-635.1"/>
<polygon fill="black" stroke="black" points="442.45,-634.92 439.14,-624.86 435.45,-634.79 442.45,-634.92"/>
</g>
<!-- BB8 -->
<g id="node9" class="node">
<title>BB8</title>
<ellipse fill="none" stroke="black" cx="691.65" cy="-576.75" rx="113.69" ry="48.17"/>
<text text-anchor="middle" x="691.65" y="-595.55" font-family="Times New Roman,serif" font-size="14.00">[ef..f7)</text>
<text text-anchor="middle" x="691.65" y="-580.55" font-family="Times New Roman,serif" font-size="14.00">Count: 2</text>
<text text-anchor="middle" x="691.65" y="-565.55" font-family="Times New Roman,serif" font-size="14.00">Normalized count: Infinity</text>
<text text-anchor="middle" x="691.65" y="-550.55" font-family="Times New Roman,serif" font-size="14.00">Samples weight: 0.00</text>
</g>
<!-- BB7&#45;&gt;BB8 -->
<g id="edge9" class="edge">
<title>BB7&#45;&gt;BB8</title>
<path fill="none" stroke="black" d="M515.82,-670.79C545.93,-654.85 581.27,-636.16 612.33,-619.72"/>
<polygon fill="black" stroke="black" points="614.19,-622.7 621.39,-614.92 610.92,-616.51 614.19,-622.7"/>
</g>
<!-- BB13 -->
<g id="node14" class="node">
<title>BB13</title>
<ellipse fill="none" stroke="black" cx="659.65" cy="-444.58" rx="104.8" ry="48.17"/>
<text text-anchor="middle" x="659.65" y="-463.38" font-family="Times New Roman,serif" font-size="14.00">[1aa..1b2)</text>
<text text-anchor="middle" x="659.65" y="-448.38" font-family="Times New Roman,serif" font-size="14.00">Count: 0</text>
<text text-anchor="middle" x="659.65" y="-433.38" font-family="Times New Roman,serif" font-size="14.00">Normalized count: NaN</text>
<text text-anchor="middle" x="659.65" y="-418.38" font-family="Times New Roman,serif" font-size="14.00">Samples weight: 0.00</text>
</g>
<!-- BB8&#45;&gt;BB13 -->
<g id="edge10" class="edge">
<title>BB8&#45;&gt;BB13</title>
<path fill="none" stroke="black" d="M680.1,-528.76C677.99,-520.18 675.77,-511.16 673.6,-502.34"/>
<polygon fill="black" stroke="black" points="676.97,-501.38 671.19,-492.51 670.18,-503.05 676.97,-501.38"/>
</g>
<!-- BB9 -->
<g id="node10" class="node">
<title>BB9</title>
<ellipse fill="none" stroke="black" cx="782.65" cy="-312.42" rx="113.69" ry="48.17"/>
<text text-anchor="middle" x="782.65" y="-331.22" font-family="Times New Roman,serif" font-size="14.00">[f7..120)</text>
<text text-anchor="middle" x="782.65" y="-316.22" font-family="Times New Roman,serif" font-size="14.00">Count: 82</text>
<text text-anchor="middle" x="782.65" y="-301.22" font-family="Times New Roman,serif" font-size="14.00">Normalized count: Infinity</text>
<text text-anchor="middle" x="782.65" y="-286.22" font-family="Times New Roman,serif" font-size="14.00">Samples weight: 0.03</text>
</g>
<!-- BB11 -->
<g id="node12" class="node">
<title>BB11</title>
<ellipse fill="none" stroke="black" cx="795.65" cy="-180.25" rx="113.69" ry="48.17"/>
<text text-anchor="middle" x="795.65" y="-199.05" font-family="Times New Roman,serif" font-size="14.00">[19c..1a4)</text>
<text text-anchor="middle" x="795.65" y="-184.05" font-family="Times New Roman,serif" font-size="14.00">Count: 53</text>
<text text-anchor="middle" x="795.65" y="-169.05" font-family="Times New Roman,serif" font-size="14.00">Normalized count: Infinity</text>
<text text-anchor="middle" x="795.65" y="-154.05" font-family="Times New Roman,serif" font-size="14.00">Samples weight: 0.02</text>
</g>
<!-- BB9&#45;&gt;BB11 -->
<g id="edge11" class="edge">
<title>BB9&#45;&gt;BB11</title>
<path fill="none" stroke="black" d="M787.38,-264.05C788.22,-255.7 789.09,-246.91 789.95,-238.32"/>
<polygon fill="black" stroke="black" points="793.44,-238.66 790.95,-228.36 786.47,-237.96 793.44,-238.66"/>
</g>
<!-- BB10 -->
<g id="node11" class="node">
<title>BB10</title>
<ellipse fill="none" stroke="black" cx="821.65" cy="-48.08" rx="113.69" ry="48.17"/>
<text text-anchor="middle" x="821.65" y="-66.88" font-family="Times New Roman,serif" font-size="14.00">[120..19c)</text>
<text text-anchor="middle" x="821.65" y="-51.88" font-family="Times New Roman,serif" font-size="14.00">Count: 1877</text>
<text text-anchor="middle" x="821.65" y="-36.88" font-family="Times New Roman,serif" font-size="14.00">Normalized count: Infinity</text>
<text text-anchor="middle" x="821.65" y="-21.88" font-family="Times New Roman,serif" font-size="14.00">Samples weight: 0.78</text>
</g>
<!-- BB10&#45;&gt;BB11 -->
<g id="edge12" class="edge">
<title>BB10&#45;&gt;BB11</title>
<path fill="none" stroke="black" d="M818.75,-96.26C817.26,-104.86 815.51,-113.92 813.63,-122.77"/>
<polygon fill="black" stroke="black" points="810.19,-122.11 811.47,-132.62 817.03,-123.61 810.19,-122.11"/>
</g>
<!-- BB11&#45;&gt;BB10 -->
<g id="edge13" class="edge">
<title>BB11&#45;&gt;BB10</title>
<path fill="none" stroke="black" d="M798.59,-131.89C800.07,-123.33 801.81,-114.33 803.68,-105.55"/>
<polygon fill="black" stroke="black" points="807.1,-106.27 805.83,-95.76 800.26,-104.77 807.1,-106.27"/>
</g>
<!-- BB12 -->
<g id="node13" class="node">
<title>BB12</title>
<ellipse fill="none" stroke="black" cx="575.65" cy="-48.08" rx="113.69" ry="48.17"/>
<text text-anchor="middle" x="575.65" y="-66.88" font-family="Times New Roman,serif" font-size="14.00">[1a4..1aa)</text>
<text text-anchor="middle" x="575.65" y="-51.88" font-family="Times New Roman,serif" font-size="14.00">Count: 13</text>
<text text-anchor="middle" x="575.65" y="-36.88" font-family="Times New Roman,serif" font-size="14.00">Normalized count: Infinity</text>
<text text-anchor="middle" x="575.65" y="-21.88" font-family="Times New Roman,serif" font-size="14.00">Samples weight: 0.01</text>
</g>
<!-- BB11&#45;&gt;BB12 -->
<g id="edge14" class="edge">
<title>BB11&#45;&gt;BB12</title>
<path fill="none" stroke="black" d="M730.54,-140.72C705.15,-125.7 675.92,-108.41 649.73,-92.91"/>
<polygon fill="black" stroke="black" points="651.37,-89.82 640.98,-87.74 647.8,-95.84 651.37,-89.82"/>
</g>
<!-- BB12&#45;&gt;BB13 -->
<g id="edge15" class="edge">
<title>BB12&#45;&gt;BB13</title>
<path fill="none" stroke="black" d="M585.65,-96.03C601.1,-168.58 630.74,-307.78 647.43,-386.2"/>
<polygon fill="black" stroke="black" points="644.1,-387.34 649.6,-396.39 650.94,-385.88 644.1,-387.34"/>
</g>
<!-- BB13&#45;&gt;BB9 -->
<g id="edge16" class="edge">
<title>BB13&#45;&gt;BB9</title>
<path fill="none" stroke="black" d="M700.61,-400.24C711.27,-388.96 722.87,-376.69 733.89,-365.02"/>
<polygon fill="black" stroke="black" points="736.71,-367.13 741.03,-357.46 731.62,-362.32 736.71,-367.13"/>
</g>
<!-- BB14 -->
<g id="node15" class="node">
<title>BB14</title>
<ellipse fill="none" stroke="black" cx="430.65" cy="-312.42" rx="104.8" ry="48.17"/>
<text text-anchor="middle" x="430.65" y="-331.22" font-family="Times New Roman,serif" font-size="14.00">[1b2..1ba)</text>
<text text-anchor="middle" x="430.65" y="-316.22" font-family="Times New Roman,serif" font-size="14.00">Count: 0</text>
<text text-anchor="middle" x="430.65" y="-301.22" font-family="Times New Roman,serif" font-size="14.00">Normalized count: NaN</text>
<text text-anchor="middle" x="430.65" y="-286.22" font-family="Times New Roman,serif" font-size="14.00">Samples weight: 0.00</text>
</g>
<!-- BB13&#45;&gt;BB14 -->
<g id="edge17" class="edge">
<title>BB13&#45;&gt;BB14</title>
<path fill="none" stroke="black" d="M594.64,-406.63C566.48,-390.62 533.37,-371.8 504.31,-355.28"/>
<polygon fill="black" stroke="black" points="505.85,-352.13 495.43,-350.24 502.39,-358.22 505.85,-352.13"/>
</g>
<!-- BB14&#45;&gt;BB15 -->
<g id="edge18" class="edge">
<title>BB14&#45;&gt;BB15</title>
<path fill="none" stroke="black" d="M393.92,-357.64C356.41,-407.41 303.65,-492.26 303.65,-575.75 303.65,-709.92 303.65,-709.92 303.65,-709.92 303.65,-790.03 281.38,-820.5 322.65,-889.17 332.54,-905.62 347.1,-919.54 362.76,-931"/>
<polygon fill="black" stroke="black" points="360.83,-933.92 371.03,-936.77 364.83,-928.18 360.83,-933.92"/>
</g>
<!-- BB15&#45;&gt;BB5 -->
<g id="edge19" class="edge">
<title>BB15&#45;&gt;BB5</title>
<path fill="none" stroke="black" d="M445.65,-924.89C445.65,-916.62 445.65,-907.94 445.65,-899.43"/>
<polygon fill="black" stroke="black" points="449.15,-899.19 445.65,-889.19 442.15,-899.19 449.15,-899.19"/>
</g>
<!-- BB16 -->
<g id="node17" class="node">
<title>BB16</title>
<ellipse fill="none" stroke="black" cx="691.65" cy="-841.08" rx="113.69" ry="48.17"/>
<text text-anchor="middle" x="691.65" y="-859.88" font-family="Times New Roman,serif" font-size="14.00">[1c1..1c2)</text>
<text text-anchor="middle" x="691.65" y="-844.88" font-family="Times New Roman,serif" font-size="14.00">Count: 1</text>
<text text-anchor="middle" x="691.65" y="-829.88" font-family="Times New Roman,serif" font-size="14.00">Normalized count: Infinity</text>
<text text-anchor="middle" x="691.65" y="-814.88" font-family="Times New Roman,serif" font-size="14.00">Samples weight: 0.00</text>
</g>
<!-- BB15&#45;&gt;BB16 -->
<g id="edge20" class="edge">
<title>BB15&#45;&gt;BB16</title>
<path fill="none" stroke="black" d="M515.82,-935.12C545.93,-919.19 581.27,-900.49 612.33,-884.05"/>
<polygon fill="black" stroke="black" points="614.19,-887.03 621.39,-879.26 610.92,-880.84 614.19,-887.03"/>
</g>
</g>
</svg>
