<?xml version="1.0" encoding="UTF-8" standalone="no"?>
<!DOCTYPE svg PUBLIC "-//W3C//DTD SVG 1.1//EN"
 "http://www.w3.org/Graphics/SVG/1.1/DTD/svg11.dtd">
<!-- Generated by graphviz version 2.47.0 (20210316.0004)
 -->
<!-- Title: G Pages: 1 -->
<svg width="826pt" height="1426pt"
 viewBox="0.00 0.00 826.50 1425.83" xmlns="http://www.w3.org/2000/svg" xmlns:xlink="http://www.w3.org/1999/xlink">
<g id="graph0" class="graph" transform="scale(1 1) rotate(0) translate(4 1421.83)">
<title>G</title>
<polygon fill="white" stroke="transparent" points="-4,4 -4,-1421.83 822.5,-1421.83 822.5,4 -4,4"/>
<!-- BB0 -->
<g id="node1" class="node">
<title>BB0</title>
<ellipse fill="none" stroke="black" cx="222.65" cy="-1369.75" rx="104.8" ry="48.17"/>
<text text-anchor="middle" x="222.65" y="-1388.55" font-family="Times New Roman,serif" font-size="14.00">[0..4)</text>
<text text-anchor="middle" x="222.65" y="-1373.55" font-family="Times New Roman,serif" font-size="14.00">Count: 0</text>
<text text-anchor="middle" x="222.65" y="-1358.55" font-family="Times New Roman,serif" font-size="14.00">Normalized count: NaN</text>
<text text-anchor="middle" x="222.65" y="-1343.55" font-family="Times New Roman,serif" font-size="14.00">Samples weight: 0.00</text>
</g>
<!-- BB1 -->
<g id="node2" class="node">
<title>BB1</title>
<ellipse fill="none" stroke="black" cx="104.65" cy="-1237.58" rx="104.8" ry="48.17"/>
<text text-anchor="middle" x="104.65" y="-1256.38" font-family="Times New Roman,serif" font-size="14.00">[4..5)</text>
<text text-anchor="middle" x="104.65" y="-1241.38" font-family="Times New Roman,serif" font-size="14.00">Count: 0</text>
<text text-anchor="middle" x="104.65" y="-1226.38" font-family="Times New Roman,serif" font-size="14.00">Normalized count: NaN</text>
<text text-anchor="middle" x="104.65" y="-1211.38" font-family="Times New Roman,serif" font-size="14.00">Samples weight: 0.00</text>
</g>
<!-- BB0&#45;&gt;BB1 -->
<g id="edge2" class="edge">
<title>BB0&#45;&gt;BB1</title>
<path fill="none" stroke="black" d="M183.03,-1325.04C172.82,-1313.77 161.73,-1301.54 151.2,-1289.92"/>
<polygon fill="black" stroke="black" points="153.68,-1287.45 144.37,-1282.39 148.49,-1292.15 153.68,-1287.45"/>
</g>
<!-- BB2 -->
<g id="node3" class="node">
<title>BB2</title>
<ellipse fill="none" stroke="black" cx="340.65" cy="-1237.58" rx="113.69" ry="48.17"/>
<text text-anchor="middle" x="340.65" y="-1256.38" font-family="Times New Roman,serif" font-size="14.00">[5..f)</text>
<text text-anchor="middle" x="340.65" y="-1241.38" font-family="Times New Roman,serif" font-size="14.00">Count: 1</text>
<text text-anchor="middle" x="340.65" y="-1226.38" font-family="Times New Roman,serif" font-size="14.00">Normalized count: Infinity</text>
<text text-anchor="middle" x="340.65" y="-1211.38" font-family="Times New Roman,serif" font-size="14.00">Samples weight: 0.00</text>
</g>
<!-- BB0&#45;&gt;BB2 -->
<g id="edge1" class="edge">
<title>BB0&#45;&gt;BB2</title>
<path fill="none" stroke="black" d="M262.27,-1325.04C272.38,-1313.9 283.34,-1301.81 293.77,-1290.3"/>
<polygon fill="black" stroke="black" points="296.41,-1292.6 300.53,-1282.84 291.22,-1287.9 296.41,-1292.6"/>
</g>
<!-- BB3 -->
<g id="node4" class="node">
<title>BB3</title>
<ellipse fill="none" stroke="black" cx="222.65" cy="-1105.42" rx="104.8" ry="48.17"/>
<text text-anchor="middle" x="222.65" y="-1124.22" font-family="Times New Roman,serif" font-size="14.00">[f..10)</text>
<text text-anchor="middle" x="222.65" y="-1109.22" font-family="Times New Roman,serif" font-size="14.00">Count: 0</text>
<text text-anchor="middle" x="222.65" y="-1094.22" font-family="Times New Roman,serif" font-size="14.00">Normalized count: NaN</text>
<text text-anchor="middle" x="222.65" y="-1079.22" font-family="Times New Roman,serif" font-size="14.00">Samples weight: 0.00</text>
</g>
<!-- BB2&#45;&gt;BB3 -->
<g id="edge4" class="edge">
<title>BB2&#45;&gt;BB3</title>
<path fill="none" stroke="black" d="M300.7,-1192.51C290.5,-1181.26 279.45,-1169.07 268.96,-1157.5"/>
<polygon fill="black" stroke="black" points="271.47,-1155.05 262.16,-1150 266.28,-1159.76 271.47,-1155.05"/>
</g>
<!-- BB4 -->
<g id="node5" class="node">
<title>BB4</title>
<ellipse fill="none" stroke="black" cx="458.65" cy="-1105.42" rx="113.69" ry="48.17"/>
<text text-anchor="middle" x="458.65" y="-1124.22" font-family="Times New Roman,serif" font-size="14.00">[10..26)</text>
<text text-anchor="middle" x="458.65" y="-1109.22" font-family="Times New Roman,serif" font-size="14.00">Count: 2</text>
<text text-anchor="middle" x="458.65" y="-1094.22" font-family="Times New Roman,serif" font-size="14.00">Normalized count: Infinity</text>
<text text-anchor="middle" x="458.65" y="-1079.22" font-family="Times New Roman,serif" font-size="14.00">Samples weight: 0.00</text>
</g>
<!-- BB2&#45;&gt;BB4 -->
<g id="edge3" class="edge">
<title>BB2&#45;&gt;BB4</title>
<path fill="none" stroke="black" d="M380.6,-1192.51C390.49,-1181.61 401.17,-1169.82 411.37,-1158.57"/>
<polygon fill="black" stroke="black" points="414.22,-1160.64 418.34,-1150.88 409.03,-1155.94 414.22,-1160.64"/>
</g>
<!-- BB15 -->
<g id="node16" class="node">
<title>BB15</title>
<ellipse fill="none" stroke="black" cx="458.65" cy="-973.25" rx="113.69" ry="48.17"/>
<text text-anchor="middle" x="458.65" y="-992.05" font-family="Times New Roman,serif" font-size="14.00">[1ba..1c1)</text>
<text text-anchor="middle" x="458.65" y="-977.05" font-family="Times New Roman,serif" font-size="14.00">Count: 1</text>
<text text-anchor="middle" x="458.65" y="-962.05" font-family="Times New Roman,serif" font-size="14.00">Normalized count: Infinity</text>
<text text-anchor="middle" x="458.65" y="-947.05" font-family="Times New Roman,serif" font-size="14.00">Samples weight: 0.00</text>
</g>
<!-- BB4&#45;&gt;BB15 -->
<g id="edge5" class="edge">
<title>BB4&#45;&gt;BB15</title>
<path fill="none" stroke="black" d="M458.65,-1057.05C458.65,-1048.79 458.65,-1040.1 458.65,-1031.6"/>
<polygon fill="black" stroke="black" points="462.15,-1031.36 458.65,-1021.36 455.15,-1031.36 462.15,-1031.36"/>
</g>
<!-- BB5 -->
<g id="node6" class="node">
<title>BB5</title>
<ellipse fill="none" stroke="black" cx="458.65" cy="-841.08" rx="113.69" ry="48.17"/>
<text text-anchor="middle" x="458.65" y="-859.88" font-family="Times New Roman,serif" font-size="14.00">[26..8e)</text>
<text text-anchor="middle" x="458.65" y="-844.88" font-family="Times New Roman,serif" font-size="14.00">Count: 8</text>
<text text-anchor="middle" x="458.65" y="-829.88" font-family="Times New Roman,serif" font-size="14.00">Normalized count: Infinity</text>
<text text-anchor="middle" x="458.65" y="-814.88" font-family="Times New Roman,serif" font-size="14.00">Samples weight: 0.00</text>
</g>
<!-- BB7 -->
<g id="node8" class="node">
<title>BB7</title>
<ellipse fill="none" stroke="black" cx="458.65" cy="-708.92" rx="113.69" ry="48.17"/>
<text text-anchor="middle" x="458.65" y="-727.72" font-family="Times New Roman,serif" font-size="14.00">[ea..ef)</text>
<text text-anchor="middle" x="458.65" y="-712.72" font-family="Times New Roman,serif" font-size="14.00">Count: 18</text>
<text text-anchor="middle" x="458.65" y="-697.72" font-family="Times New Roman,serif" font-size="14.00">Normalized count: Infinity</text>
<text text-anchor="middle" x="458.65" y="-682.72" font-family="Times New Roman,serif" font-size="14.00">Samples weight: 0.01</text>
</g>
<!-- BB5&#45;&gt;BB7 -->
<g id="edge6" class="edge">
<title>BB5&#45;&gt;BB7</title>
<path fill="none" stroke="black" d="M458.65,-792.72C458.65,-784.45 458.65,-775.77 458.65,-767.27"/>
<polygon fill="black" stroke="black" points="462.15,-767.02 458.65,-757.02 455.15,-767.02 462.15,-767.02"/>
</g>
<!-- BB6 -->
<g id="node7" class="node">
<title>BB6</title>
<ellipse fill="none" stroke="black" cx="458.65" cy="-576.75" rx="113.69" ry="48.17"/>
<text text-anchor="middle" x="458.65" y="-595.55" font-family="Times New Roman,serif" font-size="14.00">[8e..ea)</text>
<text text-anchor="middle" x="458.65" y="-580.55" font-family="Times New Roman,serif" font-size="14.00">Count: 462</text>
<text text-anchor="middle" x="458.65" y="-565.55" font-family="Times New Roman,serif" font-size="14.00">Normalized count: Infinity</text>
<text text-anchor="middle" x="458.65" y="-550.55" font-family="Times New Roman,serif" font-size="14.00">Samples weight: 0.15</text>
</g>
<!-- BB6&#45;&gt;BB7 -->
<g id="edge7" class="edge">
<title>BB6&#45;&gt;BB7</title>
<path fill="none" stroke="black" d="M465.17,-624.86C465.39,-633.12 465.45,-641.8 465.36,-650.3"/>
<polygon fill="black" stroke="black" points="461.86,-650.49 465.17,-660.55 468.86,-650.62 461.86,-650.49"/>
</g>
<!-- BB7&#45;&gt;BB6 -->
<g id="edge8" class="edge">
<title>BB7&#45;&gt;BB6</title>
<path fill="none" stroke="black" d="M452.13,-660.55C451.91,-652.29 451.85,-643.6 451.94,-635.1"/>
<polygon fill="black" stroke="black" points="455.45,-634.92 452.14,-624.86 448.45,-634.79 455.45,-634.92"/>
</g>
<!-- BB8 -->
<g id="node9" class="node">
<title>BB8</title>
<ellipse fill="none" stroke="black" cx="704.65" cy="-576.75" rx="113.69" ry="48.17"/>
<text text-anchor="middle" x="704.65" y="-595.55" font-family="Times New Roman,serif" font-size="14.00">[ef..f7)</text>
<text text-anchor="middle" x="704.65" y="-580.55" font-family="Times New Roman,serif" font-size="14.00">Count: 1</text>
<text text-anchor="middle" x="704.65" y="-565.55" font-family="Times New Roman,serif" font-size="14.00">Normalized count: Infinity</text>
<text text-anchor="middle" x="704.65" y="-550.55" font-family="Times New Roman,serif" font-size="14.00">Samples weight: 0.00</text>
</g>
<!-- BB7&#45;&gt;BB8 -->
<g id="edge9" class="edge">
<title>BB7&#45;&gt;BB8</title>
<path fill="none" stroke="black" d="M528.82,-670.79C558.93,-654.85 594.27,-636.16 625.33,-619.72"/>
<polygon fill="black" stroke="black" points="627.19,-622.7 634.39,-614.92 623.92,-616.51 627.19,-622.7"/>
</g>
<!-- BB13 -->
<g id="node14" class="node">
<title>BB13</title>
<ellipse fill="none" stroke="black" cx="526.65" cy="-444.58" rx="113.69" ry="48.17"/>
<text text-anchor="middle" x="526.65" y="-463.38" font-family="Times New Roman,serif" font-size="14.00">[1aa..1b2)</text>
<text text-anchor="middle" x="526.65" y="-448.38" font-family="Times New Roman,serif" font-size="14.00">Count: 8</text>
<text text-anchor="middle" x="526.65" y="-433.38" font-family="Times New Roman,serif" font-size="14.00">Normalized count: Infinity</text>
<text text-anchor="middle" x="526.65" y="-418.38" font-family="Times New Roman,serif" font-size="14.00">Samples weight: 0.00</text>
</g>
<!-- BB8&#45;&gt;BB13 -->
<g id="edge10" class="edge">
<title>BB8&#45;&gt;BB13</title>
<path fill="none" stroke="black" d="M648.33,-534.56C630.05,-521.2 609.64,-506.27 590.84,-492.52"/>
<polygon fill="black" stroke="black" points="592.74,-489.58 582.61,-486.5 588.61,-495.23 592.74,-489.58"/>
</g>
<!-- BB9 -->
<g id="node10" class="node">
<title>BB9</title>
<ellipse fill="none" stroke="black" cx="644.65" cy="-312.42" rx="113.69" ry="48.17"/>
<text text-anchor="middle" x="644.65" y="-331.22" font-family="Times New Roman,serif" font-size="14.00">[f7..120)</text>
<text text-anchor="middle" x="644.65" y="-316.22" font-family="Times New Roman,serif" font-size="14.00">Count: 127</text>
<text text-anchor="middle" x="644.65" y="-301.22" font-family="Times New Roman,serif" font-size="14.00">Normalized count: Infinity</text>
<text text-anchor="middle" x="644.65" y="-286.22" font-family="Times New Roman,serif" font-size="14.00">Samples weight: 0.04</text>
</g>
<!-- BB11 -->
<g id="node12" class="node">
<title>BB11</title>
<ellipse fill="none" stroke="black" cx="657.65" cy="-180.25" rx="113.69" ry="48.17"/>
<text text-anchor="middle" x="657.65" y="-199.05" font-family="Times New Roman,serif" font-size="14.00">[19c..1a4)</text>
<text text-anchor="middle" x="657.65" y="-184.05" font-family="Times New Roman,serif" font-size="14.00">Count: 48</text>
<text text-anchor="middle" x="657.65" y="-169.05" font-family="Times New Roman,serif" font-size="14.00">Normalized count: Infinity</text>
<text text-anchor="middle" x="657.65" y="-154.05" font-family="Times New Roman,serif" font-size="14.00">Samples weight: 0.02</text>
</g>
<!-- BB9&#45;&gt;BB11 -->
<g id="edge11" class="edge">
<title>BB9&#45;&gt;BB11</title>
<path fill="none" stroke="black" d="M649.38,-264.05C650.22,-255.7 651.09,-246.91 651.95,-238.32"/>
<polygon fill="black" stroke="black" points="655.44,-238.66 652.95,-228.36 648.47,-237.96 655.44,-238.66"/>
</g>
<!-- BB10 -->
<g id="node11" class="node">
<title>BB10</title>
<ellipse fill="none" stroke="black" cx="683.65" cy="-48.08" rx="113.69" ry="48.17"/>
<text text-anchor="middle" x="683.65" y="-66.88" font-family="Times New Roman,serif" font-size="14.00">[120..19c)</text>
<text text-anchor="middle" x="683.65" y="-51.88" font-family="Times New Roman,serif" font-size="14.00">Count: 2396</text>
<text text-anchor="middle" x="683.65" y="-36.88" font-family="Times New Roman,serif" font-size="14.00">Normalized count: Infinity</text>
<text text-anchor="middle" x="683.65" y="-21.88" font-family="Times New Roman,serif" font-size="14.00">Samples weight: 0.77</text>
</g>
<!-- BB10&#45;&gt;BB11 -->
<g id="edge12" class="edge">
<title>BB10&#45;&gt;BB11</title>
<path fill="none" stroke="black" d="M680.75,-96.26C679.26,-104.86 677.51,-113.92 675.63,-122.77"/>
<polygon fill="black" stroke="black" points="672.19,-122.11 673.47,-132.62 679.03,-123.61 672.19,-122.11"/>
</g>
<!-- BB11&#45;&gt;BB10 -->
<g id="edge13" class="edge">
<title>BB11&#45;&gt;BB10</title>
<path fill="none" stroke="black" d="M660.59,-131.89C662.07,-123.33 663.81,-114.33 665.68,-105.55"/>
<polygon fill="black" stroke="black" points="669.1,-106.27 667.83,-95.76 662.26,-104.77 669.1,-106.27"/>
</g>
<!-- BB12 -->
<g id="node13" class="node">
<title>BB12</title>
<ellipse fill="none" stroke="black" cx="437.65" cy="-48.08" rx="113.69" ry="48.17"/>
<text text-anchor="middle" x="437.65" y="-66.88" font-family="Times New Roman,serif" font-size="14.00">[1a4..1aa)</text>
<text text-anchor="middle" x="437.65" y="-51.88" font-family="Times New Roman,serif" font-size="14.00">Count: 20</text>
<text text-anchor="middle" x="437.65" y="-36.88" font-family="Times New Roman,serif" font-size="14.00">Normalized count: Infinity</text>
<text text-anchor="middle" x="437.65" y="-21.88" font-family="Times New Roman,serif" font-size="14.00">Samples weight: 0.01</text>
</g>
<!-- BB11&#45;&gt;BB12 -->
<g id="edge14" class="edge">
<title>BB11&#45;&gt;BB12</title>
<path fill="none" stroke="black" d="M592.54,-140.72C567.15,-125.7 537.92,-108.41 511.73,-92.91"/>
<polygon fill="black" stroke="black" points="513.37,-89.82 502.98,-87.74 509.8,-95.84 513.37,-89.82"/>
</g>
<!-- BB12&#45;&gt;BB13 -->
<g id="edge15" class="edge">
<title>BB12&#45;&gt;BB13</title>
<path fill="none" stroke="black" d="M448.24,-96.03C464.61,-168.58 496.01,-307.78 513.71,-386.2"/>
<polygon fill="black" stroke="black" points="510.39,-387.4 516,-396.39 517.22,-385.86 510.39,-387.4"/>
</g>
<!-- BB13&#45;&gt;BB9 -->
<g id="edge16" class="edge">
<title>BB13&#45;&gt;BB9</title>
<path fill="none" stroke="black" d="M566.6,-399.51C576.49,-388.61 587.17,-376.82 597.37,-365.57"/>
<polygon fill="black" stroke="black" points="600.22,-367.64 604.34,-357.88 595.03,-362.94 600.22,-367.64"/>
</g>
<!-- BB14 -->
<g id="node15" class="node">
<title>BB14</title>
<ellipse fill="none" stroke="black" cx="320.65" cy="-312.42" rx="104.8" ry="48.17"/>
<text text-anchor="middle" x="320.65" y="-331.22" font-family="Times New Roman,serif" font-size="14.00">[1b2..1ba)</text>
<text text-anchor="middle" x="320.65" y="-316.22" font-family="Times New Roman,serif" font-size="14.00">Count: 0</text>
<text text-anchor="middle" x="320.65" y="-301.22" font-family="Times New Roman,serif" font-size="14.00">Normalized count: NaN</text>
<text text-anchor="middle" x="320.65" y="-286.22" font-family="Times New Roman,serif" font-size="14.00">Samples weight: 0.00</text>
</g>
<!-- BB13&#45;&gt;BB14 -->
<g id="edge17" class="edge">
<title>BB13&#45;&gt;BB14</title>
<path fill="none" stroke="black" d="M464.29,-404.18C440.87,-389.38 414.12,-372.48 390.1,-357.3"/>
<polygon fill="black" stroke="black" points="391.71,-354.18 381.39,-351.8 387.97,-360.1 391.71,-354.18"/>
</g>
<!-- BB14&#45;&gt;BB15 -->
<g id="edge18" class="edge">
<title>BB14&#45;&gt;BB15</title>
<path fill="none" stroke="black" d="M319.49,-360.8C318.31,-413.34 316.65,-500.59 316.65,-575.75 316.65,-709.92 316.65,-709.92 316.65,-709.92 316.65,-790.03 294.38,-820.5 335.65,-889.17 345.54,-905.62 360.1,-919.54 375.76,-931"/>
<polygon fill="black" stroke="black" points="373.83,-933.92 384.03,-936.77 377.83,-928.18 373.83,-933.92"/>
</g>
<!-- BB15&#45;&gt;BB5 -->
<g id="edge19" class="edge">
<title>BB15&#45;&gt;BB5</title>
<path fill="none" stroke="black" d="M458.65,-924.89C458.65,-916.62 458.65,-907.94 458.65,-899.43"/>
<polygon fill="black" stroke="black" points="462.15,-899.19 458.65,-889.19 455.15,-899.19 462.15,-899.19"/>
</g>
<!-- BB16 -->
<g id="node17" class="node">
<title>BB16</title>
<ellipse fill="none" stroke="black" cx="694.65" cy="-841.08" rx="104.8" ry="48.17"/>
<text text-anchor="middle" x="694.65" y="-859.88" font-family="Times New Roman,serif" font-size="14.00">[1c1..1c2)</text>
<text text-anchor="middle" x="694.65" y="-844.88" font-family="Times New Roman,serif" font-size="14.00">Count: 0</text>
<text text-anchor="middle" x="694.65" y="-829.88" font-family="Times New Roman,serif" font-size="14.00">Normalized count: NaN</text>
<text text-anchor="middle" x="694.65" y="-814.88" font-family="Times New Roman,serif" font-size="14.00">Samples weight: 0.00</text>
</g>
<!-- BB15&#45;&gt;BB16 -->
<g id="edge20" class="edge">
<title>BB15&#45;&gt;BB16</title>
<path fill="none" stroke="black" d="M526.91,-934.6C555.9,-918.61 589.8,-899.91 619.5,-883.53"/>
<polygon fill="black" stroke="black" points="621.51,-886.42 628.58,-878.53 618.13,-880.29 621.51,-886.42"/>
</g>
</g>
</svg>
