<?xml version="1.0" encoding="UTF-8" standalone="no"?>
<!DOCTYPE svg PUBLIC "-//W3C//DTD SVG 1.1//EN"
 "http://www.w3.org/Graphics/SVG/1.1/DTD/svg11.dtd">
<!-- Generated by graphviz version 2.47.0 (20210316.0004)
 -->
<!-- Title: G Pages: 1 -->
<svg width="655pt" height="897pt"
 viewBox="0.00 0.00 654.75 897.17" xmlns="http://www.w3.org/2000/svg" xmlns:xlink="http://www.w3.org/1999/xlink">
<g id="graph0" class="graph" transform="scale(1 1) rotate(0) translate(4 893.17)">
<title>G</title>
<polygon fill="white" stroke="transparent" points="-4,4 -4,-893.17 650.75,-893.17 650.75,4 -4,4"/>
<!-- BB0 -->
<g id="node1" class="node">
<title>BB0</title>
<ellipse fill="none" stroke="black" cx="272.33" cy="-841.08" rx="103.48" ry="48.17"/>
<text text-anchor="middle" x="272.33" y="-859.88" font-family="Times New Roman,serif" font-size="14.00">[0..2e)</text>
<text text-anchor="middle" x="272.33" y="-844.88" font-family="Times New Roman,serif" font-size="14.00">Count: 1</text>
<text text-anchor="middle" x="272.33" y="-829.88" font-family="Times New Roman,serif" font-size="14.00">Normalized count: 1.00</text>
<text text-anchor="middle" x="272.33" y="-814.88" font-family="Times New Roman,serif" font-size="14.00">Samples weight: 0.00</text>
</g>
<!-- BB8 -->
<g id="node9" class="node">
<title>BB8</title>
<ellipse fill="none" stroke="black" cx="272.33" cy="-708.92" rx="122.16" ry="48.17"/>
<text text-anchor="middle" x="272.33" y="-727.72" font-family="Times New Roman,serif" font-size="14.00">[95..9a)</text>
<text text-anchor="middle" x="272.33" y="-712.72" font-family="Times New Roman,serif" font-size="14.00">Count: 20001</text>
<text text-anchor="middle" x="272.33" y="-697.72" font-family="Times New Roman,serif" font-size="14.00">Normalized count: 20001.00</text>
<text text-anchor="middle" x="272.33" y="-682.72" font-family="Times New Roman,serif" font-size="14.00">Samples weight: 0.00</text>
</g>
<!-- BB0&#45;&gt;BB8 -->
<g id="edge1" class="edge">
<title>BB0&#45;&gt;BB8</title>
<path fill="none" stroke="black" d="M272.33,-792.72C272.33,-784.45 272.33,-775.77 272.33,-767.27"/>
<polygon fill="black" stroke="black" points="275.83,-767.02 272.33,-757.02 268.83,-767.02 275.83,-767.02"/>
</g>
<!-- BB1 -->
<g id="node2" class="node">
<title>BB1</title>
<ellipse fill="none" stroke="black" cx="272.33" cy="-576.75" rx="122.16" ry="48.17"/>
<text text-anchor="middle" x="272.33" y="-595.55" font-family="Times New Roman,serif" font-size="14.00">[2e..33)</text>
<text text-anchor="middle" x="272.33" y="-580.55" font-family="Times New Roman,serif" font-size="14.00">Count: 20000</text>
<text text-anchor="middle" x="272.33" y="-565.55" font-family="Times New Roman,serif" font-size="14.00">Normalized count: 20000.00</text>
<text text-anchor="middle" x="272.33" y="-550.55" font-family="Times New Roman,serif" font-size="14.00">Samples weight: 0.00</text>
</g>
<!-- BB6 -->
<g id="node7" class="node">
<title>BB6</title>
<ellipse fill="none" stroke="black" cx="277.33" cy="-444.58" rx="132.46" ry="48.17"/>
<text text-anchor="middle" x="277.33" y="-463.38" font-family="Times New Roman,serif" font-size="14.00">[8a..8f)</text>
<text text-anchor="middle" x="277.33" y="-448.38" font-family="Times New Roman,serif" font-size="14.00">Count: 1980000</text>
<text text-anchor="middle" x="277.33" y="-433.38" font-family="Times New Roman,serif" font-size="14.00">Normalized count: 1980000.00</text>
<text text-anchor="middle" x="277.33" y="-418.38" font-family="Times New Roman,serif" font-size="14.00">Samples weight: 0.01</text>
</g>
<!-- BB1&#45;&gt;BB6 -->
<g id="edge2" class="edge">
<title>BB1&#45;&gt;BB6</title>
<path fill="none" stroke="black" d="M274.15,-528.39C274.47,-520.12 274.8,-511.44 275.13,-502.93"/>
<polygon fill="black" stroke="black" points="278.63,-502.82 275.52,-492.69 271.64,-502.55 278.63,-502.82"/>
</g>
<!-- BB2 -->
<g id="node3" class="node">
<title>BB2</title>
<ellipse fill="none" stroke="black" cx="454.33" cy="-312.42" rx="132.46" ry="48.17"/>
<text text-anchor="middle" x="454.33" y="-331.22" font-family="Times New Roman,serif" font-size="14.00">[33..4e)</text>
<text text-anchor="middle" x="454.33" y="-316.22" font-family="Times New Roman,serif" font-size="14.00">Count: 1960000</text>
<text text-anchor="middle" x="454.33" y="-301.22" font-family="Times New Roman,serif" font-size="14.00">Normalized count: 1960000.00</text>
<text text-anchor="middle" x="454.33" y="-286.22" font-family="Times New Roman,serif" font-size="14.00">Samples weight: 0.00</text>
</g>
<!-- BB4 -->
<g id="node5" class="node">
<title>BB4</title>
<ellipse fill="none" stroke="black" cx="474.33" cy="-180.25" rx="141.34" ry="48.17"/>
<text text-anchor="middle" x="474.33" y="-199.05" font-family="Times New Roman,serif" font-size="14.00">[7e..84)</text>
<text text-anchor="middle" x="474.33" y="-184.05" font-family="Times New Roman,serif" font-size="14.00">Count: 194040000</text>
<text text-anchor="middle" x="474.33" y="-169.05" font-family="Times New Roman,serif" font-size="14.00">Normalized count: 194040000.00</text>
<text text-anchor="middle" x="474.33" y="-154.05" font-family="Times New Roman,serif" font-size="14.00">Samples weight: 0.49</text>
</g>
<!-- BB2&#45;&gt;BB4 -->
<g id="edge3" class="edge">
<title>BB2&#45;&gt;BB4</title>
<path fill="none" stroke="black" d="M461.61,-264.05C462.89,-255.7 464.24,-246.91 465.56,-238.32"/>
<polygon fill="black" stroke="black" points="469.03,-238.77 467.09,-228.36 462.11,-237.71 469.03,-238.77"/>
</g>
<!-- BB3 -->
<g id="node4" class="node">
<title>BB3</title>
<ellipse fill="none" stroke="black" cx="505.33" cy="-48.08" rx="141.34" ry="48.17"/>
<text text-anchor="middle" x="505.33" y="-66.88" font-family="Times New Roman,serif" font-size="14.00">[4e..7e)</text>
<text text-anchor="middle" x="505.33" y="-51.88" font-family="Times New Roman,serif" font-size="14.00">Count: 192080000</text>
<text text-anchor="middle" x="505.33" y="-36.88" font-family="Times New Roman,serif" font-size="14.00">Normalized count: 192080000.00</text>
<text text-anchor="middle" x="505.33" y="-21.88" font-family="Times New Roman,serif" font-size="14.00">Samples weight: 0.49</text>
</g>
<!-- BB3&#45;&gt;BB4 -->
<g id="edge4" class="edge">
<title>BB3&#45;&gt;BB4</title>
<path fill="none" stroke="black" d="M500.57,-96.44C498.78,-104.92 496.71,-113.84 494.53,-122.54"/>
<polygon fill="black" stroke="black" points="491.14,-121.7 492.03,-132.26 497.92,-123.45 491.14,-121.7"/>
</g>
<!-- BB4&#45;&gt;BB3 -->
<g id="edge5" class="edge">
<title>BB4&#45;&gt;BB3</title>
<path fill="none" stroke="black" d="M479.09,-131.89C480.86,-123.53 482.89,-114.75 485.03,-106.15"/>
<polygon fill="black" stroke="black" points="488.49,-106.75 487.59,-96.19 481.71,-105 488.49,-106.75"/>
</g>
<!-- BB5 -->
<g id="node6" class="node">
<title>BB5</title>
<ellipse fill="none" stroke="black" cx="213.33" cy="-48.08" rx="132.46" ry="48.17"/>
<text text-anchor="middle" x="213.33" y="-66.88" font-family="Times New Roman,serif" font-size="14.00">[84..8a)</text>
<text text-anchor="middle" x="213.33" y="-51.88" font-family="Times New Roman,serif" font-size="14.00">Count: 1960000</text>
<text text-anchor="middle" x="213.33" y="-36.88" font-family="Times New Roman,serif" font-size="14.00">Normalized count: 1960000.00</text>
<text text-anchor="middle" x="213.33" y="-21.88" font-family="Times New Roman,serif" font-size="14.00">Samples weight: 0.00</text>
</g>
<!-- BB4&#45;&gt;BB5 -->
<g id="edge6" class="edge">
<title>BB4&#45;&gt;BB5</title>
<path fill="none" stroke="black" d="M396.02,-140.2C365.54,-125 330.52,-107.53 299.35,-91.98"/>
<polygon fill="black" stroke="black" points="300.75,-88.77 290.23,-87.44 297.62,-95.03 300.75,-88.77"/>
</g>
<!-- BB5&#45;&gt;BB6 -->
<g id="edge7" class="edge">
<title>BB5&#45;&gt;BB6</title>
<path fill="none" stroke="black" d="M222.84,-96.42C231.41,-139.95 244.07,-206.34 253.33,-264.33 259.82,-304.97 265.96,-350.98 270.4,-386.21"/>
<polygon fill="black" stroke="black" points="266.95,-386.82 271.66,-396.31 273.89,-385.95 266.95,-386.82"/>
</g>
<!-- BB6&#45;&gt;BB2 -->
<g id="edge8" class="edge">
<title>BB6&#45;&gt;BB2</title>
<path fill="none" stroke="black" d="M335.29,-400.96C352.18,-388.54 370.77,-374.87 388.13,-362.1"/>
<polygon fill="black" stroke="black" points="390.56,-364.66 396.55,-355.91 386.42,-359.02 390.56,-364.66"/>
</g>
<!-- BB7 -->
<g id="node8" class="node">
<title>BB7</title>
<ellipse fill="none" stroke="black" cx="122.33" cy="-312.42" rx="122.16" ry="48.17"/>
<text text-anchor="middle" x="122.33" y="-331.22" font-family="Times New Roman,serif" font-size="14.00">[8f..95)</text>
<text text-anchor="middle" x="122.33" y="-316.22" font-family="Times New Roman,serif" font-size="14.00">Count: 20000</text>
<text text-anchor="middle" x="122.33" y="-301.22" font-family="Times New Roman,serif" font-size="14.00">Normalized count: 20000.00</text>
<text text-anchor="middle" x="122.33" y="-286.22" font-family="Times New Roman,serif" font-size="14.00">Samples weight: 0.00</text>
</g>
<!-- BB6&#45;&gt;BB7 -->
<g id="edge9" class="edge">
<title>BB6&#45;&gt;BB7</title>
<path fill="none" stroke="black" d="M225.72,-400.24C211.52,-388.32 196.02,-375.3 181.44,-363.06"/>
<polygon fill="black" stroke="black" points="183.36,-360.1 173.45,-356.35 178.86,-365.46 183.36,-360.1"/>
</g>
<!-- BB7&#45;&gt;BB8 -->
<g id="edge10" class="edge">
<title>BB7&#45;&gt;BB8</title>
<path fill="none" stroke="black" d="M112.72,-360.49C102.17,-425.01 92.59,-542.27 141.33,-624.83 151.3,-641.72 166.19,-655.72 182.4,-667.11"/>
<polygon fill="black" stroke="black" points="180.72,-670.2 190.98,-672.83 184.6,-664.37 180.72,-670.2"/>
</g>
<!-- BB8&#45;&gt;BB1 -->
<g id="edge11" class="edge">
<title>BB8&#45;&gt;BB1</title>
<path fill="none" stroke="black" d="M272.33,-660.55C272.33,-652.29 272.33,-643.6 272.33,-635.1"/>
<polygon fill="black" stroke="black" points="275.83,-634.86 272.33,-624.86 268.83,-634.86 275.83,-634.86"/>
</g>
<!-- BB9 -->
<g id="node10" class="node">
<title>BB9</title>
<ellipse fill="none" stroke="black" cx="516.33" cy="-576.75" rx="103.48" ry="48.17"/>
<text text-anchor="middle" x="516.33" y="-595.55" font-family="Times New Roman,serif" font-size="14.00">[9a..9b)</text>
<text text-anchor="middle" x="516.33" y="-580.55" font-family="Times New Roman,serif" font-size="14.00">Count: 1</text>
<text text-anchor="middle" x="516.33" y="-565.55" font-family="Times New Roman,serif" font-size="14.00">Normalized count: 1.00</text>
<text text-anchor="middle" x="516.33" y="-550.55" font-family="Times New Roman,serif" font-size="14.00">Samples weight: 0.00</text>
</g>
<!-- BB8&#45;&gt;BB9 -->
<g id="edge12" class="edge">
<title>BB8&#45;&gt;BB9</title>
<path fill="none" stroke="black" d="M343.89,-669.74C374.22,-653.56 409.6,-634.68 440.4,-618.26"/>
<polygon fill="black" stroke="black" points="442.2,-621.26 449.37,-613.47 438.9,-615.09 442.2,-621.26"/>
</g>
</g>
</svg>
