<?xml version="1.0" encoding="UTF-8" standalone="no"?>
<!DOCTYPE svg PUBLIC "-//W3C//DTD SVG 1.1//EN"
 "http://www.w3.org/Graphics/SVG/1.1/DTD/svg11.dtd">
<!-- Generated by graphviz version 2.47.0 (20210316.0004)
 -->
<!-- Title: G Pages: 1 -->
<svg width="229pt" height="331pt"
 viewBox="0.00 0.00 229.15 330.96" xmlns="http://www.w3.org/2000/svg" xmlns:xlink="http://www.w3.org/1999/xlink">
<g id="graph0" class="graph" transform="scale(1 1) rotate(0) translate(4 326.96)">
<title>G</title>
<polygon fill="white" stroke="transparent" points="-4,4 -4,-326.96 225.15,-326.96 225.15,4 -4,4"/>
<!-- BB0 -->
<g id="node1" class="node">
<title>BB0</title>
<ellipse fill="none" stroke="black" cx="76.01" cy="-296.09" rx="37.45" ry="26.74"/>
<text text-anchor="middle" x="76.01" y="-299.89" font-family="Times New Roman,serif" font-size="14.00">[0..13)</text>
<text text-anchor="middle" x="76.01" y="-284.89" font-family="Times New Roman,serif" font-size="14.00">0.27</text>
</g>
<!-- BB3 -->
<g id="node4" class="node">
<title>BB3</title>
<ellipse fill="none" stroke="black" cx="76.01" cy="-206.35" rx="43.27" ry="26.74"/>
<text text-anchor="middle" x="76.01" y="-210.15" font-family="Times New Roman,serif" font-size="14.00">[23..2b)</text>
<text text-anchor="middle" x="76.01" y="-195.15" font-family="Times New Roman,serif" font-size="14.00">0.28</text>
</g>
<!-- BB0&#45;&gt;BB3 -->
<g id="edge1" class="edge">
<title>BB0&#45;&gt;BB3</title>
<path fill="none" stroke="black" d="M76.01,-268.77C76.01,-260.8 76.01,-251.91 76.01,-243.42"/>
<polygon fill="black" stroke="black" points="79.51,-243.35 76.01,-233.35 72.51,-243.35 79.51,-243.35"/>
</g>
<!-- BB1 -->
<g id="node2" class="node">
<title>BB1</title>
<ellipse fill="none" stroke="black" cx="76.01" cy="-116.61" rx="41.02" ry="26.74"/>
<text text-anchor="middle" x="76.01" y="-120.41" font-family="Times New Roman,serif" font-size="14.00">[13..1f)</text>
<text text-anchor="middle" x="76.01" y="-105.41" font-family="Times New Roman,serif" font-size="14.00">0.18</text>
</g>
<!-- BB2 -->
<g id="node3" class="node">
<title>BB2</title>
<ellipse fill="none" stroke="black" cx="41.01" cy="-26.87" rx="41.02" ry="26.74"/>
<text text-anchor="middle" x="41.01" y="-30.67" font-family="Times New Roman,serif" font-size="14.00">[1f..23)</text>
<text text-anchor="middle" x="41.01" y="-15.67" font-family="Times New Roman,serif" font-size="14.00">0.01</text>
</g>
<!-- BB1&#45;&gt;BB2 -->
<g id="edge3" class="edge">
<title>BB1&#45;&gt;BB2</title>
<path fill="none" stroke="black" d="M65.89,-90.23C62.44,-81.59 58.53,-71.78 54.84,-62.54"/>
<polygon fill="black" stroke="black" points="58.07,-61.18 51.11,-53.19 51.57,-63.78 58.07,-61.18"/>
</g>
<!-- BB4 -->
<g id="node5" class="node">
<title>BB4</title>
<ellipse fill="none" stroke="black" cx="178.01" cy="-116.61" rx="43.27" ry="26.74"/>
<text text-anchor="middle" x="178.01" y="-120.41" font-family="Times New Roman,serif" font-size="14.00">[2b..46)</text>
<text text-anchor="middle" x="178.01" y="-105.41" font-family="Times New Roman,serif" font-size="14.00">0.27</text>
</g>
<!-- BB1&#45;&gt;BB4 -->
<g id="edge2" class="edge">
<title>BB1&#45;&gt;BB4</title>
<path fill="none" stroke="black" d="M117.05,-116.61C119.53,-116.61 122.01,-116.61 124.49,-116.61"/>
<polygon fill="black" stroke="black" points="124.67,-120.11 134.67,-116.61 124.67,-113.11 124.67,-120.11"/>
</g>
<!-- BB2&#45;&gt;BB3 -->
<g id="edge4" class="edge">
<title>BB2&#45;&gt;BB3</title>
<path fill="none" stroke="black" d="M31.12,-53.38C23.36,-77.29 15.49,-113.71 26.01,-143.48 30.18,-155.28 37.67,-166.48 45.6,-176.02"/>
<polygon fill="black" stroke="black" points="43.06,-178.44 52.3,-183.63 48.31,-173.81 43.06,-178.44"/>
</g>
<!-- BB3&#45;&gt;BB1 -->
<g id="edge5" class="edge">
<title>BB3&#45;&gt;BB1</title>
<path fill="none" stroke="black" d="M76.01,-179.03C76.01,-171.06 76.01,-162.17 76.01,-153.68"/>
<polygon fill="black" stroke="black" points="79.51,-153.61 76.01,-143.61 72.51,-153.61 79.51,-153.61"/>
</g>
<!-- BB3&#45;&gt;BB4 -->
<g id="edge6" class="edge">
<title>BB3&#45;&gt;BB4</title>
<path fill="none" stroke="black" d="M100.7,-184.11C114.14,-172.56 130.92,-158.12 145.41,-145.65"/>
<polygon fill="black" stroke="black" points="147.9,-148.13 153.19,-138.96 143.33,-142.83 147.9,-148.13"/>
</g>
</g>
</svg>
