<?xml version="1.0" encoding="UTF-8" standalone="no"?>
<!DOCTYPE svg PUBLIC "-//W3C//DTD SVG 1.1//EN"
 "http://www.w3.org/Graphics/SVG/1.1/DTD/svg11.dtd">
<!-- Generated by graphviz version 2.47.0 (20210316.0004)
 -->
<!-- Title: G Pages: 1 -->
<svg width="524pt" height="305pt"
 viewBox="0.00 0.00 523.90 304.86" xmlns="http://www.w3.org/2000/svg" xmlns:xlink="http://www.w3.org/1999/xlink">
<g id="graph0" class="graph" transform="scale(1 1) rotate(0) translate(4 300.86)">
<title>G</title>
<polygon fill="white" stroke="transparent" points="-4,4 -4,-300.86 519.9,-300.86 519.9,4 -4,4"/>
<!-- BB0 -->
<g id="node1" class="node">
<title>BB0</title>
<ellipse fill="none" stroke="black" cx="143.54" cy="-259.38" rx="105.22" ry="37.45"/>
<text text-anchor="middle" x="143.54" y="-270.68" font-family="Times New Roman,serif" font-size="14.00">[0..4)</text>
<text text-anchor="middle" x="143.54" y="-255.68" font-family="Times New Roman,serif" font-size="14.00">Normalized Count: 1.00</text>
<text text-anchor="middle" x="143.54" y="-240.68" font-family="Times New Roman,serif" font-size="14.00">Samples weight: 0.00</text>
</g>
<!-- BB2 -->
<g id="node3" class="node">
<title>BB2</title>
<ellipse fill="none" stroke="black" cx="143.54" cy="-148.43" rx="143.59" ry="37.45"/>
<text text-anchor="middle" x="143.54" y="-159.73" font-family="Times New Roman,serif" font-size="14.00">[10..18)</text>
<text text-anchor="middle" x="143.54" y="-144.73" font-family="Times New Roman,serif" font-size="14.00">Normalized Count: 141006541.80</text>
<text text-anchor="middle" x="143.54" y="-129.73" font-family="Times New Roman,serif" font-size="14.00">Samples weight: 0.50</text>
</g>
<!-- BB0&#45;&gt;BB2 -->
<g id="edge1" class="edge">
<title>BB0&#45;&gt;BB2</title>
<path fill="none" stroke="black" d="M143.54,-221.8C143.54,-213.63 143.54,-204.85 143.54,-196.32"/>
<polygon fill="black" stroke="black" points="147.04,-196.1 143.54,-186.1 140.04,-196.1 147.04,-196.1"/>
</g>
<!-- BB1 -->
<g id="node2" class="node">
<title>BB1</title>
<ellipse fill="none" stroke="black" cx="143.54" cy="-37.48" rx="143.59" ry="37.45"/>
<text text-anchor="middle" x="143.54" y="-48.78" font-family="Times New Roman,serif" font-size="14.00">[4..10)</text>
<text text-anchor="middle" x="143.54" y="-33.78" font-family="Times New Roman,serif" font-size="14.00">Normalized Count: 141006540.80</text>
<text text-anchor="middle" x="143.54" y="-18.78" font-family="Times New Roman,serif" font-size="14.00">Samples weight: 0.50</text>
</g>
<!-- BB1&#45;&gt;BB2 -->
<g id="edge2" class="edge">
<title>BB1&#45;&gt;BB2</title>
<path fill="none" stroke="black" d="M149.96,-75.15C150.28,-83.33 150.37,-92.11 150.23,-100.63"/>
<polygon fill="black" stroke="black" points="146.73,-100.76 149.96,-110.85 153.73,-100.94 146.73,-100.76"/>
</g>
<!-- BB2&#45;&gt;BB1 -->
<g id="edge3" class="edge">
<title>BB2&#45;&gt;BB1</title>
<path fill="none" stroke="black" d="M137.13,-110.85C136.81,-102.67 136.72,-93.89 136.85,-85.37"/>
<polygon fill="black" stroke="black" points="140.36,-85.24 137.12,-75.15 133.36,-85.05 140.36,-85.24"/>
</g>
<!-- BB3 -->
<g id="node4" class="node">
<title>BB3</title>
<ellipse fill="none" stroke="black" cx="410.54" cy="-37.48" rx="105.22" ry="37.45"/>
<text text-anchor="middle" x="410.54" y="-48.78" font-family="Times New Roman,serif" font-size="14.00">[18..19)</text>
<text text-anchor="middle" x="410.54" y="-33.78" font-family="Times New Roman,serif" font-size="14.00">Normalized Count: 1.00</text>
<text text-anchor="middle" x="410.54" y="-18.78" font-family="Times New Roman,serif" font-size="14.00">Samples weight: 0.00</text>
</g>
<!-- BB2&#45;&gt;BB3 -->
<g id="edge4" class="edge">
<title>BB2&#45;&gt;BB3</title>
<path fill="none" stroke="black" d="M219.34,-116.5C254.86,-102 297.14,-84.75 332.89,-70.16"/>
<polygon fill="black" stroke="black" points="334.37,-73.34 342.31,-66.32 331.73,-66.86 334.37,-73.34"/>
</g>
</g>
</svg>
