<?xml version="1.0" encoding="UTF-8" standalone="no"?>
<!DOCTYPE svg PUBLIC "-//W3C//DTD SVG 1.1//EN"
 "http://www.w3.org/Graphics/SVG/1.1/DTD/svg11.dtd">
<!-- Generated by graphviz version 2.47.0 (20210316.0004)
 -->
<!-- Title: G Pages: 1 -->
<svg width="515pt" height="416pt"
 viewBox="0.00 0.00 514.72 415.81" xmlns="http://www.w3.org/2000/svg" xmlns:xlink="http://www.w3.org/1999/xlink">
<g id="graph0" class="graph" transform="scale(1 1) rotate(0) translate(4 411.81)">
<title>G</title>
<polygon fill="white" stroke="transparent" points="-4,4 -4,-411.81 510.72,-411.81 510.72,4 -4,4"/>
<!-- BB0 -->
<g id="node1" class="node">
<title>BB0</title>
<ellipse fill="none" stroke="black" cx="172.36" cy="-370.34" rx="105.22" ry="37.45"/>
<text text-anchor="middle" x="172.36" y="-381.64" font-family="Times New Roman,serif" font-size="14.00">[0..13)</text>
<text text-anchor="middle" x="172.36" y="-366.64" font-family="Times New Roman,serif" font-size="14.00">Normalized Count: 1.00</text>
<text text-anchor="middle" x="172.36" y="-351.64" font-family="Times New Roman,serif" font-size="14.00">Samples weight: 0.27</text>
</g>
<!-- BB3 -->
<g id="node4" class="node">
<title>BB3</title>
<ellipse fill="none" stroke="black" cx="172.36" cy="-259.38" rx="105.22" ry="37.45"/>
<text text-anchor="middle" x="172.36" y="-270.68" font-family="Times New Roman,serif" font-size="14.00">[23..2b)</text>
<text text-anchor="middle" x="172.36" y="-255.68" font-family="Times New Roman,serif" font-size="14.00">Normalized Count: 1.04</text>
<text text-anchor="middle" x="172.36" y="-240.68" font-family="Times New Roman,serif" font-size="14.00">Samples weight: 0.28</text>
</g>
<!-- BB0&#45;&gt;BB3 -->
<g id="edge1" class="edge">
<title>BB0&#45;&gt;BB3</title>
<path fill="none" stroke="black" d="M172.36,-332.75C172.36,-324.58 172.36,-315.8 172.36,-307.27"/>
<polygon fill="black" stroke="black" points="175.86,-307.06 172.36,-297.06 168.86,-307.06 175.86,-307.06"/>
</g>
<!-- BB1 -->
<g id="node2" class="node">
<title>BB1</title>
<ellipse fill="none" stroke="black" cx="172.36" cy="-148.43" rx="105.22" ry="37.45"/>
<text text-anchor="middle" x="172.36" y="-159.73" font-family="Times New Roman,serif" font-size="14.00">[13..1f)</text>
<text text-anchor="middle" x="172.36" y="-144.73" font-family="Times New Roman,serif" font-size="14.00">Normalized Count: 0.68</text>
<text text-anchor="middle" x="172.36" y="-129.73" font-family="Times New Roman,serif" font-size="14.00">Samples weight: 0.18</text>
</g>
<!-- BB2 -->
<g id="node3" class="node">
<title>BB2</title>
<ellipse fill="none" stroke="black" cx="105.36" cy="-37.48" rx="105.22" ry="37.45"/>
<text text-anchor="middle" x="105.36" y="-48.78" font-family="Times New Roman,serif" font-size="14.00">[1f..23)</text>
<text text-anchor="middle" x="105.36" y="-33.78" font-family="Times New Roman,serif" font-size="14.00">Normalized Count: 0.04</text>
<text text-anchor="middle" x="105.36" y="-18.78" font-family="Times New Roman,serif" font-size="14.00">Samples weight: 0.01</text>
</g>
<!-- BB1&#45;&gt;BB2 -->
<g id="edge3" class="edge">
<title>BB1&#45;&gt;BB2</title>
<path fill="none" stroke="black" d="M150.42,-111.75C144.75,-102.54 138.58,-92.5 132.67,-82.9"/>
<polygon fill="black" stroke="black" points="135.57,-80.92 127.35,-74.23 129.6,-84.58 135.57,-80.92"/>
</g>
<!-- BB4 -->
<g id="node5" class="node">
<title>BB4</title>
<ellipse fill="none" stroke="black" cx="401.36" cy="-148.43" rx="105.22" ry="37.45"/>
<text text-anchor="middle" x="401.36" y="-159.73" font-family="Times New Roman,serif" font-size="14.00">[2b..46)</text>
<text text-anchor="middle" x="401.36" y="-144.73" font-family="Times New Roman,serif" font-size="14.00">Normalized Count: 1.00</text>
<text text-anchor="middle" x="401.36" y="-129.73" font-family="Times New Roman,serif" font-size="14.00">Samples weight: 0.27</text>
</g>
<!-- BB1&#45;&gt;BB4 -->
<g id="edge2" class="edge">
<title>BB1&#45;&gt;BB4</title>
<path fill="none" stroke="black" d="M277.91,-148.43C280.52,-148.43 283.12,-148.43 285.72,-148.43"/>
<polygon fill="black" stroke="black" points="285.76,-151.93 295.76,-148.43 285.76,-144.93 285.76,-151.93"/>
</g>
<!-- BB2&#45;&gt;BB3 -->
<g id="edge4" class="edge">
<title>BB2&#45;&gt;BB3</title>
<path fill="none" stroke="black" d="M76.78,-73.68C69.29,-84.93 62.23,-97.87 58.36,-110.95 48.91,-142.9 42.32,-156.71 58.36,-185.91 67.12,-201.86 81.05,-214.81 96.21,-225.1"/>
<polygon fill="black" stroke="black" points="94.42,-228.11 104.73,-230.54 98.19,-222.21 94.42,-228.11"/>
</g>
<!-- BB3&#45;&gt;BB1 -->
<g id="edge5" class="edge">
<title>BB3&#45;&gt;BB1</title>
<path fill="none" stroke="black" d="M172.36,-221.8C172.36,-213.63 172.36,-204.85 172.36,-196.32"/>
<polygon fill="black" stroke="black" points="175.86,-196.1 172.36,-186.1 168.86,-196.1 175.86,-196.1"/>
</g>
<!-- BB3&#45;&gt;BB4 -->
<g id="edge6" class="edge">
<title>BB3&#45;&gt;BB4</title>
<path fill="none" stroke="black" d="M234.33,-228.9C263.86,-214.85 299.34,-197.97 329.99,-183.38"/>
<polygon fill="black" stroke="black" points="331.81,-186.39 339.34,-178.94 328.8,-180.07 331.81,-186.39"/>
</g>
</g>
</svg>
