<?xml version="1.0" encoding="UTF-8" standalone="no"?>
<!DOCTYPE svg PUBLIC "-//W3C//DTD SVG 1.1//EN"
 "http://www.w3.org/Graphics/SVG/1.1/DTD/svg11.dtd">
<!-- Generated by graphviz version 2.47.0 (20210316.0004)
 -->
<!-- Title: G Pages: 1 -->
<svg width="504pt" height="501pt"
 viewBox="0.00 0.00 504.48 500.67" xmlns="http://www.w3.org/2000/svg" xmlns:xlink="http://www.w3.org/1999/xlink">
<g id="graph0" class="graph" transform="scale(1 1) rotate(0) translate(4 496.67)">
<title>G</title>
<polygon fill="white" stroke="transparent" points="-4,4 -4,-496.67 500.48,-496.67 500.48,4 -4,4"/>
<!-- BB0 -->
<g id="node1" class="node">
<title>BB0</title>
<ellipse fill="none" stroke="black" cx="169.24" cy="-444.58" rx="103.48" ry="48.17"/>
<text text-anchor="middle" x="169.24" y="-463.38" font-family="Times New Roman,serif" font-size="14.00">[0..13)</text>
<text text-anchor="middle" x="169.24" y="-448.38" font-family="Times New Roman,serif" font-size="14.00">Count: 705032704</text>
<text text-anchor="middle" x="169.24" y="-433.38" font-family="Times New Roman,serif" font-size="14.00">Normalized count: 1.00</text>
<text text-anchor="middle" x="169.24" y="-418.38" font-family="Times New Roman,serif" font-size="14.00">Samples weight: 0.09</text>
</g>
<!-- BB3 -->
<g id="node4" class="node">
<title>BB3</title>
<ellipse fill="none" stroke="black" cx="169.24" cy="-312.42" rx="103.48" ry="48.17"/>
<text text-anchor="middle" x="169.24" y="-331.22" font-family="Times New Roman,serif" font-size="14.00">[23..2b)</text>
<text text-anchor="middle" x="169.24" y="-316.22" font-family="Times New Roman,serif" font-size="14.00">Count: 2410065408</text>
<text text-anchor="middle" x="169.24" y="-301.22" font-family="Times New Roman,serif" font-size="14.00">Normalized count: 3.42</text>
<text text-anchor="middle" x="169.24" y="-286.22" font-family="Times New Roman,serif" font-size="14.00">Samples weight: 0.30</text>
</g>
<!-- BB0&#45;&gt;BB3 -->
<g id="edge1" class="edge">
<title>BB0&#45;&gt;BB3</title>
<path fill="none" stroke="black" d="M169.24,-396.22C169.24,-387.95 169.24,-379.27 169.24,-370.77"/>
<polygon fill="black" stroke="black" points="172.74,-370.52 169.24,-360.52 165.74,-370.52 172.74,-370.52"/>
</g>
<!-- BB1 -->
<g id="node2" class="node">
<title>BB1</title>
<ellipse fill="none" stroke="black" cx="169.24" cy="-180.25" rx="103.48" ry="48.17"/>
<text text-anchor="middle" x="169.24" y="-199.05" font-family="Times New Roman,serif" font-size="14.00">[13..1f)</text>
<text text-anchor="middle" x="169.24" y="-184.05" font-family="Times New Roman,serif" font-size="14.00">Count: 2410065408</text>
<text text-anchor="middle" x="169.24" y="-169.05" font-family="Times New Roman,serif" font-size="14.00">Normalized count: 3.42</text>
<text text-anchor="middle" x="169.24" y="-154.05" font-family="Times New Roman,serif" font-size="14.00">Samples weight: 0.30</text>
</g>
<!-- BB2 -->
<g id="node3" class="node">
<title>BB2</title>
<ellipse fill="none" stroke="black" cx="103.24" cy="-48.08" rx="103.48" ry="48.17"/>
<text text-anchor="middle" x="103.24" y="-66.88" font-family="Times New Roman,serif" font-size="14.00">[1f..23)</text>
<text text-anchor="middle" x="103.24" y="-51.88" font-family="Times New Roman,serif" font-size="14.00">Count: 1705032704</text>
<text text-anchor="middle" x="103.24" y="-36.88" font-family="Times New Roman,serif" font-size="14.00">Normalized count: 2.42</text>
<text text-anchor="middle" x="103.24" y="-21.88" font-family="Times New Roman,serif" font-size="14.00">Samples weight: 0.21</text>
</g>
<!-- BB1&#45;&gt;BB2 -->
<g id="edge3" class="edge">
<title>BB1&#45;&gt;BB2</title>
<path fill="none" stroke="black" d="M145.97,-133.36C141.19,-123.93 136.11,-113.91 131.18,-104.19"/>
<polygon fill="black" stroke="black" points="134.16,-102.34 126.52,-95 127.92,-105.5 134.16,-102.34"/>
</g>
<!-- BB4 -->
<g id="node5" class="node">
<title>BB4</title>
<ellipse fill="none" stroke="black" cx="393.24" cy="-180.25" rx="103.48" ry="48.17"/>
<text text-anchor="middle" x="393.24" y="-199.05" font-family="Times New Roman,serif" font-size="14.00">[2b..46)</text>
<text text-anchor="middle" x="393.24" y="-184.05" font-family="Times New Roman,serif" font-size="14.00">Count: 705032704</text>
<text text-anchor="middle" x="393.24" y="-169.05" font-family="Times New Roman,serif" font-size="14.00">Normalized count: 1.00</text>
<text text-anchor="middle" x="393.24" y="-154.05" font-family="Times New Roman,serif" font-size="14.00">Samples weight: 0.09</text>
</g>
<!-- BB1&#45;&gt;BB4 -->
<g id="edge2" class="edge">
<title>BB1&#45;&gt;BB4</title>
<path fill="none" stroke="black" d="M272.49,-180.25C274.94,-180.25 277.4,-180.25 279.85,-180.25"/>
<polygon fill="black" stroke="black" points="279.94,-183.75 289.94,-180.25 279.94,-176.75 279.94,-183.75"/>
</g>
<!-- BB2&#45;&gt;BB3 -->
<g id="edge4" class="edge">
<title>BB2&#45;&gt;BB3</title>
<path fill="none" stroke="black" d="M72.82,-94.35C66.41,-106.17 60.58,-119.24 57.24,-132.17 46.55,-173.55 38.02,-190.16 57.24,-228.33 65.46,-244.66 78.57,-258.59 92.98,-270.11"/>
<polygon fill="black" stroke="black" points="91.01,-273.01 101.1,-276.26 95.24,-267.43 91.01,-273.01"/>
</g>
<!-- BB3&#45;&gt;BB1 -->
<g id="edge5" class="edge">
<title>BB3&#45;&gt;BB1</title>
<path fill="none" stroke="black" d="M169.24,-264.05C169.24,-255.79 169.24,-247.1 169.24,-238.6"/>
<polygon fill="black" stroke="black" points="172.74,-238.36 169.24,-228.36 165.74,-238.36 172.74,-238.36"/>
</g>
<!-- BB3&#45;&gt;BB4 -->
<g id="edge6" class="edge">
<title>BB3&#45;&gt;BB4</title>
<path fill="none" stroke="black" d="M232.83,-274.46C260.26,-258.52 292.48,-239.8 320.83,-223.33"/>
<polygon fill="black" stroke="black" points="322.6,-226.35 329.49,-218.29 319.08,-220.29 322.6,-226.35"/>
</g>
</g>
</svg>
