<?xml version="1.0" encoding="UTF-8" standalone="no"?>
<!DOCTYPE svg PUBLIC "-//W3C//DTD SVG 1.1//EN"
 "http://www.w3.org/Graphics/SVG/1.1/DTD/svg11.dtd">
<!-- Generated by graphviz version 2.47.0 (20210316.0004)
 -->
<!-- Title: G Pages: 1 -->
<svg width="974pt" height="897pt"
 viewBox="0.00 0.00 974.50 897.17" xmlns="http://www.w3.org/2000/svg" xmlns:xlink="http://www.w3.org/1999/xlink">
<g id="graph0" class="graph" transform="scale(1 1) rotate(0) translate(4 893.17)">
<title>G</title>
<polygon fill="white" stroke="transparent" points="-4,4 -4,-893.17 970.5,-893.17 970.5,4 -4,4"/>
<!-- BB0 -->
<g id="node1" class="node">
<title>BB0</title>
<ellipse fill="none" stroke="black" cx="359.84" cy="-841.08" rx="104.8" ry="48.17"/>
<text text-anchor="middle" x="359.84" y="-859.88" font-family="Times New Roman,serif" font-size="14.00">[0..c)</text>
<text text-anchor="middle" x="359.84" y="-844.88" font-family="Times New Roman,serif" font-size="14.00">Count: 0</text>
<text text-anchor="middle" x="359.84" y="-829.88" font-family="Times New Roman,serif" font-size="14.00">Normalized count: NaN</text>
<text text-anchor="middle" x="359.84" y="-814.88" font-family="Times New Roman,serif" font-size="14.00">Samples weight: 0.00</text>
</g>
<!-- BB5 -->
<g id="node6" class="node">
<title>BB5</title>
<ellipse fill="none" stroke="black" cx="359.84" cy="-708.92" rx="113.69" ry="48.17"/>
<text text-anchor="middle" x="359.84" y="-727.72" font-family="Times New Roman,serif" font-size="14.00">[5c..60)</text>
<text text-anchor="middle" x="359.84" y="-712.72" font-family="Times New Roman,serif" font-size="14.00">Count: 46</text>
<text text-anchor="middle" x="359.84" y="-697.72" font-family="Times New Roman,serif" font-size="14.00">Normalized count: Infinity</text>
<text text-anchor="middle" x="359.84" y="-682.72" font-family="Times New Roman,serif" font-size="14.00">Samples weight: 0.00</text>
</g>
<!-- BB0&#45;&gt;BB5 -->
<g id="edge1" class="edge">
<title>BB0&#45;&gt;BB5</title>
<path fill="none" stroke="black" d="M359.84,-792.72C359.84,-784.45 359.84,-775.77 359.84,-767.27"/>
<polygon fill="black" stroke="black" points="363.34,-767.02 359.84,-757.02 356.34,-767.02 363.34,-767.02"/>
</g>
<!-- BB1 -->
<g id="node2" class="node">
<title>BB1</title>
<ellipse fill="none" stroke="black" cx="359.84" cy="-576.75" rx="113.69" ry="48.17"/>
<text text-anchor="middle" x="359.84" y="-595.55" font-family="Times New Roman,serif" font-size="14.00">[c..2c)</text>
<text text-anchor="middle" x="359.84" y="-580.55" font-family="Times New Roman,serif" font-size="14.00">Count: 255</text>
<text text-anchor="middle" x="359.84" y="-565.55" font-family="Times New Roman,serif" font-size="14.00">Normalized count: Infinity</text>
<text text-anchor="middle" x="359.84" y="-550.55" font-family="Times New Roman,serif" font-size="14.00">Samples weight: 0.02</text>
</g>
<!-- BB3 -->
<g id="node4" class="node">
<title>BB3</title>
<ellipse fill="none" stroke="black" cx="359.84" cy="-444.58" rx="113.69" ry="48.17"/>
<text text-anchor="middle" x="359.84" y="-463.38" font-family="Times New Roman,serif" font-size="14.00">[48..4d)</text>
<text text-anchor="middle" x="359.84" y="-448.38" font-family="Times New Roman,serif" font-size="14.00">Count: 1685</text>
<text text-anchor="middle" x="359.84" y="-433.38" font-family="Times New Roman,serif" font-size="14.00">Normalized count: Infinity</text>
<text text-anchor="middle" x="359.84" y="-418.38" font-family="Times New Roman,serif" font-size="14.00">Samples weight: 0.11</text>
</g>
<!-- BB1&#45;&gt;BB3 -->
<g id="edge2" class="edge">
<title>BB1&#45;&gt;BB3</title>
<path fill="none" stroke="black" d="M359.84,-528.39C359.84,-520.12 359.84,-511.44 359.84,-502.93"/>
<polygon fill="black" stroke="black" points="363.34,-502.69 359.84,-492.69 356.34,-502.69 363.34,-502.69"/>
</g>
<!-- BB2 -->
<g id="node3" class="node">
<title>BB2</title>
<ellipse fill="none" stroke="black" cx="359.84" cy="-312.42" rx="113.69" ry="48.17"/>
<text text-anchor="middle" x="359.84" y="-331.22" font-family="Times New Roman,serif" font-size="14.00">[2c..48)</text>
<text text-anchor="middle" x="359.84" y="-316.22" font-family="Times New Roman,serif" font-size="14.00">Count: 4883</text>
<text text-anchor="middle" x="359.84" y="-301.22" font-family="Times New Roman,serif" font-size="14.00">Normalized count: Infinity</text>
<text text-anchor="middle" x="359.84" y="-286.22" font-family="Times New Roman,serif" font-size="14.00">Samples weight: 0.33</text>
</g>
<!-- BB2&#45;&gt;BB3 -->
<g id="edge3" class="edge">
<title>BB2&#45;&gt;BB3</title>
<path fill="none" stroke="black" d="M366.36,-360.52C366.58,-368.78 366.65,-377.46 366.55,-385.97"/>
<polygon fill="black" stroke="black" points="363.05,-386.16 366.37,-396.22 370.05,-386.29 363.05,-386.16"/>
</g>
<!-- BB3&#45;&gt;BB2 -->
<g id="edge4" class="edge">
<title>BB3&#45;&gt;BB2</title>
<path fill="none" stroke="black" d="M353.32,-396.22C353.1,-387.95 353.04,-379.27 353.14,-370.77"/>
<polygon fill="black" stroke="black" points="356.64,-370.59 353.33,-360.52 349.64,-370.46 356.64,-370.59"/>
</g>
<!-- BB4 -->
<g id="node5" class="node">
<title>BB4</title>
<ellipse fill="none" stroke="black" cx="113.84" cy="-312.42" rx="113.69" ry="48.17"/>
<text text-anchor="middle" x="113.84" y="-331.22" font-family="Times New Roman,serif" font-size="14.00">[4d..5c)</text>
<text text-anchor="middle" x="113.84" y="-316.22" font-family="Times New Roman,serif" font-size="14.00">Count: 127</text>
<text text-anchor="middle" x="113.84" y="-301.22" font-family="Times New Roman,serif" font-size="14.00">Normalized count: Infinity</text>
<text text-anchor="middle" x="113.84" y="-286.22" font-family="Times New Roman,serif" font-size="14.00">Samples weight: 0.01</text>
</g>
<!-- BB3&#45;&gt;BB4 -->
<g id="edge5" class="edge">
<title>BB3&#45;&gt;BB4</title>
<path fill="none" stroke="black" d="M289.68,-406.46C259.56,-390.52 224.23,-371.82 193.17,-355.39"/>
<polygon fill="black" stroke="black" points="194.58,-352.18 184.1,-350.59 191.3,-358.36 194.58,-352.18"/>
</g>
<!-- BB4&#45;&gt;BB5 -->
<g id="edge6" class="edge">
<title>BB4&#45;&gt;BB5</title>
<path fill="none" stroke="black" d="M123.23,-360.61C138.1,-425.78 172.25,-544.37 236.84,-624.83 249.14,-640.15 265.02,-653.71 281.25,-665.2"/>
<polygon fill="black" stroke="black" points="279.53,-668.26 289.76,-671.02 283.48,-662.48 279.53,-668.26"/>
</g>
<!-- BB5&#45;&gt;BB1 -->
<g id="edge7" class="edge">
<title>BB5&#45;&gt;BB1</title>
<path fill="none" stroke="black" d="M359.84,-660.55C359.84,-652.29 359.84,-643.6 359.84,-635.1"/>
<polygon fill="black" stroke="black" points="363.34,-634.86 359.84,-624.86 356.34,-634.86 363.34,-634.86"/>
</g>
<!-- BB6 -->
<g id="node7" class="node">
<title>BB6</title>
<ellipse fill="none" stroke="black" cx="605.84" cy="-576.75" rx="104.8" ry="48.17"/>
<text text-anchor="middle" x="605.84" y="-595.55" font-family="Times New Roman,serif" font-size="14.00">[60..64)</text>
<text text-anchor="middle" x="605.84" y="-580.55" font-family="Times New Roman,serif" font-size="14.00">Count: 0</text>
<text text-anchor="middle" x="605.84" y="-565.55" font-family="Times New Roman,serif" font-size="14.00">Normalized count: NaN</text>
<text text-anchor="middle" x="605.84" y="-550.55" font-family="Times New Roman,serif" font-size="14.00">Samples weight: 0.00</text>
</g>
<!-- BB5&#45;&gt;BB6 -->
<g id="edge8" class="edge">
<title>BB5&#45;&gt;BB6</title>
<path fill="none" stroke="black" d="M430.01,-670.79C460.9,-654.44 497.28,-635.19 528.91,-618.46"/>
<polygon fill="black" stroke="black" points="530.93,-621.35 538.13,-613.58 527.66,-615.16 530.93,-621.35"/>
</g>
<!-- BB11 -->
<g id="node12" class="node">
<title>BB11</title>
<ellipse fill="none" stroke="black" cx="624.84" cy="-444.58" rx="104.8" ry="48.17"/>
<text text-anchor="middle" x="624.84" y="-463.38" font-family="Times New Roman,serif" font-size="14.00">[7e..82)</text>
<text text-anchor="middle" x="624.84" y="-448.38" font-family="Times New Roman,serif" font-size="14.00">Count: 0</text>
<text text-anchor="middle" x="624.84" y="-433.38" font-family="Times New Roman,serif" font-size="14.00">Normalized count: NaN</text>
<text text-anchor="middle" x="624.84" y="-418.38" font-family="Times New Roman,serif" font-size="14.00">Samples weight: 0.00</text>
</g>
<!-- BB6&#45;&gt;BB11 -->
<g id="edge9" class="edge">
<title>BB6&#45;&gt;BB11</title>
<path fill="none" stroke="black" d="M612.7,-528.76C613.93,-520.38 615.21,-511.57 616.47,-502.95"/>
<polygon fill="black" stroke="black" points="619.95,-503.34 617.93,-492.94 613.02,-502.33 619.95,-503.34"/>
</g>
<!-- BB7 -->
<g id="node8" class="node">
<title>BB7</title>
<ellipse fill="none" stroke="black" cx="634.84" cy="-312.42" rx="104.8" ry="48.17"/>
<text text-anchor="middle" x="634.84" y="-331.22" font-family="Times New Roman,serif" font-size="14.00">[64..68)</text>
<text text-anchor="middle" x="634.84" y="-316.22" font-family="Times New Roman,serif" font-size="14.00">Count: 0</text>
<text text-anchor="middle" x="634.84" y="-301.22" font-family="Times New Roman,serif" font-size="14.00">Normalized count: NaN</text>
<text text-anchor="middle" x="634.84" y="-286.22" font-family="Times New Roman,serif" font-size="14.00">Samples weight: 0.00</text>
</g>
<!-- BB9 -->
<g id="node10" class="node">
<title>BB9</title>
<ellipse fill="none" stroke="black" cx="666.84" cy="-180.25" rx="113.69" ry="48.17"/>
<text text-anchor="middle" x="666.84" y="-199.05" font-family="Times New Roman,serif" font-size="14.00">[76..7a)</text>
<text text-anchor="middle" x="666.84" y="-184.05" font-family="Times New Roman,serif" font-size="14.00">Count: 2396</text>
<text text-anchor="middle" x="666.84" y="-169.05" font-family="Times New Roman,serif" font-size="14.00">Normalized count: Infinity</text>
<text text-anchor="middle" x="666.84" y="-154.05" font-family="Times New Roman,serif" font-size="14.00">Samples weight: 0.16</text>
</g>
<!-- BB7&#45;&gt;BB9 -->
<g id="edge10" class="edge">
<title>BB7&#45;&gt;BB9</title>
<path fill="none" stroke="black" d="M646.4,-264.42C648.5,-255.85 650.72,-246.83 652.89,-238.01"/>
<polygon fill="black" stroke="black" points="656.32,-238.72 655.31,-228.17 649.52,-237.05 656.32,-238.72"/>
</g>
<!-- BB8 -->
<g id="node9" class="node">
<title>BB8</title>
<ellipse fill="none" stroke="black" cx="690.84" cy="-48.08" rx="113.69" ry="48.17"/>
<text text-anchor="middle" x="690.84" y="-66.88" font-family="Times New Roman,serif" font-size="14.00">[68..76)</text>
<text text-anchor="middle" x="690.84" y="-51.88" font-family="Times New Roman,serif" font-size="14.00">Count: 5495</text>
<text text-anchor="middle" x="690.84" y="-36.88" font-family="Times New Roman,serif" font-size="14.00">Normalized count: Infinity</text>
<text text-anchor="middle" x="690.84" y="-21.88" font-family="Times New Roman,serif" font-size="14.00">Samples weight: 0.37</text>
</g>
<!-- BB8&#45;&gt;BB9 -->
<g id="edge11" class="edge">
<title>BB8&#45;&gt;BB9</title>
<path fill="none" stroke="black" d="M688.63,-96.44C687.31,-104.83 685.74,-113.64 684.05,-122.26"/>
<polygon fill="black" stroke="black" points="680.59,-121.76 682.02,-132.26 687.44,-123.16 680.59,-121.76"/>
</g>
<!-- BB9&#45;&gt;BB8 -->
<g id="edge12" class="edge">
<title>BB9&#45;&gt;BB8</title>
<path fill="none" stroke="black" d="M669.05,-131.89C670.39,-123.42 671.97,-114.53 673.68,-105.83"/>
<polygon fill="black" stroke="black" points="677.17,-106.25 675.73,-95.76 670.31,-104.86 677.17,-106.25"/>
</g>
<!-- BB10 -->
<g id="node11" class="node">
<title>BB10</title>
<ellipse fill="none" stroke="black" cx="454.84" cy="-48.08" rx="104.8" ry="48.17"/>
<text text-anchor="middle" x="454.84" y="-66.88" font-family="Times New Roman,serif" font-size="14.00">[7a..7e)</text>
<text text-anchor="middle" x="454.84" y="-51.88" font-family="Times New Roman,serif" font-size="14.00">Count: 0</text>
<text text-anchor="middle" x="454.84" y="-36.88" font-family="Times New Roman,serif" font-size="14.00">Normalized count: NaN</text>
<text text-anchor="middle" x="454.84" y="-21.88" font-family="Times New Roman,serif" font-size="14.00">Samples weight: 0.00</text>
</g>
<!-- BB9&#45;&gt;BB10 -->
<g id="edge13" class="edge">
<title>BB9&#45;&gt;BB10</title>
<path fill="none" stroke="black" d="M603.24,-140.2C578.69,-125.12 550.51,-107.82 525.35,-92.37"/>
<polygon fill="black" stroke="black" points="526.94,-89.24 516.58,-86.99 523.27,-95.21 526.94,-89.24"/>
</g>
<!-- BB10&#45;&gt;BB11 -->
<g id="edge14" class="edge">
<title>BB10&#45;&gt;BB11</title>
<path fill="none" stroke="black" d="M460.9,-96.39C471.24,-172.18 493.86,-316.76 520.84,-360.5 529.77,-374.97 542.15,-387.98 555.27,-399.18"/>
<polygon fill="black" stroke="black" points="553.11,-401.93 563.06,-405.56 557.54,-396.52 553.11,-401.93"/>
</g>
<!-- BB11&#45;&gt;BB7 -->
<g id="edge15" class="edge">
<title>BB11&#45;&gt;BB7</title>
<path fill="none" stroke="black" d="M628.48,-396.22C629.12,-387.95 629.78,-379.27 630.44,-370.77"/>
<polygon fill="black" stroke="black" points="633.95,-370.76 631.23,-360.52 626.97,-370.23 633.95,-370.76"/>
</g>
<!-- BB12 -->
<g id="node13" class="node">
<title>BB12</title>
<ellipse fill="none" stroke="black" cx="861.84" cy="-312.42" rx="104.8" ry="48.17"/>
<text text-anchor="middle" x="861.84" y="-331.22" font-family="Times New Roman,serif" font-size="14.00">[82..83)</text>
<text text-anchor="middle" x="861.84" y="-316.22" font-family="Times New Roman,serif" font-size="14.00">Count: 0</text>
<text text-anchor="middle" x="861.84" y="-301.22" font-family="Times New Roman,serif" font-size="14.00">Normalized count: NaN</text>
<text text-anchor="middle" x="861.84" y="-286.22" font-family="Times New Roman,serif" font-size="14.00">Samples weight: 0.00</text>
</g>
<!-- BB11&#45;&gt;BB12 -->
<g id="edge16" class="edge">
<title>BB11&#45;&gt;BB12</title>
<path fill="none" stroke="black" d="M691.18,-407.15C720.84,-390.86 755.95,-371.57 786.59,-354.75"/>
<polygon fill="black" stroke="black" points="788.45,-357.72 795.53,-349.84 785.08,-351.59 788.45,-357.72"/>
</g>
</g>
</svg>
