<?xml version="1.0" encoding="UTF-8" standalone="no"?>
<!DOCTYPE svg PUBLIC "-//W3C//DTD SVG 1.1//EN"
 "http://www.w3.org/Graphics/SVG/1.1/DTD/svg11.dtd">
<!-- Generated by graphviz version 2.47.0 (20210316.0004)
 -->
<!-- Title: G Pages: 1 -->
<svg width="992pt" height="897pt"
 viewBox="0.00 0.00 992.50 897.17" xmlns="http://www.w3.org/2000/svg" xmlns:xlink="http://www.w3.org/1999/xlink">
<g id="graph0" class="graph" transform="scale(1 1) rotate(0) translate(4 893.17)">
<title>G</title>
<polygon fill="white" stroke="transparent" points="-4,4 -4,-893.17 988.5,-893.17 988.5,4 -4,4"/>
<!-- BB0 -->
<g id="node1" class="node">
<title>BB0</title>
<ellipse fill="none" stroke="black" cx="359.84" cy="-841.08" rx="104.8" ry="48.17"/>
<text text-anchor="middle" x="359.84" y="-859.88" font-family="Times New Roman,serif" font-size="14.00">[0..c)</text>
<text text-anchor="middle" x="359.84" y="-844.88" font-family="Times New Roman,serif" font-size="14.00">Count: 0</text>
<text text-anchor="middle" x="359.84" y="-829.88" font-family="Times New Roman,serif" font-size="14.00">Normalized count: NaN</text>
<text text-anchor="middle" x="359.84" y="-814.88" font-family="Times New Roman,serif" font-size="14.00">Samples weight: 0.00</text>
</g>
<!-- BB5 -->
<g id="node6" class="node">
<title>BB5</title>
<ellipse fill="none" stroke="black" cx="359.84" cy="-708.92" rx="113.69" ry="48.17"/>
<text text-anchor="middle" x="359.84" y="-727.72" font-family="Times New Roman,serif" font-size="14.00">[5c..60)</text>
<text text-anchor="middle" x="359.84" y="-712.72" font-family="Times New Roman,serif" font-size="14.00">Count: 45</text>
<text text-anchor="middle" x="359.84" y="-697.72" font-family="Times New Roman,serif" font-size="14.00">Normalized count: Infinity</text>
<text text-anchor="middle" x="359.84" y="-682.72" font-family="Times New Roman,serif" font-size="14.00">Samples weight: 0.00</text>
</g>
<!-- BB0&#45;&gt;BB5 -->
<g id="edge1" class="edge">
<title>BB0&#45;&gt;BB5</title>
<path fill="none" stroke="black" d="M359.84,-792.72C359.84,-784.45 359.84,-775.77 359.84,-767.27"/>
<polygon fill="black" stroke="black" points="363.34,-767.02 359.84,-757.02 356.34,-767.02 363.34,-767.02"/>
</g>
<!-- BB1 -->
<g id="node2" class="node">
<title>BB1</title>
<ellipse fill="none" stroke="black" cx="359.84" cy="-576.75" rx="113.69" ry="48.17"/>
<text text-anchor="middle" x="359.84" y="-595.55" font-family="Times New Roman,serif" font-size="14.00">[c..2c)</text>
<text text-anchor="middle" x="359.84" y="-580.55" font-family="Times New Roman,serif" font-size="14.00">Count: 142</text>
<text text-anchor="middle" x="359.84" y="-565.55" font-family="Times New Roman,serif" font-size="14.00">Normalized count: Infinity</text>
<text text-anchor="middle" x="359.84" y="-550.55" font-family="Times New Roman,serif" font-size="14.00">Samples weight: 0.01</text>
</g>
<!-- BB3 -->
<g id="node4" class="node">
<title>BB3</title>
<ellipse fill="none" stroke="black" cx="359.84" cy="-444.58" rx="113.69" ry="48.17"/>
<text text-anchor="middle" x="359.84" y="-463.38" font-family="Times New Roman,serif" font-size="14.00">[48..4d)</text>
<text text-anchor="middle" x="359.84" y="-448.38" font-family="Times New Roman,serif" font-size="14.00">Count: 1687</text>
<text text-anchor="middle" x="359.84" y="-433.38" font-family="Times New Roman,serif" font-size="14.00">Normalized count: Infinity</text>
<text text-anchor="middle" x="359.84" y="-418.38" font-family="Times New Roman,serif" font-size="14.00">Samples weight: 0.13</text>
</g>
<!-- BB1&#45;&gt;BB3 -->
<g id="edge2" class="edge">
<title>BB1&#45;&gt;BB3</title>
<path fill="none" stroke="black" d="M359.84,-528.39C359.84,-520.12 359.84,-511.44 359.84,-502.93"/>
<polygon fill="black" stroke="black" points="363.34,-502.69 359.84,-492.69 356.34,-502.69 363.34,-502.69"/>
</g>
<!-- BB2 -->
<g id="node3" class="node">
<title>BB2</title>
<ellipse fill="none" stroke="black" cx="359.84" cy="-312.42" rx="113.69" ry="48.17"/>
<text text-anchor="middle" x="359.84" y="-331.22" font-family="Times New Roman,serif" font-size="14.00">[2c..48)</text>
<text text-anchor="middle" x="359.84" y="-316.22" font-family="Times New Roman,serif" font-size="14.00">Count: 3276</text>
<text text-anchor="middle" x="359.84" y="-301.22" font-family="Times New Roman,serif" font-size="14.00">Normalized count: Infinity</text>
<text text-anchor="middle" x="359.84" y="-286.22" font-family="Times New Roman,serif" font-size="14.00">Samples weight: 0.26</text>
</g>
<!-- BB2&#45;&gt;BB3 -->
<g id="edge3" class="edge">
<title>BB2&#45;&gt;BB3</title>
<path fill="none" stroke="black" d="M366.36,-360.52C366.58,-368.78 366.65,-377.46 366.55,-385.97"/>
<polygon fill="black" stroke="black" points="363.05,-386.16 366.37,-396.22 370.05,-386.29 363.05,-386.16"/>
</g>
<!-- BB3&#45;&gt;BB2 -->
<g id="edge4" class="edge">
<title>BB3&#45;&gt;BB2</title>
<path fill="none" stroke="black" d="M353.32,-396.22C353.1,-387.95 353.04,-379.27 353.14,-370.77"/>
<polygon fill="black" stroke="black" points="356.64,-370.59 353.33,-360.52 349.64,-370.46 356.64,-370.59"/>
</g>
<!-- BB4 -->
<g id="node5" class="node">
<title>BB4</title>
<ellipse fill="none" stroke="black" cx="113.84" cy="-312.42" rx="113.69" ry="48.17"/>
<text text-anchor="middle" x="113.84" y="-331.22" font-family="Times New Roman,serif" font-size="14.00">[4d..5c)</text>
<text text-anchor="middle" x="113.84" y="-316.22" font-family="Times New Roman,serif" font-size="14.00">Count: 81</text>
<text text-anchor="middle" x="113.84" y="-301.22" font-family="Times New Roman,serif" font-size="14.00">Normalized count: Infinity</text>
<text text-anchor="middle" x="113.84" y="-286.22" font-family="Times New Roman,serif" font-size="14.00">Samples weight: 0.01</text>
</g>
<!-- BB3&#45;&gt;BB4 -->
<g id="edge5" class="edge">
<title>BB3&#45;&gt;BB4</title>
<path fill="none" stroke="black" d="M289.68,-406.46C259.56,-390.52 224.23,-371.82 193.17,-355.39"/>
<polygon fill="black" stroke="black" points="194.58,-352.18 184.1,-350.59 191.3,-358.36 194.58,-352.18"/>
</g>
<!-- BB4&#45;&gt;BB5 -->
<g id="edge6" class="edge">
<title>BB4&#45;&gt;BB5</title>
<path fill="none" stroke="black" d="M123.23,-360.61C138.1,-425.78 172.25,-544.37 236.84,-624.83 249.14,-640.15 265.02,-653.71 281.25,-665.2"/>
<polygon fill="black" stroke="black" points="279.53,-668.26 289.76,-671.02 283.48,-662.48 279.53,-668.26"/>
</g>
<!-- BB5&#45;&gt;BB1 -->
<g id="edge7" class="edge">
<title>BB5&#45;&gt;BB1</title>
<path fill="none" stroke="black" d="M359.84,-660.55C359.84,-652.29 359.84,-643.6 359.84,-635.1"/>
<polygon fill="black" stroke="black" points="363.34,-634.86 359.84,-624.86 356.34,-634.86 363.34,-634.86"/>
</g>
<!-- BB6 -->
<g id="node7" class="node">
<title>BB6</title>
<ellipse fill="none" stroke="black" cx="600.84" cy="-576.75" rx="104.8" ry="48.17"/>
<text text-anchor="middle" x="600.84" y="-595.55" font-family="Times New Roman,serif" font-size="14.00">[60..64)</text>
<text text-anchor="middle" x="600.84" y="-580.55" font-family="Times New Roman,serif" font-size="14.00">Count: 0</text>
<text text-anchor="middle" x="600.84" y="-565.55" font-family="Times New Roman,serif" font-size="14.00">Normalized count: NaN</text>
<text text-anchor="middle" x="600.84" y="-550.55" font-family="Times New Roman,serif" font-size="14.00">Samples weight: 0.00</text>
</g>
<!-- BB5&#45;&gt;BB6 -->
<g id="edge8" class="edge">
<title>BB5&#45;&gt;BB6</title>
<path fill="none" stroke="black" d="M428.91,-670.62C458.91,-654.41 494.15,-635.38 524.89,-618.77"/>
<polygon fill="black" stroke="black" points="526.72,-621.76 533.85,-613.93 523.39,-615.61 526.72,-621.76"/>
</g>
<!-- BB11 -->
<g id="node12" class="node">
<title>BB11</title>
<ellipse fill="none" stroke="black" cx="624.84" cy="-444.58" rx="113.69" ry="48.17"/>
<text text-anchor="middle" x="624.84" y="-463.38" font-family="Times New Roman,serif" font-size="14.00">[7e..82)</text>
<text text-anchor="middle" x="624.84" y="-448.38" font-family="Times New Roman,serif" font-size="14.00">Count: 1</text>
<text text-anchor="middle" x="624.84" y="-433.38" font-family="Times New Roman,serif" font-size="14.00">Normalized count: Infinity</text>
<text text-anchor="middle" x="624.84" y="-418.38" font-family="Times New Roman,serif" font-size="14.00">Samples weight: 0.00</text>
</g>
<!-- BB6&#45;&gt;BB11 -->
<g id="edge9" class="edge">
<title>BB6&#45;&gt;BB11</title>
<path fill="none" stroke="black" d="M609.51,-528.76C611.05,-520.38 612.68,-511.57 614.27,-502.95"/>
<polygon fill="black" stroke="black" points="617.74,-503.41 616.11,-492.94 610.86,-502.14 617.74,-503.41"/>
</g>
<!-- BB7 -->
<g id="node8" class="node">
<title>BB7</title>
<ellipse fill="none" stroke="black" cx="643.84" cy="-312.42" rx="113.69" ry="48.17"/>
<text text-anchor="middle" x="643.84" y="-331.22" font-family="Times New Roman,serif" font-size="14.00">[64..68)</text>
<text text-anchor="middle" x="643.84" y="-316.22" font-family="Times New Roman,serif" font-size="14.00">Count: 1</text>
<text text-anchor="middle" x="643.84" y="-301.22" font-family="Times New Roman,serif" font-size="14.00">Normalized count: Infinity</text>
<text text-anchor="middle" x="643.84" y="-286.22" font-family="Times New Roman,serif" font-size="14.00">Samples weight: 0.00</text>
</g>
<!-- BB9 -->
<g id="node10" class="node">
<title>BB9</title>
<ellipse fill="none" stroke="black" cx="669.84" cy="-180.25" rx="113.69" ry="48.17"/>
<text text-anchor="middle" x="669.84" y="-199.05" font-family="Times New Roman,serif" font-size="14.00">[76..7a)</text>
<text text-anchor="middle" x="669.84" y="-184.05" font-family="Times New Roman,serif" font-size="14.00">Count: 3375</text>
<text text-anchor="middle" x="669.84" y="-169.05" font-family="Times New Roman,serif" font-size="14.00">Normalized count: Infinity</text>
<text text-anchor="middle" x="669.84" y="-154.05" font-family="Times New Roman,serif" font-size="14.00">Samples weight: 0.27</text>
</g>
<!-- BB7&#45;&gt;BB9 -->
<g id="edge10" class="edge">
<title>BB7&#45;&gt;BB9</title>
<path fill="none" stroke="black" d="M653.23,-264.42C654.94,-255.85 656.75,-246.83 658.51,-238.01"/>
<polygon fill="black" stroke="black" points="661.94,-238.67 660.47,-228.17 655.08,-237.29 661.94,-238.67"/>
</g>
<!-- BB8 -->
<g id="node9" class="node">
<title>BB8</title>
<ellipse fill="none" stroke="black" cx="695.84" cy="-48.08" rx="113.69" ry="48.17"/>
<text text-anchor="middle" x="695.84" y="-66.88" font-family="Times New Roman,serif" font-size="14.00">[68..76)</text>
<text text-anchor="middle" x="695.84" y="-51.88" font-family="Times New Roman,serif" font-size="14.00">Count: 4081</text>
<text text-anchor="middle" x="695.84" y="-36.88" font-family="Times New Roman,serif" font-size="14.00">Normalized count: Infinity</text>
<text text-anchor="middle" x="695.84" y="-21.88" font-family="Times New Roman,serif" font-size="14.00">Samples weight: 0.32</text>
</g>
<!-- BB8&#45;&gt;BB9 -->
<g id="edge11" class="edge">
<title>BB8&#45;&gt;BB9</title>
<path fill="none" stroke="black" d="M692.94,-96.26C691.45,-104.86 689.7,-113.92 687.82,-122.77"/>
<polygon fill="black" stroke="black" points="684.39,-122.11 685.66,-132.62 691.22,-123.61 684.39,-122.11"/>
</g>
<!-- BB9&#45;&gt;BB8 -->
<g id="edge12" class="edge">
<title>BB9&#45;&gt;BB8</title>
<path fill="none" stroke="black" d="M672.78,-131.89C674.27,-123.33 676.01,-114.33 677.87,-105.55"/>
<polygon fill="black" stroke="black" points="681.29,-106.27 680.02,-95.76 674.46,-104.77 681.29,-106.27"/>
</g>
<!-- BB10 -->
<g id="node11" class="node">
<title>BB10</title>
<ellipse fill="none" stroke="black" cx="449.84" cy="-48.08" rx="113.69" ry="48.17"/>
<text text-anchor="middle" x="449.84" y="-66.88" font-family="Times New Roman,serif" font-size="14.00">[7a..7e)</text>
<text text-anchor="middle" x="449.84" y="-51.88" font-family="Times New Roman,serif" font-size="14.00">Count: 1</text>
<text text-anchor="middle" x="449.84" y="-36.88" font-family="Times New Roman,serif" font-size="14.00">Normalized count: Infinity</text>
<text text-anchor="middle" x="449.84" y="-21.88" font-family="Times New Roman,serif" font-size="14.00">Samples weight: 0.00</text>
</g>
<!-- BB9&#45;&gt;BB10 -->
<g id="edge13" class="edge">
<title>BB9&#45;&gt;BB10</title>
<path fill="none" stroke="black" d="M604.73,-140.72C579.34,-125.7 550.11,-108.41 523.92,-92.91"/>
<polygon fill="black" stroke="black" points="525.56,-89.82 515.17,-87.74 522,-95.84 525.56,-89.82"/>
</g>
<!-- BB10&#45;&gt;BB11 -->
<g id="edge14" class="edge">
<title>BB10&#45;&gt;BB11</title>
<path fill="none" stroke="black" d="M456.67,-96.1C468.3,-171.83 493.39,-316.76 520.84,-360.5 529.54,-374.36 541.38,-386.91 553.97,-397.81"/>
<polygon fill="black" stroke="black" points="551.95,-400.68 561.87,-404.38 556.42,-395.3 551.95,-400.68"/>
</g>
<!-- BB11&#45;&gt;BB7 -->
<g id="edge15" class="edge">
<title>BB11&#45;&gt;BB7</title>
<path fill="none" stroke="black" d="M631.76,-396.22C632.98,-387.86 634.26,-379.08 635.51,-370.49"/>
<polygon fill="black" stroke="black" points="638.99,-370.93 636.97,-360.52 632.06,-369.91 638.99,-370.93"/>
</g>
<!-- BB12 -->
<g id="node13" class="node">
<title>BB12</title>
<ellipse fill="none" stroke="black" cx="879.84" cy="-312.42" rx="104.8" ry="48.17"/>
<text text-anchor="middle" x="879.84" y="-331.22" font-family="Times New Roman,serif" font-size="14.00">[82..83)</text>
<text text-anchor="middle" x="879.84" y="-316.22" font-family="Times New Roman,serif" font-size="14.00">Count: 0</text>
<text text-anchor="middle" x="879.84" y="-301.22" font-family="Times New Roman,serif" font-size="14.00">Normalized count: NaN</text>
<text text-anchor="middle" x="879.84" y="-286.22" font-family="Times New Roman,serif" font-size="14.00">Samples weight: 0.00</text>
</g>
<!-- BB11&#45;&gt;BB12 -->
<g id="edge16" class="edge">
<title>BB11&#45;&gt;BB12</title>
<path fill="none" stroke="black" d="M696.55,-406.98C729.27,-390.28 768.1,-370.46 801.58,-353.37"/>
<polygon fill="black" stroke="black" points="803.55,-356.29 810.87,-348.63 800.37,-350.06 803.55,-356.29"/>
</g>
</g>
</svg>
