<?xml version="1.0" encoding="UTF-8" standalone="no"?>
<!DOCTYPE svg PUBLIC "-//W3C//DTD SVG 1.1//EN"
 "http://www.w3.org/Graphics/SVG/1.1/DTD/svg11.dtd">
<!-- Generated by graphviz version 2.47.0 (20210316.0004)
 -->
<!-- Title: G Pages: 1 -->
<svg width="822pt" height="633pt"
 viewBox="0.00 0.00 822.48 632.83" xmlns="http://www.w3.org/2000/svg" xmlns:xlink="http://www.w3.org/1999/xlink">
<g id="graph0" class="graph" transform="scale(1 1) rotate(0) translate(4 628.83)">
<title>G</title>
<polygon fill="white" stroke="transparent" points="-4,4 -4,-628.83 818.48,-628.83 818.48,4 -4,4"/>
<!-- BB0 -->
<g id="node1" class="node">
<title>BB0</title>
<ellipse fill="none" stroke="black" cx="512.24" cy="-576.75" rx="103.48" ry="48.17"/>
<text text-anchor="middle" x="512.24" y="-595.55" font-family="Times New Roman,serif" font-size="14.00">[0..2)</text>
<text text-anchor="middle" x="512.24" y="-580.55" font-family="Times New Roman,serif" font-size="14.00">Count: 13</text>
<text text-anchor="middle" x="512.24" y="-565.55" font-family="Times New Roman,serif" font-size="14.00">Normalized count: 1.00</text>
<text text-anchor="middle" x="512.24" y="-550.55" font-family="Times New Roman,serif" font-size="14.00">Samples weight: 0.01</text>
</g>
<!-- BB7 -->
<g id="node8" class="node">
<title>BB7</title>
<ellipse fill="none" stroke="black" cx="512.24" cy="-444.58" rx="108.38" ry="48.17"/>
<text text-anchor="middle" x="512.24" y="-463.38" font-family="Times New Roman,serif" font-size="14.00">[44..4a)</text>
<text text-anchor="middle" x="512.24" y="-448.38" font-family="Times New Roman,serif" font-size="14.00">Count: 202</text>
<text text-anchor="middle" x="512.24" y="-433.38" font-family="Times New Roman,serif" font-size="14.00">Normalized count: 15.54</text>
<text text-anchor="middle" x="512.24" y="-418.38" font-family="Times New Roman,serif" font-size="14.00">Samples weight: 0.20</text>
</g>
<!-- BB0&#45;&gt;BB7 -->
<g id="edge1" class="edge">
<title>BB0&#45;&gt;BB7</title>
<path fill="none" stroke="black" d="M512.24,-528.39C512.24,-520.12 512.24,-511.44 512.24,-502.93"/>
<polygon fill="black" stroke="black" points="515.74,-502.69 512.24,-492.69 508.74,-502.69 515.74,-502.69"/>
</g>
<!-- BB1 -->
<g id="node2" class="node">
<title>BB1</title>
<ellipse fill="none" stroke="black" cx="444.24" cy="-312.42" rx="108.38" ry="48.17"/>
<text text-anchor="middle" x="444.24" y="-331.22" font-family="Times New Roman,serif" font-size="14.00">[2..a)</text>
<text text-anchor="middle" x="444.24" y="-316.22" font-family="Times New Roman,serif" font-size="14.00">Count: 189</text>
<text text-anchor="middle" x="444.24" y="-301.22" font-family="Times New Roman,serif" font-size="14.00">Normalized count: 14.54</text>
<text text-anchor="middle" x="444.24" y="-286.22" font-family="Times New Roman,serif" font-size="14.00">Samples weight: 0.19</text>
</g>
<!-- BB2 -->
<g id="node3" class="node">
<title>BB2</title>
<ellipse fill="none" stroke="black" cx="210.24" cy="-180.25" rx="108.38" ry="48.17"/>
<text text-anchor="middle" x="210.24" y="-199.05" font-family="Times New Roman,serif" font-size="14.00">[a..1a)</text>
<text text-anchor="middle" x="210.24" y="-184.05" font-family="Times New Roman,serif" font-size="14.00">Count: 141</text>
<text text-anchor="middle" x="210.24" y="-169.05" font-family="Times New Roman,serif" font-size="14.00">Normalized count: 10.85</text>
<text text-anchor="middle" x="210.24" y="-154.05" font-family="Times New Roman,serif" font-size="14.00">Samples weight: 0.14</text>
</g>
<!-- BB1&#45;&gt;BB2 -->
<g id="edge3" class="edge">
<title>BB1&#45;&gt;BB2</title>
<path fill="none" stroke="black" d="M377.81,-274.46C349.15,-258.52 315.49,-239.8 285.88,-223.33"/>
<polygon fill="black" stroke="black" points="287.27,-220.1 276.83,-218.29 283.87,-226.21 287.27,-220.1"/>
</g>
<!-- BB4 -->
<g id="node5" class="node">
<title>BB4</title>
<ellipse fill="none" stroke="black" cx="444.24" cy="-180.25" rx="108.38" ry="48.17"/>
<text text-anchor="middle" x="444.24" y="-199.05" font-family="Times New Roman,serif" font-size="14.00">[1e..2c)</text>
<text text-anchor="middle" x="444.24" y="-184.05" font-family="Times New Roman,serif" font-size="14.00">Count: 189</text>
<text text-anchor="middle" x="444.24" y="-169.05" font-family="Times New Roman,serif" font-size="14.00">Normalized count: 14.54</text>
<text text-anchor="middle" x="444.24" y="-154.05" font-family="Times New Roman,serif" font-size="14.00">Samples weight: 0.19</text>
</g>
<!-- BB1&#45;&gt;BB4 -->
<g id="edge2" class="edge">
<title>BB1&#45;&gt;BB4</title>
<path fill="none" stroke="black" d="M444.24,-264.05C444.24,-255.79 444.24,-247.1 444.24,-238.6"/>
<polygon fill="black" stroke="black" points="447.74,-238.36 444.24,-228.36 440.74,-238.36 447.74,-238.36"/>
</g>
<!-- BB3 -->
<g id="node4" class="node">
<title>BB3</title>
<ellipse fill="none" stroke="black" cx="341.24" cy="-48.08" rx="103.48" ry="48.17"/>
<text text-anchor="middle" x="341.24" y="-66.88" font-family="Times New Roman,serif" font-size="14.00">[1a..1e)</text>
<text text-anchor="middle" x="341.24" y="-51.88" font-family="Times New Roman,serif" font-size="14.00">Count: 85</text>
<text text-anchor="middle" x="341.24" y="-36.88" font-family="Times New Roman,serif" font-size="14.00">Normalized count: 6.54</text>
<text text-anchor="middle" x="341.24" y="-21.88" font-family="Times New Roman,serif" font-size="14.00">Samples weight: 0.08</text>
</g>
<!-- BB2&#45;&gt;BB3 -->
<g id="edge5" class="edge">
<title>BB2&#45;&gt;BB3</title>
<path fill="none" stroke="black" d="M253.86,-135.91C265.57,-124.27 278.34,-111.59 290.4,-99.6"/>
<polygon fill="black" stroke="black" points="293.18,-101.77 297.81,-92.24 288.25,-96.8 293.18,-101.77"/>
</g>
<!-- BB2&#45;&gt;BB4 -->
<g id="edge4" class="edge">
<title>BB2&#45;&gt;BB4</title>
<path fill="none" stroke="black" d="M318.55,-180.25C320.88,-180.25 323.21,-180.25 325.53,-180.25"/>
<polygon fill="black" stroke="black" points="325.74,-183.75 335.74,-180.25 325.74,-176.75 325.74,-183.75"/>
</g>
<!-- BB3&#45;&gt;BB4 -->
<g id="edge6" class="edge">
<title>BB3&#45;&gt;BB4</title>
<path fill="none" stroke="black" d="M376.4,-93.52C384.82,-104.15 393.88,-115.61 402.56,-126.57"/>
<polygon fill="black" stroke="black" points="399.84,-128.78 408.79,-134.45 405.33,-124.44 399.84,-128.78"/>
</g>
<!-- BB5 -->
<g id="node6" class="node">
<title>BB5</title>
<ellipse fill="none" stroke="black" cx="103.24" cy="-48.08" rx="103.48" ry="48.17"/>
<text text-anchor="middle" x="103.24" y="-66.88" font-family="Times New Roman,serif" font-size="14.00">[2c..3f)</text>
<text text-anchor="middle" x="103.24" y="-51.88" font-family="Times New Roman,serif" font-size="14.00">Count: 101</text>
<text text-anchor="middle" x="103.24" y="-36.88" font-family="Times New Roman,serif" font-size="14.00">Normalized count: 7.77</text>
<text text-anchor="middle" x="103.24" y="-21.88" font-family="Times New Roman,serif" font-size="14.00">Samples weight: 0.10</text>
</g>
<!-- BB4&#45;&gt;BB5 -->
<g id="edge8" class="edge">
<title>BB4&#45;&gt;BB5</title>
<path fill="none" stroke="black" d="M365.38,-147.14C352.65,-142.06 339.6,-136.92 327.24,-132.17 283.93,-115.5 272.75,-112.29 229.24,-96.17 217.28,-91.74 204.7,-87.06 192.3,-82.43"/>
<polygon fill="black" stroke="black" points="193.45,-79.13 182.86,-78.91 191.01,-85.69 193.45,-79.13"/>
</g>
<!-- BB6 -->
<g id="node7" class="node">
<title>BB6</title>
<ellipse fill="none" stroke="black" cx="572.24" cy="-48.08" rx="103.48" ry="48.17"/>
<text text-anchor="middle" x="572.24" y="-66.88" font-family="Times New Roman,serif" font-size="14.00">[3f..44)</text>
<text text-anchor="middle" x="572.24" y="-51.88" font-family="Times New Roman,serif" font-size="14.00">Count: 88</text>
<text text-anchor="middle" x="572.24" y="-36.88" font-family="Times New Roman,serif" font-size="14.00">Normalized count: 6.77</text>
<text text-anchor="middle" x="572.24" y="-21.88" font-family="Times New Roman,serif" font-size="14.00">Samples weight: 0.09</text>
</g>
<!-- BB4&#45;&gt;BB6 -->
<g id="edge7" class="edge">
<title>BB4&#45;&gt;BB6</title>
<path fill="none" stroke="black" d="M486.86,-135.91C498.3,-124.27 510.78,-111.59 522.56,-99.6"/>
<polygon fill="black" stroke="black" points="525.29,-101.82 529.8,-92.24 520.29,-96.91 525.29,-101.82"/>
</g>
<!-- BB5&#45;&gt;BB7 -->
<g id="edge9" class="edge">
<title>BB5&#45;&gt;BB7</title>
<path fill="none" stroke="black" d="M87.19,-95.83C77.06,-134.08 69.83,-188.22 93.24,-228.33 158.37,-339.92 302.69,-395.76 403.66,-422.16"/>
<polygon fill="black" stroke="black" points="403.04,-425.61 413.59,-424.7 404.77,-418.83 403.04,-425.61"/>
</g>
<!-- BB6&#45;&gt;BB7 -->
<g id="edge10" class="edge">
<title>BB6&#45;&gt;BB7</title>
<path fill="none" stroke="black" d="M577.65,-96.12C583.2,-158.11 587.7,-269.88 561.24,-360.5 558.36,-370.37 554.04,-380.28 549.14,-389.65"/>
<polygon fill="black" stroke="black" points="546.06,-388 544.3,-398.44 552.19,-391.37 546.06,-388"/>
</g>
<!-- BB7&#45;&gt;BB1 -->
<g id="edge11" class="edge">
<title>BB7&#45;&gt;BB1</title>
<path fill="none" stroke="black" d="M488.26,-397.69C483.29,-388.16 477.99,-378.03 472.87,-368.23"/>
<polygon fill="black" stroke="black" points="475.96,-366.58 468.22,-359.33 469.75,-369.82 475.96,-366.58"/>
</g>
<!-- BB8 -->
<g id="node9" class="node">
<title>BB8</title>
<ellipse fill="none" stroke="black" cx="711.24" cy="-312.42" rx="103.48" ry="48.17"/>
<text text-anchor="middle" x="711.24" y="-331.22" font-family="Times New Roman,serif" font-size="14.00">[4a..4b)</text>
<text text-anchor="middle" x="711.24" y="-316.22" font-family="Times New Roman,serif" font-size="14.00">Count: 13</text>
<text text-anchor="middle" x="711.24" y="-301.22" font-family="Times New Roman,serif" font-size="14.00">Normalized count: 1.00</text>
<text text-anchor="middle" x="711.24" y="-286.22" font-family="Times New Roman,serif" font-size="14.00">Samples weight: 0.01</text>
</g>
<!-- BB7&#45;&gt;BB8 -->
<g id="edge12" class="edge">
<title>BB7&#45;&gt;BB8</title>
<path fill="none" stroke="black" d="M572.21,-404.35C594.74,-389.62 620.49,-372.77 643.66,-357.62"/>
<polygon fill="black" stroke="black" points="645.62,-360.52 652.07,-352.12 641.78,-354.66 645.62,-360.52"/>
</g>
</g>
</svg>
