<?xml version="1.0" encoding="UTF-8" standalone="no"?>
<!DOCTYPE svg PUBLIC "-//W3C//DTD SVG 1.1//EN"
 "http://www.w3.org/Graphics/SVG/1.1/DTD/svg11.dtd">
<!-- Generated by graphviz version 2.47.0 (20210316.0004)
 -->
<!-- Title: G Pages: 1 -->
<svg width="822pt" height="633pt"
 viewBox="0.00 0.00 822.48 632.83" xmlns="http://www.w3.org/2000/svg" xmlns:xlink="http://www.w3.org/1999/xlink">
<g id="graph0" class="graph" transform="scale(1 1) rotate(0) translate(4 628.83)">
<title>G</title>
<polygon fill="white" stroke="transparent" points="-4,4 -4,-628.83 818.48,-628.83 818.48,4 -4,4"/>
<!-- BB0 -->
<g id="node1" class="node">
<title>BB0</title>
<ellipse fill="none" stroke="black" cx="512.24" cy="-576.75" rx="103.48" ry="48.17"/>
<text text-anchor="middle" x="512.24" y="-595.55" font-family="Times New Roman,serif" font-size="14.00">[0..2)</text>
<text text-anchor="middle" x="512.24" y="-580.55" font-family="Times New Roman,serif" font-size="14.00">Count: 13</text>
<text text-anchor="middle" x="512.24" y="-565.55" font-family="Times New Roman,serif" font-size="14.00">Normalized count: 1.00</text>
<text text-anchor="middle" x="512.24" y="-550.55" font-family="Times New Roman,serif" font-size="14.00">Samples weight: 0.02</text>
</g>
<!-- BB7 -->
<g id="node8" class="node">
<title>BB7</title>
<ellipse fill="none" stroke="black" cx="512.24" cy="-444.58" rx="103.48" ry="48.17"/>
<text text-anchor="middle" x="512.24" y="-463.38" font-family="Times New Roman,serif" font-size="14.00">[44..4a)</text>
<text text-anchor="middle" x="512.24" y="-448.38" font-family="Times New Roman,serif" font-size="14.00">Count: 28</text>
<text text-anchor="middle" x="512.24" y="-433.38" font-family="Times New Roman,serif" font-size="14.00">Normalized count: 2.15</text>
<text text-anchor="middle" x="512.24" y="-418.38" font-family="Times New Roman,serif" font-size="14.00">Samples weight: 0.04</text>
</g>
<!-- BB0&#45;&gt;BB7 -->
<g id="edge1" class="edge">
<title>BB0&#45;&gt;BB7</title>
<path fill="none" stroke="black" d="M512.24,-528.39C512.24,-520.12 512.24,-511.44 512.24,-502.93"/>
<polygon fill="black" stroke="black" points="515.74,-502.69 512.24,-492.69 508.74,-502.69 515.74,-502.69"/>
</g>
<!-- BB1 -->
<g id="node2" class="node">
<title>BB1</title>
<ellipse fill="none" stroke="black" cx="444.24" cy="-312.42" rx="103.48" ry="48.17"/>
<text text-anchor="middle" x="444.24" y="-331.22" font-family="Times New Roman,serif" font-size="14.00">[2..a)</text>
<text text-anchor="middle" x="444.24" y="-316.22" font-family="Times New Roman,serif" font-size="14.00">Count: 53</text>
<text text-anchor="middle" x="444.24" y="-301.22" font-family="Times New Roman,serif" font-size="14.00">Normalized count: 4.08</text>
<text text-anchor="middle" x="444.24" y="-286.22" font-family="Times New Roman,serif" font-size="14.00">Samples weight: 0.08</text>
</g>
<!-- BB2 -->
<g id="node3" class="node">
<title>BB2</title>
<ellipse fill="none" stroke="black" cx="210.24" cy="-180.25" rx="108.38" ry="48.17"/>
<text text-anchor="middle" x="210.24" y="-199.05" font-family="Times New Roman,serif" font-size="14.00">[a..1a)</text>
<text text-anchor="middle" x="210.24" y="-184.05" font-family="Times New Roman,serif" font-size="14.00">Count: 179</text>
<text text-anchor="middle" x="210.24" y="-169.05" font-family="Times New Roman,serif" font-size="14.00">Normalized count: 13.77</text>
<text text-anchor="middle" x="210.24" y="-154.05" font-family="Times New Roman,serif" font-size="14.00">Samples weight: 0.27</text>
</g>
<!-- BB1&#45;&gt;BB2 -->
<g id="edge3" class="edge">
<title>BB1&#45;&gt;BB2</title>
<path fill="none" stroke="black" d="M378.74,-274.98C349.83,-258.9 315.66,-239.89 285.68,-223.22"/>
<polygon fill="black" stroke="black" points="287.38,-220.15 276.93,-218.35 283.97,-226.27 287.38,-220.15"/>
</g>
<!-- BB4 -->
<g id="node5" class="node">
<title>BB4</title>
<ellipse fill="none" stroke="black" cx="444.24" cy="-180.25" rx="108.38" ry="48.17"/>
<text text-anchor="middle" x="444.24" y="-199.05" font-family="Times New Roman,serif" font-size="14.00">[1e..2c)</text>
<text text-anchor="middle" x="444.24" y="-184.05" font-family="Times New Roman,serif" font-size="14.00">Count: 181</text>
<text text-anchor="middle" x="444.24" y="-169.05" font-family="Times New Roman,serif" font-size="14.00">Normalized count: 13.92</text>
<text text-anchor="middle" x="444.24" y="-154.05" font-family="Times New Roman,serif" font-size="14.00">Samples weight: 0.28</text>
</g>
<!-- BB1&#45;&gt;BB4 -->
<g id="edge2" class="edge">
<title>BB1&#45;&gt;BB4</title>
<path fill="none" stroke="black" d="M444.24,-264.05C444.24,-255.79 444.24,-247.1 444.24,-238.6"/>
<polygon fill="black" stroke="black" points="447.74,-238.36 444.24,-228.36 440.74,-238.36 447.74,-238.36"/>
</g>
<!-- BB3 -->
<g id="node4" class="node">
<title>BB3</title>
<ellipse fill="none" stroke="black" cx="341.24" cy="-48.08" rx="103.48" ry="48.17"/>
<text text-anchor="middle" x="341.24" y="-66.88" font-family="Times New Roman,serif" font-size="14.00">[1a..1e)</text>
<text text-anchor="middle" x="341.24" y="-51.88" font-family="Times New Roman,serif" font-size="14.00">Count: 84</text>
<text text-anchor="middle" x="341.24" y="-36.88" font-family="Times New Roman,serif" font-size="14.00">Normalized count: 6.46</text>
<text text-anchor="middle" x="341.24" y="-21.88" font-family="Times New Roman,serif" font-size="14.00">Samples weight: 0.13</text>
</g>
<!-- BB2&#45;&gt;BB3 -->
<g id="edge5" class="edge">
<title>BB2&#45;&gt;BB3</title>
<path fill="none" stroke="black" d="M253.86,-135.91C265.57,-124.27 278.34,-111.59 290.4,-99.6"/>
<polygon fill="black" stroke="black" points="293.18,-101.77 297.81,-92.24 288.25,-96.8 293.18,-101.77"/>
</g>
<!-- BB2&#45;&gt;BB4 -->
<g id="edge4" class="edge">
<title>BB2&#45;&gt;BB4</title>
<path fill="none" stroke="black" d="M318.55,-180.25C320.88,-180.25 323.21,-180.25 325.53,-180.25"/>
<polygon fill="black" stroke="black" points="325.74,-183.75 335.74,-180.25 325.74,-176.75 325.74,-183.75"/>
</g>
<!-- BB3&#45;&gt;BB4 -->
<g id="edge6" class="edge">
<title>BB3&#45;&gt;BB4</title>
<path fill="none" stroke="black" d="M376.4,-93.52C384.82,-104.15 393.88,-115.61 402.56,-126.57"/>
<polygon fill="black" stroke="black" points="399.84,-128.78 408.79,-134.45 405.33,-124.44 399.84,-128.78"/>
</g>
<!-- BB5 -->
<g id="node6" class="node">
<title>BB5</title>
<ellipse fill="none" stroke="black" cx="103.24" cy="-48.08" rx="103.48" ry="48.17"/>
<text text-anchor="middle" x="103.24" y="-66.88" font-family="Times New Roman,serif" font-size="14.00">[2c..3f)</text>
<text text-anchor="middle" x="103.24" y="-51.88" font-family="Times New Roman,serif" font-size="14.00">Count: 112</text>
<text text-anchor="middle" x="103.24" y="-36.88" font-family="Times New Roman,serif" font-size="14.00">Normalized count: 8.62</text>
<text text-anchor="middle" x="103.24" y="-21.88" font-family="Times New Roman,serif" font-size="14.00">Samples weight: 0.17</text>
</g>
<!-- BB4&#45;&gt;BB5 -->
<g id="edge8" class="edge">
<title>BB4&#45;&gt;BB5</title>
<path fill="none" stroke="black" d="M365.38,-147.14C352.65,-142.06 339.6,-136.92 327.24,-132.17 283.93,-115.5 272.75,-112.29 229.24,-96.17 217.28,-91.74 204.7,-87.06 192.3,-82.43"/>
<polygon fill="black" stroke="black" points="193.45,-79.13 182.86,-78.91 191.01,-85.69 193.45,-79.13"/>
</g>
<!-- BB6 -->
<g id="node7" class="node">
<title>BB6</title>
<ellipse fill="none" stroke="black" cx="572.24" cy="-48.08" rx="103.48" ry="48.17"/>
<text text-anchor="middle" x="572.24" y="-66.88" font-family="Times New Roman,serif" font-size="14.00">[3f..44)</text>
<text text-anchor="middle" x="572.24" y="-51.88" font-family="Times New Roman,serif" font-size="14.00">Count: 5</text>
<text text-anchor="middle" x="572.24" y="-36.88" font-family="Times New Roman,serif" font-size="14.00">Normalized count: 0.38</text>
<text text-anchor="middle" x="572.24" y="-21.88" font-family="Times New Roman,serif" font-size="14.00">Samples weight: 0.01</text>
</g>
<!-- BB4&#45;&gt;BB6 -->
<g id="edge7" class="edge">
<title>BB4&#45;&gt;BB6</title>
<path fill="none" stroke="black" d="M486.86,-135.91C498.3,-124.27 510.78,-111.59 522.56,-99.6"/>
<polygon fill="black" stroke="black" points="525.29,-101.82 529.8,-92.24 520.29,-96.91 525.29,-101.82"/>
</g>
<!-- BB5&#45;&gt;BB7 -->
<g id="edge9" class="edge">
<title>BB5&#45;&gt;BB7</title>
<path fill="none" stroke="black" d="M87.09,-95.88C76.91,-134.17 69.65,-188.33 93.24,-228.33 159.57,-340.82 306.18,-396.73 407.1,-422.87"/>
<polygon fill="black" stroke="black" points="406.48,-426.32 417.03,-425.38 408.19,-419.54 406.48,-426.32"/>
</g>
<!-- BB6&#45;&gt;BB7 -->
<g id="edge10" class="edge">
<title>BB6&#45;&gt;BB7</title>
<path fill="none" stroke="black" d="M576.06,-96.25C579.67,-158.14 581.33,-269.56 556.24,-360.5 553.6,-370.06 549.74,-379.76 545.38,-389"/>
<polygon fill="black" stroke="black" points="542.19,-387.54 540.88,-398.06 548.46,-390.65 542.19,-387.54"/>
</g>
<!-- BB7&#45;&gt;BB1 -->
<g id="edge11" class="edge">
<title>BB7&#45;&gt;BB1</title>
<path fill="none" stroke="black" d="M488.26,-397.69C483.29,-388.16 477.99,-378.03 472.87,-368.23"/>
<polygon fill="black" stroke="black" points="475.96,-366.58 468.22,-359.33 469.75,-369.82 475.96,-366.58"/>
</g>
<!-- BB8 -->
<g id="node9" class="node">
<title>BB8</title>
<ellipse fill="none" stroke="black" cx="711.24" cy="-312.42" rx="103.48" ry="48.17"/>
<text text-anchor="middle" x="711.24" y="-331.22" font-family="Times New Roman,serif" font-size="14.00">[4a..4b)</text>
<text text-anchor="middle" x="711.24" y="-316.22" font-family="Times New Roman,serif" font-size="14.00">Count: 0</text>
<text text-anchor="middle" x="711.24" y="-301.22" font-family="Times New Roman,serif" font-size="14.00">Normalized count: 0.00</text>
<text text-anchor="middle" x="711.24" y="-286.22" font-family="Times New Roman,serif" font-size="14.00">Samples weight: 0.00</text>
</g>
<!-- BB7&#45;&gt;BB8 -->
<g id="edge12" class="edge">
<title>BB7&#45;&gt;BB8</title>
<path fill="none" stroke="black" d="M571.14,-405.06C593.9,-390.17 620.08,-373.04 643.61,-357.65"/>
<polygon fill="black" stroke="black" points="645.69,-360.47 652.15,-352.07 641.86,-354.61 645.69,-360.47"/>
</g>
</g>
</svg>
