<?xml version="1.0" encoding="UTF-8" standalone="no"?>
<!DOCTYPE svg PUBLIC "-//W3C//DTD SVG 1.1//EN"
 "http://www.w3.org/Graphics/SVG/1.1/DTD/svg11.dtd">
<!-- Generated by graphviz version 2.47.0 (20210316.0004)
 -->
<!-- Title: G Pages: 1 -->
<svg width="964pt" height="897pt"
 viewBox="0.00 0.00 964.42 897.17" xmlns="http://www.w3.org/2000/svg" xmlns:xlink="http://www.w3.org/1999/xlink">
<g id="graph0" class="graph" transform="scale(1 1) rotate(0) translate(4 893.17)">
<title>G</title>
<polygon fill="white" stroke="transparent" points="-4,4 -4,-893.17 960.42,-893.17 960.42,4 -4,4"/>
<!-- BB0 -->
<g id="node1" class="node">
<title>BB0</title>
<ellipse fill="none" stroke="black" cx="352.19" cy="-841.08" rx="103.48" ry="48.17"/>
<text text-anchor="middle" x="352.19" y="-859.88" font-family="Times New Roman,serif" font-size="14.00">[0..c)</text>
<text text-anchor="middle" x="352.19" y="-844.88" font-family="Times New Roman,serif" font-size="14.00">Count: 3</text>
<text text-anchor="middle" x="352.19" y="-829.88" font-family="Times New Roman,serif" font-size="14.00">Normalized count: 1.00</text>
<text text-anchor="middle" x="352.19" y="-814.88" font-family="Times New Roman,serif" font-size="14.00">Samples weight: 0.00</text>
</g>
<!-- BB5 -->
<g id="node6" class="node">
<title>BB5</title>
<ellipse fill="none" stroke="black" cx="352.19" cy="-708.92" rx="108.38" ry="48.17"/>
<text text-anchor="middle" x="352.19" y="-727.72" font-family="Times New Roman,serif" font-size="14.00">[5c..60)</text>
<text text-anchor="middle" x="352.19" y="-712.72" font-family="Times New Roman,serif" font-size="14.00">Count: 138</text>
<text text-anchor="middle" x="352.19" y="-697.72" font-family="Times New Roman,serif" font-size="14.00">Normalized count: 46.00</text>
<text text-anchor="middle" x="352.19" y="-682.72" font-family="Times New Roman,serif" font-size="14.00">Samples weight: 0.01</text>
</g>
<!-- BB0&#45;&gt;BB5 -->
<g id="edge1" class="edge">
<title>BB0&#45;&gt;BB5</title>
<path fill="none" stroke="black" d="M352.19,-792.72C352.19,-784.45 352.19,-775.77 352.19,-767.27"/>
<polygon fill="black" stroke="black" points="355.69,-767.02 352.19,-757.02 348.69,-767.02 355.69,-767.02"/>
</g>
<!-- BB1 -->
<g id="node2" class="node">
<title>BB1</title>
<ellipse fill="none" stroke="black" cx="352.19" cy="-576.75" rx="108.38" ry="48.17"/>
<text text-anchor="middle" x="352.19" y="-595.55" font-family="Times New Roman,serif" font-size="14.00">[c..2c)</text>
<text text-anchor="middle" x="352.19" y="-580.55" font-family="Times New Roman,serif" font-size="14.00">Count: 135</text>
<text text-anchor="middle" x="352.19" y="-565.55" font-family="Times New Roman,serif" font-size="14.00">Normalized count: 45.00</text>
<text text-anchor="middle" x="352.19" y="-550.55" font-family="Times New Roman,serif" font-size="14.00">Samples weight: 0.01</text>
</g>
<!-- BB3 -->
<g id="node4" class="node">
<title>BB3</title>
<ellipse fill="none" stroke="black" cx="352.19" cy="-444.58" rx="118.17" ry="48.17"/>
<text text-anchor="middle" x="352.19" y="-463.38" font-family="Times New Roman,serif" font-size="14.00">[48..4d)</text>
<text text-anchor="middle" x="352.19" y="-448.38" font-family="Times New Roman,serif" font-size="14.00">Count: 3236</text>
<text text-anchor="middle" x="352.19" y="-433.38" font-family="Times New Roman,serif" font-size="14.00">Normalized count: 1078.67</text>
<text text-anchor="middle" x="352.19" y="-418.38" font-family="Times New Roman,serif" font-size="14.00">Samples weight: 0.22</text>
</g>
<!-- BB1&#45;&gt;BB3 -->
<g id="edge2" class="edge">
<title>BB1&#45;&gt;BB3</title>
<path fill="none" stroke="black" d="M352.19,-528.39C352.19,-520.12 352.19,-511.44 352.19,-502.93"/>
<polygon fill="black" stroke="black" points="355.69,-502.69 352.19,-492.69 348.69,-502.69 355.69,-502.69"/>
</g>
<!-- BB2 -->
<g id="node3" class="node">
<title>BB2</title>
<ellipse fill="none" stroke="black" cx="352.19" cy="-312.42" rx="118.17" ry="48.17"/>
<text text-anchor="middle" x="352.19" y="-331.22" font-family="Times New Roman,serif" font-size="14.00">[2c..48)</text>
<text text-anchor="middle" x="352.19" y="-316.22" font-family="Times New Roman,serif" font-size="14.00">Count: 3101</text>
<text text-anchor="middle" x="352.19" y="-301.22" font-family="Times New Roman,serif" font-size="14.00">Normalized count: 1033.67</text>
<text text-anchor="middle" x="352.19" y="-286.22" font-family="Times New Roman,serif" font-size="14.00">Samples weight: 0.21</text>
</g>
<!-- BB2&#45;&gt;BB3 -->
<g id="edge3" class="edge">
<title>BB2&#45;&gt;BB3</title>
<path fill="none" stroke="black" d="M358.7,-360.52C358.92,-368.78 358.99,-377.46 358.9,-385.97"/>
<polygon fill="black" stroke="black" points="355.39,-386.16 358.71,-396.22 362.39,-386.29 355.39,-386.16"/>
</g>
<!-- BB3&#45;&gt;BB2 -->
<g id="edge4" class="edge">
<title>BB3&#45;&gt;BB2</title>
<path fill="none" stroke="black" d="M345.66,-396.22C345.45,-387.95 345.39,-379.27 345.48,-370.77"/>
<polygon fill="black" stroke="black" points="348.98,-370.59 345.67,-360.52 341.98,-370.46 348.98,-370.59"/>
</g>
<!-- BB4 -->
<g id="node5" class="node">
<title>BB4</title>
<ellipse fill="none" stroke="black" cx="108.19" cy="-312.42" rx="108.38" ry="48.17"/>
<text text-anchor="middle" x="108.19" y="-331.22" font-family="Times New Roman,serif" font-size="14.00">[4d..5c)</text>
<text text-anchor="middle" x="108.19" y="-316.22" font-family="Times New Roman,serif" font-size="14.00">Count: 135</text>
<text text-anchor="middle" x="108.19" y="-301.22" font-family="Times New Roman,serif" font-size="14.00">Normalized count: 45.00</text>
<text text-anchor="middle" x="108.19" y="-286.22" font-family="Times New Roman,serif" font-size="14.00">Samples weight: 0.01</text>
</g>
<!-- BB3&#45;&gt;BB4 -->
<g id="edge5" class="edge">
<title>BB3&#45;&gt;BB4</title>
<path fill="none" stroke="black" d="M281.61,-405.93C251.51,-389.87 216.29,-371.09 185.49,-354.65"/>
<polygon fill="black" stroke="black" points="186.97,-351.48 176.5,-349.86 183.68,-357.66 186.97,-351.48"/>
</g>
<!-- BB4&#45;&gt;BB5 -->
<g id="edge6" class="edge">
<title>BB4&#45;&gt;BB5</title>
<path fill="none" stroke="black" d="M118.53,-360.39C134.65,-425.31 170.81,-543.62 235.19,-624.83 247.05,-639.8 262.29,-653.25 277.83,-664.75"/>
<polygon fill="black" stroke="black" points="275.8,-667.6 285.97,-670.58 279.88,-661.91 275.8,-667.6"/>
</g>
<!-- BB5&#45;&gt;BB1 -->
<g id="edge7" class="edge">
<title>BB5&#45;&gt;BB1</title>
<path fill="none" stroke="black" d="M352.19,-660.55C352.19,-652.29 352.19,-643.6 352.19,-635.1"/>
<polygon fill="black" stroke="black" points="355.69,-634.86 352.19,-624.86 348.69,-634.86 355.69,-634.86"/>
</g>
<!-- BB6 -->
<g id="node7" class="node">
<title>BB6</title>
<ellipse fill="none" stroke="black" cx="595.19" cy="-576.75" rx="103.48" ry="48.17"/>
<text text-anchor="middle" x="595.19" y="-595.55" font-family="Times New Roman,serif" font-size="14.00">[60..64)</text>
<text text-anchor="middle" x="595.19" y="-580.55" font-family="Times New Roman,serif" font-size="14.00">Count: 3</text>
<text text-anchor="middle" x="595.19" y="-565.55" font-family="Times New Roman,serif" font-size="14.00">Normalized count: 1.00</text>
<text text-anchor="middle" x="595.19" y="-550.55" font-family="Times New Roman,serif" font-size="14.00">Samples weight: 0.00</text>
</g>
<!-- BB5&#45;&gt;BB6 -->
<g id="edge8" class="edge">
<title>BB5&#45;&gt;BB6</title>
<path fill="none" stroke="black" d="M420.2,-671.48C451.13,-654.92 487.84,-635.25 519.63,-618.23"/>
<polygon fill="black" stroke="black" points="521.29,-621.3 528.45,-613.5 517.98,-615.13 521.29,-621.3"/>
</g>
<!-- BB11 -->
<g id="node12" class="node">
<title>BB11</title>
<ellipse fill="none" stroke="black" cx="610.19" cy="-444.58" rx="103.48" ry="48.17"/>
<text text-anchor="middle" x="610.19" y="-463.38" font-family="Times New Roman,serif" font-size="14.00">[7e..82)</text>
<text text-anchor="middle" x="610.19" y="-448.38" font-family="Times New Roman,serif" font-size="14.00">Count: 4</text>
<text text-anchor="middle" x="610.19" y="-433.38" font-family="Times New Roman,serif" font-size="14.00">Normalized count: 1.33</text>
<text text-anchor="middle" x="610.19" y="-418.38" font-family="Times New Roman,serif" font-size="14.00">Samples weight: 0.00</text>
</g>
<!-- BB6&#45;&gt;BB11 -->
<g id="edge9" class="edge">
<title>BB6&#45;&gt;BB11</title>
<path fill="none" stroke="black" d="M600.65,-528.39C601.61,-520.03 602.62,-511.25 603.61,-502.65"/>
<polygon fill="black" stroke="black" points="607.09,-503.03 604.76,-492.69 600.14,-502.22 607.09,-503.03"/>
</g>
<!-- BB7 -->
<g id="node8" class="node">
<title>BB7</title>
<ellipse fill="none" stroke="black" cx="629.19" cy="-312.42" rx="103.48" ry="48.17"/>
<text text-anchor="middle" x="629.19" y="-331.22" font-family="Times New Roman,serif" font-size="14.00">[64..68)</text>
<text text-anchor="middle" x="629.19" y="-316.22" font-family="Times New Roman,serif" font-size="14.00">Count: 1</text>
<text text-anchor="middle" x="629.19" y="-301.22" font-family="Times New Roman,serif" font-size="14.00">Normalized count: 0.33</text>
<text text-anchor="middle" x="629.19" y="-286.22" font-family="Times New Roman,serif" font-size="14.00">Samples weight: 0.00</text>
</g>
<!-- BB9 -->
<g id="node10" class="node">
<title>BB9</title>
<ellipse fill="none" stroke="black" cx="690.19" cy="-180.25" rx="118.17" ry="48.17"/>
<text text-anchor="middle" x="690.19" y="-199.05" font-family="Times New Roman,serif" font-size="14.00">[76..7a)</text>
<text text-anchor="middle" x="690.19" y="-184.05" font-family="Times New Roman,serif" font-size="14.00">Count: 4106</text>
<text text-anchor="middle" x="690.19" y="-169.05" font-family="Times New Roman,serif" font-size="14.00">Normalized count: 1368.67</text>
<text text-anchor="middle" x="690.19" y="-154.05" font-family="Times New Roman,serif" font-size="14.00">Samples weight: 0.27</text>
</g>
<!-- BB7&#45;&gt;BB9 -->
<g id="edge10" class="edge">
<title>BB7&#45;&gt;BB9</title>
<path fill="none" stroke="black" d="M650.87,-265.16C655.13,-256.06 659.64,-246.43 664.04,-237.05"/>
<polygon fill="black" stroke="black" points="667.3,-238.34 668.37,-227.8 660.96,-235.37 667.3,-238.34"/>
</g>
<!-- BB8 -->
<g id="node9" class="node">
<title>BB8</title>
<ellipse fill="none" stroke="black" cx="714.19" cy="-48.08" rx="118.17" ry="48.17"/>
<text text-anchor="middle" x="714.19" y="-66.88" font-family="Times New Roman,serif" font-size="14.00">[68..76)</text>
<text text-anchor="middle" x="714.19" y="-51.88" font-family="Times New Roman,serif" font-size="14.00">Count: 4105</text>
<text text-anchor="middle" x="714.19" y="-36.88" font-family="Times New Roman,serif" font-size="14.00">Normalized count: 1368.33</text>
<text text-anchor="middle" x="714.19" y="-21.88" font-family="Times New Roman,serif" font-size="14.00">Samples weight: 0.27</text>
</g>
<!-- BB8&#45;&gt;BB9 -->
<g id="edge11" class="edge">
<title>BB8&#45;&gt;BB9</title>
<path fill="none" stroke="black" d="M711.98,-96.44C710.65,-104.83 709.09,-113.64 707.4,-122.26"/>
<polygon fill="black" stroke="black" points="703.93,-121.76 705.36,-132.26 710.79,-123.16 703.93,-121.76"/>
</g>
<!-- BB9&#45;&gt;BB8 -->
<g id="edge12" class="edge">
<title>BB9&#45;&gt;BB8</title>
<path fill="none" stroke="black" d="M692.4,-131.89C693.72,-123.53 695.28,-114.75 696.96,-106.15"/>
<polygon fill="black" stroke="black" points="700.42,-106.69 698.99,-96.19 693.56,-105.29 700.42,-106.69"/>
</g>
<!-- BB10 -->
<g id="node11" class="node">
<title>BB10</title>
<ellipse fill="none" stroke="black" cx="475.19" cy="-48.08" rx="103.48" ry="48.17"/>
<text text-anchor="middle" x="475.19" y="-66.88" font-family="Times New Roman,serif" font-size="14.00">[7a..7e)</text>
<text text-anchor="middle" x="475.19" y="-51.88" font-family="Times New Roman,serif" font-size="14.00">Count: 1</text>
<text text-anchor="middle" x="475.19" y="-36.88" font-family="Times New Roman,serif" font-size="14.00">Normalized count: 0.33</text>
<text text-anchor="middle" x="475.19" y="-21.88" font-family="Times New Roman,serif" font-size="14.00">Samples weight: 0.00</text>
</g>
<!-- BB9&#45;&gt;BB10 -->
<g id="edge13" class="edge">
<title>BB9&#45;&gt;BB10</title>
<path fill="none" stroke="black" d="M625.39,-140.02C600.28,-124.82 571.47,-107.37 545.83,-91.85"/>
<polygon fill="black" stroke="black" points="547.64,-88.86 537.27,-86.67 544.01,-94.84 547.64,-88.86"/>
</g>
<!-- BB10&#45;&gt;BB11 -->
<g id="edge14" class="edge">
<title>BB10&#45;&gt;BB11</title>
<path fill="none" stroke="black" d="M471.75,-96.19C469.2,-159.97 472.12,-275.56 517.19,-360.5 524.35,-373.99 534.62,-386.36 545.75,-397.19"/>
<polygon fill="black" stroke="black" points="543.46,-399.84 553.17,-404.09 548.23,-394.71 543.46,-399.84"/>
</g>
<!-- BB11&#45;&gt;BB7 -->
<g id="edge15" class="edge">
<title>BB11&#45;&gt;BB7</title>
<path fill="none" stroke="black" d="M617.05,-396.59C618.27,-388.22 619.55,-379.41 620.81,-370.78"/>
<polygon fill="black" stroke="black" points="624.29,-371.18 622.27,-360.78 617.37,-370.17 624.29,-371.18"/>
</g>
<!-- BB12 -->
<g id="node13" class="node">
<title>BB12</title>
<ellipse fill="none" stroke="black" cx="853.19" cy="-312.42" rx="103.48" ry="48.17"/>
<text text-anchor="middle" x="853.19" y="-331.22" font-family="Times New Roman,serif" font-size="14.00">[82..83)</text>
<text text-anchor="middle" x="853.19" y="-316.22" font-family="Times New Roman,serif" font-size="14.00">Count: 3</text>
<text text-anchor="middle" x="853.19" y="-301.22" font-family="Times New Roman,serif" font-size="14.00">Normalized count: 1.00</text>
<text text-anchor="middle" x="853.19" y="-286.22" font-family="Times New Roman,serif" font-size="14.00">Samples weight: 0.00</text>
</g>
<!-- BB11&#45;&gt;BB12 -->
<g id="edge16" class="edge">
<title>BB11&#45;&gt;BB12</title>
<path fill="none" stroke="black" d="M676.91,-407.84C707.99,-391.19 745.12,-371.31 777.27,-354.08"/>
<polygon fill="black" stroke="black" points="779.03,-357.11 786.19,-349.3 775.72,-350.94 779.03,-357.11"/>
</g>
</g>
</svg>
