<?xml version="1.0" encoding="UTF-8" standalone="no"?>
<!DOCTYPE svg PUBLIC "-//W3C//DTD SVG 1.1//EN"
 "http://www.w3.org/Graphics/SVG/1.1/DTD/svg11.dtd">
<!-- Generated by graphviz version 2.47.0 (20210316.0004)
 -->
<!-- Title: G Pages: 1 -->
<svg width="1148pt" height="2087pt"
 viewBox="0.00 0.00 1148.48 2086.66" xmlns="http://www.w3.org/2000/svg" xmlns:xlink="http://www.w3.org/1999/xlink">
<g id="graph0" class="graph" transform="scale(1 1) rotate(0) translate(4 2082.66)">
<title>G</title>
<polygon fill="white" stroke="transparent" points="-4,4 -4,-2082.66 1144.48,-2082.66 1144.48,4 -4,4"/>
<!-- BB0 -->
<g id="node1" class="node">
<title>BB0</title>
<ellipse fill="none" stroke="black" cx="570.24" cy="-2030.58" rx="103.48" ry="48.17"/>
<text text-anchor="middle" x="570.24" y="-2049.38" font-family="Times New Roman,serif" font-size="14.00">[0..e)</text>
<text text-anchor="middle" x="570.24" y="-2034.38" font-family="Times New Roman,serif" font-size="14.00">Count: 6</text>
<text text-anchor="middle" x="570.24" y="-2019.38" font-family="Times New Roman,serif" font-size="14.00">Normalized count: 1.00</text>
<text text-anchor="middle" x="570.24" y="-2004.38" font-family="Times New Roman,serif" font-size="14.00">Samples weight: 0.02</text>
</g>
<!-- BB1 -->
<g id="node2" class="node">
<title>BB1</title>
<ellipse fill="none" stroke="black" cx="458.24" cy="-1898.41" rx="103.48" ry="48.17"/>
<text text-anchor="middle" x="458.24" y="-1917.21" font-family="Times New Roman,serif" font-size="14.00">[e..11)</text>
<text text-anchor="middle" x="458.24" y="-1902.21" font-family="Times New Roman,serif" font-size="14.00">Count: 5</text>
<text text-anchor="middle" x="458.24" y="-1887.21" font-family="Times New Roman,serif" font-size="14.00">Normalized count: 0.83</text>
<text text-anchor="middle" x="458.24" y="-1872.21" font-family="Times New Roman,serif" font-size="14.00">Samples weight: 0.02</text>
</g>
<!-- BB0&#45;&gt;BB1 -->
<g id="edge2" class="edge">
<title>BB0&#45;&gt;BB1</title>
<path fill="none" stroke="black" d="M532.32,-1985.51C522.83,-1974.49 512.57,-1962.56 502.79,-1951.2"/>
<polygon fill="black" stroke="black" points="505.29,-1948.74 496.12,-1943.44 499.99,-1953.3 505.29,-1948.74"/>
</g>
<!-- BB2 -->
<g id="node3" class="node">
<title>BB2</title>
<ellipse fill="none" stroke="black" cx="682.24" cy="-1898.41" rx="103.48" ry="48.17"/>
<text text-anchor="middle" x="682.24" y="-1917.21" font-family="Times New Roman,serif" font-size="14.00">[11..1a)</text>
<text text-anchor="middle" x="682.24" y="-1902.21" font-family="Times New Roman,serif" font-size="14.00">Count: 5</text>
<text text-anchor="middle" x="682.24" y="-1887.21" font-family="Times New Roman,serif" font-size="14.00">Normalized count: 0.83</text>
<text text-anchor="middle" x="682.24" y="-1872.21" font-family="Times New Roman,serif" font-size="14.00">Samples weight: 0.02</text>
</g>
<!-- BB0&#45;&gt;BB2 -->
<g id="edge1" class="edge">
<title>BB0&#45;&gt;BB2</title>
<path fill="none" stroke="black" d="M608.16,-1985.51C617.64,-1974.49 627.91,-1962.56 637.68,-1951.2"/>
<polygon fill="black" stroke="black" points="640.49,-1953.3 644.36,-1943.44 635.18,-1948.74 640.49,-1953.3"/>
</g>
<!-- BB3 -->
<g id="node4" class="node">
<title>BB3</title>
<ellipse fill="none" stroke="black" cx="570.24" cy="-1766.25" rx="103.48" ry="48.17"/>
<text text-anchor="middle" x="570.24" y="-1785.05" font-family="Times New Roman,serif" font-size="14.00">[1a..2b)</text>
<text text-anchor="middle" x="570.24" y="-1770.05" font-family="Times New Roman,serif" font-size="14.00">Count: 13</text>
<text text-anchor="middle" x="570.24" y="-1755.05" font-family="Times New Roman,serif" font-size="14.00">Normalized count: 2.17</text>
<text text-anchor="middle" x="570.24" y="-1740.05" font-family="Times New Roman,serif" font-size="14.00">Samples weight: 0.04</text>
</g>
<!-- BB1&#45;&gt;BB3 -->
<g id="edge3" class="edge">
<title>BB1&#45;&gt;BB3</title>
<path fill="none" stroke="black" d="M496.16,-1853.35C505.64,-1842.32 515.91,-1830.39 525.68,-1819.03"/>
<polygon fill="black" stroke="black" points="528.49,-1821.13 532.36,-1811.27 523.18,-1816.57 528.49,-1821.13"/>
</g>
<!-- BB2&#45;&gt;BB3 -->
<g id="edge4" class="edge">
<title>BB2&#45;&gt;BB3</title>
<path fill="none" stroke="black" d="M644.32,-1853.35C634.83,-1842.32 624.57,-1830.39 614.79,-1819.03"/>
<polygon fill="black" stroke="black" points="617.29,-1816.57 608.12,-1811.27 611.99,-1821.13 617.29,-1816.57"/>
</g>
<!-- BB4 -->
<g id="node5" class="node">
<title>BB4</title>
<ellipse fill="none" stroke="black" cx="458.24" cy="-1634.08" rx="103.48" ry="48.17"/>
<text text-anchor="middle" x="458.24" y="-1652.88" font-family="Times New Roman,serif" font-size="14.00">[2b..2f)</text>
<text text-anchor="middle" x="458.24" y="-1637.88" font-family="Times New Roman,serif" font-size="14.00">Count: 7</text>
<text text-anchor="middle" x="458.24" y="-1622.88" font-family="Times New Roman,serif" font-size="14.00">Normalized count: 1.17</text>
<text text-anchor="middle" x="458.24" y="-1607.88" font-family="Times New Roman,serif" font-size="14.00">Samples weight: 0.02</text>
</g>
<!-- BB3&#45;&gt;BB4 -->
<g id="edge6" class="edge">
<title>BB3&#45;&gt;BB4</title>
<path fill="none" stroke="black" d="M532.32,-1721.18C522.83,-1710.15 512.57,-1698.23 502.79,-1686.86"/>
<polygon fill="black" stroke="black" points="505.29,-1684.4 496.12,-1679.1 499.99,-1688.97 505.29,-1684.4"/>
</g>
<!-- BB8 -->
<g id="node9" class="node">
<title>BB8</title>
<ellipse fill="none" stroke="black" cx="682.24" cy="-1634.08" rx="103.48" ry="48.17"/>
<text text-anchor="middle" x="682.24" y="-1652.88" font-family="Times New Roman,serif" font-size="14.00">[5a..62)</text>
<text text-anchor="middle" x="682.24" y="-1637.88" font-family="Times New Roman,serif" font-size="14.00">Count: 17</text>
<text text-anchor="middle" x="682.24" y="-1622.88" font-family="Times New Roman,serif" font-size="14.00">Normalized count: 2.83</text>
<text text-anchor="middle" x="682.24" y="-1607.88" font-family="Times New Roman,serif" font-size="14.00">Samples weight: 0.06</text>
</g>
<!-- BB3&#45;&gt;BB8 -->
<g id="edge5" class="edge">
<title>BB3&#45;&gt;BB8</title>
<path fill="none" stroke="black" d="M608.16,-1721.18C617.64,-1710.15 627.91,-1698.23 637.68,-1686.86"/>
<polygon fill="black" stroke="black" points="640.49,-1688.97 644.36,-1679.1 635.18,-1684.4 640.49,-1688.97"/>
</g>
<!-- BB5 -->
<g id="node6" class="node">
<title>BB5</title>
<ellipse fill="none" stroke="black" cx="258.24" cy="-1501.92" rx="103.48" ry="48.17"/>
<text text-anchor="middle" x="258.24" y="-1520.72" font-family="Times New Roman,serif" font-size="14.00">[2f..32)</text>
<text text-anchor="middle" x="258.24" y="-1505.72" font-family="Times New Roman,serif" font-size="14.00">Count: 6</text>
<text text-anchor="middle" x="258.24" y="-1490.72" font-family="Times New Roman,serif" font-size="14.00">Normalized count: 1.00</text>
<text text-anchor="middle" x="258.24" y="-1475.72" font-family="Times New Roman,serif" font-size="14.00">Samples weight: 0.02</text>
</g>
<!-- BB4&#45;&gt;BB5 -->
<g id="edge8" class="edge">
<title>BB4&#45;&gt;BB5</title>
<path fill="none" stroke="black" d="M399.04,-1594.56C376.17,-1579.67 349.85,-1562.54 326.21,-1547.15"/>
<polygon fill="black" stroke="black" points="327.92,-1544.09 317.63,-1541.57 324.1,-1549.96 327.92,-1544.09"/>
</g>
<!-- BB6 -->
<g id="node7" class="node">
<title>BB6</title>
<ellipse fill="none" stroke="black" cx="482.24" cy="-1501.92" rx="103.48" ry="48.17"/>
<text text-anchor="middle" x="482.24" y="-1520.72" font-family="Times New Roman,serif" font-size="14.00">[32..3b)</text>
<text text-anchor="middle" x="482.24" y="-1505.72" font-family="Times New Roman,serif" font-size="14.00">Count: 6</text>
<text text-anchor="middle" x="482.24" y="-1490.72" font-family="Times New Roman,serif" font-size="14.00">Normalized count: 1.00</text>
<text text-anchor="middle" x="482.24" y="-1475.72" font-family="Times New Roman,serif" font-size="14.00">Samples weight: 0.02</text>
</g>
<!-- BB4&#45;&gt;BB6 -->
<g id="edge7" class="edge">
<title>BB4&#45;&gt;BB6</title>
<path fill="none" stroke="black" d="M466.9,-1586.09C468.47,-1577.61 470.11,-1568.69 471.72,-1559.96"/>
<polygon fill="black" stroke="black" points="475.21,-1560.31 473.59,-1549.84 468.33,-1559.04 475.21,-1560.31"/>
</g>
<!-- BB7 -->
<g id="node8" class="node">
<title>BB7</title>
<ellipse fill="none" stroke="black" cx="458.24" cy="-1369.75" rx="103.48" ry="48.17"/>
<text text-anchor="middle" x="458.24" y="-1388.55" font-family="Times New Roman,serif" font-size="14.00">[3b..5a)</text>
<text text-anchor="middle" x="458.24" y="-1373.55" font-family="Times New Roman,serif" font-size="14.00">Count: 7</text>
<text text-anchor="middle" x="458.24" y="-1358.55" font-family="Times New Roman,serif" font-size="14.00">Normalized count: 1.17</text>
<text text-anchor="middle" x="458.24" y="-1343.55" font-family="Times New Roman,serif" font-size="14.00">Samples weight: 0.02</text>
</g>
<!-- BB5&#45;&gt;BB7 -->
<g id="edge9" class="edge">
<title>BB5&#45;&gt;BB7</title>
<path fill="none" stroke="black" d="M317.43,-1462.39C340.31,-1447.5 366.63,-1430.37 390.27,-1414.98"/>
<polygon fill="black" stroke="black" points="392.38,-1417.79 398.85,-1409.4 388.56,-1411.92 392.38,-1417.79"/>
</g>
<!-- BB6&#45;&gt;BB7 -->
<g id="edge10" class="edge">
<title>BB6&#45;&gt;BB7</title>
<path fill="none" stroke="black" d="M473.57,-1453.92C472.01,-1445.44 470.36,-1436.52 468.75,-1427.79"/>
<polygon fill="black" stroke="black" points="472.14,-1426.87 466.89,-1417.67 465.26,-1428.14 472.14,-1426.87"/>
</g>
<!-- BB7&#45;&gt;BB8 -->
<g id="edge11" class="edge">
<title>BB7&#45;&gt;BB8</title>
<path fill="none" stroke="black" d="M530.23,-1404.54C552.74,-1417.62 576.34,-1434.21 594.24,-1453.83 626.54,-1489.25 649.62,-1538.71 664.02,-1576.7"/>
<polygon fill="black" stroke="black" points="660.74,-1577.93 667.49,-1586.1 667.31,-1575.5 660.74,-1577.93"/>
</g>
<!-- BB32 -->
<g id="node33" class="node">
<title>BB32</title>
<ellipse fill="none" stroke="black" cx="813.24" cy="-1501.92" rx="103.48" ry="48.17"/>
<text text-anchor="middle" x="813.24" y="-1520.72" font-family="Times New Roman,serif" font-size="14.00">[167..16f)</text>
<text text-anchor="middle" x="813.24" y="-1505.72" font-family="Times New Roman,serif" font-size="14.00">Count: 13</text>
<text text-anchor="middle" x="813.24" y="-1490.72" font-family="Times New Roman,serif" font-size="14.00">Normalized count: 2.17</text>
<text text-anchor="middle" x="813.24" y="-1475.72" font-family="Times New Roman,serif" font-size="14.00">Samples weight: 0.04</text>
</g>
<!-- BB8&#45;&gt;BB32 -->
<g id="edge12" class="edge">
<title>BB8&#45;&gt;BB32</title>
<path fill="none" stroke="black" d="M725.49,-1590.1C737.46,-1578.21 750.54,-1565.21 762.87,-1552.96"/>
<polygon fill="black" stroke="black" points="765.4,-1555.38 770.03,-1545.85 760.47,-1550.42 765.4,-1555.38"/>
</g>
<!-- BB9 -->
<g id="node10" class="node">
<title>BB9</title>
<ellipse fill="none" stroke="black" cx="682.24" cy="-1369.75" rx="103.48" ry="48.17"/>
<text text-anchor="middle" x="682.24" y="-1388.55" font-family="Times New Roman,serif" font-size="14.00">[62..6d)</text>
<text text-anchor="middle" x="682.24" y="-1373.55" font-family="Times New Roman,serif" font-size="14.00">Count: 10</text>
<text text-anchor="middle" x="682.24" y="-1358.55" font-family="Times New Roman,serif" font-size="14.00">Normalized count: 1.67</text>
<text text-anchor="middle" x="682.24" y="-1343.55" font-family="Times New Roman,serif" font-size="14.00">Samples weight: 0.03</text>
</g>
<!-- BB10 -->
<g id="node11" class="node">
<title>BB10</title>
<ellipse fill="none" stroke="black" cx="551.24" cy="-1237.58" rx="103.48" ry="48.17"/>
<text text-anchor="middle" x="551.24" y="-1256.38" font-family="Times New Roman,serif" font-size="14.00">[6d..70)</text>
<text text-anchor="middle" x="551.24" y="-1241.38" font-family="Times New Roman,serif" font-size="14.00">Count: 10</text>
<text text-anchor="middle" x="551.24" y="-1226.38" font-family="Times New Roman,serif" font-size="14.00">Normalized count: 1.67</text>
<text text-anchor="middle" x="551.24" y="-1211.38" font-family="Times New Roman,serif" font-size="14.00">Samples weight: 0.03</text>
</g>
<!-- BB9&#45;&gt;BB10 -->
<g id="edge14" class="edge">
<title>BB9&#45;&gt;BB10</title>
<path fill="none" stroke="black" d="M638.98,-1325.77C627.02,-1313.88 613.93,-1300.88 601.61,-1288.63"/>
<polygon fill="black" stroke="black" points="604.01,-1286.08 594.45,-1281.52 599.08,-1291.05 604.01,-1286.08"/>
</g>
<!-- BB11 -->
<g id="node12" class="node">
<title>BB11</title>
<ellipse fill="none" stroke="black" cx="775.24" cy="-1237.58" rx="103.48" ry="48.17"/>
<text text-anchor="middle" x="775.24" y="-1256.38" font-family="Times New Roman,serif" font-size="14.00">[70..78)</text>
<text text-anchor="middle" x="775.24" y="-1241.38" font-family="Times New Roman,serif" font-size="14.00">Count: 11</text>
<text text-anchor="middle" x="775.24" y="-1226.38" font-family="Times New Roman,serif" font-size="14.00">Normalized count: 1.83</text>
<text text-anchor="middle" x="775.24" y="-1211.38" font-family="Times New Roman,serif" font-size="14.00">Samples weight: 0.04</text>
</g>
<!-- BB9&#45;&gt;BB11 -->
<g id="edge13" class="edge">
<title>BB9&#45;&gt;BB11</title>
<path fill="none" stroke="black" d="M714.24,-1323.95C721.62,-1313.62 729.54,-1302.54 737.15,-1291.89"/>
<polygon fill="black" stroke="black" points="740.21,-1293.63 743.17,-1283.46 734.51,-1289.56 740.21,-1293.63"/>
</g>
<!-- BB12 -->
<g id="node13" class="node">
<title>BB12</title>
<ellipse fill="none" stroke="black" cx="597.24" cy="-1105.42" rx="103.48" ry="48.17"/>
<text text-anchor="middle" x="597.24" y="-1124.22" font-family="Times New Roman,serif" font-size="14.00">[78..93)</text>
<text text-anchor="middle" x="597.24" y="-1109.22" font-family="Times New Roman,serif" font-size="14.00">Count: 11</text>
<text text-anchor="middle" x="597.24" y="-1094.22" font-family="Times New Roman,serif" font-size="14.00">Normalized count: 1.83</text>
<text text-anchor="middle" x="597.24" y="-1079.22" font-family="Times New Roman,serif" font-size="14.00">Samples weight: 0.04</text>
</g>
<!-- BB10&#45;&gt;BB12 -->
<g id="edge15" class="edge">
<title>BB10&#45;&gt;BB12</title>
<path fill="none" stroke="black" d="M567.71,-1189.96C570.82,-1181.17 574.1,-1171.9 577.29,-1162.85"/>
<polygon fill="black" stroke="black" points="580.69,-1163.75 580.72,-1153.15 574.09,-1161.42 580.69,-1163.75"/>
</g>
<!-- BB11&#45;&gt;BB12 -->
<g id="edge16" class="edge">
<title>BB11&#45;&gt;BB12</title>
<path fill="none" stroke="black" d="M720.38,-1196.47C701.34,-1182.54 679.85,-1166.82 660.21,-1152.46"/>
<polygon fill="black" stroke="black" points="662.05,-1149.48 651.91,-1146.4 657.92,-1155.13 662.05,-1149.48"/>
</g>
<!-- BB13 -->
<g id="node14" class="node">
<title>BB13</title>
<ellipse fill="none" stroke="black" cx="404.24" cy="-973.25" rx="103.48" ry="48.17"/>
<text text-anchor="middle" x="404.24" y="-992.05" font-family="Times New Roman,serif" font-size="14.00">[93..96)</text>
<text text-anchor="middle" x="404.24" y="-977.05" font-family="Times New Roman,serif" font-size="14.00">Count: 11</text>
<text text-anchor="middle" x="404.24" y="-962.05" font-family="Times New Roman,serif" font-size="14.00">Normalized count: 1.83</text>
<text text-anchor="middle" x="404.24" y="-947.05" font-family="Times New Roman,serif" font-size="14.00">Samples weight: 0.04</text>
</g>
<!-- BB12&#45;&gt;BB13 -->
<g id="edge18" class="edge">
<title>BB12&#45;&gt;BB13</title>
<path fill="none" stroke="black" d="M539.33,-1065.36C517.67,-1050.75 492.9,-1034.05 470.54,-1018.97"/>
<polygon fill="black" stroke="black" points="472.35,-1015.97 462.1,-1013.28 468.44,-1021.77 472.35,-1015.97"/>
</g>
<!-- BB14 -->
<g id="node15" class="node">
<title>BB14</title>
<ellipse fill="none" stroke="black" cx="628.24" cy="-973.25" rx="103.48" ry="48.17"/>
<text text-anchor="middle" x="628.24" y="-992.05" font-family="Times New Roman,serif" font-size="14.00">[96..a0)</text>
<text text-anchor="middle" x="628.24" y="-977.05" font-family="Times New Roman,serif" font-size="14.00">Count: 11</text>
<text text-anchor="middle" x="628.24" y="-962.05" font-family="Times New Roman,serif" font-size="14.00">Normalized count: 1.83</text>
<text text-anchor="middle" x="628.24" y="-947.05" font-family="Times New Roman,serif" font-size="14.00">Samples weight: 0.04</text>
</g>
<!-- BB12&#45;&gt;BB14 -->
<g id="edge17" class="edge">
<title>BB12&#45;&gt;BB14</title>
<path fill="none" stroke="black" d="M608.43,-1057.42C610.47,-1048.85 612.62,-1039.82 614.72,-1031.01"/>
<polygon fill="black" stroke="black" points="618.15,-1031.71 617.06,-1021.17 611.34,-1030.09 618.15,-1031.71"/>
</g>
<!-- BB15 -->
<g id="node16" class="node">
<title>BB15</title>
<ellipse fill="none" stroke="black" cx="427.24" cy="-841.08" rx="103.48" ry="48.17"/>
<text text-anchor="middle" x="427.24" y="-859.88" font-family="Times New Roman,serif" font-size="14.00">[a0..a6)</text>
<text text-anchor="middle" x="427.24" y="-844.88" font-family="Times New Roman,serif" font-size="14.00">Count: 11</text>
<text text-anchor="middle" x="427.24" y="-829.88" font-family="Times New Roman,serif" font-size="14.00">Normalized count: 1.83</text>
<text text-anchor="middle" x="427.24" y="-814.88" font-family="Times New Roman,serif" font-size="14.00">Samples weight: 0.04</text>
</g>
<!-- BB13&#45;&gt;BB15 -->
<g id="edge19" class="edge">
<title>BB13&#45;&gt;BB15</title>
<path fill="none" stroke="black" d="M412.54,-925.26C414.02,-916.88 415.58,-908.07 417.1,-899.45"/>
<polygon fill="black" stroke="black" points="420.58,-899.9 418.87,-889.44 413.68,-898.68 420.58,-899.9"/>
</g>
<!-- BB14&#45;&gt;BB15 -->
<g id="edge20" class="edge">
<title>BB14&#45;&gt;BB15</title>
<path fill="none" stroke="black" d="M568.75,-933.72C545.65,-918.77 519.07,-901.55 495.23,-886.11"/>
<polygon fill="black" stroke="black" points="496.87,-883.01 486.58,-880.51 493.07,-888.88 496.87,-883.01"/>
</g>
<!-- BB16 -->
<g id="node17" class="node">
<title>BB16</title>
<ellipse fill="none" stroke="black" cx="327.24" cy="-708.92" rx="103.48" ry="48.17"/>
<text text-anchor="middle" x="327.24" y="-727.72" font-family="Times New Roman,serif" font-size="14.00">[a6..ab)</text>
<text text-anchor="middle" x="327.24" y="-712.72" font-family="Times New Roman,serif" font-size="14.00">Count: 10</text>
<text text-anchor="middle" x="327.24" y="-697.72" font-family="Times New Roman,serif" font-size="14.00">Normalized count: 1.67</text>
<text text-anchor="middle" x="327.24" y="-682.72" font-family="Times New Roman,serif" font-size="14.00">Samples weight: 0.03</text>
</g>
<!-- BB15&#45;&gt;BB16 -->
<g id="edge22" class="edge">
<title>BB15&#45;&gt;BB16</title>
<path fill="none" stroke="black" d="M393.1,-795.65C384.99,-785.09 376.25,-773.71 367.87,-762.81"/>
<polygon fill="black" stroke="black" points="370.43,-760.39 361.56,-754.59 364.87,-764.65 370.43,-760.39"/>
</g>
<!-- BB20 -->
<g id="node21" class="node">
<title>BB20</title>
<ellipse fill="none" stroke="black" cx="617.24" cy="-708.92" rx="103.48" ry="48.17"/>
<text text-anchor="middle" x="617.24" y="-727.72" font-family="Times New Roman,serif" font-size="14.00">[dd..ea)</text>
<text text-anchor="middle" x="617.24" y="-712.72" font-family="Times New Roman,serif" font-size="14.00">Count: 10</text>
<text text-anchor="middle" x="617.24" y="-697.72" font-family="Times New Roman,serif" font-size="14.00">Normalized count: 1.67</text>
<text text-anchor="middle" x="617.24" y="-682.72" font-family="Times New Roman,serif" font-size="14.00">Samples weight: 0.03</text>
</g>
<!-- BB15&#45;&gt;BB20 -->
<g id="edge21" class="edge">
<title>BB15&#45;&gt;BB20</title>
<path fill="none" stroke="black" d="M484.5,-800.85C505.72,-786.32 529.94,-769.72 551.83,-754.73"/>
<polygon fill="black" stroke="black" points="553.82,-757.61 560.09,-749.07 549.86,-751.83 553.82,-757.61"/>
</g>
<!-- BB17 -->
<g id="node18" class="node">
<title>BB17</title>
<ellipse fill="none" stroke="black" cx="327.24" cy="-576.75" rx="103.48" ry="48.17"/>
<text text-anchor="middle" x="327.24" y="-595.55" font-family="Times New Roman,serif" font-size="14.00">[ab..ae)</text>
<text text-anchor="middle" x="327.24" y="-580.55" font-family="Times New Roman,serif" font-size="14.00">Count: 9</text>
<text text-anchor="middle" x="327.24" y="-565.55" font-family="Times New Roman,serif" font-size="14.00">Normalized count: 1.50</text>
<text text-anchor="middle" x="327.24" y="-550.55" font-family="Times New Roman,serif" font-size="14.00">Samples weight: 0.03</text>
</g>
<!-- BB16&#45;&gt;BB17 -->
<g id="edge24" class="edge">
<title>BB16&#45;&gt;BB17</title>
<path fill="none" stroke="black" d="M327.24,-660.55C327.24,-652.29 327.24,-643.6 327.24,-635.1"/>
<polygon fill="black" stroke="black" points="330.74,-634.86 327.24,-624.86 323.74,-634.86 330.74,-634.86"/>
</g>
<!-- BB18 -->
<g id="node19" class="node">
<title>BB18</title>
<ellipse fill="none" stroke="black" cx="103.24" cy="-576.75" rx="103.48" ry="48.17"/>
<text text-anchor="middle" x="103.24" y="-595.55" font-family="Times New Roman,serif" font-size="14.00">[ae..b8)</text>
<text text-anchor="middle" x="103.24" y="-580.55" font-family="Times New Roman,serif" font-size="14.00">Count: 9</text>
<text text-anchor="middle" x="103.24" y="-565.55" font-family="Times New Roman,serif" font-size="14.00">Normalized count: 1.50</text>
<text text-anchor="middle" x="103.24" y="-550.55" font-family="Times New Roman,serif" font-size="14.00">Samples weight: 0.03</text>
</g>
<!-- BB16&#45;&gt;BB18 -->
<g id="edge23" class="edge">
<title>BB16&#45;&gt;BB18</title>
<path fill="none" stroke="black" d="M263.65,-670.96C236.22,-655.02 203.99,-636.3 175.65,-619.83"/>
<polygon fill="black" stroke="black" points="177.39,-616.79 166.99,-614.79 173.87,-622.84 177.39,-616.79"/>
</g>
<!-- BB19 -->
<g id="node20" class="node">
<title>BB19</title>
<ellipse fill="none" stroke="black" cx="327.24" cy="-444.58" rx="103.48" ry="48.17"/>
<text text-anchor="middle" x="327.24" y="-463.38" font-family="Times New Roman,serif" font-size="14.00">[b8..dd)</text>
<text text-anchor="middle" x="327.24" y="-448.38" font-family="Times New Roman,serif" font-size="14.00">Count: 10</text>
<text text-anchor="middle" x="327.24" y="-433.38" font-family="Times New Roman,serif" font-size="14.00">Normalized count: 1.67</text>
<text text-anchor="middle" x="327.24" y="-418.38" font-family="Times New Roman,serif" font-size="14.00">Samples weight: 0.03</text>
</g>
<!-- BB17&#45;&gt;BB19 -->
<g id="edge25" class="edge">
<title>BB17&#45;&gt;BB19</title>
<path fill="none" stroke="black" d="M327.24,-528.39C327.24,-520.12 327.24,-511.44 327.24,-502.93"/>
<polygon fill="black" stroke="black" points="330.74,-502.69 327.24,-492.69 323.74,-502.69 330.74,-502.69"/>
</g>
<!-- BB18&#45;&gt;BB19 -->
<g id="edge26" class="edge">
<title>BB18&#45;&gt;BB19</title>
<path fill="none" stroke="black" d="M166.83,-538.8C194.26,-522.86 226.48,-504.13 254.83,-487.66"/>
<polygon fill="black" stroke="black" points="256.6,-490.68 263.49,-482.63 253.08,-484.63 256.6,-490.68"/>
</g>
<!-- BB19&#45;&gt;BB20 -->
<g id="edge27" class="edge">
<title>BB19&#45;&gt;BB20</title>
<path fill="none" stroke="black" d="M410.07,-473.42C431.79,-480.21 455.27,-487.11 477.24,-492.67 558.87,-513.31 609.65,-463.72 663.24,-528.67 692.29,-563.88 674.92,-615.24 653.7,-653.96"/>
<polygon fill="black" stroke="black" points="650.45,-652.59 648.55,-663.01 656.54,-656.06 650.45,-652.59"/>
</g>
<!-- BB21 -->
<g id="node22" class="node">
<title>BB21</title>
<ellipse fill="none" stroke="black" cx="551.24" cy="-576.75" rx="103.48" ry="48.17"/>
<text text-anchor="middle" x="551.24" y="-595.55" font-family="Times New Roman,serif" font-size="14.00">[ea..f0)</text>
<text text-anchor="middle" x="551.24" y="-580.55" font-family="Times New Roman,serif" font-size="14.00">Count: 0</text>
<text text-anchor="middle" x="551.24" y="-565.55" font-family="Times New Roman,serif" font-size="14.00">Normalized count: 0.00</text>
<text text-anchor="middle" x="551.24" y="-550.55" font-family="Times New Roman,serif" font-size="14.00">Samples weight: 0.00</text>
</g>
<!-- BB20&#45;&gt;BB21 -->
<g id="edge29" class="edge">
<title>BB20&#45;&gt;BB21</title>
<path fill="none" stroke="black" d="M593.97,-662.02C589.19,-652.59 584.11,-642.57 579.18,-632.86"/>
<polygon fill="black" stroke="black" points="582.16,-631 574.52,-623.67 575.92,-634.17 582.16,-631"/>
</g>
<!-- BB23 -->
<g id="node24" class="node">
<title>BB23</title>
<ellipse fill="none" stroke="black" cx="813.24" cy="-576.75" rx="103.48" ry="48.17"/>
<text text-anchor="middle" x="813.24" y="-595.55" font-family="Times New Roman,serif" font-size="14.00">[f7..106)</text>
<text text-anchor="middle" x="813.24" y="-580.55" font-family="Times New Roman,serif" font-size="14.00">Count: 20</text>
<text text-anchor="middle" x="813.24" y="-565.55" font-family="Times New Roman,serif" font-size="14.00">Normalized count: 3.33</text>
<text text-anchor="middle" x="813.24" y="-550.55" font-family="Times New Roman,serif" font-size="14.00">Samples weight: 0.07</text>
</g>
<!-- BB20&#45;&gt;BB23 -->
<g id="edge28" class="edge">
<title>BB20&#45;&gt;BB23</title>
<path fill="none" stroke="black" d="M675.51,-669.21C697.82,-654.4 723.44,-637.38 746.49,-622.08"/>
<polygon fill="black" stroke="black" points="748.45,-624.97 754.85,-616.53 744.58,-619.14 748.45,-624.97"/>
</g>
<!-- BB21&#45;&gt;BB23 -->
<g id="edge30" class="edge">
<title>BB21&#45;&gt;BB23</title>
<path fill="none" stroke="black" d="M654.6,-576.75C669.54,-576.75 684.48,-576.75 699.41,-576.75"/>
<polygon fill="black" stroke="black" points="699.75,-580.25 709.75,-576.75 699.75,-573.25 699.75,-580.25"/>
</g>
<!-- BB22 -->
<g id="node23" class="node">
<title>BB22</title>
<ellipse fill="none" stroke="black" cx="813.24" cy="-444.58" rx="103.48" ry="48.17"/>
<text text-anchor="middle" x="813.24" y="-463.38" font-family="Times New Roman,serif" font-size="14.00">[f0..f7)</text>
<text text-anchor="middle" x="813.24" y="-448.38" font-family="Times New Roman,serif" font-size="14.00">Count: 10</text>
<text text-anchor="middle" x="813.24" y="-433.38" font-family="Times New Roman,serif" font-size="14.00">Normalized count: 1.67</text>
<text text-anchor="middle" x="813.24" y="-418.38" font-family="Times New Roman,serif" font-size="14.00">Samples weight: 0.03</text>
</g>
<!-- BB22&#45;&gt;BB23 -->
<g id="edge31" class="edge">
<title>BB22&#45;&gt;BB23</title>
<path fill="none" stroke="black" d="M819.76,-492.94C819.98,-501.24 820.04,-509.95 819.94,-518.48"/>
<polygon fill="black" stroke="black" points="816.44,-518.69 819.75,-528.76 823.44,-518.82 816.44,-518.69"/>
</g>
<!-- BB23&#45;&gt;BB22 -->
<g id="edge32" class="edge">
<title>BB23&#45;&gt;BB22</title>
<path fill="none" stroke="black" d="M806.72,-528.76C806.5,-520.38 806.43,-511.57 806.53,-502.95"/>
<polygon fill="black" stroke="black" points="810.03,-503.01 806.72,-492.94 803.03,-502.88 810.03,-503.01"/>
</g>
<!-- BB24 -->
<g id="node25" class="node">
<title>BB24</title>
<ellipse fill="none" stroke="black" cx="589.24" cy="-444.58" rx="103.48" ry="48.17"/>
<text text-anchor="middle" x="589.24" y="-463.38" font-family="Times New Roman,serif" font-size="14.00">[106..10c)</text>
<text text-anchor="middle" x="589.24" y="-448.38" font-family="Times New Roman,serif" font-size="14.00">Count: 10</text>
<text text-anchor="middle" x="589.24" y="-433.38" font-family="Times New Roman,serif" font-size="14.00">Normalized count: 1.67</text>
<text text-anchor="middle" x="589.24" y="-418.38" font-family="Times New Roman,serif" font-size="14.00">Samples weight: 0.03</text>
</g>
<!-- BB23&#45;&gt;BB24 -->
<g id="edge33" class="edge">
<title>BB23&#45;&gt;BB24</title>
<path fill="none" stroke="black" d="M749.65,-538.8C722.22,-522.86 689.99,-504.13 661.65,-487.66"/>
<polygon fill="black" stroke="black" points="663.39,-484.63 652.99,-482.63 659.87,-490.68 663.39,-484.63"/>
</g>
<!-- BB25 -->
<g id="node26" class="node">
<title>BB25</title>
<ellipse fill="none" stroke="black" cx="427.24" cy="-312.42" rx="103.48" ry="48.17"/>
<text text-anchor="middle" x="427.24" y="-331.22" font-family="Times New Roman,serif" font-size="14.00">[10c..128)</text>
<text text-anchor="middle" x="427.24" y="-316.22" font-family="Times New Roman,serif" font-size="14.00">Count: 13</text>
<text text-anchor="middle" x="427.24" y="-301.22" font-family="Times New Roman,serif" font-size="14.00">Normalized count: 2.17</text>
<text text-anchor="middle" x="427.24" y="-286.22" font-family="Times New Roman,serif" font-size="14.00">Samples weight: 0.04</text>
</g>
<!-- BB24&#45;&gt;BB25 -->
<g id="edge35" class="edge">
<title>BB24&#45;&gt;BB25</title>
<path fill="none" stroke="black" d="M537.98,-402.4C521.57,-389.21 503.27,-374.51 486.34,-360.91"/>
<polygon fill="black" stroke="black" points="488.15,-357.87 478.16,-354.33 483.77,-363.33 488.15,-357.87"/>
</g>
<!-- BB27 -->
<g id="node28" class="node">
<title>BB27</title>
<ellipse fill="none" stroke="black" cx="651.24" cy="-312.42" rx="103.48" ry="48.17"/>
<text text-anchor="middle" x="651.24" y="-331.22" font-family="Times New Roman,serif" font-size="14.00">[143..147)</text>
<text text-anchor="middle" x="651.24" y="-316.22" font-family="Times New Roman,serif" font-size="14.00">Count: 4</text>
<text text-anchor="middle" x="651.24" y="-301.22" font-family="Times New Roman,serif" font-size="14.00">Normalized count: 0.67</text>
<text text-anchor="middle" x="651.24" y="-286.22" font-family="Times New Roman,serif" font-size="14.00">Samples weight: 0.01</text>
</g>
<!-- BB24&#45;&gt;BB27 -->
<g id="edge34" class="edge">
<title>BB24&#45;&gt;BB27</title>
<path fill="none" stroke="black" d="M611.27,-397.32C615.7,-388.02 620.4,-378.16 624.96,-368.58"/>
<polygon fill="black" stroke="black" points="628.13,-370.06 629.28,-359.53 621.81,-367.05 628.13,-370.06"/>
</g>
<!-- BB26 -->
<g id="node27" class="node">
<title>BB26</title>
<ellipse fill="none" stroke="black" cx="427.24" cy="-180.25" rx="103.48" ry="48.17"/>
<text text-anchor="middle" x="427.24" y="-199.05" font-family="Times New Roman,serif" font-size="14.00">[128..143)</text>
<text text-anchor="middle" x="427.24" y="-184.05" font-family="Times New Roman,serif" font-size="14.00">Count: 4</text>
<text text-anchor="middle" x="427.24" y="-169.05" font-family="Times New Roman,serif" font-size="14.00">Normalized count: 0.67</text>
<text text-anchor="middle" x="427.24" y="-154.05" font-family="Times New Roman,serif" font-size="14.00">Samples weight: 0.01</text>
</g>
<!-- BB25&#45;&gt;BB26 -->
<g id="edge37" class="edge">
<title>BB25&#45;&gt;BB26</title>
<path fill="none" stroke="black" d="M427.24,-264.05C427.24,-255.79 427.24,-247.1 427.24,-238.6"/>
<polygon fill="black" stroke="black" points="430.74,-238.36 427.24,-228.36 423.74,-238.36 430.74,-238.36"/>
</g>
<!-- BB25&#45;&gt;BB27 -->
<g id="edge36" class="edge">
<title>BB25&#45;&gt;BB27</title>
<path fill="none" stroke="black" d="M530.49,-312.42C532.94,-312.42 535.4,-312.42 537.85,-312.42"/>
<polygon fill="black" stroke="black" points="537.94,-315.92 547.94,-312.42 537.94,-308.92 537.94,-315.92"/>
</g>
<!-- BB26&#45;&gt;BB27 -->
<g id="edge38" class="edge">
<title>BB26&#45;&gt;BB27</title>
<path fill="none" stroke="black" d="M490.99,-218.29C518.43,-234.24 550.66,-252.97 578.99,-269.43"/>
<polygon fill="black" stroke="black" points="577.24,-272.47 587.65,-274.46 580.76,-266.41 577.24,-272.47"/>
</g>
<!-- BB28 -->
<g id="node29" class="node">
<title>BB28</title>
<ellipse fill="none" stroke="black" cx="651.24" cy="-180.25" rx="103.48" ry="48.17"/>
<text text-anchor="middle" x="651.24" y="-199.05" font-family="Times New Roman,serif" font-size="14.00">[147..153)</text>
<text text-anchor="middle" x="651.24" y="-184.05" font-family="Times New Roman,serif" font-size="14.00">Count: 4</text>
<text text-anchor="middle" x="651.24" y="-169.05" font-family="Times New Roman,serif" font-size="14.00">Normalized count: 0.67</text>
<text text-anchor="middle" x="651.24" y="-154.05" font-family="Times New Roman,serif" font-size="14.00">Samples weight: 0.01</text>
</g>
<!-- BB27&#45;&gt;BB28 -->
<g id="edge40" class="edge">
<title>BB27&#45;&gt;BB28</title>
<path fill="none" stroke="black" d="M651.24,-264.05C651.24,-255.79 651.24,-247.1 651.24,-238.6"/>
<polygon fill="black" stroke="black" points="654.74,-238.36 651.24,-228.36 647.74,-238.36 654.74,-238.36"/>
</g>
<!-- BB29 -->
<g id="node30" class="node">
<title>BB29</title>
<ellipse fill="none" stroke="black" cx="875.24" cy="-180.25" rx="103.48" ry="48.17"/>
<text text-anchor="middle" x="875.24" y="-199.05" font-family="Times New Roman,serif" font-size="14.00">[153..158)</text>
<text text-anchor="middle" x="875.24" y="-184.05" font-family="Times New Roman,serif" font-size="14.00">Count: 4</text>
<text text-anchor="middle" x="875.24" y="-169.05" font-family="Times New Roman,serif" font-size="14.00">Normalized count: 0.67</text>
<text text-anchor="middle" x="875.24" y="-154.05" font-family="Times New Roman,serif" font-size="14.00">Samples weight: 0.01</text>
</g>
<!-- BB27&#45;&gt;BB29 -->
<g id="edge39" class="edge">
<title>BB27&#45;&gt;BB29</title>
<path fill="none" stroke="black" d="M714.83,-274.46C742.26,-258.52 774.48,-239.8 802.83,-223.33"/>
<polygon fill="black" stroke="black" points="804.6,-226.35 811.49,-218.29 801.08,-220.29 804.6,-226.35"/>
</g>
<!-- BB28&#45;&gt;BB29 -->
<g id="edge41" class="edge">
<title>BB28&#45;&gt;BB29</title>
<path fill="none" stroke="black" d="M754.49,-180.25C756.94,-180.25 759.4,-180.25 761.85,-180.25"/>
<polygon fill="black" stroke="black" points="761.94,-183.75 771.94,-180.25 761.94,-176.75 761.94,-183.75"/>
</g>
<!-- BB30 -->
<g id="node31" class="node">
<title>BB30</title>
<ellipse fill="none" stroke="black" cx="813.24" cy="-48.08" rx="103.48" ry="48.17"/>
<text text-anchor="middle" x="813.24" y="-66.88" font-family="Times New Roman,serif" font-size="14.00">[158..161)</text>
<text text-anchor="middle" x="813.24" y="-51.88" font-family="Times New Roman,serif" font-size="14.00">Count: 5</text>
<text text-anchor="middle" x="813.24" y="-36.88" font-family="Times New Roman,serif" font-size="14.00">Normalized count: 0.83</text>
<text text-anchor="middle" x="813.24" y="-21.88" font-family="Times New Roman,serif" font-size="14.00">Samples weight: 0.02</text>
</g>
<!-- BB29&#45;&gt;BB30 -->
<g id="edge43" class="edge">
<title>BB29&#45;&gt;BB30</title>
<path fill="none" stroke="black" d="M853.2,-132.99C848.77,-123.69 844.07,-113.82 839.52,-104.25"/>
<polygon fill="black" stroke="black" points="842.66,-102.72 835.2,-95.19 836.34,-105.73 842.66,-102.72"/>
</g>
<!-- BB31 -->
<g id="node32" class="node">
<title>BB31</title>
<ellipse fill="none" stroke="black" cx="1037.24" cy="-48.08" rx="103.48" ry="48.17"/>
<text text-anchor="middle" x="1037.24" y="-66.88" font-family="Times New Roman,serif" font-size="14.00">[161..167)</text>
<text text-anchor="middle" x="1037.24" y="-51.88" font-family="Times New Roman,serif" font-size="14.00">Count: 13</text>
<text text-anchor="middle" x="1037.24" y="-36.88" font-family="Times New Roman,serif" font-size="14.00">Normalized count: 2.17</text>
<text text-anchor="middle" x="1037.24" y="-21.88" font-family="Times New Roman,serif" font-size="14.00">Samples weight: 0.04</text>
</g>
<!-- BB29&#45;&gt;BB31 -->
<g id="edge42" class="edge">
<title>BB29&#45;&gt;BB31</title>
<path fill="none" stroke="black" d="M926.5,-138.06C942.91,-124.88 961.21,-110.17 978.13,-96.58"/>
<polygon fill="black" stroke="black" points="980.71,-98.99 986.31,-90 976.33,-93.54 980.71,-98.99"/>
</g>
<!-- BB30&#45;&gt;BB31 -->
<g id="edge44" class="edge">
<title>BB30&#45;&gt;BB31</title>
<path fill="none" stroke="black" d="M916.49,-48.08C918.94,-48.08 921.4,-48.08 923.85,-48.08"/>
<polygon fill="black" stroke="black" points="923.94,-51.58 933.94,-48.08 923.94,-44.58 923.94,-51.58"/>
</g>
<!-- BB31&#45;&gt;BB32 -->
<g id="edge45" class="edge">
<title>BB31&#45;&gt;BB32</title>
<path fill="none" stroke="black" d="M1037.24,-96.47C1037.24,-149.01 1037.24,-236.27 1037.24,-311.42 1037.24,-1238.58 1037.24,-1238.58 1037.24,-1238.58 1037.24,-1318.69 1066.44,-1353.85 1018.24,-1417.83 994.32,-1449.58 956.23,-1469.23 919.34,-1481.39"/>
<polygon fill="black" stroke="black" points="917.99,-1478.14 909.49,-1484.47 920.08,-1484.82 917.99,-1478.14"/>
</g>
<!-- BB32&#45;&gt;BB9 -->
<g id="edge46" class="edge">
<title>BB32&#45;&gt;BB9</title>
<path fill="none" stroke="black" d="M769.98,-1457.93C758.02,-1446.05 744.93,-1433.05 732.61,-1420.8"/>
<polygon fill="black" stroke="black" points="735.01,-1418.25 725.45,-1413.69 730.08,-1423.22 735.01,-1418.25"/>
</g>
<!-- BB33 -->
<g id="node34" class="node">
<title>BB33</title>
<ellipse fill="none" stroke="black" cx="906.24" cy="-1369.75" rx="103.48" ry="48.17"/>
<text text-anchor="middle" x="906.24" y="-1388.55" font-family="Times New Roman,serif" font-size="14.00">[16f..170)</text>
<text text-anchor="middle" x="906.24" y="-1373.55" font-family="Times New Roman,serif" font-size="14.00">Count: 5</text>
<text text-anchor="middle" x="906.24" y="-1358.55" font-family="Times New Roman,serif" font-size="14.00">Normalized count: 0.83</text>
<text text-anchor="middle" x="906.24" y="-1343.55" font-family="Times New Roman,serif" font-size="14.00">Samples weight: 0.02</text>
</g>
<!-- BB32&#45;&gt;BB33 -->
<g id="edge47" class="edge">
<title>BB32&#45;&gt;BB33</title>
<path fill="none" stroke="black" d="M845.24,-1456.12C852.62,-1445.79 860.54,-1434.7 868.15,-1424.05"/>
<polygon fill="black" stroke="black" points="871.21,-1425.8 874.17,-1415.63 865.51,-1421.73 871.21,-1425.8"/>
</g>
</g>
</svg>
