<?xml version="1.0" encoding="UTF-8" standalone="no"?>
<!DOCTYPE svg PUBLIC "-//W3C//DTD SVG 1.1//EN"
 "http://www.w3.org/Graphics/SVG/1.1/DTD/svg11.dtd">
<!-- Generated by graphviz version 2.47.0 (20210316.0004)
 -->
<!-- Title: G Pages: 1 -->
<svg width="774pt" height="897pt"
 viewBox="0.00 0.00 774.48 897.17" xmlns="http://www.w3.org/2000/svg" xmlns:xlink="http://www.w3.org/1999/xlink">
<g id="graph0" class="graph" transform="scale(1 1) rotate(0) translate(4 893.17)">
<title>G</title>
<polygon fill="white" stroke="transparent" points="-4,4 -4,-893.17 770.48,-893.17 770.48,4 -4,4"/>
<!-- BB0 -->
<g id="node1" class="node">
<title>BB0</title>
<ellipse fill="none" stroke="black" cx="215.24" cy="-841.08" rx="103.48" ry="48.17"/>
<text text-anchor="middle" x="215.24" y="-859.88" font-family="Times New Roman,serif" font-size="14.00">[0..8)</text>
<text text-anchor="middle" x="215.24" y="-844.88" font-family="Times New Roman,serif" font-size="14.00">Count: 19299</text>
<text text-anchor="middle" x="215.24" y="-829.88" font-family="Times New Roman,serif" font-size="14.00">Normalized count: 1.00</text>
<text text-anchor="middle" x="215.24" y="-814.88" font-family="Times New Roman,serif" font-size="14.00">Samples weight: 0.15</text>
</g>
<!-- BB1 -->
<g id="node2" class="node">
<title>BB1</title>
<ellipse fill="none" stroke="black" cx="103.24" cy="-708.92" rx="103.48" ry="48.17"/>
<text text-anchor="middle" x="103.24" y="-727.72" font-family="Times New Roman,serif" font-size="14.00">[8..a)</text>
<text text-anchor="middle" x="103.24" y="-712.72" font-family="Times New Roman,serif" font-size="14.00">Count: 115</text>
<text text-anchor="middle" x="103.24" y="-697.72" font-family="Times New Roman,serif" font-size="14.00">Normalized count: 0.01</text>
<text text-anchor="middle" x="103.24" y="-682.72" font-family="Times New Roman,serif" font-size="14.00">Samples weight: 0.00</text>
</g>
<!-- BB0&#45;&gt;BB1 -->
<g id="edge2" class="edge">
<title>BB0&#45;&gt;BB1</title>
<path fill="none" stroke="black" d="M177.32,-796.01C167.83,-784.99 157.57,-773.06 147.79,-761.7"/>
<polygon fill="black" stroke="black" points="150.29,-759.24 141.12,-753.94 144.99,-763.8 150.29,-759.24"/>
</g>
<!-- BB2 -->
<g id="node3" class="node">
<title>BB2</title>
<ellipse fill="none" stroke="black" cx="327.24" cy="-708.92" rx="103.48" ry="48.17"/>
<text text-anchor="middle" x="327.24" y="-727.72" font-family="Times New Roman,serif" font-size="14.00">[a..12)</text>
<text text-anchor="middle" x="327.24" y="-712.72" font-family="Times New Roman,serif" font-size="14.00">Count: 19184</text>
<text text-anchor="middle" x="327.24" y="-697.72" font-family="Times New Roman,serif" font-size="14.00">Normalized count: 0.99</text>
<text text-anchor="middle" x="327.24" y="-682.72" font-family="Times New Roman,serif" font-size="14.00">Samples weight: 0.15</text>
</g>
<!-- BB0&#45;&gt;BB2 -->
<g id="edge1" class="edge">
<title>BB0&#45;&gt;BB2</title>
<path fill="none" stroke="black" d="M253.16,-796.01C262.64,-784.99 272.91,-773.06 282.68,-761.7"/>
<polygon fill="black" stroke="black" points="285.49,-763.8 289.36,-753.94 280.18,-759.24 285.49,-763.8"/>
</g>
<!-- BB3 -->
<g id="node4" class="node">
<title>BB3</title>
<ellipse fill="none" stroke="black" cx="215.24" cy="-576.75" rx="103.48" ry="48.17"/>
<text text-anchor="middle" x="215.24" y="-595.55" font-family="Times New Roman,serif" font-size="14.00">[12..14)</text>
<text text-anchor="middle" x="215.24" y="-580.55" font-family="Times New Roman,serif" font-size="14.00">Count: 473</text>
<text text-anchor="middle" x="215.24" y="-565.55" font-family="Times New Roman,serif" font-size="14.00">Normalized count: 0.02</text>
<text text-anchor="middle" x="215.24" y="-550.55" font-family="Times New Roman,serif" font-size="14.00">Samples weight: 0.00</text>
</g>
<!-- BB2&#45;&gt;BB3 -->
<g id="edge4" class="edge">
<title>BB2&#45;&gt;BB3</title>
<path fill="none" stroke="black" d="M289.32,-663.85C279.83,-652.82 269.57,-640.89 259.79,-629.53"/>
<polygon fill="black" stroke="black" points="262.29,-627.07 253.12,-621.77 256.99,-631.64 262.29,-627.07"/>
</g>
<!-- BB4 -->
<g id="node5" class="node">
<title>BB4</title>
<ellipse fill="none" stroke="black" cx="439.24" cy="-576.75" rx="103.48" ry="48.17"/>
<text text-anchor="middle" x="439.24" y="-595.55" font-family="Times New Roman,serif" font-size="14.00">[14..1c)</text>
<text text-anchor="middle" x="439.24" y="-580.55" font-family="Times New Roman,serif" font-size="14.00">Count: 18711</text>
<text text-anchor="middle" x="439.24" y="-565.55" font-family="Times New Roman,serif" font-size="14.00">Normalized count: 0.97</text>
<text text-anchor="middle" x="439.24" y="-550.55" font-family="Times New Roman,serif" font-size="14.00">Samples weight: 0.14</text>
</g>
<!-- BB2&#45;&gt;BB4 -->
<g id="edge3" class="edge">
<title>BB2&#45;&gt;BB4</title>
<path fill="none" stroke="black" d="M365.16,-663.85C374.64,-652.82 384.91,-640.89 394.68,-629.53"/>
<polygon fill="black" stroke="black" points="397.49,-631.64 401.36,-621.77 392.18,-627.07 397.49,-631.64"/>
</g>
<!-- BB10 -->
<g id="node11" class="node">
<title>BB10</title>
<ellipse fill="none" stroke="black" cx="439.24" cy="-444.58" rx="103.48" ry="48.17"/>
<text text-anchor="middle" x="439.24" y="-463.38" font-family="Times New Roman,serif" font-size="14.00">[34..38)</text>
<text text-anchor="middle" x="439.24" y="-448.38" font-family="Times New Roman,serif" font-size="14.00">Count: 19247</text>
<text text-anchor="middle" x="439.24" y="-433.38" font-family="Times New Roman,serif" font-size="14.00">Normalized count: 1.00</text>
<text text-anchor="middle" x="439.24" y="-418.38" font-family="Times New Roman,serif" font-size="14.00">Samples weight: 0.15</text>
</g>
<!-- BB4&#45;&gt;BB10 -->
<g id="edge5" class="edge">
<title>BB4&#45;&gt;BB10</title>
<path fill="none" stroke="black" d="M439.24,-528.39C439.24,-520.12 439.24,-511.44 439.24,-502.93"/>
<polygon fill="black" stroke="black" points="442.74,-502.69 439.24,-492.69 435.74,-502.69 442.74,-502.69"/>
</g>
<!-- BB5 -->
<g id="node6" class="node">
<title>BB5</title>
<ellipse fill="none" stroke="black" cx="439.24" cy="-312.42" rx="103.48" ry="48.17"/>
<text text-anchor="middle" x="439.24" y="-331.22" font-family="Times New Roman,serif" font-size="14.00">[1c..24)</text>
<text text-anchor="middle" x="439.24" y="-316.22" font-family="Times New Roman,serif" font-size="14.00">Count: 19247</text>
<text text-anchor="middle" x="439.24" y="-301.22" font-family="Times New Roman,serif" font-size="14.00">Normalized count: 1.00</text>
<text text-anchor="middle" x="439.24" y="-286.22" font-family="Times New Roman,serif" font-size="14.00">Samples weight: 0.15</text>
</g>
<!-- BB6 -->
<g id="node7" class="node">
<title>BB6</title>
<ellipse fill="none" stroke="black" cx="439.24" cy="-180.25" rx="103.48" ry="48.17"/>
<text text-anchor="middle" x="439.24" y="-199.05" font-family="Times New Roman,serif" font-size="14.00">[24..26)</text>
<text text-anchor="middle" x="439.24" y="-184.05" font-family="Times New Roman,serif" font-size="14.00">Count: 5008</text>
<text text-anchor="middle" x="439.24" y="-169.05" font-family="Times New Roman,serif" font-size="14.00">Normalized count: 0.26</text>
<text text-anchor="middle" x="439.24" y="-154.05" font-family="Times New Roman,serif" font-size="14.00">Samples weight: 0.04</text>
</g>
<!-- BB5&#45;&gt;BB6 -->
<g id="edge7" class="edge">
<title>BB5&#45;&gt;BB6</title>
<path fill="none" stroke="black" d="M439.24,-264.05C439.24,-255.79 439.24,-247.1 439.24,-238.6"/>
<polygon fill="black" stroke="black" points="442.74,-238.36 439.24,-228.36 435.74,-238.36 442.74,-238.36"/>
</g>
<!-- BB7 -->
<g id="node8" class="node">
<title>BB7</title>
<ellipse fill="none" stroke="black" cx="663.24" cy="-180.25" rx="103.48" ry="48.17"/>
<text text-anchor="middle" x="663.24" y="-199.05" font-family="Times New Roman,serif" font-size="14.00">[26..2e)</text>
<text text-anchor="middle" x="663.24" y="-184.05" font-family="Times New Roman,serif" font-size="14.00">Count: 14239</text>
<text text-anchor="middle" x="663.24" y="-169.05" font-family="Times New Roman,serif" font-size="14.00">Normalized count: 0.74</text>
<text text-anchor="middle" x="663.24" y="-154.05" font-family="Times New Roman,serif" font-size="14.00">Samples weight: 0.11</text>
</g>
<!-- BB5&#45;&gt;BB7 -->
<g id="edge6" class="edge">
<title>BB5&#45;&gt;BB7</title>
<path fill="none" stroke="black" d="M502.83,-274.46C530.26,-258.52 562.48,-239.8 590.83,-223.33"/>
<polygon fill="black" stroke="black" points="592.6,-226.35 599.49,-218.29 589.08,-220.29 592.6,-226.35"/>
</g>
<!-- BB8 -->
<g id="node9" class="node">
<title>BB8</title>
<ellipse fill="none" stroke="black" cx="663.24" cy="-48.08" rx="103.48" ry="48.17"/>
<text text-anchor="middle" x="663.24" y="-66.88" font-family="Times New Roman,serif" font-size="14.00">[2e..30)</text>
<text text-anchor="middle" x="663.24" y="-51.88" font-family="Times New Roman,serif" font-size="14.00">Count: 13703</text>
<text text-anchor="middle" x="663.24" y="-36.88" font-family="Times New Roman,serif" font-size="14.00">Normalized count: 0.71</text>
<text text-anchor="middle" x="663.24" y="-21.88" font-family="Times New Roman,serif" font-size="14.00">Samples weight: 0.11</text>
</g>
<!-- BB7&#45;&gt;BB8 -->
<g id="edge9" class="edge">
<title>BB7&#45;&gt;BB8</title>
<path fill="none" stroke="black" d="M663.24,-131.89C663.24,-123.62 663.24,-114.94 663.24,-106.43"/>
<polygon fill="black" stroke="black" points="666.74,-106.19 663.24,-96.19 659.74,-106.19 666.74,-106.19"/>
</g>
<!-- BB9 -->
<g id="node10" class="node">
<title>BB9</title>
<ellipse fill="none" stroke="black" cx="374.24" cy="-48.08" rx="103.48" ry="48.17"/>
<text text-anchor="middle" x="374.24" y="-66.88" font-family="Times New Roman,serif" font-size="14.00">[30..34)</text>
<text text-anchor="middle" x="374.24" y="-51.88" font-family="Times New Roman,serif" font-size="14.00">Count: 536</text>
<text text-anchor="middle" x="374.24" y="-36.88" font-family="Times New Roman,serif" font-size="14.00">Normalized count: 0.03</text>
<text text-anchor="middle" x="374.24" y="-21.88" font-family="Times New Roman,serif" font-size="14.00">Samples weight: 0.00</text>
</g>
<!-- BB7&#45;&gt;BB9 -->
<g id="edge8" class="edge">
<title>BB7&#45;&gt;BB9</title>
<path fill="none" stroke="black" d="M589.94,-146.24C549.36,-127.96 498.8,-105.19 456.83,-86.28"/>
<polygon fill="black" stroke="black" points="458.02,-82.98 447.46,-82.06 455.14,-89.36 458.02,-82.98"/>
</g>
<!-- BB9&#45;&gt;BB10 -->
<g id="edge10" class="edge">
<title>BB9&#45;&gt;BB10</title>
<path fill="none" stroke="black" d="M343.17,-94.28C336.61,-106.1 330.65,-119.19 327.24,-132.17 301.4,-230.3 281.62,-269.85 327.24,-360.5 335.46,-376.83 348.57,-390.76 362.98,-402.27"/>
<polygon fill="black" stroke="black" points="361.01,-405.17 371.1,-408.43 365.24,-399.6 361.01,-405.17"/>
</g>
<!-- BB10&#45;&gt;BB5 -->
<g id="edge11" class="edge">
<title>BB10&#45;&gt;BB5</title>
<path fill="none" stroke="black" d="M439.24,-396.22C439.24,-387.95 439.24,-379.27 439.24,-370.77"/>
<polygon fill="black" stroke="black" points="442.74,-370.52 439.24,-360.52 435.74,-370.52 442.74,-370.52"/>
</g>
<!-- BB11 -->
<g id="node12" class="node">
<title>BB11</title>
<ellipse fill="none" stroke="black" cx="663.24" cy="-312.42" rx="103.48" ry="48.17"/>
<text text-anchor="middle" x="663.24" y="-331.22" font-family="Times New Roman,serif" font-size="14.00">[38..3a)</text>
<text text-anchor="middle" x="663.24" y="-316.22" font-family="Times New Roman,serif" font-size="14.00">Count: 0</text>
<text text-anchor="middle" x="663.24" y="-301.22" font-family="Times New Roman,serif" font-size="14.00">Normalized count: 0.00</text>
<text text-anchor="middle" x="663.24" y="-286.22" font-family="Times New Roman,serif" font-size="14.00">Samples weight: 0.00</text>
</g>
<!-- BB10&#45;&gt;BB11 -->
<g id="edge12" class="edge">
<title>BB10&#45;&gt;BB11</title>
<path fill="none" stroke="black" d="M502.83,-406.63C530.26,-390.69 562.48,-371.97 590.83,-355.49"/>
<polygon fill="black" stroke="black" points="592.6,-358.51 599.49,-350.46 589.08,-352.46 592.6,-358.51"/>
</g>
</g>
</svg>
