<?xml version="1.0" encoding="UTF-8" standalone="no"?>
<!DOCTYPE svg PUBLIC "-//W3C//DTD SVG 1.1//EN"
 "http://www.w3.org/Graphics/SVG/1.1/DTD/svg11.dtd">
<!-- Generated by graphviz version 2.47.0 (20210316.0004)
 -->
<!-- Title: G Pages: 1 -->
<svg width="599pt" height="501pt"
 viewBox="0.00 0.00 599.37 500.67" xmlns="http://www.w3.org/2000/svg" xmlns:xlink="http://www.w3.org/1999/xlink">
<g id="graph0" class="graph" transform="scale(1 1) rotate(0) translate(4 496.67)">
<title>G</title>
<polygon fill="white" stroke="transparent" points="-4,4 -4,-496.67 595.37,-496.67 595.37,4 -4,4"/>
<!-- BB0 -->
<g id="node1" class="node">
<title>BB0</title>
<ellipse fill="none" stroke="black" cx="357.14" cy="-444.58" rx="103.48" ry="48.17"/>
<text text-anchor="middle" x="357.14" y="-463.38" font-family="Times New Roman,serif" font-size="14.00">[0..7)</text>
<text text-anchor="middle" x="357.14" y="-448.38" font-family="Times New Roman,serif" font-size="14.00">Count: 9497</text>
<text text-anchor="middle" x="357.14" y="-433.38" font-family="Times New Roman,serif" font-size="14.00">Normalized count: 1.00</text>
<text text-anchor="middle" x="357.14" y="-418.38" font-family="Times New Roman,serif" font-size="14.00">Samples weight: 0.00</text>
</g>
<!-- BB4 -->
<g id="node5" class="node">
<title>BB4</title>
<ellipse fill="none" stroke="black" cx="357.14" cy="-312.42" rx="113.27" ry="48.17"/>
<text text-anchor="middle" x="357.14" y="-331.22" font-family="Times New Roman,serif" font-size="14.00">[40..44)</text>
<text text-anchor="middle" x="357.14" y="-316.22" font-family="Times New Roman,serif" font-size="14.00">Count: 6378507</text>
<text text-anchor="middle" x="357.14" y="-301.22" font-family="Times New Roman,serif" font-size="14.00">Normalized count: 671.63</text>
<text text-anchor="middle" x="357.14" y="-286.22" font-family="Times New Roman,serif" font-size="14.00">Samples weight: 0.29</text>
</g>
<!-- BB0&#45;&gt;BB4 -->
<g id="edge1" class="edge">
<title>BB0&#45;&gt;BB4</title>
<path fill="none" stroke="black" d="M357.14,-396.22C357.14,-387.95 357.14,-379.27 357.14,-370.77"/>
<polygon fill="black" stroke="black" points="360.64,-370.52 357.14,-360.52 353.64,-370.52 360.64,-370.52"/>
</g>
<!-- BB1 -->
<g id="node2" class="node">
<title>BB1</title>
<ellipse fill="none" stroke="black" cx="216.14" cy="-180.25" rx="113.27" ry="48.17"/>
<text text-anchor="middle" x="216.14" y="-199.05" font-family="Times New Roman,serif" font-size="14.00">[7..27)</text>
<text text-anchor="middle" x="216.14" y="-184.05" font-family="Times New Roman,serif" font-size="14.00">Count: 6369010</text>
<text text-anchor="middle" x="216.14" y="-169.05" font-family="Times New Roman,serif" font-size="14.00">Normalized count: 670.63</text>
<text text-anchor="middle" x="216.14" y="-154.05" font-family="Times New Roman,serif" font-size="14.00">Samples weight: 0.29</text>
</g>
<!-- BB2 -->
<g id="node3" class="node">
<title>BB2</title>
<ellipse fill="none" stroke="black" cx="113.14" cy="-48.08" rx="113.27" ry="48.17"/>
<text text-anchor="middle" x="113.14" y="-66.88" font-family="Times New Roman,serif" font-size="14.00">[27..2c)</text>
<text text-anchor="middle" x="113.14" y="-51.88" font-family="Times New Roman,serif" font-size="14.00">Count: 3180760</text>
<text text-anchor="middle" x="113.14" y="-36.88" font-family="Times New Roman,serif" font-size="14.00">Normalized count: 334.92</text>
<text text-anchor="middle" x="113.14" y="-21.88" font-family="Times New Roman,serif" font-size="14.00">Samples weight: 0.14</text>
</g>
<!-- BB1&#45;&gt;BB2 -->
<g id="edge3" class="edge">
<title>BB1&#45;&gt;BB2</title>
<path fill="none" stroke="black" d="M180.69,-134.45C172.44,-124.02 163.57,-112.82 155.07,-102.07"/>
<polygon fill="black" stroke="black" points="157.6,-99.63 148.65,-93.96 152.11,-103.98 157.6,-99.63"/>
</g>
<!-- BB3 -->
<g id="node4" class="node">
<title>BB3</title>
<ellipse fill="none" stroke="black" cx="357.14" cy="-48.08" rx="113.27" ry="48.17"/>
<text text-anchor="middle" x="357.14" y="-66.88" font-family="Times New Roman,serif" font-size="14.00">[2c..40)</text>
<text text-anchor="middle" x="357.14" y="-51.88" font-family="Times New Roman,serif" font-size="14.00">Count: 6369010</text>
<text text-anchor="middle" x="357.14" y="-36.88" font-family="Times New Roman,serif" font-size="14.00">Normalized count: 670.63</text>
<text text-anchor="middle" x="357.14" y="-21.88" font-family="Times New Roman,serif" font-size="14.00">Samples weight: 0.29</text>
</g>
<!-- BB1&#45;&gt;BB3 -->
<g id="edge2" class="edge">
<title>BB1&#45;&gt;BB3</title>
<path fill="none" stroke="black" d="M262.7,-136.27C275.57,-124.38 289.65,-111.38 302.92,-99.13"/>
<polygon fill="black" stroke="black" points="305.65,-101.38 310.63,-92.02 300.9,-96.23 305.65,-101.38"/>
</g>
<!-- BB2&#45;&gt;BB3 -->
<g id="edge4" class="edge">
<title>BB2&#45;&gt;BB3</title>
<path fill="none" stroke="black" d="M226.56,-48.08C229,-48.08 231.44,-48.08 233.88,-48.08"/>
<polygon fill="black" stroke="black" points="233.9,-51.58 243.9,-48.08 233.9,-44.58 233.9,-51.58"/>
</g>
<!-- BB3&#45;&gt;BB4 -->
<g id="edge5" class="edge">
<title>BB3&#45;&gt;BB4</title>
<path fill="none" stroke="black" d="M357.14,-96.35C357.14,-140.62 357.14,-206.87 357.14,-254.13"/>
<polygon fill="black" stroke="black" points="353.64,-254.21 357.14,-264.21 360.64,-254.21 353.64,-254.21"/>
</g>
<!-- BB4&#45;&gt;BB1 -->
<g id="edge6" class="edge">
<title>BB4&#45;&gt;BB1</title>
<path fill="none" stroke="black" d="M310.58,-268.43C297.7,-256.55 283.62,-243.55 270.35,-231.3"/>
<polygon fill="black" stroke="black" points="272.37,-228.4 262.65,-224.19 267.62,-233.54 272.37,-228.4"/>
</g>
<!-- BB5 -->
<g id="node6" class="node">
<title>BB5</title>
<ellipse fill="none" stroke="black" cx="488.14" cy="-180.25" rx="103.48" ry="48.17"/>
<text text-anchor="middle" x="488.14" y="-199.05" font-family="Times New Roman,serif" font-size="14.00">[44..47)</text>
<text text-anchor="middle" x="488.14" y="-184.05" font-family="Times New Roman,serif" font-size="14.00">Count: 9497</text>
<text text-anchor="middle" x="488.14" y="-169.05" font-family="Times New Roman,serif" font-size="14.00">Normalized count: 1.00</text>
<text text-anchor="middle" x="488.14" y="-154.05" font-family="Times New Roman,serif" font-size="14.00">Samples weight: 0.00</text>
</g>
<!-- BB4&#45;&gt;BB5 -->
<g id="edge7" class="edge">
<title>BB4&#45;&gt;BB5</title>
<path fill="none" stroke="black" d="M401.12,-267.71C412.82,-256.09 425.54,-243.45 437.56,-231.51"/>
<polygon fill="black" stroke="black" points="440.31,-233.71 444.94,-224.18 435.37,-228.74 440.31,-233.71"/>
</g>
</g>
</svg>
