<?xml version="1.0" encoding="UTF-8" standalone="no"?>
<!DOCTYPE svg PUBLIC "-//W3C//DTD SVG 1.1//EN"
 "http://www.w3.org/Graphics/SVG/1.1/DTD/svg11.dtd">
<!-- Generated by graphviz version 2.47.0 (20210316.0004)
 -->
<!-- Title: G Pages: 1 -->
<svg width="550pt" height="368pt"
 viewBox="0.00 0.00 550.48 368.50" xmlns="http://www.w3.org/2000/svg" xmlns:xlink="http://www.w3.org/1999/xlink">
<g id="graph0" class="graph" transform="scale(1 1) rotate(0) translate(4 364.5)">
<title>G</title>
<polygon fill="white" stroke="transparent" points="-4,4 -4,-364.5 546.48,-364.5 546.48,4 -4,4"/>
<!-- BB0 -->
<g id="node1" class="node">
<title>BB0</title>
<ellipse fill="none" stroke="black" cx="215.24" cy="-312.42" rx="103.48" ry="48.17"/>
<text text-anchor="middle" x="215.24" y="-331.22" font-family="Times New Roman,serif" font-size="14.00">[0..26)</text>
<text text-anchor="middle" x="215.24" y="-316.22" font-family="Times New Roman,serif" font-size="14.00">Count: 950121</text>
<text text-anchor="middle" x="215.24" y="-301.22" font-family="Times New Roman,serif" font-size="14.00">Normalized count: 1.00</text>
<text text-anchor="middle" x="215.24" y="-286.22" font-family="Times New Roman,serif" font-size="14.00">Samples weight: 0.25</text>
</g>
<!-- BB1 -->
<g id="node2" class="node">
<title>BB1</title>
<ellipse fill="none" stroke="black" cx="103.24" cy="-180.25" rx="103.48" ry="48.17"/>
<text text-anchor="middle" x="103.24" y="-199.05" font-family="Times New Roman,serif" font-size="14.00">[26..2f)</text>
<text text-anchor="middle" x="103.24" y="-184.05" font-family="Times New Roman,serif" font-size="14.00">Count: 0</text>
<text text-anchor="middle" x="103.24" y="-169.05" font-family="Times New Roman,serif" font-size="14.00">Normalized count: 0.00</text>
<text text-anchor="middle" x="103.24" y="-154.05" font-family="Times New Roman,serif" font-size="14.00">Samples weight: 0.00</text>
</g>
<!-- BB0&#45;&gt;BB1 -->
<g id="edge2" class="edge">
<title>BB0&#45;&gt;BB1</title>
<path fill="none" stroke="black" d="M177.32,-267.35C167.83,-256.32 157.57,-244.39 147.79,-233.03"/>
<polygon fill="black" stroke="black" points="150.29,-230.57 141.12,-225.27 144.99,-235.14 150.29,-230.57"/>
</g>
<!-- BB2 -->
<g id="node3" class="node">
<title>BB2</title>
<ellipse fill="none" stroke="black" cx="327.24" cy="-180.25" rx="103.48" ry="48.17"/>
<text text-anchor="middle" x="327.24" y="-199.05" font-family="Times New Roman,serif" font-size="14.00">[2f..4d)</text>
<text text-anchor="middle" x="327.24" y="-184.05" font-family="Times New Roman,serif" font-size="14.00">Count: 954556</text>
<text text-anchor="middle" x="327.24" y="-169.05" font-family="Times New Roman,serif" font-size="14.00">Normalized count: 1.00</text>
<text text-anchor="middle" x="327.24" y="-154.05" font-family="Times New Roman,serif" font-size="14.00">Samples weight: 0.25</text>
</g>
<!-- BB0&#45;&gt;BB2 -->
<g id="edge1" class="edge">
<title>BB0&#45;&gt;BB2</title>
<path fill="none" stroke="black" d="M253.16,-267.35C262.64,-256.32 272.91,-244.39 282.68,-233.03"/>
<polygon fill="black" stroke="black" points="285.49,-235.14 289.36,-225.27 280.18,-230.57 285.49,-235.14"/>
</g>
<!-- BB1&#45;&gt;BB2 -->
<g id="edge3" class="edge">
<title>BB1&#45;&gt;BB2</title>
<path fill="none" stroke="black" d="M206.49,-180.25C208.94,-180.25 211.4,-180.25 213.85,-180.25"/>
<polygon fill="black" stroke="black" points="213.94,-183.75 223.94,-180.25 213.94,-176.75 213.94,-183.75"/>
</g>
<!-- BB3 -->
<g id="node4" class="node">
<title>BB3</title>
<ellipse fill="none" stroke="black" cx="215.24" cy="-48.08" rx="103.48" ry="48.17"/>
<text text-anchor="middle" x="215.24" y="-66.88" font-family="Times New Roman,serif" font-size="14.00">[4d..53)</text>
<text text-anchor="middle" x="215.24" y="-51.88" font-family="Times New Roman,serif" font-size="14.00">Count: 968814</text>
<text text-anchor="middle" x="215.24" y="-36.88" font-family="Times New Roman,serif" font-size="14.00">Normalized count: 1.02</text>
<text text-anchor="middle" x="215.24" y="-21.88" font-family="Times New Roman,serif" font-size="14.00">Samples weight: 0.25</text>
</g>
<!-- BB2&#45;&gt;BB3 -->
<g id="edge5" class="edge">
<title>BB2&#45;&gt;BB3</title>
<path fill="none" stroke="black" d="M289.32,-135.18C279.83,-124.16 269.57,-112.23 259.79,-100.86"/>
<polygon fill="black" stroke="black" points="262.29,-98.4 253.12,-93.11 256.99,-102.97 262.29,-98.4"/>
</g>
<!-- BB4 -->
<g id="node5" class="node">
<title>BB4</title>
<ellipse fill="none" stroke="black" cx="439.24" cy="-48.08" rx="103.48" ry="48.17"/>
<text text-anchor="middle" x="439.24" y="-66.88" font-family="Times New Roman,serif" font-size="14.00">[53..5b)</text>
<text text-anchor="middle" x="439.24" y="-51.88" font-family="Times New Roman,serif" font-size="14.00">Count: 971243</text>
<text text-anchor="middle" x="439.24" y="-36.88" font-family="Times New Roman,serif" font-size="14.00">Normalized count: 1.02</text>
<text text-anchor="middle" x="439.24" y="-21.88" font-family="Times New Roman,serif" font-size="14.00">Samples weight: 0.25</text>
</g>
<!-- BB2&#45;&gt;BB4 -->
<g id="edge4" class="edge">
<title>BB2&#45;&gt;BB4</title>
<path fill="none" stroke="black" d="M365.16,-135.18C374.64,-124.16 384.91,-112.23 394.68,-100.86"/>
<polygon fill="black" stroke="black" points="397.49,-102.97 401.36,-93.11 392.18,-98.4 397.49,-102.97"/>
</g>
<!-- BB3&#45;&gt;BB4 -->
<g id="edge6" class="edge">
<title>BB3&#45;&gt;BB4</title>
<path fill="none" stroke="black" d="M318.49,-48.08C320.94,-48.08 323.4,-48.08 325.85,-48.08"/>
<polygon fill="black" stroke="black" points="325.94,-51.58 335.94,-48.08 325.94,-44.58 325.94,-51.58"/>
</g>
</g>
</svg>
