<?xml version="1.0" encoding="UTF-8" standalone="no"?>
<!DOCTYPE svg PUBLIC "-//W3C//DTD SVG 1.1//EN"
 "http://www.w3.org/Graphics/SVG/1.1/DTD/svg11.dtd">
<!-- Generated by graphviz version 2.47.0 (20210316.0004)
 -->
<!-- Title: G Pages: 1 -->
<svg width="584pt" height="501pt"
 viewBox="0.00 0.00 584.42 500.67" xmlns="http://www.w3.org/2000/svg" xmlns:xlink="http://www.w3.org/1999/xlink">
<g id="graph0" class="graph" transform="scale(1 1) rotate(0) translate(4 496.67)">
<title>G</title>
<polygon fill="white" stroke="transparent" points="-4,4 -4,-496.67 580.42,-496.67 580.42,4 -4,4"/>
<!-- BB0 -->
<g id="node1" class="node">
<title>BB0</title>
<ellipse fill="none" stroke="black" cx="342.19" cy="-444.58" rx="103.48" ry="48.17"/>
<text text-anchor="middle" x="342.19" y="-463.38" font-family="Times New Roman,serif" font-size="14.00">[0..7)</text>
<text text-anchor="middle" x="342.19" y="-448.38" font-family="Times New Roman,serif" font-size="14.00">Count: 8</text>
<text text-anchor="middle" x="342.19" y="-433.38" font-family="Times New Roman,serif" font-size="14.00">Normalized count: 1.00</text>
<text text-anchor="middle" x="342.19" y="-418.38" font-family="Times New Roman,serif" font-size="14.00">Samples weight: 0.01</text>
</g>
<!-- BB4 -->
<g id="node5" class="node">
<title>BB4</title>
<ellipse fill="none" stroke="black" cx="342.19" cy="-312.42" rx="108.38" ry="48.17"/>
<text text-anchor="middle" x="342.19" y="-331.22" font-family="Times New Roman,serif" font-size="14.00">[40..44)</text>
<text text-anchor="middle" x="342.19" y="-316.22" font-family="Times New Roman,serif" font-size="14.00">Count: 209</text>
<text text-anchor="middle" x="342.19" y="-301.22" font-family="Times New Roman,serif" font-size="14.00">Normalized count: 26.12</text>
<text text-anchor="middle" x="342.19" y="-286.22" font-family="Times New Roman,serif" font-size="14.00">Samples weight: 0.29</text>
</g>
<!-- BB0&#45;&gt;BB4 -->
<g id="edge1" class="edge">
<title>BB0&#45;&gt;BB4</title>
<path fill="none" stroke="black" d="M342.19,-396.22C342.19,-387.95 342.19,-379.27 342.19,-370.77"/>
<polygon fill="black" stroke="black" points="345.69,-370.52 342.19,-360.52 338.69,-370.52 345.69,-370.52"/>
</g>
<!-- BB1 -->
<g id="node2" class="node">
<title>BB1</title>
<ellipse fill="none" stroke="black" cx="206.19" cy="-180.25" rx="108.38" ry="48.17"/>
<text text-anchor="middle" x="206.19" y="-199.05" font-family="Times New Roman,serif" font-size="14.00">[7..27)</text>
<text text-anchor="middle" x="206.19" y="-184.05" font-family="Times New Roman,serif" font-size="14.00">Count: 201</text>
<text text-anchor="middle" x="206.19" y="-169.05" font-family="Times New Roman,serif" font-size="14.00">Normalized count: 25.12</text>
<text text-anchor="middle" x="206.19" y="-154.05" font-family="Times New Roman,serif" font-size="14.00">Samples weight: 0.27</text>
</g>
<!-- BB2 -->
<g id="node3" class="node">
<title>BB2</title>
<ellipse fill="none" stroke="black" cx="108.19" cy="-48.08" rx="108.38" ry="48.17"/>
<text text-anchor="middle" x="108.19" y="-66.88" font-family="Times New Roman,serif" font-size="14.00">[27..2c)</text>
<text text-anchor="middle" x="108.19" y="-51.88" font-family="Times New Roman,serif" font-size="14.00">Count: 105</text>
<text text-anchor="middle" x="108.19" y="-36.88" font-family="Times New Roman,serif" font-size="14.00">Normalized count: 13.12</text>
<text text-anchor="middle" x="108.19" y="-21.88" font-family="Times New Roman,serif" font-size="14.00">Samples weight: 0.14</text>
</g>
<!-- BB1&#45;&gt;BB2 -->
<g id="edge3" class="edge">
<title>BB1&#45;&gt;BB2</title>
<path fill="none" stroke="black" d="M172.46,-134.45C164.61,-124.02 156.17,-112.82 148.08,-102.07"/>
<polygon fill="black" stroke="black" points="150.79,-99.85 141.98,-93.96 145.19,-104.06 150.79,-99.85"/>
</g>
<!-- BB3 -->
<g id="node4" class="node">
<title>BB3</title>
<ellipse fill="none" stroke="black" cx="342.19" cy="-48.08" rx="108.38" ry="48.17"/>
<text text-anchor="middle" x="342.19" y="-66.88" font-family="Times New Roman,serif" font-size="14.00">[2c..40)</text>
<text text-anchor="middle" x="342.19" y="-51.88" font-family="Times New Roman,serif" font-size="14.00">Count: 201</text>
<text text-anchor="middle" x="342.19" y="-36.88" font-family="Times New Roman,serif" font-size="14.00">Normalized count: 25.12</text>
<text text-anchor="middle" x="342.19" y="-21.88" font-family="Times New Roman,serif" font-size="14.00">Samples weight: 0.27</text>
</g>
<!-- BB1&#45;&gt;BB3 -->
<g id="edge2" class="edge">
<title>BB1&#45;&gt;BB3</title>
<path fill="none" stroke="black" d="M251.1,-136.27C263.51,-124.38 277.1,-111.38 289.9,-99.13"/>
<polygon fill="black" stroke="black" points="292.52,-101.46 297.33,-92.02 287.68,-96.41 292.52,-101.46"/>
</g>
<!-- BB2&#45;&gt;BB3 -->
<g id="edge4" class="edge">
<title>BB2&#45;&gt;BB3</title>
<path fill="none" stroke="black" d="M216.5,-48.08C218.83,-48.08 221.16,-48.08 223.48,-48.08"/>
<polygon fill="black" stroke="black" points="223.69,-51.58 233.69,-48.08 223.69,-44.58 223.69,-51.58"/>
</g>
<!-- BB3&#45;&gt;BB4 -->
<g id="edge5" class="edge">
<title>BB3&#45;&gt;BB4</title>
<path fill="none" stroke="black" d="M342.19,-96.35C342.19,-140.62 342.19,-206.87 342.19,-254.13"/>
<polygon fill="black" stroke="black" points="338.69,-254.21 342.19,-264.21 345.69,-254.21 338.69,-254.21"/>
</g>
<!-- BB4&#45;&gt;BB1 -->
<g id="edge6" class="edge">
<title>BB4&#45;&gt;BB1</title>
<path fill="none" stroke="black" d="M297.28,-268.43C284.86,-256.55 271.28,-243.55 258.48,-231.3"/>
<polygon fill="black" stroke="black" points="260.69,-228.57 251.05,-224.19 255.85,-233.63 260.69,-228.57"/>
</g>
<!-- BB5 -->
<g id="node6" class="node">
<title>BB5</title>
<ellipse fill="none" stroke="black" cx="473.19" cy="-180.25" rx="103.48" ry="48.17"/>
<text text-anchor="middle" x="473.19" y="-199.05" font-family="Times New Roman,serif" font-size="14.00">[44..47)</text>
<text text-anchor="middle" x="473.19" y="-184.05" font-family="Times New Roman,serif" font-size="14.00">Count: 8</text>
<text text-anchor="middle" x="473.19" y="-169.05" font-family="Times New Roman,serif" font-size="14.00">Normalized count: 1.00</text>
<text text-anchor="middle" x="473.19" y="-154.05" font-family="Times New Roman,serif" font-size="14.00">Samples weight: 0.01</text>
</g>
<!-- BB4&#45;&gt;BB5 -->
<g id="edge7" class="edge">
<title>BB4&#45;&gt;BB5</title>
<path fill="none" stroke="black" d="M385.81,-268.07C397.52,-256.44 410.28,-243.75 422.35,-231.76"/>
<polygon fill="black" stroke="black" points="425.13,-233.94 429.76,-224.4 420.2,-228.97 425.13,-233.94"/>
</g>
</g>
</svg>
