<?xml version="1.0" encoding="UTF-8" standalone="no"?>
<!DOCTYPE svg PUBLIC "-//W3C//DTD SVG 1.1//EN"
 "http://www.w3.org/Graphics/SVG/1.1/DTD/svg11.dtd">
<!-- Generated by graphviz version 2.47.0 (20210316.0004)
 -->
<!-- Title: G Pages: 1 -->
<svg width="1268pt" height="860pt"
 viewBox="0.00 0.00 1267.67 859.63" xmlns="http://www.w3.org/2000/svg" xmlns:xlink="http://www.w3.org/1999/xlink">
<g id="graph0" class="graph" transform="scale(1 1) rotate(0) translate(4 855.63)">
<title>G</title>
<polygon fill="white" stroke="transparent" points="-4,4 -4,-855.63 1263.67,-855.63 1263.67,4 -4,4"/>
<!-- BB0 -->
<g id="node1" class="node">
<title>BB0</title>
<ellipse fill="none" stroke="black" cx="386.31" cy="-814.15" rx="105.22" ry="37.45"/>
<text text-anchor="middle" x="386.31" y="-825.45" font-family="Times New Roman,serif" font-size="14.00">[0..9)</text>
<text text-anchor="middle" x="386.31" y="-810.45" font-family="Times New Roman,serif" font-size="14.00">Normalized Count: 1.00</text>
<text text-anchor="middle" x="386.31" y="-795.45" font-family="Times New Roman,serif" font-size="14.00">Samples weight: 0.01</text>
</g>
<!-- BB1 -->
<g id="node2" class="node">
<title>BB1</title>
<ellipse fill="none" stroke="black" cx="272.31" cy="-703.2" rx="105.22" ry="37.45"/>
<text text-anchor="middle" x="272.31" y="-714.5" font-family="Times New Roman,serif" font-size="14.00">[9..1d)</text>
<text text-anchor="middle" x="272.31" y="-699.5" font-family="Times New Roman,serif" font-size="14.00">Normalized Count: 1.00</text>
<text text-anchor="middle" x="272.31" y="-684.5" font-family="Times New Roman,serif" font-size="14.00">Samples weight: 0.01</text>
</g>
<!-- BB0&#45;&gt;BB1 -->
<g id="edge2" class="edge">
<title>BB0&#45;&gt;BB1</title>
<path fill="none" stroke="black" d="M350.24,-778.68C339.22,-768.14 326.98,-756.45 315.53,-745.51"/>
<polygon fill="black" stroke="black" points="317.79,-742.82 308.14,-738.45 312.96,-747.89 317.79,-742.82"/>
</g>
<!-- BB7 -->
<g id="node8" class="node">
<title>BB7</title>
<ellipse fill="none" stroke="black" cx="501.31" cy="-703.2" rx="105.22" ry="37.45"/>
<text text-anchor="middle" x="501.31" y="-714.5" font-family="Times New Roman,serif" font-size="14.00">[4c..55)</text>
<text text-anchor="middle" x="501.31" y="-699.5" font-family="Times New Roman,serif" font-size="14.00">Normalized Count: 1.00</text>
<text text-anchor="middle" x="501.31" y="-684.5" font-family="Times New Roman,serif" font-size="14.00">Samples weight: 0.01</text>
</g>
<!-- BB0&#45;&gt;BB7 -->
<g id="edge1" class="edge">
<title>BB0&#45;&gt;BB7</title>
<path fill="none" stroke="black" d="M422.7,-778.68C433.82,-768.14 446.16,-756.45 457.71,-745.51"/>
<polygon fill="black" stroke="black" points="460.31,-747.86 465.16,-738.45 455.49,-742.78 460.31,-747.86"/>
</g>
<!-- BB2 -->
<g id="node3" class="node">
<title>BB2</title>
<ellipse fill="none" stroke="black" cx="254.31" cy="-592.24" rx="105.22" ry="37.45"/>
<text text-anchor="middle" x="254.31" y="-603.54" font-family="Times New Roman,serif" font-size="14.00">[1d..29)</text>
<text text-anchor="middle" x="254.31" y="-588.54" font-family="Times New Roman,serif" font-size="14.00">Normalized Count: 0.71</text>
<text text-anchor="middle" x="254.31" y="-573.54" font-family="Times New Roman,serif" font-size="14.00">Samples weight: 0.01</text>
</g>
<!-- BB1&#45;&gt;BB2 -->
<g id="edge4" class="edge">
<title>BB1&#45;&gt;BB2</title>
<path fill="none" stroke="black" d="M266.26,-665.61C264.9,-657.35 263.43,-648.47 262.01,-639.85"/>
<polygon fill="black" stroke="black" points="265.45,-639.21 260.37,-629.92 258.54,-640.35 265.45,-639.21"/>
</g>
<!-- BB1&#45;&gt;BB7 -->
<g id="edge3" class="edge">
<title>BB1&#45;&gt;BB7</title>
<path fill="none" stroke="black" d="M377.86,-703.2C380.47,-703.2 383.07,-703.2 385.67,-703.2"/>
<polygon fill="black" stroke="black" points="385.71,-706.7 395.71,-703.2 385.71,-699.7 385.71,-706.7"/>
</g>
<!-- BB4 -->
<g id="node5" class="node">
<title>BB4</title>
<ellipse fill="none" stroke="black" cx="227.31" cy="-481.29" rx="110.12" ry="37.45"/>
<text text-anchor="middle" x="227.31" y="-492.59" font-family="Times New Roman,serif" font-size="14.00">[2d..31)</text>
<text text-anchor="middle" x="227.31" y="-477.59" font-family="Times New Roman,serif" font-size="14.00">Normalized Count: 33.58</text>
<text text-anchor="middle" x="227.31" y="-462.59" font-family="Times New Roman,serif" font-size="14.00">Samples weight: 0.30</text>
</g>
<!-- BB2&#45;&gt;BB4 -->
<g id="edge5" class="edge">
<title>BB2&#45;&gt;BB4</title>
<path fill="none" stroke="black" d="M245.24,-554.66C243.19,-546.4 240.99,-537.51 238.86,-528.9"/>
<polygon fill="black" stroke="black" points="242.2,-527.83 236.4,-518.96 235.4,-529.51 242.2,-527.83"/>
</g>
<!-- BB3 -->
<g id="node4" class="node">
<title>BB3</title>
<ellipse fill="none" stroke="black" cx="110.31" cy="-259.38" rx="110.12" ry="37.45"/>
<text text-anchor="middle" x="110.31" y="-270.68" font-family="Times New Roman,serif" font-size="14.00">[29..2d)</text>
<text text-anchor="middle" x="110.31" y="-255.68" font-family="Times New Roman,serif" font-size="14.00">Normalized Count: 32.87</text>
<text text-anchor="middle" x="110.31" y="-240.68" font-family="Times New Roman,serif" font-size="14.00">Samples weight: 0.30</text>
</g>
<!-- BB3&#45;&gt;BB4 -->
<g id="edge6" class="edge">
<title>BB3&#45;&gt;BB4</title>
<path fill="none" stroke="black" d="M79.66,-295.72C71.79,-306.87 64.4,-319.72 60.31,-332.86 50.4,-364.67 42.03,-379.96 60.31,-407.81 75.36,-430.76 99.42,-446.48 124.64,-457.23"/>
<polygon fill="black" stroke="black" points="123.39,-460.5 133.97,-460.97 125.99,-454 123.39,-460.5"/>
</g>
<!-- BB5 -->
<g id="node6" class="node">
<title>BB5</title>
<ellipse fill="none" stroke="black" cx="179.31" cy="-370.34" rx="110.12" ry="37.45"/>
<text text-anchor="middle" x="179.31" y="-381.64" font-family="Times New Roman,serif" font-size="14.00">[31..3e)</text>
<text text-anchor="middle" x="179.31" y="-366.64" font-family="Times New Roman,serif" font-size="14.00">Normalized Count: 33.49</text>
<text text-anchor="middle" x="179.31" y="-351.64" font-family="Times New Roman,serif" font-size="14.00">Samples weight: 0.30</text>
</g>
<!-- BB4&#45;&gt;BB5 -->
<g id="edge8" class="edge">
<title>BB4&#45;&gt;BB5</title>
<path fill="none" stroke="black" d="M211.33,-444.01C207.48,-435.28 203.32,-425.85 199.32,-416.76"/>
<polygon fill="black" stroke="black" points="202.46,-415.2 195.22,-407.46 196.05,-418.02 202.46,-415.2"/>
</g>
<!-- BB6 -->
<g id="node7" class="node">
<title>BB6</title>
<ellipse fill="none" stroke="black" cx="413.31" cy="-370.34" rx="105.22" ry="37.45"/>
<text text-anchor="middle" x="413.31" y="-381.64" font-family="Times New Roman,serif" font-size="14.00">[3e..4c)</text>
<text text-anchor="middle" x="413.31" y="-366.64" font-family="Times New Roman,serif" font-size="14.00">Normalized Count: 0.71</text>
<text text-anchor="middle" x="413.31" y="-351.64" font-family="Times New Roman,serif" font-size="14.00">Samples weight: 0.01</text>
</g>
<!-- BB4&#45;&gt;BB6 -->
<g id="edge7" class="edge">
<title>BB4&#45;&gt;BB6</title>
<path fill="none" stroke="black" d="M281.61,-448.48C303.29,-435.79 328.38,-421.09 350.81,-407.95"/>
<polygon fill="black" stroke="black" points="352.73,-410.88 359.58,-402.81 349.19,-404.84 352.73,-410.88"/>
</g>
<!-- BB5&#45;&gt;BB3 -->
<g id="edge9" class="edge">
<title>BB5&#45;&gt;BB3</title>
<path fill="none" stroke="black" d="M156.52,-333.36C150.75,-324.25 144.49,-314.35 138.49,-304.87"/>
<polygon fill="black" stroke="black" points="141.38,-302.9 133.07,-296.32 135.46,-306.64 141.38,-302.9"/>
</g>
<!-- BB5&#45;&gt;BB6 -->
<g id="edge10" class="edge">
<title>BB5&#45;&gt;BB6</title>
<path fill="none" stroke="black" d="M289.91,-370.34C292.51,-370.34 295.11,-370.34 297.71,-370.34"/>
<polygon fill="black" stroke="black" points="297.75,-373.84 307.75,-370.34 297.75,-366.84 297.75,-373.84"/>
</g>
<!-- BB6&#45;&gt;BB7 -->
<g id="edge11" class="edge">
<title>BB6&#45;&gt;BB7</title>
<path fill="none" stroke="black" d="M402.66,-407.82C389.55,-459.98 373.06,-557.56 408.31,-629.72 414.88,-643.17 425.28,-654.85 436.8,-664.67"/>
<polygon fill="black" stroke="black" points="434.92,-667.65 444.91,-671.18 439.3,-662.19 434.92,-667.65"/>
</g>
<!-- BB8 -->
<g id="node9" class="node">
<title>BB8</title>
<ellipse fill="none" stroke="black" cx="522.31" cy="-592.24" rx="105.22" ry="37.45"/>
<text text-anchor="middle" x="522.31" y="-603.54" font-family="Times New Roman,serif" font-size="14.00">[55..61)</text>
<text text-anchor="middle" x="522.31" y="-588.54" font-family="Times New Roman,serif" font-size="14.00">Normalized Count: 0.09</text>
<text text-anchor="middle" x="522.31" y="-573.54" font-family="Times New Roman,serif" font-size="14.00">Samples weight: 0.00</text>
</g>
<!-- BB7&#45;&gt;BB8 -->
<g id="edge13" class="edge">
<title>BB7&#45;&gt;BB8</title>
<path fill="none" stroke="black" d="M508.36,-665.61C509.95,-657.35 511.66,-648.47 513.33,-639.85"/>
<polygon fill="black" stroke="black" points="516.78,-640.4 515.24,-629.92 509.91,-639.07 516.78,-640.4"/>
</g>
<!-- BB9 -->
<g id="node10" class="node">
<title>BB9</title>
<ellipse fill="none" stroke="black" cx="751.31" cy="-592.24" rx="105.22" ry="37.45"/>
<text text-anchor="middle" x="751.31" y="-603.54" font-family="Times New Roman,serif" font-size="14.00">[61..6b)</text>
<text text-anchor="middle" x="751.31" y="-588.54" font-family="Times New Roman,serif" font-size="14.00">Normalized Count: 0.91</text>
<text text-anchor="middle" x="751.31" y="-573.54" font-family="Times New Roman,serif" font-size="14.00">Samples weight: 0.01</text>
</g>
<!-- BB7&#45;&gt;BB9 -->
<g id="edge12" class="edge">
<title>BB7&#45;&gt;BB9</title>
<path fill="none" stroke="black" d="M566.67,-673.71C600.4,-659.01 641.7,-641.01 676.68,-625.77"/>
<polygon fill="black" stroke="black" points="678.13,-628.95 685.9,-621.75 675.33,-622.54 678.13,-628.95"/>
</g>
<!-- BB10 -->
<g id="node11" class="node">
<title>BB10</title>
<ellipse fill="none" stroke="black" cx="696.31" cy="-481.29" rx="105.22" ry="37.45"/>
<text text-anchor="middle" x="696.31" y="-492.59" font-family="Times New Roman,serif" font-size="14.00">[6b..7b)</text>
<text text-anchor="middle" x="696.31" y="-477.59" font-family="Times New Roman,serif" font-size="14.00">Normalized Count: 0.12</text>
<text text-anchor="middle" x="696.31" y="-462.59" font-family="Times New Roman,serif" font-size="14.00">Samples weight: 0.00</text>
</g>
<!-- BB9&#45;&gt;BB10 -->
<g id="edge15" class="edge">
<title>BB9&#45;&gt;BB10</title>
<path fill="none" stroke="black" d="M733.15,-555.27C728.64,-546.34 723.76,-536.66 719.06,-527.36"/>
<polygon fill="black" stroke="black" points="722.08,-525.58 714.45,-518.23 715.83,-528.73 722.08,-525.58"/>
</g>
<!-- BB16 -->
<g id="node17" class="node">
<title>BB16</title>
<ellipse fill="none" stroke="black" cx="925.31" cy="-481.29" rx="105.22" ry="37.45"/>
<text text-anchor="middle" x="925.31" y="-492.59" font-family="Times New Roman,serif" font-size="14.00">[b9..bd)</text>
<text text-anchor="middle" x="925.31" y="-477.59" font-family="Times New Roman,serif" font-size="14.00">Normalized Count: 0.79</text>
<text text-anchor="middle" x="925.31" y="-462.59" font-family="Times New Roman,serif" font-size="14.00">Samples weight: 0.01</text>
</g>
<!-- BB9&#45;&gt;BB16 -->
<g id="edge14" class="edge">
<title>BB9&#45;&gt;BB16</title>
<path fill="none" stroke="black" d="M802.57,-559.14C822.4,-546.73 845.22,-532.44 865.76,-519.58"/>
<polygon fill="black" stroke="black" points="867.79,-522.43 874.41,-514.16 864.08,-516.5 867.79,-522.43"/>
</g>
<!-- BB11 -->
<g id="node12" class="node">
<title>BB11</title>
<ellipse fill="none" stroke="black" cx="696.31" cy="-370.34" rx="105.22" ry="37.45"/>
<text text-anchor="middle" x="696.31" y="-381.64" font-family="Times New Roman,serif" font-size="14.00">[7b..7f)</text>
<text text-anchor="middle" x="696.31" y="-366.64" font-family="Times New Roman,serif" font-size="14.00">Normalized Count: 0.12</text>
<text text-anchor="middle" x="696.31" y="-351.64" font-family="Times New Roman,serif" font-size="14.00">Samples weight: 0.00</text>
</g>
<!-- BB10&#45;&gt;BB11 -->
<g id="edge17" class="edge">
<title>BB10&#45;&gt;BB11</title>
<path fill="none" stroke="black" d="M696.31,-443.71C696.31,-435.53 696.31,-426.75 696.31,-418.23"/>
<polygon fill="black" stroke="black" points="699.81,-418.01 696.31,-408.01 692.81,-418.01 699.81,-418.01"/>
</g>
<!-- BB10&#45;&gt;BB16 -->
<g id="edge16" class="edge">
<title>BB10&#45;&gt;BB16</title>
<path fill="none" stroke="black" d="M801.86,-481.29C804.47,-481.29 807.07,-481.29 809.67,-481.29"/>
<polygon fill="black" stroke="black" points="809.71,-484.79 819.71,-481.29 809.71,-477.79 809.71,-484.79"/>
</g>
<!-- BB12 -->
<g id="node13" class="node">
<title>BB12</title>
<ellipse fill="none" stroke="black" cx="467.31" cy="-259.38" rx="105.22" ry="37.45"/>
<text text-anchor="middle" x="467.31" y="-270.68" font-family="Times New Roman,serif" font-size="14.00">[7f..8a)</text>
<text text-anchor="middle" x="467.31" y="-255.68" font-family="Times New Roman,serif" font-size="14.00">Normalized Count: 0.12</text>
<text text-anchor="middle" x="467.31" y="-240.68" font-family="Times New Roman,serif" font-size="14.00">Samples weight: 0.00</text>
</g>
<!-- BB11&#45;&gt;BB12 -->
<g id="edge19" class="edge">
<title>BB11&#45;&gt;BB12</title>
<path fill="none" stroke="black" d="M634.34,-339.85C604.81,-325.8 569.33,-308.92 538.67,-294.34"/>
<polygon fill="black" stroke="black" points="539.86,-291.03 529.33,-289.89 536.86,-297.35 539.86,-291.03"/>
</g>
<!-- BB13 -->
<g id="node14" class="node">
<title>BB13</title>
<ellipse fill="none" stroke="black" cx="696.31" cy="-259.38" rx="105.22" ry="37.45"/>
<text text-anchor="middle" x="696.31" y="-270.68" font-family="Times New Roman,serif" font-size="14.00">[8a..94)</text>
<text text-anchor="middle" x="696.31" y="-255.68" font-family="Times New Roman,serif" font-size="14.00">Normalized Count: 0.00</text>
<text text-anchor="middle" x="696.31" y="-240.68" font-family="Times New Roman,serif" font-size="14.00">Samples weight: 0.00</text>
</g>
<!-- BB11&#45;&gt;BB13 -->
<g id="edge18" class="edge">
<title>BB11&#45;&gt;BB13</title>
<path fill="none" stroke="black" d="M696.31,-332.75C696.31,-324.58 696.31,-315.8 696.31,-307.27"/>
<polygon fill="black" stroke="black" points="699.81,-307.06 696.31,-297.06 692.81,-307.06 699.81,-307.06"/>
</g>
<!-- BB14 -->
<g id="node15" class="node">
<title>BB14</title>
<ellipse fill="none" stroke="black" cx="638.31" cy="-148.43" rx="105.22" ry="37.45"/>
<text text-anchor="middle" x="638.31" y="-159.73" font-family="Times New Roman,serif" font-size="14.00">[94..ad)</text>
<text text-anchor="middle" x="638.31" y="-144.73" font-family="Times New Roman,serif" font-size="14.00">Normalized Count: 0.12</text>
<text text-anchor="middle" x="638.31" y="-129.73" font-family="Times New Roman,serif" font-size="14.00">Samples weight: 0.00</text>
</g>
<!-- BB12&#45;&gt;BB14 -->
<g id="edge20" class="edge">
<title>BB12&#45;&gt;BB14</title>
<path fill="none" stroke="black" d="M517.69,-226.28C537.08,-213.93 559.4,-199.71 579.52,-186.89"/>
<polygon fill="black" stroke="black" points="581.44,-189.81 587.99,-181.49 577.68,-183.91 581.44,-189.81"/>
</g>
<!-- BB13&#45;&gt;BB14 -->
<g id="edge21" class="edge">
<title>BB13&#45;&gt;BB14</title>
<path fill="none" stroke="black" d="M677.16,-222.41C672.36,-213.39 667.15,-203.6 662.15,-194.21"/>
<polygon fill="black" stroke="black" points="665.23,-192.55 657.44,-185.37 659.05,-195.84 665.23,-192.55"/>
</g>
<!-- BB15 -->
<g id="node16" class="node">
<title>BB15</title>
<ellipse fill="none" stroke="black" cx="638.31" cy="-37.48" rx="105.22" ry="37.45"/>
<text text-anchor="middle" x="638.31" y="-48.78" font-family="Times New Roman,serif" font-size="14.00">[ad..b9)</text>
<text text-anchor="middle" x="638.31" y="-33.78" font-family="Times New Roman,serif" font-size="14.00">Normalized Count: 0.00</text>
<text text-anchor="middle" x="638.31" y="-18.78" font-family="Times New Roman,serif" font-size="14.00">Samples weight: 0.00</text>
</g>
<!-- BB14&#45;&gt;BB15 -->
<g id="edge23" class="edge">
<title>BB14&#45;&gt;BB15</title>
<path fill="none" stroke="black" d="M638.31,-110.85C638.31,-102.67 638.31,-93.89 638.31,-85.37"/>
<polygon fill="black" stroke="black" points="641.81,-85.15 638.31,-75.15 634.81,-85.15 641.81,-85.15"/>
</g>
<!-- BB22 -->
<g id="node23" class="node">
<title>BB22</title>
<ellipse fill="none" stroke="black" cx="981.31" cy="-37.48" rx="105.22" ry="37.45"/>
<text text-anchor="middle" x="981.31" y="-48.78" font-family="Times New Roman,serif" font-size="14.00">[d8..d9)</text>
<text text-anchor="middle" x="981.31" y="-33.78" font-family="Times New Roman,serif" font-size="14.00">Normalized Count: 0.91</text>
<text text-anchor="middle" x="981.31" y="-18.78" font-family="Times New Roman,serif" font-size="14.00">Samples weight: 0.01</text>
</g>
<!-- BB14&#45;&gt;BB22 -->
<g id="edge22" class="edge">
<title>BB14&#45;&gt;BB22</title>
<path fill="none" stroke="black" d="M715.71,-122.84C768.74,-106 839.16,-83.63 894.16,-66.16"/>
<polygon fill="black" stroke="black" points="895.42,-69.43 903.89,-63.07 893.3,-62.76 895.42,-69.43"/>
</g>
<!-- BB17 -->
<g id="node18" class="node">
<title>BB17</title>
<ellipse fill="none" stroke="black" cx="925.31" cy="-370.34" rx="105.22" ry="37.45"/>
<text text-anchor="middle" x="925.31" y="-381.64" font-family="Times New Roman,serif" font-size="14.00">[bd..c0)</text>
<text text-anchor="middle" x="925.31" y="-366.64" font-family="Times New Roman,serif" font-size="14.00">Normalized Count: 0.72</text>
<text text-anchor="middle" x="925.31" y="-351.64" font-family="Times New Roman,serif" font-size="14.00">Samples weight: 0.01</text>
</g>
<!-- BB16&#45;&gt;BB17 -->
<g id="edge25" class="edge">
<title>BB16&#45;&gt;BB17</title>
<path fill="none" stroke="black" d="M925.31,-443.71C925.31,-435.53 925.31,-426.75 925.31,-418.23"/>
<polygon fill="black" stroke="black" points="928.81,-418.01 925.31,-408.01 921.81,-418.01 928.81,-418.01"/>
</g>
<!-- BB18 -->
<g id="node19" class="node">
<title>BB18</title>
<ellipse fill="none" stroke="black" cx="1154.31" cy="-370.34" rx="105.22" ry="37.45"/>
<text text-anchor="middle" x="1154.31" y="-381.64" font-family="Times New Roman,serif" font-size="14.00">[c0..c1)</text>
<text text-anchor="middle" x="1154.31" y="-366.64" font-family="Times New Roman,serif" font-size="14.00">Normalized Count: 0.07</text>
<text text-anchor="middle" x="1154.31" y="-351.64" font-family="Times New Roman,serif" font-size="14.00">Samples weight: 0.00</text>
</g>
<!-- BB16&#45;&gt;BB18 -->
<g id="edge24" class="edge">
<title>BB16&#45;&gt;BB18</title>
<path fill="none" stroke="black" d="M987.28,-450.81C1016.81,-436.76 1052.29,-419.87 1082.94,-405.29"/>
<polygon fill="black" stroke="black" points="1084.76,-408.3 1092.29,-400.84 1081.75,-401.98 1084.76,-408.3"/>
</g>
<!-- BB19 -->
<g id="node20" class="node">
<title>BB19</title>
<ellipse fill="none" stroke="black" cx="982.31" cy="-259.38" rx="105.22" ry="37.45"/>
<text text-anchor="middle" x="982.31" y="-270.68" font-family="Times New Roman,serif" font-size="14.00">[c1..cb)</text>
<text text-anchor="middle" x="982.31" y="-255.68" font-family="Times New Roman,serif" font-size="14.00">Normalized Count: 0.79</text>
<text text-anchor="middle" x="982.31" y="-240.68" font-family="Times New Roman,serif" font-size="14.00">Samples weight: 0.01</text>
</g>
<!-- BB17&#45;&gt;BB19 -->
<g id="edge26" class="edge">
<title>BB17&#45;&gt;BB19</title>
<path fill="none" stroke="black" d="M944.13,-333.36C948.8,-324.43 953.86,-314.76 958.73,-305.46"/>
<polygon fill="black" stroke="black" points="961.97,-306.81 963.51,-296.32 955.77,-303.56 961.97,-306.81"/>
</g>
<!-- BB18&#45;&gt;BB19 -->
<g id="edge27" class="edge">
<title>BB18&#45;&gt;BB19</title>
<path fill="none" stroke="black" d="M1103.63,-337.24C1084.12,-324.88 1061.68,-310.66 1041.44,-297.84"/>
<polygon fill="black" stroke="black" points="1043.24,-294.84 1032.92,-292.44 1039.49,-300.75 1043.24,-294.84"/>
</g>
<!-- BB20 -->
<g id="node21" class="node">
<title>BB20</title>
<ellipse fill="none" stroke="black" cx="867.31" cy="-148.43" rx="105.22" ry="37.45"/>
<text text-anchor="middle" x="867.31" y="-159.73" font-family="Times New Roman,serif" font-size="14.00">[cb..d3)</text>
<text text-anchor="middle" x="867.31" y="-144.73" font-family="Times New Roman,serif" font-size="14.00">Normalized Count: 0.61</text>
<text text-anchor="middle" x="867.31" y="-129.73" font-family="Times New Roman,serif" font-size="14.00">Samples weight: 0.01</text>
</g>
<!-- BB19&#45;&gt;BB20 -->
<g id="edge29" class="edge">
<title>BB19&#45;&gt;BB20</title>
<path fill="none" stroke="black" d="M945.92,-223.91C934.8,-213.37 922.46,-201.68 910.91,-190.74"/>
<polygon fill="black" stroke="black" points="913.13,-188.02 903.46,-183.68 908.31,-193.1 913.13,-188.02"/>
</g>
<!-- BB21 -->
<g id="node22" class="node">
<title>BB21</title>
<ellipse fill="none" stroke="black" cx="1096.31" cy="-148.43" rx="105.22" ry="37.45"/>
<text text-anchor="middle" x="1096.31" y="-159.73" font-family="Times New Roman,serif" font-size="14.00">[d3..d8)</text>
<text text-anchor="middle" x="1096.31" y="-144.73" font-family="Times New Roman,serif" font-size="14.00">Normalized Count: 0.79</text>
<text text-anchor="middle" x="1096.31" y="-129.73" font-family="Times New Roman,serif" font-size="14.00">Samples weight: 0.01</text>
</g>
<!-- BB19&#45;&gt;BB21 -->
<g id="edge28" class="edge">
<title>BB19&#45;&gt;BB21</title>
<path fill="none" stroke="black" d="M1018.38,-223.91C1029.4,-213.37 1041.64,-201.68 1053.09,-190.74"/>
<polygon fill="black" stroke="black" points="1055.66,-193.12 1060.47,-183.68 1050.83,-188.06 1055.66,-193.12"/>
</g>
<!-- BB20&#45;&gt;BB21 -->
<g id="edge30" class="edge">
<title>BB20&#45;&gt;BB21</title>
<path fill="none" stroke="black" d="M972.86,-148.43C975.47,-148.43 978.07,-148.43 980.67,-148.43"/>
<polygon fill="black" stroke="black" points="980.71,-151.93 990.71,-148.43 980.71,-144.93 980.71,-151.93"/>
</g>
<!-- BB21&#45;&gt;BB22 -->
<g id="edge31" class="edge">
<title>BB21&#45;&gt;BB22</title>
<path fill="none" stroke="black" d="M1059.92,-112.96C1048.8,-102.42 1036.46,-90.73 1024.91,-79.79"/>
<polygon fill="black" stroke="black" points="1027.13,-77.06 1017.46,-72.73 1022.31,-82.14 1027.13,-77.06"/>
</g>
</g>
</svg>
