<?xml version="1.0" encoding="UTF-8" standalone="no"?>
<!DOCTYPE svg PUBLIC "-//W3C//DTD SVG 1.1//EN"
 "http://www.w3.org/Graphics/SVG/1.1/DTD/svg11.dtd">
<!-- Generated by graphviz version 2.47.0 (20210316.0004)
 -->
<!-- Title: G Pages: 1 -->
<svg width="672pt" height="633pt"
 viewBox="0.00 0.00 672.42 632.83" xmlns="http://www.w3.org/2000/svg" xmlns:xlink="http://www.w3.org/1999/xlink">
<g id="graph0" class="graph" transform="scale(1 1) rotate(0) translate(4 628.83)">
<title>G</title>
<polygon fill="white" stroke="transparent" points="-4,4 -4,-628.83 668.42,-628.83 668.42,4 -4,4"/>
<!-- BB0 -->
<g id="node1" class="node">
<title>BB0</title>
<ellipse fill="none" stroke="black" cx="108.19" cy="-576.75" rx="103.48" ry="48.17"/>
<text text-anchor="middle" x="108.19" y="-595.55" font-family="Times New Roman,serif" font-size="14.00">[0..7)</text>
<text text-anchor="middle" x="108.19" y="-580.55" font-family="Times New Roman,serif" font-size="14.00">Count: 2</text>
<text text-anchor="middle" x="108.19" y="-565.55" font-family="Times New Roman,serif" font-size="14.00">Normalized count: 1.00</text>
<text text-anchor="middle" x="108.19" y="-550.55" font-family="Times New Roman,serif" font-size="14.00">Samples weight: 0.01</text>
</g>
<!-- BB2 -->
<g id="node3" class="node">
<title>BB2</title>
<ellipse fill="none" stroke="black" cx="108.19" cy="-444.58" rx="108.38" ry="48.17"/>
<text text-anchor="middle" x="108.19" y="-463.38" font-family="Times New Roman,serif" font-size="14.00">[2e..32)</text>
<text text-anchor="middle" x="108.19" y="-448.38" font-family="Times New Roman,serif" font-size="14.00">Count: 114</text>
<text text-anchor="middle" x="108.19" y="-433.38" font-family="Times New Roman,serif" font-size="14.00">Normalized count: 57.00</text>
<text text-anchor="middle" x="108.19" y="-418.38" font-family="Times New Roman,serif" font-size="14.00">Samples weight: 0.49</text>
</g>
<!-- BB0&#45;&gt;BB2 -->
<g id="edge1" class="edge">
<title>BB0&#45;&gt;BB2</title>
<path fill="none" stroke="black" d="M108.19,-528.39C108.19,-520.12 108.19,-511.44 108.19,-502.93"/>
<polygon fill="black" stroke="black" points="111.69,-502.69 108.19,-492.69 104.69,-502.69 111.69,-502.69"/>
</g>
<!-- BB1 -->
<g id="node2" class="node">
<title>BB1</title>
<ellipse fill="none" stroke="black" cx="108.19" cy="-312.42" rx="108.38" ry="48.17"/>
<text text-anchor="middle" x="108.19" y="-331.22" font-family="Times New Roman,serif" font-size="14.00">[7..2e)</text>
<text text-anchor="middle" x="108.19" y="-316.22" font-family="Times New Roman,serif" font-size="14.00">Count: 112</text>
<text text-anchor="middle" x="108.19" y="-301.22" font-family="Times New Roman,serif" font-size="14.00">Normalized count: 56.00</text>
<text text-anchor="middle" x="108.19" y="-286.22" font-family="Times New Roman,serif" font-size="14.00">Samples weight: 0.48</text>
</g>
<!-- BB1&#45;&gt;BB2 -->
<g id="edge2" class="edge">
<title>BB1&#45;&gt;BB2</title>
<path fill="none" stroke="black" d="M114.7,-360.52C114.92,-368.78 114.99,-377.46 114.9,-385.97"/>
<polygon fill="black" stroke="black" points="111.39,-386.16 114.71,-396.22 118.39,-386.29 111.39,-386.16"/>
</g>
<!-- BB2&#45;&gt;BB1 -->
<g id="edge3" class="edge">
<title>BB2&#45;&gt;BB1</title>
<path fill="none" stroke="black" d="M101.66,-396.22C101.45,-387.95 101.39,-379.27 101.48,-370.77"/>
<polygon fill="black" stroke="black" points="104.98,-370.59 101.67,-360.52 97.98,-370.46 104.98,-370.59"/>
</g>
<!-- BB3 -->
<g id="node4" class="node">
<title>BB3</title>
<ellipse fill="none" stroke="black" cx="337.19" cy="-312.42" rx="103.48" ry="48.17"/>
<text text-anchor="middle" x="337.19" y="-331.22" font-family="Times New Roman,serif" font-size="14.00">[32..34)</text>
<text text-anchor="middle" x="337.19" y="-316.22" font-family="Times New Roman,serif" font-size="14.00">Count: 2</text>
<text text-anchor="middle" x="337.19" y="-301.22" font-family="Times New Roman,serif" font-size="14.00">Normalized count: 1.00</text>
<text text-anchor="middle" x="337.19" y="-286.22" font-family="Times New Roman,serif" font-size="14.00">Samples weight: 0.01</text>
</g>
<!-- BB2&#45;&gt;BB3 -->
<g id="edge4" class="edge">
<title>BB2&#45;&gt;BB3</title>
<path fill="none" stroke="black" d="M173.81,-406.28C201.96,-390.28 234.96,-371.53 263.9,-355.07"/>
<polygon fill="black" stroke="black" points="265.78,-358.03 272.74,-350.05 262.32,-351.95 265.78,-358.03"/>
</g>
<!-- BB5 -->
<g id="node6" class="node">
<title>BB5</title>
<ellipse fill="none" stroke="black" cx="337.19" cy="-180.25" rx="103.48" ry="48.17"/>
<text text-anchor="middle" x="337.19" y="-199.05" font-family="Times New Roman,serif" font-size="14.00">[52..56)</text>
<text text-anchor="middle" x="337.19" y="-184.05" font-family="Times New Roman,serif" font-size="14.00">Count: 2</text>
<text text-anchor="middle" x="337.19" y="-169.05" font-family="Times New Roman,serif" font-size="14.00">Normalized count: 1.00</text>
<text text-anchor="middle" x="337.19" y="-154.05" font-family="Times New Roman,serif" font-size="14.00">Samples weight: 0.01</text>
</g>
<!-- BB3&#45;&gt;BB5 -->
<g id="edge5" class="edge">
<title>BB3&#45;&gt;BB5</title>
<path fill="none" stroke="black" d="M337.19,-264.05C337.19,-255.79 337.19,-247.1 337.19,-238.6"/>
<polygon fill="black" stroke="black" points="340.69,-238.36 337.19,-228.36 333.69,-238.36 340.69,-238.36"/>
</g>
<!-- BB4 -->
<g id="node5" class="node">
<title>BB4</title>
<ellipse fill="none" stroke="black" cx="337.19" cy="-48.08" rx="103.48" ry="48.17"/>
<text text-anchor="middle" x="337.19" y="-66.88" font-family="Times New Roman,serif" font-size="14.00">[34..52)</text>
<text text-anchor="middle" x="337.19" y="-51.88" font-family="Times New Roman,serif" font-size="14.00">Count: 0</text>
<text text-anchor="middle" x="337.19" y="-36.88" font-family="Times New Roman,serif" font-size="14.00">Normalized count: 0.00</text>
<text text-anchor="middle" x="337.19" y="-21.88" font-family="Times New Roman,serif" font-size="14.00">Samples weight: 0.00</text>
</g>
<!-- BB4&#45;&gt;BB5 -->
<g id="edge6" class="edge">
<title>BB4&#45;&gt;BB5</title>
<path fill="none" stroke="black" d="M343.71,-96.44C343.93,-104.74 343.99,-113.45 343.89,-121.98"/>
<polygon fill="black" stroke="black" points="340.39,-122.19 343.7,-132.26 347.39,-122.32 340.39,-122.19"/>
</g>
<!-- BB5&#45;&gt;BB4 -->
<g id="edge7" class="edge">
<title>BB5&#45;&gt;BB4</title>
<path fill="none" stroke="black" d="M330.67,-132.26C330.45,-123.88 330.38,-115.07 330.48,-106.45"/>
<polygon fill="black" stroke="black" points="333.98,-106.51 330.66,-96.44 326.98,-106.38 333.98,-106.51"/>
</g>
<!-- BB6 -->
<g id="node7" class="node">
<title>BB6</title>
<ellipse fill="none" stroke="black" cx="561.19" cy="-48.08" rx="103.48" ry="48.17"/>
<text text-anchor="middle" x="561.19" y="-66.88" font-family="Times New Roman,serif" font-size="14.00">[56..57)</text>
<text text-anchor="middle" x="561.19" y="-51.88" font-family="Times New Roman,serif" font-size="14.00">Count: 2</text>
<text text-anchor="middle" x="561.19" y="-36.88" font-family="Times New Roman,serif" font-size="14.00">Normalized count: 1.00</text>
<text text-anchor="middle" x="561.19" y="-21.88" font-family="Times New Roman,serif" font-size="14.00">Samples weight: 0.01</text>
</g>
<!-- BB5&#45;&gt;BB6 -->
<g id="edge8" class="edge">
<title>BB5&#45;&gt;BB6</title>
<path fill="none" stroke="black" d="M400.78,-142.3C428.21,-126.36 460.43,-107.63 488.78,-91.16"/>
<polygon fill="black" stroke="black" points="490.55,-94.18 497.44,-86.13 487.03,-88.13 490.55,-94.18"/>
</g>
</g>
</svg>
