<?xml version="1.0" encoding="UTF-8" standalone="no"?>
<!DOCTYPE svg PUBLIC "-//W3C//DTD SVG 1.1//EN"
 "http://www.w3.org/Graphics/SVG/1.1/DTD/svg11.dtd">
<!-- Generated by graphviz version 2.47.0 (20210316.0004)
 -->
<!-- Title: G Pages: 1 -->
<svg width="1934pt" height="1029pt"
 viewBox="0.00 0.00 1934.48 1029.33" xmlns="http://www.w3.org/2000/svg" xmlns:xlink="http://www.w3.org/1999/xlink">
<g id="graph0" class="graph" transform="scale(1 1) rotate(0) translate(4 1025.33)">
<title>G</title>
<polygon fill="white" stroke="transparent" points="-4,4 -4,-1025.33 1930.48,-1025.33 1930.48,4 -4,4"/>
<!-- BB0 -->
<g id="node1" class="node">
<title>BB0</title>
<ellipse fill="none" stroke="black" cx="627.24" cy="-973.25" rx="103.48" ry="48.17"/>
<text text-anchor="middle" x="627.24" y="-992.05" font-family="Times New Roman,serif" font-size="14.00">[0..11)</text>
<text text-anchor="middle" x="627.24" y="-977.05" font-family="Times New Roman,serif" font-size="14.00">Count: 12</text>
<text text-anchor="middle" x="627.24" y="-962.05" font-family="Times New Roman,serif" font-size="14.00">Normalized count: 1.00</text>
<text text-anchor="middle" x="627.24" y="-947.05" font-family="Times New Roman,serif" font-size="14.00">Samples weight: 0.08</text>
</g>
<!-- BB1 -->
<g id="node2" class="node">
<title>BB1</title>
<ellipse fill="none" stroke="black" cx="739.24" cy="-841.08" rx="103.48" ry="48.17"/>
<text text-anchor="middle" x="739.24" y="-859.88" font-family="Times New Roman,serif" font-size="14.00">[11..2e)</text>
<text text-anchor="middle" x="739.24" y="-844.88" font-family="Times New Roman,serif" font-size="14.00">Count: 10</text>
<text text-anchor="middle" x="739.24" y="-829.88" font-family="Times New Roman,serif" font-size="14.00">Normalized count: 0.83</text>
<text text-anchor="middle" x="739.24" y="-814.88" font-family="Times New Roman,serif" font-size="14.00">Samples weight: 0.07</text>
</g>
<!-- BB0&#45;&gt;BB1 -->
<g id="edge2" class="edge">
<title>BB0&#45;&gt;BB1</title>
<path fill="none" stroke="black" d="M665.16,-928.18C674.64,-917.15 684.91,-905.23 694.68,-893.86"/>
<polygon fill="black" stroke="black" points="697.49,-895.97 701.36,-886.11 692.18,-891.4 697.49,-895.97"/>
</g>
<!-- BB5 -->
<g id="node6" class="node">
<title>BB5</title>
<ellipse fill="none" stroke="black" cx="515.24" cy="-841.08" rx="103.48" ry="48.17"/>
<text text-anchor="middle" x="515.24" y="-859.88" font-family="Times New Roman,serif" font-size="14.00">[56..60)</text>
<text text-anchor="middle" x="515.24" y="-844.88" font-family="Times New Roman,serif" font-size="14.00">Count: 2</text>
<text text-anchor="middle" x="515.24" y="-829.88" font-family="Times New Roman,serif" font-size="14.00">Normalized count: 0.17</text>
<text text-anchor="middle" x="515.24" y="-814.88" font-family="Times New Roman,serif" font-size="14.00">Samples weight: 0.01</text>
</g>
<!-- BB0&#45;&gt;BB5 -->
<g id="edge1" class="edge">
<title>BB0&#45;&gt;BB5</title>
<path fill="none" stroke="black" d="M589.32,-928.18C579.83,-917.15 569.57,-905.23 559.79,-893.86"/>
<polygon fill="black" stroke="black" points="562.29,-891.4 553.12,-886.11 556.99,-895.97 562.29,-891.4"/>
</g>
<!-- BB2 -->
<g id="node3" class="node">
<title>BB2</title>
<ellipse fill="none" stroke="black" cx="1075.24" cy="-708.92" rx="103.48" ry="48.17"/>
<text text-anchor="middle" x="1075.24" y="-727.72" font-family="Times New Roman,serif" font-size="14.00">[2e..43)</text>
<text text-anchor="middle" x="1075.24" y="-712.72" font-family="Times New Roman,serif" font-size="14.00">Count: 9</text>
<text text-anchor="middle" x="1075.24" y="-697.72" font-family="Times New Roman,serif" font-size="14.00">Normalized count: 0.75</text>
<text text-anchor="middle" x="1075.24" y="-682.72" font-family="Times New Roman,serif" font-size="14.00">Samples weight: 0.06</text>
</g>
<!-- BB1&#45;&gt;BB2 -->
<g id="edge4" class="edge">
<title>BB1&#45;&gt;BB2</title>
<path fill="none" stroke="black" d="M817.59,-809.73C868.45,-790.03 934.8,-764.32 987.43,-743.93"/>
<polygon fill="black" stroke="black" points="988.7,-747.19 996.76,-740.32 986.17,-740.67 988.7,-747.19"/>
</g>
<!-- BB12 -->
<g id="node13" class="node">
<title>BB12</title>
<ellipse fill="none" stroke="black" cx="627.24" cy="-708.92" rx="103.48" ry="48.17"/>
<text text-anchor="middle" x="627.24" y="-727.72" font-family="Times New Roman,serif" font-size="14.00">[f9..113)</text>
<text text-anchor="middle" x="627.24" y="-712.72" font-family="Times New Roman,serif" font-size="14.00">Count: 12</text>
<text text-anchor="middle" x="627.24" y="-697.72" font-family="Times New Roman,serif" font-size="14.00">Normalized count: 1.00</text>
<text text-anchor="middle" x="627.24" y="-682.72" font-family="Times New Roman,serif" font-size="14.00">Samples weight: 0.08</text>
</g>
<!-- BB1&#45;&gt;BB12 -->
<g id="edge3" class="edge">
<title>BB1&#45;&gt;BB12</title>
<path fill="none" stroke="black" d="M701.32,-796.01C691.83,-784.99 681.57,-773.06 671.79,-761.7"/>
<polygon fill="black" stroke="black" points="674.29,-759.24 665.12,-753.94 668.99,-763.8 674.29,-759.24"/>
</g>
<!-- BB3 -->
<g id="node4" class="node">
<title>BB3</title>
<ellipse fill="none" stroke="black" cx="1299.24" cy="-576.75" rx="103.48" ry="48.17"/>
<text text-anchor="middle" x="1299.24" y="-595.55" font-family="Times New Roman,serif" font-size="14.00">[43..48)</text>
<text text-anchor="middle" x="1299.24" y="-580.55" font-family="Times New Roman,serif" font-size="14.00">Count: 0</text>
<text text-anchor="middle" x="1299.24" y="-565.55" font-family="Times New Roman,serif" font-size="14.00">Normalized count: 0.00</text>
<text text-anchor="middle" x="1299.24" y="-550.55" font-family="Times New Roman,serif" font-size="14.00">Samples weight: 0.00</text>
</g>
<!-- BB2&#45;&gt;BB3 -->
<g id="edge6" class="edge">
<title>BB2&#45;&gt;BB3</title>
<path fill="none" stroke="black" d="M1138.83,-670.96C1166.26,-655.02 1198.48,-636.3 1226.83,-619.83"/>
<polygon fill="black" stroke="black" points="1228.6,-622.84 1235.49,-614.79 1225.08,-616.79 1228.6,-622.84"/>
</g>
<!-- BB4 -->
<g id="node5" class="node">
<title>BB4</title>
<ellipse fill="none" stroke="black" cx="1075.24" cy="-576.75" rx="103.48" ry="48.17"/>
<text text-anchor="middle" x="1075.24" y="-595.55" font-family="Times New Roman,serif" font-size="14.00">[48..56)</text>
<text text-anchor="middle" x="1075.24" y="-580.55" font-family="Times New Roman,serif" font-size="14.00">Count: 9</text>
<text text-anchor="middle" x="1075.24" y="-565.55" font-family="Times New Roman,serif" font-size="14.00">Normalized count: 0.75</text>
<text text-anchor="middle" x="1075.24" y="-550.55" font-family="Times New Roman,serif" font-size="14.00">Samples weight: 0.06</text>
</g>
<!-- BB2&#45;&gt;BB4 -->
<g id="edge5" class="edge">
<title>BB2&#45;&gt;BB4</title>
<path fill="none" stroke="black" d="M1075.24,-660.55C1075.24,-652.29 1075.24,-643.6 1075.24,-635.1"/>
<polygon fill="black" stroke="black" points="1078.74,-634.86 1075.24,-624.86 1071.74,-634.86 1078.74,-634.86"/>
</g>
<!-- BB24 -->
<g id="node25" class="node">
<title>BB24</title>
<ellipse fill="none" stroke="black" cx="927.24" cy="-444.58" rx="103.48" ry="48.17"/>
<text text-anchor="middle" x="927.24" y="-463.38" font-family="Times New Roman,serif" font-size="14.00">[1a6..1b7)</text>
<text text-anchor="middle" x="927.24" y="-448.38" font-family="Times New Roman,serif" font-size="14.00">Count: 0</text>
<text text-anchor="middle" x="927.24" y="-433.38" font-family="Times New Roman,serif" font-size="14.00">Normalized count: 0.00</text>
<text text-anchor="middle" x="927.24" y="-418.38" font-family="Times New Roman,serif" font-size="14.00">Samples weight: 0.00</text>
</g>
<!-- BB3&#45;&gt;BB24 -->
<g id="edge7" class="edge">
<title>BB3&#45;&gt;BB24</title>
<path fill="none" stroke="black" d="M1225.77,-542.91C1213.05,-537.79 1199.86,-532.82 1187.24,-528.67 1122.94,-507.48 1103.53,-513.85 1039.24,-492.67 1029.67,-489.51 1019.78,-485.9 1010.02,-482.11"/>
<polygon fill="black" stroke="black" points="1011.29,-478.85 1000.71,-478.42 1008.72,-485.36 1011.29,-478.85"/>
</g>
<!-- BB4&#45;&gt;BB12 -->
<g id="edge8" class="edge">
<title>BB4&#45;&gt;BB12</title>
<path fill="none" stroke="black" d="M1001.75,-610.55C989.04,-615.67 975.85,-620.65 963.24,-624.83 886.74,-650.2 798.18,-671.79 731.19,-686.6"/>
<polygon fill="black" stroke="black" points="730.06,-683.26 721.05,-688.83 731.56,-690.1 730.06,-683.26"/>
</g>
<!-- BB6 -->
<g id="node7" class="node">
<title>BB6</title>
<ellipse fill="none" stroke="black" cx="403.24" cy="-708.92" rx="103.48" ry="48.17"/>
<text text-anchor="middle" x="403.24" y="-727.72" font-family="Times New Roman,serif" font-size="14.00">[60..72)</text>
<text text-anchor="middle" x="403.24" y="-712.72" font-family="Times New Roman,serif" font-size="14.00">Count: 0</text>
<text text-anchor="middle" x="403.24" y="-697.72" font-family="Times New Roman,serif" font-size="14.00">Normalized count: 0.00</text>
<text text-anchor="middle" x="403.24" y="-682.72" font-family="Times New Roman,serif" font-size="14.00">Samples weight: 0.00</text>
</g>
<!-- BB5&#45;&gt;BB6 -->
<g id="edge10" class="edge">
<title>BB5&#45;&gt;BB6</title>
<path fill="none" stroke="black" d="M477.32,-796.01C467.83,-784.99 457.57,-773.06 447.79,-761.7"/>
<polygon fill="black" stroke="black" points="450.29,-759.24 441.12,-753.94 444.99,-763.8 450.29,-759.24"/>
</g>
<!-- BB5&#45;&gt;BB12 -->
<g id="edge9" class="edge">
<title>BB5&#45;&gt;BB12</title>
<path fill="none" stroke="black" d="M553.16,-796.01C562.64,-784.99 572.91,-773.06 582.68,-761.7"/>
<polygon fill="black" stroke="black" points="585.49,-763.8 589.36,-753.94 580.18,-759.24 585.49,-763.8"/>
</g>
<!-- BB7 -->
<g id="node8" class="node">
<title>BB7</title>
<ellipse fill="none" stroke="black" cx="327.24" cy="-576.75" rx="103.48" ry="48.17"/>
<text text-anchor="middle" x="327.24" y="-595.55" font-family="Times New Roman,serif" font-size="14.00">[72..87)</text>
<text text-anchor="middle" x="327.24" y="-580.55" font-family="Times New Roman,serif" font-size="14.00">Count: 0</text>
<text text-anchor="middle" x="327.24" y="-565.55" font-family="Times New Roman,serif" font-size="14.00">Normalized count: 0.00</text>
<text text-anchor="middle" x="327.24" y="-550.55" font-family="Times New Roman,serif" font-size="14.00">Samples weight: 0.00</text>
</g>
<!-- BB6&#45;&gt;BB7 -->
<g id="edge12" class="edge">
<title>BB6&#45;&gt;BB7</title>
<path fill="none" stroke="black" d="M376.66,-662.39C370.96,-652.64 364.89,-642.24 359.02,-632.19"/>
<polygon fill="black" stroke="black" points="362,-630.34 353.93,-623.47 355.95,-633.87 362,-630.34"/>
</g>
<!-- BB6&#45;&gt;BB12 -->
<g id="edge11" class="edge">
<title>BB6&#45;&gt;BB12</title>
<path fill="none" stroke="black" d="M506.49,-708.92C508.94,-708.92 511.4,-708.92 513.85,-708.92"/>
<polygon fill="black" stroke="black" points="513.94,-712.42 523.94,-708.92 513.94,-705.42 513.94,-712.42"/>
</g>
<!-- BB8 -->
<g id="node9" class="node">
<title>BB8</title>
<ellipse fill="none" stroke="black" cx="103.24" cy="-444.58" rx="103.48" ry="48.17"/>
<text text-anchor="middle" x="103.24" y="-463.38" font-family="Times New Roman,serif" font-size="14.00">[87..8c)</text>
<text text-anchor="middle" x="103.24" y="-448.38" font-family="Times New Roman,serif" font-size="14.00">Count: 0</text>
<text text-anchor="middle" x="103.24" y="-433.38" font-family="Times New Roman,serif" font-size="14.00">Normalized count: 0.00</text>
<text text-anchor="middle" x="103.24" y="-418.38" font-family="Times New Roman,serif" font-size="14.00">Samples weight: 0.00</text>
</g>
<!-- BB7&#45;&gt;BB8 -->
<g id="edge14" class="edge">
<title>BB7&#45;&gt;BB8</title>
<path fill="none" stroke="black" d="M263.65,-538.8C236.22,-522.86 203.99,-504.13 175.65,-487.66"/>
<polygon fill="black" stroke="black" points="177.39,-484.63 166.99,-482.63 173.87,-490.68 177.39,-484.63"/>
</g>
<!-- BB9 -->
<g id="node10" class="node">
<title>BB9</title>
<ellipse fill="none" stroke="black" cx="327.24" cy="-444.58" rx="103.48" ry="48.17"/>
<text text-anchor="middle" x="327.24" y="-463.38" font-family="Times New Roman,serif" font-size="14.00">[8c..9e)</text>
<text text-anchor="middle" x="327.24" y="-448.38" font-family="Times New Roman,serif" font-size="14.00">Count: 0</text>
<text text-anchor="middle" x="327.24" y="-433.38" font-family="Times New Roman,serif" font-size="14.00">Normalized count: 0.00</text>
<text text-anchor="middle" x="327.24" y="-418.38" font-family="Times New Roman,serif" font-size="14.00">Samples weight: 0.00</text>
</g>
<!-- BB7&#45;&gt;BB9 -->
<g id="edge13" class="edge">
<title>BB7&#45;&gt;BB9</title>
<path fill="none" stroke="black" d="M327.24,-528.39C327.24,-520.12 327.24,-511.44 327.24,-502.93"/>
<polygon fill="black" stroke="black" points="330.74,-502.69 327.24,-492.69 323.74,-502.69 330.74,-502.69"/>
</g>
<!-- BB8&#45;&gt;BB24 -->
<g id="edge15" class="edge">
<title>BB8&#45;&gt;BB24</title>
<path fill="none" stroke="black" d="M162.01,-484.32C181.04,-495.04 202.79,-505.19 224.24,-510.67 286.36,-526.52 738.99,-526 801.24,-510.67 820.44,-505.94 839.95,-497.7 857.7,-488.62"/>
<polygon fill="black" stroke="black" points="859.6,-491.57 866.81,-483.81 856.33,-485.38 859.6,-491.57"/>
</g>
<!-- BB10 -->
<g id="node11" class="node">
<title>BB10</title>
<ellipse fill="none" stroke="black" cx="365.24" cy="-312.42" rx="103.48" ry="48.17"/>
<text text-anchor="middle" x="365.24" y="-331.22" font-family="Times New Roman,serif" font-size="14.00">[9e..d7)</text>
<text text-anchor="middle" x="365.24" y="-316.22" font-family="Times New Roman,serif" font-size="14.00">Count: 0</text>
<text text-anchor="middle" x="365.24" y="-301.22" font-family="Times New Roman,serif" font-size="14.00">Normalized count: 0.00</text>
<text text-anchor="middle" x="365.24" y="-286.22" font-family="Times New Roman,serif" font-size="14.00">Samples weight: 0.00</text>
</g>
<!-- BB9&#45;&gt;BB10 -->
<g id="edge16" class="edge">
<title>BB9&#45;&gt;BB10</title>
<path fill="none" stroke="black" d="M340.96,-396.59C343.46,-388.02 346.09,-378.99 348.67,-370.17"/>
<polygon fill="black" stroke="black" points="352.1,-370.92 351.54,-360.34 345.38,-368.96 352.1,-370.92"/>
</g>
<!-- BB11 -->
<g id="node12" class="node">
<title>BB11</title>
<ellipse fill="none" stroke="black" cx="365.24" cy="-180.25" rx="103.48" ry="48.17"/>
<text text-anchor="middle" x="365.24" y="-199.05" font-family="Times New Roman,serif" font-size="14.00">[d7..f9)</text>
<text text-anchor="middle" x="365.24" y="-184.05" font-family="Times New Roman,serif" font-size="14.00">Count: 0</text>
<text text-anchor="middle" x="365.24" y="-169.05" font-family="Times New Roman,serif" font-size="14.00">Normalized count: 0.00</text>
<text text-anchor="middle" x="365.24" y="-154.05" font-family="Times New Roman,serif" font-size="14.00">Samples weight: 0.00</text>
</g>
<!-- BB10&#45;&gt;BB11 -->
<g id="edge18" class="edge">
<title>BB10&#45;&gt;BB11</title>
<path fill="none" stroke="black" d="M358.72,-264.42C358.5,-256.05 358.43,-247.24 358.53,-238.62"/>
<polygon fill="black" stroke="black" points="362.03,-238.67 358.72,-228.61 355.03,-238.54 362.03,-238.67"/>
</g>
<!-- BB10&#45;&gt;BB12 -->
<g id="edge17" class="edge">
<title>BB10&#45;&gt;BB12</title>
<path fill="none" stroke="black" d="M410.87,-355.81C421.65,-367.99 432.08,-381.94 439.24,-396.5 484.79,-489.17 422.38,-540.69 482.24,-624.83 496.58,-644.99 517.44,-660.93 538.91,-673.24"/>
<polygon fill="black" stroke="black" points="537.34,-676.37 547.79,-678.12 540.71,-670.24 537.34,-676.37"/>
</g>
<!-- BB11&#45;&gt;BB10 -->
<g id="edge19" class="edge">
<title>BB11&#45;&gt;BB10</title>
<path fill="none" stroke="black" d="M371.76,-228.61C371.98,-236.91 372.04,-245.62 371.94,-254.15"/>
<polygon fill="black" stroke="black" points="368.44,-254.36 371.75,-264.42 375.44,-254.49 368.44,-254.36"/>
</g>
<!-- BB11&#45;&gt;BB12 -->
<g id="edge20" class="edge">
<title>BB11&#45;&gt;BB12</title>
<path fill="none" stroke="black" d="M432.11,-217.09C449.57,-229.7 466.49,-245.52 477.24,-264.33 557.12,-404.24 435.35,-484.92 515.24,-624.83 524.3,-640.71 537.77,-654.45 552.24,-665.93"/>
<polygon fill="black" stroke="black" points="550.28,-668.84 560.37,-672.08 554.5,-663.25 550.28,-668.84"/>
</g>
<!-- BB13 -->
<g id="node14" class="node">
<title>BB13</title>
<ellipse fill="none" stroke="black" cx="627.24" cy="-576.75" rx="103.48" ry="48.17"/>
<text text-anchor="middle" x="627.24" y="-595.55" font-family="Times New Roman,serif" font-size="14.00">[113..11c)</text>
<text text-anchor="middle" x="627.24" y="-580.55" font-family="Times New Roman,serif" font-size="14.00">Count: 3</text>
<text text-anchor="middle" x="627.24" y="-565.55" font-family="Times New Roman,serif" font-size="14.00">Normalized count: 0.25</text>
<text text-anchor="middle" x="627.24" y="-550.55" font-family="Times New Roman,serif" font-size="14.00">Samples weight: 0.02</text>
</g>
<!-- BB12&#45;&gt;BB13 -->
<g id="edge22" class="edge">
<title>BB12&#45;&gt;BB13</title>
<path fill="none" stroke="black" d="M627.24,-660.55C627.24,-652.29 627.24,-643.6 627.24,-635.1"/>
<polygon fill="black" stroke="black" points="630.74,-634.86 627.24,-624.86 623.74,-634.86 630.74,-634.86"/>
</g>
<!-- BB17 -->
<g id="node18" class="node">
<title>BB17</title>
<ellipse fill="none" stroke="black" cx="851.24" cy="-576.75" rx="103.48" ry="48.17"/>
<text text-anchor="middle" x="851.24" y="-595.55" font-family="Times New Roman,serif" font-size="14.00">[152..159)</text>
<text text-anchor="middle" x="851.24" y="-580.55" font-family="Times New Roman,serif" font-size="14.00">Count: 12</text>
<text text-anchor="middle" x="851.24" y="-565.55" font-family="Times New Roman,serif" font-size="14.00">Normalized count: 1.00</text>
<text text-anchor="middle" x="851.24" y="-550.55" font-family="Times New Roman,serif" font-size="14.00">Samples weight: 0.08</text>
</g>
<!-- BB12&#45;&gt;BB17 -->
<g id="edge21" class="edge">
<title>BB12&#45;&gt;BB17</title>
<path fill="none" stroke="black" d="M690.83,-670.96C718.26,-655.02 750.48,-636.3 778.83,-619.83"/>
<polygon fill="black" stroke="black" points="780.6,-622.84 787.49,-614.79 777.08,-616.79 780.6,-622.84"/>
</g>
<!-- BB14 -->
<g id="node15" class="node">
<title>BB14</title>
<ellipse fill="none" stroke="black" cx="646.24" cy="-444.58" rx="103.48" ry="48.17"/>
<text text-anchor="middle" x="646.24" y="-463.38" font-family="Times New Roman,serif" font-size="14.00">[11c..13b)</text>
<text text-anchor="middle" x="646.24" y="-448.38" font-family="Times New Roman,serif" font-size="14.00">Count: 16</text>
<text text-anchor="middle" x="646.24" y="-433.38" font-family="Times New Roman,serif" font-size="14.00">Normalized count: 1.33</text>
<text text-anchor="middle" x="646.24" y="-418.38" font-family="Times New Roman,serif" font-size="14.00">Samples weight: 0.11</text>
</g>
<!-- BB13&#45;&gt;BB14 -->
<g id="edge23" class="edge">
<title>BB13&#45;&gt;BB14</title>
<path fill="none" stroke="black" d="M634.1,-528.76C635.32,-520.38 636.61,-511.57 637.86,-502.95"/>
<polygon fill="black" stroke="black" points="641.34,-503.34 639.32,-492.94 634.42,-502.33 641.34,-503.34"/>
</g>
<!-- BB15 -->
<g id="node16" class="node">
<title>BB15</title>
<ellipse fill="none" stroke="black" cx="665.24" cy="-312.42" rx="103.48" ry="48.17"/>
<text text-anchor="middle" x="665.24" y="-331.22" font-family="Times New Roman,serif" font-size="14.00">[13b..148)</text>
<text text-anchor="middle" x="665.24" y="-316.22" font-family="Times New Roman,serif" font-size="14.00">Count: 16</text>
<text text-anchor="middle" x="665.24" y="-301.22" font-family="Times New Roman,serif" font-size="14.00">Normalized count: 1.33</text>
<text text-anchor="middle" x="665.24" y="-286.22" font-family="Times New Roman,serif" font-size="14.00">Samples weight: 0.11</text>
</g>
<!-- BB14&#45;&gt;BB15 -->
<g id="edge25" class="edge">
<title>BB14&#45;&gt;BB15</title>
<path fill="none" stroke="black" d="M653.1,-396.59C654.32,-388.22 655.61,-379.41 656.86,-370.78"/>
<polygon fill="black" stroke="black" points="660.34,-371.18 658.32,-360.78 653.42,-370.17 660.34,-371.18"/>
</g>
<!-- BB14&#45;&gt;BB24 -->
<g id="edge24" class="edge">
<title>BB14&#45;&gt;BB24</title>
<path fill="none" stroke="black" d="M749.69,-444.58C771.05,-444.58 792.4,-444.58 813.75,-444.58"/>
<polygon fill="black" stroke="black" points="813.9,-448.08 823.9,-444.58 813.9,-441.08 813.9,-448.08"/>
</g>
<!-- BB16 -->
<g id="node17" class="node">
<title>BB16</title>
<ellipse fill="none" stroke="black" cx="665.24" cy="-180.25" rx="103.48" ry="48.17"/>
<text text-anchor="middle" x="665.24" y="-199.05" font-family="Times New Roman,serif" font-size="14.00">[148..152)</text>
<text text-anchor="middle" x="665.24" y="-184.05" font-family="Times New Roman,serif" font-size="14.00">Count: 16</text>
<text text-anchor="middle" x="665.24" y="-169.05" font-family="Times New Roman,serif" font-size="14.00">Normalized count: 1.33</text>
<text text-anchor="middle" x="665.24" y="-154.05" font-family="Times New Roman,serif" font-size="14.00">Samples weight: 0.11</text>
</g>
<!-- BB15&#45;&gt;BB16 -->
<g id="edge26" class="edge">
<title>BB15&#45;&gt;BB16</title>
<path fill="none" stroke="black" d="M665.24,-264.05C665.24,-255.79 665.24,-247.1 665.24,-238.6"/>
<polygon fill="black" stroke="black" points="668.74,-238.36 665.24,-228.36 661.74,-238.36 668.74,-238.36"/>
</g>
<!-- BB16&#45;&gt;BB14 -->
<g id="edge27" class="edge">
<title>BB16&#45;&gt;BB14</title>
<path fill="none" stroke="black" d="M597.1,-216.41C579.6,-229 562.98,-244.98 553.24,-264.33 534.02,-302.51 535.78,-321.49 553.24,-360.5 559.48,-374.44 569.34,-387.01 580.36,-397.9"/>
<polygon fill="black" stroke="black" points="578.04,-400.53 587.73,-404.81 582.83,-395.42 578.04,-400.53"/>
</g>
<!-- BB16&#45;&gt;BB17 -->
<g id="edge28" class="edge">
<title>BB16&#45;&gt;BB17</title>
<path fill="none" stroke="black" d="M731.11,-217.3C748.66,-229.95 765.87,-245.74 777.24,-264.33 830.9,-352.11 786.13,-393.99 815.24,-492.67 817.91,-501.73 821.32,-511.12 824.96,-520.18"/>
<polygon fill="black" stroke="black" points="821.75,-521.58 828.82,-529.48 828.22,-518.9 821.75,-521.58"/>
</g>
<!-- BB18 -->
<g id="node19" class="node">
<title>BB18</title>
<ellipse fill="none" stroke="black" cx="1151.24" cy="-444.58" rx="103.48" ry="48.17"/>
<text text-anchor="middle" x="1151.24" y="-463.38" font-family="Times New Roman,serif" font-size="14.00">[159..172)</text>
<text text-anchor="middle" x="1151.24" y="-448.38" font-family="Times New Roman,serif" font-size="14.00">Count: 1</text>
<text text-anchor="middle" x="1151.24" y="-433.38" font-family="Times New Roman,serif" font-size="14.00">Normalized count: 0.08</text>
<text text-anchor="middle" x="1151.24" y="-418.38" font-family="Times New Roman,serif" font-size="14.00">Samples weight: 0.01</text>
</g>
<!-- BB17&#45;&gt;BB18 -->
<g id="edge30" class="edge">
<title>BB17&#45;&gt;BB18</title>
<path fill="none" stroke="black" d="M925.78,-543.41C968.71,-524.78 1022.8,-501.31 1067.23,-482.03"/>
<polygon fill="black" stroke="black" points="1068.78,-485.18 1076.56,-477.99 1065.99,-478.75 1068.78,-485.18"/>
</g>
<!-- BB20 -->
<g id="node21" class="node">
<title>BB20</title>
<ellipse fill="none" stroke="black" cx="1487.24" cy="-444.58" rx="103.48" ry="48.17"/>
<text text-anchor="middle" x="1487.24" y="-463.38" font-family="Times New Roman,serif" font-size="14.00">[182..189)</text>
<text text-anchor="middle" x="1487.24" y="-448.38" font-family="Times New Roman,serif" font-size="14.00">Count: 12</text>
<text text-anchor="middle" x="1487.24" y="-433.38" font-family="Times New Roman,serif" font-size="14.00">Normalized count: 1.00</text>
<text text-anchor="middle" x="1487.24" y="-418.38" font-family="Times New Roman,serif" font-size="14.00">Samples weight: 0.08</text>
</g>
<!-- BB17&#45;&gt;BB20 -->
<g id="edge29" class="edge">
<title>BB17&#45;&gt;BB20</title>
<path fill="none" stroke="black" d="M923.11,-542.09C936.24,-536.94 949.98,-532.17 963.24,-528.67 1093.06,-494.31 1130.73,-514.5 1263.24,-492.67 1303.37,-486.05 1347.22,-477.2 1385.4,-468.96"/>
<polygon fill="black" stroke="black" points="1386.46,-472.31 1395.49,-466.77 1384.97,-465.47 1386.46,-472.31"/>
</g>
<!-- BB19 -->
<g id="node20" class="node">
<title>BB19</title>
<ellipse fill="none" stroke="black" cx="1375.24" cy="-312.42" rx="103.48" ry="48.17"/>
<text text-anchor="middle" x="1375.24" y="-331.22" font-family="Times New Roman,serif" font-size="14.00">[172..182)</text>
<text text-anchor="middle" x="1375.24" y="-316.22" font-family="Times New Roman,serif" font-size="14.00">Count: 1</text>
<text text-anchor="middle" x="1375.24" y="-301.22" font-family="Times New Roman,serif" font-size="14.00">Normalized count: 0.08</text>
<text text-anchor="middle" x="1375.24" y="-286.22" font-family="Times New Roman,serif" font-size="14.00">Samples weight: 0.01</text>
</g>
<!-- BB18&#45;&gt;BB19 -->
<g id="edge32" class="edge">
<title>BB18&#45;&gt;BB19</title>
<path fill="none" stroke="black" d="M1214.83,-406.63C1242.26,-390.69 1274.48,-371.97 1302.83,-355.49"/>
<polygon fill="black" stroke="black" points="1304.6,-358.51 1311.49,-350.46 1301.08,-352.46 1304.6,-358.51"/>
</g>
<!-- BB28 -->
<g id="node29" class="node">
<title>BB28</title>
<ellipse fill="none" stroke="black" cx="1151.24" cy="-312.42" rx="103.48" ry="48.17"/>
<text text-anchor="middle" x="1151.24" y="-331.22" font-family="Times New Roman,serif" font-size="14.00">[1df..1fa)</text>
<text text-anchor="middle" x="1151.24" y="-316.22" font-family="Times New Roman,serif" font-size="14.00">Count: 0</text>
<text text-anchor="middle" x="1151.24" y="-301.22" font-family="Times New Roman,serif" font-size="14.00">Normalized count: 0.00</text>
<text text-anchor="middle" x="1151.24" y="-286.22" font-family="Times New Roman,serif" font-size="14.00">Samples weight: 0.00</text>
</g>
<!-- BB18&#45;&gt;BB28 -->
<g id="edge31" class="edge">
<title>BB18&#45;&gt;BB28</title>
<path fill="none" stroke="black" d="M1151.24,-396.22C1151.24,-387.95 1151.24,-379.27 1151.24,-370.77"/>
<polygon fill="black" stroke="black" points="1154.74,-370.52 1151.24,-360.52 1147.74,-370.52 1154.74,-370.52"/>
</g>
<!-- BB19&#45;&gt;BB20 -->
<g id="edge33" class="edge">
<title>BB19&#45;&gt;BB20</title>
<path fill="none" stroke="black" d="M1413.12,-357.44C1422.6,-368.46 1432.86,-380.39 1442.64,-391.75"/>
<polygon fill="black" stroke="black" points="1440.14,-394.22 1449.32,-399.51 1445.45,-389.65 1440.14,-394.22"/>
</g>
<!-- BB21 -->
<g id="node22" class="node">
<title>BB21</title>
<ellipse fill="none" stroke="black" cx="1599.24" cy="-312.42" rx="103.48" ry="48.17"/>
<text text-anchor="middle" x="1599.24" y="-331.22" font-family="Times New Roman,serif" font-size="14.00">[189..198)</text>
<text text-anchor="middle" x="1599.24" y="-316.22" font-family="Times New Roman,serif" font-size="14.00">Count: 2</text>
<text text-anchor="middle" x="1599.24" y="-301.22" font-family="Times New Roman,serif" font-size="14.00">Normalized count: 0.17</text>
<text text-anchor="middle" x="1599.24" y="-286.22" font-family="Times New Roman,serif" font-size="14.00">Samples weight: 0.01</text>
</g>
<!-- BB20&#45;&gt;BB21 -->
<g id="edge35" class="edge">
<title>BB20&#45;&gt;BB21</title>
<path fill="none" stroke="black" d="M1525.16,-399.51C1534.64,-388.49 1544.91,-376.56 1554.68,-365.2"/>
<polygon fill="black" stroke="black" points="1557.49,-367.3 1561.36,-357.44 1552.18,-362.74 1557.49,-367.3"/>
</g>
<!-- BB23 -->
<g id="node24" class="node">
<title>BB23</title>
<ellipse fill="none" stroke="black" cx="1823.24" cy="-312.42" rx="103.48" ry="48.17"/>
<text text-anchor="middle" x="1823.24" y="-331.22" font-family="Times New Roman,serif" font-size="14.00">[1a4..1a6)</text>
<text text-anchor="middle" x="1823.24" y="-316.22" font-family="Times New Roman,serif" font-size="14.00">Count: 12</text>
<text text-anchor="middle" x="1823.24" y="-301.22" font-family="Times New Roman,serif" font-size="14.00">Normalized count: 1.00</text>
<text text-anchor="middle" x="1823.24" y="-286.22" font-family="Times New Roman,serif" font-size="14.00">Samples weight: 0.08</text>
</g>
<!-- BB20&#45;&gt;BB23 -->
<g id="edge34" class="edge">
<title>BB20&#45;&gt;BB23</title>
<path fill="none" stroke="black" d="M1568.17,-414.51C1610.88,-398.93 1664.08,-379.15 1711.24,-360.5 1720.21,-356.95 1729.55,-353.17 1738.85,-349.35"/>
<polygon fill="black" stroke="black" points="1740.21,-352.57 1748.11,-345.52 1737.53,-346.1 1740.21,-352.57"/>
</g>
<!-- BB22 -->
<g id="node23" class="node">
<title>BB22</title>
<ellipse fill="none" stroke="black" cx="1645.24" cy="-180.25" rx="103.48" ry="48.17"/>
<text text-anchor="middle" x="1645.24" y="-199.05" font-family="Times New Roman,serif" font-size="14.00">[198..1a4)</text>
<text text-anchor="middle" x="1645.24" y="-184.05" font-family="Times New Roman,serif" font-size="14.00">Count: 2</text>
<text text-anchor="middle" x="1645.24" y="-169.05" font-family="Times New Roman,serif" font-size="14.00">Normalized count: 0.17</text>
<text text-anchor="middle" x="1645.24" y="-154.05" font-family="Times New Roman,serif" font-size="14.00">Samples weight: 0.01</text>
</g>
<!-- BB21&#45;&gt;BB22 -->
<g id="edge37" class="edge">
<title>BB21&#45;&gt;BB22</title>
<path fill="none" stroke="black" d="M1615.71,-264.79C1618.82,-256.01 1622.1,-246.73 1625.29,-237.68"/>
<polygon fill="black" stroke="black" points="1628.69,-238.58 1628.72,-227.99 1622.09,-236.25 1628.69,-238.58"/>
</g>
<!-- BB21&#45;&gt;BB23 -->
<g id="edge36" class="edge">
<title>BB21&#45;&gt;BB23</title>
<path fill="none" stroke="black" d="M1702.49,-312.42C1704.94,-312.42 1707.4,-312.42 1709.85,-312.42"/>
<polygon fill="black" stroke="black" points="1709.94,-315.92 1719.94,-312.42 1709.94,-308.92 1709.94,-315.92"/>
</g>
<!-- BB22&#45;&gt;BB23 -->
<g id="edge38" class="edge">
<title>BB22&#45;&gt;BB23</title>
<path fill="none" stroke="black" d="M1699.91,-221.23C1718.94,-235.14 1740.43,-250.86 1760.08,-265.23"/>
<polygon fill="black" stroke="black" points="1758.24,-268.22 1768.38,-271.3 1762.37,-262.57 1758.24,-268.22"/>
</g>
<!-- BB25 -->
<g id="node26" class="node">
<title>BB25</title>
<ellipse fill="none" stroke="black" cx="927.24" cy="-312.42" rx="103.48" ry="48.17"/>
<text text-anchor="middle" x="927.24" y="-331.22" font-family="Times New Roman,serif" font-size="14.00">[1b7..1bf)</text>
<text text-anchor="middle" x="927.24" y="-316.22" font-family="Times New Roman,serif" font-size="14.00">Count: 0</text>
<text text-anchor="middle" x="927.24" y="-301.22" font-family="Times New Roman,serif" font-size="14.00">Normalized count: 0.00</text>
<text text-anchor="middle" x="927.24" y="-286.22" font-family="Times New Roman,serif" font-size="14.00">Samples weight: 0.00</text>
</g>
<!-- BB24&#45;&gt;BB25 -->
<g id="edge39" class="edge">
<title>BB24&#45;&gt;BB25</title>
<path fill="none" stroke="black" d="M927.24,-396.22C927.24,-387.95 927.24,-379.27 927.24,-370.77"/>
<polygon fill="black" stroke="black" points="930.74,-370.52 927.24,-360.52 923.74,-370.52 930.74,-370.52"/>
</g>
<!-- BB26 -->
<g id="node27" class="node">
<title>BB26</title>
<ellipse fill="none" stroke="black" cx="951.24" cy="-180.25" rx="103.48" ry="48.17"/>
<text text-anchor="middle" x="951.24" y="-199.05" font-family="Times New Roman,serif" font-size="14.00">[1bf..1d8)</text>
<text text-anchor="middle" x="951.24" y="-184.05" font-family="Times New Roman,serif" font-size="14.00">Count: 0</text>
<text text-anchor="middle" x="951.24" y="-169.05" font-family="Times New Roman,serif" font-size="14.00">Normalized count: 0.00</text>
<text text-anchor="middle" x="951.24" y="-154.05" font-family="Times New Roman,serif" font-size="14.00">Samples weight: 0.00</text>
</g>
<!-- BB25&#45;&gt;BB26 -->
<g id="edge41" class="edge">
<title>BB25&#45;&gt;BB26</title>
<path fill="none" stroke="black" d="M935.9,-264.42C937.47,-255.94 939.11,-247.02 940.72,-238.29"/>
<polygon fill="black" stroke="black" points="944.21,-238.64 942.59,-228.17 937.33,-237.37 944.21,-238.64"/>
</g>
<!-- BB25&#45;&gt;BB28 -->
<g id="edge40" class="edge">
<title>BB25&#45;&gt;BB28</title>
<path fill="none" stroke="black" d="M1030.49,-312.42C1032.94,-312.42 1035.4,-312.42 1037.85,-312.42"/>
<polygon fill="black" stroke="black" points="1037.94,-315.92 1047.94,-312.42 1037.94,-308.92 1037.94,-315.92"/>
</g>
<!-- BB27 -->
<g id="node28" class="node">
<title>BB27</title>
<ellipse fill="none" stroke="black" cx="1016.24" cy="-48.08" rx="103.48" ry="48.17"/>
<text text-anchor="middle" x="1016.24" y="-66.88" font-family="Times New Roman,serif" font-size="14.00">[1d8..1df)</text>
<text text-anchor="middle" x="1016.24" y="-51.88" font-family="Times New Roman,serif" font-size="14.00">Count: 0</text>
<text text-anchor="middle" x="1016.24" y="-36.88" font-family="Times New Roman,serif" font-size="14.00">Normalized count: 0.00</text>
<text text-anchor="middle" x="1016.24" y="-21.88" font-family="Times New Roman,serif" font-size="14.00">Samples weight: 0.00</text>
</g>
<!-- BB26&#45;&gt;BB27 -->
<g id="edge42" class="edge">
<title>BB26&#45;&gt;BB27</title>
<path fill="none" stroke="black" d="M974.15,-133.36C978.86,-123.93 983.87,-113.91 988.72,-104.19"/>
<polygon fill="black" stroke="black" points="991.97,-105.51 993.31,-95 985.71,-102.38 991.97,-105.51"/>
</g>
<!-- BB27&#45;&gt;BB28 -->
<g id="edge43" class="edge">
<title>BB27&#45;&gt;BB28</title>
<path fill="none" stroke="black" d="M1042.82,-94.96C1049.62,-106.99 1056.82,-120 1063.24,-132.17 1084.92,-173.26 1108.02,-220.45 1125.11,-256.1"/>
<polygon fill="black" stroke="black" points="1122.07,-257.86 1129.54,-265.37 1128.39,-254.83 1122.07,-257.86"/>
</g>
<!-- BB28&#45;&gt;BB23 -->
<g id="edge44" class="edge">
<title>BB28&#45;&gt;BB23</title>
<path fill="none" stroke="black" d="M1210.01,-352.15C1229.04,-362.88 1250.79,-373.02 1272.24,-378.5 1364.82,-402.13 1609.65,-402.13 1702.24,-378.5 1720.34,-373.88 1738.65,-365.93 1755.36,-357.12"/>
<polygon fill="black" stroke="black" points="1757.36,-360.01 1764.47,-352.15 1754.01,-353.87 1757.36,-360.01"/>
</g>
<!-- BB29 -->
<g id="node30" class="node">
<title>BB29</title>
<ellipse fill="none" stroke="black" cx="1305.24" cy="-180.25" rx="103.48" ry="48.17"/>
<text text-anchor="middle" x="1305.24" y="-199.05" font-family="Times New Roman,serif" font-size="14.00">[1fa..201)</text>
<text text-anchor="middle" x="1305.24" y="-184.05" font-family="Times New Roman,serif" font-size="14.00">Count: 0</text>
<text text-anchor="middle" x="1305.24" y="-169.05" font-family="Times New Roman,serif" font-size="14.00">Normalized count: 0.00</text>
<text text-anchor="middle" x="1305.24" y="-154.05" font-family="Times New Roman,serif" font-size="14.00">Samples weight: 0.00</text>
</g>
<!-- BB28&#45;&gt;BB29 -->
<g id="edge45" class="edge">
<title>BB28&#45;&gt;BB29</title>
<path fill="none" stroke="black" d="M1200.39,-269.87C1215.74,-256.89 1232.81,-242.47 1248.63,-229.09"/>
<polygon fill="black" stroke="black" points="1250.91,-231.75 1256.29,-222.62 1246.39,-226.4 1250.91,-231.75"/>
</g>
<!-- BB30 -->
<g id="node31" class="node">
<title>BB30</title>
<ellipse fill="none" stroke="black" cx="1552.24" cy="-48.08" rx="103.48" ry="48.17"/>
<text text-anchor="middle" x="1552.24" y="-66.88" font-family="Times New Roman,serif" font-size="14.00">[201..212)</text>
<text text-anchor="middle" x="1552.24" y="-51.88" font-family="Times New Roman,serif" font-size="14.00">Count: 0</text>
<text text-anchor="middle" x="1552.24" y="-36.88" font-family="Times New Roman,serif" font-size="14.00">Normalized count: 0.00</text>
<text text-anchor="middle" x="1552.24" y="-21.88" font-family="Times New Roman,serif" font-size="14.00">Samples weight: 0.00</text>
</g>
<!-- BB29&#45;&gt;BB30 -->
<g id="edge46" class="edge">
<title>BB29&#45;&gt;BB30</title>
<path fill="none" stroke="black" d="M1372.73,-143.68C1404.59,-126.89 1442.75,-106.78 1475.69,-89.43"/>
<polygon fill="black" stroke="black" points="1477.61,-92.37 1484.83,-84.61 1474.35,-86.17 1477.61,-92.37"/>
</g>
<!-- BB30&#45;&gt;BB23 -->
<g id="edge47" class="edge">
<title>BB30&#45;&gt;BB23</title>
<path fill="none" stroke="black" d="M1645.46,-69.04C1684.34,-81.5 1727.32,-101.27 1757.24,-132.17 1789.32,-165.3 1806.02,-215.33 1814.59,-254.13"/>
<polygon fill="black" stroke="black" points="1811.23,-255.16 1816.69,-264.24 1818.08,-253.74 1811.23,-255.16"/>
</g>
</g>
</svg>
