<?xml version="1.0" encoding="UTF-8" standalone="no"?>
<!DOCTYPE svg PUBLIC "-//W3C//DTD SVG 1.1//EN"
 "http://www.w3.org/Graphics/SVG/1.1/DTD/svg11.dtd">
<!-- Generated by graphviz version 2.47.0 (20210316.0004)
 -->
<!-- Title: G Pages: 1 -->
<svg width="569pt" height="690pt"
 viewBox="0.00 0.00 568.56 689.92" xmlns="http://www.w3.org/2000/svg" xmlns:xlink="http://www.w3.org/1999/xlink">
<g id="graph0" class="graph" transform="scale(1 1) rotate(0) translate(4 685.92)">
<title>G</title>
<polygon fill="white" stroke="transparent" points="-4,4 -4,-685.92 564.56,-685.92 564.56,4 -4,4"/>
<!-- BB0 -->
<g id="node1" class="node">
<title>BB0</title>
<ellipse fill="none" stroke="black" cx="163.13" cy="-655.05" rx="33.47" ry="26.74"/>
<text text-anchor="middle" x="163.13" y="-658.85" font-family="Times New Roman,serif" font-size="14.00">[0..9)</text>
<text text-anchor="middle" x="163.13" y="-643.85" font-family="Times New Roman,serif" font-size="14.00">0.05</text>
</g>
<!-- BB1 -->
<g id="node2" class="node">
<title>BB1</title>
<ellipse fill="none" stroke="black" cx="114.13" cy="-565.31" rx="38.37" ry="26.74"/>
<text text-anchor="middle" x="114.13" y="-569.11" font-family="Times New Roman,serif" font-size="14.00">[9..1d)</text>
<text text-anchor="middle" x="114.13" y="-554.11" font-family="Times New Roman,serif" font-size="14.00">0.05</text>
</g>
<!-- BB0&#45;&gt;BB1 -->
<g id="edge2" class="edge">
<title>BB0&#45;&gt;BB1</title>
<path fill="none" stroke="black" d="M149.74,-630.08C144.49,-620.67 138.38,-609.73 132.72,-599.58"/>
<polygon fill="black" stroke="black" points="135.61,-597.59 127.68,-590.56 129.5,-601 135.61,-597.59"/>
</g>
<!-- BB7 -->
<g id="node8" class="node">
<title>BB7</title>
<ellipse fill="none" stroke="black" cx="213.13" cy="-565.31" rx="42.35" ry="26.74"/>
<text text-anchor="middle" x="213.13" y="-569.11" font-family="Times New Roman,serif" font-size="14.00">[4c..55)</text>
<text text-anchor="middle" x="213.13" y="-554.11" font-family="Times New Roman,serif" font-size="14.00">0.05</text>
</g>
<!-- BB0&#45;&gt;BB7 -->
<g id="edge1" class="edge">
<title>BB0&#45;&gt;BB7</title>
<path fill="none" stroke="black" d="M176.8,-630.08C182.11,-620.75 188.29,-609.91 194.03,-599.84"/>
<polygon fill="black" stroke="black" points="197.23,-601.29 199.14,-590.87 191.15,-597.82 197.23,-601.29"/>
</g>
<!-- BB2 -->
<g id="node3" class="node">
<title>BB2</title>
<ellipse fill="none" stroke="black" cx="93.13" cy="-475.57" rx="43.27" ry="26.74"/>
<text text-anchor="middle" x="93.13" y="-479.37" font-family="Times New Roman,serif" font-size="14.00">[1d..29)</text>
<text text-anchor="middle" x="93.13" y="-464.37" font-family="Times New Roman,serif" font-size="14.00">0.05</text>
</g>
<!-- BB1&#45;&gt;BB2 -->
<g id="edge4" class="edge">
<title>BB1&#45;&gt;BB2</title>
<path fill="none" stroke="black" d="M107.95,-538.46C105.98,-530.25 103.77,-521.02 101.67,-512.24"/>
<polygon fill="black" stroke="black" points="105.01,-511.15 99.28,-502.24 98.2,-512.78 105.01,-511.15"/>
</g>
<!-- BB1&#45;&gt;BB7 -->
<g id="edge3" class="edge">
<title>BB1&#45;&gt;BB7</title>
<path fill="none" stroke="black" d="M152.42,-565.31C155.05,-565.31 157.68,-565.31 160.3,-565.31"/>
<polygon fill="black" stroke="black" points="160.44,-568.81 170.44,-565.31 160.44,-561.81 160.44,-568.81"/>
</g>
<!-- BB4 -->
<g id="node5" class="node">
<title>BB4</title>
<ellipse fill="none" stroke="black" cx="86.13" cy="-385.83" rx="43.27" ry="26.74"/>
<text text-anchor="middle" x="86.13" y="-389.63" font-family="Times New Roman,serif" font-size="14.00">[2d..31)</text>
<text text-anchor="middle" x="86.13" y="-374.63" font-family="Times New Roman,serif" font-size="14.00">0.24</text>
</g>
<!-- BB2&#45;&gt;BB4 -->
<g id="edge5" class="edge">
<title>BB2&#45;&gt;BB4</title>
<path fill="none" stroke="black" d="M91.07,-448.72C90.43,-440.67 89.71,-431.64 89.02,-423.02"/>
<polygon fill="black" stroke="black" points="92.49,-422.49 88.21,-412.8 85.51,-423.05 92.49,-422.49"/>
</g>
<!-- BB3 -->
<g id="node4" class="node">
<title>BB3</title>
<ellipse fill="none" stroke="black" cx="43.13" cy="-206.35" rx="43.27" ry="26.74"/>
<text text-anchor="middle" x="43.13" y="-210.15" font-family="Times New Roman,serif" font-size="14.00">[29..2d)</text>
<text text-anchor="middle" x="43.13" y="-195.15" font-family="Times New Roman,serif" font-size="14.00">0.19</text>
</g>
<!-- BB3&#45;&gt;BB4 -->
<g id="edge6" class="edge">
<title>BB3&#45;&gt;BB4</title>
<path fill="none" stroke="black" d="M32.5,-232.6C24.01,-256.64 15.31,-293.43 27.13,-322.96 32.36,-336.03 41.82,-347.9 51.64,-357.68"/>
<polygon fill="black" stroke="black" points="49.48,-360.44 59.17,-364.73 54.26,-355.33 49.48,-360.44"/>
</g>
<!-- BB5 -->
<g id="node6" class="node">
<title>BB5</title>
<ellipse fill="none" stroke="black" cx="78.13" cy="-296.09" rx="41.94" ry="26.74"/>
<text text-anchor="middle" x="78.13" y="-299.89" font-family="Times New Roman,serif" font-size="14.00">[31..3e)</text>
<text text-anchor="middle" x="78.13" y="-284.89" font-family="Times New Roman,serif" font-size="14.00">0.24</text>
</g>
<!-- BB4&#45;&gt;BB5 -->
<g id="edge8" class="edge">
<title>BB4&#45;&gt;BB5</title>
<path fill="none" stroke="black" d="M83.78,-358.98C83.04,-350.93 82.22,-341.9 81.43,-333.28"/>
<polygon fill="black" stroke="black" points="84.89,-332.7 80.5,-323.06 77.92,-333.34 84.89,-332.7"/>
</g>
<!-- BB6 -->
<g id="node7" class="node">
<title>BB6</title>
<ellipse fill="none" stroke="black" cx="179.13" cy="-296.09" rx="41.94" ry="26.74"/>
<text text-anchor="middle" x="179.13" y="-299.89" font-family="Times New Roman,serif" font-size="14.00">[3e..4c)</text>
<text text-anchor="middle" x="179.13" y="-284.89" font-family="Times New Roman,serif" font-size="14.00">0.05</text>
</g>
<!-- BB4&#45;&gt;BB6 -->
<g id="edge7" class="edge">
<title>BB4&#45;&gt;BB6</title>
<path fill="none" stroke="black" d="M109.6,-362.69C121.57,-351.4 136.25,-337.55 149.04,-325.48"/>
<polygon fill="black" stroke="black" points="151.44,-328.03 156.32,-318.62 146.64,-322.93 151.44,-328.03"/>
</g>
<!-- BB5&#45;&gt;BB3 -->
<g id="edge9" class="edge">
<title>BB5&#45;&gt;BB3</title>
<path fill="none" stroke="black" d="M68.01,-269.71C64.56,-261.07 60.65,-251.26 56.96,-242.02"/>
<polygon fill="black" stroke="black" points="60.19,-240.66 53.23,-232.67 53.69,-243.26 60.19,-240.66"/>
</g>
<!-- BB5&#45;&gt;BB6 -->
<g id="edge10" class="edge">
<title>BB5&#45;&gt;BB6</title>
<path fill="none" stroke="black" d="M119.95,-296.09C122.27,-296.09 124.59,-296.09 126.9,-296.09"/>
<polygon fill="black" stroke="black" points="127.06,-299.59 137.06,-296.09 127.06,-292.59 127.06,-299.59"/>
</g>
<!-- BB6&#45;&gt;BB7 -->
<g id="edge11" class="edge">
<title>BB6&#45;&gt;BB7</title>
<path fill="none" stroke="black" d="M176.12,-323.15C172.33,-362.59 168.03,-439.51 183.13,-502.44 185.45,-512.09 189.42,-522 193.74,-530.97"/>
<polygon fill="black" stroke="black" points="190.64,-532.62 198.3,-539.95 196.88,-529.45 190.64,-532.62"/>
</g>
<!-- BB8 -->
<g id="node9" class="node">
<title>BB8</title>
<ellipse fill="none" stroke="black" cx="234.13" cy="-475.57" rx="42.35" ry="26.74"/>
<text text-anchor="middle" x="234.13" y="-479.37" font-family="Times New Roman,serif" font-size="14.00">[55..61)</text>
<text text-anchor="middle" x="234.13" y="-464.37" font-family="Times New Roman,serif" font-size="14.00">0.05</text>
</g>
<!-- BB7&#45;&gt;BB8 -->
<g id="edge13" class="edge">
<title>BB7&#45;&gt;BB8</title>
<path fill="none" stroke="black" d="M219.32,-538.46C221.29,-530.25 223.5,-521.02 225.6,-512.24"/>
<polygon fill="black" stroke="black" points="229.07,-512.78 227.99,-502.24 222.26,-511.15 229.07,-512.78"/>
</g>
<!-- BB9 -->
<g id="node10" class="node">
<title>BB9</title>
<ellipse fill="none" stroke="black" cx="338.13" cy="-475.57" rx="43.27" ry="26.74"/>
<text text-anchor="middle" x="338.13" y="-479.37" font-family="Times New Roman,serif" font-size="14.00">[61..6b)</text>
<text text-anchor="middle" x="338.13" y="-464.37" font-family="Times New Roman,serif" font-size="14.00">0.00</text>
</g>
<!-- BB7&#45;&gt;BB9 -->
<g id="edge12" class="edge">
<title>BB7&#45;&gt;BB9</title>
<path fill="none" stroke="black" d="M240.88,-544.84C258.79,-532.26 282.3,-515.76 301.72,-502.13"/>
<polygon fill="black" stroke="black" points="303.86,-504.9 310.04,-496.29 299.84,-499.17 303.86,-504.9"/>
</g>
<!-- BB10 -->
<g id="node11" class="node">
<title>BB10</title>
<ellipse fill="none" stroke="black" cx="309.13" cy="-385.83" rx="43.68" ry="26.74"/>
<text text-anchor="middle" x="309.13" y="-389.63" font-family="Times New Roman,serif" font-size="14.00">[6b..7b)</text>
<text text-anchor="middle" x="309.13" y="-374.63" font-family="Times New Roman,serif" font-size="14.00">0.00</text>
</g>
<!-- BB9&#45;&gt;BB10 -->
<g id="edge15" class="edge">
<title>BB9&#45;&gt;BB10</title>
<path fill="none" stroke="black" d="M329.75,-449.19C326.94,-440.72 323.77,-431.12 320.77,-422.03"/>
<polygon fill="black" stroke="black" points="324.06,-420.85 317.6,-412.46 317.42,-423.05 324.06,-420.85"/>
</g>
<!-- BB16 -->
<g id="node17" class="node">
<title>BB16</title>
<ellipse fill="none" stroke="black" cx="415.13" cy="-385.83" rx="43.68" ry="26.74"/>
<text text-anchor="middle" x="415.13" y="-389.63" font-family="Times New Roman,serif" font-size="14.00">[b9..bd)</text>
<text text-anchor="middle" x="415.13" y="-374.63" font-family="Times New Roman,serif" font-size="14.00">0.00</text>
</g>
<!-- BB9&#45;&gt;BB16 -->
<g id="edge14" class="edge">
<title>BB9&#45;&gt;BB16</title>
<path fill="none" stroke="black" d="M358.36,-451.52C367.56,-441.04 378.57,-428.5 388.43,-417.26"/>
<polygon fill="black" stroke="black" points="391.07,-419.55 395.04,-409.73 385.81,-414.94 391.07,-419.55"/>
</g>
<!-- BB11 -->
<g id="node12" class="node">
<title>BB11</title>
<ellipse fill="none" stroke="black" cx="309.13" cy="-296.09" rx="41.94" ry="26.74"/>
<text text-anchor="middle" x="309.13" y="-299.89" font-family="Times New Roman,serif" font-size="14.00">[7b..7f)</text>
<text text-anchor="middle" x="309.13" y="-284.89" font-family="Times New Roman,serif" font-size="14.00">0.00</text>
</g>
<!-- BB10&#45;&gt;BB11 -->
<g id="edge17" class="edge">
<title>BB10&#45;&gt;BB11</title>
<path fill="none" stroke="black" d="M309.13,-358.51C309.13,-350.54 309.13,-341.65 309.13,-333.16"/>
<polygon fill="black" stroke="black" points="312.63,-333.09 309.13,-323.09 305.63,-333.09 312.63,-333.09"/>
</g>
<!-- BB10&#45;&gt;BB16 -->
<g id="edge16" class="edge">
<title>BB10&#45;&gt;BB16</title>
<path fill="none" stroke="black" d="M353.02,-385.83C355.64,-385.83 358.26,-385.83 360.88,-385.83"/>
<polygon fill="black" stroke="black" points="360.98,-389.33 370.98,-385.83 360.98,-382.33 360.98,-389.33"/>
</g>
<!-- BB12 -->
<g id="node13" class="node">
<title>BB12</title>
<ellipse fill="none" stroke="black" cx="210.13" cy="-206.35" rx="40.11" ry="26.74"/>
<text text-anchor="middle" x="210.13" y="-210.15" font-family="Times New Roman,serif" font-size="14.00">[7f..8a)</text>
<text text-anchor="middle" x="210.13" y="-195.15" font-family="Times New Roman,serif" font-size="14.00">0.00</text>
</g>
<!-- BB11&#45;&gt;BB12 -->
<g id="edge19" class="edge">
<title>BB11&#45;&gt;BB12</title>
<path fill="none" stroke="black" d="M285.17,-273.85C272.04,-262.21 255.6,-247.65 241.46,-235.11"/>
<polygon fill="black" stroke="black" points="243.68,-232.41 233.88,-228.39 239.04,-237.65 243.68,-232.41"/>
</g>
<!-- BB13 -->
<g id="node14" class="node">
<title>BB13</title>
<ellipse fill="none" stroke="black" cx="310.13" cy="-206.35" rx="41.94" ry="26.74"/>
<text text-anchor="middle" x="310.13" y="-210.15" font-family="Times New Roman,serif" font-size="14.00">[8a..94)</text>
<text text-anchor="middle" x="310.13" y="-195.15" font-family="Times New Roman,serif" font-size="14.00">0.00</text>
</g>
<!-- BB11&#45;&gt;BB13 -->
<g id="edge18" class="edge">
<title>BB11&#45;&gt;BB13</title>
<path fill="none" stroke="black" d="M309.43,-268.77C309.52,-260.8 309.63,-251.91 309.72,-243.42"/>
<polygon fill="black" stroke="black" points="313.22,-243.39 309.84,-233.35 306.22,-243.31 313.22,-243.39"/>
</g>
<!-- BB14 -->
<g id="node15" class="node">
<title>BB14</title>
<ellipse fill="none" stroke="black" cx="260.13" cy="-116.61" rx="42.35" ry="26.74"/>
<text text-anchor="middle" x="260.13" y="-120.41" font-family="Times New Roman,serif" font-size="14.00">[94..ad)</text>
<text text-anchor="middle" x="260.13" y="-105.41" font-family="Times New Roman,serif" font-size="14.00">0.00</text>
</g>
<!-- BB12&#45;&gt;BB14 -->
<g id="edge20" class="edge">
<title>BB12&#45;&gt;BB14</title>
<path fill="none" stroke="black" d="M224.06,-180.91C229.33,-171.67 235.41,-160.99 241.07,-151.06"/>
<polygon fill="black" stroke="black" points="244.2,-152.65 246.11,-142.22 238.11,-149.18 244.2,-152.65"/>
</g>
<!-- BB13&#45;&gt;BB14 -->
<g id="edge21" class="edge">
<title>BB13&#45;&gt;BB14</title>
<path fill="none" stroke="black" d="M296.21,-180.91C290.94,-171.67 284.85,-160.99 279.2,-151.06"/>
<polygon fill="black" stroke="black" points="282.15,-149.18 274.16,-142.22 276.07,-152.65 282.15,-149.18"/>
</g>
<!-- BB15 -->
<g id="node16" class="node">
<title>BB15</title>
<ellipse fill="none" stroke="black" cx="260.13" cy="-26.87" rx="43.27" ry="26.74"/>
<text text-anchor="middle" x="260.13" y="-30.67" font-family="Times New Roman,serif" font-size="14.00">[ad..b9)</text>
<text text-anchor="middle" x="260.13" y="-15.67" font-family="Times New Roman,serif" font-size="14.00">0.00</text>
</g>
<!-- BB14&#45;&gt;BB15 -->
<g id="edge23" class="edge">
<title>BB14&#45;&gt;BB15</title>
<path fill="none" stroke="black" d="M260.13,-89.29C260.13,-81.32 260.13,-72.43 260.13,-63.94"/>
<polygon fill="black" stroke="black" points="263.63,-63.87 260.13,-53.87 256.63,-63.87 263.63,-63.87"/>
</g>
<!-- BB22 -->
<g id="node23" class="node">
<title>BB22</title>
<ellipse fill="none" stroke="black" cx="417.13" cy="-26.87" rx="43.68" ry="26.74"/>
<text text-anchor="middle" x="417.13" y="-30.67" font-family="Times New Roman,serif" font-size="14.00">[d8..d9)</text>
<text text-anchor="middle" x="417.13" y="-15.67" font-family="Times New Roman,serif" font-size="14.00">0.00</text>
</g>
<!-- BB14&#45;&gt;BB22 -->
<g id="edge22" class="edge">
<title>BB14&#45;&gt;BB22</title>
<path fill="none" stroke="black" d="M291.15,-98.28C315.53,-84.65 349.7,-65.55 376.31,-50.69"/>
<polygon fill="black" stroke="black" points="378.35,-53.55 385.37,-45.62 374.94,-47.44 378.35,-53.55"/>
</g>
<!-- BB17 -->
<g id="node18" class="node">
<title>BB17</title>
<ellipse fill="none" stroke="black" cx="414.13" cy="-296.09" rx="43.68" ry="26.74"/>
<text text-anchor="middle" x="414.13" y="-299.89" font-family="Times New Roman,serif" font-size="14.00">[bd..c0)</text>
<text text-anchor="middle" x="414.13" y="-284.89" font-family="Times New Roman,serif" font-size="14.00">0.00</text>
</g>
<!-- BB16&#45;&gt;BB17 -->
<g id="edge25" class="edge">
<title>BB16&#45;&gt;BB17</title>
<path fill="none" stroke="black" d="M414.83,-358.51C414.74,-350.54 414.64,-341.65 414.54,-333.16"/>
<polygon fill="black" stroke="black" points="418.04,-333.05 414.43,-323.09 411.04,-333.13 418.04,-333.05"/>
</g>
<!-- BB18 -->
<g id="node19" class="node">
<title>BB18</title>
<ellipse fill="none" stroke="black" cx="518.13" cy="-296.09" rx="42.35" ry="26.74"/>
<text text-anchor="middle" x="518.13" y="-299.89" font-family="Times New Roman,serif" font-size="14.00">[c0..c1)</text>
<text text-anchor="middle" x="518.13" y="-284.89" font-family="Times New Roman,serif" font-size="14.00">0.00</text>
</g>
<!-- BB16&#45;&gt;BB18 -->
<g id="edge24" class="edge">
<title>BB16&#45;&gt;BB18</title>
<path fill="none" stroke="black" d="M440.07,-363.59C453.73,-351.95 470.83,-337.39 485.54,-324.85"/>
<polygon fill="black" stroke="black" points="488.09,-327.28 493.43,-318.13 483.55,-321.95 488.09,-327.28"/>
</g>
<!-- BB19 -->
<g id="node20" class="node">
<title>BB19</title>
<ellipse fill="none" stroke="black" cx="442.13" cy="-206.35" rx="43.27" ry="26.74"/>
<text text-anchor="middle" x="442.13" y="-210.15" font-family="Times New Roman,serif" font-size="14.00">[c1..cb)</text>
<text text-anchor="middle" x="442.13" y="-195.15" font-family="Times New Roman,serif" font-size="14.00">0.00</text>
</g>
<!-- BB17&#45;&gt;BB19 -->
<g id="edge26" class="edge">
<title>BB17&#45;&gt;BB19</title>
<path fill="none" stroke="black" d="M422.38,-269.24C425.03,-260.94 428.01,-251.6 430.84,-242.74"/>
<polygon fill="black" stroke="black" points="434.24,-243.61 433.94,-233.02 427.57,-241.48 434.24,-243.61"/>
</g>
<!-- BB18&#45;&gt;BB19 -->
<g id="edge27" class="edge">
<title>BB18&#45;&gt;BB19</title>
<path fill="none" stroke="black" d="M498.17,-272.04C489.18,-261.66 478.43,-249.26 468.77,-238.1"/>
<polygon fill="black" stroke="black" points="471.16,-235.52 461.97,-230.25 465.87,-240.1 471.16,-235.52"/>
</g>
<!-- BB20 -->
<g id="node21" class="node">
<title>BB20</title>
<ellipse fill="none" stroke="black" cx="364.13" cy="-116.61" rx="43.68" ry="26.74"/>
<text text-anchor="middle" x="364.13" y="-120.41" font-family="Times New Roman,serif" font-size="14.00">[cb..d3)</text>
<text text-anchor="middle" x="364.13" y="-105.41" font-family="Times New Roman,serif" font-size="14.00">0.00</text>
</g>
<!-- BB19&#45;&gt;BB20 -->
<g id="edge29" class="edge">
<title>BB19&#45;&gt;BB20</title>
<path fill="none" stroke="black" d="M421.64,-182.3C412.32,-171.82 401.18,-159.28 391.19,-148.04"/>
<polygon fill="black" stroke="black" points="393.75,-145.66 384.49,-140.51 388.52,-150.31 393.75,-145.66"/>
</g>
<!-- BB21 -->
<g id="node22" class="node">
<title>BB21</title>
<ellipse fill="none" stroke="black" cx="470.13" cy="-116.61" rx="43.68" ry="26.74"/>
<text text-anchor="middle" x="470.13" y="-120.41" font-family="Times New Roman,serif" font-size="14.00">[d3..d8)</text>
<text text-anchor="middle" x="470.13" y="-105.41" font-family="Times New Roman,serif" font-size="14.00">0.00</text>
</g>
<!-- BB19&#45;&gt;BB21 -->
<g id="edge28" class="edge">
<title>BB19&#45;&gt;BB21</title>
<path fill="none" stroke="black" d="M450.38,-179.5C453.03,-171.2 456.01,-161.86 458.84,-153"/>
<polygon fill="black" stroke="black" points="462.24,-153.87 461.94,-143.28 455.57,-151.74 462.24,-153.87"/>
</g>
<!-- BB20&#45;&gt;BB21 -->
<g id="edge30" class="edge">
<title>BB20&#45;&gt;BB21</title>
<path fill="none" stroke="black" d="M408.02,-116.61C410.64,-116.61 413.26,-116.61 415.88,-116.61"/>
<polygon fill="black" stroke="black" points="415.98,-120.11 425.98,-116.61 415.98,-113.11 415.98,-120.11"/>
</g>
<!-- BB21&#45;&gt;BB22 -->
<g id="edge31" class="edge">
<title>BB21&#45;&gt;BB22</title>
<path fill="none" stroke="black" d="M455.37,-91.17C449.79,-81.93 443.34,-71.25 437.34,-61.32"/>
<polygon fill="black" stroke="black" points="440.17,-59.23 432,-52.48 434.18,-62.85 440.17,-59.23"/>
</g>
</g>
</svg>
