<?xml version="1.0" encoding="UTF-8" standalone="no"?>
<!DOCTYPE svg PUBLIC "-//W3C//DTD SVG 1.1//EN"
 "http://www.w3.org/Graphics/SVG/1.1/DTD/svg11.dtd">
<!-- Generated by graphviz version 2.47.0 (20210316.0004)
 -->
<!-- Title: G Pages: 1 -->
<svg width="682pt" height="633pt"
 viewBox="0.00 0.00 682.37 632.83" xmlns="http://www.w3.org/2000/svg" xmlns:xlink="http://www.w3.org/1999/xlink">
<g id="graph0" class="graph" transform="scale(1 1) rotate(0) translate(4 628.83)">
<title>G</title>
<polygon fill="white" stroke="transparent" points="-4,4 -4,-628.83 678.37,-628.83 678.37,4 -4,4"/>
<!-- BB0 -->
<g id="node1" class="node">
<title>BB0</title>
<ellipse fill="none" stroke="black" cx="113.14" cy="-576.75" rx="103.48" ry="48.17"/>
<text text-anchor="middle" x="113.14" y="-595.55" font-family="Times New Roman,serif" font-size="14.00">[0..7)</text>
<text text-anchor="middle" x="113.14" y="-580.55" font-family="Times New Roman,serif" font-size="14.00">Count: 8417</text>
<text text-anchor="middle" x="113.14" y="-565.55" font-family="Times New Roman,serif" font-size="14.00">Normalized count: 1.00</text>
<text text-anchor="middle" x="113.14" y="-550.55" font-family="Times New Roman,serif" font-size="14.00">Samples weight: 0.00</text>
</g>
<!-- BB2 -->
<g id="node3" class="node">
<title>BB2</title>
<ellipse fill="none" stroke="black" cx="113.14" cy="-444.58" rx="113.27" ry="48.17"/>
<text text-anchor="middle" x="113.14" y="-463.38" font-family="Times New Roman,serif" font-size="14.00">[2e..32)</text>
<text text-anchor="middle" x="113.14" y="-448.38" font-family="Times New Roman,serif" font-size="14.00">Count: 6335599</text>
<text text-anchor="middle" x="113.14" y="-433.38" font-family="Times New Roman,serif" font-size="14.00">Normalized count: 752.71</text>
<text text-anchor="middle" x="113.14" y="-418.38" font-family="Times New Roman,serif" font-size="14.00">Samples weight: 0.50</text>
</g>
<!-- BB0&#45;&gt;BB2 -->
<g id="edge1" class="edge">
<title>BB0&#45;&gt;BB2</title>
<path fill="none" stroke="black" d="M113.14,-528.39C113.14,-520.12 113.14,-511.44 113.14,-502.93"/>
<polygon fill="black" stroke="black" points="116.64,-502.69 113.14,-492.69 109.64,-502.69 116.64,-502.69"/>
</g>
<!-- BB1 -->
<g id="node2" class="node">
<title>BB1</title>
<ellipse fill="none" stroke="black" cx="113.14" cy="-312.42" rx="113.27" ry="48.17"/>
<text text-anchor="middle" x="113.14" y="-331.22" font-family="Times New Roman,serif" font-size="14.00">[7..2e)</text>
<text text-anchor="middle" x="113.14" y="-316.22" font-family="Times New Roman,serif" font-size="14.00">Count: 6327182</text>
<text text-anchor="middle" x="113.14" y="-301.22" font-family="Times New Roman,serif" font-size="14.00">Normalized count: 751.71</text>
<text text-anchor="middle" x="113.14" y="-286.22" font-family="Times New Roman,serif" font-size="14.00">Samples weight: 0.50</text>
</g>
<!-- BB1&#45;&gt;BB2 -->
<g id="edge2" class="edge">
<title>BB1&#45;&gt;BB2</title>
<path fill="none" stroke="black" d="M119.65,-360.52C119.87,-368.78 119.94,-377.46 119.85,-385.97"/>
<polygon fill="black" stroke="black" points="116.34,-386.16 119.66,-396.22 123.34,-386.29 116.34,-386.16"/>
</g>
<!-- BB2&#45;&gt;BB1 -->
<g id="edge3" class="edge">
<title>BB2&#45;&gt;BB1</title>
<path fill="none" stroke="black" d="M106.61,-396.22C106.4,-387.95 106.34,-379.27 106.43,-370.77"/>
<polygon fill="black" stroke="black" points="109.93,-370.59 106.62,-360.52 102.93,-370.46 109.93,-370.59"/>
</g>
<!-- BB3 -->
<g id="node4" class="node">
<title>BB3</title>
<ellipse fill="none" stroke="black" cx="347.14" cy="-312.42" rx="103.48" ry="48.17"/>
<text text-anchor="middle" x="347.14" y="-331.22" font-family="Times New Roman,serif" font-size="14.00">[32..34)</text>
<text text-anchor="middle" x="347.14" y="-316.22" font-family="Times New Roman,serif" font-size="14.00">Count: 8417</text>
<text text-anchor="middle" x="347.14" y="-301.22" font-family="Times New Roman,serif" font-size="14.00">Normalized count: 1.00</text>
<text text-anchor="middle" x="347.14" y="-286.22" font-family="Times New Roman,serif" font-size="14.00">Samples weight: 0.00</text>
</g>
<!-- BB2&#45;&gt;BB3 -->
<g id="edge4" class="edge">
<title>BB2&#45;&gt;BB3</title>
<path fill="none" stroke="black" d="M180.82,-405.93C209.57,-389.94 243.17,-371.25 272.63,-354.86"/>
<polygon fill="black" stroke="black" points="274.58,-357.78 281.62,-349.86 271.18,-351.66 274.58,-357.78"/>
</g>
<!-- BB5 -->
<g id="node6" class="node">
<title>BB5</title>
<ellipse fill="none" stroke="black" cx="347.14" cy="-180.25" rx="103.48" ry="48.17"/>
<text text-anchor="middle" x="347.14" y="-199.05" font-family="Times New Roman,serif" font-size="14.00">[52..56)</text>
<text text-anchor="middle" x="347.14" y="-184.05" font-family="Times New Roman,serif" font-size="14.00">Count: 8683</text>
<text text-anchor="middle" x="347.14" y="-169.05" font-family="Times New Roman,serif" font-size="14.00">Normalized count: 1.03</text>
<text text-anchor="middle" x="347.14" y="-154.05" font-family="Times New Roman,serif" font-size="14.00">Samples weight: 0.00</text>
</g>
<!-- BB3&#45;&gt;BB5 -->
<g id="edge5" class="edge">
<title>BB3&#45;&gt;BB5</title>
<path fill="none" stroke="black" d="M347.14,-264.05C347.14,-255.79 347.14,-247.1 347.14,-238.6"/>
<polygon fill="black" stroke="black" points="350.64,-238.36 347.14,-228.36 343.64,-238.36 350.64,-238.36"/>
</g>
<!-- BB4 -->
<g id="node5" class="node">
<title>BB4</title>
<ellipse fill="none" stroke="black" cx="347.14" cy="-48.08" rx="103.48" ry="48.17"/>
<text text-anchor="middle" x="347.14" y="-66.88" font-family="Times New Roman,serif" font-size="14.00">[34..52)</text>
<text text-anchor="middle" x="347.14" y="-51.88" font-family="Times New Roman,serif" font-size="14.00">Count: 266</text>
<text text-anchor="middle" x="347.14" y="-36.88" font-family="Times New Roman,serif" font-size="14.00">Normalized count: 0.03</text>
<text text-anchor="middle" x="347.14" y="-21.88" font-family="Times New Roman,serif" font-size="14.00">Samples weight: 0.00</text>
</g>
<!-- BB4&#45;&gt;BB5 -->
<g id="edge6" class="edge">
<title>BB4&#45;&gt;BB5</title>
<path fill="none" stroke="black" d="M353.66,-96.44C353.88,-104.74 353.94,-113.45 353.84,-121.98"/>
<polygon fill="black" stroke="black" points="350.34,-122.19 353.65,-132.26 357.34,-122.32 350.34,-122.19"/>
</g>
<!-- BB5&#45;&gt;BB4 -->
<g id="edge7" class="edge">
<title>BB5&#45;&gt;BB4</title>
<path fill="none" stroke="black" d="M340.62,-132.26C340.4,-123.88 340.33,-115.07 340.43,-106.45"/>
<polygon fill="black" stroke="black" points="343.93,-106.51 340.61,-96.44 336.93,-106.38 343.93,-106.51"/>
</g>
<!-- BB6 -->
<g id="node7" class="node">
<title>BB6</title>
<ellipse fill="none" stroke="black" cx="571.14" cy="-48.08" rx="103.48" ry="48.17"/>
<text text-anchor="middle" x="571.14" y="-66.88" font-family="Times New Roman,serif" font-size="14.00">[56..57)</text>
<text text-anchor="middle" x="571.14" y="-51.88" font-family="Times New Roman,serif" font-size="14.00">Count: 8417</text>
<text text-anchor="middle" x="571.14" y="-36.88" font-family="Times New Roman,serif" font-size="14.00">Normalized count: 1.00</text>
<text text-anchor="middle" x="571.14" y="-21.88" font-family="Times New Roman,serif" font-size="14.00">Samples weight: 0.00</text>
</g>
<!-- BB5&#45;&gt;BB6 -->
<g id="edge8" class="edge">
<title>BB5&#45;&gt;BB6</title>
<path fill="none" stroke="black" d="M410.73,-142.3C438.16,-126.36 470.38,-107.63 498.73,-91.16"/>
<polygon fill="black" stroke="black" points="500.5,-94.18 507.39,-86.13 496.98,-88.13 500.5,-94.18"/>
</g>
</g>
</svg>
