<?xml version="1.0" encoding="UTF-8" standalone="no"?>
<!DOCTYPE svg PUBLIC "-//W3C//DTD SVG 1.1//EN"
 "http://www.w3.org/Graphics/SVG/1.1/DTD/svg11.dtd">
<!-- Generated by graphviz version 2.47.0 (20210316.0004)
 -->
<!-- Title: G Pages: 1 -->
<svg width="1295pt" height="860pt"
 viewBox="0.00 0.00 1294.74 859.63" xmlns="http://www.w3.org/2000/svg" xmlns:xlink="http://www.w3.org/1999/xlink">
<g id="graph0" class="graph" transform="scale(1 1) rotate(0) translate(4 855.63)">
<title>G</title>
<polygon fill="white" stroke="transparent" points="-4,4 -4,-855.63 1290.74,-855.63 1290.74,4 -4,4"/>
<!-- BB0 -->
<g id="node1" class="node">
<title>BB0</title>
<ellipse fill="none" stroke="black" cx="398.97" cy="-814.15" rx="106.55" ry="37.45"/>
<text text-anchor="middle" x="398.97" y="-825.45" font-family="Times New Roman,serif" font-size="14.00">[0..9)</text>
<text text-anchor="middle" x="398.97" y="-810.45" font-family="Times New Roman,serif" font-size="14.00">Normalized Count: NaN</text>
<text text-anchor="middle" x="398.97" y="-795.45" font-family="Times New Roman,serif" font-size="14.00">Samples weight: 0.00</text>
</g>
<!-- BB1 -->
<g id="node2" class="node">
<title>BB1</title>
<ellipse fill="none" stroke="black" cx="282.97" cy="-703.2" rx="106.55" ry="37.45"/>
<text text-anchor="middle" x="282.97" y="-714.5" font-family="Times New Roman,serif" font-size="14.00">[9..1d)</text>
<text text-anchor="middle" x="282.97" y="-699.5" font-family="Times New Roman,serif" font-size="14.00">Normalized Count: NaN</text>
<text text-anchor="middle" x="282.97" y="-684.5" font-family="Times New Roman,serif" font-size="14.00">Samples weight: 0.00</text>
</g>
<!-- BB0&#45;&gt;BB1 -->
<g id="edge2" class="edge">
<title>BB0&#45;&gt;BB1</title>
<path fill="none" stroke="black" d="M362.26,-778.68C351.05,-768.14 338.6,-756.45 326.95,-745.51"/>
<polygon fill="black" stroke="black" points="329.12,-742.74 319.43,-738.45 324.32,-747.84 329.12,-742.74"/>
</g>
<!-- BB7 -->
<g id="node8" class="node">
<title>BB7</title>
<ellipse fill="none" stroke="black" cx="514.97" cy="-703.2" rx="106.55" ry="37.45"/>
<text text-anchor="middle" x="514.97" y="-714.5" font-family="Times New Roman,serif" font-size="14.00">[4c..55)</text>
<text text-anchor="middle" x="514.97" y="-699.5" font-family="Times New Roman,serif" font-size="14.00">Normalized Count: NaN</text>
<text text-anchor="middle" x="514.97" y="-684.5" font-family="Times New Roman,serif" font-size="14.00">Samples weight: 0.00</text>
</g>
<!-- BB0&#45;&gt;BB7 -->
<g id="edge1" class="edge">
<title>BB0&#45;&gt;BB7</title>
<path fill="none" stroke="black" d="M435.67,-778.68C446.89,-768.14 459.34,-756.45 470.98,-745.51"/>
<polygon fill="black" stroke="black" points="473.61,-747.84 478.5,-738.45 468.82,-742.74 473.61,-747.84"/>
</g>
<!-- BB2 -->
<g id="node3" class="node">
<title>BB2</title>
<ellipse fill="none" stroke="black" cx="259.97" cy="-592.24" rx="115.93" ry="37.45"/>
<text text-anchor="middle" x="259.97" y="-603.54" font-family="Times New Roman,serif" font-size="14.00">[1d..29)</text>
<text text-anchor="middle" x="259.97" y="-588.54" font-family="Times New Roman,serif" font-size="14.00">Normalized Count: Infinity</text>
<text text-anchor="middle" x="259.97" y="-573.54" font-family="Times New Roman,serif" font-size="14.00">Samples weight: 0.14</text>
</g>
<!-- BB1&#45;&gt;BB2 -->
<g id="edge4" class="edge">
<title>BB1&#45;&gt;BB2</title>
<path fill="none" stroke="black" d="M275.24,-665.61C273.5,-657.35 271.62,-648.47 269.8,-639.85"/>
<polygon fill="black" stroke="black" points="273.2,-638.98 267.71,-629.92 266.35,-640.42 273.2,-638.98"/>
</g>
<!-- BB1&#45;&gt;BB7 -->
<g id="edge3" class="edge">
<title>BB1&#45;&gt;BB7</title>
<path fill="none" stroke="black" d="M389.9,-703.2C392.54,-703.2 395.18,-703.2 397.81,-703.2"/>
<polygon fill="black" stroke="black" points="397.98,-706.7 407.98,-703.2 397.98,-699.7 397.98,-706.7"/>
</g>
<!-- BB4 -->
<g id="node5" class="node">
<title>BB4</title>
<ellipse fill="none" stroke="black" cx="235.97" cy="-481.29" rx="115.93" ry="37.45"/>
<text text-anchor="middle" x="235.97" y="-492.59" font-family="Times New Roman,serif" font-size="14.00">[2d..31)</text>
<text text-anchor="middle" x="235.97" y="-477.59" font-family="Times New Roman,serif" font-size="14.00">Normalized Count: Infinity</text>
<text text-anchor="middle" x="235.97" y="-462.59" font-family="Times New Roman,serif" font-size="14.00">Samples weight: 0.19</text>
</g>
<!-- BB2&#45;&gt;BB4 -->
<g id="edge5" class="edge">
<title>BB2&#45;&gt;BB4</title>
<path fill="none" stroke="black" d="M251.91,-554.66C250.09,-546.4 248.13,-537.51 246.23,-528.9"/>
<polygon fill="black" stroke="black" points="249.61,-527.97 244.04,-518.96 242.78,-529.48 249.61,-527.97"/>
</g>
<!-- BB3 -->
<g id="node4" class="node">
<title>BB3</title>
<ellipse fill="none" stroke="black" cx="115.97" cy="-259.38" rx="115.93" ry="37.45"/>
<text text-anchor="middle" x="115.97" y="-270.68" font-family="Times New Roman,serif" font-size="14.00">[29..2d)</text>
<text text-anchor="middle" x="115.97" y="-255.68" font-family="Times New Roman,serif" font-size="14.00">Normalized Count: Infinity</text>
<text text-anchor="middle" x="115.97" y="-240.68" font-family="Times New Roman,serif" font-size="14.00">Samples weight: 0.05</text>
</g>
<!-- BB3&#45;&gt;BB4 -->
<g id="edge6" class="edge">
<title>BB3&#45;&gt;BB4</title>
<path fill="none" stroke="black" d="M83.51,-295.46C75.17,-306.61 67.32,-319.52 62.97,-332.86 52.62,-364.53 44.51,-380.08 62.97,-407.81 78.31,-430.87 102.55,-446.61 128.09,-457.35"/>
<polygon fill="black" stroke="black" points="126.95,-460.66 137.54,-461.08 129.53,-454.15 126.95,-460.66"/>
</g>
<!-- BB5 -->
<g id="node6" class="node">
<title>BB5</title>
<ellipse fill="none" stroke="black" cx="187.97" cy="-370.34" rx="115.93" ry="37.45"/>
<text text-anchor="middle" x="187.97" y="-381.64" font-family="Times New Roman,serif" font-size="14.00">[31..3e)</text>
<text text-anchor="middle" x="187.97" y="-366.64" font-family="Times New Roman,serif" font-size="14.00">Normalized Count: Infinity</text>
<text text-anchor="middle" x="187.97" y="-351.64" font-family="Times New Roman,serif" font-size="14.00">Samples weight: 0.62</text>
</g>
<!-- BB4&#45;&gt;BB5 -->
<g id="edge8" class="edge">
<title>BB4&#45;&gt;BB5</title>
<path fill="none" stroke="black" d="M219.98,-444.01C216.18,-435.37 212.07,-426.05 208.1,-417.05"/>
<polygon fill="black" stroke="black" points="211.28,-415.57 204.04,-407.83 204.87,-418.39 211.28,-415.57"/>
</g>
<!-- BB6 -->
<g id="node7" class="node">
<title>BB6</title>
<ellipse fill="none" stroke="black" cx="428.97" cy="-370.34" rx="106.55" ry="37.45"/>
<text text-anchor="middle" x="428.97" y="-381.64" font-family="Times New Roman,serif" font-size="14.00">[3e..4c)</text>
<text text-anchor="middle" x="428.97" y="-366.64" font-family="Times New Roman,serif" font-size="14.00">Normalized Count: NaN</text>
<text text-anchor="middle" x="428.97" y="-351.64" font-family="Times New Roman,serif" font-size="14.00">Samples weight: 0.00</text>
</g>
<!-- BB4&#45;&gt;BB6 -->
<g id="edge7" class="edge">
<title>BB4&#45;&gt;BB6</title>
<path fill="none" stroke="black" d="M292.31,-448.48C315,-435.67 341.3,-420.83 364.73,-407.6"/>
<polygon fill="black" stroke="black" points="366.56,-410.58 373.55,-402.62 363.12,-404.49 366.56,-410.58"/>
</g>
<!-- BB5&#45;&gt;BB3 -->
<g id="edge9" class="edge">
<title>BB5&#45;&gt;BB3</title>
<path fill="none" stroke="black" d="M164.19,-333.36C158.17,-324.25 151.63,-314.35 145.37,-304.87"/>
<polygon fill="black" stroke="black" points="148.15,-302.74 139.72,-296.32 142.31,-306.6 148.15,-302.74"/>
</g>
<!-- BB5&#45;&gt;BB6 -->
<g id="edge10" class="edge">
<title>BB5&#45;&gt;BB6</title>
<path fill="none" stroke="black" d="M304.23,-370.34C306.7,-370.34 309.16,-370.34 311.63,-370.34"/>
<polygon fill="black" stroke="black" points="311.77,-373.84 321.77,-370.34 311.77,-366.84 311.77,-373.84"/>
</g>
<!-- BB6&#45;&gt;BB7 -->
<g id="edge11" class="edge">
<title>BB6&#45;&gt;BB7</title>
<path fill="none" stroke="black" d="M418.15,-407.79C404.81,-459.93 387.9,-557.46 422.97,-629.72 429.46,-643.1 439.75,-654.75 451.13,-664.56"/>
<polygon fill="black" stroke="black" points="449.19,-667.49 459.16,-671.06 453.59,-662.05 449.19,-667.49"/>
</g>
<!-- BB8 -->
<g id="node9" class="node">
<title>BB8</title>
<ellipse fill="none" stroke="black" cx="538.97" cy="-592.24" rx="106.55" ry="37.45"/>
<text text-anchor="middle" x="538.97" y="-603.54" font-family="Times New Roman,serif" font-size="14.00">[55..61)</text>
<text text-anchor="middle" x="538.97" y="-588.54" font-family="Times New Roman,serif" font-size="14.00">Normalized Count: NaN</text>
<text text-anchor="middle" x="538.97" y="-573.54" font-family="Times New Roman,serif" font-size="14.00">Samples weight: 0.00</text>
</g>
<!-- BB7&#45;&gt;BB8 -->
<g id="edge13" class="edge">
<title>BB7&#45;&gt;BB8</title>
<path fill="none" stroke="black" d="M523.02,-665.61C524.84,-657.35 526.8,-648.47 528.7,-639.85"/>
<polygon fill="black" stroke="black" points="532.15,-640.43 530.89,-629.92 525.32,-638.93 532.15,-640.43"/>
</g>
<!-- BB9 -->
<g id="node10" class="node">
<title>BB9</title>
<ellipse fill="none" stroke="black" cx="770.97" cy="-592.24" rx="106.55" ry="37.45"/>
<text text-anchor="middle" x="770.97" y="-603.54" font-family="Times New Roman,serif" font-size="14.00">[61..6b)</text>
<text text-anchor="middle" x="770.97" y="-588.54" font-family="Times New Roman,serif" font-size="14.00">Normalized Count: NaN</text>
<text text-anchor="middle" x="770.97" y="-573.54" font-family="Times New Roman,serif" font-size="14.00">Samples weight: 0.00</text>
</g>
<!-- BB7&#45;&gt;BB9 -->
<g id="edge12" class="edge">
<title>BB7&#45;&gt;BB9</title>
<path fill="none" stroke="black" d="M581.56,-673.85C616.24,-659.1 658.8,-640.98 694.78,-625.67"/>
<polygon fill="black" stroke="black" points="696.43,-628.77 704.26,-621.63 693.69,-622.33 696.43,-628.77"/>
</g>
<!-- BB10 -->
<g id="node11" class="node">
<title>BB10</title>
<ellipse fill="none" stroke="black" cx="715.97" cy="-481.29" rx="106.55" ry="37.45"/>
<text text-anchor="middle" x="715.97" y="-492.59" font-family="Times New Roman,serif" font-size="14.00">[6b..7b)</text>
<text text-anchor="middle" x="715.97" y="-477.59" font-family="Times New Roman,serif" font-size="14.00">Normalized Count: NaN</text>
<text text-anchor="middle" x="715.97" y="-462.59" font-family="Times New Roman,serif" font-size="14.00">Samples weight: 0.00</text>
</g>
<!-- BB9&#45;&gt;BB10 -->
<g id="edge15" class="edge">
<title>BB9&#45;&gt;BB10</title>
<path fill="none" stroke="black" d="M752.8,-555.27C748.3,-546.34 743.41,-536.66 738.72,-527.36"/>
<polygon fill="black" stroke="black" points="741.74,-525.58 734.11,-518.23 735.49,-528.73 741.74,-525.58"/>
</g>
<!-- BB16 -->
<g id="node17" class="node">
<title>BB16</title>
<ellipse fill="none" stroke="black" cx="947.97" cy="-481.29" rx="106.55" ry="37.45"/>
<text text-anchor="middle" x="947.97" y="-492.59" font-family="Times New Roman,serif" font-size="14.00">[b9..bd)</text>
<text text-anchor="middle" x="947.97" y="-477.59" font-family="Times New Roman,serif" font-size="14.00">Normalized Count: NaN</text>
<text text-anchor="middle" x="947.97" y="-462.59" font-family="Times New Roman,serif" font-size="14.00">Samples weight: 0.00</text>
</g>
<!-- BB9&#45;&gt;BB16 -->
<g id="edge14" class="edge">
<title>BB9&#45;&gt;BB16</title>
<path fill="none" stroke="black" d="M822.64,-559.44C843,-546.91 866.52,-532.43 887.65,-519.42"/>
<polygon fill="black" stroke="black" points="889.55,-522.36 896.23,-514.14 885.88,-516.4 889.55,-522.36"/>
</g>
<!-- BB11 -->
<g id="node12" class="node">
<title>BB11</title>
<ellipse fill="none" stroke="black" cx="715.97" cy="-370.34" rx="106.55" ry="37.45"/>
<text text-anchor="middle" x="715.97" y="-381.64" font-family="Times New Roman,serif" font-size="14.00">[7b..7f)</text>
<text text-anchor="middle" x="715.97" y="-366.64" font-family="Times New Roman,serif" font-size="14.00">Normalized Count: NaN</text>
<text text-anchor="middle" x="715.97" y="-351.64" font-family="Times New Roman,serif" font-size="14.00">Samples weight: 0.00</text>
</g>
<!-- BB10&#45;&gt;BB11 -->
<g id="edge17" class="edge">
<title>BB10&#45;&gt;BB11</title>
<path fill="none" stroke="black" d="M715.97,-443.71C715.97,-435.53 715.97,-426.75 715.97,-418.23"/>
<polygon fill="black" stroke="black" points="719.47,-418.01 715.97,-408.01 712.47,-418.01 719.47,-418.01"/>
</g>
<!-- BB10&#45;&gt;BB16 -->
<g id="edge16" class="edge">
<title>BB10&#45;&gt;BB16</title>
<path fill="none" stroke="black" d="M822.9,-481.29C825.54,-481.29 828.18,-481.29 830.81,-481.29"/>
<polygon fill="black" stroke="black" points="830.98,-484.79 840.98,-481.29 830.98,-477.79 830.98,-484.79"/>
</g>
<!-- BB12 -->
<g id="node13" class="node">
<title>BB12</title>
<ellipse fill="none" stroke="black" cx="483.97" cy="-259.38" rx="106.55" ry="37.45"/>
<text text-anchor="middle" x="483.97" y="-270.68" font-family="Times New Roman,serif" font-size="14.00">[7f..8a)</text>
<text text-anchor="middle" x="483.97" y="-255.68" font-family="Times New Roman,serif" font-size="14.00">Normalized Count: NaN</text>
<text text-anchor="middle" x="483.97" y="-240.68" font-family="Times New Roman,serif" font-size="14.00">Samples weight: 0.00</text>
</g>
<!-- BB11&#45;&gt;BB12 -->
<g id="edge19" class="edge">
<title>BB11&#45;&gt;BB12</title>
<path fill="none" stroke="black" d="M653.18,-339.85C623.14,-325.74 587.01,-308.78 555.86,-294.15"/>
<polygon fill="black" stroke="black" points="557.34,-290.97 546.8,-289.89 554.36,-297.31 557.34,-290.97"/>
</g>
<!-- BB13 -->
<g id="node14" class="node">
<title>BB13</title>
<ellipse fill="none" stroke="black" cx="715.97" cy="-259.38" rx="106.55" ry="37.45"/>
<text text-anchor="middle" x="715.97" y="-270.68" font-family="Times New Roman,serif" font-size="14.00">[8a..94)</text>
<text text-anchor="middle" x="715.97" y="-255.68" font-family="Times New Roman,serif" font-size="14.00">Normalized Count: NaN</text>
<text text-anchor="middle" x="715.97" y="-240.68" font-family="Times New Roman,serif" font-size="14.00">Samples weight: 0.00</text>
</g>
<!-- BB11&#45;&gt;BB13 -->
<g id="edge18" class="edge">
<title>BB11&#45;&gt;BB13</title>
<path fill="none" stroke="black" d="M715.97,-332.75C715.97,-324.58 715.97,-315.8 715.97,-307.27"/>
<polygon fill="black" stroke="black" points="719.47,-307.06 715.97,-297.06 712.47,-307.06 719.47,-307.06"/>
</g>
<!-- BB14 -->
<g id="node15" class="node">
<title>BB14</title>
<ellipse fill="none" stroke="black" cx="657.97" cy="-148.43" rx="106.55" ry="37.45"/>
<text text-anchor="middle" x="657.97" y="-159.73" font-family="Times New Roman,serif" font-size="14.00">[94..ad)</text>
<text text-anchor="middle" x="657.97" y="-144.73" font-family="Times New Roman,serif" font-size="14.00">Normalized Count: NaN</text>
<text text-anchor="middle" x="657.97" y="-129.73" font-family="Times New Roman,serif" font-size="14.00">Samples weight: 0.00</text>
</g>
<!-- BB12&#45;&gt;BB14 -->
<g id="edge20" class="edge">
<title>BB12&#45;&gt;BB14</title>
<path fill="none" stroke="black" d="M535.23,-226.28C554.97,-213.93 577.67,-199.71 598.14,-186.89"/>
<polygon fill="black" stroke="black" points="600.15,-189.76 606.77,-181.49 596.43,-183.83 600.15,-189.76"/>
</g>
<!-- BB13&#45;&gt;BB14 -->
<g id="edge21" class="edge">
<title>BB13&#45;&gt;BB14</title>
<path fill="none" stroke="black" d="M696.81,-222.41C692.01,-213.39 686.8,-203.6 681.8,-194.21"/>
<polygon fill="black" stroke="black" points="684.89,-192.55 677.1,-185.37 678.71,-195.84 684.89,-192.55"/>
</g>
<!-- BB15 -->
<g id="node16" class="node">
<title>BB15</title>
<ellipse fill="none" stroke="black" cx="657.97" cy="-37.48" rx="106.55" ry="37.45"/>
<text text-anchor="middle" x="657.97" y="-48.78" font-family="Times New Roman,serif" font-size="14.00">[ad..b9)</text>
<text text-anchor="middle" x="657.97" y="-33.78" font-family="Times New Roman,serif" font-size="14.00">Normalized Count: NaN</text>
<text text-anchor="middle" x="657.97" y="-18.78" font-family="Times New Roman,serif" font-size="14.00">Samples weight: 0.00</text>
</g>
<!-- BB14&#45;&gt;BB15 -->
<g id="edge23" class="edge">
<title>BB14&#45;&gt;BB15</title>
<path fill="none" stroke="black" d="M657.97,-110.85C657.97,-102.67 657.97,-93.89 657.97,-85.37"/>
<polygon fill="black" stroke="black" points="661.47,-85.15 657.97,-75.15 654.47,-85.15 661.47,-85.15"/>
</g>
<!-- BB22 -->
<g id="node23" class="node">
<title>BB22</title>
<ellipse fill="none" stroke="black" cx="1005.97" cy="-37.48" rx="106.55" ry="37.45"/>
<text text-anchor="middle" x="1005.97" y="-48.78" font-family="Times New Roman,serif" font-size="14.00">[d8..d9)</text>
<text text-anchor="middle" x="1005.97" y="-33.78" font-family="Times New Roman,serif" font-size="14.00">Normalized Count: NaN</text>
<text text-anchor="middle" x="1005.97" y="-18.78" font-family="Times New Roman,serif" font-size="14.00">Samples weight: 0.00</text>
</g>
<!-- BB14&#45;&gt;BB22 -->
<g id="edge22" class="edge">
<title>BB14&#45;&gt;BB22</title>
<path fill="none" stroke="black" d="M736.27,-122.79C748.87,-118.82 761.78,-114.77 773.97,-110.95 821.51,-96.05 874.55,-79.48 917.9,-65.95"/>
<polygon fill="black" stroke="black" points="919.06,-69.25 927.56,-62.93 916.97,-62.57 919.06,-69.25"/>
</g>
<!-- BB17 -->
<g id="node18" class="node">
<title>BB17</title>
<ellipse fill="none" stroke="black" cx="947.97" cy="-370.34" rx="106.55" ry="37.45"/>
<text text-anchor="middle" x="947.97" y="-381.64" font-family="Times New Roman,serif" font-size="14.00">[bd..c0)</text>
<text text-anchor="middle" x="947.97" y="-366.64" font-family="Times New Roman,serif" font-size="14.00">Normalized Count: NaN</text>
<text text-anchor="middle" x="947.97" y="-351.64" font-family="Times New Roman,serif" font-size="14.00">Samples weight: 0.00</text>
</g>
<!-- BB16&#45;&gt;BB17 -->
<g id="edge25" class="edge">
<title>BB16&#45;&gt;BB17</title>
<path fill="none" stroke="black" d="M947.97,-443.71C947.97,-435.53 947.97,-426.75 947.97,-418.23"/>
<polygon fill="black" stroke="black" points="951.47,-418.01 947.97,-408.01 944.47,-418.01 951.47,-418.01"/>
</g>
<!-- BB18 -->
<g id="node19" class="node">
<title>BB18</title>
<ellipse fill="none" stroke="black" cx="1179.97" cy="-370.34" rx="106.55" ry="37.45"/>
<text text-anchor="middle" x="1179.97" y="-381.64" font-family="Times New Roman,serif" font-size="14.00">[c0..c1)</text>
<text text-anchor="middle" x="1179.97" y="-366.64" font-family="Times New Roman,serif" font-size="14.00">Normalized Count: NaN</text>
<text text-anchor="middle" x="1179.97" y="-351.64" font-family="Times New Roman,serif" font-size="14.00">Samples weight: 0.00</text>
</g>
<!-- BB16&#45;&gt;BB18 -->
<g id="edge24" class="edge">
<title>BB16&#45;&gt;BB18</title>
<path fill="none" stroke="black" d="M1010.75,-450.81C1040.79,-436.7 1076.92,-419.73 1108.07,-405.1"/>
<polygon fill="black" stroke="black" points="1109.57,-408.26 1117.13,-400.84 1106.59,-401.93 1109.57,-408.26"/>
</g>
<!-- BB19 -->
<g id="node20" class="node">
<title>BB19</title>
<ellipse fill="none" stroke="black" cx="1005.97" cy="-259.38" rx="106.55" ry="37.45"/>
<text text-anchor="middle" x="1005.97" y="-270.68" font-family="Times New Roman,serif" font-size="14.00">[c1..cb)</text>
<text text-anchor="middle" x="1005.97" y="-255.68" font-family="Times New Roman,serif" font-size="14.00">Normalized Count: NaN</text>
<text text-anchor="middle" x="1005.97" y="-240.68" font-family="Times New Roman,serif" font-size="14.00">Samples weight: 0.00</text>
</g>
<!-- BB17&#45;&gt;BB19 -->
<g id="edge26" class="edge">
<title>BB17&#45;&gt;BB19</title>
<path fill="none" stroke="black" d="M967.12,-333.36C971.92,-324.34 977.13,-314.55 982.13,-305.17"/>
<polygon fill="black" stroke="black" points="985.22,-306.79 986.83,-296.32 979.04,-303.51 985.22,-306.79"/>
</g>
<!-- BB18&#45;&gt;BB19 -->
<g id="edge27" class="edge">
<title>BB18&#45;&gt;BB19</title>
<path fill="none" stroke="black" d="M1128.7,-337.24C1108.97,-324.88 1086.26,-310.66 1065.79,-297.84"/>
<polygon fill="black" stroke="black" points="1067.5,-294.78 1057.16,-292.44 1063.78,-300.72 1067.5,-294.78"/>
</g>
<!-- BB20 -->
<g id="node21" class="node">
<title>BB20</title>
<ellipse fill="none" stroke="black" cx="889.97" cy="-148.43" rx="106.55" ry="37.45"/>
<text text-anchor="middle" x="889.97" y="-159.73" font-family="Times New Roman,serif" font-size="14.00">[cb..d3)</text>
<text text-anchor="middle" x="889.97" y="-144.73" font-family="Times New Roman,serif" font-size="14.00">Normalized Count: NaN</text>
<text text-anchor="middle" x="889.97" y="-129.73" font-family="Times New Roman,serif" font-size="14.00">Samples weight: 0.00</text>
</g>
<!-- BB19&#45;&gt;BB20 -->
<g id="edge29" class="edge">
<title>BB19&#45;&gt;BB20</title>
<path fill="none" stroke="black" d="M969.26,-223.91C958.05,-213.37 945.6,-201.68 933.95,-190.74"/>
<polygon fill="black" stroke="black" points="936.12,-187.97 926.43,-183.68 931.32,-193.08 936.12,-187.97"/>
</g>
<!-- BB21 -->
<g id="node22" class="node">
<title>BB21</title>
<ellipse fill="none" stroke="black" cx="1121.97" cy="-148.43" rx="106.55" ry="37.45"/>
<text text-anchor="middle" x="1121.97" y="-159.73" font-family="Times New Roman,serif" font-size="14.00">[d3..d8)</text>
<text text-anchor="middle" x="1121.97" y="-144.73" font-family="Times New Roman,serif" font-size="14.00">Normalized Count: NaN</text>
<text text-anchor="middle" x="1121.97" y="-129.73" font-family="Times New Roman,serif" font-size="14.00">Samples weight: 0.00</text>
</g>
<!-- BB19&#45;&gt;BB21 -->
<g id="edge28" class="edge">
<title>BB19&#45;&gt;BB21</title>
<path fill="none" stroke="black" d="M1042.67,-223.91C1053.89,-213.37 1066.34,-201.68 1077.98,-190.74"/>
<polygon fill="black" stroke="black" points="1080.61,-193.08 1085.5,-183.68 1075.82,-187.97 1080.61,-193.08"/>
</g>
<!-- BB20&#45;&gt;BB21 -->
<g id="edge30" class="edge">
<title>BB20&#45;&gt;BB21</title>
<path fill="none" stroke="black" d="M996.9,-148.43C999.54,-148.43 1002.18,-148.43 1004.81,-148.43"/>
<polygon fill="black" stroke="black" points="1004.98,-151.93 1014.98,-148.43 1004.98,-144.93 1004.98,-151.93"/>
</g>
<!-- BB21&#45;&gt;BB22 -->
<g id="edge31" class="edge">
<title>BB21&#45;&gt;BB22</title>
<path fill="none" stroke="black" d="M1085.26,-112.96C1074.05,-102.42 1061.6,-90.73 1049.95,-79.79"/>
<polygon fill="black" stroke="black" points="1052.12,-77.02 1042.43,-72.73 1047.32,-82.12 1052.12,-77.02"/>
</g>
</g>
</svg>
