<?xml version="1.0" encoding="UTF-8" standalone="no"?>
<!DOCTYPE svg PUBLIC "-//W3C//DTD SVG 1.1//EN"
 "http://www.w3.org/Graphics/SVG/1.1/DTD/svg11.dtd">
<!-- Generated by graphviz version 2.47.0 (20210316.0004)
 -->
<!-- Title: G Pages: 1 -->
<svg width="1255pt" height="860pt"
 viewBox="0.00 0.00 1254.72 859.63" xmlns="http://www.w3.org/2000/svg" xmlns:xlink="http://www.w3.org/1999/xlink">
<g id="graph0" class="graph" transform="scale(1 1) rotate(0) translate(4 855.63)">
<title>G</title>
<polygon fill="white" stroke="transparent" points="-4,4 -4,-855.63 1250.72,-855.63 1250.72,4 -4,4"/>
<!-- BB0 -->
<g id="node1" class="node">
<title>BB0</title>
<ellipse fill="none" stroke="black" cx="375.36" cy="-814.15" rx="105.22" ry="37.45"/>
<text text-anchor="middle" x="375.36" y="-825.45" font-family="Times New Roman,serif" font-size="14.00">[0..9)</text>
<text text-anchor="middle" x="375.36" y="-810.45" font-family="Times New Roman,serif" font-size="14.00">Normalized Count: 1.00</text>
<text text-anchor="middle" x="375.36" y="-795.45" font-family="Times New Roman,serif" font-size="14.00">Samples weight: 0.05</text>
</g>
<!-- BB1 -->
<g id="node2" class="node">
<title>BB1</title>
<ellipse fill="none" stroke="black" cx="261.36" cy="-703.2" rx="105.22" ry="37.45"/>
<text text-anchor="middle" x="261.36" y="-714.5" font-family="Times New Roman,serif" font-size="14.00">[9..1d)</text>
<text text-anchor="middle" x="261.36" y="-699.5" font-family="Times New Roman,serif" font-size="14.00">Normalized Count: 1.00</text>
<text text-anchor="middle" x="261.36" y="-684.5" font-family="Times New Roman,serif" font-size="14.00">Samples weight: 0.05</text>
</g>
<!-- BB0&#45;&gt;BB1 -->
<g id="edge2" class="edge">
<title>BB0&#45;&gt;BB1</title>
<path fill="none" stroke="black" d="M339.29,-778.68C328.27,-768.14 316.03,-756.45 304.58,-745.51"/>
<polygon fill="black" stroke="black" points="306.84,-742.82 297.19,-738.45 302.01,-747.89 306.84,-742.82"/>
</g>
<!-- BB7 -->
<g id="node8" class="node">
<title>BB7</title>
<ellipse fill="none" stroke="black" cx="490.36" cy="-703.2" rx="105.22" ry="37.45"/>
<text text-anchor="middle" x="490.36" y="-714.5" font-family="Times New Roman,serif" font-size="14.00">[4c..55)</text>
<text text-anchor="middle" x="490.36" y="-699.5" font-family="Times New Roman,serif" font-size="14.00">Normalized Count: 1.00</text>
<text text-anchor="middle" x="490.36" y="-684.5" font-family="Times New Roman,serif" font-size="14.00">Samples weight: 0.05</text>
</g>
<!-- BB0&#45;&gt;BB7 -->
<g id="edge1" class="edge">
<title>BB0&#45;&gt;BB7</title>
<path fill="none" stroke="black" d="M411.75,-778.68C422.87,-768.14 435.21,-756.45 446.76,-745.51"/>
<polygon fill="black" stroke="black" points="449.36,-747.86 454.21,-738.45 444.54,-742.78 449.36,-747.86"/>
</g>
<!-- BB2 -->
<g id="node3" class="node">
<title>BB2</title>
<ellipse fill="none" stroke="black" cx="243.36" cy="-592.24" rx="105.22" ry="37.45"/>
<text text-anchor="middle" x="243.36" y="-603.54" font-family="Times New Roman,serif" font-size="14.00">[1d..29)</text>
<text text-anchor="middle" x="243.36" y="-588.54" font-family="Times New Roman,serif" font-size="14.00">Normalized Count: 1.00</text>
<text text-anchor="middle" x="243.36" y="-573.54" font-family="Times New Roman,serif" font-size="14.00">Samples weight: 0.05</text>
</g>
<!-- BB1&#45;&gt;BB2 -->
<g id="edge4" class="edge">
<title>BB1&#45;&gt;BB2</title>
<path fill="none" stroke="black" d="M255.32,-665.61C253.95,-657.35 252.48,-648.47 251.06,-639.85"/>
<polygon fill="black" stroke="black" points="254.5,-639.21 249.42,-629.92 247.59,-640.35 254.5,-639.21"/>
</g>
<!-- BB1&#45;&gt;BB7 -->
<g id="edge3" class="edge">
<title>BB1&#45;&gt;BB7</title>
<path fill="none" stroke="black" d="M366.91,-703.2C369.52,-703.2 372.12,-703.2 374.72,-703.2"/>
<polygon fill="black" stroke="black" points="374.76,-706.7 384.76,-703.2 374.76,-699.7 374.76,-706.7"/>
</g>
<!-- BB4 -->
<g id="node5" class="node">
<title>BB4</title>
<ellipse fill="none" stroke="black" cx="219.36" cy="-481.29" rx="105.22" ry="37.45"/>
<text text-anchor="middle" x="219.36" y="-492.59" font-family="Times New Roman,serif" font-size="14.00">[2d..31)</text>
<text text-anchor="middle" x="219.36" y="-477.59" font-family="Times New Roman,serif" font-size="14.00">Normalized Count: 4.50</text>
<text text-anchor="middle" x="219.36" y="-462.59" font-family="Times New Roman,serif" font-size="14.00">Samples weight: 0.24</text>
</g>
<!-- BB2&#45;&gt;BB4 -->
<g id="edge5" class="edge">
<title>BB2&#45;&gt;BB4</title>
<path fill="none" stroke="black" d="M235.3,-554.66C233.48,-546.4 231.52,-537.51 229.63,-528.9"/>
<polygon fill="black" stroke="black" points="233.01,-527.97 227.44,-518.96 226.17,-529.48 233.01,-527.97"/>
</g>
<!-- BB3 -->
<g id="node4" class="node">
<title>BB3</title>
<ellipse fill="none" stroke="black" cx="105.36" cy="-259.38" rx="105.22" ry="37.45"/>
<text text-anchor="middle" x="105.36" y="-270.68" font-family="Times New Roman,serif" font-size="14.00">[29..2d)</text>
<text text-anchor="middle" x="105.36" y="-255.68" font-family="Times New Roman,serif" font-size="14.00">Normalized Count: 3.50</text>
<text text-anchor="middle" x="105.36" y="-240.68" font-family="Times New Roman,serif" font-size="14.00">Samples weight: 0.19</text>
</g>
<!-- BB3&#45;&gt;BB4 -->
<g id="edge6" class="edge">
<title>BB3&#45;&gt;BB4</title>
<path fill="none" stroke="black" d="M77.63,-295.69C56.62,-327.04 34.89,-373.14 57.36,-407.81 72.14,-430.63 95.98,-446.32 120.87,-457.1"/>
<polygon fill="black" stroke="black" points="119.87,-460.47 130.45,-460.99 122.5,-453.98 119.87,-460.47"/>
</g>
<!-- BB5 -->
<g id="node6" class="node">
<title>BB5</title>
<ellipse fill="none" stroke="black" cx="171.36" cy="-370.34" rx="105.22" ry="37.45"/>
<text text-anchor="middle" x="171.36" y="-381.64" font-family="Times New Roman,serif" font-size="14.00">[31..3e)</text>
<text text-anchor="middle" x="171.36" y="-366.64" font-family="Times New Roman,serif" font-size="14.00">Normalized Count: 4.50</text>
<text text-anchor="middle" x="171.36" y="-351.64" font-family="Times New Roman,serif" font-size="14.00">Samples weight: 0.24</text>
</g>
<!-- BB4&#45;&gt;BB5 -->
<g id="edge8" class="edge">
<title>BB4&#45;&gt;BB5</title>
<path fill="none" stroke="black" d="M203.38,-444.01C199.53,-435.28 195.37,-425.85 191.37,-416.76"/>
<polygon fill="black" stroke="black" points="194.51,-415.2 187.27,-407.46 188.1,-418.02 194.51,-415.2"/>
</g>
<!-- BB6 -->
<g id="node7" class="node">
<title>BB6</title>
<ellipse fill="none" stroke="black" cx="400.36" cy="-370.34" rx="105.22" ry="37.45"/>
<text text-anchor="middle" x="400.36" y="-381.64" font-family="Times New Roman,serif" font-size="14.00">[3e..4c)</text>
<text text-anchor="middle" x="400.36" y="-366.64" font-family="Times New Roman,serif" font-size="14.00">Normalized Count: 1.00</text>
<text text-anchor="middle" x="400.36" y="-351.64" font-family="Times New Roman,serif" font-size="14.00">Samples weight: 0.05</text>
</g>
<!-- BB4&#45;&gt;BB6 -->
<g id="edge7" class="edge">
<title>BB4&#45;&gt;BB6</title>
<path fill="none" stroke="black" d="M272.2,-448.48C293.11,-435.9 317.28,-421.34 338.96,-408.29"/>
<polygon fill="black" stroke="black" points="341,-411.15 347.77,-402.99 337.39,-405.15 341,-411.15"/>
</g>
<!-- BB5&#45;&gt;BB3 -->
<g id="edge9" class="edge">
<title>BB5&#45;&gt;BB3</title>
<path fill="none" stroke="black" d="M149.57,-333.36C144.1,-324.34 138.17,-314.55 132.49,-305.17"/>
<polygon fill="black" stroke="black" points="135.3,-303.06 127.13,-296.32 129.32,-306.69 135.3,-303.06"/>
</g>
<!-- BB5&#45;&gt;BB6 -->
<g id="edge10" class="edge">
<title>BB5&#45;&gt;BB6</title>
<path fill="none" stroke="black" d="M276.91,-370.34C279.52,-370.34 282.12,-370.34 284.72,-370.34"/>
<polygon fill="black" stroke="black" points="284.76,-373.84 294.76,-370.34 284.76,-366.84 284.76,-373.84"/>
</g>
<!-- BB6&#45;&gt;BB7 -->
<g id="edge11" class="edge">
<title>BB6&#45;&gt;BB7</title>
<path fill="none" stroke="black" d="M389.61,-407.87C376.38,-460.09 359.74,-557.74 395.36,-629.72 402.15,-643.45 412.93,-655.28 424.82,-665.18"/>
<polygon fill="black" stroke="black" points="422.74,-667.99 432.77,-671.4 427.06,-662.48 422.74,-667.99"/>
</g>
<!-- BB8 -->
<g id="node9" class="node">
<title>BB8</title>
<ellipse fill="none" stroke="black" cx="509.36" cy="-592.24" rx="105.22" ry="37.45"/>
<text text-anchor="middle" x="509.36" y="-603.54" font-family="Times New Roman,serif" font-size="14.00">[55..61)</text>
<text text-anchor="middle" x="509.36" y="-588.54" font-family="Times New Roman,serif" font-size="14.00">Normalized Count: 1.00</text>
<text text-anchor="middle" x="509.36" y="-573.54" font-family="Times New Roman,serif" font-size="14.00">Samples weight: 0.05</text>
</g>
<!-- BB7&#45;&gt;BB8 -->
<g id="edge13" class="edge">
<title>BB7&#45;&gt;BB8</title>
<path fill="none" stroke="black" d="M496.74,-665.61C498.18,-657.35 499.73,-648.47 501.23,-639.85"/>
<polygon fill="black" stroke="black" points="504.69,-640.37 502.96,-629.92 497.8,-639.17 504.69,-640.37"/>
</g>
<!-- BB9 -->
<g id="node10" class="node">
<title>BB9</title>
<ellipse fill="none" stroke="black" cx="738.36" cy="-592.24" rx="105.22" ry="37.45"/>
<text text-anchor="middle" x="738.36" y="-603.54" font-family="Times New Roman,serif" font-size="14.00">[61..6b)</text>
<text text-anchor="middle" x="738.36" y="-588.54" font-family="Times New Roman,serif" font-size="14.00">Normalized Count: 0.00</text>
<text text-anchor="middle" x="738.36" y="-573.54" font-family="Times New Roman,serif" font-size="14.00">Samples weight: 0.00</text>
</g>
<!-- BB7&#45;&gt;BB9 -->
<g id="edge12" class="edge">
<title>BB7&#45;&gt;BB9</title>
<path fill="none" stroke="black" d="M555.52,-673.57C588.71,-658.99 629.22,-641.19 663.66,-626.06"/>
<polygon fill="black" stroke="black" points="665.46,-629.09 673.2,-621.87 662.64,-622.69 665.46,-629.09"/>
</g>
<!-- BB10 -->
<g id="node11" class="node">
<title>BB10</title>
<ellipse fill="none" stroke="black" cx="683.36" cy="-481.29" rx="105.22" ry="37.45"/>
<text text-anchor="middle" x="683.36" y="-492.59" font-family="Times New Roman,serif" font-size="14.00">[6b..7b)</text>
<text text-anchor="middle" x="683.36" y="-477.59" font-family="Times New Roman,serif" font-size="14.00">Normalized Count: 0.00</text>
<text text-anchor="middle" x="683.36" y="-462.59" font-family="Times New Roman,serif" font-size="14.00">Samples weight: 0.00</text>
</g>
<!-- BB9&#45;&gt;BB10 -->
<g id="edge15" class="edge">
<title>BB9&#45;&gt;BB10</title>
<path fill="none" stroke="black" d="M720.2,-555.27C715.69,-546.34 710.81,-536.66 706.11,-527.36"/>
<polygon fill="black" stroke="black" points="709.13,-525.58 701.5,-518.23 702.88,-528.73 709.13,-525.58"/>
</g>
<!-- BB16 -->
<g id="node17" class="node">
<title>BB16</title>
<ellipse fill="none" stroke="black" cx="912.36" cy="-481.29" rx="105.22" ry="37.45"/>
<text text-anchor="middle" x="912.36" y="-492.59" font-family="Times New Roman,serif" font-size="14.00">[b9..bd)</text>
<text text-anchor="middle" x="912.36" y="-477.59" font-family="Times New Roman,serif" font-size="14.00">Normalized Count: 0.00</text>
<text text-anchor="middle" x="912.36" y="-462.59" font-family="Times New Roman,serif" font-size="14.00">Samples weight: 0.00</text>
</g>
<!-- BB9&#45;&gt;BB16 -->
<g id="edge14" class="edge">
<title>BB9&#45;&gt;BB16</title>
<path fill="none" stroke="black" d="M789.62,-559.14C809.45,-546.73 832.27,-532.44 852.81,-519.58"/>
<polygon fill="black" stroke="black" points="854.84,-522.43 861.46,-514.16 851.13,-516.5 854.84,-522.43"/>
</g>
<!-- BB11 -->
<g id="node12" class="node">
<title>BB11</title>
<ellipse fill="none" stroke="black" cx="683.36" cy="-370.34" rx="105.22" ry="37.45"/>
<text text-anchor="middle" x="683.36" y="-381.64" font-family="Times New Roman,serif" font-size="14.00">[7b..7f)</text>
<text text-anchor="middle" x="683.36" y="-366.64" font-family="Times New Roman,serif" font-size="14.00">Normalized Count: 0.00</text>
<text text-anchor="middle" x="683.36" y="-351.64" font-family="Times New Roman,serif" font-size="14.00">Samples weight: 0.00</text>
</g>
<!-- BB10&#45;&gt;BB11 -->
<g id="edge17" class="edge">
<title>BB10&#45;&gt;BB11</title>
<path fill="none" stroke="black" d="M683.36,-443.71C683.36,-435.53 683.36,-426.75 683.36,-418.23"/>
<polygon fill="black" stroke="black" points="686.86,-418.01 683.36,-408.01 679.86,-418.01 686.86,-418.01"/>
</g>
<!-- BB10&#45;&gt;BB16 -->
<g id="edge16" class="edge">
<title>BB10&#45;&gt;BB16</title>
<path fill="none" stroke="black" d="M788.91,-481.29C791.52,-481.29 794.12,-481.29 796.72,-481.29"/>
<polygon fill="black" stroke="black" points="796.76,-484.79 806.76,-481.29 796.76,-477.79 796.76,-484.79"/>
</g>
<!-- BB12 -->
<g id="node13" class="node">
<title>BB12</title>
<ellipse fill="none" stroke="black" cx="454.36" cy="-259.38" rx="105.22" ry="37.45"/>
<text text-anchor="middle" x="454.36" y="-270.68" font-family="Times New Roman,serif" font-size="14.00">[7f..8a)</text>
<text text-anchor="middle" x="454.36" y="-255.68" font-family="Times New Roman,serif" font-size="14.00">Normalized Count: 0.00</text>
<text text-anchor="middle" x="454.36" y="-240.68" font-family="Times New Roman,serif" font-size="14.00">Samples weight: 0.00</text>
</g>
<!-- BB11&#45;&gt;BB12 -->
<g id="edge19" class="edge">
<title>BB11&#45;&gt;BB12</title>
<path fill="none" stroke="black" d="M621.39,-339.85C591.86,-325.8 556.38,-308.92 525.72,-294.34"/>
<polygon fill="black" stroke="black" points="526.91,-291.03 516.38,-289.89 523.91,-297.35 526.91,-291.03"/>
</g>
<!-- BB13 -->
<g id="node14" class="node">
<title>BB13</title>
<ellipse fill="none" stroke="black" cx="683.36" cy="-259.38" rx="105.22" ry="37.45"/>
<text text-anchor="middle" x="683.36" y="-270.68" font-family="Times New Roman,serif" font-size="14.00">[8a..94)</text>
<text text-anchor="middle" x="683.36" y="-255.68" font-family="Times New Roman,serif" font-size="14.00">Normalized Count: 0.00</text>
<text text-anchor="middle" x="683.36" y="-240.68" font-family="Times New Roman,serif" font-size="14.00">Samples weight: 0.00</text>
</g>
<!-- BB11&#45;&gt;BB13 -->
<g id="edge18" class="edge">
<title>BB11&#45;&gt;BB13</title>
<path fill="none" stroke="black" d="M683.36,-332.75C683.36,-324.58 683.36,-315.8 683.36,-307.27"/>
<polygon fill="black" stroke="black" points="686.86,-307.06 683.36,-297.06 679.86,-307.06 686.86,-307.06"/>
</g>
<!-- BB14 -->
<g id="node15" class="node">
<title>BB14</title>
<ellipse fill="none" stroke="black" cx="625.36" cy="-148.43" rx="105.22" ry="37.45"/>
<text text-anchor="middle" x="625.36" y="-159.73" font-family="Times New Roman,serif" font-size="14.00">[94..ad)</text>
<text text-anchor="middle" x="625.36" y="-144.73" font-family="Times New Roman,serif" font-size="14.00">Normalized Count: 0.00</text>
<text text-anchor="middle" x="625.36" y="-129.73" font-family="Times New Roman,serif" font-size="14.00">Samples weight: 0.00</text>
</g>
<!-- BB12&#45;&gt;BB14 -->
<g id="edge20" class="edge">
<title>BB12&#45;&gt;BB14</title>
<path fill="none" stroke="black" d="M504.74,-226.28C524.14,-213.93 546.45,-199.71 566.57,-186.89"/>
<polygon fill="black" stroke="black" points="568.49,-189.81 575.04,-181.49 564.73,-183.91 568.49,-189.81"/>
</g>
<!-- BB13&#45;&gt;BB14 -->
<g id="edge21" class="edge">
<title>BB13&#45;&gt;BB14</title>
<path fill="none" stroke="black" d="M664.21,-222.41C659.41,-213.39 654.2,-203.6 649.2,-194.21"/>
<polygon fill="black" stroke="black" points="652.28,-192.55 644.49,-185.37 646.1,-195.84 652.28,-192.55"/>
</g>
<!-- BB15 -->
<g id="node16" class="node">
<title>BB15</title>
<ellipse fill="none" stroke="black" cx="625.36" cy="-37.48" rx="105.22" ry="37.45"/>
<text text-anchor="middle" x="625.36" y="-48.78" font-family="Times New Roman,serif" font-size="14.00">[ad..b9)</text>
<text text-anchor="middle" x="625.36" y="-33.78" font-family="Times New Roman,serif" font-size="14.00">Normalized Count: 0.00</text>
<text text-anchor="middle" x="625.36" y="-18.78" font-family="Times New Roman,serif" font-size="14.00">Samples weight: 0.00</text>
</g>
<!-- BB14&#45;&gt;BB15 -->
<g id="edge23" class="edge">
<title>BB14&#45;&gt;BB15</title>
<path fill="none" stroke="black" d="M625.36,-110.85C625.36,-102.67 625.36,-93.89 625.36,-85.37"/>
<polygon fill="black" stroke="black" points="628.86,-85.15 625.36,-75.15 621.86,-85.15 628.86,-85.15"/>
</g>
<!-- BB22 -->
<g id="node23" class="node">
<title>BB22</title>
<ellipse fill="none" stroke="black" cx="968.36" cy="-37.48" rx="105.22" ry="37.45"/>
<text text-anchor="middle" x="968.36" y="-48.78" font-family="Times New Roman,serif" font-size="14.00">[d8..d9)</text>
<text text-anchor="middle" x="968.36" y="-33.78" font-family="Times New Roman,serif" font-size="14.00">Normalized Count: 0.00</text>
<text text-anchor="middle" x="968.36" y="-18.78" font-family="Times New Roman,serif" font-size="14.00">Samples weight: 0.00</text>
</g>
<!-- BB14&#45;&gt;BB22 -->
<g id="edge22" class="edge">
<title>BB14&#45;&gt;BB22</title>
<path fill="none" stroke="black" d="M702.76,-122.84C755.79,-106 826.21,-83.63 881.21,-66.16"/>
<polygon fill="black" stroke="black" points="882.47,-69.43 890.94,-63.07 880.35,-62.76 882.47,-69.43"/>
</g>
<!-- BB17 -->
<g id="node18" class="node">
<title>BB17</title>
<ellipse fill="none" stroke="black" cx="912.36" cy="-370.34" rx="105.22" ry="37.45"/>
<text text-anchor="middle" x="912.36" y="-381.64" font-family="Times New Roman,serif" font-size="14.00">[bd..c0)</text>
<text text-anchor="middle" x="912.36" y="-366.64" font-family="Times New Roman,serif" font-size="14.00">Normalized Count: 0.00</text>
<text text-anchor="middle" x="912.36" y="-351.64" font-family="Times New Roman,serif" font-size="14.00">Samples weight: 0.00</text>
</g>
<!-- BB16&#45;&gt;BB17 -->
<g id="edge25" class="edge">
<title>BB16&#45;&gt;BB17</title>
<path fill="none" stroke="black" d="M912.36,-443.71C912.36,-435.53 912.36,-426.75 912.36,-418.23"/>
<polygon fill="black" stroke="black" points="915.86,-418.01 912.36,-408.01 908.86,-418.01 915.86,-418.01"/>
</g>
<!-- BB18 -->
<g id="node19" class="node">
<title>BB18</title>
<ellipse fill="none" stroke="black" cx="1141.36" cy="-370.34" rx="105.22" ry="37.45"/>
<text text-anchor="middle" x="1141.36" y="-381.64" font-family="Times New Roman,serif" font-size="14.00">[c0..c1)</text>
<text text-anchor="middle" x="1141.36" y="-366.64" font-family="Times New Roman,serif" font-size="14.00">Normalized Count: 0.00</text>
<text text-anchor="middle" x="1141.36" y="-351.64" font-family="Times New Roman,serif" font-size="14.00">Samples weight: 0.00</text>
</g>
<!-- BB16&#45;&gt;BB18 -->
<g id="edge24" class="edge">
<title>BB16&#45;&gt;BB18</title>
<path fill="none" stroke="black" d="M974.33,-450.81C1003.86,-436.76 1039.34,-419.87 1069.99,-405.29"/>
<polygon fill="black" stroke="black" points="1071.81,-408.3 1079.34,-400.84 1068.8,-401.98 1071.81,-408.3"/>
</g>
<!-- BB19 -->
<g id="node20" class="node">
<title>BB19</title>
<ellipse fill="none" stroke="black" cx="969.36" cy="-259.38" rx="105.22" ry="37.45"/>
<text text-anchor="middle" x="969.36" y="-270.68" font-family="Times New Roman,serif" font-size="14.00">[c1..cb)</text>
<text text-anchor="middle" x="969.36" y="-255.68" font-family="Times New Roman,serif" font-size="14.00">Normalized Count: 0.00</text>
<text text-anchor="middle" x="969.36" y="-240.68" font-family="Times New Roman,serif" font-size="14.00">Samples weight: 0.00</text>
</g>
<!-- BB17&#45;&gt;BB19 -->
<g id="edge26" class="edge">
<title>BB17&#45;&gt;BB19</title>
<path fill="none" stroke="black" d="M931.18,-333.36C935.85,-324.43 940.91,-314.76 945.78,-305.46"/>
<polygon fill="black" stroke="black" points="949.02,-306.81 950.56,-296.32 942.82,-303.56 949.02,-306.81"/>
</g>
<!-- BB18&#45;&gt;BB19 -->
<g id="edge27" class="edge">
<title>BB18&#45;&gt;BB19</title>
<path fill="none" stroke="black" d="M1090.68,-337.24C1071.17,-324.88 1048.73,-310.66 1028.49,-297.84"/>
<polygon fill="black" stroke="black" points="1030.29,-294.84 1019.97,-292.44 1026.54,-300.75 1030.29,-294.84"/>
</g>
<!-- BB20 -->
<g id="node21" class="node">
<title>BB20</title>
<ellipse fill="none" stroke="black" cx="854.36" cy="-148.43" rx="105.22" ry="37.45"/>
<text text-anchor="middle" x="854.36" y="-159.73" font-family="Times New Roman,serif" font-size="14.00">[cb..d3)</text>
<text text-anchor="middle" x="854.36" y="-144.73" font-family="Times New Roman,serif" font-size="14.00">Normalized Count: 0.00</text>
<text text-anchor="middle" x="854.36" y="-129.73" font-family="Times New Roman,serif" font-size="14.00">Samples weight: 0.00</text>
</g>
<!-- BB19&#45;&gt;BB20 -->
<g id="edge29" class="edge">
<title>BB19&#45;&gt;BB20</title>
<path fill="none" stroke="black" d="M932.97,-223.91C921.85,-213.37 909.51,-201.68 897.96,-190.74"/>
<polygon fill="black" stroke="black" points="900.18,-188.02 890.51,-183.68 895.36,-193.1 900.18,-188.02"/>
</g>
<!-- BB21 -->
<g id="node22" class="node">
<title>BB21</title>
<ellipse fill="none" stroke="black" cx="1083.36" cy="-148.43" rx="105.22" ry="37.45"/>
<text text-anchor="middle" x="1083.36" y="-159.73" font-family="Times New Roman,serif" font-size="14.00">[d3..d8)</text>
<text text-anchor="middle" x="1083.36" y="-144.73" font-family="Times New Roman,serif" font-size="14.00">Normalized Count: 0.00</text>
<text text-anchor="middle" x="1083.36" y="-129.73" font-family="Times New Roman,serif" font-size="14.00">Samples weight: 0.00</text>
</g>
<!-- BB19&#45;&gt;BB21 -->
<g id="edge28" class="edge">
<title>BB19&#45;&gt;BB21</title>
<path fill="none" stroke="black" d="M1005.43,-223.91C1016.45,-213.37 1028.69,-201.68 1040.14,-190.74"/>
<polygon fill="black" stroke="black" points="1042.71,-193.12 1047.52,-183.68 1037.88,-188.06 1042.71,-193.12"/>
</g>
<!-- BB20&#45;&gt;BB21 -->
<g id="edge30" class="edge">
<title>BB20&#45;&gt;BB21</title>
<path fill="none" stroke="black" d="M959.91,-148.43C962.52,-148.43 965.12,-148.43 967.72,-148.43"/>
<polygon fill="black" stroke="black" points="967.76,-151.93 977.76,-148.43 967.76,-144.93 967.76,-151.93"/>
</g>
<!-- BB21&#45;&gt;BB22 -->
<g id="edge31" class="edge">
<title>BB21&#45;&gt;BB22</title>
<path fill="none" stroke="black" d="M1046.97,-112.96C1035.85,-102.42 1023.51,-90.73 1011.96,-79.79"/>
<polygon fill="black" stroke="black" points="1014.18,-77.06 1004.51,-72.73 1009.36,-82.14 1014.18,-77.06"/>
</g>
</g>
</svg>
