<?xml version="1.0" encoding="UTF-8" standalone="no"?>
<!DOCTYPE svg PUBLIC "-//W3C//DTD SVG 1.1//EN"
 "http://www.w3.org/Graphics/SVG/1.1/DTD/svg11.dtd">
<!-- Generated by graphviz version 2.47.0 (20210316.0004)
 -->
<!-- Title: G Pages: 1 -->
<svg width="611pt" height="416pt"
 viewBox="0.00 0.00 610.62 415.81" xmlns="http://www.w3.org/2000/svg" xmlns:xlink="http://www.w3.org/1999/xlink">
<g id="graph0" class="graph" transform="scale(1 1) rotate(0) translate(4 411.81)">
<title>G</title>
<polygon fill="white" stroke="transparent" points="-4,4 -4,-411.81 606.62,-411.81 606.62,4 -4,4"/>
<!-- BB0 -->
<g id="node1" class="node">
<title>BB0</title>
<ellipse fill="none" stroke="black" cx="364.26" cy="-370.34" rx="105.22" ry="37.45"/>
<text text-anchor="middle" x="364.26" y="-381.64" font-family="Times New Roman,serif" font-size="14.00">[0..7)</text>
<text text-anchor="middle" x="364.26" y="-366.64" font-family="Times New Roman,serif" font-size="14.00">Normalized Count: 1.00</text>
<text text-anchor="middle" x="364.26" y="-351.64" font-family="Times New Roman,serif" font-size="14.00">Samples weight: 0.00</text>
</g>
<!-- BB4 -->
<g id="node5" class="node">
<title>BB4</title>
<ellipse fill="none" stroke="black" cx="364.26" cy="-259.38" rx="115.02" ry="37.45"/>
<text text-anchor="middle" x="364.26" y="-270.68" font-family="Times New Roman,serif" font-size="14.00">[40..44)</text>
<text text-anchor="middle" x="364.26" y="-255.68" font-family="Times New Roman,serif" font-size="14.00">Normalized Count: 671.63</text>
<text text-anchor="middle" x="364.26" y="-240.68" font-family="Times New Roman,serif" font-size="14.00">Samples weight: 0.29</text>
</g>
<!-- BB0&#45;&gt;BB4 -->
<g id="edge1" class="edge">
<title>BB0&#45;&gt;BB4</title>
<path fill="none" stroke="black" d="M364.26,-332.75C364.26,-324.58 364.26,-315.8 364.26,-307.27"/>
<polygon fill="black" stroke="black" points="367.76,-307.06 364.26,-297.06 360.76,-307.06 367.76,-307.06"/>
</g>
<!-- BB1 -->
<g id="node2" class="node">
<title>BB1</title>
<ellipse fill="none" stroke="black" cx="221.26" cy="-148.43" rx="115.02" ry="37.45"/>
<text text-anchor="middle" x="221.26" y="-159.73" font-family="Times New Roman,serif" font-size="14.00">[7..27)</text>
<text text-anchor="middle" x="221.26" y="-144.73" font-family="Times New Roman,serif" font-size="14.00">Normalized Count: 670.63</text>
<text text-anchor="middle" x="221.26" y="-129.73" font-family="Times New Roman,serif" font-size="14.00">Samples weight: 0.29</text>
</g>
<!-- BB2 -->
<g id="node3" class="node">
<title>BB2</title>
<ellipse fill="none" stroke="black" cx="115.26" cy="-37.48" rx="115.02" ry="37.45"/>
<text text-anchor="middle" x="115.26" y="-48.78" font-family="Times New Roman,serif" font-size="14.00">[27..2c)</text>
<text text-anchor="middle" x="115.26" y="-33.78" font-family="Times New Roman,serif" font-size="14.00">Normalized Count: 334.92</text>
<text text-anchor="middle" x="115.26" y="-18.78" font-family="Times New Roman,serif" font-size="14.00">Samples weight: 0.14</text>
</g>
<!-- BB1&#45;&gt;BB2 -->
<g id="edge3" class="edge">
<title>BB1&#45;&gt;BB2</title>
<path fill="none" stroke="black" d="M187.14,-112.36C177.4,-102.35 166.68,-91.33 156.56,-80.93"/>
<polygon fill="black" stroke="black" points="158.8,-78.21 149.32,-73.48 153.78,-83.09 158.8,-78.21"/>
</g>
<!-- BB3 -->
<g id="node4" class="node">
<title>BB3</title>
<ellipse fill="none" stroke="black" cx="364.26" cy="-37.48" rx="115.02" ry="37.45"/>
<text text-anchor="middle" x="364.26" y="-48.78" font-family="Times New Roman,serif" font-size="14.00">[2c..40)</text>
<text text-anchor="middle" x="364.26" y="-33.78" font-family="Times New Roman,serif" font-size="14.00">Normalized Count: 670.63</text>
<text text-anchor="middle" x="364.26" y="-18.78" font-family="Times New Roman,serif" font-size="14.00">Samples weight: 0.29</text>
</g>
<!-- BB1&#45;&gt;BB3 -->
<g id="edge2" class="edge">
<title>BB1&#45;&gt;BB3</title>
<path fill="none" stroke="black" d="M265.72,-113.55C280.25,-102.49 296.52,-90.09 311.59,-78.6"/>
<polygon fill="black" stroke="black" points="313.99,-81.18 319.82,-72.33 309.75,-75.61 313.99,-81.18"/>
</g>
<!-- BB2&#45;&gt;BB3 -->
<g id="edge4" class="edge">
<title>BB2&#45;&gt;BB3</title>
<path fill="none" stroke="black" d="M230.52,-37.48C233.18,-37.48 235.85,-37.48 238.52,-37.48"/>
<polygon fill="black" stroke="black" points="238.8,-40.98 248.8,-37.48 238.8,-33.98 238.8,-40.98"/>
</g>
<!-- BB3&#45;&gt;BB4 -->
<g id="edge5" class="edge">
<title>BB3&#45;&gt;BB4</title>
<path fill="none" stroke="black" d="M364.26,-75.04C364.26,-112.4 364.26,-170.57 364.26,-211.35"/>
<polygon fill="black" stroke="black" points="360.76,-211.58 364.26,-221.58 367.76,-211.58 360.76,-211.58"/>
</g>
<!-- BB4&#45;&gt;BB1 -->
<g id="edge6" class="edge">
<title>BB4&#45;&gt;BB1</title>
<path fill="none" stroke="black" d="M319.8,-224.51C305.27,-213.44 289,-201.04 273.92,-189.56"/>
<polygon fill="black" stroke="black" points="275.77,-186.56 265.69,-183.29 271.53,-192.13 275.77,-186.56"/>
</g>
<!-- BB5 -->
<g id="node6" class="node">
<title>BB5</title>
<ellipse fill="none" stroke="black" cx="497.26" cy="-148.43" rx="105.22" ry="37.45"/>
<text text-anchor="middle" x="497.26" y="-159.73" font-family="Times New Roman,serif" font-size="14.00">[44..47)</text>
<text text-anchor="middle" x="497.26" y="-144.73" font-family="Times New Roman,serif" font-size="14.00">Normalized Count: 1.00</text>
<text text-anchor="middle" x="497.26" y="-129.73" font-family="Times New Roman,serif" font-size="14.00">Samples weight: 0.00</text>
</g>
<!-- BB4&#45;&gt;BB5 -->
<g id="edge7" class="edge">
<title>BB4&#45;&gt;BB5</title>
<path fill="none" stroke="black" d="M405.98,-224.21C419.35,-213.25 434.28,-201.02 448.13,-189.67"/>
<polygon fill="black" stroke="black" points="450.63,-192.15 456.15,-183.11 446.19,-186.74 450.63,-192.15"/>
</g>
</g>
</svg>
