<?xml version="1.0" encoding="UTF-8" standalone="no"?>
<!DOCTYPE svg PUBLIC "-//W3C//DTD SVG 1.1//EN"
 "http://www.w3.org/Graphics/SVG/1.1/DTD/svg11.dtd">
<!-- Generated by graphviz version 2.47.0 (20210316.0004)
 -->
<!-- Title: G Pages: 1 -->
<svg width="1282pt" height="1029pt"
 viewBox="0.00 0.00 1282.50 1029.33" xmlns="http://www.w3.org/2000/svg" xmlns:xlink="http://www.w3.org/1999/xlink">
<g id="graph0" class="graph" transform="scale(1 1) rotate(0) translate(4 1025.33)">
<title>G</title>
<polygon fill="white" stroke="transparent" points="-4,4 -4,-1025.33 1278.5,-1025.33 1278.5,4 -4,4"/>
<!-- BB0 -->
<g id="node1" class="node">
<title>BB0</title>
<ellipse fill="none" stroke="black" cx="399.84" cy="-973.25" rx="104.8" ry="48.17"/>
<text text-anchor="middle" x="399.84" y="-992.05" font-family="Times New Roman,serif" font-size="14.00">[0..9)</text>
<text text-anchor="middle" x="399.84" y="-977.05" font-family="Times New Roman,serif" font-size="14.00">Count: 0</text>
<text text-anchor="middle" x="399.84" y="-962.05" font-family="Times New Roman,serif" font-size="14.00">Normalized count: NaN</text>
<text text-anchor="middle" x="399.84" y="-947.05" font-family="Times New Roman,serif" font-size="14.00">Samples weight: 0.00</text>
</g>
<!-- BB1 -->
<g id="node2" class="node">
<title>BB1</title>
<ellipse fill="none" stroke="black" cx="281.84" cy="-841.08" rx="104.8" ry="48.17"/>
<text text-anchor="middle" x="281.84" y="-859.88" font-family="Times New Roman,serif" font-size="14.00">[9..1d)</text>
<text text-anchor="middle" x="281.84" y="-844.88" font-family="Times New Roman,serif" font-size="14.00">Count: 0</text>
<text text-anchor="middle" x="281.84" y="-829.88" font-family="Times New Roman,serif" font-size="14.00">Normalized count: NaN</text>
<text text-anchor="middle" x="281.84" y="-814.88" font-family="Times New Roman,serif" font-size="14.00">Samples weight: 0.00</text>
</g>
<!-- BB0&#45;&gt;BB1 -->
<g id="edge2" class="edge">
<title>BB0&#45;&gt;BB1</title>
<path fill="none" stroke="black" d="M360.22,-928.54C350.01,-917.27 338.92,-905.04 328.39,-893.42"/>
<polygon fill="black" stroke="black" points="330.87,-890.95 321.56,-885.89 325.68,-895.65 330.87,-890.95"/>
</g>
<!-- BB7 -->
<g id="node8" class="node">
<title>BB7</title>
<ellipse fill="none" stroke="black" cx="517.84" cy="-841.08" rx="113.69" ry="48.17"/>
<text text-anchor="middle" x="517.84" y="-859.88" font-family="Times New Roman,serif" font-size="14.00">[4c..55)</text>
<text text-anchor="middle" x="517.84" y="-844.88" font-family="Times New Roman,serif" font-size="14.00">Count: 1</text>
<text text-anchor="middle" x="517.84" y="-829.88" font-family="Times New Roman,serif" font-size="14.00">Normalized count: Infinity</text>
<text text-anchor="middle" x="517.84" y="-814.88" font-family="Times New Roman,serif" font-size="14.00">Samples weight: 0.02</text>
</g>
<!-- BB0&#45;&gt;BB7 -->
<g id="edge1" class="edge">
<title>BB0&#45;&gt;BB7</title>
<path fill="none" stroke="black" d="M439.46,-928.54C449.57,-917.4 460.53,-905.31 470.96,-893.8"/>
<polygon fill="black" stroke="black" points="473.6,-896.1 477.72,-886.34 468.42,-891.4 473.6,-896.1"/>
</g>
<!-- BB2 -->
<g id="node3" class="node">
<title>BB2</title>
<ellipse fill="none" stroke="black" cx="262.84" cy="-708.92" rx="113.69" ry="48.17"/>
<text text-anchor="middle" x="262.84" y="-727.72" font-family="Times New Roman,serif" font-size="14.00">[1d..29)</text>
<text text-anchor="middle" x="262.84" y="-712.72" font-family="Times New Roman,serif" font-size="14.00">Count: 1</text>
<text text-anchor="middle" x="262.84" y="-697.72" font-family="Times New Roman,serif" font-size="14.00">Normalized count: Infinity</text>
<text text-anchor="middle" x="262.84" y="-682.72" font-family="Times New Roman,serif" font-size="14.00">Samples weight: 0.02</text>
</g>
<!-- BB1&#45;&gt;BB2 -->
<g id="edge4" class="edge">
<title>BB1&#45;&gt;BB2</title>
<path fill="none" stroke="black" d="M274.98,-793.09C273.76,-784.71 272.48,-775.91 271.22,-767.28"/>
<polygon fill="black" stroke="black" points="274.67,-766.67 269.76,-757.28 267.74,-767.68 274.67,-766.67"/>
</g>
<!-- BB1&#45;&gt;BB7 -->
<g id="edge3" class="edge">
<title>BB1&#45;&gt;BB7</title>
<path fill="none" stroke="black" d="M386.94,-841.08C389.22,-841.08 391.51,-841.08 393.79,-841.08"/>
<polygon fill="black" stroke="black" points="393.81,-844.58 403.81,-841.08 393.81,-837.58 393.81,-844.58"/>
</g>
<!-- BB4 -->
<g id="node5" class="node">
<title>BB4</title>
<ellipse fill="none" stroke="black" cx="236.84" cy="-576.75" rx="113.69" ry="48.17"/>
<text text-anchor="middle" x="236.84" y="-595.55" font-family="Times New Roman,serif" font-size="14.00">[2d..31)</text>
<text text-anchor="middle" x="236.84" y="-580.55" font-family="Times New Roman,serif" font-size="14.00">Count: 11</text>
<text text-anchor="middle" x="236.84" y="-565.55" font-family="Times New Roman,serif" font-size="14.00">Normalized count: Infinity</text>
<text text-anchor="middle" x="236.84" y="-550.55" font-family="Times New Roman,serif" font-size="14.00">Samples weight: 0.20</text>
</g>
<!-- BB2&#45;&gt;BB4 -->
<g id="edge5" class="edge">
<title>BB2&#45;&gt;BB4</title>
<path fill="none" stroke="black" d="M253.46,-660.92C251.75,-652.35 249.94,-643.33 248.18,-634.51"/>
<polygon fill="black" stroke="black" points="251.61,-633.79 246.22,-624.67 244.74,-635.17 251.61,-633.79"/>
</g>
<!-- BB3 -->
<g id="node4" class="node">
<title>BB3</title>
<ellipse fill="none" stroke="black" cx="113.84" cy="-312.42" rx="113.69" ry="48.17"/>
<text text-anchor="middle" x="113.84" y="-331.22" font-family="Times New Roman,serif" font-size="14.00">[29..2d)</text>
<text text-anchor="middle" x="113.84" y="-316.22" font-family="Times New Roman,serif" font-size="14.00">Count: 10</text>
<text text-anchor="middle" x="113.84" y="-301.22" font-family="Times New Roman,serif" font-size="14.00">Normalized count: Infinity</text>
<text text-anchor="middle" x="113.84" y="-286.22" font-family="Times New Roman,serif" font-size="14.00">Samples weight: 0.18</text>
</g>
<!-- BB3&#45;&gt;BB4 -->
<g id="edge6" class="edge">
<title>BB3&#45;&gt;BB4</title>
<path fill="none" stroke="black" d="M79.23,-358.68C72.09,-370.39 65.6,-383.42 61.84,-396.5 50.05,-437.58 39,-456.54 61.84,-492.67 77.6,-517.59 103.09,-535.18 129.79,-547.55"/>
<polygon fill="black" stroke="black" points="128.71,-550.9 139.27,-551.71 131.52,-544.48 128.71,-550.9"/>
</g>
<!-- BB5 -->
<g id="node6" class="node">
<title>BB5</title>
<ellipse fill="none" stroke="black" cx="184.84" cy="-444.58" rx="113.69" ry="48.17"/>
<text text-anchor="middle" x="184.84" y="-463.38" font-family="Times New Roman,serif" font-size="14.00">[31..3e)</text>
<text text-anchor="middle" x="184.84" y="-448.38" font-family="Times New Roman,serif" font-size="14.00">Count: 30</text>
<text text-anchor="middle" x="184.84" y="-433.38" font-family="Times New Roman,serif" font-size="14.00">Normalized count: Infinity</text>
<text text-anchor="middle" x="184.84" y="-418.38" font-family="Times New Roman,serif" font-size="14.00">Samples weight: 0.55</text>
</g>
<!-- BB4&#45;&gt;BB5 -->
<g id="edge8" class="edge">
<title>BB4&#45;&gt;BB5</title>
<path fill="none" stroke="black" d="M218.22,-529.12C214.67,-520.24 210.92,-510.87 207.27,-501.73"/>
<polygon fill="black" stroke="black" points="210.48,-500.31 203.52,-492.32 203.97,-502.91 210.48,-500.31"/>
</g>
<!-- BB6 -->
<g id="node7" class="node">
<title>BB6</title>
<ellipse fill="none" stroke="black" cx="430.84" cy="-444.58" rx="113.69" ry="48.17"/>
<text text-anchor="middle" x="430.84" y="-463.38" font-family="Times New Roman,serif" font-size="14.00">[3e..4c)</text>
<text text-anchor="middle" x="430.84" y="-448.38" font-family="Times New Roman,serif" font-size="14.00">Count: 1</text>
<text text-anchor="middle" x="430.84" y="-433.38" font-family="Times New Roman,serif" font-size="14.00">Normalized count: Infinity</text>
<text text-anchor="middle" x="430.84" y="-418.38" font-family="Times New Roman,serif" font-size="14.00">Samples weight: 0.02</text>
</g>
<!-- BB4&#45;&gt;BB6 -->
<g id="edge7" class="edge">
<title>BB4&#45;&gt;BB6</title>
<path fill="none" stroke="black" d="M296.63,-535.63C317.57,-521.59 341.23,-505.71 362.79,-491.25"/>
<polygon fill="black" stroke="black" points="364.9,-494.04 371.25,-485.57 361,-488.23 364.9,-494.04"/>
</g>
<!-- BB5&#45;&gt;BB3 -->
<g id="edge9" class="edge">
<title>BB5&#45;&gt;BB3</title>
<path fill="none" stroke="black" d="M159.61,-397.32C154.54,-388.02 149.16,-378.16 143.94,-368.58"/>
<polygon fill="black" stroke="black" points="146.86,-366.63 138.99,-359.53 140.71,-369.98 146.86,-366.63"/>
</g>
<!-- BB5&#45;&gt;BB6 -->
<g id="edge10" class="edge">
<title>BB5&#45;&gt;BB6</title>
<path fill="none" stroke="black" d="M298.72,-444.58C301.35,-444.58 303.98,-444.58 306.62,-444.58"/>
<polygon fill="black" stroke="black" points="306.78,-448.08 316.78,-444.58 306.78,-441.08 306.78,-448.08"/>
</g>
<!-- BB6&#45;&gt;BB7 -->
<g id="edge11" class="edge">
<title>BB6&#45;&gt;BB7</title>
<path fill="none" stroke="black" d="M417.76,-492.39C402.71,-555.57 384.73,-670.23 423.84,-757 429.88,-770.39 439.26,-782.49 449.8,-793.05"/>
<polygon fill="black" stroke="black" points="447.59,-795.78 457.26,-800.12 452.4,-790.7 447.59,-795.78"/>
</g>
<!-- BB8 -->
<g id="node9" class="node">
<title>BB8</title>
<ellipse fill="none" stroke="black" cx="537.84" cy="-708.92" rx="104.8" ry="48.17"/>
<text text-anchor="middle" x="537.84" y="-727.72" font-family="Times New Roman,serif" font-size="14.00">[55..61)</text>
<text text-anchor="middle" x="537.84" y="-712.72" font-family="Times New Roman,serif" font-size="14.00">Count: 0</text>
<text text-anchor="middle" x="537.84" y="-697.72" font-family="Times New Roman,serif" font-size="14.00">Normalized count: NaN</text>
<text text-anchor="middle" x="537.84" y="-682.72" font-family="Times New Roman,serif" font-size="14.00">Samples weight: 0.00</text>
</g>
<!-- BB7&#45;&gt;BB8 -->
<g id="edge13" class="edge">
<title>BB7&#45;&gt;BB8</title>
<path fill="none" stroke="black" d="M525.06,-793.09C526.35,-784.71 527.7,-775.91 529.03,-767.28"/>
<polygon fill="black" stroke="black" points="532.51,-767.69 530.57,-757.28 525.59,-766.63 532.51,-767.69"/>
</g>
<!-- BB9 -->
<g id="node10" class="node">
<title>BB9</title>
<ellipse fill="none" stroke="black" cx="764.84" cy="-708.92" rx="104.8" ry="48.17"/>
<text text-anchor="middle" x="764.84" y="-727.72" font-family="Times New Roman,serif" font-size="14.00">[61..6b)</text>
<text text-anchor="middle" x="764.84" y="-712.72" font-family="Times New Roman,serif" font-size="14.00">Count: 0</text>
<text text-anchor="middle" x="764.84" y="-697.72" font-family="Times New Roman,serif" font-size="14.00">Normalized count: NaN</text>
<text text-anchor="middle" x="764.84" y="-682.72" font-family="Times New Roman,serif" font-size="14.00">Samples weight: 0.00</text>
</g>
<!-- BB7&#45;&gt;BB9 -->
<g id="edge12" class="edge">
<title>BB7&#45;&gt;BB9</title>
<path fill="none" stroke="black" d="M587.96,-803.13C619.25,-786.64 656.2,-767.17 688.22,-750.3"/>
<polygon fill="black" stroke="black" points="689.89,-753.37 697.11,-745.61 686.63,-747.18 689.89,-753.37"/>
</g>
<!-- BB10 -->
<g id="node11" class="node">
<title>BB10</title>
<ellipse fill="none" stroke="black" cx="715.84" cy="-576.75" rx="104.8" ry="48.17"/>
<text text-anchor="middle" x="715.84" y="-595.55" font-family="Times New Roman,serif" font-size="14.00">[6b..7b)</text>
<text text-anchor="middle" x="715.84" y="-580.55" font-family="Times New Roman,serif" font-size="14.00">Count: 0</text>
<text text-anchor="middle" x="715.84" y="-565.55" font-family="Times New Roman,serif" font-size="14.00">Normalized count: NaN</text>
<text text-anchor="middle" x="715.84" y="-550.55" font-family="Times New Roman,serif" font-size="14.00">Samples weight: 0.00</text>
</g>
<!-- BB9&#45;&gt;BB10 -->
<g id="edge15" class="edge">
<title>BB9&#45;&gt;BB10</title>
<path fill="none" stroke="black" d="M747.29,-661.29C743.95,-652.41 740.42,-643.03 736.98,-633.89"/>
<polygon fill="black" stroke="black" points="740.24,-632.61 733.44,-624.49 733.69,-635.08 740.24,-632.61"/>
</g>
<!-- BB16 -->
<g id="node17" class="node">
<title>BB16</title>
<ellipse fill="none" stroke="black" cx="942.84" cy="-576.75" rx="104.8" ry="48.17"/>
<text text-anchor="middle" x="942.84" y="-595.55" font-family="Times New Roman,serif" font-size="14.00">[b9..bd)</text>
<text text-anchor="middle" x="942.84" y="-580.55" font-family="Times New Roman,serif" font-size="14.00">Count: 0</text>
<text text-anchor="middle" x="942.84" y="-565.55" font-family="Times New Roman,serif" font-size="14.00">Normalized count: NaN</text>
<text text-anchor="middle" x="942.84" y="-550.55" font-family="Times New Roman,serif" font-size="14.00">Samples weight: 0.00</text>
</g>
<!-- BB9&#45;&gt;BB16 -->
<g id="edge14" class="edge">
<title>BB9&#45;&gt;BB16</title>
<path fill="none" stroke="black" d="M819.7,-667.8C838.65,-653.94 860.03,-638.31 879.6,-624"/>
<polygon fill="black" stroke="black" points="881.85,-626.69 887.86,-617.96 877.72,-621.03 881.85,-626.69"/>
</g>
<!-- BB11 -->
<g id="node12" class="node">
<title>BB11</title>
<ellipse fill="none" stroke="black" cx="715.84" cy="-444.58" rx="104.8" ry="48.17"/>
<text text-anchor="middle" x="715.84" y="-463.38" font-family="Times New Roman,serif" font-size="14.00">[7b..7f)</text>
<text text-anchor="middle" x="715.84" y="-448.38" font-family="Times New Roman,serif" font-size="14.00">Count: 0</text>
<text text-anchor="middle" x="715.84" y="-433.38" font-family="Times New Roman,serif" font-size="14.00">Normalized count: NaN</text>
<text text-anchor="middle" x="715.84" y="-418.38" font-family="Times New Roman,serif" font-size="14.00">Samples weight: 0.00</text>
</g>
<!-- BB10&#45;&gt;BB11 -->
<g id="edge17" class="edge">
<title>BB10&#45;&gt;BB11</title>
<path fill="none" stroke="black" d="M715.84,-528.39C715.84,-520.12 715.84,-511.44 715.84,-502.93"/>
<polygon fill="black" stroke="black" points="719.34,-502.69 715.84,-492.69 712.34,-502.69 719.34,-502.69"/>
</g>
<!-- BB10&#45;&gt;BB16 -->
<g id="edge16" class="edge">
<title>BB10&#45;&gt;BB16</title>
<path fill="none" stroke="black" d="M820.92,-576.75C823.24,-576.75 825.56,-576.75 827.89,-576.75"/>
<polygon fill="black" stroke="black" points="828.07,-580.25 838.07,-576.75 828.07,-573.25 828.07,-580.25"/>
</g>
<!-- BB12 -->
<g id="node13" class="node">
<title>BB12</title>
<ellipse fill="none" stroke="black" cx="542.84" cy="-312.42" rx="104.8" ry="48.17"/>
<text text-anchor="middle" x="542.84" y="-331.22" font-family="Times New Roman,serif" font-size="14.00">[7f..8a)</text>
<text text-anchor="middle" x="542.84" y="-316.22" font-family="Times New Roman,serif" font-size="14.00">Count: 0</text>
<text text-anchor="middle" x="542.84" y="-301.22" font-family="Times New Roman,serif" font-size="14.00">Normalized count: NaN</text>
<text text-anchor="middle" x="542.84" y="-286.22" font-family="Times New Roman,serif" font-size="14.00">Samples weight: 0.00</text>
</g>
<!-- BB11&#45;&gt;BB12 -->
<g id="edge19" class="edge">
<title>BB11&#45;&gt;BB12</title>
<path fill="none" stroke="black" d="M662.05,-403.11C643.91,-389.46 623.51,-374.11 604.79,-360.02"/>
<polygon fill="black" stroke="black" points="606.7,-357.08 596.6,-353.86 602.49,-362.67 606.7,-357.08"/>
</g>
<!-- BB13 -->
<g id="node14" class="node">
<title>BB13</title>
<ellipse fill="none" stroke="black" cx="769.84" cy="-312.42" rx="104.8" ry="48.17"/>
<text text-anchor="middle" x="769.84" y="-331.22" font-family="Times New Roman,serif" font-size="14.00">[8a..94)</text>
<text text-anchor="middle" x="769.84" y="-316.22" font-family="Times New Roman,serif" font-size="14.00">Count: 0</text>
<text text-anchor="middle" x="769.84" y="-301.22" font-family="Times New Roman,serif" font-size="14.00">Normalized count: NaN</text>
<text text-anchor="middle" x="769.84" y="-286.22" font-family="Times New Roman,serif" font-size="14.00">Samples weight: 0.00</text>
</g>
<!-- BB11&#45;&gt;BB13 -->
<g id="edge18" class="edge">
<title>BB11&#45;&gt;BB13</title>
<path fill="none" stroke="black" d="M735.19,-396.96C738.92,-387.97 742.86,-378.47 746.69,-369.23"/>
<polygon fill="black" stroke="black" points="750.04,-370.29 750.64,-359.72 743.57,-367.61 750.04,-370.29"/>
</g>
<!-- BB14 -->
<g id="node15" class="node">
<title>BB14</title>
<ellipse fill="none" stroke="black" cx="714.84" cy="-180.25" rx="104.8" ry="48.17"/>
<text text-anchor="middle" x="714.84" y="-199.05" font-family="Times New Roman,serif" font-size="14.00">[94..ad)</text>
<text text-anchor="middle" x="714.84" y="-184.05" font-family="Times New Roman,serif" font-size="14.00">Count: 0</text>
<text text-anchor="middle" x="714.84" y="-169.05" font-family="Times New Roman,serif" font-size="14.00">Normalized count: NaN</text>
<text text-anchor="middle" x="714.84" y="-154.05" font-family="Times New Roman,serif" font-size="14.00">Samples weight: 0.00</text>
</g>
<!-- BB12&#45;&gt;BB14 -->
<g id="edge20" class="edge">
<title>BB12&#45;&gt;BB14</title>
<path fill="none" stroke="black" d="M596.32,-270.94C614.36,-257.29 634.64,-241.95 653.26,-227.86"/>
<polygon fill="black" stroke="black" points="655.54,-230.52 661.4,-221.7 651.31,-224.94 655.54,-230.52"/>
</g>
<!-- BB13&#45;&gt;BB14 -->
<g id="edge21" class="edge">
<title>BB13&#45;&gt;BB14</title>
<path fill="none" stroke="black" d="M750.3,-265.16C746.45,-256.06 742.38,-246.43 738.42,-237.05"/>
<polygon fill="black" stroke="black" points="741.63,-235.65 734.51,-227.8 735.18,-238.37 741.63,-235.65"/>
</g>
<!-- BB15 -->
<g id="node16" class="node">
<title>BB15</title>
<ellipse fill="none" stroke="black" cx="714.84" cy="-48.08" rx="104.8" ry="48.17"/>
<text text-anchor="middle" x="714.84" y="-66.88" font-family="Times New Roman,serif" font-size="14.00">[ad..b9)</text>
<text text-anchor="middle" x="714.84" y="-51.88" font-family="Times New Roman,serif" font-size="14.00">Count: 0</text>
<text text-anchor="middle" x="714.84" y="-36.88" font-family="Times New Roman,serif" font-size="14.00">Normalized count: NaN</text>
<text text-anchor="middle" x="714.84" y="-21.88" font-family="Times New Roman,serif" font-size="14.00">Samples weight: 0.00</text>
</g>
<!-- BB14&#45;&gt;BB15 -->
<g id="edge23" class="edge">
<title>BB14&#45;&gt;BB15</title>
<path fill="none" stroke="black" d="M714.84,-131.89C714.84,-123.62 714.84,-114.94 714.84,-106.43"/>
<polygon fill="black" stroke="black" points="718.34,-106.19 714.84,-96.19 711.34,-106.19 718.34,-106.19"/>
</g>
<!-- BB22 -->
<g id="node23" class="node">
<title>BB22</title>
<ellipse fill="none" stroke="black" cx="1054.84" cy="-48.08" rx="104.8" ry="48.17"/>
<text text-anchor="middle" x="1054.84" y="-66.88" font-family="Times New Roman,serif" font-size="14.00">[d8..d9)</text>
<text text-anchor="middle" x="1054.84" y="-51.88" font-family="Times New Roman,serif" font-size="14.00">Count: 0</text>
<text text-anchor="middle" x="1054.84" y="-36.88" font-family="Times New Roman,serif" font-size="14.00">Normalized count: NaN</text>
<text text-anchor="middle" x="1054.84" y="-21.88" font-family="Times New Roman,serif" font-size="14.00">Samples weight: 0.00</text>
</g>
<!-- BB14&#45;&gt;BB22 -->
<g id="edge22" class="edge">
<title>BB14&#45;&gt;BB22</title>
<path fill="none" stroke="black" d="M790.94,-147.01C803.24,-141.95 815.87,-136.85 827.84,-132.17 872.17,-114.83 921.78,-96.55 963.28,-81.56"/>
<polygon fill="black" stroke="black" points="964.61,-84.8 972.83,-78.12 962.23,-78.22 964.61,-84.8"/>
</g>
<!-- BB17 -->
<g id="node18" class="node">
<title>BB17</title>
<ellipse fill="none" stroke="black" cx="942.84" cy="-444.58" rx="104.8" ry="48.17"/>
<text text-anchor="middle" x="942.84" y="-463.38" font-family="Times New Roman,serif" font-size="14.00">[bd..c0)</text>
<text text-anchor="middle" x="942.84" y="-448.38" font-family="Times New Roman,serif" font-size="14.00">Count: 0</text>
<text text-anchor="middle" x="942.84" y="-433.38" font-family="Times New Roman,serif" font-size="14.00">Normalized count: NaN</text>
<text text-anchor="middle" x="942.84" y="-418.38" font-family="Times New Roman,serif" font-size="14.00">Samples weight: 0.00</text>
</g>
<!-- BB16&#45;&gt;BB17 -->
<g id="edge25" class="edge">
<title>BB16&#45;&gt;BB17</title>
<path fill="none" stroke="black" d="M942.84,-528.39C942.84,-520.12 942.84,-511.44 942.84,-502.93"/>
<polygon fill="black" stroke="black" points="946.34,-502.69 942.84,-492.69 939.34,-502.69 946.34,-502.69"/>
</g>
<!-- BB18 -->
<g id="node19" class="node">
<title>BB18</title>
<ellipse fill="none" stroke="black" cx="1169.84" cy="-444.58" rx="104.8" ry="48.17"/>
<text text-anchor="middle" x="1169.84" y="-463.38" font-family="Times New Roman,serif" font-size="14.00">[c0..c1)</text>
<text text-anchor="middle" x="1169.84" y="-448.38" font-family="Times New Roman,serif" font-size="14.00">Count: 0</text>
<text text-anchor="middle" x="1169.84" y="-433.38" font-family="Times New Roman,serif" font-size="14.00">Normalized count: NaN</text>
<text text-anchor="middle" x="1169.84" y="-418.38" font-family="Times New Roman,serif" font-size="14.00">Samples weight: 0.00</text>
</g>
<!-- BB16&#45;&gt;BB18 -->
<g id="edge24" class="edge">
<title>BB16&#45;&gt;BB18</title>
<path fill="none" stroke="black" d="M1007.29,-538.8C1035.08,-522.86 1067.74,-504.13 1096.46,-487.66"/>
<polygon fill="black" stroke="black" points="1098.31,-490.64 1105.24,-482.63 1094.83,-484.57 1098.31,-490.64"/>
</g>
<!-- BB19 -->
<g id="node20" class="node">
<title>BB19</title>
<ellipse fill="none" stroke="black" cx="1114.84" cy="-312.42" rx="113.69" ry="48.17"/>
<text text-anchor="middle" x="1114.84" y="-331.22" font-family="Times New Roman,serif" font-size="14.00">[c1..cb)</text>
<text text-anchor="middle" x="1114.84" y="-316.22" font-family="Times New Roman,serif" font-size="14.00">Count: 1</text>
<text text-anchor="middle" x="1114.84" y="-301.22" font-family="Times New Roman,serif" font-size="14.00">Normalized count: Infinity</text>
<text text-anchor="middle" x="1114.84" y="-286.22" font-family="Times New Roman,serif" font-size="14.00">Samples weight: 0.02</text>
</g>
<!-- BB17&#45;&gt;BB19 -->
<g id="edge26" class="edge">
<title>BB17&#45;&gt;BB19</title>
<path fill="none" stroke="black" d="M996.32,-403.11C1013.94,-389.78 1033.69,-374.83 1051.94,-361.02"/>
<polygon fill="black" stroke="black" points="1054.35,-363.59 1060.21,-354.76 1050.13,-358 1054.35,-363.59"/>
</g>
<!-- BB18&#45;&gt;BB19 -->
<g id="edge27" class="edge">
<title>BB18&#45;&gt;BB19</title>
<path fill="none" stroke="black" d="M1150.3,-397.32C1146.45,-388.23 1142.38,-378.59 1138.42,-369.22"/>
<polygon fill="black" stroke="black" points="1141.63,-367.81 1134.51,-359.96 1135.18,-370.54 1141.63,-367.81"/>
</g>
<!-- BB20 -->
<g id="node21" class="node">
<title>BB20</title>
<ellipse fill="none" stroke="black" cx="941.84" cy="-180.25" rx="104.8" ry="48.17"/>
<text text-anchor="middle" x="941.84" y="-199.05" font-family="Times New Roman,serif" font-size="14.00">[cb..d3)</text>
<text text-anchor="middle" x="941.84" y="-184.05" font-family="Times New Roman,serif" font-size="14.00">Count: 0</text>
<text text-anchor="middle" x="941.84" y="-169.05" font-family="Times New Roman,serif" font-size="14.00">Normalized count: NaN</text>
<text text-anchor="middle" x="941.84" y="-154.05" font-family="Times New Roman,serif" font-size="14.00">Samples weight: 0.00</text>
</g>
<!-- BB19&#45;&gt;BB20 -->
<g id="edge29" class="edge">
<title>BB19&#45;&gt;BB20</title>
<path fill="none" stroke="black" d="M1060.11,-270.23C1042.25,-256.8 1022.3,-241.78 1003.94,-227.97"/>
<polygon fill="black" stroke="black" points="1005.73,-224.94 995.63,-221.72 1001.52,-230.53 1005.73,-224.94"/>
</g>
<!-- BB21 -->
<g id="node22" class="node">
<title>BB21</title>
<ellipse fill="none" stroke="black" cx="1168.84" cy="-180.25" rx="104.8" ry="48.17"/>
<text text-anchor="middle" x="1168.84" y="-199.05" font-family="Times New Roman,serif" font-size="14.00">[d3..d8)</text>
<text text-anchor="middle" x="1168.84" y="-184.05" font-family="Times New Roman,serif" font-size="14.00">Count: 0</text>
<text text-anchor="middle" x="1168.84" y="-169.05" font-family="Times New Roman,serif" font-size="14.00">Normalized count: NaN</text>
<text text-anchor="middle" x="1168.84" y="-154.05" font-family="Times New Roman,serif" font-size="14.00">Samples weight: 0.00</text>
</g>
<!-- BB19&#45;&gt;BB21 -->
<g id="edge28" class="edge">
<title>BB19&#45;&gt;BB21</title>
<path fill="none" stroke="black" d="M1134.19,-264.79C1137.92,-255.8 1141.86,-246.3 1145.69,-237.06"/>
<polygon fill="black" stroke="black" points="1149.04,-238.13 1149.64,-227.55 1142.57,-235.45 1149.04,-238.13"/>
</g>
<!-- BB20&#45;&gt;BB21 -->
<g id="edge30" class="edge">
<title>BB20&#45;&gt;BB21</title>
<path fill="none" stroke="black" d="M1046.92,-180.25C1049.24,-180.25 1051.56,-180.25 1053.89,-180.25"/>
<polygon fill="black" stroke="black" points="1054.07,-183.75 1064.07,-180.25 1054.07,-176.75 1054.07,-183.75"/>
</g>
<!-- BB21&#45;&gt;BB22 -->
<g id="edge31" class="edge">
<title>BB21&#45;&gt;BB22</title>
<path fill="none" stroke="black" d="M1130.25,-135.18C1120.59,-124.16 1110.15,-112.23 1100.19,-100.86"/>
<polygon fill="black" stroke="black" points="1102.62,-98.32 1093.4,-93.11 1097.36,-102.94 1102.62,-98.32"/>
</g>
</g>
</svg>
