<?xml version="1.0" encoding="UTF-8" standalone="no"?>
<!DOCTYPE svg PUBLIC "-//W3C//DTD SVG 1.1//EN"
 "http://www.w3.org/Graphics/SVG/1.1/DTD/svg11.dtd">
<!-- Generated by graphviz version 2.47.0 (20210316.0004)
 -->
<!-- Title: G Pages: 1 -->
<svg width="604pt" height="501pt"
 viewBox="0.00 0.00 604.37 500.67" xmlns="http://www.w3.org/2000/svg" xmlns:xlink="http://www.w3.org/1999/xlink">
<g id="graph0" class="graph" transform="scale(1 1) rotate(0) translate(4 496.67)">
<title>G</title>
<polygon fill="white" stroke="transparent" points="-4,4 -4,-496.67 600.37,-496.67 600.37,4 -4,4"/>
<!-- BB0 -->
<g id="node1" class="node">
<title>BB0</title>
<ellipse fill="none" stroke="black" cx="362.14" cy="-444.58" rx="103.48" ry="48.17"/>
<text text-anchor="middle" x="362.14" y="-463.38" font-family="Times New Roman,serif" font-size="14.00">[0..7)</text>
<text text-anchor="middle" x="362.14" y="-448.38" font-family="Times New Roman,serif" font-size="14.00">Count: 23959</text>
<text text-anchor="middle" x="362.14" y="-433.38" font-family="Times New Roman,serif" font-size="14.00">Normalized count: 1.00</text>
<text text-anchor="middle" x="362.14" y="-418.38" font-family="Times New Roman,serif" font-size="14.00">Samples weight: 0.00</text>
</g>
<!-- BB4 -->
<g id="node5" class="node">
<title>BB4</title>
<ellipse fill="none" stroke="black" cx="362.14" cy="-312.42" rx="118.17" ry="48.17"/>
<text text-anchor="middle" x="362.14" y="-331.22" font-family="Times New Roman,serif" font-size="14.00">[40..44)</text>
<text text-anchor="middle" x="362.14" y="-316.22" font-family="Times New Roman,serif" font-size="14.00">Count: 45268101</text>
<text text-anchor="middle" x="362.14" y="-301.22" font-family="Times New Roman,serif" font-size="14.00">Normalized count: 1889.40</text>
<text text-anchor="middle" x="362.14" y="-286.22" font-family="Times New Roman,serif" font-size="14.00">Samples weight: 0.29</text>
</g>
<!-- BB0&#45;&gt;BB4 -->
<g id="edge1" class="edge">
<title>BB0&#45;&gt;BB4</title>
<path fill="none" stroke="black" d="M362.14,-396.22C362.14,-387.95 362.14,-379.27 362.14,-370.77"/>
<polygon fill="black" stroke="black" points="365.64,-370.52 362.14,-360.52 358.64,-370.52 365.64,-370.52"/>
</g>
<!-- BB1 -->
<g id="node2" class="node">
<title>BB1</title>
<ellipse fill="none" stroke="black" cx="216.14" cy="-180.25" rx="118.17" ry="48.17"/>
<text text-anchor="middle" x="216.14" y="-199.05" font-family="Times New Roman,serif" font-size="14.00">[7..27)</text>
<text text-anchor="middle" x="216.14" y="-184.05" font-family="Times New Roman,serif" font-size="14.00">Count: 45244142</text>
<text text-anchor="middle" x="216.14" y="-169.05" font-family="Times New Roman,serif" font-size="14.00">Normalized count: 1888.40</text>
<text text-anchor="middle" x="216.14" y="-154.05" font-family="Times New Roman,serif" font-size="14.00">Samples weight: 0.29</text>
</g>
<!-- BB2 -->
<g id="node3" class="node">
<title>BB2</title>
<ellipse fill="none" stroke="black" cx="113.14" cy="-48.08" rx="113.27" ry="48.17"/>
<text text-anchor="middle" x="113.14" y="-66.88" font-family="Times New Roman,serif" font-size="14.00">[27..2c)</text>
<text text-anchor="middle" x="113.14" y="-51.88" font-family="Times New Roman,serif" font-size="14.00">Count: 22617282</text>
<text text-anchor="middle" x="113.14" y="-36.88" font-family="Times New Roman,serif" font-size="14.00">Normalized count: 944.00</text>
<text text-anchor="middle" x="113.14" y="-21.88" font-family="Times New Roman,serif" font-size="14.00">Samples weight: 0.14</text>
</g>
<!-- BB1&#45;&gt;BB2 -->
<g id="edge3" class="edge">
<title>BB1&#45;&gt;BB2</title>
<path fill="none" stroke="black" d="M180.4,-134.09C172.25,-123.79 163.52,-112.76 155.14,-102.16"/>
<polygon fill="black" stroke="black" points="157.76,-99.83 148.81,-94.16 152.27,-104.18 157.76,-99.83"/>
</g>
<!-- BB3 -->
<g id="node4" class="node">
<title>BB3</title>
<ellipse fill="none" stroke="black" cx="362.14" cy="-48.08" rx="118.17" ry="48.17"/>
<text text-anchor="middle" x="362.14" y="-66.88" font-family="Times New Roman,serif" font-size="14.00">[2c..40)</text>
<text text-anchor="middle" x="362.14" y="-51.88" font-family="Times New Roman,serif" font-size="14.00">Count: 45244142</text>
<text text-anchor="middle" x="362.14" y="-36.88" font-family="Times New Roman,serif" font-size="14.00">Normalized count: 1888.40</text>
<text text-anchor="middle" x="362.14" y="-21.88" font-family="Times New Roman,serif" font-size="14.00">Samples weight: 0.29</text>
</g>
<!-- BB1&#45;&gt;BB3 -->
<g id="edge2" class="edge">
<title>BB1&#45;&gt;BB3</title>
<path fill="none" stroke="black" d="M264.35,-136.27C277.8,-124.27 292.53,-111.14 306.39,-98.79"/>
<polygon fill="black" stroke="black" points="308.84,-101.29 313.98,-92.02 304.18,-96.06 308.84,-101.29"/>
</g>
<!-- BB2&#45;&gt;BB3 -->
<g id="edge4" class="edge">
<title>BB2&#45;&gt;BB3</title>
<path fill="none" stroke="black" d="M226.45,-48.08C228.91,-48.08 231.37,-48.08 233.83,-48.08"/>
<polygon fill="black" stroke="black" points="233.94,-51.58 243.94,-48.08 233.94,-44.58 233.94,-51.58"/>
</g>
<!-- BB3&#45;&gt;BB4 -->
<g id="edge5" class="edge">
<title>BB3&#45;&gt;BB4</title>
<path fill="none" stroke="black" d="M362.14,-96.35C362.14,-140.62 362.14,-206.87 362.14,-254.13"/>
<polygon fill="black" stroke="black" points="358.64,-254.21 362.14,-264.21 365.64,-254.21 358.64,-254.21"/>
</g>
<!-- BB4&#45;&gt;BB1 -->
<g id="edge6" class="edge">
<title>BB4&#45;&gt;BB1</title>
<path fill="none" stroke="black" d="M313.93,-268.43C300.47,-256.44 285.74,-243.3 271.89,-230.95"/>
<polygon fill="black" stroke="black" points="274.09,-228.23 264.3,-224.19 269.43,-233.45 274.09,-228.23"/>
</g>
<!-- BB5 -->
<g id="node6" class="node">
<title>BB5</title>
<ellipse fill="none" stroke="black" cx="493.14" cy="-180.25" rx="103.48" ry="48.17"/>
<text text-anchor="middle" x="493.14" y="-199.05" font-family="Times New Roman,serif" font-size="14.00">[44..47)</text>
<text text-anchor="middle" x="493.14" y="-184.05" font-family="Times New Roman,serif" font-size="14.00">Count: 23959</text>
<text text-anchor="middle" x="493.14" y="-169.05" font-family="Times New Roman,serif" font-size="14.00">Normalized count: 1.00</text>
<text text-anchor="middle" x="493.14" y="-154.05" font-family="Times New Roman,serif" font-size="14.00">Samples weight: 0.00</text>
</g>
<!-- BB4&#45;&gt;BB5 -->
<g id="edge7" class="edge">
<title>BB4&#45;&gt;BB5</title>
<path fill="none" stroke="black" d="M406.12,-267.71C417.82,-256.09 430.54,-243.45 442.56,-231.51"/>
<polygon fill="black" stroke="black" points="445.31,-233.71 449.94,-224.18 440.37,-228.74 445.31,-233.71"/>
</g>
</g>
</svg>
