<?xml version="1.0" encoding="UTF-8" standalone="no"?>
<!DOCTYPE svg PUBLIC "-//W3C//DTD SVG 1.1//EN"
 "http://www.w3.org/Graphics/SVG/1.1/DTD/svg11.dtd">
<!-- Generated by graphviz version 2.47.0 (20210316.0004)
 -->
<!-- Title: G Pages: 1 -->
<svg width="1218pt" height="1029pt"
 viewBox="0.00 0.00 1218.48 1029.33" xmlns="http://www.w3.org/2000/svg" xmlns:xlink="http://www.w3.org/1999/xlink">
<g id="graph0" class="graph" transform="scale(1 1) rotate(0) translate(4 1025.33)">
<title>G</title>
<polygon fill="white" stroke="transparent" points="-4,4 -4,-1025.33 1214.48,-1025.33 1214.48,4 -4,4"/>
<!-- BB0 -->
<g id="node1" class="node">
<title>BB0</title>
<ellipse fill="none" stroke="black" cx="324.24" cy="-973.25" rx="103.48" ry="48.17"/>
<text text-anchor="middle" x="324.24" y="-992.05" font-family="Times New Roman,serif" font-size="14.00">[0..9)</text>
<text text-anchor="middle" x="324.24" y="-977.05" font-family="Times New Roman,serif" font-size="14.00">Count: 10022</text>
<text text-anchor="middle" x="324.24" y="-962.05" font-family="Times New Roman,serif" font-size="14.00">Normalized count: 1.00</text>
<text text-anchor="middle" x="324.24" y="-947.05" font-family="Times New Roman,serif" font-size="14.00">Samples weight: 0.09</text>
</g>
<!-- BB1 -->
<g id="node2" class="node">
<title>BB1</title>
<ellipse fill="none" stroke="black" cx="212.24" cy="-841.08" rx="103.48" ry="48.17"/>
<text text-anchor="middle" x="212.24" y="-859.88" font-family="Times New Roman,serif" font-size="14.00">[9..1d)</text>
<text text-anchor="middle" x="212.24" y="-844.88" font-family="Times New Roman,serif" font-size="14.00">Count: 10022</text>
<text text-anchor="middle" x="212.24" y="-829.88" font-family="Times New Roman,serif" font-size="14.00">Normalized count: 1.00</text>
<text text-anchor="middle" x="212.24" y="-814.88" font-family="Times New Roman,serif" font-size="14.00">Samples weight: 0.09</text>
</g>
<!-- BB0&#45;&gt;BB1 -->
<g id="edge2" class="edge">
<title>BB0&#45;&gt;BB1</title>
<path fill="none" stroke="black" d="M286.32,-928.18C276.83,-917.15 266.57,-905.23 256.79,-893.86"/>
<polygon fill="black" stroke="black" points="259.29,-891.4 250.12,-886.11 253.99,-895.97 259.29,-891.4"/>
</g>
<!-- BB7 -->
<g id="node8" class="node">
<title>BB7</title>
<ellipse fill="none" stroke="black" cx="436.24" cy="-841.08" rx="103.48" ry="48.17"/>
<text text-anchor="middle" x="436.24" y="-859.88" font-family="Times New Roman,serif" font-size="14.00">[4c..55)</text>
<text text-anchor="middle" x="436.24" y="-844.88" font-family="Times New Roman,serif" font-size="14.00">Count: 10022</text>
<text text-anchor="middle" x="436.24" y="-829.88" font-family="Times New Roman,serif" font-size="14.00">Normalized count: 1.00</text>
<text text-anchor="middle" x="436.24" y="-814.88" font-family="Times New Roman,serif" font-size="14.00">Samples weight: 0.09</text>
</g>
<!-- BB0&#45;&gt;BB7 -->
<g id="edge1" class="edge">
<title>BB0&#45;&gt;BB7</title>
<path fill="none" stroke="black" d="M362.16,-928.18C371.64,-917.15 381.91,-905.23 391.68,-893.86"/>
<polygon fill="black" stroke="black" points="394.49,-895.97 398.36,-886.11 389.18,-891.4 394.49,-895.97"/>
</g>
<!-- BB2 -->
<g id="node3" class="node">
<title>BB2</title>
<ellipse fill="none" stroke="black" cx="193.24" cy="-708.92" rx="103.48" ry="48.17"/>
<text text-anchor="middle" x="193.24" y="-727.72" font-family="Times New Roman,serif" font-size="14.00">[1d..29)</text>
<text text-anchor="middle" x="193.24" y="-712.72" font-family="Times New Roman,serif" font-size="14.00">Count: 10022</text>
<text text-anchor="middle" x="193.24" y="-697.72" font-family="Times New Roman,serif" font-size="14.00">Normalized count: 1.00</text>
<text text-anchor="middle" x="193.24" y="-682.72" font-family="Times New Roman,serif" font-size="14.00">Samples weight: 0.09</text>
</g>
<!-- BB1&#45;&gt;BB2 -->
<g id="edge4" class="edge">
<title>BB1&#45;&gt;BB2</title>
<path fill="none" stroke="black" d="M205.38,-793.09C204.16,-784.71 202.87,-775.91 201.61,-767.28"/>
<polygon fill="black" stroke="black" points="205.06,-766.67 200.15,-757.28 198.13,-767.68 205.06,-766.67"/>
</g>
<!-- BB1&#45;&gt;BB7 -->
<g id="edge3" class="edge">
<title>BB1&#45;&gt;BB7</title>
<path fill="none" stroke="black" d="M315.49,-841.08C317.94,-841.08 320.4,-841.08 322.85,-841.08"/>
<polygon fill="black" stroke="black" points="322.94,-844.58 332.94,-841.08 322.94,-837.58 322.94,-844.58"/>
</g>
<!-- BB4 -->
<g id="node5" class="node">
<title>BB4</title>
<ellipse fill="none" stroke="black" cx="181.24" cy="-576.75" rx="103.48" ry="48.17"/>
<text text-anchor="middle" x="181.24" y="-595.55" font-family="Times New Roman,serif" font-size="14.00">[2d..31)</text>
<text text-anchor="middle" x="181.24" y="-580.55" font-family="Times New Roman,serif" font-size="14.00">Count: 20019</text>
<text text-anchor="middle" x="181.24" y="-565.55" font-family="Times New Roman,serif" font-size="14.00">Normalized count: 2.00</text>
<text text-anchor="middle" x="181.24" y="-550.55" font-family="Times New Roman,serif" font-size="14.00">Samples weight: 0.18</text>
</g>
<!-- BB2&#45;&gt;BB4 -->
<g id="edge5" class="edge">
<title>BB2&#45;&gt;BB4</title>
<path fill="none" stroke="black" d="M188.87,-660.55C188.1,-652.2 187.29,-643.41 186.5,-634.82"/>
<polygon fill="black" stroke="black" points="189.98,-634.49 185.58,-624.86 183.01,-635.14 189.98,-634.49"/>
</g>
<!-- BB3 -->
<g id="node4" class="node">
<title>BB3</title>
<ellipse fill="none" stroke="black" cx="103.24" cy="-312.42" rx="103.48" ry="48.17"/>
<text text-anchor="middle" x="103.24" y="-331.22" font-family="Times New Roman,serif" font-size="14.00">[29..2d)</text>
<text text-anchor="middle" x="103.24" y="-316.22" font-family="Times New Roman,serif" font-size="14.00">Count: 9997</text>
<text text-anchor="middle" x="103.24" y="-301.22" font-family="Times New Roman,serif" font-size="14.00">Normalized count: 1.00</text>
<text text-anchor="middle" x="103.24" y="-286.22" font-family="Times New Roman,serif" font-size="14.00">Samples weight: 0.09</text>
</g>
<!-- BB3&#45;&gt;BB4 -->
<g id="edge6" class="edge">
<title>BB3&#45;&gt;BB4</title>
<path fill="none" stroke="black" d="M72.82,-358.68C66.41,-370.5 60.58,-383.57 57.24,-396.5 46.55,-437.88 37.11,-454.96 57.24,-492.67 66.88,-510.74 82.4,-525.58 99.24,-537.45"/>
<polygon fill="black" stroke="black" points="97.33,-540.39 107.59,-543.04 101.23,-534.57 97.33,-540.39"/>
</g>
<!-- BB5 -->
<g id="node6" class="node">
<title>BB5</title>
<ellipse fill="none" stroke="black" cx="169.24" cy="-444.58" rx="103.48" ry="48.17"/>
<text text-anchor="middle" x="169.24" y="-463.38" font-family="Times New Roman,serif" font-size="14.00">[31..3e)</text>
<text text-anchor="middle" x="169.24" y="-448.38" font-family="Times New Roman,serif" font-size="14.00">Count: 20019</text>
<text text-anchor="middle" x="169.24" y="-433.38" font-family="Times New Roman,serif" font-size="14.00">Normalized count: 2.00</text>
<text text-anchor="middle" x="169.24" y="-418.38" font-family="Times New Roman,serif" font-size="14.00">Samples weight: 0.18</text>
</g>
<!-- BB4&#45;&gt;BB5 -->
<g id="edge8" class="edge">
<title>BB4&#45;&gt;BB5</title>
<path fill="none" stroke="black" d="M176.87,-528.39C176.1,-520.03 175.29,-511.25 174.5,-502.65"/>
<polygon fill="black" stroke="black" points="177.98,-502.33 173.58,-492.69 171.01,-502.97 177.98,-502.33"/>
</g>
<!-- BB6 -->
<g id="node7" class="node">
<title>BB6</title>
<ellipse fill="none" stroke="black" cx="393.24" cy="-444.58" rx="103.48" ry="48.17"/>
<text text-anchor="middle" x="393.24" y="-463.38" font-family="Times New Roman,serif" font-size="14.00">[3e..4c)</text>
<text text-anchor="middle" x="393.24" y="-448.38" font-family="Times New Roman,serif" font-size="14.00">Count: 10022</text>
<text text-anchor="middle" x="393.24" y="-433.38" font-family="Times New Roman,serif" font-size="14.00">Normalized count: 1.00</text>
<text text-anchor="middle" x="393.24" y="-418.38" font-family="Times New Roman,serif" font-size="14.00">Samples weight: 0.09</text>
</g>
<!-- BB4&#45;&gt;BB6 -->
<g id="edge7" class="edge">
<title>BB4&#45;&gt;BB6</title>
<path fill="none" stroke="black" d="M242.84,-537.92C267.99,-522.48 297.22,-504.54 323.18,-488.6"/>
<polygon fill="black" stroke="black" points="325.16,-491.49 331.85,-483.28 321.49,-485.53 325.16,-491.49"/>
</g>
<!-- BB5&#45;&gt;BB3 -->
<g id="edge9" class="edge">
<title>BB5&#45;&gt;BB3</title>
<path fill="none" stroke="black" d="M145.97,-397.69C141.19,-388.26 136.11,-378.24 131.18,-368.53"/>
<polygon fill="black" stroke="black" points="134.16,-366.67 126.52,-359.33 127.92,-369.83 134.16,-366.67"/>
</g>
<!-- BB5&#45;&gt;BB6 -->
<g id="edge10" class="edge">
<title>BB5&#45;&gt;BB6</title>
<path fill="none" stroke="black" d="M272.49,-444.58C274.94,-444.58 277.4,-444.58 279.85,-444.58"/>
<polygon fill="black" stroke="black" points="279.94,-448.08 289.94,-444.58 279.94,-441.08 279.94,-448.08"/>
</g>
<!-- BB6&#45;&gt;BB7 -->
<g id="edge11" class="edge">
<title>BB6&#45;&gt;BB7</title>
<path fill="none" stroke="black" d="M377.14,-492.32C358.31,-554.7 333.62,-667.66 366.24,-757 370.47,-768.6 377.12,-779.71 384.68,-789.81"/>
<polygon fill="black" stroke="black" points="381.95,-792.01 390.9,-797.68 387.45,-787.67 381.95,-792.01"/>
</g>
<!-- BB8 -->
<g id="node9" class="node">
<title>BB8</title>
<ellipse fill="none" stroke="black" cx="478.24" cy="-708.92" rx="103.48" ry="48.17"/>
<text text-anchor="middle" x="478.24" y="-727.72" font-family="Times New Roman,serif" font-size="14.00">[55..61)</text>
<text text-anchor="middle" x="478.24" y="-712.72" font-family="Times New Roman,serif" font-size="14.00">Count: 9777</text>
<text text-anchor="middle" x="478.24" y="-697.72" font-family="Times New Roman,serif" font-size="14.00">Normalized count: 0.98</text>
<text text-anchor="middle" x="478.24" y="-682.72" font-family="Times New Roman,serif" font-size="14.00">Samples weight: 0.09</text>
</g>
<!-- BB7&#45;&gt;BB8 -->
<g id="edge13" class="edge">
<title>BB7&#45;&gt;BB8</title>
<path fill="none" stroke="black" d="M451.28,-793.46C454.12,-784.67 457.11,-775.4 460.03,-766.35"/>
<polygon fill="black" stroke="black" points="463.42,-767.24 463.16,-756.65 456.76,-765.1 463.42,-767.24"/>
</g>
<!-- BB9 -->
<g id="node10" class="node">
<title>BB9</title>
<ellipse fill="none" stroke="black" cx="702.24" cy="-708.92" rx="103.48" ry="48.17"/>
<text text-anchor="middle" x="702.24" y="-727.72" font-family="Times New Roman,serif" font-size="14.00">[61..6b)</text>
<text text-anchor="middle" x="702.24" y="-712.72" font-family="Times New Roman,serif" font-size="14.00">Count: 245</text>
<text text-anchor="middle" x="702.24" y="-697.72" font-family="Times New Roman,serif" font-size="14.00">Normalized count: 0.02</text>
<text text-anchor="middle" x="702.24" y="-682.72" font-family="Times New Roman,serif" font-size="14.00">Samples weight: 0.00</text>
</g>
<!-- BB7&#45;&gt;BB9 -->
<g id="edge12" class="edge">
<title>BB7&#45;&gt;BB9</title>
<path fill="none" stroke="black" d="M506.47,-805.71C542.23,-788.21 585.84,-766.87 622.82,-748.78"/>
<polygon fill="black" stroke="black" points="624.63,-751.79 632.07,-744.25 621.55,-745.5 624.63,-751.79"/>
</g>
<!-- BB10 -->
<g id="node11" class="node">
<title>BB10</title>
<ellipse fill="none" stroke="black" cx="659.24" cy="-576.75" rx="103.48" ry="48.17"/>
<text text-anchor="middle" x="659.24" y="-595.55" font-family="Times New Roman,serif" font-size="14.00">[6b..7b)</text>
<text text-anchor="middle" x="659.24" y="-580.55" font-family="Times New Roman,serif" font-size="14.00">Count: 66</text>
<text text-anchor="middle" x="659.24" y="-565.55" font-family="Times New Roman,serif" font-size="14.00">Normalized count: 0.01</text>
<text text-anchor="middle" x="659.24" y="-550.55" font-family="Times New Roman,serif" font-size="14.00">Samples weight: 0.00</text>
</g>
<!-- BB9&#45;&gt;BB10 -->
<g id="edge15" class="edge">
<title>BB9&#45;&gt;BB10</title>
<path fill="none" stroke="black" d="M686.84,-661.29C683.93,-652.5 680.87,-643.23 677.88,-634.18"/>
<polygon fill="black" stroke="black" points="681.14,-632.88 674.68,-624.49 674.49,-635.08 681.14,-632.88"/>
</g>
<!-- BB16 -->
<g id="node17" class="node">
<title>BB16</title>
<ellipse fill="none" stroke="black" cx="883.24" cy="-576.75" rx="103.48" ry="48.17"/>
<text text-anchor="middle" x="883.24" y="-595.55" font-family="Times New Roman,serif" font-size="14.00">[b9..bd)</text>
<text text-anchor="middle" x="883.24" y="-580.55" font-family="Times New Roman,serif" font-size="14.00">Count: 179</text>
<text text-anchor="middle" x="883.24" y="-565.55" font-family="Times New Roman,serif" font-size="14.00">Normalized count: 0.02</text>
<text text-anchor="middle" x="883.24" y="-550.55" font-family="Times New Roman,serif" font-size="14.00">Samples weight: 0.00</text>
</g>
<!-- BB9&#45;&gt;BB16 -->
<g id="edge14" class="edge">
<title>BB9&#45;&gt;BB16</title>
<path fill="none" stroke="black" d="M757.53,-668.15C777.17,-654.03 799.44,-638.01 819.72,-623.43"/>
<polygon fill="black" stroke="black" points="821.9,-626.17 827.98,-617.49 817.81,-620.49 821.9,-626.17"/>
</g>
<!-- BB11 -->
<g id="node12" class="node">
<title>BB11</title>
<ellipse fill="none" stroke="black" cx="659.24" cy="-444.58" rx="103.48" ry="48.17"/>
<text text-anchor="middle" x="659.24" y="-463.38" font-family="Times New Roman,serif" font-size="14.00">[7b..7f)</text>
<text text-anchor="middle" x="659.24" y="-448.38" font-family="Times New Roman,serif" font-size="14.00">Count: 66</text>
<text text-anchor="middle" x="659.24" y="-433.38" font-family="Times New Roman,serif" font-size="14.00">Normalized count: 0.01</text>
<text text-anchor="middle" x="659.24" y="-418.38" font-family="Times New Roman,serif" font-size="14.00">Samples weight: 0.00</text>
</g>
<!-- BB10&#45;&gt;BB11 -->
<g id="edge17" class="edge">
<title>BB10&#45;&gt;BB11</title>
<path fill="none" stroke="black" d="M659.24,-528.39C659.24,-520.12 659.24,-511.44 659.24,-502.93"/>
<polygon fill="black" stroke="black" points="662.74,-502.69 659.24,-492.69 655.74,-502.69 662.74,-502.69"/>
</g>
<!-- BB10&#45;&gt;BB16 -->
<g id="edge16" class="edge">
<title>BB10&#45;&gt;BB16</title>
<path fill="none" stroke="black" d="M762.49,-576.75C764.94,-576.75 767.4,-576.75 769.85,-576.75"/>
<polygon fill="black" stroke="black" points="769.94,-580.25 779.94,-576.75 769.94,-573.25 769.94,-580.25"/>
</g>
<!-- BB12 -->
<g id="node13" class="node">
<title>BB12</title>
<ellipse fill="none" stroke="black" cx="435.24" cy="-312.42" rx="103.48" ry="48.17"/>
<text text-anchor="middle" x="435.24" y="-331.22" font-family="Times New Roman,serif" font-size="14.00">[7f..8a)</text>
<text text-anchor="middle" x="435.24" y="-316.22" font-family="Times New Roman,serif" font-size="14.00">Count: 0</text>
<text text-anchor="middle" x="435.24" y="-301.22" font-family="Times New Roman,serif" font-size="14.00">Normalized count: 0.00</text>
<text text-anchor="middle" x="435.24" y="-286.22" font-family="Times New Roman,serif" font-size="14.00">Samples weight: 0.00</text>
</g>
<!-- BB11&#45;&gt;BB12 -->
<g id="edge19" class="edge">
<title>BB11&#45;&gt;BB12</title>
<path fill="none" stroke="black" d="M595.65,-406.63C568.22,-390.69 535.99,-371.97 507.65,-355.49"/>
<polygon fill="black" stroke="black" points="509.39,-352.46 498.99,-350.46 505.87,-358.51 509.39,-352.46"/>
</g>
<!-- BB13 -->
<g id="node14" class="node">
<title>BB13</title>
<ellipse fill="none" stroke="black" cx="659.24" cy="-312.42" rx="103.48" ry="48.17"/>
<text text-anchor="middle" x="659.24" y="-331.22" font-family="Times New Roman,serif" font-size="14.00">[8a..94)</text>
<text text-anchor="middle" x="659.24" y="-316.22" font-family="Times New Roman,serif" font-size="14.00">Count: 66</text>
<text text-anchor="middle" x="659.24" y="-301.22" font-family="Times New Roman,serif" font-size="14.00">Normalized count: 0.01</text>
<text text-anchor="middle" x="659.24" y="-286.22" font-family="Times New Roman,serif" font-size="14.00">Samples weight: 0.00</text>
</g>
<!-- BB11&#45;&gt;BB13 -->
<g id="edge18" class="edge">
<title>BB11&#45;&gt;BB13</title>
<path fill="none" stroke="black" d="M659.24,-396.22C659.24,-387.95 659.24,-379.27 659.24,-370.77"/>
<polygon fill="black" stroke="black" points="662.74,-370.52 659.24,-360.52 655.74,-370.52 662.74,-370.52"/>
</g>
<!-- BB14 -->
<g id="node15" class="node">
<title>BB14</title>
<ellipse fill="none" stroke="black" cx="603.24" cy="-180.25" rx="103.48" ry="48.17"/>
<text text-anchor="middle" x="603.24" y="-199.05" font-family="Times New Roman,serif" font-size="14.00">[94..ad)</text>
<text text-anchor="middle" x="603.24" y="-184.05" font-family="Times New Roman,serif" font-size="14.00">Count: 66</text>
<text text-anchor="middle" x="603.24" y="-169.05" font-family="Times New Roman,serif" font-size="14.00">Normalized count: 0.01</text>
<text text-anchor="middle" x="603.24" y="-154.05" font-family="Times New Roman,serif" font-size="14.00">Samples weight: 0.00</text>
</g>
<!-- BB12&#45;&gt;BB14 -->
<g id="edge20" class="edge">
<title>BB12&#45;&gt;BB14</title>
<path fill="none" stroke="black" d="M487.93,-270.59C505.29,-257.14 524.73,-242.08 542.63,-228.21"/>
<polygon fill="black" stroke="black" points="544.97,-230.82 550.73,-221.93 540.68,-225.29 544.97,-230.82"/>
</g>
<!-- BB13&#45;&gt;BB14 -->
<g id="edge21" class="edge">
<title>BB13&#45;&gt;BB14</title>
<path fill="none" stroke="black" d="M639.34,-265.16C635.42,-256.06 631.28,-246.43 627.25,-237.05"/>
<polygon fill="black" stroke="black" points="630.43,-235.6 623.26,-227.8 624,-238.37 630.43,-235.6"/>
</g>
<!-- BB15 -->
<g id="node16" class="node">
<title>BB15</title>
<ellipse fill="none" stroke="black" cx="603.24" cy="-48.08" rx="103.48" ry="48.17"/>
<text text-anchor="middle" x="603.24" y="-66.88" font-family="Times New Roman,serif" font-size="14.00">[ad..b9)</text>
<text text-anchor="middle" x="603.24" y="-51.88" font-family="Times New Roman,serif" font-size="14.00">Count: 66</text>
<text text-anchor="middle" x="603.24" y="-36.88" font-family="Times New Roman,serif" font-size="14.00">Normalized count: 0.01</text>
<text text-anchor="middle" x="603.24" y="-21.88" font-family="Times New Roman,serif" font-size="14.00">Samples weight: 0.00</text>
</g>
<!-- BB14&#45;&gt;BB15 -->
<g id="edge23" class="edge">
<title>BB14&#45;&gt;BB15</title>
<path fill="none" stroke="black" d="M603.24,-131.89C603.24,-123.62 603.24,-114.94 603.24,-106.43"/>
<polygon fill="black" stroke="black" points="606.74,-106.19 603.24,-96.19 599.74,-106.19 606.74,-106.19"/>
</g>
<!-- BB22 -->
<g id="node23" class="node">
<title>BB22</title>
<ellipse fill="none" stroke="black" cx="939.24" cy="-48.08" rx="103.48" ry="48.17"/>
<text text-anchor="middle" x="939.24" y="-66.88" font-family="Times New Roman,serif" font-size="14.00">[d8..d9)</text>
<text text-anchor="middle" x="939.24" y="-51.88" font-family="Times New Roman,serif" font-size="14.00">Count: 179</text>
<text text-anchor="middle" x="939.24" y="-36.88" font-family="Times New Roman,serif" font-size="14.00">Normalized count: 0.02</text>
<text text-anchor="middle" x="939.24" y="-21.88" font-family="Times New Roman,serif" font-size="14.00">Samples weight: 0.00</text>
</g>
<!-- BB14&#45;&gt;BB22 -->
<g id="edge22" class="edge">
<title>BB14&#45;&gt;BB22</title>
<path fill="none" stroke="black" d="M678.36,-147.15C690.65,-142.05 703.27,-136.9 715.24,-132.17 758.98,-114.87 807.93,-96.59 848.89,-81.59"/>
<polygon fill="black" stroke="black" points="850.12,-84.87 858.31,-78.15 847.72,-78.3 850.12,-84.87"/>
</g>
<!-- BB17 -->
<g id="node18" class="node">
<title>BB17</title>
<ellipse fill="none" stroke="black" cx="883.24" cy="-444.58" rx="103.48" ry="48.17"/>
<text text-anchor="middle" x="883.24" y="-463.38" font-family="Times New Roman,serif" font-size="14.00">[bd..c0)</text>
<text text-anchor="middle" x="883.24" y="-448.38" font-family="Times New Roman,serif" font-size="14.00">Count: 0</text>
<text text-anchor="middle" x="883.24" y="-433.38" font-family="Times New Roman,serif" font-size="14.00">Normalized count: 0.00</text>
<text text-anchor="middle" x="883.24" y="-418.38" font-family="Times New Roman,serif" font-size="14.00">Samples weight: 0.00</text>
</g>
<!-- BB16&#45;&gt;BB17 -->
<g id="edge25" class="edge">
<title>BB16&#45;&gt;BB17</title>
<path fill="none" stroke="black" d="M883.24,-528.39C883.24,-520.12 883.24,-511.44 883.24,-502.93"/>
<polygon fill="black" stroke="black" points="886.74,-502.69 883.24,-492.69 879.74,-502.69 886.74,-502.69"/>
</g>
<!-- BB18 -->
<g id="node19" class="node">
<title>BB18</title>
<ellipse fill="none" stroke="black" cx="1107.24" cy="-444.58" rx="103.48" ry="48.17"/>
<text text-anchor="middle" x="1107.24" y="-463.38" font-family="Times New Roman,serif" font-size="14.00">[c0..c1)</text>
<text text-anchor="middle" x="1107.24" y="-448.38" font-family="Times New Roman,serif" font-size="14.00">Count: 179</text>
<text text-anchor="middle" x="1107.24" y="-433.38" font-family="Times New Roman,serif" font-size="14.00">Normalized count: 0.02</text>
<text text-anchor="middle" x="1107.24" y="-418.38" font-family="Times New Roman,serif" font-size="14.00">Samples weight: 0.00</text>
</g>
<!-- BB16&#45;&gt;BB18 -->
<g id="edge24" class="edge">
<title>BB16&#45;&gt;BB18</title>
<path fill="none" stroke="black" d="M946.83,-538.8C974.26,-522.86 1006.48,-504.13 1034.83,-487.66"/>
<polygon fill="black" stroke="black" points="1036.6,-490.68 1043.49,-482.63 1033.08,-484.63 1036.6,-490.68"/>
</g>
<!-- BB19 -->
<g id="node20" class="node">
<title>BB19</title>
<ellipse fill="none" stroke="black" cx="939.24" cy="-312.42" rx="103.48" ry="48.17"/>
<text text-anchor="middle" x="939.24" y="-331.22" font-family="Times New Roman,serif" font-size="14.00">[c1..cb)</text>
<text text-anchor="middle" x="939.24" y="-316.22" font-family="Times New Roman,serif" font-size="14.00">Count: 179</text>
<text text-anchor="middle" x="939.24" y="-301.22" font-family="Times New Roman,serif" font-size="14.00">Normalized count: 0.02</text>
<text text-anchor="middle" x="939.24" y="-286.22" font-family="Times New Roman,serif" font-size="14.00">Samples weight: 0.00</text>
</g>
<!-- BB17&#45;&gt;BB19 -->
<g id="edge26" class="edge">
<title>BB17&#45;&gt;BB19</title>
<path fill="none" stroke="black" d="M903.14,-397.32C907.05,-388.23 911.2,-378.59 915.23,-369.22"/>
<polygon fill="black" stroke="black" points="918.47,-370.53 919.21,-359.96 912.04,-367.77 918.47,-370.53"/>
</g>
<!-- BB18&#45;&gt;BB19 -->
<g id="edge27" class="edge">
<title>BB18&#45;&gt;BB19</title>
<path fill="none" stroke="black" d="M1054.54,-402.75C1037.19,-389.31 1017.75,-374.25 999.85,-360.38"/>
<polygon fill="black" stroke="black" points="1001.79,-357.46 991.75,-354.1 997.51,-362.99 1001.79,-357.46"/>
</g>
<!-- BB20 -->
<g id="node21" class="node">
<title>BB20</title>
<ellipse fill="none" stroke="black" cx="827.24" cy="-180.25" rx="103.48" ry="48.17"/>
<text text-anchor="middle" x="827.24" y="-199.05" font-family="Times New Roman,serif" font-size="14.00">[cb..d3)</text>
<text text-anchor="middle" x="827.24" y="-184.05" font-family="Times New Roman,serif" font-size="14.00">Count: 0</text>
<text text-anchor="middle" x="827.24" y="-169.05" font-family="Times New Roman,serif" font-size="14.00">Normalized count: 0.00</text>
<text text-anchor="middle" x="827.24" y="-154.05" font-family="Times New Roman,serif" font-size="14.00">Samples weight: 0.00</text>
</g>
<!-- BB19&#45;&gt;BB20 -->
<g id="edge29" class="edge">
<title>BB19&#45;&gt;BB20</title>
<path fill="none" stroke="black" d="M901.32,-267.35C891.83,-256.32 881.57,-244.39 871.79,-233.03"/>
<polygon fill="black" stroke="black" points="874.29,-230.57 865.12,-225.27 868.99,-235.14 874.29,-230.57"/>
</g>
<!-- BB21 -->
<g id="node22" class="node">
<title>BB21</title>
<ellipse fill="none" stroke="black" cx="1051.24" cy="-180.25" rx="103.48" ry="48.17"/>
<text text-anchor="middle" x="1051.24" y="-199.05" font-family="Times New Roman,serif" font-size="14.00">[d3..d8)</text>
<text text-anchor="middle" x="1051.24" y="-184.05" font-family="Times New Roman,serif" font-size="14.00">Count: 179</text>
<text text-anchor="middle" x="1051.24" y="-169.05" font-family="Times New Roman,serif" font-size="14.00">Normalized count: 0.02</text>
<text text-anchor="middle" x="1051.24" y="-154.05" font-family="Times New Roman,serif" font-size="14.00">Samples weight: 0.00</text>
</g>
<!-- BB19&#45;&gt;BB21 -->
<g id="edge28" class="edge">
<title>BB19&#45;&gt;BB21</title>
<path fill="none" stroke="black" d="M977.16,-267.35C986.64,-256.32 996.91,-244.39 1006.68,-233.03"/>
<polygon fill="black" stroke="black" points="1009.49,-235.14 1013.36,-225.27 1004.18,-230.57 1009.49,-235.14"/>
</g>
<!-- BB20&#45;&gt;BB21 -->
<g id="edge30" class="edge">
<title>BB20&#45;&gt;BB21</title>
<path fill="none" stroke="black" d="M930.49,-180.25C932.94,-180.25 935.4,-180.25 937.85,-180.25"/>
<polygon fill="black" stroke="black" points="937.94,-183.75 947.94,-180.25 937.94,-176.75 937.94,-183.75"/>
</g>
<!-- BB21&#45;&gt;BB22 -->
<g id="edge31" class="edge">
<title>BB21&#45;&gt;BB22</title>
<path fill="none" stroke="black" d="M1013.32,-135.18C1003.83,-124.16 993.57,-112.23 983.79,-100.86"/>
<polygon fill="black" stroke="black" points="986.29,-98.4 977.12,-93.11 980.99,-102.97 986.29,-98.4"/>
</g>
</g>
</svg>
