<?xml version="1.0" encoding="UTF-8" standalone="no"?>
<!DOCTYPE svg PUBLIC "-//W3C//DTD SVG 1.1//EN"
 "http://www.w3.org/Graphics/SVG/1.1/DTD/svg11.dtd">
<!-- Generated by graphviz version 2.47.0 (20210316.0004)
 -->
<!-- Title: G Pages: 1 -->
<svg width="194pt" height="241pt"
 viewBox="0.00 0.00 194.15 241.22" xmlns="http://www.w3.org/2000/svg" xmlns:xlink="http://www.w3.org/1999/xlink">
<g id="graph0" class="graph" transform="scale(1 1) rotate(0) translate(4 237.22)">
<title>G</title>
<polygon fill="white" stroke="transparent" points="-4,4 -4,-237.22 190.15,-237.22 190.15,4 -4,4"/>
<!-- BB0 -->
<g id="node1" class="node">
<title>BB0</title>
<ellipse fill="none" stroke="black" cx="41.72" cy="-206.35" rx="37.45" ry="26.74"/>
<text text-anchor="middle" x="41.72" y="-210.15" font-family="Times New Roman,serif" font-size="14.00">[0..12)</text>
<text text-anchor="middle" x="41.72" y="-195.15" font-family="Times New Roman,serif" font-size="14.00">0.00</text>
</g>
<!-- BB2 -->
<g id="node3" class="node">
<title>BB2</title>
<ellipse fill="none" stroke="black" cx="41.72" cy="-116.61" rx="41.94" ry="26.74"/>
<text text-anchor="middle" x="41.72" y="-120.41" font-family="Times New Roman,serif" font-size="14.00">[2a..30)</text>
<text text-anchor="middle" x="41.72" y="-105.41" font-family="Times New Roman,serif" font-size="14.00">0.50</text>
</g>
<!-- BB0&#45;&gt;BB2 -->
<g id="edge1" class="edge">
<title>BB0&#45;&gt;BB2</title>
<path fill="none" stroke="black" d="M41.72,-179.03C41.72,-171.06 41.72,-162.17 41.72,-153.68"/>
<polygon fill="black" stroke="black" points="45.22,-153.61 41.72,-143.61 38.22,-153.61 45.22,-153.61"/>
</g>
<!-- BB1 -->
<g id="node2" class="node">
<title>BB1</title>
<ellipse fill="none" stroke="black" cx="41.72" cy="-26.87" rx="41.94" ry="26.74"/>
<text text-anchor="middle" x="41.72" y="-30.67" font-family="Times New Roman,serif" font-size="14.00">[12..2a)</text>
<text text-anchor="middle" x="41.72" y="-15.67" font-family="Times New Roman,serif" font-size="14.00">0.50</text>
</g>
<!-- BB1&#45;&gt;BB2 -->
<g id="edge2" class="edge">
<title>BB1&#45;&gt;BB2</title>
<path fill="none" stroke="black" d="M47.92,-53.54C48.44,-61.73 48.59,-70.96 48.37,-79.74"/>
<polygon fill="black" stroke="black" points="44.87,-79.62 47.94,-89.76 51.86,-79.92 44.87,-79.62"/>
</g>
<!-- BB2&#45;&gt;BB1 -->
<g id="edge3" class="edge">
<title>BB2&#45;&gt;BB1</title>
<path fill="none" stroke="black" d="M35.5,-89.76C34.99,-81.55 34.85,-72.32 35.08,-63.54"/>
<polygon fill="black" stroke="black" points="38.57,-63.68 35.51,-53.54 31.58,-63.37 38.57,-63.68"/>
</g>
<!-- BB3 -->
<g id="node4" class="node">
<title>BB3</title>
<ellipse fill="none" stroke="black" cx="143.72" cy="-26.87" rx="42.35" ry="26.74"/>
<text text-anchor="middle" x="143.72" y="-30.67" font-family="Times New Roman,serif" font-size="14.00">[30..37)</text>
<text text-anchor="middle" x="143.72" y="-15.67" font-family="Times New Roman,serif" font-size="14.00">0.00</text>
</g>
<!-- BB2&#45;&gt;BB3 -->
<g id="edge4" class="edge">
<title>BB2&#45;&gt;BB3</title>
<path fill="none" stroke="black" d="M66.15,-94.59C79.68,-82.96 96.66,-68.35 111.29,-55.77"/>
<polygon fill="black" stroke="black" points="113.83,-58.19 119.13,-49.02 109.27,-52.89 113.83,-58.19"/>
</g>
</g>
</svg>
