<?xml version="1.0" encoding="UTF-8" standalone="no"?>
<!DOCTYPE svg PUBLIC "-//W3C//DTD SVG 1.1//EN"
 "http://www.w3.org/Graphics/SVG/1.1/DTD/svg11.dtd">
<!-- Generated by graphviz version 2.47.0 (20210316.0004)
 -->
<!-- Title: G Pages: 1 -->
<svg width="687pt" height="527pt"
 viewBox="0.00 0.00 686.67 526.77" xmlns="http://www.w3.org/2000/svg" xmlns:xlink="http://www.w3.org/1999/xlink">
<g id="graph0" class="graph" transform="scale(1 1) rotate(0) translate(4 522.77)">
<title>G</title>
<polygon fill="white" stroke="transparent" points="-4,4 -4,-522.77 682.67,-522.77 682.67,4 -4,4"/>
<!-- BB0 -->
<g id="node1" class="node">
<title>BB0</title>
<ellipse fill="none" stroke="black" cx="110.31" cy="-481.29" rx="105.22" ry="37.45"/>
<text text-anchor="middle" x="110.31" y="-492.59" font-family="Times New Roman,serif" font-size="14.00">[0..7)</text>
<text text-anchor="middle" x="110.31" y="-477.59" font-family="Times New Roman,serif" font-size="14.00">Normalized Count: 1.00</text>
<text text-anchor="middle" x="110.31" y="-462.59" font-family="Times New Roman,serif" font-size="14.00">Samples weight: 0.01</text>
</g>
<!-- BB2 -->
<g id="node3" class="node">
<title>BB2</title>
<ellipse fill="none" stroke="black" cx="110.31" cy="-370.34" rx="110.12" ry="37.45"/>
<text text-anchor="middle" x="110.31" y="-381.64" font-family="Times New Roman,serif" font-size="14.00">[2e..32)</text>
<text text-anchor="middle" x="110.31" y="-366.64" font-family="Times New Roman,serif" font-size="14.00">Normalized Count: 64.00</text>
<text text-anchor="middle" x="110.31" y="-351.64" font-family="Times New Roman,serif" font-size="14.00">Samples weight: 0.49</text>
</g>
<!-- BB0&#45;&gt;BB2 -->
<g id="edge1" class="edge">
<title>BB0&#45;&gt;BB2</title>
<path fill="none" stroke="black" d="M110.31,-443.71C110.31,-435.53 110.31,-426.75 110.31,-418.23"/>
<polygon fill="black" stroke="black" points="113.81,-418.01 110.31,-408.01 106.81,-418.01 113.81,-418.01"/>
</g>
<!-- BB1 -->
<g id="node2" class="node">
<title>BB1</title>
<ellipse fill="none" stroke="black" cx="110.31" cy="-259.38" rx="110.12" ry="37.45"/>
<text text-anchor="middle" x="110.31" y="-270.68" font-family="Times New Roman,serif" font-size="14.00">[7..2e)</text>
<text text-anchor="middle" x="110.31" y="-255.68" font-family="Times New Roman,serif" font-size="14.00">Normalized Count: 63.00</text>
<text text-anchor="middle" x="110.31" y="-240.68" font-family="Times New Roman,serif" font-size="14.00">Samples weight: 0.48</text>
</g>
<!-- BB1&#45;&gt;BB2 -->
<g id="edge2" class="edge">
<title>BB1&#45;&gt;BB2</title>
<path fill="none" stroke="black" d="M116.73,-297.06C117.04,-305.23 117.13,-314.02 117,-322.54"/>
<polygon fill="black" stroke="black" points="113.49,-322.66 116.72,-332.75 120.49,-322.85 113.49,-322.66"/>
</g>
<!-- BB2&#45;&gt;BB1 -->
<g id="edge3" class="edge">
<title>BB2&#45;&gt;BB1</title>
<path fill="none" stroke="black" d="M103.89,-332.75C103.58,-324.58 103.48,-315.8 103.62,-307.27"/>
<polygon fill="black" stroke="black" points="107.12,-307.15 103.89,-297.06 100.12,-306.96 107.12,-307.15"/>
</g>
<!-- BB3 -->
<g id="node4" class="node">
<title>BB3</title>
<ellipse fill="none" stroke="black" cx="344.31" cy="-259.38" rx="105.22" ry="37.45"/>
<text text-anchor="middle" x="344.31" y="-270.68" font-family="Times New Roman,serif" font-size="14.00">[32..34)</text>
<text text-anchor="middle" x="344.31" y="-255.68" font-family="Times New Roman,serif" font-size="14.00">Normalized Count: 1.00</text>
<text text-anchor="middle" x="344.31" y="-240.68" font-family="Times New Roman,serif" font-size="14.00">Samples weight: 0.01</text>
</g>
<!-- BB2&#45;&gt;BB3 -->
<g id="edge4" class="edge">
<title>BB2&#45;&gt;BB3</title>
<path fill="none" stroke="black" d="M173.94,-339.71C204.37,-325.54 240.92,-308.52 272.35,-293.89"/>
<polygon fill="black" stroke="black" points="273.91,-297.02 281.5,-289.63 270.96,-290.68 273.91,-297.02"/>
</g>
<!-- BB5 -->
<g id="node6" class="node">
<title>BB5</title>
<ellipse fill="none" stroke="black" cx="344.31" cy="-148.43" rx="105.22" ry="37.45"/>
<text text-anchor="middle" x="344.31" y="-159.73" font-family="Times New Roman,serif" font-size="14.00">[52..56)</text>
<text text-anchor="middle" x="344.31" y="-144.73" font-family="Times New Roman,serif" font-size="14.00">Normalized Count: 1.00</text>
<text text-anchor="middle" x="344.31" y="-129.73" font-family="Times New Roman,serif" font-size="14.00">Samples weight: 0.01</text>
</g>
<!-- BB3&#45;&gt;BB5 -->
<g id="edge5" class="edge">
<title>BB3&#45;&gt;BB5</title>
<path fill="none" stroke="black" d="M344.31,-221.8C344.31,-213.63 344.31,-204.85 344.31,-196.32"/>
<polygon fill="black" stroke="black" points="347.81,-196.1 344.31,-186.1 340.81,-196.1 347.81,-196.1"/>
</g>
<!-- BB4 -->
<g id="node5" class="node">
<title>BB4</title>
<ellipse fill="none" stroke="black" cx="344.31" cy="-37.48" rx="105.22" ry="37.45"/>
<text text-anchor="middle" x="344.31" y="-48.78" font-family="Times New Roman,serif" font-size="14.00">[34..52)</text>
<text text-anchor="middle" x="344.31" y="-33.78" font-family="Times New Roman,serif" font-size="14.00">Normalized Count: 0.00</text>
<text text-anchor="middle" x="344.31" y="-18.78" font-family="Times New Roman,serif" font-size="14.00">Samples weight: 0.00</text>
</g>
<!-- BB4&#45;&gt;BB5 -->
<g id="edge6" class="edge">
<title>BB4&#45;&gt;BB5</title>
<path fill="none" stroke="black" d="M350.73,-75.15C351.04,-83.33 351.13,-92.11 351,-100.63"/>
<polygon fill="black" stroke="black" points="347.49,-100.76 350.72,-110.85 354.49,-100.94 347.49,-100.76"/>
</g>
<!-- BB5&#45;&gt;BB4 -->
<g id="edge7" class="edge">
<title>BB5&#45;&gt;BB4</title>
<path fill="none" stroke="black" d="M337.89,-110.85C337.58,-102.67 337.48,-93.89 337.62,-85.37"/>
<polygon fill="black" stroke="black" points="341.12,-85.24 337.89,-75.15 334.12,-85.05 341.12,-85.24"/>
</g>
<!-- BB6 -->
<g id="node7" class="node">
<title>BB6</title>
<ellipse fill="none" stroke="black" cx="573.31" cy="-37.48" rx="105.22" ry="37.45"/>
<text text-anchor="middle" x="573.31" y="-48.78" font-family="Times New Roman,serif" font-size="14.00">[56..61)</text>
<text text-anchor="middle" x="573.31" y="-33.78" font-family="Times New Roman,serif" font-size="14.00">Normalized Count: 1.00</text>
<text text-anchor="middle" x="573.31" y="-18.78" font-family="Times New Roman,serif" font-size="14.00">Samples weight: 0.01</text>
</g>
<!-- BB5&#45;&gt;BB6 -->
<g id="edge8" class="edge">
<title>BB5&#45;&gt;BB6</title>
<path fill="none" stroke="black" d="M406.28,-117.95C435.81,-103.9 471.29,-87.01 501.94,-72.43"/>
<polygon fill="black" stroke="black" points="503.76,-75.44 511.29,-67.98 500.75,-69.12 503.76,-75.44"/>
</g>
</g>
</svg>
