<?xml version="1.0" encoding="UTF-8" standalone="no"?>
<!DOCTYPE svg PUBLIC "-//W3C//DTD SVG 1.1//EN"
 "http://www.w3.org/Graphics/SVG/1.1/DTD/svg11.dtd">
<!-- Generated by graphviz version 2.47.0 (20210316.0004)
 -->
<!-- Title: G Pages: 1 -->
<svg width="689pt" height="633pt"
 viewBox="0.00 0.00 689.50 632.83" xmlns="http://www.w3.org/2000/svg" xmlns:xlink="http://www.w3.org/1999/xlink">
<g id="graph0" class="graph" transform="scale(1 1) rotate(0) translate(4 628.83)">
<title>G</title>
<polygon fill="white" stroke="transparent" points="-4,4 -4,-628.83 685.5,-628.83 685.5,4 -4,4"/>
<!-- BB0 -->
<g id="node1" class="node">
<title>BB0</title>
<ellipse fill="none" stroke="black" cx="113.84" cy="-576.75" rx="104.8" ry="48.17"/>
<text text-anchor="middle" x="113.84" y="-595.55" font-family="Times New Roman,serif" font-size="14.00">[0..7)</text>
<text text-anchor="middle" x="113.84" y="-580.55" font-family="Times New Roman,serif" font-size="14.00">Count: 0</text>
<text text-anchor="middle" x="113.84" y="-565.55" font-family="Times New Roman,serif" font-size="14.00">Normalized count: NaN</text>
<text text-anchor="middle" x="113.84" y="-550.55" font-family="Times New Roman,serif" font-size="14.00">Samples weight: 0.00</text>
</g>
<!-- BB2 -->
<g id="node3" class="node">
<title>BB2</title>
<ellipse fill="none" stroke="black" cx="113.84" cy="-444.58" rx="113.69" ry="48.17"/>
<text text-anchor="middle" x="113.84" y="-463.38" font-family="Times New Roman,serif" font-size="14.00">[2e..32)</text>
<text text-anchor="middle" x="113.84" y="-448.38" font-family="Times New Roman,serif" font-size="14.00">Count: 8</text>
<text text-anchor="middle" x="113.84" y="-433.38" font-family="Times New Roman,serif" font-size="14.00">Normalized count: Infinity</text>
<text text-anchor="middle" x="113.84" y="-418.38" font-family="Times New Roman,serif" font-size="14.00">Samples weight: 0.06</text>
</g>
<!-- BB0&#45;&gt;BB2 -->
<g id="edge1" class="edge">
<title>BB0&#45;&gt;BB2</title>
<path fill="none" stroke="black" d="M113.84,-528.39C113.84,-520.12 113.84,-511.44 113.84,-502.93"/>
<polygon fill="black" stroke="black" points="117.34,-502.69 113.84,-492.69 110.34,-502.69 117.34,-502.69"/>
</g>
<!-- BB1 -->
<g id="node2" class="node">
<title>BB1</title>
<ellipse fill="none" stroke="black" cx="113.84" cy="-312.42" rx="113.69" ry="48.17"/>
<text text-anchor="middle" x="113.84" y="-331.22" font-family="Times New Roman,serif" font-size="14.00">[7..2e)</text>
<text text-anchor="middle" x="113.84" y="-316.22" font-family="Times New Roman,serif" font-size="14.00">Count: 130</text>
<text text-anchor="middle" x="113.84" y="-301.22" font-family="Times New Roman,serif" font-size="14.00">Normalized count: Infinity</text>
<text text-anchor="middle" x="113.84" y="-286.22" font-family="Times New Roman,serif" font-size="14.00">Samples weight: 0.94</text>
</g>
<!-- BB1&#45;&gt;BB2 -->
<g id="edge2" class="edge">
<title>BB1&#45;&gt;BB2</title>
<path fill="none" stroke="black" d="M120.36,-360.52C120.58,-368.78 120.65,-377.46 120.55,-385.97"/>
<polygon fill="black" stroke="black" points="117.05,-386.16 120.37,-396.22 124.05,-386.29 117.05,-386.16"/>
</g>
<!-- BB2&#45;&gt;BB1 -->
<g id="edge3" class="edge">
<title>BB2&#45;&gt;BB1</title>
<path fill="none" stroke="black" d="M107.32,-396.22C107.1,-387.95 107.04,-379.27 107.14,-370.77"/>
<polygon fill="black" stroke="black" points="110.64,-370.59 107.33,-360.52 103.64,-370.46 110.64,-370.59"/>
</g>
<!-- BB3 -->
<g id="node4" class="node">
<title>BB3</title>
<ellipse fill="none" stroke="black" cx="349.84" cy="-312.42" rx="104.8" ry="48.17"/>
<text text-anchor="middle" x="349.84" y="-331.22" font-family="Times New Roman,serif" font-size="14.00">[32..34)</text>
<text text-anchor="middle" x="349.84" y="-316.22" font-family="Times New Roman,serif" font-size="14.00">Count: 0</text>
<text text-anchor="middle" x="349.84" y="-301.22" font-family="Times New Roman,serif" font-size="14.00">Normalized count: NaN</text>
<text text-anchor="middle" x="349.84" y="-286.22" font-family="Times New Roman,serif" font-size="14.00">Samples weight: 0.00</text>
</g>
<!-- BB2&#45;&gt;BB3 -->
<g id="edge4" class="edge">
<title>BB2&#45;&gt;BB3</title>
<path fill="none" stroke="black" d="M182.11,-405.93C211.1,-389.94 244.99,-371.25 274.7,-354.86"/>
<polygon fill="black" stroke="black" points="276.7,-357.75 283.77,-349.86 273.32,-351.63 276.7,-357.75"/>
</g>
<!-- BB5 -->
<g id="node6" class="node">
<title>BB5</title>
<ellipse fill="none" stroke="black" cx="349.84" cy="-180.25" rx="104.8" ry="48.17"/>
<text text-anchor="middle" x="349.84" y="-199.05" font-family="Times New Roman,serif" font-size="14.00">[52..56)</text>
<text text-anchor="middle" x="349.84" y="-184.05" font-family="Times New Roman,serif" font-size="14.00">Count: 0</text>
<text text-anchor="middle" x="349.84" y="-169.05" font-family="Times New Roman,serif" font-size="14.00">Normalized count: NaN</text>
<text text-anchor="middle" x="349.84" y="-154.05" font-family="Times New Roman,serif" font-size="14.00">Samples weight: 0.00</text>
</g>
<!-- BB3&#45;&gt;BB5 -->
<g id="edge5" class="edge">
<title>BB3&#45;&gt;BB5</title>
<path fill="none" stroke="black" d="M349.84,-264.05C349.84,-255.79 349.84,-247.1 349.84,-238.6"/>
<polygon fill="black" stroke="black" points="353.34,-238.36 349.84,-228.36 346.34,-238.36 353.34,-238.36"/>
</g>
<!-- BB4 -->
<g id="node5" class="node">
<title>BB4</title>
<ellipse fill="none" stroke="black" cx="349.84" cy="-48.08" rx="104.8" ry="48.17"/>
<text text-anchor="middle" x="349.84" y="-66.88" font-family="Times New Roman,serif" font-size="14.00">[34..52)</text>
<text text-anchor="middle" x="349.84" y="-51.88" font-family="Times New Roman,serif" font-size="14.00">Count: 0</text>
<text text-anchor="middle" x="349.84" y="-36.88" font-family="Times New Roman,serif" font-size="14.00">Normalized count: NaN</text>
<text text-anchor="middle" x="349.84" y="-21.88" font-family="Times New Roman,serif" font-size="14.00">Samples weight: 0.00</text>
</g>
<!-- BB4&#45;&gt;BB5 -->
<g id="edge6" class="edge">
<title>BB4&#45;&gt;BB5</title>
<path fill="none" stroke="black" d="M356.37,-96.44C356.58,-104.74 356.65,-113.45 356.55,-121.98"/>
<polygon fill="black" stroke="black" points="353.05,-122.19 356.36,-132.26 360.05,-122.32 353.05,-122.19"/>
</g>
<!-- BB5&#45;&gt;BB4 -->
<g id="edge7" class="edge">
<title>BB5&#45;&gt;BB4</title>
<path fill="none" stroke="black" d="M343.33,-132.26C343.11,-123.88 343.04,-115.07 343.14,-106.45"/>
<polygon fill="black" stroke="black" points="346.64,-106.51 343.32,-96.44 339.64,-106.38 346.64,-106.51"/>
</g>
<!-- BB6 -->
<g id="node7" class="node">
<title>BB6</title>
<ellipse fill="none" stroke="black" cx="576.84" cy="-48.08" rx="104.8" ry="48.17"/>
<text text-anchor="middle" x="576.84" y="-66.88" font-family="Times New Roman,serif" font-size="14.00">[56..57)</text>
<text text-anchor="middle" x="576.84" y="-51.88" font-family="Times New Roman,serif" font-size="14.00">Count: 0</text>
<text text-anchor="middle" x="576.84" y="-36.88" font-family="Times New Roman,serif" font-size="14.00">Normalized count: NaN</text>
<text text-anchor="middle" x="576.84" y="-21.88" font-family="Times New Roman,serif" font-size="14.00">Samples weight: 0.00</text>
</g>
<!-- BB5&#45;&gt;BB6 -->
<g id="edge8" class="edge">
<title>BB5&#45;&gt;BB6</title>
<path fill="none" stroke="black" d="M414.29,-142.3C442.08,-126.36 474.74,-107.63 503.46,-91.16"/>
<polygon fill="black" stroke="black" points="505.31,-94.14 512.24,-86.13 501.83,-88.07 505.31,-94.14"/>
</g>
</g>
</svg>
