<?xml version="1.0" encoding="UTF-8" standalone="no"?>
<!DOCTYPE svg PUBLIC "-//W3C//DTD SVG 1.1//EN"
 "http://www.w3.org/Graphics/SVG/1.1/DTD/svg11.dtd">
<!-- Generated by graphviz version 2.47.0 (20210316.0004)
 -->
<!-- Title: G Pages: 1 -->
<svg width="293pt" height="421pt"
 viewBox="0.00 0.00 293.15 420.70" xmlns="http://www.w3.org/2000/svg" xmlns:xlink="http://www.w3.org/1999/xlink">
<g id="graph0" class="graph" transform="scale(1 1) rotate(0) translate(4 416.7)">
<title>G</title>
<polygon fill="white" stroke="transparent" points="-4,4 -4,-416.7 289.15,-416.7 289.15,4 -4,4"/>
<!-- BB0 -->
<g id="node1" class="node">
<title>BB0</title>
<ellipse fill="none" stroke="black" cx="41.72" cy="-385.83" rx="33.47" ry="26.74"/>
<text text-anchor="middle" x="41.72" y="-389.63" font-family="Times New Roman,serif" font-size="14.00">[0..7)</text>
<text text-anchor="middle" x="41.72" y="-374.63" font-family="Times New Roman,serif" font-size="14.00">0.01</text>
</g>
<!-- BB2 -->
<g id="node3" class="node">
<title>BB2</title>
<ellipse fill="none" stroke="black" cx="41.72" cy="-296.09" rx="41.94" ry="26.74"/>
<text text-anchor="middle" x="41.72" y="-299.89" font-family="Times New Roman,serif" font-size="14.00">[2e..32)</text>
<text text-anchor="middle" x="41.72" y="-284.89" font-family="Times New Roman,serif" font-size="14.00">0.08</text>
</g>
<!-- BB0&#45;&gt;BB2 -->
<g id="edge1" class="edge">
<title>BB0&#45;&gt;BB2</title>
<path fill="none" stroke="black" d="M41.72,-358.51C41.72,-350.54 41.72,-341.65 41.72,-333.16"/>
<polygon fill="black" stroke="black" points="45.22,-333.09 41.72,-323.09 38.22,-333.09 45.22,-333.09"/>
</g>
<!-- BB1 -->
<g id="node2" class="node">
<title>BB1</title>
<ellipse fill="none" stroke="black" cx="41.72" cy="-206.35" rx="37.45" ry="26.74"/>
<text text-anchor="middle" x="41.72" y="-210.15" font-family="Times New Roman,serif" font-size="14.00">[7..2e)</text>
<text text-anchor="middle" x="41.72" y="-195.15" font-family="Times New Roman,serif" font-size="14.00">0.91</text>
</g>
<!-- BB1&#45;&gt;BB2 -->
<g id="edge2" class="edge">
<title>BB1&#45;&gt;BB2</title>
<path fill="none" stroke="black" d="M47.92,-233.02C48.44,-241.21 48.59,-250.44 48.37,-259.22"/>
<polygon fill="black" stroke="black" points="44.87,-259.1 47.94,-269.24 51.86,-259.4 44.87,-259.1"/>
</g>
<!-- BB2&#45;&gt;BB1 -->
<g id="edge3" class="edge">
<title>BB2&#45;&gt;BB1</title>
<path fill="none" stroke="black" d="M35.5,-269.24C34.99,-261.03 34.85,-251.8 35.08,-243.02"/>
<polygon fill="black" stroke="black" points="38.57,-243.16 35.51,-233.02 31.58,-242.85 38.57,-243.16"/>
</g>
<!-- BB3 -->
<g id="node4" class="node">
<title>BB3</title>
<ellipse fill="none" stroke="black" cx="139.72" cy="-206.35" rx="42.35" ry="26.74"/>
<text text-anchor="middle" x="139.72" y="-210.15" font-family="Times New Roman,serif" font-size="14.00">[32..34)</text>
<text text-anchor="middle" x="139.72" y="-195.15" font-family="Times New Roman,serif" font-size="14.00">0.00</text>
</g>
<!-- BB2&#45;&gt;BB3 -->
<g id="edge4" class="edge">
<title>BB2&#45;&gt;BB3</title>
<path fill="none" stroke="black" d="M65.44,-273.85C78.35,-262.3 94.47,-247.86 108.4,-235.39"/>
<polygon fill="black" stroke="black" points="110.76,-237.98 115.88,-228.7 106.09,-232.76 110.76,-237.98"/>
</g>
<!-- BB5 -->
<g id="node6" class="node">
<title>BB5</title>
<ellipse fill="none" stroke="black" cx="139.72" cy="-116.61" rx="42.35" ry="26.74"/>
<text text-anchor="middle" x="139.72" y="-120.41" font-family="Times New Roman,serif" font-size="14.00">[52..56)</text>
<text text-anchor="middle" x="139.72" y="-105.41" font-family="Times New Roman,serif" font-size="14.00">0.00</text>
</g>
<!-- BB3&#45;&gt;BB5 -->
<g id="edge5" class="edge">
<title>BB3&#45;&gt;BB5</title>
<path fill="none" stroke="black" d="M139.72,-179.03C139.72,-171.06 139.72,-162.17 139.72,-153.68"/>
<polygon fill="black" stroke="black" points="143.22,-153.61 139.72,-143.61 136.22,-153.61 143.22,-153.61"/>
</g>
<!-- BB4 -->
<g id="node5" class="node">
<title>BB4</title>
<ellipse fill="none" stroke="black" cx="139.72" cy="-26.87" rx="42.35" ry="26.74"/>
<text text-anchor="middle" x="139.72" y="-30.67" font-family="Times New Roman,serif" font-size="14.00">[34..52)</text>
<text text-anchor="middle" x="139.72" y="-15.67" font-family="Times New Roman,serif" font-size="14.00">0.00</text>
</g>
<!-- BB4&#45;&gt;BB5 -->
<g id="edge6" class="edge">
<title>BB4&#45;&gt;BB5</title>
<path fill="none" stroke="black" d="M145.92,-53.54C146.44,-61.73 146.59,-70.96 146.37,-79.74"/>
<polygon fill="black" stroke="black" points="142.87,-79.62 145.94,-89.76 149.86,-79.92 142.87,-79.62"/>
</g>
<!-- BB5&#45;&gt;BB4 -->
<g id="edge7" class="edge">
<title>BB5&#45;&gt;BB4</title>
<path fill="none" stroke="black" d="M133.5,-89.76C132.99,-81.55 132.85,-72.32 133.08,-63.54"/>
<polygon fill="black" stroke="black" points="136.57,-63.68 133.51,-53.54 129.58,-63.37 136.57,-63.68"/>
</g>
<!-- BB6 -->
<g id="node7" class="node">
<title>BB6</title>
<ellipse fill="none" stroke="black" cx="242.72" cy="-26.87" rx="42.35" ry="26.74"/>
<text text-anchor="middle" x="242.72" y="-30.67" font-family="Times New Roman,serif" font-size="14.00">[56..57)</text>
<text text-anchor="middle" x="242.72" y="-15.67" font-family="Times New Roman,serif" font-size="14.00">0.00</text>
</g>
<!-- BB5&#45;&gt;BB6 -->
<g id="edge8" class="edge">
<title>BB5&#45;&gt;BB6</title>
<path fill="none" stroke="black" d="M164.39,-94.59C178.05,-82.96 195.2,-68.35 209.97,-55.77"/>
<polygon fill="black" stroke="black" points="212.55,-58.17 217.89,-49.02 208.01,-52.84 212.55,-58.17"/>
</g>
</g>
</svg>
