<?xml version="1.0" encoding="UTF-8" standalone="no"?>
<!DOCTYPE svg PUBLIC "-//W3C//DTD SVG 1.1//EN"
 "http://www.w3.org/Graphics/SVG/1.1/DTD/svg11.dtd">
<!-- Generated by graphviz version 2.47.0 (20210316.0004)
 -->
<!-- Title: G Pages: 1 -->
<svg width="1110pt" height="1029pt"
 viewBox="0.00 0.00 1110.48 1029.33" xmlns="http://www.w3.org/2000/svg" xmlns:xlink="http://www.w3.org/1999/xlink">
<g id="graph0" class="graph" transform="scale(1 1) rotate(0) translate(4 1025.33)">
<title>G</title>
<polygon fill="white" stroke="transparent" points="-4,4 -4,-1025.33 1106.48,-1025.33 1106.48,4 -4,4"/>
<!-- BB0 -->
<g id="node1" class="node">
<title>BB0</title>
<ellipse fill="none" stroke="black" cx="439.24" cy="-973.25" rx="103.48" ry="48.17"/>
<text text-anchor="middle" x="439.24" y="-992.05" font-family="Times New Roman,serif" font-size="14.00">[0..f)</text>
<text text-anchor="middle" x="439.24" y="-977.05" font-family="Times New Roman,serif" font-size="14.00">Count: 2324633</text>
<text text-anchor="middle" x="439.24" y="-962.05" font-family="Times New Roman,serif" font-size="14.00">Normalized count: 1.00</text>
<text text-anchor="middle" x="439.24" y="-947.05" font-family="Times New Roman,serif" font-size="14.00">Samples weight: 0.11</text>
</g>
<!-- BB1 -->
<g id="node2" class="node">
<title>BB1</title>
<ellipse fill="none" stroke="black" cx="327.24" cy="-841.08" rx="103.48" ry="48.17"/>
<text text-anchor="middle" x="327.24" y="-859.88" font-family="Times New Roman,serif" font-size="14.00">[f..1f)</text>
<text text-anchor="middle" x="327.24" y="-844.88" font-family="Times New Roman,serif" font-size="14.00">Count: 2350426</text>
<text text-anchor="middle" x="327.24" y="-829.88" font-family="Times New Roman,serif" font-size="14.00">Normalized count: 1.01</text>
<text text-anchor="middle" x="327.24" y="-814.88" font-family="Times New Roman,serif" font-size="14.00">Samples weight: 0.12</text>
</g>
<!-- BB0&#45;&gt;BB1 -->
<g id="edge2" class="edge">
<title>BB0&#45;&gt;BB1</title>
<path fill="none" stroke="black" d="M401.32,-928.18C391.83,-917.15 381.57,-905.23 371.79,-893.86"/>
<polygon fill="black" stroke="black" points="374.29,-891.4 365.12,-886.11 368.99,-895.97 374.29,-891.4"/>
</g>
<!-- BB4 -->
<g id="node5" class="node">
<title>BB4</title>
<ellipse fill="none" stroke="black" cx="551.24" cy="-841.08" rx="103.48" ry="48.17"/>
<text text-anchor="middle" x="551.24" y="-859.88" font-family="Times New Roman,serif" font-size="14.00">[2c..3c)</text>
<text text-anchor="middle" x="551.24" y="-844.88" font-family="Times New Roman,serif" font-size="14.00">Count: 0</text>
<text text-anchor="middle" x="551.24" y="-829.88" font-family="Times New Roman,serif" font-size="14.00">Normalized count: 0.00</text>
<text text-anchor="middle" x="551.24" y="-814.88" font-family="Times New Roman,serif" font-size="14.00">Samples weight: 0.00</text>
</g>
<!-- BB0&#45;&gt;BB4 -->
<g id="edge1" class="edge">
<title>BB0&#45;&gt;BB4</title>
<path fill="none" stroke="black" d="M477.16,-928.18C486.64,-917.15 496.91,-905.23 506.68,-893.86"/>
<polygon fill="black" stroke="black" points="509.49,-895.97 513.36,-886.11 504.18,-891.4 509.49,-895.97"/>
</g>
<!-- BB2 -->
<g id="node3" class="node">
<title>BB2</title>
<ellipse fill="none" stroke="black" cx="103.24" cy="-708.92" rx="103.48" ry="48.17"/>
<text text-anchor="middle" x="103.24" y="-727.72" font-family="Times New Roman,serif" font-size="14.00">[1f..21)</text>
<text text-anchor="middle" x="103.24" y="-712.72" font-family="Times New Roman,serif" font-size="14.00">Count: 7</text>
<text text-anchor="middle" x="103.24" y="-697.72" font-family="Times New Roman,serif" font-size="14.00">Normalized count: 0.00</text>
<text text-anchor="middle" x="103.24" y="-682.72" font-family="Times New Roman,serif" font-size="14.00">Samples weight: 0.00</text>
</g>
<!-- BB1&#45;&gt;BB2 -->
<g id="edge4" class="edge">
<title>BB1&#45;&gt;BB2</title>
<path fill="none" stroke="black" d="M263.65,-803.13C236.22,-787.19 203.99,-768.46 175.65,-751.99"/>
<polygon fill="black" stroke="black" points="177.39,-748.96 166.99,-746.96 173.87,-755.01 177.39,-748.96"/>
</g>
<!-- BB3 -->
<g id="node4" class="node">
<title>BB3</title>
<ellipse fill="none" stroke="black" cx="327.24" cy="-708.92" rx="103.48" ry="48.17"/>
<text text-anchor="middle" x="327.24" y="-727.72" font-family="Times New Roman,serif" font-size="14.00">[21..2c)</text>
<text text-anchor="middle" x="327.24" y="-712.72" font-family="Times New Roman,serif" font-size="14.00">Count: 2370902</text>
<text text-anchor="middle" x="327.24" y="-697.72" font-family="Times New Roman,serif" font-size="14.00">Normalized count: 1.02</text>
<text text-anchor="middle" x="327.24" y="-682.72" font-family="Times New Roman,serif" font-size="14.00">Samples weight: 0.12</text>
</g>
<!-- BB1&#45;&gt;BB3 -->
<g id="edge3" class="edge">
<title>BB1&#45;&gt;BB3</title>
<path fill="none" stroke="black" d="M327.24,-792.72C327.24,-784.45 327.24,-775.77 327.24,-767.27"/>
<polygon fill="black" stroke="black" points="330.74,-767.02 327.24,-757.02 323.74,-767.02 330.74,-767.02"/>
</g>
<!-- BB7 -->
<g id="node8" class="node">
<title>BB7</title>
<ellipse fill="none" stroke="black" cx="551.24" cy="-576.75" rx="103.48" ry="48.17"/>
<text text-anchor="middle" x="551.24" y="-595.55" font-family="Times New Roman,serif" font-size="14.00">[45..4d)</text>
<text text-anchor="middle" x="551.24" y="-580.55" font-family="Times New Roman,serif" font-size="14.00">Count: 2382269</text>
<text text-anchor="middle" x="551.24" y="-565.55" font-family="Times New Roman,serif" font-size="14.00">Normalized count: 1.02</text>
<text text-anchor="middle" x="551.24" y="-550.55" font-family="Times New Roman,serif" font-size="14.00">Samples weight: 0.12</text>
</g>
<!-- BB3&#45;&gt;BB7 -->
<g id="edge5" class="edge">
<title>BB3&#45;&gt;BB7</title>
<path fill="none" stroke="black" d="M390.83,-670.96C418.26,-655.02 450.48,-636.3 478.83,-619.83"/>
<polygon fill="black" stroke="black" points="480.6,-622.84 487.49,-614.79 477.08,-616.79 480.6,-622.84"/>
</g>
<!-- BB5 -->
<g id="node6" class="node">
<title>BB5</title>
<ellipse fill="none" stroke="black" cx="551.24" cy="-708.92" rx="103.48" ry="48.17"/>
<text text-anchor="middle" x="551.24" y="-727.72" font-family="Times New Roman,serif" font-size="14.00">[3c..3e)</text>
<text text-anchor="middle" x="551.24" y="-712.72" font-family="Times New Roman,serif" font-size="14.00">Count: 0</text>
<text text-anchor="middle" x="551.24" y="-697.72" font-family="Times New Roman,serif" font-size="14.00">Normalized count: 0.00</text>
<text text-anchor="middle" x="551.24" y="-682.72" font-family="Times New Roman,serif" font-size="14.00">Samples weight: 0.00</text>
</g>
<!-- BB4&#45;&gt;BB5 -->
<g id="edge7" class="edge">
<title>BB4&#45;&gt;BB5</title>
<path fill="none" stroke="black" d="M551.24,-792.72C551.24,-784.45 551.24,-775.77 551.24,-767.27"/>
<polygon fill="black" stroke="black" points="554.74,-767.02 551.24,-757.02 547.74,-767.02 554.74,-767.02"/>
</g>
<!-- BB6 -->
<g id="node7" class="node">
<title>BB6</title>
<ellipse fill="none" stroke="black" cx="775.24" cy="-708.92" rx="103.48" ry="48.17"/>
<text text-anchor="middle" x="775.24" y="-727.72" font-family="Times New Roman,serif" font-size="14.00">[3e..45)</text>
<text text-anchor="middle" x="775.24" y="-712.72" font-family="Times New Roman,serif" font-size="14.00">Count: 0</text>
<text text-anchor="middle" x="775.24" y="-697.72" font-family="Times New Roman,serif" font-size="14.00">Normalized count: 0.00</text>
<text text-anchor="middle" x="775.24" y="-682.72" font-family="Times New Roman,serif" font-size="14.00">Samples weight: 0.00</text>
</g>
<!-- BB4&#45;&gt;BB6 -->
<g id="edge6" class="edge">
<title>BB4&#45;&gt;BB6</title>
<path fill="none" stroke="black" d="M614.83,-803.13C642.26,-787.19 674.48,-768.46 702.83,-751.99"/>
<polygon fill="black" stroke="black" points="704.6,-755.01 711.49,-746.96 701.08,-748.96 704.6,-755.01"/>
</g>
<!-- BB6&#45;&gt;BB7 -->
<g id="edge8" class="edge">
<title>BB6&#45;&gt;BB7</title>
<path fill="none" stroke="black" d="M711.65,-670.96C684.22,-655.02 651.99,-636.3 623.65,-619.83"/>
<polygon fill="black" stroke="black" points="625.39,-616.79 614.99,-614.79 621.87,-622.84 625.39,-616.79"/>
</g>
<!-- BB8 -->
<g id="node9" class="node">
<title>BB8</title>
<ellipse fill="none" stroke="black" cx="439.24" cy="-444.58" rx="103.48" ry="48.17"/>
<text text-anchor="middle" x="439.24" y="-463.38" font-family="Times New Roman,serif" font-size="14.00">[4d..4f)</text>
<text text-anchor="middle" x="439.24" y="-448.38" font-family="Times New Roman,serif" font-size="14.00">Count: 2386030</text>
<text text-anchor="middle" x="439.24" y="-433.38" font-family="Times New Roman,serif" font-size="14.00">Normalized count: 1.03</text>
<text text-anchor="middle" x="439.24" y="-418.38" font-family="Times New Roman,serif" font-size="14.00">Samples weight: 0.12</text>
</g>
<!-- BB7&#45;&gt;BB8 -->
<g id="edge10" class="edge">
<title>BB7&#45;&gt;BB8</title>
<path fill="none" stroke="black" d="M513.32,-531.68C503.83,-520.65 493.57,-508.73 483.79,-497.36"/>
<polygon fill="black" stroke="black" points="486.29,-494.9 477.12,-489.61 480.99,-499.47 486.29,-494.9"/>
</g>
<!-- BB13 -->
<g id="node14" class="node">
<title>BB13</title>
<ellipse fill="none" stroke="black" cx="775.24" cy="-444.58" rx="103.48" ry="48.17"/>
<text text-anchor="middle" x="775.24" y="-463.38" font-family="Times New Roman,serif" font-size="14.00">[73..7c)</text>
<text text-anchor="middle" x="775.24" y="-448.38" font-family="Times New Roman,serif" font-size="14.00">Count: 0</text>
<text text-anchor="middle" x="775.24" y="-433.38" font-family="Times New Roman,serif" font-size="14.00">Normalized count: 0.00</text>
<text text-anchor="middle" x="775.24" y="-418.38" font-family="Times New Roman,serif" font-size="14.00">Samples weight: 0.00</text>
</g>
<!-- BB7&#45;&gt;BB13 -->
<g id="edge9" class="edge">
<title>BB7&#45;&gt;BB13</title>
<path fill="none" stroke="black" d="M614.83,-538.8C642.26,-522.86 674.48,-504.13 702.83,-487.66"/>
<polygon fill="black" stroke="black" points="704.6,-490.68 711.49,-482.63 701.08,-484.63 704.6,-490.68"/>
</g>
<!-- BB11 -->
<g id="node12" class="node">
<title>BB11</title>
<ellipse fill="none" stroke="black" cx="439.24" cy="-312.42" rx="103.48" ry="48.17"/>
<text text-anchor="middle" x="439.24" y="-331.22" font-family="Times New Roman,serif" font-size="14.00">[6e..71)</text>
<text text-anchor="middle" x="439.24" y="-316.22" font-family="Times New Roman,serif" font-size="14.00">Count: 3028996</text>
<text text-anchor="middle" x="439.24" y="-301.22" font-family="Times New Roman,serif" font-size="14.00">Normalized count: 1.30</text>
<text text-anchor="middle" x="439.24" y="-286.22" font-family="Times New Roman,serif" font-size="14.00">Samples weight: 0.15</text>
</g>
<!-- BB8&#45;&gt;BB11 -->
<g id="edge11" class="edge">
<title>BB8&#45;&gt;BB11</title>
<path fill="none" stroke="black" d="M439.24,-396.22C439.24,-387.95 439.24,-379.27 439.24,-370.77"/>
<polygon fill="black" stroke="black" points="442.74,-370.52 439.24,-360.52 435.74,-370.52 442.74,-370.52"/>
</g>
<!-- BB9 -->
<g id="node10" class="node">
<title>BB9</title>
<ellipse fill="none" stroke="black" cx="327.24" cy="-180.25" rx="103.48" ry="48.17"/>
<text text-anchor="middle" x="327.24" y="-199.05" font-family="Times New Roman,serif" font-size="14.00">[4f..6c)</text>
<text text-anchor="middle" x="327.24" y="-184.05" font-family="Times New Roman,serif" font-size="14.00">Count: 3000825</text>
<text text-anchor="middle" x="327.24" y="-169.05" font-family="Times New Roman,serif" font-size="14.00">Normalized count: 1.29</text>
<text text-anchor="middle" x="327.24" y="-154.05" font-family="Times New Roman,serif" font-size="14.00">Samples weight: 0.15</text>
</g>
<!-- BB10 -->
<g id="node11" class="node">
<title>BB10</title>
<ellipse fill="none" stroke="black" cx="327.24" cy="-48.08" rx="103.48" ry="48.17"/>
<text text-anchor="middle" x="327.24" y="-66.88" font-family="Times New Roman,serif" font-size="14.00">[6c..6e)</text>
<text text-anchor="middle" x="327.24" y="-51.88" font-family="Times New Roman,serif" font-size="14.00">Count: 2293885</text>
<text text-anchor="middle" x="327.24" y="-36.88" font-family="Times New Roman,serif" font-size="14.00">Normalized count: 0.99</text>
<text text-anchor="middle" x="327.24" y="-21.88" font-family="Times New Roman,serif" font-size="14.00">Samples weight: 0.11</text>
</g>
<!-- BB9&#45;&gt;BB10 -->
<g id="edge13" class="edge">
<title>BB9&#45;&gt;BB10</title>
<path fill="none" stroke="black" d="M327.24,-131.89C327.24,-123.62 327.24,-114.94 327.24,-106.43"/>
<polygon fill="black" stroke="black" points="330.74,-106.19 327.24,-96.19 323.74,-106.19 330.74,-106.19"/>
</g>
<!-- BB9&#45;&gt;BB11 -->
<g id="edge12" class="edge">
<title>BB9&#45;&gt;BB11</title>
<path fill="none" stroke="black" d="M370.74,-224.37C380.59,-235.39 390.97,-247.37 400.61,-258.8"/>
<polygon fill="black" stroke="black" points="398.04,-261.19 407.14,-266.62 403.41,-256.7 398.04,-261.19"/>
</g>
<!-- BB11&#45;&gt;BB9 -->
<g id="edge14" class="edge">
<title>BB11&#45;&gt;BB9</title>
<path fill="none" stroke="black" d="M395.86,-268.43C385.96,-257.36 375.52,-245.32 365.84,-233.83"/>
<polygon fill="black" stroke="black" points="368.37,-231.4 359.27,-225.97 363,-235.89 368.37,-231.4"/>
</g>
<!-- BB12 -->
<g id="node13" class="node">
<title>BB12</title>
<ellipse fill="none" stroke="black" cx="551.24" cy="-180.25" rx="103.48" ry="48.17"/>
<text text-anchor="middle" x="551.24" y="-199.05" font-family="Times New Roman,serif" font-size="14.00">[71..73)</text>
<text text-anchor="middle" x="551.24" y="-184.05" font-family="Times New Roman,serif" font-size="14.00">Count: 36132</text>
<text text-anchor="middle" x="551.24" y="-169.05" font-family="Times New Roman,serif" font-size="14.00">Normalized count: 0.02</text>
<text text-anchor="middle" x="551.24" y="-154.05" font-family="Times New Roman,serif" font-size="14.00">Samples weight: 0.00</text>
</g>
<!-- BB11&#45;&gt;BB12 -->
<g id="edge15" class="edge">
<title>BB11&#45;&gt;BB12</title>
<path fill="none" stroke="black" d="M477.16,-267.35C486.64,-256.32 496.91,-244.39 506.68,-233.03"/>
<polygon fill="black" stroke="black" points="509.49,-235.14 513.36,-225.27 504.18,-230.57 509.49,-235.14"/>
</g>
<!-- BB17 -->
<g id="node18" class="node">
<title>BB17</title>
<ellipse fill="none" stroke="black" cx="775.24" cy="-180.25" rx="103.48" ry="48.17"/>
<text text-anchor="middle" x="775.24" y="-199.05" font-family="Times New Roman,serif" font-size="14.00">[a4..ac)</text>
<text text-anchor="middle" x="775.24" y="-184.05" font-family="Times New Roman,serif" font-size="14.00">Count: 36131</text>
<text text-anchor="middle" x="775.24" y="-169.05" font-family="Times New Roman,serif" font-size="14.00">Normalized count: 0.02</text>
<text text-anchor="middle" x="775.24" y="-154.05" font-family="Times New Roman,serif" font-size="14.00">Samples weight: 0.00</text>
</g>
<!-- BB12&#45;&gt;BB17 -->
<g id="edge16" class="edge">
<title>BB12&#45;&gt;BB17</title>
<path fill="none" stroke="black" d="M654.49,-180.25C656.94,-180.25 659.4,-180.25 661.85,-180.25"/>
<polygon fill="black" stroke="black" points="661.94,-183.75 671.94,-180.25 661.94,-176.75 661.94,-183.75"/>
</g>
<!-- BB16 -->
<g id="node17" class="node">
<title>BB16</title>
<ellipse fill="none" stroke="black" cx="887.24" cy="-312.42" rx="103.48" ry="48.17"/>
<text text-anchor="middle" x="887.24" y="-331.22" font-family="Times New Roman,serif" font-size="14.00">[a1..a4)</text>
<text text-anchor="middle" x="887.24" y="-316.22" font-family="Times New Roman,serif" font-size="14.00">Count: 0</text>
<text text-anchor="middle" x="887.24" y="-301.22" font-family="Times New Roman,serif" font-size="14.00">Normalized count: 0.00</text>
<text text-anchor="middle" x="887.24" y="-286.22" font-family="Times New Roman,serif" font-size="14.00">Samples weight: 0.00</text>
</g>
<!-- BB13&#45;&gt;BB16 -->
<g id="edge17" class="edge">
<title>BB13&#45;&gt;BB16</title>
<path fill="none" stroke="black" d="M813.16,-399.51C822.64,-388.49 832.91,-376.56 842.68,-365.2"/>
<polygon fill="black" stroke="black" points="845.49,-367.3 849.36,-357.44 840.18,-362.74 845.49,-367.3"/>
</g>
<!-- BB14 -->
<g id="node15" class="node">
<title>BB14</title>
<ellipse fill="none" stroke="black" cx="999.24" cy="-180.25" rx="103.48" ry="48.17"/>
<text text-anchor="middle" x="999.24" y="-199.05" font-family="Times New Roman,serif" font-size="14.00">[7c..9f)</text>
<text text-anchor="middle" x="999.24" y="-184.05" font-family="Times New Roman,serif" font-size="14.00">Count: 0</text>
<text text-anchor="middle" x="999.24" y="-169.05" font-family="Times New Roman,serif" font-size="14.00">Normalized count: 0.00</text>
<text text-anchor="middle" x="999.24" y="-154.05" font-family="Times New Roman,serif" font-size="14.00">Samples weight: 0.00</text>
</g>
<!-- BB15 -->
<g id="node16" class="node">
<title>BB15</title>
<ellipse fill="none" stroke="black" cx="999.24" cy="-48.08" rx="103.48" ry="48.17"/>
<text text-anchor="middle" x="999.24" y="-66.88" font-family="Times New Roman,serif" font-size="14.00">[9f..a1)</text>
<text text-anchor="middle" x="999.24" y="-51.88" font-family="Times New Roman,serif" font-size="14.00">Count: 0</text>
<text text-anchor="middle" x="999.24" y="-36.88" font-family="Times New Roman,serif" font-size="14.00">Normalized count: 0.00</text>
<text text-anchor="middle" x="999.24" y="-21.88" font-family="Times New Roman,serif" font-size="14.00">Samples weight: 0.00</text>
</g>
<!-- BB14&#45;&gt;BB15 -->
<g id="edge19" class="edge">
<title>BB14&#45;&gt;BB15</title>
<path fill="none" stroke="black" d="M999.24,-131.89C999.24,-123.62 999.24,-114.94 999.24,-106.43"/>
<polygon fill="black" stroke="black" points="1002.74,-106.19 999.24,-96.19 995.74,-106.19 1002.74,-106.19"/>
</g>
<!-- BB14&#45;&gt;BB16 -->
<g id="edge18" class="edge">
<title>BB14&#45;&gt;BB16</title>
<path fill="none" stroke="black" d="M967.2,-225.97C957.94,-237.14 947.62,-249.2 937.54,-260.63"/>
<polygon fill="black" stroke="black" points="934.63,-258.63 930.61,-268.43 939.87,-263.28 934.63,-258.63"/>
</g>
<!-- BB16&#45;&gt;BB14 -->
<g id="edge20" class="edge">
<title>BB16&#45;&gt;BB14</title>
<path fill="none" stroke="black" d="M919.33,-266.62C928.56,-255.51 938.82,-243.52 948.85,-232.13"/>
<polygon fill="black" stroke="black" points="951.72,-234.17 955.74,-224.37 946.48,-229.53 951.72,-234.17"/>
</g>
<!-- BB16&#45;&gt;BB17 -->
<g id="edge21" class="edge">
<title>BB16&#45;&gt;BB17</title>
<path fill="none" stroke="black" d="M849.32,-267.35C839.83,-256.32 829.57,-244.39 819.79,-233.03"/>
<polygon fill="black" stroke="black" points="822.29,-230.57 813.12,-225.27 816.99,-235.14 822.29,-230.57"/>
</g>
<!-- BB18 -->
<g id="node19" class="node">
<title>BB18</title>
<ellipse fill="none" stroke="black" cx="551.24" cy="-48.08" rx="103.48" ry="48.17"/>
<text text-anchor="middle" x="551.24" y="-66.88" font-family="Times New Roman,serif" font-size="14.00">[ac..b5)</text>
<text text-anchor="middle" x="551.24" y="-51.88" font-family="Times New Roman,serif" font-size="14.00">Count: 36134</text>
<text text-anchor="middle" x="551.24" y="-36.88" font-family="Times New Roman,serif" font-size="14.00">Normalized count: 0.02</text>
<text text-anchor="middle" x="551.24" y="-21.88" font-family="Times New Roman,serif" font-size="14.00">Samples weight: 0.00</text>
</g>
<!-- BB17&#45;&gt;BB18 -->
<g id="edge23" class="edge">
<title>BB17&#45;&gt;BB18</title>
<path fill="none" stroke="black" d="M711.65,-142.3C684.22,-126.36 651.99,-107.63 623.65,-91.16"/>
<polygon fill="black" stroke="black" points="625.39,-88.13 614.99,-86.13 621.87,-94.18 625.39,-88.13"/>
</g>
<!-- BB19 -->
<g id="node20" class="node">
<title>BB19</title>
<ellipse fill="none" stroke="black" cx="775.24" cy="-48.08" rx="103.48" ry="48.17"/>
<text text-anchor="middle" x="775.24" y="-66.88" font-family="Times New Roman,serif" font-size="14.00">[b5..be)</text>
<text text-anchor="middle" x="775.24" y="-51.88" font-family="Times New Roman,serif" font-size="14.00">Count: 36136</text>
<text text-anchor="middle" x="775.24" y="-36.88" font-family="Times New Roman,serif" font-size="14.00">Normalized count: 0.02</text>
<text text-anchor="middle" x="775.24" y="-21.88" font-family="Times New Roman,serif" font-size="14.00">Samples weight: 0.00</text>
</g>
<!-- BB17&#45;&gt;BB19 -->
<g id="edge22" class="edge">
<title>BB17&#45;&gt;BB19</title>
<path fill="none" stroke="black" d="M775.24,-131.89C775.24,-123.62 775.24,-114.94 775.24,-106.43"/>
<polygon fill="black" stroke="black" points="778.74,-106.19 775.24,-96.19 771.74,-106.19 778.74,-106.19"/>
</g>
<!-- BB18&#45;&gt;BB19 -->
<g id="edge24" class="edge">
<title>BB18&#45;&gt;BB19</title>
<path fill="none" stroke="black" d="M654.49,-48.08C656.94,-48.08 659.4,-48.08 661.85,-48.08"/>
<polygon fill="black" stroke="black" points="661.94,-51.58 671.94,-48.08 661.94,-44.58 661.94,-51.58"/>
</g>
</g>
</svg>
