<?xml version="1.0" encoding="UTF-8" standalone="no"?>
<!DOCTYPE svg PUBLIC "-//W3C//DTD SVG 1.1//EN"
 "http://www.w3.org/Graphics/SVG/1.1/DTD/svg11.dtd">
<!-- Generated by graphviz version 2.47.0 (20210316.0004)
 -->
<!-- Title: G Pages: 1 -->
<svg width="1297pt" height="1558pt"
 viewBox="0.00 0.00 1296.76 1558.00" xmlns="http://www.w3.org/2000/svg" xmlns:xlink="http://www.w3.org/1999/xlink">
<g id="graph0" class="graph" transform="scale(1 1) rotate(0) translate(4 1554)">
<title>G</title>
<polygon fill="white" stroke="transparent" points="-4,4 -4,-1554 1292.76,-1554 1292.76,4 -4,4"/>
<!-- BB0 -->
<g id="node1" class="node">
<title>BB0</title>
<ellipse fill="none" stroke="black" cx="605.24" cy="-1501.92" rx="103.48" ry="48.17"/>
<text text-anchor="middle" x="605.24" y="-1520.72" font-family="Times New Roman,serif" font-size="14.00">[0..1e)</text>
<text text-anchor="middle" x="605.24" y="-1505.72" font-family="Times New Roman,serif" font-size="14.00">Count: 1</text>
<text text-anchor="middle" x="605.24" y="-1490.72" font-family="Times New Roman,serif" font-size="14.00">Normalized count: 1.00</text>
<text text-anchor="middle" x="605.24" y="-1475.72" font-family="Times New Roman,serif" font-size="14.00">Samples weight: 0.01</text>
</g>
<!-- BB23 -->
<g id="node24" class="node">
<title>BB23</title>
<ellipse fill="none" stroke="black" cx="605.24" cy="-1369.75" rx="108.38" ry="48.17"/>
<text text-anchor="middle" x="605.24" y="-1388.55" font-family="Times New Roman,serif" font-size="14.00">[171..17d)</text>
<text text-anchor="middle" x="605.24" y="-1373.55" font-family="Times New Roman,serif" font-size="14.00">Count: 17</text>
<text text-anchor="middle" x="605.24" y="-1358.55" font-family="Times New Roman,serif" font-size="14.00">Normalized count: 17.00</text>
<text text-anchor="middle" x="605.24" y="-1343.55" font-family="Times New Roman,serif" font-size="14.00">Samples weight: 0.11</text>
</g>
<!-- BB0&#45;&gt;BB23 -->
<g id="edge1" class="edge">
<title>BB0&#45;&gt;BB23</title>
<path fill="none" stroke="black" d="M605.24,-1453.55C605.24,-1445.29 605.24,-1436.6 605.24,-1428.1"/>
<polygon fill="black" stroke="black" points="608.74,-1427.86 605.24,-1417.86 601.74,-1427.86 608.74,-1427.86"/>
</g>
<!-- BB1 -->
<g id="node2" class="node">
<title>BB1</title>
<ellipse fill="none" stroke="black" cx="469.24" cy="-1237.58" rx="108.38" ry="48.17"/>
<text text-anchor="middle" x="469.24" y="-1256.38" font-family="Times New Roman,serif" font-size="14.00">[1e..2c)</text>
<text text-anchor="middle" x="469.24" y="-1241.38" font-family="Times New Roman,serif" font-size="14.00">Count: 20</text>
<text text-anchor="middle" x="469.24" y="-1226.38" font-family="Times New Roman,serif" font-size="14.00">Normalized count: 20.00</text>
<text text-anchor="middle" x="469.24" y="-1211.38" font-family="Times New Roman,serif" font-size="14.00">Samples weight: 0.13</text>
</g>
<!-- BB2 -->
<g id="node3" class="node">
<title>BB2</title>
<ellipse fill="none" stroke="black" cx="240.24" cy="-1105.42" rx="103.48" ry="48.17"/>
<text text-anchor="middle" x="240.24" y="-1124.22" font-family="Times New Roman,serif" font-size="14.00">[2c..38)</text>
<text text-anchor="middle" x="240.24" y="-1109.22" font-family="Times New Roman,serif" font-size="14.00">Count: 2</text>
<text text-anchor="middle" x="240.24" y="-1094.22" font-family="Times New Roman,serif" font-size="14.00">Normalized count: 2.00</text>
<text text-anchor="middle" x="240.24" y="-1079.22" font-family="Times New Roman,serif" font-size="14.00">Samples weight: 0.01</text>
</g>
<!-- BB1&#45;&gt;BB2 -->
<g id="edge3" class="edge">
<title>BB1&#45;&gt;BB2</title>
<path fill="none" stroke="black" d="M403.62,-1199.28C375.47,-1183.28 342.47,-1164.53 313.53,-1148.07"/>
<polygon fill="black" stroke="black" points="315.11,-1144.95 304.68,-1143.05 311.65,-1151.03 315.11,-1144.95"/>
</g>
<!-- BB6 -->
<g id="node7" class="node">
<title>BB6</title>
<ellipse fill="none" stroke="black" cx="469.24" cy="-1105.42" rx="108.38" ry="48.17"/>
<text text-anchor="middle" x="469.24" y="-1124.22" font-family="Times New Roman,serif" font-size="14.00">[54..58)</text>
<text text-anchor="middle" x="469.24" y="-1109.22" font-family="Times New Roman,serif" font-size="14.00">Count: 13</text>
<text text-anchor="middle" x="469.24" y="-1094.22" font-family="Times New Roman,serif" font-size="14.00">Normalized count: 13.00</text>
<text text-anchor="middle" x="469.24" y="-1079.22" font-family="Times New Roman,serif" font-size="14.00">Samples weight: 0.09</text>
</g>
<!-- BB1&#45;&gt;BB6 -->
<g id="edge2" class="edge">
<title>BB1&#45;&gt;BB6</title>
<path fill="none" stroke="black" d="M469.24,-1189.22C469.24,-1180.95 469.24,-1172.27 469.24,-1163.77"/>
<polygon fill="black" stroke="black" points="472.74,-1163.52 469.24,-1153.52 465.74,-1163.52 472.74,-1163.52"/>
</g>
<!-- BB2&#45;&gt;BB23 -->
<g id="edge4" class="edge">
<title>BB2&#45;&gt;BB23</title>
<path fill="none" stroke="black" d="M258.4,-1152.9C276.47,-1193.39 307.91,-1250.92 352.24,-1285.67 393.17,-1317.75 446.99,-1337.68 494.46,-1349.94"/>
<polygon fill="black" stroke="black" points="493.62,-1353.34 504.17,-1352.37 495.32,-1346.55 493.62,-1353.34"/>
</g>
<!-- BB3 -->
<g id="node4" class="node">
<title>BB3</title>
<ellipse fill="none" stroke="black" cx="322.24" cy="-973.25" rx="108.38" ry="48.17"/>
<text text-anchor="middle" x="322.24" y="-992.05" font-family="Times New Roman,serif" font-size="14.00">[38..47)</text>
<text text-anchor="middle" x="322.24" y="-977.05" font-family="Times New Roman,serif" font-size="14.00">Count: 18</text>
<text text-anchor="middle" x="322.24" y="-962.05" font-family="Times New Roman,serif" font-size="14.00">Normalized count: 18.00</text>
<text text-anchor="middle" x="322.24" y="-947.05" font-family="Times New Roman,serif" font-size="14.00">Samples weight: 0.12</text>
</g>
<!-- BB4 -->
<g id="node5" class="node">
<title>BB4</title>
<ellipse fill="none" stroke="black" cx="327.24" cy="-841.08" rx="103.48" ry="48.17"/>
<text text-anchor="middle" x="327.24" y="-859.88" font-family="Times New Roman,serif" font-size="14.00">[47..4c)</text>
<text text-anchor="middle" x="327.24" y="-844.88" font-family="Times New Roman,serif" font-size="14.00">Count: 5</text>
<text text-anchor="middle" x="327.24" y="-829.88" font-family="Times New Roman,serif" font-size="14.00">Normalized count: 5.00</text>
<text text-anchor="middle" x="327.24" y="-814.88" font-family="Times New Roman,serif" font-size="14.00">Samples weight: 0.03</text>
</g>
<!-- BB3&#45;&gt;BB4 -->
<g id="edge6" class="edge">
<title>BB3&#45;&gt;BB4</title>
<path fill="none" stroke="black" d="M324.06,-924.89C324.37,-916.62 324.71,-907.94 325.03,-899.43"/>
<polygon fill="black" stroke="black" points="328.54,-899.32 325.43,-889.19 321.55,-899.05 328.54,-899.32"/>
</g>
<!-- BB5 -->
<g id="node6" class="node">
<title>BB5</title>
<ellipse fill="none" stroke="black" cx="103.24" cy="-841.08" rx="103.48" ry="48.17"/>
<text text-anchor="middle" x="103.24" y="-859.88" font-family="Times New Roman,serif" font-size="14.00">[4c..54)</text>
<text text-anchor="middle" x="103.24" y="-844.88" font-family="Times New Roman,serif" font-size="14.00">Count: 7</text>
<text text-anchor="middle" x="103.24" y="-829.88" font-family="Times New Roman,serif" font-size="14.00">Normalized count: 7.00</text>
<text text-anchor="middle" x="103.24" y="-814.88" font-family="Times New Roman,serif" font-size="14.00">Samples weight: 0.05</text>
</g>
<!-- BB3&#45;&gt;BB5 -->
<g id="edge5" class="edge">
<title>BB3&#45;&gt;BB5</title>
<path fill="none" stroke="black" d="M258.31,-934.25C232.1,-918.68 201.66,-900.58 174.73,-884.57"/>
<polygon fill="black" stroke="black" points="176.5,-881.56 166.12,-879.46 172.92,-887.57 176.5,-881.56"/>
</g>
<!-- BB7 -->
<g id="node8" class="node">
<title>BB7</title>
<ellipse fill="none" stroke="black" cx="556.24" cy="-973.25" rx="108.38" ry="48.17"/>
<text text-anchor="middle" x="556.24" y="-992.05" font-family="Times New Roman,serif" font-size="14.00">[58..66)</text>
<text text-anchor="middle" x="556.24" y="-977.05" font-family="Times New Roman,serif" font-size="14.00">Count: 10</text>
<text text-anchor="middle" x="556.24" y="-962.05" font-family="Times New Roman,serif" font-size="14.00">Normalized count: 10.00</text>
<text text-anchor="middle" x="556.24" y="-947.05" font-family="Times New Roman,serif" font-size="14.00">Samples weight: 0.07</text>
</g>
<!-- BB4&#45;&gt;BB7 -->
<g id="edge7" class="edge">
<title>BB4&#45;&gt;BB7</title>
<path fill="none" stroke="black" d="M391.68,-878.71C419.69,-894.64 452.68,-913.38 481.73,-929.9"/>
<polygon fill="black" stroke="black" points="480.19,-933.05 490.62,-934.95 483.65,-926.96 480.19,-933.05"/>
</g>
<!-- BB5&#45;&gt;BB6 -->
<g id="edge8" class="edge">
<title>BB5&#45;&gt;BB6</title>
<path fill="none" stroke="black" d="M117.96,-888.95C133.26,-929.99 161.24,-988.1 205.24,-1021.33 258.91,-1061.87 288.21,-1036.72 352.24,-1057.33 362.11,-1060.51 372.33,-1064.12 382.44,-1067.9"/>
<polygon fill="black" stroke="black" points="381.49,-1071.28 392.08,-1071.57 383.98,-1064.74 381.49,-1071.28"/>
</g>
<!-- BB6&#45;&gt;BB3 -->
<g id="edge9" class="edge">
<title>BB6&#45;&gt;BB3</title>
<path fill="none" stroke="black" d="M421.51,-1062.15C407.58,-1049.82 392.23,-1036.22 377.85,-1023.49"/>
<polygon fill="black" stroke="black" points="379.78,-1020.53 369.98,-1016.52 375.14,-1025.77 379.78,-1020.53"/>
</g>
<!-- BB6&#45;&gt;BB7 -->
<g id="edge10" class="edge">
<title>BB6&#45;&gt;BB7</title>
<path fill="none" stroke="black" d="M499.67,-1058.89C506.33,-1048.92 513.44,-1038.28 520.29,-1028.03"/>
<polygon fill="black" stroke="black" points="523.33,-1029.79 525.97,-1019.53 517.51,-1025.9 523.33,-1029.79"/>
</g>
<!-- BB8 -->
<g id="node9" class="node">
<title>BB8</title>
<ellipse fill="none" stroke="black" cx="556.24" cy="-841.08" rx="108.38" ry="48.17"/>
<text text-anchor="middle" x="556.24" y="-859.88" font-family="Times New Roman,serif" font-size="14.00">[66..8f)</text>
<text text-anchor="middle" x="556.24" y="-844.88" font-family="Times New Roman,serif" font-size="14.00">Count: 17</text>
<text text-anchor="middle" x="556.24" y="-829.88" font-family="Times New Roman,serif" font-size="14.00">Normalized count: 17.00</text>
<text text-anchor="middle" x="556.24" y="-814.88" font-family="Times New Roman,serif" font-size="14.00">Samples weight: 0.11</text>
</g>
<!-- BB7&#45;&gt;BB8 -->
<g id="edge12" class="edge">
<title>BB7&#45;&gt;BB8</title>
<path fill="none" stroke="black" d="M556.24,-924.89C556.24,-916.62 556.24,-907.94 556.24,-899.43"/>
<polygon fill="black" stroke="black" points="559.74,-899.19 556.24,-889.19 552.74,-899.19 559.74,-899.19"/>
</g>
<!-- BB7&#45;&gt;BB23 -->
<g id="edge11" class="edge">
<title>BB7&#45;&gt;BB23</title>
<path fill="none" stroke="black" d="M575.6,-1020.59C579.8,-1032.38 583.72,-1045.17 586.24,-1057.33 604.27,-1144.64 606.97,-1248.41 606.6,-1311.38"/>
<polygon fill="black" stroke="black" points="603.1,-1311.48 606.51,-1321.51 610.1,-1311.54 603.1,-1311.48"/>
</g>
<!-- BB22 -->
<g id="node23" class="node">
<title>BB22</title>
<ellipse fill="none" stroke="black" cx="624.24" cy="-708.92" rx="108.38" ry="48.17"/>
<text text-anchor="middle" x="624.24" y="-727.72" font-family="Times New Roman,serif" font-size="14.00">[16a..171)</text>
<text text-anchor="middle" x="624.24" y="-712.72" font-family="Times New Roman,serif" font-size="14.00">Count: 10</text>
<text text-anchor="middle" x="624.24" y="-697.72" font-family="Times New Roman,serif" font-size="14.00">Normalized count: 10.00</text>
<text text-anchor="middle" x="624.24" y="-682.72" font-family="Times New Roman,serif" font-size="14.00">Samples weight: 0.07</text>
</g>
<!-- BB8&#45;&gt;BB22 -->
<g id="edge13" class="edge">
<title>BB8&#45;&gt;BB22</title>
<path fill="none" stroke="black" d="M580.21,-794.19C585.19,-784.66 590.48,-774.53 595.61,-764.72"/>
<polygon fill="black" stroke="black" points="598.72,-766.32 600.25,-755.83 592.52,-763.07 598.72,-766.32"/>
</g>
<!-- BB9 -->
<g id="node10" class="node">
<title>BB9</title>
<ellipse fill="none" stroke="black" cx="362.24" cy="-576.75" rx="103.48" ry="48.17"/>
<text text-anchor="middle" x="362.24" y="-595.55" font-family="Times New Roman,serif" font-size="14.00">[8f..95)</text>
<text text-anchor="middle" x="362.24" y="-580.55" font-family="Times New Roman,serif" font-size="14.00">Count: 4</text>
<text text-anchor="middle" x="362.24" y="-565.55" font-family="Times New Roman,serif" font-size="14.00">Normalized count: 4.00</text>
<text text-anchor="middle" x="362.24" y="-550.55" font-family="Times New Roman,serif" font-size="14.00">Samples weight: 0.03</text>
</g>
<!-- BB10 -->
<g id="node11" class="node">
<title>BB10</title>
<ellipse fill="none" stroke="black" cx="138.24" cy="-444.58" rx="103.48" ry="48.17"/>
<text text-anchor="middle" x="138.24" y="-463.38" font-family="Times New Roman,serif" font-size="14.00">[95..98)</text>
<text text-anchor="middle" x="138.24" y="-448.38" font-family="Times New Roman,serif" font-size="14.00">Count: 0</text>
<text text-anchor="middle" x="138.24" y="-433.38" font-family="Times New Roman,serif" font-size="14.00">Normalized count: 0.00</text>
<text text-anchor="middle" x="138.24" y="-418.38" font-family="Times New Roman,serif" font-size="14.00">Samples weight: 0.00</text>
</g>
<!-- BB9&#45;&gt;BB10 -->
<g id="edge15" class="edge">
<title>BB9&#45;&gt;BB10</title>
<path fill="none" stroke="black" d="M298.65,-538.8C271.22,-522.86 238.99,-504.13 210.65,-487.66"/>
<polygon fill="black" stroke="black" points="212.39,-484.63 201.99,-482.63 208.87,-490.68 212.39,-484.63"/>
</g>
<!-- BB11 -->
<g id="node12" class="node">
<title>BB11</title>
<ellipse fill="none" stroke="black" cx="362.24" cy="-444.58" rx="103.48" ry="48.17"/>
<text text-anchor="middle" x="362.24" y="-463.38" font-family="Times New Roman,serif" font-size="14.00">[98..b9)</text>
<text text-anchor="middle" x="362.24" y="-448.38" font-family="Times New Roman,serif" font-size="14.00">Count: 6</text>
<text text-anchor="middle" x="362.24" y="-433.38" font-family="Times New Roman,serif" font-size="14.00">Normalized count: 6.00</text>
<text text-anchor="middle" x="362.24" y="-418.38" font-family="Times New Roman,serif" font-size="14.00">Samples weight: 0.04</text>
</g>
<!-- BB9&#45;&gt;BB11 -->
<g id="edge14" class="edge">
<title>BB9&#45;&gt;BB11</title>
<path fill="none" stroke="black" d="M362.24,-528.39C362.24,-520.12 362.24,-511.44 362.24,-502.93"/>
<polygon fill="black" stroke="black" points="365.74,-502.69 362.24,-492.69 358.74,-502.69 365.74,-502.69"/>
</g>
<!-- BB10&#45;&gt;BB11 -->
<g id="edge16" class="edge">
<title>BB10&#45;&gt;BB11</title>
<path fill="none" stroke="black" d="M241.49,-444.58C243.94,-444.58 246.4,-444.58 248.85,-444.58"/>
<polygon fill="black" stroke="black" points="248.94,-448.08 258.94,-444.58 248.94,-441.08 248.94,-448.08"/>
</g>
<!-- BB12 -->
<g id="node13" class="node">
<title>BB12</title>
<ellipse fill="none" stroke="black" cx="296.24" cy="-312.42" rx="103.48" ry="48.17"/>
<text text-anchor="middle" x="296.24" y="-331.22" font-family="Times New Roman,serif" font-size="14.00">[b9..be)</text>
<text text-anchor="middle" x="296.24" y="-316.22" font-family="Times New Roman,serif" font-size="14.00">Count: 0</text>
<text text-anchor="middle" x="296.24" y="-301.22" font-family="Times New Roman,serif" font-size="14.00">Normalized count: 0.00</text>
<text text-anchor="middle" x="296.24" y="-286.22" font-family="Times New Roman,serif" font-size="14.00">Samples weight: 0.00</text>
</g>
<!-- BB11&#45;&gt;BB12 -->
<g id="edge18" class="edge">
<title>BB11&#45;&gt;BB12</title>
<path fill="none" stroke="black" d="M338.97,-397.69C334.19,-388.26 329.11,-378.24 324.18,-368.53"/>
<polygon fill="black" stroke="black" points="327.16,-366.67 319.52,-359.33 320.92,-369.83 327.16,-366.67"/>
</g>
<!-- BB14 -->
<g id="node15" class="node">
<title>BB14</title>
<ellipse fill="none" stroke="black" cx="558.24" cy="-312.42" rx="103.48" ry="48.17"/>
<text text-anchor="middle" x="558.24" y="-331.22" font-family="Times New Roman,serif" font-size="14.00">[c6..f2)</text>
<text text-anchor="middle" x="558.24" y="-316.22" font-family="Times New Roman,serif" font-size="14.00">Count: 4</text>
<text text-anchor="middle" x="558.24" y="-301.22" font-family="Times New Roman,serif" font-size="14.00">Normalized count: 4.00</text>
<text text-anchor="middle" x="558.24" y="-286.22" font-family="Times New Roman,serif" font-size="14.00">Samples weight: 0.03</text>
</g>
<!-- BB11&#45;&gt;BB14 -->
<g id="edge17" class="edge">
<title>BB11&#45;&gt;BB14</title>
<path fill="none" stroke="black" d="M420.51,-404.88C442.82,-390.06 468.44,-373.05 491.49,-357.75"/>
<polygon fill="black" stroke="black" points="493.45,-360.64 499.85,-352.19 489.58,-354.81 493.45,-360.64"/>
</g>
<!-- BB13 -->
<g id="node14" class="node">
<title>BB13</title>
<ellipse fill="none" stroke="black" cx="203.24" cy="-180.25" rx="103.48" ry="48.17"/>
<text text-anchor="middle" x="203.24" y="-199.05" font-family="Times New Roman,serif" font-size="14.00">[be..c6)</text>
<text text-anchor="middle" x="203.24" y="-184.05" font-family="Times New Roman,serif" font-size="14.00">Count: 0</text>
<text text-anchor="middle" x="203.24" y="-169.05" font-family="Times New Roman,serif" font-size="14.00">Normalized count: 0.00</text>
<text text-anchor="middle" x="203.24" y="-154.05" font-family="Times New Roman,serif" font-size="14.00">Samples weight: 0.00</text>
</g>
<!-- BB12&#45;&gt;BB13 -->
<g id="edge20" class="edge">
<title>BB12&#45;&gt;BB13</title>
<path fill="none" stroke="black" d="M264.23,-266.62C256.85,-256.29 248.93,-245.21 241.32,-234.55"/>
<polygon fill="black" stroke="black" points="243.96,-232.23 235.3,-226.13 238.27,-236.3 243.96,-232.23"/>
</g>
<!-- BB12&#45;&gt;BB14 -->
<g id="edge19" class="edge">
<title>BB12&#45;&gt;BB14</title>
<path fill="none" stroke="black" d="M399.6,-312.42C414.54,-312.42 429.48,-312.42 444.41,-312.42"/>
<polygon fill="black" stroke="black" points="444.75,-315.92 454.75,-312.42 444.75,-308.92 444.75,-315.92"/>
</g>
<!-- BB13&#45;&gt;BB14 -->
<g id="edge22" class="edge">
<title>BB13&#45;&gt;BB14</title>
<path fill="none" stroke="black" d="M283.36,-210.63C338.37,-230.8 411.43,-257.59 468.41,-278.48"/>
<polygon fill="black" stroke="black" points="467.53,-281.89 478.13,-282.04 469.94,-275.31 467.53,-281.89"/>
</g>
<!-- BB21 -->
<g id="node22" class="node">
<title>BB21</title>
<ellipse fill="none" stroke="black" cx="147.24" cy="-48.08" rx="103.48" ry="48.17"/>
<text text-anchor="middle" x="147.24" y="-66.88" font-family="Times New Roman,serif" font-size="14.00">[160..16a)</text>
<text text-anchor="middle" x="147.24" y="-51.88" font-family="Times New Roman,serif" font-size="14.00">Count: 0</text>
<text text-anchor="middle" x="147.24" y="-36.88" font-family="Times New Roman,serif" font-size="14.00">Normalized count: 0.00</text>
<text text-anchor="middle" x="147.24" y="-21.88" font-family="Times New Roman,serif" font-size="14.00">Samples weight: 0.00</text>
</g>
<!-- BB13&#45;&gt;BB21 -->
<g id="edge21" class="edge">
<title>BB13&#45;&gt;BB21</title>
<path fill="none" stroke="black" d="M183.34,-132.99C179.42,-123.89 175.28,-114.26 171.25,-104.89"/>
<polygon fill="black" stroke="black" points="174.43,-103.43 167.26,-95.63 168,-106.2 174.43,-103.43"/>
</g>
<!-- BB15 -->
<g id="node16" class="node">
<title>BB15</title>
<ellipse fill="none" stroke="black" cx="465.24" cy="-180.25" rx="103.48" ry="48.17"/>
<text text-anchor="middle" x="465.24" y="-199.05" font-family="Times New Roman,serif" font-size="14.00">[f2..f7)</text>
<text text-anchor="middle" x="465.24" y="-184.05" font-family="Times New Roman,serif" font-size="14.00">Count: 0</text>
<text text-anchor="middle" x="465.24" y="-169.05" font-family="Times New Roman,serif" font-size="14.00">Normalized count: 0.00</text>
<text text-anchor="middle" x="465.24" y="-154.05" font-family="Times New Roman,serif" font-size="14.00">Samples weight: 0.00</text>
</g>
<!-- BB14&#45;&gt;BB15 -->
<g id="edge23" class="edge">
<title>BB14&#45;&gt;BB15</title>
<path fill="none" stroke="black" d="M526.23,-266.62C518.85,-256.29 510.93,-245.21 503.32,-234.55"/>
<polygon fill="black" stroke="black" points="505.96,-232.23 497.3,-226.13 500.27,-236.3 505.96,-232.23"/>
</g>
<!-- BB17 -->
<g id="node18" class="node">
<title>BB17</title>
<ellipse fill="none" stroke="black" cx="689.24" cy="-180.25" rx="103.48" ry="48.17"/>
<text text-anchor="middle" x="689.24" y="-199.05" font-family="Times New Roman,serif" font-size="14.00">[f9..114)</text>
<text text-anchor="middle" x="689.24" y="-184.05" font-family="Times New Roman,serif" font-size="14.00">Count: 0</text>
<text text-anchor="middle" x="689.24" y="-169.05" font-family="Times New Roman,serif" font-size="14.00">Normalized count: 0.00</text>
<text text-anchor="middle" x="689.24" y="-154.05" font-family="Times New Roman,serif" font-size="14.00">Samples weight: 0.00</text>
</g>
<!-- BB14&#45;&gt;BB17 -->
<g id="edge24" class="edge">
<title>BB14&#45;&gt;BB17</title>
<path fill="none" stroke="black" d="M601.49,-268.43C613.46,-256.55 626.54,-243.55 638.87,-231.3"/>
<polygon fill="black" stroke="black" points="641.4,-233.72 646.03,-224.19 636.47,-228.75 641.4,-233.72"/>
</g>
<!-- BB18 -->
<g id="node19" class="node">
<title>BB18</title>
<ellipse fill="none" stroke="black" cx="918.24" cy="-180.25" rx="108.38" ry="48.17"/>
<text text-anchor="middle" x="918.24" y="-199.05" font-family="Times New Roman,serif" font-size="14.00">[114..132)</text>
<text text-anchor="middle" x="918.24" y="-184.05" font-family="Times New Roman,serif" font-size="14.00">Count: 17</text>
<text text-anchor="middle" x="918.24" y="-169.05" font-family="Times New Roman,serif" font-size="14.00">Normalized count: 17.00</text>
<text text-anchor="middle" x="918.24" y="-154.05" font-family="Times New Roman,serif" font-size="14.00">Samples weight: 0.11</text>
</g>
<!-- BB14&#45;&gt;BB18 -->
<g id="edge25" class="edge">
<title>BB14&#45;&gt;BB18</title>
<path fill="none" stroke="black" d="M641.85,-284.05C688.89,-268.35 748.58,-247.91 801.24,-228.33 810.72,-224.81 820.6,-221.02 830.41,-217.18"/>
<polygon fill="black" stroke="black" points="831.77,-220.4 839.79,-213.48 829.2,-213.89 831.77,-220.4"/>
</g>
<!-- BB19 -->
<g id="node20" class="node">
<title>BB19</title>
<ellipse fill="none" stroke="black" cx="1147.24" cy="-180.25" rx="103.48" ry="48.17"/>
<text text-anchor="middle" x="1147.24" y="-199.05" font-family="Times New Roman,serif" font-size="14.00">[132..150)</text>
<text text-anchor="middle" x="1147.24" y="-184.05" font-family="Times New Roman,serif" font-size="14.00">Count: 0</text>
<text text-anchor="middle" x="1147.24" y="-169.05" font-family="Times New Roman,serif" font-size="14.00">Normalized count: 0.00</text>
<text text-anchor="middle" x="1147.24" y="-154.05" font-family="Times New Roman,serif" font-size="14.00">Samples weight: 0.00</text>
</g>
<!-- BB14&#45;&gt;BB19 -->
<g id="edge27" class="edge">
<title>BB14&#45;&gt;BB19</title>
<path fill="none" stroke="black" d="M658.39,-300.64C755.96,-288.59 907.79,-265.7 1035.24,-228.33 1045.05,-225.45 1055.17,-221.98 1065.12,-218.23"/>
<polygon fill="black" stroke="black" points="1066.53,-221.44 1074.6,-214.57 1064.01,-214.91 1066.53,-221.44"/>
</g>
<!-- BB14&#45;&gt;BB22 -->
<g id="edge26" class="edge">
<title>BB14&#45;&gt;BB22</title>
<path fill="none" stroke="black" d="M566.14,-360.66C578.3,-433.31 601.54,-572.24 614.64,-650.55"/>
<polygon fill="black" stroke="black" points="611.24,-651.44 616.34,-660.72 618.14,-650.28 611.24,-651.44"/>
</g>
<!-- BB16 -->
<g id="node17" class="node">
<title>BB16</title>
<ellipse fill="none" stroke="black" cx="390.24" cy="-48.08" rx="103.48" ry="48.17"/>
<text text-anchor="middle" x="390.24" y="-66.88" font-family="Times New Roman,serif" font-size="14.00">[f7..f9)</text>
<text text-anchor="middle" x="390.24" y="-51.88" font-family="Times New Roman,serif" font-size="14.00">Count: 0</text>
<text text-anchor="middle" x="390.24" y="-36.88" font-family="Times New Roman,serif" font-size="14.00">Normalized count: 0.00</text>
<text text-anchor="middle" x="390.24" y="-21.88" font-family="Times New Roman,serif" font-size="14.00">Samples weight: 0.00</text>
</g>
<!-- BB15&#45;&gt;BB16 -->
<g id="edge29" class="edge">
<title>BB15&#45;&gt;BB16</title>
<path fill="none" stroke="black" d="M439.01,-133.72C433.39,-123.97 427.4,-113.57 421.6,-103.52"/>
<polygon fill="black" stroke="black" points="424.61,-101.72 416.58,-94.8 418.54,-105.22 424.61,-101.72"/>
</g>
<!-- BB20 -->
<g id="node21" class="node">
<title>BB20</title>
<ellipse fill="none" stroke="black" cx="946.24" cy="-48.08" rx="103.48" ry="48.17"/>
<text text-anchor="middle" x="946.24" y="-66.88" font-family="Times New Roman,serif" font-size="14.00">[150..160)</text>
<text text-anchor="middle" x="946.24" y="-51.88" font-family="Times New Roman,serif" font-size="14.00">Count: 0</text>
<text text-anchor="middle" x="946.24" y="-36.88" font-family="Times New Roman,serif" font-size="14.00">Normalized count: 0.00</text>
<text text-anchor="middle" x="946.24" y="-21.88" font-family="Times New Roman,serif" font-size="14.00">Samples weight: 0.00</text>
</g>
<!-- BB15&#45;&gt;BB20 -->
<g id="edge28" class="edge">
<title>BB15&#45;&gt;BB20</title>
<path fill="none" stroke="black" d="M538.65,-146.22C551.37,-141.12 564.58,-136.22 577.24,-132.17 664.33,-104.3 765.85,-82.16 840.34,-67.77"/>
<polygon fill="black" stroke="black" points="841.04,-71.2 850.2,-65.88 839.72,-64.33 841.04,-71.2"/>
</g>
<!-- BB16&#45;&gt;BB22 -->
<g id="edge30" class="edge">
<title>BB16&#45;&gt;BB22</title>
<path fill="none" stroke="black" d="M364.45,-95.02C346.95,-132.79 330.72,-186.68 353.24,-228.33 367.13,-254.03 389.78,-241.69 408.24,-264.33 437.27,-299.96 423.46,-320.59 446.24,-360.5 456.29,-378.1 463.56,-379.27 474.24,-396.5 527.02,-481.64 574.75,-588.16 601.57,-651.97"/>
<polygon fill="black" stroke="black" points="598.45,-653.58 605.53,-661.46 604.9,-650.88 598.45,-653.58"/>
</g>
<!-- BB17&#45;&gt;BB22 -->
<g id="edge31" class="edge">
<title>BB17&#45;&gt;BB22</title>
<path fill="none" stroke="black" d="M684.57,-228.46C680.92,-264.63 675.57,-315.75 670.24,-360.5 658.05,-462.79 641.86,-581.74 632.3,-650.57"/>
<polygon fill="black" stroke="black" points="628.79,-650.38 630.88,-660.76 635.72,-651.34 628.79,-650.38"/>
</g>
<!-- BB18&#45;&gt;BB22 -->
<g id="edge32" class="edge">
<title>BB18&#45;&gt;BB22</title>
<path fill="none" stroke="black" d="M892.51,-227.34C838.35,-324.36 712.8,-549.27 654.72,-653.32"/>
<polygon fill="black" stroke="black" points="651.63,-651.66 649.81,-662.1 657.74,-655.07 651.63,-651.66"/>
</g>
<!-- BB19&#45;&gt;BB22 -->
<g id="edge33" class="edge">
<title>BB19&#45;&gt;BB22</title>
<path fill="none" stroke="black" d="M1105.6,-224.52C1028.53,-304.39 858.12,-480.05 711.24,-624.83 700.26,-635.66 688.37,-647.15 677.02,-658.02"/>
<polygon fill="black" stroke="black" points="674.46,-655.62 669.65,-665.06 679.3,-660.68 674.46,-655.62"/>
</g>
<!-- BB20&#45;&gt;BB22 -->
<g id="edge34" class="edge">
<title>BB20&#45;&gt;BB22</title>
<path fill="none" stroke="black" d="M1044.68,-62.88C1125.61,-76.36 1231.34,-99.61 1259.24,-132.17 1311.36,-193 1278.24,-231.3 1278.24,-311.42 1278.24,-445.58 1278.24,-445.58 1278.24,-445.58 1278.24,-561.56 919.47,-649.65 733.39,-687.54"/>
<polygon fill="black" stroke="black" points="732.67,-684.11 723.57,-689.52 734.06,-690.97 732.67,-684.11"/>
</g>
<!-- BB21&#45;&gt;BB22 -->
<g id="edge35" class="edge">
<title>BB21&#45;&gt;BB22</title>
<path fill="none" stroke="black" d="M106.74,-92.67C65.4,-141.88 7.24,-226.24 7.24,-311.42 7.24,-445.58 7.24,-445.58 7.24,-445.58 7.24,-579.79 125.4,-575.57 250.24,-624.83 334.76,-658.19 435.59,-679.6 511.24,-692.32"/>
<polygon fill="black" stroke="black" points="510.83,-695.8 521.27,-693.98 511.98,-688.9 510.83,-695.8"/>
</g>
<!-- BB22&#45;&gt;BB9 -->
<g id="edge36" class="edge">
<title>BB22&#45;&gt;BB9</title>
<path fill="none" stroke="black" d="M552.99,-672.52C518.49,-655.38 476.96,-634.75 441.47,-617.11"/>
<polygon fill="black" stroke="black" points="442.62,-613.78 432.11,-612.46 439.51,-620.05 442.62,-613.78"/>
</g>
<!-- BB22&#45;&gt;BB23 -->
<g id="edge37" class="edge">
<title>BB22&#45;&gt;BB23</title>
<path fill="none" stroke="black" d="M655.66,-755.25C662.51,-767.07 668.98,-780.12 673.24,-793 698.38,-869.06 692.24,-892.14 692.24,-972.25 692.24,-1106.42 692.24,-1106.42 692.24,-1106.42 692.24,-1181.1 660.07,-1261.95 634.86,-1313.85"/>
<polygon fill="black" stroke="black" points="631.69,-1312.37 630.4,-1322.88 637.97,-1315.47 631.69,-1312.37"/>
</g>
<!-- BB23&#45;&gt;BB1 -->
<g id="edge38" class="edge">
<title>BB23&#45;&gt;BB1</title>
<path fill="none" stroke="black" d="M560.33,-1325.77C547.91,-1313.88 534.33,-1300.88 521.53,-1288.63"/>
<polygon fill="black" stroke="black" points="523.74,-1285.9 514.1,-1281.52 518.9,-1290.96 523.74,-1285.9"/>
</g>
<!-- BB24 -->
<g id="node25" class="node">
<title>BB24</title>
<ellipse fill="none" stroke="black" cx="823.24" cy="-1237.58" rx="103.48" ry="48.17"/>
<text text-anchor="middle" x="823.24" y="-1256.38" font-family="Times New Roman,serif" font-size="14.00">[17d..17f)</text>
<text text-anchor="middle" x="823.24" y="-1241.38" font-family="Times New Roman,serif" font-size="14.00">Count: 1</text>
<text text-anchor="middle" x="823.24" y="-1226.38" font-family="Times New Roman,serif" font-size="14.00">Normalized count: 1.00</text>
<text text-anchor="middle" x="823.24" y="-1211.38" font-family="Times New Roman,serif" font-size="14.00">Samples weight: 0.01</text>
</g>
<!-- BB23&#45;&gt;BB24 -->
<g id="edge39" class="edge">
<title>BB23&#45;&gt;BB24</title>
<path fill="none" stroke="black" d="M668.88,-1330.75C694.85,-1315.24 725,-1297.24 751.73,-1281.28"/>
<polygon fill="black" stroke="black" points="753.86,-1284.09 760.65,-1275.95 750.27,-1278.08 753.86,-1284.09"/>
</g>
</g>
</svg>
