<?xml version="1.0" encoding="UTF-8" standalone="no"?>
<!DOCTYPE svg PUBLIC "-//W3C//DTD SVG 1.1//EN"
 "http://www.w3.org/Graphics/SVG/1.1/DTD/svg11.dtd">
<!-- Generated by graphviz version 2.47.0 (20210316.0004)
 -->
<!-- Title: G Pages: 1 -->
<svg width="1279pt" height="1558pt"
 viewBox="0.00 0.00 1279.47 1558.00" xmlns="http://www.w3.org/2000/svg" xmlns:xlink="http://www.w3.org/1999/xlink">
<g id="graph0" class="graph" transform="scale(1 1) rotate(0) translate(4 1554)">
<title>G</title>
<polygon fill="white" stroke="transparent" points="-4,4 -4,-1554 1275.47,-1554 1275.47,4 -4,4"/>
<!-- BB0 -->
<g id="node1" class="node">
<title>BB0</title>
<ellipse fill="none" stroke="black" cx="599" cy="-1501.92" rx="103.48" ry="48.17"/>
<text text-anchor="middle" x="599" y="-1520.72" font-family="Times New Roman,serif" font-size="14.00">[0..1e)</text>
<text text-anchor="middle" x="599" y="-1505.72" font-family="Times New Roman,serif" font-size="14.00">Count: 2460</text>
<text text-anchor="middle" x="599" y="-1490.72" font-family="Times New Roman,serif" font-size="14.00">Normalized count: 1.00</text>
<text text-anchor="middle" x="599" y="-1475.72" font-family="Times New Roman,serif" font-size="14.00">Samples weight: 0.01</text>
</g>
<!-- BB23 -->
<g id="node24" class="node">
<title>BB23</title>
<ellipse fill="none" stroke="black" cx="599" cy="-1369.75" rx="108.38" ry="48.17"/>
<text text-anchor="middle" x="599" y="-1388.55" font-family="Times New Roman,serif" font-size="14.00">[171..17d)</text>
<text text-anchor="middle" x="599" y="-1373.55" font-family="Times New Roman,serif" font-size="14.00">Count: 36600</text>
<text text-anchor="middle" x="599" y="-1358.55" font-family="Times New Roman,serif" font-size="14.00">Normalized count: 14.88</text>
<text text-anchor="middle" x="599" y="-1343.55" font-family="Times New Roman,serif" font-size="14.00">Samples weight: 0.12</text>
</g>
<!-- BB0&#45;&gt;BB23 -->
<g id="edge1" class="edge">
<title>BB0&#45;&gt;BB23</title>
<path fill="none" stroke="black" d="M599,-1453.55C599,-1445.29 599,-1436.6 599,-1428.1"/>
<polygon fill="black" stroke="black" points="602.5,-1427.86 599,-1417.86 595.5,-1427.86 602.5,-1427.86"/>
</g>
<!-- BB1 -->
<g id="node2" class="node">
<title>BB1</title>
<ellipse fill="none" stroke="black" cx="463" cy="-1237.58" rx="108.38" ry="48.17"/>
<text text-anchor="middle" x="463" y="-1256.38" font-family="Times New Roman,serif" font-size="14.00">[1e..2c)</text>
<text text-anchor="middle" x="463" y="-1241.38" font-family="Times New Roman,serif" font-size="14.00">Count: 34140</text>
<text text-anchor="middle" x="463" y="-1226.38" font-family="Times New Roman,serif" font-size="14.00">Normalized count: 13.88</text>
<text text-anchor="middle" x="463" y="-1211.38" font-family="Times New Roman,serif" font-size="14.00">Samples weight: 0.11</text>
</g>
<!-- BB2 -->
<g id="node3" class="node">
<title>BB2</title>
<ellipse fill="none" stroke="black" cx="234" cy="-1105.42" rx="103.48" ry="48.17"/>
<text text-anchor="middle" x="234" y="-1124.22" font-family="Times New Roman,serif" font-size="14.00">[2c..38)</text>
<text text-anchor="middle" x="234" y="-1109.22" font-family="Times New Roman,serif" font-size="14.00">Count: 21120</text>
<text text-anchor="middle" x="234" y="-1094.22" font-family="Times New Roman,serif" font-size="14.00">Normalized count: 8.59</text>
<text text-anchor="middle" x="234" y="-1079.22" font-family="Times New Roman,serif" font-size="14.00">Samples weight: 0.07</text>
</g>
<!-- BB1&#45;&gt;BB2 -->
<g id="edge3" class="edge">
<title>BB1&#45;&gt;BB2</title>
<path fill="none" stroke="black" d="M397.38,-1199.28C369.23,-1183.28 336.23,-1164.53 307.29,-1148.07"/>
<polygon fill="black" stroke="black" points="308.87,-1144.95 298.45,-1143.05 305.41,-1151.03 308.87,-1144.95"/>
</g>
<!-- BB6 -->
<g id="node7" class="node">
<title>BB6</title>
<ellipse fill="none" stroke="black" cx="463" cy="-1105.42" rx="108.38" ry="48.17"/>
<text text-anchor="middle" x="463" y="-1124.22" font-family="Times New Roman,serif" font-size="14.00">[54..58)</text>
<text text-anchor="middle" x="463" y="-1109.22" font-family="Times New Roman,serif" font-size="14.00">Count: 34140</text>
<text text-anchor="middle" x="463" y="-1094.22" font-family="Times New Roman,serif" font-size="14.00">Normalized count: 13.88</text>
<text text-anchor="middle" x="463" y="-1079.22" font-family="Times New Roman,serif" font-size="14.00">Samples weight: 0.11</text>
</g>
<!-- BB1&#45;&gt;BB6 -->
<g id="edge2" class="edge">
<title>BB1&#45;&gt;BB6</title>
<path fill="none" stroke="black" d="M463,-1189.22C463,-1180.95 463,-1172.27 463,-1163.77"/>
<polygon fill="black" stroke="black" points="466.5,-1163.52 463,-1153.52 459.5,-1163.52 466.5,-1163.52"/>
</g>
<!-- BB2&#45;&gt;BB23 -->
<g id="edge4" class="edge">
<title>BB2&#45;&gt;BB23</title>
<path fill="none" stroke="black" d="M252.17,-1152.9C270.23,-1193.39 301.67,-1250.92 346,-1285.67 386.93,-1317.75 440.75,-1337.68 488.22,-1349.94"/>
<polygon fill="black" stroke="black" points="487.38,-1353.34 497.93,-1352.37 489.08,-1346.55 487.38,-1353.34"/>
</g>
<!-- BB3 -->
<g id="node4" class="node">
<title>BB3</title>
<ellipse fill="none" stroke="black" cx="323" cy="-973.25" rx="108.38" ry="48.17"/>
<text text-anchor="middle" x="323" y="-992.05" font-family="Times New Roman,serif" font-size="14.00">[38..47)</text>
<text text-anchor="middle" x="323" y="-977.05" font-family="Times New Roman,serif" font-size="14.00">Count: 31680</text>
<text text-anchor="middle" x="323" y="-962.05" font-family="Times New Roman,serif" font-size="14.00">Normalized count: 12.88</text>
<text text-anchor="middle" x="323" y="-947.05" font-family="Times New Roman,serif" font-size="14.00">Samples weight: 0.11</text>
</g>
<!-- BB4 -->
<g id="node5" class="node">
<title>BB4</title>
<ellipse fill="none" stroke="black" cx="328" cy="-841.08" rx="103.48" ry="48.17"/>
<text text-anchor="middle" x="328" y="-859.88" font-family="Times New Roman,serif" font-size="14.00">[47..4c)</text>
<text text-anchor="middle" x="328" y="-844.88" font-family="Times New Roman,serif" font-size="14.00">Count: 10560</text>
<text text-anchor="middle" x="328" y="-829.88" font-family="Times New Roman,serif" font-size="14.00">Normalized count: 4.29</text>
<text text-anchor="middle" x="328" y="-814.88" font-family="Times New Roman,serif" font-size="14.00">Samples weight: 0.04</text>
</g>
<!-- BB3&#45;&gt;BB4 -->
<g id="edge6" class="edge">
<title>BB3&#45;&gt;BB4</title>
<path fill="none" stroke="black" d="M324.82,-924.89C325.14,-916.62 325.47,-907.94 325.8,-899.43"/>
<polygon fill="black" stroke="black" points="329.3,-899.32 326.19,-889.19 322.31,-899.05 329.3,-899.32"/>
</g>
<!-- BB5 -->
<g id="node6" class="node">
<title>BB5</title>
<ellipse fill="none" stroke="black" cx="104" cy="-841.08" rx="103.48" ry="48.17"/>
<text text-anchor="middle" x="104" y="-859.88" font-family="Times New Roman,serif" font-size="14.00">[4c..54)</text>
<text text-anchor="middle" x="104" y="-844.88" font-family="Times New Roman,serif" font-size="14.00">Count: 21120</text>
<text text-anchor="middle" x="104" y="-829.88" font-family="Times New Roman,serif" font-size="14.00">Normalized count: 8.59</text>
<text text-anchor="middle" x="104" y="-814.88" font-family="Times New Roman,serif" font-size="14.00">Samples weight: 0.07</text>
</g>
<!-- BB3&#45;&gt;BB5 -->
<g id="edge5" class="edge">
<title>BB3&#45;&gt;BB5</title>
<path fill="none" stroke="black" d="M259.07,-934.25C232.87,-918.68 202.43,-900.58 175.49,-884.57"/>
<polygon fill="black" stroke="black" points="177.26,-881.56 166.88,-879.46 173.69,-887.57 177.26,-881.56"/>
</g>
<!-- BB7 -->
<g id="node8" class="node">
<title>BB7</title>
<ellipse fill="none" stroke="black" cx="552" cy="-973.25" rx="103.48" ry="48.17"/>
<text text-anchor="middle" x="552" y="-992.05" font-family="Times New Roman,serif" font-size="14.00">[58..66)</text>
<text text-anchor="middle" x="552" y="-977.05" font-family="Times New Roman,serif" font-size="14.00">Count: 13020</text>
<text text-anchor="middle" x="552" y="-962.05" font-family="Times New Roman,serif" font-size="14.00">Normalized count: 5.29</text>
<text text-anchor="middle" x="552" y="-947.05" font-family="Times New Roman,serif" font-size="14.00">Samples weight: 0.04</text>
</g>
<!-- BB4&#45;&gt;BB7 -->
<g id="edge7" class="edge">
<title>BB4&#45;&gt;BB7</title>
<path fill="none" stroke="black" d="M391.75,-879.13C419.2,-895.08 451.42,-913.8 479.75,-930.27"/>
<polygon fill="black" stroke="black" points="478.01,-933.3 488.41,-935.3 481.52,-927.25 478.01,-933.3"/>
</g>
<!-- BB5&#45;&gt;BB6 -->
<g id="edge8" class="edge">
<title>BB5&#45;&gt;BB6</title>
<path fill="none" stroke="black" d="M118.81,-888.83C134.18,-929.78 162.19,-987.85 206,-1021.33 257.05,-1060.34 284.96,-1037.3 346,-1057.33 355.85,-1060.57 366.07,-1064.22 376.17,-1068.01"/>
<polygon fill="black" stroke="black" points="375.21,-1071.4 385.8,-1071.7 377.71,-1064.86 375.21,-1071.4"/>
</g>
<!-- BB6&#45;&gt;BB3 -->
<g id="edge9" class="edge">
<title>BB6&#45;&gt;BB3</title>
<path fill="none" stroke="black" d="M417.16,-1061.79C404.11,-1049.66 389.77,-1036.33 376.32,-1023.82"/>
<polygon fill="black" stroke="black" points="378.65,-1021.21 368.94,-1016.97 373.88,-1026.34 378.65,-1021.21"/>
</g>
<!-- BB6&#45;&gt;BB7 -->
<g id="edge10" class="edge">
<title>BB6&#45;&gt;BB7</title>
<path fill="none" stroke="black" d="M493.88,-1059.25C500.85,-1049.06 508.32,-1038.14 515.5,-1027.64"/>
<polygon fill="black" stroke="black" points="518.42,-1029.56 521.18,-1019.33 512.64,-1025.61 518.42,-1029.56"/>
</g>
<!-- BB8 -->
<g id="node9" class="node">
<title>BB8</title>
<ellipse fill="none" stroke="black" cx="552" cy="-841.08" rx="103.48" ry="48.17"/>
<text text-anchor="middle" x="552" y="-859.88" font-family="Times New Roman,serif" font-size="14.00">[66..8f)</text>
<text text-anchor="middle" x="552" y="-844.88" font-family="Times New Roman,serif" font-size="14.00">Count: 13020</text>
<text text-anchor="middle" x="552" y="-829.88" font-family="Times New Roman,serif" font-size="14.00">Normalized count: 5.29</text>
<text text-anchor="middle" x="552" y="-814.88" font-family="Times New Roman,serif" font-size="14.00">Samples weight: 0.04</text>
</g>
<!-- BB7&#45;&gt;BB8 -->
<g id="edge12" class="edge">
<title>BB7&#45;&gt;BB8</title>
<path fill="none" stroke="black" d="M552,-924.89C552,-916.62 552,-907.94 552,-899.43"/>
<polygon fill="black" stroke="black" points="555.5,-899.19 552,-889.19 548.5,-899.19 555.5,-899.19"/>
</g>
<!-- BB7&#45;&gt;BB23 -->
<g id="edge11" class="edge">
<title>BB7&#45;&gt;BB23</title>
<path fill="none" stroke="black" d="M570.05,-1020.68C573.96,-1032.47 577.64,-1045.23 580,-1057.33 597.1,-1144.83 600.07,-1248.54 600,-1311.45"/>
<polygon fill="black" stroke="black" points="596.5,-1311.56 599.97,-1321.57 603.5,-1311.58 596.5,-1311.56"/>
</g>
<!-- BB22 -->
<g id="node23" class="node">
<title>BB22</title>
<ellipse fill="none" stroke="black" cx="617" cy="-708.92" rx="108.38" ry="48.17"/>
<text text-anchor="middle" x="617" y="-727.72" font-family="Times New Roman,serif" font-size="14.00">[16a..171)</text>
<text text-anchor="middle" x="617" y="-712.72" font-family="Times New Roman,serif" font-size="14.00">Count: 26070</text>
<text text-anchor="middle" x="617" y="-697.72" font-family="Times New Roman,serif" font-size="14.00">Normalized count: 10.60</text>
<text text-anchor="middle" x="617" y="-682.72" font-family="Times New Roman,serif" font-size="14.00">Samples weight: 0.09</text>
</g>
<!-- BB8&#45;&gt;BB22 -->
<g id="edge13" class="edge">
<title>BB8&#45;&gt;BB22</title>
<path fill="none" stroke="black" d="M574.92,-794.19C579.57,-784.87 584.51,-774.98 589.31,-765.37"/>
<polygon fill="black" stroke="black" points="592.52,-766.78 593.85,-756.27 586.25,-763.65 592.52,-766.78"/>
</g>
<!-- BB9 -->
<g id="node10" class="node">
<title>BB9</title>
<ellipse fill="none" stroke="black" cx="355" cy="-576.75" rx="103.48" ry="48.17"/>
<text text-anchor="middle" x="355" y="-595.55" font-family="Times New Roman,serif" font-size="14.00">[8f..95)</text>
<text text-anchor="middle" x="355" y="-580.55" font-family="Times New Roman,serif" font-size="14.00">Count: 13050</text>
<text text-anchor="middle" x="355" y="-565.55" font-family="Times New Roman,serif" font-size="14.00">Normalized count: 5.30</text>
<text text-anchor="middle" x="355" y="-550.55" font-family="Times New Roman,serif" font-size="14.00">Samples weight: 0.04</text>
</g>
<!-- BB10 -->
<g id="node11" class="node">
<title>BB10</title>
<ellipse fill="none" stroke="black" cx="131" cy="-444.58" rx="103.48" ry="48.17"/>
<text text-anchor="middle" x="131" y="-463.38" font-family="Times New Roman,serif" font-size="14.00">[95..98)</text>
<text text-anchor="middle" x="131" y="-448.38" font-family="Times New Roman,serif" font-size="14.00">Count: 0</text>
<text text-anchor="middle" x="131" y="-433.38" font-family="Times New Roman,serif" font-size="14.00">Normalized count: 0.00</text>
<text text-anchor="middle" x="131" y="-418.38" font-family="Times New Roman,serif" font-size="14.00">Samples weight: 0.00</text>
</g>
<!-- BB9&#45;&gt;BB10 -->
<g id="edge15" class="edge">
<title>BB9&#45;&gt;BB10</title>
<path fill="none" stroke="black" d="M291.41,-538.8C263.98,-522.86 231.75,-504.13 203.41,-487.66"/>
<polygon fill="black" stroke="black" points="205.15,-484.63 194.75,-482.63 201.64,-490.68 205.15,-484.63"/>
</g>
<!-- BB11 -->
<g id="node12" class="node">
<title>BB11</title>
<ellipse fill="none" stroke="black" cx="355" cy="-444.58" rx="103.48" ry="48.17"/>
<text text-anchor="middle" x="355" y="-463.38" font-family="Times New Roman,serif" font-size="14.00">[98..b9)</text>
<text text-anchor="middle" x="355" y="-448.38" font-family="Times New Roman,serif" font-size="14.00">Count: 13050</text>
<text text-anchor="middle" x="355" y="-433.38" font-family="Times New Roman,serif" font-size="14.00">Normalized count: 5.30</text>
<text text-anchor="middle" x="355" y="-418.38" font-family="Times New Roman,serif" font-size="14.00">Samples weight: 0.04</text>
</g>
<!-- BB9&#45;&gt;BB11 -->
<g id="edge14" class="edge">
<title>BB9&#45;&gt;BB11</title>
<path fill="none" stroke="black" d="M355,-528.39C355,-520.12 355,-511.44 355,-502.93"/>
<polygon fill="black" stroke="black" points="358.5,-502.69 355,-492.69 351.5,-502.69 358.5,-502.69"/>
</g>
<!-- BB10&#45;&gt;BB11 -->
<g id="edge16" class="edge">
<title>BB10&#45;&gt;BB11</title>
<path fill="none" stroke="black" d="M234.25,-444.58C236.7,-444.58 239.16,-444.58 241.61,-444.58"/>
<polygon fill="black" stroke="black" points="241.7,-448.08 251.7,-444.58 241.7,-441.08 241.7,-448.08"/>
</g>
<!-- BB12 -->
<g id="node13" class="node">
<title>BB12</title>
<ellipse fill="none" stroke="black" cx="289" cy="-312.42" rx="103.48" ry="48.17"/>
<text text-anchor="middle" x="289" y="-331.22" font-family="Times New Roman,serif" font-size="14.00">[b9..be)</text>
<text text-anchor="middle" x="289" y="-316.22" font-family="Times New Roman,serif" font-size="14.00">Count: 30</text>
<text text-anchor="middle" x="289" y="-301.22" font-family="Times New Roman,serif" font-size="14.00">Normalized count: 0.01</text>
<text text-anchor="middle" x="289" y="-286.22" font-family="Times New Roman,serif" font-size="14.00">Samples weight: 0.00</text>
</g>
<!-- BB11&#45;&gt;BB12 -->
<g id="edge18" class="edge">
<title>BB11&#45;&gt;BB12</title>
<path fill="none" stroke="black" d="M331.73,-397.69C326.95,-388.26 321.87,-378.24 316.94,-368.53"/>
<polygon fill="black" stroke="black" points="319.93,-366.67 312.28,-359.33 313.68,-369.83 319.93,-366.67"/>
</g>
<!-- BB14 -->
<g id="node15" class="node">
<title>BB14</title>
<ellipse fill="none" stroke="black" cx="551" cy="-312.42" rx="103.48" ry="48.17"/>
<text text-anchor="middle" x="551" y="-331.22" font-family="Times New Roman,serif" font-size="14.00">[c6..f2)</text>
<text text-anchor="middle" x="551" y="-316.22" font-family="Times New Roman,serif" font-size="14.00">Count: 13020</text>
<text text-anchor="middle" x="551" y="-301.22" font-family="Times New Roman,serif" font-size="14.00">Normalized count: 5.29</text>
<text text-anchor="middle" x="551" y="-286.22" font-family="Times New Roman,serif" font-size="14.00">Samples weight: 0.04</text>
</g>
<!-- BB11&#45;&gt;BB14 -->
<g id="edge17" class="edge">
<title>BB11&#45;&gt;BB14</title>
<path fill="none" stroke="black" d="M413.28,-404.88C435.59,-390.06 461.2,-373.05 484.25,-357.75"/>
<polygon fill="black" stroke="black" points="486.22,-360.64 492.61,-352.19 482.34,-354.81 486.22,-360.64"/>
</g>
<!-- BB13 -->
<g id="node14" class="node">
<title>BB13</title>
<ellipse fill="none" stroke="black" cx="196" cy="-180.25" rx="103.48" ry="48.17"/>
<text text-anchor="middle" x="196" y="-199.05" font-family="Times New Roman,serif" font-size="14.00">[be..c6)</text>
<text text-anchor="middle" x="196" y="-184.05" font-family="Times New Roman,serif" font-size="14.00">Count: 30</text>
<text text-anchor="middle" x="196" y="-169.05" font-family="Times New Roman,serif" font-size="14.00">Normalized count: 0.01</text>
<text text-anchor="middle" x="196" y="-154.05" font-family="Times New Roman,serif" font-size="14.00">Samples weight: 0.00</text>
</g>
<!-- BB12&#45;&gt;BB13 -->
<g id="edge20" class="edge">
<title>BB12&#45;&gt;BB13</title>
<path fill="none" stroke="black" d="M256.99,-266.62C249.61,-256.29 241.69,-245.21 234.08,-234.55"/>
<polygon fill="black" stroke="black" points="236.73,-232.23 228.06,-226.13 231.03,-236.3 236.73,-232.23"/>
</g>
<!-- BB12&#45;&gt;BB14 -->
<g id="edge19" class="edge">
<title>BB12&#45;&gt;BB14</title>
<path fill="none" stroke="black" d="M392.37,-312.42C407.3,-312.42 422.24,-312.42 437.18,-312.42"/>
<polygon fill="black" stroke="black" points="437.52,-315.92 447.52,-312.42 437.52,-308.92 437.52,-315.92"/>
</g>
<!-- BB13&#45;&gt;BB14 -->
<g id="edge22" class="edge">
<title>BB13&#45;&gt;BB14</title>
<path fill="none" stroke="black" d="M276.13,-210.63C331.13,-230.8 404.19,-257.59 461.17,-278.48"/>
<polygon fill="black" stroke="black" points="460.29,-281.89 470.89,-282.04 462.7,-275.31 460.29,-281.89"/>
</g>
<!-- BB21 -->
<g id="node22" class="node">
<title>BB21</title>
<ellipse fill="none" stroke="black" cx="140" cy="-48.08" rx="103.48" ry="48.17"/>
<text text-anchor="middle" x="140" y="-66.88" font-family="Times New Roman,serif" font-size="14.00">[160..16a)</text>
<text text-anchor="middle" x="140" y="-51.88" font-family="Times New Roman,serif" font-size="14.00">Count: 30</text>
<text text-anchor="middle" x="140" y="-36.88" font-family="Times New Roman,serif" font-size="14.00">Normalized count: 0.01</text>
<text text-anchor="middle" x="140" y="-21.88" font-family="Times New Roman,serif" font-size="14.00">Samples weight: 0.00</text>
</g>
<!-- BB13&#45;&gt;BB21 -->
<g id="edge21" class="edge">
<title>BB13&#45;&gt;BB21</title>
<path fill="none" stroke="black" d="M176.1,-132.99C172.18,-123.89 168.04,-114.26 164.01,-104.89"/>
<polygon fill="black" stroke="black" points="167.19,-103.43 160.03,-95.63 160.76,-106.2 167.19,-103.43"/>
</g>
<!-- BB15 -->
<g id="node16" class="node">
<title>BB15</title>
<ellipse fill="none" stroke="black" cx="458" cy="-180.25" rx="103.48" ry="48.17"/>
<text text-anchor="middle" x="458" y="-199.05" font-family="Times New Roman,serif" font-size="14.00">[f2..f7)</text>
<text text-anchor="middle" x="458" y="-184.05" font-family="Times New Roman,serif" font-size="14.00">Count: 0</text>
<text text-anchor="middle" x="458" y="-169.05" font-family="Times New Roman,serif" font-size="14.00">Normalized count: 0.00</text>
<text text-anchor="middle" x="458" y="-154.05" font-family="Times New Roman,serif" font-size="14.00">Samples weight: 0.00</text>
</g>
<!-- BB14&#45;&gt;BB15 -->
<g id="edge23" class="edge">
<title>BB14&#45;&gt;BB15</title>
<path fill="none" stroke="black" d="M518.99,-266.62C511.61,-256.29 503.69,-245.21 496.08,-234.55"/>
<polygon fill="black" stroke="black" points="498.73,-232.23 490.06,-226.13 493.03,-236.3 498.73,-232.23"/>
</g>
<!-- BB17 -->
<g id="node18" class="node">
<title>BB17</title>
<ellipse fill="none" stroke="black" cx="682" cy="-180.25" rx="103.48" ry="48.17"/>
<text text-anchor="middle" x="682" y="-199.05" font-family="Times New Roman,serif" font-size="14.00">[f9..114)</text>
<text text-anchor="middle" x="682" y="-184.05" font-family="Times New Roman,serif" font-size="14.00">Count: 0</text>
<text text-anchor="middle" x="682" y="-169.05" font-family="Times New Roman,serif" font-size="14.00">Normalized count: 0.00</text>
<text text-anchor="middle" x="682" y="-154.05" font-family="Times New Roman,serif" font-size="14.00">Samples weight: 0.00</text>
</g>
<!-- BB14&#45;&gt;BB17 -->
<g id="edge24" class="edge">
<title>BB14&#45;&gt;BB17</title>
<path fill="none" stroke="black" d="M594.26,-268.43C606.22,-256.55 619.3,-243.55 631.63,-231.3"/>
<polygon fill="black" stroke="black" points="634.16,-233.72 638.79,-224.19 629.23,-228.75 634.16,-233.72"/>
</g>
<!-- BB18 -->
<g id="node19" class="node">
<title>BB18</title>
<ellipse fill="none" stroke="black" cx="906" cy="-180.25" rx="103.48" ry="48.17"/>
<text text-anchor="middle" x="906" y="-199.05" font-family="Times New Roman,serif" font-size="14.00">[114..132)</text>
<text text-anchor="middle" x="906" y="-184.05" font-family="Times New Roman,serif" font-size="14.00">Count: 13020</text>
<text text-anchor="middle" x="906" y="-169.05" font-family="Times New Roman,serif" font-size="14.00">Normalized count: 5.29</text>
<text text-anchor="middle" x="906" y="-154.05" font-family="Times New Roman,serif" font-size="14.00">Samples weight: 0.04</text>
</g>
<!-- BB14&#45;&gt;BB18 -->
<g id="edge25" class="edge">
<title>BB14&#45;&gt;BB18</title>
<path fill="none" stroke="black" d="M635.01,-284.27C682.05,-268.68 741.6,-248.28 794,-228.33 803.09,-224.87 812.54,-221.13 821.93,-217.32"/>
<polygon fill="black" stroke="black" points="823.35,-220.52 831.28,-213.5 820.7,-214.04 823.35,-220.52"/>
</g>
<!-- BB19 -->
<g id="node20" class="node">
<title>BB19</title>
<ellipse fill="none" stroke="black" cx="1130" cy="-180.25" rx="103.48" ry="48.17"/>
<text text-anchor="middle" x="1130" y="-199.05" font-family="Times New Roman,serif" font-size="14.00">[132..150)</text>
<text text-anchor="middle" x="1130" y="-184.05" font-family="Times New Roman,serif" font-size="14.00">Count: 0</text>
<text text-anchor="middle" x="1130" y="-169.05" font-family="Times New Roman,serif" font-size="14.00">Normalized count: 0.00</text>
<text text-anchor="middle" x="1130" y="-154.05" font-family="Times New Roman,serif" font-size="14.00">Samples weight: 0.00</text>
</g>
<!-- BB14&#45;&gt;BB19 -->
<g id="edge27" class="edge">
<title>BB14&#45;&gt;BB19</title>
<path fill="none" stroke="black" d="M650.87,-300.17C746.45,-287.89 894,-264.93 1018,-228.33 1027.81,-225.44 1037.93,-221.95 1047.87,-218.2"/>
<polygon fill="black" stroke="black" points="1049.29,-221.4 1057.35,-214.53 1046.76,-214.87 1049.29,-221.4"/>
</g>
<!-- BB14&#45;&gt;BB22 -->
<g id="edge26" class="edge">
<title>BB14&#45;&gt;BB22</title>
<path fill="none" stroke="black" d="M558.9,-360.66C571.06,-433.31 594.3,-572.24 607.4,-650.55"/>
<polygon fill="black" stroke="black" points="604,-651.44 609.1,-660.72 610.91,-650.28 604,-651.44"/>
</g>
<!-- BB16 -->
<g id="node17" class="node">
<title>BB16</title>
<ellipse fill="none" stroke="black" cx="383" cy="-48.08" rx="103.48" ry="48.17"/>
<text text-anchor="middle" x="383" y="-66.88" font-family="Times New Roman,serif" font-size="14.00">[f7..f9)</text>
<text text-anchor="middle" x="383" y="-51.88" font-family="Times New Roman,serif" font-size="14.00">Count: 0</text>
<text text-anchor="middle" x="383" y="-36.88" font-family="Times New Roman,serif" font-size="14.00">Normalized count: 0.00</text>
<text text-anchor="middle" x="383" y="-21.88" font-family="Times New Roman,serif" font-size="14.00">Samples weight: 0.00</text>
</g>
<!-- BB15&#45;&gt;BB16 -->
<g id="edge29" class="edge">
<title>BB15&#45;&gt;BB16</title>
<path fill="none" stroke="black" d="M431.77,-133.72C426.15,-123.97 420.16,-113.57 414.37,-103.52"/>
<polygon fill="black" stroke="black" points="417.37,-101.72 409.34,-94.8 411.3,-105.22 417.37,-101.72"/>
</g>
<!-- BB20 -->
<g id="node21" class="node">
<title>BB20</title>
<ellipse fill="none" stroke="black" cx="934" cy="-48.08" rx="103.48" ry="48.17"/>
<text text-anchor="middle" x="934" y="-66.88" font-family="Times New Roman,serif" font-size="14.00">[150..160)</text>
<text text-anchor="middle" x="934" y="-51.88" font-family="Times New Roman,serif" font-size="14.00">Count: 0</text>
<text text-anchor="middle" x="934" y="-36.88" font-family="Times New Roman,serif" font-size="14.00">Normalized count: 0.00</text>
<text text-anchor="middle" x="934" y="-21.88" font-family="Times New Roman,serif" font-size="14.00">Samples weight: 0.00</text>
</g>
<!-- BB15&#45;&gt;BB20 -->
<g id="edge28" class="edge">
<title>BB15&#45;&gt;BB20</title>
<path fill="none" stroke="black" d="M531.42,-146.26C544.14,-141.15 557.35,-136.24 570,-132.17 655.31,-104.73 754.63,-82.7 827.96,-68.23"/>
<polygon fill="black" stroke="black" points="828.98,-71.6 838.13,-66.24 827.64,-64.73 828.98,-71.6"/>
</g>
<!-- BB16&#45;&gt;BB22 -->
<g id="edge30" class="edge">
<title>BB16&#45;&gt;BB22</title>
<path fill="none" stroke="black" d="M357.21,-95.02C339.71,-132.79 323.48,-186.68 346,-228.33 359.89,-254.03 382.54,-241.69 401,-264.33 430.03,-299.96 416.22,-320.59 439,-360.5 449.05,-378.1 456.32,-379.27 467,-396.5 519.78,-481.64 567.51,-588.16 594.33,-651.97"/>
<polygon fill="black" stroke="black" points="591.21,-653.58 598.29,-661.46 597.67,-650.88 591.21,-653.58"/>
</g>
<!-- BB17&#45;&gt;BB22 -->
<g id="edge31" class="edge">
<title>BB17&#45;&gt;BB22</title>
<path fill="none" stroke="black" d="M677.33,-228.46C673.68,-264.63 668.33,-315.75 663,-360.5 650.81,-462.79 634.62,-581.74 625.06,-650.57"/>
<polygon fill="black" stroke="black" points="621.55,-650.38 623.64,-660.76 628.48,-651.34 621.55,-650.38"/>
</g>
<!-- BB18&#45;&gt;BB22 -->
<g id="edge32" class="edge">
<title>BB18&#45;&gt;BB22</title>
<path fill="none" stroke="black" d="M880.92,-226.96C827.79,-323.77 704.13,-549.12 646.97,-653.3"/>
<polygon fill="black" stroke="black" points="643.88,-651.65 642.14,-662.1 650.02,-655.02 643.88,-651.65"/>
</g>
<!-- BB19&#45;&gt;BB22 -->
<g id="edge33" class="edge">
<title>BB19&#45;&gt;BB22</title>
<path fill="none" stroke="black" d="M1089.48,-224.67C1014.47,-304.78 848.41,-480.83 704,-624.83 693.08,-635.72 681.23,-647.24 669.88,-658.12"/>
<polygon fill="black" stroke="black" points="667.32,-655.72 662.51,-665.16 672.16,-660.78 667.32,-655.72"/>
</g>
<!-- BB20&#45;&gt;BB22 -->
<g id="edge34" class="edge">
<title>BB20&#45;&gt;BB22</title>
<path fill="none" stroke="black" d="M1032.06,-63.29C1111.56,-76.94 1214.72,-100.2 1242,-132.17 1294,-193.11 1261,-231.3 1261,-311.42 1261,-445.58 1261,-445.58 1261,-445.58 1261,-559.76 909.44,-648.42 725.82,-686.95"/>
<polygon fill="black" stroke="black" points="724.94,-683.56 715.86,-689.02 726.37,-690.41 724.94,-683.56"/>
</g>
<!-- BB21&#45;&gt;BB22 -->
<g id="edge35" class="edge">
<title>BB21&#45;&gt;BB22</title>
<path fill="none" stroke="black" d="M99.51,-92.67C58.16,-141.88 0,-226.24 0,-311.42 0,-445.58 0,-445.58 0,-445.58 0,-579.79 118.16,-575.57 243,-624.83 327.53,-658.19 428.35,-679.6 504,-692.32"/>
<polygon fill="black" stroke="black" points="503.6,-695.8 514.03,-693.98 504.74,-688.9 503.6,-695.8"/>
</g>
<!-- BB22&#45;&gt;BB9 -->
<g id="edge36" class="edge">
<title>BB22&#45;&gt;BB9</title>
<path fill="none" stroke="black" d="M545.75,-672.52C511.26,-655.38 469.72,-634.75 434.23,-617.11"/>
<polygon fill="black" stroke="black" points="435.39,-613.78 424.87,-612.46 432.27,-620.05 435.39,-613.78"/>
</g>
<!-- BB22&#45;&gt;BB23 -->
<g id="edge37" class="edge">
<title>BB22&#45;&gt;BB23</title>
<path fill="none" stroke="black" d="M647.12,-755.39C653.69,-767.2 659.9,-780.22 664,-793 688.46,-869.29 683,-892.14 683,-972.25 683,-1106.42 683,-1106.42 683,-1106.42 683,-1180.85 651.95,-1261.75 627.6,-1313.74"/>
<polygon fill="black" stroke="black" points="624.43,-1312.25 623.3,-1322.78 630.75,-1315.26 624.43,-1312.25"/>
</g>
<!-- BB23&#45;&gt;BB1 -->
<g id="edge38" class="edge">
<title>BB23&#45;&gt;BB1</title>
<path fill="none" stroke="black" d="M554.09,-1325.77C541.67,-1313.88 528.09,-1300.88 515.29,-1288.63"/>
<polygon fill="black" stroke="black" points="517.51,-1285.9 507.86,-1281.52 512.67,-1290.96 517.51,-1285.9"/>
</g>
<!-- BB24 -->
<g id="node25" class="node">
<title>BB24</title>
<ellipse fill="none" stroke="black" cx="814" cy="-1237.58" rx="103.48" ry="48.17"/>
<text text-anchor="middle" x="814" y="-1256.38" font-family="Times New Roman,serif" font-size="14.00">[17d..17f)</text>
<text text-anchor="middle" x="814" y="-1241.38" font-family="Times New Roman,serif" font-size="14.00">Count: 2460</text>
<text text-anchor="middle" x="814" y="-1226.38" font-family="Times New Roman,serif" font-size="14.00">Normalized count: 1.00</text>
<text text-anchor="middle" x="814" y="-1211.38" font-family="Times New Roman,serif" font-size="14.00">Samples weight: 0.01</text>
</g>
<!-- BB23&#45;&gt;BB24 -->
<g id="edge39" class="edge">
<title>BB23&#45;&gt;BB24</title>
<path fill="none" stroke="black" d="M662.05,-1330.57C687.55,-1315.14 717.09,-1297.26 743.31,-1281.38"/>
<polygon fill="black" stroke="black" points="745.32,-1284.26 752.06,-1276.08 741.69,-1278.27 745.32,-1284.26"/>
</g>
</g>
</svg>
