<?xml version="1.0" encoding="UTF-8" standalone="no"?>
<!DOCTYPE svg PUBLIC "-//W3C//DTD SVG 1.1//EN"
 "http://www.w3.org/Graphics/SVG/1.1/DTD/svg11.dtd">
<!-- Generated by graphviz version 2.47.0 (20210316.0004)
 -->
<!-- Title: G Pages: 1 -->
<svg width="1300pt" height="1558pt"
 viewBox="0.00 0.00 1299.76 1558.00" xmlns="http://www.w3.org/2000/svg" xmlns:xlink="http://www.w3.org/1999/xlink">
<g id="graph0" class="graph" transform="scale(1 1) rotate(0) translate(4 1554)">
<title>G</title>
<polygon fill="white" stroke="transparent" points="-4,4 -4,-1554 1295.76,-1554 1295.76,4 -4,4"/>
<!-- BB0 -->
<g id="node1" class="node">
<title>BB0</title>
<ellipse fill="none" stroke="black" cx="605.24" cy="-1501.92" rx="103.48" ry="48.17"/>
<text text-anchor="middle" x="605.24" y="-1520.72" font-family="Times New Roman,serif" font-size="14.00">[0..1e)</text>
<text text-anchor="middle" x="605.24" y="-1505.72" font-family="Times New Roman,serif" font-size="14.00">Count: 1</text>
<text text-anchor="middle" x="605.24" y="-1490.72" font-family="Times New Roman,serif" font-size="14.00">Normalized count: 1.00</text>
<text text-anchor="middle" x="605.24" y="-1475.72" font-family="Times New Roman,serif" font-size="14.00">Samples weight: 0.00</text>
</g>
<!-- BB23 -->
<g id="node24" class="node">
<title>BB23</title>
<ellipse fill="none" stroke="black" cx="605.24" cy="-1369.75" rx="108.38" ry="48.17"/>
<text text-anchor="middle" x="605.24" y="-1388.55" font-family="Times New Roman,serif" font-size="14.00">[171..17d)</text>
<text text-anchor="middle" x="605.24" y="-1373.55" font-family="Times New Roman,serif" font-size="14.00">Count: 38</text>
<text text-anchor="middle" x="605.24" y="-1358.55" font-family="Times New Roman,serif" font-size="14.00">Normalized count: 38.00</text>
<text text-anchor="middle" x="605.24" y="-1343.55" font-family="Times New Roman,serif" font-size="14.00">Samples weight: 0.15</text>
</g>
<!-- BB0&#45;&gt;BB23 -->
<g id="edge1" class="edge">
<title>BB0&#45;&gt;BB23</title>
<path fill="none" stroke="black" d="M605.24,-1453.55C605.24,-1445.29 605.24,-1436.6 605.24,-1428.1"/>
<polygon fill="black" stroke="black" points="608.74,-1427.86 605.24,-1417.86 601.74,-1427.86 608.74,-1427.86"/>
</g>
<!-- BB1 -->
<g id="node2" class="node">
<title>BB1</title>
<ellipse fill="none" stroke="black" cx="469.24" cy="-1237.58" rx="108.38" ry="48.17"/>
<text text-anchor="middle" x="469.24" y="-1256.38" font-family="Times New Roman,serif" font-size="14.00">[1e..2c)</text>
<text text-anchor="middle" x="469.24" y="-1241.38" font-family="Times New Roman,serif" font-size="14.00">Count: 37</text>
<text text-anchor="middle" x="469.24" y="-1226.38" font-family="Times New Roman,serif" font-size="14.00">Normalized count: 37.00</text>
<text text-anchor="middle" x="469.24" y="-1211.38" font-family="Times New Roman,serif" font-size="14.00">Samples weight: 0.14</text>
</g>
<!-- BB2 -->
<g id="node3" class="node">
<title>BB2</title>
<ellipse fill="none" stroke="black" cx="235.24" cy="-1105.42" rx="108.38" ry="48.17"/>
<text text-anchor="middle" x="235.24" y="-1124.22" font-family="Times New Roman,serif" font-size="14.00">[2c..38)</text>
<text text-anchor="middle" x="235.24" y="-1109.22" font-family="Times New Roman,serif" font-size="14.00">Count: 20</text>
<text text-anchor="middle" x="235.24" y="-1094.22" font-family="Times New Roman,serif" font-size="14.00">Normalized count: 20.00</text>
<text text-anchor="middle" x="235.24" y="-1079.22" font-family="Times New Roman,serif" font-size="14.00">Samples weight: 0.08</text>
</g>
<!-- BB1&#45;&gt;BB2 -->
<g id="edge3" class="edge">
<title>BB1&#45;&gt;BB2</title>
<path fill="none" stroke="black" d="M402.81,-1199.63C374.15,-1183.69 340.49,-1164.96 310.88,-1148.49"/>
<polygon fill="black" stroke="black" points="312.27,-1145.26 301.83,-1143.46 308.87,-1151.38 312.27,-1145.26"/>
</g>
<!-- BB6 -->
<g id="node7" class="node">
<title>BB6</title>
<ellipse fill="none" stroke="black" cx="469.24" cy="-1105.42" rx="108.38" ry="48.17"/>
<text text-anchor="middle" x="469.24" y="-1124.22" font-family="Times New Roman,serif" font-size="14.00">[54..58)</text>
<text text-anchor="middle" x="469.24" y="-1109.22" font-family="Times New Roman,serif" font-size="14.00">Count: 19</text>
<text text-anchor="middle" x="469.24" y="-1094.22" font-family="Times New Roman,serif" font-size="14.00">Normalized count: 19.00</text>
<text text-anchor="middle" x="469.24" y="-1079.22" font-family="Times New Roman,serif" font-size="14.00">Samples weight: 0.07</text>
</g>
<!-- BB1&#45;&gt;BB6 -->
<g id="edge2" class="edge">
<title>BB1&#45;&gt;BB6</title>
<path fill="none" stroke="black" d="M469.24,-1189.22C469.24,-1180.95 469.24,-1172.27 469.24,-1163.77"/>
<polygon fill="black" stroke="black" points="472.74,-1163.52 469.24,-1153.52 465.74,-1163.52 472.74,-1163.52"/>
</g>
<!-- BB2&#45;&gt;BB23 -->
<g id="edge4" class="edge">
<title>BB2&#45;&gt;BB23</title>
<path fill="none" stroke="black" d="M254.73,-1152.9C273.94,-1193.4 307,-1250.92 352.24,-1285.67 393.49,-1317.34 447.34,-1337.22 494.76,-1349.56"/>
<polygon fill="black" stroke="black" points="493.9,-1352.95 504.46,-1352 495.61,-1346.17 493.9,-1352.95"/>
</g>
<!-- BB3 -->
<g id="node4" class="node">
<title>BB3</title>
<ellipse fill="none" stroke="black" cx="322.24" cy="-973.25" rx="108.38" ry="48.17"/>
<text text-anchor="middle" x="322.24" y="-992.05" font-family="Times New Roman,serif" font-size="14.00">[38..47)</text>
<text text-anchor="middle" x="322.24" y="-977.05" font-family="Times New Roman,serif" font-size="14.00">Count: 10</text>
<text text-anchor="middle" x="322.24" y="-962.05" font-family="Times New Roman,serif" font-size="14.00">Normalized count: 10.00</text>
<text text-anchor="middle" x="322.24" y="-947.05" font-family="Times New Roman,serif" font-size="14.00">Samples weight: 0.04</text>
</g>
<!-- BB4 -->
<g id="node5" class="node">
<title>BB4</title>
<ellipse fill="none" stroke="black" cx="327.24" cy="-841.08" rx="103.48" ry="48.17"/>
<text text-anchor="middle" x="327.24" y="-859.88" font-family="Times New Roman,serif" font-size="14.00">[47..4c)</text>
<text text-anchor="middle" x="327.24" y="-844.88" font-family="Times New Roman,serif" font-size="14.00">Count: 8</text>
<text text-anchor="middle" x="327.24" y="-829.88" font-family="Times New Roman,serif" font-size="14.00">Normalized count: 8.00</text>
<text text-anchor="middle" x="327.24" y="-814.88" font-family="Times New Roman,serif" font-size="14.00">Samples weight: 0.03</text>
</g>
<!-- BB3&#45;&gt;BB4 -->
<g id="edge6" class="edge">
<title>BB3&#45;&gt;BB4</title>
<path fill="none" stroke="black" d="M324.06,-924.89C324.37,-916.62 324.71,-907.94 325.03,-899.43"/>
<polygon fill="black" stroke="black" points="328.54,-899.32 325.43,-889.19 321.55,-899.05 328.54,-899.32"/>
</g>
<!-- BB5 -->
<g id="node6" class="node">
<title>BB5</title>
<ellipse fill="none" stroke="black" cx="103.24" cy="-841.08" rx="103.48" ry="48.17"/>
<text text-anchor="middle" x="103.24" y="-859.88" font-family="Times New Roman,serif" font-size="14.00">[4c..54)</text>
<text text-anchor="middle" x="103.24" y="-844.88" font-family="Times New Roman,serif" font-size="14.00">Count: 2</text>
<text text-anchor="middle" x="103.24" y="-829.88" font-family="Times New Roman,serif" font-size="14.00">Normalized count: 2.00</text>
<text text-anchor="middle" x="103.24" y="-814.88" font-family="Times New Roman,serif" font-size="14.00">Samples weight: 0.01</text>
</g>
<!-- BB3&#45;&gt;BB5 -->
<g id="edge5" class="edge">
<title>BB3&#45;&gt;BB5</title>
<path fill="none" stroke="black" d="M258.31,-934.25C232.1,-918.68 201.66,-900.58 174.73,-884.57"/>
<polygon fill="black" stroke="black" points="176.5,-881.56 166.12,-879.46 172.92,-887.57 176.5,-881.56"/>
</g>
<!-- BB7 -->
<g id="node8" class="node">
<title>BB7</title>
<ellipse fill="none" stroke="black" cx="556.24" cy="-973.25" rx="108.38" ry="48.17"/>
<text text-anchor="middle" x="556.24" y="-992.05" font-family="Times New Roman,serif" font-size="14.00">[58..66)</text>
<text text-anchor="middle" x="556.24" y="-977.05" font-family="Times New Roman,serif" font-size="14.00">Count: 17</text>
<text text-anchor="middle" x="556.24" y="-962.05" font-family="Times New Roman,serif" font-size="14.00">Normalized count: 17.00</text>
<text text-anchor="middle" x="556.24" y="-947.05" font-family="Times New Roman,serif" font-size="14.00">Samples weight: 0.07</text>
</g>
<!-- BB4&#45;&gt;BB7 -->
<g id="edge7" class="edge">
<title>BB4&#45;&gt;BB7</title>
<path fill="none" stroke="black" d="M391.68,-878.71C419.69,-894.64 452.68,-913.38 481.73,-929.9"/>
<polygon fill="black" stroke="black" points="480.19,-933.05 490.62,-934.95 483.65,-926.96 480.19,-933.05"/>
</g>
<!-- BB5&#45;&gt;BB6 -->
<g id="edge8" class="edge">
<title>BB5&#45;&gt;BB6</title>
<path fill="none" stroke="black" d="M117.96,-888.95C133.26,-929.99 161.24,-988.1 205.24,-1021.33 258.91,-1061.87 288.21,-1036.72 352.24,-1057.33 362.11,-1060.51 372.33,-1064.12 382.44,-1067.9"/>
<polygon fill="black" stroke="black" points="381.49,-1071.28 392.08,-1071.57 383.98,-1064.74 381.49,-1071.28"/>
</g>
<!-- BB6&#45;&gt;BB3 -->
<g id="edge9" class="edge">
<title>BB6&#45;&gt;BB3</title>
<path fill="none" stroke="black" d="M421.51,-1062.15C407.58,-1049.82 392.23,-1036.22 377.85,-1023.49"/>
<polygon fill="black" stroke="black" points="379.78,-1020.53 369.98,-1016.52 375.14,-1025.77 379.78,-1020.53"/>
</g>
<!-- BB6&#45;&gt;BB7 -->
<g id="edge10" class="edge">
<title>BB6&#45;&gt;BB7</title>
<path fill="none" stroke="black" d="M499.67,-1058.89C506.33,-1048.92 513.44,-1038.28 520.29,-1028.03"/>
<polygon fill="black" stroke="black" points="523.33,-1029.79 525.97,-1019.53 517.51,-1025.9 523.33,-1029.79"/>
</g>
<!-- BB8 -->
<g id="node9" class="node">
<title>BB8</title>
<ellipse fill="none" stroke="black" cx="556.24" cy="-841.08" rx="108.38" ry="48.17"/>
<text text-anchor="middle" x="556.24" y="-859.88" font-family="Times New Roman,serif" font-size="14.00">[66..8f)</text>
<text text-anchor="middle" x="556.24" y="-844.88" font-family="Times New Roman,serif" font-size="14.00">Count: 17</text>
<text text-anchor="middle" x="556.24" y="-829.88" font-family="Times New Roman,serif" font-size="14.00">Normalized count: 17.00</text>
<text text-anchor="middle" x="556.24" y="-814.88" font-family="Times New Roman,serif" font-size="14.00">Samples weight: 0.07</text>
</g>
<!-- BB7&#45;&gt;BB8 -->
<g id="edge12" class="edge">
<title>BB7&#45;&gt;BB8</title>
<path fill="none" stroke="black" d="M556.24,-924.89C556.24,-916.62 556.24,-907.94 556.24,-899.43"/>
<polygon fill="black" stroke="black" points="559.74,-899.19 556.24,-889.19 552.74,-899.19 559.74,-899.19"/>
</g>
<!-- BB7&#45;&gt;BB23 -->
<g id="edge11" class="edge">
<title>BB7&#45;&gt;BB23</title>
<path fill="none" stroke="black" d="M575.6,-1020.59C579.8,-1032.38 583.72,-1045.17 586.24,-1057.33 604.27,-1144.64 606.97,-1248.41 606.6,-1311.38"/>
<polygon fill="black" stroke="black" points="603.1,-1311.48 606.51,-1321.51 610.1,-1311.54 603.1,-1311.48"/>
</g>
<!-- BB22 -->
<g id="node23" class="node">
<title>BB22</title>
<ellipse fill="none" stroke="black" cx="624.24" cy="-708.92" rx="108.38" ry="48.17"/>
<text text-anchor="middle" x="624.24" y="-727.72" font-family="Times New Roman,serif" font-size="14.00">[16a..171)</text>
<text text-anchor="middle" x="624.24" y="-712.72" font-family="Times New Roman,serif" font-size="14.00">Count: 31</text>
<text text-anchor="middle" x="624.24" y="-697.72" font-family="Times New Roman,serif" font-size="14.00">Normalized count: 31.00</text>
<text text-anchor="middle" x="624.24" y="-682.72" font-family="Times New Roman,serif" font-size="14.00">Samples weight: 0.12</text>
</g>
<!-- BB8&#45;&gt;BB22 -->
<g id="edge13" class="edge">
<title>BB8&#45;&gt;BB22</title>
<path fill="none" stroke="black" d="M580.21,-794.19C585.19,-784.66 590.48,-774.53 595.61,-764.72"/>
<polygon fill="black" stroke="black" points="598.72,-766.32 600.25,-755.83 592.52,-763.07 598.72,-766.32"/>
</g>
<!-- BB9 -->
<g id="node10" class="node">
<title>BB9</title>
<ellipse fill="none" stroke="black" cx="362.24" cy="-576.75" rx="108.38" ry="48.17"/>
<text text-anchor="middle" x="362.24" y="-595.55" font-family="Times New Roman,serif" font-size="14.00">[8f..95)</text>
<text text-anchor="middle" x="362.24" y="-580.55" font-family="Times New Roman,serif" font-size="14.00">Count: 14</text>
<text text-anchor="middle" x="362.24" y="-565.55" font-family="Times New Roman,serif" font-size="14.00">Normalized count: 14.00</text>
<text text-anchor="middle" x="362.24" y="-550.55" font-family="Times New Roman,serif" font-size="14.00">Samples weight: 0.05</text>
</g>
<!-- BB10 -->
<g id="node11" class="node">
<title>BB10</title>
<ellipse fill="none" stroke="black" cx="133.24" cy="-444.58" rx="103.48" ry="48.17"/>
<text text-anchor="middle" x="133.24" y="-463.38" font-family="Times New Roman,serif" font-size="14.00">[95..98)</text>
<text text-anchor="middle" x="133.24" y="-448.38" font-family="Times New Roman,serif" font-size="14.00">Count: 0</text>
<text text-anchor="middle" x="133.24" y="-433.38" font-family="Times New Roman,serif" font-size="14.00">Normalized count: 0.00</text>
<text text-anchor="middle" x="133.24" y="-418.38" font-family="Times New Roman,serif" font-size="14.00">Samples weight: 0.00</text>
</g>
<!-- BB9&#45;&gt;BB10 -->
<g id="edge15" class="edge">
<title>BB9&#45;&gt;BB10</title>
<path fill="none" stroke="black" d="M296.62,-538.45C268.47,-522.45 235.47,-503.69 206.53,-487.24"/>
<polygon fill="black" stroke="black" points="208.11,-484.11 197.68,-482.21 204.65,-490.2 208.11,-484.11"/>
</g>
<!-- BB11 -->
<g id="node12" class="node">
<title>BB11</title>
<ellipse fill="none" stroke="black" cx="362.24" cy="-444.58" rx="108.38" ry="48.17"/>
<text text-anchor="middle" x="362.24" y="-463.38" font-family="Times New Roman,serif" font-size="14.00">[98..b9)</text>
<text text-anchor="middle" x="362.24" y="-448.38" font-family="Times New Roman,serif" font-size="14.00">Count: 14</text>
<text text-anchor="middle" x="362.24" y="-433.38" font-family="Times New Roman,serif" font-size="14.00">Normalized count: 14.00</text>
<text text-anchor="middle" x="362.24" y="-418.38" font-family="Times New Roman,serif" font-size="14.00">Samples weight: 0.05</text>
</g>
<!-- BB9&#45;&gt;BB11 -->
<g id="edge14" class="edge">
<title>BB9&#45;&gt;BB11</title>
<path fill="none" stroke="black" d="M362.24,-528.39C362.24,-520.12 362.24,-511.44 362.24,-502.93"/>
<polygon fill="black" stroke="black" points="365.74,-502.69 362.24,-492.69 358.74,-502.69 365.74,-502.69"/>
</g>
<!-- BB10&#45;&gt;BB11 -->
<g id="edge16" class="edge">
<title>BB10&#45;&gt;BB11</title>
<path fill="none" stroke="black" d="M236.56,-444.58C238.88,-444.58 241.21,-444.58 243.54,-444.58"/>
<polygon fill="black" stroke="black" points="243.74,-448.08 253.74,-444.58 243.74,-441.08 243.74,-448.08"/>
</g>
<!-- BB12 -->
<g id="node13" class="node">
<title>BB12</title>
<ellipse fill="none" stroke="black" cx="289.24" cy="-312.42" rx="103.48" ry="48.17"/>
<text text-anchor="middle" x="289.24" y="-331.22" font-family="Times New Roman,serif" font-size="14.00">[b9..be)</text>
<text text-anchor="middle" x="289.24" y="-316.22" font-family="Times New Roman,serif" font-size="14.00">Count: 0</text>
<text text-anchor="middle" x="289.24" y="-301.22" font-family="Times New Roman,serif" font-size="14.00">Normalized count: 0.00</text>
<text text-anchor="middle" x="289.24" y="-286.22" font-family="Times New Roman,serif" font-size="14.00">Samples weight: 0.00</text>
</g>
<!-- BB11&#45;&gt;BB12 -->
<g id="edge18" class="edge">
<title>BB11&#45;&gt;BB12</title>
<path fill="none" stroke="black" d="M336.5,-397.69C331.16,-388.16 325.48,-378.03 319.98,-368.23"/>
<polygon fill="black" stroke="black" points="322.93,-366.34 314.99,-359.33 316.83,-369.77 322.93,-366.34"/>
</g>
<!-- BB14 -->
<g id="node15" class="node">
<title>BB14</title>
<ellipse fill="none" stroke="black" cx="556.24" cy="-312.42" rx="108.38" ry="48.17"/>
<text text-anchor="middle" x="556.24" y="-331.22" font-family="Times New Roman,serif" font-size="14.00">[c6..f2)</text>
<text text-anchor="middle" x="556.24" y="-316.22" font-family="Times New Roman,serif" font-size="14.00">Count: 14</text>
<text text-anchor="middle" x="556.24" y="-301.22" font-family="Times New Roman,serif" font-size="14.00">Normalized count: 14.00</text>
<text text-anchor="middle" x="556.24" y="-286.22" font-family="Times New Roman,serif" font-size="14.00">Samples weight: 0.05</text>
</g>
<!-- BB11&#45;&gt;BB14 -->
<g id="edge17" class="edge">
<title>BB11&#45;&gt;BB14</title>
<path fill="none" stroke="black" d="M420.97,-404.18C442.43,-389.78 466.86,-373.38 489.01,-358.53"/>
<polygon fill="black" stroke="black" points="491.02,-361.39 497.37,-352.91 487.12,-355.58 491.02,-361.39"/>
</g>
<!-- BB13 -->
<g id="node14" class="node">
<title>BB13</title>
<ellipse fill="none" stroke="black" cx="206.24" cy="-180.25" rx="103.48" ry="48.17"/>
<text text-anchor="middle" x="206.24" y="-199.05" font-family="Times New Roman,serif" font-size="14.00">[be..c6)</text>
<text text-anchor="middle" x="206.24" y="-184.05" font-family="Times New Roman,serif" font-size="14.00">Count: 0</text>
<text text-anchor="middle" x="206.24" y="-169.05" font-family="Times New Roman,serif" font-size="14.00">Normalized count: 0.00</text>
<text text-anchor="middle" x="206.24" y="-154.05" font-family="Times New Roman,serif" font-size="14.00">Samples weight: 0.00</text>
</g>
<!-- BB12&#45;&gt;BB13 -->
<g id="edge20" class="edge">
<title>BB12&#45;&gt;BB13</title>
<path fill="none" stroke="black" d="M260.21,-265.89C253.85,-255.92 247.07,-245.28 240.53,-235.03"/>
<polygon fill="black" stroke="black" points="243.44,-233.08 235.11,-226.53 237.54,-236.84 243.44,-233.08"/>
</g>
<!-- BB12&#45;&gt;BB14 -->
<g id="edge19" class="edge">
<title>BB12&#45;&gt;BB14</title>
<path fill="none" stroke="black" d="M392.49,-312.42C407.48,-312.42 422.46,-312.42 437.45,-312.42"/>
<polygon fill="black" stroke="black" points="437.82,-315.92 447.82,-312.42 437.82,-308.92 437.82,-315.92"/>
</g>
<!-- BB13&#45;&gt;BB14 -->
<g id="edge22" class="edge">
<title>BB13&#45;&gt;BB14</title>
<path fill="none" stroke="black" d="M285.97,-210.9C339.16,-230.69 409.24,-256.75 464.7,-277.37"/>
<polygon fill="black" stroke="black" points="463.59,-280.69 474.18,-280.9 466.03,-274.13 463.59,-280.69"/>
</g>
<!-- BB21 -->
<g id="node22" class="node">
<title>BB21</title>
<ellipse fill="none" stroke="black" cx="150.24" cy="-48.08" rx="103.48" ry="48.17"/>
<text text-anchor="middle" x="150.24" y="-66.88" font-family="Times New Roman,serif" font-size="14.00">[160..16a)</text>
<text text-anchor="middle" x="150.24" y="-51.88" font-family="Times New Roman,serif" font-size="14.00">Count: 0</text>
<text text-anchor="middle" x="150.24" y="-36.88" font-family="Times New Roman,serif" font-size="14.00">Normalized count: 0.00</text>
<text text-anchor="middle" x="150.24" y="-21.88" font-family="Times New Roman,serif" font-size="14.00">Samples weight: 0.00</text>
</g>
<!-- BB13&#45;&gt;BB21 -->
<g id="edge21" class="edge">
<title>BB13&#45;&gt;BB21</title>
<path fill="none" stroke="black" d="M186.34,-132.99C182.42,-123.89 178.28,-114.26 174.25,-104.89"/>
<polygon fill="black" stroke="black" points="177.43,-103.43 170.26,-95.63 171,-106.2 177.43,-103.43"/>
</g>
<!-- BB15 -->
<g id="node16" class="node">
<title>BB15</title>
<ellipse fill="none" stroke="black" cx="468.24" cy="-180.25" rx="103.48" ry="48.17"/>
<text text-anchor="middle" x="468.24" y="-199.05" font-family="Times New Roman,serif" font-size="14.00">[f2..f7)</text>
<text text-anchor="middle" x="468.24" y="-184.05" font-family="Times New Roman,serif" font-size="14.00">Count: 0</text>
<text text-anchor="middle" x="468.24" y="-169.05" font-family="Times New Roman,serif" font-size="14.00">Normalized count: 0.00</text>
<text text-anchor="middle" x="468.24" y="-154.05" font-family="Times New Roman,serif" font-size="14.00">Samples weight: 0.00</text>
</g>
<!-- BB14&#45;&gt;BB15 -->
<g id="edge23" class="edge">
<title>BB14&#45;&gt;BB15</title>
<path fill="none" stroke="black" d="M525.71,-266.26C518.81,-256.06 511.43,-245.14 504.33,-234.64"/>
<polygon fill="black" stroke="black" points="507.22,-232.65 498.71,-226.33 501.42,-236.58 507.22,-232.65"/>
</g>
<!-- BB17 -->
<g id="node18" class="node">
<title>BB17</title>
<ellipse fill="none" stroke="black" cx="692.24" cy="-180.25" rx="103.48" ry="48.17"/>
<text text-anchor="middle" x="692.24" y="-199.05" font-family="Times New Roman,serif" font-size="14.00">[f9..114)</text>
<text text-anchor="middle" x="692.24" y="-184.05" font-family="Times New Roman,serif" font-size="14.00">Count: 0</text>
<text text-anchor="middle" x="692.24" y="-169.05" font-family="Times New Roman,serif" font-size="14.00">Normalized count: 0.00</text>
<text text-anchor="middle" x="692.24" y="-154.05" font-family="Times New Roman,serif" font-size="14.00">Samples weight: 0.00</text>
</g>
<!-- BB14&#45;&gt;BB17 -->
<g id="edge24" class="edge">
<title>BB14&#45;&gt;BB17</title>
<path fill="none" stroke="black" d="M601.15,-268.43C613.69,-256.43 627.43,-243.28 640.35,-230.92"/>
<polygon fill="black" stroke="black" points="643.04,-233.19 647.84,-223.74 638.2,-228.13 643.04,-233.19"/>
</g>
<!-- BB18 -->
<g id="node19" class="node">
<title>BB18</title>
<ellipse fill="none" stroke="black" cx="921.24" cy="-180.25" rx="108.38" ry="48.17"/>
<text text-anchor="middle" x="921.24" y="-199.05" font-family="Times New Roman,serif" font-size="14.00">[114..132)</text>
<text text-anchor="middle" x="921.24" y="-184.05" font-family="Times New Roman,serif" font-size="14.00">Count: 14</text>
<text text-anchor="middle" x="921.24" y="-169.05" font-family="Times New Roman,serif" font-size="14.00">Normalized count: 14.00</text>
<text text-anchor="middle" x="921.24" y="-154.05" font-family="Times New Roman,serif" font-size="14.00">Samples weight: 0.05</text>
</g>
<!-- BB14&#45;&gt;BB18 -->
<g id="edge25" class="edge">
<title>BB14&#45;&gt;BB18</title>
<path fill="none" stroke="black" d="M643.33,-283.64C691.08,-268.06 751.19,-247.87 804.24,-228.33 813.74,-224.83 823.62,-221.06 833.44,-217.23"/>
<polygon fill="black" stroke="black" points="834.79,-220.46 842.82,-213.55 832.23,-213.95 834.79,-220.46"/>
</g>
<!-- BB19 -->
<g id="node20" class="node">
<title>BB19</title>
<ellipse fill="none" stroke="black" cx="1150.24" cy="-180.25" rx="103.48" ry="48.17"/>
<text text-anchor="middle" x="1150.24" y="-199.05" font-family="Times New Roman,serif" font-size="14.00">[132..150)</text>
<text text-anchor="middle" x="1150.24" y="-184.05" font-family="Times New Roman,serif" font-size="14.00">Count: 0</text>
<text text-anchor="middle" x="1150.24" y="-169.05" font-family="Times New Roman,serif" font-size="14.00">Normalized count: 0.00</text>
<text text-anchor="middle" x="1150.24" y="-154.05" font-family="Times New Roman,serif" font-size="14.00">Samples weight: 0.00</text>
</g>
<!-- BB14&#45;&gt;BB19 -->
<g id="edge27" class="edge">
<title>BB14&#45;&gt;BB19</title>
<path fill="none" stroke="black" d="M661.22,-300.3C759.92,-288.21 911.09,-265.49 1038.24,-228.33 1048.06,-225.46 1058.18,-221.99 1068.13,-218.25"/>
<polygon fill="black" stroke="black" points="1069.54,-221.46 1077.6,-214.59 1067.01,-214.93 1069.54,-221.46"/>
</g>
<!-- BB14&#45;&gt;BB22 -->
<g id="edge26" class="edge">
<title>BB14&#45;&gt;BB22</title>
<path fill="none" stroke="black" d="M564.38,-360.66C576.9,-433.31 600.85,-572.24 614.35,-650.55"/>
<polygon fill="black" stroke="black" points="610.95,-651.46 616.1,-660.72 617.85,-650.27 610.95,-651.46"/>
</g>
<!-- BB16 -->
<g id="node17" class="node">
<title>BB16</title>
<ellipse fill="none" stroke="black" cx="393.24" cy="-48.08" rx="103.48" ry="48.17"/>
<text text-anchor="middle" x="393.24" y="-66.88" font-family="Times New Roman,serif" font-size="14.00">[f7..f9)</text>
<text text-anchor="middle" x="393.24" y="-51.88" font-family="Times New Roman,serif" font-size="14.00">Count: 0</text>
<text text-anchor="middle" x="393.24" y="-36.88" font-family="Times New Roman,serif" font-size="14.00">Normalized count: 0.00</text>
<text text-anchor="middle" x="393.24" y="-21.88" font-family="Times New Roman,serif" font-size="14.00">Samples weight: 0.00</text>
</g>
<!-- BB15&#45;&gt;BB16 -->
<g id="edge29" class="edge">
<title>BB15&#45;&gt;BB16</title>
<path fill="none" stroke="black" d="M442.01,-133.72C436.39,-123.97 430.4,-113.57 424.6,-103.52"/>
<polygon fill="black" stroke="black" points="427.61,-101.72 419.58,-94.8 421.54,-105.22 427.61,-101.72"/>
</g>
<!-- BB20 -->
<g id="node21" class="node">
<title>BB20</title>
<ellipse fill="none" stroke="black" cx="949.24" cy="-48.08" rx="103.48" ry="48.17"/>
<text text-anchor="middle" x="949.24" y="-66.88" font-family="Times New Roman,serif" font-size="14.00">[150..160)</text>
<text text-anchor="middle" x="949.24" y="-51.88" font-family="Times New Roman,serif" font-size="14.00">Count: 0</text>
<text text-anchor="middle" x="949.24" y="-36.88" font-family="Times New Roman,serif" font-size="14.00">Normalized count: 0.00</text>
<text text-anchor="middle" x="949.24" y="-21.88" font-family="Times New Roman,serif" font-size="14.00">Samples weight: 0.00</text>
</g>
<!-- BB15&#45;&gt;BB20 -->
<g id="edge28" class="edge">
<title>BB15&#45;&gt;BB20</title>
<path fill="none" stroke="black" d="M541.65,-146.22C554.37,-141.12 567.58,-136.22 580.24,-132.17 667.33,-104.3 768.85,-82.16 843.34,-67.77"/>
<polygon fill="black" stroke="black" points="844.04,-71.2 853.2,-65.88 842.72,-64.33 844.04,-71.2"/>
</g>
<!-- BB16&#45;&gt;BB22 -->
<g id="edge30" class="edge">
<title>BB16&#45;&gt;BB22</title>
<path fill="none" stroke="black" d="M368.33,-94.86C351.52,-132.3 335.8,-185.8 356.24,-228.33 367.33,-251.42 386.02,-243.73 401.24,-264.33 428.54,-301.3 413.02,-322.76 439.24,-360.5 452.88,-380.14 465.01,-377.27 479.24,-396.5 510.95,-439.38 569.13,-574.34 601.31,-651.8"/>
<polygon fill="black" stroke="black" points="598.23,-653.51 605.29,-661.41 604.7,-650.83 598.23,-653.51"/>
</g>
<!-- BB17&#45;&gt;BB22 -->
<g id="edge31" class="edge">
<title>BB17&#45;&gt;BB22</title>
<path fill="none" stroke="black" d="M687.68,-228.48C684.08,-264.65 678.76,-315.78 673.24,-360.5 660.6,-462.85 643.25,-581.78 632.94,-650.59"/>
<polygon fill="black" stroke="black" points="629.43,-650.37 631.41,-660.78 636.36,-651.41 629.43,-650.37"/>
</g>
<!-- BB18&#45;&gt;BB22 -->
<g id="edge32" class="edge">
<title>BB18&#45;&gt;BB22</title>
<path fill="none" stroke="black" d="M895.46,-226.96C840.87,-323.77 713.78,-549.12 655.03,-653.3"/>
<polygon fill="black" stroke="black" points="651.94,-651.67 650.07,-662.1 658.04,-655.11 651.94,-651.67"/>
</g>
<!-- BB19&#45;&gt;BB22 -->
<g id="edge33" class="edge">
<title>BB19&#45;&gt;BB22</title>
<path fill="none" stroke="black" d="M1108.94,-224.35C1032.08,-304.31 861.38,-480.62 713.24,-624.83 702.06,-635.72 689.92,-647.23 678.31,-658.11"/>
<polygon fill="black" stroke="black" points="675.69,-655.77 670.78,-665.16 680.47,-660.89 675.69,-655.77"/>
</g>
<!-- BB20&#45;&gt;BB22 -->
<g id="edge34" class="edge">
<title>BB20&#45;&gt;BB22</title>
<path fill="none" stroke="black" d="M1047.68,-62.88C1128.61,-76.36 1234.34,-99.61 1262.24,-132.17 1314.36,-193 1281.24,-231.3 1281.24,-311.42 1281.24,-445.58 1281.24,-445.58 1281.24,-445.58 1281.24,-562.1 920.36,-650 733.52,-687.7"/>
<polygon fill="black" stroke="black" points="732.78,-684.28 723.66,-689.68 734.16,-691.14 732.78,-684.28"/>
</g>
<!-- BB21&#45;&gt;BB22 -->
<g id="edge35" class="edge">
<title>BB21&#45;&gt;BB22</title>
<path fill="none" stroke="black" d="M107.43,-92.25C63.72,-141.1 2.24,-225.13 2.24,-311.42 2.24,-445.58 2.24,-445.58 2.24,-445.58 2.24,-579.79 120.33,-575.75 245.24,-624.83 331.34,-658.67 434.13,-680.11 510.93,-692.72"/>
<polygon fill="black" stroke="black" points="510.68,-696.23 521.11,-694.37 511.8,-689.32 510.68,-696.23"/>
</g>
<!-- BB22&#45;&gt;BB9 -->
<g id="edge36" class="edge">
<title>BB22&#45;&gt;BB9</title>
<path fill="none" stroke="black" d="M552.99,-672.52C518.91,-655.59 477.97,-635.25 442.76,-617.75"/>
<polygon fill="black" stroke="black" points="443.98,-614.45 433.47,-613.14 440.87,-620.72 443.98,-614.45"/>
</g>
<!-- BB22&#45;&gt;BB23 -->
<g id="edge37" class="edge">
<title>BB22&#45;&gt;BB23</title>
<path fill="none" stroke="black" d="M655.66,-755.25C662.51,-767.07 668.98,-780.12 673.24,-793 698.38,-869.06 692.24,-892.14 692.24,-972.25 692.24,-1106.42 692.24,-1106.42 692.24,-1106.42 692.24,-1181.1 660.07,-1261.95 634.86,-1313.85"/>
<polygon fill="black" stroke="black" points="631.69,-1312.37 630.4,-1322.88 637.97,-1315.47 631.69,-1312.37"/>
</g>
<!-- BB23&#45;&gt;BB1 -->
<g id="edge38" class="edge">
<title>BB23&#45;&gt;BB1</title>
<path fill="none" stroke="black" d="M560.33,-1325.77C547.91,-1313.88 534.33,-1300.88 521.53,-1288.63"/>
<polygon fill="black" stroke="black" points="523.74,-1285.9 514.1,-1281.52 518.9,-1290.96 523.74,-1285.9"/>
</g>
<!-- BB24 -->
<g id="node25" class="node">
<title>BB24</title>
<ellipse fill="none" stroke="black" cx="823.24" cy="-1237.58" rx="103.48" ry="48.17"/>
<text text-anchor="middle" x="823.24" y="-1256.38" font-family="Times New Roman,serif" font-size="14.00">[17d..17f)</text>
<text text-anchor="middle" x="823.24" y="-1241.38" font-family="Times New Roman,serif" font-size="14.00">Count: 1</text>
<text text-anchor="middle" x="823.24" y="-1226.38" font-family="Times New Roman,serif" font-size="14.00">Normalized count: 1.00</text>
<text text-anchor="middle" x="823.24" y="-1211.38" font-family="Times New Roman,serif" font-size="14.00">Samples weight: 0.00</text>
</g>
<!-- BB23&#45;&gt;BB24 -->
<g id="edge39" class="edge">
<title>BB23&#45;&gt;BB24</title>
<path fill="none" stroke="black" d="M668.88,-1330.75C694.85,-1315.24 725,-1297.24 751.73,-1281.28"/>
<polygon fill="black" stroke="black" points="753.86,-1284.09 760.65,-1275.95 750.27,-1278.08 753.86,-1284.09"/>
</g>
</g>
</svg>
